<?xml version="1.0" encoding="utf-8"?>
<!-- Generator: Adobe Illustrator 24.1.0, SVG Export Plug-In . SVG Version: 6.00 Build 0)  -->
<svg version="1.1" id="Layer_1" xmlns="http://www.w3.org/2000/svg" xmlns:xlink="http://www.w3.org/1999/xlink" x="0px" y="0px"
	 viewBox="0 0 128 128" style="enable-background:new 0 0 128 128;" xml:space="preserve">
<style type="text/css">
	.st0{fill:#185849;}
	.st1{fill:#C4D7D3;}
	.st2{fill:#FFFFFF;}
	.st3{fill:#27ae60;}
	.st4{fill:#4D9987;}
	.st5{fill:#E9EBDF;}
	.st6{fill:#0E352C;}
	.st7{fill:none;}
</style>
<g id="Layer_1_1_">
</g>
<g>
	<g id="Layer_2_1_">
		<g id="New_Illustrations_1_">
			<g>
				<g>
					<path class="st0" d="M17.3,103.2c-2.1,0-4-0.5-5.8-1.5C6.8,98.9,4,92.5,4,84.3c0-15.4,9.4-33.3,20.9-40l40.9-23.6
						c5.2-3,10.3-3.4,14.4-1.1c4.8,2.8,7.6,9.1,7.6,17.4c0,15.4-9.4,33.3-20.9,39.9L26,100.5C23,102.3,20,103.2,17.3,103.2z
						 M74.5,20.1c-2.4,0-5,0.8-7.6,2.3l-41,23.7C14.9,52.4,6,69.5,6,84.3c0,7.5,2.4,13.3,6.6,15.7c3.4,2,7.8,1.6,12.4-1.1l40.9-23.6
						c11-6.4,19.9-23.5,19.9-38.2c0-7.5-2.4-13.3-6.6-15.7C77.8,20.5,76.2,20.1,74.5,20.1z M66.3,21.6L66.3,21.6L66.3,21.6z"/>
					<g>
						<path class="st1" d="M89,25.8l-9.3-5.3l0,0c-3.6-2.1-8.3-1.9-13.4,1.1c-11.3,6.5-20.4,24-20.4,39.1c0,8.2,2.7,14,7.1,16.5l0,0
							l9.3,5.3l2.7-5.7c0.5-0.2,1-0.5,1.4-0.8c11.3-6.5,20.4-24,20.4-39.1c0-2-0.2-3.8-0.5-5.5L89,25.8z"/>
						<path class="st2" d="M62.2,83.5c-0.2,0-0.3,0-0.5-0.1L52.5,78l-0.1-0.1c-4.7-2.8-7.5-9.1-7.5-17.3c0-15.4,9.4-33.3,20.9-39.9
							c5.2-3,10.2-3.4,14.3-1.1c0,0,0.1,0,0.1,0.1l9.3,5.3c0.5,0.3,0.6,0.8,0.4,1.3l-2.5,5.4c0.3,1.7,0.4,3.5,0.4,5.4
							c0,15.4-9.4,33.3-20.9,39.9c-0.4,0.2-0.8,0.4-1.2,0.6L63.1,83c-0.1,0.3-0.3,0.4-0.6,0.5C62.4,83.5,62.3,83.5,62.2,83.5z
							 M53.6,76.4l8.2,4.7l2.2-4.7c0.1-0.2,0.3-0.4,0.5-0.5c0.5-0.2,0.9-0.5,1.4-0.7c11-6.4,19.9-23.5,19.9-38.2
							c0-1.9-0.2-3.7-0.5-5.4c0-0.2,0-0.4,0.1-0.6l2.3-4.8l-8.4-4.8c0,0-0.1,0-0.1-0.1c-3.4-2-7.8-1.6-12.4,1.1
							c-11,6.4-19.9,23.5-19.9,38.2C46.9,68.1,49.3,73.9,53.6,76.4C53.5,76.3,53.5,76.4,53.6,76.4z"/>
					</g>
					<path class="st2" d="M79.7,20.5L79.7,20.5c-3.6-2.1-8.3-1.9-13.4,1.1c-6.5,3.7-12.3,11.1-16,19.6L81.2,59
						c3.5-6.9,5.6-14.7,5.6-21.9c0-2-0.2-3.8-0.5-5.5L89,26L79.7,20.5z"/>
					<g>
						
							<ellipse transform="matrix(0.3916 -0.9201 0.9201 0.3916 -3.8578 102.5568)" class="st3" cx="75.6" cy="54.2" rx="31.4" ry="17.8"/>
						<path class="st2" d="M67.5,84.9c-2.1,0-4-0.5-5.7-1.5c-4.8-2.8-7.6-9.1-7.6-17.4c0-15.4,9.4-33.3,20.9-39.9
							c5.2-3,10.3-3.4,14.4-1.1c4.8,2.8,7.6,9.1,7.6,17.4c0,15.4-9.4,33.3-20.9,39.9C73.1,84,70.2,84.9,67.5,84.9z M83.7,25.5
							c-2.4,0-5,0.8-7.6,2.3c-11,6.4-19.9,23.5-19.9,38.2c0,7.5,2.4,13.3,6.6,15.7c3.4,2,7.8,1.6,12.4-1.1
							c11-6.4,19.9-23.5,19.9-38.2c0-7.5-2.4-13.3-6.6-15.7C87.1,25.9,85.5,25.5,83.7,25.5z"/>
					</g>
					<path class="st1" d="M71.3,71c-1.2,0-2.3-0.3-3.3-0.9c-2.7-1.6-4.3-5.1-4.3-9.6c0-8.3,5.1-18,11.4-21.6
						c2.9-1.7,5.8-1.9,8.1-0.6c2.7,1.6,4.3,5.1,4.3,9.6c0,8.3-5.1,18-11.4,21.6C74.4,70.5,72.8,71,71.3,71z M79.9,39.4
						c-1.2,0-2.5,0.4-3.8,1.2c-5.7,3.3-10.4,12.2-10.4,19.9c0,3.8,1.2,6.7,3.3,7.9c1.6,1,3.8,0.7,6.1-0.6
						c5.7-3.3,10.4-12.2,10.4-19.9c0-3.8-1.2-6.7-3.3-7.9C81.5,39.6,80.8,39.4,79.9,39.4z"/>
					<path class="st0" d="M67.5,84.9c-2,0-3.9-0.5-5.6-1.4c0,0-0.1,0-0.1-0.1L52.5,78l-0.1-0.1c-4.7-2.8-7.5-9.1-7.5-17.3
						c0-15.4,9.4-33.3,20.9-39.9c5.2-3,10.2-3.4,14.3-1.1c0,0,0.1,0,0.1,0.1l9.3,5.3l0.1,0.1c4.7,2.8,7.5,9.1,7.5,17.3
						c0,15.4-9.4,33.3-20.9,39.9C73.1,84,70.2,84.9,67.5,84.9z M62.6,81.6C62.6,81.6,62.7,81.6,62.6,81.6c3.5,2.1,7.9,1.7,12.5-1
						C86.1,74.2,95,57.1,95,42.4c0-7.5-2.4-13.3-6.6-15.7c0,0-0.1,0-0.1-0.1l-9-5.2c0,0-0.1,0-0.1-0.1c-3.4-2-7.8-1.6-12.4,1.1
						c-11,6.4-19.9,23.5-19.9,38.2c0,7.5,2.4,13.3,6.6,15.7c0,0,0.1,0,0.1,0.1L62.6,81.6z"/>
					<g>
						<g>
							<polygon class="st4" points="112.3,61.3 81.5,56.8 80.6,104 90.2,91.1 101.5,110.7 114.1,93.8 102.8,74.2 							"/>
							<path class="st2" d="M101.5,111.7L101.5,111.7c-0.4,0-0.7-0.2-0.9-0.5L90.1,92.9l-8.7,11.7c-0.3,0.3-0.7,0.5-1.1,0.4
								s-0.7-0.5-0.7-1l0.9-47.2c0-0.3,0.1-0.6,0.4-0.7c0.2-0.2,0.5-0.3,0.8-0.2l30.8,4.5c0.3,0.1,0.6,0.3,0.8,0.6
								c0.1,0.3,0.1,0.7-0.1,1L104,74.3l11,19c0.2,0.3,0.2,0.8-0.1,1.1l-12.6,16.9C102.1,111.6,101.8,111.7,101.5,111.7z M90.2,90.1
								L90.2,90.1c0.4,0,0.7,0.2,0.9,0.5l10.6,18.3L113,93.7l-11-19c-0.2-0.3-0.2-0.8,0.1-1.1l8.6-11.5l-28-4.1l-0.8,43l7.7-10.4
								C89.6,90.3,89.9,90.1,90.2,90.1z"/>
						</g>
						<g>
							<polygon class="st4" points="121.2,66.4 90.5,61.9 89.6,109.1 99.1,96.3 110.4,115.9 123,98.9 111.7,79.3 							"/>
							<path class="st2" d="M110.4,116.9L110.4,116.9c-0.4,0-0.7-0.2-0.9-0.5L99,98.1l-8.7,11.7c-0.3,0.3-0.7,0.5-1.1,0.4
								s-0.7-0.5-0.7-1L89.4,62c0-0.3,0.1-0.6,0.4-0.7s0.5-0.3,0.8-0.2l30.8,4.5c0.3,0.1,0.6,0.3,0.8,0.6c0.1,0.3,0.1,0.7-0.1,1
								l-9.2,12.4l11,19c0.2,0.3,0.2,0.8-0.1,1.1l-12.6,16.9C111.1,116.7,110.8,116.9,110.4,116.9z M99.1,95.3
								C99.1,95.3,99.2,95.3,99.1,95.3c0.4,0,0.7,0.2,0.9,0.5l10.6,18.3l11.3-15.2l-11-19c-0.2-0.3-0.2-0.8,0.1-1.1l8.6-11.5
								l-28-4.1l-0.8,43l7.7-10.4C98.5,95.4,98.8,95.3,99.1,95.3z"/>
						</g>
						<g>
							<polygon class="st5" points="110.4,115.9 101.5,110.7 95.8,100.8 99.1,96.3 							"/>
							<path class="st2" d="M110.4,116.9c-0.2,0-0.3,0-0.5-0.1l-8.9-5.1c-0.2-0.1-0.3-0.2-0.4-0.4l-5.8-10c-0.2-0.3-0.2-0.8,0.1-1.1
								l3.3-4.5c0.2-0.3,0.5-0.4,0.9-0.4c0.3,0,0.6,0.2,0.8,0.5l11.3,19.6c0.2,0.4,0.2,0.9-0.2,1.2
								C111,116.8,110.7,116.9,110.4,116.9z M102.3,110l5.4,3.1l-8.7-15l-2,2.7L102.3,110z"/>
						</g>
						<g>
							<polygon class="st5" points="89.6,109.1 80.6,104 81.5,56.8 90.5,61.9 							"/>
							<path class="st2" d="M89.6,110.1c-0.2,0-0.3,0-0.5-0.1l-8.9-5.1c-0.3-0.2-0.5-0.5-0.5-0.9l0.9-47.2c0-0.4,0.2-0.7,0.5-0.9
								s0.7-0.2,1,0L91,61c0.3,0.2,0.5,0.5,0.5,0.9l-0.9,47.2c0,0.4-0.2,0.7-0.5,0.9C89.9,110.1,89.7,110.1,89.6,110.1z M81.7,103.4
								l6.9,4l0.9-44.9l-6.9-4L81.7,103.4z"/>
						</g>
						<g>
							<polygon class="st5" points="121.2,66.4 112.3,61.3 81.5,56.8 90.5,61.9 							"/>
							<path class="st2" d="M121.2,67.4L121.2,67.4l-30.9-4.5c-0.1,0-0.2-0.1-0.4-0.1L81,57.6c-0.4-0.2-0.6-0.7-0.4-1.2
								s0.6-0.7,1.1-0.7l30.8,4.5c0.1,0,0.2,0.1,0.4,0.1l8.9,5.1c0.4,0.2,0.6,0.7,0.4,1.2C122,67.2,121.7,67.4,121.2,67.4z
								 M90.8,60.9l25.4,3.7l-4.2-2.4l-25.4-3.7L90.8,60.9z"/>
						</g>
						<path class="st6" d="M110.4,116.9c-0.2,0-0.3,0-0.5-0.1l-8.9-5.1c-0.2-0.1-0.3-0.2-0.4-0.4l-5-8.7l-5.3,7.2
							c-0.3,0.4-0.9,0.5-1.3,0.3l-8.9-5.1c-0.3-0.2-0.5-0.5-0.5-0.9l0.9-47.2c0-0.3,0.1-0.6,0.4-0.7c0.2-0.2,0.5-0.3,0.8-0.2
							l30.8,4.5c0.1,0,0.2,0.1,0.4,0.1l8.9,5.1c0.2,0.1,0.4,0.4,0.5,0.7c0.1,0.3,0,0.6-0.2,0.8l-9.2,12.4l11,19
							c0.2,0.3,0.2,0.8-0.1,1.1l-12.6,16.9C111,116.7,110.7,116.9,110.4,116.9z M102.3,110l7.9,4.6l11.6-15.7l-11-19
							c-0.2-0.3-0.2-0.8,0.1-1.1l8.9-12l-7.8-4.5L82.5,58l-0.9,45.5l7.6,4.4l5.7-7.7c0.2-0.3,0.5-0.4,0.9-0.4c0.3,0,0.6,0.2,0.8,0.5
							L102.3,110z"/>
					</g>
					<g>
						<path class="st0" d="M62.7,90.8c-0.3,0-0.5-0.1-0.7-0.3c-0.2-0.2-0.3-0.4-0.3-0.7c0-0.1,0-0.3,0.1-0.4c0-0.1,0.1-0.2,0.2-0.3
							c0.4-0.4,1-0.4,1.4,0c0.1,0.1,0.2,0.2,0.2,0.3c0,0.1,0.1,0.2,0.1,0.4c0,0.3-0.1,0.5-0.3,0.7c0,0-0.1,0.1-0.2,0.1
							c0,0-0.1,0.1-0.2,0.1C62.9,90.7,62.9,90.7,62.7,90.8C62.8,90.8,62.7,90.8,62.7,90.8z"/>
						<path class="st0" d="M28.9,109.3c-0.3-0.5-0.1-1.1,0.4-1.4l0,0c0.5-0.3,1.1-0.1,1.4,0.4l0,0c0.3,0.5,0.1,1.1-0.4,1.4l0,0
							c-0.1,0.1-0.3,0.1-0.5,0.1l0,0C29.4,109.8,29,109.6,28.9,109.3z M34.4,106.1c-0.3-0.5-0.1-1.1,0.4-1.4l0,0
							c0.5-0.3,1.1-0.1,1.4,0.4l0,0c0.3,0.5,0.1,1.1-0.4,1.4l0,0c-0.1,0.1-0.3,0.1-0.5,0.1l0,0C34.9,106.6,34.5,106.4,34.4,106.1z
							 M39.8,103c-0.3-0.5-0.1-1.1,0.4-1.4l0,0c0.5-0.3,1.1-0.1,1.4,0.4l0,0c0.3,0.5,0.1,1.1-0.4,1.4l0,0c-0.2,0.1-0.3,0.1-0.5,0.1
							l0,0C40.4,103.5,40,103.3,39.8,103z M45.3,99.8c-0.3-0.5-0.1-1.1,0.4-1.4l0,0c0.5-0.3,1.1-0.1,1.4,0.4l0,0
							c0.3,0.5,0.1,1.1-0.4,1.4l0,0c-0.2,0.1-0.3,0.1-0.5,0.1l0,0C45.9,100.3,45.5,100.1,45.3,99.8z M50.8,96.6
							c-0.3-0.5-0.1-1.1,0.4-1.4l0,0c0.5-0.3,1.1-0.1,1.4,0.4l0,0c0.3,0.5,0.1,1.1-0.4,1.4l0,0c-0.2,0.1-0.3,0.1-0.5,0.1l0,0
							C51.3,97.1,51,96.9,50.8,96.6z M56.3,93.5c-0.3-0.5-0.1-1.1,0.4-1.4l0,0c0.5-0.3,1.1-0.1,1.4,0.4l0,0c0.3,0.5,0.1,1.1-0.4,1.4
							l0,0C57.5,94,57.4,94,57.2,94l0,0C56.8,94,56.5,93.8,56.3,93.5z"/>
						<path class="st0" d="M24.2,113c-0.1,0-0.1,0-0.2,0s-0.1,0-0.2-0.1c-0.1,0-0.1-0.1-0.2-0.1l-0.1-0.1c-0.2-0.2-0.3-0.4-0.3-0.7
							c0-0.1,0-0.1,0-0.2s0-0.1,0.1-0.2c0-0.1,0.1-0.1,0.1-0.2s0.1-0.1,0.1-0.2c0.4-0.4,1-0.4,1.4,0c0,0.1,0.1,0.1,0.1,0.2
							c0,0,0.1,0.1,0.1,0.2s0,0.1,0.1,0.2c0,0.1,0,0.1,0,0.2c0,0.3-0.1,0.5-0.3,0.7C24.8,112.9,24.5,113,24.2,113z"/>
					</g>
					<g>
						<path class="st6" d="M62.7,13.1c-0.3,0-0.5-0.1-0.7-0.3c-0.1-0.1-0.2-0.2-0.2-0.3c-0.1-0.1-0.1-0.2-0.1-0.4
							c0-0.3,0.1-0.5,0.3-0.7s0.6-0.3,0.9-0.3c0.1,0,0.1,0,0.2,0.1c0.1,0,0.1,0,0.2,0.1c0.1,0,0.1,0.1,0.2,0.1
							c0.2,0.2,0.3,0.4,0.3,0.7c0,0.1,0,0.3-0.1,0.4c0,0.1-0.1,0.2-0.2,0.3C63.2,13,62.9,13.1,62.7,13.1z"/>
						<path class="st6" d="M28.9,31.6c-0.3-0.5-0.1-1.1,0.4-1.4l0,0c0.5-0.3,1.1-0.1,1.4,0.4l0,0c0.3,0.5,0.1,1.1-0.4,1.4l0,0
							c-0.1,0.1-0.3,0.1-0.5,0.1l0,0C29.4,32.1,29,32,28.9,31.6z M34.4,28.5c-0.3-0.5-0.1-1.1,0.4-1.4l0,0c0.5-0.3,1.1-0.1,1.4,0.4
							l0,0c0.3,0.5,0.1,1.1-0.4,1.4l0,0C35.7,29,35.5,29,35.3,29l0,0C34.9,29,34.5,28.8,34.4,28.5z M39.8,25.3
							c-0.3-0.5-0.1-1.1,0.4-1.4l0,0c0.5-0.3,1.1-0.1,1.4,0.4l0,0c0.3,0.5,0.1,1.1-0.4,1.4l0,0c-0.2,0.1-0.3,0.1-0.5,0.1l0,0
							C40.4,25.8,40,25.6,39.8,25.3z M45.3,22.1c-0.3-0.5-0.1-1.1,0.4-1.4l0,0c0.5-0.3,1.1-0.1,1.4,0.4l0,0c0.3,0.5,0.1,1.1-0.4,1.4
							l0,0c-0.2,0.1-0.3,0.1-0.5,0.1l0,0C45.9,22.6,45.5,22.5,45.3,22.1z M50.8,19c-0.3-0.5-0.1-1.1,0.4-1.4l0,0
							c0.5-0.3,1.1-0.1,1.4,0.4l0,0c0.3,0.5,0.1,1.1-0.4,1.4l0,0c-0.2,0.1-0.3,0.1-0.5,0.1l0,0C51.3,19.5,51,19.3,50.8,19z
							 M56.3,15.8c-0.3-0.5-0.1-1.1,0.4-1.4l0,0c0.5-0.3,1.1-0.1,1.4,0.4l0,0c0.3,0.5,0.1,1.1-0.4,1.4l0,0c-0.2,0.1-0.3,0.1-0.5,0.1
							l0,0C56.8,16.3,56.5,16.1,56.3,15.8z"/>
						<path class="st6" d="M24.2,35.3c-0.3,0-0.5-0.1-0.7-0.3c-0.1-0.1-0.2-0.2-0.2-0.3c-0.1-0.1-0.1-0.2-0.1-0.4
							c0-0.3,0.1-0.5,0.3-0.7c0-0.1,0.1-0.1,0.1-0.1c0.1,0,0.1-0.1,0.2-0.1s0.1,0,0.2-0.1c0.3-0.1,0.7,0.1,0.9,0.3
							c0.2,0.2,0.3,0.4,0.3,0.7c0,0.1,0,0.3-0.1,0.4c0,0.1-0.1,0.2-0.2,0.3C24.8,35.2,24.5,35.3,24.2,35.3z"/>
					</g>
				</g>
				<rect x="4" y="4" class="st7" width="120" height="120"/>
			</g>
		</g>
	</g>
	<g>
		<rect class="st7" width="128" height="128"/>
	</g>
</g>
</svg>
