<?xml version="1.0" encoding="utf-8"?>
<!-- Generator: Adobe Illustrator 24.1.0, SVG Export Plug-In . SVG Version: 6.00 Build 0)  -->
<svg version="1.1" id="Layer_1" xmlns="http://www.w3.org/2000/svg" xmlns:xlink="http://www.w3.org/1999/xlink" x="0px" y="0px"
	 viewBox="0 0 128 128" style="enable-background:new 0 0 128 128;" xml:space="preserve">
<style type="text/css">
	.st0{fill:none;}
	.st1{fill:#185849;}
	.st2{fill:#FFFFFF;}
	.st3{fill:#E9EBDF;}
	.st4{fill:#4D9987;}
	.st5{fill:#0E352C;}
	.st6{fill:#27ae60;}
	.st7{fill:#C4D7D3;}
</style>
<g id="Layer_1_1_">
</g>
<g>
	<g id="Layer_2_1_">
		<g id="New_Illustrations_1_">
			<g>
				<g>
					<rect x="4" y="4" class="st0" width="120" height="120"/>
					<rect x="4" y="4" class="st0" width="120" height="120"/>
				</g>
				<g>
					<g>
						<path class="st1" d="M47,15.8c-0.1,0-0.3,0-0.4-0.1s-0.2-0.1-0.3-0.2c-0.2-0.2-0.3-0.4-0.3-0.7s0.1-0.5,0.3-0.7
							c0.1-0.1,0.2-0.2,0.3-0.2c0.4-0.2,0.8-0.1,1.1,0.2c0.1,0.1,0.2,0.2,0.2,0.3c0.1,0.1,0.1,0.2,0.1,0.4c0,0.3-0.1,0.5-0.3,0.7
							C47.5,15.7,47.2,15.8,47,15.8z"/>
						<path class="st1" d="M16.9,32.2c-0.3-0.5-0.1-1.1,0.4-1.4l0,0c0.5-0.3,1.1-0.1,1.4,0.4l0,0c0.3,0.5,0.1,1.1-0.4,1.4l0,0
							c-0.1,0.1-0.3,0.1-0.5,0.1l0,0C17.4,32.7,17.1,32.5,16.9,32.2z M21.8,29.4c-0.3-0.5-0.1-1.1,0.4-1.4l0,0
							c0.5-0.3,1.1-0.1,1.4,0.4l0,0c0.3,0.5,0.1,1.1-0.4,1.4l0,0c-0.2,0.1-0.3,0.1-0.5,0.1l0,0C22.3,29.9,22,29.7,21.8,29.4z
							 M26.6,26.6c-0.3-0.5-0.1-1.1,0.4-1.4l0,0c0.5-0.3,1.1-0.1,1.4,0.4l0,0c0.3,0.5,0.1,1.1-0.4,1.4l0,0c-0.2,0.1-0.3,0.1-0.5,0.1
							l0,0C27.2,27.1,26.8,26.9,26.6,26.6z M31.5,23.8c-0.3-0.5-0.1-1.1,0.4-1.4l0,0c0.5-0.3,1.1-0.1,1.4,0.4l0,0
							c0.3,0.5,0.1,1.1-0.4,1.4l0,0c-0.2,0.1-0.3,0.1-0.5,0.1l0,0C32,24.3,31.7,24.1,31.5,23.8z M36.4,20.9
							c-0.3-0.5-0.1-1.1,0.4-1.4l0,0c0.5-0.3,1.1-0.1,1.4,0.4l0,0c0.3,0.5,0.1,1.1-0.4,1.4l0,0c-0.2,0.1-0.3,0.1-0.5,0.1l0,0
							C36.9,21.4,36.6,21.3,36.4,20.9z M41.2,18.1c-0.3-0.5-0.1-1.1,0.4-1.4l0,0c0.5-0.3,1.1-0.1,1.4,0.4l0,0
							c0.3,0.5,0.1,1.1-0.4,1.4l0,0c-0.2,0.1-0.3,0.1-0.5,0.1l0,0C41.8,18.6,41.4,18.5,41.2,18.1z"/>
						<path class="st1" d="M12.9,35.5c-0.1,0-0.3,0-0.4-0.1c-0.1-0.1-0.2-0.1-0.3-0.2c-0.2-0.2-0.3-0.4-0.3-0.7s0.1-0.5,0.3-0.7
							c0.1-0.1,0.2-0.2,0.3-0.2c0.2-0.1,0.5-0.1,0.8,0c0.1,0.1,0.2,0.1,0.3,0.2c0.2,0.2,0.3,0.4,0.3,0.7s-0.1,0.5-0.3,0.7
							c-0.1,0.1-0.2,0.2-0.3,0.2C13.2,35.5,13,35.5,12.9,35.5z"/>
						<path class="st1" d="M11.9,68.2c0-0.5,0.4-1,1-1l0,0c0.5,0,1,0.5,1,1l0,0c0,0.6-0.5,1-1,1l0,0C12.4,69.2,11.9,68.8,11.9,68.2z
							 M11.9,62.6c0-0.5,0.4-1,1-1l0,0c0.5,0,1,0.5,1,1l0,0c0,0.6-0.5,1-1,1l0,0C12.4,63.6,11.9,63.1,11.9,62.6z M11.9,57
							c0-0.6,0.4-1,1-1l0,0c0.5,0,1,0.4,1,1l0,0c0,0.6-0.5,1-1,1l0,0C12.4,58,11.9,57.5,11.9,57z M11.9,51.4c0-0.6,0.4-1,1-1l0,0
							c0.5,0,1,0.4,1,1l0,0c0,0.6-0.5,1-1,1l0,0C12.4,52.4,11.9,51.9,11.9,51.4z M11.9,45.7c0-0.6,0.4-1,1-1l0,0c0.5,0,1,0.4,1,1
							l0,0c0,0.6-0.5,1-1,1l0,0C12.4,46.7,11.9,46.3,11.9,45.7z M11.9,40.1c0-0.6,0.4-1,1-1l0,0c0.5,0,1,0.4,1,1l0,0
							c0,0.6-0.5,1-1,1l0,0C12.4,41.1,11.9,40.7,11.9,40.1z"/>
						<path class="st1" d="M12.9,74.8c-0.1,0-0.3,0-0.4-0.1c-0.1-0.1-0.2-0.1-0.3-0.2c-0.2-0.2-0.3-0.4-0.3-0.7
							c0-0.3,0.1-0.5,0.3-0.7c0.1-0.1,0.2-0.2,0.3-0.2c0.2-0.1,0.5-0.1,0.8,0c0.1,0,0.2,0.1,0.3,0.2c0.2,0.2,0.3,0.4,0.3,0.7
							c0,0.3-0.1,0.5-0.3,0.7c-0.1,0.1-0.2,0.2-0.3,0.2S13,74.8,12.9,74.8z"/>
					</g>
					<g>
						<path class="st1" d="M115.1,74.8c-0.3,0-0.5-0.1-0.7-0.3c-0.2-0.2-0.3-0.4-0.3-0.7c0-0.3,0.1-0.5,0.3-0.7c0.4-0.4,1-0.4,1.4,0
							c0.2,0.2,0.3,0.4,0.3,0.7c0,0.3-0.1,0.5-0.3,0.7S115.4,74.8,115.1,74.8z"/>
						<path class="st1" d="M114.1,68.2c0-0.5,0.4-1,1-1l0,0c0.5,0,1,0.5,1,1l0,0c0,0.6-0.5,1-1,1l0,0
							C114.5,69.2,114.1,68.8,114.1,68.2z M114.1,62.6c0-0.6,0.4-1,1-1l0,0c0.5,0,1,0.4,1,1l0,0c0,0.6-0.5,1-1,1l0,0
							C114.5,63.6,114.1,63.1,114.1,62.6z M114.1,57c0-0.6,0.4-1,1-1l0,0c0.5,0,1,0.4,1,1l0,0c0,0.6-0.5,1-1,1l0,0
							C114.5,58,114.1,57.5,114.1,57z M114.1,51.4c0-0.6,0.4-1,1-1l0,0c0.5,0,1,0.4,1,1l0,0c0,0.6-0.5,1-1,1l0,0
							C114.5,52.4,114.1,51.9,114.1,51.4z M114.1,45.7c0-0.6,0.4-1,1-1l0,0c0.5,0,1,0.4,1,1l0,0c0,0.6-0.5,1-1,1l0,0
							C114.5,46.7,114.1,46.3,114.1,45.7z M114.1,40.1c0-0.6,0.4-1,1-1l0,0c0.5,0,1,0.4,1,1l0,0c0,0.6-0.5,1-1,1l0,0
							C114.5,41.1,114.1,40.7,114.1,40.1z"/>
						<path class="st1" d="M115.1,35.5c-0.3,0-0.5-0.1-0.7-0.3s-0.3-0.4-0.3-0.7s0.1-0.5,0.3-0.7c0.4-0.4,1-0.4,1.4,0
							c0.2,0.2,0.3,0.4,0.3,0.7s-0.1,0.5-0.3,0.7S115.4,35.5,115.1,35.5z"/>
					</g>
					<g>
						<path class="st1" d="M81,15.8c-0.3,0-0.5-0.1-0.7-0.3c-0.1-0.1-0.1-0.1-0.1-0.2c0-0.1-0.1-0.1-0.1-0.2c0-0.1,0-0.1,0-0.2
							c0-0.1,0-0.1,0-0.2c0-0.3,0.1-0.5,0.3-0.7c0.2-0.2,0.6-0.3,0.9-0.3c0.1,0,0.1,0,0.2,0.1c0.1,0,0.1,0.1,0.2,0.1
							s0.1,0.1,0.1,0.1c0.2,0.2,0.3,0.4,0.3,0.7c0,0.1,0,0.1,0,0.2c0,0.1,0,0.1-0.1,0.2c0,0.1-0.1,0.1-0.1,0.2c0,0-0.1,0.1-0.1,0.2
							l-0.1,0.1c0,0-0.1,0.1-0.2,0.1s-0.1,0-0.2,0.1C81.2,15.8,81.1,15.8,81,15.8z"/>
						<path class="st1" d="M109.7,32.6c-0.5-0.3-0.6-0.9-0.4-1.4l0,0c0.3-0.5,0.9-0.6,1.4-0.4l0,0c0.5,0.3,0.6,0.9,0.4,1.4l0,0
							c-0.2,0.3-0.5,0.5-0.9,0.5l0,0C110.1,32.7,109.9,32.6,109.7,32.6z M104.9,29.7c-0.5-0.3-0.7-0.9-0.4-1.4l0,0
							c0.3-0.5,0.9-0.6,1.4-0.4l0,0c0.5,0.3,0.6,0.9,0.4,1.4l0,0c-0.2,0.3-0.5,0.5-0.9,0.5l0,0C105.2,29.9,105,29.8,104.9,29.7z
							 M100,26.9c-0.5-0.3-0.6-0.9-0.4-1.4l0,0c0.3-0.5,0.9-0.6,1.4-0.4l0,0c0.5,0.3,0.6,0.9,0.4,1.4l0,0c-0.2,0.3-0.5,0.5-0.9,0.5
							l0,0C100.3,27.1,100.2,27,100,26.9z M95.1,24.1c-0.5-0.3-0.6-0.9-0.4-1.4l0,0c0.3-0.5,0.9-0.6,1.4-0.4l0,0
							c0.5,0.3,0.6,0.9,0.4,1.4l0,0c-0.2,0.3-0.5,0.5-0.9,0.5l0,0C95.5,24.3,95.3,24.2,95.1,24.1z M90.3,21.3
							c-0.5-0.3-0.6-0.9-0.4-1.4l0,0c0.3-0.5,0.9-0.6,1.4-0.4l0,0c0.5,0.3,0.6,0.9,0.4,1.4l0,0c-0.2,0.3-0.5,0.5-0.9,0.5l0,0
							C90.6,21.4,90.4,21.4,90.3,21.3z M85.4,18.5c-0.5-0.3-0.6-0.9-0.4-1.4l0,0c0.3-0.5,0.9-0.6,1.4-0.4l0,0
							c0.5,0.3,0.6,0.9,0.4,1.4l0,0c-0.2,0.3-0.5,0.5-0.9,0.5l0,0C85.7,18.6,85.6,18.6,85.4,18.5z"/>
						<path class="st1" d="M115.1,35.5c-0.3,0-0.5-0.1-0.7-0.3s-0.3-0.4-0.3-0.7s0.1-0.5,0.3-0.7c0.4-0.4,1-0.4,1.4,0
							c0.2,0.2,0.3,0.4,0.3,0.7s-0.1,0.5-0.3,0.7S115.4,35.5,115.1,35.5z"/>
					</g>
					<g>
						<g>
							<g>
								<polygon class="st2" points="47,73.8 29.9,83.7 12.9,73.8 29.9,64 								"/>
								<polygon class="st3" points="47,93.5 29.9,103.3 12.9,93.5 29.9,83.7 								"/>
								<g>
									<polygon class="st4" points="47,73.8 47,93.5 29.9,103.3 29.9,83.7 									"/>
									<path class="st5" d="M29.9,104.3c-0.2,0-0.3,0-0.5-0.1c-0.3-0.2-0.5-0.5-0.5-0.9V83.7c0-0.4,0.2-0.7,0.5-0.9l17-9.8
										c0.3-0.2,0.7-0.2,1,0s0.5,0.5,0.5,0.9v19.7c0,0.4-0.2,0.7-0.5,0.9l-17,9.8C30.3,104.3,30.1,104.3,29.9,104.3z M30.9,84.2
										v17.4l15-8.7V75.6L30.9,84.2z"/>
								</g>
								<polygon class="st3" points="12.9,73.8 12.9,93.5 29.9,103.3 29.9,83.7 								"/>
								<path class="st4" d="M29.9,104.3c-0.2,0-0.3,0-0.5-0.1c-0.3-0.2-0.5-0.5-0.5-0.9V83.7c0-0.4,0.2-0.7,0.5-0.9l17-9.8
									c0.3-0.2,0.7-0.2,1,0s0.5,0.5,0.5,0.9v19.7c0,0.4-0.2,0.7-0.5,0.9l-17,9.8C30.3,104.3,30.1,104.3,29.9,104.3z M30.9,84.2
									v17.4l15-8.7V75.6L30.9,84.2z"/>
								<path class="st4" d="M29.9,104.3c-0.2,0-0.3,0-0.5-0.1l-17-9.8c-0.3-0.2-0.5-0.5-0.5-0.9V73.8c0-0.4,0.2-0.7,0.5-0.9
									c0.3-0.2,0.7-0.2,1,0l17,9.8c0.3,0.2,0.5,0.5,0.5,0.9v19.7c0,0.4-0.2,0.7-0.5,0.9C30.3,104.3,30.1,104.3,29.9,104.3z
									 M13.9,92.9l15,8.7V84.2l-15-8.7V92.9z"/>
							</g>
							<path class="st5" d="M29.9,104.3c-0.2,0-0.3,0-0.5-0.1l-17-9.8c-0.3-0.2-0.5-0.5-0.5-0.9V73.8c0-0.4,0.2-0.7,0.5-0.9l17-9.8
								c0.3-0.2,0.7-0.2,1,0l17,9.8c0.3,0.2,0.5,0.5,0.5,0.9v19.7c0,0.4-0.2,0.7-0.5,0.9l-17,9.8C30.3,104.3,30.1,104.3,29.9,104.3z
								 M13.9,92.9l16,9.3l16-9.3V74.4l-16-9.3l-16,9.3C13.9,74.4,13.9,92.9,13.9,92.9z"/>
						</g>
						<g>
							<g>
								<polygon class="st2" points="81,73.8 64,83.7 47,73.8 64,64 								"/>
								<polygon class="st3" points="81,93.5 64,103.3 47,93.5 64,83.7 								"/>
								<g>
									<polygon class="st4" points="81,73.8 81,93.5 64,103.3 64,83.7 									"/>
									<path class="st5" d="M64,104.3c-0.2,0-0.3,0-0.5-0.1c-0.3-0.2-0.5-0.5-0.5-0.9V83.7c0-0.4,0.2-0.7,0.5-0.9l17-9.8
										c0.3-0.2,0.7-0.2,1,0s0.5,0.5,0.5,0.9v19.7c0,0.4-0.2,0.7-0.5,0.9l-17,9.8C64.3,104.3,64.2,104.3,64,104.3z M65,84.2v17.4
										l15-8.7V75.6L65,84.2z"/>
								</g>
								<polygon class="st3" points="47,73.8 47,93.5 64,103.3 64,83.7 								"/>
								<path class="st4" d="M64,104.3c-0.2,0-0.3,0-0.5-0.1c-0.3-0.2-0.5-0.5-0.5-0.9V83.7c0-0.4,0.2-0.7,0.5-0.9l17-9.8
									c0.3-0.2,0.7-0.2,1,0s0.5,0.5,0.5,0.9v19.7c0,0.4-0.2,0.7-0.5,0.9l-17,9.8C64.3,104.3,64.2,104.3,64,104.3z M65,84.2v17.4
									l15-8.7V75.6L65,84.2z"/>
								<path class="st4" d="M64,104.3c-0.2,0-0.3,0-0.5-0.1l-17-9.8c-0.3-0.2-0.5-0.5-0.5-0.9V73.8c0-0.4,0.2-0.7,0.5-0.9
									c0.3-0.2,0.7-0.2,1,0l17,9.8c0.3,0.2,0.5,0.5,0.5,0.9v19.7c0,0.4-0.2,0.7-0.5,0.9C64.3,104.3,64.2,104.3,64,104.3z M48,92.9
									l15,8.7V84.2l-15-8.7V92.9z"/>
							</g>
							<path class="st5" d="M64,104.3c-0.2,0-0.3,0-0.5-0.1l-17-9.8c-0.3-0.2-0.5-0.5-0.5-0.9V73.8c0-0.4,0.2-0.7,0.5-0.9l17-9.8
								c0.3-0.2,0.7-0.2,1,0l17,9.8c0.3,0.2,0.5,0.5,0.5,0.9v19.7c0,0.4-0.2,0.7-0.5,0.9l-17,9.8C64.3,104.3,64.2,104.3,64,104.3z
								 M48,92.9l16,9.3l16-9.3V74.4l-16-9.3l-16,9.3V92.9z"/>
						</g>
						<g>
							<g>
								<polygon class="st2" points="115.1,73.8 98.1,83.7 81,73.8 98.1,64 								"/>
								<polygon class="st3" points="115.1,93.5 98.1,103.3 81,93.5 98.1,83.7 								"/>
								<g>
									<polygon class="st4" points="115.1,73.8 115.1,93.5 98.1,103.3 98.1,83.7 									"/>
									<path class="st5" d="M98.1,104.3c-0.2,0-0.3,0-0.5-0.1c-0.3-0.2-0.5-0.5-0.5-0.9V83.7c0-0.4,0.2-0.7,0.5-0.9l17-9.8
										c0.3-0.2,0.7-0.2,1,0s0.5,0.5,0.5,0.9v19.7c0,0.4-0.2,0.7-0.5,0.9l-17,9.8C98.4,104.3,98.2,104.3,98.1,104.3z M99.1,84.2
										v17.4l15-8.7V75.6L99.1,84.2z"/>
								</g>
								<polygon class="st3" points="81,73.8 81,93.5 98.1,103.3 98.1,83.7 								"/>
								<path class="st4" d="M98.1,104.3c-0.2,0-0.3,0-0.5-0.1c-0.3-0.2-0.5-0.5-0.5-0.9V83.7c0-0.4,0.2-0.7,0.5-0.9l17-9.8
									c0.3-0.2,0.7-0.2,1,0s0.5,0.5,0.5,0.9v19.7c0,0.4-0.2,0.7-0.5,0.9l-17,9.8C98.4,104.3,98.2,104.3,98.1,104.3z M99.1,84.2
									v17.4l15-8.7V75.6L99.1,84.2z"/>
								<path class="st4" d="M98.1,104.3c-0.2,0-0.3,0-0.5-0.1l-17-9.8c-0.3-0.2-0.5-0.5-0.5-0.9V73.8c0-0.4,0.2-0.7,0.5-0.9
									c0.3-0.2,0.7-0.2,1,0l17,9.8c0.3,0.2,0.5,0.5,0.5,0.9v19.7c0,0.4-0.2,0.7-0.5,0.9C98.4,104.3,98.2,104.3,98.1,104.3z
									 M82,92.9l15,8.7V84.2l-15-8.7V92.9z"/>
							</g>
							<path class="st5" d="M98.1,104.3c-0.2,0-0.3,0-0.5-0.1l-17-9.8c-0.3-0.2-0.5-0.5-0.5-0.9V73.8c0-0.4,0.2-0.7,0.5-0.9l17-9.8
								c0.3-0.2,0.7-0.2,1,0l17,9.8c0.3,0.2,0.5,0.5,0.5,0.9v19.7c0,0.4-0.2,0.7-0.5,0.9l-17,9.8C98.4,104.3,98.2,104.3,98.1,104.3z
								 M82,92.9l16,9.3l16-9.3V74.4l-16-9.3l-16,9.3V92.9z"/>
						</g>
						<g>
							<g>
								<polygon class="st2" points="64,44.3 47,54.2 29.9,44.3 47,34.5 								"/>
								<polygon class="st3" points="64,64 47,73.8 29.9,64 47,54.2 								"/>
								<g>
									<polygon class="st4" points="64,44.3 64,64 47,73.8 47,54.2 									"/>
									<path class="st5" d="M47,74.8c-0.2,0-0.3,0-0.5-0.1c-0.3-0.2-0.5-0.5-0.5-0.9V54.2c0-0.4,0.2-0.7,0.5-0.9l17-9.8
										c0.3-0.2,0.7-0.2,1,0S65,44,65,44.4V64c0,0.4-0.2,0.7-0.5,0.9l-17,9.8C47.3,74.8,47.1,74.8,47,74.8z M48,54.7v17.4l15-8.7
										V46.1L48,54.7z"/>
								</g>
								<polygon class="st3" points="29.9,44.3 29.9,64 47,73.8 47,54.2 								"/>
								<path class="st4" d="M47,74.8c-0.2,0-0.3,0-0.5-0.1c-0.3-0.2-0.5-0.5-0.5-0.9V54.2c0-0.4,0.2-0.7,0.5-0.9l17-9.8
									c0.3-0.2,0.7-0.2,1,0S65,44,65,44.4V64c0,0.4-0.2,0.7-0.5,0.9l-17,9.8C47.3,74.8,47.1,74.8,47,74.8z M48,54.7v17.4l15-8.7
									V46.1L48,54.7z"/>
								<path class="st4" d="M47,74.8c-0.2,0-0.3,0-0.5-0.1l-17-9.8C29.2,64.7,29,64.4,29,64V44.3c0-0.4,0.2-0.7,0.5-0.9
									s0.7-0.2,1,0l17,9.8c0.3,0.2,0.5,0.5,0.5,0.9v19.7c0,0.4-0.2,0.7-0.5,0.9C47.3,74.8,47.1,74.8,47,74.8z M30.9,63.4l15,8.7
									V54.7l-15-8.7C30.9,46,30.9,63.4,30.9,63.4z"/>
							</g>
							<path class="st5" d="M47,74.8c-0.2,0-0.3,0-0.5-0.1l-17-9.8C29.2,64.7,29,64.4,29,64V44.3c0-0.4,0.2-0.7,0.5-0.9l17-9.8
								c0.3-0.2,0.7-0.2,1,0l17,9.8c0.3,0.2,0.5,0.5,0.5,0.9V64c0,0.4-0.2,0.7-0.5,0.9l-17,9.8C47.3,74.8,47.1,74.8,47,74.8z
								 M30.9,63.4l16,9.3l16-9.3V44.9l-16-9.3l-16,9.3C30.9,44.9,30.9,63.4,30.9,63.4z"/>
						</g>
						<g>
							<g>
								<polygon class="st2" points="98.1,44.3 81,54.2 64,44.3 81,34.5 								"/>
								<polygon class="st3" points="98.1,64 81,73.8 64,64 81,54.2 								"/>
								<g>
									<polygon class="st4" points="98.1,44.3 98.1,64 81,73.8 81,54.2 									"/>
									<path class="st5" d="M81,74.8c-0.2,0-0.3,0-0.5-0.1c-0.3-0.2-0.5-0.5-0.5-0.9V54.2c0-0.4,0.2-0.7,0.5-0.9l17-9.8
										c0.3-0.2,0.7-0.2,1,0S99,44,99,44.4V64c0,0.4-0.2,0.7-0.5,0.9l-17,9.8C81.4,74.8,81.2,74.8,81,74.8z M82,54.7v17.4l15-8.7
										V46.1L82,54.7z"/>
								</g>
								<polygon class="st3" points="64,44.3 64,64 81,73.8 81,54.2 								"/>
								<path class="st4" d="M81,74.8c-0.2,0-0.3,0-0.5-0.1c-0.3-0.2-0.5-0.5-0.5-0.9V54.2c0-0.4,0.2-0.7,0.5-0.9l17-9.8
									c0.3-0.2,0.7-0.2,1,0S99,44,99,44.4V64c0,0.4-0.2,0.7-0.5,0.9l-17,9.8C81.4,74.8,81.2,74.8,81,74.8z M82,54.7v17.4l15-8.7
									V46.1L82,54.7z"/>
								<path class="st4" d="M81,74.8c-0.2,0-0.3,0-0.5-0.1l-17-9.8C63.2,64.7,63,64.4,63,64V44.3c0-0.4,0.2-0.7,0.5-0.9
									s0.7-0.2,1,0l17,9.8c0.3,0.2,0.5,0.5,0.5,0.9v19.7c0,0.4-0.2,0.7-0.5,0.9C81.4,74.8,81.2,74.8,81,74.8z M65,63.4l15,8.7
									V54.7L65,46V63.4z"/>
							</g>
							<path class="st5" d="M81,74.8c-0.2,0-0.3,0-0.5-0.1l-17-9.8C63.2,64.7,63,64.4,63,64V44.3c0-0.4,0.2-0.7,0.5-0.9l17-9.8
								c0.3-0.2,0.7-0.2,1,0l17,9.8c0.3,0.2,0.5,0.5,0.5,0.9V64c0,0.4-0.2,0.7-0.5,0.9l-17,9.8C81.4,74.8,81.2,74.8,81,74.8z
								 M65,63.4l16,9.3l16-9.3V44.9l-16-9.3l-16,9.3V63.4z"/>
						</g>
						<g>
							<g>
								<g>
									<polygon class="st2" points="81,14.8 64,24.7 47,14.8 64,5 									"/>
									<path class="st6" d="M64,25.7c-0.2,0-0.3,0-0.5-0.1l-17-9.8c-0.3-0.2-0.5-0.5-0.5-0.9s0.2-0.7,0.5-0.9l17-9.8
										c0.3-0.2,0.7-0.2,1,0l17,9.8c0.3,0.2,0.5,0.5,0.5,0.9s-0.2,0.7-0.5,0.9l-17,9.8C64.3,25.6,64.2,25.7,64,25.7z M49,14.8
										l15,8.7l15-8.7L64,6.2L49,14.8z"/>
								</g>
								<polygon class="st3" points="81,34.5 64,44.3 47,34.5 64,24.7 								"/>
								<g>
									<polygon class="st6" points="81,14.8 81,34.5 64,44.3 64,24.7 									"/>
									<path class="st6" d="M64,45.3c-0.2,0-0.3,0-0.5-0.1C63.2,45,63,44.7,63,44.3V24.7c0-0.4,0.2-0.7,0.5-0.9l17-9.8
										c0.3-0.2,0.7-0.2,1,0s0.5,0.5,0.5,0.9v19.7c0,0.4-0.2,0.7-0.5,0.9l-17,9.8C64.3,45.3,64.2,45.3,64,45.3z M65,25.2v17.4
										l15-8.7V16.6L65,25.2z"/>
								</g>
								<g>
									<polygon class="st7" points="47,14.8 47,34.5 64,44.3 64,24.7 									"/>
									<path class="st6" d="M64,45.3c-0.2,0-0.3,0-0.5-0.1l-17-9.8c-0.3-0.2-0.5-0.5-0.5-0.9V14.8c0-0.4,0.2-0.7,0.5-0.9
										s0.7-0.2,1,0l17,9.8c0.3,0.2,0.5,0.5,0.5,0.9v19.7c0,0.4-0.2,0.7-0.5,0.9C64.3,45.3,64.2,45.3,64,45.3z M48,33.9l15,8.7
										V25.2l-15-8.7V33.9z"/>
								</g>
							</g>
							<path class="st1" d="M64,45.3c-0.2,0-0.3,0-0.5-0.1l-17-9.8c-0.3-0.2-0.5-0.5-0.5-0.9V14.8c0-0.4,0.2-0.7,0.5-0.9l17-9.8
								c0.3-0.2,0.7-0.2,1,0l17,9.8c0.3,0.2,0.5,0.5,0.5,0.9v19.7c0,0.4-0.2,0.7-0.5,0.9l-17,9.8C64.3,45.3,64.2,45.3,64,45.3z
								 M48,33.9l16,9.3l16-9.3V15.4L64,6.2l-16,9.3V33.9z"/>
						</g>
					</g>
					<g>
						<path class="st5" d="M29.9,104.3c-0.3,0-0.5-0.1-0.7-0.3c-0.1-0.1-0.2-0.2-0.2-0.3c-0.1-0.1-0.1-0.3-0.1-0.4
							c0-0.3,0.1-0.5,0.3-0.7c0.2-0.2,0.6-0.3,0.9-0.3c0.1,0,0.1,0,0.2,0.1c0.1,0,0.1,0.1,0.2,0.1l0.1,0.1c0.2,0.2,0.3,0.4,0.3,0.7
							c0,0.1,0,0.3-0.1,0.4c0,0.1-0.1,0.2-0.2,0.3l-0.1,0.1c-0.1,0-0.1,0.1-0.2,0.1s-0.1,0-0.2,0.1C30.1,104.3,30,104.3,29.9,104.3z
							"/>
						<path class="st5" d="M58.6,121.1c-0.5-0.3-0.7-0.9-0.4-1.4l0,0c0.3-0.5,0.9-0.6,1.4-0.4l0,0c0.5,0.3,0.6,0.9,0.4,1.4l0,0
							c-0.2,0.3-0.5,0.5-0.9,0.5l0,0C59,121.2,58.8,121.1,58.6,121.1z M53.8,118.2c-0.5-0.3-0.6-0.9-0.4-1.4l0,0
							c0.3-0.5,0.9-0.6,1.4-0.4l0,0c0.5,0.3,0.6,0.9,0.4,1.4l0,0c-0.2,0.3-0.5,0.5-0.9,0.5l0,0C54.1,118.4,53.9,118.3,53.8,118.2z
							 M48.9,115.4c-0.5-0.3-0.7-0.9-0.4-1.4l0,0c0.3-0.5,0.9-0.6,1.4-0.4l0,0c0.5,0.3,0.6,0.9,0.4,1.4l0,0
							c-0.2,0.3-0.5,0.5-0.9,0.5l0,0C49.2,115.6,49.1,115.5,48.9,115.4z M44,112.6c-0.5-0.3-0.6-0.9-0.4-1.4l0,0
							c0.3-0.5,0.9-0.6,1.4-0.4l0,0c0.5,0.3,0.6,0.9,0.4,1.4l0,0c-0.2,0.3-0.5,0.5-0.9,0.5l0,0C44.4,112.8,44.2,112.7,44,112.6z
							 M39.2,109.8c-0.5-0.3-0.6-0.9-0.4-1.4l0,0c0.3-0.5,0.9-0.6,1.4-0.4l0,0c0.5,0.3,0.6,0.9,0.4,1.4l0,0
							c-0.2,0.3-0.5,0.5-0.9,0.5l0,0C39.5,109.9,39.3,109.9,39.2,109.8z M34.3,107c-0.5-0.3-0.6-0.9-0.4-1.4l0,0
							c0.3-0.5,0.9-0.6,1.4-0.4l0,0c0.5,0.3,0.6,0.9,0.4,1.4l0,0c-0.2,0.3-0.5,0.5-0.9,0.5l0,0C34.6,107.1,34.5,107.1,34.3,107z"/>
						<path class="st5" d="M64,124c-0.3,0-0.5-0.1-0.7-0.3c-0.2-0.2-0.3-0.4-0.3-0.7s0.1-0.5,0.3-0.7c0.3-0.3,0.7-0.4,1.1-0.2
							c0.1,0.1,0.2,0.1,0.3,0.2l0.1,0.1c0,0.1,0.1,0.1,0.1,0.2s0,0.1,0,0.2s0,0.1,0,0.2s0,0.1,0,0.2s0,0.1,0,0.2s-0.1,0.1-0.1,0.2
							s-0.1,0.1-0.1,0.2c-0.1,0.1-0.2,0.2-0.3,0.2C64.3,124,64.1,124,64,124z"/>
						<path class="st5" d="M68,120.7c-0.3-0.5-0.1-1.1,0.4-1.4l0,0c0.5-0.3,1.1-0.1,1.4,0.4l0,0c0.3,0.5,0.1,1.1-0.4,1.4l0,0
							c-0.2,0.1-0.3,0.1-0.5,0.1l0,0C68.5,121.2,68.2,121,68,120.7z M72.9,117.9c-0.3-0.5-0.1-1.1,0.4-1.4l0,0
							c0.5-0.3,1.1-0.1,1.4,0.4l0,0c0.3,0.5,0.1,1.1-0.4,1.4l0,0c-0.2,0.1-0.3,0.1-0.5,0.1l0,0C73.4,118.4,73,118.2,72.9,117.9z
							 M77.7,115.1c-0.3-0.5-0.1-1.1,0.4-1.4l0,0c0.5-0.3,1.1-0.1,1.4,0.4l0,0c0.3,0.5,0.1,1.1-0.4,1.4l0,0
							c-0.2,0.1-0.3,0.1-0.5,0.1l0,0C78.3,115.6,77.9,115.4,77.7,115.1z M82.6,112.3c-0.3-0.5-0.1-1.1,0.4-1.4l0,0
							c0.5-0.3,1.1-0.1,1.4,0.4l0,0c0.3,0.5,0.1,1.1-0.4,1.4l0,0c-0.2,0.1-0.3,0.1-0.5,0.1l0,0C83.1,112.8,82.8,112.6,82.6,112.3z
							 M87.5,109.4c-0.3-0.5-0.1-1.1,0.4-1.4l0,0c0.5-0.3,1.1-0.1,1.4,0.4l0,0c0.3,0.5,0.1,1.1-0.4,1.4l0,0
							c-0.2,0.1-0.3,0.1-0.5,0.1l0,0C88,109.9,87.6,109.8,87.5,109.4z M92.3,106.6c-0.3-0.5-0.1-1.1,0.4-1.4l0,0
							c0.5-0.3,1.1-0.1,1.4,0.4l0,0c0.3,0.5,0.1,1.1-0.4,1.4l0,0c-0.2,0.1-0.3,0.1-0.5,0.1l0,0C92.9,107.1,92.5,107,92.3,106.6z"/>
						<path class="st5" d="M98.1,104.3c-0.3,0-0.5-0.1-0.7-0.3c-0.1-0.1-0.2-0.2-0.2-0.3c-0.1-0.1-0.1-0.3-0.1-0.4
							c0-0.3,0.1-0.5,0.3-0.7c0.1-0.1,0.2-0.2,0.3-0.2c0.2-0.1,0.5-0.1,0.8,0c0.1,0,0.2,0.1,0.3,0.2c0.2,0.2,0.3,0.4,0.3,0.7
							c0,0.3-0.1,0.5-0.3,0.7C98.6,104.2,98.3,104.3,98.1,104.3z"/>
					</g>
				</g>
			</g>
		</g>
	</g>
	<g>
		<rect class="st0" width="128" height="128"/>
	</g>
</g>
</svg>
