<?xml version="1.0" encoding="utf-8"?>
<!-- Generator: Adobe Illustrator 24.1.0, SVG Export Plug-In . SVG Version: 6.00 Build 0)  -->
<svg version="1.1" id="Layer_1" xmlns="http://www.w3.org/2000/svg" xmlns:xlink="http://www.w3.org/1999/xlink" x="0px" y="0px"
	 viewBox="0 0 128 128" style="enable-background:new 0 0 128 128;" xml:space="preserve">
<style type="text/css">
	.st0{fill:none;}
	.st1{fill:#FFFFFF;}
	.st2{fill:#4D9987;}
	.st3{fill:#0E352C;}
	.st4{fill:#E9EBDF;}
	.st5{fill:#185849;}
	.st6{fill:#27ae60;}
	.st7{fill:#C4D7D3;}
</style>
<g id="Layer_1_1_">
</g>
<g>
	<g id="Layer_2_1_">
		<g id="New_Illustrations_1_">
			<g>
				<rect x="4" y="4" class="st0" width="120" height="120"/>
				<rect x="4" y="4" class="st0" width="120" height="120"/>
				<g>
					<g>
						<g>
							<polygon class="st1" points="103.3,45.3 83.7,56.6 64,45.3 83.7,33.9 							"/>
							<path class="st2" d="M83.7,50.3c-0.2,0-0.3,0-0.5-0.1l-7-4c-0.3-0.2-0.5-0.5-0.5-0.9s0.2-0.7,0.5-0.9l7-4
								c0.3-0.2,0.7-0.2,1,0l7,4c0.3,0.2,0.5,0.5,0.5,0.9s-0.2,0.7-0.5,0.9l-7,4C84,50.3,83.8,50.3,83.7,50.3z M78.7,45.3l5,2.9
								l5-2.9l-5-2.9L78.7,45.3z"/>
							<g>
								<polygon class="st2" points="103.3,45.3 103.3,60 83.7,71.4 83.7,56.6 								"/>
								<path class="st3" d="M83.7,72.4c-0.2,0-0.3,0-0.5-0.1c-0.3-0.2-0.5-0.5-0.5-0.9V56.6c0-0.4,0.2-0.7,0.5-0.9l19.7-11.4
									c0.3-0.2,0.7-0.2,1,0s0.5,0.5,0.5,0.9V60c0,0.4-0.2,0.7-0.5,0.9L84.2,72.2C84,72.3,83.8,72.4,83.7,72.4z M84.7,57.2v12.5
									l17.7-10.2V47L84.7,57.2z"/>
							</g>
							<polygon class="st4" points="64,45.3 64,60 83.7,71.4 83.7,56.6 							"/>
							<path class="st2" d="M83.7,72.4c-0.2,0-0.3,0-0.5-0.1c-0.3-0.2-0.5-0.5-0.5-0.9V56.6c0-0.4,0.2-0.7,0.5-0.9l19.7-11.4
								c0.3-0.2,0.7-0.2,1,0s0.5,0.5,0.5,0.9V60c0,0.4-0.2,0.7-0.5,0.9L84.2,72.2C84,72.3,83.8,72.4,83.7,72.4z M84.7,57.2v12.5
								l17.7-10.2V47L84.7,57.2z"/>
							<path class="st2" d="M83.7,72.4c-0.2,0-0.3,0-0.5-0.1L63.5,60.9C63.2,60.7,63,60.4,63,60V45.3c0-0.4,0.2-0.7,0.5-0.9
								s0.7-0.2,1,0l19.7,11.4c0.3,0.2,0.5,0.5,0.5,0.9v14.8c0,0.4-0.2,0.7-0.5,0.9C84,72.3,83.8,72.4,83.7,72.4z M65,59.4
								l17.7,10.2V57.2L65,47V59.4z"/>
							<path class="st2" d="M73.8,57.6c-0.6,0-1-0.4-1-1v-5.7c0-0.6,0.4-1,1-1s1,0.4,1,1v5.7C74.8,57.2,74.4,57.6,73.8,57.6z"/>
							<path class="st3" d="M93.5,66.7c-0.6,0-1-0.4-1-1v-5.4c0-0.6,0.4-1,1-1s1,0.4,1,1v5.4C94.5,66.3,94.1,66.7,93.5,66.7z"/>
						</g>
						<path class="st3" d="M83.7,72.4c-0.2,0-0.3,0-0.5-0.1L63.5,60.9C63.2,60.7,63,60.4,63,60V45.3c0-0.4,0.2-0.7,0.5-0.9L83.2,33
							c0.3-0.2,0.7-0.2,1,0l19.7,11.4c0.3,0.2,0.5,0.5,0.5,0.9V60c0,0.4-0.2,0.7-0.5,0.9L84.2,72.2C84,72.3,83.8,72.4,83.7,72.4z
							 M65,59.4l18.7,10.8l18.7-10.8V45.8L83.7,35.1L65,45.8V59.4z"/>
					</g>
					<g>
						<g>
							<polygon class="st1" points="64,45.3 44.3,56.6 24.7,45.3 44.3,33.9 							"/>
							<path class="st2" d="M44.3,50.3c-0.2,0-0.3,0-0.5-0.1l-7-4c-0.3-0.2-0.5-0.5-0.5-0.9s0.2-0.7,0.5-0.9l7-4
								c0.3-0.2,0.7-0.2,1,0l7,4c0.3,0.2,0.5,0.5,0.5,0.9s-0.2,0.7-0.5,0.9l-7,4C44.7,50.3,44.5,50.3,44.3,50.3z M39.3,45.3l5,2.9
								l5-2.9l-5-2.9L39.3,45.3z"/>
							<g>
								<polygon class="st2" points="64,45.3 64,60 44.3,71.4 44.3,56.6 								"/>
								<path class="st3" d="M44.3,72.4c-0.2,0-0.3,0-0.5-0.1c-0.3-0.2-0.5-0.5-0.5-0.9V56.6c0-0.4,0.2-0.7,0.5-0.9l19.7-11.4
									c0.3-0.2,0.7-0.2,1,0s0.5,0.5,0.5,0.9V60c0,0.4-0.2,0.7-0.5,0.9L44.8,72.2C44.7,72.3,44.5,72.4,44.3,72.4z M45.3,57.2v12.5
									L63,59.4V47L45.3,57.2z"/>
							</g>
							<polygon class="st4" points="24.7,45.3 24.7,60 44.3,71.4 44.3,56.6 							"/>
							<path class="st2" d="M44.3,72.4c-0.2,0-0.3,0-0.5-0.1c-0.3-0.2-0.5-0.5-0.5-0.9V56.6c0-0.4,0.2-0.7,0.5-0.9l19.7-11.4
								c0.3-0.2,0.7-0.2,1,0s0.5,0.5,0.5,0.9V60c0,0.4-0.2,0.7-0.5,0.9L44.8,72.2C44.7,72.3,44.5,72.4,44.3,72.4z M45.3,57.2v12.5
								L63,59.4V47L45.3,57.2z"/>
							<path class="st2" d="M44.3,72.4c-0.2,0-0.3,0-0.5-0.1L24.2,60.9c-0.3-0.2-0.5-0.5-0.5-0.9V45.3c0-0.4,0.2-0.7,0.5-0.9
								s0.7-0.2,1,0l19.7,11.4c0.3,0.2,0.5,0.5,0.5,0.9v14.8c0,0.4-0.2,0.7-0.5,0.9C44.7,72.3,44.5,72.4,44.3,72.4z M25.7,59.4
								l17.7,10.2V57.2L25.7,47V59.4z"/>
							<path class="st2" d="M34.5,57.6c-0.6,0-1-0.4-1-1v-5.7c0-0.6,0.4-1,1-1s1,0.4,1,1v5.7C35.5,57.2,35.1,57.6,34.5,57.6z"/>
							<path class="st3" d="M54.2,66.7c-0.6,0-1-0.4-1-1v-5.4c0-0.6,0.4-1,1-1s1,0.4,1,1v5.4C55.2,66.3,54.7,66.7,54.2,66.7z"/>
						</g>
						<path class="st3" d="M44.3,72.4c-0.2,0-0.3,0-0.5-0.1L24.2,60.9c-0.3-0.2-0.5-0.5-0.5-0.9V45.3c0-0.4,0.2-0.7,0.5-0.9L43.8,33
							c0.3-0.2,0.7-0.2,1,0l19.7,11.4c0.3,0.2,0.5,0.5,0.5,0.9V60c0,0.4-0.2,0.7-0.5,0.9L44.8,72.2C44.7,72.3,44.5,72.4,44.3,72.4z
							 M25.7,59.4l18.7,10.8L63,59.4V45.8L44.3,35.1L25.7,45.8V59.4z"/>
					</g>
					<g>
						<path class="st5" d="M123,72.4c-0.1,0-0.1,0-0.2,0s-0.1,0-0.2-0.1c-0.1,0-0.1-0.1-0.2-0.1s-0.1-0.1-0.2-0.1
							c-0.2-0.2-0.3-0.4-0.3-0.7c0-0.1,0-0.3,0.1-0.4c0-0.1,0.1-0.2,0.2-0.3c0.2-0.2,0.6-0.3,0.9-0.3c0.1,0,0.1,0,0.2,0.1
							c0.1,0,0.1,0,0.2,0.1c0.1,0,0.1,0.1,0.2,0.1c0.2,0.2,0.3,0.4,0.3,0.7s-0.1,0.5-0.3,0.7c0,0-0.1,0.1-0.2,0.1
							c0,0-0.1,0.1-0.2,0.1s-0.1,0.1-0.2,0.1C123.1,72.4,123.1,72.4,123,72.4z"/>
						<path class="st5" d="M122,65.5c0-0.6,0.5-1,1-1l0,0c0.6,0,1,0.4,1,1l0,0c0,0.6-0.4,1-1,1l0,0C122.4,66.5,122,66,122,65.5z
							 M122,59.6c0-0.6,0.5-1,1-1l0,0c0.6,0,1,0.4,1,1l0,0c0,0.6-0.4,1-1,1l0,0C122.4,60.6,122,60.1,122,59.6z M122,53.7
							c0-0.6,0.5-1,1-1l0,0c0.6,0,1,0.4,1,1l0,0c0,0.5-0.4,1-1,1l0,0C122.4,54.7,122,54.2,122,53.7z M122,47.8c0-0.5,0.5-1,1-1l0,0
							c0.6,0,1,0.5,1,1l0,0c0,0.6-0.4,1-1,1l0,0C122.4,48.8,122,48.3,122,47.8z"/>
						<path class="st5" d="M123,42.9c-0.1,0-0.1,0-0.2,0s-0.1,0-0.2-0.1c-0.1,0-0.1-0.1-0.2-0.1s-0.1-0.1-0.2-0.1
							c-0.2-0.2-0.3-0.4-0.3-0.7s0.1-0.5,0.3-0.7c0,0,0.1-0.1,0.2-0.1c0,0,0.1-0.1,0.2-0.1s0.1,0,0.2-0.1c0.1,0,0.3,0,0.4,0
							s0.1,0,0.2,0.1c0.1,0,0.1,0.1,0.2,0.1s0.1,0.1,0.2,0.1c0.2,0.2,0.3,0.4,0.3,0.7s-0.1,0.5-0.3,0.7c0,0-0.1,0.1-0.2,0.1
							c0,0-0.1,0.1-0.2,0.1s-0.1,0.1-0.2,0.1C123.1,42.8,123.1,42.9,123,42.9z"/>
					</g>
					<g>
						<path class="st5" d="M83.7,20.1c-0.3,0-0.5-0.1-0.7-0.3c-0.2-0.2-0.3-0.4-0.3-0.7c0-0.1,0-0.3,0.1-0.4c0-0.1,0.1-0.2,0.2-0.3
							c0.1-0.1,0.2-0.2,0.3-0.2c0.4-0.2,0.8-0.1,1.1,0.2c0.1,0.1,0.2,0.2,0.2,0.3c0,0.1,0.1,0.2,0.1,0.4c0,0.3-0.1,0.5-0.3,0.7
							c0,0-0.1,0.1-0.2,0.1S84.1,20,84,20S83.9,20.1,83.7,20.1C83.8,20.1,83.7,20.1,83.7,20.1z"/>
						<path class="st5" d="M117.6,39.9c-0.5-0.3-0.7-0.9-0.4-1.4l0,0c0.3-0.5,0.9-0.6,1.4-0.4l0,0c0.5,0.3,0.6,0.9,0.4,1.4l0,0
							c-0.2,0.3-0.5,0.5-0.9,0.5l0,0C117.9,40,117.7,40,117.6,39.9z M112.7,37c-0.5-0.3-0.6-0.9-0.4-1.4l0,0
							c0.3-0.5,0.9-0.6,1.4-0.4l0,0c0.5,0.3,0.6,0.9,0.4,1.4l0,0c-0.2,0.3-0.5,0.5-0.9,0.5l0,0C113,37.2,112.8,37.1,112.7,37z
							 M107.7,34.2c-0.5-0.3-0.6-0.9-0.4-1.4l0,0c0.3-0.5,0.9-0.6,1.4-0.4l0,0c0.5,0.3,0.6,0.9,0.4,1.4l0,0
							c-0.2,0.3-0.5,0.5-0.9,0.5l0,0C108.1,34.3,107.9,34.3,107.7,34.2z M102.8,31.4c-0.5-0.3-0.7-0.9-0.4-1.4l0,0
							c0.3-0.5,0.9-0.6,1.4-0.4l0,0c0.5,0.3,0.6,0.9,0.4,1.4l0,0c-0.2,0.3-0.5,0.5-0.9,0.5l0,0C103.2,31.5,103,31.5,102.8,31.4z
							 M97.9,28.5c-0.5-0.3-0.6-0.9-0.4-1.4l0,0c0.3-0.5,0.9-0.7,1.4-0.4l0,0c0.5,0.3,0.6,0.9,0.4,1.4l0,0c-0.2,0.3-0.5,0.5-0.9,0.5
							l0,0C98.2,28.7,98.1,28.6,97.9,28.5z M93,25.7c-0.5-0.3-0.6-0.9-0.4-1.4l0,0c0.3-0.5,0.9-0.6,1.4-0.4l0,0
							c0.5,0.3,0.6,0.9,0.4,1.4l0,0c-0.2,0.3-0.5,0.5-0.9,0.5l0,0C93.3,25.8,93.2,25.8,93,25.7z M88.1,22.8
							c-0.5-0.3-0.7-0.9-0.4-1.4l0,0c0.3-0.5,0.9-0.6,1.4-0.4l0,0c0.5,0.3,0.6,0.9,0.4,1.4l0,0c-0.2,0.3-0.5,0.5-0.9,0.5l0,0
							C88.4,23,88.2,22.9,88.1,22.8z"/>
						<path class="st5" d="M123,42.9c-0.1,0-0.1,0-0.2,0s-0.1,0-0.2-0.1c-0.1,0-0.1-0.1-0.2-0.1s-0.1-0.1-0.2-0.1
							c-0.2-0.2-0.3-0.4-0.3-0.7s0.1-0.5,0.3-0.7c0,0,0.1-0.1,0.2-0.1c0,0,0.1-0.1,0.2-0.1s0.1,0,0.2-0.1c0.1,0,0.3,0,0.4,0
							s0.1,0,0.2,0.1c0.1,0,0.1,0.1,0.2,0.1s0.1,0.1,0.2,0.1c0.2,0.2,0.3,0.4,0.3,0.7s-0.1,0.5-0.3,0.7c0,0-0.1,0.1-0.2,0.1
							c0,0-0.1,0.1-0.2,0.1s-0.1,0.1-0.2,0.1C123.1,42.8,123.1,42.9,123,42.9z"/>
					</g>
					<g>
						<path class="st5" d="M5,72.4c-0.3,0-0.5-0.1-0.7-0.3C4.1,71.9,4,71.6,4,71.4s0.1-0.5,0.3-0.7c0.4-0.4,1-0.4,1.4,0
							C5.9,70.9,6,71.1,6,71.4s-0.1,0.5-0.3,0.7C5.5,72.3,5.3,72.4,5,72.4z"/>
						<path class="st5" d="M4,65.5c0-0.6,0.5-1,1-1l0,0c0.6,0,1,0.4,1,1l0,0c0,0.6-0.4,1-1,1l0,0C4.4,66.5,4,66,4,65.5z M4,59.6
							c0-0.6,0.5-1,1-1l0,0c0.6,0,1,0.4,1,1l0,0c0,0.6-0.4,1-1,1l0,0C4.4,60.6,4,60.1,4,59.6z M4,53.7c0-0.6,0.5-1,1-1l0,0
							c0.6,0,1,0.4,1,1l0,0c0,0.5-0.4,1-1,1l0,0C4.4,54.7,4,54.2,4,53.7z M4,47.8c0-0.5,0.5-1,1-1l0,0c0.6,0,1,0.5,1,1l0,0
							c0,0.6-0.4,1-1,1l0,0C4.4,48.8,4,48.3,4,47.8z"/>
						<path class="st5" d="M5,42.9c-0.3,0-0.5-0.1-0.7-0.3C4.1,42.4,4,42.1,4,41.9c0-0.3,0.1-0.5,0.3-0.7c0.4-0.4,1-0.4,1.4,0
							C5.9,41.3,6,41.6,6,41.9s-0.1,0.5-0.3,0.7C5.5,42.7,5.3,42.9,5,42.9z"/>
					</g>
					<g>
						<path class="st5" d="M44.3,20.1c-0.1,0-0.1,0-0.2,0c-0.1,0-0.1,0-0.2-0.1c-0.1,0-0.1-0.1-0.2-0.1c-0.1,0-0.1-0.1-0.2-0.1
							c-0.2-0.2-0.3-0.4-0.3-0.7c0-0.1,0-0.3,0.1-0.4c0-0.1,0.1-0.2,0.2-0.3c0,0,0.1-0.1,0.2-0.1c0,0,0.1-0.1,0.2-0.1
							c0.1,0,0.1,0,0.2-0.1c0.3-0.1,0.7,0,0.9,0.3c0.1,0.1,0.2,0.2,0.2,0.3c0,0.1,0.1,0.2,0.1,0.4c0,0.3-0.1,0.5-0.3,0.7
							C44.9,20,44.6,20.1,44.3,20.1z"/>
						<path class="st5" d="M9,39.5c-0.3-0.5-0.1-1.1,0.4-1.4l0,0c0.5-0.3,1.1-0.1,1.4,0.4l0,0c0.3,0.5,0.1,1.1-0.4,1.4l0,0
							C10.3,40,10.1,40,9.9,40l0,0C9.6,40,9.2,39.8,9,39.5z M14,36.7c-0.3-0.5-0.1-1.1,0.4-1.4l0,0c0.5-0.3,1.1-0.1,1.4,0.4l0,0
							c0.3,0.5,0.1,1.1-0.4,1.4l0,0c-0.2,0.1-0.3,0.1-0.5,0.1l0,0C14.5,37.2,14.2,37,14,36.7z M18.9,33.8c-0.3-0.5-0.1-1.1,0.4-1.4
							l0,0c0.5-0.3,1.1-0.1,1.4,0.4l0,0c0.3,0.5,0.1,1.1-0.4,1.4l0,0c-0.2,0.1-0.3,0.1-0.5,0.1l0,0C19.4,34.3,19.1,34.2,18.9,33.8z
							 M23.8,31c-0.3-0.5-0.1-1.1,0.4-1.4l0,0c0.5-0.3,1.1-0.1,1.4,0.4l0,0c0.3,0.5,0.1,1.1-0.4,1.4l0,0c-0.2,0.1-0.3,0.1-0.5,0.1
							l0,0C24.3,31.5,24,31.3,23.8,31z M28.7,28.2c-0.3-0.5-0.1-1.1,0.4-1.4l0,0c0.5-0.3,1.1-0.1,1.4,0.4l0,0
							c0.3,0.5,0.1,1.1-0.4,1.4l0,0c-0.2,0.1-0.3,0.1-0.5,0.1l0,0C29.2,28.7,28.9,28.5,28.7,28.2z M33.6,25.3
							c-0.3-0.5-0.1-1.1,0.4-1.4l0,0c0.5-0.3,1.1-0.1,1.4,0.4l0,0c0.3,0.5,0.1,1.1-0.4,1.4l0,0c-0.2,0.1-0.3,0.1-0.5,0.1l0,0
							C34.2,25.8,33.8,25.6,33.6,25.3z M38.6,22.5c-0.3-0.5-0.1-1.1,0.4-1.4l0,0c0.5-0.3,1.1-0.1,1.4,0.4l0,0
							c0.3,0.5,0.1,1.1-0.4,1.4l0,0C39.8,23,39.7,23,39.5,23l0,0C39.1,23,38.7,22.8,38.6,22.5z"/>
						<path class="st5" d="M5,42.9c-0.3,0-0.5-0.1-0.7-0.3C4.1,42.4,4,42.1,4,41.9c0-0.3,0.1-0.5,0.3-0.7c0.4-0.4,1-0.4,1.4,0
							C5.9,41.3,6,41.6,6,41.9s-0.1,0.5-0.3,0.7C5.5,42.7,5.3,42.9,5,42.9z"/>
					</g>
					<g>
						<g>
							<polygon class="st1" points="123,71.4 103.3,82.7 83.7,71.4 103.3,60 							"/>
							<path class="st2" d="M103.3,76.4c-0.2,0-0.3,0-0.5-0.1l-7-4c-0.3-0.2-0.5-0.5-0.5-0.9s0.2-0.7,0.5-0.9l7-4
								c0.3-0.2,0.7-0.2,1,0l7,4c0.3,0.2,0.5,0.5,0.5,0.9s-0.2,0.7-0.5,0.9l-7,4C103.7,76.4,103.5,76.4,103.3,76.4z M98.3,71.4
								l5,2.9l5-2.9l-5-2.9L98.3,71.4z"/>
							<g>
								<polygon class="st2" points="123,71.4 123,86.1 103.3,97.5 103.3,82.7 								"/>
								<path class="st3" d="M103.3,98.5c-0.2,0-0.3,0-0.5-0.1c-0.3-0.2-0.5-0.5-0.5-0.9V82.7c0-0.4,0.2-0.7,0.5-0.9l19.7-11.4
									c0.3-0.2,0.7-0.2,1,0s0.5,0.5,0.5,0.9v14.8c0,0.4-0.2,0.7-0.5,0.9l-19.7,11.4C103.7,98.5,103.5,98.5,103.3,98.5z
									 M104.3,83.3v12.5L122,85.6V73.1L104.3,83.3z"/>
							</g>
							<polygon class="st4" points="83.7,71.4 83.7,86.1 103.3,97.5 103.3,82.7 							"/>
							<path class="st2" d="M103.3,98.5c-0.2,0-0.3,0-0.5-0.1c-0.3-0.2-0.5-0.5-0.5-0.9V82.7c0-0.4,0.2-0.7,0.5-0.9l19.7-11.4
								c0.3-0.2,0.7-0.2,1,0s0.5,0.5,0.5,0.9v14.8c0,0.4-0.2,0.7-0.5,0.9l-19.7,11.4C103.7,98.5,103.5,98.5,103.3,98.5z M104.3,83.3
								v12.5L122,85.6V73.1L104.3,83.3z"/>
							<path class="st2" d="M103.3,98.5c-0.2,0-0.3,0-0.5-0.1L83.2,87c-0.3-0.2-0.5-0.5-0.5-0.9V71.4c0-0.4,0.2-0.7,0.5-0.9
								c0.3-0.2,0.7-0.2,1,0l19.7,11.4c0.3,0.2,0.5,0.5,0.5,0.9v14.8c0,0.4-0.2,0.7-0.5,0.9C103.7,98.5,103.5,98.5,103.3,98.5z
								 M84.7,85.6l17.7,10.2V83.3L84.7,73.1V85.6z"/>
							<path class="st2" d="M93.5,83.7c-0.6,0-1-0.4-1-1V77c0-0.6,0.4-1,1-1s1,0.4,1,1v5.7C94.5,83.3,94.1,83.7,93.5,83.7z"/>
							<path class="st3" d="M113.2,92.8c-0.6,0-1-0.4-1-1v-5.4c0-0.6,0.4-1,1-1s1,0.4,1,1v5.4C114.2,92.4,113.7,92.8,113.2,92.8z"/>
						</g>
						<path class="st3" d="M103.3,98.5c-0.2,0-0.3,0-0.5-0.1L83.2,87c-0.3-0.2-0.5-0.5-0.5-0.9V71.4c0-0.4,0.2-0.7,0.5-0.9
							l19.7-11.4c0.3-0.2,0.7-0.2,1,0l19.7,11.4c0.3,0.2,0.5,0.5,0.5,0.9v14.8c0,0.4-0.2,0.7-0.5,0.9l-19.7,11.4
							C103.7,98.5,103.5,98.5,103.3,98.5z M84.7,85.6l18.7,10.8L122,85.6V72l-18.7-10.8L84.7,72V85.6z"/>
					</g>
					<g>
						<path class="st3" d="M103.3,98.5c-0.1,0-0.3,0-0.4-0.1s-0.2-0.1-0.3-0.2c0,0-0.1-0.1-0.1-0.2s-0.1-0.1-0.1-0.2s0-0.1,0-0.2
							s0-0.1,0-0.2s0-0.1,0-0.2s0-0.1,0-0.2s0.1-0.1,0.1-0.2s0.1-0.1,0.1-0.2c0.1-0.1,0.2-0.2,0.3-0.2c0.2-0.1,0.4-0.1,0.6-0.1
							c0.1,0,0.1,0,0.2,0.1c0.1,0,0.1,0.1,0.2,0.1s0.1,0.1,0.2,0.1c0,0,0.1,0.1,0.1,0.2c0,0,0.1,0.1,0.1,0.2s0,0.1,0.1,0.2
							c0,0.1,0,0.1,0,0.2s0,0.1,0,0.2s0,0.1-0.1,0.2c0,0.1-0.1,0.1-0.1,0.2s-0.1,0.1-0.1,0.2c0,0-0.1,0.1-0.2,0.1
							c0,0-0.1,0.1-0.2,0.1s-0.1,0-0.2,0.1C103.5,98.5,103.4,98.5,103.3,98.5z"/>
						<path class="st3" d="M68,117.9c-0.3-0.5-0.1-1.1,0.4-1.4l0,0c0.5-0.3,1.1-0.1,1.4,0.4l0,0c0.3,0.5,0.1,1.1-0.4,1.4l0,0
							c-0.2,0.1-0.3,0.1-0.5,0.1l0,0C68.6,118.4,68.2,118.2,68,117.9z M73,115c-0.3-0.5-0.1-1.1,0.4-1.4l0,0
							c0.5-0.3,1.1-0.1,1.4,0.4l0,0c0.3,0.5,0.1,1.1-0.4,1.4l0,0c-0.2,0.1-0.3,0.1-0.5,0.1l0,0C73.5,115.5,73.2,115.3,73,115z
							 M77.9,112.2c-0.3-0.5-0.1-1.1,0.4-1.4l0,0c0.5-0.3,1.1-0.1,1.4,0.4l0,0c0.3,0.5,0.1,1.1-0.4,1.4l0,0
							c-0.2,0.1-0.3,0.1-0.5,0.1l0,0C78.4,112.7,78.1,112.5,77.9,112.2z M82.8,109.3c-0.3-0.5-0.1-1.1,0.4-1.4l0,0
							c0.5-0.3,1.1-0.1,1.4,0.4l0,0c0.3,0.5,0.1,1.1-0.4,1.4l0,0c-0.2,0.1-0.3,0.1-0.5,0.1l0,0C83.3,109.8,83,109.7,82.8,109.3z
							 M87.7,106.5c-0.3-0.5-0.1-1.1,0.4-1.4l0,0c0.5-0.3,1.1-0.1,1.4,0.4l0,0c0.3,0.5,0.1,1.1-0.4,1.4l0,0
							c-0.2,0.1-0.3,0.1-0.5,0.1l0,0C88.2,107,87.9,106.8,87.7,106.5z M92.6,103.7c-0.3-0.5-0.1-1.1,0.4-1.4l0,0
							c0.5-0.3,1.1-0.1,1.4,0.4l0,0c0.3,0.5,0.1,1.1-0.4,1.4l0,0c-0.2,0.1-0.3,0.1-0.5,0.1l0,0C93.2,104.2,92.8,104,92.6,103.7z
							 M97.5,100.8c-0.3-0.5-0.1-1.1,0.4-1.4l0,0c0.5-0.3,1.1-0.1,1.4,0.4l0,0c0.3,0.5,0.1,1.1-0.4,1.4l0,0
							c-0.2,0.1-0.3,0.1-0.5,0.1l0,0C98.1,101.3,97.7,101.1,97.5,100.8z"/>
						<path class="st3" d="M64,121.2c-0.3,0-0.5-0.1-0.7-0.3c-0.2-0.2-0.3-0.4-0.3-0.7c0-0.3,0.1-0.5,0.3-0.7c0.4-0.4,1-0.4,1.4,0
							c0.2,0.2,0.3,0.4,0.3,0.7c0,0.3-0.1,0.5-0.3,0.7C64.5,121.1,64.3,121.2,64,121.2z"/>
					</g>
					<g>
						<path class="st3" d="M24.7,98.5c-0.1,0-0.1,0-0.2,0s-0.1,0-0.2-0.1c-0.1,0-0.1-0.1-0.2-0.1s-0.1-0.1-0.2-0.1
							c-0.2-0.2-0.3-0.4-0.3-0.7c0-0.3,0.1-0.5,0.3-0.7c0-0.1,0.1-0.1,0.2-0.1c0,0,0.1-0.1,0.2-0.1s0.1,0,0.2-0.1
							c0.3-0.1,0.7,0.1,0.9,0.3c0.2,0.2,0.3,0.4,0.3,0.7c0,0.3-0.1,0.5-0.3,0.7C25.2,98.4,24.9,98.5,24.7,98.5z"/>
						<path class="st3" d="M58.6,118.2c-0.5-0.3-0.7-0.9-0.4-1.4l0,0c0.3-0.5,0.9-0.7,1.4-0.4l0,0c0.5,0.3,0.6,0.9,0.4,1.4l0,0
							c-0.2,0.3-0.5,0.5-0.9,0.5l0,0C58.9,118.4,58.7,118.3,58.6,118.2z M53.7,115.4c-0.5-0.3-0.6-0.9-0.4-1.4l0,0
							c0.3-0.5,0.9-0.6,1.4-0.4l0,0c0.5,0.3,0.6,0.9,0.4,1.4l0,0c-0.2,0.3-0.5,0.5-0.9,0.5l0,0C54,115.5,53.8,115.5,53.7,115.4z
							 M48.7,112.5c-0.5-0.3-0.6-0.9-0.4-1.4l0,0c0.3-0.5,0.9-0.6,1.4-0.4l0,0c0.5,0.3,0.6,0.9,0.4,1.4l0,0
							c-0.2,0.3-0.5,0.5-0.9,0.5l0,0C49.1,112.7,48.9,112.6,48.7,112.5z M43.8,109.7c-0.5-0.3-0.7-0.9-0.4-1.4l0,0
							c0.3-0.5,0.9-0.6,1.4-0.4l0,0c0.5,0.3,0.6,0.9,0.4,1.4l0,0c-0.2,0.3-0.5,0.5-0.9,0.5l0,0C44.2,109.8,44,109.8,43.8,109.7z
							 M38.9,106.9c-0.5-0.3-0.6-0.9-0.4-1.4l0,0c0.3-0.5,0.9-0.6,1.4-0.4l0,0c0.5,0.3,0.6,0.9,0.4,1.4l0,0
							c-0.2,0.3-0.5,0.5-0.9,0.5l0,0C39.2,107,39.1,107,38.9,106.9z M34,104c-0.5-0.3-0.6-0.9-0.4-1.4l0,0c0.3-0.5,0.9-0.6,1.4-0.4
							l0,0c0.5,0.3,0.6,0.9,0.4,1.4l0,0c-0.2,0.3-0.5,0.5-0.9,0.5l0,0C34.3,104.2,34.2,104.1,34,104z M29.1,101.2
							c-0.5-0.3-0.7-0.9-0.4-1.4l0,0c0.3-0.5,0.9-0.6,1.4-0.4l0,0c0.5,0.3,0.6,0.9,0.4,1.4l0,0c-0.2,0.3-0.5,0.5-0.9,0.5l0,0
							C29.4,101.3,29.2,101.3,29.1,101.2z"/>
						<path class="st3" d="M64,121.2c-0.3,0-0.5-0.1-0.7-0.3c-0.2-0.2-0.3-0.4-0.3-0.7c0-0.3,0.1-0.5,0.3-0.7c0.4-0.4,1-0.4,1.4,0
							c0.2,0.2,0.3,0.4,0.3,0.7c0,0.3-0.1,0.5-0.3,0.7C64.5,121.1,64.3,121.2,64,121.2z"/>
					</g>
					<g>
						<g>
							<polygon class="st1" points="83.7,71.4 64,82.7 44.3,71.4 64,60 							"/>
							<path class="st2" d="M64,76.4c-0.2,0-0.3,0-0.5-0.1l-7-4c-0.3-0.2-0.5-0.5-0.5-0.9s0.2-0.7,0.5-0.9l7-4c0.3-0.2,0.7-0.2,1,0
								l7,4c0.3,0.2,0.5,0.5,0.5,0.9s-0.2,0.7-0.5,0.9l-7,4C64.3,76.4,64.2,76.4,64,76.4z M59,71.4l5,2.9l5-2.9l-5-2.9L59,71.4z"/>
							<g>
								<polygon class="st2" points="83.7,71.4 83.7,86.1 64,97.5 64,82.7 								"/>
								<path class="st3" d="M64,98.5c-0.2,0-0.3,0-0.5-0.1c-0.3-0.2-0.5-0.5-0.5-0.9V82.7c0-0.4,0.2-0.7,0.5-0.9l19.7-11.4
									c0.3-0.2,0.7-0.2,1,0s0.5,0.5,0.5,0.9v14.8c0,0.4-0.2,0.7-0.5,0.9L64.5,98.4C64.3,98.5,64.2,98.5,64,98.5z M65,83.3v12.5
									l17.7-10.2V73.1L65,83.3z"/>
							</g>
							<polygon class="st4" points="44.3,71.4 44.3,86.1 64,97.5 64,82.7 							"/>
							<path class="st2" d="M64,98.5c-0.2,0-0.3,0-0.5-0.1c-0.3-0.2-0.5-0.5-0.5-0.9V82.7c0-0.4,0.2-0.7,0.5-0.9l19.7-11.4
								c0.3-0.2,0.7-0.2,1,0s0.5,0.5,0.5,0.9v14.8c0,0.4-0.2,0.7-0.5,0.9L64.5,98.4C64.3,98.5,64.2,98.5,64,98.5z M65,83.3v12.5
								l17.7-10.2V73.1L65,83.3z"/>
							<path class="st2" d="M64,98.5c-0.2,0-0.3,0-0.5-0.1L43.8,87c-0.3-0.2-0.5-0.5-0.5-0.9V71.4c0-0.4,0.2-0.7,0.5-0.9
								c0.3-0.2,0.7-0.2,1,0l19.7,11.4c0.3,0.2,0.5,0.5,0.5,0.9v14.8c0,0.4-0.2,0.7-0.5,0.9C64.3,98.5,64.2,98.5,64,98.5z
								 M45.3,85.6L63,95.8V83.3L45.3,73.1V85.6z"/>
							<path class="st2" d="M54.2,83.7c-0.6,0-1-0.4-1-1V77c0-0.6,0.4-1,1-1s1,0.4,1,1v5.7C55.2,83.3,54.7,83.7,54.2,83.7z"/>
							<path class="st3" d="M73.8,92.8c-0.6,0-1-0.4-1-1v-5.4c0-0.6,0.4-1,1-1s1,0.4,1,1v5.4C74.8,92.4,74.4,92.8,73.8,92.8z"/>
						</g>
						<path class="st3" d="M64,98.5c-0.2,0-0.3,0-0.5-0.1L43.8,87c-0.3-0.2-0.5-0.5-0.5-0.9V71.4c0-0.4,0.2-0.7,0.5-0.9l19.7-11.4
							c0.3-0.2,0.7-0.2,1,0l19.7,11.4c0.3,0.2,0.5,0.5,0.5,0.9v14.8c0,0.4-0.2,0.7-0.5,0.9L64.5,98.4C64.3,98.5,64.2,98.5,64,98.5z
							 M45.3,85.6L64,96.3l18.7-10.8V72L64,61.2L45.3,72V85.6z"/>
					</g>
					<g>
						<g>
							<polygon class="st1" points="44.3,71.4 24.7,82.7 5,71.4 24.7,60 							"/>
							<path class="st2" d="M24.7,76.4c-0.2,0-0.3,0-0.5-0.1l-7-4c-0.3-0.2-0.5-0.5-0.5-0.9s0.2-0.7,0.5-0.9l7-4
								c0.3-0.2,0.7-0.2,1,0l7,4c0.3,0.2,0.5,0.5,0.5,0.9s-0.2,0.7-0.5,0.9l-7,4C25,76.4,24.8,76.4,24.7,76.4z M19.7,71.4l5,2.9
								l5-2.9l-5-2.9L19.7,71.4z"/>
							<g>
								<polygon class="st2" points="44.3,71.4 44.3,86.1 24.7,97.5 24.7,82.7 								"/>
								<path class="st3" d="M24.7,98.5c-0.2,0-0.3,0-0.5-0.1c-0.3-0.2-0.5-0.5-0.5-0.9V82.7c0-0.4,0.2-0.7,0.5-0.9l19.7-11.4
									c0.3-0.2,0.7-0.2,1,0s0.5,0.5,0.5,0.9v14.8c0,0.4-0.2,0.7-0.5,0.9L25.2,98.4C25,98.5,24.8,98.5,24.7,98.5z M25.7,83.3v12.5
									l17.7-10.2V73.1L25.7,83.3z"/>
							</g>
							<polygon class="st4" points="5,71.4 5,86.1 24.7,97.5 24.7,82.7 							"/>
							<path class="st2" d="M24.7,98.5c-0.2,0-0.3,0-0.5-0.1c-0.3-0.2-0.5-0.5-0.5-0.9V82.7c0-0.4,0.2-0.7,0.5-0.9l19.7-11.4
								c0.3-0.2,0.7-0.2,1,0s0.5,0.5,0.5,0.9v14.8c0,0.4-0.2,0.7-0.5,0.9L25.2,98.4C25,98.5,24.8,98.5,24.7,98.5z M25.7,83.3v12.5
								l17.7-10.2V73.1L25.7,83.3z"/>
							<path class="st2" d="M24.7,98.5c-0.2,0-0.3,0-0.5-0.1L4.5,87C4.2,86.8,4,86.5,4,86.1V71.4c0-0.4,0.2-0.7,0.5-0.9
								c0.3-0.2,0.7-0.2,1,0l19.7,11.4c0.3,0.2,0.5,0.5,0.5,0.9v14.8c0,0.4-0.2,0.7-0.5,0.9C25,98.5,24.8,98.5,24.7,98.5z M6,85.6
								l17.7,10.2V83.3L6,73.1V85.6z"/>
							<path class="st2" d="M14.8,83.7c-0.6,0-1-0.4-1-1V77c0-0.6,0.4-1,1-1s1,0.4,1,1v5.7C15.8,83.3,15.4,83.7,14.8,83.7z"/>
							<path class="st3" d="M34.5,92.8c-0.6,0-1-0.4-1-1v-5.4c0-0.6,0.4-1,1-1s1,0.4,1,1v5.4C35.5,92.4,35.1,92.8,34.5,92.8z"/>
						</g>
						<path class="st3" d="M24.7,98.5c-0.2,0-0.3,0-0.5-0.1L4.5,87C4.2,86.8,4,86.5,4,86.1V71.4c0-0.4,0.2-0.7,0.5-0.9l19.7-11.4
							c0.3-0.2,0.7-0.2,1,0l19.7,11.4c0.3,0.2,0.5,0.5,0.5,0.9v14.8c0,0.4-0.2,0.7-0.5,0.9L25.2,98.4C25,98.5,24.8,98.5,24.7,98.5z
							 M6,85.6l18.7,10.8l18.7-10.8V72L24.7,61.2L6,72V85.6z"/>
					</g>
					<g>
						<g>
							<polygon class="st1" points="83.7,19.1 64,30.5 44.3,19.1 64,7.8 							"/>
							<path class="st6" d="M64,24.2c-0.2,0-0.3,0-0.5-0.1l-7-4c-0.3-0.2-0.5-0.5-0.5-0.9s0.2-0.7,0.5-0.9l7-4c0.3-0.2,0.7-0.2,1,0
								l7,4c0.3,0.2,0.5,0.5,0.5,0.9s-0.2,0.7-0.5,0.9l-7,4C64.3,24.1,64.2,24.2,64,24.2z M59,19.1l5,2.9l5-2.9l-5-2.9L59,19.1z"/>
							<g>
								<polygon class="st6" points="83.7,19.1 83.7,33.9 64,45.3 64,30.5 								"/>
								<path class="st6" d="M64,46.3c-0.2,0-0.3,0-0.5-0.1C63.2,46,63,45.6,63,45.3V30.5c0-0.4,0.2-0.7,0.5-0.9l19.7-11.4
									c0.3-0.2,0.7-0.2,1,0s0.5,0.5,0.5,0.9v14.8c0,0.4-0.2,0.7-0.5,0.9L64.5,46.1C64.3,46.2,64.2,46.3,64,46.3z M65,31.1v12.5
									l17.7-10.2V20.9L65,31.1z"/>
							</g>
							<g>
								<polygon class="st7" points="44.3,19.1 44.3,33.9 64,45.3 64,30.5 								"/>
								<path class="st6" d="M64,46.3c-0.2,0-0.3,0-0.5-0.1L43.8,34.8c-0.3-0.2-0.5-0.5-0.5-0.9V19.1c0-0.4,0.2-0.7,0.5-0.9
									c0.3-0.2,0.7-0.2,1,0l19.7,11.4c0.3,0.2,0.5,0.5,0.5,0.9v14.8c0,0.4-0.2,0.7-0.5,0.9C64.3,46.2,64.2,46.3,64,46.3z
									 M45.3,33.3L63,43.5V31.1L45.3,20.9V33.3z"/>
							</g>
							<path class="st6" d="M54.2,31.5c-0.6,0-1-0.4-1-1v-5.7c0-0.6,0.4-1,1-1s1,0.4,1,1v5.7C55.2,31.1,54.7,31.5,54.2,31.5z"/>
							<path class="st5" d="M73.8,40.6c-0.6,0-1-0.4-1-1v-5.4c0-0.6,0.4-1,1-1s1,0.4,1,1v5.4C74.8,40.1,74.4,40.6,73.8,40.6z"/>
						</g>
						<path class="st5" d="M64,46.3c-0.2,0-0.3,0-0.5-0.1L43.8,34.8c-0.3-0.2-0.5-0.5-0.5-0.9V19.1c0-0.4,0.2-0.7,0.5-0.9L63.5,6.9
							c0.3-0.2,0.7-0.2,1,0l19.7,11.4c0.3,0.2,0.5,0.5,0.5,0.9V34c0,0.4-0.2,0.7-0.5,0.9L64.5,46.1C64.3,46.2,64.2,46.3,64,46.3z
							 M45.3,33.3L64,44.1l18.7-10.8V19.7L64,9L45.3,19.7V33.3z"/>
					</g>
				</g>
			</g>
		</g>
	</g>
	<g>
		<rect class="st0" width="128" height="128"/>
	</g>
</g>
</svg>
