<?xml version="1.0" encoding="utf-8"?>
<!-- Generator: Adobe Illustrator 24.1.0, SVG Export Plug-In . SVG Version: 6.00 Build 0)  -->
<svg version="1.1" id="Layer_1" xmlns="http://www.w3.org/2000/svg" xmlns:xlink="http://www.w3.org/1999/xlink" x="0px" y="0px"
	 viewBox="0 0 128 128" style="enable-background:new 0 0 128 128;" xml:space="preserve">
<style type="text/css">
	.st0{fill:#E9EBDF;}
	.st1{fill:#4D9987;}
	.st2{fill:#FFFFFF;}
	.st3{fill:#0E352C;}
	.st4{fill:none;}
</style>
<g id="Layer_1_1_">
</g>
<g>
	<g id="Layer_2_1_">
		<g id="Tech_Concepts_1_">
			<g>
				<g>
					<g>
						<g>
							<g>
								<g>
									<g>
										<path class="st0" d="M84.5,64l-16.7-9.7c-2.1-1.2-5.4-1.2-7.5,0L43.5,64H17.7v16.1c0,0.8,0.5,1.6,1.5,2.2l41,23.7
											c2.1,1.2,5.4,1.2,7.5,0l41-23.7c1-0.6,1.5-1.4,1.5-2.2V64H84.5z"/>
										<path class="st1" d="M64,107.9c-1.5,0-3-0.3-4.2-1l-41-23.7c-1.3-0.8-2-1.8-2-3V64c0-0.6,0.4-1,1-1h25.5l16.5-9.5
											c2.4-1.4,6.1-1.4,8.5,0L84.7,63h25.5c0.6,0,1,0.4,1,1v16.1c0,1.2-0.7,2.3-2,3l-41,23.7C67,107.5,65.5,107.9,64,107.9z
											 M18.7,65v15.1c0,0.4,0.4,0.9,1,1.3l41,23.7c1.8,1,4.7,1,6.5,0l41-23.7c0.7-0.4,1-0.9,1-1.3V65H84.5c-0.2,0-0.3,0-0.5-0.1
											l-16.7-9.7c-1.8-1-4.7-1-6.5,0L44,64.9C43.9,65,43.7,65,43.5,65H18.7z"/>
									</g>
									<path class="st1" d="M67.7,106l41-23.7c1-0.6,1.5-1.4,1.5-2.2V64H84.5l-16.7-9.7c-1-0.6-2.4-0.9-3.7-0.9v53.4
										C65.4,106.9,66.7,106.6,67.7,106z"/>
									<path class="st1" d="M45.8,91.2c-0.2,0-0.3,0-0.5-0.1l-12.1-7c-0.5-0.3-0.6-0.9-0.4-1.4c0.3-0.5,0.9-0.6,1.4-0.4l12.1,7
										c0.5,0.3,0.6,0.9,0.4,1.4C46.5,91,46.2,91.2,45.8,91.2z"/>
									<g>
										<path class="st2" d="M108.7,61.8l-41-23.7c-2.1-1.2-5.4-1.2-7.5,0l-41,23.7c-2.1,1.2-2.1,3.1,0,4.3l41,23.7
											c2.1,1.2,5.4,1.2,7.5,0l41-23.7C110.8,65,110.8,63,108.7,61.8z"/>
										<path class="st1" d="M64,91.7c-1.5,0-3-0.3-4.2-1L18.8,67c-1.3-0.8-2-1.8-2-3c0-1.2,0.7-2.3,2-3l41-23.7
											c2.4-1.4,6.1-1.4,8.5,0l41,23.7c1.3,0.8,2,1.8,2,3c0,1.2-0.7,2.3-2,3l-41,23.7C67,91.4,65.5,91.7,64,91.7z M64,38.3
											c-1.2,0-2.4,0.3-3.2,0.8l-41,23.7c-0.7,0.4-1,0.9-1,1.3c0,0.4,0.4,0.9,1,1.3l41,23.7c1.8,1,4.7,1,6.5,0l41-23.7
											c0.7-0.4,1-0.9,1-1.3s-0.4-0.9-1-1.3l0,0l-41-23.7C66.4,38.5,65.2,38.3,64,38.3z"/>
									</g>
								</g>
							</g>
							<g>
								<polygon class="st1" points="99.1,87.8 77.5,100.3 77.5,92.9 99.1,80.4 								"/>
								<path class="st0" d="M77.5,101.3c-0.2,0-0.3,0-0.5-0.1c-0.3-0.2-0.5-0.5-0.5-0.9v-7.5c0-0.4,0.2-0.7,0.5-0.9l21.6-12.5
									c0.3-0.2,0.7-0.2,1,0s0.5,0.5,0.5,0.9v7.5c0,0.4-0.2,0.7-0.5,0.9L78,101.2C77.8,101.3,77.6,101.3,77.5,101.3z M78.5,93.5
									v5.2l19.6-11.3v-5.2L78.5,93.5z M99.1,87.8L99.1,87.8L99.1,87.8z"/>
							</g>
							<path class="st3" d="M64,107.9c-1.6,0-3.1-0.4-4.2-1l-41-23.7c-1.3-0.8-2-1.8-2-3V64c0-1.2,0.7-2.3,2-3l41-23.7
								c2.4-1.4,6.1-1.4,8.5,0l41,23.7c1.3,0.8,2,1.8,2,3v16.1c0,1.2-0.7,2.3-2,3l-41,23.7C67.1,107.5,65.6,107.9,64,107.9z
								 M64,38.3c-1.2,0-2.4,0.3-3.2,0.8l-41,23.7c-0.7,0.4-1,0.9-1,1.3v16.1c0,0.4,0.4,0.9,1,1.3l41,23.7c1.7,1,4.8,1,6.5,0
								l41-23.7c0.7-0.4,1-0.9,1-1.3V64c0-0.4-0.4-0.9-1-1.3l0,0L67.3,39C66.4,38.5,65.2,38.3,64,38.3z"/>
							<g>
								<ellipse class="st0" cx="99.7" cy="64" rx="2.1" ry="1.2"/>
								<ellipse class="st0" cx="64" cy="84.6" rx="2.1" ry="1.2"/>
								<ellipse class="st0" cx="64" cy="43.4" rx="2.1" ry="1.2"/>
								<ellipse class="st0" cx="28.3" cy="64" rx="2.1" ry="1.2"/>
							</g>
						</g>
					</g>
					<g>
						<g>
							<g>
								<g>
									<g>
										<path class="st0" d="M84.5,47.9l-16.7-9.7c-2.1-1.2-5.4-1.2-7.5,0l-16.7,9.7H17.7V64c0,0.8,0.5,1.6,1.5,2.2l41,23.7
											c2.1,1.2,5.4,1.2,7.5,0l41-23.7c1-0.6,1.5-1.4,1.5-2.2V47.9H84.5z"/>
										<path class="st1" d="M64,91.7c-1.5,0-3-0.3-4.2-1L18.8,67c-1.3-0.8-2-1.8-2-3V47.9c0-0.6,0.4-1,1-1h25.5l16.5-9.5
											c2.4-1.4,6.1-1.4,8.5,0l16.5,9.5h25.5c0.6,0,1,0.4,1,1V64c0,1.2-0.7,2.3-2,3l-41,23.7C67,91.4,65.5,91.7,64,91.7z
											 M18.7,48.9V64c0,0.4,0.4,0.9,1,1.3l41,23.7c1.8,1,4.7,1,6.5,0l41-23.7c0.7-0.4,1-0.9,1-1.3V48.9H84.5
											c-0.2,0-0.3,0-0.5-0.1l-16.7-9.7c-1.8-1-4.7-1-6.5,0L44,48.7c-0.2,0.1-0.3,0.1-0.5,0.1H18.7V48.9z"/>
									</g>
									<path class="st1" d="M67.7,89.8l41-23.7c1-0.6,1.5-1.4,1.5-2.2v-16H84.5l-16.7-9.7c-1-0.6-2.4-0.9-3.7-0.9v53.4
										C65.4,90.7,66.7,90.4,67.7,89.8z"/>
									<path class="st1" d="M45.8,75c-0.2,0-0.3,0-0.5-0.1l-12.1-7c-0.5-0.3-0.6-0.9-0.4-1.4c0.3-0.5,0.9-0.6,1.4-0.4l12.1,7
										c0.5,0.3,0.6,0.9,0.4,1.4C46.5,74.8,46.2,75,45.8,75z"/>
									<g>
										<path class="st2" d="M108.7,45.7L67.7,22c-2.1-1.2-5.4-1.2-7.5,0l-41,23.7c-2.1,1.2-2.1,3.1,0,4.3l41,23.7
											c2.1,1.2,5.4,1.2,7.5,0l41-23.7C110.8,48.8,110.8,46.9,108.7,45.7z"/>
										<path class="st1" d="M64,75.6c-1.5,0-3-0.3-4.2-1l-41-23.7c-1.3-0.8-2-1.8-2-3s0.7-2.3,2-3l41-23.7c2.4-1.4,6.1-1.4,8.5,0
											l41,23.7c1.3,0.8,2,1.8,2,3s-0.7,2.3-2,3l-41,23.7C67,75.2,65.5,75.6,64,75.6z M64,22.1c-1.2,0-2.4,0.3-3.2,0.8l-41,23.7
											c-0.7,0.4-1,0.9-1,1.3c0,0.4,0.4,0.9,1,1.3l41,23.7c1.8,1,4.7,1,6.5,0l41-23.7c0.7-0.4,1-0.9,1-1.3c0-0.4-0.4-0.9-1-1.3
											l0,0l-41-23.7C66.4,22.4,65.2,22.1,64,22.1z"/>
									</g>
								</g>
							</g>
							<g>
								<polygon class="st1" points="99.1,71.7 77.5,84.2 77.5,76.7 99.1,64.2 								"/>
								<path class="st0" d="M77.5,85.2c-0.2,0-0.3,0-0.5-0.1c-0.3-0.2-0.5-0.5-0.5-0.9v-7.5c0-0.4,0.2-0.7,0.5-0.9l21.6-12.5
									c0.3-0.2,0.7-0.2,1,0s0.5,0.5,0.5,0.9v7.5c0,0.4-0.2,0.7-0.5,0.9L78,85.1C77.8,85.1,77.6,85.2,77.5,85.2z M78.5,77.3v5.2
									l19.6-11.3V66L78.5,77.3z M99.1,71.7L99.1,71.7L99.1,71.7z"/>
							</g>
							<path class="st3" d="M64,91.7c-1.6,0-3.1-0.4-4.2-1L18.8,67c-1.3-0.8-2-1.8-2-3V47.9c0-1.2,0.7-2.3,2-3l41-23.7
								c2.4-1.4,6.1-1.4,8.5,0l41,23.7l0,0c1.3,0.8,2,1.8,2,3V64c0,1.2-0.7,2.3-2,3l-41,23.7C67.1,91.3,65.6,91.7,64,91.7z M64,22.1
								c-1.2,0-2.4,0.3-3.2,0.8l-41,23.7c-0.7,0.4-1,0.9-1,1.3V64c0,0.4,0.4,0.9,1,1.3l41,23.7c1.7,1,4.8,1,6.5,0l41-23.7
								c0.7-0.4,1-0.9,1-1.3V47.9c0-0.4-0.4-0.9-1-1.3l-41-23.7C66.4,22.4,65.2,22.1,64,22.1z"/>
							<g>
								<ellipse class="st0" cx="99.7" cy="47.9" rx="2.1" ry="1.2"/>
								<ellipse class="st0" cx="64" cy="68.5" rx="2.1" ry="1.2"/>
								<ellipse class="st0" cx="64" cy="27.3" rx="2.1" ry="1.2"/>
								<ellipse class="st0" cx="28.3" cy="47.9" rx="2.1" ry="1.2"/>
							</g>
						</g>
					</g>
				</g>
				<rect x="4" y="4" class="st4" width="120" height="120"/>
				<rect x="4" y="4" class="st4" width="120" height="120"/>
			</g>
		</g>
	</g>
	<g>
		<rect class="st4" width="128" height="128"/>
	</g>
</g>
</svg>
