<?xml version="1.0" encoding="utf-8"?>
<!-- Generator: Adobe Illustrator 24.1.0, SVG Export Plug-In . SVG Version: 6.00 Build 0)  -->
<svg version="1.1" id="Layer_1" xmlns="http://www.w3.org/2000/svg" xmlns:xlink="http://www.w3.org/1999/xlink" x="0px" y="0px"
	 viewBox="0 0 128 128" style="enable-background:new 0 0 128 128;" xml:space="preserve">
<style type="text/css">
	.st0{fill:none;}
	.st1{fill:#E9EBDF;}
	.st2{fill:#4D9987;}
	.st3{fill:#0E352C;}
	.st4{fill:#FFFFFF;}
	.st5{fill:#C4D7D3;}
	.st6{fill:#27ae60;}
	.st7{fill:#185849;}
</style>
<g id="Layer_1_1_">
</g>
<g>
	<g id="Layer_2_1_">
		<g id="Objects_1_">
			<g>
				<rect x="4" y="4.5" class="st0" width="120" height="120"/>
				<g>
					<g>
						<g>
							<g>
								<g>
									<g>
										<g>
											<path class="st1" d="M109.6,31.7l-8.7-5c-1.1-0.6-2.8-0.6-3.9,0l-8.7,5H75v25.1c0,0.4,0.3,0.8,0.8,1.1l21.3,12.3
												c1.1,0.6,2.8,0.6,3.9,0l21.3-12.3c0.5-0.3,0.8-0.7,0.8-1.1V31.7H109.6z"/>
											<path class="st2" d="M99,71.7c-0.9,0-1.7-0.2-2.4-0.6L75.3,58.8c-0.8-0.5-1.3-1.2-1.3-2V31.7c0-0.6,0.4-1,1-1h13.1
												l8.5-4.9c1.4-0.8,3.5-0.8,4.9,0l8.5,4.9h13c0.6,0,1,0.4,1,1v25.1c0,0.8-0.5,1.5-1.3,2l-21.3,12.3
												C100.7,71.5,99.9,71.7,99,71.7z M76,32.7v24.1c0,0,0.1,0.1,0.3,0.3l21.3,12.3c0.8,0.4,2.1,0.4,2.9,0l21.3-12.3
												c0.2-0.1,0.3-0.2,0.3-0.3V32.7h-12.4c-0.2,0-0.3,0-0.5-0.1l-8.7-5c-0.8-0.4-2.1-0.4-2.9,0l-8.7,5
												c-0.2,0.1-0.3,0.1-0.5,0.1C88.4,32.7,76,32.7,76,32.7z"/>
										</g>
										<path class="st2" d="M93.1,68.9c-0.2,0-0.3,0-0.5-0.1L80.8,62c-0.3-0.2-0.5-0.5-0.5-0.9V50.6c0-1,0.4-1.8,1.1-2.2
											c0.6-0.4,1.4-0.3,2.1,0.1l8.5,4.9c1.2,0.7,2.2,2.5,2.2,4.1V68c0,0.4-0.2,0.7-0.5,0.9C93.4,68.9,93.2,68.9,93.1,68.9z
											 M82.3,60.5l9.8,5.7v-8.8c0-0.9-0.6-2-1.2-2.3l0,0l-8.5-4.9h-0.1c0,0.1-0.1,0.2-0.1,0.4L82.3,60.5L82.3,60.5z"/>
										<path class="st2" d="M100.9,70.2l21.3-12.3c0.5-0.3,0.8-0.7,0.8-1.1V31.7h-13.4l-8.7-5c-0.5-0.3-1.2-0.5-1.9-0.5v44.4
											C99.7,70.7,100.4,70.5,100.9,70.2z"/>
										<g>
											<g>
												<path class="st1" d="M105.2,60.4c-0.3,0-0.5-0.1-0.7-0.3c-0.1-0.1-0.2-0.2-0.2-0.3s-0.1-0.2-0.1-0.4
													c0-0.3,0.1-0.5,0.3-0.7c0.4-0.4,1-0.4,1.4,0c0.2,0.2,0.3,0.4,0.3,0.7c0,0.1,0,0.3-0.1,0.4s-0.1,0.2-0.2,0.3
													C105.7,60.3,105.4,60.4,105.2,60.4z"/>
												<path class="st3" d="M109.4,58c-0.3,0-0.7-0.2-0.9-0.5c-0.3-0.5-0.1-1.1,0.4-1.4l8.6-5c0.5-0.3,1.1-0.1,1.4,0.4
													s0.1,1.1-0.4,1.4l-8.6,5C109.7,57.9,109.5,58,109.4,58z"/>
											</g>
											<g>
												<path class="st1" d="M105.2,52c-0.3,0-0.5-0.1-0.7-0.3s-0.3-0.4-0.3-0.7c0-0.1,0-0.3,0.1-0.4c0.1-0.1,0.1-0.2,0.2-0.3
													c0.4-0.4,1-0.4,1.4,0c0.1,0.1,0.2,0.2,0.2,0.3s0.1,0.2,0.1,0.4c0,0.3-0.1,0.5-0.3,0.7C105.7,51.9,105.4,52,105.2,52z"/>
												<path class="st3" d="M109.4,49.6c-0.3,0-0.7-0.2-0.9-0.5c-0.3-0.5-0.1-1.1,0.4-1.4l8.6-5c0.5-0.3,1.1-0.1,1.4,0.4
													s0.1,1.1-0.4,1.4l-8.6,5C109.7,49.5,109.5,49.6,109.4,49.6z"/>
											</g>
										</g>
										<g>
											<path class="st4" d="M122.2,30.6l-21.3-12.3c-1.1-0.6-2.8-0.6-3.9,0L75.8,30.6c-1.1,0.6-1.1,1.6,0,2.2l21.3,12.3
												c1.1,0.6,2.8,0.6,3.9,0l21.3-12.3C123.3,32.2,123.3,31.2,122.2,30.6z"/>
											<path class="st2" d="M99,46.6c-0.9,0-1.7-0.2-2.4-0.6L75.3,33.7c-0.8-0.5-1.3-1.2-1.3-2s0.5-1.5,1.3-2l21.3-12.3
												c1.4-0.8,3.5-0.8,4.9,0l21.3,12.3l0,0c0.8,0.5,1.3,1.2,1.3,2s-0.5,1.5-1.3,2L101.4,46C100.7,46.4,99.9,46.6,99,46.6z
												 M76,31.7c0,0,0.1,0.1,0.3,0.2l21.3,12.3c0.8,0.4,2.1,0.4,2.9,0L121.7,32c0.2-0.1,0.3-0.2,0.3-0.3l0,0
												c0,0-0.1-0.1-0.3-0.2l0,0l-21.3-12.3c-0.8-0.4-2.1-0.4-2.9,0L76.3,31.5C76.1,31.6,76,31.7,76,31.7L76,31.7z"/>
										</g>
										<path class="st1" d="M99,38.9c-0.5,0-1-0.1-1.4-0.3l-9.5-5.5c-0.5-0.3-0.9-0.8-0.9-1.4s0.3-1.1,0.9-1.4l9.5-5.5
											c0.8-0.5,1.9-0.5,2.7,0l9.5,5.5c0.5,0.3,0.9,0.8,0.9,1.4s-0.3,1.1-0.9,1.4l-9.5,5.5C100,38.8,99.5,38.9,99,38.9z
											 M89.8,31.7l8.9,5.1c0.2,0.1,0.6,0.1,0.7,0l8.9-5.1l-8.9-5.1c-0.2-0.1-0.6-0.1-0.7,0L89.8,31.7z M108.9,32.1L108.9,32.1
											l0.5-0.9L108.9,32.1z"/>
										<path class="st1" d="M98.1,37.7c0.5,0.3,1.3,0.3,1.7,0l9.5-5.5c0.5-0.3,0.5-0.7,0-1l-3.6-2.1l-11.2,6.5L98.1,37.7z"/>
									</g>
								</g>
								<path class="st3" d="M99,71.7c-0.9,0-1.8-0.2-2.4-0.6L75.3,58.8c-0.8-0.5-1.3-1.2-1.3-2V31.7c0-0.8,0.5-1.5,1.3-2l21.3-12.3
									c1.4-0.8,3.5-0.8,4.9,0l21.3,12.3l0,0c0.8,0.5,1.3,1.2,1.3,2v25.1c0,0.8-0.5,1.5-1.3,2l-21.3,12.3
									C100.8,71.5,99.9,71.7,99,71.7z M99,18.8c-0.5,0-1.1,0.1-1.4,0.3L76.3,31.5c-0.2,0.1-0.3,0.2-0.3,0.3v25.1
									c0,0,0.1,0.1,0.3,0.3l21.3,12.3c0.7,0.4,2.2,0.4,2.9,0l21.3-12.3c0.2-0.1,0.3-0.2,0.3-0.3V31.8c0,0-0.1-0.1-0.3-0.3l0,0
									l-21.3-12.3C100,19,99.5,18.8,99,18.8z"/>
							</g>
						</g>
					</g>
					<g>
						<g>
							<g>
								<g>
									<g>
										<path class="st5" d="M74.6,18.4l-8.7-5c-1.1-0.6-2.8-0.6-3.9,0l-8.7,5H40V77c0,0.4,0.3,0.8,0.8,1.1l21.3,12.3
											c1.1,0.6,2.8,0.6,3.9,0l21.3-12.3c0.5-0.3,0.8-0.7,0.8-1.1V18.4H74.6z"/>
										<path class="st6" d="M59.1,89.8l-13.8-8V37.2c0-1,0.4-1.8,1.1-2.2c0.6-0.4,1.4-0.3,2.1,0.1L57,40c1.2,0.7,2.2,2.5,2.2,4.1
											L59.1,89.8L59.1,89.8z M47.3,80.7l9.8,5.7V44c0-0.9-0.6-2-1.2-2.3l0,0l-8.5-4.9h-0.1c0,0.1-0.1,0.2-0.1,0.4L47.3,80.7
											L47.3,80.7z"/>
										<path class="st6" d="M65.9,90.4l21.3-12.3c0.5-0.3,0.8-0.7,0.8-1.1V18.4H74.6l-8.7-5c-0.5-0.3-1.2-0.5-1.9-0.5v78
											C64.7,90.9,65.4,90.7,65.9,90.4z"/>
										<g>
											<g>
												<path class="st5" d="M70.2,55.4c-0.3,0-0.5-0.1-0.7-0.3s-0.3-0.4-0.3-0.7s0.1-0.5,0.3-0.7c0.4-0.4,1-0.4,1.4,0
													c0.2,0.2,0.3,0.4,0.3,0.7s-0.1,0.5-0.3,0.7c-0.1,0.1-0.2,0.2-0.3,0.2C70.4,55.4,70.3,55.4,70.2,55.4z"/>
												<path class="st7" d="M74.4,53c-0.3,0-0.7-0.2-0.9-0.5c-0.3-0.5-0.1-1.1,0.4-1.4l8.6-5c0.5-0.3,1.1-0.1,1.4,0.4
													s0.1,1.1-0.4,1.4l-8.6,5C74.7,53,74.5,53,74.4,53z"/>
											</g>
											<g>
												<path class="st5" d="M70.2,63.8c-0.3,0-0.5-0.1-0.7-0.3s-0.3-0.4-0.3-0.7s0.1-0.5,0.3-0.7c0.4-0.4,1-0.4,1.4,0
													c0.2,0.2,0.3,0.4,0.3,0.7s-0.1,0.5-0.3,0.7c-0.1,0.1-0.2,0.2-0.3,0.2C70.4,63.8,70.3,63.8,70.2,63.8z"/>
												<path class="st7" d="M74.4,61.4c-0.3,0-0.7-0.2-0.9-0.5c-0.3-0.5-0.1-1.1,0.4-1.4l8.6-5c0.5-0.3,1.1-0.1,1.4,0.4
													s0.1,1.1-0.4,1.4l-8.6,5C74.7,61.3,74.5,61.4,74.4,61.4z"/>
											</g>
											<g>
												<path class="st5" d="M70.2,72.2c-0.1,0-0.3,0-0.4-0.1s-0.2-0.1-0.3-0.2c-0.1-0.1-0.2-0.2-0.2-0.3
													c-0.1-0.1-0.1-0.2-0.1-0.4c0-0.1,0-0.3,0.1-0.4c0-0.1,0.1-0.2,0.2-0.3c0.1-0.1,0.2-0.2,0.3-0.2c0.2-0.1,0.5-0.1,0.8,0
													c0.1,0,0.2,0.1,0.3,0.2c0.1,0.1,0.2,0.2,0.2,0.3c0,0.1,0.1,0.2,0.1,0.4c0,0.1,0,0.3-0.1,0.4s-0.1,0.2-0.2,0.3
													c-0.1,0.1-0.2,0.2-0.3,0.2C70.4,72.2,70.3,72.2,70.2,72.2z"/>
												<path class="st7" d="M74.4,69.8c-0.3,0-0.7-0.2-0.9-0.5c-0.3-0.5-0.1-1.1,0.4-1.4l8.6-5c0.5-0.3,1.1-0.1,1.4,0.4
													s0.1,1.1-0.4,1.4l-8.6,5C74.7,69.7,74.5,69.8,74.4,69.8z"/>
											</g>
											<g>
												<path class="st5" d="M70.2,80.6c-0.1,0-0.3,0-0.4-0.1s-0.2-0.1-0.3-0.2c-0.1-0.1-0.2-0.2-0.2-0.3
													c-0.1-0.1-0.1-0.2-0.1-0.4s0-0.3,0.1-0.4c0-0.1,0.1-0.2,0.2-0.3c0.1-0.1,0.2-0.2,0.3-0.2c0.2-0.1,0.5-0.1,0.8,0
													c0.1,0.1,0.2,0.1,0.3,0.2c0.1,0.1,0.2,0.2,0.2,0.3c0,0.1,0.1,0.2,0.1,0.4s0,0.3-0.1,0.4s-0.1,0.2-0.2,0.3
													c-0.1,0.1-0.2,0.2-0.3,0.2C70.4,80.5,70.3,80.6,70.2,80.6z"/>
												<path class="st7" d="M74.4,78.2c-0.3,0-0.7-0.2-0.9-0.5c-0.3-0.5-0.1-1.1,0.4-1.4l8.6-5c0.5-0.3,1.1-0.1,1.4,0.4
													s0.1,1.1-0.4,1.4l-8.6,5C74.7,78.1,74.5,78.2,74.4,78.2z"/>
											</g>
										</g>
										<g>
											<path class="st4" d="M87.2,17.2L65.9,5c-1.1-0.6-2.8-0.6-3.9,0L40.8,17.2c-1.1,0.6-1.1,1.6,0,2.2l21.3,12.3
												c1.1,0.6,2.8,0.6,3.9,0l21.3-12.3C88.3,18.9,88.3,17.9,87.2,17.2z"/>
											<path class="st6" d="M64,33.2c-0.9,0-1.7-0.2-2.4-0.6L40.3,20.3c-0.8-0.5-1.3-1.2-1.3-2s0.5-1.5,1.3-2L61.6,4.1
												c1.4-0.8,3.5-0.8,4.9,0l21.3,12.3l0,0c0.8,0.5,1.3,1.2,1.3,2s-0.5,1.5-1.3,2L66.4,32.6C65.7,33,64.9,33.2,64,33.2z
												 M41,18.4c0,0,0.1,0.1,0.3,0.2l21.3,12.3c0.8,0.4,2.1,0.4,2.9,0l21.3-12.3c0.2-0.1,0.3-0.2,0.3-0.3l0,0
												c0,0-0.1-0.1-0.3-0.2L65.4,5.8c-0.8-0.4-2.1-0.4-2.9,0L41.3,18.1C41.1,18.2,41,18.3,41,18.4L41,18.4z"/>
										</g>
										<g>
											<path class="st5" d="M74.4,17.9l-9.5-5.5c-0.5-0.3-1.3-0.3-1.7,0l-9.5,5.5c-0.5,0.3-0.5,0.7,0,1l9.5,5.5
												c0.5,0.3,1.3,0.3,1.7,0l9.5-5.5C74.8,18.6,74.8,18.1,74.4,17.9z"/>
											<path class="st5" d="M64,25.6c-0.5,0-1-0.1-1.4-0.3l-9.5-5.5c-0.5-0.3-0.9-0.8-0.9-1.4s0.3-1.1,0.9-1.4l9.5-5.5
												c0.8-0.5,1.9-0.5,2.7,0l9.5,5.5c0.5,0.3,0.9,0.8,0.9,1.4s-0.3,1.1-0.9,1.4l-9.5,5.5C65,25.4,64.5,25.6,64,25.6z
												 M54.8,18.4l8.9,5.1c0.2,0.1,0.6,0.1,0.7,0l8.9-5.1l-8.9-5.1c-0.2-0.1-0.6-0.1-0.7,0L54.8,18.4z M73.9,18.7L73.9,18.7
												l0.5-0.9L73.9,18.7z"/>
										</g>
									</g>
								</g>
								<path class="st7" d="M64,91.9c-0.9,0-1.8-0.2-2.4-0.6L40.3,79c-0.8-0.5-1.3-1.2-1.3-2V18.4c0-0.8,0.5-1.5,1.3-2L61.6,4.1
									c1.4-0.8,3.5-0.8,4.9,0l21.3,12.3c0.8,0.5,1.3,1.2,1.3,2V77c0,0.8-0.5,1.5-1.3,2L66.4,91.3C65.8,91.7,64.9,91.9,64,91.9z
									 M64,5.5c-0.5,0-1.1,0.1-1.4,0.3L41.3,18.1c-0.2,0.1-0.3,0.2-0.3,0.3V77c0,0,0.1,0.1,0.3,0.3l21.3,12.3
									c0.7,0.4,2.2,0.4,2.9,0l21.3-12.3C86.9,77.1,87,77,87,77V18.4c0,0-0.1-0.1-0.3-0.3l0,0L65.4,5.8C65.1,5.6,64.5,5.5,64,5.5z"
									/>
								<g>
									<path class="st5" d="M70.2,47c-0.3,0-0.5-0.1-0.7-0.3s-0.3-0.4-0.3-0.7c0-0.1,0-0.3,0.1-0.4c0-0.1,0.1-0.2,0.2-0.3
										s0.2-0.2,0.3-0.2c0.2-0.1,0.5-0.1,0.8,0c0.1,0.1,0.2,0.1,0.3,0.2c0.1,0.1,0.2,0.2,0.2,0.3s0.1,0.3,0.1,0.4
										c0,0.3-0.1,0.5-0.3,0.7C70.7,46.9,70.4,47,70.2,47z"/>
									<path class="st7" d="M74.4,44.6c-0.3,0-0.7-0.2-0.9-0.5c-0.3-0.5-0.1-1.1,0.4-1.4l8.6-5c0.5-0.3,1.1-0.1,1.4,0.4
										s0.1,1.1-0.4,1.4l-8.6,5C74.7,44.6,74.5,44.6,74.4,44.6z"/>
								</g>
								<g>
									<path class="st5" d="M70.2,38.6c-0.1,0-0.3,0-0.4-0.1c-0.1,0-0.2-0.1-0.3-0.2c-0.1-0.1-0.2-0.2-0.2-0.3
										c-0.1-0.1-0.1-0.2-0.1-0.4s0-0.3,0.1-0.4c0-0.1,0.1-0.2,0.2-0.3s0.2-0.2,0.3-0.2c0.2-0.1,0.5-0.1,0.8,0
										c0.1,0.1,0.2,0.1,0.3,0.2c0.1,0.1,0.2,0.2,0.2,0.3s0.1,0.2,0.1,0.4s0,0.3-0.1,0.4c-0.1,0.1-0.1,0.2-0.2,0.3
										s-0.2,0.2-0.3,0.2C70.4,38.6,70.3,38.6,70.2,38.6z"/>
									<path class="st7" d="M74.4,36.2c-0.3,0-0.7-0.2-0.9-0.5c-0.3-0.5-0.1-1.1,0.4-1.4l8.6-5c0.5-0.3,1.1-0.1,1.4,0.4
										s0.1,1.1-0.4,1.4l-8.6,5C74.7,36.2,74.5,36.2,74.4,36.2z"/>
								</g>
							</g>
						</g>
					</g>
					<g>
						<g>
							<g>
								<g>
									<g>
										<g>
											<path class="st1" d="M39.6,55.3l-8.7-5c-1.1-0.6-2.8-0.6-3.9,0l-8.7,5H5v41.9c0,0.4,0.3,0.8,0.8,1.1l21.3,12.3
												c1.1,0.6,2.8,0.6,3.9,0l21.3-12.3c0.5-0.3,0.8-0.7,0.8-1.1V55.3H39.6z"/>
											<path class="st2" d="M29,112.1c-0.9,0-1.7-0.2-2.4-0.6L5.3,99.2C4.5,98.7,4,98,4,97.2V55.3c0-0.6,0.4-1,1-1h13.1l8.5-4.9
												c1.4-0.8,3.5-0.8,4.9,0l8.5,4.9h13c0.6,0,1,0.4,1,1v41.9c0,0.8-0.5,1.5-1.3,2l-21.3,12.3C30.8,111.9,29.9,112.1,29,112.1
												z M6,56.3v40.9c0,0,0.1,0.1,0.3,0.3l21.3,12.3c0.8,0.4,2.1,0.4,2.9,0l21.3-12.3c0.2-0.1,0.3-0.2,0.3-0.3V56.3H39.6
												c-0.2,0-0.3,0-0.5-0.1l-8.7-5c-0.8-0.4-2.1-0.4-2.9,0l-8.7,5c-0.2,0.1-0.3,0.1-0.5,0.1C18.3,56.3,6,56.3,6,56.3z"/>
										</g>
										<path class="st2" d="M23.1,109.3c-0.2,0-0.3,0-0.5-0.1l-11.8-6.8c-0.3-0.2-0.5-0.5-0.5-0.9V74.2c0-1,0.4-1.8,1.1-2.2
											c0.6-0.4,1.4-0.3,2.1,0.1L22,77l0,0c1.2,0.7,2.2,2.5,2.2,4.1v27.3c0,0.4-0.2,0.7-0.5,0.9
											C23.4,109.3,23.3,109.3,23.1,109.3z M12.3,100.9l9.8,5.7V81c0-0.9-0.6-2-1.2-2.3l0,0l-8.5-4.9h-0.1c0,0.1-0.1,0.2-0.1,0.4
											v26.7H12.3z"/>
										<path class="st2" d="M30.9,110.6l21.3-12.3c0.5-0.3,0.8-0.7,0.8-1.1V55.3H39.6l-8.7-5c-0.5-0.3-1.2-0.5-1.9-0.5V111
											C29.7,111.1,30.4,110.9,30.9,110.6z"/>
										<g>
											<g>
												<path class="st1" d="M35.2,100.8c-0.3,0-0.5-0.1-0.7-0.3c-0.2-0.2-0.3-0.4-0.3-0.7c0-0.1,0-0.3,0.1-0.4
													c0-0.1,0.1-0.2,0.2-0.3c0.4-0.4,1-0.4,1.4,0c0.2,0.2,0.3,0.4,0.3,0.7c0,0.1,0,0.1,0,0.2s0,0.1-0.1,0.2
													c0,0.1,0,0.1-0.1,0.2c0,0.1-0.1,0.1-0.1,0.2C35.7,100.7,35.5,100.8,35.2,100.8z"/>
												<path class="st3" d="M39.4,98.4c-0.3,0-0.7-0.2-0.9-0.5c-0.3-0.5-0.1-1.1,0.4-1.4l8.6-5c0.5-0.3,1.1-0.1,1.4,0.4
													c0.3,0.5,0.1,1.1-0.4,1.4l-8.6,5C39.7,98.3,39.5,98.4,39.4,98.4z"/>
											</g>
											<g>
												<path class="st1" d="M35.2,92.4c-0.3,0-0.5-0.1-0.7-0.3c-0.2-0.2-0.3-0.4-0.3-0.7c0-0.1,0-0.3,0.1-0.4
													c0-0.1,0.1-0.2,0.2-0.3c0.4-0.4,1-0.4,1.4,0c0.2,0.2,0.3,0.4,0.3,0.7c0,0.1,0,0.1,0,0.2s0,0.1-0.1,0.2
													c0,0.1,0,0.1-0.1,0.2c0,0.1-0.1,0.1-0.1,0.2C35.7,92.3,35.5,92.4,35.2,92.4z"/>
												<path class="st3" d="M39.4,90c-0.3,0-0.7-0.2-0.9-0.5c-0.3-0.5-0.1-1.1,0.4-1.4l8.6-5c0.5-0.3,1.1-0.1,1.4,0.4
													c0.3,0.5,0.1,1.1-0.4,1.4l-8.6,5C39.7,89.9,39.5,90,39.4,90z"/>
											</g>
											<g>
												<path class="st1" d="M35.2,84c-0.3,0-0.5-0.1-0.7-0.3c-0.2-0.2-0.3-0.4-0.3-0.7c0-0.1,0-0.3,0.1-0.4
													c0-0.1,0.1-0.2,0.2-0.3c0.4-0.4,1-0.4,1.4,0c0.2,0.2,0.3,0.4,0.3,0.7c0,0.1,0,0.1,0,0.2s0,0.1-0.1,0.2
													c0,0.1,0,0.1-0.1,0.2c0,0.1-0.1,0.1-0.1,0.2C35.7,83.9,35.5,84,35.2,84z"/>
												<path class="st3" d="M39.4,81.6c-0.3,0-0.7-0.2-0.9-0.5c-0.3-0.5-0.1-1.1,0.4-1.4l8.6-5c0.5-0.3,1.1-0.1,1.4,0.4
													c0.3,0.5,0.1,1.1-0.4,1.4l-8.6,5C39.7,81.6,39.5,81.6,39.4,81.6z"/>
											</g>
										</g>
										<g>
											<path class="st4" d="M52.2,54.2L30.9,41.9c-1.1-0.6-2.8-0.6-3.9,0L5.8,54.2c-1.1,0.6-1.1,1.6,0,2.2l21.3,12.3
												c1.1,0.6,2.8,0.6,3.9,0l21.3-12.3C53.3,55.8,53.3,54.8,52.2,54.2z"/>
											<path class="st2" d="M29,70.2c-0.9,0-1.7-0.2-2.4-0.6L5.3,57.3c-0.8-0.5-1.3-1.2-1.3-2s0.5-1.5,1.3-2L26.6,41
												c1.4-0.8,3.5-0.8,4.9,0l21.3,12.3c0.8,0.5,1.3,1.2,1.3,2s-0.5,1.5-1.3,2L31.4,69.6C30.8,70,29.9,70.2,29,70.2z M6,55.4
												c0,0,0.1,0.1,0.3,0.2l21.3,12.3c0.8,0.4,2.1,0.4,2.9,0l21.3-12.3c0.2-0.1,0.3-0.2,0.3-0.3l0,0c0,0-0.1-0.1-0.3-0.2l0,0
												L30.4,42.8c-0.8-0.4-2.1-0.4-2.9,0L6.3,55.1C6.1,55.2,6,55.3,6,55.4L6,55.4z"/>
										</g>
										<path class="st1" d="M29,62.5c-0.5,0-1-0.1-1.4-0.3l-9.5-5.5c-0.5-0.3-0.9-0.8-0.9-1.4c0-0.6,0.3-1.1,0.9-1.4l9.5-5.5
											c0.8-0.5,1.9-0.5,2.7,0l9.5,5.5l0,0c0.5,0.3,0.9,0.8,0.9,1.4c0,0.6-0.3,1.1-0.9,1.4l-9.5,5.5C30,62.4,29.5,62.5,29,62.5z
											 M19.8,55.3l8.9,5.1c0.2,0.1,0.6,0.1,0.7,0l8.9-5.1l-8.9-5.1c-0.2-0.1-0.6-0.1-0.7,0L19.8,55.3z M38.9,55.7L38.9,55.7
											l0.5-0.9L38.9,55.7z"/>
										<path class="st1" d="M28.1,61.3c0.5,0.3,1.3,0.3,1.7,0l9.5-5.5c0.5-0.3,0.5-0.7,0-1l-5.8-3.3L22.4,58L28.1,61.3z"/>
									</g>
								</g>
								<path class="st3" d="M29,112.1c-0.9,0-1.8-0.2-2.4-0.6L5.3,99.2C4.5,98.7,4,98,4,97.2V55.3c0-0.8,0.5-1.5,1.3-2L26.6,41
									c1.4-0.8,3.5-0.8,4.9,0l21.3,12.3l0,0c0.8,0.5,1.3,1.2,1.3,2v41.9c0,0.8-0.5,1.5-1.3,2l-21.3,12.3
									C30.8,111.9,29.9,112.1,29,112.1z M29,42.5c-0.5,0-1.1,0.1-1.4,0.3L6.3,55.1C6.1,55.2,6,55.3,6,55.4v41.9
									c0,0,0.1,0.1,0.3,0.3l21.3,12.3c0.7,0.4,2.2,0.4,2.9,0l21.3-12.3c0.2-0.1,0.3-0.2,0.3-0.3V55.4c0,0-0.1-0.1-0.3-0.3l0,0
									L30.4,42.8C30.1,42.6,29.5,42.5,29,42.5z"/>
								<g>
									<path class="st1" d="M35.2,75.6c-0.1,0-0.3,0-0.4-0.1c-0.1-0.1-0.2-0.1-0.3-0.2s-0.2-0.2-0.2-0.3c-0.1-0.1-0.1-0.2-0.1-0.4
										c0-0.1,0-0.3,0.1-0.4c0-0.1,0.1-0.2,0.2-0.3c0.4-0.4,1-0.4,1.4,0c0.2,0.2,0.3,0.4,0.3,0.7c0,0.3-0.1,0.5-0.3,0.7
										C35.7,75.5,35.5,75.6,35.2,75.6z"/>
									<path class="st3" d="M39.4,73.2c-0.3,0-0.7-0.2-0.9-0.5c-0.3-0.5-0.1-1.1,0.4-1.4l8.6-5c0.5-0.3,1.1-0.1,1.4,0.4
										c0.3,0.5,0.1,1.1-0.4,1.4l-8.6,5C39.7,73.2,39.5,73.2,39.4,73.2z"/>
								</g>
							</g>
						</g>
					</g>
				</g>
			</g>
		</g>
	</g>
	<g>
		<rect class="st0" width="128" height="128"/>
	</g>
</g>
</svg>
