<?xml version="1.0" encoding="utf-8"?>
<!-- Generator: Adobe Illustrator 24.1.0, SVG Export Plug-In . SVG Version: 6.00 Build 0)  -->
<svg version="1.1" id="Layer_1" xmlns="http://www.w3.org/2000/svg" xmlns:xlink="http://www.w3.org/1999/xlink" x="0px" y="0px"
	 viewBox="0 0 128 128" style="enable-background:new 0 0 128 128;" xml:space="preserve">
<style type="text/css">
	.st0{fill:#C4D7D3;}
	.st1{fill:#185849;}
	.st2{fill:#FFFFFF;}
	.st3{fill:#27ae60;}
	.st4{fill:#0E352C;}
	.st5{fill:#4D9987;}
	.st6{fill:#E9EBDF;}
	.st7{fill:none;}
</style>
<g id="Layer_1_1_">
</g>
<g>
	<g id="Layer_2_1_">
		<g id="Tech_Concepts_1_">
			<g>
				<g>
					<g>
						<g>
							<g>
								<path class="st0" d="M110.6,96.4c0.8-0.4,0.8-1.5,0.1-2L67.2,65c-1.4-0.9-2.4-3-2.4-4.8c0-1,0.3-1.8,0.9-2.1l0,0l-48,27.8
									l0,0c-0.5,0.3-0.9,1.1-0.9,2.1c0,1.8,1.1,3.9,2.4,4.8l44.5,30c0.4,0.3,0.9,0.3,1.3,0l4.5-2.6c0.5-0.3,1.2-0.3,1.7,0l4.7,2.4
									c0.5,0.3,1.2,0.3,1.7,0l13.9-8c1.1-0.6,1.2-2.1,0.3-2.9l-1-0.9c-0.9-0.8-0.8-2.3,0.3-2.9L110.6,96.4z"/>
								<path class="st1" d="M64.4,124c-0.4,0-0.9-0.1-1.2-0.4l-44.5-30c-1.6-1.1-2.8-3.5-2.8-5.7c0-1.3,0.5-2.4,1.3-2.9l48-27.8
									c0.5-0.3,1.1-0.1,1.4,0.4s0.1,1.1-0.4,1.4c-0.2,0.1-0.4,0.6-0.4,1.2c0,1.5,0.9,3.3,2,4l43.5,29.3c0.6,0.4,1,1.1,1,1.9
									s-0.4,1.4-1.1,1.8l-19.6,11.4c-0.2,0.1-0.4,0.4-0.4,0.6c0,0.3,0.1,0.5,0.3,0.7l1,0.9c0.7,0.6,1,1.5,0.9,2.4
									s-0.6,1.7-1.4,2.1l-13.9,8c-0.8,0.5-1.8,0.5-2.7,0.1l-4.7-2.4c-0.2-0.1-0.5-0.1-0.8,0l-4.5,2.6
									C65.1,123.9,64.7,124,64.4,124z M63.8,60.3L18.2,86.7c-0.2,0.1-0.4,0.5-0.4,1.2c0,1.5,0.9,3.3,2,4l44.5,30
									c0.1,0,0.1,0,0.2,0l4.5-2.6c0.8-0.5,1.8-0.5,2.7-0.1l4.7,2.4c0.2,0.1,0.5,0.1,0.8,0l13.9-8c0.2-0.1,0.4-0.4,0.4-0.6
									c0-0.3-0.1-0.5-0.3-0.7l-1-0.9c-0.7-0.6-1-1.5-0.9-2.4s0.6-1.7,1.4-2.1l19.6-11.4l0,0c0.1,0,0.1-0.1,0.1-0.2
									c0,0,0-0.1-0.1-0.2L66.6,65.8C65,64.7,63.8,62.4,63.8,60.3z"/>
								<g>
									<path class="st2" d="M64.9,107.3l45.5-26.4c0.8-0.5,0.8-1.7-0.1-2.1L67.2,58.1c-0.6-0.3-1.1-0.3-1.5,0l0,0l-48,27.8l0,0
										c0.4-0.3,0.9-0.3,1.5,0l44.5,21.4C64.1,107.5,64.5,107.5,64.9,107.3z"/>
									<path class="st3" d="M64.3,108.4c-0.3,0-0.7-0.1-1-0.2L18.8,86.8c-0.1-0.1-0.4-0.2-0.6-0.1l0,0l0,0l0,0
										c-0.5,0.3-1.1,0.1-1.4-0.3c-0.3-0.5-0.1-1.1,0.3-1.4c0,0,0.1,0,0.1-0.1l47.9-27.8c0.7-0.4,1.6-0.4,2.5,0l43.1,20.7
										c0.7,0.4,1.2,1.1,1.2,1.9s-0.4,1.6-1.1,2l-45.5,26.4C65,108.3,64.6,108.4,64.3,108.4z M20.5,85.4l43.7,21
										c0.1,0,0.1,0,0.2,0l0,0L109.8,80c0.1,0,0.1-0.1,0.1-0.2s0-0.1-0.1-0.2L66.7,59c-0.1-0.1-0.4-0.2-0.6-0.1l0,0l0,0l0,0
										L20.5,85.4z"/>
								</g>
								<path class="st1" d="M64.4,124c-0.4,0-0.9-0.1-1.2-0.4l-44.5-30c-1.6-1.1-2.8-3.5-2.8-5.7c0-1.3,0.5-2.4,1.3-2.9l48-27.8
									c0.7-0.4,1.6-0.4,2.5,0l43.1,20.7c0.7,0.4,1.2,1.1,1.2,1.9s-0.4,1.6-1.1,2l-9.1,5.3l9.6,6.4c0.6,0.4,1,1.1,1,1.9
									s-0.4,1.4-1.1,1.8l-19.6,11.4c-0.2,0.1-0.4,0.4-0.4,0.6s0.1,0.5,0.3,0.7l1,0.9c0.7,0.6,1,1.5,0.9,2.4s-0.6,1.7-1.4,2.1
									l-13.9,8c-0.8,0.5-1.8,0.5-2.7,0.1l-4.7-2.4c-0.2-0.1-0.5-0.1-0.8,0l-4.5,2.6C65.1,123.9,64.7,124,64.4,124z M66.1,58.9
									l-48,27.8c-0.2,0.1-0.4,0.5-0.4,1.2c0,1.5,0.9,3.3,2,4l44.5,30c0.1,0,0.1,0,0.2,0l4.5-2.6c0.8-0.5,1.8-0.5,2.7-0.1l4.7,2.4
									c0.2,0.1,0.5,0.1,0.8,0l13.9-8c0.2-0.1,0.4-0.4,0.4-0.6s-0.1-0.5-0.3-0.7l-1-0.9c-0.7-0.6-1-1.5-0.9-2.4s0.6-1.7,1.4-2.1
									l19.6-11.4c0.1,0,0.1-0.1,0.1-0.2c0,0,0-0.1-0.1-0.2l0,0l-10.9-7.3c-0.3-0.2-0.5-0.5-0.4-0.9c0-0.3,0.2-0.7,0.5-0.8
									l10.5-6.1c0.1,0,0.1-0.1,0.1-0.2s0-0.1-0.1-0.2L66.7,59C66.6,58.9,66.3,58.8,66.1,58.9C66.2,58.9,66.1,58.9,66.1,58.9
									L66.1,58.9L66.1,58.9z"/>
							</g>
						</g>
					</g>
					<g>
						<g>
							<path class="st1" d="M92.7,53.6c-0.3,0-0.5-0.1-0.7-0.3c-0.1-0.1-0.2-0.2-0.2-0.3s-0.1-0.2-0.1-0.4c0-0.1,0-0.3,0.1-0.4
								c0-0.1,0.1-0.2,0.2-0.3c0.2-0.2,0.6-0.4,0.9-0.3c0.1,0,0.1,0,0.2,0.1c0.1,0,0.1,0.1,0.2,0.1s0.1,0.1,0.1,0.1
								c0.1,0.1,0.2,0.2,0.2,0.3s0.1,0.2,0.1,0.4c0,0.1,0,0.3-0.1,0.4c-0.1,0.1-0.1,0.2-0.2,0.3s-0.2,0.2-0.3,0.2
								S92.9,53.6,92.7,53.6z"/>
							<path class="st1" d="M91.7,76.2c0-0.6,0.4-1,1-1l0,0c0.5,0,1,0.4,1,1l0,0c0,0.5-0.5,1-1,1l0,0C92.2,77.2,91.7,76.8,91.7,76.2
								z M91.7,70.3c0-0.5,0.4-1,1-1l0,0c0.5,0,1,0.5,1,1l0,0c0,0.6-0.5,1-1,1l0,0C92.2,71.3,91.7,70.9,91.7,70.3z M91.7,64.4
								c0-0.5,0.4-1,1-1l0,0c0.5,0,1,0.5,1,1l0,0c0,0.5-0.5,1-1,1l0,0C92.2,65.4,91.7,65,91.7,64.4z M91.7,58.5c0-0.5,0.4-1,1-1l0,0
								c0.5,0,1,0.5,1,1l0,0c0,0.5-0.5,1-1,1l0,0C92.2,59.5,91.7,59.1,91.7,58.5z"/>
							<path class="st1" d="M92.7,83.1c-0.1,0-0.3,0-0.4-0.1s-0.2-0.1-0.3-0.2c-0.2-0.2-0.3-0.4-0.3-0.7c0-0.1,0-0.3,0.1-0.4
								c0-0.1,0.1-0.2,0.2-0.3c0.1-0.1,0.2-0.2,0.3-0.2c0.2-0.1,0.4-0.1,0.6-0.1c0.1,0,0.1,0,0.2,0.1c0.1,0,0.1,0.1,0.2,0.1
								s0.1,0.1,0.1,0.1c0.2,0.2,0.3,0.4,0.3,0.7c0,0.3-0.1,0.5-0.3,0.7c-0.1,0.1-0.2,0.2-0.3,0.2C93,83.1,92.9,83.1,92.7,83.1z"/>
						</g>
						<g>
							<path class="st4" d="M42.3,55.2c-0.3,0-0.5-0.1-0.7-0.3s-0.3-0.4-0.3-0.7s0.1-0.5,0.3-0.7c0.3-0.3,0.7-0.4,1.1-0.2
								c0.1,0,0.2,0.1,0.3,0.2c0.2,0.2,0.3,0.4,0.3,0.7s-0.1,0.5-0.3,0.7C42.8,55.1,42.6,55.2,42.3,55.2z"/>
							<path class="st4" d="M41.3,77.4c0-0.6,0.4-1,1-1l0,0c0.5,0,1,0.4,1,1l0,0c0,0.5-0.5,1-1,1l0,0C41.8,78.4,41.3,77.9,41.3,77.4
								z M41.3,71.6c0-0.6,0.4-1,1-1l0,0c0.5,0,1,0.4,1,1l0,0c0,0.5-0.5,1-1,1l0,0C41.8,72.6,41.3,72.1,41.3,71.6z M41.3,65.8
								c0-0.6,0.4-1,1-1l0,0c0.5,0,1,0.4,1,1l0,0c0,0.5-0.5,1-1,1l0,0C41.8,66.8,41.3,66.3,41.3,65.8z M41.3,60c0-0.6,0.4-1,1-1l0,0
								c0.5,0,1,0.5,1,1l0,0c0,0.5-0.5,1-1,1l0,0C41.8,61,41.3,60.6,41.3,60z"/>
							<path class="st4" d="M42.3,84.2c-0.1,0-0.3,0-0.4-0.1s-0.2-0.1-0.3-0.2s-0.2-0.2-0.2-0.3c0-0.1-0.1-0.2-0.1-0.4
								s0-0.3,0.1-0.4s0.1-0.2,0.2-0.3l0.1-0.1c0.1,0,0.1-0.1,0.2-0.1c0.1,0,0.1,0,0.2,0c0.3-0.1,0.7,0,0.9,0.3
								c0.2,0.2,0.3,0.5,0.3,0.7c0,0.1,0,0.3-0.1,0.4S43.1,83.9,43,84c-0.1,0.1-0.2,0.2-0.3,0.2S42.5,84.2,42.3,84.2z"/>
						</g>
						<g>
							<path class="st2" d="M67.5,33.3l-12.2-7.1c-0.2-0.1-0.6-0.1-0.8,0l-12.2,7.1l12.2,7.1c0.2,0.1,0.6,0.1,0.8,0L67.5,33.3z"/>
							<g>
								<path class="st5" d="M54.9,54.3c0.1,0,0.3,0,0.4-0.1l12.2-7V33.3l-12.2,7c-0.1,0.1-0.3,0.1-0.4,0.1"/>
								<path class="st5" d="M54.9,55.3c-0.6,0-1-0.4-1-1c0-0.5,0.4-1,1-1l11.7-6.7V35l-10.7,6.2c-0.3,0.2-0.6,0.2-0.9,0.2
									c-0.6,0-1-0.4-1-1s0.4-1,1-1l12.1-7c0.3-0.2,0.7-0.2,1,0s0.5,0.5,0.5,0.9v13.8c0,0.4-0.2,0.7-0.5,0.9l-12.2,7
									C55.6,55.2,55.2,55.3,54.9,55.3z"/>
							</g>
							<path class="st6" d="M54.9,40.4c-0.1,0-0.3,0-0.4-0.1l-12.2-7v13.8l12.2,7c0.1,0.1,0.3,0.1,0.4,0.1"/>
							<path class="st5" d="M54.9,41.4c-0.3,0-0.6-0.1-0.9-0.2l-12.2-7.1c-0.3-0.2-0.5-0.5-0.5-0.9s0.2-0.7,0.5-0.9L54,25.4
								c0.5-0.3,1.2-0.3,1.8,0l12.2,7c0.3,0.2,0.5,0.5,0.5,0.9S68.3,34,68,34.1l-12.2,7.1C55.6,41.3,55.2,41.4,54.9,41.4z
								 M44.3,33.3l10.6,6.1l10.6-6.1l-10.6-6.1L44.3,33.3z"/>
							<path class="st5" d="M54.9,55.3c-0.6,0-1-0.4-1-1V40.4c0-0.6,0.4-1,1-1s1,0.4,1,1v13.8C55.9,54.8,55.5,55.3,54.9,55.3z"/>
							<path class="st4" d="M54.9,55.3c-0.3,0-0.6-0.1-0.9-0.2l-12.2-7c-0.3-0.2-0.5-0.5-0.5-0.9V33.3c0-0.4,0.2-0.7,0.5-0.9l12.2-7
								c0.5-0.3,1.2-0.3,1.8,0l0,0l12.2,7c0.3,0.2,0.5,0.5,0.5,0.9v13.8c0,0.4-0.2,0.7-0.5,0.9l-12.2,7
								C55.6,55.2,55.2,55.3,54.9,55.3z M43.3,46.5l11.6,6.7l11.6-6.7V33.8l-11.6-6.7l-11.6,6.7C43.3,33.8,43.3,46.5,43.3,46.5z
								 M54.8,27.1L54.8,27.1L54.8,27.1z"/>
						</g>
						<g>
							<path class="st2" d="M92.7,33.3l-12.2-7.1c-0.2-0.1-0.6-0.1-0.8,0l-12.2,7.1l12.2,7.1c0.2,0.1,0.6,0.1,0.8,0L92.7,33.3z"/>
							<g>
								<path class="st5" d="M80.1,54.3c0.1,0,0.3,0,0.4-0.1l12.2-7V33.3l-12.2,7c-0.1,0.1-0.3,0.1-0.4,0.1"/>
								<path class="st5" d="M80.1,55.3c-0.6,0-1-0.4-1-1c0-0.5,0.4-1,1-1l11.7-6.7V35L81,41.2c-0.3,0.2-0.6,0.2-0.9,0.2
									c-0.6,0-1-0.4-1-1s0.4-1,1-1l12.1-7c0.3-0.2,0.7-0.2,1,0s0.5,0.5,0.5,0.9v13.8c0,0.4-0.2,0.7-0.5,0.9L81,55
									C80.8,55.2,80.5,55.3,80.1,55.3z"/>
							</g>
							<path class="st6" d="M80.1,40.4c-0.1,0-0.3,0-0.4-0.1l-12.2-7v13.8l12.2,7c0.1,0.1,0.3,0.1,0.4,0.1"/>
							<path class="st5" d="M80.1,41.4c-0.3,0-0.6-0.1-0.9-0.2L67,34.1c-0.3-0.2-0.5-0.5-0.5-0.9s0.2-0.7,0.5-0.9l12.2-7.1
								c0.5-0.3,1.2-0.3,1.8,0l12.2,7.1c0.3,0.2,0.5,0.5,0.5,0.9s-0.2,0.7-0.5,0.9L81,41.2C80.8,41.3,80.4,41.4,80.1,41.4z
								 M69.5,33.3l10.6,6.1l10.6-6.1l-10.6-6.1L69.5,33.3z"/>
							<path class="st5" d="M80.1,55.3c-0.6,0-1-0.4-1-1V40.4c0-0.6,0.4-1,1-1s1,0.4,1,1v13.8C81.1,54.8,80.7,55.3,80.1,55.3z"/>
							<path class="st4" d="M80.1,55.3c-0.3,0-0.6-0.1-0.9-0.2L67,48c-0.3-0.2-0.5-0.5-0.5-0.9V33.3c0-0.4,0.2-0.7,0.5-0.9l12.2-7.1
								c0.5-0.3,1.2-0.3,1.8,0l0,0l12.2,7.1c0.3,0.2,0.5,0.5,0.5,0.9v13.8c0,0.4-0.2,0.7-0.5,0.9L81,55
								C80.8,55.2,80.4,55.3,80.1,55.3z M68.5,46.5l11.6,6.7l11.6-6.7V33.8l-11.6-6.7l-11.6,6.7V46.5z"/>
						</g>
						<g>
							<path class="st6" d="M67.5,19.3c-0.1,0-0.3,0-0.4-0.1l-12.2-7V26l12.2,7c0.1,0.1,0.3,0.1,0.4,0.1"/>
							<g>
								<path class="st5" d="M67.5,33.1c0.1,0,0.3,0,0.4-0.1l12.2-7V12.1l-12.2,7c-0.1,0.1-0.3,0.1-0.4,0.1V33.1z"/>
								<path class="st5" d="M67.5,34.1c-0.6,0-1-0.4-1-1V19.3c0-0.6,0.4-1,1-1l12.1-7c0.3-0.2,0.7-0.2,1,0s0.5,0.5,0.5,0.9V26
									c0,0.4-0.2,0.7-0.5,0.9l-12.2,7C68.2,34.1,67.8,34.1,67.5,34.1z M68.5,20v11.5l10.6-6.1V13.9L68.5,20z"/>
							</g>
							<g>
								<path class="st2" d="M80.1,12.1l-12.2-7c-0.2-0.1-0.6-0.1-0.8,0l-12.2,7.1l12.2,7.1c0.2,0.1,0.6,0.1,0.8,0L80.1,12.1z"/>
								<path class="st5" d="M67.5,20.3c-0.3,0-0.6-0.1-0.9-0.2L54.4,13c-0.3-0.2-0.5-0.5-0.5-0.9s0.2-0.7,0.5-0.9l12.2-7.1
									c0.5-0.3,1.2-0.3,1.8,0l12.2,7.1c0.3,0.2,0.5,0.5,0.5,0.9s-0.2,0.7-0.5,0.9l-12.2,7.1C68.2,20.2,67.8,20.3,67.5,20.3z
									 M56.9,12.1l10.6,6.1l10.6-6.1L67.5,6L56.9,12.1z"/>
							</g>
							<path class="st4" d="M67.5,34.1c-0.3,0-0.6-0.1-0.9-0.2l-12.2-7c-0.3-0.2-0.5-0.5-0.5-0.9V12.1c0-0.4,0.2-0.7,0.5-0.9
								l12.2-7.1c0.5-0.3,1.2-0.3,1.8,0l12.2,7.1c0.3,0.2,0.5,0.5,0.5,0.9V26c0,0.4-0.2,0.7-0.5,0.9l-12.2,7
								C68.2,34.1,67.8,34.1,67.5,34.1z M55.9,25.4l11.6,6.7l11.6-6.7V12.7L67.5,6l-11.6,6.7V25.4z M67.4,6L67.4,6L67.4,6L67.4,6z
								 M67.6,6L67.6,6L67.6,6z"/>
						</g>
					</g>
					<path class="st5" d="M80.6,90.1c-0.2,0-0.3,0-0.4-0.1l-13.1-6.5c-0.3-0.2-0.5-0.5-0.6-0.9c0-0.4,0.2-0.7,0.5-0.9l12.1-7
						c0.3-0.2,0.6-0.2,0.9,0l13.1,6.5c0.3,0.2,0.5,0.5,0.6,0.9c0,0.4-0.2,0.7-0.5,0.9l-12.1,7C80.9,90.1,80.8,90.1,80.6,90.1z
						 M69.6,82.6l11,5.4l10.1-5.8l-10.9-5.4L69.6,82.6z"/>
					<path class="st5" d="M67.5,83.6c-0.2,0-0.3,0-0.4-0.1L54,77.1c-0.3-0.2-0.5-0.5-0.6-0.9c0-0.4,0.2-0.7,0.5-0.9l12.1-7
						c0.3-0.2,0.6-0.2,0.9,0L80,74.8c0.3,0.2,0.5,0.5,0.6,0.9c0,0.4-0.2,0.7-0.5,0.9l-12.1,7C67.9,83.6,67.7,83.6,67.5,83.6z
						 M56.6,76.1l10.9,5.4l10.1-5.8l-10.9-5.4L56.6,76.1z"/>
					<path class="st5" d="M55.4,90.6c-0.2,0-0.3,0-0.4-0.1L41.9,84c-0.3-0.2-0.5-0.5-0.6-0.9c0-0.4,0.2-0.7,0.5-0.9l12.1-7
						c0.3-0.2,0.6-0.2,0.9,0L68,81.7c0.3,0.2,0.5,0.5,0.6,0.9c0,0.4-0.2,0.7-0.5,0.9l-12.1,7C55.7,90.6,55.6,90.6,55.4,90.6z
						 M44.4,83.1l10.9,5.4l10.1-5.8l-10.9-5.4L44.4,83.1z"/>
				</g>
				<rect x="4" y="4" class="st7" width="120" height="120"/>
				<rect x="4" y="4" class="st7" width="120" height="120"/>
			</g>
		</g>
	</g>
	<g>
		<rect class="st7" width="128" height="128"/>
	</g>
</g>
</svg>
