<?xml version="1.0" encoding="utf-8"?>
<!-- Generator: Adobe Illustrator 24.1.0, SVG Export Plug-In . SVG Version: 6.00 Build 0)  -->
<svg version="1.1" id="Layer_1" xmlns="http://www.w3.org/2000/svg" xmlns:xlink="http://www.w3.org/1999/xlink" x="0px" y="0px"
	 viewBox="0 0 128 128" style="enable-background:new 0 0 128 128;" xml:space="preserve">
<style type="text/css">
	.st0{fill:#FFFFFF;}
	.st1{fill:#4D9987;}
	.st2{fill:#E9EBDF;}
	.st3{fill:#0E352C;}
	.st4{fill:none;}
</style>
<g id="Layer_1_1_">
</g>
<g>
	<g id="Layer_2_1_">
		<g id="Actions_1_">
			<g>
				<g>
					<g>
						<path class="st0" d="M107,36.6c0.4,0,4.1-18.1,4.1-18.1l-16-9.2l0,0c-0.2-0.1-0.4-0.2-0.7-0.3c-1.2-0.2-2.8,0.5-4.1,2.1
							L40.8,70.5l1.5-4.7l-15.3-9l0,0c-0.2-0.1-0.4-0.2-0.7-0.3c-1.2-0.2-2.8,0.5-4.1,2.1l-8,9.5c-1.1,1.3-1.9,2.9-2.3,4.6
							c-0.4,1.7-0.3,3.3,0.1,4.4L25.5,108c0.3,0.6,0.6,1,1.1,1.3l0,0l16,9.2l-0.5-19.9l53.5-64.1C100.4,35.5,106.8,36.6,107,36.6z"
							/>
						<path class="st1" d="M42.7,119.7c-0.2,0-0.3,0-0.5-0.1l-16-9.2c-0.1,0-0.1-0.1-0.2-0.1c-0.6-0.4-1-0.9-1.4-1.7L11.2,77.7
							c-0.6-1.3-0.7-3.1-0.2-5c0.4-1.9,1.3-3.6,2.5-5l8-9.5c1.5-1.8,3.4-2.8,5-2.4c0.3,0.1,0.5,0.1,0.8,0.3c0.1,0,0.1,0,0.2,0.1
							l15.3,9c0.4,0.2,0.6,0.6,0.5,1l46.3-55.5c1.5-1.8,3.4-2.8,5-2.5c0.3,0.1,0.5,0.1,0.8,0.3c0.1,0,0.1,0,0.2,0.1l16,9.2
							c0.4,0.2,0.6,0.6,0.5,1.1c-3.9,18.9-4,18.9-5.1,18.9c-0.1,0-0.4,0-10.9-1.8L43.2,99.2l0.5,19.5c0,0.4-0.2,0.7-0.5,0.9
							C43.1,119.7,42.9,119.7,42.7,119.7z M27.4,108.7l14.3,8.3l-0.5-18.1c0-0.2,0.1-0.5,0.2-0.7L95,34c0.2-0.3,0.6-0.4,0.9-0.3
							c5.2,0.9,8.9,1.6,10.4,1.8c0.7-2.4,2.4-10.8,3.6-16.5l-15.2-8.8c-0.1,0-0.1,0-0.2-0.1s-0.3-0.1-0.4-0.2
							c-0.9-0.2-2.1,0.5-3.1,1.8L41.6,71.2c-0.3,0.4-0.8,0.5-1.2,0.2c-0.4-0.2-0.6-0.7-0.5-1.2l1.2-3.9l-14.5-8.5
							c-0.1,0-0.1,0-0.2-0.1s-0.3-0.1-0.4-0.2c-0.9-0.2-2.1,0.5-3.1,1.8l-8,9.5c-1,1.2-1.7,2.7-2.1,4.2c-0.3,1.5-0.3,2.9,0.1,3.8
							l13.5,30.9c0.2,0.4,0.4,0.7,0.7,0.8C27.3,108.6,27.3,108.6,27.4,108.7z M107.1,35.6L107.1,35.6L107.1,35.6z"/>
					</g>
					<path class="st2" d="M12,72.6c0,0.1,0,0.2-0.1,0.2c-0.4,1.7-0.3,3.3,0.1,4.4l13.5,30.9c0.3,0.6,0.6,1,1.1,1.3l0,0l16,9.2
						l-0.5-19.9l4.9-5.9L12,72.6z"/>
					<g>
						<path class="st1" d="M43.4,119c-0.8-0.2-1.4-0.7-1.8-1.6L28.1,86.5c-0.5-1.1-0.5-2.7-0.1-4.4c0.4-1.7,1.2-3.4,2.3-4.6l8-9.5
							c1.3-1.6,2.8-2.3,4.1-2.1c0.8,0.2,1.4,0.7,1.8,1.6l7.8,18l54.3-65.2c1.3-1.6,2.8-2.3,4.1-2.1c0.8,0.2,1.4,0.7,1.8,1.6l3.7,8.5
							c0.5,1.1,0.5,2.7,0.1,4.4s-1.2,3.4-2.3,4.6l-66.3,79.5C46.2,118.4,44.7,119.2,43.4,119z"/>
						<path class="st2" d="M43.9,120c-0.2,0-0.4,0-0.7-0.1l0,0c-1.1-0.2-2-1-2.5-2.2L27.2,86.9c-0.6-1.3-0.7-3.1-0.2-5
							c0.4-1.9,1.3-3.6,2.5-5l8-9.5c1.6-1.9,3.4-2.8,5-2.4c1.1,0.2,2,1,2.5,2.2l7.3,16.6l53.3-63.9c1.5-1.8,3.4-2.8,5-2.5
							c1.1,0.2,2,1,2.5,2.2l3.7,8.5c0.6,1.3,0.7,3.1,0.2,5c-0.4,1.9-1.3,3.6-2.5,5l-66.3,79.5C46.9,119.1,45.3,120,43.9,120z
							 M41.8,66.8c-0.8,0-1.9,0.7-2.8,1.8l-8,9.5c-1,1.2-1.7,2.7-2.1,4.2c-0.3,1.5-0.3,2.9,0.1,3.8L42.5,117c0.2,0.6,0.6,0.9,1.1,1
							l0,0c0.9,0.2,2.1-0.5,3.1-1.8L113,36.7c1-1.2,1.7-2.7,2.1-4.2c0.3-1.5,0.3-2.9-0.1-3.8l-3.7-8.5c-0.2-0.6-0.6-0.9-1.1-1
							c-0.9-0.2-2.1,0.5-3.1,1.8L52.8,86.2c-0.2,0.3-0.6,0.4-0.9,0.3c-0.3,0-0.6-0.3-0.8-0.6l-7.9-18.1c-0.2-0.6-0.6-0.9-1.1-1
							C42,66.8,41.9,66.8,41.8,66.8z"/>
					</g>
					<path class="st3" d="M43.9,120c-0.2,0-0.4,0-0.7-0.1s-0.5-0.1-0.8-0.3c-0.1,0-0.1,0-0.2-0.1l-16-9.2c-0.1,0-0.1-0.1-0.2-0.1
						c-0.6-0.4-1-0.9-1.4-1.7L11.2,77.7c-0.6-1.3-0.7-3.1-0.2-5c0.4-1.9,1.3-3.6,2.5-5l8-9.5c1.5-1.8,3.4-2.8,5-2.4
						c0.3,0.1,0.5,0.1,0.8,0.3c0.1,0,0.1,0,0.2,0.1l15.2,8.9c0.4,0.1,0.8,0.3,1.1,0.5l45.8-54.9c1.5-1.8,3.4-2.8,5-2.5
						c0.3,0.1,0.5,0.1,0.8,0.3c0.1,0,0.1,0,0.2,0.1l16,9.2c0.1,0,0.1,0.1,0.2,0.1c0.6,0.4,1,0.9,1.4,1.7l3.7,8.5l0,0
						c0.6,1.3,0.7,3.1,0.2,5c-0.4,1.9-1.3,3.6-2.5,5l-66.3,79.5C46.9,119.1,45.3,120,43.9,120z M43.1,117.7c0.1,0,0.1,0,0.2,0.1
						c0.1,0.1,0.3,0.1,0.4,0.2c0.9,0.2,2.1-0.5,3.1-1.8L113,36.7c1-1.2,1.7-2.7,2.1-4.2c0.3-1.5,0.3-2.9-0.1-3.8l-3.7-8.5
						c-0.2-0.4-0.4-0.7-0.7-0.8l-0.1-0.1l-15.7-9.1c-0.1,0-0.1,0-0.2-0.1s-0.3-0.1-0.4-0.2c-0.9-0.2-2.1,0.5-3.1,1.8L44.6,67.6
						c-0.2,0.2-0.5,0.4-0.8,0.4s-0.6-0.2-0.8-0.5c-0.2-0.4-0.5-0.6-0.9-0.7c-0.1,0-0.2-0.1-0.3-0.1l-15.2-8.9c-0.1,0-0.1,0-0.2-0.1
						s-0.3-0.1-0.4-0.2c-0.9-0.2-2.1,0.5-3.1,1.8l-8,9.5c-1,1.2-1.7,2.7-2.1,4.2c-0.3,1.5-0.3,2.9,0.1,3.8l13.5,30.9
						c0.2,0.4,0.4,0.7,0.7,0.8l0.1,0.1L43.1,117.7z"/>
				</g>
				<rect x="4" y="4" class="st4" width="120" height="120"/>
				<rect x="4" y="4" class="st4" width="120" height="120"/>
			</g>
		</g>
	</g>
	<g>
		<rect class="st4" width="128" height="128"/>
	</g>
</g>
</svg>
