<?xml version="1.0" encoding="utf-8"?>
<!-- Generator: Adobe Illustrator 24.1.0, SVG Export Plug-In . SVG Version: 6.00 Build 0)  -->
<svg version="1.1" id="Layer_1" xmlns="http://www.w3.org/2000/svg" xmlns:xlink="http://www.w3.org/1999/xlink" x="0px" y="0px"
	 viewBox="0 0 128 128" style="enable-background:new 0 0 128 128;" xml:space="preserve">
<style type="text/css">
	.st0{fill:#C4D7D3;}
	.st1{fill:#27ae60;}
	.st2{fill:#FFFFFF;}
	.st3{fill:#185849;}
	.st4{fill:#E9EBDF;}
	.st5{fill:#4D9987;}
	.st6{fill:#0E352C;}
	.st7{fill:none;}
</style>
<g id="Layer_1_1_">
</g>
<g>
	<g id="Layer_2_1_">
		<g id="Tech_Concepts_1_">
			<g>
				<g>
					<g>
						<path class="st0" d="M46.3,88.4l0.1-1.6l-12.9-1.5L18.7,79l-1.6-1.2c1.1-6.8,11-12.1,23.2-12.1c6.4,0,12.3,1.5,16.5,3.9
							l8.4-4.9c-2.5-1.4-5.3-2.6-8.4-3.6v-1.7l-3.3-6.3l-13-1.5l-17.3,3.2l-10,7.6l-0.6,4.1c-1.8,1.3-3.4,2.8-4.6,4.4l-3-2.1V79l0,0
							c0,0,0,0,0,0.1c0.1,11.2,15.9,20.3,35.4,20.3v6.3l26-9.7L46.3,88.4z"/>
						<path class="st1" d="M40.5,106.7c-0.2,0-0.4-0.1-0.6-0.2c-0.3-0.2-0.4-0.5-0.4-0.8v-5.3C19.9,100.1,4.1,90.7,4,79.1l0,0
							c0,0,0,0,0-0.1V68.8c0-0.4,0.2-0.7,0.6-0.9c0.3-0.2,0.7-0.1,1,0.1l2.1,1.6c1.1-1.3,2.4-2.5,3.8-3.6l0.6-3.7
							c0-0.3,0.2-0.5,0.4-0.6l10-7.6c0.1-0.1,0.3-0.2,0.4-0.2l17.3-3.2c0.1,0,0.2,0,0.3,0l13,1.5c0.3,0,0.6,0.2,0.8,0.5l3.3,6.3
							c0.1,0.1,0.1,0.3,0.1,0.5v1c2.9,0.9,5.6,2.1,7.9,3.4c0.3,0.2,0.5,0.5,0.5,0.9s-0.2,0.7-0.5,0.9l-8.4,4.9c-0.3,0.2-0.7,0.2-1,0
							c-4.3-2.5-10-3.8-16-3.8c-11.1,0-20.6,4.7-22.1,10.7l1,0.8l14.5,6.2L46.4,86c0.5,0.1,0.9,0.5,0.9,1.1l-0.1,0.8L66.9,95
							c0.4,0.1,0.7,0.5,0.7,0.9s-0.3,0.8-0.6,0.9l-26,9.7C40.7,106.7,40.6,106.7,40.5,106.7z M6,79L6,79
							c0.1,10.8,15.5,19.5,34.4,19.5c0.5,0,1,0.4,1,1v4.9L63.7,96L46,89.4c-0.4-0.2-0.7-0.6-0.6-1v-0.6l-12-1.4
							c-0.1,0-0.2,0-0.3-0.1L18.3,80c-0.1,0-0.1-0.1-0.2-0.1l-1.6-1.2c-0.3-0.2-0.5-0.6-0.4-1c1.2-7.4,11.6-13,24.1-13
							c6.2,0,12,1.3,16.5,3.8l6.4-3.7c-2-1-4.3-1.9-6.7-2.7c-0.4-0.1-0.7-0.5-0.7-1v-1.5L52.8,54l-12.3-1.4l-17,3.2L14,63l-0.6,3.7
							c0,0.3-0.2,0.5-0.4,0.7c-1.8,1.3-3.2,2.7-4.4,4.2c-0.3,0.4-1,0.5-1.4,0.2l-1.3-1L6,79L6,79z"/>
					</g>
					<g>
						<path class="st2" d="M66.5,85.8L40.4,76v6.3c-12.9,0-23.4-6-23.4-13.4s10.4-13.4,23.3-13.4c6.4,0,12.3,1.5,16.5,3.9l8.4-4.9
							c-6.4-3.7-15.3-6-25-6C20.7,48.6,4.9,57.7,5,68.9s15.9,20.3,35.4,20.3v6.3L66.5,85.8z"/>
						<path class="st1" d="M40.5,96.5c-0.2,0-0.4-0.1-0.6-0.2c-0.3-0.2-0.4-0.5-0.4-0.8v-5.3C19.9,89.9,4.1,80.5,4,68.9
							c0-3.8,1.7-7.6,4.9-10.8c6.4-6.5,18.4-10.5,31.3-10.5c9.6,0,18.7,2.2,25.5,6.1c0.3,0.2,0.5,0.5,0.5,0.9s-0.2,0.7-0.5,0.9
							l-8.4,4.9c-0.3,0.2-0.7,0.2-1,0c-4.3-2.5-10-3.8-16-3.8c-8.1,0-15.5,2.5-19.5,6.4C19,64.8,18,66.9,18,69
							c0,6.7,9.6,12.1,21.4,12.4v-5.3c0-0.3,0.2-0.6,0.4-0.8c0.3-0.2,0.6-0.2,0.9-0.1l26.2,9.7c0.4,0.1,0.7,0.5,0.7,0.9
							s-0.3,0.8-0.6,0.9l-26,9.7C40.7,96.5,40.6,96.5,40.5,96.5z M40.2,49.6c-12.3,0-23.8,3.8-29.9,9.9C7.5,62.4,6,65.6,6,68.9
							c0.1,10.7,15.5,19.3,34.4,19.3c0.5,0,1,0.4,1,1v4.9l22.2-8.3l-22.3-8.3v4.8c0,0.3-0.1,0.5-0.3,0.7s-0.4,0.3-0.7,0.3
							C27,83.3,16,76.9,16,68.9c0-2.6,1.1-5.2,3.3-7.4c4.3-4.3,12.3-7,20.9-7c6.2,0,12,1.3,16.5,3.8l6.4-3.7
							C56.8,51.3,48.7,49.6,40.2,49.6z"/>
					</g>
					<g>
						<polygon class="st1" points="66.5,86 66.5,96.3 40.2,106.1 40.2,95.8 						"/>
						<path class="st1" d="M40.2,107.1c-0.2,0-0.4-0.1-0.6-0.2c-0.3-0.2-0.4-0.5-0.4-0.8V95.8c0-0.4,0.3-0.8,0.6-0.9L66.2,85
							c0.3-0.1,0.7-0.1,0.9,0.1c0.3,0.2,0.4,0.5,0.4,0.8v10.3c0,0.4-0.3,0.8-0.6,0.9L40.6,107C40.5,107.1,40.4,107.1,40.2,107.1z
							 M41.2,96.5v8.1l24.3-9.1v-8.1L41.2,96.5z"/>
					</g>
					<g>
						<polygon class="st1" points="65.2,54.5 65.2,64.7 56.8,69.6 56.8,59.4 						"/>
						<path class="st1" d="M56.8,70.6c-0.2,0-0.3,0-0.5-0.1c-0.3-0.2-0.5-0.5-0.5-0.9V59.4c0-0.4,0.2-0.7,0.5-0.9l8.4-4.9
							c0.3-0.2,0.7-0.2,1,0s0.5,0.5,0.5,0.9v10.2c0,0.4-0.2,0.7-0.5,0.9l-8.4,4.9C57.1,70.6,56.9,70.6,56.8,70.6z M57.8,60v7.9
							l6.4-3.7v-7.9L57.8,60z"/>
					</g>
					<path class="st3" d="M40.5,106.7c-0.2,0-0.4-0.1-0.6-0.2c-0.3-0.2-0.4-0.5-0.4-0.8v-5.3C19.9,100.1,4.1,90.7,4,79.1l0,0
						c0,0,0,0,0-0.1V68.8v-0.1C4,63,7.9,57.6,14.8,53.6c6.8-3.9,15.8-6.1,25.4-6.1s18.7,2.2,25.5,6.1c0.3,0.2,0.5,0.5,0.5,0.9v10.2
						c0,0.4-0.2,0.7-0.5,0.9l-8.4,4.9c-0.3,0.2-0.7,0.2-1,0c-4.3-2.5-10-3.8-16-3.8c-8.8,0-16.6,2.8-20.3,7.3
						c3.5,4.3,11.1,7.1,19.4,7.4v-5.3c0-0.3,0.2-0.6,0.4-0.8c0.3-0.2,0.6-0.2,0.9-0.1l26.2,9.7c0.4,0.1,0.7,0.5,0.7,0.9V96
						c0,0.4-0.3,0.8-0.6,0.9l-26,9.7C40.7,106.7,40.6,106.7,40.5,106.7z M6,79L6,79c0.1,10.8,15.5,19.5,34.4,19.5c0.5,0,1,0.4,1,1
						v4.9l24.1-9v-8.8l-24.2-9v4.8c0,0.3-0.1,0.5-0.3,0.7s-0.4,0.3-0.7,0.3c-9.8,0-18.7-3.4-22.5-8.8c-0.2-0.3-0.2-0.8,0-1.2
						c3.8-5.3,12.5-8.7,22.3-8.7c6.2,0,12,1.3,16.5,3.8l7.5-4.3v-9c-6.5-3.6-15-5.5-24-5.5c-9.2,0-17.9,2.1-24.4,5.8
						C9.5,59,6,63.8,6,68.8v0.1V79z M66.5,96L66.5,96L66.5,96z"/>
					<g>
						<g>
							<path class="st4" d="M120.1,50.7c-1.9-2.5-4.6-4.7-7.9-6.5c-1.5-2.9-4.2-8-5.4-8.4c-1.6-0.5-14.6-5.3-14.6-5.3l-3.7,1.7
								l-1,0.3v-0.3l-26,9.7l26.2,9.7v-6.3c12.1,0,22,5.3,23.3,12l-4.6,3.3l-22.2,3.6L62.9,63v10.2c6.4,3.7,15.3,6,25,6
								C107.3,79,123,70,123,58.8l0,0V48.6L120.1,50.7z"/>
							<path class="st5" d="M87.8,80c-9.6,0-18.7-2.2-25.5-6.1c-0.3-0.2-0.5-0.5-0.5-0.9V62.9c0-0.3,0.1-0.5,0.3-0.7
								s0.5-0.3,0.7-0.3L84,63.1l21.9-3.5l3.8-2.8c-1.6-5.8-10.6-10.3-21.1-10.6v5.3c0,0.3-0.2,0.6-0.4,0.8
								c-0.3,0.2-0.6,0.2-0.9,0.1l-26.2-9.7c-0.4-0.1-0.7-0.5-0.7-0.9s0.3-0.8,0.6-0.9l26-9.7c0.3-0.1,0.6-0.1,0.8,0.1l0.2-0.1
								l3.7-1.7c0.2-0.1,0.5-0.1,0.8,0c0.1,0,13,4.8,14.6,5.3c0.5,0.2,1.7,0.6,5.8,8.6c3,1.7,5.5,3.7,7.3,5.9l2.1-1.5
								c0.3-0.2,0.7-0.2,1-0.1c0.3,0.2,0.5,0.5,0.5,0.9v10.2v0.1C123.9,70.5,107.7,80,87.8,80z M63.8,72.5c6.5,3.6,15,5.5,24,5.5
								c18.9,0,34.2-8.6,34.2-19.3v-0.1v-8.2l-1.3,1c-0.4,0.3-1.1,0.2-1.4-0.2c-1.8-2.3-4.3-4.4-7.6-6.3c-0.2-0.1-0.3-0.2-0.4-0.4
								c-2.9-5.8-4.4-7.7-4.8-8c-1.4-0.5-12-4.4-14.2-5.2L89,33h-0.1l-1,0.3c-0.3,0.1-0.5,0.1-0.8-0.1l-22.7,8.5L86.7,50v-4.9
								c0-0.3,0.1-0.5,0.3-0.7s0.4-0.3,0.7-0.3c12.5,0,22.9,5.5,24.3,12.8c0.1,0.4-0.1,0.8-0.4,1l-4.6,3.3c-0.1,0.1-0.3,0.2-0.4,0.2
								L84.4,65c-0.1,0-0.1,0-0.2,0l-20.4-1V72.5z"/>
						</g>
						<g>
							<path class="st5" d="M107.4,51.6c1.9,1.7,3.1,3.6,3.5,5.7l-4.6,3.3l-18.7,3V79c0.1,0,0.1,0,0.2,0c19.5,0,35.2-9,35.2-20.2
								l0,0v-7.2H107.4z"/>
							<path class="st5" d="M87.8,80L87.8,80c-0.6,0-1.1-0.5-1.1-1V63.6c0-0.5,0.4-0.9,0.8-1l18.4-2.9l3.8-2.8
								c-0.4-1.6-1.5-3.1-3-4.6c-0.3-0.3-0.4-0.7-0.3-1.1s0.5-0.6,0.9-0.6H123c0.6,0,1,0.4,1,1v7.2v0.1C123.9,70.5,107.7,80,87.8,80
								z M88.6,64.4V78c18.5-0.3,33.4-8.8,33.4-19.2v-0.1v-6.1h-12.3c1.1,1.4,1.8,2.9,2.1,4.5c0.1,0.4-0.1,0.8-0.4,1l-4.6,3.3
								c-0.1,0.1-0.3,0.2-0.4,0.2L88.6,64.4z"/>
						</g>
						<g>
							<path class="st2" d="M61.5,31.6l26.2,9.7V35c12.9,0,23.4,6,23.4,13.4s-10.4,13.4-23.3,13.4c-6.4,0-12.3-1.5-16.5-3.9
								l-8.4,4.9c6.4,3.7,15.3,6,25,6c19.5,0,35.3-9.1,35.2-20.3c-0.1-11.2-15.9-20.3-35.4-20.3v-6.3L61.5,31.6z"/>
							<path class="st5" d="M87.8,69.8c-9.6,0-18.7-2.2-25.5-6.1c-0.3-0.2-0.5-0.5-0.5-0.9s0.2-0.7,0.5-0.9l8.4-4.9
								c0.3-0.2,0.7-0.2,1,0c4.3,2.5,10,3.8,16,3.8c8.1,0,15.5-2.5,19.5-6.4c1.8-1.8,2.8-3.9,2.8-6c0-6.7-9.6-12.1-21.4-12.4v5.3
								c0,0.3-0.2,0.6-0.4,0.8c-0.3,0.2-0.6,0.2-0.9,0.1l-26.2-9.7c-0.4-0.1-0.7-0.5-0.7-0.9s0.3-0.8,0.6-0.9L87,21
								c0.3-0.1,0.6-0.1,0.9,0.1s0.4,0.5,0.4,0.8v5.3c19.6,0.3,35.4,9.8,35.4,21.3c0,3.8-1.7,7.6-4.9,10.8
								C112.6,65.8,100.7,69.8,87.8,69.8z M64.8,62.9c6.3,3.2,14.4,5,23,5c12.3,0,23.8-3.8,29.9-9.9c2.9-2.9,4.4-6.1,4.3-9.4
								c-0.1-10.7-15.5-19.3-34.4-19.3c-0.5,0-1-0.4-1-1v-4.9l-22.2,8.3L86.7,40v-4.9c0-0.3,0.1-0.5,0.3-0.7s0.4-0.3,0.7-0.3
								c13.4,0,24.4,6.5,24.4,14.4c0,2.6-1.1,5.2-3.3,7.4c-4.3,4.3-12.3,7-20.9,7c-6.2,0-12-1.3-16.5-3.8L64.8,62.9z"/>
						</g>
						<g>
							<polygon class="st4" points="87.6,41.4 87.6,51.6 61.5,41.8 61.5,31.6 							"/>
							<path class="st5" d="M87.6,52.6c-0.1,0-0.2,0-0.3-0.1l-26.2-9.7c-0.4-0.1-0.7-0.5-0.7-0.9V31.6c0-0.3,0.2-0.6,0.4-0.8
								c0.3-0.2,0.6-0.2,0.9-0.1L88,40.5c0.4,0.1,0.7,0.5,0.7,0.9v10.2c0,0.3-0.2,0.6-0.4,0.8C88,52.5,87.8,52.6,87.6,52.6z
								 M62.5,41.1l24.2,9V42l-24.2-9C62.5,33,62.5,41.1,62.5,41.1z"/>
						</g>
						<path class="st6" d="M87.8,80L87.8,80c-9.7,0-18.7-2.2-25.5-6.1c-0.3-0.2-0.5-0.5-0.5-0.9V62.9c0-0.4,0.2-0.7,0.5-0.9l8.4-4.9
							c0.3-0.2,0.7-0.2,1,0c4.3,2.5,10,3.8,16,3.8c8.8,0,16.6-2.8,20.3-7.3c-0.1-0.1-0.2-0.2-0.2-0.3c-0.1-0.1-0.2-0.2-0.2-0.3
							c-3.8-4-10.9-6.6-18.9-6.8v5.3c0,0.3-0.2,0.6-0.4,0.8c-0.3,0.2-0.6,0.2-0.9,0.1l-26.2-9.7c-0.4-0.1-0.7-0.5-0.7-0.9V31.6
							c0-0.4,0.3-0.8,0.6-0.9l26-9.7c0.3-0.1,0.6-0.1,0.9,0.1s0.4,0.5,0.4,0.8v5.3c19.6,0.3,35.4,9.8,35.4,21.3l0,0l0,0v10.2v0.1
							C123.9,70.5,107.7,80,87.8,80z M63.8,72.5C70.2,76,78.7,78,87.6,78h0.1c18.9,0,34.2-8.6,34.2-19.3v-0.1v-10v-0.1v-0.1
							c-0.1-10.6-15.5-19.3-34.4-19.3c-0.5,0-1-0.4-1-1v-4.9l-24.1,9V41l24.2,9v-4.9c0-0.3,0.1-0.5,0.3-0.7s0.4-0.3,0.7-0.3l0,0
							c8.9,0,17.1,2.9,21.3,7.5c0.1,0.1,0.2,0.2,0.3,0.3c0.3,0.3,0.5,0.6,0.8,1c0.2,0.3,0.3,0.9,0,1.2c-3.8,5.3-12.5,8.7-22.3,8.7
							c-6.2,0-12-1.3-16.5-3.8l-7.5,4.3v9.2H63.8z"/>
					</g>
				</g>
				<rect x="4" y="4" class="st7" width="120" height="120"/>
				<rect x="4" y="4" class="st7" width="120" height="120"/>
			</g>
		</g>
	</g>
	<g>
		<rect class="st7" width="128" height="128"/>
	</g>
</g>
</svg>
