<?xml version="1.0" encoding="utf-8"?>
<!-- Generator: Adobe Illustrator 24.1.0, SVG Export Plug-In . SVG Version: 6.00 Build 0)  -->
<svg version="1.1" id="Layer_1" xmlns="http://www.w3.org/2000/svg" xmlns:xlink="http://www.w3.org/1999/xlink" x="0px" y="0px"
	 viewBox="0 0 128 128" style="enable-background:new 0 0 128 128;" xml:space="preserve">
<style type="text/css">
	.st0{fill:#E9EBDF;}
	.st1{fill:#4D9987;}
	.st2{fill:#FFFFFF;}
	.st3{fill:#0E352C;}
	.st4{fill:#185849;}
	.st5{fill:#27ae60;}
	.st6{enable-background:new    ;}
	.st7{clip-path:url(#SVGID_4_);enable-background:new    ;}
	.st8{fill:none;}
	.st9{fill:#C4D7D3;}
	.st10{clip-path:url(#SVGID_7_);enable-background:new    ;}
	.st11{clip-path:url(#SVGID_9_);enable-background:new    ;}
</style>
<g id="Layer_1_1_">
</g>
<g>
	<g id="Layer_2_1_">
		<g id="Tech_Concepts_1_">
			<g>
				<g>
					<g>
						<g>
							<g>
								<g>
									<g>
										<g>
											<path class="st0" d="M79.6,90.3l-12.8-7.4c-1.6-0.9-4.1-0.9-5.7,0l-12.8,7.4H28.7v12.3c0,0.6,0.4,1.2,1.2,1.6l31.3,18.1
												c1.6,0.9,4.1,0.9,5.7,0l31.3-18.1c0.8-0.5,1.2-1.1,1.2-1.6V90.3H79.6z"/>
											<path class="st1" d="M64,124c-1.2,0-2.4-0.3-3.4-0.8l-31.3-18.1c-1.1-0.6-1.7-1.5-1.7-2.5V90.3c0-0.6,0.4-1,1-1H48
												L60.6,82c1.9-1.1,4.8-1.1,6.7,0l12.6,7.3h19.4c0.6,0,1,0.4,1,1v12.3c0,1-0.6,1.9-1.7,2.5l-31.3,18.1
												C66.4,123.7,65.2,124,64,124z M29.7,91.3v11.3c0,0.2,0.3,0.5,0.7,0.8l31.3,18.1c1.3,0.7,3.4,0.7,4.7,0l31.3-18.1
												c0.4-0.2,0.7-0.5,0.7-0.8V91.3H79.6c-0.2,0-0.3,0-0.5-0.1l-12.8-7.4c-1.3-0.7-3.4-0.7-4.7,0l-12.8,7.4
												c-0.2,0.1-0.3,0.1-0.5,0.1H29.7z"/>
										</g>
										<path class="st1" d="M66.9,122.3l31.3-18.1c0.8-0.5,1.2-1.1,1.2-1.6V90.3H79.6l-12.8-7.4c-0.8-0.5-1.8-0.7-2.9-0.7V123
											C65,123,66.1,122.8,66.9,122.3z"/>
										<path class="st1" d="M50.1,111.2c-0.2,0-0.3,0-0.5-0.1l-9.3-5.3c-0.5-0.3-0.6-0.9-0.4-1.4c0.3-0.5,0.9-0.6,1.4-0.4
											l9.3,5.3c0.5,0.3,0.6,0.9,0.4,1.4C50.8,111.1,50.5,111.2,50.1,111.2z"/>
										<g>
											<path class="st2" d="M98.2,88.6L66.9,70.5c-1.6-0.9-4.1-0.9-5.7,0L29.8,88.6c-1.6,0.9-1.6,2.4,0,3.3L61.1,110
												c1.6,0.9,4.1,0.9,5.7,0l31.3-18.1C99.7,91,99.7,89.5,98.2,88.6z"/>
											<path class="st1" d="M64,111.7c-1.2,0-2.4-0.3-3.4-0.8L29.3,92.8c-1.1-0.6-1.7-1.5-1.7-2.5s0.6-1.9,1.7-2.5l31.3-18.1
												c1.9-1.1,4.8-1.1,6.7,0l31.3,18.1l0,0c1.1,0.6,1.7,1.5,1.7,2.5s-0.6,1.9-1.7,2.5l-31.3,18.1
												C66.4,111.4,65.2,111.7,64,111.7z M64,70.8c-0.9,0-1.7,0.2-2.4,0.6L30.3,89.5c-0.4,0.2-0.7,0.5-0.7,0.8s0.3,0.5,0.7,0.8
												l31.3,18.1c1.3,0.7,3.4,0.7,4.7,0L97.7,91c0.4-0.2,0.7-0.5,0.7-0.8s-0.3-0.5-0.7-0.8l-31.3-18C65.7,71,64.9,70.8,64,70.8
												z"/>
										</g>
									</g>
								</g>
								<g>
									<polygon class="st1" points="90.8,108.5 74.3,118 74.3,112.3 90.8,102.8 									"/>
									<path class="st0" d="M74.3,119c-0.2,0-0.3,0-0.5-0.1c-0.3-0.2-0.5-0.5-0.5-0.9v-5.7c0-0.4,0.2-0.7,0.5-0.9l16.5-9.6
										c0.3-0.2,0.7-0.2,1,0s0.5,0.5,0.5,0.9v5.7c0,0.4-0.2,0.7-0.5,0.9l-16.5,9.6C74.6,119,74.5,119,74.3,119z M75.3,112.9v3.4
										l14.5-8.4v-3.4L75.3,112.9z M90.8,108.5L90.8,108.5L90.8,108.5z"/>
								</g>
								<path class="st3" d="M64,124c-1.2,0-2.4-0.3-3.4-0.8l-31.3-18.1c-1.1-0.6-1.7-1.5-1.7-2.5V90.3c0-1,0.6-1.9,1.7-2.5
									l31.3-18.1c1.9-1.1,4.8-1.1,6.7,0l31.3,18.1l0,0c1.1,0.6,1.7,1.5,1.7,2.5v12.3c0,1-0.6,1.9-1.7,2.5l-31.3,18.1
									C66.4,123.7,65.2,124,64,124z M64,70.8c-0.9,0-1.7,0.2-2.4,0.6L30.3,89.5c-0.4,0.2-0.7,0.5-0.7,0.8v12.3
									c0,0.2,0.3,0.5,0.7,0.8l31.3,18.1c1.2,0.7,3.5,0.7,4.7,0l31.3-18.1c0.4-0.2,0.7-0.5,0.7-0.8V90.3c0-0.2-0.3-0.5-0.7-0.8
									L66.4,71.4C65.7,71,64.9,70.8,64,70.8z"/>
								<g>
									<ellipse class="st0" cx="91.3" cy="90.3" rx="1.6" ry="0.9"/>
									<ellipse class="st0" cx="64" cy="106" rx="1.6" ry="0.9"/>
									<ellipse class="st0" cx="64" cy="74.5" rx="1.6" ry="0.9"/>
									<ellipse class="st0" cx="36.7" cy="90.3" rx="1.6" ry="0.9"/>
								</g>
							</g>
						</g>
					</g>
					<g>
						<path class="st4" d="M99.2,50.4c-0.1,0-0.3,0-0.4-0.1c-0.1,0-0.2-0.1-0.3-0.2c-0.2-0.2-0.3-0.4-0.3-0.7c0-0.1,0-0.3,0.1-0.4
							s0.1-0.2,0.2-0.3c0.4-0.4,1-0.4,1.4,0c0.1,0.1,0.2,0.2,0.2,0.3c0.1,0.1,0.1,0.2,0.1,0.4c0,0.3-0.1,0.5-0.3,0.7
							C99.8,50.3,99.5,50.4,99.2,50.4z"/>
						<path class="st4" d="M98.2,78.8c0-0.5,0.5-1,1-1l0,0c0.5,0,1,0.5,1,1l0,0c0,0.5-0.5,1-1,1l0,0C98.7,79.8,98.2,79.4,98.2,78.8z
							 M98.2,72.9c0-0.6,0.5-1,1-1l0,0c0.5,0,1,0.4,1,1l0,0c0,0.5-0.5,1-1,1l0,0C98.7,73.9,98.2,73.5,98.2,72.9z M98.2,67
							c0-0.6,0.5-1,1-1l0,0c0.5,0,1,0.4,1,1l0,0c0,0.5-0.5,1-1,1l0,0C98.7,68,98.2,67.6,98.2,67z M98.2,61.2c0-0.6,0.5-1,1-1l0,0
							c0.5,0,1,0.4,1,1l0,0c0,0.5-0.5,1-1,1l0,0C98.7,62.1,98.2,61.7,98.2,61.2z M98.2,55.3c0-0.6,0.5-1,1-1l0,0c0.5,0,1,0.4,1,1
							l0,0c0,0.6-0.5,1-1,1l0,0C98.7,56.3,98.2,55.8,98.2,55.3z"/>
						<path class="st4" d="M99.2,85.7c-0.1,0-0.3,0-0.4-0.1c-0.1,0-0.2-0.1-0.3-0.2c-0.1-0.1-0.2-0.2-0.2-0.3
							c-0.1-0.1-0.1-0.2-0.1-0.4s0-0.3,0.1-0.4c0-0.1,0.1-0.2,0.2-0.3l0.1-0.1c0.1,0,0.1-0.1,0.2-0.1s0.1,0,0.2-0.1
							c0.3-0.1,0.7,0,0.9,0.3c0.1,0.1,0.2,0.2,0.2,0.3c0,0.1,0.1,0.2,0.1,0.4s0,0.3-0.1,0.4s-0.1,0.2-0.2,0.3
							c-0.1,0.1-0.2,0.2-0.3,0.2C99.5,85.7,99.4,85.7,99.2,85.7z"/>
					</g>
					<g>
						<path class="st3" d="M28.6,50.4c-0.1,0-0.3,0-0.4-0.1S28,50.2,28,50.1c-0.2-0.2-0.3-0.4-0.3-0.7c0-0.1,0-0.3,0.1-0.4
							c0.1-0.1,0.1-0.2,0.2-0.3c0.4-0.4,1-0.4,1.4,0c0.1,0.1,0.2,0.2,0.2,0.3s0.1,0.2,0.1,0.4c0,0.3-0.1,0.5-0.3,0.7
							C29.2,50.3,28.9,50.4,28.6,50.4z"/>
						<path class="st3" d="M27.6,78.8c0-0.5,0.5-1,1-1l0,0c0.6,0,1,0.5,1,1l0,0c0,0.5-0.4,1-1,1l0,0C28.1,79.8,27.6,79.4,27.6,78.8z
							 M27.6,72.9c0-0.6,0.5-1,1-1l0,0c0.6,0,1,0.4,1,1l0,0c0,0.5-0.4,1-1,1l0,0C28.1,73.9,27.6,73.5,27.6,72.9z M27.6,67
							c0-0.6,0.5-1,1-1l0,0c0.6,0,1,0.4,1,1l0,0c0,0.5-0.4,1-1,1l0,0C28.1,68,27.6,67.6,27.6,67z M27.6,61.2c0-0.6,0.5-1,1-1l0,0
							c0.6,0,1,0.4,1,1l0,0c0,0.5-0.4,1-1,1l0,0C28.1,62.1,27.6,61.7,27.6,61.2z M27.6,55.3c0-0.6,0.5-1,1-1l0,0c0.6,0,1,0.4,1,1
							l0,0c0,0.6-0.4,1-1,1l0,0C28.1,56.3,27.6,55.8,27.6,55.3z"/>
						<path class="st3" d="M28.6,85.7c-0.1,0-0.3,0-0.4-0.1c-0.1,0-0.2-0.1-0.3-0.2c-0.1-0.1-0.2-0.2-0.2-0.3c0-0.1-0.1-0.2-0.1-0.4
							s0-0.3,0.1-0.4s0.1-0.2,0.2-0.3l0.1-0.1c0,0,0.1-0.1,0.2-0.1s0.1,0,0.2-0.1c0.3-0.1,0.7,0,0.9,0.3c0.1,0.1,0.2,0.2,0.2,0.3
							c0,0.1,0.1,0.2,0.1,0.4s0,0.3-0.1,0.4s-0.1,0.2-0.2,0.3C29.2,85.6,28.9,85.7,28.6,85.7z"/>
					</g>
					<g>
						<g>
							<g>
								<polygon class="st5" points="96.6,8.8 96.6,19.6 88.9,24.1 88.9,13.2 								"/>
							</g>
							<g>
								<polygon class="st5" points="80.5,18.2 80.4,29 72.7,33.5 72.8,22.6 								"/>
							</g>
							<g>
								<polygon class="st5" points="72.8,22.6 72.7,33.5 66.1,15.9 66.2,5 								"/>
							</g>
							<g class="st6">
								<g>
									<path id="SVGID_1_" class="st5" d="M40.6,38.5V27.6c0-3.4,2.3-6.9,6.8-9.5v10.1C44.2,30.1,40.6,35.1,40.6,38.5z"/>
								</g>
								<g>
									<defs>
										<path id="SVGID_2_" d="M40.6,38.5V27.6c0-3.4,2.3-6.9,6.8-9.5v10.1C44.2,30.1,40.6,35.1,40.6,38.5z"/>
									</defs>
									<clipPath id="SVGID_4_">
										<use xlink:href="#SVGID_2_"  style="overflow:visible;"/>
									</clipPath>
									<g class="st7">
										<path class="st5" d="M47.5,18.2v10.9c-0.1,0.1-0.2,0.1-0.3,0.2V18.4C47.3,18.3,47.4,18.2,47.5,18.2"/>
										<path class="st5" d="M47.2,18.3v10.9c-1.1,0.7-2.1,1.4-3,2.2V20.5C45,19.7,46,19,47.2,18.3"/>
										<path class="st5" d="M44.2,20.5v10.9c-0.5,0.5-1,1-1.4,1.6V22.1C43.2,21.5,43.7,21,44.2,20.5"/>
										<path class="st5" d="M42.8,22.1V33c-0.4,0.5-0.7,0.9-0.9,1.4V23.5C42.1,23,42.4,22.5,42.8,22.1"/>
										<path class="st5" d="M41.8,23.5v10.9c-0.2,0.4-0.5,0.9-0.6,1.3V24.8C41.4,24.3,41.6,23.9,41.8,23.5"/>
										<path class="st5" d="M41.2,24.8v10.9c-0.2,0.4-0.3,0.9-0.4,1.3V26.1C40.9,25.7,41,25.2,41.2,24.8"/>
										<path class="st5" d="M40.8,26.1V37c-0.1,0.4-0.1,0.9-0.2,1.3V27.4C40.7,27,40.7,26.5,40.8,26.1"/>
										<path class="st8" d="M40.7,27.4v10.9c0,0.1,0,0.1,0,0.2V27.6C40.7,27.6,40.7,27.5,40.7,27.4"/>
									</g>
								</g>
							</g>
							<g>
								<g>
									<path id="SVGID_3_" class="st9" d="M87.4,27.8v10.9c0-3.5-2.3-7-6.9-9.6V18.2C85.1,20.8,87.4,24.3,87.4,27.8z"/>
								</g>
								<g>
									<defs>
										<path id="SVGID_6_" d="M87.4,27.8v10.9c0-3.5-2.3-7-6.9-9.6V18.2C85.1,20.8,87.4,24.3,87.4,27.8z"/>
									</defs>
									<clipPath id="SVGID_7_">
										<use xlink:href="#SVGID_6_"  style="overflow:visible;"/>
									</clipPath>
									<g class="st10">
										<path class="st9" d="M87.4,27.8v10.9c0-3.5-2.3-7-6.9-9.6V18.2C85.1,20.8,87.4,24.3,87.4,27.8"/>
									</g>
								</g>
							</g>
							<g>
								<g>
									<path id="SVGID_5_" class="st9" d="M99.3,27.8v10.9c0,5.2-3.4,10.4-10.3,14.4c-13.7,8-36.1,8-50,0c-7-4-10.4-9.3-10.4-14.6
										V27.6c0,5.3,3.5,10.6,10.4,14.6c13.8,8,36.2,8,50,0C95.9,38.2,99.3,33,99.3,27.8z"/>
								</g>
								<g>
									<defs>
										<path id="SVGID_8_" d="M99.3,27.8v10.9c0,5.2-3.4,10.4-10.3,14.4c-13.7,8-36.1,8-50,0c-7-4-10.4-9.3-10.4-14.6V27.6
											c0,5.3,3.5,10.6,10.4,14.6c13.8,8,36.2,8,50,0C95.9,38.2,99.3,33,99.3,27.8z"/>
									</defs>
									<clipPath id="SVGID_9_">
										<use xlink:href="#SVGID_8_"  style="overflow:visible;"/>
									</clipPath>
									<g class="st11">
										<path class="st8" d="M99.3,27.8v10.9c0,0.1,0,0.2,0,0.3V28.1C99.3,28,99.3,27.9,99.3,27.8"/>
										<path class="st9" d="M99.3,28.1V39c0,0.7-0.1,1.4-0.2,2V30.1C99.2,29.5,99.3,28.8,99.3,28.1"/>
										<path class="st9" d="M99.1,30.2v10.9c-0.1,0.7-0.3,1.3-0.6,2V32.2C98.8,31.5,99,30.8,99.1,30.2"/>
										<path class="st9" d="M98.5,32.1V43c-0.3,0.7-0.6,1.3-0.9,2V34.1C98,33.5,98.3,32.8,98.5,32.1"/>
										<path class="st9" d="M97.6,34.2v10.9c-0.4,0.7-0.9,1.4-1.4,2.1V36.3C96.7,35.6,97.2,34.9,97.6,34.2"/>
										<path class="st9" d="M96.2,36.3v10.9c-0.6,0.8-1.4,1.6-2.2,2.4V38.7C94.8,37.9,95.5,37.1,96.2,36.3"/>
										<path class="st9" d="M94,38.6v10.9c-1.3,1.2-2.8,2.3-4.5,3.3V41.9C91.2,40.9,92.7,39.8,94,38.6"/>
										<path class="st9" d="M89.5,41.9v10.9c-0.1,0.1-0.3,0.2-0.4,0.3c-2.4,1.4-5,2.5-7.7,3.4V45.6c2.8-0.9,5.4-2,7.7-3.4
											C89.2,42.1,89.4,42,89.5,41.9"/>
										<path class="st9" d="M81.3,45.6v10.9c-2.1,0.7-4.4,1.3-6.7,1.7V47.3C77,46.8,79.2,46.3,81.3,45.6"/>
										<path class="st9" d="M74.7,47.3v10.9c-1.5,0.3-3,0.5-4.5,0.6V47.9C71.7,47.7,73.2,47.5,74.7,47.3"/>
										<path class="st9" d="M70.1,47.9v10.9c-1.3,0.1-2.6,0.2-3.9,0.3V48.2C67.5,48.1,68.8,48,70.1,47.9"/>
										<path class="st9" d="M66.2,48.1V59c-1.2,0-2.4,0-3.6,0V48.1C63.8,48.2,65,48.2,66.2,48.1"/>
										<path class="st9" d="M62.6,48.2v10.9c-1.2,0-2.3-0.1-3.5-0.2V48C60.3,48.1,61.4,48.1,62.6,48.2"/>
										<path class="st9" d="M59.1,48v10.9c-1.2-0.1-2.3-0.2-3.4-0.4V47.6C56.8,47.7,58,47.9,59.1,48"/>
										<path class="st9" d="M55.7,47.6v10.9c-1.2-0.2-2.4-0.4-3.5-0.6V47C53.3,47.2,54.5,47.4,55.7,47.6"/>
										<path class="st9" d="M52.2,47v10.9c-1.3-0.3-2.5-0.6-3.7-0.9V46.1C49.7,46.4,50.9,46.7,52.2,47"/>
										<path class="st9" d="M48.5,46.1V57c-1.5-0.4-2.9-0.9-4.3-1.4V44.7C45.6,45.2,47,45.7,48.5,46.1"/>
										<path class="st9" d="M44.2,44.6v10.9c-1.8-0.7-3.5-1.5-5.1-2.4c-7-4-10.4-9.3-10.4-14.6V27.6c0,5.3,3.5,10.6,10.4,14.6
											C40.7,43.1,42.4,43.9,44.2,44.6"/>
									</g>
								</g>
							</g>
							<path class="st5" d="M99.3,29c0,0.2,0,0.3-0.1,0.5c0,0.2-0.1,0.4-0.1,0.5c0,0.2-0.1,0.3-0.1,0.5s-0.1,0.3-0.1,0.5
								s-0.1,0.3-0.1,0.5c-0.1,0.2-0.1,0.3-0.2,0.5s-0.1,0.3-0.2,0.5s-0.1,0.4-0.2,0.5s-0.1,0.3-0.2,0.4c-0.1,0.2-0.2,0.4-0.3,0.5
								c-0.1,0.1-0.2,0.3-0.2,0.4c-0.1,0.2-0.3,0.4-0.4,0.6c-0.1,0.1-0.2,0.3-0.2,0.4c-0.2,0.2-0.3,0.5-0.5,0.7
								c-0.1,0.1-0.1,0.2-0.2,0.3c-0.3,0.4-0.6,0.7-0.9,1.1c-0.1,0.1-0.2,0.2-0.3,0.3c-0.3,0.3-0.5,0.5-0.8,0.8
								c-0.1,0.1-0.3,0.2-0.4,0.4c-0.2,0.1-0.3,0.3-0.5,0.4c-0.2,0.1-0.3,0.3-0.5,0.4c-0.2,0.1-0.4,0.3-0.6,0.4
								c-0.2,0.1-0.3,0.3-0.5,0.4c-0.2,0.1-0.4,0.3-0.6,0.4c-0.2,0.1-0.4,0.3-0.6,0.4c-0.2,0.1-0.4,0.3-0.6,0.4
								c-0.3,0.2-0.5,0.3-0.8,0.5c-0.8,0.4-1.6,0.9-2.4,1.3c-0.2,0.1-0.4,0.2-0.6,0.3c-0.7,0.3-1.5,0.7-2.3,1
								c-0.1,0-0.2,0.1-0.3,0.1c-0.8,0.3-1.7,0.6-2.5,0.9c-0.6,0.2-1.2,0.4-1.8,0.5c-0.5,0.1-0.9,0.3-1.4,0.4
								c-0.6,0.2-1.3,0.3-2,0.4c-0.5,0.1-0.9,0.2-1.4,0.3c-0.2,0-0.4,0.1-0.6,0.1c-0.8,0.1-1.6,0.2-2.4,0.3c-0.2,0-0.5,0.1-0.7,0.1
								c-1,0.1-1.9,0.2-2.9,0.2c-0.2,0-0.4,0-0.5,0c-0.6,0-1.3,0-1.9,0.1c-0.4,0-0.8,0-1.2,0V59c0.4,0,0.8,0,1.2,0c0.3,0,0.6,0,1,0
								c0.3,0,0.7,0,1,0c0.2,0,0.4,0,0.5,0c0.8,0,1.6-0.1,2.4-0.2c0.2,0,0.3,0,0.5-0.1c0.2,0,0.5-0.1,0.7-0.1
								c0.8-0.1,1.6-0.2,2.4-0.3c0.2,0,0.4-0.1,0.6-0.1c0.1,0,0.2,0,0.3,0c0.4-0.1,0.8-0.2,1.1-0.2c0.7-0.1,1.3-0.3,1.9-0.4
								c0.5-0.1,0.9-0.2,1.4-0.4c0.6-0.2,1.2-0.3,1.8-0.5c0.1,0,0.3-0.1,0.4-0.1c0.7-0.2,1.4-0.5,2.1-0.8c0.1,0,0.2-0.1,0.3-0.1
								c0.8-0.3,1.5-0.6,2.3-1c0.2-0.1,0.4-0.2,0.6-0.3c0.8-0.4,1.6-0.8,2.4-1.3c0.1-0.1,0.3-0.2,0.4-0.3s0.3-0.2,0.4-0.2
								c0.2-0.1,0.4-0.3,0.6-0.4c0.2-0.1,0.4-0.3,0.6-0.4c0.2-0.1,0.4-0.3,0.6-0.4c0.2-0.1,0.4-0.3,0.5-0.4c0.2-0.1,0.4-0.3,0.6-0.4
								c0.2-0.1,0.3-0.3,0.5-0.4c0.2-0.1,0.3-0.3,0.5-0.4c0.1-0.1,0.1-0.1,0.2-0.2c0.1-0.1,0.1-0.1,0.2-0.2c0.3-0.3,0.5-0.5,0.8-0.8
								c0.1-0.1,0.2-0.2,0.3-0.3c0.3-0.4,0.6-0.7,0.9-1.1l0,0c0.1-0.1,0.1-0.2,0.2-0.2c0.2-0.2,0.3-0.5,0.5-0.7
								c0.1-0.1,0.2-0.3,0.2-0.4c0.1-0.2,0.3-0.4,0.4-0.6c0-0.1,0.1-0.1,0.1-0.2c0-0.1,0.1-0.2,0.1-0.3c0.1-0.2,0.2-0.4,0.3-0.5
								c0.1-0.1,0.1-0.3,0.2-0.4c0.1-0.2,0.2-0.4,0.2-0.5s0.1-0.2,0.1-0.2c0-0.1,0-0.1,0.1-0.2c0.1-0.2,0.1-0.3,0.2-0.5
								c0-0.2,0.1-0.3,0.1-0.5s0.1-0.3,0.1-0.5c0-0.1,0-0.2,0.1-0.3c0-0.1,0-0.1,0-0.2c0-0.2,0.1-0.4,0.1-0.5c0-0.2,0-0.3,0.1-0.5
								c0-0.2,0-0.4,0-0.5s0-0.2,0-0.3s0-0.2,0-0.3V28c0,0.2,0,0.4,0,0.6C99.3,28.6,99.3,28.8,99.3,29z"/>
							<g>
								<g>
									<path class="st2" d="M96.6,8.8l-7.7,4.5c13.8,8,13.9,20.9,0.2,28.9s-36.1,8-50,0c-13.8-8-13.9-21-0.2-28.9l8.5,4.9
										c-9.1,5.3-9,13.8,0.1,19.1s23.9,5.3,33,0s9-13.8-0.1-19.1l-7.7,4.5L66.2,5L96.6,8.8z"/>
									<path class="st5" d="M64.1,49.2c-9.2,0-18.5-2-25.5-6.1s-10.9-9.5-10.9-15.4c0-5.8,3.8-11.2,10.8-15.3c0.3-0.2,0.7-0.2,1,0
										l8.5,4.9c0.3,0.2,0.5,0.5,0.5,0.9s-0.2,0.7-0.5,0.9c-4.1,2.4-6.3,5.4-6.3,8.7s2.3,6.4,6.4,8.7c8.9,5.1,23.2,5.1,32,0
										c4.1-2.4,6.3-5.4,6.3-8.7c0-3.1-2.1-6.1-5.9-8.4l-7.2,4.2c-0.3,0.1-0.6,0.2-0.8,0.1c-0.3-0.1-0.5-0.3-0.6-0.6L65.2,5.4
										c-0.1-0.3-0.1-0.7,0.2-1C65.6,4.1,65.9,4,66.3,4l30.5,3.8c0.4,0.1,0.8,0.4,0.9,0.8c0.1,0.4-0.1,0.8-0.5,1.1l-6.3,3.6
										c6.1,4,9.5,9.1,9.5,14.5c0,5.8-3.8,11.2-10.8,15.3C82.6,47.1,73.4,49.2,64.1,49.2z M39,14.4c-6,3.6-9.3,8.3-9.3,13.3
										c0,5.1,3.5,10,9.9,13.7c13.5,7.8,35.5,7.8,49,0c6.3-3.7,9.8-8.5,9.8-13.6s-3.5-10-9.9-13.7c-0.3-0.2-0.5-0.5-0.5-0.9
										s0.2-0.7,0.5-0.9l5.1-3L67.7,6.2l5.6,15l6.7-3.9c0.3-0.2,0.7-0.2,1,0c4.8,2.7,7.4,6.5,7.4,10.5s-2.6,7.7-7.3,10.4
										c-9.3,5.4-24.6,5.4-34,0c-4.8-2.7-7.4-6.5-7.4-10.5c0-3.5,2.1-6.9,5.9-9.5L39,14.4z"/>
								</g>
							</g>
							<path class="st8" d="M98.9,30.9c0,0.1,0,0.2-0.1,0.3C98.9,31.1,98.9,31,98.9,30.9L98.9,30.9z"/>
							<path class="st8" d="M99.1,30c0,0.1,0,0.2-0.1,0.3C99.1,30.1,99.1,30,99.1,30C99.1,29.9,99.1,29.9,99.1,30z"/>
							<path class="st8" d="M99.3,29c0,0.1,0,0.2,0,0.3C99.3,29.1,99.3,29,99.3,29C99.3,28.9,99.3,29,99.3,29z"/>
							<path class="st5" d="M72.7,34.5L72.7,34.5c-0.6,0-1-0.5-1-1V22.6c0-0.6,0.4-1,1-1l0,0c0.6,0,1,0.5,1,1v10.9
								C73.7,34.1,73.3,34.5,72.7,34.5z"/>
							<path class="st4" d="M64.1,60c-0.3,0-0.6,0-0.9,0h-0.7c-0.3,0-0.6,0-0.8,0h-1c-0.3,0-0.6,0-0.9-0.1L59,59.8
								c-0.5,0-0.9-0.1-1.4-0.1h-0.4c-0.6-0.1-1.1-0.1-1.7-0.2h-0.3c-0.5-0.1-1-0.1-1.4-0.2L53.1,59c-0.3-0.1-0.7-0.1-1-0.2
								l-0.6-0.1c-0.4-0.1-0.8-0.2-1.2-0.3c-0.2,0-0.4-0.1-0.6-0.1h-0.1c-0.4-0.1-0.7-0.2-1.1-0.3l-0.6-0.2
								c-0.6-0.2-1.1-0.3-1.7-0.5l-0.3-0.1c-0.6-0.2-1.3-0.5-1.9-0.7l-0.2-0.1c-0.1,0-0.1,0-0.2-0.1c-0.9-0.4-1.7-0.7-2.5-1.1
								L41,55.1c-1-0.5-1.8-0.9-2.5-1.3c-7.1-4.1-10.9-9.6-10.9-15.4V27.5c0,0,0,0,0-0.1c0-5.8,3.9-11.2,10.8-15.2
								c0.3-0.2,0.7-0.2,1,0l8.5,4.9c0.3,0.2,0.5,0.5,0.5,0.9v11c0,0.3-0.2,0.7-0.5,0.8c-2.4,1.6-3.4,2.9-3.7,3.6
								c1.2,1.2,2,1.9,3.8,3c8.9,5.1,23.2,5.1,32,0c1.6-1,2.4-1.7,3.4-2.6c-1-1.2-2-2.4-3.2-3.5l-7.1,4.1c-0.3,0.1-0.6,0.2-0.8,0.1
								c-0.3-0.1-0.5-0.3-0.6-0.6l-6.6-17.6c0-0.1-0.1-0.2-0.1-0.4V5c0-0.3,0.1-0.6,0.3-0.7S66,4,66.3,4l30.5,3.8
								c0.5,0.1,0.9,0.5,0.9,1v10.8c1.8,2.6,2.7,5.3,2.7,8.1c0,0,0,0.1,0,0.2v11.2c0,0.1,0,0.2,0,0.2v0.1c0,0.2,0,0.4,0,0.6
								c0,0.2,0,0.3-0.1,0.5c0,0.2-0.1,0.4-0.1,0.6c0,0.1,0,0.1,0,0.2c0,0.1,0,0.1,0,0.2c-0.1,0.3-0.1,0.5-0.2,0.6
								c0,0.2-0.1,0.3-0.1,0.5c-0.1,0.2-0.1,0.4-0.2,0.6c0,0.1-0.1,0.2-0.1,0.2c0,0.1,0,0.1-0.1,0.2c-0.1,0.3-0.2,0.5-0.3,0.6
								c-0.1,0.2-0.1,0.3-0.2,0.5s-0.2,0.4-0.3,0.6v0.1c0,0.1-0.1,0.1-0.1,0.2l-0.1,0.1c-0.2,0.3-0.3,0.5-0.4,0.7L98,46.5
								c-0.1,0.1-0.1,0.2-0.2,0.3c-0.2,0.2-0.3,0.5-0.5,0.7l-0.1,0.1c0,0.1-0.1,0.1-0.1,0.2L97,47.9c-0.3,0.4-0.6,0.7-0.9,1.1
								l-0.3,0.3c-0.3,0.3-0.5,0.6-0.8,0.8c-0.1,0.1-0.1,0.1-0.2,0.2l-0.1,0.1c-0.2,0.2-0.4,0.4-0.6,0.5s-0.3,0.3-0.5,0.4
								c-0.2,0.2-0.4,0.3-0.6,0.4c-0.2,0.1-0.4,0.3-0.6,0.4c-0.2,0.1-0.4,0.3-0.6,0.4c-0.2,0.1-0.4,0.3-0.6,0.4
								c-0.2,0.1-0.4,0.3-0.7,0.4L90,53.7c-0.1,0.1-0.3,0.2-0.4,0.3c-0.5,0.3-1.1,0.6-1.7,0.9l-0.5,0.2c-0.4,0.2-0.9,0.4-1.3,0.6
								l-0.5,0.2c-0.6,0.3-1.2,0.5-1.8,0.7l-0.3,0.1c-0.5,0.2-1,0.4-1.6,0.6l-0.7,0.2c-0.3,0.1-0.6,0.2-0.9,0.3
								c-0.2,0.1-0.5,0.1-0.7,0.2c-0.3,0.1-0.6,0.2-0.9,0.2c-0.3,0.1-0.5,0.1-0.8,0.2c-0.3,0.1-0.6,0.1-0.9,0.2l-0.8,0.2
								c-0.3,0.1-0.6,0.1-0.9,0.2l-0.5,0.1h-0.1c-0.7,0.1-1.4,0.2-2.1,0.3h-0.3c-0.6,0.1-1.2,0.2-1.8,0.2l-0.7,0.1
								c-0.4,0-0.8,0.1-1.1,0.1L68,59.9c-0.4,0-0.8,0-1.2,0.1h-0.5h-0.1c-0.4,0-0.7,0-1,0h-0.3C64.6,60,64.4,60,64.1,60z M44.6,54.6
								L44.6,54.6c0.7,0.2,1.3,0.5,1.9,0.7l0.3,0.1c0.5,0.2,1.1,0.3,1.6,0.5l0.6,0.2c0.3,0.1,0.7,0.2,1,0.3h0.1
								c0.2,0,0.4,0.1,0.5,0.1c0.4,0.1,0.8,0.2,1.2,0.3l0.6,0.1c0.3,0.1,0.6,0.1,0.9,0.2l0.7,0.1c0.5,0.1,0.9,0.2,1.4,0.2h0.3
								c0.6,0.1,1.1,0.1,1.7,0.2h0.4c0.4,0,0.9,0.1,1.3,0.1l0.8,0.1c0.3,0,0.6,0,0.9,0.1h1c0.2,0,0.5,0,0.7,0h0.8c0.3,0,0.6,0,1,0
								h0.8c0.3,0,0.6,0,0.9,0h0.1h0.6c0.4,0,0.8,0,1.2-0.1h0.7c0.4,0,0.8-0.1,1.1-0.1l0.7-0.1c0.6-0.1,1.2-0.1,1.7-0.2h0.3
								c0.7-0.1,1.3-0.2,2-0.3h0.1L75,57c0.3-0.1,0.6-0.1,0.9-0.2l0.7-0.2c0.3-0.1,0.6-0.1,0.9-0.2c0.2-0.1,0.5-0.1,0.7-0.2
								c0.3-0.1,0.6-0.2,0.9-0.2c0.2-0.1,0.5-0.1,0.7-0.2c0.3-0.1,0.6-0.2,0.8-0.3l0.6-0.2c0.5-0.2,1-0.3,1.5-0.5l0.3-0.1
								c0.6-0.2,1.2-0.5,1.7-0.7l0.4-0.2c0.4-0.2,0.9-0.4,1.3-0.6L87,53c0.5-0.3,1.1-0.6,1.6-0.9c0.1-0.1,0.3-0.2,0.4-0.2l0.4-0.2
								c0.2-0.1,0.4-0.3,0.6-0.4c0.2-0.1,0.4-0.2,0.5-0.4c0.2-0.1,0.4-0.3,0.6-0.4c0.2-0.1,0.3-0.3,0.5-0.4c0.2-0.1,0.4-0.3,0.5-0.4
								c0.2-0.1,0.3-0.3,0.5-0.4c0.2-0.1,0.3-0.3,0.5-0.4l0.4-0.3c0.3-0.2,0.5-0.5,0.8-0.8l0.2-0.3c0.3-0.3,0.6-0.7,0.9-1l0.2-0.3
								c0.2-0.2,0.3-0.4,0.5-0.6c0.1-0.1,0.1-0.2,0.2-0.2l0.1-0.1c0.1-0.2,0.2-0.4,0.4-0.6l0.1-0.1l0.2-0.3c0.1-0.2,0.2-0.3,0.3-0.5
								c0.1-0.1,0.1-0.3,0.2-0.4c0.1-0.2,0.1-0.3,0.2-0.5l0.1-0.3v-0.1c0.1-0.2,0.1-0.3,0.2-0.5c0-0.1,0.1-0.3,0.1-0.4
								c0-0.2,0.1-0.3,0.1-0.5l0.1-0.3v-0.2c0-0.2,0.1-0.3,0.1-0.5c0-0.1,0-0.3,0.1-0.4c0-0.2,0-0.3,0-0.5v-0.6V28.4
								c0-0.1,0-0.2,0-0.2c0.1-2.7-0.8-5.4-2.7-7.9c-0.2-0.2-0.2-0.5-0.2-0.8c0-0.1,0.1-0.2,0.1-0.3V9.6L67.2,6.1v9.6l6,16.3
								l6.7-3.9c0.4-0.2,0.9-0.2,1.2,0.1c1.7,1.6,3.2,3.3,4.5,5c0.3,0.4,0.3,1-0.1,1.3l-0.1,0.1c-1.3,1.3-2.2,2.2-4.4,3.5
								c-9.3,5.4-24.6,5.4-34,0c-2.3-1.3-3.2-2.3-4.7-3.8c-0.2-0.2-0.3-0.6-0.3-0.9c0.1-0.3,0.6-2.5,4.4-5v-9.7L39,14.4
								c-6,3.6-9.3,8.3-9.3,13.3l0,0v10.8c0,5.1,3.5,10,9.9,13.7c0.7,0.4,1.4,0.8,2.3,1.2l0.2,0.1c0.7,0.3,1.5,0.7,2.3,1l0.1,0.1
								l-0.3,1L44.6,54.6z"/>
						</g>
					</g>
				</g>
				<rect x="4" y="4" class="st8" width="120" height="120"/>
				<rect x="4" y="4" class="st8" width="120" height="120"/>
			</g>
		</g>
	</g>
	<g>
		<rect class="st8" width="128" height="128"/>
	</g>
</g>
</svg>
