<?xml version="1.0" encoding="utf-8"?>
<!-- Generator: Adobe Illustrator 24.1.0, SVG Export Plug-In . SVG Version: 6.00 Build 0)  -->
<svg version="1.1" id="Layer_1" xmlns="http://www.w3.org/2000/svg" xmlns:xlink="http://www.w3.org/1999/xlink" x="0px" y="0px"
	 viewBox="0 0 128 128" style="enable-background:new 0 0 128 128;" xml:space="preserve">
<style type="text/css">
	.st0{fill:none;}
	.st1{fill:#0E352C;}
	.st2{fill:#185849;}
	.st3{fill:#FFFFFF;}
	.st4{fill:#4D9987;}
	.st5{fill:#E9EBDF;}
	.st6{fill:#27ae60;}
	.st7{fill:#C4D7D3;}
</style>
<g id="Layer_1_1_">
</g>
<g>
	<g id="Layer_2_1_">
		<g id="Objects_1_">
			<g>
				<rect x="4" y="4.5" class="st0" width="120" height="120"/>
				<g>
					<g>
						<path class="st1" d="M26,41.1c-0.3,0-0.5-0.1-0.7-0.3c-0.1-0.1-0.2-0.2-0.2-0.3S25,40.2,25,40.1s0-0.3,0.1-0.4
							c0.1-0.1,0.1-0.2,0.2-0.3l0.1-0.1c0.1,0,0.1-0.1,0.2-0.1s0.1,0,0.2-0.1c0.1,0,0.3,0,0.4,0s0.1,0,0.2,0.1
							c0.1,0,0.1,0.1,0.2,0.1l0.1,0.1c0.2,0.2,0.3,0.4,0.3,0.7s-0.1,0.5-0.3,0.7c0,0.1-0.1,0.1-0.1,0.1c-0.1,0-0.1,0.1-0.2,0.1
							s-0.1,0-0.2,0.1C26.1,41.1,26,41.1,26,41.1z"/>
						<path class="st1" d="M25,53c0-0.6,0.4-1,1-1l0,0c0.6,0,1,0.4,1,1l0,0c0,0.6-0.4,1-1,1l0,0C25.4,54,25,53.5,25,53z M25,46.5
							c0-0.5,0.4-1,1-1l0,0c0.6,0,1,0.5,1,1l0,0c0,0.6-0.4,1-1,1l0,0C25.4,47.5,25,47.1,25,46.5z"/>
						<path class="st1" d="M26,60.4c-0.3,0-0.5-0.1-0.7-0.3S25,59.7,25,59.4s0.1-0.5,0.3-0.7c0-0.1,0.1-0.1,0.1-0.1
							c0.1,0,0.1-0.1,0.2-0.1s0.1,0,0.2-0.1c0.1,0,0.3,0,0.4,0s0.1,0,0.2,0.1c0.1,0,0.1,0.1,0.2,0.1l0.1,0.1
							c0.2,0.2,0.3,0.4,0.3,0.7s-0.1,0.5-0.3,0.7c0,0.1-0.1,0.1-0.1,0.1c-0.1,0-0.1,0.1-0.2,0.1s-0.1,0-0.2,0.1
							C26.1,60.4,26,60.4,26,60.4z"/>
					</g>
					<g>
						<path class="st2" d="M102,41.1c-0.3,0-0.5-0.1-0.7-0.3s-0.3-0.4-0.3-0.7s0.1-0.5,0.3-0.7c0.1-0.1,0.2-0.2,0.3-0.2
							c0.4-0.2,0.8-0.1,1.1,0.2c0.2,0.2,0.3,0.4,0.3,0.7s-0.1,0.5-0.3,0.7C102.6,41,102.3,41.1,102,41.1z"/>
						<path class="st2" d="M101,53c0-0.6,0.4-1,1-1l0,0c0.5,0,1,0.4,1,1l0,0c0,0.6-0.5,1-1,1l0,0C101.5,54,101,53.5,101,53z
							 M101,46.5c0-0.5,0.4-1,1-1l0,0c0.5,0,1,0.5,1,1l0,0c0,0.6-0.5,1-1,1l0,0C101.5,47.5,101,47.1,101,46.5z"/>
						<path class="st2" d="M102,60.4c-0.3,0-0.5-0.1-0.7-0.3s-0.3-0.4-0.3-0.7s0.1-0.5,0.3-0.7c0.1-0.1,0.2-0.2,0.3-0.2
							c0.4-0.2,0.8-0.1,1.1,0.2c0.2,0.2,0.3,0.4,0.3,0.7s-0.1,0.5-0.3,0.7C102.6,60.3,102.3,60.4,102,60.4z"/>
					</g>
					<g>
						<g>
							<g>
								<polygon class="st3" points="102,89.1 64,67.1 26,89 25.9,100.5 64,122.5 102,100.6 								"/>
								<polygon class="st4" points="102,100.6 64,122.5 64,111 102,89.1 								"/>
								<polygon class="st5" points="25.9,100.5 64,122.5 64,111 26,89 								"/>
								<path class="st4" d="M83,101c-0.2,0-0.3,0-0.5-0.1l-19-11C63.2,89.7,63,89.4,63,89s0.2-0.7,0.5-0.9l19-11
									c0.3-0.2,0.7-0.2,1,0l19,11c0.3,0.2,0.5,0.5,0.5,0.9s-0.2,0.7-0.5,0.9l-19,11C83.3,101,83.2,101,83,101z M66,89l17,9.9
									l17-9.8l-17-9.9L66,89z"/>
								<path class="st4" d="M83,112.5c-0.6,0-1-0.4-1-1V100c0-0.6,0.4-1,1-1s1,0.4,1,1v11.5C84,112.1,83.6,112.5,83,112.5z"/>
								<path class="st4" d="M64,123.5L64,123.5c-0.6,0-1-0.4-1-1V111c0-0.6,0.4-1,1-1l0,0c0.6,0,1,0.4,1,1v11.5
									C65,123.1,64.5,123.5,64,123.5z"/>
								<ellipse class="st4" cx="64" cy="72.7" rx="1.8" ry="1.1"/>
								<ellipse class="st4" cx="35.7" cy="89" rx="1.8" ry="1.1"/>
								<ellipse class="st4" cx="64" cy="105.4" rx="1.8" ry="1.1"/>
								<path class="st4" d="M64,112c-0.2,0-0.3,0-0.5-0.1l-38-22c-0.5-0.3-0.6-0.9-0.4-1.4c0.3-0.5,0.9-0.6,1.4-0.4L64,109.8
									l37.6-21.6c0.5-0.3,1.1-0.1,1.4,0.4s0.1,1.1-0.4,1.4l-38.1,21.9C64.3,111.9,64.1,112,64,112z"/>
								<path class="st4" d="M83,94.4c-0.2,0-0.3,0-0.5-0.1L75.3,90c-0.3-0.2-0.5-0.5-0.5-0.9s0.2-0.7,0.5-0.9l7.2-4.2
									c0.3-0.2,0.7-0.2,1,0l7.2,4.2c0.3,0.2,0.5,0.5,0.5,0.9S91,89.8,90.7,90l-7.2,4.2C83.4,94.3,83.2,94.4,83,94.4z M77.8,89.2
									l5.2,3l5.2-3l-5.2-3L77.8,89.2z"/>
								<path class="st1" d="M64,123.5c-0.2,0-0.3,0-0.5-0.1l-38-22c-0.3-0.2-0.5-0.5-0.5-0.9V89c0-0.4,0.2-0.7,0.5-0.9l38.1-21.9
									c0.3-0.2,0.7-0.2,1,0l38,22c0.3,0.2,0.5,0.5,0.5,0.9v11.5c0,0.4-0.2,0.7-0.5,0.9l-38.1,21.9C64.3,123.5,64.1,123.5,64,123.5
									z M26.9,99.9l37,21.4L101,100V89.6L64,68.2L27,89.5L26.9,99.9z"/>
							</g>
						</g>
						<g>
							<g>
								<polygon class="st3" points="102,77.6 64,55.5 26,77.4 25.9,89 64,111 102,89.1 								"/>
								<polygon class="st4" points="102,89.1 64,111 64,99.5 102,77.6 								"/>
								<polygon class="st5" points="25.9,89 64,111 64,99.5 26,77.4 								"/>
								<path class="st4" d="M83,89.5c-0.2,0-0.3,0-0.5-0.1l-19-11c-0.3-0.2-0.5-0.5-0.5-0.9s0.2-0.7,0.5-0.9l19-11
									c0.3-0.2,0.7-0.2,1,0l19,11c0.3,0.2,0.5,0.5,0.5,0.9s-0.2,0.7-0.5,0.9l-19,11C83.3,89.5,83.2,89.5,83,89.5z M66,77.5l17,9.9
									l17-9.8l-17-9.9L66,77.5z"/>
								<path class="st4" d="M83,101c-0.6,0-1-0.4-1-1V88.5c0-0.6,0.4-1,1-1s1,0.4,1,1V100C84,100.6,83.6,101,83,101z"/>
								<path class="st4" d="M64,112L64,112c-0.6,0-1-0.4-1-1V99.5c0-0.6,0.4-1,1-1l0,0c0.6,0,1,0.4,1,1V111
									C65,111.5,64.5,112,64,112z"/>
								<ellipse class="st4" cx="64" cy="61.2" rx="1.8" ry="1.1"/>
								<ellipse class="st4" cx="35.7" cy="77.5" rx="1.8" ry="1.1"/>
								<ellipse class="st4" cx="64" cy="93.8" rx="1.8" ry="1.1"/>
								<path class="st4" d="M64,100.5c-0.2,0-0.3,0-0.5-0.1l-38-22c-0.5-0.3-0.6-0.9-0.4-1.4c0.3-0.5,0.9-0.6,1.4-0.4L64,98.3
									l37.6-21.6c0.5-0.3,1.1-0.1,1.4,0.4s0.1,1.1-0.4,1.4l-38.1,21.9C64.3,100.4,64.1,100.5,64,100.5z"/>
								<path class="st4" d="M83,82.8c-0.2,0-0.3,0-0.5-0.1l-7.2-4.2c-0.3-0.2-0.5-0.5-0.5-0.9s0.2-0.7,0.5-0.9l7.2-4.2
									c0.3-0.2,0.7-0.2,1,0l7.2,4.2c0.3,0.2,0.5,0.5,0.5,0.9s-0.2,0.7-0.5,0.9l-7.2,4.2C83.4,82.8,83.2,82.8,83,82.8z M77.8,77.7
									l5.2,3l5.2-3l-5.2-3L77.8,77.7z"/>
								<path class="st1" d="M64,112c-0.2,0-0.3,0-0.5-0.1l-38-22C25.2,89.7,25,89.4,25,89V77.5c0-0.4,0.2-0.7,0.5-0.9l38.1-21.9
									c0.3-0.2,0.7-0.2,1,0l38,22c0.3,0.2,0.5,0.5,0.5,0.9v11.5c0,0.4-0.2,0.7-0.5,0.9l-38.1,21.9C64.3,111.9,64.1,112,64,112z
									 M26.9,88.4l37,21.4L101,88.5V78.1L64,56.7L27,78L26.9,88.4z"/>
							</g>
						</g>
						<g>
							<g>
								<polygon class="st3" points="102,66 64,44 26,65.9 25.9,77.4 64,99.5 102,77.6 								"/>
								<polygon class="st4" points="102,77.6 64,99.5 64,87.9 102,66 								"/>
								<polygon class="st5" points="25.9,77.4 64,99.5 64,87.9 26,65.9 								"/>
								<path class="st4" d="M83,78c-0.2,0-0.3,0-0.5-0.1l-19-11C63.2,66.7,63,66.3,63,66c0-0.4,0.2-0.7,0.5-0.9l19-11
									c0.3-0.2,0.7-0.2,1,0l19,11c0.3,0.2,0.5,0.5,0.5,0.9s-0.2,0.7-0.5,0.9l-19,11C83.3,77.9,83.2,78,83,78z M66,66l17,9.9
									l17-9.8l-17-9.9L66,66z"/>
								<path class="st4" d="M83,89.5c-0.6,0-1-0.4-1-1V77c0-0.6,0.4-1,1-1s1,0.4,1,1v11.5C84,89.1,83.6,89.5,83,89.5z"/>
								<path class="st4" d="M64,100.5L64,100.5c-0.6,0-1-0.4-1-1V88c0-0.6,0.5-1,1-1c0.6,0,1,0.4,1,1v11.5
									C65,100,64.5,100.5,64,100.5z"/>
								<ellipse class="st4" cx="64" cy="49.7" rx="1.8" ry="1.1"/>
								<ellipse class="st4" cx="35.7" cy="65.9" rx="1.8" ry="1.1"/>
								<ellipse class="st4" cx="64" cy="82.3" rx="1.8" ry="1.1"/>
								<path class="st4" d="M64,88.9c-0.2,0-0.3,0-0.5-0.1l-38-22c-0.5-0.3-0.6-0.9-0.4-1.4c0.3-0.5,0.9-0.6,1.4-0.4L64,86.8
									l37.6-21.6c0.5-0.3,1.1-0.1,1.4,0.4s0.1,1.1-0.4,1.4L64.5,88.8C64.3,88.9,64.1,88.9,64,88.9z"/>
								<path class="st4" d="M83,71.3c-0.2,0-0.3,0-0.5-0.1L75.3,67c-0.3-0.2-0.5-0.5-0.5-0.9s0.2-0.7,0.5-0.9l7.2-4.2
									c0.3-0.2,0.7-0.2,1,0l7.2,4.2c0.3,0.2,0.5,0.5,0.5,0.9S91,66.8,90.7,67l-7.2,4.2C83.4,71.3,83.2,71.3,83,71.3z M77.8,66.1
									l5.2,3l5.2-3l-5.2-3L77.8,66.1z"/>
								<path class="st1" d="M64,100.5c-0.2,0-0.3,0-0.5-0.1l-38-22c-0.3-0.2-0.5-0.5-0.5-0.9V66c0-0.4,0.2-0.7,0.5-0.9l38.1-21.9
									c0.3-0.2,0.7-0.2,1,0l38,22c0.3,0.2,0.5,0.5,0.5,0.9v11.5c0,0.4-0.2,0.7-0.5,0.9l-38.1,21.9C64.3,100.4,64.1,100.5,64,100.5
									z M26.9,76.9l37,21.4L101,77V66.6L64,45.2L27,66.5L26.9,76.9z"/>
							</g>
						</g>
					</g>
					<g>
						<path class="st3" d="M101.5,25.3c0.8,0.5,0.8,1.2,0,1.7L64.9,48.2c-0.8,0.5-2.1,0.5-2.9,0L26.6,27.8c-0.8-0.5-0.8-1.2,0-1.7
							L63.2,4.8c0.8-0.5,2.1-0.5,2.9,0L101.5,25.3z"/>
					</g>
					<path class="st6" d="M63.4,54.6c0.5,0,1-0.1,1.4-0.3L101.5,33c0.4-0.2,0.6-0.5,0.6-0.8v-6.1c0,0.3-0.2,0.6-0.6,0.8L64.9,48.2
						c-0.4,0.2-0.9,0.3-1.4,0.3L63.4,54.6z"/>
					<path class="st7" d="M63.4,48.6c-0.5,0-1-0.1-1.4-0.3L26.6,27.8C26.2,27.6,26,27.3,26,27v6.1c0,0.3,0.2,0.6,0.6,0.8L62,54.3
						c0.4,0.2,0.9,0.3,1.4,0.3"/>
					<path class="st6" d="M32.5,31.2l-5.9-3.4C26.2,27.6,26,27.3,26,27v6.1c0,0.3,0.2,0.6,0.6,0.8l6,3.4L32.5,31.2L32.5,31.2z"/>
					<path class="st1" d="M32.5,32.2c-0.3,0-0.7-0.2-0.9-0.5c-0.3-0.5-0.1-1.1,0.4-1.4L71.5,7.4c0.5-0.3,1.1-0.1,1.4,0.4
						s0.1,1.1-0.4,1.4L33,32.1C32.9,32.1,32.7,32.2,32.5,32.2z"/>
					<g>
						<g>
							<path class="st3" d="M63.2,4.8c0.8-0.5,2.1-0.5,2.9,0l35.4,20.4c0.8,0.5,0.8,1.2,0,1.7L64.9,48.2c-0.8,0.5-2.1,0.5-2.9,0
								l-29.5-17"/>
							<path class="st6" d="M63.4,49.6c-0.7,0-1.4-0.2-1.9-0.5L32,32.1c-0.5-0.3-0.6-0.9-0.4-1.4c0.3-0.5,0.9-0.6,1.4-0.4l29.5,17
								c0.5,0.3,1.4,0.3,1.9,0l36.5-21.2L65.5,5.7c-0.5-0.3-1.4-0.3-1.9,0s-1.1,0.1-1.4-0.4c-0.2-0.4,0-1,0.5-1.3
								c1.1-0.6,2.8-0.6,3.9,0L102,24.4c0.7,0.4,1.1,1,1.1,1.7s-0.4,1.3-1.1,1.7L65.4,49.1C64.8,49.4,64.1,49.6,63.4,49.6z"/>
						</g>
					</g>
					<g>
						<g>
							<path class="st6" d="M76.5,34.2c-0.2,0-0.3,0-0.4-0.1l-10.3-6c-0.1-0.1-0.2-0.2-0.2-0.3l3.3-7.1c0.1-0.1,0.2-0.2,0.4-0.2
								c0.2,0,0.4,0,0.6,0.1l10.3,6c0.1,0.1,0.2,0.2,0.2,0.3L77.1,34c-0.1,0.1-0.2,0.2-0.4,0.2C76.6,34.2,76.6,34.2,76.5,34.2z
								 M66.9,27.8l9.4,5.4l2.9-6.3l-9.4-5.4L66.9,27.8z"/>
							<path class="st6" d="M76.5,34.4c-0.2,0-0.4,0-0.5-0.1l-10.3-6c-0.3-0.2-0.4-0.4-0.3-0.7l3.3-7.1c0.1-0.2,0.3-0.3,0.6-0.4
								c0.3,0,0.5,0,0.7,0.1l10.3,6c0.3,0.2,0.4,0.4,0.3,0.7L77.3,34c-0.1,0.2-0.3,0.3-0.6,0.4C76.7,34.4,76.6,34.4,76.5,34.4z
								 M65.9,27.9L65.9,27.9l10.4,6c0.1,0.1,0.3,0.1,0.4,0.1s0.2-0.1,0.2-0.1l3.3-7l0,0l-10.3-6c-0.1-0.1-0.3-0.1-0.4-0.1
								s-0.2,0.1-0.2,0.1L65.9,27.9L65.9,27.9z M76.3,33.5l-9.8-5.7l3.1-6.7l9.8,5.7L76.3,33.5z M67.2,27.7l8.9,5.2l2.7-5.8
								l-8.9-5.2L67.2,27.7z"/>
						</g>
						<g>
							<path class="st6" d="M64.3,36.1c-0.2,0-0.3,0-0.4-0.1l-10.3-6c-0.1-0.1-0.2-0.2-0.2-0.3c0.1-0.1,0.2-0.2,0.4-0.2L66,27.6
								c0.2,0,0.4,0,0.6,0.1l10.3,6c0.1,0.1,0.2,0.2,0.2,0.3c-0.1,0.1-0.2,0.2-0.4,0.2L64.5,36C64.4,36.1,64.4,36.1,64.3,36.1z
								 M55.1,29.9l9.4,5.4l10.9-1.7L66,28.2L55.1,29.9z"/>
							<path class="st6" d="M64.3,36.3c-0.2,0-0.4,0-0.5-0.1l-10.3-6c-0.3-0.2-0.4-0.4-0.3-0.7c0.1-0.2,0.3-0.3,0.6-0.4L66,27.3
								c0.3,0,0.5,0,0.7,0.1l10.3,6c0.3,0.2,0.4,0.4,0.3,0.7c-0.1,0.2-0.3,0.3-0.6,0.4l-12.2,1.9C64.4,36.3,64.4,36.3,64.3,36.3z
								 M53.7,29.8L53.7,29.8l10.4,6c0.1,0.1,0.3,0.1,0.4,0.1L76.7,34c0.1,0,0.2-0.1,0.2-0.1l0,0l-10.3-6c-0.1-0.1-0.3-0.1-0.4-0.1
								L54,29.7C53.8,29.7,53.7,29.7,53.7,29.8z M64.4,35.6l-10.1-5.8L66.1,28l10.1,5.8L64.4,35.6z M55.9,30.1l8.7,5l10.1-1.6
								l-8.7-5L55.9,30.1z"/>
						</g>
						<path class="st6" d="M54,30.3c-0.2,0-0.4,0-0.5-0.1c-0.3-0.2-0.4-0.4-0.3-0.7l3.3-7.1c0.1-0.2,0.3-0.3,0.6-0.4l12.2-1.9
							c0.3,0,0.5,0,0.7,0.1c0.3,0.2,0.4,0.4,0.3,0.7L67,28.1c-0.1,0.2-0.3,0.3-0.6,0.4l-12.2,1.9C54.1,30.3,54.1,30.3,54,30.3z
							 M53.7,29.8L53.7,29.8c0.1,0.1,0.3,0.1,0.4,0.1L66.2,28v-0.3l0,0V28h0.1c0.1,0,0.2-0.1,0.2-0.1l3.3-7l0,0
							c-0.1-0.1-0.3-0.1-0.4-0.1l-12.2,1.9c-0.2,0-0.2,0.1-0.2,0.1L53.7,29.8L53.7,29.8z M54.4,29.6l3.2-6.8L69.1,21l-3.2,6.8
							L54.4,29.6z M57.9,23.2L55.2,29l10.3-1.6l2.7-5.7L57.9,23.2z"/>
						<path class="st6" d="M64.3,36.3c-0.2,0-0.4,0-0.5-0.1c-0.3-0.2-0.4-0.4-0.3-0.7l3.3-7.1c0.1-0.2,0.3-0.3,0.6-0.4l12.2-1.9
							c0.3,0,0.5,0,0.7,0.1c0.3,0.2,0.4,0.4,0.3,0.7L77.3,34c-0.1,0.2-0.3,0.3-0.6,0.4l-12.2,1.9C64.4,36.3,64.4,36.3,64.3,36.3z
							 M64,35.7L64,35.7c0.1,0.1,0.3,0.1,0.4,0.1l12.1-1.9v-0.3l0,0v0.3h0.1c0.1,0,0.2-0.1,0.2-0.1l3.3-7l0,0
							c-0.1-0.1-0.3-0.1-0.4-0.1l-12.2,1.9c-0.2,0-0.2,0.1-0.2,0.1L64,35.7L64,35.7z M64.7,35.6l3.2-6.8L79.4,27l-3.2,6.8L64.7,35.6
							z M68.2,29.2l-2.7,5.7l10.3-1.6l2.7-5.7L68.2,29.2z"/>
					</g>
					<g>
						<rect x="65" y="18.1" transform="matrix(0.5 -0.866 0.866 0.5 8.9309 70.3592)" class="st6" width="0.8" height="18.6"/>
						<path class="st6" d="M73.4,32.8l-16.5-9.5l0.7-1.2L74,31.6L73.4,32.8z M57.5,23l15.7,9l0.2-0.3l-15.7-9L57.5,23z"/>
					</g>
					<path class="st6" d="M32.5,38.3c-0.6,0-1-0.4-1-1v-6c0-0.6,0.4-1,1-1c0.6,0,1,0.4,1,1v6C33.5,37.8,33.1,38.3,32.5,38.3z"/>
					<path class="st7" d="M66,4.8c-0.8-0.5-2.1-0.5-2.9,0L26.6,26.1c-0.8,0.5-0.8,1.2,0,1.7l5.9,3.4l39.4-23L66,4.8z"/>
					<path class="st6" d="M32.5,32.2c-0.2,0-0.3,0-0.5-0.1l-5.9-3.4c-0.7-0.4-1.1-1-1.1-1.7s0.4-1.3,1.1-1.7L62.7,4
						c1.1-0.6,2.8-0.6,3.9,0l5.9,3.4C72.8,7.6,73,7.9,73,8.3c0,0.4-0.2,0.7-0.5,0.9L33,32.1C32.9,32.2,32.7,32.2,32.5,32.2z
						 M27.1,27l5.4,3.1L70,8.3l-4.4-2.5l0,0c-0.5-0.3-1.4-0.3-1.9,0L27.1,27z"/>
					<g>
						<path class="st2" d="M40.3,22.7c-0.6-0.3-0.6-0.8,0-1.2c0.6-0.3,1.5-0.3,2,0c0.6,0.3,0.6,0.8,0,1.2C41.8,23,40.9,23,40.3,22.7
							z"/>
					</g>
					<g>
						<path class="st2" d="M36.3,25c-0.6-0.3-0.6-0.8,0-1.2c0.6-0.3,1.5-0.3,2,0c0.6,0.3,0.6,0.8,0,1.2C37.7,25.3,36.8,25.3,36.3,25
							z"/>
					</g>
					<g>
						<path class="st2" d="M32.2,27.4c-0.6-0.3-0.6-0.8,0-1.2c0.6-0.3,1.5-0.3,2,0c0.6,0.3,0.6,0.8,0,1.2
							C33.7,27.7,32.8,27.7,32.2,27.4z"/>
					</g>
					<path class="st2" d="M63.4,55.6c-0.7,0-1.4-0.2-1.9-0.5L26.1,34.7c-0.7-0.4-1.1-1-1.1-1.7v-6c0-0.7,0.4-1.3,1.1-1.7L62.7,4
						c1.1-0.6,2.8-0.6,3.9,0L102,24.4l0,0c0.7,0.4,1.1,1,1.1,1.7l0,0v6.1c0,0.7-0.4,1.3-1.1,1.7L65.4,55.2
						C64.8,55.5,64.1,55.6,63.4,55.6z M27,32.9L27,32.9l35.5,20.5c0.5,0.3,1.4,0.3,1.9,0L101,32.1c0,0,0.1,0,0.1-0.1v-5.9
						c0,0-0.1,0-0.1-0.1L65.5,5.7c-0.5-0.3-1.4-0.3-1.9,0L27.1,27c0,0-0.1,0-0.1,0.1V32.9z M27,27L27,27L27,27L27,27z M101.1,26.1
						L101.1,26.1L101.1,26.1z"/>
				</g>
			</g>
		</g>
	</g>
	<g>
		<rect class="st0" width="128" height="128"/>
	</g>
</g>
</svg>
