<?xml version="1.0" encoding="utf-8"?>
<!-- Generator: Adobe Illustrator 24.1.0, SVG Export Plug-In . SVG Version: 6.00 Build 0)  -->
<svg version="1.1" id="Layer_1" xmlns="http://www.w3.org/2000/svg" xmlns:xlink="http://www.w3.org/1999/xlink" x="0px" y="0px"
	 viewBox="0 0 128 128" style="enable-background:new 0 0 128 128;" xml:space="preserve">
<style type="text/css">
	.st0{fill:none;}
	.st1{fill:#0E352C;}
	.st2{fill:#185849;}
	.st3{fill:#FFFFFF;}
	.st4{fill:#4D9987;}
	.st5{fill:#E9EBDF;}
	.st6{fill:#C4D7D3;}
	.st7{fill:#27ae60;}
</style>
<g id="Layer_1_1_">
</g>
<g>
	<g id="Layer_2_1_">
		<g id="Objects_1_">
			<g>
				<rect x="4" y="4" class="st0" width="120" height="120"/>
				<g>
					<g>
						<path class="st1" d="M27.3,44.5c-0.1,0-0.3,0-0.4-0.1c-0.1,0-0.2-0.1-0.3-0.2c-0.2-0.2-0.3-0.4-0.3-0.7s0.1-0.5,0.3-0.7
							c0.1-0.1,0.2-0.2,0.3-0.2c0.2-0.1,0.5-0.1,0.8,0c0.1,0.1,0.2,0.1,0.3,0.2c0.2,0.2,0.3,0.4,0.3,0.7c0,0.1,0,0.3-0.1,0.4
							c-0.1,0.1-0.1,0.2-0.2,0.3s-0.2,0.2-0.3,0.2C27.6,44.5,27.4,44.5,27.3,44.5z"/>
						<path class="st1" d="M26.3,56c0-0.5,0.5-1,1-1l0,0c0.6,0,1,0.5,1,1l0,0c0,0.6-0.4,1-1,1l0,0C26.7,57,26.3,56.5,26.3,56z
							 M26.3,49.7c0-0.5,0.5-1,1-1l0,0c0.6,0,1,0.5,1,1l0,0c0,0.6-0.4,1-1,1l0,0C26.7,50.7,26.3,50.3,26.3,49.7z"/>
						<path class="st1" d="M27.3,63.2c-0.3,0-0.5-0.1-0.7-0.3c0-0.1-0.1-0.1-0.1-0.2c0,0-0.1-0.1-0.1-0.2c0-0.1,0-0.1-0.1-0.2
							c0-0.1,0-0.1,0-0.2c0-0.3,0.1-0.5,0.3-0.7c0.1-0.1,0.2-0.2,0.3-0.2c0.2-0.1,0.5-0.1,0.8,0c0.1,0.1,0.2,0.1,0.3,0.2
							c0.1,0.1,0.2,0.2,0.2,0.3s0.1,0.2,0.1,0.4c0,0.1,0,0.1,0,0.2c0,0.1,0,0.1-0.1,0.2c0,0.1-0.1,0.1-0.1,0.2
							c0,0.1-0.1,0.1-0.1,0.2C27.8,63.1,27.6,63.2,27.3,63.2z"/>
					</g>
					<g>
						<path class="st2" d="M100.6,44.5c-0.3,0-0.5-0.1-0.7-0.3s-0.3-0.4-0.3-0.7s0.1-0.5,0.3-0.7c0.4-0.4,1-0.4,1.4,0
							c0.2,0.2,0.3,0.4,0.3,0.7s-0.1,0.5-0.3,0.7c-0.1,0.1-0.2,0.2-0.3,0.2C100.9,44.5,100.8,44.5,100.6,44.5z"/>
						<path class="st2" d="M99.6,56c0-0.5,0.5-1,1-1l0,0c0.6,0,1,0.5,1,1l0,0c0,0.6-0.4,1-1,1l0,0C100.1,57,99.6,56.5,99.6,56z
							 M99.6,49.7c0-0.5,0.5-1,1-1l0,0c0.6,0,1,0.5,1,1l0,0c0,0.6-0.4,1-1,1l0,0C100.1,50.7,99.6,50.3,99.6,49.7z"/>
						<path class="st2" d="M100.6,63.2c-0.3,0-0.5-0.1-0.7-0.3s-0.3-0.4-0.3-0.7s0.1-0.5,0.3-0.7c0.4-0.4,1-0.4,1.4,0
							c0.2,0.2,0.3,0.4,0.3,0.7s-0.1,0.5-0.3,0.7C101.2,63.1,100.9,63.2,100.6,63.2z"/>
					</g>
					<g>
						<g>
							<g>
								<polygon class="st3" points="100.6,90.8 64,69.5 27.3,90.7 27.3,101.8 63.9,123 100.6,101.9 								"/>
								<polygon class="st4" points="100.6,101.9 63.9,123 63.9,111.9 100.6,90.8 								"/>
								<polygon class="st5" points="27.3,101.8 63.9,123 63.9,111.9 27.3,90.7 								"/>
								<path class="st4" d="M82.3,102.3c-0.2,0-0.3,0-0.5-0.1L63.5,91.6c-0.3-0.2-0.5-0.5-0.5-0.9s0.2-0.7,0.5-0.9l18.4-10.6
									c0.3-0.2,0.7-0.2,1,0l18.3,10.6c0.3,0.2,0.5,0.5,0.5,0.9s-0.2,0.7-0.5,0.9l-18.4,10.6C82.6,102.3,82.5,102.3,82.3,102.3z
									 M66,90.7l16.3,9.5l16.4-9.4l-16.3-9.5L66,90.7z"/>
								<path class="st4" d="M82.3,113.4c-0.6,0-1-0.4-1-1v-11.1c0-0.6,0.4-1,1-1s1,0.4,1,1v11.1C83.3,113,82.8,113.4,82.3,113.4z"
									/>
								<path class="st4" d="M63.9,124L63.9,124c-0.6,0-1-0.4-1-1v-11.1c0-0.6,0.5-1,1-1c0.6,0,1,0.4,1,1V123
									C64.9,123.6,64.5,124,63.9,124z"/>
								<ellipse class="st4" cx="64" cy="75" rx="1.8" ry="1"/>
								<ellipse class="st4" cx="36.7" cy="90.7" rx="1.8" ry="1"/>
								<ellipse class="st4" cx="63.9" cy="106.5" rx="1.8" ry="1"/>
								<path class="st4" d="M63.9,112.9c-0.2,0-0.3,0-0.5-0.1L26.8,91.5c-0.5-0.3-0.6-0.9-0.4-1.4c0.3-0.5,0.9-0.6,1.4-0.4
									l36.1,20.9l36.2-20.8c0.5-0.3,1.1-0.1,1.4,0.4s0.1,1.1-0.4,1.4l-36.7,21.1C64.3,112.9,64.1,112.9,63.9,112.9z"/>
								<path class="st4" d="M82.3,95.9c-0.2,0-0.3,0-0.5-0.1l-7-4c-0.3-0.2-0.5-0.5-0.5-0.9s0.2-0.7,0.5-0.9l7-4
									c0.3-0.2,0.7-0.2,1,0l7,4c0.3,0.2,0.5,0.5,0.5,0.9s-0.2,0.7-0.5,0.9l-7,4C82.6,95.9,82.5,95.9,82.3,95.9z M77.3,90.9l5,2.9
									l5-2.9l-5-2.9L77.3,90.9z"/>
								<path class="st1" d="M63.9,124c-0.2,0-0.3,0-0.5-0.1l-36.6-21.2c-0.3-0.2-0.5-0.5-0.5-0.9V90.7c0-0.4,0.2-0.7,0.5-0.9
									l36.7-21.1c0.3-0.2,0.7-0.2,1,0l36.6,21.2c0.3,0.2,0.5,0.5,0.5,0.9v11.1c0,0.4-0.2,0.7-0.5,0.9l-36.7,21.1
									C64.3,124,64.1,124,63.9,124z M28.3,101.2l35.6,20.6l35.7-20.5v-9.9L64,70.7L28.3,91.2V101.2z"/>
							</g>
						</g>
						<g>
							<g>
								<polygon class="st3" points="100.6,79.7 64,58.4 27.3,79.6 27.3,90.7 63.9,111.9 100.6,90.8 								"/>
								<polygon class="st4" points="100.6,90.8 63.9,111.9 63.9,100.8 100.6,79.7 								"/>
								<polygon class="st5" points="27.3,90.7 63.9,111.9 63.9,100.8 27.3,79.6 								"/>
								<path class="st4" d="M82.3,91.2c-0.2,0-0.3,0-0.5-0.1L63.5,80.5C63.2,80.3,63,80,63,79.6s0.2-0.7,0.5-0.9l18.4-10.6
									c0.3-0.2,0.7-0.2,1,0l18.3,10.6c0.3,0.2,0.5,0.5,0.5,0.9s-0.2,0.7-0.5,0.9L82.8,91.1C82.6,91.2,82.5,91.2,82.3,91.2z
									 M66,79.6l16.3,9.5l16.4-9.4l-16.3-9.5L66,79.6z"/>
								<path class="st4" d="M82.3,102.3c-0.6,0-1-0.4-1-1V90.2c0-0.6,0.4-1,1-1s1,0.4,1,1v11.1C83.3,101.9,82.8,102.3,82.3,102.3z"
									/>
								<path class="st4" d="M63.9,112.9L63.9,112.9c-0.6,0-1-0.4-1-1v-11.1c0-0.6,0.4-1,1-1l0,0c0.6,0,1,0.4,1,1v11.1
									C64.9,112.4,64.5,112.9,63.9,112.9z"/>
								<ellipse class="st4" cx="64" cy="63.9" rx="1.8" ry="1"/>
								<ellipse class="st4" cx="36.7" cy="79.6" rx="1.8" ry="1"/>
								<ellipse class="st4" cx="63.9" cy="95.4" rx="1.8" ry="1"/>
								<path class="st4" d="M63.9,101.8c-0.2,0-0.3,0-0.5-0.1L26.8,80.4c-0.5-0.3-0.6-0.9-0.4-1.4c0.3-0.5,0.9-0.6,1.4-0.4
									l36.1,20.9l36.2-20.8c0.5-0.3,1.1-0.1,1.4,0.4s0.1,1.1-0.4,1.4l-36.7,21.1C64.3,101.7,64.1,101.8,63.9,101.8z"/>
								<path class="st4" d="M82.3,84.8c-0.2,0-0.3,0-0.5-0.1l-7-4c-0.3-0.2-0.5-0.5-0.5-0.9s0.2-0.7,0.5-0.9l7-4
									c0.3-0.2,0.7-0.2,1,0l7,4c0.3,0.2,0.5,0.5,0.5,0.9s-0.2,0.7-0.5,0.9l-7,4C82.6,84.7,82.5,84.8,82.3,84.8z M77.3,79.8l5,2.9
									l5-2.9l-5-2.9L77.3,79.8z"/>
								<path class="st1" d="M63.9,112.9c-0.2,0-0.3,0-0.5-0.1L26.8,91.5c-0.3-0.2-0.5-0.5-0.5-0.9V79.5c0-0.4,0.2-0.7,0.5-0.9
									l36.7-21.1c0.3-0.2,0.7-0.2,1,0l36.6,21.2c0.3,0.2,0.5,0.5,0.5,0.9v11.1c0,0.4-0.2,0.7-0.5,0.9l-36.7,21.1
									C64.3,112.9,64.1,112.9,63.9,112.9z M28.3,90.1l35.6,20.6l35.7-20.5v-9.9L64,59.6L28.3,80.1V90.1z"/>
							</g>
						</g>
						<g>
							<g>
								<polygon class="st3" points="100.6,68.6 64,47.3 27.3,68.5 27.3,79.6 63.9,100.8 100.6,79.7 								"/>
								<polygon class="st4" points="100.6,79.7 63.9,100.8 63.9,89.7 100.6,68.6 								"/>
								<polygon class="st5" points="27.3,79.6 63.9,100.8 63.9,89.7 27.3,68.5 								"/>
								<path class="st4" d="M82.3,80.1c-0.2,0-0.3,0-0.5-0.1L63.5,69.4c-0.3-0.2-0.5-0.5-0.5-0.9s0.2-0.7,0.5-0.9L81.9,57
									c0.3-0.2,0.7-0.2,1,0l18.3,10.6c0.3,0.2,0.5,0.5,0.5,0.9s-0.2,0.7-0.5,0.9L82.8,80C82.6,80.1,82.5,80.1,82.3,80.1z M66,68.5
									L82.3,78l16.4-9.4l-16.3-9.5L66,68.5z"/>
								<path class="st4" d="M82.3,91.2c-0.6,0-1-0.4-1-1V79.1c0-0.6,0.4-1,1-1s1,0.4,1,1v11.1C83.3,90.8,82.8,91.2,82.3,91.2z"/>
								<path class="st4" d="M63.9,101.8L63.9,101.8c-0.6,0-1-0.4-1-1V89.7c0-0.6,0.5-1,1-1c0.6,0,1,0.4,1,1v11.1
									C64.9,101.3,64.5,101.8,63.9,101.8z"/>
								<ellipse class="st4" cx="64" cy="52.8" rx="1.8" ry="1"/>
								<ellipse class="st4" cx="36.7" cy="68.5" rx="1.8" ry="1"/>
								<ellipse class="st4" cx="63.9" cy="84.3" rx="1.8" ry="1"/>
								<path class="st4" d="M63.9,90.7c-0.2,0-0.3,0-0.5-0.1L26.8,69.3c-0.5-0.3-0.6-0.9-0.4-1.4c0.3-0.5,0.9-0.6,1.4-0.4
									l36.1,20.9l36.2-20.8c0.5-0.3,1.1-0.1,1.4,0.4s0.1,1.1-0.4,1.4L64.4,90.6C64.3,90.6,64.1,90.7,63.9,90.7z"/>
								<path class="st4" d="M82.3,73.7c-0.2,0-0.3,0-0.5-0.1l-7-4c-0.3-0.2-0.5-0.5-0.5-0.9s0.2-0.7,0.5-0.9l7-4
									c0.3-0.2,0.7-0.2,1,0l7,4c0.3,0.2,0.5,0.5,0.5,0.9s-0.2,0.7-0.5,0.9l-7,4C82.6,73.6,82.5,73.7,82.3,73.7z M77.3,68.7l5,2.9
									l5-2.9l-5-2.9L77.3,68.7z"/>
								<path class="st1" d="M63.9,101.8c-0.2,0-0.3,0-0.5-0.1L26.8,80.4c-0.3-0.2-0.5-0.5-0.5-0.9V68.4c0-0.4,0.2-0.7,0.5-0.9
									l36.7-21.1c0.3-0.2,0.7-0.2,1,0l36.6,21.2c0.3,0.2,0.5,0.5,0.5,0.9v11.1c0,0.4-0.2,0.7-0.5,0.9l-36.7,21.1
									C64.3,101.7,64.1,101.8,63.9,101.8z M28.3,79l35.6,20.6l35.7-20.5v-9.9L64,48.5L28.3,69V79z"/>
							</g>
						</g>
					</g>
					<g>
						<g>
							<polygon class="st3" points="100.6,26.2 64,5 27.3,26.1 27.3,37.2 63.9,58.5 100.6,37.3 							"/>
							<path class="st6" d="M63.9,59.5c-0.2,0-0.3,0-0.5-0.1l-9.6-5.6c-0.3-0.2-0.5-0.5-0.5-0.9s0.2-0.7,0.5-0.9l9.7-5.6
								c0.3-0.2,0.7-0.2,1,0l9.6,5.6c0.3,0.2,0.5,0.5,0.5,0.9s-0.2,0.7-0.5,0.9l-9.7,5.6C64.3,59.4,64.1,59.5,63.9,59.5z M56.3,52.9
								l7.6,4.4l7.7-4.4L64,48.5L56.3,52.9z"/>
							<g>
								<polyline class="st3" points="27.3,26.1 63.9,47.3 100.6,26.2 								"/>
								<path class="st7" d="M63.9,48.3c-0.2,0-0.3,0-0.5-0.1L26.8,27c-0.5-0.3-0.6-0.9-0.4-1.4c0.3-0.5,0.9-0.6,1.4-0.4l36.1,20.9
									l36.2-20.8c0.5-0.3,1.1-0.1,1.4,0.4s0.1,1.1-0.4,1.4L64.4,48.2C64.3,48.3,64.1,48.3,63.9,48.3z"/>
							</g>
							<path class="st7" d="M63.9,59.5c-0.2,0-0.3,0-0.5-0.1c-0.3-0.2-0.5-0.5-0.5-0.9V47.4c0-0.4,0.2-0.7,0.5-0.9l36.7-21.1
								c0.3-0.2,0.7-0.2,1,0s0.5,0.5,0.5,0.9v11.1c0,0.4-0.2,0.7-0.5,0.9l-36.7,21C64.3,59.4,64.1,59.5,63.9,59.5z M64.9,47.9v8.8
								l34.7-20v-8.8L64.9,47.9z"/>
							<path class="st7" d="M27.3,38.2c-0.2,0-0.3,0-0.5-0.1c-0.3-0.2-0.5-0.5-0.5-0.9V26.1c0-0.4,0.2-0.7,0.5-0.9L63.5,4.1
								c0.3-0.2,0.7-0.2,1,0C64.8,4.3,65,4.6,65,5v11.1c0,0.4-0.2,0.7-0.5,0.9L27.8,38.1C27.6,38.2,27.5,38.2,27.3,38.2z M28.3,26.7
								v8.8l34.7-20V6.7L28.3,26.7z"/>
							<path class="st7" d="M100.7,38.2c-0.2,0-0.3,0-0.5-0.1L63.5,17c-0.3-0.2-0.5-0.5-0.5-0.9V5c0-0.4,0.2-0.7,0.5-0.9
								c0.3-0.2,0.7-0.2,1,0l36.7,21.1c0.3,0.2,0.5,0.5,0.5,0.9v11.1c0,0.4-0.2,0.7-0.5,0.9C101.1,38.2,100.9,38.2,100.7,38.2z
								 M65,15.5l34.7,20v-8.8L65,6.7V15.5z"/>
							<path class="st2" d="M63.9,59.5c-0.2,0-0.3,0-0.5-0.1L26.8,38.1c-0.3-0.2-0.5-0.5-0.5-0.9V26.1c0-0.4,0.2-0.7,0.5-0.9
								L63.5,4.1c0.3-0.2,0.7-0.2,1,0l36.6,21.2c0.3,0.2,0.5,0.5,0.5,0.9v11.1c0,0.4-0.2,0.7-0.5,0.9L64.4,59.3
								C64.3,59.4,64.1,59.5,63.9,59.5z M28.3,36.7l35.6,20.6l35.7-20.5v-9.9L64,6.2L28.3,26.7V36.7z"/>
						</g>
					</g>
				</g>
			</g>
		</g>
	</g>
	<g>
		<rect class="st0" width="128" height="128"/>
	</g>
</g>
</svg>
