<?xml version="1.0" encoding="utf-8"?>
<!-- Generator: Adobe Illustrator 24.1.0, SVG Export Plug-In . SVG Version: 6.00 Build 0)  -->
<svg version="1.1" id="Layer_1" xmlns="http://www.w3.org/2000/svg" xmlns:xlink="http://www.w3.org/1999/xlink" x="0px" y="0px"
	 viewBox="0 0 128 128" style="enable-background:new 0 0 128 128;" xml:space="preserve">
<style type="text/css">
	.st0{fill:#4D9987;}
	.st1{fill:#0E352C;}
	.st2{fill:#E9EBDF;}
	.st3{fill:#FFFFFF;}
	.st4{fill:#27ae60;}
	.st5{fill:none;}
</style>
<g id="Layer_1_1_">
</g>
<g>
	<g id="Layer_2_1_">
		<g id="Tech_Concepts_1_">
			<g>
				<g>
					<g>
						<g>
							<g>
								<path class="st0" d="M80,9.5l-7.3-4.2l0,0C72,4.9,71,4.9,70,5.5L28.3,29.6c-2.3,1.3-4.1,4.8-4.1,7.9v77.7
									c0,1.7,0.6,2.8,1.4,3.3l0,0l7.3,4.2l2.8-8.7L70,94.2c2.3-1.3,4.1-4.8,4.1-7.9V22L80,9.5z"/>
								<path class="st0" d="M45.9,35.9l-0.7-10.4c-0.2-2.8-1.9-5.9-4-7.1l0,0c-2-1.2-3.8-0.1-4,2.5l-0.7,9.5"/>
								<path class="st1" d="M45.9,36.9c-0.5,0-1-0.4-1-0.9l-0.7-10.4c-0.2-2.5-1.7-5.3-3.5-6.3c-0.4-0.2-1-0.5-1.6-0.2
									c-0.5,0.3-0.8,1-0.9,1.9l-0.7,9.5c0,0.6-0.5,1-1.1,0.9c-0.6,0-1-0.5-0.9-1.1l0.7-9.5c0.1-1.7,0.8-3,2-3.5
									c1-0.5,2.3-0.4,3.5,0.3c2.3,1.3,4.2,4.7,4.5,7.9l0.7,10.4C47,36.3,46.5,36.8,45.9,36.9C46,36.9,45.9,36.9,45.9,36.9z"/>
								<path class="st2" d="M72.7,5.3C72,4.9,71,4.9,70,5.5L28.3,29.6c-1.1,0.6-2.1,1.8-2.8,3.1l48.7,28.1V22L80,9.5L72.7,5.3
									L72.7,5.3z"/>
								<g>
									<path class="st3" d="M77.3,98.4l-41.7,24.1c-2.3,1.3-4.1-0.1-4.1-3.1V41.7c0-3,1.8-6.6,4.1-7.9L77.3,9.7
										c2.3-1.3,4.1,0.1,4.1,3.1v77.7C81.5,93.6,79.6,97.1,77.3,98.4z"/>
									<path class="st0" d="M34,124c-0.6,0-1.1-0.1-1.6-0.4c-1.2-0.7-1.9-2.2-1.9-4.2V41.7c0-3.4,2-7.3,4.6-8.8L76.8,8.8
										C78.1,8,79.4,8,80.5,8.6c1.2,0.7,1.9,2.2,1.9,4.2v77.7c0,3.4-2,7.3-4.6,8.8l-41.7,24.1C35.4,123.8,34.7,124,34,124z
										 M79,10.2c-0.4,0-0.8,0.2-1.1,0.4l-41.8,24c-2,1.1-3.6,4.4-3.6,7v77.7c0,1.2,0.3,2.1,0.9,2.5c0.5,0.3,1.2,0.1,1.7-0.2
										l41.7-24.1l0,0c2-1.1,3.6-4.4,3.6-7V12.8c0-1.2-0.3-2.1-0.9-2.5C79.3,10.2,79.2,10.2,79,10.2z"/>
								</g>
								<path class="st1" d="M34,124c-0.5,0-0.9-0.1-1.4-0.3c-0.1,0-0.2-0.1-0.2-0.1l-7.3-4.2c-0.1,0-0.2-0.1-0.2-0.2
									c-1.1-0.8-1.7-2.2-1.7-4V37.4c0-1.7,0.5-3.5,1.4-5.2c0.4-0.8,0.9-1.4,1.4-2c0-0.1,0.1-0.1,0.1-0.1c0.2-0.3,0.5-0.5,0.7-0.7
									c0.3-0.3,0.6-0.5,1-0.7L69.5,4.6c1.2-0.7,2.4-0.8,3.5-0.3c0.1,0,0.2,0.1,0.2,0.1l7.3,4.2c0.1,0,0.2,0.1,0.2,0.2
									c1.1,0.8,1.7,2.2,1.7,4v77.7c0,3.4-2,7.3-4.6,8.8l-41.7,24.1C35.4,123.8,34.7,124,34,124z M33.2,121.7c0.1,0,0.1,0,0.2,0.1
									c0.6,0.3,1.2,0.1,1.7-0.2l41.7-24.1c2-1.1,3.6-4.4,3.6-7V12.8c0-1.2-0.4-2.1-0.9-2.4c-0.1,0-0.1-0.1-0.2-0.1l-6.9-4
									c-0.1,0-0.1,0-0.2-0.1c-0.6-0.3-1.2-0.1-1.7,0.2l-41.7,24c-0.2,0.1-0.4,0.3-0.7,0.5c-0.2,0.1-0.3,0.3-0.5,0.5l-0.1,0.1
									c-0.4,0.5-0.8,1-1.2,1.7c-0.8,1.4-1.2,2.9-1.2,4.3v77.7c0,1.2,0.4,2.1,0.9,2.4c0.1,0,0.1,0.1,0.2,0.1L33.2,121.7z"/>
								<g>
									<path class="st2" d="M66.3,13.2c-0.2-2.8-1.9-5.9-4-7.1c-1-0.6-1.9-0.6-2.6-0.2l0,0L38.6,18.2l0,0c0.7-0.4,1.6-0.4,2.6,0.2
										c2,1.2,3.8,4.2,4,7.1l0.7,10.4l21.2-12.2L66.3,13.2z"/>
									<path class="st3" d="M41.2,18.4c1.3,0.8,2.5,2.4,3.3,4.2l21.2-12.2C65,8.6,63.8,7,62.4,6.3c-1-0.6-1.9-0.6-2.6-0.2l0,0
										L38.6,18.2l0,0C39.3,17.8,40.2,17.8,41.2,18.4z"/>
									<g>
										<path class="st1" d="M45.9,36.9c-0.2,0-0.3,0-0.5-0.1c-0.3-0.2-0.5-0.5-0.5-0.8l-0.7-10.4c-0.2-2.5-1.7-5.3-3.5-6.3
											c-0.5-0.3-1.1-0.5-1.6-0.2l0,0l0,0c-0.5,0.3-1.1,0.1-1.3-0.4c-0.2-0.4-0.1-0.9,0.2-1.2c0.1,0,0.1-0.1,0.2-0.1L59.3,5.1
											c0,0,0,0,0.1,0c1-0.6,2.3-0.5,3.5,0.2c2.3,1.3,4.2,4.7,4.5,7.9l0,0l0.7,10.4c0,0.4-0.2,0.7-0.5,0.9L46.4,36.7
											C46.3,36.8,46.1,36.9,45.9,36.9z M41.7,17.5c2.3,1.3,4.2,4.7,4.5,7.9l0.6,8.8L66,23.1l-0.7-9.8C65.2,10.8,63.6,8,61.9,7
											c-0.4-0.2-1.1-0.5-1.6-0.2c0,0,0,0-0.1,0L41.7,17.5z"/>
									</g>
									<path class="st3" d="M51.8,12.3l3.5-2c0.1-0.6,0.2-1.2,0.2-1.8c0-2.8-1.7-4-3.7-2.8c-2.1,1.2-3.7,4.4-3.7,7.2
										c0,0.6,0.1,1.1,0.2,1.5L51.8,12.3z"/>
									
										<ellipse transform="matrix(0.3916 -0.9201 0.9201 0.3916 21.7708 54.1115)" class="st1" cx="51.8" cy="10.6" rx="1.8" ry="1"/>
									<path class="st1" d="M48.3,15.3c-0.4,0-0.8-0.3-1-0.7C47.1,14,47,13.4,47,12.8c0-3.1,1.9-6.6,4.2-8C52.5,4,53.7,4,54.7,4.5
										c1.1,0.7,1.8,2.1,1.8,3.9c0,0.6-0.1,1.3-0.2,2c-0.1,0.5-0.7,0.9-1.2,0.7c-0.5-0.1-0.9-0.7-0.7-1.2c0.1-0.6,0.2-1.1,0.2-1.6
										c0-1.1-0.3-1.9-0.8-2.2c-0.5-0.3-1.1,0-1.5,0.2c-1.8,1-3.2,3.9-3.2,6.3c0,0.5,0.1,0.9,0.2,1.2c0.2,0.5-0.1,1.1-0.7,1.3
										C48.5,15.3,48.4,15.3,48.3,15.3z"/>
								</g>
								<path class="st4" d="M49.7,53.1c-0.5,0-1-0.3-1.3-0.8c-0.4-0.7-0.2-1.6,0.5-2l19.2-11.1c0.7-0.4,1.6-0.2,2,0.5
									s0.2,1.6-0.5,2L50.5,52.9C50.2,53,50,53.1,49.7,53.1z"/>
								<path class="st4" d="M49.7,67.1c-0.5,0-1-0.3-1.3-0.8c-0.4-0.7-0.2-1.6,0.5-2l16.9-9.7c0.7-0.4,1.6-0.2,2,0.5s0.2,1.6-0.5,2
									l-16.9,9.7C50.2,67,50,67.1,49.7,67.1z"/>
								<path class="st4" d="M49.7,81.1c-0.5,0-1-0.3-1.3-0.8c-0.4-0.7-0.2-1.6,0.5-2l22.8-13.2c0.7-0.4,1.6-0.2,2,0.5
									s0.2,1.6-0.5,2L50.5,80.9C50.2,81,50,81.1,49.7,81.1z"/>
								<path class="st4" d="M49.7,95.1c-0.5,0-1-0.3-1.3-0.8c-0.4-0.7-0.2-1.6,0.5-2L66,82.4c0.7-0.4,1.6-0.2,2,0.5s0.2,1.6-0.5,2
									l-17.1,9.9C50.2,95,50,95.1,49.7,95.1z"/>
								<path class="st4" d="M42.6,99.2c-0.4,0-0.8-0.2-1.1-0.5c-0.1-0.1-0.2-0.3-0.3-0.5s-0.1-0.4-0.1-0.6c0-0.4,0.2-0.8,0.4-1.1
									c0.3-0.3,0.9-0.5,1.4-0.4c0.1,0,0.2,0,0.3,0.1c0.1,0,0.2,0.1,0.3,0.1s0.2,0.1,0.2,0.2c0.3,0.3,0.4,0.7,0.4,1.1
									c0,0.2,0,0.4-0.1,0.6s-0.2,0.3-0.3,0.5C43.4,99,43,99.2,42.6,99.2z"/>
								<path class="st4" d="M42.6,85.2c-0.2,0-0.4,0-0.6-0.1s-0.3-0.2-0.5-0.3c-0.1-0.1-0.2-0.3-0.3-0.5s-0.1-0.4-0.1-0.6
									c0-0.1,0-0.2,0-0.3c0-0.1,0-0.2,0.1-0.3s0.1-0.2,0.1-0.3c0-0.1,0.1-0.2,0.2-0.2c0.6-0.6,1.6-0.6,2.1,0
									c0.1,0.1,0.1,0.1,0.2,0.2c0.1,0.1,0.1,0.2,0.1,0.3s0.1,0.2,0.1,0.3c0,0.1,0,0.2,0,0.3c0,0.2,0,0.4-0.1,0.6s-0.2,0.3-0.3,0.5
									C43.4,85,43,85.2,42.6,85.2z"/>
								<path class="st4" d="M42.6,71.2c-0.4,0-0.8-0.2-1.1-0.5s-0.4-0.6-0.4-1c0-0.1,0-0.2,0-0.3c0-0.1,0-0.2,0.1-0.3
									s0.1-0.2,0.1-0.3c0-0.1,0.1-0.2,0.2-0.2c0.3-0.3,0.9-0.5,1.4-0.4c0.1,0,0.2,0,0.3,0.1c0.1,0,0.2,0.1,0.3,0.1
									s0.2,0.1,0.2,0.2c0.1,0.1,0.1,0.1,0.2,0.2C44,68.9,44,69,44,69.1s0.1,0.2,0.1,0.3c0,0.1,0,0.2,0,0.3c0,0.2,0,0.4-0.1,0.6
									s-0.2,0.3-0.3,0.5s-0.3,0.3-0.5,0.3C43,71.1,42.8,71.2,42.6,71.2z"/>
								<path class="st4" d="M42.6,57.2c-0.4,0-0.8-0.2-1.1-0.4c-0.1-0.2-0.2-0.3-0.3-0.5s-0.1-0.4-0.1-0.6c0-0.4,0.2-0.8,0.4-1.1
									c0.4-0.3,0.9-0.5,1.4-0.4c0.1,0,0.2,0,0.3,0.1c0.1,0,0.2,0.1,0.3,0.1s0.2,0.1,0.2,0.2c0.3,0.3,0.4,0.7,0.4,1.1
									c0,0.2,0,0.4-0.1,0.6c-0.1,0.2-0.2,0.3-0.3,0.5c-0.1,0.1-0.3,0.2-0.5,0.3C43,57.1,42.8,57.2,42.6,57.2z"/>
							</g>
						</g>
					</g>
					<g>
						<g>
							<path class="st2" d="M99,78.2L99,78.2l-6.1-3.5l0,0c-2.4-1.4-5.6-1.3-9.1,0.7c-7.7,4.4-13.9,16.4-13.9,26.6
								c0,5.6,1.9,9.6,4.8,11.3l0,0l6.1,3.5l0,0c2.4,1.4,5.6,1.3,9.1-0.7c7.7-4.4,13.9-16.4,13.9-26.6C103.8,83.8,102,79.9,99,78.2z
								"/>
							<path class="st0" d="M84.4,118.7c-1.4,0-2.8-0.3-4-1c0,0-0.1,0-0.1-0.1l-6.1-3.5c0,0-0.1,0-0.1-0.1c-3.3-2-5.2-6.4-5.2-12.1
								c0-10.6,6.5-22.9,14.4-27.5c3.6-2.1,7.2-2.4,10-0.8c0,0,0.1,0,0.1,0.1l6.1,3.5c0,0,0.1,0,0.1,0.1c3.3,2,5.2,6.4,5.2,12.1
								c0,10.6-6.5,22.9-14.4,27.5C88.3,118.1,86.3,118.7,84.4,118.7z M81.2,115.9L81.2,115.9c2.3,1.3,5.2,1.1,8.2-0.7
								c7.4-4.3,13.4-15.8,13.4-25.8c0-5-1.6-8.8-4.3-10.4c0,0-0.1,0-0.1-0.1l-5.9-3.4c0,0-0.1,0-0.1-0.1c-2.2-1.3-5.1-1-8.1,0.7
								c-7.4,4.3-13.4,15.8-13.4,25.8c0,5,1.6,8.8,4.3,10.4c0,0,0.1,0,0.1,0.1L81.2,115.9z"/>
						</g>
						<g>
							<path class="st0" d="M73.2,87.9c-2.1,4.5-3.4,9.5-3.4,14.1c0,5.6,1.9,9.6,4.8,11.3l0,0l6.1,3.5l0,0c0.4,0.2,0.7,0.4,1.1,0.5
								L92.5,99L73.2,87.9z"/>
							<path class="st0" d="M81.9,118.3c-0.1,0-0.2,0-0.3-0.1c-0.4-0.2-0.8-0.3-1.2-0.5c0,0-0.1,0-0.1-0.1l-6.1-3.5
								c0,0-0.1,0-0.1-0.1c-3.3-2-5.2-6.4-5.2-12.1c0-4.6,1.2-9.8,3.5-14.5c0.1-0.3,0.3-0.4,0.6-0.5c0.3-0.1,0.6-0.1,0.8,0.1
								L93,98.1c0.5,0.3,0.6,0.9,0.4,1.4l-10.6,18.3C82.6,118.1,82.2,118.3,81.9,118.3z M81.2,115.9
								C81.2,115.9,81.3,115.9,81.2,115.9c0.2,0.1,0.2,0.2,0.3,0.2l9.6-16.7L73.7,89.3c-1.9,4.2-2.9,8.7-2.9,12.7
								c0,5,1.6,8.8,4.3,10.4c0,0,0.1,0,0.1,0.1L81.2,115.9z"/>
						</g>
						<path class="st0" d="M80.8,117.8c-0.2,0-0.3,0-0.5-0.1l-6.1-3.5c0,0-0.1,0-0.1-0.1c-3.3-2-5.2-6.4-5.2-12.1
							c0-10.6,6.5-22.9,14.4-27.5c3.6-2.1,7.2-2.4,10-0.8c0,0,0.1,0,0.1,0.1l6.1,3.5c0.5,0.3,0.6,0.8,0.4,1.3l-1.6,3.3
							c0.2,1.2,0.3,2.6,0.3,4c0,10.6-6.5,22.9-14.4,27.5c-0.3,0.2-0.7,0.4-1,0.5l-1.6,3.3c-0.1,0.3-0.3,0.4-0.6,0.5
							C81,117.8,80.9,117.8,80.8,117.8z M75.2,112.4l5.1,2.9l1.2-2.6c0.1-0.2,0.3-0.4,0.5-0.5c0.4-0.2,0.8-0.4,1.2-0.6
							c7.4-4.3,13.4-15.8,13.4-25.8c0-1.4-0.1-2.7-0.4-3.9c0-0.2,0-0.4,0.1-0.6l1.3-2.8l-5.2-3c0,0-0.1,0-0.1-0.1
							c-2.2-1.3-5.1-1-8.1,0.7c-7.4,4.3-13.4,15.8-13.4,25.8C70.8,107,72.4,110.8,75.2,112.4L75.2,112.4z"/>
						<g>
							
								<ellipse transform="matrix(0.3916 -0.9201 0.9201 0.3916 -35.0012 142.0446)" class="st3" cx="89.9" cy="97.5" rx="21.4" ry="12.1"/>
							<path class="st0" d="M84.4,118.7c-1.5,0-2.8-0.4-4.1-1.1c-3.4-2-5.3-6.4-5.3-12.1c0-10.6,6.5-22.9,14.4-27.5
								c3.7-2.1,7.3-2.4,10.1-0.7c3.4,2,5.3,6.4,5.3,12.1c0,10.6-6.5,22.9-14.4,27.5C88.3,118.1,86.3,118.7,84.4,118.7z M95.4,78.3
								c-1.6,0-3.3,0.5-5,1.5C83,84.1,77,95.6,77,105.5c0,5,1.6,8.8,4.3,10.4c2.2,1.3,5.1,1,8.1-0.7c7.4-4.3,13.4-15.8,13.4-25.8
								c0-5-1.6-8.8-4.3-10.4C97.6,78.5,96.5,78.3,95.4,78.3z"/>
						</g>
						<g>
							<path class="st2" d="M101.4,101.2l-11.6-3.7v18.6C94.7,113.3,98.9,107.6,101.4,101.2z"/>
							<path class="st0" d="M89.9,117.1c-0.2,0-0.3,0-0.5-0.1c-0.3-0.2-0.5-0.5-0.5-0.9V97.5c0-0.3,0.2-0.6,0.4-0.8s0.6-0.2,0.9-0.1
								l11.6,3.7c0.3,0.1,0.5,0.3,0.6,0.5s0.1,0.5,0,0.8c-2.7,6.8-7.2,12.6-12,15.4C90.2,117,90.1,117.1,89.9,117.1z M90.9,98.9
								v15.4c3.6-2.7,7-7.1,9.2-12.4L90.9,98.9z"/>
						</g>
						<g>
							<path class="st0" d="M89.9,97.5l11.6,3.7l0,0c1.5-3.8,2.4-7.9,2.4-11.8L89.9,97.5z"/>
							<path class="st0" d="M101.4,102.2c-0.1,0-0.2,0-0.3,0l-11.6-3.7c-0.4-0.1-0.6-0.5-0.7-0.8c0-0.4,0.2-0.8,0.5-1l13.9-8
								c0.3-0.2,0.7-0.2,1,0s0.5,0.5,0.5,0.9c0,3.8-0.8,8-2.4,12.1C102.2,102,101.8,102.2,101.4,102.2z M92.3,97.2l8.5,2.7
								c1.1-3,1.7-5.9,1.9-8.8L92.3,97.2z"/>
						</g>
						<path class="st1" d="M84.4,118.7c-1.4,0-2.8-0.3-4-1c0,0-0.1,0-0.1-0.1l-6.1-3.5c0,0-0.1,0-0.1-0.1c-3.3-2-5.2-6.4-5.2-12.1
							c0-10.6,6.5-22.9,14.4-27.5c3.6-2.1,7.2-2.4,10-0.8c0,0,0.1,0,0.1,0.1l6.1,3.5c0,0,0.1,0,0.1,0.1c3.3,2,5.2,6.4,5.2,12.1
							c0,10.6-6.5,22.9-14.4,27.5C88.3,118.1,86.3,118.7,84.4,118.7z M81.2,115.9L81.2,115.9c2.3,1.3,5.2,1.1,8.2-0.7
							c7.4-4.3,13.4-15.8,13.4-25.8c0-5-1.6-8.8-4.3-10.4c0,0-0.1,0-0.1-0.1l-5.9-3.4c0,0-0.1,0-0.1-0.1c-2.2-1.3-5.1-1-8.1,0.7
							c-7.4,4.3-13.4,15.8-13.4,25.8c0,5,1.6,8.8,4.3,10.4c0,0,0.1,0,0.1,0.1L81.2,115.9z"/>
					</g>
				</g>
				<rect x="4" y="4" class="st5" width="120" height="120"/>
				<rect x="4" y="4" class="st5" width="120" height="120"/>
			</g>
		</g>
	</g>
	<g>
		<rect class="st5" width="128" height="128"/>
	</g>
</g>
</svg>
