<?xml version="1.0" encoding="utf-8"?>
<!-- Generator: Adobe Illustrator 24.1.0, SVG Export Plug-In . SVG Version: 6.00 Build 0)  -->
<svg version="1.1" id="Layer_1" xmlns="http://www.w3.org/2000/svg" xmlns:xlink="http://www.w3.org/1999/xlink" x="0px" y="0px"
	 viewBox="0 0 128 128" style="enable-background:new 0 0 128 128;" xml:space="preserve">
<style type="text/css">
	.st0{fill:#4D9987;}
	.st1{fill:#0E352C;}
	.st2{fill:#E9EBDF;}
	.st3{fill:#FFFFFF;}
	.st4{fill:#C4D7D3;}
	.st5{fill:#27ae60;}
	.st6{fill:none;}
</style>
<g id="Layer_1_1_">
</g>
<g>
	<g id="Layer_2_1_">
		<g id="Tech_Concepts_1_">
			<g>
				<g>
					<g>
						<g>
							<g>
								<path class="st0" d="M91.2,9.5l-7.3-4.2l0,0c-0.7-0.4-1.7-0.4-2.7,0.2L39.5,29.6c-2.3,1.3-4.1,4.8-4.1,7.9v77.7
									c0,1.7,0.6,2.8,1.4,3.3l0,0l7.3,4.2l2.8-8.7l34.3-19.8c2.3-1.3,4.1-4.8,4.1-7.9V22L91.2,9.5z"/>
								<path class="st0" d="M57.1,35.9l-0.7-10.4c-0.2-2.8-1.9-5.9-4-7.1l0,0c-2-1.2-3.8-0.1-4,2.5l-0.7,9.5"/>
								<path class="st1" d="M57.1,36.9c-0.5,0-1-0.4-1-0.9l-0.7-10.4c-0.2-2.5-1.7-5.3-3.5-6.3c-0.4-0.2-1-0.5-1.6-0.2
									c-0.5,0.3-0.8,1-0.9,1.9l-0.8,9.5c0,0.6-0.5,1-1.1,0.9c-0.6,0-1-0.5-0.9-1.1l0.8-9.5c0.1-1.7,0.8-3,2-3.5
									c1-0.5,2.3-0.4,3.5,0.3c2.3,1.3,4.2,4.7,4.5,7.9l0.7,10.4C58.1,36.3,57.7,36.8,57.1,36.9C57.2,36.9,57.1,36.9,57.1,36.9z"/>
								<path class="st2" d="M83.9,5.3c-0.7-0.4-1.7-0.4-2.7,0.2L39.5,29.6c-1.1,0.6-2.1,1.8-2.8,3.1l48.7,28.1V22l5.9-12.5
									L83.9,5.3L83.9,5.3z"/>
								<g>
									<path class="st3" d="M88.5,98.4l-41.7,24.1c-2.3,1.3-4.1-0.1-4.1-3.1V41.7c0-3,1.8-6.6,4.1-7.9L88.5,9.7
										c2.3-1.3,4.1,0.1,4.1,3.1v77.7C92.6,93.6,90.8,97.1,88.5,98.4z"/>
									<path class="st0" d="M45.2,124c-0.6,0-1.1-0.1-1.6-0.4c-1.2-0.7-1.9-2.2-1.9-4.2V41.7c0-3.4,2-7.3,4.6-8.8L88,8.8
										C89.3,8,90.6,8,91.7,8.6c1.2,0.7,1.9,2.2,1.9,4.2v77.7c0,3.4-2,7.3-4.6,8.8l-41.7,24.1C46.6,123.8,45.8,124,45.2,124z
										 M90.1,10.2c-0.4,0-0.8,0.2-1.1,0.4l-41.7,24c-2,1.1-3.6,4.4-3.6,7v77.7c0,1.2,0.3,2.1,0.9,2.5c0.5,0.3,1.2,0.1,1.7-0.2
										l41.7-24l0,0c2-1.1,3.6-4.4,3.6-7V12.8c0-1.2-0.3-2.1-0.9-2.5C90.5,10.2,90.3,10.2,90.1,10.2z"/>
								</g>
								<path class="st1" d="M45.2,124c-0.5,0-0.9-0.1-1.4-0.3c-0.1,0-0.2-0.1-0.2-0.1l-7.3-4.2c-0.1,0-0.2-0.1-0.2-0.2
									c-1.1-0.8-1.7-2.2-1.7-4V37.4c0-1.7,0.5-3.5,1.4-5.2c0.4-0.8,0.9-1.4,1.4-2c0-0.1,0.1-0.1,0.1-0.1c0.2-0.3,0.5-0.5,0.7-0.7
									c0.3-0.3,0.6-0.5,1-0.7L80.7,4.6c1.2-0.7,2.4-0.8,3.5-0.3c0.1,0,0.2,0.1,0.2,0.1l7.3,4.2c0.1,0,0.2,0.1,0.2,0.2
									c1.1,0.8,1.7,2.2,1.7,4v77.7c0,3.4-2,7.3-4.6,8.8l-41.7,24.1C46.6,123.8,45.9,124,45.2,124z M44.4,121.7
									c0.1,0,0.1,0,0.2,0.1c0.6,0.3,1.2,0.1,1.7-0.2l41.7-24c2-1.1,3.6-4.4,3.6-7V12.8c0-1.2-0.4-2.1-0.9-2.4
									c-0.1,0-0.1-0.1-0.2-0.1l-6.9-4c-0.1,0-0.1,0-0.2-0.1c-0.6-0.3-1.2-0.1-1.7,0.2L40,30.4c-0.2,0.1-0.4,0.3-0.7,0.5
									c-0.2,0.1-0.3,0.3-0.5,0.5l-0.1,0.1c-0.4,0.5-0.8,1-1.2,1.7c-0.8,1.4-1.2,2.9-1.2,4.3v77.7c0,1.2,0.4,2.1,0.9,2.4
									c0.1,0,0.1,0.1,0.2,0.1L44.4,121.7z"/>
								<g>
									<path class="st2" d="M77.5,13.2c-0.2-2.8-1.9-5.9-4-7.1c-1-0.6-1.9-0.6-2.6-0.2l0,0L49.8,18.2l0,0c0.7-0.4,1.6-0.4,2.6,0.2
										c2,1.2,3.8,4.2,4,7.1l0.7,10.4l21.2-12.2L77.5,13.2z"/>
									<path class="st3" d="M52.4,18.4c1.3,0.8,2.5,2.4,3.3,4.2l21.2-12.2C76.2,8.6,75,7,73.6,6.3c-1-0.6-1.9-0.6-2.6-0.2l0,0
										L49.8,18.2l0,0C50.5,17.8,51.4,17.8,52.4,18.4z"/>
									<g>
										<path class="st1" d="M57.1,36.9c-0.2,0-0.3,0-0.5-0.1c-0.3-0.2-0.5-0.5-0.5-0.8l-0.7-10.4c-0.2-2.5-1.7-5.3-3.5-6.3
											c-0.5-0.3-1.1-0.5-1.6-0.2l0,0l0,0c-0.5,0.3-1.1,0.1-1.3-0.4c-0.2-0.4-0.1-0.9,0.2-1.2c0.1,0,0.1-0.1,0.2-0.1L70.5,5.1
											c0,0,0,0,0.1,0c1-0.6,2.3-0.5,3.5,0.2c2.3,1.3,4.2,4.7,4.5,7.9l0,0l0.7,10.4c0,0.4-0.2,0.7-0.5,0.9L57.6,36.7
											C57.5,36.8,57.3,36.9,57.1,36.9z M52.9,17.5c2.3,1.3,4.2,4.7,4.5,7.9l0.6,8.8l19.2-11.1l-0.7-9.8C76.4,10.8,74.8,8,73.1,7
											c-0.4-0.2-1.1-0.5-1.6-0.2c0,0,0,0-0.1,0L52.9,17.5z"/>
									</g>
									<path class="st3" d="M63,12.3l3.5-2c0.1-0.6,0.2-1.2,0.2-1.8c0-2.8-1.7-4-3.7-2.8c-2.1,1.2-3.7,4.4-3.7,7.2
										c0,0.6,0.1,1.1,0.2,1.5L63,12.3z"/>
									
										<ellipse transform="matrix(0.3916 -0.9201 0.9201 0.3916 28.5927 64.4011)" class="st1" cx="63" cy="10.6" rx="1.8" ry="1"/>
									<path class="st1" d="M59.5,15.3c-0.4,0-0.8-0.3-1-0.7c-0.2-0.6-0.3-1.2-0.3-1.8c0-3.1,1.9-6.6,4.2-8
										C63.7,4,64.9,4,65.9,4.5c1.1,0.7,1.8,2.1,1.8,3.9c0,0.6-0.1,1.3-0.2,2c-0.1,0.5-0.7,0.9-1.2,0.7c-0.5-0.1-0.9-0.7-0.7-1.2
										c0.1-0.6,0.2-1.1,0.2-1.6c0-1.1-0.3-1.9-0.8-2.2c-0.5-0.3-1.1,0-1.5,0.2c-1.8,1-3.2,3.9-3.2,6.3c0,0.5,0.1,0.9,0.2,1.2
										c0.2,0.5-0.1,1.1-0.7,1.3C59.7,15.3,59.6,15.3,59.5,15.3z"/>
								</g>
								<g>
									<g>
										<path class="st2" d="M82.9,52.3L82.9,52.3l-6.1-3.5l0,0c-2.4-1.4-5.6-1.3-9.1,0.7c-7.7,4.5-14,16.4-14,26.6
											c0,5.6,1.9,9.6,4.8,11.3l0,0l6.1,3.5l0,0c2.4,1.4,5.6,1.3,9.1-0.7c7.7-4.4,13.9-16.4,13.9-26.6C87.7,58,85.9,54,82.9,52.3
											z"/>
										<path class="st0" d="M68.3,92.9c-1.4,0-2.8-0.3-4-1c0,0-0.1,0-0.1-0.1L58,88.3c0,0-0.1,0-0.1-0.1c-3.3-2-5.2-6.4-5.2-12.1
											c0-10.6,6.5-22.9,14.4-27.5c3.6-2.1,7.2-2.4,10-0.8c0,0,0.1,0,0.1,0.1l6.1,3.5c0,0,0.1,0,0.1,0.1c3.3,2,5.2,6.4,5.2,12.1
											c0,10.6-6.5,22.9-14.4,27.5C72.2,92.3,70.2,92.9,68.3,92.9z M65.1,90C65.1,90,65.1,90.1,65.1,90c2.3,1.3,5.2,1.1,8.2-0.7
											c7.4-4.3,13.4-15.8,13.4-25.8c0-5-1.6-8.8-4.3-10.4c0,0-0.1,0-0.1-0.1l-5.9-3.4h-0.1c-2.2-1.3-5.1-1-8.1,0.7
											c-7.4,4.3-13.4,15.8-13.4,25.8c0,5,1.6,8.8,4.3,10.4c0,0,0.1,0,0.1,0.1L65.1,90z"/>
									</g>
									<g>
										<path class="st0" d="M57.1,62c-2.1,4.5-3.4,9.5-3.4,14.1c0,5.6,1.9,9.6,4.8,11.3l0,0l6.1,3.5l0,0c0.4,0.2,0.7,0.4,1.1,0.5
											l10.6-18.3L57.1,62z"/>
										<path class="st0" d="M65.8,92.5c-0.1,0-0.2,0-0.3-0.1c-0.4-0.2-0.8-0.3-1.2-0.5c0,0-0.1,0-0.1-0.1L58,88.3
											c0,0-0.1,0-0.1-0.1c-3.3-2-5.2-6.4-5.2-12.1c0-4.6,1.2-9.8,3.5-14.5c0.1-0.3,0.3-0.4,0.6-0.5s0.6-0.1,0.8,0.1l19.2,11.1
											c0.2,0.1,0.4,0.4,0.5,0.6c0.1,0.3,0,0.5-0.1,0.8L66.7,92C66.5,92.3,66.1,92.5,65.8,92.5z M65.1,90
											C65.1,90,65.2,90,65.1,90c0.2,0.1,0.2,0.2,0.3,0.2L75,73.5L57.6,63.4c-1.9,4.2-2.9,8.7-2.9,12.7c0,5,1.6,8.8,4.3,10.4
											c0,0,0.1,0,0.1,0.1L65.1,90z"/>
									</g>
									<path class="st0" d="M64.7,92c-0.2,0-0.3,0-0.5-0.1L58,88.3c0,0-0.1,0-0.1-0.1c-3.3-2-5.2-6.4-5.2-12.1
										c0-10.6,6.5-22.9,14.4-27.5c3.6-2.1,7.2-2.4,10-0.8c0,0,0.1,0,0.1,0.1l6.1,3.5c0.5,0.3,0.6,0.8,0.4,1.3L82.1,56
										c0.2,1.2,0.3,2.6,0.3,4c0,10.6-6.5,22.9-14.4,27.5c-0.3,0.2-0.7,0.4-1,0.5l-1.6,3.3c-0.1,0.3-0.3,0.4-0.6,0.5
										C64.9,91.9,64.8,92,64.7,92z M59.1,86.6l5.1,2.9l1.2-2.6c0.1-0.2,0.3-0.4,0.5-0.5c0.4-0.2,0.8-0.4,1.2-0.6
										C74.5,81.5,80.5,70,80.5,60c0-1.4-0.1-2.7-0.4-3.9c0-0.2,0-0.4,0.1-0.6l1.3-2.8l-5.2-3h-0.1c-2.2-1.3-5.1-1-8.1,0.7
										c-7.4,4.3-13.4,15.8-13.4,25.8C54.7,81.2,56.3,85,59.1,86.6L59.1,86.6z"/>
									<g>
										
											<ellipse transform="matrix(0.3916 -0.9201 0.9201 0.3916 -21.0266 111.4465)" class="st3" cx="73.8" cy="71.6" rx="21.4" ry="12.1"/>
										<path class="st0" d="M68.3,92.9c-1.5,0-2.8-0.4-4.1-1.1c-3.4-2-5.3-6.4-5.3-12.1c0-10.6,6.5-22.9,14.4-27.5
											c3.7-2.1,7.3-2.4,10.1-0.7c3.4,2,5.3,6.4,5.3,12.1c0,10.6-6.5,22.9-14.4,27.5C72.2,92.3,70.2,92.9,68.3,92.9z M79.3,52.4
											c-1.6,0-3.3,0.5-5,1.5c-7.4,4.3-13.4,15.8-13.4,25.8c0,5,1.6,8.8,4.3,10.4c2.2,1.3,5.1,1,8.1-0.7
											c7.4-4.3,13.4-15.8,13.4-25.8c0-5-1.6-8.8-4.3-10.4C81.5,52.7,80.4,52.4,79.3,52.4z"/>
									</g>
									<g>
										<path class="st4" d="M85.3,75.4l-11.6-3.7v18.6C78.6,87.4,82.8,81.8,85.3,75.4z"/>
										<path class="st5" d="M73.8,91.2c-0.2,0-0.3,0-0.5-0.1c-0.3-0.2-0.5-0.5-0.5-0.9V71.6c0-0.3,0.2-0.6,0.4-0.8
											c0.3-0.2,0.6-0.2,0.9-0.1l11.6,3.7c0.3,0.1,0.5,0.3,0.6,0.5s0.1,0.5,0,0.8c-2.7,6.8-7.2,12.6-12,15.4
											C74.1,91.2,74,91.2,73.8,91.2z M74.8,73v15.4c3.6-2.7,7-7.1,9.2-12.4L74.8,73z"/>
									</g>
									<g>
										<path class="st2" d="M73.8,71.6l11.6,3.7l0,0c1.5-3.8,2.4-7.9,2.4-11.8L73.8,71.6z"/>
										<path class="st0" d="M85.3,76.4c-0.1,0-0.2,0-0.3,0l-11.6-3.7c-0.4-0.1-0.6-0.5-0.7-0.8c0-0.4,0.2-0.8,0.5-1l13.9-8
											c0.3-0.2,0.7-0.2,1,0s0.5,0.5,0.5,0.9c0,3.8-0.8,8-2.4,12.1C86.1,76.1,85.7,76.4,85.3,76.4z M76.2,71.4l8.5,2.7
											c1.1-3,1.7-5.9,1.9-8.8L76.2,71.4z"/>
									</g>
									<path class="st1" d="M68.3,92.9c-1.4,0-2.8-0.3-4-1c0,0-0.1,0-0.1-0.1L58,88.3c0,0-0.1,0-0.1-0.1c-3.3-2-5.2-6.4-5.2-12.1
										c0-10.6,6.5-22.9,14.4-27.5c3.6-2.1,7.2-2.4,10-0.8c0,0,0.1,0,0.1,0.1l6.1,3.5c0,0,0.1,0,0.1,0.1c3.3,2,5.2,6.4,5.2,12.1
										c0,10.6-6.5,22.9-14.4,27.5C72.2,92.3,70.2,92.9,68.3,92.9z M65.1,90C65.1,90,65.1,90.1,65.1,90c2.3,1.3,5.2,1.1,8.2-0.7
										c7.4-4.3,13.4-15.8,13.4-25.8c0-5-1.6-8.8-4.3-10.4c0,0-0.1,0-0.1-0.1l-5.9-3.4h-0.1c-2.2-1.3-5.1-1-8.1,0.7
										c-7.4,4.3-13.4,15.8-13.4,25.8c0,5,1.6,8.8,4.3,10.4c0,0,0.1,0,0.1,0.1L65.1,90z"/>
								</g>
							</g>
						</g>
					</g>
				</g>
				<rect x="4" y="4" class="st6" width="120" height="120"/>
				<rect x="4" y="4" class="st6" width="120" height="120"/>
			</g>
		</g>
	</g>
	<g>
		<rect class="st6" width="128" height="128"/>
	</g>
</g>
</svg>
