<?xml version="1.0" encoding="utf-8"?>
<!-- Generator: Adobe Illustrator 24.1.0, SVG Export Plug-In . SVG Version: 6.00 Build 0)  -->
<svg version="1.1" id="Layer_1" xmlns="http://www.w3.org/2000/svg" xmlns:xlink="http://www.w3.org/1999/xlink" x="0px" y="0px"
	 viewBox="0 0 128 128" style="enable-background:new 0 0 128 128;" xml:space="preserve">
<style type="text/css">
	.st0{fill:#185849;}
	.st1{fill:#FFFFFF;}
	.st2{fill:#27ae60;}
	.st3{fill:#E9EBDF;}
	.st4{fill:#4D9987;}
	.st5{fill:#0E352C;}
	.st6{fill:none;}
</style>
<g id="Layer_1_1_">
</g>
<g>
	<g id="Layer_2_1_">
		<g id="Tech_Concepts_1_">
			<g>
				<g>
					<g>
						<path class="st0" d="M54.6,118.1c-0.1,0-0.3,0-0.4-0.1c-0.1,0-0.2-0.1-0.3-0.2c-0.2-0.2-0.3-0.4-0.3-0.7
							c0-0.3,0.1-0.5,0.3-0.7c0.4-0.4,1-0.4,1.4,0c0.2,0.2,0.3,0.4,0.3,0.7c0,0.3-0.1,0.5-0.3,0.7c-0.1,0.1-0.2,0.2-0.3,0.2
							C54.9,118.1,54.8,118.1,54.6,118.1z"/>
						<path class="st0" d="M49.1,115.3c-0.5-0.3-0.7-0.9-0.4-1.4l0,0c0.3-0.5,0.9-0.7,1.3-0.4l0,0c0.5,0.3,0.7,0.9,0.4,1.3l0,0
							c-0.2,0.3-0.5,0.5-0.9,0.5l0,0C49.5,115.4,49.3,115.4,49.1,115.3z M44.1,112.5c-0.5-0.3-0.7-0.9-0.4-1.4l0,0
							c0.3-0.5,0.9-0.7,1.3-0.4l0,0c0.5,0.3,0.7,0.9,0.4,1.4l0,0c-0.2,0.3-0.5,0.5-0.9,0.5l0,0C44.5,112.7,44.3,112.6,44.1,112.5z"
							/>
						<path class="st0" d="M39.6,109.9c-0.1,0-0.3,0-0.4-0.1c-0.1-0.1-0.2-0.1-0.3-0.2s-0.2-0.2-0.2-0.3c0-0.1-0.1-0.2-0.1-0.4
							c0-0.3,0.1-0.5,0.3-0.7c0.4-0.4,1-0.4,1.4,0c0.2,0.2,0.3,0.4,0.3,0.7c0,0.3-0.1,0.5-0.3,0.7C40.1,109.8,39.9,109.9,39.6,109.9
							z"/>
					</g>
					<g>
						<path class="st1" d="M66.7,88.9l-29.9,17.3c-1.6,0.9-2.9-0.1-2.9-2.2V31.3c0-2.2,1.3-4.7,2.9-5.6L66.7,8.4
							c1.6-0.9,2.9,0.1,2.9,2.2v72.6C69.6,85.4,68.3,87.9,66.7,88.9z"/>
						<path class="st2" d="M35.6,107.5c-0.4,0-0.9-0.1-1.3-0.3c-1-0.6-1.5-1.7-1.5-3.2V31.3c0-2.5,1.5-5.4,3.4-6.5l30-17.3
							c1-0.6,2.1-0.6,2.9-0.2c1,0.6,1.5,1.7,1.5,3.2v72.6c0,2.5-1.5,5.4-3.4,6.5L37.3,107C36.7,107.3,36.1,107.5,35.6,107.5z
							 M67.8,9c-0.2,0-0.5,0.1-0.7,0.2L37.3,26.5c-1.3,0.8-2.4,2.9-2.4,4.8v72.6c0,0.9,0.3,1.4,0.5,1.5c0.3,0.2,0.7,0,0.9-0.2
							L66.2,88l0,0c1.3-0.8,2.4-2.9,2.4-4.8V10.6c0-0.9-0.3-1.4-0.5-1.5C68,9.1,67.9,9,67.8,9z"/>
					</g>
					<path class="st0" d="M35.6,107.5c-0.4,0-0.8-0.1-1.2-0.3h-0.1l-5.3-3c0,0-0.1,0-0.1-0.1c-0.9-0.6-1.4-1.7-1.4-3.2V28.2
						c0-2.5,1.5-5.4,3.4-6.5l30-17.2c1-0.6,2-0.6,2.8-0.2h0.1l5.3,3c0,0,0.1,0,0.1,0.1c0.9,0.6,1.4,1.7,1.4,3.2v72.6
						c0,2.5-1.5,5.4-3.4,6.5L37.3,107C36.7,107.3,36.1,107.5,35.6,107.5z M35.3,105.4L35.3,105.4c0.4,0.2,0.8,0,1-0.1L66.2,88
						c1.3-0.8,2.4-2.9,2.4-4.8V10.6c0-0.9-0.3-1.4-0.5-1.5H68l-5.1-3h-0.1c-0.3-0.2-0.7,0-0.9,0.2L32,23.5c-1.3,0.8-2.4,2.9-2.4,4.8
						v72.6c0,0.9,0.3,1.4,0.5,1.5c0,0,0.1,0,0.1,0.1L35.3,105.4z"/>
					<g>
						<path class="st3" d="M98.4,24.7l-5.3-3l0,0c-0.5-0.3-1.2-0.3-1.9,0.2L61.3,39.1c-1.6,0.9-2.9,3.5-2.9,5.6v72.6
							c0,1.2,0.4,2,1,2.4l0,0l5.3,3l2-7.5l23.5-13.6c1.6-0.9,2.9-3.5,2.9-5.6V37L98.4,24.7z"/>
						<path class="st4" d="M64.7,123.8c-0.2,0-0.3,0-0.5-0.1l-5.3-3c0,0-0.1,0-0.1-0.1c-0.9-0.6-1.4-1.7-1.4-3.2V44.7
							c0-2.5,1.5-5.4,3.4-6.5L90.7,21c1-0.6,2-0.6,2.8-0.2h0.1l5.3,3c0.4,0.3,0.6,0.8,0.4,1.3l-5.2,12.2v58.8c0,2.5-1.5,5.4-3.4,6.5
							L67.6,116l-1.9,7.1c-0.1,0.3-0.3,0.5-0.6,0.7C64.9,123.8,64.8,123.8,64.7,123.8z M60,118.9l4.1,2.4l1.7-6.2
							c0.1-0.3,0.2-0.5,0.5-0.6l23.5-13.6c1.3-0.8,2.4-2.9,2.4-4.8v-59c0-0.1,0-0.3,0.1-0.4l4.9-11.6l-4.4-2.6h-0.1
							c-0.3-0.2-0.7,0-0.9,0.2L61.8,40c-1.3,0.8-2.4,2.9-2.4,4.8v72.6C59.4,118.3,59.7,118.7,60,118.9C59.9,118.9,60,118.9,60,118.9
							z"/>
					</g>
					<path class="st4" d="M59.2,41.6c-0.5,1-0.8,2.1-0.8,3.1v72.6c0,1.2,0.4,2,1,2.4l0,0l5.3,3l2-7.5l23.5-13.6
						c1.6-0.9,2.9-3.5,2.9-5.6V61.2L59.2,41.6z"/>
					<g>
						<path class="st3" d="M96.5,105.4l-29.9,17.3c-1.6,0.9-2.9-0.1-2.9-2.2V47.8c0-2.2,1.3-4.7,2.9-5.6l29.9-17.3
							c1.6-0.9,2.9,0.1,2.9,2.2v72.6C99.5,101.9,98.1,104.4,96.5,105.4z"/>
						<path class="st4" d="M65.4,124c-0.4,0-0.9-0.1-1.3-0.3c-1-0.6-1.5-1.7-1.5-3.2V47.8c0-2.5,1.5-5.4,3.4-6.5L96,24
							c1-0.6,2.1-0.6,2.9-0.2c1,0.6,1.5,1.7,1.5,3.2v72.6c0,2.5-1.5,5.4-3.4,6.5l-29.9,17.3C66.5,123.8,66,124,65.4,124z M97.7,25.5
							c-0.2,0-0.5,0.1-0.7,0.2L67.1,43c-1.3,0.8-2.4,2.9-2.4,4.8v72.6c0,0.9,0.3,1.4,0.5,1.5c0.3,0.2,0.7,0,0.9-0.2L96,104.5l0,0
							c1.3-0.8,2.4-2.9,2.4-4.8V27.1c0-0.9-0.3-1.4-0.5-1.5C97.9,25.6,97.8,25.5,97.7,25.5z"/>
					</g>
					<path class="st1" d="M99.5,42.8V27.1c0-2.2-1.3-3.2-2.9-2.2l-30,17.3c-1.6,0.9-2.9,3.5-2.9,5.6v57L99.5,42.8z"/>
					<path class="st1" d="M65.6,122.1c-0.1,0-0.3,0-0.4-0.1c-0.3-0.1-0.5-0.3-0.5-0.6c-0.1-0.2-0.1-0.5-0.1-1V47.8
						c0-1.9,1.2-4.1,2.5-4.9L97,25.6c0.1,0,0.1-0.1,0.2-0.1c0.3-0.1,0.6-0.1,0.8,0c0.3,0.1,0.5,0.3,0.6,0.6c0.1,0.3,0.1,0.6,0.1,1
						v72.6c0,1.9-1.2,4.1-2.5,4.9l-29.9,17.3c-0.1,0-0.1,0.1-0.2,0.1C65.9,122.1,65.7,122.1,65.6,122.1z M96.6,28.1L68,44.6
						c-0.7,0.4-1.5,1.9-1.5,3.2v71.6l28.6-16.5c0.7-0.4,1.5-1.9,1.5-3.2V28.1z"/>
					<path class="st4" d="M65.4,124c-0.4,0-0.9-0.1-1.3-0.3c-1-0.6-1.5-1.7-1.5-3.2V47.8c0-2.5,1.5-5.4,3.4-6.5L96,24
						c1-0.6,2.1-0.6,2.9-0.2c1,0.6,1.5,1.7,1.5,3.2v72.6c0,2.5-1.5,5.4-3.4,6.5l-29.9,17.3C66.5,123.8,66,124,65.4,124z M97.7,25.5
						c-0.2,0-0.5,0.1-0.7,0.2L67.1,43c-1.3,0.8-2.4,2.9-2.4,4.8v72.6c0,0.9,0.3,1.4,0.5,1.5c0.3,0.2,0.7,0,0.9-0.2L96,104.5l0,0
						c1.3-0.8,2.4-2.9,2.4-4.8V27.1c0-0.9-0.3-1.4-0.5-1.5C97.9,25.6,97.8,25.5,97.7,25.5z"/>
					<path class="st5" d="M65.4,124c-0.4,0-0.8-0.1-1.2-0.3c0,0-0.1,0-0.1-0.1l-5.3-3c0,0-0.1,0-0.1-0.1c-0.9-0.6-1.4-1.7-1.4-3.2
						V44.7c0-2.5,1.5-5.4,3.4-6.5l30-17.2c1-0.6,2-0.6,2.8-0.2h0.1l5.3,3c0,0,0.1,0,0.1,0.1c0.9,0.6,1.4,1.7,1.4,3.2v72.6
						c0,2.5-1.5,5.4-3.4,6.5l-29.9,17.3C66.5,123.8,66,124,65.4,124z M65.1,121.9C65.1,121.9,65.2,121.9,65.1,121.9
						c0.4,0.2,0.8,0,1-0.1L96,104.5c1.3-0.8,2.4-2.9,2.4-4.8V27.1c0-0.9-0.3-1.4-0.5-1.5c0,0-0.1,0-0.1-0.1l-5.1-3h-0.1
						c-0.3-0.2-0.7,0-0.9,0.2L61.8,40c-1.3,0.8-2.4,2.9-2.4,4.8v72.6c0,0.9,0.3,1.4,0.5,1.5c0,0,0,0,0.1,0L65.1,121.9z"/>
					<g>
						
							<ellipse transform="matrix(0.3916 -0.9201 0.9201 0.3916 16.1945 97.1961)" class="st4" cx="81.6" cy="36.4" rx="3.3" ry="1.9"/>
						<path class="st4" d="M80.7,40.5c-0.4,0-0.7-0.1-1-0.3c-0.8-0.5-1.2-1.4-1.2-2.6c0-1.9,1.2-4.1,2.6-5c0.8-0.5,1.7-0.5,2.4-0.1
							c0.8,0.5,1.2,1.4,1.2,2.6c0,1.9-1.2,4.1-2.6,5C81.6,40.4,81.1,40.5,80.7,40.5z M82.4,34.3c-0.1,0-0.2,0-0.4,0.1
							c-0.9,0.5-1.6,2-1.6,3.2c0,0.6,0.2,0.8,0.2,0.9c0,0,0.2,0,0.4-0.1c0.9-0.5,1.6-2,1.6-3.2C82.7,34.6,82.5,34.3,82.4,34.3
							C82.5,34.3,82.4,34.3,82.4,34.3z"/>
					</g>
					<g>
						<path class="st4" d="M85.9,31c-1.2,0.7-2.1,2.5-2.1,4.1l-4.3,2.5c0-1.6-1-2.3-2.1-1.6L85.9,31z"/>
						<path class="st4" d="M79.4,38.6c-0.2,0-0.3,0-0.5-0.1c-0.3-0.2-0.5-0.5-0.5-0.9c0-0.6-0.2-0.8-0.2-0.9c0,0-0.2,0-0.4,0.1
							c-0.5,0.3-1.1,0.1-1.4-0.4s-0.1-1.1,0.4-1.4l0,0l0,0l8.6-5c0.5-0.3,1.1-0.1,1.4,0.4s0.1,1.1-0.4,1.4c-0.9,0.5-1.6,2-1.6,3.2
							c0,0.4-0.2,0.7-0.5,0.9L80,38.4C79.8,38.6,79.6,38.6,79.4,38.6z M79.9,35.7c0.1,0.1,0.2,0.3,0.2,0.4l2.6-1.5
							c0-0.2,0.1-0.4,0.1-0.6L79.9,35.7z"/>
					</g>
					<g>
						<path class="st5" d="M88.4,20.1c-0.3,0-0.5-0.1-0.7-0.3c-0.1-0.1-0.2-0.2-0.2-0.3c0-0.1-0.1-0.2-0.1-0.4c0-0.1,0-0.3,0.1-0.4
							s0.1-0.2,0.2-0.3c0.4-0.4,1-0.4,1.4,0c0.1,0.1,0.2,0.2,0.2,0.3s0.1,0.2,0.1,0.4c0,0.1,0,0.3-0.1,0.4s-0.1,0.2-0.2,0.3
							C89,19.9,88.9,20,88.8,20S88.5,20.1,88.4,20.1z"/>
						<path class="st5" d="M82.9,17.2c-0.5-0.3-0.7-0.9-0.4-1.4l0,0c0.3-0.5,0.9-0.7,1.4-0.4l0,0c0.5,0.3,0.7,0.9,0.4,1.4l0,0
							c-0.2,0.3-0.5,0.5-0.9,0.5l0,0C83.2,17.3,83,17.3,82.9,17.2z M77.9,14.5c-0.5-0.3-0.7-0.9-0.4-1.4l0,0
							c0.3-0.5,0.9-0.7,1.3-0.4l0,0c0.5,0.3,0.7,0.9,0.4,1.4l0,0c-0.2,0.3-0.5,0.5-0.9,0.5l0,0C78.2,14.6,78,14.6,77.9,14.5z"/>
						<path class="st5" d="M73.4,11.9c-0.1,0-0.3,0-0.4-0.1s-0.2-0.1-0.3-0.2c-0.1-0.1-0.2-0.2-0.2-0.3s-0.1-0.2-0.1-0.4
							c0-0.1,0-0.3,0.1-0.4c0.1-0.1,0.1-0.2,0.2-0.3S72.9,10,73,10c0.2-0.1,0.5-0.1,0.8,0c0.1,0,0.2,0.1,0.3,0.2
							c0.2,0.2,0.3,0.4,0.3,0.7s-0.1,0.5-0.3,0.7c-0.1,0.1-0.2,0.2-0.3,0.2C73.6,11.8,73.5,11.9,73.4,11.9z"/>
					</g>
				</g>
				<rect x="4" y="4" class="st6" width="120" height="120"/>
				<rect x="4" y="4" class="st6" width="120" height="120"/>
			</g>
		</g>
	</g>
	<g>
		<rect class="st6" width="128" height="128"/>
	</g>
</g>
</svg>
