<?xml version="1.0" encoding="utf-8"?>
<!-- Generator: Adobe Illustrator 24.1.0, SVG Export Plug-In . SVG Version: 6.00 Build 0)  -->
<svg version="1.1" id="Layer_1" xmlns="http://www.w3.org/2000/svg" xmlns:xlink="http://www.w3.org/1999/xlink" x="0px" y="0px"
	 viewBox="0 0 128 128" style="enable-background:new 0 0 128 128;" xml:space="preserve">
<style type="text/css">
	.st0{fill:#FFFFFF;}
	.st1{fill:#4D9987;}
	.st2{fill:#E9EBDF;}
	.st3{fill:#0E352C;}
	.st4{fill:#27ae60;}
	.st5{fill:#185849;}
	.st6{fill:none;}
</style>
<g id="Layer_1_1_">
</g>
<g>
	<g id="Layer_2_1_">
		<g id="Objects_1_">
			<g>
				<g>
					<g>
						<g>
							<g>
								<g>
									<path class="st0" d="M104.4,9.9L96,5.1l0,0c-0.2-0.1-0.5-0.1-0.8,0L24.4,46c-0.7,0.4-1.2,1.4-1.2,2.3V117
										c0,0.5,0.2,0.8,0.4,1l0,0l8.4,4.9l7.1-13.4l56.1-37.9c0.7-0.4,1.2-1.4,1.2-2.3V20.6L104.4,9.9z"/>
									<path class="st1" d="M32,123.9c-0.2,0-0.3,0-0.5-0.1l-8.4-4.9c-0.1,0-0.1-0.1-0.2-0.1c-0.5-0.4-0.8-1-0.8-1.7V48.4
										c0-1.3,0.7-2.6,1.7-3.2L94.7,4.3c0.5-0.3,1.1-0.4,1.6-0.1c0.1,0,0.1,0,0.2,0.1l8.4,4.9c0.2,0.1,0.4,0.4,0.5,0.7
										s0,0.6-0.2,0.8l-7.8,10.4v48.3c0,1.3-0.7,2.6-1.7,3.2l-55.9,37.7l-7,13.2c-0.1,0.2-0.3,0.4-0.6,0.5
										C32.2,123.9,32.1,123.9,32,123.9z M24.2,117.3l7.4,4.3l6.6-12.5c0.1-0.1,0.2-0.3,0.3-0.4l56.1-37.9
										c0.4-0.2,0.8-0.9,0.8-1.5V20.6c0-0.2,0.1-0.4,0.2-0.6l7.3-9.8L95.7,6L24.9,46.9c-0.3,0.2-0.7,0.9-0.7,1.5v68.7
										C24.2,117.2,24.2,117.2,24.2,117.3C24.2,117.2,24.2,117.3,24.2,117.3z"/>
								</g>
								<path class="st2" d="M31.6,122.7V41.9L24.4,46c-0.7,0.4-1.2,1.4-1.2,2.3V117c0,0.5,0.2,0.8,0.4,1l0,0L31.6,122.7z"/>
								<g>
									<path class="st1" d="M70.8,85.7l24.4-14.1c0.7-0.4,1.2-1.4,1.2-2.3V20.6l8-10.7L96,5.1l0,0c-0.2-0.1-0.5-0.1-0.8,0L24.4,46
										c-0.7,0.4-1.2,1.4-1.2,2.3v9.8L70.8,85.7z"/>
									<path class="st3" d="M70.8,86.7c-0.2,0-0.3,0-0.5-0.1L22.7,59c-0.3-0.2-0.5-0.5-0.5-0.9v-9.8c0-1.3,0.7-2.6,1.7-3.2
										L94.7,4.3c0.5-0.3,1.1-0.4,1.6-0.1c0.1,0,0.1,0,0.2,0.1l8.4,4.9c0.2,0.1,0.4,0.4,0.5,0.7s0,0.6-0.2,0.8l-7.8,10.4v48.3
										c0,1.3-0.7,2.6-1.7,3.2L71.3,86.5C71.2,86.6,71,86.7,70.8,86.7z M24.2,57.6l46.7,26.9l23.9-13.8c0.3-0.2,0.7-0.9,0.7-1.5
										V20.6c0-0.2,0.1-0.4,0.2-0.6l7.3-9.8L95.7,6L24.9,46.9c-0.3,0.2-0.7,0.9-0.7,1.5C24.2,48.4,24.2,57.6,24.2,57.6z"/>
								</g>
								<path class="st2" d="M73.1,77.2l23.3-32.6v-24l8-10.7L96,5.1l0,0c-0.2-0.1-0.5-0.1-0.8,0L24.4,46c-0.7,0.4-1.2,1.4-1.2,2.3
									l0,0L73.1,77.2z"/>
								<g>
									<path class="st0" d="M103.6,82l-70.8,40.9c-0.7,0.4-1.2,0-1.2-0.9V53.2c0-0.9,0.5-1.9,1.2-2.3L103.6,10
										c0.7-0.4,1.2,0,1.2,0.9v68.7C104.8,80.5,104.3,81.6,103.6,82z"/>
									<path class="st1" d="M32.3,124c-0.3,0-0.6-0.1-0.8-0.2c-0.6-0.3-0.9-1-0.9-1.9V53.2c0-1.3,0.7-2.6,1.7-3.2l70.8-40.9
										c0.6-0.4,1.3-0.4,1.8-0.1c0.6,0.3,0.9,1,0.9,1.9v68.7c0,1.3-0.7,2.6-1.7,3.2l0,0l-70.8,40.9C33,123.9,32.6,124,32.3,124z
										 M103.8,11L33.3,51.8c-0.3,0.2-0.7,0.9-0.7,1.5v68.6l70.5-40.7l0,0c0.3-0.2,0.7-0.9,0.7-1.5C103.8,79.7,103.8,11,103.8,11z
										 M103.6,82L103.6,82L103.6,82z"/>
								</g>
								<path class="st3" d="M32.3,124c-0.2,0-0.4,0-0.6-0.1c-0.1,0-0.1,0-0.2-0.1l-8.4-4.9c-0.1,0-0.1-0.1-0.2-0.1
									c-0.5-0.4-0.8-1-0.8-1.7V48.4c0-1.3,0.7-2.6,1.7-3.2L94.7,4.3c0.5-0.3,1.1-0.4,1.6-0.1c0.1,0,0.1,0,0.2,0.1l8.4,4.9
									c0.1,0,0.1,0.1,0.2,0.1c0.5,0.4,0.8,1,0.8,1.7v68.7c0,1.3-0.7,2.6-1.7,3.2l-70.8,40.9C33,123.9,32.7,124,32.3,124z
									 M24.2,117.3l8.1,4.7l70.8-40.9c0.3-0.2,0.7-0.9,0.7-1.5V10.9c0-0.1,0-0.1,0-0.2l0,0L95.7,6L24.9,46.9
									c-0.3,0.2-0.7,0.9-0.7,1.5v68.7C24.2,117.2,24.2,117.2,24.2,117.3C24.2,117.2,24.2,117.3,24.2,117.3z M103.9,10.8
									L103.9,10.8L103.9,10.8z"/>
								<g>
									<path class="st3" d="M104.8,20.7v-9.8c0-0.9-0.5-1.3-1.2-0.9L32.8,50.9c-0.7,0.4-1.2,1.4-1.2,2.3V63L104.8,20.7z"/>
									<path class="st3" d="M31.6,64c-0.2,0-0.3,0-0.5-0.1c-0.3-0.2-0.5-0.5-0.5-0.9v-9.8c0-1.3,0.7-2.6,1.7-3.2l70.8-40.9
										c0.6-0.4,1.3-0.4,1.8-0.1c0.6,0.3,0.9,1,0.9,1.9v9.8c0,0.4-0.2,0.7-0.5,0.9L32.1,63.9C31.9,64,31.8,64,31.6,64z M103.8,11
										L33.3,51.8c-0.3,0.2-0.7,0.9-0.7,1.5v8.1l71.3-41.1L103.8,11L103.8,11z M104.8,20.7L104.8,20.7L104.8,20.7z"/>
								</g>
								<g>
									
										<ellipse transform="matrix(0.3916 -0.9201 0.9201 0.3916 -20.9861 70.4565)" class="st2" cx="42.8" cy="51.1" rx="2.1" ry="1.2"/>
									
										<ellipse transform="matrix(0.3916 -0.9201 0.9201 0.3916 -14.9497 73.4591)" class="st0" cx="48.1" cy="48" rx="2.1" ry="1.2"/>
									
										<ellipse transform="matrix(0.3916 -0.9201 0.9201 0.3916 -27.2563 67.3028)" class="st1" cx="37.3" cy="54.3" rx="2.1" ry="1.2"/>
								</g>
							</g>
						</g>
					</g>
					<g>
						<path class="st4" d="M82.6,68.6l-2.3-0.4c-0.6-0.1-1-0.6-1-1.2c0-0.3,0-0.6,0-0.8c0-0.6,0-1.2-0.1-1.8l3.3-4.5
							c0.6-0.8,0.8-1.8,0.4-2.4L79.7,52c-0.3-0.6-1.1-0.4-1.6,0.4l-3.3,4.5c-0.7-0.3-1.5-0.5-2.3-0.5v-5.1c0-0.9-0.5-1.3-1.2-0.9
							L65,54c-0.7,0.4-1.2,1.4-1.2,2.3v5.1c-0.8,1-1.6,2-2.3,3.2L58.2,64c-0.6-0.1-1.3,0.6-1.6,1.5l-3.2,9.2
							c-0.3,0.9-0.1,1.8,0.4,1.9l3.3,0.6c0,0.6-0.1,1.2-0.1,1.8s0,1.2,0.1,1.8l-3.3,4.5c-0.6,0.8-0.8,1.8-0.4,2.4l3.2,5.5
							c0.3,0.6,1.1,0.4,1.6-0.4l3.3-4.5c0.7,0.3,1.5,0.5,2.3,0.5v5.1c0,0.9,0.5,1.3,1.2,0.9l6.4-3.7c0.7-0.4,1.2-1.4,1.2-2.3v-5.1
							c0.8-1,1.6-2,2.3-3.2l3.3,0.6c0.6,0.1,1.3-0.6,1.6-1.5l3.2-9.2C83.4,69.5,83.2,68.7,82.6,68.6z M68.2,79.9
							c-3,1.8-5.5-0.1-5.5-4.2c0-4,2.5-8.8,5.5-10.5c3-1.8,5.5,0.1,5.5,4.2C73.7,73.4,71.2,78.1,68.2,79.9z"/>
						<path class="st4" d="M64.5,95.9c-0.3,0-0.6-0.1-0.8-0.2c-0.6-0.3-0.9-1-0.9-1.8v-4.1c-0.3,0-0.7-0.1-1-0.2L59,93.4
							c-0.5,0.7-1.3,1.1-2,1.1c-0.6,0-1-0.3-1.3-0.8l-3.2-5.5c-0.6-1-0.2-2.6,0.5-3.5l3.1-4.2c0-0.5-0.1-1-0.1-1.5c0-0.3,0-0.7,0-1
							l-2.4-0.5c-0.5-0.1-0.9-0.4-1.1-0.8c-0.4-0.6-0.4-1.5-0.1-2.4l3.2-9.2c0.5-1.5,1.7-2.4,2.8-2.2l2.6,0.5
							c0.6-0.9,1.2-1.7,1.8-2.4v-4.7c0-1.2,0.7-2.6,1.7-3.1l6.4-3.7c0.6-0.3,1.2-0.4,1.8-0.1c0.6,0.3,0.9,1,0.9,1.8v4.1
							c0.3,0,0.7,0.1,1,0.2l2.9-3.9c0.5-0.7,1.3-1.1,2-1.1c0.6,0,1,0.3,1.3,0.8l3.2,5.5c0.6,1,0.2,2.6-0.5,3.5l-3.1,4.2
							c0,0.5,0.1,1,0.1,1.5c0,0.3,0,0.6,0,0.9c0,0.1,0.1,0.2,0.1,0.2l2.3,0.4c0.5,0.1,0.9,0.4,1.1,0.8c0.4,0.6,0.4,1.5,0.1,2.4
							L80.8,80c-0.5,1.5-1.7,2.4-2.8,2.2l-2.6-0.5c-0.6,0.9-1.2,1.7-1.8,2.4v4.7c0,1.2-0.7,2.6-1.7,3.1l-6.4,3.7
							C65.2,95.8,64.9,95.9,64.5,95.9z M63.8,87.8c0.3,0,0.5,0.1,0.7,0.3c0.2,0.2,0.3,0.4,0.3,0.7v4.9l6.1-3.5
							c0.3-0.2,0.7-0.8,0.7-1.4v-5.1c0-0.2,0.1-0.5,0.2-0.7c0.8-0.9,1.6-1.9,2.3-3c0.2-0.3,0.6-0.5,1-0.4l3.2,0.6
							c0.1-0.1,0.4-0.3,0.6-0.8l3.2-9.2c0.1-0.3,0.1-0.5,0.1-0.6l-2.1-0.4C79,69,78.3,68,78.3,67c0-0.3,0-0.5,0-0.8
							c0-0.6,0-1.1-0.1-1.7c0-0.2,0-0.5,0.2-0.7l3.3-4.5c0.4-0.5,0.4-1.2,0.4-1.3l-3-5.2c0,0-0.1,0.1-0.1,0.2l-3.3,4.5
							c-0.3,0.4-0.8,0.5-1.2,0.3c-0.6-0.3-1.3-0.4-1.9-0.4c-0.3,0-0.5-0.1-0.7-0.3s-0.3-0.4-0.3-0.7v-4.9L65.5,55
							c-0.3,0.2-0.7,0.8-0.7,1.4v5.1c0,0.2-0.1,0.5-0.2,0.7c-0.8,0.9-1.6,1.9-2.3,3c-0.2,0.3-0.6,0.5-1,0.4L58.1,65
							c-0.1,0.1-0.4,0.3-0.6,0.8L54.3,75c-0.1,0.3-0.1,0.5-0.1,0.6l3.1,0.6c0.5,0.1,0.9,0.6,0.8,1.1c0,0.6-0.1,1.1-0.1,1.7
							c0,0.5,0,1.1,0.1,1.7c0,0.2,0,0.5-0.2,0.7l-3.3,4.5c-0.4,0.5-0.4,1.2-0.4,1.3l3,5.2c0,0,0.1-0.1,0.1-0.2l3.3-4.5
							c0.3-0.4,0.8-0.5,1.2-0.3C62.5,87.7,63.1,87.8,63.8,87.8L63.8,87.8z M82.4,69.6L82.4,69.6L82.4,69.6z M66,81.5
							c-0.7,0-1.3-0.2-1.9-0.5c-1.5-0.9-2.4-2.8-2.4-5.3c0-4.4,2.6-9.4,6-11.4c1.6-0.9,3.3-1.1,4.6-0.3c1.5,0.9,2.4,2.8,2.4,5.3
							c0,4.4-2.6,9.4-6,11.4C67.8,81.3,66.9,81.5,66,81.5z M70.4,65.5c-0.6,0-1.2,0.3-1.7,0.5c-2.7,1.6-5,6-5,9.6
							c0,1.7,0.5,3.1,1.4,3.6s1.9,0.1,2.6-0.3c2.7-1.6,5-6,5-9.6c0-1.7-0.5-3.1-1.4-3.6C71,65.6,70.7,65.5,70.4,65.5z"/>
					</g>
					<path class="st5" d="M64.5,95.9c-0.3,0-0.6-0.1-0.8-0.2c-0.6-0.3-0.9-1-0.9-1.8v-4.1c-0.3,0-0.7-0.1-1-0.2L59,93.4
						c-0.5,0.7-1.3,1.1-2,1.1c-0.6,0-1-0.3-1.3-0.8l-3.2-5.5c-0.6-1-0.2-2.6,0.5-3.5l3.1-4.2c0-0.5-0.1-1-0.1-1.5c0-0.3,0-0.7,0-1
						l-2.4-0.5c-0.5-0.1-0.9-0.4-1.1-0.8c-0.4-0.6-0.4-1.5-0.1-2.4l3.2-9.2c0.5-1.5,1.7-2.4,2.8-2.2l2.6,0.5
						c0.6-0.9,1.2-1.7,1.8-2.4v-4.7c0-1.2,0.7-2.6,1.7-3.1l6.4-3.7c0.6-0.3,1.2-0.4,1.8-0.1c0.6,0.3,0.9,1,0.9,1.8v4.1
						c0.3,0,0.7,0.1,1,0.2l2.9-3.9c0.5-0.7,1.3-1.1,2-1.1c0.6,0,1,0.3,1.3,0.8l3.2,5.5c0.6,1,0.2,2.6-0.5,3.5l-3.1,4.2
						c0,0.5,0.1,1,0.1,1.5c0,0.3,0,0.6,0,0.9c0,0.1,0.1,0.2,0.1,0.2l2.3,0.4c0.5,0.1,0.9,0.4,1.1,0.8c0.4,0.6,0.4,1.5,0.1,2.4
						L80.8,80c-0.5,1.5-1.7,2.4-2.8,2.2l-2.6-0.5c-0.6,0.9-1.2,1.7-1.8,2.4v4.7c0,1.2-0.7,2.6-1.7,3.1l-6.4,3.7
						C65.2,95.8,64.9,95.9,64.5,95.9z M63.8,87.8c0.3,0,0.5,0.1,0.7,0.3c0.2,0.2,0.3,0.4,0.3,0.7v4.9l6.1-3.5
						c0.3-0.2,0.7-0.8,0.7-1.4v-5.1c0-0.2,0.1-0.5,0.2-0.7c0.8-0.9,1.6-1.9,2.3-3c0.2-0.3,0.6-0.5,1-0.4l3.2,0.6
						c0.1-0.1,0.4-0.3,0.6-0.8l3.2-9.2c0.1-0.3,0.1-0.5,0.1-0.6l-2.1-0.4C79,69,78.3,68,78.3,67c0-0.3,0-0.5,0-0.8
						c0-0.6,0-1.1-0.1-1.7c0-0.2,0-0.5,0.2-0.7l3.3-4.5c0.4-0.5,0.4-1.2,0.4-1.3l-3-5.2c0,0-0.1,0.1-0.1,0.2l-3.3,4.5
						c-0.3,0.4-0.8,0.5-1.2,0.3c-0.6-0.3-1.3-0.4-1.9-0.4c-0.3,0-0.5-0.1-0.7-0.3s-0.3-0.4-0.3-0.7v-4.9L65.5,55
						c-0.3,0.2-0.7,0.8-0.7,1.4v5.1c0,0.2-0.1,0.5-0.2,0.7c-0.8,0.9-1.6,1.9-2.3,3c-0.2,0.3-0.6,0.5-1,0.4L58.1,65
						c-0.1,0.1-0.4,0.3-0.6,0.8L54.3,75c-0.1,0.3-0.1,0.5-0.1,0.6l3.1,0.6c0.5,0.1,0.9,0.6,0.8,1.1c0,0.6-0.1,1.1-0.1,1.7
						c0,0.5,0,1.1,0.1,1.7c0,0.2,0,0.5-0.2,0.7l-3.3,4.5c-0.4,0.5-0.4,1.2-0.4,1.3l3,5.2c0,0,0.1-0.1,0.1-0.2l3.3-4.5
						c0.3-0.4,0.8-0.5,1.2-0.3C62.5,87.7,63.1,87.8,63.8,87.8L63.8,87.8z M82.4,69.6L82.4,69.6L82.4,69.6z M66,81.5
						c-0.7,0-1.3-0.2-1.9-0.5c-1.5-0.9-2.4-2.8-2.4-5.3c0-4.4,2.6-9.4,6-11.4c1.6-0.9,3.3-1.1,4.6-0.3c1.5,0.9,2.4,2.8,2.4,5.3
						c0,4.4-2.6,9.4-6,11.4C67.8,81.3,66.9,81.5,66,81.5z M70.4,65.5c-0.6,0-1.2,0.3-1.7,0.5c-2.7,1.6-5,6-5,9.6
						c0,1.7,0.5,3.1,1.4,3.6s1.9,0.1,2.6-0.3c2.7-1.6,5-6,5-9.6c0-1.7-0.5-3.1-1.4-3.6C71,65.6,70.7,65.5,70.4,65.5z"/>
				</g>
				<rect x="4" y="4" class="st6" width="120" height="120"/>
				<rect x="4" y="4" class="st6" width="120" height="120"/>
			</g>
		</g>
	</g>
	<g>
		<rect class="st6" width="128" height="128"/>
	</g>
</g>
</svg>
