<?xml version="1.0" encoding="utf-8"?>
<!-- Generator: Adobe Illustrator 24.1.0, SVG Export Plug-In . SVG Version: 6.00 Build 0)  -->
<svg version="1.1" id="Layer_1" xmlns="http://www.w3.org/2000/svg" xmlns:xlink="http://www.w3.org/1999/xlink" x="0px" y="0px"
	 viewBox="0 0 128 128" style="enable-background:new 0 0 128 128;" xml:space="preserve">
<style type="text/css">
	.st0{enable-background:new    ;}
	.st1{fill:#C4D7D3;}
	.st2{fill:#FFFFFF;}
	.st3{fill:#27ae60;}
	.st4{fill:#185849;}
	.st5{fill:#4D9987;}
	.st6{fill:#E9EBDF;}
	.st7{fill:#0E352C;}
	.st8{fill:none;}
</style>
<g id="Layer_1_1_">
</g>
<g>
	<g id="Layer_2_1_">
		<g id="Objects_1_">
			<g>
				<g>
					<g>
						<g>
							<g class="st0">
								<g>
									<polygon class="st1" points="91.1,89.2 78.1,82.7 75.6,99.1 91.1,108.2 									"/>
								</g>
								<g>
									<polygon class="st2" points="88.6,74.1 78.1,65.2 40.1,87.2 53,94.7 									"/>
								</g>
								<g>
									<polygon class="st1" points="88.5,54.8 75.6,47.3 75.6,66.6 88.6,74.1 									"/>
								</g>
								<g>
									<polygon class="st2" points="123.1,63 110.1,55.5 75.6,47.3 88.5,54.8 									"/>
								</g>
								<g>
									<g>
										<polygon class="st3" points="88.5,56.1 88.6,74.1 53,94.7 53.1,112.1 91.1,90.2 91.1,108.2 123.1,63 										"/>
										<path class="st3" d="M53.1,113.1c-0.2,0-0.3,0-0.5-0.1c-0.3-0.2-0.5-0.5-0.5-0.9V94.7c0-0.4,0.2-0.7,0.5-0.9l35.1-20.3V56
											c0-0.3,0.1-0.6,0.4-0.8c0.2-0.2,0.5-0.3,0.8-0.2l34.5,6.9c0.3,0.1,0.6,0.3,0.7,0.6s0.1,0.7-0.1,0.9l-32,45.2
											c-0.3,0.4-0.7,0.5-1.1,0.4s-0.7-0.5-0.7-1V91.8L53.6,113C53.4,113.1,53.2,113.1,53.1,113.1z M54,95.3v15.1l36.5-21.1
											c0.3-0.2,0.7-0.2,1,0s0.5,0.5,0.5,0.9V105l29.3-41.4l-31.8-6.4v16.9c0,0.4-0.2,0.7-0.5,0.9L54,95.3z"/>
									</g>
								</g>
								<g>
									<g>
										<polygon class="st1" points="53,94.7 40.1,87.2 40.1,104.6 53.1,112.1 										"/>
										<path class="st3" d="M53.1,113.1c-0.2,0-0.3,0-0.5-0.1l-13-7.5c-0.3-0.2-0.5-0.5-0.5-0.9V87.2c0-0.4,0.2-0.7,0.5-0.9
											c0.3-0.2,0.7-0.2,1,0l13,7.5c0.3,0.2,0.5,0.5,0.5,0.9v17.4c0,0.4-0.2,0.7-0.5,0.9C53.4,113.1,53.2,113.1,53.1,113.1z
											 M41.1,104l10.9,6.4V95.3l-10.9-6.4V104z"/>
									</g>
								</g>
							</g>
						</g>
						<path class="st4" d="M53.1,113.1c-0.2,0-0.3,0-0.5-0.1l-13-7.5c-0.3-0.2-0.5-0.5-0.5-0.9V87.2c0-0.4,0.2-0.7,0.5-0.9l35-20.2
							V46.6c0-0.3,0.1-0.6,0.4-0.8c0.2-0.2,0.6-0.3,0.9-0.2l34.5,8.8c0.1,0,0.2,0.1,0.3,0.1l13,7.5c0.2,0.1,0.4,0.4,0.5,0.7
							s0,0.6-0.2,0.8l-32,45.2c-0.3,0.4-0.9,0.5-1.3,0.3l-15-8.7l-22,12.7C53.4,113.1,53.2,113.1,53.1,113.1z M41.1,104l12,6.9
							l22-12.7c0.3-0.2,0.7-0.2,1,0l14.8,8.6l30.8-43.5l-11.9-6.9l-33.2-8.5v18.7c0,0.4-0.2,0.7-0.5,0.9l-35,20.2L41.1,104z
							 M75.6,66.7L75.6,66.7L75.6,66.7z"/>
					</g>
					<g>
						<g>
							<g class="st0">
								<g>
									<polygon class="st5" points="36.4,57.1 49.3,50.6 51.8,67 36.3,76.1 									"/>
								</g>
								<g>
									<polygon class="st2" points="38.8,42 49.4,33.1 87.3,55 74.4,62.6 									"/>
								</g>
								<g>
									<polygon class="st5" points="38.9,22.7 51.8,15.1 51.8,34.5 38.8,42 									"/>
								</g>
								<g>
									<polygon class="st2" points="5.1,30.5 18.2,22.9 51.8,15.1 38.9,22.7 									"/>
								</g>
								<g>
									<g>
										<polygon class="st6" points="38.9,23.9 38.8,42 74.4,62.6 74.3,80 36.4,58.1 36.3,76.1 5.1,30.5 										"/>
										<path class="st5" d="M74.3,81c-0.2,0-0.3,0-0.5-0.1L37.3,59.8V76c0,0.4-0.3,0.8-0.7,1c-0.4,0.1-0.9,0-1.1-0.4L4.2,31
											C4,30.8,4,30.4,4.1,30.1s0.4-0.5,0.7-0.6L38.7,23c0.3-0.1,0.6,0,0.8,0.2s0.4,0.5,0.4,0.8v17.5L75,61.8
											c0.3,0.2,0.5,0.5,0.5,0.9v17.4c0,0.4-0.2,0.7-0.5,0.9C74.7,81,74.5,81,74.3,81z M36.4,57.1c0.2,0,0.3,0,0.5,0.1l36.5,21.1
											V63.2L38.3,42.9c-0.3-0.2-0.5-0.5-0.5-0.9V25.1l-31.1,6l28.6,41.7V58c0-0.4,0.2-0.7,0.5-0.9C36,57.1,36.2,57.1,36.4,57.1z
											"/>
									</g>
								</g>
								<g>
									<polygon class="st5" points="74.4,62.6 87.3,55 87.3,72.5 74.3,80 									"/>
								</g>
							</g>
						</g>
					</g>
					<path class="st7" d="M74.3,81c-0.2,0-0.3,0-0.5-0.1l-22-12.7l-15,8.7c-0.5,0.3-1,0.1-1.3-0.3L4.2,31C4,30.8,4,30.5,4,30.2
						c0.1-0.3,0.2-0.5,0.5-0.6L17.7,22c0.1,0,0.2-0.1,0.3-0.1l33.7-7.8c0.3-0.1,0.6,0,0.8,0.2s0.4,0.5,0.4,0.8v18.8L88,54.1
						c0.3,0.2,0.5,0.5,0.5,0.9v17.4c0,0.4-0.2,0.7-0.5,0.9l-13,7.5C74.7,81,74.5,81,74.3,81z M51.8,66c0.2,0,0.3,0,0.5,0.1l22,12.7
						l12-6.9V55.6l-35-20.2c-0.3-0.2-0.5-0.5-0.5-0.9c0-0.1,0-0.2,0-0.2V16.4l-32.3,7.4l-12.1,7l30.1,43.9l14.7-8.6
						C51.5,66.1,51.7,66,51.8,66z"/>
				</g>
				<rect x="3.9" y="4" class="st8" width="120" height="120"/>
				<rect x="3.9" y="4" class="st8" width="120" height="120"/>
			</g>
		</g>
	</g>
	<g>
		<rect class="st8" width="128" height="128"/>
	</g>
</g>
</svg>
