<?xml version="1.0" encoding="utf-8"?>
<!-- Generator: Adobe Illustrator 24.1.0, SVG Export Plug-In . SVG Version: 6.00 Build 0)  -->
<svg version="1.1" id="Layer_1" xmlns="http://www.w3.org/2000/svg" xmlns:xlink="http://www.w3.org/1999/xlink" x="0px" y="0px"
	 viewBox="0 0 128 128" style="enable-background:new 0 0 128 128;" xml:space="preserve">
<style type="text/css">
	.st0{fill:#185849;}
	.st1{fill:#0E352C;}
	.st2{fill:#4D9987;}
	.st3{fill:#E9EBDF;}
	.st4{fill:#FFFFFF;}
	.st5{fill:#27ae60;}
	.st6{enable-background:new    ;}
	.st7{clip-path:url(#SVGID_4_);enable-background:new    ;}
	.st8{fill:none;}
	.st9{fill:#C4D7D3;}
	.st10{clip-path:url(#SVGID_7_);enable-background:new    ;}
	.st11{clip-path:url(#SVGID_9_);enable-background:new    ;}
</style>
<g id="Layer_1_1_">
</g>
<g>
	<g id="Layer_2_1_">
		<g id="New_Icon_Set_1_">
			<g>
				<g>
					<g>
						<path class="st0" d="M98.2,49.2c-0.1,0-0.3,0-0.4-0.1c-0.1,0-0.2-0.1-0.3-0.2c-0.1-0.1-0.2-0.2-0.2-0.3
							c-0.1-0.1-0.1-0.2-0.1-0.4c0-0.1,0-0.3,0.1-0.4c0-0.1,0.1-0.2,0.2-0.3c0.1,0,0.1-0.1,0.1-0.1c0.1,0,0.1-0.1,0.2-0.1
							s0.1,0,0.2,0c0.3-0.1,0.7,0,0.9,0.3c0.1,0.1,0.2,0.2,0.2,0.3c0.1,0.1,0.1,0.2,0.1,0.4c0,0.1,0,0.3-0.1,0.4
							c0,0.1-0.1,0.2-0.2,0.3C98.7,49.1,98.4,49.2,98.2,49.2z"/>
						<path class="st0" d="M97.2,69.8c0-0.6,0.4-1,1-1l0,0c0.6,0,1,0.4,1,1l0,0c0,0.5-0.4,1-1,1l0,0C97.6,70.8,97.2,70.4,97.2,69.8z
							 M97.2,64.4c0-0.5,0.4-1,1-1l0,0c0.6,0,1,0.5,1,1l0,0c0,0.5-0.4,1-1,1l0,0C97.6,65.4,97.2,65,97.2,64.4z M97.2,59
							c0-0.6,0.4-1,1-1l0,0c0.6,0,1,0.4,1,1l0,0c0,0.5-0.4,1-1,1l0,0C97.6,60,97.2,59.6,97.2,59z M97.2,53.6c0-0.5,0.4-1,1-1l0,0
							c0.6,0,1,0.5,1,1l0,0c0,0.5-0.4,1-1,1l0,0C97.6,54.6,97.2,54.2,97.2,53.6z"/>
						<path class="st0" d="M98.2,76.2c-0.1,0-0.3,0-0.4-0.1c-0.1,0-0.2-0.1-0.3-0.2c-0.1-0.1-0.2-0.2-0.2-0.3
							c-0.1-0.1-0.1-0.2-0.1-0.4s0-0.3,0.1-0.4c0-0.1,0.1-0.2,0.2-0.3c0.1-0.1,0.2-0.2,0.3-0.2c0.2-0.1,0.4-0.1,0.6-0.1
							c0.1,0,0.1,0,0.2,0.1c0.1,0,0.1,0,0.2,0.1c0.1,0,0.1,0.1,0.1,0.1c0.1,0.1,0.2,0.2,0.2,0.3c0.1,0.1,0.1,0.2,0.1,0.4
							s0,0.3-0.1,0.4c0,0.1-0.1,0.2-0.2,0.3c-0.1,0.1-0.2,0.2-0.3,0.2C98.4,76.2,98.3,76.2,98.2,76.2z"/>
					</g>
					<g>
						<path class="st1" d="M29.8,49.2c-0.3,0-0.5-0.1-0.7-0.3c-0.1-0.1-0.2-0.2-0.2-0.3s-0.1-0.2-0.1-0.4c0-0.1,0-0.3,0.1-0.4
							c0.1-0.1,0.1-0.2,0.2-0.3s0.2-0.2,0.3-0.2c0.2-0.1,0.4-0.1,0.6,0c0.1,0,0.1,0,0.2,0s0.1,0.1,0.2,0.1s0.1,0.1,0.1,0.1
							c0.1,0.1,0.2,0.2,0.2,0.3s0.1,0.2,0.1,0.4c0,0.3-0.1,0.5-0.3,0.7c-0.1,0.1-0.2,0.2-0.3,0.2S29.9,49.2,29.8,49.2z"/>
						<path class="st1" d="M28.8,69.8c0-0.6,0.4-1,1-1l0,0c0.5,0,1,0.4,1,1l0,0c0,0.5-0.5,1-1,1l0,0C29.2,70.8,28.8,70.4,28.8,69.8z
							 M28.8,64.4c0-0.5,0.4-1,1-1l0,0c0.5,0,1,0.5,1,1l0,0c0,0.5-0.5,1-1,1l0,0C29.2,65.4,28.8,65,28.8,64.4z M28.8,59
							c0-0.6,0.4-1,1-1l0,0c0.5,0,1,0.4,1,1l0,0c0,0.5-0.5,1-1,1l0,0C29.2,60,28.8,59.6,28.8,59z M28.8,53.6c0-0.5,0.4-1,1-1l0,0
							c0.5,0,1,0.5,1,1l0,0c0,0.5-0.5,1-1,1l0,0C29.2,54.6,28.8,54.2,28.8,53.6z"/>
						<path class="st1" d="M29.8,76.2c-0.1,0-0.3,0-0.4-0.1c-0.1,0-0.2-0.1-0.3-0.2c-0.1-0.1-0.2-0.2-0.2-0.3s-0.1-0.2-0.1-0.4
							s0-0.3,0.1-0.4c0-0.1,0.1-0.2,0.2-0.3c0.1,0,0.1-0.1,0.2-0.1s0.1-0.1,0.2-0.1s0.1-0.1,0.2-0.1s0.3,0,0.4,0s0.1,0,0.2,0.1
							c0.1,0,0.1,0,0.2,0.1c0.1,0,0.1,0.1,0.2,0.1c0.1,0.1,0.2,0.2,0.2,0.3c0,0.1,0.1,0.2,0.1,0.4s0,0.3-0.1,0.4s-0.1,0.2-0.2,0.3
							c-0.1,0.1-0.2,0.2-0.3,0.2C30,76.2,29.9,76.2,29.8,76.2z"/>
					</g>
					<g>
						<g>
							<g>
								<path class="st2" d="M72.1,81.2V81c0-1-1.3-1.7-2.9-1.7H58.8c-1.6,0-2.9,0.8-2.9,1.7v0.2H29.8v27.3l0,0
									c0,0.3,0.1,0.6,0.4,0.9l5.2,5.5c0.8,0.8,2.6,1.1,3.9,0.6l6.8-2.4c2.8,1.5,6.1,2.7,9.8,3.4v4.7c0,1,1.3,1.7,2.9,1.7h10.4
									c1.6,0,2.9-0.8,2.9-1.7v-4.7c3.7-0.7,7-1.9,9.8-3.4l6.8,2.4c1.4,0.5,3.1,0.2,3.9-0.6l5.2-5.5c0.3-0.3,0.4-0.6,0.4-0.9l0,0
									V96v-2V81.2H72.1z"/>
								<path class="st3" d="M81.9,113.1L81.9,113.1l6.8,2.4c0.6,0.2,1.4,0.3,2,0.2V90.9h-8.9L81.9,113.1L81.9,113.1z"/>
								<path class="st3" d="M30.2,109.4l5.2,5.5c0.6,0.6,1.6,0.9,2.6,0.9V81.2h-8.3v27.3l0,0C29.8,108.8,29.9,109.1,30.2,109.4z"/>
								<path class="st3" d="M46.1,113.1c2.8,1.5,6.1,2.7,9.8,3.4V87.9h-9.8V113.1L46.1,113.1z"/>
								<ellipse class="st3" cx="64" cy="88.5" rx="12" ry="7.2"/>
								<path class="st2" d="M46.1,114.1c-0.6,0-1-0.4-1-1V97.5c0-0.6,0.4-1,1-1s1,0.4,1,1v15.7C47.1,113.7,46.7,114.1,46.1,114.1z"
									/>
								<path class="st2" d="M55.9,122.3c-0.6,0-1-0.4-1-1v-15.7c0-0.6,0.4-1,1-1s1,0.4,1,1v15.7C56.9,121.8,56.4,122.3,55.9,122.3z
									"/>
								<path class="st2" d="M72.1,122.3c-0.6,0-1-0.4-1-1v-15.7c0-0.6,0.4-1,1-1s1,0.4,1,1v15.7C73.1,121.8,72.7,122.3,72.1,122.3z
									"/>
								<path class="st2" d="M81.9,114.1c-0.6,0-1-0.4-1-1V97.5c0-0.6,0.4-1,1-1s1,0.4,1,1v15.7C82.9,113.7,82.4,114.1,81.9,114.1z"
									/>
								<path class="st2" d="M52,88.5c0,4,5.4,7.2,12,7.2V81.3C57.4,81.3,52,84.5,52,88.5z"/>
							</g>
							<g>
								<path class="st4" d="M96.8,94.3L90,91.9c0.4-1.1,0.6-2.2,0.6-3.4c0-1.2-0.2-2.3-0.6-3.4l6.8-2.4c1.4-0.5,1.9-1.5,1.1-2.4
									l-5.2-5.5c-0.8-0.8-2.6-1.1-3.9-0.6L82,76.6c-2.8-1.5-6.1-2.7-9.8-3.4v-4.7c0-1-1.3-1.7-2.9-1.7H58.8
									c-1.6,0-2.9,0.8-2.9,1.7v4.7c-3.7,0.7-7,1.9-9.8,3.4l-6.8-2.4c-1.4-0.5-3.1-0.2-3.9,0.6l-5.2,5.5c-0.8,0.8-0.3,1.9,1.1,2.4
									l6.8,2.4c-0.4,1.1-0.6,2.2-0.6,3.4c0,1.2,0.2,2.3,0.6,3.4l-6.8,2.4c-1.4,0.5-1.9,1.5-1.1,2.4l5.2,5.5
									c0.8,0.8,2.6,1.1,3.9,0.6l6.8-2.4c2.8,1.5,6.1,2.7,9.8,3.4v4.7c0,1,1.3,1.7,2.9,1.7h10.4c1.6,0,2.9-0.8,2.9-1.7v-4.7
									c3.7-0.7,7-1.9,9.8-3.4l6.8,2.4c1.4,0.5,3.1,0.2,3.9-0.6l5.2-5.5C98.6,95.8,98.1,94.7,96.8,94.3z M64,95.7
									c-6.6,0-12-3.2-12-7.2s5.4-7.2,12-7.2s12,3.2,12,7.2S70.6,95.7,64,95.7z"/>
								<path class="st2" d="M69.2,111.2H58.8c-2.2,0-3.9-1.2-3.9-2.7v-3.9c-3.3-0.7-6.2-1.7-8.8-3.1l-6.4,2.2
									c-1.8,0.6-3.9,0.2-5-0.9l-5.2-5.5c-0.6-0.6-0.8-1.3-0.6-2c0.2-0.9,1-1.6,2.1-2l5.9-2.1c-0.2-0.9-0.4-1.8-0.4-2.8
									c0-0.9,0.1-1.9,0.4-2.8L31,83.5c-1.1-0.4-1.8-1.1-2.1-2c-0.2-0.7,0-1.5,0.6-2l5.2-5.5c1.1-1.1,3.2-1.5,5-0.9l6.4,2.2
									c2.6-1.4,5.6-2.4,8.8-3.1v-3.9c0-1.5,1.7-2.7,3.9-2.7h10.4c2.2,0,3.9,1.2,3.9,2.7v3.9c3.3,0.7,6.2,1.7,8.8,3.1l6.4-2.2
									c1.8-0.6,3.9-0.2,5,0.9l5.2,5.5c0.6,0.6,0.8,1.3,0.6,2c-0.2,0.9-1,1.6-2.1,2l-5.9,2.1c0.2,0.9,0.4,1.8,0.4,2.8
									c0,0.9-0.1,1.9-0.4,2.8l5.9,2.1l0,0c1.1,0.4,1.8,1.1,2.1,2c0.2,0.7,0,1.5-0.6,2l-5.2,5.5c-1.1,1.1-3.2,1.5-5,0.9l-6.4-2.2
									c-2.6,1.4-5.6,2.4-8.8,3.1v3.9C73.1,110,71.4,111.2,69.2,111.2z M46.1,99.4c0.2,0,0.3,0,0.5,0.1c2.7,1.5,6,2.6,9.5,3.3
									c0.5,0.1,0.8,0.5,0.8,1v4.7c0,0.2,0.7,0.7,1.9,0.7h10.4c1.2,0,1.9-0.6,1.9-0.7v-4.7c0-0.5,0.3-0.9,0.8-1
									c3.5-0.7,6.8-1.8,9.5-3.3c0.2-0.1,0.5-0.2,0.8-0.1l6.8,2.4c1.1,0.4,2.4,0.1,2.9-0.4l5.2-5.5c0,0,0.1-0.1,0.1-0.2
									s-0.3-0.4-0.8-0.5l-6.8-2.4c-0.3-0.1-0.5-0.3-0.6-0.5s-0.1-0.5,0-0.8c0.4-1,0.5-2,0.5-3.1c0-1-0.2-2.1-0.5-3.1
									c-0.1-0.3-0.1-0.5,0-0.8c0.1-0.2,0.3-0.4,0.6-0.5l6.8-2.4c0.5-0.2,0.7-0.4,0.8-0.5c0-0.1-0.1-0.2-0.1-0.2l-5.2-5.5
									c-0.5-0.5-1.8-0.8-2.9-0.4l-6.8,2.4c-0.3,0.1-0.6,0.1-0.8-0.1c-2.7-1.5-6-2.6-9.5-3.3c-0.5-0.1-0.8-0.5-0.8-1v-4.7
									c0-0.2-0.7-0.7-1.9-0.7H58.8c-1.2,0-1.9,0.6-1.9,0.7V73c0,0.5-0.3,0.9-0.8,1c-3.5,0.7-6.8,1.8-9.5,3.3
									c-0.2,0.1-0.5,0.2-0.8,0.1L39,75.2c-1.1-0.4-2.4-0.1-2.9,0.4l-5.2,5.5c0,0-0.1,0.1-0.1,0.2s0.3,0.4,0.8,0.5l6.8,2.4
									c0.3,0.1,0.5,0.3,0.6,0.5s0.1,0.5,0,0.8c-0.4,1-0.5,2-0.5,3.1c0,1,0.2,2.1,0.5,3.1c0.1,0.3,0.1,0.5,0,0.8
									c-0.1,0.2-0.3,0.4-0.6,0.5l-6.8,2.4c-0.5,0.2-0.7,0.4-0.8,0.5c0,0.1,0.1,0.2,0.1,0.2l5.2,5.5c0.5,0.5,1.8,0.8,2.9,0.4
									l6.8-2.4C45.9,99.4,46,99.4,46.1,99.4z M64,96.7c-7.3,0-13-3.6-13-8.2s5.7-8.2,13-8.2s13,3.6,13,8.2S71.3,96.7,64,96.7z
									 M64,82.3c-6,0-11,2.9-11,6.2c0,3.4,5,6.2,11,6.2s11-2.9,11-6.2C75,85.1,70,82.3,64,82.3z"/>
							</g>
							<path class="st1" d="M64,96.7c-7.3,0-13-3.6-13-8.2s5.7-8.2,13-8.2s13,3.6,13,8.2S71.3,96.7,64,96.7z M64,82.3
								c-6,0-11,2.9-11,6.2c0,3.4,5,6.2,11,6.2s11-2.9,11-6.2C75,85.1,70,82.3,64,82.3z M98.2,82.2c-0.6,0-1-0.4-1-1
								c0,0,0-0.1-0.1-0.2l-5.2-5.5c-0.5-0.5-1.8-0.8-2.9-0.4l-6.8,2.4c-0.3,0.1-0.6,0.1-0.8-0.1c-2.7-1.5-6-2.6-9.5-3.3
								c-0.5-0.1-0.8-0.5-0.8-1v-4.7c0-0.2-0.7-0.7-1.9-0.7H58.8c-1.2,0-1.9,0.6-1.9,0.7v4.7c0,0.5-0.3,0.9-0.8,1
								c-3.5,0.7-6.8,1.8-9.5,3.3c-0.2,0.1-0.5,0.2-0.8,0.1L39,75.2c-1.1-0.4-2.4-0.1-2.9,0.4l-5.2,5.5c-0.1,0.1-0.1,0.1-0.1,0.2
								c-0.1,0.5-0.6,0.9-1.2,0.8c-0.5-0.1-0.9-0.6-0.8-1.2c0.1-0.4,0.3-0.8,0.6-1.1l5.2-5.5c1.1-1.1,3.2-1.5,5-0.9l6.4,2.2
								c2.6-1.4,5.6-2.4,8.8-3.1v-3.9c0-1.5,1.7-2.7,3.9-2.7h10.4c2.2,0,3.9,1.2,3.9,2.7v3.9c3.3,0.7,6.2,1.7,8.8,3.1l6.4-2.2
								c1.8-0.6,3.9-0.2,5,0.9l5.2,5.5c0.4,0.5,0.7,1,0.7,1.6C99.2,81.8,98.8,82.2,98.2,82.2z"/>
						</g>
						<path class="st1" d="M69.2,124H58.8c-2.2,0-3.9-1.2-3.9-2.7v-3.9c-3.3-0.7-6.2-1.7-8.8-3.1l-6.4,2.2c-1.8,0.6-3.9,0.2-5-0.9
							l-5.2-5.5c-0.4-0.4-0.6-0.9-0.7-1.5v-0.1V81.2c0-0.6,0.4-1,1-1s1,0.4,1,1v27.2c0,0,0,0,0,0.1c0,0,0,0.1,0.1,0.2l5.2,5.5
							c0.5,0.5,1.8,0.8,2.9,0.4l6.8-2.4c0.3-0.1,0.6-0.1,0.8,0.1c2.7,1.5,6,2.6,9.5,3.3c0.5,0.1,0.8,0.5,0.8,1v4.7
							c0,0.2,0.7,0.7,1.9,0.7h10.4c1.2,0,1.9-0.6,1.9-0.7v-4.7c0-0.5,0.3-0.9,0.8-1c3.5-0.7,6.8-1.8,9.5-3.3
							c0.2-0.1,0.5-0.2,0.8-0.1l6.8,2.4c1.1,0.4,2.4,0.1,2.9-0.4l5.2-5.5c0.1-0.1,0.1-0.1,0.1-0.2c0,0,0,0,0-0.1V81.2
							c0-0.6,0.4-1,1-1s1,0.4,1,1v27.3v0.1c0,0.5-0.3,1-0.7,1.5l-5.2,5.5c-1.1,1.1-3.2,1.5-5,0.9l-6.4-2.2c-2.6,1.4-5.6,2.4-8.8,3.1
							v3.9C73.1,122.8,71.4,124,69.2,124z"/>
					</g>
					<g>
						<g>
							<g>
								<polygon class="st5" points="95.6,8.6 95.6,19.2 88.1,23.5 88.1,13 								"/>
							</g>
							<g>
								<polygon class="st5" points="79.9,17.7 79.9,28.2 72.4,32.6 72.5,22.1 								"/>
							</g>
							<g>
								<polygon class="st5" points="72.5,22.1 72.4,32.6 66.1,15.5 66.1,5 								"/>
							</g>
							<g class="st6">
								<g>
									<path id="SVGID_1_" class="st5" d="M41.4,37.4V26.9c0-3.3,2.2-6.7,6.6-9.2v9.8C44.8,29.3,41.4,34.1,41.4,37.4z"/>
								</g>
								<g>
									<defs>
										<path id="SVGID_2_" d="M41.4,37.4V26.9c0-3.3,2.2-6.7,6.6-9.2v9.8C44.8,29.3,41.4,34.1,41.4,37.4z"/>
									</defs>
									<clipPath id="SVGID_4_">
										<use xlink:href="#SVGID_2_"  style="overflow:visible;"/>
									</clipPath>
									<g class="st7">
										<path class="st5" d="M48,17.7v10.5c-0.1,0.1-0.2,0.1-0.3,0.2V17.9C47.8,17.8,47.9,17.8,48,17.7"/>
										<path class="st5" d="M47.7,17.9v10.5c-1.1,0.7-2.1,1.4-2.9,2.1V20C45.7,19.3,46.6,18.6,47.7,17.9"/>
										<path class="st5" d="M44.8,20v10.5c-0.5,0.5-1,1-1.4,1.5V21.5C43.8,21,44.3,20.5,44.8,20"/>
										<path class="st5" d="M43.4,21.5V32c-0.3,0.4-0.7,0.9-0.9,1.4V22.9C42.8,22.4,43.1,22,43.4,21.5"/>
										<path class="st5" d="M42.5,22.9v10.5c-0.2,0.4-0.4,0.9-0.6,1.3V24.2C42.1,23.7,42.3,23.3,42.5,22.9"/>
										<path class="st5" d="M41.9,24.2v10.5c-0.2,0.4-0.3,0.8-0.4,1.3V25.5C41.7,25,41.8,24.6,41.9,24.2"/>
										<path class="st5" d="M41.6,25.4v10.5c-0.1,0.4-0.1,0.9-0.1,1.3V26.7C41.4,26.3,41.5,25.9,41.6,25.4"/>
										<path class="st8" d="M41.4,26.7v10.5c0,0.1,0,0.1,0,0.2V26.9C41.4,26.9,41.4,26.8,41.4,26.7"/>
									</g>
								</g>
							</g>
							<g>
								<g>
									<path id="SVGID_3_" class="st9" d="M86.6,27v10.5c0-3.4-2.2-6.7-6.7-9.3V17.7C84.4,20.3,86.6,23.7,86.6,27z"/>
								</g>
								<g>
									<defs>
										<path id="SVGID_6_" d="M86.6,27v10.5c0-3.4-2.2-6.7-6.7-9.3V17.7C84.4,20.3,86.6,23.7,86.6,27z"/>
									</defs>
									<clipPath id="SVGID_7_">
										<use xlink:href="#SVGID_6_"  style="overflow:visible;"/>
									</clipPath>
									<g class="st10">
										<path class="st9" d="M86.6,27v10.5c0-3.4-2.2-6.7-6.7-9.3V17.7C84.4,20.3,86.6,23.7,86.6,27"/>
									</g>
								</g>
							</g>
							<g>
								<g>
									<path id="SVGID_5_" class="st9" d="M98.2,27.1v10.5c0,5-3.3,10.1-9.9,13.9c-13.3,7.7-35,7.7-48.4,0
										c-6.7-3.9-10.1-9-10.1-14.1V26.9c0,5.1,3.4,10.2,10.1,14.1c13.4,7.7,35.1,7.7,48.4,0C94.9,37.1,98.2,32.1,98.2,27.1z"/>
								</g>
								<g>
									<defs>
										<path id="SVGID_8_" d="M98.2,27.1v10.5c0,5-3.3,10.1-9.9,13.9c-13.3,7.7-35,7.7-48.4,0c-6.7-3.9-10.1-9-10.1-14.1V26.9
											c0,5.1,3.4,10.2,10.1,14.1c13.4,7.7,35.1,7.7,48.4,0C94.9,37.1,98.2,32.1,98.2,27.1z"/>
									</defs>
									<clipPath id="SVGID_9_">
										<use xlink:href="#SVGID_8_"  style="overflow:visible;"/>
									</clipPath>
									<g class="st11">
										<path class="st8" d="M98.2,27.1v10.5c0,0.1,0,0.2,0,0.3V27.4C98.2,27.3,98.2,27.2,98.2,27.1"/>
										<path class="st9" d="M98.2,27.4v10.5c0,0.7-0.1,1.3-0.2,2V29.4C98.1,28.7,98.2,28,98.2,27.4"/>
										<path class="st9" d="M98,29.3v10.5c-0.1,0.6-0.3,1.3-0.6,1.9V31.2C97.7,30.6,97.9,30,98,29.3"/>
										<path class="st9" d="M97.4,31.3v10.5c-0.2,0.7-0.5,1.3-0.9,1.9V33.2C96.9,32.6,97.2,31.9,97.4,31.3"/>
										<path class="st9" d="M96.5,33.2v10.5c-0.4,0.7-0.8,1.4-1.4,2V35.2C95.7,34.6,96.1,33.9,96.5,33.2"/>
										<path class="st9" d="M95.1,35.3v10.5c-0.6,0.8-1.3,1.5-2.1,2.3V37.6C93.8,36.8,94.5,36,95.1,35.3"/>
										<path class="st9" d="M93,37.5V48c-1.2,1.1-2.7,2.2-4.3,3.2V40.7C90.4,39.7,91.8,38.7,93,37.5"/>
										<path class="st9" d="M88.7,40.7v10.5c-0.1,0.1-0.3,0.2-0.4,0.2c-2.3,1.3-4.8,2.4-7.5,3.3V44.2c2.7-0.9,5.2-2,7.5-3.3
											C88.4,40.9,88.6,40.8,88.7,40.7"/>
										<path class="st9" d="M80.8,44.3v10.5c-2.1,0.7-4.2,1.2-6.5,1.6V45.9C76.5,45.5,78.7,45,80.8,44.3"/>
										<path class="st9" d="M74.3,45.9v10.5c-1.4,0.3-2.9,0.5-4.4,0.6V46.5C71.4,46.4,72.9,46.2,74.3,45.9"/>
										<path class="st9" d="M69.9,46.5V57c-1.3,0.1-2.5,0.2-3.8,0.3V46.8C67.4,46.7,68.7,46.6,69.9,46.5"/>
										<path class="st9" d="M66.2,46.8v10.5c-1.2,0-2.3,0-3.5,0V46.8C63.8,46.8,65,46.8,66.2,46.8"/>
										<path class="st9" d="M62.6,46.8v10.5c-1.1,0-2.3-0.1-3.4-0.2V46.6C60.4,46.7,61.5,46.7,62.6,46.8"/>
										<path class="st9" d="M59.3,46.6v10.5c-1.1-0.1-2.2-0.2-3.3-0.4V46.2C57.1,46.4,58.2,46.5,59.3,46.6"/>
										<path class="st9" d="M56,46.2v10.5c-1.1-0.2-2.3-0.4-3.4-0.6V45.6C53.7,45.9,54.8,46.1,56,46.2"/>
										<path class="st9" d="M52.6,45.6v10.5c-1.2-0.3-2.4-0.5-3.6-0.9V44.7C50.2,45.1,51.4,45.4,52.6,45.6"/>
										<path class="st9" d="M49,44.8v10.5c-1.4-0.4-2.8-0.9-4.2-1.4V43.4C46.2,43.9,47.6,44.4,49,44.8"/>
										<path class="st9" d="M44.8,43.4v10.5c-1.7-0.7-3.4-1.5-4.9-2.4c-6.7-3.9-10.1-9-10.1-14.1V26.9c0,5.1,3.4,10.2,10.1,14.1
											C41.5,41.9,43.1,42.7,44.8,43.4"/>
									</g>
								</g>
							</g>
							<path class="st5" d="M98.1,28.2c0,0.2,0,0.3-0.1,0.5c0,0.2,0,0.3-0.1,0.5c0,0.2-0.1,0.3-0.1,0.5s-0.1,0.3-0.1,0.5
								s-0.1,0.3-0.1,0.5c-0.1,0.2-0.1,0.3-0.2,0.5c-0.1,0.1-0.1,0.3-0.2,0.4c-0.1,0.2-0.1,0.3-0.2,0.5c-0.1,0.1-0.1,0.3-0.2,0.4
								c-0.1,0.2-0.2,0.3-0.3,0.5c-0.1,0.1-0.2,0.3-0.2,0.4c-0.1,0.2-0.2,0.4-0.4,0.6c-0.1,0.1-0.2,0.2-0.2,0.4
								c-0.2,0.2-0.3,0.4-0.5,0.7c-0.1,0.1-0.1,0.2-0.2,0.3c-0.3,0.3-0.6,0.7-0.9,1c-0.1,0.1-0.2,0.2-0.3,0.3
								c-0.2,0.3-0.5,0.5-0.8,0.8c-0.1,0.1-0.2,0.2-0.4,0.3c-0.2,0.1-0.3,0.3-0.5,0.4c-0.2,0.1-0.3,0.3-0.5,0.4
								c-0.2,0.1-0.4,0.3-0.5,0.4c-0.2,0.1-0.3,0.3-0.5,0.4c-0.2,0.1-0.4,0.3-0.6,0.4c-0.2,0.1-0.4,0.2-0.5,0.4
								c-0.2,0.1-0.4,0.3-0.6,0.4c-0.3,0.2-0.5,0.3-0.8,0.5c-0.7,0.4-1.5,0.8-2.3,1.2c-0.2,0.1-0.4,0.2-0.6,0.3
								c-0.7,0.3-1.4,0.6-2.2,0.9c-0.1,0-0.2,0.1-0.3,0.1c-0.8,0.3-1.6,0.6-2.5,0.8c-0.6,0.2-1.2,0.3-1.8,0.5
								c-0.4,0.1-0.9,0.3-1.3,0.4c-0.6,0.2-1.3,0.3-1.9,0.4c-0.5,0.1-0.9,0.2-1.4,0.3c-0.2,0-0.4,0.1-0.6,0.1
								c-0.8,0.1-1.6,0.2-2.4,0.3c-0.2,0-0.5,0.1-0.7,0.1c-0.9,0.1-1.8,0.2-2.8,0.2c-0.2,0-0.3,0-0.5,0c-0.6,0-1.2,0-1.9,0.1
								c-0.4,0-0.8,0-1.2,0v10.5c0.4,0,0.8,0,1.2,0c0.3,0,0.6,0,0.9,0s0.6,0,0.9,0c0.2,0,0.3,0,0.5,0c0.8,0,1.6-0.1,2.3-0.2
								c0.1,0,0.3,0,0.4-0.1c0.2,0,0.5-0.1,0.7-0.1c0.8-0.1,1.6-0.2,2.4-0.3c0.2,0,0.4-0.1,0.6-0.1c0.1,0,0.2,0,0.3,0
								c0.4-0.1,0.7-0.2,1.1-0.2c0.6-0.1,1.3-0.3,1.9-0.4c0.5-0.1,0.9-0.2,1.3-0.4c0.6-0.2,1.2-0.3,1.8-0.5c0.1,0,0.3-0.1,0.4-0.1
								c0.7-0.2,1.4-0.5,2.1-0.7c0.1,0,0.2-0.1,0.3-0.1c0.7-0.3,1.5-0.6,2.2-0.9c0.2-0.1,0.4-0.2,0.6-0.3c0.8-0.4,1.6-0.8,2.3-1.2
								c0.1-0.1,0.3-0.2,0.4-0.2c0.1-0.1,0.2-0.2,0.4-0.2c0.2-0.1,0.4-0.3,0.6-0.4c0.2-0.1,0.4-0.2,0.5-0.4c0.2-0.1,0.4-0.3,0.6-0.4
								c0.2-0.1,0.3-0.3,0.5-0.4c0.2-0.1,0.4-0.3,0.5-0.4c0.2-0.1,0.3-0.3,0.5-0.4c0.2-0.1,0.3-0.3,0.5-0.4c0.1-0.1,0.1-0.1,0.2-0.2
								c0.1-0.1,0.1-0.1,0.2-0.2c0.3-0.3,0.5-0.5,0.8-0.8c0.1-0.1,0.2-0.2,0.3-0.3c0.3-0.3,0.6-0.7,0.9-1l0,0
								c0.1-0.1,0.1-0.2,0.2-0.2c0.2-0.2,0.3-0.4,0.5-0.7c0.1-0.1,0.2-0.2,0.2-0.4c0.1-0.2,0.3-0.4,0.4-0.6c0-0.1,0.1-0.1,0.1-0.2
								c0-0.1,0.1-0.2,0.1-0.2c0.1-0.2,0.2-0.3,0.3-0.5c0.1-0.1,0.1-0.3,0.2-0.4c0.1-0.2,0.1-0.3,0.2-0.5c0-0.1,0.1-0.2,0.1-0.2
								c0-0.1,0-0.1,0.1-0.2c0.1-0.2,0.1-0.3,0.2-0.5c0-0.2,0.1-0.3,0.1-0.5s0.1-0.3,0.1-0.5c0-0.1,0-0.2,0.1-0.3c0-0.1,0-0.1,0-0.2
								c0-0.2,0.1-0.3,0.1-0.5s0-0.3,0.1-0.5c0-0.2,0-0.3,0-0.5c0-0.1,0-0.2,0-0.3s0-0.2,0-0.3V27.3c0,0.2,0,0.4,0,0.6
								C98.2,27.9,98.2,28,98.1,28.2z"/>
							<g>
								<g>
									<path class="st4" d="M95.6,8.6L88.1,13c13.4,7.7,13.5,20.3,0.2,28s-35,7.7-48.4,0s-13.5-20.3-0.2-28l8.2,4.8
										c-8.8,5.1-8.8,13.4,0.1,18.5s23.2,5.1,32,0s8.7-13.4-0.1-18.5l-7.5,4.3L66.1,5L95.6,8.6z"/>
									<path class="st5" d="M64.1,47.8c-8.9,0-17.9-2-24.7-5.9S28.8,32.7,28.8,27c0-5.6,3.7-10.9,10.4-14.8c0.3-0.2,0.7-0.2,1,0
										l8.2,4.8c0.3,0.2,0.5,0.5,0.5,0.9s-0.2,0.7-0.5,0.9c-3.9,2.3-6.1,5.2-6.1,8.4c0,3.1,2.2,6.1,6.2,8.4c8.6,4.9,22.5,4.9,31,0
										c3.9-2.3,6.1-5.2,6.1-8.4c0-3-2-5.9-5.7-8.1l-7,4c-0.3,0.1-0.6,0.2-0.8,0.1c-0.3-0.1-0.5-0.3-0.6-0.6L65.2,5.4
										c-0.1-0.3-0.1-0.7,0.2-1S65.9,4,66.2,4l29.5,3.6c0.4,0.1,0.8,0.4,0.9,0.8s-0.1,0.8-0.5,1.1l-6,3.5c5.9,3.8,9.1,8.8,9.1,14
										c0,5.6-3.7,10.9-10.4,14.8C82,45.8,73.1,47.8,64.1,47.8z M39.8,14.1c-5.8,3.5-9,8-8.9,12.8c0,4.9,3.4,9.6,9.6,13.2
										c13.1,7.6,34.3,7.6,47.4,0c6.1-3.5,9.4-8.2,9.4-13.1s-3.4-9.6-9.6-13.2c-0.3-0.2-0.5-0.5-0.5-0.9s0.2-0.7,0.5-0.9l4.9-2.8
										l-25-3L73,20.6l6.4-3.7c0.3-0.2,0.7-0.2,1,0c4.6,2.7,7.2,6.3,7.2,10.2s-2.5,7.4-7.1,10.1c-9.1,5.3-23.8,5.3-33,0
										c-4.6-2.7-7.2-6.3-7.2-10.2c0-3.4,2-6.6,5.6-9.2L39.8,14.1z"/>
								</g>
							</g>
							<path class="st8" d="M97.8,30.1c0,0.1,0,0.2-0.1,0.2C97.8,30.3,97.8,30.2,97.8,30.1L97.8,30.1z"/>
							<path class="st8" d="M98,29.2c0,0.1,0,0.2-0.1,0.3C98,29.3,98,29.2,98,29.2C98,29.1,98,29.1,98,29.2z"/>
							<path class="st8" d="M98.1,28.2c0,0.1,0,0.2,0,0.3C98.1,28.4,98.1,28.3,98.1,28.2C98.2,28.2,98.2,28.2,98.1,28.2z"/>
							<path class="st5" d="M72.4,33.6L72.4,33.6c-0.6,0-1-0.5-1-1V22.1c0-0.6,0.4-1,1-1l0,0c0.6,0,1,0.5,1,1v10.5
								C73.4,33.1,73,33.6,72.4,33.6z"/>
							<path class="st0" d="M64.2,58.3c-0.3,0-0.7,0-1,0h-0.6c-0.3,0-0.6,0-0.9,0h-0.9c-0.3,0-0.6,0-0.9-0.1l-0.8-0.1
								c-0.5,0-0.9-0.1-1.3-0.1h-0.4c-0.6-0.1-1.1-0.1-1.7-0.2h-0.3c-0.5-0.1-1-0.1-1.4-0.2l-0.7-0.1c-0.3-0.1-0.6-0.1-0.9-0.2h-0.1
								L51.9,57c-0.4-0.1-0.8-0.2-1.2-0.3l-0.6-0.2c-0.4-0.1-0.7-0.2-1.1-0.3L48.4,56c-0.6-0.2-1.1-0.3-1.7-0.5l-0.3-0.1
								c-0.6-0.2-1.2-0.4-1.9-0.7l-0.2-0.1c0,0-0.1,0-0.1-0.1c-0.9-0.4-1.7-0.7-2.4-1l-0.2-0.1c-0.9-0.4-1.6-0.8-2.3-1.2
								c-6.8-4-10.6-9.3-10.6-15V26.7c0,0,0,0,0-0.1c0-5.6,3.7-10.8,10.4-14.7c0.3-0.2,0.7-0.2,1,0l8.2,4.8c0.3,0.2,0.5,0.5,0.5,0.9
								v10.5c0,0.3-0.2,0.7-0.5,0.8c-2.3,1.5-3.2,2.8-3.6,3.5c1.1,1.1,1.9,1.8,3.7,2.9c8.6,4.9,22.5,4.9,31,0
								c1.6-0.9,2.3-1.6,3.3-2.5c-0.9-1.1-1.9-2.3-3.1-3.4l-6.8,4c-0.3,0.1-0.6,0.2-0.8,0.1c-0.3-0.1-0.5-0.3-0.6-0.6L65,15.8
								c0-0.1-0.1-0.2-0.1-0.4V4.9c0-0.3,0.1-0.6,0.3-0.7c0.5-0.1,0.7-0.2,1-0.2l29.5,3.6c0.5,0.1,0.9,0.5,0.9,1V19
								c1.7,2.5,2.6,5.2,2.6,7.9V27l0,0l0,0v10.8c0,0.1,0,0.2,0,0.2c0,0.3,0,0.5,0,0.7c0,0.1,0,0.3-0.1,0.4c0,0.2-0.1,0.4-0.1,0.6
								c0,0.1,0,0.1,0,0.2c0,0.1,0,0.1,0,0.2c-0.1,0.3-0.1,0.4-0.2,0.6c0,0.2-0.1,0.3-0.1,0.5c-0.1,0.2-0.1,0.4-0.2,0.5l-0.1,0.2
								c0,0.1,0,0.1-0.1,0.2c-0.1,0.3-0.2,0.4-0.3,0.6c-0.1,0.2-0.1,0.3-0.2,0.5s-0.2,0.4-0.3,0.6c-0.1,0.1-0.1,0.2-0.1,0.3
								l-0.1,0.1c-0.2,0.3-0.3,0.5-0.4,0.7L96.8,45c-0.1,0.1-0.1,0.2-0.2,0.3c-0.2,0.2-0.3,0.5-0.5,0.7c-0.1,0.1-0.1,0.2-0.2,0.3
								c-0.3,0.4-0.6,0.8-1,1.1l-0.3,0.3c-0.3,0.3-0.5,0.5-0.8,0.8l-0.3,0.3c-0.2,0.2-0.4,0.4-0.6,0.5s-0.3,0.3-0.5,0.4
								c-0.2,0.1-0.4,0.3-0.6,0.4c-0.2,0.1-0.3,0.3-0.5,0.4c-0.2,0.1-0.4,0.3-0.6,0.4c-0.2,0.1-0.4,0.3-0.6,0.4
								c-0.2,0.1-0.4,0.3-0.6,0.4L89.4,52c-0.1,0.1-0.2,0.1-0.3,0.2l-0.4,0.3c-0.5,0.3-1.1,0.6-1.6,0.9l-0.5,0.2
								c-0.4,0.2-0.9,0.4-1.3,0.6l-0.4,0.2c-0.6,0.2-1.2,0.5-1.7,0.7l-0.3,0.1c-0.5,0.2-1,0.4-1.5,0.5l-0.6,0.2
								c-0.3,0.1-0.6,0.2-0.8,0.3c-0.2,0.1-0.5,0.1-0.7,0.2c-0.3,0.1-0.6,0.2-0.9,0.2c-0.2,0.1-0.5,0.1-0.7,0.2
								c-0.3,0.1-0.6,0.1-0.9,0.2l-0.7,0.2c-0.3,0.1-0.6,0.1-0.9,0.2l-0.5,0.1h-0.1c-0.7,0.1-1.4,0.2-2.1,0.3h-0.3
								c-0.6,0.1-1.2,0.1-1.7,0.2l-0.7,0.1c-0.4,0-0.7,0.1-1.1,0.1H68c-0.4,0-0.8,0-1.2,0.1h-0.5h-0.1c-0.4,0-0.7,0-1,0H64.2
								L64.2,58.3z M52.8,55.2c0.3,0.1,0.6,0.1,0.9,0.2l0.7,0.1c0.5,0.1,0.9,0.1,1.4,0.2h0.3c0.5,0.1,1.1,0.1,1.6,0.2h0.4
								c0.4,0,0.8,0.1,1.3,0.1l0.8,0.1c0.3,0,0.6,0,0.8,0.1h0.9c0.2,0,0.5,0,0.7,0h0.6c0.3,0,0.7,0,1,0H65c0.3,0,0.6,0,0.8,0h0.1
								h0.5c0.4,0,0.7,0,1.1-0.1h0.7c0.4,0,0.7-0.1,1.1-0.1l0.6-0.1c0.6-0.1,1.1-0.1,1.7-0.2h0.3c0.6-0.1,1.3-0.2,1.9-0.3l0.7-0.1
								c0.3-0.1,0.6-0.1,0.9-0.2l0.7-0.2c0.3-0.1,0.6-0.1,0.9-0.2c0.2-0.1,0.5-0.1,0.7-0.2c0.3-0.1,0.6-0.1,0.8-0.2
								c0.2-0.1,0.5-0.1,0.7-0.2c0.3-0.1,0.5-0.2,0.8-0.2l0.6-0.2c0.5-0.2,1-0.3,1.5-0.5l0.3-0.1c0.6-0.2,1.1-0.4,1.7-0.7l0.4-0.2
								c0.4-0.2,0.8-0.4,1.2-0.6l0.5-0.2c0.5-0.3,1-0.5,1.5-0.8l0.8-0.5c0.2-0.1,0.4-0.3,0.6-0.4c0.2-0.1,0.4-0.2,0.5-0.4
								c0.2-0.1,0.4-0.3,0.6-0.4c0.2-0.1,0.3-0.2,0.5-0.4c0.2-0.1,0.3-0.3,0.5-0.4c0.2-0.1,0.3-0.3,0.5-0.4c0.2-0.1,0.3-0.3,0.5-0.4
								l0.4-0.3c0.3-0.2,0.5-0.5,0.7-0.7l0.2-0.2c0.3-0.3,0.6-0.6,0.8-1l0.2-0.3c0.2-0.2,0.3-0.4,0.5-0.6l0.2-0.3
								c0.1-0.2,0.2-0.4,0.4-0.6l0.1-0.1l0.1-0.3c0.1-0.2,0.2-0.3,0.2-0.5c0.1-0.1,0.1-0.3,0.2-0.4c0.1-0.2,0.1-0.3,0.2-0.5l0.1-0.3
								v-0.1c0.1-0.2,0.1-0.3,0.2-0.5c0-0.1,0.1-0.3,0.1-0.4c0-0.2,0.1-0.3,0.1-0.5l0.1-0.3v-0.1c0-0.2,0.1-0.3,0.1-0.5
								s0-0.3,0.1-0.4c0-0.2,0-0.3,0-0.5v-0.6v-9.9c0-0.1,0-0.1,0-0.2l0,0c0.1-2.6-0.8-5.2-2.6-7.7c-0.2-0.2-0.2-0.5-0.2-0.8
								c0-0.1,0.1-0.2,0.1-0.3V9.2L67.1,6.1v9.2L73,31.1l6.4-3.7c0.4-0.2,0.9-0.2,1.2,0.1c1.7,1.6,3.1,3.2,4.4,4.8
								c0.3,0.4,0.3,1-0.1,1.3l-0.1,0.1c-1.3,1.2-2.2,2.1-4.2,3.3c-9.1,5.3-23.8,5.3-33,0c-2.2-1.3-3.1-2.2-4.5-3.6
								c-0.2-0.2-0.3-0.6-0.3-0.9c0.1-0.2,0.6-2.4,4.2-4.9v-9.4L39.8,14c-5.8,3.5-8.9,8-8.9,12.8l0,0v10.5c0,5,3.4,9.7,9.6,13.2
								c0.7,0.4,1.4,0.8,2.2,1.1l0.2,0.1c0.7,0.3,1.4,0.6,2.2,1l0.3,0.1h0.1c0.6,0.2,1.2,0.4,1.8,0.6l0.3,0.1c0.5,0.2,1,0.3,1.6,0.5
								l0.6,0.2c0.3,0.1,0.7,0.2,1,0.3l0.6,0.2c0.4,0.1,0.8,0.2,1.1,0.3l0.4,0.1l-0.1,1L52.8,55.2z"/>
						</g>
					</g>
				</g>
				<rect x="4" y="4" class="st8" width="120" height="120"/>
				<rect x="4" y="4" class="st8" width="120" height="120"/>
			</g>
		</g>
	</g>
	<g>
		<rect class="st8" width="128" height="128"/>
	</g>
</g>
</svg>
