<?xml version="1.0" encoding="utf-8"?>
<!-- Generator: Adobe Illustrator 24.1.0, SVG Export Plug-In . SVG Version: 6.00 Build 0)  -->
<svg version="1.1" id="Layer_1" xmlns="http://www.w3.org/2000/svg" xmlns:xlink="http://www.w3.org/1999/xlink" x="0px" y="0px"
	 viewBox="0 0 128 128" style="enable-background:new 0 0 128 128;" xml:space="preserve">
<style type="text/css">
	.st0{fill:#27ae60;}
	.st1{fill:#185849;}
	.st2{fill:#FFFFFF;}
	.st3{fill:#C4D7D3;}
	.st4{fill:#4D9987;}
	.st5{fill:#0E352C;}
	.st6{fill:#E9EBDF;}
	.st7{fill:none;}
</style>
<g id="Layer_1_1_">
</g>
<g>
	<g id="Layer_2_1_">
		<g id="Objects_1_">
			<g>
				<g>
					<g>
						<g>
							<g>
								<path class="st0" d="M73.8,109.3c-1.7,1-3.6,0.8-5-0.1L7.4,73.9c1.4,0.8,3.2,0.9,4.8,0l49.2-28.3h-0.1L122.9,81h0.1
									L73.8,109.3"/>
								<path class="st1" d="M71.4,111c-1.1,0-2.2-0.3-3.1-0.9L6.9,74.8l0,0l0,0l0,0c-0.5-0.3-0.6-0.9-0.4-1.4s0.9-0.6,1.4-0.4l0,0
									l0,0l0,0c1.2,0.7,2.6,0.7,3.8,0l49.2-28.3c0.4-0.2,1-0.1,1.3,0.2l61,35.1c0.3,0.1,0.5,0.2,0.7,0.5c0.3,0.5,0.1,1.1-0.4,1.4
									l0,0l-49.2,28.3l0,0C73.4,110.7,72.4,111,71.4,111z M73.8,109.3L73.8,109.3L73.8,109.3z M11.7,75.2l57.6,33.1
									c1.3,0.8,2.7,0.9,4,0.1L120.9,81L61.3,46.7l-48.7,28C12.4,74.9,12,75.1,11.7,75.2z"/>
							</g>
							<g>
								<path class="st2" d="M118.6,67.8L58.5,41.9h0.1l-50,28.7c-1.6,0.9,1.3,3.5,1.3,3.5L66,106.4c1.4,0.9,3.4,1.1,5.1,0.1
									l48.1-27.7C115.9,77.5,115.1,72.4,118.6,67.8z"/>
								<path class="st0" d="M68.7,108.2c-1.1,0-2.2-0.3-3.2-0.9L9.4,75c-0.1,0-0.1-0.1-0.2-0.1c-0.5-0.5-2.2-2.1-2.1-3.7
									c0.1-0.6,0.4-1.1,1-1.5L58,41c0.4-0.2,0.9-0.2,1.2,0.1L119,66.9c0.3,0.1,0.5,0.4,0.6,0.7c0.1,0.3,0,0.6-0.2,0.9
									c-1.8,2.3-2.5,4.9-1.9,7c0.3,1.2,1.1,2.1,2.1,2.5c0.3,0.1,0.6,0.5,0.6,0.9s-0.2,0.7-0.5,0.9l-48.1,27.7
									C70.7,107.9,69.7,108.2,68.7,108.2z M10.5,73.3l56.1,32.3c1.3,0.8,2.8,0.9,4.1,0.1l46.7-26.9c-0.8-0.7-1.4-1.7-1.7-2.9
									c-0.6-2.3,0-5.1,1.6-7.7L58.5,43L9.1,71.5C9.1,71.7,9.7,72.6,10.5,73.3z"/>
							</g>
							<path class="st3" d="M68.8,109.2c-1.3-0.8-2.2-2.3-2.2-4l0,0c0-4.6,2.4-8.8,6.4-11.1l49.9-28.7L61.3,29.9L11.4,58.6
								C7.4,60.9,5,65.1,5,69.7l0,0c0,1.8,1,3.3,2.3,4.1L68.8,109.2z"/>
							<path class="st0" d="M9.2,60.2C6.6,62.6,5,66.1,5,69.7l0,0c0,1.8,1,3.3,2.3,4.1l61.5,35.4c-1.3-0.8-2.2-2.3-2.2-4l0,0
								c0-3.6,1.6-7.1,4.2-9.5"/>
							<path class="st1" d="M68.8,110.2c-0.2,0-0.3,0-0.5-0.1L6.8,74.7C5,73.6,4,71.8,4,69.7c0-4.9,2.7-9.5,6.9-12L60.8,29
								c0.3-0.2,0.7-0.2,1,0l61.6,35.4c0.3,0.2,0.5,0.5,0.5,0.9s-0.2,0.7-0.5,0.9L73.5,94.9c-3.7,2.1-5.9,6-5.9,10.2
								c0,1.3,0.6,2.5,1.7,3.2c0.5,0.3,0.6,0.9,0.3,1.4C69.5,110,69.1,110.2,68.8,110.2z M61.3,31L11.9,59.5C8.3,61.6,6,65.5,6,69.7
								c0,1.3,0.7,2.6,1.8,3.2l57.9,33.3c-0.1-0.4-0.1-0.7-0.1-1.1c0-4.9,2.7-9.5,6.9-12l48.4-27.9L61.3,31z"/>
							<path class="st1" d="M122.9,82c-0.2,0-0.3,0-0.5-0.1l-3.7-2.1c-1.6-0.7-2.7-2.1-3.2-3.9c-0.7-2.7,0.1-5.9,2.3-8.7
								c0.3-0.4,1-0.5,1.4-0.2s0.5,1,0.2,1.4c-1.8,2.3-2.5,4.9-1.9,7c0.3,1.2,1.1,2.1,2.1,2.6c0,0,0.1,0,0.1,0.1l3.7,2.1
								c0.5,0.3,0.6,0.9,0.4,1.4C123.6,81.8,123.3,82,122.9,82z"/>
						</g>
						<g>
							<g>
								<path class="st4" d="M18.4,54.9c1.2,0.7,2.7,0.8,4,0l41.3-23.8l0,0l51.6,29.7l0,0L74.1,84.6c-1.4,0.8-3,0.7-4.2-0.1
									L18.4,54.9z"/>
								<path class="st5" d="M72,86.2c-0.9,0-1.9-0.3-2.7-0.8L17.9,55.8l0,0c-0.5-0.3-0.6-0.9-0.4-1.4c0.3-0.5,0.9-0.6,1.4-0.4l0,0
									c0.9,0.5,2.1,0.5,3,0l41.3-23.8c0.4-0.2,0.9-0.1,1.2,0.2l51.1,29.4c0.3,0.1,0.5,0.2,0.7,0.5c0.3,0.5,0.1,1.1-0.4,1.4l0,0
									L74.6,85.5C73.8,86,72.9,86.2,72,86.2z M22.4,56l48,27.6c1,0.7,2.2,0.7,3.2,0.1l39.7-22.9L63.6,32.3L22.9,55.8
									C22.7,55.9,22.6,56,22.4,56z"/>
							</g>
							<g>
								<path class="st2" d="M111.7,49.8L61.2,28.1l0,0L19.4,52.2c-1.4,0.8,1.1,3,1.1,3l47.1,27.1c1.2,0.8,2.8,0.9,4.3,0.1
									l40.3-23.2C109.3,57.9,108.7,53.7,111.7,49.8z"/>
								<path class="st4" d="M69.8,83.8c-1,0-1.9-0.3-2.8-0.8L20,56c-0.1,0-0.1-0.1-0.2-0.1c-0.5-0.4-1.9-1.9-1.8-3.2
									c0.1-0.6,0.4-1,0.9-1.4l41.9-24.1c0.4-0.2,0.8-0.2,1.2,0.1l50.1,21.6c0.3,0.1,0.5,0.4,0.6,0.7s0,0.6-0.2,0.9
									c-1.4,1.9-2,4-1.6,5.7c0.2,0.7,0.6,1.6,1.6,2c0.3,0.1,0.6,0.5,0.6,0.9s-0.2,0.7-0.5,0.9L72.3,83.2
									C71.5,83.6,70.6,83.8,69.8,83.8z M21.1,54.3l47,27c1,0.7,2.2,0.7,3.3,0.1l39-22.4c-0.6-0.6-1.1-1.4-1.3-2.3
									c-0.5-2-0.1-4.3,1.2-6.4l-49-21.1L20,53C20.1,53.3,20.6,53.8,21.1,54.3z"/>
							</g>
							<path class="st6" d="M69.9,84.5c-1.1-0.7-1.8-1.9-1.8-3.4l0,0c0-3.8,2.1-7.4,5.4-9.3l41.8-24.1L63.6,18L21.8,42.1
								c-3.3,1.9-5.4,5.5-5.4,9.3l0,0c0,1.5,0.8,2.8,1.9,3.4L69.9,84.5z"/>
							<path class="st4" d="M19.9,43.5c-2.2,2-3.5,4.9-3.5,8l0,0c0,1.5,0.8,2.8,1.9,3.4l51.5,29.7c-1.1-0.7-1.8-1.9-1.8-3.4l0,0
								c0-3.1,1.3-5.9,3.5-7.9"/>
							<path class="st5" d="M69.9,85.5c-0.2,0-0.3,0-0.5-0.1L17.8,55.7c-1.5-0.9-2.4-2.5-2.4-4.3c0-4.2,2.3-8.1,5.9-10.2l41.8-24.1
								c0.3-0.2,0.7-0.2,1,0l51.6,29.7c0.3,0.2,0.5,0.5,0.5,0.9s-0.2,0.7-0.5,0.9L73.9,72.7c-3,1.7-4.9,5-4.9,8.4c0,1,0.5,2,1.4,2.5
								c0.5,0.3,0.6,0.9,0.3,1.4C70.5,85.4,70.2,85.5,69.9,85.5z M63.6,19.2L22.3,43c-3,1.7-4.9,5-4.9,8.4c0,1.1,0.5,2,1.5,2.6
								l48.2,27.8c0-0.2,0-0.4,0-0.6c0-4.2,2.3-8.1,5.9-10.2l40.3-23.2L63.6,19.2z"/>
							<path class="st5" d="M115.3,61.9c-0.2,0-0.3,0-0.5-0.1l-3.1-1.8c-1.4-0.6-2.3-1.8-2.7-3.3c-0.6-2.3,0.1-5,1.9-7.5
								c0.3-0.4,1-0.5,1.4-0.2s0.5,1,0.2,1.4c-1.4,1.9-2,4-1.6,5.7c0.3,1,0.8,1.7,1.7,2c0,0,0.1,0,0.1,0.1l3.1,1.8
								c0.5,0.3,0.6,0.9,0.4,1.4C116,61.7,115.6,61.9,115.3,61.9z"/>
							<g>
								<path class="st2" d="M78.4,38.9c-1.7-1-4.3-1.2-6.4-0.6c-0.7-1.3-2.8-2.2-5.2-2.2s-4.5,0.9-5.2,2.2
									c-2.1-0.6-4.6-0.4-6.4,0.6c-1.7,1-2.1,2.5-1,3.7c-2.2,0.4-3.8,1.6-3.8,3s1.6,2.6,3.8,3c-1,1.2-0.7,2.7,1,3.7
									s4.3,1.2,6.4,0.6c0.7,1.3,2.8,2.2,5.2,2.2s4.5-0.9,5.2-2.2c2.1,0.6,4.6,0.4,6.4-0.6s2.1-2.5,1-3.7c2.2-0.4,3.8-1.6,3.8-3
									s-1.6-2.6-3.8-3C80.5,41.4,80.1,39.9,78.4,38.9z"/>
								<path class="st4" d="M66.9,56c-2.4,0-4.5-0.8-5.6-2c-2.2,0.5-4.7,0.1-6.4-0.9c-1.2-0.7-1.9-1.6-2.1-2.6
									c-0.1-0.4,0-0.8,0.1-1.3c-2-0.7-3.3-2.1-3.3-3.6s1.3-2.9,3.3-3.6c-0.1-0.4-0.1-0.8-0.1-1.3c0.2-1,0.9-2,2.1-2.6
									c1.7-1,4.2-1.3,6.4-0.9c1.1-1.3,3.2-2,5.6-2s4.5,0.8,5.6,2c2.2-0.5,4.7-0.1,6.4,0.9c1.2,0.7,1.9,1.6,2.1,2.6
									c0.1,0.4,0,0.8-0.1,1.3c2,0.7,3.3,2.1,3.3,3.6c0,1.6-1.3,2.9-3.3,3.6C81,49.6,81,50,81,50.5c-0.2,1-0.9,2-2.1,2.6
									c-1.7,1-4.2,1.3-6.4,0.9C71.3,55.2,69.2,56,66.9,56z M61.6,51.8c0.4,0,0.7,0.2,0.9,0.5c0.5,0.8,2.1,1.7,4.3,1.7
									c2.2,0,3.9-0.8,4.3-1.7c0.2-0.4,0.7-0.6,1.2-0.5c1.8,0.5,4.1,0.3,5.6-0.5c0.6-0.4,1-0.8,1.1-1.2c0-0.3-0.1-0.6-0.3-0.9
									c-0.2-0.3-0.3-0.6-0.2-1c0.1-0.3,0.4-0.6,0.8-0.7c1.7-0.3,3-1.2,3-2s-1.3-1.7-3-2c-0.4-0.1-0.6-0.3-0.8-0.7
									c-0.1-0.3,0-0.7,0.2-1c0.3-0.3,0.4-0.6,0.3-0.9c-0.1-0.4-0.5-0.9-1.1-1.2c-1.4-0.8-3.7-1-5.6-0.5c-0.4,0.1-0.9-0.1-1.2-0.5
									C70.6,37.9,69,37,66.8,37c-2.2,0-3.9,0.8-4.3,1.7c-0.2,0.4-0.7,0.6-1.2,0.5c-1.8-0.5-4.1-0.3-5.6,0.5
									c-0.6,0.4-1,0.8-1.1,1.2c0,0.3,0.1,0.6,0.3,0.9c0.2,0.3,0.3,0.6,0.2,1c-0.1,0.3-0.4,0.6-0.8,0.7c-1.7,0.3-3,1.2-3,2
									s1.3,1.7,3,2c0.4,0.1,0.6,0.3,0.8,0.7c0.1,0.3,0,0.7-0.2,1c-0.3,0.3-0.4,0.6-0.3,0.9c0.1,0.4,0.5,0.9,1.1,1.2
									c1.4,0.8,3.7,1,5.6,0.5C61.5,51.8,61.6,51.8,61.6,51.8z"/>
							</g>
							<path class="st1" d="M67.7,49.5L67.7,49.5l-3-0.3c-0.5-0.1-0.9-0.5-0.9-1.1c0.1-0.5,0.5-0.9,1.1-0.9l2,0.2
								c0.4-2.3,1-5.7,1-5.8c0.1-0.5,0.6-0.9,1.2-0.8c0.5,0.1,0.9,0.6,0.8,1.2c0,0-0.8,4.6-1.2,6.7C68.6,49.2,68.2,49.5,67.7,49.5z"
								/>
						</g>
					</g>
					<g>
						<path class="st4" d="M111.5,77.2l-8.2,4.9c1.6,0.9,2.9,3.4,2.9,5.5V98l4.5-6l3.7,1.1V82.7C114.3,80.6,113,78.1,111.5,77.2z"/>
						<g>
							<path class="st6" d="M103.2,82.1c1.6,0.9,2.9,3.4,2.9,5.5V98l4.5-6l3.7,1.1V82.7c0-2.1-1.3-4.6-2.9-5.5"/>
							<path class="st5" d="M106.1,99c-0.1,0-0.2,0-0.3-0.1c-0.4-0.1-0.7-0.5-0.7-0.9V87.6c0-1.8-1.1-3.9-2.4-4.6
								c-0.5-0.3-0.6-0.9-0.4-1.4c0.3-0.5,0.9-0.6,1.4-0.4c1.9,1.1,3.4,3.9,3.4,6.4V95l2.7-3.6c0.2-0.3,0.7-0.5,1.1-0.4l2.5,0.7
								v-9.1c0-1.8-1.1-3.9-2.4-4.6c-0.5-0.3-0.6-0.9-0.4-1.4c0.3-0.5,0.9-0.6,1.4-0.4c1.9,1.1,3.4,3.9,3.4,6.4V93
								c0,0.3-0.1,0.6-0.4,0.8c-0.3,0.2-0.6,0.2-0.9,0.2l-3.1-0.9l-4.1,5.4C106.7,98.9,106.4,99,106.1,99z"/>
						</g>
						<g>
							<path class="st4" d="M111.5,77.2l-3.7,2.2c1.6,0.9,2.8,3.4,2.8,5.5V92l3.7,1.1V82.7C114.3,80.6,113,78.1,111.5,77.2z"/>
							<path class="st4" d="M114.8,93.8l-4.7-1.4v-7.6c0-1.9-1.2-4.2-2.6-5l-0.7-0.4l4.7-2.8l0.3,0.1c1.8,1,3.1,3.6,3.1,5.9v11.2
								H114.8z M111.1,91.7l2.7,0.8v-9.8c0-1.8-1.1-4-2.4-4.9l-2.8,1.7c1.4,1.2,2.4,3.4,2.4,5.4v6.8H111.1z"/>
						</g>
						<path class="st4" d="M103.2,83.1c-0.3,0-0.7-0.2-0.9-0.5c-0.3-0.5-0.1-1.1,0.4-1.4l8.2-4.9c0.5-0.3,1.1-0.1,1.4,0.4
							s0.1,1.1-0.4,1.4l-8.2,4.9C103.6,83,103.4,83.1,103.2,83.1z"/>
						<path class="st5" d="M106.1,99c-0.1,0-0.2,0-0.3-0.1c-0.4-0.1-0.7-0.5-0.7-0.9V87.6c0-1.8-1.1-3.9-2.4-4.6
							c-0.5-0.3-0.6-0.9-0.4-1.4c0.3-0.5,0.9-0.6,1.4-0.4c1.9,1.1,3.4,3.9,3.4,6.4V95l2.7-3.6c0.2-0.3,0.7-0.5,1.1-0.4l2.5,0.7v-9.1
							c0-1.8-1.1-3.9-2.4-4.6c-0.5-0.3-0.6-0.9-0.4-1.4c0.3-0.5,0.9-0.6,1.4-0.4c1.9,1.1,3.4,3.9,3.4,6.4V93c0,0.3-0.1,0.6-0.4,0.8
							c-0.3,0.2-0.6,0.2-0.9,0.2l-3.1-0.9l-4.1,5.4C106.7,98.9,106.4,99,106.1,99z"/>
					</g>
				</g>
				<rect x="4" y="4" class="st7" width="120" height="120"/>
				<rect x="4" y="4" class="st7" width="120" height="120"/>
			</g>
		</g>
	</g>
	<g>
		<rect class="st7" width="128" height="128"/>
	</g>
</g>
</svg>
