<?xml version="1.0" encoding="utf-8"?>
<!-- Generator: Adobe Illustrator 24.1.0, SVG Export Plug-In . SVG Version: 6.00 Build 0)  -->
<svg version="1.1" id="Layer_1" xmlns="http://www.w3.org/2000/svg" xmlns:xlink="http://www.w3.org/1999/xlink" x="0px" y="0px"
	 viewBox="0 0 128 128" style="enable-background:new 0 0 128 128;" xml:space="preserve">
<style type="text/css">
	.st0{fill:#C4D7D3;}
	.st1{fill:#27ae60;}
	.st2{fill:#FFFFFF;}
	.st3{fill:#185849;}
	.st4{fill:#E9EBDF;}
	.st5{fill:#4D9987;}
	.st6{fill:#0E352C;}
	.st7{fill:none;}
</style>
<g id="Layer_1_1_">
</g>
<g>
	<g id="Layer_2_1_">
		<g id="Industries_1_">
			<g>
				<g>
					<g>
						<g>
							<path class="st0" d="M101.3,50.6L101.3,50.6c0-7.3-5.3-7.6-5.6-11.9l0,0c0-0.1,0-0.2,0-0.3s0-0.2,0-0.3l0,0l-2.5-24.7H81.5
								L79,38.1l0,0c0,0.1,0,0.2,0,0.3s0,0.2,0,0.3l0,0c-0.2,4.4-5.6,4.6-5.6,11.9l0,0v41.2c0,0.5,0.1,1,0.2,1.4l0,0l0.5,1.7l0,0
								c1.1,3.6,6.6,6.3,13.1,6.3c6.6,0,12-2.7,13.1-6.3l0,0l0.5-1.7l0,0c0.1-0.5,0.2-0.9,0.2-1.4V50.6H101.3z"/>
							<path class="st1" d="M87.4,102.3c-6.8,0-12.7-2.9-14.1-6.9c0,0,0-0.1-0.1-0.2l-0.5-1.7c0-0.1,0-0.1,0-0.2
								c-0.2-0.5-0.2-1-0.2-1.6V50.6c0-4.6,2-6.7,3.5-8.4c1.1-1.2,1.9-2.1,2-3.6c0-0.1,0-0.2,0-0.3s0-0.2,0-0.3v-0.1l2.5-24.7
								c0.1-0.5,0.5-0.9,1-0.9h11.7c0.5,0,0.9,0.4,1,0.9L96.7,38v0.1c0,0.1,0,0.2,0,0.2c0,0.1,0,0.2,0,0.3c0.1,1.5,0.9,2.4,2,3.6
								c1.6,1.7,3.5,3.8,3.5,8.4v41.2c0,0.5-0.1,1-0.2,1.6c0,0.1,0,0.1,0,0.2l-0.5,1.7c0,0.1,0,0.1-0.1,0.2
								C100,99.4,94.2,102.3,87.4,102.3z M75.1,94.5C75.1,94.5,75.1,94.6,75.1,94.5c1.1,3.3,6.3,5.7,12.3,5.7s11.2-2.4,12.2-5.6
								c0-0.1,0-0.1,0.1-0.1l0.4-1.4c0-0.1,0-0.1,0-0.2c0.1-0.4,0.2-0.8,0.2-1.1V50.6c0-3.8-1.5-5.4-3-7c-1.2-1.3-2.4-2.6-2.6-4.7
								c0-0.1,0-0.2,0-0.3s0-0.2,0-0.2v-0.2v-0.1l-2.4-23.7h-9.9L80,38v0.1v0.1c0,0.1,0,0.2,0,0.2c0,0.1,0,0.2,0,0.2l0,0
								c-0.1,2.2-1.4,3.6-2.6,4.9c-1.5,1.6-3,3.2-3,7v41.2c0,0.4,0.1,0.7,0.2,1.1c0,0.1,0,0.1,0,0.2L75.1,94.5z"/>
						</g>
						<path class="st2" d="M87.4,13.3h-5.9L79,38.1l0,0c0,0.1,0,0.2,0,0.3s0,0.2,0,0.3l0,0c-0.2,4.4-5.6,4.6-5.6,11.9v41.2
							c0,0.5,0.1,1,0.2,1.4l0,0l0.5,1.7l0,0c1.1,3.6,6.6,6.3,13.1,6.3l0,0V13.3H87.4z"/>
						<path class="st0" d="M93.1,39c0-0.2,0-0.5,0-0.7l0,0c0-0.1,0-0.2,0-0.2L91.4,22h-8.1l-1.6,16.1c0,0.1,0,0.1,0,0.2l0,0
							c0,0.2,0,0.5,0,0.7c-0.2,2.7-1.8,4.3-3,5.6c-1.4,1.5-2.6,2.8-2.6,5.9v41.2c0,0.2,0,0.4,0.1,0.6c0,0.1,0,0.2,0.1,0.2l0.4,1.2
							c0,0.1,0.1,0.2,0.1,0.2c0.7,2.1,4.9,4.5,10.6,4.5s9.9-2.3,10.6-4.5c0-0.1,0.1-0.2,0.1-0.2l0.4-1.2c0-0.1,0-0.2,0.1-0.2
							c0.1-0.2,0.1-0.4,0.1-0.6V50.6c0-3.1-1.1-4.3-2.6-5.9C94.8,43.4,93.3,41.7,93.1,39z"/>
						<path class="st1" d="M93.1,39c0-0.2,0-0.5,0-0.7l0,0c0-0.1,0-0.2,0-0.2L91.4,22h-4v76.7l0,0c5.7,0,9.9-2.3,10.6-4.5
							c0-0.1,0.1-0.2,0.1-0.2l0.4-1.2c0-0.1,0-0.2,0.1-0.2c0.1-0.2,0.1-0.4,0.1-0.6V50.6c0-3.1-1.1-4.3-2.6-5.9
							C94.8,43.4,93.3,41.7,93.1,39z"/>
						<ellipse class="st0" cx="87.5" cy="22.2" rx="4.1" ry="2.4"/>
						<g>
							<path class="st0" d="M93.2,13.5c0,1.9-2.6,3.4-5.9,3.4c-3.2,0-5.9-1.5-5.9-3.4S84,9,87.3,9C90.6,9.1,93.2,11.7,93.2,13.5z"/>
							<path class="st1" d="M87.4,17.9c-3.9,0-6.9-1.9-6.9-4.4S83.6,8,87.4,8s6.9,3,6.9,5.5C94.2,16,91.2,17.9,87.4,17.9z
								 M87.4,10.1c-2.8,0-4.9,2.3-4.9,3.5c0,1.1,2.1,2.4,4.9,2.4s4.9-1.3,4.9-2.4C92.2,12.3,90.2,10.1,87.4,10.1z"/>
						</g>
						<g>
							<path class="st3" d="M95.2,63.2c0-0.9-0.9-1.5-1.7-1.3c-1.8,0.5-3.8,0.8-6,0.8c-7.8,0-14.1-3.6-14.1-8.1v24.8
								c0,4.5,6.3,8.1,14.1,8.1c2.3,0,4.5-0.3,6.4-0.9c0.8-0.2,1.3-0.9,1.3-1.7C95.2,84.9,95.2,63.2,95.2,63.2z"/>
							<path class="st1" d="M92.1,72.2c0-0.5-0.5-1-1-0.9c-1.1,0.2-2.3,0.3-3.5,0.3c-7.8,0-14.1-3.6-14.1-8.1v6.9
								c0,4.5,6.3,8.1,14.1,8.1c1.3,0,2.6-0.1,3.8-0.3c0.4-0.1,0.7-0.4,0.7-0.9V72.2z"/>
							<path class="st1" d="M87.4,87.5V62.7c-7.7,0-14-3.6-14-8.1v24.8C73.5,83.8,79.7,87.5,87.4,87.5z"/>
							<path class="st0" d="M87.4,78.6v-6.9c-7.7,0-14-3.6-14-8.1v6.9C73.5,74.9,79.7,78.5,87.4,78.6z"/>
						</g>
						<g>
							<path class="st2" d="M95.4,35.1l-1.5-14.9c-0.7,1.7-3.4,2.9-6.5,2.9s-5.8-1.2-6.5-2.9l-1.5,14.9c0.5,2.3,3.9,4.1,8,4.1
								S94.9,37.4,95.4,35.1z"/>
							<path class="st1" d="M87.4,40.2c-4.6,0-8.4-2.1-9-4.9c0-0.1,0-0.2,0-0.3l1.5-14.9c0-0.5,0.4-0.8,0.8-0.9
								c0.5-0.1,0.9,0.2,1.1,0.6c0.5,1.1,2.6,2.3,5.6,2.3s5.1-1.2,5.6-2.3c0.2-0.4,0.6-0.7,1.1-0.6c0.4,0.1,0.8,0.4,0.8,0.9L96.4,35
								c0,0.1,0,0.2,0,0.3C95.8,38.2,92,40.2,87.4,40.2z M80.4,35.1c0.5,1.6,3.1,3.2,7,3.2s6.5-1.6,7-3.2l-1.3-12.5
								c-1.4,1-3.5,1.6-5.8,1.6s-4.3-0.6-5.8-1.6L80.4,35.1z"/>
						</g>
						<path class="st0" d="M87.5,23.1v16.1c4.1,0,7.4-1.8,7.9-4.1l-1.5-14.9C93.2,21.9,90.6,23.1,87.5,23.1z"/>
						<path class="st1" d="M87.4,40.2c-4.6,0-8.4-2.1-9-4.9c0-0.1,0-0.2,0-0.3l1.5-14.9c0-0.5,0.4-0.8,0.8-0.9
							c0.5-0.1,0.9,0.2,1.1,0.6c0.5,1.1,2.6,2.3,5.6,2.3s5.1-1.2,5.6-2.3c0.2-0.4,0.6-0.7,1.1-0.6c0.4,0.1,0.8,0.4,0.8,0.9L96.4,35
							c0,0.1,0,0.2,0,0.3C95.8,38.2,92,40.2,87.4,40.2z M80.4,35.1c0.5,1.6,3.1,3.2,7,3.2s6.5-1.6,7-3.2l-1.3-12.5
							c-1.4,1-3.5,1.6-5.8,1.6s-4.3-0.6-5.8-1.6L80.4,35.1z"/>
						<path class="st3" d="M87.4,102.3c-6.8,0-12.7-2.9-14.1-6.9c0,0,0-0.1-0.1-0.2l-0.5-1.7c0-0.1,0-0.1,0-0.2
							c-0.2-0.5-0.2-1-0.2-1.6V50.6c0-4.6,2-6.7,3.5-8.4c1.1-1.2,1.9-2.1,2-3.6c0-0.1,0-0.2,0-0.3s0-0.2,0-0.3v-0.1l2.5-24.7
							c0.1-0.5,0.5-0.9,1-0.9h11.7c0.5,0,0.9,0.4,1,0.9L96.7,38v0.1c0,0.1,0,0.2,0,0.2c0,0.1,0,0.2,0,0.3c0.1,1.5,0.9,2.4,2,3.6
							c1.6,1.7,3.5,3.8,3.5,8.4v41.2c0,0.5-0.1,1-0.2,1.6c0,0.1,0,0.1,0,0.2l-0.5,1.7c0,0.1,0,0.1-0.1,0.2
							C100,99.4,94.2,102.3,87.4,102.3z M75.1,94.5C75.1,94.5,75.1,94.6,75.1,94.5c1.1,3.3,6.3,5.7,12.3,5.7s11.2-2.4,12.2-5.6
							c0-0.1,0-0.1,0.1-0.1l0.4-1.4c0-0.1,0-0.1,0-0.2c0.1-0.4,0.2-0.8,0.2-1.1V50.6c0-3.8-1.5-5.4-3-7c-1.2-1.3-2.4-2.6-2.6-4.7
							c0-0.1,0-0.2,0-0.3s0-0.2,0-0.2v-0.2v-0.1l-2.4-23.7h-9.9L80,38v0.1v0.1c0,0.1,0,0.2,0,0.2c0,0.1,0,0.2,0,0.2l0,0
							c-0.1,2.2-1.4,3.6-2.6,4.9c-1.5,1.6-3,3.2-3,7v41.2c0,0.4,0.1,0.7,0.2,1.1c0,0.1,0,0.1,0,0.2L75.1,94.5z"/>
						<g>
							<path class="st2" d="M94.5,12.7L94.5,12.7L94,8.5h-2.8c-1.1-0.4-2.5-0.7-3.9-0.7S84.5,8,83.4,8.5h-2.8l-0.4,4.2l0,0
								c0,0.1,0,0.2,0,0.3c0,2.3,3.2,4.1,7.1,4.1s7.1-1.8,7.1-4.1C94.5,12.9,94.5,12.8,94.5,12.7z"/>
							<path class="st1" d="M87.4,18.2c-4.6,0-8.1-2.2-8.1-5.1c0-0.1,0-0.2,0-0.4v-0.1l0.4-4.2c0.1-0.5,0.5-0.9,1-0.9h2.6
								c2.5-0.9,5.7-0.9,8.2,0H94c0.5,0,0.9,0.4,1,0.9l0.4,4.2v0.1c0,0.1,0,0.2,0,0.4C95.5,15.9,91.9,18.2,87.4,18.2z M81.3,12.7
								v0.1c0,0.1,0,0.1,0,0.2c0,1.5,2.5,3.1,6.1,3.1s6.1-1.6,6.1-3.1c0-0.1,0-0.1,0-0.2v-0.1l-0.3-3.2h-1.9c-0.1,0-0.2,0-0.4-0.1
								c-2.1-0.8-5-0.8-7.1,0c-0.1,0-0.2,0.1-0.4,0.1h-1.9L81.3,12.7z"/>
						</g>
						<path class="st0" d="M94.5,13c0-0.1,0-0.2,0-0.3l0,0L94,8.5h-2.8c-1.1-0.4-2.5-0.7-3.9-0.7v9.3C91.3,17.2,94.5,15.3,94.5,13z"
							/>
						<g>
							<ellipse class="st2" cx="87.4" cy="8.9" rx="6.7" ry="3.9"/>
							<path class="st1" d="M87.4,13.7c-4.3,0-7.7-2.1-7.7-4.9S83.1,4,87.4,4C91.7,4,95,6.1,95,8.9S91.7,13.7,87.4,13.7z M87.4,6
								c-3.4,0-5.7,1.5-5.7,2.9s2.3,2.9,5.7,2.9c3.3,0,5.7-1.5,5.7-2.9S90.7,6,87.4,6z"/>
						</g>
						<ellipse class="st0" cx="87.4" cy="8.9" rx="3.1" ry="1.5"/>
						<path class="st3" d="M87.4,18.2c-4.6,0-8.1-2.2-8.1-5.1c0-0.1,0-0.2,0-0.4v-0.1l0.4-4.2c0-0.1,0-0.1,0-0.2
							C80.2,5.8,83.4,4,87.4,4c3.9,0,7.2,1.8,7.6,4.3c0,0.1,0,0.1,0,0.2l0.4,4.2v0.1c0,0.1,0,0.2,0,0.4
							C95.5,15.9,91.9,18.2,87.4,18.2z M81.3,12.7v0.1c0,0.1,0,0.1,0,0.2c0,1.5,2.5,3.1,6.1,3.1s6.1-1.6,6.1-3.1c0-0.1,0-0.1,0-0.2
							v-0.1l-0.4-4c0,0,0,0,0-0.1C92.8,7.4,90.5,6,87.4,6s-5.5,1.4-5.7,2.7c0,0,0,0,0,0.1L81.3,12.7z"/>
					</g>
					<g>
						<g>
							<path class="st0" d="M54.5,50.6L54.5,50.6c0-7.3-5.3-7.6-5.6-11.9l0,0c0-0.1,0-0.2,0-0.3s0-0.2,0-0.3l0,0l-2.5-24.7H34.8
								l-2.5,24.7l0,0c0,0.1,0,0.2,0,0.3s0,0.2,0,0.3l0,0c-0.2,4.4-5.6,4.6-5.6,11.9l0,0v41.2c0,0.5,0.1,1,0.2,1.4l0,0l0.5,1.7l0,0
								c1.1,3.6,6.6,6.3,13.1,6.3c6.6,0,12-2.7,13.1-6.3l0,0l0.5-1.7l0,0c0.1-0.5,0.2-0.9,0.2-1.4V50.6H54.5z"/>
							<path class="st1" d="M40.6,102.3c-6.8,0-12.7-2.9-14.1-6.9c0,0,0-0.1-0.1-0.2L26,93.5c0-0.1,0-0.1,0-0.2
								c-0.2-0.5-0.2-1-0.2-1.6V50.6c0-4.6,2-6.7,3.5-8.4c1.1-1.2,1.9-2.1,2-3.6c0-0.1,0-0.2,0-0.3s0-0.2,0-0.3v-0.1l2.5-24.7
								c0.1-0.5,0.5-0.9,1-0.9h11.7c0.5,0,0.9,0.4,1,0.9L50,38v0.1c0,0.1,0,0.2,0,0.3s0,0.2,0,0.3c0.1,1.5,0.9,2.4,2,3.6
								c1.6,1.7,3.5,3.8,3.5,8.4v41.2c0,0.5-0.1,1-0.2,1.6c0,0.1,0,0.1,0,0.2l-0.5,1.7c0,0.1,0,0.1-0.1,0.2
								C53.3,99.4,47.4,102.3,40.6,102.3z M28.4,94.5c0,0,0,0.1,0.1,0.1c1,3.2,6.2,5.6,12.2,5.6s11.2-2.4,12.2-5.6
								c0-0.1,0-0.1,0.1-0.1l0.4-1.4c0-0.1,0-0.1,0-0.2c0.1-0.4,0.2-0.8,0.2-1.1V50.6c0-3.8-1.5-5.4-3-7c-1.2-1.3-2.4-2.6-2.6-4.7
								c0-0.1,0-0.2,0-0.3s0-0.2,0-0.2v-0.2v-0.1l-2.4-23.7h-9.9L33.3,38v0.1v0.1c0,0.1,0,0.2,0,0.2c0,0.1,0,0.2,0,0.2l0,0
								c-0.1,2.2-1.4,3.6-2.6,4.9c-1.5,1.6-3,3.2-3,7v41.2c0,0.4,0.1,0.7,0.2,1.1c0,0.1,0,0.1,0,0.2L28.4,94.5z"/>
						</g>
						<path class="st2" d="M40.6,13.3h-5.9L32.2,38l0,0c0,0.1,0,0.2,0,0.3s0,0.2,0,0.3l0,0c-0.2,4.4-5.6,4.6-5.6,11.9v41.2
							c0,0.5,0.1,1,0.2,1.4l0,0l0.5,1.7l0,0c1.1,3.6,6.6,6.3,13.1,6.3l0,0V13.3H40.6z"/>
						<path class="st0" d="M46.3,39c0-0.2,0-0.5,0-0.7l0,0c0-0.1,0-0.2,0-0.2L44.7,22h-8.1L35,38.1c0,0.1,0,0.1,0,0.2l0,0
							c0,0.2,0,0.5,0,0.7c-0.2,2.7-1.8,4.3-3,5.6c-1.4,1.5-2.6,2.8-2.6,5.9v41.2c0,0.2,0,0.4,0.1,0.6c0,0.1,0,0.2,0.1,0.2l0.4,1.2
							c0,0.1,0.1,0.2,0.1,0.2c0.7,2.1,4.9,4.5,10.6,4.5s9.9-2.3,10.6-4.5c0-0.1,0.1-0.2,0.1-0.2l0.4-1.2c0-0.1,0-0.2,0.1-0.2
							c0.1-0.2,0.1-0.4,0.1-0.6V50.6c0-3.1-1.1-4.3-2.6-5.9C48.1,43.4,46.5,41.7,46.3,39z"/>
						<path class="st1" d="M46.3,39c0-0.2,0-0.5,0-0.7l0,0c0-0.1,0-0.2,0-0.2L44.7,22h-4v76.7l0,0c5.7,0,9.9-2.3,10.6-4.5
							c0-0.1,0.1-0.2,0.1-0.2l0.4-1.2c0-0.1,0-0.2,0.1-0.2C52,92.4,52,92.2,52,92V50.6c0-3.1-1.1-4.3-2.6-5.9
							C48.1,43.4,46.5,41.7,46.3,39z"/>
						<ellipse class="st0" cx="40.8" cy="22.2" rx="4.1" ry="2.4"/>
						<g>
							<path class="st0" d="M46.5,13.5c0,1.9-2.6,3.4-5.9,3.4c-3.2,0-5.9-1.5-5.9-3.4S37.3,9,40.6,9C43.9,9.1,46.5,11.7,46.5,13.5z"
								/>
							<path class="st1" d="M40.6,17.9c-3.9,0-6.9-1.9-6.9-4.4S36.8,8,40.6,8s6.9,3,6.9,5.5S44.5,17.9,40.6,17.9z M40.6,10.1
								c-2.8,0-4.9,2.3-4.9,3.5c0,1.1,2.1,2.4,4.9,2.4c2.8,0,4.9-1.3,4.9-2.4C45.5,12.3,43.4,10.1,40.6,10.1z"/>
						</g>
						<g>
							<path class="st3" d="M48.5,63.2c0-0.9-0.9-1.5-1.7-1.3c-1.8,0.5-3.8,0.8-6,0.8c-7.8,0-14.1-3.6-14.1-8.1v24.8
								c0,4.5,6.3,8.1,14.1,8.1c2.3,0,4.5-0.3,6.4-0.9c0.8-0.2,1.3-0.9,1.3-1.7V63.2z"/>
							<path class="st1" d="M45.3,72.2c0-0.5-0.5-1-1-0.9c-1.1,0.2-2.3,0.3-3.5,0.3c-7.8,0-14.1-3.6-14.1-8.1v6.9
								c0,4.5,6.3,8.1,14.1,8.1c1.3,0,2.6-0.1,3.8-0.3c0.4-0.1,0.7-0.4,0.7-0.9V72.2z"/>
							<path class="st1" d="M40.7,87.5V62.7c-7.7,0-14-3.6-14-8.1v24.8C26.7,83.8,33,87.5,40.7,87.5z"/>
							<path class="st0" d="M40.7,78.6v-6.9c-7.7,0-14-3.6-14-8.1v6.9C26.7,74.9,33,78.5,40.7,78.6z"/>
						</g>
						<g>
							<path class="st2" d="M48.7,35.1l-1.5-14.9c-0.7,1.7-3.4,2.9-6.5,2.9s-5.8-1.2-6.5-2.9l-1.5,14.9c0.5,2.3,3.9,4.1,8,4.1
								S48.2,37.4,48.7,35.1z"/>
							<path class="st1" d="M40.6,40.2c-4.6,0-8.4-2.1-9-4.9c0-0.1,0-0.2,0-0.3l1.5-14.9c0-0.5,0.4-0.8,0.8-0.9
								c0.5-0.1,0.9,0.2,1.1,0.6c0.5,1.1,2.6,2.3,5.6,2.3s5.1-1.2,5.6-2.3c0.2-0.4,0.6-0.7,1.1-0.6c0.4,0.1,0.8,0.4,0.8,0.9L49.7,35
								c0,0.1,0,0.2,0,0.3C49,38.2,45.2,40.2,40.6,40.2z M33.6,35.1c0.5,1.6,3.1,3.2,7,3.2s6.5-1.6,7-3.2l-1.3-12.5
								c-1.4,1-3.5,1.6-5.8,1.6s-4.3-0.6-5.8-1.6L33.6,35.1z"/>
						</g>
						<path class="st0" d="M40.8,23.1v16.1c4.1,0,7.4-1.8,7.9-4.1l-1.5-14.9C46.4,21.9,43.9,23.1,40.8,23.1z"/>
						<path class="st1" d="M40.6,40.2c-4.6,0-8.4-2.1-9-4.9c0-0.1,0-0.2,0-0.3l1.5-14.9c0-0.5,0.4-0.8,0.8-0.9
							c0.5-0.1,0.9,0.2,1.1,0.6c0.5,1.1,2.6,2.3,5.6,2.3s5.1-1.2,5.6-2.3c0.2-0.4,0.6-0.7,1.1-0.6c0.4,0.1,0.8,0.4,0.8,0.9L49.7,35
							c0,0.1,0,0.2,0,0.3C49,38.2,45.2,40.2,40.6,40.2z M33.6,35.1c0.5,1.6,3.1,3.2,7,3.2s6.5-1.6,7-3.2l-1.3-12.5
							c-1.4,1-3.5,1.6-5.8,1.6s-4.3-0.6-5.8-1.6L33.6,35.1z"/>
						<path class="st3" d="M40.6,102.3c-6.8,0-12.7-2.9-14.1-6.9c0,0,0-0.1-0.1-0.2L26,93.5c0-0.1,0-0.1,0-0.2
							c-0.2-0.5-0.2-1-0.2-1.6V50.6c0-4.6,2-6.7,3.5-8.4c1.1-1.2,1.9-2.1,2-3.6c0-0.1,0-0.2,0-0.3s0-0.2,0-0.3v-0.1l2.5-24.7
							c0.1-0.5,0.5-0.9,1-0.9h11.7c0.5,0,0.9,0.4,1,0.9L50,38v0.1c0,0.1,0,0.2,0,0.3s0,0.2,0,0.3c0.1,1.5,0.9,2.4,2,3.6
							c1.6,1.7,3.5,3.8,3.5,8.4v41.2c0,0.5-0.1,1-0.2,1.6c0,0.1,0,0.1,0,0.2l-0.5,1.7c0,0.1,0,0.1-0.1,0.2
							C53.3,99.4,47.4,102.3,40.6,102.3z M28.4,94.5c0,0,0,0.1,0.1,0.1c1,3.2,6.2,5.6,12.2,5.6s11.2-2.4,12.2-5.6
							c0-0.1,0-0.1,0.1-0.1l0.4-1.4c0-0.1,0-0.1,0-0.2c0.1-0.4,0.2-0.8,0.2-1.1V50.6c0-3.8-1.5-5.4-3-7c-1.2-1.3-2.4-2.6-2.6-4.7
							c0-0.1,0-0.2,0-0.3s0-0.2,0-0.2v-0.2v-0.1l-2.4-23.7h-9.9L33.3,38v0.1v0.1c0,0.1,0,0.2,0,0.2c0,0.1,0,0.2,0,0.2l0,0
							c-0.1,2.2-1.4,3.6-2.6,4.9c-1.5,1.6-3,3.2-3,7v41.2c0,0.4,0.1,0.7,0.2,1.1c0,0.1,0,0.1,0,0.2L28.4,94.5z"/>
						<g>
							<path class="st2" d="M47.7,12.7L47.7,12.7l-0.4-4.2h-2.8c-1.1-0.4-2.5-0.7-3.9-0.7S37.8,8,36.7,8.5H34l-0.4,4.2l0,0
								c0,0.1,0,0.2,0,0.3c0,2.3,3.2,4.1,7.1,4.1s7.1-1.8,7.1-4.1C47.8,12.9,47.8,12.8,47.7,12.7z"/>
							<path class="st1" d="M40.6,18.2c-4.6,0-8.1-2.2-8.1-5.1c0-0.1,0-0.2,0-0.4v-0.1L33,8.4c0.1-0.5,0.5-0.9,1-0.9h2.6
								c2.5-0.9,5.7-0.9,8.2,0h2.6c0.5,0,0.9,0.4,1,0.9l0.4,4.2v0.1c0,0.1,0,0.2,0,0.4C48.8,15.9,45.2,18.2,40.6,18.2z M34.5,12.7
								v0.1c0,0.1,0,0.1,0,0.2c0,1.5,2.5,3.1,6.1,3.1s6.1-1.6,6.1-3.1c0-0.1,0-0.1,0-0.2v-0.1l-0.3-3.2h-1.9c-0.1,0-0.2,0-0.4-0.1
								c-2.1-0.8-5-0.8-7.1,0c-0.1,0-0.2,0.1-0.4,0.1h-1.9L34.5,12.7z"/>
						</g>
						<path class="st0" d="M47.8,13c0-0.1,0-0.2,0-0.3l0,0l-0.4-4.2h-2.8c-1.1-0.4-2.5-0.7-3.9-0.7v9.3C44.6,17.2,47.8,15.3,47.8,13
							z"/>
						<g>
							<ellipse class="st2" cx="40.6" cy="8.9" rx="6.7" ry="3.9"/>
							<path class="st1" d="M40.6,13.7c-4.3,0-7.7-2.1-7.7-4.9S36.3,4,40.6,4s7.7,2.1,7.7,4.9S44.9,13.7,40.6,13.7z M40.6,6
								C37.3,6,35,7.5,35,8.9s2.3,2.9,5.7,2.9s5.7-1.5,5.7-2.9S44,6,40.6,6z"/>
						</g>
						<ellipse class="st0" cx="40.6" cy="8.9" rx="3.1" ry="1.5"/>
						<path class="st3" d="M40.6,18.2c-4.6,0-8.1-2.2-8.1-5.1c0-0.1,0-0.2,0-0.4v-0.1L33,8.4c0-0.1,0-0.1,0-0.2
							C33.5,5.8,36.7,4,40.6,4s7.2,1.8,7.6,4.3c0,0.1,0,0.1,0,0.2l0.4,4.2v0.1c0,0.1,0,0.2,0,0.4C48.8,15.9,45.2,18.2,40.6,18.2z
							 M34.5,12.7v0.1c0,0.1,0,0.1,0,0.2c0,1.5,2.5,3.1,6.1,3.1s6.1-1.6,6.1-3.1c0-0.1,0-0.1,0-0.2v-0.1l-0.4-4c0,0,0,0,0-0.1
							C46.1,7.4,43.8,6,40.6,6S35.2,7.4,35,8.7c0,0,0,0,0,0.1L34.5,12.7z"/>
					</g>
					<g>
						<g>
							<path class="st4" d="M80.5,111.3H78c-2.2-3.2-7.5-5.4-13.8-5.4s-11.6,2.3-13.8,5.4h-2.5l1.8,4.9l0,0
								c1.4,3.9,7.4,6.8,14.5,6.8s13.1-2.9,14.5-6.8l0,0L80.5,111.3z"/>
							<path class="st5" d="M64.2,124c-7.5,0-13.8-3.1-15.4-7.4l-1.8-4.9c-0.1-0.3-0.1-0.6,0.1-0.9s0.5-0.4,0.8-0.4h2
								c2.6-3.3,8.1-5.4,14.3-5.4c6.2,0,11.7,2.1,14.3,5.4h2c0.3,0,0.6,0.2,0.8,0.4c0.2,0.3,0.2,0.6,0.1,0.9l-1.8,4.9c0,0,0,0,0,0.1
								C78,121,71.7,124,64.2,124z M49.4,112.3l1.3,3.6c1.3,3.5,7,6.1,13.6,6.1s12.3-2.6,13.6-6.1c0,0,0,0,0-0.1l1.3-3.5H78
								c-0.3,0-0.6-0.2-0.8-0.4c-2-3-7.2-5-13-5c-5.7,0-11,2-13,5c-0.2,0.3-0.5,0.4-0.8,0.4H49.4z"/>
						</g>
						<path class="st2" d="M64.1,105.9c-6.2,0-11.6,2.3-13.7,5.4h-2.5l1.8,4.9l0,0c1.4,3.9,7.3,6.7,14.4,6.8V105.9z"/>
						<path class="st1" d="M64.2,124c-7.5,0-13.8-3.1-15.4-7.4l-1.8-4.9c-0.1-0.3-0.1-0.6,0.1-0.9s0.5-0.4,0.8-0.4h2
							c2.6-3.3,8.1-5.4,14.3-5.4c6.2,0,11.7,2.1,14.3,5.4h2c0.3,0,0.6,0.2,0.8,0.4c0.2,0.3,0.2,0.6,0.1,0.9l-1.8,4.9c0,0,0,0,0,0.1
							C78,121,71.7,124,64.2,124z M49.4,112.3l1.3,3.6c1.3,3.5,7,6.1,13.6,6.1s12.3-2.6,13.6-6.1c0,0,0,0,0-0.1l1.3-3.5H78
							c-0.3,0-0.6-0.2-0.8-0.4c-2-3-7.2-5-13-5c-5.7,0-11,2-13,5c-0.2,0.3-0.5,0.4-0.8,0.4H49.4z"/>
						<path class="st5" d="M47.6,77.1v32.2c0,5.3,7.5,9.6,16.7,9.6s16.7-4.3,16.7-9.6V77.1H47.6z"/>
						<path class="st4" d="M73.3,97.3c-2.6,1-5.7,1.6-9.1,1.6c-9.2,0-16.7-4.3-16.7-9.6v8.2c0,5.3,7.5,9.6,16.7,9.6
							c3.4,0,6.5-0.6,9.1-1.6V97.3z"/>
						<path class="st4" d="M64.1,77.1H47.6v32.2c0,5.3,7.4,9.6,16.6,9.6L64.1,77.1L64.1,77.1z"/>
						<path class="st2" d="M64.1,107.1v-8.2c-9.2,0-16.6-4.3-16.6-9.6v8.2C47.6,102.8,55,107.1,64.1,107.1z"/>
						<path class="st5" d="M64.2,119.9c-9.9,0-17.7-4.7-17.7-10.6V77.1c0-0.6,0.4-1,1-1h33.4c0.6,0,1,0.4,1,1v32.2
							C81.9,115.3,74.1,119.9,64.2,119.9z M48.6,78.1v31.2c0,4.7,7.2,8.6,15.7,8.6s15.7-4,15.7-8.6V78.1H48.6z"/>
						<g>
							<path class="st4" d="M80.5,75.1L80.5,75.1l-1.8-4.9l0,0c-1.4-3.9-7.4-6.8-14.5-6.8s-13.1,2.9-14.5,6.8l0,0l-1.8,4.9l0,0
								c-0.2,0.6-0.4,1.3-0.4,2c0,5.3,7.5,9.6,16.7,9.6s16.7-4.3,16.7-9.6C80.9,76.5,80.8,75.8,80.5,75.1z"/>
							<path class="st5" d="M64.2,87.8c-9.9,0-17.7-4.7-17.7-10.6c0-0.8,0.1-1.5,0.4-2.3v-0.1l1.8-4.9c1.6-4.4,8-7.4,15.4-7.4
								s13.8,3,15.4,7.4c0,0,0,0,0,0.1l1.8,4.9V75c0.3,0.7,0.4,1.5,0.4,2.3C81.9,83.1,74.1,87.8,64.2,87.8z M48.9,75.4
								C48.9,75.4,48.9,75.5,48.9,75.4c-0.2,0.6-0.3,1.2-0.3,1.7c0,4.7,7.2,8.6,15.7,8.6s15.7-4,15.7-8.6c0-0.6-0.1-1.1-0.3-1.7
								c0,0,0,0,0-0.1l-1.8-4.8c0,0,0,0,0-0.1c-1.3-3.5-7-6.1-13.6-6.1S52,66.9,50.7,70.4L48.9,75.4z"/>
						</g>
						<path class="st2" d="M49.7,70.2L49.7,70.2l-1.8,4.9l0,0c-0.2,0.6-0.4,1.3-0.4,2c0,5.3,7.5,9.6,16.7,9.6V63.4
							C57.1,63.4,51.1,66.4,49.7,70.2z"/>
						<path class="st5" d="M64.2,87.8c-9.9,0-17.7-4.7-17.7-10.6c0-0.8,0.1-1.5,0.4-2.3v-0.1l1.8-4.9c1.6-4.4,8-7.4,15.4-7.4
							s13.8,3,15.4,7.4c0,0,0,0,0,0.1l1.8,4.9V75c0.3,0.7,0.4,1.5,0.4,2.3C81.9,83.1,74.1,87.8,64.2,87.8z M48.9,75.4
							C48.9,75.4,48.9,75.5,48.9,75.4c-0.2,0.6-0.3,1.2-0.3,1.7c0,4.7,7.2,8.6,15.7,8.6s15.7-4,15.7-8.6c0-0.6-0.1-1.1-0.3-1.7
							c0,0,0,0,0-0.1l-1.8-4.8c0,0,0,0,0-0.1c-1.3-3.5-7-6.1-13.6-6.1S52,66.9,50.7,70.4L48.9,75.4z"/>
						<g>
							<ellipse class="st4" cx="64.2" cy="72" rx="14.8" ry="8.6"/>
							<path class="st5" d="M64.2,81.6c-8.9,0-15.8-4.2-15.8-9.6s7-9.6,15.8-9.6S80,66.6,80,72S73.1,81.6,64.2,81.6z M64.2,64.5
								c-7.5,0-13.8,3.5-13.8,7.6s6.3,7.6,13.8,7.6S78,76.2,78,72.1S71.7,64.5,64.2,64.5z"/>
						</g>
						<ellipse class="st2" cx="64.2" cy="72.8" rx="12.4" ry="6.6"/>
						<path class="st4" d="M62.9,76.3c-0.3,0-0.7-0.2-0.9-0.5c-0.3-0.5-0.1-1.1,0.4-1.4l5.7-3.3c0.5-0.3,1.1-0.1,1.4,0.4
							s0.1,1.1-0.4,1.4l-5.7,3.3C63.2,76.2,63,76.3,62.9,76.3z"/>
						<path class="st5" d="M66.8,77.6c-1.2,0-2.4-0.3-3.3-0.8l-5.1-3c-1.1-0.6-1.7-1.5-1.7-2.5s0.6-1.9,1.7-2.5
							c1.9-1.1,4.8-1.1,6.7,0l0,0l5.1,3c1.1,0.6,1.7,1.5,1.7,2.5s-0.6,1.9-1.7,2.5C69.2,77.3,68,77.6,66.8,77.6z M61.7,70
							c-0.8,0-1.7,0.2-2.3,0.5c-0.4,0.2-0.7,0.5-0.7,0.8c0,0.2,0.3,0.5,0.7,0.8l5.1,3c1.3,0.7,3.4,0.7,4.7,0
							c0.4-0.2,0.7-0.5,0.7-0.8s-0.3-0.5-0.7-0.8l-5.1-3C63.4,70.2,62.5,70,61.7,70z"/>
						<path class="st6" d="M64.2,124c-4.1,0-7.9-0.9-10.8-2.6c-0.3-0.2-0.6-0.4-0.9-0.6l-0.1-0.1c-0.3-0.2-0.5-0.4-0.7-0.5l-0.1-0.1
							c-0.2-0.2-0.4-0.4-0.6-0.5c-0.1-0.1-0.1-0.1-0.2-0.2l0.6-0.8l-0.8,0.6c-0.1-0.1-0.3-0.3-0.4-0.4c-0.1-0.1-0.1-0.1-0.2-0.2
							l-0.1-0.2c-0.1-0.1-0.2-0.2-0.3-0.4c-0.1-0.1-0.1-0.2-0.2-0.3l-0.1-0.2c-0.1-0.1-0.1-0.2-0.2-0.3c-0.1-0.2-0.2-0.5-0.3-0.7
							c0,0,0-0.1-0.1-0.1l-1.8-4.9v-0.1c-0.1-0.2-0.1-0.4-0.2-0.5l-0.1-0.2c0-0.1-0.1-0.2-0.1-0.3c-0.1-0.4-0.1-0.8-0.1-1.2V77.1
							c0-0.6,0.1-1.2,0.2-1.8c0-0.2,0.1-0.3,0.2-0.5v-0.1l1.8-4.9c0-0.1,0.1-0.2,0.2-0.4l0.1-0.1c1.9-4.1,8.1-7,15.2-7
							c7.4,0,13.8,3,15.4,7.4c0,0,0,0,0,0.1l1.8,4.9v0.1c0.3,0.7,0.4,1.5,0.4,2.3v32.2c0,0.7-0.1,1.5-0.4,2.2v0.1l-1.8,4.9
							c0,0,0,0,0,0.1C78,121,71.7,124,64.2,124z M48.9,111l1.8,4.9c0,0,0,0.1,0.1,0.1c0.1,0.2,0.1,0.3,0.2,0.5l0.1,0.1l0.2,0.3
							c0,0.1,0.1,0.1,0.1,0.2c0.1,0.1,0.1,0.2,0.2,0.2l0.3,0.3c0.1,0.1,0.2,0.2,0.3,0.3l0.2,0.2c0.2,0.1,0.3,0.3,0.5,0.4l0.1,0.1
							c0.2,0.2,0.4,0.3,0.7,0.5l0.1,0.1c0.2,0.2,0.5,0.3,0.8,0.5c2.7,1.5,6.2,2.3,9.9,2.3c6.6,0,12.3-2.6,13.6-6.1c0,0,0,0,0-0.1
							l1.7-4.7V111c0.2-0.6,0.3-1.1,0.3-1.7V77.1c0-0.6-0.1-1.1-0.3-1.7c0,0,0,0,0-0.1L78,70.5c0,0,0,0,0-0.1
							c-1.3-3.5-7-6.1-13.6-6.1c-6.2,0-11.9,2.4-13.4,5.8l-0.1,0.1c0,0.1-0.1,0.1-0.1,0.2L49,75.2c0,0,0,0,0,0.1s-0.1,0.3-0.1,0.4
							c-0.1,0.4-0.2,0.8-0.2,1.3v32.2c0,0.3,0,0.5,0.1,0.8v0.1c0,0.1,0,0.1,0.1,0.2v0.1C48.8,110.7,48.8,110.8,48.9,111
							C48.8,110.9,48.9,110.9,48.9,111L48.9,111z"/>
					</g>
				</g>
				<rect x="4" y="4" class="st7" width="120" height="120"/>
				<rect x="4" y="4" class="st7" width="120" height="120"/>
			</g>
		</g>
	</g>
	<g>
		<rect class="st7" width="128" height="128"/>
	</g>
</g>
</svg>
