<?xml version="1.0" encoding="utf-8"?>
<!-- Generator: Adobe Illustrator 24.1.0, SVG Export Plug-In . SVG Version: 6.00 Build 0)  -->
<svg version="1.1" id="Layer_1" xmlns="http://www.w3.org/2000/svg" xmlns:xlink="http://www.w3.org/1999/xlink" x="0px" y="0px"
	 viewBox="0 0 128 128" style="enable-background:new 0 0 128 128;" xml:space="preserve">
<style type="text/css">
	.st0{fill:#FFFFFF;}
	.st1{fill:#4D9987;}
	.st2{fill:#0E352C;}
	.st3{fill:#27ae60;}
	.st4{fill:#C4D7D3;}
	.st5{fill:#185849;}
	.st6{fill:#E9EBDF;}
	.st7{fill:none;}
</style>
<g id="Layer_1_1_">
</g>
<g>
	<g id="Layer_2_1_">
		<g id="Tech_Concepts_1_">
			<g>
				<g>
					<g>
						<g>
							<polygon class="st0" points="45.7,78.8 33.4,85.9 21.2,78.8 33.4,71.8 							"/>
							<path class="st1" d="M33.4,86.9c-0.2,0-0.3,0-0.5-0.1l-12.2-7.1c-0.3-0.2-0.5-0.5-0.5-0.9s0.2-0.7,0.5-0.9l12.2-7.1
								c0.3-0.2,0.7-0.2,1,0L46.2,78c0.3,0.2,0.5,0.5,0.5,0.9s-0.2,0.7-0.5,0.9L34,86.9C33.8,86.9,33.6,86.9,33.4,86.9z M23.2,78.8
								l10.2,5.9l10.2-5.9l-10.2-5.9L23.2,78.8z"/>
						</g>
						<g>
							<polygon class="st0" points="57.9,71.8 45.7,78.8 33.4,71.8 45.7,64.7 							"/>
							<path class="st1" d="M45.7,79.8c-0.2,0-0.3,0-0.5-0.1L33,72.6c-0.3-0.2-0.5-0.5-0.5-0.9s0.2-0.7,0.5-0.9l12.2-7.1
								c0.3-0.2,0.7-0.2,1,0l12.2,7.1c0.3,0.2,0.5,0.5,0.5,0.9s-0.2,0.7-0.5,0.9l-12.2,7.1C46,79.8,45.8,79.8,45.7,79.8z M35.4,71.8
								l10.2,5.9l10.2-5.9l-10.2-5.9L35.4,71.8z"/>
						</g>
						<g>
							<polygon class="st0" points="70.1,64.7 57.9,71.8 45.7,64.7 57.9,57.7 							"/>
							<path class="st1" d="M57.9,72.8c-0.2,0-0.3,0-0.5-0.1l-12.2-7.1c-0.3-0.2-0.5-0.5-0.5-0.9s0.2-0.7,0.5-0.9l12.2-7.1
								c0.3-0.2,0.7-0.2,1,0l12.2,7.1c0.3,0.2,0.5,0.5,0.5,0.9s-0.2,0.7-0.5,0.9l-12.2,7.1C58.2,72.7,58.1,72.8,57.9,72.8z
								 M47.7,64.7l10.2,5.9l10.2-5.9l-10.2-5.9L47.7,64.7z"/>
						</g>
						<g>
							<polygon class="st0" points="82.3,57.7 70.1,64.7 57.9,57.7 70.1,50.6 							"/>
							<path class="st1" d="M70.1,65.7c-0.2,0-0.3,0-0.5-0.1l-12.2-7.1c-0.3-0.2-0.5-0.5-0.5-0.9s0.2-0.7,0.5-0.9l12.2-7.1
								c0.3-0.2,0.7-0.2,1,0l12.2,7.1c0.3,0.2,0.5,0.5,0.5,0.9s-0.2,0.7-0.5,0.9l-12.2,7.1C70.5,65.7,70.3,65.7,70.1,65.7z
								 M59.9,57.7l10.2,5.9l10.2-5.9l-10.2-5.9L59.9,57.7z"/>
						</g>
						<g>
							<polygon class="st0" points="57.9,85.9 45.7,93 33.4,85.9 45.7,78.8 							"/>
							<path class="st1" d="M45.7,94c-0.2,0-0.3,0-0.5-0.1L33,86.8c-0.3-0.2-0.5-0.5-0.5-0.9s0.2-0.7,0.5-0.9l12.2-7
								c0.3-0.2,0.7-0.2,1,0l12.2,7c0.3,0.2,0.5,0.5,0.5,0.9s-0.2,0.7-0.5,0.9l-12.2,7.1C46,93.9,45.8,94,45.7,94z M35.4,85.9
								l10.2,5.9l10.2-5.9L45.7,80L35.4,85.9z"/>
						</g>
						<g>
							<polygon class="st0" points="70.1,78.8 57.9,85.9 45.7,78.8 57.9,71.8 							"/>
							<path class="st1" d="M57.9,86.9c-0.2,0-0.3,0-0.5-0.1l-12.2-7.1c-0.3-0.2-0.5-0.5-0.5-0.9s0.2-0.7,0.5-0.9l12.2-7.1
								c0.3-0.2,0.7-0.2,1,0L70.6,78c0.3,0.2,0.5,0.5,0.5,0.9s-0.2,0.7-0.5,0.9l-12.2,7.1C58.2,86.9,58.1,86.9,57.9,86.9z
								 M47.7,78.8l10.2,5.9l10.2-5.9l-10.2-5.9L47.7,78.8z"/>
						</g>
						<g>
							<polygon class="st0" points="82.3,71.8 70.1,78.8 57.9,71.8 70.1,64.7 							"/>
							<path class="st1" d="M70.1,79.8c-0.2,0-0.3,0-0.5-0.1l-12.2-7.1c-0.3-0.2-0.5-0.5-0.5-0.9s0.2-0.7,0.5-0.9l12.2-7.1
								c0.3-0.2,0.7-0.2,1,0l12.2,7.1c0.3,0.2,0.5,0.5,0.5,0.9s-0.2,0.7-0.5,0.9l-12.2,7.1C70.5,79.8,70.3,79.8,70.1,79.8z
								 M59.9,71.8l10.2,5.9l10.2-5.9l-10.2-5.9L59.9,71.8z"/>
						</g>
						<g>
							<polygon class="st0" points="94.6,64.7 82.3,71.8 70.1,64.7 82.3,57.7 							"/>
							<path class="st1" d="M82.3,72.8c-0.2,0-0.3,0-0.5-0.1l-12.2-7.1c-0.3-0.2-0.5-0.5-0.5-0.9s0.2-0.7,0.5-0.9l12.2-7.1
								c0.3-0.2,0.7-0.2,1,0L95,63.8c0.3,0.2,0.5,0.5,0.5,0.9s-0.2,0.7-0.5,0.9l-12.2,7.1C82.7,72.7,82.5,72.8,82.3,72.8z
								 M72.1,64.7l10.2,5.9l10.2-5.9l-10.2-5.9L72.1,64.7z"/>
						</g>
						<g>
							<polygon class="st0" points="70.1,93 57.9,100 45.7,93 57.9,85.9 							"/>
							<path class="st1" d="M57.9,101c-0.2,0-0.3,0-0.5-0.1l-12.2-7.1c-0.3-0.2-0.5-0.5-0.5-0.9s0.2-0.7,0.5-0.9l12.2-7
								c0.3-0.2,0.7-0.2,1,0l12.2,7.1c0.3,0.2,0.5,0.5,0.5,0.9s-0.2,0.7-0.5,0.9L58.4,101C58.2,101,58.1,101,57.9,101z M47.7,93
								l10.2,5.9L68.1,93l-10.2-5.9L47.7,93z"/>
						</g>
						<g>
							<polygon class="st0" points="82.3,85.9 70.1,93 57.9,85.9 70.1,78.8 							"/>
							<path class="st1" d="M70.1,94c-0.2,0-0.3,0-0.5-0.1l-12.2-7.1c-0.3-0.2-0.5-0.5-0.5-0.9s0.2-0.7,0.5-0.9l12.2-7
								c0.3-0.2,0.7-0.2,1,0l12.2,7c0.3,0.2,0.5,0.5,0.5,0.9s-0.2,0.7-0.5,0.9l-12.2,7.1C70.5,93.9,70.3,94,70.1,94z M59.9,85.9
								l10.2,5.9l10.2-5.9L70.1,80L59.9,85.9z"/>
						</g>
						<g>
							<polygon class="st0" points="94.6,78.8 82.3,85.9 70.1,78.8 82.3,71.8 							"/>
							<path class="st1" d="M82.3,86.9c-0.2,0-0.3,0-0.5-0.1l-12.2-7.1c-0.3-0.2-0.5-0.5-0.5-0.9s0.2-0.7,0.5-0.9l12.2-7.1
								c0.3-0.2,0.7-0.2,1,0L95.1,78c0.3,0.2,0.5,0.5,0.5,0.9s-0.2,0.7-0.5,0.9l-12.2,7.1C82.7,86.9,82.5,86.9,82.3,86.9z
								 M72.1,78.8l10.2,5.9l10.2-5.9l-10.2-5.9L72.1,78.8z"/>
						</g>
						<g>
							<polygon class="st0" points="106.8,71.8 94.6,78.8 82.3,71.8 94.6,64.7 							"/>
							<path class="st1" d="M94.6,79.8c-0.2,0-0.3,0-0.5-0.1l-12.2-7.1c-0.3-0.2-0.5-0.5-0.5-0.9s0.2-0.7,0.5-0.9l12.2-7.1
								c0.3-0.2,0.7-0.2,1,0l12.2,7.1c0.3,0.2,0.5,0.5,0.5,0.9s-0.2,0.7-0.5,0.9l-12.2,7.1C94.9,79.8,94.7,79.8,94.6,79.8z
								 M84.3,71.8l10.2,5.9l10.2-5.9l-10.2-5.9L84.3,71.8z"/>
						</g>
						<g>
							<polygon class="st0" points="33.4,85.9 21.2,93 9,85.9 21.2,78.8 							"/>
							<path class="st1" d="M21.2,94c-0.2,0-0.3,0-0.5-0.1L8.5,86.8C8.2,86.6,8,86.3,8,85.9s0.2-0.7,0.5-0.9l12.2-7
								c0.3-0.2,0.7-0.2,1,0l12.2,7c0.3,0.2,0.5,0.5,0.5,0.9s-0.2,0.7-0.5,0.9l-12.2,7.1C21.6,93.9,21.4,94,21.2,94z M11,85.9
								l10.2,5.9l10.2-5.9L21.2,80L11,85.9z"/>
						</g>
						<g>
							<polygon class="st0" points="45.7,93 33.4,100 21.2,93 33.4,85.9 							"/>
							<path class="st1" d="M33.4,101c-0.2,0-0.3,0-0.5-0.1l-12.2-7.1c-0.3-0.2-0.5-0.5-0.5-0.9s0.2-0.7,0.5-0.9l12.2-7
								c0.3-0.2,0.7-0.2,1,0l12.2,7.1c0.3,0.2,0.5,0.5,0.5,0.9s-0.2,0.7-0.5,0.9L33.9,101C33.8,101,33.6,101,33.4,101z M23.2,93
								l10.2,5.9L43.7,93l-10.2-5.9L23.2,93z"/>
						</g>
						<g>
							<polygon class="st0" points="57.9,100 45.7,107.1 33.4,100 45.7,93 							"/>
							<path class="st1" d="M45.7,108.1c-0.2,0-0.3,0-0.5-0.1L33,100.9c-0.3-0.2-0.5-0.5-0.5-0.9s0.2-0.7,0.5-0.9L45.2,92
								c0.3-0.2,0.7-0.2,1,0l12.2,7.1c0.3,0.2,0.5,0.5,0.5,0.9s-0.2,0.7-0.5,0.9L46.2,108C46,108,45.8,108.1,45.7,108.1z M35.4,100
								l10.2,5.9l10.2-5.9l-10.2-5.9L35.4,100z"/>
						</g>
						<g>
							<polygon class="st0" points="94.6,50.6 82.3,57.7 70.1,50.6 82.3,43.6 							"/>
							<path class="st1" d="M82.3,58.7c-0.2,0-0.3,0-0.5-0.1l-12.2-7.1c-0.3-0.2-0.5-0.5-0.5-0.9s0.2-0.7,0.5-0.9l12.2-7.1
								c0.3-0.2,0.7-0.2,1,0L95,49.7c0.3,0.2,0.5,0.5,0.5,0.9s-0.2,0.7-0.5,0.9l-12.2,7.1C82.7,58.6,82.5,58.7,82.3,58.7z
								 M72.1,50.6l10.2,5.9l10.2-5.9l-10.2-5.9L72.1,50.6z"/>
						</g>
						<g>
							<polygon class="st0" points="106.8,57.7 94.6,64.7 82.3,57.7 94.6,50.6 							"/>
							<path class="st1" d="M94.6,65.7c-0.2,0-0.3,0-0.5-0.1l-12.2-7.1c-0.3-0.2-0.5-0.5-0.5-0.9s0.2-0.7,0.5-0.9l12.2-7.1
								c0.3-0.2,0.7-0.2,1,0l12.2,7.1c0.3,0.2,0.5,0.5,0.5,0.9s-0.2,0.7-0.5,0.9l-12.2,7.1C94.9,65.7,94.7,65.7,94.6,65.7z
								 M84.3,57.7l10.2,5.9l10.2-5.9l-10.2-5.9L84.3,57.7z"/>
						</g>
						<g>
							<polygon class="st0" points="119,64.7 106.8,71.8 94.6,64.7 106.8,57.7 							"/>
							<path class="st1" d="M106.8,72.8c-0.2,0-0.3,0-0.5-0.1l-12.2-7.1c-0.3-0.2-0.5-0.5-0.5-0.9s0.2-0.7,0.5-0.9l12.2-7.1
								c0.3-0.2,0.7-0.2,1,0l12.2,7.1c0.3,0.2,0.5,0.5,0.5,0.9s-0.2,0.7-0.5,0.9l-12.2,7.1C107.1,72.7,107,72.8,106.8,72.8z
								 M96.6,64.7l10.2,5.9l10.2-5.9l-10.2-5.9L96.6,64.7z"/>
						</g>
					</g>
					<path class="st1" d="M45.7,108.1c-0.2,0-0.3,0-0.5-0.1L8.5,86.8C8.2,86.6,8,86.3,8,85.9s0.2-0.7,0.5-0.9l73.3-42.3
						c0.3-0.2,0.7-0.2,1,0l36.7,21.2c0.3,0.2,0.5,0.5,0.5,0.9s-0.2,0.7-0.5,0.9L46.2,108C46,108,45.8,108.1,45.7,108.1z M11,85.9
						l34.7,20L117,64.7l-10.7-6.2l0,0l-24-13.8L11,85.9z"/>
					<g>
						<polygon class="st1" points="119,71.8 45.7,114.1 45.7,107.1 119,64.7 						"/>
						<path class="st1" d="M45.7,115.1c-0.2,0-0.3,0-0.5-0.1c-0.3-0.2-0.5-0.5-0.5-0.9V107c0-0.4,0.2-0.7,0.5-0.9l73.3-42.3
							c0.3-0.2,0.7-0.2,1,0s0.5,0.5,0.5,0.9v7.1c0,0.4-0.2,0.7-0.5,0.9L46.2,115C46,115.1,45.8,115.1,45.7,115.1z M46.7,107.6v4.7
							L118,71.2v-4.7L46.7,107.6z M119,71.8L119,71.8L119,71.8z"/>
					</g>
					<g>
						<polygon class="st0" points="9,93 45.7,114.1 45.7,107.1 9,85.9 						"/>
						<path class="st1" d="M45.7,115.1c-0.2,0-0.3,0-0.5-0.1L8.5,93.8C8.2,93.6,8,93.3,8,93v-7.1c0-0.4,0.2-0.7,0.5-0.9
							c0.3-0.2,0.7-0.2,1,0l36.7,21.2c0.3,0.2,0.5,0.5,0.5,0.9v7.1c0,0.4-0.2,0.7-0.5,0.9C46,115.1,45.8,115.1,45.7,115.1z M10,92.4
							l34.7,20v-4.7L10,87.6V92.4z"/>
					</g>
					<path class="st2" d="M45.7,115.1c-0.2,0-0.3,0-0.5-0.1L8.5,93.8C8.2,93.6,8,93.3,8,93v-7.1c0-0.4,0.2-0.7,0.5-0.9l73.3-42.3
						c0.3-0.2,0.7-0.2,1,0l36.7,21.2c0.3,0.2,0.5,0.5,0.5,0.9v7.1c0,0.4-0.2,0.7-0.5,0.9L46.2,115C46,115.1,45.8,115.1,45.7,115.1z
						 M10,92.4L45.7,113L118,71.2v-5.9l-11.7-6.8l0,0l-24-13.8L10,86.5V92.4z"/>
					<g>
						<g>
							<polygon class="st0" points="94.6,20.9 82.3,28 70.1,20.9 82.3,13.9 							"/>
							<path class="st3" d="M82.3,29c-0.2,0-0.3,0-0.5-0.1l-12.2-7.1c-0.3-0.2-0.5-0.5-0.5-0.9s0.2-0.7,0.5-0.9l12.2-7
								c0.3-0.2,0.7-0.2,1,0L95,20.1c0.3,0.2,0.5,0.5,0.5,0.9s-0.2,0.7-0.5,0.9L82.8,29C82.7,28.9,82.5,29,82.3,29z M72.1,20.9
								l10.2,5.9l10.2-5.9L82.3,15L72.1,20.9z"/>
						</g>
						<g>
							<polygon class="st3" points="94.6,20.9 94.6,64.7 82.3,71.8 82.3,28 							"/>
							<path class="st3" d="M82.3,72.8c-0.2,0-0.3,0-0.5-0.1c-0.3-0.2-0.5-0.5-0.5-0.9V28c0-0.4,0.2-0.7,0.5-0.9L94,20
								c0.3-0.2,0.7-0.2,1,0s0.5,0.5,0.5,0.9v43.8c0,0.4-0.2,0.7-0.5,0.9l-12.2,7.1C82.7,72.7,82.5,72.8,82.3,72.8z M83.3,28.6v41.5
								l10.2-5.9V22.7L83.3,28.6z"/>
						</g>
						<g>
							<polygon class="st4" points="70.1,20.9 70.1,64.7 82.3,71.8 82.3,28 							"/>
							<path class="st3" d="M82.3,72.8c-0.2,0-0.3,0-0.5-0.1l-12.2-7.1c-0.3-0.2-0.5-0.5-0.5-0.9V20.9c0-0.4,0.2-0.7,0.5-0.9
								c0.3-0.2,0.7-0.2,1,0l12.2,7.1c0.3,0.2,0.5,0.5,0.5,0.9v43.8c0,0.4-0.2,0.7-0.5,0.9C82.7,72.7,82.5,72.8,82.3,72.8z
								 M71.1,64.2l10.2,5.9V28.6l-10.2-5.9V64.2z"/>
						</g>
					</g>
					<path class="st5" d="M82.3,72.8c-0.2,0-0.3,0-0.5-0.1l-12.2-7.1c-0.3-0.2-0.5-0.5-0.5-0.9V20.9c0-0.4,0.2-0.7,0.5-0.9l12.2-7
						c0.3-0.2,0.7-0.2,1,0L95,20.1c0.3,0.2,0.5,0.5,0.5,0.9v43.8c0,0.4-0.2,0.7-0.5,0.9l-12.2,7.1C82.7,72.7,82.5,72.8,82.3,72.8z
						 M71.1,64.2l11.2,6.5l11.2-6.5V21.5L82.3,15l-11.2,6.5C71.1,21.5,71.1,64.2,71.1,64.2z"/>
					<g>
						<polygon class="st6" points="57.9,85.9 45.7,93 33.4,85.9 45.7,78.8 						"/>
						<path class="st1" d="M45.7,94c-0.2,0-0.3,0-0.5-0.1L33,86.8c-0.3-0.2-0.5-0.5-0.5-0.9s0.2-0.7,0.5-0.9l12.2-7
							c0.3-0.2,0.7-0.2,1,0l12.2,7c0.3,0.2,0.5,0.5,0.5,0.9s-0.2,0.7-0.5,0.9l-12.2,7.1C46,93.9,45.8,94,45.7,94z M35.4,85.9
							l10.2,5.9l10.2-5.9L45.7,80L35.4,85.9z"/>
					</g>
					<g>
						<g>
							<polygon class="st0" points="82.3,53.5 70.1,60.5 57.9,53.5 70.1,46.4 							"/>
							<path class="st1" d="M70.1,61.5c-0.2,0-0.3,0-0.5-0.1l-12.2-7.1c-0.3-0.2-0.5-0.5-0.5-0.9s0.2-0.7,0.5-0.9l12.2-7.1
								c0.3-0.2,0.7-0.2,1,0l12.2,7.1c0.3,0.2,0.5,0.5,0.5,0.9s-0.2,0.7-0.5,0.9l-12.2,7.1C70.5,61.5,70.3,61.5,70.1,61.5z
								 M59.9,53.5l10.2,5.9l10.2-5.9l-10.2-5.9L59.9,53.5z"/>
						</g>
						<g>
							<polygon class="st1" points="82.3,53.5 82.3,71.8 70.1,78.8 70.1,60.5 							"/>
							<path class="st1" d="M70.1,79.8c-0.2,0-0.3,0-0.5-0.1c-0.3-0.2-0.5-0.5-0.5-0.9V60.5c0-0.4,0.2-0.7,0.5-0.9l12.2-7.1
								c0.3-0.2,0.7-0.2,1,0s0.5,0.5,0.5,0.9v18.3c0,0.4-0.2,0.7-0.5,0.9l-12.2,7.1C70.5,79.8,70.3,79.8,70.1,79.8z M71.1,61.1v16
								l10.2-5.9v-16L71.1,61.1z"/>
						</g>
						<g>
							<polygon class="st6" points="57.9,53.5 57.9,71.8 70.1,78.8 70.1,60.5 							"/>
							<path class="st1" d="M70.1,79.8c-0.2,0-0.3,0-0.5-0.1l-12.2-7.1c-0.3-0.2-0.5-0.5-0.5-0.9V53.5c0-0.4,0.2-0.7,0.5-0.9
								s0.7-0.2,1,0l12.2,7.1c0.3,0.2,0.5,0.5,0.5,0.9v18.3c0,0.4-0.2,0.7-0.5,0.9C70.5,79.8,70.3,79.8,70.1,79.8z M58.9,71.2
								l10.2,5.9v-16l-10.2-5.9C58.9,55.2,58.9,71.2,58.9,71.2z"/>
						</g>
					</g>
					<path class="st2" d="M70.1,79.8c-0.2,0-0.3,0-0.5-0.1l-12.2-7.1c-0.3-0.2-0.5-0.5-0.5-0.9V53.5c0-0.4,0.2-0.7,0.5-0.9l12.2-7.1
						c0.3-0.2,0.7-0.2,1,0l12.2,7.1c0.3,0.2,0.5,0.5,0.5,0.9v18.3c0,0.4-0.2,0.7-0.5,0.9l-12.2,7.1C70.5,79.8,70.3,79.8,70.1,79.8z
						 M58.9,71.2l11.2,6.5l11.2-6.5V54l-11.2-6.5L58.9,54V71.2z"/>
					<g>
						<g>
							<polygon class="st0" points="70.1,48.3 57.9,55.3 45.7,48.3 57.9,41.2 							"/>
							<path class="st1" d="M57.9,56.3c-0.2,0-0.3,0-0.5-0.1l-12.2-7.1c-0.3-0.2-0.5-0.5-0.5-0.9s0.2-0.7,0.5-0.9l12.2-7.1
								c0.3-0.2,0.7-0.2,1,0l12.2,7.1c0.3,0.2,0.5,0.5,0.5,0.9s-0.2,0.7-0.5,0.9l-12.2,7.1C58.2,56.3,58.1,56.3,57.9,56.3z
								 M47.7,48.3l10.2,5.9l10.2-5.9l-10.2-5.9L47.7,48.3z"/>
						</g>
						<g>
							<polygon class="st1" points="70.1,48.3 70.1,78.8 57.9,85.9 57.9,55.3 							"/>
							<path class="st1" d="M57.9,86.9c-0.2,0-0.3,0-0.5-0.1c-0.3-0.2-0.5-0.5-0.5-0.9V55.3c0-0.4,0.2-0.7,0.5-0.9l12.2-7.1
								c0.3-0.2,0.7-0.2,1,0s0.5,0.5,0.5,0.9v30.6c0,0.4-0.2,0.7-0.5,0.9l-12.2,7.1C58.2,86.9,58.1,86.9,57.9,86.9z M58.9,55.9v28.2
								l10.2-5.9V50L58.9,55.9z"/>
						</g>
						<g>
							<polygon class="st6" points="45.7,48.3 45.7,78.8 57.9,85.9 57.9,55.3 							"/>
							<path class="st1" d="M57.9,86.9c-0.2,0-0.3,0-0.5-0.1l-12.2-7.1c-0.3-0.2-0.5-0.5-0.5-0.9V48.3c0-0.4,0.2-0.7,0.5-0.9
								s0.7-0.2,1,0l12.2,7.1c0.3,0.2,0.5,0.5,0.5,0.9V86c0,0.4-0.2,0.7-0.5,0.9C58.2,86.9,58.1,86.9,57.9,86.9z M46.7,78.3
								l10.2,5.9V55.9L46.7,50V78.3z"/>
						</g>
					</g>
					<path class="st2" d="M57.9,86.9c-0.2,0-0.3,0-0.5-0.1l-12.2-7.1c-0.3-0.2-0.5-0.5-0.5-0.9V48.3c0-0.4,0.2-0.7,0.5-0.9l12.2-7.1
						c0.3-0.2,0.7-0.2,1,0l12.2,7.1c0.3,0.2,0.5,0.5,0.5,0.9v30.6c0,0.4-0.2,0.7-0.5,0.9l-12.2,7.1C58.2,86.9,58.1,86.9,57.9,86.9z
						 M46.7,78.3l11.2,6.5l11.2-6.5V48.9l-11.2-6.5l-11.2,6.5C46.7,48.9,46.7,78.3,46.7,78.3z"/>
					<g>
						<g>
							<polygon class="st0" points="57.9,77.7 45.7,84.8 33.4,77.7 45.7,70.7 							"/>
							<path class="st1" d="M45.7,85.8c-0.2,0-0.3,0-0.5-0.1L33,78.6c-0.3-0.2-0.5-0.5-0.5-0.9s0.2-0.7,0.5-0.9l12.2-7.1
								c0.3-0.2,0.7-0.2,1,0l12.2,7.1c0.3,0.2,0.5,0.5,0.5,0.9s-0.2,0.7-0.5,0.9l-12.2,7.1C46,85.8,45.8,85.8,45.7,85.8z M35.4,77.7
								l10.2,5.9l10.2-5.9l-10.2-5.9L35.4,77.7z"/>
						</g>
						<g>
							<polygon class="st1" points="57.9,77.7 57.9,85.9 45.7,93 45.7,84.8 							"/>
							<path class="st1" d="M45.7,94c-0.2,0-0.3,0-0.5-0.1c-0.3-0.2-0.5-0.5-0.5-0.9v-8.1c0-0.4,0.2-0.7,0.5-0.9l12.2-7.1
								c0.3-0.2,0.7-0.2,1,0s0.5,0.5,0.5,0.9v8.1c0,0.4-0.2,0.7-0.5,0.9l-12.2,7.1C46,93.9,45.8,94,45.7,94z M46.7,85.4v5.8
								l10.2-5.9v-5.8L46.7,85.4z"/>
						</g>
						<g>
							<polygon class="st6" points="33.4,77.7 33.4,85.9 45.7,93 45.7,84.8 							"/>
							<path class="st1" d="M45.7,94c-0.2,0-0.3,0-0.5-0.1L33,86.8c-0.3-0.2-0.5-0.5-0.5-0.9v-8.1c0-0.4,0.2-0.7,0.5-0.9
								c0.3-0.2,0.7-0.2,1,0L46.2,84c0.3,0.2,0.5,0.5,0.5,0.9V93c0,0.4-0.2,0.7-0.5,0.9C46,93.9,45.8,94,45.7,94z M34.4,85.3
								l10.2,5.9v-5.8l-10.2-5.9V85.3z"/>
						</g>
					</g>
					<path class="st2" d="M45.7,94c-0.2,0-0.3,0-0.5-0.1L33,86.8c-0.3-0.2-0.5-0.5-0.5-0.9v-8.1c0-0.4,0.2-0.7,0.5-0.9l12.2-7.1
						c0.3-0.2,0.7-0.2,1,0l12.2,7.1c0.3,0.2,0.5,0.5,0.5,0.9v8.1c0,0.4-0.2,0.7-0.5,0.9l-12.2,7.1C46,93.9,45.8,94,45.7,94z
						 M34.4,85.3l11.2,6.5l11.2-6.5v-7l-11.2-6.5l-11.2,6.5V85.3z"/>
				</g>
				<rect x="4" y="4" class="st7" width="120" height="120"/>
				<rect x="4" y="4" class="st7" width="120" height="120"/>
			</g>
		</g>
	</g>
	<g>
		<rect class="st7" width="128" height="128"/>
	</g>
</g>
</svg>
