<?xml version="1.0" encoding="utf-8"?>
<!-- Generator: Adobe Illustrator 24.1.0, SVG Export Plug-In . SVG Version: 6.00 Build 0)  -->
<svg version="1.1" id="Layer_1" xmlns="http://www.w3.org/2000/svg" xmlns:xlink="http://www.w3.org/1999/xlink" x="0px" y="0px"
	 viewBox="0 0 128 128" style="enable-background:new 0 0 128 128;" xml:space="preserve">
<style type="text/css">
	.st0{fill:#E9EBDF;}
	.st1{fill:#4D9987;}
	.st2{fill:#FFFFFF;}
	.st3{fill:#0E352C;}
	.st4{fill:#C4D7D3;}
	.st5{fill:none;}
</style>
<g id="Layer_1_1_">
</g>
<g>
	<g id="Layer_2_1_">
		<g id="Objects_1_">
			<g>
				<g>
					<g>
						<g>
							<g>
								<g>
									<path class="st0" d="M112.3,55.6L66.7,29.3c-1.7-1-4.4-1-6.1,0L14.8,55.7L5,55.5v13.9c0,0.6,0.4,1.3,1.3,1.7l55.1,31.8
										c1.7,1,4.4,1,6.1,0l54.4-31.4c0.8-0.5,1.3-1.1,1.3-1.7V55.9L112.3,55.6z"/>
									<path class="st1" d="M64.3,104.6c-1.3,0-2.5-0.3-3.5-0.9L5.8,72C4.6,71.3,4,70.4,4,69.4V55.5c0-0.3,0.1-0.5,0.3-0.7
										c0.2-0.2,0.5-0.3,0.7-0.3l9.6,0.2l45.5-26.3c2-1.1,5.1-1.1,7.1,0l45.4,26.2l10.4,0.2c0.5,0,1,0.5,1,1v13.9
										c0,1-0.6,2-1.8,2.6l-54.4,31.4C66.9,104.3,65.6,104.6,64.3,104.6z M6,56.5v12.9c0,0.3,0.3,0.6,0.8,0.9l55,31.7
										c1.4,0.8,3.7,0.8,5.1,0l54.4-31.4c0.5-0.3,0.8-0.6,0.8-0.9V56.9l-9.7-0.2c-0.2,0-0.3-0.1-0.5-0.1L66.2,30.1
										c-1.4-0.8-3.7-0.8-5.1,0L15.3,56.6c-0.2,0.1-0.3,0.1-0.5,0.1L6,56.5z"/>
								</g>
								<path class="st1" d="M64.3,30.8v72.9c1.1,0,2.2-0.2,3-0.7l54.4-31.4c0.8-0.5,1.3-1.1,1.3-1.7v-14l-10.7-0.3L64.3,30.8z"/>
								<g>
									<path class="st2" d="M121.7,57.6L67.4,89c-1.7,1-4.4,1-6.1,0l-55-31.8c-1.7-1-1.7-2.5,0-3.5l54.4-31.4c1.7-1,4.4-1,6.1,0
										l55.1,31.8C123.4,55.1,123.4,56.7,121.7,57.6z"/>
									<path class="st1" d="M64.3,90.7c-1.3,0-2.5-0.3-3.5-0.9l-55-31.7C4.6,57.4,4,56.5,4,55.5s0.6-2,1.8-2.6l54.4-31.4
										c2-1.1,5.1-1.1,7.1,0l55.1,31.8c1.1,0.6,1.8,1.6,1.8,2.6s-0.6,2-1.8,2.6l0,0L67.9,89.9C66.9,90.5,65.6,90.7,64.3,90.7z
										 M63.7,22.6c-0.9,0-1.8,0.2-2.5,0.6L6.8,54.6C6.3,54.9,6,55.2,6,55.5s0.3,0.6,0.8,0.9l55.1,31.8c1.4,0.8,3.7,0.8,5.1,0
										l54.4-31.4c0.5-0.3,0.8-0.6,0.8-0.9s-0.3-0.6-0.8-0.9L66.2,23.2C65.5,22.8,64.6,22.6,63.7,22.6z M121.7,57.6L121.7,57.6
										L121.7,57.6z"/>
								</g>
								<path class="st3" d="M64.3,104.6L64.3,104.6c-1.3,0-2.6-0.3-3.5-0.9L5.8,72C4.6,71.3,4,70.4,4,69.4V55.5c0-1,0.6-2,1.8-2.6
									l54.4-31.4c2-1.1,5.1-1.1,7.1,0l55.1,31.8c1.1,0.6,1.8,1.6,1.8,2.6v13.9c0,1-0.6,2-1.8,2.6L68,103.8
									c-0.3,0.1-0.5,0.3-0.8,0.4h-0.1c-0.2,0.1-0.5,0.2-0.7,0.2C65.6,104.6,65,104.6,64.3,104.6z M63.7,22.6
									c-0.9,0-1.8,0.2-2.5,0.6L6.8,54.6C6.3,54.9,6,55.2,6,55.5v13.9c0,0.3,0.3,0.6,0.8,0.9l55,31.7c0.6,0.4,1.6,0.6,2.5,0.6
									c0.5,0,0.9,0,1.4-0.1c0.2,0,0.4-0.1,0.6-0.2h0.1c0.2-0.1,0.3-0.1,0.5-0.2l54.4-31.4c0.5-0.3,0.8-0.6,0.8-0.9V55.9
									c0-0.3-0.3-0.6-0.8-0.9L66.2,23.2C65.5,22.8,64.6,22.6,63.7,22.6z"/>
								<path class="st4" d="M64.3,81.8c-1,0-2-0.2-2.7-0.7L20.9,57.7c-0.9-0.5-1.4-1.3-1.4-2.2s0.5-1.6,1.4-2.2L61,30.2
									c1.5-0.9,3.9-0.9,5.5,0l40.6,23.4c0.9,0.5,1.4,1.3,1.4,2.2s-0.5,1.6-1.4,2.2l0,0L67,81.1C66.2,81.6,65.2,81.8,64.3,81.8z
									 M63.7,31.6c-0.6,0-1.3,0.1-1.7,0.4L21.9,55.1c-0.3,0.2-0.4,0.4-0.4,0.4s0.1,0.2,0.4,0.4l40.6,23.4c0.9,0.5,2.5,0.5,3.5,0
									l40.1-23.1c0.3-0.2,0.4-0.4,0.4-0.4s-0.1-0.2-0.4-0.4L65.5,32C65,31.7,64.4,31.6,63.7,31.6z M106.6,57.1L106.6,57.1
									L106.6,57.1z"/>
								<path class="st4" d="M86.5,56.4L65.3,68.7c-0.7,0.4-1.7,0.4-2.4,0L41.5,56.3c-0.7-0.4-0.7-1,0-1.4l21.2-12.2
									c0.7-0.4,1.7-0.4,2.4,0l21.5,12.4C87.2,55.4,87.2,56.1,86.5,56.4z"/>
							</g>
						</g>
					</g>
					<g>
						<path class="st3" d="M123,76.8c-0.6,0-1-0.4-1-1v-5l-1.6-0.9c-0.5-0.3-0.6-0.9-0.4-1.4c0.3-0.5,0.9-0.6,1.4-0.4l2.1,1.2
							c0.3,0.2,0.5,0.5,0.5,0.9v5.5C124,76.4,123.6,76.8,123,76.8z"/>
						<path class="st3" d="M118.6,79.4c-0.6,0-1-0.4-1-1v-5l-1.6-0.9c-0.5-0.3-0.6-0.9-0.4-1.4c0.3-0.5,0.9-0.6,1.4-0.4l2.1,1.2
							c0.3,0.2,0.5,0.5,0.5,0.9v5.5C119.6,78.9,119.1,79.4,118.6,79.4z"/>
						<path class="st3" d="M114.2,81.9c-0.6,0-1-0.4-1-1v-5l-1.6-0.9c-0.5-0.3-0.6-0.9-0.4-1.4c0.3-0.5,0.9-0.6,1.4-0.4l2.1,1.2
							c0.3,0.2,0.5,0.5,0.5,0.9v5.5C115.2,81.5,114.7,81.9,114.2,81.9z"/>
						<path class="st3" d="M109.8,84.5c-0.6,0-1-0.4-1-1v-5l-1.6-0.9c-0.5-0.3-0.6-0.9-0.4-1.4c0.3-0.5,0.9-0.6,1.4-0.4l2.1,1.2
							c0.3,0.2,0.5,0.5,0.5,0.9v5.5C110.8,84,110.3,84.5,109.8,84.5z"/>
						<path class="st3" d="M105.4,87c-0.6,0-1-0.4-1-1v-5l-1.6-0.9c-0.5-0.3-0.6-0.9-0.4-1.4c0.3-0.5,0.9-0.6,1.4-0.4l2.1,1.2
							c0.3,0.2,0.5,0.5,0.5,0.9V86C106.4,86.6,105.9,87,105.4,87z"/>
						<path class="st3" d="M101,89.6c-0.6,0-1-0.4-1-1v-5l-1.6-0.9c-0.5-0.3-0.6-0.9-0.4-1.4c0.3-0.5,0.9-0.6,1.4-0.4l2.1,1.2
							c0.3,0.2,0.5,0.5,0.5,0.9v5.5C102,89.1,101.5,89.6,101,89.6z"/>
						<path class="st3" d="M96.5,92.1c-0.6,0-1-0.4-1-1v-5l-1.6-0.9c-0.5-0.3-0.6-0.9-0.4-1.4c0.3-0.5,0.9-0.6,1.4-0.4l2.1,1.2
							c0.3,0.2,0.5,0.5,0.5,0.9V91C97.5,91.7,97.1,92.1,96.5,92.1z"/>
						<path class="st3" d="M92.1,94.7c-0.6,0-1-0.4-1-1v-5l-1.6-0.9c-0.5-0.3-0.6-0.9-0.4-1.4c0.3-0.5,0.9-0.6,1.4-0.4l2.1,1.2
							c0.3,0.2,0.5,0.5,0.5,0.9v5.5C93.1,94.2,92.7,94.7,92.1,94.7z"/>
						<path class="st3" d="M87.7,97.2c-0.6,0-1-0.4-1-1v-5l-1.6-0.9c-0.5-0.3-0.6-0.9-0.4-1.4c0.3-0.5,0.9-0.6,1.4-0.4l2.1,1.2
							c0.3,0.2,0.5,0.5,0.5,0.9v5.5C88.7,96.8,88.3,97.2,87.7,97.2z"/>
						<path class="st3" d="M83.3,99.8c-0.6,0-1-0.4-1-1v-5l-1.6-0.9c-0.5-0.3-0.6-0.9-0.4-1.4c0.3-0.5,0.9-0.6,1.4-0.4l2.1,1.2
							c0.3,0.2,0.5,0.5,0.5,0.9v5.5C84.3,99.3,83.9,99.8,83.3,99.8z"/>
						<path class="st3" d="M78.9,102.3c-0.6,0-1-0.4-1-1v-5l-1.6-0.9c-0.5-0.3-0.6-0.9-0.4-1.4c0.3-0.5,0.9-0.6,1.4-0.4l2.1,1.2
							c0.3,0.2,0.5,0.5,0.5,0.9v5.5C79.9,101.9,79.5,102.3,78.9,102.3z"/>
						<path class="st3" d="M74.5,104.8c-0.6,0-1-0.4-1-1v-5l-1.6-0.9c-0.5-0.3-0.6-0.9-0.4-1.4c0.3-0.5,0.9-0.6,1.4-0.4l2.1,1.2
							c0.3,0.2,0.5,0.5,0.5,0.9v5.5C75.5,104.4,75.1,104.8,74.5,104.8z"/>
						<path class="st3" d="M70.1,107.4c-0.6,0-1-0.4-1-1v-5l-1.6-0.9c-0.5-0.3-0.6-0.9-0.4-1.4c0.3-0.5,0.9-0.6,1.4-0.4l2.1,1.2
							c0.3,0.2,0.5,0.5,0.5,0.9v5.5C71.1,106.9,70.6,107.4,70.1,107.4z"/>
					</g>
					<g>
						<path class="st3" d="M5,76.8c-0.6,0-1-0.4-1-1v-5.5c0-0.4,0.2-0.7,0.5-0.9l2.1-1.2c0.5-0.3,1.1-0.1,1.4,0.4s0.1,1.1-0.4,1.4
							L6,70.9v5C6,76.4,5.6,76.8,5,76.8z"/>
						<path class="st3" d="M9.4,79.4c-0.6,0-1-0.4-1-1v-5.5c0-0.4,0.2-0.7,0.5-0.9l2.1-1.2c0.5-0.3,1.1-0.1,1.4,0.4
							c0.3,0.5,0.1,1.1-0.4,1.4l-1.6,0.9v5C10.4,78.9,10,79.4,9.4,79.4z"/>
						<path class="st3" d="M13.8,81.9c-0.6,0-1-0.4-1-1v-5.5c0-0.4,0.2-0.7,0.5-0.9l2.1-1.2c0.5-0.3,1.1-0.1,1.4,0.4
							s0.1,1.1-0.4,1.4L14.8,76v5C14.8,81.5,14.4,81.9,13.8,81.9z"/>
						<path class="st3" d="M18.2,84.5c-0.6,0-1-0.4-1-1V78c0-0.4,0.2-0.7,0.5-0.9l2.1-1.2c0.5-0.3,1.1-0.1,1.4,0.4s0.1,1.1-0.4,1.4
							l-1.6,0.9v5C19.2,84,18.8,84.5,18.2,84.5z"/>
						<path class="st3" d="M22.6,87c-0.6,0-1-0.4-1-1v-5.5c0-0.4,0.2-0.7,0.5-0.9l2.1-1.2c0.5-0.3,1.1-0.1,1.4,0.4s0.1,1.1-0.4,1.4
							l-1.6,0.9v5C23.6,86.6,23.2,87,22.6,87z"/>
						<path class="st3" d="M27,89.6c-0.6,0-1-0.4-1-1V83c0-0.4,0.2-0.7,0.5-0.9l2.1-1.2c0.5-0.3,1.1-0.1,1.4,0.4s0.1,1.1-0.4,1.4
							L28,83.6v5C28,89.1,27.6,89.6,27,89.6z"/>
						<path class="st3" d="M31.5,92.1c-0.6,0-1-0.4-1-1v-5.5c0-0.4,0.2-0.7,0.5-0.9l2.1-1.2c0.5-0.3,1.1-0.1,1.4,0.4
							c0.3,0.5,0.1,1.1-0.4,1.4l-1.6,0.9v5C32.5,91.7,32,92.1,31.5,92.1z"/>
						<path class="st3" d="M35.9,94.7c-0.6,0-1-0.4-1-1v-5.5c0-0.4,0.2-0.7,0.5-0.9l2.1-1.2c0.5-0.3,1.1-0.1,1.4,0.4
							c0.3,0.5,0.1,1.1-0.4,1.4l-1.6,0.9v5C36.9,94.2,36.4,94.7,35.9,94.7z"/>
						<path class="st3" d="M40.3,97.2c-0.6,0-1-0.4-1-1v-5.5c0-0.4,0.2-0.7,0.5-0.9l2.1-1.2c0.5-0.3,1.1-0.1,1.4,0.4
							c0.3,0.5,0.1,1.1-0.4,1.4l-1.6,0.9v5C41.3,96.8,40.8,97.2,40.3,97.2z"/>
						<path class="st3" d="M44.7,99.8c-0.6,0-1-0.4-1-1v-5.5c0-0.4,0.2-0.7,0.5-0.9l2.1-1.2c0.5-0.3,1.1-0.1,1.4,0.4
							c0.3,0.5,0.1,1.1-0.4,1.4l-1.6,0.9v5C45.7,99.3,45.2,99.8,44.7,99.8z"/>
						<path class="st3" d="M49.1,102.3c-0.6,0-1-0.4-1-1v-5.5c0-0.4,0.2-0.7,0.5-0.9l2.1-1.2c0.5-0.3,1.1-0.1,1.4,0.4
							c0.3,0.5,0.1,1.1-0.4,1.4l-1.6,0.9v5C50.1,101.9,49.6,102.3,49.1,102.3z"/>
						<path class="st3" d="M53.5,104.8c-0.6,0-1-0.4-1-1v-5.5c0-0.4,0.2-0.7,0.5-0.9l2.1-1.2c0.5-0.3,1.1-0.1,1.4,0.4
							c0.3,0.5,0.1,1.1-0.4,1.4l-1.6,0.9v5C54.5,104.4,54,104.8,53.5,104.8z"/>
						<path class="st3" d="M57.9,107.4c-0.6,0-1-0.4-1-1v-5.5c0-0.4,0.2-0.7,0.5-0.9l2.1-1.2c0.5-0.3,1.1-0.1,1.4,0.4
							c0.3,0.5,0.1,1.1-0.4,1.4l-1.6,0.9v5C58.9,106.9,58.5,107.4,57.9,107.4z"/>
					</g>
				</g>
				<rect x="4" y="4" class="st5" width="120" height="120"/>
			</g>
		</g>
	</g>
	<g>
		<rect class="st5" width="128" height="128"/>
	</g>
</g>
</svg>
