<?xml version="1.0" encoding="utf-8"?>
<!-- Generator: Adobe Illustrator 24.1.0, SVG Export Plug-In . SVG Version: 6.00 Build 0)  -->
<svg version="1.1" id="Layer_1" xmlns="http://www.w3.org/2000/svg" xmlns:xlink="http://www.w3.org/1999/xlink" x="0px" y="0px"
	 viewBox="0 0 128 128" style="enable-background:new 0 0 128 128;" xml:space="preserve">
<style type="text/css">
	.st0{fill:#E9EBDF;}
	.st1{fill:#4D9987;}
	.st2{fill:#FFFFFF;}
	.st3{fill:#C4D7D3;}
	.st4{fill:#0E352C;}
	.st5{fill:none;}
</style>
<g id="Layer_1_1_">
</g>
<g>
	<g id="Layer_2_1_">
		<g id="Objects_1_">
			<g>
				<g>
					<g>
						<g>
							<polygon class="st0" points="118.9,46.4 77.5,22.6 49.8,22.6 9.1,46 9.1,77.5 50.5,101.4 77.8,101.7 118.9,77.9 							"/>
							<path class="st1" d="M77.8,102.7L77.8,102.7l-27.3-0.3c-0.2,0-0.3,0-0.5-0.1l-41.4-24c-0.3-0.2-0.5-0.5-0.5-0.9V45.9
								c0-0.4,0.2-0.7,0.5-0.9l40.6-23.5c0.2-0.1,0.3-0.1,0.5-0.1l0,0h27.7c0.2,0,0.3,0,0.5,0.1l41.4,23.9c0.3,0.2,0.5,0.5,0.5,0.9
								v31.5c0,0.4-0.2,0.7-0.5,0.9l-41.1,23.8C78.1,102.7,78,102.7,77.8,102.7z M50.8,100.4l26.7,0.3l40.4-23.4V47L77.3,23.6H50.1
								l-39.9,23v30.3L50.8,100.4z"/>
						</g>
						<path class="st1" d="M50.5,99.2c-0.2,0-0.3,0-0.5-0.1L8.8,75.3c-0.5-0.3-0.6-0.9-0.4-1.4s0.9-0.6,1.4-0.4L51,97.3
							c0.5,0.3,0.6,0.9,0.4,1.4C51.2,99,50.9,99.2,50.5,99.2z"/>
						<g>
							<polygon class="st0" points="50.5,86 9.3,61.9 9.1,77.5 50.5,101.4 							"/>
							<path class="st1" d="M50.5,102.4c-0.2,0-0.3,0-0.5-0.1l-41.4-24c-0.3-0.2-0.5-0.5-0.5-0.9l0.2-15.6c0-0.4,0.2-0.7,0.5-0.9
								s0.7-0.2,1,0L51,85.2c0.3,0.2,0.5,0.5,0.5,0.9v15.3c0,0.4-0.2,0.7-0.5,0.9C50.9,102.3,50.7,102.4,50.5,102.4z M10.1,76.9
								l39.4,22.7v-13l-39.2-23L10.1,76.9z"/>
						</g>
						<path class="st1" d="M50.5,102.6c-0.6,0-1-0.4-1-1V87c0-0.6,0.4-1,1-1s1,0.4,1,1v14.6C51.5,102.1,51.1,102.6,50.5,102.6z"/>
						<path class="st1" d="M77.8,86v15.1l0,0c12.2-6.8,30-16.9,41.1-23.2l-0.3-23.8L77.8,86z"/>
						<g>
							<polygon class="st2" points="118.9,62.3 77.8,86 50.5,85.7 9.3,61.9 9.1,46 49.8,22.6 77.5,22.6 118.9,46.4 							"/>
							<path class="st1" d="M77.8,87L77.8,87l-27.3-0.3c-0.2,0-0.3,0-0.5-0.1L8.8,62.8c-0.3-0.2-0.5-0.5-0.5-0.9L8.1,46
								c0-0.4,0.2-0.7,0.5-0.9l40.6-23.5c0.2-0.1,0.3-0.1,0.5-0.1l0,0h27.7c0.2,0,0.3,0,0.5,0.1l41.4,23.9c0.3,0.2,0.5,0.5,0.5,0.9
								v15.9c0,0.4-0.2,0.7-0.5,0.9l-41,23.7C78.1,87,78,87,77.8,87z M50.8,84.7L77.5,85l40.3-23.3V47L77.3,23.6H50.1l-39.9,23
								l0.2,14.7L50.8,84.7z M118.9,62.3L118.9,62.3L118.9,62.3z"/>
						</g>
						<path class="st3" d="M74.8,80.2L74.8,80.2L53.4,80c-0.2,0-0.3,0-0.5-0.1L20.6,61.1c-0.3-0.2-0.5-0.5-0.5-0.9L20,47.7
							c0-0.4,0.2-0.7,0.5-0.9l31.9-18.4c0.2-0.1,0.3-0.1,0.5-0.1l0,0h21.8c0.2,0,0.3,0,0.5,0.1l32.5,18.7c0.3,0.2,0.5,0.5,0.5,0.9
							v12.5c0,0.4-0.2,0.7-0.5,0.9L75.3,80.1C75.2,80.2,75,80.2,74.8,80.2z M53.7,78l20.9,0.3L106.1,60V48.7L74.4,30.4H53.2L22,48.4
							v11.3L53.7,78z M107.1,60.6L107.1,60.6L107.1,60.6z"/>
						<path class="st4" d="M77.8,102.7L77.8,102.7l-27.3-0.3c-0.2,0-0.3,0-0.5-0.1l-41.4-24c-0.3-0.2-0.5-0.5-0.5-0.9V45.9
							c0-0.4,0.2-0.7,0.5-0.9l40.6-23.5c0.2-0.1,0.3-0.1,0.5-0.1l0,0h27.7c0.2,0,0.3,0,0.5,0.1l41.4,23.9c0.3,0.2,0.5,0.5,0.5,0.9
							v31.5c0,0.4-0.2,0.7-0.5,0.9l-41.1,23.8C78.1,102.7,78,102.7,77.8,102.7z M50.8,100.4l26.7,0.3l40.4-23.4V47L77.3,23.6H50.1
							l-39.9,23v30.3L50.8,100.4z"/>
						<path class="st3" d="M88.5,55l-23,13.3c-0.7,0.4-1.9,0.4-2.6,0L39.6,54.8c-0.7-0.4-0.7-1.1,0-1.5l23-13.3
							c0.7-0.4,1.9-0.4,2.6,0l23.3,13.5C89.2,53.9,89.2,54.6,88.5,55z"/>
						<g>
							<path class="st4" d="M118.9,87.7l-4.1-2.4c-0.3-0.2-0.5-0.5-0.5-0.9v-5.9l-1.6-0.9c-0.5-0.3-0.6-0.9-0.4-1.4
								c0.3-0.5,0.9-0.6,1.4-0.4l2.1,1.2c0.3,0.2,0.5,0.5,0.5,0.9v5.9l3.6,2.1L118.9,87.7z"/>
							<path class="st4" d="M122.5,85.6l-4.1-2.4c-0.3-0.2-0.5-0.5-0.5-0.9v-5.9l-1.6-0.9c-0.5-0.3-0.6-0.9-0.4-1.4
								c0.3-0.5,0.9-0.6,1.4-0.4l2.1,1.2c0.3,0.2,0.5,0.5,0.5,0.9v5.9l3.6,2.1L122.5,85.6z"/>
							<g>
								<path class="st4" d="M111.8,91.9l-4.1-2.4c-0.3-0.2-0.5-0.5-0.5-0.9v-5.9l-1.6-0.9c-0.5-0.3-0.6-0.9-0.4-1.4
									c0.3-0.5,0.9-0.6,1.4-0.4l2.1,1.2c0.3,0.2,0.5,0.5,0.5,0.9V88l3.6,2.1L111.8,91.9z"/>
								<path class="st4" d="M115.3,89.8l-4.1-2.4c-0.3-0.2-0.5-0.5-0.5-0.9v-5.9l-1.6-0.9c-0.5-0.3-0.6-0.9-0.4-1.4
									c0.3-0.5,0.9-0.6,1.4-0.4l2.1,1.2c0.3,0.2,0.5,0.5,0.5,0.9v6l3.6,2.1L115.3,89.8z"/>
							</g>
						</g>
						<g>
							<path class="st4" d="M104.6,96l-4.1-2.4c-0.3-0.2-0.5-0.5-0.5-0.9v-5.9l-1.6-0.9c-0.5-0.3-0.6-0.9-0.4-1.4
								c0.3-0.5,0.9-0.6,1.4-0.4l2.1,1.2c0.3,0.2,0.5,0.5,0.5,0.9v5.9l3.6,2.1L104.6,96z"/>
							<path class="st4" d="M108.2,93.9l-4.1-2.4c-0.3-0.2-0.5-0.5-0.5-0.9v-5.9l-1.6-0.9c-0.5-0.3-0.6-0.9-0.4-1.4
								c0.3-0.5,0.9-0.6,1.4-0.4l2.1,1.2c0.3,0.2,0.5,0.5,0.5,0.9V90l3.6,2.1L108.2,93.9z"/>
							<g>
								<path class="st4" d="M97.5,100.1l-4.1-2.4c-0.3-0.2-0.5-0.5-0.5-0.9V91l-1.6-0.9c-0.5-0.3-0.6-0.9-0.4-1.4
									c0.3-0.5,0.9-0.6,1.4-0.4l2.1,1.2c0.3,0.2,0.5,0.5,0.5,0.9v5.9l3.6,2.1L97.5,100.1z"/>
								<path class="st4" d="M101,98l-4.1-2.4c-0.3-0.2-0.5-0.5-0.5-0.9v-5.9L94.8,88c-0.5-0.3-0.6-0.9-0.4-1.4
									c0.3-0.5,0.9-0.6,1.4-0.4l2.1,1.2c0.3,0.2,0.5,0.5,0.5,0.9v5.9l3.6,2.1L101,98z"/>
								<path class="st4" d="M93.9,102.2l-4.1-2.4c-0.3-0.2-0.5-0.5-0.5-0.9V93l-1.6-0.9c-0.5-0.3-0.6-0.9-0.4-1.4
									c0.3-0.5,0.9-0.6,1.4-0.4l2.1,1.2c0.3,0.2,0.5,0.5,0.5,0.9v5.9l3.6,2.1L93.9,102.2z"/>
							</g>
						</g>
						<g>
							<path class="st4" d="M90.3,104.3l-4.1-2.4c-0.3-0.2-0.5-0.5-0.5-0.9v-5.9L84,94.2c-0.5-0.3-0.6-0.9-0.4-1.4
								c0.3-0.5,0.9-0.6,1.4-0.4l2.1,1.2c0.3,0.2,0.5,0.5,0.5,0.9v5.9l3.6,2.1L90.3,104.3z"/>
							<path class="st4" d="M93.9,102.2l-4.1-2.4c-0.3-0.2-0.5-0.5-0.5-0.9V93l-1.6-0.9c-0.5-0.3-0.6-0.9-0.4-1.4
								c0.3-0.5,0.9-0.6,1.4-0.4l2.1,1.2c0.3,0.2,0.5,0.5,0.5,0.9v5.9l3.6,2.1L93.9,102.2z"/>
							<g>
								<path class="st4" d="M86.7,106.3l-4.1-2.4c-0.3-0.2-0.5-0.5-0.5-0.9v-5.9l-1.6-0.9c-0.5-0.3-0.6-0.9-0.4-1.4
									c0.3-0.5,0.9-0.6,1.4-0.4l2.1,1.2c0.3,0.2,0.5,0.5,0.5,0.9v5.9l3.6,2.1L86.7,106.3z"/>
							</g>
						</g>
						<g>
							<path class="st4" d="M9.1,87.7l-1-1.7l3.6-2.1V78c0-0.4,0.2-0.7,0.5-0.9l2.1-1.2c0.5-0.3,1.1-0.1,1.4,0.4s0.1,1.1-0.4,1.4
								l-1.6,0.9v5.9c0,0.4-0.2,0.7-0.5,0.9L9.1,87.7z"/>
							<path class="st4" d="M5.5,85.6l-1-1.7l3.6-2.1v-5.9c0-0.4,0.2-0.7,0.5-0.9l2.1-1.2c0.5-0.3,1.1-0.1,1.4,0.4
								c0.3,0.5,0.1,1.1-0.4,1.4l-1.6,0.9v5.9c0,0.4-0.2,0.7-0.5,0.9L5.5,85.6z"/>
							<g>
								<path class="st4" d="M16.2,91.9l-1-1.7l3.6-2.1v-5.9c0-0.4,0.2-0.7,0.5-0.9l2.1-1.2c0.5-0.3,1.1-0.1,1.4,0.4
									s0.1,1.1-0.4,1.4l-1.6,0.9v5.9c0,0.4-0.2,0.7-0.5,0.9L16.2,91.9z"/>
								<path class="st4" d="M12.7,89.8l-1-1.7l3.6-2.1v-5.9c0-0.4,0.2-0.7,0.5-0.9l2.1-1.2c0.5-0.3,1.1-0.1,1.4,0.4
									s0.1,1.1-0.4,1.4l-1.6,0.9v5.9c0,0.4-0.2,0.7-0.5,0.9L12.7,89.8z"/>
							</g>
						</g>
						<g>
							<path class="st4" d="M23.4,96l-1-1.7l3.6-2.1v-5.9c0-0.4,0.2-0.7,0.5-0.9l2.1-1.2c0.5-0.3,1.1-0.1,1.4,0.4s0.1,1.1-0.4,1.4
								L28,86.9v5.9c0,0.4-0.2,0.7-0.5,0.9L23.4,96z"/>
							<path class="st4" d="M19.8,93.9l-1-1.7l3.6-2.1v-5.9c0-0.4,0.2-0.7,0.5-0.9l2.1-1.2c0.5-0.3,1.1-0.1,1.4,0.4s0.1,1.1-0.4,1.4
								l-1.6,0.9v5.9c0,0.4-0.2,0.7-0.5,0.9L19.8,93.9z"/>
							<g>
								<path class="st4" d="M30.5,100.1l-1-1.7l3.6-2.1v-5.9c0-0.4,0.2-0.7,0.5-0.9l2.1-1.2c0.5-0.3,1.1-0.1,1.4,0.4
									c0.3,0.5,0.1,1.1-0.4,1.4L35.2,91v5.9c0,0.4-0.2,0.7-0.5,0.9L30.5,100.1z"/>
								<path class="st4" d="M27,98l-1-1.7l3.6-2.1v-5.9c0-0.4,0.2-0.7,0.5-0.9l2.1-1.2c0.5-0.3,1.1-0.1,1.4,0.4
									c0.3,0.5,0.1,1.1-0.4,1.4l-1.6,0.9v5.9c0,0.4-0.2,0.7-0.5,0.9L27,98z"/>
								<path class="st4" d="M34.1,102.2l-1-1.7l3.6-2.1v-5.9c0-0.4,0.2-0.7,0.5-0.9l2.1-1.2c0.5-0.3,1.1-0.1,1.4,0.4
									c0.3,0.5,0.1,1.1-0.4,1.4l-1.6,0.9V99c0,0.4-0.2,0.7-0.5,0.9L34.1,102.2z"/>
							</g>
						</g>
						<g>
							<path class="st4" d="M37.7,104.3l-1-1.7l3.6-2.1v-5.9c0-0.4,0.2-0.7,0.5-0.9l2.1-1.2c0.5-0.3,1.1-0.1,1.4,0.4
								c0.3,0.5,0.1,1.1-0.4,1.4l-1.6,0.9v5.9c0,0.4-0.2,0.7-0.5,0.9L37.7,104.3z"/>
							<path class="st4" d="M34.1,102.2l-1-1.7l3.6-2.1v-5.9c0-0.4,0.2-0.7,0.5-0.9l2.1-1.2c0.5-0.3,1.1-0.1,1.4,0.4
								c0.3,0.5,0.1,1.1-0.4,1.4l-1.6,0.9V99c0,0.4-0.2,0.7-0.5,0.9L34.1,102.2z"/>
							<g>
								<path class="st4" d="M41.3,106.3l-1-1.7l3.6-2.1v-5.9c0-0.4,0.2-0.7,0.5-0.9l2.1-1.2c0.5-0.3,1.1-0.1,1.4,0.4
									c0.3,0.5,0.1,1.1-0.4,1.4l-1.6,0.9v5.9c0,0.4-0.2,0.7-0.5,0.9L41.3,106.3z"/>
							</g>
						</g>
					</g>
				</g>
				<rect x="4" y="4" class="st5" width="120" height="120"/>
			</g>
		</g>
	</g>
	<g>
		<rect class="st5" width="128" height="128"/>
	</g>
</g>
</svg>
