<?xml version="1.0" encoding="utf-8"?>
<!-- Generator: Adobe Illustrator 24.1.0, SVG Export Plug-In . SVG Version: 6.00 Build 0)  -->
<svg version="1.1" id="Layer_1" xmlns="http://www.w3.org/2000/svg" xmlns:xlink="http://www.w3.org/1999/xlink" x="0px" y="0px"
	 viewBox="0 0 128 128" style="enable-background:new 0 0 128 128;" xml:space="preserve">
<style type="text/css">
	.st0{fill:none;}
	.st1{fill:#FFFFFF;}
	.st2{fill:#E9EBDF;}
	.st3{fill:#4D9987;}
	.st4{fill:#0E352C;}
	.st5{fill:#27ae60;}
	.st6{fill:#C4D7D3;}
	.st7{fill:#185849;}
</style>
<g id="Layer_1_1_">
</g>
<g>
	<g id="Layer_2_1_">
		<g id="Objects_1_">
			<g>
				<rect x="4" y="4" class="st0" width="120" height="120"/>
				<g>
					<g>
						<path class="st1" d="M75.4,22.2L75.4,22.2c-0.7-0.4-1.6-0.4-2.6,0.2L8.9,59.9C6.8,61.2,5,64.6,5,67.5l0.1,9
							c0,1.6,0.6,2.7,1.4,3.2l0,0l46.2,26.2l68.9-57.5L75.4,22.2z"/>
						<path class="st2" d="M41.4,68.9c-0.3,0-0.7-0.2-0.9-0.5c-0.3-0.5-0.1-1.1,0.4-1.4l6.5-3.7c0.5-0.3,1.1-0.1,1.4,0.4
							c0.3,0.5,0.1,1.1-0.4,1.4l-6.5,3.7C41.8,68.9,41.6,68.9,41.4,68.9z"/>
						<path class="st2" d="M63.9,81.9c-0.2,0-0.3,0-0.5-0.1l-22.5-13c-0.5-0.3-0.6-0.9-0.4-1.4c0.3-0.5,0.9-0.6,1.4-0.4l22.5,13
							c0.5,0.3,0.6,0.9,0.4,1.4C64.6,81.7,64.2,81.9,63.9,81.9z"/>
						<path class="st2" d="M6.2,62.6C5.5,64,5,65.6,5,67.1v9c0,1.6,0.5,2.7,1.4,3.2l0,0l46,26.5L64,96L6.2,62.6z"/>
						<path class="st1" d="M52.3,106.8c-0.2,0-0.3,0-0.5-0.1l-46-26.5C4.7,79.4,4,78,4,76.1v-9c0-3.3,2-7,4.5-8.4l64.1-37
							c1.2-0.7,2.5-0.8,3.5-0.2c0,0,0,0,0.1,0l46,26.5c0.3,0.2,0.5,0.5,0.5,0.8s-0.1,0.6-0.4,0.9l-69.3,57
							C52.8,106.7,52.6,106.8,52.3,106.8z M74.6,23c-0.4,0-0.8,0.2-1.1,0.3l-64.1,37C7.6,61.4,6,64.5,6,67.1v9c0,1.2,0.3,2,0.9,2.3
							l45.4,26.2L119.9,49L75.2,23.2c0,0,0,0-0.1,0C75,23.1,74.8,23,74.6,23z"/>
						<path class="st3" d="M119,68.6l-64.1,37c-2.2,1.3-4-0.1-4-3v-9c0-2.9,1.8-6.3,4-7.6L119,49c2.2-1.3,4,0.1,4,3v9
							C123,63.9,121.2,67.3,119,68.6z"/>
						<path class="st4" d="M101.7,79.6c-0.2,0-0.3,0-0.5-0.1c-0.3-0.2-0.5-0.5-0.5-0.9v-3.4c0-3.3,2-7.1,4.5-8.6l17.3-10
							c0.3-0.2,0.7-0.2,1,0s0.5,0.5,0.5,0.9V61c0,3.3-2,7-4.5,8.4l-17.4,10C102,79.6,101.8,79.6,101.7,79.6z M122,59.3l-15.8,9.1
							l0,0c-1.9,1.1-3.5,4.2-3.5,6.8v1.6l15.9-9.2c1.9-1.1,3.5-4.2,3.5-6.7L122,59.3L122,59.3z M105.7,67.6L105.7,67.6L105.7,67.6z"
							/>
						<path class="st4" d="M53.4,107.1c-0.5,0-1-0.1-1.4-0.3c0,0-0.1,0-0.1-0.1l-46-26.5C4.7,79.4,4,78,4,76.1v-9c0-0.2,0-0.4,0-0.6
							v-0.1c0-0.2,0-0.3,0.1-0.5v-0.1c0-0.2,0.1-0.4,0.1-0.5v-0.1c0-0.2,0.1-0.3,0.1-0.5c0.7-2.6,2.3-4.9,4.1-5.9l64.1-37
							c1.2-0.7,2.5-0.8,3.5-0.2c0,0,0,0,0.1,0l46,26.5c0,0,0.1,0,0.1,0.1c1.1,0.7,1.8,2.2,1.8,4v9c0,3.3-2,7-4.5,8.4l-64.1,37
							C54.7,106.9,54,107.1,53.4,107.1z M52.8,104.9L52.8,104.9c0.6,0.3,1.2,0.1,1.7-0.2l64.1-37c1.9-1.1,3.5-4.2,3.5-6.7v-9
							c0-1.1-0.3-2-0.9-2.3c0,0-0.1,0-0.1-0.1L75.2,23.2c0,0,0,0-0.1,0c-0.5-0.3-1.1,0-1.6,0.2l-64.1,37C8.1,61.1,6.9,63,6.3,65
							c0,0.2-0.1,0.3-0.1,0.5S6.1,65.8,6.1,66s0,0.4-0.1,0.5v0.1c0,0.2,0,0.3,0,0.5v9c0,1.2,0.3,2,0.9,2.3L52.8,104.9z"/>
						<path class="st4" d="M64.9,94.2V80.3l-2,1.2v12.8c0,0.6,0.4,1,1,1l0,0C64.4,95.2,64.9,94.8,64.9,94.2z"/>
					</g>
					<g>
						
							<ellipse transform="matrix(0.9201 -0.3916 0.3916 0.9201 -29.7761 15.015)" class="st1" cx="21.9" cy="80.5" rx="1.1" ry="1.9"/>
						
							<ellipse transform="matrix(0.9201 -0.3916 0.3916 0.9201 -28.9514 12.6336)" class="st1" cx="16.5" cy="77.3" rx="1.1" ry="1.9"/>
						
							<ellipse transform="matrix(0.9201 -0.3916 0.3916 0.9201 -28.1823 10.2421)" class="st1" cx="11" cy="74.2" rx="1.1" ry="1.9"/>
					</g>
					<g>
						<path class="st2" d="M63.9,69c-6,0-11.9-1.3-16.5-3.9s-7.1-6.2-7.1-10.1s2.5-7.4,7.1-10.1c9.1-5.2,23.9-5.2,32.9,0
							c4.6,2.6,7.1,6.2,7.1,10.1s-2.5,7.4-7.1,10.1C75.8,67.7,69.8,69,63.9,69z M63.9,42.9c-5.6,0-11.2,1.2-15.5,3.7
							c-3.9,2.3-6.1,5.2-6.1,8.4s2.2,6.1,6.1,8.4l0,0c8.5,4.9,22.4,4.9,30.9,0c3.9-2.3,6.1-5.2,6.1-8.4s-2.2-6.1-6.1-8.4
							C75.1,44.1,69.5,42.9,63.9,42.9z"/>
						<polygon class="st5" points="73.9,44.5 68.6,41.4 68.6,45.8 						"/>
						<polygon class="st5" points="93.9,53 93.9,44.8 80.8,45.9 80.8,54.9 						"/>
						<polygon class="st1" points="85.5,40 93.9,44.8 80.8,45.9 85.8,48.8 55.7,48.8 73.9,44.5 68.6,41.4 						"/>
						<rect x="55.7" y="48.8" class="st6" width="30.1" height="8.2"/>
						<path class="st7" d="M85.8,58.1H55.7c-0.6,0-1-0.4-1-1v-8.2c0-0.5,0.3-0.9,0.8-1L67.6,45v-3.6c0-0.5,0.4-1,0.9-1L85.4,39
							c0.2,0,0.4,0,0.6,0.1l8.3,4.8c0.3,0.2,0.5,0.5,0.5,0.9V53c0,0.5-0.4,0.9-0.9,1l-7.2,1.1v2C86.8,57.6,86.4,58.1,85.8,58.1z
							 M56.7,56.1h28.1v-1.9c0-0.5,0.4-0.9,0.9-1l7.2-1.1v-6.8L85.3,41l-15.7,1.3v3.4c0,0.5-0.3,0.9-0.8,1l-12.1,2.9
							C56.7,49.6,56.7,56.1,56.7,56.1z"/>
					</g>
				</g>
			</g>
		</g>
	</g>
	<g>
		<rect class="st0" width="128" height="128"/>
	</g>
</g>
</svg>
