<?xml version="1.0" encoding="utf-8"?>
<!-- Generator: Adobe Illustrator 24.1.0, SVG Export Plug-In . SVG Version: 6.00 Build 0)  -->
<svg version="1.1" id="Layer_1" xmlns="http://www.w3.org/2000/svg" xmlns:xlink="http://www.w3.org/1999/xlink" x="0px" y="0px"
	 viewBox="0 0 128 128" style="enable-background:new 0 0 128 128;" xml:space="preserve">
<style type="text/css">
	.st0{fill:#0E352C;}
	.st1{fill:#185849;}
	.st2{fill:#E9EBDF;}
	.st3{fill:#4D9987;}
	.st4{fill:#C4D7D3;}
	.st5{fill:#27ae60;}
	.st6{fill:#FFFFFF;}
	.st7{fill:none;}
</style>
<g id="Layer_1_1_">
</g>
<g>
	<g id="Layer_2_1_">
		<g id="Industries_1_">
			<g>
				<g>
					<g>
						<g>
							<path class="st0" d="M24.6,65.2c-0.3,0-0.5-0.1-0.7-0.3c-0.2-0.2-0.3-0.4-0.3-0.7c0-0.3,0.1-0.5,0.3-0.7c0.4-0.4,1-0.4,1.4,0
								c0.2,0.2,0.3,0.4,0.3,0.7c0,0.3-0.1,0.5-0.3,0.7C25.1,65.1,24.8,65.2,24.6,65.2z"/>
							<path class="st0" d="M42.9,103.3c-0.2-0.5-0.1-1.1,0.4-1.3l0,0c0.5-0.2,1.1,0,1.3,0.4l0,0c0.2,0.5,0,1.1-0.5,1.3l0,0
								c-0.1,0.1-0.3,0.1-0.4,0.1l0,0C43.4,103.9,43.1,103.7,42.9,103.3z M40.1,97.8c-0.2-0.5,0-1.1,0.4-1.3l0,0
								c0.5-0.2,1.1,0,1.3,0.5l0,0c0.2,0.5,0,1.1-0.5,1.3l0,0c-0.1,0.1-0.3,0.1-0.4,0.1l0,0C40.7,98.4,40.3,98.1,40.1,97.8z
								 M37.4,92.3c-0.2-0.5,0-1.1,0.5-1.3l0,0c0.5-0.2,1.1,0,1.3,0.4l0,0c0.2,0.5,0,1.1-0.4,1.3l0,0c-0.2,0.1-0.3,0.1-0.5,0.1l0,0
								C37.9,92.8,37.6,92.6,37.4,92.3z M34.7,86.7c-0.2-0.5,0-1.1,0.5-1.3l0,0c0.5-0.2,1.1,0,1.3,0.5l0,0c0.2,0.5,0,1.1-0.4,1.3
								l0,0c-0.1,0.1-0.3,0.1-0.4,0.1l0,0C35.2,87.3,34.8,87.1,34.7,86.7z M31.9,81.2c-0.2-0.5,0-1.1,0.5-1.3l0,0
								c0.5-0.2,1.1,0,1.3,0.4l0,0c0.2,0.5,0,1.1-0.5,1.3l0,0c-0.1,0.1-0.3,0.1-0.4,0.1l0,0C32.4,81.8,32.1,81.6,31.9,81.2z
								 M29.2,75.7c-0.2-0.5,0-1.1,0.4-1.3l0,0c0.5-0.2,1.1,0,1.3,0.5l0,0c0.2,0.5,0,1.1-0.5,1.3l0,0c-0.1,0.1-0.3,0.1-0.4,0.1l0,0
								C29.7,76.2,29.3,76,29.2,75.7z M26.4,70.1c-0.2-0.5,0-1.1,0.5-1.3l0,0c0.5-0.2,1.1,0,1.3,0.5l0,0c0.2,0.5,0,1.1-0.4,1.3l0,0
								c-0.2,0.1-0.3,0.1-0.5,0.1l0,0C26.9,70.7,26.6,70.5,26.4,70.1z"/>
							<path class="st0" d="M46.5,109.4c-0.3,0-0.5-0.1-0.7-0.3c-0.2-0.2-0.3-0.4-0.3-0.7c0-0.1,0-0.3,0.1-0.4s0.1-0.2,0.2-0.3
								c0.4-0.4,1-0.4,1.4,0c0.1,0.1,0.2,0.2,0.2,0.3c0,0.1,0.1,0.3,0.1,0.4c0,0.3-0.1,0.5-0.3,0.7
								C47.1,109.3,46.8,109.4,46.5,109.4z"/>
						</g>
						<g>
							<path class="st1" d="M53.5,23.4c-0.3,0-0.5-0.1-0.7-0.3c-0.1-0.1-0.2-0.2-0.2-0.3c-0.1-0.1-0.1-0.3-0.1-0.4s0-0.3,0.1-0.4
								c0-0.1,0.1-0.2,0.2-0.3c0.4-0.4,1-0.4,1.4,0c0.1,0.1,0.2,0.2,0.2,0.3c0.1,0.1,0.1,0.2,0.1,0.4c0,0.1,0,0.3-0.1,0.4
								c0,0.1-0.1,0.2-0.2,0.3C54.1,23.3,53.8,23.4,53.5,23.4z"/>
							<path class="st1" d="M58.3,22.4c0-0.6,0.4-1,1-1l0,0c0.5,0,1,0.4,1,1l0,0c0,0.6-0.4,1-1,1l0,0l0,0l0,0
								C58.7,23.4,58.3,23,58.3,22.4z M64,22.4c0-0.6,0.4-1,1-1l0,0c0.5,0,1,0.4,1,1l0,0c0,0.6-0.5,1-1,1l0,0l0,0l0,0
								C64.5,23.4,64,22.9,64,22.4z M69.8,22.4c0-0.5,0.4-1,1-1l0,0c0.6,0,1,0.4,1,1l0,0c0,0.5-0.5,1-1,1l0,0l0,0l0,0
								C70.2,23.4,69.8,22.9,69.8,22.4z M75.5,22.3c0-0.6,0.4-1,1-1l0,0c0.5,0,1,0.4,1,1l0,0c0,0.6-0.4,1-1,1l0,0l0,0l0,0
								C76,23.3,75.5,22.9,75.5,22.3z M81.3,22.3c0-0.6,0.4-1,1-1l0,0c0.6,0,1,0.4,1,1l0,0c0,0.6-0.4,1-1,1l0,0l0,0l0,0
								C81.7,23.3,81.3,22.9,81.3,22.3z M87,22.3c0-0.5,0.4-1,1-1l0,0c0.5,0,1,0.4,1,1l0,0c0,0.5-0.4,1-1,1l0,0l0,0l0,0
								C87.4,23.3,87,22.8,87,22.3z M92.8,22.3c0-0.5,0.4-1,1-1l0,0c0.5,0,1,0.4,1,1l0,0c0,0.6-0.4,1-1,1l0,0l0,0l0,0
								C93.2,23.3,92.8,22.8,92.8,22.3z M98.5,22.2c0-0.6,0.5-1,1-1l0,0c0.6,0,1,0.4,1,1l0,0c0,0.5-0.4,1-1,1l0,0l0,0l0,0
								C98.9,23.2,98.5,22.8,98.5,22.2z M104.2,22.2c0-0.6,0.4-1,1-1l0,0c0.5,0,1,0.4,1,1l0,0c0,0.6-0.4,1-1,1l0,0l0,0l0,0
								C104.7,23.2,104.2,22.8,104.2,22.2z"/>
							<path class="st1" d="M111,23.2c-0.3,0-0.5-0.1-0.7-0.3c-0.2-0.2-0.3-0.4-0.3-0.7c0-0.1,0-0.3,0.1-0.4c0-0.1,0.1-0.2,0.2-0.3
								c0.3-0.3,0.7-0.4,1.1-0.2c0.1,0,0.2,0.1,0.3,0.2c0.1,0.1,0.2,0.2,0.2,0.3c0,0.1,0.1,0.2,0.1,0.4c0,0.3-0.1,0.5-0.3,0.7
								c-0.1,0.1-0.2,0.2-0.3,0.2C111.2,23.2,111.1,23.2,111,23.2z"/>
						</g>
						<g>
							<path class="st2" d="M101.1,106.6l-15.9,9.2c-1.8,1-4.8,0.9-6.2-0.3l-9-7.6l17.4-10.1l13.1,5.2
								C102.6,103.9,102.9,105.6,101.1,106.6z"/>
							<path class="st3" d="M82.4,117.5c-1.5,0-3-0.4-4-1.3l-9-7.6c-0.2-0.2-0.4-0.5-0.4-0.9c0-0.3,0.2-0.6,0.5-0.8L86.9,97
								c0.3-0.2,0.6-0.2,0.9-0.1l13.1,5.2c1.4,0.6,2.3,1.6,2.4,2.7s-0.5,2-1.7,2.7l-15.9,9.2C84.8,117.2,83.6,117.5,82.4,117.5z
								 M71.7,108.1l7.9,6.6c1.1,0.9,3.6,1.1,5.1,0.2l15.9-9.2l0,0c0.4-0.3,0.7-0.6,0.7-0.8c0-0.3-0.4-0.7-1.1-1l-12.6-5L71.7,108.1
								z"/>
						</g>
						<path class="st3" d="M87.4,97.8L70,107.9l5.2,4.4c0.7-0.1,1.4-0.4,2-0.7L95.5,101L87.4,97.8z"/>
						<path class="st0" d="M82.4,117.5c-1.5,0-3-0.4-4-1.3l-9-7.6c-0.2-0.2-0.4-0.5-0.4-0.9c0-0.3,0.2-0.6,0.5-0.8L86.9,97
							c0.3-0.2,0.6-0.2,0.9-0.1l13.1,5.2c1.4,0.6,2.3,1.6,2.4,2.7s-0.5,2-1.7,2.7l-15.9,9.2C84.8,117.2,83.6,117.5,82.4,117.5z
							 M71.7,108.1l7.9,6.6c1.1,0.9,3.6,1.1,5.1,0.2l15.9-9.2l0,0c0.4-0.3,0.7-0.6,0.7-0.8c0-0.3-0.4-0.7-1.1-1l-12.6-5L71.7,108.1z
							"/>
						<g>
							<path class="st4" d="M32,12.6L32,12.6c-0.1,0-0.2,0-0.3,0L5.5,27.8C5.2,28,5,28.4,5,28.8v20.5c0,0.2,0.1,0.3,0.2,0.4l0,0
								l17.2,9.9l26.9-37.1L32,12.6z"/>
							<path class="st5" d="M22.4,60.6c-0.2,0-0.3,0-0.5-0.1L4.7,50.6c-0.1,0-0.2-0.1-0.2-0.2C4.2,50.1,4,49.7,4,49.3V28.8
								c0-0.7,0.4-1.5,1-1.8l26.2-15.1c0.3-0.2,0.7-0.2,1.1-0.1c0.1,0,0.2,0.1,0.3,0.1l17.2,9.9c0.2,0.1,0.4,0.4,0.5,0.7
								s0,0.6-0.2,0.8L23.2,60.2C23,60.5,22.7,60.6,22.4,60.6z M6,49l16.1,9.3l25.7-35.4l-15.9-9.2L6,28.7v0.1V49z"/>
						</g>
						<path class="st6" d="M32,12.6c-0.1,0-0.2,0-0.3,0L5.5,27.8l0,0l28.2,16.3l15.6-21.5L32,12.6L32,12.6z"/>
						<path class="st5" d="M22.4,60.6c-0.2,0-0.3,0-0.5-0.1L4.7,50.6c-0.1,0-0.2-0.1-0.2-0.2C4.2,50.1,4,49.7,4,49.3V28.8
							c0-0.7,0.4-1.5,1-1.8l26.2-15.1c0.3-0.2,0.7-0.2,1.1-0.1c0.1,0,0.2,0.1,0.3,0.1l17.2,9.9c0.2,0.1,0.4,0.4,0.5,0.7
							s0,0.6-0.2,0.8L23.2,60.2C23,60.5,22.7,60.6,22.4,60.6z M6,49l16.1,9.3l25.7-35.4l-15.9-9.2L6,28.7v0.1V49z"/>
						<g>
							<path class="st2" d="M122.6,25l-4.6-2.7l0,0c-0.2-0.1-0.5-0.1-0.8,0.1l-66,38.1c-0.7,0.4-1.3,1.5-1.3,2.5v51.7
								c0,0.5,0.2,0.9,0.4,1l0,0l4.6,2.7l6.7-10L116,76.9c0.7-0.4,1.3-1.5,1.3-2.5V31.1L122.6,25z"/>
							<path class="st3" d="M54.9,119.3c-0.2,0-0.3,0-0.5-0.1l-4.6-2.7c-0.1,0-0.1-0.1-0.2-0.1c-0.5-0.4-0.8-1-0.8-1.8V62.9
								c0-1.3,0.8-2.7,1.8-3.3l66-38.1c0.5-0.3,1.1-0.4,1.7-0.2c0.1,0,0.1,0,0.2,0.1l4.6,2.7c0.3,0.1,0.4,0.4,0.5,0.7
								c0.1,0.3,0,0.6-0.2,0.8l-5,5.9v43c0,1.3-0.8,2.7-1.8,3.3l-54.3,31.3l-6.5,9.8C55.5,119.2,55.2,119.3,54.9,119.3z M50.9,114.9
								l3.7,2.1l6.1-9.2c0.1-0.1,0.2-0.2,0.3-0.3L115.5,76c0.4-0.2,0.8-0.9,0.8-1.6V31.1c0-0.2,0.1-0.5,0.2-0.6l4.5-5.2l-3.4-2
								l-66,38.1c-0.4,0.2-0.8,1-0.8,1.6v51.7C50.8,114.7,50.8,114.8,50.9,114.9L50.9,114.9z"/>
						</g>
						<path class="st6" d="M95.7,88.2l21.6-37.5V31.1l5.2-6.2l-4.6-2.7l0,0c-0.2-0.1-0.5-0.1-0.8,0.1l-66,38.1
							c-0.4,0.3-0.8,0.8-1.1,1.4L95.7,88.2z"/>
						<path class="st3" d="M54.9,119.3c-0.2,0-0.3,0-0.5-0.1l-4.6-2.7c-0.1,0-0.1-0.1-0.2-0.1c-0.5-0.4-0.8-1-0.8-1.8V62.9
							c0-1.3,0.8-2.7,1.8-3.3l66-38.1c0.5-0.3,1.1-0.4,1.7-0.2c0.1,0,0.1,0,0.2,0.1l4.6,2.7c0.3,0.1,0.4,0.4,0.5,0.7
							c0.1,0.3,0,0.6-0.2,0.8l-5,5.9v43c0,1.3-0.8,2.7-1.8,3.3l-54.3,31.3l-6.5,9.8C55.5,119.2,55.2,119.3,54.9,119.3z M50.9,114.9
							l3.7,2.1l6.1-9.2c0.1-0.1,0.2-0.2,0.3-0.3L115.5,76c0.4-0.2,0.8-0.9,0.8-1.6V31.1c0-0.2,0.1-0.5,0.2-0.6l4.5-5.2l-3.4-2
							l-66,38.1c-0.4,0.2-0.8,1-0.8,1.6v51.7C50.8,114.7,50.8,114.8,50.9,114.9L50.9,114.9z"/>
						<g>
							<path class="st2" d="M121.7,80.2l-66,38.1c-0.7,0.4-1.3,0-1.3-1V65.6c0-0.9,0.6-2,1.3-2.5l66-38.1c0.7-0.4,1.3,0,1.3,1v51.7
								C123,78.7,122.4,79.8,121.7,80.2z"/>
							<path class="st3" d="M55.2,119.4c-0.3,0-0.6-0.1-0.8-0.2c-0.6-0.3-0.9-1-0.9-1.9V65.6c0-1.3,0.8-2.7,1.8-3.3l66-38.1
								c0.6-0.4,1.3-0.4,1.8-0.1c0.6,0.3,0.9,1,0.9,1.9v51.7c0,1.3-0.8,2.7-1.8,3.3l0,0l-66,38.1C55.9,119.3,55.5,119.4,55.2,119.4z
								 M122,26L56.2,64c-0.4,0.2-0.8,0.9-0.8,1.6v51.7l65.8-38l0,0c0.4-0.2,0.8-1,0.8-1.6C122,77.7,122,26,122,26z M121.7,80.2
								L121.7,80.2L121.7,80.2z"/>
						</g>
						<path class="st6" d="M56.5,116.5c-0.2,0-0.3,0-0.5-0.1c-0.3-0.2-0.5-0.5-0.5-0.9V65.6c0-0.5,0.3-1.2,0.7-1.5l0.1-0.1
							l64.2-37.1c0.3-0.2,0.7-0.2,1,0s0.5,0.5,0.5,0.9v49.9c0,0.5-0.3,1.2-0.7,1.5l-0.1,0.1L57,116.4
							C56.8,116.5,56.6,116.5,56.5,116.5z M57.5,65.6v48.2L120,77.7l0,0V29.6L57.5,65.6L57.5,65.6z M119.9,77.8L119.9,77.8
							L119.9,77.8z"/>
						<path class="st6" d="M55.7,63.1c-0.7,0.4-1.3,1.5-1.3,2.5v51.7c0,0.9,0.6,1.4,1.3,1l9.1-5.3l47.8-82.7L55.7,63.1z"/>
						<path class="st3" d="M55.2,119.4c-0.3,0-0.6-0.1-0.8-0.2c-0.6-0.3-0.9-1-0.9-1.9V65.6c0-1.3,0.8-2.7,1.8-3.3l66-38.1
							c0.6-0.4,1.3-0.4,1.8-0.1c0.6,0.3,0.9,1,0.9,1.9v51.7c0,1.3-0.8,2.7-1.8,3.3l0,0l-66,38.1C55.9,119.3,55.5,119.4,55.2,119.4z
							 M122,26L56.2,64c-0.4,0.2-0.8,0.9-0.8,1.6v51.7l65.8-38l0,0c0.4-0.2,0.8-1,0.8-1.6C122,77.7,122,26,122,26z M121.7,80.2
							L121.7,80.2L121.7,80.2z"/>
						<path class="st0" d="M55.2,119.4c-0.2,0-0.4,0-0.5-0.1c-0.1,0-0.1-0.1-0.2-0.1c0,0-0.1,0-0.1-0.1l-4.6-2.7
							c-0.1,0-0.1-0.1-0.2-0.1c-0.5-0.4-0.8-1-0.8-1.8V62.9c0-0.5,0.1-1,0.3-1.4c0.1-0.2,0.1-0.3,0.2-0.5l0.1-0.1
							c0.1-0.1,0.1-0.2,0.2-0.3l0.1-0.2c0.1-0.1,0.2-0.2,0.3-0.3s0.1-0.1,0.1-0.1c0.2-0.1,0.3-0.2,0.5-0.3l66-38.1
							c0.5-0.3,1.1-0.4,1.7-0.2c0.1,0,0.1,0,0.2,0.1l4.6,2.7c0.1,0,0.1,0.1,0.2,0.1c0.5,0.4,0.8,1,0.8,1.8v51.7
							c0,0.8-0.3,1.6-0.7,2.3c-0.3,0.4-0.7,0.8-1,1l-66,38.1C55.9,119.3,55.6,119.4,55.2,119.4L55.2,119.4z M50.9,114.9l4.4,2.5
							l9.1-5.3l56.9-32.8c0.1-0.1,0.3-0.2,0.4-0.4c0.2-0.4,0.4-0.8,0.4-1.2V26c0-0.1,0-0.2,0-0.2l0,0l-4.4-2.5l-66,38.1
							c0,0-0.1,0-0.1,0.1c-0.1,0.1-0.1,0.1-0.2,0.2c-0.1,0.1-0.1,0.2-0.2,0.2C51.1,62,51,62.1,51,62.2c-0.1,0.3-0.2,0.5-0.2,0.7
							v51.7C50.8,114.7,50.8,114.8,50.9,114.9L50.9,114.9z M122.1,25.8L122.1,25.8L122.1,25.8z"/>
						<g>
							<path class="st5" d="M48.9,44.5L22.7,59.6c-0.3,0.2-0.5,0-0.5-0.4V38.7c0-0.4,0.2-0.8,0.5-1l26.2-15.1c0.3-0.2,0.5,0,0.5,0.4
								v20.5C49.4,43.9,49.2,44.3,48.9,44.5z"/>
							<path class="st4" d="M22.5,60.7c-0.2,0-0.4-0.1-0.6-0.2c-0.4-0.2-0.7-0.7-0.7-1.3V38.7c0-0.7,0.4-1.5,1-1.8l26.2-15.1
								c0.4-0.2,0.9-0.3,1.3,0c0.4,0.2,0.7,0.7,0.7,1.3v20.5c0,0.7-0.4,1.5-1,1.8L23.2,60.5C23,60.6,22.7,60.7,22.5,60.7z
								 M23.2,38.6L23.2,38.6v19.6l25.2-14.5l0.1-0.1V24L23.2,38.6L23.2,38.6z"/>
						</g>
						<path class="st4" d="M35.8,47.3c-0.6,0-1-0.4-1-1V31.1l-13-7.5c-0.3-0.2-0.5-0.5-0.6-0.8c0-0.6,0.4-1,0.9-1.1
							c0.2,0,0.4,0,0.6,0.1l13.4,7.7c0.1,0,0.2,0.1,0.2,0.2c0.3,0.3,0.5,0.7,0.5,1.1v15.5C36.8,46.9,36.4,47.3,35.8,47.3z"/>
						<path class="st1" d="M22.5,60.7c-0.1,0-0.3,0-0.4-0.1c-0.1,0-0.2-0.1-0.3-0.1L4.7,50.6c-0.1,0-0.2-0.1-0.2-0.2
							C4.2,50.1,4,49.7,4,49.3V28.8c0-0.7,0.4-1.4,0.9-1.8L5,26.9l26.2-15.1c0.2-0.1,0.4-0.2,0.6-0.2c0.2,0,0.3,0,0.5,0.1
							c0.1,0,0.2,0.1,0.3,0.1l17.2,9.9c0.1,0,0.2,0.1,0.2,0.2c0.3,0.3,0.5,0.7,0.5,1.1v20.5c0,0.7-0.4,1.5-1,1.8L23.2,60.5
							C23,60.6,22.7,60.7,22.5,60.7z M6,49l16.5,9.5l25.9-14.9v-0.1V23.2l-16.5-9.5L6.1,28.6l0,0l0,0v0.1L6,49L6,49z M48.7,23.4
							L48.7,23.4L48.7,23.4z"/>
					</g>
					<path class="st1" d="M22.2,23.7c-0.6,0-1-0.4-1-1V11.6c0-0.6,0.4-1,1-1s1,0.4,1,1v11.1C23.2,23.2,22.7,23.7,22.2,23.7z"/>
					<path class="st1" d="M18.7,14.6c-0.3,0-0.7-0.2-0.9-0.5c-0.3-0.5-0.1-1.1,0.4-1.4l7-4c0.5-0.3,1.1-0.1,1.4,0.4s0.1,1.1-0.4,1.4
						l-7,4C19,14.6,18.9,14.6,18.7,14.6z"/>
				</g>
				<rect x="4" y="4" class="st7" width="120" height="120"/>
				<rect x="4" y="4" class="st7" width="120" height="120"/>
			</g>
		</g>
	</g>
	<g>
		<rect class="st7" width="128" height="128"/>
	</g>
</g>
</svg>
