<?xml version="1.0" encoding="utf-8"?>
<!-- Generator: Adobe Illustrator 24.1.0, SVG Export Plug-In . SVG Version: 6.00 Build 0)  -->
<svg version="1.1" id="Layer_1" xmlns="http://www.w3.org/2000/svg" xmlns:xlink="http://www.w3.org/1999/xlink" x="0px" y="0px"
	 viewBox="0 0 128 128" style="enable-background:new 0 0 128 128;" xml:space="preserve">
<style type="text/css">
	.st0{fill:#E9EBDF;}
	.st1{fill:#4D9987;}
	.st2{fill:#FFFFFF;}
	.st3{fill:#0E352C;}
	.st4{fill:#27ae60;}
	.st5{fill:#185849;}
	.st6{fill:none;}
</style>
<g id="Layer_1_1_">
</g>
<g>
	<g id="Layer_2_1_">
		<g id="Tech_Concepts_1_">
			<g>
				<g>
					<g>
						<g>
							<g>
								<g>
									<g>
										<path class="st0" d="M90.1,68.4L68.8,56c-2.6-1.5-6.9-1.5-9.5,0L37.9,68.4H5V89c0,1,0.7,2,2,2.7l52.2,30.2
											c2.6,1.5,6.9,1.5,9.5,0L121,91.7c1.3-0.8,2-1.8,2-2.7V68.4H90.1z"/>
										<path class="st1" d="M64,124c-1.9,0-3.8-0.4-5.3-1.3L6.5,92.6c-1.6-1-2.5-2.2-2.5-3.7V68.4c0-0.6,0.4-1,1-1h32.6
											l21.1-12.2c2.9-1.7,7.6-1.7,10.5,0l21.1,12.2H123c0.6,0,1,0.4,1,1V89c0,1.4-0.9,2.7-2.5,3.6l-52.2,30.2
											C67.8,123.6,65.9,124,64,124z M6,69.4V89c0,0.7,0.5,1.3,1.5,1.9L59.7,121c2.3,1.3,6.2,1.3,8.5,0l52.2-30.2
											c0.9-0.5,1.5-1.2,1.5-1.9V69.4H90.1c-0.2,0-0.3,0-0.5-0.1L68.3,56.9c-2.3-1.3-6.2-1.3-8.5,0L38.4,69.2
											c-0.2,0.1-0.3,0.1-0.5,0.1H6V69.4z"/>
									</g>
									<path class="st1" d="M68.8,121.9L121,91.7c1.3-0.8,2-1.8,2-2.7V68.4H90.1L68.8,56c-1.3-0.8-3-1.1-4.8-1.1V123
										C65.7,123,67.4,122.6,68.8,121.9z"/>
									<path class="st1" d="M40.8,102.7c-0.2,0-0.3,0-0.5-0.1l-15.4-8.9c-0.5-0.3-0.6-0.9-0.4-1.4c0.3-0.5,0.9-0.6,1.4-0.4
										l15.4,8.9c0.5,0.3,0.6,0.9,0.4,1.4C41.5,102.5,41.2,102.7,40.8,102.7z"/>
									<g>
										<path class="st2" d="M121,65.6L68.8,35.4c-2.6-1.5-6.9-1.5-9.5,0L7,65.6c-2.6,1.5-2.6,4,0,5.5l52.2,30.2
											c2.6,1.5,6.9,1.5,9.5,0L121,71.1C123.6,69.6,123.6,67.1,121,65.6z"/>
										<path class="st1" d="M64,103.4c-1.9,0-3.8-0.4-5.3-1.3L6.5,72C4.9,71.1,4,69.8,4,68.4s0.9-2.7,2.5-3.6l52.2-30.2
											c2.9-1.7,7.6-1.7,10.5,0l52.2,30.2c1.6,0.9,2.5,2.2,2.5,3.6s-0.9,2.7-2.5,3.6l-52.2,30.2C67.8,103,65.9,103.4,64,103.4z
											 M64,35.3c-1.6,0-3.1,0.3-4.3,1L7.5,66.5C6.6,67,6,67.7,6,68.4c0,0.7,0.5,1.3,1.5,1.9l52.2,30.2c2.3,1.3,6.2,1.3,8.5,0
											l52.2-30.2c0.9-0.5,1.5-1.2,1.5-1.9c0-0.7-0.5-1.3-1.5-1.9l0,0L68.3,36.3C67.1,35.6,65.6,35.3,64,35.3z"/>
									</g>
								</g>
							</g>
							<g>
								<polygon class="st1" points="108.8,98.8 81.2,114.7 81.2,105.2 108.8,89.2 								"/>
								<path class="st0" d="M81.2,115.7c-0.2,0-0.3,0-0.5-0.1c-0.3-0.2-0.5-0.5-0.5-0.9v-9.5c0-0.4,0.2-0.7,0.5-0.9l27.6-15.9
									c0.3-0.2,0.7-0.2,1,0s0.5,0.5,0.5,0.9v9.5c0,0.4-0.2,0.7-0.5,0.9l-27.6,15.9C81.5,115.7,81.3,115.7,81.2,115.7z M82.2,105.8
									v7.2l25.6-14.8V91L82.2,105.8z M108.8,98.8L108.8,98.8L108.8,98.8z"/>
							</g>
							<path class="st3" d="M64,124c-2,0-3.8-0.5-5.3-1.3L6.5,92.6c-1.6-1-2.5-2.2-2.5-3.7V68.4c0-1.4,0.9-2.7,2.5-3.6l52.2-30.2
								c2.9-1.7,7.6-1.7,10.5,0l52.2,30.2c1.6,0.9,2.5,2.2,2.5,3.6V89c0,1.4-0.9,2.7-2.5,3.6l-52.2,30.2C67.8,123.5,66,124,64,124z
								 M64,35.3c-1.6,0-3.1,0.3-4.3,1L7.5,66.5C6.6,67,6,67.7,6,68.4V89c0,0.7,0.5,1.3,1.5,1.9L59.7,121c1.1,0.6,2.7,1,4.3,1
								s3.2-0.4,4.3-1l52.2-30.2c0.9-0.5,1.5-1.2,1.5-1.9V68.4c0-0.7-0.5-1.3-1.5-1.9l0,0L68.3,36.3C67.1,35.6,65.6,35.3,64,35.3z"
								/>
							<g>
								<ellipse class="st1" cx="109.5" cy="68.4" rx="2.7" ry="1.5"/>
								<ellipse class="st1" cx="64" cy="94.6" rx="2.7" ry="1.5"/>
								<ellipse class="st1" cx="64" cy="42.1" rx="2.7" ry="1.5"/>
								<ellipse class="st1" cx="18.5" cy="68.4" rx="2.7" ry="1.5"/>
							</g>
						</g>
					</g>
					<g>
						<path class="st0" d="M67.2,52.8c0,0,6.5,3.8,13.7,7.9c8.1,4.7,7.1,12.8,2.2,18.6C73,82.1,58.9,82.7,50.8,78
							c-7.2-4.2-13.7-7.9-13.7-7.9c6.2-3.6,8.5-12.5,8.5-12.5S60.9,56.4,67.2,52.8z"/>
						<path class="st1" d="M67,82.5c-6.2,0-12.2-1-16.7-3.6L36.6,71c-0.3-0.2-0.5-0.5-0.5-0.9s0.2-0.7,0.5-0.9
							c5.8-3.3,8-11.8,8-11.8c0.1-0.4,0.5-0.7,0.9-0.8c0.2,0,15.2-1.3,21.2-4.8c0.3-0.2,0.7-0.2,1,0l13.7,7.9c3.5,2,5.7,4.9,6.3,8.3
							c0.7,4-0.7,8.3-3.9,12c-0.1,0.2-0.3,0.3-0.5,0.3C78.5,81.7,72.7,82.5,67,82.5z M39,70.1l12.3,7.1c7.9,4.6,21.7,3.9,31.2,1.2
							c2.6-3.2,3.8-6.8,3.2-10c-0.5-2.8-2.3-5.1-5.4-6.9L67.2,54c-5.9,3.1-17.8,4.4-20.8,4.7C45.7,60.7,43.6,66.7,39,70.1z"/>
					</g>
					<g>
						<path class="st2" d="M45.5,65.4c0,0,15.4-1.3,21.6-4.9c0,0,6.5,3.8,13.7,7.9c2.7,1.6,4.4,3.5,5.3,5.7
							c1.7-4.8,0.6-9.9-5.3-13.3c-7.2-4.2-13.7-7.9-13.7-7.9c-6.2,3.6-21.6,4.9-21.6,4.9s-2.2,8.9-8.5,12.5c0,0,2,1.1,4.9,2.9
							C44.5,69.3,45.5,65.4,45.5,65.4z"/>
						<path class="st1" d="M86.1,75.1c-0.4,0-0.8-0.2-0.9-0.6c-0.8-2.1-2.5-3.8-4.8-5.2l-13.2-7.6c-5.9,3.1-17.8,4.4-20.8,4.7
							c-0.4,1.3-1.5,4.4-3.5,7.3c-0.3,0.4-0.9,0.6-1.3,0.3l-4.9-2.9c-0.3-0.2-0.5-0.5-0.5-0.9s0.2-0.7,0.5-0.9
							c5.8-3.3,8-11.8,8-11.8c0.1-0.4,0.5-0.7,0.9-0.8c0.2,0,15.2-1.3,21.2-4.8c0.3-0.2,0.7-0.2,1,0l13.7,7.9
							c5.7,3.3,7.8,8.6,5.7,14.5C86.9,74.8,86.6,75,86.1,75.1C86.2,75.1,86.1,75.1,86.1,75.1z M39,70.1l2.7,1.6
							c2-3.3,2.9-6.5,2.9-6.6c0.1-0.4,0.5-0.7,0.9-0.8c0.2,0,15.2-1.3,21.2-4.8c0.3-0.2,0.7-0.2,1,0l13.7,7.9
							c1.8,1.1,3.3,2.3,4.4,3.8c0.4-3-0.4-6.8-5.4-9.7L67.2,54c-5.9,3.1-17.8,4.4-20.8,4.7C45.7,60.7,43.6,66.7,39,70.1z"/>
					</g>
					<path class="st1" d="M45.5,65.4c0,0,15.4-1.3,21.6-4.9c0,0,6.5,3.8,13.7,7.9c2.7,1.6,4.4,3.5,5.3,5.7c1.7-4.8,0.6-9.9-5.3-13.3
						c-7.2-4.2-13.7-7.9-13.7-7.9c-6.2,3.6-21.6,4.9-21.6,4.9s-2.2,8.9-8.5,12.5c0,0,2,1.1,4.9,2.9C44.5,69.3,45.5,65.4,45.5,65.4z"
						/>
					<path class="st3" d="M67,82.5c-6.2,0-12.2-1-16.7-3.6L36.6,71c-0.3-0.2-0.5-0.5-0.5-0.9s0.2-0.7,0.5-0.9c5.8-3.3,8-11.8,8-11.8
						c0.1-0.4,0.5-0.7,0.9-0.8c0.2,0,15.2-1.3,21.2-4.8c0.3-0.2,0.7-0.2,1,0l13.7,7.9c3.5,2,5.7,4.9,6.3,8.3c0.7,4-0.7,8.3-3.9,12
						c-0.1,0.2-0.3,0.3-0.5,0.3C78.5,81.7,72.7,82.5,67,82.5z M39,70.1l12.3,7.1c7.9,4.6,21.7,3.9,31.2,1.2c2.6-3.2,3.8-6.8,3.2-10
						c-0.5-2.8-2.3-5.1-5.4-6.9L67.2,54c-5.9,3.1-17.8,4.4-20.8,4.7C45.7,60.7,43.6,66.7,39,70.1z"/>
					<g>
						<path class="st1" d="M86.9,22.2h-2.2c-0.9-1.1-2.2-2.2-3.8-3.1c-7.2-4.2-13.7-7.9-13.7-7.9c-6.2,3.6-21.6,4.9-21.6,4.9
							s-0.8,3-2.6,6.2h-5.8v6.2c0,0,6.5,3.8,13.7,7.9c8.1,4.7,22.2,4.1,32.3,1.3c2.4-2.8,3.8-6.1,3.8-9.3l0,0v-6.2H86.9z"/>
						<g>
							<path class="st2" d="M67.2,5c0,0,6.5,3.8,13.7,7.9c8.1,4.7,7.1,12.8,2.2,18.6c-10.1,2.8-24.2,3.4-32.3-1.3
								c-7.2-4.2-13.7-7.9-13.7-7.9c6.2-3.6,8.5-12.5,8.5-12.5S60.9,8.6,67.2,5z"/>
							<path class="st1" d="M67,34.7c-6.2,0-12.2-1-16.7-3.6l-13.7-7.9c-0.3-0.2-0.5-0.5-0.5-0.9s0.2-0.7,0.5-0.9
								c5.8-3.4,8-11.8,8-11.8C44.7,9.3,45,9,45.5,8.9c0.2,0,15.2-1.3,21.2-4.8c0.3-0.2,0.7-0.2,1,0L81.4,12c3.5,2,5.7,4.9,6.3,8.3
								c0.7,3.8-0.8,8.1-3.9,11.8c-0.1,0.2-0.3,0.3-0.5,0.3C78.5,33.9,72.7,34.7,67,34.7z M39,22.3l12.3,7.1
								c7.9,4.6,21.7,3.9,31.2,1.2c2.6-3.2,3.8-6.8,3.2-10c-0.5-2.8-2.3-5.1-5.4-6.9L67.2,6.1c-5.9,3.1-17.8,4.4-20.8,4.7
								C45.7,12.9,43.6,18.8,39,22.3z"/>
						</g>
						<path class="st0" d="M67,32.7c-6.5,0-11.9-1.1-15.6-3.3l-12.2-7l1-0.9c3.4-3.1,5.2-7.5,6-9.9l0.2-0.6l0.6-0.1
							c3.2-0.3,13.9-1.6,19.7-4.4l0.5-0.2l13.2,7.6c3,1.8,4.8,4.1,5.3,6.9c0.5,3-0.6,6.5-3,9.6l-0.2,0.3l-0.3,0.1
							C77.3,32,72,32.7,67,32.7z M42.5,21.9l9.9,5.7c3.5,2,8.5,3,14.6,3c4.7,0,9.8-0.7,14.3-1.8c1.9-2.6,2.8-5.4,2.4-7.8
							c-0.4-2.2-1.8-4-4.3-5.5l-12.3-7c-5.7,2.5-14.9,3.8-19.2,4.3C47,15.1,45.3,18.9,42.5,21.9z"/>
						<path class="st3" d="M67,41c-6.2,0-12.2-1-16.7-3.6l-13.7-7.9c-0.3-0.2-0.5-0.5-0.5-0.9v-6.2c0-0.4,0.2-0.7,0.5-0.9
							c5.8-3.3,8-11.8,8-11.8C44.7,9.3,45,9,45.5,8.9c0.2,0,15.2-1.3,21.2-4.8c0.3-0.2,0.7-0.2,1,0L81.4,12c5.2,3,6.4,7.1,6.5,10
							c0,0.1,0,0.1,0,0.2v6.2c0,0.1,0,0.1,0,0.2c-0.1,3.3-1.5,6.7-4,9.7c-0.1,0.2-0.3,0.3-0.5,0.3C78.5,40.1,72.7,41,67,41z
							 M38.1,28l13.2,7.6c7.9,4.6,21.7,3.9,31.2,1.2c2.2-2.7,3.4-5.6,3.4-8.4c0-0.1,0-0.1,0-0.2v-5.9c0-0.1,0-0.1,0-0.2
							c0-3.5-1.9-6.4-5.5-8.5L67.2,6.1c-5.9,3.1-17.8,4.4-20.8,4.7c-0.7,2.2-3,8.8-8.2,12.1L38.1,28L38.1,28z M87.8,22.2L87.8,22.2
							L87.8,22.2z"/>
						<path class="st4" d="M54.6,22.8l4-2.3l-4-2.3c-0.6-0.3-0.6-0.8,0-1.2l2.9-1.7c0.6-0.3,1.5-0.3,2,0l4,2.3l4-2.3
							c0.6-0.3,1.5-0.3,2,0l2.9,1.7c0.6,0.3,0.6,0.8,0,1.2l-4,2.3l4,2.3c0.6,0.3,0.6,0.8,0,1.2l-2.9,1.7c-0.6,0.3-1.5,0.3-2,0
							l-4-2.3l-4,2.3c-0.6,0.3-1.5,0.3-2,0L54.6,24C54,23.7,54,23.2,54.6,22.8z"/>
					</g>
					<g>
						<path class="st5" d="M86.9,41.5c-0.1,0-0.3,0-0.4-0.1s-0.2-0.1-0.3-0.2C86.1,41.1,86,41,86,40.9s-0.1-0.2-0.1-0.4
							c0-0.3,0.1-0.5,0.3-0.7c0.1-0.1,0.2-0.2,0.3-0.2c0.2-0.1,0.5-0.1,0.8,0c0.1,0,0.2,0.1,0.3,0.2c0.2,0.2,0.3,0.4,0.3,0.7
							c0,0.1,0,0.3-0.1,0.4s-0.1,0.2-0.2,0.3s-0.2,0.2-0.3,0.2S87,41.5,86.9,41.5z"/>
						<path class="st5" d="M85.9,56.7c0-0.5,0.5-1,1-1l0,0c0.6,0,1,0.5,1,1l0,0c0,0.6-0.4,1-1,1l0,0C86.3,57.7,85.9,57.3,85.9,56.7z
							 M85.9,51.3c0-0.5,0.5-1,1-1l0,0c0.6,0,1,0.5,1,1l0,0c0,0.6-0.4,1-1,1l0,0C86.3,52.3,85.9,51.9,85.9,51.3z M85.9,45.9
							c0-0.6,0.5-1,1-1l0,0c0.6,0,1,0.4,1,1l0,0c0,0.6-0.4,1-1,1l0,0C86.3,46.9,85.9,46.5,85.9,45.9z"/>
						<path class="st5" d="M86.9,63.1c-0.3,0-0.5-0.1-0.7-0.3s-0.3-0.4-0.3-0.7s0.1-0.5,0.3-0.7c0.2-0.2,0.6-0.4,0.9-0.3
							c0.1,0,0.1,0,0.2,0.1c0.1,0,0.1,0.1,0.2,0.1l0.1,0.1c0.2,0.2,0.3,0.4,0.3,0.7s-0.1,0.5-0.3,0.7c-0.1,0.1-0.2,0.2-0.3,0.2
							C87.1,63.1,87,63.1,86.9,63.1z"/>
					</g>
					<g>
						<path class="st3" d="M37.1,38c-0.1,0-0.3,0-0.4-0.1c-0.1,0-0.2-0.1-0.3-0.2c-0.1-0.1-0.2-0.2-0.2-0.3s-0.1-0.2-0.1-0.4
							s0-0.3,0.1-0.4c0.1-0.1,0.1-0.2,0.2-0.3c0.1-0.1,0.2-0.2,0.3-0.2c0.4-0.2,0.8-0.1,1.1,0.2c0.2,0.2,0.3,0.5,0.3,0.7
							c0,0.1,0,0.3-0.1,0.4s-0.1,0.2-0.2,0.3c-0.1,0.1-0.2,0.2-0.3,0.2S37.2,38,37.1,38z"/>
						<path class="st3" d="M36.1,59.4c0-0.5,0.5-1,1-1l0,0c0.5,0,1,0.5,1,1l0,0c0,0.6-0.5,1-1,1l0,0C36.5,60.4,36.1,60,36.1,59.4z
							 M36.1,53.8c0-0.6,0.5-1,1-1l0,0c0.5,0,1,0.4,1,1l0,0c0,0.5-0.5,1-1,1l0,0C36.5,54.8,36.1,54.4,36.1,53.8z M36.1,48.2
							c0-0.5,0.5-1,1-1l0,0c0.5,0,1,0.5,1,1l0,0c0,0.5-0.5,1-1,1l0,0C36.5,49.2,36.1,48.8,36.1,48.2z M36.1,42.6c0-0.5,0.5-1,1-1
							l0,0c0.5,0,1,0.5,1,1l0,0c0,0.6-0.5,1-1,1l0,0C36.5,43.6,36.1,43.2,36.1,42.6z"/>
						<path class="st3" d="M37.1,66c-0.3,0-0.5-0.1-0.7-0.3c-0.1-0.1-0.2-0.2-0.2-0.3c0-0.1-0.1-0.2-0.1-0.4c0-0.3,0.1-0.5,0.3-0.7
							c0.1-0.1,0.2-0.2,0.3-0.2c0.2-0.1,0.5-0.1,0.8,0c0.1,0,0.2,0.1,0.3,0.2l0.1,0.1c0,0.1,0.1,0.1,0.1,0.2s0,0.1,0.1,0.2
							c0,0.1,0,0.1,0,0.2c0,0.3-0.1,0.5-0.3,0.7c-0.1,0.1-0.2,0.2-0.3,0.2C37.3,66,37.2,66,37.1,66z"/>
					</g>
				</g>
				<rect x="4" y="4" class="st6" width="120" height="120"/>
				<rect x="4" y="4" class="st6" width="120" height="120"/>
			</g>
		</g>
	</g>
	<g>
		<rect class="st6" width="128" height="128"/>
	</g>
</g>
</svg>
