<?xml version="1.0" encoding="utf-8"?>
<!-- Generator: Adobe Illustrator 24.1.0, SVG Export Plug-In . SVG Version: 6.00 Build 0)  -->
<svg version="1.1" id="Layer_1" xmlns="http://www.w3.org/2000/svg" xmlns:xlink="http://www.w3.org/1999/xlink" x="0px" y="0px"
	 viewBox="0 0 128 128" style="enable-background:new 0 0 128 128;" xml:space="preserve">
<style type="text/css">
	.st0{fill:#185849;}
	.st1{fill:#4D9987;}
	.st2{fill:#E9EBDF;}
	.st3{fill:#FFFFFF;}
	.st4{fill:#0E352C;}
	.st5{fill:#C4D7D3;}
	.st6{fill:#27ae60;}
	.st7{fill:none;}
</style>
<g id="Layer_1_1_">
</g>
<g>
	<g id="Layer_2_1_">
		<g id="New_Illustrations_1_">
			<g>
				<g>
					<g>
						<g>
							<path class="st0" d="M100.8,44.3c-0.3,0-0.5-0.1-0.7-0.3s-0.3-0.4-0.3-0.7s0.1-0.5,0.3-0.7c0.4-0.4,1-0.4,1.4,0
								c0.2,0.2,0.3,0.4,0.3,0.7s-0.1,0.5-0.3,0.7S101.1,44.3,100.8,44.3z"/>
							<path class="st0" d="M96.9,66.9c-0.5-0.1-0.9-0.6-0.8-1.2l0,0c0.1-0.5,0.6-0.9,1.2-0.8l0,0c0.5,0.1,0.9,0.6,0.8,1.2l0,0
								c-0.1,0.5-0.5,0.8-1,0.8l0,0C97,66.9,96.9,66.9,96.9,66.9z M97.8,61.2c-0.5-0.1-0.9-0.6-0.8-1.2l0,0c0.1-0.5,0.6-0.9,1.2-0.8
								l0,0c0.5,0.1,0.9,0.6,0.8,1.2l0,0c-0.1,0.5-0.5,0.8-1,0.8l0,0C97.9,61.2,97.9,61.2,97.8,61.2z M98.8,55.6
								c-0.5-0.1-0.9-0.6-0.8-1.2l0,0c0.1-0.5,0.6-0.9,1.2-0.8l0,0c0.5,0.1,0.9,0.6,0.8,1.2l0,0c-0.1,0.5-0.5,0.8-1,0.8l0,0
								C98.9,55.6,98.8,55.6,98.8,55.6z M99.7,50c-0.5-0.1-0.9-0.6-0.8-1.1l0,0c0.1-0.6,0.6-0.9,1.2-0.8l0,0
								c0.5,0.1,0.9,0.6,0.8,1.2l0,0c-0.1,0.5-0.5,0.8-1,0.8l0,0C99.8,50,99.7,50,99.7,50z"/>
							<path class="st0" d="M96.1,72.5c-0.3,0-0.5-0.1-0.7-0.3c0-0.1-0.1-0.1-0.1-0.2s-0.1-0.1-0.1-0.2s0-0.1,0-0.2s0-0.1,0-0.2
								s0-0.1,0-0.2s0-0.1,0-0.2s0.1-0.1,0.1-0.2s0.1-0.1,0.1-0.2c0.2-0.2,0.6-0.3,0.9-0.3c0.1,0,0.1,0,0.2,0.1
								c0.1,0,0.1,0.1,0.2,0.1s0.1,0.1,0.1,0.1c0.1,0.1,0.1,0.1,0.1,0.2S97,70.9,97,71s0,0.1,0.1,0.2c0,0.1,0,0.1,0,0.2s0,0.1,0,0.2
								s0,0.1-0.1,0.2c0,0.1-0.1,0.1-0.1,0.2s-0.1,0.1-0.1,0.2l-0.1,0.1c0,0-0.1,0.1-0.2,0.1s-0.1,0.1-0.2,0.1
								C96.2,72.5,96.2,72.5,96.1,72.5z"/>
						</g>
						<g>
							<path class="st1" d="M63.5,53.7c-0.3,0-0.5-0.1-0.7-0.3s-0.3-0.5-0.3-0.7c0-0.3,0.1-0.5,0.3-0.7c0.3-0.3,0.7-0.4,1.1-0.2
								c0.1,0.1,0.2,0.1,0.3,0.2c0.2,0.2,0.3,0.5,0.3,0.7c0,0.3-0.1,0.5-0.3,0.7c-0.1,0.1-0.2,0.2-0.3,0.2
								C63.7,53.6,63.6,53.7,63.5,53.7z"/>
							<path class="st1" d="M67.8,50.2c-0.3-0.5-0.1-1.1,0.4-1.4l0,0c0.5-0.3,1.1-0.1,1.4,0.4l0,0c0.3,0.5,0.1,1.1-0.4,1.4l0,0
								c-0.1,0.1-0.3,0.1-0.5,0.1l0,0C68.3,50.7,68,50.5,67.8,50.2z"/>
							<path class="st1" d="M73.9,47.6c-0.3,0-0.5-0.1-0.7-0.3s-0.3-0.4-0.3-0.7s0.1-0.5,0.3-0.7c0.4-0.4,1-0.4,1.4,0
								c0.2,0.2,0.3,0.4,0.3,0.7s-0.1,0.5-0.3,0.7S74.2,47.6,73.9,47.6z"/>
						</g>
						<g>
							<path class="st1" d="M63.5,53.7c-0.3,0-0.5-0.1-0.7-0.3s-0.3-0.5-0.3-0.7c0-0.3,0.1-0.5,0.3-0.7c0.3-0.3,0.7-0.4,1.1-0.2
								c0.1,0.1,0.2,0.1,0.3,0.2c0.2,0.2,0.3,0.5,0.3,0.7c0,0.3-0.1,0.5-0.3,0.7c-0.1,0.1-0.2,0.2-0.3,0.2
								C63.7,53.6,63.6,53.7,63.5,53.7z"/>
							<path class="st1" d="M57.7,50.5c-0.5-0.3-0.6-0.9-0.4-1.4l0,0c0.3-0.5,0.9-0.6,1.4-0.4l0,0c0.5,0.3,0.6,0.9,0.4,1.4l0,0
								c-0.2,0.3-0.5,0.5-0.9,0.5l0,0C58.1,50.7,57.9,50.6,57.7,50.5z"/>
							<path class="st1" d="M53,47.6c-0.3,0-0.5-0.1-0.7-0.3S52,46.9,52,46.6c0-0.1,0-0.1,0-0.2c0-0.1,0-0.1,0.1-0.2
								c0-0.1,0-0.1,0.1-0.2c0,0,0.1-0.1,0.1-0.2c0.3-0.3,0.7-0.4,1.1-0.2c0.1,0,0.1,0.1,0.2,0.1l0.1,0.1c0.2,0.2,0.3,0.4,0.3,0.7
								s-0.1,0.5-0.3,0.7l-0.1,0.1c-0.1,0-0.1,0.1-0.2,0.1C53.3,47.6,53.1,47.6,53,47.6z"/>
						</g>
						<g>
							<g>
								<polygon class="st2" points="63.5,52.7 5,86.4 5.1,86.5 64.5,120.8 123,87.1 								"/>
								<path class="st3" d="M109.4,87.5c-0.2,0-0.3,0-0.5-0.1L63,60.9c-0.5-0.3-0.6-0.9-0.4-1.4c0.3-0.5,0.9-0.6,1.4-0.4l45.9,26.5
									c0.5,0.3,0.6,0.9,0.4,1.4C110.1,87.3,109.7,87.5,109.4,87.5z"/>
								<path class="st4" d="M64.5,121.8c-0.2,0-0.3,0-0.5-0.1L4.6,87.3C4.3,87.2,4,86.8,4,86.5s0.2-0.7,0.5-0.9L63,51.9
									c0.3-0.2,0.7-0.2,1,0l59.5,34.3c0.3,0.2,0.5,0.5,0.5,0.9s-0.2,0.7-0.5,0.9L65,121.7C64.9,121.8,64.7,121.8,64.5,121.8z
									 M7,86.4l57.5,33.2L121,87.1L63.5,53.9L7,86.4z"/>
								<path class="st3" d="M97.9,94.1c-0.2,0-0.3,0-0.5-0.1L51.6,67.5c-0.5-0.3-0.6-0.9-0.4-1.4c0.3-0.5,0.9-0.6,1.4-0.4
									l45.9,26.5c0.5,0.3,0.6,0.9,0.4,1.4C98.6,93.9,98.3,94.1,97.9,94.1z"/>
								<path class="st3" d="M86.4,100.7c-0.2,0-0.3,0-0.5-0.1L40.1,74.1c-0.5-0.3-0.6-0.9-0.4-1.4c0.3-0.5,0.9-0.6,1.4-0.4L87,98.8
									c0.5,0.3,0.6,0.9,0.4,1.4C87.1,100.5,86.8,100.7,86.4,100.7z"/>
								<path class="st3" d="M75,107.3c-0.2,0-0.3,0-0.5-0.1L28.6,80.7c-0.5-0.3-0.6-0.9-0.4-1.4c0.3-0.5,0.9-0.6,1.4-0.4l45.9,26.5
									c0.5,0.3,0.6,0.9,0.4,1.4C75.7,107.1,75.3,107.3,75,107.3z"/>
								<path class="st3" d="M63.5,113.9c-0.2,0-0.3,0-0.5-0.1L17.2,87.3c-0.5-0.3-0.6-0.9-0.4-1.4c0.3-0.5,0.9-0.6,1.4-0.4
									L64,112.1c0.5,0.3,0.6,0.9,0.4,1.4C64.2,113.8,63.9,113.9,63.5,113.9z"/>
								<path class="st3" d="M63.5,113.9c-0.3,0-0.7-0.2-0.9-0.5c-0.3-0.5-0.1-1.1,0.4-1.4l45.9-26.5c0.5-0.3,1.1-0.1,1.4,0.4
									s0.1,1.1-0.4,1.4L64,113.8C63.9,113.9,63.7,113.9,63.5,113.9z"/>
								<path class="st3" d="M52.1,107.3c-0.3,0-0.7-0.2-0.9-0.5c-0.3-0.5-0.1-1.1,0.4-1.4L97.4,79c0.5-0.3,1.1-0.1,1.4,0.4
									s0.1,1.1-0.4,1.4l-45.9,26.5C52.4,107.3,52.2,107.3,52.1,107.3z"/>
								<path class="st3" d="M40.6,100.7c-0.3,0-0.7-0.2-0.9-0.5c-0.3-0.5-0.1-1.1,0.4-1.4L86,72.4c0.5-0.3,1.1-0.1,1.4,0.4
									s0.1,1.1-0.4,1.4l-45.9,26.5C40.9,100.7,40.8,100.7,40.6,100.7z"/>
								<path class="st3" d="M29.1,94.1c-0.3,0-0.7-0.2-0.9-0.5c-0.3-0.5-0.1-1.1,0.4-1.4l45.9-26.5c0.5-0.3,1.1-0.1,1.4,0.4
									s0.1,1.1-0.4,1.4L29.6,94C29.5,94,29.3,94.1,29.1,94.1z"/>
								<path class="st3" d="M17.7,87.5c-0.3,0-0.7-0.2-0.9-0.5c-0.3-0.5-0.1-1.1,0.4-1.4L63,59.1c0.5-0.3,1.1-0.1,1.4,0.4
									s0.1,1.1-0.4,1.4L18.2,87.3C18,87.4,17.8,87.5,17.7,87.5z"/>
							</g>
							<path class="st4" d="M52.1,105.4c-2.3,0-4.5-0.5-6.3-1.5c-1.8-1.1-2.9-2.6-2.9-4.2s1-3.1,2.9-4.2l4.3-2.5
								c-2.4-1.8-3.7-4-3.7-6.4c0-2.8,1.8-5.4,5.1-7.3l0.7-0.4c6.2-3.6,16.3-3.7,22.8-0.3l5.3-3c3.5-2,9.1-2,12.6,0
								c1.8,1.1,2.9,2.6,2.9,4.2s-1,3.1-2.9,4.2l-34.5,19.9C56.6,104.9,54.3,105.4,52.1,105.4z M63.8,78.1c-3.9,0-7.7,0.8-10.6,2.5
								L52.5,81c-2.7,1.5-4.1,3.5-4.1,5.6s1.5,4,4.1,5.6c0.3,0.2,0.5,0.5,0.5,0.9s-0.2,0.7-0.5,0.9l-5.7,3.3
								c-1.2,0.7-1.9,1.6-1.9,2.5s0.7,1.8,1.9,2.5c2.9,1.7,7.7,1.7,10.6,0l17.2-9.9l0.5,0.9l-0.5-0.9l17.2-10
								c1.2-0.7,1.9-1.6,1.9-2.5s-0.7-1.8-1.9-2.5c-2.9-1.7-7.7-1.7-10.6,0l-5.8,3.3c-0.3,0.2-0.7,0.2-1,0
								C71.5,78.9,67.7,78.1,63.8,78.1z"/>
						</g>
						<g>
							<g>
								<path class="st3" d="M100.6,20.1L100.6,20.1l-12.1-7l0,0c-1.4-0.8-3.2-0.7-5.3,0.4L82.3,14L72,8.1l0,0
									c-2.4-1.4-5.4-1.2-8.8,0.7c-7,4-12.8,14.5-13.4,24l-6.6,3.8c-4.4,2.6-8.1,9.5-8.1,15.4l0,0c0,3.2,1.1,5.5,2.8,6.5l0,0
									l12.1,7l0,0c1.4,0.8,3.3,0.7,5.3-0.4l40-23.1c4.4-2.6,8.1-9.5,8.1-15.4l0,0C103.4,23.4,102.3,21.1,100.6,20.1z"/>
								<path class="st5" d="M95.3,20.5l-6.6,3.8c-0.6-8.8-6.4-12.6-13.4-8.6s-12.8,14.5-13.4,24l-6.6,3.8
									c-4.4,2.6-8.1,9.5-8.1,15.4s3.6,8.7,8.1,6.1l40-23.1c4.4-2.6,8.1-9.5,8.1-15.4l0,0C103.4,20.7,99.8,18,95.3,20.5z"/>
								<path class="st6" d="M47.3,60c-0.6,0-1-0.4-1-1c0-6.3,3.8-13.5,8.6-16.2l6.2-3.6c0.8-9.8,6.7-20.2,13.8-24.3
									c3.4-2,6.8-2.3,9.5-0.8c2.8,1.5,4.5,4.5,5.1,8.7l5.3-3.1c0.5-0.3,1.1-0.1,1.4,0.4s0.1,1.1-0.4,1.4l-6.6,3.8
									c-0.3,0.2-0.7,0.2-1,0s-0.5-0.5-0.5-0.8c-0.3-4.2-1.8-7.3-4.3-8.6c-2.1-1.1-4.7-0.8-7.6,0.8c-6.6,3.8-12.3,14-12.9,23.2
									c0,0.3-0.2,0.6-0.5,0.8l-6.6,3.8c-4.2,2.4-7.6,8.9-7.6,14.5C48.3,59.5,47.8,60,47.3,60z"/>
								<path class="st0" d="M52.1,67c-0.9,0-1.7-0.2-2.5-0.6h-0.1l-12.1-7l-0.1-0.1c-2-1.2-3.2-3.9-3.2-7.3
									c0-6.3,3.8-13.5,8.6-16.2l6.2-3.6c0.8-9.8,6.7-20.2,13.8-24.3c3.5-2,6.9-2.3,9.7-0.8h0.1l9.8,5.7l0.4-0.2
									c2.2-1.3,4.4-1.4,6.1-0.5c0,0,0.1,0,0.1,0.1l12.1,7h0.1c2,1.2,3.2,3.9,3.2,7.3c0,6.3-3.8,13.5-8.6,16.2l-40,23.1
									C54.6,66.7,53.3,67,52.1,67z M50.5,64.6L50.5,64.6c1.2,0.7,2.7,0.6,4.3-0.4l40-23.1c4.2-2.4,7.6-8.9,7.6-14.5
									c0-2.7-0.8-4.8-2.3-5.6c0,0,0,0-0.1,0l-11.9-6.9c0,0-0.1,0-0.1-0.1c-1.2-0.7-2.6-0.5-4.3,0.4l-0.9,0.5c-0.3,0.2-0.7,0.2-1,0
									L71.6,9h-0.1c-2.1-1.2-4.9-1-7.8,0.7c-6.6,3.8-12.3,14-12.9,23.2c0,0.3-0.2,0.6-0.5,0.8l-6.6,3.8c-4.2,2.4-7.6,8.9-7.6,14.5
									c0,2.7,0.8,4.8,2.3,5.6l0.1,0.1L50.5,64.6z"/>
							</g>
						</g>
						<path class="st4" d="M52.1,105.4c-2.3,0-4.5-0.5-6.3-1.5c-1.8-1.1-2.9-2.6-2.9-4.2s1-3.1,2.9-4.2l4.3-2.5
							c-2.4-1.8-3.7-4-3.7-6.4c0-2.8,1.8-5.4,5.1-7.3l0.7-0.4c6.2-3.6,16.3-3.7,22.8-0.3l5.3-3c3.5-2,9.1-2,12.6,0
							c1.8,1.1,2.9,2.6,2.9,4.2s-1,3.1-2.9,4.2l-34.5,19.9C56.6,104.9,54.3,105.4,52.1,105.4z M63.8,78.1c-3.9,0-7.7,0.8-10.6,2.5
							L52.5,81c-2.7,1.5-4.1,3.5-4.1,5.6s1.5,4,4.1,5.6c0.3,0.2,0.5,0.5,0.5,0.9s-0.2,0.7-0.5,0.9l-5.7,3.3
							c-1.2,0.7-1.9,1.6-1.9,2.5s0.7,1.8,1.9,2.5c2.9,1.7,7.7,1.7,10.6,0l17.2-9.9l0.5,0.9l-0.5-0.9l17.2-10
							c1.2-0.7,1.9-1.6,1.9-2.5s-0.7-1.8-1.9-2.5c-2.9-1.7-7.7-1.7-10.6,0l-5.8,3.3c-0.3,0.2-0.7,0.2-1,0
							C71.5,78.9,67.7,78.1,63.8,78.1z"/>
						<g>
							<path class="st4" d="M36.8,63c-0.1,0-0.3,0-0.4-0.1c-0.1,0-0.2-0.1-0.3-0.2c-0.2-0.2-0.3-0.4-0.3-0.7s0.1-0.5,0.3-0.7
								c0.1-0.1,0.2-0.2,0.3-0.2c0.4-0.2,0.8-0.1,1.1,0.2c0,0.1,0.1,0.1,0.1,0.2c0,0.1,0.1,0.1,0.1,0.2c0,0.1,0.1,0.1,0.1,0.2
								c0,0.1,0,0.1,0,0.2c0,0.3-0.1,0.5-0.3,0.7C37.4,62.9,37.1,63,36.8,63z"/>
							<path class="st4" d="M37.9,68.5c-0.1,0-0.3,0-0.4-0.1c-0.1-0.1-0.2-0.1-0.3-0.2c-0.2-0.2-0.3-0.4-0.3-0.7
								c0-0.1,0-0.3,0.1-0.4s0.1-0.2,0.2-0.3c0.1-0.1,0.2-0.2,0.3-0.2c0.4-0.1,0.8-0.1,1.1,0.2c0.1,0.1,0.2,0.2,0.2,0.3
								c0,0.1,0.1,0.2,0.1,0.4c0,0.3-0.1,0.5-0.3,0.7C38.4,68.4,38.1,68.5,37.9,68.5z"/>
						</g>
						<g>
							<g>
								<path class="st3" d="M100.6,20.1L100.6,20.1l-12.1-7l0,0c-1.4-0.8-3.2-0.7-5.3,0.4L82.3,14L72,8.1l0,0
									c-2.4-1.4-5.4-1.2-8.8,0.7c-7,4-12.8,14.5-13.4,24l-6.6,3.8c-4.4,2.6-8.1,9.5-8.1,15.4l0,0c0,3.2,1.1,5.5,2.8,6.5l0,0
									l12.1,7l0,0c1.4,0.8,3.3,0.7,5.3-0.4l40-23.1c4.4-2.6,8.1-9.5,8.1-15.4l0,0C103.4,23.4,102.3,21.1,100.6,20.1z"/>
								<path class="st5" d="M95.3,20.5l-6.6,3.8c-0.6-8.8-6.4-12.6-13.4-8.6s-12.8,14.5-13.4,24l-6.6,3.8
									c-4.4,2.6-8.1,9.5-8.1,15.4s3.6,8.7,8.1,6.1l40-23.1c4.4-2.6,8.1-9.5,8.1-15.4l0,0C103.4,20.7,99.8,18,95.3,20.5z"/>
								<path class="st6" d="M47.3,60c-0.6,0-1-0.4-1-1c0-6.3,3.8-13.5,8.6-16.2l6.2-3.6c0.8-9.8,6.7-20.2,13.8-24.3
									c3.4-2,6.8-2.3,9.5-0.8c2.8,1.5,4.5,4.5,5.1,8.7l5.3-3.1c0.5-0.3,1.1-0.1,1.4,0.4s0.1,1.1-0.4,1.4l-6.6,3.8
									c-0.3,0.2-0.7,0.2-1,0s-0.5-0.5-0.5-0.8c-0.3-4.2-1.8-7.3-4.3-8.6c-2.1-1.1-4.7-0.8-7.6,0.8c-6.6,3.8-12.3,14-12.9,23.2
									c0,0.3-0.2,0.6-0.5,0.8l-6.6,3.8c-4.2,2.4-7.6,8.9-7.6,14.5C48.3,59.5,47.8,60,47.3,60z"/>
								<path class="st0" d="M52.1,67c-0.9,0-1.7-0.2-2.5-0.6h-0.1l-12.1-7l-0.1-0.1c-2-1.2-3.2-3.9-3.2-7.3
									c0-6.3,3.8-13.5,8.6-16.2l6.2-3.6c0.8-9.8,6.7-20.2,13.8-24.3c3.5-2,6.9-2.3,9.7-0.8h0.1l9.8,5.7l0.4-0.2
									c2.2-1.3,4.4-1.4,6.1-0.5c0,0,0.1,0,0.1,0.1l12.1,7h0.1c2,1.2,3.2,3.9,3.2,7.3c0,6.3-3.8,13.5-8.6,16.2l-40,23.1
									C54.6,66.7,53.3,67,52.1,67z M50.5,64.6L50.5,64.6c1.2,0.7,2.7,0.6,4.3-0.4l40-23.1c4.2-2.4,7.6-8.9,7.6-14.5
									c0-2.7-0.8-4.8-2.3-5.6c0,0,0,0-0.1,0l-11.9-6.9c0,0-0.1,0-0.1-0.1c-1.2-0.7-2.6-0.5-4.3,0.4l-0.9,0.5c-0.3,0.2-0.7,0.2-1,0
									L71.6,9h-0.1c-2.1-1.2-4.9-1-7.8,0.7c-6.6,3.8-12.3,14-12.9,23.2c0,0.3-0.2,0.6-0.5,0.8l-6.6,3.8c-4.2,2.4-7.6,8.9-7.6,14.5
									c0,2.7,0.8,4.8,2.3,5.6l0.1,0.1L50.5,64.6z"/>
							</g>
						</g>
					</g>
					<g>
						<path class="st4" d="M37.9,68.5c-0.1,0-0.3,0-0.4-0.1c-0.1-0.1-0.2-0.1-0.3-0.2c-0.2-0.2-0.3-0.4-0.3-0.7c0-0.1,0-0.3,0.1-0.4
							s0.1-0.2,0.2-0.3c0.1-0.1,0.2-0.2,0.3-0.2c0.4-0.1,0.8-0.1,1.1,0.2c0.1,0.1,0.2,0.2,0.2,0.3c0,0.1,0.1,0.2,0.1,0.4
							c0,0.3-0.1,0.5-0.3,0.7C38.4,68.4,38.1,68.5,37.9,68.5z"/>
						<path class="st4" d="M40.8,89c-0.1-0.5,0.3-1.1,0.8-1.2l0,0c0.5-0.1,1.1,0.3,1.2,0.8l0,0c0.1,0.6-0.2,1.1-0.8,1.2l0,0
							c-0.1,0-0.1,0-0.2,0l0,0C41.3,89.8,40.9,89.5,40.8,89z M39.8,83.7c-0.1-0.5,0.3-1.1,0.8-1.2l0,0c0.5-0.1,1.1,0.3,1.2,0.8l0,0
							c0.1,0.5-0.2,1.1-0.8,1.2l0,0c-0.1,0-0.1,0-0.2,0l0,0C40.4,84.5,39.9,84.1,39.8,83.7z M38.9,78.3c-0.1-0.5,0.3-1.1,0.8-1.2
							l0,0c0.5-0.1,1.1,0.3,1.2,0.8l0,0c0.1,0.6-0.3,1.1-0.8,1.2l0,0c-0.1,0-0.1,0-0.2,0l0,0C39.4,79.2,38.9,78.8,38.9,78.3z
							 M37.9,73c-0.1-0.5,0.3-1.1,0.8-1.2l0,0c0.5-0.1,1.1,0.2,1.2,0.8l0,0c0.1,0.5-0.3,1.1-0.8,1.2l0,0c-0.1,0-0.1,0-0.2,0l0,0
							C38.4,73.8,38,73.5,37.9,73z"/>
						<path class="st4" d="M42.8,95.1c-0.1,0-0.1,0-0.2,0c-0.1,0-0.1,0-0.2,0c-0.1,0-0.1-0.1-0.2-0.1c0,0-0.1-0.1-0.2-0.1
							c-0.2-0.2-0.3-0.4-0.3-0.7c0-0.1,0-0.3,0.1-0.4c0-0.1,0.1-0.2,0.2-0.3c0.1,0,0.1-0.1,0.2-0.1c0.1,0,0.1-0.1,0.2-0.1
							c0.1,0,0.1,0,0.2-0.1c0.1,0,0.3,0,0.4,0c0.1,0,0.1,0,0.2,0.1c0.1,0,0.1,0.1,0.2,0.1c0.1,0,0.1,0.1,0.2,0.1
							c0.1,0.1,0.2,0.2,0.2,0.3c0.1,0.1,0.1,0.2,0.1,0.4c0,0.3-0.1,0.5-0.3,0.7c0,0-0.1,0.1-0.2,0.1c-0.1,0-0.1,0.1-0.2,0.1
							c-0.1,0-0.1,0-0.2,0C42.9,95.1,42.9,95.1,42.8,95.1z"/>
					</g>
				</g>
				<rect x="4" y="4" class="st7" width="120" height="120"/>
			</g>
		</g>
	</g>
	<g>
		<rect class="st7" width="128" height="128"/>
	</g>
</g>
</svg>
