<?xml version="1.0" encoding="utf-8"?>
<!-- Generator: Adobe Illustrator 24.1.0, SVG Export Plug-In . SVG Version: 6.00 Build 0)  -->
<svg version="1.1" id="Layer_1" xmlns="http://www.w3.org/2000/svg" xmlns:xlink="http://www.w3.org/1999/xlink" x="0px" y="0px"
	 viewBox="0 0 128 128" style="enable-background:new 0 0 128 128;" xml:space="preserve">
<style type="text/css">
	.st0{fill:#0E352C;}
	.st1{fill:#185849;}
	.st2{fill:#FFFFFF;}
	.st3{fill:#27ae60;}
	.st4{fill:#C4D7D3;}
	.st5{fill:#E9EBDF;}
	.st6{fill:#4D9987;}
	.st7{fill:none;}
</style>
<g id="Layer_1_1_">
</g>
<g>
	<g id="Layer_2_1_">
		<g id="New_Icon_Set_1_">
			<g>
				<g>
					<g>
						<path class="st0" d="M48.4,14.8c-0.3,0-0.5-0.1-0.7-0.3s-0.3-0.4-0.3-0.7c0-0.1,0-0.3,0.1-0.4c0-0.1,0.1-0.2,0.2-0.3
							c0.4-0.4,1-0.4,1.4,0c0.1,0.1,0.2,0.2,0.2,0.3c0.1,0.1,0.1,0.2,0.1,0.4c0,0.3-0.1,0.5-0.3,0.7S48.7,14.8,48.4,14.8z"/>
						<path class="st0" d="M30.2,24.3c-0.3-0.5-0.1-1.1,0.4-1.4l0,0c0.5-0.3,1.1-0.1,1.4,0.4l0,0c0.3,0.5,0.1,1.1-0.4,1.4l0,0
							c-0.1,0.1-0.3,0.1-0.5,0.1l0,0C30.8,24.8,30.4,24.6,30.2,24.3z M36,21c-0.3-0.5-0.1-1.1,0.4-1.4l0,0c0.5-0.3,1.1-0.1,1.4,0.4
							l0,0c0.3,0.5,0.1,1.1-0.4,1.4l0,0c-0.2,0.1-0.3,0.1-0.5,0.1l0,0C36.5,21.5,36.2,21.3,36,21z M41.8,17.7
							c-0.3-0.5-0.1-1.1,0.4-1.4l0,0c0.5-0.3,1.1-0.1,1.4,0.4l0,0c0.3,0.5,0.1,1.1-0.4,1.4l0,0c-0.2,0.1-0.3,0.1-0.5,0.1l0,0
							C42.3,18.2,42,18,41.8,17.7z"/>
						<path class="st0" d="M25.3,28.2c-0.3,0-0.5-0.1-0.7-0.3c-0.2-0.2-0.3-0.5-0.3-0.7s0.1-0.5,0.3-0.7c0.1-0.1,0.2-0.2,0.3-0.2
							c0.2-0.1,0.4-0.1,0.6-0.1c0.1,0,0.1,0,0.2,0.1c0.1,0,0.1,0.1,0.2,0.1l0.1,0.1c0.2,0.2,0.3,0.5,0.3,0.7s-0.1,0.5-0.3,0.7
							C25.9,28,25.6,28.2,25.3,28.2z"/>
					</g>
					<path class="st0" d="M24.3,51.2c0-0.6,0.5-1,1-1l0,0c0.5,0,1,0.4,1,1l0,0c0,0.5-0.5,1-1,1l0,0C24.8,52.2,24.3,51.7,24.3,51.2z
						 M24.3,45.2c0-0.6,0.5-1,1-1l0,0c0.5,0,1,0.4,1,1l0,0c0,0.5-0.5,1-1,1l0,0C24.8,46.2,24.3,45.7,24.3,45.2z M24.3,39.2
						c0-0.5,0.5-1,1-1l0,0c0.5,0,1,0.5,1,1l0,0c0,0.5-0.5,1-1,1l0,0C24.8,40.2,24.3,39.7,24.3,39.2z M24.3,33.2c0-0.5,0.5-1,1-1l0,0
						c0.5,0,1,0.5,1,1l0,0c0,0.5-0.5,1-1,1l0,0C24.8,34.2,24.3,33.7,24.3,33.2z M24.3,27.2c0-0.5,0.5-1,1-1l0,0c0.5,0,1,0.5,1,1l0,0
						c0,0.5-0.5,1-1,1l0,0C24.8,28.2,24.3,27.7,24.3,27.2z"/>
					<g>
						<path class="st0" d="M79.6,14.8c-0.3,0-0.5-0.1-0.7-0.3s-0.3-0.4-0.3-0.7c0-0.1,0-0.3,0.1-0.4c0-0.1,0.1-0.2,0.2-0.3
							c0.4-0.4,1-0.4,1.4,0c0.1,0.1,0.2,0.2,0.2,0.3s0.1,0.2,0.1,0.4c0,0.3-0.1,0.5-0.3,0.7C80.1,14.7,79.8,14.8,79.6,14.8z"/>
						<path class="st0" d="M96.4,24.7c-0.5-0.3-0.6-0.9-0.4-1.4l0,0c0.3-0.5,0.9-0.6,1.4-0.4l0,0c0.5,0.3,0.6,0.9,0.4,1.4l0,0
							c-0.2,0.3-0.5,0.5-0.9,0.5l0,0C96.7,24.8,96.5,24.8,96.4,24.7z M90.6,21.4c-0.5-0.3-0.6-0.9-0.4-1.4l0,0
							c0.3-0.5,0.9-0.6,1.4-0.4l0,0c0.5,0.3,0.6,0.9,0.4,1.4l0,0c-0.2,0.3-0.5,0.5-0.9,0.5l0,0C90.9,21.5,90.8,21.4,90.6,21.4z
							 M84.8,18c-0.5-0.3-0.6-0.9-0.4-1.4l0,0c0.3-0.5,0.9-0.6,1.4-0.4l0,0c0.5,0.3,0.6,0.9,0.4,1.4l0,0c-0.2,0.3-0.5,0.5-0.9,0.5
							l0,0C85.2,18.2,85,18.1,84.8,18z"/>
						<path class="st0" d="M102.7,28.2c-0.3,0-0.5-0.1-0.7-0.3c-0.2-0.2-0.3-0.5-0.3-0.7s0.1-0.5,0.3-0.7c0.1,0,0.1-0.1,0.1-0.1
							c0.1,0,0.1-0.1,0.2-0.1s0.1,0,0.2-0.1c0.1,0,0.3,0,0.4,0s0.1,0,0.2,0.1s0.2,0.1,0.3,0.2c0.2,0.2,0.3,0.5,0.3,0.7
							c0,0.1,0,0.3-0.1,0.4c0,0.1-0.1,0.2-0.2,0.3C103.2,28,102.9,28.2,102.7,28.2z"/>
					</g>
					<path class="st0" d="M101.7,51.2c0-0.6,0.4-1,1-1l0,0c0.6,0,1,0.4,1,1l0,0c0,0.5-0.4,1-1,1l0,0
						C102.1,52.2,101.7,51.7,101.7,51.2z M101.7,45.2c0-0.6,0.4-1,1-1l0,0c0.6,0,1,0.4,1,1l0,0c0,0.5-0.4,1-1,1l0,0
						C102.1,46.2,101.7,45.7,101.7,45.2z M101.7,39.2c0-0.5,0.4-1,1-1l0,0c0.6,0,1,0.5,1,1l0,0c0,0.5-0.4,1-1,1l0,0
						C102.1,40.2,101.7,39.7,101.7,39.2z M101.7,33.2c0-0.5,0.4-1,1-1l0,0c0.6,0,1,0.5,1,1l0,0c0,0.5-0.4,1-1,1l0,0
						C102.1,34.2,101.7,33.7,101.7,33.2z M101.7,27.2c0-0.5,0.4-1,1-1l0,0c0.6,0,1,0.5,1,1l0,0c0,0.5-0.4,1-1,1l0,0
						C102.1,28.2,101.7,27.7,101.7,27.2z"/>
					<g>
						<path class="st1" d="M48.4,31.9c-0.3,0-0.5-0.1-0.7-0.3c-0.2-0.2-0.3-0.5-0.3-0.7c0-0.1,0-0.1,0-0.2s0-0.1,0.1-0.2
							c0-0.1,0.1-0.1,0.1-0.2s0.1-0.1,0.1-0.2c0.1-0.1,0.2-0.2,0.3-0.2c0.2-0.1,0.4-0.1,0.6-0.1c0.1,0,0.1,0,0.2,0.1
							c0.1,0,0.1,0,0.2,0.1l0.1,0.1c0.2,0.2,0.3,0.4,0.3,0.7c0,0.1,0,0.3-0.1,0.4c0,0.1-0.1,0.2-0.2,0.3c-0.1,0.1-0.2,0.2-0.3,0.2
							C48.7,31.9,48.6,31.9,48.4,31.9z"/>
						<path class="st1" d="M47.4,41.6c0-0.6,0.4-1,1-1l0,0c0.6,0,1,0.4,1,1l0,0c0,0.5-0.4,1-1,1l0,0C47.9,42.6,47.4,42.1,47.4,41.6z
							 M47.4,36.2c0-0.5,0.4-1,1-1l0,0c0.6,0,1,0.5,1,1l0,0c0,0.6-0.4,1-1,1l0,0C47.9,37.3,47.4,36.8,47.4,36.2z"/>
						<path class="st1" d="M48.4,47.9c-0.1,0-0.3,0-0.4-0.1c-0.1,0-0.2-0.1-0.3-0.2c-0.1-0.1-0.2-0.2-0.2-0.3
							c-0.1-0.1-0.1-0.2-0.1-0.4c0-0.1,0-0.1,0-0.2c0-0.1,0-0.1,0.1-0.2c0-0.1,0.1-0.1,0.1-0.2c0,0,0.1-0.1,0.1-0.2l0.1-0.1
							c0.1,0,0.2,0,0.2,0c0.1,0,0.1,0,0.2-0.1c0.2,0,0.4,0,0.6,0.1c0.1,0,0.2,0.1,0.3,0.2c0,0,0.1,0.1,0.1,0.2
							c0,0.1,0.1,0.1,0.1,0.2c0,0.1,0,0.1,0.1,0.2c0,0.1,0,0.1,0,0.2c0,0.1,0,0.3-0.1,0.4c0,0.1-0.1,0.2-0.2,0.3
							c-0.1,0.1-0.2,0.2-0.3,0.2C48.7,47.8,48.6,47.9,48.4,47.9z"/>
					</g>
					<g>
						<path class="st1" d="M79.6,31.9c-0.1,0-0.3,0-0.4-0.1s-0.2-0.1-0.3-0.2c-0.1-0.1-0.2-0.2-0.2-0.3c-0.1-0.1-0.1-0.2-0.1-0.4
							c0-0.3,0.1-0.5,0.3-0.7c0.1,0,0.1-0.1,0.2-0.1c0,0,0.1-0.1,0.2-0.1s0.1,0,0.2-0.1c0.2,0,0.4,0,0.6,0.1c0.1,0,0.2,0.1,0.3,0.2
							c0.2,0.2,0.3,0.4,0.3,0.7c0,0.3-0.1,0.5-0.3,0.7C80.1,31.8,79.8,31.9,79.6,31.9z"/>
						<path class="st1" d="M78.6,41.6c0-0.6,0.5-1,1-1l0,0c0.6,0,1,0.4,1,1l0,0c0,0.5-0.4,1-1,1l0,0C79,42.6,78.6,42.1,78.6,41.6z
							 M78.6,36.2c0-0.5,0.5-1,1-1l0,0c0.6,0,1,0.5,1,1l0,0c0,0.6-0.4,1-1,1l0,0C79,37.3,78.6,36.8,78.6,36.2z"/>
						<path class="st1" d="M79.6,47.9c-0.1,0-0.3,0-0.4-0.1c-0.1,0-0.2-0.1-0.3-0.2c-0.1-0.1-0.2-0.2-0.2-0.3
							c-0.1-0.1-0.1-0.2-0.1-0.4c0-0.1,0-0.1,0-0.2c0-0.1,0-0.1,0.1-0.2c0-0.1,0.1-0.1,0.1-0.2c0,0,0.1-0.1,0.1-0.2
							c0.1-0.1,0.2-0.2,0.3-0.2c0.2-0.1,0.4-0.1,0.6-0.1c0.1,0,0.1,0,0.2,0.1c0.1,0,0.1,0,0.2,0.1l0.1,0.1c0,0,0.1,0.1,0.1,0.2
							c0,0.1,0.1,0.1,0.1,0.2c0,0.1,0,0.1,0.1,0.2c0,0.1,0,0.1,0,0.2c0,0.1,0,0.3-0.1,0.4c-0.1,0.1-0.1,0.2-0.2,0.3
							s-0.2,0.2-0.3,0.2C79.8,47.8,79.7,47.9,79.6,47.9z"/>
					</g>
					<g>
						<g>
							<path class="st2" d="M79.6,13.8L64.5,5.1c-0.3-0.2-0.7-0.2-1,0l-15.1,8.7l15.1,8.7c0.3,0.2,0.7,0.2,1,0L79.6,13.8z"/>
							<path class="st3" d="M64,23.7c-0.3,0-0.7-0.1-1-0.2l-15.1-8.7c-0.3-0.2-0.5-0.5-0.5-0.9s0.2-0.7,0.5-0.9L63,4.2
								c0.6-0.3,1.4-0.3,2,0L80.1,13c0.3,0.2,0.5,0.5,0.5,0.9s-0.2,0.7-0.5,0.9L65,23.4C64.7,23.6,64.3,23.7,64,23.7z M50.4,13.8
								L64,21.7l13.6-7.9L64,6L50.4,13.8z"/>
						</g>
						<g>
							<path class="st3" d="M64,39.8c0.2,0,0.4,0,0.5-0.1L79.6,31V13.8l-15.1,8.7c-0.2,0.1-0.3,0.1-0.5,0.1"/>
							<path class="st3" d="M64,40.8c-0.6,0-1-0.4-1-1s0.4-1,1-1l0,0l14.6-8.4V15.6L65,23.4c-0.3,0.2-0.7,0.3-1,0.3
								c-0.6,0-1-0.4-1-1s0.4-1,1-1L79.1,13c0.3-0.2,0.7-0.2,1,0s0.5,0.5,0.5,0.9V31c0,0.4-0.2,0.7-0.5,0.9L65,40.5
								C64.7,40.7,64.4,40.8,64,40.8z"/>
						</g>
						<g>
							<path class="st4" d="M64,22.7c-0.2,0-0.4,0-0.5-0.1l-15.1-8.7V31l15.1,8.7c0.2,0.1,0.3,0.1,0.5,0.1"/>
							<path class="st3" d="M64,40.8c-0.4,0-0.7-0.1-1-0.3l-15.1-8.7c-0.3-0.2-0.5-0.5-0.5-0.9V13.8c0-0.4,0.2-0.7,0.5-0.9
								s0.7-0.2,1,0L64,21.7c0.6,0,1,0.4,1,1s-0.4,1-1,1c-0.4,0-0.7-0.1-1-0.3l-13.6-7.8v14.8L64,38.8c0.6,0,1,0.4,1,1
								C65,40.3,64.6,40.8,64,40.8z"/>
						</g>
						<path class="st3" d="M64,23.7c-0.3,0-0.7-0.1-1-0.2l-15.1-8.7c-0.3-0.2-0.5-0.5-0.5-0.9s0.2-0.7,0.5-0.9L63,4.2
							c0.6-0.3,1.4-0.3,2,0L80.1,13c0.3,0.2,0.5,0.5,0.5,0.9s-0.2,0.7-0.5,0.9L65,23.4C64.7,23.6,64.3,23.7,64,23.7z M50.4,13.8
							L64,21.7l13.6-7.9L64,6L50.4,13.8z"/>
						<path class="st3" d="M64,40.8c-0.6,0-1-0.4-1-1V22.7c0-0.6,0.4-1,1-1s1,0.4,1,1v17.1C65,40.3,64.6,40.8,64,40.8z"/>
						<path class="st1" d="M64,40.8c-0.3,0-0.7-0.1-1-0.3l-15.1-8.7c-0.3-0.2-0.5-0.5-0.5-0.9V13.8c0-0.4,0.2-0.7,0.5-0.9L63,4.2
							c0.6-0.3,1.4-0.3,2,0l0,0L80.1,13c0.3,0.2,0.5,0.5,0.5,0.9V31c0,0.4-0.2,0.7-0.5,0.9L65,40.5C64.7,40.7,64.3,40.8,64,40.8z
							 M49.4,30.4L64,38.8l14.6-8.4v-16L64,6l-14.6,8.4V30.4z M64,6L64,6L64,6z"/>
					</g>
					<g>
						<g>
							<g>
								<g>
									<g>
										<g>
											<path class="st5" d="M81.1,87.2l-14-8.1c-1.7-1-4.5-1-6.2,0l-14,8.1H25.3v13.5c0,0.7,0.4,1.3,1.3,1.8l34.2,19.8
												c1.7,1,4.5,1,6.2,0l34.2-19.8c0.9-0.5,1.3-1.1,1.3-1.8V87.2H81.1z"/>
											<path class="st6" d="M64,124c-1.3,0-2.6-0.3-3.6-0.9l-34.2-19.8c-1.1-0.7-1.8-1.6-1.8-2.7V87.2c0-0.6,0.4-1,1-1h21.3
												l13.8-7.9c2-1.2,5.2-1.2,7.2,0l13.8,7.9h21.3c0.6,0,1,0.4,1,1v13.5c0,1-0.7,2-1.8,2.7l-34.2,19.8
												C66.6,123.7,65.3,124,64,124z M26.3,88.2v12.5c0,0.3,0.3,0.6,0.8,0.9l34.2,19.8c1.4,0.8,3.8,0.8,5.2,0l34.2-19.8
												c0.5-0.3,0.8-0.6,0.8-0.9V88.2H81.1c-0.2,0-0.3,0-0.5-0.1l-14-8.1c-1.4-0.8-3.8-0.8-5.2,0l-14,8.1
												c-0.2,0.1-0.3,0.1-0.5,0.1H26.3z"/>
										</g>
										<path class="st6" d="M67.1,122.3l34.2-19.8c0.9-0.5,1.3-1.1,1.3-1.8V87.2H81.1l-14-8.1c-0.9-0.5-2-0.7-3.1-0.7V123
											C65.1,123,66.3,122.8,67.1,122.3z"/>
										<path class="st6" d="M48.8,110.1c-0.2,0-0.3,0-0.5-0.1l-10.1-5.8c-0.5-0.3-0.6-0.9-0.4-1.4c0.3-0.5,0.9-0.6,1.4-0.4
											l10.1,5.8c0.5,0.3,0.6,0.9,0.4,1.4C49.5,109.9,49.2,110.1,48.8,110.1z"/>
										<g>
											<path class="st2" d="M101.4,85.4L67.1,65.6c-1.7-1-4.5-1-6.2,0L26.6,85.4c-1.7,1-1.7,2.6,0,3.6l34.2,19.8
												c1.7,1,4.5,1,6.2,0L101.4,89C103.1,88,103.1,86.4,101.4,85.4z"/>
											<path class="st6" d="M64,110.5c-1.3,0-2.6-0.3-3.6-0.9L26.1,89.9c-1.1-0.7-1.8-1.6-1.8-2.7s0.7-2,1.8-2.7l34.2-19.8
												c2-1.2,5.2-1.2,7.2,0l34.2,19.8c1.1,0.7,1.8,1.6,1.8,2.7s-0.7,2-1.8,2.7l-34.2,19.8C66.6,110.2,65.3,110.5,64,110.5z
												 M64,65.9c-1,0-1.9,0.2-2.6,0.6L27.1,86.3c-0.5,0.3-0.8,0.6-0.8,0.9s0.3,0.6,0.8,0.9l34.2,19.8c1.4,0.8,3.8,0.8,5.2,0
												l34.2-19.8c0.5-0.3,0.8-0.6,0.8-0.9s-0.3-0.6-0.8-0.9l0,0L66.6,66.5C65.9,66.1,65,65.9,64,65.9z"/>
										</g>
									</g>
								</g>
								<g>
									<polygon class="st6" points="93.3,107.1 75.3,117.6 75.3,111.3 93.3,100.9 									"/>
									<path class="st5" d="M75.3,118.6c-0.2,0-0.3,0-0.5-0.1c-0.3-0.2-0.5-0.5-0.5-0.9v-6.2c0-0.4,0.2-0.7,0.5-0.9l18-10.5
										c0.3-0.2,0.7-0.2,1,0s0.5,0.5,0.5,0.9v6.2c0,0.4-0.2,0.7-0.5,0.9l-18.1,10.4C75.6,118.5,75.4,118.6,75.3,118.6z
										 M76.3,111.9v3.9l16.1-9.3v-3.9L76.3,111.9z M93.3,107.1L93.3,107.1L93.3,107.1z"/>
								</g>
								<path class="st0" d="M64,124c-1.4,0-2.6-0.3-3.6-0.9l-34.2-19.8c-1.1-0.7-1.8-1.6-1.8-2.7V87.2c0-1,0.7-2,1.8-2.7l34.2-19.8
									c2-1.2,5.2-1.2,7.2,0l34.2,19.8l0,0c1.1,0.7,1.8,1.6,1.8,2.7v13.5c0,1-0.7,2-1.8,2.7l-34.2,19.8C66.6,123.7,65.4,124,64,124
									z M64,65.9c-1,0-1.9,0.2-2.6,0.6L27.1,86.3c-0.5,0.3-0.8,0.6-0.8,0.9v13.5c0,0.3,0.3,0.6,0.8,0.9l34.2,19.8
									c1.3,0.8,3.9,0.8,5.2,0l34.2-19.8c0.5-0.3,0.8-0.6,0.8-0.9V87.2c0-0.3-0.3-0.6-0.8-0.9l0,0L66.6,66.5
									C65.9,66.1,65,65.9,64,65.9z"/>
								<g>
									<ellipse class="st5" cx="93.8" cy="87.2" rx="1.8" ry="1"/>
									<ellipse class="st5" cx="64" cy="104.4" rx="1.8" ry="1"/>
									<ellipse class="st5" cx="64" cy="70" rx="1.8" ry="1"/>
									<ellipse class="st5" cx="34.2" cy="87.2" rx="1.8" ry="1"/>
								</g>
							</g>
						</g>
					</g>
					<g>
						<path class="st2" d="M56.5,51.5l-15.1-8.7c-0.3-0.2-0.7-0.2-1,0l-15.1,8.7l15.1,8.7c0.3,0.2,0.7,0.2,1,0L56.5,51.5z"/>
						<g>
							<path class="st6" d="M40.9,77.5c0.2,0,0.4,0,0.5-0.1l15.1-8.7V51.5l-15.1,8.7c-0.2,0.1-0.3,0.1-0.5,0.1"/>
							<path class="st6" d="M40.9,78.5c-0.6,0-1-0.4-1-1s0.4-1,1-1l0,0l14.6-8.4V53.3l-13.6,7.8c-0.3,0.2-0.7,0.3-1,0.3
								c-0.6,0-1-0.4-1-1s0.4-1,1-1L56,50.7c0.3-0.2,0.7-0.2,1,0s0.5,0.5,0.5,0.9v17.1c0,0.4-0.2,0.7-0.5,0.9l-15.1,8.7
								C41.6,78.4,41.3,78.5,40.9,78.5z"/>
						</g>
						<path class="st5" d="M40.9,60.4c-0.2,0-0.4,0-0.5-0.1l-15.1-8.7v17.1l15.1,8.7c0.2,0.1,0.3,0.1,0.5,0.1"/>
						<path class="st6" d="M40.9,61.4c-0.3,0-0.7-0.1-1-0.2l-15.1-8.7c-0.3-0.2-0.5-0.5-0.5-0.9s0.2-0.7,0.5-0.9L39.9,42
							c0.6-0.3,1.4-0.3,2,0L57,50.7c0.3,0.2,0.5,0.5,0.5,0.9s-0.2,0.7-0.5,0.9l-15.1,8.7C41.6,61.3,41.3,61.4,40.9,61.4z M27.3,51.5
							l13.6,7.9l13.6-7.8l-13.6-7.9L27.3,51.5z"/>
						<path class="st6" d="M40.9,78.5c-0.6,0-1-0.4-1-1V60.4c0-0.6,0.4-1,1-1s1,0.4,1,1v17.1C41.9,78,41.5,78.5,40.9,78.5z"/>
						<path class="st0" d="M40.9,78.5c-0.3,0-0.7-0.1-1-0.3l-15.1-8.7c-0.3-0.2-0.5-0.5-0.5-0.9V51.5c0-0.4,0.2-0.7,0.5-0.9L39.9,42
							c0.6-0.3,1.4-0.3,2,0l0,0L57,50.7c0.3,0.2,0.5,0.5,0.5,0.9v17.1c0,0.4-0.2,0.7-0.5,0.9l-15.1,8.7
							C41.6,78.4,41.3,78.5,40.9,78.5z M26.3,68.1l14.6,8.4l14.6-8.4v-16l-14.6-8.4l-14.6,8.4C26.3,52.1,26.3,68.1,26.3,68.1z
							 M40.9,43.7L40.9,43.7L40.9,43.7z"/>
					</g>
					<g>
						<path class="st2" d="M102.7,51.5l-15.1-8.7c-0.3-0.2-0.7-0.2-1,0l-15.1,8.7l15.1,8.7c0.3,0.2,0.7,0.2,1,0L102.7,51.5z"/>
						<g>
							<path class="st6" d="M87.1,77.5c0.2,0,0.4,0,0.5-0.1l15.1-8.7V51.5l-15.1,8.7c-0.2,0.1-0.3,0.1-0.5,0.1"/>
							<path class="st6" d="M87.1,78.5c-0.6,0-1-0.4-1-1s0.4-1,1-1l0,0l14.6-8.4V53.3l-13.6,7.8c-0.3,0.2-0.7,0.3-1,0.3
								c-0.6,0-1-0.4-1-1s0.4-1,1-1l15.1-8.7c0.3-0.2,0.7-0.2,1,0s0.5,0.5,0.5,0.9v17.1c0,0.4-0.2,0.7-0.5,0.9l-15.1,8.7
								C87.8,78.4,87.4,78.5,87.1,78.5z"/>
						</g>
						<path class="st5" d="M87.1,60.4c-0.2,0-0.4,0-0.5-0.1l-15.1-8.7v17.1l15.1,8.7c0.2,0.1,0.3,0.1,0.5,0.1"/>
						<path class="st6" d="M87.1,61.4c-0.3,0-0.7-0.1-1-0.2L71,52.4c-0.3-0.2-0.5-0.5-0.5-0.9s0.2-0.7,0.5-0.9L86.1,42
							c0.6-0.3,1.4-0.3,2,0l15.1,8.7c0.3,0.2,0.5,0.5,0.5,0.9s-0.2,0.7-0.5,0.9l-15.1,8.7C87.8,61.3,87.4,61.4,87.1,61.4z
							 M73.5,51.5l13.6,7.9l13.6-7.8l-13.6-7.9L73.5,51.5z"/>
						<path class="st6" d="M87.1,78.5c-0.6,0-1-0.4-1-1V60.4c0-0.6,0.4-1,1-1s1,0.4,1,1v17.1C88.1,78,87.6,78.5,87.1,78.5z"/>
						<path class="st0" d="M87.1,78.5c-0.3,0-0.7-0.1-1-0.3L71,69.5c-0.3-0.2-0.5-0.5-0.5-0.9V51.5c0-0.4,0.2-0.7,0.5-0.9L86.1,42
							c0.6-0.3,1.4-0.3,2,0l15.1,8.7c0.3,0.2,0.5,0.5,0.5,0.9v17.1c0,0.4-0.2,0.7-0.5,0.9l-15.1,8.7C87.8,78.4,87.4,78.5,87.1,78.5z
							 M72.5,68.1l14.6,8.4l14.6-8.4v-16l-14.6-8.4l-14.6,8.4V68.1z"/>
					</g>
					<g>
						<path class="st2" d="M79.6,64.5l-15.1-8.7c-0.3-0.2-0.7-0.2-1,0l-15.1,8.7l15.1,8.7c0.3,0.2,0.7,0.2,1,0L79.6,64.5z"/>
						<g>
							<path class="st6" d="M64,90.4c0.2,0,0.4,0,0.5-0.1l15.1-8.7V64.5l-15.1,8.7c-0.2,0.1-0.3,0.1-0.5,0.1"/>
							<path class="st6" d="M64,91.4c-0.6,0-1-0.4-1-1s0.4-1,1-1l0,0L78.6,81V66.2L65,74c-0.3,0.2-0.7,0.3-1,0.3c-0.6,0-1-0.4-1-1
								s0.4-1,1-1l15.1-8.7c0.3-0.2,0.7-0.2,1,0s0.5,0.5,0.5,0.9v17.1c0,0.4-0.2,0.7-0.5,0.9L65,91.2C64.7,91.3,64.4,91.4,64,91.4z"
								/>
						</g>
						<path class="st5" d="M64,73.3c-0.2,0-0.4,0-0.5-0.1l-15.1-8.7v17.1l15.1,8.7c0.2,0.1,0.3,0.1,0.5,0.1"/>
						<path class="st6" d="M64,74.3c-0.3,0-0.7-0.1-1-0.2l-15.1-8.7c-0.3-0.2-0.5-0.5-0.5-0.9s0.2-0.7,0.5-0.9L63,54.9
							c0.6-0.3,1.4-0.3,2,0l15.1,8.7c0.3,0.2,0.5,0.5,0.5,0.9s-0.2,0.7-0.5,0.9L65,74.1C64.7,74.2,64.3,74.3,64,74.3z M50.4,64.5
							L64,72.3l13.6-7.8L64,56.6L50.4,64.5z"/>
						<path class="st6" d="M64,91.4c-0.6,0-1-0.4-1-1V73.3c0-0.6,0.4-1,1-1s1,0.4,1,1v17.1C65,91,64.6,91.4,64,91.4z"/>
						<path class="st0" d="M64,91.4c-0.3,0-0.7-0.1-1-0.3l-15.1-8.7c-0.3-0.2-0.5-0.5-0.5-0.9v-17c0-0.4,0.2-0.7,0.5-0.9L63,54.9
							c0.6-0.3,1.4-0.3,2,0l0,0l15.1,8.7c0.3,0.2,0.5,0.5,0.5,0.9v17.1c0,0.4-0.2,0.7-0.5,0.9L65,91.2C64.7,91.3,64.3,91.4,64,91.4z
							 M49.4,81L64,89.4L78.6,81V65L64,56.7l-14.6,8.4V81z"/>
					</g>
				</g>
				<rect x="4" y="4" class="st7" width="120" height="120"/>
				<rect x="4" y="4" class="st7" width="120" height="120"/>
			</g>
		</g>
	</g>
	<g>
		<rect class="st7" width="128" height="128"/>
	</g>
</g>
</svg>
