<?xml version="1.0" encoding="utf-8"?>
<!-- Generator: Adobe Illustrator 24.1.0, SVG Export Plug-In . SVG Version: 6.00 Build 0)  -->
<svg version="1.1" id="Layer_1" xmlns="http://www.w3.org/2000/svg" xmlns:xlink="http://www.w3.org/1999/xlink" x="0px" y="0px"
	 viewBox="0 0 128 128" style="enable-background:new 0 0 128 128;" xml:space="preserve">
<style type="text/css">
	.st0{fill:#FFFFFF;}
	.st1{fill:#4D9987;}
	.st2{fill:#E9EBDF;}
	.st3{fill:#0E352C;}
	.st4{fill:#C4D7D3;}
	.st5{fill:#27ae60;}
	.st6{fill:#185849;}
	.st7{fill:none;}
</style>
<g id="Layer_1_1_">
</g>
<g>
	<g id="Layer_2_1_">
		<g id="New_Icon_Set_1_">
			<g>
				<g>
					<g>
						<g>
							<g>
								<g>
									<g>
										<path class="st0" d="M82.4,12.4l-6.9-4l0,0c-0.2-0.1-0.4-0.1-0.6,0L17.2,41.8c-0.6,0.3-1,1.2-1,1.9v56
											c0,0.4,0.1,0.7,0.3,0.8l0,0l6.9,4l5.8-10.9L75,62.7c0.6-0.3,1-1.2,1-1.9V21.1L82.4,12.4z"/>
										<path class="st1" d="M23.4,105.5c-0.2,0-0.3,0-0.5-0.1l-6.9-4c-0.1,0-0.1-0.1-0.2-0.1c-0.4-0.3-0.7-0.9-0.7-1.6v-56
											c0-1.1,0.6-2.3,1.5-2.8L74.4,7.6c0.5-0.3,1-0.3,1.5-0.1c0.1,0,0.1,0,0.2,0.1l6.9,4c0.2,0.1,0.4,0.4,0.5,0.7s0,0.6-0.2,0.8
											L77,21.5v39.3c0,1.1-0.6,2.3-1.5,2.8L29.9,94.3L24.3,105c-0.1,0.2-0.3,0.4-0.6,0.5C23.6,105.5,23.5,105.5,23.4,105.5z
											 M17.2,99.8l5.8,3.4l5.3-10c0.1-0.1,0.2-0.3,0.3-0.4l45.8-30.9c0.3-0.2,0.6-0.6,0.6-1.1V21.1c0-0.2,0.1-0.4,0.2-0.6
											l5.8-7.8l-5.7-3.3L17.7,42.7c-0.2,0.1-0.5,0.6-0.5,1V99.8L17.2,99.8z M17,99.7L17,99.7L17,99.7z"/>
									</g>
									<path class="st2" d="M23,104.3V38.5l-5.9,3.4c-0.6,0.3-1,1.2-1,1.9v56c0,0.4,0.1,0.7,0.3,0.8l0,0L23,104.3z"/>
									<g>
										<path class="st1" d="M55,74.2l19.9-11.5c0.6-0.3,1-1.2,1-1.9V21.1l6.5-8.7l-6.9-4l0,0c-0.2-0.1-0.4-0.1-0.6,0L17.2,41.8
											c-0.6,0.3-1,1.2-1,1.9v8L55,74.2z"/>
										<path class="st3" d="M55,75.2c-0.2,0-0.3,0-0.5-0.1L15.7,52.6c-0.3-0.2-0.5-0.5-0.5-0.9v-8c0-1.1,0.6-2.3,1.5-2.8
											L74.4,7.6c0.5-0.3,1-0.3,1.5-0.1c0.1,0,0.1,0,0.2,0.1l6.9,4c0.2,0.1,0.4,0.4,0.5,0.7s0,0.6-0.2,0.8L77,21.5v39.3
											c0,1.1-0.6,2.3-1.5,2.8L55.5,75C55.4,75.1,55.2,75.2,55,75.2z M17.2,51.2L55,73l19.4-11.2c0.2-0.1,0.5-0.6,0.5-1V21.1
											c0-0.2,0.1-0.4,0.2-0.6l5.8-7.8l-5.7-3.3L17.7,42.7c-0.2,0.1-0.5,0.6-0.5,1V51.2z"/>
									</g>
									<path class="st2" d="M56.9,67.2l19-26.6V21.1l6.5-8.7l-6.9-4l0,0c-0.2-0.1-0.4-0.1-0.6,0L17.2,41.8c-0.6,0.3-1,1.2-1,1.9
										l0,0L56.9,67.2z"/>
									<g>
										<path class="st0" d="M81.8,71.2L24,104.5c-0.6,0.3-1,0-1-0.8v-56c0-0.7,0.4-1.6,1-1.9l57.7-33.3c0.6-0.3,1,0,1,0.8v56
											C82.7,70,82.3,70.8,81.8,71.2z"/>
										<path class="st1" d="M23.6,105.6c-0.3,0-0.5-0.1-0.8-0.2c-0.5-0.3-0.8-0.9-0.8-1.7v-56c0-1.1,0.6-2.3,1.5-2.8l57.7-33.3
											c0.6-0.3,1.2-0.3,1.7-0.1c0.5,0.3,0.8,0.9,0.8,1.7v56c0,1.1-0.6,2.3-1.5,2.8l0,0l-57.7,33.3
											C24.2,105.5,23.9,105.6,23.6,105.6z M81.7,13.6l-57.2,33c-0.2,0.1-0.5,0.6-0.5,1v55.6l57.2-33c0.2-0.1,0.5-0.6,0.5-1V13.6
											z M81.8,71.2L81.8,71.2L81.8,71.2z"/>
									</g>
									<path class="st3" d="M23.6,105.6c-0.2,0-0.4,0-0.6-0.1c-0.1,0-0.1,0-0.2-0.1l-6.9-4c-0.1,0-0.1-0.1-0.2-0.1
										c-0.4-0.3-0.7-0.9-0.7-1.6v-56c0-1.1,0.6-2.3,1.5-2.8L74.4,7.6c0.5-0.3,1-0.3,1.5-0.1c0.1,0,0.1,0,0.2,0.1l6.9,4
										c0.1,0,0.1,0.1,0.2,0.1c0.4,0.3,0.7,0.9,0.7,1.6v56c0,1.1-0.6,2.3-1.5,2.8l-57.7,33.3C24.2,105.5,23.9,105.6,23.6,105.6z
										 M17.2,99.8l6.5,3.7l57.6-33.3c0.2-0.1,0.5-0.6,0.5-1v-56l0,0l-6.5-3.7L17.7,42.7c-0.2,0.1-0.5,0.6-0.5,1V99.8L17.2,99.8z
										 M17,99.7L17,99.7L17,99.7z M81.9,13.3L81.9,13.3L81.9,13.3z"/>
									<g>
										<path class="st3" d="M82.7,21.2v-8c0-0.7-0.4-1.1-1-0.8L24,45.8c-0.6,0.3-1,1.2-1,1.9v8L82.7,21.2z"/>
										<path class="st3" d="M23,56.7c-0.2,0-0.3,0-0.5-0.1c-0.3-0.2-0.5-0.5-0.5-0.9v-8c0-1.1,0.6-2.3,1.5-2.8l57.7-33.3
											c0.6-0.3,1.2-0.3,1.7-0.1c0.5,0.3,0.8,0.9,0.8,1.7v8c0,0.4-0.2,0.7-0.5,0.9L23.5,56.6C23.4,56.7,23.2,56.7,23,56.7z
											 M81.7,13.6l-57.2,33c-0.2,0.1-0.5,0.6-0.5,1V54l57.7-33.3V13.6z M82.7,21.2L82.7,21.2L82.7,21.2z"/>
									</g>
									<g>
										
											<ellipse transform="matrix(0.3916 -0.9201 0.9201 0.3916 -22.7095 57.5792)" class="st2" cx="32.2" cy="46" rx="1.7" ry="1"/>
										
											<ellipse transform="matrix(0.3916 -0.9201 0.9201 0.3916 -17.8053 60.061)" class="st0" cx="36.5" cy="43.5" rx="1.7" ry="1"/>
										
											<ellipse transform="matrix(0.3916 -0.9201 0.9201 0.3916 -27.9488 55.0216)" class="st1" cx="27.6" cy="48.6" rx="1.7" ry="1"/>
									</g>
								</g>
								<g>
									<path class="st4" d="M52.6,75.5L52.6,75.5c2.2-4.1,3.5-8.9,3.5-13.3c0-8.8-5.4-12.9-12-9.1v16L52.6,75.5z"/>
									<path class="st5" d="M52.6,76.5c-0.2,0-0.4-0.1-0.6-0.2l-8.5-6.4c-0.3-0.2-0.4-0.5-0.4-0.8v-16c0-0.4,0.2-0.7,0.5-0.9
										c3.2-1.9,6.4-2.1,8.9-0.6c3,1.7,4.6,5.6,4.6,10.6c0,4.4-1.3,9.3-3.6,13.8c-0.1,0.3-0.4,0.4-0.7,0.5
										C52.8,76.5,52.7,76.5,52.6,76.5z M45.2,68.6l7.1,5.4c1.9-3.9,2.9-8,2.9-11.8c0-4.3-1.3-7.5-3.6-8.8c-1.7-1-4-0.9-6.4,0.4
										V68.6z"/>
								</g>
								<path class="st6" d="M39.4,87.5c-1.3,0-2.5-0.3-3.6-0.9c-3-1.7-4.6-5.6-4.6-10.6c0-9.1,5.6-19.8,12.5-23.8
									c3.2-1.9,6.4-2.1,8.9-0.6c3,1.7,4.6,5.6,4.6,10.6c0,9.1-5.6,19.8-12.5,23.8C42.8,87,41.1,87.5,39.4,87.5z M48.9,52.6
									c-1.3,0-2.8,0.4-4.3,1.3C38.3,57.6,33.2,67.5,33.2,76c0,4.3,1.3,7.5,3.6,8.8c1.9,1.1,4.3,0.8,6.9-0.6
									c6.3-3.7,11.5-13.6,11.5-22.1c0-4.3-1.3-7.5-3.6-8.8C50.7,52.8,49.9,52.6,48.9,52.6z"/>
								<path class="st6" d="M39.4,87.5c-1.3,0-2.5-0.3-3.6-0.9c-3-1.7-4.6-5.6-4.6-10.6c0-9.1,5.6-19.8,12.5-23.8
									c3.2-1.9,6.4-2.1,8.9-0.6c3,1.7,4.6,5.6,4.6,10.6c0,9.1-5.6,19.8-12.5,23.8C42.8,87,41.1,87.5,39.4,87.5z M48.9,52.6
									c-1.3,0-2.8,0.4-4.3,1.3C38.3,57.6,33.2,67.5,33.2,76c0,4.3,1.3,7.5,3.6,8.8c1.9,1.1,4.3,0.8,6.9-0.6
									c6.3-3.7,11.5-13.6,11.5-22.1c0-4.3-1.3-7.5-3.6-8.8C50.7,52.8,49.9,52.6,48.9,52.6z"/>
								<path class="st1" d="M64.2,58.5c-0.3,0-0.7-0.2-0.9-0.5c-0.3-0.5-0.1-1.1,0.4-1.4l10.2-5.9c0.5-0.3,1.1-0.1,1.4,0.4
									s0.1,1.1-0.4,1.4l-10.2,5.9C64.5,58.5,64.3,58.5,64.2,58.5z"/>
								<path class="st1" d="M64.2,65.5c-0.3,0-0.7-0.2-0.9-0.5c-0.3-0.5-0.1-1.1,0.4-1.4l10.2-5.9c0.5-0.3,1.1-0.1,1.4,0.4
									s0.1,1.1-0.4,1.4l-10.2,5.9C64.5,65.5,64.3,65.5,64.2,65.5z"/>
								<path class="st1" d="M64.2,72.5c-0.3,0-0.7-0.2-0.9-0.5c-0.3-0.5-0.1-1.1,0.4-1.4l10.2-5.9c0.5-0.3,1.1-0.1,1.4,0.4
									s0.1,1.1-0.4,1.4l-10.2,5.9C64.5,72.5,64.3,72.5,64.2,72.5z"/>
							</g>
						</g>
						<g>
							<path class="st4" d="M106.9,92.3c-0.1,0-0.2-0.1-0.2-0.1c-6.9-4-18.2-4-25.2,0c-0.1,0-0.2,0.1-0.2,0.1h-5v5.9
								c0,2.6,1.7,5.3,5.2,7.3c6.9,4,18.2,4,25.2,0c3.5-2,5.2-4.6,5.2-7.3v-5.9H106.9z"/>
							<path class="st5" d="M106.6,105.5c3.5-2,5.2-4.6,5.2-7.3v-5.9h-5c-0.1,0-0.2-0.1-0.2-0.1c-3.5-2-8-3-12.6-3v19.4
								C98.6,108.5,103.2,107.5,106.6,105.5z"/>
							<ellipse class="st4" cx="94" cy="92.3" rx="17.8" ry="10.3"/>
							<path class="st0" d="M94,103.5c-4.7,0-9.5-1-13.1-3.1c-3.7-2.1-5.7-5-5.7-8.1s2-6,5.7-8.1c7.2-4.2,18.9-4.2,26.2,0l0,0
								c3.7,2.1,5.7,5,5.7,8.1s-2,6-5.7,8.1C103.5,102.5,98.8,103.5,94,103.5z M94,83c-4.4,0-8.7,1-12.1,2.9c-3,1.8-4.7,4-4.7,6.4
								s1.7,4.6,4.7,6.4c6.7,3.8,17.5,3.8,24.2,0c3-1.8,4.7-4,4.7-6.4s-1.7-4.6-4.7-6.4C102.8,83.9,98.4,83,94,83z"/>
							<ellipse class="st7" cx="94" cy="98.2" rx="17.8" ry="10.3"/>
							<path class="st6" d="M94,109.5c-4.9,0-9.6-1.1-13.1-3.1c-3.7-2.1-5.7-5-5.7-8.1v-5.9c0-3.1,2-6,5.7-8.1
								c7.2-4.2,18.9-4.2,26.2,0c3.7,2.1,5.7,5,5.7,8.1v5.9c0,1.2-0.3,2.3-0.8,3.4c-0.9,1.8-2.6,3.4-4.9,4.7c-1.8,1-3.9,1.8-6.2,2.4
								c-0.6,0.1-1.1,0.2-1.7,0.3c-1.1,0.2-2.3,0.3-3.5,0.4C95.2,109.4,94.6,109.5,94,109.5z M94,83c-4.4,0-8.7,1-12.1,2.9
								c-3,1.8-4.7,4-4.7,6.4v5.9c0,2.4,1.7,4.6,4.7,6.4c3.6,2.1,8.6,3.1,13.7,2.8c1.1-0.1,2.2-0.2,3.2-0.4c0.5-0.1,1.1-0.2,1.6-0.3
								c2.1-0.5,4-1.2,5.6-2.1c1.9-1.1,3.3-2.5,4.1-3.9c0.4-0.8,0.6-1.6,0.6-2.5v-5.9c0-2.4-1.7-4.6-4.7-6.4
								C102.8,83.9,98.4,83,94,83z"/>
							<path class="st5" d="M100.9,95.1l1.9,1.1l-1.7,1l-1.8-1.1c-0.9,0.5-1.8,0.8-2.8,1.1c-1,0.3-1.9,0.5-2.7,0.5L92.7,96
								c0.7-0.1,1.5-0.2,2.3-0.4c0.8-0.2,1.5-0.5,2.2-0.8l-2.8-1.6c-1,0.4-1.9,0.6-2.6,0.8c-0.8,0.2-1.6,0.2-2.4,0.2
								c-0.8-0.1-1.6-0.3-2.4-0.7c-0.9-0.5-1.4-1.2-1.4-2s0.6-1.6,1.7-2.4l-2-1.1l1.7-1l1.8,1.1c1.5-0.7,3-1.2,4.4-1.4l1.2,1.7
								c-1.3,0.2-2.5,0.5-3.4,1l2.9,1.7c1-0.4,1.8-0.6,2.6-0.8c0.8-0.2,1.6-0.2,2.4-0.2c0.8,0.1,1.6,0.3,2.4,0.7
								c0.9,0.5,1.4,1.2,1.4,2C102.6,93.5,102,94.3,100.9,95.1z M90.4,92.1c0.4,0,0.9-0.1,1.4-0.3l-2.4-1.4
								c-0.3,0.3-0.5,0.6-0.5,0.8c0,0.2,0.2,0.5,0.5,0.6C89.7,92,90,92.1,90.4,92.1 M96.4,92.5l2.3,1.3c0.3-0.3,0.5-0.5,0.5-0.8
								c0-0.2-0.1-0.4-0.4-0.6s-0.6-0.2-1-0.2C97.4,92.3,96.9,92.4,96.4,92.5"/>
						</g>
						<g>
							<path class="st4" d="M81.7,106.8c-0.1,0-0.2-0.1-0.2-0.1c-6.9-4-18.2-4-25.2,0c-0.1,0-0.2,0.1-0.2,0.1h-5v5.9
								c0,2.6,1.7,5.3,5.2,7.3c6.9,4,18.2,4,25.2,0c3.5-2,5.2-4.6,5.2-7.3v-5.9H81.7z"/>
							<path class="st5" d="M81.5,120c3.5-2,5.2-4.6,5.2-7.3v-5.9h-5c-0.1,0-0.2-0.1-0.2-0.1c-3.5-2-8-3-12.6-3V123
								C73.4,123,78,122,81.5,120z"/>
							<ellipse class="st4" cx="68.9" cy="106.8" rx="17.8" ry="10.3"/>
							<path class="st0" d="M68.9,118.1c-4.7,0-9.5-1-13.1-3.1c-3.7-2.1-5.7-5-5.7-8.1s2-6,5.7-8.1c7.2-4.2,18.9-4.2,26.2,0l0,0
								c3.7,2.1,5.7,5,5.7,8.1s-2,6-5.7,8.1C78.3,117,73.6,118.1,68.9,118.1z M68.9,97.5c-4.4,0-8.8,1-12.1,2.9
								c-3,1.8-4.7,4-4.7,6.4s1.7,4.6,4.7,6.4c6.7,3.8,17.5,3.8,24.2,0c3-1.8,4.7-4,4.7-6.4s-1.7-4.6-4.7-6.4
								C77.6,98.5,73.2,97.5,68.9,97.5z"/>
							<ellipse class="st7" cx="68.9" cy="112.7" rx="17.8" ry="10.3"/>
							<path class="st6" d="M68.9,124c-4.9,0-9.6-1.1-13.1-3.1c-3.7-2.1-5.7-5-5.7-8.1v-5.9c0-3.1,2-6,5.7-8.1
								c7.2-4.2,18.9-4.2,26.2,0c3.7,2.1,5.7,5,5.7,8.1v5.9c0,1.2-0.3,2.3-0.8,3.4c-0.9,1.8-2.6,3.4-4.9,4.7c-1.8,1-3.9,1.8-6.2,2.4
								c-0.6,0.1-1.1,0.2-1.7,0.3c-1.1,0.2-2.3,0.3-3.5,0.4C70,124,69.5,124,68.9,124z M68.9,97.5c-4.4,0-8.7,1-12.1,2.9
								c-3,1.8-4.7,4-4.7,6.4v5.9c0,2.4,1.7,4.6,4.7,6.4c3.2,1.9,7.5,2.9,12.1,2.9c0.5,0,1.1,0,1.6,0c1.1-0.1,2.2-0.2,3.2-0.4
								c0.5-0.1,1.1-0.2,1.6-0.3c2.1-0.5,4-1.2,5.6-2.1c1.9-1.1,3.3-2.5,4.1-3.9c0.4-0.8,0.6-1.6,0.6-2.5v-5.9
								c0-2.4-1.7-4.6-4.7-6.4C77.6,98.5,73.2,97.5,68.9,97.5z"/>
							<path class="st5" d="M75.8,109.7l1.9,1.1l-1.7,1l-1.8-1.1c-0.9,0.5-1.8,0.8-2.8,1.1c-1,0.3-1.9,0.5-2.7,0.5l-1.1-1.7
								c0.7-0.1,1.5-0.2,2.3-0.4c0.8-0.2,1.5-0.5,2.2-0.8l-2.8-1.6c-1,0.4-1.9,0.6-2.6,0.8c-0.8,0.2-1.6,0.2-2.4,0.2
								c-0.8-0.1-1.6-0.3-2.4-0.7c-0.9-0.5-1.4-1.2-1.4-2s0.6-1.6,1.7-2.4l-1.9-1.1l1.7-1l1.8,1.1c1.5-0.7,3-1.2,4.4-1.4l1.2,1.7
								c-1.3,0.2-2.5,0.5-3.4,1l2.9,1.7c1-0.4,1.8-0.6,2.6-0.8c0.8-0.2,1.6-0.2,2.4-0.2c0.8,0.1,1.6,0.3,2.4,0.7
								c0.9,0.5,1.4,1.2,1.4,2C77.4,108,76.9,108.8,75.8,109.7z M65.2,106.6c0.4,0,0.9-0.1,1.4-0.3l-2.4-1.4
								c-0.3,0.3-0.5,0.6-0.5,0.8c0,0.2,0.2,0.5,0.5,0.6C64.5,106.6,64.8,106.6,65.2,106.6 M71.2,107l2.3,1.3
								c0.3-0.3,0.5-0.5,0.5-0.8c0-0.2-0.1-0.4-0.4-0.6s-0.6-0.2-1-0.2C72.2,106.8,71.7,106.9,71.2,107"/>
						</g>
						<g>
							<path class="st4" d="M81.7,100.9c-0.1,0-0.2-0.1-0.2-0.1c-6.9-4-18.2-4-25.2,0c-0.1,0-0.2,0.1-0.2,0.1h-5v5.9
								c0,2.6,1.7,5.3,5.2,7.3c6.9,4,18.2,4,25.2,0c3.5-2,5.2-4.6,5.2-7.3v-5.9H81.7z"/>
							<path class="st5" d="M81.5,114.1c3.5-2,5.2-4.6,5.2-7.3v-5.9h-5c-0.1,0-0.2-0.1-0.2-0.1c-3.5-2-8-3-12.6-3v19.4
								C73.4,117.1,78,116.1,81.5,114.1z"/>
							<ellipse class="st4" cx="68.9" cy="100.9" rx="17.8" ry="10.3"/>
							<path class="st0" d="M68.9,112.1c-4.7,0-9.5-1-13.1-3.1c-3.7-2.1-5.7-5-5.7-8.1s2-6,5.7-8.1c7.2-4.2,18.9-4.2,26.2,0l0,0
								c3.7,2.1,5.7,5,5.7,8.1s-2,6-5.7,8.1S73.6,112.1,68.9,112.1z M68.9,91.6c-4.4,0-8.8,1-12.1,2.9c-3,1.8-4.7,4-4.7,6.4
								s1.7,4.6,4.7,6.4c6.7,3.8,17.5,3.8,24.2,0c3-1.8,4.7-4,4.7-6.4S84,96.3,81,94.5C77.6,92.5,73.2,91.6,68.9,91.6z"/>
							<ellipse class="st7" cx="68.9" cy="106.8" rx="17.8" ry="10.3"/>
							<path class="st6" d="M68.9,118.1c-4.9,0-9.6-1.1-13.1-3.1c-3.7-2.1-5.7-5-5.7-8.1V101c0-3.1,2-6,5.7-8.1
								c7.2-4.2,18.9-4.2,26.2,0c3.7,2.1,5.7,5,5.7,8.1v5.9c0,1.2-0.3,2.3-0.8,3.4c-0.9,1.8-2.6,3.4-4.9,4.7c-1.8,1-3.9,1.8-6.2,2.4
								c-0.6,0.1-1.1,0.2-1.7,0.3c-1.1,0.2-2.3,0.3-3.5,0.4C70,118.1,69.5,118.1,68.9,118.1z M68.9,91.6c-4.4,0-8.7,1-12.1,2.9
								c-3,1.8-4.7,4-4.7,6.4v5.9c0,2.4,1.7,4.6,4.7,6.4c3.6,2.1,8.6,3.1,13.7,2.8c1.1-0.1,2.2-0.2,3.2-0.4c0.5-0.1,1.1-0.2,1.6-0.3
								c2.1-0.5,4-1.2,5.6-2.1c1.9-1.1,3.3-2.5,4.1-3.9c0.4-0.8,0.6-1.6,0.6-2.5v-5.9c0-2.4-1.7-4.6-4.7-6.4
								C77.6,92.5,73.2,91.6,68.9,91.6z"/>
							<path class="st5" d="M75.8,103.7l1.9,1.1l-1.7,1l-1.8-1.1c-0.9,0.5-1.8,0.8-2.8,1.1c-1,0.3-1.9,0.5-2.7,0.5l-1.1-1.7
								c0.7-0.1,1.5-0.2,2.3-0.4c0.8-0.2,1.5-0.5,2.2-0.8l-2.8-1.6c-1,0.4-1.9,0.6-2.6,0.8c-0.8,0.2-1.6,0.2-2.4,0.2
								c-0.8-0.1-1.6-0.3-2.4-0.7c-0.9-0.5-1.4-1.2-1.4-2s0.6-1.6,1.7-2.4l-1.9-1.1l1.7-1l1.8,1.1c1.5-0.7,3-1.2,4.4-1.4l1.2,1.7
								c-1.3,0.2-2.5,0.5-3.4,1l2.9,1.7c1-0.4,1.8-0.6,2.6-0.8c0.8-0.2,1.6-0.2,2.4-0.2c0.8,0.1,1.6,0.3,2.4,0.7
								c0.9,0.5,1.4,1.2,1.4,2C77.4,102.1,76.9,102.9,75.8,103.7z M65.2,100.7c0.4,0,0.9-0.1,1.4-0.3L64.2,99
								c-0.3,0.3-0.5,0.6-0.5,0.8c0,0.2,0.2,0.5,0.5,0.6C64.5,100.6,64.8,100.7,65.2,100.7 M71.2,101.1l2.3,1.3
								c0.3-0.3,0.5-0.5,0.5-0.8c0-0.2-0.1-0.4-0.4-0.6s-0.6-0.2-1-0.2C72.2,100.9,71.7,101,71.2,101.1"/>
						</g>
					</g>
					<g>
						<g>
							<g>
								<g>
									<path class="st4" d="M102.4,9.3l-5.9-3.4l0,0c-2.5-1.4-5.7-1.3-9.2,0.7c-7.8,4.5-14.1,16.6-14.1,27c0,5.7,1.9,9.7,4.9,11.4
										l0,0l5.9,3.4l1.8-3.8c0.4-0.2,0.8-0.4,1.2-0.6c7.8-4.5,14.1-16.6,14.1-27c0-1.5-0.1-2.8-0.4-4L102.4,9.3z"/>
									<path class="st5" d="M83.9,49.5c-0.2,0-0.3,0-0.5-0.1L77.5,46c-0.1,0-0.1-0.1-0.2-0.1c-3.3-2-5.2-6.4-5.2-12.2
										c0-10.7,6.6-23.2,14.6-27.9c3.6-2.1,7.2-2.4,10.1-0.8c0.1,0,0.1,0,0.2,0.1l5.9,3.4c0.5,0.3,0.6,0.8,0.4,1.3l-1.6,3.5
										c0.2,1.2,0.3,2.6,0.3,3.9c0,10.7-6.6,23.2-14.6,27.9c-0.3,0.2-0.6,0.3-0.9,0.5l-1.6,3.5c-0.1,0.3-0.3,0.4-0.6,0.5
										C84.1,49.5,84,49.5,83.9,49.5z M78.7,44.3l4.8,2.8l1.3-2.8c0.1-0.2,0.3-0.4,0.5-0.5c0.4-0.2,0.7-0.3,1.1-0.6
										c7.5-4.3,13.6-16.1,13.6-26.1c0-1.3-0.1-2.6-0.4-3.8c0-0.2,0-0.4,0.1-0.6l1.4-2.9L96.2,7c-0.1,0-0.1,0-0.2-0.1
										c-2.2-1.3-5.2-1-8.2,0.7c-7.5,4.3-13.6,16.1-13.6,26.1C74.2,38.8,75.8,42.6,78.7,44.3C78.6,44.3,78.6,44.3,78.7,44.3z"/>
								</g>
								<path class="st0" d="M96.5,5.9L96.5,5.9c-2.5-1.4-5.7-1.3-9.2,0.7c-4.3,2.5-8.1,7.2-10.7,12.7l20.9,12.1
									c2.1-4.5,3.5-9.6,3.5-14.3c0-1.5-0.1-2.8-0.4-4l1.8-3.8L96.5,5.9z"/>
								<g>
									
										<ellipse transform="matrix(0.3916 -0.9201 0.9201 0.3916 30.0083 103.288)" class="st5" cx="93.1" cy="29" rx="21.7" ry="12.3"/>
									<path class="st0" d="M87.5,50.5c-1.5,0-2.9-0.4-4.1-1.1c-3.4-2-5.4-6.5-5.4-12.3c0-10.7,6.6-23.2,14.6-27.9
										c3.7-2.1,7.4-2.4,10.2-0.7c3.4,2,5.4,6.5,5.4,12.3c0,10.7-6.6,23.2-14.6,27.9C91.5,49.8,89.5,50.5,87.5,50.5z M98.8,9.4
										c-1.6,0-3.3,0.5-5.1,1.6C86.1,15.3,80,27,80,37.1c0,5.1,1.6,9,4.4,10.6c2.2,1.3,5.2,1,8.2-0.7c7.5-4.3,13.6-16.1,13.6-26.1
										c0-5.1-1.6-9-4.4-10.6C101,9.7,99.9,9.4,98.8,9.4z"/>
								</g>
								<path class="st6" d="M87.6,50.4c-1.4,0-2.8-0.3-4-1c-0.1,0-0.1,0-0.2-0.1L77.5,46c-0.1,0-0.1-0.1-0.2-0.1
									c-3.3-2-5.2-6.4-5.2-12.2c0-10.7,6.6-23.2,14.6-27.9c3.6-2.1,7.2-2.4,10.1-0.8c0.1,0,0.1,0,0.2,0.1l5.9,3.4
									c0.1,0,0.1,0.1,0.2,0.1c3.3,2,5.2,6.4,5.2,12.2c0,10.7-6.6,23.2-14.6,27.9C91.5,49.8,89.5,50.4,87.6,50.4z M84.2,47.5
									c0.1,0,0.1,0,0.2,0.1c2.2,1.3,5.2,1,8.2-0.7c7.5-4.3,13.6-16.1,13.6-26.1c0-5.1-1.6-8.9-4.4-10.5c-0.1,0-0.1-0.1-0.2-0.1
									L96,7c-0.1,0-0.1,0-0.2-0.1c-2.2-1.3-5.2-1-8.2,0.7C80.1,11.9,74,23.7,74,33.7c0,5.1,1.6,8.9,4.4,10.5
									c0.1,0,0.1,0.1,0.2,0.1L84.2,47.5z"/>
							</g>
						</g>
						<g>
							<g>
								<path class="st0" d="M93.7,19.6c0-0.6-0.4-0.9-0.9-0.6s-0.9,1-0.9,1.6L92,31c0,0.4,0.2,0.7,0.4,0.7c0.1,0,0.3,0,0.4-0.1
									c0.5-0.3,0.9-1,0.9-1.6L93.7,19.6z"/>
								<path class="st0" d="M92.5,32.2c-0.1,0-0.1,0-0.2,0c-0.5-0.1-0.8-0.6-0.8-1.2V20.6c0-0.8,0.5-1.7,1.1-2.1
									c0.4-0.2,0.7-0.2,1.1,0c0.3,0.2,0.5,0.6,0.5,1.1V30c0,0.8-0.5,1.7-1.1,2.1C92.9,32.2,92.7,32.2,92.5,32.2z M93.2,19.3
									c-0.3,0.2-0.7,0.8-0.7,1.3V31c0,0.2,0,0.3,0.1,0.3c0.3-0.2,0.7-0.8,0.7-1.3V19.6C93.2,19.4,93.2,19.3,93.2,19.3z"/>
							</g>
							<g>
								<path class="st0" d="M93.7,37L93.7,37c0-0.7-0.4-1-0.9-0.7c-0.5,0.3-0.9,1.1-0.9,1.7c0,0.4,0.2,0.7,0.4,0.7
									c0.1,0,0.3,0,0.4-0.1C93.3,38.3,93.7,37.6,93.7,37z"/>
								<path class="st0" d="M92.5,39.2c-0.1,0-0.1,0-0.2,0c-0.5-0.1-0.8-0.6-0.8-1.2c0-0.8,0.5-1.8,1.1-2.1
									c0.4-0.2,0.8-0.2,1.1-0.1c0.2,0.1,0.5,0.4,0.5,1.1V37c0,0.8-0.5,1.7-1.1,2.1C92.9,39.1,92.7,39.2,92.5,39.2z M93.2,36.6
									C93.2,36.7,93.2,36.7,93.2,36.6c-0.4,0.2-0.7,0.8-0.7,1.3c0,0.2,0,0.3,0.1,0.3c0.3-0.2,0.7-0.8,0.7-1.3v-0.1
									C93.2,36.7,93.2,36.7,93.2,36.6z"/>
							</g>
						</g>
					</g>
				</g>
				<rect x="4" y="4" class="st7" width="120" height="120"/>
				<rect x="4" y="4" class="st7" width="120" height="120"/>
			</g>
		</g>
	</g>
	<g>
		<rect class="st7" width="128" height="128"/>
	</g>
</g>
</svg>
