<?xml version="1.0" encoding="utf-8"?>
<!-- Generator: Adobe Illustrator 24.1.0, SVG Export Plug-In . SVG Version: 6.00 Build 0)  -->
<svg version="1.1" id="Layer_1" xmlns="http://www.w3.org/2000/svg" xmlns:xlink="http://www.w3.org/1999/xlink" x="0px" y="0px"
	 viewBox="0 0 128 128" style="enable-background:new 0 0 128 128;" xml:space="preserve">
<style type="text/css">
	.st0{fill:#FFFFFF;}
	.st1{fill:#E9EBDF;}
	.st2{fill:#4D9987;}
	.st3{fill:#0E352C;}
	.st4{fill:none;}
</style>
<g id="Layer_1_1_">
</g>
<g>
	<g id="Layer_2_1_">
		<g id="Tech_Concepts_1_">
			<g>
				<g>
					<polygon class="st0" points="64,17.4 14,81.8 64,110.6 64,110.6 64,71.3 					"/>
					<polygon class="st1" points="64,17.4 114,81.8 64,110.6 64,110.6 					"/>
					<polygon class="st1" points="64,17.4 114,81.8 64,110.6 64,110.6 					"/>
					<path class="st2" d="M14.1,82.9c-0.3,0-0.7-0.2-0.9-0.5c-0.3-0.5-0.1-1.1,0.4-1.4l50-28.9c0.5-0.3,1.1-0.1,1.4,0.4
						s0.1,1.1-0.4,1.4l-50,28.9C14.4,82.8,14.2,82.9,14.1,82.9z"/>
					<path class="st2" d="M114,82.9c-0.2,0-0.3,0-0.5-0.1l-50-28.9c-0.5-0.3-0.6-0.9-0.4-1.4c0.3-0.5,0.9-0.6,1.4-0.4l50,28.9
						c0.5,0.3,0.6,0.9,0.4,1.4C114.7,82.7,114.3,82.9,114,82.9z"/>
					<path class="st2" d="M64,111.6c-0.6,0-1-0.4-1-1V17.4c0-0.6,0.4-1,1-1s1,0.4,1,1v93.3C65,111.2,64.6,111.6,64,111.6z"/>
					<path class="st3" d="M64,111.6c-0.2,0-0.3,0-0.5-0.1l-50-28.9c-0.2-0.1-0.4-0.4-0.5-0.7s0-0.6,0.2-0.8l50-64.4
						c0.2-0.2,0.5-0.4,0.8-0.4l0,0c0.3,0,0.6,0.1,0.8,0.4l50,64.4c0.2,0.2,0.2,0.5,0.2,0.8s-0.2,0.5-0.5,0.7l-50,28.9
						C64.4,111.6,64.2,111.6,64,111.6z M15.5,81.5l48.5,28l48.5-28L64,19L15.5,81.5z"/>
					<path class="st1" d="M84.8,75.4v-10c0,0-6.7,1.3-7.3,1.6c-0.6,0.3-15,0.8-15,0.8l-19.7-2.5v10l0,0c0,0.5,0.3,0.9,0.9,1.3
						l4.8,2.8l-5.7-1v10l0,0c0,0.5,0.3,0.9,0.9,1.3l6.5,3.8c1.2,0.7,3.3,0.7,4.5,0l9-5.2l9,5.2c1.2,0.7,3.3,0.7,4.5,0l6.5-3.8
						c0.6-0.4,0.9-0.8,0.9-1.3v-10h-4l3-1.7C84.5,76.3,84.8,75.8,84.8,75.4z"/>
					<path class="st2" d="M75.2,95c-1,0-2-0.2-2.8-0.7l-8.5-4.9l-8.5,4.9c-1.5,0.9-4,0.9-5.5,0l-6.5-3.8C42.5,90,42,89.2,42,88.3
						v-10c0-0.3,0.1-0.6,0.4-0.8c0.2-0.2,0.5-0.3,0.8-0.2h0.1C42.5,76.8,42,76,42,75.2v-10c0-0.3,0.1-0.6,0.3-0.8
						c0.2-0.2,0.5-0.3,0.8-0.2l19.7,2.5c6.4-0.2,13.7-0.6,14.6-0.8c0.9-0.4,4.5-1.1,7.4-1.7c0.3-0.1,0.6,0,0.8,0.2
						c0.2,0.2,0.4,0.5,0.4,0.8v10c0,0.8-0.5,1.5-1.2,2.1H85c0.6,0,1,0.4,1,1v10c0,0.9-0.5,1.6-1.4,2.2l-6.5,3.8
						C77.1,94.8,76.1,95,75.2,95z M63.8,87.3c0.2,0,0.3,0,0.5,0.1l9,5.2c0.9,0.5,2.6,0.5,3.5,0l6.5-3.8c0.3-0.2,0.4-0.4,0.4-0.4v-9
						h-3c-0.5,0-0.8-0.3-1-0.7s0.1-0.9,0.5-1.1l3-1.7c0.3-0.2,0.4-0.4,0.4-0.4v-8.8c-2.7,0.5-5.4,1.1-5.8,1.3
						c-0.2,0.1-0.8,0.4-15.4,0.9c0,0-0.1,0-0.2,0l-18.6-2.3v8.9c0,0.1,0.1,0.3,0.4,0.4l4.8,2.8c0.4,0.2,0.6,0.8,0.4,1.2
						s-0.6,0.7-1.1,0.6l-4.5-0.8v8.8c0,0.1,0.1,0.3,0.4,0.4l6.5,3.8c0.9,0.5,2.6,0.5,3.5,0l9-5.2C63.5,87.3,63.7,87.3,63.8,87.3z"/>
					<path class="st2" d="M64,88.3l8.9,5.1c1.2,0.7,3.3,0.7,4.5,0l6.5-3.8c0.6-0.4,0.9-0.8,0.9-1.3v-10h-4l3-1.7
						c0.6-0.4,0.9-0.8,0.9-1.3v-10c0,0-6.7,1.3-7.3,1.6c-0.5,0.3-9.9,0.6-13.6,0.8v20.6H64z"/>
					<path class="st2" d="M75.2,95c-1,0-2-0.2-2.8-0.7l-8.9-5.1C63.2,89,63,88.7,63,88.3V67.8c0-0.5,0.4-1,1-1
						c8.9-0.3,12.7-0.6,13.3-0.7c0.9-0.4,4.5-1.1,7.4-1.7c0.3-0.1,0.6,0,0.8,0.2c0.2,0.2,0.4,0.5,0.4,0.8v10c0,0.8-0.5,1.5-1.2,2.1
						h0.2c0.6,0,1,0.4,1,1v10c0,0.9-0.5,1.6-1.4,2.2L78,94.5C77.1,94.8,76.1,95,75.2,95z M65,87.8l8.4,4.8c0.9,0.5,2.6,0.5,3.5,0
						l6.5-3.8c0.3-0.2,0.4-0.4,0.4-0.4v-9h-3c-0.5,0-0.8-0.3-1-0.7s0.1-0.9,0.5-1.1l3-1.7c0.3-0.2,0.4-0.4,0.4-0.4v-8.8
						c-2.7,0.5-5.4,1.1-5.8,1.3c-0.3,0.1-0.7,0.4-13,0.9L65,87.8L65,87.8z"/>
					<g>
						<path class="st0" d="M43.8,77.1l9-5.2l-9-5.2c-1.2-0.7-1.2-1.9,0-2.6l6.5-3.8c1.2-0.7,3.3-0.7,4.5,0l9,5.2l9-5.2
							c1.2-0.7,3.3-0.7,4.5,0l6.5,3.8c1.2,0.7,1.2,1.9,0,2.6l-9,5.2l9,5.2c1.2,0.7,1.2,1.9,0,2.6l-6.5,3.8c-1.2,0.7-3.3,0.7-4.5,0
							l-9-5.2l-9,5.2c-1.2,0.7-3.3,0.7-4.5,0l-6.5-3.8C42.5,79,42.5,77.8,43.8,77.1z"/>
					</g>
					<g>
						<path class="st2" d="M75.2,85c-1,0-2-0.2-2.8-0.7l-8.5-4.9l-8.5,4.9c-1.5,0.9-4,0.9-5.5,0l-6.5-3.8C42.5,80,42,79.2,42,78.3
							s0.5-1.6,1.4-2.2l7.5-4.4l-7.5-4.4C42.5,66.8,42,66,42,65.1s0.5-1.6,1.4-2.2l6.5-3.8c1.5-0.9,4-0.9,5.5,0l8.5,4.9l8.5-4.9
							c1.5-0.9,4-0.9,5.5,0l6.5,3.8c0.9,0.5,1.4,1.3,1.4,2.2s-0.5,1.6-1.4,2.2l-7.5,4.4l7.5,4.4c0.9,0.5,1.4,1.3,1.4,2.2
							s-0.5,1.6-1.4,2.2l-6.5,3.8C77.1,84.8,76.1,85,75.2,85z M63.8,77.3c0.2,0,0.3,0,0.5,0.1l9,5.2c0.9,0.5,2.6,0.5,3.5,0l6.5-3.8
							c0.3-0.2,0.4-0.4,0.4-0.4s-0.1-0.3-0.4-0.4l-9-5.2c-0.3-0.2-0.5-0.5-0.5-0.9s0.2-0.7,0.5-0.9l9-5.2c0.3-0.2,0.4-0.4,0.4-0.4
							s-0.1-0.3-0.4-0.4l-6.5-3.8c-0.9-0.5-2.6-0.5-3.5,0l-9,5.2c-0.3,0.2-0.7,0.2-1,0l-9-5.2c-0.9-0.5-2.6-0.5-3.5,0L44.3,65
							c-0.3,0.2-0.4,0.4-0.4,0.4s0.1,0.3,0.4,0.4l9,5.2c0.3,0.2,0.5,0.5,0.5,0.9s-0.2,0.7-0.5,0.9l-9,5.2l0,0
							c-0.3,0.2-0.4,0.4-0.4,0.4s0.1,0.3,0.4,0.4l6.5,3.8c0.9,0.5,2.6,0.5,3.5,0l9-5.2C63.5,77.3,63.7,77.3,63.8,77.3z M43.8,77.1
							L43.8,77.1L43.8,77.1z"/>
					</g>
					<path class="st1" d="M64,78.3l8.9,5.1c1.2,0.7,3.3,0.7,4.5,0l6.5-3.8c1.2-0.7,1.2-1.9,0-2.6l-9-5.2l9-5.2
						c1.2-0.7,1.2-1.9,0-2.6l-6.5-3.8c-1.2-0.7-3.3-0.7-4.5,0L64,65.4V78.3z"/>
					<path class="st2" d="M75.2,85c-1,0-2-0.2-2.8-0.7l-8.9-5.1C63.2,79,63,78.7,63,78.3V65.4c0-0.4,0.2-0.7,0.5-0.9l8.9-5.1
						c1.5-0.9,4-0.9,5.5,0l6.5,3.8c0.9,0.5,1.4,1.3,1.4,2.2s-0.5,1.6-1.4,2.2L76.9,72l7.5,4.4c0.9,0.5,1.4,1.3,1.4,2.2
						s-0.5,1.6-1.4,2.2l-6.5,3.8C77.1,84.8,76.1,85,75.2,85z M65,77.8l8.4,4.8c0.9,0.5,2.6,0.5,3.5,0l6.5-3.8
						c0.3-0.2,0.4-0.4,0.4-0.4s-0.1-0.3-0.4-0.4l-9-5.2c-0.3-0.2-0.5-0.5-0.5-0.9s0.2-0.7,0.5-0.9l9-5.2c0.3-0.2,0.4-0.4,0.4-0.4
						s-0.1-0.3-0.4-0.4l-6.5-3.8c-0.9-0.5-2.6-0.5-3.5,0L65,66V77.8z"/>
				</g>
				<rect x="4" y="4" class="st4" width="120" height="120"/>
				<rect x="4" y="4" class="st4" width="120" height="120"/>
			</g>
		</g>
	</g>
	<g>
		<rect class="st4" width="128" height="128"/>
	</g>
</g>
</svg>
