<?xml version="1.0" encoding="utf-8"?>
<!-- Generator: Adobe Illustrator 24.1.0, SVG Export Plug-In . SVG Version: 6.00 Build 0)  -->
<svg version="1.1" id="Layer_1" xmlns="http://www.w3.org/2000/svg" xmlns:xlink="http://www.w3.org/1999/xlink" x="0px" y="0px"
	 viewBox="0 0 128 128" style="enable-background:new 0 0 128 128;" xml:space="preserve">
<style type="text/css">
	.st0{fill:#185849;}
	.st1{fill:#27ae60;}
	.st2{fill:#C4D7D3;}
	.st3{fill:#4D9987;}
	.st4{fill:#FFFFFF;}
	.st5{fill:#E9EBDF;}
	.st6{fill:#0E352C;}
	.st7{fill:none;}
</style>
<g id="Layer_1_1_">
</g>
<g>
	<g id="Layer_2_1_">
		<g id="Objects_1_">
			<g>
				<g>
					<g>
						<path class="st0" d="M52.5,72.1c-1.2,0-2.4-0.3-3.4-0.9c-2.8-1.6-4.4-5.3-4.4-10.1c0-8.7,5.3-18.8,11.9-22.6
							c3.1-1.8,6.1-2,8.4-0.6c2.8,1.6,4.4,5.3,4.4,10.1c0,8.7-5.3,18.8-11.9,22.6C55.8,71.6,54.1,72.1,52.5,72.1z M61.6,39.1
							c-1.2,0-2.6,0.4-4,1.2c-6,3.5-10.9,12.8-10.9,20.9c0,4,1.2,7.1,3.4,8.3c1.7,1,4,0.8,6.4-0.6c6-3.5,10.9-12.8,10.9-20.9
							c0-4-1.2-7.1-3.4-8.3C63.3,39.3,62.5,39.1,61.6,39.1z"/>
						<path class="st1" d="M48,88.6c-2.3,0-4.4-0.6-6.3-1.7c-5.3-3.1-8.4-10.1-8.4-19.3c0-17,10.4-36.9,23.2-44.3
							c5.8-3.3,11.4-3.8,15.9-1.2c5.3,3.1,8.4,10.1,8.4,19.3c0,17-10.4,36.9-23.2,44.3C54.3,87.7,51,88.6,48,88.6z M66.1,22.5
							c-2.7,0-5.6,0.9-8.5,2.6c-12.3,7.1-22.2,26.2-22.2,42.6c0,8.4,2.7,14.8,7.4,17.5c3.8,2.2,8.7,1.8,13.9-1.2
							C69,76.9,78.9,57.8,78.9,41.4c0-8.4-2.7-14.8-7.4-17.5C69.8,23,68,22.5,66.1,22.5z"/>
						<path class="st2" d="M43.5,105.1c-3.3,0-6.5-0.8-9.3-2.4c-7.8-4.5-12.3-14.9-12.3-28.5c0-25.4,15.5-55,34.6-66
							C65,3.3,73.3,2.6,79.8,6.4c7.8,4.5,12.3,14.9,12.3,28.5c0,25.4-15.5,55-34.6,66C52.7,103.7,47.9,105.1,43.5,105.1z M70.6,6
							c-4.1,0-8.5,1.3-13.1,3.9C39,20.7,23.9,49.5,23.9,74.3c0,12.8,4.1,22.6,11.3,26.7c5.9,3.4,13.4,2.7,21.3-1.8
							C75,88.5,90.1,59.7,90.1,34.9c0-12.8-4.1-22.6-11.3-26.7C76.4,6.7,73.6,6,70.6,6z"/>
						<g>
							<g>
								<polygon class="st3" points="92.7,59.8 57.1,54.6 56,109.3 67.1,94.3 80.2,117 94.7,97.5 81.6,74.7 								"/>
								<path class="st4" d="M80.2,118L80.2,118c-0.4,0-0.7-0.2-0.9-0.5L67,96.2l-10.2,13.7c-0.3,0.3-0.7,0.5-1.1,0.4
									c-0.4-0.1-0.7-0.5-0.7-1l1-54.7c0-0.3,0.1-0.6,0.4-0.7c0.2-0.2,0.5-0.3,0.8-0.2L92.8,59c0.3,0.1,0.6,0.3,0.8,0.6
									s0.1,0.7-0.1,1L82.8,74.8L95.6,97c0.2,0.3,0.2,0.8-0.1,1.1L81,117.6C80.8,117.9,80.5,118,80.2,118z M67.1,93.3L67.1,93.3
									c0.4,0,0.7,0.2,0.9,0.5l12.3,21.4l13.2-17.8L80.8,75.2c-0.2-0.3-0.2-0.8,0.1-1.1L91,60.5l-33-4.8l-1,50.4l9.2-12.4
									C66.5,93.5,66.8,93.3,67.1,93.3z"/>
							</g>
							<g>
								<polygon class="st3" points="103,65.8 67.4,60.5 66.3,115.2 77.4,100.3 90.5,123 105.1,103.4 91.9,80.7 								"/>
								<path class="st4" d="M90.5,124L90.5,124c-0.4,0-0.7-0.2-0.9-0.5l-12.3-21.4l-10.2,13.7c-0.3,0.3-0.7,0.5-1.1,0.4
									s-0.7-0.5-0.7-1l1-54.7c0-0.3,0.1-0.6,0.4-0.7c0.2-0.2,0.5-0.3,0.8-0.2l35.6,5.3c0.3,0.1,0.6,0.3,0.8,0.6
									c0.1,0.3,0.1,0.7-0.1,1L93.1,80.8l12.8,22.1c0.2,0.3,0.2,0.8-0.1,1.1l-14.5,19.6C91.1,123.9,90.8,124,90.5,124z M77.4,99.3
									L77.4,99.3c0.4,0,0.7,0.2,0.9,0.5l12.3,21.4l13.2-17.8L91.1,81.2c-0.2-0.3-0.2-0.8,0.1-1.1l10.1-13.6l-32.9-4.8l-1,50.4
									l9.2-12.4C76.8,99.4,77.1,99.3,77.4,99.3z"/>
							</g>
							<g>
								<polygon class="st5" points="90.5,123 80.2,117 73.5,105.5 77.4,100.3 								"/>
								<path class="st4" d="M90.5,124c-0.2,0-0.3,0-0.5-0.1l-10.3-6c-0.2-0.1-0.3-0.2-0.4-0.4L72.7,106c-0.2-0.3-0.2-0.8,0.1-1.1
									l3.9-5.2c0.2-0.3,0.5-0.4,0.9-0.4c0.3,0,0.6,0.2,0.8,0.5l13.1,22.7c0.2,0.4,0.2,0.9-0.2,1.2C91,123.9,90.8,124,90.5,124z
									 M80.9,116.3l6.8,4l-10.5-18.2l-2.6,3.5L80.9,116.3z"/>
							</g>
							<g>
								<polygon class="st5" points="66.3,115.2 56,109.3 57.1,54.6 67.4,60.5 								"/>
								<path class="st4" d="M66.3,116.2c-0.2,0-0.3,0-0.5-0.1l-10.3-6c-0.3-0.2-0.5-0.5-0.5-0.9l1-54.7c0-0.4,0.2-0.7,0.5-0.9
									s0.7-0.2,1,0l10.3,6c0.3,0.2,0.5,0.5,0.5,0.9l-1,54.7c0,0.4-0.2,0.7-0.5,0.9C66.7,116.2,66.5,116.2,66.3,116.2z M57,108.7
									l8.3,4.8l1-52.4L58,56.3L57,108.7z"/>
							</g>
							<g>
								<polygon class="st5" points="103,65.8 92.7,59.8 57.1,54.6 67.4,60.5 								"/>
								<path class="st4" d="M103,66.8L103,66.8l-35.7-5.3c-0.1,0-0.2-0.1-0.4-0.1l-10.3-6c-0.4-0.2-0.6-0.7-0.4-1.2
									c0.2-0.5,0.6-0.7,1.1-0.7l35.6,5.3c0.1,0,0.2,0.1,0.4,0.1l10.3,6c0.4,0.2,0.6,0.7,0.4,1.2C103.8,66.5,103.4,66.8,103,66.8z
									 M67.7,59.6L98,64l-5.6-3.2l-30.3-4.5L67.7,59.6z"/>
							</g>
							<path class="st6" d="M90.5,124c-0.2,0-0.3,0-0.5-0.1l-10.3-6c-0.2-0.1-0.3-0.2-0.4-0.4l-5.9-10.2l-6.3,8.5
								c-0.3,0.4-0.9,0.5-1.3,0.3l-10.3-6c-0.3-0.2-0.5-0.5-0.5-0.9l1-54.7c0-0.3,0.1-0.6,0.4-0.7c0.2-0.2,0.5-0.3,0.8-0.2l35.6,5.3
								c0.1,0,0.2,0.1,0.4,0.1l10.3,6c0.2,0.1,0.4,0.4,0.5,0.7c0.1,0.3,0,0.6-0.2,0.8L93.1,80.8l12.8,22.1c0.2,0.3,0.2,0.8-0.1,1.1
								l-14.5,19.6C91.1,123.9,90.8,124,90.5,124z M80.9,116.3l9.3,5.4l13.6-18.4L91.1,81.2c-0.2-0.3-0.2-0.8,0.1-1.1l10.4-14
								l-9.2-5.3L58,55.7l-1,53l9,5.2l6.7-9c0.2-0.3,0.5-0.4,0.9-0.4c0.3,0,0.6,0.2,0.8,0.5L80.9,116.3z"/>
						</g>
					</g>
				</g>
				<rect x="4" y="4" class="st7" width="120" height="120"/>
				<rect x="4" y="4" class="st7" width="120" height="120"/>
			</g>
		</g>
	</g>
	<g>
		<rect class="st7" width="128" height="128"/>
	</g>
</g>
</svg>
