<?xml version="1.0" encoding="utf-8"?>
<!-- Generator: Adobe Illustrator 24.1.0, SVG Export Plug-In . SVG Version: 6.00 Build 0)  -->
<svg version="1.1" id="Layer_1" xmlns="http://www.w3.org/2000/svg" xmlns:xlink="http://www.w3.org/1999/xlink" x="0px" y="0px"
	 viewBox="0 0 128 128" style="enable-background:new 0 0 128 128;" xml:space="preserve">
<style type="text/css">
	.st0{fill:#E9EBDF;}
	.st1{fill:#4D9987;}
	.st2{fill:#FFFFFF;}
	.st3{fill:#0E352C;}
	.st4{fill:none;}
</style>
<g id="Layer_1_1_">
</g>
<g>
	<g id="Layer_2_1_">
		<g id="Objects_1_">
			<g>
				<g>
					<g>
						<g>
							<g>
								<g>
									<path class="st0" d="M86.1,72.7L68,62.3c-2.2-1.3-5.8-1.3-8.1,0l-18,10.4H14v17.4c0,0.8,0.6,1.7,1.7,2.3L60,118
										c2.2,1.3,5.8,1.3,8.1,0l44.3-25.5c1.1-0.6,1.7-1.5,1.7-2.3V72.7H86.1z"/>
									<path class="st1" d="M64,120c-1.6,0-3.3-0.4-4.5-1.1L15.2,93.4c-1.4-0.8-2.2-1.9-2.2-3.2V72.7c0-0.6,0.4-1,1-1h27.6
										l17.8-10.3c2.5-1.5,6.5-1.5,9.1,0l17.8,10.3H114c0.6,0,1,0.4,1,1v17.4c0,1.3-0.8,2.4-2.2,3.2l-44.3,25.5
										C67.3,119.6,65.6,120,64,120z M15,73.7v16.4c0,0.5,0.4,1,1.2,1.5l44.3,25.5c1.9,1.1,5.2,1.1,7.1,0l44.3-25.5
										c0.7-0.4,1.2-1,1.2-1.5V73.7h-27c-0.2,0-0.3,0-0.5-0.1L67.5,63.1c-1.9-1.1-5.2-1.1-7.1,0l-18,10.5
										c-0.2,0.1-0.3,0.1-0.5,0.1H15z"/>
								</g>
								<path class="st1" d="M68,118l44.3-25.5c1.1-0.6,1.7-1.5,1.7-2.3V72.7H86.1L68,62.3c-1.1-0.6-2.6-1-4-1V119
									C65.5,119,66.9,118.7,68,118z"/>
								<path class="st1" d="M44.4,102c-0.2,0-0.3,0-0.5-0.1l-13.1-7.6c-0.5-0.3-0.6-0.9-0.4-1.4c0.3-0.5,0.9-0.6,1.4-0.4l13.1,7.6
									c0.5,0.3,0.6,0.9,0.4,1.4C45.1,101.8,44.7,102,44.4,102z"/>
								<g>
									<path class="st2" d="M112.3,70.4L68,44.8c-2.2-1.3-5.8-1.3-8.1,0L15.7,70.4c-2.2,1.3-2.2,3.4,0,4.7L60,100.6
										c2.2,1.3,5.8,1.3,8.1,0L112.3,75C114.5,73.8,114.5,71.7,112.3,70.4z"/>
									<path class="st1" d="M64,102.6c-1.6,0-3.3-0.4-4.5-1.1L15.2,75.9C13.8,75.1,13,74,13,72.7s0.8-2.4,2.2-3.2L59.5,44
										c2.5-1.5,6.5-1.5,9.1,0l44.3,25.5l0,0c1.4,0.8,2.2,1.9,2.2,3.2c0,1.3-0.8,2.4-2.2,3.2l-44.3,25.5
										C67.3,102.2,65.6,102.6,64,102.6z M64,44.9c-1.3,0-2.6,0.3-3.5,0.8L16.2,71.3c-0.7,0.4-1.2,1-1.2,1.5s0.4,1,1.2,1.5
										l44.3,25.5c1.9,1.1,5.2,1.1,7.1,0l44.3-25.5c0.7-0.4,1.2-1,1.2-1.5s-0.4-1-1.2-1.5l0,0L67.5,45.7
										C66.6,45.2,65.3,44.9,64,44.9z"/>
								</g>
							</g>
						</g>
						<g>
							<polygon class="st1" points="101.9,98.5 78.5,112 78.5,103.9 101.9,90.4 							"/>
							<path class="st0" d="M78.5,113c-0.2,0-0.3,0-0.5-0.1c-0.3-0.2-0.5-0.5-0.5-0.9v-8.1c0-0.4,0.2-0.7,0.5-0.9l23.4-13.5
								c0.3-0.2,0.7-0.2,1,0s0.5,0.5,0.5,0.9v8.1c0,0.4-0.2,0.7-0.5,0.9L79,112.8C78.9,112.9,78.7,113,78.5,113z M79.5,104.5v5.7
								l21.4-12.3v-5.7L79.5,104.5z M101.9,98.5L101.9,98.5L101.9,98.5z"/>
						</g>
						<path class="st3" d="M64,120c-1.7,0-3.3-0.4-4.5-1.1L15.2,93.4c-1.4-0.8-2.2-1.9-2.2-3.2V72.7c0-1.3,0.8-2.4,2.2-3.2L59.5,44
							c2.5-1.5,6.5-1.5,9.1,0l44.3,25.5l0,0c1.4,0.8,2.2,1.9,2.2,3.2v17.4c0,1.3-0.8,2.4-2.2,3.2l-44.3,25.5
							C67.3,119.6,65.7,120,64,120z M64,44.9c-1.3,0-2.6,0.3-3.5,0.8L16.2,71.3c-0.7,0.4-1.2,1-1.2,1.5v17.4c0,0.5,0.4,1,1.2,1.5
							l44.3,25.5c1.8,1.1,5.2,1.1,7.1,0l44.3-25.5c0.7-0.4,1.2-1,1.2-1.5V72.7c0-0.5-0.4-1-1.2-1.5l0,0L67.5,45.7
							C66.6,45.2,65.3,44.9,64,44.9z"/>
						<g>
							<ellipse class="st1" cx="102.5" cy="72.7" rx="2.3" ry="1.3"/>
							<ellipse class="st1" cx="64" cy="95" rx="2.3" ry="1.3"/>
							<ellipse class="st1" cx="64" cy="50.5" rx="2.3" ry="1.3"/>
							<ellipse class="st1" cx="25.5" cy="72.7" rx="2.3" ry="1.3"/>
						</g>
					</g>
					<g>
						<g>
							<g>
								<g>
									<path class="st0" d="M86.1,55.3L68,44.8c-2.2-1.3-5.8-1.3-8.1,0l-18,10.5H14v17.4c0,0.8,0.6,1.7,1.7,2.3L60,100.6
										c2.2,1.3,5.8,1.3,8.1,0L112.3,75c1.1-0.6,1.7-1.5,1.7-2.3V55.3H86.1z"/>
									<path class="st1" d="M64,102.6c-1.6,0-3.3-0.4-4.5-1.1L15.2,75.9C13.8,75.1,13,74,13,72.7V55.3c0-0.6,0.4-1,1-1h27.6
										L59.5,44c2.5-1.5,6.5-1.5,9.1,0l17.8,10.3H114c0.6,0,1,0.4,1,1v17.4c0,1.3-0.8,2.4-2.2,3.2l-44.3,25.5
										C67.3,102.2,65.6,102.6,64,102.6z M15,56.3v16.4c0,0.5,0.4,1,1.2,1.5l44.3,25.5c1.9,1.1,5.2,1.1,7.1,0l44.3-25.5
										c0.7-0.4,1.2-1,1.2-1.5V56.3h-27c-0.2,0-0.3,0-0.5-0.1L67.5,45.7c-1.9-1.1-5.2-1.1-7.1,0l-18,10.4
										c-0.2,0.1-0.3,0.1-0.5,0.1H15V56.3z"/>
								</g>
								<path class="st1" d="M68,100.6L112.3,75c1.1-0.6,1.7-1.5,1.7-2.3V55.3H86.1L68,44.8c-1.1-0.6-2.6-1-4-1v57.7
									C65.5,101.6,66.9,101.2,68,100.6z"/>
								<path class="st1" d="M44.4,84.5c-0.2,0-0.3,0-0.5-0.1l-13.1-7.6c-0.5-0.3-0.6-0.9-0.4-1.4c0.3-0.5,0.9-0.6,1.4-0.4l13.1,7.6
									c0.5,0.3,0.6,0.9,0.4,1.4C45.1,84.4,44.7,84.5,44.4,84.5z"/>
								<g>
									<path class="st2" d="M112.3,53L68,27.4c-2.2-1.3-5.8-1.3-8.1,0L15.7,53c-2.2,1.3-2.2,3.4,0,4.7L60,83.2
										c2.2,1.3,5.8,1.3,8.1,0l44.3-25.5C114.5,56.3,114.5,54.2,112.3,53z"/>
									<path class="st1" d="M64,85.1c-1.6,0-3.3-0.4-4.5-1.1L15.2,58.5c-1.4-0.8-2.2-1.9-2.2-3.2s0.8-2.4,2.2-3.2l44.3-25.5
										c2.5-1.5,6.5-1.5,9.1,0l44.3,25.5l0,0c1.4,0.8,2.2,1.9,2.2,3.2s-0.8,2.4-2.2,3.2L68.5,84C67.3,84.8,65.6,85.1,64,85.1z
										 M64,27.4c-1.3,0-2.6,0.3-3.5,0.8L16.2,53.8c-0.7,0.4-1.2,1-1.2,1.5s0.4,1,1.2,1.5l44.3,25.5c1.9,1.1,5.2,1.1,7.1,0
										l44.3-25.5c0.7-0.4,1.2-1,1.2-1.5s-0.4-1-1.2-1.5L67.5,28.3C66.6,27.7,65.3,27.4,64,27.4z"/>
								</g>
							</g>
						</g>
						<g>
							<polygon class="st1" points="101.9,81 78.5,94.5 78.5,86.5 101.9,73 							"/>
							<path class="st0" d="M78.5,95.5c-0.2,0-0.3,0-0.5-0.1c-0.3-0.2-0.5-0.5-0.5-0.9v-8.1c0-0.4,0.2-0.7,0.5-0.9L101.4,72
								c0.3-0.2,0.7-0.2,1,0s0.5,0.5,0.5,0.9V81c0,0.4-0.2,0.7-0.5,0.9L79,95.4C78.9,95.5,78.7,95.5,78.5,95.5z M79.5,87v5.7
								l21.4-12.3v-5.7L79.5,87z M101.9,81L101.9,81L101.9,81z"/>
						</g>
						<path class="st3" d="M64,102.6c-1.7,0-3.3-0.4-4.5-1.1L15.2,75.9C13.8,75.1,13,74,13,72.7V55.3c0-1.3,0.8-2.4,2.2-3.2
							l44.3-25.5c2.5-1.5,6.5-1.5,9.1,0l44.3,25.5l0,0c1.4,0.8,2.2,1.9,2.2,3.2v17.4c0,1.3-0.8,2.4-2.2,3.2l-44.3,25.5
							C67.3,102.2,65.7,102.6,64,102.6z M64,27.4c-1.3,0-2.6,0.3-3.5,0.8L16.2,53.8c-0.7,0.4-1.2,1-1.2,1.5v17.4
							c0,0.5,0.4,1,1.2,1.5l44.3,25.5c1.8,1.1,5.2,1.1,7.1,0l44.3-25.5c0.7-0.4,1.2-1,1.2-1.5V55.3c0-0.5-0.4-1-1.2-1.5l0,0
							L67.5,28.3C66.6,27.7,65.3,27.4,64,27.4z"/>
						<g>
							<ellipse class="st1" cx="102.5" cy="55.3" rx="2.3" ry="1.3"/>
							<ellipse class="st1" cx="64" cy="77.5" rx="2.3" ry="1.3"/>
							<ellipse class="st1" cx="64" cy="33" rx="2.3" ry="1.3"/>
							<ellipse class="st1" cx="25.5" cy="55.3" rx="2.3" ry="1.3"/>
						</g>
					</g>
					<g>
						<g>
							<g>
								<g>
									<path class="st0" d="M86.1,37.8L68,27.4c-2.2-1.3-5.8-1.3-8.1,0l-18,10.4H14v17.4c0,0.8,0.6,1.7,1.7,2.3L60,83.2
										c2.2,1.3,5.8,1.3,8.1,0l44.3-25.5c1.1-0.6,1.7-1.5,1.7-2.3V37.8H86.1z"/>
									<path class="st1" d="M64,85.1c-1.6,0-3.3-0.4-4.5-1.1L15.2,58.5c-1.4-0.8-2.2-1.9-2.2-3.2V37.8c0-0.6,0.4-1,1-1h27.6
										l17.8-10.3c2.5-1.5,6.5-1.5,9.1,0l17.8,10.3H114c0.6,0,1,0.4,1,1v17.4c0,1.3-0.8,2.4-2.2,3.2L68.5,84
										C67.3,84.8,65.6,85.1,64,85.1z M15,38.8v16.4c0,0.5,0.4,1,1.2,1.5l44.3,25.5c1.9,1.1,5.2,1.1,7.1,0l44.3-25.5
										c0.7-0.4,1.2-1,1.2-1.5V38.8h-27c-0.2,0-0.3,0-0.5-0.1L67.5,28.3c-1.9-1.1-5.2-1.1-7.1,0l-18,10.4
										c-0.2,0.1-0.3,0.1-0.5,0.1H15z"/>
								</g>
								<path class="st1" d="M68,83.2l44.3-25.5c1.1-0.6,1.7-1.5,1.7-2.3V37.8H86.1L68,27.4c-1.1-0.6-2.6-1-4-1v57.7
									C65.5,84.1,66.9,83.8,68,83.2z"/>
								<path class="st1" d="M44.4,67.1c-0.2,0-0.3,0-0.5-0.1l-13.1-7.6c-0.5-0.3-0.6-0.9-0.4-1.4c0.3-0.5,0.9-0.6,1.4-0.4l13.1,7.6
									c0.5,0.3,0.6,0.9,0.4,1.4C45.1,66.9,44.7,67.1,44.4,67.1z"/>
								<g>
									<path class="st2" d="M112.3,35.5L68,10c-2.2-1.3-5.8-1.3-8.1,0L15.7,35.5c-2.2,1.3-2.2,3.4,0,4.7L60,65.7
										c2.2,1.3,5.8,1.3,8.1,0l44.3-25.5C114.5,38.9,114.5,36.8,112.3,35.5z"/>
									<path class="st1" d="M64,67.7c-1.6,0-3.3-0.4-4.5-1.1L15.2,41c-1.4-0.8-2.2-1.9-2.2-3.2s0.8-2.4,2.2-3.2L59.5,9.1
										c2.5-1.5,6.5-1.5,9.1,0l44.3,25.5l0,0c1.4,0.8,2.2,1.9,2.2,3.2s-0.8,2.4-2.2,3.2L68.5,66.6C67.3,67.3,65.6,67.7,64,67.7z
										 M64,10c-1.3,0-2.6,0.3-3.5,0.8L16.2,36.4c-0.7,0.4-1.2,1-1.2,1.5s0.4,1,1.2,1.5l44.3,25.5c1.9,1.1,5.2,1.1,7.1,0
										l44.3-25.5c0.7-0.4,1.2-1,1.2-1.5s-0.4-1-1.2-1.5l0,0L67.5,10.8C66.6,10.3,65.3,10,64,10z"/>
								</g>
							</g>
						</g>
						<g>
							<polygon class="st1" points="101.9,63.6 78.5,77.1 78.5,69 101.9,55.5 							"/>
							<path class="st0" d="M78.5,78.1c-0.2,0-0.3,0-0.5-0.1c-0.3-0.2-0.5-0.5-0.5-0.9V69c0-0.4,0.2-0.7,0.5-0.9l23.4-13.5
								c0.3-0.2,0.7-0.2,1,0s0.5,0.5,0.5,0.9v8.1c0,0.4-0.2,0.7-0.5,0.9L79,78C78.9,78,78.7,78.1,78.5,78.1z M79.5,69.6v5.7
								L100.9,63v-5.7L79.5,69.6z M101.9,63.6L101.9,63.6L101.9,63.6z"/>
						</g>
						<path class="st3" d="M64,85.1c-1.7,0-3.3-0.4-4.5-1.1L15.2,58.5c-1.4-0.8-2.2-1.9-2.2-3.2V37.8c0-1.3,0.8-2.4,2.2-3.2
							L59.5,9.1c2.5-1.5,6.5-1.5,9.1,0l44.3,25.5l0,0c1.4,0.8,2.2,1.9,2.2,3.2v17.4c0,1.3-0.8,2.4-2.2,3.2L68.5,84
							C67.3,84.7,65.7,85.1,64,85.1z M64,10c-1.3,0-2.6,0.3-3.5,0.8L16.2,36.4c-0.7,0.4-1.2,1-1.2,1.5v17.4c0,0.5,0.4,1,1.2,1.5
							l44.3,25.5c1.8,1.1,5.2,1.1,7.1,0l44.3-25.5c0.7-0.4,1.2-1,1.2-1.5V37.8c0-0.5-0.4-1-1.2-1.5L67.5,10.8
							C66.6,10.3,65.3,10,64,10z"/>
						<g>
							<ellipse class="st1" cx="102.5" cy="37.8" rx="2.3" ry="1.3"/>
							<ellipse class="st1" cx="64" cy="60.1" rx="2.3" ry="1.3"/>
							<ellipse class="st1" cx="64" cy="15.6" rx="2.3" ry="1.3"/>
							<ellipse class="st1" cx="25.5" cy="37.8" rx="2.3" ry="1.3"/>
						</g>
					</g>
				</g>
				<rect x="4" y="4" class="st4" width="120" height="120"/>
				<rect x="4" y="4" class="st4" width="120" height="120"/>
			</g>
		</g>
	</g>
	<g>
		<rect class="st4" width="128" height="128"/>
	</g>
</g>
</svg>
