<?xml version="1.0" encoding="utf-8"?>
<!-- Generator: Adobe Illustrator 24.1.0, SVG Export Plug-In . SVG Version: 6.00 Build 0)  -->
<svg version="1.1" id="Layer_1" xmlns="http://www.w3.org/2000/svg" xmlns:xlink="http://www.w3.org/1999/xlink" x="0px" y="0px"
	 viewBox="0 0 128 128" style="enable-background:new 0 0 128 128;" xml:space="preserve">
<style type="text/css">
	.st0{fill:#FFFFFF;}
	.st1{fill:#4D9987;}
	.st2{fill:#E9EBDF;}
	.st3{fill:#0E352C;}
	.st4{fill:#27ae60;}
	.st5{fill:#C4D7D3;}
	.st6{fill:#185849;}
	.st7{fill:none;}
</style>
<g id="Layer_1_1_">
</g>
<g>
	<g id="Layer_2_1_">
		<g id="Objects_1_">
			<g>
				<g>
					<g>
						<g>
							<polygon class="st0" points="89.6,74.9 103.7,66.7 108.8,77.8 114,88.9 94.7,86 75.5,83 							"/>
							<path class="st1" d="M114,89.9c-0.1,0-0.1,0-0.2,0l-38.5-6c-0.4-0.1-0.8-0.4-0.8-0.8c-0.1-0.4,0.1-0.8,0.5-1L89.1,74l0,0
								l14.1-8.1c0.2-0.1,0.5-0.2,0.8-0.1s0.5,0.3,0.6,0.5l10.3,22.2c0.2,0.3,0.1,0.7-0.1,1C114.6,89.8,114.3,89.9,114,89.9z
								 M78.5,82.4l33.8,5.2l-9.1-19.5L78.5,82.4z"/>
						</g>
						<g>
							<polygon class="st2" points="114,88.9 114,111.9 75.5,105.9 75.5,83 							"/>
							<path class="st1" d="M114,112.9c-0.1,0-0.1,0-0.2,0l-38.5-6c-0.5-0.1-0.8-0.5-0.8-1V83c0-0.3,0.1-0.6,0.3-0.8
								c0.2-0.2,0.5-0.3,0.8-0.2l38.5,6c0.5,0.1,0.8,0.5,0.8,1v22.9c0,0.3-0.1,0.6-0.3,0.8C114.5,112.8,114.2,112.9,114,112.9z
								 M76.5,105l36.5,5.6V89.8l-36.5-5.6V105z"/>
						</g>
						<path class="st3" d="M114,112.9c-0.1,0-0.1,0-0.2,0l-38.5-6c-0.5-0.1-0.8-0.5-0.8-1V83c0-0.4,0.2-0.7,0.5-0.9l28.2-16.3
							c0.2-0.1,0.5-0.2,0.8-0.1s0.5,0.3,0.6,0.5l5.2,11.1l0,0l5.2,11.1c0.1,0.1,0.1,0.3,0.1,0.4v22.9c0,0.3-0.1,0.6-0.3,0.8
							C114.5,112.8,114.2,112.9,114,112.9z M76.5,105l36.5,5.6V89.2l-9.8-21L76.5,83.6V105z"/>
					</g>
					<g>
						<g>
							<path class="st2" d="M14,62.2v22.9l0,0c0,2.7,1.8,5.4,5.3,7.5c7.1,4.1,18.7,4.1,25.8,0c3.6-2.1,5.3-4.8,5.3-7.5V62.2H14z"/>
							<path class="st1" d="M32.3,96.7c-4.9,0-9.7-1.1-13.4-3.2c-3.8-2.2-5.8-5.1-5.8-8.3v-23c0-0.6,0.4-1,1-1h36.5c0.6,0,1,0.4,1,1
								v22.9c0,3.2-2.1,6.1-5.8,8.3C42,95.6,37.1,96.7,32.3,96.7z M15,63.2v21.9c0,2.4,1.7,4.8,4.8,6.6c6.8,3.9,18,3.9,24.8,0
								c3.1-1.8,4.8-4.1,4.8-6.6V63.2H15z"/>
						</g>
						<path class="st1" d="M32.3,95.7c4.7,0,9.3-1,12.9-3.1s5.3-4.8,5.3-7.5V62.2H32.3V95.7z"/>
						<g>
							<ellipse class="st0" cx="32.3" cy="62.2" rx="18.3" ry="10.5"/>
							<path class="st1" d="M32.3,73.7c-4.9,0-9.7-1.1-13.4-3.2c-3.8-2.2-5.8-5.1-5.8-8.3s2.1-6.1,5.8-8.3c7.4-4.3,19.4-4.3,26.8,0
								c3.8,2.2,5.8,5.1,5.8,8.3s-2.1,6.1-5.8,8.3C42,72.7,37.1,73.7,32.3,73.7z M32.3,52.7c-4.5,0-9,1-12.4,3
								c-3.1,1.8-4.8,4.1-4.8,6.6c0,2.4,1.7,4.8,4.8,6.6c6.8,4,18,4,24.8,0c3.1-1.8,4.8-4.1,4.8-6.6c0-2.4-1.7-4.8-4.8-6.6l0,0
								C41.2,53.7,36.7,52.7,32.3,52.7z"/>
						</g>
						<path class="st3" d="M32.2,96.7c-4.9,0-9.7-1.1-13.3-3.2c-3.8-2.2-5.8-5.1-5.8-8.3v-23c0-3.2,2.1-6.1,5.8-8.3
							c7.4-4.3,19.4-4.3,26.8,0c3.8,2.2,5.8,5.1,5.8,8.3v22.9c0,3.2-2.1,6.1-5.8,8.3c-2,1.1-4.3,2-7,2.6
							C36.5,96.5,34.3,96.7,32.2,96.7z M32.3,52.7c-4.5,0-9,1-12.4,3c-3.1,1.8-4.8,4.1-4.8,6.6v22.9c0,2.4,1.7,4.8,4.8,6.6
							c4.8,2.8,12,3.7,18.4,2.3c2.5-0.5,4.6-1.3,6.4-2.3c3.1-1.8,4.8-4.1,4.8-6.6v-23c0-2.4-1.7-4.8-4.8-6.6
							C41.2,53.7,36.7,52.7,32.3,52.7z"/>
					</g>
					<g>
						<polygon class="st0" points="100.7,51.1 79.9,39.1 59.1,51.1 79.9,63.1 						"/>
						<path class="st1" d="M79.9,64.1c-0.2,0-0.3,0-0.5-0.1L58.6,52c-0.3-0.2-0.5-0.5-0.5-0.9s0.2-0.7,0.5-0.9l20.8-12
							c0.3-0.2,0.7-0.2,1,0l20.8,12c0.3,0.2,0.5,0.5,0.5,0.9s-0.2,0.7-0.5,0.9L80.4,64C80.2,64,80,64.1,79.9,64.1z M61.1,51.1
							l18.8,10.8l18.8-10.8L79.9,40.2L61.1,51.1z"/>
					</g>
					<g>
						<polygon class="st0" points="100.7,28.1 79.9,16.1 59.1,28.1 79.9,40.1 						"/>
						<path class="st4" d="M79.9,41.1c-0.2,0-0.3,0-0.5-0.1L58.6,29c-0.3-0.2-0.5-0.5-0.5-0.9s0.2-0.7,0.5-0.9l20.8-12
							c0.3-0.2,0.7-0.2,1,0l20.8,12c0.3,0.2,0.5,0.5,0.5,0.9s-0.2,0.7-0.5,0.9L80.4,41C80.2,41.1,80,41.1,79.9,41.1z M61.1,28.1
							L79.9,39l18.8-10.8L79.9,17.3L61.1,28.1z"/>
					</g>
					<g>
						<polygon class="st4" points="100.7,28.1 100.7,51.1 79.9,63.1 79.9,40.1 						"/>
						<path class="st4" d="M79.9,64.1c-0.2,0-0.3,0-0.5-0.1c-0.3-0.2-0.5-0.5-0.5-0.9v-23c0-0.4,0.2-0.7,0.5-0.9l20.8-12
							c0.3-0.2,0.7-0.2,1,0s0.5,0.5,0.5,0.9V51c0,0.4-0.2,0.7-0.5,0.9l-20.8,12C80.2,64,80,64.1,79.9,64.1z M80.9,40.7v20.6
							l18.8-10.8V29.9L80.9,40.7z"/>
					</g>
					<g>
						<polygon class="st5" points="59.1,28.1 59.1,51.1 79.9,63.1 79.9,40.1 						"/>
						<path class="st4" d="M79.9,64.1c-0.2,0-0.3,0-0.5-0.1L58.6,52c-0.3-0.2-0.5-0.5-0.5-0.9v-23c0-0.4,0.2-0.7,0.5-0.9
							c0.3-0.2,0.7-0.2,1,0l20.8,12c0.3,0.2,0.5,0.5,0.5,0.9V63c0,0.4-0.2,0.7-0.5,0.9C80.2,64,80,64.1,79.9,64.1z M60.1,50.5
							l18.8,10.8V40.7L60.1,29.9V50.5z"/>
					</g>
					<path class="st6" d="M79.9,64.1c-0.2,0-0.3,0-0.5-0.1L58.6,52c-0.3-0.2-0.5-0.5-0.5-0.9v-23c0-0.4,0.2-0.7,0.5-0.9l20.8-12
						c0.3-0.2,0.7-0.2,1,0l20.8,12c0.3,0.2,0.5,0.5,0.5,0.9V51c0,0.4-0.2,0.7-0.5,0.9l-20.8,12C80.2,64,80,64.1,79.9,64.1z
						 M60.1,50.5l19.8,11.4l19.8-11.4V28.7L79.9,17.3L60.1,28.7V50.5z"/>
				</g>
				<rect x="4" y="4" class="st7" width="120" height="120"/>
				<rect x="4" y="4" class="st7" width="120" height="120"/>
			</g>
		</g>
	</g>
	<g>
		<rect class="st7" width="128" height="128"/>
	</g>
</g>
</svg>
