<?xml version="1.0" encoding="utf-8"?>
<!-- Generator: Adobe Illustrator 24.1.0, SVG Export Plug-In . SVG Version: 6.00 Build 0)  -->
<svg version="1.1" id="Layer_1" xmlns="http://www.w3.org/2000/svg" xmlns:xlink="http://www.w3.org/1999/xlink" x="0px" y="0px"
	 viewBox="0 0 128 128" style="enable-background:new 0 0 128 128;" xml:space="preserve">
<style type="text/css">
	.st0{fill:#C4D7D3;}
	.st1{fill:#27ae60;}
	.st2{fill:#FFFFFF;}
	.st3{fill:#185849;}
	.st4{fill:#E9EBDF;}
	.st5{fill:#4D9987;}
	.st6{fill:#0E352C;}
	.st7{fill:none;}
</style>
<g id="Layer_1_1_">
</g>
<g>
	<g id="Layer_2_1_">
		<g id="Industries_1_">
			<g>
				<g>
					<g>
						<g>
							<path class="st0" d="M80.2,5.2L80.2,5.2c-0.5-0.3-1.2-0.3-1.9,0.2L62,14.7c-1.6,0.9-3,3.5-3,5.7V75c0,1.2,0.4,2,1,2.4l0,0
								l31,17.8L111.1,23L80.2,5.2z"/>
							<path class="st0" d="M91,96.2c-0.2,0-0.3,0-0.5-0.1L59.6,78.2c0,0-0.1,0-0.1-0.1c-0.9-0.6-1.4-1.7-1.4-3.2V20.4
								c0-2.5,1.5-5.4,3.5-6.5l16.2-9.4c1-0.6,2-0.6,2.9-0.2h0.1l30.9,17.8c0.4,0.2,0.6,0.7,0.5,1.1L92,95.5
								c-0.1,0.3-0.3,0.5-0.6,0.7C91.3,96.2,91.1,96.2,91,96.2z M60.7,76.5l29.7,17.2l19.5-70.2L79.8,6.1c0,0,0,0-0.1,0
								c-0.3-0.2-0.7,0-0.9,0.2l-16.2,9.4c-1.3,0.8-2.5,3-2.5,4.8v54.6C60.1,75.8,60.3,76.3,60.7,76.5
								C60.6,76.5,60.7,76.5,60.7,76.5z"/>
						</g>
						<g>
							<path class="st1" d="M81.9,54.6c-0.6,0-1-0.4-1-1V37.5c0-0.6,0.4-1,1-1s1,0.4,1,1v16.1C82.9,54.1,82.5,54.6,81.9,54.6z"/>
							<g>
								<path class="st1" d="M68.9,47.1c-0.6,0-1-0.4-1-1V30c0-0.6,0.4-1,1-1s1,0.4,1,1v16.1C69.9,46.6,69.5,47.1,68.9,47.1z"/>
								<path class="st1" d="M75.4,50.8c-0.6,0-1-0.4-1-1v-16c0-0.6,0.4-1,1-1s1,0.4,1,1v16.1C76.4,50.4,76,50.8,75.4,50.8z"/>
							</g>
						</g>
						<path class="st2" d="M80.2,5.2c-0.5-0.3-1.2-0.3-1.9,0.2L62,14.7c-0.9,0.5-1.6,1.4-2.2,2.5l45.5,26.3L111,23L80.2,5.2
							L80.2,5.2z"/>
						<g>
							<path class="st1" d="M109.2,85.7L93,95c-1.6,0.9-3-0.1-3-2.2V38.2c0-2.2,1.3-4.7,3-5.7l16.2-9.4c1.6-0.9,3,0.1,3,2.2V80
								C112.1,82.2,110.8,84.7,109.2,85.7z"/>
							<path class="st2" d="M91.8,96.4c-0.4,0-0.9-0.1-1.3-0.3c-1-0.6-1.5-1.8-1.5-3.3V38.2c0-2.5,1.5-5.4,3.5-6.5l16.2-9.4
								c1-0.6,2.1-0.7,2.9-0.2c1,0.6,1.5,1.8,1.5,3.3V80c0,2.5-1.5,5.4-3.5,6.5l-16.2,9.4C92.9,96.2,92.3,96.4,91.8,96.4z
								 M110.3,23.8c-0.2,0-0.5,0.1-0.7,0.2l-16.2,9.4c-1.3,0.8-2.5,3-2.5,4.8v54.6c0,0.9,0.3,1.4,0.5,1.5c0.3,0.2,0.7,0,0.9-0.2
								l16.2-9.4l0,0c1.3-0.8,2.5-3,2.5-4.8V25.5c0-0.9-0.3-1.4-0.5-1.5C110.5,23.9,110.4,23.8,110.3,23.8z"/>
						</g>
						<g>
							<path class="st3" d="M103.7,82.3l-5.3,3.1c-0.7,0.4-1.3,1.6-1.3,2.6v4.7l8-4.6v-4.7C105.1,82.3,104.5,81.9,103.7,82.3z"/>
							<path class="st3" d="M97.1,93.7c-0.2,0-0.3,0-0.5-0.1c-0.3-0.2-0.5-0.5-0.5-0.9V88c0-1.3,0.8-2.8,1.8-3.4l5.3-3.1
								c0.6-0.4,1.3-0.4,1.9-0.1c0.6,0.4,1,1.1,1,1.9V88c0,0.4-0.2,0.7-0.5,0.9l-8,4.6C97.4,93.6,97.2,93.7,97.1,93.7z M104.1,83.3
								l-5.2,3c-0.4,0.2-0.8,1-0.8,1.7v3l6-3.5V83.3L104.1,83.3z M103.7,82.3L103.7,82.3L103.7,82.3z"/>
						</g>
						<path class="st3" d="M91.8,96.4c-0.4,0-0.8-0.1-1.2-0.3h-0.1L59.6,78.2c0,0-0.1,0-0.1-0.1c-0.9-0.6-1.4-1.7-1.4-3.2V20.4
							c0-2.5,1.5-5.4,3.5-6.5l16.2-9.4c1-0.6,2-0.6,2.9-0.2h0.1l30.9,17.8c0,0,0.1,0,0.1,0.1c0.9,0.6,1.4,1.7,1.4,3.2V80
							c0,2.5-1.5,5.4-3.5,6.5l-16.2,9.4C92.9,96.2,92.3,96.4,91.8,96.4z M91.4,94.3C91.5,94.3,91.5,94.3,91.4,94.3
							c0.4,0.2,0.8,0,1-0.1l16.2-9.4c1.3-0.8,2.5-3,2.5-4.8V25.5c0-0.9-0.3-1.4-0.5-1.5c0,0,0,0-0.1,0L79.8,6.1c0,0,0,0-0.1,0
							c-0.3-0.2-0.7,0-0.9,0.2l-16.2,9.4c-1.3,0.8-2.5,3-2.5,4.8v54.6c0,0.9,0.3,1.4,0.5,1.5c0,0,0.1,0,0.1,0.1L91.4,94.3z"/>
					</g>
					<g>
						<g>
							<path class="st4" d="M65.9,110.5l-19.5,11.3c-0.7,0.4-1.9,0.4-2.6,0l-10.5-6.1c-0.7-0.4-0.7-1.1,0-1.5l19.5-11.3
								c0.7-0.4,1.9-0.4,2.6,0l10.5,6.1C66.6,109.4,66.6,110.1,65.9,110.5z"/>
							<path class="st5" d="M60.5,105.9l-5.1-2.9c-0.7-0.4-1.9-0.4-2.6,0l-19.5,11.3c-0.7,0.4-0.7,1.1,0,1.5l5.1,2.9L60.5,105.9z"/>
							<path class="st6" d="M45.1,123.1c-0.6,0-1.3-0.1-1.8-0.4l-10.5-6.1c-0.7-0.4-1-1-1-1.6s0.4-1.2,1-1.6l19.5-11.3
								c1-0.6,2.6-0.6,3.6,0l10.5,6.1c0.7,0.4,1,1,1,1.6s-0.4,1.2-1,1.6l0,0l-19.5,11.3C46.4,122.9,45.7,123.1,45.1,123.1z
								 M34,114.9l10.3,5.9c0.4,0.2,1.2,0.2,1.6,0l19.3-11.2l-10.3-5.9c-0.4-0.2-1.2-0.2-1.6,0L34,114.9z M33.7,115.1L33.7,115.1
								L33.7,115.1z M33.7,114.8L33.7,114.8L33.7,114.8z M65.9,110.5L65.9,110.5L65.9,110.5z"/>
							<g>
								<path class="st4" d="M81.6,40.3l-5.4-3.1l0,0c-0.2-0.2-0.5-0.2-0.8,0L17,70.9c-0.6,0.4-1.1,1.3-1.1,2.2v45.8
									c0,0.5,0.2,0.8,0.4,0.9l0,0l5.4,3.1l5.9-8.8l48.2-27.9c0.6-0.4,1.1-1.3,1.1-2.2V45.7L81.6,40.3z"/>
								<path class="st5" d="M21.7,123.9c-0.2,0-0.3,0-0.5-0.1l-5.4-3.1c-0.1,0-0.1-0.1-0.2-0.1c-0.5-0.4-0.7-0.9-0.7-1.7V73.1
									c0-1.2,0.7-2.5,1.6-3l58.4-33.7c0.5-0.3,1.1-0.3,1.6-0.1c0.1,0,0.1,0,0.2,0.1l5.4,3.1c0.3,0.1,0.4,0.4,0.5,0.7
									s0,0.6-0.2,0.8L78,46.1v38c0,1.2-0.7,2.5-1.6,3l-48,27.7l-5.8,8.6C22.3,123.8,22,123.9,21.7,123.9z M16.9,119l4.5,2.6
									l5.4-8.1c0.1-0.1,0.2-0.2,0.3-0.3l48.2-27.9c0.3-0.2,0.6-0.8,0.6-1.3V45.7c0-0.2,0.1-0.5,0.2-0.6l3.9-4.5l-4.2-2.4
									L17.5,71.8c-0.3,0.2-0.6,0.8-0.6,1.3V119C16.9,118.9,16.9,119,16.9,119z M16.8,118.9L16.8,118.9L16.8,118.9z"/>
							</g>
							<path class="st2" d="M57.8,96.2L77,63.1V45.7l4.6-5.5l-5.4-3.1l0,0C76,37,75.7,37,75.4,37.2L17,70.9
								c-0.4,0.2-0.7,0.7-0.9,1.2L57.8,96.2z"/>
							<path class="st5" d="M21.7,123.9c-0.2,0-0.3,0-0.5-0.1l-5.4-3.1c-0.1,0-0.1-0.1-0.2-0.1c-0.5-0.4-0.7-0.9-0.7-1.7V73.1
								c0-1.2,0.7-2.5,1.6-3l58.4-33.7c0.5-0.3,1.1-0.3,1.6-0.1c0.1,0,0.1,0,0.2,0.1l5.4,3.1c0.3,0.1,0.4,0.4,0.5,0.7s0,0.6-0.2,0.8
								L78,46.1v38c0,1.2-0.7,2.5-1.6,3l-48,27.7l-5.8,8.6C22.3,123.8,22,123.9,21.7,123.9z M16.9,119l4.5,2.6l5.4-8.1
								c0.1-0.1,0.2-0.2,0.3-0.3l48.2-27.9c0.3-0.2,0.6-0.8,0.6-1.3V45.7c0-0.2,0.1-0.5,0.2-0.6l3.9-4.5l-4.2-2.4L17.5,71.8
								c-0.3,0.2-0.6,0.8-0.6,1.3V119C16.9,118.9,16.9,119,16.9,119z M16.8,118.9L16.8,118.9L16.8,118.9z"/>
							<path class="st4" d="M80.8,89.1l-58.4,33.7c-0.6,0.4-1.1,0-1.1-0.9V76.2c0-0.8,0.5-1.8,1.1-2.2l58.4-33.7
								c0.6-0.4,1.1,0,1.1,0.9V87C82,87.8,81.5,88.8,80.8,89.1z"/>
							<path class="st2" d="M23.1,121.4c-0.2,0-0.3,0-0.5-0.1c-0.3-0.2-0.5-0.5-0.5-0.9V76.2c0-0.5,0.3-1.1,0.6-1.4l0.1-0.1
								l56.8-32.8c0.3-0.2,0.7-0.2,1,0s0.5,0.5,0.5,0.9V87c0,0.5-0.3,1.1-0.6,1.4l-0.1,0.1l-56.8,32.8
								C23.4,121.4,23.3,121.4,23.1,121.4z M24.1,76.3v42.4l55.1-31.8V44.5L24.1,76.3z M24.1,76.2L24.1,76.2L24.1,76.2L24.1,76.2z"
								/>
							<path class="st2" d="M22.4,74c-0.6,0.4-1.1,1.3-1.1,2.2V122c0,0.8,0.5,1.2,1.1,0.9l8.1-4.7L72.8,45L22.4,74z"/>
							<path class="st5" d="M22,124c-0.3,0-0.5-0.1-0.8-0.2c-0.6-0.3-0.9-1-0.9-1.8V76.2c0-1.2,0.7-2.5,1.6-3l58.4-33.7
								c0.6-0.3,1.2-0.4,1.7-0.1c0.6,0.3,0.9,1,0.9,1.8V87c0,1.2-0.7,2.5-1.6,3l-58.4,33.7C22.6,123.9,22.3,124,22,124z M81,41.4
								L22.9,74.9c-0.3,0.2-0.6,0.8-0.6,1.3v45.6l58.1-33.5l0,0c0.3-0.2,0.6-0.8,0.6-1.3C81,87,81,41.4,81,41.4z"/>
							<path class="st6" d="M22,124c-0.2,0-0.3,0-0.5-0.1c0,0-0.1,0-0.2-0.1c-0.1,0-0.1,0-0.2-0.1l-5.4-3.1c-0.1,0-0.1-0.1-0.2-0.1
								c-0.5-0.4-0.7-0.9-0.7-1.7V73.1c0-0.4,0.1-0.9,0.3-1.3c0.1-0.2,0.1-0.3,0.2-0.5l0.1-0.1c0.1-0.1,0.1-0.2,0.2-0.3l0.1-0.1
								c0.1-0.1,0.2-0.2,0.2-0.3l0.1-0.1c0.1-0.1,0.3-0.2,0.4-0.3l58.4-33.7c0.5-0.3,1.1-0.3,1.6-0.1c0.1,0,0.1,0,0.2,0.1l5.4,3.1
								c0.1,0,0.1,0.1,0.2,0.1c0.5,0.4,0.7,0.9,0.7,1.7V87c0,0.7-0.2,1.5-0.7,2.1c-0.3,0.4-0.6,0.7-1,0.9l-58.4,33.7
								C22.6,123.9,22.3,124,22,124L22,124z M16.9,119l5.2,3l8-4.6l50.3-29.1c0.1-0.1,0.2-0.2,0.3-0.3c0.2-0.3,0.3-0.7,0.3-1V41.2
								c0-0.1,0-0.1,0-0.1l-5.1-3L17.5,71.8c0,0-0.1,0-0.1,0.1C17.3,72,17.3,72,17.3,72c-0.1,0.1-0.1,0.2-0.1,0.2
								c-0.1,0.1-0.1,0.2-0.2,0.3c-0.1,0.2-0.1,0.4-0.1,0.6v45.8C16.9,118.9,16.9,119,16.9,119z M16.8,118.9L16.8,118.9L16.8,118.9z
								 M81.1,41.1L81.1,41.1L81.1,41.1z"/>
						</g>
					</g>
					<path class="st0" d="M103.1,23.8l-8.8,5.1c-0.6,0.3-1.5,0.3-2.1,0L88.9,27c-0.6-0.3-0.6-0.9,0-1.2l8.8-5.1
						c0.6-0.3,1.5-0.3,2.1,0l3.3,1.9C103.7,22.9,103.7,23.4,103.1,23.8z"/>
					<g>
						<path class="st0" d="M106.9,35.6l-11.7,6.8c-0.4,0.2-0.6,0-0.6-0.5v-2c0-0.5,0.3-1,0.6-1.2l11.7-6.8c0.4-0.2,0.6,0,0.6,0.5v2
							C107.6,34.8,107.3,35.4,106.9,35.6z"/>
						<path class="st0" d="M95,42.9c-0.1,0-0.3,0-0.4-0.1c-0.3-0.2-0.5-0.5-0.5-1v-2c0-0.7,0.4-1.4,0.9-1.7l11.7-6.8
							c0.3-0.2,0.7-0.2,0.9,0c0.3,0.2,0.5,0.5,0.5,1v2c0,0.7-0.4,1.4-0.9,1.7l-11.7,6.8C95.3,42.9,95.1,42.9,95,42.9z M107.1,32.3
							L95.5,39c-0.2,0.1-0.4,0.5-0.4,0.8v2l11.6-6.7c0.2-0.1,0.4-0.5,0.4-0.8V32.3z"/>
					</g>
					<path class="st1" d="M88,21.2c-0.2,0-0.3,0-0.5-0.1L76,14.4c-0.5-0.3-0.6-0.9-0.4-1.4c0.3-0.5,0.9-0.6,1.4-0.4l11.5,6.7
						c0.5,0.3,0.6,0.9,0.4,1.4C88.7,21,88.4,21.2,88,21.2z"/>
					
						<ellipse transform="matrix(0.3916 -0.9201 0.9201 0.3916 28.3507 122.6163)" class="st3" cx="106.9" cy="39.9" rx="1.5" ry="0.9"/>
					
						<ellipse transform="matrix(0.3916 -0.9201 0.9201 0.3916 -4.6785 144.4633)" class="st3" cx="106.9" cy="75.8" rx="2.3" ry="1.3"/>
					
						<ellipse transform="matrix(0.3916 -0.9201 0.9201 0.3916 -9.0049 142.336)" class="st0" cx="103.1" cy="78" rx="1.5" ry="0.9"/>
					<g>
						<g>
							
								<ellipse transform="matrix(0.3916 -0.9201 0.9201 0.3916 17.3689 130.157)" class="st3" cx="107.1" cy="51.9" rx="1.1" ry="0.6"/>
							
								<ellipse transform="matrix(0.3916 -0.9201 0.9201 0.3916 13.9437 128.4193)" class="st3" cx="104.1" cy="53.7" rx="1.1" ry="0.6"/>
							
								<ellipse transform="matrix(0.3916 -0.9201 0.9201 0.3916 10.5185 126.6817)" class="st3" cx="101.1" cy="55.4" rx="1.1" ry="0.6"/>
							
								<ellipse transform="matrix(0.3916 -0.9201 0.9201 0.3916 7.1132 125.0525)" class="st3" cx="98.1" cy="57.1" rx="1.1" ry="0.6"/>
							
								<ellipse transform="matrix(0.3916 -0.9201 0.9201 0.3916 3.6881 123.3148)" class="st3" cx="95.1" cy="58.9" rx="1.1" ry="0.6"/>
						</g>
						<g>
							
								<ellipse transform="matrix(0.3916 -0.9201 0.9201 0.3916 13.6883 132.591)" class="st3" cx="107.1" cy="55.9" rx="1.1" ry="0.6"/>
							
								<ellipse transform="matrix(0.3916 -0.9201 0.9201 0.3916 10.2631 130.8533)" class="st3" cx="104.1" cy="57.7" rx="1.1" ry="0.6"/>
							
								<ellipse transform="matrix(0.3916 -0.9201 0.9201 0.3916 6.8378 129.1156)" class="st3" cx="101.1" cy="59.4" rx="1.1" ry="0.6"/>
							
								<ellipse transform="matrix(0.3916 -0.9201 0.9201 0.3916 3.4326 127.4865)" class="st3" cx="98.1" cy="61.1" rx="1.1" ry="0.6"/>
							
								<ellipse transform="matrix(0.3916 -0.9201 0.9201 0.3916 7.473154e-03 125.7487)" class="st3" cx="95.1" cy="62.9" rx="1.1" ry="0.6"/>
						</g>
						<g>
							
								<ellipse transform="matrix(0.3916 -0.9201 0.9201 0.3916 10.0077 135.025)" class="st3" cx="107.1" cy="59.9" rx="1.1" ry="0.6"/>
							
								<ellipse transform="matrix(0.3916 -0.9201 0.9201 0.3916 6.5824 133.2872)" class="st3" cx="104.1" cy="61.7" rx="1.1" ry="0.6"/>
							
								<ellipse transform="matrix(0.3916 -0.9201 0.9201 0.3916 3.1572 131.5496)" class="st3" cx="101.1" cy="63.4" rx="1.1" ry="0.6"/>
							
								<ellipse transform="matrix(0.3916 -0.9201 0.9201 0.3916 -0.2481 129.9204)" class="st3" cx="98.1" cy="65.1" rx="1.1" ry="0.6"/>
							
								<ellipse transform="matrix(0.3916 -0.9201 0.9201 0.3916 -3.6732 128.1827)" class="st3" cx="95.1" cy="66.9" rx="1.1" ry="0.6"/>
						</g>
						<g>
							
								<ellipse transform="matrix(0.3916 -0.9201 0.9201 0.3916 6.3269 137.4589)" class="st3" cx="107.1" cy="63.9" rx="1.1" ry="0.6"/>
							
								<ellipse transform="matrix(0.3916 -0.9201 0.9201 0.3916 2.9017 135.7212)" class="st3" cx="104.1" cy="65.7" rx="1.1" ry="0.6"/>
							
								<ellipse transform="matrix(0.3916 -0.9201 0.9201 0.3916 -0.5235 133.9836)" class="st3" cx="101.1" cy="67.4" rx="1.1" ry="0.6"/>
							
								<ellipse transform="matrix(0.3916 -0.9201 0.9201 0.3916 -3.9286 132.3544)" class="st3" cx="98.1" cy="69.1" rx="1.1" ry="0.6"/>
							
								<ellipse transform="matrix(0.3916 -0.9201 0.9201 0.3916 -7.3538 130.6167)" class="st3" cx="95.1" cy="70.9" rx="1.1" ry="0.6"/>
						</g>
						<g>
							
								<ellipse transform="matrix(0.3916 -0.9201 0.9201 0.3916 2.6463 139.8929)" class="st3" cx="107.1" cy="67.9" rx="1.1" ry="0.6"/>
							
								<ellipse transform="matrix(0.3916 -0.9201 0.9201 0.3916 -0.7789 138.1552)" class="st3" cx="104.1" cy="69.7" rx="1.1" ry="0.6"/>
							
								<ellipse transform="matrix(0.3916 -0.9201 0.9201 0.3916 -4.2041 136.4176)" class="st3" cx="101.1" cy="71.4" rx="1.1" ry="0.6"/>
							
								<ellipse transform="matrix(0.3916 -0.9201 0.9201 0.3916 -7.6093 134.7883)" class="st3" cx="98.1" cy="73.1" rx="1.1" ry="0.6"/>
							
								<ellipse transform="matrix(0.3916 -0.9201 0.9201 0.3916 -11.0345 133.0506)" class="st3" cx="95.1" cy="74.9" rx="1.1" ry="0.6"/>
						</g>
						<g>
							
								<ellipse transform="matrix(0.3916 -0.9201 0.9201 0.3916 21.0496 127.723)" class="st3" cx="107.1" cy="47.9" rx="1.1" ry="0.6"/>
							
								<ellipse transform="matrix(0.3916 -0.9201 0.9201 0.3916 17.6244 125.9853)" class="st3" cx="104.1" cy="49.7" rx="1.1" ry="0.6"/>
							
								<ellipse transform="matrix(0.3916 -0.9201 0.9201 0.3916 14.1992 124.2477)" class="st3" cx="101.1" cy="51.4" rx="1.1" ry="0.6"/>
							
								<ellipse transform="matrix(0.3916 -0.9201 0.9201 0.3916 10.7939 122.6185)" class="st3" cx="98.1" cy="53.1" rx="1.1" ry="0.6"/>
							
								<ellipse transform="matrix(0.3916 -0.9201 0.9201 0.3916 7.3687 120.8809)" class="st3" cx="95.1" cy="54.9" rx="1.1" ry="0.6"/>
						</g>
					</g>
				</g>
				<rect x="4" y="4" class="st7" width="120" height="120"/>
				<rect x="4" y="4" class="st7" width="120" height="120"/>
			</g>
		</g>
	</g>
	<g>
		<rect class="st7" width="128" height="128"/>
	</g>
</g>
</svg>
