<?xml version="1.0" encoding="utf-8"?>
<!-- Generator: Adobe Illustrator 24.1.0, SVG Export Plug-In . SVG Version: 6.00 Build 0)  -->
<svg version="1.1" id="Layer_1" xmlns="http://www.w3.org/2000/svg" xmlns:xlink="http://www.w3.org/1999/xlink" x="0px" y="0px"
	 viewBox="0 0 128 128" style="enable-background:new 0 0 128 128;" xml:space="preserve">
<style type="text/css">
	.st0{fill:#E9EBDF;}
	.st1{fill:#4D9987;}
	.st2{fill:#0E352C;}
	.st3{fill:#FFFFFF;}
	.st4{fill:#C4D7D3;}
	.st5{fill:#27ae60;}
	.st6{fill:#185849;}
	.st7{fill:none;}
</style>
<g id="Layer_1_1_">
</g>
<g>
	<g id="Layer_2_1_">
		<g id="Layer_6_1_">
			<g>
				<g>
					<polygon class="st0" points="78.8,72 46.9,90.4 44.8,86.3 76.7,67.9 					"/>
					<path class="st1" d="M46.9,91.4c-0.1,0-0.2,0-0.3,0c-0.3-0.1-0.5-0.3-0.6-0.5l-2.1-4c-0.2-0.5-0.1-1.1,0.4-1.3L76.2,67
						c0.2-0.1,0.5-0.2,0.8-0.1s0.5,0.3,0.6,0.5l2.1,4c0.2,0.5,0.1,1.1-0.4,1.3L47.4,91.2C47.3,91.3,47.1,91.4,46.9,91.4z M46.1,86.7
						l1.2,2.3l30.1-17.4l-1.2-2.3L46.1,86.7z"/>
					<path class="st2" d="M46.9,91.4c-0.1,0-0.2,0-0.3,0c-0.3-0.1-0.5-0.3-0.6-0.5l-2.1-4c-0.2-0.5-0.1-1.1,0.4-1.3L76.2,67
						c0.2-0.1,0.5-0.2,0.8-0.1s0.5,0.3,0.6,0.5l2.1,4c0.2,0.5,0.1,1.1-0.4,1.3L47.4,91.2C47.3,91.3,47.1,91.4,46.9,91.4z M46.1,86.7
						l1.2,2.3l30.1-17.4l-1.2-2.3L46.1,86.7z"/>
					<g>
						<polygon class="st0" points="41,61.9 72.8,43.5 72.8,48.6 41,67 						"/>
						<path class="st1" d="M41,68c-0.2,0-0.3,0-0.5-0.1C40.2,67.7,40,67.4,40,67v-5.1c0-0.4,0.2-0.7,0.5-0.9l31.9-18.4
							c0.3-0.2,0.7-0.2,1,0s0.5,0.5,0.5,0.9v5.1c0,0.4-0.2,0.7-0.5,0.9L41.5,67.9C41.3,68,41.1,68,41,68z M42,62.5v2.8l29.9-17.2
							v-2.8L42,62.5z"/>
						<path class="st2" d="M41,68c-0.2,0-0.3,0-0.5-0.1C40.2,67.7,40,67.4,40,67v-5.1c0-0.4,0.2-0.7,0.5-0.9l31.9-18.4
							c0.3-0.2,0.7-0.2,1,0s0.5,0.5,0.5,0.9v5.1c0,0.4-0.2,0.7-0.5,0.9L41.5,67.9C41.3,68,41.1,68,41,68z M42,62.5v2.8l29.9-17.2
							v-2.8L42,62.5z"/>
						<path class="st1" d="M53.3,101.3c0-3.7-2.3-8-5-9.6C47,91,45.9,90.9,45,91.5l0,0l-3.6,2.1l2.2,4.6c0.4,1.7,1.2,3.4,2.2,4.7
							l2.2,4.6l3.6-2.1l0,0C52.7,104.8,53.3,103.4,53.3,101.3"/>
						<path class="st1" d="M48,108.5c-0.1,0-0.2,0-0.3,0c-0.3-0.1-0.5-0.3-0.6-0.5l-2.1-4.5c-1-1.4-1.9-3.1-2.3-4.9l-2.1-4.5
							c-0.2-0.5,0-1,0.4-1.3l3.6-2.1c0,0,0.1,0,0.1-0.1c1.2-0.6,2.7-0.5,4.2,0.3c3.1,1.8,5.5,6.4,5.5,10.5c0,2.2-0.8,4-2.1,4.9
							l-0.1,0.1l-3.6,2.1C48.4,108.4,48.2,108.5,48,108.5z M42.7,93.9l1.8,3.8c0,0.1,0,0.1,0.1,0.2c0.4,1.6,1.1,3.1,2.1,4.3
							c0,0.1,0.1,0.1,0.1,0.2l1.7,3.6l2.5-1.5c0,0,0.1,0,0.1-0.1c0.8-0.4,1.2-1.6,1.2-3.2c0-3.3-2.1-7.3-4.5-8.7
							c-0.6-0.4-1.5-0.7-2.3-0.3c0,0-0.1,0-0.1,0.1L42.7,93.9z"/>
						<path class="st0" d="M49.8,103.4c0,3.7-2.3,5.4-5,3.8c-2.8-1.6-5-5.9-5-9.6s2.3-5.4,5-3.8S49.8,99.7,49.8,103.4"/>
						<path class="st1" d="M46.7,108.8c-0.8,0-1.6-0.2-2.5-0.7c-3.1-1.8-5.5-6.4-5.5-10.5c0-2.3,0.8-4.1,2.2-4.9
							c1.2-0.7,2.8-0.6,4.3,0.3c3.1,1.8,5.5,6.4,5.5,10.5c0,2.3-0.8,4.1-2.2,4.9C48,108.6,47.4,108.8,46.7,108.8z M42.7,94.2
							c-0.3,0-0.5,0.1-0.8,0.2c-0.8,0.4-1.2,1.6-1.2,3.2c0,3.3,2.1,7.3,4.5,8.7c0.6,0.4,1.5,0.7,2.3,0.3c0.8-0.4,1.2-1.6,1.2-3.2
							c0-3.3-2.1-7.3-4.5-8.7C43.8,94.4,43.3,94.2,42.7,94.2z"/>
						<path class="st2" d="M46.7,108.8c-0.8,0-1.6-0.2-2.5-0.7c-3.1-1.8-5.5-6.4-5.5-10.5c0-2.2,0.8-4,2.1-4.9l0.1-0.1l3.6-2.1
							c0,0,0.1,0,0.1-0.1c1.2-0.6,2.7-0.5,4.2,0.3c3.1,1.8,5.5,6.4,5.5,10.5c0,2.2-0.8,4-2.1,4.9l-0.1,0.1l-3.6,2.1
							c0,0-0.1,0-0.1,0.1C47.9,108.7,47.3,108.8,46.7,108.8z M42,94.3C42,94.3,42,94.4,42,94.3c-0.9,0.5-1.3,1.7-1.3,3.3
							c0,3.3,2.1,7.3,4.5,8.7c0.6,0.4,1.5,0.7,2.3,0.3c0,0,0.1,0,0.1-0.1l3.4-1.9c0,0,0.1,0,0.1-0.1c0.8-0.4,1.2-1.6,1.2-3.2
							c0-3.3-2.1-7.3-4.5-8.7c-0.6-0.4-1.5-0.7-2.3-0.3c0,0-0.1,0-0.1,0.1L42,94.3z"/>
						<path class="st1" d="M79.7,116.5c0-3.7-2.3-8-5-9.6c-1.3-0.7-2.4-0.8-3.3-0.3l0,0l-3.6,2.1l2.2,4.6c0.4,1.7,1.2,3.4,2.2,4.7
							l2.2,4.6l3.6-2.1l0,0C79,120,79.7,118.6,79.7,116.5"/>
						<path class="st1" d="M74.4,123.7c-0.1,0-0.2,0-0.3,0c-0.3-0.1-0.5-0.3-0.6-0.5l-2.1-4.5c-1-1.4-1.9-3.1-2.3-4.9l-2.1-4.5
							c-0.2-0.5,0-1,0.4-1.3l3.6-2.1c0,0,0.1,0,0.1-0.1c1.2-0.6,2.7-0.5,4.2,0.3c3.1,1.8,5.5,6.4,5.5,10.5c0,2.2-0.8,4-2.1,4.9
							l-0.1,0.1l-3.6,2.1C74.7,123.6,74.5,123.7,74.4,123.7z M69.1,109.1l1.8,3.8c0,0.1,0,0.1,0.1,0.2c0.4,1.6,1.1,3.1,2.1,4.3
							c0,0.1,0.1,0.1,0.1,0.2l1.7,3.6l2.5-1.5c0,0,0.1,0,0.1-0.1c0.8-0.4,1.2-1.6,1.2-3.2c0-3.3-2.1-7.3-4.5-8.7
							c-0.6-0.4-1.5-0.7-2.3-0.3c0,0-0.1,0-0.1,0.1L69.1,109.1z"/>
						<path class="st0" d="M76.1,118.6c0,3.7-2.3,5.4-5,3.8c-2.8-1.6-5-5.9-5-9.6s2.3-5.4,5-3.8C73.8,110.6,76.1,114.9,76.1,118.6"
							/>
						<path class="st1" d="M72.5,116.5c0,1.1-0.7,1.6-1.5,1.1s-1.5-1.7-1.5-2.8c0-1.1,0.7-1.6,1.5-1.1
							C71.9,114.2,72.5,115.5,72.5,116.5"/>
						<path class="st1" d="M46.2,101.3c0,1.1-0.7,1.6-1.5,1.1s-1.5-1.7-1.5-2.8c0-1.1,0.7-1.6,1.5-1.1S46.2,100.3,46.2,101.3"/>
						<path class="st1" d="M73.1,124c-0.8,0-1.6-0.2-2.5-0.7c-3.1-1.8-5.5-6.4-5.5-10.5c0-2.3,0.8-4.1,2.2-4.9
							c1.2-0.7,2.8-0.6,4.3,0.3c3.1,1.8,5.5,6.4,5.5,10.5c0,2.3-0.8,4.1-2.2,4.9C74.3,123.8,73.7,124,73.1,124z M69.1,109.4
							c-0.3,0-0.5,0.1-0.8,0.2c-0.8,0.4-1.2,1.6-1.2,3.2c0,3.3,2.1,7.3,4.5,8.7c0.6,0.4,1.5,0.7,2.3,0.3c0.8-0.4,1.2-1.6,1.2-3.2
							c0-3.3-2.1-7.3-4.5-8.7C70.1,109.6,69.6,109.4,69.1,109.4z"/>
						<path class="st2" d="M73.1,124c-0.8,0-1.6-0.2-2.5-0.7c-3.1-1.8-5.5-6.4-5.5-10.5c0-2.3,0.8-4,2.1-4.9c0,0,0.1,0,0.1-0.1
							l3.6-2.1c0,0,0.1,0,0.1-0.1c1.2-0.6,2.7-0.5,4.2,0.3c3.1,1.8,5.5,6.4,5.5,10.5c0,2.2-0.8,4-2.1,4.9l-0.1,0.1l-3.6,2.1
							c0,0-0.1,0-0.1,0.1C74.2,123.9,73.6,124,73.1,124z M68.4,109.5C68.3,109.6,68.3,109.6,68.4,109.5c-0.9,0.5-1.3,1.7-1.3,3.3
							c0,3.3,2.1,7.3,4.5,8.7c0.6,0.4,1.5,0.7,2.3,0.3H74l3.4-2c0,0,0.1,0,0.1-0.1c0.8-0.4,1.2-1.6,1.2-3.2c0-3.3-2.1-7.3-4.5-8.7
							c-0.6-0.4-1.5-0.7-2.3-0.3c0,0-0.1,0-0.1,0.1L68.4,109.5z"/>
						<path class="st3" d="M41.8,10.8c0-2.1,1.3-4.5,2.8-5.4C45.3,5,46,5,46.5,5.3l0,0l14.1,8.1L59.4,16c-0.2,1-0.7,1.9-1.3,2.7
							l-1.2,2.6l-14.1-8.1l0,0C42.2,12.7,41.8,11.9,41.8,10.8"/>
						<path class="st0" d="M56.9,21.2l1.2-2.6c0.1-0.2,0.3-0.4,0.4-0.6L42.3,8.5c-0.3,0.7-0.4,1.5-0.4,2.2c0,1.1,0.4,1.9,1,2.3l0,0
							L56.9,21.2z"/>
						<path class="st1" d="M55.9,18.9c0,2.1,1.3,3.1,2.8,2.1c1.6-0.9,2.8-3.3,2.8-5.4s-1.3-3.1-2.8-2.1
							C57.2,14.4,55.9,16.8,55.9,18.9"/>
						<path class="st1" d="M57.6,22.4c-0.4,0-0.8-0.1-1.2-0.3c-0.9-0.5-1.5-1.7-1.5-3.2c0-2.4,1.5-5.2,3.3-6.3c1-0.6,2-0.6,2.9-0.2
							c0.9,0.5,1.5,1.7,1.5,3.2c0,2.4-1.5,5.2-3.3,6.3C58.7,22.2,58.1,22.4,57.6,22.4z M59.9,14.1c-0.2,0-0.5,0.1-0.6,0.2
							C58,15,57,17.1,57,18.9c0,0.9,0.3,1.3,0.5,1.4c0.3,0.2,0.6,0,0.9-0.1c1.3-0.7,2.3-2.8,2.3-4.6c0-0.9-0.3-1.3-0.5-1.4
							C60,14.1,60,14.1,59.9,14.1z"/>
						<path class="st3" d="M10,29.2c0-2.1,1.3-4.5,2.8-5.4c0.7-0.4,1.4-0.4,1.9-0.1l0,0l14.1,8.1l-1.2,2.6c-0.2,1-0.7,1.9-1.3,2.7
							L25,39.6l-14.1-8.1l0,0C10.3,31.1,10,30.3,10,29.2"/>
						<path class="st0" d="M25,39.6l1.2-2.6c0.2-0.2,0.3-0.4,0.4-0.7l-16.3-9.4c-0.3,0.7-0.4,1.5-0.4,2.2c0,1.1,0.4,1.9,1,2.3l0,0
							L25,39.6z"/>
						<path class="st1" d="M24,37.3c0,2.1,1.3,3.1,2.8,2.1c1.6-0.9,2.8-3.3,2.8-5.4s-1.3-3.1-2.8-2.1C25.3,32.8,24,35.2,24,37.3"/>
						<path class="st1" d="M25.7,40.8c-0.4,0-0.8-0.1-1.2-0.3C23.6,40,23,38.8,23,37.3c0-2.4,1.5-5.2,3.3-6.3c1-0.6,2-0.6,2.9-0.2
							c0.9,0.5,1.5,1.7,1.5,3.2c0,2.4-1.5,5.2-3.3,6.3C26.8,40.6,26.3,40.8,25.7,40.8z M28,32.5c-0.2,0-0.5,0.1-0.6,0.2
							c-1.3,0.7-2.3,2.8-2.3,4.6c0,0.9,0.3,1.3,0.5,1.4c0.3,0.2,0.6,0,0.9-0.1c1.3-0.7,2.3-2.8,2.3-4.6c0-0.9-0.3-1.3-0.5-1.4
							C28.2,32.5,28.1,32.5,28,32.5z"/>
						<path class="st0" d="M86.6,113.3c-2.3,0-4.6-0.5-6.4-1.5l-37-21.4c-3-1.7-4.8-4.9-4.8-8.4V49.6c0-2.6-1.4-5-3.6-6.3l-7.3-4.2
							c-1.2-0.7-1.6-2.1-0.9-3.5c0.6-1.3,2.3-1.6,3.5-0.9l7.3,4.2c3.8,2.2,6.2,6.3,6.2,10.7V82c0,1.6,0.9,3.1,2.3,3.9l37,21.4
							c2,1.1,5.6,1.1,7.6,0l21.7-12.5c0.6-0.4,0.8-0.7,0.8-0.7s-0.2-0.3-0.8-0.7L75.1,72c-3-1.7-4.8-4.9-4.8-8.4V31.2
							c0-2.6-1.4-5-3.6-6.3l-7.3-4.2c-1.2-0.7-1.4-2-0.7-3.4c0.6-1.3,2-1.7,3.2-1l7.3,4.2c3.8,2.2,6.2,6.3,6.2,10.7v32.4
							c0,1.6,0.9,3.1,2.3,3.9l37,21.4c2.1,1.2,3.4,3.1,3.4,5.1s-1.2,3.9-3.4,5.1L93,111.7C91.2,112.7,88.9,113.3,86.6,113.3"/>
						<path class="st2" d="M86.6,114.3c-2.5,0-5-0.6-6.9-1.7l-37-21.4c-3.3-1.9-5.3-5.4-5.3-9.2V49.6c0-2.2-1.2-4.3-3.1-5.4
							l-6.8-3.9l-0.1,0.1c-0.9,0.5-1.8,0.6-2.6,0.2c-0.1,0-0.1-0.1-0.2-0.1l-14.1-8.1c0,0-0.1,0-0.1-0.1C9.5,31.7,9,30.6,9,29.2
							c0-2.4,1.5-5.2,3.3-6.3c1-0.6,1.9-0.6,2.8-0.2h0.1l14.1,8.1c0.1,0,0.1,0.1,0.2,0.2c0.8,0.6,1.2,1.6,1.3,2.9l7.1,4.1
							c4.1,2.4,6.7,6.8,6.7,11.6V82c0,1.3,0.7,2.4,1.8,3.1l37,21.4c1.7,1,4.9,1,6.6,0L111.4,94L74.6,72.8c-3.3-1.9-5.3-5.4-5.3-9.2
							V31.2c0-2.2-1.2-4.3-3.1-5.4l-6.8-3.9L59.3,22c-0.9,0.5-1.8,0.6-2.6,0.2c-0.1,0-0.1-0.1-0.2-0.1L42.4,14c0,0-0.1,0-0.1-0.1
							c-0.9-0.6-1.4-1.7-1.4-3.1c0-2.4,1.5-5.2,3.3-6.3c1-0.6,1.9-0.6,2.8-0.2h0.1l14.1,8.1c0.1,0,0.1,0.1,0.2,0.2
							c0.8,0.6,1.2,1.6,1.3,2.9l7.1,4.1c4.1,2.4,6.7,6.8,6.7,11.6v32.4c0,1.3,0.7,2.4,1.8,3.1l37,21.4c2.5,1.4,3.9,3.6,3.9,6
							s-1.4,4.6-3.9,6l-21.7,12.5C91.6,113.7,89.1,114.3,86.6,114.3z M27.5,38c0.2,0,0.4,0.1,0.5,0.2l0.1,0.1l7.2,4.1
							c2.5,1.5,4.1,4.2,4.1,7.1V82c0,3.1,1.7,6,4.3,7.5l37,21.4c1.6,0.9,3.7,1.4,5.9,1.4c2.2,0,4.3-0.5,5.9-1.4l21.7-12.5
							c1.8-1.1,2.9-2.6,2.9-4.3c0-1.7-1-3.2-2.9-4.3l0,0l-37-21.4c-1.7-1-2.8-2.8-2.8-4.8V31.2c0-4-2.2-7.8-5.7-9.8l-7.3-4.2
							c-0.1,0-0.2-0.1-0.3-0.1c-0.4-0.2-0.7-0.6-0.7-1V16c0-0.1,0-0.2,0-0.2c0-0.8-0.3-1.3-0.5-1.4c-0.1,0-0.1-0.1-0.2-0.1l-13.8-8
							c0,0,0,0-0.1,0c-0.3-0.1-0.6,0-0.9,0.1c-1.3,0.7-2.3,2.8-2.3,4.6c0,0.8,0.3,1.3,0.5,1.4c0,0,0,0,0.1,0l13.9,8
							c0.1,0,0.1,0,0.2,0.1c0.3,0.1,0.6,0,0.8-0.1c0.1-0.1,0.3-0.2,0.4-0.3c0.3-0.3,0.8-0.3,1.2-0.1l0.1,0.1l7.2,4.1
							c2.5,1.5,4.1,4.2,4.1,7.1v32.4c0,3.1,1.7,6,4.3,7.5l37,21.4c0.8,0.5,1.1,0.9,1.2,1.1s0.2,0.5,0.1,0.8
							c-0.1,0.5-0.6,0.9-1.3,1.3l-21.7,12.5c-2.3,1.3-6.3,1.3-8.6,0l-37-21.4c-1.7-1-2.8-2.8-2.8-4.8V49.6c0-4-2.2-7.8-5.7-9.8
							l-7.3-4.2c-0.1,0-0.2-0.1-0.3-0.1c-0.4-0.2-0.7-0.6-0.7-1v-0.1c0-0.1,0-0.2,0-0.2c0-0.8-0.3-1.3-0.5-1.4
							c-0.1,0-0.1-0.1-0.2-0.1l-13.8-8h-0.1c-0.3-0.2-0.6,0-0.9,0.1C12,25.3,11,27.4,11,29.2c0,0.8,0.3,1.3,0.5,1.4c0,0,0,0,0.1,0
							l13.9,8c0.1,0,0.1,0,0.2,0.1c0.3,0.1,0.6,0,0.8-0.1c0.1-0.1,0.3-0.2,0.4-0.3C27,38.1,27.2,38,27.5,38z"/>
					</g>
					<g>
						<g>
							<path class="st3" d="M112.5,61.5L112.5,61.5L92.2,49.8c-1.7-1-3.7-1-5.4,0l-26,15c-1.4,0.8-2.5,2.9-2.5,4.7v22.3
								c0,1.9,1,3.7,2.7,4.7l17,9.8c1.7,1,3.7,1,5.4,0l27.3-15.8c1.7-1,2.7-2.7,2.7-4.7V63.5C113.4,62.5,113.1,61.8,112.5,61.5z"/>
						</g>
						<path class="st4" d="M83.2,77.7l27.7-16c1.4-0.8,2.5,0,2.5,1.9v3.7L80.8,86.1v-3.7C80.8,80.6,81.9,78.5,83.2,77.7"/>
						<g>
							<path class="st4" d="M78.1,84.5L58.4,73.2v18.6c0,0.7,0.1,1.4,0.4,2.1c0.4,1.1,1.2,2,2.3,2.6l17,9.8c0.8,0.5,1.8,0.7,2.7,0.7
								V85.2C79.8,85.2,78.9,85,78.1,84.5z"/>
						</g>
						<g>
							<path class="st5" d="M83.4,84.5c-0.8,0.5-1.8,0.7-2.7,0.7v21.7c0.9,0,1.9-0.2,2.7-0.7l27.3-15.8c1.7-1,2.7-2.7,2.7-4.7V67.2
								L83.4,84.5z"/>
						</g>
						<g>
							<path class="st1" d="M80.8,107.9c-1.1,0-2.2-0.3-3.2-0.9l-17-9.8c-1.2-0.7-2.2-1.8-2.7-3.1c-0.3-0.8-0.5-1.6-0.5-2.4V73.2
								c0-0.4,0.2-0.7,0.5-0.9c0.3-0.2,0.7-0.2,1,0l19.7,11.4l0,0c0.7,0.4,1.4,0.6,2.2,0.6c0.6,0,1,0.4,1,1V107
								C81.8,107.5,81.3,107.9,80.8,107.9L80.8,107.9z M59.4,74.9v16.8c0,0.6,0.1,1.1,0.3,1.7c0.4,0.9,1,1.6,1.9,2.1l17,9.8
								c0.4,0.2,0.8,0.4,1.2,0.5V86.2c-0.8-0.1-1.5-0.4-2.2-0.8L59.4,74.9z"/>
						</g>
						<path class="st5" d="M80.8,87.1c-0.2,0-0.3,0-0.5-0.1c-0.3-0.2-0.5-0.5-0.5-0.9v-3.7c0-2.2,1.3-4.6,3-5.6l27.7-16
							c0.9-0.5,1.9-0.6,2.6-0.1c0.9,0.5,1.4,1.5,1.4,2.9v3.7c0,0.4-0.2,0.7-0.5,0.9L81.3,87C81.1,87.1,80.9,87.1,80.8,87.1z
							 M111.9,62.4c-0.1,0-0.3,0.1-0.5,0.2l-27.7,16l0,0c-1,0.6-2,2.4-2,3.8v2l30.7-17.7v-3.1c0-0.6-0.2-1-0.4-1.1
							C112,62.4,112,62.4,111.9,62.4z M83.2,77.7L83.2,77.7L83.2,77.7z"/>
						<g>
							<path class="st5" d="M80.8,107.9c-0.6,0-1-0.4-1-1V85.2c0-0.6,0.4-1,1-1c0.8,0,1.5-0.2,2.2-0.6l0,0l30-17.3
								c0.3-0.2,0.7-0.2,1,0s0.5,0.5,0.5,0.9v18.6c0,2.3-1.2,4.4-3.2,5.5L84,107.1C83,107.6,81.9,107.9,80.8,107.9z M81.8,86.2v19.7
								c0.4-0.1,0.8-0.3,1.2-0.5l27.3-15.8c1.3-0.8,2.2-2.2,2.2-3.8V69L83.9,85.4l0,0C83.3,85.8,82.5,86,81.8,86.2z"/>
						</g>
						<path class="st4" d="M91,77.4v3.9c0,1.9,1.2,2.8,2.6,2l6-3.5c1.4-0.8,2.6-3,2.6-4.9v-4L91,77.4z"/>
						<g>
							<path class="st6" d="M80.8,107.9c-1.1,0-2.2-0.3-3.2-0.9l-17-9.8c-2-1.1-3.2-3.2-3.2-5.5V69.4c0-2.2,1.3-4.6,3-5.6l26-15
								c2-1.1,4.4-1.1,6.4,0l20.4,11.8c0.1,0,0.1,0.1,0.2,0.1c0.7,0.5,1.2,1.5,1.2,2.7v22.3c0,2.3-1.2,4.4-3.2,5.5L84.1,107
								C83,107.7,81.9,107.9,80.8,107.9z M89.5,50c-0.8,0-1.5,0.2-2.2,0.6l-26,15c-1,0.6-2,2.4-2,3.8v22.3c0,1.6,0.8,3,2.2,3.8
								l17,9.8c1.3,0.8,3,0.8,4.4,0l27.3-15.8c1.3-0.8,2.2-2.2,2.2-3.8V63.5c0-0.7-0.2-1-0.4-1.1c-0.1,0-0.1-0.1-0.2-0.1L91.7,50.6
								C91,50.2,90.2,50,89.5,50z"/>
						</g>
						<path class="st6" d="M80.8,86.2c-1.1,0-2.2-0.3-3.2-0.9L57.9,74c-0.5-0.3-0.6-0.9-0.4-1.4c0.3-0.5,0.9-0.6,1.4-0.4l19.7,11.4
							c1.3,0.8,3,0.8,4.4,0l30-17.3c0.5-0.3,1.1-0.1,1.4,0.4s0.1,1.1-0.4,1.4L84,85.4C83,86,81.9,86.2,80.8,86.2z"/>
					</g>
				</g>
				<rect x="4" y="4" class="st7" width="120" height="120"/>
			</g>
		</g>
	</g>
	<g>
		<rect class="st7" width="128" height="128"/>
	</g>
</g>
</svg>
