<?xml version="1.0" encoding="utf-8"?>
<!-- Generator: Adobe Illustrator 24.1.0, SVG Export Plug-In . SVG Version: 6.00 Build 0)  -->
<svg version="1.1" id="Layer_1" xmlns="http://www.w3.org/2000/svg" xmlns:xlink="http://www.w3.org/1999/xlink" x="0px" y="0px"
	 viewBox="0 0 128 128" style="enable-background:new 0 0 128 128;" xml:space="preserve">
<style type="text/css">
	.st0{fill:#185849;}
	.st1{fill:#C4D7D3;}
	.st2{fill:#27ae60;}
	.st3{fill:#FFFFFF;}
	.st4{fill:#4D9987;}
	.st5{fill:#E9EBDF;}
	.st6{fill:#0E352C;}
	.st7{fill:none;}
</style>
<g id="Layer_1_1_">
</g>
<g>
	<g id="Layer_2_1_">
		<g id="Industries_1_">
			<g>
				<g>
					<g>
						<path class="st0" d="M69.4,40.8c-0.3,0-0.5-0.1-0.7-0.3l-0.1-0.1c0-0.1-0.1-0.1-0.1-0.2c0-0.1-0.1-0.1-0.1-0.2
							c0-0.1,0-0.1,0-0.2c0-0.1,0-0.3,0.1-0.4c0-0.1,0.1-0.2,0.2-0.3c0.3-0.3,0.7-0.4,1.1-0.2c0.1,0.1,0.2,0.1,0.3,0.2
							c0.1,0.1,0.2,0.2,0.2,0.3c0.1,0.1,0.1,0.2,0.1,0.4c0,0.1,0,0.1,0,0.2c0,0.1,0,0.1-0.1,0.2c0,0.1-0.1,0.1-0.1,0.2
							c0,0.1-0.1,0.1-0.1,0.1c-0.1,0.1-0.2,0.2-0.3,0.2S69.6,40.8,69.4,40.8z"/>
						<path class="st0" d="M60,45.2c-0.3-0.5-0.1-1.1,0.4-1.4l0,0c0.5-0.3,1.1-0.1,1.4,0.4l0,0c0.3,0.5,0.1,1.1-0.4,1.4l0,0
							c-0.2,0.1-0.3,0.1-0.5,0.1l0,0C60.5,45.7,60.2,45.6,60,45.2z M64.3,42.8c-0.3-0.5-0.1-1.1,0.4-1.4l0,0
							c0.5-0.3,1.1-0.1,1.4,0.4l0,0c0.3,0.5,0.1,1.1-0.4,1.4l0,0c-0.2,0.1-0.3,0.1-0.5,0.1l0,0C64.8,43.3,64.5,43.1,64.3,42.8z"/>
						<path class="st0" d="M56.6,48.2c-0.3,0-0.5-0.1-0.7-0.3s-0.3-0.4-0.3-0.7s0.1-0.5,0.3-0.7c0.4-0.4,1-0.4,1.4,0
							c0.2,0.2,0.3,0.4,0.3,0.7s-0.1,0.5-0.3,0.7C57.1,48.1,56.8,48.2,56.6,48.2z"/>
					</g>
					<g>
						<g>
							<path class="st1" d="M69.4,41l31.8,18.4c0.6,0.3,1.6,0.3,2.2,0l19.1-11.1c0.6-0.3,0.6-0.9,0-1.3L90.8,28.7
								c-0.6-0.3-1.6-0.3-2.2,0L69.4,39.8C68.8,40.1,68.8,40.7,69.4,41z"/>
							<path class="st2" d="M102.3,60.6c-0.6,0-1.1-0.1-1.6-0.4L68.9,41.9l0,0C68.3,41.5,68,41,68,40.4s0.3-1.1,0.9-1.5L88,27.8
								c0.9-0.5,2.3-0.5,3.2,0L123,46.2c0.6,0.3,0.9,0.9,0.9,1.5s-0.3,1.1-0.9,1.5l-19.1,11.1C103.5,60.5,102.9,60.6,102.3,60.6z
								 M70.4,40.4l31.4,18.1c0.3,0.2,0.9,0.2,1.2,0l18.7-10.8L90.3,29.6c-0.3-0.2-0.9-0.2-1.2,0L70.4,40.4z M69.9,40.1L69.4,41
								L69.9,40.1C69.9,40.2,69.9,40.1,69.9,40.1z"/>
						</g>
						<polygon class="st0" points="81.1,33 115.1,52.6 119.3,50.2 85.3,30.6 						"/>
						<polygon class="st3" points="90.4,47.3 103.7,55 107.6,52.8 94.2,45.1 						"/>
						<path class="st0" d="M102.3,60.6c-0.6,0-1.1-0.1-1.6-0.4L68.9,41.9l0,0C68.3,41.5,68,41,68,40.4s0.3-1.1,0.9-1.5L88,27.8
							c0.9-0.5,2.3-0.5,3.2,0L123,46.2c0.6,0.3,0.9,0.9,0.9,1.5s-0.3,1.1-0.9,1.5l-19.1,11.1C103.5,60.5,102.9,60.6,102.3,60.6z
							 M70.4,40.4l31.4,18.1c0.3,0.2,0.9,0.2,1.2,0l18.7-10.8L90.3,29.6c-0.3-0.2-0.9-0.2-1.2,0L70.4,40.4z M69.9,40.1L69.4,41
							L69.9,40.1C69.9,40.2,69.9,40.1,69.9,40.1z"/>
						<path class="st2" d="M89.2,45.3c-0.2,0-0.3,0-0.5-0.1l-9.2-5.3c-0.5-0.3-0.6-0.9-0.4-1.4c0.3-0.5,0.9-0.6,1.4-0.4l9.2,5.3
							c0.5,0.3,0.6,0.9,0.4,1.4C89.9,45.1,89.5,45.3,89.2,45.3z"/>
					</g>
					<g>
						<path class="st0" d="M103.4,60.4c-0.3,0-0.5-0.1-0.7-0.3s-0.3-0.4-0.3-0.7c0-0.1,0-0.3,0.1-0.4c0-0.1,0.1-0.2,0.2-0.3
							c0.4-0.4,1-0.4,1.4,0c0.2,0.2,0.3,0.4,0.3,0.7s-0.1,0.5-0.3,0.7C103.9,60.3,103.7,60.4,103.4,60.4z"/>
						<path class="st0" d="M93.7,65c-0.3-0.5-0.1-1.1,0.4-1.4l0,0c0.5-0.3,1.1-0.1,1.4,0.4l0,0c0.3,0.5,0.1,1.1-0.4,1.4l0,0
							c-0.2,0.1-0.3,0.1-0.5,0.1l0,0C94.2,65.5,93.9,65.3,93.7,65z M98.1,62.4c-0.3-0.5-0.1-1.1,0.4-1.4l0,0
							c0.5-0.3,1.1-0.1,1.4,0.4l0,0c0.3,0.5,0.1,1.1-0.4,1.4l0,0c-0.1,0.1-0.3,0.1-0.5,0.1l0,0C98.6,62.9,98.3,62.8,98.1,62.4z"/>
						<path class="st0" d="M90.1,68.1c-0.3,0-0.5-0.1-0.7-0.3c-0.2-0.2-0.3-0.5-0.3-0.7c0-0.1,0-0.3,0.1-0.4c0-0.1,0.1-0.2,0.2-0.3
							c0.4-0.4,1-0.4,1.4,0c0.1,0.1,0.2,0.2,0.2,0.3c0,0.1,0.1,0.2,0.1,0.4c0,0.3-0.1,0.5-0.3,0.7C90.6,67.9,90.4,68.1,90.1,68.1z"
							/>
					</g>
					<g>
						<path class="st4" d="M64.8,93.9c-0.6,0-1.3-0.2-2-0.6c-0.5-0.3-0.6-0.9-0.4-1.4s0.9-0.6,1.4-0.4c0.3,0.2,0.9,0.5,1.4,0.2
							c0.5-0.2,1.1,0,1.3,0.5c0.2,0.5,0,1.1-0.5,1.3C65.7,93.8,65.3,93.9,64.8,93.9z"/>
						<path class="st4" d="M6.3,68.5C5.5,69,5,70,5,71.5c0,2.8,1.7,6,3.7,7.1l33.9,19.6c3,1.7,7.8,1.7,10.7,0l31.8-18.4
							c3-1.7,3-4.5,0-6.2L51.3,54.1L6.3,68.5z"/>
						<rect x="72.3" y="66" class="st4" width="11.9" height="10.9"/>
						<path class="st5" d="M48,92.4c-2.6,0-5.2-0.6-7.2-1.7L8.2,71.8c-0.5-0.3-0.6-0.9-0.4-1.4c0.3-0.5,0.9-0.6,1.4-0.4l32.6,18.8
							c3.3,1.9,9,1.9,12.3,0l25.9-15c0.5-0.3,1.1-0.1,1.4,0.4s0.1,1.1-0.4,1.4l-25.9,15C53.2,91.8,50.6,92.4,48,92.4z"/>
						<path class="st5" d="M48.3,55.1l-42,13.4C5.5,69,5,70,5,71.5c0,2.8,1.7,6,3.7,7.1l33.9,19.6c1.5,0.9,3.6,1.3,5.6,1.3
							L48.3,55.1L48.3,55.1z"/>
						<path class="st4" d="M48,98.7c-1.6,0-3.2-0.4-4.5-1.1L8.2,77.2c-0.5-0.3-0.6-0.9-0.4-1.4c0.3-0.5,0.9-0.6,1.4-0.4l35.2,20.4
							c1.9,1.1,5.1,1.1,7,0l33.2-19.1c0.5-0.3,1.1-0.1,1.4,0.4s0.1,1.1-0.4,1.4L52.5,97.6C51.2,98.3,49.6,98.7,48,98.7z"/>
						<path class="st4" d="M48,100.5c-2.1,0-4.2-0.5-5.9-1.4L8.2,79.5c-2.4-1.4-4.2-4.9-4.2-8c0-1.8,0.6-3.2,1.7-3.9
							c0.1,0,0.1-0.1,0.2-0.1l45-14.4c0.3-0.1,0.6-0.1,0.8,0.1l33.9,19.6c1.8,1,2.7,2.4,2.7,4c0,1.5-1,2.9-2.7,4L53.9,99.1
							C52.2,100.1,50.1,100.5,48,100.5z M6.7,69.4C6.3,69.8,6,70.5,6,71.5c0,2.4,1.5,5.3,3.2,6.3l33.9,19.6c2.6,1.5,7.1,1.5,9.7,0
							L84.7,79c1.1-0.6,1.7-1.4,1.7-2.2c0-0.8-0.6-1.6-1.7-2.2L51.1,55.2L6.7,69.4z"/>
						<path class="st4" d="M84.2,76.2c-0.6,0-1-0.4-1-1v-8.8c0-0.6,0.4-1,1-1s1,0.4,1,1v8.8C85.2,75.8,84.8,76.2,84.2,76.2z"/>
						<g>
							<path class="st3" d="M6.3,68.5c0.7-0.4,1.5-0.4,2.5,0.2l33.9,19.6c3,1.7,7.8,1.7,10.7,0l31.8-18.4c3-1.7,3-4.5,0-6.2
								L51.3,44.2c-0.9-0.5-1.8-0.6-2.5-0.2l0,0L6.3,68.5L6.3,68.5z"/>
							<path class="st4" d="M48,90.6c-2.1,0-4.2-0.5-5.9-1.4L8.2,69.6c-0.4-0.2-1-0.5-1.4-0.2l0,0c-0.5,0.3-1.1,0.1-1.4-0.4
								s-0.1-1.1,0.3-1.4h0.1l42.5-24.5l0,0c1-0.6,2.2-0.5,3.4,0.2l33.9,19.6c1.8,1,2.7,2.4,2.7,4s-1,2.9-2.7,4L53.9,89.1
								C52.2,90.1,50.1,90.6,48,90.6z M9.3,67.9l33.8,19.5c2.6,1.5,7.1,1.5,9.7,0L84.6,69c1.1-0.6,1.7-1.4,1.7-2.2s-0.6-1.6-1.7-2.2
								L50.8,45c-0.4-0.2-1-0.5-1.5-0.2l0,0L9.3,67.9z"/>
						</g>
						<path class="st6" d="M48,100.5c-2.1,0-4.2-0.5-5.9-1.4L8.2,79.5c-2.4-1.4-4.2-4.9-4.2-8c0-1.8,0.6-3.2,1.7-3.9l0,0l0,0l0,0
							l42.5-24.5c0.5-0.3,1.1-0.4,1.7-0.4c0.3,0,0.6,0.1,0.9,0.2c0.3,0.1,0.6,0.2,0.9,0.4l33.9,19.6c1.8,1,2.7,2.4,2.7,4V67
							c0,0.3-0.1,0.7-0.2,1s-0.2,0.6-0.4,0.9c-0.1,0.1-0.1,0.2-0.2,0.3c-0.5,0.6-1.1,1.2-1.9,1.6l0,0L85.2,71v1.6l0.4,0.2
							c1.8,1,2.7,2.4,2.7,4c0,1.5-1,2.9-2.7,4L53.9,99.1C52.2,100.1,50.1,100.5,48,100.5z M6.8,69.4C6.3,69.7,6,70.5,6,71.5
							c0,2.4,1.5,5.3,3.2,6.3l33.9,19.6c2.6,1.5,7.1,1.5,9.7,0L84.7,79c1.1-0.6,1.7-1.4,1.7-2.2c0-0.8-0.6-1.6-1.7-2.2l-1-0.6
							c-0.3-0.2-0.5-0.5-0.5-0.9v-2.7c0-0.4,0.2-0.7,0.5-0.9l0.9-0.5c0.6-0.3,1-0.7,1.3-1.1c0-0.1,0.1-0.1,0.1-0.2
							c0.1-0.2,0.2-0.3,0.2-0.4c0.1-0.2,0.1-0.3,0.1-0.5v-0.1c0-0.7-0.6-1.5-1.7-2.1L50.8,45c-0.2-0.1-0.3-0.2-0.5-0.2
							c-0.1,0-0.3-0.1-0.4-0.1c-0.2,0-0.4,0-0.5,0.1l0,0l0,0l0,0L6.8,69.4z M85.2,69.9L85.2,69.9L85.2,69.9z"/>
						<path class="st6" d="M48,90.6c-2.1,0-4.2-0.5-5.9-1.4L10.8,71.1c-0.5-0.3-0.6-0.9-0.4-1.4c0.3-0.5,0.9-0.6,1.4-0.4l31.3,18.1
							c2.6,1.5,7.1,1.5,9.7,0L84.6,69c0.5-0.3,1.1-0.1,1.4,0.4s0.1,1.1-0.4,1.4L53.9,89.1C52.2,90.1,50.1,90.6,48,90.6z"/>
						<path class="st4" d="M48,85.4c-1.3,0-2.5-0.3-3.3-0.7l-28-16.2c-0.5-0.3-0.6-0.9-0.4-1.4c0.3-0.5,0.9-0.6,1.4-0.4l28,16.2
							c0.3,0.2,1.1,0.5,2.3,0.5s2-0.3,2.3-0.5l27.9-16.1L48.9,49.9c-0.5-0.3-0.6-0.9-0.4-1.4c0.3-0.5,0.9-0.6,1.4-0.4l29.5,17.1
							c0.6,0.3,0.9,0.9,0.9,1.6s-0.3,1.3-0.9,1.6L51.3,84.7C50.5,85.1,49.3,85.4,48,85.4z M78.4,66.9L78.4,66.9L78.4,66.9z"/>
						<path class="st6" d="M64.8,93.9c-0.6,0-1.3-0.2-2-0.6c-0.5-0.3-0.6-0.9-0.4-1.4s0.9-0.6,1.4-0.4c0.3,0.2,0.9,0.5,1.4,0.2
							c0.5-0.2,1.1,0,1.3,0.5c0.2,0.5,0,1.1-0.5,1.3C65.7,93.8,65.3,93.9,64.8,93.9z"/>
						<path class="st6" d="M84.2,76.2c-0.6,0-1-0.4-1-1v-2.1c0-0.6,0.4-1,1-1s1,0.4,1,1v2.1C85.2,75.8,84.8,76.2,84.2,76.2z"/>
						<g>
							<path class="st5" d="M78.9,82.8c0-2.8-1.7-6-3.7-7.1l-8-4.6c-3.3-1.9-8.6-1.9-11.8,0s-3.3,4.9,0,6.8c0,0,0.1,0,0.1,0.1
								l7.9,4.6c2.1,1.2,3.7,4.4,3.7,7.1c0,1.6-0.5,2.7-1.4,3.1l0.1-0.1l11.8-6.8L77.5,86C78.4,85.5,78.9,84.4,78.9,82.8z"/>
							<path class="st4" d="M65.7,93.7c-0.4,0-0.7-0.2-0.9-0.5c-0.3-0.5-0.1-1.1,0.4-1.3l0.1-0.1c0.5-0.3,0.8-1.1,0.8-2.1
								c0-2.4-1.5-5.3-3.2-6.3L55,78.8c0,0-0.1,0-0.1-0.1c-1.9-1.1-3-2.6-3-4.3s1-3.2,3-4.3c3.6-2.1,9.2-2.1,12.8,0l8,4.6
								c2.4,1.4,4.2,4.9,4.2,8c0,1.8-0.7,3.2-1.8,3.9l-11.8,6.8c-0.1,0-0.1,0.1-0.2,0.1C66,93.7,65.8,93.7,65.7,93.7z M55.9,77
								C55.9,77,55.9,77.1,55.9,77l8,4.6c2.4,1.4,4.2,4.9,4.2,8c0,0.2,0,0.4,0,0.6l8.9-5.1c0,0,0.1,0,0.1-0.1h0.1
								c0.5-0.3,0.8-1.1,0.8-2.2c0-2.4-1.5-5.3-3.2-6.3l-8-4.6c-2.9-1.7-7.9-1.7-10.8,0c-1.3,0.7-2,1.6-2,2.6S54.6,76.3,55.9,77
								C55.8,77,55.8,77,55.9,77z"/>
						</g>
						<path class="st4" d="M65.7,92.7L65.7,92.7l11.9-6.9l-0.1,0.1c0.9-0.4,1.4-1.5,1.4-3.1c0-1.2-0.4-2.6-0.9-3.8l-11.8,6.8
							c0.6,1.2,0.9,2.5,0.9,3.8C67.1,91.2,66.5,92.3,65.7,92.7z"/>
						<ellipse class="st4" cx="61.3" cy="74.5" rx="4" ry="2.3"/>
						<path class="st6" d="M65.7,93.7c-0.4,0-0.7-0.2-0.9-0.5c-0.3-0.5-0.1-1.1,0.4-1.3l0.1-0.1c0.5-0.3,0.8-1.1,0.8-2.1
							c0-2.4-1.5-5.3-3.2-6.3L55,78.8c0,0-0.1,0-0.1-0.1c-1.9-1.1-3-2.6-3-4.3s1-3.2,3-4.3c3.6-2.1,9.2-2.1,12.8,0l8,4.6
							c2.4,1.4,4.2,4.9,4.2,8c0,1.8-0.7,3.2-1.8,3.9l-11.8,6.8c-0.1,0-0.1,0.1-0.2,0.1C66,93.7,65.8,93.7,65.7,93.7z M55.9,77
							C55.9,77,55.9,77.1,55.9,77l8,4.6c2.4,1.4,4.2,4.9,4.2,8c0,0.2,0,0.4,0,0.6l8.9-5.1c0,0,0.1,0,0.1-0.1h0.1
							c0.5-0.3,0.8-1.1,0.8-2.2c0-2.4-1.5-5.3-3.2-6.3l-8-4.6c-2.9-1.7-7.9-1.7-10.8,0c-1.3,0.7-2,1.6-2,2.6S54.6,76.3,55.9,77
							C55.8,77,55.8,77,55.9,77z"/>
					</g>
				</g>
				<rect x="4" y="4" class="st7" width="120" height="120"/>
				<rect x="4" y="4" class="st7" width="120" height="120"/>
			</g>
		</g>
	</g>
	<g>
		<rect class="st7" width="128" height="128"/>
	</g>
</g>
</svg>
