<?xml version="1.0" encoding="utf-8"?>
<!-- Generator: Adobe Illustrator 24.1.0, SVG Export Plug-In . SVG Version: 6.00 Build 0)  -->
<svg version="1.1" id="Layer_1" xmlns="http://www.w3.org/2000/svg" xmlns:xlink="http://www.w3.org/1999/xlink" x="0px" y="0px"
	 viewBox="0 0 128 128" style="enable-background:new 0 0 128 128;" xml:space="preserve">
<style type="text/css">
	.st0{fill:#FFFFFF;}
	.st1{fill:#4D9987;}
	.st2{fill:#E9EBDF;}
	.st3{fill:#0E352C;}
	.st4{fill:#C4D7D3;}
	.st5{fill:#27ae60;}
	.st6{fill:#185849;}
	.st7{fill:none;}
</style>
<g id="Layer_1_1_">
</g>
<g>
	<g id="Layer_2_1_">
		<g id="Industries_1_">
			<g>
				<g>
					<g>
						<g>
							<polygon class="st0" points="39.2,48.3 107.6,87.8 123,78.9 54.6,39.4 							"/>
							<path class="st1" d="M107.6,88.8c-0.2,0-0.3,0-0.5-0.1L38.7,49.2c-0.3-0.2-0.5-0.5-0.5-0.9s0.2-0.7,0.5-0.9l15.4-8.9
								c0.3-0.2,0.7-0.2,1,0L123.5,78c0.3,0.2,0.5,0.5,0.5,0.9s-0.2,0.7-0.5,0.9l-15.4,8.9C107.9,88.8,107.8,88.8,107.6,88.8z
								 M41.2,48.3l66.4,38.3l13.4-7.7L54.6,40.6L41.2,48.3z"/>
						</g>
						<path class="st2" d="M117.3,83.2c-0.1,0-0.2,0-0.2,0c-21-5-34.8-19.1-34.9-19.3c-0.4-0.4-0.4-1,0-1.4s1-0.4,1.4,0
							c0.1,0.1,13.6,13.8,34,18.7c0.5,0.1,0.9,0.7,0.7,1.2C118.2,82.9,117.8,83.2,117.3,83.2z"/>
						<g>
							<g>
								<polygon class="st2" points="39.2,48.3 39.2,55.1 107.6,94.6 107.6,87.8 								"/>
								<path class="st1" d="M107.6,95.6c-0.2,0-0.3,0-0.5-0.1L38.7,56c-0.3-0.2-0.5-0.5-0.5-0.9v-6.8c0-0.4,0.2-0.7,0.5-0.9
									s0.7-0.2,1,0l68.4,39.5c0.3,0.2,0.5,0.5,0.5,0.9v6.8c0,0.4-0.2,0.7-0.5,0.9C107.9,95.6,107.8,95.6,107.6,95.6z M40.2,54.6
									l66.4,38.3v-4.5L40.2,50.1V54.6z"/>
							</g>
							<g>
								<polygon class="st1" points="123,78.9 123,85.7 107.6,94.6 107.6,87.8 								"/>
								<path class="st1" d="M107.6,95.6c-0.2,0-0.3,0-0.5-0.1c-0.3-0.2-0.5-0.5-0.5-0.9v-6.8c0-0.4,0.2-0.7,0.5-0.9l15.4-8.9
									c0.3-0.2,0.7-0.2,1,0s0.5,0.5,0.5,0.9v6.8c0,0.4-0.2,0.7-0.5,0.9l-15.4,8.9C107.9,95.6,107.8,95.6,107.6,95.6z M108.6,88.4
									v4.5l13.4-7.7v-4.5L108.6,88.4z"/>
							</g>
						</g>
						<path class="st3" d="M107.6,95.6c-0.2,0-0.3,0-0.5-0.1L38.7,56c-0.3-0.2-0.5-0.5-0.5-0.9v-6.8c0-0.4,0.2-0.7,0.5-0.9l15.4-8.9
							c0.3-0.2,0.7-0.2,1,0L123.5,78c0.3,0.2,0.5,0.5,0.5,0.9v6.8c0,0.4-0.2,0.7-0.5,0.9l-15.4,8.9
							C107.9,95.6,107.8,95.6,107.6,95.6z M40.2,54.6l67.4,38.9l14.4-8.3v-5.7L54.6,40.6l-14.4,8.3C40.2,48.9,40.2,54.6,40.2,54.6z"
							/>
					</g>
					<g>
						<g>
							<polygon class="st0" points="32.3,37.5 100.7,77 116.1,68.1 47.7,28.6 							"/>
							<path class="st1" d="M100.7,78c-0.2,0-0.3,0-0.5-0.1L31.8,38.4c-0.3-0.2-0.5-0.5-0.5-0.9s0.2-0.7,0.5-0.9l15.4-8.9
								c0.3-0.2,0.7-0.2,1,0l68.4,39.5c0.3,0.2,0.5,0.5,0.5,0.9s-0.2,0.7-0.5,0.9l-15.4,8.9C101.1,78,100.9,78,100.7,78z M34.3,37.5
								l66.4,38.3l13.4-7.7L47.7,29.8L34.3,37.5z"/>
						</g>
						<g>
							<path class="st2" d="M108,73.5c-0.3,0-0.6-0.1-0.8-0.4C101.8,66,95,59,86.8,52.3c-0.4-0.3-0.5-1-0.1-1.4
								c0.3-0.4,1-0.5,1.4-0.1c8.3,6.8,15.2,13.9,20.7,21.1c0.3,0.4,0.2,1.1-0.2,1.4C108.4,73.4,108.2,73.5,108,73.5z"/>
							<path class="st2" d="M87.5,70.4c-0.3,0-0.6-0.1-0.8-0.4C76.4,55.2,58.5,37.8,47.1,29.4c-0.4-0.3-0.5-1-0.2-1.4s1-0.5,1.4-0.2
								c11.3,8.3,29.2,25.5,40,41c0.3,0.5,0.2,1.1-0.2,1.4C87.9,70.3,87.7,70.4,87.5,70.4z"/>
							<path class="st2" d="M55.2,51.8c-0.4,0-0.8-0.2-0.9-0.6c-2.4-5.5-8.5-11.6-12.6-15.6c-0.7-0.7-1.4-1.4-2-2
								c-0.4-0.4-0.4-1,0-1.4c0.4-0.4,1-0.4,1.4,0c0.6,0.6,1.2,1.2,2,2c4.2,4.1,10.5,10.4,13,16.3c0.2,0.5,0,1.1-0.5,1.3
								C55.5,51.7,55.4,51.8,55.2,51.8z"/>
							<g>
								<polygon class="st2" points="32.3,37.5 32.3,44.4 100.7,83.8 100.7,77 								"/>
								<path class="st1" d="M100.7,84.8c-0.2,0-0.3,0-0.5-0.1L31.8,45.2c-0.3-0.2-0.5-0.5-0.5-0.9v-6.8c0-0.4,0.2-0.7,0.5-0.9
									s0.7-0.2,1,0l68.4,39.5c0.3,0.2,0.5,0.5,0.5,0.9v6.8c0,0.4-0.2,0.7-0.5,0.9C101.1,84.8,100.9,84.8,100.7,84.8z M33.3,43.8
									l66.4,38.3v-4.5L33.3,39.3V43.8z"/>
							</g>
							<g>
								<polygon class="st1" points="116.1,68.1 116.1,74.9 100.7,83.8 100.7,77 								"/>
								<path class="st1" d="M100.7,84.8c-0.2,0-0.3,0-0.5-0.1c-0.3-0.2-0.5-0.5-0.5-0.9V77c0-0.4,0.2-0.7,0.5-0.9l15.4-8.9
									c0.3-0.2,0.7-0.2,1,0s0.5,0.5,0.5,0.9v6.8c0,0.4-0.2,0.7-0.5,0.9l-15.4,8.9C101.1,84.8,100.9,84.8,100.7,84.8z M101.7,77.6
									v4.5l13.4-7.7v-4.5L101.7,77.6z"/>
							</g>
						</g>
						<path class="st3" d="M100.7,84.8c-0.2,0-0.3,0-0.5-0.1L31.8,45.2c-0.3-0.2-0.5-0.5-0.5-0.9v-6.8c0-0.4,0.2-0.7,0.5-0.9
							l15.4-8.9c0.3-0.2,0.7-0.2,1,0l68.4,39.5c0.3,0.2,0.5,0.5,0.5,0.9v6.8c0,0.4-0.2,0.7-0.5,0.9l-15.4,8.9
							C101.1,84.8,100.9,84.8,100.7,84.8z M33.3,43.8l67.4,38.9l14.4-8.3v-5.7L47.7,29.8l-14.4,8.3C33.3,38.1,33.3,43.8,33.3,43.8z"
							/>
					</g>
					<g>
						<g>
							<g>
								<g>
									<polygon class="st0" points="70.2,81 61,75.6 42.6,86.3 51.8,91.6 									"/>
									<path class="st4" d="M51.8,92.6c-0.2,0-0.3,0-0.5-0.1l-9.2-5.3c-0.3-0.2-0.5-0.5-0.5-0.9s0.2-0.7,0.5-0.9l18.4-10.6
										c0.3-0.2,0.7-0.2,1,0l9.2,5.3c0.3,0.2,0.5,0.5,0.5,0.9s-0.2,0.7-0.5,0.9L52.3,92.5C52.1,92.5,52,92.6,51.8,92.6z
										 M44.6,86.3l7.2,4.2L68.2,81L61,76.8L44.6,86.3z"/>
								</g>
								<polygon class="st4" points="64,81.5 60.1,79.2 48.8,85.7 52.7,88 								"/>
								<g>
									<polygon class="st5" points="70.2,89.2 51.8,99.9 51.8,91.6 70.2,81 									"/>
									<path class="st4" d="M51.8,100.9c-0.2,0-0.3,0-0.5-0.1c-0.3-0.2-0.5-0.5-0.5-0.9v-8.3c0-0.4,0.2-0.7,0.5-0.9l18.4-10.6
										c0.3-0.2,0.7-0.2,1,0s0.5,0.5,0.5,0.9v8.3c0,0.4-0.2,0.7-0.5,0.9l-18.4,10.6C52.1,100.8,52,100.9,51.8,100.9z M52.8,92.2v6
										l16.4-9.5v-6L52.8,92.2z M70.2,89.2L70.2,89.2L70.2,89.2z"/>
								</g>
								<g>
									<polygon class="st4" points="42.6,94.6 51.8,99.9 51.8,91.6 42.6,86.3 									"/>
									<path class="st4" d="M51.8,100.9c-0.2,0-0.3,0-0.5-0.1l-9.2-5.3c-0.3-0.2-0.5-0.5-0.5-0.9v-8.3c0-0.4,0.2-0.7,0.5-0.9
										c0.3-0.2,0.7-0.2,1,0l9.2,5.3c0.3,0.2,0.5,0.5,0.5,0.9v8.3c0,0.4-0.2,0.7-0.5,0.9C52.1,100.8,52,100.9,51.8,100.9z
										 M43.6,94l7.2,4.2v-6L43.6,88V94z"/>
								</g>
								<path class="st6" d="M51.8,100.9c-0.2,0-0.3,0-0.5-0.1l-9.2-5.3c-0.3-0.2-0.5-0.5-0.5-0.9v-8.3c0-0.4,0.2-0.7,0.5-0.9
									l18.4-10.6c0.3-0.2,0.7-0.2,1,0l9.2,5.3c0.3,0.2,0.5,0.5,0.5,0.9v8.3c0,0.4-0.2,0.7-0.5,0.9l-18.4,10.6
									C52.1,100.8,52,100.9,51.8,100.9z M43.6,94l8.2,4.7l17.4-10.1v-7.1L61,76.8L43.6,86.9V94z"/>
							</g>
							<g>
								<g>
									<polygon class="st0" points="93.6,94.4 84.4,89.1 65.9,99.8 75.2,105.1 									"/>
									<path class="st4" d="M75.2,106.1c-0.2,0-0.3,0-0.5-0.1l-9.2-5.3c-0.3-0.2-0.5-0.5-0.5-0.9s0.2-0.7,0.5-0.9l18.4-10.6
										c0.3-0.2,0.7-0.2,1,0l9.2,5.3c0.3,0.2,0.5,0.5,0.5,0.9s-0.2,0.7-0.5,0.9L75.7,106C75.5,106,75.3,106.1,75.2,106.1z
										 M67.9,99.8l7.2,4.2l16.4-9.5l-7.2-4.2L67.9,99.8z"/>
								</g>
								<polygon class="st4" points="87.4,95 83.4,92.7 72.1,99.2 76.1,101.5 								"/>
								<g>
									<polygon class="st5" points="93.6,102.7 75.2,113.4 75.2,105.1 93.6,94.4 									"/>
									<path class="st4" d="M75.2,114.4c-0.2,0-0.3,0-0.5-0.1c-0.3-0.2-0.5-0.5-0.5-0.9v-8.3c0-0.4,0.2-0.7,0.5-0.9l18.4-10.6
										c0.3-0.2,0.7-0.2,1,0s0.5,0.5,0.5,0.9v8.3c0,0.4-0.2,0.7-0.5,0.9l-18.4,10.6C75.5,114.3,75.3,114.4,75.2,114.4z
										 M76.2,105.7v6l16.4-9.5v-6L76.2,105.7z M93.6,102.7L93.6,102.7L93.6,102.7z"/>
								</g>
								<g>
									<polygon class="st4" points="65.9,108 75.2,113.4 75.2,105.1 65.9,99.8 									"/>
									<path class="st4" d="M75.2,114.4c-0.2,0-0.3,0-0.5-0.1l-9.2-5.3c-0.3-0.2-0.5-0.5-0.5-0.9v-8.3c0-0.4,0.2-0.7,0.5-0.9
										c0.3-0.2,0.7-0.2,1,0l9.2,5.3c0.3,0.2,0.5,0.5,0.5,0.9v8.3c0,0.4-0.2,0.7-0.5,0.9C75.5,114.3,75.3,114.4,75.2,114.4z
										 M66.9,107.5l7.2,4.2v-6l-7.2-4.2V107.5z"/>
								</g>
								<path class="st6" d="M75.2,114.4c-0.2,0-0.3,0-0.5-0.1l-9.2-5.3c-0.3-0.2-0.5-0.5-0.5-0.9v-8.3c0-0.4,0.2-0.7,0.5-0.9
									l18.4-10.6c0.3-0.2,0.7-0.2,1,0l9.2,5.3c0.3,0.2,0.5,0.5,0.5,0.9v8.3c0,0.4-0.2,0.7-0.5,0.9l-18.4,10.6
									C75.5,114.3,75.3,114.4,75.2,114.4z M66.9,107.5l8.2,4.7l17.4-10.1V95l-8.2-4.7l-17.4,10.1V107.5z"/>
							</g>
						</g>
					</g>
					<g>
						<g>
							<path class="st2" d="M46,41.5H5.1L9.6,74l0,0c0.7,4.7,7.5,8.4,15.9,8.4s15.2-3.7,15.9-8.4l0,0L46,41.5z"/>
							<path class="st0" d="M25.5,81.4c-8.6,0-14.3-3.8-14.8-7.6l-0.2-1.6c0,0,0-0.1,0-0.2L6.1,41.4C6.1,41,6,40.8,6,40.5
								c0-0.7,0.1-1.4,0.4-2c1.8-5.1,9.8-8.8,19.1-8.8c10.7,0,19.5,4.9,19.5,10.8c0,0.2,0,0.5-0.1,0.8l-0.3,2.1c0,0.1,0,0.1,0,0.2
								l-4.3,30.2C39.8,77.6,34.1,81.4,25.5,81.4z M12.4,71.7c0,0,0,0.1,0,0.2l0.2,1.8c0.3,2.4,5,5.8,12.9,5.8S38,76,38.4,73.6
								l0.2-1.7l4-28.3c0-0.1,0-0.1,0-0.2l0.3-2.3c0-0.2,0.1-0.4,0.1-0.5c0-4.7-8.2-8.8-17.5-8.8c-8.2,0-15.8,3.3-17.2,7.4
								C8.1,39.6,8,40.1,8,40.5c0,0.2,0,0.3,0.1,0.5l0.3,2.3L12.4,71.7z"/>
							<path class="st0" d="M25.5,41.5H5.1L9.6,74l0,0c0.7,4.7,7.5,8.4,15.9,8.4l0,0V41.5z"/>
							<path class="st1" d="M25.5,69.7c-9.9,0-18-4.4-18.9-10.3c0-0.1,0-0.2,0-0.3c0-0.6,0.4-1,1-1l0,0c0.5,0,0.9,0.4,1,0.9
								c0.7,4.9,8.1,8.7,16.9,8.7s16.2-3.8,16.9-8.7c0.1-0.5,0.5-0.9,1-0.9c0.6,0,1,0.4,1,1c0,0.1,0,0.2,0,0.3
								C43.5,65.3,35.4,69.7,25.5,69.7z"/>
							<path class="st1" d="M25.5,83.4c-8.8,0-15.9-3.9-16.8-9.1c0-0.1,0-0.1,0-0.2L4.1,41.6c0-0.3,0-0.6,0.2-0.8s0.5-0.3,0.8-0.3
								H46c0.3,0,0.6,0.1,0.8,0.3s0.3,0.5,0.2,0.8l-4.6,32.5c0,0.1,0,0.1,0,0.2C41.5,79.5,34.3,83.4,25.5,83.4z M10.6,73.7
								c0,0.1,0,0.1,0,0.2c0.6,4.3,7.1,7.6,14.9,7.6s14.3-3.3,14.9-7.6c0-0.1,0-0.1,0-0.2l4.4-31.2H6.2L10.6,73.7z"/>
							<ellipse class="st0" cx="25.5" cy="40.5" rx="20.5" ry="11.8"/>
							<ellipse class="st1" cx="25.5" cy="40.5" rx="20.5" ry="11.8"/>
							<path class="st1" d="M25.5,28.7C14.2,28.7,5,34,5,40.5s9.2,11.8,20.5,11.8V28.7z"/>
							<path class="st2" d="M25.5,52.4c8.5,0,15.8-3,18.9-7.3c-2.1-4.9-9.8-8.5-18.9-8.5S8.7,40.2,6.6,45.1
								C9.7,49.4,17,52.4,25.5,52.4z"/>
							<path class="st1" d="M25.5,53.4c-8.6,0-16.4-3-19.7-7.7c-0.2-0.3-0.2-0.7-0.1-1c2.3-5.4,10.5-9.1,19.9-9.1s17.5,3.8,19.9,9.1
								c0.1,0.3,0.1,0.7-0.1,1C41.9,50.4,34.1,53.4,25.5,53.4z M7.8,45c3.2,3.9,10.1,6.4,17.8,6.4s14.6-2.5,17.8-6.4
								c-2.3-4.3-9.6-7.4-17.8-7.4S10.1,40.7,7.8,45z"/>
							<path class="st0" d="M25.5,51.5c-11,0-19.9-4.9-19.9-11s8.9-11,19.9-11s19.9,4.9,19.9,11S36.5,51.5,25.5,51.5z M25.5,31.5
								c-9.5,0-17.9,4.2-17.9,9s8.4,9,17.9,9s17.9-4.2,17.9-9S35.1,31.5,25.5,31.5z"/>
							<path class="st3" d="M25.5,83.4c-8.8,0-15.9-3.9-16.8-9.1c0-0.1,0-0.1,0-0.2L4.1,41.6c0-0.1,0-0.1,0-0.2
								C4,41.2,4,40.9,4,40.5c0-0.9,0.2-1.8,0.5-2.7c2.1-6,10.8-10.1,21-10.1c12.1,0,21.5,5.6,21.5,12.8c0,0.3,0,0.6-0.1,0.9
								c0,0.1,0,0.1,0,0.2l-4.6,32.5c0,0.1,0,0.1,0,0.2C41.5,79.5,34.3,83.4,25.5,83.4z M10.6,73.7c0,0.1,0,0.1,0,0.2
								c0.6,4.3,7.1,7.6,14.9,7.6s14.3-3.3,14.9-7.6c0-0.1,0-0.1,0-0.2L45,41.5c0-0.1,0-0.1,0-0.2c0-0.3,0.1-0.6,0.1-0.8
								c0-6-8.8-10.8-19.5-10.8c-9.3,0-17.4,3.7-19.2,8.8c-0.3,0.7-0.4,1.3-0.4,2c0,0.3,0,0.6,0.1,0.8c0,0.1,0,0.1,0,0.2L10.6,73.7z
								"/>
							<path class="st3" d="M40,28.4c-0.6,0-1-0.4-1-1c0-5.3-1.7-9.2-4.5-10.9c-2.3-1.3-5.4-1.1-8.5,0.8c-2,1.2-4,2.9-5.9,5.1
								c-0.4,0.4-1,0.5-1.4,0.1s-0.5-1-0.1-1.4c2-2.4,4.2-4.3,6.4-5.6c3.8-2.2,7.6-2.5,10.5-0.8c3.5,2,5.5,6.6,5.5,12.6
								C41,28,40.6,28.4,40,28.4z"/>
							<path class="st1" d="M20.4,22.5c-0.5,0-1-0.2-1.4-0.5c-0.8-0.8-0.8-2-0.1-2.8c1.7-1.9,3.6-3.4,5.5-4.5c1.7-1,3.4-1.6,5-1.9
								c1.1-0.2,2.1,0.6,2.3,1.7c0.2,1.1-0.6,2.1-1.7,2.3c-1.2,0.2-2.4,0.7-3.7,1.4c-1.6,0.9-3.1,2.2-4.6,3.7
								C21.5,22.3,20.9,22.5,20.4,22.5z"/>
							<path class="st3" d="M10.9,52.4c-0.6,0-1-0.4-1-1v-7.2c0-0.6,0.4-1,1-1s1,0.4,1,1v7.2C11.9,51.9,11.4,52.4,10.9,52.4z"/>
							<path class="st3" d="M40,33.2c-0.6,0-1-0.4-1-1v-4.8c0-0.6,0.4-1,1-1s1,0.4,1,1v4.8C41,32.7,40.6,33.2,40,33.2z"/>
							<path class="st3" d="M10.9,45.2c-0.6,0-1-0.4-1-1c0-7.7,3.4-16.8,8.6-23.1c0.4-0.4,1-0.5,1.4-0.1s0.5,1,0.1,1.4
								c-5,6-8.2,14.5-8.2,21.8C11.9,44.8,11.4,45.2,10.9,45.2z"/>
						</g>
					</g>
				</g>
				<rect x="4" y="4" class="st7" width="120" height="120"/>
				<rect x="4" y="4" class="st7" width="120" height="120"/>
			</g>
		</g>
	</g>
	<g>
		<rect class="st7" width="128" height="128"/>
	</g>
</g>
</svg>
