<?xml version="1.0" encoding="utf-8"?>
<!-- Generator: Adobe Illustrator 24.1.0, SVG Export Plug-In . SVG Version: 6.00 Build 0)  -->
<svg version="1.1" id="Layer_1" xmlns="http://www.w3.org/2000/svg" xmlns:xlink="http://www.w3.org/1999/xlink" x="0px" y="0px"
	 viewBox="0 0 128 128" style="enable-background:new 0 0 128 128;" xml:space="preserve">
<style type="text/css">
	.st0{fill:#FFFFFF;}
	.st1{fill:#E9EBDF;}
	.st2{fill:#0E352C;}
	.st3{fill:#4D9987;}
	.st4{fill:#27ae60;}
	.st5{fill:#C4D7D3;}
	.st6{fill:#185849;}
	.st7{fill:none;}
</style>
<g id="Layer_1_1_">
</g>
<g>
	<g id="Layer_2_1_">
		<g id="Industries_1_">
			<g>
				<g>
					<g>
						<path class="st0" d="M43.8,32.8l-13.1-7.6l0,0c-0.6-0.3-1.3-0.3-2.1,0.2l-15.2,8.7c-1.8,1-3.2,3.8-3.2,6.2v43.5
							c0,1.3,0.4,2.2,1.1,2.6l0,0L24.4,94l2.3-14.3l2.8-1.6c1.8-1,3.2-6.6,3.2-9V52.7L43.8,32.8z"/>
						<path class="st1" d="M10.8,37.6c-0.4,0.9-0.6,1.9-0.6,2.8v43.5c0,1.3,0.4,2.2,1.1,2.6l0,0l13.1,7.6l2.3-14.3l2.8-1.6
							c1.8-1,3.2-6.6,3.2-9V52.7l1.1-1.8L10.8,37.6z"/>
						<path class="st2" d="M24.4,95.1c-0.2,0-0.3,0-0.5-0.1l-13.1-7.6c0,0-0.1,0-0.1-0.1c-1-0.6-1.5-1.9-1.5-3.4V40.4
							c0-2.8,1.6-5.9,3.7-7.1l15.2-8.8c1.1-0.6,2.1-0.7,3-0.2c0,0,0.1,0,0.1,0.1L44.3,32c0.5,0.3,0.6,0.9,0.4,1.4L33.8,53v16.2
							c0,2.4-1.4,8.5-3.7,9.9l-2.4,1.4l-2.3,13.8c-0.1,0.3-0.3,0.6-0.6,0.7C24.7,95.1,24.5,95.1,24.4,95.1z M11.9,85.7l11.8,6.8
							l2.1-12.9c0-0.3,0.2-0.6,0.5-0.7l2.8-1.6c1.2-0.7,2.7-5.7,2.7-8.2V52.7c0-0.2,0-0.3,0.1-0.5l10.5-19l-12.2-7h-0.1
							c-0.4-0.2-0.9,0-1.1,0.2l-15.2,8.8c-1.5,0.9-2.7,3.3-2.7,5.3V84C11.2,84.8,11.4,85.5,11.9,85.7C11.8,85.7,11.8,85.7,11.9,85.7
							z"/>
						<path class="st0" d="M48.6,35.6l-4.8-2.8l0,0c-0.6-0.3-1.3-0.3-2.1,0.2l-15.2,8.7c-1.8,1-3.2,3.8-3.2,6.2v43.5
							c0,1.3,0.4,2.2,1.1,2.6l0,0l4.8,2.8L30.6,82l2.8-1.6c1.8-1,3.2-3.8,3.2-6.2V54.9L48.6,35.6z"/>
						<path class="st1" d="M23.8,45.1C23.5,46,23.3,47,23.3,48v43.5c0,1.3,0.4,2.2,1.1,2.6l0,0l4.8,2.8L30.6,82l2.8-1.6
							c1.8-1,3.2-3.8,3.2-6.2V54.9l1.1-1.8L23.8,45.1z"/>
						<g>
							<path class="st3" d="M46.4,88l-15.2,8.7c-1.8,1-3.2-0.1-3.2-2.5V50.7c0-2.4,1.5-5.2,3.2-6.2l15.2-8.7c1.8-1,3.2,0.1,3.2,2.5
								v43.5C49.7,84.2,48.2,86.9,46.4,88z"/>
							<path class="st3" d="M30,98.1c-0.5,0-0.9-0.1-1.3-0.4c-1-0.6-1.6-1.9-1.6-3.5V50.7c0-2.8,1.6-5.9,3.7-7.1L46,34.8
								c1.1-0.6,2.2-0.7,3.1-0.2c1,0.6,1.6,1.9,1.6,3.5v43.5c0,2.8-1.6,5.9-3.7,7.1l0,0l-15.2,8.7C31.2,97.9,30.6,98.1,30,98.1z
								 M47.7,36.4c-0.3,0-0.6,0.1-0.8,0.3l-15.2,8.8c-1.5,0.9-2.7,3.3-2.7,5.3v43.5c0,1,0.3,1.6,0.6,1.8c0.4,0.2,0.9,0,1.1-0.2
								l15.2-8.8c1.5-0.9,2.7-3.3,2.7-5.3V38.2c0-1-0.3-1.6-0.6-1.8C48,36.4,47.9,36.4,47.7,36.4z M46.4,88L46.4,88L46.4,88z"/>
						</g>
						<path class="st2" d="M30,98.1c-0.4,0-0.9-0.1-1.2-0.3c0,0-0.1,0-0.1-0.1L23.9,95c0,0-0.1,0-0.1-0.1c-1-0.6-1.5-1.9-1.5-3.4V48
							c0-2.8,1.6-5.9,3.7-7.1l15.2-8.8c1.1-0.6,2.1-0.7,3-0.2c0,0,0.1,0,0.1,0.1l4.8,2.8c0,0,0.1,0,0.1,0.1c1,0.6,1.5,1.9,1.5,3.4
							v43.5c0,2.8-1.6,5.9-3.7,7.1l-15.2,8.7C31.2,97.9,30.6,98.1,30,98.1z M29.6,96L29.6,96c0.4,0.2,0.9,0,1.2-0.1L46,87.2
							c1.5-0.9,2.7-3.3,2.7-5.3V38.2c0-0.9-0.2-1.5-0.6-1.8c0,0-0.1,0-0.1-0.1l-4.6-2.7h-0.1c-0.4-0.2-0.9,0-1.1,0.2L27,42.6
							c-1.5,0.9-2.7,3.3-2.7,5.3v43.5c0,0.9,0.2,1.5,0.6,1.8H25L29.6,96z"/>
						<g>
							
								<ellipse transform="matrix(0.3916 -0.9201 0.9201 0.3916 -26.2434 68.8147)" class="st1" cx="38.9" cy="54.3" rx="11.5" ry="6.5"/>
							<path class="st3" d="M35.9,66.1c-0.9,0-1.7-0.2-2.4-0.6c-2-1.1-3.1-3.7-3.1-6.9c0-5.9,3.5-12.6,8-15.2
								c2.1-1.2,4.2-1.4,5.9-0.4c2,1.1,3.1,3.7,3.1,6.9c0,5.9-3.5,12.6-8,15.2C38.2,65.8,37,66.1,35.9,66.1z M41.8,44.4
								c-0.9,0-1.8,0.4-2.5,0.8c-3.9,2.2-7,8.2-7,13.4c0,2.5,0.8,4.4,2.1,5.2s2.9,0.2,3.9-0.4c3.9-2.2,7-8.2,7-13.4
								c0-2.5-0.8-4.4-2.1-5.2C42.8,44.5,42.3,44.4,41.8,44.4z"/>
						</g>
						<path class="st2" d="M35.9,66.1c-0.9,0-1.7-0.2-2.4-0.6c-2-1.1-3.1-3.7-3.1-6.9c0-5.9,3.5-12.6,8-15.2
							c2.1-1.2,4.2-1.4,5.9-0.4c2,1.1,3.1,3.7,3.1,6.9c0,5.9-3.5,12.6-8,15.2C38.2,65.8,37,66.1,35.9,66.1z M41.8,44.4
							c-0.9,0-1.8,0.4-2.5,0.8c-3.9,2.2-7,8.2-7,13.4c0,2.5,0.8,4.4,2.1,5.2s2.9,0.2,3.9-0.4c3.9-2.2,7-8.2,7-13.4
							c0-2.5-0.8-4.4-2.1-5.2C42.8,44.5,42.3,44.4,41.8,44.4z"/>
						
							<ellipse transform="matrix(0.3916 -0.9201 0.9201 0.3916 -26.4761 66.213)" class="st2" cx="36.8" cy="53.1" rx="3.7" ry="2.1"/>
						<g>
							
								<ellipse transform="matrix(0.3916 -0.9201 0.9201 0.3916 -51.5218 85.4593)" class="st1" cx="38.9" cy="81.7" rx="5.7" ry="3.2"/>
							<path class="st3" d="M37.4,88.2c-0.5,0-1-0.1-1.5-0.4c-1.1-0.7-1.8-2.1-1.8-3.9c0-3.1,1.9-6.6,4.2-8c1.2-0.7,2.4-0.8,3.4-0.2
								c1.1,0.7,1.8,2.1,1.8,3.9c0,3.1-1.9,6.6-4.2,8C38.7,88,38,88.2,37.4,88.2z M40.4,77.3c-0.4,0-0.8,0.2-1,0.3
								c-1.8,1-3.2,3.9-3.2,6.3c0,1.1,0.3,1.9,0.8,2.2c0.5,0.3,1.1,0,1.4-0.2c1.8-1,3.2-3.9,3.2-6.3c0-1.1-0.3-1.9-0.8-2.2
								C40.7,77.3,40.5,77.3,40.4,77.3z"/>
						</g>
						<path class="st2" d="M37.4,88.2c-0.5,0-1-0.1-1.5-0.4c-1.1-0.7-1.8-2.1-1.8-3.9c0-3.1,1.9-6.6,4.2-8c1.2-0.7,2.4-0.8,3.4-0.2
							c1.1,0.7,1.8,2.1,1.8,3.9c0,3.1-1.9,6.6-4.2,8C38.7,88,38,88.2,37.4,88.2z M40.4,77.3c-0.4,0-0.8,0.2-1,0.3
							c-1.8,1-3.2,3.9-3.2,6.3c0,1.1,0.3,1.9,0.8,2.2c0.5,0.3,1.1,0,1.4-0.2c1.8-1,3.2-3.9,3.2-6.3c0-1.1-0.3-1.9-0.8-2.2
							C40.7,77.3,40.5,77.3,40.4,77.3z"/>
						
							<ellipse transform="matrix(0.3916 -0.9201 0.9201 0.3916 -51.5628 84.9967)" class="st2" cx="38.5" cy="81.5" rx="1.2" ry="0.7"/>
					</g>
					<g>
						<g>
							<path class="st0" d="M98.5,5.3L98.5,5.3c-0.8-0.5-1.9-0.4-3.1,0.3L66.2,22.5c-2.6,1.5-4.8,5.6-4.8,9.1v22.5l17.7,10.2
								l37.1-48.7L98.5,5.3z"/>
							<path class="st4" d="M79.1,65.3c-0.2,0-0.3,0-0.5-0.1L60.9,54.9c-0.3-0.2-0.5-0.5-0.5-0.9V31.5c0-3.9,2.3-8.3,5.3-10
								L94.9,4.7c1.4-0.8,2.8-0.9,4-0.3c0,0,0.1,0,0.1,0.1l17.7,10.2c0.2,0.1,0.4,0.4,0.5,0.7s0,0.6-0.2,0.8L79.9,64.9
								C79.7,65.1,79.4,65.3,79.1,65.3z M62.4,53.5L78.8,63l35.9-47.1L98.1,6.2c0,0-0.1,0-0.1-0.1c-0.7-0.4-1.5-0.1-2.1,0.2
								l-29.2,17c-2.3,1.3-4.3,5.1-4.3,8.2C62.4,31.5,62.4,53.5,62.4,53.5z"/>
						</g>
						<path class="st5" d="M62.2,27.7c-0.5,1.3-0.8,2.6-0.8,3.9v22.5l17.7,10.2L93.8,46L62.2,27.7z"/>
						<path class="st4" d="M79.1,65.3c-0.2,0-0.3,0-0.5-0.1L60.9,54.9c-0.3-0.2-0.5-0.5-0.5-0.9V31.5c0-3.9,2.3-8.3,5.3-10L94.9,4.7
							c1.4-0.8,2.8-0.9,4-0.3c0,0,0.1,0,0.1,0.1l17.7,10.2c0.2,0.1,0.4,0.4,0.5,0.7s0,0.6-0.2,0.8L79.9,64.9
							C79.7,65.1,79.4,65.3,79.1,65.3z M62.4,53.5L78.8,63l35.9-47.1L98.1,6.2c0,0-0.1,0-0.1-0.1c-0.7-0.4-1.5-0.1-2.1,0.2l-29.2,17
							c-2.3,1.3-4.3,5.1-4.3,8.2C62.4,31.5,62.4,53.5,62.4,53.5z"/>
						<g>
							<path class="st4" d="M117.8,41.9L79.1,64.3V41.7c0-3.5,2.1-7.6,4.8-9.1l29.3-16.9c2.6-1.5,4.8,0.1,4.8,3.6v22.6H117.8z"/>
							<path class="st4" d="M79.1,65.3c-0.2,0-0.3,0-0.5-0.1c-0.3-0.2-0.5-0.5-0.5-0.9V41.7c0-3.9,2.3-8.3,5.3-10l29.3-16.9
								c1.5-0.8,2.9-0.9,4.1-0.3c1.4,0.8,2.1,2.5,2.1,4.7v22.5c0,0.4-0.2,0.7-0.5,0.9L79.6,65.1C79.4,65.2,79.2,65.3,79.1,65.3z
								 M115,16.2c-0.5,0-1,0.2-1.4,0.4L84.3,33.5C82,34.8,80,38.6,80,41.7v20.8l36.8-21.2V19.4c0-1.5-0.4-2.6-1.1-3
								C115.5,16.2,115.2,16.2,115,16.2z M117.8,41.9L117.8,41.9L117.8,41.9z"/>
						</g>
						<g>
							<polygon class="st5" points="117.8,41.9 117.8,46.9 79.1,69.3 79.1,64.3 							"/>
							<path class="st4" d="M79.1,70.3c-0.2,0-0.3,0-0.5-0.1c-0.3-0.2-0.5-0.5-0.5-0.9v-5.1c0-0.4,0.2-0.7,0.5-0.9L117.3,41
								c0.3-0.2,0.7-0.2,1,0s0.5,0.5,0.5,0.9V47c0,0.4-0.2,0.7-0.5,0.9L79.6,70.2C79.4,70.3,79.2,70.3,79.1,70.3z M80.1,64.8v2.7
								l36.8-21.2v-2.7L80.1,64.8z"/>
						</g>
						<g>
							<polygon class="st0" points="61.4,54.1 61.4,59.1 79.1,69.3 79.1,64.3 							"/>
							<path class="st4" d="M79.1,70.3c-0.2,0-0.3,0-0.5-0.1L60.9,60c-0.3-0.2-0.5-0.5-0.5-0.9V54c0-0.4,0.2-0.7,0.5-0.9
								s0.7-0.2,1,0l17.7,10.2c0.3,0.2,0.5,0.5,0.5,0.9v5.1c0,0.4-0.2,0.7-0.5,0.9C79.4,70.3,79.2,70.3,79.1,70.3z M62.4,58.5
								l15.7,9v-2.7l-15.7-9C62.4,55.8,62.4,58.5,62.4,58.5z"/>
						</g>
						<g>
							<polygon class="st6" points="76.9,24.2 98.4,11.7 102,13.8 80.4,26.2 							"/>
							<path class="st6" d="M80.4,27.2c-0.2,0-0.3,0-0.5-0.1L76.3,25c-0.3-0.2-0.5-0.5-0.5-0.9s0.2-0.7,0.5-0.9l21.5-12.4
								c0.3-0.2,0.7-0.2,1,0l3.6,2.1c0.3,0.2,0.5,0.5,0.5,0.9s-0.2,0.7-0.5,0.9L80.9,27.1C80.8,27.2,80.6,27.2,80.4,27.2z
								 M78.9,24.2l1.6,0.9L100,13.8l-1.6-0.9L78.9,24.2z"/>
						</g>
						<path class="st6" d="M79.1,70.3c-0.2,0-0.3,0-0.5-0.1L60.9,60c-0.3-0.2-0.5-0.5-0.5-0.9V31.5c0-0.3,0-0.6,0-1v-0.2
							c0-0.3,0.1-0.6,0.1-0.9c0.1-0.4,0.2-0.7,0.3-1.1s0.2-0.7,0.3-1.1c1-2.6,2.6-4.7,4.4-5.8L94.9,4.7c1.4-0.8,2.8-0.9,4-0.3
							c0,0,0.1,0,0.1,0.1l17.7,10.2c0,0,0.1,0,0.1,0.1c1.3,0.8,2,2.5,2,4.6V47c0,0.4-0.2,0.7-0.5,0.9L79.6,70.2
							C79.4,70.3,79.2,70.3,79.1,70.3z M62.4,58.5l16.7,9.6l37.8-21.8v-27c0-1.4-0.4-2.6-1.1-3c0,0-0.1,0-0.1-0.1l-17.6-10H98
							c-0.7-0.4-1.5-0.1-2.1,0.2L66.7,23.3c-1.4,0.8-2.8,2.6-3.6,4.7c-0.1,0.3-0.2,0.6-0.3,0.8c-0.1,0.3-0.2,0.6-0.2,0.9
							c-0.1,0.3-0.1,0.5-0.1,0.8v0.2c0,0.3,0,0.5,0,0.8L62.4,58.5L62.4,58.5z M117.8,46.9L117.8,46.9L117.8,46.9z"/>
						<path class="st6" d="M73.3,56c-0.6,0-1-0.4-1-1V42.3c0-0.6,0.4-1,1-1s1,0.4,1,1V55C74.3,55.6,73.8,56,73.3,56z"/>
						<path class="st6" d="M67.2,52.6c-0.6,0-1-0.4-1-1V38.8c0-0.6,0.4-1,1-1s1,0.4,1,1v12.7C68.2,52.1,67.8,52.6,67.2,52.6z"/>
						<g>
							<g>
								<path class="st5" d="M65.8,54.6l-1.6-0.9l-0.9,0.5l-3.8-0.6v4.8c0,0.7,0.4,1.3,1.3,1.8l4.4,2.5c1.7,1,4.5,1,6.2,0l3.4-1.9
									V56L65.8,54.6z"/>
								<path class="st4" d="M68.3,64.4c-1.3,0-2.6-0.3-3.6-0.9L60.4,61c-1.1-0.7-1.8-1.6-1.8-2.7v-4.8c0-0.3,0.1-0.6,0.3-0.8
									s0.5-0.3,0.8-0.2l3.4,0.5l0.6-0.3c0.3-0.2,0.7-0.2,1,0l1.4,0.8L75,55c0.5,0.1,0.8,0.5,0.8,1v4.8c0,0.4-0.2,0.7-0.5,0.9
									L72,63.5C70.9,64.1,69.6,64.4,68.3,64.4z M60.6,54.8v3.6c0,0.3,0.3,0.6,0.8,0.9l4.4,2.5c1.4,0.8,3.8,0.8,5.2,0l2.9-1.7v-3.3
									l-8.2-1.3c-0.1,0-0.2-0.1-0.3-0.1l-1.1-0.6L63.9,55c-0.2,0.1-0.4,0.2-0.7,0.1L60.6,54.8z"/>
							</g>
							<path class="st4" d="M68.7,63.4c1,0,2-0.3,2.8-0.7l3.4-1.9V56l-6.2-1C68.7,55,68.7,63.4,68.7,63.4z"/>
							<g>
								<path class="st0" d="M65.2,57.9l-4.4-2.5c-1.7-1-1.7-2.6,0-3.6l3.4-1.9L74.8,56l-3.4,1.9C69.7,58.9,66.9,58.9,65.2,57.9z"/>
								<path class="st4" d="M68.3,59.7c-1.3,0-2.6-0.3-3.6-0.9l-4.4-2.5c-1.1-0.7-1.8-1.6-1.8-2.7s0.7-2,1.8-2.7l3.4-1.9
									c0.3-0.2,0.7-0.2,1,0l10.6,6.1c0.3,0.2,0.5,0.5,0.5,0.9s-0.2,0.7-0.5,0.9L72,58.8C70.9,59.4,69.6,59.7,68.3,59.7z M64.2,51
									l-2.9,1.7c-0.5,0.3-0.8,0.6-0.8,0.9s0.3,0.6,0.8,0.9l4.4,2.5l0,0c1.4,0.8,3.8,0.8,5.2,0l1.9-1.1L64.2,51z"/>
							</g>
							<path class="st6" d="M68.3,64.4c-1.3,0-2.6-0.3-3.6-0.9L60.4,61c-1.1-0.7-1.8-1.6-1.8-2.7v-4.8c0-1,0.7-2,1.8-2.7l3.4-1.9
								c0.3-0.2,0.7-0.2,1,0L75.4,55c0.3,0.2,0.5,0.5,0.5,0.9v4.8c0,0.4-0.2,0.7-0.5,0.9L72,63.5C70.9,64.1,69.6,64.4,68.3,64.4z
								 M64.2,51l-2.9,1.7c-0.5,0.3-0.8,0.6-0.8,0.9v4.8c0,0.3,0.3,0.6,0.8,0.9l4.4,2.5c1.4,0.8,3.8,0.8,5.2,0l2.9-1.7v-3.6L64.2,51
								z"/>
						</g>
						<g>
							<polygon class="st5" points="93.4,43.4 84.4,48.6 84.4,44.2 93.4,39 							"/>
							<path class="st5" d="M84.4,49.1c-0.1,0-0.2,0-0.2-0.1C84,48.9,84,48.7,84,48.6v-4.4c0-0.2,0.1-0.3,0.2-0.4l9-5.2
								c0.2-0.1,0.3-0.1,0.5,0s0.2,0.3,0.2,0.4v4.4c0,0.2-0.1,0.3-0.2,0.4l-9,5.2C84.6,49.1,84.5,49.1,84.4,49.1z M84.9,44.5v3.2
								l8-4.6v-3.2L84.9,44.5z M93.4,43.4L93.4,43.4L93.4,43.4z"/>
						</g>
						<g>
							<g>
								<g>
									<path class="st5" d="M110.7,33.2L110.7,33.2c-0.6-0.3-1.3-0.3-2.1,0.2c-1.8,1-3.2,3.8-3.2,6.2c0,1.3,0.4,2.2,1.1,2.6l0,0
										l2.4,1.4l4.2-9L110.7,33.2z"/>
									<path class="st4" d="M108.9,44.6c-0.2,0-0.3,0-0.5-0.1l-2.4-1.4c0,0-0.1,0-0.1-0.1c-1-0.6-1.5-1.9-1.5-3.4
										c0-2.7,1.6-5.8,3.7-7.1c1.1-0.6,2.1-0.7,3-0.2c0,0,0.1,0,0.1,0.1l2.4,1.4c0.5,0.3,0.6,0.8,0.4,1.3l-4.2,9
										c-0.1,0.3-0.3,0.4-0.6,0.5C109.1,44.5,109,44.6,108.9,44.6z M107,41.3l1.4,0.8l3.4-7.2l-1.6-0.9h-0.1
										c-0.4-0.2-0.9,0-1.1,0.2c-1.5,0.9-2.7,3.3-2.7,5.3C106.3,40.4,106.6,41.1,107,41.3L107,41.3z"/>
								</g>
								<path class="st0" d="M110.7,33.2c-0.6-0.3-1.3-0.3-2.1,0.2c-1,0.6-1.8,1.6-2.4,2.9L111,39l2.1-4.4L110.7,33.2L110.7,33.2z"
									/>
								
									<ellipse transform="matrix(0.3916 -0.9201 0.9201 0.3916 31.6007 125.9428)" class="st4" cx="111" cy="39.1" rx="5" ry="2.8"/>
							</g>
							<path class="st6" d="M109.7,44.8c-0.4,0-0.8-0.1-1.2-0.3c0,0-0.1,0-0.1-0.1L106,43c0,0-0.1,0-0.1-0.1c-1-0.6-1.5-1.9-1.5-3.4
								c0-2.7,1.6-5.8,3.7-7.1c1.1-0.6,2.1-0.7,3-0.2c0,0,0.1,0,0.1,0.1l2.4,1.4c0,0,0.1,0,0.1,0.1c1,0.6,1.5,1.9,1.5,3.4
								c0,2.7-1.6,5.8-3.7,7.1C110.9,44.6,110.3,44.8,109.7,44.8z M109.3,42.6C109.3,42.7,109.4,42.7,109.3,42.6
								c0.4,0.3,0.9,0,1.2-0.1c1.5-0.9,2.7-3.3,2.7-5.3c0-0.9-0.2-1.5-0.6-1.7c0,0-0.1,0-0.1-0.1l-2.3-1.3h-0.1
								c-0.4-0.2-0.9,0-1.1,0.2c-1.5,0.9-2.7,3.3-2.7,5.3c0,0.9,0.2,1.5,0.6,1.7c0,0,0.1,0,0.1,0.1L109.3,42.6z"/>
						</g>
					</g>
					<g>
						<g>
							<path class="st3" d="M99.5,101.7v-5.3l-4.7,0.8l-19.1-11c-0.5-0.3-1.2-0.3-1.7,0l-29.2,16.9l-6.8,0.4v5.3
								c0,0.2,0.1,0.4,0.4,0.5l23.4,13.5c0.5,0.3,1.2,0.3,1.7,0l35.6-20.6C99.3,102.1,99.5,101.9,99.5,101.7z"/>
							<path class="st3" d="M62.6,124c-0.5,0-1-0.1-1.4-0.3l-23.4-13.5c-0.5-0.3-0.9-0.8-0.9-1.4v-5.3c0-0.5,0.4-1,0.9-1l6.5-0.3
								l29-16.7c0.8-0.5,1.9-0.5,2.7,0l18.7,10.8l4.3-0.8c0.3-0.1,0.6,0,0.8,0.2c0.2,0.2,0.4,0.5,0.4,0.8v5.3c0,0.6-0.3,1-0.9,1.4
								L64,123.7C63.6,123.9,63.1,124,62.6,124z M39,108.5l23.3,13.4c0.2,0.1,0.6,0.1,0.7,0l35.5-20.5v-3.8L95,98.2
								c-0.2,0-0.5,0-0.7-0.1l-19.1-11c-0.2-0.1-0.6-0.1-0.7,0L45.3,104c-0.1,0.1-0.3,0.1-0.4,0.1l-5.8,0.3L39,108.5L39,108.5z
								 M98.5,101.7L98.5,101.7L98.5,101.7L98.5,101.7z"/>
						</g>
						<path class="st1" d="M62.4,93l-17.6,10.2l-6.8,0.4v5.3c0,0.2,0.1,0.4,0.4,0.5l23.4,13.5c0.2,0.1,0.4,0.2,0.6,0.2V93z"/>
						<path class="st0" d="M99.1,97l-35.6,20.6c-0.5,0.3-1.2,0.3-1.7,0L38.4,104c-0.5-0.3-0.5-0.7,0-1L74,82.4
							c0.5-0.3,1.2-0.3,1.7,0L99.1,96C99.6,96.2,99.6,96.7,99.1,97z"/>
						<path class="st3" d="M62.6,118.7c-0.5,0-1-0.1-1.4-0.3l-23.4-13.5c-0.5-0.3-0.9-0.8-0.9-1.4s0.3-1,0.9-1.4l35.6-20.6
							c0.8-0.5,1.9-0.5,2.7,0L99.5,95c0.5,0.3,0.9,0.8,0.9,1.4s-0.3,1-0.9,1.4L64,118.4C63.6,118.6,63.1,118.7,62.6,118.7z
							 M39.5,103.5l22.8,13.1c0.2,0.1,0.6,0.1,0.7,0l35-20.2L75.2,83.3c-0.2-0.1-0.6-0.1-0.7,0L39.5,103.5z M98.6,96.1l0.5,0.9
							L98.6,96.1L98.6,96.1z"/>
						<polygon class="st1" points="42.1,103.5 74.8,84.6 95.4,96.5 62.6,115.4 						"/>
						<polygon class="st0" points="62.6,115.4 68.7,111.9 68.7,88.1 42.1,103.5 						"/>
						<path class="st2" d="M62.6,124c-0.3,0-0.6,0-0.8-0.1c-0.2,0-0.4-0.1-0.5-0.2l-23.4-13.5c-0.5-0.3-0.9-0.8-0.9-1.4v-5.3
							c0-0.6,0.3-1,0.9-1.4l35.6-20.6c0.8-0.5,1.9-0.5,2.7,0L99.6,95c0.5,0.3,0.9,0.8,0.9,1.4v5.3c0,0.5-0.3,1-0.9,1.4L64,123.7
							C63.6,123.9,63.1,124,62.6,124z M39,108.5l23.3,13.4h0.1c0.2,0.1,0.5,0,0.6,0l35.5-20.5v-4.7L75.2,83.3
							c-0.2-0.1-0.6-0.1-0.7,0L39,103.8V108.5z M98.5,101.7L98.5,101.7L98.5,101.7z M98.6,96.8L98.6,96.8l0.5-0.9L98.6,96.8z"/>
						<ellipse class="st3" cx="81.2" cy="93" rx="1.7" ry="1"/>
						<path class="st0" d="M62.6,116.8l-23.1-13.3l35.3-20.4l23.1,13.3L62.6,116.8z M43.5,103.5l19.1,11l31.3-18.1l-19.1-11
							L43.5,103.5z"/>
					</g>
				</g>
				<rect x="4" y="4" class="st7" width="120" height="120"/>
				<rect x="4" y="4" class="st7" width="120" height="120"/>
			</g>
		</g>
	</g>
	<g>
		<rect class="st7" width="128" height="128"/>
	</g>
</g>
</svg>
