<?xml version="1.0" encoding="utf-8"?>
<!-- Generator: Adobe Illustrator 24.1.0, SVG Export Plug-In . SVG Version: 6.00 Build 0)  -->
<svg version="1.1" id="Layer_1" xmlns="http://www.w3.org/2000/svg" xmlns:xlink="http://www.w3.org/1999/xlink" x="0px" y="0px"
	 viewBox="0 0 128 128" style="enable-background:new 0 0 128 128;" xml:space="preserve">
<style type="text/css">
	.st0{fill:#185849;}
	.st1{fill:none;}
	.st2{fill:#FFFFFF;}
	.st3{fill:#4D9987;}
	.st4{fill:#E9EBDF;}
	.st5{fill:#0E352C;}
	.st6{fill:#C4D7D3;}
	.st7{fill:#27ae60;}
</style>
<g id="Layer_1_1_">
</g>
<g>
	<g id="Layer_2_1_">
		<g id="Tech_Concepts_1_">
			<g>
				<g>
					<g>
						<path class="st0" d="M77.6,81c-0.1,0-0.3,0-0.4-0.1c-0.1,0-0.2-0.1-0.3-0.2c-0.2-0.2-0.3-0.5-0.3-0.7c0-0.1,0-0.1,0-0.2
							s0-0.1,0.1-0.2c0-0.1,0-0.1,0.1-0.2c0-0.1,0.1-0.1,0.1-0.2c0.4-0.4,1-0.4,1.4,0c0.2,0.2,0.3,0.4,0.3,0.7
							c0,0.3-0.1,0.5-0.3,0.7C78.1,80.8,77.8,81,77.6,81z"/>
						<path class="st0" d="M90.7,88.7c-0.5-0.3-0.6-0.9-0.4-1.4l0,0c0.3-0.5,0.9-0.6,1.4-0.4l0,0c0.5,0.3,0.6,0.9,0.4,1.4l0,0
							c-0.2,0.3-0.5,0.5-0.9,0.5l0,0C91,88.8,90.8,88.8,90.7,88.7z M86.1,86c-0.5-0.3-0.6-0.9-0.4-1.4l0,0c0.3-0.5,0.9-0.6,1.4-0.4
							l0,0c0.5,0.3,0.6,0.9,0.4,1.4l0,0c-0.2,0.3-0.5,0.5-0.9,0.5l0,0C86.5,86.2,86.3,86.1,86.1,86z M81.6,83.4
							c-0.5-0.3-0.6-0.9-0.4-1.4l0,0c0.3-0.5,0.9-0.6,1.4-0.4l0,0c0.5,0.3,0.6,0.9,0.4,1.4l0,0c-0.2,0.3-0.5,0.5-0.9,0.5l0,0
							C81.9,83.6,81.8,83.5,81.6,83.4z"/>
						<path class="st0" d="M95.7,91.4c-0.3,0-0.5-0.1-0.7-0.3c-0.2-0.2-0.3-0.4-0.3-0.7c0-0.1,0-0.3,0.1-0.4s0.1-0.2,0.2-0.3
							c0.4-0.4,1.1-0.4,1.4,0c0.1,0.1,0.2,0.2,0.2,0.3c0.1,0.1,0.1,0.2,0.1,0.4c0,0.3-0.1,0.5-0.3,0.7c-0.1,0.1-0.2,0.2-0.3,0.2
							C96,91.4,95.8,91.4,95.7,91.4z"/>
					</g>
					<g>
						<ellipse class="st1" cx="64" cy="72.1" rx="28.4" ry="17.2"/>
					</g>
					<line class="st1" x1="109.3" y1="45.9" x2="18.7" y2="98.3"/>
					<g>
						<g>
							<g>
								<polygon class="st2" points="123,82.1 109.3,89.9 95.7,82.1 109.3,74.2 								"/>
								<path class="st3" d="M109.3,90.9c-0.2,0-0.3,0-0.5-0.1l-13.7-7.9c-0.3-0.2-0.5-0.5-0.5-0.9s0.2-0.7,0.5-0.9l13.7-7.9
									c0.3-0.2,0.7-0.2,1,0l13.7,7.9c0.3,0.2,0.5,0.5,0.5,0.9s-0.2,0.7-0.5,0.9l-13.7,7.9C109.7,90.9,109.5,90.9,109.3,90.9z
									 M97.7,82.1l11.7,6.7l11.7-6.7l-11.7-6.7L97.7,82.1z"/>
							</g>
							<g>
								<polygon class="st3" points="123,82.1 123,98.3 109.3,106.2 109.3,89.9 								"/>
								<path class="st3" d="M109.3,107.2c-0.2,0-0.3,0-0.5-0.1c-0.3-0.2-0.5-0.5-0.5-0.9V89.9c0-0.4,0.2-0.7,0.5-0.9l13.7-7.9
									c0.3-0.2,0.7-0.2,1,0s0.5,0.5,0.5,0.9v16.2c0,0.4-0.2,0.7-0.5,0.9l-13.7,7.9C109.7,107.1,109.5,107.2,109.3,107.2z
									 M110.3,90.5v13.9l11.7-6.7V83.8L110.3,90.5z"/>
							</g>
							<g>
								<polygon class="st4" points="95.7,82.1 95.7,98.3 109.3,106.2 109.3,89.9 								"/>
								<path class="st3" d="M109.3,107.2c-0.2,0-0.3,0-0.5-0.1l-13.7-7.9c-0.3-0.2-0.5-0.5-0.5-0.9V82.1c0-0.4,0.2-0.7,0.5-0.9
									c0.3-0.2,0.7-0.2,1,0l13.7,7.9c0.3,0.2,0.5,0.5,0.5,0.9v16.2c0,0.4-0.2,0.7-0.5,0.9C109.7,107.1,109.5,107.2,109.3,107.2z
									 M96.7,97.7l11.7,6.7V90.5l-11.7-6.7V97.7z"/>
							</g>
						</g>
						<path class="st5" d="M109.3,107.2c-0.2,0-0.3,0-0.5-0.1l-13.7-7.9c-0.3-0.2-0.5-0.5-0.5-0.9V82.1c0-0.4,0.2-0.7,0.5-0.9
							l13.7-7.9c0.3-0.2,0.7-0.2,1,0l13.7,7.9c0.3,0.2,0.5,0.5,0.5,0.9v16.2c0,0.4-0.2,0.7-0.5,0.9l-13.7,7.9
							C109.7,107.1,109.5,107.2,109.3,107.2z M96.7,97.7l12.7,7.3l12.7-7.3V82.6l-12.7-7.3l-12.7,7.3V97.7z"/>
						<polygon class="st1" points="123,98.3 109.3,106.2 95.7,98.3 109.3,90.4 						"/>
					</g>
					<g>
						<g>
							<g>
								<polygon class="st2" points="123,29.7 109.3,37.6 95.7,29.7 109.3,21.8 								"/>
								<path class="st3" d="M109.3,38.6c-0.2,0-0.3,0-0.5-0.1l-13.7-7.9c-0.3-0.2-0.5-0.5-0.5-0.9s0.2-0.7,0.5-0.9l13.7-7.9
									c0.3-0.2,0.7-0.2,1,0l13.7,7.9c0.3,0.2,0.5,0.5,0.5,0.9s-0.2,0.7-0.5,0.9l-13.7,7.9C109.7,38.5,109.5,38.6,109.3,38.6z
									 M97.7,29.7l11.7,6.7l11.7-6.7L109.3,23L97.7,29.7z"/>
							</g>
							<g>
								<polygon class="st3" points="123,29.7 123,45.9 109.3,53.8 109.3,37.6 								"/>
								<path class="st3" d="M109.3,54.8c-0.2,0-0.3,0-0.5-0.1c-0.3-0.2-0.5-0.5-0.5-0.9V37.6c0-0.4,0.2-0.7,0.5-0.9l13.7-7.9
									c0.3-0.2,0.7-0.2,1,0s0.5,0.5,0.5,0.9v16.2c0,0.4-0.2,0.7-0.5,0.9l-13.7,7.9C109.7,54.8,109.5,54.8,109.3,54.8z M110.3,38.2
									v13.9l11.7-6.7v-14L110.3,38.2z"/>
							</g>
							<g>
								<polygon class="st4" points="95.7,29.7 95.7,45.9 109.3,53.8 109.3,37.6 								"/>
								<path class="st3" d="M109.3,54.8c-0.2,0-0.3,0-0.5-0.1l-13.7-7.9c-0.3-0.2-0.5-0.5-0.5-0.9V29.7c0-0.4,0.2-0.7,0.5-0.9
									c0.3-0.2,0.7-0.2,1,0l13.7,7.9c0.3,0.2,0.5,0.5,0.5,0.9v16.2c0,0.4-0.2,0.7-0.5,0.9C109.7,54.8,109.5,54.8,109.3,54.8z
									 M96.7,45.4l11.7,6.7V38.2l-11.7-6.7V45.4z"/>
							</g>
						</g>
						<path class="st5" d="M109.3,54.8c-0.2,0-0.3,0-0.5-0.1l-13.7-7.9c-0.3-0.2-0.5-0.5-0.5-0.9V29.7c0-0.4,0.2-0.7,0.5-0.9
							l13.7-7.9c0.3-0.2,0.7-0.2,1,0l13.7,7.9c0.3,0.2,0.5,0.5,0.5,0.9v16.2c0,0.4-0.2,0.7-0.5,0.9l-13.7,7.9
							C109.7,54.8,109.5,54.8,109.3,54.8z M96.7,45.4l12.7,7.3l12.7-7.3V30.3L109.3,23l-12.7,7.3L96.7,45.4L96.7,45.4z"/>
						<polygon class="st1" points="123,45.9 109.3,53.8 95.7,45.9 109.3,38.1 						"/>
					</g>
					<g>
						<g>
							<path class="st6" d="M77.8,64.2c-0.1-0.1-0.2-0.1-0.3-0.2c-7.5-4.3-19.7-4.3-27.2,0c-0.1,0.1-0.2,0.1-0.3,0.2h-5.4v7.9
								c0,2.8,1.9,5.7,5.6,7.8c7.5,4.3,19.7,4.3,27.2,0c3.7-2.2,5.6-5,5.6-7.8v-7.9H77.8z"/>
							<path class="st7" d="M77.6,80c3.7-2.2,5.6-5,5.6-7.8v-7.9h-5.4c-0.1-0.1-0.2-0.1-0.3-0.2c-3.7-2.2-8.7-3.2-13.6-3.2v22.4
								C68.9,83.2,73.8,82.1,77.6,80z"/>
							<ellipse class="st6" cx="64" cy="64.2" rx="19.2" ry="11.1"/>
							<path class="st2" d="M64,76.3c-5.1,0-10.2-1.1-14.1-3.4c-4-2.3-6.1-5.4-6.1-8.7c0-3.3,2.2-6.4,6.1-8.7
								c7.8-4.5,20.4-4.5,28.2,0l0,0c4,2.3,6.1,5.4,6.1,8.7c0,3.3-2.2,6.4-6.1,8.7C74.2,75.1,69.1,76.3,64,76.3z M64,54.1
								c-4.7,0-9.5,1-13.1,3.1c-3.3,1.9-5.1,4.4-5.1,7s1.8,5.1,5.1,7c7.2,4.2,18.9,4.2,26.2,0c3.3-1.9,5.1-4.4,5.1-7s-1.8-5.1-5.1-7
								l0,0C73.5,55.1,68.7,54.1,64,54.1z"/>
							<ellipse class="st1" cx="64" cy="71.4" rx="19.7" ry="11.9"/>
							<path class="st0" d="M64,84.2c-5.3,0-10.3-1.2-14.1-3.4c-4-2.3-6.1-5.4-6.1-8.7v-7.9c0-3.3,2.2-6.4,6.1-8.7
								c7.8-4.5,20.4-4.5,28.2,0c4,2.3,6.1,5.4,6.1,8.7v7.9c0,1.2-0.3,2.4-0.9,3.6c-1,1.9-2.8,3.7-5.2,5.1c-1.9,1.1-4.1,2-6.6,2.5
								c-0.6,0.1-1.2,0.3-1.8,0.4c-1.2,0.2-2.5,0.3-3.7,0.4C65.3,84.2,64.6,84.2,64,84.2z M64,54.1c-4.7,0-9.5,1-13.1,3.1
								c-3.3,1.9-5.1,4.4-5.1,7v7.9c0,2.6,1.8,5.1,5.1,7c3.5,2,8.1,3.1,13.1,3.1c0.6,0,1.2,0,1.8,0c1.2-0.1,2.4-0.2,3.5-0.4
								c0.6-0.1,1.1-0.2,1.7-0.3c2.3-0.5,4.3-1.3,6.1-2.3c2.1-1.2,3.6-2.7,4.4-4.3c0.5-0.9,0.7-1.8,0.7-2.7l0,0v-7.9
								c0-2.6-1.8-5.1-5.1-7C73.5,55.1,68.7,54.1,64,54.1z"/>
							<path class="st7" d="M71.4,67.3l2,1.2l-1.8,1l-2-1.1c-1,0.5-2,0.9-3,1.2c-1.1,0.3-2.1,0.5-2.9,0.6l-1.2-1.9
								c0.8-0.1,1.6-0.2,2.5-0.4c0.8-0.2,1.6-0.5,2.3-0.9l-3-1.8c-1.1,0.4-2,0.7-2.9,0.9c-0.9,0.2-1.7,0.3-2.6,0.2
								c-0.9-0.1-1.7-0.3-2.6-0.8c-1-0.6-1.5-1.3-1.5-2.1c0-0.8,0.6-1.7,1.9-2.6l-2-1.2l1.8-1l2,1.1c1.6-0.8,3.2-1.3,4.8-1.5
								l1.3,1.8c-1.4,0.2-2.7,0.6-3.7,1.1l3.1,1.8c1-0.4,2-0.7,2.8-0.9c0.8-0.2,1.7-0.3,2.6-0.2s1.7,0.3,2.5,0.8
								c1,0.6,1.5,1.3,1.5,2.1C73.2,65.5,72.6,66.4,71.4,67.3z M60.1,64c0.4,0,0.9-0.1,1.5-0.3L59,62.2c-0.4,0.3-0.5,0.6-0.5,0.9
								c0,0.3,0.2,0.5,0.5,0.7C59.3,63.9,59.7,64,60.1,64 M66.5,64.4l2.5,1.5c0.3-0.3,0.5-0.6,0.5-0.8c0-0.3-0.2-0.5-0.5-0.6
								c-0.3-0.2-0.7-0.3-1.1-0.2C67.6,64.2,67.1,64.3,66.5,64.4"/>
						</g>
						<g>
							<path class="st6" d="M77.8,56.2c-0.1-0.1-0.2-0.1-0.3-0.2c-7.5-4.3-19.7-4.3-27.2,0c-0.1,0.1-0.2,0.1-0.3,0.2h-5.4v7.9
								c0,2.8,1.9,5.7,5.6,7.8c7.5,4.3,19.7,4.3,27.2,0c3.7-2.2,5.6-5,5.6-7.8v-7.9C83,56.2,77.8,56.2,77.8,56.2z"/>
							<path class="st7" d="M77.6,72c3.7-2.2,5.6-5,5.6-7.8v-7.9h-5.4c-0.1-0.1-0.2-0.1-0.3-0.2c-3.7-2.2-8.7-3.2-13.6-3.2v22.4
								C68.9,75.3,73.8,74.2,77.6,72z"/>
							<ellipse class="st6" cx="64" cy="56.2" rx="19.2" ry="11.1"/>
							<path class="st2" d="M64,68.3c-5.1,0-10.2-1.1-14.1-3.4c-4-2.3-6.1-5.4-6.1-8.7s2.2-6.4,6.1-8.7c7.8-4.5,20.4-4.5,28.2,0l0,0
								c4,2.3,6.1,5.4,6.1,8.7s-2.2,6.4-6.1,8.7C74.2,67.2,69.1,68.3,64,68.3z M64,46.2c-4.7,0-9.5,1-13.1,3.1
								c-3.3,1.9-5.1,4.4-5.1,7s1.8,5.1,5.1,7c7.2,4.2,18.9,4.2,26.2,0c3.3-1.9,5.1-4.4,5.1-7s-1.8-5.1-5.1-7l0,0
								C73.5,47.2,68.7,46.2,64,46.2z"/>
							<ellipse class="st1" cx="64" cy="63.4" rx="19.7" ry="11.9"/>
							<path class="st0" d="M64,76.3c-5.3,0-10.3-1.2-14.1-3.4c-4-2.3-6.1-5.4-6.1-8.7v-7.9c0-3.3,2.2-6.4,6.1-8.7
								c7.8-4.5,20.4-4.5,28.2,0c4,2.3,6.1,5.4,6.1,8.7v7.9c0,1.2-0.3,2.4-0.9,3.6c-1,1.9-2.8,3.7-5.2,5.1c-1.9,1.1-4.1,2-6.6,2.5
								c-0.6,0.1-1.2,0.3-1.8,0.4c-1.2,0.2-2.5,0.3-3.7,0.4C65.3,76.3,64.6,76.3,64,76.3z M64,46.2c-4.7,0-9.5,1-13.1,3.1
								c-3.3,1.9-5.1,4.4-5.1,7v7.9c0,2.6,1.8,5.1,5.1,7c3.5,2,8.1,3.1,13.1,3.1c0.6,0,1.2,0,1.8,0c1.2-0.1,2.4-0.2,3.5-0.4
								c0.6-0.1,1.1-0.2,1.7-0.3c2.3-0.5,4.3-1.3,6.1-2.3c2.1-1.2,3.6-2.7,4.4-4.3c0.5-0.9,0.7-1.8,0.7-2.7v-7.9
								c0-2.6-1.8-5.1-5.1-7C73.5,47.2,68.7,46.2,64,46.2z"/>
							<path class="st7" d="M71.4,59.3l2,1.2l-1.8,1l-2-1.1c-1,0.5-2,0.9-3,1.2c-1.1,0.3-2.1,0.5-2.9,0.6l-1.2-1.9
								c0.8-0.1,1.6-0.2,2.5-0.4c0.8-0.2,1.6-0.5,2.3-0.9l-3-1.8c-1.1,0.4-2,0.7-2.9,0.9s-1.7,0.3-2.6,0.2c-0.9-0.1-1.7-0.3-2.6-0.8
								c-1-0.6-1.5-1.3-1.5-2.1s0.6-1.7,1.9-2.6l-2-1.2l1.8-1l2,1.1c1.6-0.8,3.2-1.3,4.8-1.5l1.3,1.8c-1.4,0.2-2.7,0.6-3.7,1.1
								l3.1,1.8c1-0.4,2-0.7,2.8-0.9c0.8-0.2,1.7-0.3,2.6-0.2s1.7,0.3,2.5,0.8c1,0.6,1.5,1.3,1.5,2.1C73.2,57.6,72.6,58.4,71.4,59.3
								z M60.1,56c0.4,0,0.9-0.1,1.5-0.3L59,54.3c-0.4,0.3-0.5,0.6-0.5,0.9c0,0.3,0.2,0.5,0.5,0.7C59.3,56,59.7,56.1,60.1,56
								 M66.5,56.5L69,58c0.3-0.3,0.5-0.6,0.5-0.8c0-0.3-0.2-0.5-0.5-0.6c-0.3-0.2-0.7-0.3-1.1-0.2C67.6,56.3,67.1,56.4,66.5,56.5"
								/>
						</g>
						<g>
							<path class="st6" d="M77.8,48.3c-0.1-0.1-0.2-0.1-0.3-0.2c-7.5-4.3-19.7-4.3-27.2,0c-0.1,0.1-0.2,0.1-0.3,0.2h-5.4v7.9
								c0,2.8,1.9,5.7,5.6,7.8c7.5,4.3,19.7,4.3,27.2,0c3.7-2.2,5.6-5,5.6-7.8v-7.9H77.8z"/>
							<path class="st7" d="M77.6,64.1c3.7-2.2,5.6-5,5.6-7.8v-7.9h-5.4c-0.1-0.1-0.2-0.1-0.3-0.2C73.8,46,68.8,45,63.9,45v22.4
								C68.9,67.3,73.8,66.3,77.6,64.1z"/>
							<ellipse class="st6" cx="64" cy="48.3" rx="19.2" ry="11.1"/>
							<path class="st2" d="M64,60.4c-5.1,0-10.2-1.1-14.1-3.4c-3.9-2.3-6.1-5.4-6.1-8.7s2.2-6.4,6.1-8.7c7.8-4.5,20.4-4.5,28.2,0
								c4,2.3,6.1,5.4,6.1,8.7S82,54.7,78.1,57S69.1,60.4,64,60.4z M64,38.2c-4.7,0-9.5,1-13.1,3.1c-3.3,1.9-5.1,4.4-5.1,7
								s1.8,5.1,5.1,7c7.2,4.2,18.9,4.2,26.2,0c3.3-1.9,5.1-4.4,5.1-7s-1.8-5.1-5.1-7C73.5,39.3,68.7,38.2,64,38.2z"/>
							<ellipse class="st1" cx="64" cy="55.5" rx="19.7" ry="11.9"/>
							<path class="st0" d="M64,68.3c-5.3,0-10.3-1.2-14.1-3.4c-3.9-2.3-6.1-5.4-6.1-8.7v-7.9c0-3.3,2.2-6.4,6.1-8.7
								c7.8-4.5,20.4-4.5,28.2,0c4,2.3,6.1,5.4,6.1,8.7v7.9c0,1.2-0.3,2.4-0.9,3.6c-1,1.9-2.8,3.7-5.2,5.1c-1.9,1.1-4.1,2-6.6,2.5
								c-0.6,0.1-1.2,0.3-1.8,0.4c-1.2,0.2-2.5,0.3-3.7,0.4C65.3,68.3,64.6,68.3,64,68.3z M64,38.2c-4.7,0-9.5,1-13.1,3.1
								c-3.3,1.9-5.1,4.4-5.1,7v7.9c0,2.6,1.8,5.1,5.1,7c3.5,2,8.1,3.1,13.1,3.1c0.6,0,1.2,0,1.8,0c1.2-0.1,2.4-0.2,3.5-0.4
								c0.6-0.1,1.1-0.2,1.7-0.3c2.3-0.5,4.3-1.3,6.1-2.3c2.1-1.2,3.6-2.7,4.4-4.3c0.5-0.9,0.7-1.8,0.7-2.7v-7.9
								c0-2.6-1.8-5.1-5.1-7C73.5,39.3,68.7,38.2,64,38.2z"/>
							<path class="st7" d="M71.4,51.4l2,1.2l-1.8,1l-2-1.1c-1,0.5-2,0.9-3,1.2c-1.1,0.3-2.1,0.5-2.9,0.6l-1.2-1.9
								c0.8-0.1,1.6-0.2,2.5-0.4c0.8-0.2,1.6-0.5,2.3-0.9l-3-1.8c-1.1,0.4-2,0.7-2.9,0.9s-1.7,0.3-2.6,0.2c-0.9-0.1-1.7-0.3-2.6-0.8
								c-1-0.6-1.5-1.3-1.5-2.1s0.6-1.7,1.9-2.6l-2-1.2l1.8-1l2,1.1c1.6-0.8,3.2-1.3,4.8-1.5l1.3,1.8c-1.4,0.2-2.7,0.6-3.7,1.1
								l3.1,1.8c1-0.4,2-0.7,2.8-0.9c0.8-0.2,1.7-0.3,2.6-0.2s1.7,0.3,2.5,0.8c1,0.6,1.5,1.3,1.5,2.1C73.2,49.7,72.6,50.5,71.4,51.4
								z M60.1,48.1c0.4,0,0.9-0.1,1.5-0.3L59,46.3c-0.4,0.3-0.5,0.6-0.5,0.9c0,0.3,0.2,0.5,0.5,0.7C59.3,48.1,59.7,48.1,60.1,48.1
								 M66.5,48.6L69,50c0.3-0.3,0.5-0.6,0.5-0.8c0-0.3-0.2-0.5-0.5-0.6s-0.7-0.3-1.1-0.2C67.6,48.3,67.1,48.4,66.5,48.6"/>
						</g>
					</g>
					<g>
						<path class="st0" d="M96.4,53.6c-0.1,0-0.3,0-0.4-0.1c-0.1,0-0.2-0.1-0.3-0.2c-0.2-0.2-0.3-0.4-0.3-0.7c0-0.1,0-0.3,0.1-0.4
							s0.1-0.2,0.2-0.3c0,0,0.1-0.1,0.2-0.1c0,0,0.1-0.1,0.2-0.1s0.1,0,0.2-0.1c0.2,0,0.4,0,0.6,0.1c0.1,0,0.2,0.1,0.3,0.2
							c0.1,0.1,0.2,0.2,0.2,0.3c0.1,0.1,0.1,0.2,0.1,0.4c0,0.3-0.1,0.5-0.3,0.7c-0.1,0.1-0.2,0.2-0.3,0.2
							C96.7,53.6,96.6,53.6,96.4,53.6z"/>
						<path class="st0" d="M86.6,58.3c-0.3-0.5-0.1-1.1,0.4-1.4l0,0c0.5-0.3,1.1-0.1,1.4,0.4l0,0c0.3,0.5,0.1,1.1-0.4,1.4l0,0
							c-0.2,0.1-0.3,0.1-0.5,0.1l0,0C87.1,58.8,86.8,58.6,86.6,58.3z M91.1,55.7c-0.3-0.5-0.1-1.1,0.4-1.4l0,0
							c0.5-0.3,1.1-0.1,1.4,0.4l0,0c0.3,0.5,0.1,1.1-0.4,1.4l0,0c-0.2,0.1-0.3,0.1-0.5,0.1l0,0C91.6,56.2,91.3,56,91.1,55.7z"/>
						<path class="st0" d="M83,61.3c-0.1,0-0.3,0-0.4-0.1s-0.2-0.1-0.3-0.2c-0.1-0.1-0.2-0.2-0.2-0.3S82,60.5,82,60.3
							c0-0.3,0.1-0.5,0.3-0.7c0.4-0.4,1-0.4,1.4,0l0.1,0.1c0,0,0.1,0.1,0.1,0.2c0,0.1,0,0.1,0.1,0.2c0,0.1,0,0.1,0,0.2
							c0,0.1,0,0.3-0.1,0.4c0,0.1-0.1,0.2-0.2,0.3C83.5,61.2,83.3,61.3,83,61.3z"/>
					</g>
					<g>
						<path class="st0" d="M50.4,81c-0.3,0-0.5-0.1-0.7-0.3c-0.2-0.2-0.3-0.5-0.3-0.7c0-0.1,0-0.1,0-0.2s0-0.1,0.1-0.2
							c0-0.1,0-0.1,0.1-0.2c0-0.1,0.1-0.1,0.1-0.2c0.4-0.4,1-0.4,1.4,0c0,0,0.1,0.1,0.1,0.2c0,0,0.1,0.1,0.1,0.2s0,0.1,0.1,0.2
							c0,0.1,0,0.1,0,0.2c0,0.3-0.1,0.5-0.3,0.7c-0.1,0.1-0.2,0.2-0.3,0.2S50.5,81,50.4,81z"/>
						<path class="st0" d="M36,88.3c-0.3-0.5-0.1-1.1,0.4-1.4l0,0c0.5-0.3,1.1-0.1,1.4,0.4l0,0c0.3,0.5,0.1,1.1-0.4,1.4l0,0
							c-0.2,0.1-0.3,0.1-0.5,0.1l0,0C36.5,88.8,36.2,88.6,36,88.3z M40.5,85.7c-0.3-0.5-0.1-1.1,0.4-1.4l0,0
							c0.5-0.3,1.1-0.1,1.4,0.4l0,0c0.3,0.5,0.1,1.1-0.4,1.4l0,0c-0.2,0.1-0.3,0.1-0.5,0.1l0,0C41,86.2,40.7,86,40.5,85.7z M45,83.1
							c-0.3-0.5-0.1-1.1,0.4-1.4l0,0c0.5-0.3,1.1-0.1,1.4,0.4l0,0c0.3,0.5,0.1,1.1-0.4,1.4l0,0c-0.1,0.1-0.3,0.1-0.5,0.1l0,0
							C45.5,83.6,45.2,83.4,45,83.1z"/>
						<path class="st0" d="M32.3,91.4c-0.1,0-0.3,0-0.4-0.1s-0.2-0.1-0.3-0.2c-0.2-0.2-0.3-0.4-0.3-0.7c0-0.1,0-0.3,0.1-0.4
							s0.1-0.2,0.2-0.3c0.4-0.4,1-0.4,1.4,0c0.1,0.1,0.2,0.2,0.2,0.3c0,0.1,0.1,0.2,0.1,0.4c0,0.3-0.1,0.5-0.3,0.7
							C32.8,91.3,32.6,91.4,32.3,91.4z"/>
					</g>
					<g>
						<g>
							<g>
								<polygon class="st2" points="32.3,82.1 18.7,89.9 5,82.1 18.7,74.2 								"/>
								<path class="st3" d="M18.7,90.9c-0.2,0-0.3,0-0.5-0.1L4.5,82.9C4.2,82.7,4,82.4,4,82.1s0.2-0.7,0.5-0.9l13.7-7.9
									c0.3-0.2,0.7-0.2,1,0l13.7,7.9c0.3,0.2,0.5,0.5,0.5,0.9s-0.2,0.7-0.5,0.9l-13.7,7.9C19,90.9,18.8,90.9,18.7,90.9z M7,82.1
									l11.7,6.7l11.7-6.7l-11.7-6.7L7,82.1z"/>
							</g>
							<g>
								<polygon class="st3" points="32.3,82.1 32.3,98.3 18.7,106.2 18.7,89.9 								"/>
								<path class="st3" d="M18.7,107.2c-0.2,0-0.3,0-0.5-0.1c-0.3-0.2-0.5-0.5-0.5-0.9V89.9c0-0.4,0.2-0.7,0.5-0.9l13.7-7.9
									c0.3-0.2,0.7-0.2,1,0s0.5,0.5,0.5,0.9v16.2c0,0.4-0.2,0.7-0.5,0.9L19.2,107C19,107.1,18.8,107.2,18.7,107.2z M19.7,90.5
									v13.9l11.7-6.7V83.8L19.7,90.5z"/>
							</g>
							<g>
								<polygon class="st4" points="5,82.1 5,98.3 18.7,106.2 18.7,89.9 								"/>
								<path class="st3" d="M18.7,107.2c-0.2,0-0.3,0-0.5-0.1L4.5,99.2C4.2,99,4,98.7,4,98.3V82.1c0-0.4,0.2-0.7,0.5-0.9
									c0.3-0.2,0.7-0.2,1,0l13.7,7.9c0.3,0.2,0.5,0.5,0.5,0.9v16.2c0,0.4-0.2,0.7-0.5,0.9C19,107.1,18.8,107.2,18.7,107.2z
									 M6,97.7l11.7,6.7V90.5L6,83.8V97.7z"/>
							</g>
						</g>
						<path class="st5" d="M18.7,107.2c-0.2,0-0.3,0-0.5-0.1L4.5,99.2C4.2,99,4,98.7,4,98.3V82.1c0-0.4,0.2-0.7,0.5-0.9l13.7-7.9
							c0.3-0.2,0.7-0.2,1,0l13.7,7.9c0.3,0.2,0.5,0.5,0.5,0.9v16.2c0,0.4-0.2,0.7-0.5,0.9L19.2,107C19,107.1,18.8,107.2,18.7,107.2z
							 M6,97.7l12.7,7.3l12.7-7.3V82.6l-12.7-7.3L6,82.6V97.7z"/>
						<polygon class="st1" points="32.3,98.3 18.7,106.2 5,98.3 18.7,90.4 						"/>
					</g>
					<g>
						<g>
							<g>
								<polygon class="st2" points="32.3,29.7 18.7,37.6 5,29.7 18.7,21.8 								"/>
								<path class="st3" d="M18.7,38.6c-0.2,0-0.3,0-0.5-0.1L4.5,30.6C4.2,30.4,4,30.1,4,29.7s0.2-0.7,0.5-0.9L18.2,21
									c0.3-0.2,0.7-0.2,1,0l13.7,7.9c0.3,0.2,0.5,0.5,0.5,0.9s-0.2,0.7-0.5,0.9l-13.7,7.9C19,38.5,18.8,38.6,18.7,38.6z M7,29.7
									l11.7,6.7l11.7-6.7L18.7,23L7,29.7z"/>
							</g>
							<g>
								<polygon class="st3" points="32.3,29.7 32.3,45.9 18.7,53.8 18.7,37.6 								"/>
								<path class="st3" d="M18.7,54.8c-0.2,0-0.3,0-0.5-0.1c-0.3-0.2-0.5-0.5-0.5-0.9V37.6c0-0.4,0.2-0.7,0.5-0.9l13.7-7.9
									c0.3-0.2,0.7-0.2,1,0s0.5,0.5,0.5,0.9v16.2c0,0.4-0.2,0.7-0.5,0.9l-13.7,7.9C19,54.8,18.8,54.8,18.7,54.8z M19.7,38.2v13.9
									l11.7-6.7v-14L19.7,38.2z"/>
							</g>
							<g>
								<polygon class="st4" points="5,29.7 5,45.9 18.7,53.8 18.7,37.6 								"/>
								<path class="st3" d="M18.7,54.8c-0.2,0-0.3,0-0.5-0.1L4.5,46.8C4.2,46.6,4,46.3,4,45.9V29.7c0-0.4,0.2-0.7,0.5-0.9
									c0.3-0.2,0.7-0.2,1,0l13.7,7.9c0.3,0.2,0.5,0.5,0.5,0.9v16.2c0,0.4-0.2,0.7-0.5,0.9C19,54.8,18.8,54.8,18.7,54.8z M6,45.4
									l11.7,6.7V38.2L6,31.4V45.4z"/>
							</g>
						</g>
						<path class="st5" d="M18.7,54.8c-0.2,0-0.3,0-0.5-0.1L4.5,46.8C4.2,46.6,4,46.3,4,45.9V29.7c0-0.4,0.2-0.7,0.5-0.9L18.2,21
							c0.3-0.2,0.7-0.2,1,0l13.7,7.9c0.3,0.2,0.5,0.5,0.5,0.9V46c0,0.4-0.2,0.7-0.5,0.9l-13.7,7.9C19,54.8,18.8,54.8,18.7,54.8z
							 M6,45.4l12.7,7.3l12.7-7.3V30.3L18.7,23L6,30.3V45.4z"/>
						<polygon class="st1" points="32.3,45.9 18.7,53.8 5,45.9 18.7,38.1 						"/>
					</g>
					<g>
						<path class="st0" d="M31.6,53.6c-0.1,0-0.3,0-0.4-0.1c-0.1,0-0.2-0.1-0.3-0.2c-0.2-0.2-0.3-0.4-0.3-0.7c0-0.1,0-0.3,0.1-0.4
							s0.1-0.2,0.2-0.3c0.1,0,0.1-0.1,0.2-0.1s0.1-0.1,0.2-0.1s0.1,0,0.2-0.1c0.3-0.1,0.7,0,0.9,0.3c0.1,0.1,0.2,0.2,0.2,0.3
							s0.1,0.2,0.1,0.4c0,0.3-0.1,0.5-0.3,0.7c-0.1,0.1-0.2,0.2-0.3,0.2C31.8,53.6,31.7,53.6,31.6,53.6z"/>
						<path class="st0" d="M40,58.6c-0.5-0.3-0.6-0.9-0.4-1.4l0,0c0.3-0.5,0.9-0.6,1.4-0.4l0,0c0.5,0.3,0.6,0.9,0.4,1.4l0,0
							c-0.2,0.3-0.5,0.5-0.9,0.5l0,0C40.3,58.8,40.2,58.7,40,58.6z M35.5,56c-0.5-0.3-0.7-0.9-0.4-1.4l0,0c0.3-0.5,0.9-0.6,1.4-0.4
							l0,0c0.5,0.3,0.6,0.9,0.4,1.4l0,0c-0.2,0.3-0.5,0.5-0.9,0.5l0,0C35.9,56.2,35.7,56.1,35.5,56z"/>
						<path class="st0" d="M45,61.3c-0.1,0-0.3,0-0.4-0.1c-0.1-0.1-0.2-0.1-0.3-0.2c-0.1-0.1-0.2-0.2-0.2-0.3S44,60.5,44,60.3
							c0-0.3,0.1-0.5,0.3-0.7c0.4-0.4,1-0.4,1.4,0l0.1,0.1c0,0,0.1,0.1,0.1,0.2c0,0.1,0,0.1,0,0.2c0,0.1,0,0.1,0,0.2
							c0,0.1,0,0.3-0.1,0.4c0,0.1-0.1,0.2-0.2,0.3c-0.1,0.1-0.2,0.2-0.3,0.2C45.3,61.3,45.1,61.3,45,61.3z"/>
					</g>
				</g>
				<rect x="4" y="4" class="st1" width="120" height="120"/>
				<rect x="4" y="4" class="st1" width="120" height="120"/>
			</g>
		</g>
	</g>
	<g>
		<rect class="st1" width="128" height="128"/>
	</g>
</g>
</svg>
