<?xml version="1.0" encoding="utf-8"?>
<!-- Generator: Adobe Illustrator 24.1.0, SVG Export Plug-In . SVG Version: 6.00 Build 0)  -->
<svg version="1.1" id="Layer_1" xmlns="http://www.w3.org/2000/svg" xmlns:xlink="http://www.w3.org/1999/xlink" x="0px" y="0px"
	 viewBox="0 0 128 128" style="enable-background:new 0 0 128 128;" xml:space="preserve">
<style type="text/css">
	.st0{fill:#FFFFFF;}
	.st1{fill:#4D9987;}
	.st2{fill:#E9EBDF;}
	.st3{fill:#0E352C;}
	.st4{fill:#C4D7D3;}
	.st5{fill:#27ae60;}
	.st6{fill:none;}
</style>
<g id="Layer_1_1_">
</g>
<g>
	<g id="Layer_2_1_">
		<g id="Objects_1_">
			<g>
				<g>
					<polygon class="st0" points="119,68 64.1,36.2 9,67.9 9,84.5 63.9,116.4 119,84.7 					"/>
					<path class="st1" d="M91.5,84.9c-0.2,0-0.3,0-0.5-0.1L63.5,68.9C63.2,68.7,63,68.4,63,68s0.2-0.7,0.5-0.9L91,51.3
						c0.3-0.2,0.7-0.2,1,0l27.5,15.8c0.3,0.2,0.5,0.5,0.5,0.9s-0.2,0.7-0.5,0.9L92,84.7C91.9,84.8,91.7,84.9,91.5,84.9z M66,68
						l25.5,14.7L117,68L91.5,53.3L66,68z"/>
					<polygon class="st1" points="119,84.7 63.9,116.4 64,99.7 119,68 					"/>
					<polygon class="st2" points="9,84.5 63.9,116.4 64,99.7 9,67.9 					"/>
					<path class="st1" d="M63.9,117.4L63.9,117.4c-0.6,0-1-0.4-1-1V99.8c0-0.6,0.4-1,1-1l0,0c0.6,0,1,0.4,1,1v16.6
						C64.9,116.9,64.5,117.4,63.9,117.4z"/>
					<path class="st1" d="M91.5,101.5c-0.6,0-1-0.4-1-1V83.9c0-0.6,0.4-1,1-1s1,0.4,1,1v16.6C92.5,101.1,92,101.5,91.5,101.5z"/>
					<ellipse class="st1" cx="64" cy="44.3" rx="2.6" ry="1.5"/>
					<ellipse class="st1" cx="23.1" cy="67.9" rx="2.6" ry="1.5"/>
					<ellipse class="st1" cx="64" cy="91.6" rx="2.6" ry="1.5"/>
					<path class="st3" d="M64,117.4c-0.2,0-0.3,0-0.5-0.1l-55-31.9C8,85.1,7.9,84.5,8.2,84c0.3-0.5,0.9-0.6,1.4-0.4L64,115.2
						l54.5-31.4c0.5-0.3,1.1-0.1,1.4,0.4s0.1,1.1-0.4,1.4l-55,31.7C64.3,117.3,64.1,117.4,64,117.4z"/>
					<path class="st1" d="M64,100.7c-0.2,0-0.3,0-0.5-0.1l-55-31.9c-0.5-0.3-0.6-0.9-0.4-1.4c0.3-0.5,0.9-0.6,1.4-0.4L64,98.5
						l54.5-31.4c0.5-0.3,1.1-0.1,1.4,0.4s0.1,1.1-0.4,1.4l-55,31.7C64.3,100.7,64.1,100.7,64,100.7z"/>
					<path class="st3" d="M63.9,117.4c-0.2,0-0.3,0-0.5-0.1L8.5,85.4C8.2,85.2,8,84.9,8,84.5V67.9c0-0.4,0.2-0.7,0.5-0.9l55-31.7
						c0.3-0.2,0.7-0.2,1,0l54.9,31.8c0.3,0.2,0.5,0.5,0.5,0.9v16.6c0,0.4-0.2,0.7-0.5,0.9l-55,31.7
						C64.3,117.3,64.1,117.4,63.9,117.4z M10,84l53.9,31.2l54-31.1V68.6L64.1,37.4L10,68.5V84z"/>
					<path class="st2" d="M99.9,68c0,2.7-3.8,4.8-8.4,4.8s-8.4-2.2-8.4-4.8c0-2.7,3.8-4.8,8.4-4.8S99.9,65.4,99.9,68"/>
					<g>
						<path class="st2" d="M94.7,67.4c0,1-1.4,1.8-3.2,1.8c-1.8,0-3.2-0.8-3.2-1.8s1.4-1.8,3.2-1.8C93.3,65.6,94.7,66.4,94.7,67.4"
							/>
						<rect x="88.3" y="36.2" class="st2" width="6.4" height="31.2"/>
						<rect x="88.3" y="36.2" class="st1" width="6.4" height="31.2"/>
						<path class="st1" d="M94.7,67.4c0,1-1.4,1.8-3.2,1.8c-1.8,0-3.2-0.8-3.2-1.8s1.4-1.8,3.2-1.8C93.3,65.6,94.7,66.4,94.7,67.4"
							/>
						<path class="st3" d="M91.5,70.3c-2.4,0-4.2-1.2-4.2-2.8V36.2c0-0.6,0.4-1,1-1h6.4c0.6,0,1,0.4,1,1v31.2
							C95.7,69,93.9,70.3,91.5,70.3z M89.3,37.2v30.2c0,0.2,0.7,0.8,2.2,0.8c1.4,0,2.2-0.6,2.2-0.8V37.2H89.3z"/>
					</g>
					<path class="st2" d="M95.2,36.9c0,1.2-1.7,2.2-3.7,2.2c-2.1,0-3.7-1-3.7-2.2s1.7-2.2,3.7-2.2C93.6,34.7,95.2,35.7,95.2,36.9"/>
					<g>
						<g>
							<g>
								<circle class="st2" cx="91.5" cy="26.7" r="15.1"/>
								<path class="st1" d="M101.2,18.1c-0.7-0.8-2,0-1.6,1c1.3,3.2,1.7,7.8-3.1,12.6c-4.8,4.8-9.4,4.4-12.6,3.1
									c-1-0.4-1.8,0.9-1,1.6c2.6,2.3,6.1,3.6,10,3.2c6-0.6,10.9-5.5,11.5-11.5C104.8,24.3,103.5,20.7,101.2,18.1z"/>
								<path class="st2" d="M91.5,41.4c-8.1,0-14.7-6.6-14.7-14.7S83.4,12,91.5,12s14.7,6.6,14.7,14.7S99.6,41.4,91.5,41.4z
									 M91.5,14.1c-7,0-12.7,5.7-12.7,12.7s5.7,12.7,12.7,12.7s12.7-5.7,12.7-12.7C104.2,19.7,98.5,14.1,91.5,14.1z"/>
								<path class="st3" d="M91.5,42.8c-8.9,0-16.1-7.2-16.1-16.1s7.2-16.1,16.1-16.1s16.1,7.2,16.1,16.1S100.4,42.8,91.5,42.8z
									 M91.5,12.6c-7.8,0-14.1,6.3-14.1,14.1s6.3,14.1,14.1,14.1s14.1-6.3,14.1-14.1S99.3,12.6,91.5,12.6z"/>
								
									<ellipse transform="matrix(0.7071 -0.7071 0.7071 0.7071 10.8998 65.4607)" class="st0" cx="84.5" cy="19.6" rx="3.5" ry="2.1"/>
							</g>
						</g>
					</g>
					<g>
						<path class="st4" d="M66.5,79.2c0,2.2-3.1,4-7,4s-7-1.8-7-4s3.1-4,7-4S66.5,77,66.5,79.2"/>
						<path class="st5" d="M59.6,84.3c-4.5,0-8-2.2-8-5s3.5-5,8-5s8,2.2,8,5S64,84.3,59.6,84.3z M59.6,76.2c-3.5,0-6,1.6-6,3
							s2.5,3,6,3s6-1.6,6-3C65.5,77.8,63.1,76.2,59.6,76.2z"/>
					</g>
					<g>
						<rect x="52.6" y="77.2" class="st4" width="14" height="2"/>
						<path class="st5" d="M66.5,80.2h-14c-0.6,0-1-0.4-1-1v-2c0-0.6,0.4-1,1-1h14c0.6,0,1,0.4,1,1v2C67.5,79.8,67.1,80.2,66.5,80.2
							z"/>
					</g>
					<g>
						<path class="st4" d="M66.5,56.8c0-2.2-3.1-4-7-4s-7,1.8-7,4s3.1,4,7,4S66.5,59,66.5,56.8"/>
						<path class="st5" d="M59.6,61.8c-4.5,0-8-2.2-8-5s3.5-5,8-5s8,2.2,8,5S64,61.8,59.6,61.8z M59.6,53.7c-3.5,0-6,1.6-6,3
							s2.5,3,6,3s6-1.6,6-3S63.1,53.7,59.6,53.7z"/>
					</g>
					<g>
						<rect x="52.6" y="54.8" class="st4" width="14" height="2"/>
						<path class="st5" d="M66.5,57.8h-14c-0.6,0-1-0.4-1-1v-2c0-0.6,0.4-1,1-1h14c0.6,0,1,0.4,1,1v2C67.5,57.3,67.1,57.8,66.5,57.8
							z"/>
					</g>
					<g>
						<path class="st4" d="M49,68c0-2.2-3.1-4-7-4s-7,1.8-7,4s3.1,4,7,4C45.9,72.1,49,70.3,49,68"/>
						<path class="st5" d="M42,73.1c-4.5,0-8-2.2-8-5s3.5-5,8-5s8,2.2,8,5S46.5,73.1,42,73.1z M42,65c-3.5,0-6,1.6-6,3s2.5,3,6,3
							s6-1.6,6-3S45.5,65,42,65z"/>
					</g>
					<g>
						<rect x="35" y="66" class="st4" width="14" height="2"/>
						<path class="st5" d="M49,69H35c-0.6,0-1-0.4-1-1v-2c0-0.6,0.4-1,1-1h14c0.6,0,1,0.4,1,1v2C50,68.6,49.6,69,49,69z"/>
					</g>
					<g>
						<path class="st4" d="M66.5,77.2c0,2.2-3.1,4-7,4s-7-1.8-7-4s3.1-4,7-4S66.5,75,66.5,77.2"/>
						<path class="st5" d="M59.6,82.3c-4.5,0-8-2.2-8-5s3.5-5,8-5s8,2.2,8,5S64,82.3,59.6,82.3z M59.6,74.2c-3.5,0-6,1.6-6,3
							s2.5,3,6,3s6-1.6,6-3C65.5,75.8,63.1,74.2,59.6,74.2z"/>
					</g>
					<g>
						<path class="st4" d="M66.5,54.8c0-2.2-3.1-4-7-4s-7,1.8-7,4s3.1,4,7,4S66.5,57,66.5,54.8"/>
						<path class="st5" d="M59.6,59.8c-4.5,0-8-2.2-8-5s3.5-5,8-5s8,2.2,8,5S64,59.8,59.6,59.8z M59.6,51.7c-3.5,0-6,1.6-6,3
							s2.5,3,6,3s6-1.6,6-3S63.1,51.7,59.6,51.7z"/>
					</g>
					<g>
						<path class="st0" d="M49,66c0-2.2-3.1-4-7-4s-7,1.8-7,4c0,2.2,3.1,4,7,4C45.9,70.1,49,68.3,49,66"/>
						<path class="st5" d="M42,71.1c-4.5,0-8-2.2-8-5s3.5-5,8-5s8,2.2,8,5C50,68.9,46.5,71.1,42,71.1z M42,63c-3.5,0-6,1.6-6,3
							s2.5,3,6,3s6-1.6,6-3S45.5,63,42,63z"/>
					</g>
				</g>
				<g>
					<g>
						<rect x="4" y="4" class="st6" width="120" height="120"/>
						<rect x="4" y="4" class="st6" width="120" height="120"/>
					</g>
				</g>
			</g>
		</g>
	</g>
	<g>
		<rect class="st6" width="128" height="128"/>
	</g>
</g>
</svg>
