<?xml version="1.0" encoding="utf-8"?>
<!-- Generator: Adobe Illustrator 24.1.0, SVG Export Plug-In . SVG Version: 6.00 Build 0)  -->
<svg version="1.1" id="Layer_1" xmlns="http://www.w3.org/2000/svg" xmlns:xlink="http://www.w3.org/1999/xlink" x="0px" y="0px"
	 viewBox="0 0 128 128" style="enable-background:new 0 0 128 128;" xml:space="preserve">
<style type="text/css">
	.st0{fill:#185849;}
	.st1{fill:#C4D7D3;}
	.st2{fill:#27ae60;}
	.st3{fill:#FFFFFF;}
	.st4{fill:#4D9987;}
	.st5{fill:#E9EBDF;}
	.st6{fill:#0E352C;}
	.st7{fill:none;}
</style>
<g id="Layer_1_1_">
</g>
<g>
	<g id="Layer_2_1_">
		<g id="Objects_1_">
			<g>
				<g>
					<g>
						<g>
							<g>
								<path class="st0" d="M98.6,17.6c-0.1,0-0.3,0-0.4-0.1s-0.2-0.1-0.3-0.2c-0.2-0.2-0.3-0.5-0.3-0.7c0-0.3,0.1-0.5,0.3-0.7
									c0.1-0.1,0.2-0.2,0.3-0.2c0.4-0.2,0.8-0.1,1.1,0.2c0.2,0.2,0.3,0.4,0.3,0.7s-0.1,0.5-0.3,0.7C99.1,17.5,98.9,17.6,98.6,17.6
									z"/>
								<path class="st0" d="M91.8,16.6c0-0.5,0.4-1,1-1l0,0c0.5,0,1,0.5,1,1l0,0c0,0.6-0.5,1-1,1l0,0
									C92.2,17.6,91.8,17.2,91.8,16.6z M86,16.6c0-0.5,0.4-1,1-1l0,0c0.6,0,1,0.5,1,1l0,0c0,0.6-0.4,1-1,1l0,0
									C86.4,17.6,86,17.2,86,16.6z M80.2,16.6c0-0.5,0.5-1,1-1l0,0c0.6,0,1,0.5,1,1l0,0c0,0.6-0.4,1-1,1l0,0
									C80.6,17.6,80.2,17.2,80.2,16.6z M74.4,16.6c0-0.5,0.4-1,1-1l0,0c0.5,0,1,0.5,1,1l0,0c0,0.6-0.5,1-1,1l0,0
									C74.8,17.6,74.4,17.2,74.4,16.6z"/>
								<path class="st0" d="M69.6,17.6c-0.1,0-0.3,0-0.4-0.1s-0.2-0.1-0.3-0.2c-0.1-0.1-0.2-0.2-0.2-0.3c0-0.1-0.1-0.2-0.1-0.4
									s0-0.3,0.1-0.4c0-0.1,0.1-0.2,0.2-0.3c0.1-0.1,0.2-0.2,0.3-0.2c0.2-0.1,0.5-0.1,0.8,0c0.1,0,0.2,0.1,0.3,0.2
									c0.1,0.1,0.2,0.2,0.2,0.3s0.1,0.2,0.1,0.4c0,0.3-0.1,0.5-0.3,0.7c-0.1,0.1-0.2,0.2-0.3,0.2C69.8,17.6,69.7,17.6,69.6,17.6z"
									/>
							</g>
							<g>
								<path class="st0" d="M98.6,52.9c-0.3,0-0.5-0.1-0.7-0.3s-0.3-0.4-0.3-0.7s0.1-0.5,0.3-0.7c0.4-0.4,1-0.4,1.4,0
									c0.2,0.2,0.3,0.4,0.3,0.7s-0.1,0.5-0.3,0.7C99.1,52.8,98.8,52.9,98.6,52.9z"/>
								<path class="st0" d="M91.8,51.9c0-0.6,0.4-1,1-1l0,0c0.6,0,1,0.4,1,1l0,0c0,0.6-0.4,1-1,1l0,0
									C92.2,52.9,91.8,52.5,91.8,51.9z M86,51.9c0-0.6,0.5-1,1-1l0,0c0.6,0,1,0.4,1,1l0,0c0,0.6-0.4,1-1,1l0,0
									C86.4,52.9,86,52.5,86,51.9z M80.2,51.9c0-0.6,0.5-1,1-1l0,0c0.5,0,1,0.4,1,1l0,0c0,0.6-0.5,1-1,1l0,0
									C80.6,52.9,80.2,52.5,80.2,51.9z M74.4,51.9c0-0.6,0.4-1,1-1l0,0c0.6,0,1,0.4,1,1l0,0c0,0.6-0.4,1-1,1l0,0
									C74.8,52.9,74.4,52.5,74.4,51.9z"/>
								<path class="st0" d="M69.5,52.9c-0.1,0-0.3,0-0.4-0.1s-0.2-0.1-0.3-0.2c-0.1-0.1-0.2-0.2-0.2-0.3s-0.1-0.2-0.1-0.4
									c0-0.1,0-0.3,0.1-0.4c0.1-0.1,0.1-0.2,0.2-0.3S69,51,69.1,51c0.2-0.1,0.5-0.1,0.8,0c0.1,0.1,0.2,0.1,0.3,0.2
									c0.1,0.1,0.2,0.2,0.2,0.3c0.1,0.1,0.1,0.2,0.1,0.4c0,0.1,0,0.3-0.1,0.4c-0.1,0.1-0.1,0.2-0.2,0.3
									C70.1,52.8,69.8,52.9,69.5,52.9z"/>
							</g>
							<polygon class="st1" points="78.5,40.4 78.5,28.2 98.6,39.8 98.6,51.9 							"/>
							<g>
								<polygon class="st2" points="118.6,40.4 118.6,28.2 98.6,39.8 98.6,51.9 								"/>
								<path class="st2" d="M98.6,52.9c-0.2,0-0.3,0-0.5-0.1c-0.3-0.2-0.5-0.5-0.5-0.9V39.8c0-0.4,0.2-0.7,0.5-0.9l20.1-11.6
									c0.3-0.2,0.7-0.2,1,0s0.5,0.5,0.5,0.9v12.1c0,0.4-0.2,0.7-0.5,0.9L99.1,52.8C98.9,52.9,98.7,52.9,98.6,52.9z M99.6,40.4v9.8
									l18.1-10.4V30L99.6,40.4z M118.6,40.4L118.6,40.4L118.6,40.4z"/>
							</g>
							<g>
								<polygon class="st3" points="118.6,28.2 98.6,16.6 78.5,28.2 98.6,39.8 								"/>
								<path class="st2" d="M98.6,40.8c-0.2,0-0.3,0-0.5-0.1L78,29c-0.3-0.2-0.5-0.5-0.5-0.9s0.2-0.7,0.5-0.9l20.1-11.6
									c0.3-0.2,0.7-0.2,1,0l20,11.6c0.3,0.2,0.5,0.5,0.5,0.9s-0.2,0.7-0.5,0.9l-20,11.6C98.9,40.7,98.7,40.8,98.6,40.8z
									 M80.5,28.2l18,10.5l18.1-10.4l-18-10.5L80.5,28.2z"/>
							</g>
							<g>
								<polygon class="st3" points="106.2,28.3 98.6,23.9 91,28.3 98.6,32.7 								"/>
								<path class="st2" d="M98.6,33.7c-0.2,0-0.3,0-0.5-0.1l-7.6-4.4C90.1,29,90,28.7,90,28.3c0-0.4,0.2-0.7,0.5-0.9l7.6-4.4
									c0.3-0.2,0.7-0.2,1,0l7.6,4.4c0.3,0.2,0.5,0.5,0.5,0.9s-0.2,0.7-0.5,0.9l-7.6,4.4C98.9,33.7,98.7,33.7,98.6,33.7z M93,28.3
									l5.6,3.3l5.6-3.2l-5.6-3.3L93,28.3z"/>
							</g>
							<path class="st0" d="M98.6,52.9c-0.2,0-0.3,0-0.5-0.1L78,41.2c-0.3-0.2-0.5-0.5-0.5-0.9V28.2c0-0.2,0-0.3,0.1-0.5
								s0.2-0.3,0.4-0.4l20.1-11.6c0.3-0.2,0.7-0.2,1,0l20,11.6c0.3,0.2,0.5,0.5,0.5,0.9v12.1c0,0.4-0.2,0.7-0.5,0.9l-20,11.6
								C98.9,52.9,98.7,52.9,98.6,52.9z M79.5,39.8l19.1,11l19.1-11v-11l-19-11l-19.1,11L79.5,39.8L79.5,39.8z"/>
							<g>
								<polygon class="st3" points="89.6,87.7 49.5,64.5 9.4,87.6 9.4,99.8 49.4,123 89.6,99.9 								"/>
								<polygon class="st4" points="89.6,99.9 49.4,123 49.5,110.9 89.6,87.7 								"/>
								<polygon class="st5" points="9.4,99.8 49.4,123 49.5,110.9 9.4,87.6 								"/>
								<path class="st4" d="M49.4,124L49.4,124c-0.6,0-1-0.4-1-1v-12.1c0-0.6,0.4-1,1-1l0,0c0.6,0,1,0.4,1,1V123
									C50.4,123.6,50,124,49.4,124z"/>
								<path class="st4" d="M69.5,112.4c-0.6,0-1-0.4-1-1V99.3c0-0.6,0.4-1,1-1s1,0.4,1,1v12.1C70.5,112,70.1,112.4,69.5,112.4z"/>
								<path class="st4" d="M69.5,100.3c-0.2,0-0.3,0-0.5-0.1L49,88.6c-0.3-0.2-0.5-0.5-0.5-0.9s0.2-0.7,0.5-0.9l20.1-11.6
									c0.3-0.2,0.7-0.2,1,0l20,11.6c0.3,0.2,0.5,0.5,0.5,0.9s-0.2,0.7-0.5,0.9L70,100.2C69.9,100.3,69.7,100.3,69.5,100.3z
									 M51.5,87.7l18,10.5l18.1-10.4l-18-10.5L51.5,87.7z"/>
								<ellipse class="st4" cx="49.5" cy="70.5" rx="1.9" ry="1.1"/>
								<ellipse class="st4" cx="19.7" cy="87.6" rx="1.9" ry="1.1"/>
								<ellipse class="st4" cx="49.5" cy="104.9" rx="1.9" ry="1.1"/>
								<path class="st6" d="M49.5,124c-0.2,0-0.3,0-0.5-0.1L8.9,100.6c-0.5-0.3-0.6-0.9-0.4-1.4c0.3-0.5,0.9-0.6,1.4-0.4l39.6,22.9
									L89.1,99c0.5-0.3,1.1-0.1,1.4,0.4s0.1,1.1-0.4,1.4L50,123.9C49.8,124,49.6,124,49.5,124z"/>
								<path class="st4" d="M49.5,111.9c-0.2,0-0.3,0-0.5-0.1L8.9,88.5c-0.5-0.3-0.6-0.9-0.4-1.4c0.3-0.5,0.9-0.6,1.4-0.4
									l39.6,22.9l39.7-22.8c0.5-0.3,1.1-0.1,1.4,0.4s0.1,1.1-0.4,1.4L50,111.7C49.8,111.8,49.6,111.9,49.5,111.9z"/>
								<path class="st4" d="M69.6,93.3c-0.2,0-0.3,0-0.5-0.1l-7.6-4.4c-0.3-0.2-0.5-0.5-0.5-0.9s0.2-0.7,0.5-0.9l7.6-4.4
									c0.3-0.2,0.7-0.2,1,0l7.6,4.4c0.3,0.2,0.5,0.5,0.5,0.9s-0.2,0.7-0.5,0.9l-7.6,4.4C69.9,93.2,69.7,93.3,69.6,93.3z
									 M63.9,87.8l5.6,3.3l5.6-3.2l-5.6-3.3L63.9,87.8z"/>
								<path class="st6" d="M49.4,124c-0.2,0-0.3,0-0.5-0.1l-40-23.3c-0.3-0.2-0.5-0.5-0.5-0.9V87.6c0-0.4,0.2-0.7,0.5-0.9l40.1-23
									c0.3-0.2,0.7-0.2,1,0l40.1,23.2c0.3,0.2,0.5,0.5,0.5,0.9v12.1c0,0.4-0.2,0.7-0.5,0.9l-40.2,23.1C49.8,124,49.6,124,49.4,124
									z M10.4,99.2l39.1,22.6l39.2-22.5v-11L49.5,65.7L10.4,88.2V99.2z"/>
							</g>
							<g>
								<polygon class="st3" points="89.6,75.6 49.5,52.4 9.4,75.5 9.4,87.6 49.4,110.9 89.6,87.7 								"/>
								<polygon class="st4" points="89.6,87.7 49.4,110.9 49.5,98.7 89.6,75.6 								"/>
								<polygon class="st5" points="9.4,87.6 49.4,110.9 49.5,98.7 9.4,75.5 								"/>
								<path class="st4" d="M49.4,111.9L49.4,111.9c-0.6,0-1-0.4-1-1V98.8c0-0.6,0.4-1,1-1l0,0c0.6,0,1,0.4,1,1v12.1
									C50.4,111.4,50,111.9,49.4,111.9z"/>
								<path class="st4" d="M69.5,100.3c-0.6,0-1-0.4-1-1V87.2c0-0.6,0.4-1,1-1s1,0.4,1,1v12.1C70.5,99.9,70.1,100.3,69.5,100.3z"
									/>
								<path class="st4" d="M69.5,88.2c-0.2,0-0.3,0-0.5-0.1L49,76.4c-0.3-0.2-0.5-0.5-0.5-0.9s0.2-0.7,0.5-0.9L69.1,63
									c0.3-0.2,0.7-0.2,1,0l20,11.6c0.3,0.2,0.5,0.5,0.5,0.9s-0.2,0.7-0.5,0.9L70,88C69.9,88.1,69.7,88.2,69.5,88.2z M51.5,75.5
									l18,10.5l18.1-10.4l-18-10.5L51.5,75.5z"/>
								<ellipse class="st4" cx="49.5" cy="58.3" rx="1.9" ry="1.1"/>
								<ellipse class="st4" cx="19.7" cy="75.5" rx="1.9" ry="1.1"/>
								<ellipse class="st4" cx="49.5" cy="92.8" rx="1.9" ry="1.1"/>
								<path class="st6" d="M49.5,111.9c-0.2,0-0.3,0-0.5-0.1L8.9,88.5c-0.5-0.3-0.6-0.9-0.4-1.4c0.3-0.5,0.9-0.6,1.4-0.4
									l39.6,22.9l39.7-22.8c0.5-0.3,1.1-0.1,1.4,0.4s0.1,1.1-0.4,1.4L50,111.7C49.8,111.8,49.6,111.9,49.5,111.9z"/>
								<path class="st4" d="M49.5,99.7c-0.2,0-0.3,0-0.5-0.1L8.9,76.3c-0.5-0.3-0.6-0.9-0.4-1.4c0.3-0.5,0.9-0.6,1.4-0.4l39.6,22.9
									l39.7-22.8c0.5-0.3,1.1-0.1,1.4,0.4s0.1,1.1-0.4,1.4L50,99.6C49.8,99.7,49.6,99.7,49.5,99.7z"/>
								<path class="st4" d="M69.6,81.1c-0.2,0-0.3,0-0.5-0.1l-7.6-4.4c-0.3-0.2-0.5-0.5-0.5-0.9s0.2-0.7,0.5-0.9l7.6-4.4
									c0.3-0.2,0.7-0.2,1,0l7.6,4.4c0.3,0.2,0.5,0.5,0.5,0.9s-0.2,0.7-0.5,0.9L70.1,81C69.9,81.1,69.7,81.1,69.6,81.1z M63.9,75.7
									l5.6,3.3l5.6-3.2l-5.6-3.3L63.9,75.7z"/>
								<path class="st6" d="M49.4,111.9c-0.2,0-0.3,0-0.5-0.1l-40-23.3c-0.3-0.2-0.5-0.5-0.5-0.9V75.5c0-0.4,0.2-0.7,0.5-0.9
									L49,51.5c0.3-0.2,0.7-0.2,1,0l40.1,23.2c0.3,0.2,0.5,0.5,0.5,0.9v12.1c0,0.4-0.2,0.7-0.5,0.9l-40.2,23.1
									C49.8,111.8,49.6,111.9,49.4,111.9z M10.4,87.1l39.1,22.6l39.2-22.5v-11L49.5,53.5L10.4,76.1V87.1z"/>
							</g>
							<g>
								<path class="st6" d="M9.4,41.3c-0.3,0-0.5-0.1-0.7-0.3s-0.3-0.4-0.3-0.7s0.1-0.5,0.3-0.7s0.6-0.3,0.9-0.3
									c0.1,0,0.1,0,0.2,0.1c0.1,0,0.1,0.1,0.2,0.1c0.1,0,0.1,0.1,0.2,0.1c0,0,0.1,0.1,0.1,0.2c0,0.1,0.1,0.1,0.1,0.2
									c0,0.1,0.1,0.1,0.1,0.2c0,0.1,0,0.1,0,0.2c0,0.1,0,0.1,0,0.2c0,0.1,0,0.1-0.1,0.2c0,0.1-0.1,0.1-0.1,0.2
									c0,0.1-0.1,0.1-0.1,0.2c0,0-0.1,0.1-0.2,0.1c0,0-0.1,0.1-0.2,0.1c-0.1,0-0.1,0-0.2,0.1C9.5,41.2,9.4,41.3,9.4,41.3z"/>
								<path class="st6" d="M8.4,69.6c0-0.5,0.5-1,1-1l0,0c0.5,0,1,0.5,1,1l0,0c0,0.6-0.5,1-1,1l0,0C8.8,70.6,8.4,70.2,8.4,69.6z
									 M8.4,63.7c0-0.5,0.5-1,1-1l0,0c0.5,0,1,0.5,1,1l0,0c0,0.6-0.5,1-1,1l0,0C8.8,64.7,8.4,64.3,8.4,63.7z M8.4,57.9
									c0-0.5,0.5-1,1-1l0,0c0.5,0,1,0.5,1,1l0,0c0,0.6-0.5,1-1,1l0,0C8.8,58.9,8.4,58.4,8.4,57.9z M8.4,52c0-0.5,0.5-1,1-1l0,0
									c0.5,0,1,0.5,1,1l0,0c0,0.6-0.5,1-1,1l0,0C8.8,53,8.4,52.5,8.4,52z M8.4,46.1c0-0.5,0.5-1,1-1l0,0c0.5,0,1,0.5,1,1l0,0
									c0,0.6-0.5,1-1,1l0,0C8.8,47.1,8.4,46.7,8.4,46.1z"/>
								<path class="st6" d="M9.4,76.5c-0.1,0-0.3,0-0.4-0.1c-0.1-0.1-0.2-0.1-0.3-0.2S8.5,76,8.5,75.9c0-0.1-0.1-0.2-0.1-0.4
									c0-0.3,0.1-0.5,0.3-0.7c0.1-0.1,0.2-0.2,0.3-0.2c0.2-0.1,0.4-0.1,0.6-0.1c0.1,0,0.1,0,0.2,0.1c0.1,0,0.1,0.1,0.2,0.1
									c0.1,0,0.1,0.1,0.2,0.1c0.2,0.2,0.3,0.4,0.3,0.7c0,0.1,0,0.3-0.1,0.4c0,0.1-0.1,0.2-0.2,0.3c0,0-0.1,0.1-0.2,0.1
									c0,0-0.1,0.1-0.2,0.1c-0.1,0-0.1,0-0.2,0.1C9.5,76.5,9.4,76.5,9.4,76.5z"/>
							</g>
							<g>
								<polygon class="st4" points="69.6,28.8 49.5,40.3 49.5,28.2 69.6,16.6 								"/>
								<path class="st4" d="M49.5,41.3c-0.2,0-0.3,0-0.5-0.1c-0.3-0.2-0.5-0.5-0.5-0.9V28.2c0-0.4,0.2-0.7,0.5-0.9l20.1-11.6
									c0.3-0.2,0.7-0.2,1,0s0.5,0.5,0.5,0.9v12.1c0,0.4-0.2,0.7-0.5,0.9L50,41.2C49.8,41.3,49.7,41.3,49.5,41.3z M50.5,28.7v9.8
									l18.1-10.4v-9.8L50.5,28.7z M69.6,28.8L69.6,28.8L69.6,28.8z"/>
								<polygon class="st4" points="69.5,51.9 49.4,63.5 49.5,51.3 69.5,39.8 								"/>
								<polygon class="st5" points="9.4,40.3 49.4,63.5 49.5,51.3 9.4,28.1 								"/>
								<path class="st4" d="M49.4,64.5L49.4,64.5c-0.6,0-1-0.4-1-1V51.4c0-0.6,0.4-1,1-1l0,0c0.6,0,1,0.4,1,1v12.1
									C50.4,64,50,64.5,49.4,64.5z"/>
								<path class="st4" d="M69.5,52.9c-0.6,0-1-0.4-1-1V39.8c0-0.6,0.4-1,1-1s1,0.4,1,1v12.1C70.5,52.5,70.1,52.9,69.5,52.9z"/>
								<g>
									<polygon class="st3" points="69.5,39.8 69.5,39.8 49.5,28.2 69.6,16.6 49.5,5 9.4,28.1 9.4,40.3 49.4,63.5 69.5,51.9 
																			"/>
									<path class="st4" d="M49.4,64.5c-0.2,0-0.3,0-0.5-0.1l-40-23.3c-0.3-0.2-0.5-0.5-0.5-0.9V28.1c0-0.4,0.2-0.7,0.5-0.9
										L49,4.1c0.3-0.2,0.7-0.2,1,0l20,11.6c0.3,0.2,0.5,0.5,0.5,0.9s-0.2,0.7-0.5,0.9L51.5,28.2L70,38.9c0.3,0.2,0.5,0.5,0.5,0.9
										v12.1c0,0.4-0.2,0.7-0.5,0.9L49.9,64.3C49.8,64.4,49.6,64.5,49.4,64.5z M10.4,39.7l39.1,22.6l19.1-11v-11L49,29
										c-0.3-0.2-0.5-0.5-0.5-0.9s0.2-0.7,0.5-0.9l18.6-10.7L49.6,6L10.4,28.7V39.7z"/>
								</g>
								<polygon class="st4" points="69.5,51.9 49.4,63.5 49.5,51.3 69.5,39.8 								"/>
								<polygon class="st5" points="9.4,40.3 49.4,63.5 49.5,51.3 9.4,28.1 								"/>
								<path class="st4" d="M49.4,64.5c-0.2,0-0.3,0-0.5-0.1c-0.3-0.2-0.5-0.5-0.5-0.9V51.4c0-0.4,0.2-0.7,0.5-0.9L69,38.9
									c0.3-0.2,0.7-0.2,1,0s0.5,0.5,0.5,0.9v12.1c0,0.4-0.2,0.7-0.5,0.9L49.9,64.3C49.8,64.4,49.6,64.5,49.4,64.5z M50.5,51.9v9.8
									l18.1-10.4v-9.8L50.5,51.9z M69.5,51.9L69.5,51.9L69.5,51.9z"/>
								<path class="st4" d="M49.4,64.5c-0.2,0-0.3,0-0.5-0.1l-40-23.3c-0.3-0.2-0.5-0.5-0.5-0.9V28.1c0-0.4,0.2-0.7,0.5-0.9
									c0.3-0.2,0.7-0.2,1,0L50,50.5c0.3,0.2,0.5,0.5,0.5,0.9v12.1c0,0.4-0.2,0.7-0.5,0.9C49.8,64.4,49.6,64.5,49.4,64.5z
									 M10.4,39.7l38.1,22.1V52L10.4,29.8V39.7z"/>
								<ellipse class="st4" cx="49.5" cy="10.9" rx="1.9" ry="1.1"/>
								<ellipse class="st4" cx="19.7" cy="28.1" rx="1.9" ry="1.1"/>
								<ellipse class="st4" cx="49.5" cy="45.4" rx="1.9" ry="1.1"/>
								<path class="st4" d="M49.5,52.3c-0.2,0-0.3,0-0.5-0.1L8.9,29c-0.5-0.3-0.6-0.9-0.4-1.4c0.3-0.5,0.9-0.6,1.4-0.4l39.6,22.9
									L69,38.9c0.5-0.3,1.1-0.1,1.4,0.4s0.1,1.1-0.4,1.4L50,52.2C49.8,52.3,49.6,52.3,49.5,52.3z"/>
								<path class="st6" d="M49.4,64.5c-0.2,0-0.3,0-0.5-0.1l-40-23.3c-0.3-0.2-0.5-0.5-0.5-0.9V28.1c0-0.4,0.2-0.7,0.5-0.9L49,4.1
									c0.3-0.2,0.7-0.2,1,0l20,11.6c0.3,0.2,0.5,0.5,0.5,0.9v12.1c0,0.4-0.2,0.7-0.5,0.9l-8,4.6l8,4.7c0.3,0.2,0.5,0.5,0.5,0.9
									v12.1c0,0.4-0.2,0.7-0.5,0.9L49.9,64.3C49.8,64.4,49.6,64.5,49.4,64.5z M10.4,39.7l39.1,22.6l19.1-11v-11l-9-5.2
									c-0.3-0.2-0.5-0.5-0.5-0.9s0.2-0.7,0.5-0.9l9-5.2v-11l-19-11L10.4,28.7V39.7z M69.6,28.8L69.6,28.8L69.6,28.8z"/>
							</g>
						</g>
					</g>
				</g>
				<g>
					<rect x="4" y="4" class="st7" width="120" height="120"/>
				</g>
			</g>
		</g>
	</g>
	<g>
		<rect class="st7" width="128" height="128"/>
	</g>
</g>
</svg>
