<?xml version="1.0" encoding="utf-8"?>
<!-- Generator: Adobe Illustrator 24.1.0, SVG Export Plug-In . SVG Version: 6.00 Build 0)  -->
<svg version="1.1" id="Layer_1" xmlns="http://www.w3.org/2000/svg" xmlns:xlink="http://www.w3.org/1999/xlink" x="0px" y="0px"
	 viewBox="0 0 128 128" style="enable-background:new 0 0 128 128;" xml:space="preserve">
<style type="text/css">
	.st0{fill:#FFFFFF;}
	.st1{fill:#4D9987;}
	.st2{fill:#E9EBDF;}
	.st3{fill:#0E352C;}
	.st4{fill:#27ae60;}
	.st5{fill:#C4D7D3;}
	.st6{fill:#185849;}
	.st7{fill:none;}
</style>
<g id="Layer_1_1_">
</g>
<g>
	<g id="Layer_2_1_">
		<g id="Tech_Concepts_1_">
			<g>
				<g>
					<g>
						<g>
							<path class="st0" d="M122.2,71.2c1.1,0.6,1.1,1.7,0,2.3l-62.5,36.4c-1.1,0.6-2.9,0.6-4,0L5.9,81.1c-1.1-0.6-1.1-1.7,0-2.3
								l62.5-36.4c1.1-0.6,2.9-0.6,4,0L122.2,71.2z"/>
						</g>
						<path class="st1" d="M57.6,118.9c0.7,0,1.5-0.2,2-0.5L122.2,82c0.5-0.3,0.8-0.7,0.8-1.2v-8.5c0,0.4-0.3,0.8-0.8,1.2
							l-62.5,36.4c-0.6,0.3-1.3,0.5-2,0.5"/>
						<path class="st2" d="M57.6,110.4c-0.7,0-1.5-0.2-2-0.5L5.9,81.1C5.3,80.8,5,80.4,5,80v8.5c0,0.4,0.3,0.8,0.8,1.2l49.8,28.7
							c0.6,0.3,1.3,0.5,2,0.5"/>
						<path class="st1" d="M14.2,86l-8.4-4.8C5.3,80.8,5,80.4,5,80v8.5c0,0.4,0.3,0.8,0.8,1.2l8.4,4.8V86z"/>
						<path class="st3" d="M14.2,86.9c-0.3,0-0.7-0.2-0.9-0.5c-0.3-0.5-0.1-1.1,0.4-1.4l66.5-38.7c0.5-0.3,1.1-0.1,1.4,0.4
							s0.1,1.1-0.4,1.4L14.7,86.8C14.5,86.9,14.4,86.9,14.2,86.9z"/>
						<path class="st1" d="M73.1,110.5c-0.6,0-1-0.4-1-1V102c0-0.6,0.4-1,1-1s1,0.4,1,1v7.5C74.1,110.1,73.6,110.5,73.1,110.5z"/>
						<g>
							<path class="st1" d="M57.6,111.4c-0.9,0-1.8-0.2-2.5-0.6l-41.4-24c-0.5-0.3-0.6-0.9-0.4-1.4c0.3-0.5,0.9-0.6,1.4-0.4l41.4,24
								c0.8,0.5,2.2,0.5,3,0l62.5-36.4c0.3-0.1,0.3-0.3,0.3-0.3s-0.1-0.1-0.3-0.3L71.9,43.3c-0.8-0.5-2.2-0.5-3,0
								c-0.5,0.3-1.1,0.1-1.4-0.4s-0.1-1.1,0.4-1.4c1.4-0.8,3.6-0.8,5,0l49.8,28.7c0.8,0.5,1.3,1.2,1.3,2s-0.5,1.5-1.3,2l-62.5,36.4
								C59.4,111.2,58.5,111.4,57.6,111.4z"/>
						</g>
						<path class="st3" d="M57.6,119.9c-0.9,0-1.8-0.2-2.5-0.6L5.3,90.5C4.5,90,4,89.3,4,88.5V80l0,0c0-0.8,0.5-1.5,1.3-2l62.5-36.4
							c1.4-0.8,3.6-0.8,5,0l49.8,28.7c0.8,0.5,1.3,1.2,1.3,2c0,0,0,0,0,0.1v8.5c0,0.8-0.5,1.5-1.3,2l-62.5,36.4
							C59.4,119.7,58.5,119.9,57.6,119.9z M6,80v8.5c0,0,0.1,0.2,0.3,0.3l49.8,28.7c0.8,0.5,2.2,0.5,3,0l62.5-36.4
							c0.3-0.1,0.3-0.3,0.3-0.3v-8.5l0,0l0,0l0,0c0,0-0.1-0.2-0.3-0.3l0,0L71.9,43.3c-0.8-0.5-2.2-0.5-3,0L6.3,79.7
							C6.1,79.8,6,79.9,6,80L6,80z"/>
						<path class="st3" d="M14.2,95.4c-0.6,0-1-0.4-1-1V86c0-0.6,0.4-1,1-1s1,0.4,1,1v8.5C15.2,95,14.7,95.4,14.2,95.4z"/>
						<path class="st2" d="M72.4,42.5c-1.1-0.6-2.9-0.6-4,0L5.8,78.8c-1.1,0.6-1.1,1.7,0,2.3l8.4,4.8l66.5-38.7L72.4,42.5z"/>
						<path class="st3" d="M14.2,87c-0.2,0-0.3,0-0.5-0.1L5.4,82C4.5,81.5,4,80.8,4,80s0.5-1.5,1.3-2l62.5-36.4c1.4-0.8,3.6-0.8,5,0
							l8.3,4.8c0.3,0.2,0.5,0.5,0.5,0.9s-0.2,0.7-0.5,0.9L14.7,86.8C14.6,86.9,14.4,87,14.2,87z M70.4,43c-0.6,0-1.1,0.1-1.5,0.3
							L6.3,79.7C6.1,79.8,6,79.9,6,80c0,0,0.1,0.1,0.3,0.3l7.8,4.5l64.5-37.5l-6.8-3.9l0,0C71.5,43.1,70.9,43,70.4,43z"/>
						<g>
							<path class="st1" d="M25.1,74c-0.8-0.5-0.8-1.2,0-1.6c0.8-0.5,2-0.5,2.8,0s0.8,1.2,0,1.6C27.2,74.4,25.9,74.4,25.1,74z"/>
						</g>
						<g>
							<path class="st1" d="M19.5,77.2c-0.8-0.5-0.8-1.2,0-1.6c0.8-0.5,2-0.5,2.8,0s0.8,1.2,0,1.6C21.5,77.7,20.2,77.7,19.5,77.2z"
								/>
						</g>
						<g>
							<path class="st1" d="M13.8,80.5c-0.8-0.5-0.8-1.2,0-1.6c0.8-0.5,2-0.5,2.8,0c0.8,0.5,0.8,1.2,0,1.6
								C15.8,81,14.6,81,13.8,80.5z"/>
						</g>
					</g>
					<g>
						<g>
							<polygon class="st0" points="99.7,25.3 87.7,32.2 75.7,25.3 87.7,18.4 							"/>
							<path class="st4" d="M87.7,33.2c-0.2,0-0.3,0-0.5-0.1l-12-6.9c-0.3-0.2-0.5-0.5-0.5-0.9s0.2-0.7,0.5-0.9l12-6.9
								c0.3-0.2,0.7-0.2,1,0l12,6.9c0.3,0.2,0.5,0.5,0.5,0.9s-0.2,0.7-0.5,0.9l-12,6.9C88,33.2,87.8,33.2,87.7,33.2z M77.7,25.3
								l10,5.8l10-5.8l-10-5.8L77.7,25.3z"/>
						</g>
						<g>
							<polygon class="st4" points="99.7,25.3 99.7,68.3 87.7,75.2 87.7,32.2 							"/>
							<path class="st4" d="M87.7,76.2c-0.2,0-0.3,0-0.5-0.1c-0.3-0.2-0.5-0.5-0.5-0.9v-43c0-0.4,0.2-0.7,0.5-0.9l12-6.9
								c0.3-0.2,0.7-0.2,1,0s0.5,0.5,0.5,0.9v43c0,0.4-0.2,0.7-0.5,0.9l-12,6.9C88,76.2,87.8,76.2,87.7,76.2z M88.7,32.8v40.7
								l10-5.8V27L88.7,32.8z"/>
						</g>
						<g>
							<polygon class="st5" points="75.7,25.3 75.7,68.3 87.7,75.2 87.7,32.2 							"/>
							<path class="st4" d="M87.7,76.2c-0.2,0-0.3,0-0.5-0.1l-12-6.9c-0.3-0.2-0.5-0.5-0.5-0.9v-43c0-0.4,0.2-0.7,0.5-0.9
								c0.3-0.2,0.7-0.2,1,0l12,6.9c0.3,0.2,0.5,0.5,0.5,0.9v43c0,0.4-0.2,0.7-0.5,0.9C88,76.2,87.8,76.2,87.7,76.2z M76.7,67.7
								l10,5.8V32.8l-10-5.8V67.7z"/>
						</g>
					</g>
					<path class="st6" d="M87.7,76.2c-0.2,0-0.3,0-0.5-0.1l-12-6.9c-0.3-0.2-0.5-0.5-0.5-0.9v-43c0-0.4,0.2-0.7,0.5-0.9l12-6.9
						c0.3-0.2,0.7-0.2,1,0l12,6.9c0.3,0.2,0.5,0.5,0.5,0.9v43c0,0.4-0.2,0.7-0.5,0.9l-12,6.9C88,76.2,87.8,76.2,87.7,76.2z
						 M76.7,67.7l11,6.4l11-6.4V25.9l-11-6.4l-11,6.4V67.7z"/>
					<g>
						<polygon class="st2" points="63.7,89.1 51.7,96 39.7,89.1 51.7,82.2 						"/>
						<path class="st1" d="M51.7,97c-0.2,0-0.3,0-0.5-0.1l-12-6.9c-0.3-0.2-0.5-0.5-0.5-0.9s0.2-0.7,0.5-0.9l12-6.9
							c0.3-0.2,0.7-0.2,1,0l12,6.9c0.3,0.2,0.5,0.5,0.5,0.9s-0.2,0.7-0.5,0.9l-12,6.9C52,97,51.8,97,51.7,97z M41.7,89.1l10,5.8
							l10-5.8l-10-5.8L41.7,89.1z"/>
					</g>
					<g>
						<g>
							<polygon class="st0" points="87.7,60.2 75.7,67.2 63.7,60.2 75.7,53.3 							"/>
							<path class="st1" d="M75.7,68.2c-0.2,0-0.3,0-0.5-0.1l-12-6.9c-0.3-0.2-0.5-0.5-0.5-0.9s0.2-0.7,0.5-0.9l12-6.9
								c0.3-0.2,0.7-0.2,1,0l12,6.9c0.3,0.2,0.5,0.5,0.5,0.9s-0.2,0.7-0.5,0.9l-12,6.9C76,68.1,75.8,68.2,75.7,68.2z M65.7,60.2
								l10,5.8l10-5.8l-10-5.8L65.7,60.2z"/>
						</g>
						<g>
							<polygon class="st1" points="87.7,60.2 87.7,75.2 75.7,82.2 75.7,67.2 							"/>
							<path class="st1" d="M75.7,83.2c-0.2,0-0.3,0-0.5-0.1c-0.3-0.2-0.5-0.5-0.5-0.9v-15c0-0.4,0.2-0.7,0.5-0.9l12-6.9
								c0.3-0.2,0.7-0.2,1,0s0.5,0.5,0.5,0.9v15c0,0.4-0.2,0.7-0.5,0.9l-12,6.9C76,83.1,75.8,83.2,75.7,83.2z M76.7,67.7v12.7
								l10-5.8V62L76.7,67.7z"/>
						</g>
						<g>
							<polygon class="st2" points="63.7,60.2 63.7,75.2 75.7,82.2 75.7,67.2 							"/>
							<path class="st1" d="M75.7,83.2c-0.2,0-0.3,0-0.5-0.1l-12-6.9c-0.3-0.2-0.5-0.5-0.5-0.9v-15c0-0.4,0.2-0.7,0.5-0.9
								s0.7-0.2,1,0l12,6.9c0.3,0.2,0.5,0.5,0.5,0.9v15c0,0.4-0.2,0.7-0.5,0.9C76,83.1,75.8,83.2,75.7,83.2z M64.7,74.7l10,5.8V67.7
								l-10-5.8V74.7z"/>
						</g>
					</g>
					<path class="st3" d="M75.7,83.2c-0.2,0-0.3,0-0.5-0.1l-12-6.9c-0.3-0.2-0.5-0.5-0.5-0.9v-15c0-0.4,0.2-0.7,0.5-0.9l12-6.9
						c0.3-0.2,0.7-0.2,1,0l12,6.9c0.3,0.2,0.5,0.5,0.5,0.9v15c0,0.4-0.2,0.7-0.5,0.9l-12,6.9C76,83.1,75.8,83.2,75.7,83.2z
						 M64.7,74.7l11,6.4l11-6.4V60.8l-11-6.4l-11,6.4V74.7z"/>
					<g>
						<g>
							<polygon class="st0" points="75.7,50.2 63.7,57.1 51.7,50.2 63.7,43.2 							"/>
							<path class="st1" d="M63.7,58.1c-0.2,0-0.3,0-0.5-0.1l-12-6.9c-0.3-0.2-0.5-0.5-0.5-0.9s0.2-0.7,0.5-0.9l12-6.9
								c0.3-0.2,0.7-0.2,1,0l12,6.9c0.3,0.2,0.5,0.5,0.5,0.9s-0.2,0.7-0.5,0.9l-12,6.9C64,58,63.8,58.1,63.7,58.1z M53.7,50.2
								l10,5.8l10-5.8l-10-5.8L53.7,50.2z"/>
						</g>
						<g>
							<polygon class="st1" points="75.7,50.2 75.7,82.2 63.7,89.1 63.7,57.1 							"/>
							<path class="st1" d="M63.7,90.1c-0.2,0-0.3,0-0.5-0.1c-0.3-0.2-0.5-0.5-0.5-0.9v-32c0-0.4,0.2-0.7,0.5-0.9l12-6.9
								c0.3-0.2,0.7-0.2,1,0s0.5,0.5,0.5,0.9v32c0,0.4-0.2,0.7-0.5,0.9l-12,6.9C64,90,63.8,90.1,63.7,90.1z M64.7,57.7v29.7l10-5.8
								V51.9L64.7,57.7z"/>
						</g>
						<g>
							<polygon class="st2" points="51.7,50.2 51.7,82.2 63.7,89.1 63.7,57.1 							"/>
							<path class="st1" d="M63.7,90.1c-0.2,0-0.3,0-0.5-0.1l-12-6.9c-0.3-0.2-0.5-0.5-0.5-0.9v-32c0-0.4,0.2-0.7,0.5-0.9
								s0.7-0.2,1,0l12,6.9c0.3,0.2,0.5,0.5,0.5,0.9v32c0,0.4-0.2,0.7-0.5,0.9C64,90,63.8,90.1,63.7,90.1z M52.7,81.6l10,5.8V57.7
								l-10-5.8V81.6z"/>
						</g>
					</g>
					<path class="st3" d="M63.7,90.1c-0.2,0-0.3,0-0.5-0.1l-12-6.9c-0.3-0.2-0.5-0.5-0.5-0.9v-32c0-0.4,0.2-0.7,0.5-0.9l12-6.9
						c0.3-0.2,0.7-0.2,1,0l12,6.9c0.3,0.2,0.5,0.5,0.5,0.9v32c0,0.4-0.2,0.7-0.5,0.9l-12,6.9C64,90,63.8,90.1,63.7,90.1z M52.7,81.6
						l11,6.4l11-6.4V50.7l-11-6.4l-11,6.4C52.7,50.7,52.7,81.6,52.7,81.6z"/>
					<g>
						<g>
							<polygon class="st0" points="63.7,81.1 51.7,88 39.7,81.1 51.7,74.2 							"/>
							<path class="st1" d="M51.7,89c-0.2,0-0.3,0-0.5-0.1l-12-6.9c-0.3-0.2-0.5-0.5-0.5-0.9s0.2-0.7,0.5-0.9l12-6.9
								c0.3-0.2,0.7-0.2,1,0l12,6.9c0.3,0.2,0.5,0.5,0.5,0.9s-0.2,0.7-0.5,0.9l-12,6.9C52,89,51.8,89,51.7,89z M41.7,81.1l10,5.8
								l10-5.8l-10-5.8L41.7,81.1z"/>
						</g>
						<g>
							<polygon class="st1" points="63.7,81.1 63.7,89.1 51.7,96 51.7,88 							"/>
							<path class="st1" d="M51.7,97c-0.2,0-0.3,0-0.5-0.1c-0.3-0.2-0.5-0.5-0.5-0.9v-8c0-0.4,0.2-0.7,0.5-0.9l12-6.9
								c0.3-0.2,0.7-0.2,1,0c0.3,0.2,0.5,0.5,0.5,0.9v8c0,0.4-0.2,0.7-0.5,0.9l-12,6.9C52,97,51.8,97,51.7,97z M52.7,88.6v5.7
								l10-5.8v-5.7L52.7,88.6z"/>
						</g>
						<g>
							<polygon class="st2" points="39.7,81.1 39.7,89.1 51.7,96 51.7,88 							"/>
							<path class="st1" d="M51.7,97c-0.2,0-0.3,0-0.5-0.1l-12-6.9c-0.3-0.2-0.5-0.5-0.5-0.9v-8c0-0.4,0.2-0.7,0.5-0.9
								c0.3-0.2,0.7-0.2,1,0l12,6.9c0.3,0.2,0.5,0.5,0.5,0.9v8c0,0.4-0.2,0.7-0.5,0.9C52,97,51.8,97,51.7,97z M40.7,88.5l10,5.8
								v-5.7l-10-5.8V88.5z"/>
						</g>
					</g>
					<path class="st3" d="M51.7,97c-0.2,0-0.3,0-0.5-0.1l-12-6.9c-0.3-0.2-0.5-0.5-0.5-0.9v-8c0-0.4,0.2-0.7,0.5-0.9l12-6.9
						c0.3-0.2,0.7-0.2,1,0l12,6.9c0.3,0.2,0.5,0.5,0.5,0.9v8c0,0.4-0.2,0.7-0.5,0.9l-12,6.9C52,97,51.8,97,51.7,97z M40.7,88.5
						l11,6.4l11-6.4v-6.8l-11-6.4l-11,6.4V88.5z"/>
					<g>
						<g>
							<path class="st2" d="M116.1,12.3l-4.2-2.4l0,0c-1.8-1-4.1-0.9-6.6,0.5C99.6,13.6,95,22.3,95,29.8c0,4.1,1.4,7,3.5,8.2l0,0
								l4.2,2.4l1.3-2.7c0.3-0.1,0.6-0.3,0.8-0.4c5.6-3.2,10.2-11.9,10.2-19.4c0-1-0.1-2-0.3-2.9L116.1,12.3z"/>
							<path class="st0" d="M111.8,9.8L111.8,9.8c-1.8-1-4.1-0.9-6.7,0.5c-3.1,1.8-5.8,5.2-7.7,9.1l15.1,8.7
								c1.5-3.3,2.5-6.9,2.5-10.3c0-1-0.1-2-0.3-2.9l1.3-2.7L111.8,9.8z"/>
							<g>
								
									<ellipse transform="matrix(0.3916 -0.9201 0.9201 0.3916 42.3154 116.769)" class="st1" cx="109.5" cy="26.4" rx="15.6" ry="8.8"/>
								<path class="st0" d="M105.4,42.1c-1.1,0-2.2-0.3-3.1-0.8c-2.6-1.5-4-4.8-4-9.1c0-7.8,4.8-16.9,10.7-20.3
									c2.8-1.6,5.5-1.8,7.7-0.5c2.6,1.5,4,4.8,4,9.1c0,7.8-4.8,16.9-10.7,20.3C108.4,41.7,106.8,42.1,105.4,42.1z M113.5,12.6
									c-1.1,0-2.3,0.4-3.5,1.1c-5.3,3.1-9.7,11.4-9.7,18.6c0,3.6,1.1,6.3,3,7.4c1.5,0.9,3.5,0.7,5.7-0.5
									c5.3-3.1,9.7-11.4,9.7-18.6c0-3.6-1.1-6.3-3-7.4C114.9,12.8,114.2,12.6,113.5,12.6z"/>
							</g>
							<path class="st3" d="M105.4,42.1c-1.1,0-2.1-0.2-3-0.7c-0.1,0-0.1,0-0.2-0.1L98,38.9c-0.1,0-0.1-0.1-0.1-0.1
								c-2.5-1.5-3.9-4.8-3.9-9c0-7.8,4.8-16.9,10.7-20.3c2.7-1.6,5.4-1.8,7.5-0.6c0.1,0,0.1,0,0.2,0.1l4.2,2.4
								c0.1,0,0.1,0.1,0.1,0.1c2.5,1.5,3.9,4.8,3.9,9c0,7.8-4.8,16.9-10.7,20.3C108.4,41.7,106.8,42.1,105.4,42.1z M103.1,39.5
								C103.1,39.5,103.2,39.5,103.1,39.5c1.7,1,3.6,0.8,5.7-0.4c5.3-3.1,9.7-11.4,9.7-18.6c0-3.6-1.1-6.2-3-7.3l-0.1-0.1l-4-2.3
								c0,0-0.1,0-0.1-0.1c-1.6-0.9-3.5-0.7-5.6,0.5c-5.3,3.1-9.7,11.4-9.7,18.6c0,3.6,1.1,6.2,3,7.3l0.1,0.1L103.1,39.5z"/>
						</g>
						<path class="st0" d="M107.6,33.4c-0.2,0-0.4-0.1-0.6-0.2l-2.6-2c-0.4-0.3-0.5-1-0.2-1.4s1-0.5,1.4-0.2l1.7,1.3l5.8-11
							c0.3-0.5,0.9-0.7,1.3-0.4c0.5,0.3,0.7,0.9,0.4,1.3l-6.3,12.1c-0.1,0.3-0.4,0.4-0.7,0.5C107.7,33.4,107.6,33.4,107.6,33.4z"/>
					</g>
				</g>
				<rect x="4" y="4" class="st7" width="120" height="120"/>
				<rect x="4" y="4" class="st7" width="120" height="120"/>
			</g>
		</g>
	</g>
	<g>
		<rect class="st7" width="128" height="128"/>
	</g>
</g>
</svg>
