<?xml version="1.0" encoding="utf-8"?>
<!-- Generator: Adobe Illustrator 24.1.0, SVG Export Plug-In . SVG Version: 6.00 Build 0)  -->
<svg version="1.1" id="Layer_1" xmlns="http://www.w3.org/2000/svg" xmlns:xlink="http://www.w3.org/1999/xlink" x="0px" y="0px"
	 viewBox="0 0 128 128" style="enable-background:new 0 0 128 128;" xml:space="preserve">
<style type="text/css">
	.st0{fill:none;}
	.st1{fill:#FFFFFF;}
	.st2{fill:#4D9987;}
	.st3{fill:#E9EBDF;}
	.st4{fill:#0E352C;}
</style>
<g id="Layer_1_1_">
</g>
<g>
	<g id="Layer_2_1_">
		<g id="Objects_1_">
			<g>
				<g>
					<g>
						<rect x="4" y="4" class="st0" width="120" height="120"/>
						<rect x="4" y="4" class="st0" width="120" height="120"/>
					</g>
				</g>
				<g>
					<g>
						<g>
							<path class="st1" d="M99,33.7c0-5.1-3.1-11.1-7-13.3L65.9,5.3c-0.7-0.4-1.3-0.4-1.7-0.1l0,0L29.9,25l7.8,13.5l27,84.5
								L99,103.2V33.7z"/>
							<path class="st2" d="M64.8,123L99,103.2V33.7c0-2.5-0.7-5.1-1.9-7.5L43.7,57.1L64.8,123z"/>
							<g>
								<path class="st1" d="M89.7,42.1c-0.1,0-0.3,0-0.4-0.1s-0.2-0.1-0.3-0.2c-0.1-0.1-0.2-0.2-0.2-0.3c-0.1-0.1-0.1-0.2-0.1-0.4
									c0-0.3,0.1-0.5,0.3-0.7c0.1-0.1,0.2-0.2,0.3-0.2c0.2-0.1,0.4-0.1,0.6-0.1c0.1,0,0.1,0,0.2,0.1c0.1,0,0.1,0,0.2,0.1
									c0.1,0,0.1,0.1,0.2,0.1c0,0.1,0.1,0.1,0.1,0.2c0,0.1,0.1,0.1,0.1,0.2c0,0.1,0,0.1,0.1,0.2c0,0.1,0,0.1,0,0.2
									c0,0.1,0,0.3-0.1,0.4c0,0.1-0.1,0.2-0.2,0.3c0,0-0.1,0.1-0.2,0.1c0,0-0.1,0.1-0.2,0.1s-0.1,0.1-0.2,0.1
									C89.8,42.1,89.7,42.1,89.7,42.1z"/>
								<path class="st1" d="M88.7,102.1c0-0.6,0.4-1,1-1l0,0c0.5,0,1,0.4,1,1l0,0c0,0.6-0.5,1-1,1l0,0
									C89.1,103.1,88.7,102.6,88.7,102.1z M88.7,96c0-0.6,0.4-1,1-1l0,0c0.5,0,1,0.4,1,1l0,0c0,0.6-0.5,1-1,1l0,0
									C89.1,97,88.7,96.5,88.7,96z M88.7,89.9c0-0.5,0.4-1,1-1l0,0c0.5,0,1,0.5,1,1l0,0c0,0.6-0.5,1-1,1l0,0
									C89.1,90.9,88.7,90.4,88.7,89.9z M88.7,83.8c0-0.6,0.4-1,1-1l0,0c0.5,0,1,0.4,1,1l0,0c0,0.6-0.5,1-1,1l0,0
									C89.1,84.8,88.7,84.4,88.7,83.8z M88.7,77.7c0-0.6,0.4-1,1-1l0,0c0.5,0,1,0.4,1,1l0,0c0,0.5-0.5,1-1,1l0,0
									C89.1,78.7,88.7,78.3,88.7,77.7z M88.7,71.6c0-0.5,0.4-1,1-1l0,0c0.5,0,1,0.5,1,1l0,0c0,0.6-0.5,1-1,1l0,0
									C89.1,72.6,88.7,72.2,88.7,71.6z M88.7,65.5c0-0.6,0.4-1,1-1l0,0c0.5,0,1,0.5,1,1l0,0c0,0.6-0.5,1-1,1l0,0
									C89.1,66.5,88.7,66.1,88.7,65.5z M88.7,59.4c0-0.6,0.4-1,1-1l0,0c0.5,0,1,0.4,1,1l0,0c0,0.6-0.5,1-1,1l0,0
									C89.1,60.4,88.7,60,88.7,59.4z M88.7,53.3c0-0.6,0.4-1,1-1l0,0c0.5,0,1,0.4,1,1l0,0c0,0.5-0.5,1-1,1l0,0
									C89.1,54.3,88.7,53.9,88.7,53.3z M88.7,47.2c0-0.6,0.4-1,1-1l0,0c0.5,0,1,0.4,1,1l0,0c0,0.5-0.5,1-1,1l0,0
									C89.1,48.2,88.7,47.8,88.7,47.2z"/>
								<path class="st1" d="M89.7,109.2c-0.1,0-0.3,0-0.4-0.1c-0.1,0-0.2-0.1-0.3-0.2c-0.1-0.1-0.2-0.2-0.2-0.3
									c-0.1-0.1-0.1-0.2-0.1-0.4s0-0.3,0.1-0.4c0-0.1,0.1-0.2,0.2-0.3c0.1-0.1,0.2-0.2,0.3-0.2c0.2-0.1,0.4-0.1,0.6-0.1
									c0.1,0,0.1,0,0.2,0.1c0.1,0,0.1,0.1,0.2,0.1s0.1,0.1,0.2,0.1c0.1,0.1,0.2,0.2,0.2,0.3c0,0.1,0.1,0.2,0.1,0.4
									c0,0.3-0.1,0.5-0.3,0.7c0,0-0.1,0.1-0.2,0.1c0,0-0.1,0.1-0.2,0.1s-0.1,0.1-0.2,0.1C89.8,109.2,89.7,109.2,89.7,109.2z"/>
							</g>
							<g>
								<path class="st1" d="M74.1,51.1c-0.1,0-0.1,0-0.2,0s-0.1,0-0.2-0.1c-0.1,0-0.1,0-0.2-0.1c0,0-0.1-0.1-0.2-0.1
									c-0.2-0.2-0.3-0.5-0.3-0.7c0-0.1,0-0.1,0-0.2c0-0.1,0-0.1,0.1-0.2c0-0.1,0.1-0.1,0.1-0.2c0-0.1,0.1-0.1,0.1-0.2
									c0.4-0.4,1.1-0.4,1.4,0c0,0.1,0.1,0.1,0.1,0.2c0,0,0.1,0.1,0.1,0.2c0,0.1,0,0.1,0.1,0.2c0,0.1,0,0.1,0,0.2
									c0,0.3-0.1,0.5-0.3,0.7C74.6,51,74.4,51.1,74.1,51.1z"/>
								<path class="st1" d="M73.1,111.5c0-0.6,0.5-1,1-1l0,0c0.6,0,1,0.4,1,1l0,0c0,0.5-0.4,1-1,1l0,0
									C73.6,112.5,73.1,112,73.1,111.5z M73.1,105.3c0-0.6,0.5-1,1-1l0,0c0.6,0,1,0.4,1,1l0,0c0,0.5-0.4,1-1,1l0,0
									C73.6,106.3,73.1,105.9,73.1,105.3z M73.1,99.2c0-0.6,0.5-1,1-1l0,0c0.6,0,1,0.4,1,1l0,0c0,0.5-0.4,1-1,1l0,0
									C73.6,100.2,73.1,99.7,73.1,99.2z M73.1,93.1c0-0.6,0.5-1,1-1l0,0c0.6,0,1,0.4,1,1l0,0c0,0.5-0.4,1-1,1l0,0
									C73.6,94.1,73.1,93.6,73.1,93.1z M73.1,86.9c0-0.6,0.5-1,1-1l0,0c0.6,0,1,0.4,1,1l0,0c0,0.6-0.4,1-1,1l0,0
									C73.6,87.9,73.1,87.5,73.1,86.9z M73.1,80.8c0-0.6,0.5-1,1-1l0,0c0.6,0,1,0.4,1,1l0,0c0,0.6-0.4,1-1,1l0,0
									C73.6,81.8,73.1,81.3,73.1,80.8z M73.1,74.6c0-0.5,0.5-1,1-1l0,0c0.6,0,1,0.5,1,1l0,0c0,0.6-0.4,1-1,1l0,0
									C73.6,75.6,73.1,75.2,73.1,74.6z M73.1,68.5c0-0.6,0.5-1,1-1l0,0c0.6,0,1,0.4,1,1l0,0c0,0.6-0.4,1-1,1l0,0
									C73.6,69.5,73.1,69.1,73.1,68.5z M73.1,62.4c0-0.5,0.5-1,1-1l0,0c0.6,0,1,0.5,1,1l0,0c0,0.6-0.4,1-1,1l0,0
									C73.6,63.4,73.1,62.9,73.1,62.4z M73.1,56.2c0-0.6,0.5-1,1-1l0,0c0.6,0,1,0.4,1,1l0,0c0,0.6-0.4,1-1,1l0,0
									C73.6,57.2,73.1,56.8,73.1,56.2z"/>
								<path class="st1" d="M74.1,118.6c-0.3,0-0.5-0.1-0.7-0.3c0-0.1-0.1-0.1-0.1-0.2s-0.1-0.1-0.1-0.2s0-0.1-0.1-0.2
									c0-0.1,0-0.1,0-0.2s0-0.3,0.1-0.4s0.1-0.2,0.2-0.3c0.4-0.4,1.1-0.4,1.4,0c0.1,0.1,0.2,0.2,0.2,0.3c0,0.1,0.1,0.2,0.1,0.4
									c0,0.1,0,0.1,0,0.2s0,0.1-0.1,0.2c0,0.1-0.1,0.1-0.1,0.2s-0.1,0.1-0.1,0.2C74.6,118.5,74.4,118.6,74.1,118.6z"/>
							</g>
							<path class="st3" d="M64.8,56.5c-0.3,0-0.7-0.2-0.9-0.5c-0.3-0.5-0.1-1.1,0.4-1.4l9.4-5.4c0.5-0.3,1.1-0.1,1.4,0.4
								s0.1,1.1-0.4,1.4l-9.4,5.4C65.1,56.5,64.9,56.5,64.8,56.5z"/>
							<path class="st3" d="M89.7,42.1c-0.3,0-0.7-0.2-0.9-0.5c-0.3-0.5-0.1-1.1,0.4-1.4l9.4-5.4c0.5-0.3,1.1-0.1,1.4,0.4
								s0.1,1.1-0.4,1.4L90.2,42C90,42.1,89.8,42.1,89.7,42.1z"/>
							<path class="st2" d="M64.8,124c-0.1,0-0.2,0-0.4-0.1c-0.3-0.1-0.5-0.3-0.6-0.6l-27-84.4L29,25.5c-0.3-0.5-0.1-1.1,0.4-1.4
								L63.7,4.3h0.1c0.8-0.4,1.7-0.3,2.6,0.2l26.2,15.1c4.2,2.4,7.5,8.6,7.5,14.1v69.5c0,0.4-0.2,0.7-0.5,0.9l-34.3,19.8
								C65.1,124,64.9,124,64.8,124z M31.3,25.3L38.6,38c0,0.1,0.1,0.1,0.1,0.2l26.7,83.3L98,102.6V33.7c0-4.8-2.9-10.4-6.5-12.4
								L65.4,6.2c-0.1-0.1-0.5-0.3-0.7-0.1c0,0,0,0-0.1,0L31.3,25.3z M99,103.2L99,103.2L99,103.2z"/>
							<g>
								<path class="st3" d="M31.6,25.1l26.2,15.1c3.8,2.2,7,8.2,7,13.3V123L29,102.3V27.1C29,25.1,30.2,24.3,31.6,25.1z"/>
								<path class="st2" d="M64.8,124c-0.2,0-0.3,0-0.5-0.1l-35.8-20.7c-0.3-0.2-0.5-0.5-0.5-0.9V27.1c0-1.4,0.5-2.5,1.4-3
									c0.8-0.5,1.8-0.4,2.7,0.1l0,0l26.2,15.1c4.2,2.4,7.5,8.6,7.5,14.1V123c0,0.4-0.2,0.7-0.5,0.9C65.1,124,64.9,124,64.8,124z
									 M30,101.8l33.8,19.5V53.5c0-4.8-2.9-10.4-6.5-12.4L31.1,26l0,0c-0.1-0.1-0.5-0.3-0.7-0.1C30.2,26,30,26.4,30,27.2V101.8z"
									/>
							</g>
							<path class="st1" d="M53.9,117.8c-0.2,0-0.3,0-0.5-0.1l-13.5-7.8c-0.3-0.2-0.5-0.5-0.5-0.9V44.8c0-1,0.4-1.8,1.1-2.2
								c0.6-0.4,1.4-0.3,2.1,0.1l7.6,4.4c2.7,1.6,4.8,5.6,4.8,9.1v60.6c0,0.4-0.2,0.7-0.5,0.9C54.3,117.7,54.1,117.8,53.9,117.8z
								 M41.4,108.4l11.5,6.7V56.2c0-2.8-1.7-6.2-3.8-7.4l-7.6-4.4h-0.1c0,0.1-0.1,0.2-0.1,0.4L41.4,108.4L41.4,108.4z"/>
						</g>
						<path class="st2" d="M75.5,31c-0.2,0-0.3,0-0.5-0.1l-15.9-9.2c-0.5-0.3-0.6-0.9-0.4-1.4c0.3-0.5,0.9-0.6,1.4-0.4L76,29.1
							c0.5,0.3,0.6,0.9,0.4,1.4C76.2,30.8,75.8,31,75.5,31z"/>
						<path class="st3" d="M82.5,113.8c-0.6,0-1-0.4-1-1V44.3c0-0.6,0.4-1,1-1s1,0.4,1,1v68.5C83.5,113.3,83,113.8,82.5,113.8z"/>
						<path class="st2" d="M48.3,24.5c-4.3,0-8.5-0.9-11.8-2.8c-0.5-0.3-0.6-0.9-0.4-1.4c0.3-0.5,0.9-0.6,1.4-0.4
							c5.9,3.4,15.6,3.4,21.5,0c2.7-1.5,4.2-3.5,4.2-5.6s-1.5-4.1-4.2-5.6c-0.5-0.3-0.6-0.9-0.4-1.4c0.3-0.5,0.9-0.6,1.4-0.4
							c3.3,1.9,5.2,4.5,5.2,7.4c0,2.8-1.8,5.4-5.2,7.4C56.8,23.5,52.6,24.5,48.3,24.5z"/>
					</g>
					<path class="st4" d="M64.8,124c-0.2,0-0.3,0-0.5-0.1l-35.8-20.7c-0.3-0.2-0.5-0.5-0.5-0.9V27.1c0-1.3,0.4-2.3,1.2-2.9
						c0.1-0.1,0.1-0.1,0.2-0.1L63.7,4.3c0,0,0.1,0,0.1-0.1c0.8-0.4,1.7-0.3,2.6,0.2l26.2,15.1c4.2,2.4,7.5,8.6,7.5,14.1v69.5
						c0,0.4-0.2,0.7-0.5,0.9L83,113.7l-0.5-0.9l0.5,0.9l-17.7,10.2C65.1,124,64.9,124,64.8,124z M30,101.8l34.8,20.1L82,112l0,0
						l16.1-9.3v-69c0-4.8-2.9-10.4-6.5-12.4L65.4,6.2c-0.1-0.1-0.5-0.3-0.7-0.1h-0.1l-34,19.6c0,0-0.1,0.1-0.2,0.1
						C30.2,26,30,26.4,30,27.1V101.8z"/>
				</g>
			</g>
		</g>
	</g>
	<g>
		<rect class="st0" width="128" height="128"/>
	</g>
</g>
</svg>
