<?xml version="1.0" encoding="utf-8"?>
<!-- Generator: Adobe Illustrator 24.1.0, SVG Export Plug-In . SVG Version: 6.00 Build 0)  -->
<svg version="1.1" id="Layer_1" xmlns="http://www.w3.org/2000/svg" xmlns:xlink="http://www.w3.org/1999/xlink" x="0px" y="0px"
	 viewBox="0 0 128 128" style="enable-background:new 0 0 128 128;" xml:space="preserve">
<style type="text/css">
	.st0{fill:none;}
	.st1{fill:#C4D7D3;}
	.st2{fill:#27ae60;}
	.st3{fill:#FFFFFF;}
	.st4{fill:#185849;}
</style>
<g id="Layer_1_1_">
</g>
<g>
	<g id="Layer_2_1_">
		<g id="Objects_1_">
			<g>
				<g>
					<g>
						<rect x="4" y="4" class="st0" width="120" height="120"/>
						<rect x="4" y="4" class="st0" width="120" height="120"/>
					</g>
				</g>
				<g>
					<g>
						<g>
							<path class="st1" d="M99.7,90.8h-18l-15.6-9l-15.6,9H28.3v12.8L59,121.3c3.9,2.3,10.2,2.3,14.1,0l23.7-13.7
								c2-1.1,2.9-2.6,2.9-4.1l0,0C99.7,103.5,99.7,90.8,99.7,90.8z"/>
							<path class="st2" d="M66.1,124c-2.7,0-5.4-0.6-7.6-1.8l-30.7-17.7c-0.3-0.2-0.5-0.5-0.5-0.9V90.8c0-0.6,0.4-1,1-1h21.9
								l15.4-8.9c0.3-0.2,0.7-0.2,1,0L82,89.8h17.7c0.6,0,1,0.4,1,1v12.8c0,1.9-1.2,3.7-3.4,4.9l-23.7,13.7
								C71.5,123.4,68.8,124,66.1,124z M29.3,103l30.2,17.5c3.6,2.1,9.5,2.1,13.1,0l23.7-13.7c1.6-0.9,2.4-2,2.4-3.2V91.8h-17
								c-0.2,0-0.3,0-0.5-0.1L66.1,83L51,91.7c-0.2,0.1-0.3,0.1-0.5,0.1H29.3V103z"/>
							<path class="st2" d="M66.1,81.7l-0.2,0.1V123c2.6,0,5.3-0.5,7.3-1.7l23.7-13.7c2-1.1,2.9-2.6,2.9-4.1l0,0V90.8h-18L66.1,81.7
								z"/>
							<g>
								<path class="st3" d="M96.8,94.9l-23.7,13.7c-3.9,2.3-10.2,2.3-14.1,0L28.3,90.8l0,0L66.1,69l30.7,17.7
									C100.7,89,100.7,92.6,96.8,94.9z"/>
								<path class="st2" d="M66.1,111.2c-2.7,0-5.4-0.6-7.6-1.8L27.8,91.6c-0.3-0.2-0.5-0.5-0.5-0.9s0.2-0.7,0.5-0.9L65.6,68
									c0.3-0.2,0.7-0.2,1,0l30.7,17.7c2.2,1.3,3.4,3,3.4,4.9s-1.2,3.7-3.4,4.9l0,0l-23.7,13.7C71.5,110.6,68.8,111.2,66.1,111.2z
									 M30.3,90.8l29.2,16.9c3.6,2.1,9.5,2.1,13.1,0L96.3,94c1.6-0.9,2.4-2,2.4-3.2s-0.9-2.3-2.4-3.2L66.1,70.1L30.3,90.8z
									 M96.8,94.9L96.8,94.9L96.8,94.9z"/>
							</g>
							<path class="st2" d="M59,116.2c-0.2,0-0.3,0-0.5-0.1l-21.3-12.3c-0.5-0.3-0.6-0.9-0.4-1.4c0.3-0.5,0.9-0.6,1.4-0.4l21.3,12.3
								c0.5,0.3,0.6,0.9,0.4,1.4C59.7,116.1,59.3,116.2,59,116.2z"/>
							<path class="st2" d="M66.1,117.9c-2.8,0-5.5-0.6-7.6-1.8l1-1.7c1.7,1,4.1,1.6,6.6,1.6V117.9z"/>
							<path class="st2" d="M37.7,97.2c-0.3,0-0.7-0.2-0.9-0.5c-0.3-0.5-0.1-1.1,0.4-1.4l8.5-4.9c0.5-0.3,1.1-0.1,1.4,0.4
								c0.3,0.5,0.1,1.1-0.4,1.4l-8.5,4.9C38.1,97.2,37.9,97.2,37.7,97.2z"/>
							<path class="st2" d="M67,80.3c-0.3,0-0.7-0.2-0.9-0.5c-0.3-0.5-0.1-1.1,0.4-1.4l8.5-4.9c0.5-0.3,1.1-0.1,1.4,0.4
								s0.1,1.1-0.4,1.4l-8.5,4.9C67.3,80.3,67.2,80.3,67,80.3z"/>
							<path class="st2" d="M67,80.3c-0.2,0-0.3,0-0.5-0.1l-9.4-5.5c-0.5-0.3-0.6-0.9-0.4-1.4c0.3-0.5,0.9-0.6,1.4-0.4l9.4,5.5
								c0.5,0.3,0.6,0.9,0.4,1.4C67.7,80.2,67.3,80.3,67,80.3z"/>
							<path class="st2" d="M46.2,92.3c-0.2,0-0.3,0-0.5-0.1l-9.4-5.5c-0.5-0.3-0.6-0.9-0.4-1.4c0.3-0.5,0.9-0.6,1.4-0.4l9.4,5.5
								c0.5,0.3,0.6,0.9,0.4,1.4C46.9,92.1,46.6,92.3,46.2,92.3z"/>
							<path class="st2" d="M37.7,104c-0.6,0-1-0.4-1-1v-6.7c0-0.6,0.4-1,1-1s1,0.4,1,1v6.7C38.7,103.5,38.3,104,37.7,104z"/>
							<path class="st1" d="M85.1,110.2c-0.6,0-1-0.4-1-1v-2.3c0-0.6,0.4-1,1-1s1,0.4,1,1v2.3C86.1,109.7,85.6,110.2,85.1,110.2z"/>
							<path class="st1" d="M74.6,116.2c-0.6,0-1-0.4-1-1v-2.3c0-0.6,0.4-1,1-1s1,0.4,1,1v2.3C75.6,115.7,75.2,116.2,74.6,116.2z"/>
							<path class="st1" d="M79.8,113.2c-0.6,0-1-0.4-1-1v-2.3c0-0.6,0.4-1,1-1s1,0.4,1,1v2.3C80.8,112.7,80.4,113.2,79.8,113.2z"/>
							<path class="st1" d="M90.1,107.3c-0.6,0-1-0.4-1-1V104c0-0.6,0.4-1,1-1s1,0.4,1,1v2.3C91.1,106.8,90.6,107.3,90.1,107.3z"/>
							<path class="st1" d="M95.3,104.3c-0.6,0-1-0.4-1-1V101c0-0.6,0.4-1,1-1s1,0.4,1,1v2.3C96.3,103.8,95.9,104.3,95.3,104.3z"/>
						</g>
						<g>
							<path class="st1" d="M99.7,78h-18l-15.6-9l-15.6,9H28.3v12.8L59,108.5c3.9,2.3,10.2,2.3,14.1,0l23.7-13.7
								c2-1.1,2.9-2.6,2.9-4.1l0,0C99.7,90.7,99.7,78,99.7,78z"/>
							<path class="st2" d="M66.1,111.2c-2.7,0-5.4-0.6-7.6-1.8L27.8,91.6c-0.3-0.2-0.5-0.5-0.5-0.9V78c0-0.6,0.4-1,1-1h21.9
								l15.4-8.9c0.3-0.2,0.7-0.2,1,0L82,77h17.7c0.6,0,1,0.4,1,1v12.8c0,1.9-1.2,3.7-3.4,4.9l-23.7,13.7
								C71.5,110.6,68.8,111.2,66.1,111.2z M29.3,90.2l30.2,17.5c3.6,2.1,9.5,2.1,13.1,0L96.3,94c1.6-0.9,2.4-2,2.4-3.2V79h-17
								c-0.2,0-0.3,0-0.5-0.1l-15.1-8.7L51,78.9C50.8,79,50.7,79,50.5,79H29.3V90.2z"/>
							<path class="st2" d="M66.1,69l-0.2,0.1v41.1c2.6,0,5.3-0.5,7.3-1.7l23.7-13.7c2-1.1,2.9-2.6,2.9-4.1l0,0V78h-18L66.1,69z"/>
							<g>
								<path class="st3" d="M96.8,82.1L73.1,95.7C69.2,98,62.9,98,59,95.7L28.3,78l0,0l37.8-21.8l30.7,17.7
									C100.7,76.2,100.7,79.8,96.8,82.1z"/>
								<path class="st2" d="M66.1,98.4c-2.7,0-5.4-0.6-7.6-1.8L27.8,78.9c-0.3-0.2-0.5-0.5-0.5-0.9s0.2-0.7,0.5-0.9l37.8-21.8
									c0.3-0.2,0.7-0.2,1,0L97.3,73c2.2,1.3,3.4,3,3.4,4.9s-1.2,3.7-3.4,4.9l0,0L73.6,96.6C71.5,97.8,68.8,98.4,66.1,98.4z
									 M30.3,78l29.2,16.9c3.6,2.1,9.5,2.1,13.1,0l23.7-13.7c1.6-0.9,2.4-2,2.4-3.2s-0.9-2.3-2.4-3.2L66.1,57.3L30.3,78z
									 M96.8,82.1L96.8,82.1L96.8,82.1z"/>
							</g>
							<path class="st2" d="M59,103.4c-0.2,0-0.3,0-0.5-0.1L37.2,91c-0.5-0.3-0.6-0.9-0.4-1.4c0.3-0.5,0.9-0.6,1.4-0.4l21.3,12.3
								c0.5,0.3,0.6,0.9,0.4,1.4C59.7,103.3,59.3,103.4,59,103.4z"/>
							<path class="st2" d="M66.1,105.1c-2.8,0-5.5-0.6-7.6-1.8l1-1.7c1.7,1,4.1,1.6,6.6,1.6V105.1z"/>
							<path class="st2" d="M37.7,84.4c-0.3,0-0.7-0.2-0.9-0.5c-0.3-0.5-0.1-1.1,0.4-1.4l8.5-4.9c0.5-0.3,1.1-0.1,1.4,0.4
								c0.3,0.5,0.1,1.1-0.4,1.4l-8.5,4.9C38.1,84.4,37.9,84.4,37.7,84.4z"/>
							<path class="st2" d="M67,67.5c-0.3,0-0.7-0.2-0.9-0.5c-0.3-0.5-0.1-1.1,0.4-1.4l8.5-4.9c0.5-0.3,1.1-0.1,1.4,0.4
								s0.1,1.1-0.4,1.4l-8.5,4.9C67.3,67.5,67.2,67.5,67,67.5z"/>
							<path class="st2" d="M67,67.5c-0.2,0-0.3,0-0.5-0.1L57.1,62c-0.5-0.3-0.6-0.9-0.4-1.4c0.3-0.5,0.9-0.6,1.4-0.4l9.4,5.5
								c0.5,0.3,0.6,0.9,0.4,1.4C67.7,67.4,67.3,67.5,67,67.5z"/>
							<path class="st2" d="M46.2,79.5c-0.2,0-0.3,0-0.5-0.1l-9.4-5.5c-0.5-0.3-0.6-0.9-0.4-1.4c0.3-0.5,0.9-0.6,1.4-0.4l9.4,5.5
								c0.5,0.3,0.6,0.9,0.4,1.4C46.9,79.3,46.6,79.5,46.2,79.5z"/>
							<path class="st2" d="M37.7,91.2c-0.6,0-1-0.4-1-1v-6.7c0-0.6,0.4-1,1-1s1,0.4,1,1v6.7C38.7,90.7,38.3,91.2,37.7,91.2z"/>
							<path class="st1" d="M85.1,97.4c-0.6,0-1-0.4-1-1v-2.3c0-0.6,0.4-1,1-1s1,0.4,1,1v2.3C86.1,96.9,85.6,97.4,85.1,97.4z"/>
							<path class="st1" d="M74.6,103.4c-0.6,0-1-0.4-1-1v-2.3c0-0.6,0.4-1,1-1s1,0.4,1,1v2.3C75.6,102.9,75.2,103.4,74.6,103.4z"/>
							<path class="st1" d="M79.8,100.4c-0.6,0-1-0.4-1-1v-2.3c0-0.6,0.4-1,1-1s1,0.4,1,1v2.3C80.8,99.9,80.4,100.4,79.8,100.4z"/>
							<path class="st1" d="M90.1,94.5c-0.6,0-1-0.4-1-1v-2.3c0-0.6,0.4-1,1-1s1,0.4,1,1v2.3C91.1,94,90.6,94.5,90.1,94.5z"/>
							<path class="st1" d="M95.3,91.5c-0.6,0-1-0.4-1-1v-2.3c0-0.6,0.4-1,1-1s1,0.4,1,1v2.3C96.3,91,95.9,91.5,95.3,91.5z"/>
						</g>
						<g>
							<path class="st1" d="M99.7,65.2h-18l-15.6-9l-15.6,9H28.3V78L59,95.7c3.9,2.3,10.2,2.3,14.1,0L96.8,82c2-1.1,2.9-2.6,2.9-4.1
								l0,0C99.7,77.9,99.7,65.2,99.7,65.2z"/>
							<path class="st2" d="M66.1,98.4c-2.7,0-5.4-0.6-7.6-1.8L27.8,78.9c-0.3-0.2-0.5-0.5-0.5-0.9V65.2c0-0.6,0.4-1,1-1h21.9
								l15.4-8.9c0.3-0.2,0.7-0.2,1,0L82,64.2h17.7c0.6,0,1,0.4,1,1V78c0,1.9-1.2,3.7-3.4,4.9L73.6,96.6
								C71.5,97.8,68.8,98.4,66.1,98.4z M29.3,77.4l30.2,17.5c3.6,2.1,9.5,2.1,13.1,0l23.7-13.7c1.6-0.9,2.4-2,2.4-3.2V66.2h-17
								c-0.2,0-0.3,0-0.5-0.1l-15.1-8.7L51,66.1c-0.2,0.1-0.3,0.1-0.5,0.1H29.3V77.4z"/>
							<path class="st2" d="M66.1,56.2l-0.2,0.1v41.1c2.6,0,5.3-0.5,7.3-1.7L96.9,82c2-1.1,2.9-2.6,2.9-4.1l0,0V65.2h-18L66.1,56.2z
								"/>
							<g>
								<path class="st3" d="M96.8,69.3L73.1,82.9c-3.9,2.3-10.2,2.3-14.1,0L28.3,65.2l0,0l37.8-21.8l30.7,17.7
									C100.7,63.4,100.7,67,96.8,69.3z"/>
								<path class="st2" d="M66.1,85.6c-2.7,0-5.4-0.6-7.6-1.8L27.8,66.1c-0.3-0.2-0.5-0.5-0.5-0.9s0.2-0.7,0.5-0.9l37.8-21.8
									c0.3-0.2,0.7-0.2,1,0l30.7,17.7c2.2,1.3,3.4,3,3.4,4.9s-1.2,3.7-3.4,4.9l0,0L73.6,83.8C71.5,85,68.8,85.6,66.1,85.6z
									 M30.3,65.2l29.2,16.9c3.6,2.1,9.5,2.1,13.1,0l23.7-13.7c1.6-0.9,2.4-2,2.4-3.2s-0.9-2.3-2.4-3.2L66.1,44.5L30.3,65.2z
									 M96.8,69.3L96.8,69.3L96.8,69.3z"/>
							</g>
							<path class="st2" d="M59,90.7c-0.2,0-0.3,0-0.5-0.1L37.2,78.2c-0.5-0.3-0.6-0.9-0.4-1.4c0.3-0.5,0.9-0.6,1.4-0.4l21.3,12.3
								c0.5,0.3,0.6,0.9,0.4,1.4C59.7,90.5,59.3,90.7,59,90.7z"/>
							<path class="st2" d="M66.1,92.3c-2.8,0-5.5-0.6-7.6-1.8l1-1.7c1.7,1,4.1,1.6,6.6,1.6V92.3z"/>
							<path class="st2" d="M37.7,71.6c-0.3,0-0.7-0.2-0.9-0.5c-0.3-0.5-0.1-1.1,0.4-1.4l8.5-4.9c0.5-0.3,1.1-0.1,1.4,0.4
								c0.3,0.5,0.1,1.1-0.4,1.4l-8.5,4.9C38.1,71.6,37.9,71.6,37.7,71.6z"/>
							<path class="st2" d="M67,54.7c-0.3,0-0.7-0.2-0.9-0.5c-0.3-0.5-0.1-1.1,0.4-1.4L75,48c0.5-0.3,1.1-0.1,1.4,0.4
								s0.1,1.1-0.4,1.4l-8.5,4.9C67.3,54.7,67.2,54.7,67,54.7z"/>
							<path class="st2" d="M67,54.7c-0.2,0-0.3,0-0.5-0.1l-9.4-5.5c-0.5-0.3-0.6-0.9-0.4-1.4c0.3-0.5,0.9-0.6,1.4-0.4l9.4,5.5
								c0.5,0.3,0.6,0.9,0.4,1.4C67.7,54.6,67.3,54.7,67,54.7z"/>
							<path class="st2" d="M46.2,66.7c-0.2,0-0.3,0-0.5-0.1l-9.4-5.5c-0.5-0.3-0.6-0.9-0.4-1.4c0.3-0.5,0.9-0.6,1.4-0.4l9.4,5.5
								c0.5,0.3,0.6,0.9,0.4,1.4C46.9,66.6,46.6,66.7,46.2,66.7z"/>
							<path class="st2" d="M37.7,78.4c-0.6,0-1-0.4-1-1v-6.7c0-0.6,0.4-1,1-1s1,0.4,1,1v6.7C38.7,77.9,38.3,78.4,37.7,78.4z"/>
							<path class="st1" d="M85.1,84.6c-0.6,0-1-0.4-1-1v-2.3c0-0.6,0.4-1,1-1s1,0.4,1,1v2.3C86.1,84.1,85.6,84.6,85.1,84.6z"/>
							<path class="st1" d="M74.6,90.6c-0.6,0-1-0.4-1-1v-2.3c0-0.6,0.4-1,1-1s1,0.4,1,1v2.3C75.6,90.2,75.2,90.6,74.6,90.6z"/>
							<path class="st1" d="M79.8,87.6c-0.6,0-1-0.4-1-1v-2.3c0-0.6,0.4-1,1-1s1,0.4,1,1v2.3C80.8,87.1,80.4,87.6,79.8,87.6z"/>
							<path class="st1" d="M90.1,81.7c-0.6,0-1-0.4-1-1v-2.3c0-0.6,0.4-1,1-1s1,0.4,1,1v2.3C91.1,81.2,90.6,81.7,90.1,81.7z"/>
							<path class="st1" d="M95.3,78.7c-0.6,0-1-0.4-1-1v-2.3c0-0.6,0.4-1,1-1s1,0.4,1,1v2.3C96.3,78.2,95.9,78.7,95.3,78.7z"/>
						</g>
						<g>
							<path class="st1" d="M99.7,52.4h-18l-15.6-9l-15.6,9H28.3v12.8L59,82.9c3.9,2.3,10.2,2.3,14.1,0l23.7-13.7
								c2-1.1,2.9-2.6,2.9-4.1l0,0C99.7,65.1,99.7,52.4,99.7,52.4z"/>
							<path class="st2" d="M66.1,85.6c-2.7,0-5.4-0.6-7.6-1.8L27.8,66.1c-0.3-0.2-0.5-0.5-0.5-0.9V52.4c0-0.6,0.4-1,1-1h21.9
								l15.4-8.9c0.3-0.2,0.7-0.2,1,0L82,51.4h17.7c0.6,0,1,0.4,1,1v12.8c0,1.9-1.2,3.7-3.4,4.9L73.6,83.8
								C71.5,85,68.8,85.6,66.1,85.6z M29.3,64.6l30.2,17.5c3.6,2.1,9.5,2.1,13.1,0l23.7-13.7c1.6-0.9,2.4-2,2.4-3.2V53.4h-17
								c-0.2,0-0.3,0-0.5-0.1l-15.1-8.7L51,53.3c-0.2,0.1-0.3,0.1-0.5,0.1H29.3V64.6z"/>
							<path class="st2" d="M66.1,43.4l-0.2,0.1v41.1c2.6,0,5.3-0.5,7.3-1.7l23.7-13.7c2-1.1,2.9-2.6,2.9-4.1l0,0V52.4h-18
								L66.1,43.4z"/>
							<g>
								<path class="st3" d="M96.8,56.5L73.1,70.1c-3.9,2.3-10.2,2.3-14.1,0L28.3,52.4l0,0l37.8-21.8l30.7,17.7
									C100.7,50.6,100.7,54.2,96.8,56.5z"/>
								<path class="st2" d="M66.1,72.8c-2.7,0-5.4-0.6-7.6-1.8L27.8,53.3c-0.3-0.2-0.5-0.5-0.5-0.9s0.2-0.7,0.5-0.9l37.8-21.8
									c0.3-0.2,0.7-0.2,1,0l30.7,17.7c2.2,1.3,3.4,3,3.4,4.9s-1.2,3.7-3.4,4.9l0,0L73.6,71C71.5,72.2,68.8,72.8,66.1,72.8z
									 M30.3,52.4l29.2,16.9c3.6,2.1,9.5,2.1,13.1,0l23.7-13.7l0,0c1.6-0.9,2.4-2,2.4-3.2s-0.9-2.3-2.4-3.2L66.1,31.7L30.3,52.4z
									 M96.8,56.5L96.8,56.5L96.8,56.5z"/>
							</g>
							<path class="st2" d="M59,77.9c-0.2,0-0.3,0-0.5-0.1L37.2,65.4c-0.5-0.3-0.6-0.9-0.4-1.4c0.3-0.5,0.9-0.6,1.4-0.4L59.5,76
								c0.5,0.3,0.6,0.9,0.4,1.4C59.7,77.7,59.3,77.9,59,77.9z"/>
							<path class="st2" d="M66.1,79.6c-2.8,0-5.5-0.6-7.6-1.8l1-1.7c1.7,1,4.1,1.6,6.6,1.6V79.6z"/>
							<path class="st2" d="M37.7,58.9c-0.3,0-0.7-0.2-0.9-0.5c-0.3-0.5-0.1-1.1,0.4-1.4l8.5-4.9c0.5-0.3,1.1-0.1,1.4,0.4
								c0.3,0.5,0.1,1.1-0.4,1.4l-8.5,4.9C38.1,58.8,37.9,58.9,37.7,58.9z"/>
							<path class="st2" d="M67,42c-0.3,0-0.7-0.2-0.9-0.5c-0.3-0.5-0.1-1.1,0.4-1.4l8.5-4.9c0.5-0.3,1.1-0.1,1.4,0.4
								s0.1,1.1-0.4,1.4l-8.5,4.9C67.3,41.9,67.2,42,67,42z"/>
							<path class="st2" d="M67,42c-0.2,0-0.3,0-0.5-0.1l-9.4-5.5c-0.5-0.3-0.6-0.9-0.4-1.4c0.3-0.5,0.9-0.6,1.4-0.4l9.4,5.5
								c0.5,0.3,0.6,0.9,0.4,1.4C67.7,41.8,67.3,42,67,42z"/>
							<path class="st2" d="M46.2,53.9c-0.2,0-0.3,0-0.5-0.1l-9.4-5.5c-0.5-0.3-0.6-0.9-0.4-1.4c0.3-0.5,0.9-0.6,1.4-0.4l9.4,5.5
								c0.5,0.3,0.6,0.9,0.4,1.4C46.9,53.8,46.6,53.9,46.2,53.9z"/>
							<path class="st2" d="M37.7,65.6c-0.6,0-1-0.4-1-1v-6.7c0-0.6,0.4-1,1-1s1,0.4,1,1v6.7C38.7,65.1,38.3,65.6,37.7,65.6z"/>
							<path class="st1" d="M85.1,71.8c-0.6,0-1-0.4-1-1v-2.3c0-0.6,0.4-1,1-1s1,0.4,1,1v2.3C86.1,71.3,85.6,71.8,85.1,71.8z"/>
							<path class="st1" d="M74.6,77.8c-0.6,0-1-0.4-1-1v-2.3c0-0.6,0.4-1,1-1s1,0.4,1,1v2.3C75.6,77.4,75.2,77.8,74.6,77.8z"/>
							<path class="st1" d="M79.8,74.8c-0.6,0-1-0.4-1-1v-2.3c0-0.6,0.4-1,1-1s1,0.4,1,1v2.3C80.8,74.4,80.4,74.8,79.8,74.8z"/>
							<path class="st1" d="M90.1,68.9c-0.6,0-1-0.4-1-1v-2.3c0-0.6,0.4-1,1-1s1,0.4,1,1v2.3C91.1,68.4,90.6,68.9,90.1,68.9z"/>
							<path class="st1" d="M95.3,65.9c-0.6,0-1-0.4-1-1v-2.3c0-0.6,0.4-1,1-1s1,0.4,1,1v2.3C96.3,65.4,95.9,65.9,95.3,65.9z"/>
						</g>
						<g>
							<path class="st1" d="M99.7,39.6h-18l-15.6-9l-15.6,9H28.3v12.8L59,70.1c3.9,2.3,10.2,2.3,14.1,0l23.7-13.7
								c2-1.1,2.9-2.6,2.9-4.1l0,0C99.7,52.3,99.7,39.6,99.7,39.6z"/>
							<path class="st2" d="M66.1,72.8c-2.7,0-5.4-0.6-7.6-1.8L27.8,53.3c-0.3-0.2-0.5-0.5-0.5-0.9V39.6c0-0.6,0.4-1,1-1h21.9
								l15.4-8.9c0.3-0.2,0.7-0.2,1,0L82,38.6h17.7c0.6,0,1,0.4,1,1v12.8c0,1.9-1.2,3.7-3.4,4.9L73.6,71
								C71.5,72.2,68.8,72.8,66.1,72.8z M29.3,51.8l30.2,17.5c3.6,2.1,9.5,2.1,13.1,0l23.7-13.7c1.6-0.9,2.4-2,2.4-3.2V40.6h-17
								c-0.2,0-0.3,0-0.5-0.1l-15.1-8.7L51,40.5c-0.2,0.1-0.3,0.1-0.5,0.1H29.3V51.8z"/>
							<path class="st2" d="M66.1,30.6l-0.2,0.1v41.1c2.6,0,5.3-0.5,7.3-1.7l23.7-13.7c2-1.1,2.9-2.6,2.9-4.1l0,0V39.6h-18
								L66.1,30.6z"/>
							<g>
								<path class="st3" d="M96.8,43.7L73.1,57.4c-3.9,2.3-10.2,2.3-14.1,0L28.3,39.6l0,0l37.8-21.8l30.7,17.7
									C100.7,37.8,100.7,41.4,96.8,43.7z"/>
								<path class="st2" d="M66.1,60.1c-2.7,0-5.4-0.6-7.6-1.8L27.8,40.5c-0.3-0.2-0.5-0.5-0.5-0.9s0.2-0.7,0.5-0.9l37.8-21.8
									c0.3-0.2,0.7-0.2,1,0l30.7,17.7c2.2,1.3,3.4,3,3.4,4.9s-1.2,3.7-3.4,4.9l0,0L73.6,58.2C71.5,59.4,68.8,60.1,66.1,60.1z
									 M30.3,39.6l29.2,16.9c3.6,2.1,9.5,2.1,13.1,0l23.7-13.7l0,0c1.6-0.9,2.4-2,2.4-3.2s-0.9-2.3-2.4-3.2L66.1,18.9L30.3,39.6z
									 M96.8,43.7L96.8,43.7L96.8,43.7z"/>
							</g>
							<path class="st2" d="M59,65.1c-0.2,0-0.3,0-0.5-0.1L37.2,52.7c-0.5-0.3-0.6-0.9-0.4-1.4c0.3-0.5,0.9-0.6,1.4-0.4l21.3,12.3
								c0.5,0.3,0.6,0.9,0.4,1.4C59.7,64.9,59.3,65.1,59,65.1z"/>
							<path class="st2" d="M66.1,66.8c-2.8,0-5.5-0.6-7.6-1.8l1-1.7c1.7,1,4.1,1.6,6.6,1.6V66.8z"/>
							<path class="st2" d="M37.7,46.1c-0.3,0-0.7-0.2-0.9-0.5c-0.3-0.5-0.1-1.1,0.4-1.4l8.5-4.9c0.5-0.3,1.1-0.1,1.4,0.4
								c0.3,0.5,0.1,1.1-0.4,1.4L38.2,46C38.1,46,37.9,46.1,37.7,46.1z"/>
							<path class="st2" d="M67,29.2c-0.3,0-0.7-0.2-0.9-0.5c-0.3-0.5-0.1-1.1,0.4-1.4l8.5-4.9c0.5-0.3,1.1-0.1,1.4,0.4
								s0.1,1.1-0.4,1.4L67.5,29C67.3,29.1,67.2,29.2,67,29.2z"/>
							<path class="st2" d="M67,29.2c-0.2,0-0.3,0-0.5-0.1l-9.4-5.5c-0.5-0.3-0.6-0.9-0.4-1.4c0.3-0.5,0.9-0.6,1.4-0.4l9.4,5.5
								c0.5,0.3,0.6,0.9,0.4,1.4C67.7,29,67.3,29.2,67,29.2z"/>
							<path class="st2" d="M46.2,41.1c-0.2,0-0.3,0-0.5-0.1l-9.4-5.5c-0.5-0.3-0.6-0.9-0.4-1.4c0.3-0.5,0.9-0.6,1.4-0.4l9.4,5.5
								c0.5,0.3,0.6,0.9,0.4,1.4C46.9,41,46.6,41.1,46.2,41.1z"/>
							<path class="st2" d="M37.7,52.8c-0.6,0-1-0.4-1-1v-6.7c0-0.6,0.4-1,1-1s1,0.4,1,1v6.7C38.7,52.3,38.3,52.8,37.7,52.8z"/>
							<path class="st1" d="M85.1,59c-0.6,0-1-0.4-1-1v-2.3c0-0.6,0.4-1,1-1s1,0.4,1,1V58C86.1,58.6,85.6,59,85.1,59z"/>
							<path class="st1" d="M74.6,65c-0.6,0-1-0.4-1-1v-2.3c0-0.6,0.4-1,1-1s1,0.4,1,1V64C75.6,64.6,75.2,65,74.6,65z"/>
							<path class="st1" d="M79.8,62c-0.6,0-1-0.4-1-1v-2.3c0-0.6,0.4-1,1-1s1,0.4,1,1V61C80.8,61.6,80.4,62,79.8,62z"/>
							<path class="st1" d="M90.1,56.1c-0.6,0-1-0.4-1-1v-2.3c0-0.6,0.4-1,1-1s1,0.4,1,1v2.3C91.1,55.7,90.6,56.1,90.1,56.1z"/>
							<path class="st1" d="M95.3,53.1c-0.6,0-1-0.4-1-1v-2.3c0-0.6,0.4-1,1-1s1,0.4,1,1v2.3C96.3,52.6,95.9,53.1,95.3,53.1z"/>
						</g>
						<g>
							<path class="st1" d="M99.7,26.8h-18l-15.6-9l-15.6,9H28.3v12.8L59,57.4c3.9,2.3,10.2,2.3,14.1,0l23.7-13.7
								c2-1.1,2.9-2.6,2.9-4.1l0,0C99.7,39.6,99.7,26.8,99.7,26.8z"/>
							<path class="st2" d="M66.1,60.1c-2.7,0-5.4-0.6-7.6-1.8L27.8,40.5c-0.3-0.2-0.5-0.5-0.5-0.9V26.8c0-0.6,0.4-1,1-1h21.9
								l15.4-8.9c0.3-0.2,0.7-0.2,1,0L82,25.8h17.7c0.6,0,1,0.4,1,1v12.8c0,1.9-1.2,3.7-3.4,4.9L73.6,58.2
								C71.5,59.4,68.8,60.1,66.1,60.1z M29.3,39l30.2,17.5c3.6,2.1,9.5,2.1,13.1,0l23.7-13.7c1.6-0.9,2.4-2,2.4-3.2V27.8h-17
								c-0.2,0-0.3,0-0.5-0.1L66.1,19L51,27.7c-0.2,0.1-0.3,0.1-0.5,0.1H29.3V39z"/>
							<path class="st2" d="M66.1,17.8l-0.2,0.1V59c2.6,0,5.3-0.5,7.3-1.7l23.7-13.7c2-1.1,2.9-2.6,2.9-4.1l0,0V26.8h-18L66.1,17.8z
								"/>
							<g>
								<path class="st3" d="M96.8,30.9L73.1,44.6c-3.9,2.3-10.2,2.3-14.1,0L28.3,26.8l0,0L66.1,5l30.7,17.7
									C100.7,25,100.7,28.6,96.8,30.9z"/>
								<path class="st2" d="M66.1,47.3c-2.7,0-5.4-0.6-7.6-1.8L27.8,27.7c-0.3-0.2-0.5-0.5-0.5-0.9s0.2-0.7,0.5-0.9L65.6,4.1
									c0.3-0.2,0.7-0.2,1,0l30.7,17.7c2.2,1.3,3.4,3,3.4,4.9s-1.2,3.7-3.4,4.9l0,0L73.6,45.4C71.5,46.7,68.8,47.3,66.1,47.3z
									 M30.3,26.8l29.2,16.9c3.6,2.1,9.5,2.1,13.1,0L96.3,30c1.6-0.9,2.4-2,2.4-3.2s-0.9-2.3-2.4-3.2L66.1,6.2L30.3,26.8z
									 M96.8,30.9L96.8,30.9L96.8,30.9z"/>
							</g>
							<path class="st2" d="M59,52.3c-0.2,0-0.3,0-0.5-0.1L37.2,39.9c-0.5-0.3-0.6-0.9-0.4-1.4c0.3-0.5,0.9-0.6,1.4-0.4l21.3,12.3
								c0.5,0.3,0.6,0.9,0.4,1.4C59.7,52.1,59.3,52.3,59,52.3z"/>
							<path class="st2" d="M66.1,54c-2.8,0-5.5-0.6-7.6-1.8l1-1.7c1.7,1,4.1,1.6,6.6,1.6V54z"/>
							<path class="st2" d="M37.7,33.3c-0.3,0-0.7-0.2-0.9-0.5c-0.3-0.5-0.1-1.1,0.4-1.4l8.5-4.9c0.5-0.3,1.1-0.1,1.4,0.4
								c0.3,0.5,0.1,1.1-0.4,1.4l-8.5,4.9C38.1,33.2,37.9,33.3,37.7,33.3z"/>
							<path class="st2" d="M67,16.4c-0.3,0-0.7-0.2-0.9-0.5c-0.3-0.5-0.1-1.1,0.4-1.4L75,9.6c0.5-0.3,1.1-0.1,1.4,0.4
								s0.1,1.1-0.4,1.4l-8.5,4.9C67.3,16.3,67.2,16.4,67,16.4z"/>
							<path class="st2" d="M67,16.4c-0.2,0-0.3,0-0.5-0.1l-9.4-5.5c-0.5-0.3-0.6-0.9-0.4-1.4C57,8.9,57.6,8.8,58.1,9l9.4,5.5
								c0.5,0.3,0.6,0.9,0.4,1.4C67.7,16.2,67.3,16.4,67,16.4z"/>
							<path class="st2" d="M46.2,28.4c-0.2,0-0.3,0-0.5-0.1l-9.4-5.5c-0.5-0.3-0.6-0.9-0.4-1.4c0.3-0.5,0.9-0.6,1.4-0.4l9.4,5.5
								c0.5,0.3,0.6,0.9,0.4,1.4C46.9,28.2,46.6,28.4,46.2,28.4z"/>
							<path class="st2" d="M37.7,40c-0.6,0-1-0.4-1-1v-6.7c0-0.6,0.4-1,1-1s1,0.4,1,1V39C38.7,39.5,38.3,40,37.7,40z"/>
							<path class="st1" d="M85.1,46.2c-0.6,0-1-0.4-1-1v-2.3c0-0.6,0.4-1,1-1s1,0.4,1,1v2.3C86.1,45.8,85.6,46.2,85.1,46.2z"/>
							<path class="st1" d="M74.6,52.2c-0.6,0-1-0.4-1-1V49c0-0.6,0.4-1,1-1s1,0.4,1,1v2.3C75.6,51.8,75.2,52.2,74.6,52.2z"/>
							<path class="st1" d="M79.8,49.2c-0.6,0-1-0.4-1-1v-2.3c0-0.6,0.4-1,1-1s1,0.4,1,1v2.3C80.8,48.8,80.4,49.2,79.8,49.2z"/>
							<path class="st1" d="M90.1,43.3c-0.6,0-1-0.4-1-1V40c0-0.6,0.4-1,1-1s1,0.4,1,1v2.3C91.1,42.9,90.6,43.3,90.1,43.3z"/>
							<path class="st1" d="M95.3,40.3c-0.6,0-1-0.4-1-1V37c0-0.6,0.4-1,1-1s1,0.4,1,1v2.3C96.3,39.9,95.9,40.3,95.3,40.3z"/>
						</g>
					</g>
					<path class="st4" d="M66.1,124c-2.8,0-5.5-0.6-7.6-1.8l-30.7-17.7c-0.3-0.2-0.5-0.5-0.5-0.9V26.8c0-0.4,0.2-0.7,0.5-0.9
						L65.6,4.1c0.3-0.2,0.7-0.2,1,0l30.7,17.7c2.2,1.3,3.4,3,3.4,4.9l0,0v76.7c0,0.7-0.2,1.4-0.5,2.1c-0.2,0.4-0.5,0.9-0.9,1.3
						s-0.8,0.8-1.3,1.1c-0.2,0.2-0.5,0.3-0.8,0.5l-23.7,13.7c-0.3,0.2-0.6,0.3-0.8,0.4l-0.1,0.1c-0.3,0.1-0.5,0.2-0.7,0.3h-0.1
						c-0.3,0.1-0.5,0.2-0.8,0.3h-0.1c-0.3,0.1-0.6,0.2-0.9,0.2c-0.4,0.1-0.7,0.1-1,0.2l0,0C68,123.9,67,124,66.1,124z M29.3,103
						l30.2,17.5c2.4,1.4,5.9,1.9,9.1,1.3l0,0c0.3,0,0.5-0.1,0.8-0.2s0.6-0.1,0.8-0.2h0.1c0.2-0.1,0.4-0.1,0.6-0.2H71
						c0.2-0.1,0.4-0.2,0.6-0.3h0.1c0.3-0.1,0.5-0.3,0.8-0.4l23.7-13.7c0.2-0.1,0.4-0.3,0.6-0.4c0.4-0.3,0.7-0.5,0.9-0.8
						c0.2-0.3,0.4-0.5,0.6-0.8c0.2-0.4,0.3-0.8,0.3-1.2V26.9l0,0c0-1.2-0.9-2.3-2.4-3.2L66.1,6.2L29.3,27.4V103z M100.7,26.8
						L100.7,26.8L100.7,26.8z"/>
				</g>
			</g>
		</g>
	</g>
	<g>
		<rect class="st0" width="128" height="128"/>
	</g>
</g>
</svg>
