<?xml version="1.0" encoding="utf-8"?>
<!-- Generator: Adobe Illustrator 24.1.0, SVG Export Plug-In . SVG Version: 6.00 Build 0)  -->
<svg version="1.1" id="Layer_1" xmlns="http://www.w3.org/2000/svg" xmlns:xlink="http://www.w3.org/1999/xlink" x="0px" y="0px"
	 viewBox="0 0 128 128" style="enable-background:new 0 0 128 128;" xml:space="preserve">
<style type="text/css">
	.st0{fill:none;}
	.st1{fill:#E9EBDF;}
	.st2{fill:#4D9987;}
	.st3{fill:#FFFFFF;}
	.st4{fill:#0E352C;}
</style>
<g id="Layer_1_1_">
</g>
<g>
	<g id="Layer_2_1_">
		<g id="Objects_1_">
			<g>
				<g>
					<g>
						<rect x="4" y="4" class="st0" width="120" height="120"/>
						<rect x="4" y="4" class="st0" width="120" height="120"/>
					</g>
				</g>
				<g>
					<g>
						<g>
							<path class="st1" d="M99.6,89.6H79.7l-11.8-6.8c-2.1-1.2-5.6-1.2-7.7,0l-11.8,6.8h-20v12.8l0,0c0,0.8,0.5,1.6,1.6,2.2
								L60.2,122c2.1,1.2,5.6,1.2,7.7,0L98,104.7c1.1-0.6,1.6-1.4,1.6-2.2l0,0V89.6z"/>
							<path class="st2" d="M67.8,82.8c-1.1-0.6-2.4-0.9-3.8-0.9V123c1.4,0,2.8-0.3,3.8-0.9L98,104.7c1.1-0.6,1.6-1.4,1.6-2.2V89.6
								H79.7L67.8,82.8z"/>
							<g>
								<polyline class="st1" points="92,95.3 92,102.2 73.9,112.7 73.9,105.8 								"/>
							</g>
							<path class="st2" d="M64,124c-1.6,0-3.1-0.4-4.3-1.1l-30.2-17.4c-1.3-0.8-2.1-1.9-2.1-3.1V89.6c0-0.6,0.4-1,1-1h19.7
								l11.6-6.7c2.4-1.4,6.2-1.4,8.7,0L80,88.6h19.7c0.6,0,1,0.4,1,1v12.8c0,1.2-0.7,2.3-2.1,3.1l-30.2,17.4
								C67.1,123.7,65.6,124,64,124z M29.4,90.6v11.8c0,0.5,0.4,0.9,1.1,1.3l30.2,17.4c1.8,1,4.9,1,6.7,0l30.2-17.4
								c0.7-0.4,1.1-0.9,1.1-1.3V90.6h-19c-0.2,0-0.3,0-0.5-0.1l-11.8-6.8c-1.8-1-4.9-1-6.7,0l-11.8,6.8c-0.2,0.1-0.3,0.1-0.5,0.1
								H29.4z"/>
							<g>
								<path class="st3" d="M60.2,109.3L30,91.8c-2.1-1.2-2.1-3.2,0-4.4L60.2,70c2.1-1.2,5.6-1.2,7.7,0L98,87.4
									c2.1,1.2,2.1,3.2,0,4.4l-30.2,17.4C65.7,110.5,62.3,110.5,60.2,109.3z"/>
								<path class="st2" d="M64,111.2c-1.6,0-3.1-0.4-4.3-1.1l0,0L29.5,92.7c-1.3-0.8-2.1-1.9-2.1-3.1s0.7-2.3,2.1-3.1l30.2-17.4
									c2.4-1.4,6.2-1.4,8.7,0l30.2,17.4c1.3,0.8,2.1,1.9,2.1,3.1s-0.7,2.3-2.1,3.1l-30.2,17.4C67.1,110.8,65.6,111.2,64,111.2z
									 M64,70.1c-1.2,0-2.4,0.3-3.3,0.8L30.5,88.3c-0.7,0.4-1.1,0.9-1.1,1.3s0.4,0.9,1.1,1.3l30.2,17.4c1.8,1,4.9,1,6.7,0L97.5,91
									c0.7-0.4,1.1-0.9,1.1-1.3s-0.4-0.9-1.1-1.3L67.3,70.8C66.4,70.3,65.2,70.1,64,70.1z"/>
							</g>
							<path class="st2" d="M73.9,106.8c-0.2,0-0.3,0-0.5-0.1l-9.9-5.7c-0.3-0.2-0.5-0.5-0.5-0.9s0.2-0.7,0.5-0.9l18.1-10.5
								c0.3-0.2,0.7-0.2,1,0l9.9,5.7c0.5,0.3,0.6,0.9,0.4,1.4c-0.3,0.5-0.9,0.6-1.4,0.4l-9.4-5.4L66,100.1l8.4,4.8
								c0.5,0.3,0.6,0.9,0.4,1.4C74.5,106.6,74.2,106.8,73.9,106.8z"/>
							<path class="st2" d="M73.1,95.9c-0.2,0-0.3,0-0.5-0.1l-28-16.2c-0.5-0.3-0.6-0.9-0.4-1.4c0.3-0.5,0.9-0.6,1.4-0.4l28,16.2
								c0.5,0.3,0.6,0.9,0.4,1.4C73.8,95.7,73.4,95.9,73.1,95.9z"/>
							<path class="st2" d="M33.4,102.6c-0.6,0-1-0.4-1-1v-2.7c0-0.6,0.4-1,1-1s1,0.4,1,1v2.7C34.4,102.1,33.9,102.6,33.4,102.6z"/>
							<path class="st2" d="M44.5,109c-0.6,0-1-0.4-1-1v-2.7c0-0.6,0.4-1,1-1s1,0.4,1,1v2.7C45.5,108.5,45,109,44.5,109z"/>
							<path class="st2" d="M38.5,105.5c-0.6,0-1-0.4-1-1v-2.7c0-0.6,0.4-1,1-1s1,0.4,1,1v2.7C39.5,105.1,39.1,105.5,38.5,105.5z"/>
							<path class="st2" d="M56.8,116.1c-0.6,0-1-0.4-1-1v-2.7c0-0.6,0.4-1,1-1s1,0.4,1,1v2.7C57.8,115.6,57.3,116.1,56.8,116.1z"/>
							<path class="st2" d="M50.8,112.6c-0.6,0-1-0.4-1-1v-2.7c0-0.6,0.4-1,1-1s1,0.4,1,1v2.7C51.8,112.2,51.4,112.6,50.8,112.6z"/>
						</g>
						<g>
							<path class="st1" d="M99.6,76.8H79.7L67.8,70c-2.1-1.2-5.6-1.2-7.7,0l-11.8,6.8H28.4v12.8l0,0c0,0.8,0.5,1.6,1.6,2.2
								l30.2,17.4c2.1,1.2,5.6,1.2,7.7,0L98,91.8c1.1-0.6,1.6-1.4,1.6-2.2l0,0V76.8z"/>
							<path class="st2" d="M67.8,70c-1.1-0.6-2.4-0.9-3.8-0.9v41.1c1.4,0,2.8-0.3,3.8-0.9L98,91.8c1.1-0.6,1.6-1.4,1.6-2.2V76.8
								H79.7L67.8,70z"/>
							<g>
								<polyline class="st1" points="92,82.5 92,89.4 73.9,99.9 73.9,93 								"/>
							</g>
							<path class="st2" d="M64,111.2c-1.6,0-3.1-0.4-4.3-1.1L29.5,92.7c-1.3-0.8-2.1-1.9-2.1-3.1V76.8c0-0.6,0.4-1,1-1h19.7
								l11.6-6.7c2.4-1.4,6.2-1.4,8.7,0L80,75.8h19.7c0.6,0,1,0.4,1,1v12.8c0,1.2-0.7,2.3-2.1,3.1l-30.2,17.4
								C67.1,110.8,65.6,111.2,64,111.2z M29.4,77.8v11.8c0,0.5,0.4,0.9,1.1,1.3l30.2,17.4c1.8,1,4.9,1,6.7,0L97.5,91
								c0.7-0.4,1.1-0.9,1.1-1.3V77.8H79.7c-0.2,0-0.3,0-0.5-0.1l-11.8-6.8c-1.8-1-4.9-1-6.7,0l-11.8,6.8c-0.2,0.1-0.3,0.1-0.5,0.1
								H29.4z"/>
							<g>
								<path class="st3" d="M60.2,96.5L30,79c-2.1-1.2-2.1-3.2,0-4.4l30.2-17.4c2.1-1.2,5.6-1.2,7.7,0L98,74.6
									c2.1,1.2,2.1,3.2,0,4.4L67.8,96.5C65.7,97.7,62.3,97.7,60.2,96.5z"/>
								<path class="st2" d="M64,98.4c-1.6,0-3.1-0.4-4.3-1.1L29.5,79.9c-1.3-0.8-2.1-1.9-2.1-3.1s0.7-2.3,2.1-3.1l30.2-17.4
									c2.4-1.4,6.2-1.4,8.7,0l30.2,17.4c1.3,0.8,2.1,1.9,2.1,3.1s-0.7,2.3-2.1,3.1L68.3,97.3C67.1,98,65.6,98.4,64,98.4z M64,57.3
									c-1.2,0-2.4,0.3-3.3,0.8L30.5,75.5c-0.7,0.4-1.1,0.9-1.1,1.3s0.4,0.9,1.1,1.3l30.2,17.4l0,0c1.8,1,4.9,1,6.7,0l30.2-17.4
									c0.7-0.4,1.1-0.9,1.1-1.3s-0.4-0.9-1.1-1.3L67.3,58C66.4,57.5,65.2,57.3,64,57.3z"/>
							</g>
							<path class="st2" d="M73.9,94c-0.2,0-0.3,0-0.5-0.1l-9.9-5.7C63.2,88,63,87.6,63,87.3s0.2-0.7,0.5-0.9l18.1-10.5
								c0.3-0.2,0.7-0.2,1,0l9.9,5.7c0.5,0.3,0.6,0.9,0.4,1.4c-0.3,0.5-0.9,0.6-1.4,0.4L82.1,78L66,87.3l8.4,4.8
								c0.5,0.3,0.6,0.9,0.4,1.4C74.5,93.8,74.2,94,73.9,94z"/>
							<path class="st2" d="M73.1,83.1c-0.2,0-0.3,0-0.5-0.1l-28-16.2c-0.5-0.3-0.6-0.9-0.4-1.4c0.3-0.5,0.9-0.6,1.4-0.4l28,16.2
								c0.5,0.3,0.6,0.9,0.4,1.4C73.8,82.9,73.4,83.1,73.1,83.1z"/>
							<path class="st2" d="M33.4,89.7c-0.6,0-1-0.4-1-1V86c0-0.6,0.4-1,1-1s1,0.4,1,1v2.7C34.4,89.3,33.9,89.7,33.4,89.7z"/>
							<path class="st2" d="M44.5,96.1c-0.6,0-1-0.4-1-1v-2.7c0-0.6,0.4-1,1-1s1,0.4,1,1v2.7C45.5,95.7,45,96.1,44.5,96.1z"/>
							<path class="st2" d="M38.5,92.7c-0.6,0-1-0.4-1-1V89c0-0.6,0.4-1,1-1s1,0.4,1,1v2.7C39.5,92.3,39.1,92.7,38.5,92.7z"/>
							<path class="st2" d="M56.8,103.2c-0.6,0-1-0.4-1-1v-2.7c0-0.6,0.4-1,1-1s1,0.4,1,1v2.7C57.8,102.8,57.3,103.2,56.8,103.2z"/>
							<path class="st2" d="M50.8,99.8c-0.6,0-1-0.4-1-1v-2.7c0-0.6,0.4-1,1-1s1,0.4,1,1v2.7C51.8,99.4,51.4,99.8,50.8,99.8z"/>
						</g>
						<g>
							<path class="st1" d="M99.6,64H79.7l-11.8-6.8c-2.1-1.2-5.6-1.2-7.7,0L48.3,64H28.4v12.8l0,0c0,0.8,0.5,1.6,1.6,2.2l30.2,17.4
								c2.1,1.2,5.6,1.2,7.7,0L98,79c1.1-0.6,1.6-1.4,1.6-2.2l0,0V64z"/>
							<path class="st2" d="M67.8,57.2c-1.1-0.6-2.4-0.9-3.8-0.9v41.1c1.4,0,2.8-0.3,3.8-0.9L98,79c1.1-0.6,1.6-1.4,1.6-2.2V64H79.7
								L67.8,57.2z"/>
							<g>
								<polyline class="st1" points="92,69.7 92,76.6 73.9,87.1 73.9,80.2 								"/>
							</g>
							<path class="st2" d="M64,98.4c-1.6,0-3.1-0.4-4.3-1.1L29.5,79.9c-1.3-0.8-2.1-1.9-2.1-3.1V64c0-0.6,0.4-1,1-1h19.7l11.6-6.7
								c2.4-1.4,6.2-1.4,8.7,0L79.9,63h19.7c0.6,0,1,0.4,1,1v12.8c0,1.2-0.7,2.3-2.1,3.1L68.3,97.3C67.1,98,65.6,98.4,64,98.4z
								 M29.4,65v11.8c0,0.5,0.4,0.9,1.1,1.3l30.2,17.4c1.8,1,4.9,1,6.7,0l30.2-17.4c0.7-0.4,1.1-0.9,1.1-1.3V65h-19
								c-0.2,0-0.3,0-0.5-0.1L67.3,58c-1.8-1-4.9-1-6.7,0l-11.8,6.8C48.7,65,48.5,65,48.3,65H29.4z"/>
							<g>
								<path class="st3" d="M60.2,83.6L30,66.2c-2.1-1.2-2.1-3.2,0-4.4l30.2-17.4c2.1-1.2,5.6-1.2,7.7,0L98,61.8
									c2.1,1.2,2.1,3.2,0,4.4L67.8,83.6C65.7,84.9,62.3,84.9,60.2,83.6z"/>
								<path class="st2" d="M64,85.6c-1.6,0-3.1-0.4-4.3-1.1l0,0L29.5,67.1c-1.3-0.8-2.1-1.9-2.1-3.1c0-1.2,0.7-2.3,2.1-3.1
									l30.2-17.4c2.4-1.4,6.2-1.4,8.7,0l30.2,17.4c1.3,0.8,2.1,1.9,2.1,3.1s-0.7,2.3-2.1,3.1L68.3,84.5
									C67.1,85.2,65.6,85.6,64,85.6z M64,44.4c-1.2,0-2.4,0.3-3.3,0.8L30.5,62.7c-0.7,0.4-1.1,0.9-1.1,1.3c0,0.5,0.4,0.9,1.1,1.3
									l30.2,17.4l0,0c1.8,1,4.9,1,6.7,0l30.2-17.4c0.7-0.4,1.1-0.9,1.1-1.3c0-0.5-0.4-0.9-1.1-1.3L67.3,45.2
									C66.4,44.7,65.2,44.4,64,44.4z"/>
							</g>
							<path class="st2" d="M73.9,81.2c-0.2,0-0.3,0-0.5-0.1l-9.9-5.7c-0.3-0.2-0.5-0.5-0.5-0.9s0.2-0.7,0.5-0.9l18.1-10.5
								c0.3-0.2,0.7-0.2,1,0l9.9,5.7c0.5,0.3,0.6,0.9,0.4,1.4c-0.3,0.5-0.9,0.6-1.4,0.4l-9.4-5.4L66,74.5l8.4,4.8
								c0.5,0.3,0.6,0.9,0.4,1.4C74.5,81,74.2,81.2,73.9,81.2z"/>
							<path class="st2" d="M73.1,70.2c-0.2,0-0.3,0-0.5-0.1l-28-16.2c-0.5-0.3-0.6-0.9-0.4-1.4c0.3-0.5,0.9-0.6,1.4-0.4l28,16.2
								c0.5,0.3,0.6,0.9,0.4,1.4C73.8,70.1,73.4,70.2,73.1,70.2z"/>
							<path class="st2" d="M33.4,76.9c-0.6,0-1-0.4-1-1v-2.7c0-0.6,0.4-1,1-1s1,0.4,1,1v2.7C34.4,76.5,33.9,76.9,33.4,76.9z"/>
							<path class="st2" d="M44.5,83.3c-0.6,0-1-0.4-1-1v-2.7c0-0.6,0.4-1,1-1s1,0.4,1,1v2.7C45.5,82.9,45,83.3,44.5,83.3z"/>
							<path class="st2" d="M38.5,79.9c-0.6,0-1-0.4-1-1v-2.7c0-0.6,0.4-1,1-1s1,0.4,1,1v2.7C39.5,79.5,39.1,79.9,38.5,79.9z"/>
							<path class="st2" d="M56.8,90.4c-0.6,0-1-0.4-1-1v-2.7c0-0.6,0.4-1,1-1s1,0.4,1,1v2.7C57.8,90,57.3,90.4,56.8,90.4z"/>
							<path class="st2" d="M50.8,87c-0.6,0-1-0.4-1-1v-2.7c0-0.6,0.4-1,1-1s1,0.4,1,1V86C51.8,86.6,51.4,87,50.8,87z"/>
						</g>
						<g>
							<path class="st1" d="M99.6,51.2H79.7l-11.8-6.8c-2.1-1.2-5.6-1.2-7.7,0l-11.8,6.8h-20V64l0,0c0,0.8,0.5,1.6,1.6,2.2
								l30.2,17.4c2.1,1.2,5.6,1.2,7.7,0L98,66.2c1.1-0.6,1.6-1.4,1.6-2.2l0,0V51.2z"/>
							<path class="st2" d="M67.8,44.4c-1.1-0.6-2.4-0.9-3.8-0.9v41.1c1.4,0,2.8-0.3,3.8-0.9L98,66.2c1.1-0.6,1.6-1.4,1.6-2.2V51.2
								H79.7L67.8,44.4z"/>
							<g>
								<polyline class="st1" points="92,56.9 92,63.8 73.9,74.3 73.9,67.4 								"/>
							</g>
							<path class="st2" d="M64,85.6c-1.6,0-3.1-0.4-4.3-1.1L29.5,67.1c-1.3-0.8-2.1-1.9-2.1-3.1V51.2c0-0.6,0.4-1,1-1h19.7
								l11.6-6.7c2.4-1.4,6.2-1.4,8.7,0L80,50.2h19.7c0.6,0,1,0.4,1,1V64c0,1.2-0.7,2.3-2.1,3.1L68.3,84.5
								C67.1,85.2,65.6,85.6,64,85.6z M29.4,52.2V64c0,0.5,0.4,0.9,1.1,1.3l30.2,17.4c1.8,1,4.9,1,6.7,0l30.2-17.4
								c0.7-0.4,1.1-0.9,1.1-1.3V52.2h-19c-0.2,0-0.3,0-0.5-0.1l-11.8-6.8c-1.8-1-4.9-1-6.7,0l-11.8,6.8c-0.2,0.1-0.3,0.1-0.5,0.1
								H29.4z"/>
							<g>
								<path class="st3" d="M60.2,70.8L30,53.4c-2.1-1.2-2.1-3.2,0-4.4l30.2-17.4c2.1-1.2,5.6-1.2,7.7,0L98,49
									c2.1,1.2,2.1,3.2,0,4.4L67.8,70.8C65.7,72.1,62.3,72.1,60.2,70.8z"/>
								<path class="st2" d="M64,72.7c-1.6,0-3.1-0.4-4.3-1.1l0,0L29.5,54.3c-1.3-0.8-2.1-1.9-2.1-3.1s0.7-2.3,2.1-3.1l30.2-17.4
									c2.4-1.4,6.2-1.4,8.7,0l30.2,17.4c1.3,0.8,2.1,1.9,2.1,3.1s-0.7,2.3-2.1,3.1L68.3,71.7C67.1,72.4,65.6,72.7,64,72.7z
									 M64,31.6c-1.2,0-2.4,0.3-3.3,0.8L30.5,49.8c-0.7,0.4-1.1,0.9-1.1,1.3s0.4,0.9,1.1,1.3L60.7,70l0,0c1.8,1,4.9,1,6.7,0
									l30.2-17.4c0.7-0.4,1.1-0.9,1.1-1.3s-0.4-0.9-1.1-1.3L67.3,32.4C66.4,31.9,65.2,31.6,64,31.6z"/>
							</g>
							<path class="st2" d="M73.9,68.4c-0.2,0-0.3,0-0.5-0.1l-9.9-5.7C63.2,62.4,63,62,63,61.7s0.2-0.7,0.5-0.9l18.1-10.5
								c0.3-0.2,0.7-0.2,1,0l9.9,5.7c0.5,0.3,0.6,0.9,0.4,1.4c-0.3,0.5-0.9,0.6-1.4,0.4l-9.4-5.4L66,61.7l8.4,4.8
								c0.5,0.3,0.6,0.9,0.4,1.4C74.5,68.2,74.2,68.4,73.9,68.4z"/>
							<path class="st2" d="M73.1,57.4c-0.2,0-0.3,0-0.5-0.1l-28-16.2c-0.5-0.3-0.6-0.9-0.4-1.4c0.3-0.5,0.9-0.6,1.4-0.4l28,16.2
								c0.5,0.3,0.6,0.9,0.4,1.4C73.8,57.2,73.4,57.4,73.1,57.4z"/>
							<path class="st2" d="M33.4,64.1c-0.6,0-1-0.4-1-1v-2.7c0-0.6,0.4-1,1-1s1,0.4,1,1v2.7C34.4,63.7,33.9,64.1,33.4,64.1z"/>
							<path class="st2" d="M44.5,70.5c-0.6,0-1-0.4-1-1v-2.7c0-0.6,0.4-1,1-1s1,0.4,1,1v2.7C45.5,70.1,45,70.5,44.5,70.5z"/>
							<path class="st2" d="M38.5,67.1c-0.6,0-1-0.4-1-1v-2.7c0-0.6,0.4-1,1-1s1,0.4,1,1v2.7C39.5,66.6,39.1,67.1,38.5,67.1z"/>
							<path class="st2" d="M56.8,77.6c-0.6,0-1-0.4-1-1v-2.7c0-0.6,0.4-1,1-1s1,0.4,1,1v2.7C57.8,77.2,57.3,77.6,56.8,77.6z"/>
							<path class="st2" d="M50.8,74.2c-0.6,0-1-0.4-1-1v-2.7c0-0.6,0.4-1,1-1s1,0.4,1,1v2.7C51.8,73.7,51.4,74.2,50.8,74.2z"/>
						</g>
						<g>
							<path class="st1" d="M99.6,38.4H79.7l-11.8-6.8c-2.1-1.2-5.6-1.2-7.7,0l-11.8,6.8h-20v12.8l0,0c0,0.8,0.5,1.6,1.6,2.2
								l30.2,17.4c2.1,1.2,5.6,1.2,7.7,0L98,53.4c1.1-0.6,1.6-1.4,1.6-2.2l0,0V38.4z"/>
							<path class="st2" d="M67.8,31.5c-1.1-0.6-2.4-0.9-3.8-0.9v41.1c1.4,0,2.8-0.3,3.8-0.9L98,53.4c1.1-0.6,1.6-1.4,1.6-2.2V38.4
								H79.7L67.8,31.5z"/>
							<g>
								<polyline class="st1" points="92,44.1 92,51 73.9,61.4 73.9,54.5 								"/>
							</g>
							<path class="st2" d="M64,72.7c-1.6,0-3.1-0.4-4.3-1.1L29.5,54.3c-1.3-0.8-2.1-1.9-2.1-3.1V38.4c0-0.6,0.4-1,1-1h19.7
								l11.6-6.7c2.4-1.4,6.2-1.4,8.7,0L80,37.4h19.7c0.6,0,1,0.4,1,1v12.8c0,1.2-0.7,2.3-2.1,3.1L68.3,71.7
								C67.1,72.4,65.6,72.7,64,72.7z M29.4,39.4v11.8c0,0.5,0.4,0.9,1.1,1.3L60.7,70c1.8,1,4.9,1,6.7,0l30.2-17.4
								c0.7-0.4,1.1-0.9,1.1-1.3V39.4h-19c-0.2,0-0.3,0-0.5-0.1l-11.8-6.8c-1.8-1-4.9-1-6.7,0l-11.8,6.8c-0.2,0.1-0.3,0.1-0.5,0.1
								H29.4z"/>
							<g>
								<path class="st3" d="M60.2,58L30,40.6c-2.1-1.2-2.1-3.2,0-4.4l30.2-17.4c2.1-1.2,5.6-1.2,7.7,0L98,36.2
									c2.1,1.2,2.1,3.2,0,4.4L67.8,58C65.7,59.2,62.3,59.2,60.2,58z"/>
								<path class="st2" d="M64,59.9c-1.6,0-3.1-0.4-4.3-1.1l0,0L29.5,41.5c-1.3-0.8-2.1-1.9-2.1-3.1s0.7-2.3,2.1-3.1l30.2-17.4
									c2.4-1.4,6.2-1.4,8.7,0l30.2,17.4c1.3,0.8,2.1,1.9,2.1,3.1s-0.7,2.3-2.1,3.1L68.3,58.9C67.1,59.6,65.6,59.9,64,59.9z
									 M64,18.8c-1.2,0-2.4,0.3-3.3,0.8L30.5,37c-0.7,0.4-1.1,0.9-1.1,1.3s0.4,0.9,1.1,1.3L60.7,57c1.8,1,4.9,1,6.7,0l30.2-17.4
									c0.7-0.4,1.1-0.9,1.1-1.3s-0.4-0.9-1.1-1.3L67.3,19.6C66.4,19.1,65.2,18.8,64,18.8z"/>
							</g>
							<path class="st2" d="M73.9,55.5c-0.2,0-0.3,0-0.5-0.1l-9.9-5.7c-0.3-0.2-0.5-0.5-0.5-0.9s0.2-0.7,0.5-0.9l18.1-10.5
								c0.3-0.2,0.7-0.2,1,0l9.9,5.7c0.5,0.3,0.6,0.9,0.4,1.4c-0.3,0.5-0.9,0.6-1.4,0.4l-9.4-5.4L66,48.8l8.4,4.8
								c0.5,0.3,0.6,0.9,0.4,1.4C74.5,55.4,74.2,55.5,73.9,55.5z"/>
							<path class="st2" d="M73.1,44.6c-0.2,0-0.3,0-0.5-0.1l-28-16.2c-0.5-0.3-0.6-0.9-0.4-1.4c0.3-0.5,0.9-0.6,1.4-0.4l28,16.2
								c0.5,0.3,0.6,0.9,0.4,1.4C73.8,44.4,73.4,44.6,73.1,44.6z"/>
							<path class="st2" d="M33.4,51.3c-0.6,0-1-0.4-1-1v-2.7c0-0.6,0.4-1,1-1s1,0.4,1,1v2.7C34.4,50.8,33.9,51.3,33.4,51.3z"/>
							<path class="st2" d="M44.5,57.7c-0.6,0-1-0.4-1-1V54c0-0.6,0.4-1,1-1s1,0.4,1,1v2.7C45.5,57.3,45,57.7,44.5,57.7z"/>
							<path class="st2" d="M38.5,54.3c-0.6,0-1-0.4-1-1v-2.7c0-0.6,0.4-1,1-1s1,0.4,1,1v2.7C39.5,53.8,39.1,54.3,38.5,54.3z"/>
							<path class="st2" d="M56.8,64.8c-0.6,0-1-0.4-1-1v-2.7c0-0.6,0.4-1,1-1s1,0.4,1,1v2.7C57.8,64.4,57.3,64.8,56.8,64.8z"/>
							<path class="st2" d="M50.8,61.4c-0.6,0-1-0.4-1-1v-2.7c0-0.6,0.4-1,1-1s1,0.4,1,1v2.7C51.8,60.9,51.4,61.4,50.8,61.4z"/>
						</g>
						<g>
							<path class="st1" d="M99.6,25.6H79.7l-11.8-6.8c-2.1-1.2-5.6-1.2-7.7,0l-11.8,6.8h-20v12.8l0,0c0,0.8,0.5,1.6,1.6,2.2
								L60.2,58c2.1,1.2,5.6,1.2,7.7,0L98,40.6c1.1-0.6,1.6-1.4,1.6-2.2l0,0V25.6z"/>
							<path class="st2" d="M67.8,18.7c-1.1-0.6-2.4-0.9-3.8-0.9v41.1c1.4,0,2.8-0.3,3.8-0.9L98,40.6c1.1-0.6,1.6-1.4,1.6-2.2V25.6
								H79.7L67.8,18.7z"/>
							<g>
								<polyline class="st1" points="92,31.3 92,38.2 73.9,48.6 73.9,41.7 								"/>
							</g>
							<path class="st2" d="M64,59.9c-1.6,0-3.1-0.4-4.3-1.1L29.5,41.5c-1.3-0.8-2.1-1.9-2.1-3.1V25.6c0-0.6,0.4-1,1-1h19.7
								l11.6-6.7c2.4-1.4,6.2-1.4,8.7,0L80,24.6h19.7c0.6,0,1,0.4,1,1v12.8c0,1.2-0.7,2.3-2.1,3.1L68.3,58.9
								C67.1,59.6,65.6,59.9,64,59.9z M29.4,26.6v11.8c0,0.5,0.4,0.9,1.1,1.3l30.2,17.4c1.8,1,4.9,1,6.7,0l30.2-17.4
								c0.7-0.4,1.1-0.9,1.1-1.3V26.6h-19c-0.2,0-0.3,0-0.5-0.1l-11.8-6.8c-1.8-1-4.9-1-6.7,0l-11.8,6.8c-0.2,0.1-0.3,0.1-0.5,0.1
								H29.4z"/>
							<g>
								<path class="st3" d="M60.2,45.2L30,27.8c-2.1-1.2-2.1-3.2,0-4.4L60.2,5.9c2.1-1.2,5.6-1.2,7.7,0L98,23.3
									c2.1,1.2,2.1,3.2,0,4.4L67.8,45.2C65.7,46.4,62.3,46.4,60.2,45.2z"/>
								<path class="st2" d="M64,47.1c-1.6,0-3.1-0.4-4.3-1.1L29.5,28.6c-1.3-0.8-2.1-1.9-2.1-3.1s0.7-2.3,2.1-3.1L59.7,5.1
									c2.4-1.4,6.2-1.4,8.7,0l30.2,17.4c1.3,0.8,2.1,1.9,2.1,3.1s-0.7,2.3-2.1,3.1L68.3,46.1C67.1,46.8,65.6,47.1,64,47.1z M64,6
									c-1.2,0-2.4,0.3-3.3,0.8L30.5,24.2c-0.7,0.4-1.1,0.9-1.1,1.3s0.4,0.9,1.1,1.3l30.2,17.4l0,0c1.8,1,4.9,1,6.7,0l30.2-17.4
									c0.7-0.4,1.1-0.9,1.1-1.3s-0.4-0.9-1.1-1.3L67.3,6.8C66.4,6.3,65.2,6,64,6z"/>
							</g>
							<path class="st2" d="M73.9,42.7c-0.2,0-0.3,0-0.5-0.1l-9.9-5.7C63.2,36.7,63,36.4,63,36s0.2-0.7,0.5-0.9l18.1-10.5
								c0.3-0.2,0.7-0.2,1,0l9.9,5.7c0.5,0.3,0.6,0.9,0.4,1.4c-0.3,0.5-0.9,0.6-1.4,0.4l-9.4-5.4L66,36l8.4,4.8
								c0.5,0.3,0.6,0.9,0.4,1.4C74.5,42.5,74.2,42.7,73.9,42.7z"/>
							<path class="st2" d="M73.1,31.8c-0.2,0-0.3,0-0.5-0.1l-28-16.2c-0.5-0.3-0.6-0.9-0.4-1.4c0.3-0.5,0.9-0.6,1.4-0.4l28,16.2
								c0.5,0.3,0.6,0.9,0.4,1.4C73.8,31.6,73.4,31.8,73.1,31.8z"/>
							<path class="st2" d="M33.4,38.5c-0.6,0-1-0.4-1-1v-2.7c0-0.6,0.4-1,1-1s1,0.4,1,1v2.7C34.4,38,33.9,38.5,33.4,38.5z"/>
							<path class="st2" d="M44.5,44.9c-0.6,0-1-0.4-1-1v-2.7c0-0.6,0.4-1,1-1s1,0.4,1,1v2.7C45.5,44.4,45,44.9,44.5,44.9z"/>
							<path class="st2" d="M38.5,41.5c-0.6,0-1-0.4-1-1v-2.7c0-0.6,0.4-1,1-1s1,0.4,1,1v2.7C39.5,41,39.1,41.5,38.5,41.5z"/>
							<path class="st2" d="M56.8,52c-0.6,0-1-0.4-1-1v-2.7c0-0.6,0.4-1,1-1s1,0.4,1,1V51C57.8,51.5,57.3,52,56.8,52z"/>
							<path class="st2" d="M50.8,48.6c-0.6,0-1-0.4-1-1v-2.7c0-0.6,0.4-1,1-1s1,0.4,1,1v2.7C51.8,48.1,51.4,48.6,50.8,48.6z"/>
						</g>
					</g>
					<path class="st4" d="M64,124c-1.6,0-3.2-0.4-4.3-1.1l-30.2-17.4c-1.3-0.8-2.1-1.9-2.1-3.1V25.6c0-1.2,0.7-2.3,2.1-3.1L59.7,5.1
						c2.4-1.4,6.2-1.4,8.7,0l30.2,17.4c1.3,0.8,2.1,1.9,2.1,3.1v76.9c0,0.6-0.2,1.2-0.6,1.8c-0.4,0.5-0.9,1-1.5,1.3L68.4,123
						C67.2,123.6,65.6,124,64,124z M64,6c-1.2,0-2.4,0.3-3.3,0.8L30.5,24.2c-0.7,0.4-1.1,0.9-1.1,1.3v76.9c0,0.5,0.4,0.9,1.1,1.3
						l30.2,17.4c1.7,1,4.9,1,6.7,0l30.2-17.4c0.4-0.2,0.7-0.5,0.9-0.7c0.1-0.2,0.2-0.4,0.2-0.6V25.6c0-0.5-0.4-0.9-1.1-1.3L67.3,6.8
						C66.4,6.3,65.2,6,64,6z"/>
				</g>
			</g>
		</g>
	</g>
	<g>
		<rect class="st0" width="128" height="128"/>
	</g>
</g>
</svg>
