<?xml version="1.0" encoding="utf-8"?>
<!-- Generator: Adobe Illustrator 24.1.0, SVG Export Plug-In . SVG Version: 6.00 Build 0)  -->
<svg version="1.1" id="Layer_1" xmlns="http://www.w3.org/2000/svg" xmlns:xlink="http://www.w3.org/1999/xlink" x="0px" y="0px"
	 viewBox="0 0 128 128" style="enable-background:new 0 0 128 128;" xml:space="preserve">
<style type="text/css">
	.st0{fill:none;}
	.st1{fill:#FFFFFF;}
	.st2{fill:#27ae60;}
	.st3{fill:#C4D7D3;}
	.st4{fill:#185849;}
</style>
<g id="Layer_1_1_">
</g>
<g>
	<g id="Layer_2_1_">
		<g id="Objects_1_">
			<g>
				<g>
					<g>
						<rect x="4" y="4" class="st0" width="120" height="120"/>
						<rect x="4" y="4" class="st0" width="120" height="120"/>
					</g>
				</g>
				<g>
					<g>
						<g>
							<g>
								<path class="st1" d="M99.5,93.1l-29.5,17c-2.9,0-5.1,0-8,0L28.5,90.8L66,69.2l33.5,19.3C99.5,90.6,99.5,91.1,99.5,93.1z"/>
								<path class="st2" d="M70,111.2h-8c-0.2,0-0.3,0-0.5-0.1L28,91.7c-0.3-0.2-0.5-0.5-0.5-0.9s0.2-0.7,0.5-0.9l37.5-21.6
									c0.3-0.2,0.7-0.2,1,0L100,87.7c0.3,0.2,0.5,0.5,0.5,0.9v4.6c0,0.4-0.2,0.7-0.5,0.9l-29.5,17C70.3,111.1,70.2,111.2,70,111.2
									z M62.3,109.2h7.5l28.8-16.6v-3.5L66,70.3L30.5,90.8L62.3,109.2z M99.5,93.1L99.5,93.1L99.5,93.1z"/>
							</g>
							<g>
								<polygon class="st2" points="99.5,93.1 99.5,106 70,123 70,110.2 								"/>
								<path class="st2" d="M70,124c-0.2,0-0.3,0-0.5-0.1c-0.3-0.2-0.5-0.5-0.5-0.9v-12.8c0-0.4,0.2-0.7,0.5-0.9l29.5-17
									c0.3-0.2,0.7-0.2,1,0s0.5,0.5,0.5,0.9V106c0,0.4-0.2,0.7-0.5,0.9l-29.5,17C70.3,124,70.2,124,70,124z M71,110.7v10.5
									l27.5-15.9V94.9L71,110.7z"/>
							</g>
							<g>
								<rect x="62" y="110.2" class="st3" width="8" height="12.8"/>
								<path class="st2" d="M70,124h-8c-0.6,0-1-0.4-1-1v-12.8c0-0.6,0.4-1,1-1h8c0.6,0,1,0.4,1,1V123C71,123.6,70.6,124,70,124z
									 M63,122h6v-10.8h-6V122z"/>
							</g>
							<g>
								<polygon class="st3" points="62,110.2 62,123 28.5,103.7 28.5,90.8 								"/>
								<path class="st2" d="M62,124c-0.2,0-0.3,0-0.5-0.1L28,104.5c-0.3-0.2-0.5-0.5-0.5-0.9V90.8c0-0.4,0.2-0.7,0.5-0.9
									c0.3-0.2,0.7-0.2,1,0l33.5,19.3c0.3,0.2,0.5,0.5,0.5,0.9V123c0,0.4-0.2,0.7-0.5,0.9C62.3,124,62.2,124,62,124z M29.5,103.1
									L61,121.3v-10.5L29.5,92.6V103.1z"/>
							</g>
							<path class="st2" d="M54.1,85c-0.2,0-0.3,0-0.5-0.1L46.8,81c-0.5-0.3-0.6-0.9-0.4-1.4c0.3-0.5,0.9-0.6,1.4-0.4l6.8,3.9
								c0.5,0.3,0.6,0.9,0.4,1.4C54.8,84.8,54.4,85,54.1,85z"/>
							<g>
								<polygon class="st3" points="72.9,94.8 57,93.7 71,85.6 								"/>
								<path class="st3" d="M72.9,95.3L72.9,95.3L57,94.2c-0.2,0-0.4-0.2-0.5-0.4c0-0.2,0-0.4,0.2-0.5l14-8.1
									c0.1-0.1,0.3-0.1,0.5,0c0.1,0.1,0.3,0.2,0.3,0.4l1.9,9.2c0,0.2,0,0.3-0.1,0.4C73.2,95.2,73,95.3,72.9,95.3z M58.7,93.3
									l13.6,0.9l-1.6-7.8L58.7,93.3z"/>
							</g>
							<g>
								<path class="st3" d="M94.7,103.3c-0.3,0-0.5-0.1-0.7-0.3c-0.2-0.2-0.3-0.4-0.3-0.7c0-0.3,0.1-0.5,0.3-0.7
									c0.4-0.4,1.1-0.4,1.4,0c0.2,0.2,0.3,0.4,0.3,0.7c0,0.3-0.1,0.5-0.3,0.7S94.9,103.3,94.7,103.3z"/>
								<path class="st3" d="M78.9,111.4c-0.3-0.5-0.1-1.1,0.4-1.4l0,0c0.5-0.3,1.1-0.1,1.4,0.4l0,0c0.3,0.5,0.1,1.1-0.4,1.4l0,0
									c-0.2,0.1-0.3,0.1-0.5,0.1l0,0C79.4,111.9,79.1,111.8,78.9,111.4z M83.9,108.6c-0.3-0.5-0.1-1.1,0.4-1.4l0,0
									c0.5-0.3,1.1-0.1,1.4,0.4l0,0c0.3,0.5,0.1,1.1-0.4,1.4l0,0c-0.2,0.1-0.3,0.1-0.5,0.1l0,0C84.4,109.1,84.1,108.9,83.9,108.6z
									 M88.8,105.7c-0.3-0.5-0.1-1.1,0.4-1.4l0,0c0.5-0.3,1.1-0.1,1.4,0.4l0,0c0.3,0.5,0.1,1.1-0.4,1.4l0,0
									c-0.2,0.1-0.3,0.1-0.5,0.1l0,0C89.4,106.2,89,106,88.8,105.7z"/>
								<path class="st3" d="M74.8,114.8c-0.1,0-0.3,0-0.4-0.1s-0.2-0.1-0.3-0.2c-0.2-0.2-0.3-0.4-0.3-0.7c0-0.1,0-0.3,0.1-0.4
									c0-0.1,0.1-0.2,0.2-0.3c0.1-0.1,0.2-0.2,0.3-0.2c0.4-0.1,0.8-0.1,1.1,0.2c0.1,0.1,0.2,0.2,0.2,0.3c0.1,0.1,0.1,0.2,0.1,0.4
									c0,0.3-0.1,0.5-0.3,0.7C75.3,114.7,75.1,114.8,74.8,114.8z"/>
							</g>
							<path class="st2" d="M45.3,109.1c-0.6,0-1-0.4-1-1v-2.3c0-0.6,0.4-1,1-1s1,0.4,1,1v2.3C46.3,108.6,45.8,109.1,45.3,109.1z"/>
						</g>
						<g>
							<g>
								<path class="st1" d="M99.5,80.3L70,97.3c-2.9,0-5.1,0-8,0L28.5,78L66,56.3l33.5,19.3C99.5,77.7,99.5,78.2,99.5,80.3z"/>
								<path class="st2" d="M70,98.3h-8c-0.2,0-0.3,0-0.5-0.1L28,78.9c-0.3-0.2-0.5-0.5-0.5-0.9s0.2-0.7,0.5-0.9l37.5-21.6
									c0.3-0.2,0.7-0.2,1,0L100,74.8c0.3,0.2,0.5,0.5,0.5,0.9v4.6c0,0.4-0.2,0.7-0.5,0.9l-29.5,17C70.3,98.3,70.2,98.3,70,98.3z
									 M62.3,96.3h7.5l28.8-16.6v-3.5L66,57.5L30.5,78L62.3,96.3z M99.5,80.3L99.5,80.3L99.5,80.3z"/>
							</g>
							<g>
								<polygon class="st2" points="99.5,80.3 99.5,93.1 70,110.2 70,97.3 								"/>
								<path class="st2" d="M70,111.2c-0.2,0-0.3,0-0.5-0.1c-0.3-0.2-0.5-0.5-0.5-0.9V97.3c0-0.4,0.2-0.7,0.5-0.9l29.5-17
									c0.3-0.2,0.7-0.2,1,0s0.5,0.5,0.5,0.9v12.8c0,0.4-0.2,0.7-0.5,0.9l-29.5,17C70.3,111.1,70.2,111.2,70,111.2z M71,97.9v10.5
									l27.5-15.9V82L71,97.9z"/>
							</g>
							<g>
								<rect x="62" y="97.3" class="st3" width="8" height="12.8"/>
								<path class="st2" d="M70,111.2h-8c-0.6,0-1-0.4-1-1V97.3c0-0.6,0.4-1,1-1h8c0.6,0,1,0.4,1,1v12.8
									C71,110.7,70.6,111.2,70,111.2z M63,109.2h6V98.3h-6V109.2z"/>
							</g>
							<g>
								<polygon class="st3" points="62,97.3 62,110.2 28.5,90.8 28.5,78 								"/>
								<path class="st2" d="M62,111.2c-0.2,0-0.3,0-0.5-0.1L28,91.7c-0.3-0.2-0.5-0.5-0.5-0.9V78c0-0.4,0.2-0.7,0.5-0.9
									c0.3-0.2,0.7-0.2,1,0l33.5,19.3c0.3,0.2,0.5,0.5,0.5,0.9v12.8c0,0.4-0.2,0.7-0.5,0.9C62.3,111.1,62.2,111.2,62,111.2z
									 M29.5,90.3L61,108.4V97.9L29.5,79.7V90.3z"/>
							</g>
							<path class="st2" d="M54.1,72.1c-0.2,0-0.3,0-0.5-0.1l-6.8-4c-0.5-0.3-0.6-0.9-0.4-1.4c0.3-0.5,0.9-0.6,1.4-0.4l6.8,3.9
								c0.5,0.3,0.6,0.9,0.4,1.4C54.8,71.9,54.4,72.1,54.1,72.1z"/>
							<g>
								<polygon class="st3" points="72.9,82 57,80.9 71,72.8 								"/>
								<path class="st3" d="M72.9,82.5L72.9,82.5L57,81.4c-0.2,0-0.4-0.2-0.5-0.4c0-0.2,0-0.4,0.2-0.5l14-8.1
									c0.1-0.1,0.3-0.1,0.5,0c0.1,0.1,0.3,0.2,0.3,0.4l1.9,9.2c0,0.2,0,0.3-0.1,0.4C73.2,82.4,73,82.5,72.9,82.5z M58.7,80.5
									l13.6,0.9l-1.6-7.8L58.7,80.5z"/>
							</g>
							<g>
								<path class="st3" d="M94.7,90.5c-0.3,0-0.5-0.1-0.7-0.3c-0.1-0.1-0.2-0.2-0.2-0.3c0-0.1-0.1-0.2-0.1-0.4
									c0-0.3,0.1-0.5,0.3-0.7c0.4-0.4,1-0.4,1.4,0c0.2,0.2,0.3,0.4,0.3,0.7c0,0.3-0.1,0.5-0.3,0.7C95.2,90.4,94.9,90.5,94.7,90.5z
									"/>
								<path class="st3" d="M78.9,98.6c-0.3-0.5-0.1-1.1,0.4-1.4l0,0c0.5-0.3,1.1-0.1,1.4,0.4l0,0c0.3,0.5,0.1,1.1-0.4,1.4l0,0
									c-0.2,0.1-0.3,0.1-0.5,0.1l0,0C79.4,99.1,79.1,98.9,78.9,98.6z M83.9,95.7c-0.3-0.5-0.1-1.1,0.4-1.4l0,0
									c0.5-0.3,1.1-0.1,1.4,0.4l0,0c0.3,0.5,0.1,1.1-0.4,1.4l0,0c-0.2,0.1-0.3,0.1-0.5,0.1l0,0C84.4,96.2,84.1,96,83.9,95.7z
									 M88.8,92.9c-0.3-0.5-0.1-1.1,0.4-1.4l0,0c0.5-0.3,1.1-0.1,1.4,0.4l0,0c0.3,0.5,0.1,1.1-0.4,1.4l0,0
									c-0.2,0.1-0.3,0.1-0.5,0.1l0,0C89.4,93.4,89,93.2,88.8,92.9z"/>
								<path class="st3" d="M74.8,102c-0.1,0-0.3,0-0.4-0.1c-0.1,0-0.2-0.1-0.3-0.2c-0.1-0.1-0.2-0.2-0.2-0.3
									c0-0.1-0.1-0.2-0.1-0.4c0-0.3,0.1-0.5,0.3-0.7c0.1-0.1,0.2-0.2,0.3-0.2c0.2-0.1,0.5-0.1,0.8,0c0.1,0.1,0.2,0.1,0.3,0.2
									c0.2,0.2,0.3,0.5,0.3,0.7c0,0.1,0,0.3-0.1,0.4c0,0.1-0.1,0.2-0.2,0.3C75.3,101.8,75.1,102,74.8,102z"/>
							</g>
							<path class="st2" d="M45.3,96.2c-0.6,0-1-0.4-1-1v-2.3c0-0.6,0.4-1,1-1s1,0.4,1,1v2.3C46.3,95.8,45.8,96.2,45.3,96.2z"/>
						</g>
						<g>
							<g>
								<path class="st1" d="M99.5,67.5L70,84.5c-2.9,0-5.1,0-8,0L28.5,65.2L66,43.5l33.5,19.3C99.5,64.9,99.5,65.4,99.5,67.5z"/>
								<path class="st2" d="M70,85.5h-8c-0.2,0-0.3,0-0.5-0.1L28,66c-0.3-0.2-0.5-0.5-0.5-0.9s0.2-0.7,0.5-0.9l37.5-21.6
									c0.3-0.2,0.7-0.2,1,0L100,62c0.3,0.2,0.5,0.5,0.5,0.9v4.6c0,0.4-0.2,0.7-0.5,0.9l-29.5,17C70.3,85.4,70.2,85.5,70,85.5z
									 M62.3,83.5h7.5l28.8-16.6v-3.5L66,44.7L30.5,65.2L62.3,83.5z M99.5,67.5L99.5,67.5L99.5,67.5z"/>
							</g>
							<g>
								<polygon class="st2" points="99.5,67.5 99.5,80.3 70,97.3 70,84.5 								"/>
								<path class="st2" d="M70,98.3c-0.2,0-0.3,0-0.5-0.1C69.2,98,69,97.7,69,97.3V84.5c0-0.4,0.2-0.7,0.5-0.9l29.5-17
									c0.3-0.2,0.7-0.2,1,0s0.5,0.5,0.5,0.9v12.8c0,0.4-0.2,0.7-0.5,0.9l-29.5,17C70.3,98.3,70.2,98.3,70,98.3z M71,85.1v10.5
									l27.5-15.9V69.2L71,85.1z"/>
							</g>
							<g>
								<rect x="62" y="84.5" class="st3" width="8" height="12.8"/>
								<path class="st2" d="M70,98.3h-8c-0.6,0-1-0.4-1-1V84.5c0-0.6,0.4-1,1-1h8c0.6,0,1,0.4,1,1v12.8C71,97.9,70.6,98.3,70,98.3z
									 M63,96.3h6V85.5h-6V96.3z"/>
							</g>
							<g>
								<polygon class="st3" points="62,84.5 62,97.3 28.5,78 28.5,65.2 								"/>
								<path class="st2" d="M62,98.3c-0.2,0-0.3,0-0.5-0.1L28,78.9c-0.3-0.2-0.5-0.5-0.5-0.9V65.2c0-0.4,0.2-0.7,0.5-0.9
									c0.3-0.2,0.7-0.2,1,0l33.5,19.3c0.3,0.2,0.5,0.5,0.5,0.9v12.8c0,0.4-0.2,0.7-0.5,0.9C62.3,98.3,62.2,98.3,62,98.3z
									 M29.5,77.4L61,95.6V85.1L29.5,66.9V77.4z"/>
							</g>
							<path class="st2" d="M54.1,59.3c-0.2,0-0.3,0-0.5-0.1l-6.8-3.9c-0.5-0.3-0.6-0.9-0.4-1.4c0.3-0.5,0.9-0.6,1.4-0.4l6.8,3.9
								c0.5,0.3,0.6,0.9,0.4,1.4C54.8,59.1,54.4,59.3,54.1,59.3z"/>
							<g>
								<polygon class="st3" points="72.9,69.1 57,68 71,60 								"/>
								<path class="st3" d="M72.9,69.6L72.9,69.6L57,68.5c-0.2,0-0.4-0.2-0.5-0.4c0-0.2,0-0.4,0.2-0.5l14-8.1
									c0.1-0.1,0.3-0.1,0.5,0c0.1,0.1,0.3,0.2,0.3,0.4l1.9,9.2c0,0.2,0,0.3-0.1,0.4C73.2,69.6,73,69.6,72.9,69.6z M58.7,67.7
									l13.6,0.9l-1.6-7.8L58.7,67.7z"/>
							</g>
							<g>
								<path class="st3" d="M94.7,77.7c-0.3,0-0.5-0.1-0.7-0.3c-0.2-0.2-0.3-0.4-0.3-0.7c0-0.3,0.1-0.5,0.3-0.7
									c0.4-0.4,1.1-0.4,1.4,0c0.2,0.2,0.3,0.4,0.3,0.7s-0.1,0.5-0.3,0.7C95.2,77.6,94.9,77.7,94.7,77.7z"/>
								<path class="st3" d="M78.9,85.8c-0.3-0.5-0.1-1.1,0.4-1.4l0,0c0.5-0.3,1.1-0.1,1.4,0.4l0,0c0.3,0.5,0.1,1.1-0.4,1.4l0,0
									c-0.2,0.1-0.3,0.1-0.5,0.1l0,0C79.4,86.3,79.1,86.1,78.9,85.8z M83.9,82.9c-0.3-0.5-0.1-1.1,0.4-1.4l0,0
									c0.5-0.3,1.1-0.1,1.4,0.4l0,0c0.3,0.5,0.1,1.1-0.4,1.4l0,0c-0.2,0.1-0.3,0.1-0.5,0.1l0,0C84.4,83.4,84.1,83.2,83.9,82.9z
									 M88.8,80c-0.3-0.5-0.1-1.1,0.4-1.4l0,0c0.5-0.3,1.1-0.1,1.4,0.4l0,0c0.3,0.5,0.1,1.1-0.4,1.4l0,0c-0.2,0.1-0.3,0.1-0.5,0.1
									l0,0C89.4,80.5,89,80.3,88.8,80z"/>
								<path class="st3" d="M74.8,89.1c-0.1,0-0.3,0-0.4-0.1s-0.2-0.1-0.3-0.2c0-0.1-0.1-0.1-0.1-0.2s-0.1-0.1-0.1-0.2
									s0-0.1-0.1-0.2c0-0.1,0-0.1,0-0.2s0-0.1,0-0.2s0-0.1,0.1-0.2c0-0.1,0-0.1,0.1-0.2c0-0.1,0.1-0.1,0.1-0.2
									c0.1-0.1,0.2-0.2,0.3-0.2c0.4-0.2,0.8-0.1,1.1,0.2c0,0,0.1,0.1,0.1,0.2c0,0,0.1,0.1,0.1,0.2s0.1,0.1,0.1,0.2s0,0.1,0,0.2
									s0,0.1,0,0.2s0,0.1-0.1,0.2c0,0.1,0,0.1-0.1,0.2c0,0.1-0.1,0.1-0.1,0.2C75.3,89,75.1,89.1,74.8,89.1z"/>
							</g>
							<path class="st2" d="M45.3,83.4c-0.6,0-1-0.4-1-1v-2.3c0-0.6,0.4-1,1-1s1,0.4,1,1v2.3C46.3,83,45.8,83.4,45.3,83.4z"/>
						</g>
						<g>
							<g>
								<path class="st1" d="M99.5,54.6L70,71.7c-2.9,0-5.1,0-8,0L28.5,52.3L66,30.7L99.5,50C99.5,52.1,99.5,52.6,99.5,54.6z"/>
								<path class="st2" d="M70,72.7h-8c-0.2,0-0.3,0-0.5-0.1L28,53.2c-0.3-0.2-0.5-0.5-0.5-0.9s0.2-0.7,0.5-0.9l37.5-21.6
									c0.3-0.2,0.7-0.2,1,0L100,49.1c0.3,0.2,0.5,0.5,0.5,0.9v4.6c0,0.4-0.2,0.7-0.5,0.9l-29.5,17C70.3,72.6,70.2,72.7,70,72.7z
									 M62.3,70.7h7.5l28.8-16.6v-3.5L66,31.8L30.5,52.3L62.3,70.7z M99.5,54.6L99.5,54.6L99.5,54.6z"/>
							</g>
							<g>
								<polygon class="st2" points="99.5,54.6 99.5,67.5 70,84.5 70,71.7 								"/>
								<path class="st2" d="M70,85.5c-0.2,0-0.3,0-0.5-0.1c-0.3-0.2-0.5-0.5-0.5-0.9V71.7c0-0.4,0.2-0.7,0.5-0.9l29.5-17
									c0.3-0.2,0.7-0.2,1,0s0.5,0.5,0.5,0.9v12.8c0,0.4-0.2,0.7-0.5,0.9l-29.5,17C70.3,85.4,70.2,85.5,70,85.5z M71,72.2v10.5
									l27.5-15.9V56.4L71,72.2z"/>
							</g>
							<g>
								<rect x="62" y="71.7" class="st3" width="8" height="12.8"/>
								<path class="st2" d="M70,85.5h-8c-0.6,0-1-0.4-1-1V71.7c0-0.6,0.4-1,1-1h8c0.6,0,1,0.4,1,1v12.8C71,85,70.6,85.5,70,85.5z
									 M63,83.5h6V72.7h-6V83.5z"/>
							</g>
							<g>
								<polygon class="st3" points="62,71.7 62,84.5 28.5,65.2 28.5,52.3 								"/>
								<path class="st2" d="M62,85.5c-0.2,0-0.3,0-0.5-0.1L28,66c-0.3-0.2-0.5-0.5-0.5-0.9V52.3c0-0.4,0.2-0.7,0.5-0.9s0.7-0.2,1,0
									l33.5,19.3c0.3,0.2,0.5,0.5,0.5,0.9v12.8c0,0.4-0.2,0.7-0.5,0.9C62.3,85.4,62.2,85.5,62,85.5z M29.5,64.6L61,82.8V72.2
									L29.5,54V64.6z"/>
							</g>
							<path class="st2" d="M54.1,46.4c-0.2,0-0.3,0-0.5-0.1l-6.8-3.9c-0.5-0.3-0.6-0.9-0.4-1.4c0.3-0.5,0.9-0.6,1.4-0.4l6.8,3.9
								c0.5,0.3,0.6,0.9,0.4,1.4C54.8,46.3,54.4,46.4,54.1,46.4z"/>
							<g>
								<polygon class="st3" points="72.9,56.3 57,55.2 71,47.1 								"/>
								<path class="st3" d="M72.9,56.8L72.9,56.8L57,55.7c-0.2,0-0.4-0.2-0.5-0.4c0-0.2,0-0.4,0.2-0.5l14-8.1
									c0.1-0.1,0.3-0.1,0.5,0c0.1,0.1,0.3,0.2,0.3,0.4l1.9,9.2c0,0.2,0,0.3-0.1,0.4C73.2,56.7,73,56.8,72.9,56.8z M58.7,54.8
									l13.6,0.9l-1.6-7.8L58.7,54.8z"/>
							</g>
							<g>
								<path class="st3" d="M94.7,64.8c-0.3,0-0.5-0.1-0.7-0.3c-0.2-0.2-0.3-0.4-0.3-0.7c0-0.1,0-0.3,0.1-0.4
									c0.1-0.1,0.1-0.2,0.2-0.3c0.4-0.4,1-0.4,1.4,0c0.2,0.2,0.3,0.4,0.3,0.7s-0.1,0.5-0.3,0.7C95.2,64.7,94.9,64.8,94.7,64.8z"/>
								<path class="st3" d="M78.9,72.9c-0.3-0.5-0.1-1.1,0.4-1.4l0,0c0.5-0.3,1.1-0.1,1.4,0.4l0,0c0.3,0.5,0.1,1.1-0.4,1.4l0,0
									c-0.2,0.1-0.3,0.1-0.5,0.1l0,0C79.4,73.4,79.1,73.2,78.9,72.9z M83.9,70.1c-0.3-0.5-0.1-1.1,0.4-1.4l0,0
									c0.5-0.3,1.1-0.1,1.4,0.4l0,0c0.3,0.5,0.1,1.1-0.4,1.4l0,0c-0.2,0.1-0.3,0.1-0.5,0.1l0,0C84.4,70.6,84.1,70.4,83.9,70.1z
									 M88.8,67.2c-0.3-0.5-0.1-1.1,0.4-1.4l0,0c0.5-0.3,1.1-0.1,1.4,0.4l0,0c0.3,0.5,0.1,1.1-0.4,1.4l0,0
									c-0.2,0.1-0.3,0.1-0.5,0.1l0,0C89.4,67.7,89,67.5,88.8,67.2z"/>
								<path class="st3" d="M74.8,76.3c-0.1,0-0.3,0-0.4-0.1s-0.2-0.1-0.3-0.2c-0.2-0.2-0.3-0.4-0.3-0.7c0-0.3,0.1-0.5,0.3-0.7
									c0.1-0.1,0.2-0.2,0.3-0.2c0.4-0.1,0.8-0.1,1.1,0.2c0.2,0.2,0.3,0.4,0.3,0.7c0,0.3-0.1,0.5-0.3,0.7
									C75.3,76.2,75.1,76.3,74.8,76.3z"/>
							</g>
							<path class="st2" d="M45.3,70.6c-0.6,0-1-0.4-1-1v-2.3c0-0.6,0.4-1,1-1s1,0.4,1,1v2.3C46.3,70.1,45.8,70.6,45.3,70.6z"/>
						</g>
						<g>
							<g>
								<path class="st1" d="M99.5,41.8L70,58.8c-2.9,0-5.1,0-8,0L28.5,39.5L66,17.8l33.5,19.3C99.5,39.2,99.5,39.7,99.5,41.8z"/>
								<path class="st2" d="M70,59.8h-8c-0.2,0-0.3,0-0.5-0.1L28,40.3c-0.3-0.2-0.5-0.5-0.5-0.9s0.2-0.7,0.5-0.9L65.5,17
									c0.3-0.2,0.7-0.2,1,0L100,36.3c0.3,0.2,0.5,0.5,0.5,0.9v4.6c0,0.4-0.2,0.7-0.5,0.9l-29.5,17C70.3,59.8,70.2,59.8,70,59.8z
									 M62.3,57.8h7.5l28.8-16.6v-3.5L66,19L30.5,39.5L62.3,57.8z M99.5,41.8L99.5,41.8L99.5,41.8z"/>
							</g>
							<g>
								<polygon class="st2" points="99.5,41.8 99.5,54.6 70,71.7 70,58.8 								"/>
								<path class="st2" d="M70,72.7c-0.2,0-0.3,0-0.5-0.1C69.2,72.3,69,72,69,71.7V58.8c0-0.4,0.2-0.7,0.5-0.9l29.5-17
									c0.3-0.2,0.7-0.2,1,0s0.5,0.5,0.5,0.9v12.8c0,0.4-0.2,0.7-0.5,0.9l-29.5,17C70.3,72.6,70.2,72.7,70,72.7z M71,59.4v10.5
									L98.5,54V43.5L71,59.4z"/>
							</g>
							<g>
								<rect x="62" y="58.8" class="st3" width="8" height="12.8"/>
								<path class="st2" d="M70,72.7h-8c-0.6,0-1-0.4-1-1V58.8c0-0.6,0.4-1,1-1h8c0.6,0,1,0.4,1,1v12.8C71,72.2,70.6,72.7,70,72.7z
									 M63,70.7h6V59.8h-6V70.7z"/>
							</g>
							<g>
								<polygon class="st3" points="62,58.8 62,71.7 28.5,52.3 28.5,39.5 								"/>
								<path class="st2" d="M62,72.7c-0.2,0-0.3,0-0.5-0.1L28,53.2c-0.3-0.2-0.5-0.5-0.5-0.9V39.5c0-0.4,0.2-0.7,0.5-0.9
									s0.7-0.2,1,0l33.5,19.3c0.3,0.2,0.5,0.5,0.5,0.9v12.8c0,0.4-0.2,0.7-0.5,0.9C62.3,72.6,62.2,72.7,62,72.7z M29.5,51.7
									L61,69.9V59.4L29.5,41.2V51.7z"/>
							</g>
							<path class="st2" d="M54.1,33.6c-0.2,0-0.3,0-0.5-0.1l-6.8-3.9c-0.5-0.3-0.6-0.9-0.4-1.4c0.3-0.5,0.9-0.6,1.4-0.4l6.8,3.9
								c0.5,0.3,0.6,0.9,0.4,1.4C54.8,33.4,54.4,33.6,54.1,33.6z"/>
							<g>
								<polygon class="st3" points="72.9,43.5 57,42.4 71,34.3 								"/>
								<path class="st3" d="M72.9,44L72.9,44L57,42.9c-0.2,0-0.4-0.2-0.5-0.4c0-0.2,0-0.4,0.2-0.5l14-8.1c0.1-0.1,0.3-0.1,0.5,0
									c0.1,0.1,0.3,0.2,0.3,0.4l1.9,9.2c0,0.2,0,0.3-0.1,0.4C73.2,43.9,73,44,72.9,44z M58.7,42l13.6,0.9l-1.6-7.8L58.7,42z"/>
							</g>
							<g>
								<path class="st3" d="M94.7,52c-0.3,0-0.5-0.1-0.7-0.3c-0.1-0.1-0.2-0.2-0.2-0.3s-0.1-0.2-0.1-0.4c0-0.3,0.1-0.5,0.3-0.7
									c0.4-0.4,1.1-0.4,1.4,0c0.2,0.2,0.3,0.4,0.3,0.7s-0.1,0.5-0.3,0.7C95.2,51.9,94.9,52,94.7,52z"/>
								<path class="st3" d="M78.9,60.1c-0.3-0.5-0.1-1.1,0.4-1.4l0,0c0.5-0.3,1.1-0.1,1.4,0.4l0,0c0.3,0.5,0.1,1.1-0.4,1.4l0,0
									c-0.2,0.1-0.3,0.1-0.5,0.1l0,0C79.4,60.6,79.1,60.4,78.9,60.1z M83.9,57.2c-0.3-0.5-0.1-1.1,0.4-1.4l0,0
									c0.5-0.3,1.1-0.1,1.4,0.4l0,0c0.3,0.5,0.1,1.1-0.4,1.4l0,0c-0.2,0.1-0.3,0.1-0.5,0.1l0,0C84.4,57.7,84.1,57.5,83.9,57.2z
									 M88.8,54.4c-0.3-0.5-0.1-1.1,0.4-1.4l0,0c0.5-0.3,1.1-0.1,1.4,0.4l0,0c0.3,0.5,0.1,1.1-0.4,1.4l0,0
									c-0.2,0.1-0.3,0.1-0.5,0.1l0,0C89.4,54.9,89,54.7,88.8,54.4z"/>
								<path class="st3" d="M74.8,63.4c-0.1,0-0.3,0-0.4-0.1c-0.1,0-0.2-0.1-0.3-0.2c-0.2-0.2-0.3-0.4-0.3-0.7c0-0.1,0-0.3,0.1-0.4
									c0-0.1,0.1-0.2,0.2-0.3s0.2-0.2,0.3-0.2c0.4-0.2,0.8-0.1,1.1,0.2c0.1,0.1,0.2,0.2,0.2,0.3c0.1,0.1,0.1,0.2,0.1,0.4
									c0,0.3-0.1,0.5-0.3,0.7C75.3,63.3,75.1,63.4,74.8,63.4z"/>
							</g>
							<path class="st2" d="M45.3,57.7c-0.6,0-1-0.4-1-1v-2.3c0-0.6,0.4-1,1-1s1,0.4,1,1v2.3C46.3,57.3,45.8,57.7,45.3,57.7z"/>
						</g>
						<g>
							<g>
								<path class="st1" d="M99.5,41.8L70,58.8c-2.9,0-5.1,0-8,0L28.5,39.5L66,17.8l33.5,19.3C99.5,39.2,99.5,39.7,99.5,41.8z"/>
								<path class="st2" d="M70,59.8h-8c-0.2,0-0.3,0-0.5-0.1L28,40.3c-0.3-0.2-0.5-0.5-0.5-0.9s0.2-0.7,0.5-0.9L65.5,17
									c0.3-0.2,0.7-0.2,1,0L100,36.3c0.3,0.2,0.5,0.5,0.5,0.9v4.6c0,0.4-0.2,0.7-0.5,0.9l-29.5,17C70.3,59.8,70.2,59.8,70,59.8z
									 M62.3,57.8h7.5l28.8-16.6v-3.5L66,19L30.5,39.5L62.3,57.8z M99.5,41.8L99.5,41.8L99.5,41.8z"/>
							</g>
							<g>
								<polygon class="st2" points="99.5,41.8 99.5,54.6 70,71.7 70,58.8 								"/>
								<path class="st2" d="M70,72.7c-0.2,0-0.3,0-0.5-0.1C69.2,72.3,69,72,69,71.7V58.8c0-0.4,0.2-0.7,0.5-0.9l29.5-17
									c0.3-0.2,0.7-0.2,1,0s0.5,0.5,0.5,0.9v12.8c0,0.4-0.2,0.7-0.5,0.9l-29.5,17C70.3,72.6,70.2,72.7,70,72.7z M71,59.4v10.5
									L98.5,54V43.5L71,59.4z"/>
							</g>
							<g>
								<rect x="62" y="58.8" class="st3" width="8" height="12.8"/>
								<path class="st2" d="M70,72.7h-8c-0.6,0-1-0.4-1-1V58.8c0-0.6,0.4-1,1-1h8c0.6,0,1,0.4,1,1v12.8C71,72.2,70.6,72.7,70,72.7z
									 M63,70.7h6V59.8h-6V70.7z"/>
							</g>
							<g>
								<polygon class="st3" points="62,58.8 62,71.7 28.5,52.3 28.5,39.5 								"/>
								<path class="st2" d="M62,72.7c-0.2,0-0.3,0-0.5-0.1L28,53.2c-0.3-0.2-0.5-0.5-0.5-0.9V39.5c0-0.4,0.2-0.7,0.5-0.9
									s0.7-0.2,1,0l33.5,19.3c0.3,0.2,0.5,0.5,0.5,0.9v12.8c0,0.4-0.2,0.7-0.5,0.9C62.3,72.6,62.2,72.7,62,72.7z M29.5,51.7
									L61,69.9V59.4L29.5,41.2V51.7z"/>
							</g>
							<path class="st2" d="M54.1,33.6c-0.2,0-0.3,0-0.5-0.1l-6.8-3.9c-0.5-0.3-0.6-0.9-0.4-1.4c0.3-0.5,0.9-0.6,1.4-0.4l6.8,3.9
								c0.5,0.3,0.6,0.9,0.4,1.4C54.8,33.4,54.4,33.6,54.1,33.6z"/>
							<g>
								<polygon class="st3" points="72.9,43.5 57,42.4 71,34.3 								"/>
								<path class="st3" d="M72.9,44L72.9,44L57,42.9c-0.2,0-0.4-0.2-0.5-0.4c0-0.2,0-0.4,0.2-0.5l14-8.1c0.1-0.1,0.3-0.1,0.5,0
									c0.1,0.1,0.3,0.2,0.3,0.4l1.9,9.2c0,0.2,0,0.3-0.1,0.4C73.2,43.9,73,44,72.9,44z M58.7,42l13.6,0.9l-1.6-7.8L58.7,42z"/>
							</g>
							<g>
								<path class="st3" d="M94.7,52c-0.3,0-0.5-0.1-0.7-0.3c-0.1-0.1-0.2-0.2-0.2-0.3s-0.1-0.2-0.1-0.4c0-0.3,0.1-0.5,0.3-0.7
									c0.4-0.4,1.1-0.4,1.4,0c0.2,0.2,0.3,0.4,0.3,0.7s-0.1,0.5-0.3,0.7C95.2,51.9,94.9,52,94.7,52z"/>
								<path class="st3" d="M78.9,60.1c-0.3-0.5-0.1-1.1,0.4-1.4l0,0c0.5-0.3,1.1-0.1,1.4,0.4l0,0c0.3,0.5,0.1,1.1-0.4,1.4l0,0
									c-0.2,0.1-0.3,0.1-0.5,0.1l0,0C79.4,60.6,79.1,60.4,78.9,60.1z M83.9,57.2c-0.3-0.5-0.1-1.1,0.4-1.4l0,0
									c0.5-0.3,1.1-0.1,1.4,0.4l0,0c0.3,0.5,0.1,1.1-0.4,1.4l0,0c-0.2,0.1-0.3,0.1-0.5,0.1l0,0C84.4,57.7,84.1,57.5,83.9,57.2z
									 M88.8,54.4c-0.3-0.5-0.1-1.1,0.4-1.4l0,0c0.5-0.3,1.1-0.1,1.4,0.4l0,0c0.3,0.5,0.1,1.1-0.4,1.4l0,0
									c-0.2,0.1-0.3,0.1-0.5,0.1l0,0C89.4,54.9,89,54.7,88.8,54.4z"/>
								<path class="st3" d="M74.8,63.4c-0.1,0-0.3,0-0.4-0.1c-0.1,0-0.2-0.1-0.3-0.2c-0.2-0.2-0.3-0.4-0.3-0.7c0-0.1,0-0.3,0.1-0.4
									c0-0.1,0.1-0.2,0.2-0.3s0.2-0.2,0.3-0.2c0.4-0.2,0.8-0.1,1.1,0.2c0.1,0.1,0.2,0.2,0.2,0.3c0.1,0.1,0.1,0.2,0.1,0.4
									c0,0.3-0.1,0.5-0.3,0.7C75.3,63.3,75.1,63.4,74.8,63.4z"/>
							</g>
							<path class="st2" d="M45.3,57.7c-0.6,0-1-0.4-1-1v-2.3c0-0.6,0.4-1,1-1s1,0.4,1,1v2.3C46.3,57.3,45.8,57.7,45.3,57.7z"/>
						</g>
						<g>
							<g>
								<path class="st1" d="M99.5,29L70,46c-2.9,0-5.1,0-8,0L28.5,26.6L66,5l33.5,19.3C99.5,26.4,99.5,26.9,99.5,29z"/>
								<path class="st2" d="M70,47h-8c-0.2,0-0.3,0-0.5-0.1L28,27.5c-0.3-0.2-0.5-0.5-0.5-0.9s0.2-0.7,0.5-0.9L65.5,4.1
									c0.3-0.2,0.7-0.2,1,0L100,23.5c0.3,0.2,0.5,0.5,0.5,0.9V29c0,0.4-0.2,0.7-0.5,0.9l-29.5,17C70.3,46.9,70.2,47,70,47z
									 M62.3,45h7.5l28.8-16.6v-3.5L66,6.2L30.5,26.6L62.3,45z M99.5,29L99.5,29L99.5,29z"/>
							</g>
							<g>
								<polygon class="st2" points="99.5,29 99.5,41.8 70,58.8 70,46 								"/>
								<path class="st2" d="M70,59.8c-0.2,0-0.3,0-0.5-0.1c-0.3-0.2-0.5-0.5-0.5-0.9V46c0-0.4,0.2-0.7,0.5-0.9l29.5-17
									c0.3-0.2,0.7-0.2,1,0s0.5,0.5,0.5,0.9v12.8c0,0.4-0.2,0.7-0.5,0.9l-29.5,17C70.3,59.8,70.2,59.8,70,59.8z M71,46.6v10.5
									l27.5-15.9V30.7L71,46.6z"/>
							</g>
							<g>
								<rect x="62" y="46" class="st3" width="8" height="12.8"/>
								<path class="st2" d="M70,59.8h-8c-0.6,0-1-0.4-1-1V46c0-0.6,0.4-1,1-1h8c0.6,0,1,0.4,1,1v12.8C71,59.4,70.6,59.8,70,59.8z
									 M63,57.8h6V47h-6V57.8z"/>
							</g>
							<g>
								<polygon class="st3" points="62,46 62,58.8 28.5,39.5 28.5,26.6 								"/>
								<path class="st2" d="M62,59.8c-0.2,0-0.3,0-0.5-0.1L28,40.3c-0.3-0.2-0.5-0.5-0.5-0.9V26.6c0-0.4,0.2-0.7,0.5-0.9
									c0.3-0.2,0.7-0.2,1,0L62.5,45c0.3,0.2,0.5,0.5,0.5,0.9v12.8c0,0.4-0.2,0.7-0.5,0.9C62.3,59.8,62.2,59.8,62,59.8z M29.5,38.9
									L61,57.1V46.6L29.5,28.4V38.9z"/>
							</g>
							<path class="st2" d="M54.1,20.8c-0.2,0-0.3,0-0.5-0.1l-6.8-3.9c-0.5-0.3-0.6-0.9-0.4-1.4c0.3-0.5,0.9-0.6,1.4-0.4l6.8,3.9
								c0.5,0.3,0.6,0.9,0.4,1.4C54.8,20.6,54.4,20.8,54.1,20.8z"/>
							<g>
								<polygon class="st3" points="72.9,30.6 57,29.5 71,21.4 								"/>
								<path class="st3" d="M72.9,31.1L72.9,31.1L57,30c-0.2,0-0.4-0.2-0.5-0.4c0-0.2,0-0.4,0.2-0.5l14-8.1c0.1-0.1,0.3-0.1,0.5,0
									c0.1,0.1,0.3,0.2,0.3,0.4l1.9,9.2c0,0.2,0,0.3-0.1,0.4C73.2,31.1,73,31.1,72.9,31.1z M58.7,29.1L72.3,30l-1.6-7.8L58.7,29.1
									z"/>
							</g>
							<g>
								<path class="st3" d="M94.7,39.2c-0.3,0-0.5-0.1-0.7-0.3s-0.3-0.4-0.3-0.7c0-0.1,0-0.3,0.1-0.4c0.1-0.1,0.1-0.2,0.2-0.3
									c0.4-0.4,1-0.4,1.4,0c0.2,0.2,0.3,0.4,0.3,0.7s-0.1,0.5-0.3,0.7C95.2,39,94.9,39.2,94.7,39.2z"/>
								<path class="st3" d="M78.9,47.2c-0.3-0.5-0.1-1.1,0.4-1.4l0,0c0.5-0.3,1.1-0.1,1.4,0.4l0,0c0.3,0.5,0.1,1.1-0.4,1.4l0,0
									c-0.2,0.1-0.3,0.1-0.5,0.1l0,0C79.4,47.7,79.1,47.6,78.9,47.2z M83.9,44.4c-0.3-0.5-0.1-1.1,0.4-1.4l0,0
									c0.5-0.3,1.1-0.1,1.4,0.4l0,0c0.3,0.5,0.1,1.1-0.4,1.4l0,0c-0.2,0.1-0.3,0.1-0.5,0.1l0,0C84.4,44.9,84.1,44.7,83.9,44.4z
									 M88.8,41.5c-0.3-0.5-0.1-1.1,0.4-1.4l0,0c0.5-0.3,1.1-0.1,1.4,0.4l0,0c0.3,0.5,0.1,1.1-0.4,1.4l0,0C90,42,89.9,42,89.7,42
									l0,0C89.4,42,89,41.8,88.8,41.5z"/>
								<path class="st3" d="M74.8,50.6c-0.1,0-0.3,0-0.4-0.1s-0.2-0.1-0.3-0.2c0-0.1-0.1-0.1-0.1-0.2c0-0.1-0.1-0.1-0.1-0.2
									c0-0.1,0-0.1-0.1-0.2c0-0.1,0-0.1,0-0.2c0-0.1,0-0.1,0-0.2c0-0.1,0-0.1,0.1-0.2c0-0.1,0-0.1,0.1-0.2c0-0.1,0.1-0.1,0.1-0.2
									c0.1-0.1,0.2-0.2,0.3-0.2c0.4-0.2,0.8-0.1,1.1,0.2c0,0,0.1,0.1,0.1,0.2c0,0,0.1,0.1,0.1,0.2c0,0.1,0.1,0.1,0.1,0.2
									c0,0.1,0,0.1,0,0.2c0,0.1,0,0.1,0,0.2c0,0.1,0,0.1-0.1,0.2c0,0.1,0,0.1-0.1,0.2c0,0.1-0.1,0.1-0.1,0.2
									C75.3,50.5,75.1,50.6,74.8,50.6z"/>
							</g>
							<path class="st2" d="M45.3,44.9c-0.6,0-1-0.4-1-1v-2.3c0-0.6,0.4-1,1-1s1,0.4,1,1v2.3C46.3,44.4,45.8,44.9,45.3,44.9z"/>
						</g>
					</g>
					<path class="st4" d="M70,124h-8c-0.2,0-0.3,0-0.5-0.1L28,104.5c-0.3-0.2-0.5-0.5-0.5-0.9v-77c0-0.4,0.2-0.7,0.5-0.9L65.5,4.1
						c0.3-0.2,0.7-0.2,1,0L100,23.5c0.3,0.2,0.5,0.5,0.5,0.9V106c0,0.4-0.2,0.7-0.5,0.9l-29.5,17C70.3,124,70.2,124,70,124z
						 M62.3,122h7.5l28.8-16.6V24.9L66,6.2l-36.5,21v75.9L62.3,122z"/>
				</g>
			</g>
		</g>
	</g>
	<g>
		<rect class="st0" width="128" height="128"/>
	</g>
</g>
</svg>
