<?xml version="1.0" encoding="utf-8"?>
<!-- Generator: Adobe Illustrator 24.1.0, SVG Export Plug-In . SVG Version: 6.00 Build 0)  -->
<svg version="1.1" id="Layer_1" xmlns="http://www.w3.org/2000/svg" xmlns:xlink="http://www.w3.org/1999/xlink" x="0px" y="0px"
	 viewBox="0 0 128 128" style="enable-background:new 0 0 128 128;" xml:space="preserve">
<style type="text/css">
	.st0{fill:none;}
	.st1{fill:#FFFFFF;}
	.st2{fill:#4D9987;}
	.st3{fill:#E9EBDF;}
	.st4{fill:#0E352C;}
</style>
<g id="Layer_1_1_">
</g>
<g>
	<g id="Layer_2_1_">
		<g id="Objects_1_">
			<g>
				<g>
					<g>
						<rect x="4" y="4" class="st0" width="120" height="120"/>
						<rect x="4" y="4" class="st0" width="120" height="120"/>
					</g>
				</g>
				<g>
					<g>
						<g>
							<path class="st1" d="M99.5,92.1l-31.2,18c-3.3,0-5.2,0-8.5,0l-31.2-18c0-1.9,0-3,0-4.9l31.2-18c3.3,0,5.2,0,8.5,0l31.2,18
								C99.5,89.1,99.5,90.2,99.5,92.1z"/>
							<path class="st2" d="M68.2,111.2h-8.5c-0.2,0-0.3,0-0.5-0.1L28,93c-0.3-0.2-0.5-0.5-0.5-0.9v-4.9c0-0.4,0.2-0.7,0.5-0.9
								l31.2-18c0.2-0.1,0.3-0.1,0.5-0.1h8.5c0.2,0,0.3,0,0.5,0.1l31.2,18c0.3,0.2,0.5,0.5,0.5,0.9v4.9c0,0.4-0.2,0.7-0.5,0.9
								l-31.2,18C68.6,111.1,68.4,111.2,68.2,111.2z M60,109.2h8l30.5-17.6v-3.7L68,70.2h-8L29.5,87.8v3.7L60,109.2z M99.5,92.1
								L99.5,92.1L99.5,92.1z"/>
						</g>
						<path class="st2" d="M77.7,87c-0.2,0-0.3,0-0.5-0.1l-7.4-4.3c-0.5-0.3-0.6-0.9-0.4-1.4c0.3-0.5,0.9-0.6,1.4-0.4l7.4,4.3
							c0.5,0.3,0.6,0.9,0.4,1.4C78.3,86.9,78,87,77.7,87z"/>
						<path class="st2" d="M57.8,98.5c-0.2,0-0.3,0-0.5-0.1l-7.4-4.3c-0.5-0.3-0.6-0.9-0.4-1.4c0.3-0.5,0.9-0.6,1.4-0.4l7.4,4.3
							c0.5,0.3,0.6,0.9,0.4,1.4C58.4,98.3,58.1,98.5,57.8,98.5z"/>
						<path class="st2" d="M44.1,102.1c-0.3,0-0.7-0.2-0.9-0.5c-0.3-0.5-0.1-1.1,0.4-1.4l9.9-5.7c0.5-0.3,1.1-0.1,1.4,0.4
							c0.3,0.5,0.1,1.1-0.4,1.4l-9.9,5.7C44.4,102.1,44.3,102.1,44.1,102.1z"/>
						<path class="st2" d="M74,84.9c-0.3,0-0.7-0.2-0.9-0.5c-0.3-0.5-0.1-1.1,0.4-1.4l9.9-5.7c0.5-0.3,1.1-0.1,1.4,0.4
							s0.1,1.1-0.4,1.4l-9.9,5.7C74.3,84.9,74.1,84.9,74,84.9z"/>
						<path class="st2" d="M50.3,87c-0.3,0-0.7-0.2-0.9-0.5c-0.3-0.5-0.1-1.1,0.4-1.4l7.4-4.3c0.5-0.3,1.1-0.1,1.4,0.4
							c0.3,0.5,0.1,1.1-0.4,1.4l-7.4,4.3C50.7,87,50.5,87,50.3,87z"/>
						<path class="st2" d="M70.2,98.5c-0.3,0-0.7-0.2-0.9-0.5c-0.3-0.5-0.1-1.1,0.4-1.4l7.4-4.3c0.5-0.3,1.1-0.1,1.4,0.4
							s0.1,1.1-0.4,1.4l-7.4,4.3C70.6,98.5,70.4,98.5,70.2,98.5z"/>
						<path class="st2" d="M83.9,102.1c-0.2,0-0.3,0-0.5-0.1l-9.9-5.7c-0.5-0.3-0.6-0.9-0.4-1.4c0.3-0.5,0.9-0.6,1.4-0.4l9.9,5.7
							c0.5,0.3,0.6,0.9,0.4,1.4C84.5,101.9,84.2,102.1,83.9,102.1z"/>
						<path class="st2" d="M54,84.9c-0.2,0-0.3,0-0.5-0.1L43.6,79c-0.5-0.3-0.6-0.9-0.4-1.4c0.3-0.5,0.9-0.6,1.4-0.4l9.9,5.7
							c0.5,0.3,0.6,0.9,0.4,1.4C54.7,84.7,54.4,84.9,54,84.9z"/>
						<polygon class="st3" points="73.9,89.6 64,95.4 54.1,89.6 64,83.9 						"/>
						<g>
							<polygon class="st2" points="99.5,92.1 99.5,105 68.2,123 68.2,110.2 							"/>
							<path class="st2" d="M68.2,124c-0.2,0-0.3,0-0.5-0.1c-0.3-0.2-0.5-0.5-0.5-0.9v-12.8c0-0.4,0.2-0.7,0.5-0.9l31.2-18
								c0.3-0.2,0.7-0.2,1,0s0.5,0.5,0.5,0.9V105c0,0.4-0.2,0.7-0.5,0.9l-31.2,18C68.6,124,68.4,124,68.2,124z M69.2,110.7v10.5
								l29.2-16.9V93.9L69.2,110.7z"/>
						</g>
						<path class="st3" d="M95.9,101c-0.6,0-1-0.4-1-1v-5.9c0-0.6,0.4-1,1-1s1,0.4,1,1v5.9C96.9,100.6,96.5,101,95.9,101z"/>
						<path class="st3" d="M89.9,104.5c-0.6,0-1-0.4-1-1v-5.9c0-0.6,0.4-1,1-1s1,0.4,1,1v5.9C90.9,104,90.4,104.5,89.9,104.5z"/>
						<path class="st3" d="M83.9,108c-0.6,0-1-0.4-1-1v-5.9c0-0.6,0.4-1,1-1s1,0.4,1,1v5.9C84.9,107.5,84.4,108,83.9,108z"/>
						<path class="st3" d="M77.8,111.5c-0.6,0-1-0.4-1-1v-5.9c0-0.6,0.4-1,1-1s1,0.4,1,1v5.9C78.8,111,78.4,111.5,77.8,111.5z"/>
						<path class="st3" d="M71.8,114.9c-0.6,0-1-0.4-1-1V108c0-0.6,0.4-1,1-1s1,0.4,1,1v5.9C72.8,114.5,72.4,114.9,71.8,114.9z"/>
						<g>
							<polygon class="st3" points="28.5,92.1 28.5,105 59.8,123 59.8,110.2 							"/>
							<path class="st2" d="M59.8,124c-0.2,0-0.3,0-0.5-0.1l-31.2-18c-0.3-0.2-0.5-0.5-0.5-0.9V92.1c0-0.4,0.2-0.7,0.5-0.9
								c0.3-0.2,0.7-0.2,1,0l31.2,18c0.3,0.2,0.5,0.5,0.5,0.9V123c0,0.4-0.2,0.7-0.5,0.9C60.1,124,59.9,124,59.8,124z M29.5,104.4
								l29.2,16.9v-10.5L29.5,93.9V104.4z"/>
						</g>
						<g>
							<rect x="59.8" y="110.2" class="st3" width="8.5" height="12.8"/>
							<path class="st2" d="M68.2,124h-8.5c-0.6,0-1-0.4-1-1v-12.8c0-0.6,0.4-1,1-1h8.5c0.6,0,1,0.4,1,1V123
								C69.2,123.6,68.8,124,68.2,124z M60.8,122h6.5v-10.8h-6.5C60.8,111.2,60.8,122,60.8,122z"/>
						</g>
						<path class="st2" d="M68.2,124c-0.2,0-0.3,0-0.5-0.1c-0.3-0.2-0.5-0.5-0.5-0.9v-12.8c0-0.4,0.2-0.7,0.5-0.9l31.2-18
							c0.3-0.2,0.7-0.2,1,0s0.5,0.5,0.5,0.9V105c0,0.4-0.2,0.7-0.5,0.9l-31.2,18C68.6,124,68.4,124,68.2,124z M69.2,110.7v10.5
							l29.2-16.9V93.9L69.2,110.7z"/>
						<path class="st2" d="M44.1,108c-0.6,0-1-0.4-1-1v-5.9c0-0.6,0.4-1,1-1s1,0.4,1,1v5.9C45.1,107.5,44.7,108,44.1,108z"/>
					</g>
					<g>
						<g>
							<path class="st1" d="M99.5,79.3l-31.2,18c-3.3,0-5.2,0-8.5,0l-31.2-18c0-1.9,0-3,0-4.9l31.2-18c3.3,0,5.2,0,8.5,0l31.2,18
								C99.5,76.3,99.5,77.4,99.5,79.3z"/>
							<path class="st2" d="M68.2,98.3h-8.5c-0.2,0-0.3,0-0.5-0.1L28,80.2c-0.3-0.2-0.5-0.5-0.5-0.9v-4.9c0-0.4,0.2-0.7,0.5-0.9
								l31.2-18c0.2-0.1,0.3-0.1,0.5-0.1h8.5c0.2,0,0.3,0,0.5,0.1l31.2,18c0.3,0.2,0.5,0.5,0.5,0.9v4.9c0,0.4-0.2,0.7-0.5,0.9
								l-31.2,18C68.6,98.3,68.4,98.3,68.2,98.3z M60,96.3h8l30.5-17.6V75L68,57.3h-8L29.5,75v3.7L60,96.3z M99.5,79.3L99.5,79.3
								L99.5,79.3z"/>
						</g>
						<path class="st2" d="M77.7,74.2c-0.2,0-0.3,0-0.5-0.1l-7.4-4.3c-0.5-0.3-0.6-0.9-0.4-1.4c0.3-0.5,0.9-0.6,1.4-0.4l7.4,4.3
							c0.5,0.3,0.6,0.9,0.4,1.4C78.3,74,78,74.2,77.7,74.2z"/>
						<path class="st2" d="M57.8,85.7c-0.2,0-0.3,0-0.5-0.1l-7.4-4.3c-0.5-0.3-0.6-0.9-0.4-1.4c0.3-0.5,0.9-0.6,1.4-0.4l7.4,4.3
							c0.5,0.3,0.6,0.9,0.4,1.4C58.4,85.5,58.1,85.7,57.8,85.7z"/>
						<path class="st2" d="M44.1,89.3c-0.3,0-0.7-0.2-0.9-0.5c-0.3-0.5-0.1-1.1,0.4-1.4l9.9-5.7c0.5-0.3,1.1-0.1,1.4,0.4
							c0.3,0.5,0.1,1.1-0.4,1.4l-9.9,5.7C44.4,89.2,44.3,89.3,44.1,89.3z"/>
						<path class="st2" d="M74,72.1c-0.3,0-0.7-0.2-0.9-0.5c-0.3-0.5-0.1-1.1,0.4-1.4l9.9-5.7c0.5-0.3,1.1-0.1,1.4,0.4
							s0.1,1.1-0.4,1.4L74.5,72C74.3,72,74.1,72.1,74,72.1z"/>
						<path class="st2" d="M50.3,74.2c-0.3,0-0.7-0.2-0.9-0.5c-0.3-0.5-0.1-1.1,0.4-1.4l7.4-4.3c0.5-0.3,1.1-0.1,1.4,0.4
							c0.3,0.5,0.1,1.1-0.4,1.4l-7.4,4.3C50.7,74.2,50.5,74.2,50.3,74.2z"/>
						<path class="st2" d="M70.2,85.7c-0.3,0-0.7-0.2-0.9-0.5c-0.3-0.5-0.1-1.1,0.4-1.4l7.4-4.3c0.5-0.3,1.1-0.1,1.4,0.4
							s0.1,1.1-0.4,1.4l-7.4,4.3C70.6,85.6,70.4,85.7,70.2,85.7z"/>
						<path class="st2" d="M83.9,89.3c-0.2,0-0.3,0-0.5-0.1l-9.9-5.7c-0.5-0.3-0.6-0.9-0.4-1.4c0.3-0.5,0.9-0.6,1.4-0.4l9.9,5.7
							c0.5,0.3,0.6,0.9,0.4,1.4C84.5,89.1,84.2,89.3,83.9,89.3z"/>
						<path class="st2" d="M54,72.1c-0.2,0-0.3,0-0.5-0.1l-9.9-5.7c-0.5-0.3-0.6-0.9-0.4-1.4c0.3-0.5,0.9-0.6,1.4-0.4l9.9,5.7
							c0.5,0.3,0.6,0.9,0.4,1.4C54.7,71.9,54.4,72.1,54,72.1z"/>
						<polygon class="st3" points="73.9,76.8 64,82.5 54.1,76.8 64,71.1 						"/>
						<g>
							<polygon class="st2" points="99.5,79.3 99.5,92.1 68.2,110.2 68.2,97.3 							"/>
							<path class="st2" d="M68.2,111.2c-0.2,0-0.3,0-0.5-0.1c-0.3-0.2-0.5-0.5-0.5-0.9V97.3c0-0.4,0.2-0.7,0.5-0.9l31.2-18
								c0.3-0.2,0.7-0.2,1,0s0.5,0.5,0.5,0.9v12.8c0,0.4-0.2,0.7-0.5,0.9l-31.2,18C68.6,111.1,68.4,111.2,68.2,111.2z M69.2,97.9
								v10.5l29.2-16.9V81L69.2,97.9z"/>
						</g>
						<path class="st3" d="M95.9,88.2c-0.6,0-1-0.4-1-1v-5.9c0-0.6,0.4-1,1-1s1,0.4,1,1v5.9C96.9,87.7,96.5,88.2,95.9,88.2z"/>
						<path class="st3" d="M89.9,91.7c-0.6,0-1-0.4-1-1v-5.9c0-0.6,0.4-1,1-1s1,0.4,1,1v5.9C90.9,91.2,90.4,91.7,89.9,91.7z"/>
						<path class="st3" d="M83.9,95.1c-0.6,0-1-0.4-1-1v-5.9c0-0.6,0.4-1,1-1s1,0.4,1,1v5.9C84.9,94.7,84.4,95.1,83.9,95.1z"/>
						<path class="st3" d="M77.8,98.6c-0.6,0-1-0.4-1-1v-5.9c0-0.6,0.4-1,1-1s1,0.4,1,1v5.9C78.8,98.2,78.4,98.6,77.8,98.6z"/>
						<path class="st3" d="M71.8,102.1c-0.6,0-1-0.4-1-1v-5.9c0-0.6,0.4-1,1-1s1,0.4,1,1v5.9C72.8,101.7,72.4,102.1,71.8,102.1z"/>
						<g>
							<polygon class="st3" points="28.5,79.3 28.5,92.1 59.8,110.2 59.8,97.3 							"/>
							<path class="st2" d="M59.8,111.2c-0.2,0-0.3,0-0.5-0.1L28,93c-0.3-0.2-0.5-0.5-0.5-0.9V79.3c0-0.4,0.2-0.7,0.5-0.9
								c0.3-0.2,0.7-0.2,1,0l31.2,18c0.3,0.2,0.5,0.5,0.5,0.9v12.8c0,0.4-0.2,0.7-0.5,0.9C60.1,111.1,59.9,111.2,59.8,111.2z
								 M29.5,91.5l29.2,16.9V97.9L29.5,81V91.5z"/>
						</g>
						<g>
							<rect x="59.8" y="97.3" class="st3" width="8.5" height="12.8"/>
							<path class="st2" d="M68.2,111.2h-8.5c-0.6,0-1-0.4-1-1V97.3c0-0.6,0.4-1,1-1h8.5c0.6,0,1,0.4,1,1v12.8
								C69.2,110.7,68.8,111.2,68.2,111.2z M60.8,109.2h6.5V98.3h-6.5C60.8,98.3,60.8,109.2,60.8,109.2z"/>
						</g>
						<path class="st2" d="M68.2,111.2c-0.2,0-0.3,0-0.5-0.1c-0.3-0.2-0.5-0.5-0.5-0.9V97.3c0-0.4,0.2-0.7,0.5-0.9l31.2-18
							c0.3-0.2,0.7-0.2,1,0s0.5,0.5,0.5,0.9v12.8c0,0.4-0.2,0.7-0.5,0.9l-31.2,18C68.6,111.1,68.4,111.2,68.2,111.2z M69.2,97.9
							v10.5l29.2-16.9V81L69.2,97.9z"/>
						<path class="st2" d="M44.1,95.1c-0.6,0-1-0.4-1-1v-5.9c0-0.6,0.4-1,1-1s1,0.4,1,1v5.9C45.1,94.7,44.7,95.1,44.1,95.1z"/>
					</g>
					<g>
						<g>
							<path class="st1" d="M99.5,66.4l-31.2,18c-3.3,0-5.2,0-8.5,0l-31.2-18c0-1.9,0-3,0-4.9l31.2-18c3.3,0,5.2,0,8.5,0l31.2,18
								C99.5,63.5,99.5,64.5,99.5,66.4z"/>
							<path class="st2" d="M68.2,85.5h-8.5c-0.2,0-0.3,0-0.5-0.1L28,67.3c-0.3-0.2-0.5-0.5-0.5-0.9v-4.9c0-0.4,0.2-0.7,0.5-0.9
								l31.2-18c0.2-0.1,0.3-0.1,0.5-0.1h8.5c0.2,0,0.3,0,0.5,0.1l31.2,18c0.3,0.2,0.5,0.5,0.5,0.9v4.9c0,0.4-0.2,0.7-0.5,0.9
								l-31.2,18C68.6,85.4,68.4,85.5,68.2,85.5z M60,83.5h8l30.5-17.6v-3.7L68,44.5h-8L29.5,62.1v3.7L60,83.5z M99.5,66.4
								L99.5,66.4L99.5,66.4z"/>
						</g>
						<path class="st2" d="M77.7,61.4c-0.2,0-0.3,0-0.5-0.1L69.8,57c-0.5-0.3-0.6-0.9-0.4-1.4c0.3-0.5,0.9-0.6,1.4-0.4l7.4,4.3
							c0.5,0.3,0.6,0.9,0.4,1.4C78.3,61.2,78,61.4,77.7,61.4z"/>
						<path class="st2" d="M57.8,72.9c-0.2,0-0.3,0-0.5-0.1l-7.4-4.3c-0.5-0.3-0.6-0.9-0.4-1.4c0.3-0.5,0.9-0.6,1.4-0.4l7.4,4.3
							c0.5,0.3,0.6,0.9,0.4,1.4C58.4,72.7,58.1,72.9,57.8,72.9z"/>
						<path class="st2" d="M44.1,76.5c-0.3,0-0.7-0.2-0.9-0.5c-0.3-0.5-0.1-1.1,0.4-1.4l9.9-5.7c0.5-0.3,1.1-0.1,1.4,0.4
							c0.3,0.5,0.1,1.1-0.4,1.4l-9.9,5.7C44.4,76.4,44.3,76.5,44.1,76.5z"/>
						<path class="st2" d="M74,59.2c-0.3,0-0.7-0.2-0.9-0.5c-0.3-0.5-0.1-1.1,0.4-1.4l9.9-5.7c0.5-0.3,1.1-0.1,1.4,0.4
							s0.1,1.1-0.4,1.4l-9.9,5.7C74.3,59.2,74.1,59.2,74,59.2z"/>
						<path class="st2" d="M50.3,61.4c-0.3,0-0.7-0.2-0.9-0.5c-0.3-0.5-0.1-1.1,0.4-1.4l7.4-4.3c0.5-0.3,1.1-0.1,1.4,0.4
							c0.3,0.5,0.1,1.1-0.4,1.4l-7.4,4.3C50.7,61.3,50.5,61.4,50.3,61.4z"/>
						<path class="st2" d="M70.2,72.9c-0.3,0-0.7-0.2-0.9-0.5c-0.3-0.5-0.1-1.1,0.4-1.4l7.4-4.3c0.5-0.3,1.1-0.1,1.4,0.4
							s0.1,1.1-0.4,1.4l-7.4,4.3C70.6,72.8,70.4,72.9,70.2,72.9z"/>
						<path class="st2" d="M83.9,76.4c-0.2,0-0.3,0-0.5-0.1l-9.9-5.7c-0.5-0.3-0.6-0.9-0.4-1.4c0.3-0.5,0.9-0.6,1.4-0.4l9.9,5.7
							c0.5,0.3,0.6,0.9,0.4,1.4C84.5,76.3,84.2,76.4,83.9,76.4z"/>
						<path class="st2" d="M54,59.2c-0.2,0-0.3,0-0.5-0.1l-9.9-5.7c-0.5-0.3-0.6-0.9-0.4-1.4c0.3-0.5,0.9-0.6,1.4-0.4l9.9,5.7
							c0.5,0.3,0.6,0.9,0.4,1.4C54.7,59,54.4,59.2,54,59.2z"/>
						<polygon class="st3" points="73.9,64 64,69.7 54.1,64 64,58.2 						"/>
						<g>
							<polygon class="st2" points="99.5,66.4 99.5,79.3 68.2,97.3 68.2,84.5 							"/>
							<path class="st2" d="M68.2,98.3c-0.2,0-0.3,0-0.5-0.1c-0.3-0.2-0.5-0.5-0.5-0.9V84.5c0-0.4,0.2-0.7,0.5-0.9l31.2-18
								c0.3-0.2,0.7-0.2,1,0s0.5,0.5,0.5,0.9v12.8c0,0.4-0.2,0.7-0.5,0.9l-31.2,18C68.6,98.3,68.4,98.3,68.2,98.3z M69.2,85.1v10.5
								l29.2-16.9V68.2L69.2,85.1z"/>
						</g>
						<path class="st3" d="M95.9,75.3c-0.6,0-1-0.4-1-1v-5.9c0-0.6,0.4-1,1-1s1,0.4,1,1v5.9C96.9,74.9,96.5,75.3,95.9,75.3z"/>
						<path class="st3" d="M89.9,78.8c-0.6,0-1-0.4-1-1v-5.9c0-0.6,0.4-1,1-1s1,0.4,1,1v5.9C90.9,78.4,90.4,78.8,89.9,78.8z"/>
						<path class="st3" d="M83.9,82.3c-0.6,0-1-0.4-1-1v-5.9c0-0.6,0.4-1,1-1s1,0.4,1,1v5.9C84.9,81.9,84.4,82.3,83.9,82.3z"/>
						<path class="st3" d="M77.8,85.8c-0.6,0-1-0.4-1-1v-5.9c0-0.6,0.4-1,1-1s1,0.4,1,1v5.9C78.8,85.3,78.4,85.8,77.8,85.8z"/>
						<path class="st3" d="M71.8,89.3c-0.6,0-1-0.4-1-1v-5.9c0-0.6,0.4-1,1-1s1,0.4,1,1v5.9C72.8,88.8,72.4,89.3,71.8,89.3z"/>
						<g>
							<polygon class="st3" points="28.5,66.4 28.5,79.3 59.8,97.3 59.8,84.5 							"/>
							<path class="st2" d="M59.8,98.3c-0.2,0-0.3,0-0.5-0.1L28,80.2c-0.3-0.2-0.5-0.5-0.5-0.9V66.4c0-0.4,0.2-0.7,0.5-0.9
								c0.3-0.2,0.7-0.2,1,0l31.2,18c0.3,0.2,0.5,0.5,0.5,0.9v12.8c0,0.4-0.2,0.7-0.5,0.9C60.1,98.3,59.9,98.3,59.8,98.3z
								 M29.5,78.7l29.2,16.9V85.1L29.5,68.2V78.7z"/>
						</g>
						<g>
							<rect x="59.8" y="84.5" class="st3" width="8.5" height="12.8"/>
							<path class="st2" d="M68.2,98.3h-8.5c-0.6,0-1-0.4-1-1V84.5c0-0.6,0.4-1,1-1h8.5c0.6,0,1,0.4,1,1v12.8
								C69.2,97.9,68.8,98.3,68.2,98.3z M60.8,96.3h6.5V85.5h-6.5C60.8,85.5,60.8,96.3,60.8,96.3z"/>
						</g>
						<path class="st2" d="M68.2,98.3c-0.2,0-0.3,0-0.5-0.1c-0.3-0.2-0.5-0.5-0.5-0.9V84.5c0-0.4,0.2-0.7,0.5-0.9l31.2-18
							c0.3-0.2,0.7-0.2,1,0s0.5,0.5,0.5,0.9v12.8c0,0.4-0.2,0.7-0.5,0.9l-31.2,18C68.6,98.3,68.4,98.3,68.2,98.3z M69.2,85.1v10.5
							l29.2-16.9V68.2L69.2,85.1z"/>
						<path class="st2" d="M44.1,82.3c-0.6,0-1-0.4-1-1v-5.9c0-0.6,0.4-1,1-1s1,0.4,1,1v5.9C45.1,81.9,44.7,82.3,44.1,82.3z"/>
					</g>
					<g>
						<g>
							<path class="st1" d="M99.5,53.6l-31.2,18c-3.3,0-5.2,0-8.5,0l-31.2-18c0-1.9,0-3,0-4.9l31.2-18c3.3,0,5.2,0,8.5,0l31.2,18
								C99.5,50.6,99.5,51.7,99.5,53.6z"/>
							<path class="st2" d="M68.2,72.7h-8.5c-0.2,0-0.3,0-0.5-0.1L28,54.5c-0.3-0.2-0.5-0.5-0.5-0.9v-4.9c0-0.4,0.2-0.7,0.5-0.9
								l31.2-18c0.2-0.1,0.3-0.1,0.5-0.1h8.5c0.2,0,0.3,0,0.5,0.1l31.2,18c0.3,0.2,0.5,0.5,0.5,0.9v4.9c0,0.4-0.2,0.7-0.5,0.9
								l-31.2,18C68.6,72.6,68.4,72.7,68.2,72.7z M60,70.7h8L98.5,53v-3.7L68,31.7h-8L29.5,49.3V53L60,70.7z M99.5,53.6L99.5,53.6
								L99.5,53.6z"/>
						</g>
						<path class="st2" d="M77.7,48.5c-0.2,0-0.3,0-0.5-0.1l-7.4-4.3c-0.5-0.3-0.6-0.9-0.4-1.4c0.3-0.5,0.9-0.6,1.4-0.4l7.4,4.3
							c0.5,0.3,0.6,0.9,0.4,1.4C78.3,48.3,78,48.5,77.7,48.5z"/>
						<path class="st2" d="M57.8,60c-0.2,0-0.3,0-0.5-0.1l-7.4-4.3c-0.5-0.3-0.6-0.9-0.4-1.4c0.3-0.5,0.9-0.6,1.4-0.4l7.4,4.3
							c0.5,0.3,0.6,0.9,0.4,1.4C58.4,59.8,58.1,60,57.8,60z"/>
						<path class="st2" d="M44.1,63.6c-0.3,0-0.7-0.2-0.9-0.5c-0.3-0.5-0.1-1.1,0.4-1.4l9.9-5.7c0.5-0.3,1.1-0.1,1.4,0.4
							c0.3,0.5,0.1,1.1-0.4,1.4l-9.9,5.7C44.4,63.6,44.3,63.6,44.1,63.6z"/>
						<path class="st2" d="M74,46.4c-0.3,0-0.7-0.2-0.9-0.5c-0.3-0.5-0.1-1.1,0.4-1.4l9.9-5.7c0.5-0.3,1.1-0.1,1.4,0.4
							s0.1,1.1-0.4,1.4l-9.9,5.7C74.3,46.3,74.1,46.4,74,46.4z"/>
						<path class="st2" d="M50.3,48.5c-0.3,0-0.7-0.2-0.9-0.5c-0.3-0.5-0.1-1.1,0.4-1.4l7.4-4.3c0.5-0.3,1.1-0.1,1.4,0.4
							c0.3,0.5,0.1,1.1-0.4,1.4l-7.4,4.3C50.7,48.5,50.5,48.5,50.3,48.5z"/>
						<path class="st2" d="M70.2,60c-0.3,0-0.7-0.2-0.9-0.5c-0.3-0.5-0.1-1.1,0.4-1.4l7.4-4.3c0.5-0.3,1.1-0.1,1.4,0.4
							s0.1,1.1-0.4,1.4l-7.4,4.3C70.6,60,70.4,60,70.2,60z"/>
						<path class="st2" d="M83.9,63.6c-0.2,0-0.3,0-0.5-0.1l-9.9-5.7c-0.5-0.3-0.6-0.9-0.4-1.4c0.3-0.5,0.9-0.6,1.4-0.4l9.9,5.7
							c0.5,0.3,0.6,0.9,0.4,1.4C84.5,63.4,84.2,63.6,83.9,63.6z"/>
						<path class="st2" d="M54,46.4c-0.2,0-0.3,0-0.5-0.1l-9.9-5.7c-0.5-0.3-0.6-0.9-0.4-1.4c0.3-0.5,0.9-0.6,1.4-0.4l9.9,5.7
							c0.5,0.3,0.6,0.9,0.4,1.4C54.7,46.2,54.4,46.4,54,46.4z"/>
						<polygon class="st3" points="73.9,51.1 64,56.8 54.1,51.1 64,45.4 						"/>
						<g>
							<polygon class="st2" points="99.5,53.6 99.5,66.4 68.2,84.5 68.2,71.7 							"/>
							<path class="st2" d="M68.2,85.5c-0.2,0-0.3,0-0.5-0.1c-0.3-0.2-0.5-0.5-0.5-0.9V71.7c0-0.4,0.2-0.7,0.5-0.9l31.2-18
								c0.3-0.2,0.7-0.2,1,0s0.5,0.5,0.5,0.9v12.8c0,0.4-0.2,0.7-0.5,0.9l-31.2,18C68.6,85.4,68.4,85.5,68.2,85.5z M69.2,72.2v10.5
								l29.2-16.9V55.3L69.2,72.2z"/>
						</g>
						<path class="st3" d="M95.9,62.5c-0.6,0-1-0.4-1-1v-5.9c0-0.6,0.4-1,1-1s1,0.4,1,1v5.9C96.9,62.1,96.5,62.5,95.9,62.5z"/>
						<path class="st3" d="M89.9,66c-0.6,0-1-0.4-1-1v-5.9c0-0.6,0.4-1,1-1s1,0.4,1,1V65C90.9,65.5,90.4,66,89.9,66z"/>
						<path class="st3" d="M83.9,69.5c-0.6,0-1-0.4-1-1v-5.9c0-0.6,0.4-1,1-1s1,0.4,1,1v5.9C84.9,69,84.4,69.5,83.9,69.5z"/>
						<path class="st3" d="M77.8,72.9c-0.6,0-1-0.4-1-1V66c0-0.6,0.4-1,1-1s1,0.4,1,1v5.9C78.8,72.5,78.4,72.9,77.8,72.9z"/>
						<path class="st3" d="M71.8,76.4c-0.6,0-1-0.4-1-1v-5.9c0-0.6,0.4-1,1-1s1,0.4,1,1v5.9C72.8,76,72.4,76.4,71.8,76.4z"/>
						<g>
							<polygon class="st3" points="28.5,53.6 28.5,66.4 59.8,84.5 59.8,71.7 							"/>
							<path class="st2" d="M59.8,85.5c-0.2,0-0.3,0-0.5-0.1L28,67.3c-0.3-0.2-0.5-0.5-0.5-0.9V53.6c0-0.4,0.2-0.7,0.5-0.9
								s0.7-0.2,1,0l31.2,18c0.3,0.2,0.5,0.5,0.5,0.9v12.8c0,0.4-0.2,0.7-0.5,0.9C60.1,85.4,59.9,85.5,59.8,85.5z M29.5,65.9
								l29.2,16.9V72.2L29.5,55.3V65.9z"/>
						</g>
						<g>
							<rect x="59.8" y="71.7" class="st3" width="8.5" height="12.8"/>
							<path class="st2" d="M68.2,85.5h-8.5c-0.6,0-1-0.4-1-1V71.7c0-0.6,0.4-1,1-1h8.5c0.6,0,1,0.4,1,1v12.8
								C69.2,85,68.8,85.5,68.2,85.5z M60.8,83.5h6.5V72.7h-6.5C60.8,72.7,60.8,83.5,60.8,83.5z"/>
						</g>
						<path class="st2" d="M68.2,85.5c-0.2,0-0.3,0-0.5-0.1c-0.3-0.2-0.5-0.5-0.5-0.9V71.7c0-0.4,0.2-0.7,0.5-0.9l31.2-18
							c0.3-0.2,0.7-0.2,1,0s0.5,0.5,0.5,0.9v12.8c0,0.4-0.2,0.7-0.5,0.9l-31.2,18C68.6,85.4,68.4,85.5,68.2,85.5z M69.2,72.2v10.5
							l29.2-16.9V55.3L69.2,72.2z"/>
						<path class="st2" d="M44.1,69.5c-0.6,0-1-0.4-1-1v-5.9c0-0.6,0.4-1,1-1s1,0.4,1,1v5.9C45.1,69,44.7,69.5,44.1,69.5z"/>
					</g>
					<g>
						<g>
							<path class="st1" d="M99.5,40.8l-31.2,18c-3.3,0-5.2,0-8.5,0l-31.2-18c0-1.9,0-3,0-4.9l31.2-18c3.3,0,5.2,0,8.5,0l31.2,18
								C99.5,37.8,99.5,38.9,99.5,40.8z"/>
							<path class="st2" d="M68.2,59.8h-8.5c-0.2,0-0.3,0-0.5-0.1L28,41.6c-0.3-0.2-0.5-0.5-0.5-0.9v-4.9c0-0.4,0.2-0.7,0.5-0.9
								l31.2-18c0.2-0.1,0.3-0.1,0.5-0.1h8.5c0.2,0,0.3,0,0.5,0.1L100,35c0.3,0.2,0.5,0.5,0.5,0.9v4.9c0,0.4-0.2,0.7-0.5,0.9
								l-31.2,18C68.6,59.8,68.4,59.8,68.2,59.8z M60,57.8h8l30.5-17.6v-3.7L68,18.8h-8L29.5,36.5v3.7L60,57.8z M99.5,40.8
								L99.5,40.8L99.5,40.8z"/>
						</g>
						<path class="st2" d="M77.7,35.7c-0.2,0-0.3,0-0.5-0.1l-7.4-4.3c-0.5-0.3-0.6-0.9-0.4-1.4c0.3-0.5,0.9-0.6,1.4-0.4l7.4,4.3
							c0.5,0.3,0.6,0.9,0.4,1.4C78.3,35.5,78,35.7,77.7,35.7z"/>
						<path class="st2" d="M57.8,47.2c-0.2,0-0.3,0-0.5-0.1l-7.4-4.3c-0.5-0.3-0.6-0.9-0.4-1.4c0.3-0.5,0.9-0.6,1.4-0.4l7.4,4.3
							c0.5,0.3,0.6,0.9,0.4,1.4C58.4,47,58.1,47.2,57.8,47.2z"/>
						<path class="st2" d="M44.1,50.8c-0.3,0-0.7-0.2-0.9-0.5c-0.3-0.5-0.1-1.1,0.4-1.4l9.9-5.7c0.5-0.3,1.1-0.1,1.4,0.4
							c0.3,0.5,0.1,1.1-0.4,1.4l-9.9,5.7C44.4,50.7,44.3,50.8,44.1,50.8z"/>
						<path class="st2" d="M74,33.5c-0.3,0-0.7-0.2-0.9-0.5c-0.3-0.5-0.1-1.1,0.4-1.4l9.9-5.7c0.5-0.3,1.1-0.1,1.4,0.4
							s0.1,1.1-0.4,1.4l-9.9,5.7C74.3,33.5,74.1,33.5,74,33.5z"/>
						<path class="st2" d="M50.3,35.7c-0.3,0-0.7-0.2-0.9-0.5c-0.3-0.5-0.1-1.1,0.4-1.4l7.4-4.3c0.5-0.3,1.1-0.1,1.4,0.4
							c0.3,0.5,0.1,1.1-0.4,1.4l-7.4,4.3C50.7,35.6,50.5,35.7,50.3,35.7z"/>
						<path class="st2" d="M70.2,47.2c-0.3,0-0.7-0.2-0.9-0.5c-0.3-0.5-0.1-1.1,0.4-1.4l7.4-4.3c0.5-0.3,1.1-0.1,1.4,0.4
							s0.1,1.1-0.4,1.4L70.7,47C70.6,47.1,70.4,47.2,70.2,47.2z"/>
						<path class="st2" d="M83.9,50.8c-0.2,0-0.3,0-0.5-0.1L73.5,45c-0.5-0.3-0.6-0.9-0.4-1.4c0.3-0.5,0.9-0.6,1.4-0.4l9.9,5.7
							c0.5,0.3,0.6,0.9,0.4,1.4C84.5,50.6,84.2,50.8,83.9,50.8z"/>
						<path class="st2" d="M54,33.5c-0.2,0-0.3,0-0.5-0.1l-9.9-5.7c-0.5-0.3-0.6-0.9-0.4-1.4c0.3-0.5,0.9-0.6,1.4-0.4l9.9,5.7
							c0.5,0.3,0.6,0.9,0.4,1.4C54.7,33.4,54.4,33.5,54,33.5z"/>
						<polygon class="st3" points="73.9,38.3 64,44 54.1,38.3 64,32.6 						"/>
						<g>
							<polygon class="st2" points="99.5,40.8 99.5,53.6 68.2,71.7 68.2,58.8 							"/>
							<path class="st2" d="M68.2,72.7c-0.2,0-0.3,0-0.5-0.1c-0.3-0.2-0.5-0.5-0.5-0.9V58.8c0-0.4,0.2-0.7,0.5-0.9l31.2-18
								c0.3-0.2,0.7-0.2,1,0s0.5,0.5,0.5,0.9v12.8c0,0.4-0.2,0.7-0.5,0.9l-31.2,18C68.6,72.6,68.4,72.7,68.2,72.7z M69.2,59.4v10.5
								L98.5,53V42.5L69.2,59.4z"/>
						</g>
						<path class="st3" d="M95.9,49.7c-0.6,0-1-0.4-1-1v-5.9c0-0.6,0.4-1,1-1s1,0.4,1,1v5.9C96.9,49.2,96.5,49.7,95.9,49.7z"/>
						<path class="st3" d="M89.9,53.1c-0.6,0-1-0.4-1-1v-5.9c0-0.6,0.4-1,1-1s1,0.4,1,1v5.9C90.9,52.7,90.4,53.1,89.9,53.1z"/>
						<path class="st3" d="M83.9,56.6c-0.6,0-1-0.4-1-1v-5.9c0-0.6,0.4-1,1-1s1,0.4,1,1v5.9C84.9,56.2,84.4,56.6,83.9,56.6z"/>
						<path class="st3" d="M77.8,60.1c-0.6,0-1-0.4-1-1v-5.9c0-0.6,0.4-1,1-1s1,0.4,1,1v5.9C78.8,59.7,78.4,60.1,77.8,60.1z"/>
						<path class="st3" d="M71.8,63.6c-0.6,0-1-0.4-1-1v-5.9c0-0.6,0.4-1,1-1s1,0.4,1,1v5.9C72.8,63.1,72.4,63.6,71.8,63.6z"/>
						<g>
							<polygon class="st3" points="28.5,40.8 28.5,53.6 59.8,71.7 59.8,58.8 							"/>
							<path class="st2" d="M59.8,72.7c-0.2,0-0.3,0-0.5-0.1L28,54.5c-0.3-0.2-0.5-0.5-0.5-0.9V40.8c0-0.4,0.2-0.7,0.5-0.9
								s0.7-0.2,1,0l31.2,18c0.3,0.2,0.5,0.5,0.5,0.9v12.8c0,0.4-0.2,0.7-0.5,0.9C60.1,72.6,59.9,72.7,59.8,72.7z M29.5,53
								l29.2,16.9V59.4L29.5,42.5V53z"/>
						</g>
						<g>
							<rect x="59.8" y="58.8" class="st3" width="8.5" height="12.8"/>
							<path class="st2" d="M68.2,72.7h-8.5c-0.6,0-1-0.4-1-1V58.8c0-0.6,0.4-1,1-1h8.5c0.6,0,1,0.4,1,1v12.8
								C69.2,72.2,68.8,72.7,68.2,72.7z M60.8,70.7h6.5V59.8h-6.5C60.8,59.8,60.8,70.7,60.8,70.7z"/>
						</g>
						<path class="st2" d="M68.2,72.7c-0.2,0-0.3,0-0.5-0.1c-0.3-0.2-0.5-0.5-0.5-0.9V58.8c0-0.4,0.2-0.7,0.5-0.9l31.2-18
							c0.3-0.2,0.7-0.2,1,0s0.5,0.5,0.5,0.9v12.8c0,0.4-0.2,0.7-0.5,0.9l-31.2,18C68.6,72.6,68.4,72.7,68.2,72.7z M69.2,59.4v10.5
							L98.5,53V42.5L69.2,59.4z"/>
						<path class="st2" d="M44.1,56.6c-0.6,0-1-0.4-1-1v-5.9c0-0.6,0.4-1,1-1s1,0.4,1,1v5.9C45.1,56.2,44.7,56.6,44.1,56.6z"/>
					</g>
					<g>
						<g>
							<path class="st1" d="M99.5,27.9L68.2,46c-3.3,0-5.2,0-8.5,0L28.5,28c0-1.9,0-3,0-4.9L59.8,5c3.3,0,5.2,0,8.5,0l31.2,18
								C99.5,25,99.5,26,99.5,27.9z"/>
							<path class="st2" d="M68.2,47h-8.5c-0.2,0-0.3,0-0.5-0.1L28,28.8c-0.3-0.2-0.5-0.5-0.5-0.9V23c0-0.4,0.2-0.7,0.5-0.9l31.2-18
								C59.4,4,59.6,4,59.8,4h8.5c0.2,0,0.3,0,0.5,0.1l31.2,18c0.3,0.2,0.5,0.5,0.5,0.9v4.9c0,0.4-0.2,0.7-0.5,0.9l-31.2,18
								C68.6,46.9,68.4,47,68.2,47z M60,45h8l30.5-17.6v-3.7L68,6h-8L29.5,23.6v3.7L60,45z M99.5,27.9L99.5,27.9L99.5,27.9z"/>
						</g>
						<path class="st2" d="M44.1,37.9c-0.3,0-0.7-0.2-0.9-0.5c-0.3-0.5-0.1-1.1,0.4-1.4l9.9-5.7c0.5-0.3,1.1-0.1,1.4,0.4
							c0.3,0.5,0.1,1.1-0.4,1.4l-9.9,5.7C44.4,37.9,44.3,37.9,44.1,37.9z"/>
						<path class="st2" d="M74,20.7c-0.3,0-0.7-0.2-0.9-0.5c-0.3-0.5-0.1-1.1,0.4-1.4l9.9-5.7c0.5-0.3,1.1-0.1,1.4,0.4
							s0.1,1.1-0.4,1.4l-9.9,5.7C74.3,20.7,74.1,20.7,74,20.7z"/>
						<path class="st2" d="M83.9,37.9c-0.2,0-0.3,0-0.5-0.1l-9.9-5.7c-0.5-0.3-0.6-0.9-0.4-1.4c0.3-0.5,0.9-0.6,1.4-0.4l9.9,5.7
							c0.5,0.3,0.6,0.9,0.4,1.4C84.5,37.7,84.2,37.9,83.9,37.9z"/>
						<path class="st2" d="M54,20.7c-0.2,0-0.3,0-0.5-0.1l-9.9-5.7c-0.5-0.3-0.6-0.9-0.4-1.4c0.3-0.5,0.9-0.6,1.4-0.4l9.9,5.7
							c0.5,0.3,0.6,0.9,0.4,1.4C54.7,20.5,54.4,20.7,54,20.7z"/>
						<g>
							<polygon class="st2" points="99.5,27.9 99.5,40.8 68.2,58.8 68.2,46 							"/>
							<path class="st2" d="M68.2,59.8c-0.2,0-0.3,0-0.5-0.1c-0.3-0.2-0.5-0.5-0.5-0.9V46c0-0.4,0.2-0.7,0.5-0.9l31.2-18
								c0.3-0.2,0.7-0.2,1,0s0.5,0.5,0.5,0.9v12.8c0,0.4-0.2,0.7-0.5,0.9l-31.2,18C68.6,59.8,68.4,59.8,68.2,59.8z M69.2,46.6v10.5
								l29.2-16.9V29.7L69.2,46.6z"/>
						</g>
						<path class="st3" d="M95.9,36.8c-0.6,0-1-0.4-1-1V30c0-0.6,0.4-1,1-1s1,0.4,1,1v5.9C96.9,36.4,96.5,36.8,95.9,36.8z"/>
						<path class="st3" d="M89.9,40.3c-0.6,0-1-0.4-1-1v-5.9c0-0.6,0.4-1,1-1s1,0.4,1,1v5.9C90.9,39.9,90.4,40.3,89.9,40.3z"/>
						<path class="st3" d="M83.9,43.8c-0.6,0-1-0.4-1-1v-5.9c0-0.6,0.4-1,1-1s1,0.4,1,1v5.9C84.9,43.3,84.4,43.8,83.9,43.8z"/>
						<path class="st3" d="M77.8,47.3c-0.6,0-1-0.4-1-1v-5.9c0-0.6,0.4-1,1-1s1,0.4,1,1v5.9C78.8,46.8,78.4,47.3,77.8,47.3z"/>
						<path class="st3" d="M71.8,50.8c-0.6,0-1-0.4-1-1v-5.9c0-0.6,0.4-1,1-1s1,0.4,1,1v5.9C72.8,50.3,72.4,50.8,71.8,50.8z"/>
						<g>
							<polygon class="st3" points="28.5,27.9 28.5,40.8 59.8,58.8 59.8,46 							"/>
							<path class="st2" d="M59.8,59.8c-0.2,0-0.3,0-0.5-0.1L28,41.6c-0.3-0.2-0.5-0.5-0.5-0.9V27.9c0-0.4,0.2-0.7,0.5-0.9
								c0.3-0.2,0.7-0.2,1,0l31.2,18c0.3,0.2,0.5,0.5,0.5,0.9v12.8c0,0.4-0.2,0.7-0.5,0.9C60.1,59.8,59.9,59.8,59.8,59.8z
								 M29.5,40.2l29.2,16.9V46.6L29.5,29.7V40.2z"/>
						</g>
						<g>
							<rect x="59.8" y="46" class="st3" width="8.5" height="12.8"/>
							<path class="st2" d="M68.2,59.8h-8.5c-0.6,0-1-0.4-1-1V46c0-0.6,0.4-1,1-1h8.5c0.6,0,1,0.4,1,1v12.8
								C69.2,59.4,68.8,59.8,68.2,59.8z M60.8,57.8h6.5V47h-6.5C60.8,47,60.8,57.8,60.8,57.8z"/>
						</g>
						<path class="st2" d="M68.2,59.8c-0.2,0-0.3,0-0.5-0.1c-0.3-0.2-0.5-0.5-0.5-0.9V46c0-0.4,0.2-0.7,0.5-0.9l31.2-18
							c0.3-0.2,0.7-0.2,1,0s0.5,0.5,0.5,0.9v12.8c0,0.4-0.2,0.7-0.5,0.9l-31.2,18C68.6,59.8,68.4,59.8,68.2,59.8z M69.2,46.6v10.5
							l29.2-16.9V29.7L69.2,46.6z"/>
						<path class="st2" d="M44.1,43.8c-0.6,0-1-0.4-1-1v-5.9c0-0.6,0.4-1,1-1s1,0.4,1,1v5.9C45.1,43.3,44.7,43.8,44.1,43.8z"/>
					</g>
				</g>
				<path class="st4" d="M68.2,124h-8.5c-0.2,0-0.3,0-0.5-0.1l-31.2-18c-0.3-0.2-0.5-0.5-0.5-0.9V23c0-0.4,0.2-0.7,0.5-0.9l31.2-18
					C59.4,4,59.6,4,59.8,4h8.5c0.2,0,0.3,0,0.5,0.1l31.2,18c0.3,0.2,0.5,0.5,0.5,0.9v82c0,0.4-0.2,0.7-0.5,0.9l-31.2,18
					C68.6,124,68.4,124,68.2,124z M60,122h8l30.5-17.6V23.6L68,6h-8L29.5,23.6v80.8L60,122z"/>
			</g>
		</g>
	</g>
	<g>
		<rect class="st0" width="128" height="128"/>
	</g>
</g>
</svg>
