<?xml version="1.0" encoding="utf-8"?>
<!-- Generator: Adobe Illustrator 24.1.0, SVG Export Plug-In . SVG Version: 6.00 Build 0)  -->
<svg version="1.1" id="Layer_1" xmlns="http://www.w3.org/2000/svg" xmlns:xlink="http://www.w3.org/1999/xlink" x="0px" y="0px"
	 viewBox="0 0 128 128" style="enable-background:new 0 0 128 128;" xml:space="preserve">
<style type="text/css">
	.st0{fill:none;}
	.st1{fill:#E9EBDF;}
	.st2{fill:#0E352C;}
	.st3{fill:#4D9987;}
	.st4{fill:#FFFFFF;}
	.st5{fill:#C4D7D3;}
	.st6{fill:#185849;}
	.st7{fill:#27ae60;}
</style>
<g id="Layer_1_1_">
</g>
<g>
	<g id="Layer_2_1_">
		<g id="New_Illustrations_1_">
			<g>
				<rect x="4" y="4" class="st0" width="120" height="120"/>
				<g>
					<g>
						<g>
							<path class="st1" d="M100.2,85.9c-10.4,0-25.3,9.3-25.3,27.6c0,9.8,16.7,11.1,28.9,8s16.4-9.1,16.4-15.4
								C120.2,95.9,111.4,85.9,100.2,85.9z"/>
							<path class="st2" d="M91.7,124c-5.6,0-11.1-1.1-14.5-3.7c-2.3-1.8-3.4-4-3.4-6.8c0-10.8,4.9-17.6,9.1-21.4
								c4.9-4.5,11.3-7.2,17.2-7.2c11.2,0,21,9.9,21,21.2c0,5.5-3,12.8-17.1,16.4C100.3,123.4,96,124,91.7,124z M100.2,86.9
								c-10.2,0-24.3,9.3-24.3,26.6c0,2.1,0.9,3.8,2.6,5.2c5.2,4,16.5,4,25,1.8c10.2-2.6,15.6-7.6,15.6-14.4
								C119.2,95.9,110.3,86.9,100.2,86.9z"/>
							<path class="st1" d="M91.8,122.4c-3.8,0-16.3-0.6-16.3-8.8c0-17.6,14.3-27,24.7-27c11.4,0,19.3,10.3,19.3,19.5
								c0,4.9-2.8,11.5-15.9,14.8C99.9,121.8,95.7,122.4,91.8,122.4z M100.2,88.6c-9.5,0-22.7,8.7-22.7,25c0,6.3,11,6.8,14.3,6.8
								c3.7,0,7.7-0.5,11.3-1.4c6.6-1.7,14.4-5.2,14.4-12.9C117.5,97.8,110.4,88.6,100.2,88.6z"/>
							<g>
								<circle class="st1" cx="98" cy="72" r="17.6"/>
								<path class="st3" d="M109.3,61.9c-0.8-0.9-2.3,0-1.9,1.1c1.5,3.7,2,9.1-3.6,14.7s-11,5.1-14.7,3.6c-1.2-0.5-2.1,1.1-1.1,1.9
									c3,2.7,7.2,4.2,11.7,3.8c7-0.7,12.7-6.4,13.4-13.4C113.5,69.1,112,64.9,109.3,61.9z"/>
								<path class="st2" d="M98,90.6c-10.3,0-18.6-8.4-18.6-18.6S87.7,53.3,98,53.3s18.6,8.4,18.6,18.6S108.3,90.6,98,90.6z
									 M98,55.3c-9.2,0-16.6,7.5-16.6,16.6S88.8,88.6,98,88.6s16.6-7.5,16.6-16.6S107.2,55.3,98,55.3z"/>
								
									<ellipse transform="matrix(0.7071 -0.7071 0.7071 0.7071 -18.7623 82.1041)" class="st4" cx="89.7" cy="63.7" rx="4.1" ry="2.5"/>
								<path class="st1" d="M98,88.9c-9.4,0-17-7.6-17-17s7.6-17,17-17s17,7.6,17,17S107.4,88.9,98,88.9z M98,57
									c-8.3,0-15,6.7-15,15s6.7,15,15,15s15-6.7,15-15S106.3,57,98,57z"/>
							</g>
							
								<ellipse transform="matrix(0.6392 -0.769 0.769 0.6392 -45.5886 101.4312)" class="st4" cx="85.3" cy="99.3" rx="3.7" ry="2.3"/>
							<path class="st3" d="M117.7,106.1c0-5.7-3.4-11.9-8.8-15.2c-1.4-0.9-3.3,0.2-3.1,1.9c0.1,1.2,0.2,2.4,0.2,3.5
								c0,7.6-3.6,14.9-14,18.6c-1.6,0.6-3.3,1-5,1.3c-2.3,0.4-2.2,3.7,0.1,4c1.9,0.2,3.6,0.3,4.6,0.3c3.7,0,7.8-0.5,11.4-1.4
								C109.8,117.4,117.7,113.8,117.7,106.1z"/>
						</g>
					</g>
					<g>
						<path class="st1" d="M75.6,20.2l25.9-14.9c0.6-0.4,1.2-0.4,1.6-0.1l0,0L108,8l-4,4.1v14c0,1.9-1.1,4-2.5,4.8l-17.3,10L80,50.3
							l-1.2,7.2l-0.5,0.3L73.4,55l0,0c-0.1,0-0.1-0.2-0.1-0.3V42.8v-0.3V25C73.1,23.2,74.3,21,75.6,20.2z"/>
						<path class="st4" d="M75.6,20.2l25.9-14.9c0.6-0.4,1.2-0.4,1.6-0.1l0,0L108,8l-4,4.1v14c0,1.9-1.1,4-2.5,4.8L95,34.7
							L73.8,22.4C74.2,21.5,74.9,20.7,75.6,20.2z"/>
						<path class="st1" d="M106.4,8.1l-25.8,15c-1.4,0.8-2.5,3-2.5,4.8v17.4v0.3v11.8c0,0.5,0.4,0.5,0.7,0l6.7-11.1
							c0.3-0.5,0.7-0.9,1.1-1.1l19.9-11.5c1.4-0.8,2.5-3,2.5-4.8V10C108.9,8.2,107.8,7.3,106.4,8.1z"/>
						<path class="st3" d="M78.3,58.8c-0.1,0-0.2,0-0.3,0c-0.6-0.2-0.9-0.7-0.9-1.3V27.9c0-2.2,1.3-4.7,3-5.7L106,7.3
							c0.9-0.5,1.9-0.6,2.6-0.1c0.9,0.5,1.4,1.6,1.4,2.9V29c0,2.2-1.3,4.7-3,5.7L87,46.1c-0.2,0.1-0.5,0.4-0.7,0.8L79.6,58
							C79.3,58.5,78.8,58.8,78.3,58.8z M107.4,8.8c-0.1,0-0.3,0.1-0.5,0.2l0,0L81.1,23.9c-1.1,0.6-2,2.5-2,3.9V55l5.5-9.2
							c0.4-0.6,0.9-1.2,1.4-1.5l19.9-11.5c1.1-0.6,2-2.5,2-3.9V10C107.9,9.3,107.7,8.9,107.4,8.8C107.5,8.8,107.5,8.8,107.4,8.8z"/>
						<path class="st2" d="M78.3,58.8c-0.2,0-0.4-0.1-0.6-0.2l-4.9-2.8c-0.4-0.2-0.6-0.7-0.6-1.2V25c0-1.1,0.3-2.3,1-3.4l0,0l0,0
							c0,0,0.1-0.2,0.2-0.3c0.1-0.1,0.2-0.2,0.2-0.4c0.1-0.1,0.2-0.2,0.3-0.3c0.1-0.1,0.2-0.2,0.3-0.3c0.1-0.1,0.2-0.2,0.3-0.3
							l0.1-0.1c0.1-0.1,0.2-0.1,0.2-0.2l0.1-0.1c0.1-0.1,0.2-0.2,0.4-0.2l25.7-15c0.9-0.5,1.8-0.6,2.5-0.2h0.1l4.9,2.8
							c0,0,0.1,0,0.1,0.1c0.8,0.5,1.3,1.5,1.3,2.8v18.9c0,2.2-1.3,4.7-3,5.7L87,46.1c-0.2,0.1-0.5,0.4-0.7,0.8L79.6,58
							C79.2,58.6,78.7,58.8,78.3,58.8z M74.1,54.3l4,2.3l6.5-10.8c0.4-0.6,0.9-1.2,1.4-1.5l19.9-11.5c1.1-0.6,2-2.5,2-3.9V10
							c0-0.7-0.2-1.1-0.4-1.2c0,0,0,0-0.1,0l-4.8-2.7c0,0,0,0-0.1,0c-0.2-0.1-0.5,0.1-0.6,0.1L76.1,21.1c-0.1,0-0.1,0.1-0.2,0.1
							c-0.1,0.1-0.1,0.1-0.2,0.2s-0.2,0.1-0.2,0.2c-0.1,0.1-0.1,0.2-0.2,0.2c-0.1,0.1-0.1,0.2-0.2,0.2c-0.1,0.1-0.1,0.2-0.2,0.3
							c-0.1,0.1-0.1,0.2-0.2,0.3l0,0c-0.4,0.8-0.7,1.7-0.7,2.5L74.1,54.3L74.1,54.3z"/>
						<g>
							<g>
								
									<ellipse transform="matrix(0.3916 -0.9201 0.9201 0.3916 22.2026 103.1479)" class="st2" cx="89.1" cy="34.8" rx="2" ry="1.2"/>
								<path class="st2" d="M88.6,37.2c-0.2,0-0.4-0.1-0.6-0.2c-0.5-0.3-0.7-0.8-0.7-1.5c0-1.2,0.7-2.5,1.6-3
									c0.5-0.3,1-0.3,1.4-0.1c0.5,0.3,0.7,0.8,0.7,1.5c0,1.2-0.7,2.5-1.6,3C89.1,37.2,88.8,37.2,88.6,37.2z M89.6,33.4
									c-0.1,0-0.2,0.1-0.3,0.1l0,0c-0.6,0.3-1.1,1.3-1.1,2.1c0,0.4,0.1,0.6,0.2,0.6c0.1,0.1,0.3,0,0.4-0.1
									c0.6-0.3,1.1-1.3,1.1-2.1C89.9,33.6,89.8,33.4,89.6,33.4C89.7,33.4,89.6,33.4,89.6,33.4z M89.1,33L89.1,33L89.1,33z"/>
							</g>
							<g>
								
									<ellipse transform="matrix(0.3916 -0.9201 0.9201 0.3916 30.4292 97.748)" class="st2" cx="89.1" cy="25.9" rx="2" ry="1.2"/>
								<path class="st2" d="M88.6,28.3c-0.2,0-0.4-0.1-0.6-0.2c-0.5-0.3-0.7-0.8-0.7-1.5c0-1.2,0.7-2.5,1.6-3
									c0.5-0.3,1-0.3,1.4-0.1c0.5,0.3,0.7,0.8,0.7,1.5c0,1.2-0.7,2.5-1.6,3C89.1,28.2,88.8,28.3,88.6,28.3z M89.6,24.4
									c-0.1,0-0.2,0.1-0.3,0.1l0,0c-0.6,0.3-1.1,1.3-1.1,2.1c0,0.4,0.1,0.6,0.2,0.6c0.1,0.1,0.3,0,0.4-0.1
									c0.6-0.3,1.1-1.3,1.1-2.1C89.9,24.7,89.8,24.5,89.6,24.4C89.7,24.4,89.6,24.4,89.6,24.4z M89.1,24.1L89.1,24.1L89.1,24.1z"
									/>
							</g>
							<g>
								<path class="st2" d="M95.4,32.9l0.9-0.5c2.6-1.5,4.7-5.5,4.7-8.9s-2.1-5-4.7-3.5l-0.9,0.5V32.9z"/>
								<path class="st2" d="M95.4,33.4c-0.1,0-0.2,0-0.2-0.1C95,33.2,95,33,95,32.9V20.4c0-0.2,0.1-0.3,0.2-0.4l0.9-0.5
									c1.3-0.7,2.6-0.8,3.6-0.2c1.2,0.7,1.9,2.2,1.9,4.2c0,3.6-2.2,7.8-4.9,9.4l-0.9,0.5C95.6,33.4,95.5,33.4,95.4,33.4z
									 M95.9,20.7V32l0.2-0.1c2.4-1.4,4.4-5.2,4.4-8.5c0-1.6-0.5-2.9-1.4-3.4c-0.7-0.4-1.6-0.3-2.6,0.2L95.9,20.7z"/>
							</g>
						</g>
					</g>
					<g>
						<g>
							<path class="st5" d="M34.9,85.9c-10.4,0-25.3,9.3-25.3,27.6c0,9.8,16.7,11.1,28.9,8s16.4-9.1,16.4-15.4
								C54.9,95.9,46.1,85.9,34.9,85.9z"/>
							<path class="st6" d="M26.4,124c-5.6,0-11.1-1.1-14.5-3.7c-2.3-1.8-3.4-4-3.4-6.8c0-10.8,4.9-17.6,9.1-21.4
								c4.9-4.5,11.3-7.2,17.2-7.2c11.2,0,21,9.9,21,21.2c0,5.5-3,12.8-17.1,16.4C35,123.4,30.7,124,26.4,124z M34.9,86.9
								c-10.2,0-24.3,9.3-24.3,26.6c0,2.1,0.9,3.8,2.6,5.2c5.2,4,16.5,4,25,1.8c10.2-2.6,15.6-7.6,15.6-14.4
								C53.9,95.9,45,86.9,34.9,86.9z"/>
							<path class="st5" d="M26.5,122.4c-3.8,0-16.3-0.6-16.3-8.8c0-17.6,14.3-27,24.7-27c11.4,0,19.3,10.3,19.3,19.5
								c0,4.9-2.8,11.5-15.9,14.8C34.6,121.8,30.4,122.4,26.5,122.4z M34.9,88.6c-9.5,0-22.7,8.7-22.7,25c0,6.3,11,6.8,14.3,6.8
								c3.7,0,7.7-0.5,11.3-1.4c6.6-1.7,14.4-5.2,14.4-12.9C52.2,97.8,45.1,88.6,34.9,88.6z"/>
							<circle class="st5" cx="32.7" cy="72" r="17.6"/>
							<path class="st7" d="M44,61.9c-0.8-0.9-2.3,0-1.9,1.1c1.5,3.7,2,9.1-3.6,14.7s-11,5.1-14.7,3.6c-1.2-0.5-2.1,1.1-1.1,1.9
								c3,2.7,7.2,4.2,11.7,3.8c7-0.7,12.7-6.4,13.4-13.4C48.2,69.1,46.7,64.9,44,61.9z"/>
							<path class="st6" d="M32.7,90.6c-10.3,0-18.6-8.4-18.6-18.6s8.4-18.6,18.6-18.6S51.3,61.7,51.3,72S43,90.6,32.7,90.6z
								 M32.7,55.3c-9.2,0-16.6,7.5-16.6,16.6s7.5,16.6,16.6,16.6S49.3,81.1,49.3,72S41.9,55.3,32.7,55.3z"/>
							
								<ellipse transform="matrix(0.7071 -0.7071 0.7071 0.7071 -37.8868 35.9291)" class="st4" cx="24.4" cy="63.7" rx="4.1" ry="2.5"/>
							<path class="st5" d="M32.7,88.9c-9.4,0-17-7.6-17-17s7.6-17,17-17s17,7.6,17,17S42.1,88.9,32.7,88.9z M32.7,57
								c-8.3,0-15,6.7-15,15s6.7,15,15,15s15-6.7,15-15S41,57,32.7,57z"/>
							
								<ellipse transform="matrix(0.6392 -0.769 0.769 0.6392 -69.1446 51.2127)" class="st4" cx="20" cy="99.3" rx="3.7" ry="2.3"/>
							<path class="st7" d="M52.4,106.1c0-5.7-3.4-11.9-8.8-15.2c-1.4-0.9-3.3,0.2-3.1,1.9c0.1,1.2,0.2,2.4,0.2,3.5
								c0,7.6-3.6,14.9-14,18.6c-1.6,0.6-3.3,1-5,1.3c-2.3,0.4-2.2,3.7,0.1,4c1.9,0.2,3.6,0.3,4.6,0.3c3.7,0,7.8-0.5,11.4-1.4
								C44.5,117.4,52.4,113.8,52.4,106.1z"/>
						</g>
					</g>
					<g>
						<path class="st5" d="M10.3,20.2L36.2,5.3c0.6-0.4,1.2-0.4,1.6-0.1l0,0l5,2.8l-4,4.1v14c0,1.9-1.1,4-2.5,4.8L19,40.9l-4.2,9.4
							l-1.2,7.2l-0.5,0.3L8,54.9l0,0c-0.1,0-0.1-0.2-0.1-0.3V42.8v-0.3V25C7.8,23.2,9,21,10.3,20.2z"/>
						<path class="st4" d="M10.3,20.2L36.2,5.3c0.6-0.4,1.2-0.4,1.6-0.1l0,0l5,2.8l-4,4.1v14c0,1.9-1.1,4-2.5,4.8l-6.5,3.8L8.5,22.4
							C8.9,21.5,9.6,20.7,10.3,20.2z"/>
						<path class="st5" d="M41.1,8.1l-25.9,15c-1.4,0.8-2.5,3-2.5,4.8v17.4v0.3v11.8c0,0.5,0.4,0.5,0.7,0l6.7-11.1
							c0.3-0.5,0.7-0.9,1.1-1.1l19.9-11.5c1.4-0.8,2.5-3,2.5-4.8V10C43.6,8.2,42.5,7.3,41.1,8.1z"/>
						<path class="st7" d="M13,58.8c-0.1,0-0.2,0-0.3,0c-0.6-0.2-0.9-0.7-0.9-1.3V27.9c0-2.2,1.3-4.7,3-5.7L40.6,7.3
							c0.9-0.5,1.9-0.6,2.6-0.1c0.9,0.5,1.4,1.6,1.4,2.9V29c0,2.2-1.3,4.7-3,5.7L21.7,46.1c-0.2,0.1-0.5,0.4-0.7,0.8L14.3,58
							C14,58.5,13.5,58.8,13,58.8z M42.1,8.8c-0.1,0-0.3,0.1-0.5,0.2l0,0L15.7,23.9c-1.1,0.6-2,2.5-2,3.9V55l5.5-9.2
							c0.4-0.6,0.9-1.2,1.4-1.5l19.9-11.5c1.1-0.6,2-2.5,2-3.9V10C42.5,9.3,42.3,8.9,42.1,8.8C42.2,8.8,42.2,8.8,42.1,8.8z"/>
						<path class="st6" d="M13,58.8c-0.2,0-0.4-0.1-0.6-0.2l-4.9-2.8c-0.4-0.2-0.6-0.7-0.6-1.2V25c0-1.1,0.3-2.3,0.9-3.4l0,0
							c0.1-0.1,0.1-0.2,0.2-0.4c0.1-0.1,0.2-0.3,0.2-0.4c0.1-0.1,0.2-0.2,0.3-0.3c0.1-0.1,0.2-0.2,0.3-0.3l0.1-0.1
							c0,0,0.1-0.1,0.2-0.2l0.1-0.1c0.1-0.1,0.2-0.1,0.2-0.2l0.1-0.1c0.1-0.1,0.2-0.2,0.4-0.2L35.7,4.4c0.9-0.5,1.8-0.6,2.6-0.2h0.1
							L43.3,7c0,0,0.1,0,0.1,0.1c0.8,0.5,1.3,1.6,1.3,2.8v18.9c0,2.2-1.3,4.7-3,5.7l-20,11.6c-0.2,0.1-0.5,0.4-0.7,0.8L14.3,58
							C13.9,58.6,13.4,58.8,13,58.8z M8.8,54.3l4,2.3l6.5-10.8c0.4-0.6,0.9-1.2,1.4-1.5l19.9-11.5c1.1-0.6,2-2.5,2-3.9V10
							c0-0.7-0.2-1.1-0.4-1.2c0,0,0,0-0.1,0L37.3,6c0,0,0,0-0.1,0c-0.2-0.1-0.5,0.1-0.6,0.1l-25.8,15c-0.1,0-0.1,0.1-0.2,0.1
							c-0.1,0.1-0.1,0.1-0.2,0.2c-0.1,0.1-0.1,0.1-0.2,0.2c-0.1,0.1-0.1,0.2-0.2,0.2c0,0.1-0.1,0.1-0.1,0.2
							c-0.1,0.1-0.1,0.2-0.2,0.3c-0.1,0.1-0.1,0.2-0.2,0.3l0,0c-0.4,0.8-0.7,1.7-0.7,2.5V54.3z M8.7,22.1L8.7,22.1L8.7,22.1z"/>
						<path class="st6" d="M34.4,23.9c0.2-0.7,0.3-1.3,0.3-1.9c0-2.7-1.7-4-3.7-2.8c-1.1,0.6-2,1.8-2.7,3.1c-0.7-0.6-1.6-0.6-2.7,0
							c-2.1,1.2-3.7,4.4-3.7,7.1c0,0.6,0.1,1.2,0.3,1.7l0,0c0.8,2.4,4.2,4.7,5.9,5.1c0.1,0,0.2,0,0.3,0l0,0l0,0c0,0,0.1,0,0.1-0.1
							l0,0c0,0,0,0,0.1-0.1l0,0l0,0c0,0,0.1-0.1,0.1-0.2C30.2,33.5,33.6,27.2,34.4,23.9L34.4,23.9z"/>
					</g>
				</g>
			</g>
		</g>
	</g>
	<g>
		<rect class="st0" width="128" height="128"/>
	</g>
</g>
</svg>
