<?xml version="1.0" encoding="utf-8"?>
<!-- Generator: Adobe Illustrator 24.1.0, SVG Export Plug-In . SVG Version: 6.00 Build 0)  -->
<svg version="1.1" id="Layer_1" xmlns="http://www.w3.org/2000/svg" xmlns:xlink="http://www.w3.org/1999/xlink" x="0px" y="0px"
	 viewBox="0 0 128 128" style="enable-background:new 0 0 128 128;" xml:space="preserve">
<style type="text/css">
	.st0{fill:#FFFFFF;}
	.st1{fill:#E9EBDF;}
	.st2{fill:#4D9987;}
	.st3{fill:#0E352C;}
	.st4{fill:#27ae60;}
	.st5{fill:#C4D7D3;}
	.st6{fill:#185849;}
	.st7{fill:none;}
</style>
<g id="Layer_1_1_">
</g>
<g>
	<g id="Layer_2_1_">
		<g id="Tech_Concepts_1_">
			<g>
				<g>
					<g>
						<path class="st0" d="M97.3,19.9l-9.9-5.7C75.6,20.9,59.1,14,59.1,14S42.5,40.1,30.7,46.8c0,0,0,16.4,0,34.4
							c0,12,4.9,19.8,11.9,23.8l0,0l9.9,5.7l1.2-2.5c1.8,0.1,3.5,0.1,5.3-0.2c14.2-14.7,28.3-39.2,28.3-59.5c0-2.9,0-5.8,0-8.6
							L97.3,19.9z"/>
						<path class="st1" d="M76.2,65.1C73.9,62,57.9,48.4,42.8,35.9c-4,4.6-8.3,8.8-12,10.9c0,0,0,16.4,0,34.4
							c0,12,4.9,19.8,11.9,23.8l0,0l9.9,5.7l1.2-2.5c1.8,0.1,3.5,0.1,5.3-0.2c8.3-8.6,16.6-20.6,22.1-33.2
							C79,70,77.2,66.4,76.2,65.1z"/>
						<path class="st0" d="M30.7,46.8l9.9,5.7c0,0,35.9,11.5,40.9,10.6C86.4,62.2,69,19.7,69,19.7L59.1,14
							C59.1,14,42.5,40.1,30.7,46.8z"/>
						<g>
							<path class="st2" d="M40.6,52.6c0,0,0,16.4,0,34.4c0,20.3,14.2,28.5,28.3,26.9c14.2-14.7,28.3-39.2,28.3-59.5
								c0-18,0-34.4,0-34.4C85.5,26.6,69,19.7,69,19.7S52.4,45.8,40.6,52.6z"/>
							<path class="st2" d="M65.3,115c-6.6,0-12.6-2.1-17.1-6.2c-5.6-5-8.6-12.6-8.6-21.9V52.6c0-0.4,0.2-0.7,0.5-0.9
								c11.4-6.6,27.8-32.2,28-32.5c0.3-0.4,0.8-0.6,1.2-0.4c0.2,0.1,16.2,6.7,27.4,0.2c0.3-0.2,0.7-0.2,1,0s0.5,0.5,0.5,0.9v34.4
								c0,21-14.8,46-28.6,60.2c-0.2,0.2-0.4,0.3-0.6,0.3C67.8,114.9,66.5,115,65.3,115z M41.6,53.1v33.8c0,8.8,2.7,15.8,7.9,20.4
								c4.9,4.3,11.6,6.3,18.9,5.5c13.4-14,27.8-38.2,27.8-58.6V21.5c-10.5,5-23.5,0.7-26.9-0.6C66.7,25.2,52.5,46.5,41.6,53.1z"/>
						</g>
						<path class="st2" d="M65.3,115c-6.6,0-12.6-2.1-17.1-6.2c-5.6-5-8.6-12.6-8.6-21.9V52.6c0-0.4,0.2-0.7,0.5-0.9
							c11.4-6.6,27.8-32.2,28-32.5c0.3-0.4,0.8-0.6,1.2-0.4c0.2,0.1,16.2,6.7,27.4,0.2c0.3-0.2,0.7-0.2,1,0s0.5,0.5,0.5,0.9v34.4
							c0,21-14.8,46-28.6,60.2c-0.2,0.2-0.4,0.3-0.6,0.3C67.8,114.9,66.5,115,65.3,115z M41.6,53.1v33.8c0,8.8,2.7,15.8,7.9,20.4
							c4.9,4.3,11.6,6.3,18.9,5.5c13.4-14,27.8-38.2,27.8-58.6V21.5c-10.5,5-23.5,0.7-26.9-0.6C66.7,25.2,52.5,46.5,41.6,53.1z"/>
						<g>
							<path class="st0" d="M66.4,105.3c-9.2,0-20-5.7-20-21.9V55c9.1-5.5,21.2-23.7,23.3-27c1.7,0.6,7,2.5,13,2.5
								c3.7,0,6.9-0.7,9.7-2v27.6c0,17.1-12,37.4-23.3,49.1C68.2,105.3,67.3,105.3,66.4,105.3L66.4,105.3z"/>
							<path class="st3" d="M66.4,106.3c-9.7,0-21-6-21-22.9V55c0-0.3,0.2-0.7,0.5-0.9c8.9-5.4,20.7-23.2,23-26.7
								c0.3-0.4,0.8-0.6,1.2-0.4c1.5,0.6,6.8,2.4,12.7,2.4c3.5,0,6.6-0.6,9.2-1.9c0.3-0.1,0.7-0.1,1,0c0.3,0.2,0.5,0.5,0.5,0.8v27.6
								c0,17.3-12.2,38-23.6,49.8c-0.2,0.2-0.4,0.3-0.6,0.3C68.2,106.3,67.3,106.3,66.4,106.3z M47.4,55.6v27.8
								c0,9.7,5,20.9,19,20.9c0.7,0,1.5,0,2.2-0.1c11-11.6,22.8-31.5,22.8-48.2V30c-2.6,1-5.5,1.5-8.7,1.5c-5.4,0-10.2-1.4-12.6-2.2
								C67,33.9,56.1,50,47.4,55.6z"/>
						</g>
						<path class="st1" d="M66.4,105.3L66.4,105.3c0.9,0,1.8,0,2.7-0.1c11.3-11.7,23.3-32.1,23.3-49.1v-4.3l-46,26.5v5.1
							C46.4,99.6,57.2,105.3,66.4,105.3z"/>
						<path class="st3" d="M66.4,106.3c-9.7,0-21-6-21-22.9V55c0-0.3,0.2-0.7,0.5-0.9c8.9-5.4,20.7-23.2,23-26.7
							c0.3-0.4,0.8-0.6,1.2-0.4c1.5,0.6,6.8,2.4,12.7,2.4c3.5,0,6.6-0.6,9.2-1.9c0.3-0.1,0.7-0.1,1,0c0.3,0.2,0.5,0.5,0.5,0.8v27.6
							c0,17.3-12.2,38-23.6,49.8c-0.2,0.2-0.4,0.3-0.6,0.3C68.2,106.3,67.3,106.3,66.4,106.3z M47.4,55.6v27.8c0,9.7,5,20.9,19,20.9
							c0.7,0,1.5,0,2.2-0.1c11-11.6,22.8-31.5,22.8-48.2V30c-2.6,1-5.5,1.5-8.7,1.5c-5.4,0-10.2-1.4-12.6-2.2
							C67,33.9,56.1,50,47.4,55.6z"/>
						<path class="st0" d="M66.4,104.3c-9.2,0-19-5.5-19-20.9V56.1c0-0.3,0.2-0.6,0.4-0.8c8.4-5.7,18.8-20.9,21.8-25.4
							c0.2-0.4,0.7-0.5,1.1-0.4c2.8,0.9,7.1,2,11.9,2c2.7,0,5.1-0.4,7.4-1c0.3-0.1,0.6,0,0.9,0.1c0.3,0.2,0.4,0.5,0.4,0.8v24.7
							c0,11.9-7,31.3-22.5,47.9c-0.2,0.2-0.4,0.3-0.7,0.3C67.6,104.3,67,104.3,66.4,104.3z M49.4,56.6v26.8c0,9.2,4.5,18.9,17,18.9
							c0.4,0,0.8,0,1.3,0C78.2,91,89.4,71.8,89.4,56.1V32.7c-2.1,0.5-4.3,0.8-6.7,0.8c-4.7,0-8.9-1-11.8-1.9
							C66.8,37.7,57.5,50.9,49.4,56.6z"/>
						<path class="st2" d="M40.6,53.6c-0.2,0-0.3,0-0.5-0.1l-9.9-5.7c-0.5-0.3-0.6-0.9-0.4-1.4c0.3-0.5,0.9-0.6,1.4-0.4l9.9,5.7
							c0.5,0.3,0.6,0.9,0.4,1.4C41.3,53.4,41,53.6,40.6,53.6z"/>
						<path class="st2" d="M69,20.7c-0.2,0-0.3,0-0.5-0.1l-9.9-5.7c-0.5-0.3-0.6-0.9-0.4-1.4c0.3-0.5,0.9-0.6,1.4-0.4l9.9,5.7
							c0.5,0.3,0.6,0.9,0.4,1.4C69.7,20.5,69.3,20.7,69,20.7z"/>
						<g>
							<path class="st4" d="M80.6,52.9l-7,4v-9.3c0-1.3-0.8-1.9-1.7-1.3l-5,2.9c-1,0.6-1.7,2.1-1.7,3.3v9.3l-7,4
								c-1,0.6-1.7,2.1-1.7,3.3v6.7c0,1.3,0.8,1.9,1.7,1.3l7-4v9.3c0,1.3,0.8,1.9,1.7,1.3l5-2.9c1-0.6,1.7-2.1,1.7-3.3v-9.3l7-4
								c1-0.6,1.7-2.1,1.7-3.3v-6.7C82.4,52.9,81.6,52.3,80.6,52.9z"/>
							<path class="st4" d="M66.2,85.1c-0.3,0-0.7-0.1-0.9-0.3c-0.7-0.4-1.1-1.2-1.1-2.3V75l-5.5,3.2c-0.7,0.4-1.5,0.5-2.1,0.1
								c-0.7-0.4-1.1-1.2-1.1-2.3v-6.7c0-1.7,1-3.5,2.2-4.2l6.5-3.7v-8.7c0-1.7,1-3.5,2.2-4.2l5-2.9c0.7-0.4,1.5-0.5,2.1-0.1
								c0.7,0.4,1.1,1.2,1.1,2.3v7.6l5.5-3.2l0,0c0.7-0.4,1.5-0.5,2.1-0.1c0.7,0.4,1.1,1.2,1.1,2.3v6.7c0,1.7-1,3.5-2.2,4.2L74.6,69
								v8.7c0,1.7-1,3.5-2.2,4.2l-5,2.9C67,85,66.6,85.1,66.2,85.1z M65.1,72.2c0.2,0,0.3,0,0.5,0.1c0.3,0.2,0.5,0.5,0.5,0.9v9.3
								c0,0.3,0.1,0.5,0.1,0.5s0.1,0,0.1-0.1l5-2.9c0.6-0.3,1.2-1.5,1.2-2.5v-9.3c0-0.4,0.2-0.7,0.5-0.9l7-4
								c0.6-0.3,1.2-1.5,1.2-2.5v-6.7c0-0.3-0.1-0.5-0.1-0.5s-0.1,0-0.1,0.1l-7,4c-0.3,0.2-0.7,0.2-1,0s-0.5-0.5-0.5-0.9v-9.3
								c0-0.3-0.1-0.5-0.1-0.5s-0.1,0-0.1,0.1l-5,2.9c-0.6,0.3-1.2,1.5-1.2,2.5v9.3c0,0.4-0.2,0.7-0.5,0.9l-7,4
								c-0.6,0.3-1.2,1.5-1.2,2.5v6.7c0,0.3,0.1,0.5,0.1,0.5s0.1,0,0.1-0.1l7-4C64.8,72.3,64.9,72.2,65.1,72.2z"/>
						</g>
						<path class="st0" d="M59.1,68.6c-0.3,0-0.7-0.2-0.9-0.5c-0.3-0.5-0.1-1.1,0.4-1.4l5.9-3.4c0.5-0.3,1.1-0.1,1.4,0.4
							s0.1,1.1-0.4,1.4l-5.9,3.4C59.5,68.6,59.3,68.6,59.1,68.6z"/>
						<path class="st0" d="M74.8,59.6c-0.3,0-0.7-0.2-0.9-0.5c-0.3-0.5-0.1-1.1,0.4-1.4l5.6-3.2c0.5-0.3,1.1-0.1,1.4,0.4
							s0.1,1.1-0.4,1.4l-5.6,3.2C75.2,59.5,75,59.6,74.8,59.6z"/>
						<path class="st0" d="M67.9,51.9c-0.3,0-0.7-0.2-0.9-0.5c-0.3-0.5-0.1-1.1,0.4-1.4l3.8-2.2c0.5-0.3,1.1-0.1,1.4,0.4
							s0.1,1.1-0.4,1.4l-3.8,2.2C68.2,51.9,68,51.9,67.9,51.9z"/>
						<path class="st5" d="M73.7,66.9c-0.3,0-0.7-0.2-0.9-0.5c-0.3-0.5-0.1-1.1,0.4-1.4l5.9-3.4c0.5-0.3,1.1-0.1,1.4,0.4
							s0.1,1.1-0.4,1.4l-5.9,3.4C74.1,66.9,73.9,66.9,73.7,66.9z"/>
						<path class="st5" d="M58.4,75.8c-0.3,0-0.7-0.2-0.9-0.5c-0.3-0.5-0.1-1.1,0.4-1.4l5.6-3.2c0.5-0.3,1.1-0.1,1.4,0.4
							s0.1,1.1-0.4,1.4l-5.6,3.2C58.7,75.8,58.5,75.8,58.4,75.8z"/>
						<path class="st5" d="M67.1,82.4c-0.3,0-0.7-0.2-0.9-0.5c-0.3-0.5-0.1-1.1,0.4-1.4l3.8-2.2c0.5-0.3,1.1-0.1,1.4,0.4
							s0.1,1.1-0.4,1.4l-3.8,2.2C67.5,82.4,67.3,82.4,67.1,82.4z"/>
						<path class="st6" d="M66.2,85.1c-0.3,0-0.7-0.1-0.9-0.3c-0.7-0.4-1.1-1.2-1.1-2.3V75l-5.5,3.2c-0.7,0.4-1.5,0.5-2.1,0.1
							c-0.7-0.4-1.1-1.2-1.1-2.3v-6.7c0-1.7,1-3.5,2.2-4.2l6.5-3.7v-8.7c0-1.7,1-3.5,2.2-4.2l5-2.9c0.7-0.4,1.5-0.5,2.1-0.1
							c0.7,0.4,1.1,1.2,1.1,2.3v7.6l5.5-3.2l0,0c0.7-0.4,1.5-0.5,2.1-0.1c0.7,0.4,1.1,1.2,1.1,2.3v6.7c0,1.7-1,3.5-2.2,4.2L74.6,69
							v8.7c0,1.7-1,3.5-2.2,4.2l-5,2.9C67,85,66.6,85.1,66.2,85.1z M65.1,72.2c0.2,0,0.3,0,0.5,0.1c0.3,0.2,0.5,0.5,0.5,0.9v9.3
							c0,0.3,0.1,0.5,0.1,0.5s0.1,0,0.1-0.1l5-2.9c0.6-0.3,1.2-1.5,1.2-2.5v-9.3c0-0.4,0.2-0.7,0.5-0.9l7-4c0.6-0.3,1.2-1.5,1.2-2.5
							v-6.7c0-0.3-0.1-0.5-0.1-0.5s-0.1,0-0.1,0.1l-7,4c-0.3,0.2-0.7,0.2-1,0s-0.5-0.5-0.5-0.9v-9.3c0-0.3-0.1-0.5-0.1-0.5
							s-0.1,0-0.1,0.1l-5,2.9c-0.6,0.3-1.2,1.5-1.2,2.5v9.3c0,0.4-0.2,0.7-0.5,0.9l-7,4c-0.6,0.3-1.2,1.5-1.2,2.5v6.7
							c0,0.3,0.1,0.5,0.1,0.5s0.1,0,0.1-0.1l7-4C64.8,72.3,64.9,72.2,65.1,72.2z"/>
					</g>
					<path class="st3" d="M65.3,115c-4.8,0-9.4-1.2-13.3-3.4c0,0,0,0-0.1,0l-9.9-5.7c0,0,0,0-0.1,0c-7.9-4.6-12.3-13.4-12.3-24.6
						V46.8c0-0.4,0.2-0.7,0.5-0.9c0.2-0.1,0.4-0.2,0.6-0.4l0.1-0.1c0.2-0.1,0.3-0.2,0.5-0.3l0.2-0.1c0.2-0.1,0.3-0.2,0.5-0.3
						l0.2-0.1c0.2-0.2,0.4-0.3,0.7-0.5l0.7,0.7L33.1,44c0.2-0.1,0.4-0.3,0.6-0.4l0.1-0.1c0.2-0.2,0.4-0.3,0.6-0.5l0.2-0.1
						c0.5-0.4,0.9-0.8,1.4-1.2l0.8-0.8c0.2-0.2,0.5-0.4,0.7-0.7c0.6-0.6,1.1-1.1,1.5-1.6c0.3-0.3,0.5-0.5,0.7-0.8
						c0.8-0.9,1.6-1.7,2.3-2.5c8.5-9.7,16.1-21.7,16.2-21.8c0.3-0.4,0.8-0.6,1.2-0.4c0.2,0.1,16.2,6.7,27.4,0.2c0.3-0.2,0.7-0.2,1,0
						l9.9,5.7c0.3,0.2,0.5,0.5,0.5,0.9v34.4c0,21-14.8,46-28.6,60.2c-0.2,0.2-0.4,0.3-0.6,0.3C67.8,114.9,66.6,115,65.3,115z
						 M53,109.8L53,109.8c4.4,2.6,9.9,3.6,15.5,3c13.4-14,27.8-38.2,27.8-58.6V20.4l-8.9-5.1C76.8,21,63,16.5,59.5,15.2
						c-1.8,2.7-8.6,12.9-16,21.3c-0.8,0.9-1.5,1.7-2.3,2.5c-0.3,0.3-0.5,0.6-0.8,0.8c-0.6,0.6-1.1,1.1-1.6,1.6l-0.1,0.1
						c-0.2,0.2-0.4,0.4-0.6,0.6l-0.9,0.8c-0.5,0.5-1,0.9-1.5,1.3l-0.2,0.2c-0.2,0.2-0.4,0.3-0.5,0.5l-0.2,0.2
						c-0.2,0.2-0.4,0.3-0.6,0.5l-0.1,0.1c-0.2,0.2-0.5,0.4-0.7,0.5l-0.1,0.1c-0.2,0.2-0.4,0.3-0.6,0.4l-0.2,0.2
						c-0.2,0.1-0.3,0.2-0.5,0.3l-0.2,0.1c-0.1,0-0.1,0.1-0.2,0.1v33.8c0,10.5,4,18.7,11.4,22.9c0,0,0,0,0.1,0L53,109.8z"/>
				</g>
				<rect x="4" y="4" class="st7" width="120" height="120"/>
				<rect x="4" y="4" class="st7" width="120" height="120"/>
			</g>
		</g>
	</g>
	<g>
		<rect class="st7" width="128" height="128"/>
	</g>
</g>
</svg>
