<?xml version="1.0" encoding="utf-8"?>
<!-- Generator: Adobe Illustrator 24.1.0, SVG Export Plug-In . SVG Version: 6.00 Build 0)  -->
<svg version="1.1" id="Layer_1" xmlns="http://www.w3.org/2000/svg" xmlns:xlink="http://www.w3.org/1999/xlink" x="0px" y="0px"
	 viewBox="0 0 128 128" style="enable-background:new 0 0 128 128;" xml:space="preserve">
<style type="text/css">
	.st0{fill:none;}
	.st1{fill:#E9EBDF;}
	.st2{fill:#FFFFFF;}
	.st3{fill:#0E352C;}
	.st4{fill:#4D9987;}
	.st5{fill:#C4D7D3;}
	.st6{fill:#27ae60;}
	.st7{fill:#185849;}
</style>
<g id="Layer_1_1_">
</g>
<g>
	<g id="Layer_2_1_">
		<g id="Layer_6_1_">
			<g>
				<rect x="4" y="4" class="st0" width="120" height="120"/>
				<rect x="4" y="4" class="st0" width="120" height="120"/>
				<g>
					<path id="XMLID_47_" class="st1" d="M120.8,104.8l-4.2-5.5c-3.1-5.1-10.6-9.8-10.6-9.8L33,47.3c-1.2-0.7-3.3-0.7-4.5,0
						l-11.3,6.5L14.9,55l-9.3-2L11,65.4c-1.5,0.2,1.5,6.3,1.8,6.5l67.9,39.2c22.4,13,43.6,11.8,37.7,1.7c-1.9-3.2,1.6-6.6,2.6-7.7
						C121.1,105,121,104.8,120.8,104.8z"/>
					<path id="XMLID_46_" class="st2" d="M113.8,118c0,1.5-3.9,1.8-5.7,1.8c10,2,12.6-1.3,11.4-4.2c0,0-0.1,0-0.1-0.1
						C116.6,113.8,113.8,113.5,113.8,118z"/>
					<path class="st3" d="M28.9,13c-0.3,0-0.7-0.2-0.9-0.5c-0.3-0.5-0.1-1.1,0.4-1.4l3.9-2.2c0.5-0.3,1.1-0.1,1.4,0.4
						c0.3,0.5,0.1,1.1-0.4,1.4l-3.9,2.2C29.2,12.9,29.1,13,28.9,13z"/>
					<path id="XMLID_45_" class="st1" d="M123,97.2l-0.9,0.6c-0.8-1.7-2.2-3.3-3.6-4.8l0.8,0.1L116,89l-6.8-6.3l-6.8-1.7l-1.2,1.2
						l-46-25.4l-9.7-6.1l1.5-0.9l-3.1-5.4L36,41.7l-7.1-3.1l-9.6,5L8,50.4l-2.8,0.8v3.6v0.1l0,0c0,0.5,0.3,1,1,1.4L21,64.8l3.2-1.8
						l-3.1-5.4l-6.4-2.3l2.4-1.2l11.3-6.5c1.2-0.7,3.3-0.7,4.5,0l73,42.2c0,0,7.6,4.7,10.7,9.8l1,1.3l-2.3,1.5l-9.9,0.5l-19.5-5.3
						l-2.8-1.1l2.5-0.7l-6.7-1.1L76.5,97l4.7,2.7c3.3,1.9,6.7,3.6,10.3,4.9c7.8,2.9,20.2,6.3,27.9,1.9c2.5-1.4,3.5-3.1,3.6-4.9l0,0
						L123,97.2z"/>
					<path id="XMLID_44_" class="st2" d="M11.5,51.9c-1.1-0.6-1.1-1.7,0-2.3l15.9-9.2c1.1-0.6,2.9-0.6,4,0l9.7,5.6l2.9-1.7
						l-11.8-6.8c-1.3-0.8-3.5-0.8-4.8,0L6.2,49.8c-1.3,0.8-1.3,2,0,2.8l11.7,6.8l3.2-1.8L11.5,51.9z"/>
					<path id="XMLID_43_" class="st2" d="M79.2,94.5L24.3,62.8l-3.1-5.4l-9.7-5.6c-0.5-0.3-0.7-0.6-0.7-1s0.3-0.7,0.7-1l15.9-9.2
						c1-0.6,2.7-0.6,3.8,0l9.7,5.6l3.1,5.4l55.8,32.1l2.4-2.3l-55-31.8l-3.1-5.5l-11.8-6.8c-1.4-0.8-3.6-0.8-5,0L6.1,49.6
						C5.4,50,5,50.6,5,51.2c0,0.6,0.4,1.1,1.1,1.6l11.7,6.8l3,5.4v0.1l0,0L21,65l56,32.1"/>
					<path id="XMLID_42_" class="st2" d="M108.7,103.2L108.7,103.2c3.2-2.3,3.4-7,0.4-9.6c-2.8-2.5-5.6-4.2-5.6-4.2L45.2,55.9
						c-1.2-0.7-3.3-0.7-4.5,0l-13,7.5c-0.9,0.5-0.9,1.7-0.1,2.3c11,6.9,55.8,33,56.7,32C84.4,97.5,108.9,103.2,108.7,103.2z"/>
					<polygon id="XMLID_41_" class="st4" points="14.2,48.1 14.2,53.5 11.2,51.7 10.7,50.9 10.8,50.1 11.5,49.6 					"/>
					<path id="XMLID_40_" class="st2" d="M118.9,106.6l0.5-0.7c-0.1,0.1-0.2,0.1-0.3,0.2c-2.9,1.7-6.5,2.2-10.3,2.1l-0.1,0.4
						c0.4,0,0.7,0,1.1,0C113.1,108.6,116.3,108,118.9,106.6z"/>
					<g id="XMLID_37_">
						<g id="XMLID_38_">
							<path id="XMLID_39_" class="st4" d="M114,107.6L114,107.6l-0.1,0.9c-0.3,1.1-1.1,2.1-2.6,3c-3,1.7-6.9,1.9-10.8,1.4
								c5.2,1.3,11.1,1.9,15.2-0.5c1.9-1.1,2.7-2.4,2.8-3.7l0,0v-2.6C117.1,107,115.6,107.4,114,107.6z"/>
						</g>
					</g>
					<polygon id="XMLID_36_" class="st1" points="17.9,59.3 21,64.8 24.2,62.9 21.1,57.5 					"/>
					<polygon id="XMLID_35_" class="st1" points="41,46.1 44.1,51.5 47,49.8 43.9,44.4 					"/>
					<path id="XMLID_34_" class="st2" d="M110.3,82.7l-5.4-3.1l-2.7,1.9l7,3.8c0,0,16.1,9.6,7.1,14.8c-9.1,5.2-26.7-3.8-26.7-3.8
						l-7.2-3.8l-3.4,2l5.4,3.1c0,0,23.1,11.8,35.1,5C131.3,95.7,110.3,82.7,110.3,82.7z"/>
					<path class="st4" d="M78.9,95.5c-0.3,0-0.7-0.2-0.9-0.5c-0.3-0.5-0.1-1.1,0.3-1.4l3.9-2.3c0.5-0.3,1.1-0.1,1.4,0.3
						c0.3,0.5,0.1,1.1-0.3,1.4l-3.9,2.3C79.2,95.5,79,95.5,78.9,95.5z"/>
					<path class="st4" d="M118.8,98.4c-0.1,0-0.2,0-0.3-0.1c-0.5-0.2-0.8-0.8-0.6-1.3c1.3-3.6-6.3-8.9-9.1-10.5l-7.1-4.3
						c-0.5-0.3-0.6-0.9-0.3-1.4c0.3-0.5,0.9-0.6,1.4-0.3l7.1,4.3c1.2,0.7,12.1,7.1,9.9,12.9C119.6,98.2,119.2,98.4,118.8,98.4z"/>
					<path class="st4" d="M99.8,84.7c-0.2,0-0.3,0-0.5-0.1L43.4,52.5c-0.2-0.1-0.3-0.2-0.4-0.4l-2.9-5.2l-9.4-5.4
						c-0.7-0.4-2.1-0.4-2.8,0L12,50.7c-0.1,0-0.1,0.1-0.2,0.1c0,0,0.1,0.1,0.2,0.1c0.5,0.3,0.6,0.9,0.4,1.4
						c-0.3,0.5-0.9,0.6-1.4,0.4c-1-0.7-1.2-1.5-1.2-1.9s0.2-1.2,1.2-1.9l15.9-9.2c1.4-0.8,3.4-0.8,4.8,0l9.7,5.6
						c0.2,0.1,0.3,0.2,0.4,0.4l2.9,5.2l54.9,31.6l1.6-1.7c0.4-0.4,1-0.4,1.4,0s0.4,1,0,1.4l-2.2,2.3C100.3,84.6,100,84.7,99.8,84.7z
						"/>
					<polygon class="st1" points="24.2,62.8 24.2,34.8 14.3,29.3 14.2,53.5 21.1,57.5 					"/>
					<g>
						<g>
							<polygon class="st2" points="44.1,23.1 41.7,21.8 35.7,25.8 37.6,26.9 							"/>
							<polygon class="st4" points="37.6,26.9 37.6,28.3 44.1,24.5 44.3,23 							"/>
							<polygon class="st1" points="37.6,28.3 37.6,26.9 35.7,25.8 35.7,27.2 							"/>
							<path class="st3" d="M37.6,30.3c-0.2,0-0.3,0-0.5-0.1l-2.5-1.3c-0.3-0.2-0.5-0.5-0.5-0.9v-2.5c0-0.4,0.2-0.7,0.5-0.9l6.5-3.8
								c0.3-0.2,0.7-0.2,1,0l2.5,1.4c0.3,0.2,0.5,0.5,0.5,0.9v2.4c0,0.4-0.2,0.7-0.5,0.9l-6.5,3.8C38,30.3,37.8,30.3,37.6,30.3z
								 M36.2,27.4l1.4,0.8l5.5-3.2v-1.3l-1.5-0.9L36.2,26V27.4z"/>
						</g>
						<polygon id="XMLID_30_" class="st4" points="24.2,34.8 24.2,62.3 25.3,62 39.6,53.6 39.7,53.3 39.7,25.9 37.3,27.6 25.1,34.6 
													"/>
						<g id="XMLID_23_">
							<path id="XMLID_29_" class="st1" d="M24,26.5c-0.7,0.4-5.1,2.2-5.3,2.2c-0.2,0-3.5,0.3-4.3,0.3c-0.1,0-0.2,0.1-0.2,0.2v4.1
								v0.1l0,0l0,0c0,0.2,0.2,0.5,0.5,0.7l8,4.6c0.4,0.2,0.9,0.3,1.4,0.3"/>
							<path id="XMLID_24_" class="st4" d="M24.2,39.1c0.3,0,0.6-0.1,0.9-0.2l14.2-8.2c0.3-0.2,0.4-0.4,0.4-0.6l0,0v-4.2
								c0-0.1-0.1-0.2-0.2-0.2l-5.8-0.2c0,0-0.4,0-1.1,0.1l-1.5-0.9c-0.7-0.4-1.7-0.4-2.3-0.1l-2.6,1.5c-1.1,0.1-2,0.3-2.2,0.4"/>
						</g>
						<g id="XMLID_21_">
							<path id="XMLID_22_" class="st2" d="M39.3,26.4l-14.2,8.2c-0.6,0.3-1.6,0.3-2.3-0.1l-8-4.6c-0.7-0.4-0.7-1-0.2-1.3l14.2-8.2
								c0.6-0.3,1.6-0.3,2.3,0.1l8,4.6C39.8,25.5,39.9,26.1,39.3,26.4z"/>
						</g>
						<g id="XMLID_19_">
							<path id="XMLID_20_" class="st4" d="M34.3,25.5L29.9,23c-0.4-0.2-0.9-0.2-1.2-0.1l-9.4,5.4C19,28.5,19,28.8,19.4,29l1.4,0.8
								l7.8-4.5c0.3-0.2,0.9-0.2,1.2,0.1l3,1.7l1.6-0.9C34.7,26,34.7,25.7,34.3,25.5z"/>
						</g>
						<g id="XMLID_15_">
							<path id="XMLID_16_" class="st2" d="M20.1,47.3l1.9,1.2c0.3,0.2,0.5,0,0.5-0.3v-1c0-0.4-0.2-0.8-0.5-1L20.1,45
								c-0.3-0.2-0.5,0-0.5,0.3v1C19.5,46.7,19.8,47.1,20.1,47.3z M21.9,46.4c0.2,0.1,0.3,0.3,0.3,0.5v1c0,0.2-0.1,0.3-0.3,0.2
								L20.1,47c-0.2-0.1-0.3-0.3-0.3-0.5v-1c0-0.2,0.1-0.3,0.3-0.2L21.9,46.4z"/>
						</g>
						<g id="XMLID_13_">
							<path class="st4" d="M24.1,35.8c-0.6,0-1.3-0.2-1.8-0.5l-8-4.6c-0.7-0.4-1.1-1-1.1-1.6s0.3-1.1,0.9-1.4l14.2-8.2
								c0.9-0.5,2.3-0.5,3.3,0.1l8,4.6c0.7,0.4,1.1,1,1.1,1.6s-0.3,1.1-0.9,1.4l-14.2,8.2C25.2,35.7,24.6,35.8,24.1,35.8z
								 M15.6,29.2l7.7,4.5c0.4,0.2,1,0.2,1.3,0.1l13.8-7.9l-7.7-4.5c-0.4-0.2-1-0.2-1.3-0.1L15.6,29.2z"/>
						</g>
						<path class="st3" d="M25.1,63.1c-0.3,0-0.7-0.2-0.9-0.5c-0.3-0.5-0.1-1.1,0.4-1.4l14.1-8.1l-0.1-22.8v-0.1c0-0.3,0-2.6,0-4.1
							l0,0l0,0l-8-4.6c-0.4-0.2-1-0.2-1.3-0.1l-14.1,8.1l0,0v4l0,0v0.1v19.8c0,0.6-0.4,1-1,1s-1-0.4-1-1V33.5c0-0.1,0-0.1,0-0.2
							v-4.1c0,0,0,0,0-0.1c0-0.6,0.3-1.2,0.9-1.5l14.2-8.2c0.9-0.5,2.3-0.5,3.3,0.1l8,4.6c0.7,0.4,1.1,1.1,1,1.7
							c0,2.9,0,3.9-0.1,4.3l0,0l0.1,23v0.1c0,0.5-0.4,1-0.9,1.3l-14.2,8.2C25.4,63,25.3,63.1,25.1,63.1z"/>
						<g>
							<polygon class="st2" points="19.9,37.1 18,36 6.9,42.4 8.8,43.5 							"/>
							<polygon class="st4" points="8.8,43.5 8.8,44.9 15.3,41.1 18.9,41.4 19.9,40.8 19.9,37.1 							"/>
							<polygon class="st1" points="8.8,44.9 8.8,43.5 6.9,42.4 6.9,43.8 							"/>
							<path class="st3" d="M8.8,46.9c-0.2,0-0.3,0-0.5-0.1l-2.5-1.3c-0.3-0.2-0.5-0.5-0.5-0.9v-2.5c0-0.4,0.2-0.7,0.5-0.9L17,34.8
								c0.3-0.2,0.7-0.2,1,0l2.5,1.4c0.3,0.2,0.5,0.5,0.5,0.9v4.8c0,0.4-0.2,0.7-0.5,0.9l-1,0.5c-0.2,0.1-0.3,0.1-0.5,0.1l-3.3-0.2
								l-6.2,3.6C9.2,46.9,9,46.9,8.8,46.9z M7.4,44l1.4,0.8l6-3.5c0.2-0.1,0.4-0.1,0.6-0.1l3.3,0.2l0.2-0.1v-3.6l-1.5-0.9l-10,5.8
								V44z"/>
						</g>
						<g>
							<polygon class="st1" points="26.7,29.8 27.5,12.2 27.5,9.6 25.4,9.1 25.4,11.1 23.5,28.3 							"/>
							<polygon class="st4" points="29.5,28.2 26.7,29.8 27.5,9.6 29.5,9.1 							"/>
							<path class="st2" d="M25,8.9l1.8,1c0.4,0.2,0.9,0.2,1.3,0L29.8,9l-2.9-1.8L25,8.9z"/>
							<path class="st3" d="M26.9,30.5c-0.8,0-1.6-0.2-2.4-0.7L23.1,29c-0.3-0.2-0.5-0.6-0.5-1l1.8-17V8.4c0-0.9,0.6-1.7,1.5-1.9
								h0.2c0.7-0.1,1.3,0,1.9,0.3l1.3,0.8C30,8,30.4,8.7,30.5,9.5l0.1,1.3V28c0,0.1,0,0.2,0,0.3c-0.2,0.6-0.5,1.1-1.2,1.5
								C28.6,30.3,27.8,30.5,26.9,30.5z M24.7,27.7l0.8,0.5c0.9,0.5,1.9,0.5,2.7,0c0.2-0.1,0.3-0.2,0.3-0.3v-17l-0.1-1.3
								c0-0.1-0.1-0.2-0.2-0.3L27,8.6c-0.1-0.1-0.3-0.1-0.4-0.1h-0.1v2.6v0.1L24.7,27.7z M29.5,28.1L29.5,28.1L29.5,28.1z"/>
						</g>
					</g>
					<path class="st4" d="M110,109.5c-6.3,0-13.3-2-18.8-4.1c-3.5-1.3-7.1-3-10.4-5L76,97.7c-0.5-0.3-0.6-0.9-0.4-1.4
						c0.3-0.5,0.9-0.6,1.4-0.4l4.7,2.7c3.3,1.9,6.7,3.5,10.1,4.8c6.9,2.6,19.5,6.3,27,1.9c2-1.2,3-2.5,3.1-4.1v-0.1v-4
						c0-0.6,0.4-1,1-1s1,0.4,1,1v4.2c0,0.1,0,0.2,0,0.2c-0.2,2.2-1.6,4.1-4.1,5.6C117,108.8,113.6,109.5,110,109.5z"/>
					<path class="st3" d="M120.1,107.2c-0.3,0-0.6-0.1-0.8-0.4c-0.4-0.4-0.3-1.1,0.1-1.4c2-1.7,2.4-2.7,2.5-4.1v-0.1v-4
						c0-0.6,0.4-1,1-1s1,0.4,1,1v4.2c0,0.1,0,0.2,0,0.2c-0.2,2.1-1.1,3.6-3.2,5.4C120.6,107.1,120.3,107.2,120.1,107.2z"/>
					<path class="st1" d="M88,95.7c-0.3,0-0.7-0.2-0.9-0.5c-0.3-0.5-0.1-1.1,0.4-1.4l15.9-9.1c0.5-0.3,1.1-0.1,1.4,0.4
						s0.1,1.1-0.4,1.4l-15.9,9.1C88.3,95.6,88.1,95.7,88,95.7z"/>
					<path class="st3" d="M122.8,99.6c-0.1,0-0.2,0-0.3,0c-0.5-0.1-0.9-0.7-0.7-1.2c1.4-5.1-8.3-12.5-12.1-14.9l-4.8-2.8l-2.2,1.5
						c-0.3,0.2-0.7,0.2-1.1,0l-55-31.8c-0.2-0.1-0.3-0.2-0.4-0.4l-3.1-5.5c-0.3-0.5-0.1-1.1,0.4-1.4c0.5-0.3,1.1-0.1,1.4,0.4
						l2.9,5.2L102,80l2.2-1.5c0.3-0.2,0.7-0.2,1.1,0l5.4,3.1c0.6,0.4,15.1,9.5,13,17.1C123.7,99.4,123.3,99.6,122.8,99.6z"/>
					<path class="st3" d="M21.4,16.6c-0.3,0-0.7-0.2-0.9-0.5c-0.3-0.5-0.1-1.1,0.4-1.4l3.9-2.2c0.5-0.3,1.1-0.1,1.4,0.4
						s0.1,1.1-0.4,1.4l-3.9,2.2C21.7,16.5,21.6,16.6,21.4,16.6z"/>
					<g>
						<polygon class="st1" points="112.7,101.1 113.4,83.4 113.4,76.8 111.4,76.4 111.4,82.4 109.4,99.6 						"/>
						<polygon class="st4" points="115.4,99.5 112.7,101.1 113.4,76.8 115.4,76.4 						"/>
						<path class="st2" d="M110.9,76.1l1.8,1c0.4,0.2,0.9,0.2,1.3,0l1.7-0.9l-2.9-1.8L110.9,76.1z"/>
						<path class="st3" d="M109.6,101.6C109.5,101.6,109.5,101.6,109.6,101.6c-0.6,0-1-0.5-1-1.1l1.8-25c0-0.8,0.6-1.6,1.5-1.8h0.2
							c0.7-0.1,1.3,0,1.9,0.3l1.3,0.8c0.7,0.4,1.1,1.1,1.1,1.9l0.1,3.4l0.1,19.9c0,0.6-0.4,1-1,1s-1-0.4-1-1l-0.2-23.3
							c0-0.1-0.1-0.2-0.2-0.3l-1.3-0.8c-0.1-0.1-0.3-0.1-0.4-0.1h-0.2l-1.8,25C110.5,101.2,110.1,101.6,109.6,101.6z M112.4,75.7
							L112.4,75.7L112.4,75.7z"/>
					</g>
					<path class="st4" d="M110.9,102.2c-10.9,0-27.8-8.7-28.7-9.1c-0.5-0.3-0.7-0.9-0.4-1.3s0.9-0.7,1.3-0.4c0.1,0,6.2,3.2,13.4,5.8
						c9.2,3.3,15.9,4,19.2,2.2c1.1-0.6,1.8-1.4,2.1-2.2c0.2-0.5,0.8-0.8,1.3-0.6c0.5,0.2,0.8,0.8,0.6,1.3c-0.5,1.3-1.5,2.4-3,3.2
						C115.1,101.9,113.2,102.2,110.9,102.2z"/>
					<polygon class="st3" points="27.5,45.4 36.7,40.1 36.7,34.3 27.5,39.6 					"/>
					<path class="st3" d="M27.5,46.4c-0.2,0-0.3,0-0.5-0.1c-0.3-0.2-0.5-0.5-0.5-0.9v-5.8c0-0.4,0.2-0.7,0.5-0.9l9.2-5.3
						c0.3-0.2,0.7-0.2,1,0s0.5,0.5,0.5,0.9v5.8c0,0.4-0.2,0.7-0.5,0.9L28,46.2C27.8,46.3,27.7,46.4,27.5,46.4z M28.5,40.2v3.5
						l7.2-4.1V36L28.5,40.2z"/>
					<path class="st1" d="M27.7,51.5c-0.3,0-0.7-0.2-0.9-0.5c-0.3-0.5-0.1-1.1,0.4-1.4l8.8-5.1c0.5-0.3,1.1-0.1,1.4,0.4
						c0.3,0.5,0.1,1.1-0.4,1.4l-8.8,5.1C28,51.4,27.8,51.5,27.7,51.5z"/>
					<g>
						<g>
							<g>
								<polygon class="st5" points="41.9,63.9 35.2,60 35.2,69 41.9,72.9 								"/>
							</g>
							<polygon class="st6" points="55.7,56.1 52.7,57.7 49.8,59.4 46.8,61.1 46.8,61.1 41.9,63.9 41.9,72.9 46.8,70.1 46.8,70.1 
								49.8,68.4 52.7,66.7 55.7,65 58.6,63.3 58.6,61.1 58.6,58.8 58.6,56.6 58.6,54.4 							"/>
							<g>
								<polygon class="st2" points="35.2,60 41.9,63.9 58.6,54.4 51.9,50.5 								"/>
								<path class="st6" d="M41.9,64.9c-0.2,0-0.3,0-0.5-0.1l-6.7-3.9c-0.3-0.2-0.5-0.5-0.5-0.9s0.2-0.7,0.5-0.9l16.8-9.6
									c0.3-0.2,0.7-0.2,1,0l6.7,3.9c0.3,0.2,0.5,0.5,0.5,0.9s-0.2,0.7-0.5,0.9l-16.8,9.6C42.2,64.9,42.1,64.9,41.9,64.9z M37.2,60
									l4.7,2.7l14.7-8.4l-4.7-2.7L37.2,60z"/>
							</g>
							<path class="st5" d="M45.7,71.3c-0.6,0-1-0.4-1-1v-8.1l-6.1-3.5c-0.5-0.3-0.6-0.9-0.4-1.4c0.3-0.5,0.9-0.6,1.4-0.4l6.6,3.8
								c0.3,0.2,0.5,0.5,0.5,0.9v8.7C46.7,70.9,46.2,71.3,45.7,71.3z"/>
							<path class="st5" d="M54.8,66.5c-0.6,0-1-0.4-1-1v-8.4l-6.1-3.5c-0.5-0.3-0.6-0.9-0.4-1.4c0.3-0.5,0.9-0.6,1.4-0.4l6.6,3.8
								c0.3,0.2,0.5,0.5,0.5,0.9v9C55.8,66,55.4,66.5,54.8,66.5z"/>
							<path class="st5" d="M50.3,68.7c-0.6,0-1-0.4-1-1v-8.3l-6.1-3.5c-0.5-0.3-0.6-0.9-0.4-1.4c0.3-0.5,0.9-0.6,1.4-0.4l6.6,3.8
								c0.3,0.2,0.5,0.5,0.5,0.9v8.9C51.3,68.3,50.8,68.7,50.3,68.7z"/>
							<path class="st6" d="M41.9,73.9c-0.2,0-0.3,0-0.5-0.1c-0.3-0.2-0.5-0.5-0.5-0.9v-9c0-0.4,0.2-0.7,0.5-0.9l5-2.8
								c0,0,0,0,0.1,0l11.7-6.7c0.3-0.2,0.7-0.2,1,0s0.5,0.5,0.5,0.9v9c0,0.4-0.2,0.7-0.5,0.9l-11.8,6.8h-0.1l-4.9,2.8
								C42.2,73.8,42,73.9,41.9,73.9z M42.9,64.5v6.7l3.5-2c0,0,0,0,0.1,0l11.2-6.4v-6.6L56.3,57l0,0l-9,5c0,0,0,0-0.1,0L42.9,64.5z
								 M55.7,56.1L55.7,56.1L55.7,56.1z"/>
							<path class="st7" d="M41.9,73.9c-0.2,0-0.3,0-0.5-0.1l-6.7-3.9c-0.3-0.2-0.5-0.5-0.5-0.9v-9c0-0.4,0.2-0.7,0.5-0.9l16.8-9.6
								c0.3-0.2,0.7-0.2,1,0l6.7,3.9c0.3,0.2,0.5,0.5,0.5,0.9v9c0,0.4-0.2,0.7-0.5,0.9L50.7,69l-8.3,4.7
								C42.2,73.8,42.1,73.9,41.9,73.9z M36.2,68.4l5.7,3.3l15.8-9v-7.8L52,51.6l-15.8,9V68.4z"/>
						</g>
						<g>
							<g>
								<polygon class="st5" points="48.6,67.8 41.9,63.9 41.9,72.9 48.6,76.8 								"/>
							</g>
							<polygon class="st6" points="62.4,59.9 59.4,61.6 56.5,63.3 53.6,65 53.6,65 48.6,67.8 48.6,76.8 53.6,74 53.6,74 56.5,72.3 
								59.4,70.6 62.4,68.9 65.4,67.2 65.4,65 65.4,62.7 65.4,60.5 65.4,58.2 							"/>
							<g>
								<polygon class="st2" points="41.9,63.9 48.6,67.8 65.4,58.2 58.6,54.4 								"/>
								<path class="st6" d="M48.6,68.8c-0.2,0-0.3,0-0.5-0.1l-6.7-3.9c-0.3-0.2-0.5-0.5-0.5-0.9s0.2-0.7,0.5-0.9l16.8-9.6
									c0.3-0.2,0.7-0.2,1,0l6.7,3.9c0.3,0.2,0.5,0.5,0.5,0.9s-0.2,0.7-0.5,0.9l-16.8,9.6C48.9,68.8,48.8,68.8,48.6,68.8z
									 M43.9,63.9l4.7,2.7l14.7-8.4l-4.7-2.7L43.9,63.9z"/>
							</g>
							<path class="st5" d="M52.4,75.2c-0.6,0-1-0.4-1-1v-8.1l-6.1-3.5c-0.5-0.3-0.6-0.9-0.4-1.4c0.3-0.5,0.9-0.6,1.4-0.4l6.6,3.8
								c0.3,0.2,0.5,0.5,0.5,0.9v8.7C53.4,74.8,52.9,75.2,52.4,75.2z"/>
							<path class="st5" d="M61.6,70.3c-0.6,0-1-0.4-1-1v-8.4l-6.1-3.5c-0.5-0.3-0.6-0.9-0.4-1.4c0.3-0.5,0.9-0.6,1.4-0.4l6.6,3.8
								c0.3,0.2,0.5,0.5,0.5,0.9v9C62.6,69.9,62.1,70.3,61.6,70.3z"/>
							<path class="st5" d="M57,72.6c-0.6,0-1-0.4-1-1v-8.3l-6.1-3.5c-0.5-0.3-0.6-0.9-0.4-1.4c0.3-0.5,0.9-0.6,1.4-0.4l6.6,3.8
								c0.3,0.2,0.5,0.5,0.5,0.9v8.9C58,72.1,57.5,72.6,57,72.6z"/>
							<path class="st6" d="M48.6,77.8c-0.2,0-0.3,0-0.5-0.1c-0.3-0.2-0.5-0.5-0.5-0.9v-9c0-0.4,0.2-0.7,0.5-0.9l5-2.8
								c0,0,0,0,0.1,0l11.7-6.7c0.3-0.2,0.7-0.2,1,0s0.5,0.5,0.5,0.9v9c0,0.4-0.2,0.7-0.5,0.9L54.1,75H54l-4.9,2.8
								C48.9,77.7,48.8,77.8,48.6,77.8z M49.6,68.4V75l3.5-2c0,0,0,0,0.1,0l11.2-6.4V60L63,60.8l0,0l-8.9,5.1c0,0,0,0-0.1,0
								L49.6,68.4z M62.4,59.9L62.4,59.9L62.4,59.9z"/>
							<path class="st7" d="M48.6,77.8c-0.2,0-0.3,0-0.5-0.1l-6.7-3.9c-0.3-0.2-0.5-0.5-0.5-0.9v-9c0-0.4,0.2-0.7,0.5-0.9l16.8-9.6
								c0.3-0.2,0.7-0.2,1,0l6.7,3.9c0.3,0.2,0.5,0.5,0.5,0.9v9c0,0.4-0.2,0.7-0.5,0.9l-8.4,4.8l-8.3,4.7
								C48.9,77.7,48.8,77.8,48.6,77.8z M42.9,72.3l5.7,3.3l15.8-9v-7.8l-5.7-3.3l-15.8,9V72.3z"/>
						</g>
						<g>
							<g>
								<polygon class="st5" points="55.3,71.7 48.6,67.8 48.6,76.8 55.3,80.6 								"/>
							</g>
							<polygon class="st6" points="69.2,63.8 66.2,65.5 63.2,67.2 60.3,68.9 60.3,68.9 55.3,71.7 55.3,80.6 60.3,77.8 60.3,77.8 
								63.2,76.1 66.2,74.5 69.1,72.8 72.1,71.1 72.1,68.8 72.1,66.6 72.1,64.4 72.1,62.1 							"/>
							<g>
								<polygon class="st2" points="48.6,67.8 55.3,71.7 72.1,62.1 65.4,58.2 								"/>
								<path class="st6" d="M55.3,72.7c-0.2,0-0.3,0-0.5-0.1l-6.7-3.9c-0.3-0.2-0.5-0.5-0.5-0.9s0.2-0.7,0.5-0.9l16.8-9.6
									c0.3-0.2,0.7-0.2,1,0l6.7,3.9c0.3,0.2,0.5,0.5,0.5,0.9s-0.2,0.7-0.5,0.9l-16.8,9.6C55.7,72.6,55.5,72.7,55.3,72.7z
									 M50.6,67.8l4.7,2.7L70,62.1l-4.7-2.7L50.6,67.8z"/>
							</g>
							<path class="st5" d="M59.1,79.1c-0.6,0-1-0.4-1-1V70L52,66.5c-0.5-0.3-0.6-0.9-0.4-1.4c0.3-0.5,0.9-0.6,1.4-0.4l6.6,3.8
								c0.3,0.2,0.5,0.5,0.5,0.9v8.7C60.1,78.6,59.7,79.1,59.1,79.1z"/>
							<path class="st5" d="M68.3,74.2c-0.6,0-1-0.4-1-1v-8.4l-6.1-3.5c-0.5-0.3-0.6-0.9-0.4-1.4c0.3-0.5,0.9-0.6,1.4-0.4l6.6,3.8
								c0.3,0.2,0.5,0.5,0.5,0.9v9C69.3,73.8,68.9,74.2,68.3,74.2z"/>
							<path class="st5" d="M63.7,76.5c-0.6,0-1-0.4-1-1v-8.3l-6.1-3.5c-0.5-0.3-0.6-0.9-0.4-1.4c0.3-0.5,0.9-0.6,1.4-0.4l6.6,3.8
								c0.3,0.2,0.5,0.5,0.5,0.9v8.9C64.7,76,64.3,76.5,63.7,76.5z"/>
							<path class="st6" d="M55.3,81.6c-0.2,0-0.3,0-0.5-0.1c-0.3-0.2-0.5-0.5-0.5-0.9v-9c0-0.4,0.2-0.7,0.5-0.9l5-2.8
								c0,0,0,0,0.1,0l11.7-6.7c0.3-0.2,0.7-0.2,1,0s0.5,0.5,0.5,0.9v9c0,0.4-0.2,0.7-0.5,0.9l-11.8,6.8h-0.1l-4.9,2.8
								C55.7,81.6,55.5,81.6,55.3,81.6z M56.3,72.3V79l3.5-2c0,0,0,0,0.1,0l11.2-6.4V64l-1.4,0.8l0,0l-8.8,5.1c0,0,0,0-0.1,0
								L56.3,72.3z M69.2,63.8L69.2,63.8L69.2,63.8z"/>
							<path class="st7" d="M55.3,81.6c-0.2,0-0.3,0-0.5-0.1l-6.7-3.9c-0.3-0.2-0.5-0.5-0.5-0.9v-9c0-0.4,0.2-0.7,0.5-0.9l16.8-9.6
								c0.3-0.2,0.7-0.2,1,0l6.7,3.9c0.3,0.2,0.5,0.5,0.5,0.9v9c0,0.4-0.2,0.7-0.5,0.9l-8.4,4.8l-8.3,4.7
								C55.7,81.6,55.5,81.6,55.3,81.6z M49.6,76.2l5.7,3.3l15.8-9v-7.8l-5.7-3.3l-15.8,9C49.6,68.4,49.6,76.2,49.6,76.2z"/>
						</g>
						<g>
							<g>
								<polygon class="st5" points="62.1,75.5 55.3,71.7 55.3,80.6 62.1,84.5 								"/>
							</g>
							<polygon class="st6" points="75.9,67.7 72.9,69.4 70,71.1 67,72.7 67,72.7 62.1,75.5 62.1,84.5 67,81.7 67,81.7 70,80 
								72.9,78.3 75.8,76.6 78.8,74.9 78.8,72.7 78.8,70.5 78.8,68.2 78.8,66 							"/>
							<g>
								<polygon class="st2" points="55.3,71.7 62.1,75.5 78.8,66 72.1,62.1 								"/>
								<path class="st6" d="M62.1,76.5c-0.2,0-0.3,0-0.5-0.1l-6.7-3.9c-0.3-0.2-0.5-0.5-0.5-0.9s0.2-0.7,0.5-0.9l16.8-9.6
									c0.3-0.2,0.7-0.2,1,0l6.7,3.9c0.3,0.2,0.5,0.5,0.5,0.9s-0.2,0.7-0.5,0.9l-16.8,9.6C62.4,76.5,62.2,76.5,62.1,76.5z
									 M57.4,71.7l4.7,2.7L76.8,66l-4.7-2.7L57.4,71.7z"/>
							</g>
							<path class="st5" d="M65.9,82.9c-0.6,0-1-0.4-1-1v-8.1l-6.1-3.5c-0.5-0.3-0.6-0.9-0.4-1.4c0.3-0.5,0.9-0.6,1.4-0.4l6.6,3.8
								c0.3,0.2,0.5,0.5,0.5,0.9v8.7C66.9,82.5,66.4,82.9,65.9,82.9z"/>
							<path class="st5" d="M75,78.1c-0.6,0-1-0.4-1-1v-8.4l-6.1-3.5c-0.5-0.3-0.6-0.9-0.4-1.4c0.3-0.5,0.9-0.6,1.4-0.4l6.6,3.8
								c0.3,0.2,0.5,0.5,0.5,0.9v9C76,77.6,75.6,78.1,75,78.1z"/>
							<path class="st5" d="M70.4,80.3c-0.6,0-1-0.4-1-1V71l-6.1-3.5c-0.5-0.3-0.6-0.9-0.4-1.4c0.3-0.5,0.9-0.6,1.4-0.4l6.6,3.8
								c0.3,0.2,0.5,0.5,0.5,0.9v8.9C71.4,79.9,71,80.3,70.4,80.3z"/>
							<path class="st6" d="M62.1,85.5c-0.2,0-0.3,0-0.5-0.1c-0.3-0.2-0.5-0.5-0.5-0.9v-9c0-0.4,0.2-0.7,0.5-0.9l5-2.8
								c0,0,0,0,0.1,0l11.7-6.7c0.3-0.2,0.7-0.2,1,0s0.5,0.5,0.5,0.9v9c0,0.4-0.2,0.7-0.5,0.9l-11.8,6.8h-0.1l-4.9,2.8
								C62.4,85.5,62.2,85.5,62.1,85.5z M63.1,76.1v6.7l3.5-2c0,0,0,0,0.1,0l11.2-6.4v-6.6l-1.4,0.8l0,0l-8.9,5.1c0,0,0,0-0.1,0
								L63.1,76.1z M75.9,67.7L75.9,67.7L75.9,67.7z"/>
							<path class="st7" d="M62.1,85.5c-0.2,0-0.3,0-0.5-0.1l-6.7-3.9c-0.3-0.2-0.5-0.5-0.5-0.9v-9c0-0.4,0.2-0.7,0.5-0.9l16.8-9.6
								c0.3-0.2,0.7-0.2,1,0l6.7,3.9c0.3,0.2,0.5,0.5,0.5,0.9v9c0,0.4-0.2,0.7-0.5,0.9L71,80.6l-8.3,4.7
								C62.4,85.5,62.2,85.5,62.1,85.5z M56.3,80.1l5.7,3.3l15.8-9v-7.8l-5.7-3.3l-15.8,9C56.3,72.3,56.3,80.1,56.3,80.1z"/>
						</g>
						<g>
							<g>
								<polygon class="st5" points="68.8,79.4 62.1,75.6 62.1,84.5 68.8,88.4 								"/>
							</g>
							<polygon class="st6" points="82.6,71.6 79.6,73.2 76.7,74.9 73.8,76.6 73.8,76.6 68.8,79.4 68.8,88.4 73.8,85.6 73.8,85.6 
								76.7,83.9 79.6,82.2 82.6,80.5 85.6,78.8 85.6,76.6 85.6,74.3 85.6,72.1 85.6,69.9 							"/>
							<g>
								<polygon class="st2" points="62.1,75.6 68.8,79.4 85.6,69.9 78.8,66 								"/>
								<path class="st6" d="M68.8,80.4c-0.2,0-0.3,0-0.5-0.1l-6.7-3.9c-0.3-0.2-0.5-0.5-0.5-0.9s0.2-0.7,0.5-0.9L78.4,65
									c0.3-0.2,0.7-0.2,1,0l6.7,3.9c0.3,0.2,0.5,0.5,0.5,0.9s-0.2,0.7-0.5,0.9l-16.8,9.6C69.1,80.4,69,80.4,68.8,80.4z M64.1,75.6
									l4.7,2.7l14.7-8.4l-4.7-2.7L64.1,75.6z"/>
							</g>
							<path class="st5" d="M72.6,86.8c-0.6,0-1-0.4-1-1v-8.1l-6.1-3.5c-0.5-0.3-0.6-0.9-0.4-1.4c0.3-0.5,0.9-0.6,1.4-0.4l6.6,3.8
								c0.3,0.2,0.5,0.5,0.5,0.9v8.7C73.6,86.4,73.1,86.8,72.6,86.8z"/>
							<path class="st5" d="M81.8,82c-0.6,0-1-0.4-1-1v-8.4l-6.1-3.5c-0.5-0.3-0.6-0.9-0.4-1.4c0.3-0.5,0.9-0.6,1.4-0.4l6.6,3.8
								c0.3,0.2,0.5,0.5,0.5,0.9v9C82.8,81.5,82.3,82,81.8,82z"/>
							<path class="st5" d="M77.2,84.2c-0.6,0-1-0.4-1-1v-8.3l-6.1-3.5c-0.5-0.3-0.6-0.9-0.4-1.4c0.3-0.5,0.9-0.6,1.4-0.4l6.6,3.8
								c0.3,0.2,0.5,0.5,0.5,0.9v8.9C78.2,83.8,77.7,84.2,77.2,84.2z"/>
							<path class="st6" d="M68.8,89.4c-0.2,0-0.3,0-0.5-0.1c-0.3-0.2-0.5-0.5-0.5-0.9v-9c0-0.4,0.2-0.7,0.5-0.9l5-2.8
								c0,0,0,0,0.1,0L85.1,69c0.3-0.2,0.7-0.2,1,0s0.5,0.5,0.5,0.9v9c0,0.4-0.2,0.7-0.5,0.9l-11.8,6.8h-0.1l-4.9,2.8
								C69.1,89.3,69,89.4,68.8,89.4z M69.8,80v6.7l3.5-2c0,0,0,0,0.1,0l11.2-6.4v-6.6l-1.4,0.8l0,0l-8.9,5.1c0,0,0,0-0.1,0L69.8,80
								z M82.6,71.6L82.6,71.6L82.6,71.6z"/>
							<path class="st7" d="M68.8,89.4c-0.2,0-0.3,0-0.5-0.1l-6.7-3.9c-0.3-0.2-0.5-0.5-0.5-0.9v-9c0-0.4,0.2-0.7,0.5-0.9L78.4,65
								c0.3-0.2,0.7-0.2,1,0l6.7,3.9c0.3,0.2,0.5,0.5,0.5,0.9v9c0,0.4-0.2,0.7-0.5,0.9l-8.4,4.8l-8.3,4.7
								C69.1,89.4,69,89.4,68.8,89.4z M63.1,83.9l5.7,3.3l15.8-9v-7.8l-5.7-3.3l-15.8,9C63.1,76.1,63.1,83.9,63.1,83.9z"/>
						</g>
						<g>
							<g>
								<polygon class="st5" points="75.5,83.3 68.8,79.4 68.8,88.4 75.5,92.3 								"/>
							</g>
							<polygon class="st6" points="89.3,75.4 86.4,77.1 83.4,78.8 80.5,80.5 80.5,80.5 75.5,83.3 75.5,92.3 80.5,89.5 80.5,89.5 
								83.4,87.8 86.4,86.1 89.3,84.4 92.3,82.7 92.3,80.5 92.3,78.2 92.3,76 92.3,73.7 							"/>
							<g>
								<polygon class="st2" points="68.8,79.4 75.5,83.3 92.3,73.7 85.6,69.9 								"/>
								<path class="st6" d="M75.5,84.3c-0.2,0-0.3,0-0.5-0.1l-6.7-3.9c-0.3-0.2-0.5-0.5-0.5-0.9s0.2-0.7,0.5-0.9L85.1,69
									c0.3-0.2,0.7-0.2,1,0l6.7,3.9c0.3,0.2,0.5,0.5,0.5,0.9s-0.2,0.7-0.5,0.9L76,84.2C75.9,84.3,75.7,84.3,75.5,84.3z M70.8,79.4
									l4.7,2.7l14.7-8.4L85.6,71L70.8,79.4z"/>
							</g>
							<path class="st5" d="M79.3,90.7c-0.6,0-1-0.4-1-1v-8.1L72.2,78c-0.5-0.3-0.6-0.9-0.4-1.4c0.3-0.5,0.9-0.6,1.4-0.4l6.6,3.8
								c0.3,0.2,0.5,0.5,0.5,0.9v8.7C80.3,90.2,79.9,90.7,79.3,90.7z"/>
							<path class="st5" d="M88.5,85.8c-0.6,0-1-0.4-1-1v-8.4l-6.1-3.5c-0.5-0.3-0.6-0.9-0.4-1.4c0.3-0.5,0.9-0.6,1.4-0.4L89,75
								c0.3,0.2,0.5,0.5,0.5,0.9v9C89.5,85.4,89,85.8,88.5,85.8z"/>
							<path class="st5" d="M83.9,88.1c-0.6,0-1-0.4-1-1v-8.3l-6.1-3.5c-0.5-0.3-0.6-0.9-0.4-1.4c0.3-0.5,0.9-0.6,1.4-0.4l6.6,3.8
								c0.3,0.2,0.5,0.5,0.5,0.9v8.9C84.9,87.6,84.4,88.1,83.9,88.1z"/>
							<path class="st6" d="M75.5,93.3c-0.2,0-0.3,0-0.5-0.1c-0.3-0.2-0.5-0.5-0.5-0.9v-9c0-0.4,0.2-0.7,0.5-0.9l5-2.8
								c0,0,0,0,0.1,0l11.7-6.7c0.3-0.2,0.7-0.2,1,0s0.5,0.5,0.5,0.9v9c0,0.4-0.2,0.7-0.5,0.9L81,90.3h-0.1L76,93.1
								C75.9,93.2,75.7,93.3,75.5,93.3z M76.5,83.9v6.7l3.5-2c0,0,0,0,0.1,0l11.2-6.4v-6.6l-1.4,0.8l0,0l-8.9,5c0,0,0,0-0.1,0
								L76.5,83.9z M89.3,75.4L89.3,75.4L89.3,75.4z"/>
							<path class="st7" d="M75.5,93.3c-0.2,0-0.3,0-0.5-0.1l-6.7-3.9c-0.3-0.2-0.5-0.5-0.5-0.9v-9c0-0.4,0.2-0.7,0.5-0.9L85.1,69
								c0.3-0.2,0.7-0.2,1,0l6.7,3.9c0.3,0.2,0.5,0.5,0.5,0.9v9c0,0.4-0.2,0.7-0.5,0.9l-8.4,4.8L76,93.1
								C75.9,93.2,75.7,93.3,75.5,93.3z M69.8,87.8l5.7,3.3l15.8-9v-7.8L85.6,71l-15.8,9C69.8,80,69.8,87.8,69.8,87.8z"/>
						</g>
						<g>
							<g>
								<polygon class="st5" points="48.6,58.8 41.9,54.9 41.9,63.9 48.6,67.8 								"/>
							</g>
							<polygon class="st6" points="62.4,51 59.4,52.6 56.5,54.3 53.6,56 53.6,56 48.6,58.8 48.6,67.8 53.6,65 53.6,65 56.5,63.3 
								59.4,61.6 62.4,59.9 65.4,58.2 65.4,56 65.4,53.7 65.4,51.5 65.4,49.3 							"/>
							<g>
								<polygon class="st2" points="41.9,54.9 48.6,58.8 65.4,49.3 58.6,45.4 								"/>
								<path class="st6" d="M48.6,59.8c-0.2,0-0.3,0-0.5-0.1l-6.7-3.9c-0.3-0.2-0.5-0.5-0.5-0.9s0.2-0.7,0.5-0.9l16.8-9.6
									c0.3-0.2,0.7-0.2,1,0l6.7,3.9c0.3,0.2,0.5,0.5,0.5,0.9s-0.2,0.7-0.5,0.9l-16.8,9.6C49,59.8,48.8,59.8,48.6,59.8z M43.9,54.9
									l4.7,2.7l14.7-8.4l-4.7-2.7L43.9,54.9z"/>
							</g>
							<path class="st5" d="M52.4,66.2c-0.6,0-1-0.4-1-1v-8.1l-6.1-3.5c-0.5-0.3-0.6-0.9-0.4-1.4c0.3-0.5,0.9-0.6,1.4-0.4l6.6,3.8
								c0.3,0.2,0.5,0.5,0.5,0.9v8.7C53.4,65.8,53,66.2,52.4,66.2z"/>
							<path class="st5" d="M61.6,61.4c-0.6,0-1-0.4-1-1V52l-6.1-3.5c-0.5-0.3-0.6-0.9-0.4-1.4c0.3-0.5,0.9-0.6,1.4-0.4l6.6,3.8
								c0.3,0.2,0.5,0.5,0.5,0.9v9C62.6,60.9,62.1,61.4,61.6,61.4z"/>
							<path class="st5" d="M57,63.6c-0.6,0-1-0.4-1-1v-8.3l-6.1-3.5c-0.5-0.3-0.6-0.9-0.4-1.4c0.3-0.5,0.9-0.6,1.4-0.4l6.6,3.8
								c0.3,0.2,0.5,0.5,0.5,0.9v8.9C58,63.2,57.5,63.6,57,63.6z"/>
							<path class="st6" d="M48.6,68.8c-0.2,0-0.3,0-0.5-0.1c-0.3-0.2-0.5-0.5-0.5-0.9v-9c0-0.4,0.2-0.7,0.5-0.9l5-2.8
								c0,0,0,0,0.1,0l11.7-6.7c0.3-0.2,0.7-0.2,1,0s0.5,0.5,0.5,0.9v9c0,0.4-0.2,0.7-0.5,0.9L54.1,66H54l-4.9,2.8
								C49,68.7,48.8,68.8,48.6,68.8z M49.6,59.4v6.7l3.5-2c0,0,0,0,0.1,0l11.2-6.4V51L63,51.8l0,0l-8.8,5.1c0,0,0,0-0.1,0
								L49.6,59.4z M62.4,51L62.4,51L62.4,51z"/>
							<path class="st7" d="M48.6,68.8c-0.2,0-0.3,0-0.5-0.1l-6.7-3.9c-0.3-0.2-0.5-0.5-0.5-0.9v-9c0-0.4,0.2-0.7,0.5-0.9l16.8-9.6
								c0.3-0.2,0.7-0.2,1,0l6.7,3.9c0.3,0.2,0.5,0.5,0.5,0.9v9c0,0.4-0.2,0.7-0.5,0.9l-8.4,4.8l-8.3,4.7
								C49,68.7,48.8,68.8,48.6,68.8z M42.9,63.3l5.7,3.3l15.8-9v-7.8l-5.7-3.3l-15.8,9V63.3z"/>
						</g>
						<g>
							<g>
								<polygon class="st5" points="55.3,62.7 48.6,58.8 48.6,67.8 55.3,71.7 								"/>
							</g>
							<polygon class="st6" points="69.2,54.8 66.2,56.5 63.2,58.2 60.3,59.9 60.3,59.9 55.3,62.7 55.3,71.7 60.3,68.9 60.3,68.9 
								63.2,67.2 66.2,65.5 69.1,63.8 72.1,62.1 72.1,59.9 72.1,57.6 72.1,55.4 72.1,53.1 							"/>
							<g>
								<polygon class="st2" points="48.6,58.8 55.3,62.7 72.1,53.1 65.4,49.3 								"/>
								<path class="st6" d="M55.3,63.7c-0.2,0-0.3,0-0.5-0.1l-6.7-3.9c-0.3-0.2-0.5-0.5-0.5-0.9s0.2-0.7,0.5-0.9l16.8-9.6
									c0.3-0.2,0.7-0.2,1,0l6.7,3.9c0.3,0.2,0.5,0.5,0.5,0.9s-0.2,0.7-0.5,0.9l-16.8,9.6C55.7,63.7,55.5,63.7,55.3,63.7z
									 M50.6,58.8l4.7,2.7L70,53.1l-4.7-2.7L50.6,58.8z"/>
							</g>
							<path class="st5" d="M59.1,70.1c-0.6,0-1-0.4-1-1V61L52,57.4c-0.5-0.3-0.6-0.9-0.4-1.4c0.3-0.5,0.9-0.6,1.4-0.4l6.6,3.8
								c0.3,0.2,0.5,0.5,0.5,0.9V69C60.1,69.7,59.7,70.1,59.1,70.1z"/>
							<path class="st5" d="M68.3,65.2c-0.6,0-1-0.4-1-1v-8.4l-6.1-3.5c-0.5-0.3-0.6-0.9-0.4-1.4c0.3-0.5,0.9-0.6,1.4-0.4l6.6,3.8
								c0.3,0.2,0.5,0.5,0.5,0.9v9C69.3,64.8,68.8,65.2,68.3,65.2z"/>
							<path class="st5" d="M63.7,67.5c-0.6,0-1-0.4-1-1v-8.3l-6.1-3.5c-0.5-0.3-0.6-0.9-0.4-1.4c0.3-0.5,0.9-0.6,1.4-0.4l6.6,3.8
								c0.3,0.2,0.5,0.5,0.5,0.9v8.9C64.7,67,64.3,67.5,63.7,67.5z"/>
							<path class="st6" d="M55.3,72.7c-0.2,0-0.3,0-0.5-0.1c-0.3-0.2-0.5-0.5-0.5-0.9v-9c0-0.4,0.2-0.7,0.5-0.9l5-2.8
								c0,0,0,0,0.1,0l11.7-6.7c0.3-0.2,0.7-0.2,1,0s0.5,0.5,0.5,0.9v9c0,0.4-0.2,0.7-0.5,0.9l-11.8,6.8h-0.1l-4.9,2.8
								C55.7,72.6,55.5,72.7,55.3,72.7z M56.3,63.3V70l3.5-2c0,0,0,0,0.1,0l11.2-6.4V55l-1.4,0.8l0,0l-8.9,5.1c0,0,0,0-0.1,0
								L56.3,63.3z M69.2,54.8L69.2,54.8L69.2,54.8z"/>
							<path class="st7" d="M55.3,72.7c-0.2,0-0.3,0-0.5-0.1l-6.7-3.9c-0.3-0.2-0.5-0.5-0.5-0.9v-9c0-0.4,0.2-0.7,0.5-0.9l16.8-9.6
								c0.3-0.2,0.7-0.2,1,0l6.7,3.9c0.3,0.2,0.5,0.5,0.5,0.9v9c0,0.4-0.2,0.7-0.5,0.9l-8.4,4.8l-8.3,4.7
								C55.7,72.6,55.5,72.7,55.3,72.7z M49.6,67.2l5.7,3.3l15.8-9v-7.8l-5.7-3.3l-15.8,9C49.6,59.4,49.6,67.2,49.6,67.2z"/>
						</g>
						<g>
							<g>
								<polygon class="st5" points="62.1,66.6 55.4,62.7 55.4,71.7 62.1,75.5 								"/>
							</g>
							<polygon class="st6" points="75.9,58.7 72.9,60.4 70,62.1 67,63.8 67,63.8 62.1,66.6 62.1,75.5 67,72.7 67,72.7 70,71 
								72.9,69.4 75.9,67.7 78.8,66 78.8,63.7 78.8,61.5 78.8,59.3 78.8,57 							"/>
							<g>
								<polygon class="st2" points="55.4,62.7 62.1,66.6 78.8,57 72.1,53.1 								"/>
								<path class="st6" d="M62.1,67.6c-0.2,0-0.3,0-0.5-0.1l-6.7-3.9c-0.3-0.2-0.5-0.5-0.5-0.9s0.2-0.7,0.5-0.9l16.8-9.6
									c0.3-0.2,0.7-0.2,1,0l6.7,3.9c0.3,0.2,0.5,0.5,0.5,0.9s-0.2,0.7-0.5,0.9l-16.8,9.6C62.4,67.5,62.3,67.6,62.1,67.6z
									 M57.4,62.7l4.7,2.7L76.8,57l-4.7-2.7L57.4,62.7z"/>
							</g>
							<path class="st5" d="M65.9,74c-0.6,0-1-0.4-1-1v-8.1l-6.1-3.5c-0.5-0.3-0.6-0.9-0.4-1.4c0.3-0.5,0.9-0.6,1.4-0.4l6.6,3.8
								c0.3,0.2,0.5,0.5,0.5,0.9V73C66.9,73.5,66.4,74,65.9,74z"/>
							<path class="st5" d="M75,69.1c-0.6,0-1-0.4-1-1v-8.4l-6-3.5c-0.5-0.3-0.6-0.9-0.4-1.4c0.3-0.5,0.9-0.6,1.4-0.4l6.6,3.8
								c0.3,0.2,0.5,0.5,0.5,0.9v9C76,68.7,75.6,69.1,75,69.1z"/>
							<path class="st5" d="M70.5,71.4c-0.6,0-1-0.4-1-1V62l-6.1-3.5c-0.5-0.3-0.6-0.9-0.4-1.4c0.3-0.5,0.9-0.6,1.4-0.4l6.6,3.8
								c0.3,0.2,0.5,0.5,0.5,0.9v8.9C71.5,70.9,71,71.4,70.5,71.4z"/>
							<path class="st6" d="M62.1,76.5c-0.2,0-0.3,0-0.5-0.1c-0.3-0.2-0.5-0.5-0.5-0.9v-9c0-0.4,0.2-0.7,0.5-0.9l5-2.8
								c0,0,0,0,0.1,0l11.7-6.7c0.3-0.2,0.7-0.2,1,0s0.5,0.5,0.5,0.9v9c0,0.4-0.2,0.7-0.5,0.9l-11.8,6.8h-0.1l-4.9,2.8
								C62.4,76.5,62.3,76.5,62.1,76.5z M63.1,67.2v6.7l3.5-2c0,0,0,0,0.1,0l11.2-6.4v-6.6l-1.4,0.8l0,0l-8.8,5.1c0,0,0,0-0.1,0
								L63.1,67.2z M75.9,58.7L75.9,58.7L75.9,58.7z"/>
							<path class="st7" d="M62.1,76.6c-0.2,0-0.3,0-0.5-0.1l-6.7-3.9c-0.3-0.2-0.5-0.5-0.5-0.9v-9c0-0.4,0.2-0.7,0.5-0.9l16.8-9.6
								c0.3-0.2,0.7-0.2,1,0l6.7,3.9c0.3,0.2,0.5,0.5,0.5,0.9v9c0,0.4-0.2,0.7-0.5,0.9L71,71.7l-8.3,4.7
								C62.4,76.5,62.3,76.6,62.1,76.6z M56.4,71.1l5.7,3.3l15.8-9v-7.8l-5.7-3.3l-15.8,9L56.4,71.1z"/>
						</g>
						<g>
							<g>
								<polygon class="st5" points="68.8,70.5 62.1,66.6 62.1,75.5 68.8,79.4 								"/>
							</g>
							<polygon class="st6" points="82.6,62.6 79.6,64.3 76.7,66 73.8,67.6 73.8,67.6 68.8,70.5 68.8,79.4 73.8,76.6 73.8,76.6 
								76.7,74.9 79.6,73.2 82.6,71.5 85.6,69.9 85.6,67.6 85.6,65.4 85.6,63.1 85.6,60.9 							"/>
							<g>
								<polygon class="st2" points="62.1,66.6 68.8,70.5 85.6,60.9 78.8,57 								"/>
								<path class="st6" d="M68.8,71.5c-0.2,0-0.3,0-0.5-0.1l-6.7-3.9c-0.3-0.2-0.5-0.5-0.5-0.9s0.2-0.7,0.5-0.9l16.8-9.6
									c0.3-0.2,0.7-0.2,1,0l6.7,3.9c0.3,0.2,0.5,0.5,0.5,0.9s-0.2,0.7-0.5,0.9l-16.8,9.6C69.1,71.4,69,71.5,68.8,71.5z M64.1,66.6
									l4.7,2.7l14.7-8.4l-4.7-2.7L64.1,66.6z"/>
							</g>
							<path class="st5" d="M72.6,77.9c-0.6,0-1-0.4-1-1v-8.1l-6.1-3.5c-0.5-0.3-0.6-0.9-0.4-1.4c0.3-0.5,0.9-0.6,1.4-0.4l6.6,3.8
								c0.3,0.2,0.5,0.5,0.5,0.9v8.7C73.6,77.4,73.1,77.9,72.6,77.9z"/>
							<path class="st5" d="M81.8,73c-0.6,0-1-0.4-1-1v-8.4l-6.1-3.5c-0.5-0.3-0.6-0.9-0.4-1.4c0.3-0.5,0.9-0.6,1.4-0.4l6.6,3.8
								c0.3,0.2,0.5,0.5,0.5,0.9v9C82.8,72.5,82.3,73,81.8,73z"/>
							<path class="st5" d="M77.2,75.2c-0.6,0-1-0.4-1-1v-8.3l-6.1-3.5c-0.5-0.3-0.6-0.9-0.4-1.4c0.3-0.5,0.9-0.6,1.4-0.4l6.6,3.8
								c0.3,0.2,0.5,0.5,0.5,0.9v8.9C78.2,74.8,77.7,75.2,77.2,75.2z"/>
							<path class="st6" d="M68.8,80.4c-0.2,0-0.3,0-0.5-0.1c-0.3-0.2-0.5-0.5-0.5-0.9v-9c0-0.4,0.2-0.7,0.5-0.9l5-2.8
								c0,0,0,0,0.1,0L85.1,60c0.3-0.2,0.7-0.2,1,0s0.5,0.5,0.5,0.9v9c0,0.4-0.2,0.7-0.5,0.9l-11.8,6.8h-0.1l-4.9,2.8
								C69.1,80.4,69,80.4,68.8,80.4z M69.8,71v6.7l3.5-2c0,0,0,0,0.1,0l11.2-6.4v-6.6l-1.4,0.8l0,0l-8.9,5.1c0,0,0,0-0.1,0L69.8,71
								z M82.6,62.6L82.6,62.6L82.6,62.6z"/>
							<path class="st7" d="M68.8,80.4c-0.2,0-0.3,0-0.5-0.1l-6.7-3.9c-0.3-0.2-0.5-0.5-0.5-0.9v-9c0-0.4,0.2-0.7,0.5-0.9L78.4,56
								c0.3-0.2,0.7-0.2,1,0l6.7,3.9c0.3,0.2,0.5,0.5,0.5,0.9v9c0,0.4-0.2,0.7-0.5,0.9l-8.4,4.8l-8.3,4.7
								C69.1,80.4,69,80.4,68.8,80.4z M63.1,75l5.7,3.3l15.8-9v-7.8l-5.7-3.3l-15.8,9C63.1,67.2,63.1,75,63.1,75z"/>
						</g>
					</g>
					<path class="st4" d="M78.7,95.2c-0.2,0-0.3,0-0.5-0.1L23.8,63.7c-0.2-0.1-0.3-0.2-0.4-0.4l-2.9-5.2L11,52.6
						c-0.5-0.3-0.6-0.9-0.4-1.4c0.3-0.5,0.9-0.6,1.4-0.4l9.7,5.6c0.2,0.1,0.3,0.2,0.4,0.4L25,62l54.2,31.3c0.5,0.3,0.6,0.9,0.4,1.4
						C79.4,95,79.1,95.2,78.7,95.2z"/>
					<path class="st4" d="M67.2,103.9c0,0,16.5,13.7,29.8,1.6c0,0-6.5-0.5-18.9-7.8C72.3,94.4,21,65,21,65l-3.1-5.7L5.1,51.8L6.8,59
						l2.6,2.8l2.5,9.5L67.2,103.9z"/>
					<path class="st3" d="M110.9,105.7c-12.2,0-28.4-8.1-31.9-9.9l-1.9,1.8c-0.3,0.3-0.8,0.4-1.2,0.1L20.4,65.8
						c-0.2-0.1-0.4-0.3-0.5-0.6l-3-5.3c-0.3-0.5-0.1-1.1,0.4-1.4c0.5-0.3,1.1-0.1,1.4,0.4l2.9,5.2l54.7,31.4l1.9-1.8
						c0.3-0.3,0.8-0.4,1.2-0.2c0.3,0.2,28.4,15.3,39.5,8.1c1.8-1.2,2.8-2.2,3.1-3.4c0.1-0.5,0.7-0.9,1.2-0.7
						c0.5,0.1,0.9,0.7,0.7,1.2c-0.4,1.7-1.7,3.1-3.9,4.5C117.4,105,114.3,105.7,110.9,105.7z"/>
					<path class="st1" d="M92.3,111.7c-0.2,0-0.3,0-0.5-0.1L8.9,64.1c-0.2-0.1-0.5-0.4-0.5-0.7c-0.1-0.5,0.2-1.1,0.8-1.2
						c0.4-0.1,0.8,0,1,0.3l82.6,47.4c0.5,0.3,0.6,0.9,0.4,1.4C93,111.5,92.6,111.7,92.3,111.7z"/>
					<path class="st3" d="M17.8,60.5c-0.2,0-0.3,0-0.5-0.1L5.6,53.6C4.6,53,4,52.1,4,51.2c0-1,0.6-1.8,1.6-2.4l8.1-4.7
						c0.5-0.3,1.1-0.1,1.4,0.4c0.3,0.5,0.1,1.1-0.4,1.4l-8.1,4.7C6.2,50.7,6,50.9,6,51.2c0,0.2,0.2,0.5,0.6,0.7l11.7,6.8
						c0.5,0.3,0.6,0.9,0.4,1.4C18.5,60.3,18.1,60.5,17.8,60.5z M44.1,45.2c-0.2,0-0.3,0-0.5-0.1l-4.4-2.5c-0.5-0.3-0.6-0.9-0.4-1.4
						c0.3-0.5,0.9-0.6,1.4-0.4l4.4,2.5c0.5,0.3,0.6,0.9,0.4,1.4C44.8,45,44.4,45.2,44.1,45.2z"/>
					<path class="st3" d="M109.7,121.6L109.7,121.6c-9.1-1.1-17.4-2.5-28.6-8.9L12.2,73c-0.5-0.3-1-0.7-1.2-1.2
						c0-0.1-0.1-0.2-0.1-0.2l-2.4-9.2C7.6,61.7,5.8,60,5.8,59l0,0l-1.6-7c-0.1-0.5,0.2-1.1,0.7-1.2C5.5,50.7,6,51,6.1,51.5l1.7,7.2
						v0.1c0.3,0.5,1.6,1.8,2.1,2.1c0.2,0.1,0.4,0.4,0.5,0.6l2.4,9.4c0.1,0.1,0.2,0.2,0.4,0.3L82.1,111c10.8,6.2,18.6,7.6,27.6,8.7
						c2.8,0,6.7-0.1,8.6-1.1c0.5-0.3,0.9-0.9,0.9-1.5c0-0.5-0.2-0.9-0.6-1.2c-1.4-0.9-2.2-2.2-2.3-3.8c-0.2-2.6,1.7-5.2,2.5-6
						c0.2-0.2,0.4-0.3,0.5-0.5c0.4-0.4,1-0.4,1.4,0s0.4,1,0,1.4c-0.2,0.2-0.4,0.4-0.7,0.6c-0.6,0.5-2,2.5-1.9,4.3
						c0.1,0.9,0.5,1.6,1.4,2.2c1,0.7,1.6,1.8,1.5,3c-0.1,1.3-0.9,2.6-2,3.2C117.4,121.2,114.5,121.6,109.7,121.6z"/>
				</g>
			</g>
		</g>
	</g>
	<g>
		<rect class="st0" width="128" height="128"/>
	</g>
</g>
</svg>
