<?xml version="1.0" encoding="utf-8"?>
<!-- Generator: Adobe Illustrator 24.1.0, SVG Export Plug-In . SVG Version: 6.00 Build 0)  -->
<svg version="1.1" id="Layer_1" xmlns="http://www.w3.org/2000/svg" xmlns:xlink="http://www.w3.org/1999/xlink" x="0px" y="0px"
	 viewBox="0 0 128 128" style="enable-background:new 0 0 128 128;" xml:space="preserve">
<style type="text/css">
	.st0{fill:#FFFFFF;}
	.st1{fill:#E9EBDF;}
	.st2{fill:#4D9987;}
	.st3{fill:#0E352C;}
	.st4{fill:#C4D7D3;}
	.st5{fill:#27ae60;}
	.st6{fill:#185849;}
	.st7{fill:none;}
</style>
<g id="Layer_1_1_">
</g>
<g>
	<g id="Layer_2_1_">
		<g id="Layer_6_1_">
			<g>
				<g>
					<g>
						<path class="st0" d="M61.2,31.1l-8-4.6l0,0c-1.3-0.7-2.9-0.7-4.8,0.4L44,29.4l2.4-2.9l-8-4.6l0,0c-2.1-1.2-4.9-1.1-7.9,0.6
							C24,26.2,18.8,35.7,18.3,44.3l-6,3.5C8.3,50,5,56.3,5,61.6c0,2.9,1,5,2.5,5.9l0,0l8,4.6l7.2-7.5l-3.6-1.5l29.3-16.9
							c2.7-1.6,5-4.9,6.3-8.5L61.2,31.1z"/>
						<path class="st1" d="M56.5,31.5l-6,3.5c-0.5-7.9-5.7-11.4-12.1-7.8S26.9,40.3,26.3,48.9l-6,3.5c-4,2.3-7.3,8.5-7.3,13.9
							s3.3,7.8,7.3,5.5l36.1-20.9c4-2.3,7.3-8.5,7.3-13.9l0,0C63.7,31.6,60.5,29.2,56.5,31.5z"/>
						<path class="st2" d="M13,67.3c-0.6,0-1-0.4-1-1c0-5.8,3.4-12.3,7.8-14.8l5.5-3.2c0.8-8.9,6.1-18.2,12.5-22
							c3.1-1.8,6.2-2.1,8.7-0.8c2.5,1.3,4.1,4,4.7,7.8l4.7-2.7c0.5-0.3,1.1-0.1,1.4,0.4c0.3,0.5,0.1,1.1-0.4,1.4l-6,3.5
							c-0.3,0.2-0.7,0.2-1,0s-0.5-0.5-0.5-0.8c-0.3-3.7-1.6-6.5-3.8-7.7c-1.9-1-4.2-0.8-6.8,0.7c-6,3.4-11.1,12.6-11.6,20.9
							c0,0.3-0.2,0.6-0.5,0.8l-6,3.5c-3.7,2.2-6.8,8-6.8,13C14,66.8,13.6,67.3,13,67.3z"/>
						<path class="st3" d="M17.4,73.6c-0.8,0-1.6-0.2-2.2-0.6c0,0-0.1,0-0.1-0.1l-8-4.6L7,68.2c-2-1-3-3.5-3-6.6
							c0-5.8,3.4-12.3,7.8-14.8l5.5-3.2c0.8-8.9,6.1-18.2,12.5-22c3.2-1.8,6.3-2.1,8.8-0.7c0.1,0,0.1,0,0.2,0.1l8,4.6
							c0.1,0,0.1,0.1,0.2,0.1c0.2,0.1,0.4,0.3,0.6,0.4l0.4-0.2c2-1.2,4-1.3,5.6-0.4c0,0,0.1,0,0.1,0.1l8,4.6l0.1,0.1
							c1.8,1.1,2.9,3.6,2.9,6.7c0,5.8-3.4,12.3-7.8,14.8L20.8,72.6C19.7,73.3,18.5,73.6,17.4,73.6z M15.9,71.2c0,0,0.1,0,0.1,0.1
							c1.3,0.7,2.8,0.2,3.8-0.4L56,50c3.7-2.2,6.8-8,6.8-13c0-2.4-0.7-4.3-2-5c0,0-0.1,0-0.1-0.1l-7.8-4.5c0,0-0.1,0-0.1-0.1
							c-1.3-0.7-2.8-0.2-3.8,0.4l-1,0.6c-0.4,0.2-0.9,0.2-1.2-0.1c-0.3-0.3-0.6-0.5-1-0.7c-0.1,0-0.1-0.1-0.1-0.1L38,22.9
							c-0.1,0-0.1,0-0.2-0.1c-1.9-1.1-4.3-0.9-6.9,0.6c-6,3.4-11.1,12.6-11.6,20.9c0,0.3-0.2,0.6-0.5,0.8l-6,3.5
							C9,50.7,6,56.6,6,61.6c0,2.4,0.7,4.3,2,5c0,0,0.1,0,0.1,0.1L15.9,71.2z"/>
					</g>
					<g>
						<path class="st0" d="M90.8,48.2l-8-4.6l0,0c-1.3-0.7-2.9-0.7-4.8,0.4l-4.5,2.6l2.4-2.9l-8-4.6l0,0C65.8,37.9,63,38,60,39.7
							c-6.3,3.7-11.5,13.1-12.1,21.7l-6,3.5c-4,2.3-7.3,8.5-7.3,13.9c0,2.9,1,5,2.5,5.9l0,0l8,4.6l7.2-7.5l-3.6-1.5L78,63.4
							c2.7-1.6,5-4.9,6.3-8.5L90.8,48.2z"/>
						<path class="st4" d="M86.1,48.6l-6,3.5c-0.5-7.9-5.7-11.4-12.1-7.8C61.7,48,56.5,57.5,55.9,66l-6,3.5c-4,2.3-7.3,8.5-7.3,13.9
							s3.3,7.8,7.3,5.5L86.1,68c4-2.3,7.3-8.5,7.3-13.9l0,0C93.4,48.8,90.1,46.3,86.1,48.6z"/>
						<path class="st5" d="M42.7,84.4c-0.6,0-1-0.4-1-1c0-5.8,3.4-12.3,7.8-14.8l5.5-3.2c0.8-8.9,6.1-18.2,12.5-22
							c3.1-1.8,6.2-2.1,8.7-0.8s4.1,4,4.7,7.8l4.7-2.7c0.5-0.3,1.1-0.1,1.4,0.4s0.1,1.1-0.4,1.4l-6,3.5c-0.3,0.2-0.7,0.2-1,0
							s-0.5-0.5-0.5-0.8c-0.3-3.7-1.6-6.5-3.8-7.7c-1.9-1-4.2-0.8-6.8,0.7c-6,3.4-11.1,12.6-11.6,20.9c0,0.3-0.2,0.6-0.5,0.8l-6,3.5
							c-3.7,2.2-6.8,8-6.8,13C43.7,83.9,43.2,84.4,42.7,84.4z"/>
						<path class="st6" d="M47.1,90.8c-0.8,0-1.6-0.2-2.2-0.6c0,0-0.1,0-0.1-0.1l-8-4.6l-0.1-0.1c-1.8-1.1-2.9-3.6-2.9-6.7
							c0-5.8,3.4-12.3,7.8-14.8l5.5-3.2c0.8-8.9,6.1-18.2,12.5-22c3.2-1.8,6.3-2.1,8.8-0.7c0.1,0,0.1,0,0.2,0.1l8,4.6
							c0.1,0,0.1,0.1,0.2,0.1c0.2,0.1,0.4,0.3,0.6,0.4l0.4-0.2c2-1.2,4-1.3,5.6-0.4c0,0,0.1,0,0.1,0.1l8,4.6l0.1,0.1
							c1.8,1.1,2.9,3.6,2.9,6.7c0,5.8-3.4,12.3-7.8,14.8L50.4,89.8C49.3,90.4,48.1,90.8,47.1,90.8z M45.6,88.4
							C45.6,88.4,45.7,88.4,45.6,88.4c1.4,0.8,2.9,0.3,3.9-0.3l36.1-20.9c3.7-2.2,6.8-8,6.8-13c0-2.4-0.7-4.3-2-5c0,0-0.1,0-0.1-0.1
							l-7.8-4.5c0,0-0.1,0-0.1-0.1c-1.3-0.7-2.8-0.2-3.8,0.4l-1,0.6c-0.4,0.2-0.9,0.2-1.2-0.1c-0.3-0.3-0.6-0.5-1-0.7
							c-0.1,0-0.1-0.1-0.2-0.1L67.6,40c-0.1,0-0.1,0-0.2-0.1c-1.9-1.1-4.3-0.9-6.9,0.6c-6,3.4-11.1,12.6-11.6,20.9
							c0,0.3-0.2,0.6-0.5,0.8l-6,3.5c-3.7,2.2-6.8,8-6.8,13c0,2.4,0.7,4.3,2,5c0,0,0.1,0,0.1,0.1L45.6,88.4z"/>
					</g>
					<g>
						<path class="st6" d="M51,93.6c-0.3,0-0.5-0.1-0.7-0.3c-0.2-0.2-0.3-0.4-0.3-0.7c0-0.1,0-0.1,0-0.2s0-0.1,0.1-0.2
							c0-0.1,0-0.1,0.1-0.2c0-0.1,0.1-0.1,0.1-0.2c0.2-0.2,0.6-0.3,0.9-0.3c0.1,0,0.1,0,0.2,0.1c0.1,0,0.1,0.1,0.2,0.1l0.1,0.1
							c0,0,0.1,0.1,0.1,0.2s0.1,0.1,0.1,0.2s0,0.1,0.1,0.2c0,0.1,0,0.1,0,0.2c0,0.3-0.1,0.5-0.3,0.7c0,0.1-0.1,0.1-0.1,0.1
							c-0.1,0-0.1,0.1-0.2,0.1c-0.1,0-0.1,0-0.2,0.1C51.1,93.6,51,93.6,51,93.6z"/>
						<path class="st6" d="M55.5,96.4c-0.5-0.3-0.6-0.9-0.4-1.4l0,0c0.3-0.5,0.9-0.6,1.4-0.4l0,0c0.5,0.3,0.6,0.9,0.4,1.4l0,0
							c-0.2,0.3-0.5,0.5-0.9,0.5l0,0C55.8,96.5,55.6,96.5,55.5,96.4z"/>
						<path class="st6" d="M61,99.4c-0.3,0-0.5-0.1-0.7-0.3c-0.2-0.2-0.3-0.4-0.3-0.7c0-0.3,0.1-0.5,0.3-0.7
							c0.3-0.3,0.7-0.4,1.1-0.2c0.1,0.1,0.2,0.1,0.3,0.2c0.2,0.2,0.3,0.4,0.3,0.7c0,0.3-0.1,0.5-0.3,0.7c-0.1,0.1-0.2,0.2-0.3,0.2
							C61.2,99.4,61.1,99.4,61,99.4z"/>
					</g>
					<g>
						<path class="st3" d="M97.7,51.8c-0.3,0-0.5-0.1-0.7-0.3s-0.3-0.4-0.3-0.7s0.1-0.5,0.3-0.7c0.4-0.4,1-0.4,1.4,0
							c0,0.1,0.1,0.1,0.1,0.2c0,0.1,0.1,0.1,0.1,0.2c0,0.1,0,0.1,0,0.2c0,0.1,0,0.1,0,0.2c0,0.1,0,0.1,0,0.2c0,0.1,0,0.1,0,0.2
							c0,0.1-0.1,0.1-0.1,0.2c0,0.1-0.1,0.1-0.1,0.2C98.3,51.7,98,51.8,97.7,51.8z"/>
						<path class="st3" d="M102.2,54.5c-0.5-0.3-0.6-0.9-0.4-1.4l0,0c0.3-0.5,0.9-0.6,1.4-0.4l0,0c0.5,0.3,0.6,0.9,0.4,1.4l0,0
							c-0.2,0.3-0.5,0.5-0.9,0.5l0,0C102.6,54.7,102.4,54.6,102.2,54.5z"/>
						<path class="st3" d="M107.8,57.6c-0.3,0-0.5-0.1-0.7-0.3c-0.1-0.1-0.2-0.2-0.2-0.3s-0.1-0.2-0.1-0.4c0-0.1,0-0.1,0-0.2
							c0-0.1,0-0.1,0.1-0.2c0-0.1,0.1-0.1,0.1-0.2c0-0.1,0.1-0.1,0.1-0.2c0.1-0.1,0.2-0.2,0.3-0.2c0.2-0.1,0.5-0.1,0.8,0
							c0.1,0,0.1,0,0.2,0.1c0.1,0,0.1,0.1,0.2,0.1c0.2,0.2,0.3,0.4,0.3,0.7c0,0.1,0,0.3-0.1,0.4s-0.1,0.2-0.2,0.3
							c0,0-0.1,0.1-0.2,0.1c0,0-0.1,0.1-0.2,0.1C108,57.5,107.9,57.6,107.8,57.6z"/>
					</g>
					<g>
						<path class="st0" d="M120.5,65.4l-8-4.6l0,0c-1.3-0.7-2.9-0.7-4.8,0.4l-4.5,2.6l2.4-2.9l-8-4.6l0,0c-2.1-1.2-4.9-1.1-7.9,0.6
							C83.4,60.6,78.2,70,77.6,78.6l-6,3.5c-4,2.3-7.3,8.5-7.3,13.9c0,2.9,1,5,2.5,5.9l0,0l8,4.6L82,99l-3.6-1.5l29.3-16.9
							c2.7-1.6,5-4.9,6.3-8.5L120.5,65.4z"/>
						<path class="st1" d="M115.7,65.7l-6,3.5c-0.5-7.9-5.7-11.4-12.1-7.8c-6.3,3.7-11.5,13.1-12.1,21.7l-6,3.5
							c-4,2.3-7.3,8.5-7.3,13.9s3.3,7.8,7.3,5.5l36.1-20.9c4-2.3,7.3-8.5,7.3-13.9l0,0C123,65.9,119.7,63.4,115.7,65.7z"/>
						<path class="st2" d="M72.3,101.5c-0.6,0-1-0.4-1-1c0-5.8,3.4-12.3,7.8-14.8l5.5-3.2c0.8-8.9,6.1-18.2,12.5-22
							c3.1-1.8,6.2-2.1,8.7-0.8s4.1,4,4.7,7.8l4.7-2.7c0.5-0.3,1.1-0.1,1.4,0.4s0.1,1.1-0.4,1.4l-6,3.5c-0.3,0.2-0.7,0.2-1,0
							s-0.5-0.5-0.5-0.8c-0.3-3.7-1.6-6.5-3.8-7.7c-1.9-1-4.2-0.8-6.8,0.7c-6,3.4-11.1,12.6-11.6,20.9c0,0.3-0.2,0.6-0.5,0.8l-6,3.5
							c-3.7,2.2-6.8,8-6.8,13C73.3,101.1,72.8,101.5,72.3,101.5z"/>
						<path class="st3" d="M76.7,107.9c-0.8,0-1.6-0.2-2.2-0.6c0,0-0.1,0-0.1-0.1l-8-4.6l-0.1-0.1c-1.8-1.1-2.9-3.6-2.9-6.7
							c0-5.8,3.4-12.3,7.8-14.8l5.5-3.2c0.8-8.9,6.1-18.2,12.5-22c3.2-1.8,6.3-2.1,8.8-0.7c0.1,0,0.1,0,0.2,0.1l8,4.6
							c0.1,0,0.1,0.1,0.2,0.1c0.2,0.1,0.4,0.3,0.6,0.4l0.4-0.2c2-1.2,4-1.3,5.6-0.4c0,0,0.1,0,0.1,0.1l8,4.6l0.1,0.1
							c1.8,1.1,2.9,3.6,2.9,6.7c0,5.8-3.4,12.3-7.8,14.8l-36.1,20.9C78.9,107.6,77.8,107.9,76.7,107.9z M75.2,105.5
							C75.2,105.5,75.3,105.5,75.2,105.5c1.4,0.8,2.9,0.3,3.9-0.3l36.1-20.9c3.7-2.2,6.8-8,6.8-13c0-2.4-0.7-4.3-2-5
							c0,0-0.1,0-0.1-0.1l-7.8-4.5c0,0-0.1,0-0.1-0.1c-1.3-0.7-2.8-0.2-3.8,0.4l-1,0.6c-0.4,0.2-0.9,0.2-1.2-0.1
							c-0.3-0.3-0.6-0.5-1-0.7c-0.1,0-0.1-0.1-0.2-0.1l-7.7-4.5c-0.1,0-0.1,0-0.2-0.1C95,56,92.6,56.2,90,57.7
							c-6,3.4-11.1,12.6-11.6,20.9c0,0.3-0.2,0.6-0.5,0.8l-6,3.5c-3.7,2.2-6.8,8-6.8,13c0,2.4,0.7,4.3,2,5c0,0,0.1,0,0.1,0.1
							L75.2,105.5z"/>
					</g>
					<g>
						<path class="st3" d="M21.3,76.5c-0.3,0-0.5-0.1-0.7-0.3c-0.2-0.2-0.3-0.4-0.3-0.7c0-0.1,0-0.3,0.1-0.4s0.1-0.2,0.2-0.3
							c0.4-0.4,1-0.4,1.4,0c0.1,0.1,0.2,0.2,0.2,0.3c0.1,0.1,0.1,0.2,0.1,0.4c0,0.3-0.1,0.5-0.3,0.7c0,0.1-0.1,0.1-0.1,0.1
							c-0.1,0-0.1,0.1-0.2,0.1s-0.1,0-0.2,0.1C21.5,76.5,21.4,76.5,21.3,76.5z"/>
						<path class="st3" d="M25.8,79.3c-0.5-0.3-0.6-0.9-0.4-1.4l0,0c0.3-0.5,0.9-0.6,1.4-0.4l0,0c0.5,0.3,0.6,0.9,0.4,1.4l0,0
							c-0.2,0.3-0.5,0.5-0.9,0.5l0,0C26.2,79.4,26,79.3,25.8,79.3z"/>
						<path class="st3" d="M31.3,82.3c-0.1,0-0.1,0-0.2,0s-0.1,0-0.2-0.1c-0.1,0-0.1-0.1-0.2-0.1c0,0-0.1-0.1-0.2-0.1
							c-0.1-0.1-0.2-0.2-0.2-0.3c0-0.1-0.1-0.2-0.1-0.4c0-0.1,0-0.3,0.1-0.4s0.1-0.2,0.2-0.3c0.4-0.4,1-0.4,1.4,0
							c0.1,0.1,0.2,0.2,0.2,0.3c0.1,0.1,0.1,0.2,0.1,0.4c0,0.1,0,0.3-0.1,0.4c0,0.1-0.1,0.2-0.2,0.3c0,0.1-0.1,0.1-0.1,0.1
							c-0.1,0-0.1,0.1-0.2,0.1S31.5,82.2,31.3,82.3C31.5,82.3,31.4,82.3,31.3,82.3z"/>
					</g>
					<g>
						<path class="st6" d="M68.1,34.7c-0.3,0-0.5-0.1-0.7-0.3s-0.3-0.4-0.3-0.7s0.1-0.5,0.3-0.7c0.4-0.4,1-0.4,1.4,0
							c0.2,0.2,0.3,0.5,0.3,0.7s-0.1,0.5-0.3,0.7C68.6,34.6,68.4,34.7,68.1,34.7z"/>
						<path class="st6" d="M72.6,37.4c-0.5-0.3-0.6-0.9-0.4-1.4l0,0c0.3-0.5,0.9-0.6,1.4-0.4l0,0c0.5,0.3,0.6,0.9,0.4,1.4l0,0
							c-0.2,0.3-0.5,0.5-0.9,0.5l0,0C73,37.6,72.8,37.5,72.6,37.4z"/>
						<path class="st6" d="M78.1,40.4c-0.3,0-0.5-0.1-0.7-0.3c-0.1-0.1-0.2-0.2-0.2-0.3s-0.1-0.2-0.1-0.4c0-0.3,0.1-0.5,0.3-0.7
							c0.4-0.4,1-0.4,1.4,0c0.2,0.2,0.3,0.4,0.3,0.7c0,0.1,0,0.3-0.1,0.4s-0.1,0.2-0.2,0.3C78.6,40.3,78.4,40.4,78.1,40.4z"/>
					</g>
				</g>
				<rect x="4" y="4" class="st7" width="120" height="120"/>
			</g>
		</g>
	</g>
	<g>
		<rect class="st7" width="128" height="128"/>
	</g>
</g>
</svg>
