<?xml version="1.0" encoding="utf-8"?>
<!-- Generator: Adobe Illustrator 24.1.0, SVG Export Plug-In . SVG Version: 6.00 Build 0)  -->
<svg version="1.1" id="Layer_1" xmlns="http://www.w3.org/2000/svg" xmlns:xlink="http://www.w3.org/1999/xlink" x="0px" y="0px"
	 viewBox="0 0 128 128" style="enable-background:new 0 0 128 128;" xml:space="preserve">
<style type="text/css">
	.st0{fill:none;}
	.st1{fill:#FFFFFF;}
	.st2{fill:#4D9987;}
	.st3{fill:#E9EBDF;}
	.st4{fill:#0E352C;}
	.st5{fill:#C4D7D3;}
	.st6{fill:#27ae60;}
	.st7{fill:#185849;}
</style>
<g id="Layer_1_1_">
</g>
<g>
	<g id="Layer_2_1_">
		<g id="Layer_6_1_">
			<g>
				<rect x="4" y="4" class="st0" width="120" height="120"/>
				<rect x="4" y="4" class="st0" width="120" height="120"/>
				<g>
					<g>
						<path class="st1" d="M60.6,109.8V52.3L47,44.4c-0.6,4.5-7.1,54.8-7.1,54.8L60.6,109.8z"/>
						<path class="st2" d="M60.6,110.8c-0.2,0-0.3,0-0.5-0.1l-20.7-10.6c-0.4-0.2-0.6-0.6-0.5-1c0.1-0.5,6.5-50.3,7.1-54.8
							c0-0.3,0.3-0.6,0.6-0.8c0.3-0.1,0.7-0.1,0.9,0l13.6,7.9c0.3,0.2,0.5,0.5,0.5,0.9v57.5c0,0.3-0.2,0.7-0.5,0.9
							C60.9,110.7,60.7,110.8,60.6,110.8z M41,98.6l18.6,9.5V52.9L47.8,46C46.6,54.8,41.7,93,41,98.6z"/>
					</g>
					<g>
						<path class="st2" d="M60.6,61.8c-0.2,0-0.3,0-0.5-0.1l-14-7.1c-0.5-0.3-0.7-0.9-0.4-1.3c0.3-0.5,0.9-0.7,1.3-0.4L61,60
							c0.5,0.3,0.7,0.9,0.4,1.3C61.3,61.6,60.9,61.8,60.6,61.8z"/>
						<path class="st2" d="M60.6,71.8c-0.2,0-0.3,0-0.5-0.1l-15.5-7.9c-0.5-0.3-0.7-0.9-0.4-1.3s0.9-0.7,1.3-0.4L61,69.9
							c0.5,0.3,0.7,0.9,0.4,1.3C61.3,71.6,60.9,71.8,60.6,71.8z"/>
						<path class="st2" d="M60.6,81.8c-0.2,0-0.3,0-0.5-0.1l-16.7-8.5c-0.5-0.3-0.7-0.9-0.4-1.3c0.3-0.5,0.9-0.7,1.3-0.4L61,79.9
							c0.5,0.3,0.7,0.9,0.4,1.3C61.3,81.6,60.9,81.8,60.6,81.8z"/>
						<path class="st2" d="M60.6,91.8c-0.2,0-0.3,0-0.5-0.1l-18.3-9.3c-0.5-0.3-0.7-0.9-0.4-1.3c0.3-0.5,0.9-0.7,1.3-0.4L61,89.9
							c0.5,0.3,0.7,0.9,0.4,1.3C61.3,91.6,60.9,91.8,60.6,91.8z"/>
						<path class="st2" d="M60.6,101.8c-0.2,0-0.3,0-0.5-0.1l-19.5-9.9c-0.5-0.3-0.7-0.9-0.4-1.3c0.3-0.5,0.9-0.7,1.3-0.4L61,99.9
							c0.5,0.3,0.7,0.9,0.4,1.3C61.3,101.6,60.9,101.8,60.6,101.8z"/>
					</g>
					<g>
						<path class="st3" d="M60.6,109.8V52.3l13.6-7.9c0.6,4.5,7.1,54.8,7.1,54.8L60.6,109.8z"/>
						<path class="st2" d="M60.6,110.8c-0.2,0-0.4,0-0.5-0.1c-0.3-0.2-0.5-0.5-0.5-0.9V52.3c0-0.4,0.2-0.7,0.5-0.9l13.6-7.9
							c0.3-0.2,0.6-0.2,0.9,0c0.3,0.1,0.5,0.4,0.6,0.8c0.6,4.5,7,54.3,7.1,54.8c0.1,0.4-0.2,0.8-0.5,1L61,110.7
							C60.9,110.7,60.7,110.8,60.6,110.8z M61.6,52.9v55.3l18.6-9.5C79.4,93,74.5,54.8,73.4,46L61.6,52.9z"/>
					</g>
					<g>
						<path class="st2" d="M60.6,61.8c-0.4,0-0.7-0.2-0.9-0.5c-0.3-0.5-0.1-1.1,0.4-1.3l14-7.1c0.5-0.3,1.1-0.1,1.3,0.4
							c0.3,0.5,0.1,1.1-0.4,1.3l-14,7.1C60.9,61.7,60.7,61.8,60.6,61.8z"/>
						<path class="st2" d="M60.6,71.8c-0.4,0-0.7-0.2-0.9-0.5c-0.3-0.5-0.1-1.1,0.4-1.3l15.5-8c0.5-0.3,1.1-0.1,1.3,0.4
							s0.1,1.1-0.4,1.3l-15.5,8C60.9,71.7,60.7,71.8,60.6,71.8z"/>
						<path class="st2" d="M60.6,81.8c-0.4,0-0.7-0.2-0.9-0.5c-0.3-0.5-0.1-1.1,0.4-1.3l16.7-8.5c0.5-0.3,1.1-0.1,1.3,0.4
							c0.3,0.5,0.1,1.1-0.4,1.3L61,81.7C60.9,81.7,60.7,81.8,60.6,81.8z"/>
						<path class="st2" d="M60.6,91.8c-0.4,0-0.7-0.2-0.9-0.5c-0.3-0.5-0.1-1.1,0.4-1.3l18.3-9.3c0.5-0.3,1.1-0.1,1.3,0.4
							c0.3,0.5,0.1,1.1-0.4,1.3L61,91.7C60.9,91.7,60.7,91.8,60.6,91.8z"/>
						<path class="st2" d="M60.6,101.8c-0.4,0-0.7-0.2-0.9-0.5c-0.3-0.5-0.1-1.1,0.4-1.3l19.5-9.9c0.5-0.3,1.1-0.1,1.3,0.4
							c0.3,0.5,0.1,1.1-0.4,1.3L61,101.7C60.9,101.7,60.7,101.8,60.6,101.8z"/>
					</g>
					<path class="st4" d="M60.6,110.8c-0.2,0-0.3,0-0.5-0.1l-20.7-10.6c-0.4-0.2-0.6-0.6-0.5-1c0.1-0.5,6.5-50.3,7.1-54.8
						c0-0.3,0.3-0.6,0.6-0.8c0.3-0.1,0.7-0.1,0.9,0l13.1,7.6l13.1-7.6c0.3-0.2,0.6-0.2,0.9,0c0.3,0.1,0.5,0.4,0.6,0.8
						c0.6,4.5,7,54.3,7.1,54.8c0.1,0.4-0.2,0.8-0.5,1L61,110.7C60.9,110.7,60.7,110.8,60.6,110.8z M41,98.6l19.6,10l19.6-10
						C79.4,93,74.5,54.8,73.4,46l-12.3,7.1c-0.3,0.2-0.7,0.2-1,0L47.8,46C46.6,54.8,41.7,93,41,98.6z"/>
					<g>
						<g>
							<path class="st3" d="M95.4,67.1c3.7-3.2,6.4-8.6,6.4-13.2c0-1.3-0.2-2.4-0.6-3.3l-7.8,8.2L95.4,67.1z"/>
							<path class="st2" d="M95.4,68.1c-0.1,0-0.2,0-0.3,0c-0.3-0.1-0.6-0.4-0.7-0.7l-2.1-8.3c-0.1-0.3,0-0.7,0.2-0.9l7.8-8.2
								c0.2-0.2,0.6-0.4,0.9-0.3c0.3,0.1,0.6,0.3,0.7,0.6c0.5,1.1,0.7,2.3,0.7,3.7c0,4.8-2.8,10.5-6.8,13.9
								C95.9,68,95.7,68.1,95.4,68.1z M94.5,59.1l1.5,6.1c2.9-3.1,4.9-7.6,4.9-11.2c0-0.5,0-0.9-0.1-1.4L94.5,59.1z"/>
						</g>
						<polygon class="st1" points="93.4,58.8 101.2,50.6 104.6,52.6 96.7,60.8 						"/>
						<polygon class="st5" points="98.8,69.1 95.4,67.1 93.4,58.8 96.7,60.8 						"/>
						<path class="st1" d="M96.8,60.7L99,57l-3.4-2l0,0c-0.6-0.3-1.4-0.3-2.3,0.2s-1.7,1.4-2.2,2.4"/>
						<path class="st3" d="M91.1,57.6c-0.6,1-0.9,2.1-0.9,3.1s0.4,1.7,0.9,2l0,0l0,0l0,0l3.4,2l2.3-3.9"/>
						<path class="st2" d="M94.5,59.5c-0.6,1-0.9,2.1-0.9,3.1c0,2,1.4,2.8,3.2,1.8c0.3-0.2,0.5-0.3,0.8-0.6l1.3,5.2
							c3.7-3.2,6.4-8.6,6.4-13.2c0-1.3-0.2-2.4-0.6-3.3l-4.9,5.1c-0.5-1.1-1.6-1.3-2.9-0.6C95.9,57.7,95.1,58.5,94.5,59.5"/>
					</g>
					<path class="st4" d="M98.8,70.1c-0.2,0-0.3,0-0.5-0.1l-3.4-2c-0.2-0.1-0.4-0.4-0.5-0.6L94,65.6c0,0-0.1,0-0.1-0.1l-3.3-1.9
						c0,0-0.1,0-0.1-0.1c-0.9-0.5-1.3-1.6-1.3-2.8c0-2.4,1.6-5.2,3.7-6.4c1.2-0.7,2.3-0.7,3.3-0.2l0.3,0.2l4.1-4.3
						c0.3-0.3,0.8-0.4,1.2-0.2l3.4,2c0.2,0.1,0.4,0.4,0.5,0.6c0.4,1,0.7,2.2,0.7,3.6c0,4.8-2.8,10.5-6.8,13.9
						C99.3,70,99,70.1,98.8,70.1z M96.3,66.5l2.4,1.4c3.3-3.1,5.6-8,5.5-11.9c0-1-0.2-1.9-0.4-2.6l-2.4-1.4l-4.1,4.3
						c-0.3,0.3-0.8,0.4-1.2,0.2L95.2,56c-0.3-0.2-0.7-0.1-1.3,0.2c-1.5,0.8-2.7,3-2.7,4.6c0,0.6,0.2,1,0.4,1.2c0,0,0,0,0.1,0
						l3.3,1.9c0.1,0,0.1,0.1,0.2,0.1c0.3,0.1,0.6,0.4,0.7,0.7L96.3,66.5z"/>
					<path class="st4" d="M101.2,51.6c-0.2,0-0.4-0.1-0.6-0.2L84.9,40c-0.4-0.3-0.5-1-0.2-1.4s1-0.5,1.4-0.2l15.7,11.5
						c0.4,0.3,0.5,1,0.2,1.4C101.8,51.5,101.5,51.6,101.2,51.6z"/>
					<g>
						<path class="st3" d="M90.3,36.4v6.1c-1.4-0.8-2.8-1.6-4.3-2.5c-0.3-0.2-0.5-0.5-0.5-0.9v-5.5L90.3,36.4z"/>
						<path class="st2" d="M90.3,43.5c-0.2,0-0.3,0-0.5-0.1l-4.3-2.5c-0.6-0.4-1-1-1-1.8v-5.5c0-0.4,0.2-0.7,0.5-0.9s0.7-0.2,1,0
							l4.8,2.8c0.3,0.2,0.5,0.5,0.5,0.9v6.1c0,0.4-0.2,0.7-0.5,0.9C90.6,43.4,90.4,43.5,90.3,43.5z M86.5,35.4v3.8l2.8,1.6V37
							L86.5,35.4z"/>
					</g>
					<polyline class="st1" points="98.6,20.6 92.2,16.9 82.8,26.4 90.3,30.7 98.6,20.6 					"/>
					<path class="st2" d="M98.2,29.8l2.6-9.8c0.1-0.5,0-1-0.5-1.4l-1.1-0.8c-0.5-0.4-1.1-0.4-1.6-0.1l-4.8,2.8
						c-1.6,0.9-2.6,2.6-2.6,4.4v11.4l5.2-3C96.8,32.6,97.8,31.3,98.2,29.8z"/>
					<path class="st2" d="M90.3,42.5v-6.1l4.5-2.6L94,38.3c-0.3,1.5-1.2,2.8-2.5,3.5L90.3,42.5z"/>
					<g>
						<path class="st3" d="M90.3,36.4V24.3L82.8,20c0,0,0,9,0,12.1C84.6,33.1,87.9,35,90.3,36.4"/>
						<path class="st2" d="M90.3,37.4c-0.2,0-0.3,0-0.5-0.1L82.3,33c-0.3-0.2-0.5-0.5-0.5-0.9V20c0-0.4,0.2-0.7,0.5-0.9
							c0.3-0.2,0.7-0.2,1,0l7.5,4.3c0.3,0.2,0.5,0.5,0.5,0.9v12.1c0,0.4-0.2,0.7-0.5,0.9C90.6,37.3,90.4,37.4,90.3,37.4z M83.8,31.5
							l5.5,3.2v-9.8l-5.5-3.2V31.5z"/>
					</g>
					<g>
						<path class="st3" d="M90.3,36.4v6.1c-1.4-0.8-2.8-1.6-4.3-2.5c-0.3-0.2-0.5-0.5-0.5-0.9v-5.5L90.3,36.4z"/>
						<path class="st2" d="M90.3,43.5c-0.2,0-0.3,0-0.5-0.1l-4.3-2.5c-0.6-0.4-1-1-1-1.8v-5.5c0-0.4,0.2-0.7,0.5-0.9s0.7-0.2,1,0
							l4.8,2.8c0.3,0.2,0.5,0.5,0.5,0.9v6.1c0,0.4-0.2,0.7-0.5,0.9C90.6,43.4,90.4,43.5,90.3,43.5z M86.5,35.4v3.8l2.8,1.6V37
							L86.5,35.4z"/>
					</g>
					<path class="st4" d="M90.3,43.5c-0.2,0-0.3,0-0.5-0.1l-4.3-2.5c-0.6-0.4-1-1-1-1.8v-4.9l-2.2-1.3c-0.3-0.2-0.5-0.5-0.5-0.9
						v-8.8c0-0.3,0.1-0.5,0.3-0.7l9.4-9.5c0.3-0.3,0.8-0.4,1.2-0.2l6.3,3.6c0.3,0.1,0.7,0.2,0.9,0.4l1.1,0.8l0,0
						c0.7,0.6,1,1.5,0.8,2.4l-2.6,10c-0.5,1.8-1.6,3.3-3.2,4.2l-0.3,0.2L95,38.5c-0.3,1.8-1.4,3.3-3,4.2l-1.2,0.7
						C90.6,43.4,90.4,43.5,90.3,43.5z M83.8,31.5l2.2,1.3c0.3,0.2,0.5,0.5,0.5,0.9v5.5l3.8,2.2L91,41c1-0.6,1.8-1.6,2-2.8l0.8-4.5
						c0.1-0.3,0.2-0.5,0.5-0.7l0.7-0.4c1.1-0.6,2-1.7,2.3-3l2.6-9.8c0-0.1,0-0.2-0.1-0.3l-1.1-0.8c-0.1,0-0.1-0.1-0.2-0.1
						c-0.2,0-0.4-0.1-0.6-0.3l-5.5-3.2l-8.6,8.6C83.8,23.7,83.8,31.5,83.8,31.5z"/>
					<g>
						<g>
							<polygon class="st1" points="76.7,38.9 60.8,48 44.9,38.9 60.8,29.7 							"/>
							<polygon class="st2" points="76.7,38.9 76.7,44.4 60.8,53.6 60.8,48 							"/>
							<g>
								<polygon class="st3" points="44.9,38.9 44.9,44.4 60.8,53.6 60.8,48 								"/>
								<path class="st2" d="M60.8,54.6c-0.2,0-0.3,0-0.5-0.1l-15.9-9.2c-0.3-0.2-0.5-0.5-0.5-0.9v-5.5c0-0.4,0.2-0.7,0.5-0.9
									s0.7-0.2,1,0l15.9,9.2c0.3,0.2,0.5,0.5,0.5,0.9v5.5c0,0.4-0.2,0.7-0.5,0.9C61.2,54.5,61,54.6,60.8,54.6z M45.9,43.8l13.9,8
									v-3.2l-13.9-8V43.8z"/>
							</g>
						</g>
						<path class="st4" d="M60.8,54.6c-0.2,0-0.3,0-0.5-0.1l-15.9-9.2c-0.3-0.2-0.5-0.5-0.5-0.9v-5.5c0-0.4,0.2-0.7,0.5-0.9
							l15.9-9.2c0.3-0.2,0.7-0.2,1,0L77.2,38c0.3,0.2,0.5,0.5,0.5,0.9v5.5c0,0.4-0.2,0.7-0.5,0.9l-15.9,9.2
							C61.2,54.5,61,54.6,60.8,54.6z M45.9,43.8l14.9,8.6l14.9-8.6v-4.4l-14.9-8.6l-14.9,8.6V43.8z"/>
					</g>
					<path class="st1" d="M32.6,47.1l68.6-39.6c-1.5-0.9-3-1.7-4.4-2.5c-5.5,3.2-36.3,21-64.2,37.1V47.1z"/>
					<g>
						<g>
							
								<ellipse transform="matrix(2.826888e-03 -1 1 2.826888e-03 -96.6087 143.7605)" class="st5" cx="23.8" cy="120.3" rx="2.6" ry="4.5"/>
							<path class="st6" d="M23.8,124c-1.3,0-2.7-0.3-3.7-0.9c-1.2-0.7-1.8-1.7-1.8-2.7c0-1.1,0.7-2,1.8-2.7c2.1-1.2,5.3-1.2,7.4,0
								l0,0c1.2,0.7,1.8,1.7,1.8,2.7c0,1.1-0.7,2-1.8,2.7C26.4,123.7,25.1,124,23.8,124z M23.7,118.7c-1,0-2,0.2-2.7,0.6
								c-0.5,0.3-0.8,0.7-0.8,1s0.3,0.7,0.8,1c1.5,0.9,4,0.9,5.4,0c0.5-0.3,0.8-0.7,0.8-1s-0.3-0.7-0.8-1
								C25.7,119,24.7,118.7,23.7,118.7z"/>
						</g>
					</g>
					<path class="st3" d="M66.2,18.1c1.2,0.7,2.6,1.5,3.9,2.3c0,1.6,0,3.5,0,5c-1.3-0.8-3.1-1.8-4.4-2.5c0-1.6,0-3.5,0-5.1
						C65.9,17.9,66.1,18,66.2,18.1z"/>
					<polygon class="st1" points="70.1,20.4 85.9,11.3 81.5,8.7 65.8,17.8 					"/>
					<path class="st2" d="M85.9,14.5V13c0-0.8-0.9-1.3-1.5-0.9l-13.2,7.6c-0.6,0.4-1,1-1,1.8v2.1c0,1.1-0.6,2.1-1.5,2.7
						c-14.1,8.1-28.3,16.3-36,20.8v8c14.3-8.3,51.1-29.5,68.6-39.6v-8c-3.6,2.1-8.3,4.8-13.7,7.9C86.8,15.8,85.9,15.3,85.9,14.5z"/>
					<g>
						<g>
							<polygon class="st3" points="94.9,62.6 94.9,74.2 104.7,79.9 104.7,68.2 							"/>
							<path class="st2" d="M104.7,80.9c-0.2,0-0.3,0-0.5-0.1l-9.8-5.7c-0.3-0.2-0.5-0.5-0.5-0.9V62.6c0-0.4,0.2-0.7,0.5-0.9
								s0.7-0.2,1,0l9.8,5.7c0.3,0.2,0.5,0.5,0.5,0.9V80c0,0.4-0.2,0.7-0.5,0.9C105,80.8,104.8,80.9,104.7,80.9z M95.9,73.6l7.8,4.5
								v-9.4l-7.8-4.5V73.6z"/>
						</g>
						<path class="st4" d="M104.7,80.9c-0.2,0-0.3,0-0.5-0.1l-9.8-5.7c-0.3-0.2-0.5-0.5-0.5-0.9V62.6c0-0.4,0.2-0.7,0.5-0.9l9.8-5.7
							c0.3-0.2,0.7-0.2,1,0l9.8,5.7c0.3,0.2,0.5,0.5,0.5,0.9v11.7c0,0.4-0.2,0.7-0.5,0.9l-9.8,5.7C105,80.8,104.8,80.9,104.7,80.9z
							 M95.9,73.6l8.8,5.1l8.8-5.1V63.1l-8.8-5.1l-8.8,5.1V73.6z"/>
						<g>
							<polygon class="st1" points="114.5,62.6 104.7,56.9 94.9,62.6 85.1,68.2 94.9,73.9 104.7,68.2 104.7,68.2 104.7,68.2 							
								"/>
							<path class="st2" d="M94.9,74.9c-0.2,0-0.3,0-0.5-0.1l-9.8-5.7c-0.3-0.2-0.5-0.5-0.5-0.9s0.2-0.7,0.5-0.9L104.2,56
								c0.3-0.2,0.7-0.2,1,0l9.8,5.7c0.3,0.2,0.5,0.5,0.5,0.9s-0.2,0.7-0.5,0.9L95.4,74.8C95.2,74.8,95,74.9,94.9,74.9z M87.1,68.2
								l7.8,4.5l17.6-10.2l-7.8-4.5L87.1,68.2z"/>
						</g>
						<g>
							<polygon class="st2" points="104.7,68.2 104.7,68.2 94.9,73.9 94.9,85.5 104.7,79.9 104.7,79.9 114.5,74.2 114.5,62.6 
															"/>
							<path class="st2" d="M94.9,86.5c-0.2,0-0.3,0-0.5-0.1c-0.3-0.2-0.5-0.5-0.5-0.9V73.9c0-0.4,0.2-0.7,0.5-0.9l9.8-5.7l0,0
								l9.8-5.7c0.3-0.2,0.7-0.2,1,0s0.5,0.5,0.5,0.9v11.7c0,0.4-0.2,0.7-0.5,0.9L95.4,86.4C95.2,86.5,95,86.5,94.9,86.5z
								 M95.9,74.5v9.4l17.6-10.2v-9.4L95.9,74.5z"/>
						</g>
						<g>
							<polygon class="st3" points="85.1,68.2 85.1,79.9 94.9,85.5 94.9,73.9 							"/>
							<path class="st2" d="M94.9,86.5c-0.2,0-0.3,0-0.5-0.1l-9.8-5.7c-0.3-0.2-0.5-0.5-0.5-0.9V68.2c0-0.4,0.2-0.7,0.5-0.9
								c0.3-0.2,0.7-0.2,1,0l9.8,5.7c0.3,0.2,0.5,0.5,0.5,0.9v11.7c0,0.4-0.2,0.7-0.5,0.9C95.2,86.5,95,86.5,94.9,86.5z M86.1,79.3
								l7.8,4.5v-9.4L86.1,70V79.3z"/>
						</g>
						<path class="st4" d="M94.9,86.5c-0.2,0-0.3,0-0.5-0.1l-9.8-5.7c-0.3-0.2-0.5-0.5-0.5-0.9V68.2c0-0.4,0.2-0.7,0.5-0.9L104.2,56
							c0.3-0.2,0.7-0.2,1,0l9.8,5.7c0.3,0.2,0.5,0.5,0.5,0.9v11.7c0,0.4-0.2,0.7-0.5,0.9L95.4,86.4C95.2,86.5,95,86.5,94.9,86.5z
							 M86.1,79.3l8.8,5.1l18.6-10.7V63.1l-8.8-5.1L86.1,68.8V79.3z"/>
					</g>
					<g>
						<g>
							<path class="st3" d="M112.2,76.8c3.7-3.2,6.4-8.6,6.4-13.2c0-1.3-0.2-2.4-0.6-3.3l-7.8,8.2L112.2,76.8z"/>
							<path class="st2" d="M112.2,77.8c-0.1,0-0.2,0-0.3,0c-0.3-0.1-0.6-0.4-0.7-0.7l-2.1-8.3c-0.1-0.3,0-0.7,0.2-0.9l7.8-8.2
								c0.2-0.2,0.6-0.4,0.9-0.3s0.6,0.3,0.7,0.6c0.5,1.1,0.7,2.3,0.7,3.7c0,4.8-2.8,10.5-6.8,13.9
								C112.7,77.7,112.4,77.8,112.2,77.8z M111.3,68.9l1.5,6.1c2.9-3.1,4.9-7.6,4.9-11.2c0-0.5,0-0.9-0.1-1.4L111.3,68.9z"/>
						</g>
						<polygon class="st1" points="110.2,68.6 118,60.4 121.4,62.3 113.5,70.5 						"/>
						<polygon class="st3" points="115.6,78.8 112.2,76.8 110.2,68.6 113.5,70.5 						"/>
						<path class="st1" d="M113.6,70.5l2.2-3.8l-3.4-2l0,0c-0.6-0.3-1.4-0.3-2.3,0.2s-1.7,1.4-2.2,2.4"/>
						<path class="st3" d="M107.9,67.3c-0.6,1-0.9,2.1-0.9,3.1s0.4,1.7,0.9,2l0,0l0,0l0,0l3.4,2l2.3-3.9"/>
						<path class="st2" d="M111.3,69.2c-0.6,1-0.9,2.1-0.9,3.1c0,2,1.4,2.8,3.2,1.8c0.3-0.2,0.5-0.3,0.8-0.6l1.3,5.2
							c3.7-3.2,6.4-8.6,6.4-13.2c0-1.3-0.2-2.4-0.6-3.3l-4.9,5.1c-0.5-1.1-1.6-1.3-2.9-0.6C112.6,67.4,111.9,68.2,111.3,69.2"/>
					</g>
					<path class="st7" d="M23.8,121.4c-0.6,0-1-0.4-1-1V90.8c0-0.6,0.4-1,1-1s1,0.4,1,1v29.6C24.8,120.9,24.3,121.4,23.8,121.4z"/>
					<path class="st7" d="M26.3,93.3c-0.2,0-0.3,0-0.5-0.1l-5.2-3c-0.3-0.2-0.5-0.5-0.5-0.9v-14h2v13.5l3.2,1.8V78.2
						c0-0.6,0.4-1,1-1s1,0.4,1,1v14c0,0.4-0.2,0.7-0.5,0.9C26.7,93.2,26.5,93.3,26.3,93.3z"/>
					<path class="st4" d="M32.6,56.2c-0.3,0-0.7-0.2-0.9-0.5c-0.3-0.5-0.1-1.1,0.4-1.4l68-39.3V7.5c0-0.6,0.4-1,1-1s1,0.4,1,1v8
						c0,0.4-0.2,0.7-0.5,0.9L33.1,56C32.9,56.1,32.7,56.2,32.6,56.2z"/>
					<path class="st4" d="M32.6,56.2c-0.6,0-1-0.4-1-1V42.1c0-0.4,0.2-0.7,0.5-0.9l31.7-18.3c0.6-0.4,1-1.1,1-1.8V19
						c0-1.1,0.6-2.1,1.5-2.6l14.2-8.2c1.3-0.7,2.7-0.7,4,0c0.1,0.1,0.2,0.1,0.2,0.2l1.5,1.6c2.2-1.3,8.7-5.1,10.1-5.9
						c0.3-0.2,0.7-0.2,1,0l4.4,2.5c0.5,0.3,0.6,0.9,0.4,1.4c-0.3,0.5-0.9,0.6-1.4,0.4l-3.9-2.3c-2.5,1.4-10.3,6-10.3,6
						c-0.4,0.2-0.9,0.2-1.2-0.2l-1.9-2.1c-0.6-0.3-1.3-0.3-1.9,0.1l-14.2,8.2c-0.3,0.2-0.5,0.5-0.5,0.9v2.1c0,1.5-0.8,2.8-2,3.5
						l-31.2,18v12.5C33.6,55.7,33.1,56.2,32.6,56.2z"/>
					<g>
						<path class="st5" d="M31.3,38.7l-8.6-4.9c-0.1-0.1-0.3-0.2-0.4-0.2c-0.9-0.6-2.1-0.7-3.2-0.1l-1.7,1C10.4,38.5,6.1,46,6.1,54
							v7.6c0,2.6-0.7,3.8,1.6,5.1l7.2,4L31.3,38.7z"/>
						<path class="st6" d="M14.9,72c-0.2,0-0.3,0-0.5-0.1l-7.2-4C4.8,66.5,4.9,65,5,63.3c0-0.4,0.1-0.9,0.1-1.4v-7.6
							c0-8.4,4.5-16.2,11.8-20.4l1.7-1c1.3-0.7,2.9-0.7,4.2,0c0.2,0.1,0.3,0.1,0.5,0.2l8.6,4.9c0.5,0.3,0.6,0.8,0.4,1.3L15.8,71.4
							c-0.1,0.2-0.3,0.4-0.6,0.5C15.1,71.9,15,72,14.9,72z M20.7,34.2c-0.4,0-0.7,0.1-1,0.3l-1.7,1c-6.6,3.8-10.8,11-10.8,18.7v7.6
							c0,0.6,0,1.1-0.1,1.5c-0.1,1.6-0.1,2,1.2,2.8l6.3,3.5L30,39.1l-7.7-4.4c-0.1-0.1-0.2-0.1-0.3-0.2c0,0-0.1,0-0.1-0.1
							C21.4,34.3,21,34.2,20.7,34.2z"/>
					</g>
					<path class="st1" d="M31.3,38.7c-0.2-0.1-0.4-0.3-0.6-0.4l-7.9-4.5c-0.1-0.1-0.3-0.2-0.4-0.2c-0.9-0.6-2.1-0.7-3.2-0.1l-1.7,1
						c-5.3,3-9,8-10.5,13.7c2.4,1.4,6.1,3.5,11.8,6.8c0,0,5.8-9.5,12.8-16.3C31.4,38.8,31.4,38.8,31.3,38.7L31.3,38.7L31.3,38.7z"/>
					<g>
						<path class="st6" d="M32.6,74.6V41.2c0-2.4-2.6-3.8-4.6-2.7l-1.7,1C19.3,43.5,15,51,15,59v12l11,7.4L32.6,74.6z"/>
						<path class="st6" d="M26,79.4c-0.2,0-0.4-0.1-0.6-0.2l-11.1-7.4c-0.3-0.2-0.4-0.5-0.4-0.8V59.1c0-8.4,4.5-16.2,11.8-20.4
							l1.7-1c1.3-0.7,2.8-0.7,4.1,0s2,2.1,2,3.5v33.4c0,0.4-0.2,0.7-0.5,0.9l-6.6,3.8C26.4,79.3,26.2,79.4,26,79.4z M15.9,70.4
							L26,77.2l5.5-3.2V41.2c0-0.8-0.4-1.4-1-1.8c-0.7-0.4-1.4-0.4-2.1,0l-1.7,1c-6.6,3.8-10.8,11-10.8,18.7
							C15.9,59.1,15.9,70.4,15.9,70.4z M32.6,74.6L32.6,74.6L32.6,74.6z"/>
					</g>
					<path class="st7" d="M26,79.4c-0.2,0-0.4-0.1-0.6-0.2l-11.1-7.4l-7.2-4c-2.4-1.4-2.3-2.9-2.2-4.6c0-0.4,0.1-0.9,0.1-1.4v-7.6
						C5,45.8,9.5,38,16.8,33.8l1.7-1c1.3-0.7,2.9-0.7,4.2,0c0.2,0.1,0.3,0.1,0.5,0.2l7.9,4.5c0.3,0.1,0.5,0.3,0.8,0.4l0,0
						c1.1,0.8,1.7,2,1.7,3.3v33.4c0,0.4-0.2,0.7-0.5,0.9l-6.6,3.8C26.4,79.3,26.2,79.4,26,79.4z M20.7,34.2c-0.4,0-0.7,0.1-1,0.3
						l-1.7,1c-6.6,3.8-10.8,11-10.8,18.7v7.6c0,0.6,0,1.1-0.1,1.5c-0.1,1.6-0.1,2,1.2,2.8l7.2,4l10.6,7.1l5.5-3.2V41.2
						c0-0.7-0.3-1.3-0.8-1.7c-0.2-0.1-0.3-0.2-0.5-0.3c0,0-0.1,0-0.1-0.1l-7.9-4.5c-0.1-0.1-0.2-0.1-0.3-0.2c0,0-0.1,0-0.1-0.1
						C21.4,34.3,21,34.2,20.7,34.2z"/>
					<g>
						<path class="st3" d="M67.2,28.4L67.2,28.4c-0.1,0-0.1-0.1-0.2-0.1c-0.5-0.2-1.1-0.2-1.7,0.1c-1.9,1-3,2.9-3.1,5.1
							c0,0.1,0,0.1,0,0.2v8.9l4.9,2.9l4-14.7L67.2,28.4z"/>
						<path class="st2" d="M67.1,46.4c-0.2,0-0.3,0-0.5-0.1l-4.9-2.9c-0.3-0.2-0.5-0.5-0.5-0.9v-9.2c0.1-2.5,1.5-4.7,3.6-5.9
							c0.8-0.4,1.7-0.5,2.5-0.1c0.1,0,0.1,0.1,0.2,0.1c0,0,0.1,0,0.1,0.1l3.9,2.3c0.4,0.2,0.6,0.7,0.5,1.1l-4,14.7
							c-0.1,0.3-0.3,0.5-0.6,0.7C67.4,46.4,67.3,46.4,67.1,46.4z M63.2,42l3.3,1.9l3.4-12.7l-3.1-1.8c-0.1,0-0.1-0.1-0.2-0.1
							l-0.1-0.1c-0.1-0.1-0.4-0.1-0.7,0c-1.5,0.8-2.5,2.5-2.6,4.2v0.2L63.2,42L63.2,42z"/>
					</g>
					<path class="st1" d="M67.2,28.4L67.2,28.4c-0.1,0-0.1-0.1-0.2-0.1c-0.5-0.2-1.1-0.2-1.7,0.1c-1.8,1-3,2.9-3.1,4.9
						c2.4,1.4,4.5,2.6,6.1,3.5l1.1-1.4l1.6-4.7L67.2,28.4z"/>
					<path class="st2" d="M72,41.6l0.1-9.2c0-1.4-1.5-2.3-2.8-1.6l0,0c-1.9,1.1-3.1,3.1-3.1,5.3V45L72,41.6z"/>
					<path class="st2" d="M66.2,45.9c-0.2,0-0.3,0-0.5-0.1l-4-2.3c-0.5-0.3-0.6-0.9-0.4-1.4c0.3-0.5,0.9-0.6,1.4-0.4l4,2.3
						c0.5,0.3,0.6,0.9,0.4,1.4C66.9,45.7,66.5,45.9,66.2,45.9z"/>
					<path class="st4" d="M62.2,43.6c-0.6,0-1-0.4-1-1v-9.2c0.1-2.5,1.5-4.7,3.6-5.9c0.8-0.4,1.7-0.5,2.5-0.1c0.1,0,0.1,0.1,0.2,0.1
						c0,0,0.1,0,0.1,0.1l3.9,2.3c0,0,0.1,0,0.1,0.1c0.9,0.5,1.4,1.4,1.4,2.5v3.8c0,0.6-0.5,1-1,1l0,0c-0.6,0-1-0.5-1-1v-3.8
						c0-0.5-0.3-0.7-0.4-0.7c0,0-0.1,0-0.1-0.1l-3.7-2.2c-0.1,0-0.1,0-0.2-0.1l-0.1-0.1c-0.1-0.1-0.4-0.1-0.7,0
						c-1.5,0.8-2.5,2.5-2.6,4.2v0.2v8.9C63.2,43.1,62.7,43.6,62.2,43.6z"/>
					<path class="st4" d="M115.6,79.8c-0.2,0-0.3,0-0.5-0.1l-3.4-2c-0.2-0.1-0.4-0.4-0.5-0.6l-0.4-1.8c0,0-0.1,0-0.1-0.1l-3.3-1.9
						l0,0c0,0-0.1,0-0.1-0.1c-0.9-0.5-1.3-1.6-1.3-2.8c0-2.4,1.6-5.2,3.7-6.4c1.2-0.7,2.3-0.7,3.3-0.2l0.3,0.2l4.1-4.3
						c0.3-0.3,0.8-0.4,1.2-0.2l3.4,2c0.2,0.1,0.4,0.4,0.5,0.6c0.4,1,0.7,2.2,0.7,3.6c0,4.8-2.8,10.5-6.8,13.9
						C116.1,79.7,115.8,79.8,115.6,79.8z M113.1,76.2l2.4,1.4c3.3-3.1,5.6-8,5.5-11.9c0-1-0.2-1.9-0.4-2.6l-2.4-1.4l-4.1,4.3
						c-0.3,0.3-0.8,0.4-1.2,0.2l-0.9-0.5c-0.3-0.2-0.7-0.1-1.3,0.2c-1.5,0.8-2.7,3-2.7,4.6c0,0.6,0.2,1,0.4,1.2c0,0,0,0,0.1,0
						l3.3,1.9c0.1,0,0.1,0.1,0.2,0.1c0.3,0.1,0.6,0.4,0.7,0.7L113.1,76.2z"/>
					<path class="st4" d="M113.5,71.5c-0.3,0-0.5-0.1-0.7-0.3c-0.1-0.1-0.2-0.2-0.2-0.3c-0.1-0.1-0.1-0.2-0.1-0.4
						c0-0.1,0-0.3,0.1-0.4c0-0.1,0.1-0.2,0.2-0.3c0.3-0.3,0.7-0.4,1.1-0.2c0.1,0.1,0.2,0.1,0.3,0.2c0.1,0.1,0.2,0.2,0.2,0.3
						c0.1,0.1,0.1,0.2,0.1,0.4c0,0.1,0,0.3-0.1,0.4c0,0.1-0.1,0.2-0.2,0.3s-0.2,0.2-0.3,0.2C113.8,71.5,113.7,71.5,113.5,71.5z"/>
					<path class="st4" d="M121.4,63.3c-0.2,0-0.5-0.1-0.7-0.3l-20.3-18.7l-9.7-5.6c-0.5-0.3-0.6-0.9-0.4-1.4
						c0.3-0.5,0.9-0.6,1.4-0.4l9.8,5.7c0.1,0,0.1,0.1,0.2,0.1L122,61.6c0.4,0.4,0.4,1,0.1,1.4C121.9,63.2,121.6,63.3,121.4,63.3z"/>
					<path class="st3" d="M97.9,80.6c-0.3,0-0.7-0.2-0.9-0.5c-0.3-0.5-0.1-1.1,0.4-1.4l4.8-2.8c0.5-0.3,1.1-0.1,1.4,0.4
						s0.1,1.1-0.4,1.4l-4.8,2.8C98.2,80.5,98.1,80.6,97.9,80.6z"/>
					<path class="st3" d="M97.9,76.3c-0.3,0-0.7-0.2-0.9-0.5c-0.3-0.5-0.1-1.1,0.4-1.4l4.8-2.8c0.5-0.3,1.1-0.1,1.4,0.4
						s0.1,1.1-0.4,1.4l-4.8,2.8C98.2,76.2,98.1,76.3,97.9,76.3z"/>
				</g>
			</g>
		</g>
	</g>
	<g>
		<rect class="st0" width="128" height="128"/>
	</g>
</g>
</svg>
