<?xml version="1.0" encoding="utf-8"?>
<!-- Generator: Adobe Illustrator 24.1.0, SVG Export Plug-In . SVG Version: 6.00 Build 0)  -->
<svg version="1.1" id="Layer_1" xmlns="http://www.w3.org/2000/svg" xmlns:xlink="http://www.w3.org/1999/xlink" x="0px" y="0px"
	 viewBox="0 0 128 128" style="enable-background:new 0 0 128 128;" xml:space="preserve">
<style type="text/css">
	.st0{fill:#0E352C;}
	.st1{fill:#185849;}
	.st2{fill:#FFFFFF;}
	.st3{fill:#E9EBDF;}
	.st4{fill:#4D9987;}
	.st5{fill:#27ae60;}
	.st6{fill:none;}
</style>
<g id="Layer_1_1_">
</g>
<g>
	<g id="Layer_2_1_">
		<g id="Tech_Concepts_1_">
			<g>
				<g>
					<g>
						<path class="st0" d="M64,50c-0.3,0-0.5-0.1-0.7-0.3C63.1,49.6,63,49.3,63,49c0-0.1,0-0.1,0-0.2c0-0.1,0-0.1,0.1-0.2
							c0-0.1,0-0.1,0.1-0.2l0.1-0.1c0.1-0.1,0.2-0.2,0.3-0.2c0.4-0.2,0.8-0.1,1.1,0.2c0.2,0.2,0.3,0.4,0.3,0.7s-0.1,0.5-0.3,0.7
							C64.5,49.9,64.3,50,64,50z"/>
						<path class="st0" d="M63,59.3c0-0.6,0.5-1,1-1l0,0c0.5,0,1,0.5,1,1l0,0c0,0.5-0.5,1-1,1l0,0C63.5,60.3,63,59.8,63,59.3z
							 M63,54.2c0-0.6,0.5-1,1-1l0,0c0.5,0,1,0.4,1,1l0,0c0,0.5-0.5,1-1,1l0,0C63.5,55.2,63,54.7,63,54.2z"/>
						<path class="st0" d="M64,65.4c-0.3,0-0.5-0.1-0.7-0.3c-0.2-0.2-0.3-0.4-0.3-0.7c0-0.1,0-0.3,0.1-0.4s0.1-0.2,0.2-0.3
							c0.1-0.1,0.2-0.2,0.3-0.2c0.4-0.1,0.8-0.1,1.1,0.2c0.1,0.1,0.2,0.2,0.2,0.3s0.1,0.2,0.1,0.4c0,0.3-0.1,0.5-0.3,0.7
							C64.5,65.3,64.3,65.4,64,65.4z"/>
					</g>
					<g>
						<path class="st1" d="M50.9,57.6c-0.3,0-0.5-0.1-0.7-0.3s-0.3-0.4-0.3-0.7s0.1-0.5,0.3-0.7c0.4-0.4,1.1-0.4,1.4,0
							c0.2,0.2,0.3,0.4,0.3,0.7s-0.1,0.5-0.3,0.7S51.2,57.6,50.9,57.6z"/>
						<path class="st1" d="M49.9,66.8c0-0.5,0.5-1,1-1l0,0c0.5,0,1,0.5,1,1l0,0c0,0.5-0.5,1-1,1l0,0C50.3,67.8,49.9,67.4,49.9,66.8z
							 M49.9,61.7c0-0.5,0.5-1,1-1l0,0c0.5,0,1,0.5,1,1l0,0c0,0.6-0.5,1-1,1l0,0C50.3,62.7,49.9,62.3,49.9,61.7z"/>
						<path class="st1" d="M50.9,73c-0.1,0-0.3,0-0.4-0.1s-0.2-0.1-0.3-0.2c-0.2-0.2-0.3-0.4-0.3-0.7c0-0.3,0.1-0.5,0.3-0.7
							c0.1-0.1,0.2-0.2,0.3-0.2c0.4-0.2,0.8-0.1,1.1,0.2c0.2,0.2,0.3,0.5,0.3,0.7c0,0.3-0.1,0.5-0.3,0.7C51.4,72.9,51.2,73,50.9,73z
							"/>
					</g>
					<g>
						<path class="st1" d="M77.1,42.5c-0.3,0-0.5-0.1-0.7-0.3s-0.3-0.4-0.3-0.7c0-0.1,0-0.3,0.1-0.4s0.1-0.2,0.2-0.3
							c0.1,0,0.1-0.1,0.2-0.1s0.1-0.1,0.2-0.1s0.1,0,0.2-0.1c0.3-0.1,0.7,0,0.9,0.3c0.1,0.1,0.2,0.2,0.2,0.3s0.1,0.2,0.1,0.4
							c0,0.3-0.1,0.5-0.3,0.7C77.6,42.4,77.4,42.5,77.1,42.5z"/>
						<path class="st1" d="M76.1,51.7c0-0.5,0.4-1,1-1l0,0c0.6,0,1,0.5,1,1l0,0c0,0.5-0.4,1-1,1l0,0C76.5,52.7,76.1,52.3,76.1,51.7z
							 M76.1,46.6c0-0.5,0.4-1,1-1l0,0c0.6,0,1,0.5,1,1l0,0c0,0.5-0.4,1-1,1l0,0C76.5,47.6,76.1,47.1,76.1,46.6z"/>
						<path class="st1" d="M77.1,57.8c-0.1,0-0.3,0-0.4-0.1s-0.2-0.1-0.3-0.2c-0.2-0.2-0.3-0.4-0.3-0.7c0-0.1,0-0.3,0.1-0.4
							c0-0.1,0.1-0.2,0.2-0.3c0.1,0,0.1-0.1,0.2-0.1c0,0,0.1-0.1,0.2-0.1s0.1,0,0.2-0.1c0.3-0.1,0.7,0,0.9,0.3
							c0.1,0.1,0.2,0.2,0.2,0.3s0.1,0.2,0.1,0.4c0,0.3-0.1,0.5-0.3,0.7C77.6,57.7,77.4,57.8,77.1,57.8z"/>
					</g>
					<g>
						<path class="st2" d="M88,17.3L88,17.3l-11.5-6.6l0,0c-1.3-0.8-3.1-0.7-5,0.4l-0.8,0.5l-9.8-5.7l0,0c-2.2-1.3-5.1-1.2-8.3,0.7
							c-6.7,3.8-12.1,13.8-12.7,22.8L33.5,33c-4.2,2.4-7.7,9-7.7,14.6c0,3.1,1,5.2,2.7,6.2l0,0L40,60.4l0,0c1.3,0.8,3.1,0.7,5-0.4
							l38-21.9c4.2-2.4,7.7-9,7.7-14.6C90.7,20.4,89.6,18.2,88,17.3z"/>
						<path class="st3" d="M83,17.7l-6.3,3.6c-0.6-8.3-6-12-12.7-8.2C57.3,17,51.9,27,51.3,36L45,39.6c-4.2,2.4-7.7,9-7.7,14.6
							s3.4,8.2,7.7,5.8l38-21.9c4.2-2.4,7.7-9,7.7-14.6C90.7,17.8,87.2,15.2,83,17.7"/>
						<path class="st4" d="M37.3,55.2c-0.6,0-1-0.4-1-1c0-6,3.6-12.8,8.2-15.5l5.8-3.4c0.8-9.3,6.4-19.2,13.2-23.1
							c3.3-1.9,6.5-2.2,9.1-0.8s4.3,4.3,4.9,8.2l5-2.9c0.5-0.3,1.1-0.1,1.4,0.4s0.1,1.1-0.4,1.4l-6.3,3.6c-0.3,0.2-0.7,0.2-1,0
							s-0.5-0.5-0.5-0.8c-0.3-3.9-1.7-6.9-4-8.1c-2-1.1-4.5-0.8-7.2,0.8c-6.3,3.6-11.6,13.3-12.2,22c0,0.3-0.2,0.6-0.5,0.8l-6.3,3.6
							c-3.9,2.3-7.2,8.4-7.2,13.8C38.3,54.8,37.9,55.2,37.3,55.2z"/>
						<path class="st0" d="M42,61.9c-0.8,0-1.7-0.2-2.4-0.6h-0.1L28,54.7l-0.1-0.1c-1.9-1.2-3-3.7-3-7c0-6,3.6-12.8,8.2-15.5
							l5.8-3.4c0.8-9.3,6.3-19.1,13.1-23c3.3-1.9,6.6-2.2,9.2-0.7h0.1l9.3,5.4l0.3-0.2C73,9,75.1,8.8,76.8,9.7c0,0,0.1,0,0.1,0.1
							l11.5,6.6h0.1c2,1.2,3.1,3.7,3.1,7c0,6-3.6,12.8-8.2,15.5l-38,21.9C44.3,61.6,43.1,61.9,42,61.9z M40.4,59.5
							C40.4,59.5,40.5,59.5,40.4,59.5c1.2,0.7,2.5,0.5,4.1-0.4l38-21.9c3.9-2.3,7.2-8.4,7.2-13.8c0-2.6-0.8-4.5-2.1-5.3
							c0,0,0,0-0.1,0l-11.3-6.5c0,0-0.1,0-0.1-0.1c-1.1-0.6-2.5-0.5-4,0.4l-0.8,0.5c-0.3,0.2-0.7,0.2-1,0l-9.7-5.6h-0.1
							c-2-1.2-4.6-0.9-7.3,0.7c-6.3,3.6-11.6,13.3-12.2,22c0,0.3-0.2,0.6-0.5,0.8L34,33.9c-3.9,2.3-7.2,8.4-7.2,13.8
							c0,2.6,0.8,4.5,2.1,5.3l0.1,0.1L40.4,59.5z"/>
					</g>
					<g>
						<path class="st1" d="M95.2,71.5c-0.3,0-0.5-0.1-0.7-0.3c-0.2-0.2-0.3-0.4-0.3-0.7c0-0.3,0.1-0.5,0.3-0.7
							c0.1-0.1,0.2-0.2,0.3-0.2c0.2-0.1,0.5-0.1,0.8,0c0.1,0.1,0.2,0.1,0.3,0.2c0.2,0.2,0.3,0.4,0.3,0.7c0,0.3-0.1,0.5-0.3,0.7
							C95.8,71.4,95.5,71.5,95.2,71.5z"/>
						<path class="st1" d="M88.8,72.7c-0.1-0.5,0.3-1.1,0.8-1.1l0,0c0.5-0.1,1.1,0.3,1.1,0.8l0,0c0.1,0.5-0.3,1.1-0.8,1.1l0,0l0,0
							l0,0c-0.1,0-0.1,0-0.2,0l0,0C89.3,73.6,88.9,73.2,88.8,72.7z M83.7,72.8L83.7,72.8L83.7,72.8c-0.5-0.2-0.7-0.8-0.5-1.3l0,0
							c0.2-0.5,0.8-0.7,1.3-0.5l0,0c0.5,0.2,0.7,0.8,0.5,1.3l0,0c-0.2,0.4-0.5,0.6-0.9,0.6l0,0C84,72.9,83.8,72.8,83.7,72.8z
							 M79,68.6c-0.3-0.5-0.2-1.1,0.3-1.4l0,0c0.5-0.3,1.1-0.2,1.4,0.3l0,0c0.3,0.5,0.2,1.1-0.3,1.4l0,0C80.2,69,80,69,79.8,69l0,0
							C79.5,69,79.2,68.9,79,68.6z M76.7,62.8L76.7,62.8L76.7,62.8c-0.1-0.5,0.2-1.1,0.8-1.2l0,0c0.5-0.1,1.1,0.2,1.2,0.8l0,0
							c0.1,0.5-0.2,1.1-0.8,1.2l0,0c-0.1,0-0.1,0-0.2,0l0,0C77.2,63.6,76.8,63.3,76.7,62.8z"/>
						<path class="st1" d="M77.1,57.8c-0.1,0-0.3,0-0.4-0.1s-0.2-0.1-0.3-0.2c-0.2-0.2-0.3-0.4-0.3-0.7c0-0.1,0-0.3,0.1-0.4
							c0-0.1,0.1-0.2,0.2-0.3c0.1,0,0.1-0.1,0.2-0.1c0,0,0.1-0.1,0.2-0.1s0.1,0,0.2-0.1c0.3-0.1,0.7,0,0.9,0.3
							c0.1,0.1,0.2,0.2,0.2,0.3s0.1,0.2,0.1,0.4c0,0.3-0.1,0.5-0.3,0.7C77.6,57.7,77.4,57.8,77.1,57.8z"/>
					</g>
					<g>
						<path class="st1" d="M50.9,73c-0.1,0-0.3,0-0.4-0.1s-0.2-0.1-0.3-0.2c-0.2-0.2-0.3-0.4-0.3-0.7c0-0.3,0.1-0.5,0.3-0.7
							c0.1-0.1,0.2-0.2,0.3-0.2c0.4-0.2,0.8-0.1,1.1,0.2c0.2,0.2,0.3,0.5,0.3,0.7c0,0.3-0.1,0.5-0.3,0.7C51.4,72.9,51.2,73,50.9,73z
							"/>
						<path class="st1" d="M36.7,103.8c-0.4-0.4-0.4-1,0-1.4l0,0c0.4-0.4,1-0.3,1.4,0l0,0c0.4,0.4,0.3,1,0,1.4l0,0
							c-0.2,0.2-0.4,0.3-0.7,0.3l0,0C37.1,104.1,36.9,104,36.7,103.8z M40.7,99.6c-0.4-0.3-0.5-1-0.2-1.4l0,0c0.3-0.4,1-0.5,1.4-0.2
							l0,0c0.4,0.3,0.5,1,0.2,1.4l0,0l0,0l0,0c-0.2,0.3-0.5,0.4-0.8,0.4l0,0C41.1,99.8,40.9,99.8,40.7,99.6z M44,94.9
							c-0.5-0.3-0.6-0.9-0.4-1.4l0,0c0.3-0.5,0.9-0.6,1.4-0.4l0,0c0.5,0.3,0.6,0.9,0.4,1.4l0,0l0,0l0,0c-0.2,0.3-0.5,0.5-0.9,0.5
							l0,0C44.4,95,44.2,95,44,94.9z M46.8,89.8c-0.5-0.2-0.7-0.8-0.5-1.3l0,0c0.2-0.5,0.8-0.7,1.3-0.5l0,0c0.5,0.2,0.7,0.8,0.5,1.3
							l0,0l0,0l0,0c-0.2,0.4-0.5,0.6-0.9,0.6l0,0C47,89.8,46.9,89.8,46.8,89.8z M48.8,84.3c-0.5-0.2-0.8-0.7-0.7-1.2l0,0
							c0.2-0.5,0.7-0.8,1.2-0.7l0,0c0.5,0.2,0.8,0.7,0.7,1.2l0,0c-0.1,0.4-0.5,0.7-1,0.7l0,0C49,84.4,48.9,84.4,48.8,84.3z
							 M50.3,78.7c-0.5-0.1-0.9-0.6-0.8-1.1l0,0c0.1-0.5,0.6-0.9,1.2-0.8l0,0c0.5,0.1,0.9,0.6,0.8,1.1l0,0l0,0l0,0
							c-0.1,0.5-0.5,0.9-1,0.9l0,0C50.4,78.7,50.3,78.7,50.3,78.7z"/>
						<path class="st1" d="M32.8,107.6c-0.3,0-0.5-0.1-0.7-0.3c-0.1-0.1-0.2-0.2-0.2-0.3c0-0.1-0.1-0.2-0.1-0.4
							c0-0.3,0.1-0.5,0.3-0.7c0.1-0.1,0.2-0.2,0.3-0.2c0.4-0.2,0.8-0.1,1.1,0.2c0.2,0.2,0.3,0.4,0.3,0.7c0,0.1,0,0.3-0.1,0.4
							c0,0.1-0.1,0.2-0.2,0.3c-0.1,0.1-0.2,0.2-0.3,0.2C33,107.6,32.9,107.6,32.8,107.6z"/>
					</g>
					<g>
						<path class="st0" d="M64,65.4c-0.3,0-0.5-0.1-0.7-0.3c-0.2-0.2-0.3-0.4-0.3-0.7c0-0.1,0-0.3,0.1-0.4s0.1-0.2,0.2-0.3
							c0.1-0.1,0.2-0.2,0.3-0.2c0.4-0.1,0.8-0.1,1.1,0.2c0.1,0.1,0.2,0.2,0.2,0.3s0.1,0.2,0.1,0.4c0,0.3-0.1,0.5-0.3,0.7
							C64.5,65.3,64.3,65.4,64,65.4z"/>
						<path class="st0" d="M76.8,96.3c-0.4-0.4-0.4-1,0-1.4l0,0c0.4-0.4,1-0.4,1.4,0l0,0c0.4,0.4,0.4,1,0.1,1.4l0,0
							c-0.2,0.2-0.5,0.3-0.7,0.3l0,0C77.2,96.5,77,96.5,76.8,96.3z M72.8,91.9L72.8,91.9c-0.3-0.4-0.2-1.1,0.2-1.4l0,0
							c0.4-0.3,1.1-0.3,1.4,0.2l0,0c0.3,0.4,0.3,1.1-0.2,1.4l0,0c-0.2,0.1-0.4,0.2-0.6,0.2l0,0C73.3,92.3,73,92.1,72.8,91.9z
							 M69.5,87L69.5,87c-0.3-0.5-0.1-1.1,0.4-1.4l0,0c0.5-0.3,1.1-0.1,1.4,0.4l0,0c0.3,0.5,0.1,1.1-0.4,1.4l0,0
							c-0.2,0.1-0.3,0.1-0.5,0.1l0,0C70,87.4,69.7,87.3,69.5,87z M66.8,81.7c-0.2-0.5,0-1.1,0.5-1.3l0,0c0.5-0.2,1.1,0,1.3,0.5l0,0
							c0.2,0.5,0,1.1-0.5,1.3l0,0c-0.1,0.1-0.3,0.1-0.4,0.1l0,0C67.4,82.3,67,82,66.8,81.7z M64.8,76.1L64.8,76.1
							c-0.2-0.5,0.2-1.1,0.7-1.2l0,0c0.5-0.2,1.1,0.1,1.2,0.7l0,0c0.2,0.5-0.1,1.1-0.7,1.2l0,0c-0.1,0-0.2,0-0.3,0l0,0
							C65.3,76.8,64.9,76.5,64.8,76.1z M63.5,70.3L63.5,70.3c-0.1-0.5,0.3-1.1,0.8-1.2l0,0c0.5-0.1,1.1,0.3,1.1,0.8l0,0
							c0.1,0.5-0.3,1.1-0.8,1.1l0,0c0,0-0.1,0-0.2,0l0,0C64,71.2,63.6,70.8,63.5,70.3z"/>
						<path class="st0" d="M82.1,100c-0.3,0-0.5-0.1-0.7-0.3c-0.1-0.1-0.2-0.2-0.2-0.3c-0.1-0.1-0.1-0.2-0.1-0.4
							c0-0.3,0.1-0.5,0.3-0.7c0-0.1,0.1-0.1,0.1-0.1c0.1,0,0.1-0.1,0.2-0.1s0.1,0,0.2-0.1c0.1,0,0.3,0,0.4,0s0.1,0,0.2,0.1
							c0.1,0,0.1,0.1,0.2,0.1c0,0,0.1,0.1,0.2,0.1c0.2,0.2,0.3,0.4,0.3,0.7c0,0.1,0,0.3-0.1,0.4s-0.1,0.2-0.2,0.3
							c-0.1,0.1-0.2,0.2-0.3,0.2S82.3,100,82.1,100z"/>
					</g>
					<g>
						<path class="st1" d="M95.2,71.5c-0.3,0-0.5-0.1-0.7-0.3c-0.2-0.2-0.3-0.4-0.3-0.7c0-0.3,0.1-0.5,0.3-0.7
							c0.1-0.1,0.2-0.2,0.3-0.2c0.2-0.1,0.5-0.1,0.8,0c0.1,0.1,0.2,0.1,0.3,0.2c0.2,0.2,0.3,0.4,0.3,0.7c0,0.3-0.1,0.5-0.3,0.7
							C95.8,71.4,95.5,71.5,95.2,71.5z"/>
						<path class="st1" d="M99.4,68.1c-0.3-0.5-0.1-1.1,0.4-1.4l0,0c0.5-0.3,1.1-0.1,1.4,0.4l0,0c0.3,0.5,0.1,1.1-0.4,1.4l0,0
							c-0.2,0.1-0.3,0.1-0.5,0.1l0,0C99.9,68.6,99.5,68.5,99.4,68.1z"/>
						<path class="st1" d="M105.2,65.8c-0.3,0-0.5-0.1-0.7-0.3c-0.2-0.2-0.3-0.4-0.3-0.7c0-0.1,0-0.3,0.1-0.4c0-0.1,0.1-0.2,0.2-0.3
							c0,0,0.1-0.1,0.2-0.1c0,0,0.1-0.1,0.2-0.1s0.1,0,0.2-0.1c0.1,0,0.3,0,0.4,0s0.1,0,0.2,0.1c0.1,0,0.1,0,0.2,0.1l0.1,0.1
							c0.1,0.1,0.2,0.2,0.2,0.3c0.1,0.1,0.1,0.2,0.1,0.4c0,0.3-0.1,0.5-0.3,0.7C105.7,65.6,105.5,65.8,105.2,65.8z"/>
					</g>
					<g>
						<path class="st1" d="M22.8,113.4c-0.1,0-0.3,0-0.4-0.1c-0.1,0-0.2-0.1-0.3-0.2c-0.1-0.1-0.2-0.2-0.2-0.3s-0.1-0.2-0.1-0.4
							c0-0.3,0.1-0.5,0.3-0.7c0.3-0.3,0.7-0.4,1.1-0.2c0.1,0,0.1,0.1,0.2,0.1s0.1,0.1,0.1,0.1c0.2,0.2,0.3,0.4,0.3,0.7
							c0,0.3-0.1,0.5-0.3,0.7c-0.1,0.1-0.2,0.2-0.3,0.2C23,113.3,22.9,113.4,22.8,113.4z"/>
						<path class="st1" d="M26.9,110c-0.3-0.5-0.1-1.1,0.4-1.4l0,0c0.5-0.3,1.1-0.1,1.4,0.4l0,0c0.3,0.5,0.1,1.1-0.4,1.4l0,0
							c-0.2,0.1-0.3,0.1-0.5,0.1l0,0C27.4,110.5,27.1,110.3,26.9,110z"/>
						<path class="st1" d="M32.8,107.6c-0.3,0-0.5-0.1-0.7-0.3c-0.1-0.1-0.2-0.2-0.2-0.3c0-0.1-0.1-0.2-0.1-0.4
							c0-0.3,0.1-0.5,0.3-0.7c0.1-0.1,0.2-0.2,0.3-0.2c0.4-0.2,0.8-0.1,1.1,0.2c0.2,0.2,0.3,0.4,0.3,0.7c0,0.1,0,0.3-0.1,0.4
							c0,0.1-0.1,0.2-0.2,0.3c-0.1,0.1-0.2,0.2-0.3,0.2C33,107.6,32.9,107.6,32.8,107.6z"/>
					</g>
					<g>
						<path class="st0" d="M92.1,105.8c-0.1,0-0.3,0-0.4-0.1s-0.2-0.1-0.3-0.2c-0.2-0.2-0.3-0.4-0.3-0.7c0-0.1,0-0.3,0.1-0.4
							s0.1-0.2,0.2-0.3c0.3-0.3,0.7-0.4,1.1-0.2c0.1,0,0.2,0.1,0.3,0.2c0.1,0.1,0.2,0.2,0.2,0.3s0.1,0.2,0.1,0.4
							c0,0.3-0.1,0.5-0.3,0.7C92.6,105.7,92.4,105.8,92.1,105.8z"/>
						<path class="st0" d="M86.6,102.8c-0.5-0.3-0.6-0.9-0.4-1.4l0,0c0.3-0.5,0.9-0.6,1.4-0.4l0,0c0.5,0.3,0.6,0.9,0.4,1.4l0,0
							c-0.2,0.3-0.5,0.5-0.9,0.5l0,0C87,102.9,86.8,102.9,86.6,102.8z"/>
						<path class="st0" d="M82.1,100c-0.3,0-0.5-0.1-0.7-0.3c-0.1-0.1-0.2-0.2-0.2-0.3c-0.1-0.1-0.1-0.2-0.1-0.4
							c0-0.3,0.1-0.5,0.3-0.7c0-0.1,0.1-0.1,0.1-0.1c0.1,0,0.1-0.1,0.2-0.1s0.1,0,0.2-0.1c0.1,0,0.3,0,0.4,0s0.1,0,0.2,0.1
							c0.1,0,0.1,0.1,0.2,0.1c0,0,0.1,0.1,0.2,0.1c0.2,0.2,0.3,0.4,0.3,0.7c0,0.1,0,0.3-0.1,0.4s-0.1,0.2-0.2,0.3
							c-0.1,0.1-0.2,0.2-0.3,0.2S82.3,100,82.1,100z"/>
					</g>
					<path class="st4" d="M99.8,116.4c-3.1,0-5.9-0.7-8.1-2c-2.4-1.4-3.7-3.2-3.7-5.3s1.3-3.9,3.7-5.3c2.2-1.3,5.1-2,8.1-2
						c3.1,0,5.9,0.7,8.1,2c2.4,1.4,3.7,3.2,3.7,5.3s-1.3,3.9-3.7,5.3C105.7,115.7,102.8,116.4,99.8,116.4z M99.8,104
						c-2.7,0-5.2,0.6-7.1,1.7c-1.7,1-2.7,2.2-2.7,3.5s0.9,2.5,2.7,3.5c1.9,1.1,4.4,1.7,7.1,1.7s5.2-0.6,7.1-1.7
						c1.7-1,2.7-2.2,2.7-3.5s-0.9-2.5-2.7-3.5C105,104.6,102.5,104,99.8,104z"/>
					<path class="st5" d="M15.1,124c-3.1,0-5.9-0.7-8.1-2c-2.4-1.4-3.7-3.2-3.7-5.3c0-2,1.3-3.9,3.7-5.3c2.2-1.3,5.1-2,8.1-2
						c3.1,0,5.9,0.7,8.1,2c2.4,1.4,3.7,3.2,3.7,5.3s-1.3,3.9-3.7,5.3C21.1,123.3,18.2,124,15.1,124z M15.1,111.5
						c-2.7,0-5.2,0.6-7.1,1.7c-1.7,1-2.7,2.2-2.7,3.5s0.9,2.5,2.7,3.5c1.9,1.1,4.4,1.7,7.1,1.7s5.2-0.6,7.1-1.7
						c1.7-1,2.7-2.2,2.7-3.5s-0.9-2.5-2.7-3.5C20.4,112.1,17.9,111.5,15.1,111.5z"/>
					<path class="st5" d="M112.9,67.6c-3.1,0-5.9-0.7-8.1-2c-2.4-1.4-3.7-3.2-3.7-5.3s1.3-3.9,3.7-5.3c2.2-1.3,5.1-2,8.1-2
						c3.1,0,5.9,0.7,8.1,2c2.4,1.4,3.7,3.2,3.7,5.3c0,2-1.3,3.9-3.7,5.3C118.8,66.9,115.9,67.6,112.9,67.6z M112.9,55.1
						c-2.7,0-5.2,0.6-7.1,1.7c-1.7,1-2.7,2.2-2.7,3.5s0.9,2.5,2.7,3.5c1.9,1.1,4.4,1.7,7.1,1.7s5.2-0.6,7.1-1.7
						c1.7-1,2.7-2.2,2.7-3.5s-0.9-2.5-2.7-3.5C118.1,55.7,115.6,55.1,112.9,55.1z"/>
				</g>
				<rect x="4" y="4" class="st6" width="120" height="120"/>
				<rect x="4" y="4" class="st6" width="120" height="120"/>
			</g>
		</g>
	</g>
	<g>
		<rect class="st6" width="128" height="128"/>
	</g>
</g>
</svg>
