<?xml version="1.0" encoding="utf-8"?>
<!-- Generator: Adobe Illustrator 24.1.0, SVG Export Plug-In . SVG Version: 6.00 Build 0)  -->
<svg version="1.1" id="Layer_1" xmlns="http://www.w3.org/2000/svg" xmlns:xlink="http://www.w3.org/1999/xlink" x="0px" y="0px"
	 viewBox="0 0 128 128" style="enable-background:new 0 0 128 128;" xml:space="preserve">
<style type="text/css">
	.st0{fill:#E9EBDF;}
	.st1{fill:#4D9987;}
	.st2{fill:#FFFFFF;}
	.st3{fill:#0E352C;}
	.st4{fill:#C4D7D3;}
	.st5{fill:#27ae60;}
	.st6{fill:none;}
	.st7{fill:#185849;}
</style>
<g id="Layer_1_1_">
</g>
<g>
	<g id="Layer_2_1_">
		<g id="Tech_Concepts_1_">
			<g>
				<g>
					<g>
						<g>
							<path class="st0" d="M97.6,86.2L97.6,86.2l-1.8-13.9H77.6l-1.9,13.9l0,0c0,0.2,0,0.3,0,0.5c0,3.5,4.9,6.3,11,6.3
								s11-2.8,11-6.3C97.7,86.5,97.6,86.3,97.6,86.2z"/>
							<path class="st1" d="M86.7,94c-6.7,0-12-3.2-12-7.3c0-0.2,0-0.3,0-0.5v-0.1l1.9-13.9c0.1-0.5,0.5-0.9,1-0.9h18.2
								c0.5,0,0.9,0.4,1,0.9L98.6,86c0,0.1,0,0.1,0,0.2c0,0.2,0,0.3,0,0.5C98.7,90.8,93.4,94,86.7,94z M76.7,86.1L76.7,86.1
								c0,0.2,0,0.3,0,0.5c0,2.9,4.6,5.3,10,5.3s10-2.4,10-5.3c0-0.1,0-0.2,0-0.4v-0.1L95,73.2H78.4L76.7,86.1z"/>
						</g>
						<path class="st0" d="M73.3,100.2L73.3,100.2l-1.8-13.9l0,0c-0.4-2.7-4.3-4.9-9.1-4.9s-8.7,2.1-9.1,4.9l0,0l-1.9,13.9l0,0
							c0,0.2,0,0.3,0,0.5c0,3.5,4.9,6.3,11,6.3s11-2.8,11-6.3C73.4,100.5,73.3,100.4,73.3,100.2z"/>
						<path class="st2" d="M61.9,81.5c-4.6,0.1-8.3,2.2-8.6,4.8l0,0l-1.9,13.9l0,0c0,0.2,0,0.3,0,0.5c0,3.4,4.7,6.2,10.5,6.3V81.5z"
							/>
						<path class="st1" d="M62.4,108c-6.7,0-12-3.2-12-7.3c0-0.2,0-0.3,0-0.5v-0.1l1.9-13.9c0-0.1,0-0.1,0-0.1
							c0.5-3.2,4.8-5.6,10.1-5.6c5.2,0,9.5,2.4,10.1,5.6v0.1l1.9,13.9c0,0,0,0.1,0,0.2c0,0.2,0,0.3,0,0.5
							C74.4,104.8,69.1,108,62.4,108z M52.4,100.2L52.4,100.2c0,0.2,0,0.3,0,0.5c0,2.9,4.6,5.3,10,5.3s10-2.4,10-5.3
							c0-0.1,0-0.2,0-0.4v-0.1l-1.8-13.6v-0.1c-0.3-2.2-3.9-4-8.1-4s-7.8,1.8-8.1,4v0.1L52.4,100.2z"/>
						<g>
							<path class="st0" d="M46.9,83.3L46.9,83.3L45,69.4l0,0c-0.4-2.7-4.3-4.9-9.1-4.9s-8.7,2.1-9.1,4.9l0,0L25,83.3l0,0
								c0,0.2,0,0.3,0,0.5c0,3.5,4.9,6.3,11,6.3s11-2.8,11-6.3C46.9,83.6,46.9,83.5,46.9,83.3z"/>
							<path class="st1" d="M35.9,91.1c-6.7,0-12-3.2-12-7.3c0-0.2,0-0.3,0-0.5v-0.1l1.9-13.9c0-0.1,0-0.1,0-0.1
								c0.5-3.2,4.8-5.6,10.1-5.6c5.2,0,9.5,2.4,10.1,5.6v0.1l1.9,13.9v0.1c0,0.2,0,0.3,0,0.5C47.9,87.9,42.6,91.1,35.9,91.1z
								 M26,83.3L26,83.3c0,0.2,0,0.3,0,0.5c0,2.9,4.6,5.3,10,5.3s10-2.4,10-5.3c0-0.1,0-0.2,0-0.4v-0.1l-1.8-13.6v-0.1
								c-0.3-2.2-3.9-4-8.1-4s-7.8,1.8-8.1,4v0.1L26,83.3z"/>
						</g>
						<path class="st2" d="M26.8,69.4L26.8,69.4L25,83.3l0,0c0,0.2,0,0.3,0,0.5c0,3.5,4.9,6.3,11,6.3V64.6
							C31.1,64.6,27.2,66.7,26.8,69.4z"/>
						<path class="st1" d="M35.9,91.1c-6.7,0-12-3.2-12-7.3c0-0.2,0-0.3,0-0.5v-0.1l1.9-13.9c0-0.1,0-0.1,0-0.1
							c0.5-3.2,4.8-5.6,10.1-5.6c5.2,0,9.5,2.4,10.1,5.6v0.1l1.9,13.9v0.1c0,0.2,0,0.3,0,0.5C47.9,87.9,42.6,91.1,35.9,91.1z
							 M26,83.3L26,83.3c0,0.2,0,0.3,0,0.5c0,2.9,4.6,5.3,10,5.3s10-2.4,10-5.3c0-0.1,0-0.2,0-0.4v-0.1l-1.8-13.6v-0.1
							c-0.3-2.2-3.9-4-8.1-4s-7.8,1.8-8.1,4v0.1L26,83.3z"/>
						<g>
							<path class="st0" d="M19.7,25.9c0,0-5.9-5.4-5.4-15.1c0.1-2.3,3-3.3,4.5-1.5c4.5,5.2,11.8,4.9,11.8,4.9"/>
							<path class="st1" d="M19.7,26.9c-0.2,0-0.5-0.1-0.7-0.3c-0.3-0.2-6.2-5.9-5.7-15.9c0.1-1.5,1-2.7,2.4-3.2s2.9-0.1,3.8,1
								c4.1,4.7,11,4.6,11,4.6c0.6,0,1,0.4,1,1s-0.4,1-1,1c-0.3,0-7.9,0.2-12.6-5.3c-0.6-0.7-1.4-0.5-1.7-0.4c-0.2,0.1-1,0.4-1,1.4
								c-0.5,9.1,5,14.3,5.1,14.3c0.4,0.4,0.4,1,0,1.4C20.3,26.8,20,26.9,19.7,26.9z"/>
						</g>
						<path class="st2" d="M16.4,12.9c3.5,4.1,8.8,4.8,10.9,4.9l3.3-3.6c0,0-7.4,0.2-11.8-4.9c-1.5-1.7-4.4-0.7-4.5,1.5
							c0,0.4,0,0.8,0,1.2C15.1,11.9,15.9,12.2,16.4,12.9z"/>
						<path class="st1" d="M19.7,26.9c-0.2,0-0.5-0.1-0.7-0.3c-0.3-0.2-6.2-5.9-5.7-15.9c0.1-1.5,1-2.7,2.4-3.2s2.9-0.1,3.8,1
							c4.1,4.7,11,4.6,11,4.6c0.6,0,1,0.4,1,1s-0.4,1-1,1c-0.3,0-7.9,0.2-12.6-5.3c-0.6-0.7-1.4-0.5-1.7-0.4c-0.2,0.1-1,0.4-1,1.4
							c-0.5,9.1,5,14.3,5.1,14.3c0.4,0.4,0.4,1,0,1.4C20.3,26.8,20,26.9,19.7,26.9z"/>
						<ellipse transform="matrix(0.5 -0.866 0.866 0.5 -12.2092 78.5182)" class="st2" cx="61.9" cy="49.8" rx="43.3" ry="49.1"/>
						<path class="st0" d="M83.6,12.3c-1.9-1.1-3.8-2-5.8-2.9c16.5,12.5,22.3,34,12.8,50.4C80.2,77.9,55.4,83,35.1,71.3
							c-10.7-6.2-17.9-15.8-20.9-26.1c0.1,16.1,9.6,32.6,26,42.1c23.5,13.6,52.2,7.8,64.2-13C116.4,53.6,107,25.9,83.6,12.3z"/>
						<path class="st1" d="M67,95.6c-9.1,0-18.5-2.4-27.2-7.4c-11.6-6.7-20.1-16.9-24.2-28.9c-4-12-3-24.3,2.9-34.5
							C24.5,14.5,34.6,7.5,47,5s25.5-0.2,37.1,6.5c23.9,13.8,33.4,42.2,21.2,63.4C97.5,88.3,82.8,95.6,67,95.6z M56.9,6
							c-3.2,0-6.4,0.3-9.5,0.9C35.5,9.3,25.9,16,20.3,25.8s-6.6,21.4-2.8,32.9C21.4,70.1,29.6,80,40.8,86.4
							c23,13.3,51.1,7.6,62.8-12.6s2.5-47.4-20.5-60.7l0,0C74.9,8.4,65.8,6,56.9,6z"/>
						<ellipse transform="matrix(0.5 -0.866 0.866 0.5 -12.1396 39.6803)" class="st2" cx="28.3" cy="30.4" rx="5.8" ry="3.6"/>
						<path class="st0" d="M100.5,27.5l5.3-12.9c-2.5-16.9-18-0.4-24.9,3c0,0,9.1,2.9,12,12s4.8,1.3,4.8,1.3L100.5,27.5z"/>
						<path class="st1" d="M100.5,28.5c-0.1,0-0.3,0-0.4-0.1c-0.5-0.2-0.8-0.8-0.5-1.3l5.2-12.7c-0.5-3.3-1.6-5.4-3.3-6.1
							c-3.5-1.4-9.5,3-14.3,6.4c-2.1,1.5-4.2,3-5.8,3.8c-0.5,0.2-1.1,0-1.3-0.4c-0.2-0.5,0-1.1,0.4-1.3c1.5-0.7,3.4-2.1,5.5-3.6
							c5.5-4,11.8-8.5,16.3-6.6c2.4,1,3.9,3.6,4.5,7.9c0,0.2,0,0.4-0.1,0.5l-5.3,12.9C101.3,28.3,100.9,28.5,100.5,28.5z"/>
						<g>
							<path class="st2" d="M75.9,35.6c-7-10.2-31.3-12.1-23.9,18"/>
							<path class="st1" d="M52,54.6c-0.4,0-0.9-0.3-1-0.8c-4.3-17.4,2-23,6.1-24.9c6.3-2.8,15.5,0,19.6,6.1
								c0.3,0.5,0.2,1.1-0.3,1.4c-0.5,0.3-1.1,0.2-1.4-0.3c-3.5-5.1-11.7-7.7-17-5.3c-6.1,2.7-7.9,10.8-5,22.6
								c0.1,0.5-0.2,1.1-0.7,1.2C52.2,54.6,52.1,54.6,52,54.6z"/>
						</g>
						<path class="st0" d="M104,57.5L104,57.5c-1.9-1.7-4.7-1.8-8,0.1c-5.6,3.2-10.2,11.2-10.2,17.8c0,3.8,1.6,6.4,4,7.1l0,0l9.2,3
							l12.1-21.4L104,57.5z"/>
						<path class="st2" d="M105.2,74.8l6.1-10.7l-6.5-5.8l0,0c-1.9-1.7-4.7-1.8-8,0.1h-0.1c-4.5,2.7-4.3,9.3,0.2,11.9L105.2,74.8z"
							/>
						<path class="st1" d="M99.1,86.5c-0.1,0-0.2,0-0.3,0l-9.2-3c-0.1,0-0.1,0-0.2-0.1c-2.8-1-4.5-4-4.5-8c0-0.6,0.4-1,1-1
							s1,0.4,1,1c0,3.3,1.2,5.5,3.3,6.2c0.1,0,0.1,0,0.2,0.1l8.3,2.7l11.3-20l-6.5-5.9l-0.1-0.1c-1.6-1.4-4.1-1.4-6.8,0.2
							c-0.5,0.3-1.1,0.1-1.4-0.4s-0.1-1.1,0.4-1.4c3.5-2,6.7-2,9-0.1l0.1,0.1l7.2,6.5c0.3,0.3,0.4,0.8,0.2,1.2L100,86
							C99.8,86.3,99.5,86.5,99.1,86.5z"/>
						<g>
							<path class="st0" d="M97.6,71.9c1.6-3.3,4.1-6.2,6.8-7.8c4.8-2.8,8.7-0.5,8.7,5.2s-3.9,12.5-8.7,15.2
								c-4.1,2.3-7.5,1.1-8.4-2.8"/>
							<path class="st1" d="M100.6,86.7c-0.8,0-1.5-0.1-2.2-0.4c-1.6-0.7-2.8-2.2-3.4-4.3c-0.1-0.5,0.2-1.1,0.7-1.2s1.1,0.2,1.2,0.7
								c0.4,1.5,1.1,2.5,2.2,2.9c1.3,0.5,3,0.3,4.8-0.8c4.5-2.6,8.2-9.1,8.2-14.4c0-2.4-0.7-4.1-2.1-4.9c-1.3-0.8-3.1-0.5-5.1,0.6
								c-2.5,1.4-4.8,4.1-6.4,7.3c-0.2,0.5-0.8,0.7-1.3,0.5s-0.7-0.8-0.5-1.3c1.8-3.6,4.4-6.6,7.2-8.2c2.6-1.5,5.1-1.7,7.1-0.6
								c2,1.2,3.1,3.5,3.1,6.6c0,5.9-4.1,13.2-9.2,16.1C103.4,86.3,101.9,86.7,100.6,86.7z"/>
						</g>
						<g>
							<path class="st1" d="M92.7,28.2c4.6-11.9,19.3-31,10.4,3.3C103.1,31.5,100.8,25.9,92.7,28.2z"/>
							<path class="st1" d="M103.1,32.5c-0.4,0-0.8-0.2-0.9-0.6c-0.1-0.2-2.1-4.7-9.2-2.7c-0.4,0.1-0.8,0-1-0.3s-0.3-0.7-0.2-1
								c2.1-5.3,9-18.1,13.2-16.7c1.9,0.6,3.5,3.5-0.9,20.6C104,32.2,103.6,32.5,103.1,32.5C103.2,32.5,103.1,32.5,103.1,32.5z
								 M96.3,26.7c3.2,0,5.1,1.3,6.3,2.5c3.8-15.3,1.7-16.1,1.7-16.1c-1.3-0.5-6.7,6.3-10,13.8C95.1,26.7,95.7,26.7,96.3,26.7z"/>
						</g>
						<g>
							<path class="st1" d="M60,52c3.2-6.4,8.8-11.4,13.4-13.4C70.7,33.7,55.5,30.9,60,52z"/>
							<path class="st1" d="M60,53L60,53c-0.5-0.1-0.9-0.4-0.9-0.8c-2.7-12.7,1.7-16.5,4.5-17.6c4-1.6,9.1,0.6,10.8,3.4
								c0.1,0.2,0.2,0.5,0.1,0.8s-0.3,0.5-0.5,0.6c-4.1,1.8-9.7,6.6-13,13C60.8,52.8,60.4,53,60,53z M66.5,36.1
								c-0.8,0-1.5,0.1-2.2,0.4c-3.5,1.3-4.8,5.8-3.8,12.6c2.9-4.6,7.1-8.7,11.4-10.9C70.7,37.1,68.7,36.1,66.5,36.1z"/>
						</g>
						<g>
							<ellipse class="st3" cx="101.3" cy="49.6" rx="1.8" ry="2.5"/>
							<path class="st3" d="M101.3,53.1c-1.6,0-2.8-1.5-2.8-3.5s1.3-3.5,2.8-3.5s2.8,1.5,2.8,3.5S102.9,53.1,101.3,53.1z M101.3,48
								c-0.4,0-0.8,0.7-0.8,1.5s0.5,1.5,0.8,1.5s0.8-0.7,0.8-1.5S101.6,48,101.3,48z"/>
						</g>
						<g>
							<circle class="st3" cx="86.1" cy="57.7" r="2.5"/>
							<path class="st3" d="M86.1,61.2c-1.9,0-3.5-1.6-3.5-3.5s1.6-3.5,3.5-3.5s3.5,1.6,3.5,3.5S88.1,61.2,86.1,61.2z M86.1,56.2
								c-0.8,0-1.5,0.7-1.5,1.5s0.7,1.5,1.5,1.5s1.5-0.7,1.5-1.5S87,56.2,86.1,56.2z"/>
						</g>
						<path class="st3" d="M62.4,108c-2.4,0-4.7-0.4-6.7-1.2c-0.3-0.1-0.6-0.3-0.9-0.4c-0.3-0.2-0.6-0.3-0.8-0.4l-0.1-0.1
							c-0.2-0.1-0.4-0.3-0.6-0.4l-0.1-0.1c-0.2-0.2-0.4-0.3-0.6-0.5l-0.1-0.1c-0.2-0.2-0.3-0.3-0.5-0.5c-0.1-0.1-0.1-0.1-0.2-0.2
							l0.7-0.7l-0.8,0.7c-0.1-0.1-0.2-0.2-0.3-0.4c-0.1-0.1-0.1-0.2-0.2-0.2l-0.1-0.1c-0.1-0.1-0.1-0.2-0.2-0.3
							c-0.1-0.1-0.1-0.2-0.1-0.3l-0.1-0.2c0-0.1-0.1-0.2-0.1-0.3c0-0.1-0.1-0.3-0.1-0.4l0.9-0.4l-1,0.3c0-0.1,0-0.2-0.1-0.3
							c0-0.3-0.1-0.5-0.1-0.8c0-0.2,0-0.3,0-0.5v-0.1l0.9-6.8c-2.9-0.9-5.8-2-8.5-3.4c-2,0.9-4.4,1.3-6.9,1.3c-6.7,0-12-3.2-12-7.3
							c0-0.2,0-0.3,0-0.5v-0.1l1-7.4c-0.2-0.3-0.5-0.6-0.7-0.9l-0.4-0.5c-0.6-0.8-1.1-1.5-1.7-2.2L22,72c-0.6-0.8-1.2-1.7-1.7-2.6
							l-0.1-0.1c-0.5-0.9-1-1.7-1.5-2.6l-0.2-0.3c-1-1.8-1.8-3.8-2.5-5.7v-0.1c-1.8-5.1-2.8-10.2-2.8-15.3c0-7,1.6-13.6,4.9-19.6
							c-1.7-2-5.1-7.2-4.7-14.8c0-0.2,0-0.4,0.1-0.6c0.1-0.7,0.5-1.3,1-1.8c0.6-0.6,1.4-0.9,2.3-1c1.1-0.1,2.1,0.4,2.9,1.2
							c1.6,1.8,3.7,3.1,6.4,3.9c1.1,0.3,2.1,0.5,2.9,0.6C42.9,2.3,63.3,1,80.9,9.8l0.3,0.2c1.1,0.5,2,1,2.8,1.5
							c0.4,0.2,0.7,0.4,1.1,0.7l0.3,0.2c0.3,0.2,0.6,0.4,0.9,0.6c5.4-3.9,11.3-8.1,15.8-6.3c2.2,0.8,3.7,3.1,4.4,6.6
							c0.8,2.6,0,8.6-2.4,18.2c4,6.9,6.2,14.6,6.4,22.1c0,0.7,0,1.5,0,2.2c0,2-0.2,4-0.6,5.9l1.9,1.7l0.1,0.1
							c1.4,1.3,2.1,3.3,2.1,5.9c0,5.9-4.1,13.2-9.2,16.1c-2.1,1.2-4.2,1.6-5.9,1.1c-0.1,0-0.1,0-0.2,0l-0.2-0.1c0,0.1,0,0.2,0,0.2
							c0,4.1-5.3,7.3-12,7.3c-1.7,0-3.3-0.2-4.9-0.6c-1,0.3-1.9,0.6-2.7,0.8c-1.7,0.4-3.6,0.8-5.4,1l0.7,4.9c0,0,0,0.1,0,0.2
							c0,0.2,0,0.3,0,0.5C74.4,104.8,69.1,108,62.4,108z M55,104.2c0.2,0.1,0.4,0.2,0.6,0.3c0.3,0.1,0.5,0.3,0.8,0.4
							c1.8,0.7,3.8,1.1,6,1.1c5.4,0,10-2.4,10-5.3c0-0.1,0-0.2,0-0.4v-0.1l-0.8-5.7c0-0.3,0-0.5,0.2-0.7s0.4-0.3,0.7-0.4
							c2.1-0.2,4.2-0.6,6.2-1.1c0.9-0.2,1.8-0.5,2.9-0.8c0.2-0.1,0.4-0.1,0.6,0c1.5,0.4,3,0.6,4.6,0.6c5.4,0,10-2.4,10-5.3
							c0-0.1,0-0.2,0-0.4v-0.1l-0.1-1c0-0.3,0.1-0.7,0.4-0.9c0.3-0.2,0.6-0.3,0.9-0.2l1.5,0.5c0.1,0,0.1,0,0.2,0
							c1.3,0.4,2.8,0.1,4.5-0.9c4.5-2.6,8.2-9.1,8.2-14.4c0-2-0.6-3.6-1.6-4.5l-0.1-0.1l-2.2-2c-0.3-0.2-0.4-0.6-0.3-0.9
							c0.4-2,0.6-4.1,0.6-6.2c0-0.7,0-1.4,0-2.1c-0.2-7.7-2.6-15.5-6.9-22.5c-0.3-0.5-0.2-1.1,0.3-1.4c0.2-0.1,0.4-0.2,0.6-0.2
							c2.7-10.9,2.5-14.7,2.1-15.9c-0.6-2.9-1.7-4.7-3.2-5.2c-3.5-1.4-9.5,2.9-14.3,6.4L87,14.9c-0.3,0.2-0.8,0.3-1.1,0
							c-0.5-0.3-1-0.6-1.4-0.9l-0.3-0.2c-0.3-0.2-0.7-0.4-1-0.6c-0.8-0.5-1.7-0.9-2.7-1.5l-0.3-0.2c-17.2-8.4-37-7.1-50.4,3.4
							c-0.2,0.2-0.4,0.2-0.7,0.2c-1.2-0.1-2.5-0.3-3.6-0.7c-3-0.9-5.5-2.4-7.3-4.5c-0.4-0.5-1-0.5-1.2-0.5c-0.4,0-0.7,0.2-1,0.4
							c-0.2,0.2-0.4,0.5-0.4,0.8c0,0.1,0,0.2,0,0.3c-0.4,7.8,3.5,12.6,4.7,14c0.3,0.3,0.3,0.8,0.1,1.2c-3.3,5.9-5,12.3-5,19.2
							c0,4.9,0.9,9.8,2.7,14.6l0.1,0.2c0.7,1.8,1.5,3.7,2.4,5.4l0.1,0.2c0.5,0.9,0.9,1.7,1.4,2.5l0.1,0.1c0.6,0.9,1.1,1.8,1.7,2.6
							l0.2,0.2c0.5,0.7,1,1.4,1.6,2.1l0.4,0.5c0.3,0.4,0.7,0.8,1,1.2c0.2,0.2,0.3,0.5,0.2,0.8l-1,7.7v0.1c0,0.1,0,0.2,0,0.4
							c0,2.9,4.6,5.3,10,5.3c2.4,0,4.7-0.5,6.5-1.3c0.3-0.1,0.6-0.1,0.9,0c3,1.5,6.2,2.8,9.4,3.7c0.5,0.1,0.8,0.6,0.7,1.1l-1,7.5
							v0.1c0,0.1,0,0.2,0,0.4c0,0.2,0,0.3,0,0.5v0.2c0,0.1,0,0.2,0.1,0.3v0.1L53,102c0,0,0,0.1,0.1,0.1c0,0.1,0.1,0.1,0.1,0.2
							l0.1,0.1l0.1,0.1c0,0,0,0.1,0.1,0.1c0.1,0.1,0.1,0.2,0.2,0.2l0.1,0.1l0.1,0.1c0.1,0.1,0.2,0.2,0.3,0.3l0.1,0.1
							c0.2,0.2,0.3,0.3,0.5,0.4l0.1,0.1C54.5,104,54.7,104.1,55,104.2l-0.5,0.9L55,104.2z"/>
						<g>
							
								<ellipse transform="matrix(4.204755e-02 -0.9991 0.9991 4.204755e-02 20.7059 174.2103)" class="st3" cx="101.2" cy="76.3" rx="1.6" ry="0.4"/>
							<path class="st3" d="M101.1,78.7c-0.1,0-0.3,0-0.4-0.1c-0.2-0.1-0.7-0.4-0.7-2c0-0.6,0.1-2.1,0.8-2.5c0.3-0.2,0.6-0.2,0.9,0
								c0.2,0.1,0.7,0.4,0.7,2c0,0.6-0.1,2.1-0.8,2.5C101.4,78.7,101.3,78.7,101.1,78.7z"/>
						</g>
						<g>
							
								<ellipse transform="matrix(4.204755e-02 -0.9991 0.9991 4.204755e-02 30.9925 177.2286)" class="st3" cx="107.9" cy="72.5" rx="1.6" ry="0.4"/>
							<path class="st3" d="M107.9,74.8c-0.1,0-0.3,0-0.4-0.1c-0.2-0.1-0.7-0.4-0.7-2c0-0.6,0.1-2.1,0.8-2.5c0.3-0.2,0.6-0.2,0.9,0
								c0.2,0.1,0.7,0.4,0.7,2c0,0.6-0.1,2.1-0.8,2.5C108.2,74.8,108,74.8,107.9,74.8z"/>
						</g>
						<path class="st1" d="M72,17.6c-7.9-4.9-16.1-7.1-18.4-7.7c-0.7-0.2-1.4,0-2,0.3l-1.7,1.1c-0.7,0.4-1,1.2-0.9,1.9
							c0.1,0.8,0.6,1.4,1.3,1.6c3.6,1.2,10.6,3.7,17.6,7.3c0.4,0.2,0.8,0.3,1.2,0.3c0.5,0,0.9-0.1,1.3-0.4l1.6-1
							c0.6-0.4,0.9-1,0.9-1.7C72.9,18.6,72.5,17.9,72,17.6z"/>
						<path class="st3" d="M53.6,13.1c-0.7-0.2-1.4,0-2,0.3l-1.7,1.1l-0.1,0.1c0.1,0.1,0.3,0.2,0.5,0.2c3.6,1.2,10.6,3.7,17.6,7.3
							c0.4,0.2,0.8,0.3,1.2,0.3c0.5,0,0.9-0.1,1.3-0.4l1.6-1l0.1-0.1c0,0,0,0-0.1,0C64.1,15.9,55.9,13.7,53.6,13.1z"/>
					</g>
					<g>
						<g>
							<path class="st4" d="M32.2,109.9c-0.1,0-0.1-0.1-0.2-0.1c-5.6-3.2-14.7-3.2-20.3,0c-0.1,0-0.1,0.1-0.2,0.1h-4v4.8
								c0,2.1,1.4,4.2,4.2,5.9c5.6,3.2,14.7,3.2,20.3,0c2.8-1.6,4.2-3.7,4.2-5.9v-4.8H32.2z"/>
							<path class="st5" d="M32,120.6c2.8-1.6,4.2-3.7,4.2-5.9v-4.8h-4c-0.1,0-0.1-0.1-0.2-0.1c-2.8-1.6-6.5-2.4-10.1-2.4V123
								C25.5,123,29.2,122.2,32,120.6z"/>
							<ellipse class="st4" cx="21.8" cy="109.9" rx="14.4" ry="8.3"/>
							<path class="st2" d="M21.8,119.2c-3.9,0-7.7-0.8-10.6-2.5c-3-1.8-4.7-4.1-4.7-6.7s1.7-5,4.7-6.7c5.9-3.4,15.4-3.4,21.3,0l0,0
								c3,1.8,4.7,4.1,4.7,6.7s-1.7,5-4.7,6.7C29.6,118.4,25.7,119.2,21.8,119.2z M21.8,102.6c-3.5,0-7,0.8-9.6,2.3
								c-2.4,1.4-3.7,3.2-3.7,5s1.3,3.6,3.7,5c5.3,3.1,14,3.1,19.3,0c2.4-1.4,3.7-3.2,3.7-5s-1.3-3.6-3.7-5
								C28.8,103.4,25.3,102.6,21.8,102.6z"/>
							<ellipse class="st6" cx="21.8" cy="114.7" rx="14.4" ry="8.3"/>
							<path class="st7" d="M21.8,124c-4,0-7.8-0.9-10.6-2.6c-3-1.8-4.7-4.1-4.7-6.7v-4.8c0-2.6,1.7-5,4.7-6.7
								c5.9-3.4,15.4-3.4,21.3,0c3,1.8,4.7,4.1,4.7,6.7v4.8c0,1-0.2,1.9-0.7,2.8c-0.8,1.5-2.1,2.8-4,3.9c-1.5,0.8-3.1,1.5-5,1.9
								c-0.5,0.1-0.9,0.2-1.4,0.3c-0.9,0.2-1.9,0.3-2.8,0.3C22.8,124,22.3,124,21.8,124z M21.8,102.6c-3.5,0-7,0.8-9.6,2.3
								c-2.4,1.4-3.7,3.2-3.7,5v4.8c0,1.8,1.3,3.6,3.7,5c2.9,1.7,6.9,2.5,11,2.3c0.9,0,1.8-0.1,2.6-0.3c0.4-0.1,0.8-0.2,1.3-0.3
								c1.7-0.4,3.2-1,4.5-1.7c1.5-0.9,2.6-1.9,3.2-3.1c0.3-0.6,0.5-1.3,0.5-1.9v-4.8c0-1.8-1.3-3.6-3.7-5
								C28.8,103.4,25.3,102.6,21.8,102.6z"/>
							<path class="st5" d="M27.4,112.2l1.5,0.9l-1.3,0.8l-1.5-0.9c-0.7,0.4-1.5,0.7-2.3,0.9c-0.8,0.2-1.5,0.4-2.2,0.4l-0.9-1.4
								c0.6-0.1,1.2-0.2,1.8-0.3c0.6-0.2,1.2-0.4,1.7-0.6l-2.3-1.3c-0.8,0.3-1.5,0.5-2.1,0.6s-1.3,0.2-2,0.2s-1.3-0.2-1.9-0.6
								c-0.7-0.4-1.1-1-1.1-1.6s0.5-1.3,1.4-1.9l-1.5-0.9l1.3-0.8l1.5,0.9c1.2-0.6,2.4-1,3.6-1.1l1,1.4c-1.1,0.2-2,0.4-2.8,0.8
								l2.3,1.3c0.8-0.3,1.5-0.5,2.1-0.6s1.3-0.2,1.9-0.2c0.7,0,1.3,0.2,1.9,0.6c0.7,0.4,1.1,1,1.1,1.6
								C28.7,110.9,28.3,111.6,27.4,112.2z M18.9,109.8c0.3,0,0.7-0.1,1.1-0.2l-1.9-1.1c-0.3,0.2-0.4,0.5-0.4,0.7s0.1,0.4,0.4,0.5
								C18.3,109.7,18.6,109.8,18.9,109.8 M23.7,110.1l1.9,1.1c0.3-0.2,0.4-0.4,0.4-0.6s-0.1-0.3-0.3-0.5c-0.2-0.1-0.5-0.2-0.8-0.2
								C24.5,109.9,24.1,110,23.7,110.1"/>
						</g>
					</g>
					<g>
						<g>
							<path class="st4" d="M116.5,109.7c-0.1,0-0.1-0.1-0.2-0.1c-5.6-3.2-14.7-3.2-20.3,0c-0.1,0-0.1,0.1-0.2,0.1h-4v4.8
								c0,2.1,1.4,4.2,4.2,5.9c5.6,3.2,14.7,3.2,20.3,0c2.8-1.6,4.2-3.7,4.2-5.9v-4.8H116.5z"/>
							<path class="st5" d="M116.3,120.4c2.8-1.6,4.2-3.7,4.2-5.9v-4.8h-4c-0.1,0-0.1-0.1-0.2-0.1c-2.8-1.6-6.5-2.4-10.1-2.4v15.6
								C109.8,122.8,113.5,122,116.3,120.4z"/>
							<ellipse class="st4" cx="106.2" cy="109.7" rx="14.4" ry="8.3"/>
							<path class="st2" d="M106.2,119c-3.9,0-7.7-0.8-10.6-2.5c-3-1.8-4.7-4.1-4.7-6.7s1.7-5,4.7-6.7c5.9-3.4,15.4-3.4,21.3,0
								c3,1.8,4.7,4.1,4.7,6.7s-1.7,5-4.7,6.7C113.9,118.1,110,119,106.2,119z M106.2,102.4c-3.5,0-7,0.8-9.6,2.3
								c-2.4,1.4-3.7,3.2-3.7,5s1.3,3.6,3.7,5c5.3,3.1,14,3.1,19.3,0c2.4-1.4,3.7-3.2,3.7-5s-1.3-3.6-3.7-5
								C113.1,103.2,109.7,102.4,106.2,102.4z"/>
							<ellipse class="st6" cx="106.2" cy="114.5" rx="14.4" ry="8.3"/>
							<path class="st7" d="M106.2,123.8c-4,0-7.8-0.9-10.6-2.6c-3-1.8-4.7-4.1-4.7-6.7v-4.8c0-2.6,1.7-5,4.7-6.7
								c5.9-3.4,15.4-3.4,21.3,0c3,1.8,4.7,4.1,4.7,6.7v4.8c0,1-0.2,1.9-0.7,2.8c-0.8,1.5-2.1,2.8-4,3.9c-1.5,0.8-3.1,1.5-5,1.9
								c-0.5,0.1-0.9,0.2-1.4,0.3c-0.9,0.2-1.9,0.3-2.8,0.3C107.1,123.8,106.6,123.8,106.2,123.8z M106.2,102.4
								c-3.5,0-7,0.8-9.6,2.3c-2.4,1.4-3.7,3.2-3.7,5v4.8c0,1.8,1.3,3.6,3.7,5c2.9,1.7,6.9,2.5,11,2.3c0.9,0,1.8-0.1,2.6-0.3
								c0.4-0.1,0.8-0.2,1.3-0.3c1.7-0.4,3.2-1,4.5-1.7c1.5-0.9,2.6-1.9,3.2-3.1c0.3-0.6,0.5-1.3,0.5-1.9v-4.8c0-1.8-1.3-3.6-3.7-5
								C113.1,103.2,109.7,102.4,106.2,102.4z"/>
							<path class="st5" d="M111.7,112l1.5,0.9l-1.3,0.8l-1.5-0.9c-0.7,0.4-1.5,0.7-2.3,0.9c-0.8,0.2-1.5,0.4-2.2,0.4l-0.9-1.4
								c0.6-0.1,1.2-0.2,1.8-0.3c0.6-0.2,1.2-0.4,1.7-0.6l-2.3-1.3c-0.8,0.3-1.5,0.5-2.1,0.6s-1.3,0.2-2,0.2s-1.3-0.2-1.9-0.6
								c-0.7-0.4-1.1-1-1.1-1.6s0.5-1.3,1.4-1.9l-1.5-0.9l1.3-0.8l1.5,0.9c1.2-0.6,2.4-1,3.6-1.1l1,1.4c-1.1,0.2-2,0.4-2.8,0.8
								l2.3,1.3c0.8-0.3,1.5-0.5,2.1-0.6s1.3-0.2,1.9-0.2c0.7,0,1.3,0.2,1.9,0.6c0.7,0.4,1.1,1,1.1,1.6
								C113,110.7,112.6,111.4,111.7,112z M103.2,109.6c0.3,0,0.7-0.1,1.1-0.2l-1.9-1.1c-0.3,0.2-0.4,0.5-0.4,0.7s0.1,0.4,0.4,0.5
								C102.6,109.5,102.9,109.6,103.2,109.6 M108,109.9l1.9,1.1c0.3-0.2,0.4-0.4,0.4-0.6s-0.1-0.3-0.3-0.5
								c-0.2-0.1-0.5-0.2-0.8-0.2C108.8,109.7,108.5,109.8,108,109.9"/>
						</g>
					</g>
					<g>
						<g>
							<path class="st4" d="M32.2,105.1c-0.1,0-0.1-0.1-0.2-0.1c-5.6-3.2-14.7-3.2-20.3,0c-0.1,0-0.1,0.1-0.2,0.1h-4v4.8
								c0,2.1,1.4,4.2,4.2,5.9c5.6,3.2,14.7,3.2,20.3,0c2.8-1.6,4.2-3.7,4.2-5.9v-4.8H32.2z"/>
							<path class="st5" d="M32,115.8c2.8-1.6,4.2-3.7,4.2-5.9v-4.8h-4c-0.1,0-0.1-0.1-0.2-0.1c-2.8-1.6-6.5-2.4-10.1-2.4v15.6
								C25.5,118.2,29.2,117.4,32,115.8z"/>
							<ellipse class="st4" cx="21.8" cy="105.1" rx="14.4" ry="8.3"/>
							<path class="st2" d="M21.8,114.4c-3.9,0-7.7-0.8-10.6-2.5c-3-1.8-4.7-4.1-4.7-6.7s1.7-5,4.7-6.7c5.9-3.4,15.4-3.4,21.3,0l0,0
								c3,1.8,4.7,4.1,4.7,6.7s-1.7,5-4.7,6.7C29.6,113.6,25.7,114.4,21.8,114.4z M21.8,97.8c-3.5,0-7,0.8-9.6,2.3
								c-2.4,1.4-3.7,3.2-3.7,5s1.3,3.6,3.7,5c5.3,3.1,14,3.1,19.3,0c2.4-1.4,3.7-3.2,3.7-5s-1.3-3.6-3.7-5
								C28.8,98.6,25.3,97.8,21.8,97.8z"/>
							<ellipse class="st6" cx="21.8" cy="109.9" rx="14.4" ry="8.3"/>
							<path class="st7" d="M21.8,119.2c-4,0-7.8-0.9-10.6-2.6c-3-1.8-4.7-4.1-4.7-6.7v-4.8c0-2.6,1.7-5,4.7-6.7
								c5.9-3.4,15.4-3.4,21.3,0c3,1.8,4.7,4.1,4.7,6.7v4.8c0,1-0.2,1.9-0.7,2.8c-0.8,1.5-2.1,2.8-4,3.9c-1.5,0.8-3.1,1.5-5,1.9
								c-0.5,0.1-0.9,0.2-1.4,0.3c-0.9,0.2-1.9,0.3-2.8,0.3C22.8,119.2,22.3,119.2,21.8,119.2z M21.8,97.8c-3.5,0-7,0.8-9.6,2.3
								c-2.4,1.4-3.7,3.2-3.7,5v4.8c0,1.8,1.3,3.6,3.7,5c2.9,1.7,6.9,2.5,11,2.3c0.9,0,1.8-0.1,2.6-0.3c0.4-0.1,0.8-0.2,1.3-0.3
								c1.7-0.4,3.2-1,4.5-1.7c1.5-0.9,2.6-1.9,3.2-3.1c0.3-0.6,0.5-1.3,0.5-1.9v-4.8c0-1.8-1.3-3.6-3.7-5
								C28.8,98.6,25.3,97.8,21.8,97.8z"/>
							<path class="st5" d="M27.4,107.5l1.5,0.9l-1.3,0.8l-1.5-0.9c-0.7,0.4-1.5,0.7-2.3,0.9c-0.8,0.2-1.5,0.4-2.2,0.4l-0.9-1.4
								c0.6-0.1,1.2-0.2,1.8-0.3c0.6-0.2,1.2-0.4,1.7-0.6l-2.3-1.3c-0.8,0.3-1.5,0.5-2.1,0.6s-1.3,0.2-2,0.2s-1.3-0.2-1.9-0.6
								c-0.7-0.4-1.1-1-1.1-1.6s0.5-1.3,1.4-1.9l-1.5-0.9L16,101l1.5,0.9c1.2-0.6,2.4-1,3.6-1.1l1,1.4c-1.1,0.2-2,0.4-2.8,0.8
								l2.3,1.3c0.8-0.3,1.5-0.5,2.1-0.6s1.3-0.2,1.9-0.2c0.7,0,1.3,0.2,1.9,0.6c0.7,0.4,1.1,1,1.1,1.6
								C28.7,106.2,28.3,106.8,27.4,107.5z M18.9,105c0.3,0,0.7-0.1,1.1-0.2l-1.9-1.1c-0.3,0.2-0.4,0.5-0.4,0.7s0.1,0.4,0.4,0.5
								C18.3,105,18.6,105,18.9,105 M23.7,105.3l1.9,1.1c0.3-0.2,0.4-0.4,0.4-0.6s-0.1-0.3-0.3-0.5c-0.2-0.1-0.5-0.2-0.8-0.2
								C24.5,105.2,24.1,105.2,23.7,105.3"/>
						</g>
					</g>
				</g>
				<rect x="4" y="4" class="st6" width="120" height="120"/>
				<rect x="4" y="4" class="st6" width="120" height="120"/>
			</g>
		</g>
	</g>
	<g>
		<rect class="st6" width="128" height="128"/>
	</g>
</g>
</svg>
