<?xml version="1.0" encoding="utf-8"?>
<!-- Generator: Adobe Illustrator 24.1.0, SVG Export Plug-In . SVG Version: 6.00 Build 0)  -->
<svg version="1.1" id="Layer_1" xmlns="http://www.w3.org/2000/svg" xmlns:xlink="http://www.w3.org/1999/xlink" x="0px" y="0px"
	 viewBox="0 0 128 128" style="enable-background:new 0 0 128 128;" xml:space="preserve">
<style type="text/css">
	.st0{fill:none;}
	.st1{fill:#4D9987;}
	.st2{fill:#E9EBDF;}
	.st3{fill:#FFFFFF;}
	.st4{fill:#0E352C;}
	.st5{fill:#27ae60;}
	.st6{fill:#185849;}
</style>
<g id="Layer_1_1_">
</g>
<g>
	<g id="Layer_2_1_">
		<g id="Objects_1_">
			<g>
				<rect x="4" y="4" class="st0" width="120" height="120"/>
				<g>
					<g>
						<path class="st1" d="M54.5,54.1L56,51L35,38.9l0,0c-0.8-0.5-1.9-0.4-3.1,0.2c-2.6,1.5-4.8,5.6-4.8,9.1c0,1.9,0.6,3.3,1.6,3.8
							l0,0l21,12.1l1.5-3.1C52.9,59.4,54.2,56.6,54.5,54.1z"/>
						<path class="st2" d="M35,38.9c-0.8-0.5-1.9-0.4-3.1,0.2c-1.4,0.8-2.7,2.4-3.6,4.3l25.1,14.5c0.6-1.2,1-2.5,1.1-3.8L56,51
							L35,38.9L35,38.9z"/>
						
							<ellipse transform="matrix(0.3916 -0.9201 0.9201 0.3916 -20.8398 83.6953)" class="st1" cx="52.9" cy="57.6" rx="7.3" ry="4.1"/>
						<path class="st3" d="M49.3,64.9c-0.2,0-0.5-0.1-0.7-0.2c-1-0.9-1.6-2.4-1.6-4.3c0-3.9,2.3-8.3,5.3-10c1.5-0.8,2.9-0.9,4.1-0.3
							c1.4,0.8,2.1,2.5,2.1,4.7c0,0.6-0.4,1-1,1s-1-0.4-1-1c0-1.5-0.4-2.6-1.1-3c-0.7-0.4-1.5-0.1-2.1,0.3C51,53.4,49,57.2,49,60.3
							c0,1.3,0.3,2.3,0.9,2.8c0.4,0.4,0.5,1,0.1,1.4C49.9,64.8,49.6,64.9,49.3,64.9z"/>
						<path class="st4" d="M51,65.5c-0.6,0-1.1-0.1-1.6-0.4c0,0-0.1,0-0.1-0.1l-21-12.1c0,0,0,0-0.1,0c-1.3-0.8-2.1-2.5-2.1-4.7
							c0-3.9,2.3-8.3,5.3-10c1.4-0.8,2.9-0.9,4-0.3c0,0,0,0,0.1,0l21,12.1c0,0,0.1,0,0.1,0.1c1.3,0.8,2,2.5,2,4.6
							c0,3.9-2.3,8.3-5.3,10C52.5,65.2,51.7,65.5,51,65.5z M50.1,63.2C50.2,63.2,50.2,63.3,50.1,63.2c0.8,0.5,1.6,0.1,2.2-0.2
							c2.3-1.3,4.3-5.1,4.3-8.2c0-1.4-0.4-2.6-1.1-3c0,0-0.1,0-0.1-0.1l-20.8-12c0,0,0,0-0.1,0c-0.7-0.4-1.5-0.1-2.1,0.2
							c-2.3,1.3-4.3,5.1-4.3,8.2c0,1.5,0.4,2.6,1.1,3c0,0,0,0,0.1,0L50.1,63.2z"/>
					</g>
					<polyline class="st1" points="67.4,105.5 64,60.1 57.2,64 60.6,109.4 					"/>
					<path class="st2" d="M62.6,110.3c-0.5,0-1-0.4-1-0.9l-3.3-44.2c0-0.6,0.4-1,0.9-1.1c0.6,0,1,0.4,1.1,0.9l3.3,44.2
						C63.6,109.8,63.2,110.3,62.6,110.3L62.6,110.3z"/>
					<polyline class="st1" points="96.8,48.2 61.2,57.3 60,66.8 95.6,57.7 					"/>
					<path class="st2" d="M63,59.8c-0.4,0-0.9-0.3-1-0.8s0.2-1.1,0.7-1.2L97,49.1c0.5-0.1,1.1,0.2,1.2,0.7S98,50.9,97.5,51
						l-34.3,8.7C63.1,59.8,63,59.8,63,59.8z"/>
					<path class="st4" d="M60.6,110.4c-0.5,0-1-0.4-1-0.9L56.2,64c0-0.4,0.2-0.7,0.5-0.9l6.8-3.9c0.3-0.2,0.7-0.2,1,0S65,59.7,65,60
						l3.4,45.5c0,0.6-0.4,1-0.9,1.1c-0.6,0-1-0.4-1.1-0.9l-3.3-43.9l-4.8,2.8l3.4,44.8C61.7,109.9,61.2,110.4,60.6,110.4
						C60.7,110.4,60.6,110.4,60.6,110.4z"/>
					<path class="st4" d="M60,67.8c-0.2,0-0.5-0.1-0.7-0.2C59.1,67.3,59,67,59,66.7l1.2-9.5c0.1-0.4,0.3-0.7,0.7-0.8l35.6-9.1
						c0.5-0.1,1.1,0.2,1.2,0.7s-0.2,1.1-0.7,1.2l-35,8.9l-0.9,7.4l34.2-8.7c0.5-0.1,1.1,0.2,1.2,0.7s-0.2,1.1-0.7,1.2l-35.6,9.1
						C60.2,67.8,60.1,67.8,60,67.8z"/>
					<path class="st2" d="M67.7,56.2l3.3-6.9l-6.8-3.9l0,0c-1.9-1.1-4.3-1-7,0.6c-5.9,3.4-10.6,12.5-10.6,20.3
						c0,4.3,1.4,7.3,3.7,8.6l0,0l6.8,3.9l3.3-6.9C64.2,68,67.1,62,67.7,56.2z"/>
					<path class="st3" d="M64.2,45.3c-1.9-1.1-4.3-1-7,0.6c-3.2,1.9-6.1,5.4-8,9.5l16.1,9.3c1.3-2.7,2.2-5.7,2.5-8.5l3.3-6.9
						L64.2,45.3L64.2,45.3z"/>
					<ellipse transform="matrix(0.3916 -0.9201 0.9201 0.3916 -19.9469 97.834)" class="st1" cx="64" cy="64" rx="16.3" ry="9.2"/>
					<path class="st3" d="M56.2,79.1c-0.2,0-0.5-0.1-0.7-0.2c-2.1-1.8-3.2-4.9-3.2-8.8c0-8.1,5-17.6,11.1-21.2
						c2.9-1.7,5.7-1.9,8-0.6c2.7,1.5,4.2,5,4.2,9.5c0,0.6-0.4,1-1,1s-1-0.4-1-1c0-3.7-1.2-6.6-3.2-7.7c-1.6-0.9-3.7-0.7-6,0.6
						c-5.6,3.2-10.1,12-10.1,19.5c0,3.3,0.9,5.9,2.5,7.2c0.4,0.4,0.5,1,0.1,1.4C56.8,79,56.5,79.1,56.2,79.1z"/>
					<path class="st4" d="M59.8,80.4c-1.1,0-2.1-0.3-3.1-0.8c-0.1,0-0.1,0-0.2-0.1l-6.8-3.9c0,0-0.1,0-0.1-0.1
						c-2.6-1.6-4.1-5-4.1-9.4c0-8.1,5-17.6,11.1-21.2c2.8-1.6,5.6-1.9,7.9-0.6h0.1l6.8,3.9c0.1,0,0.1,0.1,0.1,0.1c2.6,1.6,4,5,4,9.4
						c0,8.1-5,17.6-11.1,21.2C62.9,80,61.3,80.4,59.8,80.4z M57.4,77.8C57.5,77.8,57.5,77.8,57.4,77.8c1.7,1,3.8,0.9,6.1-0.4
						c5.6-3.2,10.1-12,10.1-19.5c0-3.7-1.2-6.6-3.2-7.7l-0.1-0.1l-6.6-3.8h-0.1c-1.6-0.9-3.7-0.7-6,0.6c-5.6,3.2-10.1,12-10.1,19.5
						c0,3.7,1.2,6.6,3.2,7.7c0,0,0.1,0,0.1,0.1L57.4,77.8z"/>
					<g>
						<polyline class="st1" points="50.2,67.5 32.1,85.4 33.3,93.5 52,75.1 						"/>
						<path class="st4" d="M33.3,94.5c-0.1,0-0.2,0-0.3-0.1c-0.4-0.1-0.6-0.4-0.7-0.8l-1.2-8.2c0-0.3,0.1-0.6,0.3-0.9l18.1-17.8
							c0.4-0.4,1-0.4,1.4,0s0.4,1,0,1.4L33.1,85.7l0.8,5.7l17.3-17c0.4-0.4,1-0.4,1.4,0s0.4,1,0,1.4L34,94.3
							C33.8,94.4,33.5,94.5,33.3,94.5z"/>
					</g>
					<path class="st2" d="M34.2,87.1c-0.3,0-0.5-0.1-0.7-0.3c-0.4-0.4-0.4-1,0-1.4l16.9-16.6c0.4-0.4,1-0.4,1.4,0s0.4,1,0,1.4
						L34.9,86.8C34.7,87,34.4,87.1,34.2,87.1z"/>
					<g>
						<path class="st1" d="M51.8,113.2c-3.6,0-7.1-0.9-10.2-2.7c-8.2-4.7-12.9-15.2-12.9-28.8c0-24.4,14.5-51.9,33-62.6
							c8.9-5.1,17.6-5.7,24.7-1.6c8.2,4.7,12.9,15.2,12.9,28.8c0,24.4-14.5,51.9-33,62.6C61.3,111.8,56.4,113.2,51.8,113.2z
							 M76.2,24c-3.6,0-7.2,1.5-9.9,3.1c-15.7,9-28.4,33.6-28.4,54.7c0,10.2,3,17.8,8.3,20.9c5.3,3,11.3,0.8,15.5-1.6
							c15.7-9,28.4-33.6,28.4-54.7c0-10.2-3-17.8-8.3-20.9C80,24.4,78.1,24,76.2,24z"/>
						<path class="st2" d="M30.7,82.7c-0.6,0-1-0.4-1-1c0-24.1,14.3-51.3,32.5-61.8c0.5-0.3,1.1-0.1,1.4,0.4
							c0.3,0.5,0.1,1.1-0.4,1.4c-17.7,10.2-31.5,36.6-31.5,60C31.7,82.3,31.2,82.7,30.7,82.7z"/>
						<path class="st2" d="M62.7,103.7c-0.3,0-0.7-0.2-0.9-0.5c-0.3-0.5-0.1-1.1,0.4-1.4c15.9-9.2,28.9-34.1,28.9-55.5
							c0-0.6,0.4-1,1-1s1,0.4,1,1c0,22.1-13.4,47.7-29.9,57.3C63,103.6,62.9,103.7,62.7,103.7z"/>
						<path class="st4" d="M51.8,114.2c-3.8,0-7.4-0.9-10.7-2.8c-8.5-4.9-13.4-15.7-13.4-29.7c0-24.8,14.7-52.6,33.5-63.5
							c9.2-5.3,18.3-5.9,25.7-1.6c8.5,4.9,13.4,15.7,13.4,29.7c0,24.8-14.7,52.6-33.5,63.5C61.7,112.7,56.6,114.2,51.8,114.2z
							 M76.2,15.8c-4.4,0-9.2,1.4-14,4.2C44,30.5,29.7,57.6,29.7,81.7c0,13.2,4.5,23.4,12.4,27.9c2.9,1.7,6.2,2.5,9.7,2.5
							c4.5,0,9.2-1.4,14-4.2C84,97.5,98.3,70.4,98.3,46.3c0-13.2-4.5-23.4-12.4-27.9C82.9,16.7,79.7,15.8,76.2,15.8z M51.8,105
							c-2.1,0-4.1-0.5-6.1-1.6c-5.6-3.2-8.8-11.2-8.8-21.7c0-21.4,13-46.3,28.9-55.5c6.3-3.6,12-4.2,16.5-1.6
							c5.6,3.2,8.8,11.2,8.8,21.7c0,21.4-13,46.3-28.9,55.5C59.3,103.5,55.6,105,51.8,105z M76.2,25c-2.8,0-6,1-9.4,2.9
							c-15.4,8.9-27.9,33-27.9,53.8c0,9.8,2.9,17.1,7.8,20c4.8,2.8,10.6,0.7,14.5-1.6c15.4-8.9,27.9-33,27.9-53.8
							c0-9.8-2.9-17.1-7.8-20C79.8,25.4,78,25,76.2,25z"/>
					</g>
					<g>
						
							<ellipse transform="matrix(0.3916 -0.9201 0.9201 0.3916 -13.3435 100.0895)" class="st2" cx="69" cy="60.1" rx="2.3" ry="1.3"/>
						<ellipse transform="matrix(0.3916 -0.9201 0.9201 0.3916 -19.0448 97.2177)" class="st3" cx="64" cy="63" rx="2.3" ry="1.3"/>
						
							<ellipse transform="matrix(0.3916 -0.9201 0.9201 0.3916 -24.746 94.3462)" class="st2" cx="59" cy="65.9" rx="2.3" ry="1.3"/>
						<path class="st2" d="M60.1,71.5c-0.2,0-0.3-0.1-0.4-0.3c-0.1-0.2-0.1-0.5,0.2-0.7l7.9-4.5c0.2-0.1,0.5-0.1,0.7,0.2
							c0.1,0.2,0.1,0.5-0.2,0.7l-7.9,4.5C60.2,71.5,60.1,71.5,60.1,71.5z"/>
					</g>
					<g>
						<g>
							<path class="st5" d="M40.7,31.5c-0.3,0-0.5-0.1-0.7-0.3c-0.2-0.2-0.3-0.4-0.3-0.7s0.1-0.5,0.3-0.7c0.4-0.4,1-0.4,1.4,0
								c0.2,0.2,0.3,0.5,0.3,0.7s-0.1,0.5-0.3,0.7C41.2,31.3,41,31.5,40.7,31.5z"/>
							<path class="st5" d="M43.7,26.5c-0.4-0.3-0.5-1-0.1-1.4l0,0c0.4-0.4,1-0.5,1.4-0.1l0,0c0.4,0.3,0.5,1,0.1,1.4l0,0
								c-0.2,0.2-0.5,0.4-0.8,0.4l0,0C44.1,26.7,43.9,26.7,43.7,26.5z M47.5,22c-0.4-0.4-0.4-1,0-1.4l0,0c0.4-0.4,1-0.4,1.4-0.1l0,0
								c0.4,0.4,0.4,1,0,1.4l0,0c-0.2,0.2-0.5,0.3-0.7,0.3l0,0C47.9,22.3,47.7,22.2,47.5,22z M51.7,17.8c-0.4-0.4-0.3-1,0.1-1.4l0,0
								c0.4-0.4,1.1-0.3,1.4,0.1l0,0c0.4,0.4,0.3,1-0.1,1.4l0,0c-0.2,0.2-0.4,0.3-0.7,0.3l0,0C52.1,18.1,51.9,18,51.7,17.8z
								 M56.2,13.9c-0.3-0.5-0.2-1.1,0.2-1.4l0,0l0,0l0,0c0.4-0.3,1.1-0.2,1.4,0.2l0,0c0.3,0.5,0.2,1.1-0.2,1.4l0,0
								c-0.2,0.1-0.4,0.2-0.6,0.2l0,0C56.7,14.3,56.4,14.2,56.2,13.9z"/>
							<path class="st5" d="M61.9,11.1c-0.3,0-0.5-0.1-0.7-0.3s-0.3-0.4-0.3-0.7c0-0.1,0-0.3,0.1-0.4c0.1-0.1,0.1-0.2,0.2-0.3
								c0.4-0.4,1.1-0.4,1.4,0c0.1,0.1,0.2,0.2,0.2,0.3s0.1,0.2,0.1,0.4c0,0.1,0,0.1,0,0.2c0,0.1,0,0.1-0.1,0.2
								c0,0.1-0.1,0.1-0.1,0.2c0,0.1-0.1,0.1-0.1,0.2C62.5,11,62.2,11.1,61.9,11.1z"/>
						</g>
						<g>
							<path class="st5" d="M87.3,98.6c-0.3,0-0.5-0.1-0.7-0.3c-0.1-0.1-0.2-0.2-0.2-0.3c0-0.1-0.1-0.2-0.1-0.4
								c0-0.3,0.1-0.5,0.3-0.7c0.4-0.4,1-0.4,1.4,0l0.1,0.1c0,0.1,0.1,0.1,0.1,0.2s0,0.1,0.1,0.2c0,0.1,0,0.1,0,0.2
								c0,0.3-0.1,0.5-0.3,0.7c-0.1,0.1-0.2,0.2-0.3,0.2C87.5,98.5,87.4,98.6,87.3,98.6z"/>
							<path class="st5" d="M70.2,115.3c-0.3-0.4-0.2-1.1,0.2-1.4l0,0c0.4-0.3,1.1-0.2,1.4,0.2l0,0c0.3,0.4,0.2,1.1-0.2,1.4l0,0
								c-0.2,0.1-0.4,0.2-0.6,0.2l0,0C70.7,115.7,70.4,115.5,70.2,115.3z M74.8,111.6c-0.4-0.4-0.3-1,0.1-1.4l0,0
								c0.4-0.4,1-0.3,1.4,0.1l0,0c0.4,0.4,0.3,1-0.1,1.4l0,0c-0.2,0.2-0.4,0.3-0.7,0.3l0,0C75.3,111.9,75,111.8,74.8,111.6z
								 M79.1,107.5c-0.4-0.4-0.4-1,0-1.4l0,0c0.4-0.4,1-0.4,1.4,0l0,0c0.4,0.4,0.4,1,0.1,1.4l0,0l0,0l0,0c-0.2,0.2-0.5,0.3-0.7,0.3
								l0,0C79.6,107.8,79.3,107.7,79.1,107.5z M83.1,103.1c-0.4-0.3-0.5-1-0.1-1.4l0,0c0.4-0.4,1-0.5,1.4-0.2l0,0
								c0.4,0.4,0.5,1,0.1,1.4l0,0l0,0l0,0c-0.2,0.2-0.5,0.4-0.8,0.4l0,0C83.5,103.3,83.3,103.2,83.1,103.1z"/>
							<path class="st5" d="M66.1,118.9c-0.1,0-0.3,0-0.4-0.1s-0.2-0.1-0.3-0.2c-0.1-0.1-0.2-0.2-0.2-0.3c-0.1-0.1-0.1-0.2-0.1-0.4
								c0-0.1,0-0.1,0-0.2s0-0.1,0.1-0.2c0-0.1,0.1-0.1,0.1-0.2s0.1-0.1,0.1-0.2c0.1-0.1,0.2-0.2,0.3-0.2c0.2-0.1,0.4-0.1,0.6-0.1
								c0.1,0,0.1,0,0.2,0.1c0.1,0,0.1,0.1,0.2,0.1s0.1,0.1,0.1,0.1c0.2,0.2,0.3,0.4,0.3,0.7c0,0.1,0,0.3-0.1,0.4
								c0,0.1-0.1,0.2-0.2,0.3c0,0.1-0.1,0.1-0.1,0.1c-0.1,0-0.1,0.1-0.2,0.1s-0.1,0-0.2,0.1C66.2,118.9,66.1,118.9,66.1,118.9z"/>
						</g>
						<path class="st6" d="M105.9,43.2c-0.6,0-1-0.4-1-1C104.9,20.2,94.7,6,79,6c-5.3,0-10.9,1.7-16.6,5c-0.5,0.3-1.1,0.1-1.4-0.4
							c-0.3-0.5-0.1-1.1,0.4-1.4C67.4,5.8,73.3,4,79,4c16.9,0,27.9,15,27.9,38.2C106.9,42.8,106.4,43.2,105.9,43.2z"/>
						<path class="st6" d="M105.9,48.6c-0.3,0-0.6-0.1-0.8-0.4l-3-3.7c-0.2-0.2-0.3-0.5-0.2-0.8c0.1-0.3,0.2-0.5,0.5-0.7l6-3.5
							c0.4-0.2,0.8-0.2,1.2,0.1c0.3,0.3,0.4,0.7,0.3,1.1l-3,7.2c-0.1,0.3-0.4,0.6-0.8,0.6C106,48.6,105.9,48.6,105.9,48.6z
							 M104.4,44.1l1.2,1.5l1.2-2.9L104.4,44.1z"/>
						<path class="st6" d="M49,124c-16.9,0-27.9-15-27.9-38.2c0-0.6,0.4-1,1-1s1,0.4,1,1c0,22,10.2,36.2,25.9,36.2
							c5.3,0,10.9-1.7,16.6-5c0.5-0.3,1.1-0.1,1.4,0.4s0.1,1.1-0.4,1.4C60.6,122.2,54.7,124,49,124z"/>
						<path class="st6" d="M19.1,88.6c-0.2,0-0.5-0.1-0.7-0.2c-0.3-0.3-0.4-0.7-0.3-1.1l3-7.2c0.1-0.3,0.4-0.6,0.8-0.6
							c0.3-0.1,0.7,0.1,0.9,0.4l3,3.7c0.2,0.2,0.3,0.5,0.2,0.8c-0.1,0.3-0.2,0.5-0.5,0.7l-6,3.5C19.5,88.6,19.3,88.6,19.1,88.6z
							 M22.4,82.4l-1.2,2.9l2.4-1.4L22.4,82.4z"/>
					</g>
				</g>
			</g>
		</g>
	</g>
	<g>
		<rect class="st0" width="128" height="128"/>
	</g>
</g>
</svg>
