<?xml version="1.0" encoding="utf-8"?>
<!-- Generator: Adobe Illustrator 24.1.0, SVG Export Plug-In . SVG Version: 6.00 Build 0)  -->
<svg version="1.1" id="Layer_1" xmlns="http://www.w3.org/2000/svg" xmlns:xlink="http://www.w3.org/1999/xlink" x="0px" y="0px"
	 viewBox="0 0 128 128" style="enable-background:new 0 0 128 128;" xml:space="preserve">
<style type="text/css">
	.st0{fill:#4D9987;}
	.st1{fill:#E9EBDF;}
	.st2{fill:#0E352C;}
	.st3{fill:#FFFFFF;}
	.st4{fill:#27ae60;}
	.st5{fill:#C4D7D3;}
	.st6{fill:#185849;}
	.st7{fill:none;}
</style>
<g id="Layer_1_1_">
</g>
<g>
	<g id="Layer_2_1_">
		<g id="Industries_1_">
			<g>
				<g>
					<g>
						<g>
							<g>
								<path class="st0" d="M75.8,57.8L75.8,57.8l-2.1-23.2l0,0C72.9,26.1,60.8,19.4,46,19.4s-27,6.7-27.7,15.2l0,0l-2.1,23.2l0,0
									c0,0.3,0,0.6,0,0.9C16.1,68.2,29.5,76,46,76s29.9-7.7,29.9-17.3C75.8,58.4,75.8,58.1,75.8,57.8z"/>
								<path class="st1" d="M46,74.9c-15.6,0-28.8-7.4-28.8-16.2c0-0.3,0-0.6,0-0.8l2.1-23.2C20,26.8,32,20.4,46,20.4
									s25.9,6.4,26.7,14.2l2.1,23.2c0,0.3,0,0.6,0,0.8C74.8,67.5,61.6,74.9,46,74.9z M46,22.4c-12.8,0-24.1,5.7-24.7,12.4L19.2,58
									c0,0.2,0,0.4,0,0.6c0,7.6,12.5,14.2,26.8,14.2s26.8-6.6,26.8-14.2c0-0.2,0-0.4,0-0.7l-2.1-23.2C70,28.1,58.7,22.4,46,22.4z"
									/>
								<path class="st1" d="M18.3,34.6L18.3,34.6l-2.1,23.2l0,0c0,0.3,0,0.6,0,0.9C16.1,68.2,29.5,76,46,76V19.4
									C31.1,19.4,19,26.1,18.3,34.6z"/>
								<path class="st0" d="M46,19.4c-3.7,0-7.3,0.4-10.5,1.2l-15.2,8.8c-1.1,1.6-1.8,3.3-2,5.1l0,0L17,48.8l29,16.7l29-16.9
									l-1.3-14.2l0,0c-0.2-1.7-0.8-3.3-1.8-4.8l-16.1-9.3C52.7,19.8,49.4,19.4,46,19.4z"/>
								<path class="st2" d="M46,77c-17,0-30.9-8.2-30.9-18.3c0-0.3,0-0.7,0-1l2.1-23.2c0.8-9,13.4-16.1,28.7-16.1
									s27.9,7.1,28.7,16.1l2.1,23.2l0,0c0,0.3,0,0.7,0,1C76.8,68.8,63,77,46,77z M46,20.4c-14.2,0-26,6.3-26.7,14.2l-2.1,23.2
									c0,0.3,0,0.6,0,0.8c0,9,13,16.3,28.9,16.3S75,67.6,75,58.6c0-0.3,0-0.6,0-0.8l-2.1-23.2C71.9,26.7,60.2,20.4,46,20.4z"/>
							</g>
							<g>
								<path class="st1" d="M67.1,55.9c1.6-0.9,2.8-0.2,2.8,1.6v3.1c0,0.6-0.3,1.1-0.8,1.4l-3.6,2.1c-0.5,0.3-1.2-0.1-1.2-0.7v-2.6
									C64.3,59,65.5,56.8,67.1,55.9z"/>
							</g>
							<g>
								<path class="st2" d="M65.1,65.2c-0.3,0-0.6-0.1-0.9-0.2c-0.6-0.3-0.9-0.9-0.9-1.6v-2.6c0-2.1,1.4-4.7,3.3-5.7l0,0
									c1.1-0.6,2.1-0.7,3-0.2c0.8,0.5,1.3,1.5,1.3,2.7v3.1c0,0.9-0.5,1.8-1.3,2.3L66,65C65.7,65.1,65.4,65.2,65.1,65.2z
									 M65.3,63.4L65.3,63.4L65.3,63.4z M67.6,56.8c-1.3,0.7-2.3,2.5-2.3,4v2.3l3.3-1.9c0.2-0.1,0.3-0.3,0.3-0.5v-3.1
									c0-0.5-0.1-0.8-0.3-0.9C68.4,56.5,68,56.6,67.6,56.8L67.6,56.8z"/>
							</g>
							<g>
								
									<ellipse transform="matrix(2.830918e-03 -1 1 2.830918e-03 6.7024 84.6384)" class="st3" cx="45.8" cy="39" rx="14.4" ry="24.8"/>
							</g>
							<g>
								<polygon class="st1" points="86.6,31.5 46,55.2 5,31.5 45.7,7.9 								"/>
								<polygon class="st0" points="86.6,31.5 86.6,36.8 45.9,60.4 46,55.2 								"/>
								<polygon class="st1" points="46,55.2 45.9,60.4 5,36.8 5,31.5 								"/>
								<path class="st3" d="M46,56.2c-0.2,0-0.3,0-0.5-0.1l-41-23.7C4.2,32.2,4,31.9,4,31.5s0.2-0.7,0.5-0.9L45.2,7
									c0.3-0.2,0.7-0.2,1,0l40.9,23.6c0.3,0.2,0.5,0.5,0.5,0.9s-0.2,0.7-0.5,0.9L46.5,56C46.3,56.1,46.1,56.2,46,56.2z M7,31.5
									L46,54l38.7-22.5L45.7,9L7,31.5z"/>
								<path class="st3" d="M45.9,61.4c-0.2,0-0.3,0-0.5-0.1c-0.3-0.2-0.5-0.5-0.5-0.9v-5.3c0-0.4,0.2-0.7,0.5-0.9l40.7-23.6
									c0.3-0.2,0.7-0.2,1,0s0.5,0.5,0.5,0.9v5.3c0,0.4-0.2,0.7-0.5,0.9L46.5,61.3C46.3,61.4,46.1,61.4,45.9,61.4z M47,55.7v3
									l38.7-22.5v-3L47,55.7z"/>
								<path class="st3" d="M45.9,61.4c-0.2,0-0.3,0-0.5-0.1L4.5,37.7C4.2,37.5,4,37.1,4,36.8v-5.3c0-0.4,0.2-0.7,0.5-0.9
									c0.3-0.2,0.7-0.2,1,0l40.9,23.6c0.3,0.2,0.5,0.5,0.5,0.9v5.3c0,0.4-0.2,0.7-0.5,0.9C46.3,61.4,46.1,61.4,45.9,61.4z M6,36.2
									l39,22.5v-3L6,33.2V36.2z"/>
								<path class="st2" d="M45.9,61.4c-0.2,0-0.3,0-0.5-0.1L4.5,37.7C4.2,37.5,4,37.1,4,36.8v-5.3c0-0.4,0.2-0.7,0.5-0.9L45.2,7
									c0.3-0.2,0.7-0.2,1,0l40.9,23.6c0.3,0.2,0.5,0.5,0.5,0.9v5.3c0,0.4-0.2,0.7-0.5,0.9L46.5,61.3
									C46.3,61.4,46.1,61.4,45.9,61.4z M6,36.2l39.9,23.1l39.7-23.1v-4.1L45.7,9L6,32.1V36.2z"/>
							</g>
							<path class="st1" d="M39.2,27.7c-3.7,2.2-3.7,5.6,0,7.8c1.9,1.1,4.3,1.6,6.7,1.6v-11C43.5,26.1,41.1,26.6,39.2,27.7z"/>
							<path class="st2" d="M67.5,55.9c-0.6,0-1-0.4-1-1v-9.4c0-0.6-0.3-1.2-0.9-1.5l-13.4-7.8c-0.5-0.3-0.6-0.9-0.4-1.4
								s0.9-0.6,1.4-0.4l13.4,7.8c1.1,0.7,1.9,1.9,1.9,3.2v9.4C68.5,55.5,68.1,55.9,67.5,55.9z"/>
							<g>
								<path class="st2" d="M46,38.1c-2.6,0-5.2-0.6-7.2-1.8c-2.1-1.2-3.3-2.9-3.3-4.8c0-1.8,1.2-3.5,3.3-4.7
									c4-2.3,10.4-2.3,14.5,0c2.1,1.2,3.3,2.9,3.3,4.8c0,1.8-1.2,3.5-3.3,4.7S48.6,38.1,46,38.1z M45.9,27.1
									c-2.3,0-4.5,0.5-6.2,1.5c-1.5,0.9-2.3,1.9-2.3,3s0.8,2.2,2.3,3c3.4,2,9,2,12.5,0c1.5-0.9,2.3-1.9,2.3-3c0-1.1-0.8-2.2-2.3-3
									C50.4,27.6,48.2,27.1,45.9,27.1z"/>
							</g>
							<g>
								
									<ellipse transform="matrix(2.830889e-03 -1 1 2.830889e-03 14.3124 77.4325)" class="st0" cx="46" cy="31.5" rx="2.4" ry="4.2"/>
							</g>
							<g>
								<path class="st1" d="M67.5,51.7c1.1-0.7,2.1-0.1,2.1,1.2s-0.9,2.9-2.1,3.6c-1.1,0.7-2.1,0.1-2.1-1.2S66.4,52.4,67.5,51.7z"
									/>
							</g>
							<g>
								<path class="st2" d="M66.6,57.7c-0.4,0-0.7-0.1-1-0.3c-0.7-0.4-1.1-1.2-1.1-2.2c0-1.7,1.1-3.6,2.6-4.4
									c0.9-0.5,1.8-0.6,2.5-0.1c0.7,0.4,1.1,1.2,1.1,2.2c0,1.7-1.1,3.6-2.6,4.4C67.5,57.6,67,57.7,66.6,57.7z M68.4,52.4
									c-0.1,0-0.2,0-0.4,0.1l0,0c-0.8,0.5-1.6,1.7-1.6,2.7c0,0.3,0.1,0.4,0.1,0.5c0,0,0.2,0,0.5-0.1c0.8-0.5,1.6-1.7,1.6-2.7
									C68.6,52.6,68.5,52.4,68.4,52.4C68.5,52.4,68.5,52.4,68.4,52.4z M67.5,51.7L67.5,51.7L67.5,51.7z"/>
							</g>
						</g>
					</g>
					<g>
						<g>
							<path class="st4" d="M91.9,71.5c-1-0.6-1.9-0.6-2.6-0.2l0,0L49,94.6l28.2,25.5l40.4-23.3V86.3L91.9,71.5z"/>
							<path class="st4" d="M77.2,121.1c-0.2,0-0.5-0.1-0.7-0.3L48.3,95.4c-0.2-0.2-0.4-0.5-0.3-0.8c0-0.3,0.2-0.6,0.5-0.8
								l40.4-23.3c0,0,0.1,0,0.1-0.1c1-0.5,2.2-0.4,3.5,0.3l25.6,14.8c0.3,0.2,0.5,0.5,0.5,0.9v10.5c0,0.4-0.2,0.7-0.5,0.9L77.7,121
								C77.5,121.1,77.4,121.1,77.2,121.1z M50.7,94.8l26.6,24.1l39.2-22.6v-9.4L91.4,72.4l0,0c-0.4-0.3-1.1-0.5-1.6-0.2h-0.1
								L50.7,94.8z"/>
						</g>
						<g>
							<path class="st3" d="M77.2,120.1l-25.6-14.8c-2.2-1.3-3.9-4.6-3.9-7.5l0,0c0-2.9,1.8-4.2,3.9-3l25.6,14.8V120.1z"/>
							<path class="st4" d="M77.2,121.1c-0.2,0-0.3,0-0.5-0.1l-25.6-14.8c-2.5-1.4-4.4-5.1-4.4-8.4c0-1.9,0.7-3.4,1.9-4.1
								c1-0.6,2.3-0.5,3.6,0.2l25.6,14.8c0.3,0.2,0.5,0.5,0.5,0.9v10.5c0,0.4-0.2,0.7-0.5,0.9C77.5,121.1,77.4,121.1,77.2,121.1z
								 M50,95.4c-0.2,0-0.4,0-0.5,0.1c-0.5,0.3-0.9,1.2-0.9,2.3c0,2.5,1.6,5.6,3.4,6.7l24.1,13.9v-8.2l-25-14.5
								C50.8,95.5,50.4,95.4,50,95.4z"/>
						</g>
						<g>
							<polygon class="st5" points="117.6,86.3 77.2,109.6 77.2,120.1 117.6,96.8 							"/>
							<path class="st4" d="M77.2,121.1c-0.2,0-0.3,0-0.5-0.1c-0.3-0.2-0.5-0.5-0.5-0.9v-10.5c0-0.4,0.2-0.7,0.5-0.9l40.4-23.3
								c0.3-0.2,0.7-0.2,1,0s0.5,0.5,0.5,0.9v10.5c0,0.4-0.2,0.7-0.5,0.9L77.7,121C77.5,121.1,77.4,121.1,77.2,121.1z M78.2,110.2
								v8.2l38.4-22.1V88L78.2,110.2z"/>
						</g>
						<path class="st6" d="M77.2,121.1c-0.2,0-0.3,0-0.5-0.1l-25.6-14.8c-2.5-1.4-4.4-5.1-4.4-8.4c0-1.8,0.6-3.3,1.8-4
							c0,0,0.1,0,0.1-0.1L89,70.4c0,0,0.1,0,0.1-0.1c1-0.5,2.2-0.4,3.5,0.3l25.6,14.8c0.3,0.2,0.5,0.5,0.5,0.9v10.5
							c0,0.4-0.2,0.7-0.5,0.9L77.7,121C77.5,121.1,77.4,121.1,77.2,121.1z M49.6,95.4C49.6,95.5,49.5,95.5,49.6,95.4
							c-0.6,0.4-1,1.2-1,2.4c0,2.5,1.6,5.6,3.4,6.7L77.2,119l39.4-22.7v-9.4L91.4,72.4l0,0c-0.4-0.3-1.1-0.5-1.6-0.2h-0.1L49.6,95.4
							z"/>
					</g>
					<g>
						<g>
							<g>
								<g>
									<polygon class="st1" points="76.8,102 85.4,107 123,85.3 113.5,79.8 									"/>
									<path class="st0" d="M85.4,108c-0.2,0-0.3,0-0.5-0.1l-8.6-5c-0.3-0.2-0.5-0.5-0.5-0.9s0.2-0.7,0.5-0.9L113,79
										c0.3-0.2,0.7-0.2,1,0l9.5,5.5c0.3,0.2,0.5,0.5,0.5,0.9s-0.2,0.7-0.5,0.9L85.9,108C85.8,108,85.6,108,85.4,108z M78.8,102
										l6.6,3.8L121,85.3l-7.5-4.3L78.8,102z"/>
								</g>
								<g>
									<path class="st3" d="M85.4,107L61.6,93.2c-1.6-0.9-2.9-3.4-2.9-5.5l0,0c0-2.1,1.3-3.1,2.9-2.2l23.9,13.8L85.4,107L85.4,107
										z"/>
									<path class="st0" d="M85.4,108c-0.2,0-0.3,0-0.5-0.1L61.1,94.1c-1.9-1.1-3.4-3.9-3.4-6.4c0-1.5,0.5-2.6,1.5-3.2
										c0.8-0.5,1.9-0.4,2.9,0.2L86,98.5c0.3,0.2,0.5,0.5,0.5,0.9v7.7c0,0.4-0.2,0.7-0.5,0.9C85.8,108,85.6,108,85.4,108z
										 M60.4,86.2c-0.1,0-0.2,0-0.2,0.1c-0.2,0.1-0.5,0.6-0.5,1.5c0,1.8,1.1,3.9,2.4,4.6l22.4,12.9v-5.4L61.1,86.4
										C60.9,86.3,60.7,86.2,60.4,86.2z"/>
								</g>
								<g>
									<polygon class="st1" points="85.4,99.3 123,77.7 123,85.3 85.4,107 									"/>
									<path class="st0" d="M85.4,108c-0.2,0-0.3,0-0.5-0.1c-0.3-0.2-0.5-0.5-0.5-0.9v-7.7c0-0.4,0.2-0.7,0.5-0.9l37.6-21.7
										c0.3-0.2,0.7-0.2,1,0s0.5,0.5,0.5,0.9v7.7c0,0.4-0.2,0.7-0.5,0.9l-37.6,21.7C85.8,108,85.6,108,85.4,108z M86.4,99.9v5.4
										L122,84.7v-5.4L86.4,99.9z"/>
								</g>
								<g>
									<path class="st0" d="M61.6,85.6l23.9,13.8L123,77.7L99.1,63.9c-0.7-0.4-1.4-0.4-1.9-0.1l0,0L59.7,85.4l0,0
										C60.2,85.1,60.9,85.2,61.6,85.6z"/>
									<path class="st0" d="M85.4,100.3c-0.2,0-0.3,0-0.5-0.1L61.1,86.4c-0.2-0.1-0.6-0.3-0.9-0.1c-0.3,0.2-0.8,0.2-1.1-0.1
										c-0.3-0.2-0.4-0.5-0.4-0.9c0-0.3,0.2-0.6,0.5-0.8l37.6-21.7c0,0,0.1,0,0.1-0.1c0.8-0.4,1.8-0.4,2.8,0.2l23.9,13.8
										c0.3,0.2,0.5,0.5,0.5,0.9s-0.2,0.7-0.5,0.9L86,100.2C85.8,100.3,85.6,100.3,85.4,100.3z M62.5,84.9l22.9,13.2L121,77.7
										l-22.4-13c-0.2-0.1-0.6-0.3-0.9-0.1h-0.1L62.5,84.9z"/>
								</g>
								<g>
									<path class="st0" d="M107.1,78.2l-2.4,1.4c-0.6,0.3-1.5,0.3-2.1,0l-8.8-5.1c-0.6-0.3-0.6-0.9,0-1.2l2.4-1.4
										c0.6-0.3,1.5-0.3,2.1,0l8.8,5.1C107.7,77.3,107.7,77.9,107.1,78.2z"/>
									<path class="st1" d="M103.7,80.8c-0.6,0-1.1-0.1-1.6-0.4l-8.8-5.1c-0.6-0.3-0.9-0.9-0.9-1.5s0.3-1.1,0.9-1.5l2.4-1.4
										c0.9-0.5,2.2-0.5,3.1,0l8.8,5.1c0.6,0.3,0.9,0.9,0.9,1.5s-0.3,1.1-0.9,1.5l-2.4,1.4C104.8,80.7,104.3,80.8,103.7,80.8z
										 M94.8,73.9l8.4,4.9c0.3,0.2,0.9,0.2,1.1,0l1.9-1.1l-8.4-4.9c-0.3-0.2-0.9-0.2-1.1,0L94.8,73.9z"/>
								</g>
								<path class="st1" d="M81,91.7c-0.2,0-0.3,0-0.5-0.1L74,87.9c-0.5-0.3-0.6-0.9-0.4-1.4c0.3-0.5,0.9-0.6,1.4-0.4l6.5,3.7
									c0.5,0.3,0.6,0.9,0.4,1.4C81.7,91.5,81.4,91.7,81,91.7z"/>
							</g>
							<path class="st2" d="M85.4,108c-0.2,0-0.3,0-0.5-0.1L61.1,94.1c-1.9-1.1-3.4-3.9-3.4-6.4c0-1.4,0.5-2.6,1.4-3.1
								c0,0,0.1,0,0.1-0.1l37.6-21.7c0,0,0.1,0,0.1-0.1c0.8-0.4,1.8-0.4,2.8,0.2l23.9,13.8c0.3,0.2,0.5,0.5,0.5,0.9v7.7
								c0,0.4-0.2,0.7-0.5,0.9L86,107.9C85.8,108,85.6,108,85.4,108z M60.3,86.2C60.2,86.3,60.2,86.3,60.3,86.2
								c-0.3,0.2-0.6,0.6-0.6,1.5c0,1.8,1.1,3.9,2.4,4.6l23.4,13.5L122,84.7v-6.5L98.6,64.7l0,0c-0.2-0.1-0.6-0.3-0.9-0.1h-0.1
								L60.3,86.2z"/>
						</g>
					</g>
				</g>
				<rect x="4" y="4" class="st7" width="120" height="120"/>
				<rect x="4" y="4" class="st7" width="120" height="120"/>
			</g>
		</g>
	</g>
	<g>
		<rect class="st7" width="128" height="128"/>
	</g>
</g>
</svg>
