<?xml version="1.0" encoding="utf-8"?>
<!-- Generator: Adobe Illustrator 24.1.0, SVG Export Plug-In . SVG Version: 6.00 Build 0)  -->
<svg version="1.1" id="Layer_1" xmlns="http://www.w3.org/2000/svg" xmlns:xlink="http://www.w3.org/1999/xlink" x="0px" y="0px"
	 viewBox="0 0 128 128" style="enable-background:new 0 0 128 128;" xml:space="preserve">
<style type="text/css">
	.st0{fill:#185849;}
	.st1{fill:#0E352C;}
	.st2{fill:#C4D7D3;}
	.st3{fill:#27ae60;}
	.st4{fill:#FFFFFF;}
	.st5{fill:#E9EBDF;}
	.st6{fill:#4D9987;}
	.st7{fill:none;}
</style>
<g id="Layer_1_1_">
</g>
<g>
	<g id="Layer_2_1_">
		<g id="Industries_1_">
			<g>
				<g>
					<g>
						<path class="st0" d="M114.9,88.8c-0.3,0-0.5-0.1-0.7-0.3c-0.2-0.2-0.3-0.5-0.3-0.7c0-0.3,0.1-0.5,0.3-0.7
							c0.2-0.2,0.6-0.3,0.9-0.3c0.1,0,0.1,0,0.2,0.1c0.1,0,0.1,0,0.2,0.1c0.1,0,0.1,0.1,0.2,0.1c0.2,0.2,0.3,0.4,0.3,0.7
							c0,0.3-0.1,0.5-0.3,0.7c0,0-0.1,0.1-0.2,0.1c0,0-0.1,0.1-0.2,0.1s-0.1,0-0.2,0.1C115,88.8,115,88.8,114.9,88.8z"/>
						<path class="st0" d="M113.9,81.6c0-0.6,0.5-1,1-1l0,0c0.5,0,1,0.4,1,1l0,0c0,0.5-0.5,1-1,1l0,0
							C114.3,82.6,113.9,82.2,113.9,81.6z M113.9,75.5c0-0.6,0.5-1,1-1l0,0c0.5,0,1,0.4,1,1l0,0c0,0.6-0.5,1-1,1l0,0
							C114.3,76.5,113.9,76,113.9,75.5z M113.9,69.3c0-0.6,0.5-1,1-1l0,0c0.5,0,1,0.4,1,1l0,0c0,0.5-0.5,1-1,1l0,0
							C114.3,70.3,113.9,69.9,113.9,69.3z M113.9,63.1c0-0.6,0.5-1,1-1l0,0c0.5,0,1,0.4,1,1l0,0c0,0.5-0.5,1-1,1l0,0
							C114.3,64.1,113.9,63.7,113.9,63.1z M113.9,57c0-0.6,0.5-1,1-1l0,0c0.5,0,1,0.4,1,1l0,0c0,0.5-0.5,1-1,1l0,0
							C114.3,58,113.9,57.5,113.9,57z M113.9,50.8c0-0.6,0.5-1,1-1l0,0c0.5,0,1,0.4,1,1l0,0c0,0.5-0.5,1-1,1l0,0
							C114.3,51.8,113.9,51.4,113.9,50.8z M113.9,44.6c0-0.6,0.5-1,1-1l0,0c0.5,0,1,0.4,1,1l0,0c0,0.6-0.5,1-1,1l0,0
							C114.3,45.6,113.9,45.2,113.9,44.6z M113.9,38.6L113.9,38.6L113.9,38.6c0-0.5,0.4-1,0.9-1.1l0,0c0.5,0,1,0.4,1.1,0.9l0,0
							c0,0.5-0.4,1-0.9,1.1l0,0h-0.1l0,0C114.3,39.5,113.9,39.1,113.9,38.6z M111.4,33.9c-0.4-0.4-0.5-1-0.1-1.4l0,0
							c0.4-0.4,1-0.5,1.4-0.1l0,0c0.4,0.4,0.5,1,0.1,1.4l0,0c-0.2,0.2-0.5,0.4-0.8,0.4l0,0C111.8,34.1,111.6,34.1,111.4,33.9z
							 M106.3,30.8c-0.5-0.3-0.6-0.9-0.4-1.4l0,0c0.3-0.5,0.9-0.7,1.4-0.4l0,0c0.5,0.3,0.6,0.9,0.4,1.4l0,0
							c-0.2,0.3-0.5,0.5-0.9,0.5l0,0C106.6,30.9,106.5,30.9,106.3,30.8z M101,27.7c-0.5-0.3-0.6-0.9-0.4-1.4l0,0
							c0.3-0.5,0.9-0.6,1.4-0.4l0,0c0.5,0.3,0.6,0.9,0.4,1.4l0,0c-0.2,0.3-0.5,0.5-0.9,0.5l0,0C101.3,27.9,101.1,27.8,101,27.7z
							 M95.6,24.6c-0.5-0.3-0.6-0.9-0.4-1.4l0,0c0.3-0.5,0.9-0.6,1.4-0.4l0,0c0.5,0.3,0.6,0.9,0.4,1.4l0,0c-0.2,0.3-0.5,0.5-0.9,0.5
							l0,0C96,24.8,95.8,24.7,95.6,24.6z M90.3,21.6c-0.5-0.3-0.7-0.9-0.4-1.4l0,0c0.3-0.5,0.9-0.6,1.4-0.4l0,0
							c0.5,0.3,0.6,0.9,0.4,1.4l0,0c-0.2,0.3-0.5,0.5-0.9,0.5l0,0C90.6,21.7,90.5,21.6,90.3,21.6z M85,18.5
							c-0.5-0.3-0.6-0.9-0.4-1.4l0,0c0.3-0.5,0.9-0.6,1.4-0.4l0,0c0.5,0.3,0.6,0.9,0.4,1.4l0,0c-0.2,0.3-0.5,0.5-0.9,0.5l0,0
							C85.3,18.6,85.1,18.6,85,18.5z M79.6,15.4c-0.5-0.3-0.6-0.9-0.4-1.4l0,0c0.3-0.5,0.9-0.6,1.4-0.4l0,0c0.5,0.3,0.7,0.9,0.4,1.4
							l0,0c-0.2,0.3-0.5,0.5-0.9,0.5l0,0C79.9,15.5,79.8,15.5,79.6,15.4z M74.3,12.3c-0.5-0.3-0.6-0.9-0.4-1.4l0,0
							c0.3-0.5,0.9-0.7,1.4-0.4l0,0c0.5,0.3,0.7,0.9,0.4,1.4l0,0c-0.2,0.3-0.5,0.5-0.9,0.5l0,0C74.6,12.4,74.4,12.4,74.3,12.3z"/>
						<path class="st0" d="M69.4,9.4c-0.1,0-0.1,0-0.2,0s-0.1,0-0.2-0.1c-0.1,0-0.1,0-0.2-0.1c-0.1,0-0.1-0.1-0.2-0.1
							c-0.2-0.2-0.3-0.4-0.3-0.7s0.1-0.5,0.3-0.7c0,0,0.1-0.1,0.2-0.1s0.1-0.1,0.2-0.1s0.1,0,0.2-0.1c0.2,0,0.4,0,0.6,0.1
							c0.1,0.1,0.2,0.1,0.3,0.2c0.2,0.2,0.3,0.5,0.3,0.7c0,0.3-0.1,0.5-0.3,0.7c-0.1,0.1-0.2,0.2-0.3,0.2
							C69.7,9.3,69.6,9.4,69.4,9.4z"/>
					</g>
					<g>
						<path class="st0" d="M13.1,88.5c-0.1,0-0.1,0-0.2,0c-0.1,0-0.1,0-0.2-0.1c-0.1,0-0.1-0.1-0.2-0.1c-0.1,0-0.1-0.1-0.2-0.1
							l-0.1-0.1c0,0-0.1-0.1-0.1-0.2s0-0.1-0.1-0.2c0-0.1,0-0.1,0-0.2s0-0.3,0.1-0.4s0.1-0.2,0.2-0.3c0.4-0.4,1.1-0.4,1.4,0
							c0.1,0.1,0.2,0.2,0.2,0.3c0.1,0.1,0.1,0.2,0.1,0.4c0,0.1,0,0.1,0,0.2s0,0.1-0.1,0.2c0,0.1-0.1,0.1-0.1,0.2l-0.1,0.1
							c0,0.1-0.1,0.1-0.1,0.1c-0.1,0-0.1,0.1-0.2,0.1C13.3,88.4,13.3,88.4,13.1,88.5C13.2,88.5,13.2,88.5,13.1,88.5z"/>
						<path class="st0" d="M12.1,81.3c0-0.6,0.5-1,1-1l0,0c0.6,0,1,0.4,1,1l0,0c0,0.5-0.4,1-1,1l0,0C12.6,82.3,12.1,81.9,12.1,81.3z
							 M12.1,75.2c0-0.6,0.5-1,1-1l0,0c0.6,0,1,0.4,1,1l0,0c0,0.5-0.4,1-1,1l0,0C12.6,76.2,12.1,75.7,12.1,75.2z M12.1,69
							c0-0.5,0.5-1,1-1l0,0c0.6,0,1,0.4,1,1l0,0c0,0.6-0.4,1-1,1l0,0C12.6,70,12.1,69.6,12.1,69z M12.1,62.8c0-0.6,0.5-1,1-1l0,0
							c0.6,0,1,0.4,1,1l0,0c0,0.5-0.4,1-1,1l0,0C12.6,63.8,12.1,63.4,12.1,62.8z M12.1,56.7c0-0.6,0.5-1,1-1l0,0c0.6,0,1,0.4,1,1
							l0,0c0,0.5-0.4,1-1,1l0,0C12.6,57.7,12.1,57.2,12.1,56.7z M12.1,50.5c0-0.6,0.5-1,1-1l0,0c0.6,0,1,0.4,1,1l0,0
							c0,0.6-0.4,1-1,1l0,0C12.6,51.5,12.1,51.1,12.1,50.5z M12.1,44.4c0-0.6,0.5-1,1-1l0,0c0.6,0,1,0.4,1,1l0,0c0,0.6-0.4,1-1,1
							l0,0C12.6,45.4,12.1,44.9,12.1,44.4z M13.1,39.2c-0.5,0-1-0.5-0.9-1.1l0,0c0-0.6,0.5-1,1.1-0.9l0,0c0.6,0,1,0.5,0.9,1.1l0,0
							C14.1,38.8,13.6,39.2,13.1,39.2L13.1,39.2L13.1,39.2z M15,33.5c-0.4-0.4-0.3-1,0.1-1.4l0,0c0.4-0.4,1.1-0.3,1.4,0.1l0,0
							c0.4,0.4,0.3,1-0.1,1.4l0,0c-0.2,0.2-0.4,0.3-0.7,0.3l0,0C15.5,33.8,15.2,33.7,15,33.5z M20.1,30.1c-0.3-0.5-0.1-1.1,0.4-1.4
							l0,0c0.5-0.3,1.1-0.1,1.4,0.4l0,0c0.3,0.5,0.1,1.1-0.4,1.4l0,0c-0.2,0.1-0.3,0.1-0.5,0.1l0,0C20.6,30.6,20.3,30.4,20.1,30.1z
							 M25.4,27c-0.3-0.5-0.1-1.1,0.4-1.4l0,0c0.5-0.3,1.1-0.1,1.4,0.4l0,0c0.3,0.5,0.1,1.1-0.4,1.4l0,0c-0.2,0.1-0.3,0.1-0.5,0.1
							l0,0C26,27.5,25.6,27.4,25.4,27z M30.8,24c-0.3-0.5-0.1-1.1,0.4-1.4l0,0c0.5-0.3,1.1-0.1,1.4,0.4l0,0c0.3,0.5,0.1,1.1-0.4,1.4
							l0,0c-0.2,0.1-0.3,0.1-0.5,0.1l0,0C31.3,24.5,31,24.3,30.8,24z M36.1,20.9c-0.3-0.5-0.1-1.1,0.4-1.4l0,0
							c0.5-0.3,1.1-0.1,1.4,0.4l0,0c0.3,0.5,0.1,1.1-0.4,1.4l0,0c-0.2,0.1-0.3,0.1-0.5,0.1l0,0C36.6,21.4,36.3,21.2,36.1,20.9z
							 M41.4,17.8c-0.3-0.5-0.1-1.1,0.4-1.4l0,0c0.5-0.3,1.1-0.1,1.4,0.4l0,0c0.3,0.5,0.1,1.1-0.4,1.4l0,0c-0.2,0.1-0.3,0.1-0.5,0.1
							l0,0C41.9,18.3,41.6,18.1,41.4,17.8z M46.8,14.7c-0.3-0.5-0.1-1.1,0.4-1.4l0,0c0.5-0.3,1.1-0.1,1.4,0.4l0,0
							c0.3,0.5,0.1,1.1-0.4,1.4l0,0c-0.2,0.1-0.3,0.1-0.5,0.1l0,0C47.3,15.2,46.9,15,46.8,14.7z M52.1,11.7
							c-0.3-0.5-0.1-1.1,0.4-1.4l0,0c0.5-0.3,1.1-0.1,1.4,0.4l0,0c0.3,0.5,0.1,1.1-0.4,1.4l0,0c-0.2,0.1-0.3,0.1-0.5,0.1l0,0
							C52.6,12.2,52.3,12,52.1,11.7z M57.4,8.6c-0.3-0.5-0.1-1.1,0.4-1.4l0,0c0.5-0.3,1.1-0.1,1.4,0.4l0,0c0.3,0.5,0.1,1.1-0.4,1.4
							l0,0c-0.1,0.1-0.3,0.1-0.5,0.1l0,0C57.9,9.1,57.6,8.9,57.4,8.6z"/>
						<path class="st0" d="M63.6,6c-0.3,0-0.5-0.1-0.7-0.3c-0.2-0.2-0.3-0.5-0.3-0.7c0-0.1,0-0.3,0.1-0.4s0.1-0.2,0.2-0.3
							C63,4.2,63,4.2,63,4.2c0.1,0,0.1-0.1,0.2-0.1C63.3,4,63.3,4,63.4,4c0.1,0,0.3,0,0.4,0c0.1,0,0.1,0,0.2,0.1
							c0.1,0,0.1,0,0.2,0.1l0.1,0.1c0.1,0.1,0.2,0.2,0.2,0.3c0,0.1,0.1,0.2,0.1,0.4c0,0.3-0.1,0.5-0.3,0.7C64.1,5.9,63.9,6,63.6,6z"
							/>
					</g>
					<g>
						<path class="st1" d="M92.2,74.8c-0.1,0-0.3,0-0.4-0.1c-0.1,0-0.2-0.1-0.3-0.2c-0.2-0.2-0.3-0.4-0.3-0.7c0-0.1,0-0.1,0-0.2
							s0-0.1,0.1-0.2c0-0.1,0-0.1,0.1-0.2c0-0.1,0.1-0.1,0.1-0.1c0.1-0.1,0.2-0.2,0.3-0.2c0.2-0.1,0.4-0.1,0.6-0.1
							c0.1,0,0.1,0,0.2,0.1c0.1,0,0.1,0.1,0.2,0.1s0.1,0.1,0.2,0.1l0.1,0.1c0,0,0.1,0.1,0.1,0.2s0,0.1,0.1,0.2c0,0.1,0,0.1,0,0.2
							c0,0.3-0.1,0.5-0.3,0.7c-0.1,0-0.1,0.1-0.2,0.1c0,0-0.1,0.1-0.2,0.1s-0.1,0-0.2,0C92.3,74.8,92.2,74.8,92.2,74.8z"/>
						<path class="st1" d="M91.2,67.9c0-0.6,0.4-1,1-1l0,0c0.5,0,1,0.4,1,1l0,0c0,0.6-0.5,1-1,1l0,0C91.6,68.9,91.2,68.5,91.2,67.9z
							 M91.2,62c0-0.6,0.4-1,1-1l0,0c0.5,0,1,0.4,1,1l0,0c0,0.6-0.5,1-1,1l0,0C91.6,63,91.2,62.6,91.2,62z M91.2,56.1
							c0-0.6,0.4-1,1-1l0,0c0.5,0,1,0.4,1,1l0,0c0,0.5-0.5,1-1,1l0,0C91.6,57.1,91.2,56.7,91.2,56.1z M91.2,50.2c0-0.5,0.4-1,1-1
							l0,0c0.5,0,1,0.5,1,1l0,0c0,0.5-0.5,1-1,1l0,0C91.6,51.2,91.2,50.8,91.2,50.2z"/>
						<path class="st1" d="M92.2,45.4c-0.1,0-0.3,0-0.4-0.1c-0.1,0-0.2-0.1-0.3-0.2c-0.2-0.2-0.3-0.4-0.3-0.7c0-0.1,0-0.1,0-0.2
							c0-0.1,0-0.1,0.1-0.2c0-0.1,0-0.1,0.1-0.2c0-0.1,0.1-0.1,0.1-0.1c0.1-0.1,0.2-0.2,0.3-0.2c0.4-0.1,0.8-0.1,1.1,0.2l0.1,0.1
							c0,0,0.1,0.1,0.1,0.2c0,0.1,0,0.1,0.1,0.2c0,0.1,0,0.1,0,0.2c0,0.3-0.1,0.5-0.3,0.7c-0.1,0.1-0.1,0.1-0.2,0.1
							c0,0-0.1,0.1-0.2,0.1s-0.1,0-0.2,0C92.3,45.4,92.2,45.4,92.2,45.4z"/>
						<path class="st1" d="M85.9,41.9c-0.5-0.3-0.6-0.9-0.4-1.4l0,0c0.3-0.5,0.9-0.6,1.4-0.4l0,0c0.5,0.3,0.6,0.9,0.4,1.4l0,0
							C87,41.8,86.7,42,86.4,42l0,0C86.2,42,86,42,85.9,41.9z M80.1,38.5c-0.5-0.3-0.6-0.9-0.4-1.4l0,0c0.3-0.5,0.9-0.6,1.4-0.4l0,0
							c0.5,0.3,0.6,0.9,0.4,1.4l0,0c-0.2,0.3-0.5,0.5-0.9,0.5l0,0C80.4,38.7,80.2,38.6,80.1,38.5z"/>
						<path class="st1" d="M74.8,35.3c-0.3,0-0.5-0.1-0.7-0.3L74,34.9c0-0.1-0.1-0.1-0.1-0.2c0-0.1,0-0.1-0.1-0.2c0-0.1,0-0.1,0-0.2
							c0-0.3,0.1-0.5,0.3-0.7c0,0,0.1-0.1,0.2-0.1s0.1-0.1,0.2-0.1s0.1,0,0.2-0.1c0.3-0.1,0.7,0,0.9,0.3c0,0.1,0.1,0.1,0.1,0.1
							c0,0.1,0.1,0.1,0.1,0.2c0,0.1,0,0.1,0.1,0.2c0,0.1,0,0.1,0,0.2c0,0.1,0,0.1,0,0.2c0,0.1,0,0.1-0.1,0.2c0,0.1,0,0.1-0.1,0.2
							c0,0.1-0.1,0.1-0.1,0.1C75.3,35.2,75,35.3,74.8,35.3z"/>
					</g>
					<g>
						<path class="st1" d="M35.8,74.6c-0.3,0-0.5-0.1-0.7-0.3c-0.2-0.2-0.3-0.4-0.3-0.7c0-0.1,0-0.3,0.1-0.4s0.1-0.2,0.2-0.3
							c0.1-0.1,0.2-0.2,0.3-0.2c0.4-0.1,0.8-0.1,1.1,0.2c0.1,0.1,0.2,0.2,0.2,0.3s0.1,0.2,0.1,0.4c0,0.3-0.1,0.5-0.3,0.7
							C36.4,74.5,36.1,74.6,35.8,74.6z"/>
						<path class="st1" d="M34.8,67.7c0-0.5,0.5-1,1-1l0,0c0.5,0,1,0.5,1,1l0,0c0,0.5-0.5,1-1,1l0,0C35.3,68.7,34.8,68.3,34.8,67.7z
							 M34.8,61.8c0-0.6,0.5-1,1-1l0,0c0.5,0,1,0.4,1,1l0,0c0,0.5-0.5,1-1,1l0,0C35.3,62.8,34.8,62.4,34.8,61.8z M34.8,55.9
							c0-0.6,0.5-1,1-1l0,0c0.5,0,1,0.4,1,1l0,0c0,0.5-0.5,1-1,1l0,0C35.3,56.9,34.8,56.5,34.8,55.9z M34.8,50c0-0.5,0.5-1,1-1l0,0
							c0.5,0,1,0.5,1,1l0,0c0,0.6-0.5,1-1,1l0,0C35.3,51,34.8,50.6,34.8,50z"/>
						<path class="st1" d="M35.8,45.1c-0.3,0-0.5-0.1-0.7-0.3s-0.3-0.4-0.3-0.7s0.1-0.5,0.3-0.7c0.1-0.1,0.2-0.2,0.3-0.2
							c0.4-0.1,0.8-0.1,1.1,0.2c0.2,0.2,0.3,0.4,0.3,0.7s-0.1,0.5-0.3,0.7C36.4,45,36.1,45.1,35.8,45.1z"/>
						<path class="st1" d="M41.3,41c-0.3-0.5-0.1-1.1,0.4-1.4l0,0c0.5-0.3,1.1-0.1,1.4,0.4l0,0c0.3,0.5,0.1,1.1-0.4,1.4l0,0
							c-0.2,0.1-0.3,0.1-0.5,0.1l0,0C41.8,41.5,41.5,41.3,41.3,41z"/>
						<path class="st1" d="M48.5,37.8c-0.1,0-0.3,0-0.4-0.1c-0.1,0-0.2-0.1-0.3-0.2c-0.1-0.1-0.2-0.2-0.2-0.3s-0.1-0.2-0.1-0.4
							c0-0.3,0.1-0.5,0.3-0.7c0.1-0.1,0.2-0.2,0.3-0.2c0.2-0.1,0.4-0.1,0.6-0.1c0.1,0,0.1,0,0.2,0.1c0.1,0,0.1,0,0.2,0.1
							c0.1,0,0.1,0.1,0.1,0.1c0.1,0.1,0.2,0.2,0.2,0.3s0.1,0.2,0.1,0.4s0,0.3-0.1,0.4c-0.1,0.1-0.1,0.2-0.2,0.3l-0.1,0.1
							c0,0-0.1,0.1-0.2,0.1c-0.1,0-0.1,0-0.2,0.1C48.6,37.8,48.5,37.8,48.5,37.8z"/>
					</g>
					<g>
						<g>
							<polygon class="st2" points="64.4,52.9 58.6,49.5 58.6,32.1 64.4,35.4 							"/>
							<path class="st3" d="M64.4,53.9c-0.2,0-0.3,0-0.5-0.1l-5.8-3.4c-0.3-0.2-0.5-0.5-0.5-0.9V32.1c0-0.4,0.2-0.7,0.5-0.9
								c0.3-0.2,0.7-0.2,1,0l5.8,3.4c0.3,0.2,0.5,0.5,0.5,0.9v17.4c0,0.4-0.2,0.7-0.5,0.9C64.7,53.8,64.6,53.9,64.4,53.9z
								 M59.6,48.9l3.8,2.2V36l-3.8-2.2V48.9z"/>
						</g>
						<g>
							<polygon class="st4" points="69.4,8.4 63.6,5 53,35.3 58.8,38.7 							"/>
							<path class="st3" d="M58.8,39.7c-0.2,0-0.3,0-0.5-0.1l-5.8-3.4c-0.4-0.2-0.6-0.7-0.4-1.2L62.7,4.7c0.1-0.3,0.3-0.5,0.6-0.6
								c0.2-0.1,0.6-0.1,0.8,0l5.8,3.4c0.4,0.2,0.6,0.7,0.4,1.2L59.7,39c-0.1,0.3-0.3,0.5-0.6,0.6C59,39.6,58.9,39.7,58.8,39.7z
								 M54.2,34.8l4.1,2.3l10-28.4l-4.1-2.3L54.2,34.8z"/>
						</g>
						<polygon class="st4" points="69.2,19.2 75,22.6 69.4,25.8 63.6,22.4 						"/>
						<g>
							<polygon class="st3" points="75,22.6 69.4,25.8 69.4,8.4 58.8,38.7 64.4,35.4 64.4,52.9 							"/>
							<path class="st3" d="M64.4,53.9c-0.1,0-0.1,0-0.2,0c-0.5-0.1-0.8-0.5-0.8-1V37.2l-4.1,2.4c-0.4,0.2-0.8,0.2-1.1-0.1
								s-0.4-0.7-0.3-1.1L68.5,8c0.2-0.5,0.6-0.7,1.1-0.7c0.5,0.1,0.8,0.5,0.8,1V24l4.1-2.4c0.4-0.2,0.8-0.2,1.1,0.1
								s0.4,0.7,0.3,1.1L65.3,53.2C65.2,53.6,64.8,53.9,64.4,53.9z M64.4,34.4c0.2,0,0.3,0,0.5,0.1c0.3,0.2,0.5,0.5,0.5,0.9V47
								l7.8-22.2l-3.3,1.9c-0.3,0.2-0.7,0.2-1,0s-0.5-0.5-0.5-0.9V14.2l-7.8,22.2l3.3-1.9C64,34.5,64.2,34.4,64.4,34.4z"/>
						</g>
						<path class="st0" d="M64.4,53.9c-0.2,0-0.3,0-0.5-0.1l-5.8-3.4c-0.3-0.2-0.5-0.5-0.5-0.9V39.1l-5.1-2.9
							c-0.4-0.2-0.6-0.7-0.4-1.2L62.7,4.7c0.1-0.3,0.3-0.5,0.6-0.6c0.2-0.1,0.6-0.1,0.8,0l5.8,3.4c0.3,0.2,0.5,0.5,0.5,0.9v10.4
							l5.1,2.9c0.4,0.2,0.6,0.7,0.4,1.2L65.3,53.2c-0.1,0.3-0.3,0.5-0.6,0.6C64.6,53.8,64.5,53.9,64.4,53.9z M59.6,48.9l4.3,2.5
							l10-28.4L69,20.2c-0.3-0.2-0.5-0.5-0.5-0.9V8.9l-4.3-2.5l-10,28.4l4.9,2.8c0.3,0.2,0.5,0.5,0.5,0.9
							C59.6,38.5,59.6,48.9,59.6,48.9z"/>
					</g>
					<g>
						<g>
							<path class="st5" d="M105.7,87.6L66.3,64.9c-1.4-0.8-3.8-0.8-5.2,0L21.6,87.7l-8.5-0.2v6c0,0.5,0.4,1.1,1.1,1.5l47.5,27.4
								c1.4,0.8,3.8,0.8,5.2,0l46.9-27.1c0.7-0.4,1.1-1,1.1-1.5v-6L105.7,87.6z"/>
							<path class="st4" d="M64.3,124c-1.1,0-2.2-0.3-3.1-0.8L13.7,95.8c-1-0.6-1.6-1.4-1.6-2.4v-6c0-0.3,0.1-0.5,0.3-0.7
								s0.5-0.3,0.7-0.3l8.2,0.2L60.6,64c1.7-1,4.5-1,6.2,0L106,86.6l9,0.2c0.5,0,1,0.5,1,1v6c0,0.9-0.6,1.8-1.6,2.4l-46.9,27.1
								C66.5,123.7,65.4,124,64.3,124z M14.1,88.5v5c0,0.1,0.2,0.4,0.6,0.6l47.5,27.4c1.1,0.6,3.1,0.7,4.2,0l46.9-27.1
								c0.4-0.2,0.6-0.5,0.6-0.6v-5l-8.2-0.2c-0.2,0-0.3,0-0.5-0.1L65.8,65.7c-1.1-0.6-3.1-0.7-4.2,0L22.1,88.5
								c-0.2,0.1-0.3,0.1-0.5,0.1L14.1,88.5z"/>
						</g>
						<path class="st6" d="M68.5,66.1L64.3,123c1,0,1.9-0.2,2.6-0.6l46.9-27.1c0.7-0.4,1.1-1,1.1-1.5v-6l-9.2-0.2L68.5,66.1z"/>
						<g>
							<path class="st5" d="M113.8,89.3l-46.9,27.1c-1.4,0.8-3.8,0.8-5.2,0L14.2,89c-1.4-0.8-1.4-2.2,0-3l46.9-27.1
								c1.4-0.8,3.8-0.8,5.2,0l47.5,27.4C115.2,87.1,115.2,88.5,113.8,89.3z"/>
							<path class="st4" d="M64.3,118c-1.1,0-2.2-0.3-3.1-0.8L13.7,89.8c-1-0.6-1.6-1.4-1.6-2.4c0-0.9,0.6-1.8,1.6-2.4l46.9-27
								c1.7-1,4.5-1,6.2,0l47.5,27.4c1,0.6,1.6,1.4,1.6,2.4c0,0.9-0.6,1.8-1.6,2.4l0,0l-46.9,27.1C66.5,117.8,65.4,118,64.3,118z
								 M63.7,59.3c-0.8,0-1.5,0.2-2.1,0.5l-46.9,27c-0.4,0.2-0.6,0.5-0.6,0.6s0.2,0.4,0.6,0.6l47.5,27.4c1.1,0.6,3.1,0.7,4.2,0
								l46.9-27.1l0,0c0.4-0.2,0.6-0.5,0.6-0.6s-0.2-0.4-0.6-0.6L65.8,59.7C65.3,59.4,64.5,59.3,63.7,59.3z M113.8,89.3L113.8,89.3
								L113.8,89.3z"/>
						</g>
						<path class="st1" d="M64.3,124L64.3,124c-1.2,0-2.3-0.3-3.1-0.8L13.7,95.8c-1-0.6-1.6-1.4-1.6-2.4v-6c0-0.9,0.6-1.8,1.6-2.4
							l46.9-27c1.7-1,4.5-1,6.2,0l47.5,27.4c1,0.6,1.6,1.4,1.6,2.4v6c0,0.9-0.6,1.8-1.6,2.4l-46.9,27.1c-0.2,0.1-0.5,0.2-0.7,0.3
							h-0.1c-0.2,0.1-0.4,0.1-0.6,0.2C65.4,123.9,64.8,124,64.3,124z M63.7,59.3c-0.8,0-1.5,0.2-2.1,0.5l-46.9,27
							c-0.4,0.2-0.6,0.5-0.6,0.6v6c0,0.1,0.2,0.4,0.6,0.6l47.5,27.4c0.5,0.3,1.3,0.5,2.1,0.5l0,0c0.4,0,0.8,0,1.1-0.1
							c0.2,0,0.3-0.1,0.5-0.1H66c0.1,0,0.3-0.1,0.4-0.2l46.9-27.1c0.4-0.2,0.6-0.5,0.6-0.6v-6c0-0.1-0.2-0.4-0.6-0.6l0,0L65.8,59.7
							C65.3,59.4,64.5,59.3,63.7,59.3z"/>
						<g>
							<polygon class="st6" points="33.2,90.8 31.3,91.8 24.1,87.6 25.9,86.6 							"/>
							<polygon class="st6" points="49.5,81.3 47.7,82.4 40.4,78.2 42.2,77.1 							"/>
							<path class="st6" d="M33.2,82.4c-2,1.2-2,3,0,4.2s5.3,1.2,7.3,0s2-3,0-4.2C38.4,81.2,35.2,81.2,33.2,82.4z M38.7,85.6
								c-1.1,0.6-2.8,0.6-3.8,0c-1.1-0.6-1.1-1.6,0-2.2s2.8-0.6,3.8,0C39.8,84,39.8,85,38.7,85.6z"/>
							<polygon class="st6" points="44.2,97 42.3,98.1 35.1,93.9 36.9,92.8 							"/>
							<path class="st6" d="M89.4,83.5c2-1.2,2-3,0-4.2s-5.3-1.2-7.3,0s-2,3,0,4.2S87.4,84.7,89.4,83.5z M83.8,80.3
								c1.1-0.6,2.8-0.6,3.8,0c1.1,0.6,1.1,1.6,0,2.2s-2.8,0.6-3.8,0S82.8,80.9,83.8,80.3z"/>
							<polygon class="st6" points="55.1,103.3 53.2,104.4 46,100.2 47.8,99.1 							"/>
							<polygon class="st6" points="63.7,90.7 65.5,89.7 72.7,93.9 70.9,94.9 							"/>
							<path class="st6" d="M55.1,94.9c-2,1.2-2,3,0,4.2s5.3,1.2,7.3,0c2-1.2,2-3,0-4.2C60.3,93.8,57.1,93.8,55.1,94.9z M60.6,98.1
								c-1.1,0.6-2.8,0.6-3.8,0c-1.1-0.6-1.1-1.6,0-2.2s2.8-0.6,3.8,0C61.7,96.5,61.7,97.5,60.6,98.1z"/>
							<path class="st6" d="M80,89.7c2-1.2,2-3,0-4.2s-5.3-1.2-7.3,0s-2,3,0,4.2C74.7,90.8,78,90.8,80,89.7z M74.5,86.5
								c1.1-0.6,2.8-0.6,3.8,0c1.1,0.6,1.1,1.6,0,2.2s-2.8,0.6-3.8,0C73.4,88.1,73.4,87.1,74.5,86.5z"/>
							<polygon class="st6" points="94.8,84.5 96.7,83.5 103.9,87.7 102.1,88.7 							"/>
							<path class="st6" d="M94.8,92.9c2-1.2,2-3,0-4.2s-5.3-1.2-7.3,0s-2,3,0,4.2C89.6,94.1,92.8,94.1,94.8,92.9z M89.3,89.7
								c1.1-0.6,2.8-0.6,3.8,0c1.1,0.6,1.1,1.6,0,2.2s-2.8,0.6-3.8,0C88.2,91.3,88.2,90.3,89.3,89.7z"/>
							<polygon class="st6" points="76.7,103.4 74.9,104.5 67.6,100.3 69.4,99.2 							"/>
							<path class="st6" d="M76.7,95c-2,1.2-2,3,0,4.2s5.3,1.2,7.3,0s2-3,0-4.2C81.9,93.9,78.7,93.9,76.7,95z M82.2,98.2
								c-1.1,0.6-2.8,0.6-3.8,0c-1.1-0.6-1.1-1.6,0-2.2s2.8-0.6,3.8,0C83.3,96.6,83.3,97.6,82.2,98.2z"/>
							<path class="st6" d="M60.5,104.4c-2,1.2-2,3,0,4.2s5.3,1.2,7.3,0s2-3,0-4.2C65.8,103.2,62.5,103.2,60.5,104.4z M66.1,107.6
								c-1.1,0.6-2.8,0.6-3.8,0c-1.1-0.6-1.1-1.6,0-2.2s2.8-0.6,3.8,0S67.1,107,66.1,107.6z"/>
							<path class="st6" d="M49.4,73c-2,1.2-2,3,0,4.2s5.3,1.2,7.3,0s2-3,0-4.2C54.7,71.9,51.4,71.9,49.4,73z M55,76.2
								c-1.1,0.6-2.8,0.6-3.8,0c-1.1-0.6-1.1-1.6,0-2.2s2.8-0.6,3.8,0S56,75.6,55,76.2z"/>
							<path class="st6" d="M60.3,66.7c-2,1.2-2,3,0,4.2s5.3,1.2,7.3,0s2-3,0-4.2C65.6,65.6,62.3,65.6,60.3,66.7z M65.9,69.9
								c-1.1,0.6-2.8,0.6-3.8,0c-1.1-0.6-1.1-1.6,0-2.2s2.8-0.6,3.8,0S66.9,69.3,65.9,69.9z"/>
							<polygon class="st6" points="71.1,81.5 69.3,82.5 62,78.3 63.9,77.3 							"/>
							<path class="st6" d="M71.1,73.1c-2,1.2-2,3,0,4.2s5.3,1.2,7.3,0s2-3,0-4.2S73.1,71.9,71.1,73.1z M76.7,76.3
								c-1.1,0.6-2.8,0.6-3.8,0c-1.1-0.6-1.1-1.6,0-2.2s2.8-0.6,3.8,0C77.7,74.7,77.7,75.7,76.7,76.3z"/>
							<path class="st6" d="M44.1,88.7c-2,1.2-2,3,0,4.2s5.3,1.2,7.3,0s2-3,0-4.2C49.3,87.5,46.1,87.5,44.1,88.7z M49.6,91.9
								c-1.1,0.6-2.8,0.6-3.8,0c-1.1-0.6-1.1-1.6,0-2.2s2.8-0.6,3.8,0C50.7,90.3,50.7,91.3,49.6,91.9z"/>
							<path class="st6" d="M55,82.4c-2,1.2-2,3,0,4.2s5.3,1.2,7.3,0c2-1.2,2-3,0-4.2C60.2,81.2,57,81.2,55,82.4z M60.5,85.6
								c-1.1,0.6-2.8,0.6-3.8,0c-1.1-0.6-1.1-1.6,0-2.2s2.8-0.6,3.8,0C61.6,84,61.6,85,60.5,85.6z"/>
						</g>
					</g>
				</g>
				<rect x="4" y="4" class="st7" width="120" height="120"/>
				<rect x="4" y="4" class="st7" width="120" height="120"/>
			</g>
		</g>
	</g>
	<g>
		<rect class="st7" width="128" height="128"/>
	</g>
</g>
</svg>
