<?xml version="1.0" encoding="utf-8"?>
<!-- Generator: Adobe Illustrator 24.1.0, SVG Export Plug-In . SVG Version: 6.00 Build 0)  -->
<svg version="1.1" id="Layer_1" xmlns="http://www.w3.org/2000/svg" xmlns:xlink="http://www.w3.org/1999/xlink" x="0px" y="0px"
	 viewBox="0 0 128 128" style="enable-background:new 0 0 128 128;" xml:space="preserve">
<style type="text/css">
	.st0{fill:#4D9987;}
	.st1{fill:#C4D7D3;}
	.st2{fill:#FFFFFF;}
	.st3{fill:#27ae60;}
	.st4{fill:#185849;}
	.st5{fill:#0E352C;}
	.st6{fill:#E9EBDF;}
	.st7{fill:none;}
</style>
<g id="Layer_1_1_">
</g>
<g>
	<g id="Layer_2_1_">
		<g id="New_Icon_Set_1_">
			<g>
				<g>
					<g>
						<path class="st0" d="M15.4,74l1.7-3.9l-1.2,2.3c-2.5-3.2-4-8-4-14.1c0-0.5,0-1,0-1.5l1.5,0.7l3.4-18.3l1.2-1.8l-6.1-3.5
							C7.6,42.9,5,53,5,62.3C5,73.6,8.8,81.6,14.7,85l0,0l5.8,3.4l0.1-0.4L15.4,74z"/>
						<path class="st1" d="M62.1,31c0-0.2-0.4-0.2-1.1-0.1c0-0.3,0-0.7,0-1c0-7.6-1.7-13.7-4.7-17.9l0.8-1.4l-5.8-3.4l0,0
							C46.5,4.4,40.1,4.7,33,8.7c-15.4,9-28,33-28,53.6C5,73.6,8.8,81.6,14.7,85l0,0l5.8,3.4l0.6-1.5C24.7,87,28.8,86,33,83.5
							c3.1-1.8,6.2-4.3,9-7.2c0.1,0.3,0.2,0.5,0.2,0.5s6.2-2,6.9-2.5c0.7-0.6,13.7-28.1,14-31C63.5,40.5,62.1,31.7,62.1,31z
							 M15.9,72.5c-2.5-3.2-4-8-4-14.1c0-0.5,0-1,0-1.5l1.5,0.7l3.4-18.3l11.1-16.8v-0.7c1.6-1.5,3.3-2.8,5.1-3.8
							c4.6-2.7,8.9-3.1,12.3-1.8L15.9,72.5z M33,74.3c-2.9,1.7-5.6,2.5-8.1,2.5l7.5-19.7c0.2,0,0.2-0.1,0.3-0.1
							c0.1-0.3,14.4-26.1,14.4-26.1v-2.5l4.1-7.2c1.9,3.1,3,7.4,3,12.7C54.2,49.5,44.7,67.6,33,74.3z"/>
						<path class="st2" d="M49,55.3c-3.9,8.2-9.6,15.3-16,19c-2.7,1.6-5.3,2.4-7.7,2.5L23.5,80l7.7,4.5c0.6-0.3,1.2-0.6,1.8-0.9
							c3.1-1.8,6.2-4.3,9-7.2c0.1,0.3,0.2,0.5,0.2,0.5s6.2-2,6.9-2.5c0.3-0.3,3.8-7.4,7.2-14.7L49,55.3z"/>
						<path class="st2" d="M51.4,7.3C46.5,4.4,40.1,4.7,33,8.7C24.6,13.6,17,23,11.9,33.9l6.1,3.5l10-15v-0.7
							c1.6-1.5,3.3-2.8,5.1-3.8c3.5-2,6.8-2.8,9.7-2.4l12.7-5.9L51.4,7.3L51.4,7.3z"/>
						<g>
							<path class="st3" d="M38.9,12.1c-15.5,8.9-28,32.9-28,53.6c0,20.6,12.6,30.1,28,21.2s28-32.9,28-53.6S54.4,3.2,38.9,12.1z"/>
							<path class="st3" d="M27.7,91.2c-2.8,0-5.4-0.7-7.7-2C13.5,85.5,9.8,76.9,9.8,65.7c0-20.9,12.8-45.4,28.5-54.4l0,0
								c7.1-4.1,13.9-4.6,19.3-1.5c6.5,3.7,10.2,12.3,10.2,23.5c0,20.9-12.8,45.4-28.5,54.4C35.3,90.1,31.4,91.2,27.7,91.2z
								 M39.4,13c-15.2,8.8-27.5,32.4-27.5,52.7c0,10.5,3.4,18.4,9.2,21.8c4.8,2.8,10.9,2.2,17.3-1.5c15.2-8.8,27.5-32.4,27.5-52.7
								c0-10.5-3.4-18.4-9.2-21.8C52,8.7,45.8,9.3,39.4,13L39.4,13z"/>
						</g>
						<path class="st1" d="M27.7,91.2c-2.8,0-5.4-0.7-7.7-2C13.5,85.5,9.8,76.9,9.8,65.7c0-20.9,12.8-45.4,28.5-54.4l0,0
							c7.1-4.1,13.9-4.6,19.3-1.5c6.5,3.7,10.2,12.3,10.2,23.5c0,20.9-12.8,45.4-28.5,54.4C35.3,90.1,31.4,91.2,27.7,91.2z M39.4,13
							c-15.2,8.8-27.5,32.4-27.5,52.7c0,10.5,3.4,18.4,9.2,21.8c4.8,2.8,10.9,2.2,17.3-1.5c15.2-8.8,27.5-32.4,27.5-52.7
							c0-10.5-3.4-18.4-9.2-21.8C52,8.7,45.8,9.3,39.4,13L39.4,13z"/>
						<path class="st4" d="M27.7,91.2c-2.7,0-5.3-0.6-7.6-1.9c0,0-0.1,0-0.1-0.1l-5.8-3.4l-0.1-0.1C7.7,82,4,73.4,4,62.3
							c0-0.6,0-1.3,0-1.9v-0.7c0-0.4,0-0.8,0.1-1.2c0-0.2,0-0.4,0-0.6v-0.2c0-0.4,0.1-0.7,0.1-1.1c0-0.3,0.1-0.5,0.1-0.8
							c0-0.4,0.1-0.7,0.1-1.1c0-0.3,0.1-0.7,0.1-1s0.1-0.6,0.1-0.9c0.1-0.4,0.1-0.7,0.2-1.1c0-0.3,0.1-0.5,0.2-0.8
							c0.1-0.4,0.2-0.8,0.2-1.1l0.2-0.7c0.1-0.4,0.2-0.8,0.3-1.3l0.1-0.5c2.7-10.6,7.8-20.9,14.4-28.9l0.2-0.3
							c0.4-0.4,0.7-0.9,1.1-1.3l0.4-0.4c0.3-0.4,0.7-0.7,1-1.1l0.4-0.4c0.4-0.4,0.7-0.7,1-1c0.2-0.2,0.3-0.3,0.5-0.5
							c0.3-0.3,0.6-0.6,0.9-0.9c0.2-0.2,0.4-0.3,0.5-0.5c0.3-0.3,0.6-0.5,0.9-0.8l0.6-0.5c0.3-0.3,0.6-0.5,1-0.7l0.2-0.1
							c0.1-0.1,0.3-0.2,0.4-0.3c0.3-0.2,0.7-0.5,1-0.7L30.7,9c0.1,0,0.2-0.1,0.3-0.2c0.5-0.3,1-0.7,1.6-1c7-4,13.8-4.6,19.2-1.5
							c0,0,0.1,0,0.1,0.1l5.8,3.4l0.1,0.1c6.4,3.8,10.1,12.3,10.1,23.5c0,20.9-12.8,45.4-28.5,54.4C35.4,90.1,31.4,91.2,27.7,91.2z
							 M20.9,87.4c0,0,0.1,0,0.1,0.1c4.8,2.8,10.9,2.2,17.3-1.5c15.2-8.8,27.5-32.4,27.5-52.7c0-10.5-3.4-18.4-9.2-21.8l-0.1-0.1
							L51,8.2c0,0-0.1,0-0.1-0.1C46.1,5.4,40,5.9,33.5,9.6c-0.5,0.3-1,0.6-1.5,0.9l-0.5,0.3c-0.3,0.2-0.7,0.4-1,0.7
							c-0.1,0.1-0.2,0.2-0.4,0.3l-0.2,0.1c-0.3,0.2-0.6,0.5-0.9,0.7L28.6,13c-0.3,0.2-0.6,0.5-0.9,0.7c-0.2,0.1-0.3,0.3-0.5,0.5
							c-0.3,0.3-0.6,0.5-0.9,0.8c-0.2,0.2-0.3,0.3-0.5,0.5c-0.3,0.3-0.6,0.6-0.9,0.9l-0.4,0.4c-0.3,0.3-0.6,0.7-1,1l-0.3,0.4
							c-0.4,0.4-0.7,0.8-1.1,1.2l-0.2,0.3c-6.4,7.8-11.4,17.7-14,28.1l-0.1,0.5c-0.1,0.4-0.2,0.8-0.3,1.2l-0.1,0.7
							c-0.1,0.4-0.2,0.7-0.2,1.1L7,52.1c-0.1,0.3-0.1,0.7-0.2,1c0,0.3-0.1,0.6-0.1,0.9c0,0.3-0.1,0.6-0.1,1c0,0.3-0.1,0.6-0.1,1
							s-0.1,0.6-0.1,0.9c0,0.3-0.1,0.7-0.1,1v0.2c0,0.2,0,0.4,0,0.6c0,0.4,0,0.8-0.1,1.2v0.6c0,0.6,0,1.2,0,1.8
							c0,10.5,3.4,18.4,9.2,21.8l0.1,0.1L20.9,87.4z"/>
						<path class="st2" d="M29.8,81.9c-7.8,0-12.9-7.5-12.9-19.2c0-16.6,10.1-35.9,22.5-43c3-1.7,5.9-2.6,8.6-2.6
							c7.8,0,12.9,7.5,12.9,19.2c0,16.6-10.1,35.9-22.5,43C35.4,81,32.5,81.9,29.8,81.9L29.8,81.9z"/>
					</g>
					<g>
						<path class="st5" d="M97.8,35.1c-0.1,0-0.3,0-0.4-0.1c-0.1,0-0.2-0.1-0.3-0.2c-0.1-0.1-0.2-0.2-0.2-0.3
							c-0.1-0.1-0.1-0.2-0.1-0.4c0-0.1,0-0.1,0-0.2c0-0.1,0-0.1,0.1-0.2c0-0.1,0.1-0.1,0.1-0.2c0,0,0.1-0.1,0.1-0.2
							c0.1-0.1,0.2-0.2,0.3-0.2c0.2-0.1,0.5-0.1,0.8,0c0.1,0,0.2,0.1,0.3,0.2c0.2,0.2,0.3,0.4,0.3,0.7c0,0.1,0,0.3-0.1,0.4
							c-0.1,0.1-0.1,0.2-0.2,0.3s-0.2,0.2-0.3,0.2C98.1,35.1,98,35.1,97.8,35.1z"/>
						<path class="st5" d="M92.2,32c-0.5-0.3-0.6-0.9-0.4-1.4l0,0c0.3-0.5,0.9-0.6,1.4-0.4l0,0c0.5,0.3,0.6,0.9,0.4,1.4l0,0
							c-0.2,0.3-0.5,0.5-0.9,0.5l0,0C92.5,32.1,92.3,32.1,92.2,32z M87,29c-0.5-0.3-0.6-0.9-0.4-1.4l0,0c0.3-0.5,0.9-0.6,1.4-0.4
							l0,0c0.5,0.3,0.6,0.9,0.4,1.4l0,0c-0.2,0.3-0.5,0.5-0.9,0.5l0,0C87.3,29.1,87.2,29.1,87,29z M81.8,26
							c-0.5-0.3-0.6-0.9-0.4-1.4l0,0c0.3-0.5,0.9-0.6,1.4-0.4l0,0c0.5,0.3,0.6,0.9,0.4,1.4l0,0c-0.2,0.3-0.5,0.5-0.9,0.5l0,0
							C82.2,26.1,82,26.1,81.8,26z M76.7,23c-0.5-0.3-0.6-0.9-0.4-1.4l0,0c0.3-0.5,0.9-0.6,1.4-0.4l0,0c0.5,0.3,0.6,0.9,0.4,1.4l0,0
							c-0.2,0.3-0.5,0.5-0.9,0.5l0,0C77,23.1,76.8,23.1,76.7,23z M71.5,20c-0.5-0.3-0.7-0.9-0.4-1.4l0,0c0.3-0.5,0.9-0.6,1.4-0.4
							l0,0c0.5,0.3,0.6,0.9,0.4,1.4l0,0c-0.2,0.3-0.5,0.5-0.9,0.5l0,0C71.8,20.2,71.7,20.1,71.5,20z"/>
						<path class="st5" d="M66.8,17.2c-0.1,0-0.3,0-0.4-0.1c-0.1,0-0.2-0.1-0.3-0.2c-0.1-0.1-0.2-0.2-0.2-0.3
							c-0.1-0.1-0.1-0.2-0.1-0.4c0-0.3,0.1-0.5,0.3-0.7c0.1-0.1,0.2-0.2,0.3-0.2c0.4-0.1,0.8-0.1,1.1,0.2l0.1,0.1
							c0,0,0.1,0.1,0.1,0.2c0,0.1,0,0.1,0.1,0.2c0,0.1,0,0.1,0,0.2s0,0.3-0.1,0.4s-0.1,0.2-0.2,0.3c-0.1,0.1-0.2,0.2-0.3,0.2
							C67.1,17.2,67,17.2,66.8,17.2z"/>
					</g>
					<g>
						<path class="st4" d="M61.1,112.8c-0.1,0-0.3,0-0.4-0.1c-0.1,0-0.2-0.1-0.3-0.2s-0.2-0.2-0.2-0.3c0-0.1-0.1-0.2-0.1-0.4
							s0-0.3,0.1-0.4s0.1-0.2,0.2-0.3c0.1-0.1,0.2-0.2,0.3-0.2c0.4-0.2,0.8-0.1,1.1,0.2c0.1,0.1,0.2,0.2,0.2,0.3
							c0,0.1,0.1,0.3,0.1,0.4s0,0.3-0.1,0.4s-0.1,0.2-0.2,0.3C61.7,112.7,61.4,112.8,61.1,112.8z"/>
						<path class="st4" d="M55.5,109.7c-0.5-0.3-0.6-0.9-0.4-1.4l0,0c0.3-0.5,0.9-0.6,1.4-0.4l0,0c0.5,0.3,0.6,0.9,0.4,1.4l0,0
							c-0.2,0.3-0.5,0.5-0.9,0.5l0,0C55.8,109.8,55.6,109.8,55.5,109.7z M50.3,106.7c-0.5-0.3-0.6-0.9-0.4-1.4l0,0
							c0.3-0.5,0.9-0.6,1.4-0.4l0,0c0.5,0.3,0.6,0.9,0.4,1.4l0,0c-0.2,0.3-0.5,0.5-0.9,0.5l0,0C50.6,106.8,50.5,106.8,50.3,106.7z
							 M45.1,103.7c-0.5-0.3-0.6-0.9-0.4-1.4l0,0c0.3-0.5,0.9-0.6,1.4-0.4l0,0c0.5,0.3,0.6,0.9,0.4,1.4l0,0
							c-0.2,0.3-0.5,0.5-0.9,0.5l0,0C45.5,103.9,45.3,103.8,45.1,103.7z M40,100.7c-0.5-0.3-0.6-0.9-0.4-1.4l0,0
							c0.3-0.5,0.9-0.7,1.4-0.4l0,0c0.5,0.3,0.6,0.9,0.4,1.4l0,0c-0.2,0.3-0.5,0.5-0.9,0.5l0,0C40.3,100.9,40.1,100.8,40,100.7z
							 M34.8,97.8c-0.5-0.3-0.6-0.9-0.4-1.4l0,0c0.3-0.5,0.9-0.6,1.4-0.4l0,0c0.5,0.3,0.6,0.9,0.4,1.4l0,0c-0.2,0.3-0.5,0.5-0.9,0.5
							l0,0C35.1,97.9,35,97.9,34.8,97.8z"/>
						<path class="st4" d="M30.1,94.9c-0.3,0-0.5-0.1-0.7-0.3c-0.2-0.2-0.3-0.4-0.3-0.7c0-0.1,0-0.1,0-0.2s0-0.1,0.1-0.2
							c0-0.1,0-0.1,0.1-0.2c0,0,0.1-0.1,0.1-0.2l0.1-0.1c0.1,0,0.1-0.1,0.2-0.1s0.1,0,0.2-0.1c0.3-0.1,0.7,0,0.9,0.3
							c0.1,0,0.1,0.1,0.1,0.2s0.1,0.1,0.1,0.2s0,0.1,0.1,0.2c0,0.1,0,0.1,0,0.2c0,0.3-0.1,0.5-0.3,0.7
							C30.7,94.8,30.4,94.9,30.1,94.9z"/>
					</g>
					<g>
						<g>
							<path class="st0" d="M38.9,56.5L38.9,56.5c-1.4,0.8-2.6-0.1-2.6-2V33.8c0-1.9,1.2-4.2,2.6-5l0,0c1.4-0.8,2.6,0.1,2.6,2v20.7
								C41.5,53.4,40.3,55.7,38.9,56.5z"/>
							<path class="st0" d="M37.8,57.3c-0.3,0-0.6-0.1-0.9-0.2c-0.7-0.4-1.2-1.4-1.2-2.6V33.8c0-2.1,1.3-4.5,2.9-5.4
								c0.8-0.5,1.6-0.5,2.2-0.1c0.7,0.4,1.2,1.4,1.2,2.6v20.7c0,2.1-1.3,4.5-2.9,5.4l0,0C38.7,57.2,38.2,57.3,37.8,57.3z
								 M38.9,56.5L38.9,56.5L38.9,56.5z M39.9,29c-0.3,0-0.6,0.1-0.8,0.2c-1.3,0.7-2.4,2.8-2.4,4.6v20.7c0,0.8,0.2,1.4,0.7,1.7
								c0.4,0.2,0.9,0.1,1.2-0.1l0,0c1.3-0.7,2.4-2.8,2.4-4.6V30.8c0-0.8-0.2-1.4-0.7-1.7C40.2,29,40.1,29,39.9,29z"/>
						</g>
						<g>
							
								<ellipse transform="matrix(0.3916 -0.9201 0.9201 0.3916 -37.6686 76.3582)" class="st0" cx="38.9" cy="66.7" rx="4" ry="2.3"/>
							<path class="st0" d="M37.8,71c-0.3,0-0.6-0.1-0.9-0.2c-0.7-0.4-1.2-1.4-1.2-2.6c0-2.1,1.3-4.5,2.9-5.4
								c0.8-0.5,1.6-0.5,2.2-0.1C41.6,63,42,64,42,65.2c0,2.1-1.3,4.5-2.9,5.4C38.7,70.9,38.2,71,37.8,71z M39.9,63.4
								c-0.3,0-0.6,0.1-0.8,0.2c-1.3,0.7-2.4,2.8-2.4,4.6c0,0.8,0.2,1.5,0.7,1.7c0.4,0.2,0.9,0.1,1.2-0.1c1.3-0.7,2.4-2.8,2.4-4.6
								c0-0.8-0.2-1.4-0.7-1.7C40.2,63.4,40.1,63.4,39.9,63.4z"/>
						</g>
					</g>
					<g>
						<path class="st0" d="M71.5,106.4l1.7-3.9l-1.2,2.3c-2.5-3.2-4-8-4-14.1c0-0.5,0-1,0-1.5l1.5,0.7l3.4-18.3l1.2-1.8L68,66.3
							c-4.3,9-6.9,19.1-6.9,28.4c0,11.3,3.8,19.2,9.7,22.7l0,0l5.8,3.4l0.1-0.4L71.5,106.4z"/>
						<path class="st6" d="M118.2,63.4c0-0.2-0.4-0.2-1.1-0.1c0-0.3,0-0.7,0-1c0-7.6-1.7-13.7-4.7-17.9l0.8-1.4l-5.8-3.4l0,0
							c-4.9-2.8-11.3-2.6-18.3,1.5c-15.5,8.9-28,32.9-28,53.6c0,11.3,3.8,19.2,9.7,22.7l0,0l5.8,3.4l0.6-1.5
							c3.6,0.2,7.7-0.9,11.9-3.3c3.1-1.8,6.2-4.3,9-7.2c0.1,0.3,0.2,0.5,0.2,0.5s6.2-2,6.9-2.5c0.7-0.6,13.7-28.1,14-31
							S118.2,64.1,118.2,63.4z M72,104.8c-2.5-3.2-4-8-4-14.1c0-0.5,0-1,0-1.5l1.5,0.7l3.4-18.3L84,54.8v-0.7
							c1.6-1.5,3.3-2.8,5.1-3.8c4.6-2.7,8.9-3.1,12.3-1.8L72,104.8z M89.1,106.7c-2.9,1.7-5.6,2.5-8.1,2.5l7.5-19.7
							c0.2,0,0.2-0.1,0.3-0.1c0.1-0.3,14.4-26.1,14.4-26.1v-2.5l4.1-7.2c1.9,3.1,3,7.4,3,12.7C110.3,81.9,100.8,99.9,89.1,106.7z"/>
						<path class="st2" d="M105.1,87.7c-3.9,8.2-9.6,15.3-16,19c-2.7,1.6-5.3,2.4-7.7,2.5l-1.8,3.2l7.7,4.5c0.6-0.3,1.2-0.6,1.8-0.9
							c3.1-1.8,6.2-4.3,9-7.2c0.1,0.3,0.2,0.5,0.2,0.5s6.2-2,6.9-2.5c0.3-0.3,3.8-7.4,7.2-14.7L105.1,87.7z"/>
						<path class="st2" d="M107.5,39.6c-4.9-2.8-11.3-2.6-18.3,1.5C80.7,46,73.1,55.4,67.9,66.3l6.1,3.5l10-15v-0.7
							c1.6-1.5,3.3-2.8,5.1-3.8c3.5-2,6.8-2.8,9.7-2.4l12.7-5.9L107.5,39.6L107.5,39.6z"/>
						<path class="st2" d="M95,44.5c-15.5,8.9-28,32.9-28,53.6c0,20.6,12.6,30.1,28,21.2c15.5-8.9,28-32.9,28-53.6
							S110.4,35.5,95,44.5z"/>
						<path class="st1" d="M83.8,123.6c-2.8,0-5.4-0.7-7.7-2c-6.5-3.7-10.2-12.3-10.2-23.5c0-20.9,12.8-45.4,28.5-54.4l0,0
							c7.1-4.1,13.9-4.6,19.3-1.5c6.5,3.7,10.2,12.3,10.2,23.5c0,20.9-12.8,45.4-28.5,54.4C91.4,122.4,87.5,123.6,83.8,123.6z
							 M95.5,45.3C80.3,54.1,68,77.7,68,98c0,10.5,3.4,18.4,9.2,21.8c4.8,2.8,10.9,2.2,17.3-1.5C109.6,109.6,122,86,122,65.7
							c0-10.5-3.4-18.4-9.2-21.8C108,41.1,101.9,41.6,95.5,45.3L95.5,45.3z"/>
						<g>
							<path class="st0" d="M95,44.5c-15.5,8.9-28,32.9-28,53.6c0,20.6,12.6,30.1,28,21.2c15.5-8.9,28-32.9,28-53.6
								S110.4,35.5,95,44.5z"/>
							<path class="st6" d="M83.8,123.6c-2.8,0-5.4-0.7-7.7-2c-6.5-3.7-10.2-12.3-10.2-23.5c0-20.9,12.8-45.4,28.5-54.4l0,0
								c7.1-4.1,13.9-4.6,19.3-1.5c6.5,3.7,10.2,12.3,10.2,23.5c0,20.9-12.8,45.4-28.5,54.4C91.4,122.4,87.5,123.6,83.8,123.6z
								 M95.5,45.3C80.3,54.1,68,77.7,68,98c0,10.5,3.4,18.4,9.2,21.8c4.8,2.8,10.9,2.2,17.3-1.5C109.6,109.6,122,86,122,65.7
								c0-10.5-3.4-18.4-9.2-21.8C108,41.1,101.9,41.6,95.5,45.3L95.5,45.3z"/>
						</g>
						<path class="st5" d="M83.8,123.6c-2.7,0-5.3-0.6-7.6-1.9c0,0-0.1,0-0.1-0.1l-5.8-3.4l-0.1-0.1c-6.4-3.8-10.1-12.3-10.1-23.5
							c0-0.6,0-1.3,0-1.9V92c0-0.5,0-0.8,0.1-1.2c0-0.2,0-0.4,0-0.6V90c0-0.4,0.1-0.7,0.1-1.1c0-0.3,0.1-0.5,0.1-0.8v-0.2
							c0-0.3,0.1-0.7,0.1-1s0.1-0.7,0.1-1s0.1-0.6,0.1-0.9c0.1-0.4,0.1-0.7,0.2-1.1c0-0.3,0.1-0.5,0.2-0.8c0.1-0.4,0.2-0.8,0.2-1.1
							l0.2-0.7c0.1-0.4,0.2-0.8,0.3-1.3l0.1-0.5c2.7-10.6,7.8-20.9,14.4-28.9l0.2-0.3c0.4-0.4,0.7-0.9,1.1-1.3l0.4-0.4
							c0.3-0.4,0.7-0.7,1-1.1l0.4-0.5c0.3-0.3,0.6-0.6,1-1l0.6,0c0.3-0.3,0.6-0.6,0.9-0.9l0.5-0.5c0.3-0.3,0.6-0.5,0.9-0.8l0.2-0.1
							c0.1-0.1,0.3-0.2,0.4-0.3c0.3-0.3,0.6-0.5,1-0.7l0.2-0.1c0.1-0.1,0.3-0.2,0.4-0.3c0.3-0.2,0.7-0.5,1-0.7l0.5-0.3
							c0.5-0.3,1-0.7,1.6-1c7-4,13.8-4.6,19.2-1.5c0,0,0.1,0,0.1,0.1l5.8,3.4l0.1,0.1C120.3,46,124,54.5,124,65.7
							c0,20.9-12.8,45.4-28.5,54.4C91.4,122.4,87.5,123.6,83.8,123.6z M77,119.8C77,119.8,77.1,119.8,77,119.8
							c4.9,2.9,11,2.3,17.4-1.4C109.6,109.6,122,86,122,65.7c0-10.5-3.4-18.4-9.2-21.8l-0.1-0.1l-5.6-3.2c0,0-0.1,0-0.1-0.1
							c-4.8-2.8-10.9-2.2-17.3,1.5c-0.5,0.3-1,0.6-1.5,0.9l-0.5,0.3c-0.3,0.2-0.7,0.4-1,0.7c-0.1,0.1-0.2,0.2-0.4,0.3l-0.2,0.1
							c-0.3,0.2-0.6,0.5-0.9,0.7l-0.5,0.4c-0.3,0.2-0.6,0.5-0.9,0.7l-0.5,0.5c-0.3,0.3-0.6,0.5-0.9,0.8l-0.5,0.5
							c-0.3,0.3-0.6,0.6-0.9,0.9l-0.4,0.4c-0.3,0.3-0.6,0.7-1,1l-0.3,0.4c-0.4,0.4-0.7,0.8-1.1,1.2L78,52.2
							C71.6,60,66.6,69.9,64,80.3l-0.1,0.5c-0.1,0.4-0.2,0.8-0.3,1.2l-0.1,0.7c-0.1,0.4-0.2,0.7-0.2,1.1l-0.1,0.8
							c-0.1,0.3-0.1,0.7-0.2,1c0,0.3-0.1,0.6-0.1,0.9s-0.1,0.6-0.1,1c0,0.3-0.1,0.6-0.1,1l-0.1,0.9c0,0.3-0.1,0.7-0.1,1L62.2,91
							c0,0.4,0,0.8-0.1,1.1v0.7c0,0.6,0,1.2,0,1.8c0,10.5,3.4,18.4,9.2,21.8l0.1,0.1L77,119.8z"/>
						<g>
							<path class="st6" d="M73,94.6c0-16.2,9.8-35,22-42c5.1-2.9,9.7-3.3,13.4-1.6l-30.9,58.9C74.7,106.5,73,101.3,73,94.6z"/>
							<path class="st0" d="M77.5,110.8c-0.3,0-0.6-0.1-0.8-0.3c-3.2-3.6-4.8-9.1-4.8-15.9c0-16.5,10.1-35.7,22.5-42.9
								c5.2-3,10.2-3.6,14.3-1.7c0.3,0.1,0.4,0.3,0.5,0.6s0.1,0.5-0.1,0.8l-30.9,58.9c-0.2,0.3-0.4,0.5-0.8,0.5
								C77.6,110.8,77.6,110.8,77.5,110.8z M103.7,50.9c-2.5,0-5.3,0.8-8.2,2.5C83.6,60.2,74,78.7,74,94.6c0,5.6,1.2,10.2,3.4,13.4
								L107,51.4C105.9,51.1,104.8,50.9,103.7,50.9z"/>
						</g>
						<g>
							<path class="st6" d="M95,111.2c-5.1,2.9-9.7,3.3-13.4,1.6l30.9-58.9c2.9,3.3,4.6,8.5,4.6,15.3C117,85.4,107.1,104.2,95,111.2
								z"/>
							<path class="st0" d="M86.2,114.8c-1.8,0-3.5-0.4-5.1-1.1c-0.3-0.1-0.4-0.3-0.5-0.6c-0.1-0.3-0.1-0.5,0.1-0.8l30.9-58.9
								c0.2-0.3,0.4-0.5,0.8-0.5c0.3,0,0.7,0.1,0.9,0.3c3.2,3.6,4.8,9.1,4.8,15.9c0,16.5-10.1,35.7-22.5,42.9l0,0
								C92.3,113.9,89.1,114.8,86.2,114.8z M82.9,112.3c3.4,1.1,7.3,0.4,11.5-2C106.3,103.5,116,85,116,69.2
								c0-5.6-1.2-10.2-3.4-13.4L82.9,112.3z M95,111.2L95,111.2L95,111.2z"/>
						</g>
					</g>
				</g>
				<rect x="4" y="4" class="st7" width="120" height="120"/>
				<rect x="4" y="4" class="st7" width="120" height="120"/>
			</g>
		</g>
	</g>
	<g>
		<rect class="st7" width="128" height="128"/>
	</g>
</g>
</svg>
