<?xml version="1.0" encoding="utf-8"?>
<!-- Generator: Adobe Illustrator 24.1.0, SVG Export Plug-In . SVG Version: 6.00 Build 0)  -->
<svg version="1.1" id="Layer_1" xmlns="http://www.w3.org/2000/svg" xmlns:xlink="http://www.w3.org/1999/xlink" x="0px" y="0px"
	 viewBox="0 0 128 128" style="enable-background:new 0 0 128 128;" xml:space="preserve">
<style type="text/css">
	.st0{fill:#FFFFFF;}
	.st1{fill:#4D9987;}
	.st2{fill:#E9EBDF;}
	.st3{fill:#0E352C;}
	.st4{fill:#C4D7D3;}
	.st5{fill:#27ae60;}
	.st6{fill:#185849;}
	.st7{fill:none;}
</style>
<g id="Layer_1_1_">
</g>
<g>
	<g id="Layer_2_1_">
		<g id="Objects_1_">
			<g>
				<g>
					<g>
						<g>
							<g>
								<path class="st0" d="M104.4,9.9L96,5.1l0,0c-0.2-0.1-0.5-0.1-0.8,0L24.4,46c-0.7,0.4-1.2,1.4-1.2,2.3V117
									c0,0.5,0.2,0.8,0.4,1l0,0l8.4,4.9l7.1-13.4l56.1-37.9c0.7-0.4,1.2-1.4,1.2-2.3V20.6L104.4,9.9z"/>
								<path class="st1" d="M32,123.9c-0.2,0-0.3,0-0.5-0.1l-8.4-4.9c-0.1,0-0.1-0.1-0.2-0.1c-0.5-0.4-0.8-1-0.8-1.7V48.4
									c0-1.3,0.7-2.6,1.7-3.2L94.7,4.3c0.5-0.3,1.1-0.4,1.6-0.1c0.1,0,0.1,0,0.2,0.1l8.4,4.9c0.2,0.1,0.4,0.4,0.5,0.7
									s0,0.6-0.2,0.8l-7.8,10.4v48.3c0,1.3-0.7,2.6-1.7,3.2l-55.9,37.7l-7,13.2c-0.1,0.2-0.3,0.4-0.6,0.5
									C32.2,123.9,32.1,123.9,32,123.9z M24.2,117.3l7.4,4.3l6.6-12.5c0.1-0.1,0.2-0.3,0.3-0.4l56.1-37.9c0.4-0.2,0.8-0.9,0.8-1.5
									V20.6c0-0.2,0.1-0.4,0.2-0.6l7.3-9.8L95.7,6L24.9,46.9c-0.3,0.2-0.7,0.9-0.7,1.5v68.7C24.2,117.2,24.2,117.2,24.2,117.3
									C24.2,117.2,24.2,117.3,24.2,117.3z"/>
							</g>
							<path class="st2" d="M31.6,122.7V41.9L24.4,46c-0.7,0.4-1.2,1.4-1.2,2.3V117c0,0.5,0.2,0.8,0.4,1l0,0L31.6,122.7z"/>
							<g>
								<path class="st1" d="M70.8,85.7l24.4-14.1c0.7-0.4,1.2-1.4,1.2-2.3V20.6l8-10.7L96,5.1l0,0c-0.2-0.1-0.5-0.1-0.8,0L24.4,46
									c-0.7,0.4-1.2,1.4-1.2,2.3v9.8L70.8,85.7z"/>
								<path class="st3" d="M70.8,86.7c-0.2,0-0.3,0-0.5-0.1L22.7,59c-0.3-0.2-0.5-0.5-0.5-0.9v-9.8c0-1.3,0.7-2.6,1.7-3.2
									L94.7,4.3c0.5-0.3,1.1-0.4,1.6-0.1c0.1,0,0.1,0,0.2,0.1l8.4,4.9c0.2,0.1,0.4,0.4,0.5,0.7s0,0.6-0.2,0.8l-7.8,10.4v48.3
									c0,1.3-0.7,2.6-1.7,3.2L71.3,86.5C71.2,86.6,71,86.7,70.8,86.7z M24.2,57.6l46.7,26.9l23.9-13.8c0.3-0.2,0.7-0.9,0.7-1.5
									V20.6c0-0.2,0.1-0.4,0.2-0.6l7.3-9.8L95.7,6L24.9,46.9c-0.3,0.2-0.7,0.9-0.7,1.5C24.2,48.4,24.2,57.6,24.2,57.6z"/>
							</g>
							<path class="st2" d="M73.1,77.2l23.3-32.6v-24l8-10.7L96,5.1l0,0c-0.2-0.1-0.5-0.1-0.8,0L24.4,46c-0.7,0.4-1.2,1.4-1.2,2.3
								l0,0L73.1,77.2z"/>
							<g>
								<path class="st0" d="M103.6,82l-70.8,40.9c-0.7,0.4-1.2,0-1.2-0.9V53.2c0-0.9,0.5-1.9,1.2-2.3L103.6,10
									c0.7-0.4,1.2,0,1.2,0.9v68.7C104.8,80.5,104.3,81.6,103.6,82z"/>
								<path class="st1" d="M32.3,124c-0.3,0-0.6-0.1-0.8-0.2c-0.6-0.3-0.9-1-0.9-1.9V53.2c0-1.3,0.7-2.6,1.7-3.2l70.8-40.9
									c0.6-0.4,1.3-0.4,1.8-0.1c0.6,0.3,0.9,1,0.9,1.9v68.7c0,1.3-0.7,2.6-1.7,3.2l-70.8,40.9C33,123.9,32.6,124,32.3,124z
									 M103.8,11L33.3,51.8c-0.3,0.2-0.7,0.9-0.7,1.5v68.6l70.5-40.7l0,0c0.3-0.2,0.7-0.9,0.7-1.5C103.8,79.7,103.8,11,103.8,11z"
									/>
							</g>
							<g>
								<polygon class="st4" points="92.2,76.6 44.7,104 44.7,67.4 92.2,40 								"/>
								<path class="st4" d="M44.7,105c-0.2,0-0.3,0-0.5-0.1c-0.3-0.2-0.5-0.5-0.5-0.9V67.4c0-0.4,0.2-0.7,0.5-0.9l47.5-27.4
									c0.3-0.2,0.7-0.2,1,0s0.5,0.5,0.5,0.9v36.6c0,0.4-0.2,0.7-0.5,0.9l-47.5,27.4C45,105,44.8,105,44.7,105z M45.7,68v34.3
									L91.2,76V41.7L45.7,68z M92.2,76.6L92.2,76.6L92.2,76.6z"/>
							</g>
							<path class="st3" d="M32.3,124c-0.2,0-0.4,0-0.6-0.1c-0.1,0-0.1,0-0.2-0.1l-8.4-4.9c-0.1,0-0.1-0.1-0.2-0.1
								c-0.5-0.4-0.8-1-0.8-1.7V48.4c0-1.3,0.7-2.6,1.7-3.2L94.7,4.3c0.5-0.3,1.1-0.4,1.6-0.1c0.1,0,0.1,0,0.2,0.1l8.4,4.9
								c0.1,0,0.1,0.1,0.2,0.1c0.5,0.4,0.8,1,0.8,1.7v68.7c0,1.3-0.7,2.6-1.7,3.2l-70.8,40.9C33,123.9,32.7,124,32.3,124z
								 M24.2,117.3l8.1,4.7l70.8-40.9c0.3-0.2,0.7-0.9,0.7-1.5V10.9c0-0.1,0-0.1,0-0.2l0,0L95.7,6L24.9,46.9
								c-0.3,0.2-0.7,0.9-0.7,1.5v68.7C24.2,117.2,24.2,117.2,24.2,117.3C24.2,117.2,24.2,117.3,24.2,117.3z M103.9,10.8L103.9,10.8
								L103.9,10.8z"/>
							<g>
								<path class="st3" d="M104.8,20.7v-9.8c0-0.9-0.5-1.3-1.2-0.9L32.8,50.9c-0.7,0.4-1.2,1.4-1.2,2.3V63L104.8,20.7z"/>
								<path class="st3" d="M31.6,64c-0.2,0-0.3,0-0.5-0.1c-0.3-0.2-0.5-0.5-0.5-0.9v-9.8c0-1.3,0.7-2.6,1.7-3.2l70.8-40.9
									c0.6-0.4,1.3-0.4,1.8-0.1c0.6,0.3,0.9,1,0.9,1.9v9.8c0,0.4-0.2,0.7-0.5,0.9L32.1,63.9C31.9,64,31.8,64,31.6,64z M103.8,11
									L33.3,51.8c-0.3,0.2-0.7,0.9-0.7,1.5v8.1l71.3-41.1L103.8,11L103.8,11z M104.8,20.7L104.8,20.7L104.8,20.7z"/>
							</g>
							<g>
								
									<ellipse transform="matrix(0.3916 -0.9201 0.9201 0.3916 -20.9861 70.4565)" class="st2" cx="42.8" cy="51.1" rx="2.1" ry="1.2"/>
								
									<ellipse transform="matrix(0.3916 -0.9201 0.9201 0.3916 -14.9497 73.4591)" class="st0" cx="48.1" cy="48" rx="2.1" ry="1.2"/>
								
									<ellipse transform="matrix(0.3916 -0.9201 0.9201 0.3916 -27.2563 67.3028)" class="st1" cx="37.3" cy="54.3" rx="2.1" ry="1.2"/>
							</g>
						</g>
						<path class="st3" d="M45,116.8c-0.3,0-0.7-0.2-0.9-0.5c-0.3-0.5-0.1-1.1,0.4-1.4L103.1,81c0.3-0.2,0.7-0.9,0.7-1.5V47.2
							c0-0.6,0.4-1,1-1s1,0.4,1,1v32.4c0,1.3-0.7,2.6-1.7,3.2l-58.6,33.9C45.3,116.8,45.1,116.8,45,116.8z"/>
					</g>
					<g>
						<g>
							<g>
								<path class="st5" d="M63.3,86.1v30.8c0,0.7,0.5,1.5,1.5,2.1l4,2.3c2,1.1,5.2,1.1,7.1,0L95.3,110c1-0.6,1.5-1.3,1.5-2.1V77.2
									L63.3,86.1z"/>
								<path class="st4" d="M72.3,83.7l-9,2.4v30.8c0,0.7,0.5,1.5,1.5,2.1l4,2.3c1,0.6,2.2,0.8,3.5,0.8V83.7z"/>
								<g>
									<path class="st0" d="M95.3,79.3L75.9,90.5c-2,1.1-5.2,1.1-7.1,0l-4-2.3c-2-1.1-2-3,0-4.1l19.4-11.2c2-1.1,5.2-1.1,7.1,0
										l4,2.3C97.2,76.3,97.2,78.1,95.3,79.3z"/>
									<path class="st5" d="M72.3,92.3c-1.5,0-2.9-0.3-4.1-1l-4-2.3c-1.3-0.7-2-1.8-2-2.9s0.7-2.2,2-2.9L83.7,72
										c2.3-1.3,5.8-1.3,8.1,0l4,2.3c1.3,0.7,2,1.8,2,2.9s-0.7,2.2-2,2.9L76.4,91.3C75.2,92,73.8,92.3,72.3,92.3z M87.7,73
										c-1.1,0-2.2,0.2-3.1,0.7L65.3,84.9c-0.6,0.4-1,0.8-1,1.2s0.4,0.8,1,1.2l4,2.3c1.7,1,4.5,1,6.1,0l19.4-11.2
										c0.6-0.4,1-0.8,1-1.2s-0.4-0.8-1-1.2l-4-2.3C90,73.2,88.8,73,87.7,73z"/>
								</g>
							</g>
						</g>
						<g>
							<g>
								<path class="st6" d="M88.3,96c0-2-1.2-2.9-2.7-2s-2.7,3.2-2.7,5.2c0,1.3,0.5,2.2,1.3,2.3l-0.6,7l3.9-2.2L87,99.8
									C87.8,98.7,88.3,97.3,88.3,96z"/>
								<path class="st6" d="M83.6,108.9c-0.1,0-0.2,0-0.3-0.1c-0.2-0.1-0.2-0.3-0.2-0.5l0.5-6.6c-0.8-0.4-1.3-1.4-1.3-2.7
									c0-2.2,1.3-4.6,3-5.6c0.8-0.5,1.6-0.5,2.3-0.1c0.8,0.4,1.2,1.4,1.2,2.6c0,1.3-0.5,2.8-1.3,4L88,106c0,0.2-0.1,0.4-0.2,0.5
									l-3.9,2.2C83.8,108.9,83.7,108.9,83.6,108.9z M86.7,94.1c-0.3,0-0.6,0.1-0.8,0.3c-1.3,0.8-2.5,2.9-2.5,4.7
									c0,1,0.4,1.7,0.9,1.8c0.2,0.1,0.4,0.3,0.4,0.5l-0.5,6l2.8-1.6l-0.5-6c0-0.1,0-0.2,0.1-0.3c0.8-1,1.2-2.4,1.2-3.6
									c0-0.9-0.3-1.5-0.7-1.8C87,94.1,86.8,94.1,86.7,94.1z"/>
							</g>
						</g>
						<path class="st6" d="M72.3,123.1c-1.5,0-2.9-0.3-4.1-1l-4-2.3c-1.3-0.7-2-1.8-2-2.9V86.1c0-1.1,0.7-2.2,2-2.9L83.7,72
							c2.3-1.3,5.8-1.3,8.1,0l4,2.3c1.3,0.7,2,1.8,2,2.9V108c0,1.1-0.7,2.2-2,2.9l-19.4,11.2C75.2,122.8,73.8,123.1,72.3,123.1z
							 M87.7,73c-1.1,0-2.2,0.2-3.1,0.7L65.3,84.9c-0.6,0.4-1,0.8-1,1.2v30.8c0,0.4,0.4,0.8,1,1.2l4,2.3c1.7,1,4.5,1,6.1,0
							l19.4-11.2c0.6-0.4,1-0.8,1-1.2V77.2c0-0.4-0.4-0.8-1-1.2l0,0l-4-2.3C90,73.2,88.8,73,87.7,73z"/>
						<path class="st4" d="M87,53.1c-2.6-1.5-5.8-1.3-8.9,0.4c-5.4,3.1-9.7,11.1-9.7,18.2v13.6l0,0l0,0c0,1.2,1.7,2.2,3.7,2.2
							c2.1,0,3.7-1,3.7-2.2l0,0V71.7c0-4.4,2.8-9.9,6-11.7c0.8-0.5,1.3-0.5,1.4-0.4c0.3,0.2,0.8,1.1,0.8,3.1v13.6l0,0
							c0,1.2,1.7,2.2,3.7,2.2s3.7-1,3.7-2.2l0,0l0,0V62.7C91.6,58.3,89.9,54.8,87,53.1z"/>
						<path class="st6" d="M72.2,88.5c-2.7,0-4.7-1.4-4.7-3.2V71.7c0-7.4,4.5-15.8,10.2-19.1c3.4-1.9,7-2.1,9.9-0.4
							c3.2,1.9,5.1,5.7,5.1,10.4v13.6c0,1.8-2,3.2-4.7,3.2s-4.7-1.4-4.7-3.2V62.7c0-1-0.2-1.7-0.3-2c-0.1,0-0.2,0.1-0.4,0.2
							c-2.9,1.6-5.5,6.8-5.5,10.8v13.6c0,0.9-0.6,1.8-1.6,2.4C74.5,88.2,73.3,88.5,72.2,88.5z M83.1,53.1c-1.5,0-3,0.4-4.5,1.3
							c-5.2,3-9.2,10.6-9.2,17.3v13.6c0,0.4,1,1.2,2.7,1.2s2.7-0.8,2.7-1.2V71.7c0-4.8,3-10.6,6.5-12.6c0.5-0.3,1.6-0.8,2.4-0.4
							c0.8,0.5,1.3,2,1.3,4v13.6c0,0.4,1,1.2,2.7,1.2s2.7-0.8,2.7-1.2V62.7c0-4-1.5-7.2-4.1-8.7C85.5,53.4,84.3,53.1,83.1,53.1z"/>
						<path class="st5" d="M72.2,86.5c-0.6,0-1-0.4-1-1s0.4-1,1-1c0.3,0,0.6,0,0.7-0.1V71.7c0-1.6,0.3-3.4,0.9-5.1
							c0.2-0.5,0.7-0.8,1.3-0.6c0.5,0.2,0.8,0.7,0.6,1.3c-0.5,1.5-0.8,3.1-0.8,4.5v13.3c0,0.3-0.2,0.6-0.4,0.8
							C74.3,86,73.5,86.5,72.2,86.5z"/>
						<path class="st5" d="M87.8,77.4c-0.6,0-1-0.4-1-1s0.4-1,1-1c0.3,0,0.6,0,0.7-0.1V62.7c0-2.1-0.4-3.9-1.3-5.2
							c-0.3-0.5-0.2-1.1,0.3-1.4c0.5-0.3,1.1-0.2,1.4,0.3c1,1.7,1.6,3.8,1.6,6.3V76c0,0.3-0.2,0.6-0.4,0.8
							C89.9,77,89.2,77.4,87.8,77.4z M89.6,76L89.6,76L89.6,76z"/>
						<path class="st0" d="M72.5,64c-0.1,0-0.3,0-0.4-0.1c-0.5-0.2-0.7-0.8-0.5-1.3c1.5-3.1,3.5-5.7,5.8-7.4
							c0.4-0.3,1.1-0.2,1.4,0.2s0.2,1.1-0.2,1.4c-2,1.5-3.8,3.9-5.2,6.7C73.3,63.8,72.9,64,72.5,64z"/>
					</g>
				</g>
				<rect x="4" y="4" class="st7" width="120" height="120"/>
				<rect x="4" y="4" class="st7" width="120" height="120"/>
			</g>
		</g>
	</g>
	<g>
		<rect class="st7" width="128" height="128"/>
	</g>
</g>
</svg>
