<?xml version="1.0" encoding="utf-8"?>
<!-- Generator: Adobe Illustrator 24.1.0, SVG Export Plug-In . SVG Version: 6.00 Build 0)  -->
<svg version="1.1" id="Layer_1" xmlns="http://www.w3.org/2000/svg" xmlns:xlink="http://www.w3.org/1999/xlink" x="0px" y="0px"
	 viewBox="0 0 128 128" style="enable-background:new 0 0 128 128;" xml:space="preserve">
<style type="text/css">
	.st0{fill:#C4D7D3;}
	.st1{fill:#27ae60;}
	.st2{fill:#FFFFFF;}
	.st3{fill:#185849;}
	.st4{fill:#4D9987;}
	.st5{fill:#0E352C;}
	.st6{fill:#E9EBDF;}
	.st7{fill:none;}
</style>
<g id="Layer_1_1_">
</g>
<g>
	<g id="Layer_2_1_">
		<g id="Tech_Concepts_1_">
			<g>
				<g>
					<g>
						<g>
							<g>
								<path class="st0" d="M122.2,66.8v48c0,1.2-0.8,2.3-2.3,3.2l-6.3,3.6c-3.1,1.8-8.1,1.8-11.2,0L71.8,104
									c-1.5-0.9-2.3-2.1-2.3-3.2v-48L122.2,66.8z"/>
								<path class="st1" d="M108.1,63l14.1,3.8v48c0,1.2-0.8,2.3-2.3,3.2l-6.3,3.6c-1.5,0.9-3.5,1.3-5.5,1.3
									C108.1,122.9,108.1,63,108.1,63z"/>
								<g>
									<path class="st2" d="M71.8,56l30.6,17.7c3.1,1.8,8.1,1.8,11.2,0l6.3-3.6c3.1-1.8,3.1-4.7,0-6.5L89.3,45.9
										c-3.1-1.8-8.1-1.8-11.2,0l-6.3,3.6C68.7,51.3,68.7,54.2,71.8,56z"/>
									<path class="st1" d="M108,76c-2.2,0-4.4-0.5-6.1-1.5L71.3,56.9c-1.8-1.1-2.8-2.5-2.8-4.1s1-3.1,2.8-4.1l6.3-3.6
										c3.4-2,8.8-2,12.2,0l30.6,17.7c1.8,1.1,2.8,2.5,2.8,4.1c0,1.6-1,3.1-2.8,4.1l-6.3,3.6C112.4,75.5,110.2,76,108,76z
										 M83.7,45.6c-1.9,0-3.7,0.4-5.1,1.2l-6.3,3.6c-1.2,0.7-1.8,1.5-1.8,2.4s0.6,1.7,1.8,2.4l0,0l30.6,17.7
										c2.8,1.6,7.5,1.6,10.2,0l6.3-3.6c1.2-0.7,1.8-1.5,1.8-2.4s-0.6-1.7-1.8-2.4L88.8,46.8C87.4,46,85.5,45.6,83.7,45.6z"/>
								</g>
							</g>
						</g>
						<path class="st3" d="M108,124c-2.2,0-4.4-0.5-6.1-1.5l-30.6-17.7c-1.8-1.1-2.8-2.5-2.8-4.1v-48c0-1.6,1-3.1,2.8-4.1l6.3-3.6
							c3.4-2,8.8-2,12.2,0l30.6,17.7c1.8,1.1,2.8,2.5,2.8,4.1v48c0,1.6-1,3.1-2.8,4.1l-6.3,3.6C112.4,123.5,110.2,124,108,124z
							 M83.7,45.6c-1.9,0-3.7,0.4-5.1,1.2l-6.3,3.6l0,0c-1.2,0.7-1.8,1.5-1.8,2.4v48c0,0.9,0.6,1.7,1.8,2.4l30.6,17.7
							c2.8,1.6,7.5,1.6,10.2,0l6.3-3.6c1.2-0.7,1.8-1.5,1.8-2.4v-48c0-0.8-0.7-1.7-1.8-2.4L88.8,46.8C87.4,46,85.5,45.6,83.7,45.6z
							 M71.8,49.5L71.8,49.5L71.8,49.5z"/>
						<g>
							<g>
								<path class="st3" d="M114.3,67L114.3,67c0-1.9-2.7-3.5-6.1-3.5s-6.1,1.6-6.1,3.5l0,0l0,0l0,0c0,1.9,2.7,3.5,6.1,3.5
									C111.6,70.5,114.3,68.9,114.3,67L114.3,67L114.3,67z"/>
								<path class="st1" d="M103.1,68.9c1.1-0.9,3-1.6,5.1-1.6s4,0.6,5.1,1.6c-1.1,0.9-3,1.6-5.1,1.6S104.2,69.9,103.1,68.9z"/>
							</g>
						</g>
					</g>
					<g>
						<g>
							<g>
								<path class="st4" d="M5.8,66.8v48c0,1.2,0.8,2.3,2.3,3.2l6.3,3.6c3.1,1.8,8.1,1.8,11.2,0L56.2,104c1.5-0.9,2.3-2.1,2.3-3.2
									v-48L5.8,66.8z"/>
								<g>
									<g>
										<path class="st5" d="M44.3,82c0-2.9-1.8-4.3-4-3s-4,4.7-4,7.6c0,1.9,0.8,3.2,1.9,3.4l-0.8,10.3l5.8-3.3l-0.8-9.3
											C43.5,86.1,44.3,83.9,44.3,82z"/>
										<path class="st5" d="M37.4,101.3c-0.2,0-0.4-0.1-0.5-0.2c-0.3-0.2-0.5-0.6-0.5-0.9l0.8-9.6c-1.2-0.7-1.9-2.2-1.9-4.1
											c0-3.3,2-7.1,4.5-8.5c1.3-0.7,2.6-0.8,3.6-0.2c1.2,0.7,1.9,2.2,1.9,4.1c0,2-0.7,4.2-1.9,6l0.8,9c0,0.4-0.2,0.8-0.5,1
											l-5.8,3.3C37.8,101.3,37.6,101.3,37.4,101.3z M41.9,79.5c-0.4,0-0.8,0.2-1.1,0.3c-1.9,1.1-3.5,4.2-3.5,6.8
											c0,1.4,0.4,2.3,1.2,2.5c0.5,0.1,0.8,0.6,0.8,1.1l-0.7,8.4l3.6-2.1l-0.8-8.7c0-0.2,0-0.5,0.2-0.7c1.1-1.5,1.8-3.4,1.8-5.1
											c0-1.2-0.3-2-0.9-2.4C42.3,79.5,42.1,79.5,41.9,79.5z"/>
									</g>
								</g>
								<path class="st6" d="M19.9,63L5.8,66.8v48c0,1.2,0.8,2.3,2.3,3.2l6.3,3.6c1.5,0.9,3.5,1.3,5.5,1.3
									C19.9,122.9,19.9,63,19.9,63z"/>
								<g>
									<path class="st2" d="M56.2,56L25.6,73.7c-3.1,1.8-8.1,1.8-11.2,0L8.1,70c-3.1-1.8-3.1-4.7,0-6.5l30.6-17.7
										c3.1-1.8,8.1-1.8,11.2,0l6.3,3.6C59.3,51.3,59.3,54.2,56.2,56z"/>
									<path class="st4" d="M20,76c-2.2,0-4.4-0.5-6.1-1.5l-6.3-3.6c-1.8-1.1-2.8-2.5-2.8-4.1s1-3.1,2.8-4.1L38.2,45
										c3.4-2,8.8-2,12.2,0l6.3,3.6c1.8,1.1,2.8,2.5,2.8,4.1s-1,3.1-2.8,4.1l0,0L26.1,74.5C24.4,75.5,22.2,76,20,76z M44.3,45.6
										c-1.9,0-3.7,0.4-5.1,1.2L8.6,64.4c-1.2,0.7-1.8,1.5-1.8,2.4s0.6,1.7,1.8,2.4l6.3,3.6c2.8,1.6,7.5,1.6,10.2,0l30.6-17.7
										c1.2-0.7,1.8-1.5,1.8-2.4s-0.6-1.7-1.8-2.4l-6.3-3.6C48.1,46,46.2,45.6,44.3,45.6z M56.2,56L56.2,56L56.2,56z"/>
								</g>
							</g>
						</g>
						<path class="st5" d="M20,124c-2.2,0-4.4-0.5-6.1-1.5l-6.3-3.6c-1.8-1.1-2.8-2.5-2.8-4.1v-48c0-1.6,1-3.1,2.8-4.1L38.2,45
							c3.4-2,8.8-2,12.2,0l6.3,3.6c1.8,1.1,2.8,2.5,2.8,4.1v48c0,1.6-1,3.1-2.8,4.1l-30.6,17.7C24.4,123.5,22.2,124,20,124z
							 M44.3,45.6c-1.9,0-3.7,0.4-5.1,1.2L8.6,64.4c-1.2,0.7-1.8,1.5-1.8,2.4v48c0,0.8,0.7,1.7,1.8,2.4l6.3,3.6
							c2.8,1.6,7.5,1.6,10.2,0l30.6-17.7c1.2-0.7,1.8-1.5,1.8-2.4v-48c0-0.9-0.6-1.7-1.8-2.4l0,0l-6.3-3.6
							C48.1,46,46.2,45.6,44.3,45.6z"/>
						<g>
							<path class="st5" d="M13.7,67L13.7,67c0-1.9,2.7-3.5,6.1-3.5s6.1,1.6,6.1,3.5l0,0l0,0l0,0c0,1.9-2.7,3.5-6.1,3.5
								S13.7,68.9,13.7,67L13.7,67L13.7,67z"/>
							<path class="st4" d="M24.9,68.9c-1.1-0.9-3-1.6-5.1-1.6s-4,0.6-5.1,1.6c1.1,0.9,3,1.6,5.1,1.6S23.8,69.9,24.9,68.9z"/>
						</g>
					</g>
					<path class="st6" d="M64,5C50.2,5,39,16,39,29.6v23c0,1.8,2.5,3.2,5.6,3.2s5.6-1.4,5.6-3.2l0,0l0,0l0,0l0,0v-23
						c0-7.4,6.2-13.4,13.8-13.4s13.8,6,13.8,13.4v23l0,0l0,0l0,0l0,0c0,1.8,2.5,3.2,5.6,3.2s5.6-1.4,5.6-3.2l0,0l0,0l0,0v-23
						C89,16,77.8,5,64,5z"/>
					<path class="st5" d="M83.4,56.8c-3.7,0-6.6-1.9-6.6-4.2l0,0v-23c0-6.8-5.8-12.4-12.8-12.4c-7.1,0-12.8,5.6-12.8,12.4v23
						c0,2.4-2.9,4.2-6.6,4.2S38,54.9,38,52.6v-23C38,15.5,49.7,4,64,4s26,11.5,26,25.6v23l0,0C90,55,87.1,56.8,83.4,56.8z M64,15.2
						c8.2,0,14.8,6.5,14.8,14.4v23c0,1.1,2,2.2,4.6,2.2s4.6-1.2,4.6-2.2l0,0v-23C88,16.6,77.2,6,64,6S40,16.6,40,29.6v23
						c0,1,2,2.2,4.6,2.2s4.6-1.2,4.6-2.2l0,0v-23C49.2,21.6,55.8,15.2,64,15.2z M89,52.6L89,52.6L89,52.6z"/>
					<path class="st4" d="M47.6,53.9c-0.8,0-1.5-0.7-1.5-1.5V29.6c0-0.8,0.7-1.5,1.5-1.5s1.5,0.7,1.5,1.5v22.8
						C49.1,53.2,48.4,53.9,47.6,53.9z"/>
					<path class="st2" d="M80.4,53.9c-0.8,0-1.5-0.7-1.5-1.5V29.6c0-3.3-1.2-6.6-3.4-9.1c-0.5-0.6-0.5-1.6,0.2-2.1
						c0.6-0.5,1.6-0.5,2.1,0.2c2.6,3.1,4.1,7,4.1,11.1v22.8C81.9,53.2,81.3,53.9,80.4,53.9z"/>
					<path class="st4" d="M86.4,53.9c-0.8,0-1.5-0.7-1.5-1.5V29.6c0-0.8,0.7-1.5,1.5-1.5s1.5,0.7,1.5,1.5v22.8
						C87.9,53.2,87.3,53.9,86.4,53.9z"/>
					<path class="st2" d="M41.6,53.9c-0.8,0-1.5-0.7-1.5-1.5V29.6c0-13,10.7-23.5,23.9-23.5c0.8,0,1.5,0.7,1.5,1.5S64.8,9.1,64,9.1
						c-11.5,0-20.9,9.2-20.9,20.5v22.8C43.1,53.2,42.4,53.9,41.6,53.9z"/>
					<g>
						<g>
							<path class="st3" d="M83.7,82c0-2.9,1.8-4.3,4-3s4,4.7,4,7.6c0,1.9-0.8,3.2-1.9,3.4l0.8,10.3L84.8,97l0.8-9.3
								C84.5,86.1,83.7,83.9,83.7,82z"/>
							<path class="st3" d="M90.6,101.3c-0.2,0-0.3,0-0.5-0.1l-5.8-3.3c-0.3-0.2-0.5-0.6-0.5-1l0.8-9c-1.2-1.8-1.9-4-1.9-6
								c0-1.9,0.7-3.4,1.9-4.1c1-0.6,2.3-0.5,3.6,0.2c2.5,1.5,4.5,5.2,4.5,8.5c0,1.9-0.7,3.4-1.9,4.1l0.8,9.6c0,0.4-0.1,0.7-0.5,0.9
								C90.9,101.3,90.7,101.3,90.6,101.3z M85.9,96.5l3.6,2.1l-0.7-8.4c0-0.5,0.3-0.9,0.8-1.1c0.7-0.2,1.2-1.1,1.2-2.5
								c0-2.6-1.6-5.7-3.5-6.8c-0.5-0.3-1.1-0.5-1.6-0.2c-0.6,0.3-0.9,1.2-0.9,2.4c0,1.7,0.7,3.6,1.8,5.1c0.1,0.2,0.2,0.4,0.2,0.7
								L85.9,96.5z"/>
						</g>
					</g>
				</g>
				<rect x="4" y="4" class="st7" width="120" height="120"/>
				<rect x="4" y="4" class="st7" width="120" height="120"/>
			</g>
		</g>
	</g>
	<g>
		<rect class="st7" width="128" height="128"/>
	</g>
</g>
</svg>
