<?xml version="1.0" encoding="utf-8"?>
<!-- Generator: Adobe Illustrator 24.1.0, SVG Export Plug-In . SVG Version: 6.00 Build 0)  -->
<svg version="1.1" id="Layer_1" xmlns="http://www.w3.org/2000/svg" xmlns:xlink="http://www.w3.org/1999/xlink" x="0px" y="0px"
	 viewBox="0 0 128 128" style="enable-background:new 0 0 128 128;" xml:space="preserve">
<style type="text/css">
	.st0{fill:#E9EBDF;}
	.st1{fill:#0E352C;}
	.st2{fill:#FFFFFF;}
	.st3{fill:#4D9987;}
	.st4{fill:#C4D7D3;}
	.st5{fill:#185849;}
	.st6{fill:#27ae60;}
	.st7{fill:none;}
</style>
<g id="Layer_1_1_">
</g>
<g>
	<g id="Layer_2_1_">
		<g id="New_Illustrations_1_">
			<g>
				<g>
					<g>
						<g>
							<path class="st0" d="M59.9,99.2l-17-9.8c-1.3-0.7-3.3-0.7-4.6,0l-22.5,13c-1.3,0.7-1.3,1.9,0,2.7l17,9.8L59.9,99.2z"/>
							<path class="st1" d="M42.2,120.5c-1,0-2-0.2-2.8-0.7l-24-13.9c-0.9-0.5-1.5-1.3-1.5-2.2c0-0.9,0.5-1.7,1.5-2.2l22.5-13
								c1.6-0.9,4-0.9,5.6,0l24,13.9c0.9,0.5,1.5,1.3,1.5,2.2c0,0.9-0.5,1.7-1.5,2.2l0,0l-22.5,13C44.2,120.2,43.2,120.5,42.2,120.5
								z M40.6,89.9c-0.7,0-1.3,0.1-1.8,0.4l-22.5,13c-0.3,0.2-0.5,0.4-0.5,0.5s0.1,0.3,0.5,0.5l24,13.9c1,0.6,2.6,0.6,3.6,0
								l22.5-13l0,0c0.3-0.2,0.5-0.4,0.5-0.5s-0.1-0.3-0.5-0.5l-24-13.9C42,90,41.3,89.9,40.6,89.9z M67,106L67,106L67,106z"/>
							<path class="st0" d="M88.4,7.9l-4.8-2.8l0,0C83.3,5,82.9,5,82.5,5.2L8.8,47.8c-0.9,0.5-1.6,1.9-1.6,3.1v66
								c0,0.7,0.2,1.1,0.6,1.3l0,0l4.8,2.8l6.5-10.9l61.7-35.6c0.9-0.5,1.6-1.9,1.6-3.1V16L88.4,7.9z"/>
							<path class="st2" d="M83.6,5.1L83.6,5.1C83.3,5,82.9,5,82.5,5.2L8.8,47.8c-0.5,0.3-1,0.9-1.3,1.6l58.3,33.7l14.9-8.6
								c0.9-0.5,1.6-1.9,1.6-3.1V16l6.1-8.1L83.6,5.1z"/>
							<path class="st0" d="M87.3,78.4L13.6,121c-0.9,0.5-1.6,0-1.6-1.2v-66c0-1.2,0.7-2.6,1.6-3.1L87.3,8C88.2,7.5,89,8,89,9.2v66
								C89,76.5,88.2,77.9,87.3,78.4z"/>
							<g>
								<path class="st3" d="M87.3,78.4L13.6,121c-0.9,0.5-1.6,0-1.6-1.2v-66c0-1.2,0.7-2.6,1.6-3.1L87.3,8C88.2,7.5,89,8,89,9.2v66
									C89,76.5,88.2,77.9,87.3,78.4z"/>
								<path class="st3" d="M12.9,122.2c-0.3,0-0.6-0.1-0.9-0.2c-0.7-0.4-1.1-1.2-1.1-2.2v-66c0-1.6,0.9-3.3,2.1-4L86.8,7.1
									c0.7-0.4,1.5-0.4,2.1-0.1C89.6,7.4,90,8.2,90,9.2v66c0,1.6-0.9,3.3-2.1,4l-73.8,42.6C13.7,122.1,13.3,122.2,12.9,122.2z
									 M87.9,8.8C87.9,8.8,87.9,8.9,87.9,8.8L14.1,51.5c-0.5,0.3-1.1,1.3-1.1,2.3v66c0,0.2,0,0.3,0.1,0.4c0,0,0,0,0.1,0L87,77.6
									c0.5-0.3,1.1-1.3,1.1-2.3v-66C88,9,87.9,8.9,87.9,8.8z"/>
							</g>
							<g>
								<path class="st1" d="M87.3,8L13.6,50.6c-0.9,0.5-1.6,1.9-1.6,3.1v58.8L89,68V9.2C89,8,88.2,7.5,87.3,8z"/>
								<path class="st1" d="M11.9,113.5c-0.2,0-0.3,0-0.5-0.1c-0.3-0.2-0.5-0.5-0.5-0.9V53.7c0-1.6,0.9-3.3,2.1-4L86.8,7.1l0,0
									c0.7-0.4,1.5-0.4,2.1-0.1C89.6,7.4,90,8.2,90,9.2V68c0,0.4-0.2,0.7-0.5,0.9l-77.1,44.5C12.3,113.5,12.1,113.5,11.9,113.5z
									 M87.8,8.9L14.1,51.5c-0.5,0.3-1.1,1.3-1.1,2.3v57.1l75-43.4V9.2C88,9,87.9,8.9,87.8,8.9C87.9,8.8,87.9,8.9,87.8,8.9
									L87.8,8.9z"/>
							</g>
							
								<ellipse transform="matrix(0.3916 -0.9201 0.9201 0.3916 -56.8162 104.0789)" class="st0" cx="50.3" cy="95" rx="2" ry="1.1"/>
							<polygon class="st2" points="15.6,54.2 85.3,14 85.3,65.7 15.6,105.9 							"/>
							<polygon class="st0" points="85.3,65.7 85.3,14 72.9,21.1 28,98.8 							"/>
							<path class="st1" d="M12.9,122.2c-0.3,0-0.5-0.1-0.7-0.2c-0.1,0-0.1,0-0.2-0.1l-4.8-2.8c-0.7-0.4-1.1-1.2-1.1-2.2V51
								c0-1.6,0.9-3.3,2.1-4L82,4.4C82.7,4,83.5,4,84.1,4.3l4.8,2.8c0.1,0,0.1,0.1,0.2,0.1c0.6,0.4,0.9,1.1,0.9,2v66
								c0,1.6-0.9,3.3-2.1,4l-73.8,42.6C13.7,122.1,13.3,122.2,12.9,122.2z M13,120.2L13,120.2L13,120.2z M12.9,120.2L12.9,120.2
								c0.1,0,0.1,0,0.2,0l73.8-42.6c0.5-0.3,1.1-1.3,1.1-2.3v-66c0-0.3-0.1-0.4-0.1-0.5c0,0-0.1,0-0.1-0.1L83.1,6c0,0,0,0-0.1,0.1
								L9.3,48.7C8.7,49,8.1,50,8.1,51v66c0,0.3,0.1,0.5,0.1,0.5L12.9,120.2z"/>
							<path class="st2" d="M15.6,54.2V106l69.6-40.2V14L15.6,54.2z M82.3,64l-63.7,36.8V55.9l63.7-36.8V64z"/>
						</g>
					</g>
					<g>
						<g>
							<path class="st4" d="M100.6,85.3c-10.6,0-25.7,9.4-25.7,28.1c0,10,17,11.2,29.4,8.1s16.6-9.3,16.6-15.7
								C120.9,95.4,112,85.3,100.6,85.3z"/>
							<path class="st5" d="M92,124c-5.7,0-11.2-1.1-14.7-3.8c-2.3-1.8-3.4-4.1-3.4-6.9c0-11,5-17.9,9.2-21.8
								c5-4.6,11.5-7.3,17.5-7.3c11.4,0,21.3,10,21.3,21.5c0,5.6-3,13-17.4,16.6C100.7,123.4,96.3,124,92,124z M100.6,86.3
								c-10.4,0-24.7,9.4-24.7,27.1c0,2.1,0.9,3.9,2.7,5.3c5.3,4.1,16.8,4,25.5,1.8c10.4-2.6,15.9-7.7,15.9-14.7
								C119.9,95.4,110.9,86.3,100.6,86.3z"/>
							<path class="st4" d="M92.1,122.3c-3.9,0-16.5-0.6-16.5-8.9c0-17.9,14.5-27.4,25-27.4c11.6,0,19.6,10.4,19.6,19.8
								c0,5-2.8,11.6-16.1,15C100.3,121.8,96,122.3,92.1,122.3z M100.6,88c-9.7,0-23,8.8-23,25.4c0,6.4,11.1,6.9,14.5,6.9
								c3.8,0,7.9-0.5,11.5-1.4c6.7-1.7,14.6-5.3,14.6-13.1C118.2,97.4,111,88,100.6,88z"/>
							<circle class="st4" cx="98.4" cy="71.1" r="17.9"/>
							<path class="st6" d="M109.8,60.9c-0.8-0.9-2.4,0-1.9,1.2c1.5,3.8,2,9.3-3.7,14.9c-5.7,5.7-11.2,5.2-14.9,3.7
								c-1.2-0.5-2.1,1.1-1.2,1.9c3.1,2.8,7.3,4.3,11.9,3.8c7.1-0.7,12.9-6.5,13.6-13.6C114.1,68.2,112.6,64,109.8,60.9z"/>
							<path class="st5" d="M98.4,90C88,90,79.5,81.5,79.5,71.1S88,52.2,98.4,52.2s18.9,8.5,18.9,18.9S108.8,90,98.4,90z M98.4,54.2
								c-9.3,0-16.9,7.6-16.9,16.9S89.1,88,98.4,88s16.9-7.6,16.9-16.9S107.7,54.2,98.4,54.2z"/>
							
								<ellipse transform="matrix(0.7071 -0.7071 0.7071 0.7071 -18.0213 81.9543)" class="st2" cx="89.9" cy="62.7" rx="4.1" ry="2.5"/>
							<path class="st4" d="M98.4,88.3c-9.5,0-17.2-7.7-17.2-17.2s7.7-17.2,17.2-17.2s17.2,7.7,17.2,17.2
								C115.6,80.6,107.9,88.3,98.4,88.3z M98.4,55.9c-8.4,0-15.2,6.8-15.2,15.2S90,86.3,98.4,86.3s15.2-6.8,15.2-15.2
								S106.8,55.9,98.4,55.9z"/>
							
								<ellipse transform="matrix(0.6392 -0.769 0.769 0.6392 -45.1858 101.4245)" class="st2" cx="85.5" cy="98.9" rx="3.7" ry="2.3"/>
							<path class="st6" d="M118.4,105.8c0-5.8-3.4-12.1-8.9-15.4c-1.5-0.9-3.3,0.2-3.1,1.9c0.1,1.2,0.2,2.4,0.2,3.6
								c0,7.7-3.6,15.1-14.2,18.9c-1.6,0.6-3.3,1-5.1,1.3c-2.3,0.4-2.2,3.7,0.1,4c1.9,0.2,3.7,0.3,4.7,0.3c3.8,0,7.9-0.5,11.5-1.4
								C110.4,117.3,118.4,113.6,118.4,105.8z"/>
						</g>
					</g>
				</g>
				<rect x="4" y="4" class="st7" width="120" height="120"/>
			</g>
		</g>
	</g>
	<g>
		<rect class="st7" width="128" height="128"/>
	</g>
</g>
</svg>
