<?xml version="1.0" encoding="utf-8"?>
<!-- Generator: Adobe Illustrator 24.1.0, SVG Export Plug-In . SVG Version: 6.00 Build 0)  -->
<svg version="1.1" id="Layer_1" xmlns="http://www.w3.org/2000/svg" xmlns:xlink="http://www.w3.org/1999/xlink" x="0px" y="0px"
	 viewBox="0 0 128 128" style="enable-background:new 0 0 128 128;" xml:space="preserve">
<style type="text/css">
	.st0{fill:#185849;}
	.st1{fill:#E9EBDF;}
	.st2{fill:#4D9987;}
	.st3{fill:#0E352C;}
	.st4{fill:#FFFFFF;}
	.st5{fill:#C4D7D3;}
	.st6{fill:none;}
</style>
<g id="Layer_1_1_">
</g>
<g>
	<g id="Layer_2_1_">
		<g id="Industries_1_">
			<g>
				<g>
					<g>
						<g>
							<path class="st0" d="M89,56.5c-0.1,0-0.3,0-0.4-0.1c-0.1,0-0.2-0.1-0.3-0.2c0,0-0.1-0.1-0.1-0.2c0,0-0.1-0.1-0.1-0.2
								c0-0.1,0-0.1,0-0.2c0-0.1,0-0.1,0-0.2c0-0.1,0-0.3,0.1-0.4c0.1-0.1,0.1-0.2,0.2-0.3s0.2-0.2,0.3-0.2c0.4-0.1,0.8-0.1,1.1,0.2
								c0.1,0.1,0.2,0.2,0.2,0.3s0.1,0.2,0.1,0.4c0,0.1,0,0.1,0,0.2c0,0.1,0,0.1-0.1,0.2c0,0.1,0,0.1-0.1,0.2c0,0.1-0.1,0.1-0.1,0.2
								C89.5,56.3,89.2,56.5,89,56.5z"/>
							<path class="st0" d="M112,61.3c-0.5-0.2-0.8-0.8-0.6-1.3l0,0c0.2-0.5,0.8-0.8,1.3-0.6l0,0c0.5,0.2,0.8,0.8,0.6,1.3l0,0
								c-0.2,0.4-0.5,0.6-0.9,0.6l0,0C112.2,61.4,112.1,61.4,112,61.3z M106.4,59.5c-0.5-0.1-0.9-0.7-0.7-1.2l0,0
								c0.1-0.5,0.7-0.9,1.2-0.7l0,0c0.5,0.2,0.9,0.7,0.7,1.2l0,0c-0.1,0.4-0.5,0.7-1,0.7l0,0C106.6,59.6,106.5,59.5,106.4,59.5z
								 M100.6,58.2L100.6,58.2c-0.5-0.1-0.9-0.6-0.8-1.2l0,0c0.1-0.5,0.6-0.9,1.2-0.8l0,0c0.5,0.1,0.9,0.6,0.8,1.2l0,0
								c-0.1,0.5-0.5,0.8-1,0.8l0,0C100.8,58.2,100.7,58.2,100.6,58.2z M94.8,57.2L94.8,57.2c-0.5-0.1-0.9-0.6-0.8-1.1l0,0
								c0.1-0.5,0.6-0.9,1.1-0.8l0,0c0.5,0.1,0.9,0.6,0.9,1.1l0,0c-0.1,0.5-0.5,0.9-1,0.9l0,0C94.9,57.2,94.8,57.2,94.8,57.2z"/>
							<path class="st0" d="M117.5,64.3c-0.1,0-0.3,0-0.4-0.1s-0.2-0.1-0.3-0.2c-0.2-0.2-0.3-0.5-0.3-0.7c0-0.3,0.1-0.5,0.3-0.7
								c0.1-0.1,0.2-0.2,0.3-0.2c0.2-0.1,0.5-0.1,0.8,0c0.1,0,0.2,0.1,0.3,0.2c0.2,0.2,0.3,0.4,0.3,0.7s-0.1,0.5-0.3,0.7
								C118.1,64.2,117.8,64.3,117.5,64.3z"/>
						</g>
						<g>
							<path class="st0" d="M69.5,34.2c-0.1,0-0.1,0-0.2,0s-0.1,0-0.2-0.1C69,34.1,69,34,68.9,34s-0.1-0.1-0.2-0.1l-0.1-0.1
								c0,0-0.1-0.1-0.1-0.2c0-0.1,0-0.1-0.1-0.2c0-0.1,0-0.1,0-0.2c0-0.1,0-0.3,0.1-0.4c0-0.1,0.1-0.2,0.2-0.3c0.4-0.4,1-0.4,1.4,0
								c0.1,0.1,0.2,0.2,0.2,0.3s0.1,0.2,0.1,0.4c0,0.1,0,0.1,0,0.2c0,0.1,0,0.1-0.1,0.2c0,0.1-0.1,0.1-0.1,0.2
								c0,0.1-0.1,0.1-0.1,0.1C70.1,34,70,34,70,34c-0.1,0-0.1,0.1-0.2,0.1s-0.1,0-0.2,0.1C69.6,34.2,69.5,34.2,69.5,34.2z"/>
							<path class="st0" d="M72.7,29.3c-0.4-0.4-0.5-1-0.1-1.4l0,0l0,0l0,0c0.4-0.4,1-0.5,1.4-0.1l0,0c0.4,0.4,0.5,1,0.1,1.4l0,0
								c-0.2,0.2-0.5,0.4-0.8,0.4l0,0C73.1,29.5,72.9,29.5,72.7,29.3z M76.7,24.8c-0.4-0.4-0.4-1,0-1.4l0,0c0.4-0.4,1-0.4,1.4,0l0,0
								c0.4,0.4,0.4,1,0,1.4l0,0c-0.2,0.2-0.5,0.3-0.7,0.3l0,0C77.1,25,76.9,24.9,76.7,24.8z M81.1,20.5c-0.3-0.4-0.3-1,0.1-1.4l0,0
								c0.4-0.4,1-0.3,1.4,0.1l0,0c0.4,0.4,0.3,1.1-0.1,1.4l0,0c-0.2,0.1-0.4,0.2-0.6,0.2l0,0C81.6,20.9,81.3,20.8,81.1,20.5z"/>
							<path class="st0" d="M87,17.6c-0.1,0-0.3,0-0.4-0.1c-0.1,0-0.2-0.1-0.3-0.2c-0.2-0.2-0.3-0.4-0.3-0.7c0-0.1,0-0.3,0.1-0.4
								c0-0.1,0.1-0.2,0.2-0.3s0.2-0.2,0.3-0.2c0.2-0.1,0.4-0.1,0.6-0.1c0.1,0,0.1,0,0.2,0.1c0.1,0,0.1,0,0.2,0.1
								c0,0,0.1,0.1,0.2,0.1c0.1,0.1,0.2,0.2,0.2,0.3c0,0.1,0.1,0.2,0.1,0.4c0,0.1,0,0.1,0,0.2s0,0.1-0.1,0.2c0,0.1-0.1,0.1-0.1,0.2
								s-0.1,0.1-0.1,0.2c0,0-0.1,0.1-0.2,0.1s-0.1,0.1-0.2,0.1s-0.1,0.1-0.2,0.1C87.1,17.6,87,17.6,87,17.6z"/>
						</g>
						<g>
							<path class="st0" d="M54.3,34.1c-0.3,0-0.5-0.1-0.7-0.3s-0.3-0.4-0.3-0.7c0-0.1,0-0.3,0.1-0.4c0.1-0.1,0.1-0.2,0.2-0.3
								c0.4-0.4,1-0.4,1.4,0c0.1,0.1,0.2,0.2,0.2,0.3s0.1,0.2,0.1,0.4c0,0.3-0.1,0.5-0.3,0.7S54.6,34.1,54.3,34.1z"/>
							<path class="st0" d="M49.7,29.1c-0.4-0.4-0.3-1.1,0.1-1.4l0,0c0.4-0.4,1-0.3,1.4,0.1l0,0c0.3,0.4,0.3,1-0.1,1.4l0,0
								c-0.2,0.2-0.4,0.2-0.6,0.2l0,0C50.2,29.4,49.9,29.3,49.7,29.1z M45.6,24.6L45.6,24.6L45.6,24.6c-0.4-0.4-0.4-1,0-1.4l0,0
								c0.4-0.4,1-0.4,1.4,0l0,0c0.4,0.4,0.4,1,0,1.4l0,0c-0.2,0.2-0.5,0.3-0.7,0.3l0,0C46.1,24.9,45.8,24.8,45.6,24.6z M41.2,20.5
								L41.2,20.5L41.2,20.5c-0.4-0.3-0.5-1-0.1-1.4l0,0c0.4-0.4,1-0.5,1.4-0.1l0,0c0.4,0.4,0.5,1,0.2,1.4l0,0
								c-0.2,0.2-0.5,0.4-0.8,0.4l0,0C41.6,20.7,41.4,20.7,41.2,20.5z"/>
							<path class="st0" d="M36.7,17.6c-0.3,0-0.5-0.1-0.7-0.3c-0.2-0.2-0.3-0.4-0.3-0.7c0-0.3,0.1-0.5,0.3-0.7
								c0.1-0.1,0.2-0.2,0.3-0.2c0.2-0.1,0.4-0.1,0.6,0c0.1,0,0.1,0,0.2,0c0.1,0,0.1,0.1,0.2,0.1c0.1,0,0.1,0.1,0.1,0.1
								c0.2,0.2,0.3,0.4,0.3,0.7c0,0.3-0.1,0.5-0.3,0.7c0,0.1-0.1,0.1-0.1,0.1s-0.1,0.1-0.2,0.1c-0.1,0-0.1,0-0.2,0.1
								C36.8,17.5,36.7,17.6,36.7,17.6z"/>
						</g>
						<path class="st0" d="M33.5,116.2c-0.2,0-0.3,0-0.5-0.1c-3.3-1.9-3.1-8.6,0.6-19.8c3.5-10.5,9.6-23.6,17.2-36.8
							c0.3-0.5,0.9-0.6,1.4-0.4c0.5,0.3,0.6,0.9,0.4,1.4c-7.6,13.1-13.6,26-17,36.4c-3.7,11.4-3.2,16.5-1.5,17.5
							c0.5,0.3,0.6,0.9,0.4,1.4C34.1,116,33.8,116.2,33.5,116.2z"/>
						<path class="st0" d="M90.4,116.2c-0.3,0-0.7-0.2-0.9-0.5c-0.3-0.5-0.1-1.1,0.4-1.4c3.8-2.2-0.6-22.7-18.6-53.9
							c-0.3-0.5-0.1-1.1,0.4-1.4c0.5-0.3,1.1-0.1,1.4,0.4c14,24.3,25.1,52.4,17.8,56.6C90.7,116.1,90.6,116.2,90.4,116.2z"/>
						<path class="st0" d="M5,66.9c-0.6,0-1-0.4-1-1C4,57.5,33.8,53,61.9,53c0.6,0,1,0.4,1,1s-0.4,1-1,1C25.9,55,6,61.5,6,65.9
							C6,66.4,5.6,66.9,5,66.9z"/>
						<g>
							<path class="st1" d="M73.3,91.8H50.6v11c0,0.5,0.1,1.1,0.3,1.6l0,0l2.1,5l0,0c1,2.3,4.6,4,8.9,4s7.9-1.7,8.9-4l0,0l2.1-5l0,0
								c0.2-0.5,0.3-1,0.3-1.6v-11H73.3z"/>
							<path class="st2" d="M61.9,113.4c4.3,0,7.9-1.7,8.9-4l0,0l2.1-5l0,0c0.2-0.5,0.3-1,0.3-1.6v-11H61.9V113.4z"/>
							<path class="st3" d="M61.9,109.3c-6.9,0-12.4-3.3-12.4-7.6c0-0.6,0.4-1,1-1s1,0.4,1,1c0,3,4.7,5.6,10.4,5.6
								s10.4-2.5,10.4-5.6c0-0.6,0.4-1,1-1s1,0.4,1,1C74.3,106,68.9,109.3,61.9,109.3z"/>
							<path class="st3" d="M61.9,105c-6.9,0-12.4-3.3-12.4-7.6c0-0.6,0.4-1,1-1s1,0.4,1,1c0,3,4.7,5.6,10.4,5.6s10.4-2.5,10.4-5.6
								c0-0.6,0.4-1,1-1s1,0.4,1,1C74.3,101.7,68.9,105,61.9,105z"/>
							<path class="st3" d="M61.9,114.4c-4.6,0-8.5-1.8-9.7-4.5l-0.1-0.1l-2.1-5c0-0.1,0-0.1-0.1-0.2c-0.2-0.6-0.4-1.2-0.4-1.8v-11
								c0-0.6,0.4-1,1-1h22.7c0.6,0,1,0.4,1,1v11c0,0.6-0.1,1.2-0.4,1.8c0,0.1,0,0.1-0.1,0.2l-2.1,5c0,0.1,0,0.1-0.1,0.1
								C70.4,112.6,66.5,114.4,61.9,114.4z M53.9,108.8C53.9,108.8,53.9,108.9,53.9,108.8c0.8,1.8,3.8,3.5,8.1,3.5s7.2-1.7,8-3.4
								c0,0,0-0.1,0.1-0.1l2-4.7c0-0.1,0-0.1,0.1-0.1c0.2-0.4,0.3-0.8,0.3-1.2v-10H51.6v10c0,0.4,0.1,0.8,0.3,1.2
								c0,0.1,0,0.1,0.1,0.2L53.9,108.8z"/>
							<path class="st4" d="M89.2,58.8c0-15.7-13.3-28.4-29.3-27.2c-13.6,1-24.4,12.1-25.1,25.7c-0.5,9.8,4.1,18.5,11.5,23.7
								c2.8,2,4.4,5.2,4.4,8.7v2l0,0v0.1c0,3.6,5.1,6.6,11.4,6.6s11.4-2.9,11.4-6.6v-0.1l0,0v-2c0-3.4,1.6-6.7,4.4-8.6
								C84.7,76.1,89.2,68,89.2,58.8z"/>
							<path class="st3" d="M61.9,99.4c-6.9,0-12.4-3.3-12.4-7.6l0,0c0,0,0,0,0-0.1v-2c0-3.2-1.5-6.1-4-7.9
								c-8-5.6-12.4-14.8-11.9-24.6c0.7-14.1,11.9-25.6,26-26.7c8-0.6,15.6,2.1,21.4,7.5c5.7,5.3,9,12.9,9,20.7
								c0,9.1-4.4,17.7-11.9,23c-2.5,1.8-4,4.7-4,7.8v2v0.1C74.2,96.1,68.8,99.4,61.9,99.4z M51.6,91.6c0,0.1,0,0.1,0,0.2v0.1
								c0,2.9,4.7,5.5,10.4,5.5s10.4-2.5,10.4-5.6v-0.1l0,0v-2c0-3.8,1.8-7.3,4.8-9.5c6.9-4.9,11-12.9,11-21.4
								c0-7.3-3.1-14.3-8.4-19.2c-5.4-5-12.5-7.5-19.9-6.9c-13.1,1-23.5,11.6-24.2,24.8c-0.5,9.1,3.7,17.6,11,22.8
								c3,2.1,4.8,5.7,4.8,9.5L51.6,91.6L51.6,91.6z M73.3,91.7L73.3,91.7L73.3,91.7z"/>
							<path class="st4" d="M61.9,96.2c5.2,0,9.1-2.3,9.2-4.4v-0.1c0-0.1,0-0.2,0-0.3v-1.8c0-4.2,2-8.1,5.3-10.4
								c7.1-5,11-13.2,10.6-21.8c-0.7-12.6-10.6-22.8-23.1-23.7c-0.6,0-1.3-0.1-1.9-0.1c-13.8,0-25.1,11.3-25.1,25.1
								c0,8.1,4,15.8,10.6,20.5c3.3,2.4,5.3,6.2,5.3,10.4v1.8c0,0.1,0,0.1,0,0.2v0.1C52.8,94,56.7,96.2,61.9,96.2z"/>
							<path class="st1" d="M61.9,95.2c-5,0-8.1-2.2-8.2-3.4v-0.1c0-0.1,0-0.2,0-0.3c0-0.2,0-0.6,0-1.1c0-0.6,0.2-1.2,0.7-1.6
								c0.4-0.4,1-0.7,1.6-0.7c3.8,0,6.9-3.1,6.9-6.9V46.3c0-5.2,4.3-8.4,8.4-8.4c1.7,0,3.4,0.6,4.8,1.6c5.8,4.4,9.5,11.1,9.9,18
								c0.4,8.3-3.4,16.2-10.2,21c-2.8,2-4.7,4.9-5.4,8.3c0,0.2-0.1,0.5-0.1,0.7c0,0.3-0.1,0.5-0.1,0.7v0.1c0,0.3,0,0.4,0,0.6
								c0,0.3,0,0.5,0,0.8v1.8c0,0,0,0.2,0,0.3c0,0,0,0,0,0.1C70,93.1,66.9,95.2,61.9,95.2z"/>
							
								<ellipse transform="matrix(0.7071 -0.7071 0.7071 0.7071 -18.4117 47.7088)" class="st1" cx="48.4" cy="46.1" rx="5" ry="2.9"/>
						</g>
						<path class="st0" d="M34.9,116.6c-0.7,0-1.4-0.2-2-0.5c-0.5-0.3-0.6-0.9-0.4-1.4s0.9-0.6,1.4-0.4c1.7,1,6.4-1.1,14.3-10.1
							c7.3-8.1,15.4-19.8,23-33c18-31.2,22.4-51.6,18.6-53.9c-0.5-0.3-0.6-0.9-0.4-1.4c0.3-0.5,0.9-0.6,1.4-0.4
							C98,19.7,87,47.8,73,72.1c-7.6,13.2-15.9,25.1-23.3,33.3C43.3,112.9,38.3,116.6,34.9,116.6z"/>
						<circle class="st5" cx="90.4" cy="16.6" r="4.1"/>
						
							<ellipse transform="matrix(0.7071 -0.7071 0.7071 0.7071 15.3308 67.3892)" class="st4" cx="89" cy="15.2" rx="2.4" ry="1.6"/>
						<path class="st0" d="M90.4,21.7c-1.4,0-2.7-0.5-3.6-1.5c-1-1-1.5-2.3-1.5-3.6c0-1.4,0.5-2.7,1.5-3.6c1-1,2.3-1.5,3.6-1.5
							c1.4,0,2.7,0.5,3.6,1.5c1,1,1.5,2.3,1.5,3.6c0,1.4-0.5,2.7-1.5,3.6C93.1,21.2,91.8,21.7,90.4,21.7z M90.4,13.4
							c-0.8,0-1.6,0.3-2.2,0.9c-0.6,0.6-0.9,1.4-0.9,2.2c0,0.8,0.3,1.6,0.9,2.2l0,0c1.2,1.2,3.2,1.2,4.4,0c0.6-0.6,0.9-1.4,0.9-2.2
							c0-0.8-0.3-1.6-0.9-2.2C92,13.8,91.2,13.4,90.4,13.4z"/>
						<path class="st0" d="M89,116.5c-8.2,0-25.2-21.8-38.2-44.2C43.2,59.1,37.1,46,33.6,35.5c-3.7-11.2-3.9-17.9-0.6-19.8
							c0.5-0.3,1.1-0.1,1.4,0.4c0.3,0.5,0.1,1.1-0.4,1.4c-1.7,1-2.2,6.1,1.5,17.5c3.4,10.4,9.5,23.3,17,36.4
							c16.8,29.1,31.4,43.2,36.4,43.2c0.4,0,0.7-0.1,0.9-0.2c0.5-0.3,1.1-0.1,1.4,0.4s0.1,1.1-0.4,1.4
							C90.3,116.4,89.7,116.5,89,116.5z"/>
						<circle class="st5" cx="33.5" cy="16.6" r="4.1"/>
						
							<ellipse transform="matrix(0.7071 -0.7071 0.7071 0.7071 -1.3215 27.142)" class="st4" cx="32.1" cy="15.2" rx="2.4" ry="1.6"/>
						<path class="st0" d="M33.5,21.7c-1.3,0-2.6-0.5-3.6-1.5l0,0c-2-2-2-5.3,0-7.3s5.3-2,7.3,0s2,5.3,0,7.3
							C36.1,21.2,34.8,21.7,33.5,21.7z M31.2,18.8c1.2,1.2,3.2,1.2,4.4,0s1.2-3.2,0-4.4s-3.2-1.2-4.4,0C30,15.6,30,17.6,31.2,18.8
							L31.2,18.8z"/>
						<path class="st0" d="M61.9,78.7C33.8,78.7,4,74.2,4,65.9c0-0.6,0.4-1,1-1s1,0.4,1,1c0,4.4,19.9,10.8,55.9,10.8
							s55.9-6.4,55.9-10.8c0-0.6,0.4-1,1-1s1,0.4,1,1C119.9,74.2,90,78.7,61.9,78.7z"/>
						<circle class="st5" cx="118.9" cy="65.9" r="4.1"/>
						
							<ellipse transform="matrix(0.7071 -0.7071 0.7071 0.7071 -11.1697 101.9651)" class="st4" cx="117.5" cy="64.5" rx="2.4" ry="1.6"/>
						<path class="st0" d="M118.9,71c-1.4,0-2.7-0.5-3.6-1.5l0,0c-1-1-1.5-2.3-1.5-3.6c0-1.4,0.5-2.7,1.5-3.6c1-1,2.3-1.5,3.6-1.5
							c1.4,0,2.7,0.5,3.6,1.5c1,1,1.5,2.3,1.5,3.6c0,1.4-0.5,2.7-1.5,3.6C121.5,70.5,120.2,71,118.9,71z M118.9,62.8
							c-0.8,0-1.6,0.3-2.2,0.9s-0.9,1.4-0.9,2.2s0.3,1.6,0.9,2.2l0,0c1.2,1.2,3.3,1.2,4.4,0c0.6-0.6,0.9-1.4,0.9-2.2
							c0-0.8-0.3-1.6-0.9-2.2C120.5,63.1,119.7,62.8,118.9,62.8z"/>
					</g>
				</g>
				<rect x="4" y="4" class="st6" width="120" height="120"/>
				<rect x="4" y="4" class="st6" width="120" height="120"/>
			</g>
		</g>
	</g>
	<g>
		<rect class="st6" width="128" height="128"/>
	</g>
</g>
</svg>
