<?xml version="1.0" encoding="utf-8"?>
<!-- Generator: Adobe Illustrator 24.1.0, SVG Export Plug-In . SVG Version: 6.00 Build 0)  -->
<svg version="1.1" id="Layer_1" xmlns="http://www.w3.org/2000/svg" xmlns:xlink="http://www.w3.org/1999/xlink" x="0px" y="0px"
	 viewBox="0 0 128 128" style="enable-background:new 0 0 128 128;" xml:space="preserve">
<style type="text/css">
	.st0{fill:none;}
	.st1{fill:#185849;}
	.st2{fill:#0E352C;}
	.st3{fill:#E9EBDF;}
	.st4{fill:#4D9987;}
	.st5{fill:#FFFFFF;}
	.st6{fill:#27ae60;}
	.st7{fill:#C4D7D3;}
</style>
<g id="Layer_1_1_">
</g>
<g>
	<g id="Layer_2_1_">
		<g id="New_Illustrations_1_">
			<g>
				<rect x="4" y="4" class="st0" width="120" height="120"/>
				<rect x="4" y="4" class="st0" width="120" height="120"/>
				<g>
					<g>
						<path class="st1" d="M91.4,59.2c-0.3,0-0.5-0.1-0.7-0.3s-0.3-0.4-0.3-0.7s0.1-0.5,0.3-0.7c0.3-0.3,0.7-0.4,1.1-0.2
							c0.1,0,0.2,0.1,0.3,0.2c0.2,0.2,0.3,0.4,0.3,0.7s-0.1,0.5-0.3,0.7c-0.1,0.1-0.2,0.2-0.3,0.2C91.7,59.2,91.5,59.2,91.4,59.2z"
							/>
						<path class="st1" d="M91.2,89.3c-0.6,0-1-0.5-1-1l0,0c0-0.5,0.5-1,1-1l0,0c0.6,0,1,0.5,1,1l0,0C92.2,88.9,91.7,89.3,91.2,89.3
							L91.2,89.3L91.2,89.3z M91.2,83.3c-0.5,0-1-0.5-1-1l0,0c0-0.6,0.5-1,1-1l0,0c0.6,0,1,0.5,1,1l0,0
							C92.2,82.9,91.8,83.3,91.2,83.3L91.2,83.3L91.2,83.3z M91.3,77.3c-0.6,0-1-0.5-1-1l0,0c0-0.6,0.5-1,1-1l0,0c0.6,0,1,0.5,1,1
							l0,0C92.3,76.8,91.8,77.3,91.3,77.3L91.3,77.3L91.3,77.3z M91.3,71.3c-0.6,0-1-0.5-1-1l0,0c0-0.6,0.5-1,1-1l0,0
							c0.5,0,1,0.5,1,1l0,0C92.3,70.8,91.9,71.3,91.3,71.3L91.3,71.3L91.3,71.3z M91.3,65.2c-0.6,0-1-0.4-1-1l0,0c0-0.6,0.5-1,1-1
							l0,0c0.5,0,1,0.5,1,1l0,0C92.4,64.8,91.9,65.2,91.3,65.2L91.3,65.2C91.4,65.2,91.4,65.2,91.3,65.2z"/>
						<path class="st1" d="M91.1,95.3c-0.3,0-0.5-0.1-0.7-0.3c-0.2-0.2-0.3-0.4-0.3-0.7s0.1-0.5,0.3-0.7c0.4-0.4,1-0.4,1.4,0
							c0.2,0.2,0.3,0.4,0.3,0.7S92,94.8,91.8,95C91.7,95.2,91.4,95.3,91.1,95.3z"/>
					</g>
					<g>
						<path class="st2" d="M36.6,59.2c-0.1,0-0.3,0-0.4-0.1C36.1,59,36,59,35.9,58.9c-0.1-0.1-0.2-0.2-0.2-0.3
							c-0.1-0.1-0.1-0.2-0.1-0.4s0-0.3,0.1-0.4c0-0.1,0.1-0.2,0.2-0.3c0.4-0.4,1-0.4,1.4,0c0.2,0.2,0.3,0.4,0.3,0.7
							s-0.1,0.5-0.3,0.7C37.1,59.1,36.9,59.2,36.6,59.2z"/>
						<path class="st2" d="M35.8,88.3c0-0.6,0.4-1,1-1l0,0c0.5,0,1,0.4,1,1l0,0c0,0.6-0.4,1-1,1l0,0l0,0l0,0
							C36.3,89.3,35.8,88.9,35.8,88.3z M35.8,82.3c0-0.5,0.4-1,1-1l0,0c0.5,0,1,0.4,1,1l0,0c0,0.5-0.4,1-1,1l0,0l0,0l0,0
							C36.2,83.3,35.8,82.9,35.8,82.3z M35.7,76.3c0-0.6,0.4-1,1-1l0,0c0.5,0,1,0.4,1,1l0,0c0,0.5-0.4,1-1,1l0,0l0,0l0,0
							C36.2,77.3,35.7,76.8,35.7,76.3z M35.7,70.3c0-0.6,0.4-1,1-1l0,0c0.5,0,1,0.4,1,1l0,0c0,0.5-0.4,1-1,1l0,0l0,0l0,0
							C36.1,71.3,35.7,70.8,35.7,70.3z M35.6,64.2c0-0.6,0.4-1,1-1l0,0c0.5,0,1,0.4,1,1l0,0c0,0.6-0.4,1-1,1l0,0l0,0l0,0
							C36.1,65.2,35.6,64.8,35.6,64.2z"/>
						<path class="st2" d="M36.9,95.3c-0.1,0-0.3,0-0.4-0.1c-0.1-0.1-0.2-0.1-0.3-0.2S36,94.8,36,94.7s-0.1-0.2-0.1-0.4
							c0-0.3,0.1-0.5,0.3-0.7c0.1-0.1,0.2-0.2,0.3-0.2c0.4-0.2,0.8-0.1,1.1,0.2c0.2,0.2,0.3,0.4,0.3,0.7c0,0.1,0,0.3-0.1,0.4
							s-0.1,0.2-0.2,0.3C37.4,95.2,37.1,95.3,36.9,95.3z"/>
					</g>
					<g>
						<g>
							<g>
								<g>
									<g>
										<path class="st3" d="M88.5,93.4c-0.2-0.1-0.3-0.2-0.5-0.3c-13.3-7.7-34.8-7.7-48.1,0c-0.2,0.1-0.3,0.2-0.5,0.3H30v10
											c0,5,3.3,10,10,13.9c13.3,7.7,34.8,7.7,48.1,0c6.6-3.8,10-8.9,10-13.9v-10H88.5z"/>
										<path class="st4" d="M64,124c-8.9,0-17.8-2-24.5-5.9C32.7,114.2,29,109,29,103.4v-10c0-0.6,0.4-1,1-1h9.2
											c0.1,0,0.2-0.1,0.2-0.1c13.5-7.8,35.6-7.8,49.1,0c0.1,0,0.2,0.1,0.2,0.1H98c0.6,0,1,0.4,1,1v10c0,5.6-3.7,10.9-10.5,14.7
											C81.8,122,72.9,124,64,124z M31,94.4v9c0,4.9,3.4,9.5,9.5,13c13,7.5,34.1,7.5,47.1,0c6.1-3.5,9.5-8.1,9.5-13v-9h-8.5
											c-0.2,0-0.4,0-0.5-0.1L87.5,94c-13-7.5-34.1-7.5-47.1,0L40,94.2c-0.2,0.1-0.3,0.1-0.5,0.1H31V94.4z"/>
									</g>
									<path class="st4" d="M88,117.2c6.6-3.8,10-8.9,10-13.9v-10h-9.5c-0.2-0.1-0.3-0.2-0.5-0.3c-6.6-3.8-15.3-5.8-24-5.8V123
										C72.7,123,81.4,121.1,88,117.2z"/>
									<ellipse class="st3" cx="64" cy="93.4" rx="34" ry="19.6"/>
									<g>
										<ellipse class="st4" cx="64" cy="93.4" rx="27.2" ry="14.7"/>
										<path class="st4" d="M64,109.1c-7.1,0-14.3-1.5-19.7-4.4c-5.5-3-8.5-7-8.5-11.3s3-8.3,8.5-11.3c10.9-5.9,28.6-5.9,39.4,0
											c5.5,3,8.5,7,8.5,11.3s-3,8.3-8.5,11.3C78.3,107.6,71.1,109.1,64,109.1z M64,79.6c-6.8,0-13.6,1.4-18.8,4.2
											c-4.8,2.6-7.4,6-7.4,9.5c0,3.6,2.6,6.9,7.4,9.5c10.3,5.6,27.2,5.6,37.5,0c4.8-2.6,7.4-6,7.4-9.5c0-3.6-2.6-6.9-7.4-9.5
											l0,0C77.6,81,70.8,79.6,64,79.6z"/>
									</g>
									<g>
										<path class="st5" d="M83.2,84.9c-10.6-5.8-27.8-5.8-38.5,0c-4.9,2.6-7.5,6-7.9,9.5c0.4,3.4,3,6.8,7.9,9.5
											c10.6,5.8,27.8,5.8,38.5,0c4.9-2.6,7.5-6,7.9-9.5C90.7,90.9,88.1,87.5,83.2,84.9z"/>
										<path class="st4" d="M64,109.1c-7.1,0-14.3-1.5-19.7-4.4c-5-2.7-8-6.3-8.4-10.2c0-0.1,0-0.2,0-0.2
											c0.5-3.9,3.5-7.5,8.4-10.2c10.9-5.9,28.6-5.9,39.4,0l0,0c5,2.7,8,6.3,8.4,10.2c0,0.1,0,0.2,0,0.2
											c-0.5,3.9-3.5,7.5-8.4,10.2C78.3,107.6,71.1,109.1,64,109.1z M37.9,94.3c0.4,3.2,3,6.2,7.4,8.6c10.3,5.6,27.2,5.6,37.5,0
											c4.3-2.3,6.9-5.4,7.4-8.6c-0.4-3.2-3-6.2-7.4-8.6l0,0c-10.3-5.6-27.2-5.6-37.5,0C40.9,88.1,38.3,91.2,37.9,94.3z"/>
									</g>
									<path class="st5" d="M64,114c-8.9,0-17.8-2-24.5-5.9C32.7,104.2,29,99,29,93.4s3.7-10.9,10.5-14.7
										c13.5-7.8,35.6-7.8,49.1,0l0,0C95.3,82.5,99,87.8,99,93.4s-3.7,10.9-10.5,14.7C81.8,112,72.9,114,64,114z M64,74.7
										c-8.5,0-17.1,1.9-23.5,5.6c-6.1,3.5-9.5,8.1-9.5,13s3.4,9.5,9.5,13c13,7.5,34.1,7.5,47.1,0c6.1-3.5,9.5-8.1,9.5-13
										s-3.4-9.5-9.5-13C81.1,76.6,72.5,74.7,64,74.7z"/>
									<path class="st2" d="M64,124c-9.3,0-18-2.1-24.5-5.9C32.7,114.2,29,109,29,103.4v-10c0-5.6,3.7-10.9,10.5-14.7
										c13.5-7.8,35.6-7.8,49.1,0C95.3,82.5,99,87.8,99,93.4v10c0,2.1-0.5,4.1-1.5,6c-1.7,3.3-4.8,6.3-8.9,8.7
										c-3.3,1.9-7.2,3.4-11.5,4.4c-1,0.2-2.1,0.5-3.2,0.6c-2.1,0.4-4.3,0.6-6.5,0.7C66.2,124,65.1,124,64,124z M64,74.7
										c-8.5,0-17.1,1.9-23.5,5.6c-6.1,3.5-9.5,8.1-9.5,13v10c0,4.9,3.4,9.5,9.5,13C46.7,120,55.1,122,64,122c1.1,0,2.1,0,3.2-0.1
										c2.1-0.1,4.3-0.4,6.3-0.7c1-0.2,2.1-0.4,3.1-0.6c4.1-1,7.8-2.4,11-4.2c3.8-2.2,6.7-4.9,8.2-7.9c0.9-1.7,1.3-3.4,1.3-5.1
										v-10c0-4.9-3.4-9.5-9.5-13C81.1,76.6,72.5,74.7,64,74.7z"/>
									<g>
										<ellipse class="st2" cx="64" cy="95.3" rx="2.9" ry="1.6"/>
										<rect x="61.1" y="93.4" class="st2" width="5.8" height="1.9"/>
										<ellipse class="st4" cx="64" cy="93.4" rx="2.9" ry="1.6"/>
										<path class="st6" d="M64,104.9c-4.5,0-8.9-0.9-12.3-2.6c-3.5-1.8-5.5-4.3-5.5-7s1.9-5.2,5.5-7c0.5-0.3,1.1-0.1,1.3,0.4
											c0.3,0.5,0.1,1.1-0.4,1.3c-2.8,1.4-4.4,3.3-4.4,5.2s1.6,3.7,4.4,5.2c6.3,3.2,16.6,3.2,22.9,0c2.8-1.4,4.4-3.3,4.4-5.2
											s-1.6-3.7-4.4-5.2c-3-1.6-7.1-2.4-11.4-2.4c-0.6,0-1-0.4-1-1s0.4-1,1-1c4.6,0,9,0.9,12.3,2.6c3.5,1.8,5.5,4.3,5.5,7
											s-1.9,5.2-5.5,7C72.9,104,68.5,104.9,64,104.9z"/>
										<path class="st6" d="M53.6,92c-0.6,0-1-0.4-1-1v-1.6h-3.8c-0.6,0-1-0.4-1-1s0.4-1,1-1h4.8c0.6,0,1,0.4,1,1V91
											C54.6,91.5,54.2,92,53.6,92z"/>
									</g>
								</g>
							</g>
						</g>
					</g>
					<g>
						<g>
							<path class="st7" d="M83.7,39.1c-0.1-0.1-0.2-0.2-0.4-0.2c-10.7-6.2-28.1-6.2-38.8,0c-0.1,0.1-0.2,0.2-0.4,0.2h-7.7v9.1
								c0,4,2.7,8.1,8,11.2c10.7,6.2,28.1,6.2,38.8,0c5.4-3.1,8-7.1,8-11.2v-9.1H83.7z"/>
							<path class="st6" d="M83.4,59.4c5.4-3.1,8-7.1,8-11.2v-9.1h-7.7c-0.1-0.1-0.2-0.2-0.4-0.2C78,35.8,71,34.2,64,34.2V64
								C71,64,78,62.5,83.4,59.4z"/>
							<ellipse class="st7" cx="64" cy="39.1" rx="27.4" ry="15.8"/>
							<path class="st5" d="M64,55.9c-7.2,0-14.4-1.6-19.9-4.7c-5.5-3.2-8.5-7.5-8.5-12.1s3-8.9,8.5-12.1c11-6.3,28.8-6.3,39.8,0
								c5.5,3.2,8.5,7.5,8.5,12.1s-3,8.9-8.5,12.1C78.4,54.3,71.2,55.9,64,55.9z M64,24.3c-6.8,0-13.7,1.5-18.9,4.5
								c-4.9,2.8-7.5,6.5-7.5,10.3s2.7,7.5,7.5,10.3c10.4,6,27.3,6,37.8,0c4.9-2.8,7.5-6.5,7.5-10.3s-2.7-7.5-7.5-10.3l0,0
								C77.7,25.8,70.8,24.3,64,24.3z"/>
							<ellipse class="st0" cx="64" cy="48.2" rx="27.4" ry="15.8"/>
							<path class="st1" d="M64,65c-7.5,0-14.6-1.7-19.9-4.8c-5.5-3.2-8.5-7.5-8.5-12.1V39c0-4.6,3-8.9,8.5-12.1
								c11-6.3,28.8-6.3,39.8,0c5.5,3.2,8.5,7.5,8.5,12.1v9.1c0,1.7-0.4,3.4-1.2,5c-1.4,2.7-3.9,5.1-7.3,7.1
								c-2.7,1.6-5.8,2.8-9.3,3.6c-0.8,0.2-1.7,0.4-2.6,0.5c-1.7,0.3-3.5,0.5-5.3,0.6C65.8,65,64.9,65,64,65z M64,24.3
								c-6.8,0-13.7,1.5-18.9,4.5c-4.9,2.8-7.5,6.5-7.5,10.3v9.1c0,3.9,2.7,7.5,7.5,10.3c5,2.9,11.7,4.5,18.9,4.5
								c0.9,0,1.7,0,2.6-0.1c1.7-0.1,3.4-0.3,5.1-0.6c0.8-0.1,1.7-0.3,2.4-0.5c3.3-0.8,6.3-1.9,8.8-3.4c3.1-1.8,5.3-3.9,6.5-6.3
								c0.7-1.3,1-2.7,1-4l0,0V39c0-3.9-2.7-7.5-7.5-10.3C77.7,25.8,70.8,24.3,64,24.3z"/>
							<path class="st6" d="M74.6,43.5l2.9,1.7l-2.6,1.5l-2.8-1.6c-1.4,0.7-2.8,1.3-4.3,1.7c-1.5,0.5-2.9,0.7-4.2,0.8L61.9,45
								c1.1-0.1,2.3-0.3,3.5-0.6s2.3-0.7,3.3-1.2l-4.3-2.5c-1.5,0.5-2.9,1-4.1,1.2c-1.2,0.3-2.4,0.4-3.7,0.3
								C55.3,42,54,41.7,52.9,41c-1.4-0.8-2.1-1.8-2.1-3.1c0-1.2,0.9-2.4,2.6-3.7l-2.9-1.7l2.6-1.5l2.8,1.6c2.3-1.1,4.6-1.8,6.8-2.1
								l1.9,2.6c-2,0.3-3.8,0.8-5.3,1.5l4.4,2.6c1.5-0.5,2.8-1,4-1.2c1.2-0.3,2.4-0.4,3.7-0.3c1.3,0.1,2.5,0.4,3.6,1.1
								c1.4,0.8,2.1,1.8,2.1,3C77.2,41,76.3,42.2,74.6,43.5z M58.4,38.8c0.6,0,1.3-0.2,2.2-0.4l-3.7-2.1c-0.5,0.5-0.7,0.9-0.7,1.3
								c0,0.4,0.3,0.7,0.7,1C57.3,38.7,57.8,38.8,58.4,38.8 M67.6,39.5l3.6,2.1c0.5-0.4,0.7-0.8,0.7-1.2s-0.2-0.7-0.6-0.9
								s-1-0.4-1.6-0.3C69.1,39.1,68.4,39.2,67.6,39.5"/>
						</g>
						<g>
							<path class="st7" d="M83.7,30c-0.1-0.1-0.2-0.2-0.4-0.2c-10.7-6.2-28.1-6.2-38.8,0c-0.1,0.1-0.2,0.2-0.4,0.2h-7.7v9.1
								c0,4,2.7,8.1,8,11.2c10.7,6.2,28.1,6.2,38.8,0c5.4-3.1,8-7.1,8-11.2V30H83.7z"/>
							<path class="st6" d="M83.4,50.3c5.4-3.1,8-7.1,8-11.2V30h-7.7c-0.1-0.1-0.2-0.2-0.4-0.2C78,26.6,71,25.1,64,25.1v29.8
								C71,54.9,78,53.4,83.4,50.3z"/>
							<ellipse class="st7" cx="64" cy="30" rx="27.4" ry="15.8"/>
							<path class="st5" d="M64,46.8c-7.2,0-14.4-1.6-19.9-4.7c-5.5-3.2-8.5-7.5-8.5-12.1s3-8.9,8.5-12.1c11-6.3,28.8-6.3,39.8,0
								c5.5,3.2,8.5,7.5,8.5,12.1s-3,8.9-8.5,12.1C78.4,45.2,71.2,46.8,64,46.8z M64,15.1c-6.8,0-13.7,1.5-18.9,4.5
								c-4.9,2.8-7.5,6.5-7.5,10.3s2.7,7.5,7.5,10.3c10.4,6,27.3,6,37.8,0c4.9-2.8,7.5-6.5,7.5-10.3s-2.7-7.5-7.5-10.3l0,0
								C77.7,16.6,70.8,15.1,64,15.1z"/>
							<ellipse class="st0" cx="64" cy="39.1" rx="27.4" ry="15.8"/>
							<path class="st1" d="M64,55.9c-7.5,0-14.6-1.7-19.9-4.8c-5.5-3.2-8.5-7.5-8.5-12.1v-9c0-4.6,3-8.9,8.5-12.1
								c11-6.3,28.8-6.3,39.8,0c5.5,3.2,8.5,7.5,8.5,12.1v9.1c0,1.7-0.4,3.4-1.2,5c-1.4,2.7-3.9,5.1-7.3,7.1
								c-2.7,1.6-5.8,2.8-9.3,3.6c-0.8,0.2-1.7,0.4-2.6,0.5c-1.7,0.3-3.5,0.5-5.3,0.6C65.8,55.9,64.9,55.9,64,55.9z M64,15.1
								c-6.8,0-13.7,1.5-18.9,4.5c-4.9,2.8-7.5,6.5-7.5,10.3V39c0,3.9,2.7,7.5,7.5,10.3c5,2.9,11.7,4.5,18.9,4.5
								c0.9,0,1.7,0,2.6-0.1c1.7-0.1,3.4-0.3,5.1-0.6c0.8-0.1,1.7-0.3,2.4-0.5c3.3-0.8,6.3-1.9,8.8-3.4c3.1-1.8,5.3-3.9,6.5-6.3
								c0.7-1.3,1-2.7,1-4l0,0V30c0-3.9-2.7-7.5-7.5-10.3C77.7,16.6,70.8,15.1,64,15.1z"/>
							<path class="st6" d="M74.6,34.4l2.9,1.7l-2.6,1.5L72.1,36c-1.4,0.7-2.8,1.3-4.3,1.7c-1.5,0.5-2.9,0.7-4.2,0.8l-1.7-2.6
								c1.1-0.1,2.3-0.3,3.5-0.6s2.3-0.7,3.3-1.2l-4.3-2.5c-1.5,0.5-2.9,1-4.1,1.2C59,33,57.8,33.1,56.5,33s-2.5-0.5-3.7-1.1
								c-1.4-0.8-2.1-1.8-2.1-3.1c0-1.2,0.9-2.4,2.6-3.7l-2.9-1.7l2.6-1.5l2.8,1.6c2.3-1.1,4.6-1.8,6.8-2.1l1.9,2.6
								c-2,0.3-3.8,0.8-5.3,1.5l4.4,2.6c1.5-0.5,2.8-1,4-1.2c1.2-0.3,2.4-0.4,3.7-0.3c1.3,0.1,2.5,0.4,3.6,1.1
								c1.4,0.8,2.1,1.8,2.1,3C77.2,31.9,76.3,33.1,74.6,34.4z M58.4,29.7c0.6,0,1.3-0.2,2.2-0.4l-3.7-2.1c-0.5,0.5-0.7,0.9-0.7,1.3
								s0.3,0.7,0.7,1C57.3,29.6,57.8,29.7,58.4,29.7 M67.6,30.3l3.6,2.1c0.5-0.4,0.7-0.8,0.7-1.2c0-0.4-0.2-0.7-0.6-0.9
								c-0.4-0.2-1-0.4-1.6-0.3C69.1,30,68.4,30.1,67.6,30.3"/>
						</g>
						<g>
							<path class="st7" d="M83.7,20.8c-0.1-0.1-0.2-0.2-0.4-0.2c-10.7-6.2-28.1-6.2-38.8,0c-0.1,0.1-0.2,0.2-0.4,0.2h-7.7V30
								c0,4,2.7,8.1,8,11.2c10.7,6.2,28.1,6.2,38.8,0c5.4-3.1,8-7.1,8-11.2v-9.1h-7.5V20.8z"/>
							<path class="st6" d="M83.4,41.1c5.4-3.1,8-7.1,8-11.2v-9.1h-7.7c-0.1-0.1-0.2-0.2-0.4-0.2C78,17.5,71,16,64,16v29.8
								C71,45.8,78,44.2,83.4,41.1z"/>
							<ellipse class="st7" cx="64" cy="20.8" rx="27.4" ry="15.8"/>
							<path class="st5" d="M64,37.6c-7.2,0-14.4-1.6-19.9-4.7c-5.5-3.2-8.5-7.5-8.5-12.1s3-8.9,8.5-12.1c11-6.3,28.8-6.3,39.8,0
								l0,0c5.5,3.2,8.5,7.5,8.5,12.1s-3,8.9-8.5,12.1C78.4,36,71.2,37.6,64,37.6z M64,6c-6.8,0-13.7,1.5-18.9,4.5
								c-4.9,2.8-7.5,6.5-7.5,10.3s2.7,7.5,7.5,10.3c10.4,6,27.3,6,37.8,0c4.9-2.8,7.5-6.5,7.5-10.3s-2.7-7.5-7.5-10.3l0,0
								C77.7,7.5,70.8,6,64,6z"/>
							<ellipse class="st0" cx="64" cy="30" rx="27.4" ry="15.8"/>
							<path class="st1" d="M64,46.8c-7.5,0-14.6-1.7-19.9-4.8c-5.5-3.2-8.5-7.5-8.5-12.1v-9.1c0-4.6,3-8.9,8.5-12.1
								c11-6.3,28.8-6.3,39.8,0c5.5,3.2,8.5,7.5,8.5,12.1V30c0,1.7-0.4,3.4-1.2,5c-1.4,2.7-3.9,5.1-7.3,7.1
								c-2.7,1.6-5.8,2.8-9.3,3.6c-0.8,0.2-1.7,0.4-2.6,0.5c-1.7,0.3-3.5,0.5-5.3,0.6C65.8,46.7,64.9,46.8,64,46.8z M64,6
								c-6.8,0-13.7,1.5-18.9,4.5c-4.9,2.8-7.5,6.5-7.5,10.3V30c0,3.9,2.7,7.5,7.5,10.3c5,2.9,11.7,4.5,18.9,4.5
								c0.9,0,1.7,0,2.6-0.1c1.7-0.1,3.4-0.3,5.1-0.6c0.8-0.1,1.7-0.3,2.4-0.5c3.3-0.8,6.3-1.9,8.8-3.4c3.1-1.8,5.3-3.9,6.5-6.3
								c0.7-1.3,1-2.7,1-4l0,0v-9.1c0-3.9-2.7-7.5-7.5-10.3C77.7,7.5,70.8,6,64,6z"/>
							<path class="st6" d="M74.6,25.2l2.9,1.7l-2.6,1.5l-2.8-1.6c-1.4,0.7-2.8,1.3-4.3,1.7c-1.5,0.5-2.9,0.7-4.2,0.8l-1.7-2.6
								c1.1-0.1,2.3-0.3,3.5-0.6c1.2-0.3,2.3-0.7,3.3-1.2l-4.3-2.5c-1.5,0.5-2.9,1-4.1,1.2c-1.2,0.3-2.4,0.4-3.7,0.3
								s-2.5-0.5-3.7-1.1c-1.4-0.8-2.1-1.8-2.1-3.1c0-1.2,0.9-2.4,2.6-3.7l-2.9-1.7l2.6-1.5l2.8,1.6c2.3-1.1,4.6-1.8,6.8-2.1
								l1.9,2.6c-2,0.3-3.8,0.8-5.3,1.5l4.4,2.6c1.5-0.5,2.8-1,4-1.2c1.2-0.3,2.4-0.4,3.7-0.3c1.3,0.1,2.5,0.4,3.6,1.1
								c1.4,0.8,2.1,1.8,2.1,3C77.2,22.7,76.3,24,74.6,25.2z M58.4,20.5c0.6,0,1.3-0.2,2.2-0.4L56.8,18c-0.5,0.5-0.7,0.9-0.7,1.3
								s0.3,0.7,0.7,1C57.3,20.4,57.8,20.6,58.4,20.5 M67.6,21.2l3.6,2.1c0.5-0.4,0.7-0.8,0.7-1.2c0-0.4-0.2-0.7-0.6-0.9
								c-0.4-0.2-1-0.4-1.6-0.3C69.1,20.8,68.4,21,67.6,21.2"/>
						</g>
					</g>
				</g>
			</g>
		</g>
	</g>
	<g>
		<rect class="st0" width="128" height="128"/>
	</g>
</g>
</svg>
