<?xml version="1.0" encoding="utf-8"?>
<!-- Generator: Adobe Illustrator 24.1.0, SVG Export Plug-In . SVG Version: 6.00 Build 0)  -->
<svg version="1.1" id="Layer_1" xmlns="http://www.w3.org/2000/svg" xmlns:xlink="http://www.w3.org/1999/xlink" x="0px" y="0px"
	 viewBox="0 0 128 128" style="enable-background:new 0 0 128 128;" xml:space="preserve">
<style type="text/css">
	.st0{fill:#0E352C;}
	.st1{fill:#185849;}
	.st2{fill:#E9EBDF;}
	.st3{fill:#4D9987;}
	.st4{fill:#FFFFFF;}
	.st5{fill:#C4D7D3;}
	.st6{fill:#27ae60;}
	.st7{fill:none;}
</style>
<g id="Layer_1_1_">
</g>
<g>
	<g id="Layer_2_1_">
		<g id="Tech_Concepts_1_">
			<g>
				<g>
					<g>
						<g>
							<path class="st0" d="M22,43.2c-0.3,0-0.5-0.1-0.7-0.3S21,42.5,21,42.2c0-0.1,0-0.3,0.1-0.4c0-0.1,0.1-0.2,0.2-0.3l0.1-0.1
								c0.1,0,0.1-0.1,0.2-0.1s0.1-0.1,0.2-0.1s0.3,0,0.4,0s0.1,0,0.2,0.1c0.1,0,0.1,0,0.2,0.1c0.1,0,0.1,0.1,0.1,0.1l0.1,0.1
								c0,0.1,0.1,0.1,0.1,0.2C23,41.9,23,42,23,42.2s0,0.3-0.1,0.4c0,0.1-0.1,0.2-0.2,0.3C22.5,43.1,22.2,43.2,22,43.2z"/>
							<path class="st0" d="M21,74.5c0-0.6,0.4-1,1-1l0,0c0.6,0,1,0.5,1,1l0,0c0,0.6-0.4,1-1,1l0,0C21.4,75.5,21,75.1,21,74.5z
								 M21,68c0-0.5,0.4-1,1-1l0,0c0.6,0,1,0.5,1,1l0,0c0,0.6-0.4,1-1,1l0,0C21.4,69,21,68.6,21,68z M21,61.6c0-0.6,0.4-1,1-1l0,0
								c0.6,0,1,0.4,1,1l0,0c0,0.5-0.4,1-1,1l0,0C21.4,62.6,21,62.1,21,61.6z M21,55.1c0-0.5,0.4-1,1-1l0,0c0.6,0,1,0.5,1,1l0,0
								c0,0.6-0.4,1-1,1l0,0C21.4,56.1,21,55.6,21,55.1z M21,48.6c0-0.5,0.4-1,1-1l0,0c0.6,0,1,0.5,1,1l0,0c0,0.5-0.4,1-1,1l0,0
								C21.4,49.6,21,49.2,21,48.6z"/>
							<path class="st0" d="M22,82c-0.1,0-0.3,0-0.4-0.1c-0.1,0-0.2-0.1-0.3-0.2c-0.1-0.1-0.2-0.2-0.2-0.3C21,81.2,21,81.1,21,81
								s0-0.3,0.1-0.4c0-0.1,0.1-0.2,0.2-0.3c0-0.1,0.1-0.1,0.1-0.1c0.1,0,0.1-0.1,0.2-0.1s0.1,0,0.2,0s0.3,0,0.4,0s0.1,0,0.2,0
								s0.1,0.1,0.2,0.1s0.1,0.1,0.1,0.1c0.2,0.2,0.3,0.4,0.3,0.7c0,0.3-0.1,0.5-0.3,0.7c-0.1,0.1-0.2,0.2-0.3,0.2
								C22.2,82,22.1,82,22,82z"/>
						</g>
						<g>
							<path class="st1" d="M106,42.5c-0.3,0-0.5-0.1-0.7-0.3s-0.3-0.4-0.3-0.7c0-0.1,0-0.3,0.1-0.4c0-0.1,0.1-0.2,0.2-0.3l0.1-0.1
								c0,0,0.1-0.1,0.2-0.1s0.1,0,0.2-0.1c0.1,0,0.3,0,0.4,0s0.1,0,0.2,0.1c0.1,0,0.1,0.1,0.2,0.1l0.1,0.1c0.1,0.1,0.2,0.2,0.2,0.3
								s0.1,0.2,0.1,0.4c0,0.3-0.1,0.5-0.3,0.7c-0.1,0.1-0.2,0.2-0.3,0.2C106.3,42.4,106.1,42.5,106,42.5z"/>
							<path class="st1" d="M105,75.3c0-0.5,0.4-1,1-1l0,0c0.6,0,1,0.5,1,1l0,0c0,0.5-0.5,1-1,1l0,0C105.4,76.3,105,75.9,105,75.3z
								 M105,69.7c0-0.5,0.4-1,1-1l0,0c0.6,0,1,0.5,1,1l0,0c0,0.5-0.5,1-1,1l0,0C105.4,70.7,105,70.2,105,69.7z M105,64
								c0-0.5,0.4-1,1-1l0,0c0.6,0,1,0.5,1,1l0,0c0,0.6-0.5,1-1,1l0,0C105.4,65,105,64.6,105,64z M105,58.4c0-0.5,0.4-1,1-1l0,0
								c0.6,0,1,0.5,1,1l0,0c0,0.5-0.5,1-1,1l0,0C105.4,59.4,105,59,105,58.4z M105,52.8c0-0.5,0.4-1,1-1l0,0c0.6,0,1,0.5,1,1l0,0
								c0,0.6-0.5,1-1,1l0,0C105.4,53.8,105,53.3,105,52.8z M105,47.1c0-0.5,0.4-1,1-1l0,0c0.6,0,1,0.5,1,1l0,0c0,0.5-0.5,1-1,1l0,0
								C105.4,48.1,105,47.7,105,47.1z"/>
							<path class="st1" d="M106,82c-0.3,0-0.5-0.1-0.7-0.3c-0.1-0.1-0.2-0.2-0.2-0.3S105,81.1,105,81c0-0.3,0.1-0.5,0.3-0.7
								c0.4-0.4,1-0.4,1.4,0c0.2,0.2,0.3,0.4,0.3,0.7c0,0.3-0.1,0.5-0.3,0.7C106.5,81.9,106.3,82,106,82z"/>
						</g>
						<g>
							<g>
								<g>
									<g>
										<path class="st2" d="M82.6,81l-15.2-8.6c-1.9-1.1-4.9-1.1-6.8,0L45.4,81H22v14.3c0,0.7,0.5,1.4,1.4,1.9l37.2,21
											c1.9,1.1,4.9,1.1,6.8,0l37.2-21c0.9-0.5,1.4-1.2,1.4-1.9V81H82.6z"/>
										<path class="st3" d="M64,120c-1.4,0-2.8-0.3-3.9-0.9l-37.2-21c-1.2-0.7-1.9-1.7-1.9-2.8V81c0-0.6,0.4-1,1-1h23.1l15-8.4
											c2.2-1.2,5.6-1.2,7.8,0l15,8.4H106c0.6,0,1,0.4,1,1v14.3c0,1.1-0.7,2.1-1.9,2.8l-37.2,21C66.8,119.7,65.4,120,64,120z
											 M23,82v13.3c0,0.3,0.3,0.7,0.9,1l37.2,21c1.6,0.9,4.2,0.9,5.8,0l37.2-21c0.6-0.3,0.9-0.7,0.9-1V82H82.6
											c-0.2,0-0.3,0-0.5-0.1l-15.2-8.6c-1.6-0.9-4.2-0.9-5.8,0l-15.2,8.6C45.8,82,45.6,82,45.4,82H23z"/>
									</g>
									<path class="st3" d="M67.4,118.2l37.2-21c0.9-0.5,1.4-1.2,1.4-1.9V81H82.6l-15.2-8.6c-0.9-0.5-2.2-0.8-3.4-0.8V119
										C65.2,119,66.4,118.7,67.4,118.2z"/>
									<path class="st3" d="M47.5,105.2c-0.2,0-0.3,0-0.5-0.1l-11-6.2c-0.5-0.3-0.7-0.9-0.4-1.4s0.9-0.7,1.4-0.4l11,6.2
										c0.5,0.3,0.7,0.9,0.4,1.4C48.2,105,47.8,105.2,47.5,105.2z"/>
									<g>
										<path class="st4" d="M104.6,79.1l-37.2-21c-1.9-1.1-4.9-1.1-6.8,0l-37.2,21c-1.9,1.1-1.9,2.8,0,3.8l37.2,21
											c1.9,1.1,4.9,1.1,6.8,0l37.2-21C106.5,81.8,106.5,80.1,104.6,79.1z"/>
										<path class="st3" d="M64,105.7c-1.4,0-2.8-0.3-3.9-0.9l-37.2-21C21.7,83.1,21,82.1,21,81s0.7-2.1,1.9-2.8l37.2-21
											c2.2-1.2,5.6-1.2,7.8,0l37.2,21l0,0c1.2,0.7,1.9,1.7,1.9,2.8c0,1.1-0.7,2.1-1.9,2.8l-37.2,21
											C66.8,105.4,65.4,105.7,64,105.7z M64,58.3c-1.1,0-2.1,0.2-2.9,0.7L23.9,80c-0.6,0.3-0.9,0.7-0.9,1s0.3,0.7,0.9,1l37.2,21
											c1.6,0.9,4.2,0.9,5.8,0l37.2-21c0.6-0.3,0.9-0.7,0.9-1s-0.3-0.7-0.9-1L66.9,59C66.1,58.5,65,58.3,64,58.3z"/>
									</g>
								</g>
							</g>
							<g>
								<polygon class="st3" points="95.9,102.1 76.2,113.2 76.2,106.6 95.9,95.5 								"/>
								<path class="st2" d="M76.2,114.2c-0.2,0-0.3,0-0.5-0.1c-0.3-0.2-0.5-0.5-0.5-0.9v-6.6c0-0.4,0.2-0.7,0.5-0.9l19.7-11.1
									c0.3-0.2,0.7-0.2,1,0s0.5,0.5,0.5,0.9v6.6c0,0.4-0.2,0.7-0.5,0.9l-19.7,11.1C76.6,114.2,76.4,114.2,76.2,114.2z M77.2,107.2
									v4.3l17.7-10v-4.3L77.2,107.2z M95.9,102.1L95.9,102.1L95.9,102.1z"/>
							</g>
							<path class="st0" d="M64,120c-1.5,0-2.8-0.3-3.9-0.9l-37.2-21c-1.2-0.7-1.9-1.7-1.9-2.8V81c0-1.1,0.7-2.1,1.9-2.8l37.2-21
								c2.2-1.2,5.6-1.2,7.8,0l37.2,21l0,0c1.2,0.7,1.9,1.7,1.9,2.8v14.3c0,1.1-0.7,2.1-1.9,2.8l-37.2,21
								C66.8,119.7,65.4,120,64,120z M64,58.3c-1.1,0-2.1,0.2-2.9,0.7L23.9,80c-0.6,0.3-0.9,0.7-0.9,1v14.3c0,0.3,0.3,0.7,0.9,1
								l37.2,21c1.5,0.8,4.3,0.8,5.8,0l37.2-21c0.6-0.3,0.9-0.7,0.9-1V81c0-0.3-0.3-0.7-0.9-1L66.9,59C66.1,58.5,65,58.3,64,58.3z"
								/>
							<g>
								<ellipse class="st3" cx="96.4" cy="81" rx="1.9" ry="1.1"/>
								<ellipse class="st3" cx="64" cy="99.3" rx="1.9" ry="1.1"/>
								<ellipse class="st3" cx="64" cy="62.7" rx="1.9" ry="1.1"/>
								<ellipse class="st3" cx="31.6" cy="81" rx="1.9" ry="1.1"/>
							</g>
						</g>
						<g>
							<g>
								<path class="st2" d="M105.5,42.5c0.7-0.4,0.7-1.3,0.1-1.8L66.8,15.2c-1.2-0.8-2.1-2.6-2.1-4.2c0-0.9,0.3-1.5,0.8-1.8l0,0
									L22.8,33.3l0,0c-0.5,0.3-0.8,0.9-0.8,1.8c0,1.6,0.9,3.4,2.1,4.2l39.6,26.1c0.3,0.2,0.8,0.2,1.1,0l4-2.3c0.5-0.3,1-0.3,1.5,0
									l4.2,2.1c0.5,0.2,1.1,0.2,1.5,0l12.3-7c0.9-0.5,1.1-1.8,0.3-2.5l-0.9-0.8c-0.8-0.7-0.7-2,0.3-2.5L105.5,42.5z"/>
								<path class="st3" d="M64.3,66.6c-0.4,0-0.8-0.1-1.1-0.3L23.6,40.2c-1.5-1-2.6-3.1-2.6-5c0-1.2,0.5-2.2,1.3-2.7L65,8.3
									c0.5-0.3,1.1-0.1,1.4,0.4s0.1,1.1-0.4,1.4c-0.1,0.1-0.3,0.3-0.3,1c0,1.2,0.8,2.8,1.7,3.4L106.1,40c0.6,0.4,0.9,1.1,0.9,1.8
									s-0.4,1.3-1,1.7l-17.4,9.9c-0.2,0.1-0.3,0.3-0.3,0.4c0,0.1,0,0.3,0.2,0.5l0.9,0.8c0.6,0.5,0.9,1.4,0.9,2.2
									c-0.1,0.8-0.6,1.6-1.3,2l-12.3,7c-0.8,0.4-1.7,0.5-2.5,0.1L70,64c-0.2-0.1-0.4-0.1-0.6,0l-4,2.3
									C65,66.5,64.7,66.6,64.3,66.6z M63.7,11.3L23.3,34.2c-0.1,0.1-0.3,0.3-0.3,1c0,1.2,0.8,2.8,1.7,3.4l39.6,26.1l4.1-2.3
									c0.8-0.4,1.7-0.5,2.5-0.1l4.2,2.1c0.2,0.1,0.4,0.1,0.6,0l12.3-7c0.2-0.1,0.3-0.3,0.3-0.4c0-0.1,0-0.3-0.2-0.5l-0.9-0.8
									c-0.6-0.5-0.9-1.4-0.9-2.2c0.1-0.8,0.6-1.6,1.3-2l17.4-9.9l0,0l0,0L66.3,16C64.9,15.1,63.8,13.1,63.7,11.3z"/>
							</g>
							<g>
								<path class="st2" d="M105.5,42.5c0.7-0.4,0.7-1.3,0.1-1.8L66.8,15.2c-1.2-0.8-2.1-2.6-2.1-4.2c0-0.9,0.3-1.5,0.8-1.8l0,0
									L22.8,33.3l0,0c-0.5,0.3-0.8,0.9-0.8,1.8c0,1.6,0.9,3.4,2.1,4.2l39.6,26.1c0.3,0.2,0.8,0.2,1.1,0l4-2.3c0.5-0.3,1-0.3,1.5,0
									l4.2,2.1c0.5,0.2,1.1,0.2,1.5,0l12.3-7c0.9-0.5,1.1-1.8,0.3-2.5l-0.9-0.8c-0.8-0.7-0.7-2,0.3-2.5L105.5,42.5z"/>
								<path class="st3" d="M64.3,66.6c-0.4,0-0.8-0.1-1.1-0.3L23.6,40.2c-1.5-1-2.6-3.1-2.6-5c0-1.2,0.5-2.2,1.3-2.7L65,8.3
									c0.5-0.3,1.1-0.1,1.4,0.4s0.1,1.1-0.4,1.4c-0.1,0.1-0.3,0.3-0.3,1c0,1.2,0.8,2.8,1.7,3.4L106.1,40c0.6,0.4,0.9,1.1,0.9,1.8
									s-0.4,1.3-1,1.7l-17.4,9.9c-0.2,0.1-0.3,0.3-0.3,0.4c0,0.1,0,0.3,0.2,0.5l0.9,0.8c0.6,0.5,0.9,1.4,0.9,2.2
									c-0.1,0.8-0.6,1.6-1.3,2l-12.3,7c-0.8,0.4-1.7,0.5-2.5,0.1L70,64c-0.2-0.1-0.4-0.1-0.6,0l-4,2.3
									C65,66.5,64.7,66.6,64.3,66.6z M63.7,11.3L23.3,34.2c-0.1,0.1-0.3,0.3-0.3,1c0,1.2,0.8,2.8,1.7,3.4l39.6,26.1l4.1-2.3
									c0.8-0.4,1.7-0.5,2.5-0.1l4.2,2.1c0.2,0.1,0.4,0.1,0.6,0l12.3-7c0.2-0.1,0.3-0.3,0.3-0.4c0-0.1,0-0.3-0.2-0.5l-0.9-0.8
									c-0.6-0.5-0.9-1.4-0.9-2.2c0.1-0.8,0.6-1.6,1.3-2l17.4-9.9l0,0l0,0L66.3,16C64.9,15.1,63.8,13.1,63.7,11.3z"/>
							</g>
							<g>
								<path class="st4" d="M64.8,51.9L105.2,29c0.7-0.4,0.7-1.5-0.1-1.8l-38.3-18c-0.5-0.2-1-0.2-1.4,0l0,0L22.8,33.3l0,0
									c0.4-0.2,0.8-0.2,1.4,0L63.8,52C64.1,52.1,64.5,52.1,64.8,51.9z"/>
								<path class="st3" d="M64.2,53.1c-0.3,0-0.6-0.1-0.9-0.2L23.7,34.3c-0.2-0.1-0.4-0.1-0.4-0.1l0,0c-0.5,0.3-1.1,0.1-1.4-0.4
									s-0.1-1.1,0.3-1.4h0.1L65,8.3l0,0c0.7-0.4,1.5-0.4,2.3,0l38.3,18c0.7,0.3,1.1,1,1.2,1.8c0,0.8-0.4,1.5-1,1.8L65.3,52.8l0,0
									C64.9,53,64.6,53.1,64.2,53.1z M25.6,32.9L64.2,51l0.6,0.9L64.3,51l40.4-22.9l-38.3-18C66.2,10,66,10,66,10l0,0L25.6,32.9z"
									/>
							</g>
							<g>
								<polygon class="st5" points="85.7,24.8 73.2,31.9 79.5,34.9 92.1,27.8 								"/>
								<path class="st5" d="M79.5,35.4c-0.1,0-0.1,0-0.2,0l-6.4-3c-0.2-0.1-0.3-0.2-0.3-0.4s0.1-0.4,0.3-0.5l12.5-7.1
									c0.1-0.1,0.3-0.1,0.5,0l6.4,3c0.2,0.1,0.3,0.2,0.3,0.4c0,0.2-0.1,0.4-0.3,0.5l-12.5,7.1C79.7,35.4,79.6,35.4,79.5,35.4z
									 M74.3,31.9l5.3,2.5L91,27.8l-5.3-2.5L74.3,31.9z"/>
							</g>
							<path class="st0" d="M64.3,66.6c-0.4,0-0.8-0.1-1.1-0.3L23.6,40.2c-1.5-1-2.6-3.1-2.6-5c0-1.2,0.5-2.2,1.3-2.7L65,8.3
								c0,0,0,0,0.1,0c0.7-0.3,1.4-0.3,2.2,0l38.3,18c0.7,0.3,1.1,1,1.2,1.8c0,0.8-0.4,1.5-1,1.8l-7.9,4.5l8.3,5.5l0,0
								c0.6,0.4,0.9,1.1,0.9,1.8s-0.4,1.3-1,1.7l-17.4,9.9c-0.2,0.1-0.3,0.3-0.3,0.4c0,0.1,0,0.3,0.2,0.5l0.9,0.8
								c0.6,0.5,0.9,1.4,0.9,2.2c-0.1,0.8-0.6,1.6-1.3,2l-12.3,7c-0.8,0.4-1.7,0.5-2.5,0.1L70,64c-0.2-0.1-0.4-0.1-0.6,0l-4,2.3
								C65,66.5,64.7,66.6,64.3,66.6z M65.9,10L23.3,34.2c-0.1,0.1-0.3,0.3-0.3,1c0,1.2,0.8,2.8,1.7,3.4l39.6,26.1l4.1-2.3
								c0.8-0.4,1.7-0.5,2.5-0.1l4.2,2.1c0.2,0.1,0.4,0.1,0.6,0l12.3-7c0.2-0.1,0.3-0.3,0.3-0.4c0-0.1,0-0.3-0.2-0.5l-0.9-0.8
								c-0.6-0.5-0.9-1.4-0.9-2.2c0.1-0.8,0.6-1.6,1.3-2l17.4-9.9l0.6-0.9l-0.6,0.8l-9.7-6.4c-0.3-0.2-0.5-0.5-0.4-0.9
								c0-0.3,0.2-0.7,0.5-0.8l9.4-5.3l-38.3-18C66.2,10,66,10,65.9,10L65.9,10C66,10,65.9,10,65.9,10z"/>
						</g>
					</g>
					<path class="st6" d="M73.2,26.3c-0.3,0-0.7-0.2-0.9-0.5c-0.3-0.5-0.1-1.1,0.4-1.4l5.5-3.1c0.5-0.3,1.1-0.1,1.4,0.4
						s0.1,1.1-0.4,1.4l-5.5,3.1C73.5,26.3,73.4,26.3,73.2,26.3z"/>
				</g>
				<rect x="4" y="4" class="st7" width="120" height="120"/>
				<rect x="4" y="4" class="st7" width="120" height="120"/>
			</g>
		</g>
	</g>
	<g>
		<rect class="st7" width="128" height="128"/>
	</g>
</g>
</svg>
