<?xml version="1.0" encoding="utf-8"?>
<!-- Generator: Adobe Illustrator 24.1.0, SVG Export Plug-In . SVG Version: 6.00 Build 0)  -->
<svg version="1.1" id="Layer_1" xmlns="http://www.w3.org/2000/svg" xmlns:xlink="http://www.w3.org/1999/xlink" x="0px" y="0px"
	 viewBox="0 0 128 128" style="enable-background:new 0 0 128 128;" xml:space="preserve">
<style type="text/css">
	.st0{fill:#0E352C;}
	.st1{fill:#FFFFFF;}
	.st2{fill:#27ae60;}
	.st3{fill:#C4D7D3;}
	.st4{fill:#185849;}
	.st5{fill:#4D9987;}
	.st6{fill:#E9EBDF;}
	.st7{fill:none;}
</style>
<g id="Layer_1_1_">
</g>
<g>
	<g id="Layer_2_1_">
		<g id="Objects_1_">
			<g>
				<g>
					<g>
						<path class="st0" d="M87.8,10.2c-0.3,0-0.5-0.1-0.7-0.3c-0.1-0.1-0.2-0.2-0.2-0.3c-0.1-0.1-0.1-0.2-0.1-0.4
							c0-0.3,0.1-0.5,0.3-0.7c0.3-0.3,0.7-0.4,1.1-0.2c0.1,0.1,0.2,0.1,0.3,0.2c0.2,0.2,0.3,0.4,0.3,0.7s-0.1,0.5-0.3,0.7
							C88.3,10.1,88,10.2,87.8,10.2z"/>
						<path class="st0" d="M103,19.1c-0.5-0.3-0.6-0.9-0.4-1.4l0,0c0.3-0.5,0.9-0.6,1.4-0.4l0,0c0.5,0.3,0.7,0.9,0.4,1.4l0,0
							c-0.2,0.3-0.5,0.5-0.9,0.5l0,0C103.4,19.3,103.2,19.2,103,19.1z M97.8,16.1c-0.5-0.3-0.6-0.9-0.4-1.4l0,0
							c0.3-0.5,0.9-0.6,1.4-0.4l0,0c0.5,0.3,0.6,0.9,0.4,1.4l0,0c-0.2,0.3-0.5,0.5-0.9,0.5l0,0C98.1,16.2,97.9,16.2,97.8,16.1z
							 M92.5,13.1c-0.5-0.3-0.6-0.9-0.4-1.4l0,0c0.3-0.5,0.9-0.6,1.4-0.4l0,0c0.5,0.3,0.7,0.9,0.4,1.4l0,0c-0.2,0.3-0.5,0.5-0.9,0.5
							l0,0C92.9,13.2,92.7,13.2,92.5,13.1z"/>
						<path class="st0" d="M108.8,22.3c-0.3,0-0.5-0.1-0.7-0.3c-0.1-0.1-0.2-0.2-0.2-0.3c-0.1-0.1-0.1-0.2-0.1-0.4
							c0-0.3,0.1-0.5,0.3-0.7c0.4-0.4,1-0.4,1.4,0c0.2,0.2,0.3,0.4,0.3,0.7c0,0.1,0,0.3-0.1,0.4c0,0.1-0.1,0.2-0.2,0.3
							C109.3,22.2,109.1,22.3,108.8,22.3z"/>
					</g>
					<g>
						<g>
							<path class="st1" d="M86.2,68.7l-65.5,37.8c-1.3,0.7-2.3,0-2.3-1.8V51.6c0-1.7,1-3.7,2.3-4.4L86.2,9.3c1.3-0.7,2.3,0,2.3,1.8
								v53.3C88.6,66,87.5,68,86.2,68.7z"/>
							<path class="st2" d="M19.8,107.9c-0.4,0-0.8-0.1-1.1-0.3c-0.8-0.5-1.3-1.5-1.3-2.7V51.6c0-2.1,1.2-4.4,2.8-5.3L85.7,8.4
								c0.9-0.5,1.8-0.5,2.5-0.1c0.8,0.5,1.3,1.5,1.3,2.7v53.3c0,2.1-1.2,4.4-2.8,5.3l0,0l-65.5,37.8
								C20.7,107.7,20.3,107.9,19.8,107.9z M87.2,10c-0.1,0-0.3,0.1-0.4,0.1L21.2,48c-1,0.6-1.8,2.2-1.8,3.6v53.3c0,0.7,0.2,1,0.3,1
								c0.1,0.1,0.3,0,0.5-0.1L85.7,68c1-0.6,1.8-2.2,1.8-3.6V11C87.5,10.3,87.3,10,87.2,10L87.2,10z M86.2,68.7L86.2,68.7
								L86.2,68.7z"/>
						</g>
						<path class="st3" d="M52,51l-33.4,54.9c0.4,0.9,1.2,1.2,2.1,0.6l65.5-37.8c1-0.6,1.8-1.8,2.1-3.1L54.9,49.3
							C54.1,48.9,52.9,49.6,52,51z"/>
						<path class="st2" d="M19.8,107.9c-0.3,0-0.5-0.1-0.7-0.1c-0.6-0.2-1.1-0.7-1.4-1.4c-0.1-0.3-0.1-0.6,0.1-0.9l33.4-54.9
							c1.1-1.9,2.9-2.7,4.2-2.1l33.4,16.3c0.4,0.2,0.7,0.7,0.5,1.2c-0.4,1.6-1.4,3-2.6,3.7l-65.5,37.8
							C20.7,107.8,20.2,107.9,19.8,107.9z M54.4,50.2c-0.3,0-0.9,0.4-1.5,1.3l0,0l-33.1,54.3c0.1,0,0.2,0,0.4-0.1l65.5-37.8
							c0.5-0.3,1-1,1.4-1.7L54.4,50.2C54.5,50.2,54.4,50.2,54.4,50.2z M52,51L52,51L52,51z"/>
						<g>
							<path class="st1" d="M56.2,64.1L88.4,9.9C88,9,87.2,8.7,86.2,9.3L20.7,47.1c-1,0.6-1.8,1.8-2.1,3.1l34.7,15.6
								C54.2,66.2,55.4,65.5,56.2,64.1z"/>
							<path class="st2" d="M53.8,66.9c-0.3,0-0.7-0.1-1-0.2L18.2,51.1c-0.5-0.2-0.7-0.7-0.6-1.2c0.4-1.6,1.4-3,2.6-3.7L85.7,8.4
								c0.9-0.5,1.7-0.5,2.1-0.3c0.6,0.2,1.1,0.7,1.4,1.4c0.1,0.3,0.1,0.6-0.1,0.9l-32,54.2l0,0C56.2,66.1,55,66.9,53.8,66.9z
								 M19.8,49.7l33.9,15.2c0.3,0.1,1-0.2,1.6-1.3L87.2,10c-0.1,0-0.2,0-0.4,0.1L21.2,48C20.7,48.3,20.2,48.9,19.8,49.7z
								 M56.2,64.1L56.2,64.1L56.2,64.1z"/>
						</g>
						<path class="st4" d="M19.8,107.8L19.8,107.8c-0.3,0-0.5,0-0.7-0.1c-0.1,0-0.1-0.1-0.2-0.1s-0.2-0.1-0.4-0.2
							c-0.1,0-0.1-0.1-0.2-0.2s-0.2-0.2-0.3-0.3c-0.1-0.1-0.1-0.1-0.2-0.2c-0.1-0.2-0.2-0.3-0.3-0.5c-0.2-0.4-0.3-1-0.3-1.5V51.6
							c0-0.5,0.1-1.1,0.2-1.6c0.1-0.2,0.1-0.4,0.2-0.6c0-0.1,0.1-0.2,0.1-0.2c0.1-0.2,0.1-0.3,0.2-0.4c0-0.1,0.1-0.2,0.1-0.3
							c0.1-0.2,0.2-0.3,0.3-0.5l0.1-0.1c0.1-0.2,0.3-0.4,0.4-0.5l0.1-0.1c0.1-0.2,0.3-0.3,0.4-0.4l0.2-0.1c0.2-0.1,0.4-0.3,0.6-0.4
							l65.6-38c0.2-0.1,0.4-0.2,0.6-0.3c0,0,0.1,0,0.2,0C86.7,8,86.9,8,87,8s0.1,0,0.2,0c0.2,0,0.4,0,0.6,0.1c0.1,0,0.1,0.1,0.2,0.1
							s0.2,0.1,0.4,0.2c0.1,0.1,0.1,0.1,0.2,0.2c0.1,0.1,0.2,0.2,0.3,0.3C88.9,8.9,89,9,89,9c0.1,0.2,0.2,0.3,0.3,0.5
							c0.2,0.4,0.3,1,0.3,1.5v53.3c0,0.5-0.1,1.1-0.2,1.6c-0.1,0.2-0.1,0.4-0.2,0.6l-0.1,0.2C89,66.9,89,67,88.9,67.1l-0.1,0.2
							c-0.1,0.2-0.2,0.3-0.3,0.5l0,0l-0.1,0.1c-0.1,0.2-0.3,0.4-0.4,0.5l-0.1,0.1c-0.1,0.1-0.2,0.3-0.4,0.4C87.4,69,87.4,69,87.3,69
							c-0.2,0.1-0.4,0.3-0.5,0.4l-65.5,37.8c-0.2,0.1-0.4,0.2-0.6,0.3c-0.1,0-0.1,0-0.2,0c-0.2,0-0.3,0.1-0.5,0.1
							C19.9,107.8,19.8,107.8,19.8,107.8z M19.4,48.5l0.8,0.5c-0.1,0.1-0.1,0.2-0.2,0.3l-0.1,0.2c0,0.1-0.1,0.2-0.1,0.3L19.7,50
							c-0.1,0.1-0.1,0.3-0.1,0.4c-0.1,0.4-0.2,0.8-0.2,1.1v53.3c0,0.3,0,0.6,0.1,0.8c0,0.1,0,0.1,0.1,0.1l-0.6,0.8l0.7-0.8
							c0,0,0,0,0.1,0h0.1l0,0H20c0.1,0,0.2-0.1,0.3-0.1l65.5-37.8c0.1-0.1,0.2-0.1,0.3-0.2l0.1-0.1c0.1-0.1,0.1-0.1,0.2-0.2l0.1-0.1
							c0.1-0.1,0.2-0.2,0.3-0.4l0.9,0.5l-0.8-0.5c0.1-0.1,0.1-0.2,0.2-0.3l0.1-0.2c0.1-0.1,0.1-0.2,0.1-0.3l0.1-0.2
							c0.1-0.1,0.1-0.3,0.1-0.4c0.1-0.4,0.2-0.8,0.2-1.1V11c0-0.3,0-0.6-0.1-0.8c0-0.1,0-0.1-0.1-0.1L88,9.3l-0.7,0.8
							c0,0-0.1-0.1-0.2-0.1l0,0H87c-0.1,0-0.2,0.1-0.3,0.1L21.2,48c-0.1,0.1-0.2,0.1-0.3,0.2l-0.1,0.1c-0.1,0.1-0.1,0.1-0.2,0.2
							L19.7,48l0.8,0.6c-0.1,0.1-0.2,0.2-0.3,0.4L19.4,48.5z M87.1,9l0.1,0.9l0.1-0.1L87.1,9z"/>
					</g>
					<g>
						<path class="st4" d="M19.2,107.7c-0.1,0-0.3,0-0.4-0.1s-0.2-0.1-0.3-0.2c-0.2-0.2-0.3-0.4-0.3-0.7c0-0.1,0-0.1,0-0.2
							s0-0.1,0.1-0.2c0-0.1,0.1-0.1,0.1-0.2s0.1-0.1,0.1-0.1c0.1-0.1,0.2-0.2,0.3-0.2c0.2-0.1,0.5-0.1,0.8,0
							c0.1,0.1,0.2,0.1,0.3,0.2c0.1,0,0.1,0.1,0.1,0.1c0,0.1,0.1,0.1,0.1,0.2s0,0.1,0,0.2s0,0.1,0,0.2c0,0.3-0.1,0.5-0.3,0.7
							c-0.1,0.1-0.2,0.2-0.3,0.2C19.4,107.7,19.3,107.7,19.2,107.7z"/>
						<path class="st4" d="M34.5,116.7c-0.5-0.3-0.6-0.9-0.4-1.4l0,0c0.3-0.5,0.9-0.6,1.4-0.4l0,0c0.5,0.3,0.6,0.9,0.4,1.4l0,0
							c-0.2,0.3-0.5,0.5-0.9,0.5l0,0C34.8,116.8,34.6,116.7,34.5,116.7z M29.2,113.6c-0.5-0.3-0.6-0.9-0.4-1.4l0,0
							c0.3-0.5,0.9-0.6,1.4-0.4l0,0c0.5,0.3,0.6,0.9,0.4,1.4l0,0c-0.2,0.3-0.5,0.5-0.9,0.5l0,0C29.5,113.8,29.4,113.7,29.2,113.6z
							 M23.9,110.6c-0.5-0.3-0.6-0.9-0.4-1.4l0,0c0.3-0.5,0.9-0.6,1.4-0.4l0,0c0.5,0.3,0.6,0.9,0.4,1.4l0,0
							c-0.2,0.3-0.5,0.5-0.9,0.5l0,0C24.3,110.7,24.1,110.7,23.9,110.6z"/>
						<path class="st4" d="M40.2,119.8c-0.3,0-0.5-0.1-0.7-0.3c0-0.1-0.1-0.1-0.1-0.1c0-0.1-0.1-0.1-0.1-0.2s0-0.1-0.1-0.2
							c0-0.1,0-0.1,0-0.2c0-0.3,0.1-0.5,0.3-0.7c0.4-0.4,1-0.4,1.4,0c0.2,0.2,0.3,0.4,0.3,0.7c0,0.1,0,0.1,0,0.2s0,0.1,0,0.2
							s-0.1,0.1-0.1,0.2s-0.1,0.1-0.1,0.1C40.7,119.7,40.5,119.8,40.2,119.8z"/>
					</g>
					<g>
						<g>
							<path class="st1" d="M107.3,80.9l-65.5,37.8c-1.3,0.7-2.3,0-2.3-1.8V63.7c0-1.7,1-3.7,2.3-4.4l65.5-37.8
								c1.3-0.7,2.3,0,2.3,1.8v53.3C109.6,78.2,108.6,80.1,107.3,80.9z"/>
							<path class="st5" d="M40.8,120c-0.4,0-0.8-0.1-1.1-0.3c-0.8-0.5-1.3-1.5-1.3-2.7V63.7c0-2.1,1.2-4.4,2.8-5.3l65.5-37.8
								c0.9-0.5,1.8-0.5,2.5-0.1c0.8,0.5,1.3,1.5,1.3,2.7v53.3c0,2.1-1.2,4.4-2.8,5.3l-65.5,37.8C41.8,119.9,41.3,120,40.8,120z
								 M108.2,22.1c-0.1,0-0.3,0.1-0.4,0.1L42.3,60.1c-1,0.6-1.8,2.2-1.8,3.6V117c0,0.7,0.2,1,0.3,1c0.1,0.1,0.3,0,0.5-0.1
								L106.8,80c1-0.6,1.8-2.2,1.8-3.6V23.2c0-0.7-0.2-1-0.3-1L108.2,22.1z"/>
						</g>
						<path class="st6" d="M73.1,63.1L39.7,118c0.4,0.9,1.2,1.2,2.1,0.6l65.5-37.8c1-0.6,1.8-1.8,2.1-3.1L76,61.5
							C75.1,61.1,73.9,61.8,73.1,63.1z"/>
						<path class="st5" d="M40.8,120c-0.3,0-0.5-0.1-0.7-0.1c-0.6-0.2-1.1-0.7-1.4-1.4c-0.1-0.3-0.1-0.6,0.1-0.9l33.4-54.9
							c1.1-1.9,2.9-2.7,4.2-2.1l33.4,16.3c0.4,0.2,0.7,0.7,0.5,1.2c-0.4,1.6-1.4,3-2.6,3.7l-65.5,37.8C41.7,119.9,41.2,120,40.8,120
							z M75.4,62.4c-0.3,0-0.9,0.4-1.5,1.3l0,0L40.8,118c0.1,0,0.2,0,0.4-0.1L106.8,80c0.5-0.3,1-1,1.4-1.7L75.4,62.4
							C75.5,62.4,75.5,62.4,75.4,62.4z M73.1,63.1L73.1,63.1L73.1,63.1z"/>
						<g>
							<path class="st1" d="M77.3,76.3l32.2-54.2c-0.4-0.9-1.2-1.2-2.1-0.6L41.8,59.3c-1,0.6-1.8,1.8-2.1,3.1L74.4,78
								C75.2,78.4,76.4,77.7,77.3,76.3z"/>
							<path class="st5" d="M74.9,79.1c-0.3,0-0.7-0.1-1-0.2L39.2,63.3c-0.5-0.2-0.7-0.7-0.6-1.2c0.4-1.6,1.4-3,2.6-3.7l65.5-37.8
								c0.9-0.5,1.7-0.5,2.1-0.3c0.6,0.2,1.1,0.7,1.4,1.4c0.1,0.3,0.1,0.6-0.1,0.9l-32,54.2l0,0C77.2,78.2,76,79.1,74.9,79.1z
								 M40.9,61.8L74.8,77c0.3,0.1,1-0.2,1.6-1.3l31.8-53.6c-0.1,0-0.2,0-0.4,0.1L42.3,60.1C41.7,60.4,41.2,61.1,40.9,61.8z
								 M77.3,76.3L77.3,76.3L77.3,76.3z"/>
						</g>
						<path class="st0" d="M40.8,120L40.8,120c-0.3,0-0.5,0-0.7-0.1c-0.1,0-0.1-0.1-0.2-0.1c-0.1,0-0.2-0.1-0.4-0.2
							c-0.1,0-0.1-0.1-0.2-0.2c-0.1-0.1-0.2-0.2-0.3-0.3c-0.1-0.1-0.1-0.1-0.2-0.2c-0.1-0.2-0.2-0.3-0.3-0.5c-0.2-0.4-0.3-1-0.3-1.5
							V63.7c0-0.5,0.1-1.1,0.2-1.6c0.1-0.2,0.1-0.4,0.2-0.6l0.1-0.2c0.1-0.2,0.1-0.3,0.2-0.4l0.1-0.2c0.1-0.2,0.2-0.3,0.3-0.5
							l0.1-0.1c0.1-0.2,0.3-0.4,0.4-0.5l0.1-0.2c0.1-0.1,0.2-0.2,0.4-0.4l0.2-0.1c0.2-0.1,0.4-0.3,0.6-0.4l65.5-37.8
							c0.2-0.1,0.4-0.2,0.6-0.3c0.1,0,0.1,0,0.2,0c0.2,0,0.3-0.1,0.5-0.1c0.1,0,0.1,0,0.2,0c0.2,0,0.4,0,0.6,0.1
							c0.1,0,0.1,0.1,0.2,0.1s0.2,0.1,0.4,0.2c0.1,0,0.1,0.1,0.2,0.2s0.2,0.2,0.3,0.3c0.1,0.1,0.1,0.1,0.2,0.2
							c0.1,0.2,0.2,0.3,0.3,0.5c0.2,0.4,0.3,1,0.3,1.5v53.3c0,0.5-0.1,1.1-0.2,1.6c-0.1,0.2-0.1,0.4-0.2,0.6c0,0.1-0.1,0.2-0.1,0.2
							c-0.1,0.2-0.1,0.3-0.2,0.4c0,0.1-0.1,0.2-0.1,0.3c-0.1,0.2-0.2,0.3-0.3,0.5l-0.1,0.1c-0.1,0.2-0.3,0.4-0.4,0.5l-0.1,0.1
							c-0.1,0.2-0.3,0.3-0.4,0.4l-0.2,0.1c-0.2,0.1-0.4,0.3-0.6,0.4l-65.5,37.8c-0.2,0.1-0.4,0.2-0.6,0.3c0,0-0.1,0-0.2,0
							C41.2,120,41.1,120.1,40.8,120C40.9,120,40.9,120,40.8,120z M108.2,22.1L108.2,22.1c0,0-0.1,0-0.1,0.1c-0.1,0-0.2,0.1-0.3,0.1
							L42.3,60.1c-0.1,0.1-0.2,0.1-0.3,0.2l-0.1,0.1c-0.1,0.1-0.1,0.1-0.2,0.2l-0.1,0.1c-0.1,0.1-0.2,0.2-0.3,0.4l-0.1,0.1
							c-0.1,0.1-0.1,0.2-0.2,0.3l0,0.2c-0.1,0.1-0.1,0.2-0.1,0.3l-0.1,0.2c-0.1,0.1-0.1,0.3-0.1,0.4c-0.1,0.4-0.2,0.8-0.2,1.1V117
							c0,0.3,0,0.6,0.1,0.8c0,0.1,0,0.1,0.1,0.1l-0.6,0.8l0.7-0.8h0.1H41h0.1c0.1,0,0.2-0.1,0.3-0.1L106.8,80
							c0.1-0.1,0.2-0.1,0.3-0.2l0.1-0.1c0.1-0.1,0.1-0.1,0.2-0.2l0.9,0.5l-0.8-0.6c0.1-0.1,0.2-0.2,0.3-0.4l0.1-0.1
							c0.1-0.1,0.1-0.2,0.2-0.3l0.1-0.2c0-0.1,0.1-0.2,0.1-0.3l0.1-0.2c0.1-0.1,0.1-0.3,0.1-0.4c0.1-0.4,0.2-0.8,0.2-1.1V23.2
							c0-0.3,0-0.6-0.1-0.8c0-0.1,0-0.1-0.1-0.1l0.6-0.8l-0.7,0.8C108.3,22.2,108.2,22.1,108.2,22.1z M108.1,21.2l0.1,0.9l0.1-0.1
							L108.1,21.2z"/>
					</g>
				</g>
				<rect x="4" y="4" class="st7" width="120" height="120"/>
				<rect x="4" y="4" class="st7" width="120" height="120"/>
			</g>
		</g>
	</g>
	<g>
		<rect class="st7" width="128" height="128"/>
	</g>
</g>
</svg>
