<?xml version="1.0" encoding="utf-8"?>
<!-- Generator: Adobe Illustrator 24.1.0, SVG Export Plug-In . SVG Version: 6.00 Build 0)  -->
<svg version="1.1" id="Layer_1" xmlns="http://www.w3.org/2000/svg" xmlns:xlink="http://www.w3.org/1999/xlink" x="0px" y="0px"
	 viewBox="0 0 128 128" style="enable-background:new 0 0 128 128;" xml:space="preserve">
<style type="text/css">
	.st0{fill:none;}
	.st1{fill:#E9EBDF;}
	.st2{fill:#4D9987;}
	.st3{fill:#FFFFFF;}
	.st4{fill:#0E352C;}
</style>
<g id="Layer_1_1_">
</g>
<g>
	<g id="Layer_2_1_">
		<g id="Objects_1_">
			<g>
				<rect x="4" y="4" class="st0" width="120" height="120"/>
				<g>
					<polygon class="st1" points="88.1,39.4 96.7,44.4 72.6,58.3 64,53.3 					"/>
					<polygon class="st1" points="59.7,5 68.3,10 54.3,36.7 45.7,31.8 					"/>
					<polygon class="st2" points="64,106.8 55.4,101.8 55.4,79.6 64,74.7 					"/>
					<polygon class="st1" points="55.4,101.8 64,106.8 54.3,112.4 45.7,107.5 					"/>
					<polygon class="st1" points="73.7,91.3 82.3,96.2 72.6,101.8 64,96.9 					"/>
					<polygon class="st2" points="64,63.2 55.4,58.3 55.4,36.1 64,31.1 					"/>
					<polygon class="st1" points="55.4,58.3 64,63.2 39.9,77.1 31.3,72.2 					"/>
					<g>
						<polygon class="st2" points="68.3,123 59.7,118 45.7,107.5 54.3,112.4 						"/>
					</g>
					<polygon class="st2" points="96.7,68.8 88.1,63.8 88.1,60.8 96.7,55.8 					"/>
					<polygon class="st2" points="96.7,44.4 88.1,39.4 88.1,26.5 96.7,31.4 					"/>
					<g>
						<polygon class="st2" points="39.9,101.5 31.3,96.6 17.3,86 25.9,91 						"/>
					</g>
					<path class="st2" d="M72.6,59.3c-0.2,0-0.3,0-0.5-0.1l-8.6-5C63.2,54,63,53.7,63,53.3s0.2-0.7,0.5-0.9l24.1-13.9
						c0.3-0.2,0.7-0.2,1,0l8.6,5c0.3,0.2,0.5,0.5,0.5,0.9s-0.2,0.7-0.5,0.9L73.1,59.1C72.9,59.2,72.8,59.3,72.6,59.3z M66,53.3
						l6.6,3.8l22.1-12.8l-6.6-3.8L66,53.3z"/>
					<path class="st2" d="M54.3,37.7c-0.2,0-0.3,0-0.5-0.1l-8.6-5c-0.5-0.3-0.6-0.9-0.4-1.3l14-26.8C59,4.3,59.2,4.1,59.4,4
						c0.3,0,0.6,0,0.8,0.1l8.6,5c0.5,0.3,0.6,0.9,0.4,1.3l-14,26.8c-0.1,0.2-0.3,0.4-0.6,0.5C54.5,37.7,54.4,37.7,54.3,37.7z
						 M47,31.4l6.8,4l13.1-25l-6.8-4L47,31.4z"/>
					<path class="st2" d="M64,107.8c-0.2,0-0.3,0-0.5-0.1l-8.6-5c-0.3-0.2-0.5-0.5-0.5-0.9V79.6c0-0.4,0.2-0.7,0.5-0.9l8.6-5
						c0.3-0.2,0.7-0.2,1,0s0.5,0.5,0.5,0.9v32.1c0,0.4-0.2,0.7-0.5,0.9C64.3,107.7,64.2,107.8,64,107.8z M56.4,101.3l6.6,3.8V76.4
						l-6.6,3.8V101.3z"/>
					<path class="st2" d="M54.3,113.4c-0.2,0-0.3,0-0.5-0.1l-8.6-5c-0.3-0.2-0.5-0.5-0.5-0.9s0.2-0.7,0.5-0.9l9.7-5.6
						c0.3-0.2,0.7-0.2,1,0l8.6,5c0.3,0.2,0.5,0.5,0.5,0.9s-0.2,0.7-0.5,0.9l-9.7,5.6C54.6,113.4,54.5,113.4,54.3,113.4z M47.7,107.5
						l6.6,3.8l7.7-4.5l-6.6-3.8L47.7,107.5z"/>
					<path class="st2" d="M72.6,102.8c-0.2,0-0.3,0-0.5-0.1l-8.6-5c-0.3-0.2-0.5-0.5-0.5-0.9s0.2-0.7,0.5-0.9l9.7-5.6
						c0.3-0.2,0.7-0.2,1,0l8.6,5c0.3,0.2,0.5,0.5,0.5,0.9s-0.2,0.7-0.5,0.9l-9.7,5.6C72.9,102.8,72.8,102.8,72.6,102.8z M66,96.9
						l6.6,3.8l7.7-4.5l-6.6-3.8L66,96.9z"/>
					<path class="st2" d="M64,64.2c-0.2,0-0.3,0-0.5-0.1l-8.6-5c-0.3-0.2-0.5-0.5-0.5-0.9V36.1c0-0.4,0.2-0.7,0.5-0.9l8.6-5
						c0.3-0.2,0.7-0.2,1,0s0.5,0.5,0.5,0.9v32.1c0,0.4-0.2,0.7-0.5,0.9C64.3,64.2,64.2,64.2,64,64.2z M56.4,57.7l6.6,3.8V32.8
						l-6.6,3.8V57.7z"/>
					<path class="st2" d="M39.9,78.1c-0.2,0-0.3,0-0.5-0.1l-8.6-5c-0.3-0.2-0.5-0.5-0.5-0.9s0.2-0.7,0.5-0.9l24.1-13.9
						c0.3-0.2,0.7-0.2,1,0l8.6,5c0.3,0.2,0.5,0.5,0.5,0.9s-0.2,0.7-0.5,0.9L40.4,78C40.3,78.1,40.1,78.1,39.9,78.1z M33.3,72.2
						l6.6,3.8L62,63.2l-6.6-3.8L33.3,72.2z"/>
					<g>
						<path class="st2" d="M68.3,124c-0.2,0-0.3,0-0.5-0.1l-8.6-5c0,0-0.1,0-0.1-0.1l-14-10.6c-0.4-0.3-0.5-0.9-0.2-1.4
							c0.3-0.4,0.9-0.6,1.3-0.3l8.6,5c0,0,0.1,0,0.1,0.1l14,10.6c0.4,0.3,0.5,0.9,0.2,1.4C68.9,123.8,68.6,124,68.3,124z"/>
					</g>
					<path class="st2" d="M96.7,69.8c-0.2,0-0.3,0-0.5-0.1l-8.6-5c-0.3-0.2-0.5-0.5-0.5-0.9v-3.1c0-0.4,0.2-0.7,0.5-0.9l8.6-5
						c0.3-0.2,0.7-0.2,1,0s0.5,0.5,0.5,0.9v13c0,0.4-0.2,0.7-0.5,0.9C97,69.7,96.8,69.8,96.7,69.8z M89.1,63.2l6.6,3.8v-9.5
						l-6.6,3.8V63.2z"/>
					<path class="st2" d="M96.7,45.4c-0.2,0-0.3,0-0.5-0.1l-8.6-5c-0.3-0.2-0.5-0.5-0.5-0.9v-13c0-0.4,0.2-0.7,0.5-0.9
						c0.3-0.2,0.7-0.2,1,0l8.6,5c0.3,0.2,0.5,0.5,0.5,0.9v13c0,0.4-0.2,0.7-0.5,0.9C97,45.3,96.8,45.4,96.7,45.4z M89.1,38.8
						l6.6,3.8V32l-6.6-3.8V38.8z"/>
					<g>
						<path class="st2" d="M39.9,102.5c-0.2,0-0.3,0-0.5-0.1l-8.6-5c0,0-0.1,0-0.1-0.1l-14-10.6c-0.4-0.3-0.5-0.9-0.2-1.4
							c0.3-0.4,0.9-0.6,1.3-0.3l8.6,5c0,0,0.1,0,0.1,0.1l14,10.6c0.4,0.3,0.5,0.9,0.2,1.4C40.6,102.4,40.2,102.5,39.9,102.5z"/>
					</g>
					<g>
						<polygon class="st3" points="110.7,42 96.7,31.4 96.7,44.4 72.6,58.3 72.6,26.2 82.3,20.5 68.3,10 54.3,36.7 64,31.1 64,63.2 
							39.9,77.1 39.9,64.2 25.9,91 39.9,101.5 39.9,88.6 64,74.7 64,106.8 54.3,112.4 68.3,123 82.3,96.2 72.6,101.8 72.6,69.7 
							96.7,55.8 96.7,68.8 						"/>
						<path class="st2" d="M68.3,124c-0.2,0-0.4-0.1-0.6-0.2l-14-10.6c-0.3-0.2-0.4-0.5-0.4-0.9c0-0.3,0.2-0.6,0.5-0.8l9.2-5.3V76.4
							L40.9,89.2v12.4c0,0.4-0.2,0.7-0.6,0.9c-0.3,0.2-0.7,0.1-1-0.1l-14-10.6c-0.4-0.3-0.5-0.8-0.3-1.3l14-26.8
							c0.2-0.4,0.7-0.6,1.1-0.5c0.4,0.1,0.8,0.5,0.8,1v11.2L63,62.7V32.8l-8.2,4.7c-0.4,0.2-0.9,0.2-1.2-0.1s-0.4-0.8-0.2-1.2
							l14-26.8C67.5,9.2,67.8,9,68.1,9c0.3-0.1,0.6,0,0.8,0.2l14,10.6c0.3,0.2,0.4,0.5,0.4,0.9c0,0.3-0.2,0.6-0.5,0.8l-9.2,5.3v29.8
							l22.1-12.8V31.4c0-0.4,0.2-0.7,0.6-0.9c0.3-0.2,0.7-0.1,1,0.1l14,10.6c0.4,0.3,0.5,0.8,0.3,1.3l-14,26.8
							c-0.2,0.4-0.7,0.6-1.1,0.5s-0.8-0.5-0.8-1V57.5L73.6,70.3v29.8l8.2-4.7c0.4-0.2,0.9-0.2,1.2,0.1c0.3,0.3,0.4,0.8,0.2,1.2
							l-14,26.8c-0.1,0.3-0.4,0.4-0.7,0.5C68.4,124,68.4,124,68.3,124z M56.1,112.5l11.9,9l11.9-22.7l-6.7,3.9c-0.3,0.2-0.7,0.2-1,0
							s-0.5-0.5-0.5-0.9V69.7c0-0.4,0.2-0.7,0.5-0.9l24.1-13.9c0.3-0.2,0.7-0.2,1,0s0.5,0.5,0.5,0.9v8.9l11.7-22.4l-11.7-8.9v11
							c0,0.4-0.2,0.7-0.5,0.9L73.1,59.1c-0.3,0.2-0.7,0.2-1,0s-0.5-0.5-0.5-0.9v-32c0-0.4,0.2-0.7,0.5-0.9l8.4-4.9l-11.9-9
							L56.8,34.1l6.7-3.9c0.3-0.2,0.7-0.2,1,0s0.5,0.5,0.5,0.9v32.1c0,0.4-0.2,0.7-0.5,0.9L40.4,78c-0.3,0.2-0.7,0.2-1,0
							s-0.5-0.5-0.5-0.9v-8.9L27.2,90.7l11.7,8.9v-11c0-0.4,0.2-0.7,0.5-0.9l24.1-13.9c0.3-0.2,0.7-0.2,1,0s0.5,0.5,0.5,0.9v32.1
							c0,0.4-0.2,0.7-0.5,0.9L56.1,112.5z"/>
					</g>
					<polygon class="st1" points="31.3,59.2 39.9,64.2 25.9,91 17.3,86 					"/>
					<path class="st2" d="M25.9,92c-0.2,0-0.3,0-0.5-0.1l-8.6-5c-0.5-0.3-0.6-0.9-0.4-1.3l14-26.8c0.1-0.2,0.3-0.4,0.6-0.5
						c0.3-0.1,0.5,0,0.8,0.1l8.6,5c0.5,0.3,0.6,0.9,0.4,1.3l-14,26.8c-0.1,0.2-0.3,0.4-0.6,0.5C26.1,91.9,26,92,25.9,92z M18.6,85.6
						l6.8,4l13.1-25l-6.8-4L18.6,85.6z"/>
					<path class="st4" d="M68.3,124c-0.2,0-0.3,0-0.5-0.1l-8.6-5c0,0-0.1,0-0.1-0.1l-14-10.6c-0.3-0.2-0.4-0.5-0.4-0.9
						c0-0.3,0.2-0.6,0.5-0.8l9.2-5.3V81.4l-13.5,7.8v12.4c0,0.4-0.2,0.7-0.5,0.9c-0.3,0.2-0.7,0.2-1,0l-8.6-5c0,0-0.1,0-0.1-0.1
						l-14-10.6c-0.4-0.3-0.5-0.8-0.3-1.3l14-26.8c0.1-0.2,0.3-0.4,0.6-0.5c0.3-0.1,0.5,0,0.8,0.1l8.6,5c0.3,0.2,0.5,0.5,0.5,0.9v1.3
						l13.5-7.8v-20c-0.2,0-0.4,0-0.6-0.1l-8.6-5c-0.5-0.3-0.6-0.9-0.4-1.3l14-26.8C59,4.3,59.2,4.1,59.4,4c0.3,0,0.6,0,0.8,0.1
						l8.6,5c0,0,0.1,0,0.1,0.1l14,10.6c0.3,0.2,0.4,0.5,0.4,0.9c0,0.3-0.2,0.6-0.5,0.8l-9.2,5.3v19.9l13.5-7.8V26.5
						c0-0.4,0.2-0.7,0.5-0.9c0.3-0.2,0.7-0.2,1,0l8.6,5c0,0,0.1,0,0.1,0.1l14,10.6c0.4,0.3,0.5,0.8,0.3,1.3l-14,26.8
						c-0.1,0.2-0.3,0.4-0.6,0.5c-0.3,0.1-0.5,0-0.8-0.1l-8.6-5c-0.3-0.2-0.5-0.5-0.5-0.9v-1.3l-13.5,7.8v20c0.2,0,0.4,0,0.6,0.1
						l8.6,5c0.5,0.3,0.6,0.9,0.4,1.3l-14,26.8c-0.1,0.2-0.3,0.4-0.6,0.5C68.5,124,68.4,124,68.3,124z M60.3,117.2l7.6,4.4l13.1-25
						l-7.2-4.2l-0.6,0.4c-0.3,0.2-0.7,0.2-1,0s-0.5-0.5-0.5-0.9V69.7c0-0.4,0.2-0.7,0.5-0.9l15.5-9c0.3-0.2,0.7-0.2,1,0
						s0.5,0.5,0.5,0.9v2.5l7.2,4.1l13.1-25.1l-13.3-10l-7-4.1v11.2c0,0.4-0.2,0.7-0.5,0.9l-15.5,9c-0.3,0.2-0.7,0.2-1,0
						s-0.5-0.5-0.5-0.9V26.2c0-0.4,0.2-0.7,0.5-0.9l8.4-4.9l-12.8-9.6l-7.6-4.4L47,31.4l7.2,4.2l0.6-0.4c0.3-0.2,0.7-0.2,1,0
						s0.5,0.5,0.5,0.9v22.2c0,0.4-0.2,0.7-0.5,0.9l-15.5,9c-0.3,0.2-0.7,0.2-1,0s-0.5-0.5-0.5-0.9v-2.5l-7.2-4.1l-13,25l13.3,10
						l7,4.1V88.6c0-0.4,0.2-0.7,0.5-0.9l15.5-9c0.3-0.2,0.7-0.2,1,0s0.5,0.5,0.5,0.9v22.2c0,0.4-0.2,0.7-0.5,0.9l-8.4,4.9
						L60.3,117.2z"/>
				</g>
			</g>
		</g>
	</g>
	<g>
		<rect class="st0" width="128" height="128"/>
	</g>
</g>
</svg>
