<?xml version="1.0" encoding="utf-8"?>
<!-- Generator: Adobe Illustrator 24.1.0, SVG Export Plug-In . SVG Version: 6.00 Build 0)  -->
<svg version="1.1" id="Layer_1" xmlns="http://www.w3.org/2000/svg" xmlns:xlink="http://www.w3.org/1999/xlink" x="0px" y="0px"
	 viewBox="0 0 128 128" style="enable-background:new 0 0 128 128;" xml:space="preserve">
<style type="text/css">
	.st0{fill:#E9EBDF;}
	.st1{fill:#4D9987;}
	.st2{fill:#FFFFFF;}
	.st3{fill:#0E352C;}
	.st4{fill:none;}
</style>
<g id="Layer_1_1_">
</g>
<g>
	<g id="Layer_2_1_">
		<g id="Industries_1_">
			<g>
				<g>
					<g>
						<path class="st0" d="M71.1,11.5c-1.3,1.4-2.7,2.3-4.1,2.4s-2.8,0.9-4.1,2.4V9.7c1.3-1.4,2.7-2.3,4.1-2.4
							c1.4,0,2.8-0.9,4.1-2.4V11.5z"/>
						<path class="st1" d="M62.9,17.2c-0.1,0-0.2,0-0.4-0.1c-0.4-0.1-0.6-0.5-0.6-0.9V9.7c0-0.2,0.1-0.5,0.3-0.7
							c1.5-1.7,3.2-2.7,4.8-2.7c1,0,2.2-0.8,3.4-2c0.2-0.3,0.6-0.4,1-0.2C71.8,4.2,72,4.6,72,5v6.5c0,0.2-0.1,0.5-0.3,0.7
							c-1.5,1.7-3.2,2.7-4.8,2.7c-1,0-2.2,0.8-3.4,2C63.5,17.1,63.2,17.2,62.9,17.2z M63.9,10.1V14c1-0.7,2.1-1.1,3.1-1.1
							c0.9,0,2.1-0.7,3.1-1.8V7.2c-1,0.7-2.1,1.1-3.1,1.1C66.1,8.4,64.9,9,63.9,10.1z M71.1,11.5L71.1,11.5L71.1,11.5z"/>
					</g>
					<g>
						<polygon class="st2" points="102.2,48.1 89.4,55.5 66,42 78.8,34.6 						"/>
						<path class="st1" d="M89.4,56.5c-0.2,0-0.3,0-0.5-0.1L65.5,42.9C65.2,42.7,65,42.4,65,42s0.2-0.7,0.5-0.9l12.8-7.4
							c0.3-0.2,0.7-0.2,1,0l23.4,13.5c0.3,0.2,0.5,0.5,0.5,0.9s-0.2,0.7-0.5,0.9l-12.8,7.4C89.7,56.4,89.6,56.5,89.4,56.5z M68,42
							l21.4,12.3l10.8-6.2L78.8,35.8L68,42z"/>
					</g>
					<g>
						<g>
							<polygon class="st0" points="102.2,76.2 102.2,81.2 89.4,88.6 89.4,83.6 							"/>
							<path class="st1" d="M89.4,89.6c-0.2,0-0.3,0-0.5-0.1c-0.3-0.2-0.5-0.5-0.5-0.9v-5c0-0.4,0.2-0.7,0.5-0.9l12.8-7.4
								c0.3-0.2,0.7-0.2,1,0s0.5,0.5,0.5,0.9v5c0,0.4-0.2,0.7-0.5,0.9l-12.8,7.4C89.7,89.6,89.6,89.6,89.4,89.6z M90.4,84.2v2.7
								l10.8-6.2V78L90.4,84.2z"/>
						</g>
						<g>
							<polygon class="st2" points="111.7,101.5 74.5,123 28.8,95.7 66,74.2 							"/>
							<path class="st1" d="M74.5,124c-0.2,0-0.4,0-0.5-0.1L28.3,96.6c-0.3-0.2-0.5-0.5-0.5-0.9s0.2-0.7,0.5-0.9l37.2-21.5
								c0.3-0.2,0.7-0.2,1,0l45.7,27.3c0.3,0.2,0.5,0.5,0.5,0.9s-0.2,0.7-0.5,0.9L75,123.9C74.9,124,74.7,124,74.5,124z M30.8,95.7
								l43.8,26.1l35.2-20.4L66,75.4L30.8,95.7z"/>
						</g>
						<g>
							<polygon class="st2" points="111.7,96.5 89.4,83.6 102.2,76.2 78.8,62.7 29.2,91.3 28.8,91.6 28.8,91.6 16,99 39.4,112.5 
								52.2,105.1 74.5,118 							"/>
							<path class="st1" d="M74.5,119c-0.2,0-0.3,0-0.5-0.1l-21.8-12.6l-12.3,7.1c-0.3,0.2-0.7,0.2-1,0L15.5,99.8
								C15.2,99.7,15,99.3,15,99s0.2-0.7,0.5-0.9l62.8-36.2c0.3-0.2,0.7-0.2,1,0l23.4,13.5c0.3,0.2,0.5,0.5,0.5,0.9
								s-0.2,0.7-0.5,0.9l-11.3,6.5l20.8,12c0.3,0.2,0.5,0.5,0.5,0.9s-0.2,0.7-0.5,0.9L75,118.9C74.9,119,74.7,119,74.5,119z
								 M52.2,104.1c0.2,0,0.3,0,0.5,0.1l21.8,12.6l35.2-20.3l-20.8-12c-0.3-0.2-0.5-0.5-0.5-0.9s0.2-0.7,0.5-0.9l11.3-6.5
								L78.8,63.9L18,99l21.4,12.3l12.3-7.1C51.8,104.1,52,104.1,52.2,104.1z"/>
						</g>
						<g>
							<polygon class="st1" points="111.7,96.5 111.7,101.5 74.5,123 74.5,118 							"/>
							<path class="st1" d="M74.5,124c-0.2,0-0.3,0-0.5-0.1c-0.3-0.2-0.5-0.5-0.5-0.9v-5c0-0.4,0.2-0.7,0.5-0.9l37.2-21.5
								c0.3-0.2,0.7-0.2,1,0s0.5,0.5,0.5,0.9v5c0,0.4-0.2,0.7-0.5,0.9L75,123.9C74.9,124,74.7,124,74.5,124z M75.5,118.6v2.7
								l35.2-20.3v-2.7L75.5,118.6z"/>
						</g>
						<g>
							<polygon class="st0" points="52.2,105.1 52.2,110.1 74.5,123 74.5,118 							"/>
							<path class="st1" d="M74.5,124c-0.2,0-0.3,0-0.5-0.1L51.7,111c-0.3-0.2-0.5-0.5-0.5-0.9v-5c0-0.4,0.2-0.7,0.5-0.9
								s0.7-0.2,1,0L75,117.1c0.3,0.2,0.5,0.5,0.5,0.9v5c0,0.4-0.2,0.7-0.5,0.9C74.9,124,74.7,124,74.5,124z M53.2,109.5l20.3,11.7
								v-2.7l-20.3-11.7V109.5z"/>
						</g>
					</g>
					<g>
						<polygon class="st1" points="89.4,83.6 89.4,55.5 102.2,48.1 102.2,76.2 						"/>
						<path class="st1" d="M89.4,84.6c-0.2,0-0.3,0-0.5-0.1c-0.3-0.2-0.5-0.5-0.5-0.9V55.5c0-0.4,0.2-0.7,0.5-0.9l12.8-7.4
							c0.3-0.2,0.7-0.2,1,0s0.5,0.5,0.5,0.9v28.1c0,0.4-0.2,0.7-0.5,0.9l-12.8,7.4C89.7,84.6,89.6,84.6,89.4,84.6z M90.4,56.1v25.8
							l10.8-6.2V49.8L90.4,56.1z"/>
					</g>
					<path class="st3" d="M89.4,89.6c-0.2,0-0.3,0-0.5-0.1L65.5,76c-0.3-0.2-0.5-0.5-0.5-0.9V42c0-0.4,0.2-0.7,0.5-0.9l12.8-7.4
						c0.3-0.2,0.7-0.2,1,0l23.4,13.5c0.3,0.2,0.5,0.5,0.5,0.9v33.1c0,0.4-0.2,0.7-0.5,0.9l-12.8,7.4C89.7,89.6,89.6,89.6,89.4,89.6z
						 M67,74.5l22.4,12.9l11.8-6.8v-32L78.8,35.8L67,42.6V74.5z"/>
					<g>
						<polygon class="st2" points="52.2,77 39.4,84.4 16,70.9 28.8,63.5 						"/>
						<path class="st1" d="M39.4,85.4c-0.2,0-0.3,0-0.5-0.1L15.5,71.7c-0.3-0.2-0.5-0.5-0.5-0.9s0.2-0.7,0.5-0.9l12.8-7.4
							c0.3-0.2,0.7-0.2,1,0L52.7,76c0.3,0.2,0.5,0.5,0.5,0.9s-0.2,0.7-0.5,0.9l-12.8,7.4C39.7,85.3,39.6,85.4,39.4,85.4z M18,70.9
							l21.4,12.3L50.2,77L28.8,64.6L18,70.9z"/>
					</g>
					<g>
						<polygon class="st0" points="43.7,76.7 38.8,79.5 24.5,71.2 29.4,68.4 						"/>
						<path class="st0" d="M38.8,80c-0.1,0-0.2,0-0.2-0.1l-14.3-8.3c-0.2-0.1-0.2-0.3-0.2-0.4s0.1-0.3,0.2-0.4l4.9-2.8
							c0.2-0.1,0.3-0.1,0.5,0L44,76.3c0.2,0.1,0.2,0.3,0.2,0.4S44.1,77,44,77.1l-4.9,2.8C39,79.9,38.9,80,38.8,80z M25.5,71.2
							l13.3,7.7l3.9-2.2L29.4,69L25.5,71.2z"/>
					</g>
					<g>
						<polygon class="st1" points="62,110.8 62,82.7 99.3,61.2 99.3,89.3 						"/>
						<path class="st1" d="M62,111.8c-0.2,0-0.3,0-0.5-0.1c-0.3-0.2-0.5-0.5-0.5-0.9V82.7c0-0.4,0.2-0.7,0.5-0.9l37.2-21.5
							c0.3-0.2,0.7-0.2,1,0s0.5,0.5,0.5,0.9v28.1c0,0.4-0.2,0.7-0.5,0.9l-37.2,21.5C62.4,111.8,62.2,111.8,62,111.8z M63,83.3v25.8
							l35.2-20.3V62.9L63,83.3z"/>
					</g>
					<g>
						<polygon class="st0" points="73,104.5 73,88.1 88.3,79.2 88.3,95.6 						"/>
						<path class="st1" d="M73,105.5c-0.2,0-0.3,0-0.5-0.1c-0.3-0.2-0.5-0.5-0.5-0.9V88.1c0-0.4,0.2-0.7,0.5-0.9l15.4-8.9
							c0.3-0.2,0.7-0.2,1,0s0.5,0.5,0.5,0.9v16.4c0,0.4-0.2,0.7-0.5,0.9l-15.4,8.9C73.3,105.4,73.2,105.5,73,105.5z M74,88.7v14.1
							L87.3,95V81L74,88.7z"/>
					</g>
					<path class="st1" d="M62,111.8c-0.2,0-0.3,0-0.5-0.1c-0.3-0.2-0.5-0.5-0.5-0.9V82.7c0-0.4,0.2-0.7,0.5-0.9l37.2-21.5
						c0.3-0.2,0.7-0.2,1,0s0.5,0.5,0.5,0.9v28.1c0,0.4-0.2,0.7-0.5,0.9l-37.2,21.5C62.4,111.8,62.2,111.8,62,111.8z M63,83.3v25.8
						l35.2-20.3V62.9L63,83.3z"/>
					<path class="st3" d="M62,111.8c-0.3,0-0.7-0.2-0.9-0.5c-0.3-0.5-0.1-1.1,0.4-1.4L97,89.4c0.5-0.3,1.1-0.1,1.4,0.4
						s0.1,1.1-0.4,1.4l-35.5,20.5C62.4,111.8,62.2,111.8,62,111.8z"/>
					<g>
						<g>
							<path class="st0" d="M97.3,69.7v26.5c0,1.1,1.6,2.1,3.6,2.1s3.6-0.9,3.6-2.1V69.7H97.3z"/>
							<path class="st1" d="M100.9,99.3c-2.6,0-4.6-1.3-4.6-3.1V69.7c0-0.6,0.4-1,1-1h7.1c0.6,0,1,0.4,1,1v26.5
								C105.4,97.9,103.5,99.3,100.9,99.3z M98.3,70.7v25.5c0,0.4,1,1.1,2.6,1.1s2.6-0.7,2.6-1.1V70.7H98.3z"/>
						</g>
						<g>
							<path class="st0" d="M104.2,77.5c0,1.1-1.5,1.9-3.3,1.9s-3.3-0.9-3.3-1.9s1.5-10.2,3.3-10.2S104.2,76.4,104.2,77.5z"/>
							<path class="st1" d="M100.9,80.4c-2.5,0-4.3-1.3-4.3-2.9c0-0.1,1.1-11.2,4.3-11.2s4.3,11.1,4.3,11.2
								C105.2,79.1,103.3,80.4,100.9,80.4z M100.9,68.4c-0.7,1.2-2.3,6-2.3,9c0,0.3,0.8,0.9,2.3,0.9s2.3-0.7,2.3-0.9
								C103.2,74.5,101.5,69.6,100.9,68.4z"/>
						</g>
						<g>
							<path class="st1" d="M96.5,64v13.2c0,1.4,2,2.5,4.4,2.5s4.4-1.1,4.4-2.5V64H96.5z"/>
							<path class="st1" d="M100.9,80.7c-3,0-5.4-1.5-5.4-3.5V64c0-0.6,0.4-1,1-1h8.7c0.6,0,1,0.4,1,1v13.2
								C106.2,79.1,103.9,80.7,100.9,80.7z M97.5,65v12.2c0,0.6,1.3,1.5,3.4,1.5s3.4-0.9,3.4-1.5V65H97.5z"/>
						</g>
					</g>
					<path class="st3" d="M100.9,99.3c-2.6,0-4.6-1.3-4.6-3.1V79c-0.5-0.6-0.8-1.2-0.8-1.9V64c0-0.6,0.4-1,1-1h8.7c0.6,0,1,0.4,1,1
						v13.2c0,0.7-0.3,1.3-0.8,1.9v17.2C105.4,97.9,103.5,99.3,100.9,99.3z M97.5,65v12.2c0,0.3,0.3,0.5,0.4,0.7
						c0.2,0.2,0.4,0.5,0.4,0.8v17.6c0,0.4,1,1.1,2.6,1.1s2.6-0.7,2.6-1.1V78.6c0-0.3,0.1-0.6,0.4-0.8c0.2-0.1,0.4-0.4,0.4-0.7V65
						H97.5z"/>
					<g>
						<g>
							<path class="st0" d="M72.4,84.1v26.5c0,1.1,1.6,2.1,3.6,2.1s3.6-0.9,3.6-2.1V84.1H72.4z"/>
							<path class="st1" d="M75.9,113.7c-2.6,0-4.6-1.3-4.6-3.1V84.1c0-0.6,0.4-1,1-1h7.1c0.6,0,1,0.4,1,1v26.5
								C80.5,112.3,78.6,113.7,75.9,113.7z M73.4,85.1v25.5c0,0.4,1,1.1,2.6,1.1s2.6-0.7,2.6-1.1V85.1H73.4z"/>
						</g>
						<g>
							<path class="st0" d="M79.3,91.8c0,1.1-1.5,1.9-3.3,1.9s-3.3-0.9-3.3-1.9c0-1.1,1.5-10.2,3.3-10.2
								C77.8,81.6,79.3,90.8,79.3,91.8z"/>
							<path class="st1" d="M75.9,94.8c-2.5,0-4.3-1.3-4.3-2.9c0-0.1,1.1-11.2,4.3-11.2s4.3,11.1,4.3,11.2
								C80.3,93.5,78.4,94.8,75.9,94.8z M75.9,82.8c-0.7,1.2-2.3,6-2.3,9c0,0.3,0.8,0.9,2.3,0.9s2.3-0.7,2.3-0.9
								C78.3,88.9,76.6,84,75.9,82.8z"/>
						</g>
						<g>
							<path class="st1" d="M71.6,78.4v13.2c0,1.4,2,2.5,4.4,2.5s4.4-1.1,4.4-2.5V78.4H71.6z"/>
							<path class="st1" d="M75.9,95.1c-3,0-5.4-1.5-5.4-3.5V78.4c0-0.6,0.4-1,1-1h8.7c0.6,0,1,0.4,1,1v13.2
								C81.3,93.5,79,95.1,75.9,95.1z M72.6,79.4v12.2c0,0.6,1.3,1.5,3.4,1.5s3.4-0.9,3.4-1.5V79.4H72.6z"/>
						</g>
					</g>
					<path class="st3" d="M75.9,113.7c-2.6,0-4.6-1.3-4.6-3.1V93.4c-0.5-0.6-0.8-1.2-0.8-1.9V78.4c0-0.6,0.4-1,1-1h8.7
						c0.6,0,1,0.4,1,1v13.2c0,0.7-0.3,1.3-0.8,1.9v17.2C80.5,112.3,78.6,113.7,75.9,113.7z M72.6,79.4v12.2c0,0.3,0.3,0.5,0.4,0.7
						c0.2,0.2,0.4,0.5,0.4,0.8v17.6c0,0.4,1,1.1,2.6,1.1s2.6-0.7,2.6-1.1V93c0-0.3,0.1-0.6,0.4-0.8c0.2-0.1,0.4-0.4,0.4-0.7V79.4
						H72.6z"/>
					<polygon class="st1" points="39.4,112.5 39.4,84.4 52.2,77 52.2,105.1 					"/>
					<polygon class="st0" points="39.4,112.5 39.4,84.4 16,70.9 16,99 					"/>
					<path class="st2" d="M39.4,97.6c-0.2,0-0.3,0-0.5-0.1L15.5,84c-0.5-0.3-0.6-0.9-0.4-1.4c0.3-0.5,0.9-0.6,1.4-0.4l22.9,13.2
						l12.3-7.1c0.5-0.3,1.1-0.1,1.4,0.4c0.3,0.5,0.1,1.1-0.4,1.4l-12.8,7.4C39.7,97.6,39.6,97.6,39.4,97.6z"/>
					<g>
						<polygon class="st2" points="107.1,58.9 69.9,80.4 28.8,56.7 66,35.2 						"/>
						<path class="st1" d="M69.9,81.4c-0.2,0-0.3,0-0.5-0.1L28.3,57.5c-0.3-0.2-0.5-0.5-0.5-0.9s0.2-0.7,0.5-0.9l37.2-21.5
							c0.3-0.2,0.7-0.2,1,0L107.6,58c0.3,0.2,0.5,0.5,0.5,0.9s-0.2,0.7-0.5,0.9L70.4,81.3C70.2,81.4,70.1,81.4,69.9,81.4z
							 M30.8,56.7l39.1,22.6L105.1,59L66,36.3L30.8,56.7z"/>
					</g>
					<g>
						<polygon class="st2" points="107.1,55.5 88.5,56.9 69.9,77 74.7,79.8 93.4,59.7 112,58.3 						"/>
						<path class="st1" d="M74.7,80.8c-0.2,0-0.3,0-0.5-0.1l-4.9-2.8c-0.3-0.2-0.4-0.4-0.5-0.7c0-0.3,0-0.6,0.3-0.8l18.6-20.1
							c0.2-0.2,0.4-0.3,0.7-0.3l18.6-1.4c0.2,0,0.4,0,0.6,0.1l4.9,2.8c0.4,0.2,0.6,0.7,0.5,1.1c-0.1,0.4-0.5,0.7-0.9,0.8l-18.2,1.3
							L75.5,80.5C75.3,80.7,75,80.8,74.7,80.8z M71.5,76.8l3.1,1.8l18-19.6c0.2-0.2,0.4-0.3,0.7-0.3l15.4-1.1l-1.8-1L89,57.8
							L71.5,76.8z"/>
					</g>
					<g>
						<polygon class="st0" points="69.9,77 69.9,80.4 28.8,56.7 28.8,63.5 52.2,77 52.2,105.1 62,110.8 62,82.7 69.9,87.2 74.7,90 
							74.7,79.8 						"/>
						<path class="st1" d="M62,111.8c-0.2,0-0.3,0-0.5-0.1l-9.9-5.7c-0.3-0.2-0.5-0.5-0.5-0.9V77.6L28.3,64.4
							c-0.3-0.2-0.5-0.5-0.5-0.9v-6.8c0-0.4,0.2-0.7,0.5-0.9s0.7-0.2,1,0l39.6,22.9V77c0-0.4,0.2-0.7,0.5-0.9s0.7-0.2,1,0l4.9,2.8
							c0.3,0.2,0.5,0.5,0.5,0.9V90c0,0.4-0.2,0.7-0.5,0.9s-0.7,0.2-1,0L63,84.4v26.4c0,0.4-0.2,0.7-0.5,0.9
							C62.4,111.8,62.2,111.8,62,111.8z M53.2,104.5l7.9,4.5V82.7c0-0.4,0.2-0.7,0.5-0.9s0.7-0.2,1,0l11.2,6.5v-7.9l-2.9-1.6v1.7
							c0,0.4-0.2,0.7-0.5,0.9s-0.7,0.2-1,0l-39.6-23v4.5l22.9,13.2c0.3,0.2,0.5,0.5,0.5,0.9C53.2,77,53.2,104.5,53.2,104.5z"/>
					</g>
					<path class="st2" d="M57,93c-0.2,0-0.3,0-0.5-0.1l-4.9-2.8c-0.5-0.3-0.6-0.9-0.4-1.4c0.3-0.5,0.9-0.6,1.4-0.4l4.9,2.8
						c0.5,0.3,0.6,0.9,0.4,1.4C57.7,92.9,57.4,93,57,93z"/>
					<g>
						<polygon class="st1" points="93.4,59.7 74.7,79.8 74.7,90 93.4,79.3 112,68.5 112,65.1 112,61.7 112,58.3 						"/>
						<path class="st1" d="M74.7,91c-0.2,0-0.3,0-0.5-0.1c-0.3-0.2-0.5-0.5-0.5-0.9V79.8c0-0.3,0.1-0.5,0.3-0.7L92.6,59
							c0.2-0.2,0.4-0.3,0.7-0.3l18.6-1.4c0.3,0,0.6,0.1,0.8,0.3c0.2,0.2,0.3,0.5,0.3,0.7v10.2c0,0.4-0.2,0.7-0.5,0.9L75.2,90.9
							C75.1,91,74.9,91,74.7,91z M75.7,80.2v8.1L111,68v-8.6l-17.1,1.3L75.7,80.2z"/>
					</g>
					<path class="st0" d="M87.1,76.4c-0.3,0-0.7-0.2-0.9-0.5c-0.3-0.5-0.1-1.1,0.4-1.4l12.5-7.2c0.5-0.3,1.1-0.1,1.4,0.4
						s0.1,1.1-0.4,1.4l-12.5,7.2C87.5,76.3,87.3,76.4,87.1,76.4z"/>
					<polygon class="st0" points="52.2,105.1 52.2,110.1 39.4,117.5 39.4,112.5 					"/>
					<polygon class="st2" points="16,99 16,104 39.4,117.5 39.4,112.5 					"/>
					<path class="st1" d="M39.4,118.5c-0.2,0-0.3,0-0.5-0.1l-23.4-13.5c-0.3-0.2-0.5-0.5-0.5-0.9V70.9c0-0.4,0.2-0.7,0.5-0.9
						s0.7-0.2,1,0l22.9,13.2l12.3-7.1c0.3-0.2,0.7-0.2,1,0s0.5,0.5,0.5,0.9v33.1c0,0.4-0.2,0.7-0.5,0.9l-12.8,7.4
						C39.7,118.4,39.6,118.5,39.4,118.5z M17,103.4l22.4,12.9l11.8-6.8V78.7l-11.3,6.5c-0.3,0.2-0.7,0.2-1,0L17,72.6V103.4z"/>
					<path class="st0" d="M93.4,60.7c-0.2,0-0.3,0-0.5-0.1L88,57.7c-0.5-0.3-0.6-0.9-0.4-1.4c0.3-0.5,0.9-0.6,1.4-0.4l4.9,2.8
						c0.5,0.3,0.6,0.9,0.4,1.4C94,60.5,93.7,60.7,93.4,60.7z"/>
					<path class="st1" d="M74.7,80.8c-0.2,0-0.3,0-0.5-0.1l-4.9-2.8c-0.3-0.2-0.4-0.4-0.5-0.7c0-0.3,0-0.6,0.3-0.8l18.6-20.1
						c0.2-0.2,0.4-0.3,0.7-0.3l18.6-1.4c0.2,0,0.4,0,0.6,0.1l4.9,2.8c0.4,0.2,0.6,0.7,0.5,1.1c-0.1,0.4-0.5,0.7-0.9,0.8l-18.2,1.3
						L75.5,80.5C75.3,80.7,75,80.8,74.7,80.8z M71.5,76.8l3.1,1.8l18-19.6c0.2-0.2,0.4-0.3,0.7-0.3l15.4-1.1l-1.8-1L89,57.8
						L71.5,76.8z"/>
					<path class="st3" d="M39.4,118.5c-0.2,0-0.3,0-0.5-0.1l-23.4-13.5c-0.3-0.2-0.5-0.5-0.5-0.9V70.9c0-0.4,0.2-0.7,0.5-0.9
						l12.8-7.4c0.3-0.2,0.7-0.2,1,0l23.4,13.5c0.3,0.2,0.5,0.5,0.5,0.9v33.1c0,0.4-0.2,0.7-0.5,0.9l-12.8,7.4
						C39.7,118.4,39.6,118.5,39.4,118.5z M17,103.4l22.4,12.9l11.8-6.8v-32L28.8,64.6L17,71.4V103.4z"/>
					<path class="st3" d="M111.7,102.5c-0.6,0-1-0.4-1-1v-5c0-0.6,0.4-1,1-1s1,0.4,1,1v5C112.7,102.1,112.3,102.5,111.7,102.5z"/>
					<path class="st3" d="M74.5,124c-0.2,0-0.3,0-0.5-0.1L51.7,111c-0.3-0.2-0.5-0.5-0.5-0.9V77.6L28.3,64.4
						c-0.3-0.2-0.5-0.5-0.5-0.9v-6.8c0-0.4,0.2-0.7,0.5-0.9l37.2-21.5c0.3-0.2,0.7-0.2,1,0l35.6,20.6l4.9-0.4c0.2,0,0.4,0,0.6,0.1
						l4.9,2.8c0.3,0.2,0.5,0.5,0.5,0.9v10.2c0,0.4-0.2,0.7-0.5,0.9L75.2,90.9c-0.5,0.3-1.1,0.1-1.4-0.4s-0.1-1.1,0.4-1.4L111,68
						v-9.1l-4.1-2.4l-4.9,0.4c-0.2,0-0.4,0-0.6-0.1L66,36.3l-36.2,21V63l22.9,13.2c0.3,0.2,0.5,0.5,0.5,0.9v32.5l21.3,12.3
						l36.7-21.2c0.5-0.3,1.1-0.1,1.4,0.4s0.1,1.1-0.4,1.4L75,123.9C74.9,124,74.7,124,74.5,124z"/>
					<path class="st3" d="M74.7,91c-0.2,0-0.3,0-0.5-0.1l-12.7-7.3c-0.5-0.3-0.6-0.9-0.4-1.4s0.9-0.6,1.4-0.4l12.7,7.3
						c0.5,0.3,0.6,0.9,0.4,1.4C75.4,90.8,75.1,91,74.7,91z"/>
					<path class="st3" d="M62,111.8c-0.6,0-1-0.4-1-1V82.7c0-0.6,0.4-1,1-1s1,0.4,1,1v28.1C63,111.4,62.6,111.8,62,111.8z"/>
					<path class="st3" d="M62,111.8c-0.2,0-0.3,0-0.5-0.1l-9.9-5.7c-0.5-0.3-0.6-0.9-0.4-1.4c0.3-0.5,0.9-0.6,1.4-0.4l9.9,5.7
						c0.5,0.3,0.6,0.9,0.4,1.4C62.7,111.6,62.4,111.8,62,111.8z"/>
					<g>
						<g>
							<g>
								<path class="st1" d="M77.1,49.4c-3.1-2.6-8.3-4.3-14.2-4.3s-11-0.1-14.2,2.5l-3.2,1.8v5.8c0,5.5,7.8,10,17.4,10
									s17.4-4.5,17.4-10v-5.8C80.3,49.4,77.1,49.4,77.1,49.4z"/>
								<path class="st1" d="M62.9,66.2c-10.3,0-18.4-4.8-18.4-11v-5.8c0-0.4,0.2-0.7,0.5-0.9l3.1-1.8C51.4,44,56.5,44,62.4,44h0.4
									c5.6,0,11,1.6,14.5,4.3h2.9c0.6,0,1,0.4,1,1v5.8C81.3,61.4,73.2,66.2,62.9,66.2z M46.5,50v5.2c0,4.9,7.5,9,16.4,9
									s16.4-4.1,16.4-9v-4.8h-2.2c-0.2,0-0.5-0.1-0.6-0.2c-3.2-2.6-8.2-4.1-13.5-4.1h-0.4c-5.6,0-10.3,0-13.1,2.3l-0.1,0.1
									L46.5,50z"/>
							</g>
							<path class="st0" d="M48.7,47.6l-3.2,1.8v5.8c0,5.5,7.8,10,17.4,10V45.1C57,45.1,51.9,45,48.7,47.6z"/>
							<path class="st1" d="M62.9,66.2c-10.3,0-18.4-4.8-18.4-11v-5.8c0-0.4,0.2-0.7,0.5-0.9l3.1-1.8C51.4,44,56.5,44,62.4,44h0.4
								c5.6,0,11,1.6,14.5,4.3h2.9c0.6,0,1,0.4,1,1v5.8C81.3,61.4,73.2,66.2,62.9,66.2z M46.5,50v5.2c0,4.9,7.5,9,16.4,9
								s16.4-4.1,16.4-9v-4.8h-2.2c-0.2,0-0.5-0.1-0.6-0.2c-3.2-2.6-8.2-4.1-13.5-4.1h-0.4c-5.6,0-10.3,0-13.1,2.3l-0.1,0.1L46.5,50
								z"/>
							<g>
								<path class="st2" d="M45.5,49.4c0,5.5,7.8,10,17.4,10s17.4-4.5,17.4-10V42c0-9.6-7.8-17.4-17.4-17.4S45.5,32.4,45.5,42V49.4
									z"/>
								<path class="st1" d="M62.9,60.5c-10.3,0-18.4-4.8-18.4-11V42c0-10.1,8.2-18.4,18.4-18.4c10.1,0,18.4,8.2,18.4,18.4v7.4
									C81.3,55.6,73.2,60.5,62.9,60.5z M62.9,25.7c-9,0-16.4,7.3-16.4,16.4v7.4c0,4.9,7.5,9,16.4,9s16.4-4.1,16.4-9V42
									C79.3,33,71.9,25.7,62.9,25.7z"/>
							</g>
							<path class="st0" d="M62.9,40.6v18.9c6.1,0,11.5-1.8,14.5-4.6c0.1-0.3,0.1-0.6,0.1-0.9V40.8c0-0.3,0-0.6,0-0.9
								C77,30.6,62.9,31.2,62.9,40.6z"/>
							<path class="st0" d="M47.3,55.1c-0.6,0-1-0.4-1-1V42c0-9.2,7.4-16.6,16.6-16.6c0.6,0,1,0.4,1,1s-0.4,1-1,1
								c-8.1,0-14.6,6.6-14.6,14.6v12.1C48.3,54.6,47.8,55.1,47.3,55.1z"/>
							<path class="st2" d="M78.5,54.7c-0.6,0-1-0.4-1-1V42c0-8.1-6.6-14.6-14.6-14.6c-0.6,0-1-0.4-1-1s0.4-1,1-1
								c9.2,0,16.6,7.4,16.6,16.6v11.7C79.5,54.2,79.1,54.7,78.5,54.7z"/>
							<path class="st1" d="M62.9,60.5c-10.3,0-18.4-4.8-18.4-11V42c0-10.1,8.2-18.4,18.4-18.4c10.1,0,18.4,8.2,18.4,18.4v7.4
								C81.3,55.6,73.2,60.5,62.9,60.5z M62.9,25.7c-9,0-16.4,7.3-16.4,16.4v7.4c0,4.9,7.5,9,16.4,9s16.4-4.1,16.4-9V42
								C79.3,33,71.9,25.7,62.9,25.7z"/>
							<g>
								<path class="st2" d="M62.9,19.8c-3.4,0-6.1,2.7-6.1,6.1v2c0,2,2.7,3.5,6.1,3.5c3.4,0,6.1-1.6,6.1-3.5v-2
									C69,22.5,66.3,19.8,62.9,19.8z"/>
								<path class="st1" d="M62.9,32.4c-4,0-7.1-2-7.1-4.5v-2c0-3.9,3.2-7.1,7.1-7.1S70,22,70,25.9v2C70,30.5,66.9,32.4,62.9,32.4z
									 M62.9,20.8c-2.8,0-5.1,2.3-5.1,5.1v2c0,1.2,2.1,2.5,5.1,2.5s5.1-1.3,5.1-2.5v-2C68,23.1,65.7,20.8,62.9,20.8z"/>
							</g>
							<path class="st0" d="M63,25.7v5.7c3.3,0,6-1.6,6-3.5v-2c0-0.2,0-0.4,0-0.6C68.7,21.6,63,22,63,25.7z"/>
							<path class="st1" d="M62.9,32.4c-4,0-7.1-2-7.1-4.5v-2c0-3.9,3.2-7.1,7.1-7.1S70,22,70,25.9v2C70,30.5,66.9,32.4,62.9,32.4z
								 M62.9,20.8c-2.8,0-5.1,2.3-5.1,5.1v2c0,1.2,2.1,2.5,5.1,2.5s5.1-1.3,5.1-2.5v-2C68,23.1,65.7,20.8,62.9,20.8z"/>
							<ellipse class="st1" cx="62.9" cy="21.2" rx="1.4" ry="1"/>
						</g>
						<path class="st3" d="M62.9,66.2c-10.3,0-18.4-4.8-18.4-11V42c0-7.4,4.5-14.1,11.3-16.9c0.4-3.5,3.4-6.3,7.1-6.3
							c3.7,0,6.7,2.8,7.1,6.3c6.8,2.8,11.3,9.6,11.3,16.9v13.2C81.3,61.4,73.2,66.2,62.9,66.2z M62.9,20.8c-2.8,0-5.1,2.3-5.1,5
							c0,0.4-0.3,0.8-0.6,0.9c-6.3,2.4-10.6,8.5-10.6,15.3v13.2c0,4.9,7.5,9,16.4,9s16.4-4.1,16.4-9V42c0-6.8-4.3-12.9-10.6-15.3
							c-0.4-0.1-0.6-0.5-0.6-0.9C68,23,65.7,20.8,62.9,20.8z"/>
					</g>
					<path class="st3" d="M111.7,97.5c-0.2,0-0.3,0-0.5-0.1l-7.3-4.2c-0.5-0.3-0.6-0.9-0.4-1.4c0.3-0.5,0.9-0.6,1.4-0.4l7.3,4.2
						c0.5,0.3,0.6,0.9,0.4,1.4C112.4,97.3,112.1,97.5,111.7,97.5z"/>
					<path class="st3" d="M62.9,21.8c-0.6,0-1-0.4-1-1V8.4c0-0.6,0.4-1,1-1s1,0.4,1,1v12.4C63.9,21.3,63.4,21.8,62.9,21.8z"/>
				</g>
				<rect x="4" y="4" class="st4" width="120" height="120"/>
				<rect x="4" y="4" class="st4" width="120" height="120"/>
			</g>
		</g>
	</g>
	<g>
		<rect class="st4" width="128" height="128"/>
	</g>
</g>
</svg>
