<?xml version="1.0" encoding="utf-8"?>
<!-- Generator: Adobe Illustrator 24.1.0, SVG Export Plug-In . SVG Version: 6.00 Build 0)  -->
<svg version="1.1" id="Layer_1" xmlns="http://www.w3.org/2000/svg" xmlns:xlink="http://www.w3.org/1999/xlink" x="0px" y="0px"
	 viewBox="0 0 128 128" style="enable-background:new 0 0 128 128;" xml:space="preserve">
<style type="text/css">
	.st0{fill:#FFFFFF;}
	.st1{fill:#4D9987;}
	.st2{fill:#E9EBDF;}
	.st3{fill:#0E352C;}
	.st4{fill:#C4D7D3;}
	.st5{fill:#27ae60;}
	.st6{fill:none;}
	.st7{fill:#185849;}
</style>
<g id="Layer_1_1_">
</g>
<g>
	<g id="Layer_2_1_">
		<g id="New_Illustrations_1_">
			<g>
				<g>
					<g>
						<g>
							<g>
								<path class="st0" d="M98.5,9.9l-7.8-4.5l0,0c-0.2-0.1-0.5-0.1-0.7,0.1L24,43.6c-0.6,0.4-1.1,1.3-1.1,2.2v64
									c0,0.5,0.2,0.8,0.4,0.9l0,0l7.8,4.5l6.6-12.5L90,67.4c0.6-0.4,1.1-1.3,1.1-2.2V19.9L98.5,9.9z"/>
								<path class="st1" d="M31,116.2c-0.2,0-0.3,0-0.5-0.1l-7.8-4.5c-0.1,0-0.1-0.1-0.2-0.1c-0.5-0.4-0.7-1-0.7-1.7v-64
									c0-1.2,0.7-2.5,1.6-3l66-38.1c0.5-0.3,1.1-0.3,1.6-0.1c0.1,0,0.1,0,0.2,0.1L99,9.1c0.2,0.1,0.4,0.4,0.5,0.7s0,0.6-0.2,0.8
									L92,20.2v45c0,1.2-0.7,2.5-1.6,3l-52,35.2l-6.5,12.3c-0.1,0.2-0.3,0.4-0.6,0.5C31.2,116.2,31.1,116.2,31,116.2z M23.7,109.9
									l6.8,3.9l6.1-11.6c0.1-0.1,0.2-0.3,0.3-0.4l52.3-35.3c0.4-0.2,0.7-0.8,0.7-1.4V19.9c0-0.2,0.1-0.4,0.2-0.6l6.8-9l-6.7-3.9
									l-65.8,38c-0.3,0.2-0.6,0.8-0.6,1.3v64C23.7,109.8,23.7,109.9,23.7,109.9z"/>
							</g>
							<path class="st2" d="M30.6,115V39.7l-6.7,3.9c-0.6,0.4-1.1,1.3-1.1,2.2v64c0,0.5,0.2,0.8,0.4,0.9l0,0L30.6,115z"/>
							<g>
								<path class="st1" d="M67.2,80.5l22.7-13.1c0.6-0.4,1.1-1.3,1.1-2.2V19.9l7.5-9.9l-7.8-4.5l0,0c-0.2-0.1-0.5-0.1-0.7,0.1
									L24,43.7c-0.6,0.4-1.1,1.3-1.1,2.2V55L67.2,80.5z"/>
								<path class="st3" d="M67.2,81.5c-0.2,0-0.3,0-0.5-0.1L22.2,55.7c-0.3-0.2-0.5-0.5-0.5-0.9v-9.1c0-1.2,0.7-2.5,1.6-3l66-38.1
									c0.5-0.3,1.1-0.3,1.6-0.1c0.1,0,0.1,0,0.2,0.1L99,9.1c0.2,0.1,0.4,0.4,0.5,0.7s0,0.6-0.2,0.8L92,20.2v45
									c0,1.2-0.7,2.5-1.6,3L67.7,81.4C67.5,81.5,67.3,81.5,67.2,81.5z M23.7,54.3l43.4,25.1l22.2-12.8c0.3-0.2,0.6-0.8,0.6-1.3
									V19.9c0-0.2,0.1-0.4,0.2-0.6l6.8-9l-6.7-3.9l-65.8,38c-0.3,0.2-0.6,0.8-0.6,1.3L23.7,54.3L23.7,54.3z"/>
							</g>
							<path class="st2" d="M69.3,72.6L91,42.2V19.9l7.5-9.9l-7.8-4.5l0,0c-0.2-0.1-0.5-0.1-0.7,0.1L24,43.7
								c-0.6,0.4-1.1,1.3-1.1,2.2l0,0L69.3,72.6z"/>
							<g>
								<path class="st0" d="M97.7,77.1l-66,38.1c-0.6,0.4-1.1,0-1.1-0.9v-64c0-0.8,0.5-1.8,1.1-2.2l66-38.1c0.6-0.4,1.1,0,1.1,0.9
									v64C98.9,75.7,98.4,76.7,97.7,77.1z"/>
								<path class="st1" d="M31.3,116.3c-0.3,0-0.5-0.1-0.8-0.2c-0.6-0.3-0.9-1-0.9-1.8v-64c0-1.2,0.7-2.5,1.6-3l66-38.1
									c0.6-0.3,1.2-0.4,1.7-0.1c0.6,0.3,0.9,1,0.9,1.8v64c0,1.2-0.7,2.5-1.6,3l-66,38.1C31.9,116.2,31.6,116.3,31.3,116.3z
									 M97.9,11.1L32.2,49c-0.3,0.2-0.6,0.8-0.6,1.3v63.8l65.6-37.9l0,0c0.3-0.2,0.6-0.8,0.6-1.3V11.1H97.9z"/>
							</g>
							<path class="st1" d="M39.9,101.8c-0.2,0-0.4,0-0.5-0.1c-0.5-0.3-0.6-0.9-0.3-1.4L49,84.1c0.1-0.2,0.3-0.3,0.5-0.4l9.7-3.4
								L68.9,69c0-0.1,0.1-0.1,0.2-0.1l9.8-7.4L88.8,47c0.3-0.5,0.9-0.6,1.4-0.3s0.6,0.9,0.3,1.4l-9.9,14.6
								c-0.1,0.1-0.1,0.2-0.2,0.2l-9.9,7.4l-9.9,11.4c-0.1,0.1-0.3,0.2-0.4,0.3l-9.6,3.3l-9.8,15.9
								C40.5,101.7,40.2,101.8,39.9,101.8z"/>
							<path class="st3" d="M31.3,116.3c-0.2,0-0.4,0-0.6-0.1c-0.1,0-0.1,0-0.2-0.1l-7.8-4.5c-0.1,0-0.1-0.1-0.2-0.1
								c-0.5-0.4-0.7-1-0.7-1.7v-64c0-1.2,0.7-2.5,1.6-3l66-38.1c0.5-0.3,1.1-0.3,1.6-0.1c0.1,0,0.1,0,0.2,0.1L99,9.1
								c0.1,0,0.1,0.1,0.2,0.1c0.5,0.4,0.7,1,0.7,1.7v64c0,1.2-0.7,2.5-1.6,3l-66,38.1C31.9,116.2,31.6,116.3,31.3,116.3z
								 M23.7,109.9l7.6,4.4l65.9-38.1c0.3-0.2,0.6-0.8,0.6-1.3v-64c0-0.1,0-0.1,0-0.1l-7.6-4.4l-65.8,38c-0.3,0.2-0.6,0.8-0.6,1.3
								v64C23.7,109.8,23.7,109.9,23.7,109.9z M98,10.8L98,10.8L98,10.8z"/>
							<g>
								<path class="st3" d="M98.9,20v-9.1c0-0.8-0.5-1.2-1.1-0.9l-66,38.1c-0.6,0.4-1.1,1.3-1.1,2.2v9.1L98.9,20z"/>
								<path class="st3" d="M30.6,60.4c-0.2,0-0.3,0-0.5-0.1c-0.3-0.2-0.5-0.5-0.5-0.9v-9.1c0-1.2,0.7-2.5,1.6-3l66-38.1
									c0.6-0.3,1.2-0.4,1.7-0.1c0.6,0.3,0.9,1,0.9,1.8V20c0,0.4-0.2,0.7-0.5,0.9L31.1,60.3C30.9,60.4,30.8,60.4,30.6,60.4z
									 M97.9,11.1L32.2,49c-0.3,0.2-0.6,0.8-0.6,1.3v7.4l66.3-38.3V11.1z M98.9,20L98.9,20L98.9,20z"/>
							</g>
							<g>
								
									<ellipse transform="matrix(0.3916 -0.9201 0.9201 0.3916 -19.5144 67.1458)" class="st2" cx="41" cy="48.3" rx="2" ry="1.1"/>
								
									<ellipse transform="matrix(0.3916 -0.9201 0.9201 0.3916 -13.8249 69.9219)" class="st0" cx="46" cy="45.4" rx="2" ry="1.1"/>
								
									<ellipse transform="matrix(0.3916 -0.9201 0.9201 0.3916 -25.3265 64.2188)" class="st1" cx="35.9" cy="51.3" rx="2" ry="1.1"/>
							</g>
							<g>
								<path class="st1" d="M39.9,101.8c-0.3,0-0.7-0.2-0.9-0.5c-0.3-0.5-0.1-1.1,0.4-1.4l49.7-28.7c0.5-0.3,1.1-0.1,1.4,0.4
									s0.1,1.1-0.4,1.4l-49.7,28.7C40.2,101.8,40,101.8,39.9,101.8z"/>
								<path class="st1" d="M39.9,101.8c-0.6,0-1-0.4-1-1V65.5c0-0.6,0.4-1,1-1s1,0.4,1,1v35.3C40.9,101.4,40.4,101.8,39.9,101.8z"
									/>
							</g>
							<path class="st1" d="M39.9,101.8c-0.3,0-0.7-0.2-0.9-0.5c-0.3-0.5-0.1-1.1,0.4-1.4l49.7-28.7c0.5-0.3,1.1-0.1,1.4,0.4
								s0.1,1.1-0.4,1.4l-49.7,28.7C40.2,101.8,40,101.8,39.9,101.8z"/>
							<path class="st1" d="M89.6,75.5c-0.6,0-1-0.4-1-1v-2.3c0-0.6,0.4-1,1-1s1,0.4,1,1v2.3C90.6,75,90.1,75.5,89.6,75.5z"/>
							<path class="st1" d="M79.6,81.2c-0.6,0-1-0.4-1-1v-2.3c0-0.6,0.4-1,1-1s1,0.4,1,1v2.3C80.6,80.8,80.2,81.2,79.6,81.2z"/>
							<path class="st1" d="M69.7,87c-0.6,0-1-0.4-1-1v-2.3c0-0.6,0.4-1,1-1s1,0.4,1,1V86C70.7,86.5,70.3,87,69.7,87z"/>
							<path class="st1" d="M59.8,92.7c-0.6,0-1-0.4-1-1v-2.3c0-0.6,0.4-1,1-1s1,0.4,1,1v2.3C60.8,92.3,60.3,92.7,59.8,92.7z"/>
							<path class="st1" d="M49.8,98.4c-0.6,0-1-0.4-1-1v-2.3c0-0.6,0.4-1,1-1s1,0.4,1,1v2.3C50.8,98,50.4,98.4,49.8,98.4z"/>
							<path class="st1" d="M39.9,104.2c-0.6,0-1-0.4-1-1v-2.3c0-0.6,0.4-1,1-1s1,0.4,1,1v2.3C40.9,103.7,40.4,104.2,39.9,104.2z"/>
						</g>
					</g>
					<g>
						<g>
							<g>
								<path class="st4" d="M100.5,106c-0.1,0-0.2-0.1-0.2-0.1c-6.7-3.9-17.5-3.9-24.2,0c-0.1,0-0.2,0.1-0.2,0.1H71v6.8
									c0,2.5,1.7,5.1,5,7c6.7,3.9,17.5,3.9,24.2,0c3.3-1.9,5-5.6,5-8.1V106H100.5z"/>
								<path class="st5" d="M100.3,119.8c3.3-1.9,5-5.6,5-8.1V106h-4.8c-0.1,0-0.2-0.1-0.2-0.1C97,104,92.6,103,88.2,103v19.7
									C92.5,122.7,96.9,121.7,100.3,119.8z"/>
								<ellipse class="st4" cx="88.2" cy="106" rx="17.1" ry="9.9"/>
								<path class="st0" d="M88.2,116.9c-4.6,0-9.1-1-12.6-3C72,111.8,70,109,70,106s2-5.8,5.5-7.9c6.9-4,18.2-4,25.2,0l0,0
									c3.6,2.1,5.5,4.8,5.5,7.9c0,3-2,5.8-5.5,7.9C97.3,115.8,92.7,116.9,88.2,116.9z M88.2,97.1c-4.2,0-8.4,0.9-11.6,2.8
									c-2.9,1.7-4.5,3.9-4.5,6.1c0,2.3,1.6,4.4,4.5,6.1c6.4,3.7,16.8,3.7,23.2,0c2.9-1.7,4.5-3.9,4.5-6.1c0-2.3-1.6-4.4-4.5-6.1
									l0,0C96.6,98,92.4,97.1,88.2,97.1z"/>
								<ellipse class="st6" cx="88.2" cy="112.3" rx="17.4" ry="10.5"/>
								<path class="st7" d="M88.2,123.7c-4.7,0-9.2-1.1-12.6-3c-3.6-2.1-5.5-4.8-5.5-7.9V106c0-3,2-5.8,5.5-7.9
									c6.9-4,18.2-4,25.2,0c3.6,2.1,5.5,4.8,5.5,7.9v5.7c0,0.9-0.2,3.2-0.8,4.4c-0.9,1.7-2.5,3.3-4.7,4.6c-1.7,1-3.7,1.8-5.9,2.3
									c-0.5,0.1-1.1,0.2-1.6,0.3c-1.1,0.2-2.2,0.3-3.3,0.4C89.3,123.7,88.7,123.7,88.2,123.7z M88.2,97.1c-4.2,0-8.4,0.9-11.6,2.8
									c-2.9,1.7-4.5,3.9-4.5,6.1v6.8c0,2.3,1.6,4.4,4.5,6.1c3.1,1.8,7.2,2.8,11.6,2.8c0.5,0,1.1,0,1.6,0c1.1-0.1,2.1-0.2,3.1-0.3
									c0.5-0.1,1-0.2,1.5-0.3c2-0.5,3.8-1.2,5.4-2.1c1.8-1.1,3.2-2.4,3.9-3.8c0.4-0.7,0.6-2.5,0.6-3.5V106c0-2.3-1.6-4.4-4.5-6.1
									C96.6,98,92.4,97.1,88.2,97.1z"/>
								<path class="st5" d="M94.8,108.8l1.8,1l-1.6,0.9l-1.8-1c-0.8,0.4-1.7,0.8-2.7,1.1c-1,0.3-1.8,0.5-2.6,0.5l-1.1-1.7
									c0.7-0.1,1.4-0.2,2.2-0.4c0.8-0.2,1.5-0.5,2.1-0.8l-2.7-1.6c-0.9,0.3-1.8,0.6-2.5,0.8c-0.8,0.2-1.5,0.2-2.3,0.2
									s-1.6-0.3-2.3-0.7c-0.9-0.5-1.3-1.2-1.3-1.9c0-0.7,0.5-1.5,1.6-2.3l-1.8-1l1.6-0.9l1.8,1c1.4-0.7,2.9-1.2,4.3-1.3l1.2,1.6
									c-1.3,0.2-2.4,0.5-3.3,0.9l2.8,1.6c0.9-0.3,1.8-0.6,2.5-0.8c0.8-0.2,1.5-0.2,2.3-0.2s1.5,0.3,2.3,0.7
									c0.9,0.5,1.3,1.1,1.3,1.9C96.4,107.2,95.8,108,94.8,108.8z M84.6,105.8c0.4,0,0.8-0.1,1.3-0.3l-2.3-1.3
									c-0.3,0.3-0.5,0.6-0.4,0.8c0,0.2,0.2,0.4,0.5,0.6C84,105.8,84.3,105.8,84.6,105.8 M90.4,106.2l2.2,1.3
									c0.3-0.3,0.4-0.5,0.4-0.8c0-0.2-0.1-0.4-0.4-0.6s-0.6-0.2-1-0.2C91.3,106,90.9,106.1,90.4,106.2"/>
							</g>
						</g>
						<g>
							<g>
								<path class="st4" d="M100.5,99.2c-0.1,0-0.2-0.1-0.2-0.1c-6.7-3.9-17.5-3.9-24.2,0c-0.1,0-0.2,0.1-0.2,0.1H71v6.8
									c0,2.5,1.7,5.1,5,7c6.7,3.9,17.5,3.9,24.2,0c3.3-1.9,5-5.6,5-8.1v-5.7C105.2,99.2,100.5,99.2,100.5,99.2z"/>
								<path class="st5" d="M100.3,113c3.3-1.9,5-5.6,5-8.1v-5.7h-4.8c-0.1,0-0.2-0.1-0.2-0.1c-3.3-1.9-7.7-2.9-12.1-2.9v19.7
									C92.5,115.9,96.9,114.9,100.3,113z"/>
								<ellipse class="st4" cx="88.2" cy="99.2" rx="17.1" ry="9.9"/>
								<path class="st0" d="M88.2,110c-4.6,0-9.1-1-12.6-3c-3.6-2-5.6-4.8-5.6-7.8s2-5.8,5.5-7.9c6.9-4,18.2-4,25.2,0l0,0
									c3.6,2.1,5.5,4.8,5.5,7.9c0,3-2,5.8-5.5,7.9C97.3,109,92.7,110,88.2,110z M88.2,90.3c-4.2,0-8.4,0.9-11.6,2.8
									c-2.9,1.7-4.5,3.9-4.5,6.1c0,2.3,1.6,4.4,4.5,6.1c6.4,3.7,16.8,3.7,23.2,0c2.9-1.7,4.5-3.9,4.5-6.1c0-2.3-1.6-4.4-4.5-6.1
									l0,0C96.6,91.2,92.4,90.3,88.2,90.3z"/>
								<ellipse class="st6" cx="88.2" cy="105.4" rx="17.4" ry="10.5"/>
								<path class="st7" d="M88.2,116.9c-4.7,0-9.2-1.1-12.6-3C72,111.8,70,109,70,106v-6.8c0-3,2-5.8,5.5-7.9c6.9-4,18.2-4,25.2,0
									c3.6,2.1,5.5,4.8,5.5,7.9v5.7c0,0.9-0.2,3.2-0.8,4.4c-0.9,1.7-2.5,3.3-4.7,4.6c-1.7,1-3.7,1.8-5.9,2.3
									c-0.5,0.1-1.1,0.2-1.6,0.3c-1.1,0.2-2.2,0.3-3.3,0.4C89.3,116.9,88.7,116.9,88.2,116.9z M88.2,90.3c-4.2,0-8.4,0.9-11.6,2.8
									c-2.9,1.7-4.5,3.9-4.5,6.1v6.8c0,2.3,1.6,4.4,4.5,6.1c3.5,2,8.3,3,13.2,2.7c1.1-0.1,2.1-0.2,3.1-0.3c0.5-0.1,1-0.2,1.5-0.3
									c2-0.5,3.8-1.2,5.4-2.1c1.8-1.1,3.2-2.4,3.9-3.8c0.4-0.7,0.6-2.5,0.6-3.5v-5.7c0-2.3-1.6-4.4-4.5-6.1
									C96.6,91.2,92.4,90.3,88.2,90.3z"/>
								<path class="st5" d="M94.8,101.9l1.8,1l-1.6,0.9l-1.8-1c-0.8,0.4-1.7,0.8-2.7,1.1c-1,0.3-1.8,0.5-2.6,0.5l-1.1-1.7
									c0.7-0.1,1.4-0.2,2.2-0.4c0.8-0.2,1.5-0.5,2.1-0.8l-2.7-1.6c-0.9,0.3-1.8,0.6-2.5,0.8c-0.8,0.2-1.5,0.2-2.3,0.2
									s-1.6-0.3-2.3-0.7C80.4,99.7,80,99,80,98.3c0-0.7,0.5-1.5,1.6-2.3l-1.8-1l1.6-0.9l1.8,1c1.4-0.7,2.9-1.2,4.3-1.3l1.2,1.6
									c-1.3,0.2-2.4,0.5-3.3,0.9L88,98c0.9-0.3,1.8-0.6,2.5-0.8C91.3,97,92,97,92.8,97s1.5,0.3,2.3,0.7c0.9,0.5,1.3,1.1,1.3,1.9
									C96.4,100.4,95.8,101.1,94.8,101.9z M84.6,99c0.4,0,0.8-0.1,1.3-0.3l-2.3-1.3c-0.3,0.3-0.5,0.6-0.4,0.8
									c0,0.2,0.2,0.4,0.5,0.6C84,99,84.3,99,84.6,99 M90.4,99.4l2.2,1.3c0.3-0.3,0.4-0.5,0.4-0.8c0-0.2-0.1-0.4-0.4-0.6
									s-0.6-0.2-1-0.2C91.3,99.2,90.9,99.3,90.4,99.4"/>
							</g>
						</g>
						<g>
							<g>
								<path class="st4" d="M100.5,92.6c-0.1,0-0.2-0.1-0.2-0.1c-6.7-3.9-17.5-3.9-24.2,0c-0.1,0-0.2,0.1-0.2,0.1H71v6.8
									c0,2.5,1.7,5.1,5,7c6.7,3.9,17.5,3.9,24.2,0c3.3-1.9,5-5.6,5-8.1v-5.7C105.2,92.6,100.5,92.6,100.5,92.6z"/>
								<path class="st5" d="M100.3,106.4c3.3-1.9,5-5.6,5-8.1v-5.7h-4.8c-0.1,0-0.2-0.1-0.2-0.1c-3.3-1.9-7.7-2.9-12.1-2.9v19.7
									C92.5,109.2,96.9,108.3,100.3,106.4z"/>
								<ellipse class="st4" cx="88.2" cy="92.6" rx="17.1" ry="9.9"/>
								<path class="st0" d="M88.2,103.4c-4.6,0-9.1-1-12.6-3c-3.6-2-5.6-4.8-5.6-7.8s2-5.8,5.5-7.9c6.9-4,18.2-4,25.2,0l0,0
									c3.6,2.1,5.5,4.8,5.5,7.9s-2,5.8-5.5,7.9C97.3,102.4,92.7,103.4,88.2,103.4z M88.2,83.7c-4.2,0-8.4,0.9-11.6,2.8
									c-2.9,1.7-4.5,3.9-4.5,6.1c0,2.3,1.6,4.4,4.5,6.1c6.4,3.7,16.8,3.7,23.2,0c2.9-1.7,4.5-3.9,4.5-6.1c0-2.3-1.6-4.4-4.5-6.1
									C96.6,84.6,92.4,83.7,88.2,83.7z"/>
								<ellipse class="st6" cx="88.2" cy="98.8" rx="17.4" ry="10.5"/>
								<path class="st7" d="M88.2,110.2c-4.7,0-9.2-1.1-12.6-3c-3.6-2.1-5.5-4.8-5.5-7.9v-6.8c0-3,2-5.8,5.5-7.9
									c6.9-4,18.2-4,25.2,0c3.6,2.1,5.5,4.8,5.5,7.9v5.7c0,0.9-0.2,3.2-0.8,4.4c-0.9,1.7-2.5,3.3-4.7,4.6c-1.7,1-3.7,1.8-5.9,2.3
									c-0.5,0.1-1.1,0.2-1.6,0.3c-1.1,0.2-2.2,0.3-3.3,0.4C89.3,110.2,88.7,110.2,88.2,110.2z M88.2,83.7c-4.2,0-8.4,0.9-11.6,2.8
									c-2.9,1.7-4.5,3.9-4.5,6.1v6.8c0,2.3,1.6,4.4,4.5,6.1c3.5,2,8.3,3,13.2,2.7c1.1-0.1,2.1-0.2,3.1-0.3c0.5-0.1,1-0.2,1.5-0.3
									c2-0.5,3.8-1.2,5.4-2.1c1.8-1.1,3.2-2.4,3.9-3.8c0.4-0.7,0.6-2.5,0.6-3.5v-5.7c0-2.3-1.6-4.4-4.5-6.1
									C96.6,84.6,92.4,83.7,88.2,83.7z"/>
								<path class="st5" d="M94.8,95.3l1.8,1l-1.6,1l-1.8-1c-0.8,0.4-1.7,0.8-2.7,1.1c-1,0.3-1.8,0.5-2.6,0.5l-1.1-1.7
									c0.7-0.1,1.4-0.2,2.2-0.4c0.8-0.2,1.5-0.5,2.1-0.8l-2.7-1.6c-0.9,0.3-1.8,0.6-2.5,0.8c-0.8,0.2-1.5,0.2-2.3,0.2
									s-1.6-0.3-2.3-0.7c-0.9-0.5-1.3-1.2-1.3-1.9c0-0.7,0.5-1.5,1.6-2.3l-1.8-1l1.6-0.9l1.8,1c1.4-0.7,2.9-1.2,4.3-1.3l1.2,1.6
									c-1.3,0.2-2.4,0.5-3.3,0.9l2.8,1.6c0.9-0.3,1.8-0.6,2.5-0.8c0.8-0.2,1.5-0.2,2.3-0.2s1.5,0.3,2.3,0.7
									c0.9,0.5,1.3,1.1,1.3,1.9C96.4,93.8,95.8,94.5,94.8,95.3z M84.6,92.4c0.4,0,0.8-0.1,1.3-0.3l-2.3-1.3
									c-0.3,0.3-0.5,0.6-0.4,0.8c0,0.2,0.2,0.4,0.5,0.6C84,92.3,84.3,92.4,84.6,92.4 M90.4,92.8l2.2,1.3c0.3-0.3,0.4-0.5,0.4-0.8
									c0-0.2-0.1-0.4-0.4-0.6s-0.6-0.2-1-0.2C91.3,92.6,90.9,92.7,90.4,92.8"/>
							</g>
						</g>
					</g>
				</g>
				<rect x="4" y="4" class="st6" width="120" height="120"/>
			</g>
		</g>
	</g>
	<g>
		<rect class="st6" width="128" height="128"/>
	</g>
</g>
</svg>
