<?xml version="1.0" encoding="utf-8"?>
<!-- Generator: Adobe Illustrator 24.1.0, SVG Export Plug-In . SVG Version: 6.00 Build 0)  -->
<svg version="1.1" id="Layer_1" xmlns="http://www.w3.org/2000/svg" xmlns:xlink="http://www.w3.org/1999/xlink" x="0px" y="0px"
	 viewBox="0 0 128 128" style="enable-background:new 0 0 128 128;" xml:space="preserve">
<style type="text/css">
	.st0{fill:#185849;}
	.st1{fill:#0E352C;}
	.st2{fill:#E9EBDF;}
	.st3{fill:#4D9987;}
	.st4{fill:#FFFFFF;}
	.st5{fill:#C4D7D3;}
	.st6{fill:#27ae60;}
	.st7{fill:none;}
</style>
<g id="Layer_1_1_">
</g>
<g>
	<g id="Layer_2_1_">
		<g id="Actions_1_">
			<g>
				<g>
					<g>
						<path class="st0" d="M80.6,91.3c-0.3,0-0.5-0.1-0.7-0.3c-0.2-0.2-0.3-0.4-0.3-0.7c0-0.3,0.1-0.5,0.3-0.7c0.4-0.4,1-0.4,1.4,0
							c0.2,0.2,0.3,0.5,0.3,0.7c0,0.3-0.1,0.5-0.3,0.7C81.2,91.2,80.9,91.3,80.6,91.3z"/>
						<path class="st0" d="M68.7,97.2c-0.3-0.5-0.1-1.1,0.4-1.4l0,0c0.5-0.3,1.1-0.1,1.4,0.4l0,0c0.3,0.5,0.1,1.1-0.4,1.4l0,0
							c-0.2,0.1-0.3,0.1-0.5,0.1l0,0C69.2,97.7,68.9,97.5,68.7,97.2z M74.2,94c-0.3-0.5-0.1-1.1,0.4-1.4l0,0
							c0.5-0.3,1.1-0.1,1.4,0.4l0,0c0.3,0.5,0.1,1.1-0.4,1.4l0,0c-0.2,0.1-0.3,0.1-0.5,0.1l0,0C74.7,94.5,74.4,94.3,74.2,94z"/>
						<path class="st0" d="M64,100.9c-0.3,0-0.5-0.1-0.7-0.3c-0.1-0.1-0.2-0.2-0.2-0.3c0-0.1-0.1-0.2-0.1-0.4c0-0.3,0.1-0.5,0.3-0.7
							c0.1-0.1,0.2-0.2,0.3-0.2c0.4-0.1,0.8-0.1,1.1,0.2c0.2,0.2,0.3,0.4,0.3,0.7c0,0.3-0.1,0.5-0.3,0.7c0,0-0.1,0.1-0.2,0.1
							s-0.1,0.1-0.2,0.1s-0.1,0-0.2,0.1C64.1,100.9,64.1,100.9,64,100.9z"/>
					</g>
					<g>
						<path class="st0" d="M47.4,91.3c-0.3,0-0.5-0.1-0.7-0.3l-0.1-0.1c0-0.1-0.1-0.1-0.1-0.2s0-0.1-0.1-0.2c0-0.1,0-0.1,0-0.2
							s0-0.3,0.1-0.4s0.1-0.2,0.2-0.3c0.4-0.4,1-0.4,1.4,0c0.1,0.1,0.2,0.2,0.2,0.3c0,0.1,0.1,0.2,0.1,0.4c0,0.1,0,0.1,0,0.2
							s0,0.1,0,0.2s-0.1,0.1-0.1,0.2L48.2,91C47.9,91.2,47.6,91.3,47.4,91.3z"/>
						<path class="st0" d="M58,97.5c-0.5-0.3-0.7-0.9-0.4-1.4l0,0c0.3-0.5,0.9-0.6,1.4-0.4l0,0c0.5,0.3,0.6,0.9,0.4,1.4l0,0
							c-0.2,0.3-0.5,0.5-0.9,0.5l0,0C58.3,97.7,58.1,97.6,58,97.5z M52.4,94.3c-0.5-0.3-0.6-0.9-0.4-1.4l0,0
							c0.3-0.5,0.9-0.6,1.4-0.4l0,0c0.5,0.3,0.6,0.9,0.4,1.4l0,0c-0.2,0.3-0.5,0.5-0.9,0.5l0,0C52.7,94.5,52.6,94.4,52.4,94.3z"/>
						<path class="st0" d="M64,100.9c-0.3,0-0.5-0.1-0.7-0.3c-0.1-0.1-0.2-0.2-0.2-0.3c0-0.1-0.1-0.2-0.1-0.4c0-0.3,0.1-0.5,0.3-0.7
							c0.1-0.1,0.2-0.2,0.3-0.2c0.4-0.1,0.8-0.1,1.1,0.2c0.2,0.2,0.3,0.4,0.3,0.7c0,0.3-0.1,0.5-0.3,0.7c0,0-0.1,0.1-0.2,0.1
							s-0.1,0.1-0.2,0.1s-0.1,0-0.2,0.1C64.1,100.9,64.1,100.9,64,100.9z"/>
					</g>
					<g>
						<path class="st0" d="M80.6,72.1c-0.3,0-0.5-0.1-0.7-0.3c-0.2-0.2-0.3-0.4-0.3-0.7c0-0.3,0.1-0.5,0.3-0.7c0.4-0.4,1-0.4,1.4,0
							c0.2,0.2,0.3,0.4,0.3,0.7c0,0.3-0.1,0.5-0.3,0.7C81.1,72,80.8,72.1,80.6,72.1z"/>
						<path class="st0" d="M79.6,65.6c0-0.6,0.5-1,1-1l0,0c0.5,0,1,0.4,1,1l0,0c0,0.6-0.5,1-1,1l0,0C80,66.6,79.6,66.1,79.6,65.6z
							 M79.6,60c0-0.6,0.5-1,1-1l0,0c0.5,0,1,0.4,1,1l0,0c0,0.5-0.5,1-1,1l0,0C80,61,79.6,60.5,79.6,60z M79.6,54.4c0-0.5,0.5-1,1-1
							l0,0c0.5,0,1,0.5,1,1l0,0c0,0.6-0.5,1-1,1l0,0C80,55.4,79.6,55,79.6,54.4z M79.6,48.9c0-0.5,0.5-1,1-1l0,0c0.5,0,1,0.5,1,1
							l0,0c0,0.6-0.5,1-1,1l0,0C80,49.9,79.6,49.4,79.6,48.9z M79.6,43.3c0-0.5,0.5-1,1-1l0,0c0.5,0,1,0.5,1,1l0,0c0,0.6-0.5,1-1,1
							l0,0C80,44.3,79.6,43.8,79.6,43.3z"/>
						<path class="st0" d="M80.6,38.7c-0.3,0-0.5-0.1-0.7-0.3s-0.3-0.4-0.3-0.7s0.1-0.5,0.3-0.7c0.4-0.4,1-0.4,1.4,0
							c0.2,0.2,0.3,0.5,0.3,0.7c0,0.3-0.1,0.5-0.3,0.7C81.1,38.6,80.8,38.7,80.6,38.7z"/>
					</g>
					<g>
						<path class="st0" d="M47.4,72.1c-0.1,0-0.3,0-0.4-0.1c-0.1,0-0.2-0.1-0.3-0.2c-0.2-0.2-0.3-0.4-0.3-0.7c0-0.3,0.1-0.5,0.3-0.7
							c0.1-0.1,0.2-0.2,0.3-0.2c0.2-0.1,0.4-0.1,0.6,0c0.1,0,0.1,0,0.2,0c0.1,0,0.1,0.1,0.2,0.1c0.1,0,0.1,0.1,0.2,0.1
							c0.2,0.2,0.3,0.4,0.3,0.7c0,0.3-0.1,0.5-0.3,0.7c0,0.1-0.1,0.1-0.2,0.1c0,0-0.1,0.1-0.2,0.1c-0.1,0-0.1,0-0.2,0.1
							C47.5,72.1,47.5,72.1,47.4,72.1z"/>
						<path class="st0" d="M46.4,65.6c0-0.6,0.4-1,1-1l0,0c0.5,0,1,0.4,1,1l0,0c0,0.6-0.5,1-1,1l0,0C46.9,66.6,46.4,66.1,46.4,65.6z
							 M46.4,60c0-0.6,0.4-1,1-1l0,0c0.5,0,1,0.4,1,1l0,0c0,0.5-0.5,1-1,1l0,0C46.9,61,46.4,60.5,46.4,60z M46.4,54.4
							c0-0.5,0.4-1,1-1l0,0c0.5,0,1,0.5,1,1l0,0c0,0.6-0.5,1-1,1l0,0C46.9,55.4,46.4,55,46.4,54.4z M46.4,48.9c0-0.5,0.4-1,1-1l0,0
							c0.5,0,1,0.5,1,1l0,0c0,0.6-0.5,1-1,1l0,0C46.9,49.9,46.4,49.4,46.4,48.9z M46.4,43.3c0-0.5,0.4-1,1-1l0,0c0.5,0,1,0.5,1,1
							l0,0c0,0.6-0.5,1-1,1l0,0C46.9,44.3,46.4,43.8,46.4,43.3z"/>
						<path class="st0" d="M47.4,38.7c-0.3,0-0.5-0.1-0.7-0.3s-0.3-0.4-0.3-0.7s0.1-0.5,0.3-0.7c0.1-0.1,0.2-0.2,0.3-0.2
							c0.2-0.1,0.4-0.1,0.6-0.1c0.1,0,0.1,0,0.2,0.1c0.1,0,0.1,0,0.2,0.1c0.1,0,0.1,0.1,0.2,0.1c0.2,0.2,0.3,0.5,0.3,0.7
							c0,0.3-0.1,0.5-0.3,0.7c0,0-0.1,0.1-0.2,0.1c0,0-0.1,0.1-0.2,0.1c-0.1,0-0.1,0.1-0.2,0.1C47.5,38.7,47.5,38.7,47.4,38.7z"/>
					</g>
					<g>
						<path class="st1" d="M97.2,62.5c-0.3,0-0.5-0.1-0.7-0.3c-0.1-0.1-0.2-0.2-0.2-0.3c-0.1-0.1-0.1-0.2-0.1-0.4s0-0.3,0.1-0.4
							c0-0.1,0.1-0.2,0.2-0.3c0.2-0.2,0.6-0.3,0.9-0.3c0.1,0,0.1,0,0.2,0.1c0.1,0,0.1,0,0.2,0.1c0.1,0,0.1,0.1,0.2,0.1
							c0.1,0.1,0.2,0.2,0.2,0.3c0.1,0.1,0.1,0.2,0.1,0.4s0,0.3-0.1,0.4c0,0.1-0.1,0.2-0.2,0.3c0,0-0.1,0.1-0.2,0.1
							c0,0-0.1,0.1-0.2,0.1s-0.1,0.1-0.2,0.1C97.3,62.5,97.2,62.5,97.2,62.5z"/>
						<path class="st1" d="M96.2,56c0-0.6,0.4-1,1-1l0,0c0.5,0,1,0.4,1,1l0,0c0,0.6-0.5,1-1,1l0,0C96.6,57,96.2,56.5,96.2,56z
							 M96.2,50.4c0-0.6,0.4-1,1-1l0,0c0.5,0,1,0.4,1,1l0,0c0,0.5-0.5,1-1,1l0,0C96.6,51.4,96.2,51,96.2,50.4z M96.2,44.8
							c0-0.6,0.4-1,1-1l0,0c0.5,0,1,0.4,1,1l0,0c0,0.5-0.5,1-1,1l0,0C96.6,45.8,96.2,45.4,96.2,44.8z M96.2,39.3c0-0.6,0.4-1,1-1
							l0,0c0.5,0,1,0.4,1,1l0,0c0,0.5-0.5,1-1,1l0,0C96.6,40.3,96.2,39.8,96.2,39.3z M96.2,33.7c0-0.6,0.4-1,1-1l0,0
							c0.5,0,1,0.4,1,1l0,0c0,0.5-0.5,1-1,1l0,0C96.6,34.7,96.2,34.3,96.2,33.7z"/>
						<path class="st1" d="M97.2,29.1c-0.3,0-0.5-0.1-0.7-0.3c-0.2-0.2-0.3-0.4-0.3-0.7c0-0.3,0.1-0.5,0.3-0.7c0.4-0.4,1-0.4,1.4,0
							c0,0.1,0.1,0.1,0.1,0.2c0,0,0.1,0.1,0.1,0.2s0.1,0.1,0.1,0.2s0,0.1,0,0.2c0,0.3-0.1,0.5-0.3,0.7
							C97.7,29.1,97.4,29.1,97.2,29.1z"/>
					</g>
					<g>
						<path class="st1" d="M30.8,62.5c-0.1,0-0.3,0-0.4-0.1c-0.1,0-0.2-0.1-0.3-0.2c-0.2-0.2-0.3-0.4-0.3-0.7s0.1-0.5,0.3-0.7
							c0.1-0.1,0.2-0.2,0.3-0.2c0.4-0.2,0.8-0.1,1.1,0.2c0.2,0.2,0.3,0.4,0.3,0.7s-0.1,0.5-0.3,0.7C31.3,62.4,31.1,62.5,30.8,62.5z"
							/>
						<path class="st1" d="M29.8,56c0-0.6,0.5-1,1-1l0,0c0.5,0,1,0.4,1,1l0,0c0,0.6-0.5,1-1,1l0,0C30.3,57,29.8,56.5,29.8,56z
							 M29.8,50.4c0-0.6,0.5-1,1-1l0,0c0.5,0,1,0.4,1,1l0,0c0,0.5-0.5,1-1,1l0,0C30.3,51.4,29.8,51,29.8,50.4z M29.8,44.8
							c0-0.6,0.5-1,1-1l0,0c0.5,0,1,0.4,1,1l0,0c0,0.5-0.5,1-1,1l0,0C30.3,45.8,29.8,45.4,29.8,44.8z M29.8,39.3c0-0.6,0.5-1,1-1
							l0,0c0.5,0,1,0.4,1,1l0,0c0,0.5-0.5,1-1,1l0,0C30.3,40.3,29.8,39.8,29.8,39.3z M29.8,33.7c0-0.6,0.5-1,1-1l0,0
							c0.5,0,1,0.4,1,1l0,0c0,0.5-0.5,1-1,1l0,0C30.3,34.7,29.8,34.3,29.8,33.7z"/>
						<path class="st1" d="M30.8,29.1c-0.3,0-0.5-0.1-0.7-0.3c-0.1-0.1-0.2-0.2-0.2-0.3c0-0.1-0.1-0.3-0.1-0.4
							c0-0.3,0.1-0.5,0.3-0.7c0.1-0.1,0.2-0.2,0.3-0.2c0.4-0.1,0.8-0.1,1.1,0.2c0.2,0.2,0.3,0.4,0.3,0.7c0,0.1,0,0.3-0.1,0.4
							c0,0.1-0.1,0.2-0.2,0.3c0,0.1-0.1,0.1-0.2,0.1c0,0-0.1,0.1-0.2,0.1S31,29,30.8,29.1C31,29.1,30.9,29.1,30.8,29.1z"/>
					</g>
					<g>
						<path class="st0" d="M47.4,19.6c-0.3,0-0.5-0.1-0.7-0.3c-0.1-0.1-0.2-0.2-0.2-0.3c-0.1-0.1-0.1-0.2-0.1-0.4c0-0.1,0-0.1,0-0.2
							s0-0.1,0.1-0.2c0-0.1,0.1-0.1,0.1-0.2l0.1-0.1c0.4-0.4,1-0.4,1.4,0l0.1,0.1c0,0.1,0.1,0.1,0.1,0.2s0,0.1,0.1,0.2
							c0,0.1,0,0.1,0,0.2s0,0.3-0.1,0.4s-0.1,0.2-0.2,0.3C47.9,19.5,47.7,19.6,47.4,19.6z"/>
						<path class="st0" d="M18.9,35c-0.3-0.5-0.1-1.1,0.4-1.4l0,0c0.5-0.3,1.1-0.1,1.4,0.4l0,0c0.3,0.5,0.1,1.1-0.4,1.4l0,0
							c-0.2,0.1-0.3,0.1-0.5,0.1l0,0C19.4,35.5,19.1,35.4,18.9,35z M24.4,31.8c-0.3-0.5-0.1-1.1,0.4-1.4l0,0
							c0.5-0.3,1.1-0.1,1.4,0.4l0,0c0.3,0.5,0.1,1.1-0.4,1.4l0,0c-0.2,0.1-0.3,0.1-0.5,0.1l0,0C24.9,32.3,24.6,32.2,24.4,31.8z
							 M30,28.6c-0.3-0.5-0.1-1.1,0.4-1.4l0,0c0.5-0.3,1.1-0.1,1.4,0.4l0,0c0.3,0.5,0.1,1.1-0.4,1.4l0,0c-0.2,0.1-0.3,0.1-0.5,0.1
							l0,0C30.5,29.1,30.1,29,30,28.6z M35.5,25.5c-0.3-0.5-0.1-1.1,0.4-1.4l0,0c0.5-0.3,1.1-0.1,1.4,0.4l0,0
							c0.3,0.5,0.1,1.1-0.4,1.4l0,0C36.7,26,36.6,26,36.4,26l0,0C36,26,35.7,25.8,35.5,25.5z M41,22.3c-0.3-0.5-0.1-1.1,0.4-1.4l0,0
							c0.5-0.3,1.1-0.1,1.4,0.4l0,0c0.3,0.5,0.1,1.1-0.4,1.4l0,0c-0.2,0.1-0.3,0.1-0.5,0.1l0,0C41.5,22.8,41.2,22.6,41,22.3z"/>
						<path class="st0" d="M14.2,38.7c-0.3,0-0.5-0.1-0.7-0.3c-0.1-0.1-0.2-0.2-0.2-0.3c-0.1-0.1-0.1-0.2-0.1-0.4s0-0.3,0.1-0.4
							c0-0.1,0.1-0.2,0.2-0.3c0.3-0.3,0.7-0.4,1.1-0.2c0.1,0,0.2,0.1,0.3,0.2c0.1,0.1,0.2,0.2,0.2,0.3c0.1,0.1,0.1,0.2,0.1,0.4
							c0,0.3-0.1,0.5-0.3,0.7C14.8,38.6,14.5,38.7,14.2,38.7z"/>
						<path class="st0" d="M13.2,65.6c0-0.6,0.4-1,1-1l0,0c0.5,0,1,0.4,1,1l0,0c0,0.5-0.5,1-1,1l0,0C13.7,66.6,13.2,66.1,13.2,65.6z
							 M13.2,60c0-0.6,0.4-1,1-1l0,0c0.5,0,1,0.4,1,1l0,0c0,0.5-0.5,1-1,1l0,0C13.7,61,13.2,60.5,13.2,60z M13.2,54.4
							c0-0.5,0.4-1,1-1l0,0c0.5,0,1,0.5,1,1l0,0c0,0.6-0.5,1-1,1l0,0C13.7,55.4,13.2,55,13.2,54.4z M13.2,48.9c0-0.5,0.4-1,1-1l0,0
							c0.5,0,1,0.5,1,1l0,0c0,0.6-0.5,1-1,1l0,0C13.7,49.9,13.2,49.4,13.2,48.9z M13.2,43.3c0-0.6,0.4-1,1-1l0,0c0.5,0,1,0.5,1,1
							l0,0c0,0.5-0.5,1-1,1l0,0C13.7,44.3,13.2,43.8,13.2,43.3z"/>
						<path class="st0" d="M14.2,72.1c-0.3,0-0.5-0.1-0.7-0.3c-0.1-0.1-0.2-0.2-0.2-0.3c-0.1-0.1-0.1-0.2-0.1-0.4s0-0.3,0.1-0.4
							c0-0.1,0.1-0.2,0.2-0.3c0.3-0.3,0.7-0.4,1.1-0.2c0.1,0.1,0.2,0.1,0.3,0.2s0.2,0.2,0.2,0.3c0.1,0.1,0.1,0.3,0.1,0.4
							c0,0.3-0.1,0.5-0.3,0.7C14.8,72,14.5,72.1,14.2,72.1z"/>
					</g>
					<g>
						<path class="st0" d="M80.6,19.6c-0.3,0-0.5-0.1-0.7-0.3c-0.2-0.2-0.3-0.4-0.3-0.7c0-0.1,0-0.1,0-0.2s0-0.1,0.1-0.2
							c0-0.1,0-0.1,0.1-0.2l0.1-0.1c0.2-0.2,0.6-0.3,0.9-0.3c0.1,0,0.1,0,0.2,0s0.1,0.1,0.2,0.1l0.1,0.1c0.2,0.2,0.3,0.4,0.3,0.7
							c0,0.3-0.1,0.5-0.3,0.7l-0.1,0.1c-0.1,0-0.1,0.1-0.2,0.1s-0.1,0-0.2,0.1C80.7,19.6,80.7,19.6,80.6,19.6z"/>
						<path class="st0" d="M107.7,35.4c-0.5-0.3-0.7-0.9-0.4-1.4l0,0c0.3-0.5,0.9-0.6,1.4-0.4l0,0c0.5,0.3,0.6,0.9,0.4,1.4l0,0
							c-0.2,0.3-0.5,0.5-0.9,0.5l0,0C108.1,35.5,107.9,35.5,107.7,35.4z M102.2,32.2c-0.5-0.3-0.6-0.9-0.4-1.4l0,0
							c0.3-0.5,0.9-0.6,1.4-0.4l0,0c0.5,0.3,0.6,0.9,0.4,1.4l0,0c-0.2,0.3-0.5,0.5-0.9,0.5l0,0C102.5,32.3,102.4,32.3,102.2,32.2z
							 M96.7,29c-0.5-0.3-0.6-0.9-0.4-1.4l0,0c0.3-0.5,0.9-0.6,1.4-0.4l0,0c0.5,0.3,0.6,0.9,0.4,1.4l0,0c-0.2,0.3-0.5,0.5-0.9,0.5
							l0,0C97,29.1,96.8,29.1,96.7,29z M91.1,25.8c-0.5-0.3-0.6-0.9-0.4-1.4l0,0c0.3-0.5,0.9-0.6,1.4-0.4l0,0
							c0.5,0.3,0.6,0.9,0.4,1.4l0,0C92.3,25.8,92,26,91.6,26l0,0C91.5,26,91.3,25.9,91.1,25.8z M85.6,22.6c-0.5-0.3-0.6-0.9-0.4-1.4
							l0,0c0.3-0.5,0.9-0.6,1.4-0.4l0,0c0.5,0.3,0.6,0.9,0.4,1.4l0,0c-0.2,0.3-0.5,0.5-0.9,0.5l0,0C85.9,22.8,85.8,22.7,85.6,22.6z"
							/>
						<path class="st0" d="M113.8,38.7c-0.1,0-0.3,0-0.4-0.1c-0.1,0-0.2-0.1-0.3-0.2c0,0-0.1-0.1-0.1-0.2c0-0.1-0.1-0.1-0.1-0.2
							c0-0.1,0-0.1,0-0.2c0-0.1,0-0.1,0-0.2c0-0.3,0.1-0.5,0.3-0.7c0.1-0.1,0.2-0.2,0.3-0.2c0.2-0.1,0.5-0.1,0.8,0
							c0.1,0,0.2,0.1,0.3,0.2c0.2,0.2,0.3,0.5,0.3,0.7c0,0.1,0,0.1,0,0.2c0,0.1,0,0.1-0.1,0.2c0,0.1-0.1,0.1-0.1,0.2
							c0,0.1-0.1,0.1-0.1,0.2c-0.1,0.1-0.2,0.2-0.3,0.2C114,38.7,113.9,38.7,113.8,38.7z"/>
						<path class="st0" d="M112.8,65.6c0-0.6,0.4-1,1-1l0,0c0.6,0,1,0.4,1,1l0,0c0,0.5-0.4,1-1,1l0,0
							C113.2,66.6,112.8,66.1,112.8,65.6z M112.8,60c0-0.6,0.4-1,1-1l0,0c0.6,0,1,0.4,1,1l0,0c0,0.5-0.4,1-1,1l0,0
							C113.2,61,112.8,60.5,112.8,60z M112.8,54.4c0-0.5,0.4-1,1-1l0,0c0.6,0,1,0.5,1,1l0,0c0,0.6-0.4,1-1,1l0,0
							C113.2,55.4,112.8,55,112.8,54.4z M112.8,48.9c0-0.5,0.4-1,1-1l0,0c0.6,0,1,0.5,1,1l0,0c0,0.6-0.4,1-1,1l0,0
							C113.2,49.9,112.8,49.4,112.8,48.9z M112.8,43.3c0-0.6,0.4-1,1-1l0,0c0.6,0,1,0.4,1,1l0,0c0,0.5-0.4,1-1,1l0,0
							C113.2,44.3,112.8,43.8,112.8,43.3z"/>
						<path class="st0" d="M113.8,72.1c-0.1,0-0.3,0-0.4-0.1c-0.1,0-0.2-0.1-0.3-0.2l-0.1-0.1c0,0-0.1-0.1-0.1-0.2s0-0.1,0-0.2
							s0-0.1,0-0.2s0-0.3,0.1-0.4c0-0.1,0.1-0.2,0.2-0.3c0.1-0.1,0.2-0.2,0.3-0.2c0.2-0.1,0.5-0.1,0.8,0c0.1,0.1,0.2,0.1,0.3,0.2
							c0.1,0.1,0.2,0.2,0.2,0.3c0.1,0.1,0.1,0.2,0.1,0.4c0,0.1,0,0.1,0,0.2s0,0.1-0.1,0.2c0,0.1-0.1,0.1-0.1,0.2s-0.1,0.1-0.1,0.1
							c-0.1,0.1-0.2,0.2-0.3,0.2C114,72.1,113.9,72.1,113.8,72.1z"/>
					</g>
					<g>
						<g>
							<g>
								<polygon class="st2" points="113.8,90.3 97.2,99.8 80.6,90.3 80.6,71.1 97.2,61.5 113.8,71.1 								"/>
								<path class="st3" d="M97.2,100.8c-0.2,0-0.3,0-0.5-0.1l-16.6-9.6c-0.3-0.2-0.5-0.5-0.5-0.9V71.1c0-0.4,0.2-0.7,0.5-0.9
									l16.6-9.6c0.3-0.2,0.7-0.2,1,0l16.6,9.6c0.3,0.2,0.5,0.5,0.5,0.9v19.2c0,0.4-0.2,0.7-0.5,0.9l-16.6,9.6
									C97.5,100.8,97.3,100.8,97.2,100.8z M81.6,89.7l15.6,9l15.6-9v-18l-15.6-9l-15.6,9V89.7z M113.8,90.3L113.8,90.3L113.8,90.3
									z"/>
							</g>
							<g>
								<polygon class="st4" points="113.8,71.1 97.2,80.7 80.6,71.1 80.6,71.1 97.2,61.5 								"/>
								<path class="st3" d="M97.2,81.7c-0.2,0-0.3,0-0.5-0.1L80.1,72c-0.3-0.2-0.5-0.5-0.5-0.9s0.2-0.7,0.5-0.9l16.6-9.6
									c0.3-0.2,0.7-0.2,1,0l16.6,9.6c0.3,0.2,0.5,0.5,0.5,0.9s-0.2,0.7-0.5,0.9l-16.6,9.6C97.5,81.6,97.3,81.7,97.2,81.7z
									 M82.6,71.1l14.6,8.4l14.6-8.4l-14.6-8.4L82.6,71.1z"/>
							</g>
							<g>
								<polygon class="st3" points="97.2,80.7 97.2,99.8 113.8,90.3 113.8,71.1 								"/>
								<path class="st3" d="M97.2,100.8c-0.2,0-0.3,0-0.5-0.1c-0.3-0.2-0.5-0.5-0.5-0.9V80.7c0-0.4,0.2-0.7,0.5-0.9l16.6-9.6
									c0.3-0.2,0.7-0.2,1,0s0.5,0.5,0.5,0.9v19.2c0,0.4-0.2,0.7-0.5,0.9l-16.6,9.6C97.5,100.8,97.3,100.8,97.2,100.8z M98.2,81.3
									v16.8l14.6-8.4V72.8L98.2,81.3z"/>
							</g>
						</g>
						<path class="st1" d="M97.2,100.8c-0.2,0-0.3,0-0.5-0.1l-16.6-9.6c-0.3-0.2-0.5-0.5-0.5-0.9V71.1c0-0.4,0.2-0.7,0.5-0.9
							l16.6-9.6c0.3-0.2,0.7-0.2,1,0l16.6,9.6c0.3,0.2,0.5,0.5,0.5,0.9v19.2c0,0.4-0.2,0.7-0.5,0.9l-16.6,9.6
							C97.5,100.8,97.3,100.8,97.2,100.8z M81.6,89.7l15.6,9l15.6-9v-18l-15.6-9l-15.6,9V89.7z"/>
					</g>
					<g>
						<g>
							<g>
								<polygon class="st2" points="47.4,90.3 30.8,99.8 14.2,90.3 14.2,71.1 30.8,61.5 47.4,71.1 								"/>
								<path class="st3" d="M30.8,100.8c-0.2,0-0.3,0-0.5-0.1l-16.6-9.6c-0.3-0.2-0.5-0.5-0.5-0.9V71.1c0-0.4,0.2-0.7,0.5-0.9
									l16.6-9.6c0.3-0.2,0.7-0.2,1,0l16.6,9.6c0.3,0.2,0.5,0.5,0.5,0.9v19.2c0,0.4-0.2,0.7-0.5,0.9l-16.6,9.6
									C31.2,100.8,31,100.8,30.8,100.8z M15.2,89.7l15.6,9l15.6-9v-18l-15.6-9l-15.6,9C15.2,71.7,15.2,89.7,15.2,89.7z M47.4,90.3
									L47.4,90.3L47.4,90.3z"/>
							</g>
							<g>
								<polygon class="st4" points="47.4,71.1 30.8,80.7 14.2,71.1 14.2,71.1 30.8,61.5 								"/>
								<path class="st3" d="M30.8,81.7c-0.2,0-0.3,0-0.5-0.1L13.7,72c-0.3-0.2-0.5-0.5-0.5-0.9s0.2-0.7,0.5-0.9l16.6-9.6
									c0.3-0.2,0.7-0.2,1,0l16.6,9.6c0.3,0.2,0.5,0.5,0.5,0.9s-0.2,0.7-0.5,0.9l-16.6,9.6C31.2,81.6,31,81.7,30.8,81.7z
									 M16.2,71.1l14.6,8.4l14.6-8.4l-14.6-8.4L16.2,71.1z"/>
							</g>
							<g>
								<polygon class="st3" points="30.8,80.7 30.8,99.8 47.4,90.3 47.4,71.1 								"/>
								<path class="st3" d="M30.8,100.8c-0.2,0-0.3,0-0.5-0.1c-0.3-0.2-0.5-0.5-0.5-0.9V80.7c0-0.4,0.2-0.7,0.5-0.9l16.6-9.6
									c0.3-0.2,0.7-0.2,1,0s0.5,0.5,0.5,0.9v19.2c0,0.4-0.2,0.7-0.5,0.9l-16.6,9.6C31.2,100.8,31,100.8,30.8,100.8z M31.8,81.3
									v16.8l14.6-8.4V72.8L31.8,81.3z"/>
							</g>
						</g>
						<path class="st1" d="M30.8,100.8c-0.2,0-0.3,0-0.5-0.1l-16.6-9.6c-0.3-0.2-0.5-0.5-0.5-0.9V71.1c0-0.4,0.2-0.7,0.5-0.9
							l16.6-9.6c0.3-0.2,0.7-0.2,1,0l16.6,9.6c0.3,0.2,0.5,0.5,0.5,0.9v19.2c0,0.4-0.2,0.7-0.5,0.9l-16.6,9.6
							C31.2,100.8,31,100.8,30.8,100.8z M15.2,89.7l15.6,9l15.6-9v-18l-15.6-9l-15.6,9C15.2,71.7,15.2,89.7,15.2,89.7z"/>
					</g>
					<g>
						<g>
							<polygon class="st5" points="80.6,37.7 64,47.3 47.4,37.7 47.4,18.6 64,9 80.6,18.6 							"/>
							<g>
								<polygon class="st4" points="80.6,18.6 64,28.2 47.4,18.6 47.4,18.6 64,9 								"/>
								<path class="st6" d="M64,29.2c-0.2,0-0.3,0-0.5-0.1l-16.6-9.6c-0.3-0.2-0.5-0.5-0.5-0.9s0.2-0.7,0.5-0.9l16.6-9.6
									c0.3-0.2,0.7-0.2,1,0l16.6,9.6c0.3,0.2,0.5,0.5,0.5,0.9s-0.2,0.7-0.5,0.9L64.5,29C64.3,29.1,64.2,29.2,64,29.2z M49.4,18.6
									L64,27l14.6-8.4L64,10.2L49.4,18.6z"/>
							</g>
							<g>
								<polygon class="st6" points="64,28.2 64,47.3 80.6,37.7 80.6,18.6 								"/>
								<path class="st6" d="M64,48.3c-0.2,0-0.3,0-0.5-0.1C63.2,48,63,47.7,63,47.3V28.2c0-0.4,0.2-0.7,0.5-0.9l16.6-9.6
									c0.3-0.2,0.7-0.2,1,0s0.5,0.5,0.5,0.9v19.2c0,0.4-0.2,0.7-0.5,0.9l-16.6,9.6C64.3,48.3,64.2,48.3,64,48.3z M65,28.7v16.8
									l14.6-8.4V20.3L65,28.7z"/>
							</g>
						</g>
						<path class="st0" d="M64,48.3c-0.2,0-0.3,0-0.5-0.1l-16.6-9.6c-0.3-0.2-0.5-0.5-0.5-0.9V18.6c0-0.4,0.2-0.7,0.5-0.9l16.6-9.6
							c0.3-0.2,0.7-0.2,1,0l16.6,9.6c0.3,0.2,0.5,0.5,0.5,0.9v19.2c0,0.4-0.2,0.7-0.5,0.9l-16.6,9.6C64.3,48.3,64.2,48.3,64,48.3z
							 M48.4,37.2l15.6,9l15.6-9v-18l-15.6-9l-15.6,9V37.2z"/>
					</g>
					<g>
						<path class="st1" d="M97.2,100.8c-0.3,0-0.5-0.1-0.7-0.3c-0.2-0.2-0.3-0.4-0.3-0.7c0-0.3,0.1-0.5,0.3-0.7c0.4-0.4,1-0.4,1.4,0
							c0.2,0.2,0.3,0.4,0.3,0.7c0,0.3-0.1,0.5-0.3,0.7S97.4,100.8,97.2,100.8z"/>
						<path class="st1" d="M68.7,116.3c-0.3-0.5-0.1-1.1,0.4-1.4l0,0c0.5-0.3,1.1-0.1,1.4,0.4l0,0c0.3,0.5,0.1,1.1-0.4,1.4l0,0
							c-0.2,0.1-0.3,0.1-0.5,0.1l0,0C69.2,116.8,68.8,116.6,68.7,116.3z M74.2,113.1c-0.3-0.5-0.1-1.1,0.4-1.4l0,0
							c0.5-0.3,1.1-0.1,1.4,0.4l0,0c0.3,0.5,0.1,1.1-0.4,1.4l0,0c-0.2,0.1-0.3,0.1-0.5,0.1l0,0C74.7,113.6,74.4,113.4,74.2,113.1z
							 M79.7,109.9c-0.3-0.5-0.1-1.1,0.4-1.4l0,0c0.5-0.3,1.1-0.1,1.4,0.4l0,0c0.3,0.5,0.1,1.1-0.4,1.4l0,0
							c-0.2,0.1-0.3,0.1-0.5,0.1l0,0C80.2,110.4,79.9,110.2,79.7,109.9z M85.3,106.7c-0.3-0.5-0.1-1.1,0.4-1.4l0,0
							c0.5-0.3,1.1-0.1,1.4,0.4l0,0c0.3,0.5,0.1,1.1-0.4,1.4l0,0c-0.2,0.1-0.3,0.1-0.5,0.1l0,0C85.8,107.2,85.4,107.1,85.3,106.7z
							 M90.8,103.5c-0.3-0.5-0.1-1.1,0.4-1.4l0,0c0.5-0.3,1.1-0.1,1.4,0.4l0,0c0.3,0.5,0.1,1.1-0.4,1.4l0,0
							c-0.2,0.1-0.3,0.1-0.5,0.1l0,0C91.3,104,91,103.9,90.8,103.5z"/>
						<path class="st1" d="M64,120c-0.1,0-0.3,0-0.4-0.1c-0.1,0-0.2-0.1-0.3-0.2c-0.2-0.2-0.3-0.4-0.3-0.7c0-0.1,0-0.3,0.1-0.4
							c0-0.1,0.1-0.2,0.2-0.3c0.1-0.1,0.2-0.2,0.3-0.2c0.4-0.1,0.8-0.1,1.1,0.2c0.2,0.2,0.3,0.5,0.3,0.7c0,0.3-0.1,0.5-0.3,0.7
							C64.5,119.9,64.3,120,64,120z"/>
					</g>
					<g>
						<path class="st1" d="M30.8,100.8c-0.1,0-0.3,0-0.4-0.1c-0.1,0-0.2-0.1-0.3-0.2c-0.2-0.2-0.3-0.4-0.3-0.7
							c0-0.3,0.1-0.5,0.3-0.7c0.1-0.1,0.2-0.2,0.3-0.2c0.4-0.1,0.8-0.1,1.1,0.2c0.2,0.2,0.3,0.4,0.3,0.7c0,0.3-0.1,0.5-0.3,0.7
							C31.3,100.7,31.1,100.8,30.8,100.8z"/>
						<path class="st1" d="M58,116.7c-0.5-0.3-0.6-0.9-0.4-1.4l0,0c0.3-0.5,0.9-0.6,1.4-0.4l0,0c0.5,0.3,0.6,0.9,0.4,1.4l0,0
							c-0.2,0.3-0.5,0.5-0.9,0.5l0,0C58.3,116.8,58.1,116.8,58,116.7z M52.4,113.5c-0.5-0.3-0.6-0.9-0.4-1.4l0,0
							c0.3-0.5,0.9-0.6,1.4-0.4l0,0c0.5,0.3,0.7,0.9,0.4,1.4l0,0c-0.2,0.3-0.5,0.5-0.9,0.5l0,0C52.8,113.6,52.6,113.6,52.4,113.5z
							 M46.9,110.3c-0.5-0.3-0.7-0.9-0.4-1.4l0,0c0.3-0.5,0.9-0.6,1.4-0.4l0,0c0.5,0.3,0.6,0.9,0.4,1.4l0,0
							c-0.2,0.3-0.5,0.5-0.9,0.5l0,0C47.2,110.4,47.1,110.4,46.9,110.3z M41.4,107.1c-0.5-0.3-0.6-0.9-0.4-1.4l0,0
							c0.3-0.5,0.9-0.6,1.4-0.4l0,0c0.5,0.3,0.6,0.9,0.4,1.4l0,0c-0.2,0.3-0.5,0.5-0.9,0.5l0,0C41.7,107.2,41.5,107.2,41.4,107.1z
							 M35.9,103.9c-0.5-0.3-0.6-0.9-0.4-1.4l0,0c0.3-0.5,0.9-0.6,1.4-0.4l0,0c0.5,0.3,0.6,0.9,0.4,1.4l0,0
							c-0.2,0.3-0.5,0.5-0.9,0.5l0,0C36.2,104,36,104,35.9,103.9z"/>
						<path class="st1" d="M64,120c-0.1,0-0.3,0-0.4-0.1c-0.1,0-0.2-0.1-0.3-0.2c-0.2-0.2-0.3-0.4-0.3-0.7c0-0.1,0-0.3,0.1-0.4
							c0-0.1,0.1-0.2,0.2-0.3c0.1-0.1,0.2-0.2,0.3-0.2c0.4-0.1,0.8-0.1,1.1,0.2c0.2,0.2,0.3,0.5,0.3,0.7c0,0.3-0.1,0.5-0.3,0.7
							C64.5,119.9,64.3,120,64,120z"/>
					</g>
				</g>
				<rect x="4" y="4" class="st7" width="120" height="120"/>
				<rect x="4" y="4" class="st7" width="120" height="120"/>
			</g>
		</g>
	</g>
	<g>
		<rect class="st7" width="128" height="128"/>
	</g>
</g>
</svg>
