<?xml version="1.0" encoding="utf-8"?>
<!-- Generator: Adobe Illustrator 24.1.0, SVG Export Plug-In . SVG Version: 6.00 Build 0)  -->
<svg version="1.1" id="Layer_1" xmlns="http://www.w3.org/2000/svg" xmlns:xlink="http://www.w3.org/1999/xlink" x="0px" y="0px"
	 viewBox="0 0 128 128" style="enable-background:new 0 0 128 128;" xml:space="preserve">
<style type="text/css">
	.st0{fill:#C4D7D3;}
	.st1{fill:#27ae60;}
	.st2{fill:#185849;}
	.st3{fill:#FFFFFF;}
	.st4{fill:#E9EBDF;}
	.st5{fill:#4D9987;}
	.st6{fill:none;}
	.st7{fill:#0E352C;}
</style>
<g id="Layer_1_1_">
</g>
<g>
	<g id="Layer_2_1_">
		<g id="Industries_1_">
			<g>
				<g>
					<g>
						<g>
							<ellipse class="st0" cx="89.7" cy="70" rx="2.7" ry="1.6"/>
							<path class="st1" d="M89.7,72.6c-2.1,0-3.7-1.1-3.7-2.6s1.6-2.6,3.7-2.6s3.7,1.1,3.7,2.6C93.4,71.5,91.8,72.6,89.7,72.6z
								 M89.7,69.5c-1.1,0-1.7,0.4-1.7,0.6c0.1,0.1,0.7,0.6,1.7,0.6s1.6-0.4,1.7-0.6C91.3,69.9,90.7,69.5,89.7,69.5z M91.4,70
								L91.4,70L91.4,70z"/>
						</g>
						<g>
							<rect x="87.9" y="39.7" class="st0" width="5.5" height="33.1"/>
							<path class="st1" d="M93.4,73.8h-5.5c-0.6,0-1-0.4-1-1V39.7c0-0.6,0.4-1,1-1h5.5c0.6,0,1,0.4,1,1v33.1
								C94.4,73.4,93.9,73.8,93.4,73.8z M88.9,71.8h3.5V40.7h-3.5V71.8z"/>
						</g>
						<path class="st1" d="M87.9,48.2c0.9,0.1,1.8,0.2,2.7,0.2s1.8-0.1,2.7-0.2v-8.5h-5.5v8.5H87.9z"/>
						<path class="st2" d="M93.4,73.8h-5.5c-0.6,0-1-0.4-1-1V39.7c0-0.6,0.4-1,1-1h5.5c0.6,0,1,0.4,1,1v33.1
							C94.4,73.4,93.9,73.8,93.4,73.8z M88.9,71.8h3.5V40.7h-3.5V71.8z"/>
						<g>
							<path class="st3" d="M105.3,33.6L105.3,33.6l-2.4-22H78.3l-2.4,22l0,0c0,0.2,0,0.4,0,0.5c0,4.7,6.6,8.5,14.7,8.5
								s14.7-3.8,14.7-8.5C105.3,34,105.3,33.8,105.3,33.6z"/>
							<path class="st1" d="M90.6,43.6c-8.8,0-15.7-4.2-15.7-9.5c0-0.2,0-0.3,0-0.5c0-0.1,0-0.1,0-0.2l2.4-22c0.1-0.5,0.5-0.9,1-0.9
								h24.6c0.5,0,0.9,0.4,1,0.9l2.4,22c0,0.1,0,0.1,0,0.2c0,0.2,0,0.3,0,0.5C106.3,39.5,99.4,43.6,90.6,43.6z M77,33.5
								c0,0.1,0,0.1,0,0.2v0.1c0,0.1,0,0.2,0,0.3c0,4.1,6.3,7.5,13.7,7.5s13.7-3.4,13.7-7.5c0-0.1,0-0.2,0-0.3v-0.1
								c0-0.1,0-0.1,0-0.2L102,12.7H79.2L77,33.5z"/>
						</g>
						<path class="st0" d="M105.3,33.6l-2.4-22H90.6v31c8.1,0,14.7-3.8,14.7-8.5C105.3,34,105.3,33.8,105.3,33.6L105.3,33.6z"/>
						<path class="st3" d="M90.6,41.6c-8.3,0-13.9-3.8-13.9-7.3c0-0.1,0-0.1,0.3-2.7c0-0.1,0-0.1,0-0.2l2-17.6
							c0.1-0.5,0.5-0.9,1-0.9h21.3c0.5,0,0.9,0.4,1,0.9l2.2,20.2c0,0.1,0,0.2,0,0.2C104.5,37.9,98.9,41.6,90.6,41.6z M79,31.6
							c0,0.1,0,0.1,0,0.2c0,0-0.3,2.5-0.3,2.7c0,2.1,4.6,5.2,11.9,5.2s11.9-3.1,11.9-5.3l-0.3-2.5L100.4,15H80.9L79,31.6z"/>
						<path class="st0" d="M90.6,22c-5.8,0-10.9-1.9-13.6-5.2l1.5-1.3c2.3,2.8,6.9,4.5,12,4.5c5,0,9.4-1.6,11.8-4.2l1.5,1.3
							C101.1,20.2,96.1,22,90.6,22z"/>
						<ellipse class="st0" cx="90.6" cy="12.1" rx="12.3" ry="7.1"/>
						<path class="st1" d="M78.3,12.1c0,3.9,5.5,7.1,12.3,7.1V5C83.8,5,78.3,8.2,78.3,12.1z"/>
						<g>
							<path class="st2" d="M80.5,16.1c2.2,1.9,5.9,3.1,10.1,3.1s7.9-1.2,10.1-3.1c-2.4-1.7-6.1-2.8-10.1-2.8
								C86.5,13.4,82.9,14.5,80.5,16.1z"/>
							<path class="st2" d="M90.6,20.2c-4.3,0-8.3-1.2-10.8-3.3c-0.2-0.2-0.4-0.5-0.4-0.8c0-0.3,0.2-0.6,0.4-0.8
								c2.7-1.9,6.6-2.9,10.7-2.9s8,1.1,10.7,2.9c0.3,0.2,0.4,0.5,0.4,0.8s-0.1,0.6-0.4,0.8C98.9,19,94.9,20.2,90.6,20.2z
								 M82.3,16.2c2.1,1.3,5.1,2,8.3,2s6.2-0.7,8.3-2c-2.2-1.2-5.2-1.8-8.3-1.8S84.6,15,82.3,16.2z"/>
						</g>
						<path class="st2" d="M90.6,20.2c-7.5,0-13.3-3.6-13.3-8.1S83.1,4,90.6,4s13.3,3.6,13.3,8.1C103.9,16.7,98.1,20.2,90.6,20.2z
							 M90.6,6c-6.1,0-11.3,2.8-11.3,6.1s5.2,6.1,11.3,6.1s11.3-2.8,11.3-6.1S96.8,6,90.6,6z"/>
						<path class="st2" d="M90.6,43.6c-8.8,0-15.7-4.2-15.7-9.5c0-0.2,0-0.3,0-0.5c0-0.1,0-0.1,0-0.2l2.4-22c0-0.1,0-0.1,0-0.2
							c0.6-3.9,5.5-6.9,11.9-7.3c0.4,0,0.9,0,1.3,0c7,0,12.6,3.2,13.2,7.4c0,0.1,0,0.1,0,0.2l2.4,22c0,0.1,0,0.1,0,0.2
							c0,0.2,0,0.3,0,0.5C106.3,39.5,99.4,43.6,90.6,43.6z M77,33.5c0,0.1,0,0.1,0,0.2v0.1c0,0.1,0,0.2,0,0.3
							c0,4.1,6.3,7.5,13.7,7.5s13.7-3.4,13.7-7.5c0-0.1,0-0.2,0-0.3v-0.1c0-0.1,0-0.1,0-0.2l-2.3-21.6c0-0.1,0-0.1,0-0.2
							C101.6,8.6,96.5,6,90.6,6c-0.4,0-0.8,0-1.2,0c-5.4,0.3-9.8,2.8-10.1,5.7c0,0.1,0,0.1,0,0.2L77,33.5z"/>
					</g>
					<g>
						<g>
							<g>
								<g>
									<g>
										<g>
											<g>
												<path class="st4" d="M70.5,45L70.5,45c-0.8-0.5-1.9-0.4-3.1,0.2c-2.6,1.5-4.7,5.5-4.7,9v28.5c0,0.7,0.2,1.2,0.6,1.4l0,0
													l26.9,15.5l7.2-39.2L70.5,45z"/>
												<path class="st5" d="M90.3,100.8c-0.2,0-0.3,0-0.5-0.1l-27-15.6c0,0-0.1,0-0.1-0.1c-0.6-0.4-1-1.2-1-2.2V54.3
													c0-3.8,2.3-8.2,5.2-9.8c1.4-0.8,2.8-0.9,4-0.3c0,0,0.1,0,0.1,0.1l26.9,15.5c0.4,0.2,0.6,0.6,0.5,1L91.2,100
													c-0.1,0.3-0.3,0.6-0.6,0.7C90.6,100.7,90.4,100.8,90.3,100.8z M63.9,83.4l25.6,14.8l6.8-37.1L70.1,46H70
													c-0.7-0.4-1.5-0.1-2.1,0.2c-2.3,1.3-4.2,5-4.2,8.1v28.5C63.7,83.2,63.8,83.3,63.9,83.4L63.9,83.4z"/>
											</g>
											<path class="st3" d="M70.5,45c-0.8-0.5-1.9-0.4-3.1,0.2c-1.7,1-3.2,3.1-4,5.4l32.4,18.7l1.7-8.8L70.5,45L70.5,45z"/>
											<path class="st5" d="M90.3,100.8c-0.2,0-0.3,0-0.5-0.1l-27-15.6c0,0-0.1,0-0.1-0.1c-0.6-0.4-1-1.2-1-2.2V54.3
												c0-3.8,2.3-8.2,5.2-9.8c1.4-0.8,2.8-0.9,4-0.3c0,0,0.1,0,0.1,0.1l26.9,15.5c0.4,0.2,0.6,0.6,0.5,1L91.2,100
												c-0.1,0.3-0.3,0.6-0.6,0.7C90.6,100.7,90.4,100.8,90.3,100.8z M63.9,83.4l25.6,14.8l6.8-37.1L70.1,46H70
												c-0.7-0.4-1.5-0.1-2.1,0.2c-2.3,1.3-4.2,5-4.2,8.1v28.5C63.7,83.2,63.8,83.3,63.9,83.4L63.9,83.4z"/>
											<path class="st6" d="M70.4,80.7l-5.9,3.4c-1,0.6-1.7,0-1.7-1.3V54.3c0-3.5,2.1-7.5,4.7-9l0,0c2.6-1.5,4.7,0.1,4.7,3.6
												v28.5C72.1,78.7,71.4,80.2,70.4,80.7z"/>
											<g>
												<path class="st5" d="M97.3,96.3l-5.9,3.4c-1,0.6-1.7,0-1.7-1.3V69.8c0-3.5,2.1-7.5,4.7-9l0,0c2.6-1.5,4.7,0.1,4.7,3.6
													v28.5C99.1,94.2,98.3,95.7,97.3,96.3z"/>
												<path class="st4" d="M90.7,100.9c-0.3,0-0.7-0.1-0.9-0.3c-0.7-0.4-1.1-1.2-1.1-2.3V69.8c0-3.8,2.3-8.2,5.2-9.8
													c1.5-0.8,2.9-0.9,4.1-0.2c1.4,0.8,2.1,2.5,2.1,4.7V93c0,1.7-1,3.5-2.2,4.2l0,0l-5.9,3.4
													C91.5,100.8,91.1,100.9,90.7,100.9z M96.2,61.3c-0.5,0-1,0.2-1.4,0.4c-2.3,1.3-4.2,5-4.2,8.1v28.5
													c0,0.3,0.1,0.5,0.1,0.5s0.1,0,0.1-0.1l5.9-3.4c0.6-0.3,1.2-1.5,1.2-2.5V64.4c0-1.4-0.4-2.5-1.1-2.9
													C96.7,61.3,96.5,61.3,96.2,61.3z M97.3,96.3L97.3,96.3L97.3,96.3z"/>
											</g>
											<g>
												<path class="st7" d="M93.4,67.7c0,0.9,0.6,1.4,1.3,1l0,0c0.7-0.4,1.3-1.5,1.3-2.4s-0.6-1.4-1.3-1l0,0
													C93.9,65.6,93.4,66.7,93.4,67.7z"/>
												<path class="st7" d="M94.1,69.3c-0.2,0-0.4-0.1-0.6-0.2c-0.4-0.3-0.7-0.8-0.7-1.5c0-1.1,0.7-2.4,1.5-2.9
													c0.5-0.3,0.9-0.3,1.3-0.1c0.4,0.3,0.7,0.8,0.7,1.5c0,1.1-0.7,2.4-1.5,2.9C94.6,69.2,94.4,69.3,94.1,69.3z M95.1,65.6
													c-0.1,0-0.2,0-0.3,0.1c-0.5,0.3-1,1.2-1,2c0,0.3,0.1,0.5,0.2,0.6c0.1,0,0.2,0,0.3-0.1c0.5-0.3,1-1.2,1-2
													C95.4,65.9,95.3,65.7,95.1,65.6C95.2,65.6,95.2,65.6,95.1,65.6z"/>
											</g>
										</g>
										<path class="st7" d="M90.7,100.9c-0.3,0-0.5-0.1-0.8-0.2c-0.1,0-0.1,0-0.2-0.1L62.8,85.1c-0.1,0-0.1-0.1-0.2-0.1
											c-0.1-0.1-0.2-0.1-0.3-0.2c-0.1,0-0.1-0.1-0.1-0.2c-0.1-0.1-0.2-0.2-0.2-0.4c0-0.1-0.1-0.1-0.1-0.2
											c-0.1-0.1-0.1-0.3-0.1-0.4s0-0.1,0-0.2c0-0.2-0.1-0.4-0.1-0.6V54.3c0-1.2,0.2-2.6,0.7-3.9c0.3-0.9,0.8-1.8,1.3-2.6
											c0.2-0.3,0.4-0.5,0.5-0.8l0.1-0.1c0.4-0.5,0.7-0.9,1.1-1.3l0.1-0.1c0.2-0.2,0.4-0.3,0.5-0.4l0.2-0.1
											c0.2-0.2,0.4-0.3,0.7-0.4c0.2-0.1,0.4-0.2,0.5-0.3l0.2-0.1c0.2-0.1,0.3-0.1,0.4-0.1s0.2,0,0.2-0.1c0.2,0,0.2-0.1,0.3-0.1
											c0.1,0,0.2,0,0.3,0c0.1,0,0.1,0,0.2,0s0.2,0,0.4,0h0.2c0.1,0,0.3,0,0.4,0.1c0,0,0.1,0,0.2,0s0.2,0.1,0.3,0.1
											c0.1,0.1,0.3,0.1,0.4,0.2c0,0,0.1,0,0.1,0.1l26.9,15.5c0,0,0.1,0,0.1,0.1c1.3,0.8,2,2.5,2,4.6v28.5c0,1.7-1,3.5-2.2,4.2
											l-5.9,3.4C91.5,100.8,91.1,100.9,90.7,100.9z M90.8,98.9L90.8,98.9L90.8,98.9z M90.6,98.8C90.6,98.8,90.7,98.8,90.6,98.8
											c0.1,0.1,0.1,0.1,0.2,0l5.9-3.4c0.6-0.3,1.2-1.5,1.2-2.5V64.4c0-1.4-0.4-2.5-1.1-2.9c0,0-0.1,0-0.1-0.1L70.1,46H70
											c-0.1,0-0.1-0.1-0.2-0.1s-0.1,0-0.2-0.1l0,0l0,0h-0.1c-0.1,0-0.2,0-0.2,0h-0.1c-0.1,0-0.1,0-0.2,0l-0.3,0.1
											c-0.1,0-0.1,0-0.2,0.1h-0.1c-0.2,0.1-0.3,0.1-0.4,0.2c-0.2,0.1-0.3,0.2-0.5,0.3l-0.1,0.1c-0.2,0.1-0.3,0.2-0.4,0.3
											L66.8,47c-0.3,0.3-0.6,0.7-0.9,1.1c-0.2,0.3-0.3,0.5-0.4,0.7c-0.5,0.8-0.8,1.5-1.1,2.3l0,0c-0.4,1.1-0.6,2.2-0.6,3.2v28.5
											c0,0.1,0,0.2,0,0.3v0.1v0.1l0.1,0.1c0,0,0,0,0.1,0L90.6,98.8z"/>
										<g>
											<path class="st5" d="M84,97.6l-28.5,16.5c-0.7,0.4-1.2,0-1.2-0.9v-7.4c0-0.9,0.6-2,1.2-2.4L84,86.9
												c0.7-0.4,1.2,0,1.2,0.9v7.4C85.2,96.2,84.7,97.2,84,97.6z"/>
											<path class="st5" d="M55,115.2c-0.3,0-0.6-0.1-0.8-0.2c-0.6-0.3-0.9-1-0.9-1.9v-7.4c0-1.3,0.7-2.7,1.7-3.2L83.5,86
												c0.6-0.4,1.3-0.4,1.8-0.1c0.6,0.3,0.9,1,0.9,1.9v7.4c0,1.3-0.7,2.7-1.7,3.2L56,114.9C55.7,115.1,55.3,115.2,55,115.2z
												 M84.2,88L56,104.3c-0.3,0.2-0.7,0.9-0.7,1.5v7.3l28.2-16.3l0,0c0.3-0.2,0.7-0.9,0.7-1.5V88z"/>
										</g>
										<path class="st7" d="M55,115.2c-0.3,0-0.6-0.1-0.8-0.2c-0.6-0.3-0.9-1-0.9-1.9v-7.4c0-1.3,0.7-2.7,1.7-3.2L83.5,86
											c0.6-0.4,1.3-0.4,1.8-0.1c0.6,0.3,0.9,1,0.9,1.9v7.4c0,1.3-0.7,2.7-1.7,3.2L56,114.9C55.7,115.1,55.3,115.2,55,115.2z
											 M84.2,88L56,104.3c-0.3,0.2-0.7,0.9-0.7,1.5v7.3l28.2-16.3l0,0c0.3-0.2,0.7-0.9,0.7-1.5V88z"/>
										<g>
											<g>
												<path class="st3" d="M91.1,76.4L65.4,61.6c-0.5-0.3-1.1-0.3-1.4-0.1l0,0L33.8,78.9l28.6,25.2l30.1-17.4l0,0
													c0.5-0.3,0.8-0.9,0.8-1.8v-4.3C93.3,79,92.3,77.1,91.1,76.4z"/>
												<g>
													<path class="st4" d="M65.4,61.6c-0.5-0.3-1.1-0.3-1.4-0.1l0,0L33.8,78.9l8.5,7.5l33-19.1L65.4,61.6z"/>
													<path class="st4" d="M42.3,87.4c-0.2,0-0.5-0.1-0.7-0.2l-8.5-7.5c-0.2-0.2-0.4-0.5-0.3-0.8c0-0.3,0.2-0.6,0.5-0.8
														l30.1-17.4h0.1c0.7-0.4,1.5-0.3,2.3,0.2l0,0l9.9,5.7c0.3,0.2,0.5,0.5,0.5,0.9s-0.2,0.7-0.5,0.9l-33,19.1
														C42.7,87.3,42.5,87.4,42.3,87.4z M35.5,79l6.9,6.1l30.9-17.8l-8.4-4.9c-0.2-0.1-0.4-0.1-0.4-0.1s0,0-0.1,0L35.5,79z"/>
												</g>
												<path class="st5" d="M62.4,105.1c-0.2,0-0.5-0.1-0.7-0.2L33.2,79.6c-0.2-0.2-0.4-0.5-0.3-0.8c0-0.3,0.2-0.6,0.5-0.8
													l30.1-17.4h0.1c0.7-0.4,1.5-0.3,2.3,0.2l25.7,14.8l0,0c1.5,0.9,2.7,3.1,2.7,5.1V85c0,1.2-0.4,2.1-1.2,2.6
													c0,0-0.1,0-0.1,0.1l-30.1,17.4C62.7,105,62.6,105.1,62.4,105.1z M35.5,79l27,23.8l29.4-17c0,0,0,0,0.1,0
													c0.1-0.1,0.3-0.4,0.3-0.9v-4.3c0-1.3-0.8-2.8-1.7-3.3L64.9,62.4c-0.2-0.1-0.4-0.1-0.4-0.1s0,0-0.1,0L35.5,79z"/>
												<path class="st5" d="M62.4,104.1l30.1-17.4l0,0c0.5-0.3,0.8-0.9,0.8-1.8v-4.3c0-0.8-0.2-1.7-0.7-2.5l-36,20.8
													L62.4,104.1z"/>
												<g>
													<path class="st4" d="M61,103.9L35.3,89.1c-1.2-0.7-2.2-2.6-2.2-4.2v-4.3c0-1.6,1-2.4,2.2-1.7L61,93.8
														c1.2,0.7,2.2,2.6,2.2,4.2v4.3C63.2,103.9,62.2,104.6,61,103.9z"/>
													<path class="st5" d="M61.8,105.2c-0.4,0-0.9-0.1-1.4-0.4L34.8,90c-1.5-0.9-2.7-3.1-2.7-5.1v-4.3c0-1.2,0.5-2.2,1.3-2.6
														c0.7-0.4,1.6-0.4,2.4,0.1l25.7,14.8c1.5,0.9,2.7,3.1,2.7,5.1v4.3c0,1.2-0.5,2.2-1.3,2.6
														C62.6,105.1,62.2,105.2,61.8,105.2z M34.4,79.7L34.4,79.7c-0.1,0.1-0.3,0.3-0.3,0.9v4.3c0,1.3,0.8,2.8,1.7,3.3
														L61.5,103l0,0c0.2,0.1,0.4,0.1,0.4,0.1c0.1,0,0.3-0.3,0.3-0.9V98c0-1.3-0.8-2.8-1.7-3.3L34.8,79.8
														C34.6,79.7,34.5,79.7,34.4,79.7z"/>
												</g>
											</g>
											<path class="st7" d="M61.8,105.2c-0.4,0-0.9-0.1-1.4-0.4L34.8,90c-1.5-0.9-2.7-3.1-2.7-5.1v-4.3c0-1.1,0.4-2,1.1-2.5
												c0.1-0.1,0.1-0.1,0.2-0.1l30.1-17.4h0.1c0.7-0.4,1.5-0.3,2.3,0.2l25.7,14.8c1.3,0.7,2.4,2.5,2.6,4.3l0,0
												c0,0.3,0.1,0.5,0.1,0.8V85c0,0.6-0.1,1.1-0.3,1.5c-0.2,0.5-0.5,0.8-0.9,1.1c0,0-0.1,0-0.1,0.1l-30.1,17.4
												c-0.1,0-0.1,0.1-0.2,0.1C62.4,105.1,62.1,105.2,61.8,105.2z M34.5,79.6L34.5,79.6c-0.2,0.2-0.4,0.4-0.4,1v4.3
												c0,1.3,0.8,2.8,1.7,3.3L61.5,103c0.1,0.1,0.3,0.2,0.4,0.1c0,0,0.1-0.1,0.2-0.1L92,85.8c0,0,0,0,0.1,0
												c0,0,0.1-0.1,0.1-0.2c0.1-0.1,0.1-0.4,0.1-0.7v-4.3c0-0.1,0-0.3,0-0.5c0,0,0,0,0-0.1c-0.2-1.2-0.9-2.4-1.7-2.8L64.9,62.4
												c-0.2-0.1-0.4-0.1-0.4-0.1s0,0-0.1,0L34.5,79.6z"/>
										</g>
										<g>
											<g>
												<path class="st3" d="M68.9,34.7l-8.3-4.8l0,0c-0.7-0.4-1.7-0.4-2.7,0.2L34.2,43.8c-2.3,1.3-4.2,4.9-4.2,8V76
													c0,0.7,0.2,1.1,0.6,1.3l0,0l8.3,4.8L44.7,71l16.8-9.7c0.9-0.5,1.7,1.9,1.7,0.7V45.8L68.9,34.7z"/>
												<path class="st5" d="M38.9,83.2c-0.2,0-0.3,0-0.5-0.1l-8.3-4.8c-0.1,0-0.1-0.1-0.2-0.1C29.3,77.7,29,77,29,76V51.8
													c0-3.5,2.1-7.4,4.7-8.9l23.7-13.7c1.3-0.7,2.6-0.8,3.6-0.3c0,0,0.1,0,0.1,0.1l8.3,4.8c0.5,0.3,0.6,0.9,0.4,1.3L64.2,46
													v16c0,0.7-0.3,1.1-0.8,1.3c-0.7,0.3-1.2-0.3-1.5-0.7c-0.1-0.1-0.1-0.2-0.2-0.3l-16.3,9.4l-5.7,10.9
													c-0.1,0.2-0.3,0.4-0.6,0.5C39,83.2,38.9,83.2,38.9,83.2z M31.2,76.6l7.3,4.2l5.3-10.2c0.1-0.2,0.2-0.3,0.4-0.4L61,60.5
													c0.4-0.2,0.8-0.3,1.2-0.2V45.8c0-0.2,0-0.3,0.1-0.5l5.3-10.2l-7.4-4.3h-0.1c-0.6-0.3-1.3-0.1-1.7,0.2L34.7,44.7
													c-2,1.2-3.7,4.4-3.7,7.2V76c0,0.3,0.1,0.5,0.1,0.5C31.1,76.6,31.2,76.6,31.2,76.6z"/>
											</g>
											<path class="st4" d="M31.3,47c-0.8,1.5-1.3,3.3-1.3,4.9V76c0,0.7,0.2,1.1,0.6,1.3l0,0l8.3,4.8L44.7,71l14.2-8.2L31.3,47z
												"/>
											<path class="st5" d="M38.9,83.2c-0.2,0-0.3,0-0.5-0.1l-8.3-4.8c-0.1,0-0.1-0.1-0.2-0.1C29.3,77.7,29,77,29,76V51.8
												c0-3.5,2.1-7.4,4.7-8.9l23.7-13.7c1.3-0.7,2.6-0.8,3.6-0.3c0,0,0.1,0,0.1,0.1l8.3,4.8c0.5,0.3,0.6,0.9,0.4,1.3L64.2,46
												v16c0,0.7-0.3,1.1-0.8,1.3c-0.7,0.3-1.2-0.3-1.5-0.7c-0.1-0.1-0.1-0.2-0.2-0.3l-16.3,9.4l-5.7,10.9
												c-0.1,0.2-0.3,0.4-0.6,0.5C39,83.2,38.9,83.2,38.9,83.2z M31.2,76.6l7.3,4.2l5.3-10.2c0.1-0.2,0.2-0.3,0.4-0.4L61,60.5
												c0.4-0.2,0.8-0.3,1.2-0.2V45.8c0-0.2,0-0.3,0.1-0.5l5.3-10.2l-7.4-4.3h-0.1c-0.6-0.3-1.3-0.1-1.7,0.2L34.7,44.7
												c-2,1.2-3.7,4.4-3.7,7.2V76c0,0.3,0.1,0.5,0.1,0.5C31.1,76.6,31.2,76.6,31.2,76.6z"/>
											<path class="st5" d="M68.7,65.5L40,82.1c-0.9,0.5-1.7,0-1.7-1.3V56.6c0-3.1,1.9-6.7,4.2-8l23.7-13.7
												c2.3-1.3,4.2,0.1,4.2,3.2v24.2C70.4,63.5,69.6,65,68.7,65.5z"/>
											<path class="st4" d="M39.3,83.3c-0.3,0-0.6-0.1-0.9-0.2c-0.7-0.4-1.1-1.2-1.1-2.2V56.6c0-3.5,2.1-7.4,4.7-8.9L65.7,34
												c1.3-0.8,2.7-0.8,3.7-0.2c1.2,0.7,2,2.3,2,4.3v24.2c0,1.6-0.9,3.4-2.2,4.1L40.5,83C40.1,83.2,39.7,83.3,39.3,83.3z
												 M39.4,81.3L39.4,81.3L39.4,81.3z M67.9,35.4c-0.4,0-0.8,0.2-1.2,0.4L43,49.5c-2,1.2-3.7,4.4-3.7,7.2v24.2
												c0,0.2,0,0.4,0.1,0.5c0,0,0.1,0,0.1-0.1l28.8-16.6l0,0c0.6-0.3,1.2-1.4,1.2-2.3V38.1c0-1.2-0.4-2.2-1-2.5
												C68.3,35.4,68.1,35.4,67.9,35.4z"/>
										</g>
										<path class="st7" d="M39.3,83.3c-0.3,0-0.5-0.1-0.8-0.2c-0.1,0-0.1,0-0.2-0.1L30,78.2c-0.1,0-0.1-0.1-0.2-0.1
											C29.3,77.7,29,77,29,76V51.8c0-0.4,0-0.8,0.1-1.2c0-0.1,0-0.3,0.1-0.4v-0.1c0-0.2,0.1-0.4,0.1-0.6
											c0.1-0.2,0.1-0.5,0.2-0.7l0.1-0.3c0.1-0.3,0.2-0.6,0.3-0.9c0.9-2.1,2.3-3.8,3.8-4.7l23.7-13.7c1.3-0.7,2.6-0.8,3.6-0.3
											c0,0,0.1,0,0.1,0.1l8.3,4.8c0,0,0.1,0,0.1,0.1c1.2,0.7,1.8,2.3,1.8,4.2v24.2c0,1.6-0.9,3.4-2.2,4.1L40.5,83
											C40.1,83.2,39.7,83.3,39.3,83.3z M39.4,81.3L39.4,81.3L39.4,81.3z M39.2,81.2L39.2,81.2c0.1,0,0.1,0,0.2-0.1l28.8-16.6
											c0.6-0.3,1.2-1.4,1.2-2.3V38.1c0-1.2-0.4-2.2-1-2.5c0,0-0.1,0-0.1-0.1l-8.1-4.7h-0.1c-0.6-0.3-1.3-0.1-1.7,0.2L34.7,44.7
											c-1.1,0.6-2.2,2-2.9,3.7c-0.1,0.2-0.2,0.5-0.3,0.7l-0.1,0.3c-0.1,0.2-0.1,0.4-0.2,0.6c0,0.1-0.1,0.3-0.1,0.4v0.2
											c0,0.1,0,0.2-0.1,0.3c0,0.4-0.1,0.7-0.1,0.9V76c0,0.3,0.1,0.5,0.1,0.5s0.1,0,0.1,0.1L39.2,81.2z"/>
									</g>
									<g>
										<g>
											<g>
												<path class="st4" d="M30.5,68.2L30.5,68.2c-0.8-0.5-1.9-0.4-3.1,0.2c-2.6,1.5-4.7,5.5-4.7,9v28.5c0,0.7,0.2,1.2,0.6,1.4
													l0,0l26.9,15.5l7.2-39.2L30.5,68.2z"/>
												<path class="st5" d="M50.2,123.9c-0.2,0-0.3,0-0.5-0.1l-26.9-15.5c0,0-0.1,0-0.1-0.1c-0.6-0.4-1-1.2-1-2.2V77.4
													c0-3.8,2.3-8.2,5.2-9.8c1.4-0.8,2.8-0.9,4-0.3c0,0,0.1,0,0.1,0.1l26.9,15.5c0.4,0.2,0.6,0.6,0.5,1l-7.2,39.2
													c-0.1,0.3-0.3,0.6-0.6,0.7C50.5,123.9,50.3,123.9,50.2,123.9z M23.8,106.5l25.6,14.8l6.8-37.1L30.1,69.1H30
													c-0.7-0.4-1.5-0.1-2.1,0.2c-2.3,1.3-4.2,5-4.2,8.1v28.5C23.7,106.3,23.8,106.5,23.8,106.5L23.8,106.5z"/>
											</g>
											<path class="st3" d="M30.5,68.2c-0.8-0.5-1.9-0.4-3.1,0.2c-1.7,1-3.2,3.1-4,5.4l32.4,18.7l1.7-8.8L30.5,68.2L30.5,68.2z"
												/>
											<path class="st5" d="M50.2,123.9c-0.2,0-0.3,0-0.5-0.1l-26.9-15.5c0,0-0.1,0-0.1-0.1c-0.6-0.4-1-1.2-1-2.2V77.4
												c0-3.8,2.3-8.2,5.2-9.8c1.4-0.8,2.8-0.9,4-0.3c0,0,0.1,0,0.1,0.1l26.9,15.5c0.4,0.2,0.6,0.6,0.5,1l-7.2,39.2
												c-0.1,0.3-0.3,0.6-0.6,0.7C50.5,123.9,50.3,123.9,50.2,123.9z M23.8,106.5l25.6,14.8l6.8-37.1L30.1,69.1H30
												c-0.7-0.4-1.5-0.1-2.1,0.2c-2.3,1.3-4.2,5-4.2,8.1v28.5C23.7,106.3,23.8,106.5,23.8,106.5L23.8,106.5z"/>
											<g>
												<path class="st5" d="M57.3,119.4l-5.9,3.4c-1,0.6-1.7,0-1.7-1.3V92.9c0-3.5,2.1-7.5,4.7-9l0,0c2.6-1.5,4.7,0.1,4.7,3.6
													V116C59,117.3,58.2,118.8,57.3,119.4z"/>
												<path class="st4" d="M50.7,124c-0.3,0-0.7-0.1-0.9-0.3c-0.7-0.4-1.1-1.2-1.1-2.3V92.9c0-3.8,2.3-8.2,5.2-9.8
													c1.5-0.8,2.9-0.9,4.1-0.2c1.4,0.8,2.1,2.5,2.1,4.7V116c0,1.7-1,3.5-2.2,4.2l0,0l-5.9,3.4C51.5,123.9,51,124,50.7,124z
													 M56.2,84.4c-0.5,0-1,0.2-1.4,0.4c-2.3,1.3-4.2,5-4.2,8.1v28.5c0,0.3,0.1,0.5,0.1,0.5s0.1,0,0.1-0.1l5.9-3.4
													c0.6-0.3,1.2-1.5,1.2-2.5V87.5c0-1.4-0.4-2.5-1.1-2.9C56.7,84.4,56.4,84.4,56.2,84.4z M57.3,119.4L57.3,119.4
													L57.3,119.4z"/>
											</g>
											<path class="st6" d="M30.3,103.8l-5.9,3.4c-1,0.6-1.7,0-1.7-1.3V77.4c0-3.5,2.1-7.5,4.7-9l0,0c2.6-1.5,4.7,0.1,4.7,3.6
												v27.6C32.1,100.8,31.3,103.3,30.3,103.8z"/>
											<g>
												<path class="st7" d="M53.3,90.8c0,0.9,0.6,1.4,1.3,1l0,0c0.7-0.4,1.3-1.5,1.3-2.4s-0.6-1.4-1.3-1l0,0
													C53.9,88.8,53.3,89.8,53.3,90.8z"/>
												<path class="st7" d="M54.1,92.4c-0.2,0-0.4-0.1-0.6-0.2c-0.4-0.3-0.7-0.8-0.7-1.5c0-1.1,0.7-2.4,1.5-2.9
													c0.5-0.3,0.9-0.3,1.3-0.1c0.4,0.3,0.7,0.8,0.7,1.5c0,1.1-0.7,2.4-1.5,2.9C54.6,92.3,54.3,92.4,54.1,92.4z M55.1,88.7
													c-0.1,0-0.2,0-0.3,0.1c-0.5,0.3-1,1.2-1,2c0,0.3,0.1,0.5,0.2,0.6c0.1,0,0.2,0,0.3-0.1c0.5-0.3,1-1.2,1-2
													C55.4,89,55.3,88.8,55.1,88.7C55.2,88.7,55.1,88.7,55.1,88.7z"/>
											</g>
										</g>
										<path class="st7" d="M50.7,124c-0.3,0-0.5-0.1-0.8-0.2c-0.1,0-0.1,0-0.2-0.1l-26.9-15.5c-0.1,0-0.1-0.1-0.2-0.1
											c-0.1-0.1-0.2-0.2-0.3-0.2c-0.1-0.1-0.1-0.1-0.1-0.2c-0.1-0.1-0.2-0.2-0.2-0.4c0-0.1-0.1-0.1-0.1-0.2
											c-0.1-0.1-0.1-0.3-0.1-0.4c0,0,0-0.1,0-0.2c0-0.2-0.1-0.4-0.1-0.6V77.4c0-1.2,0.2-2.6,0.7-3.9c0.1-0.4,0.3-0.7,0.4-1.1
											c0.2-0.5,0.4-0.9,0.7-1.3l0.1-0.1l0.9,0.4l-0.8-0.5c0.1-0.2,0.3-0.5,0.5-0.7l0.1-0.1l0.1-0.1c0.3-0.4,0.7-0.8,1.1-1.2
											l0.1-0.1c0.2-0.2,0.3-0.3,0.5-0.4l0.2-0.1c0.2-0.2,0.4-0.3,0.7-0.4c0.2-0.1,0.4-0.2,0.5-0.3c0.1,0,0.1,0,0.2-0.1
											c0.2-0.1,0.3-0.1,0.4-0.1s0.2,0,0.2-0.1c0.1,0,0.2-0.1,0.3-0.1c0.1,0,0.2,0,0.3,0c0.1,0,0.1,0,0.2,0s0.2,0,0.4,0h0.2
											c0.1,0,0.3,0,0.4,0.1c0,0,0.1,0,0.2,0s0.2,0.1,0.3,0.1c0.1,0.1,0.3,0.1,0.4,0.2c0,0,0.1,0,0.1,0.1L58,83.1
											c0,0,0.1,0,0.1,0.1c1.3,0.8,2,2.5,2,4.6V116c0,1.7-1,3.5-2.2,4.2l-5.9,3.4C51.5,123.9,51.1,124,50.7,124z M50.7,122
											L50.7,122L50.7,122z M50.6,121.9C50.6,121.9,50.7,121.9,50.6,121.9c0.1,0.1,0.1,0.1,0.2,0l5.9-3.4
											c0.6-0.3,1.2-1.5,1.2-2.5V87.5c0-1.4-0.4-2.5-1.1-2.9c0,0-0.1,0-0.1-0.1L30.1,69.1H30c-0.1,0-0.1-0.1-0.2-0.1
											s-0.1,0-0.2-0.1l0,0l0,0c-0.1,0-0.1,0-0.2,0s-0.2,0-0.2,0h-0.1c-0.1,0-0.1,0-0.2,0L28.6,69c-0.1,0-0.1,0-0.2,0.1h-0.1
											c-0.2,0.1-0.3,0.1-0.4,0.2c-0.2,0.1-0.3,0.2-0.5,0.3l-0.1,0.1c-0.1,0.1-0.2,0.2-0.4,0.3l-0.1,0.1
											c-0.3,0.3-0.6,0.6-0.8,0.9l-0.1,0.1c-0.2,0.3-0.3,0.4-0.4,0.6L25.3,72c-0.3,0.4-0.5,0.8-0.6,1.2c-0.1,0.3-0.3,0.6-0.4,0.9
											c-0.4,1.1-0.6,2.2-0.6,3.3v28.5c0,0.1,0,0.2,0,0.3c0,0.1,0,0.1,0.1,0.2l0.1,0.1l0,0L50.6,121.9z"/>
									</g>
								</g>
							</g>
						</g>
					</g>
				</g>
				<rect x="4" y="4" class="st6" width="120" height="120"/>
				<rect x="4" y="4" class="st6" width="120" height="120"/>
			</g>
		</g>
	</g>
	<g>
		<rect class="st6" width="128" height="128"/>
	</g>
</g>
</svg>
