<?xml version="1.0" encoding="utf-8"?>
<!-- Generator: Adobe Illustrator 24.1.0, SVG Export Plug-In . SVG Version: 6.00 Build 0)  -->
<svg version="1.1" id="Layer_1" xmlns="http://www.w3.org/2000/svg" xmlns:xlink="http://www.w3.org/1999/xlink" x="0px" y="0px"
	 viewBox="0 0 128 128" style="enable-background:new 0 0 128 128;" xml:space="preserve">
<style type="text/css">
	.st0{fill:none;}
	.st1{fill:#C4D7D3;}
	.st2{fill:#27ae60;}
	.st3{fill:#185849;}
	.st4{fill:#FFFFFF;}
	.st5{fill:#4D9987;}
	.st6{fill:#E9EBDF;}
	.st7{fill:#0E352C;}
</style>
<g id="Layer_1_1_">
</g>
<g>
	<g id="Layer_2_1_">
		<g id="Objects_1_">
			<g>
				<rect x="4" y="4" class="st0" width="120" height="120"/>
				<g>
					<g>
						<g>
							<g>
								<polygon class="st1" points="112.9,50.4 122.9,56.1 60.5,92.4 50.4,86.5 50.4,86.5 24.3,71.4 24.3,60.5 87.4,24 123,44.5 
																	"/>
							</g>
							<g>
								<path class="st2" d="M109,64.6c-0.2,0-0.3,0-0.5-0.1l-5.3-3.1c-0.3-0.2-0.5-0.5-0.5-0.9s0.2-0.7,0.5-0.9l5.6-3.4
									c0.3-0.2,0.7-0.2,1,0l5.3,3.1c0.5,0.3,0.6,0.9,0.4,1.4c-0.3,0.5-0.9,0.6-1.4,0.4l-4.8-2.8l-3.6,2.2l3.8,2.2
									c0.5,0.3,0.6,0.9,0.4,1.4C109.7,64.4,109.3,64.6,109,64.6z"/>
								<path class="st2" d="M80,81.4c-0.2,0-0.3,0-0.5-0.1l-5.3-3.1c-0.5-0.3-0.6-0.9-0.4-1.4c0.3-0.5,0.9-0.6,1.4-0.4l5.3,3.1
									c0.5,0.3,0.6,0.9,0.4,1.4C80.7,81.3,80.3,81.4,80,81.4z"/>
								<path class="st2" d="M97.3,71.3c-0.2,0-0.3,0-0.5-0.1l-5.3-3.1c-0.3-0.2-0.5-0.5-0.5-0.9s0.2-0.7,0.5-0.9l5.8-3.4
									c0.3-0.2,0.7-0.2,1,0l5.3,3.1c0.5,0.3,0.6,0.9,0.4,1.4c-0.3,0.5-0.9,0.6-1.4,0.4L97.9,65L94,67.2l3.8,2.2
									c0.5,0.3,0.6,0.9,0.4,1.4C98,71.1,97.7,71.3,97.3,71.3z"/>
								<path class="st2" d="M85.8,78.1c-0.2,0-0.3,0-0.5-0.1L80,74.9c-0.3-0.2-0.5-0.5-0.5-0.9s0.2-0.7,0.5-0.9l5.8-3.4
									c0.3-0.2,0.7-0.2,1,0l5.3,3.1c0.5,0.3,0.6,0.9,0.4,1.4c-0.3,0.5-0.9,0.6-1.4,0.4l-4.8-2.8L82.5,74l3.8,2.2
									c0.5,0.3,0.6,0.9,0.4,1.4C86.4,77.9,86.1,78.1,85.8,78.1z"/>
							</g>
							<path class="st2" d="M61.7,79.5c-1.3,0-2.7-0.3-3.7-0.9l0,0c-1.2-0.7-1.8-1.7-1.8-2.7c0-1.1,0.7-2,1.8-2.7
								c2.1-1.2,5.3-1.2,7.4,0c1.2,0.7,1.8,1.7,1.8,2.7c0,1.1-0.7,2-1.8,2.7C64.4,79.2,63.1,79.5,61.7,79.5z M59,76.8
								c1.5,0.8,4,0.8,5.4,0c0.5-0.3,0.8-0.7,0.8-1s-0.3-0.7-0.8-1C63,74,60.5,74,59,74.9c-0.5,0.3-0.8,0.7-0.8,1
								C58.2,76.2,58.5,76.5,59,76.8L59,76.8z"/>
							<path class="st2" d="M96.3,59.7c-1.3,0-2.7-0.3-3.7-0.9l0,0c-1.2-0.7-1.8-1.7-1.8-2.7c0-1.1,0.7-2,1.8-2.7
								c2.1-1.2,5.3-1.2,7.4,0c1.2,0.7,1.8,1.7,1.8,2.7c0,1.1-0.7,2-1.8,2.7C98.9,59.4,97.6,59.7,96.3,59.7z M96.3,54.4
								c-1,0-2,0.2-2.7,0.6c-0.5,0.3-0.8,0.7-0.8,1s0.3,0.7,0.8,1l0,0c1.5,0.8,3.9,0.8,5.4,0c0.5-0.3,0.8-0.7,0.8-1s-0.3-0.7-0.8-1
								C98.2,54.7,97.3,54.4,96.3,54.4z"/>
							<path class="st2" d="M99.8,46.6c-1.3,0-2.7-0.3-3.7-0.9l0,0C94.9,45,94.3,44,94.3,43c0-1.1,0.7-2,1.8-2.7
								c2.1-1.2,5.3-1.2,7.4,0c1.2,0.7,1.8,1.7,1.8,2.7c0,1.1-0.7,2-1.8,2.7C102.5,46.3,101.1,46.6,99.8,46.6z M99.8,41.4
								c-1,0-2,0.2-2.7,0.6c-0.5,0.3-0.8,0.7-0.8,1s0.3,0.7,0.8,1l0,0c1.5,0.8,3.9,0.8,5.4,0c0.5-0.3,0.8-0.7,0.8-1s-0.3-0.7-0.8-1
								C101.8,41.6,100.8,41.4,99.8,41.4z"/>
							<path class="st2" d="M61.7,77.2c-0.3,0-0.7-0.2-0.9-0.5c-0.3-0.5-0.1-1.1,0.4-1.4l31.4-18.2c0.5-0.3,1.1-0.1,1.4,0.4
								s0.1,1.1-0.4,1.4L62.2,77C62,77.1,61.8,77.2,61.7,77.2z"/>
							<path class="st2" d="M44.7,63.2c-0.3,0-0.7-0.2-0.9-0.5c-0.3-0.5-0.1-1.1,0.4-1.4c2.2-1.3,5.4-3.3,8.3-5
								c2.4-1.5,4.5-2.7,5.7-3.4c0.2-0.1,0.3-0.1,0.5-0.1c2.5,0,7.1-0.1,11.7-0.2c4.4-0.1,8.6-0.2,11-0.2c2.3-1.3,3.8-2.2,5.4-3.1
								c2.1-1.2,4.6-2.6,9.4-5.3c0.5-0.3,1.1-0.1,1.4,0.4s0.1,1.1-0.4,1.4c-4.8,2.8-7.2,4.2-9.4,5.4c-1.7,1-3.2,1.8-5.6,3.2
								c-0.2,0.1-0.3,0.1-0.5,0.1c-2.3,0-6.9,0.1-11.2,0.2c-4.4,0.1-8.9,0.2-11.4,0.2c-1.2,0.7-3.2,1.9-5.4,3.3
								c-2.9,1.8-6.1,3.8-8.3,5C45,63.1,44.8,63.2,44.7,63.2z"/>
							<path class="st2" d="M82.1,38.8c-0.3,0-0.7-0.2-0.9-0.5c-0.3-0.5-0.1-1.1,0.4-1.4c2.2-1.3,2.7-1.6,3.1-1.9
								c0.4-0.3,0.8-0.5,1.9-1.2c0.2-0.1,0.3-0.1,0.5-0.1c2.5,0,7.2-0.1,11.7-0.2c1.9,0,3.8-0.1,5.5-0.1c0.5,0,1,0.4,1,1s-0.4,1-1,1
								c-1.7,0-3.6,0.1-5.5,0.1c-4.4,0.1-8.9,0.2-11.4,0.2c-1,0.6-1.3,0.8-1.6,1c-0.5,0.3-1,0.7-3.2,2
								C82.5,38.7,82.3,38.8,82.1,38.8z"/>
							<path class="st2" d="M51.6,88.2c-0.2,0-0.4-0.1-0.6-0.2L17.2,65.3c-0.5-0.3-0.6-0.9-0.3-1.4c0.3-0.5,0.9-0.6,1.4-0.3
								l33.9,22.7c0.5,0.3,0.6,0.9,0.3,1.4C52.2,88.1,51.9,88.2,51.6,88.2z"/>
							<path class="st2" d="M34.7,78.3c-0.3,0-0.7-0.2-0.9-0.5c-0.3-0.5-0.1-1.1,0.4-1.4l3.7-2.1c0.5-0.3,1.1-0.1,1.4,0.4
								c0.3,0.5,0.1,1.1-0.4,1.4l-3.7,2.1C35.1,78.3,34.9,78.3,34.7,78.3z"/>
							<path class="st2" d="M29.5,75.3c-0.3,0-0.7-0.2-0.9-0.5c-0.3-0.5-0.1-1.1,0.4-1.4l3.7-2.1c0.5-0.3,1.1-0.1,1.4,0.4
								c0.3,0.5,0.1,1.1-0.4,1.4l-3.7,2C29.9,75.2,29.7,75.3,29.5,75.3z"/>
							<path class="st2" d="M24.3,72.2c-0.3,0-0.7-0.2-0.9-0.5c-0.3-0.5-0.1-1.1,0.4-1.4l3.7-2.1c0.5-0.3,1.1-0.1,1.4,0.4
								s0.1,1.1-0.4,1.4l-3.7,2.1C24.7,72.2,24.5,72.2,24.3,72.2z"/>
							<path class="st2" d="M39.9,81.4c-0.3,0-0.7-0.2-0.9-0.5c-0.3-0.5-0.1-1.1,0.4-1.4l3.7-2.1c0.5-0.3,1.1-0.1,1.4,0.4
								c0.3,0.5,0.1,1.1-0.4,1.4l-3.7,2.1C40.2,81.4,40.1,81.4,39.9,81.4z"/>
							<path class="st2" d="M45.1,84.5c-0.3,0-0.7-0.2-0.9-0.5c-0.3-0.5-0.1-1.1,0.4-1.4l3.7-2.1c0.5-0.3,1.1-0.1,1.4,0.4
								c0.3,0.5,0.1,1.1-0.4,1.4l-3.7,2.1C45.4,84.4,45.3,84.5,45.1,84.5z"/>
							<g>
								<path class="st3" d="M60.5,93.4c-0.2,0-0.3,0-0.5-0.1l-36.2-21c-0.3-0.2-0.5-0.5-0.5-0.9V60.5c0-0.4,0.2-0.7,0.5-0.9
									l63.1-36.5c0.3-0.2,0.7-0.2,1,0l35.6,20.6c0.3,0.2,0.5,0.5,0.5,0.9s-0.2,0.7-0.5,0.9l-8.6,5l8.4,4.9
									c0.3,0.2,0.5,0.5,0.5,0.9s-0.2,0.7-0.5,0.9L61,93.3C60.9,93.4,60.7,93.4,60.5,93.4z M25.3,70.8l35.2,20.4l60.3-35.1
									l-8.4-4.9c-0.3-0.2-0.5-0.5-0.5-0.9s0.2-0.7,0.5-0.9l8.6-5L87.4,25.1l-62.1,36C25.3,61.1,25.3,70.8,25.3,70.8z"/>
							</g>
						</g>
					</g>
					<g>
						<g>
							<g>
								<g>
									<g>
										<g>
											<g>
												<polygon class="st4" points="26.4,66.1 43.1,56.6 52.2,61.8 35.5,71.4 												"/>
												<path class="st5" d="M35.5,72.4c-0.2,0-0.3,0-0.5-0.1L25.9,67c-0.3-0.2-0.5-0.5-0.5-0.9s0.2-0.7,0.5-0.9l16.7-9.6
													c0.3-0.2,0.7-0.2,1,0l9.1,5.2c0.3,0.2,0.5,0.5,0.5,0.9s-0.2,0.7-0.5,0.9L36,72.2C35.8,72.3,35.6,72.4,35.5,72.4z
													 M28.4,66.1l7.1,4.1l14.7-8.4l-7.1-4.1L28.4,66.1z"/>
											</g>
										</g>
										<g>
											<g>
												<polygon class="st5" points="35.5,71.4 52.2,61.8 52.1,72.2 35.4,81.8 												"/>
												<path class="st5" d="M35.4,82.8c-0.2,0-0.3,0-0.5-0.1c-0.3-0.2-0.5-0.5-0.5-0.9V71.4c0-0.4,0.2-0.7,0.5-0.9l16.7-9.6
													c0.3-0.2,0.7-0.2,1,0s0.5,0.5,0.5,0.9v10.4c0,0.4-0.2,0.7-0.5,0.9l-16.7,9.6C35.8,82.7,35.6,82.8,35.4,82.8z M36.5,71.9
													V80l14.7-8.4v-8.1L36.5,71.9z"/>
											</g>
										</g>
										<g>
											<g>
												<polygon class="st6" points="35.5,71.4 35.4,81.8 33.4,80.6 28.5,77.7 26.4,76.5 26.4,66.1 												"/>
												<path class="st5" d="M35.4,82.8c-0.2,0-0.3,0-0.5-0.1l-9.1-5.2c-0.3-0.2-0.5-0.5-0.5-0.9V66.2c0-0.4,0.2-0.7,0.5-0.9
													c0.3-0.2,0.7-0.2,1,0l9.1,5.2c0.3,0.2,0.5,0.5,0.5,0.9v10.4c0,0.4-0.2,0.7-0.5,0.9C35.8,82.7,35.6,82.8,35.4,82.8z
													 M27.4,76l7.1,4.1V72l-7.1-4.1V76z"/>
											</g>
										</g>
										<path class="st7" d="M35.4,82.8c-0.2,0-0.3,0-0.5-0.1c-0.3-0.2-0.5-0.5-0.5-0.9V72l-8.5-5c-0.3-0.2-0.5-0.5-0.5-0.9
											s0.2-0.7,0.5-0.9l16.7-9.6c0.3-0.2,0.7-0.2,1,0l9.1,5.2c0.3,0.2,0.5,0.5,0.5,0.9v10.4c0,0.4-0.2,0.7-0.5,0.9L36,82.6
											C35.8,82.7,35.6,82.8,35.4,82.8z M28.4,66.1l7.6,4.4c0.3,0.2,0.5,0.5,0.5,0.9v8.7l14.7-8.4v-9.3l-8.1-4.7L28.4,66.1z"/>
									</g>
									<g>
										<g>
											<polygon class="st5" points="31.3,77.3 31.3,78 31.3,78.8 30,78 30,77.3 30,76.5 											"/>
										</g>
										<g>
											<polygon class="st5" points="32.1,75.5 32.1,77.8 32.1,78.5 31.4,78.1 30.1,77.4 29.4,77 29.5,74 											"/>
										</g>
										<g>
											<polygon class="st5" points="33.4,73 33.4,78.6 32.2,77.9 29.6,76.4 28.5,75.8 28.5,70.1 											"/>
										</g>
									</g>
								</g>
								<g>
									<g>
										<g>
											<g>
												<polygon class="st4" points="42.1,75.2 58.8,65.7 67.9,70.9 51.2,80.5 												"/>
												<path class="st5" d="M51.2,81.5c-0.2,0-0.3,0-0.5-0.1l-9.1-5.2c-0.3-0.2-0.5-0.5-0.5-0.9s0.2-0.7,0.5-0.9l16.7-9.6
													c0.3-0.2,0.7-0.2,1,0l9.1,5.2c0.3,0.2,0.5,0.5,0.5,0.9s-0.2,0.7-0.5,0.9l-16.7,9.6C51.6,81.4,51.4,81.5,51.2,81.5z
													 M44.2,75.2l7.1,4.1L66,70.9l-7.1-4.1L44.2,75.2z"/>
											</g>
										</g>
										<g>
											<g>
												<polygon class="st5" points="51.2,80.5 67.9,70.9 67.9,81.3 51.2,90.9 												"/>
												<path class="st5" d="M51.2,91.9c-0.2,0-0.3,0-0.5-0.1c-0.3-0.2-0.5-0.5-0.5-0.9V80.5c0-0.4,0.2-0.7,0.5-0.9L67.4,70
													c0.3-0.2,0.7-0.2,1,0s0.5,0.5,0.5,0.9v10.4c0,0.4-0.2,0.7-0.5,0.9l-16.7,9.6C51.5,91.8,51.4,91.9,51.2,91.9z M52.2,81
													v8.1l14.7-8.4v-8.1L52.2,81z"/>
											</g>
										</g>
										<g>
											<g>
												<polygon class="st6" points="51.2,80.5 51.2,90.9 49.1,89.7 44.2,86.8 42.1,85.6 42.1,75.2 												"/>
												<path class="st5" d="M51.2,91.9c-0.2,0-0.3,0-0.5-0.1l-9.1-5.2c-0.3-0.2-0.5-0.5-0.5-0.9V75.3c0-0.4,0.2-0.7,0.5-0.9
													c0.3-0.2,0.7-0.2,1,0l9.1,5.2c0.3,0.2,0.5,0.5,0.5,0.9v10.4c0,0.4-0.2,0.7-0.5,0.9C51.5,91.8,51.4,91.9,51.2,91.9z
													 M43.1,85.1l7.1,4.1v-8.1L43.1,77V85.1z"/>
											</g>
										</g>
										<path class="st7" d="M51.2,91.9c-0.2,0-0.3,0-0.5-0.1c-0.3-0.2-0.5-0.5-0.5-0.9v-9.8l-8.6-4.9c-0.3-0.2-0.5-0.5-0.5-0.9
											s0.2-0.7,0.5-0.9l16.7-9.6c0.3-0.2,0.7-0.2,1,0l9.1,5.2c0.3,0.2,0.5,0.5,0.5,0.9v10.4c0,0.4-0.2,0.7-0.5,0.9l-16.7,9.6
											C51.5,91.8,51.4,91.9,51.2,91.9z M44.2,75.2l7.6,4.4c0.3,0.2,0.5,0.5,0.5,0.9v8.7L67,80.8v-9.3l-8.1-4.7L44.2,75.2z"/>
									</g>
									<g>
										<g>
											<polygon class="st5" points="47.1,86.4 47.1,87.1 47.1,87.9 45.8,87.1 45.8,86.4 45.8,85.6 											"/>
										</g>
										<g>
											<polygon class="st5" points="47.9,84.6 47.8,86.9 47.8,87.6 47.2,87.2 45.9,86.5 45.2,86.1 45.2,83 											"/>
										</g>
										<g>
											<polygon class="st5" points="49.1,82 49.1,87.7 48,87 45.3,85.5 44.2,84.9 44.2,79.2 											"/>
										</g>
									</g>
								</g>
							</g>
							<g>
								<path class="st5" d="M20.9,68.9c0,0,23.4,13.6,31,18c2.2-1.3,4-2.3,5.3-3.1c-5.4-3.2-29.4-17.1-29.4-17.1L20.9,68.9z"/>
								<path class="st5" d="M52,88c-0.2,0-0.3,0-0.5-0.1l-31-18c-0.3-0.2-0.5-0.6-0.5-1s0.3-0.7,0.7-0.8l7-2.1
									c0.3-0.1,0.6,0,0.8,0.1L57.8,83c0.3,0.2,0.5,0.5,0.5,0.9s-0.2,0.7-0.5,0.9l-5.3,3.1C52.3,87.9,52.2,88,52,88z M23.4,69.2
									L52,85.8l3.3-1.9l-27.5-16L23.4,69.2z"/>
							</g>
							<g>
								<path class="st6" d="M54.8,76.8c5.4,3.1,9,5.2,9,5.2l5.2,9.2l5.3,3v9.9L69,101l-5.2,1.8L17.4,75.9c-1.4-0.8-3.2-0.8-4.7,0
									l-0.6,0.3v-3.1c0-1.1-0.8-1.5-1.7-1c-1,0.5-1.7,1.9-1.7,3v3.1C7.5,79,6.3,79.7,5,80.4v-7.5l2.9-1.7v-6L5,66.8v-7.1
									c2-1.2,5.2-3.1,7.7-4.6c1.4-0.9,3.2-0.9,4.6,0L54.8,76.8z"/>
								<path class="st5" d="M74.4,105c-0.2,0-0.3,0-0.5-0.1l-5-2.9l-4.7,1.6c-0.3,0.1-0.6,0.1-0.8-0.1L16.9,76.8
									c-1.1-0.7-2.5-0.6-3.7,0l-0.6,0.3c-0.3,0.2-0.7,0.2-1,0s-0.5-0.5-0.5-0.9v-3.1c0-0.1,0-0.2,0-0.2s-0.1,0-0.2,0.1
									c-0.6,0.4-1.2,1.4-1.2,2.1v3.1c0,0.4-0.2,0.7-0.5,0.9l-3.8,2.2c-0.3,0.2-0.7,0.2-1,0C4.2,81.1,4,80.8,4,80.4v-7.5
									c0-0.4,0.2-0.7,0.5-0.9l2.4-1.4v-3.7l-1.4,0.8c-0.3,0.2-0.7,0.2-1,0C4.2,67.5,4,67.2,4,66.8v-7.1c0-0.4,0.2-0.7,0.5-0.9
									c2-1.2,5.2-3,7.7-4.6c1.7-1,3.9-1,5.7,0l37.4,21.6l0,0l9,5.2c0.2,0.1,0.3,0.2,0.4,0.4l5,9l5.1,2.8c0.3,0.2,0.5,0.5,0.5,0.9
									v9.9c0,0.4-0.2,0.7-0.5,0.9C74.7,105,74.5,105,74.4,105z M69,99.9c0.2,0,0.3,0,0.5,0.1l3.8,2.2v-7.6l-4.8-2.7
									c-0.2-0.1-0.3-0.2-0.4-0.4l-5-9L16.9,56c-1.1-0.7-2.5-0.6-3.6,0C10.9,57.4,8,59.1,6,60.3v4.8l1.4-0.8c0.3-0.2,0.7-0.2,1,0
									c0.3,0.2,0.5,0.5,0.5,0.9v6c0,0.4-0.2,0.7-0.5,0.9L6,73.5v5.2l1.8-1v-2.6c0-1.5,0.9-3.1,2.2-3.8c0.8-0.4,1.6-0.5,2.2-0.1
									c0.6,0.4,1,1.1,1,2v1.5c1.5-0.6,3.3-0.4,4.7,0.4l46,26.6l4.7-1.6C68.8,100,68.9,99.9,69,99.9z"/>
							</g>
							<path class="st5" d="M15.3,54.5c-0.9-0.1-1.8,0.2-2.6,0.6C10.2,56.7,7,58.6,5,59.7v7.1l2.9-1.7v6L5,72.9v7.5
								c1.3-0.7,2.5-1.5,3.8-2.2v-3.1c0-1.1,0.8-2.4,1.7-3c1-0.6,1.7-0.1,1.7,1v3.1l0.6-0.3c0.8-0.5,1.7-0.7,2.6-0.6L15.3,54.5
								L15.3,54.5z"/>
							<g>
								<g>
									<g>
										<g>
											<polygon class="st4" points="35.7,69.8 35.6,82.6 33.9,81.6 27.9,78.1 25.3,76.6 25.4,63.8 											"/>
											<path class="st5" d="M35.6,83.6c-0.2,0-0.4-0.1-0.5-0.2l-1.7-1.1l-8.6-4.9c-0.3-0.2-0.5-0.5-0.5-0.9V63.7
												c0-0.4,0.2-0.7,0.5-0.9s0.7-0.2,1,0l10.3,6c0.3,0.2,0.5,0.5,0.5,0.9v12.8c0,0.4-0.2,0.7-0.5,0.9
												C36,83.6,35.8,83.6,35.6,83.6z M26.3,76l8.3,4.8V70.4l-8.3-4.9V76z"/>
										</g>
									</g>
								</g>
								<g>
									<g>
										<path class="st7" d="M32.8,71.4v6.3c0,0.1-0.1,0.2-0.2,0.1l-4.1-2.4c-0.1-0.1-0.2-0.2-0.2-0.3v-6.3c0-0.1,0.1-0.2,0.2-0.1
											l4.1,2.4C32.7,71.2,32.8,71.3,32.8,71.4z"/>
									</g>
								</g>
							</g>
							<g>
								<g>
									<g>
										<g>
											<polygon class="st4" points="51.4,78.9 51.4,91.7 49.7,90.7 43.6,87.2 41.1,85.7 41.1,72.9 											"/>
											<path class="st5" d="M51.4,92.7c-0.2,0-0.4-0.1-0.5-0.2l-1.7-1.1l-8.6-4.9c-0.3-0.2-0.5-0.5-0.5-0.9V72.8
												c0-0.4,0.2-0.7,0.5-0.9c0.3-0.2,0.7-0.2,1,0l10.3,6c0.3,0.2,0.5,0.5,0.5,0.9v12.8c0,0.4-0.2,0.7-0.5,0.9
												C51.7,92.7,51.6,92.7,51.4,92.7z M42.1,85.1l8.3,4.8V79.5l-8.3-4.9V85.1z"/>
										</g>
									</g>
								</g>
								<g>
									<g>
										<path class="st7" d="M48.5,80.5v6.3c0,0.1-0.1,0.2-0.2,0.1l-4.1-2.4c-0.1-0.1-0.2-0.2-0.2-0.3v-6.3c0-0.1,0.1-0.2,0.2-0.1
											l4.1,2.4C48.4,80.3,48.5,80.4,48.5,80.5z"/>
									</g>
								</g>
							</g>
							<path class="st7" d="M74.4,105c-0.2,0-0.3,0-0.5-0.1l-5-2.9l-4.7,1.6c-0.3,0.1-0.6,0.1-0.8-0.1L16.9,76.8
								c-1.1-0.7-2.5-0.6-3.7,0l-0.6,0.3c-0.3,0.2-0.7,0.2-1,0s-0.5-0.5-0.5-0.9v-3.1c0-0.1,0-0.2,0-0.2s-0.1,0-0.2,0.1
								c-0.6,0.4-1.2,1.4-1.2,2.1v3.1c0,0.4-0.2,0.7-0.5,0.9l-3.8,2.2c-0.3,0.2-0.7,0.2-1,0C4.2,81.1,4,80.8,4,80.4v-7.5
								c0-0.4,0.2-0.7,0.5-0.9l2.4-1.4v-3.7l-1.4,0.8c-0.3,0.2-0.7,0.2-1,0C4.2,67.5,4,67.2,4,66.8v-7.1c0-0.4,0.2-0.7,0.5-0.9
								c2-1.2,5.2-3,7.7-4.6c1.7-1,3.9-1,5.7,0l37.4,21.6l0,0l9,5.2c0.2,0.1,0.3,0.2,0.4,0.4l5,9l5.1,2.8c0.3,0.2,0.5,0.5,0.5,0.9
								v9.9c0,0.4-0.2,0.7-0.5,0.9C74.7,105,74.5,105,74.4,105z M69,99.9c0.2,0,0.3,0,0.5,0.1l3.8,2.2v-7.6l-4.8-2.7
								c-0.2-0.1-0.3-0.2-0.4-0.4l-5-9L16.9,56c-1.1-0.7-2.5-0.6-3.6,0C10.9,57.4,8,59.1,6,60.3v4.8l1.4-0.8c0.3-0.2,0.7-0.2,1,0
								c0.3,0.2,0.5,0.5,0.5,0.9v6c0,0.4-0.2,0.7-0.5,0.9L6,73.5v5.2l1.8-1v-2.6c0-1.5,0.9-3.1,2.2-3.8c0.8-0.4,1.6-0.5,2.2-0.1
								c0.6,0.4,1,1.1,1,2v1.5c1.5-0.6,3.3-0.4,4.7,0.4l46,26.6l4.7-1.6C68.8,100,68.9,99.9,69,99.9z"/>
						</g>
					</g>
					<g>
						<g>
							<g>
								<polygon class="st5" points="92.2,42 92.2,49.8 69.2,63 69.2,55.2 								"/>
								<g>
									<polygon class="st4" points="45.7,41.6 68.7,28.4 92.2,42 69.2,55.2 									"/>
									<path class="st5" d="M69.2,56.2c-0.2,0-0.3,0-0.5-0.1L45.2,42.5c-0.3-0.2-0.5-0.5-0.5-0.9s0.2-0.7,0.5-0.9l23-13.3
										c0.3-0.2,0.7-0.2,1,0L92.7,41c0.3,0.2,0.5,0.5,0.5,0.9s-0.2,0.7-0.5,0.9l-23,13.3C69.6,56.2,69.4,56.2,69.2,56.2z
										 M47.7,41.6L69.2,54l21-12.1L68.7,29.5L47.7,41.6z"/>
								</g>
								<path class="st5" d="M50.4,45.3c-0.3,0-0.7-0.2-0.9-0.5c-0.3-0.5-0.1-1.1,0.4-1.4l23-13.3c0.5-0.3,1.1-0.1,1.4,0.4
									s0.1,1.1-0.4,1.4l-23,13.3C50.7,45.2,50.6,45.3,50.4,45.3z"/>
								<path class="st5" d="M55.1,47.9c-0.3,0-0.7-0.2-0.9-0.5c-0.3-0.5-0.1-1.1,0.4-1.4l23-13.3c0.5-0.3,1.1-0.1,1.4,0.4
									s0.1,1.1-0.4,1.4l-23,13.3C55.5,47.8,55.3,47.9,55.1,47.9z"/>
								<path class="st5" d="M59.8,50.5c-0.3,0-0.7-0.2-0.9-0.5c-0.3-0.5-0.1-1.1,0.4-1.4l23-13.3c0.5-0.3,1.1-0.1,1.4,0.4
									s0.1,1.1-0.4,1.4l-23,13.3C60.2,50.5,60,50.5,59.8,50.5z"/>
								<path class="st5" d="M64.5,53.1c-0.3,0-0.7-0.2-0.9-0.5c-0.3-0.5-0.1-1.1,0.4-1.4L87,38c0.5-0.3,1.1-0.1,1.4,0.4
									s0.1,1.1-0.4,1.4L65,53C64.9,53.1,64.7,53.1,64.5,53.1z"/>
								<polygon class="st6" points="45.7,41.6 45.7,49.4 69.2,63 69.2,55.2 								"/>
								<path class="st5" d="M69.2,64c-0.2,0-0.3,0-0.5-0.1L45.2,50.3c-0.3-0.2-0.5-0.5-0.5-0.9v-7.8c0-0.4,0.2-0.7,0.5-0.9
									s0.7-0.2,1,0l23.5,13.6c0.3,0.2,0.5,0.5,0.5,0.9V63c0,0.4-0.2,0.7-0.5,0.9C69.6,64,69.4,64,69.2,64z M46.7,48.9l21.5,12.4
									v-5.5L46.7,43.4V48.9z"/>
								<path class="st5" d="M69.2,56.2c-0.2,0-0.3,0-0.5-0.1L45.2,42.5c-0.3-0.2-0.5-0.5-0.5-0.9s0.2-0.7,0.5-0.9l23-13.3
									c0.3-0.2,0.7-0.2,1,0L92.7,41c0.3,0.2,0.5,0.5,0.5,0.9s-0.2,0.7-0.5,0.9l-23,13.3C69.6,56.2,69.4,56.2,69.2,56.2z
									 M47.7,41.6L69.2,54l21-12.1L68.7,29.5L47.7,41.6z"/>
								<path class="st7" d="M69.2,64c-0.2,0-0.3,0-0.5-0.1L45.2,50.3c-0.3-0.2-0.5-0.5-0.5-0.9v-7.8c0-0.4,0.2-0.7,0.5-0.9l23-13.3
									c0.3-0.2,0.7-0.2,1,0L92.7,41c0.3,0.2,0.5,0.5,0.5,0.9v7.8c0,0.4-0.2,0.7-0.5,0.9l-23,13.3C69.6,64,69.4,64,69.2,64z
									 M46.7,48.9l22.5,13l22-12.7v-6.6l-22.5-13l-22,12.7C46.7,42.3,46.7,48.9,46.7,48.9z"/>
							</g>
						</g>
					</g>
				</g>
			</g>
		</g>
	</g>
	<g>
		<rect class="st0" width="128" height="128"/>
	</g>
</g>
</svg>
