<?xml version="1.0" encoding="utf-8"?>
<!-- Generator: Adobe Illustrator 24.1.0, SVG Export Plug-In . SVG Version: 6.00 Build 0)  -->
<svg version="1.1" id="Layer_1" xmlns="http://www.w3.org/2000/svg" xmlns:xlink="http://www.w3.org/1999/xlink" x="0px" y="0px"
	 viewBox="0 0 128 128" style="enable-background:new 0 0 128 128;" xml:space="preserve">
<style type="text/css">
	.st0{fill:#FFFFFF;}
	.st1{fill:#0E352C;}
	.st2{fill:#E9EBDF;}
	.st3{fill:#4D9987;}
	.st4{fill:none;}
</style>
<g id="Layer_1_1_">
</g>
<g>
	<g id="Layer_2_1_">
		<g id="Objects_1_">
			<g>
				<g>
					<g>
						<path class="st0" d="M103.4,109.4l-2.8-4.8l2.4-1.4c3.5-2,5.9-5.5,6.6-9.4c0.7-4-0.3-8.1-2.9-11.2l-13.2-16L98,63l13.2,16
							c3.6,4.4,5.1,10.1,4.1,15.7s-4.4,10.4-9.3,13.3L103.4,109.4z"/>
						<path class="st1" d="M103.4,110.4c-0.1,0-0.2,0-0.3,0c-0.3-0.1-0.5-0.2-0.6-0.5l-2.8-4.8c-0.3-0.5-0.1-1.1,0.4-1.4l2.4-1.4
							c3.2-1.9,5.5-5.1,6.2-8.8c0.7-3.7-0.3-7.5-2.7-10.4l-13.2-16c-0.2-0.2-0.2-0.5-0.2-0.7c0-0.3,0.2-0.5,0.4-0.7l4.3-3.5
							c0.4-0.4,1.1-0.3,1.4,0.1l13.2,16c3.8,4.6,5.4,10.6,4.3,16.5s-4.6,11-9.8,14l-2.4,1.4C103.8,110.3,103.6,110.4,103.4,110.4z
							 M102,104.9l1.8,3.1l1.5-0.9c4.7-2.7,7.9-7.3,8.9-12.6c1-5.3-0.4-10.7-3.9-14.9L97.8,64.4L95,66.7l12.5,15.2
							c2.8,3.4,3.9,7.7,3.1,12s-3.4,8-7.1,10.1L102,104.9z"/>
						<path class="st2" d="M104.8,107.3c-0.3,0-0.7-0.2-0.9-0.5c-0.3-0.5-0.1-1.1,0.4-1.4c4.2-2.4,7-6.5,7.9-11.2s-0.4-9.6-3.4-13.3
							L96.9,66.5c-0.4-0.4-0.3-1.1,0.1-1.4c0.4-0.4,1.1-0.3,1.4,0.1l11.9,14.5c3.4,4.2,4.8,9.6,3.9,14.9c-1,5.3-4.2,9.9-8.9,12.6
							C105.2,107.2,105,107.3,104.8,107.3z"/>
						<g>
							<path class="st3" d="M104.2,111.8l-4.3,2.5c-2.5,1.4-5.7,0.6-7.2-1.9l0,0c-1.4-2.5-0.6-5.7,1.9-7.2l4.3-2.5
								c2.5-1.4,5.7-0.6,7.2,1.9l0,0C107.5,107.1,106.7,110.3,104.2,111.8z"/>
							<path class="st3" d="M106.1,104.6c-1.4-2.5-4.6-3.4-7.2-1.9l-4.3,2.5c-2.5,1.4-3.4,4.6-1.9,7.2c1.4,2.5,4.6,3.4,7.2,1.9
								l4.3-2.5C106.7,110.3,107.5,107.1,106.1,104.6z M102.4,109.3l-4.7,2.7c-1.5,0.9-3.4,0.3-4.3-1.1c-0.9-1.5-0.3-3.4,1.1-4.3
								l4.7-2.7c1.5-0.9,3.4-0.3,4.3,1.1C104.4,106.5,103.9,108.4,102.4,109.3z"/>
							<path class="st2" d="M100.5,107.2l-4,2.3c-0.9,0.5-2,0.2-2.5-0.7l0,0c-0.5-0.9-0.2-2,0.7-2.5l4-2.3c0.9-0.5,2-0.2,2.5,0.7
								l0,0C101.7,105.6,101.4,106.7,100.5,107.2z"/>
							<path class="st1" d="M97.2,116c-0.5,0-1.1-0.1-1.6-0.2c-1.6-0.4-3-1.5-3.8-2.9c-1.7-3-0.7-6.8,2.3-8.5l4.3-2.5
								c1.4-0.8,3.1-1.1,4.7-0.6c1.6,0.4,3,1.5,3.8,2.9c1.7,3,0.7,6.8-2.3,8.5l0,0l-4.3,2.5C99.4,115.7,98.3,116,97.2,116z
								 M101.5,103c-0.7,0-1.4,0.2-2.1,0.6l-4.3,2.5c-2,1.2-2.7,3.8-1.5,5.8c0.6,1,1.5,1.7,2.6,2s2.2,0.1,3.2-0.4l4.3-2.5
								c2-1.2,2.7-3.8,1.6-5.8C104.4,103.8,103,103,101.5,103z M104.2,111.8L104.2,111.8L104.2,111.8z"/>
						</g>
					</g>
					<g>
						<g>
							<g>
								<g>
									<path class="st1" d="M53.8,103.4c0-11.2-6.8-24.1-15.1-28.9c-3.8-2.2-7.3-2.3-9.9-0.8l0,0l-4.6,2.6l2.5,5.3
										c-0.1,0.8-0.1,1.6-0.1,2.5c0,11.1,6.7,23.9,14.9,28.8l2.5,5.3l4.6-2.6l0,0C51.7,113.8,53.8,109.5,53.8,103.4z"/>
									<path class="st1" d="M44,119.3c-0.1,0-0.2,0-0.3,0c-0.3-0.1-0.5-0.3-0.6-0.5l-2.4-5.1c-8.5-5.3-15.1-18.1-15.1-29.5
										c0-0.8,0-1.6,0.1-2.4l-2.4-5.1c-0.2-0.5,0-1,0.4-1.3l4.6-2.6c0,0,0.1,0,0.1-0.1c3.1-1.7,6.9-1.4,10.8,0.9
										c8.6,5,15.6,18.4,15.6,29.8c0,6.2-2.1,10.9-5.6,13.1c0,0-0.1,0-0.1,0.1l-4.6,2.6C44.3,119.2,44.1,119.3,44,119.3z
										 M25.4,76.7l2.1,4.5c0.1,0.2,0.1,0.3,0.1,0.5c-0.1,0.8-0.1,1.6-0.1,2.4c0,10.7,6.5,23.2,14.4,27.9c0.2,0.1,0.3,0.3,0.4,0.4
										l2.1,4.4l3.5-2c0,0,0.1,0,0.1-0.1c3-1.7,4.7-5.9,4.7-11.4c0-10.8-6.6-23.4-14.6-28.1c-3.3-1.9-6.5-2.2-8.9-0.8
										c0,0-0.1,0-0.1,0.1L25.4,76.7z"/>
								</g>
								<path class="st3" d="M38.6,74.5c-3.8-2.2-7.3-2.3-9.9-0.8l0,0l-4.6,2.6l2.5,5.3c-0.1,0.8-0.1,1.6-0.1,2.5
									c0,5.1,1.4,10.5,3.7,15.4L50.1,88C47.3,82.2,43.2,77.1,38.6,74.5z"/>
								<path class="st3" d="M44,119.3c-0.1,0-0.2,0-0.3,0c-0.3-0.1-0.5-0.3-0.6-0.5l-2.4-5.1c-8.5-5.3-15.1-18.1-15.1-29.5
									c0-0.8,0-1.6,0.1-2.4l-2.4-5.1c-0.2-0.5,0-1,0.4-1.3l4.6-2.6c0,0,0.1,0,0.1-0.1c3.1-1.7,6.9-1.4,10.8,0.9
									c8.6,5,15.6,18.4,15.6,29.8c0,6.2-2.1,10.9-5.6,13.1c0,0-0.1,0-0.1,0.1l-4.6,2.6C44.3,119.2,44.1,119.3,44,119.3z
									 M25.4,76.7l2.1,4.5c0.1,0.2,0.1,0.3,0.1,0.5c-0.1,0.8-0.1,1.6-0.1,2.4c0,10.7,6.5,23.2,14.4,27.9c0.2,0.1,0.3,0.3,0.4,0.4
									l2.1,4.4l3.5-2c0,0,0.1,0,0.1-0.1c3-1.7,4.7-5.9,4.7-11.4c0-10.8-6.6-23.4-14.6-28.1c-3.3-1.9-6.5-2.2-8.9-0.8
									c0,0-0.1,0-0.1,0.1L25.4,76.7z"/>
								<path class="st1" d="M40.1,120.3c-2.1,0-4.3-0.7-6.5-1.9C25,113.4,18,100,18,88.6c0-6.2,2.1-11,5.7-13.1
									c3.1-1.8,6.9-1.5,10.9,0.8c8.6,5,15.6,18.4,15.6,29.8c0,6.2-2.1,11-5.7,13.1C43.1,119.9,41.6,120.3,40.1,120.3z M28,76.3
									c-1.2,0-2.4,0.3-3.4,0.9c-3,1.7-4.7,5.9-4.7,11.4c0,10.8,6.6,23.4,14.6,28.1c3.3,1.9,6.5,2.2,8.9,0.8
									c3-1.7,4.7-5.9,4.7-11.4c0-10.8-6.6-23.4-14.6-28.1C31.6,76.8,29.7,76.3,28,76.3z"/>
							</g>
							<path class="st1" d="M40.1,120.3c-2.1,0-4.3-0.7-6.5-1.9C25,113.4,18,100,18,88.6c0-6.2,2.1-10.9,5.6-13c0,0,0.1,0,0.1-0.1
								l4.6-2.6c0,0,0.1,0,0.1-0.1c3.1-1.7,6.9-1.4,10.8,0.9c0.3,0.2,0.6,0.3,0.9,0.5l0.3,0.2c0.2,0.1,0.4,0.3,0.6,0.4l0.3,0.2
								c0.2,0.1,0.4,0.3,0.5,0.4l0.2,0.2c0.2,0.2,0.4,0.3,0.6,0.5l0.3,0.2c0.2,0.2,0.4,0.3,0.5,0.5l0.3,0.3c0.2,0.2,0.4,0.3,0.5,0.5
								l0.2,0.3c0.2,0.2,0.4,0.4,0.5,0.6l0.2,0.2c0.2,0.2,0.4,0.5,0.6,0.7l0.1,0.2c0.2,0.3,0.5,0.6,0.7,0.9l0,0
								c1.7,2.2,3.2,4.6,4.4,7.3c2.5,5.2,3.8,10.8,3.8,15.8c0,6.2-2.1,10.9-5.6,13.1c0,0-0.1,0-0.1,0.1l-4.6,2.6c0,0-0.1,0-0.1,0.1
								C43,119.9,41.6,120.3,40.1,120.3z M24.7,77.1L24.7,77.1c-3.1,1.8-4.8,5.9-4.8,11.4c0,10.8,6.6,23.4,14.6,28.1
								c3.3,1.9,6.5,2.2,8.9,0.8c0,0,0.1,0,0.1-0.1l4.4-2.5c0,0,0.1,0,0.1-0.1c3-1.7,4.7-5.9,4.7-11.4c0-4.7-1.3-10-3.6-14.9l0,0
								c-1.2-2.5-2.6-4.8-4.2-6.9l0,0c-0.2-0.3-0.4-0.6-0.7-0.8l-0.1-0.1c-0.2-0.2-0.4-0.4-0.6-0.6l-0.2-0.2
								c-0.2-0.2-0.3-0.4-0.5-0.5l-0.2-0.2c-0.2-0.2-0.3-0.3-0.5-0.5l-0.3-0.2c-0.2-0.1-0.3-0.3-0.5-0.4L41,77.8
								c-0.2-0.1-0.3-0.3-0.5-0.4l-0.3-0.2c-0.2-0.1-0.3-0.2-0.5-0.4l-0.3-0.2c-0.2-0.1-0.4-0.2-0.5-0.4L38.7,76
								c-0.3-0.2-0.5-0.3-0.8-0.5c-3.3-1.9-6.5-2.2-8.9-0.8c0,0-0.1,0-0.1,0.1L24.7,77.1z"/>
						</g>
						<g>
							<path class="st3" d="M49.2,106c0-11.2-6.8-24.1-15.1-28.9c-3.8-2.2-7.3-2.3-9.9-0.8l0,0L17.7,80l2.5,5.3
								c-0.1,0.8-0.1,1.6-0.1,2.5c0,11.1,6.7,23.9,14.9,28.8l2.5,5.3l6.4-3.7l0,0C47.2,116.4,49.2,112.1,49.2,106z"/>
							<path class="st2" d="M34,77.1c-3.8-2.2-7.3-2.3-9.9-0.8l0,0L17.7,80l2.5,5.3c-0.1,0.8-0.1,1.6-0.1,2.5
								c0,5.1,1.4,10.5,3.7,15.4l21.7-12.5C42.7,84.8,38.6,79.7,34,77.1z"/>
							<g>
								
									<ellipse transform="matrix(0.9201 -0.3916 0.3916 0.9201 -37.3524 18.8807)" class="st0" cx="27.6" cy="101" rx="13.2" ry="23.3"/>
								<path class="st3" d="M33.7,124c-2.1,0-4.3-0.7-6.5-2c-8.6-5-15.6-18.4-15.6-29.8c0-6.2,2.1-11,5.7-13.1
									c3.1-1.8,6.9-1.5,10.9,0.8c8.6,5,15.6,18.4,15.6,29.8c0,6.2-2.1,11-5.7,13.1C36.7,123.6,35.2,124,33.7,124z M21.6,80
									c-1.2,0-2.4,0.3-3.4,0.9c-3,1.7-4.7,5.9-4.7,11.4c0,10.8,6.6,23.4,14.6,28.1c3.3,1.9,6.5,2.2,8.9,0.8
									c3-1.7,4.7-5.9,4.7-11.4c0-10.8-6.6-23.4-14.6-28.1C25.2,80.5,23.3,80,21.6,80z"/>
							</g>
							<path class="st1" d="M33.7,124c-2.1,0-4.3-0.7-6.5-1.9c-8.6-5-15.6-18.4-15.6-29.8c0-6.2,2.1-10.9,5.6-13c0,0,0.1,0,0.1-0.1
								l6.4-3.7c0,0,0.1,0,0.1-0.1c3.1-1.7,6.9-1.4,10.8,0.9c0.3,0.2,0.6,0.3,0.9,0.5l0.3,0.2c0.2,0.1,0.4,0.3,0.6,0.4l0.3,0.2
								c0.2,0.1,0.4,0.3,0.5,0.4l0.2,0.2c0.2,0.2,0.4,0.3,0.6,0.5l0.3,0.2c0.2,0.2,0.4,0.3,0.6,0.5l0.3,0.3c0.2,0.2,0.4,0.3,0.5,0.5
								l0.2,0.2c0.2,0.2,0.4,0.4,0.5,0.6l0.2,0.2c0.2,0.2,0.4,0.5,0.6,0.7l0.1,0.2c0.2,0.3,0.5,0.6,0.7,0.9c0,0,0,0,0,0.1
								c1.6,2.1,3.1,4.6,4.4,7.2c2.5,5.2,3.8,10.8,3.8,15.8c0,6.2-2.1,10.9-5.6,13.1c0,0-0.1,0-0.1,0.1l-6.4,3.7c0,0-0.1,0-0.1,0.1
								C36.6,123.6,35.2,124,33.7,124z M18.3,80.8L18.3,80.8c-3.1,1.8-4.8,5.9-4.8,11.4c0,10.8,6.6,23.4,14.6,28.1
								c3.3,1.9,6.5,2.2,8.9,0.8c0,0,0.1,0,0.1-0.1l6.2-3.6c0,0,0.1,0,0.1-0.1c3-1.7,4.7-5.9,4.7-11.4c0-4.7-1.3-10-3.6-14.9l0,0
								c-1.2-2.5-2.6-4.8-4.2-6.9l0,0l0,0c-0.2-0.3-0.4-0.6-0.7-0.8l-0.1-0.1c-0.2-0.3-0.4-0.5-0.6-0.7l-0.2-0.2
								c-0.2-0.2-0.3-0.4-0.5-0.5L38,81.6c-0.2-0.2-0.3-0.3-0.5-0.5l-0.3-0.2c-0.2-0.1-0.3-0.3-0.5-0.4l-0.3-0.2
								c-0.2-0.1-0.3-0.3-0.5-0.4l-0.3-0.2c-0.2-0.1-0.3-0.2-0.5-0.4l0-0.3c-0.2-0.1-0.4-0.2-0.5-0.4l-0.2-0.2
								c-0.3-0.2-0.5-0.3-0.8-0.5c-3.3-1.9-6.5-2.2-8.9-0.8c0,0-0.1,0-0.1,0.1L18.3,80.8z"/>
							<g>
								
									<ellipse transform="matrix(0.9201 -0.3916 0.3916 0.9201 -37.3524 18.8807)" class="st2" cx="27.6" cy="101" rx="7.4" ry="13"/>
								<path class="st3" d="M27.6,89.7c-4.7-2.7-8.5,0.2-8.5,6.4c0,2.8,0.8,5.9,2.1,8.6L34,97.3C32.5,94,30.2,91.1,27.6,89.7z"/>
								<path class="st2" d="M27.6,89.7c-1.3-0.7-2.5-1.1-3.6-1c-0.9,1.3-1.4,3.1-1.4,5.4c0,6.3,3.8,13.5,8.5,16.2
									c1.3,0.7,2.5,1.1,3.6,1c0.9-1.3,1.4-3.1,1.4-5.4C36.1,99.6,32.3,92.4,27.6,89.7z"/>
								<path class="st3" d="M34.5,112.3c-1.2,0-2.5-0.4-3.9-1.1c-5-2.9-9-10.5-9-17.1c0-2.4,0.5-4.5,1.6-6c0.2-0.3,0.5-0.4,0.8-0.4
									c1.3-0.1,2.8,0.3,4.2,1.1l0,0c5,2.9,9,10.5,9,17.1c0,2.4-0.5,4.5-1.6,6c-0.2,0.3-0.5,0.4-0.8,0.4
									C34.7,112.3,34.6,112.3,34.5,112.3z M24.6,89.7c-0.6,1.1-1,2.6-1,4.4c0,5.9,3.6,12.8,8,15.4c0.9,0.5,1.8,0.8,2.6,0.9
									c0.6-1.1,1-2.6,1-4.4c0-5.9-3.6-12.8-8-15.4l0,0C26.3,90,25.4,89.7,24.6,89.7z"/>
								<path class="st1" d="M31,114.3c-1.2,0-2.5-0.4-3.9-1.2c-5-2.9-9-10.5-9-17.1c0-3.7,1.3-6.5,3.4-7.7c1.9-1.1,4.2-0.9,6.6,0.4
									c5,2.9,9,10.5,9,17.1c0,3.7-1.3,6.5-3.4,7.7C32.9,114.1,32,114.3,31,114.3z M24.3,89.6c-0.6,0-1.2,0.1-1.7,0.4
									c-1.5,0.9-2.4,3.1-2.4,6c0,5.9,3.6,12.8,8,15.4c1.7,1,3.3,1.2,4.6,0.4c1.5-0.9,2.4-3.1,2.4-6c0-5.9-3.6-12.8-8-15.4
									C26.1,89.9,25.2,89.6,24.3,89.6z"/>
							</g>
						</g>
						<g>
							<g>
								<g>
									<path class="st3" d="M104.6,74.1c0-11.2-6.8-24.1-15.1-28.9c-3.8-2.2-7.3-2.3-9.9-0.8l0,0L73.1,48l2.5,5.3
										c-0.1,0.8-0.1,1.6-0.1,2.5c0,11.1,6.7,23.9,14.9,28.8L93,90l6.4-3.7l0,0C102.6,84.4,104.6,80.2,104.6,74.1z"/>
									<path class="st3" d="M93,91c-0.1,0-0.2,0-0.3,0c-0.3-0.1-0.5-0.3-0.6-0.5l-2.4-5.1c-8.5-5.3-15.1-18.1-15.1-29.5
										c0-0.8,0-1.6,0.1-2.4l-2.4-5.1c-0.2-0.5,0-1,0.4-1.3l6.4-3.7c0,0,0.1,0,0.1-0.1c3.1-1.7,6.9-1.4,10.8,0.9
										c8.6,5,15.6,18.4,15.6,29.8c0,6.2-2.1,10.9-5.6,13.1c0,0-0.1,0-0.1,0.1l-6.4,3.7C93.3,91,93.1,91,93,91z M74.4,48.4
										l2.1,4.5c0.1,0.2,0.1,0.3,0.1,0.5c-0.1,0.8-0.1,1.6-0.1,2.4c0,10.7,6.5,23.2,14.4,27.9c0.2,0.1,0.3,0.3,0.4,0.4l2.1,4.4
										l5.4-3.1c0,0,0.1,0,0.1-0.1c3-1.7,4.7-5.9,4.7-11.4c0-10.8-6.6-23.4-14.6-28.1c-3.3-1.9-6.5-2.2-8.9-0.8c0,0-0.1,0-0.1,0.1
										L74.4,48.4z"/>
								</g>
								<path class="st2" d="M89.4,45.1c-3.8-2.2-7.3-2.3-9.9-0.8l0,0L73.1,48l2.5,5.3c-0.1,0.8-0.1,1.6-0.1,2.5
									c0,5.1,1.4,10.5,3.7,15.4l21.7-12.5C98.1,52.8,94,47.8,89.4,45.1z"/>
								<path class="st3" d="M93,91c-0.1,0-0.2,0-0.3,0c-0.3-0.1-0.5-0.3-0.6-0.5l-2.4-5.1c-8.5-5.3-15.1-18.1-15.1-29.5
									c0-0.8,0-1.6,0.1-2.4l-2.4-5.1c-0.2-0.5,0-1,0.4-1.3l6.4-3.7c0,0,0.1,0,0.1-0.1c3.1-1.7,6.9-1.4,10.8,0.9
									c8.6,5,15.6,18.4,15.6,29.8c0,6.2-2.1,10.9-5.6,13.1c0,0-0.1,0-0.1,0.1l-6.4,3.7C93.3,91,93.1,91,93,91z M74.4,48.4l2.1,4.5
									c0.1,0.2,0.1,0.3,0.1,0.5c-0.1,0.8-0.1,1.6-0.1,2.4c0,10.7,6.5,23.2,14.4,27.9c0.2,0.1,0.3,0.3,0.4,0.4l2.1,4.4l5.4-3.1
									c0,0,0.1,0,0.1-0.1c3-1.7,4.7-5.9,4.7-11.4c0-10.8-6.6-23.4-14.6-28.1c-3.3-1.9-6.5-2.2-8.9-0.8c0,0-0.1,0-0.1,0.1
									L74.4,48.4z"/>
								<g>
									
										<ellipse transform="matrix(0.9201 -0.3916 0.3916 0.9201 -20.3968 38.016)" class="st0" cx="83" cy="69" rx="13.2" ry="23.3"/>
									<path class="st3" d="M89.1,92c-2.1,0-4.3-0.7-6.5-2C74,85,67,71.6,67,60.2c0-6.2,2.1-11,5.7-13.1c3.1-1.8,6.9-1.5,10.9,0.8
										c8.6,5,15.6,18.4,15.6,29.8c0,6.2-2.1,11-5.7,13.1C92.1,91.6,90.6,92,89.1,92z M77,48c-1.2,0-2.4,0.3-3.4,0.9
										c-3,1.7-4.7,5.9-4.7,11.4c0,10.8,6.6,23.4,14.6,28.1c3.3,1.9,6.5,2.2,8.9,0.8c3-1.7,4.7-5.9,4.7-11.4
										c0-10.8-6.6-23.4-14.6-28.1C80.6,48.6,78.7,48,77,48z"/>
								</g>
								
									<ellipse transform="matrix(0.9201 -0.3916 0.3916 0.9201 -20.3968 38.016)" class="st2" cx="83" cy="69" rx="8.1" ry="14.3"/>
								<path class="st3" d="M83,56.6c-5.2-3-9.3,0.2-9.3,7.1c0,3.1,0.9,6.5,2.3,9.5l14.1-8.1C88.4,61.3,85.9,58.2,83,56.6z"/>
								<path class="st3" d="M86.8,83.6c-1.3,0-2.8-0.4-4.2-1.3c-5.4-3.1-9.8-11.5-9.8-18.7c0-4,1.4-7,3.7-8.4c2-1.2,4.5-1,7.1,0.5
									c5.4,3.1,9.8,11.5,9.8,18.7c0,4-1.4,7-3.7,8.4C88.8,83.3,87.8,83.6,86.8,83.6z M79.3,56.4c-0.7,0-1.3,0.2-1.9,0.5
									c-1.7,1-2.7,3.4-2.7,6.7c0,6.5,4,14.1,8.8,17c1.9,1.1,3.7,1.3,5.1,0.5c1.7-1,2.7-3.4,2.7-6.7c0-6.5-4-14.1-8.8-17
									C81.4,56.8,80.3,56.4,79.3,56.4z"/>
								<path class="st1" d="M89.1,92c-2.1,0-4.3-0.7-6.5-1.9C74,85.1,67,71.7,67,60.3c0-6.2,2.1-10.9,5.6-13c0,0,0.1,0,0.1-0.1
									l6.4-3.7c0,0,0.1,0,0.1-0.1c3.1-1.7,6.9-1.4,10.8,0.9c0.3,0.2,0.6,0.3,0.9,0.5l0.3,0.2c0.2,0.1,0.4,0.3,0.6,0.4l0.3,0.2
									c0.2,0.1,0.4,0.3,0.5,0.4l0.3,0.2c0.2,0.2,0.4,0.3,0.6,0.5l0.3,0.3c0.2,0.2,0.4,0.3,0.5,0.5l0.3,0.3
									c0.2,0.2,0.4,0.3,0.5,0.5l0.2,0.2c0.2,0.2,0.4,0.4,0.6,0.6l0.2,0.2c0.2,0.2,0.4,0.5,0.6,0.7l0.1,0.2
									c0.2,0.3,0.5,0.6,0.7,0.9l0,0l0,0c1.7,2.2,3.2,4.6,4.4,7.3c2.5,5.2,3.8,10.8,3.8,15.8c0,6.2-2.1,10.9-5.6,13.1
									c0,0-0.1,0-0.1,0.1l-6.4,3.7c0,0-0.1,0-0.1,0.1C92,91.6,90.6,92,89.1,92z M73.7,48.8C73.7,48.8,73.7,48.9,73.7,48.8
									c-3.1,1.8-4.8,5.9-4.8,11.4c0,10.8,6.6,23.4,14.6,28.1c3.3,1.9,6.5,2.2,8.9,0.8c0,0,0.1,0,0.1-0.1l6.2-3.6
									c0,0,0.1,0,0.1-0.1c3-1.7,4.7-5.9,4.7-11.4c0-4.7-1.3-10-3.6-14.9l0,0c-1.2-2.5-2.6-4.8-4.2-6.9l0,0
									c-0.2-0.3-0.4-0.6-0.7-0.8h0c-0.2-0.3-0.4-0.5-0.6-0.7l-0.1-0.1c-0.2-0.3-0.4-0.4-0.6-0.6l-0.2-0.2
									c-0.2-0.2-0.3-0.3-0.5-0.5L92.7,49c-0.2-0.1-0.3-0.3-0.5-0.4L92,48.2c-0.2-0.1-0.3-0.3-0.5-0.4l-0.3-0.2
									c-0.2-0.1-0.3-0.2-0.5-0.4L90.5,47c-0.2-0.1-0.4-0.2-0.5-0.4l-0.2-0.2c-0.3-0.2-0.5-0.3-0.8-0.5c-3.3-1.9-6.5-2.2-8.9-0.8
									c0,0-0.1,0-0.1,0.1L73.7,48.8z"/>
								<g>
									<path class="st0" d="M83,56.6c-1.4-0.8-2.8-1.2-4-1.1c-1,1.4-1.5,3.4-1.5,6c0,6.9,4.2,14.8,9.3,17.8c1.4,0.8,2.8,1.2,4,1.1
										c1-1.4,1.5-3.4,1.5-6C92.4,67.5,88.2,59.5,83,56.6z"/>
									<path class="st3" d="M90.5,81.3c-1.4,0-2.8-0.4-4.2-1.2c-5.4-3.1-9.8-11.5-9.8-18.7c0-2.6,0.6-4.9,1.7-6.5
										c0.2-0.3,0.5-0.4,0.8-0.4c1.5-0.1,3,0.3,4.5,1.2l0,0c5.4,3.1,9.8,11.5,9.8,18.7c0,2.6-0.6,4.9-1.7,6.5
										c-0.2,0.3-0.5,0.4-0.8,0.4C90.8,81.3,90.7,81.3,90.5,81.3z M79.6,56.5c-0.7,1.3-1.1,3-1.1,5c0,6.5,4,14.1,8.8,17
										c1,0.6,2,0.9,2.9,1c0.7-1.3,1.1-3,1.1-5c0-6.5-4-14.1-8.8-17C81.5,56.8,80.5,56.5,79.6,56.5z"/>
								</g>
							</g>
						</g>
						<g>
							<path class="st0" d="M70.1,7.2c-5.9-3.4-13.2-2.9-20.7,1.5c-15.9,9.2-28.9,33.8-28.9,54.9V79c2.1-0.3,4.5,0.3,7.1,1.7
								c1.9,1.1,3.7,2.6,5.3,4.4V70.7c0-21.1,13-45.7,28.9-54.9c7.5-4.3,14.8-4.8,20.7-1.5L70.1,7.2z"/>
							<path class="st2" d="M28.7,32.4c-5,9.8-8.1,20.9-8.1,31.2V79c2.1-0.3,4.5,0.3,7.1,1.7c1.9,1.1,3.7,2.6,5.3,4.4V70.7
								c0-10.3,3-21.4,8-31.2L28.7,32.4z"/>
							<path class="st3" d="M38.3,82.1V70.7c0-19.4,11.7-41.9,26.2-50.3c5.8-3.3,11.2-3.8,15.3-1.5C85,22,88,29.3,88,38.9v15
								l5.4-3.1V38.9c0-11.6-4-20.6-10.9-24.6c-5.9-3.4-13.2-2.9-20.7,1.5C45.9,25,33,49.6,33,70.7v14.4L38.3,82.1z"/>
							<path class="st0" d="M33,86.1c-0.3,0-0.5-0.1-0.7-0.3c-1.7-1.8-3.4-3.2-5.1-4.2c-2.3-1.3-4.5-1.9-6.4-1.6
								c-0.3,0-0.6-0.1-0.8-0.2c-0.2-0.2-0.3-0.5-0.3-0.8V63.6c0-21.4,13.2-46.4,29.4-55.8c7.8-4.5,15.5-5,21.7-1.5L83,13.5
								c0.5,0.3,0.6,0.9,0.4,1.4c-0.3,0.5-0.9,0.6-1.4,0.4l0,0c-5.5-3.2-12.5-2.7-19.7,1.5C46.7,25.7,34,50,34,70.7v14.4
								c0,0.4-0.3,0.8-0.6,0.9C33.2,86.1,33.1,86.1,33,86.1z M21.7,78c2.1,0,4.2,0.7,6.5,1.9c1.3,0.7,2.6,1.7,3.8,2.8v-12
								c0-21.4,13.2-46.4,29.4-55.8c4.7-2.7,9.4-4,13.7-3.8L69.8,8C64.1,4.9,57.1,5.4,50,9.5c-15.6,9-28.4,33.3-28.4,54.1L21.7,78
								C21.6,78,21.6,78,21.7,78z"/>
							<path class="st1" d="M33,86.1c-0.3,0-0.5-0.1-0.7-0.3c-1.7-1.8-3.4-3.2-5.1-4.2c-2.3-1.3-4.5-1.9-6.4-1.6
								c-0.3,0-0.6-0.1-0.8-0.2c-0.2-0.2-0.3-0.5-0.3-0.8V63.6c0-21.4,13.2-46.4,29.4-55.8c7.8-4.5,15.5-5,21.7-1.5l11.7,6.8
								c0.2,0.1,0.4,0.2,0.6,0.4l0,0c7.2,4.2,11.4,13.4,11.4,25.4v11.9c0,0.4-0.2,0.7-0.5,0.9l-5.4,3.1c-0.3,0.2-0.7,0.2-1,0
								l-12.4-7.1c-0.3-0.2-0.5-0.5-0.5-0.9v-15c0-5.1-0.9-9.6-2.5-13.1c-2.3,0.3-4.6,1.2-7.1,2.6c-14.2,8.2-25.7,30.3-25.7,49.4V82
								c0,0.4-0.2,0.7-0.5,0.9L33.5,86C33.3,86.1,33.1,86.1,33,86.1z M21.7,78c2.1,0,4.2,0.7,6.5,1.9c1.7,1,3.4,2.3,5,4l4.2-2.4
								V70.7c0-19.7,12-42.7,26.7-51.1c2.9-1.7,5.8-2.7,8.6-3c0.4,0,0.8,0.2,1,0.5c2,3.8,3.1,8.9,3.1,14.7v14.4L88,52.8l4.4-2.5
								V38.9c0-11.3-3.8-19.9-10.3-23.7l0,0H82c-0.1-0.1-0.2-0.1-0.3-0.2l-12-6.9C64.1,4.9,57.1,5.4,50,9.5
								c-15.6,9-28.4,33.3-28.4,54.1L21.7,78C21.6,78,21.6,78,21.7,78z"/>
							<g>
								<path class="st1" d="M88,38.9c0-9.7-3-16.9-8.2-19.9c-2.1-1.2-4.5-1.7-7.2-1.4c1.9,3.6,3,8.5,3,14.2v15L88,53.9l0,0V38.9z"
									/>
								<path class="st1" d="M88,54.9c-0.2,0-0.3,0-0.5-0.1l-12.4-7.1c-0.3-0.2-0.5-0.5-0.5-0.9v-15c0-5.4-1-10.2-2.9-13.7
									c-0.2-0.3-0.2-0.6,0-0.9s0.4-0.5,0.8-0.5c2.9-0.3,5.5,0.2,7.8,1.5C85.8,21.4,89,29,89,39v15c0,0.4-0.2,0.7-0.5,0.9
									C88.4,54.9,88.2,54.9,88,54.9z M76.6,46.2l10.4,6V38.9c0-9.3-2.8-16.3-7.7-19.1c-1.5-0.9-3.2-1.3-5.1-1.3
									c1.6,3.6,2.4,8.2,2.4,13.3C76.6,31.8,76.6,46.2,76.6,46.2z"/>
							</g>
						</g>
						<g>
							<g>
								<g>
									<path class="st1" d="M98.2,77.7c0-11.2-6.8-24.1-15.1-28.9c-3.8-2.2-7.3-2.3-9.9-0.8l0,0l-4.6,2.6l2.5,5.3
										C71,56.7,71,57.5,71,58.4c0,11.1,6.7,23.9,14.9,28.8l2.5,5.3L93,90l0,0C96.2,88.1,98.2,83.8,98.2,77.7z"/>
									<path class="st1" d="M88.4,93.6c-0.1,0-0.2,0-0.3,0c-0.3-0.1-0.5-0.3-0.6-0.5L85.1,88C76.6,82.7,70,69.9,70,58.5
										c0-0.8,0-1.6,0.1-2.4L67.7,51c-0.2-0.5,0-1,0.4-1.3l4.6-2.6c0,0,0.1,0,0.1-0.1c3.1-1.7,6.9-1.4,10.8,0.9
										c8.6,5,15.6,18.4,15.6,29.8c0,6.2-2.1,10.9-5.6,13.1c0,0-0.1,0-0.1,0.1l-4.6,2.6C88.7,93.6,88.6,93.6,88.4,93.6z
										 M69.9,51.1l2.1,4.5c0.1,0.2,0.1,0.3,0.1,0.5C72,56.9,72,57.7,72,58.5c0,10.7,6.5,23.2,14.4,27.9c0.2,0.1,0.3,0.3,0.4,0.4
										l2.1,4.4l3.5-2c0,0,0.1,0,0.1-0.1c3-1.7,4.7-5.9,4.7-11.4c0-10.8-6.6-23.4-14.6-28.1c-3.3-1.9-6.5-2.2-8.9-0.8
										c0,0-0.1,0-0.1,0.1L69.9,51.1z"/>
								</g>
								<path class="st3" d="M83,48.8c-3.8-2.2-7.3-2.3-9.9-0.8l0,0l-4.6,2.6l2.5,5.3c-0.1,0.8-0.1,1.6-0.1,2.5
									c0,5.1,1.4,10.5,3.7,15.4l19.9-11.5C91.7,56.5,87.6,51.4,83,48.8z"/>
								<path class="st1" d="M88.4,93.6c-0.1,0-0.2,0-0.3,0c-0.3-0.1-0.5-0.3-0.6-0.5L85.1,88C76.6,82.7,70,69.9,70,58.5
									c0-0.8,0-1.6,0.1-2.4L67.7,51c-0.2-0.5,0-1,0.4-1.3l4.6-2.6c0,0,0.1,0,0.1-0.1c3.1-1.7,6.9-1.4,10.8,0.9
									c8.6,5,15.6,18.4,15.6,29.8c0,6.2-2.1,10.9-5.6,13.1c0,0-0.1,0-0.1,0.1l-4.6,2.6C88.7,93.6,88.6,93.6,88.4,93.6z M69.9,51.1
									l2.1,4.5c0.1,0.2,0.1,0.3,0.1,0.5C72,56.9,72,57.7,72,58.5c0,10.7,6.5,23.2,14.4,27.9c0.2,0.1,0.3,0.3,0.4,0.4l2.1,4.4
									l3.5-2c0,0,0.1,0,0.1-0.1c3-1.7,4.7-5.9,4.7-11.4c0-10.8-6.6-23.4-14.6-28.1c-3.3-1.9-6.5-2.2-8.9-0.8c0,0-0.1,0-0.1,0.1
									L69.9,51.1z"/>
								
									<ellipse transform="matrix(0.9201 -0.3916 0.3916 0.9201 -21.7657 36.4505)" class="st3" cx="78.5" cy="71.6" rx="13.2" ry="23.3"/>
								<path class="st2" d="M84.5,94.7c-2.1,0-4.3-0.7-6.5-1.9c-8.6-5-15.6-18.4-15.6-29.8c0-6.2,2.1-11,5.7-13.1
									c3-1.9,6.9-1.6,10.9,0.7c8.6,5,15.6,18.4,15.6,29.8c0,6.2-2.1,11-5.7,13.1C87.5,94.3,86.1,94.7,84.5,94.7z M72.4,50.6
									c-1.2,0-2.4,0.3-3.4,0.9c-3,1.7-4.7,5.9-4.7,11.4c0,10.8,6.6,23.4,14.6,28.1c3.3,1.9,6.5,2.2,8.9,0.8
									c3-1.7,4.7-5.9,4.7-11.4C92.6,69.6,86,57,78,52.3C76,51.2,74.2,50.6,72.4,50.6z"/>
								<g>
									
										<ellipse transform="matrix(0.9201 -0.3916 0.3916 0.9201 -21.7657 36.4505)" class="st1" cx="78.5" cy="71.6" rx="7.7" ry="13.6"/>
									<path class="st1" d="M82,85.6c-1.3,0-2.6-0.4-4-1.2c-5.2-3-9.4-11-9.4-17.8c0-3.8,1.3-6.7,3.6-8c1.9-1.1,4.4-1,6.8,0.5
										c5.2,3,9.4,11,9.4,17.8c0,3.8-1.3,6.7-3.6,8C83.9,85.3,83,85.6,82,85.6z M74.9,59.7c-0.7,0-1.3,0.2-1.8,0.5
										c-1.6,0.9-2.6,3.2-2.6,6.3c0,6.2,3.8,13.4,8.4,16.1c1.8,1,3.5,1.2,4.8,0.5c1.6-0.9,2.6-3.2,2.6-6.3
										c0-6.2-3.8-13.4-8.4-16.1C76.9,60.1,75.9,59.7,74.9,59.7z"/>
								</g>
								<path class="st2" d="M78.5,59.8c-1.4-0.8-2.7-1.1-3.9-1c-1,1.3-1.5,3.3-1.5,5.8c0,6.5,4,14.1,8.9,17c1.4,0.8,2.7,1.1,3.9,1
									c1-1.3,1.5-3.3,1.5-5.8C87.3,70.2,83.4,62.6,78.5,59.8z"/>
								<path class="st3" d="M85.4,83.6c-1.3,0-2.6-0.4-4-1.2c-5.2-3-9.4-11-9.4-17.8c0-2.6,0.6-4.8,1.7-6.4
									c0.2-0.2,0.4-0.4,0.7-0.4c1.4-0.1,3,0.3,4.5,1.2l0,0c5.2,3,9.4,11,9.4,17.8c0,2.6-0.6,4.8-1.7,6.4c-0.2,0.2-0.4,0.4-0.7,0.4
									C85.7,83.5,85.6,83.6,85.4,83.6z M75.1,59.8C74.4,61,74,62.6,74,64.6c0,6.2,3.8,13.4,8.4,16.1c1,0.6,2,0.9,2.9,0.9
									c0.7-1.2,1.1-2.8,1.1-4.8c0-6.2-3.8-13.4-8.4-16.1l0,0C77,60.1,76,59.8,75.1,59.8z"/>
								<path class="st1" d="M82,85.6c-1.3,0-2.6-0.4-4-1.2c-5.2-3-9.4-11-9.4-17.8c0-3.8,1.3-6.7,3.6-8c1.9-1.1,4.4-1,6.8,0.5
									c5.2,3,9.4,11,9.4,17.8c0,3.8-1.3,6.7-3.6,8C83.9,85.3,83,85.6,82,85.6z M74.9,59.7c-0.7,0-1.3,0.2-1.8,0.5
									c-1.6,0.9-2.6,3.2-2.6,6.3c0,6.2,3.8,13.4,8.4,16.1c1.8,1,3.5,1.2,4.8,0.5c1.6-0.9,2.6-3.2,2.6-6.3c0-6.2-3.8-13.4-8.4-16.1
									C76.9,60.1,75.9,59.7,74.9,59.7z"/>
								<path class="st1" d="M84.5,94.6c-2.1,0-4.3-0.6-6.5-1.9c-8.6-5-15.6-18.4-15.6-29.8c0-6.1,2-10.8,5.6-13
									c0.1,0,0.1-0.1,0.2-0.1l4.6-2.6c0,0,0.1,0,0.1-0.1c3.1-1.7,6.9-1.4,10.8,0.9c8.6,5,15.6,18.4,15.6,29.8
									c0,6.2-2.1,10.9-5.6,13c0,0-0.1,0-0.1,0.1L89,93.5c-0.1,0-0.1,0.1-0.2,0.1C87.4,94.3,86,94.6,84.5,94.6z M69.2,51.4
									c0,0-0.1,0.1-0.2,0.1c-3,1.7-4.7,5.9-4.7,11.4c0,10.8,6.6,23.4,14.6,28.1c3.3,1.9,6.5,2.2,8.9,0.8c0.1,0,0.1-0.1,0.2-0.1
									l4.3-2.5c0,0,0.1,0,0.1-0.1c3-1.7,4.7-5.9,4.7-11.4c0-10.8-6.6-23.4-14.6-28.1c-3.3-1.9-6.5-2.2-8.9-0.8c0,0-0.1,0-0.1,0.1
									L69.2,51.4z"/>
							</g>
							<path class="st1" d="M84.5,94.7c-2.1,0-4.3-0.7-6.5-1.9c-8.6-5-15.6-18.4-15.6-29.8c0-6.2,2.1-10.9,5.6-13c0,0,0.1,0,0.1-0.1
								l4.6-2.6c0,0,0.1,0,0.1-0.1c3.1-1.7,6.9-1.4,10.8,0.9c0.3,0.2,0.6,0.3,0.9,0.5l0.3,0.2c0.2,0.1,0.4,0.3,0.6,0.4l0.3,0.2
								c0.2,0.1,0.4,0.3,0.5,0.4l0.3,0.3c0.2,0.1,0.3,0.3,0.5,0.4l0.3,0.3c0.2,0.2,0.3,0.3,0.5,0.5l0.3,0.3c0.2,0.2,0.4,0.3,0.5,0.5
								l0.2,0.3c0.2,0.2,0.4,0.4,0.5,0.6l0.2,0.2c0.2,0.2,0.4,0.5,0.6,0.7l0.1,0.2c0.2,0.3,0.5,0.6,0.7,0.9c0,0,0,0,0.1,0.1
								c1.6,2.1,3.1,4.6,4.4,7.2l0,0c2.4,5.2,3.8,10.8,3.8,15.7c0,6.2-2.1,10.9-5.6,13.1c0,0-0.1,0-0.1,0.1l-4.6,2.6
								c0,0-0.1,0-0.1,0.1C87.5,94.3,86,94.7,84.5,94.7z M69.2,51.5C69.1,51.5,69.1,51.5,69.2,51.5c-3.1,1.8-4.8,5.9-4.8,11.4
								C64.4,73.7,71,86.3,79,91c3.3,1.9,6.5,2.2,8.9,0.8c0,0,0.1,0,0.1-0.1l4.4-2.5c0,0,0.1,0,0.1-0.1c3-1.7,4.7-5.9,4.7-11.4
								c0-4.7-1.3-10-3.6-14.9l0,0c-1.2-2.5-2.6-4.9-4.2-6.9l0,0c-0.2-0.3-0.4-0.6-0.7-0.8L88.6,55c-0.2-0.3-0.4-0.5-0.6-0.7
								l-0.1-0.1c-0.2-0.2-0.4-0.4-0.6-0.6l-0.2-0.2c-0.2-0.2-0.3-0.3-0.5-0.5l-0.3-0.2c-0.2-0.1-0.3-0.3-0.5-0.4l-0.3-0.2
								c-0.2-0.1-0.3-0.3-0.5-0.4l-0.3-0.2c-0.2-0.1-0.3-0.2-0.5-0.4l-0.3-0.2c-0.2-0.1-0.4-0.2-0.5-0.4l-0.2-0.2
								c-0.3-0.2-0.5-0.3-0.8-0.5c-3.3-1.9-6.5-2.2-8.9-0.8c0,0-0.1,0-0.1,0.1L69.2,51.5z"/>
						</g>
					</g>
				</g>
				<rect x="4" y="4" class="st4" width="120" height="120"/>
				<rect x="4" y="4" class="st4" width="120" height="120"/>
			</g>
		</g>
	</g>
	<g>
		<rect class="st4" width="128" height="128"/>
	</g>
</g>
</svg>
