<?xml version="1.0" encoding="utf-8"?>
<!-- Generator: Adobe Illustrator 24.1.0, SVG Export Plug-In . SVG Version: 6.00 Build 0)  -->
<svg version="1.1" id="Layer_1" xmlns="http://www.w3.org/2000/svg" xmlns:xlink="http://www.w3.org/1999/xlink" x="0px" y="0px"
	 viewBox="0 0 128 128" style="enable-background:new 0 0 128 128;" xml:space="preserve">
<style type="text/css">
	.st0{fill:#E9EBDF;}
	.st1{fill:#4D9987;}
	.st2{fill:#FFFFFF;}
	.st3{fill:#0E352C;}
	.st4{fill:#C4D7D3;}
	.st5{fill:#27ae60;}
	.st6{fill:#185849;}
	.st7{fill:none;}
</style>
<g id="Layer_1_1_">
</g>
<g>
	<g id="Layer_2_1_">
		<g id="Industries_1_">
			<g>
				<g>
					<g>
						<g>
							<g>
								<g>
									<g>
										<g>
											<path class="st0" d="M73.7,38.8c0.2-0.6,0.3-1.3,0.4-2l10.1-14.3l-15.9-9.2l0,0c-3.3-1.9-7.7-1.8-12.5,1
												c-5.5,3.2-10.5,9.2-13.9,16.2c-3.5-3-8.4-3.2-13.9-0.1C17.5,36.6,9,52.9,9,66.9c0,3.3,0.5,6.1,1.3,8.5l0,0
												c2.8,8.7,12.3,17.2,20.8,22.1l0,0l15.9,9.2l4.4-19.1C60.2,72.7,70.8,51.4,73.7,38.8L73.7,38.8z"/>
											<path class="st1" d="M47,107.7c-0.2,0-0.3,0-0.5-0.1l-15.9-9.2c0,0,0,0-0.1,0c-7.9-4.6-18.2-13.3-21.2-22.7
												c0,0,0,0,0-0.1C8.4,73.1,8,70.1,8,66.9c0-14.3,8.8-31,19.6-37.3c5.2-3,10.3-3.2,14.1-0.6c3.7-7,8.5-12.5,13.8-15.5
												c4.8-2.8,9.6-3.2,13.3-1.1c0,0,0.1,0,0.1,0.1l15.9,9.2c0.2,0.1,0.4,0.4,0.5,0.7s0,0.6-0.2,0.8l-10,14.1
												c-0.1,0.6-0.2,1.1-0.4,1.7c0,0,0,0,0,0.1c-3,12.5-13.7,34.1-22.4,48.8l-4.4,19c-0.1,0.3-0.3,0.6-0.6,0.7
												C47.2,107.7,47.1,107.7,47,107.7z M31.7,96.7l14.6,8.4l4.1-17.8c0-0.1,0.1-0.2,0.1-0.3c8.6-14.6,19.3-35.9,22.2-48.4
												v-0.1c0.2-0.6,0.3-1.3,0.4-1.9c0-0.1,0.1-0.3,0.2-0.4l9.5-13.4L68,14.3c0,0-0.1,0-0.1-0.1c-3.1-1.8-7.2-1.5-11.5,1
												c-5.1,2.9-10,8.7-13.6,15.7c-0.1,0.3-0.4,0.5-0.7,0.5c-0.3,0.1-0.6,0-0.8-0.2c-3.3-2.8-7.8-2.8-12.8,0.1
												C18.3,37.3,10,53.2,10,66.9c0,3.1,0.4,5.8,1.3,8.2v0.1C14,83.5,23.4,91.9,31.7,96.7C31.6,96.7,31.7,96.7,31.7,96.7z"/>
										</g>
										<path class="st2" d="M76,34.2l8.3-11.7l-15.9-9.2l0,0c-3.3-1.9-7.7-1.8-12.5,1c-2.1,1.2-4.1,2.8-6,4.8L76,34.2z"/>
										<g>
											<path class="st2" d="M59,73.8c4.7-8.9,9.1-18.5,12.1-26.5L42,30.5l0,0l0,0l-3.1-1.8c-3.1-1.1-6.8-0.6-10.9,1.7
												c-5.8,3.3-10.9,9.7-14.4,17.1L59,73.8z"/>
											<path class="st2" d="M59.4,75.2L12.3,48l0.4-0.8c3.7-7.9,9.1-14.3,14.8-17.6c4.2-2.4,8.2-3,11.7-1.8l0.2,0.1l32.9,19
												L72,47.7c-2.7,7.4-7,16.8-12.1,26.6L59.4,75.2z M14.9,47.2l43.7,25.2c4.7-9,8.6-17.7,11.2-24.7l-31.3-18
												c-2.9-1-6.3-0.4-9.9,1.7C23.4,34.3,18.5,40.1,14.9,47.2z"/>
										</g>
										<g>
											<path class="st1" d="M89.6,48c0.8-3.4,1.3-6.7,1.3-10c0-14-8.5-20.5-19.1-14.4c-5.5,3.2-10.5,9.2-13.9,16.2
												c-3.5-3-8.4-3.2-13.9-0.1c-10.6,6-19.1,22.3-19.1,36.4c0,3.3,0.5,6.1,1.3,8.5l0,0c3.9,12.2,21.4,24.3,30.1,26
												c0.4,0.2,1,0.2,1.6-0.2l0,0l0,0c0.1-0.1,0.3-0.2,0.4-0.3c0,0,0.1,0,0.1-0.1c0.1-0.1,0.2-0.2,0.3-0.3l0,0l0,0
												c0.2-0.3,0.4-0.5,0.6-0.8C68.1,97.1,85.7,64.7,89.6,48L89.6,48z"/>
											<path class="st0" d="M56.9,111.7c-0.3,0-0.6-0.1-0.9-0.2c-9.5-1.9-26.9-14.6-30.8-26.7c0,0,0,0,0-0.1
												c-0.9-2.5-1.3-5.5-1.3-8.7c0-14.3,8.8-31,19.6-37.3c5.2-3,10.3-3.2,14.1-0.6c3.7-7,8.5-12.5,13.8-15.5
												c4.9-2.8,9.7-3.2,13.5-1c4.5,2.6,7.1,8.5,7.1,16.3c0,3.2-0.4,6.6-1.3,10.2c0,0,0,0,0,0.1c-4.1,17.4-22.1,50.2-30.4,61.3
												c-0.2,0.3-0.4,0.6-0.7,0.9c-0.1,0.1-0.1,0.1-0.1,0.1c-0.1,0.1-0.2,0.2-0.3,0.3c0,0-0.1,0.1-0.2,0.1
												c-0.1,0.1-0.3,0.2-0.5,0.3C57.9,111.6,57.4,111.7,56.9,111.7z M27.1,84.3c4,12.2,21.4,23.7,29.4,25.3
												c0.1,0,0.2,0,0.3,0.1s0.3,0,0.6-0.1c0.1-0.1,0.2-0.1,0.3-0.2l0.1-0.1c0,0,0.1-0.1,0.2-0.2c0,0,0,0,0.1-0.1l0,0
												c0.2-0.2,0.4-0.4,0.5-0.7c9.2-12.4,26.2-44.4,30-60.5v-0.1c0.8-3.4,1.3-6.7,1.3-9.8c0-7-2.2-12.3-6.1-14.5
												c-3.1-1.8-7.2-1.5-11.5,1c-5.1,2.9-10,8.7-13.6,15.7c-0.1,0.3-0.4,0.5-0.7,0.5c-0.3,0.1-0.6,0-0.8-0.2
												c-3.3-2.8-7.8-2.8-12.8,0.1C34.2,46.4,25.8,62.3,25.8,76C25.8,79.1,26.2,81.8,27.1,84.3C27.1,84.3,27.1,84.3,27.1,84.3z"
												/>
										</g>
										<path class="st3" d="M56.9,111.7c-0.3,0-0.6-0.1-0.9-0.2c-2.6-0.5-5.9-1.9-9.4-4h-0.1l-15.9-9.2c0,0,0,0-0.1,0
											C22.6,93.7,12.3,85,9.3,75.6c0,0,0,0,0-0.1C8.4,73.1,8,70.1,8,66.9c0-14.3,8.8-31,19.6-37.3c5.2-3,10.3-3.2,14.1-0.6
											c3.7-7,8.5-12.5,13.8-15.5c4.8-2.8,9.6-3.2,13.3-1.1c0,0,0.1,0,0.1,0.1l15.9,9.2c0,0,0.1,0,0.1,0.1c4.4,2.6,7,8.5,7,16.2
											c0,3.2-0.4,6.7-1.3,10.2c0,0,0,0,0,0.1c-4.1,17.4-22.1,50.2-30.4,61.3c-0.2,0.3-0.4,0.6-0.7,0.9c-0.1,0.1-0.1,0.1-0.1,0.1
											c-0.1,0.1-0.2,0.2-0.3,0.3c0,0-0.1,0.1-0.2,0.1c-0.1,0.1-0.3,0.2-0.5,0.3C57.9,111.6,57.4,111.7,56.9,111.7z M47.4,105.8
											C47.4,105.8,47.5,105.8,47.4,105.8c3.5,2,6.7,3.4,9.1,3.8c0.1,0,0.2,0,0.3,0.1s0.3,0,0.6-0.1c0.1-0.1,0.2-0.1,0.3-0.2
											l0.1-0.1c0,0,0.1-0.1,0.2-0.2c0,0,0,0,0.1-0.1l0,0c0.2-0.2,0.4-0.4,0.5-0.7c9.2-12.4,26.2-44.4,30-60.5v-0.1
											c0.8-3.4,1.3-6.7,1.3-9.8c0-7-2.2-12.3-6.1-14.5c0,0-0.1,0-0.1-0.1l-15.6-9c0,0-0.1,0-0.1-0.1c-3.1-1.8-7.2-1.5-11.5,1
											c-5.1,2.9-10,8.7-13.6,15.7c-0.1,0.3-0.4,0.5-0.7,0.5c-0.3,0.1-0.6,0-0.8-0.2c-3.3-2.8-7.8-2.8-12.8,0.1
											C18.3,37.3,10,53.2,10,66.9c0,3.1,0.4,5.8,1.3,8.2v0.1c2.7,8.3,12.1,16.7,20.3,21.5c0,0,0,0,0.1,0L47.4,105.8z"/>
									</g>
								</g>
							</g>
						</g>
					</g>
					<g>
						<g>
							<path class="st4" d="M107.6,58.1L107.6,58.1c-0.4-0.2-0.8-0.2-1.4,0.1l-7.3,4.2l4.8-9.2L92.9,47l0,0
								c-0.4-0.2-0.8-0.2-1.4,0.1l-9.2,5.3c-1.2,0.7-2.1,2.5-2.1,4V72c0,0.6-0.4,1.3-0.8,1.6l-11.7,6.8c-1.2,0.7-2.1,2.5-2.1,4v12.3
								c0,0.8,0.3,1.4,0.7,1.7l0,0l10.7,6.2l3.2-6.2v9.4c0,0.8,0.3,1.4,0.7,1.7l0,0l10.7,6.2l13.1-34.8l13.5-16.7L107.6,58.1z"/>
							<path class="st2" d="M98.8,64.6l1.8-3.1l-1.7,1l4.8-9.2L92.9,47l0,0c-0.4-0.2-0.8-0.2-1.4,0.1l-9.2,5.3
								c-0.6,0.3-1.1,1-1.5,1.7L98.8,64.6z"/>
							<path class="st2" d="M107.6,58.1c-0.4-0.2-0.8-0.2-1.4,0.1l-7.3,4.2l4.8-9.2l-3.5-2l-8.8,15.2l17.2,10l9.7-12L107.6,58.1
								L107.6,58.1z"/>
							<path class="st2" d="M97.4,100.4l5.5-14.5L80.1,72.7c-0.1,0.4-0.4,0.8-0.7,1l-11.7,6.8c-0.6,0.4-1.2,1-1.6,1.8L97.4,100.4z"
								/>
							<path class="st5" d="M116.9,64.4l-11.7,6.8c-0.5,0.3-0.8,0-0.8-0.6V54.9c0-1.5-0.9-2.3-2.1-1.6L93,58.6
								c-1.2,0.7-2.1,2.5-2.1,4v15.6c0,0.6-0.4,1.3-0.8,1.6l-11.7,6.8c-1.2,0.7-2.1,2.5-2.1,4V103c0,1.5,0.9,2.3,2.1,1.6l11.7-6.8
								c0.5-0.3,0.8,0,0.8,0.6V114c0,1.5,0.9,2.3,2.1,1.6l9.2-5.3c1.2-0.7,2.1-2.5,2.1-4V90.7c0-0.6,0.4-1.3,0.8-1.6l11.7-6.8
								c1.2-0.7,2.1-2.5,2.1-4V66C119,64.4,118.1,63.7,116.9,64.4z"/>
							<path class="st4" d="M92.2,116.9c-0.4,0-0.7-0.1-1-0.3c-0.8-0.5-1.2-1.4-1.2-2.6V99l-11,6.4c-0.8,0.5-1.7,0.5-2.4,0.1
								c-0.8-0.5-1.2-1.4-1.2-2.6V90.6c0-1.9,1.1-4,2.6-4.9L89.6,79c0.1-0.1,0.3-0.4,0.3-0.7V62.7c0-1.9,1.1-4,2.6-4.9l9.2-5.3
								c0.8-0.5,1.7-0.5,2.4-0.1c0.8,0.5,1.2,1.4,1.2,2.6v15l11-6.4c0.8-0.5,1.7-0.5,2.4-0.1c0.8,0.5,1.2,1.4,1.2,2.6v12.3
								c0,1.9-1.1,4-2.6,4.9l-11.7,6.8c-0.1,0.1-0.3,0.4-0.3,0.7v15.6c0,1.9-1.1,4-2.6,4.9l-9.2,5.3
								C93.1,116.8,92.6,116.9,92.2,116.9z M90.4,96.7c0.2,0,0.5,0.1,0.7,0.2c0.5,0.3,0.8,0.9,0.8,1.5V114c0,0.5,0.2,0.8,0.2,0.8
								s0.2,0,0.4-0.1l9.2-5.3c0.9-0.5,1.6-2,1.6-3.1V90.7c0-1,0.6-2,1.3-2.5l11.7-6.8c0.9-0.5,1.6-2,1.6-3.2V66
								c0-0.5-0.2-0.8-0.2-0.8s-0.2,0-0.4,0.1L105.7,72c-0.5,0.3-1.1,0.3-1.6,0s-0.8-0.9-0.8-1.5V54.9c0-0.5-0.2-0.8-0.2-0.8
								s-0.2,0-0.4,0.1l-9.2,5.3c-0.9,0.5-1.6,2-1.6,3.1v15.6c0,1-0.6,2-1.3,2.5l-11.7,6.8c-0.9,0.5-1.6,2-1.6,3.2V103
								c0,0.5,0.2,0.8,0.2,0.8s0.2,0,0.4-0.1l11.7-6.8C89.8,96.8,90.1,96.7,90.4,96.7z"/>
							<path class="st6" d="M92.2,116.9c-0.3,0-0.7-0.1-0.9-0.2h-0.1l-10.7-6.2c0,0-0.1,0-0.1-0.1c-0.7-0.5-1.1-1.4-1.1-2.5v-2.6
								l-0.3,0.2c-0.8,0.4-1.6,0.5-2.3,0.2h-0.1l-10.7-6.2c0,0-0.1,0-0.1-0.1c-0.7-0.5-1.1-1.4-1.1-2.5V84.5c0-1.2,0.4-2.5,1.2-3.5
								c0.1-0.1,0.2-0.2,0.3-0.4l0.1-0.1c0.1-0.2,0.3-0.3,0.4-0.4l0.1-0.1c0.2-0.1,0.3-0.3,0.5-0.4L79,72.8l0.1-0.1
								c0.1-0.1,0.1-0.2,0.2-0.3c0.1-0.2,0.1-0.3,0.1-0.3V56.5c0-0.9,0.3-1.9,0.7-2.8c0.2-0.4,0.5-0.8,0.8-1.2
								c0.2-0.2,0.3-0.3,0.5-0.5l0.1-0.1c0.2-0.2,0.4-0.3,0.6-0.4l9.3-5.3c0.8-0.5,1.6-0.5,2.3-0.2h0.1l10.7,6.2c0,0,0.1,0,0.1,0.1
								c0.7,0.5,1.1,1.4,1.1,2.5v2.6l0.3-0.2c0.8-0.4,1.6-0.5,2.3-0.2h0.1l10.7,6.2c0,0,0.1,0,0.1,0.1c0.7,0.5,1.1,1.4,1.1,2.5v12.3
								c0,1.9-1.1,4-2.6,4.9L106,89.8c-0.1,0.1-0.3,0.4-0.3,0.7v15.6c0,1.9-1.1,4-2.6,4.9l-9.2,5.3
								C93.1,116.8,92.6,116.9,92.2,116.9z M92.1,114.9L92.1,114.9c0.1,0.1,0.2,0,0.4-0.1l9.2-5.3c0.9-0.5,1.6-2,1.6-3.1V90.7
								c0-1,0.6-2,1.3-2.5l11.7-6.8c0.9-0.5,1.6-2,1.6-3.2V66c0-0.6-0.2-0.8-0.2-0.8s0,0-0.1,0L107.1,59c0,0,0,0-0.1,0
								c0,0-0.2,0-0.4,0.1l-1.8,1.1c-0.3,0.2-0.7,0.2-1,0s-0.5-0.5-0.5-0.9v-4.4c0-0.6-0.2-0.8-0.2-0.8s0,0-0.1,0L92.4,48
								c0,0,0,0-0.1,0c0,0-0.2,0-0.4,0.1l-9.2,5.3c-0.1,0.1-0.2,0.1-0.3,0.2c-0.1,0.1-0.2,0.2-0.3,0.3c-0.2,0.2-0.4,0.5-0.5,0.8
								c-0.3,0.6-0.5,1.3-0.5,1.8v15.6c0,0.3-0.1,0.6-0.2,1c-0.1,0.3-0.2,0.6-0.4,0.8c-0.1,0.2-0.2,0.2-0.3,0.3l-0.1,0.1
								c-0.1,0.1-0.3,0.2-0.4,0.3L68,81.4c-0.1,0-0.2,0.1-0.2,0.2c-0.1,0.1-0.2,0.2-0.3,0.3L67.4,82c-0.1,0.1-0.1,0.1-0.2,0.2
								c-0.5,0.7-0.8,1.6-0.8,2.4v12.3c0,0.6,0.2,0.8,0.2,0.8s0,0,0.1,0l10.6,6.1c0,0,0,0,0.1,0c0,0,0.2,0,0.4-0.1l1.8-1.1
								c0.3-0.2,0.7-0.2,1,0s0.5,0.5,0.5,0.9v4.4c0,0.6,0.2,0.8,0.2,0.8s0,0,0.1,0L92.1,114.9z"/>
						</g>
					</g>
				</g>
				<rect x="4" y="4" class="st7" width="120" height="120"/>
				<rect x="4" y="4" class="st7" width="120" height="120"/>
			</g>
		</g>
	</g>
	<g>
		<rect class="st7" width="128" height="128"/>
	</g>
</g>
</svg>
