<?xml version="1.0" encoding="utf-8"?>
<!-- Generator: Adobe Illustrator 24.1.0, SVG Export Plug-In . SVG Version: 6.00 Build 0)  -->
<svg version="1.1" id="Layer_1" xmlns="http://www.w3.org/2000/svg" xmlns:xlink="http://www.w3.org/1999/xlink" x="0px" y="0px"
	 viewBox="0 0 128 128" style="enable-background:new 0 0 128 128;" xml:space="preserve">
<style type="text/css">
	.st0{fill:none;}
	.st1{fill:#0E352C;}
	.st2{fill:#185849;}
	.st3{fill:#FFFFFF;}
	.st4{fill:#4D9987;}
	.st5{fill:#E9EBDF;}
	.st6{fill:#27ae60;}
	.st7{fill:#C4D7D3;}
</style>
<g id="Layer_1_1_">
</g>
<g>
	<g id="Layer_2_1_">
		<g id="Objects_1_">
			<g>
				<rect x="4" y="4" class="st0" width="120" height="120"/>
				<g>
					<g>
						<path class="st1" d="M26,41.6c-0.3,0-0.5-0.1-0.7-0.3S25,40.9,25,40.6c0-0.1,0-0.1,0-0.2c0-0.1,0-0.1,0.1-0.2
							c0-0.1,0.1-0.1,0.1-0.2c0-0.1,0.1-0.1,0.1-0.2c0.4-0.4,1-0.4,1.4,0c0,0,0.1,0.1,0.1,0.2c0,0,0.1,0.1,0.1,0.2
							c0,0.1,0,0.1,0,0.2c0,0.1,0,0.1,0,0.2c0,0.1,0,0.1,0,0.2c0,0.1,0,0.1,0,0.2c0,0.1-0.1,0.1-0.1,0.2c0,0-0.1,0.1-0.1,0.2
							C26.5,41.5,26.2,41.6,26,41.6z"/>
						<path class="st1" d="M25,53.5c0-0.5,0.4-1,1-1l0,0c0.5,0,1,0.5,1,1l0,0c0,0.6-0.5,1-1,1l0,0C25.4,54.5,25,54,25,53.5z M25,47
							c0-0.6,0.4-1,1-1l0,0c0.5,0,1,0.4,1,1l0,0c0,0.5-0.5,1-1,1l0,0C25.4,48,25,47.6,25,47z"/>
						<path class="st1" d="M26,60.9c-0.1,0-0.1,0-0.2,0s-0.1,0-0.2-0.1c-0.1,0-0.1,0-0.2-0.1c0,0-0.1-0.1-0.2-0.1
							c-0.1-0.1-0.2-0.2-0.2-0.3s-0.1-0.2-0.1-0.4c0-0.3,0.1-0.5,0.3-0.7c0.4-0.4,1-0.4,1.4,0c0,0.1,0.1,0.1,0.1,0.2
							c0,0.1,0.1,0.1,0.1,0.2c0,0.1,0,0.1,0,0.2c0,0.1,0,0.1,0,0.2c0,0.1,0,0.3-0.1,0.4c0,0.1-0.1,0.2-0.2,0.3
							C26.5,60.8,26.2,60.9,26,60.9z"/>
					</g>
					<g>
						<path class="st2" d="M102,41.6c-0.3,0-0.5-0.1-0.7-0.3c-0.1-0.1-0.2-0.2-0.2-0.3s-0.1-0.2-0.1-0.4c0-0.3,0.1-0.5,0.3-0.7
							c0.3-0.3,0.7-0.4,1.1-0.2c0.1,0,0.2,0.1,0.3,0.2c0.2,0.2,0.3,0.4,0.3,0.7c0,0.1,0,0.3-0.1,0.4c0,0.1-0.1,0.2-0.2,0.3
							s-0.2,0.2-0.3,0.2C102.3,41.5,102.2,41.6,102,41.6z"/>
						<path class="st2" d="M101,53.5c0-0.5,0.5-1,1-1l0,0c0.5,0,1,0.5,1,1l0,0c0,0.6-0.5,1-1,1l0,0C101.5,54.5,101,54,101,53.5z
							 M101,47c0-0.6,0.5-1,1-1l0,0c0.5,0,1,0.4,1,1l0,0c0,0.5-0.5,1-1,1l0,0C101.5,48,101,47.6,101,47z"/>
						<path class="st2" d="M102,60.9c-0.3,0-0.5-0.1-0.7-0.3c-0.1-0.1-0.2-0.2-0.2-0.3s-0.1-0.2-0.1-0.4c0-0.1,0-0.3,0.1-0.4
							c0.1-0.1,0.1-0.2,0.2-0.3c0.3-0.3,0.7-0.4,1.1-0.2c0.1,0,0.2,0.1,0.3,0.2c0.1,0.1,0.2,0.2,0.2,0.3s0.1,0.2,0.1,0.4
							c0,0.1,0,0.3-0.1,0.4c0,0.1-0.1,0.2-0.2,0.3s-0.2,0.2-0.3,0.2C102.3,60.9,102.2,60.9,102,60.9z"/>
					</g>
					<g>
						<g>
							<g>
								<polygon class="st3" points="102,89.6 64,67.6 26,89.5 25.9,101 64,123 102,101.1 								"/>
								<polygon class="st4" points="102,101.1 64,123 64,111.5 102,89.6 								"/>
								<polygon class="st5" points="25.9,101 64,123 64,111.5 26,89.5 								"/>
								<path class="st4" d="M83,101.5c-0.2,0-0.3,0-0.5-0.1l-19-11c-0.3-0.2-0.5-0.5-0.5-0.9s0.2-0.7,0.5-0.9l19-11
									c0.3-0.2,0.7-0.2,1,0l19,11c0.3,0.2,0.5,0.5,0.5,0.9s-0.2,0.7-0.5,0.9l-19,11C83.3,101.5,83.2,101.5,83,101.5z M66,89.5
									l17,9.9l17-9.8l-17-9.9L66,89.5z"/>
								<path class="st4" d="M83,113c-0.6,0-1-0.4-1-1v-11.5c0-0.6,0.4-1,1-1s1,0.4,1,1V112C84,112.6,83.6,113,83,113z"/>
								<path class="st4" d="M64,124L64,124c-0.6,0-1-0.4-1-1v-11.5c0-0.6,0.4-1,1-1l0,0c0.6,0,1,0.4,1,1V123
									C65,123.6,64.5,124,64,124z"/>
								<ellipse class="st4" cx="64" cy="73.2" rx="1.8" ry="1.1"/>
								<ellipse class="st4" cx="35.7" cy="89.5" rx="1.8" ry="1.1"/>
								<ellipse class="st4" cx="64" cy="105.9" rx="1.8" ry="1.1"/>
								<path class="st4" d="M64,112.5c-0.2,0-0.3,0-0.5-0.1l-38-22c-0.5-0.3-0.6-0.9-0.4-1.4c0.3-0.5,0.9-0.6,1.4-0.4L64,110.3
									l37.6-21.6c0.5-0.3,1.1-0.1,1.4,0.4s0.1,1.1-0.4,1.4l-38.1,21.9C64.3,112.4,64.1,112.5,64,112.5z"/>
								<path class="st4" d="M83,94.9c-0.2,0-0.3,0-0.5-0.1l-7.2-4.2c-0.3-0.2-0.5-0.5-0.5-0.9s0.2-0.7,0.5-0.9l7.2-4.2
									c0.3-0.2,0.7-0.2,1,0l7.2,4.2c0.3,0.2,0.5,0.5,0.5,0.9s-0.2,0.7-0.5,0.9l-7.2,4.2C83.4,94.8,83.2,94.9,83,94.9z M77.8,89.7
									l5.2,3l5.2-3l-5.2-3L77.8,89.7z"/>
								<path class="st1" d="M64,124c-0.2,0-0.3,0-0.5-0.1l-38-22c-0.3-0.2-0.5-0.5-0.5-0.9V89.5c0-0.4,0.2-0.7,0.5-0.9l38.1-21.9
									c0.3-0.2,0.7-0.2,1,0l38,22c0.3,0.2,0.5,0.5,0.5,0.9v11.5c0,0.4-0.2,0.7-0.5,0.9l-38.1,21.9C64.3,124,64.1,124,64,124z
									 M26.9,100.4l37,21.4l37.1-21.3V90.1L64,68.7L27,90L26.9,100.4z"/>
							</g>
						</g>
						<g>
							<g>
								<polygon class="st3" points="102,78.1 64,56 26,77.9 25.9,89.5 64,111.5 102,89.6 								"/>
								<polygon class="st4" points="102,89.6 64,111.5 64,100 102,78.1 								"/>
								<polygon class="st5" points="25.9,89.5 64,111.5 64,100 26,77.9 								"/>
								<path class="st4" d="M83,90c-0.2,0-0.3,0-0.5-0.1l-19-11C63.2,78.7,63,78.4,63,78s0.2-0.7,0.5-0.9l19-11
									c0.3-0.2,0.7-0.2,1,0l19,11c0.3,0.2,0.5,0.5,0.5,0.9s-0.2,0.7-0.5,0.9l-19,11C83.3,90,83.2,90,83,90z M66,78l17,9.9l17-9.8
									l-17-9.9L66,78z"/>
								<path class="st4" d="M83,101.5c-0.6,0-1-0.4-1-1V89c0-0.6,0.4-1,1-1s1,0.4,1,1v11.5C84,101.1,83.6,101.5,83,101.5z"/>
								<path class="st4" d="M64,112.5L64,112.5c-0.6,0-1-0.4-1-1V100c0-0.6,0.4-1,1-1l0,0c0.6,0,1,0.4,1,1v11.5
									C65,112,64.5,112.5,64,112.5z"/>
								<ellipse class="st4" cx="64" cy="61.7" rx="1.8" ry="1.1"/>
								<ellipse class="st4" cx="35.7" cy="78" rx="1.8" ry="1.1"/>
								<ellipse class="st4" cx="64" cy="94.3" rx="1.8" ry="1.1"/>
								<path class="st4" d="M64,101c-0.2,0-0.3,0-0.5-0.1l-38-22c-0.5-0.3-0.6-0.9-0.4-1.4c0.3-0.5,0.9-0.6,1.4-0.4L64,98.8
									l37.6-21.6c0.5-0.3,1.1-0.1,1.4,0.4s0.1,1.1-0.4,1.4l-38.1,21.9C64.3,100.9,64.1,101,64,101z"/>
								<path class="st4" d="M83,83.3c-0.2,0-0.3,0-0.5-0.1L75.3,79c-0.3-0.2-0.5-0.5-0.5-0.9s0.2-0.7,0.5-0.9l7.2-4.2
									c0.3-0.2,0.7-0.2,1,0l7.2,4.2c0.3,0.2,0.5,0.5,0.5,0.9S91,78.8,90.7,79l-7.2,4.2C83.4,83.3,83.2,83.3,83,83.3z M77.8,78.2
									l5.2,3l5.2-3l-5.2-3L77.8,78.2z"/>
								<path class="st1" d="M64,112.5c-0.2,0-0.3,0-0.5-0.1l-38-22c-0.3-0.2-0.5-0.5-0.5-0.9V78c0-0.4,0.2-0.7,0.5-0.9l38.1-21.9
									c0.3-0.2,0.7-0.2,1,0l38,22c0.3,0.2,0.5,0.5,0.5,0.9v11.5c0,0.4-0.2,0.7-0.5,0.9l-38.1,21.9C64.3,112.4,64.1,112.5,64,112.5
									z M26.9,88.9l37,21.4L101,89V78.6L64,57.2L27,78.5L26.9,88.9z"/>
							</g>
						</g>
						<g>
							<g>
								<polygon class="st3" points="102,66.5 64,44.5 26,66.4 25.9,77.9 64,100 102,78.1 								"/>
								<polygon class="st4" points="102,78.1 64,100 64,88.4 102,66.5 								"/>
								<polygon class="st5" points="25.9,77.9 64,100 64,88.4 26,66.4 								"/>
								<path class="st4" d="M83,78.5c-0.2,0-0.3,0-0.5-0.1l-19-11c-0.3-0.2-0.5-0.5-0.5-0.9s0.2-0.7,0.5-0.9l19-11
									c0.3-0.2,0.7-0.2,1,0l19,11c0.3,0.2,0.5,0.5,0.5,0.9s-0.2,0.7-0.5,0.9l-19,11C83.3,78.4,83.2,78.5,83,78.5z M66,66.5l17,9.9
									l17-9.8l-17-9.9L66,66.5z"/>
								<path class="st4" d="M83,90c-0.6,0-1-0.4-1-1V77.5c0-0.6,0.4-1,1-1s1,0.4,1,1V89C84,89.6,83.6,90,83,90z"/>
								<path class="st4" d="M64,101L64,101c-0.6,0-1-0.4-1-1V88.5c0-0.6,0.4-1,1-1l0,0c0.6,0,1,0.4,1,1V100
									C65,100.5,64.5,101,64,101z"/>
								<ellipse class="st4" cx="64" cy="50.2" rx="1.8" ry="1.1"/>
								<ellipse class="st4" cx="35.7" cy="66.4" rx="1.8" ry="1.1"/>
								<ellipse class="st4" cx="64" cy="82.8" rx="1.8" ry="1.1"/>
								<path class="st4" d="M64,89.4c-0.2,0-0.3,0-0.5-0.1l-38-22c-0.5-0.3-0.6-0.9-0.4-1.4c0.3-0.5,0.9-0.6,1.4-0.4L64,87.3
									l37.6-21.6c0.5-0.3,1.1-0.1,1.4,0.4s0.1,1.1-0.4,1.4L64.5,89.3C64.3,89.4,64.1,89.4,64,89.4z"/>
								<path class="st4" d="M83,71.8c-0.2,0-0.3,0-0.5-0.1l-7.2-4.2c-0.3-0.2-0.5-0.5-0.5-0.9s0.2-0.7,0.5-0.9l7.2-4.2
									c0.3-0.2,0.7-0.2,1,0l7.2,4.2c0.3,0.2,0.5,0.5,0.5,0.9s-0.2,0.7-0.5,0.9l-7.2,4.2C83.4,71.8,83.2,71.8,83,71.8z M77.8,66.6
									l5.2,3l5.2-3l-5.2-3L77.8,66.6z"/>
								<path class="st1" d="M64,101c-0.2,0-0.3,0-0.5-0.1l-38-22C25.2,78.7,25,78.4,25,78V66.5c0-0.4,0.2-0.7,0.5-0.9l38.1-21.9
									c0.3-0.2,0.7-0.2,1,0l38,22c0.3,0.2,0.5,0.5,0.5,0.9v11.5c0,0.4-0.2,0.7-0.5,0.9l-38.1,21.9C64.3,100.9,64.1,101,64,101z
									 M26.9,77.4l37,21.4L101,77.5V67.1L64,45.7L27,67L26.9,77.4z"/>
							</g>
						</g>
					</g>
					<g>
						<path class="st3" d="M101.5,25.8c0.8,0.5,0.8,1.2,0,1.7L64.9,48.7c-0.8,0.5-2.1,0.5-2.9,0L26.6,28.3c-0.8-0.5-0.8-1.2,0-1.7
							L63.2,5.3c0.8-0.5,2.1-0.5,2.9,0L101.5,25.8z"/>
					</g>
					<path class="st6" d="M63.4,55.1c0.5,0,1-0.1,1.4-0.3l36.6-21.3c0.4-0.2,0.6-0.5,0.6-0.8v-6.1c0,0.3-0.2,0.6-0.6,0.8L64.9,48.7
						C64.5,48.9,64,49,63.5,49L63.4,55.1z"/>
					<path class="st7" d="M63.4,49.1c-0.5,0-1-0.1-1.4-0.3L26.6,28.3c-0.4-0.2-0.6-0.5-0.6-0.8v6.1c0,0.3,0.2,0.6,0.6,0.8L62,54.8
						c0.4,0.2,0.9,0.3,1.4,0.3"/>
					<path class="st6" d="M32.5,31.7l-5.9-3.4c-0.4-0.2-0.6-0.5-0.6-0.8v6.1c0,0.3,0.2,0.6,0.6,0.8l6,3.4L32.5,31.7L32.5,31.7z"/>
					<path class="st1" d="M32.5,32.7c-0.3,0-0.7-0.2-0.9-0.5c-0.3-0.5-0.1-1.1,0.4-1.4L71.5,7.9c0.5-0.3,1.1-0.1,1.4,0.4
						s0.1,1.1-0.4,1.4L33,32.6C32.9,32.6,32.7,32.7,32.5,32.7z"/>
					<g>
						<g>
							<path class="st3" d="M63.2,5.3c0.8-0.5,2.1-0.5,2.9,0l35.4,20.4c0.8,0.5,0.8,1.2,0,1.7L64.9,48.7c-0.8,0.5-2.1,0.5-2.9,0
								l-29.5-17"/>
							<path class="st6" d="M63.4,50.1c-0.7,0-1.4-0.2-1.9-0.5L32,32.6c-0.5-0.3-0.6-0.9-0.4-1.4c0.3-0.5,0.9-0.6,1.4-0.4l29.5,17
								c0.5,0.3,1.4,0.3,1.9,0l36.5-21.2L65.5,6.2c-0.5-0.3-1.4-0.3-1.9,0s-1.1,0.1-1.4-0.4c-0.3-0.5-0.1-1.1,0.4-1.4
								c1.1-0.6,2.8-0.6,3.9,0L102,24.9c0.7,0.4,1.1,1,1.1,1.7s-0.4,1.3-1.1,1.7L65.4,49.6C64.8,49.9,64.1,50.1,63.4,50.1z"/>
						</g>
					</g>
					<path class="st6" d="M32.5,38.8c-0.6,0-1-0.4-1-1v-6c0-0.6,0.4-1,1-1c0.6,0,1,0.4,1,1v6C33.5,38.3,33.1,38.8,32.5,38.8z"/>
					<path class="st7" d="M66,5.3c-0.8-0.5-2.1-0.5-2.9,0L26.6,26.6c-0.8,0.5-0.8,1.2,0,1.7l5.9,3.4l39.4-23L66,5.3z"/>
					<path class="st6" d="M32.5,32.7c-0.2,0-0.3,0-0.5-0.1l-5.9-3.4c-0.7-0.4-1.1-1-1.1-1.7s0.4-1.3,1.1-1.7L62.7,4.5
						c1.1-0.6,2.8-0.6,3.9,0l5.9,3.4C72.8,8.1,73,8.4,73,8.8s-0.2,0.7-0.5,0.9L33,32.6C32.9,32.7,32.7,32.7,32.5,32.7z M27.1,27.5
						l5.4,3.1L70,8.8l-4.4-2.5l0,0c-0.5-0.3-1.4-0.3-1.9,0L27.1,27.5z"/>
					<g>
						<path class="st2" d="M40.3,23.2c-0.6-0.3-0.6-0.8,0-1.2c0.6-0.3,1.5-0.3,2,0c0.6,0.3,0.6,0.8,0,1.2
							C41.8,23.5,40.9,23.5,40.3,23.2z"/>
					</g>
					<g>
						<path class="st2" d="M36.3,25.5c-0.6-0.3-0.6-0.8,0-1.2c0.6-0.3,1.5-0.3,2,0c0.6,0.3,0.6,0.8,0,1.2
							C37.7,25.8,36.8,25.8,36.3,25.5z"/>
					</g>
					<g>
						<path class="st2" d="M32.2,27.9c-0.6-0.3-0.6-0.8,0-1.2c0.6-0.3,1.5-0.3,2,0c0.6,0.3,0.6,0.8,0,1.2
							C33.7,28.2,32.8,28.2,32.2,27.9z"/>
					</g>
					<path class="st2" d="M63.4,56.1c-0.7,0-1.4-0.2-1.9-0.5L26.1,35.2c-0.7-0.4-1.1-1-1.1-1.7v-6.1l0,0c0-0.7,0.4-1.3,1.1-1.7
						L62.7,4.5c1.1-0.6,2.8-0.6,3.9,0L102,24.9c0.7,0.4,1.1,1,1.1,1.6c0,0,0,0,0,0.1v6.1c0,0.7-0.4,1.3-1.1,1.7L65.4,55.7
						C64.8,56,64.1,56.1,63.4,56.1z M27,33.4L27,33.4l35.5,20.5c0.5,0.3,1.4,0.3,1.9,0L101,32.6c0,0,0.1,0,0.1-0.1v-5.9
						c0,0-0.1,0-0.1-0.1l0,0L65.5,6.2c-0.5-0.3-1.4-0.3-1.9,0L27.1,27.5c0,0-0.1,0-0.1,0.1V33.4z M26.9,33.4L26.9,33.4L26.9,33.4z
						 M27,27.5L27,27.5L27,27.5z M101.1,26.6L101.1,26.6L101.1,26.6z"/>
					<g>
						<polygon class="st6" points="75.8,23 67.4,27.9 59,23 67.4,18.2 						"/>
						<polygon class="st6" points="86.4,29.1 78,34 69.6,29.1 78,24.3 						"/>
						<polygon class="st6" points="65.2,29.1 56.8,34 48.4,29.1 56.8,24.3 						"/>
						<polygon class="st6" points="75.8,35.3 67.4,40.1 59,35.3 67.4,30.4 						"/>
					</g>
				</g>
			</g>
		</g>
	</g>
	<g>
		<rect class="st0" width="128" height="128"/>
	</g>
</g>
</svg>
