<?xml version="1.0" encoding="utf-8"?>
<!-- Generator: Adobe Illustrator 24.1.0, SVG Export Plug-In . SVG Version: 6.00 Build 0)  -->
<svg version="1.1" id="Layer_1" xmlns="http://www.w3.org/2000/svg" xmlns:xlink="http://www.w3.org/1999/xlink" x="0px" y="0px"
	 viewBox="0 0 128 128" style="enable-background:new 0 0 128 128;" xml:space="preserve">
<style type="text/css">
	.st0{fill:none;}
	.st1{fill:#FFFFFF;}
	.st2{fill:#27ae60;}
	.st3{fill:#C4D7D3;}
	.st4{fill:#185849;}
	.st5{fill:#E9EBDF;}
	.st6{fill:#4D9987;}
	.st7{fill:#0E352C;}
	.st8{clip-path:url(#SVGID_2_);}
</style>
<g id="Layer_1_1_">
</g>
<g>
	<g id="Layer_2_1_">
		<g id="New_Illustrations_1_">
			<g>
				<g>
					<rect x="4" y="4" class="st0" width="120" height="120"/>
				</g>
				<g>
					<g>
						<g>
							<g>
								<g>
									<g>
										<path class="st1" d="M37.6,31.7l15.8-9.1c0.3-0.2,0.7-0.2,1,0l15.8,9.1l-15.8,9.1c-0.3,0.2-0.7,0.2-1,0L37.6,31.7z"/>
										<path class="st2" d="M53.9,41.9c-0.4,0-0.7-0.1-1-0.3l-15.8-9.1c-0.3-0.2-0.5-0.5-0.5-0.9s0.2-0.7,0.5-0.9l15.8-9.1
											c0.6-0.3,1.4-0.3,2,0l15.8,9.1c0.3,0.2,0.5,0.5,0.5,0.9s-0.2,0.7-0.5,0.9l-15.8,9.1C54.6,41.9,54.3,41.9,53.9,41.9z
											 M39.6,31.7L53.9,40l14.3-8.3l-14.3-8.3L39.6,31.7z"/>
									</g>
									<g>
										<path class="st3" d="M53.9,103.4c-0.2,0-0.4,0-0.5-0.1l-15.8-36V31.7l15.8,9.1c0.2,0.1,0.3,0.1,0.5,0.1"/>
										<path class="st2" d="M53.9,104.4c-0.4,0-0.7-0.1-1-0.3c-0.2-0.1-0.3-0.3-0.4-0.5l-15.8-36c-0.1-0.1-0.1-0.3-0.1-0.4V31.7
											c0-0.4,0.2-0.7,0.5-0.9c0.3-0.2,0.7-0.2,1,0l15.8,9.1c0.6,0,1,0.5,1,1c0,0.6-0.4,1-1,1c-0.4,0-0.7-0.1-1-0.3l-14.3-8.2V67
											l15.5,35.4c0.4,0.1,0.8,0.5,0.8,1S54.5,104.4,53.9,104.4z"/>
									</g>
									<g>
										<path class="st2" d="M53.9,40.9c0.2,0,0.4,0,0.5-0.1l15.8-9.1v62.4l-15.8,9.1c-0.2,0.1-0.3,0.1-0.5,0.1L53.9,40.9z"/>
										<path class="st2" d="M53.9,104.4c-0.6,0-1-0.4-1-1V40.9c0-0.6,0.4-1,1-1l0,0l15.8-9.1c0.3-0.2,0.7-0.2,1,0
											s0.5,0.5,0.5,0.9v62.4c0,0.4-0.2,0.7-0.5,0.9L55,104.1C54.6,104.3,54.3,104.4,53.9,104.4z M54.9,41.7v60.1l14.3-8.3V33.4
											L54.9,41.7C55,41.7,54.9,41.7,54.9,41.7z"/>
									</g>
									<path class="st4" d="M53.9,104.4c-0.4,0-0.7-0.1-1-0.3c-0.2-0.1-0.3-0.3-0.4-0.5l-15.8-36c-0.1-0.1-0.1-0.3-0.1-0.4V31.7
										c0-0.4,0.2-0.7,0.5-0.9l15.8-9.1c0.6-0.3,1.4-0.3,2,0l15.8,9.1c0.3,0.2,0.5,0.5,0.5,0.9v62.4c0,0.4-0.2,0.7-0.5,0.9
										L55,104.1C54.6,104.3,54.3,104.4,53.9,104.4z M38.6,67L54,102.2l15.2-8.7V32.3l-15.3-8.8l-15.3,8.8V67z"/>
								</g>
							</g>
							<g>
								<g>
									<path class="st1" d="M21.3,59l15.8-9.1c0.3-0.2,0.7-0.2,1,0L53.9,59l-15.8,9.1c-0.3,0.2-0.7,0.2-1,0L21.3,59z"/>
									<g>
										<path class="st5" d="M37.6,112.8c-0.2,0-0.4,0-0.5-0.1L21.3,94.6V59l15.8,9.1c0.2,0.1,0.3,0.1,0.5,0.1"/>
										<path class="st6" d="M37.6,113.8c-0.4,0-0.7-0.1-1-0.3c-0.1-0.1-0.2-0.1-0.3-0.2L20.6,95.2c-0.2-0.2-0.2-0.4-0.2-0.7V59
											c0-0.4,0.2-0.7,0.5-0.9s0.7-0.2,1,0l15.8,9.1c0.6,0,1,0.5,1,1c0,0.6-0.4,1-1,1c-0.4,0-0.7-0.1-1-0.3l-14.3-8.2v33.4
											l15.4,17.6c0.5,0,0.9,0.5,0.9,1C38.6,113.3,38.2,113.8,37.6,113.8z"/>
									</g>
									<g>
										<path class="st6" d="M37.6,68.3c0.2,0,0.4,0,0.5-0.1L53.9,59v44.5l-15.8,9.1c-0.2,0.1-0.3,0.1-0.5,0.1L37.6,68.3z"/>
										<path class="st6" d="M37.6,113.8c-0.6,0-1-0.4-1-1V68.3c0-0.6,0.4-1,1-1l0,0l15.8-9.1c0.3-0.2,0.7-0.2,1,0
											s0.5,0.5,0.5,0.9v44.5c0,0.4-0.2,0.7-0.5,0.9l-15.8,9.1C38.3,113.7,38,113.8,37.6,113.8z M38.6,69v42.2l14.3-8.3V60.8
											L38.6,69L38.6,69z"/>
									</g>
									<path class="st7" d="M37.6,113.8c-0.4,0-0.7-0.1-1-0.3c-0.1-0.1-0.2-0.1-0.3-0.2L20.6,95.2c-0.2-0.2-0.2-0.4-0.2-0.7V59
										c0-0.4,0.2-0.7,0.5-0.9L36.6,49c0.6-0.3,1.4-0.3,2,0l15.8,9.1c0.3,0.2,0.5,0.5,0.5,0.9v44.5c0,0.4-0.2,0.7-0.5,0.9
										l-15.8,9.1C38.3,113.7,38,113.8,37.6,113.8z M22.3,94.2l15.3,17.6l15.3-8.8V59.6l-15.3-8.8l-15.3,8.8V94.2z"/>
								</g>
							</g>
						</g>
						<g>
							<path class="st1" d="M5,86.4l15.8-9.1c0.3-0.2,0.7-0.2,1,0l15.8,9.1l-15.8,9.1c-0.3,0.2-0.7,0.2-1,0L5,86.4z"/>
							<g>
								<path class="st5" d="M21.3,122.2c-0.2,0-0.4,0-0.5-0.1L5,113V86.4l15.8,9.1c0.2,0.1,0.3,0.1,0.5,0.1"/>
								<path class="st6" d="M21.3,123.2c-0.4,0-0.7-0.1-1-0.3l-15.8-9.1C4.2,113.6,4,113.3,4,113V86.4c0-0.4,0.2-0.7,0.5-0.9
									c0.3-0.2,0.7-0.2,1,0l15.8,9.1c0.6,0,1,0.5,1,1c0,0.6-0.4,1-1,1c-0.4,0-0.7-0.1-1-0.3L6,88.1v24.3l15.3,8.8c0.6,0,1,0.5,1,1
									S21.9,123.2,21.3,123.2z"/>
							</g>
							<g>
								<path class="st6" d="M21.3,95.6c0.2,0,0.4,0,0.5-0.1l15.8-9.1V113l-15.8,9.1c-0.2,0.1-0.3,0.1-0.5,0.1V95.6z"/>
								<path class="st6" d="M21.3,123.2c-0.6,0-1-0.4-1-1V95.6c0-0.6,0.4-1,1-1l0,0l15.8-9.1c0.3-0.2,0.7-0.2,1,0s0.5,0.5,0.5,0.9
									V113c0,0.4-0.2,0.7-0.5,0.9L22.3,123C22,123.1,21.7,123.2,21.3,123.2z M22.3,96.4v24.3l14.3-8.3V88.1L22.3,96.4L22.3,96.4z"
									/>
							</g>
							<path class="st7" d="M21.3,123.2c-0.4,0-0.7-0.1-1-0.3l-15.8-9.1C4.2,113.6,4,113.3,4,113V86.4c0-0.4,0.2-0.7,0.5-0.9
								l15.8-9.1c0.6-0.3,1.4-0.3,2,0l15.8,9.1c0.3,0.2,0.5,0.5,0.5,0.9V113c0,0.4-0.2,0.7-0.5,0.9L22.3,123
								C22,123.1,21.7,123.2,21.3,123.2z M6,112.4l15.3,8.8l15.3-8.8V86.9l-15.3-8.8L6,86.9V112.4z"/>
						</g>
					</g>
					<g>
						<g>
							<path class="st5" d="M121.4,60.4L121.4,60.4L76.5,34.5l-5.2,9.1l44.9,25.9l0,0l0,0c1.8,1,4.5-0.1,5.9-2.6
								C123.5,64.3,123.2,61.5,121.4,60.4z"/>
							<path class="st6" d="M117.6,70.8c-0.6,0-1.2-0.1-1.8-0.4c-0.1,0-0.1,0-0.2-0.1L70.8,44.4c-0.2-0.1-0.4-0.4-0.5-0.6
								s0-0.5,0.1-0.8l5.2-9.1c0.3-0.5,0.9-0.6,1.4-0.4l44.9,25.9c0.1,0,0.1,0.1,0.1,0.1c2.2,1.4,2.6,4.8,0.9,7.7
								C121.7,69.5,119.6,70.8,117.6,70.8z M116.6,68.5C116.6,68.5,116.7,68.5,116.6,68.5c0.7,0.4,1.5,0.4,2.3,0.1
								c0.9-0.4,1.8-1.2,2.3-2.2c1.1-2,1-4.3-0.3-5l-0.1-0.1L76.9,35.8l-4.2,7.3L116.6,68.5z"/>
						</g>
						<path class="st1" d="M121.4,60.4L121.4,60.4l-41.6-24l-2.6,4.5l41,23.7c2.3,1.3,5-1.1,3.9-3.5
							C121.9,60.8,121.7,60.6,121.4,60.4z"/>
						<path class="st7" d="M117.6,70.8c-0.6,0-1.2-0.1-1.8-0.4c-0.1,0-0.1,0-0.2-0.1L70.8,44.4c-0.2-0.1-0.4-0.4-0.5-0.6
							s0-0.5,0.1-0.8l5.2-9.1c0.3-0.5,0.9-0.6,1.4-0.4l44.9,25.9c0.1,0,0.1,0.1,0.1,0.1c2.2,1.4,2.6,4.8,0.9,7.7
							C121.7,69.5,119.6,70.8,117.6,70.8z M116.6,68.5C116.6,68.5,116.7,68.5,116.6,68.5c0.7,0.4,1.5,0.4,2.3,0.1
							c0.9-0.4,1.8-1.2,2.3-2.2c1.1-2,1-4.3-0.3-5l-0.1-0.1L76.9,35.8l-4.2,7.3L116.6,68.5z"/>
						<g>
							<path class="st6" d="M93,42L93,42l-12-7l-7.1,12.2l12.1,7l0,0l0,0c2.5,1.4,6-0.2,8-3.5C95.8,47.3,95.4,43.4,93,42z"/>
							<path class="st6" d="M87.9,55.7c-0.8,0-1.6-0.2-2.3-0.6c-0.1,0-0.1,0-0.2-0.1l-12.1-7c-0.2-0.1-0.4-0.4-0.5-0.6
								s0-0.5,0.1-0.8L80,34.5c0.3-0.5,0.9-0.6,1.4-0.4l12.1,7c0.1,0,0.1,0.1,0.2,0.1c2.8,1.8,3.3,6.2,1.1,9.9
								C93.1,54,90.4,55.7,87.9,55.7z M86.2,53.2c0.1,0,0.1,0,0.2,0.1c2,1.1,4.9-0.3,6.6-3.2c1.6-2.8,1.4-6.2-0.5-7.3
								c-0.1,0-0.1-0.1-0.1-0.1l-11-6.4l-6.1,10.5L86.2,53.2z"/>
						</g>
						<path class="st5" d="M93,42L93,42l-8.5-5L81,43l7.7,4.4c3,1.8,6.7-1.5,5.1-4.6C93.6,42.5,93.3,42.2,93,42z"/>
						<path class="st7" d="M87.9,55.7c-0.8,0-1.6-0.2-2.3-0.6c-0.1,0-0.1,0-0.2-0.1l-12.1-7c-0.2-0.1-0.4-0.4-0.5-0.6s0-0.5,0.1-0.8
							L80,34.5c0.3-0.5,0.9-0.6,1.4-0.4l12.1,7c0.1,0,0.1,0.1,0.2,0.1c2.8,1.8,3.3,6.2,1.1,9.9C93.1,54,90.4,55.7,87.9,55.7z
							 M86.2,53.2c0.1,0,0.1,0,0.2,0.1c2,1.1,4.9-0.3,6.6-3.2c1.6-2.8,1.4-6.2-0.5-7.3c-0.1,0-0.1-0.1-0.1-0.1l-11-6.4l-6.1,10.5
							L86.2,53.2z"/>
						<path class="st5" d="M86.6,12l-8.5-4.9l0,0c-3.4-2-7.9-1.8-12.8,1C54.7,14.3,45.9,31,45.9,45.4c0,7.9,2.6,13.4,6.7,15.8l0,0
							l8.5,4.9l1.3-4.5c1-0.4,2-0.8,3-1.4C76.2,54,84.9,37.3,84.9,22.9c0-2.7-0.3-5.1-0.9-7.2L86.6,12z"/>
						<path class="st1" d="M78.2,7.1L78.2,7.1c-3.4-2-7.9-1.8-12.8,1c-5.9,3.4-11.2,9.9-14.7,17.5l29.5,17c3-6.3,4.8-13.3,4.8-19.8
							c0-2.7-0.3-5.1-0.9-7.2l2.6-3.7L78.2,7.1z"/>
						<path class="st2" d="M61.1,67c-0.2,0-0.3,0-0.5-0.1L52.2,62c0,0-0.1,0-0.1-0.1c-4.5-2.7-7.1-8.7-7.1-16.6
							c0-14.7,9-31.8,20-38.1c5-2.9,9.8-3.2,13.6-1.1c0,0,0.1,0,0.1,0.1l8.5,4.9c0.2,0.1,0.4,0.4,0.5,0.6c0.1,0.3,0,0.6-0.2,0.8
							l-2.3,3.4c0.5,2.1,0.8,4.5,0.8,7c0,14.7-9,31.8-20,38.1c-0.9,0.5-1.8,1-2.7,1.3l-1.2,4c-0.1,0.3-0.3,0.5-0.6,0.6
							C61.4,67,61.3,67,61.1,67z M53.3,60.3l7.2,4.2l0.9-3.3c0.1-0.3,0.3-0.5,0.6-0.7c0.9-0.3,1.9-0.8,2.8-1.4
							c10.5-6,19-22.4,19-36.4c0-2.5-0.3-4.8-0.8-6.9c-0.1-0.3,0-0.6,0.1-0.8l2-2.8L77.8,8c0,0-0.1,0-0.1-0.1
							c-3.2-1.9-7.4-1.5-11.8,1c-10.5,6-19,22.4-19,36.4c0,7.2,2.3,12.6,6.2,14.9C53.2,60.3,53.3,60.3,53.3,60.3z"/>
						<path class="st2" d="M73.9,40c-0.2,0-0.3,0-0.5-0.1L64.9,35c-0.5-0.3-0.6-0.9-0.4-1.4c0.3-0.5,0.9-0.6,1.4-0.4l8.5,4.9
							c0.5,0.3,0.6,0.9,0.4,1.4C74.6,39.8,74.2,40,73.9,40z"/>
						<g>
							
								<ellipse transform="matrix(0.3916 -0.9201 0.9201 0.3916 9.088 91.7163)" class="st6" cx="73.9" cy="39" rx="29.9" ry="16.9"/>
							<path class="st6" d="M66.1,68.3c-2,0-3.8-0.5-5.5-1.4c-4.6-2.7-7.2-8.7-7.2-16.6c0-14.7,9-31.8,20-38.1c5-2.9,9.9-3.3,13.8-1
								c4.6,2.7,7.2,8.7,7.2,16.6c0,14.7-9,31.8-20,38.1C71.5,67.5,68.7,68.3,66.1,68.3z M81.6,11.7c-2.3,0-4.7,0.7-7.2,2.2
								c-10.5,6-19,22.4-19,36.4c0,7.2,2.3,12.6,6.2,14.9c3.2,1.9,7.4,1.5,11.8-1c10.5-6,19-22.4,19-36.4c0-7.2-2.3-12.6-6.2-14.9
								C84.8,12.1,83.3,11.7,81.6,11.7z"/>
						</g>
						<path class="st5" d="M67.5,61.8c-5.5,0-9.1-5.3-9.1-13.5c0-11.6,7.1-25.2,15.8-30.2c2.1-1.2,4.2-1.8,6.1-1.8
							c5.5,0,9.1,5.3,9.1,13.5c0,11.6-7.1,25.2-15.8,30.2C71.4,61.2,69.4,61.8,67.5,61.8z"/>
						<path class="st1" d="M85.5,45.7L62.3,32.3c-2.4,5.1-3.9,10.7-3.9,16c0,8.2,3.6,13.5,9.1,13.5c1.9,0,4-0.6,6.1-1.8
							C78.3,57.2,82.6,51.9,85.5,45.7z"/>
						<path class="st7" d="M67.5,62.8c-6.1,0-10.1-5.7-10.1-14.5c0-12,7.3-25.9,16.3-31.1c2.3-1.3,4.5-2,6.6-2
							c6.1,0,10.1,5.7,10.1,14.5c0,12-7.3,25.9-16.3,31.1C71.8,62.1,69.6,62.8,67.5,62.8z M80.3,17.2c-1.7,0-3.6,0.6-5.6,1.7
							C66.3,23.8,59.4,37,59.4,48.3c0,7.6,3.2,12.5,8.1,12.5c1.7,0,3.6-0.6,5.6-1.7c8.4-4.9,15.3-18,15.3-29.4
							C88.4,22.1,85.2,17.2,80.3,17.2z"/>
						<path class="st7" d="M66.1,68.3c-1.9,0-3.8-0.5-5.4-1.4c0,0-0.1,0-0.1-0.1L52.2,62c0,0-0.1,0-0.1-0.1
							c-4.5-2.7-7.1-8.7-7.1-16.6c0-8.7,3.2-18.6,8.5-26.7c0.2-0.4,0.4-0.7,0.7-1l0.1-0.2c0.2-0.3,0.4-0.5,0.6-0.8l0.2-0.3
							c0.2-0.3,0.4-0.5,0.6-0.7l0.2-0.3c0.2-0.2,0.4-0.5,0.6-0.7l0.2-0.3c0.6-0.7,1.2-1.4,1.9-2.1l0.4-0.4c0.1-0.1,0.2-0.2,0.3-0.3
							l0.1-0.1c0.2-0.2,0.3-0.3,0.5-0.4l0.4-0.4c0.2-0.2,0.3-0.3,0.5-0.5c0.1-0.1,0.3-0.2,0.4-0.4c0.2-0.1,0.3-0.3,0.5-0.4L62,9.2
							c0.2-0.1,0.4-0.3,0.6-0.4L63,8.5c0.2-0.1,0.4-0.3,0.6-0.4l0.3-0.2c0.3-0.2,0.7-0.4,1-0.6c5-2.9,9.8-3.2,13.6-1.1
							c0,0,0.1,0,0.1,0.1l8.5,4.9c0,0,0.1,0,0.1,0.1c4.5,2.7,7.1,8.7,7.1,16.6c0,14.7-9,31.8-20,38.1C71.5,67.5,68.7,68.3,66.1,68.3
							z M61.5,65.1C61.5,65.1,61.6,65.1,61.5,65.1c3.3,2,7.5,1.6,11.9-0.9c10.5-6,19-22.4,19-36.4c0-7.2-2.3-12.6-6.2-14.9
							c0,0-0.1,0-0.1-0.1L77.8,8c0,0-0.1,0-0.1-0.1c-3.2-1.9-7.4-1.5-11.8,1c-0.3,0.2-0.6,0.4-0.9,0.6l-0.3,0.2
							c-0.2,0.1-0.4,0.3-0.6,0.4l-0.4,0.3c-0.2,0.1-0.4,0.3-0.5,0.4l-0.3,0.3c-0.2,0.2-0.4,0.3-0.5,0.4L62,11.8
							c-0.2,0.1-0.3,0.3-0.5,0.4l-0.4,0.4c-0.1,0.1-0.3,0.2-0.4,0.4l-0.8,0.8c-0.6,0.6-1.2,1.3-1.8,2L57.9,16
							c-0.2,0.2-0.4,0.4-0.5,0.7L57.1,17c-0.2,0.2-0.4,0.5-0.5,0.7l-0.2,0.2c-0.2,0.3-0.4,0.5-0.6,0.8l-0.1,0.2
							c-0.2,0.3-0.4,0.6-0.6,0.9c-5.2,7.8-8.2,17.3-8.2,25.6c0,7.2,2.3,12.6,6.2,14.9c0,0,0.1,0,0.1,0.1L61.5,65.1z"/>
						<path class="st1" d="M74.2,18.1c-8.7,5-15.8,18.6-15.8,30.2c0,3.4,0.6,6.3,1.7,8.5c1.6-0.2,3.2-0.8,5-1.8
							c8.7-5,15.8-18.6,15.8-30.2c0-3.4-0.6-6.3-1.7-8.5C77.6,16.5,75.9,17.1,74.2,18.1z"/>
						<g>
							<g>
								<defs>
									<path id="SVGID_1_" d="M74.2,18.1c-8.7,5-15.8,18.6-15.8,30.2c0,3.4,0.6,6.3,1.7,8.5c1.6-0.2,3.2-0.8,5-1.8
										c8.7-5,15.8-18.6,15.8-30.2c0-3.4-0.6-6.3-1.7-8.5C77.6,16.5,75.9,17.1,74.2,18.1z"/>
								</defs>
								<clipPath id="SVGID_2_">
									<use xlink:href="#SVGID_1_"  style="overflow:visible;"/>
								</clipPath>
								<g class="st8">
									<g>
										<g>
											<path class="st1" d="M41.3,31.7l14-8.1c0.2-0.1,0.6-0.1,0.9,0l14,8.1l-14,8.1c-0.2,0.1-0.6,0.1-0.9,0L41.3,31.7z"/>
											<path class="st2" d="M55.8,40.9c-0.3,0-0.7-0.1-0.9-0.2l-14-8.1c-0.3-0.2-0.5-0.5-0.5-0.9s0.2-0.7,0.5-0.9l14-8.1
												c0.6-0.3,1.3-0.3,1.9,0l14,8.1c0.3,0.2,0.5,0.5,0.5,0.9s-0.2,0.7-0.5,0.9l-14,8.1C56.5,40.8,56.1,40.9,55.8,40.9z
												 M43.3,31.7l12.5,7.2l12.4-7.2l-12.5-7.2L43.3,31.7z"/>
										</g>
										<g>
											<path class="st1" d="M55.8,94c-0.2,0-0.3,0-0.5-0.1l-14-4.9V31.7l14,8.1c0.1,0.1,0.3,0.1,0.5,0.1"/>
											<path class="st2" d="M55.8,95c-0.3,0-0.6-0.1-0.9-0.2L41,89.9c-0.4-0.1-0.7-0.5-0.7-0.9V31.7c0-0.4,0.2-0.7,0.5-0.9
												c0.3-0.2,0.7-0.2,1,0l14,8.1c0.6,0,1,0.4,1,1s-0.5,1-1,1c-0.3,0-0.7-0.1-1-0.3l-12.5-7.2v54.8l13.3,4.7
												c0.1,0,0.1,0,0.2,0.1c0.6,0,1,0.4,1,1S56.3,95,55.8,95z"/>
										</g>
										<g>
											<path class="st1" d="M55.8,39.9c0.2,0,0.3,0,0.5-0.1l14-8.1v54.1l-14,8.1c-0.2,0-0.3,0.1-0.5,0.1V39.9z"/>
											<path class="st2" d="M55.8,95c-0.6,0-1-0.4-1-1V39.9c0-0.5,0.4-1,1-1l14-8.1c0.3-0.2,0.7-0.2,1,0s0.5,0.5,0.5,0.9v54.1
												c0,0.4-0.2,0.7-0.5,0.9l-14,8.1C56.5,94.9,56.1,95,55.8,95z M56.8,40.6v51.8l12.5-7.2V33.4L56.8,40.6z"/>
										</g>
									</g>
								</g>
							</g>
						</g>
						<path class="st7" d="M60.1,57.8c-0.4,0-0.7-0.2-0.9-0.6c-1.2-2.4-1.8-5.5-1.8-9c0-12,7.3-25.9,16.3-31.1
							c1.8-1,3.6-1.7,5.3-1.9c0.4-0.1,0.8,0.2,1,0.5c1.2,2.4,1.8,5.5,1.8,9c0,12-7.3,25.9-16.3,31.1c-1.8,1-3.6,1.7-5.3,1.9
							C60.2,57.8,60.2,57.8,60.1,57.8z M78.6,17.4c-1.2,0.3-2.5,0.8-3.9,1.5l0,0C66.3,23.8,59.4,37,59.4,48.3c0,2.8,0.5,5.4,1.3,7.4
							c1.2-0.3,2.5-0.8,3.9-1.5c8.4-4.9,15.3-18.1,15.3-29.4C79.9,22,79.4,19.4,78.6,17.4z M74.2,18.1L74.2,18.1L74.2,18.1z"/>
					</g>
				</g>
			</g>
		</g>
	</g>
	<g>
		<rect class="st0" width="128" height="128"/>
	</g>
</g>
</svg>
