<?xml version="1.0" encoding="utf-8"?>
<!-- Generator: Adobe Illustrator 24.1.0, SVG Export Plug-In . SVG Version: 6.00 Build 0)  -->
<svg version="1.1" id="Layer_1" xmlns="http://www.w3.org/2000/svg" xmlns:xlink="http://www.w3.org/1999/xlink" x="0px" y="0px"
	 viewBox="0 0 128 128" style="enable-background:new 0 0 128 128;" xml:space="preserve">
<style type="text/css">
	.st0{fill:#C4D7D3;}
	.st1{fill:#FFFFFF;}
	.st2{fill:#27ae60;}
	.st3{fill:#185849;}
	.st4{fill:#E9EBDF;}
	.st5{fill:#4D9987;}
	.st6{fill:#0E352C;}
	.st7{fill:none;}
</style>
<g id="Layer_1_1_">
</g>
<g>
	<g id="Layer_2_1_">
		<g id="Layer_6_1_">
			<g>
				<g>
					<g>
						<g>
							<polygon class="st0" points="83.1,32.3 33.6,60.9 5,44.3 54.4,15.8 							"/>
							<path class="st1" d="M33.6,61.9c-0.2,0-0.3,0-0.5-0.1L4.5,45.2C4.2,45,4,44.7,4,44.3s0.2-0.7,0.5-0.9l49.4-28.5
								c0.3-0.2,0.7-0.2,1,0l28.6,16.5c0.3,0.2,0.5,0.5,0.5,0.9s-0.2,0.7-0.5,0.9L34.1,61.7C34,61.8,33.8,61.9,33.6,61.9z M7,44.3
								l26.6,15.4L81,32.3L54.4,17L7,44.3z"/>
						</g>
						<g>
							<path class="st2" d="M14.2,49.7L14.2,49.7c5.1-2.9,5.1-7.7,0-10.6L5,44.3L14.2,49.7z"/>
							<path class="st2" d="M14.2,50.7c-0.2,0-0.3,0-0.5-0.1l-9.2-5.3C4.2,45,4,44.7,4,44.3s0.2-0.7,0.5-0.9l9.2-5.3
								c0.3-0.2,0.7-0.2,1,0c2.8,1.6,4.3,3.8,4.3,6.2s-1.5,4.6-4.3,6.2C14.5,50.6,14.4,50.7,14.2,50.7z M7,44.3l7.2,4.1
								c1.8-1.2,2.8-2.6,2.8-4.1s-1-3-2.8-4.1L7,44.3z"/>
						</g>
						<g>
							<path class="st2" d="M45.2,21.1c5.1,2.9,13.3,2.9,18.4,0l-9.2-5.3L45.2,21.1z"/>
							<path class="st2" d="M54.4,24.3c-3.5,0-7-0.8-9.7-2.3c-0.3-0.2-0.5-0.5-0.5-0.9s0.2-0.7,0.5-0.9l9.2-5.3c0.3-0.2,0.7-0.2,1,0
								l9.2,5.3c0.3,0.2,0.5,0.5,0.5,0.9s-0.2,0.7-0.5,0.9C61.5,23.5,57.9,24.3,54.4,24.3z M47.4,21c4.2,1.7,9.9,1.7,14.1,0l-7.1-4
								L47.4,21z"/>
						</g>
						<g>
							<path class="st2" d="M73.9,27c-5.1,2.9-5.1,7.7,0,10.6l9.2-5.3L73.9,27z"/>
							<path class="st2" d="M73.9,38.6c-0.2,0-0.3,0-0.5-0.1c-2.8-1.6-4.3-3.8-4.3-6.2s1.5-4.6,4.3-6.2c0.3-0.2,0.7-0.2,1,0l9.2,5.3
								c0.3,0.2,0.5,0.5,0.5,0.9s-0.2,0.7-0.5,0.9l-9.2,5.3C74.2,38.6,74,38.6,73.9,38.6z M73.9,28.2c-1.8,1.2-2.8,2.6-2.8,4.1
								c0,1.5,1,3,2.8,4.1l7.2-4.1L73.9,28.2z"/>
						</g>
						<g>
							<path class="st2" d="M33.6,60.9l9.2-5.3l0,0c-5.1-2.9-13.3-2.9-18.4,0l0,0L33.6,60.9z"/>
							<path class="st2" d="M33.6,61.9c-0.2,0-0.3,0-0.5-0.1l-9.2-5.3c-0.3-0.2-0.5-0.5-0.5-0.9s0.2-0.7,0.5-0.9
								c5.3-3.1,14-3.1,19.4,0c0.3,0.2,0.5,0.5,0.5,0.9s-0.2,0.7-0.5,0.9l-9.2,5.3C34,61.8,33.8,61.9,33.6,61.9z M26.6,55.6l7.1,4.1
								l7.1-4.1C36.5,53.9,30.8,53.9,26.6,55.6z"/>
						</g>
						<g>
							<polygon class="st2" points="83.1,32.3 83.1,60.6 33.6,89.1 33.6,60.9 							"/>
							<path class="st1" d="M33.6,90.1c-0.2,0-0.3,0-0.5-0.1c-0.3-0.2-0.5-0.5-0.5-0.9V60.9c0-0.4,0.2-0.7,0.5-0.9l49.4-28.5
								c0.3-0.2,0.7-0.2,1,0S84,32,84,32.4v28.3c0,0.4-0.2,0.7-0.5,0.9L34.1,90C34,90.1,33.8,90.1,33.6,90.1z M34.6,61.4v26L82.1,60
								V34L34.6,61.4z"/>
						</g>
						<path class="st3" d="M33.6,83.1c-0.3,0-0.7-0.2-0.9-0.5c-0.3-0.5-0.1-1.1,0.4-1.4l49.4-28.5c0.5-0.3,1.1-0.1,1.4,0.4
							s0.1,1.1-0.4,1.4L34.1,83C34,83.1,33.8,83.1,33.6,83.1z"/>
						<path class="st3" d="M33.6,76.1c-0.3,0-0.7-0.2-0.9-0.5c-0.3-0.5-0.1-1.1,0.4-1.4l49.4-28.5c0.5-0.3,1.1-0.1,1.4,0.4
							s0.1,1.1-0.4,1.4L34.1,76C34,76.1,33.8,76.1,33.6,76.1z"/>
						<g>
							<polygon class="st0" points="5,44.3 5,72.6 33.6,89.1 33.6,60.9 							"/>
							<path class="st1" d="M33.6,90.1c-0.2,0-0.3,0-0.5-0.1L4.5,73.5C4.2,73.3,4,73,4,72.6V44.3c0-0.4,0.2-0.7,0.5-0.9s0.7-0.2,1,0
								L34.1,60c0.3,0.2,0.5,0.5,0.5,0.9v28.3c0,0.4-0.2,0.7-0.5,0.9C34,90.1,33.8,90.1,33.6,90.1z M6,72l26.6,15.4v-26L6,46.1V72z"
								/>
						</g>
						<path class="st2" d="M33.6,83.1c-0.2,0-0.3,0-0.5-0.1L4.5,66.5c-0.5-0.3-0.6-0.9-0.4-1.4c0.3-0.5,0.9-0.6,1.4-0.4l28.6,16.5
							c0.5,0.3,0.6,0.9,0.4,1.4C34.3,83,34,83.1,33.6,83.1z"/>
						<path class="st2" d="M33.6,76.1c-0.2,0-0.3,0-0.5-0.1L4.5,59.5c-0.5-0.3-0.6-0.9-0.4-1.4c0.3-0.5,0.9-0.6,1.4-0.4l28.6,16.5
							c0.5,0.3,0.6,0.9,0.4,1.4C34.3,76,34,76.1,33.6,76.1z"/>
						<path class="st3" d="M33.6,69.1c-0.3,0-0.7-0.2-0.9-0.5c-0.3-0.5-0.1-1.1,0.4-1.4l49.4-28.5c0.5-0.3,1.1-0.1,1.4,0.4
							s0.1,1.1-0.4,1.4L34.1,69C34,69.1,33.8,69.1,33.6,69.1z"/>
						<path class="st2" d="M33.6,69.1c-0.2,0-0.3,0-0.5-0.1L4.5,52.5c-0.5-0.3-0.6-0.9-0.4-1.4c0.3-0.5,0.9-0.6,1.4-0.4l28.6,16.5
							c0.5,0.3,0.6,0.9,0.4,1.4C34.3,69,34,69.1,33.6,69.1z"/>
						<path class="st1" d="M33.6,90.1c-0.2,0-0.3,0-0.5-0.1L4.5,73.5C4.2,73.3,4,73,4,72.6V44.3c0-0.4,0.2-0.7,0.5-0.9s0.7-0.2,1,0
							L34.1,60c0.3,0.2,0.5,0.5,0.5,0.9v28.3c0,0.4-0.2,0.7-0.5,0.9C34,90.1,33.8,90.1,33.6,90.1z M6,72l26.6,15.4v-26L6,46.1V72z"
							/>
						<g>
							<polygon class="st4" points="63.4,43.7 53.3,49.5 24.7,33 34.8,27.2 							"/>
							<path class="st1" d="M53.3,50.5c-0.2,0-0.3,0-0.5-0.1L24.2,33.9c-0.3-0.2-0.5-0.5-0.5-0.9s0.2-0.7,0.5-0.9l10.1-5.9
								c0.3-0.2,0.7-0.2,1,0l28.6,16.5c0.3,0.2,0.5,0.5,0.5,0.9s-0.2,0.7-0.5,0.9l-10.1,5.9C53.6,50.5,53.4,50.5,53.3,50.5z
								 M26.7,33l26.6,15.4l8.1-4.7L34.8,28.3L26.7,33z"/>
						</g>
						<g>
							<polygon class="st5" points="63.4,71.8 53.3,77.7 53.3,49.5 63.4,43.7 							"/>
							<path class="st1" d="M53.3,78.7c-0.2,0-0.3,0-0.5-0.1c-0.3-0.2-0.5-0.5-0.5-0.9V49.5c0-0.4,0.2-0.7,0.5-0.9l10.1-5.9
								c0.3-0.2,0.7-0.2,1,0c0.3,0.2,0.5,0.5,0.5,0.9v28.1c0,0.4-0.2,0.7-0.5,0.9l-10.1,5.9C53.6,78.6,53.4,78.7,53.3,78.7z
								 M54.3,50.1v25.8l8.1-4.7V45.4L54.3,50.1z M63.4,71.8L63.4,71.8L63.4,71.8z"/>
						</g>
						<path class="st3" d="M33.6,90.1c-0.2,0-0.3,0-0.5-0.1L4.5,73.5C4.2,73.3,4,73,4,72.6V44.3c0-0.4,0.2-0.7,0.5-0.9l49.4-28.5
							c0.3-0.2,0.7-0.2,1,0l28.6,16.5c0.3,0.2,0.5,0.5,0.5,0.9v28.3c0,0.4-0.2,0.7-0.5,0.9L34.1,90C34,90.1,33.8,90.1,33.6,90.1z
							 M6,72l27.6,16L82,60V32.9L54.4,17L6,44.9V72z"/>
						<path class="st6" d="M53.3,78.7c-0.2,0-0.3,0-0.5-0.1c-0.3-0.2-0.5-0.5-0.5-0.9V50.1L24.2,33.9c-0.3-0.2-0.5-0.5-0.5-0.9
							s0.2-0.7,0.5-0.9l10.1-5.9c0.3-0.2,0.7-0.2,1,0l28.6,16.5c0.3,0.2,0.5,0.5,0.5,0.9v28.1c0,0.4-0.2,0.7-0.5,0.9l-10.1,5.9
							C53.6,78.6,53.4,78.7,53.3,78.7z M26.7,33l27.1,15.7c0.3,0.2,0.5,0.5,0.5,0.9V76l8.1-4.7v-27l-27.6-16L26.7,33z"/>
					</g>
					<g>
						<g>
							<polygon class="st0" points="123,62.4 73.6,90.9 44.9,74.4 94.4,45.9 							"/>
							<path class="st1" d="M73.6,91.9c-0.2,0-0.3,0-0.5-0.1L44.4,75.3c-0.3-0.2-0.5-0.5-0.5-0.9s0.2-0.7,0.5-0.9L93.9,45
								c0.3-0.2,0.7-0.2,1,0l28.6,16.5c0.3,0.2,0.5,0.5,0.5,0.9s-0.2,0.7-0.5,0.9L74.1,91.8C73.9,91.9,73.7,91.9,73.6,91.9z
								 M46.9,74.4l26.6,15.4L121,62.4L94.4,47L46.9,74.4z"/>
						</g>
						<g>
							<path class="st2" d="M54.1,79.7L54.1,79.7c5.1-2.9,5.1-7.7,0-10.6l-9.2,5.3L54.1,79.7z"/>
							<path class="st2" d="M54.1,80.7c-0.2,0-0.3,0-0.5-0.1l-9.2-5.3c-0.3-0.2-0.5-0.5-0.5-0.9s0.2-0.7,0.5-0.9l9.2-5.3
								c0.3-0.2,0.7-0.2,1,0c2.8,1.6,4.3,3.8,4.3,6.2s-1.5,4.6-4.3,6.2C54.5,80.7,54.3,80.7,54.1,80.7z M46.9,74.4l7.2,4.1
								c1.8-1.2,2.8-2.6,2.8-4.1s-1-3-2.8-4.1L46.9,74.4z"/>
						</g>
						<g>
							<path class="st2" d="M85.2,51.2c5.1,2.9,13.3,2.9,18.4,0l-9.2-5.3L85.2,51.2z"/>
							<path class="st2" d="M94.4,54.4c-3.5,0-7-0.8-9.7-2.3c-0.3-0.2-0.5-0.5-0.5-0.9s0.2-0.7,0.5-0.9l9.2-5.3c0.3-0.2,0.7-0.2,1,0
								l9.2,5.3c0.3,0.2,0.5,0.5,0.5,0.9s-0.2,0.7-0.5,0.9C101.4,53.6,97.9,54.4,94.4,54.4z M87.3,51.1c4.2,1.7,9.9,1.7,14.1,0
								l-7-4.1L87.3,51.1z"/>
						</g>
						<g>
							<path class="st2" d="M113.8,57.1c-5.1,2.9-5.1,7.7,0,10.6l9.2-5.3L113.8,57.1z"/>
							<path class="st2" d="M113.8,68.7c-0.2,0-0.3,0-0.5-0.1c-2.8-1.6-4.3-3.8-4.3-6.2s1.5-4.6,4.3-6.2c0.3-0.2,0.7-0.2,1,0
								l9.2,5.3c0.3,0.2,0.5,0.5,0.5,0.9s-0.2,0.7-0.5,0.9l-9.2,5.3C114.2,68.7,114,68.7,113.8,68.7z M113.8,58.2
								c-1.8,1.2-2.8,2.6-2.8,4.1s1,3,2.8,4.1l7.2-4.1L113.8,58.2z"/>
						</g>
						<g>
							<path class="st2" d="M73.6,90.9l9.2-5.3l0,0c-5.1-2.9-13.3-2.9-18.4,0l0,0L73.6,90.9z"/>
							<path class="st2" d="M73.6,91.9c-0.2,0-0.3,0-0.5-0.1l-9.2-5.3c-0.3-0.2-0.5-0.5-0.5-0.9s0.2-0.7,0.5-0.9
								c5.3-3.1,14-3.1,19.4,0c0.3,0.2,0.5,0.5,0.5,0.9s-0.2,0.7-0.5,0.9l-9.2,5.3C73.9,91.9,73.7,91.9,73.6,91.9z M66.5,85.7
								l7.1,4.1l7.1-4.1C76.4,84,70.7,84,66.5,85.7z"/>
						</g>
						<g>
							<polygon class="st2" points="123,62.4 123,83.7 73.6,112.2 73.6,90.9 							"/>
							<path class="st1" d="M73.6,113.2c-0.2,0-0.3,0-0.5-0.1c-0.3-0.2-0.5-0.5-0.5-0.9V90.9c0-0.4,0.2-0.7,0.5-0.9l49.4-28.5
								c0.3-0.2,0.7-0.2,1,0s0.5,0.5,0.5,0.9v21.3c0,0.4-0.2,0.7-0.5,0.9l-49.4,28.5C73.9,113.1,73.7,113.2,73.6,113.2z M74.6,91.5
								v19L122,83.1v-19L74.6,91.5z"/>
						</g>
						<path class="st3" d="M73.6,106.2c-0.3,0-0.7-0.2-0.9-0.5c-0.3-0.5-0.1-1.1,0.4-1.4l49.4-28.5c0.5-0.3,1.1-0.1,1.4,0.4
							s0.1,1.1-0.4,1.4l-49.4,28.5C73.9,106.2,73.7,106.2,73.6,106.2z"/>
						<path class="st3" d="M73.6,99.2c-0.3,0-0.7-0.2-0.9-0.5c-0.3-0.5-0.1-1.1,0.4-1.4l49.4-28.5c0.5-0.3,1.1-0.1,1.4,0.4
							s0.1,1.1-0.4,1.4L74.1,99.1C73.9,99.2,73.7,99.2,73.6,99.2z"/>
						<g>
							<polygon class="st0" points="44.9,74.4 44.9,95.7 73.6,112.2 73.6,90.9 							"/>
							<path class="st1" d="M73.6,113.2c-0.2,0-0.3,0-0.5-0.1L44.4,96.5c-0.3-0.2-0.5-0.5-0.5-0.9V74.4c0-0.4,0.2-0.7,0.5-0.9
								c0.3-0.2,0.7-0.2,1,0L74,90c0.3,0.2,0.5,0.5,0.5,0.9v21.3c0,0.4-0.2,0.7-0.5,0.9C73.9,113.1,73.7,113.2,73.6,113.2z
								 M45.9,95.1l26.6,15.4v-19L45.9,76.1V95.1z"/>
						</g>
						<path class="st2" d="M73.6,106.2c-0.2,0-0.3,0-0.5-0.1L44.4,89.5c-0.5-0.3-0.6-0.9-0.4-1.4c0.3-0.5,0.9-0.6,1.4-0.4L74,104.2
							c0.5,0.3,0.6,0.9,0.4,1.4C74.2,106,73.9,106.2,73.6,106.2z"/>
						<path class="st2" d="M73.6,99.2c-0.2,0-0.3,0-0.5-0.1L44.4,82.5c-0.5-0.3-0.6-0.9-0.4-1.4c0.3-0.5,0.9-0.6,1.4-0.4L74,97.2
							c0.5,0.3,0.6,0.9,0.4,1.4C74.2,99,73.9,99.2,73.6,99.2z"/>
						<path class="st1" d="M73.6,113.2c-0.2,0-0.3,0-0.5-0.1L44.4,96.5c-0.3-0.2-0.5-0.5-0.5-0.9V74.4c0-0.4,0.2-0.7,0.5-0.9
							c0.3-0.2,0.7-0.2,1,0L74,90c0.3,0.2,0.5,0.5,0.5,0.9v21.3c0,0.4-0.2,0.7-0.5,0.9C73.9,113.1,73.7,113.2,73.6,113.2z
							 M45.9,95.1l26.6,15.4v-19L45.9,76.1V95.1z"/>
						<g>
							<polygon class="st4" points="103.3,73.7 93.2,79.6 64.6,63.1 74.7,57.2 							"/>
							<path class="st1" d="M93.2,80.6c-0.2,0-0.3,0-0.5-0.1L64.1,63.9c-0.3-0.2-0.5-0.5-0.5-0.9s0.2-0.7,0.5-0.9l10.1-5.9
								c0.3-0.2,0.7-0.2,1,0l28.6,16.5c0.3,0.2,0.5,0.5,0.5,0.9s-0.2,0.7-0.5,0.9l-10.1,5.9C93.6,80.5,93.4,80.6,93.2,80.6z
								 M66.6,63.1l26.6,15.4l8.1-4.7L74.7,58.4L66.6,63.1z"/>
						</g>
						<g>
							<polygon class="st5" points="103.3,94.9 93.2,100.7 93.2,79.6 103.3,73.7 							"/>
							<path class="st1" d="M93.2,101.7c-0.2,0-0.3,0-0.5-0.1c-0.3-0.2-0.5-0.5-0.5-0.9V79.6c0-0.4,0.2-0.7,0.5-0.9l10.1-5.9
								c0.3-0.2,0.7-0.2,1,0s0.5,0.5,0.5,0.9v21.1c0,0.4-0.2,0.7-0.5,0.9l-10.1,5.9C93.6,101.7,93.4,101.7,93.2,101.7z M94.2,80.2
								V99l8.1-4.7V75.5L94.2,80.2z M103.3,94.9L103.3,94.9L103.3,94.9z"/>
						</g>
						<path class="st3" d="M73.6,113.2c-0.2,0-0.3,0-0.5-0.1L44.4,96.5c-0.3-0.2-0.5-0.5-0.5-0.9V74.4c0-0.4,0.2-0.7,0.5-0.9
							L93.9,45c0.3-0.2,0.7-0.2,1,0l28.6,16.5c0.3,0.2,0.5,0.5,0.5,0.9v21.3c0,0.4-0.2,0.7-0.5,0.9l-49.4,28.5
							C73.9,113.1,73.7,113.2,73.6,113.2z M45.9,95.1L73.6,111L122,83V63L94.4,47L45.9,75V95.1z"/>
						<path class="st6" d="M93.2,101.7c-0.2,0-0.3,0-0.5-0.1c-0.3-0.2-0.5-0.5-0.5-0.9V80.2L64.1,63.9c-0.3-0.2-0.5-0.5-0.5-0.9
							s0.2-0.7,0.5-0.9l10.1-5.9c0.3-0.2,0.7-0.2,1,0l28.6,16.5c0.3,0.2,0.5,0.5,0.5,0.9v21.1c0,0.4-0.2,0.7-0.5,0.9l-10.1,5.9
							C93.6,101.7,93.4,101.7,93.2,101.7z M66.6,63.1l27.1,15.7c0.3,0.2,0.5,0.5,0.5,0.9V99l8.1-4.7v-20L74.7,58.4L66.6,63.1z"/>
					</g>
				</g>
				<rect x="4" y="4" class="st7" width="120" height="120"/>
			</g>
		</g>
	</g>
	<g>
		<rect class="st7" width="128" height="128"/>
	</g>
</g>
</svg>
