<?xml version="1.0" encoding="utf-8"?>
<!-- Generator: Adobe Illustrator 24.1.0, SVG Export Plug-In . SVG Version: 6.00 Build 0)  -->
<svg version="1.1" id="Layer_1" xmlns="http://www.w3.org/2000/svg" xmlns:xlink="http://www.w3.org/1999/xlink" x="0px" y="0px"
	 viewBox="0 0 128 128" style="enable-background:new 0 0 128 128;" xml:space="preserve">
<style type="text/css">
	.st0{fill:#E9EBDF;}
	.st1{fill:#4D9987;}
	.st2{fill:#FFFFFF;}
	.st3{fill:#0E352C;}
	.st4{fill:#185849;}
	.st5{fill:#C4D7D3;}
	.st6{fill:#27ae60;}
	.st7{fill:none;}
</style>
<g id="Layer_1_1_">
</g>
<g>
	<g id="Layer_2_1_">
		<g id="Tech_Concepts_1_">
			<g>
				<g>
					<g>
						<g>
							<g>
								<polygon class="st0" points="64,99 94.8,81.2 64,63.4 								"/>
								<path class="st1" d="M64,100c-0.2,0-0.3,0-0.5-0.1C63.2,99.7,63,99.4,63,99V63.4c0-0.4,0.2-0.7,0.5-0.9s0.7-0.2,1,0
									l30.8,17.8c0.3,0.2,0.5,0.5,0.5,0.9s-0.2,0.7-0.5,0.9L64.5,99.9C64.3,100,64.2,100,64,100z M65,65.2v32.1l27.8-16.1L65,65.2
									z"/>
							</g>
							<polygon class="st1" points="64,63.4 74.7,92.8 64,99 							"/>
							<g>
								<polygon class="st1" points="64,99 33.2,81.2 64,63.4 								"/>
								<path class="st1" d="M64,100c-0.2,0-0.3,0-0.5-0.1L32.7,82.1c-0.3-0.2-0.5-0.5-0.5-0.9s0.2-0.7,0.5-0.9l30.8-17.8
									c0.3-0.2,0.7-0.2,1,0S65,63,65,63.4V99c0,0.4-0.2,0.7-0.5,0.9C64.3,100,64.2,100,64,100z M35.2,81.2L63,97.3V65.2L35.2,81.2
									z"/>
							</g>
							<g>
								<polygon class="st2" points="64,87.4 33.2,105.2 64,123 94.8,105.2 								"/>
								<path class="st1" d="M64,124c-0.2,0-0.3,0-0.5-0.1l-30.8-17.8c-0.3-0.2-0.5-0.5-0.5-0.9s0.2-0.7,0.5-0.9l30.8-17.8
									c0.3-0.2,0.7-0.2,1,0l30.8,17.8c0.3,0.2,0.5,0.5,0.5,0.9s-0.2,0.7-0.5,0.9l-30.8,17.8C64.3,124,64.2,124,64,124z
									 M35.2,105.2L64,121.8l28.8-16.6L64,88.6L35.2,105.2z"/>
							</g>
							<g>
								<path class="st0" d="M33.2,81.2v24L64,123V99L33.2,81.2z"/>
								<path class="st1" d="M64,124c-0.2,0-0.3,0-0.5-0.1l-30.8-17.8c-0.3-0.2-0.5-0.5-0.5-0.9v-24c0-0.4,0.2-0.7,0.5-0.9
									c0.3-0.2,0.7-0.2,1,0l30.8,17.8c0.3,0.2,0.5,0.5,0.5,0.9v24c0,0.4-0.2,0.7-0.5,0.9C64.3,124,64.2,124,64,124z M34.2,104.6
									L63,121.3V99.6L34.2,83V104.6z"/>
							</g>
							<g>
								<polygon class="st1" points="94.8,105.2 64,123 64,99 94.8,81.2 								"/>
								<path class="st1" d="M64,124c-0.2,0-0.3,0-0.5-0.1c-0.3-0.2-0.5-0.5-0.5-0.9V99c0-0.4,0.2-0.7,0.5-0.9l30.8-17.8
									c0.3-0.2,0.7-0.2,1,0s0.5,0.5,0.5,0.9v24c0,0.4-0.2,0.7-0.5,0.9l-30.8,17.8C64.3,124,64.2,124,64,124z M65,99.6v21.7
									l28.8-16.6V83L65,99.6z M94.8,105.2L94.8,105.2L94.8,105.2z"/>
							</g>
							<g>
								<polygon class="st2" points="94.8,81.2 109.3,82.6 78.5,100.4 64,99 								"/>
								<path class="st1" d="M78.5,101.4C78.5,101.4,78.4,101.4,78.5,101.4L63.9,100c-0.4,0-0.8-0.4-0.9-0.8
									c-0.1-0.4,0.1-0.9,0.5-1.1l30.8-17.8c0.2-0.1,0.4-0.1,0.6-0.1l14.5,1.3c0.4,0,0.8,0.4,0.9,0.8s-0.1,0.9-0.5,1.1L79,101.2
									C78.8,101.3,78.7,101.4,78.5,101.4z M67.2,98.3l11,1L106,83.2l-11-1L67.2,98.3z"/>
							</g>
							<g>
								<polygon class="st2" points="64,63.4 49.5,48 18.7,65.8 33.2,81.2 								"/>
								<path class="st1" d="M33.2,82.2c-0.3,0-0.5-0.1-0.7-0.3L18,66.5c-0.2-0.2-0.3-0.5-0.3-0.8s0.2-0.6,0.5-0.7L49,47.2
									c0.4-0.2,0.9-0.2,1.2,0.2l14.5,15.4c0.2,0.2,0.3,0.5,0.3,0.8s-0.2,0.6-0.5,0.7L33.7,82.1C33.5,82.2,33.3,82.2,33.2,82.2z
									 M20.3,66.1L33.4,80l29-16.8L49.3,49.3L20.3,66.1z"/>
							</g>
							<g>
								<path class="st1" d="M53.7,103.5c0,1.1-0.7,1.6-1.5,1.1l-7.3-4.2c-0.8-0.5-1.5-1.8-1.5-2.9v-1.1c0-1.1,0.7-1.6,1.5-1.1
									l7.3,4.2c0.8,0.5,1.5,1.8,1.5,2.9V103.5z"/>
								<path class="st1" d="M52.8,105.3c-0.3,0-0.6-0.1-0.8-0.2l-7.3-4.2c-1-0.6-1.7-2-1.7-3.3v-1.1c0-0.8,0.3-1.4,0.8-1.6
									c0.4-0.2,1-0.2,1.5,0.1l7.3,4.2c1,0.6,1.7,2,1.7,3.3v1.1c0,0.8-0.3,1.4-0.8,1.6C53.3,105.3,53,105.3,52.8,105.3z M44.3,95.6
									L44.3,95.6c-0.2,0.1-0.4,0.3-0.4,0.8v1.1c0,0.9,0.6,2,1.2,2.4l7.3,4.2c0.1,0.1,0.3,0.2,0.5,0.1c0.1-0.1,0.3-0.3,0.3-0.8
									v-1.1c0-0.9-0.6-2-1.2-2.4l-7.3-4.2C44.6,95.7,44.5,95.6,44.3,95.6z"/>
							</g>
							<g>
								<path class="st1" d="M84.6,85.7c0,1.1-0.7,1.6-1.5,1.1l-7.3-4.2c-0.8-0.5-1.5-1.8-1.5-2.9v-1.1c0-1.1,0.7-1.6,1.5-1.1
									l7.3,4.2c0.8,0.5,1.5,1.8,1.5,2.9V85.7z"/>
								<path class="st1" d="M83.7,87.5c-0.3,0-0.6-0.1-0.8-0.2l-7.3-4.2c-1-0.6-1.7-2-1.7-3.3v-1.1c0-0.8,0.3-1.4,0.8-1.6
									c0.4-0.2,1-0.2,1.5,0.1l7.3,4.2c1,0.6,1.7,2,1.7,3.3v1.1c0,0.8-0.3,1.4-0.8,1.6C84.1,87.5,83.9,87.5,83.7,87.5z M75.2,77.8
									L75.2,77.8c-0.2,0.1-0.4,0.3-0.4,0.8v1.1c0,0.9,0.6,2,1.2,2.4l7.3,4.2c0.1,0.1,0.3,0.2,0.5,0.1c0.1-0.1,0.3-0.3,0.3-0.8
									v-1.1c0-0.9-0.6-2-1.2-2.4L75.5,78C75.4,77.9,75.3,77.8,75.2,77.8z"/>
							</g>
							<path class="st3" d="M64,124c-0.2,0-0.3,0-0.5-0.1l-30.8-17.8c-0.3-0.2-0.5-0.5-0.5-0.9V81.6L18,66.5
								c-0.2-0.2-0.3-0.5-0.3-0.8s0.2-0.6,0.5-0.7L49,47.2c0.4-0.2,0.9-0.2,1.2,0.2l14.4,15.3l30.5,17.6l14.3,1.3
								c0.4,0,0.8,0.4,0.9,0.8s-0.1,0.9-0.5,1.1l-14,8.1v13.7c0,0.4-0.2,0.7-0.5,0.9L64.5,124C64.3,124,64.2,124,64,124z
								 M34.2,104.6L64,121.8l29.8-17.2V90.9c0-0.4,0.2-0.7,0.5-0.9l11.8-6.8l-11.4-1c-0.1,0-0.3-0.1-0.4-0.1L63.5,64.3
								c-0.1,0-0.2-0.1-0.2-0.2l-14-14.8l-29,16.8l13.6,14.5c0.2,0.2,0.3,0.4,0.3,0.7V104.6z M94.8,105.2L94.8,105.2L94.8,105.2z"/>
							<path class="st3" d="M64,100c-0.2,0-0.3,0-0.5-0.1L32.7,82.1c-0.5-0.3-0.6-0.9-0.4-1.4c0.3-0.5,0.9-0.6,1.4-0.4l30.8,17.8
								c0.5,0.3,0.6,0.9,0.4,1.4C64.7,99.8,64.3,100,64,100z"/>
							<path class="st3" d="M78.5,101.4c-0.3,0-0.7-0.2-0.9-0.5c-0.3-0.5-0.1-1.1,0.4-1.4l16.3-9.4c0.5-0.3,1.1-0.1,1.4,0.4
								s0.1,1.1-0.4,1.4L79,101.2C78.8,101.3,78.7,101.4,78.5,101.4z"/>
							<path class="st3" d="M78.5,101.4C78.5,101.4,78.4,101.4,78.5,101.4L63.9,100c-0.5-0.1-1-0.5-0.9-1.1c0.1-0.5,0.5-1,1.1-0.9
								l14.5,1.3c0.5,0.1,1,0.5,0.9,1.1S79,101.4,78.5,101.4z"/>
						</g>
					</g>
					<g>
						<path class="st3" d="M33.2,34.6c-0.1,0-0.3,0-0.4-0.1c-0.1-0.1-0.2-0.1-0.3-0.2c-0.2-0.2-0.3-0.4-0.3-0.7s0.1-0.5,0.3-0.7
							s0.6-0.3,0.9-0.3c0.1,0,0.1,0,0.2,0.1c0.1,0,0.1,0.1,0.2,0.1c0.1,0,0.1,0.1,0.2,0.1c0.2,0.2,0.3,0.5,0.3,0.7
							c0,0.3-0.1,0.5-0.3,0.7c-0.1,0.1-0.2,0.2-0.3,0.2C33.4,34.6,33.3,34.6,33.2,34.6z"/>
						<path class="st3" d="M32.2,75.3c0-0.6,0.5-1,1-1l0,0c0.5,0,1,0.4,1,1l0,0c0,0.5-0.5,1-1,1l0,0C32.6,76.3,32.2,75.8,32.2,75.3z
							 M32.2,69.3c0-0.5,0.5-1,1-1l0,0c0.5,0,1,0.5,1,1l0,0c0,0.5-0.5,1-1,1l0,0C32.6,70.3,32.2,69.9,32.2,69.3z M32.2,63.4
							c0-0.6,0.5-1,1-1l0,0c0.5,0,1,0.4,1,1l0,0c0,0.5-0.5,1-1,1l0,0C32.6,64.4,32.2,63.9,32.2,63.4z M32.2,57.4c0-0.5,0.5-1,1-1
							l0,0c0.5,0,1,0.5,1,1l0,0c0,0.6-0.5,1-1,1l0,0C32.6,58.4,32.2,58,32.2,57.4z M32.2,51.5c0-0.6,0.5-1,1-1l0,0c0.5,0,1,0.4,1,1
							l0,0c0,0.5-0.5,1-1,1l0,0C32.6,52.5,32.2,52,32.2,51.5z M32.2,45.5c0-0.5,0.5-1,1-1l0,0c0.5,0,1,0.4,1,1l0,0c0,0.6-0.5,1-1,1
							l0,0C32.6,46.5,32.2,46.1,32.2,45.5z M32.2,39.6c0-0.6,0.5-1,1-1l0,0c0.5,0,1,0.4,1,1l0,0c0,0.6-0.5,1-1,1l0,0
							C32.6,40.6,32.2,40.1,32.2,39.6z"/>
						<path class="st3" d="M33.2,82.2c-0.3,0-0.5-0.1-0.7-0.3c-0.1-0.1-0.2-0.2-0.2-0.3c0-0.1-0.1-0.2-0.1-0.4
							c0-0.3,0.1-0.5,0.3-0.7l0.1-0.1c0.1,0,0.1-0.1,0.2-0.1c0.1,0,0.1,0,0.2-0.1c0.3-0.1,0.7,0,0.9,0.3c0.2,0.2,0.3,0.4,0.3,0.7
							c0,0.1,0,0.3-0.1,0.4c0,0.1-0.1,0.2-0.2,0.3C33.7,82.1,33.4,82.2,33.2,82.2z"/>
					</g>
					<g>
						<path class="st4" d="M94.8,34.4c-0.1,0-0.3,0-0.4-0.1c-0.1,0-0.2-0.1-0.3-0.2c-0.2-0.2-0.3-0.4-0.3-0.7s0.1-0.5,0.3-0.7
							l0.1-0.1c0.1,0,0.1-0.1,0.2-0.1s0.1-0.1,0.2-0.1c0.2,0,0.4,0,0.6,0.1c0.1,0,0.2,0.1,0.3,0.2c0.2,0.2,0.3,0.4,0.3,0.7
							s-0.1,0.5-0.3,0.7C95.3,34.3,95.1,34.4,94.8,34.4z"/>
						<path class="st4" d="M93.8,75.3c0-0.6,0.5-1,1-1l0,0c0.5,0,1,0.4,1,1l0,0c0,0.5-0.5,1-1,1l0,0C94.3,76.3,93.8,75.8,93.8,75.3z
							 M93.8,69.3c0-0.6,0.5-1,1-1l0,0c0.5,0,1,0.4,1,1l0,0c0,0.5-0.5,1-1,1l0,0C94.3,70.3,93.8,69.8,93.8,69.3z M93.8,63.3
							c0-0.5,0.5-1,1-1l0,0c0.5,0,1,0.5,1,1l0,0c0,0.6-0.5,1-1,1l0,0C94.3,64.3,93.8,63.9,93.8,63.3z M93.8,57.3c0-0.6,0.5-1,1-1
							l0,0c0.5,0,1,0.4,1,1l0,0c0,0.5-0.5,1-1,1l0,0C94.3,58.3,93.8,57.9,93.8,57.3z M93.8,51.4c0-0.6,0.5-1,1-1l0,0
							c0.5,0,1,0.4,1,1l0,0c0,0.5-0.5,1-1,1l0,0C94.3,52.4,93.8,51.9,93.8,51.4z M93.8,45.4c0-0.5,0.5-1,1-1l0,0c0.5,0,1,0.5,1,1
							l0,0c0,0.6-0.5,1-1,1l0,0C94.3,46.4,93.8,45.9,93.8,45.4z M93.8,39.4c0-0.5,0.5-1,1-1l0,0c0.5,0,1,0.5,1,1l0,0
							c0,0.5-0.5,1-1,1l0,0C94.3,40.4,93.8,40,93.8,39.4z"/>
						<path class="st4" d="M94.8,82.2c-0.3,0-0.5-0.1-0.7-0.3c-0.1-0.1-0.2-0.2-0.2-0.3c0-0.1-0.1-0.2-0.1-0.4
							c0-0.3,0.1-0.5,0.3-0.7l0.1-0.1c0.1,0,0.1-0.1,0.2-0.1s0.1,0,0.2-0.1c0.2,0,0.4,0,0.6,0.1c0.1,0.1,0.2,0.1,0.3,0.2
							c0,0.1,0.1,0.1,0.1,0.2s0.1,0.1,0.1,0.2s0,0.1,0.1,0.2c0,0.1,0,0.1,0,0.2s0,0.3-0.1,0.4c0,0.1-0.1,0.2-0.2,0.3
							c-0.1,0.1-0.2,0.2-0.3,0.2C95.1,82.2,95,82.2,94.8,82.2z"/>
					</g>
					<g>
						<g>
							<path class="st2" d="M94.4,21.9c0.6,0.4,0.6,1,0,1.3L64.7,40.4c-0.6,0.4-1.7,0.4-2.3,0L33.7,23.9c-0.6-0.4-0.6-1,0-1.3
								L63.3,5.3c0.6-0.4,1.7-0.4,2.3,0L94.4,21.9z"/>
						</g>
						<path class="st1" d="M63.5,45.6c0.4,0,0.8-0.1,1.2-0.3l29.7-17.2c0.3-0.2,0.5-0.4,0.5-0.7v-4.9c0,0.2-0.2,0.5-0.5,0.7
							L64.7,40.4c-0.3,0.2-0.7,0.3-1.2,0.3"/>
						<path class="st0" d="M63.5,40.7c-0.4,0-0.8-0.1-1.2-0.3L33.7,23.9c-0.3-0.2-0.5-0.4-0.5-0.7v4.9c0,0.2,0.2,0.5,0.5,0.7
							l28.7,16.6c0.3,0.2,0.7,0.3,1.2,0.3"/>
						<path class="st1" d="M38.5,26.6l-4.8-2.8c-0.3-0.2-0.5-0.4-0.5-0.7V28c0,0.2,0.2,0.5,0.5,0.7l4.8,2.8V26.6z"/>
						<path class="st3" d="M38.5,27.6c-0.3,0-0.7-0.2-0.9-0.5c-0.3-0.5-0.1-1.1,0.4-1.4L70,7.2c0.5-0.3,1.1-0.1,1.4,0.4
							c0.2,0.4,0,1-0.4,1.3L39,27.5C38.8,27.6,38.7,27.6,38.5,27.6z"/>
						<path class="st1" d="M72.4,41.2c-0.6,0-1-0.4-1-1V36c0-0.6,0.4-1,1-1s1,0.4,1,1v4.3C73.4,40.8,73,41.2,72.4,41.2z"/>
						<g>
							<path class="st1" d="M63.5,41.7c-0.6,0-1.2-0.1-1.7-0.4L38,27.5c-0.5-0.3-0.6-0.9-0.4-1.4c0.3-0.5,0.9-0.6,1.4-0.4l23.9,13.8
								c0.3,0.2,1,0.2,1.3,0l29.3-17L65.2,6.1c-0.3-0.2-1-0.2-1.3,0c-0.5,0.3-1.1,0.1-1.4-0.4s-0.1-1.1,0.4-1.4
								c0.9-0.5,2.4-0.5,3.3,0L94.9,21c0.6,0.4,1,0.9,1,1.5s-0.4,1.2-1,1.5L65.2,41.3C64.7,41.6,64.1,41.7,63.5,41.7z"/>
						</g>
						<path class="st3" d="M63.5,46.6c-0.6,0-1.2-0.1-1.7-0.4L33.2,29.6c-0.6-0.4-1-0.9-1-1.5v-4.9c0-0.6,0.4-1.2,1-1.5L62.8,4.4
							c0.9-0.5,2.4-0.6,3.3,0L94.9,21l0,0c0.6,0.3,1,0.9,1,1.5c0,0,0,0,0,0.1v4.9c0,0.6-0.4,1.2-1,1.5L65.2,46.2
							C64.7,46.5,64.1,46.6,63.5,46.6z M34.2,27.9l28.7,16.6c0.3,0.2,1,0.2,1.3,0l29.6-17.2v-4.5L65.2,6.1c-0.3-0.2-1-0.2-1.3,0
							L34.2,23.4V27.9z M93.8,27.4L93.8,27.4L93.8,27.4z M34.2,23.2L34.2,23.2L34.2,23.2z"/>
						<path class="st3" d="M38.5,32.5c-0.6,0-1-0.4-1-1v-4.9c0-0.6,0.4-1,1-1s1,0.4,1,1v4.9C39.5,32.1,39,32.5,38.5,32.5z"/>
						<path class="st0" d="M65.7,5.3c-0.6-0.4-1.7-0.4-2.3,0L33.7,22.5c-0.6,0.4-0.6,1,0,1.3l4.8,2.8L70.4,8L65.7,5.3z"/>
						<path class="st3" d="M38.5,27.6c-0.2,0-0.3,0-0.5-0.1l-4.8-2.8c-0.6-0.4-1-0.9-1-1.5s0.4-1.2,1-1.5L62.8,4.4
							c0.9-0.5,2.4-0.6,3.3,0l0,0l4.8,2.8c0.3,0.2,0.5,0.5,0.5,0.9S71.2,8.8,70.9,9L39,27.5C38.8,27.6,38.7,27.6,38.5,27.6z
							 M34.5,23.2l4,2.3L68.4,8l-3.3-1.9c-0.3-0.2-1-0.2-1.3,0L34.5,23.2z"/>
						<g>
							<path class="st1" d="M44.8,19.7c-0.5-0.3-0.5-0.7,0-0.9c0.4-0.3,1.2-0.3,1.6,0c0.5,0.3,0.5,0.7,0,0.9
								C46,20,45.2,20,44.8,19.7z"/>
						</g>
						<g>
							<path class="st1" d="M41.5,21.6c-0.5-0.3-0.5-0.7,0-0.9c0.4-0.3,1.2-0.3,1.6,0c0.5,0.3,0.5,0.7,0,0.9
								C42.7,21.9,42,21.9,41.5,21.6z"/>
						</g>
						<g>
							<path class="st1" d="M38.2,23.5c-0.5-0.3-0.5-0.7,0-0.9c0.4-0.3,1.2-0.3,1.6,0c0.5,0.3,0.5,0.7,0,0.9
								C39.4,23.8,38.7,23.8,38.2,23.5z"/>
						</g>
						<polygon class="st5" points="83.8,22.6 70.5,30.2 61,24.8 74.3,17.1 						"/>
						<polygon class="st6" points="72.4,23.7 59.1,31.3 49.7,25.9 62.9,18.2 						"/>
					</g>
				</g>
				<rect x="4" y="4" class="st7" width="120" height="120"/>
				<rect x="4" y="4" class="st7" width="120" height="120"/>
			</g>
		</g>
	</g>
	<g>
		<rect class="st7" width="128" height="128"/>
	</g>
</g>
</svg>
