<?xml version="1.0" encoding="utf-8"?>
<!-- Generator: Adobe Illustrator 24.1.0, SVG Export Plug-In . SVG Version: 6.00 Build 0)  -->
<svg version="1.1" id="Layer_1" xmlns="http://www.w3.org/2000/svg" xmlns:xlink="http://www.w3.org/1999/xlink" x="0px" y="0px"
	 viewBox="0 0 128 128" style="enable-background:new 0 0 128 128;" xml:space="preserve">
<style type="text/css">
	.st0{fill:#185849;}
	.st1{fill:#E9EBDF;}
	.st2{fill:#4D9987;}
	.st3{fill:#FFFFFF;}
	.st4{fill:#0E352C;}
	.st5{fill:#C4D7D3;}
	.st6{fill:#27ae60;}
	.st7{fill:none;}
</style>
<g id="Layer_1_1_">
</g>
<g>
	<g id="Layer_2_1_">
		<g id="New_Illustrations_1_">
			<g>
				<g>
					<g>
						<g>
							<path class="st0" d="M119,84.5c-0.3,0-0.5-0.1-0.7-0.3c-0.2-0.2-0.3-0.4-0.3-0.7c0-0.3,0.1-0.5,0.3-0.7c0.4-0.4,1-0.4,1.4,0
								c0.2,0.2,0.3,0.4,0.3,0.7c0,0.3-0.1,0.5-0.3,0.7C119.5,84.4,119.3,84.5,119,84.5z"/>
							<path class="st0" d="M118,77.6c0-0.5,0.5-1,1-1l0,0c0.5,0,1,0.5,1,1l0,0c0,0.6-0.5,1-1,1l0,0C118.5,78.6,118,78.2,118,77.6z
								 M118,71.7c0-0.5,0.5-1,1-1l0,0c0.5,0,1,0.5,1,1l0,0c0,0.6-0.5,1-1,1l0,0C118.5,72.7,118,72.3,118,71.7z M118,65.9
								c0-0.5,0.5-1,1-1l0,0c0.5,0,1,0.5,1,1l0,0c0,0.6-0.5,1-1,1l0,0C118.5,66.9,118,66.4,118,65.9z M118,60c0-0.6,0.5-1,1-1l0,0
								c0.5,0,1,0.4,1,1l0,0c0,0.6-0.5,1-1,1l0,0C118.5,61,118,60.6,118,60z M118,54.2c0-0.6,0.5-1,1-1l0,0c0.5,0,1,0.4,1,1l0,0
								c0,0.6-0.5,1-1,1l0,0C118.5,55.2,118,54.7,118,54.2z M118,48.3c0-0.6,0.5-1,1-1l0,0c0.5,0,1,0.4,1,1l0,0c0,0.6-0.5,1-1,1l0,0
								C118.5,49.3,118,48.9,118,48.3z"/>
							<path class="st0" d="M119,43.4c-0.3,0-0.5-0.1-0.7-0.3s-0.3-0.4-0.3-0.7s0.1-0.5,0.3-0.7c0.1-0.1,0.2-0.2,0.3-0.2
								c0.4-0.2,0.8-0.1,1.1,0.2c0.2,0.2,0.3,0.4,0.3,0.7s-0.1,0.5-0.3,0.7C119.5,43.3,119.3,43.4,119,43.4z"/>
						</g>
						<g>
							<g>
								<g>
									<path class="st1" d="M119,83.7c0.1-0.7-0.2-1.3-1.1-1.8l-50.1-29c-1.5-0.9-4-0.9-5.5,0L10.1,83.2c-0.8,0.4-1.1,1-1.1,1.6
										l0,0v7c0,0.6,0.4,1.2,1.1,1.6l50.1,28.9c0.7,0.4,1.7,0.7,2.7,0.7s2-0.2,2.8-0.7L117.8,92c0.8-0.4,1.1-1,1.1-1.6v-7
										C119,83.5,119,83.6,119,83.7z"/>
									<path class="st2" d="M63,124C63,124,62.9,124,63,124c-1.3,0-2.4-0.3-3.3-0.8L9.6,94.3c-1-0.6-1.6-1.5-1.6-2.5v-7
										c0,0,0,0,0-0.1c0-0.9,0.6-1.8,1.6-2.4L61.7,52c1.8-1.1,4.7-1.1,6.5,0l50.2,29c1,0.6,1.5,1.4,1.6,2.2c0,0.1,0,0.2,0,0.2l0,0
										v7c0,1-0.6,1.8-1.6,2.4l-52.1,30.3C65.4,123.7,64.2,124,63,124z M10,84.9v6.9c0,0.2,0.2,0.5,0.6,0.7l50.1,28.9
										c0.6,0.3,1.4,0.5,2.2,0.5c0.9,0,1.7-0.2,2.3-0.5l52.1-30.3c0.4-0.2,0.6-0.5,0.6-0.7v-6.5c0-0.1-0.1-0.3,0-0.4l0,0l0,0l0,0
										c0.1-0.4-0.5-0.7-0.6-0.8l-50-28.9c-1.2-0.7-3.3-0.7-4.5,0L10.7,84.1C10.3,84.3,10,84.6,10,84.9C10,84.8,10,84.8,10,84.9z"
										/>
								</g>
								<g>
									<path class="st2" d="M17.6,78.9l-7.5,4.3c-0.8,0.4-1.1,1-1.1,1.6l0,0v7c0,0.6,0.4,1.2,1.1,1.6l7.5,4.3V78.9z"/>
									<path class="st2" d="M17.6,98.7c-0.2,0-0.3,0-0.5-0.1l-7.5-4.3c-1-0.6-1.7-1.5-1.6-2.5v-7c0,0,0,0,0-0.1
										c0-0.9,0.6-1.8,1.6-2.4l7.5-4.3c0.3-0.2,0.7-0.2,1,0s0.5,0.5,0.5,0.9v18.8c0,0.4-0.2,0.7-0.5,0.9
										C18,98.7,17.8,98.7,17.6,98.7z M10,84.9v6.9c0,0.2,0.2,0.5,0.6,0.7l6,3.5V80.6l-6,3.5C10.3,84.3,10,84.6,10,84.9
										C10,84.8,10,84.8,10,84.9z"/>
								</g>
								<path class="st2" d="M62.9,123c1,0,2-0.2,2.8-0.7L117.8,92c0.8-0.4,1.1-1,1.1-1.6v-7c0,0.6-0.4,1.1-1.1,1.6l-52.1,30.3
									C65,115.8,64,116,63,116"/>
								<g>
									<path class="st3" d="M117.9,81.9c1.5,0.9,1.5,2.3,0,3.2l-52.1,30.3c-1.5,0.9-4,0.9-5.5,0l-50.1-29c-1.5-0.9-1.5-2.3,0-3.2
										l52.1-30.3c1.5-0.9,4-0.9,5.5,0L117.9,81.9z"/>
								</g>
								<g>
									<g>
										<path class="st3" d="M117.9,81.9c1.5,0.9,1.5,2.3,0,3.2l-52.1,30.3c-1.5,0.9-4,0.9-5.5,0l-50.1-29c-1.5-0.9-1.5-2.3,0-3.2
											l52.1-30.3c1.5-0.9,4-0.9,5.5,0L117.9,81.9z"/>
										<path class="st2" d="M63,117c-1.2,0-2.3-0.3-3.3-0.8l-50-28.9c-1-0.6-1.6-1.5-1.6-2.5s0.6-1.9,1.6-2.5L61.8,52
											c1.8-1.1,4.7-1.1,6.5,0l50.1,29l0,0c1,0.6,1.6,1.5,1.6,2.5s-0.6,1.9-1.6,2.5l-52.1,30.3C65.3,116.7,64.2,117,63,117z
											 M65,53.3c-0.8,0-1.6,0.2-2.2,0.5L10.7,84.1c-0.4,0.2-0.6,0.5-0.6,0.7s0.2,0.5,0.6,0.7l50.1,28.9c1.2,0.7,3.3,0.7,4.5,0
											l52.1-30.3c0.4-0.2,0.6-0.5,0.6-0.7s-0.2-0.5-0.6-0.7l0,0L67.3,53.8C66.7,53.5,65.8,53.3,65,53.3z"/>
									</g>
								</g>
								<path class="st2" d="M82.6,106.6c-0.2,0-0.3,0-0.5-0.1L36.9,80.1c-0.5-0.3-0.6-0.9-0.4-1.4c0.3-0.5,0.9-0.6,1.4-0.4
									l45.2,26.3c0.5,0.3,0.6,0.9,0.4,1.4C83.2,106.4,82.9,106.6,82.6,106.6z"/>
								<path class="st2" d="M48.1,109.3c-0.3,0-0.7-0.2-0.9-0.5c-0.3-0.5-0.1-1.1,0.4-1.4l57.5-33.5c0.5-0.3,1.1-0.1,1.4,0.4
									s0.1,1.1-0.4,1.4l-57.5,33.5C48.4,109.3,48.3,109.3,48.1,109.3z"/>
								<path class="st2" d="M102,95.3c-0.2,0-0.3,0-0.5-0.1L56.3,68.8c-0.5-0.3-0.6-0.9-0.4-1.4c0.3-0.5,0.9-0.6,1.4-0.4l45.2,26.3
									c0.5,0.3,0.6,0.9,0.4,1.4C102.7,95.1,102.3,95.3,102,95.3z"/>
								<g>
									<path class="st1" d="M67.8,52.9c-1.5-0.9-4-0.9-5.5,0L10.1,83.2c-1.5,0.9-1.5,2.3,0,3.2l7.5,4.3l57.6-33.5L67.8,52.9z"/>
									<path class="st2" d="M17.6,91.7c-0.2,0-0.3,0-0.5-0.1l-7.5-4.3c-1-0.6-1.6-1.5-1.6-2.5s0.6-1.9,1.6-2.5L61.7,52
										c1.8-1.1,4.7-1.1,6.5,0l0,0l7.5,4.3c0.3,0.2,0.5,0.5,0.5,0.9s-0.2,0.7-0.5,0.9L18.1,91.6C18,91.7,17.8,91.7,17.6,91.7z
										 M65,53.3c-0.8,0-1.6,0.2-2.2,0.5L10.7,84.1c-0.4,0.2-0.6,0.5-0.6,0.7s0.2,0.5,0.6,0.7l7,4l55.6-32.3l-6-3.4l0,0
										C66.7,53.5,65.8,53.3,65,53.3z"/>
								</g>
								<path class="st2" d="M32.6,100.4c-0.3,0-0.7-0.2-0.9-0.5c-0.3-0.5-0.1-1.1,0.4-1.4L89.6,65c0.5-0.3,1.1-0.1,1.4,0.4
									s0.1,1.1-0.4,1.4l-57.5,33.5C32.9,100.3,32.8,100.4,32.6,100.4z"/>
								<path class="st4" d="M63,124C63,124,62.9,124,63,124c-1.3,0-2.4-0.3-3.3-0.8L9.6,94.3c-1-0.6-1.6-1.5-1.6-2.5v-7
									c0,0,0,0,0-0.1c0-0.9,0.6-1.8,1.6-2.4L61.7,52c1.8-1.1,4.7-1.1,6.5,0l50.2,29c1,0.6,1.5,1.4,1.6,2.2c0,0.1,0,0.2,0,0.2l0,0
									v7c0,1-0.6,1.8-1.6,2.4l-52.1,30.3C65.4,123.7,64.2,124,63,124z M10,84.9v6.9c0,0.2,0.2,0.5,0.6,0.7l50.1,28.9
									c0.6,0.3,1.4,0.5,2.2,0.5c0.9,0,1.7-0.2,2.3-0.5l52.1-30.3c0.4-0.2,0.6-0.5,0.6-0.7v-6.5c0-0.1-0.1-0.3,0-0.4l0,0l0,0l0,0
									c0.1-0.4-0.5-0.7-0.6-0.8l-50-28.9c-1.2-0.7-3.3-0.7-4.5,0L10.7,84.1C10.3,84.3,10,84.6,10,84.9C10,84.8,10,84.8,10,84.9z"
									/>
							</g>
							<g>
								
									<ellipse transform="matrix(2.841524e-03 -1 1 2.841524e-03 -4.1811 119.4628)" class="st2" cx="57.8" cy="61.8" rx="1.6" ry="2.8"/>
							</g>
							<g>
								<g>
									<path class="st4" d="M57.8,62.3c-0.5,0-1-0.4-1-0.9c-0.1-2.2-1.6-4.7-3.5-5.7c-0.5-0.3-1.5-0.7-2.4-0.3
										c-0.9,0.5-1,1.6-1,2.2c0,0.6,0.2,1.6,0.5,2.4c0.2,0.5,0,1.1-0.5,1.3s-1.1,0-1.3-0.5c-0.5-1.1-0.7-2.4-0.7-3.2
										c0-1.8,0.7-3.2,2-3.9s2.8-0.6,4.4,0.3c2.4,1.4,4.3,4.5,4.5,7.4C58.8,61.8,58.4,62.3,57.8,62.3
										C57.9,62.3,57.8,62.3,57.8,62.3z"/>
								</g>
							</g>
							<g>
								
									<ellipse transform="matrix(2.841524e-03 -1 1 2.841524e-03 -53.6497 105.6855)" class="st2" cx="26.2" cy="79.7" rx="1.6" ry="2.8"/>
							</g>
							<g>
								
									<ellipse transform="matrix(2.841524e-03 -1 1 2.841524e-03 -28.9527 112.5741)" class="st2" cx="42" cy="70.8" rx="1.6" ry="2.8"/>
							</g>
							<g>
								<g>
									<path class="st4" d="M26.2,80.3c-0.5,0-1-0.4-1-0.9c-0.1-2.2-1.6-4.7-3.5-5.7c-0.5-0.3-1.5-0.7-2.4-0.2
										c-0.8,0.5-1,1.6-1,2.2c0,0.7,0.2,1.7,0.6,2.5c0.2,0.5,0,1.1-0.5,1.3c-0.5,0.2-1.1,0-1.3-0.5c-0.6-1.2-0.8-2.6-0.8-3.4
										c0-1.8,0.7-3.2,2-3.9c1.3-0.7,2.8-0.6,4.4,0.3c2.4,1.4,4.3,4.5,4.5,7.4C27.2,79.8,26.8,80.3,26.2,80.3L26.2,80.3z"/>
								</g>
							</g>
							<g>
								<g>
									<path class="st4" d="M42,71.3c-0.5,0-1-0.4-1-0.9c-0.1-2.2-1.6-4.7-3.5-5.7C37,64.4,36,64,35.1,64.4c-0.9,0.5-1,1.6-1,2.2
										s0.2,1.6,0.5,2.4c0.2,0.5,0,1.1-0.5,1.3c-0.5,0.2-1.1,0-1.3-0.5c-0.5-1.1-0.7-2.4-0.7-3.2c0-1.8,0.7-3.2,2-3.9
										s2.8-0.6,4.4,0.3c2.4,1.4,4.3,4.5,4.5,7.4C43,70.8,42.6,71.3,42,71.3L42,71.3z"/>
								</g>
							</g>
						</g>
						<g>
							<path class="st4" d="M87.1,65.1c-0.3,0-0.5-0.1-0.7-0.3c0-0.1-0.1-0.1-0.1-0.2s-0.1-0.1-0.1-0.2s0-0.1-0.1-0.2
								c0-0.1,0-0.1,0-0.2s0-0.3,0.1-0.4s0.1-0.2,0.2-0.3c0.4-0.4,1-0.4,1.4,0c0.1,0.1,0.2,0.2,0.2,0.3s0.1,0.2,0.1,0.4
								c0,0.1,0,0.1,0,0.2s0,0.1,0,0.2S88,64.5,88,64.6c0,0-0.1,0.1-0.1,0.2l-0.1,0.1c-0.1,0-0.1,0.1-0.2,0.1s-0.1,0-0.2,0.1
								C87.2,65.1,87.2,65.1,87.1,65.1z"/>
							<path class="st4" d="M86.1,58.7c0-0.6,0.5-1,1-1l0,0c0.6,0,1,0.4,1,1l0,0c0,0.5-0.4,1-1,1l0,0C86.5,59.7,86.1,59.2,86.1,58.7
								z M86.1,53.3c0-0.6,0.5-1,1-1l0,0c0.6,0,1,0.4,1,1l0,0c0,0.6-0.4,1-1,1l0,0C86.5,54.3,86.1,53.8,86.1,53.3z M86.1,47.9
								c0-0.5,0.5-1,1-1l0,0c0.6,0,1,0.5,1,1l0,0c0,0.6-0.4,1-1,1l0,0C86.5,48.9,86.1,48.4,86.1,47.9z"/>
							<path class="st4" d="M87.1,43.4c-0.3,0-0.5-0.1-0.7-0.3s-0.3-0.4-0.3-0.7s0.1-0.5,0.3-0.7c0.4-0.4,1-0.4,1.4,0
								c0.2,0.2,0.3,0.4,0.3,0.7s-0.1,0.5-0.3,0.7C87.6,43.3,87.4,43.4,87.1,43.4z"/>
						</g>
						<g>
							<path class="st4" d="M87.1,81.8c-0.3,0-0.5-0.1-0.7-0.3l-0.1-0.1c0-0.1-0.1-0.1-0.1-0.2s0-0.1-0.1-0.2c0-0.1,0-0.1,0-0.2
								s0-0.3,0.1-0.4s0.1-0.2,0.2-0.3c0.4-0.4,1-0.4,1.4,0c0.1,0.1,0.2,0.2,0.2,0.3c0,0.1,0.1,0.2,0.1,0.4c0,0.1,0,0.1,0,0.2
								s0,0.1,0,0.2S88,81.3,88,81.4l-0.1,0.1l-0.1,0.1c-0.1,0-0.1,0.1-0.2,0.1s-0.1,0-0.2,0C87.2,81.8,87.2,81.8,87.1,81.8z"/>
							<path class="st4" d="M86.1,75.9c0-0.6,0.5-1,1-1l0,0c0.6,0,1,0.4,1,1l0,0c0,0.5-0.4,1-1,1l0,0C86.5,76.9,86.1,76.5,86.1,75.9
								z"/>
							<path class="st4" d="M87.1,72.1c-0.3,0-0.5-0.1-0.7-0.3c-0.1-0.1-0.2-0.2-0.2-0.3c0-0.1-0.1-0.3-0.1-0.4
								c0-0.3,0.1-0.5,0.3-0.7c0.4-0.4,1-0.4,1.4,0c0.2,0.2,0.3,0.4,0.3,0.7c0,0.1,0,0.3-0.1,0.4s-0.1,0.2-0.2,0.3
								C87.6,72,87.4,72.1,87.1,72.1z"/>
						</g>
						<g>
							<ellipse class="st5" cx="103.8" cy="84.1" rx="6" ry="3.5"/>
							<path class="st5" d="M103.8,88.1c-1.6,0-3.2-0.4-4.5-1.1s-2-1.8-2-2.9s0.7-2.1,2-2.9c2.5-1.4,6.5-1.4,9,0l0,0
								c1.3,0.7,2,1.8,2,2.9s-0.7,2.1-2,2.9C107.1,87.7,105.4,88.1,103.8,88.1z M103.8,81.2c-1.4,0-2.9,0.3-4,1
								c-1,0.6-1.5,1.3-1.5,2s0.5,1.5,1.5,2c2.2,1.3,5.8,1.3,8,0c1-0.6,1.5-1.3,1.5-2s-0.5-1.5-1.5-2
								C106.7,81.5,105.3,81.2,103.8,81.2z"/>
						</g>
						<g>
							<g>
								<g>
									<path class="st5" d="M114.5,26.8c-0.1,0-0.1-0.1-0.2-0.1c-6.2-3.6-16.3-3.6-22.6,0c-0.1,0-0.1,0.1-0.2,0.1H87v6.4
										c0,2.4,1.6,4.7,4.7,6.5c6.2,3.6,16.3,3.6,22.6,0c3.1-1.8,4.7-5.2,4.7-7.5v-5.3h-4.5V26.8z"/>
									<path class="st6" d="M114.3,39.6c3.1-1.8,4.7-5.2,4.7-7.5v-5.3h-4.5c-0.1,0-0.1-0.1-0.2-0.1c-3.1-1.8-7.2-2.7-11.3-2.7
										v18.4C107.1,42.3,111.2,41.4,114.3,39.6z"/>
									<ellipse class="st5" cx="103" cy="26.8" rx="16" ry="9.2"/>
									<path class="st3" d="M103,37c-4.3,0-8.5-0.9-11.8-2.8c-3.3-1.9-5.2-4.5-5.2-7.4s1.8-5.5,5.2-7.4c6.5-3.8,17.1-3.8,23.6,0
										l0,0c3.3,1.9,5.2,4.5,5.2,7.4c0,2.8-1.8,5.5-5.2,7.4C111.6,36,107.3,37,103,37z M103,18.5c-3.9,0-7.8,0.9-10.8,2.6
										c-2.7,1.6-4.2,3.6-4.2,5.6s1.5,4.1,4.2,5.6c5.9,3.4,15.6,3.4,21.6,0c2.7-1.6,4.2-3.6,4.2-5.6s-1.5-4.1-4.2-5.6l0,0
										C110.9,19.4,107,18.5,103,18.5z"/>
									<ellipse class="st7" cx="103" cy="32.6" rx="16.3" ry="9.8"/>
									<path class="st0" d="M103,43.3c-4.4,0-8.6-1-11.8-2.8C87.9,38.6,86,36,86,33.1v-6.4c0-2.8,1.8-5.5,5.2-7.4
										c6.5-3.8,17.1-3.7,23.6,0c3.3,1.9,5.2,4.5,5.2,7.4V32c0,0.8-0.2,3-0.8,4.1c-0.8,1.6-2.4,3.1-4.4,4.3
										c-1.6,0.9-3.5,1.6-5.5,2.1c-0.5,0.1-1,0.2-1.5,0.3c-1,0.2-2.1,0.3-3.1,0.3C104.1,43.3,103.6,43.3,103,43.3z M103,18.5
										c-3.9,0-7.8,0.9-10.8,2.6c-2.7,1.6-4.2,3.6-4.2,5.6v6.4c0,2.1,1.5,4.1,4.2,5.6c2.9,1.7,6.7,2.6,10.8,2.6c0.5,0,1,0,1.5,0
										c1-0.1,2-0.2,2.9-0.3c0.5-0.1,0.9-0.2,1.4-0.3c1.9-0.4,3.6-1.1,5-1.9c1.7-1,3-2.2,3.6-3.5c0.3-0.6,0.5-2.4,0.5-3.2v-5.3
										c0-2.1-1.5-4.1-4.2-5.6C110.9,19.4,107,18.5,103,18.5z"/>
									<path class="st6" d="M109.2,29.3l1.7,1l-1.5,0.9l-1.6-1c-0.8,0.4-1.6,0.7-2.5,1s-1.7,0.4-2.4,0.5l-1-1.5
										c0.7-0.1,1.3-0.2,2-0.4c0.7-0.2,1.4-0.4,1.9-0.7l-2.5-1.5c-0.9,0.3-1.7,0.6-2.4,0.7c-0.7,0.2-1.4,0.2-2.2,0.2
										c-0.7,0-1.5-0.3-2.1-0.7c-0.8-0.5-1.3-1.1-1.2-1.8c0-0.7,0.5-1.4,1.5-2.2l-1.7-1l1.5-0.9l1.6,1c1.3-0.7,2.7-1.1,4-1.2
										l1.1,1.5c-1.2,0.2-2.2,0.5-3.1,0.9l2.6,1.5c0.9-0.3,1.6-0.6,2.3-0.7c0.7-0.2,1.4-0.2,2.2-0.2c0.7,0,1.4,0.3,2.1,0.6
										c0.8,0.5,1.2,1.1,1.2,1.8C110.7,27.9,110.2,28.6,109.2,29.3z M99.8,26.6c0.4,0,0.8-0.1,1.3-0.2l-2.2-1.2
										c-0.3,0.3-0.4,0.5-0.4,0.7s0.2,0.4,0.4,0.6C99.1,26.5,99.4,26.6,99.8,26.6 M105.1,27l2.1,1.2c0.3-0.3,0.4-0.5,0.4-0.7
										s-0.1-0.4-0.4-0.5c-0.2-0.1-0.6-0.2-0.9-0.2C106,26.8,105.6,26.8,105.1,27"/>
								</g>
							</g>
							<g>
								<g>
									<path class="st5" d="M114.5,20.4c-0.1,0-0.1-0.1-0.2-0.1c-6.2-3.6-16.3-3.6-22.6,0c-0.1,0-0.1,0.1-0.2,0.1H87v6.4
										c0,2.4,1.6,4.7,4.7,6.5c6.2,3.6,16.3,3.6,22.6,0c3.1-1.8,4.7-5.2,4.7-7.5v-5.3h-4.5V20.4z"/>
									<path class="st6" d="M114.3,33.3c3.1-1.8,4.7-5.2,4.7-7.5v-5.3h-4.5c-0.1,0-0.1-0.1-0.2-0.1c-3.1-1.8-7.2-2.7-11.3-2.7V36
										C107.1,36,111.2,35.1,114.3,33.3z"/>
									<ellipse class="st5" cx="103" cy="20.4" rx="16" ry="9.2"/>
									<path class="st3" d="M103,30.6c-4.3,0-8.5-0.9-11.8-2.8S86,23.3,86,20.4c0-2.8,1.8-5.5,5.2-7.4c6.5-3.8,17.1-3.8,23.6,0
										l0,0c3.3,1.9,5.2,4.5,5.2,7.4c0,2.8-1.8,5.5-5.2,7.4C111.6,29.7,107.3,30.6,103,30.6z M103,12.2c-3.9,0-7.8,0.9-10.8,2.6
										c-2.7,1.6-4.2,3.6-4.2,5.6c0,2.1,1.5,4.1,4.2,5.6c5.9,3.4,15.6,3.4,21.6,0c2.7-1.6,4.2-3.6,4.2-5.6c0-2.1-1.5-4.1-4.2-5.6
										l0,0C110.9,13,107,12.2,103,12.2z"/>
									<ellipse class="st7" cx="103" cy="26.2" rx="16.3" ry="9.8"/>
									<path class="st0" d="M103,37c-4.4,0-8.6-1-11.8-2.8c-3.3-1.9-5.2-4.5-5.2-7.4v-6.4c0-2.8,1.8-5.5,5.2-7.4
										c6.5-3.8,17.1-3.7,23.6,0c3.3,1.9,5.2,4.5,5.2,7.4v5.3c0,0.8-0.2,3-0.8,4.1c-0.8,1.6-2.4,3.1-4.4,4.3
										c-1.6,0.9-3.5,1.6-5.5,2.1c-0.5,0.1-1,0.2-1.5,0.3c-1,0.2-2.1,0.3-3.1,0.4C104.1,37,103.6,37,103,37z M103,12.2
										c-3.9,0-7.8,0.9-10.8,2.6c-2.7,1.6-4.2,3.6-4.2,5.6v6.4c0,2.1,1.5,4.1,4.2,5.6C95.1,34.1,99,35,103,35c0.5,0,1,0,1.5,0
										c1-0.1,2-0.2,2.9-0.3c0.5-0.1,0.9-0.2,1.4-0.3c1.9-0.4,3.6-1.1,5-1.9c1.7-1,3-2.2,3.6-3.5c0.3-0.6,0.5-2.4,0.5-3.2v-5.3
										c0-2.1-1.5-4.1-4.2-5.6C110.9,13,107,12.2,103,12.2z"/>
									<path class="st6" d="M109.2,23l1.7,1l-1.5,0.9l-1.6-1c-0.8,0.4-1.6,0.7-2.5,1s-1.7,0.4-2.4,0.5l-1-1.5
										c0.7-0.1,1.3-0.2,2-0.4c0.7-0.2,1.4-0.4,1.9-0.7l-2.5-1.5c-0.9,0.3-1.7,0.6-2.4,0.7c-0.7,0.2-1.4,0.2-2.2,0.2
										c-0.7,0-1.5-0.3-2.1-0.7c-0.8-0.5-1.3-1.1-1.2-1.8c0-0.7,0.5-1.4,1.5-2.2l-1.7-1l1.5-0.9l1.6,1c1.3-0.7,2.7-1.1,4-1.2
										l1.1,1.5c-1.2,0.2-2.2,0.5-3.1,0.9l2.6,1.5c0.9-0.3,1.6-0.6,2.3-0.7c0.7-0.2,1.4-0.2,2.2-0.2c0.7,0,1.4,0.3,2.1,0.6
										c0.8,0.5,1.2,1.1,1.2,1.8C110.7,21.5,110.2,22.2,109.2,23z M99.8,20.2c0.4,0,0.8-0.1,1.3-0.2l-2.2-1.2
										c-0.3,0.3-0.4,0.5-0.4,0.7s0.2,0.4,0.4,0.6C99.1,20.2,99.4,20.3,99.8,20.2 M105.1,20.6l2.1,1.2c0.3-0.3,0.4-0.5,0.4-0.7
										s-0.1-0.4-0.4-0.5c-0.2-0.1-0.6-0.2-0.9-0.2C106,20.4,105.6,20.5,105.1,20.6"/>
								</g>
							</g>
							<g>
								<g>
									<path class="st5" d="M114.5,14.2c-0.1,0-0.1-0.1-0.2-0.1c-6.2-3.6-16.3-3.6-22.6,0c-0.1,0-0.1,0.1-0.2,0.1H87v6.4
										c0,2.4,1.6,4.7,4.7,6.5c6.2,3.6,16.3,3.6,22.6,0c3.1-1.8,4.7-5.2,4.7-7.5v-5.3h-4.5V14.2z"/>
									<path class="st6" d="M114.3,27.1c3.1-1.8,4.7-5.2,4.7-7.5v-5.3h-4.5c-0.1,0-0.1-0.1-0.2-0.1c-3.1-1.8-7.2-2.7-11.3-2.7
										v18.4C107.1,29.8,111.2,28.9,114.3,27.1z"/>
									<ellipse class="st5" cx="103" cy="14.2" rx="16" ry="9.2"/>
									<path class="st3" d="M103,24.4c-4.3,0-8.5-0.9-11.8-2.8S86,17.1,86,14.2c0-2.8,1.8-5.5,5.2-7.4c6.5-3.8,17.1-3.8,23.6,0
										c3.3,1.9,5.2,4.5,5.2,7.4c0,2.8-1.8,5.5-5.2,7.4C111.6,23.5,107.3,24.4,103,24.4z M103,6c-3.9,0-7.8,0.9-10.8,2.6
										c-2.7,1.6-4.2,3.6-4.2,5.6s1.5,4.1,4.2,5.6c5.9,3.4,15.6,3.4,21.6,0c2.7-1.6,4.2-3.6,4.2-5.6s-1.5-4.1-4.2-5.6l0,0
										C110.9,6.9,107,6,103,6z"/>
									<ellipse class="st7" cx="103" cy="20.1" rx="16.3" ry="9.8"/>
									<path class="st0" d="M103,30.8c-4.4,0-8.6-1-11.8-2.8c-3.3-1.9-5.2-4.5-5.2-7.4v-6.4c0-2.8,1.8-5.5,5.2-7.4
										c6.5-3.8,17.1-3.7,23.6,0c3.3,1.9,5.2,4.5,5.2,7.4v5.3c0,0.8-0.2,3-0.8,4.1c-0.8,1.6-2.4,3.1-4.4,4.3
										c-1.6,0.9-3.5,1.6-5.5,2.1c-0.5,0.1-1,0.2-1.5,0.3c-1,0.2-2.1,0.3-3.1,0.3C104.1,30.8,103.6,30.8,103,30.8z M103,6
										c-3.9,0-7.8,0.9-10.8,2.6c-2.7,1.6-4.2,3.6-4.2,5.6v6.4c0,2.1,1.5,4.1,4.2,5.6c2.9,1.7,6.7,2.6,10.8,2.6c0.5,0,1,0,1.5,0
										c1-0.1,2-0.2,2.9-0.3c0.5-0.1,0.9-0.2,1.4-0.3c1.9-0.4,3.6-1.1,5-1.9c1.7-1,3-2.2,3.6-3.5c0.3-0.6,0.5-2.4,0.5-3.2v-5.3
										c0-2.1-1.5-4.1-4.2-5.6C110.9,6.9,107,6,103,6z"/>
									<path class="st6" d="M109.2,16.8l1.7,1l-1.5,0.9l-1.6-1c-0.8,0.4-1.6,0.7-2.5,1s-1.7,0.4-2.4,0.5l-1-1.5
										c0.7-0.1,1.3-0.2,2-0.4c0.7-0.2,1.4-0.4,1.9-0.7l-2.5-1.5c-0.9,0.3-1.7,0.6-2.4,0.7c-0.7,0.2-1.4,0.2-2.2,0.2
										c-0.7,0-1.5-0.3-2.1-0.7c-0.8-0.5-1.3-1.1-1.2-1.8c0-0.7,0.5-1.4,1.5-2.2l-1.7-1l1.5-0.9l1.6,1c1.3-0.7,2.7-1.1,4-1.2
										l1.1,1.5c-1.2,0.2-2.2,0.5-3.1,0.9l2.6,1.5c0.9-0.3,1.6-0.6,2.3-0.7c0.7-0.2,1.4-0.2,2.2-0.2c0.7,0,1.4,0.3,2.1,0.6
										c0.8,0.5,1.2,1.1,1.2,1.8C110.7,15.4,110.2,16.1,109.2,16.8z M99.8,14.1c0.4,0,0.8-0.1,1.3-0.2l-2.2-1.2
										c-0.3,0.3-0.4,0.5-0.4,0.7s0.2,0.4,0.4,0.6C99.1,14,99.4,14.1,99.8,14.1 M105.1,14.5l2.1,1.2c0.3-0.3,0.4-0.5,0.4-0.7
										s-0.1-0.4-0.4-0.5c-0.2-0.1-0.6-0.2-0.9-0.2C106,14.2,105.6,14.3,105.1,14.5"/>
								</g>
							</g>
						</g>
					</g>
				</g>
				<rect x="4" y="4" class="st7" width="120" height="120"/>
				<rect x="4" y="4" class="st7" width="120" height="120"/>
			</g>
		</g>
	</g>
	<g>
		<rect class="st7" width="128" height="128"/>
	</g>
</g>
</svg>
