<?xml version="1.0" encoding="utf-8"?>
<!-- Generator: Adobe Illustrator 24.1.0, SVG Export Plug-In . SVG Version: 6.00 Build 0)  -->
<svg version="1.1" id="Layer_1" xmlns="http://www.w3.org/2000/svg" xmlns:xlink="http://www.w3.org/1999/xlink" x="0px" y="0px"
	 viewBox="0 0 128 128" style="enable-background:new 0 0 128 128;" xml:space="preserve">
<style type="text/css">
	.st0{fill:#185849;}
	.st1{fill:#0E352C;}
	.st2{fill:#C4D7D3;}
	.st3{fill:#27ae60;}
	.st4{fill:#FFFFFF;}
	.st5{fill:#4D9987;}
	.st6{fill:#E9EBDF;}
	.st7{fill:none;}
</style>
<g id="Layer_1_1_">
</g>
<g>
	<g id="Layer_2_1_">
		<g id="New_Illustrations_1_">
			<g>
				<g>
					<g>
						<path class="st0" d="M107.5,41.2c-0.3,0-0.5-0.1-0.7-0.3s-0.3-0.4-0.3-0.7c0-0.1,0-0.3,0.1-0.4c0-0.1,0.1-0.2,0.2-0.3
							c0.4-0.4,1-0.4,1.4,0c0.1,0.1,0.2,0.2,0.2,0.3c0.1,0.1,0.1,0.2,0.1,0.4c0,0.3-0.1,0.5-0.3,0.7
							C108.1,41.1,107.8,41.2,107.5,41.2z"/>
						<path class="st0" d="M106.5,59.3c0-0.5,0.4-1,1-1l0,0c0.6,0,1,0.5,1,1l0,0c0,0.6-0.4,1-1,1l0,0
							C107,60.3,106.5,59.8,106.5,59.3z M106.5,52.9c0-0.6,0.4-1,1-1l0,0c0.6,0,1,0.4,1,1l0,0c0,0.6-0.4,1-1,1l0,0
							C107,53.9,106.5,53.4,106.5,52.9z M106.5,46.5c0-0.6,0.4-1,1-1l0,0c0.6,0,1,0.4,1,1l0,0c0,0.6-0.4,1-1,1l0,0
							C107,47.5,106.5,47.1,106.5,46.5z"/>
						<path class="st0" d="M107.5,66.6c-0.3,0-0.5-0.1-0.7-0.3c-0.2-0.2-0.3-0.4-0.3-0.7s0.1-0.5,0.3-0.7c0.4-0.4,1-0.4,1.4,0
							c0.2,0.2,0.3,0.4,0.3,0.7s-0.1,0.5-0.3,0.7C108.1,66.5,107.8,66.6,107.5,66.6z"/>
					</g>
					<g>
						<path class="st1" d="M78.4,49.8c-0.1,0-0.1,0-0.2,0s-0.1,0-0.2-0.1c-0.1,0-0.1-0.1-0.2-0.1s-0.1-0.1-0.2-0.1
							c-0.1-0.1-0.2-0.2-0.2-0.3s-0.1-0.3-0.1-0.4c0-0.1,0-0.3,0.1-0.4c0.1-0.1,0.1-0.2,0.2-0.3c0.1,0,0.1-0.1,0.2-0.1
							s0.1-0.1,0.2-0.1s0.1-0.1,0.2-0.1c0.3-0.1,0.7,0,0.9,0.3c0.1,0.1,0.2,0.2,0.2,0.3s0.1,0.2,0.1,0.4c0,0.1,0,0.3-0.1,0.4
							c-0.1,0.1-0.1,0.2-0.2,0.3C78.9,49.7,78.7,49.8,78.4,49.8z"/>
						<path class="st1" d="M77.4,44.5c0-0.6,0.4-1,1-1l0,0c0.5,0,1,0.4,1,1l0,0c0,0.6-0.5,1-1,1l0,0C77.9,45.5,77.4,45,77.4,44.5z"
							/>
						<path class="st1" d="M78.4,41.2c-0.1,0-0.1,0-0.2,0s-0.1,0-0.2-0.1c-0.1,0-0.1-0.1-0.2-0.1s-0.1-0.1-0.2-0.1l-0.1-0.1
							c0-0.1-0.1-0.1-0.1-0.2c0-0.1,0-0.1-0.1-0.2c0-0.1,0-0.1,0-0.2c0-0.1,0-0.3,0.1-0.4c0.1-0.1,0.1-0.2,0.2-0.3s0.1-0.1,0.2-0.1
							s0.1-0.1,0.2-0.1s0.1,0,0.2,0c0.2,0,0.4,0,0.6,0c0.1,0.1,0.2,0.1,0.3,0.2c0.1,0.1,0.2,0.2,0.2,0.3s0.1,0.3,0.1,0.4
							c0,0.1,0,0.1,0,0.2c0,0.1,0,0.1-0.1,0.2c0,0.1-0.1,0.1-0.1,0.2c0,0.1-0.1,0.1-0.1,0.1C79,41,78.9,41,78.8,41.1
							C78.7,41.1,78.6,41.2,78.4,41.2z"/>
					</g>
					<g>
						<path class="st2" d="M108.6,75.9L67.9,52.4c-2.2-1.2-5.7-1.2-7.8,0L19.4,75.9H5v9.7c0,0.8,0.5,1.6,1.6,2.3l53.5,30.9
							c2.2,1.2,5.7,1.2,7.8,0l53.5-30.9c1.1-0.6,1.6-1.4,1.6-2.3v-9.7H108.6z"/>
						<path class="st3" d="M64,120.6c-1.6,0-3.2-0.4-4.4-1.1L6.1,88.6C4.8,87.9,4,86.7,4,85.5v-9.7c0-0.6,0.4-1,1-1h14.2l40.4-23.3
							c2.5-1.4,6.3-1.4,8.8,0l40.4,23.3H123c0.6,0,1,0.4,1,1v9.7c0,1.2-0.8,2.3-2.1,3.1l-53.5,30.9C67.2,120.2,65.6,120.6,64,120.6z
							 M6,76.9v8.7c0,0.5,0.4,1,1.1,1.4l53.5,30.9c1.8,1.1,5,1.1,6.8,0L120.9,87c0.7-0.4,1.1-0.9,1.1-1.4v-8.7h-13.4
							c-0.2,0-0.3,0-0.5-0.1L67.4,53.3c-1.8-1.1-5-1.1-6.8,0L19.9,76.7c-0.2,0.1-0.3,0.1-0.5,0.1H6V76.9z"/>
					</g>
					<path class="st3" d="M67.9,118.7l53.5-30.9c1.1-0.6,1.6-1.4,1.6-2.3v-9.7h-14.4L67.9,52.4c-1.1-0.6-2.5-0.9-3.9-0.9v68.1
						C65.4,119.6,66.8,119.3,67.9,118.7z"/>
					<g>
						<path class="st4" d="M121.4,78.1L67.9,109c-2.2,1.2-5.7,1.2-7.8,0L6.6,78.1c-2.2-1.2-2.2-3.3,0-4.5l53.5-30.9
							c2.2-1.2,5.7-1.2,7.8,0l53.5,30.9C123.5,74.9,123.5,76.9,121.4,78.1z"/>
						<path class="st3" d="M64,110.9c-1.6,0-3.2-0.4-4.4-1.1L6.1,79C4.8,78.2,4,77.1,4,75.9s0.8-2.3,2.1-3.1l53.5-30.9
							c2.5-1.4,6.3-1.4,8.8,0l53.5,30.9c1.4,0.8,2.1,1.9,2.1,3.1s-0.8,2.3-2.1,3.1l-53.5,30.9C67.2,110.6,65.6,110.9,64,110.9z
							 M64,42.8c-1.2,0-2.5,0.3-3.4,0.8L7.1,74.5C6.4,74.9,6,75.4,6,75.9s0.4,1,1.1,1.4l53.5,30.9c1.8,1.1,5,1.1,6.8,0l53.5-30.9
							c0.7-0.4,1.1-0.9,1.1-1.4s-0.4-1-1.1-1.4L67.4,43.6C66.5,43.1,65.2,42.8,64,42.8z M121.4,78.1L121.4,78.1L121.4,78.1z"/>
					</g>
					<g>
						<path class="st0" d="M45.6,52.1c-0.3,0-0.5-0.1-0.7-0.3s-0.3-0.4-0.3-0.7s0.1-0.5,0.3-0.7c0.3-0.3,0.7-0.4,1.1-0.2
							c0.1,0,0.2,0.1,0.3,0.2c0.2,0.2,0.3,0.4,0.3,0.7s-0.1,0.5-0.3,0.7C46.1,52,45.9,52.1,45.6,52.1z"/>
						<path class="st0" d="M44.6,69.7c0-0.6,0.4-1,1-1l0,0c0.5,0,1,0.4,1,1l0,0c0,0.6-0.5,1-1,1l0,0C45,70.7,44.6,70.3,44.6,69.7z
							 M44.6,63.5c0-0.6,0.4-1,1-1l0,0c0.5,0,1,0.4,1,1l0,0c0,0.6-0.5,1-1,1l0,0C45,64.5,44.6,64.1,44.6,63.5z M44.6,57.3
							c0-0.6,0.4-1,1-1l0,0c0.5,0,1,0.4,1,1l0,0c0,0.6-0.5,1-1,1l0,0C45,58.3,44.6,57.9,44.6,57.3z"/>
						<path class="st0" d="M45.6,76.9c-0.3,0-0.5-0.1-0.7-0.3c-0.2-0.2-0.3-0.4-0.3-0.7c0-0.3,0.1-0.5,0.3-0.7c0.4-0.4,1-0.4,1.4,0
							c0.2,0.2,0.3,0.4,0.3,0.7c0,0.3-0.1,0.5-0.3,0.7c-0.1,0.1-0.2,0.2-0.3,0.2S45.7,76.9,45.6,76.9z"/>
					</g>
					<g>
						<polygon class="st2" points="57.2,88.6 63,101.3 79.1,92 						"/>
						<path class="st3" d="M63,102.3c-0.1,0-0.2,0-0.3,0c-0.3-0.1-0.5-0.3-0.6-0.5L56.2,89c-0.2-0.3-0.1-0.7,0.1-1s0.6-0.4,1-0.4
							l22,3.4c0.4,0.1,0.8,0.4,0.8,0.8s-0.1,0.8-0.5,1.1l-16.1,9.3C63.4,102.2,63.2,102.3,63,102.3z M58.8,89.9l4.6,10l12.7-7.3
							L58.8,89.9z"/>
					</g>
					<g>
						<polygon class="st2" points="55.9,54.5 53.7,62.5 66.2,66.2 76.2,60.5 69.8,53.2 						"/>
						<path class="st3" d="M66.2,67.2c-0.1,0-0.2,0-0.3,0l-12.5-3.7c-0.5-0.2-0.8-0.7-0.7-1.2l2.2-8c0.1-0.4,0.5-0.7,0.9-0.7
							l13.9-1.3c0.3,0,0.6,0.1,0.8,0.3l6.4,7.2c0.2,0.2,0.3,0.5,0.2,0.8c0,0.3-0.2,0.6-0.5,0.7l-10,5.7
							C66.6,67.2,66.4,67.2,66.2,67.2z M54.9,61.9l11.2,3.3l8.5-4.9l-5.2-5.9l-12.7,1.2L54.9,61.9z"/>
					</g>
					<g>
						<polygon class="st3" points="55.9,56.5 69.8,55.2 75,61.2 76.2,60.5 69.8,53.2 55.9,54.5 53.7,62.5 54.2,62.7 						"/>
						<path class="st3" d="M54.2,63.7c-0.1,0-0.2,0-0.3,0l-0.5-0.1c-0.5-0.2-0.8-0.7-0.7-1.2l2.2-8c0.1-0.4,0.5-0.7,0.9-0.7
							l13.9-1.3c0.3,0,0.6,0.1,0.8,0.3l6.4,7.2c0.2,0.2,0.3,0.5,0.2,0.8c0,0.3-0.2,0.6-0.5,0.7L75.5,62c-0.4,0.2-0.9,0.2-1.2-0.2
							l-4.9-5.5l-12.7,1.2L55.1,63c-0.1,0.3-0.2,0.5-0.5,0.6C54.5,63.7,54.3,63.7,54.2,63.7z"/>
					</g>
					<g>
						<polygon class="st4" points="107.5,28.4 93,36.8 78.4,28.4 93,20 						"/>
						<path class="st5" d="M93,37.8c-0.2,0-0.3,0-0.5-0.1l-14.6-8.4c-0.3-0.2-0.5-0.5-0.5-0.9s0.2-0.7,0.5-0.9l14.6-8.4
							c0.3-0.2,0.7-0.2,1,0l14.6,8.4c0.3,0.2,0.5,0.5,0.5,0.9s-0.2,0.7-0.5,0.9l-14.6,8.4C93.3,37.7,93.2,37.8,93,37.8z M80.4,28.4
							L93,35.6l12.6-7.2L93,21.1L80.4,28.4z"/>
					</g>
					<g>
						<path class="st6" d="M23.9,14.7v10.7c0,1.6,1.1,3.2,3.2,4.4c4.2,2.4,11.1,2.4,15.3,0c2.1-1.2,3.2-2.8,3.2-4.4V14.7H23.9z"/>
						<path class="st5" d="M34.8,32.7c-2.9,0-5.9-0.7-8.2-2c-2.4-1.4-3.7-3.2-3.7-5.3V14.7c0-0.6,0.4-1,1-1h21.7c0.6,0,1,0.4,1,1
							v10.7c0,2-1.3,3.9-3.7,5.3C40.6,32,37.7,32.7,34.8,32.7z M24.9,15.7v9.7c0,1.3,0.9,2.6,2.7,3.6c3.9,2.3,10.4,2.3,14.3,0
							c1.7-1,2.7-2.3,2.7-3.6v-9.7H24.9z"/>
					</g>
					<path class="st5" d="M34.8,31.7c2.8,0,5.5-0.6,7.7-1.8c2.1-1.2,3.2-2.8,3.2-4.4V14.7H34.8V31.7z"/>
					<g>
						<ellipse class="st4" cx="34.8" cy="14.7" rx="10.8" ry="6.3"/>
						<path class="st5" d="M34.8,21.9c-2.9,0-5.9-0.7-8.2-2c-2.4-1.4-3.7-3.2-3.7-5.3c0-2,1.3-3.9,3.7-5.3c4.6-2.6,11.7-2.6,16.3,0
							c2.4,1.4,3.7,3.2,3.7,5.3c0,2-1.3,3.9-3.7,5.3C40.6,21.3,37.7,21.9,34.8,21.9z M34.8,9.4c-2.6,0-5.2,0.6-7.2,1.7
							c-1.7,1-2.7,2.3-2.7,3.6s0.9,2.6,2.7,3.6c3.9,2.3,10.4,2.3,14.3,0c1.7-1,2.7-2.3,2.7-3.6s-0.9-2.6-2.7-3.6l0,0
							C39.9,10,37.4,9.4,34.8,9.4z"/>
					</g>
					<path class="st1" d="M34.8,32.7c-2.9,0-5.9-0.7-8.2-2c-2.4-1.4-3.7-3.2-3.7-5.3V14.7c0-2,1.3-3.9,3.7-5.3
						c4.6-2.6,11.7-2.6,16.3,0l0,0c2.4,1.4,3.7,3.2,3.7,5.3v10.7c0,2-1.3,3.9-3.7,5.3C40.6,32,37.7,32.7,34.8,32.7z M34.8,9.4
						c-2.6,0-5.2,0.6-7.2,1.7c-1.7,1-2.7,2.3-2.7,3.6v10.7c0,1.3,0.9,2.6,2.7,3.6c3.9,2.3,10.4,2.3,14.3,0c1.7-1,2.7-2.3,2.7-3.6
						V14.7c0-1.3-0.9-2.6-2.7-3.6l0,0C39.9,10,37.4,9.4,34.8,9.4z"/>
					<g>
						<polygon class="st5" points="107.5,28.4 107.5,40.2 93,48.6 93,36.8 						"/>
						<path class="st5" d="M93,49.6c-0.2,0-0.3,0-0.5-0.1C92.2,49.3,92,49,92,48.6V36.8c0-0.4,0.2-0.7,0.5-0.9l14.6-8.4
							c0.3-0.2,0.7-0.2,1,0s0.5,0.5,0.5,0.9v11.8c0,0.4-0.2,0.7-0.5,0.9l-14.6,8.4C93.3,49.5,93.2,49.6,93,49.6z M94,37.4v9.5
							l12.6-7.2v-9.5L94,37.4z"/>
					</g>
					<g>
						<polygon class="st6" points="78.4,28.4 78.4,40.2 93,48.6 93,36.8 						"/>
						<path class="st5" d="M93,49.6c-0.2,0-0.3,0-0.5-0.1L77.9,41c-0.3-0.2-0.5-0.5-0.5-0.9V28.4c0-0.4,0.2-0.7,0.5-0.9
							c0.3-0.2,0.7-0.2,1,0l14.6,8.4c0.3,0.2,0.5,0.5,0.5,0.9v11.8c0,0.4-0.2,0.7-0.5,0.9C93.3,49.5,93.2,49.6,93,49.6z M79.4,39.6
							L92,46.8v-9.5l-12.6-7.2V39.6z"/>
					</g>
					<path class="st1" d="M93,49.6c-0.2,0-0.3,0-0.5-0.1L77.9,41c-0.3-0.2-0.5-0.5-0.5-0.9V28.4c0-0.4,0.2-0.7,0.5-0.9l14.6-8.4
						c0.3-0.2,0.7-0.2,1,0l14.6,8.4c0.3,0.2,0.5,0.5,0.5,0.9v11.8c0,0.4-0.2,0.7-0.5,0.9l-14.6,8.4C93.3,49.5,93.2,49.6,93,49.6z
						 M79.4,39.6L93,47.4l13.6-7.8V29L93,21.1L79.4,29V39.6z"/>
					<g>
						<path class="st0" d="M107.5,76.9c-0.3,0-0.5-0.1-0.7-0.3c-0.2-0.2-0.3-0.4-0.3-0.7c0-0.3,0.1-0.5,0.3-0.7c0.4-0.4,1-0.4,1.4,0
							c0.2,0.2,0.3,0.4,0.3,0.7c0,0.3-0.1,0.5-0.3,0.7S107.8,76.9,107.5,76.9z"/>
						<path class="st0" d="M106.5,70.8c0-0.5,0.4-1,1-1l0,0c0.6,0,1,0.5,1,1l0,0c0,0.6-0.4,1-1,1l0,0
							C107,71.8,106.5,71.3,106.5,70.8z"/>
						<path class="st0" d="M107.5,66.6c-0.3,0-0.5-0.1-0.7-0.3c-0.2-0.2-0.3-0.4-0.3-0.7s0.1-0.5,0.3-0.7c0.4-0.4,1-0.4,1.4,0
							c0.2,0.2,0.3,0.4,0.3,0.7s-0.1,0.5-0.3,0.7C108.1,66.5,107.8,66.6,107.5,66.6z"/>
					</g>
					<g>
						<path class="st1" d="M78.4,70.4c-0.1,0-0.1,0-0.2,0s-0.1,0-0.2-0.1c-0.1,0-0.1-0.1-0.2-0.1s-0.1-0.1-0.2-0.1
							c0-0.1-0.1-0.1-0.1-0.2s-0.1-0.1-0.1-0.2s0-0.1-0.1-0.2c0-0.1,0-0.1,0-0.2s0-0.3,0.1-0.4s0.1-0.2,0.2-0.3
							c0.1,0,0.1-0.1,0.2-0.1s0.1-0.1,0.2-0.1s0.1,0,0.2-0.1c0.2,0,0.4,0,0.6,0.1c0.1,0.1,0.2,0.1,0.3,0.2c0.1,0.1,0.2,0.2,0.2,0.3
							c0,0.1,0.1,0.2,0.1,0.4c0,0.1,0,0.1,0,0.2s0,0.1-0.1,0.2c0,0.1-0.1,0.1-0.1,0.2s-0.1,0.1-0.1,0.2c-0.1,0.1-0.2,0.2-0.3,0.2
							C78.7,70.4,78.6,70.4,78.4,70.4z"/>
						<path class="st1" d="M77.4,62.4c0-0.6,0.4-1,1-1l0,0c0.5,0,1,0.4,1,1l0,0c0,0.6-0.5,1-1,1l0,0C77.9,63.4,77.4,62.9,77.4,62.4z
							"/>
						<path class="st1" d="M78.4,56.3c-0.1,0-0.1,0-0.2,0s-0.1,0-0.2-0.1c-0.1,0-0.1-0.1-0.2-0.1S77.7,56,77.6,56l-0.1-0.1
							c0-0.1-0.1-0.1-0.1-0.2c0-0.1,0-0.1-0.1-0.2c0-0.1,0-0.1,0-0.2c0-0.1,0-0.3,0.1-0.4c0.1-0.1,0.1-0.2,0.2-0.3
							c0.1,0,0.1-0.1,0.2-0.1s0.1-0.1,0.2-0.1s0.1-0.1,0.2-0.1c0.2,0,0.4,0,0.6,0.1c0.1,0.1,0.2,0.1,0.3,0.2
							c0.1,0.1,0.2,0.2,0.2,0.3s0.1,0.2,0.1,0.4c0,0.1,0,0.1,0,0.2c0,0.1,0,0.1-0.1,0.2c0,0.1-0.1,0.1-0.1,0.2
							c0,0.1-0.1,0.1-0.1,0.1c-0.1,0.1-0.2,0.2-0.3,0.2C78.7,56.3,78.6,56.3,78.4,56.3z"/>
					</g>
					<g>
						<path class="st0" d="M45.6,33.9c-0.3,0-0.5-0.1-0.7-0.3s-0.3-0.4-0.3-0.7s0.1-0.5,0.3-0.7c0.4-0.4,1-0.4,1.4,0
							c0.2,0.2,0.3,0.4,0.3,0.7s-0.1,0.5-0.3,0.7c-0.1,0.1-0.2,0.2-0.3,0.2S45.7,33.9,45.6,33.9z"/>
						<path class="st0" d="M44.6,45c0-0.6,0.4-1,1-1l0,0c0.5,0,1,0.4,1,1l0,0c0,0.6-0.5,1-1,1l0,0C45,46,44.6,45.6,44.6,45z
							 M44.6,39c0-0.6,0.4-1,1-1l0,0c0.5,0,1,0.4,1,1l0,0c0,0.6-0.5,1-1,1l0,0C45,40,44.6,39.5,44.6,39z"/>
						<path class="st0" d="M45.6,52.1c-0.3,0-0.5-0.1-0.7-0.3s-0.3-0.4-0.3-0.7s0.1-0.5,0.3-0.7c0.3-0.3,0.7-0.4,1.1-0.2
							c0.1,0,0.2,0.1,0.3,0.2c0.2,0.2,0.3,0.4,0.3,0.7s-0.1,0.5-0.3,0.7C46.1,52,45.9,52.1,45.6,52.1z"/>
					</g>
					<g>
						<path class="st1" d="M23.9,33.9c-0.1,0-0.3,0-0.4-0.1s-0.2-0.1-0.3-0.2c-0.2-0.2-0.3-0.4-0.3-0.7c0-0.1,0-0.3,0.1-0.4
							c0.1-0.1,0.1-0.2,0.2-0.3s0.2-0.2,0.3-0.2c0.4-0.2,0.8-0.1,1.1,0.2c0.1,0.1,0.2,0.2,0.2,0.3s0.1,0.2,0.1,0.4
							c0,0.3-0.1,0.5-0.3,0.7C24.4,33.8,24.2,33.9,23.9,33.9z"/>
						<path class="st1" d="M22.9,57.5c0-0.6,0.4-1,1-1l0,0c0.5,0,1,0.4,1,1l0,0c0,0.5-0.5,1-1,1l0,0C23.4,58.5,22.9,58,22.9,57.5z
							 M22.9,51.3c0-0.6,0.4-1,1-1l0,0c0.5,0,1,0.4,1,1l0,0c0,0.6-0.5,1-1,1l0,0C23.4,52.3,22.9,51.9,22.9,51.3z M22.9,45.2
							c0-0.6,0.4-1,1-1l0,0c0.5,0,1,0.4,1,1l0,0c0,0.5-0.5,1-1,1l0,0C23.4,46.2,22.9,45.7,22.9,45.2z M22.9,39c0-0.6,0.4-1,1-1l0,0
							c0.5,0,1,0.4,1,1l0,0c0,0.6-0.5,1-1,1l0,0C23.4,40,22.9,39.6,22.9,39z"/>
						<path class="st1" d="M23.9,64.6c-0.1,0-0.3,0-0.4-0.1s-0.2-0.1-0.3-0.2c0-0.1-0.1-0.1-0.1-0.1c0-0.1-0.1-0.1-0.1-0.2
							s0-0.1,0-0.2c0-0.1,0-0.1,0-0.2c0-0.3,0.1-0.5,0.3-0.7c0.1-0.1,0.2-0.2,0.3-0.2c0.2-0.1,0.5-0.1,0.8,0c0.1,0,0.2,0.1,0.3,0.2
							c0.2,0.2,0.3,0.4,0.3,0.7c0,0.1,0,0.1,0,0.2c0,0.1,0,0.1-0.1,0.2c0,0.1-0.1,0.1-0.1,0.2s-0.1,0.1-0.1,0.1
							C24.4,64.5,24.2,64.6,23.9,64.6z"/>
					</g>
					<g>
						<path class="st1" d="M23.9,64.6c-0.1,0-0.3,0-0.4-0.1s-0.2-0.1-0.3-0.2c0-0.1-0.1-0.1-0.1-0.1c0-0.1-0.1-0.1-0.1-0.2
							s0-0.1,0-0.2c0-0.1,0-0.1,0-0.2c0-0.3,0.1-0.5,0.3-0.7c0.1-0.1,0.2-0.2,0.3-0.2c0.2-0.1,0.5-0.1,0.8,0c0.1,0,0.2,0.1,0.3,0.2
							c0.2,0.2,0.3,0.4,0.3,0.7c0,0.1,0,0.1,0,0.2c0,0.1,0,0.1-0.1,0.2c0,0.1-0.1,0.1-0.1,0.2s-0.1,0.1-0.1,0.1
							C24.4,64.5,24.2,64.6,23.9,64.6z"/>
						<path class="st1" d="M22.9,69.8c0-0.5,0.4-1,1-1l0,0c0.5,0,1,0.5,1,1l0,0c0,0.6-0.5,1-1,1l0,0C23.4,70.8,22.9,70.3,22.9,69.8z
							"/>
						<path class="st1" d="M23.9,76.9c-0.1,0-0.3,0-0.4-0.1s-0.2-0.1-0.3-0.2c-0.1-0.1-0.2-0.2-0.2-0.3c0-0.1-0.1-0.3-0.1-0.4
							c0-0.3,0.1-0.5,0.3-0.7c0.1-0.1,0.2-0.2,0.3-0.2c0.4-0.1,0.8-0.1,1.1,0.2c0.2,0.2,0.3,0.4,0.3,0.7c0,0.1,0,0.3-0.1,0.4
							s-0.1,0.2-0.2,0.3C24.4,76.8,24.2,76.9,23.9,76.9z"/>
					</g>
					<g>
						<ellipse class="st2" cx="34.8" cy="75.9" rx="10.8" ry="6.3"/>
						<path class="st3" d="M34.8,83.2c-2.9,0-5.9-0.7-8.2-2c-2.4-1.4-3.7-3.2-3.7-5.3c0-2,1.3-3.9,3.7-5.3c4.6-2.6,11.7-2.6,16.3,0
							c2.4,1.4,3.7,3.2,3.7,5.3c0,2-1.3,3.9-3.7,5.3C40.6,82.6,37.7,83.2,34.8,83.2z M34.8,70.7c-2.6,0-5.2,0.6-7.2,1.7
							c-1.7,1-2.7,2.3-2.7,3.6c0,1.3,0.9,2.6,2.7,3.6c3.9,2.3,10.4,2.3,14.3,0c1.7-1,2.7-2.3,2.7-3.6c0-1.3-0.9-2.6-2.7-3.6
							C39.9,71.2,37.4,70.7,34.8,70.7z"/>
					</g>
					<g>
						<polygon class="st2" points="107.5,75.9 93,84.3 78.4,75.9 93,67.5 						"/>
						<path class="st3" d="M93,85.3c-0.2,0-0.3,0-0.5-0.1l-14.6-8.4c-0.3-0.2-0.5-0.5-0.5-0.9s0.2-0.7,0.5-0.9l14.6-8.4
							c0.3-0.2,0.7-0.2,1,0l14.6,8.4c0.3,0.2,0.5,0.5,0.5,0.9s-0.2,0.7-0.5,0.9l-14.6,8.4C93.3,85.3,93.2,85.3,93,85.3z M80.4,75.9
							L93,83.2l12.6-7.2L93,68.7L80.4,75.9z"/>
					</g>
					<g>
						<polygon class="st3" points="76.4,93.6 79.1,92 57.2,88.6 58.2,90.7 						"/>
						<path class="st3" d="M76.4,94.6c-0.1,0-0.1,0-0.2,0L58,91.7c-0.3-0.1-0.6-0.3-0.8-0.6l-1-2.2c-0.2-0.3-0.1-0.7,0.1-1
							s0.6-0.4,1-0.4l22,3.4c0.4,0.1,0.8,0.4,0.8,0.8s-0.1,0.8-0.5,1.1l-2.7,1.6C76.7,94.5,76.6,94.6,76.4,94.6z"/>
					</g>
					<path class="st0" d="M64,120.6c-1.6,0-3.2-0.4-4.4-1.1L6.1,88.6C4.8,87.9,4,86.7,4,85.5v-9.7c0-1.2,0.8-2.3,2.1-3.1l53.5-30.9
						c2.5-1.4,6.3-1.4,8.8,0l53.5,30.9l0,0c1.4,0.8,2.1,1.9,2.1,3.1v9.7c0,1.2-0.8,2.3-2.1,3.1l-53.5,30.9
						C67.2,120.2,65.6,120.6,64,120.6z M64,42.8c-1.2,0-2.5,0.3-3.4,0.8L7.1,74.5C6.4,74.9,6,75.4,6,75.9v9.7c0,0.5,0.4,1,1.1,1.4
						l53.5,30.9c1.8,1.1,5,1.1,6.8,0L120.9,87c0.7-0.4,1.1-0.9,1.1-1.4v-9.7c0-0.5-0.4-1-1.1-1.4L67.4,43.6
						C66.5,43.1,65.2,42.8,64,42.8z"/>
					<g>
						<polygon class="st3" points="93,69.5 105.8,76.9 107.5,75.9 93,67.5 78.4,75.9 80.2,76.9 						"/>
						<path class="st3" d="M105.8,77.9c-0.2,0-0.3,0-0.5-0.1L93,70.7l-12.3,7.1c-0.3,0.2-0.7,0.2-1,0l-1.7-1
							c-0.3-0.2-0.5-0.5-0.5-0.9s0.2-0.7,0.5-0.9l14.6-8.4c0.3-0.2,0.7-0.2,1,0l14.6,8.4c0.3,0.2,0.5,0.5,0.5,0.9s-0.2,0.7-0.5,0.9
							l-1.7,1C106.2,77.9,106,77.9,105.8,77.9z"/>
					</g>
					<g>
						<path class="st3" d="M27.1,73.5c4.2-2.4,11.1-2.4,15.3,0c1.7,1,2.7,2.2,3,3.4c0.5-1.9-0.5-3.9-3-5.4c-4.2-2.4-11.1-2.4-15.3,0
							c-2.6,1.5-3.6,3.5-3,5.4C24.4,75.7,25.4,74.5,27.1,73.5z"/>
						<path class="st3" d="M45.4,77.9L45.4,77.9c-0.4,0-0.8-0.3-1-0.7c-0.3-1.1-1.2-2-2.6-2.8c-3.9-2.3-10.4-2.3-14.3,0l0,0
							c-1.4,0.8-2.3,1.8-2.6,2.8c-0.1,0.4-0.5,0.7-1,0.7l0,0c-0.4,0-0.8-0.3-1-0.7c-0.7-2.5,0.6-4.9,3.5-6.6
							c4.6-2.6,11.7-2.6,16.3,0c2.9,1.7,4.2,4.1,3.5,6.6C46.3,77.6,45.9,77.9,45.4,77.9z M27.1,73.5L27.1,73.5L27.1,73.5z"/>
					</g>
				</g>
				<rect x="4" y="4" class="st7" width="120" height="120"/>
			</g>
		</g>
	</g>
	<g>
		<rect class="st7" width="128" height="128"/>
	</g>
</g>
</svg>
