<?xml version="1.0" encoding="utf-8"?>
<!-- Generator: Adobe Illustrator 24.1.0, SVG Export Plug-In . SVG Version: 6.00 Build 0)  -->
<svg version="1.1" id="Layer_1" xmlns="http://www.w3.org/2000/svg" xmlns:xlink="http://www.w3.org/1999/xlink" x="0px" y="0px"
	 viewBox="0 0 128 128" style="enable-background:new 0 0 128 128;" xml:space="preserve">
<style type="text/css">
	.st0{fill:none;}
	.st1{fill:#E9EBDF;}
	.st2{fill:#4D9987;}
	.st3{fill:#0E352C;}
	.st4{fill:#FFFFFF;}
	.st5{fill:#C4D7D3;}
	.st6{fill:#27ae60;}
	.st7{fill:#185849;}
</style>
<g id="Layer_1_1_">
</g>
<g>
	<g id="Layer_2_1_">
		<g id="Objects_1_">
			<g>
				<rect x="4" y="4" class="st0" width="120" height="120"/>
				<g>
					<g>
						<g>
							<g>
								<path class="st1" d="M60.6,63.1H38.7V70c0,0.5,0.1,1,0.3,1.5l0,0l2.1,4.8l0,0c1,2.2,4.4,3.9,8.6,3.9s7.6-1.7,8.6-3.9l0,0
									l2.1-4.8l0,0c0.2-0.5,0.3-1,0.3-1.5L60.6,63.1L60.6,63.1z"/>
								<path class="st2" d="M49.6,80.1c4.1,0,7.6-1.7,8.6-3.9l0,0l2.1-4.8l0,0c0.2-0.5,0.3-1,0.3-1.5V63h-11
									C49.6,63,49.6,80.1,49.6,80.1z"/>
								<path class="st3" d="M49.6,76.2c-6.7,0-12-3.2-12-7.3c0-0.6,0.4-1,1-1s1,0.4,1,1c0,2.9,4.6,5.3,10,5.3s10-2.4,10-5.3
									c0-0.6,0.4-1,1-1s1,0.4,1,1C61.6,73,56.4,76.2,49.6,76.2z"/>
								<path class="st3" d="M49.6,81.1c-4.4,0-8.2-1.7-9.4-4.3l-0.1-0.1L38,71.9c0-0.1,0-0.1-0.1-0.2c-0.2-0.6-0.3-1.2-0.3-1.8V63
									c0-0.6,0.4-1,1-1h21.9c0.6,0,1,0.4,1,1v6.9c0,0.6-0.1,1.2-0.3,1.8c0,0.1,0,0.1-0.1,0.2L59,76.7c0,0,0,0.1-0.1,0.1
									C57.9,79.4,54.1,81.1,49.6,81.1z M41.9,75.7C41.9,75.7,41.9,75.8,41.9,75.7c0.8,1.7,3.7,3.4,7.8,3.4s7-1.6,7.7-3.3
									c0,0,0-0.1,0.1-0.1l1.9-4.5c0-0.1,0-0.1,0.1-0.1c0.2-0.4,0.3-0.8,0.3-1.1v-5.9H39.7V70c0,0.4,0.1,0.7,0.3,1.1
									c0,0,0,0.1,0.1,0.1L41.9,75.7z"/>
								<path class="st4" d="M75.9,31.3C75.9,16.1,63,3.9,47.6,5.1c-13.1,1-23.5,11.7-24.2,24.8c-0.5,9.4,4,17.8,11.1,22.8
									c2.7,1.9,4.2,5.1,4.2,8.4V63l0,0v0.1c0,3.5,4.9,6.3,11,6.3s11-2.8,11-6.3V63l0,0v-2c0-3.3,1.6-6.4,4.3-8.3
									C71.6,47.9,75.9,40.1,75.9,31.3z"/>
								<path class="st3" d="M49.6,70.4c-6.7,0-12-3.2-12-7.3l0,0c0,0,0,0,0-0.1v-1.9c0-3-1.4-5.9-3.8-7.5
									c-7.7-5.4-12-14.3-11.5-23.7C23.1,16.2,33.9,5.1,47.6,4.1c7.7-0.6,15,2,20.6,7.2c5.5,5.1,8.7,12.4,8.7,20
									c0,8.8-4.3,17.1-11.5,22.2C63,55.2,61.6,58,61.6,61v2c0,0,0,0,0,0.1l0,0C61.6,67.2,56.4,70.4,49.6,70.4z M39.7,62.9
									c0,0.1,0,0.1,0,0.2v0.1c0,2.8,4.6,5.3,10,5.3s10-2.4,10-5.3v-0.1l0,0v-2c0-3.6,1.8-7.1,4.7-9.1C71.1,47.3,75,39.6,75,31.4
									c0-7-2.9-13.8-8.1-18.5c-5.2-4.8-12-7.2-19.1-6.7C35.1,7,25.1,17.3,24.4,29.9c-0.5,8.7,3.5,16.9,10.6,22
									c2.9,2.1,4.6,5.5,4.6,9.2v1.8H39.7z"/>
								<path class="st4" d="M49.6,67.4c5,0,8.8-2.2,8.9-4.2v-0.1c0-0.1,0-0.2,0-0.3v-1.7c0-4,1.9-7.8,5.1-10
									c6.8-4.8,10.6-12.7,10.2-21.1C73.2,17.9,63.6,8,51.5,7.1c-0.6,0-1.2-0.1-1.9-0.1C36.2,7,25.4,17.9,25.4,31.2
									c0,7.8,3.8,15.2,10.2,19.7c3.2,2.3,5.1,6,5.1,10v1.8c0,0.1,0,0.1,0,0.2V63C40.8,65.1,44.6,67.4,49.6,67.4z"/>
								<path class="st1" d="M49.6,19.7v33.1c0,2.4-1.6,4.4-3.8,5.2S42,60.2,42,61.8c0,2.4,3.4,4.4,7.6,4.4s7.6-2,7.6-4.4l0,0l0,0
									V61c0-4.4,2.1-8.5,5.7-11.1c6-4.3,9.6-11.3,9.6-18.7c0-7.5-3.7-14.3-9.3-18.4S49.6,12.7,49.6,19.7z"/>
							</g>
							
								<ellipse transform="matrix(0.7071 -0.7071 0.7071 0.7071 -2.4462 31.4691)" class="st1" cx="36.8" cy="18.7" rx="4.9" ry="2.9"/>
						</g>
					</g>
					<g>
						<path class="st3" d="M23.1,49.4c-0.1,0-0.1,0-0.2,0s-0.1,0-0.2-0.1c-0.1,0-0.1-0.1-0.2-0.1l-0.1-0.1c0-0.1-0.1-0.1-0.1-0.2
							c0-0.1-0.1-0.1-0.1-0.2c0-0.1,0-0.1-0.1-0.2c0-0.1,0-0.1,0-0.2c0-0.3,0.1-0.5,0.3-0.7l0.1-0.1c0.1,0,0.1-0.1,0.2-0.1
							s0.1,0,0.2-0.1c0.3-0.1,0.7,0,0.9,0.3c0.2,0.2,0.3,0.4,0.3,0.7c0,0.1,0,0.1,0,0.2c0,0.1,0,0.1-0.1,0.2c0,0.1-0.1,0.1-0.1,0.2
							c0,0-0.1,0.1-0.1,0.2c-0.1,0.1-0.2,0.2-0.3,0.2C23.4,49.4,23.2,49.4,23.1,49.4z"/>
						<path class="st3" d="M28,100.7c-0.1-0.5,0.3-1,0.9-1.1l0,0c0.5-0.1,1,0.3,1.1,0.9l0,0c0.1,0.5-0.3,1-0.9,1.1l0,0H29l0,0
							C28.5,101.6,28.1,101.3,28,100.7z M27.4,94.9c-0.1-0.5,0.3-1,0.9-1.1l0,0c0.5-0.1,1,0.3,1.1,0.9l0,0c0.1,0.6-0.3,1-0.9,1.1
							l0,0h-0.1l0,0C27.9,95.8,27.4,95.4,27.4,94.9z M26.7,89.1c-0.1-0.5,0.3-1,0.9-1.1l0,0c0.6-0.1,1.1,0.3,1.1,0.9l0,0
							c0.1,0.6-0.3,1-0.9,1.1l0,0h-0.1l0,0C27.2,90,26.8,89.7,26.7,89.1z M26.1,83.3c-0.1-0.5,0.3-1,0.9-1.1l0,0
							c0.6-0.1,1.1,0.3,1.1,0.9l0,0c0.1,0.5-0.3,1-0.9,1.1l0,0h-0.1l0,0C26.5,84.2,26.1,83.8,26.1,83.3z M25.4,77.5
							c-0.1-0.5,0.3-1,0.9-1.1l0,0c0.5-0.1,1,0.3,1.1,0.9l0,0c0.1,0.6-0.3,1-0.9,1.1l0,0h-0.1l0,0C25.9,78.4,25.5,78.1,25.4,77.5z
							 M24.7,71.7c-0.1-0.5,0.3-1,0.9-1.1l0,0c0.6-0.1,1.1,0.3,1.1,0.9l0,0c0.1,0.5-0.3,1-0.9,1.1l0,0h-0.1l0,0
							C25.2,72.6,24.8,72.3,24.7,71.7z M24.1,65.9c-0.1-0.5,0.3-1,0.9-1.1l0,0c0.6-0.1,1.1,0.3,1.1,0.9l0,0c0.1,0.6-0.3,1-0.9,1.1
							l0,0h-0.1l0,0C24.6,66.8,24.1,66.4,24.1,65.9z M23.4,60.1c-0.1-0.6,0.3-1.1,0.9-1.1l0,0c0.5-0.1,1,0.3,1.1,0.9l0,0
							c0.1,0.6-0.3,1-0.9,1.1l0,0h-0.1l0,0C23.9,61,23.5,60.7,23.4,60.1z M22.8,54.3c-0.1-0.5,0.3-1,0.9-1.1l0,0
							c0.5-0.1,1,0.3,1.1,0.9l0,0c0.1,0.5-0.3,1-0.9,1.1l0,0h-0.1l0,0C23.2,55.2,22.8,54.8,22.8,54.3z"/>
						<path class="st3" d="M29.7,107.4c-0.3,0-0.5-0.1-0.7-0.3c-0.1-0.1-0.2-0.2-0.2-0.3c0-0.1-0.1-0.2-0.1-0.4
							c0-0.3,0.1-0.5,0.3-0.7c0.4-0.4,1-0.4,1.4,0c0.2,0.2,0.3,0.4,0.3,0.7s-0.1,0.5-0.3,0.7C30.2,107.3,30,107.4,29.7,107.4z"/>
					</g>
					<g>
						<g>
							<g>
								<path class="st5" d="M93.5,66.6l-7.2-4.2c-0.9-0.5-2.3-0.5-3.2,0l-7.2,4.2H64.8v27.7c0,0.3,0.2,0.7,0.7,0.9l17.6,10.2
									c0.9,0.5,2.3,0.5,3.2,0L104,95.3c0.4-0.3,0.7-0.6,0.7-0.9V66.6H93.5z"/>
								<path class="st6" d="M80.8,105.3L69,98.5V82.2c0-0.9,0.4-1.6,1-2c0.6-0.3,1.3-0.3,1.9,0.1l7,4l0,0c1.1,0.6,1.9,2.1,1.9,3.5
									V105.3z M71,97.3l7.8,4.5V87.9c0-0.7-0.5-1.5-0.9-1.8l0,0l-6.9-4v0.1V97.3z"/>
								<path class="st6" d="M86.3,105.5L104,95.3c0.4-0.3,0.7-0.6,0.7-0.9V66.6H93.5l-7.2-4.2c-0.4-0.3-1-0.4-1.6-0.4v43.8
									C85.3,105.9,85.9,105.7,86.3,105.5z"/>
								<g>
									<g>
										<path class="st5" d="M89.9,83.6c-0.3,0-0.5-0.1-0.7-0.3c-0.2-0.2-0.3-0.4-0.3-0.7c0-0.3,0.1-0.5,0.3-0.7
											c0.4-0.4,1-0.4,1.4,0c0.1,0.1,0.2,0.2,0.2,0.3c0,0.1,0.1,0.3,0.1,0.4s0,0.3-0.1,0.4s-0.1,0.2-0.2,0.3
											C90.4,83.5,90.1,83.6,89.9,83.6z"/>
										<path class="st7" d="M93.3,81.6c-0.3,0-0.7-0.2-0.9-0.5c-0.3-0.5-0.1-1.1,0.4-1.4l7.1-4.1c0.5-0.3,1.1-0.1,1.4,0.4
											s0.1,1.1-0.4,1.4l-7.1,4.1C93.7,81.6,93.5,81.6,93.3,81.6z"/>
									</g>
									<g>
										<path class="st5" d="M89.9,90.5c-0.1,0-0.3,0-0.4-0.1s-0.2-0.1-0.3-0.2c-0.2-0.2-0.3-0.4-0.3-0.7c0-0.1,0-0.3,0.1-0.4
											s0.1-0.2,0.2-0.3c0.4-0.4,1-0.4,1.4,0c0.1,0.1,0.2,0.2,0.2,0.3c0,0.1,0.1,0.2,0.1,0.4c0,0.1,0,0.3-0.1,0.4
											s-0.1,0.2-0.2,0.3C90.4,90.4,90.1,90.5,89.9,90.5z"/>
										<path class="st7" d="M93.3,88.5c-0.3,0-0.7-0.2-0.9-0.5c-0.3-0.5-0.1-1.1,0.4-1.4l7.1-4.1c0.5-0.3,1.1-0.1,1.4,0.4
											s0.1,1.1-0.4,1.4l-7.1,4.1C93.7,88.5,93.5,88.5,93.3,88.5z"/>
									</g>
									<g>
										<path class="st5" d="M89.9,97.5c-0.3,0-0.5-0.1-0.7-0.3c-0.2-0.2-0.3-0.4-0.3-0.7s0.1-0.5,0.3-0.7c0.4-0.4,1-0.4,1.4,0
											c0.1,0.1,0.2,0.2,0.2,0.3c0,0.1,0.1,0.2,0.1,0.4s0,0.3-0.1,0.4s-0.1,0.2-0.2,0.3C90.4,97.4,90.1,97.5,89.9,97.5z"/>
										<path class="st7" d="M93.3,95.5c-0.3,0-0.7-0.2-0.9-0.5c-0.3-0.5-0.1-1.1,0.4-1.4l7.1-4.1c0.5-0.3,1.1-0.1,1.4,0.4
											s0.1,1.1-0.4,1.4l-7.1,4.1C93.7,95.4,93.5,95.5,93.3,95.5z"/>
									</g>
								</g>
								<g>
									<path class="st4" d="M104,65.7L86.3,55.5c-0.9-0.5-2.3-0.5-3.2,0L65.5,65.7c-0.9,0.5-0.9,1.3,0,1.9l17.6,10.2
										c0.9,0.5,2.3,0.5,3.2,0L104,67.5C104.9,67,104.9,66.2,104,65.7z"/>
									<path class="st6" d="M84.7,79.1c-0.8,0-1.5-0.2-2.1-0.5L65,68.4c-0.7-0.4-1.2-1.1-1.2-1.8s0.4-1.4,1.2-1.8l17.6-10.2
										c1.2-0.7,3-0.7,4.2,0l17.6,10.2c0.7,0.4,1.2,1.1,1.2,1.8s-0.4,1.4-1.2,1.8L86.8,78.6C86.2,78.9,85.5,79.1,84.7,79.1z
										 M65.9,66.6C65.9,66.6,66,66.7,65.9,66.6l17.7,10.2c0.6,0.3,1.6,0.3,2.2,0l17.6-10.2c0,0,0.1,0,0.1-0.1c0,0-0.1,0-0.1-0.1
										l-17.6-10c-0.6-0.3-1.6-0.3-2.2,0L65.9,66.6C66,66.6,65.9,66.6,65.9,66.6z"/>
								</g>
								<g>
									<path class="st5" d="M93.3,66.2l-7.9-4.5c-0.4-0.2-1-0.2-1.4,0l-7.9,4.5c-0.4,0.2-0.4,0.6,0,0.8l7.9,4.5
										c0.4,0.2,1,0.2,1.4,0l7.9-4.5C93.7,66.8,93.7,66.4,93.3,66.2z"/>
									<path class="st5" d="M84.7,72.7c-0.4,0-0.9-0.1-1.2-0.3l-7.9-4.5c-0.5-0.3-0.8-0.8-0.8-1.3s0.3-1,0.8-1.3l7.9-4.5
										c0.7-0.4,1.7-0.4,2.4,0l7.9,4.5l0,0c0.5,0.3,0.8,0.8,0.8,1.3s-0.3,1-0.8,1.3l-7.9,4.5C85.6,72.6,85.2,72.7,84.7,72.7z
										 M77.4,66.6l7.1,4.1c0.1,0,0.3,0,0.4,0l7.1-4.1l-7.1-4.1c-0.1,0-0.3,0-0.4,0L77.4,66.6z M92.8,67.1L92.8,67.1L92.8,67.1z"
										/>
								</g>
							</g>
						</g>
						<path class="st7" d="M84.7,106.9c-0.8,0-1.5-0.2-2.1-0.5L65,96.2c-0.7-0.4-1.2-1.1-1.2-1.8V66.6c0-0.7,0.4-1.4,1.2-1.8
							l17.6-10.2c1.2-0.7,3-0.7,4.2,0l17.6,10.2l0,0c0.7,0.4,1.2,1.1,1.2,1.8v27.7c0,0.7-0.4,1.4-1.2,1.8l-17.6,10.2
							C86.3,106.7,85.5,106.9,84.7,106.9z M65.8,94.3c0,0,0.1,0,0.2,0.1l17.6,10.2c0.6,0.3,1.7,0.3,2.2,0l17.6-10.2
							c0.1-0.1,0.2-0.1,0.2-0.1V66.7c0,0-0.1,0-0.2-0.1L85.8,56.4c-0.6-0.3-1.6-0.3-2.2,0L66,66.6c-0.1,0.1-0.2,0.1-0.2,0.1V94.3
							L65.8,94.3z"/>
					</g>
					<g>
						<g>
							<g>
								<g>
									<path class="st5" d="M63.8,83.8l-7.2-4.2c-0.9-0.5-2.3-0.5-3.2,0l-7.2,4.2H35.1v27.7c0,0.3,0.2,0.7,0.7,0.9l17.6,10.2
										c0.9,0.5,2.3,0.5,3.2,0l17.6-10.2c0.4-0.3,0.7-0.6,0.7-0.9V83.8H63.8z"/>
									<path class="st6" d="M51.1,122.4l-11.8-6.8V99.4c0-0.9,0.4-1.6,1-2c0.6-0.3,1.3-0.3,1.9,0.1l7,4c1.1,0.6,1.9,2.1,1.9,3.5
										C51.1,105,51.1,122.4,51.1,122.4z M41.3,114.5l7.8,4.5v-14c0-0.7-0.5-1.5-0.9-1.8l-6.9-4v0.1
										C41.3,99.3,41.3,114.5,41.3,114.5z"/>
									<path class="st6" d="M56.6,122.6l17.6-10.2c0.4-0.3,0.7-0.6,0.7-0.9V83.8H63.8l-7.2-4.2c-0.4-0.3-1-0.4-1.6-0.4V123
										C55.6,123,56.2,122.9,56.6,122.6z"/>
									<g>
										<g>
											<path class="st5" d="M60.1,100.7c-0.3,0-0.5-0.1-0.7-0.3c-0.1-0.1-0.2-0.2-0.2-0.3c0-0.1-0.1-0.2-0.1-0.4
												c0-0.1,0-0.1,0-0.2s0-0.1,0.1-0.2c0-0.1,0.1-0.1,0.1-0.2c0,0,0.1-0.1,0.1-0.2c0.3-0.3,0.7-0.4,1.1-0.2
												c0.1,0.1,0.2,0.1,0.3,0.2c0.2,0.2,0.3,0.4,0.3,0.7c0,0.1,0,0.3-0.1,0.4c0,0.1-0.1,0.2-0.2,0.3c-0.1,0.1-0.2,0.2-0.3,0.2
												C60.4,100.7,60.3,100.7,60.1,100.7z"/>
											<path class="st7" d="M63.6,98.7c-0.3,0-0.7-0.2-0.9-0.5c-0.3-0.5-0.1-1.1,0.4-1.4l7.1-4.1c0.5-0.3,1.1-0.1,1.4,0.4
												s0.1,1.1-0.4,1.4l-7.1,4.1C64,98.7,63.8,98.7,63.6,98.7z"/>
										</g>
										<g>
											<path class="st5" d="M60.1,107.7c-0.3,0-0.5-0.1-0.7-0.3l-0.1-0.1c0-0.1-0.1-0.1-0.1-0.2s0-0.1-0.1-0.2
												c0-0.1,0-0.1,0-0.2c0-0.3,0.1-0.5,0.3-0.7c0.3-0.3,0.7-0.4,1.1-0.2c0.1,0,0.2,0.1,0.3,0.2c0.2,0.2,0.3,0.4,0.3,0.7
												c0,0.3-0.1,0.5-0.3,0.7c-0.1,0.1-0.2,0.2-0.3,0.2C60.4,107.7,60.3,107.7,60.1,107.7z"/>
											<path class="st7" d="M63.6,105.7c-0.3,0-0.7-0.2-0.9-0.5c-0.3-0.5-0.1-1.1,0.4-1.4l7.1-4.1c0.5-0.3,1.1-0.1,1.4,0.4
												s0.1,1.1-0.4,1.4l-7.1,4.1C64,105.6,63.8,105.7,63.6,105.7z"/>
										</g>
										<g>
											<path class="st5" d="M60.1,114.6c-0.3,0-0.5-0.1-0.7-0.3c0-0.1-0.1-0.1-0.1-0.2s-0.1-0.1-0.1-0.2s0-0.1-0.1-0.2
												c0-0.1,0-0.1,0-0.2s0-0.3,0.1-0.4s0.1-0.2,0.2-0.3c0.3-0.3,0.7-0.4,1.1-0.2c0.1,0.1,0.2,0.1,0.3,0.2s0.2,0.2,0.2,0.3
												c0.1,0.1,0.1,0.2,0.1,0.4c0,0.3-0.1,0.5-0.3,0.7c-0.1,0.1-0.2,0.2-0.3,0.2C60.4,114.6,60.3,114.6,60.1,114.6z"/>
											<path class="st7" d="M63.6,112.6c-0.3,0-0.7-0.2-0.9-0.5c-0.3-0.5-0.1-1.1,0.4-1.4l7.1-4.1c0.5-0.3,1.1-0.1,1.4,0.4
												s0.1,1.1-0.4,1.4l-7.1,4.1C64,112.6,63.8,112.6,63.6,112.6z"/>
										</g>
									</g>
									<g>
										<path class="st4" d="M74.3,82.8L56.6,72.7c-0.9-0.5-2.3-0.5-3.2,0L35.8,82.8c-0.9,0.5-0.9,1.3,0,1.9l17.6,10.2
											c0.9,0.5,2.3,0.5,3.2,0l17.6-10.2C75.1,84.2,75.1,83.4,74.3,82.8z"/>
										<path class="st6" d="M55,96.3c-0.8,0-1.5-0.2-2.1-0.5L35.3,85.6c-0.7-0.4-1.2-1.1-1.2-1.8s0.4-1.4,1.2-1.8l17.6-10.2
											c1.2-0.7,3-0.7,4.2,0L74.8,82c0.7,0.4,1.2,1.1,1.2,1.8s-0.4,1.4-1.2,1.8L57.1,95.7C56.5,96.1,55.8,96.3,55,96.3z
											 M36.2,83.8C36.2,83.8,36.3,83.8,36.2,83.8L53.9,94c0.6,0.3,1.6,0.3,2.2,0l17.6-10.2c0,0,0.1,0,0.1-0.1c0,0-0.1,0-0.1-0.1
											L56.1,73.5c-0.6-0.3-1.6-0.3-2.2,0L36.2,83.8C36.3,83.7,36.2,83.7,36.2,83.8z"/>
									</g>
									<g>
										<path class="st5" d="M63.6,83.4l-7.9-4.5c-0.4-0.2-1-0.2-1.4,0l-7.9,4.5c-0.4,0.2-0.4,0.6,0,0.8l7.9,4.5
											c0.4,0.2,1,0.2,1.4,0l7.9-4.5C64,84,64,83.6,63.6,83.4z"/>
										<path class="st5" d="M55,89.9c-0.4,0-0.9-0.1-1.2-0.3L45.9,85c-0.5-0.3-0.8-0.8-0.8-1.3s0.3-1,0.8-1.3l7.9-4.5
											c0.7-0.4,1.7-0.4,2.4,0l7.9,4.5c0.5,0.3,0.8,0.8,0.8,1.3s-0.3,1-0.8,1.3l-7.9,4.5C55.9,89.8,55.5,89.9,55,89.9z
											 M47.7,83.8l7.1,4.1c0.1,0,0.3,0,0.4,0l7.1-4.1l-7.1-4.1c-0.1,0-0.3,0-0.4,0L47.7,83.8z M63.1,84.2L63.1,84.2L63.1,84.2z"
											/>
									</g>
								</g>
							</g>
							<path class="st7" d="M55,124c-0.8,0-1.5-0.2-2.1-0.5l-17.6-10.2c-0.7-0.4-1.2-1.1-1.2-1.8V83.8c0-0.7,0.4-1.4,1.2-1.8
								l17.6-10.2c1.2-0.7,3-0.7,4.2,0L74.8,82l0,0c0.7,0.4,1.2,1.1,1.2,1.8v27.7c0,0.7-0.4,1.4-1.2,1.8l-17.6,10.2
								C56.6,123.8,55.8,124,55,124z M36.1,111.5c0,0,0.1,0,0.2,0.1l17.6,10.2c0.6,0.3,1.7,0.3,2.2,0l17.6-10.2
								c0.1-0.1,0.2-0.1,0.2-0.1V83.9c0,0-0.1,0-0.2-0.1L56.1,73.5c-0.6-0.3-1.6-0.3-2.2,0L36.3,83.7c-0.1,0.1-0.2,0.1-0.2,0.1
								V111.5L36.1,111.5z"/>
						</g>
					</g>
				</g>
				<g>
					<path class="st7" d="M79,25c-0.3,0-0.5-0.1-0.7-0.3c0,0-0.1-0.1-0.1-0.2s-0.1-0.1-0.1-0.2s0-0.1-0.1-0.2c0-0.1,0-0.1,0-0.2
						c0-0.3,0.1-0.5,0.3-0.7c0.2-0.2,0.6-0.3,0.9-0.3c0.1,0,0.1,0,0.2,0.1c0.1,0,0.1,0.1,0.2,0.1s0.1,0.1,0.2,0.1
						c0.2,0.2,0.3,0.4,0.3,0.7c0,0.1,0,0.1,0,0.2s0,0.1-0.1,0.2c0,0.1-0.1,0.1-0.1,0.2s-0.1,0.1-0.1,0.2c0,0-0.1,0.1-0.2,0.1
						s-0.1,0.1-0.2,0.1s-0.1,0-0.2,0.1C79.1,25,79.1,25,79,25z"/>
					<path class="st7" d="M100.5,55.8c-0.3-0.4-0.2-1.1,0.2-1.4l0,0c0.4-0.3,1.1-0.2,1.4,0.2l0,0c0.3,0.4,0.2,1.1-0.2,1.4l0,0
						c-0.2,0.1-0.4,0.2-0.6,0.2l0,0C101,56.2,100.7,56,100.5,55.8z M96.8,50.6c-0.3-0.4-0.2-1.1,0.2-1.4l0,0
						c0.4-0.3,1.1-0.2,1.4,0.2l0,0c0.3,0.5,0.2,1.1-0.2,1.4l0,0C98,50.9,97.8,51,97.6,51l0,0C97.3,51,97,50.9,96.8,50.6z M93.1,45.4
						c-0.3-0.5-0.2-1.1,0.2-1.4l0,0c0.4-0.3,1.1-0.2,1.4,0.2l0,0c0.3,0.4,0.2,1.1-0.2,1.4l0,0c-0.2,0.1-0.4,0.2-0.6,0.2l0,0
						C93.6,45.8,93.3,45.7,93.1,45.4z M89.4,40.2c-0.3-0.4-0.2-1.1,0.2-1.4l0,0c0.4-0.3,1.1-0.2,1.4,0.2l0,0
						c0.3,0.5,0.2,1.1-0.2,1.4l0,0c-0.2,0.1-0.4,0.2-0.6,0.2l0,0C89.9,40.6,89.6,40.5,89.4,40.2z M85.6,35c-0.3-0.5-0.2-1.1,0.2-1.4
						l0,0c0.5-0.3,1.1-0.2,1.4,0.2l0,0c0.3,0.4,0.2,1.1-0.2,1.4l0,0c-0.2,0.1-0.4,0.2-0.6,0.2l0,0C86.1,35.4,85.8,35.3,85.6,35z
						 M81.9,29.8c-0.3-0.4-0.2-1.1,0.2-1.4l0,0c0.5-0.3,1.1-0.2,1.4,0.2l0,0c0.3,0.4,0.2,1.1-0.2,1.4l0,0c-0.2,0.1-0.4,0.2-0.6,0.2
						l0,0C82.4,30.2,82.1,30.1,81.9,29.8z"/>
					<path class="st7" d="M105.1,61.4c-0.3,0-0.5-0.1-0.7-0.3s-0.3-0.4-0.3-0.7s0.1-0.5,0.3-0.7c0.3-0.3,0.7-0.4,1.1-0.2
						c0.1,0.1,0.2,0.1,0.3,0.2c0.2,0.2,0.3,0.5,0.3,0.7s-0.1,0.5-0.3,0.7c-0.1,0.1-0.2,0.2-0.3,0.2
						C105.3,61.4,105.2,61.4,105.1,61.4z"/>
				</g>
			</g>
		</g>
	</g>
	<g>
		<rect class="st0" width="128" height="128"/>
	</g>
</g>
</svg>
