<?xml version="1.0" encoding="utf-8"?>
<!-- Generator: Adobe Illustrator 24.1.0, SVG Export Plug-In . SVG Version: 6.00 Build 0)  -->
<svg version="1.1" id="Layer_1" xmlns="http://www.w3.org/2000/svg" xmlns:xlink="http://www.w3.org/1999/xlink" x="0px" y="0px"
	 viewBox="0 0 128 128" style="enable-background:new 0 0 128 128;" xml:space="preserve">
<style type="text/css">
	.st0{fill:none;}
	.st1{fill:#FFFFFF;}
	.st2{fill:#4D9987;}
	.st3{fill:#E9EBDF;}
	.st4{fill:#0E352C;}
	.st5{fill:#C4D7D3;}
	.st6{fill:#185849;}
	.st7{fill:#27ae60;}
</style>
<g id="Layer_1_1_">
</g>
<g>
	<g id="Layer_2_1_">
		<g id="Objects_1_">
			<g>
				<g>
					<rect x="4" y="4" class="st0" width="120" height="120"/>
					<rect x="4" y="4" class="st0" width="120" height="120"/>
				</g>
				<g>
					<g>
						<g>
							<g>
								<g>
									<polygon class="st1" points="94.7,42.2 66.1,25.6 37.4,42.1 37.4,50.8 66,67.4 94.7,50.9 									"/>
									<polygon class="st2" points="94.7,50.9 66,67.4 66.1,58.7 94.7,42.2 									"/>
									<polygon class="st3" points="37.4,50.8 66,67.4 66.1,58.7 37.4,42.1 									"/>
									<path class="st2" d="M66,68.4L66,68.4c-0.6,0-1-0.4-1-1v-8.7c0-0.6,0.4-1,1-1l0,0c0.6,0,1,0.4,1,1v8.7
										C67,67.9,66.6,68.4,66,68.4z"/>
									<path class="st2" d="M80.4,60.1c-0.6,0-1-0.4-1-1v-8.7c0-0.6,0.4-1,1-1s1,0.4,1,1v8.7C81.4,59.7,80.9,60.1,80.4,60.1z"/>
									<path class="st2" d="M80.4,51.5c-0.2,0-0.3,0-0.5-0.1L65.6,43c-0.3-0.2-0.5-0.5-0.5-0.9s0.2-0.7,0.5-0.9L79.9,33
										c0.3-0.2,0.7-0.2,1,0l14.3,8.3c0.3,0.2,0.5,0.5,0.5,0.9s-0.2,0.7-0.5,0.9l-14.3,8.2C80.7,51.4,80.6,51.5,80.4,51.5z
										 M68.1,42.2l12.3,7.1l12.3-7.1l-12.3-7.1L68.1,42.2z"/>
									<ellipse class="st2" cx="66.1" cy="29.9" rx="1.4" ry="0.8"/>
									<ellipse class="st2" cx="44.8" cy="42.1" rx="1.4" ry="0.8"/>
									<ellipse class="st2" cx="66.1" cy="54.5" rx="1.4" ry="0.8"/>
									<path class="st4" d="M66.1,68.4c-0.2,0-0.3,0-0.5-0.1L36.9,51.7c-0.5-0.3-0.6-0.9-0.4-1.4c0.3-0.5,0.9-0.6,1.4-0.4L66,66.2
										L94.2,50c0.5-0.3,1.1-0.1,1.4,0.4s0.1,1.1-0.4,1.4L66.6,68.3C66.4,68.3,66.2,68.4,66.1,68.4z"/>
									<path class="st2" d="M66.1,59.7c-0.2,0-0.3,0-0.5-0.1L36.9,43c-0.5-0.3-0.6-0.9-0.4-1.4c0.3-0.5,0.9-0.6,1.4-0.4L66,57.5
										l28.2-16.2c0.5-0.3,1.1-0.1,1.4,0.4s0.1,1.1-0.4,1.4L66.6,59.6C66.4,59.7,66.2,59.7,66.1,59.7z"/>
									<path class="st2" d="M80.4,46.4c-0.2,0-0.3,0-0.5-0.1l-5.4-3.2C74.2,43,74,42.6,74,42.3c0-0.4,0.2-0.7,0.5-0.9l5.4-3.1
										c0.3-0.2,0.7-0.2,1,0l5.4,3.2c0.3,0.2,0.5,0.5,0.5,0.9s-0.2,0.7-0.5,0.9l-5.4,3.1C80.7,46.4,80.6,46.4,80.4,46.4z M77,42.3
										l3.4,2l3.4-2l-3.4-2L77,42.3z"/>
									<path class="st4" d="M66,68.4c-0.2,0-0.3,0-0.5-0.1L36.9,51.7c-0.3-0.2-0.5-0.5-0.5-0.9v-8.7c0-0.4,0.2-0.7,0.5-0.9
										l28.7-16.5c0.3-0.2,0.7-0.2,1,0l28.6,16.6c0.3,0.2,0.5,0.5,0.5,0.9v8.7c0,0.4-0.2,0.7-0.5,0.9L66.5,68.3
										C66.4,68.3,66.2,68.4,66,68.4z M38.4,50.2l27.6,16l27.7-15.9v-7.5l-27.6-16L38.4,42.7V50.2z"/>
								</g>
								<g>
									<polygon class="st1" points="94.7,33.5 66.1,17 37.4,33.5 37.4,42.1 66,58.7 94.7,42.2 									"/>
									<polygon class="st2" points="94.7,42.2 66,58.7 66.1,50 94.7,33.5 									"/>
									<polygon class="st3" points="37.4,42.1 66,58.7 66.1,50 37.4,33.5 									"/>
									<path class="st2" d="M66,59.7L66,59.7c-0.6,0-1-0.4-1-1V50c0-0.6,0.4-1,1-1l0,0c0.6,0,1,0.4,1,1v8.7
										C67,59.3,66.6,59.7,66,59.7z"/>
									<path class="st2" d="M80.4,51.5c-0.6,0-1-0.4-1-1v-8.7c0-0.6,0.4-1,1-1s1,0.4,1,1v8.7C81.4,51,80.9,51.5,80.4,51.5z"/>
									<path class="st2" d="M80.4,42.8c-0.2,0-0.3,0-0.5-0.1l-14.3-8.3c-0.3-0.2-0.5-0.5-0.5-0.9s0.2-0.7,0.5-0.9l14.3-8.2
										c0.3-0.2,0.7-0.2,1,0l14.3,8.3c0.3,0.2,0.5,0.5,0.5,0.9s-0.2,0.7-0.5,0.9l-14.3,8.2C80.7,42.7,80.6,42.8,80.4,42.8z
										 M68.1,33.5l12.3,7.1l12.3-7.1l-12.3-7.1L68.1,33.5z"/>
									<ellipse class="st2" cx="66.1" cy="21.2" rx="1.4" ry="0.8"/>
									<ellipse class="st2" cx="44.8" cy="33.5" rx="1.4" ry="0.8"/>
									<ellipse class="st2" cx="66.1" cy="45.8" rx="1.4" ry="0.8"/>
									<path class="st4" d="M66.1,59.7c-0.2,0-0.3,0-0.5-0.1L36.9,43c-0.5-0.3-0.6-0.9-0.4-1.4c0.3-0.5,0.9-0.6,1.4-0.4L66,57.5
										l28.2-16.2c0.5-0.3,1.1-0.1,1.4,0.4s0.1,1.1-0.4,1.4L66.6,59.6C66.4,59.7,66.2,59.7,66.1,59.7z"/>
									<path class="st2" d="M66.1,51c-0.2,0-0.3,0-0.5-0.1L36.9,34.3c-0.5-0.3-0.6-0.9-0.4-1.4c0.3-0.5,0.9-0.6,1.4-0.4L66,48.8
										l28.2-16.2c0.5-0.3,1.1-0.1,1.4,0.4s0.1,1.1-0.4,1.4L66.6,50.9C66.4,51,66.2,51,66.1,51z"/>
									<path class="st2" d="M80.4,37.8c-0.2,0-0.3,0-0.5-0.1l-5.4-3.2C74.2,34.3,74,34,74,33.6s0.2-0.7,0.5-0.9l5.4-3.1
										c0.3-0.2,0.7-0.2,1,0l5.4,3.2c0.3,0.2,0.5,0.5,0.5,0.9s-0.2,0.7-0.5,0.9l-5.4,3.1C80.7,37.7,80.6,37.8,80.4,37.8z M77,33.6
										l3.4,2l3.4-2l-3.4-2L77,33.6z"/>
									<path class="st4" d="M66,59.7c-0.2,0-0.3,0-0.5-0.1L36.9,43c-0.3-0.2-0.5-0.5-0.5-0.9v-8.7c0-0.4,0.2-0.7,0.5-0.9L65.6,16
										c0.3-0.2,0.7-0.2,1,0l28.6,16.6c0.3,0.2,0.5,0.5,0.5,0.9v8.7c0,0.4-0.2,0.7-0.5,0.9L66.5,59.6C66.4,59.7,66.2,59.7,66,59.7
										z M38.4,41.6l27.6,16l27.7-15.9v-7.5l-27.6-16L38.4,34V41.6z"/>
								</g>
							</g>
						</g>
					</g>
					<g>
						<g>
							<g>
								<g>
									<path class="st5" d="M122.6,73.5c0.5-0.3,0.5-0.9,0-1.3L95.8,54.1c-0.8-0.6-1.5-1.9-1.5-3c0-0.6,0.2-1.1,0.5-1.3l0,0
										L56.2,72.2l0,0c-0.3,0.2-0.5,0.7-0.5,1.3c0,1.1,0.6,2.4,1.5,3L84.6,95c0.2,0.2,0.5,0.2,0.8,0l2.8-1.6
										c0.3-0.2,0.7-0.2,1.1,0l2.9,1.5c0.3,0.2,0.7,0.2,1.1,0l8.6-5c0.7-0.4,0.7-1.3,0.2-1.8l-0.6-0.6c-0.6-0.5-0.5-1.4,0.2-1.8
										L122.6,73.5z"/>
									<path class="st6" d="M85,96.2c-0.3,0-0.7-0.1-1-0.3L56.6,77.3c-1.1-0.8-1.9-2.4-1.9-3.8c0-1,0.4-1.7,1-2.1L94.4,49
										c0.5-0.3,1.1-0.1,1.4,0.4s0.1,1.1-0.3,1.4c0,0-0.1,0.1-0.1,0.4c0,0.8,0.5,1.8,1,2.2l26.9,18.1c0.5,0.3,0.8,0.9,0.8,1.5
										s-0.3,1.1-0.9,1.4l0,0L102,86.6c0,0,0,0-0.1,0.1c0,0.1,0,0.1,0,0.1l0.6,0.6c0.5,0.4,0.8,1.1,0.7,1.8s-0.5,1.3-1,1.6l-8.6,5
										c-0.6,0.4-1.4,0.4-2,0.1l-2.9-1.5h-0.1L85.8,96C85.6,96.1,85.3,96.2,85,96.2z M56.7,73.1c0,0-0.1,0.1-0.1,0.4
										c0,0.8,0.5,1.8,1,2.2L85,94.1l2.7-1.5c0.6-0.4,1.4-0.4,2-0.1l2.9,1.5h0.1l8.6-5c0,0,0,0,0.1-0.1c0-0.1,0-0.1,0-0.1
										l-0.6-0.6c-0.5-0.4-0.8-1.1-0.7-1.8s0.5-1.3,1-1.6l20.8-12L95.2,54.9c-0.9-0.6-1.7-1.9-1.9-3.1L56.7,73.1L56.7,73.1z
										 M122.6,73.5L122.6,73.5L122.6,73.5z"/>
									<g>
										<path class="st1" d="M85.3,85.4l37.1-21.5c0.5-0.3,0.5-1.1-0.1-1.3L95.8,49.8c-0.4-0.2-0.7-0.2-0.9,0l0,0L56.2,72.2l0,0
											c0.3-0.2,0.6-0.2,0.9,0l27.5,13.2C84.8,85.6,85.1,85.6,85.3,85.4z"/>
										<path class="st7" d="M84.9,86.5c-0.3,0-0.5-0.1-0.8-0.2L56.7,73.1c0,0-0.1,0,0,0c-0.5,0.2-1.1,0.1-1.3-0.4
											c-0.3-0.5-0.1-1.1,0.3-1.4c0,0,0,0,0.1,0l38.6-22.4l0,0c0.5-0.3,1.2-0.3,1.9,0l26.6,12.8c0.6,0.3,1,0.9,1,1.5
											s-0.3,1.2-0.9,1.6L85.8,86.3l0,0C85.5,86.4,85.2,86.5,84.9,86.5z M85.3,85.4L85.3,85.4L85.3,85.4z M58.7,71.9l26.2,12.6
											l36.6-21.2L95.3,50.7L58.7,71.9z M56.7,73.1L56.7,73.1L56.7,73.1L56.7,73.1z"/>
									</g>
									<path class="st6" d="M85,96.2c-0.3,0-0.7-0.1-1-0.3L56.6,77.3c-1.1-0.8-1.9-2.4-1.9-3.8c0-1,0.4-1.7,1-2.1L94.4,49l0,0
										c0.5-0.3,1.2-0.3,1.8,0l26.6,12.8c0.6,0.3,1,0.9,1,1.5s-0.3,1.2-0.9,1.6l-5.1,3l5.4,3.6c0.5,0.3,0.8,0.9,0.8,1.5
										s-0.3,1.1-0.9,1.4L102,86.6c0,0,0,0-0.1,0.1c0,0.1,0,0.1,0,0.1l0.6,0.6c0.5,0.4,0.8,1.1,0.7,1.8c-0.1,0.7-0.5,1.3-1,1.6
										l-8.6,5c-0.6,0.4-1.4,0.4-2,0.1l-2.9-1.5h-0.1L85.8,96C85.6,96.1,85.3,96.2,85,96.2z M56.7,73.1c0,0-0.1,0.1-0.1,0.4
										c0,0.8,0.5,1.8,1,2.2L85,94.1l2.7-1.5c0.6-0.4,1.4-0.4,2-0.1l2.9,1.5h0.1l8.6-5c0,0,0,0,0.1-0.1c0-0.1,0-0.1,0-0.1
										l-0.6-0.6c-0.5-0.4-0.8-1.1-0.7-1.8c0.1-0.7,0.5-1.3,1-1.6l20.8-12l-6.4-4.3c-0.3-0.2-0.5-0.5-0.4-0.9
										c0-0.3,0.2-0.7,0.5-0.8l6.1-3.5L95.3,50.7L56.7,73.1L56.7,73.1z M122.1,73L122.1,73L122.1,73z"/>
								</g>
							</g>
						</g>
					</g>
					<g>
						<g>
							<polygon class="st1" points="31.4,80.2 54.1,67.5 27.7,52.2 5,64.9 							"/>
							<path class="st6" d="M31.4,81.2c-0.2,0-0.3,0-0.5-0.1L4.5,65.8C4.2,65.6,4,65.3,4,64.9s0.2-0.7,0.5-0.9l22.7-12.7
								c0.3-0.2,0.7-0.2,1,0l26.4,15.2c0.3,0.2,0.5,0.5,0.5,0.9s-0.2,0.7-0.5,0.9L31.9,81C31.7,81.1,31.6,81.2,31.4,81.2z M7,64.9
								L31.4,79l20.7-11.6l-24.4-14L7,64.9z"/>
						</g>
						<polygon class="st7" points="27.2,73.9 43.1,65 27.5,55.9 11.6,64.8 						"/>
						<polygon class="st7" points="27.2,73.9 43.1,65 27.5,55.9 11.6,64.8 						"/>
						<polygon class="st7" points="27.2,73.9 43.1,65 27.5,55.9 11.6,64.8 						"/>
						<polygon class="st5" points="30.5,72 30.6,63 39.9,63.1 43.1,65 						"/>
						<polygon class="st7" points="27.2,73.9 21.9,70.8 22,65.8 41.5,65.9 						"/>
						<ellipse class="st1" cx="25.7" cy="62.1" rx="3.2" ry="1.8"/>
						<polygon class="st5" points="27.2,73.9 23.7,71.9 23.8,66.9 39.6,66.9 						"/>
					</g>
					<g>
						<path class="st4" d="M56.1,112c-0.2,0-0.3,0-0.5-0.1L23,93.1c-0.3-0.2-0.5-0.5-0.5-0.9s0.2-0.7,0.5-0.9l21.8-12.8
							c0.3-0.2,0.7-0.2,1,0l32.6,18.8c0.3,0.2,0.5,0.5,0.5,0.9s-0.2,0.7-0.5,0.9l-21.8,12.8C56.4,112,56.2,112,56.1,112z M25.5,92.2
							L56,109.9l19.8-11.7L45.3,80.6L25.5,92.2z"/>
						<g>
							<path class="st2" d="M53.7,106c-0.3,0-0.7-0.2-0.9-0.5c-0.3-0.5-0.1-1.1,0.4-1.4l13-7.6c0.5-0.3,1.1-0.1,1.4,0.4
								s0.1,1.1-0.4,1.4l-13,7.6C54,106,53.9,106,53.7,106z"/>
							<path class="st2" d="M47.2,102.3c-0.3,0-0.7-0.2-0.9-0.5c-0.3-0.5-0.1-1.1,0.4-1.4l13-7.6c0.5-0.3,1.1-0.1,1.4,0.4
								c0.3,0.5,0.1,1.1-0.4,1.4l-13,7.6C47.5,102.2,47.4,102.3,47.2,102.3z"/>
							<path class="st2" d="M40.7,98.5c-0.3,0-0.7-0.2-0.9-0.5c-0.3-0.5-0.1-1.1,0.4-1.4l13-7.6c0.5-0.3,1.1-0.1,1.4,0.4
								c0.3,0.5,0.1,1.1-0.4,1.4l-13,7.6C41.1,98.5,40.9,98.5,40.7,98.5z"/>
							<path class="st2" d="M34.2,94.8c-0.3,0-0.7-0.2-0.9-0.5c-0.3-0.5-0.1-1.1,0.4-1.4l13-7.6c0.5-0.3,1.1-0.1,1.4,0.4
								c0.3,0.5,0.1,1.1-0.4,1.4l-13,7.6C34.6,94.7,34.4,94.8,34.2,94.8z"/>
						</g>
					</g>
				</g>
			</g>
		</g>
	</g>
	<g>
		<rect class="st0" width="128" height="128"/>
	</g>
</g>
</svg>
