<?xml version="1.0" encoding="utf-8"?>
<!-- Generator: Adobe Illustrator 24.1.0, SVG Export Plug-In . SVG Version: 6.00 Build 0)  -->
<svg version="1.1" id="Layer_1" xmlns="http://www.w3.org/2000/svg" xmlns:xlink="http://www.w3.org/1999/xlink" x="0px" y="0px"
	 viewBox="0 0 128 128" style="enable-background:new 0 0 128 128;" xml:space="preserve">
<style type="text/css">
	.st0{fill:#FFFFFF;}
	.st1{fill:#4D9987;}
	.st2{fill:#E9EBDF;}
	.st3{fill:#0E352C;}
	.st4{fill:#27ae60;}
	.st5{fill:#C4D7D3;}
	.st6{fill:#185849;}
	.st7{fill:none;}
</style>
<g id="Layer_1_1_">
</g>
<g>
	<g id="Layer_2_1_">
		<g id="New_Illustrations_1_">
			<g>
				<g>
					<g>
						<g>
							<g>
								<path class="st0" d="M98.5,9.9l-7.8-4.5l0,0c-0.2-0.1-0.5-0.1-0.7,0.1L24,43.6c-0.6,0.4-1.1,1.3-1.1,2.2v64
									c0,0.5,0.2,0.8,0.4,0.9l0,0l7.8,4.5l6.6-12.5L90,67.4c0.6-0.4,1.1-1.3,1.1-2.2V19.9L98.5,9.9z"/>
								<path class="st1" d="M31,116.2c-0.2,0-0.3,0-0.5-0.1l-7.8-4.5c-0.1,0-0.1-0.1-0.2-0.1c-0.5-0.4-0.7-1-0.7-1.7v-64
									c0-1.2,0.7-2.5,1.6-3l66-38.1c0.5-0.3,1.1-0.3,1.6-0.1c0.1,0,0.1,0,0.2,0.1L99,9.1c0.2,0.1,0.4,0.4,0.5,0.7s0,0.6-0.2,0.8
									L92,20.2v45c0,1.2-0.7,2.5-1.6,3l-52,35.2l-6.5,12.3c-0.1,0.2-0.3,0.4-0.6,0.5C31.2,116.2,31.1,116.2,31,116.2z M23.7,109.9
									l6.8,3.9l6.1-11.6c0.1-0.1,0.2-0.3,0.3-0.4l52.3-35.3c0.4-0.2,0.7-0.8,0.7-1.4V19.9c0-0.2,0.1-0.4,0.2-0.6l6.8-9l-6.7-3.9
									l-65.8,38c-0.3,0.2-0.6,0.8-0.6,1.3v64C23.7,109.8,23.7,109.9,23.7,109.9z"/>
							</g>
							<path class="st2" d="M30.6,115V39.7l-6.7,3.9c-0.6,0.4-1.1,1.3-1.1,2.2v64c0,0.5,0.2,0.8,0.4,0.9l0,0L30.6,115z"/>
							<g>
								<path class="st1" d="M67.2,80.5l22.7-13.1c0.6-0.4,1.1-1.3,1.1-2.2V19.9l7.5-9.9l-7.8-4.5l0,0c-0.2-0.1-0.5-0.1-0.7,0.1
									L24,43.7c-0.6,0.4-1.1,1.3-1.1,2.2V55L67.2,80.5z"/>
								<path class="st3" d="M67.2,81.5c-0.2,0-0.3,0-0.5-0.1L22.2,55.7c-0.3-0.2-0.5-0.5-0.5-0.9v-9.1c0-1.2,0.7-2.5,1.6-3l66-38.1
									c0.5-0.3,1.1-0.3,1.6-0.1c0.1,0,0.1,0,0.2,0.1L99,9.1c0.2,0.1,0.4,0.4,0.5,0.7s0,0.6-0.2,0.8L92,20.2v45
									c0,1.2-0.7,2.5-1.6,3L67.7,81.4C67.5,81.5,67.3,81.5,67.2,81.5z M23.7,54.3l43.4,25.1l22.2-12.8c0.3-0.2,0.6-0.8,0.6-1.3
									V19.9c0-0.2,0.1-0.4,0.2-0.6l6.8-9l-6.7-3.9l-65.8,38c-0.3,0.2-0.6,0.8-0.6,1.3L23.7,54.3L23.7,54.3z"/>
							</g>
							<path class="st2" d="M69.3,72.6L91,42.2V19.9l7.5-9.9l-7.8-4.5l0,0c-0.2-0.1-0.5-0.1-0.7,0.1L24,43.7
								c-0.6,0.4-1.1,1.3-1.1,2.2l0,0L69.3,72.6z"/>
							<g>
								<path class="st0" d="M97.7,77.1l-66,38.1c-0.6,0.4-1.1,0-1.1-0.9v-64c0-0.8,0.5-1.8,1.1-2.2l66-38.1c0.6-0.4,1.1,0,1.1,0.9
									v64C98.9,75.7,98.4,76.7,97.7,77.1z"/>
								<path class="st1" d="M31.3,116.3c-0.3,0-0.5-0.1-0.8-0.2c-0.6-0.3-0.9-1-0.9-1.8v-64c0-1.2,0.7-2.5,1.6-3l66-38.1
									c0.6-0.3,1.2-0.4,1.7-0.1c0.6,0.3,0.9,1,0.9,1.8v64c0,1.2-0.7,2.5-1.6,3l-66,38.1C31.9,116.2,31.6,116.3,31.3,116.3z
									 M97.9,11.1L32.2,49c-0.3,0.2-0.6,0.8-0.6,1.3v63.8l65.6-37.9l0,0c0.3-0.2,0.6-0.8,0.6-1.3V11.1H97.9z"/>
							</g>
							<path class="st3" d="M31.3,116.3c-0.2,0-0.4,0-0.6-0.1c-0.1,0-0.1,0-0.2-0.1l-7.8-4.5c-0.1,0-0.1-0.1-0.2-0.1
								c-0.5-0.4-0.7-0.9-0.7-1.7v-64c0-1.2,0.7-2.5,1.6-3l66-38.1c0.5-0.3,1.1-0.3,1.6-0.1c0.1,0,0.1,0,0.2,0.1L99,9.1
								c0.1,0,0.1,0.1,0.2,0.1c0.5,0.4,0.7,1,0.7,1.7v64c0,1.2-0.7,2.5-1.6,3l-66,38.1C31.9,116.2,31.6,116.3,31.3,116.3z
								 M23.7,109.9l7.6,4.4l65.9-38.1c0.3-0.2,0.6-0.8,0.6-1.3v-64c0-0.1,0-0.1,0-0.1l-7.6-4.4l-65.8,38c-0.3,0.2-0.6,0.8-0.6,1.3
								v64C23.7,109.8,23.7,109.9,23.7,109.9z M98,10.8L98,10.8L98,10.8z"/>
							<g>
								<path class="st3" d="M98.9,20v-9.1c0-0.8-0.5-1.2-1.1-0.9l-66,38.1c-0.6,0.4-1.1,1.3-1.1,2.2v9.1L98.9,20z"/>
								<path class="st3" d="M30.6,60.4c-0.2,0-0.3,0-0.5-0.1c-0.3-0.2-0.5-0.5-0.5-0.9v-9.1c0-1.2,0.7-2.5,1.6-3l66-38.1
									c0.6-0.3,1.2-0.4,1.7-0.1c0.6,0.3,0.9,1,0.9,1.8V20c0,0.4-0.2,0.7-0.5,0.9L31.1,60.3C30.9,60.4,30.8,60.4,30.6,60.4z
									 M97.9,11.1L32.2,49c-0.3,0.2-0.6,0.8-0.6,1.3v7.4l66.3-38.3V11.1z M98.9,20L98.9,20L98.9,20z"/>
							</g>
							<g>
								
									<ellipse transform="matrix(0.3916 -0.9201 0.9201 0.3916 -19.5144 67.1458)" class="st2" cx="41" cy="48.3" rx="2" ry="1.1"/>
								
									<ellipse transform="matrix(0.3916 -0.9201 0.9201 0.3916 -13.8249 69.9219)" class="st0" cx="46" cy="45.4" rx="2" ry="1.1"/>
								
									<ellipse transform="matrix(0.3916 -0.9201 0.9201 0.3916 -25.3266 64.2188)" class="st1" cx="35.9" cy="51.3" rx="2" ry="1.1"/>
							</g>
							<g>
								<path class="st1" d="M74.3,60.9c0-1-0.1-1.8-0.2-2.6l3.2-4.3l-2.9-5l-3.2,4.3c-1-0.7-2.2-0.9-3.6-0.7v-4.9L61.8,51v4.9
									c-1.4,1.4-2.6,3-3.6,4.9L55,60.2l-2.9,8.3l3.2,0.6c-0.1,1-0.2,2-0.2,2.9c0,1,0.1,1.8,0.2,2.6l-3.2,4.3l2.9,5l3.2-4.3
									c1,0.7,2.2,0.9,3.6,0.7v4.9l5.8-3.3V77c1.4-1.4,2.6-3,3.6-4.9l3.2,0.6l2.9-8.3l-3.2-0.6C74.3,62.8,74.3,61.9,74.3,60.9z
									 M64.7,73.1c-2.8,1.6-5-0.1-5-3.8c0-3.7,2.2-8,5-9.6c2.8-1.6,5,0.1,5,3.8S67.5,71.5,64.7,73.1z"/>
								<path class="st1" d="M61.8,86.2c-0.2,0-0.3,0-0.5-0.1c-0.3-0.2-0.5-0.5-0.5-0.9v-3.8c-0.8,0-1.6-0.2-2.3-0.5l-2.7,3.6
									c-0.2,0.3-0.5,0.4-0.9,0.4c-0.3,0-0.6-0.2-0.8-0.5l-2.9-5c-0.2-0.3-0.2-0.8,0.1-1.1l2.9-3.9C54.1,73.6,54,72.8,54,72
									c0-0.7,0-1.4,0.1-2.1L52,69.5c-0.3-0.1-0.5-0.2-0.7-0.5s-0.2-0.6-0.1-0.8l2.9-8.3c0.2-0.5,0.6-0.7,1.1-0.7l2.5,0.5
									c0.9-1.6,2-3,3.1-4.2V51c0-0.4,0.2-0.7,0.5-0.9l5.8-3.3c0.3-0.2,0.7-0.2,1,0s0.5,0.5,0.5,0.9v3.8c0.8,0,1.6,0.2,2.3,0.5
									l2.7-3.6c0.2-0.3,0.5-0.4,0.9-0.4c0.3,0,0.6,0.2,0.8,0.5l2.9,5c0.2,0.3,0.2,0.8-0.1,1.1l-2.9,3.9c0.1,0.8,0.2,1.6,0.2,2.4
									c0,0.7,0,1.4-0.1,2.1l2.2,0.4c0.3,0.1,0.5,0.2,0.7,0.5c0.1,0.3,0.2,0.6,0.1,0.8L75.4,73c-0.2,0.5-0.6,0.7-1.1,0.7l-2.5-0.5
									c-0.9,1.6-2,3-3.1,4.2v4.5c0,0.4-0.2,0.7-0.5,0.9l-5.8,3.3C62.2,86.2,62,86.2,61.8,86.2z M61.8,79.3c0.2,0,0.5,0.1,0.6,0.2
									c0.2,0.2,0.4,0.5,0.4,0.8v3.1l3.8-2.2V77c0-0.3,0.1-0.5,0.3-0.7c1.3-1.2,2.4-2.9,3.4-4.7c0.2-0.4,0.6-0.6,1.1-0.5l2.3,0.4
									l2.2-6.4l-2-0.4c-0.5-0.1-0.9-0.6-0.8-1.1c0.1-1,0.2-1.9,0.2-2.8c0-0.9-0.1-1.7-0.2-2.5c-0.1-0.3,0-0.6,0.2-0.8l2.8-3.7
									l-1.8-3.1l-2.3,3c-0.3,0.4-0.9,0.5-1.3,0.2c-0.8-0.5-1.8-0.7-2.9-0.6c-0.3,0-0.6,0-0.8-0.2c-0.2-0.2-0.4-0.5-0.4-0.8v-3.1
									l-3.8,2.2v4.3c0,0.3-0.1,0.5-0.3,0.7c-1.3,1.3-2.4,2.8-3.4,4.7c-0.2,0.4-0.6,0.6-1.1,0.5l-2.3-0.4l-2.2,6.4l2,0.4
									c0.5,0.1,0.9,0.6,0.8,1.1c-0.1,1-0.2,1.9-0.2,2.8s0.1,1.7,0.2,2.5c0.1,0.3,0,0.6-0.2,0.8L53.4,79l1.8,3.1l2.3-3
									c0.3-0.4,0.9-0.5,1.3-0.2c0.8,0.5,1.8,0.7,2.9,0.6C61.7,79.3,61.8,79.3,61.8,79.3z M62.7,74.7c-0.6,0-1.2-0.2-1.8-0.5
									c-1.4-0.8-2.2-2.6-2.2-4.9c0-4.1,2.4-8.6,5.5-10.4c1.5-0.9,3-1,4.3-0.3c1.4,0.8,2.2,2.6,2.2,4.9c0,4.1-2.4,8.6-5.5,10.4l0,0
									C64.4,74.5,63.5,74.7,62.7,74.7z M64.7,73.1L64.7,73.1L64.7,73.1z M66.7,60.2c-0.5,0-1.1,0.2-1.5,0.5
									c-2.4,1.4-4.5,5.4-4.5,8.7c0,1.5,0.5,2.7,1.2,3.2c0.8,0.4,1.6,0.1,2.3-0.3l0,0c2.4-1.4,4.5-5.4,4.5-8.7
									c0-1.5-0.5-2.7-1.2-3.2C67.2,60.2,67,60.2,66.7,60.2z"/>
							</g>
						</g>
					</g>
					<g>
						<g>
							<g>
								<g>
									<g>
										<path class="st4" d="M71,105.1v7.7c0,2.5,1.7,5.1,5,7c6.7,3.9,17.5,3.9,24.2,0c3.3-1.9,5-4.5,5-7l0,0v-7.7H71z"/>
										<path class="st4" d="M88.2,123.7c-4.6,0-9.1-1-12.6-3c-3.6-2.1-5.5-4.8-5.5-7.9v-7.7c0-0.6,0.4-1,1-1h34.2
											c0.6,0,1,0.4,1,1v7.7c0,3-2,5.8-5.5,7.9C97.3,122.7,92.7,123.7,88.2,123.7z M72,106.1v6.7c0,2.3,1.6,4.4,4.5,6.1
											c6.4,3.7,16.8,3.7,23.2,0c2.9-1.7,4.5-3.9,4.5-6.1v-6.7H72z"/>
									</g>
									<path class="st5" d="M71,105.1v7.7c0,2.5,1.7,5.1,5,7s7.7,2.9,12.1,2.9v-17.6H71z"/>
									<g>
										<ellipse class="st5" cx="88.2" cy="105.1" rx="17.1" ry="9.9"/>
										<path class="st0" d="M88.2,116c-4.6,0-9.1-1-12.6-3c-3.6-2.1-5.5-4.8-5.5-7.9s2-5.8,5.5-7.9c6.9-4,18.2-4,25.2,0
											c3.6,2.1,5.5,4.8,5.5,7.9s-2,5.8-5.5,7.9C97.3,115,92.7,116,88.2,116z M88.2,96.2c-4.2,0-8.4,0.9-11.6,2.8
											c-2.9,1.7-4.5,3.9-4.5,6.1c0,2.3,1.6,4.4,4.5,6.1l0,0c6.4,3.7,16.8,3.7,23.2,0c2.9-1.7,4.5-3.9,4.5-6.1
											c0-2.3-1.6-4.4-4.5-6.1C96.6,97.2,92.4,96.2,88.2,96.2z"/>
									</g>
									<ellipse class="st4" cx="88.2" cy="105.1" rx="11.9" ry="6.4"/>
									<path class="st6" d="M88.2,123.7c-4.6,0-9.1-1-12.6-3c-3.6-2.1-5.5-4.8-5.5-7.9v-7.7c0-3,2-5.8,5.5-7.9
										c6.9-4,18.2-4,25.2,0c3.6,2.1,5.5,4.8,5.5,7.9v7.7c0,3-2,5.8-5.5,7.9C97.3,122.7,92.7,123.7,88.2,123.7z M88.2,96.2
										c-4.2,0-8.4,0.9-11.6,2.8c-2.9,1.7-4.5,3.9-4.5,6.1v7.7c0,2.3,1.6,4.4,4.5,6.1c6.4,3.7,16.8,3.7,23.2,0
										c2.9-1.7,4.5-3.9,4.5-6.1v-7.7c0-2.3-1.6-4.4-4.5-6.1C96.6,97.2,92.4,96.2,88.2,96.2z"/>
									<g>
										<path class="st6" d="M93.8,119.3c-0.1,0-0.3,0-0.4-0.1s-0.2-0.1-0.3-0.2c-0.2-0.2-0.3-0.4-0.3-0.7c0-0.3,0.1-0.5,0.3-0.7
											c0.1-0.1,0.2-0.2,0.3-0.2c0.4-0.1,0.8-0.1,1.1,0.2c0.2,0.2,0.3,0.4,0.3,0.7c0,0.3-0.1,0.5-0.3,0.7
											C94.3,119.2,94.1,119.3,93.8,119.3z"/>
										<path class="st6" d="M96.2,117.7c-0.2-0.5,0.1-1.1,0.6-1.3l0,0c0.5-0.2,1.1,0.1,1.3,0.6l0,0c0.2,0.5-0.1,1.1-0.6,1.3l0,0
											c-0.1,0-0.2,0.1-0.3,0.1l0,0C96.7,118.4,96.3,118.1,96.2,117.7z"/>
										<path class="st6" d="M100.3,116.9c-0.3,0-0.5-0.1-0.7-0.3c-0.2-0.2-0.3-0.4-0.3-0.7c0-0.3,0.1-0.5,0.3-0.7
											c0.3-0.3,0.7-0.4,1.1-0.2c0.1,0.1,0.2,0.1,0.3,0.2c0.2,0.2,0.3,0.5,0.3,0.7c0,0.3-0.1,0.5-0.3,0.7
											c-0.1,0.1-0.2,0.2-0.3,0.2C100.5,116.9,100.4,116.9,100.3,116.9z"/>
									</g>
								</g>
							</g>
						</g>
						<g>
							<g>
								<g>
									<g>
										<path class="st4" d="M71,95.5v7.7c0,2.5,1.7,5.1,5,7c6.7,3.9,17.5,3.9,24.2,0c3.3-1.9,5-4.5,5-7l0,0v-7.7H71z"/>
										<path class="st4" d="M88.2,114.1c-4.6,0-9.1-1-12.6-3c-3.6-2.1-5.5-4.8-5.5-7.9v-7.7c0-0.6,0.4-1,1-1h34.2
											c0.6,0,1,0.4,1,1v7.7c0,3-2,5.8-5.5,7.9C97.3,113.1,92.7,114.1,88.2,114.1z M72,96.5v6.7c0,2.3,1.6,4.4,4.5,6.1
											c6.4,3.7,16.8,3.7,23.2,0c2.9-1.7,4.5-3.9,4.5-6.1v-6.7H72z"/>
									</g>
									<path class="st5" d="M71,95.5v7.7c0,2.5,1.7,5.1,5,7s7.7,2.9,12.1,2.9V95.5H71z"/>
									<g>
										<ellipse class="st5" cx="88.2" cy="95.5" rx="17.1" ry="9.9"/>
										<path class="st0" d="M88.2,106.4c-4.6,0-9.1-1-12.6-3c-3.6-2.1-5.5-4.8-5.5-7.9c0-3,2-5.8,5.5-7.9c6.9-4,18.2-4,25.2,0
											c3.6,2.1,5.5,4.8,5.5,7.9c0,3-2,5.8-5.5,7.9C97.3,105.4,92.7,106.4,88.2,106.4z M88.2,86.6c-4.2,0-8.4,0.9-11.6,2.8
											c-2.9,1.7-4.5,3.9-4.5,6.1c0,2.3,1.6,4.4,4.5,6.1c6.4,3.7,16.8,3.7,23.2,0c2.9-1.7,4.5-3.9,4.5-6.1c0-2.3-1.6-4.4-4.5-6.1
											C96.6,87.6,92.4,86.6,88.2,86.6z"/>
									</g>
									<ellipse class="st4" cx="88.2" cy="95.5" rx="11.9" ry="6.4"/>
									<path class="st6" d="M88.2,114.1c-4.6,0-9.1-1-12.6-3c-3.6-2.1-5.5-4.8-5.5-7.9v-7.7c0-3,2-5.8,5.5-7.9
										c6.9-4,18.2-4,25.2,0c3.6,2.1,5.5,4.8,5.5,7.9v7.7c0,3-2,5.8-5.5,7.9C97.3,113.1,92.7,114.1,88.2,114.1z M88.2,86.6
										c-4.2,0-8.4,0.9-11.6,2.8c-2.9,1.7-4.5,3.9-4.5,6.1v7.7c0,2.3,1.6,4.4,4.5,6.1c6.4,3.7,16.8,3.7,23.2,0
										c2.9-1.7,4.5-3.9,4.5-6.1v-7.7c0-2.3-1.6-4.4-4.5-6.1C96.6,87.6,92.4,86.6,88.2,86.6z"/>
									<g>
										<path class="st6" d="M93.8,109.7c-0.1,0-0.3,0-0.4-0.1s-0.2-0.1-0.3-0.2c-0.2-0.2-0.3-0.4-0.3-0.7c0-0.3,0.1-0.5,0.3-0.7
											c0.1-0.1,0.2-0.2,0.3-0.2c0.4-0.1,0.8-0.1,1.1,0.2c0.2,0.2,0.3,0.4,0.3,0.7c0,0.3-0.1,0.5-0.3,0.7
											C94.3,109.6,94.1,109.7,93.8,109.7z"/>
										<path class="st6" d="M96.2,108.1c-0.2-0.5,0.1-1.1,0.6-1.3l0,0c0.5-0.2,1.1,0.1,1.3,0.6l0,0c0.2,0.5-0.1,1.1-0.6,1.3l0,0
											c-0.1,0-0.2,0.1-0.3,0.1l0,0C96.7,108.8,96.3,108.5,96.2,108.1z"/>
										<path class="st6" d="M100.3,107.3c-0.3,0-0.5-0.1-0.7-0.3c-0.2-0.2-0.3-0.4-0.3-0.7c0-0.3,0.1-0.5,0.3-0.7
											c0.3-0.3,0.7-0.4,1.1-0.2c0.1,0,0.2,0.1,0.3,0.2c0.2,0.2,0.3,0.4,0.3,0.7c0,0.3-0.1,0.5-0.3,0.7c-0.1,0.1-0.2,0.2-0.3,0.2
											C100.5,107.3,100.4,107.3,100.3,107.3z"/>
									</g>
								</g>
							</g>
						</g>
						<g>
							<g>
								<g>
									<g>
										<path class="st4" d="M71,86v7.7c0,2.5,1.7,5.1,5,7c6.7,3.9,17.5,3.9,24.2,0c3.3-1.9,5-4.5,5-7l0,0V86H71z"/>
										<path class="st4" d="M88.2,104.5c-4.6,0-9.1-1-12.6-3C72,99.4,70,96.7,70,93.6V86c0-0.6,0.4-1,1-1h34.2c0.6,0,1,0.4,1,1
											v7.7c0,3-2,5.8-5.5,7.9C97.3,103.5,92.7,104.5,88.2,104.5z M72,87v6.7c0,2.3,1.6,4.4,4.5,6.1c6.4,3.7,16.8,3.7,23.2,0
											c2.9-1.7,4.5-3.9,4.5-6.1V87H72z"/>
									</g>
									<path class="st5" d="M71,86v7.7c0,2.5,1.7,5.1,5,7s7.7,2.9,12.1,2.9V86H71z"/>
									<g>
										<ellipse class="st5" cx="88.2" cy="86" rx="17.1" ry="9.9"/>
										<path class="st0" d="M88.2,96.8c-4.6,0-9.1-1-12.6-3C72,91.8,70,89,70,86s2-5.8,5.5-7.9c6.9-4,18.2-4,25.2,0
											c3.6,2.1,5.5,4.8,5.5,7.9s-2,5.8-5.5,7.9C97.3,95.8,92.7,96.8,88.2,96.8z M88.2,77.1c-4.2,0-8.4,0.9-11.6,2.8
											C73.7,81.5,72,83.7,72,86s1.6,4.4,4.5,6.1l0,0c6.4,3.7,16.8,3.7,23.2,0c2.9-1.7,4.5-3.9,4.5-6.1s-1.6-4.4-4.5-6.1
											C96.6,78,92.4,77.1,88.2,77.1z"/>
									</g>
									<ellipse class="st4" cx="88.2" cy="86" rx="11.9" ry="6.4"/>
									<path class="st6" d="M88.2,104.5c-4.6,0-9.1-1-12.6-3C72,99.4,70,96.7,70,93.6V86c0-3,2-5.8,5.5-7.9c6.9-4,18.2-4,25.2,0
										c3.6,2.1,5.5,4.8,5.5,7.9v7.7c0,3-2,5.8-5.5,7.9C97.3,103.5,92.7,104.5,88.2,104.5z M88.2,77.1c-4.2,0-8.4,0.9-11.6,2.8
										c-3,1.6-4.6,3.8-4.6,6.1v7.7c0,2.3,1.6,4.4,4.5,6.1c6.4,3.7,16.8,3.7,23.2,0c2.9-1.7,4.5-3.9,4.5-6.1V86
										c0-2.3-1.6-4.4-4.5-6.1C96.6,78,92.4,77.1,88.2,77.1z"/>
									<g>
										<path class="st6" d="M93.8,100.1c-0.3,0-0.5-0.1-0.7-0.3c-0.2-0.2-0.3-0.4-0.3-0.7c0-0.3,0.1-0.5,0.3-0.7
											c0.1-0.1,0.2-0.2,0.3-0.2c0.4-0.2,0.8-0.1,1.1,0.2c0.2,0.2,0.3,0.4,0.3,0.7c0,0.3-0.1,0.5-0.3,0.7
											C94.3,100,94.1,100.1,93.8,100.1z"/>
										<path class="st6" d="M96.2,98.5c-0.2-0.5,0.1-1.1,0.6-1.3l0,0c0.5-0.2,1.1,0.1,1.3,0.6l0,0c0.2,0.5-0.1,1.1-0.6,1.3l0,0
											c-0.1,0-0.2,0.1-0.3,0.1l0,0C96.7,99.2,96.3,98.9,96.2,98.5z"/>
										<path class="st6" d="M100.3,97.8c-0.3,0-0.5-0.1-0.7-0.3c-0.2-0.2-0.3-0.4-0.3-0.7c0-0.1,0-0.3,0.1-0.4s0.1-0.2,0.2-0.3
											c0.3-0.3,0.7-0.4,1.1-0.2c0.1,0.1,0.2,0.1,0.3,0.2c0.1,0.1,0.2,0.2,0.2,0.3c0,0.1,0.1,0.2,0.1,0.4c0,0.3-0.1,0.5-0.3,0.7
											c-0.1,0.1-0.2,0.2-0.3,0.2C100.5,97.7,100.4,97.8,100.3,97.8z"/>
									</g>
								</g>
							</g>
						</g>
					</g>
				</g>
				<rect x="4" y="4" class="st7" width="120" height="120"/>
			</g>
		</g>
	</g>
	<g>
		<rect class="st7" width="128" height="128"/>
	</g>
</g>
</svg>
