<?xml version="1.0" encoding="utf-8"?>
<!-- Generator: Adobe Illustrator 24.1.0, SVG Export Plug-In . SVG Version: 6.00 Build 0)  -->
<svg version="1.1" id="Layer_1" xmlns="http://www.w3.org/2000/svg" xmlns:xlink="http://www.w3.org/1999/xlink" x="0px" y="0px"
	 viewBox="0 0 128 128" style="enable-background:new 0 0 128 128;" xml:space="preserve">
<style type="text/css">
	.st0{fill:none;}
	.st1{fill:#0E352C;}
	.st2{fill:#185849;}
	.st3{fill:#FFFFFF;}
	.st4{fill:#4D9987;}
	.st5{fill:#E9EBDF;}
	.st6{fill:#C4D7D3;}
	.st7{fill:#27ae60;}
</style>
<g id="Layer_1_1_">
</g>
<g>
	<g id="Layer_2_1_">
		<g id="Objects_1_">
			<g>
				<g>
					<rect x="4" y="4" class="st0" width="120" height="120"/>
					<rect x="4" y="4" class="st0" width="120" height="120"/>
				</g>
				<g>
					<g>
						<path class="st1" d="M12.8,29.6c-0.3,0-0.5-0.1-0.7-0.3c-0.2-0.2-0.3-0.5-0.3-0.7c0-0.1,0-0.3,0.1-0.4c0-0.1,0.1-0.2,0.2-0.3
							c0.3-0.3,0.7-0.4,1.1-0.2c0.1,0,0.2,0.1,0.3,0.2s0.2,0.2,0.2,0.3c0.1,0.1,0.1,0.2,0.1,0.4c0,0.3-0.1,0.5-0.3,0.7
							C13.4,29.5,13.1,29.6,12.8,29.6z"/>
						<path class="st1" d="M21.8,70.1c-0.1-0.5,0.2-1.1,0.7-1.2l0,0c0.5-0.1,1.1,0.2,1.2,0.7l0,0c0.1,0.5-0.2,1.1-0.7,1.2l0,0
							c-0.1,0-0.1,0-0.2,0l0,0C22.3,70.9,21.9,70.6,21.8,70.1z M20.4,64.2c-0.1-0.5,0.2-1.1,0.7-1.2l0,0c0.5-0.1,1.1,0.2,1.2,0.7
							l0,0c0.1,0.5-0.2,1.1-0.7,1.2l0,0c-0.1,0-0.2,0-0.2,0l0,0C20.9,65,20.5,64.7,20.4,64.2z M18.9,58.3c-0.1-0.5,0.2-1.1,0.7-1.2
							l0,0c0.5-0.1,1.1,0.2,1.2,0.7l0,0c0.1,0.5-0.2,1.1-0.7,1.2l0,0c-0.1,0-0.2,0-0.2,0l0,0C19.5,59.1,19.1,58.8,18.9,58.3z
							 M17.5,52.5c-0.1-0.5,0.2-1.1,0.7-1.2l0,0c0.5-0.1,1.1,0.2,1.2,0.7l0,0c0.1,0.5-0.2,1.1-0.7,1.2l0,0c-0.1,0-0.1,0-0.2,0l0,0
							C18.1,53.2,17.6,52.9,17.5,52.5z M16.1,46.6c-0.1-0.5,0.2-1.1,0.7-1.2l0,0c0.5-0.1,1.1,0.2,1.2,0.7l0,0
							c0.1,0.5-0.2,1.1-0.7,1.2l0,0c-0.1,0-0.2,0-0.2,0l0,0C16.6,47.3,16.2,47,16.1,46.6z M14.7,40.7c-0.1-0.5,0.2-1.1,0.7-1.2l0,0
							c0.5-0.1,1.1,0.2,1.2,0.7l0,0c0.1,0.5-0.2,1.1-0.7,1.2l0,0c-0.1,0-0.2,0-0.2,0l0,0C15.2,41.4,14.8,41.1,14.7,40.7z M13.3,34.8
							c-0.1-0.5,0.2-1.1,0.7-1.2l0,0c0.5-0.1,1.1,0.2,1.2,0.7l0,0c0.1,0.5-0.2,1.1-0.7,1.2l0,0c-0.1,0-0.2,0-0.2,0l0,0
							C13.8,35.5,13.4,35.2,13.3,34.8z"/>
						<path class="st1" d="M24.2,76.8c-0.3,0-0.5-0.1-0.7-0.3c-0.1-0.1-0.2-0.2-0.2-0.3c0-0.1-0.1-0.2-0.1-0.4s0-0.3,0.1-0.4
							s0.1-0.2,0.2-0.3c0.4-0.4,1-0.4,1.4,0c0.2,0.2,0.3,0.4,0.3,0.7s-0.1,0.5-0.3,0.7C24.7,76.7,24.4,76.8,24.2,76.8z"/>
					</g>
					<g>
						<path class="st2" d="M115.1,41.4c-0.3,0-0.5-0.1-0.7-0.3c0,0-0.1-0.1-0.1-0.2c0-0.1-0.1-0.1-0.1-0.2c0-0.1,0-0.1-0.1-0.2
							c0-0.1,0-0.1,0-0.2c0-0.1,0-0.3,0.1-0.4c0-0.1,0.1-0.2,0.2-0.3c0.4-0.4,1-0.4,1.4,0c0.1,0.1,0.2,0.2,0.2,0.3s0.1,0.2,0.1,0.4
							c0,0.3-0.1,0.5-0.3,0.7C115.7,41.3,115.4,41.4,115.1,41.4z"/>
						<path class="st2" d="M105.4,71c-0.5-0.2-0.8-0.7-0.6-1.3l0,0c0.2-0.5,0.7-0.8,1.3-0.7l0,0c0.5,0.2,0.8,0.7,0.6,1.3l0,0
							c-0.1,0.4-0.5,0.7-1,0.7l0,0C105.6,71,105.5,71,105.4,71z M107.3,65c-0.5-0.2-0.8-0.7-0.6-1.2l0,0c0.2-0.5,0.7-0.8,1.3-0.6
							l0,0c0.5,0.2,0.8,0.7,0.6,1.2l0,0c-0.1,0.4-0.5,0.7-1,0.7l0,0C107.5,65.1,107.4,65.1,107.3,65z M109.2,59.1
							c-0.5-0.2-0.8-0.7-0.6-1.3l0,0c0.2-0.5,0.7-0.8,1.3-0.7l0,0c0.5,0.2,0.8,0.7,0.6,1.3l0,0c-0.1,0.4-0.5,0.7-1,0.7l0,0
							C109.4,59.2,109.3,59.2,109.2,59.1z M111.1,53.2c-0.5-0.2-0.8-0.7-0.6-1.2l0,0c0.2-0.5,0.7-0.8,1.2-0.7l0,0
							c0.5,0.2,0.8,0.7,0.6,1.2l0,0c-0.1,0.4-0.5,0.7-0.9,0.7l0,0C111.3,53.3,111.2,53.2,111.1,53.2z M113,47.3
							c-0.5-0.2-0.8-0.7-0.6-1.3l0,0c0.2-0.5,0.7-0.8,1.3-0.6l0,0c0.5,0.2,0.8,0.7,0.6,1.3l0,0c-0.1,0.4-0.5,0.7-0.9,0.7l0,0
							C113.2,47.3,113.1,47.3,113,47.3z"/>
						<path class="st2" d="M103.9,76.9c-0.3,0-0.5-0.1-0.7-0.3c-0.2-0.2-0.3-0.4-0.3-0.7c0-0.3,0.1-0.5,0.3-0.7c0.4-0.4,1-0.4,1.4,0
							c0.2,0.2,0.3,0.4,0.3,0.7c0,0.3-0.1,0.5-0.3,0.7C104.4,76.8,104.1,76.9,103.9,76.9z"/>
					</g>
					<g>
						<g>
							<g>
								<g>
									<polygon class="st3" points="103.9,88 64,64.9 24.2,87.9 24.1,99.9 64,123 103.8,100 									"/>
									<polygon class="st4" points="103.8,100 64,123 64,110.9 103.9,88 									"/>
									<polygon class="st5" points="24.1,99.9 64,123 64,110.9 24.2,87.9 									"/>
									<path class="st4" d="M64,124L64,124c-0.6,0-1-0.4-1-1v-12.1c0-0.6,0.4-1,1-1l0,0c0.6,0,1,0.4,1,1V123
										C65,123.6,64.5,124,64,124z"/>
									<path class="st4" d="M83.9,112.5c-0.6,0-1-0.4-1-1v-12c0-0.6,0.4-1,1-1s1,0.4,1,1v12.1C84.9,112.1,84.5,112.5,83.9,112.5z"
										/>
									<path class="st4" d="M83.9,100.5c-0.2,0-0.3,0-0.5-0.1L63.5,88.8c-0.3-0.2-0.5-0.5-0.5-0.9s0.2-0.7,0.5-0.9l19.9-11.5
										c0.3-0.2,0.7-0.2,1,0L104.3,87c0.3,0.2,0.5,0.5,0.5,0.9s-0.2,0.7-0.5,0.9l-19.9,11.5C84.3,100.4,84.1,100.5,83.9,100.5z
										 M66,87.9l17.9,10.4l18-10.3l-18-10.4L66,87.9z"/>
									<ellipse class="st4" cx="64" cy="70.8" rx="1.9" ry="1.1"/>
									<ellipse class="st4" cx="34.4" cy="87.9" rx="1.9" ry="1.1"/>
									<ellipse class="st4" cx="64" cy="105" rx="1.9" ry="1.1"/>
									<path class="st1" d="M64,124c-0.2,0-0.3,0-0.5-0.1l-39.8-23.1c-0.5-0.3-0.6-0.9-0.4-1.4c0.3-0.5,0.9-0.6,1.4-0.4L64,121.8
										l39.4-22.7c0.5-0.3,1.1-0.1,1.4,0.4s0.1,1.1-0.4,1.4l-39.9,23C64.3,124,64.1,124,64,124z"/>
									<path class="st4" d="M64,111.9c-0.2,0-0.3,0-0.5-0.1L23.7,88.7c-0.5-0.3-0.6-0.9-0.4-1.4c0.3-0.5,0.9-0.6,1.4-0.4L64,109.8
										l39.4-22.7c0.5-0.3,1.1-0.1,1.4,0.4s0.1,1.1-0.4,1.4l-39.9,23C64.3,111.9,64.1,111.9,64,111.9z"/>
									<path class="st4" d="M83.9,93.5c-0.2,0-0.3,0-0.5-0.1L75.8,89c-0.3-0.2-0.5-0.5-0.5-0.9s0.2-0.7,0.5-0.9l7.6-4.4
										c0.3-0.2,0.7-0.2,1,0l7.6,4.4c0.3,0.2,0.5,0.5,0.5,0.9S92.3,88.8,92,89l-7.6,4.4C84.3,93.4,84.1,93.5,83.9,93.5z
										 M78.4,88.1l5.6,3.2l5.6-3.2L84,84.9L78.4,88.1z"/>
									<path class="st1" d="M64,124c-0.2,0-0.3,0-0.5-0.1l-39.8-23.1c-0.3-0.2-0.5-0.5-0.5-0.9V87.8c0-0.4,0.2-0.7,0.5-0.9
										l39.9-23c0.3-0.2,0.7-0.2,1,0L104.4,87c0.3,0.2,0.5,0.5,0.5,0.9V100c0,0.4-0.2,0.7-0.5,0.9l-39.9,23
										C64.3,124,64.1,124,64,124z M25.1,99.4L64,121.8l38.9-22.4V88.5L64,66.1L25.2,88.5L25.1,99.4z"/>
								</g>
								<g>
									<polygon class="st3" points="103.9,75.9 64,52.9 24.2,75.8 24.1,87.9 64,110.9 103.8,88 									"/>
									<polygon class="st4" points="103.8,88 64,110.9 64,98.9 103.9,75.9 									"/>
									<polygon class="st5" points="24.1,87.9 64,110.9 64,98.9 24.2,75.8 									"/>
									<path class="st4" d="M64,111.9L64,111.9c-0.6,0-1-0.4-1-1V98.8c0-0.6,0.4-1,1-1l0,0c0.6,0,1,0.4,1,1v12.1
										C65,111.5,64.5,111.9,64,111.9z"/>
									<path class="st4" d="M83.9,100.5c-0.6,0-1-0.4-1-1V87.4c0-0.6,0.4-1,1-1s1,0.4,1,1v12.1C84.9,100,84.5,100.5,83.9,100.5z"
										/>
									<path class="st4" d="M83.9,88.4c-0.2,0-0.3,0-0.5-0.1L63.5,76.7c-0.3-0.2-0.5-0.5-0.5-0.9s0.2-0.7,0.5-0.9l19.9-11.5
										c0.3-0.2,0.7-0.2,1,0l19.9,11.5c0.3,0.2,0.5,0.5,0.5,0.9s-0.2,0.7-0.5,0.9L84.4,88.3C84.3,88.4,84.1,88.4,83.9,88.4z
										 M66,75.9l17.9,10.4L101.8,76L83.9,65.5L66,75.9z"/>
									<ellipse class="st4" cx="64" cy="58.7" rx="1.9" ry="1.1"/>
									<ellipse class="st4" cx="34.4" cy="75.8" rx="1.9" ry="1.1"/>
									<ellipse class="st4" cx="64" cy="93" rx="1.9" ry="1.1"/>
									<path class="st1" d="M64,111.9c-0.2,0-0.3,0-0.5-0.1L23.7,88.7c-0.5-0.3-0.6-0.9-0.4-1.4c0.3-0.5,0.9-0.6,1.4-0.4L64,109.8
										l39.4-22.7c0.5-0.3,1.1-0.1,1.4,0.4s0.1,1.1-0.4,1.4l-39.9,23C64.3,111.9,64.1,111.9,64,111.9z"/>
									<path class="st4" d="M64,99.9c-0.2,0-0.3,0-0.5-0.1L23.7,76.7c-0.5-0.3-0.6-0.9-0.4-1.4c0.3-0.5,0.9-0.6,1.4-0.4L64,97.7
										L103.4,75c0.5-0.3,1.1-0.1,1.4,0.4s0.1,1.1-0.4,1.4l-39.9,23C64.3,99.8,64.1,99.9,64,99.9z"/>
									<path class="st4" d="M83.9,81.4c-0.2,0-0.3,0-0.5-0.1l-7.6-4.4c-0.3-0.2-0.5-0.5-0.5-0.9s0.2-0.7,0.5-0.9l7.6-4.4
										c0.3-0.2,0.7-0.2,1,0l7.6,4.4c0.3,0.2,0.5,0.5,0.5,0.9s-0.2,0.7-0.5,0.9l-7.6,4.4C84.3,81.4,84.1,81.4,83.9,81.4z M78.4,76
										l5.6,3.2l5.6-3.2L84,72.8L78.4,76z"/>
									<path class="st1" d="M64,111.9c-0.2,0-0.3,0-0.5-0.1L23.6,88.7c-0.3-0.2-0.5-0.5-0.5-0.9V75.7c0-0.4,0.2-0.7,0.5-0.9
										l39.9-23c0.3-0.2,0.7-0.2,1,0l39.8,23.1c0.3,0.2,0.5,0.5,0.5,0.9v12.1c0,0.4-0.2,0.7-0.5,0.9l-39.9,23
										C64.3,111.9,64.1,111.9,64,111.9z M25.1,87.3L64,109.8l38.9-22.4V76.5L64,54L25.2,76.4L25.1,87.3z"/>
								</g>
							</g>
						</g>
					</g>
					<g>
						<polygon class="st6" points="84.5,26.7 53.8,5 44.4,10.4 35,15.8 29.7,13.4 15.5,21.6 18,25.7 15.4,27.2 12.9,28.6 43.5,50.4 
							74.2,64.1 94.7,52.2 115.1,40.4 						"/>
						<g>
							<g>
								<polygon class="st3" points="45.2,43.5 22.6,27.8 52,10.8 74.6,26.5 								"/>
								<path class="st2" d="M45.2,44.5c-0.2,0-0.4-0.1-0.6-0.2L22,28.6c-0.3-0.2-0.4-0.5-0.4-0.9s0.2-0.7,0.5-0.8l29.4-17
									c0.3-0.2,0.8-0.2,1.1,0l22.6,15.7c0.3,0.2,0.4,0.5,0.4,0.9s-0.2,0.7-0.5,0.8l-29.4,17C45.6,44.4,45.4,44.5,45.2,44.5z
									 M24.5,27.9l20.8,14.4l27.5-15.8L51.9,12L24.5,27.9z"/>
							</g>
							<polygon class="st7" points="50.3,36.2 34.5,25.3 51.9,15.2 67.7,26.2 							"/>
							<polygon class="st7" points="50.3,36.2 34.5,25.3 51.9,15.2 67.7,26.2 							"/>
							<polygon class="st7" points="50.3,36.2 34.5,25.3 51.9,15.2 67.7,26.2 							"/>
							<polygon class="st6" points="47,33.9 47.8,23.4 38.1,23.2 34.5,25.3 							"/>
							<polygon class="st7" points="50.3,36.2 56.2,32.8 56.6,26.9 36,26.3 							"/>
							
								<ellipse transform="matrix(1 -4.363731e-03 4.363731e-03 1 -9.768003e-02 0.2319)" class="st3" cx="53.1" cy="22.5" rx="3.3" ry="2.1"/>
							<polygon class="st6" points="50.3,36.2 54.1,34 54.6,28.1 38,27.7 							"/>
						</g>
						<path class="st7" d="M43.5,51.4c-0.3,0-0.7-0.2-0.9-0.5c-0.3-0.5-0.1-1.1,0.4-1.4l41-23.6c0.5-0.3,1.1-0.1,1.4,0.4
							s0.1,1.1-0.4,1.4L44,51.2C43.9,51.3,43.7,51.4,43.5,51.4z"/>
						<g>
							<g>
								<polygon class="st3" points="54.3,49.5 84.2,32.3 104.4,41.3 74.4,58.5 								"/>
								<path class="st2" d="M74.4,59.5c-0.1,0-0.3,0-0.4-0.1l-20.1-9c-0.3-0.2-0.6-0.5-0.6-0.9s0.2-0.7,0.5-0.9l29.9-17.3
									c0.3-0.2,0.6-0.2,0.9,0l20.1,9c0.3,0.2,0.6,0.5,0.6,0.9s-0.2,0.7-0.5,0.9L74.9,59.4C74.8,59.5,74.6,59.5,74.4,59.5z
									 M56.5,49.4l17.9,8l27.8-16l-17.9-8L56.5,49.4z"/>
							</g>
							<g>
								<path class="st7" d="M93.4,43.3c-0.1,0-0.3,0-0.4-0.1l-10.9-4.9c-0.5-0.2-0.7-0.8-0.5-1.3s0.8-0.7,1.3-0.5l10.9,4.9
									c0.5,0.2,0.7,0.8,0.5,1.3C94.2,43.1,93.8,43.3,93.4,43.3z"/>
								<path class="st7" d="M87.5,46.8c-0.1,0-0.3,0-0.4-0.1l-10.9-4.9c-0.5-0.2-0.7-0.8-0.5-1.3s0.8-0.7,1.3-0.5l10.9,4.9
									c0.5,0.2,0.7,0.8,0.5,1.3C88.2,46.6,87.9,46.8,87.5,46.8z"/>
								<path class="st7" d="M81.5,50.2c-0.1,0-0.3,0-0.4-0.1l-10.9-4.9c-0.5-0.2-0.7-0.8-0.5-1.3s0.8-0.7,1.3-0.5l10.9,4.9
									c0.5,0.2,0.7,0.8,0.5,1.3C82.3,50,81.9,50.2,81.5,50.2z"/>
								<path class="st7" d="M75.6,53.7c-0.1,0-0.3,0-0.4-0.1l-10.9-4.9c-0.5-0.2-0.7-0.8-0.5-1.3s0.8-0.7,1.3-0.5L76,51.8
									c0.5,0.2,0.7,0.8,0.5,1.3C76.3,53.4,75.9,53.7,75.6,53.7z"/>
							</g>
						</g>
						<path class="st2" d="M74.2,65.1c-0.1,0-0.3,0-0.4-0.1L43.1,51.3c-0.1,0-0.1-0.1-0.2-0.1L12.3,29.5c-0.3-0.2-0.4-0.5-0.4-0.9
							s0.2-0.6,0.5-0.8l4.3-2.5l-1.9-3.2c-0.1-0.2-0.2-0.5-0.1-0.8c0.1-0.3,0.2-0.5,0.5-0.6l14.2-8.2c0.3-0.2,0.6-0.2,0.9,0l4.8,2.2
							L53.3,4.1c0.3-0.2,0.8-0.2,1.1,0L85,25.8l30.6,13.7c0.3,0.2,0.6,0.5,0.6,0.9s-0.2,0.7-0.5,0.9l-41,23.6
							C74.6,65,74.4,65.1,74.2,65.1z M44,49.5L74.1,63L113,40.5L84.1,27.6c-0.1,0-0.1-0.1-0.2-0.1L53.7,6.2L35.5,16.7
							c-0.3,0.2-0.6,0.2-0.9,0l-4.8-2.2L16.9,22l1.9,3.2c0.1,0.2,0.2,0.5,0.1,0.8s-0.2,0.5-0.5,0.6l-3.8,2.2L44,49.5z"/>
					</g>
				</g>
			</g>
		</g>
	</g>
	<g>
		<rect class="st0" width="128" height="128"/>
	</g>
</g>
</svg>
