<?xml version="1.0" encoding="utf-8"?>
<!-- Generator: Adobe Illustrator 24.1.0, SVG Export Plug-In . SVG Version: 6.00 Build 0)  -->
<svg version="1.1" id="Layer_1" xmlns="http://www.w3.org/2000/svg" xmlns:xlink="http://www.w3.org/1999/xlink" x="0px" y="0px"
	 viewBox="0 0 128 128" style="enable-background:new 0 0 128 128;" xml:space="preserve">
<style type="text/css">
	.st0{fill:#E9EBDF;}
	.st1{fill:#4D9987;}
	.st2{fill:#0E352C;}
	.st3{fill:#FFFFFF;}
	.st4{fill:#C4D7D3;}
	.st5{fill:#185849;}
	.st6{fill:#27ae60;}
	.st7{fill:none;}
</style>
<g id="Layer_1_1_">
</g>
<g>
	<g id="Layer_2_1_">
		<g id="New_Icon_Set_1_">
			<g>
				<g>
					<g>
						<g>
							<g>
								<path class="st0" d="M97.6,51.4H80.1v8.5c0,0.4,0.1,0.8,0.3,1.2l0,0l1.6,3.8l0,0c0.8,1.8,3.5,3.1,6.9,3.1
									c3.3,0,6.1-1.3,6.9-3.1l0,0l1.6-3.8l0,0c0.2-0.4,0.3-0.8,0.3-1.2v-8.5H97.6z"/>
								<path class="st1" d="M88.8,68c3.3,0,6.1-1.3,6.9-3.1l0,0l1.6-3.8l0,0c0.2-0.4,0.3-0.8,0.3-1.2v-8.5h-8.8V68z"/>
								<path class="st2" d="M88.8,63.1c-5.5,0-9.8-2.7-9.8-6.1c0-0.6,0.4-1,1-1s1,0.4,1,1c0,2,3.1,4.1,7.8,4.1s7.8-2.1,7.8-4.1
									c0-0.6,0.4-1,1-1s1,0.4,1,1C98.6,60.5,94.3,63.1,88.8,63.1z"/>
								<path class="st2" d="M88.8,69c-3.6,0-6.7-1.4-7.7-3.6c0,0,0-0.1-0.1-0.1l-1.6-3.8c0,0,0-0.1-0.1-0.2c-0.2-0.5-0.3-1-0.3-1.5
									v-8.5c0-0.6,0.4-1,1-1h17.5c0.6,0,1,0.4,1,1v8.5c0,0.5-0.1,1-0.3,1.5v0.1l-1.6,3.8c0,0,0,0.1-0.1,0.1
									C95.5,67.6,92.4,69,88.8,69z M82.8,64.4C82.8,64.4,82.8,64.5,82.8,64.4c0.6,1.3,2.9,2.6,6,2.6c3.2,0,5.4-1.3,5.9-2.5
									c0,0,0-0.1,0.1-0.1l1.5-3.6v-0.1c0.1-0.3,0.2-0.6,0.2-0.8v-7.5H81.1v7.5c0,0.3,0.1,0.5,0.2,0.8v0.1L82.8,64.4z"/>
								<path class="st3" d="M109.8,26c0-12.1-10.3-21.9-22.6-20.9c-10.5,0.8-18.8,9.3-19.4,19.8c-0.4,7.5,3.2,14.3,8.8,18.3
									c2.2,1.5,3.4,4,3.4,6.7v1.5l0,0v0.1c0,2.8,3.9,5.1,8.8,5.1c4.8,0,8.8-2.3,8.8-5.1v-0.1l0,0v-1.6c0-2.6,1.3-5.1,3.4-6.7
									C106.3,39.3,109.8,33.1,109.8,26z"/>
								<path class="st2" d="M88.8,57.5c-5.5,0-9.8-2.7-9.8-6.1l0,0l0,0v-1.5c0-2.4-1.1-4.6-3-5.9c-6.2-4.4-9.7-11.5-9.3-19.1
									C67.3,13.9,76,5,87,4.1c6.2-0.5,12.1,1.6,16.6,5.8s7,10,7,16.1c0,7.1-3.5,13.8-9.3,17.9c-1.9,1.3-3,3.5-3,5.8v1.6
									c0,0,0,0,0,0.1l0,0C98.6,54.8,94.3,57.5,88.8,57.5z M81.1,51.2c0,0.1,0,0.1,0,0.2v0.1c0,2.1,3.6,4,7.8,4
									c4.2,0,7.8-1.9,7.8-4.1v-0.1v-1.6c0-3,1.4-5.8,3.8-7.5c5.3-3.8,8.4-9.8,8.4-16.3c0-5.5-2.3-10.9-6.4-14.7S93,5.5,87.4,5.9
									c-10,0.7-17.9,8.9-18.4,18.9c-0.4,6.9,2.8,13.4,8.4,17.4c2.4,1.7,3.8,4.5,3.8,7.5v1.5H81.1z"/>
								<path class="st3" d="M88.8,54.8c4,0,7-1.8,7.1-3.4v-0.1c0-0.1,0-0.1,0-0.2v-1.4c0-3.2,1.5-6.2,4.1-8
									c5.5-3.9,8.5-10.2,8.1-16.8c-0.5-9.7-8.2-17.5-17.8-18.3c-0.5,0-1-0.1-1.5-0.1c-10.7,0-19.4,8.7-19.4,19.4
									c0,6.2,3,12.1,8.1,15.8c2.6,1.8,4.1,4.8,4.1,8v1.4c0,0.1,0,0.1,0,0.2v0.1C81.8,53.1,84.8,54.8,88.8,54.8z"/>
								<g>
									<path class="st0" d="M88.8,16.7v26.4c0,1.9-1.3,3.5-3.1,4.1c-1.8,0.6-3,1.7-3,3c0,1.9,2.7,3.5,6.1,3.5s6.1-1.6,6.1-3.5l0,0
										l0,0v-0.6c0-3.5,1.7-6.8,4.5-8.9c4.8-3.4,7.7-9,7.7-14.9c0-6-2.9-11.4-7.4-14.7C95.2,8,88.8,11.2,88.8,16.7z"/>
									<path class="st3" d="M88.8,54.3c-3.7,0-6.6-1.8-6.6-4c0-1.5,1.2-2.8,3.3-3.5c1.6-0.5,2.7-2,2.7-3.7V16.7
										c0-2.8,1.5-5.3,4-6.5s5.4-1,7.6,0.6c4.8,3.5,7.6,9.2,7.6,15.1c0,6.1-3,11.8-7.9,15.3c-2.7,1.9-4.3,5.1-4.3,8.4v0.6
										C95.4,52.6,92.5,54.3,88.8,54.3z M95.6,10.4c-1,0-1.9,0.2-2.9,0.7c-2.2,1.1-3.5,3.2-3.5,5.6v26.4c0,2.1-1.4,3.9-3.4,4.6
										c-1.6,0.6-2.7,1.5-2.7,2.5c0,1.6,2.5,3,5.6,3s5.6-1.4,5.6-3v-0.6c0-3.7,1.8-7.1,4.8-9.3c4.7-3.3,7.5-8.8,7.5-14.5
										c0-5.6-2.7-11-7.2-14.3C98.2,10.8,96.9,10.4,95.6,10.4z"/>
								</g>
							</g>
							
								<ellipse transform="matrix(0.7071 -0.7071 0.7071 0.7071 11.6811 60.2089)" class="st0" cx="78.5" cy="16" rx="3.9" ry="2.3"/>
						</g>
					</g>
					<g>
						<g>
							<path class="st4" d="M48.2,79c-12.3,0-30,11-30,32.8c0,11.6,19.9,13.1,34.3,9.5c14.4-3.7,19.4-10.8,19.4-18.3
								C71.9,90.8,61.5,79,48.2,79z"/>
							<path class="st5" d="M38.2,124c-6.6,0-13-1.2-17-4.4c-2.6-2-4-4.7-4-7.9C17.2,99,23,91,27.9,86.5c5.8-5.3,13.4-8.5,20.3-8.5
								c13.2,0,24.7,11.6,24.7,24.9c0,6.5-3.5,15-20.2,19.3C48.3,123.3,43.2,124,38.2,124z M48.2,80c-12.2,0-29,11-29,31.8
								c0,2.5,1.1,4.7,3.2,6.3c6.2,4.8,19.7,4.8,29.9,2.2C64.5,117.2,71,111.2,71,103C70.9,90.7,60.3,80,48.2,80z"/>
							<path class="st4" d="M38.3,122c-4.5,0-19.1-0.7-19.1-10.3C19.1,91,36,80,48.2,80C61.6,80,71,92.1,71,103
								c0,5.8-3.2,13.4-18.7,17.4C47.8,121.4,42.9,122,38.3,122z M48.2,82c-11.3,0-27,10.4-27,29.8c0,7.7,13.1,8.3,17.1,8.3
								c4.4,0,9.2-0.6,13.5-1.7c7.8-2,17.2-6.3,17.2-15.4C68.9,93,60.4,82,48.2,82z"/>
							<g>
								<circle class="st4" cx="45.6" cy="62.5" r="20.9"/>
								<path class="st6" d="M59,50.6c-1-1.1-2.8,0-2.2,1.3c1.8,4.4,2.3,10.8-4.3,17.4C45.9,76,39.4,75.4,35,73.6
									c-1.4-0.6-2.4,1.2-1.3,2.2c3.6,3.2,8.5,5,13.8,4.5c8.3-0.9,15.1-7.6,15.9-15.9C64,59.1,62.2,54.2,59,50.6z"/>
								<path class="st5" d="M45.6,84.4c-12.1,0-21.9-9.8-21.9-21.9s9.8-21.9,21.9-21.9s21.9,9.8,21.9,21.9
									C67.5,74.5,57.7,84.4,45.6,84.4z M45.6,42.6c-11,0-19.9,8.9-19.9,19.9s8.9,19.9,19.9,19.9s19.9-8.9,19.9-19.9
									S56.6,42.6,45.6,42.6z"/>
								
									<ellipse transform="matrix(0.7071 -0.7071 0.7071 0.7071 -26.7233 40.6973)" class="st3" cx="35.8" cy="52.6" rx="4.8" ry="3"/>
								<path class="st4" d="M45.6,82.4c-11,0-19.9-8.9-19.9-19.9s8.9-19.9,19.9-19.9s19.9,8.9,19.9,19.9S56.6,82.4,45.6,82.4z
									 M45.6,44.5c-9.9,0-17.9,8-17.9,17.9s8,17.9,17.9,17.9s17.9-8,17.9-17.9S55.5,44.5,45.6,44.5z"/>
							</g>
							
								<ellipse transform="matrix(0.6392 -0.769 0.769 0.6392 -61.9163 57.7571)" class="st3" cx="30.6" cy="94.9" rx="4.4" ry="2.7"/>
							<path class="st6" d="M69,102.9c0-6.8-4-14.1-10.4-18c-1.7-1-3.9,0.3-3.7,2.2c0.2,1.4,0.2,2.8,0.2,4.2c0,9-4.2,17.7-16.6,22.1
								c-1.9,0.7-3.9,1.2-5.9,1.6c-2.7,0.5-2.6,4.4,0.1,4.7c2.2,0.3,4.3,0.3,5.5,0.3c4.4,0,9.2-0.6,13.5-1.7
								C59.6,116.4,69,112.1,69,102.9z"/>
						</g>
					</g>
				</g>
				<rect x="4" y="4" class="st7" width="120" height="120"/>
				<rect x="4" y="4" class="st7" width="120" height="120"/>
			</g>
		</g>
	</g>
	<g>
		<rect class="st7" width="128" height="128"/>
	</g>
</g>
</svg>
