<?xml version="1.0" encoding="utf-8"?>
<!-- Generator: Adobe Illustrator 24.1.0, SVG Export Plug-In . SVG Version: 6.00 Build 0)  -->
<svg version="1.1" id="Layer_1" xmlns="http://www.w3.org/2000/svg" xmlns:xlink="http://www.w3.org/1999/xlink" x="0px" y="0px"
	 viewBox="0 0 128 128" style="enable-background:new 0 0 128 128;" xml:space="preserve">
<style type="text/css">
	.st0{fill:#E9EBDF;}
	.st1{fill:#0E352C;}
	.st2{fill:#4D9987;}
	.st3{fill:#FFFFFF;}
	.st4{fill:#C4D7D3;}
	.st5{fill:#27ae60;}
	.st6{fill:none;}
	.st7{fill:#185849;}
</style>
<g id="Layer_1_1_">
</g>
<g>
	<g id="Layer_2_1_">
		<g id="Industries_1_">
			<g>
				<g>
					<g>
						<g>
							<path class="st0" d="M47,46.6c-13.7,0-33.4,12.2-33.4,36.4c0,12.9,22.1,14.6,38.1,10.5s21.6-12.1,21.6-20.3
								C73.3,59.8,61.8,46.6,47,46.6z"/>
							<path class="st1" d="M35.8,96.6c-7.4,0-14.4-1.4-18.9-4.8c-2.9-2.3-4.4-5.2-4.4-8.7c0-14.2,6.4-23.1,11.9-28
								c6.4-5.9,14.8-9.4,22.5-9.4c14.6,0,27.4,12.9,27.4,27.6c0,7.1-3.9,16.6-22.3,21.3C47.1,95.8,41.4,96.6,35.8,96.6z M47,47.6
								c-13.6,0-32.4,12.3-32.4,35.4c0,2.9,1.2,5.2,3.6,7.1c6.9,5.4,22,5.3,33.3,2.5c13.6-3.5,20.8-10.1,20.8-19.4
								C72.3,59.6,60.5,47.6,47,47.6z"/>
							<path class="st0" d="M36,94.4c-5,0-21.2-0.8-21.2-11.3c0-23,18.7-35.2,32.2-35.2c14.8,0,25.2,13.4,25.2,25.4
								c0,9.1-7.2,15.8-20.7,19.2C46.5,93.7,41,94.4,36,94.4z M47,49.8c-12.7,0-30.2,11.6-30.2,33.2c0,8.6,14.7,9.3,19.2,9.3
								c4.9,0,10.2-0.7,15-1.9c8.8-2.2,19.2-7,19.2-17.3C70.2,62.2,60.6,49.8,47,49.8z"/>
							<g>
								<circle class="st0" cx="44.1" cy="28.2" r="23.2"/>
								<path class="st2" d="M59,15c-1.1-1.2-3.1,0-2.5,1.5c2,4.9,2.6,12-4.8,19.4s-14.5,6.8-19.4,4.8c-1.5-0.6-2.7,1.4-1.5,2.5
									c4,3.6,9.5,5.6,15.4,5c9.3-1,16.7-8.5,17.7-17.7C64.6,24.4,62.6,19,59,15z"/>
								<path class="st1" d="M44.1,52.5c-13.4,0-24.2-10.9-24.2-24.2S30.7,4,44.1,4s24.2,10.9,24.2,24.2S57.5,52.5,44.1,52.5z
									 M44.1,6C31.9,6,21.9,16,21.9,28.2s10,22.2,22.2,22.2c12.3,0,22.2-10,22.2-22.2S56.4,6,44.1,6z"/>
								
									<ellipse transform="matrix(0.7071 -0.7071 0.7071 0.7071 -2.4968 28.5346)" class="st3" cx="33.2" cy="17.3" rx="5.4" ry="3.3"/>
								<path class="st0" d="M44.1,50.3C31.9,50.3,22,40.4,22,28.2s9.9-22,22.1-22s22.1,9.9,22.1,22.1S56.3,50.3,44.1,50.3z
									 M44.1,8.2C33,8.2,24,17.2,24,28.3s9,20.1,20.1,20.1s20.1-9,20.1-20.1S55.2,8.2,44.1,8.2z"/>
							</g>
							
								<ellipse transform="matrix(0.6392 -0.769 0.769 0.6392 -39.5289 44.2648)" class="st3" cx="27.4" cy="64.3" rx="4.8" ry="3"/>
							<path class="st2" d="M70.1,73.2c0-7.5-4.4-15.6-11.5-20c-1.9-1.2-4.3,0.3-4.1,2.5c0.2,1.5,0.3,3.1,0.3,4.7
								c0,10-4.7,19.6-18.4,24.6c-2.1,0.8-4.3,1.3-6.6,1.7c-3,0.5-2.9,4.9,0.1,5.2c2.5,0.3,4.8,0.4,6.1,0.4c4.9,0,10.2-0.7,15-1.9
								C59.7,88.2,70.1,83.4,70.1,73.2z"/>
						</g>
					</g>
					<g>
						<g>
							<g>
								<path class="st4" d="M110.1,81.5c-0.1,0-0.1-0.1-0.2-0.1c-6.1-3.5-15.9-3.5-22,0c-0.1,0-0.1,0.1-0.2,0.1h-4.3v6.4
									c0,2.3,1.5,4.6,4.5,6.3c6.1,3.5,15.9,3.5,22,0c3-1.8,4.5-4,4.5-6.3v-6.4H110.1z"/>
								<path class="st5" d="M109.8,94.2c3-1.8,4.5-4,4.5-6.3v-6.4H110c-0.1,0-0.1-0.1-0.2-0.1c-3-1.8-7-2.6-11-2.6v18.1
									C102.8,96.9,106.8,96,109.8,94.2z"/>
								<ellipse class="st4" cx="98.9" cy="81.5" rx="15.5" ry="9"/>
								<path class="st3" d="M98.9,91.4c-4.2,0-8.3-0.9-11.5-2.7c-3.3-1.9-5-4.4-5-7.2s1.8-5.3,5-7.2c6.3-3.7,16.6-3.7,23,0l0,0
									c3.3,1.9,5,4.4,5,7.2s-1.8,5.3-5,7.2C107.2,90.5,103,91.4,98.9,91.4z M98.9,73.5c-3.8,0-7.6,0.8-10.5,2.5
									c-2.6,1.5-4,3.5-4,5.5s1.4,4,4,5.5c5.8,3.3,15.2,3.3,21,0c2.6-1.5,4-3.5,4-5.5s-1.4-4-4-5.5l0,0
									C106.5,74.4,102.7,73.5,98.9,73.5z"/>
								<ellipse class="st6" cx="98.9" cy="87.3" rx="15.9" ry="9.6"/>
								<path class="st7" d="M98.9,97.9c-4.3,0-8.4-1-11.5-2.8c-3.3-1.9-5-4.4-5-7.2v-6.4c0-2.8,1.8-5.3,5-7.2
									c6.3-3.7,16.6-3.7,23,0c3.3,1.9,5,4.4,5,7.2v6.4c0,1-0.3,2-0.8,3c-0.8,1.6-2.3,3-4.3,4.2c-1.6,0.9-3.4,1.6-5.4,2.1
									c-0.5,0.1-1,0.2-1.5,0.3c-1,0.2-2,0.3-3,0.3C99.9,97.9,99.4,97.9,98.9,97.9z M98.9,73.5c-3.8,0-7.6,0.8-10.5,2.5
									c-2.6,1.5-4,3.5-4,5.5v6.4c0,2,1.4,4,4,5.5c3.1,1.8,7.5,2.7,11.9,2.5c1-0.1,1.9-0.2,2.8-0.3c0.5-0.1,0.9-0.2,1.4-0.3
									c1.8-0.4,3.5-1.1,4.9-1.9c1.7-1,2.9-2.1,3.5-3.4c0.4-0.7,0.5-1.4,0.5-2.1v-6.4c0-2-1.4-4-4-5.5
									C106.5,74.4,102.7,73.5,98.9,73.5z"/>
								<path class="st5" d="M104.9,84l1.6,1l-1.5,0.8l-1.6-0.9c-0.8,0.4-1.6,0.7-2.5,1s-1.7,0.4-2.4,0.5l-1-1.5
									c0.6-0.1,1.3-0.2,2-0.4c0.7-0.2,1.3-0.4,1.9-0.7l-2.5-1.4c-0.9,0.3-1.6,0.5-2.3,0.7c-0.7,0.2-1.4,0.2-2.1,0.2
									s-1.4-0.3-2.1-0.6c-0.8-0.5-1.2-1-1.2-1.7s0.5-1.4,1.5-2.1L91.1,78l1.5-0.8l1.6,0.9c1.3-0.6,2.6-1,3.9-1.2l1.1,1.5
									c-1.2,0.2-2.2,0.5-3,0.9l2.5,1.4c0.8-0.3,1.6-0.5,2.3-0.7c0.7-0.2,1.4-0.2,2.1-0.2s1.4,0.2,2.1,0.6c0.8,0.5,1.2,1,1.2,1.7
									C106.3,82.6,105.8,83.3,104.9,84z M95.7,81.3c0.4,0,0.8-0.1,1.2-0.2l-2.1-1.2c-0.3,0.3-0.4,0.5-0.4,0.7s0.2,0.4,0.4,0.5
									C95.1,81.3,95.4,81.3,95.7,81.3 M100.9,81.7l2,1.2c0.3-0.2,0.4-0.5,0.4-0.7s-0.1-0.4-0.4-0.5s-0.5-0.2-0.9-0.2
									C101.8,81.5,101.4,81.6,100.9,81.7"/>
							</g>
							<g>
								<path class="st4" d="M110.1,75.1c-0.1,0-0.1-0.1-0.2-0.1c-6.1-3.5-15.9-3.5-22,0c-0.1,0-0.1,0.1-0.2,0.1h-4.3v6.4
									c0,2.3,1.5,4.6,4.5,6.3c6.1,3.5,15.9,3.5,22,0c3-1.8,4.5-4,4.5-6.3v-6.4H110.1z"/>
								<path class="st5" d="M109.8,87.8c3-1.8,4.5-4,4.5-6.3v-6.4H110c-0.1,0-0.1-0.1-0.2-0.1c-3-1.8-7-2.6-11-2.6v18.1
									C102.8,90.5,106.8,89.6,109.8,87.8z"/>
								<ellipse class="st4" cx="98.9" cy="75.1" rx="15.5" ry="9"/>
								<path class="st3" d="M98.9,85c-4.2,0-8.3-0.9-11.5-2.7c-3.3-1.9-5-4.4-5-7.2c0-2.8,1.8-5.3,5-7.2c6.3-3.7,16.6-3.7,23,0l0,0
									c3.3,1.9,5,4.4,5,7.2c0,2.8-1.8,5.3-5,7.2C107.2,84.1,103,85,98.9,85z M98.9,67.1c-3.8,0-7.6,0.8-10.5,2.5
									c-2.6,1.5-4,3.5-4,5.5s1.4,4,4,5.5c5.8,3.3,15.2,3.3,21,0c2.6-1.5,4-3.5,4-5.5s-1.4-4-4-5.5l0,0
									C106.5,67.9,102.7,67.1,98.9,67.1z"/>
								<ellipse class="st6" cx="98.9" cy="80.9" rx="15.9" ry="9.6"/>
								<path class="st7" d="M98.9,91.5c-4.3,0-8.4-1-11.5-2.8c-3.3-1.9-5-4.4-5-7.2v-6.4c0-2.8,1.8-5.3,5-7.2
									c6.3-3.7,16.6-3.7,23,0c3.3,1.9,5,4.4,5,7.2v6.4c0,1-0.3,2-0.8,3c-0.8,1.6-2.3,3-4.3,4.2c-1.6,0.9-3.4,1.6-5.4,2.1
									c-0.5,0.1-1,0.2-1.5,0.3c-1,0.2-2,0.3-3,0.3C99.9,91.4,99.4,91.5,98.9,91.5z M98.9,67.1c-3.8,0-7.6,0.8-10.5,2.5
									c-2.6,1.5-4,3.5-4,5.5v6.4c0,2,1.4,4,4,5.5c2.8,1.6,6.5,2.5,10.5,2.5c0.5,0,1,0,1.4,0c1-0.1,1.9-0.2,2.8-0.3
									c0.5-0.1,0.9-0.2,1.4-0.3c1.8-0.4,3.5-1.1,4.9-1.9c1.7-1,2.9-2.1,3.5-3.4c0.4-0.7,0.5-1.4,0.5-2.1l0,0v-6.4c0-2-1.4-4-4-5.5
									C106.5,67.9,102.7,67.1,98.9,67.1z"/>
								<path class="st5" d="M104.9,77.6l1.6,1l-1.5,0.8l-1.6-0.9c-0.8,0.4-1.6,0.7-2.5,1s-1.7,0.4-2.4,0.5l-1-1.5
									c0.6-0.1,1.3-0.2,2-0.4c0.7-0.2,1.3-0.4,1.9-0.7L98.9,76c-0.9,0.3-1.6,0.5-2.3,0.7c-0.7,0.2-1.4,0.2-2.1,0.2
									s-1.4-0.3-2.1-0.6c-0.8-0.5-1.2-1-1.2-1.7s0.5-1.4,1.5-2.1l-1.6-0.9l1.5-0.8l1.6,0.9c1.3-0.6,2.6-1,3.9-1.2l1.1,1.5
									c-1.2,0.2-2.2,0.5-3,0.9l2.5,1.4c0.8-0.3,1.6-0.5,2.3-0.7c0.7-0.2,1.4-0.2,2.1-0.2s1.4,0.2,2.1,0.6c0.8,0.5,1.2,1,1.2,1.7
									C106.3,76.2,105.8,76.9,104.9,77.6z M95.7,74.9c0.4,0,0.8-0.1,1.2-0.2l-2.1-1.2c-0.3,0.3-0.4,0.5-0.4,0.7s0.2,0.4,0.4,0.5
									C95.1,74.9,95.4,74.9,95.7,74.9 M100.9,75.3l2,1.2c0.3-0.2,0.4-0.5,0.4-0.7s-0.1-0.4-0.4-0.5s-0.5-0.2-0.9-0.2
									C101.8,75.1,101.4,75.2,100.9,75.3"/>
							</g>
							<g>
								<path class="st4" d="M110.1,68.6c-0.1,0-0.1-0.1-0.2-0.1c-6.1-3.5-15.9-3.5-22,0c-0.1,0-0.1,0.1-0.2,0.1h-4.3V75
									c0,2.3,1.5,4.6,4.5,6.3c6.1,3.5,15.9,3.5,22,0c3-1.8,4.5-4,4.5-6.3v-6.4H110.1z"/>
								<path class="st5" d="M109.8,81.4c3-1.8,4.5-4,4.5-6.3v-6.4H110c-0.1,0-0.1-0.1-0.2-0.1c-3-1.8-7-2.6-11-2.6v18
									C102.8,84,106.8,83.1,109.8,81.4z"/>
								<ellipse class="st4" cx="98.9" cy="68.6" rx="15.5" ry="9"/>
								<path class="st3" d="M98.9,78.6c-4.2,0-8.3-0.9-11.5-2.7c-3.3-1.9-5-4.4-5-7.2s1.8-5.3,5-7.2c6.3-3.7,16.6-3.7,23,0
									c3.3,1.9,5,4.4,5,7.2s-1.8,5.3-5,7.2C107.2,77.6,103,78.6,98.9,78.6z M98.9,60.6c-3.8,0-7.6,0.8-10.5,2.5
									c-2.6,1.5-4,3.5-4,5.5s1.4,4,4,5.5c5.8,3.3,15.2,3.3,21,0c2.6-1.5,4-3.5,4-5.5s-1.4-4-4-5.5l0,0
									C106.5,61.5,102.7,60.6,98.9,60.6z"/>
								<ellipse class="st6" cx="98.9" cy="74.4" rx="15.9" ry="9.6"/>
								<path class="st7" d="M98.9,85c-4.3,0-8.4-1-11.5-2.8c-3.3-1.9-5-4.4-5-7.2v-6.4c0-2.8,1.8-5.3,5-7.2c6.3-3.7,16.6-3.7,23,0
									c3.3,1.9,5,4.4,5,7.2V75c0,1-0.3,2-0.8,3c-0.8,1.6-2.3,3-4.3,4.2c-1.6,0.9-3.4,1.6-5.4,2.1c-0.5,0.1-1,0.2-1.5,0.3
									c-1,0.2-2,0.3-3,0.3C99.9,85,99.4,85,98.9,85z M98.9,60.6c-3.8,0-7.6,0.8-10.5,2.5c-2.6,1.5-4,3.5-4,5.5V75c0,2,1.4,4,4,5.5
									c3.1,1.8,7.5,2.7,11.9,2.5c1-0.1,1.9-0.2,2.8-0.3c0.5-0.1,0.9-0.2,1.4-0.3c1.8-0.4,3.5-1.1,4.9-1.9c1.7-1,2.9-2.1,3.5-3.4
									c0.4-0.7,0.5-1.4,0.5-2.1v-6.4c0-2-1.4-4-4-5.5C106.5,61.5,102.7,60.6,98.9,60.6z"/>
								<path class="st5" d="M104.9,71.1l1.6,1l-1.5,0.8l-1.6-0.9c-0.8,0.4-1.6,0.7-2.5,1s-1.7,0.4-2.4,0.5l-1-1.5
									c0.6-0.1,1.3-0.2,2-0.4c0.7-0.2,1.3-0.4,1.9-0.7l-2.5-1.4c-0.9,0.3-1.6,0.5-2.3,0.7c-0.7,0.2-1.4,0.2-2.1,0.2
									s-1.4-0.3-2.1-0.6c-0.8-0.5-1.2-1-1.2-1.7s0.5-1.4,1.5-2.1l-1.6-0.9l1.5-0.8l1.6,0.9c1.3-0.6,2.6-1,3.9-1.2l1.1,1.5
									c-1.2,0.2-2.2,0.5-3,0.9l2.5,1.4c0.8-0.3,1.6-0.5,2.3-0.7c0.7-0.2,1.4-0.2,2.1-0.2s1.4,0.2,2.1,0.6c0.8,0.5,1.2,1,1.2,1.7
									C106.3,69.7,105.8,70.4,104.9,71.1z M95.7,68.4c0.4,0,0.8-0.1,1.2-0.2L94.8,67c-0.3,0.3-0.4,0.5-0.4,0.7s0.2,0.4,0.4,0.5
									C95.1,68.4,95.4,68.5,95.7,68.4 M100.9,68.8l2,1.2c0.3-0.2,0.4-0.5,0.4-0.7s-0.1-0.4-0.4-0.5s-0.5-0.2-0.9-0.2
									C101.8,68.6,101.4,68.7,100.9,68.8"/>
							</g>
						</g>
						<g>
							<path class="st4" d="M89.7,94.9c-0.1,0-0.1-0.1-0.2-0.1c-6.1-3.5-15.9-3.5-22,0c-0.1,0-0.1,0.1-0.2,0.1H63v6.4
								c0,2.3,1.5,4.6,4.5,6.3c6.1,3.5,15.9,3.5,22,0c3-1.8,4.5-4,4.5-6.3v-6.4H89.7z"/>
							<path class="st5" d="M89.5,107.7c3-1.8,4.5-4,4.5-6.3V95h-4.3c-0.1,0-0.1-0.1-0.2-0.1c-3-1.8-7-2.6-11-2.6v18.1
								C82.5,110.3,86.5,109.4,89.5,107.7z"/>
							<ellipse class="st4" cx="78.6" cy="94.9" rx="15.5" ry="9"/>
							<path class="st3" d="M78.6,104.9c-4.2,0-8.3-0.9-11.5-2.7c-3.3-1.9-5-4.4-5-7.2s1.8-5.3,5-7.2c6.3-3.7,16.6-3.7,23,0l0,0
								c3.3,1.9,5,4.4,5,7.2s-1.8,5.3-5,7.2C86.9,104,82.7,104.9,78.6,104.9z M78.6,87c-3.8,0-7.6,0.8-10.5,2.5
								c-2.6,1.5-4,3.5-4,5.5s1.4,4,4,5.5c5.8,3.3,15.2,3.3,21,0c2.6-1.5,4-3.5,4-5.5s-1.4-4-4-5.5l0,0C86.1,87.8,82.4,87,78.6,87z"
								/>
							<ellipse class="st6" cx="78.6" cy="100.7" rx="15.9" ry="9.6"/>
							<path class="st7" d="M78.6,111.3c-4.3,0-8.4-1-11.5-2.8c-3.3-1.9-5-4.4-5-7.2v-6.4c0-2.8,1.8-5.3,5-7.2
								c6.3-3.7,16.6-3.7,23,0c3.3,1.9,5,4.4,5,7.2v6.4c0,1-0.3,2-0.8,3c-0.8,1.6-2.3,3-4.3,4.2c-1.6,0.9-3.4,1.6-5.4,2.1
								c-0.5,0.1-1,0.2-1.5,0.3c-1,0.2-2,0.3-3,0.3C79.6,111.3,79.1,111.3,78.6,111.3z M78.6,87c-3.8,0-7.6,0.8-10.5,2.5
								c-2.6,1.5-4,3.5-4,5.5v6.4c0,2,1.4,4,4,5.5c2.8,1.6,6.5,2.5,10.5,2.5c0.5,0,1,0,1.4,0c1-0.1,1.9-0.2,2.8-0.3
								c0.5-0.1,0.9-0.2,1.4-0.3c1.8-0.4,3.5-1.1,4.9-1.9c1.7-1,2.9-2.1,3.5-3.4c0.4-0.7,0.5-1.4,0.5-2.1V95c0-2-1.4-4-4-5.5
								C86.1,87.8,82.4,87,78.6,87z"/>
							<path class="st5" d="M84.6,97.4l1.6,1l-1.5,0.8l-1.6-0.9c-0.8,0.4-1.6,0.7-2.5,1s-1.7,0.4-2.4,0.5l-1-1.5
								c0.6-0.1,1.3-0.2,2-0.4c0.7-0.2,1.3-0.4,1.9-0.7l-2.5-1.4c-0.9,0.3-1.6,0.5-2.3,0.7c-0.7,0.2-1.4,0.2-2.1,0.2
								s-1.4-0.3-2.1-0.6c-0.8-0.5-1.2-1-1.2-1.7s0.5-1.4,1.5-2.1l-1.6-0.9l1.5-0.8l1.6,0.9c1.3-0.6,2.6-1,3.9-1.2l1.1,1.5
								c-1.2,0.2-2.2,0.5-3,0.9l2.5,1.4c0.8-0.3,1.6-0.5,2.3-0.7c0.7-0.2,1.4-0.2,2.1-0.2s1.4,0.2,2.1,0.6c0.8,0.5,1.2,1,1.2,1.7
								C86,96,85.5,96.7,84.6,97.4z M75.4,94.8c0.4,0,0.8-0.1,1.2-0.2l-2.1-1.2c-0.3,0.3-0.4,0.5-0.4,0.7s0.2,0.4,0.4,0.5
								C74.7,94.7,75,94.8,75.4,94.8 M80.6,95.1l2,1.2c0.3-0.2,0.4-0.5,0.4-0.7s-0.1-0.4-0.4-0.5c-0.2-0.1-0.5-0.2-0.9-0.2
								C81.4,94.9,81,95,80.6,95.1"/>
						</g>
						<g>
							<path class="st4" d="M89.7,88.5c-0.1,0-0.1-0.1-0.2-0.1c-6.1-3.5-15.9-3.5-22,0c-0.1,0-0.1,0.1-0.2,0.1H63v6.4
								c0,2.3,1.5,4.6,4.5,6.3c6.1,3.5,15.9,3.5,22,0c3-1.8,4.5-4,4.5-6.3v-6.4H89.7z"/>
							<path class="st5" d="M89.5,101.3c3-1.8,4.5-4,4.5-6.3v-6.4h-4.3c-0.1,0-0.1-0.1-0.2-0.1c-3-1.8-7-2.6-11-2.6V104
								C82.5,103.9,86.5,103,89.5,101.3z"/>
							<ellipse class="st4" cx="78.6" cy="88.5" rx="15.5" ry="9"/>
							<path class="st3" d="M78.6,98.5c-4.2,0-8.3-0.9-11.5-2.7c-3.3-1.9-5-4.4-5-7.2c0-2.8,1.8-5.3,5-7.2c6.3-3.7,16.6-3.7,23,0
								l0,0c3.3,1.9,5,4.4,5,7.2c0,2.8-1.8,5.3-5,7.2C86.9,97.6,82.7,98.5,78.6,98.5z M78.6,80.5c-3.8,0-7.6,0.8-10.5,2.5
								c-2.6,1.5-4,3.5-4,5.5s1.4,4,4,5.5c5.8,3.3,15.2,3.3,21,0c2.6-1.5,4-3.5,4-5.5s-1.4-4-4-5.5l0,0
								C86.1,81.4,82.4,80.5,78.6,80.5z"/>
							<ellipse class="st6" cx="78.6" cy="94.3" rx="15.9" ry="9.6"/>
							<path class="st7" d="M78.6,104.9c-4.3,0-8.4-1-11.5-2.8c-3.3-1.9-5-4.4-5-7.2v-6.4c0-2.8,1.8-5.3,5-7.2
								c6.3-3.7,16.6-3.7,23,0c3.3,1.9,5,4.4,5,7.2v6.4c0,1-0.3,2-0.8,3c-0.8,1.6-2.3,3-4.3,4.2c-1.6,0.9-3.4,1.6-5.4,2.1
								c-0.5,0.1-1,0.2-1.5,0.3c-1,0.2-2,0.3-3,0.3C79.6,104.9,79.1,104.9,78.6,104.9z M78.6,80.5c-3.8,0-7.6,0.8-10.5,2.5
								c-2.6,1.5-4,3.5-4,5.5v6.4c0,2,1.4,4,4,5.5c2.8,1.6,6.5,2.5,10.5,2.5c0.5,0,1,0,1.4,0c1-0.1,1.9-0.2,2.8-0.3
								c0.5-0.1,0.9-0.2,1.4-0.3c1.8-0.4,3.5-1.1,4.9-1.9c1.7-1,2.9-2.1,3.5-3.4c0.4-0.7,0.5-1.4,0.5-2.1l0,0v-6.4c0-2-1.4-4-4-5.5
								C86.1,81.4,82.4,80.5,78.6,80.5z"/>
							<path class="st5" d="M84.6,91l1.6,1l-1.5,0.8l-1.6-0.9c-0.8,0.4-1.6,0.7-2.5,1s-1.7,0.4-2.4,0.5l-1-1.5
								c0.6-0.1,1.3-0.2,2-0.4c0.7-0.2,1.3-0.4,1.9-0.7l-2.5-1.4c-0.9,0.3-1.6,0.5-2.3,0.7c-0.7,0.2-1.4,0.2-2.1,0.2
								s-1.4-0.3-2.1-0.6c-0.8-0.5-1.2-1-1.2-1.7s0.5-1.4,1.5-2.1L70.8,85l1.5-0.8l1.6,0.9c1.3-0.6,2.6-1,3.9-1.2l1.1,1.5
								c-1.2,0.2-2.2,0.5-3,0.9l2.5,1.4c0.8-0.3,1.6-0.5,2.3-0.7c0.7-0.2,1.4-0.2,2.1-0.2s1.4,0.2,2.1,0.6c0.8,0.5,1.2,1,1.2,1.7
								C86,89.6,85.5,90.3,84.6,91z M75.4,88.4c0.4,0,0.8-0.1,1.2-0.2L74.5,87c-0.3,0.3-0.4,0.5-0.4,0.7s0.2,0.4,0.4,0.5
								C74.7,88.3,75,88.4,75.4,88.4 M80.6,88.7l2,1.2c0.3-0.2,0.4-0.5,0.4-0.7s-0.1-0.4-0.4-0.5c-0.2-0.1-0.5-0.2-0.9-0.2
								C81.4,88.5,81,88.6,80.6,88.7"/>
						</g>
						<g>
							<path class="st4" d="M67.8,107.6c-0.1,0-0.1-0.1-0.2-0.1c-6.1-3.5-15.9-3.5-22,0c-0.1,0-0.1,0.1-0.2,0.1h-4.3v6.4
								c0,2.3,1.5,4.6,4.5,6.3c6.1,3.5,15.9,3.5,22,0c3-1.8,4.5-4,4.5-6.3v-6.4H67.8z"/>
							<path class="st5" d="M67.6,120.4c3-1.8,4.5-4,4.5-6.3v-6.4h-4.3c-0.1,0-0.1-0.1-0.2-0.1c-3-1.8-7-2.6-11-2.6v18
								C60.6,123,64.5,122.1,67.6,120.4z"/>
							<ellipse class="st4" cx="56.6" cy="107.6" rx="15.5" ry="9"/>
							<path class="st3" d="M56.6,117.6c-4.2,0-8.3-0.9-11.5-2.7c-3.3-1.9-5-4.4-5-7.2s1.8-5.3,5-7.2c6.3-3.7,16.6-3.7,23,0
								c3.3,1.9,5,4.4,5,7.2s-1.8,5.3-5,7.2C64.9,116.6,60.8,117.6,56.6,117.6z M56.6,99.6c-3.8,0-7.6,0.8-10.5,2.5
								c-2.6,1.5-4,3.5-4,5.5s1.4,4,4,5.5c5.8,3.3,15.2,3.3,21,0c2.6-1.5,4-3.5,4-5.5s-1.4-4-4-5.5l0,0
								C64.2,100.5,60.4,99.6,56.6,99.6z"/>
							<ellipse class="st6" cx="56.6" cy="113.4" rx="15.9" ry="9.6"/>
							<path class="st7" d="M56.6,124c-4.3,0-8.4-1-11.5-2.8c-3.3-1.9-5-4.4-5-7.2v-6.4c0-2.8,1.8-5.3,5-7.2c6.3-3.7,16.6-3.7,23,0
								c3.3,1.9,5,4.4,5,7.2v6.4c0,1-0.3,2-0.8,3c-0.8,1.6-2.3,3-4.3,4.2c-1.6,0.9-3.4,1.6-5.4,2.1c-0.5,0.1-1,0.2-1.5,0.3
								c-1,0.2-2,0.3-3,0.3C57.6,124,57.1,124,56.6,124z M56.6,99.6c-3.8,0-7.6,0.8-10.5,2.5c-2.6,1.5-4,3.5-4,5.5v6.4
								c0,2,1.4,4,4,5.5c3.1,1.8,7.5,2.7,11.9,2.5c1-0.1,1.9-0.2,2.8-0.3c0.5-0.1,0.9-0.2,1.4-0.3c1.8-0.4,3.5-1.1,4.9-1.9
								c1.7-1,2.9-2.1,3.5-3.4c0.4-0.7,0.5-1.4,0.5-2.1v-6.4c0-2-1.4-4-4-5.5C64.2,100.5,60.4,99.6,56.6,99.6z"/>
							<path class="st5" d="M62.6,110.1l1.6,1l-1.5,0.8l-1.6-0.9c-0.8,0.4-1.6,0.7-2.5,1s-1.7,0.4-2.4,0.5l-1-1.5
								c0.6-0.1,1.3-0.2,2-0.4c0.7-0.2,1.3-0.4,1.9-0.7l-2.5-1.4c-0.9,0.3-1.6,0.5-2.3,0.7s-1.4,0.2-2.1,0.2c-0.7,0-1.4-0.3-2.1-0.6
								c-0.8-0.5-1.2-1-1.2-1.7s0.5-1.4,1.5-2.1l-1.6-0.9l1.5-0.8L52,104c1.3-0.6,2.6-1,3.9-1.2l1.1,1.5c-1.2,0.2-2.2,0.5-3,0.9
								l2.5,1.4c0.8-0.3,1.6-0.5,2.3-0.7s1.4-0.2,2.1-0.2c0.7,0,1.4,0.2,2.1,0.6c0.8,0.5,1.2,1,1.2,1.7
								C64,108.7,63.6,109.4,62.6,110.1z M53.4,107.5c0.4,0,0.8-0.1,1.2-0.2l-2.1-1.2c-0.3,0.3-0.4,0.5-0.4,0.7s0.2,0.4,0.4,0.5
								C52.8,107.4,53.1,107.5,53.4,107.5 M58.6,107.8l2,1.2c0.3-0.2,0.4-0.5,0.4-0.7s-0.1-0.4-0.4-0.5c-0.2-0.1-0.5-0.2-0.9-0.2
								C59.5,107.6,59.1,107.7,58.6,107.8"/>
						</g>
					</g>
				</g>
				<rect x="4" y="4" class="st6" width="120" height="120"/>
				<rect x="4" y="4" class="st6" width="120" height="120"/>
			</g>
		</g>
	</g>
	<g>
		<rect class="st6" width="128" height="128"/>
	</g>
</g>
</svg>
