<?xml version="1.0" encoding="utf-8"?>
<!-- Generator: Adobe Illustrator 24.1.0, SVG Export Plug-In . SVG Version: 6.00 Build 0)  -->
<svg version="1.1" id="Layer_1" xmlns="http://www.w3.org/2000/svg" xmlns:xlink="http://www.w3.org/1999/xlink" x="0px" y="0px"
	 viewBox="0 0 128 128" style="enable-background:new 0 0 128 128;" xml:space="preserve">
<style type="text/css">
	.st0{fill:#0E352C;}
	.st1{fill:#FFFFFF;}
	.st2{fill:#4D9987;}
	.st3{fill:#C4D7D3;}
	.st4{fill:#27ae60;}
	.st5{fill:#185849;}
	.st6{fill:#E9EBDF;}
	.st7{fill:none;}
</style>
<g id="Layer_1_1_">
</g>
<g>
	<g id="Layer_2_1_">
		<g id="New_Icon_Set_1_">
			<g>
				<g>
					<g>
						<g>
							<path class="st0" d="M41.9,44.1c-0.1,0-0.3,0-0.4-0.1c-0.1-0.1-0.2-0.1-0.3-0.2c-0.1-0.1-0.2-0.2-0.2-0.3s-0.1-0.2-0.1-0.4
								c0-0.1,0-0.3,0.1-0.4c0-0.1,0.1-0.2,0.2-0.3c0.2-0.2,0.6-0.3,0.9-0.3c0.1,0,0.1,0,0.2,0c0.1,0.1,0.2,0.1,0.3,0.2
								c0.1,0.1,0.2,0.2,0.2,0.3s0.1,0.2,0.1,0.4c0,0.1,0,0.3-0.1,0.4s-0.1,0.2-0.2,0.3C42.4,43.9,42.1,44.1,41.9,44.1z"/>
							<path class="st0" d="M40.9,53.9c0-0.5,0.5-1,1-1l0,0c0.6,0,1,0.4,1,1l0,0c0,0.6-0.4,1-1,1l0,0C41.3,54.9,40.9,54.4,40.9,53.9
								z M40.9,48.5c0-0.6,0.5-1,1-1l0,0c0.6,0,1,0.4,1,1l0,0c0,0.6-0.4,1-1,1l0,0C41.3,49.5,40.9,49,40.9,48.5z"/>
							<path class="st0" d="M41.9,60.3c-0.1,0-0.3,0-0.4-0.1s-0.2-0.1-0.3-0.2c-0.1-0.1-0.2-0.2-0.2-0.3s-0.1-0.2-0.1-0.4
								c0-0.3,0.1-0.5,0.3-0.7c0.1-0.1,0.2-0.2,0.3-0.2c0.4-0.2,0.8-0.1,1.1,0.2c0.2,0.2,0.3,0.4,0.3,0.7s-0.1,0.5-0.3,0.7
								c-0.1,0.1-0.2,0.2-0.3,0.2C42.1,60.3,42,60.3,41.9,60.3z"/>
						</g>
						<g>
							<path class="st0" d="M86,44.2c-0.1,0-0.3,0-0.4-0.1c-0.1,0-0.2-0.1-0.3-0.2c-0.1-0.1-0.2-0.2-0.2-0.3S85,43.4,85,43.2
								c0-0.3,0.1-0.5,0.3-0.7c0.4-0.4,1-0.4,1.4,0c0.2,0.2,0.3,0.4,0.3,0.7c0,0.1,0,0.3-0.1,0.4c0,0.1-0.1,0.2-0.2,0.3
								s-0.2,0.2-0.3,0.2C86.3,44.1,86.1,44.2,86,44.2z"/>
							<path class="st0" d="M85,54c0-0.6,0.4-1,1-1l0,0c0.6,0,1,0.4,1,1l0,0c0,0.5-0.5,1-1,1l0,0C85.5,55,85,54.5,85,54z M85,48.6
								c0-0.5,0.4-1,1-1l0,0c0.6,0,1,0.5,1,1l0,0c0,0.5-0.5,1-1,1l0,0C85.5,49.6,85,49.1,85,48.6z"/>
							<path class="st0" d="M86,60.4c-0.3,0-0.5-0.1-0.7-0.3c-0.1-0.1-0.2-0.2-0.2-0.3S85,59.5,85,59.4c0-0.3,0.1-0.5,0.3-0.7
								c0.1-0.1,0.2-0.2,0.3-0.2c0.4-0.1,0.8-0.1,1.1,0.2c0.1,0.1,0.2,0.2,0.2,0.3s0.1,0.2,0.1,0.4c0,0.3-0.1,0.5-0.3,0.7
								c-0.1,0.1-0.2,0.2-0.3,0.2C86.3,60.4,86.1,60.4,86,60.4z"/>
						</g>
						<g>
							<g>
								<polygon class="st1" points="42,110.2 19.9,97.3 19.8,72 41.9,84.8 								"/>
							</g>
							<g>
								<polygon class="st1" points="64,72.1 64,97.4 42,110.2 41.9,84.8 								"/>
							</g>
							<g>
								<path class="st2" d="M42,111.2c-0.2,0-0.3,0-0.5-0.1c-0.3-0.2-0.5-0.5-0.5-0.9l-0.1-25.3c0-0.4,0.2-0.7,0.5-0.9l22-12.7
									c0.3-0.2,0.7-0.2,1,0s0.5,0.5,0.5,0.9L65,97.4c0,0.4-0.2,0.7-0.5,0.9l-22,12.7C42.3,111.1,42.2,111.2,42,111.2z M42.9,85.4
									l0.1,23l20-11.6l-0.1-23L42.9,85.4z"/>
							</g>
							<path class="st3" d="M64,98.4c-0.2,0-0.3,0-0.5-0.1l-22-12.7c-0.5-0.3-0.6-0.9-0.4-1.4c0.3-0.5,0.9-0.6,1.4-0.4l22,12.7
								c0.5,0.3,0.6,0.9,0.4,1.4C64.7,98.3,64.4,98.4,64,98.4z"/>
							<path class="st3" d="M19.9,98.3c-0.3,0-0.7-0.2-0.9-0.5c-0.3-0.5-0.1-1.1,0.4-1.4l21.8-12.6c0.5-0.3,1.1-0.1,1.4,0.4
								c0.3,0.5,0.1,1.1-0.4,1.4L20.4,98.2C20.3,98.3,20.1,98.3,19.9,98.3z"/>
							<g>
								<polygon class="st1" points="41.9,84.8 19.8,72 41.9,59.3 64,72.1 								"/>
							</g>
							<path class="st3" d="M42,85.8c-0.6,0-1-0.4-1-1V59.2c0-0.6,0.4-1,1-1l0,0c0.6,0,1,0.4,1,1v25.6C43,85.4,42.5,85.8,42,85.8
								L42,85.8z"/>
							<g>
								<path class="st4" d="M41.9,85.8c-0.2,0-0.3,0-0.5-0.1L19.3,72.9c-0.3-0.2-0.5-0.5-0.5-0.9s0.2-0.7,0.5-0.9l22-12.7
									c0.3-0.2,0.7-0.2,1,0l22.1,12.8c0.3,0.2,0.5,0.5,0.5,0.9s-0.2,0.7-0.5,0.9l-22,12.7C42.3,85.8,42.1,85.8,41.9,85.8z
									 M21.8,72l20.1,11.7l20-11.6l-20-11.7L21.8,72z"/>
							</g>
							<path class="st4" d="M42,111.2c-0.6,0-1-0.4-1-1V84.6c0-0.6,0.4-1,1-1l0,0c0.6,0,1,0.4,1,1v25.6
								C43,110.7,42.5,111.2,42,111.2L42,111.2z"/>
							<path class="st5" d="M42,111.2c-0.2,0-0.3,0-0.5-0.1L19.4,98.2c-0.3-0.2-0.5-0.5-0.5-0.9L18.8,72c0-0.4,0.2-0.7,0.5-0.9
								l22-12.7c0.3-0.2,0.7-0.2,1,0l22.1,12.8c0.3,0.2,0.5,0.5,0.5,0.9L65,97.4c0,0.4-0.2,0.7-0.5,0.9l-22,12.7
								C42.3,111.1,42.2,111.2,42,111.2z M20.9,96.8L42,109l21-12.1V72.7L41.9,60.4l-21,12.1L20.9,96.8z"/>
						</g>
						<g>
							<g>
								<polygon class="st1" points="86.1,110.3 64,97.4 64,72.1 86,84.9 								"/>
							</g>
							<g>
								<polygon class="st1" points="108.1,72.2 108.2,97.5 86.1,110.3 86,84.9 								"/>
							</g>
							<g>
								<path class="st2" d="M86.1,111.3c-0.2,0-0.3,0-0.5-0.1c-0.3-0.2-0.5-0.5-0.5-0.9L85,84.9c0-0.4,0.2-0.7,0.5-0.9l22-12.7
									c0.3-0.2,0.7-0.2,1,0s0.5,0.5,0.5,0.9l0.1,25.3c0,0.4-0.2,0.7-0.5,0.9l-22,12.7C86.5,111.2,86.3,111.3,86.1,111.3z M87,85.5
									l0.1,23l20-11.6l-0.1-23L87,85.5z"/>
							</g>
							<path class="st3" d="M108.2,98.5c-0.2,0-0.3,0-0.5-0.1l-22-12.7c-0.5-0.3-0.6-0.9-0.4-1.4c0.3-0.5,0.9-0.6,1.4-0.4l22,12.7
								c0.5,0.3,0.6,0.9,0.4,1.4C108.8,98.4,108.5,98.5,108.2,98.5z"/>
							<path class="st3" d="M64,98.4c-0.3,0-0.7-0.2-0.9-0.5c-0.3-0.5-0.1-1.1,0.4-1.4L85.4,84c0.5-0.3,1.1-0.1,1.4,0.4
								s0.1,1.1-0.4,1.4L64.5,98.3C64.4,98.4,64.2,98.4,64,98.4z"/>
							<g>
								<polygon class="st1" points="86,84.9 64,72.1 86,59.4 108.1,72.2 								"/>
							</g>
							<path class="st3" d="M86.1,85.9c-0.6,0-1-0.4-1-1V59.3c0-0.6,0.4-1,1-1l0,0c0.6,0,1,0.4,1,1v25.6
								C87.1,85.5,86.7,85.9,86.1,85.9L86.1,85.9z"/>
							<g>
								<path class="st4" d="M86,85.9c-0.2,0-0.3,0-0.5-0.1L63.5,73c-0.3-0.2-0.5-0.5-0.5-0.9s0.2-0.7,0.5-0.9l22-12.7
									c0.3-0.2,0.7-0.2,1,0l22.1,12.8c0.3,0.2,0.5,0.5,0.5,0.9s-0.2,0.7-0.5,0.9l-22,12.7C86.4,85.9,86.2,85.9,86,85.9z M66,72.1
									l20,11.7l20-11.6L86,60.5L66,72.1z"/>
							</g>
							<path class="st4" d="M86.1,111.3c-0.6,0-1-0.4-1-1V84.7c0-0.6,0.4-1,1-1l0,0c0.6,0,1,0.4,1,1v25.6
								C87.1,110.8,86.7,111.3,86.1,111.3L86.1,111.3z"/>
							<path class="st5" d="M86.1,111.3c-0.2,0-0.3,0-0.5-0.1L63.5,98.3c-0.3-0.2-0.5-0.5-0.5-0.9V72.1c0-0.4,0.2-0.7,0.5-0.9
								l22-12.7c0.3-0.2,0.7-0.2,1,0l22.1,12.8c0.3,0.2,0.5,0.5,0.5,0.9l0.1,25.3c0,0.4-0.2,0.7-0.5,0.9l-22,12.7
								C86.5,111.2,86.3,111.3,86.1,111.3z M65,96.9l21.1,12.3l21-12.1L107,72.9L86,60.5L65,72.7V96.9z"/>
						</g>
						<g>
							<g>
								<polygon class="st1" points="64.1,123 42,110.2 41.9,84.8 64,97.7 								"/>
							</g>
							<g>
								<polygon class="st1" points="86,84.9 86.1,110.3 64.1,123 64,97.7 								"/>
							</g>
							<g>
								<path class="st2" d="M64.1,124c-0.2,0-0.3,0-0.5-0.1c-0.3-0.2-0.5-0.5-0.5-0.9L63,97.7c0-0.4,0.2-0.7,0.5-0.9l22-12.7
									c0.3-0.2,0.7-0.2,1,0S87,84.6,87,85l0.1,25.3c0,0.4-0.2,0.7-0.5,0.9l-22,12.7C64.4,124,64.2,124,64.1,124z M65,98.2l0.1,23
									l20-11.6l-0.1-23L65,98.2z"/>
							</g>
							<path class="st6" d="M86.1,111.3c-0.2,0-0.3,0-0.5-0.1l-22-12.7c-0.5-0.3-0.6-0.9-0.4-1.4c0.3-0.5,0.9-0.6,1.4-0.4l22,12.7
								c0.5,0.3,0.6,0.9,0.4,1.4C86.8,111.1,86.5,111.3,86.1,111.3z"/>
							<path class="st6" d="M42,111.2c-0.3,0-0.7-0.2-0.9-0.5c-0.3-0.5-0.1-1.1,0.4-1.4l21.8-12.6c0.5-0.3,1.1-0.1,1.4,0.4
								c0.3,0.5,0.1,1.1-0.4,1.4L42.5,111C42.3,111.1,42.2,111.2,42,111.2z"/>
							<g>
								<polygon class="st1" points="64,97.7 41.9,84.8 64,72.1 86,84.9 								"/>
							</g>
							<path class="st6" d="M64.1,98.7c-0.6,0-1-0.4-1-1V72.1c0-0.6,0.4-1,1-1l0,0c0.6,0,1,0.4,1,1v25.6
								C65.1,98.2,64.6,98.7,64.1,98.7L64.1,98.7z"/>
							<g>
								<path class="st2" d="M64,98.7c-0.2,0-0.3,0-0.5-0.1L41.4,85.7c-0.3-0.2-0.5-0.5-0.5-0.9s0.2-0.7,0.5-0.9l22-12.7
									c0.3-0.2,0.7-0.2,1,0L86.5,84c0.3,0.2,0.5,0.5,0.5,0.9s-0.2,0.7-0.5,0.9l-22,12.7C64.3,98.6,64.2,98.7,64,98.7z M43.9,84.8
									L64,96.5l20-11.6L64,73.3L43.9,84.8z"/>
							</g>
							<path class="st2" d="M64.1,124c-0.6,0-1-0.4-1-1V97.4c0-0.6,0.4-1,1-1l0,0c0.6,0,1,0.4,1,1V123C65.1,123.6,64.6,124,64.1,124
								L64.1,124z"/>
							<path class="st0" d="M64.1,124c-0.2,0-0.3,0-0.5-0.1L41.5,111c-0.3-0.2-0.5-0.5-0.5-0.9l-0.1-25.3c0-0.4,0.2-0.7,0.5-0.9
								l22-12.7c0.3-0.2,0.7-0.2,1,0L86.5,84c0.3,0.2,0.5,0.5,0.5,0.9l0.1,25.3c0,0.4-0.2,0.7-0.5,0.9l-22,12.7
								C64.4,124,64.2,124,64.1,124z M43,109.6l21.1,12.3l21-12.1L85,85.5L64,73.3L43,85.4V109.6z"/>
						</g>
						<g>
							<g>
								<polygon class="st1" points="64,55.9 41.9,43.1 41.8,17.7 63.9,30.6 								"/>
							</g>
							<g>
								<polygon class="st1" points="85.9,17.8 86,43.2 64,55.9 63.9,30.6 								"/>
							</g>
							<g>
								<path class="st2" d="M64,56.9c-0.2,0-0.3,0-0.5-0.1c-0.3-0.2-0.5-0.5-0.5-0.9l-0.1-25.3c0-0.4,0.2-0.7,0.5-0.9l22-12.7
									c0.3-0.2,0.7-0.2,1,0s0.5,0.5,0.5,0.9L87,43.2c0,0.4-0.2,0.7-0.5,0.9l-22,12.7C64.3,56.8,64.1,56.9,64,56.9z M64.9,31.1
									l0.1,23l20-11.6l-0.1-23L64.9,31.1z"/>
							</g>
							<path class="st6" d="M86,44.2c-0.2,0-0.3,0-0.5-0.1l-22-12.7c-0.5-0.3-0.6-0.9-0.4-1.4c0.3-0.5,0.9-0.6,1.4-0.4l22,12.7
								c0.5,0.3,0.6,0.9,0.4,1.4C86.7,44,86.4,44.2,86,44.2z"/>
							<path class="st6" d="M41.9,44.1c-0.3,0-0.7-0.2-0.9-0.5c-0.3-0.5-0.1-1.1,0.4-1.4l21.8-12.6c0.5-0.3,1.1-0.1,1.4,0.4
								c0.3,0.5,0.1,1.1-0.4,1.4L42.4,43.9C42.2,44,42.1,44.1,41.9,44.1z"/>
							<g>
								<polygon class="st1" points="63.9,30.6 41.8,17.7 63.9,5 85.9,17.8 								"/>
							</g>
							<path class="st6" d="M64,31.6c-0.6,0-1-0.4-1-1V5c0-0.6,0.4-1,1-1l0,0c0.6,0,1,0.4,1,1v25.6C65,31.1,64.5,31.6,64,31.6
								L64,31.6z"/>
							<g>
								<path class="st2" d="M63.9,31.6c-0.2,0-0.3,0-0.5-0.1L41.3,18.6c-0.3-0.2-0.5-0.5-0.5-0.9s0.2-0.7,0.5-0.9l22-12.7
									c0.3-0.2,0.7-0.2,1,0L86.4,17c0.3,0.2,0.5,0.5,0.5,0.9s-0.2,0.7-0.5,0.9l-22,12.7C64.2,31.5,64.1,31.6,63.9,31.6z
									 M43.8,17.7l20.1,11.7l20-11.6l-20-11.6L43.8,17.7z"/>
							</g>
							<path class="st2" d="M64,56.9c-0.6,0-1-0.4-1-1V30.3c0-0.6,0.4-1,1-1l0,0c0.6,0,1,0.4,1,1v25.6C65,56.4,64.5,56.9,64,56.9
								L64,56.9z"/>
							<path class="st0" d="M64,56.9c-0.2,0-0.3,0-0.5-0.1L41.4,43.9c-0.3-0.2-0.5-0.5-0.5-0.9l-0.1-25.3c0-0.4,0.2-0.7,0.5-0.9
								l22-12.7c0.3-0.2,0.7-0.2,1,0L86.4,17c0.3,0.2,0.5,0.5,0.5,0.9L87,43.2c0,0.4-0.2,0.7-0.5,0.9l-22,12.7
								C64.3,56.8,64.1,56.9,64,56.9z M42.9,42.5L64,54.7l21-12.1l-0.1-24.2l-21-12.2l-21,12.1V42.5z"/>
						</g>
					</g>
				</g>
				<rect x="4" y="4" class="st7" width="120" height="120"/>
				<rect x="4" y="4" class="st7" width="120" height="120"/>
			</g>
		</g>
	</g>
	<g>
		<rect class="st7" width="128" height="128"/>
	</g>
</g>
</svg>
