<?xml version="1.0" encoding="utf-8"?>
<!-- Generator: Adobe Illustrator 24.1.0, SVG Export Plug-In . SVG Version: 6.00 Build 0)  -->
<svg version="1.1" id="Layer_1" xmlns="http://www.w3.org/2000/svg" xmlns:xlink="http://www.w3.org/1999/xlink" x="0px" y="0px"
	 viewBox="0 0 128 128" style="enable-background:new 0 0 128 128;" xml:space="preserve">
<style type="text/css">
	.st0{fill:#E9EBDF;}
	.st1{fill:#4D9987;}
	.st2{fill:#FFFFFF;}
	.st3{fill:#0E352C;}
	.st4{fill:#27ae60;}
	.st5{fill:#C4D7D3;}
	.st6{fill:#185849;}
	.st7{fill:none;}
</style>
<g id="Layer_1_1_">
</g>
<g>
	<g id="Layer_2_1_">
		<g id="New_Icon_Set_1_">
			<g>
				<g>
					<g>
						<g>
							<g>
								<g>
									<g>
										<g>
											<g>
												<path class="st0" d="M79,76.3l-12.2-7.1c-1.5-0.9-4-0.9-5.5,0L49,76.3H30.2v11.8c0,0.6,0.4,1.1,1.1,1.6l30,17.3
													c1.5,0.9,4,0.9,5.5,0l30-17.3c0.8-0.4,1.1-1,1.1-1.6V76.3H79z"/>
												<path class="st1" d="M64,108.6c-1.2,0-2.3-0.3-3.2-0.8l-30-17.3c-1-0.6-1.6-1.5-1.6-2.4V76.3c0-0.6,0.4-1,1-1h18.6
													l12-6.9c1.8-1,4.6-1,6.5,0l12,6.9h18.6c0.6,0,1,0.4,1,1v11.8c0,1-0.6,1.8-1.6,2.4l-30,17.3
													C66.3,108.4,65.2,108.6,64,108.6z M31.2,77.3v10.8c0,0.2,0.2,0.5,0.6,0.7l30,17.3c1.2,0.7,3.2,0.7,4.5,0l30-17.3
													c0.4-0.2,0.6-0.5,0.6-0.7V77.3H79c-0.2,0-0.3,0-0.5-0.1l-12.2-7.1c-1.2-0.7-3.2-0.7-4.5,0l-12.2,7.1
													c-0.2,0.1-0.3,0.1-0.5,0.1H31.2z"/>
											</g>
											<path class="st1" d="M66.7,107l30-17.3c0.8-0.4,1.1-1,1.1-1.6V76.3H79l-12.2-7.1C66,68.8,65,68.6,64,68.6v39
												C65,107.6,66,107.4,66.7,107z"/>
											<path class="st1" d="M50.7,96.4c-0.2,0-0.3,0-0.5-0.1l-8.9-5.1c-0.5-0.3-0.6-0.9-0.4-1.4c0.3-0.5,0.9-0.6,1.4-0.4
												l8.9,5.1c0.5,0.3,0.6,0.9,0.4,1.4C51.4,96.2,51.1,96.4,50.7,96.4z"/>
											<g>
												<path class="st2" d="M96.7,74.7l-30-17.3c-1.5-0.9-4-0.9-5.5,0l-30,17.3c-1.5,0.9-1.5,2.3,0,3.2l30,17.3
													c1.5,0.9,4,0.9,5.5,0l30-17.3C98.2,77,98.2,75.6,96.7,74.7z"/>
												<path class="st1" d="M64,96.8c-1.2,0-2.3-0.3-3.2-0.8l-30-17.3c-1-0.6-1.6-1.5-1.6-2.4c0-1,0.6-1.8,1.6-2.4l30-17.3
													c1.8-1,4.6-1,6.5,0l30,17.3l0,0c1,0.6,1.6,1.5,1.6,2.4c0,1-0.6,1.8-1.6,2.4L67.2,96C66.3,96.6,65.2,96.8,64,96.8z
													 M64,57.8c-0.8,0-1.6,0.2-2.2,0.5l-30,17.3c-0.4,0.2-0.6,0.5-0.6,0.7s0.2,0.5,0.6,0.7l30,17.3c1.2,0.7,3.2,0.7,4.5,0
													l30-17.3c0.4-0.2,0.6-0.5,0.6-0.7s-0.2-0.5-0.6-0.7l-30-17.3C65.6,57.9,64.8,57.8,64,57.8z"/>
											</g>
										</g>
									</g>
									<g>
										<polygon class="st1" points="89.7,93.7 73.8,102.9 73.8,97.4 89.7,88.3 										"/>
										<path class="st0" d="M73.8,103.9c-0.2,0-0.3,0-0.5-0.1c-0.3-0.2-0.5-0.5-0.5-0.9v-5.5c0-0.4,0.2-0.7,0.5-0.9l15.8-9.1
											c0.3-0.2,0.7-0.2,1,0s0.5,0.5,0.5,0.9v5.5c0,0.4-0.2,0.7-0.5,0.9l-15.8,9.1C74.2,103.8,74,103.9,73.8,103.9z M74.8,98v3.1
											l13.8-8V90L74.8,98z M89.7,93.7L89.7,93.7L89.7,93.7z"/>
									</g>
									<path class="st3" d="M64,108.6c-1.2,0-2.4-0.3-3.2-0.8l-30-17.3c-1-0.6-1.6-1.5-1.6-2.4V76.3c0-1,0.6-1.8,1.6-2.4l30-17.3
										c1.8-1,4.6-1,6.5,0l30,17.3l0,0c1,0.6,1.6,1.5,1.6,2.4v11.8c0,1-0.6,1.8-1.6,2.4l-30,17.3C66.4,108.3,65.2,108.6,64,108.6z
										 M64,57.8c-0.8,0-1.6,0.2-2.2,0.5l-30,17.3c-0.4,0.2-0.6,0.5-0.6,0.7v11.8c0,0.2,0.2,0.5,0.6,0.7l30,17.3
										c1.1,0.7,3.3,0.7,4.5,0l30-17.3c0.4-0.2,0.6-0.5,0.6-0.7V76.3c0-0.2-0.2-0.5-0.6-0.7l-30-17.3C65.6,57.9,64.8,57.8,64,57.8
										z"/>
									<g>
										<ellipse class="st0" cx="90.1" cy="76.3" rx="1.5" ry="0.9"/>
										<ellipse class="st0" cx="64" cy="91.4" rx="1.5" ry="0.9"/>
										<ellipse class="st0" cx="64" cy="61.2" rx="1.5" ry="0.9"/>
										<ellipse class="st0" cx="37.9" cy="76.3" rx="1.5" ry="0.9"/>
									</g>
								</g>
							</g>
							<g>
								<g>
									<path class="st2" d="M88.3,15.3L88.3,15.3l-9.6-5.5l0,0c-1.1-0.6-2.6-0.6-4.2,0.3l-0.7,0.4l-8.2-4.7l0,0
										c-1.9-1.1-4.3-1-7,0.6C53,9.6,48.5,17.9,48,25.5l-5.3,3c-3.5,2-6.4,7.5-6.4,12.2l0,0c0,2.6,0.9,4.4,2.2,5.2l0,0l9.6,5.5
										l0,0c1.1,0.6,2.6,0.6,4.2-0.3l31.8-18.3c3.5-2,6.4-7.5,6.4-12.2l0,0C90.5,17.8,89.7,16,88.3,15.3z"/>
									<path class="st0" d="M84.1,15.6l-5.3,3c-0.5-7-5-10-10.6-6.8C62.7,15,58.1,23.3,57.6,30.9l-5.3,3c-3.5,2-6.4,7.5-6.4,12.2
										s2.9,6.9,6.4,4.8l31.8-18.3c3.5-2,6.4-7.5,6.4-12.2l0,0C90.5,15.7,87.7,13.5,84.1,15.6z"/>
									<path class="st1" d="M46,47.1c-0.6,0-1-0.4-1-1c0-5.1,3-10.9,6.9-13.1l4.8-2.8c0.7-7.8,5.4-16,11.1-19.3
										c2.8-1.6,5.6-1.8,7.8-0.7c2.2,1.2,3.6,3.5,4.2,6.7l3.9-2.3c0.5-0.3,1.1-0.1,1.4,0.4s0.1,1.1-0.4,1.4l-5.3,3
										c-0.3,0.2-0.7,0.2-1,0s-0.5-0.5-0.5-0.8c-0.2-3.2-1.4-5.7-3.3-6.7C73,11,71,11.3,68.8,12.5c-5.2,3-9.7,11-10.1,18.3
										c0,0.3-0.2,0.6-0.5,0.8l-5.3,3c-3.2,1.8-5.9,7-5.9,11.4C47,46.7,46.5,47.1,46,47.1z"/>
									<path class="st3" d="M49.8,52.7c-0.7,0-1.4-0.2-2.1-0.5c0,0,0,0-0.1,0L38,46.7l-0.1-0.1c-1.6-1-2.6-3.2-2.6-6
										c0-5.1,3-10.9,6.9-13.1l4.8-2.8c0.7-7.8,5.4-16,11.1-19.3c2.8-1.6,5.6-1.9,7.9-0.6h0.1l7.7,4.5L74,9.2c1.8-1,3.6-1.2,5-0.4
										c0,0,0.1,0,0.1,0.1l9.6,5.5c0,0,0,0,0.1,0c1.7,1,2.6,3.2,2.6,6c0,5.1-3,10.9-6.9,13.1L52.9,51.8
										C51.8,52.4,50.8,52.7,49.8,52.7z M48.6,50.4C48.7,50.4,48.7,50.4,48.6,50.4c1.1,0.7,2.4,0.2,3.2-0.3l31.8-18.3
										c3.2-1.8,5.9-7,5.9-11.3c0-2.1-0.6-3.7-1.7-4.3c0,0,0,0-0.1,0l-9.4-5.4c0,0-0.1,0-0.1-0.1c-1.1-0.6-2.3-0.2-3.2,0.3
										l-0.7,0.4c-0.3,0.2-0.7,0.2-1,0l-8.1-4.7c0,0,0,0-0.1,0c-1.6-0.9-3.7-0.7-6,0.6c-5.2,3-9.7,11-10.1,18.3
										c0,0.3-0.2,0.6-0.5,0.8l-5.3,3c-3.2,1.8-5.9,7-5.9,11.4c0,2.1,0.6,3.7,1.7,4.3c0,0,0.1,0,0.1,0.1L48.6,50.4z"/>
								</g>
							</g>
						</g>
					</g>
					<g>
						<g>
							<polygon class="st2" points="29.7,116.3 18.1,109.6 6.4,116.3 18.1,123 							"/>
							<path class="st1" d="M18.1,124c-0.2,0-0.3,0-0.5-0.1L6,117.2c-0.3-0.2-0.5-0.5-0.5-0.9s0.2-0.7,0.5-0.9l11.6-6.7
								c0.3-0.2,0.7-0.2,1,0l11.6,6.7c0.3,0.2,0.5,0.5,0.5,0.9s-0.2,0.7-0.5,0.9l-11.6,6.7C18.4,124,18.2,124,18.1,124z M8.4,116.3
								l9.6,5.6l9.6-5.6l-9.6-5.6L8.4,116.3z"/>
						</g>
						<g>
							<polygon class="st2" points="29.7,103.5 18.1,96.8 6.4,103.5 18.1,110.2 							"/>
							<path class="st4" d="M18.1,111.2c-0.2,0-0.3,0-0.5-0.1L6,104.4c-0.3-0.2-0.5-0.5-0.5-0.9s0.2-0.7,0.5-0.9l11.6-6.7
								c0.3-0.2,0.7-0.2,1,0l11.6,6.7c0.3,0.2,0.5,0.5,0.5,0.9s-0.2,0.7-0.5,0.9l-11.6,6.7C18.4,111.1,18.2,111.2,18.1,111.2z
								 M8.4,103.5l9.6,5.6l9.6-5.6L18,97.9L8.4,103.5z"/>
						</g>
						<g>
							<polygon class="st4" points="29.7,103.5 29.7,116.3 18.1,123 18.1,110.2 							"/>
							<path class="st4" d="M18.1,124c-0.2,0-0.3,0-0.5-0.1c-0.3-0.2-0.5-0.5-0.5-0.9v-12.8c0-0.4,0.2-0.7,0.5-0.9l11.6-6.7
								c0.3-0.2,0.7-0.2,1,0s0.5,0.5,0.5,0.9v12.8c0,0.4-0.2,0.7-0.5,0.9l-11.6,6.7C18.4,124,18.2,124,18.1,124z M19.1,110.8v10.5
								l9.6-5.6v-10.5L19.1,110.8z"/>
						</g>
						<g>
							<polygon class="st5" points="6.4,103.5 6.4,116.3 18.1,123 18.1,110.2 							"/>
							<path class="st4" d="M18.1,124c-0.2,0-0.3,0-0.5-0.1L6,117.2c-0.3-0.2-0.5-0.5-0.5-0.9v-12.8c0-0.4,0.2-0.7,0.5-0.9
								c0.3-0.2,0.7-0.2,1,0l11.6,6.7c0.3,0.2,0.5,0.5,0.5,0.9V123c0,0.4-0.2,0.7-0.5,0.9C18.4,124,18.2,124,18.1,124z M7.4,115.7
								l9.6,5.6v-10.5l-9.6-5.6C7.4,105.2,7.4,115.7,7.4,115.7z"/>
						</g>
						<path class="st6" d="M18.1,124c-0.2,0-0.3,0-0.5-0.1L6,117.2c-0.3-0.2-0.5-0.5-0.5-0.9v-12.8c0-0.4,0.2-0.7,0.5-0.9l11.6-6.7
							c0.3-0.2,0.7-0.2,1,0l11.6,6.7c0.3,0.2,0.5,0.5,0.5,0.9v12.8c0,0.4-0.2,0.7-0.5,0.9l-11.6,6.7C18.4,124,18.2,124,18.1,124z
							 M7.4,115.7l10.6,6.1l10.6-6.1V104L18,97.9L7.4,104C7.4,104,7.4,115.7,7.4,115.7z"/>
					</g>
					<g>
						<path class="st6" d="M87.4,102.6c-0.3,0-0.5-0.1-0.7-0.3c-0.1-0.1-0.2-0.2-0.2-0.3c-0.1-0.1-0.1-0.2-0.1-0.4
							c0-0.1,0-0.1,0-0.2s0-0.1,0.1-0.2c0-0.1,0.1-0.1,0.1-0.2s0.1-0.1,0.1-0.2c0.3-0.3,0.7-0.4,1.1-0.2c0.1,0,0.2,0.1,0.3,0.2
							c0,0,0.1,0.1,0.1,0.2s0.1,0.1,0.1,0.2s0,0.1,0.1,0.2c0,0.1,0,0.1,0,0.2s0,0.3-0.1,0.4s-0.1,0.2-0.2,0.3
							c-0.1,0.1-0.2,0.2-0.3,0.2S87.5,102.6,87.4,102.6z"/>
						<path class="st6" d="M92.5,105.7c-0.5-0.3-0.6-0.9-0.4-1.4l0,0c0.3-0.5,0.9-0.6,1.4-0.4l0,0c0.5,0.3,0.6,0.9,0.4,1.4l0,0
							c-0.2,0.3-0.5,0.5-0.9,0.5l0,0C92.9,105.9,92.7,105.8,92.5,105.7z"/>
						<path class="st6" d="M98.6,109.1c-0.3,0-0.5-0.1-0.7-0.3c-0.1-0.1-0.2-0.2-0.2-0.3s-0.1-0.2-0.1-0.4c0-0.3,0.1-0.5,0.3-0.7
							c0,0,0.1-0.1,0.2-0.1s0.1-0.1,0.2-0.1s0.1,0,0.2-0.1c0.1,0,0.3,0,0.4,0s0.1,0,0.2,0.1c0.1,0,0.1,0.1,0.2,0.1s0.1,0.1,0.2,0.1
							c0.2,0.2,0.3,0.4,0.3,0.7c0,0.3-0.1,0.5-0.3,0.7c-0.1,0.1-0.2,0.2-0.3,0.2C98.9,109.1,98.8,109.1,98.6,109.1z"/>
					</g>
					<g>
						<g>
							<polygon class="st2" points="121.6,116.3 109.9,109.6 98.3,116.3 109.9,123 							"/>
							<path class="st1" d="M109.9,124c-0.2,0-0.3,0-0.5-0.1l-11.6-6.7c-0.3-0.2-0.5-0.5-0.5-0.9s0.2-0.7,0.5-0.9l11.6-6.7
								c0.3-0.2,0.7-0.2,1,0l11.6,6.7c0.3,0.2,0.5,0.5,0.5,0.9s-0.2,0.7-0.5,0.9l-11.6,6.7C110.3,124,110.1,124,109.9,124z
								 M100.3,116.3l9.6,5.6l9.6-5.6l-9.6-5.6L100.3,116.3z"/>
						</g>
						<g>
							<polygon class="st2" points="121.6,103.5 109.9,96.8 98.3,103.5 109.9,110.2 							"/>
							<path class="st4" d="M109.9,111.2c-0.2,0-0.3,0-0.5-0.1l-11.6-6.7c-0.3-0.2-0.5-0.5-0.5-0.9s0.2-0.7,0.5-0.9l11.6-6.7
								c0.3-0.2,0.7-0.2,1,0l11.6,6.7c0.3,0.2,0.5,0.5,0.5,0.9s-0.2,0.7-0.5,0.9l-11.6,6.7C110.3,111.1,110.1,111.2,109.9,111.2z
								 M100.3,103.5l9.6,5.6l9.6-5.6l-9.6-5.6L100.3,103.5z"/>
						</g>
						<g>
							<polygon class="st4" points="121.6,103.5 121.6,116.3 109.9,123 109.9,110.2 							"/>
							<path class="st4" d="M109.9,124c-0.2,0-0.3,0-0.5-0.1c-0.3-0.2-0.5-0.5-0.5-0.9v-12.8c0-0.4,0.2-0.7,0.5-0.9l11.6-6.7
								c0.3-0.2,0.7-0.2,1,0s0.5,0.5,0.5,0.9v12.8c0,0.4-0.2,0.7-0.5,0.9l-11.6,6.7C110.3,124,110.1,124,109.9,124z M110.9,110.8
								v10.5l9.6-5.6v-10.5L110.9,110.8z"/>
						</g>
						<g>
							<polygon class="st5" points="98.3,103.5 98.3,116.3 109.9,123 109.9,110.2 							"/>
							<path class="st4" d="M109.9,124c-0.2,0-0.3,0-0.5-0.1l-11.6-6.7c-0.3-0.2-0.5-0.5-0.5-0.9v-12.8c0-0.4,0.2-0.7,0.5-0.9
								c0.3-0.2,0.7-0.2,1,0l11.6,6.7c0.3,0.2,0.5,0.5,0.5,0.9V123c0,0.4-0.2,0.7-0.5,0.9C110.3,124,110.1,124,109.9,124z
								 M99.3,115.7l9.6,5.6v-10.5l-9.6-5.6V115.7z"/>
						</g>
						<path class="st6" d="M109.9,124c-0.2,0-0.3,0-0.5-0.1l-11.6-6.7c-0.3-0.2-0.5-0.5-0.5-0.9v-12.8c0-0.4,0.2-0.7,0.5-0.9
							l11.6-6.7c0.3-0.2,0.7-0.2,1,0l11.6,6.7c0.3,0.2,0.5,0.5,0.5,0.9v12.8c0,0.4-0.2,0.7-0.5,0.9l-11.6,6.7
							C110.3,124,110.1,124,109.9,124z M99.3,115.7l10.6,6.1l10.6-6.1V104l-10.6-6.1L99.3,104V115.7z"/>
					</g>
					<g>
						<path class="st3" d="M64,77.3c-0.1,0-0.3,0-0.4-0.1c-0.1,0-0.2-0.1-0.3-0.2c-0.2-0.2-0.3-0.4-0.3-0.7c0-0.1,0-0.1,0-0.2
							s0-0.1,0.1-0.2c0-0.1,0-0.1,0.1-0.2c0-0.1,0.1-0.1,0.1-0.2l0.1-0.1c0.1,0,0.1-0.1,0.2-0.1c0.1,0,0.1,0,0.2-0.1
							c0.2,0,0.4,0,0.6,0.1c0.1,0,0.2,0.1,0.3,0.2c0.2,0.2,0.3,0.4,0.3,0.7c0,0.1,0,0.3-0.1,0.4c0,0.1-0.1,0.2-0.2,0.3
							c-0.1,0.1-0.2,0.2-0.3,0.2C64.3,77.3,64.1,77.3,64,77.3z"/>
						<path class="st3" d="M63,69.8c0-0.6,0.5-1,1-1l0,0c0.5,0,1,0.4,1,1l0,0c0,0.5-0.5,1-1,1l0,0C63.5,70.8,63,70.3,63,69.8z
							 M63,63.3c0-0.5,0.5-1,1-1l0,0c0.5,0,1,0.5,1,1l0,0c0,0.6-0.5,1-1,1l0,0C63.5,64.3,63,63.8,63,63.3z M63,56.7c0-0.5,0.5-1,1-1
							l0,0c0.5,0,1,0.5,1,1l0,0c0,0.6-0.5,1-1,1l0,0C63.5,57.7,63,57.3,63,56.7z"/>
						<path class="st3" d="M64,51.2c-0.3,0-0.5-0.1-0.7-0.3c-0.1-0.1-0.2-0.2-0.2-0.3S63,50.4,63,50.2s0-0.3,0.1-0.4
							c0-0.1,0.1-0.2,0.2-0.3l0.1-0.1c0.1,0,0.1-0.1,0.2-0.1c0.1,0,0.1,0,0.2,0c0.3-0.1,0.7,0,0.9,0.3c0.1,0.1,0.2,0.2,0.2,0.3
							C65,50,65,50.1,65,50.2s0,0.3-0.1,0.4c0,0.1-0.1,0.2-0.2,0.3s-0.2,0.2-0.3,0.2S64.1,51.2,64,51.2z"/>
					</g>
					<g>
						<path class="st6" d="M40.6,102.6c-0.1,0-0.3,0-0.4-0.1c-0.1,0-0.2-0.1-0.3-0.2s-0.2-0.2-0.2-0.3c-0.1-0.1-0.1-0.2-0.1-0.4
							c0-0.1,0-0.1,0-0.2s0-0.1,0.1-0.2c0-0.1,0-0.1,0.1-0.2c0-0.1,0.1-0.1,0.1-0.2c0.2-0.2,0.6-0.3,0.9-0.3c0.1,0,0.1,0,0.2,0.1
							c0.1,0,0.1,0,0.2,0.1c0,0,0.1,0.1,0.2,0.1c0.2,0.2,0.3,0.4,0.3,0.7c0,0.1,0,0.3-0.1,0.4c0,0.1-0.1,0.2-0.2,0.3
							c-0.1,0.1-0.2,0.2-0.3,0.2C40.8,102.6,40.7,102.6,40.6,102.6z"/>
						<path class="st6" d="M34.1,105.4c-0.3-0.5-0.1-1.1,0.4-1.4l0,0c0.5-0.3,1.1-0.1,1.4,0.4l0,0c0.3,0.5,0.1,1.1-0.4,1.4l0,0
							c-0.2,0.1-0.3,0.1-0.5,0.1l0,0C34.6,105.9,34.3,105.7,34.1,105.4z"/>
						<path class="st6" d="M29.4,109.1c-0.1,0-0.3,0-0.4-0.1s-0.2-0.1-0.3-0.2c-0.1-0.1-0.2-0.2-0.2-0.3s-0.1-0.2-0.1-0.4
							c0-0.1,0-0.1,0-0.2s0-0.1,0.1-0.2c0-0.1,0.1-0.1,0.1-0.2l0.1-0.1c0.1,0,0.1-0.1,0.2-0.1s0.1-0.1,0.2-0.1s0.1,0,0.2-0.1
							c0.1,0,0.3,0,0.4,0s0.1,0,0.2,0.1c0.1,0,0.1,0.1,0.2,0.1s0.1,0.1,0.2,0.1c0.2,0.2,0.3,0.4,0.3,0.7c0,0.1,0,0.3-0.1,0.4
							s-0.1,0.2-0.2,0.3C29.9,109,29.6,109.1,29.4,109.1z"/>
					</g>
				</g>
				<rect x="4" y="4" class="st7" width="120" height="120"/>
				<rect x="4" y="4" class="st7" width="120" height="120"/>
			</g>
		</g>
	</g>
	<g>
		<rect class="st7" width="128" height="128"/>
	</g>
</g>
</svg>
