<?xml version="1.0" encoding="utf-8"?>
<!-- Generator: Adobe Illustrator 24.1.0, SVG Export Plug-In . SVG Version: 6.00 Build 0)  -->
<svg version="1.1" id="Layer_1" xmlns="http://www.w3.org/2000/svg" xmlns:xlink="http://www.w3.org/1999/xlink" x="0px" y="0px"
	 viewBox="0 0 128 128" style="enable-background:new 0 0 128 128;" xml:space="preserve">
<style type="text/css">
	.st0{fill:#E9EBDF;}
	.st1{fill:#4D9987;}
	.st2{fill:#FFFFFF;}
	.st3{fill:#0E352C;}
	.st4{fill:#C4D7D3;}
	.st5{fill:#185849;}
	.st6{fill:#27ae60;}
	.st7{fill:none;}
</style>
<g id="Layer_1_1_">
</g>
<g>
	<g id="Layer_2_1_">
		<g id="Tech_Concepts_1_">
			<g>
				<g>
					<g>
						<g>
							<g>
								<g>
									<path class="st0" d="M122.7,72.8c0.1-0.7-0.3-1.4-1.2-2l-53.6-31c-1.6-0.9-4.3-0.9-5.9,0L6.2,72.3C5.4,72.8,5,73.4,5,74
										l0,0v7.5c0,0.6,0.4,1.2,1.2,1.7l53.6,31c0.8,0.5,1.8,0.7,2.9,0.7c1.1,0,2.2-0.2,3-0.7l55.8-32.4c0.8-0.5,1.2-1.1,1.2-1.7
										v-7.5C122.8,72.6,122.8,72.7,122.7,72.8z"/>
									<path class="st1" d="M62.8,115.9L62.8,115.9c-1.3,0-2.5-0.3-3.4-0.8l-53.6-31C4.6,83.4,4,82.5,4,81.5V74l0,0l0,0
										c0,0,0,0,0-0.1c0-1,0.6-1.9,1.7-2.5L61.5,39c1.9-1.1,5-1.1,6.9,0L122,70c1,0.6,1.6,1.4,1.7,2.4c0,0.1,0,0.2,0,0.2l0,0v7.5
										c0,1-0.6,1.9-1.7,2.6L66.2,115C65.3,115.6,64.1,115.9,62.8,115.9z M6,74v7.4c0,0.3,0.3,0.6,0.7,0.8l53.6,31
										c0.6,0.4,1.5,0.6,2.4,0.6c1,0,1.9-0.2,2.5-0.6L121,80.9c0.4-0.3,0.7-0.6,0.7-0.8v-6.9c0-0.1-0.1-0.3,0-0.5l0,0l0,0l0,0
										c0.1-0.4-0.5-0.8-0.7-0.9l-53.6-31c-1.3-0.8-3.6-0.8-4.9,0L6.7,73.2C6.3,73.4,6,73.7,6,74L6,74z"/>
								</g>
								<g>
									<path class="st1" d="M14.2,67.6l-8,4.7C5.4,72.8,5,73.4,5,74l0,0v7.5c0,0.6,0.4,1.2,1.2,1.7l8,4.6V67.6z"/>
									<path class="st1" d="M14.2,88.8c-0.2,0-0.3,0-0.5-0.1l-8-4.6C4.6,83.4,4,82.5,4,81.5V74l0,0l0,0v-0.1c0-1,0.7-1.9,1.7-2.5
										l8-4.7c0.3-0.2,0.7-0.2,1,0s0.5,0.5,0.5,0.9v20.2c0,0.4-0.2,0.7-0.5,0.9C14.6,88.8,14.4,88.8,14.2,88.8z M6,74.1v7.4
										c0,0.3,0.3,0.6,0.7,0.8l6.5,3.8V69.4l-6.5,3.8C6.3,73.4,6,73.7,6,74.1C6,74,6,74,6,74.1z"/>
								</g>
								<path class="st1" d="M62.7,114.9c1.1,0,2.2-0.2,3-0.7l55.8-32.4c0.8-0.5,1.2-1.1,1.2-1.7v-7.5c0,0.6-0.4,1.2-1.2,1.7
									l-55.8,32.4c-0.8,0.5-1.9,0.7-2.9,0.7"/>
								<g>
									<path class="st2" d="M121.6,70.8c1.6,0.9,1.6,2.5,0,3.4l-55.8,32.4c-1.6,0.9-4.3,0.9-5.9,0l-53.6-31
										c-1.6-0.9-1.6-2.5,0-3.4L62,39.9c1.6-0.9,4.3-0.9,5.9,0L121.6,70.8z"/>
								</g>
								<g>
									<g>
										<path class="st2" d="M121.6,70.8c1.6,0.9,1.6,2.5,0,3.4l-55.8,32.4c-1.6,0.9-4.3,0.9-5.9,0l-53.6-31
											c-1.6-0.9-1.6-2.5,0-3.4L62,39.9c1.6-0.9,4.3-0.9,5.9,0L121.6,70.8z"/>
										<path class="st1" d="M62.8,108.4c-1.2,0-2.5-0.3-3.4-0.8l-53.6-31C4.7,75.9,4,75,4,74s0.6-1.9,1.7-2.6L61.5,39
											c1.9-1.1,5-1.1,6.9,0L122,70c1.1,0.6,1.7,1.6,1.7,2.6s-0.6,1.9-1.7,2.6l-55.8,32.4C65.3,108.1,64.1,108.4,62.8,108.4z
											 M65,40.2c-0.9,0-1.8,0.2-2.4,0.6L6.7,73.2C6.3,73.4,6,73.7,6,74s0.3,0.6,0.7,0.8l53.6,31c1.3,0.8,3.6,0.8,4.9,0L121,73.4
											c0.4-0.3,0.7-0.6,0.7-0.8c0-0.3-0.3-0.6-0.7-0.8l0,0l-53.6-31C66.8,40.4,65.9,40.2,65,40.2z"/>
									</g>
								</g>
								<path class="st1" d="M83.8,97.2c-0.2,0-0.3,0-0.5-0.1L34.9,68.9c-0.5-0.3-0.6-0.9-0.4-1.4c0.3-0.5,0.9-0.6,1.4-0.4
									l48.4,28.2c0.5,0.3,0.6,0.9,0.4,1.4C84.5,97,84.1,97.2,83.8,97.2z"/>
								<path class="st1" d="M30.3,90.6c-0.3,0-0.7-0.2-0.9-0.5c-0.3-0.5-0.1-1.1,0.4-1.4l61.6-35.9c0.5-0.3,1.1-0.1,1.4,0.4
									s0.1,1.1-0.4,1.4L30.8,90.4C30.6,90.5,30.4,90.6,30.3,90.6z"/>
								<path class="st1" d="M46.8,100.1c-0.3,0-0.7-0.2-0.9-0.5c-0.3-0.5-0.1-1.1,0.4-1.4L108,62.4c0.5-0.3,1.1-0.1,1.4,0.4
									s0.1,1.1-0.4,1.4L47.3,100C47.2,100.1,47,100.1,46.8,100.1z"/>
								<path class="st1" d="M104.6,85.1c-0.2,0-0.3,0-0.5-0.1L55.7,56.8c-0.5-0.3-0.6-0.9-0.4-1.4c0.3-0.5,0.9-0.6,1.4-0.4
									l48.4,28.2c0.5,0.3,0.6,0.9,0.4,1.4C105.3,84.9,104.9,85.1,104.6,85.1z"/>
								<g>
									<path class="st0" d="M67.9,39.9c-1.6-0.9-4.3-0.9-5.9,0L6.2,72.3c-1.6,0.9-1.6,2.5,0,3.4l8,4.6l61.7-35.8L67.9,39.9z"/>
									<path class="st1" d="M14.2,81.3c-0.2,0-0.3,0-0.5-0.1l-8-4.6C4.7,75.9,4,75,4,74s0.6-1.9,1.7-2.6L61.5,39
										c1.9-1.1,5-1.1,6.9,0l8,4.6c0.3,0.2,0.5,0.5,0.5,0.9s-0.2,0.7-0.5,0.9L14.7,81.2C14.6,81.3,14.4,81.3,14.2,81.3z M65,40.2
										c-0.9,0-1.8,0.2-2.4,0.6L6.7,73.2C6.3,73.4,6,73.7,6,74s0.3,0.6,0.7,0.8l7.5,4.3l59.7-34.7l-6.5-3.7l0,0
										C66.8,40.4,65.9,40.2,65,40.2z"/>
								</g>
								<path class="st3" d="M62.8,115.9L62.8,115.9c-1.3,0-2.5-0.3-3.4-0.8l-53.6-31C4.6,83.4,4,82.5,4,81.5V74l0,0l0,0
									c0,0,0,0,0-0.1c0-1,0.6-1.9,1.7-2.5L61.5,39c1.9-1.1,5-1.1,6.9,0L122,70c1,0.6,1.6,1.4,1.7,2.4c0,0.1,0,0.2,0,0.2l0,0v7.5
									c0,1-0.6,1.9-1.7,2.6L66.2,115C65.3,115.6,64.1,115.9,62.8,115.9z M6,74v7.4c0,0.3,0.3,0.6,0.7,0.8l53.6,31
									c0.6,0.4,1.5,0.6,2.4,0.6c1,0,1.9-0.2,2.5-0.6L121,80.9c0.4-0.3,0.7-0.6,0.7-0.8v-6.9c0-0.1-0.1-0.3,0-0.5l0,0l0,0l0,0
									c0.1-0.4-0.5-0.8-0.7-0.9l-53.6-31c-1.3-0.8-3.6-0.8-4.9,0L6.7,73.2C6.3,73.4,6,73.7,6,74L6,74z"/>
							</g>
							<g>
								
									<ellipse transform="matrix(2.841524e-03 -1 1 2.841524e-03 7.813 106.5056)" class="st1" cx="57.3" cy="49.3" rx="1.7" ry="3"/>
							</g>
							<g>
								<g>
									<path class="st3" d="M57.3,49.8c-0.5,0-1-0.4-1-0.9c-0.1-2.3-1.8-5.1-3.7-6.2c-0.6-0.3-1.7-0.8-2.6-0.3
										c-0.9,0.5-1.1,1.7-1.1,2.4s0.2,1.7,0.5,2.6c0.2,0.5,0,1.1-0.5,1.3s-1.1,0-1.3-0.5c-0.5-1.2-0.7-2.6-0.7-3.4
										c0-1.9,0.7-3.3,2.1-4.1c1.3-0.8,3-0.7,4.6,0.3c2.6,1.5,4.6,4.8,4.7,7.8C58.3,49.3,57.9,49.8,57.3,49.8L57.3,49.8z"/>
								</g>
							</g>
							<g>
								
									<ellipse transform="matrix(2.841524e-03 -1 1 2.841524e-03 -45.2929 91.7442)" class="st1" cx="23.4" cy="68.6" rx="1.7" ry="3"/>
							</g>
							<g>
								
									<ellipse transform="matrix(2.841524e-03 -1 1 2.841524e-03 -18.83 99.1746)" class="st1" cx="40.3" cy="59" rx="1.7" ry="3"/>
							</g>
							<g>
								<g>
									<path class="st3" d="M23.4,69.1c-0.5,0-1-0.4-1-0.9c-0.1-2.3-1.8-5.1-3.7-6.2c-0.6-0.3-1.7-0.8-2.6-0.3S15,63.4,15,64.1
										c0,0.7,0.2,1.9,0.6,2.7c0.2,0.5,0,1.1-0.5,1.3c-0.5,0.2-1.1,0-1.3-0.5C13.2,66.4,13,64.9,13,64c0-1.9,0.7-3.3,2.1-4.1
										c1.3-0.8,3-0.7,4.6,0.3c2.6,1.5,4.6,4.8,4.7,7.8C24.4,68.6,24,69.1,23.4,69.1L23.4,69.1z"/>
								</g>
							</g>
							<g>
								<g>
									<path class="st3" d="M40.3,59.5c-0.5,0-1-0.4-1-0.9c-0.1-2.3-1.8-5.1-3.7-6.2c-0.6-0.3-1.7-0.8-2.6-0.3
										c-0.9,0.5-1.1,1.7-1.1,2.4s0.2,1.7,0.5,2.6c0.2,0.5,0,1.1-0.5,1.3s-1.1,0-1.3-0.5c-0.5-1.2-0.7-2.6-0.7-3.4
										c0-1.9,0.7-3.3,2.1-4.1c1.3-0.8,3-0.7,4.6,0.3c2.6,1.5,4.6,4.8,4.7,7.8C41.3,59,40.9,59.4,40.3,59.5
										C40.4,59.5,40.3,59.5,40.3,59.5z"/>
								</g>
							</g>
						</g>
						<g>
							<g>
								<polygon class="st4" points="108.2,68 116.2,72.7 105.2,79.1 97.2,74.4 								"/>
								<path class="st4" d="M105.2,79.6c-0.1,0-0.2,0-0.2-0.1l-8-4.6c-0.2-0.1-0.2-0.3-0.2-0.4c0-0.2,0.1-0.3,0.2-0.4l11-6.4
									c0.2-0.1,0.3-0.1,0.5,0l8,4.6c0.2,0.1,0.2,0.3,0.2,0.4c0,0.2-0.1,0.3-0.2,0.4l-11,6.4C105.4,79.5,105.3,79.6,105.2,79.6z
									 M98.2,74.4l7,4.1l10-5.8l-7-4.1L98.2,74.4z"/>
							</g>
						</g>
						<g>
							<path class="st5" d="M122.8,73.5c-0.3,0-0.5-0.1-0.7-0.3c-0.2-0.2-0.3-0.4-0.3-0.7c0-0.3,0.1-0.5,0.3-0.7
								c0.1,0,0.1-0.1,0.2-0.1s0.1-0.1,0.2-0.1s0.1,0,0.2-0.1c0.1,0,0.3,0,0.4,0s0.1,0,0.2,0.1c0.1,0,0.1,0,0.2,0.1
								c0,0,0.1,0.1,0.2,0.1c0.2,0.2,0.3,0.5,0.3,0.7c0,0.1,0,0.3-0.1,0.4s-0.1,0.2-0.2,0.3C123.3,73.4,123,73.5,122.8,73.5z"/>
							<path class="st5" d="M121.8,66.7c0-0.5,0.4-1,1-1l0,0c0.5,0,1,0.5,1,1l0,0c0,0.5-0.5,1-1,1l0,0
								C122.2,67.7,121.8,67.2,121.8,66.7z M121.8,60.8c0-0.5,0.4-1,1-1l0,0c0.5,0,1,0.5,1,1l0,0c0,0.5-0.5,1-1,1l0,0
								C122.2,61.8,121.8,61.3,121.8,60.8z M121.8,54.9c0-0.5,0.4-1,1-1l0,0c0.5,0,1,0.5,1,1l0,0c0,0.5-0.5,1-1,1l0,0
								C122.2,55.9,121.8,55.5,121.8,54.9z M121.8,49c0-0.6,0.4-1,1-1l0,0c0.5,0,1,0.4,1,1l0,0c0,0.5-0.5,1-1,1l0,0
								C122.2,50,121.8,49.6,121.8,49z M121.8,43.1c0-0.6,0.4-1,1-1l0,0c0.5,0,1,0.4,1,1l0,0c0,0.5-0.5,1-1,1l0,0
								C122.2,44.1,121.8,43.7,121.8,43.1z M121.8,37.3c0-0.5,0.4-1,1-1l0,0c0.5,0,1,0.5,1,1l0,0c0,0.6-0.5,1-1,1l0,0
								C122.2,38.3,121.8,37.8,121.8,37.3z"/>
							<path class="st5" d="M122.8,32.4c-0.1,0-0.3,0-0.4-0.1c-0.1,0-0.2-0.1-0.3-0.2c-0.2-0.2-0.3-0.4-0.3-0.7c0-0.1,0-0.3,0.1-0.4
								s0.1-0.2,0.2-0.3c0.2-0.2,0.6-0.3,0.9-0.3c0.1,0,0.1,0,0.2,0s0.1,0.1,0.2,0.1c0,0,0.1,0.1,0.2,0.1c0.1,0.1,0.2,0.2,0.2,0.3
								c0.1,0.1,0.1,0.3,0.1,0.4s0,0.3-0.1,0.4c0,0.1-0.1,0.2-0.2,0.3c-0.1,0.1-0.2,0.2-0.3,0.2C123,32.4,122.9,32.4,122.8,32.4z"/>
						</g>
						<g>
							<path class="st3" d="M88.6,75.8c-0.1,0-0.3,0-0.4-0.1c-0.1,0-0.2-0.1-0.3-0.2c-0.1-0.1-0.2-0.2-0.2-0.3
								c0-0.1-0.1-0.2-0.1-0.4c0-0.1,0-0.3,0.1-0.4s0.1-0.2,0.2-0.3c0.4-0.4,1-0.4,1.4,0c0.2,0.2,0.3,0.4,0.3,0.7
								c0,0.3-0.1,0.5-0.3,0.7C89.1,75.7,88.9,75.8,88.6,75.8z"/>
							<path class="st3" d="M87.6,69.1c0-0.6,0.4-1,1-1l0,0c0.5,0,1,0.4,1,1l0,0c0,0.5-0.5,1-1,1l0,0C88.1,70.1,87.6,69.6,87.6,69.1
								z M87.6,63.3c0-0.6,0.4-1,1-1l0,0c0.5,0,1,0.4,1,1l0,0c0,0.5-0.5,1-1,1l0,0C88.1,64.3,87.6,63.9,87.6,63.3z M87.6,57.6
								c0-0.6,0.4-1,1-1l0,0c0.5,0,1,0.4,1,1l0,0c0,0.5-0.5,1-1,1l0,0C88.1,58.6,87.6,58.1,87.6,57.6z M87.6,51.8c0-0.6,0.4-1,1-1
								l0,0c0.5,0,1,0.4,1,1l0,0c0,0.5-0.5,1-1,1l0,0C88.1,52.8,87.6,52.4,87.6,51.8z M87.6,46.1c0-0.6,0.4-1,1-1l0,0
								c0.5,0,1,0.4,1,1l0,0c0,0.5-0.5,1-1,1l0,0C88.1,47.1,87.6,46.6,87.6,46.1z M87.6,40.3c0-0.6,0.4-1,1-1l0,0c0.5,0,1,0.4,1,1
								l0,0c0,0.5-0.5,1-1,1l0,0C88.1,41.3,87.6,40.9,87.6,40.3z"/>
							<path class="st3" d="M88.6,35.6c-0.3,0-0.5-0.1-0.7-0.3s-0.3-0.4-0.3-0.7s0.1-0.5,0.3-0.7c0.1-0.1,0.2-0.2,0.3-0.2
								c0.4-0.1,0.8-0.1,1.1,0.2c0.2,0.2,0.3,0.4,0.3,0.7s-0.1,0.5-0.3,0.7c-0.1,0.1-0.2,0.2-0.3,0.2C88.9,35.5,88.8,35.6,88.6,35.6
								z"/>
						</g>
						<g>
							<g>
								<g>
									<polygon class="st2" points="108.5,13.1 123,21.5 103.1,33.1 88.6,24.7 									"/>
									<path class="st6" d="M103.1,34.1c-0.2,0-0.3,0-0.5-0.1l-14.5-8.4c-0.3-0.2-0.5-0.5-0.5-0.9s0.2-0.7,0.5-0.9L108,12.3
										c0.3-0.2,0.7-0.2,1,0l14.5,8.4c0.3,0.2,0.5,0.5,0.5,0.9s-0.2,0.7-0.5,0.9L103.6,34C103.5,34,103.3,34.1,103.1,34.1z
										 M90.6,24.7l12.5,7.2L121,21.5l-12.5-7.2L90.6,24.7z"/>
								</g>
							</g>
							<g>
								<polygon class="st6" points="123,21.5 103.1,33.1 103.1,42.9 123,31.4 								"/>
								<path class="st6" d="M103.1,43.9c-0.2,0-0.3,0-0.5-0.1c-0.3-0.2-0.5-0.5-0.5-0.9V33c0-0.4,0.2-0.7,0.5-0.9l19.9-11.5
									c0.3-0.2,0.7-0.2,1,0s0.5,0.5,0.5,0.9v9.9c0,0.4-0.2,0.7-0.5,0.9l-19.9,11.6C103.5,43.9,103.3,43.9,103.1,43.9z M104.1,33.6
									v7.6L122,30.8v-7.6L104.1,33.6z"/>
							</g>
							<g>
								<polygon class="st4" points="103.1,42.9 88.6,34.6 88.6,24.7 103.1,33.1 								"/>
								<path class="st6" d="M103.1,43.9c-0.2,0-0.3,0-0.5-0.1l-14.5-8.4c-0.3-0.2-0.5-0.5-0.5-0.9v-9.9c0-0.4,0.2-0.7,0.5-0.9
									c0.3-0.2,0.7-0.2,1,0l14.5,8.4c0.3,0.2,0.5,0.5,0.5,0.9v9.9c0,0.4-0.2,0.7-0.5,0.9C103.5,43.9,103.3,43.9,103.1,43.9z
									 M89.6,34l12.5,7.2v-7.6l-12.5-7.2V34z"/>
							</g>
							<path class="st5" d="M103.1,43.9c-0.2,0-0.3,0-0.5-0.1l-14.5-8.4c-0.3-0.2-0.5-0.5-0.5-0.9v-9.9c0-0.4,0.2-0.7,0.5-0.9
								L108,12.3c0.3-0.2,0.7-0.2,1,0l14.5,8.4c0.3,0.2,0.5,0.5,0.5,0.9v9.9c0,0.4-0.2,0.7-0.5,0.9L103.6,44
								C103.5,43.9,103.3,43.9,103.1,43.9z M89.6,34l13.5,7.8l18.9-11v-8.7l-13.5-7.8l-18.9,11V34z"/>
						</g>
					</g>
				</g>
				<rect x="4" y="4" class="st7" width="120" height="120"/>
				<rect x="4" y="4" class="st7" width="120" height="120"/>
			</g>
		</g>
	</g>
	<g>
		<rect class="st7" width="128" height="128"/>
	</g>
</g>
</svg>
