<?xml version="1.0" encoding="utf-8"?>
<!-- Generator: Adobe Illustrator 24.1.0, SVG Export Plug-In . SVG Version: 6.00 Build 0)  -->
<svg version="1.1" id="Layer_1" xmlns="http://www.w3.org/2000/svg" xmlns:xlink="http://www.w3.org/1999/xlink" x="0px" y="0px"
	 viewBox="0 0 128 128" style="enable-background:new 0 0 128 128;" xml:space="preserve">
<style type="text/css">
	.st0{fill:#C4D7D3;}
	.st1{fill:#FFFFFF;}
	.st2{fill:#27ae60;}
	.st3{fill:#185849;}
	.st4{fill:none;}
</style>
<g id="Layer_1_1_">
</g>
<g>
	<g id="Layer_2_1_">
		<g id="Objects_1_">
			<g>
				<g>
					<path class="st0" d="M86.6,41.9c0-13.4-8.1-28.9-18.2-34.7c-4.5-2.6-8.7-2.8-11.9-1l0,0l-8.8,5.1l0,0c3.2-1.8,7.3-1.7,11.9,1
						C69.7,18,77.8,33.6,77.8,47c0,7.3-2.4,12.5-6.3,14.7l0,0l8.8-5.1l0,0C84.1,54.4,86.6,49.2,86.6,41.9z"/>
					<path class="st1" d="M68.4,7.2c-4.5-2.6-8.7-2.8-11.9-1l0,0l-8.8,5.1l0,0c3.2-1.8,7.3-1.7,11.9,1c5.5,3.2,10.4,9.3,13.7,16.3
						l8.8-5.1C78.8,16.4,73.9,10.3,68.4,7.2z"/>
					<g>
						<g>
							<path class="st0" d="M49,105.4c0.3,0.5,0.7,0.9,1.1,1.1l15.3,8.8c1.5,0.9,3.4,0.4,4.3-1.2c0.9-1.5,0.4-3.4-1.2-4.3L53.2,101
								c-1.5-0.9-3.4-0.4-4.3,1.2C48.4,103.2,48.4,104.4,49,105.4z"/>
							<g>
								<path class="st0" d="M49,105.4c0.3,0.5,0.7,0.9,1.1,1.1l15.3,8.8c1.5,0.9,3.4,0.4,4.3-1.2c0.9-1.5,0.4-3.4-1.2-4.3L53.2,101
									c-1.5-0.9-3.4-0.4-4.3,1.2C48.4,103.2,48.4,104.4,49,105.4z"/>
								<path class="st2" d="M67,116.8c-0.7,0-1.4-0.2-2.1-0.6l-15.3-8.8c-0.6-0.4-1.2-0.9-1.5-1.5l0,0c-0.7-1.3-0.7-2.9,0-4.1
									c0.6-1,1.4-1.6,2.5-1.9s2.2-0.1,3.1,0.4L69,109c1,0.6,1.6,1.4,1.9,2.5s0.1,2.2-0.4,3.1c-0.6,1-1.4,1.6-2.5,1.9
									C67.7,116.7,67.3,116.8,67,116.8z M49.8,104.9c0.2,0.3,0.5,0.6,0.8,0.8l15.3,8.8c0.5,0.3,1.1,0.4,1.6,0.2
									c0.6-0.1,1-0.5,1.3-1s0.4-1.1,0.2-1.6c-0.1-0.6-0.5-1-1-1.3L52.7,102c-0.5-0.3-1.1-0.4-1.6-0.2c-0.6,0.1-1,0.5-1.3,1
									C49.5,103.4,49.5,104.2,49.8,104.9L49.8,104.9z"/>
							</g>
							<g>
								<g>
									<path class="st0" d="M53.6,94.9c0.3,0.5,0.7,0.9,1.1,1.1l9.6,5.5c1.5,0.9,3.4,0.4,4.3-1.2c0.9-1.5,0.4-3.4-1.2-4.3
										l-9.6-5.5c-1.5-0.9-3.4-0.4-4.3,1.2C53.1,92.7,53.1,93.9,53.6,94.9z"/>
									<path class="st2" d="M65.9,103c-0.7,0-1.4-0.2-2.1-0.6l-9.6-5.5c-0.6-0.4-1.2-0.9-1.5-1.5c-0.7-1.3-0.7-2.9,0-4.1
										c0.6-1,1.4-1.6,2.5-1.9s2.2-0.1,3.1,0.4l9.6,5.5c1,0.6,1.6,1.4,1.9,2.5s0.1,2.2-0.4,3.1c-0.6,1-1.4,1.6-2.5,1.9
										C66.7,102.9,66.3,103,65.9,103z M56.4,91.1c-0.2,0-0.4,0-0.6,0.1c-0.6,0.1-1,0.5-1.3,1c-0.4,0.7-0.4,1.5,0,2.1l0,0
										c0.2,0.3,0.5,0.6,0.8,0.8l9.6,5.5c0.5,0.3,1.1,0.4,1.6,0.2s1-0.5,1.3-1s0.4-1.1,0.2-1.6c-0.1-0.6-0.5-1-1-1.3l-9.6-5.5
										C57.1,91.2,56.7,91.1,56.4,91.1z"/>
								</g>
								<path class="st1" d="M63.8,97.2c-0.2,0-0.3,0-0.5-0.1l-7.4-4.3c-0.5-0.3-0.6-0.9-0.4-1.4c0.3-0.5,0.9-0.6,1.4-0.4l7.4,4.3
									c0.5,0.3,0.6,0.9,0.4,1.4C64.4,97,64.1,97.2,63.8,97.2z"/>
							</g>
							<path class="st1" d="M64.8,111c-0.2,0-0.3,0-0.5-0.1l-13.1-7.5c-0.5-0.3-0.6-0.9-0.4-1.4c0.3-0.5,0.9-0.6,1.4-0.4l13.1,7.5
								c0.5,0.3,0.6,0.9,0.4,1.4C65.5,110.8,65.1,111,64.8,111z"/>
							<path class="st0" d="M62.7,55.3c-0.4,0.8-0.7,1.6-0.7,2.6v60c0,2.9,2.3,5.2,5.2,5.2c2.9,0,5.2-2.3,5.2-5.2v-60
								c0-2.9-2.3-5.2-5.2-5.2C65.3,52.7,63.6,53.8,62.7,55.3z"/>
							<path class="st1" d="M63.2,57.1C63.1,57.4,63,57.7,63,58v58.6c0,1,0.8,1.8,1.8,1.8c1,0,1.8-0.8,1.8-1.8V58
								c0-1-0.8-1.8-1.8-1.8C64.1,56.3,63.5,56.6,63.2,57.1z"/>
							<path class="st2" d="M67.2,124L67.2,124c-1.6,0-3.2-0.6-4.4-1.8c-1.2-1.2-1.8-2.7-1.8-4.4V55.4c0-1.1,0.3-2.1,0.8-3.1l0,0
								c1.1-1.9,3.1-3.1,5.3-3.1l0,0c3.4,0,6.2,2.8,6.2,6.2v62.4c0,1.6-0.6,3.2-1.8,4.4C70.4,123.4,68.8,124,67.2,124z M63.6,53.3
								c-0.4,0.6-0.6,1.3-0.6,2.1v62.4c0,1.1,0.4,2.2,1.2,2.9c0.8,0.8,1.8,1.2,2.9,1.2l0,0c1.1,0,2.2-0.4,2.9-1.2
								c0.8-0.8,1.2-1.8,1.2-2.9V55.4c0-2.3-1.9-4.2-4.2-4.2l0,0C65.7,51.2,64.3,52,63.6,53.3L63.6,53.3z"/>
						</g>
						<g>
							<g>
								<path class="st0" d="M59.6,12.2c-10-5.8-18.2,0.4-18.2,13.7c0,13.4,8.1,28.9,18.2,34.7c10,5.8,18.2-0.4,18.2-13.7
									S69.7,18,59.6,12.2z"/>
								<path class="st2" d="M66.8,63.9c-2.4,0-5.1-0.8-7.7-2.3C48.8,55.7,40.4,39.7,40.4,26c0-7.4,2.5-13.1,6.8-15.6
									c3.6-2.1,8.2-1.8,12.9,1C70.4,17.3,78.8,33.3,78.8,47c0,7.4-2.5,13.1-6.8,15.6C70.4,63.5,68.7,63.9,66.8,63.9z M52.4,11.1
									c-1.5,0-2.9,0.4-4.2,1.1c-3.7,2.1-5.8,7.2-5.8,13.8c0,13,7.9,28.2,17.7,33.9c4,2.3,7.9,2.7,10.9,1c3.7-2.1,5.8-7.2,5.8-13.8
									c0-13-7.9-28.2-17.7-33.9C56.8,11.8,54.5,11.1,52.4,11.1z"/>
							</g>
						</g>
					</g>
					<path class="st2" d="M71.5,62.7c-0.1,0-0.2,0-0.3,0c-0.3-0.1-0.5-0.2-0.6-0.5c-0.3-0.5-0.1-1.1,0.4-1.4
						c3.7-2.1,5.8-7.2,5.8-13.8c0-13-7.9-28.2-17.7-33.9c-4-2.3-7.9-2.7-10.9-1c-0.2,0.1-0.5,0.2-0.8,0.1c-0.3-0.1-0.5-0.3-0.6-0.5
						c-0.3-0.5-0.1-1.1,0.4-1.3l8.8-5c0,0,0.1,0,0.1-0.1c3.6-2,8.1-1.7,12.8,1c10.3,5.9,18.7,21.9,18.7,35.6c0,7.3-2.4,13-6.7,15.5
						l-0.1,0.1L72,62.6C71.9,62.6,71.7,62.7,71.5,62.7z M53.5,9.1c2.1,0.2,4.4,0.9,6.6,2.3C70.4,17.3,78.8,33.3,78.8,47
						c0,4.2-0.8,7.8-2.3,10.7l3.2-1.8c0,0,0.1,0,0.1-0.1c3.7-2.1,5.8-7.2,5.8-13.8c0-13-7.9-28.2-17.7-33.9c-4-2.3-7.9-2.7-10.9-1
						c0,0-0.1,0-0.1,0.1L53.5,9.1z"/>
					<path class="st3" d="M67.2,124L67.2,124c-3.4,0-6.2-2.8-6.2-6.2v-3.9l-11.4-6.6c-0.6-0.4-1.2-0.9-1.5-1.5
						c-0.7-1.3-0.7-2.9,0-4.1c0.6-1,1.4-1.6,2.5-1.9s2.2-0.1,3.1,0.4l7.2,4.2v-3.6l-6.7-3.9c-0.6-0.4-1.2-0.9-1.5-1.5
						c-0.7-1.3-0.7-2.9,0-4.1c0.6-1,1.4-1.6,2.5-1.9s2.2-0.1,3.1,0.4l2.6,1.5V62.6c-0.6-0.3-1.3-0.6-1.9-1
						C48.8,55.7,40.4,39.7,40.4,26c0-7.3,2.4-13,6.7-15.5l0.1-0.1l8.8-5c0,0,0.1,0,0.1-0.1c3.6-2,8.1-1.7,12.8,1
						c0.3,0.2,0.7,0.4,1,0.6l0.3,0.2c0.2,0.2,0.5,0.3,0.7,0.5l0.4,0.3c0.2,0.2,0.4,0.3,0.6,0.5l0.3,0.3c0.3,0.2,0.5,0.4,0.7,0.6
						l0.3,0.3c0.2,0.2,0.5,0.4,0.7,0.6l0.3,0.3c0.2,0.2,0.4,0.4,0.6,0.6l0.3,0.3c0.2,0.2,0.4,0.5,0.7,0.7l0.2,0.3
						c0.2,0.3,0.5,0.6,0.7,0.8l0.1,0.2c6.5,7.8,10.7,19.1,10.7,28.6c0,7.3-2.4,13-6.7,15.5l-0.1,0.1l-7.5,4.3v56
						c0,1.6-0.6,3.2-1.8,4.4C70.4,123.4,68.8,124,67.2,124z M51.7,101.6c-0.2,0-0.4,0-0.6,0.1c-0.6,0.1-1,0.5-1.3,1
						c-0.4,0.7-0.4,1.5,0,2.1c0.2,0.3,0.5,0.6,0.8,0.8l11.9,6.9c0.3,0.2,0.5,0.5,0.5,0.9v4.5c0,2.3,1.9,4.2,4.2,4.2l0,0
						c1.1,0,2.2-0.4,2.9-1.2c0.8-0.8,1.2-1.8,1.2-2.9V61.2c0-0.4,0.2-0.7,0.5-0.9l7.8-4.5c0,0,0.1,0,0.1-0.1
						c3.7-2.1,5.8-7.2,5.8-13.8c0-9.1-4-19.9-10.2-27.4l-0.1-0.2c-0.2-0.3-0.5-0.5-0.7-0.8l-0.2-0.2c-0.2-0.2-0.4-0.5-0.6-0.7
						l-0.3-0.3c-0.2-0.2-0.4-0.4-0.6-0.6l-0.3-0.3c-0.2-0.2-0.4-0.4-0.6-0.5l-0.3-0.3c-0.2-0.2-0.4-0.3-0.6-0.5L70.7,10
						c-0.2-0.2-0.4-0.3-0.6-0.4l-0.3-0.3c-0.2-0.2-0.4-0.3-0.6-0.4l-0.3-0.2c-0.3-0.2-0.6-0.4-0.9-0.6c-4-2.3-7.9-2.7-10.9-1
						c0,0-0.1,0-0.1,0.1l-8.6,4.9c0,0-0.1,0-0.1,0.1c-3.7,2.1-5.8,7.2-5.8,13.8c0,13,7.9,28.2,17.7,33.9c0.7,0.4,1.5,0.8,2.3,1.1
						c0.4,0.2,0.6,0.5,0.6,0.9v31c0,0.4-0.2,0.7-0.5,0.9c-0.3,0.2-0.7,0.2-1,0l-4.1-2.3c-0.5-0.3-1.1-0.4-1.6-0.2
						c-0.6,0.1-1,0.5-1.3,1c-0.4,0.7-0.4,1.5,0,2.1c0.2,0.3,0.5,0.6,0.8,0.8l7.2,4.2c0.3,0.2,0.5,0.5,0.5,0.9v5.9
						c0,0.4-0.2,0.7-0.5,0.9c-0.3,0.2-0.7,0.2-1,0l-8.7-5C52.4,101.7,52.1,101.6,51.7,101.6z"/>
					<path class="st2" d="M59.6,47.5c-4.6-2.6-8.3-9.7-8.3-15.8s3.7-8.9,8.3-6.2c4.6,2.6,8.3,9.7,8.3,15.8
						C67.9,47.3,64.2,50.1,59.6,47.5z"/>
				</g>
				<rect x="4" y="4" class="st4" width="120" height="120"/>
				<rect x="4" y="4" class="st4" width="120" height="120"/>
			</g>
		</g>
	</g>
	<g>
		<rect class="st4" width="128" height="128"/>
	</g>
</g>
</svg>
