<?xml version="1.0" encoding="utf-8"?>
<!-- Generator: Adobe Illustrator 24.1.0, SVG Export Plug-In . SVG Version: 6.00 Build 0)  -->
<svg version="1.1" id="Layer_1" xmlns="http://www.w3.org/2000/svg" xmlns:xlink="http://www.w3.org/1999/xlink" x="0px" y="0px"
	 viewBox="0 0 128 128" style="enable-background:new 0 0 128 128;" xml:space="preserve">
<style type="text/css">
	.st0{fill:#0E352C;}
	.st1{fill:#185849;}
	.st2{fill:#E9EBDF;}
	.st3{fill:#4D9987;}
	.st4{fill:#FFFFFF;}
	.st5{fill:#27ae60;}
	.st6{fill:#C4D7D3;}
	.st7{fill:none;}
</style>
<g id="Layer_1_1_">
</g>
<g>
	<g id="Layer_2_1_">
		<g id="Tech_Concepts_1_">
			<g>
				<g>
					<g>
						<path class="st0" d="M19,37.2c-0.3,0-0.5-0.1-0.7-0.3c-0.1-0.1-0.2-0.2-0.2-0.3C18,36.5,18,36.4,18,36.2
							c0-0.3,0.1-0.5,0.3-0.7c0.1-0.1,0.2-0.2,0.3-0.2c0.2-0.1,0.5-0.1,0.8,0c0.1,0,0.2,0.1,0.3,0.2c0.1,0.1,0.2,0.2,0.2,0.3
							C20,36,20,36.1,20,36.2c0,0.1,0,0.3-0.1,0.4c-0.1,0.1-0.1,0.2-0.2,0.3C19.5,37.1,19.3,37.2,19,37.2z"/>
						<path class="st0" d="M18,68c0-0.6,0.4-1,1-1l0,0c0.5,0,1,0.4,1,1l0,0c0,0.5-0.5,1-1,1l0,0C18.4,69,18,68.6,18,68z M18,61.7
							c0-0.6,0.4-1,1-1l0,0c0.5,0,1,0.4,1,1l0,0c0,0.5-0.5,1-1,1l0,0C18.4,62.7,18,62.2,18,61.7z M18,55.3c0-0.6,0.4-1,1-1l0,0
							c0.5,0,1,0.4,1,1l0,0c0,0.5-0.5,1-1,1l0,0C18.4,56.3,18,55.9,18,55.3z M18,49c0-0.5,0.4-1,1-1l0,0c0.5,0,1,0.5,1,1l0,0
							c0,0.5-0.5,1-1,1l0,0C18.4,50,18,49.5,18,49z M18,42.6c0-0.5,0.4-1,1-1l0,0c0.5,0,1,0.5,1,1l0,0c0,0.6-0.5,1-1,1l0,0
							C18.4,43.6,18,43.2,18,42.6z"/>
						<path class="st0" d="M19,75.4c-0.3,0-0.5-0.1-0.7-0.3c-0.2-0.2-0.3-0.4-0.3-0.7c0-0.3,0.1-0.5,0.3-0.7
							c0.1-0.1,0.2-0.2,0.3-0.2c0.2-0.1,0.5-0.1,0.8,0c0.1,0,0.2,0.1,0.3,0.2c0.2,0.2,0.3,0.4,0.3,0.7c0,0.1,0,0.3-0.1,0.4
							s-0.1,0.2-0.2,0.3C19.5,75.3,19.3,75.4,19,75.4z"/>
					</g>
					<g>
						<path class="st1" d="M109,58.7c-0.1,0-0.3,0-0.4-0.1c-0.1,0-0.2-0.1-0.3-0.2c-0.1-0.1-0.2-0.2-0.2-0.3
							c-0.1-0.1-0.1-0.2-0.1-0.4s0-0.3,0.1-0.4c0-0.1,0.1-0.2,0.2-0.3s0.2-0.2,0.3-0.2c0.2-0.1,0.4-0.1,0.6,0c0.1,0,0.1,0,0.2,0
							c0.1,0.1,0.2,0.1,0.3,0.2c0.1,0.1,0.2,0.2,0.2,0.3s0.1,0.3,0.1,0.4s0,0.3-0.1,0.4c-0.1,0.1-0.1,0.2-0.2,0.3s-0.2,0.2-0.3,0.2
							S109.1,58.7,109,58.7z"/>
						<path class="st1" d="M108,76.9c0-0.5,0.4-1,1-1l0,0c0.5,0,1,0.5,1,1l0,0c0,0.5-0.5,1-1,1l0,0C108.4,77.9,108,77.5,108,76.9z
							 M108,70.5c0-0.5,0.4-1,1-1l0,0c0.5,0,1,0.5,1,1l0,0c0,0.6-0.5,1-1,1l0,0C108.4,71.5,108,71.1,108,70.5z M108,64.1
							c0-0.6,0.4-1,1-1l0,0c0.5,0,1,0.4,1,1l0,0c0,0.5-0.5,1-1,1l0,0C108.4,65.1,108,64.7,108,64.1z"/>
						<path class="st1" d="M109,84.3c-0.3,0-0.5-0.1-0.7-0.3c-0.1-0.1-0.2-0.2-0.2-0.3c-0.1-0.1-0.1-0.2-0.1-0.4
							c0-0.1,0-0.3,0.1-0.4c0-0.1,0.1-0.2,0.2-0.3c0.1-0.1,0.2-0.2,0.3-0.2c0.2-0.1,0.5-0.1,0.8,0c0.1,0,0.2,0.1,0.3,0.2
							c0.1,0.1,0.2,0.2,0.2,0.3c0,0.1,0.1,0.2,0.1,0.4c0,0.1,0,0.3-0.1,0.4s-0.1,0.2-0.2,0.3C109.5,84.2,109.3,84.3,109,84.3z"/>
					</g>
					<g>
						<path class="st2" d="M41.7,64.2c-0.5,0.3-0.7,1-0.7,2c0,1.9,1.1,4,2.5,4.8l2.6,1.5l-13.7,7.9l-2.6-1.5c-1.4-0.8-2.5-3-2.5-4.8
							c0-0.9,0.3-1.6,0.7-2L41.7,64.2z"/>
						<path class="st3" d="M32.5,81.4c-0.2,0-0.3,0-0.5-0.1l-2.6-1.5c-1.7-1-3-3.5-3-5.7c0-1.2,0.4-2.2,1.1-2.8c0,0,0.1,0,0.1-0.1
							l13.7-7.9c0.5-0.3,1-0.1,1.3,0.3s0.2,1-0.2,1.4c-0.2,0.1-0.3,0.5-0.3,1.2c0,1.5,0.9,3.3,2,4l2.6,1.5c0.3,0.2,0.5,0.5,0.5,0.9
							s-0.2,0.7-0.5,0.9L33,81.3C32.8,81.4,32.7,81.4,32.5,81.4z M28.7,72.9c-0.2,0.1-0.3,0.5-0.3,1.1c0,1.5,0.9,3.3,2,4l2.1,1.2
							l11.7-6.7L43,71.9c-1.6-1-3-3.3-3-5.5L28.7,72.9z"/>
					</g>
					<path class="st0" d="M32.5,81.4c-0.2,0-0.3,0-0.5-0.1l-2.6-1.5c-1.7-1-3-3.5-3-5.7c0-1.2,0.4-2.2,1.1-2.8c0,0,0.1,0,0.1-0.1
						l13.6-7.9c0.8-0.6,1.8-0.6,2.8,0l3.7,2.2c0.3,0.2,0.5,0.5,0.5,0.9s-0.2,0.7-0.5,0.9l-4.3,2.5c0.2,0.2,0.4,0.3,0.5,0.4l2.6,1.5
						c0.3,0.2,0.5,0.5,0.5,0.9s-0.2,0.7-0.5,0.9L33,81.3C32.8,81.4,32.7,81.4,32.5,81.4z M28.7,72.9c-0.2,0.1-0.3,0.5-0.3,1.1
						c0,1.5,0.9,3.3,2,4l2.1,1.2l11.7-6.7L43,71.9c-0.7-0.4-1.3-1.1-1.9-1.9C41,69.7,41,69.5,41,69.2s0.2-0.5,0.5-0.6l3.7-2.2
						L43,65.1c-0.1-0.1-0.5-0.3-0.7-0.1c0,0-0.1,0-0.1,0.1L28.7,72.9z"/>
					<g>
						<path class="st2" d="M99.3,90.1L60.5,67.7c-2.4-1.4-6.2-1.4-8.5,0l-25.9,15L19,81.4v6.8c0,0.9,0.6,1.8,1.8,2.5l46.7,27
							c2.4,1.4,6.2,1.4,8.5,0l31.3-18.1c1.2-0.7,1.8-1.6,1.8-2.5v-6.8L99.3,90.1z"/>
						<path class="st3" d="M71.7,119.6c-1.7,0-3.4-0.4-4.8-1.2l-46.7-27c-1.5-0.8-2.3-2-2.3-3.3v-6.8c0-0.3,0.1-0.6,0.4-0.8
							c0.2-0.2,0.5-0.3,0.8-0.2l6.8,1.2l25.6-14.8c2.7-1.5,6.8-1.5,9.5,0L99.6,89l9.4,0.2c0.5,0,1,0.5,1,1V97c0,1.3-0.8,2.5-2.3,3.3
							l-31.3,18.1C75.1,119.2,73.4,119.6,71.7,119.6z M20,82.6v5.6c0,0.5,0.5,1.1,1.3,1.6l46.7,27c2,1.2,5.5,1.2,7.5,0l31.3-18.1
							c0.8-0.5,1.3-1,1.3-1.6v-5.8l-8.7-0.2c-0.2,0-0.3,0-0.5-0.1L60,68.5c-2-1.2-5.5-1.2-7.5,0l-25.9,15c-0.2,0.1-0.4,0.2-0.7,0.1
							L20,82.6z"/>
					</g>
					<path class="st3" d="M71.3,73.9v44.7c1.7,0.1,3.4-0.3,4.7-1l31.3-18.1c1.2-0.7,1.8-1.6,1.8-2.5v-6.8L99.4,90L71.3,73.9z"/>
					<g>
						<path class="st4" d="M107.2,87.8l-46.7-27c-2.4-1.4-6.2-1.4-8.5,0L20.8,78.9c-2.4,1.4-2.4,3.6,0,4.9l46.7,27
							c2.4,1.4,6.2,1.4,8.5,0l31.3-18.1C109.6,91.4,109.6,89.2,107.2,87.8z"/>
						<path class="st3" d="M71.7,112.8c-1.7,0-3.4-0.4-4.8-1.2l-46.7-27c-1.5-0.8-2.3-2-2.3-3.3s0.8-2.5,2.3-3.3l31.3-18
							c2.7-1.5,6.8-1.5,9.5,0l46.7,27c1.5,0.8,2.3,2,2.3,3.3s-0.8,2.5-2.3,3.3l-31.3,18.1C75.1,112.4,73.4,112.8,71.7,112.8z
							 M56.3,60.9c-1.4,0-2.7,0.3-3.8,0.9l-31.2,18c-0.8,0.5-1.3,1-1.3,1.6s0.5,1.1,1.3,1.6L68,110c2,1.2,5.5,1.2,7.5,0l31.3-18.1
							c0.8-0.5,1.3-1,1.3-1.6c0-0.5-0.5-1.1-1.3-1.6l0,0L60,61.8C59,61.2,57.7,60.9,56.3,60.9z"/>
					</g>
					<path class="st0" d="M71.7,119.6c-0.2,0-0.3,0-0.5,0c-1.6-0.1-3.1-0.5-4.3-1.1l-46.7-27c-1.5-0.8-2.3-2-2.3-3.3v-6.8
						c0-1.3,0.8-2.5,2.3-3.3L51.5,60c2.7-1.5,6.8-1.5,9.5,0l46.7,27c1.5,0.8,2.3,2,2.3,3.3v6.8c0,0.3-0.1,0.7-0.2,1
						c-0.3,0.9-1,1.7-2.1,2.3l-31.3,18.1l0,0c-0.3,0.2-0.7,0.4-1.1,0.5c-0.1,0-0.1,0-0.2,0.1c-0.4,0.1-0.7,0.2-1.1,0.3h-0.1
						c-0.4,0.1-0.8,0.1-1.3,0.2C72.3,119.6,72,119.6,71.7,119.6z M56.3,60.9c-1.4,0-2.7,0.3-3.8,0.9l-31.2,18
						c-0.8,0.5-1.3,1-1.3,1.6v6.8c0,0.5,0.5,1.1,1.3,1.6l46.7,27c0.9,0.5,2.1,0.8,3.4,0.9c0.4,0,0.8,0,1.1,0c0.4,0,0.7-0.1,1-0.1
						h0.1c0.3-0.1,0.6-0.1,0.8-0.2h0.1c0.4-0.1,0.6-0.3,0.9-0.4l0,0c0,0,0,0,0.1,0l31.2-18c0.6-0.4,1.1-0.8,1.2-1.2
						c0-0.1,0.1-0.2,0.1-0.3v-6.8c0-0.5-0.5-1.1-1.3-1.6L60,61.8C59,61.2,57.7,60.9,56.3,60.9z M76,117.6L76,117.6L76,117.6z"/>
					<path class="st5" d="M79.8,97.1c-0.7,0-1.3-0.1-1.8-0.4L57.8,85c-1-0.6-1-1.5,0-2.1s2.6-0.6,3.6,0l20.2,11.6c1,0.6,1,1.5,0,2.1
						C81.1,97,80.4,97.1,79.8,97.1z"/>
					<path class="st5" d="M77.2,95.2L77.2,95.2c-0.5,0-1-0.1-1.4-0.3l-1.8-1c-0.7-0.4-0.7-1.1,0-1.6l4.7-2.7c0.7-0.4,2-0.4,2.7,0
						l1.8,1c0.4,0.2,0.6,0.5,0.6,0.8s-0.2,0.6-0.6,0.8l-4.7,2.7C78.2,95.1,77.7,95.2,77.2,95.2z"/>
					<path class="st5" d="M70.4,91.3c-0.5,0-1-0.1-1.4-0.3c-0.7-0.4-0.7-1.1,0-1.6l2.9-1.7c0.7-0.4,2-0.4,2.7,0s0.7,1.1,0,1.6
						L71.8,91C71.4,91.2,70.9,91.3,70.4,91.3z"/>
					<path class="st5" d="M54.2,87.1c-2.9,0-5.6-0.7-7.7-1.8c-4.2-2.4-4.2-6.4,0-8.9c2-1.2,4.8-1.8,7.7-1.8s5.6,0.7,7.7,1.8
						c4.2,2.4,4.2,6.4,0,8.9C59.8,86.5,57.1,87.1,54.2,87.1z M54.2,78.3c-1.2,0-2.3,0.3-3.2,0.8c-1.7,1-1.7,2.6,0,3.6s4.6,1,6.3,0
						s1.7-2.6,0-3.6C56.5,78.5,55.4,78.3,54.2,78.3z"/>
					<g>
						<path class="st2" d="M41.7,64.2c0.5-0.3,1.1-0.4,1.8,0l3.7,2.2l-13.7,7.9l-3.7-2.2c-0.7-0.4-1.3-0.4-1.8,0L41.7,64.2z"/>
						<path class="st3" d="M33.6,75.3c-0.2,0-0.3,0-0.5-0.1L29.4,73c-0.1-0.1-0.4-0.2-0.6-0.2L28.6,73c-0.5,0.3-1,0.1-1.3-0.3
							s-0.2-1,0.2-1.3c0.1-0.1,0.3-0.2,0.4-0.3l13.3-7.7c0.8-0.6,1.8-0.6,2.8,0l3.7,2.2c0.3,0.2,0.5,0.5,0.5,0.9s-0.2,0.7-0.5,0.9
							L34,75.3C33.9,75.3,33.8,75.3,33.6,75.3z M30.9,71.6l2.7,1.5l11.7-6.7L43,65.1c-0.1-0.1-0.5-0.3-0.7-0.1c0,0-0.1,0-0.1,0.1
							L30.9,71.6z M41.7,64.2L41.7,64.2L41.7,64.2z"/>
					</g>
					<path class="st0" d="M33.6,75.3c-0.2,0-0.3,0-0.5-0.1L29.4,73c-0.1-0.1-0.4-0.2-0.6-0.2L28.6,73c-0.5,0.3-1,0.1-1.3-0.3
						s-0.2-1,0.2-1.3c0.1-0.1,0.3-0.2,0.4-0.3l13.3-7.7c0.8-0.6,1.8-0.6,2.8,0l3.7,2.2c0.3,0.2,0.5,0.5,0.5,0.9s-0.2,0.7-0.5,0.9
						L34,75.3C33.9,75.3,33.8,75.3,33.6,75.3z M30.9,71.6l2.7,1.5l11.7-6.7L43,65.1c-0.1-0.1-0.5-0.3-0.7-0.1c0,0-0.1,0-0.1,0.1
						L30.9,71.6z M41.7,64.2L41.7,64.2L41.7,64.2z"/>
					<g>
						<path class="st6" d="M41.5,40.5c-5.4,0-10.7-1.3-14.7-3.6C21.8,34,19,29.7,19,25s2.9-9.1,7.8-11.9c4-2.3,9.2-3.6,14.7-3.6
							s10.7,1.3,14.7,3.6C61.2,16,64,20.3,64,25s-2.9,9.1-7.8,11.9C52.2,39.2,47,40.5,41.5,40.5z M31.1,24.9
							c0.1,0.3,0.6,0.9,1.8,1.5c2.2,1.3,5.3,2,8.7,2c3.3,0,6.5-0.7,8.7-2c1.2-0.7,1.7-1.3,1.8-1.5c-0.1-0.3-0.6-0.9-1.8-1.5
							c-2.2-1.3-5.3-2-8.7-2c-3.3,0-6.5,0.7-8.7,2C31.7,24.1,31.2,24.7,31.1,24.9z"/>
						<path class="st6" d="M102.4,64.1c-0.7,0-1.4-0.2-2-0.5L51.2,35.1c-1.9-1.1-2.6-3.6-1.5-5.5s3.6-2.6,5.5-1.5l49.2,28.4
							c1.9,1.1,2.6,3.6,1.5,5.5C105.1,63.3,103.8,64.1,102.4,64.1z"/>
						<path class="st6" d="M95.2,58.9c-0.5,0-1-0.1-1.5-0.4l-5.2-3C87.6,55,87,54,87,52.9s0.6-2.1,1.5-2.6l10.7-6.2
							c0.9-0.5,2.1-0.5,3,0l5.2,3c0.9,0.5,1.5,1.5,1.5,2.6s-0.6,2.1-1.5,2.6l-10.7,6.2C96.3,58.8,95.8,58.9,95.2,58.9z"/>
						<path class="st6" d="M80.6,50.5c-1,0-2.1-0.5-2.6-1.5c-0.8-1.4-0.3-3.3,1.1-4.1l6.7-3.9c1.4-0.8,3.3-0.3,4.1,1.1
							c0.8,1.4,0.3,3.3-1.1,4.1l-6.7,3.9C81.6,50.4,81.1,50.5,80.6,50.5z"/>
						<path class="st4" d="M81.9,46.7c-0.3,0-0.7-0.2-0.9-0.5c-0.3-0.5-0.1-1.1,0.4-1.4l5.4-3.1c0.5-0.3,1.1-0.1,1.4,0.4
							s0.1,1.1-0.4,1.4l-5.4,3.1C82.2,46.6,82,46.7,81.9,46.7z"/>
						<path class="st4" d="M92.5,51.4c-0.3,0-0.7-0.2-0.9-0.5c-0.3-0.5-0.1-1.1,0.4-1.4l5.5-3.2c0.5-0.3,1.1-0.1,1.4,0.4
							s0.1,1.1-0.4,1.4L93,51.3C92.9,51.3,92.7,51.4,92.5,51.4z"/>
						<path class="st5" d="M100.3,55.2c-0.3,0-0.7-0.2-0.9-0.5c-0.3-0.5-0.1-1.1,0.4-1.4l6.6-3.8c0.5-0.3,1.1-0.1,1.4,0.4
							s0.1,1.1-0.4,1.4l-6.6,3.8C100.6,55.2,100.4,55.2,100.3,55.2z"/>
						<path class="st5" d="M102.3,56.4c-0.2,0-0.3,0-0.5-0.1L81,44.2c-0.5-0.3-0.6-0.9-0.4-1.4c0.3-0.5,0.9-0.6,1.4-0.4l20.8,12
							c0.5,0.3,0.6,0.9,0.4,1.4C102.9,56.2,102.6,56.4,102.3,56.4z"/>
						<path class="st4" d="M41.5,31.9c-4.7,0-9.1-1.1-12.4-3c-3.6-2.1-5.6-4.9-5.6-8s2-6,5.6-8c3.3-1.9,7.8-3,12.4-3s9.1,1.1,12.4,3
							c3.6,2.1,5.6,4.9,5.6,8s-2,6-5.6,8C50.6,30.9,46.2,31.9,41.5,31.9z M41.5,12.9c-4.1,0-8,0.9-10.9,2.6C28,17,26.5,19,26.5,20.9
							s1.5,3.9,4.1,5.4c2.9,1.7,6.8,2.6,10.9,2.6s8-0.9,10.9-2.6c2.6-1.5,4.1-3.5,4.1-5.4S55,17,52.4,15.5
							C49.5,13.8,45.7,12.9,41.5,12.9z"/>
						<path class="st5" d="M41.5,39.5c-5.3,0-10.2-1.2-14-3.4c-0.5-0.3-0.6-0.9-0.4-1.4c0.3-0.5,0.9-0.6,1.4-0.4
							c3.5,2,8.1,3.1,13,3.1s9.5-1.1,13-3.1c0.5-0.3,1.1-0.1,1.4,0.4c0.3,0.5,0.1,1.1-0.4,1.4C51.8,38.3,46.8,39.5,41.5,39.5z"/>
						<path class="st4" d="M102.4,58.7c-0.2,0-0.3,0-0.5-0.1L59.6,34.2c-0.5-0.3-0.6-0.9-0.4-1.4s0.9-0.6,1.4-0.4l42.3,24.4
							c0.5,0.3,0.6,0.9,0.4,1.4C103.1,58.6,102.7,58.7,102.4,58.7z"/>
						<path class="st1" d="M102.4,65.1c-0.9,0-1.7-0.2-2.5-0.7L55.1,38.6c-3.9,1.9-8.7,2.9-13.6,2.9c-5.6,0-11-1.3-15.2-3.7
							C21,34.7,18,30,18,24.9s3-9.8,8.3-12.8c4.2-2.4,9.6-3.7,15.2-3.7s11,1.3,15.2,3.7C62,15.2,65,19.8,65,24.9
							c0,2.3-0.7,4.6-1.9,6.7l18.5,10.7l3.7-2.1c0.9-0.5,2-0.7,3-0.4s1.9,0.9,2.4,1.9c0.5,0.9,0.7,2,0.4,3c-0.2,0.9-0.8,1.7-1.6,2.2
							l1.5,0.8l7.7-4.5c1.2-0.7,2.8-0.7,4,0l5.2,3c1.2,0.7,2,2,2,3.5s-0.8,2.8-2,3.5l-3.7,2.2l0.6,0.4c1.2,0.7,2,1.7,2.3,3
							s0.2,2.6-0.5,3.8C105.8,64.1,104.2,65.1,102.4,65.1z M55.1,36.4c0.2,0,0.3,0,0.5,0.1l45.2,26.1c0.5,0.3,1,0.4,1.5,0.4
							c1.1,0,2.1-0.6,2.6-1.5c0.4-0.7,0.5-1.5,0.3-2.3s-0.7-1.4-1.4-1.8l-2.1-1.2c-0.3-0.2-0.5-0.5-0.5-0.9s0.2-0.7,0.5-0.9l5.2-3
							c0.6-0.4,1-1,1-1.7s-0.4-1.4-1-1.7l0,0l-5.2-3c-0.6-0.4-1.4-0.4-2,0l-8.2,4.8c-0.3,0.2-0.7,0.2-1,0l-3.4-2
							c-0.3-0.2-0.5-0.5-0.5-0.9s0.2-0.7,0.5-0.9l1.2-0.7c0.5-0.3,0.8-0.7,0.9-1.2s0.1-1.1-0.2-1.5c-0.3-0.5-0.7-0.8-1.2-0.9
							c-0.5-0.1-1.1-0.1-1.5,0.2l-4.2,2.4c-0.3,0.2-0.7,0.2-1,0L61.2,32.8c-0.2-0.1-0.4-0.4-0.5-0.7s0-0.6,0.2-0.8
							c1.4-2,2.1-4.2,2.1-6.5c0-4.3-2.7-8.4-7.3-11.1c-3.9-2.2-8.9-3.5-14.2-3.5s-10.3,1.2-14.2,3.5c-4.7,2.7-7.3,6.7-7.3,11.1
							c0,4.3,2.7,8.4,7.3,11.1c3.9,2.2,8.9,3.5,14.2,3.5c4.8,0,9.5-1,13.2-2.9C54.8,36.5,55,36.4,55.1,36.4z M41.5,29.4
							c-3.5,0-6.8-0.8-9.2-2.1l0,0c-1.5-0.8-2-1.6-2.2-1.9s-0.2-0.7,0-1s0.7-1.1,2.2-1.9c2.3-1.3,5.7-2.1,9.2-2.1s6.8,0.8,9.2,2.1
							c1.5,0.9,2,1.6,2.2,1.9s0.2,0.7,0,1s-0.7,1.1-2.2,1.9C48.4,28.7,45,29.4,41.5,29.4z M32.4,24.9c0.2,0.2,0.5,0.4,1,0.7l0,0
							c2,1.2,5,1.9,8.2,1.9s6.1-0.7,8.2-1.9c0.4-0.2,0.7-0.5,1-0.7c-0.2-0.2-0.5-0.4-1-0.7c-2-1.2-5-1.9-8.2-1.9s-6.1,0.7-8.2,1.9
							C32.9,24.5,32.6,24.7,32.4,24.9z"/>
						<path class="st5" d="M51.2,22.7c-0.2,0-0.3,0-0.5-0.1c-2.3-1.3-5.7-2.1-9.2-2.1s-6.8,0.8-9.2,2.1c-0.5,0.3-1.1,0.1-1.4-0.4
							s-0.1-1.1,0.4-1.4c2.6-1.5,6.3-2.4,10.2-2.4c3.8,0,7.5,0.9,10.2,2.4c0.5,0.3,0.6,0.9,0.4,1.4C51.9,22.5,51.5,22.7,51.2,22.7z"
							/>
						<path class="st1" d="M41.5,29.4c-3.5,0-6.8-0.8-9.2-2.1c-1.5-0.8-2-1.6-2.2-1.9s-0.2-0.7,0-1s0.7-1.1,2.2-1.9
							c2.3-1.3,5.7-2.1,9.2-2.1s6.8,0.8,9.2,2.1c1.5,0.9,2,1.6,2.2,1.9s0.2,0.7,0,1s-0.7,1.1-2.2,1.9C48.4,28.7,45,29.4,41.5,29.4z
							 M32.4,24.9c0.2,0.2,0.5,0.4,1,0.7l0,0c2,1.2,5,1.9,8.2,1.9s6.1-0.7,8.2-1.9c0.4-0.2,0.7-0.5,1-0.7c-0.2-0.2-0.5-0.4-1-0.7
							c-2-1.2-5-1.9-8.2-1.9s-6.1,0.7-8.2,1.9C32.9,24.5,32.6,24.7,32.4,24.9z"/>
					</g>
				</g>
				<rect x="4" y="4" class="st7" width="120" height="120"/>
				<rect x="4" y="4" class="st7" width="120" height="120"/>
			</g>
		</g>
	</g>
	<g>
		<rect class="st7" width="128" height="128"/>
	</g>
</g>
</svg>
