<?xml version="1.0" encoding="utf-8"?>
<!-- Generator: Adobe Illustrator 24.1.0, SVG Export Plug-In . SVG Version: 6.00 Build 0)  -->
<svg version="1.1" id="Layer_1" xmlns="http://www.w3.org/2000/svg" xmlns:xlink="http://www.w3.org/1999/xlink" x="0px" y="0px"
	 viewBox="0 0 128 128" style="enable-background:new 0 0 128 128;" xml:space="preserve">
<style type="text/css">
	.st0{fill:#E9EBDF;}
	.st1{fill:#4D9987;}
	.st2{fill:#FFFFFF;}
	.st3{fill:#0E352C;}
	.st4{fill:none;}
</style>
<g id="Layer_1_1_">
</g>
<g>
	<g id="Layer_2_1_">
		<g id="Objects_1_">
			<g>
				<g>
					<g>
						<g>
							<g>
								<path class="st0" d="M31,58.8c-0.3-0.6-0.5-1.2-0.5-1.9V43.6c0-2.1,1.7-3.8,3.8-3.8s3.8,1.7,3.8,3.8v13.3
									c0,2.1-1.7,3.8-3.8,3.8C32.9,60.7,31.7,59.9,31,58.8z"/>
								<path class="st1" d="M34.3,61.7c-1.7,0-3.3-0.9-4.1-2.4c-0.4-0.7-0.6-1.5-0.6-2.4V43.6c0-2.6,2.1-4.8,4.8-4.8l0,0
									c1.3,0,2.5,0.5,3.4,1.4s1.4,2.1,1.4,3.4v13.3C39.1,59.5,37,61.7,34.3,61.7L34.3,61.7z M34.3,40.8L34.3,40.8
									c-1.5,0-2.8,1.2-2.8,2.8v13.3c0,0.5,0.1,1,0.4,1.4l0,0c0.5,0.9,1.4,1.4,2.4,1.4l0,0c1.5,0,2.8-1.2,2.8-2.8V43.6
									c0-0.7-0.3-1.4-0.8-2C35.8,41.1,35.1,40.8,34.3,40.8z"/>
							</g>
							<path class="st2" d="M32.9,57.3c-0.6,0-1-0.4-1-1V46.1c0-0.6,0.4-1,1-1s1,0.4,1,1v10.3C33.9,56.9,33.5,57.3,32.9,57.3z"/>
						</g>
						<g>
							<path class="st0" d="M17.3,57.3c-0.3-0.6-0.5-1.2-0.5-1.9V34.2c0-2.1,1.7-3.8,3.8-3.8s3.8,1.7,3.8,3.8v21.2
								c0,2.1-1.7,3.8-3.8,3.8C19.2,59.2,17.9,58.5,17.3,57.3z"/>
							<path class="st1" d="M20.6,60.2c-1.7,0-3.3-0.9-4.1-2.4l0,0c-0.4-0.7-0.6-1.6-0.6-2.4V34.2c0-2.6,2.1-4.8,4.8-4.8l0,0
								c1.3,0,2.5,0.5,3.4,1.4s1.4,2.1,1.4,3.4v21.2C25.3,58.1,23.2,60.2,20.6,60.2L20.6,60.2z M18.1,56.8c0.5,0.9,1.4,1.4,2.4,1.4
								l0,0c1.5,0,2.8-1.2,2.8-2.8V34.2c0-0.7-0.3-1.4-0.8-2c-0.5-0.5-1.2-0.8-2-0.8l0,0c-1.5,0-2.8,1.2-2.8,2.8v21.2
								C17.8,55.9,17.9,56.4,18.1,56.8L18.1,56.8z"/>
						</g>
						<path class="st2" d="M19.2,55.9c-0.6,0-1-0.4-1-1V36.7c0-0.6,0.4-1,1-1s1,0.4,1,1v18.2C20.2,55.4,19.7,55.9,19.2,55.9z"/>
						<path class="st0" d="M77.3,72.9c-1.1,0-2.1-0.3-3.1-0.8L12.1,36.2c-3-1.7-4-5.5-2.3-8.5s5.5-4,8.5-2.3l62.1,35.9
							c3,1.7,4,5.5,2.3,8.5C81.6,71.8,79.5,72.9,77.3,72.9z"/>
						<path class="st2" d="M77.1,66.3c-0.4,0-0.9-0.1-1.3-0.4L16.3,31.5c-1.3-0.7-1.7-2.3-1-3.6c0.7-1.3,2.3-1.7,3.6-1l59.5,34.4
							c1.3,0.7,1.7,2.3,1,3.6C78.9,65.8,78,66.3,77.1,66.3z"/>
						<path class="st1" d="M79.9,75.4c-1.3,0-2.5-0.3-3.6-1L11.6,37.1c-3.4-2-4.6-6.4-2.6-9.9c1-1.7,2.5-2.9,4.4-3.4
							s3.8-0.2,5.5,0.7L83.5,62c1.7,1,2.9,2.5,3.4,4.4s0.2,3.8-0.7,5.5C84.9,74,82.5,75.4,79.9,75.4z M15.2,25.6
							c-0.5,0-0.9,0.1-1.4,0.2c-1.3,0.4-2.5,1.2-3.2,2.4c-1.4,2.5-0.6,5.7,1.9,7.1l64.7,37.4c0.8,0.5,1.7,0.7,2.6,0.7
							c1.9,0,3.6-1,4.5-2.6c0.7-1.2,0.9-2.6,0.5-4c-0.4-1.3-1.2-2.5-2.4-3.2L17.8,26.3C17,25.9,16.1,25.6,15.2,25.6z"/>
					</g>
					<g>
						<g>
							<g>
								<path class="st0" d="M31,58.8c-0.3-0.6-0.5-1.2-0.5-1.9V43.6c0-2.1,1.7-3.8,3.8-3.8s3.8,1.7,3.8,3.8v13.3
									c0,2.1-1.7,3.8-3.8,3.8C32.9,60.7,31.7,59.9,31,58.8z"/>
								<path class="st1" d="M34.3,61.7c-1.7,0-3.3-0.9-4.1-2.4c-0.4-0.7-0.6-1.5-0.6-2.4V43.6c0-2.6,2.1-4.8,4.8-4.8l0,0
									c1.3,0,2.5,0.5,3.4,1.4s1.4,2.1,1.4,3.4v13.3C39.1,59.5,37,61.7,34.3,61.7L34.3,61.7z M34.3,40.8L34.3,40.8
									c-1.5,0-2.8,1.2-2.8,2.8v13.3c0,0.5,0.1,1,0.4,1.4l0,0c0.5,0.9,1.4,1.4,2.4,1.4l0,0c1.5,0,2.8-1.2,2.8-2.8V43.6
									c0-0.7-0.3-1.4-0.8-2C35.8,41.1,35.1,40.8,34.3,40.8z"/>
							</g>
							<path class="st2" d="M32.5,57.3c-0.6,0-1-0.4-1-1V46.1c0-0.6,0.4-1,1-1c0.6,0,1,0.4,1,1v10.3C33.5,56.9,33.1,57.3,32.5,57.3z
								"/>
						</g>
						<g>
							<path class="st0" d="M17.3,57.3c-0.3-0.6-0.5-1.2-0.5-1.9V34.2c0-2.1,1.7-3.8,3.8-3.8s3.8,1.7,3.8,3.8v21.2
								c0,2.1-1.7,3.8-3.8,3.8C19.2,59.2,17.9,58.5,17.3,57.3z"/>
							<path class="st1" d="M20.6,60.2c-1.7,0-3.3-0.9-4.1-2.4l0,0c-0.4-0.7-0.6-1.6-0.6-2.4V34.2c0-2.6,2.1-4.8,4.8-4.8l0,0
								c1.3,0,2.5,0.5,3.4,1.4s1.4,2.1,1.4,3.4v21.2C25.3,58.1,23.2,60.2,20.6,60.2L20.6,60.2z M18.1,56.8c0.5,0.9,1.4,1.4,2.4,1.4
								l0,0c1.5,0,2.8-1.2,2.8-2.8V34.2c0-0.7-0.3-1.4-0.8-2c-0.5-0.5-1.2-0.8-2-0.8l0,0c-1.5,0-2.8,1.2-2.8,2.8v21.2
								C17.8,55.9,17.9,56.4,18.1,56.8L18.1,56.8z"/>
						</g>
						<path class="st2" d="M18.8,55.9c-0.6,0-1-0.4-1-1V36.7c0-0.6,0.4-1,1-1s1,0.4,1,1v18.2C19.8,55.4,19.3,55.9,18.8,55.9z"/>
						<path class="st0" d="M77.3,72.9c-1.1,0-2.1-0.3-3.1-0.8L12.1,36.2c-3-1.7-4-5.5-2.3-8.5s5.5-4,8.5-2.3l62.1,35.9
							c3,1.7,4,5.5,2.3,8.5C81.6,71.8,79.5,72.9,77.3,72.9z"/>
						<path class="st2" d="M77.1,66.3c-0.4,0-0.9-0.1-1.3-0.4L16.3,31.5c-1.3-0.7-1.7-2.3-1-3.6c0.7-1.3,2.3-1.7,3.6-1l59.5,34.4
							c1.3,0.7,1.7,2.3,1,3.6C78.9,65.8,78,66.3,77.1,66.3z"/>
						<path class="st1" d="M79.9,75.4c-1.3,0-2.5-0.3-3.6-1L11.6,37.1c-3.4-2-4.6-6.4-2.6-9.9c1-1.7,2.5-2.9,4.4-3.4
							s3.8-0.2,5.5,0.7L83.5,62c1.7,1,2.9,2.5,3.4,4.4s0.2,3.8-0.7,5.5C84.9,74,82.5,75.4,79.9,75.4z M15.2,25.6
							c-0.5,0-0.9,0.1-1.4,0.2c-1.3,0.4-2.5,1.2-3.2,2.4c-1.4,2.5-0.6,5.7,1.9,7.1l64.7,37.4c0.8,0.5,1.7,0.7,2.6,0.7
							c1.9,0,3.6-1,4.5-2.6c0.7-1.2,0.9-2.6,0.5-4c-0.4-1.3-1.2-2.5-2.4-3.2L17.8,26.3C17,25.9,16.1,25.6,15.2,25.6z"/>
					</g>
					<g>
						<path class="st2" d="M119,79.5c0-15.2-9.2-32.9-20.6-39.5c-5.2-3-9.9-3.2-13.5-1.1l0,0l-10,5.8l1.9,2.9
							c-1,2.6-1.5,5.8-1.5,9.4c0,15.2,9.2,32.9,20.6,39.5c1.7,1,3.3,1.6,4.9,2l1.1,3.4l10-5.8l0,0C116.2,93.7,119,87.8,119,79.5z"/>
						<path class="st0" d="M119,79.5c0-11-4.9-23.3-11.9-31.8c2.6,3.2,5,6.9,6.8,10.9L95.9,69c1.5,3.2,2.4,6.7,2.4,10
							c0,7.3-4.4,10.6-9.9,7.5c-3-1.7-5.7-5-7.5-8.9L80.3,78c3.8,8,9.4,14.9,15.6,18.5c1.7,1,3.3,1.6,4.9,2l1.1,3.4l10-5.8l0,0
							C116.2,93.7,119,87.8,119,79.5z"/>
						<g>
							<path class="st0" d="M88.4,45.8C77,39.2,67.7,46.2,67.7,61.4s9.2,32.9,20.6,39.5s20.6-0.4,20.6-15.6
								C109,70.1,99.8,52.4,88.4,45.8z"/>
							<path class="st1" d="M96.6,104.4c-2.7,0-5.7-0.9-8.7-2.6C76.2,95,66.7,76.9,66.7,61.4c0-8.4,2.8-14.8,7.6-17.6
								c4.1-2.4,9.2-2,14.5,1.1l0,0c11.7,6.7,21.1,24.8,21.1,40.3c0,8.4-2.8,14.8-7.6,17.6C100.6,103.9,98.7,104.4,96.6,104.4z
								 M80.2,44.4c-1.7,0-3.4,0.4-4.8,1.2c-4.2,2.4-6.6,8.2-6.6,15.8c0,14.9,9,32.2,20.1,38.6c4.6,2.7,9.1,3.1,12.5,1.1
								c4.2-2.4,6.6-8.2,6.6-15.8c0-14.9-9-32.2-20.1-38.6l0,0C85.2,45.1,82.6,44.4,80.2,44.4z"/>
						</g>
						<path class="st1" d="M88.4,85.3c-4.9-2.9-8.9-10.5-8.9-17.1s4-9.6,8.9-6.8c4.9,2.9,8.9,10.5,8.9,17.1
							C97.3,85.1,93.3,88.1,88.4,85.3z"/>
					</g>
					<path class="st3" d="M96.6,104.4c-2.7,0-5.7-0.9-8.7-2.6C78.3,96.2,70,83,67.5,69.4L39.1,53v3.9c0,2.6-2.1,4.8-4.8,4.8
						c-1.7,0-3.3-0.9-4.1-2.4c-0.4-0.7-0.6-1.5-0.6-2.4v-9.4L25.3,45v10.4c0,2.6-2.1,4.8-4.8,4.8l0,0c-1.7,0-3.3-0.9-4.1-2.4
						c-0.4-0.7-0.6-1.6-0.6-2.4V39.5l-4.2-2.4c-3.4-2-4.6-6.4-2.6-9.9c1-1.7,2.5-2.9,4.4-3.4s3.8-0.2,5.5,0.7l49,28.3
						c1.2-4.1,3.4-7.2,6.4-9l0.1-0.1l10-5.8c0,0,0.1,0,0.1-0.1c4.1-2.3,9.2-1.9,14.4,1.2c3.2,1.8,6.2,4.5,9,7.9l0,0
						c0.4,0.5,0.9,1.1,1.3,1.6c0.4,0.6,0.8,1.1,1.2,1.7l0.1,0.1c0.8,1.1,1.5,2.3,2.2,3.5l0.1,0.2c0.7,1.2,1.3,2.5,1.9,3.7l0.1,0.1
						l0,0l0.1,0.1c0.6,1.3,1.1,2.5,1.6,3.8l0.1,0.4c0.2,0.6,0.4,1.2,0.6,1.8l0.1,0.2c0.2,0.6,0.4,1.3,0.6,1.9l0.1,0.4
						c0.2,0.6,0.3,1.1,0.4,1.7l0.1,0.4c0.2,0.6,0.3,1.3,0.4,1.9l0.1,0.4c0.1,0.5,0.2,1.1,0.3,1.6l0.1,0.5c0.1,0.6,0.2,1.3,0.2,1.9
						v0.3c0.1,0.6,0.1,1.1,0.1,1.7v0.5c0,0.6,0.1,1.3,0.1,1.9c0,2.9-0.3,5.7-1,8.1c-0.1,0.3-0.2,0.6-0.3,0.9c-0.4,1.1-0.8,2.1-1.2,3
						c-0.3,0.5-0.6,1-0.9,1.5l0,0c-1.1,1.7-2.5,3.1-4.1,4l-0.1,0.1l-10,5.8c0,0-0.1,0-0.1,0.1C100.5,103.9,98.6,104.4,96.6,104.4z
						 M38.1,50.2c0.2,0,0.3,0,0.5,0.1l30.3,17.5c0.3,0.1,0.4,0.4,0.5,0.7c2.3,13.2,10.3,26.2,19.5,31.5c4.6,2.7,9.1,3.1,12.5,1.1
						c0,0,0.1,0,0.1-0.1l9.7-5.6l0.1-0.1c1.4-0.8,2.6-1.9,3.6-3.4l0,0c0.3-0.5,0.6-0.9,0.8-1.3c0.4-0.8,0.8-1.7,1.1-2.7
						c0.1-0.3,0.2-0.5,0.2-0.8c0.6-2.3,1-4.8,1-7.6c0-0.6,0-1.2,0-1.8v-0.5c0-0.5-0.1-1.1-0.1-1.6v-0.2c-0.1-0.6-0.1-1.2-0.2-1.8
						l-0.1-0.4c-0.1-0.5-0.2-1.1-0.3-1.6l-0.1-0.3c-0.1-0.6-0.3-1.2-0.4-1.9l-0.1-0.4c-0.1-0.5-0.3-1.1-0.4-1.6l-0.1-0.4
						c-0.2-0.6-0.4-1.3-0.6-1.9l-0.1-0.2c-0.2-0.6-0.4-1.1-0.6-1.7l-0.1-0.3c-0.5-1.2-1-2.5-1.6-3.7l-0.1-0.3
						c-0.6-1.2-1.2-2.4-1.9-3.6l-0.1-0.2c-0.7-1.2-1.4-2.3-2.2-3.4l0.8-0.7l-0.8,0.6c-0.4-0.5-0.8-1.1-1.1-1.6
						c-0.4-0.6-0.9-1.1-1.3-1.6l0,0l0,0c-2.7-3.2-5.5-5.7-8.5-7.4c-4.6-2.7-9.1-3.1-12.5-1.1c0,0-0.1,0-0.1,0.1l-9.7,5.6l-0.1,0.1
						c-2.8,1.6-4.9,4.8-5.9,9c-0.1,0.3-0.3,0.6-0.6,0.7c-0.3,0.1-0.6,0.1-0.9-0.1L18,26.3c-1.2-0.7-2.6-0.9-4-0.5
						c-1.3,0.4-2.5,1.2-3.2,2.4c-1.4,2.5-0.6,5.7,1.9,7.1l4.7,2.7c0.3,0.2,0.5,0.5,0.5,0.9v16.5c0,0.5,0.1,1,0.4,1.4
						c0.5,0.9,1.4,1.4,2.4,1.4l0,0c1.5,0,2.8-1.2,2.8-2.8V43.3c0-0.4,0.2-0.7,0.5-0.9s0.7-0.2,1,0l6,3.6c0.3,0.2,0.5,0.5,0.5,0.9v10
						c0,0.5,0.1,1,0.4,1.4c0.5,0.9,1.4,1.4,2.4,1.4c1.5,0,2.8-1.2,2.8-2.8v-5.7c0-0.4,0.2-0.7,0.5-0.9
						C37.8,50.3,37.9,50.2,38.1,50.2z"/>
				</g>
				<rect x="4" y="4" class="st4" width="120" height="120"/>
				<rect x="4" y="4" class="st4" width="120" height="120"/>
			</g>
		</g>
	</g>
	<g>
		<rect class="st4" width="128" height="128"/>
	</g>
</g>
</svg>
