<?xml version="1.0" encoding="utf-8"?>
<!-- Generator: Adobe Illustrator 24.1.0, SVG Export Plug-In . SVG Version: 6.00 Build 0)  -->
<svg version="1.1" id="Layer_1" xmlns="http://www.w3.org/2000/svg" xmlns:xlink="http://www.w3.org/1999/xlink" x="0px" y="0px"
	 viewBox="0 0 128 128" style="enable-background:new 0 0 128 128;" xml:space="preserve">
<style type="text/css">
	.st0{fill:#E9EBDF;}
	.st1{fill:#4D9987;}
	.st2{fill:#0E352C;}
	.st3{fill:#FFFFFF;}
	.st4{fill:none;}
</style>
<g id="Layer_1_1_">
</g>
<g>
	<g id="Layer_2_1_">
		<g id="Objects_1_">
			<g>
				<g>
					<g>
						<path class="st0" d="M80.2,91.6H47.8v15.7c0,0.8,0.2,1.5,0.5,2.3l0,0l3,7.1l0,0c1.4,3.3,6.6,5.7,12.7,5.7s11.3-2.4,12.7-5.7
							l0,0l3-7.1l0,0c0.3-0.7,0.5-1.5,0.5-2.3V91.6z"/>
						<path class="st1" d="M64,122.4c6.1,0,11.3-2.4,12.7-5.7l0,0l3-7.1l0,0c0.3-0.7,0.5-1.5,0.5-2.3V91.6H64V122.4z"/>
						<path class="st2" d="M64,116.2c-9.7,0-17.2-4.6-17.2-10.4c0-0.6,0.4-1,1-1s1,0.4,1,1c0,4.5,7,8.4,15.2,8.4s15.2-3.8,15.2-8.4
							c0-0.6,0.4-1,1-1s1,0.4,1,1C81.2,111.6,73.7,116.2,64,116.2z"/>
						<path class="st2" d="M64,110.1c-9.7,0-17.2-4.6-17.2-10.4c0-0.6,0.4-1,1-1s1,0.4,1,1c0,4.5,7,8.4,15.2,8.4s15.2-3.8,15.2-8.4
							c0-0.6,0.4-1,1-1s1,0.4,1,1C81.2,105.5,73.7,110.1,64,110.1z"/>
						<path class="st2" d="M64,123.4c-6.3,0-11.8-2.5-13.5-6.2c0-0.1-0.1-0.1-0.1-0.2l-3-7.1c0-0.1,0-0.1-0.1-0.2
							c-0.3-0.8-0.5-1.7-0.5-2.5V91.6c0-0.6,0.4-1,1-1h32.5c0.6,0,1,0.4,1,1v15.7c0,0.8-0.2,1.6-0.5,2.5c0,0.1,0,0.1-0.1,0.2l-3,7.1
							c0,0.1-0.1,0.1-0.1,0.2C75.8,120.9,70.3,123.4,64,123.4z M52.1,116.1L52.1,116.1c1.4,3.1,6.3,5.2,11.9,5.2s10.5-2.2,11.8-5.1
							c0-0.1,0.1-0.1,0.1-0.2l2.9-6.7c0-0.1,0-0.1,0.1-0.2c0.3-0.6,0.4-1.3,0.4-1.9V92.6H48.8v14.7c0,0.6,0.1,1.2,0.4,1.9
							c0,0.1,0,0.1,0.1,0.2L52.1,116.1z"/>
						<path class="st3" d="M102.9,44.5C102.9,22,83.9,4,61,5.7C41.6,7.2,26.1,23,25.1,42.4c-0.7,14,5.9,26.4,16.4,33.8
							c4,2.8,6.3,7.5,6.3,12.4v2.8l0,0v0.1c0,5.2,7.3,9.4,16.2,9.4s16.2-4.2,16.2-9.4v-0.1l0,0v-2.9c0-4.9,2.3-9.5,6.3-12.3
							C96.5,69.2,102.9,57.6,102.9,44.5z"/>
						<path class="st2" d="M64,102c-9.7,0-17.2-4.6-17.2-10.4c0,0,0,0,0-0.1c0,0,0,0,0-0.1v-2.8c0-4.7-2.2-9-5.8-11.6
							c-11.2-8-17.5-20.9-16.8-34.7c1-20,16.9-36.2,36.8-37.7c11.3-0.8,22,2.9,30.2,10.5c8.1,7.5,12.8,18.2,12.8,29.3
							c0,12.9-6.3,25-16.8,32.5c-3.7,2.6-5.9,6.9-5.9,11.5v2.9c0,0,0,0,0,0.1c0,0,0,0,0,0.1C81.2,97.4,73.7,102,64,102z M48.8,91.3
							c0,0.1,0,0.1,0,0.2c0,0,0,0.1,0,0.2c0,4.5,7,8.3,15.2,8.3s15.2-3.8,15.2-8.4v-0.1c0-0.1,0-0.1,0-0.2v-2.7
							c0-5.2,2.5-10.1,6.7-13.2c10-7.1,16-18.7,16-30.9c0-10.5-4.4-20.6-12.1-27.8c-7.8-7.3-18-10.8-28.7-10
							c-18.9,1.4-34,16.8-35,35.8c-0.7,13.1,5.3,25.4,16,33c4.2,3,6.7,7.9,6.7,13.2C48.8,88.7,48.8,91.3,48.8,91.3z"/>
						<path class="st3" d="M64,97.9c7.5,0,13.1-3.3,13.2-6.2c0-0.1,0-0.1,0-0.1c0-0.1,0-0.2,0-0.4v-2.5c0-6,2.8-11.5,7.5-14.9
							c10.1-7.2,15.7-18.8,15.1-31.2c-0.9-18-15.2-32.5-33.1-33.9c-0.9-0.1-1.8-0.1-2.8-0.1C44.1,8.6,28,24.7,28,44.5
							c0,11.6,5.6,22.5,15.1,29.2c4.8,3.4,7.6,8.9,7.6,14.8v2.6c0,0.1,0,0.2,0,0.3c0,0.1,0,0.1,0,0.2C50.9,94.7,56.5,97.9,64,97.9z"
							/>
						<path class="st0" d="M64,27.4v49c0,3.5-2.3,6.5-5.7,7.7c-3.3,1.1-5.6,3.2-5.6,5.6c0,3.6,5,6.5,11.2,6.5s11.2-2.9,11.2-6.5l0,0
							l0,0v-1.1c0-6.5,3.1-12.7,8.4-16.4c8.9-6.4,14.3-16.7,14.3-27.6c0-11.2-5.4-21.1-13.8-27.3C75.8,11.1,64,17,64,27.4z"/>
					</g>
					
						<ellipse transform="matrix(0.7071 -0.7071 0.7071 0.7071 -5.1899 39.3242)" class="st0" cx="44.9" cy="25.9" rx="7.3" ry="4.2"/>
				</g>
				<rect x="4" y="4" class="st4" width="120" height="120"/>
				<rect x="4" y="4" class="st4" width="120" height="120"/>
			</g>
		</g>
	</g>
	<g>
		<rect class="st4" width="128" height="128"/>
	</g>
</g>
</svg>
