<?xml version="1.0" encoding="utf-8"?>
<!-- Generator: Adobe Illustrator 24.1.0, SVG Export Plug-In . SVG Version: 6.00 Build 0)  -->
<svg version="1.1" id="Layer_1" xmlns="http://www.w3.org/2000/svg" xmlns:xlink="http://www.w3.org/1999/xlink" x="0px" y="0px"
	 viewBox="0 0 128 128" style="enable-background:new 0 0 128 128;" xml:space="preserve">
<style type="text/css">
	.st0{fill:#0E352C;}
	.st1{fill:#27ae60;}
	.st2{fill:#FFFFFF;}
	.st3{fill:#4D9987;}
	.st4{fill:#E9EBDF;}
	.st5{fill:none;}
</style>
<g id="Layer_1_1_">
</g>
<g>
	<g id="Layer_2_1_">
		<g id="Tech_Concepts_1_">
			<g>
				<g>
					<g>
						<path class="st0" d="M85.3,52.3c-0.3,0-0.5-0.1-0.7-0.3c-0.1-0.1-0.2-0.2-0.2-0.3s-0.1-0.2-0.1-0.4c0-0.1,0-0.3,0.1-0.4
							c0.1-0.1,0.1-0.2,0.2-0.3s0.2-0.2,0.3-0.2c0.2-0.1,0.5-0.1,0.8,0c0.1,0.1,0.2,0.1,0.3,0.2c0.1,0.1,0.2,0.2,0.2,0.3
							c0.1,0.1,0.1,0.2,0.1,0.4c0,0.1,0,0.3-0.1,0.4c0,0.1-0.1,0.2-0.2,0.3C85.8,52.2,85.6,52.3,85.3,52.3z"/>
						<path class="st0" d="M89.3,48.9c-0.3-0.5-0.1-1.1,0.3-1.4l0,0c0.5-0.3,1.1-0.1,1.4,0.3l0,0c0.3,0.5,0.1,1.1-0.4,1.4l0,0
							c-0.2,0.1-0.3,0.1-0.5,0.1l0,0C89.8,49.4,89.5,49.3,89.3,48.9z M94.1,46.1c-0.3-0.5-0.1-1.1,0.4-1.4l0,0
							c0.5-0.3,1.1-0.1,1.4,0.3l0,0c0.3,0.5,0.1,1.1-0.3,1.4l0,0c-0.2,0.1-0.3,0.1-0.5,0.1l0,0C94.7,46.6,94.3,46.4,94.1,46.1z"/>
						<path class="st0" d="M99.8,43.7c-0.1,0-0.3,0-0.4-0.1c-0.1,0-0.2-0.1-0.3-0.2c-0.1-0.1-0.2-0.2-0.2-0.3
							c-0.1-0.1-0.1-0.2-0.1-0.4c0-0.1,0-0.1,0-0.2c0-0.1,0-0.1,0.1-0.2c0-0.1,0-0.1,0.1-0.2c0-0.1,0.1-0.1,0.1-0.1
							c0.1-0.1,0.2-0.2,0.3-0.2c0.2-0.1,0.5-0.1,0.8,0c0.1,0.1,0.2,0.1,0.3,0.2l0.1,0.1c0,0,0.1,0.1,0.1,0.2c0,0.1,0.1,0.1,0.1,0.2
							c0,0.1,0,0.1,0,0.2c0,0.1,0,0.3-0.1,0.4c0,0.1-0.1,0.2-0.2,0.3s-0.2,0.2-0.3,0.2S100,43.7,99.8,43.7z"/>
					</g>
					<g>
						<path class="st0" d="M28.2,86.3c-0.1,0-0.3,0-0.4-0.1c-0.1,0-0.2-0.1-0.3-0.2c-0.1-0.1-0.2-0.2-0.2-0.3
							c-0.1-0.1-0.1-0.2-0.1-0.4c0-0.3,0.1-0.5,0.3-0.7c0.1,0,0.1-0.1,0.1-0.1c0.1,0,0.1-0.1,0.2-0.1s0.1,0,0.2,0
							c0.3-0.1,0.7,0,0.9,0.3c0.2,0.2,0.3,0.5,0.3,0.7c0,0.1,0,0.3-0.1,0.4c0,0.1-0.1,0.2-0.2,0.3c-0.1,0.1-0.2,0.2-0.3,0.2
							C28.4,86.3,28.3,86.3,28.2,86.3z"/>
						<path class="st0" d="M32.1,82.9c-0.3-0.5-0.1-1.1,0.3-1.4l0,0c0.5-0.3,1.1-0.1,1.4,0.3l0,0c0.3,0.5,0.1,1.1-0.3,1.4l0,0
							c-0.2,0.1-0.3,0.1-0.5,0.1l0,0C32.6,83.4,32.3,83.3,32.1,82.9z M37,80.1c-0.3-0.5-0.1-1.1,0.4-1.4l0,0
							c0.5-0.3,1.1-0.1,1.4,0.3l0,0c0.3,0.5,0.1,1.1-0.4,1.4l0,0c-0.2,0.1-0.3,0.1-0.5,0.1l0,0C37.5,80.6,37.2,80.4,37,80.1z"/>
						<path class="st0" d="M42.7,77.7c-0.3,0-0.5-0.1-0.7-0.3c-0.1-0.1-0.2-0.2-0.2-0.3c0-0.1-0.1-0.2-0.1-0.4
							c0-0.3,0.1-0.5,0.3-0.7l0.1-0.1c0,0,0.1-0.1,0.2-0.1c0.1,0,0.1,0,0.2-0.1c0.1,0,0.3,0,0.4,0c0.1,0,0.1,0,0.2,0.1
							c0.1,0,0.1,0.1,0.2,0.1c0.1,0,0.1,0.1,0.1,0.1c0.2,0.2,0.3,0.4,0.3,0.7c0,0.1,0,0.3-0.1,0.4c0,0.1-0.1,0.2-0.2,0.3
							C43.2,77.6,42.9,77.7,42.7,77.7z"/>
					</g>
					<g>
						<path class="st0" d="M42.7,52.3c-0.3,0-0.5-0.1-0.7-0.3c-0.1-0.1-0.2-0.2-0.2-0.3s-0.1-0.2-0.1-0.4c0-0.1,0-0.3,0.1-0.4
							c0.1-0.1,0.1-0.2,0.2-0.3c0.1-0.1,0.2-0.2,0.3-0.2c0.2-0.1,0.5-0.1,0.8,0c0.1,0.1,0.2,0.1,0.3,0.2c0.1,0.1,0.2,0.2,0.2,0.3
							s0.1,0.2,0.1,0.4c0,0.1,0,0.3-0.1,0.4s-0.1,0.2-0.2,0.3C43.2,52.2,42.9,52.3,42.7,52.3z"/>
						<path class="st0" d="M37.3,49.3c-0.5-0.3-0.6-0.9-0.4-1.4l0,0c0.3-0.5,0.9-0.6,1.4-0.3l0,0c0.5,0.3,0.6,0.9,0.4,1.4l0,0
							c-0.2,0.3-0.5,0.5-0.9,0.5l0,0C37.7,49.4,37.5,49.4,37.3,49.3z M32.5,46.4c-0.5-0.3-0.6-0.9-0.4-1.4l0,0
							c0.3-0.5,0.9-0.6,1.4-0.3l0,0c0.5,0.3,0.6,0.9,0.4,1.4l0,0c-0.2,0.3-0.5,0.5-0.9,0.5l0,0C32.8,46.6,32.6,46.5,32.5,46.4z"/>
						<path class="st0" d="M28.2,43.7c-0.1,0-0.3,0-0.4-0.1c-0.1,0-0.2-0.1-0.3-0.2c-0.1-0.1-0.2-0.2-0.2-0.3
							c-0.1-0.1-0.1-0.2-0.1-0.4c0-0.1,0-0.1,0-0.2c0-0.1,0-0.1,0.1-0.2c0-0.1,0.1-0.1,0.1-0.2c0-0.1,0.1-0.1,0.1-0.1
							c0.1-0.1,0.1-0.1,0.1-0.1c0.1,0,0.1-0.1,0.2-0.1s0.1,0,0.2-0.1c0.1,0,0.3,0,0.4,0s0.1,0,0.2,0.1c0.1,0,0.1,0.1,0.2,0.1
							S28.9,42,29,42l0.1,0.1c0,0,0.1,0.1,0.1,0.2c0,0.1,0.1,0.1,0.1,0.2c0,0.1,0,0.1,0,0.2c0,0.1,0,0.3-0.1,0.4
							c0,0.1-0.1,0.2-0.2,0.3s-0.2,0.2-0.3,0.2C28.4,43.7,28.3,43.7,28.2,43.7z"/>
					</g>
					<g>
						<path class="st0" d="M99.8,86.3c-0.3,0-0.5-0.1-0.7-0.3c-0.1-0.1-0.2-0.2-0.2-0.3c-0.1-0.1-0.1-0.2-0.1-0.4s0-0.3,0.1-0.4
							c0-0.1,0.1-0.2,0.2-0.3c0.4-0.4,1-0.4,1.4,0c0.2,0.2,0.3,0.5,0.3,0.7c0,0.1,0,0.3-0.1,0.4s-0.1,0.2-0.2,0.3
							C100.4,86.2,100.1,86.3,99.8,86.3z"/>
						<path class="st0" d="M94.5,83.3c-0.5-0.3-0.6-0.9-0.3-1.4l0,0c0.3-0.5,0.9-0.6,1.4-0.3l0,0c0.5,0.3,0.6,0.9,0.3,1.4l0,0
							c-0.2,0.3-0.5,0.5-0.9,0.5l0,0C94.8,83.4,94.6,83.4,94.5,83.3z M89.7,80.4c-0.5-0.3-0.6-0.9-0.3-1.4l0,0
							c0.3-0.5,0.9-0.6,1.4-0.3l0,0c0.5,0.3,0.6,0.9,0.4,1.4l0,0c-0.2,0.3-0.5,0.5-0.9,0.5l0,0C90,80.6,89.8,80.5,89.7,80.4z"/>
						<path class="st0" d="M85.3,77.7c-0.3,0-0.5-0.1-0.7-0.3c-0.2-0.2-0.3-0.4-0.3-0.7c0-0.1,0-0.3,0.1-0.4s0.1-0.2,0.2-0.3
							c0.1-0.1,0.2-0.2,0.3-0.2c0.4-0.1,0.8-0.1,1.1,0.2c0.2,0.2,0.3,0.4,0.3,0.7c0,0.1,0,0.3-0.1,0.4c0,0.1-0.1,0.2-0.2,0.3
							c-0.1,0.1-0.2,0.2-0.3,0.2C85.6,77.7,85.5,77.7,85.3,77.7z"/>
					</g>
					<g>
						<path class="st0" d="M64,23c-0.1,0-0.3,0-0.4-0.1c-0.1-0.1-0.2-0.1-0.3-0.2s-0.2-0.2-0.2-0.3c0-0.1-0.1-0.2-0.1-0.4
							c0-0.1,0-0.1,0-0.2s0-0.1,0.1-0.2c0-0.1,0.1-0.1,0.1-0.2s0.1-0.1,0.1-0.2c0.3-0.3,0.7-0.4,1.1-0.2c0.1,0,0.2,0.1,0.3,0.2
							c0,0,0.1,0.1,0.1,0.2c0,0,0.1,0.1,0.1,0.2s0,0.1,0.1,0.2c0,0.1,0,0.1,0,0.2s0,0.3-0.1,0.4s-0.1,0.2-0.2,0.3
							C64.5,22.9,64.3,23,64,23z"/>
						<path class="st0" d="M63,33.3c0-0.5,0.4-1,1-1l0,0c0.5,0,1,0.5,1,1l0,0c0,0.5-0.5,1-1,1l0,0C63.4,34.3,63,33.9,63,33.3z
							 M63,27.7c0-0.6,0.4-1,1-1l0,0c0.5,0,1,0.4,1,1l0,0c0,0.5-0.5,1-1,1l0,0C63.4,28.7,63,28.2,63,27.7z"/>
						<path class="st0" d="M64,40c-0.3,0-0.5-0.1-0.7-0.3c-0.1-0.1-0.2-0.2-0.2-0.3S63,39.2,63,39c0-0.1,0-0.1,0-0.2
							c0-0.1,0-0.1,0.1-0.2c0-0.1,0.1-0.1,0.1-0.2l0.1-0.1l0.1-0.1c0.1,0,0.1-0.1,0.2-0.1c0.1,0,0.1,0,0.2-0.1c0.1,0,0.3,0,0.4,0
							s0.1,0,0.2,0.1c0.1,0,0.1,0,0.2,0.1l0.1,0.1l0.1,0.1c0,0.1,0.1,0.1,0.1,0.2c0,0.1,0,0.1,0.1,0.2c0,0.1,0,0.1,0,0.2
							c0,0.1,0,0.3-0.1,0.4c-0.1,0.1-0.1,0.2-0.2,0.3s-0.2,0.2-0.3,0.2C64.3,40,64.1,40,64,40z"/>
					</g>
					<g>
						<path class="st0" d="M64,90c-0.1,0-0.3,0-0.4-0.1c-0.1,0-0.2-0.1-0.3-0.2s-0.2-0.2-0.2-0.3c0-0.1-0.1-0.2-0.1-0.4
							c0-0.3,0.1-0.5,0.3-0.7c0.4-0.4,1-0.4,1.4,0c0.1,0.1,0.2,0.2,0.2,0.3c0,0.1,0.1,0.2,0.1,0.4s0,0.3-0.1,0.4s-0.1,0.2-0.2,0.3
							c-0.1,0.1-0.2,0.2-0.3,0.2C64.3,90,64.1,90,64,90z"/>
						<path class="st0" d="M63,100.3c0-0.5,0.4-1,1-1l0,0c0.5,0,1,0.5,1,1l0,0c0,0.6-0.5,1-1,1l0,0C63.4,101.3,63,100.9,63,100.3z
							 M63,94.7c0-0.5,0.4-1,1-1l0,0c0.5,0,1,0.5,1,1l0,0c0,0.5-0.5,1-1,1l0,0C63.4,95.7,63,95.2,63,94.7z"/>
						<path class="st0" d="M64,107c-0.3,0-0.5-0.1-0.7-0.3c-0.1-0.1-0.2-0.2-0.2-0.3c0-0.1-0.1-0.2-0.1-0.4s0-0.3,0.1-0.4
							s0.1-0.2,0.2-0.3c0.4-0.4,1-0.4,1.4,0c0.2,0.2,0.3,0.5,0.3,0.7c0,0.1,0,0.3-0.1,0.4s-0.1,0.2-0.2,0.3
							C64.5,106.9,64.3,107,64,107z"/>
					</g>
					<g>
						<path class="st1" d="M13.6,35.1c-0.3,0-0.5-0.1-0.7-0.3c-0.1-0.1-0.2-0.2-0.2-0.3c-0.1-0.1-0.1-0.2-0.1-0.4c0-0.1,0-0.1,0-0.2
							c0-0.1,0-0.1,0.1-0.2c0-0.1,0-0.1,0.1-0.2l0.1-0.1c0.3-0.3,0.7-0.4,1.1-0.2c0.1,0.1,0.2,0.1,0.3,0.2l0.1,0.1
							c0,0.1,0.1,0.1,0.1,0.2c0,0.1,0,0.1,0.1,0.2c0,0.1,0,0.1,0,0.2c0,0.1,0,0.3-0.1,0.4c0,0.1-0.1,0.2-0.2,0.3
							C14.2,34.9,14.1,35,14,35C13.9,35,13.8,35.1,13.6,35.1z"/>
						<path class="st1" d="M23,40.6c-0.5-0.3-0.6-0.9-0.4-1.4l0,0c0.3-0.5,0.9-0.6,1.4-0.4l0,0c0.5,0.3,0.6,0.9,0.4,1.4l0,0
							c-0.2,0.3-0.5,0.5-0.9,0.5l0,0C23.3,40.7,23.1,40.7,23,40.6z M18.1,37.8c-0.5-0.3-0.6-0.9-0.4-1.4l0,0
							c0.3-0.5,0.9-0.6,1.4-0.4l0,0c0.5,0.3,0.6,0.9,0.4,1.4l0,0c-0.2,0.3-0.5,0.5-0.9,0.5l0,0C18.4,37.9,18.2,37.9,18.1,37.8z"/>
						<path class="st1" d="M28.4,43.6c-0.1,0-0.3,0-0.4-0.1s-0.2-0.1-0.3-0.2c-0.1-0.1-0.2-0.2-0.2-0.3s-0.1-0.2-0.1-0.4
							c0-0.1,0-0.1,0-0.2c0-0.1,0-0.1,0-0.2c0-0.1,0.1-0.1,0.1-0.2l0.1-0.1c0.1-0.1,0.2-0.2,0.3-0.2c0.2-0.1,0.5-0.1,0.8,0
							c0.1,0.1,0.2,0.1,0.3,0.2c0.1,0,0.1,0.1,0.1,0.1c0,0.1,0.1,0.1,0.1,0.2c0,0.1,0,0.1,0.1,0.2c0,0.1,0,0.1,0,0.2
							c0,0.1,0,0.3-0.1,0.4s-0.1,0.2-0.2,0.3C28.9,43.5,28.6,43.6,28.4,43.6z"/>
					</g>
					<g>
						<path class="st1" d="M99.6,86.4c-0.3,0-0.5-0.1-0.7-0.3c-0.2-0.2-0.3-0.4-0.3-0.7c0-0.1,0-0.3,0.1-0.4s0.1-0.2,0.2-0.3
							c0.2-0.2,0.6-0.3,0.9-0.3c0.1,0,0.1,0,0.2,0.1c0.1,0,0.1,0,0.2,0.1c0.1,0,0.1,0.1,0.1,0.1c0.2,0.2,0.3,0.5,0.3,0.7
							c0,0.1,0,0.3-0.1,0.4c0,0.1-0.1,0.2-0.2,0.3C100.1,86.3,99.9,86.4,99.6,86.4z"/>
						<path class="st1" d="M108.9,92c-0.5-0.3-0.6-0.9-0.4-1.4l0,0c0.3-0.5,0.9-0.6,1.4-0.4l0,0c0.5,0.3,0.6,0.9,0.4,1.4l0,0
							c-0.2,0.3-0.5,0.5-0.9,0.5l0,0C109.3,92.1,109.1,92.1,108.9,92z M104,89.1c-0.5-0.3-0.6-0.9-0.4-1.4l0,0
							c0.3-0.5,0.9-0.6,1.4-0.4l0,0c0.5,0.3,0.6,0.9,0.4,1.4l0,0c-0.2,0.3-0.5,0.5-0.9,0.5l0,0C104.4,89.3,104.2,89.2,104,89.1z"/>
						<path class="st1" d="M114.3,94.9c-0.3,0-0.5-0.1-0.7-0.3c-0.1-0.1-0.2-0.2-0.2-0.3c-0.1-0.1-0.1-0.3-0.1-0.4
							c0-0.3,0.1-0.5,0.3-0.7c0.1-0.1,0.2-0.2,0.3-0.2c0.4-0.1,0.8-0.1,1.1,0.2c0.2,0.2,0.3,0.4,0.3,0.7c0,0.1,0,0.3-0.1,0.4
							s-0.1,0.2-0.2,0.3c-0.1,0.1-0.2,0.2-0.3,0.2C114.6,94.9,114.5,94.9,114.3,94.9z"/>
					</g>
					<g>
						<path class="st1" d="M114.3,35.1c-0.1,0-0.3,0-0.4-0.1s-0.2-0.1-0.3-0.2c-0.1-0.1-0.2-0.2-0.2-0.3c-0.1-0.1-0.1-0.2-0.1-0.4
							c0-0.1,0-0.1,0-0.2c0-0.1,0-0.1,0.1-0.2c0-0.1,0.1-0.1,0.1-0.2l0.1-0.1c0.4-0.4,1-0.4,1.4,0l0.1,0.1c0,0.1,0.1,0.1,0.1,0.2
							c0,0.1,0,0.1,0.1,0.2c0,0.1,0,0.1,0,0.2c0,0.1,0,0.3-0.1,0.4c-0.1,0.1-0.1,0.2-0.2,0.3C114.9,35,114.6,35.1,114.3,35.1z"/>
						<path class="st1" d="M103.7,40.2c-0.3-0.5-0.1-1.1,0.4-1.4l0,0c0.5-0.3,1.1-0.1,1.4,0.4l0,0c0.3,0.5,0.1,1.1-0.4,1.4l0,0
							c-0.2,0.1-0.3,0.1-0.5,0.1l0,0C104.2,40.7,103.8,40.6,103.7,40.2z M108.6,37.4c-0.3-0.5-0.1-1.1,0.4-1.4l0,0
							c0.5-0.3,1.1-0.1,1.4,0.4l0,0c0.3,0.5,0.1,1.1-0.4,1.4l0,0c-0.2,0.1-0.3,0.1-0.5,0.1l0,0C109.1,37.9,108.8,37.7,108.6,37.4z"
							/>
						<path class="st1" d="M99.6,43.6c-0.1,0-0.3,0-0.4-0.1s-0.2-0.1-0.3-0.2c-0.1-0.1-0.2-0.2-0.2-0.3s-0.1-0.2-0.1-0.4
							c0-0.1,0-0.1,0-0.2c0-0.1,0-0.1,0-0.2c0-0.1,0.1-0.1,0.1-0.2l0.1-0.1c0.1-0.1,0.2-0.2,0.3-0.2c0.2-0.1,0.5-0.1,0.8,0
							c0.1,0.1,0.2,0.1,0.3,0.2c0.1,0,0.1,0.1,0.1,0.1c0,0.1,0.1,0.1,0.1,0.2c0,0.1,0,0.1,0,0.2c0,0.1,0,0.1,0,0.2
							c0,0.1,0,0.3-0.1,0.4s-0.1,0.2-0.2,0.3C100.1,43.5,99.9,43.6,99.6,43.6z"/>
					</g>
					<g>
						<path class="st1" d="M28.4,86.4c-0.3,0-0.5-0.1-0.7-0.3c-0.1-0.1-0.2-0.2-0.2-0.3c0-0.1-0.1-0.3-0.1-0.4
							c0-0.3,0.1-0.5,0.3-0.7c0.4-0.4,1-0.4,1.4,0c0.2,0.2,0.3,0.5,0.3,0.7c0,0.1,0,0.3-0.1,0.4c0,0.1-0.1,0.2-0.2,0.3
							C28.9,86.3,28.6,86.4,28.4,86.4z"/>
						<path class="st1" d="M17.7,91.6c-0.3-0.5-0.1-1.1,0.4-1.4l0,0c0.5-0.3,1.1-0.1,1.4,0.4l0,0c0.3,0.5,0.1,1.1-0.4,1.4l0,0
							c-0.2,0.1-0.3,0.1-0.5,0.1l0,0C18.2,92.1,17.9,91.9,17.7,91.6z M22.6,88.8c-0.3-0.5-0.1-1.1,0.4-1.4l0,0
							c0.5-0.3,1.1-0.1,1.4,0.4l0,0c0.3,0.5,0.1,1.1-0.4,1.4l0,0c-0.2,0.1-0.3,0.1-0.5,0.1l0,0C23.1,89.3,22.8,89.1,22.6,88.8z"/>
						<path class="st1" d="M13.6,94.9c-0.3,0-0.5-0.1-0.7-0.3c-0.2-0.2-0.3-0.4-0.3-0.7c0-0.3,0.1-0.5,0.3-0.7
							c0.1-0.1,0.2-0.2,0.3-0.2c0.4-0.1,0.8-0.1,1.1,0.2c0.2,0.2,0.3,0.4,0.3,0.7c0,0.3-0.1,0.5-0.3,0.7c-0.1,0.1-0.2,0.2-0.3,0.2
							C13.9,94.9,13.8,94.9,13.6,94.9z"/>
					</g>
					<g>
						<path class="st1" d="M64,107c-0.3,0-0.5-0.1-0.7-0.3c-0.1-0.1-0.2-0.2-0.2-0.3c0-0.1-0.1-0.2-0.1-0.4s0-0.3,0.1-0.4
							s0.1-0.2,0.2-0.3c0.4-0.4,1-0.4,1.4,0c0.2,0.2,0.3,0.5,0.3,0.7c0,0.1,0,0.3-0.1,0.4s-0.1,0.2-0.2,0.3
							C64.5,106.9,64.3,107,64,107z"/>
						<path class="st1" d="M63,117.3c0-0.5,0.4-1,1-1l0,0c0.5,0,1,0.5,1,1l0,0c0,0.6-0.5,1-1,1l0,0C63.4,118.3,63,117.9,63,117.3z
							 M63,111.7c0-0.5,0.4-1,1-1l0,0c0.5,0,1,0.5,1,1l0,0c0,0.5-0.5,1-1,1l0,0C63.4,112.7,63,112.2,63,111.7z"/>
						<path class="st1" d="M64,124c-0.1,0-0.3,0-0.4-0.1c-0.1,0-0.2-0.1-0.3-0.2s-0.2-0.2-0.2-0.3c0-0.1-0.1-0.2-0.1-0.4
							c0-0.3,0.1-0.5,0.3-0.7c0.4-0.4,1-0.4,1.4,0c0.2,0.2,0.3,0.5,0.3,0.7c0,0.3-0.1,0.5-0.3,0.7c-0.1,0.1-0.2,0.2-0.3,0.2
							S64.1,124,64,124z"/>
					</g>
					<g>
						<path class="st1" d="M64,6c-0.1,0-0.3,0-0.4-0.1c-0.1-0.1-0.2-0.1-0.3-0.2s-0.2-0.2-0.2-0.3C63,5.3,63,5.1,63,5s0-0.3,0.1-0.4
							s0.1-0.2,0.2-0.3c0.4-0.4,1-0.4,1.4,0c0.1,0.1,0.2,0.2,0.2,0.3C65,4.7,65,4.9,65,5s0,0.3-0.1,0.4s-0.1,0.2-0.2,0.3
							c-0.1,0.1-0.2,0.2-0.3,0.2C64.3,6,64.1,6,64,6z"/>
						<path class="st1" d="M63,16.3c0-0.5,0.4-1,1-1l0,0c0.5,0,1,0.5,1,1l0,0c0,0.5-0.5,1-1,1l0,0C63.4,17.3,63,16.9,63,16.3z
							 M63,10.7c0-0.6,0.4-1,1-1l0,0c0.5,0,1,0.4,1,1l0,0c0,0.5-0.5,1-1,1l0,0C63.4,11.7,63,11.2,63,10.7z"/>
						<path class="st1" d="M64,23c-0.1,0-0.3,0-0.4-0.1c-0.1-0.1-0.2-0.1-0.3-0.2s-0.2-0.2-0.2-0.3c0-0.1-0.1-0.2-0.1-0.4
							c0-0.1,0-0.1,0-0.2s0-0.1,0.1-0.2c0-0.1,0.1-0.1,0.1-0.2s0.1-0.1,0.1-0.2c0.3-0.3,0.7-0.4,1.1-0.2c0.1,0,0.2,0.1,0.3,0.2
							c0,0,0.1,0.1,0.1,0.2c0,0,0.1,0.1,0.1,0.2s0,0.1,0.1,0.2c0,0.1,0,0.1,0,0.2s0,0.3-0.1,0.4s-0.1,0.2-0.2,0.3
							C64.5,22.9,64.3,23,64,23z"/>
					</g>
					<path class="st1" d="M114.3,47c-0.6,0-1-0.4-1-1V34.6l-9.6-5.5c-0.5-0.3-0.6-0.9-0.4-1.4c0.3-0.5,0.9-0.6,1.4-0.4l10.1,5.8
						c0.3,0.2,0.5,0.5,0.5,0.9v12C115.3,46.6,114.9,47,114.3,47z"/>
					<path class="st1" d="M104.3,100.7c-0.3,0-0.7-0.2-0.9-0.5c-0.3-0.5-0.1-1.1,0.4-1.4l9.6-5.5V82c0-0.6,0.4-1,1-1s1,0.4,1,1v12
						c0,0.4-0.2,0.7-0.5,0.9l-10.1,5.8C104.6,100.7,104.4,100.7,104.3,100.7z"/>
					<path class="st1" d="M64,124c-0.2,0-0.3,0-0.5-0.1l-10.1-5.8c-0.5-0.3-0.6-0.9-0.4-1.4c0.3-0.5,0.9-0.6,1.4-0.4l9.6,5.5
						l9.6-5.5c0.5-0.3,1.1-0.1,1.4,0.4s0.1,1.1-0.4,1.4l-10.1,5.8C64.3,124,64.2,124,64,124z"/>
					<path class="st1" d="M23.7,100.7c-0.2,0-0.3,0-0.5-0.1l-10.1-5.8c-0.3-0.2-0.5-0.5-0.5-0.9V82c0-0.6,0.4-1,1-1s1,0.4,1,1v11.4
						l9.6,5.5c0.5,0.3,0.6,0.9,0.4,1.4C24.4,100.6,24.1,100.7,23.7,100.7z"/>
					<path class="st1" d="M13.7,47c-0.6,0-1-0.4-1-1V34c0-0.4,0.2-0.7,0.5-0.9l10.1-5.8c0.5-0.3,1.1-0.1,1.4,0.4s0.1,1.1-0.4,1.4
						l-9.6,5.5V46C14.7,46.6,14.2,47,13.7,47z"/>
					<path class="st1" d="M74.1,11.8c-0.2,0-0.3,0-0.5-0.1L64,6.2l-9.6,5.5c-0.5,0.3-1.1,0.1-1.4-0.4c-0.3-0.5-0.1-1.1,0.4-1.4
						l10.1-5.8c0.3-0.2,0.7-0.2,1,0l10.1,5.8c0.5,0.3,0.6,0.9,0.4,1.4C74.8,11.6,74.4,11.8,74.1,11.8z"/>
					<g>
						<g>
							<polygon class="st2" points="85.3,51.3 64,63.6 42.7,51.3 64,39 							"/>
							<path class="st3" d="M64,64.6c-0.2,0-0.3,0-0.5-0.1L42.2,52.2c-0.3-0.2-0.5-0.5-0.5-0.9s0.2-0.7,0.5-0.9l21.3-12.3
								c0.3-0.2,0.7-0.2,1,0l21.3,12.3c0.3,0.2,0.5,0.5,0.5,0.9s-0.2,0.7-0.5,0.9L64.5,64.5C64.3,64.6,64.2,64.6,64,64.6z
								 M44.7,51.3L64,62.5l19.3-11.2L64,40.2L44.7,51.3z"/>
						</g>
						<g>
							<polygon class="st3" points="85.3,51.3 85.3,76.7 64,89 64,63.6 							"/>
							<path class="st3" d="M64,90c-0.2,0-0.3,0-0.5-0.1C63.2,89.7,63,89.4,63,89V63.6c0-0.4,0.2-0.7,0.5-0.9l21.3-12.3
								c0.3-0.2,0.7-0.2,1,0s0.5,0.5,0.5,0.9v25.4c0,0.4-0.2,0.7-0.5,0.9L64.5,89.9C64.3,90,64.2,90,64,90z M65,64.2v23.1l19.3-11.2
								V53L65,64.2z"/>
						</g>
						<g>
							<polygon class="st4" points="42.7,51.3 42.7,76.7 64,89 64,63.6 							"/>
							<path class="st3" d="M64,90c-0.2,0-0.3,0-0.5-0.1L42.2,77.5c-0.3-0.2-0.5-0.5-0.5-0.9V51.3c0-0.4,0.2-0.7,0.5-0.9
								s0.7-0.2,1,0l21.3,12.3c0.3,0.2,0.5,0.5,0.5,0.9V89c0,0.4-0.2,0.7-0.5,0.9C64.3,90,64.2,90,64,90z M43.7,76.1L63,87.3V64.2
								L43.7,53V76.1z"/>
						</g>
					</g>
					<path class="st0" d="M64,90c-0.2,0-0.3,0-0.5-0.1L42.2,77.5c-0.3-0.2-0.5-0.5-0.5-0.9V51.3c0-0.4,0.2-0.7,0.5-0.9l21.3-12.3
						c0.3-0.2,0.7-0.2,1,0l21.3,12.3c0.3,0.2,0.5,0.5,0.5,0.9v25.4c0,0.4-0.2,0.7-0.5,0.9L64.5,89.9C64.3,90,64.2,90,64,90z
						 M43.7,76.1L64,87.8l20.3-11.7V51.9L64,40.2L43.7,51.9V76.1z"/>
					<path class="st1" d="M35.8,22.3c-0.3,0-0.7-0.2-0.9-0.5c-0.3-0.5-0.1-1.1,0.4-1.4l6-3.5c0.5-0.3,1.1-0.1,1.4,0.4
						c0.3,0.5,0.1,1.1-0.4,1.4l-6,3.5C36.1,22.2,36,22.3,35.8,22.3z"/>
					<path class="st1" d="M92.2,22.3c-0.2,0-0.3,0-0.5-0.1l-6-3.5c-0.5-0.3-0.6-0.9-0.4-1.4c0.3-0.5,0.9-0.6,1.4-0.4l6,3.5
						c0.5,0.3,0.6,0.9,0.4,1.4C92.9,22.1,92.5,22.3,92.2,22.3z"/>
					<path class="st1" d="M86.2,111.2c-0.3,0-0.7-0.2-0.9-0.5c-0.3-0.5-0.1-1.1,0.4-1.4l6-3.5c0.5-0.3,1.1-0.1,1.4,0.4
						s0.1,1.1-0.4,1.4l-6,3.5C86.5,111.2,86.3,111.2,86.2,111.2z"/>
					<path class="st1" d="M41.8,111.2c-0.2,0-0.3,0-0.5-0.1l-6-3.5c-0.5-0.3-0.6-0.9-0.4-1.4c0.3-0.5,0.9-0.6,1.4-0.4l6,3.5
						c0.5,0.3,0.6,0.9,0.4,1.4C42.5,111,42.2,111.2,41.8,111.2z"/>
					<path class="st1" d="M13.7,68.6c-0.6,0-1-0.4-1-1v-7.2c0-0.6,0.4-1,1-1s1,0.4,1,1v7.2C14.7,68.1,14.2,68.6,13.7,68.6z"/>
					<path class="st1" d="M114.3,68.6c-0.6,0-1-0.4-1-1v-7.2c0-0.6,0.4-1,1-1s1,0.4,1,1v7.2C115.3,68.1,114.9,68.6,114.3,68.6z"/>
					<g>
						<path class="st0" d="M99.8,52.2c-0.6,0-1-0.4-1-1v-7.9l-6.7-3.8c-0.5-0.3-0.6-0.9-0.4-1.4c0.3-0.5,0.9-0.6,1.4-0.4l7.2,4.1
							c0.3,0.2,0.5,0.5,0.5,0.9v8.5C100.8,51.8,100.4,52.2,99.8,52.2z"/>
						<path class="st0" d="M92.7,90.4c-0.3,0-0.7-0.2-0.9-0.5c-0.3-0.5-0.1-1.1,0.4-1.4l6.7-3.8v-7.9c0-0.6,0.4-1,1-1s1,0.4,1,1v8.5
							c0,0.4-0.2,0.7-0.5,0.9l-7.2,4.1C93,90.4,92.8,90.4,92.7,90.4z"/>
						<path class="st0" d="M64,107c-0.2,0-0.3,0-0.5-0.1l-7.2-4.1c-0.5-0.3-0.6-0.9-0.4-1.4c0.3-0.5,0.9-0.6,1.4-0.4l6.7,3.8
							l6.7-3.8c0.5-0.3,1.1-0.1,1.4,0.4s0.1,1.1-0.4,1.4l-7.2,4.1C64.3,107,64.2,107,64,107z"/>
						<path class="st0" d="M35.3,90.4c-0.2,0-0.3,0-0.5-0.1l-7.2-4.1c-0.3-0.2-0.5-0.5-0.5-0.9v-8.5c0-0.6,0.4-1,1-1s1,0.4,1,1v7.9
							l6.7,3.8c0.5,0.3,0.6,0.9,0.4,1.4C36,90.3,35.7,90.4,35.3,90.4z"/>
						<path class="st0" d="M28.2,52.2c-0.6,0-1-0.4-1-1v-8.5c0-0.4,0.2-0.7,0.5-0.9l7.2-4.1c0.5-0.3,1.1-0.1,1.4,0.4
							c0.3,0.5,0.1,1.1-0.4,1.4l-6.7,3.8v7.9C29.2,51.8,28.7,52.2,28.2,52.2z"/>
						<path class="st0" d="M71.2,27.1c-0.2,0-0.3,0-0.5-0.1L64,23.2L57.3,27c-0.5,0.3-1.1,0.1-1.4-0.4c-0.3-0.5-0.1-1.1,0.4-1.4
							l7.2-4.1c0.3-0.2,0.7-0.2,1,0l7.2,4.1c0.5,0.3,0.6,0.9,0.4,1.4C71.8,27,71.5,27.1,71.2,27.1z"/>
					</g>
				</g>
				<rect x="4" y="4" class="st5" width="120" height="120"/>
				<rect x="4" y="4" class="st5" width="120" height="120"/>
			</g>
		</g>
	</g>
	<g>
		<rect class="st5" width="128" height="128"/>
	</g>
</g>
</svg>
