<?xml version="1.0" encoding="utf-8"?>
<!-- Generator: Adobe Illustrator 24.1.0, SVG Export Plug-In . SVG Version: 6.00 Build 0)  -->
<svg version="1.1" id="Layer_1" xmlns="http://www.w3.org/2000/svg" xmlns:xlink="http://www.w3.org/1999/xlink" x="0px" y="0px"
	 viewBox="0 0 128 128" style="enable-background:new 0 0 128 128;" xml:space="preserve">
<style type="text/css">
	.st0{fill:#C4D7D3;}
	.st1{fill:#27ae60;}
	.st2{fill:#FFFFFF;}
	.st3{fill:none;}
	.st4{fill:#185849;}
</style>
<g id="Layer_1_1_">
</g>
<g>
	<g id="Layer_2_1_">
		<g id="Actions_1_">
			<g>
				<g>
					<g>
						<path class="st0" d="M47.1,56.3c-0.1-0.1-0.2-0.1-0.3-0.2c-9.5-5.5-25-5.5-34.5,0c-0.1,0.1-0.2,0.1-0.3,0.2H5.1v8.1
							c0,3.6,2.4,7.2,7.1,10c9.5,5.5,25,5.5,34.5,0c4.8-2.8,7.1-6.4,7.1-10v-8.1C53.8,56.3,47.1,56.3,47.1,56.3z"/>
						<path class="st1" d="M46.7,74.4c4.8-2.8,7.1-6.4,7.1-10v-8.1H47c-0.1-0.1-0.2-0.1-0.3-0.2C42,53.3,35.7,52,29.5,52v26.5
							C35.7,78.5,42,77.1,46.7,74.4z"/>
						<ellipse class="st0" cx="29.5" cy="56.3" rx="24.4" ry="14.1"/>
						<path class="st2" d="M29.5,71.3c-6.4,0-12.9-1.4-17.8-4.2c-4.9-2.8-7.6-6.7-7.6-10.8s2.7-8,7.6-10.8c9.8-5.7,25.7-5.7,35.5,0
							l0,0c4.9,2.8,7.6,6.7,7.6,10.8s-2.7,8-7.6,10.8C42.3,69.9,35.9,71.3,29.5,71.3z M29.5,43.2c-6.1,0-12.1,1.3-16.8,4
							c-4.3,2.5-6.6,5.7-6.6,9.1s2.4,6.6,6.6,9.1c9.2,5.3,24.3,5.3,33.5,0c4.3-2.5,6.6-5.7,6.6-9.1c0-3.4-2.4-6.6-6.6-9.1l0,0
							C41.6,44.5,35.5,43.2,29.5,43.2z"/>
						<ellipse class="st3" cx="29.5" cy="64.4" rx="24.4" ry="14.1"/>
						<path class="st4" d="M29.5,79.5c-6.7,0-13-1.5-17.8-4.3c-4.9-2.8-7.6-6.7-7.6-10.8v-8.1c0-4.1,2.7-8,7.6-10.8
							c9.8-5.6,25.7-5.7,35.5,0c4.9,2.8,7.6,6.7,7.6,10.8v8.1c0,1.5-0.4,3-1.1,4.5c-1.2,2.4-3.5,4.6-6.5,6.4
							c-2.4,1.4-5.2,2.5-8.3,3.2c-0.7,0.2-1.5,0.3-2.3,0.5c-1.5,0.3-3.1,0.4-4.7,0.5C31.1,79.5,30.3,79.5,29.5,79.5z M29.5,43.2
							c-6.1,0-12.1,1.3-16.8,4c-4.3,2.5-6.6,5.7-6.6,9.1v8.1c0,3.4,2.4,6.6,6.6,9.1c4.5,2.6,10.4,4,16.8,4c0.8,0,1.5,0,2.3-0.1
							c1.5-0.1,3-0.3,4.5-0.5c0.7-0.1,1.5-0.3,2.2-0.4c2.9-0.7,5.6-1.7,7.8-3C49,71.9,51,70,52.1,68c0.6-1.2,0.9-2.4,0.9-3.6v-8.1
							c0-3.4-2.4-6.6-6.6-9.1C41.6,44.5,35.5,43.2,29.5,43.2z"/>
						<path class="st1" d="M38.9,60.2l2.6,1.5L39.2,63l-2.5-1.5c-1.2,0.6-2.5,1.1-3.9,1.5c-1.4,0.4-2.6,0.7-3.7,0.7l-1.6-2.4
							c1-0.1,2-0.3,3.1-0.6s2.1-0.6,3-1.1l-3.9-2.2c-1.3,0.5-2.6,0.9-3.6,1.1C25.1,59,24,59,22.8,59c-1.1-0.1-2.2-0.4-3.3-1
							c-1.3-0.7-1.9-1.6-1.9-2.7c0-1.1,0.8-2.2,2.4-3.3l-2.6-1.5l2.3-1.3l2.5,1.5c2-1,4.1-1.6,6.1-1.9L30,51
							c-1.8,0.3-3.4,0.7-4.7,1.4l3.9,2.3c1.3-0.5,2.5-0.9,3.6-1.1c1.1-0.2,2.2-0.3,3.3-0.3c1.1,0.1,2.2,0.4,3.2,1
							c1.3,0.7,1.9,1.6,1.9,2.7C41.2,58,40.4,59.1,38.9,60.2z M24.5,56c0.6,0,1.2-0.2,1.9-0.4l-3.3-1.9c-0.4,0.4-0.7,0.8-0.6,1.1
							c0,0.3,0.2,0.6,0.6,0.9C23.5,55.9,24,56,24.5,56 M32.7,56.6l3.2,1.8c0.4-0.4,0.6-0.8,0.6-1.1s-0.2-0.6-0.6-0.8
							c-0.4-0.2-0.9-0.3-1.4-0.3C34,56.3,33.4,56.4,32.7,56.6"/>
					</g>
					<g>
						<path class="st0" d="M81.6,76.2c-0.1-0.1-0.2-0.1-0.3-0.2c-9.5-5.5-25-5.5-34.5,0c-0.1,0.1-0.2,0.1-0.3,0.2h-6.8v8.1
							c0,3.6,2.4,7.2,7.1,10c9.5,5.5,25,5.5,34.5,0c4.8-2.8,7.1-6.4,7.1-10v-8.1H81.6z"/>
						<path class="st1" d="M81.3,94.3c4.8-2.8,7.1-6.4,7.1-10v-8.1h-6.8c-0.1-0.1-0.2-0.1-0.3-0.2c-4.8-2.8-11-4.1-17.3-4.1v26.5
							C70.3,98.4,76.5,97,81.3,94.3z"/>
						<ellipse class="st0" cx="64" cy="76.2" rx="24.4" ry="14.1"/>
						<path class="st2" d="M64,91.3c-6.4,0-12.9-1.4-17.8-4.2c-4.9-2.8-7.6-6.7-7.6-10.8c0-4.1,2.7-8,7.6-10.8
							c9.8-5.7,25.7-5.7,35.5,0l0,0c4.9,2.8,7.6,6.7,7.6,10.8c0,4.1-2.7,8-7.6,10.8C76.9,89.9,70.4,91.3,64,91.3z M64,63.1
							c-6.1,0-12.1,1.3-16.8,4c-4.3,2.5-6.6,5.7-6.6,9.1s2.4,6.6,6.6,9.1c9.2,5.3,24.3,5.3,33.5,0c4.3-2.5,6.6-5.7,6.6-9.1
							s-2.4-6.6-6.6-9.1C76.2,64.4,70.1,63.1,64,63.1z"/>
						<ellipse class="st3" cx="64" cy="84.3" rx="24.4" ry="14.1"/>
						<path class="st4" d="M64,99.4c-6.7,0-13-1.5-17.8-4.3c-4.9-2.8-7.6-6.7-7.6-10.8v-8.1c0-4.1,2.7-8,7.6-10.8
							c9.8-5.7,25.7-5.7,35.5,0c4.9,2.8,7.6,6.7,7.6,10.8v8.1c0,1.5-0.4,3-1.1,4.5c-1.2,2.4-3.5,4.6-6.5,6.4
							c-2.4,1.4-5.2,2.5-8.3,3.2c-0.7,0.2-1.5,0.3-2.3,0.5c-1.5,0.3-3.1,0.4-4.7,0.5C65.6,99.4,64.8,99.4,64,99.4z M64,63.1
							c-6.1,0-12.1,1.3-16.8,4c-4.3,2.5-6.6,5.7-6.6,9.1v8.1c0,3.4,2.4,6.6,6.6,9.1c4.5,2.6,10.4,4,16.8,4c0.8,0,1.5,0,2.3-0.1
							c1.5-0.1,3-0.3,4.5-0.5c0.7-0.1,1.5-0.3,2.2-0.4c2.9-0.7,5.6-1.7,7.8-3c2.7-1.6,4.7-3.5,5.8-5.5c0.6-1.2,0.9-2.4,0.9-3.6v-8.1
							c0-3.4-2.4-6.6-6.6-9.1C76.2,64.4,70.1,63.1,64,63.1z"/>
						<path class="st1" d="M73.5,80.1l2.6,1.5L73.8,83l-2.5-1.5c-1.2,0.6-2.5,1.1-3.9,1.5s-2.6,0.7-3.7,0.7l-1.6-2.4
							c1-0.1,2-0.3,3.1-0.6c1.1-0.3,2.1-0.6,3-1.1l-3.9-2.2c-1.3,0.5-2.6,0.9-3.6,1.1c-1.1,0.3-2.2,0.3-3.3,0.3
							c-1.1-0.1-2.2-0.4-3.3-1c-1.3-0.7-1.9-1.6-1.9-2.7s0.8-2.2,2.4-3.3L52,70.4l2.3-1.3l2.5,1.5c2-1,4.1-1.6,6.1-1.9l1.7,2.3
							c-1.8,0.3-3.4,0.7-4.7,1.4l3.9,2.3c1.3-0.5,2.5-0.9,3.6-1.1s2.2-0.3,3.3-0.3c1.1,0.1,2.2,0.4,3.2,1c1.3,0.7,1.9,1.6,1.9,2.7
							C75.7,77.9,75,79,73.5,80.1z M59,75.9c0.6,0,1.2-0.2,1.9-0.4l-3.3-1.9c-0.4,0.4-0.7,0.8-0.6,1.1c0,0.3,0.2,0.6,0.6,0.9
							S58.5,76,59,75.9 M67.2,76.5l3.2,1.8c0.4-0.4,0.6-0.8,0.6-1.1c0-0.3-0.2-0.6-0.6-0.8c-0.4-0.2-0.9-0.3-1.4-0.3
							C68.6,76.2,67.9,76.3,67.2,76.5"/>
					</g>
					<g>
						<path class="st0" d="M47.1,48.1C47,48,46.9,48,46.8,47.9c-9.5-5.5-25-5.5-34.5,0C12.2,48,12.1,48,12,48.1H5.1v8.1
							c0,3.6,2.4,7.2,7.1,10c9.5,5.5,25,5.5,34.5,0c4.8-2.8,7.1-6.4,7.1-10v-8.1H47.1z"/>
						<path class="st1" d="M46.7,66.2c4.8-2.8,7.1-6.4,7.1-10v-8.1H47c-0.1-0.1-0.2-0.1-0.3-0.2c-4.8-2.8-11-4.1-17.3-4.1v26.5
							C35.7,70.4,42,69,46.7,66.2z"/>
						<ellipse class="st0" cx="29.5" cy="48.1" rx="24.4" ry="14.1"/>
						<path class="st2" d="M29.5,63.2c-6.4,0-12.9-1.4-17.8-4.2s-7.6-6.7-7.6-10.8s2.7-8,7.6-10.8c9.8-5.7,25.7-5.7,35.5,0
							c4.9,2.8,7.6,6.7,7.6,10.8s-2.7,8-7.6,10.8S35.9,63.2,29.5,63.2z M29.5,35c-6.1,0-12.1,1.3-16.8,4c-4.3,2.5-6.6,5.7-6.6,9.1
							s2.4,6.6,6.6,9.1c9.2,5.3,24.3,5.3,33.5,0c4.3-2.5,6.6-5.7,6.6-9.1s-2.4-6.6-6.6-9.1l0,0C41.6,36.4,35.5,35,29.5,35z"/>
						<ellipse class="st3" cx="29.5" cy="56.3" rx="24.4" ry="14.1"/>
						<path class="st4" d="M29.5,71.4c-6.7,0-13-1.5-17.8-4.3c-4.9-2.8-7.6-6.7-7.6-10.8v-8.1c0-4.1,2.7-8,7.6-10.8
							c9.8-5.7,25.7-5.7,35.5,0c4.9,2.8,7.6,6.7,7.6,10.8v8.1c0,1.5-0.4,3-1.1,4.5c-1.2,2.4-3.5,4.6-6.5,6.4
							c-2.4,1.4-5.2,2.5-8.3,3.2c-0.7,0.2-1.5,0.3-2.3,0.5c-1.5,0.3-3.1,0.4-4.7,0.5C31.1,71.3,30.3,71.4,29.5,71.4z M29.5,35
							c-6.1,0-12.1,1.3-16.8,4c-4.3,2.5-6.6,5.7-6.6,9.1v8.1c0,3.4,2.4,6.6,6.6,9.1c4.5,2.6,10.4,4,16.8,4c0.8,0,1.5,0,2.3-0.1
							c1.5-0.1,3-0.3,4.5-0.5c0.7-0.1,1.5-0.3,2.2-0.4c2.9-0.7,5.6-1.7,7.8-3c2.7-1.6,4.7-3.5,5.8-5.5c0.6-1.2,0.9-2.4,0.9-3.6v-8.1
							c0-3.4-2.4-6.6-6.6-9.1C41.6,36.4,35.5,35,29.5,35z"/>
						<path class="st1" d="M38.9,52.1l2.6,1.5l-2.3,1.3l-2.5-1.5c-1.2,0.6-2.5,1.1-3.9,1.5c-1.4,0.4-2.6,0.7-3.7,0.7l-1.6-2.4
							c1-0.1,2-0.3,3.1-0.6s2.1-0.6,3-1.1l-3.9-2.2c-1.3,0.5-2.6,0.9-3.6,1.1c-1.1,0.3-2.2,0.3-3.3,0.3c-1.1-0.1-2.2-0.4-3.3-1
							c-1.3-0.7-1.9-1.6-1.9-2.7c0-1.1,0.8-2.2,2.4-3.3l-2.6-1.5l2.3-1.3l2.5,1.5c2-1,4.1-1.6,6.1-1.9l1.7,2.3
							c-1.8,0.3-3.4,0.7-4.7,1.4l3.9,2.3c1.3-0.5,2.5-0.9,3.6-1.1c1.1-0.2,2.2-0.3,3.3-0.3c1.1,0.1,2.2,0.4,3.2,1
							c1.3,0.7,1.9,1.6,1.9,2.7S40.4,50.9,38.9,52.1z M24.5,47.9c0.6,0,1.2-0.2,1.9-0.4l-3.3-1.9c-0.4,0.4-0.7,0.8-0.6,1.1
							c0,0.3,0.2,0.6,0.6,0.9C23.5,47.8,24,47.9,24.5,47.9 M32.7,48.5l3.2,1.8c0.4-0.4,0.6-0.8,0.6-1.1s-0.2-0.6-0.6-0.8
							c-0.4-0.2-0.9-0.3-1.4-0.3C34,48.2,33.4,48.3,32.7,48.5"/>
					</g>
					<g>
						<path class="st0" d="M47.1,40c-0.1-0.1-0.2-0.1-0.3-0.2c-9.5-5.5-25-5.5-34.5,0c-0.1,0.1-0.2,0.1-0.3,0.2H5.1v8.1
							c0,3.6,2.4,7.2,7.1,10c9.5,5.5,25,5.5,34.5,0c4.8-2.8,7.1-6.4,7.1-10V40H47.1z"/>
						<path class="st1" d="M46.7,58.1c4.8-2.8,7.1-6.4,7.1-10V40H47c-0.1-0.1-0.2-0.1-0.3-0.2c-4.8-2.8-11-4.1-17.3-4.1v26.5
							C35.7,62.2,42,60.9,46.7,58.1z"/>
						<ellipse class="st0" cx="29.5" cy="40" rx="24.4" ry="14.1"/>
						<path class="st2" d="M29.5,55.1c-6.4,0-12.9-1.4-17.8-4.2C6.8,48,4.1,44.1,4.1,40s2.7-8,7.6-10.8c9.8-5.7,25.7-5.7,35.5,0l0,0
							c4.9,2.8,7.6,6.7,7.6,10.8s-2.7,8-7.6,10.8C42.3,53.7,35.9,55.1,29.5,55.1z M29.5,26.9c-6.1,0-12.1,1.3-16.8,4
							c-4.3,2.5-6.6,5.7-6.6,9.1s2.4,6.6,6.6,9.1c9.2,5.3,24.3,5.3,33.5,0c4.3-2.5,6.6-5.7,6.6-9.1c0-3.4-2.4-6.6-6.6-9.1
							C41.6,28.2,35.5,26.9,29.5,26.9z"/>
						<ellipse class="st3" cx="29.5" cy="48.1" rx="24.4" ry="14.1"/>
						<path class="st4" d="M29.5,63.2c-6.7,0-13-1.5-17.8-4.3c-4.9-2.8-7.6-6.7-7.6-10.8V40c0-4.1,2.7-8,7.6-10.8
							c9.8-5.7,25.7-5.7,35.5,0c4.9,2.8,7.6,6.7,7.6,10.8v8.1c0,1.5-0.4,3-1.1,4.5c-1.2,2.4-3.5,4.6-6.5,6.4
							c-2.4,1.4-5.2,2.5-8.3,3.2c-0.7,0.2-1.5,0.3-2.3,0.5c-1.5,0.3-3.1,0.4-4.7,0.5C31.1,63.2,30.3,63.2,29.5,63.2z M29.5,26.9
							c-6.1,0-12.1,1.3-16.8,4c-4.3,2.5-6.6,5.7-6.6,9.1v8.1c0,3.4,2.4,6.6,6.6,9.1c4.5,2.6,10.4,4,16.8,4c0.8,0,1.5,0,2.3-0.1
							c1.5-0.1,3-0.3,4.5-0.5c0.7-0.1,1.5-0.3,2.2-0.4c2.9-0.7,5.6-1.7,7.8-3c2.7-1.6,4.7-3.5,5.8-5.5c0.6-1.2,0.9-2.4,0.9-3.6V40
							c0-3.4-2.4-6.6-6.6-9.1C41.6,28.2,35.5,26.9,29.5,26.9z"/>
						<path class="st1" d="M38.9,43.9l2.6,1.5l-2.3,1.3l-2.5-1.5c-1.2,0.6-2.5,1.1-3.9,1.5c-1.4,0.4-2.6,0.7-3.7,0.7L27.5,45
							c1-0.1,2-0.3,3.1-0.6s2.1-0.6,3-1.1l-3.9-2.2c-1.3,0.5-2.6,0.9-3.6,1.1c-1.1,0.3-2.2,0.3-3.3,0.3c-1.1-0.1-2.2-0.4-3.3-1
							c-1.3-0.7-1.9-1.6-1.9-2.7c0-1.1,0.8-2.2,2.4-3.3L17.4,34l2.3-1.3l2.5,1.5c2-1,4.1-1.6,6.1-1.9l1.7,2.3
							c-1.8,0.3-3.4,0.7-4.7,1.4l3.9,2.3c1.3-0.5,2.5-0.9,3.6-1.1c1.1-0.2,2.2-0.3,3.3-0.3c1.1,0.1,2.2,0.4,3.2,1
							c1.3,0.7,1.9,1.6,1.9,2.7C41.2,41.7,40.4,42.8,38.9,43.9z M24.5,39.7c0.6,0,1.2-0.2,1.9-0.4l-3.3-1.9
							c-0.4,0.4-0.7,0.8-0.6,1.1c0,0.3,0.2,0.6,0.6,0.9S24,39.8,24.5,39.7 M32.7,40.3l3.2,1.8c0.4-0.4,0.6-0.8,0.6-1.1
							s-0.2-0.6-0.6-0.8c-0.4-0.2-0.9-0.3-1.4-0.3C34,40,33.4,40.1,32.7,40.3"/>
					</g>
					<g>
						<path class="st0" d="M47.1,31.9c-0.1-0.1-0.2-0.1-0.3-0.2c-9.5-5.5-25-5.5-34.5,0c-0.1,0.1-0.2,0.1-0.3,0.2H5.1V40
							c0,3.6,2.4,7.2,7.1,10c9.5,5.5,25,5.5,34.5,0c4.8-2.8,7.1-6.4,7.1-10v-8.1H47.1z"/>
						<path class="st1" d="M46.7,50c4.8-2.8,7.1-6.4,7.1-10v-8.1H47c-0.1-0.1-0.2-0.1-0.3-0.2c-4.8-2.8-11-4.1-17.3-4.1v26.5
							C35.7,54.1,42,52.7,46.7,50z"/>
						<ellipse class="st0" cx="29.5" cy="31.9" rx="24.4" ry="14.1"/>
						<path class="st2" d="M29.5,46.9c-6.4,0-12.9-1.4-17.8-4.2S4.1,36,4.1,31.9s2.7-8,7.6-10.8c9.8-5.7,25.7-5.7,35.5,0l0,0
							c4.9,2.8,7.6,6.7,7.6,10.8s-2.7,8-7.6,10.8C42.3,45.5,35.9,46.9,29.5,46.9z M29.5,18.8c-6.1,0-12.1,1.3-16.8,4
							c-4.3,2.5-6.6,5.7-6.6,9.1s2.4,6.6,6.6,9.1c9.2,5.3,24.3,5.3,33.5,0c4.3-2.5,6.6-5.7,6.6-9.1s-2.4-6.6-6.6-9.1l0,0
							C41.6,20.1,35.5,18.8,29.5,18.8z"/>
						<ellipse class="st3" cx="29.5" cy="40" rx="24.4" ry="14.1"/>
						<path class="st4" d="M29.5,55.1c-6.7,0-13-1.5-17.8-4.3C6.8,48,4.1,44.1,4.1,40v-8.1c0-4.1,2.7-8,7.6-10.8
							c9.8-5.6,25.7-5.7,35.5,0c4.9,2.8,7.6,6.7,7.6,10.8V40c0,1.5-0.4,3-1.1,4.5c-1.2,2.4-3.5,4.6-6.5,6.4
							c-2.4,1.4-5.2,2.5-8.3,3.2c-0.7,0.2-1.5,0.3-2.3,0.5c-1.5,0.3-3.1,0.4-4.7,0.5C31.1,55.1,30.3,55.1,29.5,55.1z M29.5,18.8
							c-6.1,0-12.1,1.3-16.8,4c-4.3,2.5-6.6,5.7-6.6,9.1V40c0,3.4,2.4,6.6,6.6,9.1c4.5,2.6,10.4,4,16.8,4c0.8,0,1.5,0,2.3-0.1
							c1.5-0.1,3-0.3,4.5-0.5c0.7-0.1,1.5-0.3,2.2-0.4c2.9-0.7,5.6-1.7,7.8-3c2.7-1.6,4.7-3.5,5.8-5.5c0.6-1.2,0.9-2.4,0.9-3.6v-8.1
							c0-3.4-2.4-6.6-6.6-9.1C41.6,20.1,35.5,18.8,29.5,18.8z"/>
						<path class="st1" d="M38.9,35.8l2.6,1.5l-2.3,1.3l-2.5-1.5c-1.2,0.6-2.5,1.1-3.9,1.5c-1.4,0.4-2.6,0.7-3.7,0.7l-1.6-2.4
							c1-0.1,2-0.3,3.1-0.6s2.1-0.6,3-1.1L29.7,33c-1.3,0.5-2.6,0.9-3.6,1.1c-1.1,0.3-2.2,0.3-3.3,0.3c-1.1-0.1-2.2-0.4-3.3-1
							c-1.3-0.7-1.9-1.6-1.9-2.7s0.8-2.2,2.4-3.3l-2.6-1.5l2.3-1.3l2.5,1.5c2-1,4.1-1.6,6.1-1.9l1.7,2.3c-1.8,0.3-3.4,0.7-4.7,1.4
							l3.9,2.3c1.3-0.5,2.5-0.9,3.6-1.1c1.1-0.2,2.2-0.3,3.3-0.3c1.1,0.1,2.2,0.4,3.2,1c1.3,0.7,1.9,1.6,1.9,2.7
							C41.2,33.6,40.4,34.7,38.9,35.8z M24.5,31.6c0.6,0,1.2-0.2,1.9-0.4l-3.3-1.9c-0.4,0.4-0.7,0.8-0.6,1.1c0,0.3,0.2,0.6,0.6,0.9
							C23.5,31.5,24,31.6,24.5,31.6 M32.7,32.2l3.2,1.8c0.4-0.4,0.6-0.8,0.6-1.1s-0.2-0.6-0.6-0.8c-0.4-0.2-0.9-0.3-1.4-0.3
							C34,31.9,33.4,32,32.7,32.2"/>
					</g>
					<g>
						<path class="st0" d="M47.1,23.7c-0.1-0.1-0.2-0.1-0.3-0.2c-9.5-5.5-25-5.5-34.5,0c-0.1,0.1-0.2,0.1-0.3,0.2H5.1v8.1
							c0,3.6,2.4,7.2,7.1,10c9.5,5.5,25,5.5,34.5,0c4.8-2.8,7.1-6.4,7.1-10v-8.1C53.8,23.7,47.1,23.7,47.1,23.7z"/>
						<path class="st1" d="M46.7,41.8c4.8-2.8,7.1-6.4,7.1-10v-8.1H47c-0.1-0.1-0.2-0.1-0.3-0.2c-4.8-2.8-11-4.1-17.3-4.1V46
							C35.7,46,42,44.6,46.7,41.8z"/>
						<ellipse class="st0" cx="29.5" cy="23.7" rx="24.4" ry="14.1"/>
						<path class="st2" d="M29.5,38.8c-6.4,0-12.9-1.4-17.8-4.2s-7.6-6.7-7.6-10.8s2.7-8,7.6-10.8c9.8-5.7,25.7-5.7,35.5,0
							c4.9,2.8,7.6,6.7,7.6,10.8s-2.7,8-7.6,10.8C42.3,37.4,35.9,38.8,29.5,38.8z M29.5,10.6c-6.1,0-12.1,1.3-16.8,4
							c-4.3,2.5-6.6,5.7-6.6,9.1s2.4,6.6,6.6,9.1c9.2,5.3,24.3,5.3,33.5,0c4.3-2.5,6.6-5.7,6.6-9.1s-2.4-6.6-6.6-9.1l0,0
							C41.6,12,35.5,10.6,29.5,10.6z"/>
						<ellipse class="st3" cx="29.5" cy="31.9" rx="24.4" ry="14.1"/>
						<path class="st4" d="M29.5,47c-6.7,0-13-1.5-17.8-4.3C6.8,39.9,4.1,36,4.1,31.9v-8.1c0-4.1,2.7-8,7.6-10.8
							c9.8-5.7,25.7-5.7,35.5,0c4.9,2.8,7.6,6.7,7.6,10.8v8.1c0,1.5-0.4,3-1.1,4.5c-1.2,2.4-3.5,4.6-6.5,6.4
							c-2.4,1.4-5.2,2.5-8.3,3.2c-0.7,0.2-1.5,0.3-2.3,0.5c-1.5,0.3-3.1,0.4-4.7,0.5C31.1,46.9,30.3,47,29.5,47z M29.5,10.6
							c-6.1,0-12.1,1.3-16.8,4c-4.3,2.5-6.6,5.7-6.6,9.1v8.1c0,3.4,2.4,6.6,6.6,9.1c4.5,2.6,10.4,4,16.8,4c0.8,0,1.5,0,2.3-0.1
							c1.5-0.1,3-0.3,4.5-0.5c0.7-0.1,1.5-0.3,2.2-0.4c2.9-0.7,5.6-1.7,7.8-3c2.7-1.6,4.7-3.5,5.8-5.5c0.6-1.2,0.9-2.4,0.9-3.6v-8.1
							c0-3.4-2.4-6.6-6.6-9.1C41.6,12,35.5,10.6,29.5,10.6z"/>
						<path class="st1" d="M38.9,27.7l2.6,1.5l-2.3,1.3L36.7,29c-1.2,0.6-2.5,1.1-3.9,1.5c-1.4,0.4-2.6,0.7-3.7,0.7L27.6,29
							c1-0.1,2-0.3,3.1-0.6c1.1-0.3,2.1-0.6,3-1.1l-3.9-2.2c-1.3,0.5-2.6,0.9-3.6,1.1c-1.1,0.3-2.2,0.3-3.3,0.3
							c-1.1-0.1-2.2-0.4-3.3-1c-1.3-0.7-1.9-1.6-1.9-2.7s0.8-2.2,2.4-3.3L17.5,18l2.3-1.3l2.5,1.5c2-1,4.1-1.6,6.1-1.9l1.7,2.3
							c-1.8,0.3-3.4,0.7-4.7,1.4l3.9,2.3c1.3-0.5,2.5-0.9,3.6-1.1c1.1-0.2,2.2-0.3,3.3-0.3c1.1,0.1,2.2,0.4,3.2,1
							c1.3,0.7,1.9,1.6,1.9,2.7C41.2,25.5,40.4,26.5,38.9,27.7z M24.5,23.5c0.6,0,1.2-0.2,1.9-0.4l-3.3-1.9
							c-0.4,0.4-0.7,0.8-0.6,1.1c0,0.3,0.2,0.6,0.6,0.9C23.5,23.4,24,23.5,24.5,23.5 M32.7,24.1l3.2,1.8c0.4-0.4,0.6-0.8,0.6-1.1
							c0-0.3-0.2-0.6-0.6-0.8s-0.9-0.3-1.4-0.3S33.4,23.9,32.7,24.1"/>
					</g>
					<g>
						<path class="st0" d="M81.6,68.1c-0.1-0.1-0.2-0.1-0.3-0.2c-9.5-5.5-25-5.5-34.5,0c-0.1,0.1-0.2,0.1-0.3,0.2h-6.8v8.1
							c0,3.6,2.4,7.2,7.1,10c9.5,5.5,25,5.5,34.5,0c4.8-2.8,7.1-6.4,7.1-10v-8.1H81.6z"/>
						<path class="st1" d="M81.3,86.2c4.8-2.8,7.1-6.4,7.1-10v-8.1h-6.8c-0.1-0.1-0.2-0.1-0.3-0.2c-4.8-2.8-11-4.1-17.3-4.1v26.5
							C70.3,90.3,76.5,88.9,81.3,86.2z"/>
						<ellipse class="st0" cx="64" cy="68.1" rx="24.4" ry="14.1"/>
						<path class="st2" d="M64,83.1c-6.4,0-12.9-1.4-17.8-4.2c-4.9-2.8-7.6-6.7-7.6-10.8c0-4.1,2.7-8,7.6-10.8
							c9.8-5.7,25.7-5.7,35.5,0l0,0c4.9,2.8,7.6,6.7,7.6,10.8s-2.7,8-7.6,10.8C76.9,81.7,70.4,83.1,64,83.1z M64,55
							c-6.1,0-12.1,1.3-16.8,4c-4.3,2.5-6.6,5.7-6.6,9.1s2.4,6.6,6.6,9.1c9.2,5.3,24.3,5.3,33.5,0c4.3-2.5,6.6-5.7,6.6-9.1
							s-2.4-6.6-6.6-9.1l0,0C76.2,56.3,70.1,55,64,55z"/>
						<ellipse class="st3" cx="64" cy="76.2" rx="24.4" ry="14.1"/>
						<path class="st4" d="M64,91.3c-6.7,0-13-1.5-17.8-4.3c-4.9-2.8-7.6-6.7-7.6-10.8v-8.1c0-4.1,2.7-8,7.6-10.8
							c9.8-5.6,25.7-5.7,35.5,0c4.9,2.8,7.6,6.7,7.6,10.8v8.1c0,1.5-0.4,3-1.1,4.5c-1.2,2.4-3.5,4.6-6.5,6.4
							c-2.4,1.4-5.2,2.5-8.3,3.2c-0.7,0.2-1.5,0.3-2.3,0.5c-1.5,0.3-3.1,0.4-4.7,0.5C65.6,91.3,64.8,91.3,64,91.3z M64,55
							c-6.1,0-12.1,1.3-16.8,4c-4.3,2.5-6.6,5.7-6.6,9.1v8.1c0,3.4,2.4,6.6,6.6,9.1c4.5,2.6,10.4,4,16.8,4c0.8,0,1.5,0,2.3-0.1
							c1.5-0.1,3-0.3,4.5-0.5c0.7-0.1,1.5-0.3,2.2-0.4c2.9-0.7,5.6-1.7,7.8-3c2.7-1.6,4.7-3.5,5.8-5.5c0.6-1.2,0.9-2.4,0.9-3.6v-8.1
							c0-3.4-2.4-6.6-6.6-9.1C76.2,56.3,70.1,55,64,55z"/>
						<path class="st1" d="M73.5,72l2.6,1.5l-2.3,1.3l-2.5-1.5c-1.2,0.6-2.5,1.1-3.9,1.5s-2.6,0.7-3.7,0.7l-1.6-2.4
							c1-0.1,2-0.3,3.1-0.6c1.1-0.3,2.1-0.6,3-1.1l-3.9-2.2c-1.3,0.5-2.6,0.9-3.6,1.1c-1.1,0.3-2.2,0.3-3.3,0.3
							c-1.1-0.1-2.2-0.4-3.3-1c-1.3-0.7-1.9-1.6-1.9-2.7s0.8-2.2,2.4-3.3L52,62.3l2.3-1.3l2.5,1.5c2-1,4.1-1.6,6.1-1.9l1.7,2.3
							c-1.8,0.3-3.4,0.7-4.7,1.4l3.9,2.3c1.3-0.5,2.5-0.9,3.6-1.1s2.2-0.3,3.3-0.3c1.1,0.1,2.2,0.4,3.2,1c1.3,0.7,1.9,1.6,1.9,2.7
							C75.7,69.8,75,70.9,73.5,72z M59,67.8c0.6,0,1.2-0.2,1.9-0.4l-3.3-1.9c-0.4,0.4-0.7,0.8-0.6,1.1c0,0.3,0.2,0.6,0.6,0.9
							C58,67.7,58.5,67.8,59,67.8 M67.2,68.4l3.2,1.8c0.4-0.4,0.6-0.8,0.6-1.1c0-0.3-0.2-0.6-0.6-0.8C70,68.1,69.5,68,69,68
							C68.6,68.1,67.9,68.2,67.2,68.4"/>
					</g>
					<g>
						<path class="st0" d="M81.6,59.9c-0.1-0.1-0.2-0.1-0.3-0.2c-9.5-5.5-25-5.5-34.5,0c-0.1,0.1-0.2,0.1-0.3,0.2h-6.8V68
							c0,3.6,2.4,7.2,7.1,10c9.5,5.5,25,5.5,34.5,0c4.8-2.8,7.1-6.4,7.1-10v-8.1H81.6z"/>
						<path class="st1" d="M81.3,78c4.8-2.8,7.1-6.4,7.1-10v-8.1h-6.8c-0.1-0.1-0.2-0.1-0.3-0.2c-4.8-2.8-11-4.1-17.3-4.1v26.5
							C70.3,82.2,76.5,80.8,81.3,78z"/>
						<ellipse class="st0" cx="64" cy="59.9" rx="24.4" ry="14.1"/>
						<path class="st2" d="M64,75c-6.4,0-12.9-1.4-17.8-4.2c-4.9-2.8-7.6-6.7-7.6-10.8s2.7-8,7.6-10.8c9.8-5.7,25.7-5.7,35.5,0
							c4.9,2.8,7.6,6.7,7.6,10.8s-2.7,8-7.6,10.8C76.9,73.6,70.4,75,64,75z M64,46.8c-6.1,0-12.1,1.3-16.8,4
							c-4.3,2.5-6.6,5.7-6.6,9.1s2.4,6.6,6.6,9.1c9.2,5.3,24.3,5.3,33.5,0c4.3-2.5,6.6-5.7,6.6-9.1c0-3.4-2.4-6.6-6.6-9.1l0,0
							C76.2,48.2,70.1,46.8,64,46.8z"/>
						<ellipse class="st3" cx="64" cy="68.1" rx="24.4" ry="14.1"/>
						<path class="st4" d="M64,83.2c-6.7,0-13-1.5-17.8-4.3c-4.9-2.8-7.6-6.7-7.6-10.8V60c0-4.1,2.7-8,7.6-10.8
							c9.8-5.7,25.7-5.7,35.5,0c4.9,2.8,7.6,6.7,7.6,10.8v8.1c0,1.5-0.4,3-1.1,4.5C87,75,84.7,77.2,81.7,79
							c-2.4,1.4-5.2,2.5-8.3,3.2c-0.7,0.2-1.5,0.3-2.3,0.5c-1.5,0.3-3.1,0.4-4.7,0.5C65.6,83.1,64.8,83.2,64,83.2z M64,46.8
							c-6.1,0-12.1,1.3-16.8,4c-4.3,2.5-6.6,5.7-6.6,9.1V68c0,3.4,2.4,6.6,6.6,9.1c4.5,2.6,10.4,4,16.8,4c0.8,0,1.5,0,2.3-0.1
							c1.5-0.1,3-0.3,4.5-0.5c0.7-0.1,1.5-0.3,2.2-0.4c2.9-0.7,5.6-1.7,7.8-3c2.7-1.6,4.7-3.5,5.8-5.5c0.6-1.2,0.9-2.4,0.9-3.6v-8.1
							c0-3.4-2.4-6.6-6.6-9.1C76.2,48.2,70.1,46.8,64,46.8z"/>
						<path class="st1" d="M73.5,63.9l2.6,1.5l-2.3,1.3l-2.5-1.5c-1.2,0.6-2.5,1.1-3.9,1.5s-2.6,0.7-3.7,0.7L62.1,65
							c1-0.1,2-0.3,3.1-0.6c1.1-0.3,2.1-0.6,3-1.1l-3.9-2.2c-1.3,0.5-2.6,0.9-3.6,1.1c-1.1,0.3-2.2,0.3-3.3,0.3
							c-1.1-0.1-2.2-0.4-3.3-1c-1.3-0.7-1.9-1.6-1.9-2.7c0-1.1,0.8-2.2,2.4-3.3L52,54.1l2.3-1.3l2.5,1.5c2-1,4.1-1.6,6.1-1.9
							l1.7,2.3c-1.8,0.3-3.4,0.7-4.7,1.4l3.9,2.3c1.3-0.5,2.5-0.9,3.6-1.1c1.1-0.2,2.2-0.3,3.3-0.3c1.1,0.1,2.2,0.4,3.2,1
							c1.3,0.7,1.9,1.6,1.9,2.7C75.7,61.6,75,62.7,73.5,63.9z M59,59.7c0.6,0,1.2-0.2,1.9-0.4l-3.3-1.9c-0.4,0.4-0.7,0.8-0.6,1.1
							c0,0.3,0.2,0.6,0.6,0.9C58,59.6,58.5,59.7,59,59.7 M67.2,60.3l3.2,1.8c0.4-0.4,0.6-0.8,0.6-1.1s-0.2-0.6-0.6-0.8
							s-0.9-0.3-1.4-0.3C68.6,59.9,67.9,60.1,67.2,60.3"/>
					</g>
					<g>
						<path class="st0" d="M116.1,96.1c-0.1-0.1-0.2-0.1-0.3-0.2c-9.5-5.5-25-5.5-34.5,0C81.2,96,81.1,96,81,96.1h-6.8v8.1
							c0,3.6,2.4,7.2,7.1,10c9.5,5.5,25,5.5,34.5,0c4.8-2.8,7.1-6.4,7.1-10v-8.1H116.1z"/>
						<path class="st1" d="M115.8,114.2c4.8-2.8,7.1-6.4,7.1-10v-8.1h-6.8c-0.1-0.1-0.2-0.1-0.3-0.2c-4.8-2.8-11-4.1-17.3-4.1v26.5
							C104.8,118.3,111,117,115.8,114.2z"/>
						<ellipse class="st0" cx="98.5" cy="96.1" rx="24.4" ry="14.1"/>
						<path class="st2" d="M98.5,111.2c-6.4,0-12.9-1.4-17.8-4.2c-4.9-2.8-7.6-6.7-7.6-10.8c0-4.1,2.7-8,7.6-10.8
							c9.8-5.7,25.7-5.7,35.5,0l0,0c4.9,2.8,7.6,6.7,7.6,10.8c0,4.1-2.7,8-7.6,10.8C111.4,109.8,105,111.2,98.5,111.2z M98.5,83
							c-6.1,0-12.1,1.3-16.8,4c-4.3,2.5-6.6,5.7-6.6,9.1s2.4,6.6,6.6,9.1c9.2,5.3,24.3,5.3,33.5,0c4.3-2.5,6.6-5.7,6.6-9.1
							s-2.4-6.6-6.6-9.1C110.7,84.4,104.6,83,98.5,83z"/>
						<ellipse class="st3" cx="98.5" cy="104.3" rx="24.4" ry="14.1"/>
						<path class="st4" d="M98.5,119.3c-6.7,0-13-1.5-17.8-4.3c-4.9-2.8-7.6-6.7-7.6-10.8v-8.1c0-4.1,2.7-8,7.6-10.8
							c9.8-5.7,25.7-5.7,35.5,0c4.9,2.8,7.6,6.7,7.6,10.8v8.1c0,1.5-0.4,3-1.1,4.5c-1.2,2.4-3.5,4.6-6.5,6.4
							c-2.4,1.4-5.2,2.5-8.3,3.2c-0.7,0.2-1.5,0.3-2.3,0.5c-1.5,0.3-3.1,0.4-4.7,0.5C100.1,119.3,99.3,119.3,98.5,119.3z M98.5,83
							c-6.1,0-12.1,1.3-16.8,4c-4.3,2.5-6.6,5.7-6.6,9.1v8.1c0,3.4,2.4,6.6,6.6,9.1c4.5,2.6,10.4,4,16.8,4c0.8,0,1.5,0,2.3-0.1
							c1.5-0.1,3-0.3,4.5-0.5c0.7-0.1,1.5-0.3,2.2-0.4c2.9-0.7,5.6-1.7,7.8-3c2.7-1.6,4.7-3.5,5.8-5.5c0.6-1.2,0.9-2.4,0.9-3.6v-8.1
							c0-3.4-2.4-6.6-6.6-9.1C110.7,84.4,104.6,83,98.5,83z"/>
						<path class="st1" d="M108,100.1l2.6,1.5l-2.3,1.3l-2.5-1.5c-1.2,0.6-2.5,1.1-3.9,1.5s-2.6,0.7-3.7,0.7l-1.6-2.4
							c1-0.1,2-0.3,3.1-0.6c1.1-0.3,2.1-0.6,3-1.1l-3.9-2.2c-1.3,0.5-2.6,0.9-3.6,1.1c-1.1,0.3-2.2,0.3-3.3,0.3
							c-1.1-0.1-2.2-0.4-3.3-1c-1.3-0.7-1.9-1.6-1.9-2.7s0.8-2.2,2.4-3.3l-2.6-1.5l2.3-1.3l2.5,1.5c2-1,4.1-1.6,6.1-1.9l1.7,2.3
							c-1.8,0.3-3.4,0.7-4.7,1.4l3.9,2.3c1.3-0.5,2.5-0.9,3.6-1.1s2.2-0.3,3.3-0.3c1.1,0.1,2.2,0.4,3.2,1c1.3,0.7,1.9,1.6,1.9,2.7
							C110.2,97.8,109.5,98.9,108,100.1z M93.5,95.9c0.6,0,1.2-0.2,1.9-0.4l-3.3-1.9c-0.4,0.4-0.7,0.8-0.6,1.1
							c0,0.3,0.2,0.6,0.6,0.9C92.5,95.8,93,95.9,93.5,95.9 M101.7,96.5l3.2,1.8c0.4-0.4,0.6-0.8,0.6-1.1c0-0.3-0.2-0.6-0.6-0.8
							c-0.4-0.2-0.9-0.3-1.4-0.3C103.1,96.1,102.4,96.3,101.7,96.5"/>
					</g>
				</g>
				<rect x="4" y="4" class="st3" width="120" height="120"/>
				<g>
					<rect x="4" y="4" class="st3" width="120" height="120"/>
				</g>
			</g>
		</g>
	</g>
	<g>
		<rect class="st3" width="128" height="128"/>
	</g>
</g>
</svg>
