<?xml version="1.0" encoding="utf-8"?>
<!-- Generator: Adobe Illustrator 24.1.0, SVG Export Plug-In . SVG Version: 6.00 Build 0)  -->
<svg version="1.1" id="Layer_1" xmlns="http://www.w3.org/2000/svg" xmlns:xlink="http://www.w3.org/1999/xlink" x="0px" y="0px"
	 viewBox="0 0 128 128" style="enable-background:new 0 0 128 128;" xml:space="preserve">
<style type="text/css">
	.st0{fill:#FFFFFF;}
	.st1{fill:#4D9987;}
	.st2{fill:#E9EBDF;}
	.st3{fill:#0E352C;}
	.st4{fill:#27ae60;}
	.st5{fill:#C4D7D3;}
	.st6{fill:none;}
	.st7{fill:#185849;}
</style>
<g id="Layer_1_1_">
</g>
<g>
	<g id="Layer_2_1_">
		<g id="Actions_1_">
			<g>
				<g>
					<g>
						<g>
							<g>
								<g>
									<g>
										<path class="st0" d="M79.2,9.4l-7.5-4.3l0,0C71.5,5,71.2,5,71,5.1L7.7,41.7C7.1,42,6.6,43,6.6,43.8v61.4
											c0,0.4,0.1,0.7,0.4,0.9l0,0l7.5,4.3l6.3-12L71,64.5c0.6-0.3,1.1-1.3,1.1-2.1V18.9L79.2,9.4z"/>
										<path class="st1" d="M14.5,111.3c-0.2,0-0.3,0-0.5-0.1l-7.5-4.3c-0.1,0-0.1-0.1-0.2-0.1c-0.5-0.3-0.7-0.9-0.7-1.6V43.7
											c0-1.2,0.7-2.4,1.6-3L70.5,4.3C71,4,71.5,3.9,72,4.1c0.1,0,0.1,0,0.2,0.1l7.5,4.3c0.2,0.1,0.4,0.4,0.5,0.7s0,0.6-0.2,0.8
											l-6.9,9.3v43.1c0,1.2-0.7,2.4-1.6,3L21.6,99.1l-6.2,11.8c-0.1,0.2-0.3,0.4-0.6,0.5C14.7,111.3,14.6,111.3,14.5,111.3z
											 M7.6,105.2l6.5,3.7l5.8-11.1c0.1-0.1,0.2-0.3,0.3-0.4l50.1-33.9c0.3-0.2,0.7-0.8,0.7-1.3V18.9c0-0.2,0.1-0.4,0.2-0.6
											l6.5-8.6L71.4,6L8.2,42.5c-0.3,0.2-0.6,0.7-0.6,1.2V105.2L7.6,105.2z M7.5,105.1L7.5,105.1L7.5,105.1z"/>
									</g>
									<path class="st2" d="M14.1,110.1V37.9l-6.4,3.7c-0.6,0.3-1.1,1.3-1.1,2.1v61.4c0,0.4,0.1,0.7,0.4,0.9l0,0L14.1,110.1z"/>
									<g>
										<path class="st1" d="M49.2,77.1L71,64.5c0.6-0.3,1.1-1.3,1.1-2.1V18.9l7.1-9.5l-7.5-4.3l0,0C71.5,5,71.2,5,71,5.1
											L7.7,41.7C7.1,42,6.6,43,6.6,43.8v8.8L49.2,77.1z"/>
										<path class="st3" d="M49.2,78.1c-0.2,0-0.3,0-0.5-0.1L6.1,53.4c-0.3-0.2-0.5-0.5-0.5-0.9v-8.8c0-1.2,0.7-2.4,1.6-3
											L70.5,4.3C71,4,71.5,3.9,72,4.1c0.1,0,0.1,0,0.2,0.1l7.5,4.3c0.2,0.1,0.4,0.4,0.5,0.7s0,0.6-0.2,0.8l-6.9,9.3v43.1
											c0,1.2-0.7,2.4-1.6,3L49.7,77.9C49.5,78,49.3,78.1,49.2,78.1z M7.6,51.9l41.6,24l21.3-12.3c0.3-0.2,0.6-0.7,0.6-1.2V18.9
											c0-0.2,0.1-0.4,0.2-0.6l6.5-8.6L71.4,6L8.2,42.5c-0.3,0.2-0.6,0.7-0.6,1.2V51.9z"/>
									</g>
									<path class="st2" d="M51.2,69.5L72,40.4V18.9l7.1-9.5l-7.5-4.3l0,0C71.5,5,71.2,5,71,5.1L7.7,41.7C7.1,42,6.6,43,6.6,43.8
										l0,0L51.2,69.5z"/>
									<g>
										<path class="st0" d="M78.5,73.8l-63.3,36.5c-0.6,0.3-1.1,0-1.1-0.8V48.1c0-0.8,0.5-1.7,1.1-2.1L78.5,9.5
											c0.6-0.3,1.1,0,1.1,0.8v61.4C79.6,72.5,79.1,73.4,78.5,73.8z"/>
										<path class="st1" d="M14.8,111.4c-0.3,0-0.5-0.1-0.8-0.2c-0.6-0.3-0.9-1-0.9-1.8V48.1c0-1.2,0.7-2.4,1.6-3L78,8.6
											c0.6-0.3,1.2-0.4,1.7-0.1c0.6,0.3,0.9,1,0.9,1.7v61.4c0,1.2-0.7,2.4-1.6,3l-63.3,36.5C15.4,111.3,15.1,111.4,14.8,111.4z
											 M78.6,10.6L15.7,46.9c-0.3,0.2-0.6,0.7-0.6,1.2v61.1L78,72.9l0,0c0.3-0.2,0.6-0.7,0.6-1.2V10.6z"/>
									</g>
									<path class="st3" d="M14.8,111.4c-0.2,0-0.4,0-0.6-0.1c-0.1,0-0.1,0-0.2-0.1l-7.5-4.3c-0.1,0-0.1-0.1-0.2-0.1
										c-0.5-0.3-0.7-0.9-0.7-1.6V43.7c0-1.2,0.7-2.4,1.6-3L70.5,4.3C71,4,71.5,3.9,72,4.1c0.1,0,0.1,0,0.2,0.1l7.5,4.3
										c0.1,0,0.1,0.1,0.2,0.1c0.5,0.3,0.7,0.9,0.7,1.6v61.4c0,1.2-0.7,2.4-1.6,3l-63.3,36.5C15.4,111.3,15.1,111.4,14.8,111.4z
										 M7.6,105.2l7.2,4.2L78,72.9c0.3-0.2,0.6-0.7,0.6-1.2V10.3v-0.1L71.4,6L8.2,42.5c-0.3,0.2-0.6,0.7-0.6,1.2V105.2L7.6,105.2
										z M7.5,105.1L7.5,105.1L7.5,105.1z M78.7,10.3L78.7,10.3L78.7,10.3z"/>
									<g>
										<path class="st3" d="M79.6,19v-8.8c0-0.8-0.5-1.2-1.1-0.8L15.2,46c-0.6,0.3-1.1,1.3-1.1,2.1v8.8L79.6,19z"/>
										<path class="st3" d="M14.1,57.8c-0.2,0-0.3,0-0.5-0.1c-0.3-0.2-0.5-0.5-0.5-0.9V48c0-1.2,0.7-2.4,1.6-3L78,8.6
											c0.6-0.3,1.2-0.4,1.7-0.1c0.6,0.3,0.9,1,0.9,1.7V19c0,0.4-0.2,0.7-0.5,0.9L14.6,57.7C14.5,57.8,14.3,57.8,14.1,57.8z
											 M78.6,10.6L15.7,46.9c-0.3,0.2-0.6,0.7-0.6,1.2v7l63.4-36.6L78.6,10.6L78.6,10.6z M79.6,19L79.6,19L79.6,19z"/>
									</g>
									<g>
										
											<ellipse transform="matrix(0.3916 -0.9201 0.9201 0.3916 -27.8616 50.3285)" class="st2" cx="24.1" cy="46.2" rx="1.9" ry="1.1"/>
										
											<ellipse transform="matrix(0.3916 -0.9201 0.9201 0.3916 -22.3842 53.0736)" class="st0" cx="28.9" cy="43.5" rx="1.9" ry="1.1"/>
										
											<ellipse transform="matrix(0.3916 -0.9201 0.9201 0.3916 -33.4402 47.5527)" class="st1" cx="19.2" cy="49.1" rx="1.9" ry="1.1"/>
									</g>
								</g>
								<path class="st1" d="M21.2,98.6c-0.3,0-0.7-0.2-0.9-0.5c-0.3-0.5-0.1-1.1,0.4-1.4l51.1-29.5c0.5-0.3,1.1-0.1,1.4,0.4
									s0.1,1.1-0.4,1.4L21.7,98.5C21.5,98.6,21.3,98.6,21.2,98.6z"/>
								<path class="st1" d="M21.2,98.6c-0.6,0-1-0.4-1-1V61.3c0-0.6,0.4-1,1-1s1,0.4,1,1v36.3C22.2,98.2,21.7,98.6,21.2,98.6z"/>
								<path class="st4" d="M41.3,67.1c-0.2,0-0.4-0.1-0.6-0.2l-6.8-5.1l-7.2,0.5c-0.6,0-1-0.4-1.1-0.9c0-0.6,0.4-1,0.9-1.1
									l7.5-0.5c0.2,0,0.5,0.1,0.7,0.2l6.4,4.8l6.6-6.5c0.3-0.3,0.8-0.4,1.2-0.2l8.2,4.5l7.7-3c0.3-0.1,0.5-0.1,0.8,0l5.1,2.4
									c0.5,0.2,0.7,0.8,0.5,1.3s-0.8,0.7-1.3,0.5l-4.7-2.2l-7.8,3c-0.3,0.1-0.6,0.1-0.8-0.1l-7.9-4.3L42,66.8
									C41.8,67,41.6,67.1,41.3,67.1z"/>
							</g>
						</g>
						<g>
							<path class="st5" d="M116,89.3c-0.1-0.1-0.2-0.1-0.3-0.2c-7.6-4.4-20-4.4-27.6,0c-0.1,0.1-0.2,0.1-0.3,0.2h-5.4v6.5
								c0,2.9,1.9,5.8,5.7,8c7.6,4.4,20,4.4,27.6,0c3.8-2.2,5.7-5.1,5.7-8v-6.5H116z"/>
							<path class="st4" d="M115.7,103.8c3.8-2.2,5.7-5.1,5.7-8v-6.5H116c-0.1-0.1-0.2-0.1-0.3-0.2c-3.8-2.2-8.8-3.3-13.8-3.3V107
								C106.9,107.1,111.9,106,115.7,103.8z"/>
							<ellipse class="st5" cx="101.9" cy="89.3" rx="19.5" ry="11.3"/>
							<path class="st0" d="M101.9,101.5c-5.2,0-10.3-1.1-14.3-3.4s-6.2-5.4-6.2-8.8s2.2-6.5,6.2-8.8c7.9-4.5,20.7-4.5,28.6,0l0,0
								c4,2.3,6.2,5.4,6.2,8.8s-2.2,6.5-6.2,8.8S107.1,101.5,101.9,101.5z M101.9,79c-4.8,0-9.6,1.1-13.3,3.2
								c-3.4,1.9-5.2,4.5-5.2,7.1s1.9,5.2,5.2,7.1c7.3,4.2,19.2,4.2,26.6,0c3.4-1.9,5.2-4.5,5.2-7.1s-1.9-5.2-5.2-7.1l0,0
								C111.5,80.1,106.7,79,101.9,79z"/>
							<ellipse class="st6" cx="101.9" cy="95.8" rx="19.5" ry="11.3"/>
							<path class="st7" d="M101.9,108.1c-5.4,0-10.5-1.2-14.3-3.4c-4-2.3-6.2-5.4-6.2-8.8v-6.5c0-3.4,2.2-6.5,6.2-8.8
								c7.9-4.5,20.7-4.5,28.6,0c4,2.3,6.2,5.4,6.2,8.8v6.5c0,1.2-0.3,2.5-0.9,3.7c-1,2-2.8,3.7-5.3,5.2c-1.9,1.1-4.2,2-6.7,2.6
								c-0.6,0.1-1.2,0.3-1.8,0.4c-1.2,0.2-2.5,0.4-3.8,0.4C103.2,108,102.5,108.1,101.9,108.1z M101.9,79c-4.8,0-9.6,1.1-13.3,3.2
								c-3.4,1.9-5.2,4.5-5.2,7.1v6.5c0,2.6,1.9,5.2,5.2,7.1c3.5,2,8.3,3.2,13.3,3.2c0.6,0,1.2,0,1.8-0.1c1.2-0.1,2.4-0.2,3.6-0.4
								c0.6-0.1,1.2-0.2,1.7-0.3c2.3-0.5,4.4-1.3,6.2-2.4c2.1-1.2,3.7-2.7,4.5-4.3c0.5-0.9,0.7-1.8,0.7-2.7v-6.5
								c0-2.6-1.9-5.2-5.2-7.1C111.5,80.1,106.7,79,101.9,79z"/>
							<path class="st4" d="M109.4,92.5l2.1,1.2l-1.8,1.1l-2-1.2c-1,0.5-2,0.9-3.1,1.2c-1.1,0.3-2.1,0.5-3,0.6l-1.2-1.9
								c0.8-0.1,1.6-0.2,2.5-0.5c0.9-0.2,1.7-0.5,2.4-0.9l-3.1-1.8c-1.1,0.4-2.1,0.7-2.9,0.9c-0.9,0.2-1.7,0.3-2.7,0.2
								c-0.9-0.1-1.8-0.3-2.6-0.8c-1-0.6-1.5-1.3-1.5-2.2c0-0.8,0.6-1.7,1.9-2.6l-2.1-1.2l1.8-1.1l2,1.2c1.6-0.8,3.3-1.3,4.9-1.5
								l1.3,1.8c-1.5,0.2-2.7,0.6-3.8,1.1l3.1,1.8c1-0.4,2-0.7,2.8-0.9c0.9-0.2,1.7-0.3,2.6-0.2c0.9,0.1,1.8,0.3,2.6,0.8
								c1,0.6,1.5,1.3,1.5,2.1C111.3,90.7,110.7,91.5,109.4,92.5z M97.9,89.1c0.4,0,1-0.1,1.5-0.3l-2.6-1.5
								c-0.4,0.3-0.5,0.6-0.5,0.9s0.2,0.5,0.5,0.7C97.1,89,97.5,89.1,97.9,89.1 M104.4,89.6l2.6,1.5c0.3-0.3,0.5-0.6,0.5-0.9
								s-0.2-0.5-0.5-0.6s-0.7-0.3-1.1-0.2C105.5,89.3,105,89.4,104.4,89.6"/>
						</g>
						<g>
							<path class="st5" d="M88.4,105.2c-0.1-0.1-0.2-0.1-0.3-0.2c-7.6-4.4-20-4.4-27.6,0c-0.1,0.1-0.2,0.1-0.3,0.2h-5.4v6.5
								c0,2.9,1.9,5.8,5.7,8c7.6,4.4,20,4.4,27.6,0c3.8-2.2,5.7-5.1,5.7-8v-6.5H88.4z"/>
							<path class="st4" d="M88.1,119.7c3.8-2.2,5.7-5.1,5.7-8v-6.5h-5.4c-0.1-0.1-0.2-0.1-0.3-0.2c-3.8-2.2-8.8-3.3-13.8-3.3V123
								C79.3,123,84.3,121.9,88.1,119.7z"/>
							<ellipse class="st5" cx="74.3" cy="105.2" rx="19.5" ry="11.3"/>
							<path class="st0" d="M74.3,117.5c-5.2,0-10.3-1.1-14.3-3.4s-6.2-5.4-6.2-8.8s2.2-6.5,6.2-8.8c7.9-4.5,20.7-4.5,28.6,0l0,0
								c4,2.3,6.2,5.4,6.2,8.8s-2.2,6.5-6.2,8.8C84.7,116.3,79.5,117.5,74.3,117.5z M74.3,95c-4.8,0-9.6,1.1-13.3,3.2
								c-3.4,1.9-5.2,4.5-5.2,7.1s1.9,5.2,5.2,7.1c7.3,4.2,19.2,4.2,26.6,0c3.4-1.9,5.2-4.5,5.2-7.1s-1.9-5.2-5.2-7.1
								C83.9,96,79.1,95,74.3,95z"/>
							<ellipse class="st6" cx="74.3" cy="111.7" rx="19.5" ry="11.3"/>
							<path class="st7" d="M74.3,124c-5.4,0-10.5-1.2-14.3-3.4c-4-2.3-6.2-5.4-6.2-8.8v-6.5c0-3.4,2.2-6.5,6.2-8.8
								c7.9-4.5,20.7-4.5,28.6,0c4,2.3,6.2,5.4,6.2,8.8v6.5c0,1.2-0.3,2.5-0.9,3.7c-1,2-2.8,3.7-5.3,5.2c-1.9,1.1-4.2,2-6.7,2.6
								c-0.6,0.1-1.2,0.3-1.8,0.4c-1.2,0.2-2.5,0.4-3.8,0.4C75.6,124,75,124,74.3,124z M74.3,95c-4.8,0-9.6,1.1-13.3,3.2
								c-3.4,1.9-5.2,4.5-5.2,7.1v6.5c0,2.6,1.9,5.2,5.2,7.1c3.5,2,8.3,3.2,13.3,3.2c0.6,0,1.2,0,1.8,0c1.2-0.1,2.4-0.2,3.6-0.4
								c0.6-0.1,1.2-0.2,1.7-0.3c2.3-0.5,4.4-1.3,6.2-2.4c2.1-1.2,3.7-2.7,4.5-4.3c0.5-0.9,0.7-1.8,0.7-2.7l0,0v-6.5
								c0-2.6-1.9-5.2-5.2-7.1C83.9,96,79.1,95,74.3,95z"/>
							<path class="st4" d="M81.9,108.4l2.1,1.2l-1.8,1.1l-2-1.2c-1,0.5-2,0.9-3.1,1.2c-1.1,0.3-2.1,0.5-3,0.6l-1.2-1.9
								c0.8-0.1,1.6-0.2,2.5-0.5c0.9-0.2,1.7-0.5,2.4-0.9l-3.1-1.8c-1.1,0.4-2.1,0.7-2.9,0.9c-0.9,0.2-1.7,0.3-2.7,0.2
								c-0.9-0.1-1.8-0.3-2.6-0.8c-1-0.6-1.5-1.3-1.5-2.2c0-0.8,0.6-1.7,1.9-2.6l-2.1-1.2l1.8-1.1l2,1.2c1.6-0.8,3.3-1.3,4.9-1.5
								l1.3,1.8c-1.5,0.2-2.7,0.6-3.8,1.1l3.1,1.8c1-0.4,2-0.7,2.8-0.9c0.9-0.2,1.7-0.3,2.6-0.2c0.9,0.1,1.8,0.3,2.6,0.8
								c1,0.6,1.5,1.3,1.5,2.1C83.7,106.6,83.1,107.5,81.9,108.4z M70.3,105c0.4,0,1-0.1,1.5-0.3l-2.6-1.5c-0.4,0.3-0.5,0.6-0.5,0.9
								s0.2,0.5,0.5,0.7C69.5,105,69.9,105.1,70.3,105 M76.9,105.5l2.6,1.5c0.3-0.3,0.5-0.6,0.5-0.9s-0.2-0.5-0.5-0.6
								s-0.7-0.3-1.1-0.2C77.9,105.3,77.4,105.4,76.9,105.5"/>
						</g>
						<g>
							<path class="st5" d="M88.4,98.7c-0.1-0.1-0.2-0.1-0.3-0.2c-7.6-4.4-20-4.4-27.6,0c-0.1,0.1-0.2,0.1-0.3,0.2h-5.4v6.5
								c0,2.9,1.9,5.8,5.7,8c7.6,4.4,20,4.4,27.6,0c3.8-2.2,5.7-5.1,5.7-8v-6.5H88.4z"/>
							<path class="st4" d="M88.1,113.2c3.8-2.2,5.7-5.1,5.7-8v-6.5h-5.4c-0.1-0.1-0.2-0.1-0.3-0.2c-3.8-2.2-8.8-3.3-13.8-3.3v21.2
								C79.3,116.5,84.3,115.4,88.1,113.2z"/>
							<ellipse class="st5" cx="74.3" cy="98.7" rx="19.5" ry="11.3"/>
							<path class="st0" d="M74.3,111c-5.2,0-10.3-1.1-14.3-3.4s-6.2-5.4-6.2-8.8S56,92.3,60,90c7.9-4.5,20.7-4.5,28.6,0
								c4,2.3,6.2,5.4,6.2,8.8s-2.2,6.5-6.2,8.8C84.7,109.8,79.5,111,74.3,111z M74.3,88.5c-4.8,0-9.6,1.1-13.3,3.2
								c-3.4,1.9-5.2,4.5-5.2,7.1s1.9,5.2,5.2,7.1c7.3,4.2,19.2,4.2,26.6,0c3.4-1.9,5.2-4.5,5.2-7.1s-1.9-5.2-5.2-7.1
								C83.9,89.5,79.1,88.5,74.3,88.5z"/>
							<ellipse class="st6" cx="74.3" cy="105.2" rx="19.5" ry="11.3"/>
							<path class="st7" d="M74.3,117.5c-5.4,0-10.5-1.2-14.3-3.4c-4-2.3-6.2-5.4-6.2-8.8v-6.5c0-3.4,2.2-6.5,6.2-8.8
								c7.9-4.5,20.7-4.5,28.6,0c4,2.3,6.2,5.4,6.2,8.8v6.5c0,1.2-0.3,2.5-0.9,3.7c-1,2-2.8,3.7-5.3,5.2c-1.9,1.1-4.2,2-6.7,2.6
								c-0.6,0.1-1.2,0.3-1.8,0.4c-1.2,0.2-2.5,0.4-3.8,0.4C75.6,117.5,75,117.5,74.3,117.5z M74.3,88.5c-4.8,0-9.6,1.1-13.3,3.2
								c-3.4,1.9-5.2,4.5-5.2,7.1v6.5c0,2.6,1.9,5.2,5.2,7.1c3.5,2,8.3,3.2,13.3,3.2c0.6,0,1.2,0,1.8-0.1c1.2-0.1,2.4-0.2,3.6-0.4
								c0.6-0.1,1.2-0.2,1.7-0.3c2.3-0.5,4.4-1.3,6.2-2.4c2.1-1.2,3.7-2.7,4.5-4.3c0.5-0.9,0.7-1.8,0.7-2.7l0,0v-6.5
								c0-2.6-1.9-5.2-5.2-7.1C83.9,89.5,79.1,88.5,74.3,88.5z"/>
							<path class="st4" d="M81.9,101.9l2.1,1.2l-1.8,1.1l-2-1.2c-1,0.5-2,0.9-3.1,1.2c-1.1,0.3-2.1,0.5-3,0.6l-1.2-1.9
								c0.8-0.1,1.6-0.2,2.5-0.5c0.9-0.2,1.7-0.5,2.4-0.9l-3.1-1.8c-1.1,0.4-2.1,0.7-2.9,0.9c-0.9,0.2-1.7,0.3-2.7,0.2
								c-0.9-0.1-1.8-0.3-2.6-0.8c-1-0.6-1.5-1.3-1.5-2.2c0-0.8,0.6-1.7,1.9-2.6L64.8,94l1.8-1.1l2,1.2c1.6-0.8,3.3-1.3,4.9-1.5
								l1.3,1.8c-1.5,0.2-2.7,0.6-3.8,1.1l3.1,1.8c1-0.4,2-0.7,2.8-0.9c0.9-0.2,1.7-0.3,2.6-0.2c0.9,0.1,1.8,0.3,2.6,0.8
								c1,0.6,1.5,1.3,1.5,2.1C83.7,100.1,83.1,101,81.9,101.9z M70.3,98.5c0.4,0,1-0.1,1.5-0.3l-2.6-1.5c-0.4,0.3-0.5,0.6-0.5,0.9
								s0.2,0.5,0.5,0.7C69.5,98.5,69.9,98.6,70.3,98.5 M76.9,99l2.6,1.5c0.3-0.3,0.5-0.6,0.5-0.9s-0.2-0.5-0.5-0.6
								s-0.7-0.3-1.1-0.2C77.9,98.8,77.4,98.9,76.9,99"/>
						</g>
					</g>
				</g>
				<rect x="4" y="4" class="st6" width="120" height="120"/>
				<rect x="4" y="4" class="st6" width="120" height="120"/>
			</g>
		</g>
	</g>
	<g>
		<rect class="st6" width="128" height="128"/>
	</g>
</g>
</svg>
