<?xml version="1.0" encoding="utf-8"?>
<!-- Generator: Adobe Illustrator 24.1.0, SVG Export Plug-In . SVG Version: 6.00 Build 0)  -->
<svg version="1.1" id="Layer_1" xmlns="http://www.w3.org/2000/svg" xmlns:xlink="http://www.w3.org/1999/xlink" x="0px" y="0px"
	 viewBox="0 0 128 128" style="enable-background:new 0 0 128 128;" xml:space="preserve">
<style type="text/css">
	.st0{fill:#E9EBDF;}
	.st1{fill:#4D9987;}
	.st2{fill:#FFFFFF;}
	.st3{fill:#0E352C;}
	.st4{fill:#27ae60;}
	.st5{fill:none;}
</style>
<g id="Layer_1_1_">
</g>
<g>
	<g id="Layer_2_1_">
		<g id="Objects_1_">
			<g>
				<g>
					<g>
						<path class="st0" d="M120.5,98.6L120.5,98.6L51.8,58.9l-8,13.9l68.7,39.7l0,0l0,0c2.8,1.6,6.8-0.2,9-4
							C123.8,104.6,123.3,100.2,120.5,98.6z"/>
						<path class="st1" d="M114.8,114c-0.9,0-1.8-0.2-2.6-0.6c-0.1,0-0.1,0-0.2-0.1L43.3,73.6c-0.2-0.1-0.4-0.4-0.5-0.6
							c-0.1-0.3,0-0.5,0.1-0.8l8-13.9c0.3-0.5,0.9-0.6,1.4-0.4L121,97.7c0.1,0,0.1,0.1,0.2,0.1c1.5,1,2.5,2.6,2.7,4.7
							s-0.3,4.3-1.5,6.3s-2.9,3.6-4.8,4.5C116.7,113.8,115.7,114,114.8,114z M112.9,111.5c0.1,0,0.1,0,0.2,0.1
							c1.1,0.6,2.4,0.6,3.8,0c1.5-0.7,2.9-2,3.8-3.6c1-1.7,1.4-3.5,1.2-5.1c-0.2-1.5-0.8-2.7-1.9-3.3c-0.1,0-0.1-0.1-0.2-0.1
							L52.2,60.3l-7,12.1L112.9,111.5z"/>
					</g>
					<path class="st2" d="M120.5,98.6L120.5,98.6L56.8,61.8l-4,6.9l62.7,36.2c3.5,2,7.7-1.7,5.9-5.3
						C121.2,99.2,120.9,98.8,120.5,98.6z"/>
					<path class="st3" d="M114.8,114c-0.9,0-1.8-0.2-2.6-0.6c-0.1,0-0.1,0-0.2-0.1L43.3,73.6c-0.2-0.1-0.4-0.4-0.5-0.6
						c-0.1-0.3,0-0.5,0.1-0.8l8-13.9c0.3-0.5,0.9-0.6,1.4-0.4L121,97.7c0.1,0,0.1,0.1,0.2,0.1c1.5,1,2.5,2.6,2.7,4.7
						s-0.3,4.3-1.5,6.3s-2.9,3.6-4.8,4.5C116.7,113.8,115.7,114,114.8,114z M112.9,111.5c0.1,0,0.1,0,0.2,0.1c1.1,0.6,2.4,0.6,3.8,0
						c1.5-0.7,2.9-2,3.8-3.6c1-1.7,1.4-3.5,1.2-5.1c-0.2-1.5-0.8-2.7-1.9-3.3c-0.1,0-0.1-0.1-0.2-0.1L52.2,60.3l-7,12.1L112.9,111.5
						z"/>
					<g>
						<path class="st1" d="M77,70.4L77,70.4L58.5,59.7L47.7,78.4L66.2,89l0,0l0,0c3.8,2.2,9.2-0.3,12.2-5.4
							C81.4,78.5,80.7,72.5,77,70.4z"/>
						<path class="st1" d="M69.2,90.8c-1.2,0-2.3-0.3-3.4-0.8c-0.1,0-0.1-0.1-0.2-0.1L47.2,79.3c-0.5-0.3-0.6-0.9-0.4-1.4l10.8-18.7
							c0.3-0.5,0.9-0.6,1.4-0.4l18.4,10.7c0.1,0,0.1,0.1,0.2,0.1c2,1.2,3.2,3.4,3.5,6.1s-0.4,5.7-2,8.4S75.5,88.9,73,90
							C71.7,90.5,70.5,90.8,69.2,90.8z M66.5,88.1c0.1,0,0.1,0,0.2,0.1c1.5,0.9,3.5,0.9,5.5,0c2.1-0.9,4-2.7,5.3-5s1.9-4.9,1.7-7.1
							c-0.2-2.2-1.2-3.9-2.7-4.7c-0.1,0-0.1-0.1-0.2-0.1L58.9,61l-9.8,17L66.5,88.1z"/>
					</g>
					<path class="st0" d="M77,70.4L77,70.4l-13-7.5l-5.3,9.2l11.7,6.7c4.7,2.7,10.3-2.3,7.9-7.1C77.9,71.1,77.5,70.7,77,70.4z"/>
					<path class="st3" d="M69.2,90.8c-1.2,0-2.3-0.3-3.4-0.8c-0.1,0-0.1-0.1-0.2-0.1L47.2,79.3c-0.5-0.3-0.6-0.9-0.4-1.4l10.8-18.7
						c0.3-0.5,0.9-0.6,1.4-0.4l18.4,10.7c0.1,0,0.1,0.1,0.2,0.1c2,1.2,3.2,3.4,3.5,6.1s-0.4,5.7-2,8.4S75.5,88.9,73,90
						C71.7,90.5,70.5,90.8,69.2,90.8z M66.5,88.1c0.1,0,0.1,0,0.2,0.1c1.5,0.9,3.5,0.9,5.5,0c2.1-0.9,4-2.7,5.3-5s1.9-4.9,1.7-7.1
						c-0.2-2.2-1.2-3.9-2.7-4.7c-0.1,0-0.1-0.1-0.2-0.1L58.9,61l-9.8,17L66.5,88.1z"/>
					<path class="st0" d="M67.3,24.5L54.4,17l0,0c-5.2-3-12-2.7-19.5,1.6C18.4,28.1,5,53.6,5,75.6c0,12,4,20.5,10.3,24.1l0,0
						l12.9,7.5l2-6.9c1.5-0.6,3-1.3,4.6-2.2c16.5-9.5,29.8-35,29.8-57c0-4.1-0.5-7.7-1.3-10.9L67.3,24.5z"/>
					<path class="st2" d="M54.4,17L54.4,17c-5.2-3-12.1-2.7-19.5,1.6c-9,5.2-17.1,15.2-22.5,26.8l45.1,26c4.5-9.6,7.3-20.3,7.3-30.2
						c0-4.1-0.5-7.7-1.3-10.9l3.9-5.7L54.4,17z"/>
					<path class="st4" d="M28.3,108.2c-0.2,0-0.3,0-0.5-0.1l-12.9-7.5l-0.1-0.1C7.9,96.5,4,87.4,4,75.6c0-22.2,13.6-48.2,30.3-57.9
						c7.4-4.3,14.6-4.9,20.4-1.6c0.1,0,0.1,0,0.1,0.1l12.9,7.5c0.2,0.1,0.4,0.4,0.5,0.6c0.1,0.3,0,0.6-0.2,0.8l-3.7,5.3
						c0.8,3.2,1.2,6.9,1.2,10.8c0,22.2-13.6,48.2-30.3,57.9c-1.4,0.8-2.9,1.5-4.3,2.1l-1.8,6.4c-0.1,0.3-0.3,0.5-0.6,0.6
						C28.5,108.1,28.4,108.2,28.3,108.2z M16,98.9l11.7,6.8l1.6-5.6c0.1-0.3,0.3-0.5,0.6-0.7c1.5-0.5,3-1.3,4.4-2.1
						C50.5,88,63.6,62.8,63.6,41.2c0-3.9-0.4-7.5-1.3-10.7c-0.1-0.3,0-0.6,0.1-0.8l3.3-4.8l-11.7-7c0,0-0.1,0-0.1-0.1
						c-5.1-2.9-11.7-2.4-18.5,1.6C19.2,28.8,6,54,6,75.6c0,11.2,3.6,19.6,9.8,23.2C15.9,98.8,16,98.9,16,98.9z"/>
					<path class="st4" d="M47.8,66.8c-0.2,0-0.3,0-0.5-0.1l-12.9-7.5c-0.5-0.3-0.6-0.9-0.4-1.4c0.3-0.5,0.9-0.6,1.4-0.4L48.3,65
						c0.5,0.3,0.6,0.9,0.4,1.4C48.5,66.6,48.2,66.8,47.8,66.8z"/>
					<g>
						
							<ellipse transform="matrix(0.3916 -0.9201 0.9201 0.3916 -31.4875 84.0275)" class="st1" cx="47.8" cy="65.8" rx="45.8" ry="25.9"/>
						<path class="st1" d="M36,110.2c-2.9,0-5.7-0.7-8.2-2.1C20.9,104.1,17,95,17,83c0-22.2,13.6-48.2,30.3-57.9
							c7.5-4.3,14.8-4.9,20.5-1.6c6.9,4,10.8,13.1,10.8,25c0,22.2-13.6,48.2-30.3,57.9C44,108.9,39.8,110.2,36,110.2z M59.7,23.5
							c-3.5,0-7.4,1.2-11.4,3.4C32.1,36.3,19,61.4,19,83c0,11.2,3.6,19.7,9.8,23.3c5.1,2.9,11.7,2.4,18.5-1.6
							c16.2-9.3,29.3-34.5,29.3-56.1c0-11.2-3.6-19.7-9.8-23.3C64.7,24.1,62.3,23.5,59.7,23.5z"/>
					</g>
					<path class="st0" d="M38,100.7c-8.4,0-13.9-8.1-13.9-20.6c0-17.8,10.8-38.6,24.2-46.3c3.2-1.9,6.4-2.8,9.3-2.8
						c8.4,0,13.9,8.1,13.9,20.6c0,17.8-10.8,38.6-24.2,46.3C44.1,99.7,40.9,100.7,38,100.7z"/>
					<path class="st2" d="M65.6,76.1L30,55.6c-3.7,7.8-5.9,16.4-5.9,24.5c0,12.5,5.4,20.6,13.9,20.6c2.9,0,6-1,9.3-2.8
						C54.6,93.6,61.2,85.5,65.6,76.1z"/>
					<path class="st3" d="M38,101.7c-9,0-14.9-8.5-14.9-21.6C23.1,62,34.2,40.8,47.8,33c3.4-2,6.7-3,9.8-3c9,0,14.9,8.5,14.9,21.6
						c0,18.1-11.1,39.3-24.7,47.1C44.4,100.7,41.1,101.7,38,101.7z M57.6,32c-2.7,0-5.7,0.9-8.8,2.7c-13.1,7.5-23.7,27.9-23.7,45.4
						c0,11.9,5.1,19.6,12.9,19.6c2.7,0,5.7-0.9,8.8-2.7c13.1-7.5,23.7-27.9,23.7-45.4C70.5,39.7,65.4,32,57.6,32z"/>
					<path class="st3" d="M36,110.2c-2.9,0-5.6-0.7-8-2.1c-0.1,0-0.1,0-0.1-0.1L15,100.5l-0.1-0.1C7.9,96.5,4,87.4,4,75.6
						C4,62.4,8.9,47.3,17,35l0.1-0.1c0.3-0.5,0.6-0.9,0.9-1.4l0.2-0.3c0.3-0.4,0.6-0.8,0.9-1.2l0.3-0.4c0.3-0.4,0.6-0.8,0.9-1.1
						l0.3-0.4c0.3-0.4,0.6-0.7,0.9-1.1l0.3-0.4c0.9-1.1,1.9-2.2,2.9-3.2l0.2-0.2c0.1-0.1,0.3-0.3,0.4-0.4c0.2-0.2,0.3-0.3,0.5-0.5
						l0.2-0.2c0.3-0.3,0.5-0.5,0.7-0.7s0.4-0.4,0.6-0.6c0.3-0.2,0.5-0.5,0.8-0.7c0.2-0.2,0.4-0.4,0.6-0.5c0.3-0.2,0.5-0.4,0.8-0.6
						c0.2-0.2,0.4-0.3,0.6-0.5c0.3-0.2,0.6-0.4,0.9-0.6l0.1-0.1c0.2-0.1,0.3-0.2,0.5-0.3c0.3-0.2,0.6-0.4,1-0.7l0.5-0.3
						c0.5-0.3,1-0.6,1.5-0.9C42,13.3,49.2,12.7,55,16c0.1,0,0.1,0,0.1,0.1L68,23.6l0.1,0.1c6.8,4,10.7,13.1,10.7,24.9
						c0,22.2-13.6,48.2-30.3,57.9C44.1,108.9,39.9,110.2,36,110.2z M28.7,106.2c0,0,0.1,0,0.1,0.1c5.1,2.9,11.7,2.4,18.5-1.6
						c16.2-9.3,29.3-34.5,29.3-56.1c0-11.2-3.6-19.6-9.8-23.2l-0.1-0.1L54,17.9c0,0-0.1,0-0.1-0.1c-5.1-2.9-11.7-2.4-18.5,1.6
						c-0.5,0.3-0.9,0.6-1.4,0.9l-0.5,0.3c-0.3,0.2-0.6,0.4-0.9,0.6c-0.1,0.1-0.3,0.2-0.4,0.3L32,21.6c-0.3,0.2-0.5,0.4-0.8,0.6
						c-0.2,0.2-0.4,0.3-0.6,0.5c-0.3,0.2-0.5,0.4-0.8,0.6c-0.2,0.2-0.4,0.3-0.6,0.5s-0.5,0.4-0.7,0.6s-0.4,0.4-0.6,0.6
						s-0.4,0.4-0.6,0.6l-0.2,0.2c-0.2,0.2-0.3,0.3-0.5,0.5c-0.1,0.1-0.3,0.3-0.4,0.4L26,26.9c-0.9,1-1.9,2-2.8,3.1l-0.3,0.4
						c-0.3,0.3-0.6,0.7-0.8,1.1l-0.3,0.4c-0.3,0.4-0.6,0.7-0.8,1.1l-0.3,0.4c-0.3,0.4-0.6,0.8-0.9,1.2l-0.2,0.3
						c-0.3,0.4-0.6,0.9-0.9,1.3l-0.9-0.5l0.8,0.6C10.8,48,6,62.8,6,75.6c0,11.2,3.6,19.6,9.8,23.2l0.1,0.1L28.7,106.2z"/>
					<path class="st2" d="M48.3,33.8C35,41.5,24.1,62.2,24.1,80.1c0,5.2,1,9.6,2.7,13c2.4-0.3,5-1.2,7.6-2.7
						c13.3-7.7,24.2-28.5,24.2-46.3c0-5.2-1-9.6-2.7-13C53.5,31.4,50.9,32.3,48.3,33.8z"/>
					<path class="st3" d="M26.8,94.1c-0.4,0-0.7-0.2-0.9-0.6c-1.8-3.6-2.8-8.3-2.8-13.5c0-18.1,11.1-39.3,24.7-47.1l0.5,0.9
						l-0.5-0.9c2.7-1.6,5.4-2.5,8-2.8c0.4,0,0.8,0.2,1,0.5c1.8,3.6,2.8,8.3,2.8,13.5c0,18.1-11.1,39.3-24.7,47.1
						c-2.7,1.6-5.4,2.5-8,2.8C26.9,94.1,26.8,94.1,26.8,94.1z M55.3,32.2c-2.1,0.4-4.3,1.2-6.5,2.5c-13.1,7.5-23.7,27.9-23.7,45.4
						c0,4.6,0.8,8.7,2.2,11.9c2.1-0.4,4.3-1.2,6.5-2.5C46.9,82,57.5,61.6,57.5,44.1C57.5,39.5,56.8,35.4,55.3,32.2z"/>
				</g>
				<rect x="4" y="4" class="st5" width="120" height="120"/>
				<rect x="4" y="4" class="st5" width="120" height="120"/>
			</g>
		</g>
	</g>
	<g>
		<rect class="st5" width="128" height="128"/>
	</g>
</g>
</svg>
