<?xml version="1.0" encoding="utf-8"?>
<!-- Generator: Adobe Illustrator 24.1.0, SVG Export Plug-In . SVG Version: 6.00 Build 0)  -->
<svg version="1.1" id="Layer_1" xmlns="http://www.w3.org/2000/svg" xmlns:xlink="http://www.w3.org/1999/xlink" x="0px" y="0px"
	 viewBox="0 0 128 128" style="enable-background:new 0 0 128 128;" xml:space="preserve">
<style type="text/css">
	.st0{fill:#27ae60;}
	.st1{fill:#E9EBDF;}
	.st2{fill:#4D9987;}
	.st3{fill:#FFFFFF;}
	.st4{fill:#0E352C;}
	.st5{clip-path:url(#SVGID_2_);}
	.st6{fill:#C4D7D3;}
	.st7{fill:#185849;}
	.st8{clip-path:url(#SVGID_4_);}
	.st9{clip-path:url(#SVGID_6_);}
	.st10{clip-path:url(#SVGID_8_);fill:#185849;}
	.st11{clip-path:url(#SVGID_10_);fill:#C4D7D3;}
	.st12{fill:none;}
</style>
<g id="Layer_1_1_">
</g>
<g>
	<g id="Layer_2_1_">
		<g id="Industries_1_">
			<g>
				<g>
					<path class="st0" d="M87.7,86.2c-0.6,0-1-0.4-1-1V53.8c0-0.6,0.4-1,1-1s1,0.4,1,1v31.4C88.7,85.8,88.3,86.2,87.7,86.2z"/>
					<g>
						<path class="st1" d="M122,97.7c0-4.1-2.5-8.8-5.5-10.6l-69-39.8c-1.4-0.8-2.6-0.8-3.6-0.3l0,0l-36,20.7l76.3,55.2l35.9-20.7
							l0,0C121.3,101.5,122,99.9,122,97.7z"/>
						<path class="st2" d="M84.2,123.9c-0.2,0-0.4-0.1-0.6-0.2L7.3,68.5C7,68.3,6.9,68,6.9,67.6c0-0.3,0.2-0.6,0.5-0.8l35.9-20.7
							c0,0,0.1,0,0.1-0.1c1.3-0.7,2.9-0.6,4.5,0.4l69,39.8c3.4,2,6,7,6,11.4c0,2.4-0.8,4.4-2.3,5.3l-0.1,0.1l-35.9,20.7
							C84.5,123.8,84.3,123.9,84.2,123.9z M9.7,67.8l74.5,53.9l35.3-20.4c0,0,0.1,0,0.1-0.1c0.9-0.5,1.4-1.8,1.4-3.6
							c0-3.7-2.3-8.1-5-9.7L47,48.1c-0.7-0.4-1.7-0.8-2.6-0.3c0,0-0.1,0-0.1,0.1L9.7,67.8z"/>
					</g>
					<path class="st2" d="M70.3,102.9c-0.3,0-0.7-0.2-0.9-0.5c-0.3-0.5-0.1-1.1,0.4-1.4l35.9-20.7c0.5-0.3,1.1-0.1,1.4,0.4
						s0.1,1.1-0.4,1.4l-35.9,20.7C70.6,102.9,70.5,102.9,70.3,102.9z"/>
					<path class="st2" d="M54.6,94.4c-0.3,0-0.7-0.2-0.9-0.5c-0.3-0.5-0.1-1.1,0.4-1.4l36.4-21c0.5-0.3,1.1-0.1,1.4,0.4
						s0.1,1.1-0.4,1.4l-36.4,21C54.9,94.4,54.8,94.4,54.6,94.4z"/>
					<path class="st2" d="M40.5,85c-0.3,0-0.7-0.2-0.9-0.5c-0.3-0.5-0.1-1.1,0.4-1.4l35.4-20.4c0.5-0.3,1.1-0.1,1.4,0.4
						s0.1,1.1-0.4,1.4L41,84.9C40.8,85,40.7,85,40.5,85z"/>
					<path class="st2" d="M24.7,76.6c-0.3,0-0.7-0.2-0.9-0.5c-0.3-0.5-0.1-1.1,0.4-1.4l36-20.7c0.5-0.3,1.1-0.1,1.4,0.4
						c0.3,0.5,0.1,1.1-0.4,1.4l-36,20.7C25.1,76.6,24.9,76.6,24.7,76.6z"/>
					<g>
						<path class="st2" d="M84.2,122.9l35.9-20.7l0,0c1.2-0.7,1.9-2.2,1.9-4.5s-0.8-4.8-2-6.9l-44.2,25.5L84.2,122.9z"/>
						<path class="st2" d="M84.2,123.9c-0.2,0-0.4-0.1-0.6-0.2l-8.5-6.6c-0.3-0.2-0.4-0.5-0.4-0.9c0-0.3,0.2-0.6,0.5-0.8l44.2-25.5
							c0.5-0.3,1.1-0.1,1.4,0.4c1.4,2.3,2.2,5,2.2,7.4s-0.8,4.4-2.3,5.3l-0.1,0.1l-35.9,20.7C84.5,123.8,84.3,123.9,84.2,123.9z
							 M77.5,116.4l6.8,5.3l35.2-20.3c0,0,0.1,0,0.1-0.1c0.9-0.5,1.4-1.8,1.4-3.6c0-1.8-0.5-3.7-1.4-5.5L77.5,116.4z"/>
					</g>
					<g>
						<path class="st2" d="M80.6,122.6l-69-39.8C8.5,81,6,76.2,6,72.2l0,0c0-4.1,2.5-6,5.5-4.2l69,39.8c3.1,1.8,5.5,6.5,5.5,10.6
							l0,0C86.1,122.5,83.6,124.4,80.6,122.6z"/>
						<path class="st2" d="M82.8,124.3c-0.9,0-1.8-0.3-2.7-0.8L11,83.6c-3.4-2-6-7-6-11.4c0-2.5,0.9-4.5,2.4-5.3
							c1.3-0.8,3-0.7,4.6,0.3L81,107c3.4,2,6,7,6,11.4c0,2.5-0.9,4.5-2.4,5.3C84.1,124.1,83.4,124.3,82.8,124.3z M9.3,68.3
							c-0.3,0-0.6,0.1-0.9,0.2C7.5,69.1,7,70.4,7,72.2c0,3.7,2.3,8.1,5,9.7l69,39.8l0,0c0.7,0.4,1.7,0.8,2.6,0.3s1.4-1.9,1.4-3.6
							c0-3.7-2.3-8.1-5-9.7L11,68.8C10.6,68.6,9.9,68.3,9.3,68.3z"/>
					</g>
					<g>
						<path class="st2" d="M81.6,120.9L12.5,81C10.1,79.6,8,75.5,8,72.2"/>
						<path class="st1" d="M81.6,121.9c-0.2,0-0.3,0-0.5-0.1L12,81.9c-2.8-1.6-5-6-5-9.7c0-0.6,0.4-1,1-1s1,0.4,1,1c0,3,1.9,6.7,4,8
							L82,120c0.5,0.3,0.6,0.9,0.4,1.4C82.2,121.7,81.9,121.9,81.6,121.9z"/>
					</g>
					<path class="st3" d="M82.8,124.3c-0.9,0-1.8-0.3-2.7-0.8L11,83.6c-3.4-2-6-7-6-11.4c0-2.5,0.9-4.5,2.4-5.3
						c1.3-0.8,3-0.7,4.6,0.3L81,107c3.4,2,6,7,6,11.4c0,2.5-0.9,4.5-2.4,5.3C84.1,124.1,83.4,124.3,82.8,124.3z M9.3,68.3
						c-0.3,0-0.6,0.1-0.9,0.2C7.5,69.1,7,70.4,7,72.2c0,3.7,2.3,8.1,5,9.7l69,39.8l0,0c0.7,0.4,1.7,0.8,2.6,0.3s1.4-1.9,1.4-3.6
						c0-3.7-2.3-8.1-5-9.7L11,68.8C10.6,68.6,9.9,68.3,9.3,68.3z"/>
					<path class="st4" d="M82.7,124.2c-0.9,0-1.8-0.3-2.7-0.8L11,83.6c-3.4-2-6-7-6-11.4c0-2.4,0.8-4.4,2.3-5.3l0.1-0.1l35.9-20.7
						c0,0,0.1,0,0.1-0.1c1.3-0.7,2.9-0.6,4.5,0.4l69,39.8c1.9,1.1,3.6,3.2,4.7,5.7l0.1,0.1c0.1,0.3,0.2,0.5,0.3,0.7l0.1,0.2
						c0.1,0.2,0.2,0.4,0.2,0.6l0.1,0.3c0.1,0.2,0.1,0.4,0.2,0.6l0.1,0.3c0,0.2,0.1,0.4,0.1,0.6l0.1,0.3c0,0.2,0.1,0.4,0.1,0.6v0.3
						c0,0.3,0,0.6,0,0.9c0,2.4-0.8,4.4-2.3,5.3l-0.1,0.1l-35.9,20.7c0,0-0.1,0-0.1,0.1C84,124.1,83.4,124.2,82.7,124.2z M8.5,68.5
						C8.5,68.5,8.4,68.5,8.5,68.5c-1,0.6-1.5,1.9-1.5,3.7c0,3.7,2.3,8.1,5,9.7l69,39.8c0.7,0.4,1.7,0.8,2.6,0.3c0,0,0.1,0,0.1-0.1
						l35.7-20.6c0,0,0.1,0,0.1-0.1c0.9-0.5,1.4-1.8,1.4-3.6c0-0.2,0-0.5,0-0.7v-0.2c0-0.3,0-0.4-0.1-0.6v-0.2v-0.1
						c0-0.2-0.1-0.3-0.1-0.5l-0.1-0.3c0-0.2-0.1-0.3-0.1-0.5l-0.1-0.3c-0.1-0.2-0.1-0.3-0.2-0.5l-0.1-0.2c-0.1-0.2-0.2-0.4-0.2-0.6
						l-0.1-0.2c-1-2.2-2.4-3.9-3.9-4.8l-69-39.8c-0.7-0.4-1.7-0.8-2.6-0.3c0,0-0.1,0-0.1,0.1L8.5,68.5z"/>
					<g>
						<g>
							<g>
								<polygon class="st2" points="78.3,79.8 65.4,87.2 65.4,79 78.3,71.6 								"/>
								<path class="st2" d="M65.4,88.2c-0.2,0-0.3,0-0.5-0.1c-0.3-0.2-0.5-0.5-0.5-0.9V79c0-0.4,0.2-0.7,0.5-0.9l12.9-7.4
									c0.3-0.2,0.7-0.2,1,0s0.5,0.5,0.5,0.9v8.2c0,0.4-0.2,0.7-0.5,0.9l-12.9,7.4C65.7,88.2,65.5,88.2,65.4,88.2z M66.4,79.6v5.9
									l10.9-6.3v-5.9L66.4,79.6z M78.3,79.8L78.3,79.8L78.3,79.8z"/>
							</g>
							<g>
								<polygon class="st1" points="65.4,79 52.5,71.6 52.5,79.8 65.4,87.2 								"/>
								<path class="st2" d="M65.4,88.2c-0.2,0-0.3,0-0.5-0.1L52,80.6c-0.3-0.2-0.5-0.5-0.5-0.9v-8.2c0-0.4,0.2-0.7,0.5-0.9
									c0.3-0.2,0.7-0.2,1,0L65.9,78c0.3,0.2,0.5,0.5,0.5,0.9v8.2c0,0.4-0.2,0.7-0.5,0.9C65.7,88.2,65.5,88.2,65.4,88.2z
									 M53.5,79.2l10.9,6.3v-5.9l-10.9-6.3V79.2z"/>
							</g>
							<g>
								<polygon class="st3" points="78.3,71.6 65.4,64.1 52.5,71.6 65.4,79 								"/>
								<path class="st2" d="M65.4,80c-0.2,0-0.3,0-0.5-0.1L52,72.4c-0.3-0.2-0.5-0.5-0.5-0.9s0.2-0.7,0.5-0.9l12.9-7.4
									c0.3-0.2,0.7-0.2,1,0l12.9,7.4c0.3,0.2,0.5,0.5,0.5,0.9s-0.2,0.7-0.5,0.9l-12.9,7.4C65.7,80,65.5,80,65.4,80z M54.5,71.6
									l10.9,6.3l10.9-6.3l-10.9-6.3L54.5,71.6z"/>
							</g>
						</g>
						<path class="st4" d="M65.4,88.2c-0.2,0-0.3,0-0.5-0.1L52,80.6c-0.3-0.2-0.5-0.5-0.5-0.9v-8.2c0-0.4,0.2-0.7,0.5-0.9l12.9-7.4
							c0.3-0.2,0.7-0.2,1,0l12.9,7.4c0.3,0.2,0.5,0.5,0.5,0.9v8.2c0,0.4-0.2,0.7-0.5,0.9L65.9,88C65.7,88.2,65.5,88.2,65.4,88.2z
							 M53.5,79.2l11.9,6.9l11.9-6.9v-7.1l-11.9-6.9l-11.9,6.9V79.2z"/>
					</g>
					<path class="st4" d="M79,115.3c-0.2,0-0.3,0-0.5-0.1l-66-38.1c-0.5-0.3-0.6-0.9-0.4-1.4c0.3-0.5,0.9-0.6,1.4-0.4l66,38.1
						c0.5,0.3,0.6,0.9,0.4,1.4C79.7,115.1,79.4,115.3,79,115.3z"/>
					<g>
						<g>
							<defs>
								<path id="SVGID_1_" d="M119.3,46.6c0,0-1.9,40.5-2.9,40.5S75.8,63.6,75.8,63.6s-16,1.6-16.8,1.6s-23.5-8-25-20.6
									c-1.5-12.7-8.5-40.3-8.5-40.3h93.8l2.7,35.1L119.3,46.6z"/>
							</defs>
							<clipPath id="SVGID_2_">
								<use xlink:href="#SVGID_1_"  style="overflow:visible;"/>
							</clipPath>
							<g class="st5">
								<g>
									<path class="st0" d="M92.2,103.1L92.2,103.1c-4.2,2.4-7.5-0.1-7.5-5.7V23.9c0-5.5,3.4-12,7.5-14.4l0,0
										c4.2-2.4,7.5,0.1,7.5,5.7v73.4C99.7,94.2,96.3,100.7,92.2,103.1z"/>
									<path class="st0" d="M89.2,105c-0.9,0-1.7-0.2-2.4-0.6c-2-1.1-3.1-3.7-3.1-7V23.9c0-6,3.5-12.7,8-15.3
										c2.1-1.2,4.2-1.4,5.9-0.4c2,1.1,3.1,3.7,3.1,7v73.4c0,6-3.5,12.7-8,15.3C91.5,104.6,90.3,105,89.2,105z M95.2,9.6
										c-0.9,0-1.8,0.4-2.5,0.8c-3.9,2.2-7,8.3-7,13.5v73.4c0,2.5,0.8,4.5,2.1,5.2c1.3,0.8,2.9,0.2,3.9-0.4l0,0
										c3.9-2.2,7-8.3,7-13.5V15.2c0-2.5-0.8-4.5-2.1-5.2C96.1,9.8,95.6,9.6,95.2,9.6z"/>
								</g>
								<g>
									<path class="st6" d="M102.9,24L102.9,24c-1.5,4.2-4.7,7.2-7.2,6.7l0,0c-2.5-0.5-3.4-4.3-1.9-8.5l0,0
										c1.5-4.2,4.7-7.2,7.2-6.7l0,0C103.5,16,104.4,19.8,102.9,24z"/>
									<path class="st0" d="M96.2,31.8c-0.2,0-0.5,0-0.7-0.1c-1.1-0.2-2-0.9-2.6-1.9c-1.1-1.9-1.1-4.8-0.1-7.9
										c1.6-4.7,5.3-8,8.3-7.4c1.1,0.2,2,0.9,2.6,1.9c1.1,1.9,1.1,4.8,0.1,7.9l0,0C102.3,28.7,99.1,31.8,96.2,31.8z M100.4,16.5
										c-1.8,0-4.4,2.4-5.7,6.1c-0.8,2.4-0.9,4.8-0.1,6.2c0.3,0.5,0.7,0.9,1.3,1c1.8,0.3,4.7-2.1,6.1-6.1c0.8-2.4,0.9-4.8,0.1-6.2
										c-0.3-0.5-0.7-0.9-1.3-1C100.7,16.5,100.6,16.5,100.4,16.5z M102.9,24L102.9,24L102.9,24z"/>
								</g>
								<g>
									<path class="st6" d="M103.3,12.7L103.3,12.7c-1.3-0.8-3-0.7-4.9,0.4c-4.2,2.4-7.5,8.8-7.5,14.4v19.8l-6.2-3.6V23.9
										c0-5.5,3.4-12,7.5-14.4c1.9-1.1,3.6-1.2,4.9-0.4l0,0l-5.9-3.4l0,0c-1.3-0.8-3-0.7-4.9,0.4c-4.2,2.4-7.5,8.8-7.5,14.4V94
										c0,3,1,5.2,2.6,6.1l0,0l5.9,3.4l0,0c-1.6-0.9-2.6-3-2.6-6.1v-3.1l6.2,3.6v3.1c0,3,1,5.2,2.6,6.1l0,0l5.9,3.4l0.3-4.7
										c3.6-2.9,6.3-8.5,6.3-13.5V27.6l3.3-11.5L103.3,12.7z"/>
									<path class="st0" d="M99.3,111.4c-0.2,0-0.3,0-0.5-0.1l-5.9-3.4l-0.1-0.1c-1.9-1.2-3-3.7-3-6.9v-2.6L85.6,96v1.4
										c0,2.5,0.8,4.4,2.1,5.2c0.3,0.2,0.5,0.6,0.5,1c0,0.3-0.2,0.6-0.5,0.8c-0.3,0.2-0.7,0.2-1,0l-5.9-3.4l-0.1-0.1
										c-1.9-1.2-3-3.7-3-6.9V20.5c0-6,3.5-12.7,8-15.3c2.1-1.2,4.1-1.4,5.8-0.5c0,0,0.1,0,0.1,0.1l5.9,3.4
										C98,8.5,98.2,9,98.1,9.4c-0.1,0.3-0.3,0.5-0.6,0.7c-0.3,0.1-0.6,0.1-0.9-0.1c-1.3-0.8-2.9-0.2-3.9,0.4
										c-3.9,2.2-7,8.3-7,13.5v19.2l4.2,2.4v-18c0-6,3.5-12.7,8-15.3c2.1-1.2,4.1-1.4,5.8-0.5c0,0,0.1,0,0.1,0.1l5.9,3.4
										c0.4,0.2,0.6,0.7,0.5,1.1L107,27.6v64.5c0,5-2.6,10.8-6.3,14l-0.3,4.2c0,0.3-0.2,0.7-0.5,0.8
										C99.6,111.4,99.4,111.4,99.3,111.4z M94,106.2l4.4,2.5l0.2-3.1c0-0.3,0.2-0.5,0.4-0.7c3.4-2.7,5.9-8.2,5.9-12.7V27.6
										c0-0.1,0-0.2,0-0.3l3.1-10.7l-5.1-2.9c0,0-0.1,0-0.1-0.1c-1.1-0.6-2.4-0.5-3.9,0.4c-3.9,2.2-7,8.3-7,13.5v19.8
										c0,0.4-0.2,0.7-0.5,0.9s-0.7,0.2-1,0l-6.2-3.6c-0.3-0.2-0.5-0.5-0.5-0.9V23.9c0-6,3.5-12.7,8-15.3c0.5-0.3,1-0.5,1.5-0.7
										l-2.3-1.3c0,0-0.1,0-0.1-0.1c-1.1-0.5-2.5-0.3-4,0.5c-3.9,2.2-7,8.3-7,13.5V94c0,2.5,0.8,4.4,2.1,5.2l0.1,0.1l2,1.2
										c-0.3-0.9-0.4-2-0.4-3.1v-3.1c0-0.4,0.2-0.7,0.5-0.9c0.3-0.2,0.7-0.2,1,0l6.2,3.6c0.3,0.2,0.5,0.5,0.5,0.9v3.1
										c0,2.5,0.8,4.4,2.1,5.2C94,106.2,94,106.2,94,106.2z"/>
								</g>
								<g>
									<path class="st3" d="M103.3,12.7L103.3,12.7c-1.3-0.8-3-0.7-4.9,0.4c-3.1,1.8-5.7,5.8-6.9,10l14.4,8.3v-3.8l3.3-11.5
										L103.3,12.7z"/>
									<path class="st3" d="M79.4,16.1l5.9,3.4c1.2-4.2,3.8-8.2,6.9-10c1.9-1.1,3.6-1.2,4.9-0.4l0,0l-5.9-3.4l0,0
										c-1.3-0.8-3-0.7-4.9,0.4C83.2,7.9,80.6,11.9,79.4,16.1z"/>
								</g>
								<path class="st7" d="M90.8,48.3c-0.2,0-0.3,0-0.5-0.1l-6.2-3.6c-0.5-0.3-0.6-0.9-0.4-1.4c0.3-0.5,0.9-0.6,1.4-0.4l6.2,3.6
									c0.5,0.3,0.6,0.9,0.4,1.4C91.5,48.1,91.1,48.3,90.8,48.3z"/>
								<path class="st7" d="M84.6,44.7c-0.6,0-1-0.4-1-1V23.9c0-6,3.5-12.7,8-15.3c2.5-1.3,4.3-1,5.4-0.6c1.6,0.6,2.7,2.1,3.3,4.1
									c0.1,0.5-0.2,1.1-0.7,1.2c-0.5,0.1-1.1-0.2-1.2-0.7c-0.4-1.4-1.1-2.4-2.1-2.8c-1-0.4-2.2-0.2-3.6,0.6c-3.9,2.2-7,8.3-7,13.5
									v19.8C85.6,44.3,85.2,44.7,84.6,44.7z"/>
								<g>
									<path class="st0" d="M104.2,110L104.2,110c-4.2,2.4-7.5-0.1-7.5-5.7V30.9c0-5.5,3.4-12,7.5-14.4l0,0
										c4.2-2.4,7.5,0.1,7.5,5.7v73.4C111.7,101.2,108.4,107.6,104.2,110z"/>
									<path class="st0" d="M101.2,111.9c-0.9,0-1.7-0.2-2.4-0.6c-2-1.1-3.1-3.7-3.1-7V30.9c0-6,3.5-12.7,8-15.3
										c2.1-1.2,4.2-1.4,5.9-0.4c2,1.1,3.1,3.7,3.1,7v73.4c0,6-3.5,12.7-8,15.3C103.5,111.6,102.3,111.9,101.2,111.9z M107.2,16.6
										c-0.9,0-1.8,0.4-2.5,0.8c-3.9,2.2-7,8.3-7,13.5v73.4c0,2.5,0.8,4.5,2.1,5.2c1.3,0.8,2.9,0.2,3.9-0.4c3.9-2.2,7-8.3,7-13.5
										V22.2c0-2.5-0.8-4.5-2.1-5.2C108.2,16.7,107.7,16.6,107.2,16.6z"/>
								</g>
								<path class="st6" d="M104.2,30.2L104.2,30.2c-1.5,0.9-2.7-0.1-2.7-2.1l0,0c0-2,1.2-4.3,2.7-5.2l0,0c1.5-0.9,2.7,0.1,2.7,2.1
									l0,0C106.9,27,105.7,29.3,104.2,30.2z"/>
								<path class="st7" d="M101.2,111.9c-0.8,0-1.6-0.2-2.3-0.6c0,0-0.1,0-0.1-0.1l-5.9-3.4l-0.1-0.1c-1-0.6-1.8-1.7-2.3-3
									c-1.3,0.3-2.5,0.2-3.6-0.4c0,0-0.1,0-0.1-0.1l-5.9-3.4l-0.1-0.1c-1.9-1.2-3-3.7-3-6.9V20.5c0-6,3.5-12.7,8-15.3
									c2.1-1.2,4.1-1.4,5.8-0.5c0,0,0.1,0,0.1,0.1l5.9,3.4l0.1,0.1c1,0.6,1.8,1.7,2.3,3c1.3-0.3,2.5-0.1,3.6,0.4
									c0,0,0.1,0,0.1,0.1l5.9,3.4l0.1,0.1c1.9,1.2,3,3.7,3,6.9v73.4c0,6-3.5,12.7-8,15.3C103.5,111.6,102.3,111.9,101.2,111.9z
									 M99.7,109.5C99.7,109.5,99.8,109.5,99.7,109.5c1.4,0.9,3,0.3,4-0.3c3.9-2.2,7-8.3,7-13.5V22.2c0-2.5-0.8-4.4-2.1-5.2
									l-0.1-0.1l-5.6-3.3c0,0-0.1,0-0.1-0.1c-0.8-0.5-1.9-0.5-3,0c-0.3,0.1-0.6,0.1-0.8,0c-0.3-0.1-0.4-0.4-0.5-0.6
									c-0.3-1.3-1-2.3-1.8-2.8L96.6,10L91,6.7c0,0-0.1,0-0.1-0.1C89.7,6,88.3,6.2,86.8,7c-3.9,2.2-7,8.3-7,13.5V94
									c0,2.5,0.8,4.4,2.1,5.2l0.1,0.1l5.6,3.3c0,0,0.1,0,0.1,0.1c0.8,0.5,1.9,0.5,3,0c0.3-0.1,0.6-0.1,0.8,0
									c0.3,0.1,0.4,0.4,0.5,0.6c0.3,1.4,1,2.3,1.8,2.8l0.1,0.1L99.7,109.5z"/>
								<g>
									<g>
										<defs>
											<path id="SVGID_3_" d="M103.3,12.7c-1.3-0.8-3-0.7-4.9,0.4c-4.2,2.4-7.5,8.8-7.5,14.4l6.3,78l-46-40.2L46,28.6l9.2-16.4
												l23.1-2.8l25.9-0.8L103.3,12.7z"/>
										</defs>
										<clipPath id="SVGID_4_">
											<use xlink:href="#SVGID_3_"  style="overflow:visible;"/>
										</clipPath>
										<g class="st8">
											<g>
												<path class="st7" d="M53.9,49.7v5.4c0,3.2,4.5,5.8,10,5.8s10-2.6,10-5.8v-5.4H53.9z"/>
												<path class="st7" d="M63.9,61.8c-6.2,0-11-3-11-6.8v-5.4c0-0.6,0.4-1,1-1h20c0.6,0,1,0.4,1,1V55
													C74.9,58.9,70,61.8,63.9,61.8z M54.9,50.7v4.4c0,2.6,4.1,4.8,9,4.8s9-2.2,9-4.8v-4.4H54.9z"/>
											</g>
											<path class="st0" d="M53.9,49.7v5.4c0,3.2,4.5,5.8,10,5.8V49.7H53.9z"/>
											<ellipse class="st6" cx="63.9" cy="49.7" rx="10" ry="5.8"/>
											<path class="st7" d="M63.9,61.8c-6.2,0-11-3-11-6.8v-5.4c0-3.8,4.8-6.8,11-6.8s11,3,11,6.8V55
												C74.9,58.9,70,61.8,63.9,61.8z M63.9,44.9c-4.9,0-9,2.2-9,4.8v5.4c0,2.6,4.1,4.8,9,4.8s9-2.2,9-4.8v-5.4
												C72.9,47.1,68.8,44.9,63.9,44.9z"/>
											<path class="st6" d="M60.9,26v22.9c0,0.9,1.3,1.7,2.9,1.7c1.6,0,2.9-0.8,2.9-1.7V26H60.9z"/>
											<path class="st0" d="M60.9,31.3v11.2c0,0.9,1.3,1.7,2.9,1.7c1.6,0,2.9-0.8,2.9-1.7V31.3H60.9z"/>
											<path class="st0" d="M63.9,51.6c-2.2,0-3.9-1.2-3.9-2.7V26c0-0.6,0.4-1,1-1h5.9c0.6,0,1,0.4,1,1v22.9
												C67.8,50.4,66.1,51.6,63.9,51.6z M61.9,27v21.9c0,0.2,0.7,0.7,1.9,0.7c1.2,0,1.9-0.5,1.9-0.7V27H61.9z"/>
											<path class="st7" d="M63.9,51.6c-2.2,0-3.9-1.2-3.9-2.7V26c0-0.6,0.4-1,1-1h5.9c0.6,0,1,0.4,1,1v22.9
												C67.8,50.4,66.1,51.6,63.9,51.6z M61.9,27v21.9c0,0.2,0.7,0.7,1.9,0.7c1.2,0,1.9-0.5,1.9-0.7V27H61.9z"/>
										</g>
									</g>
									<g>
										<defs>
											<path id="SVGID_5_" d="M103.3,12.7c-1.3-0.8-3-0.7-4.9,0.4c-4.2,2.4-7.5,8.8-7.5,14.4l6.3,78l-46-40.2L46,28.6l9.2-16.4
												l23.1-2.8l25.9-0.8L103.3,12.7z"/>
										</defs>
										<clipPath id="SVGID_6_">
											<use xlink:href="#SVGID_5_"  style="overflow:visible;"/>
										</clipPath>
										<g class="st9">
											<g>
												<path class="st6" d="M101.3,17.8l-6.2-3.6l0,0c-0.6-0.3-1.3-0.4-2.1-0.3l-35.1,7.7c-2.8,0.6-5.7,4.5-6.5,8.7l0,0
													c-0.5,3,0.2,5.3,1.7,6.2l0,0l6.2,3.6l7.3-4.9l24.9-5.5c2.8-0.6,5.7-4.5,6.5-8.7c0.1-0.7,0.2-1.4,0.2-2L101.3,17.8z"/>
												<path class="st0" d="M59.2,41.2c-0.2,0-0.3,0-0.5-0.1l-6.2-3.6l-0.1-0.1c-1.8-1.2-2.6-3.9-2-7.1c0.8-4.6,4-8.8,7.2-9.5
													L92.8,13c1-0.2,1.9-0.1,2.7,0.3c0,0,0.1,0,0.1,0.1l6.2,3.6c0.3,0.2,0.5,0.6,0.5,0.9c0,0.4-0.3,0.7-0.6,0.9l-2.6,1
													c0,0.5-0.1,1-0.2,1.5c-0.8,4.6-4,8.8-7.2,9.5l-24.8,5.4L59.8,41C59.6,41.1,59.4,41.2,59.2,41.2z M53.7,35.8l5.5,3.2
													l6.8-4.5c0.1-0.1,0.2-0.1,0.3-0.1l24.9-5.5c2.4-0.5,5-4.2,5.7-7.9c0.1-0.6,0.2-1.2,0.2-1.8c0-0.4,0.2-0.8,0.6-0.9
													l1.3-0.5l-4.3-2.5c0,0-0.1,0-0.1-0.1c-0.4-0.2-0.8-0.3-1.4-0.2l-35.1,7.7c-2.4,0.5-5,4.2-5.7,7.9
													c-0.4,2.4,0,4.5,1.2,5.1C53.6,35.8,53.6,35.8,53.7,35.8z"/>
											</g>
											<path class="st3" d="M97.9,21.2c0.1-0.7,0.2-1.4,0.2-2l3.2-1.3l-6.2-3.6l0,0C94.5,14,93.8,13.9,93,14l-35.1,7.7
												c-1.5,0.3-3,1.6-4.2,3.3l16.5,9.5l21.3-4.7C94.3,29.2,97.2,25.3,97.9,21.2z"/>
											<path class="st0" d="M59.2,41.2c-0.2,0-0.3,0-0.5-0.1l-6.2-3.6l-0.1-0.1c-1.8-1.2-2.6-3.9-2-7.1c0.8-4.6,4-8.8,7.2-9.5
												L92.8,13c1-0.2,1.9-0.1,2.7,0.3c0,0,0.1,0,0.1,0.1l6.2,3.6c0.3,0.2,0.5,0.6,0.5,0.9c0,0.4-0.3,0.7-0.6,0.9l-2.6,1
												c0,0.5-0.1,1-0.2,1.5c-0.8,4.6-4,8.8-7.2,9.5l-24.8,5.4L59.8,41C59.6,41.1,59.4,41.2,59.2,41.2z M53.7,35.8l5.5,3.2
												l6.8-4.5c0.1-0.1,0.2-0.1,0.3-0.1l24.9-5.5c2.4-0.5,5-4.2,5.7-7.9c0.1-0.6,0.2-1.2,0.2-1.8c0-0.4,0.2-0.8,0.6-0.9
												l1.3-0.5l-4.3-2.5c0,0-0.1,0-0.1-0.1c-0.4-0.2-0.8-0.3-1.4-0.2l-35.1,7.7c-2.4,0.5-5,4.2-5.7,7.9c-0.4,2.4,0,4.5,1.2,5.1
												C53.6,35.8,53.6,35.8,53.7,35.8z"/>
											<g>
												<path class="st0" d="M102.9,24L102.9,24c-0.8,4.2-3.6,8.1-6.5,8.7l-35.1,7.7c-2.8,0.6-4.5-2.3-3.7-6.5l0,0
													c0.8-4.2,3.6-8.1,6.5-8.7l35.1-7.7C102,16.9,103.7,19.8,102.9,24z"/>
												<path class="st0" d="M60.6,41.5c-1,0-1.9-0.4-2.6-1c-1.4-1.4-1.9-3.8-1.4-6.7c0.8-4.6,4-8.8,7.2-9.5L99,16.6
													c1.3-0.3,2.6,0,3.5,0.9c1.4,1.4,1.9,3.8,1.4,6.7l0,0c-0.8,4.6-4,8.8-7.2,9.5l-35.1,7.7C61.2,41.5,60.9,41.5,60.6,41.5z
													 M99.9,18.5c-0.2,0-0.3,0-0.5,0.1l-35.1,7.7c-2.4,0.5-5,4.2-5.7,7.9c-0.4,2.2-0.1,4,0.8,4.9c0.5,0.4,1,0.6,1.7,0.4
													l35.1-7.7c2.4-0.5,5-4.2,5.7-7.9l0,0c0.4-2.2,0.1-4-0.8-4.9C100.8,18.6,100.4,18.5,99.9,18.5z M102.9,24L102.9,24
													L102.9,24z"/>
											</g>
										</g>
									</g>
									<g>
										<defs>
											<path id="SVGID_7_" d="M103.3,12.7c-1.3-0.8-3-0.7-4.9,0.4c-4.2,2.4-7.5,8.8-7.5,14.4l6.3,78l-46-40.2L46,28.6l9.2-16.4
												l23.1-2.8l25.9-0.8L103.3,12.7z"/>
										</defs>
										<clipPath id="SVGID_8_">
											<use xlink:href="#SVGID_7_"  style="overflow:visible;"/>
										</clipPath>
										<path class="st10" d="M60.6,41.5c-0.6,0-1.2-0.1-1.7-0.4c0,0-0.1,0-0.1-0.1l-6.2-3.6l-0.1-0.1c-1.8-1.2-2.6-3.9-2-7.1
											c0.8-4.6,4-8.8,7.2-9.5L92.8,13c1-0.2,1.9-0.1,2.7,0.3c0,0,0.1,0,0.1,0.1l6.2,3.6l0.1,0.1c1.8,1.2,2.6,3.9,2,7.1
											c-0.8,4.6-4,8.8-7.2,9.5l-35.1,7.7C61.2,41.5,60.9,41.5,60.6,41.5z M59.6,39.3C59.6,39.3,59.7,39.3,59.6,39.3
											c0.5,0.3,0.9,0.4,1.5,0.3l35.1-7.7c2.4-0.5,5-4.2,5.7-7.9c0.4-2.4,0-4.5-1.2-5.1l-0.1-0.1l-5.9-3.4c0,0-0.1,0-0.1-0.1
											c-0.4-0.2-0.8-0.3-1.4-0.2l-35.1,7.7c-2.4,0.5-5,4.2-5.7,7.9c-0.4,2.4,0,4.5,1.2,5.1c0,0,0.1,0,0.1,0.1L59.6,39.3z"/>
									</g>
									<g>
										<defs>
											<path id="SVGID_9_" d="M103.3,12.7c-1.3-0.8-3-0.7-4.9,0.4c-4.2,2.4-7.5,8.8-7.5,14.4l6.3,78l-46-40.2L46,28.6l9.2-16.4
												l23.1-2.8l25.9-0.8L103.3,12.7z"/>
										</defs>
										<clipPath id="SVGID_10_">
											<use xlink:href="#SVGID_9_"  style="overflow:visible;"/>
										</clipPath>
										<path class="st11" d="M68.8,32.5c-0.5,0-0.9-0.3-1-0.8s0.2-1.1,0.8-1.2l22.8-5c0.5-0.1,1.1,0.2,1.2,0.8
											c0.1,0.5-0.2,1.1-0.8,1.2l-22.8,5C69,32.5,68.9,32.5,68.8,32.5z"/>
									</g>
								</g>
								<path class="st7" d="M90.8,48.3c-0.6,0-1-0.4-1-1V27.5c0-6,3.5-12.7,8-15.3c2.1-1.2,4.2-1.4,5.9-0.4
									c0.5,0.3,0.6,0.9,0.4,1.4s-0.9,0.6-1.4,0.4c-1.1-0.6-2.4-0.5-3.9,0.4c-3.9,2.2-7,8.3-7,13.5v19.8
									C91.8,47.9,91.4,48.3,90.8,48.3z"/>
							</g>
						</g>
					</g>
					<path class="st4" d="M116.5,88.1c-0.2,0-0.3,0-0.5-0.1L73.8,63.6c-0.5-0.3-0.6-0.9-0.4-1.4s0.9-0.6,1.4-0.4L117,86.2
						c0.5,0.3,0.6,0.9,0.4,1.4C117.1,87.9,116.8,88.1,116.5,88.1z"/>
				</g>
				<rect x="4" y="3.8" class="st12" width="120" height="120"/>
				<rect x="4" y="3.8" class="st12" width="120" height="120"/>
			</g>
		</g>
	</g>
	<g>
		<rect class="st12" width="128" height="128"/>
	</g>
</g>
</svg>
