<?xml version="1.0" encoding="utf-8"?>
<!-- Generator: Adobe Illustrator 24.1.0, SVG Export Plug-In . SVG Version: 6.00 Build 0)  -->
<svg version="1.1" id="Layer_1" xmlns="http://www.w3.org/2000/svg" xmlns:xlink="http://www.w3.org/1999/xlink" x="0px" y="0px"
	 viewBox="0 0 128 128" style="enable-background:new 0 0 128 128;" xml:space="preserve">
<style type="text/css">
	.st0{fill:#4D9987;}
	.st1{fill:#E9EBDF;}
	.st2{fill:#0E352C;}
	.st3{fill:#FFFFFF;}
	.st4{fill:none;}
</style>
<g id="Layer_1_1_">
</g>
<g>
	<g id="Layer_2_1_">
		<g id="Industries_1_">
			<g>
				<g>
					<g>
						<g>
							<g>
								<path class="st0" d="M31.5,38.3l-7.8-4.5c-0.3-0.2-0.5-0.2-0.7,0l0,0l-6.8,3.9l7.9,45.7l6.8-3.9l0,0c1.1-0.6,1.7-2,1.7-4
									v-35C32.7,39.6,32.2,38.7,31.5,38.3z"/>
								<path class="st0" d="M24.1,84.4c-0.1,0-0.3,0-0.4-0.1c-0.3-0.1-0.5-0.4-0.6-0.7l-7.9-45.7c-0.1-0.4,0.1-0.8,0.5-1l6.8-3.9
									c0.1,0,0.2-0.1,0.3-0.1c0.5-0.2,1-0.1,1.5,0.2l7.8,4.5l0,0c0.9,0.5,1.6,1.8,1.6,3v35c0,2.2-0.7,3.9-2,4.7
									c-0.1,0.1-0.1,0.1-0.2,0.2l-6.8,3.9C24.5,84.4,24.3,84.4,24.1,84.4z M17.3,38.2l7.5,43.6l5.4-3.1c0.1-0.1,0.1-0.1,0.2-0.2
									c0.8-0.5,1.2-1.6,1.2-3.2v-35c0-0.5-0.3-1.1-0.6-1.3l-7.7-4.4L17.3,38.2z"/>
							</g>
							<g>
								<path class="st1" d="M20.8,83.2L20.8,83.2c2.8,1.6,5-0.1,5-3.8v-35c0-0.8-0.5-1.8-1.1-2.1l-7.8-4.5c-0.6-0.4-1.1,0-1.1,0.8
									v35C15.8,77.3,18.1,81.6,20.8,83.2z"/>
								<path class="st0" d="M22.8,84.8c-0.8,0-1.6-0.2-2.5-0.7c-3.1-1.8-5.5-6.4-5.5-10.4v-35c0-0.8,0.3-1.4,0.9-1.8
									c0.5-0.3,1.2-0.3,1.7,0.1l7.8,4.5c0.9,0.5,1.6,1.8,1.6,3v35c0,2.3-0.8,4.1-2.2,4.9C24.1,84.6,23.5,84.8,22.8,84.8z
									 M16.8,38.8v34.8c0,3.3,2.1,7.3,4.5,8.7c0.6,0.4,1.5,0.7,2.3,0.3c0.8-0.4,1.2-1.6,1.2-3.2v-35c0-0.5-0.3-1.1-0.6-1.3
									L16.8,38.8z"/>
							</g>
							<path class="st2" d="M22.8,84.8c-0.8,0-1.6-0.2-2.5-0.7c-3.1-1.8-5.5-6.4-5.5-10.4v-35c0-0.7,0.2-1.2,0.7-1.6
								c0.1-0.1,0.1-0.1,0.2-0.2l6.8-3.9c0.1-0.1,0.2-0.1,0.3-0.1c0.5-0.2,1-0.1,1.5,0.2l7.8,4.5l0,0c0.9,0.5,1.6,1.8,1.6,3v35
								c0,2.2-0.7,3.9-2,4.7c-0.1,0.1-0.1,0.1-0.2,0.2l-6.8,3.9c0,0-0.1,0-0.1,0.1C24,84.6,23.4,84.8,22.8,84.8z M16.8,38.5
								L16.8,38.5v35.1c0,3.3,2.1,7.3,4.5,8.7c0.6,0.4,1.5,0.7,2.3,0.3h0.1l6.5-3.8c0.1-0.1,0.1-0.1,0.2-0.2
								c0.8-0.5,1.2-1.6,1.2-3.2v-35c0-0.5-0.3-1.1-0.6-1.3l-7.7-4.4L16.8,38.5L16.8,38.5z"/>
						</g>
						<path class="st1" d="M30.7,14L30.7,14c-2.3-1.3-5.3-1.2-8.6,0.7C14.9,18.8,9,30.1,9,39.7c0,5.3,1.8,9,4.5,10.6l0,0l23.1,13.3
							l17.2-36.3L30.7,14z"/>
						<path class="st3" d="M45.3,45.3l8.5-18L30.7,14l0,0c-2.3-1.3-5.3-1.2-8.6,0.7c-3.9,2.3-7.4,6.6-9.8,11.6L45.3,45.3z"/>
						<path class="st0" d="M36.6,64.6c-0.2,0-0.3,0-0.5-0.1L13,51.2c-0.1,0-0.1-0.1-0.2-0.1C9.8,49.2,8,45,8,39.7
							c0-10,6.1-21.6,13.6-25.9c3.4-2,6.7-2.2,9.4-0.8c0.1,0,0.1,0,0.2,0.1l23.1,13.3c0.5,0.3,0.6,0.8,0.4,1.3L37.5,64.1
							c-0.1,0.3-0.3,0.4-0.6,0.5C36.8,64.6,36.7,64.6,36.6,64.6z M14.2,49.5l22,12.7l16.3-34.5L30.3,14.9c-0.1,0-0.1,0-0.2-0.1
							c-2.1-1.2-4.8-1-7.6,0.7c-7,4-12.6,14.9-12.6,24.2c0,4.7,1.5,8.2,4,9.7C14.1,49.5,14.1,49.5,14.2,49.5z"/>
						<path class="st0" d="M44.6,69.2c-0.2,0-0.3,0-0.5-0.1L21,55.8c-0.1,0-0.1-0.1-0.2-0.1c-3.1-1.9-4.9-6-4.9-11.3
							c0-10,6.1-21.6,13.6-25.9c3.4-2,6.7-2.2,9.4-0.8c0.1,0,0.1,0,0.2,0.1L62.2,31c0.5,0.3,0.6,0.8,0.4,1.3L45.5,68.7
							c-0.1,0.3-0.3,0.4-0.6,0.5C44.8,69.2,44.7,69.2,44.6,69.2z M22.2,54.1l22,12.7l16.3-34.5L38.3,19.5c-0.1,0-0.1,0-0.2-0.1
							c-2.1-1.2-4.8-1-7.6,0.7C23.6,24.1,18,35,18,44.3c0,4.7,1.5,8.2,4,9.7C22.1,54.1,22.1,54.1,22.2,54.1z"/>
						<g>
							<path class="st1" d="M54.3,23.2L54.3,23.2c-1.9,0-4.1,0.7-6.3,2c-9,5.2-16.3,19.2-16.3,31.2c0,4.1,0.9,7.4,2.3,9.8l0,0L54,99
								l36.1-76.4L54.3,23.2z"/>
							<path class="st0" d="M54,100c-0.3,0-0.7-0.2-0.9-0.5l-20-32.8c0-0.1-0.1-0.1-0.1-0.2c-1.5-2.6-2.4-6.1-2.4-10.1
								c0-12.3,7.5-26.7,16.8-32c2.3-1.3,4.6-2,6.7-2.1h0.1L90,21.7c0.3,0,0.7,0.2,0.9,0.5c0.2,0.3,0.2,0.7,0.1,1L54.9,99.4
								C54.8,99.7,54.4,99.9,54,100L54,100z M35,65.8l18.9,31l34.6-73.3l-34.1,0.6h-0.1c-1.8,0-3.8,0.6-5.8,1.8
								c-8.7,5-15.8,18.6-15.8,30.3c0,3.7,0.8,6.9,2.2,9.3C34.9,65.7,35,65.7,35,65.8z M54.3,23.2L54.3,23.2L54.3,23.2z"/>
						</g>
						<path class="st3" d="M72.1,60.8l18.1-38.2l-35.8,0.6l0,0c-1.9,0-4.1,0.7-6.3,2c-4.9,2.8-9.3,8.3-12.3,14.6L72.1,60.8z"/>
						<path class="st0" d="M54,100c-0.3,0-0.7-0.2-0.9-0.5l-20-32.8c0-0.1-0.1-0.1-0.1-0.2c-1.5-2.6-2.4-6.1-2.4-10.1
							c0-12.3,7.5-26.7,16.8-32c2.3-1.3,4.6-2,6.7-2.1h0.1L90,21.7c0.3,0,0.7,0.2,0.9,0.5c0.2,0.3,0.2,0.7,0.1,1L54.9,99.4
							C54.8,99.7,54.4,99.9,54,100L54,100z M35,65.8l18.9,31l34.6-73.3l-34.1,0.6h-0.1c-1.8,0-3.8,0.6-5.8,1.8
							c-8.7,5-15.8,18.6-15.8,30.3c0,3.7,0.8,6.9,2.2,9.3C34.9,65.7,35,65.7,35,65.8z M54.3,23.2L54.3,23.2L54.3,23.2z"/>
						<path class="st2" d="M54,100c-0.3,0-0.7-0.2-0.9-0.5l-20-32.8c0-0.1-0.1-0.1-0.1-0.2c-0.8-1.4-1.4-3-1.8-4.7L13,51.2
							c-0.1,0-0.1-0.1-0.2-0.1C9.8,49.2,8,45,8,39.7C8,34.6,9.5,29,12.3,24v-0.1c0.3-0.6,0.6-1.1,1-1.7l0.1-0.2c0.3-0.5,0.7-1,1-1.5
							l0.2-0.3c0.3-0.4,0.7-0.9,1-1.3l0.3-0.3c0.3-0.4,0.6-0.7,1-1.1l0.1-0.1c0.1-0.1,0.2-0.2,0.2-0.2c0.3-0.3,0.6-0.6,1-0.9
							l0.1-0.1c0.1-0.1,0.2-0.2,0.3-0.2c0.3-0.3,0.7-0.6,1-0.8l0.1-0.1c0.1-0.1,0.2-0.1,0.3-0.2c0.5-0.4,1-0.7,1.5-1
							c0.9-0.5,1.7-0.9,2.6-1.2c0.4-0.1,0.8-0.3,1.3-0.3c2-0.4,3.9-0.1,5.6,0.7c0.1,0,0.1,0,0.2,0.1l18,10.4
							c1.8-0.8,3.5-1.2,5.1-1.3h0.1l35.8-0.6c0.3,0,0.7,0.2,0.9,0.5c0.2,0.3,0.2,0.7,0.1,1L54.9,99.4C54.8,99.7,54.4,99.9,54,100
							L54,100z M35,65.8l18.9,31l34.6-73.3l-34.1,0.6h-0.1c-1.5,0-3.1,0.5-4.8,1.3c-0.3,0.1-0.7,0.1-0.9,0L30.3,14.9
							c-0.1,0-0.1,0-0.2-0.1c-1.3-0.7-2.7-0.9-4.3-0.6c-0.3,0.1-0.7,0.2-1,0.3c-0.7,0.2-1.5,0.6-2.2,1c-0.4,0.3-0.9,0.5-1.3,0.9
							c-0.1,0-0.1,0.1-0.2,0.1l-0.2,0.1c-0.3,0.2-0.6,0.5-0.9,0.7c-0.1,0.1-0.1,0.1-0.2,0.2l-0.2,0.2c-0.3,0.3-0.6,0.6-0.9,0.8
							L18.4,19c-0.3,0.3-0.6,0.7-0.9,1l-0.3,0.3c-0.3,0.4-0.6,0.8-0.9,1.2l-0.2,0.3c-0.3,0.4-0.6,0.9-0.9,1.4l-0.1,0.1
							c-0.4,0.6-0.7,1.1-1,1.6C11.5,29.7,10,35,10,39.7s1.5,8.2,4,9.7c0.1,0,0.1,0.1,0.2,0.1l18.5,10.7c0.2,0.1,0.4,0.4,0.5,0.7
							c0.4,1.8,1,3.4,1.8,4.7C34.9,65.7,35,65.7,35,65.8z M54.3,23.2L54.3,23.2L54.3,23.2z"/>
						<g>
							<path class="st1" d="M106.3,30.5l2-3.2l-9.5-5.5l0,0c-5.4-3.1-12.5-2.8-20.2,1.6c-17,9.8-30.8,36.2-30.8,58.9
								c0,12.4,4.1,21.2,10.7,24.9l0,0l9.5,5.5l1.2-3.7c3-0.4,6.1-1.6,9.4-3.5c17-9.8,30.8-36.2,30.8-58.9
								C109.5,40.3,108.3,34.8,106.3,30.5z"/>
							<path class="st0" d="M68,113.8c-0.2,0-0.3,0-0.5-0.1l-9.5-5.5l-0.1-0.1c-7-4.1-11-13.5-11-25.7c0-23,14.1-49.8,31.3-59.8
								c7.7-4.4,15.1-5,21-1.7c0.1,0,0.1,0,0.2,0.1l9.5,5.5c0.2,0.1,0.4,0.4,0.5,0.6s0,0.5-0.1,0.8l-1.7,2.8c2,4.5,3,9.9,3,16.2
								c0,23-14.1,49.8-31.3,59.8c-3.1,1.8-6.2,3-9.1,3.5l-1,3.1c-0.1,0.3-0.3,0.5-0.6,0.6C68.2,113.8,68.1,113.8,68,113.8z
								 M59.1,106.5l8.3,4.8l0.8-2.5c0.1-0.4,0.4-0.6,0.8-0.7c2.9-0.4,6-1.6,9-3.4C94.7,95,108.3,69,108.3,46.6c0-6.2-1-11.5-3-15.8
								c-0.1-0.3-0.1-0.7,0.1-1l1.5-2.3l-8.5-4.9c-0.1,0-0.1,0-0.1-0.1c-5.3-3-12.1-2.5-19.2,1.6C62.4,33.9,48.8,60,48.8,82.4
								C48.8,94,52.5,102.7,59.1,106.5C59,106.5,59,106.5,59.1,106.5z"/>
						</g>
						<path class="st0" d="M55.3,51.1c-4.7,9.9-7.5,21-7.5,31.3c0,12.4,4.1,21.2,10.7,24.9l0,0l9.5,5.5l1.2-3.7
							c3-0.4,6.1-1.6,9.4-3.5c2.5-1.5,5-3.3,7.3-5.4l13.6-23.6L55.3,51.1z"/>
						<g>
							
								<ellipse transform="matrix(0.3916 -0.9201 0.9201 0.3916 -10.7702 123.7787)" class="st0" cx="88.2" cy="70" rx="47.4" ry="26.8"/>
							<path class="st0" d="M75.9,115.9c-3,0-5.9-0.7-8.4-2.2c-7.1-4.1-11.2-13.5-11.2-25.8c0-23,14.1-49.8,31.3-59.8
								c7.7-4.5,15.3-5,21.2-1.6C115.9,30.6,120,40,120,52.3c0,23-14.1,49.8-31.3,59.8C84.2,114.6,79.9,115.9,75.9,115.9z
								 M100.4,26.2c-3.7,0-7.7,1.2-11.8,3.6c-16.7,9.7-30.3,35.7-30.3,58.1c0,11.6,3.7,20.4,10.2,24.1c5.3,3,12.1,2.5,19.2-1.6
								c16.7-9.7,30.3-35.7,30.3-58.1c0-11.6-3.7-20.4-10.2-24.1C105.6,26.9,103.1,26.2,100.4,26.2z"/>
						</g>
						<path class="st2" d="M75.9,115.9c-3,0-5.8-0.7-8.3-2.1c-0.1,0-0.1,0-0.2-0.1l-9.5-5.5l-0.1-0.1c-7-4.1-11-13.5-11-25.7
							c0-1.1,0-2.3,0.1-3.7v-0.4c0.1-1.1,0.2-2.3,0.4-3.6l0.1-0.5c0.2-1.2,0.3-2.4,0.6-3.6l0.1-0.4c0.2-1.3,0.5-2.5,0.8-3.7v-0.1
							c1.3-5.4,3.2-10.6,5.6-15.6c6-12.6,14.6-22.8,23.7-28.1c7.7-4.4,15.1-5,21-1.7c0.1,0,0.1,0,0.1,0.1l9.5,5.5l0.1,0.1
							c7,4.1,11,13.5,11,25.7c0,23-14.1,49.8-31.3,59.8C84.3,114.6,79.9,115.9,75.9,115.9z M68.3,111.9
							C68.4,111.9,68.4,111.9,68.3,111.9c5.4,3.2,12.2,2.6,19.3-1.5c16.7-9.7,30.3-35.7,30.3-58.1c0-11.6-3.7-20.3-10.2-24.1
							l-0.1-0.1l-9.3-5.3c0,0-0.1,0-0.1-0.1c-5.3-3.1-12.1-2.5-19.2,1.6c-8.8,5.1-17.1,15-22.9,27.2c-2.3,4.9-4.2,10-5.4,15.2v0.1
							c-0.3,1.3-0.6,2.5-0.8,3.7l-0.1,0.4c-0.2,1.2-0.4,2.4-0.6,3.5l-0.1,0.5c-0.2,1.2-0.3,2.4-0.3,3.5v0.4
							c-0.1,1.3-0.1,2.5-0.1,3.6c0,11.6,3.7,20.3,10.2,24.1l0.1,0.1L68.3,111.9z"/>
						<path class="st0" d="M77.8,107.9c-9.5,0-15.6-8.9-15.6-22.7c0-19.2,11.7-41.5,26.1-49.8c3.6-2.1,7-3.1,10.3-3.1
							c9.5,0,15.6,8.9,15.6,22.7c0,19.2-11.7,41.5-26,49.8C84.5,106.8,81,107.9,77.8,107.9z M98.5,34.2c-2.9,0-6,1-9.3,2.8
							c-13.8,8-25.1,29.5-25.1,48.1c0,12.6,5.3,20.7,13.6,20.7c2.9,0,6-1,9.3-2.8c13.8-8,25-29.5,25-48.1
							C112.1,42.4,106.8,34.2,98.5,34.2z"/>
						<path class="st3" d="M77.8,106.9c-8.9,0-14.6-8.5-14.6-21.7c0-18.8,11.5-40.8,25.5-48.9c3.4-2,6.7-3,9.8-3
							c8.9,0,14.6,8.5,14.6,21.7c0,18.8-11.5,40.8-25.5,48.9C84.2,105.9,80.9,106.9,77.8,106.9z"/>
						<path class="st1" d="M98.5,33.2c-3.1,0-6.4,1-9.8,3c-7.7,4.5-14.6,13.1-19.3,23l37.5,21.7c3.9-8.2,6.2-17.4,6.2-25.9
							C113.1,41.8,107.4,33.2,98.5,33.2z"/>
						<path class="st0" d="M77.8,107.9c-9.5,0-15.6-8.9-15.6-22.7c0-19.2,11.7-41.5,26.1-49.8c3.6-2.1,7-3.1,10.3-3.1
							c9.5,0,15.6,8.9,15.6,22.7c0,19.2-11.7,41.5-26,49.8C84.5,106.8,81,107.9,77.8,107.9z M98.5,34.2c-2.9,0-6,1-9.3,2.8
							c-13.8,8-25.1,29.5-25.1,48.1c0,12.6,5.3,20.7,13.6,20.7c2.9,0,6-1,9.3-2.8c13.8-8,25-29.5,25-48.1
							C112.1,42.4,106.8,34.2,98.5,34.2z"/>
						<path class="st2" d="M77.8,107.9c-9.5,0-15.6-8.9-15.6-22.7c0-19.2,11.7-41.5,26.1-49.8c3.6-2.1,7-3.1,10.3-3.1
							c9.5,0,15.6,8.9,15.6,22.7c0,19.2-11.7,41.5-26,49.8C84.5,106.8,81,107.9,77.8,107.9z M98.5,34.2c-2.9,0-6,1-9.3,2.8
							c-13.8,8-25.1,29.5-25.1,48.1c0,12.6,5.3,20.7,13.6,20.7c2.9,0,6-1,9.3-2.8c13.8-8,25-29.5,25-48.1
							C112.1,42.4,106.8,34.2,98.5,34.2z"/>
						<g>
							<path class="st1" d="M65.3,70.3l20.1,6.8l6.4-13.5L75.2,49.2C70.9,55.3,67.4,62.7,65.3,70.3z"/>
							<path class="st0" d="M85.4,78.1c-0.1,0-0.2,0-0.3-0.1L65,71.2c-0.5-0.2-0.8-0.7-0.6-1.2c2.1-7.7,5.6-15.1,10.1-21.4
								c0.2-0.2,0.4-0.4,0.7-0.4c0.3,0,0.6,0.1,0.8,0.2l16.5,14.4c0.3,0.3,0.4,0.8,0.2,1.2l-6.4,13.5C86.1,77.9,85.8,78.1,85.4,78.1
								z M66.5,69.7l18.3,6.2l5.7-12L75.4,50.7C71.5,56.4,68.5,62.9,66.5,69.7z"/>
						</g>
						<path class="st0" d="M69.4,59.2c-1.7,3.6-3.1,7.3-4.1,11.1l20.1,6.8l3.2-6.8L69.4,59.2z"/>
						<g>
							
								<ellipse transform="matrix(0.3916 -0.9201 0.9201 0.3916 -10.7702 123.7788)" class="st2" cx="88.2" cy="70" rx="7.5" ry="4.3"/>
							<path class="st2" d="M86.2,78.2c-0.6,0-1.2-0.2-1.8-0.5c-1.4-0.8-2.2-2.6-2.2-4.8c0-4,2.4-8.5,5.4-10.2c1.5-0.9,3-1,4.2-0.3
								c1.4,0.8,2.2,2.6,2.2,4.8c0,4-2.4,8.5-5.4,10.2C87.8,78,87,78.2,86.2,78.2z M90.1,63.9c-0.5,0-1,0.2-1.4,0.5
								c-2.4,1.4-4.4,5.3-4.4,8.5c0,1.5,0.4,2.7,1.2,3.1c0.7,0.4,1.6,0.1,2.2-0.3c2.4-1.4,4.4-5.3,4.4-8.5c0-1.5-0.4-2.7-1.2-3.1
								C90.6,64,90.4,63.9,90.1,63.9z"/>
						</g>
						
							<ellipse transform="matrix(0.3916 -0.9201 0.9201 0.3916 -10.7702 123.7788)" class="st0" cx="88.2" cy="70" rx="3.2" ry="1.8"/>
						<path class="st2" d="M86.2,78.2c-0.4,0-0.8-0.1-1.1-0.2H85l-20-6.8c-0.5-0.2-0.8-0.7-0.6-1.2c2.1-7.7,5.6-15.1,10.1-21.4
							c0.2-0.2,0.4-0.4,0.7-0.4c0.3,0,0.6,0.1,0.8,0.2l16.5,14.4l0.1,0.1c1,0.9,1.5,2.5,1.5,4.3c0,4-2.4,8.5-5.4,10.2
							C87.7,78,86.9,78.2,86.2,78.2z M85.6,76.1C85.7,76.1,85.7,76.1,85.6,76.1c0.6,0.2,1.3,0.1,2-0.4c2.4-1.4,4.4-5.3,4.4-8.5
							c0-1.3-0.3-2.4-1-2.9l-0.1-0.1L75.4,50.7c-3.9,5.7-6.9,12.2-8.9,19L85.6,76.1z"/>
						<path class="st2" d="M28.3,66.6c-0.6,0-1-0.4-1-1v-0.9c0-0.6,0.4-1,1-1s1,0.4,1,1v0.9C29.3,66.2,28.9,66.6,28.3,66.6z"/>
					</g>
					<path class="st2" d="M77.8,107.9c-9.5,0-15.6-8.9-15.6-22.7c0-19.2,11.7-41.5,26.1-49.8c3.6-2.1,7-3.1,10.3-3.1
						c9.5,0,15.6,8.9,15.6,22.7c0,19.2-11.7,41.5-26,49.8C84.5,106.8,81,107.9,77.8,107.9z M98.5,34.2c-2.9,0-6,1-9.3,2.8
						c-13.8,8-25.1,29.5-25.1,48.1c0,12.6,5.3,20.7,13.6,20.7c2.9,0,6-1,9.3-2.8c13.8-8,25-29.5,25-48.1
						C112.1,42.4,106.8,34.2,98.5,34.2z"/>
				</g>
				<rect x="4" y="4" class="st4" width="120" height="120"/>
				<rect x="4" y="4" class="st4" width="120" height="120"/>
			</g>
		</g>
	</g>
	<g>
		<rect class="st4" width="128" height="128"/>
	</g>
</g>
</svg>
