<?xml version="1.0" encoding="utf-8"?>
<!-- Generator: Adobe Illustrator 24.1.0, SVG Export Plug-In . SVG Version: 6.00 Build 0)  -->
<svg version="1.1" id="Layer_1" xmlns="http://www.w3.org/2000/svg" xmlns:xlink="http://www.w3.org/1999/xlink" x="0px" y="0px"
	 viewBox="0 0 128 128" style="enable-background:new 0 0 128 128;" xml:space="preserve">
<style type="text/css">
	.st0{fill:#C4D7D3;}
	.st1{fill:#27ae60;}
	.st2{fill:#185849;}
	.st3{fill:#FFFFFF;}
	.st4{fill:#4D9987;}
	.st5{fill:#E9EBDF;}
	.st6{fill:#0E352C;}
	.st7{fill:none;}
</style>
<g id="Layer_1_1_">
</g>
<g>
	<g id="Layer_2_1_">
		<g id="Industries_1_">
			<g>
				<g>
					<g>
						<polygon class="st0" points="16,96.8 16,103.3 27.3,109.8 27.3,103.3 						"/>
						<path class="st1" d="M27.3,110.8c-0.2,0-0.3,0-0.5-0.1l-11.3-6.5c-0.3-0.2-0.5-0.5-0.5-0.9v-6.5c0-0.4,0.2-0.7,0.5-0.9
							s0.7-0.2,1,0l11.3,6.5c0.3,0.2,0.5,0.5,0.5,0.9v6.5c0,0.4-0.2,0.7-0.5,0.9C27.6,110.7,27.5,110.8,27.3,110.8z M17,102.7
							l9.3,5.4V104L17,98.5V102.7z"/>
					</g>
					<g>
						<polygon class="st1" points="38.6,96.8 38.6,103.3 27.3,109.8 27.3,103.3 						"/>
						<path class="st1" d="M27.3,110.8c-0.2,0-0.3,0-0.5-0.1c-0.3-0.2-0.5-0.5-0.5-0.9v-6.5c0-0.4,0.2-0.7,0.5-0.9l11.3-6.5
							c0.3-0.2,0.7-0.2,1,0s0.5,0.5,0.5,0.9v6.5c0,0.4-0.2,0.7-0.5,0.9l-11.3,6.5C27.6,110.7,27.5,110.8,27.3,110.8z M28.3,103.9
							v4.1l9.3-5.4v-4.1L28.3,103.9z"/>
					</g>
					<path class="st2" d="M27.3,110.8c-0.2,0-0.3,0-0.5-0.1l-11.3-6.5c-0.3-0.2-0.5-0.5-0.5-0.9v-6.5c0-0.4,0.2-0.7,0.5-0.9
						s0.7-0.2,1,0l10.8,6.2l10.8-6.2c0.3-0.2,0.7-0.2,1,0s0.5,0.5,0.5,0.9v6.5c0,0.4-0.2,0.7-0.5,0.9l-11.3,6.5
						C27.6,110.7,27.5,110.8,27.3,110.8z M17,102.7l10.3,5.9l10.3-5.9v-4.1l-9.8,5.7c-0.3,0.2-0.7,0.2-1,0L17,98.5V102.7z"/>
					<g>
						<polygon class="st2" points="84.3,83.8 84.3,90.2 95.6,96.8 95.6,90.3 						"/>
						<path class="st2" d="M95.6,97.8c-0.2,0-0.3,0-0.5-0.1l-11.3-6.5c-0.3-0.2-0.5-0.5-0.5-0.9v-6.5c0-0.4,0.2-0.7,0.5-0.9
							s0.7-0.2,1,0l11.3,6.5c0.3,0.2,0.5,0.5,0.5,0.9v6.5c0,0.4-0.2,0.7-0.5,0.9C96,97.7,95.8,97.8,95.6,97.8z M85.3,89.7l9.3,5.4
							V91l-9.3-5.4V89.7z"/>
					</g>
					<g>
						<polygon class="st1" points="106.9,83.8 106.9,90.2 95.6,96.8 95.6,90.3 						"/>
						<path class="st1" d="M95.6,97.8c-0.2,0-0.3,0-0.5-0.1c-0.3-0.2-0.5-0.5-0.5-0.9v-6.5c0-0.4,0.2-0.7,0.5-0.9l11.3-6.5
							c0.3-0.2,0.7-0.2,1,0s0.5,0.5,0.5,0.9v6.5c0,0.4-0.2,0.7-0.5,0.9l-11.3,6.5C96,97.7,95.8,97.8,95.6,97.8z M96.6,90.9V95
							l9.3-5.4v-4.1L96.6,90.9z"/>
					</g>
					<g>
						<polygon class="st1" points="95.6,90.3 84.3,83.8 84.3,90.2 95.6,96.8 106.9,90.2 106.9,83.8 						"/>
						<path class="st1" d="M95.6,97.8c-0.2,0-0.3,0-0.5-0.1l-11.3-6.5c-0.3-0.2-0.5-0.5-0.5-0.9v-6.5c0-0.4,0.2-0.7,0.5-0.9
							s0.7-0.2,1,0l10.8,6.2l10.8-6.2c0.3-0.2,0.7-0.2,1,0s0.5,0.5,0.5,0.9v6.5c0,0.4-0.2,0.7-0.5,0.9l-11.3,6.5
							C96,97.7,95.8,97.8,95.6,97.8z M85.3,89.7l10.3,5.9l10.3-5.9v-4.1l-9.8,5.7c-0.3,0.2-0.7,0.2-1,0l-9.8-5.7V89.7z"/>
					</g>
					<g>
						<polygon class="st0" points="84.3,83.8 84.3,90.2 95.6,96.8 95.6,90.3 						"/>
						<path class="st1" d="M95.6,97.8c-0.2,0-0.3,0-0.5-0.1l-11.3-6.5c-0.3-0.2-0.5-0.5-0.5-0.9v-6.5c0-0.4,0.2-0.7,0.5-0.9
							s0.7-0.2,1,0l11.3,6.5c0.3,0.2,0.5,0.5,0.5,0.9v6.5c0,0.4-0.2,0.7-0.5,0.9C96,97.7,95.8,97.8,95.6,97.8z M85.3,89.7l9.3,5.4
							V91l-9.3-5.4V89.7z"/>
					</g>
					<path class="st2" d="M95.6,97.8c-0.2,0-0.3,0-0.5-0.1l-11.3-6.5c-0.3-0.2-0.5-0.5-0.5-0.9v-6.5c0-0.4,0.2-0.7,0.5-0.9
						s0.7-0.2,1,0l10.8,6.2l10.8-6.2c0.3-0.2,0.7-0.2,1,0s0.5,0.5,0.5,0.9v6.5c0,0.4-0.2,0.7-0.5,0.9l-11.3,6.5
						C96,97.7,95.8,97.8,95.6,97.8z M85.3,89.7l10.3,5.9l10.3-5.9v-4.1l-9.8,5.7c-0.3,0.2-0.7,0.2-1,0l-9.8-5.7V89.7z"/>
					<g>
						<polygon class="st0" points="38.9,110 38.9,116.5 50.2,123 50.2,116.5 						"/>
						<path class="st1" d="M50.2,124c-0.2,0-0.3,0-0.5-0.1l-11.3-6.5c-0.3-0.2-0.5-0.5-0.5-0.9V110c0-0.4,0.2-0.7,0.5-0.9
							s0.7-0.2,1,0l11.3,6.5c0.3,0.2,0.5,0.5,0.5,0.9v6.5c0,0.4-0.2,0.7-0.5,0.9C50.5,124,50.3,124,50.2,124z M39.9,115.9l9.3,5.4
							v-4.1l-9.3-5.4V115.9z"/>
					</g>
					<g>
						<polygon class="st1" points="61.5,110 61.5,116.5 50.2,123 50.2,116.5 						"/>
						<path class="st1" d="M50.2,124c-0.2,0-0.3,0-0.5-0.1c-0.3-0.2-0.5-0.5-0.5-0.9v-6.5c0-0.4,0.2-0.7,0.5-0.9l11.3-6.5
							c0.3-0.2,0.7-0.2,1,0s0.5,0.5,0.5,0.9v6.5c0,0.4-0.2,0.7-0.5,0.9l-11.3,6.5C50.5,124,50.3,124,50.2,124z M51.2,117.1v4.1
							l9.3-5.4v-4.1L51.2,117.1z"/>
					</g>
					<path class="st2" d="M50.2,124c-0.2,0-0.3,0-0.5-0.1l-11.3-6.5c-0.3-0.2-0.5-0.5-0.5-0.9V110c0-0.4,0.2-0.7,0.5-0.9
						s0.7-0.2,1,0l10.8,6.2l10.8-6.2c0.3-0.2,0.7-0.2,1,0s0.5,0.5,0.5,0.9v6.5c0,0.4-0.2,0.7-0.5,0.9l-11.3,6.5
						C50.5,124,50.3,124,50.2,124z M39.9,115.9l10.3,5.9l10.3-5.9v-4.1l-9.8,5.7c-0.3,0.2-0.7,0.2-1,0l-9.8-5.7V115.9z"/>
					<g>
						<g>
							<path class="st3" d="M106.9,73.1L72.7,39.3L16,72.1v24.8l34.2,19.7L107,83.8L106.9,73.1L106.9,73.1z"/>
							<polygon class="st3" points="23.5,73 72,45 99.4,72.1 50.9,100.1 							"/>
							<g>
								<polygon class="st0" points="83.4,69.8 70.1,46.7 25,72.7 27.6,77 43.5,92.8 								"/>
								<path class="st0" d="M43.5,93.8c-0.3,0-0.5-0.1-0.7-0.3l-16-15.8c-0.1-0.1-0.1-0.1-0.2-0.2l-2.5-4.4
									c-0.3-0.5-0.1-1.1,0.4-1.4l45-26c0.2-0.1,0.5-0.2,0.8-0.1c0.3,0.1,0.5,0.2,0.6,0.5l13.3,23.1c0.3,0.5,0.1,1.1-0.4,1.4
									L44,93.7C43.9,93.8,43.7,93.8,43.5,93.8z M28.4,76.4l15.3,15.1l38.4-22.2L69.7,48L26.4,73L28.4,76.4z"/>
							</g>
							<path class="st1" d="M50.9,101.1c-0.3,0-0.5-0.1-0.7-0.3L22.8,73.7c-0.2-0.2-0.3-0.5-0.3-0.8s0.2-0.6,0.5-0.7l48.5-28
								c0.4-0.2,0.9-0.2,1.2,0.2l27.4,27.1c0.2,0.2,0.3,0.5,0.3,0.8s-0.2,0.6-0.5,0.7l-48.5,28C51.3,101.1,51.1,101.1,50.9,101.1z
								 M25.2,73.2l25.9,25.6l46.7-27l-26-25.5L25.2,73.2z"/>
							<g>
								<polygon class="st1" points="106.9,73.1 106.9,83.8 50.2,116.5 50.2,105.8 								"/>
								<path class="st1" d="M50.2,117.5c-0.2,0-0.3,0-0.5-0.1c-0.3-0.2-0.5-0.5-0.5-0.9v-10.7c0-0.4,0.2-0.7,0.5-0.9l56.8-32.8
									c0.3-0.2,0.7-0.2,1,0s0.5,0.5,0.5,0.9v10.7c0,0.4-0.2,0.7-0.5,0.9l-56.8,32.8C50.5,117.5,50.3,117.5,50.2,117.5z
									 M51.2,106.4v8.4L106,83.2v-8.4L51.2,106.4z"/>
							</g>
							<g>
								<polygon class="st0" points="16,72.1 16,96.8 50.2,116.5 50.2,105.8 								"/>
								<path class="st1" d="M50.2,117.5c-0.2,0-0.3,0-0.5-0.1L15.5,97.7c-0.3-0.2-0.5-0.5-0.5-0.9V72.1c0-0.4,0.2-0.8,0.6-0.9
									c0.4-0.2,0.8-0.1,1.1,0.2l34.2,33.8c0.2,0.2,0.3,0.4,0.3,0.7v10.7c0,0.4-0.2,0.7-0.5,0.9C50.5,117.5,50.3,117.5,50.2,117.5z
									 M17,96.2l32.2,18.6v-8.6L17,74.5V96.2z"/>
							</g>
							<path class="st2" d="M50.2,117.5c-0.2,0-0.3,0-0.5-0.1L15.5,97.7c-0.3-0.2-0.5-0.5-0.5-0.9V72.1c0-0.4,0.2-0.7,0.5-0.9
								l56.8-32.8c0.4-0.2,0.9-0.2,1.2,0.2l34.2,33.8c0.2,0.2,0.3,0.4,0.3,0.7v10.7c0,0.4-0.2,0.7-0.5,0.9l-56.8,32.8
								C50.5,117.5,50.3,117.5,50.2,117.5z M17,96.2l33.2,19.2L106,83.2v-9.7l-33.4-33L17,72.6V96.2z"/>
							<g>
								<polygon class="st1" points="72,45 23.5,73 39.3,88.7 72,69.8 								"/>
								<path class="st1" d="M39.3,89.7c-0.3,0-0.5-0.1-0.7-0.3L22.8,73.7c-0.2-0.2-0.3-0.5-0.3-0.8s0.2-0.6,0.5-0.7l48.5-28
									c0.3-0.2,0.7-0.2,1,0S73,44.7,73,45v24.8c0,0.4-0.2,0.7-0.5,0.9L39.8,89.5C39.7,89.6,39.5,89.7,39.3,89.7z M25.2,73.2
									l14.3,14.2L71,69.2V46.8L25.2,73.2z"/>
							</g>
							<g>
								<polygon class="st0" points="87.7,78.9 99.4,72.1 72,45 72,69.8 								"/>
								<path class="st1" d="M87.7,79.9c-0.2,0-0.3,0-0.5-0.1l-15.7-9.1c-0.3-0.2-0.5-0.5-0.5-0.9V45c0-0.4,0.2-0.8,0.6-0.9
									c0.4-0.2,0.8-0.1,1.1,0.2l27.4,27.1c0.2,0.2,0.3,0.5,0.3,0.8s-0.2,0.6-0.5,0.7l-11.7,6.7C88.1,79.8,87.9,79.9,87.7,79.9z
									 M73,69.2l14.7,8.5l10-5.8L73,47.4V69.2z"/>
							</g>
							<g>
								<polygon class="st1" points="72,45 77.7,73.1 72,69.8 								"/>
								<path class="st1" d="M77.7,74.1c-0.2,0-0.3,0-0.5-0.1l-5.7-3.3c-0.3-0.2-0.5-0.5-0.5-0.9V45c0-0.5,0.4-0.9,0.9-1
									s1,0.3,1.1,0.8l5.7,28c0.1,0.4-0.1,0.8-0.4,1C78.1,74,77.9,74.1,77.7,74.1z M73,69.2l3.3,1.9L73,55V69.2z"/>
							</g>
						</g>
						<g>
							<g>
								<polygon class="st0" points="16,72.1 16,37.8 20,40.3 20,76 								"/>
								<path class="st1" d="M20,77c-0.3,0-0.5-0.1-0.7-0.3l-4-3.9c-0.2-0.2-0.3-0.4-0.3-0.7V37.8c0-0.4,0.2-0.7,0.5-0.9
									s0.7-0.2,1,0l4,2.5c0.3,0.2,0.5,0.5,0.5,0.8V76c0,0.4-0.2,0.8-0.6,0.9C20.2,77,20.1,77,20,77z M17,71.6l2,2V40.8l-2-1.2
									V71.6z"/>
							</g>
							<g>
								<polygon class="st1" points="20,76 23.3,74.1 23.3,38.6 20,40.3 								"/>
								<path class="st1" d="M20,77c-0.2,0-0.3,0-0.5-0.1C19.2,76.7,19,76.3,19,76V40.3c0-0.4,0.2-0.7,0.5-0.9l3.3-1.7
									c0.3-0.2,0.7-0.1,1,0c0.3,0.2,0.5,0.5,0.5,0.9v35.5c0,0.4-0.2,0.7-0.5,0.9l-3.3,1.9C20.3,76.9,20.2,77,20,77z M21,40.9v33.4
									l1.3-0.8V40.2L21,40.9z"/>
							</g>
						</g>
						<path class="st2" d="M16,78.9c-0.6,0-1-0.4-1-1V37.8c0-0.4,0.2-0.7,0.5-0.9s0.7-0.2,1,0l3.5,2.2l2.8-1.5c0.3-0.2,0.7-0.1,1,0
							c0.3,0.2,0.5,0.5,0.5,0.9v29.2c0,0.6-0.4,1-1,1s-1-0.4-1-1V40.2l-1.8,1c-0.3,0.2-0.7,0.1-1,0L17,39.6v38.3
							C17,78.5,16.5,78.9,16,78.9z"/>
						<g>
							<g>
								<path class="st4" d="M112,42.8C112,42.8,111.9,42.8,112,42.8l-31.2-3c-0.4,0-0.8-0.3-0.9-0.8L71.8,5.2
									c-0.1-0.4,0.1-0.9,0.5-1.1c0.4-0.2,0.8-0.2,1.2,0.1L112.7,38c0.2,0.2,0.3,0.5,0.3,0.8v3c0,0.3-0.1,0.6-0.3,0.7
									C112.5,42.7,112.3,42.8,112,42.8z M81.7,37.8l29.3,2.9v-1.4L74.5,7.8L81.7,37.8z"/>
								<g>
									<polygon class="st5" points="100.6,48.4 100.6,45.4 61.4,11.6 69.6,47.4 									"/>
									<path class="st4" d="M100.6,49.4L100.6,49.4l-31.1-1c-0.5,0-0.8-0.3-0.9-0.8l-8.1-35.8c-0.1-0.4,0.1-0.9,0.5-1.1
										c0.4-0.2,0.8-0.2,1.2,0.1l39.2,33.8c0.2,0.2,0.3,0.5,0.3,0.8v3c0,0.3-0.1,0.5-0.3,0.7C101.2,49.3,100.9,49.4,100.6,49.4z
										 M70.4,46.4l29.3,0.9v-1.5L63.1,14.3L70.4,46.4z"/>
								</g>
								<g>
									<path class="st3" d="M72.8,5l-11.4,6.6l39.2,33.8v3c0,4.2,2.5,6.1,5.7,4.3c3.1-1.8,5.7-6.7,5.7-10.9v-3L72.8,5z"/>
									<path class="st4" d="M104.1,54.4c-0.7,0-1.4-0.2-2-0.5c-1.6-0.9-2.5-2.9-2.5-5.5v-2.5L60.8,12.3c-0.2-0.2-0.4-0.5-0.3-0.9
										s0.2-0.6,0.5-0.8L72.4,4c0.4-0.2,0.8-0.2,1.2,0.1l39.2,33.8c0.2,0.2,0.3,0.5,0.3,0.8v3c0,4.6-2.7,9.7-6.2,11.7
										C105.9,54.1,104.9,54.4,104.1,54.4z M63.2,11.7l38.1,32.9c0.2,0.2,0.3,0.5,0.3,0.8v3c0,1.8,0.5,3.2,1.5,3.7
										c0.9,0.5,2,0.1,2.7-0.3c2.8-1.6,5.2-6.2,5.2-10v-2.5L72.7,6.2L63.2,11.7z"/>
								</g>
								<g>
									<path class="st5" d="M100.6,48.4c0,4.2,2.5,6.1,5.7,4.3S112,46,112,41.8v-3l-11.4,6.6V48.4z"/>
									<path class="st4" d="M104.1,54.4c-0.7,0-1.4-0.2-2-0.5c-1.6-0.9-2.5-2.9-2.5-5.5v-3c0-0.4,0.2-0.7,0.5-0.9l11.4-6.6
										c0.3-0.2,0.7-0.2,1,0s0.5,0.5,0.5,0.9v3c0,4.6-2.7,9.7-6.2,11.7C105.9,54.1,104.9,54.4,104.1,54.4z M101.6,46v2.4
										c0,1.8,0.5,3.2,1.5,3.7c0.9,0.5,2,0.1,2.7-0.3c2.8-1.6,5.2-6.2,5.2-10v-1.2L101.6,46z"/>
								</g>
							</g>
							<g>
								<path class="st4" d="M100.6,49.4L100.6,49.4l-31.2-3c-0.4,0-0.8-0.3-0.9-0.8l-8.1-33.8c-0.1-0.4,0.1-0.9,0.5-1.1
									c0.4-0.2,0.8-0.2,1.2,0.1l39.2,33.8c0.2,0.2,0.3,0.5,0.3,0.8v3c0,0.3-0.1,0.6-0.3,0.7C101.1,49.3,100.9,49.4,100.6,49.4z
									 M70.4,44.4l29.3,2.9v-1.4L63.1,14.3L70.4,44.4z"/>
								<g>
									<polygon class="st4" points="89.3,54.9 89.3,52 50.1,18.1 58.2,53.9 									"/>
									<path class="st4" d="M89.3,55.9L89.3,55.9l-31.1-1c-0.5,0-0.8-0.3-0.9-0.8l-8.1-35.8c-0.1-0.4,0.1-0.9,0.5-1.1
										s0.8-0.2,1.2,0.1l39.2,33.8c0.2,0.2,0.3,0.5,0.3,0.8v3c0,0.3-0.1,0.5-0.3,0.7C89.8,55.8,89.5,55.9,89.3,55.9z M59,53
										l29.3,0.9v-1.5L51.7,20.9L59,53z"/>
								</g>
								<g>
									<path class="st5" d="M61.4,11.6L50,18.2L89.3,52v3c0,4.2,2.5,6.1,5.7,4.3c3.1-1.8,5.7-6.7,5.7-10.9v-3L61.4,11.6z"/>
									<path class="st4" d="M92.7,60.9c-0.7,0-1.4-0.2-2-0.5c-1.6-0.9-2.5-2.9-2.5-5.5v-2.5L49.4,18.9c-0.2-0.2-0.4-0.5-0.3-0.9
										c0-0.3,0.2-0.6,0.5-0.8L61,10.6c0.4-0.2,0.8-0.2,1.2,0.1l39.2,33.8c0.2,0.2,0.3,0.5,0.3,0.8v3c0,4.6-2.7,9.7-6.2,11.7
										C94.5,60.6,93.6,60.9,92.7,60.9z M51.8,18.3l38.1,32.9c0.2,0.2,0.3,0.5,0.3,0.8v3c0,1.8,0.5,3.2,1.5,3.7
										c0.9,0.5,2,0.1,2.7-0.3c2.8-1.6,5.2-6.2,5.2-10v-2.5L61.3,12.8L51.8,18.3z"/>
								</g>
								<g>
									<path class="st4" d="M89.3,54.9c0,4.2,2.5,6.1,5.7,4.3s5.7-6.7,5.7-10.9v-3L89.3,52V54.9z"/>
									<path class="st4" d="M92.7,60.9c-0.7,0-1.4-0.2-2-0.5c-1.6-0.9-2.5-2.9-2.5-5.5v-3c0-0.4,0.2-0.7,0.5-0.9l11.4-6.6
										c0.3-0.2,0.7-0.2,1,0s0.5,0.5,0.5,0.9v3c0,4.6-2.7,9.7-6.2,11.7C94.5,60.6,93.6,60.9,92.7,60.9z M90.3,52.5v2.4
										c0,1.8,0.5,3.2,1.5,3.7c0.9,0.5,2,0.1,2.7-0.3c2.8-1.6,5.2-6.2,5.2-10v-1.2L90.3,52.5z"/>
								</g>
							</g>
							<g>
								<path class="st4" d="M66.9,60.3c-0.4,0-0.8-0.2-0.9-0.6L49.2,18.5c-0.2-0.4,0-0.9,0.3-1.2c0.4-0.3,0.9-0.2,1.2,0.1
									l39.2,33.8c0.2,0.2,0.3,0.5,0.3,0.8v3c0,0.5-0.3,0.9-0.8,1L66.9,60.3C67,60.2,66.9,60.3,66.9,60.3z M52.6,21.6l14.9,36.5
									l20.8-4v-1.7L52.6,21.6z M89.3,54.9L89.3,54.9L89.3,54.9z"/>
								<g>
									<polygon class="st5" points="77.9,61.5 77.9,58.5 38.7,24.7 55.5,67.8 									"/>
									<path class="st4" d="M55.5,68.8c-0.4,0-0.8-0.2-0.9-0.6L37.8,25c-0.2-0.4,0-0.9,0.4-1.2s0.9-0.2,1.2,0.1l39.2,33.8
										c0.2,0.2,0.3,0.5,0.3,0.8v3c0,0.4-0.3,0.8-0.7,1l-22.4,6.4C55.7,68.8,55.6,68.8,55.5,68.8z M41.1,28.1l15,38.6l20.8-5.9V59
										L41.1,28.1z M77.9,61.5L77.9,61.5L77.9,61.5z"/>
								</g>
								<g>
									<path class="st3" d="M50.1,18.1l-11.4,6.6l39.2,33.8v3c0,4.2,2.5,6.1,5.7,4.3c3.1-1.8,5.7-6.7,5.7-10.9v-3L50.1,18.1z"/>
									<path class="st4" d="M81.3,67.5c-0.7,0-1.4-0.2-2-0.5c-1.6-0.9-2.5-2.9-2.5-5.5V59L38.1,25.4c-0.2-0.2-0.4-0.5-0.3-0.9
										c0-0.3,0.2-0.6,0.5-0.8l11.4-6.6c0.4-0.2,0.8-0.2,1.2,0.1L90.1,51c0.2,0.2,0.3,0.5,0.3,0.8v3c0,4.6-2.7,9.7-6.2,11.7
										C83.2,67.2,82.2,67.5,81.3,67.5z M40.4,24.8l38.1,32.9c0.2,0.2,0.3,0.5,0.3,0.8v3c0,1.8,0.5,3.2,1.5,3.7
										c0.9,0.5,2,0.1,2.7-0.3c2.8-1.6,5.2-6.2,5.2-10v-2.5L50,19.3L40.4,24.8z"/>
								</g>
								<g>
									<path class="st5" d="M77.9,61.5c0,4.2,2.5,6.1,5.7,4.3c3.1-1.8,5.7-6.7,5.7-10.9v-3l-11.4,6.6
										C77.9,58.5,77.9,61.5,77.9,61.5z"/>
									<path class="st4" d="M81.3,67.5c-0.7,0-1.4-0.2-2-0.5c-1.6-0.9-2.5-2.9-2.5-5.5v-3c0-0.4,0.2-0.7,0.5-0.9L88.7,51
										c0.3-0.2,0.7-0.2,1,0s0.5,0.5,0.5,0.9v3c0,4.6-2.7,9.7-6.2,11.7C83.2,67.2,82.2,67.5,81.3,67.5z M78.9,59.1v2.4
										c0,1.8,0.5,3.2,1.5,3.7c0.9,0.5,2,0.1,2.7-0.3c2.8-1.6,5.2-6.2,5.2-10v-1.2L78.9,59.1z"/>
								</g>
							</g>
							<g>
								<path class="st4" d="M55.5,66.8c-0.4,0-0.8-0.2-0.9-0.6L37.8,25.1c-0.2-0.4,0-0.9,0.3-1.2c0.4-0.3,0.9-0.2,1.2,0.1
									l39.2,33.8c0.2,0.2,0.3,0.5,0.3,0.8v3c0,0.5-0.3,0.9-0.8,1L55.5,66.8C55.7,66.8,55.6,66.8,55.5,66.8z M41.2,28.2l14.9,36.5
									l20.8-4V59L41.2,28.2z M77.9,61.5L77.9,61.5L77.9,61.5z"/>
								<g>
									<path class="st5" d="M38.7,24.7l-11.4,6.6l39.2,33.8v3c0,4.2,2.5,6.1,5.7,4.3c3.1-1.8,5.7-6.7,5.7-10.9v-3L38.7,24.7z"/>
									<path class="st4" d="M70,74c-0.7,0-1.4-0.2-2-0.5c-1.6-0.9-2.5-2.9-2.5-5.5v-2.5L26.7,32c-0.2-0.2-0.4-0.5-0.3-0.9
										c0-0.3,0.2-0.6,0.5-0.8l11.4-6.6c0.4-0.2,0.8-0.2,1.2,0.1l39.2,33.8c0.2,0.2,0.3,0.5,0.3,0.8v3c0,4.6-2.7,9.7-6.2,11.7
										C71.8,73.8,70.9,74,70,74z M29.1,31.4l38.1,32.9c0.2,0.2,0.3,0.5,0.3,0.8v3c0,1.8,0.5,3.2,1.5,3.7c0.9,0.5,2,0.1,2.7-0.3
										c2.8-1.6,5.2-6.2,5.2-10V59L38.6,25.9L29.1,31.4z"/>
								</g>
								<g>
									<path class="st4" d="M66.6,68.1c0,4.2,2.5,6.1,5.7,4.3c3.1-1.8,5.7-6.7,5.7-10.9v-3l-11.4,6.6
										C66.6,65.1,66.6,68.1,66.6,68.1z"/>
									<path class="st4" d="M70,74c-0.7,0-1.4-0.2-2-0.5c-1.6-0.9-2.5-2.9-2.5-5.5v-3c0-0.4,0.2-0.7,0.5-0.9l11.4-6.6
										c0.3-0.2,0.7-0.2,1,0s0.5,0.5,0.5,0.9v3c0,4.6-2.7,9.7-6.2,11.7C71.8,73.8,70.9,74,70,74z M67.6,65.7v2.4
										c0,1.8,0.5,3.2,1.5,3.7c0.9,0.5,2,0.1,2.7-0.3c2.8-1.6,5.2-6.2,5.2-10v-1.2L67.6,65.7z"/>
								</g>
							</g>
							<g>
								<g>
									<path class="st3" d="M27.4,31.2L16,37.8l39.2,33.8v3c0,4.2,2.5,6.1,5.7,4.3c3.1-1.8,5.7-6.7,5.7-10.9v-3L27.4,31.2z"/>
									<path class="st4" d="M58.6,80.6c-0.7,0-1.4-0.2-2-0.5c-1.6-0.9-2.5-2.9-2.5-5.5v-2.5L15.3,38.6C15.1,38.3,15,38,15,37.7
										s0.2-0.6,0.5-0.8l11.4-6.6c0.4-0.2,0.8-0.2,1.2,0.1l39.2,33.8c0.2,0.2,0.3,0.5,0.3,0.8v3c0,4.6-2.7,9.7-6.2,11.7
										C60.4,80.3,59.5,80.6,58.6,80.6z M17.7,38l38.1,32.9c0.2,0.2,0.3,0.5,0.3,0.8v3c0,1.8,0.5,3.2,1.5,3.7
										c0.9,0.5,2,0.1,2.7-0.3c2.8-1.6,5.2-6.2,5.2-10v-2.5L27.2,32.5L17.7,38z"/>
								</g>
								<g>
									<path class="st5" d="M55.2,74.6c0,4.2,2.5,6.1,5.7,4.3c3.2-1.8,5.7-6.7,5.7-10.9v-3l-11.4,6.6
										C55.2,71.6,55.2,74.6,55.2,74.6z"/>
									<path class="st4" d="M58.6,80.6c-0.7,0-1.4-0.2-2-0.5c-1.6-0.9-2.5-2.9-2.5-5.5v-3c0-0.4,0.2-0.7,0.5-0.9L66,64.1
										c0.3-0.2,0.7-0.2,1,0c0.3,0.2,0.5,0.5,0.5,0.9v3c0,4.6-2.7,9.7-6.2,11.7C60.4,80.3,59.5,80.6,58.6,80.6z M56.2,72.2v2.4
										c0,1.8,0.5,3.2,1.5,3.7c0.9,0.5,2,0.1,2.7-0.3c2.8-1.6,5.2-6.2,5.2-10v-1.2L56.2,72.2z"/>
								</g>
							</g>
						</g>
						<path class="st6" d="M58.6,80.6c-0.7,0-1.4-0.2-2-0.5c-1.6-0.9-2.5-2.9-2.5-5.5v-2.5L15.3,38.6C15.1,38.3,15,38,15,37.7
							s0.2-0.6,0.5-0.8L72.3,4.1c0.4-0.2,0.8-0.2,1.2,0.1L112.7,38c0.2,0.2,0.3,0.5,0.3,0.8v3c0,4.6-2.7,9.7-6.2,11.7
							c-0.9,0.5-1.8,0.8-2.7,0.8c-1.1,0-2.1-0.4-2.8-1.1c-0.1-0.1-0.3-0.3-0.4-0.5c-0.2,0.5-0.4,1.1-0.6,1.6
							c-0.1,0.3-0.3,0.5-0.4,0.8c-0.6,1.1-1.2,2-1.9,2.9c-0.8,0.9-1.6,1.6-2.5,2.1c-1.7,1-3.4,1.1-4.7,0.3c-0.5-0.3-0.9-0.6-1.2-1.1
							c-0.3,0.8-0.6,1.6-1,2.4c-0.3,0.5-0.6,1-0.9,1.5s-0.7,0.9-1,1.4c-0.2,0.2-0.4,0.4-0.6,0.6c-0.6,0.6-1.2,1.1-1.9,1.5
							c-1.7,1-3.4,1.1-4.7,0.3c-0.5-0.3-0.9-0.6-1.2-1.1c-1,3.1-3.1,6-5.4,7.3c-0.7,0.4-1.4,0.6-2,0.8c-0.4,0.1-0.9,0.1-1.3,0
							c-1.1-0.1-2-0.7-2.6-1.6c-0.7,2.2-2,4.3-3.5,5.9c-0.6,0.6-1.2,1.1-1.9,1.5C60.4,80.3,59.5,80.6,58.6,80.6z M17.7,38l38.1,32.9
							c0.2,0.2,0.3,0.5,0.3,0.8v3c0,1.8,0.5,3.2,1.5,3.7c0.9,0.5,2,0.1,2.7-0.3c0.5-0.3,1-0.7,1.5-1.2c2.2-2.2,3.7-5.8,3.7-8.8
							c0-0.6,0.4-1,1-1s1,0.4,1,1c0,2.3,0.8,3.8,2.1,4c0.2,0,0.5,0,0.7,0c0.4-0.1,0.9-0.2,1.4-0.5c2.8-1.6,5.2-6.2,5.2-10
							c0-0.6,0.4-1,1-1s1,0.4,1,1c0,1.8,0.5,3.2,1.5,3.7c0.9,0.5,2,0.1,2.7-0.3c0.5-0.3,1-0.7,1.5-1.2c0.2-0.2,0.3-0.3,0.5-0.5
							c0.3-0.4,0.6-0.7,0.9-1.2c0.3-0.4,0.5-0.9,0.8-1.3c0.5-0.9,0.9-1.9,1.1-2.9c0.3-1,0.4-2,0.4-2.9c0-0.6,0.4-1,1-1s1,0.4,1,1
							c0,1.8,0.5,3.2,1.5,3.7c0.9,0.5,2,0.1,2.7-0.3c0.7-0.4,1.3-0.9,2-1.7c0.6-0.7,1.2-1.5,1.7-2.5c0.1-0.2,0.2-0.5,0.3-0.7
							c0.8-1.7,1.2-3.5,1.2-5.2c0-0.6,0.4-1,1-1l0,0c0.6,0,1,0.4,1,1c0,1.5,0.4,2.7,1.1,3.4c0.4,0.4,0.9,0.6,1.4,0.6
							s1.1-0.2,1.7-0.5c2.8-1.6,5.2-6.2,5.2-10v-2.5L72.7,6.2L17.7,38z"/>
						<path class="st2" d="M23.3,68.7c-0.4,0-0.7-0.2-0.9-0.5c-0.3-0.5-0.1-1.1,0.4-1.4l3.6-1.9c0.5-0.3,1.1-0.1,1.4,0.4
							s0.1,1.1-0.4,1.4l-3.6,1.9C23.6,68.7,23.5,68.7,23.3,68.7z"/>
					</g>
				</g>
				<rect x="4" y="4" class="st7" width="120" height="120"/>
				<rect x="4" y="4" class="st7" width="120" height="120"/>
			</g>
		</g>
	</g>
	<g>
		<rect class="st7" width="128" height="128"/>
	</g>
</g>
</svg>
