<?xml version="1.0" encoding="utf-8"?>
<!-- Generator: Adobe Illustrator 24.1.0, SVG Export Plug-In . SVG Version: 6.00 Build 0)  -->
<svg version="1.1" id="Layer_1" xmlns="http://www.w3.org/2000/svg" xmlns:xlink="http://www.w3.org/1999/xlink" x="0px" y="0px"
	 viewBox="0 0 128 128" style="enable-background:new 0 0 128 128;" xml:space="preserve">
<style type="text/css">
	.st0{fill:#4D9987;}
	.st1{fill:#E9EBDF;}
	.st2{fill:#0E352C;}
	.st3{fill:#FFFFFF;}
	.st4{fill:none;}
</style>
<g id="Layer_1_1_">
</g>
<g>
	<g id="Layer_2_1_">
		<g id="Actions_1_">
			<g>
				<g>
					<g>
						<path class="st0" d="M93.8,7.8l21.8,12.7c-4.6-2.7-11-2.3-18,1.8L75.8,9.6C82.8,5.5,89.2,5.1,93.8,7.8z"/>
					</g>
					<path class="st0" d="M97.6,22.3c14-8.1,25.4-1.6,25.4,14.5s-11.3,35.6-25.2,43.7c-14,8.1-25.4,1.6-25.4-14.5
						C72.3,49.9,83.6,30.4,97.6,22.3z"/>
					<path class="st1" d="M86.4,83c-8,0-13-6.5-13-16.9c0-15.7,11.1-35,24.7-42.9c3.8-2.2,7.5-3.3,10.9-3.3c8,0,13,6.5,13,17
						c0,15.7-11.1,34.9-24.7,42.8C93.5,81.8,89.7,83,86.4,83z M109,21.8c-3,0-6.4,1.1-9.9,3.1C86,32.5,75.3,50.9,75.3,66
						c0,9.2,4.3,15,11,15c3,0,6.4-1.1,9.9-3.1c13.1-7.6,23.8-26,23.7-41.1C120,27.5,115.7,21.8,109,21.8z"/>
					<path class="st1" d="M93.8,62.9c-3.1,0-5.1-2.5-5.1-6.5c0-5.6,3.9-12.5,8.8-15.3c1.4-0.8,2.8-1.2,4.1-1.2
						c3.1,0,5.1,2.5,5.1,6.5c0,5.6-3.9,12.5-8.8,15.3C96.5,62.4,95.1,62.9,93.8,62.9z M101.5,41.9c-0.9,0-2,0.3-3.1,1
						c-4.3,2.5-7.8,8.6-7.8,13.5c0,2.8,1.2,4.5,3.1,4.5c0.9,0,2-0.3,3.1-1c4.3-2.5,7.8-8.6,7.8-13.5
						C104.7,43.6,103.5,41.9,101.5,41.9z"/>
					<path class="st2" d="M96,56c-1.1,0-1.8-0.9-1.8-2.4c0-2.3,1.6-5.1,3.6-6.3c0.5-0.3,1.1-0.5,1.6-0.5c1.1,0,1.8,0.9,1.8,2.4
						c0,2.3-1.6,5.1-3.6,6.3C97,55.8,96.5,56,96,56z"/>
					<g>
						<path class="st2" d="M79.7,82.2L57.9,69.6c-4.5-2.6-7.4-8.3-7.4-16.2c0-16.1,11.3-35.6,25.2-43.7l21.8,12.7
							c-14,8.1-25.3,27.7-25.2,43.7C72.4,74,75.2,79.6,79.7,82.2z"/>
					</g>
					<g>
						<path class="st2" d="M86.4,85c-2.6,0-5-0.6-7.1-1.8c-5.1-2.9-7.9-9-7.9-17.1c0-16.4,11.5-36.4,25.7-44.6
							c7.1-4.1,13.8-4.7,19-1.8c5.1,2.9,7.9,9,7.9,17.1c0,16.4-11.5,36.4-25.7,44.6C94.1,83.7,90,85,86.4,85z M109,19.8
							c-3.3,0-7,1.1-10.9,3.3C84.4,31,73.3,50.3,73.3,66c0,7.4,2.5,12.8,6.9,15.4c4.5,2.6,10.5,1.9,17-1.8
							c13.7-7.9,24.8-27.1,24.7-42.8c0-7.4-2.5-12.8-6.9-15.4C113.3,20.3,111.2,19.8,109,19.8z"/>
					</g>
					<path class="st2" d="M86.4,85c-2.6,0-4.9-0.6-7-1.8c0,0-0.1,0-0.1-0.1l0,0l0,0L57.4,70.4c-5.1-2.9-7.9-9-7.9-17.1
						C49.5,37,61,16.9,75.3,8.7C82.4,4.6,89.1,4,94.3,7l21.8,12.7c0,0,0,0,0.1,0c5,3,7.8,9,7.8,17.1c0,16.4-11.5,36.4-25.7,44.6
						C94.1,83.8,90.1,85,86.4,85z M79.9,81.2c4.5,2.9,10.7,2.3,17.4-1.5c13.7-7.9,24.8-27.1,24.7-42.8c0-7.4-2.5-12.8-6.9-15.4l0,0
						L93.3,8.7c-4.5-2.6-10.5-2-17,1.8c-13.7,7.9-24.8,27.1-24.7,42.9c0,7.3,2.5,12.8,6.9,15.4L79.9,81.2
						C79.7,81.1,79.8,81.1,79.9,81.2L79.9,81.2z"/>
					<path class="st1" d="M97.6,22.3L75.8,9.6c-13.9,8-25.2,27.5-25.2,43.5l0,0v20.7c0,5.4-2.9,10.3-7.5,13L6,108.2
						c-1.3,0.8-1.3,2.7,0,3.5l16.8,9.7c1.2,0.7,2.8,0.7,4,0l32-18.4c8.4-4.8,13.5-13.7,13.5-23.4c0-5.1,0-10.4,0-13.5
						C72.3,49.9,83.6,30.4,97.6,22.3z"/>
					<path class="st3" d="M49.8,78.4c-1.1,3.5-3.5,6.5-6.8,8.4L6,108.2c-1.3,0.8-1.3,2.7,0,3.5l16.8,9.7c1.2,0.7,2.8,0.7,4,0
						l32-18.4c5.1-3,9-7.5,11.3-12.7L49.8,78.4z"/>
					<path class="st3" d="M24.8,120.9c-0.5,0-1-0.1-1.5-0.4L5,109.9l38.5-22.2c4.9-2.8,8-8.2,8-13.9V53.1C51.5,37.8,62,19.3,75.2,11
						l0.5-0.3l19.9,11.5l-1.3,0.9c-13.1,9.2-23,27.6-23,42.8c0,3.2,0,8.4,0,13.5c0,9.3-5,17.9-13,22.5l-32,18.4
						C25.9,120.7,25.4,120.9,24.8,120.9z M9,109.9l15.3,8.9c0.3,0.2,0.7,0.2,1,0l32-18.4c7.4-4.3,12-12.2,12-20.8
						c0-5.1,0-10.4,0-13.5c0-15.3,9.6-33.7,22.6-43.6l-16.1-9.4c-12.5,8.1-22.2,25.5-22.3,40v1v19.8c0,6.4-3.5,12.4-9,15.6L9,109.9z
						"/>
					<path class="st3" d="M93.8,7.8c-4.6-2.7-11-2.3-18,1.8c-6.9,4-13.1,10.7-17.7,18.5L80,40.7c4.5-7.7,10.8-14.5,17.6-18.4
						c7-4.1,13.4-4.4,18-1.8L93.8,7.8z"/>
					<path class="st1" d="M24.8,120.9c-0.5,0-1-0.1-1.5-0.4L5,109.9l38.5-22.2c4.9-2.8,8-8.2,8-13.9V53.1c0-9.9,4.6-21.9,12-31.3
						c0.4-0.5,0.7-0.9,1.1-1.3s0.7-0.8,1.1-1.2l0.1-0.1c0.3-0.4,0.7-0.7,1-1.1l0.1-0.2c0.3-0.3,0.6-0.7,1-1l0.2-0.2
						c0.3-0.3,0.6-0.6,0.9-0.9l0.3-0.2c0.3-0.3,0.6-0.5,0.9-0.8l0.3-0.3c0.3-0.2,0.6-0.5,0.8-0.7l0.6-0.5c0.2-0.2,0.4-0.3,0.6-0.5
						c0,0,1.1-0.8,1.2-0.9c0.1-0.1,1.1-0.7,1.2-0.8c0.3-0.2,0.7-0.4,1-0.6l0.1-0.1C79.8,8.2,83.6,7,86.9,7c2.3,0,4.4,0.5,6.2,1.6
						l15.3,8.9l-2.7,0.5c-2.8,0.5-5.8,1.6-8.8,3.3h-0.1c-0.4,0.2-0.8,0.5-1.2,0.8c-0.1,0.1-0.7,0.5-0.7,0.5
						c-0.2,0.1-0.4,0.3-0.6,0.4s-0.3,0.2-0.5,0.3c0,0-0.7,0.5-0.8,0.6c-0.2,0.2-0.4,0.3-0.6,0.5L91.9,25c-0.3,0.2-0.5,0.4-0.8,0.7
						L90.7,26c-0.3,0.3-0.6,0.5-0.9,0.8l-0.3,0.3c-0.3,0.3-0.6,0.6-0.9,0.9l-0.3,0.2c-0.3,0.3-0.6,0.7-1,1l-0.2,0.2
						c-0.3,0.3-0.7,0.7-1,1.1L86,30.7c-0.3,0.4-0.7,0.8-1,1.2L84.9,32c-0.3,0.4-0.7,0.8-1,1.2l-0.1,0.1c-0.3,0.4-0.7,0.9-1,1.3
						c-1.4,1.8-2.6,3.7-3.8,5.7c-5,8.5-7.8,17.7-7.7,25.8c0,3.2,0,8.4,0,13.5c0,9.3-5,17.9-13,22.5l-32,18.4
						C25.9,120.7,25.4,120.9,24.8,120.9z M9,109.9l15.3,8.9c0.3,0.2,0.7,0.2,1,0l32-18.4c7.4-4.3,12-12.2,12-20.8
						c0-5.1,0-10.4,0-13.5c0-8.4,2.8-18,8-26.8c1.2-2,2.5-4,3.9-5.9c0.3-0.5,0.7-0.9,1-1.3l0.1-0.1c0.3-0.4,0.7-0.9,1-1.3l0.1-0.1
						c0.3-0.4,0.7-0.8,1-1.2l0.1-0.2c0.3-0.4,0.7-0.8,1-1.1l0.2-0.2c0.3-0.3,0.7-0.7,1-1l0.3-0.3c0.3-0.3,0.6-0.6,1-0.9l0.3-0.3
						c0.3-0.3,0.6-0.6,0.9-0.8l0.5-0.4c0.3-0.2,0.6-0.5,0.8-0.7l0.7-0.5c0.2-0.2,0.4-0.3,0.6-0.5c0.1-0.1,0.8-0.6,0.8-0.6
						c0.2-0.1,0.3-0.2,0.5-0.4c0.2-0.1,0.4-0.3,0.6-0.4l0,0c0,0,0.6-0.4,0.7-0.5c0.4-0.3,0.9-0.5,1.3-0.8h0.1c2.4-1.4,4.7-2.4,7-3
						L92,10.5c-3.8-2.2-9.3-1.5-15.1,1.8l-0.1,0.1c-0.3,0.2-0.7,0.4-1,0.6c-0.1,0.1-1,0.7-1.2,0.8c-0.1,0.1-1.2,0.8-1.2,0.8
						c-0.2,0.1-0.3,0.3-0.5,0.4l-0.6,0.5c-0.3,0.2-0.5,0.4-0.8,0.7l-0.3,0.3c-0.3,0.2-0.6,0.5-0.8,0.8l-0.3,0.2
						c-0.3,0.3-0.6,0.6-0.9,0.9L69,18.6c-0.3,0.3-0.6,0.6-0.9,0.9L68,19.6c-0.3,0.3-0.6,0.7-1,1l-0.1,0.1c-0.3,0.4-0.6,0.7-1,1.2
						c-0.3,0.4-0.7,0.8-1,1.2c-6.9,9-11.4,20.5-11.4,30V54v19.8c0,6.4-3.5,12.4-9,15.6L9,109.9z"/>
					<path class="st0" d="M25.5,111.4c-0.2,0-0.3,0-0.5-0.1l-11.6-6.7c-0.5-0.3-0.6-0.9-0.4-1.4c0.3-0.5,0.9-0.6,1.4-0.4l11.6,6.7
						c0.5,0.3,0.6,0.9,0.4,1.4C26.2,111.2,25.8,111.4,25.5,111.4z"/>
					<path class="st0" d="M36.5,105c-0.2,0-0.3,0-0.5-0.1l-11.6-6.7c-0.5-0.3-0.6-0.9-0.4-1.4c0.3-0.5,0.9-0.6,1.4-0.4l11.6,6.7
						c0.5,0.3,0.6,0.9,0.4,1.4C37.2,104.8,36.9,105,36.5,105z"/>
					<path class="st0" d="M47.6,98.6c-0.2,0-0.3,0-0.5-0.1l-11.6-6.7c-0.5-0.3-0.6-0.9-0.4-1.4c0.3-0.5,0.9-0.6,1.4-0.4l11.6,6.7
						c0.5,0.3,0.6,0.9,0.4,1.4C48.2,98.5,47.9,98.6,47.6,98.6z"/>
					<path class="st0" d="M56.8,91c-0.2,0-0.3,0-0.5-0.1l-10.3-6c-0.5-0.3-0.6-0.9-0.4-1.4c0.3-0.5,0.9-0.6,1.4-0.4L57.3,89
						c0.5,0.3,0.6,0.9,0.4,1.4C57.5,90.8,57.1,91,56.8,91z"/>
					<path class="st0" d="M61.6,80.7c-0.2,0-0.3,0-0.5-0.1L50,74.2c-0.5-0.3-0.6-0.9-0.4-1.4s0.9-0.6,1.4-0.4l11.1,6.4
						c0.5,0.3,0.6,0.9,0.4,1.4C62.3,80.6,62,80.7,61.6,80.7z"/>
					<path class="st0" d="M62.3,68.2c-0.2,0-0.3,0-0.5-0.1L50,61.2c-0.5-0.3-0.6-0.9-0.4-1.4c0.3-0.5,0.9-0.6,1.4-0.4l11.8,6.8
						c0.5,0.3,0.6,0.9,0.4,1.4C63,68,62.7,68.2,62.3,68.2z"/>
					<path class="st0" d="M62.8,55.4c-0.2,0-0.3,0-0.5-0.1l-11.8-6.8c-0.5-0.3-0.6-0.9-0.4-1.4s0.9-0.6,1.4-0.4l11.8,6.8
						c0.5,0.3,0.6,0.9,0.4,1.4C63.4,55.2,63.1,55.4,62.8,55.4z"/>
					<path class="st0" d="M66.1,43.3c-0.2,0-0.3,0-0.5-0.1l-11.8-6.8c-0.5-0.3-0.6-0.9-0.4-1.4c0.3-0.5,0.9-0.6,1.4-0.4l11.8,6.8
						c0.5,0.3,0.6,0.9,0.4,1.4C66.8,43.2,66.5,43.3,66.1,43.3z"/>
					<path class="st0" d="M73.4,30.5c-0.2,0-0.3,0-0.5-0.1l-11.8-6.8c-0.5-0.3-0.6-0.9-0.4-1.4s0.9-0.6,1.4-0.4l11.8,6.8
						c0.5,0.3,0.6,0.9,0.4,1.4C74.1,30.3,73.7,30.5,73.4,30.5z"/>
					<path class="st0" d="M83.1,20.3c-0.2,0-0.3,0-0.5-0.1l-11.7-6.7c-0.5-0.3-0.6-0.9-0.4-1.4c0.3-0.5,0.9-0.6,1.4-0.4l11.7,6.7
						c0.5,0.3,0.6,0.9,0.4,1.4C83.8,20.1,83.4,20.3,83.1,20.3z"/>
					<path class="st0" d="M94.1,14.5c-0.2,0-0.3,0-0.5-0.1L81.9,7.6c-0.5-0.3-0.6-0.9-0.4-1.4c0.3-0.5,0.9-0.6,1.4-0.4l11.7,6.7
						c0.5,0.3,0.6,0.9,0.4,1.4C94.8,14.3,94.4,14.5,94.1,14.5z"/>
					<path class="st2" d="M24.8,122.9c-0.9,0-1.7-0.2-2.5-0.7l-16.8-9.7C4.6,112,4,111,4,109.9s0.6-2.1,1.5-2.6l37-21.3
						c4.3-2.5,7-7.1,7-12.1V53.1V53c0.1-16.3,11.6-36.1,25.7-44.3C82.4,4.6,89.1,4,94.3,7l0,0l21.8,12.7c0.5,0.3,0.6,0.9,0.4,1.4
						c-0.3,0.5-0.9,0.6-1.4,0.4c-4.5-2.6-10.5-2-17,1.8C84.4,31,73.3,50.3,73.3,66c0,3.2,0,8.4,0,13.5c0,10-5.4,19.3-14,24.3
						l-32,18.4C26.6,122.7,25.7,122.9,24.8,122.9z M51.5,53.2v20.6c0,5.7-3.1,11-8,13.9L6.5,109C6,109.3,6,109.7,6,109.9
						s0,0.6,0.5,0.9l16.8,9.7c0.9,0.5,2.1,0.5,3,0l32-18.4c8-4.6,13-13.3,13-22.5c0-5.1,0-10.4,0-13.5c0-16.4,11.5-36.4,25.7-44.6
						c4.2-2.4,8.2-3.6,11.8-3.6L93.3,8.7c-4.5-2.6-10.5-2-17,1.8C62.7,18.3,51.6,37.4,51.5,53.2C51.5,53.1,51.5,53.2,51.5,53.2z"/>
				</g>
				<rect x="4" y="4" class="st4" width="120" height="120"/>
				<rect x="4" y="4" class="st4" width="120" height="120"/>
			</g>
		</g>
	</g>
	<g>
		<rect class="st4" width="128" height="128"/>
	</g>
</g>
</svg>
