<?xml version="1.0" encoding="utf-8"?>
<!-- Generator: Adobe Illustrator 24.1.0, SVG Export Plug-In . SVG Version: 6.00 Build 0)  -->
<svg version="1.1" id="Layer_1" xmlns="http://www.w3.org/2000/svg" xmlns:xlink="http://www.w3.org/1999/xlink" x="0px" y="0px"
	 viewBox="0 0 128 128" style="enable-background:new 0 0 128 128;" xml:space="preserve">
<style type="text/css">
	.st0{fill:#185849;}
	.st1{fill:#0E352C;}
	.st2{fill:#E9EBDF;}
	.st3{fill:#4D9987;}
	.st4{fill:#FFFFFF;}
	.st5{fill:#27ae60;}
	.st6{fill:#C4D7D3;}
	.st7{fill:none;}
</style>
<g id="Layer_1_1_">
</g>
<g>
	<g id="Layer_2_1_">
		<g id="Tech_Concepts_1_">
			<g>
				<g>
					<g>
						<path class="st0" d="M79.5,33.3c-0.1,0-0.3,0-0.4-0.1c-0.1,0-0.2-0.1-0.3-0.2c-0.2-0.2-0.3-0.4-0.3-0.7c0-0.1,0-0.3,0.1-0.4
							c0-0.1,0.1-0.2,0.2-0.3l0.1-0.1c0.1,0,0.1-0.1,0.2-0.1s0.1,0,0.2,0c0.2,0,0.4,0,0.6,0c0.1,0,0.2,0.1,0.3,0.2
							c0.1,0.1,0.2,0.2,0.2,0.3c0.1,0.1,0.1,0.3,0.1,0.4c0,0.3-0.1,0.5-0.3,0.7c-0.1,0.1-0.2,0.2-0.3,0.2
							C79.7,33.3,79.6,33.3,79.5,33.3z"/>
						<path class="st0" d="M78.5,43.4c0-0.5,0.4-1,1-1l0,0c0.6,0,1,0.5,1,1l0,0c0,0.6-0.4,1-1,1l0,0C78.9,44.4,78.5,44,78.5,43.4z
							 M78.5,37.9c0-0.6,0.4-1,1-1l0,0c0.6,0,1,0.4,1,1l0,0c0,0.5-0.4,1-1,1l0,0C78.9,38.9,78.5,38.4,78.5,37.9z"/>
						<path class="st0" d="M79.5,50c-0.3,0-0.5-0.1-0.7-0.3c-0.1-0.1-0.2-0.2-0.2-0.3c-0.1-0.1-0.1-0.2-0.1-0.4s0-0.3,0.1-0.4
							c0-0.1,0.1-0.2,0.2-0.3s0.2-0.2,0.3-0.2c0.2-0.1,0.5-0.1,0.8,0c0.1,0,0.2,0.1,0.3,0.2c0.1,0.1,0.2,0.2,0.2,0.3
							c0.1,0.1,0.1,0.2,0.1,0.4s0,0.3-0.1,0.4c0,0.1-0.1,0.2-0.2,0.3s-0.2,0.2-0.3,0.2C79.7,50,79.6,50,79.5,50z"/>
					</g>
					<g>
						<path class="st1" d="M48.5,33.3c-0.1,0-0.3,0-0.4-0.1c-0.1,0-0.2-0.1-0.3-0.2c-0.2-0.2-0.3-0.4-0.3-0.7c0-0.1,0-0.3,0.1-0.4
							s0.1-0.2,0.2-0.3l0.1-0.1c0.1,0,0.1-0.1,0.2-0.1c0.1,0,0.1,0,0.2,0c0.1,0,0.3,0,0.4,0c0.1,0,0.1,0,0.2,0
							c0.1,0,0.1,0.1,0.2,0.1c0.1,0,0.1,0.1,0.2,0.1c0.1,0.1,0.2,0.2,0.2,0.3c0,0.1,0.1,0.3,0.1,0.4c0,0.3-0.1,0.5-0.3,0.7
							c-0.1,0.1-0.2,0.2-0.3,0.2C48.8,33.3,48.6,33.3,48.5,33.3z"/>
						<path class="st1" d="M47.5,43.4c0-0.5,0.4-1,1-1l0,0c0.5,0,1,0.5,1,1l0,0c0,0.6-0.5,1-1,1l0,0C48,44.4,47.5,44,47.5,43.4z
							 M47.5,37.9c0-0.6,0.4-1,1-1l0,0c0.5,0,1,0.4,1,1l0,0c0,0.5-0.5,1-1,1l0,0C48,38.9,47.5,38.4,47.5,37.9z"/>
						<path class="st1" d="M48.5,50c-0.3,0-0.5-0.1-0.7-0.3c-0.1-0.1-0.2-0.2-0.2-0.3s-0.1-0.2-0.1-0.4s0-0.3,0.1-0.4
							c0.1-0.1,0.1-0.2,0.2-0.3c0.1-0.1,0.2-0.2,0.3-0.2c0.2-0.1,0.5-0.1,0.8,0c0.1,0,0.2,0.1,0.3,0.2c0.1,0.1,0.2,0.2,0.2,0.3
							s0.1,0.2,0.1,0.4s0,0.3-0.1,0.4c-0.1,0.1-0.1,0.2-0.2,0.3c-0.1,0.1-0.2,0.2-0.3,0.2S48.6,50,48.5,50z"/>
					</g>
					<g>
						<g>
							<g>
								<path class="st2" d="M81.7,86l-14.5-8.4c-1.8-1-4.7-1-6.5,0L46.3,86H24v14c0,0.7,0.4,1.3,1.3,1.9l35.4,20.4
									c1.8,1,4.7,1,6.5,0l35.4-20.4c0.9-0.5,1.3-1.2,1.3-1.9V86H81.7z"/>
								<path class="st3" d="M64,124c-1.3,0-2.7-0.3-3.7-0.9l-35.4-20.4C23.7,102,23,101,23,99.9V86c0-0.6,0.4-1,1-1h22l14.2-8.2
									c2.1-1.2,5.4-1.2,7.5,0L82,85h22c0.6,0,1,0.4,1,1v14c0,1.1-0.7,2.1-1.8,2.7l-35.4,20.4C66.7,123.7,65.3,124,64,124z M25,87
									v13c0,0.3,0.3,0.7,0.8,1l35.4,20.4c1.5,0.9,4,0.9,5.5,0l35.4-20.4c0.5-0.3,0.8-0.7,0.8-1V87H81.7c-0.2,0-0.3,0-0.5-0.1
									l-14.5-8.4c-1.5-0.9-4-0.9-5.5,0l-14.5,8.4C46.5,87,46.4,87,46.2,87H25z"/>
							</g>
							<path class="st3" d="M67.2,122.2l35.4-20.4c0.9-0.5,1.3-1.2,1.3-1.9V86H81.7l-14.5-8.4c-0.9-0.5-2.1-0.8-3.2-0.8V123
								C65.2,123,66.3,122.7,67.2,122.2z"/>
							<path class="st3" d="M48.3,109.6c-0.2,0-0.3,0-0.5-0.1l-10.5-6c-0.5-0.3-0.6-0.9-0.4-1.4c0.3-0.5,0.9-0.6,1.4-0.4l10.5,6
								c0.5,0.3,0.6,0.9,0.4,1.4C49,109.4,48.6,109.6,48.3,109.6z"/>
							<g>
								<path class="st4" d="M102.6,84.1L67.2,63.7c-1.8-1-4.7-1-6.5,0L25.4,84.1c-1.8,1-1.8,2.7,0,3.7l35.4,20.4c1.8,1,4.7,1,6.5,0
									l35.4-20.4C104.4,86.8,104.4,85.1,102.6,84.1z"/>
								<path class="st3" d="M64,110c-1.3,0-2.7-0.3-3.7-0.9L24.9,88.7C23.7,88,23,87,23,86s0.7-2.1,1.8-2.7l35.4-20.4
									c2.1-1.2,5.4-1.2,7.5,0l35.4,20.4l0,0c1.2,0.7,1.8,1.7,1.8,2.7s-0.7,2.1-1.8,2.7l-35.4,20.4C66.7,109.7,65.3,110,64,110z
									 M64,63.9c-1,0-2,0.2-2.7,0.6L25.9,85c-0.5,0.3-0.8,0.7-0.8,1s0.3,0.7,0.8,1l35.4,20.4c1.5,0.9,4,0.9,5.5,0L102.1,87
									c0.5-0.3,0.8-0.7,0.8-1s-0.3-0.7-0.8-1L66.7,64.5C66,64.1,65,63.9,64,63.9z"/>
							</g>
						</g>
					</g>
					<g>
						<polygon class="st3" points="94.3,106.6 75.6,117.4 75.6,110.9 94.3,100.1 						"/>
						<path class="st2" d="M75.6,118.4c-0.2,0-0.3,0-0.5-0.1c-0.3-0.2-0.5-0.5-0.5-0.9V111c0-0.4,0.2-0.7,0.5-0.9l18.7-10.8
							c0.3-0.2,0.7-0.2,1,0s0.5,0.5,0.5,0.9v6.4c0,0.4-0.2,0.7-0.5,0.9l-18.7,10.8C76,118.3,75.8,118.4,75.6,118.4z M76.6,111.5v4.1
							l16.7-9.6v-4.1L76.6,111.5z M94.3,106.6L94.3,106.6L94.3,106.6z"/>
					</g>
					<path class="st1" d="M64,124c-1.4,0-2.7-0.3-3.7-0.9l-35.4-20.4C23.7,102,23,101,23,99.9V86c0-1.1,0.7-2.1,1.8-2.7l35.4-20.4
						c2.1-1.2,5.4-1.2,7.5,0l35.4,20.4l0,0c1.2,0.7,1.8,1.7,1.8,2.7v14c0,1.1-0.7,2.1-1.8,2.7l-35.4,20.4
						C66.7,123.7,65.4,124,64,124z M64,63.9c-1,0-2,0.2-2.7,0.6L25.9,85c-0.5,0.3-0.8,0.7-0.8,1v14c0,0.3,0.3,0.7,0.8,1l35.4,20.4
						c1.4,0.8,4.1,0.8,5.5,0l35.4-20.4c0.5-0.3,0.8-0.7,0.8-1V86c0-0.3-0.3-0.7-0.8-1L66.7,64.5C66,64.1,65,63.9,64,63.9z"/>
					<g>
						<ellipse class="st3" cx="94.8" cy="86" rx="1.8" ry="1"/>
						<ellipse class="st3" cx="64" cy="103.8" rx="1.8" ry="1"/>
						<ellipse class="st3" cx="64" cy="68.2" rx="1.8" ry="1"/>
						<ellipse class="st3" cx="33.2" cy="86" rx="1.8" ry="1"/>
					</g>
					<g>
						<g>
							<g>
								<polygon class="st4" points="79.5,13.9 64,22.9 48.5,13.9 64,5 								"/>
								<path class="st5" d="M64,23.9c-0.2,0-0.3,0-0.5-0.1l-15.5-9c-0.3-0.2-0.5-0.5-0.5-0.9s0.2-0.7,0.5-0.9l15.5-8.9
									c0.3-0.2,0.7-0.2,1,0l15.5,9c0.3,0.2,0.5,0.5,0.5,0.9s-0.2,0.7-0.5,0.9l-15.5,8.9C64.3,23.8,64.2,23.9,64,23.9z M50.5,13.9
									L64,21.7l13.5-7.8L64,6.2L50.5,13.9z"/>
							</g>
							<g>
								<polygon class="st5" points="79.5,13.9 79.5,32.3 64,41.3 64,22.9 								"/>
								<path class="st5" d="M64,42.3c-0.2,0-0.3,0-0.5-0.1C63.2,42,63,41.6,63,41.3V22.9c0-0.4,0.2-0.7,0.5-0.9L79,13.1
									c0.3-0.2,0.7-0.2,1,0s0.5,0.5,0.5,0.9v18.4c0,0.4-0.2,0.7-0.5,0.9l-15.5,8.9C64.3,42.2,64.2,42.3,64,42.3z M65,23.5v16.1
									l13.5-7.8V15.7L65,23.5z"/>
							</g>
							<g>
								<polygon class="st6" points="48.5,13.9 48.5,32.3 64,41.3 64,22.9 								"/>
								<path class="st5" d="M64,42.3c-0.2,0-0.3,0-0.5-0.1l-15.5-9c-0.3-0.2-0.5-0.5-0.5-0.9V13.9c0-0.4,0.2-0.7,0.5-0.9
									s0.7-0.2,1,0l15.5,9c0.3,0.2,0.5,0.5,0.5,0.9v18.4c0,0.4-0.2,0.7-0.5,0.9C64.3,42.2,64.2,42.3,64,42.3z M49.5,31.8L63,39.6
									V23.5l-13.5-7.8V31.8z"/>
							</g>
						</g>
						<path class="st0" d="M64,42.3c-0.2,0-0.3,0-0.5-0.1l-15.5-9c-0.3-0.2-0.5-0.5-0.5-0.9V13.9c0-0.4,0.2-0.7,0.5-0.9l15.5-8.9
							c0.3-0.2,0.7-0.2,1,0l15.5,9c0.3,0.2,0.5,0.5,0.5,0.9v18.4c0,0.4-0.2,0.7-0.5,0.9l-15.5,8.9C64.3,42.2,64.2,42.3,64,42.3z
							 M49.5,31.8L64,40.1l14.5-8.4V14.5L64,6.2l-14.5,8.4V31.8z"/>
					</g>
					<g>
						<g>
							<g>
								<polygon class="st4" points="64,57.9 48.5,66.9 33,57.9 48.5,49 								"/>
								<path class="st3" d="M48.5,67.9c-0.2,0-0.3,0-0.5-0.1l-15.5-8.9C32.2,58.7,32,58.4,32,58s0.2-0.7,0.5-0.9l15.5-9
									c0.3-0.2,0.7-0.2,1,0L64.5,57c0.3,0.2,0.5,0.5,0.5,0.9s-0.2,0.7-0.5,0.9L49,67.7C48.9,67.8,48.7,67.9,48.5,67.9z M35,57.9
									l13.5,7.8L62,57.9l-13.5-7.8L35,57.9z"/>
							</g>
							<g>
								<polygon class="st3" points="64,57.9 64,76.3 48.5,85.3 48.5,66.9 								"/>
								<path class="st3" d="M48.5,86.3c-0.2,0-0.3,0-0.5-0.1c-0.3-0.2-0.5-0.5-0.5-0.9V66.9c0-0.4,0.2-0.7,0.5-0.9l15.5-8.9
									c0.3-0.2,0.7-0.2,1,0S65,57.6,65,58v18.4c0,0.4-0.2,0.7-0.5,0.9L49,86.1C48.9,86.2,48.7,86.3,48.5,86.3z M49.5,67.4v16.1
									L63,75.8V59.7L49.5,67.4z"/>
							</g>
							<g>
								<polygon class="st2" points="33,57.9 33,76.3 48.5,85.3 48.5,66.9 								"/>
								<path class="st3" d="M48.5,86.3c-0.2,0-0.3,0-0.5-0.1l-15.5-8.9c-0.3-0.3-0.5-0.6-0.5-1V57.9c0-0.4,0.2-0.7,0.5-0.9
									s0.7-0.2,1,0L49,66c0.3,0.2,0.5,0.5,0.5,0.9v18.4c0,0.4-0.2,0.7-0.5,0.9C48.9,86.2,48.7,86.3,48.5,86.3z M34,75.8l13.5,7.8
									V67.4L34,59.7V75.8z"/>
							</g>
						</g>
						<path class="st1" d="M48.5,86.3c-0.2,0-0.3,0-0.5-0.1l-15.5-8.9c-0.3-0.3-0.5-0.6-0.5-1V57.9c0-0.4,0.2-0.7,0.5-0.9L48,48.1
							c0.3-0.2,0.7-0.2,1,0L64.5,57c0.3,0.2,0.5,0.5,0.5,0.9v18.4c0,0.4-0.2,0.7-0.5,0.9L49,86.1C48.9,86.2,48.7,86.3,48.5,86.3z
							 M34,75.8l14.5,8.4L63,75.8V58.5l-14.5-8.4L34,58.5V75.8z"/>
					</g>
					<g>
						<polygon class="st2" points="64,57.9 64,76.3 79.5,85.3 79.5,66.9 						"/>
						<path class="st3" d="M79.5,86.3c-0.2,0-0.3,0-0.5-0.1l-15.5-8.9c-0.3-0.3-0.5-0.6-0.5-1V57.9c0-0.4,0.2-0.7,0.5-0.9
							s0.7-0.2,1,0L80,66c0.3,0.2,0.5,0.5,0.5,0.9v18.4c0,0.4-0.2,0.7-0.5,0.9C79.8,86.2,79.7,86.3,79.5,86.3z M65,75.8l13.5,7.8
							V67.4L65,59.7V75.8z"/>
					</g>
					<path class="st1" d="M79.5,86.3c-0.2,0-0.3,0-0.5-0.1l-15.5-8.9c-0.3-0.3-0.5-0.6-0.5-1V57.9c0-0.4,0.2-0.7,0.5-0.9L79,48.1
						c0.3-0.2,0.7-0.2,1,0L95.5,57c0.3,0.2,0.5,0.5,0.5,0.9v18.4c0,0.4-0.2,0.7-0.5,0.9L80,86.1C79.8,86.2,79.7,86.3,79.5,86.3z
						 M65,75.8l14.5,8.4L94,75.8V58.5l-14.5-8.4L65,58.5V75.8z"/>
					<g>
						<polygon class="st4" points="95,57.9 79.5,49 64,57.9 48.5,66.9 64,75.8 79.5,66.9 79.5,66.9 79.5,66.9 						"/>
						<path class="st3" d="M64,76.8c-0.2,0-0.3,0-0.5-0.1l-15.5-9c-0.3-0.2-0.5-0.5-0.5-0.9s0.2-0.7,0.5-0.9L79,48
							c0.3-0.2,0.7-0.2,1,0l15.5,8.9c0.3,0.2,0.5,0.5,0.5,0.9s-0.2,0.7-0.5,0.9l-31,17.9C64.3,76.8,64.2,76.8,64,76.8z M50.5,66.9
							L64,74.6l29-16.7l-13.5-7.8L50.5,66.9z"/>
					</g>
					<g>
						<polygon class="st3" points="79.5,66.9 79.5,66.9 64,75.8 64,94.2 79.5,85.3 79.5,85.3 95,76.3 95,57.9 						"/>
						<path class="st3" d="M64,95.2c-0.2,0-0.3,0-0.5-0.1c-0.3-0.2-0.5-0.5-0.5-0.9V75.8c0-0.4,0.2-0.7,0.5-0.9l31-17.9
							c0.3-0.2,0.7-0.2,1,0s0.5,0.5,0.5,0.9v18.4c0,0.4-0.2,0.7-0.5,0.9l-31,17.9C64.3,95.2,64.2,95.2,64,95.2z M65,76.4v16.1
							l29-16.7V59.7L65,76.4z"/>
					</g>
					<g>
						<polygon class="st2" points="48.5,66.9 48.5,85.3 64,94.2 64,75.8 						"/>
						<path class="st3" d="M64,95.2c-0.2,0-0.3,0-0.5-0.1l-15.5-9c-0.3-0.2-0.5-0.5-0.5-0.9V66.9c0-0.4,0.2-0.7,0.5-0.9
							c0.3-0.2,0.7-0.2,1,0l15.5,8.9c0.3,0.2,0.5,0.5,0.5,0.9v18.4c0,0.4-0.2,0.7-0.5,0.9C64.3,95.2,64.2,95.2,64,95.2z M49.5,84.7
							L63,92.5V76.4l-13.5-7.8V84.7z"/>
					</g>
					<path class="st1" d="M64,95.2c-0.2,0-0.3,0-0.5-0.1l-15.5-9c-0.3-0.2-0.5-0.5-0.5-0.9V66.9c0-0.4,0.2-0.7,0.5-0.9l31-17.9
						c0.3-0.2,0.7-0.2,1,0L95.5,57c0.3,0.2,0.5,0.5,0.5,0.9v18.4c0,0.4-0.2,0.7-0.5,0.9l-31,17.9C64.3,95.2,64.2,95.2,64,95.2z
						 M49.5,84.7L64,93.1l30-17.3V58.5l-14.5-8.4l-30,17.3V84.7z"/>
				</g>
				<rect x="4" y="4" class="st7" width="120" height="120"/>
				<rect x="4" y="4" class="st7" width="120" height="120"/>
			</g>
		</g>
	</g>
	<g>
		<rect class="st7" width="128" height="128"/>
	</g>
</g>
</svg>
