<?xml version="1.0" encoding="utf-8"?>
<!-- Generator: Adobe Illustrator 24.1.0, SVG Export Plug-In . SVG Version: 6.00 Build 0)  -->
<svg version="1.1" id="Layer_1" xmlns="http://www.w3.org/2000/svg" xmlns:xlink="http://www.w3.org/1999/xlink" x="0px" y="0px"
	 viewBox="0 0 128 128" style="enable-background:new 0 0 128 128;" xml:space="preserve">
<style type="text/css">
	.st0{fill:#0E352C;}
	.st1{fill:#185849;}
	.st2{fill:#C4D7D3;}
	.st3{fill:#27ae60;}
	.st4{fill:#FFFFFF;}
	.st5{fill:#E9EBDF;}
	.st6{fill:#4D9987;}
	.st7{fill:none;}
</style>
<g id="Layer_1_1_">
</g>
<g>
	<g id="Layer_2_1_">
		<g id="Tech_Concepts_1_">
			<g>
				<g>
					<path class="st0" d="M31.1,89.3c-0.3-0.5-0.1-1.1,0.4-1.4l0,0c0.5-0.3,1.1-0.1,1.4,0.4l0,0c0.3,0.5,0.1,1.1-0.4,1.4l0,0
						c-0.2,0.1-0.3,0.1-0.5,0.1l0,0C31.6,89.8,31.3,89.7,31.1,89.3z M36.3,86.3c-0.3-0.5-0.1-1.1,0.4-1.4l0,0
						c0.5-0.3,1.1-0.1,1.4,0.4l0,0c0.3,0.5,0.1,1.1-0.4,1.4l0,0c-0.1,0.1-0.3,0.1-0.5,0.1l0,0C36.8,86.8,36.5,86.7,36.3,86.3z
						 M41.5,83.3c-0.3-0.5-0.1-1.1,0.4-1.4l0,0c0.5-0.3,1.1-0.1,1.4,0.4l0,0c0.3,0.5,0.1,1.1-0.4,1.4l0,0c-0.2,0.1-0.3,0.1-0.5,0.1
						l0,0C42,83.8,41.7,83.7,41.5,83.3z M46.7,80.3c-0.3-0.5-0.1-1.1,0.4-1.4l0,0c0.5-0.3,1.1-0.1,1.4,0.4l0,0
						c0.3,0.5,0.1,1.1-0.4,1.4l0,0c-0.2,0.1-0.3,0.1-0.5,0.1l0,0C47.2,80.8,46.9,80.7,46.7,80.3z"/>
					<g>
						<path class="st1" d="M110.8,31.6c-0.1,0-0.3,0-0.4-0.1s-0.2-0.1-0.3-0.2c-0.2-0.2-0.3-0.4-0.3-0.7c0-0.1,0-0.3,0.1-0.4
							s0.1-0.2,0.2-0.3c0.2-0.2,0.6-0.3,0.9-0.3c0.1,0,0.1,0,0.2,0.1c0.1,0,0.1,0,0.2,0.1c0.1,0,0.1,0.1,0.2,0.1
							c0.1,0.1,0.2,0.2,0.2,0.3s0.1,0.2,0.1,0.4c0,0.3-0.1,0.5-0.3,0.7C111.4,31.5,111.1,31.6,110.8,31.6z"/>
						<path class="st1" d="M109.8,71.6c0-0.5,0.5-1,1-1l0,0c0.6,0,1,0.5,1,1l0,0c0,0.6-0.4,1-1,1l0,0
							C110.3,72.6,109.8,72.1,109.8,71.6z M109.8,65.7c0-0.6,0.5-1,1-1l0,0c0.6,0,1,0.4,1,1l0,0c0,0.6-0.4,1-1,1l0,0
							C110.3,66.7,109.8,66.3,109.8,65.7z M109.8,59.9c0-0.5,0.5-1,1-1l0,0c0.6,0,1,0.5,1,1l0,0c0,0.5-0.4,1-1,1l0,0
							C110.3,60.9,109.8,60.4,109.8,59.9z M109.8,54c0-0.6,0.5-1,1-1l0,0c0.6,0,1,0.4,1,1l0,0c0,0.5-0.4,1-1,1l0,0
							C110.3,55,109.8,54.6,109.8,54z M109.8,48.2c0-0.6,0.5-1,1-1l0,0c0.6,0,1,0.5,1,1l0,0c0,0.5-0.4,1-1,1l0,0
							C110.3,49.2,109.8,48.7,109.8,48.2z M109.8,42.3c0-0.5,0.5-1,1-1l0,0c0.6,0,1,0.5,1,1l0,0c0,0.5-0.4,1-1,1l0,0
							C110.3,43.3,109.8,42.9,109.8,42.3z M109.8,36.5c0-0.6,0.5-1,1-1l0,0c0.6,0,1,0.4,1,1l0,0c0,0.6-0.4,1-1,1l0,0
							C110.3,37.5,109.8,37,109.8,36.5z"/>
						<path class="st1" d="M110.8,78.4c-0.3,0-0.5-0.1-0.7-0.3c-0.2-0.2-0.3-0.4-0.3-0.7c0-0.1,0-0.3,0.1-0.4c0-0.1,0.1-0.2,0.2-0.3
							c0.1-0.1,0.2-0.2,0.3-0.2c0.4-0.2,0.8-0.1,1.1,0.2c0.1,0.1,0.2,0.2,0.2,0.3c0,0.1,0.1,0.2,0.1,0.4s0,0.3-0.1,0.4
							c0,0.1-0.1,0.2-0.2,0.3c-0.1,0.1-0.2,0.2-0.3,0.2C111.1,78.4,111,78.4,110.8,78.4z"/>
					</g>
					<g>
						<g>
							<polygon class="st2" points="96,86 81.3,94.5 66.5,86 66.5,68.9 81.3,60.4 96,68.9 							"/>
							<g>
								<polygon class="st3" points="81.3,77.5 81.3,94.5 96,86 96,68.9 								"/>
								<path class="st3" d="M81.3,95.5c-0.2,0-0.3,0-0.5-0.1c-0.3-0.2-0.5-0.5-0.5-0.9v-17c0-0.4,0.2-0.7,0.5-0.9L95.5,68
									c0.3-0.2,0.7-0.2,1,0s0.5,0.5,0.5,0.9V86c0,0.4-0.2,0.7-0.5,0.9l-14.8,8.5C81.6,95.5,81.4,95.5,81.3,95.5z M82.3,78v14.8
									L95,85.4V70.6L82.3,78z"/>
							</g>
							<g>
								<polygon class="st4" points="96,68.9 81.3,77.5 66.5,68.9 66.5,68.9 81.3,60.4 								"/>
								<path class="st3" d="M81.3,78.5c-0.2,0-0.3,0-0.5-0.1L66,69.8c-0.3-0.2-0.5-0.5-0.5-0.9s0.2-0.7,0.5-0.9l14.8-8.5
									c0.3-0.2,0.7-0.2,1,0L96.5,68c0.3,0.2,0.5,0.5,0.5,0.9s-0.2,0.7-0.5,0.9l-14.8,8.5C81.6,78.4,81.4,78.5,81.3,78.5z
									 M68.5,68.9l12.8,7.4L94,68.9l-12.8-7.4L68.5,68.9z"/>
							</g>
						</g>
						<path class="st1" d="M81.3,95.5c-0.2,0-0.3,0-0.5-0.1L66,86.9c-0.3-0.2-0.5-0.5-0.5-0.9V68.9c0-0.4,0.2-0.7,0.5-0.9l14.8-8.5
							c0.3-0.2,0.7-0.2,1,0L96.5,68c0.3,0.2,0.5,0.5,0.5,0.9V86c0,0.4-0.2,0.7-0.5,0.9l-14.8,8.5C81.6,95.5,81.4,95.5,81.3,95.5z
							 M67.5,85.4l13.8,8l13.8-8V69.5l-13.8-8l-13.8,8V85.4z"/>
					</g>
					<g>
						<g>
							<polygon class="st2" points="46.7,114.5 32,123 17.2,114.5 17.2,97.4 32,88.8 46.7,97.4 							"/>
							<g>
								<polygon class="st3" points="32,105.9 32,123 46.7,114.5 46.7,97.4 								"/>
								<path class="st3" d="M32,124c-0.2,0-0.3,0-0.5-0.1c-0.3-0.2-0.5-0.5-0.5-0.9v-17.1c0-0.4,0.2-0.7,0.5-0.9l14.8-8.5
									c0.3-0.2,0.7-0.2,1,0s0.5,0.5,0.5,0.9v17.1c0,0.4-0.2,0.7-0.5,0.9l-14.8,8.5C32.3,124,32.1,124,32,124z M33,106.5v14.8
									l12.8-7.4V99.1L33,106.5z"/>
							</g>
							<g>
								<polygon class="st4" points="46.7,97.4 32,105.9 17.2,97.4 17.2,97.4 32,88.8 								"/>
								<path class="st3" d="M32,106.9c-0.2,0-0.3,0-0.5-0.1l-14.8-8.5c-0.3-0.2-0.5-0.5-0.5-0.9s0.2-0.7,0.5-0.9L31.5,88
									c0.3-0.2,0.7-0.2,1,0l14.8,8.5c0.3,0.2,0.5,0.5,0.5,0.9s-0.2,0.7-0.5,0.9l-14.8,8.5C32.3,106.9,32.1,106.9,32,106.9z
									 M19.2,97.4l12.8,7.4l12.8-7.4L32,90L19.2,97.4z"/>
							</g>
						</g>
						<path class="st1" d="M32,124c-0.2,0-0.3,0-0.5-0.1l-14.8-8.5c-0.3-0.2-0.5-0.5-0.5-0.9V97.4c0-0.4,0.2-0.7,0.5-0.9L31.5,88
							c0.3-0.2,0.7-0.2,1,0l14.8,8.5c0.3,0.2,0.5,0.5,0.5,0.9v17.1c0,0.4-0.2,0.7-0.5,0.9l-14.8,8.5C32.3,124,32.1,124,32,124z
							 M18.2,113.9l13.8,8l13.8-8V98L32,90l-13.8,8V113.9z"/>
					</g>
					<g>
						<g>
							<polygon class="st2" points="110.8,94.5 96,103.1 81.3,94.5 81.3,77.5 96,68.9 110.8,77.5 							"/>
							<g>
								<polygon class="st3" points="96,86 96,103.1 110.8,94.5 110.8,77.5 								"/>
								<path class="st3" d="M96,104.1c-0.2,0-0.3,0-0.5-0.1c-0.3-0.2-0.5-0.5-0.5-0.9V86c0-0.4,0.2-0.7,0.5-0.9l14.8-8.5
									c0.3-0.2,0.7-0.2,1,0s0.5,0.5,0.5,0.9v17.1c0,0.4-0.2,0.7-0.5,0.9L96.5,104C96.4,104,96.2,104.1,96,104.1z M97,86.6v14.8
									l12.8-7.4V79.2L97,86.6z"/>
							</g>
							<g>
								<polygon class="st4" points="110.8,77.5 96,86 81.3,77.5 81.3,77.5 96,68.9 								"/>
								<path class="st3" d="M96,87c-0.2,0-0.3,0-0.5-0.1l-14.8-8.5c-0.3-0.2-0.5-0.5-0.5-0.9s0.2-0.7,0.5-0.9L95.5,68
									c0.3-0.2,0.7-0.2,1,0l14.8,8.5c0.3,0.2,0.5,0.5,0.5,0.9s-0.2,0.7-0.5,0.9l-14.8,8.5C96.4,86.9,96.2,87,96,87z M83.3,77.5
									L96,84.8l12.8-7.4L96,70.1L83.3,77.5z"/>
							</g>
						</g>
						<path class="st1" d="M96,104.1c-0.2,0-0.3,0-0.5-0.1l-14.8-8.5c-0.3-0.2-0.5-0.5-0.5-0.9V77.5c0-0.4,0.2-0.7,0.5-0.9L95.5,68
							c0.3-0.2,0.7-0.2,1,0l14.8,8.5c0.3,0.2,0.5,0.5,0.5,0.9v17.1c0,0.4-0.2,0.7-0.5,0.9l-14.8,8.5C96.4,104,96.2,104.1,96,104.1z
							 M82.3,94l13.8,8l13.8-8V78l-13.8-8l-13.8,8V94z"/>
					</g>
					<g>
						<g>
							<polygon class="st2" points="96,103.1 81.3,111.6 66.5,103.1 66.5,86 81.3,77.5 96,86 							"/>
							<g>
								<polygon class="st3" points="81.3,94.5 81.3,111.6 96,103.1 96,86 								"/>
								<path class="st3" d="M81.3,112.6c-0.2,0-0.3,0-0.5-0.1c-0.3-0.2-0.5-0.5-0.5-0.9V94.5c0-0.4,0.2-0.7,0.5-0.9l14.8-8.5
									c0.3-0.2,0.7-0.2,1,0s0.5,0.5,0.5,0.9v17.1c0,0.4-0.2,0.7-0.5,0.9l-14.8,8.5C81.6,112.6,81.4,112.6,81.3,112.6z M82.3,95.1
									v14.8l12.8-7.4V87.7L82.3,95.1z"/>
							</g>
							<g>
								<polygon class="st4" points="96,86 81.3,94.5 66.5,86 66.5,86 81.3,77.5 								"/>
								<path class="st3" d="M81.3,95.5c-0.2,0-0.3,0-0.5-0.1L66,86.9c-0.3-0.2-0.5-0.5-0.5-0.9s0.2-0.7,0.5-0.9l14.8-8.5
									c0.3-0.2,0.7-0.2,1,0l14.8,8.5c0.3,0.2,0.5,0.5,0.5,0.9s-0.2,0.7-0.5,0.9l-14.8,8.5C81.6,95.5,81.4,95.5,81.3,95.5z
									 M68.5,86l12.8,7.4L94,86l-12.8-7.4L68.5,86z"/>
							</g>
						</g>
						<path class="st1" d="M81.3,112.6c-0.2,0-0.3,0-0.5-0.1L66,103.9c-0.3-0.2-0.5-0.5-0.5-0.9V86c0-0.4,0.2-0.7,0.5-0.9l14.8-8.5
							c0.3-0.2,0.7-0.2,1,0l14.8,8.5c0.3,0.2,0.5,0.5,0.5,0.9v17.1c0,0.4-0.2,0.7-0.5,0.9l-14.8,8.5
							C81.6,112.6,81.4,112.6,81.3,112.6z M67.5,102.5l13.8,8l13.8-8V86.6l-13.8-8l-13.8,8V102.5z"/>
					</g>
					<g>
						<g>
							<g>
								<polygon class="st5" points="96,68.9 81.3,77.5 66.5,68.9 66.5,51.8 81.3,43.3 96,51.8 								"/>
								<path class="st6" d="M81.3,78.5c-0.2,0-0.3,0-0.5-0.1L66,69.8c-0.3-0.2-0.5-0.5-0.5-0.9V51.8c0-0.4,0.2-0.7,0.5-0.9
									l14.8-8.5c0.3-0.2,0.7-0.2,1,0L96.5,51c0.3,0.2,0.5,0.5,0.5,0.9V69c0,0.4-0.2,0.7-0.5,0.9l-14.8,8.5
									C81.6,78.4,81.4,78.5,81.3,78.5z M67.5,68.3l13.8,8l13.8-8V52.4l-13.8-8l-13.8,8V68.3z M96,68.9L96,68.9L96,68.9z"/>
							</g>
							<g>
								<polygon class="st4" points="96,51.8 81.3,60.4 66.5,51.8 66.5,51.8 81.3,43.3 								"/>
								<path class="st6" d="M81.3,61.4c-0.2,0-0.3,0-0.5-0.1L66,52.7c-0.3-0.2-0.5-0.5-0.5-0.9s0.2-0.7,0.5-0.9l14.8-8.5
									c0.3-0.2,0.7-0.2,1,0L96.5,51c0.3,0.2,0.5,0.5,0.5,0.9s-0.2,0.7-0.5,0.9l-14.8,8.5C81.6,61.3,81.4,61.4,81.3,61.4z
									 M68.5,51.8l12.8,7.4L94,51.8l-12.8-7.4L68.5,51.8z"/>
							</g>
							<g>
								<polygon class="st6" points="81.3,60.4 81.3,77.5 96,68.9 96,51.8 								"/>
								<path class="st6" d="M81.3,78.5c-0.2,0-0.3,0-0.5-0.1c-0.3-0.2-0.5-0.5-0.5-0.9V60.4c0-0.4,0.2-0.7,0.5-0.9L95.5,51
									c0.3-0.2,0.7-0.2,1,0s0.5,0.5,0.5,0.9V69c0,0.4-0.2,0.7-0.5,0.9l-14.8,8.5C81.6,78.4,81.4,78.5,81.3,78.5z M82.3,60.9v14.8
									L95,68.3V53.6L82.3,60.9z"/>
							</g>
						</g>
						<path class="st0" d="M81.3,78.5c-0.2,0-0.3,0-0.5-0.1L66,69.8c-0.3-0.2-0.5-0.5-0.5-0.9V51.8c0-0.4,0.2-0.7,0.5-0.9l14.8-8.5
							c0.3-0.2,0.7-0.2,1,0L96.5,51c0.3,0.2,0.5,0.5,0.5,0.9V69c0,0.4-0.2,0.7-0.5,0.9l-14.8,8.5C81.6,78.4,81.4,78.5,81.3,78.5z
							 M67.5,68.3l13.8,8l13.8-8V52.4l-13.8-8l-13.8,8V68.3z"/>
					</g>
					<g>
						<g>
							<g>
								<polygon class="st5" points="110.8,30.6 96,39.2 81.3,30.6 81.3,13.5 96,5 110.8,13.5 								"/>
								<path class="st6" d="M96,40.2c-0.2,0-0.3,0-0.5-0.1l-14.8-8.5c-0.3-0.2-0.5-0.5-0.5-0.9V13.5c0-0.4,0.2-0.7,0.5-0.9
									l14.8-8.5c0.3-0.2,0.7-0.2,1,0l14.8,8.5c0.3,0.2,0.5,0.5,0.5,0.9v17.1c0,0.4-0.2,0.7-0.5,0.9L96.5,40
									C96.4,40.1,96.2,40.2,96,40.2z M82.3,30L96,38l13.8-8V14.1L96,6.2l-13.8,8V30H82.3z M110.8,30.6L110.8,30.6L110.8,30.6z"/>
							</g>
							<g>
								<polygon class="st4" points="110.8,13.5 96,22.1 81.3,13.5 81.3,13.5 96,5 								"/>
								<path class="st6" d="M96,23.1c-0.2,0-0.3,0-0.5-0.1l-14.8-8.5c-0.3-0.2-0.5-0.5-0.5-0.9s0.2-0.7,0.5-0.9l14.8-8.5
									c0.3-0.2,0.7-0.2,1,0l14.8,8.5c0.3,0.2,0.5,0.5,0.5,0.9s-0.2,0.7-0.5,0.9L96.5,23C96.4,23,96.2,23.1,96,23.1z M83.3,13.5
									L96,20.9l12.8-7.4L96,6.2L83.3,13.5z"/>
							</g>
							<g>
								<polygon class="st6" points="96,22.1 96,39.2 110.8,30.6 110.8,13.5 								"/>
								<path class="st6" d="M96,40.2c-0.2,0-0.3,0-0.5-0.1c-0.3-0.2-0.5-0.5-0.5-0.9V22.1c0-0.4,0.2-0.7,0.5-0.9l14.8-8.5
									c0.3-0.2,0.7-0.2,1,0s0.5,0.5,0.5,0.9v17.1c0,0.4-0.2,0.7-0.5,0.9L96.5,40C96.4,40.1,96.2,40.2,96,40.2z M97,22.7v14.8
									l12.8-7.4V15.3L97,22.7z"/>
							</g>
						</g>
						<path class="st0" d="M96,40.2c-0.2,0-0.3,0-0.5-0.1l-14.8-8.5c-0.3-0.2-0.5-0.5-0.5-0.9V13.5c0-0.4,0.2-0.7,0.5-0.9l14.8-8.5
							c0.3-0.2,0.7-0.2,1,0l14.8,8.5c0.3,0.2,0.5,0.5,0.5,0.9v17.1c0,0.4-0.2,0.7-0.5,0.9L96.5,40C96.4,40.1,96.2,40.2,96,40.2z
							 M82.3,30L96,38l13.8-8V14.1L96,6.2l-13.8,8V30H82.3z"/>
					</g>
					<g>
						<g>
							<g>
								<polygon class="st5" points="81.3,77.5 66.5,86 51.7,77.5 51.7,60.4 66.5,51.8 81.3,60.4 								"/>
								<path class="st6" d="M66.5,87c-0.2,0-0.3,0-0.5-0.1l-14.8-8.5c-0.3-0.2-0.5-0.5-0.5-0.9V60.4c0-0.4,0.2-0.7,0.5-0.9L66,51
									c0.3-0.2,0.7-0.2,1,0l14.8,8.5c0.3,0.2,0.5,0.5,0.5,0.9v17.1c0,0.4-0.2,0.7-0.5,0.9L67,86.9C66.8,86.9,66.6,87,66.5,87z
									 M52.7,76.9l13.8,8l13.8-8v-16l-13.8-8l-13.8,8V76.9z M81.3,77.5L81.3,77.5L81.3,77.5z"/>
							</g>
							<g>
								<polygon class="st4" points="81.3,60.4 66.5,68.9 51.7,60.4 51.7,60.4 66.5,51.8 								"/>
								<path class="st6" d="M66.5,69.9c-0.2,0-0.3,0-0.5-0.1l-14.8-8.5c-0.3-0.2-0.5-0.5-0.5-0.9s0.2-0.7,0.5-0.9L66,51
									c0.3-0.2,0.7-0.2,1,0l14.8,8.5c0.3,0.2,0.5,0.5,0.5,0.9s-0.2,0.7-0.5,0.9L67,69.8C66.8,69.9,66.6,69.9,66.5,69.9z
									 M53.7,60.4l12.8,7.4l12.8-7.4L66.5,53L53.7,60.4z"/>
							</g>
							<g>
								<polygon class="st6" points="66.5,68.9 66.5,86 81.3,77.5 81.3,60.4 								"/>
								<path class="st6" d="M66.5,87c-0.2,0-0.3,0-0.5-0.1c-0.3-0.2-0.5-0.5-0.5-0.9V68.9c0-0.4,0.2-0.7,0.5-0.9l14.8-8.5
									c0.3-0.2,0.7-0.2,1,0s0.5,0.5,0.5,0.9v17.1c0,0.4-0.2,0.7-0.5,0.9L67,86.9C66.8,86.9,66.6,87,66.5,87z M67.5,69.5v14.8
									l12.8-7.4V62.1L67.5,69.5z"/>
							</g>
						</g>
						<path class="st0" d="M66.5,87c-0.2,0-0.3,0-0.5-0.1l-14.8-8.5c-0.3-0.2-0.5-0.5-0.5-0.9V60.4c0-0.4,0.2-0.7,0.5-0.9L66,51
							c0.3-0.2,0.7-0.2,1,0l14.8,8.5c0.3,0.2,0.5,0.5,0.5,0.9v17.1c0,0.4-0.2,0.7-0.5,0.9L67,86.9C66.8,86.9,66.6,87,66.5,87z
							 M52.7,76.9l13.8,8l13.8-8v-16l-13.8-8l-13.8,8V76.9z"/>
					</g>
					<g>
						<g>
							<g>
								<polygon class="st5" points="96,86 81.3,94.5 66.5,86 66.5,68.9 81.3,60.4 96,68.9 								"/>
								<path class="st6" d="M81.3,95.5c-0.2,0-0.3,0-0.5-0.1L66,86.9c-0.3-0.2-0.5-0.5-0.5-0.9V68.9c0-0.4,0.2-0.7,0.5-0.9
									l14.8-8.5c0.3-0.2,0.7-0.2,1,0L96.5,68c0.3,0.2,0.5,0.5,0.5,0.9V86c0,0.4-0.2,0.7-0.5,0.9l-14.8,8.5
									C81.6,95.5,81.4,95.5,81.3,95.5z M67.5,85.4l13.8,8l13.8-8V69.5l-13.8-8l-13.8,8V85.4z M96,86L96,86L96,86z"/>
							</g>
							<g>
								<polygon class="st4" points="96,68.9 81.3,77.5 66.5,68.9 66.5,68.9 81.3,60.4 								"/>
								<path class="st6" d="M81.3,78.5c-0.2,0-0.3,0-0.5-0.1L66,69.8c-0.3-0.2-0.5-0.5-0.5-0.9s0.2-0.7,0.5-0.9l14.8-8.5
									c0.3-0.2,0.7-0.2,1,0L96.5,68c0.3,0.2,0.5,0.5,0.5,0.9s-0.2,0.7-0.5,0.9l-14.8,8.5C81.6,78.4,81.4,78.5,81.3,78.5z
									 M68.5,68.9l12.8,7.4L94,68.9l-12.8-7.4L68.5,68.9z"/>
							</g>
							<g>
								<polygon class="st6" points="81.3,77.5 81.3,94.5 96,86 96,68.9 								"/>
								<path class="st6" d="M81.3,95.5c-0.2,0-0.3,0-0.5-0.1c-0.3-0.2-0.5-0.5-0.5-0.9v-17c0-0.4,0.2-0.7,0.5-0.9L95.5,68
									c0.3-0.2,0.7-0.2,1,0s0.5,0.5,0.5,0.9V86c0,0.4-0.2,0.7-0.5,0.9l-14.8,8.5C81.6,95.5,81.4,95.5,81.3,95.5z M82.3,78v14.8
									L95,85.4V70.6L82.3,78z"/>
							</g>
						</g>
						<path class="st0" d="M81.3,95.5c-0.2,0-0.3,0-0.5-0.1L66,86.9c-0.3-0.2-0.5-0.5-0.5-0.9V68.9c0-0.4,0.2-0.7,0.5-0.9l14.8-8.5
							c0.3-0.2,0.7-0.2,1,0L96.5,68c0.3,0.2,0.5,0.5,0.5,0.9V86c0,0.4-0.2,0.7-0.5,0.9l-14.8,8.5C81.6,95.5,81.4,95.5,81.3,95.5z
							 M67.5,85.4l13.8,8l13.8-8V69.5l-13.8-8l-13.8,8V85.4z"/>
					</g>
					<g>
						<path class="st0" d="M81.2,31.6c-0.1,0-0.3,0-0.4-0.1s-0.2-0.1-0.3-0.2c-0.2-0.2-0.3-0.4-0.3-0.7c0-0.1,0-0.3,0.1-0.4
							s0.1-0.2,0.2-0.3c0,0,0.1-0.1,0.2-0.1c0,0,0.1-0.1,0.2-0.1s0.1,0,0.2-0.1c0.3-0.1,0.7,0,0.9,0.3c0.1,0.1,0.2,0.2,0.2,0.3
							s0.1,0.2,0.1,0.4c0,0.3-0.1,0.5-0.3,0.7c-0.1,0.1-0.2,0.2-0.3,0.2S81.4,31.6,81.2,31.6z"/>
						<path class="st0" d="M80.3,37c0-0.6,0.4-1,1-1l0,0c0.5,0,1,0.4,1,1l0,0c0,0.5-0.5,1-1,1l0,0C80.7,38,80.3,37.5,80.3,37z"/>
						<path class="st0" d="M81.3,44.3c-0.1,0-0.3,0-0.4-0.1s-0.2-0.1-0.3-0.2c-0.2-0.2-0.3-0.4-0.3-0.7c0-0.1,0-0.3,0.1-0.4
							c0-0.1,0.1-0.2,0.2-0.3s0.2-0.2,0.3-0.2c0.2-0.1,0.4-0.1,0.6-0.1c0.1,0,0.1,0,0.2,0.1c0.1,0,0.1,0.1,0.2,0.1
							c0,0,0.1,0.1,0.2,0.1c0.1,0.1,0.2,0.2,0.2,0.3s0.1,0.2,0.1,0.4c0,0.3-0.1,0.5-0.3,0.7C81.8,44.2,81.5,44.3,81.3,44.3z"/>
					</g>
					<path class="st1" d="M45.9,115c-0.3-0.5-0.1-1.1,0.4-1.4l0,0c0.5-0.3,1.1-0.1,1.4,0.4l0,0c0.3,0.5,0.1,1.1-0.4,1.4l0,0
						c-0.2,0.1-0.3,0.1-0.5,0.1l0,0C46.4,115.5,46.1,115.3,45.9,115z M51.1,112c-0.3-0.5-0.1-1.1,0.4-1.4l0,0
						c0.5-0.3,1.1-0.1,1.4,0.4l0,0c0.3,0.5,0.1,1.1-0.4,1.4l0,0c-0.2,0.1-0.3,0.1-0.5,0.1l0,0C51.6,112.5,51.3,112.3,51.1,112z
						 M56.3,109c-0.3-0.5-0.1-1.1,0.4-1.4l0,0c0.5-0.3,1.1-0.1,1.4,0.4l0,0c0.3,0.5,0.1,1.1-0.4,1.4l0,0c-0.2,0.1-0.3,0.1-0.5,0.1
						l0,0C56.8,109.5,56.5,109.3,56.3,109z M61.5,106c-0.3-0.5-0.1-1.1,0.4-1.4l0,0c0.5-0.3,1.1-0.1,1.4,0.4l0,0
						c0.3,0.5,0.1,1.1-0.4,1.4l0,0c-0.2,0.1-0.3,0.1-0.5,0.1l0,0C62,106.5,61.6,106.3,61.5,106z"/>
				</g>
				<rect x="4" y="4" class="st7" width="120" height="120"/>
				<rect x="4" y="4" class="st7" width="120" height="120"/>
			</g>
		</g>
	</g>
	<g>
		<rect class="st7" width="128" height="128"/>
	</g>
</g>
</svg>
