<?xml version="1.0" encoding="utf-8"?>
<!-- Generator: Adobe Illustrator 24.1.0, SVG Export Plug-In . SVG Version: 6.00 Build 0)  -->
<svg version="1.1" id="Layer_1" xmlns="http://www.w3.org/2000/svg" xmlns:xlink="http://www.w3.org/1999/xlink" x="0px" y="0px"
	 viewBox="0 0 128 128" style="enable-background:new 0 0 128 128;" xml:space="preserve">
<style type="text/css">
	.st0{fill:none;}
	.st1{fill:#0E352C;}
	.st2{fill:#185849;}
	.st3{fill:#FFFFFF;}
	.st4{fill:#4D9987;}
	.st5{fill:#E9EBDF;}
	.st6{fill:#C4D7D3;}
	.st7{fill:#27ae60;}
</style>
<g id="Layer_1_1_">
</g>
<g>
	<g id="Layer_2_1_">
		<g id="New_Illustrations_1_">
			<g>
				<rect x="4" y="4" class="st0" width="120" height="120"/>
				<rect x="4" y="4" class="st0" width="120" height="120"/>
				<g>
					<g>
						<path class="st1" d="M112.5,32.3c-0.1,0-0.1,0-0.2,0s-0.1,0-0.2-0.1c-0.1,0-0.1-0.1-0.2-0.1s-0.1-0.1-0.2-0.1
							c-0.2-0.2-0.3-0.4-0.3-0.7c0-0.3,0.1-0.5,0.3-0.7c0-0.1,0.1-0.1,0.2-0.1c0,0,0.1-0.1,0.2-0.1s0.1,0,0.2-0.1
							c0.3-0.1,0.7,0,0.9,0.3c0.2,0.2,0.3,0.4,0.3,0.7c0,0.1,0,0.3-0.1,0.4c0,0.1-0.1,0.2-0.2,0.3C113,32.2,112.7,32.3,112.5,32.3z"
							/>
						<path class="st1" d="M106.7,29.1c-0.5-0.3-0.6-0.9-0.4-1.4l0,0c0.3-0.5,0.9-0.6,1.4-0.4l0,0c0.5,0.3,0.6,0.9,0.4,1.4l0,0
							c-0.2,0.3-0.5,0.5-0.9,0.5l0,0C107,29.2,106.8,29.2,106.7,29.1z M101.3,26c-0.5-0.3-0.6-0.9-0.4-1.4l0,0
							c0.3-0.5,0.9-0.6,1.4-0.4l0,0c0.5,0.3,0.6,0.9,0.4,1.4l0,0c-0.2,0.3-0.5,0.5-0.9,0.5l0,0C101.7,26.2,101.5,26.1,101.3,26z"/>
						<path class="st1" d="M96.5,23.1c-0.1,0-0.1,0-0.2,0s-0.1,0-0.2-0.1c-0.1,0-0.1,0-0.2-0.1l-0.1-0.1l-0.1-0.1
							c0-0.1-0.1-0.1-0.1-0.2s0-0.1-0.1-0.2c0-0.1,0-0.1,0-0.2s0-0.1,0-0.2s0-0.1,0.1-0.2c0-0.1,0.1-0.1,0.1-0.2s0.1-0.1,0.1-0.1
							l0.1-0.1c0.1,0,0.1-0.1,0.2-0.1s0.1-0.1,0.2-0.1c0.2,0,0.4,0,0.6,0.1c0.1,0,0.2,0.1,0.3,0.2c0,0.1,0.1,0.1,0.1,0.1
							c0,0.1,0.1,0.1,0.1,0.2s0,0.1,0.1,0.2c0,0.1,0,0.1,0,0.2s0,0.1,0,0.2s0,0.1-0.1,0.2c0,0.1,0,0.1-0.1,0.2
							c0,0.1-0.1,0.1-0.1,0.1C97.1,22.9,97,23,96.9,23C96.8,23.1,96.7,23.1,96.5,23.1z"/>
					</g>
					<g>
						<path class="st1" d="M54.2,120c-0.3,0-0.5-0.1-0.7-0.3c-0.2-0.2-0.3-0.4-0.3-0.7c0-0.3,0.1-0.5,0.3-0.7c0.4-0.4,1-0.4,1.4,0
							c0.2,0.2,0.3,0.4,0.3,0.7c0,0.3-0.1,0.5-0.3,0.7C54.7,119.9,54.4,120,54.2,120z"/>
						<path class="st1" d="M48.4,116.8c-0.5-0.3-0.6-0.9-0.4-1.4l0,0c0.3-0.5,0.9-0.6,1.4-0.4l0,0c0.5,0.3,0.6,0.9,0.4,1.4l0,0
							c-0.2,0.3-0.5,0.5-0.9,0.5l0,0C48.7,116.9,48.5,116.9,48.4,116.8z M43.1,113.7c-0.5-0.3-0.6-0.9-0.4-1.4l0,0
							c0.3-0.5,0.9-0.6,1.4-0.4l0,0c0.5,0.3,0.6,0.9,0.4,1.4l0,0c-0.2,0.3-0.5,0.5-0.9,0.5l0,0C43.4,113.9,43.2,113.8,43.1,113.7z"
							/>
						<path class="st1" d="M38.2,110.8c-0.3,0-0.5-0.1-0.7-0.3c-0.2-0.2-0.3-0.4-0.3-0.7s0.1-0.5,0.3-0.7s0.6-0.3,0.9-0.3
							c0.1,0,0.1,0,0.2,0.1c0.1,0,0.1,0.1,0.2,0.1c0.1,0,0.1,0.1,0.2,0.1c0.2,0.2,0.3,0.4,0.3,0.7s-0.1,0.5-0.3,0.7
							c0,0-0.1,0.1-0.2,0.1c-0.1,0-0.1,0.1-0.2,0.1c-0.1,0-0.1,0.1-0.2,0.1C38.4,110.8,38.3,110.8,38.2,110.8z"/>
					</g>
					<g>
						<path class="st2" d="M89.8,19.2c-0.1,0-0.3,0-0.4-0.1S89.1,19,89,18.9c-0.2-0.2-0.3-0.4-0.3-0.7c0-0.3,0.1-0.5,0.3-0.7
							c0.1-0.1,0.2-0.2,0.3-0.2c0.2-0.1,0.4-0.1,0.6,0c0.1,0,0.1,0,0.2,0s0.1,0.1,0.2,0.1l0.1,0.1c0.2,0.2,0.3,0.4,0.3,0.7
							c0,0.3-0.1,0.5-0.3,0.7c0,0.1-0.1,0.1-0.1,0.1c-0.1,0-0.1,0.1-0.2,0.1S90,19.1,89.8,19.2L89.8,19.2z"/>
						<path class="st2" d="M83.9,16c-0.5-0.3-0.6-0.9-0.4-1.4l0,0c0.3-0.5,0.9-0.6,1.4-0.4l0,0c0.5,0.3,0.6,0.9,0.4,1.4l0,0
							c-0.2,0.3-0.5,0.5-0.9,0.5l0,0C84.3,16.1,84.1,16.1,83.9,16z M78.6,12.9c-0.5-0.3-0.6-0.9-0.4-1.4l0,0
							c0.3-0.5,0.9-0.6,1.4-0.4l0,0c0.5,0.3,0.6,0.9,0.4,1.4l0,0c-0.2,0.3-0.5,0.5-0.9,0.5l0,0C79,13,78.8,13,78.6,12.9z"/>
						<path class="st2" d="M73.8,10c-0.3,0-0.5-0.1-0.7-0.3C73,9.6,73,9.5,72.9,9.3c-0.1-0.1-0.1-0.2-0.1-0.4c0-0.1,0-0.3,0.1-0.4
							c0.1,0,0.1-0.1,0.2-0.2c0.1-0.1,0.2-0.2,0.3-0.2c0.2-0.1,0.5-0.1,0.8,0c0.1,0.1,0.2,0.1,0.3,0.2c0.1,0.1,0.2,0.2,0.2,0.3
							s0.1,0.2,0.1,0.4c0,0.1,0,0.3-0.1,0.4c0,0.1-0.1,0.2-0.2,0.3s-0.2,0.2-0.3,0.2S74,10,73.8,10z"/>
					</g>
					<g>
						<path class="st2" d="M31.5,106.9c-0.3,0-0.5-0.1-0.7-0.3l-0.1-0.1c0-0.1-0.1-0.1-0.1-0.2s0-0.1,0-0.2s0-0.1,0-0.2
							s0-0.3,0.1-0.4c0-0.1,0.1-0.2,0.2-0.3c0.4-0.4,1.1-0.4,1.4,0c0.2,0.2,0.3,0.4,0.3,0.7c0,0.1,0,0.1,0,0.2s0,0.1-0.1,0.2
							c0,0.1-0.1,0.1-0.1,0.2s-0.1,0.1-0.1,0.1c0,0.1-0.1,0.1-0.1,0.1c-0.1,0-0.1,0.1-0.2,0.1c-0.1,0-0.1,0.1-0.2,0.1
							C31.6,106.9,31.5,106.9,31.5,106.9z"/>
						<path class="st2" d="M25.7,103.7c-0.5-0.3-0.6-0.9-0.4-1.4l0,0c0.3-0.5,0.9-0.6,1.4-0.4l0,0c0.5,0.3,0.6,0.9,0.4,1.4l0,0
							c-0.2,0.3-0.5,0.5-0.9,0.5l0,0C26,103.8,25.8,103.8,25.7,103.7z M20.3,100.6c-0.5-0.3-0.6-0.9-0.4-1.4l0,0
							c0.3-0.5,0.9-0.6,1.4-0.4l0,0c0.5,0.3,0.6,0.9,0.4,1.4l0,0c-0.2,0.3-0.5,0.5-0.9,0.5l0,0C20.7,100.8,20.5,100.7,20.3,100.6z"
							/>
						<path class="st2" d="M15.5,97.7c-0.3,0-0.5-0.1-0.7-0.3c-0.2-0.2-0.3-0.4-0.3-0.7c0-0.1,0-0.1,0-0.2s0-0.1,0.1-0.2
							c0-0.1,0-0.1,0.1-0.2c0-0.1,0.1-0.1,0.1-0.2c0.3-0.3,0.7-0.4,1.1-0.2c0.1,0.1,0.2,0.1,0.3,0.2c0,0.1,0.1,0.1,0.1,0.2
							s0.1,0.1,0.1,0.2s0,0.1,0.1,0.2c0,0.1,0,0.1,0,0.2c0,0.3-0.1,0.5-0.3,0.7c-0.1,0.1-0.2,0.2-0.3,0.2
							C15.8,97.7,15.7,97.7,15.5,97.7z"/>
					</g>
					<g>
						<g>
							<path class="st3" d="M73.8,9L67,5.1l0,0c-0.2-0.1-0.4-0.1-0.6,0L9.4,38c-0.5,0.3-1,1.2-1,1.9V92c0,0.4,0.1,0.7,0.3,0.8l0,0
								l6.8,3.9l5.7-10.8l45.2-30.5c0.5-0.3,1-1.2,1-1.9v-36L73.8,9z"/>
							<path class="st4" d="M15.5,97.7c-0.2,0-0.3,0-0.5-0.1l-6.8-3.9c-0.1,0-0.1-0.1-0.2-0.1c-0.4-0.3-0.7-0.9-0.7-1.5V39.9
								c0-1.1,0.6-2.3,1.5-2.7l57-32.9c0.5-0.3,1-0.3,1.5-0.1c0.1,0,0.1,0,0.2,0.1l6.8,3.9c0.2,0.1,0.4,0.4,0.5,0.7s0,0.6-0.2,0.8
								L68.4,18v35.6c0,1.1-0.6,2.3-1.5,2.7L22,86.6l-5.6,10.6c-0.1,0.2-0.3,0.4-0.6,0.5C15.7,97.7,15.6,97.7,15.5,97.7z M9.4,92
								l5.7,3.3l5.2-9.9c0.1-0.1,0.2-0.3,0.3-0.4l45.2-30.5c0.3-0.1,0.5-0.6,0.5-1.1v-36c0-0.2,0.1-0.4,0.2-0.6l5.8-7.7l-5.6-3.2
								l-56.8,33c-0.2,0.1-0.5,0.6-0.5,1V92L9.4,92z M9.3,91.9L9.3,91.9L9.3,91.9z"/>
						</g>
						<path class="st5" d="M15.2,96.5V34.7L9.4,38c-0.5,0.3-1,1.2-1,1.9V92c0,0.4,0.1,0.7,0.3,0.8l0,0L15.2,96.5z"/>
						<g>
							<path class="st3" d="M73.2,63.7l-57,32.9c-0.5,0.3-1,0-1-0.7V43.8c0-0.7,0.4-1.6,1-1.9L73.2,9c0.5-0.3,1,0,1,0.7v52.1
								C74.2,62.6,73.7,63.4,73.2,63.7z"/>
							<path class="st4" d="M15.8,97.8c-0.3,0-0.5-0.1-0.8-0.2c-0.5-0.3-0.8-0.9-0.8-1.7V43.8c0-1.1,0.6-2.3,1.5-2.7l57-32.9
								c0.6-0.3,1.2-0.3,1.6-0.1c0.5,0.3,0.8,0.9,0.8,1.7v52.1c0,1.1-0.6,2.3-1.5,2.7l-57,32.9C16.4,97.7,16.1,97.8,15.8,97.8z
								 M73.2,10.2L16.7,42.8c-0.2,0.1-0.5,0.6-0.5,1v51.7l56.5-32.6l0,0c0.2-0.1,0.5-0.6,0.5-1V10.2z"/>
						</g>
						<g>
							<path class="st4" d="M15.2,43.8c0-0.7,0.4-1.6,1-1.9L73.2,9c0.2-0.1,0.5-0.1,0.6,0l0,0L67,5.1l0,0c-0.2-0.1-0.4-0.1-0.6,0
								L9.4,38c-0.5,0.3-1,1.2-1,1.9v7.9l6.8,3.9V43.8z"/>
							<path class="st1" d="M15.2,52.7c-0.2,0-0.3,0-0.5-0.1l-6.8-3.9c-0.3-0.2-0.5-0.5-0.5-0.9v-7.9c0-1.1,0.6-2.3,1.5-2.7l57-32.9
								c0.5-0.3,1-0.3,1.5-0.1c0.1,0,0.1,0,0.2,0.1l6.8,3.9c0.2,0.1,0.4,0.4,0.5,0.6c0.1,0.3,0,0.6-0.2,0.8C74.4,9.9,74,10,73.6,10
								L16.7,42.8c-0.2,0.1-0.5,0.6-0.5,1v7.9c0,0.4-0.2,0.7-0.5,0.9C15.5,52.7,15.4,52.7,15.2,52.7z M9.4,47.2l4.8,2.8v-6.2
								c0-1.1,0.6-2.3,1.5-2.7L71.5,8.8L66.7,6L9.9,38.9c-0.2,0.1-0.5,0.6-0.5,1V47.2z"/>
						</g>
						<path class="st5" d="M15.2,43.8c0-0.7,0.4-1.6,1-1.9L73.2,9c0.2-0.1,0.5-0.1,0.6,0l0,0L67,5.1l0,0c-0.2-0.1-0.4-0.1-0.6,0
							L9.4,38c-0.5,0.3-1,1.2-1,1.9l0,0L15.2,43.8L15.2,43.8z"/>
						<path class="st1" d="M15.8,97.8c-0.2,0-0.4,0-0.6-0.1c-0.1,0-0.1,0-0.2-0.1l-6.8-3.9c-0.1,0-0.1-0.1-0.2-0.1
							c-0.4-0.3-0.7-0.9-0.7-1.5V39.9c0-1.1,0.6-2.3,1.5-2.7l57-32.9c0.5-0.3,1-0.3,1.5-0.1c0.1,0,0.1,0,0.2,0.1l6.8,3.9
							c0.1,0,0.1,0.1,0.2,0.1c0.4,0.3,0.7,0.9,0.7,1.6V62c0,1.1-0.6,2.3-1.5,2.7l-57,32.9C16.4,97.7,16.1,97.8,15.8,97.8z M9.4,92
							l6.4,3.7l56.9-32.8c0.2-0.1,0.5-0.6,0.5-1V9.8l0,0l-6.4-3.7L9.9,38.9c-0.2,0.1-0.5,0.6-0.5,1V92L9.4,92z M9.3,91.9L9.3,91.9
							L9.3,91.9z M73.3,9.8L73.3,9.8L73.3,9.8z"/>
						<g>
							<path class="st1" d="M74.2,17.7V9.8c0-0.7-0.4-1.1-1-0.7L16.2,42c-0.5,0.3-1,1.2-1,1.9v7.9L74.2,17.7z"/>
							<path class="st1" d="M15.2,52.7c-0.2,0-0.3,0-0.5-0.1c-0.3-0.2-0.5-0.5-0.5-0.9v-7.9c0-1.1,0.6-2.3,1.5-2.7l57-32.9
								c0.6-0.3,1.2-0.3,1.6-0.1c0.5,0.3,0.8,0.9,0.8,1.7v7.9c0,0.4-0.2,0.7-0.5,0.9l-59,34C15.5,52.7,15.4,52.7,15.2,52.7z
								 M73.2,10.2L16.7,42.8c-0.2,0.1-0.5,0.6-0.5,1V50l57-32.9V10.2z M74.2,17.7L74.2,17.7L74.2,17.7z"/>
						</g>
						<g>
							
								<ellipse transform="matrix(0.3916 -0.9201 0.9201 0.3916 -22.5481 48.7108)" class="st5" cx="25.6" cy="41.4" rx="1.7" ry="1"/>
							
								<ellipse transform="matrix(0.3916 -0.9201 0.9201 0.3916 -17.6533 51.1165)" class="st3" cx="29.8" cy="38.9" rx="1.7" ry="1"/>
							
								<ellipse transform="matrix(0.3916 -0.9201 0.9201 0.3916 -27.5808 46.0839)" class="st4" cx="21.1" cy="43.9" rx="1.7" ry="1"/>
						</g>
						<g>
							<g>
								<polyline class="st3" points="67.7,55.9 60.2,60.2 52.8,64.5 45.3,68.8 37.9,73.1 37.9,67.4 37.9,61.7 37.9,56 37.9,50.3 
																	"/>
								<path class="st4" d="M37.9,74.1c-0.2,0-0.3,0-0.5-0.1c-0.3-0.2-0.5-0.5-0.5-0.9V50.3c0-0.6,0.4-1,1-1s1,0.4,1,1v21.1
									l28.3-16.3c0.5-0.3,1.1-0.1,1.4,0.4s0.1,1.1-0.4,1.4L38.4,74C38.2,74.1,38,74.1,37.9,74.1z"/>
							</g>
							<polygon class="st5" points="37.9,66 45.3,54.2 52.8,52.4 60.2,43.1 67.7,41.3 67.7,55.9 37.9,73.1 							"/>
							<path class="st4" d="M37.9,74.1c-0.2,0-0.3,0-0.5-0.1c-0.3-0.2-0.5-0.5-0.5-0.9V66c0-0.2,0.1-0.4,0.2-0.5l7.5-11.8
								c0.1-0.2,0.4-0.4,0.6-0.4l7.1-1.7l7.2-9c0.1-0.2,0.3-0.3,0.5-0.3l7.5-1.8c0.3-0.1,0.6,0,0.9,0.2c0.2,0.2,0.4,0.5,0.4,0.8
								v14.6c0,0.4-0.2,0.7-0.5,0.9L38.4,74C38.2,74.1,38,74.1,37.9,74.1z M38.9,66.3v5.1l27.8-16.1V42.6L60.8,44l-7.2,9
								c-0.1,0.2-0.3,0.3-0.5,0.3L46,55.1L38.9,66.3z"/>
							<path class="st4" d="M67.7,58.8c-0.6,0-1-0.4-1-1v-1.9c0-0.6,0.4-1,1-1s1,0.4,1,1v1.9C68.7,58.4,68.2,58.8,67.7,58.8z"/>
							<path class="st4" d="M60.2,63.1c-0.6,0-1-0.4-1-1v-1.9c0-0.6,0.4-1,1-1s1,0.4,1,1v1.9C61.2,62.7,60.8,63.1,60.2,63.1z"/>
							<path class="st4" d="M52.8,67.4c-0.6,0-1-0.4-1-1v-1.9c0-0.6,0.4-1,1-1s1,0.4,1,1v1.9C53.8,67,53.3,67.4,52.8,67.4z"/>
							<path class="st4" d="M45.3,71.7c-0.6,0-1-0.4-1-1v-1.9c0-0.6,0.4-1,1-1s1,0.4,1,1v1.9C46.3,71.3,45.9,71.7,45.3,71.7z"/>
							<path class="st4" d="M37.9,76c-0.6,0-1-0.4-1-1v-1.9c0-0.6,0.4-1,1-1s1,0.4,1,1V75C38.9,75.6,38.4,76,37.9,76z"/>
						</g>
						<g>
							<g>
								<g>
									<polygon class="st3" points="32.3,76.4 32.3,70.7 32.3,65 32.3,59.3 32.3,53.6 21.7,59.7 21.7,65.4 21.7,71.1 21.7,76.8 
										21.7,82.5 									"/>
									<path class="st4" d="M21.7,83.5c-0.2,0-0.3,0-0.5-0.1c-0.3-0.2-0.5-0.5-0.5-0.9V59.7c0-0.4,0.2-0.7,0.5-0.9l10.6-6.1
										c0.3-0.2,0.7-0.2,1,0c0.3,0.2,0.5,0.5,0.5,0.9v22.8c0,0.4-0.2,0.7-0.5,0.9l-10.6,6.1C22,83.4,21.8,83.5,21.7,83.5z
										 M22.7,60.3v20.5l8.6-5V55.3L22.7,60.3z M32.3,76.4L32.3,76.4L32.3,76.4z"/>
								</g>
							</g>
							<g>
								<polygon class="st5" points="32.3,59.3 32.3,53.6 21.7,59.7 21.7,65.4 								"/>
							</g>
							<g>
								<path class="st4" d="M21.7,66.4c-0.2,0-0.3,0-0.5-0.1c-0.3-0.2-0.5-0.5-0.5-0.9v-5.7c0-0.4,0.2-0.7,0.5-0.9l10.6-6.1
									c0.3-0.2,0.7-0.2,1,0c0.3,0.2,0.5,0.5,0.5,0.9v5.7c0,0.4-0.2,0.7-0.5,0.9l-10.6,6.1C22,66.3,21.8,66.4,21.7,66.4z
									 M22.7,60.3v3.4l8.6-5v-3.4L22.7,60.3z M32.3,59.3L32.3,59.3L32.3,59.3z"/>
							</g>
						</g>
					</g>
					<g>
						<g>
							<path class="st3" d="M96.5,22.1l-6.8-3.9l0,0c-0.2-0.1-0.4-0.1-0.6,0l-57,32.9c-0.5,0.3-1,1.2-1,1.9v52.1
								c0,0.4,0.1,0.7,0.3,0.8l0,0l6.8,3.9L43.9,99l45.2-30.5c0.5-0.3,1-1.2,1-1.9v-36L96.5,22.1z"/>
							<path class="st4" d="M38.2,110.8c-0.2,0-0.3,0-0.5-0.1l-6.8-3.9c-0.1,0-0.1-0.1-0.2-0.1c-0.4-0.3-0.7-0.9-0.7-1.6V53
								c0-1.1,0.6-2.3,1.5-2.7l57-32.9c0.5-0.3,1-0.3,1.5-0.1c0.1,0,0.1,0,0.2,0.1l6.8,3.9c0.2,0.1,0.4,0.4,0.5,0.7
								c0.1,0.3,0,0.6-0.2,0.8L91.1,31v35.6c0,1.1-0.6,2.3-1.5,2.7L44.7,99.7l-5.6,10.6c-0.1,0.2-0.3,0.4-0.6,0.5
								C38.4,110.8,38.3,110.8,38.2,110.8z M32.1,105.1l5.7,3.3l5.2-9.9c0.1-0.1,0.2-0.3,0.3-0.4l45.2-30.5c0.2-0.1,0.5-0.6,0.5-1.1
								v-36c0-0.2,0.1-0.4,0.2-0.6l5.8-7.7L89.4,19L32.6,52c-0.2,0.1-0.5,0.6-0.5,1V105.1L32.1,105.1z M32,105L32,105L32,105z"/>
						</g>
						<path class="st6" d="M37.9,109.6V47.8l-5.8,3.3c-0.5,0.3-1,1.2-1,1.9v52.1c0,0.4,0.1,0.7,0.3,0.8l0,0L37.9,109.6z"/>
						<g>
							<path class="st3" d="M95.9,76.9l-57,32.9c-0.5,0.3-1,0-1-0.7V56.9c0-0.7,0.4-1.6,1-1.9l57-32.9c0.5-0.3,1,0,1,0.7V75
								C96.9,75.7,96.4,76.5,95.9,76.9z"/>
							<path class="st7" d="M38.5,110.9c-0.3,0-0.5-0.1-0.8-0.2c-0.5-0.3-0.8-0.9-0.8-1.7V56.9c0-1.1,0.6-2.3,1.5-2.7l57-32.9
								C96,21,96.5,21,97,21.2c0.5,0.3,0.8,0.9,0.8,1.7V75c0,1.1-0.6,2.3-1.5,2.7l-57,32.9C39.1,110.8,38.8,110.9,38.5,110.9z
								 M95.9,23.3L39.4,55.9c-0.2,0.1-0.5,0.6-0.5,1v51.7L95.4,76l0,0c0.2-0.1,0.5-0.6,0.5-1V23.3z"/>
						</g>
						<path class="st7" d="M37.9,56.9c0-0.7,0.4-1.6,1-1.9l57-32.9c0.2-0.1,0.5-0.1,0.6,0l0,0l-6.8-3.9l0,0c-0.2-0.1-0.4-0.1-0.6,0
							l-57,32.9c-0.5,0.3-1,1.2-1,1.9v7.9l6.8,3.9C37.9,64.8,37.9,56.9,37.9,56.9z"/>
						<path class="st2" d="M37.9,65.8c-0.2,0-0.3,0-0.5-0.1l-6.8-3.9c-0.3-0.2-0.5-0.5-0.5-0.9V53c0-1.1,0.6-2.3,1.5-2.7l57-32.9
							c0.5-0.3,1-0.3,1.5-0.1c0.1,0,0.1,0,0.2,0.1l6.8,3.9c0.2,0.1,0.4,0.4,0.5,0.6c0.1,0.3,0,0.6-0.2,0.8c-0.2,0.3-0.7,0.5-1.1,0.4
							L39.4,55.9c-0.2,0.1-0.5,0.6-0.5,1v7.9c0,0.4-0.2,0.7-0.5,0.9C38.2,65.8,38.1,65.8,37.9,65.8z M32.1,60.3l4.8,2.8v-6.2
							c0-1.1,0.6-2.3,1.5-2.7l55.9-32.3l-4.8-2.8L32.6,52c-0.2,0.1-0.5,0.6-0.5,1V60.3z"/>
						<path class="st6" d="M37.9,56.9c0-0.7,0.4-1.6,1-1.9l57-32.9c0.2-0.1,0.5-0.1,0.6,0l0,0l-6.8-3.9l0,0c-0.2-0.1-0.4-0.1-0.6,0
							l-57,32.9c-0.5,0.3-1,1.2-1,1.9l0,0L37.9,56.9L37.9,56.9z"/>
						<path class="st2" d="M38.5,110.9c-0.2,0-0.4,0-0.6-0.1c-0.1,0-0.1,0-0.2-0.1l-6.8-3.9c-0.1,0-0.1-0.1-0.2-0.1
							c-0.4-0.3-0.7-0.9-0.7-1.6V53c0-1.1,0.6-2.3,1.5-2.7l57-32.9c0.5-0.3,1-0.3,1.5-0.1c0.1,0,0.1,0,0.2,0.1l6.8,3.9
							c0.1,0,0.1,0.1,0.2,0.1c0.4,0.3,0.7,0.9,0.7,1.6v52c0,1.1-0.6,2.3-1.5,2.7l-57,32.9C39.1,110.8,38.8,110.9,38.5,110.9z
							 M32.1,105.1l6.4,3.7L95.4,76c0.2-0.1,0.5-0.6,0.5-1V22.9l0,0l-6.4-3.7L32.6,52c-0.2,0.1-0.5,0.6-0.5,1V105.1L32.1,105.1z
							 M32,105L32,105L32,105z M96,23L96,23L96,23z"/>
						<g>
							<path class="st2" d="M96.9,30.8v-7.9c0-0.7-0.4-1.1-1-0.7l-57,32.9c-0.5,0.3-1,1.2-1,1.9v7.9L96.9,30.8z"/>
							<path class="st2" d="M37.9,65.8c-0.2,0-0.3,0-0.5-0.1c-0.3-0.2-0.5-0.5-0.5-0.9v-7.9c0-1.1,0.6-2.3,1.5-2.7l57-32.9
								C96,21,96.5,21,97,21.2c0.5,0.3,0.8,0.9,0.8,1.7v7.9c0,0.4-0.2,0.7-0.5,0.9l-59,34C38.2,65.8,38.1,65.8,37.9,65.8z
								 M95.9,23.3L39.4,55.9c-0.2,0.1-0.5,0.6-0.5,1v6.2l57-32.9V23.3z M96.9,30.8L96.9,30.8L96.9,30.8z"/>
						</g>
						<g>
							
								<ellipse transform="matrix(0.3916 -0.9201 0.9201 0.3916 -20.8109 77.5782)" class="st6" cx="48.3" cy="54.5" rx="1.7" ry="1"/>
							
								<ellipse transform="matrix(0.3916 -0.9201 0.9201 0.3916 -15.9161 79.9838)" class="st3" cx="52.5" cy="52" rx="1.7" ry="1"/>
							
								<ellipse transform="matrix(0.3916 -0.9201 0.9201 0.3916 -25.8437 74.9512)" class="st7" cx="43.8" cy="57" rx="1.7" ry="1"/>
						</g>
						<g>
							<g>
								<polyline class="st3" points="90.4,69 82.9,73.3 75.5,77.6 68,81.9 60.6,86.2 60.6,80.5 60.6,74.8 60.6,69.1 60.6,63.4 
																	"/>
								<path class="st4" d="M60.6,87.2c-0.2,0-0.3,0-0.5-0.1c-0.3-0.2-0.5-0.5-0.5-0.9V63.4c0-0.6,0.4-1,1-1s1,0.4,1,1v21.1
									l28.3-16.3c0.5-0.3,1.1-0.1,1.4,0.4s0.1,1.1-0.4,1.4L61.1,87.1C60.9,87.2,60.8,87.2,60.6,87.2z"/>
							</g>
							<polygon class="st5" points="60.6,79.1 68,67.3 75.5,65.5 82.9,56.2 90.4,54.4 90.4,69 60.6,86.2 							"/>
							<path class="st4" d="M60.6,87.2c-0.2,0-0.3,0-0.5-0.1c-0.3-0.2-0.5-0.5-0.5-0.9V79c0-0.2,0.1-0.4,0.2-0.5l7.5-11.8
								c0.1-0.2,0.4-0.4,0.6-0.4l7.1-1.7l7.2-9c0.1-0.2,0.3-0.3,0.5-0.3l7.4-1.8c0.3-0.1,0.6,0,0.9,0.2c0.2,0.2,0.4,0.5,0.4,0.8V69
								c0,0.4-0.2,0.7-0.5,0.9L61.1,87.1C60.9,87.2,60.8,87.2,60.6,87.2z M61.6,79.4v5.1l27.8-16.1V55.7l-5.9,1.4l-7.2,9
								c-0.1,0.2-0.3,0.3-0.5,0.3l-7.1,1.7L61.6,79.4z"/>
							<path class="st4" d="M90.4,71.9c-0.6,0-1-0.4-1-1V69c0-0.6,0.4-1,1-1s1,0.4,1,1v1.9C91.4,71.5,90.9,71.9,90.4,71.9z"/>
							<path class="st4" d="M82.9,76.2c-0.6,0-1-0.4-1-1v-1.9c0-0.6,0.4-1,1-1s1,0.4,1,1v1.9C83.9,75.8,83.5,76.2,82.9,76.2z"/>
							<path class="st4" d="M75.5,80.5c-0.6,0-1-0.4-1-1v-1.9c0-0.6,0.4-1,1-1s1,0.4,1,1v1.9C76.5,80.1,76,80.5,75.5,80.5z"/>
							<path class="st4" d="M68,84.8c-0.6,0-1-0.4-1-1v-1.9c0-0.6,0.4-1,1-1s1,0.4,1,1v1.9C69,84.4,68.6,84.8,68,84.8z"/>
							<path class="st4" d="M60.6,89.1c-0.6,0-1-0.4-1-1v-1.9c0-0.6,0.4-1,1-1s1,0.4,1,1v1.9C61.6,88.7,61.1,89.1,60.6,89.1z"/>
						</g>
						<g>
							<g>
								<g>
									<polygon class="st3" points="55,89.5 55,83.8 55,78.1 55,72.4 55,66.7 44.4,72.8 44.4,78.5 44.4,84.2 44.4,89.9 44.4,95.6 
																			"/>
									<path class="st7" d="M44.4,96.6c-0.2,0-0.3,0-0.5-0.1c-0.3-0.2-0.5-0.5-0.5-0.9V72.8c0-0.4,0.2-0.7,0.5-0.9l10.6-6.1
										c0.3-0.2,0.7-0.2,1,0s0.5,0.5,0.5,0.9v22.8c0,0.4-0.2,0.7-0.5,0.9l-10.6,6.1C44.7,96.5,44.6,96.6,44.4,96.6z M45.4,73.4
										v20.5l8.6-5V68.4L45.4,73.4z M55,89.5L55,89.5L55,89.5z"/>
								</g>
							</g>
							<g>
								<g>
									<polygon class="st3" points="55,72.4 55,66.7 44.4,72.8 44.4,78.5 									"/>
									<path class="st7" d="M44.4,79.5c-0.2,0-0.3,0-0.5-0.1c-0.3-0.2-0.5-0.5-0.5-0.9v-5.7c0-0.4,0.2-0.7,0.5-0.9l10.6-6.1
										c0.3-0.2,0.7-0.2,1,0s0.5,0.5,0.5,0.9v5.7c0,0.4-0.2,0.7-0.5,0.9l-10.6,6.1C44.7,79.4,44.6,79.5,44.4,79.5z M45.4,73.4v3.4
										l8.6-5v-3.4L45.4,73.4z M55,72.4L55,72.4L55,72.4z"/>
								</g>
							</g>
							<g>
								<polygon class="st6" points="55,72.4 55,66.7 44.4,72.8 44.4,78.5 								"/>
							</g>
							<g>
								<path class="st7" d="M44.4,79.5c-0.2,0-0.3,0-0.5-0.1c-0.3-0.2-0.5-0.5-0.5-0.9v-5.7c0-0.4,0.2-0.7,0.5-0.9l10.6-6.1
									c0.3-0.2,0.7-0.2,1,0s0.5,0.5,0.5,0.9v5.7c0,0.4-0.2,0.7-0.5,0.9l-10.6,6.1C44.7,79.4,44.6,79.5,44.4,79.5z M45.4,73.4v3.4
									l8.6-5v-3.4L45.4,73.4z M55,72.4L55,72.4L55,72.4z"/>
							</g>
						</g>
					</g>
					<g>
						<g>
							<path class="st3" d="M119.2,35.2l-6.8-3.9l0,0c-0.2-0.1-0.4-0.1-0.6,0l-57,32.9c-0.5,0.3-1,1.2-1,1.9v52.1
								c0,0.4,0.1,0.7,0.3,0.8l0,0l6.8,3.9l5.7-10.8l45.2-30.5c0.5-0.3,1-1.2,1-1.9v-36L119.2,35.2z"/>
							<path class="st4" d="M61,123.9c-0.2,0-0.3,0-0.5-0.1l-6.8-3.9c-0.1,0-0.1-0.1-0.2-0.1c-0.4-0.3-0.7-0.9-0.7-1.6V66.1
								c0-1.1,0.6-2.3,1.5-2.7l57-32.9c0.5-0.3,1-0.3,1.5-0.1c0.1,0,0.1,0,0.2,0.1l6.8,3.9c0.2,0.1,0.4,0.4,0.5,0.7s0,0.6-0.2,0.8
								l-6.2,8.3v35.6c0,1.1-0.6,2.3-1.5,2.7l-44.9,30.3l-5.6,10.6c-0.1,0.2-0.3,0.4-0.6,0.5C61.1,123.9,61,123.9,61,123.9z
								 M54.8,118.2l5.7,3.3l5.2-9.9c0.1-0.1,0.2-0.3,0.3-0.4l45.2-30.5c0.2-0.1,0.5-0.6,0.5-1.1v-36c0-0.2,0.1-0.4,0.2-0.6l5.8-7.7
								l-5.6-3.2l-56.8,33c-0.2,0.1-0.5,0.6-0.5,1V118.2L54.8,118.2z M54.7,118.1L54.7,118.1L54.7,118.1z"/>
						</g>
						<path class="st5" d="M60.6,122.7V60.9l-5.8,3.3c-0.5,0.3-1,1.2-1,1.9v52.1c0,0.4,0.1,0.7,0.3,0.8l0,0L60.6,122.7z"/>
						<g>
							<path class="st3" d="M118.6,90l-57,32.9c-0.5,0.3-1,0-1-0.7V70c0-0.7,0.4-1.6,1-1.9l57-32.9c0.5-0.3,1,0,1,0.7V88
								C119.6,88.8,119.1,89.7,118.6,90z"/>
							<path class="st4" d="M61.2,124c-0.3,0-0.5-0.1-0.8-0.2c-0.5-0.3-0.8-0.9-0.8-1.7V70c0-1.1,0.6-2.3,1.5-2.7l57-32.9
								c0.6-0.3,1.2-0.3,1.6-0.1c0.5,0.3,0.8,0.9,0.8,1.7v52.1c0,1.1-0.6,2.3-1.5,2.7l-57,32.9C61.8,123.9,61.5,124,61.2,124z
								 M118.6,36.4L62.1,69c-0.2,0.1-0.5,0.6-0.5,1v51.7l56.5-32.6l0,0c0.2-0.1,0.5-0.6,0.5-1V36.4z"/>
						</g>
						<g>
							<g>
								<polyline class="st3" points="113.1,82.1 105.7,86.5 98.2,90.8 90.8,95.1 83.3,99.4 83.3,93.7 83.3,88 83.3,82.2 83.3,76.5 
																	"/>
								<path class="st4" d="M83.3,100.4c-0.2,0-0.3,0-0.5-0.1c-0.3-0.2-0.5-0.5-0.5-0.9V76.5c0-0.6,0.4-1,1-1s1,0.4,1,1v21.1
									l28.3-16.3c0.5-0.3,1.1-0.1,1.4,0.4s0.1,1.1-0.4,1.4l-29.8,17.2C83.6,100.3,83.5,100.4,83.3,100.4z"/>
							</g>
							<polygon class="st5" points="83.3,92.2 90.8,80.4 98.2,78.6 105.7,69.3 113.1,67.5 113.1,82.1 83.3,99.4 							"/>
							<path class="st4" d="M83.3,100.4c-0.2,0-0.3,0-0.5-0.1c-0.3-0.2-0.5-0.5-0.5-0.9v-7.2c0-0.2,0.1-0.4,0.2-0.5L90,79.9
								c0.1-0.2,0.4-0.4,0.6-0.4l7.1-1.7l7.2-9c0.1-0.2,0.3-0.3,0.5-0.3l7.5-1.8c0.3-0.1,0.6,0,0.9,0.2s0.4,0.5,0.4,0.8v14.6
								c0,0.4-0.2,0.7-0.5,0.9l-29.8,17.2C83.6,100.3,83.5,100.4,83.3,100.4z M84.3,92.5v5.1l27.8-16.1V68.8l-5.9,1.4l-7.2,9
								c-0.1,0.2-0.3,0.3-0.5,0.3l-7.1,1.7L84.3,92.5z"/>
							<path class="st4" d="M113.1,85c-0.6,0-1-0.4-1-1v-1.9c0-0.6,0.4-1,1-1s1,0.4,1,1V84C114.1,84.6,113.7,85,113.1,85z"/>
							<path class="st4" d="M105.7,89.3c-0.6,0-1-0.4-1-1v-1.9c0-0.6,0.4-1,1-1s1,0.4,1,1v1.9C106.7,88.9,106.2,89.3,105.7,89.3z"/>
							<path class="st4" d="M98.2,93.6c-0.6,0-1-0.4-1-1v-1.9c0-0.6,0.4-1,1-1s1,0.4,1,1v1.9C99.2,93.2,98.8,93.6,98.2,93.6z"/>
							<path class="st4" d="M90.8,97.9c-0.6,0-1-0.4-1-1V95c0-0.6,0.4-1,1-1s1,0.4,1,1v1.9C91.8,97.5,91.3,97.9,90.8,97.9z"/>
							<path class="st4" d="M83.3,102.2c-0.6,0-1-0.4-1-1v-1.9c0-0.6,0.4-1,1-1s1,0.4,1,1v1.9C84.3,101.8,83.9,102.2,83.3,102.2z"/>
						</g>
						<g>
							<g>
								<g>
									<polygon class="st3" points="77.7,102.6 77.7,96.9 77.7,91.2 77.7,85.5 77.7,79.8 67.1,85.9 67.1,91.6 67.1,97.3 67.1,103 
										67.1,108.7 									"/>
									<path class="st4" d="M67.1,109.7c-0.2,0-0.3,0-0.5-0.1c-0.3-0.2-0.5-0.5-0.5-0.9V85.9c0-0.4,0.2-0.7,0.5-0.9l10.6-6.1
										c0.3-0.2,0.7-0.2,1,0s0.5,0.5,0.5,0.9v22.8c0,0.4-0.2,0.7-0.5,0.9l-10.6,6.1C67.4,109.7,67.3,109.7,67.1,109.7z M68.1,86.5
										V107l8.6-5V81.5L68.1,86.5z M77.7,102.6L77.7,102.6L77.7,102.6z"/>
								</g>
							</g>
							<g>
								<polygon class="st5" points="77.7,85.5 77.7,79.8 67.1,85.9 67.1,91.6 								"/>
							</g>
							<g>
								<path class="st4" d="M67.1,92.6c-0.2,0-0.3,0-0.5-0.1c-0.3-0.2-0.5-0.5-0.5-0.9v-5.7c0-0.4,0.2-0.7,0.5-0.9l10.6-6.1
									c0.3-0.2,0.7-0.2,1,0s0.5,0.5,0.5,0.9v5.7c0,0.4-0.2,0.7-0.5,0.9l-10.6,6.1C67.4,92.6,67.3,92.6,67.1,92.6z M68.1,86.5v3.4
									l8.6-5v-3.4L68.1,86.5z M77.7,85.5L77.7,85.5L77.7,85.5z"/>
							</g>
						</g>
						<g>
							<path class="st4" d="M60.6,70c0-0.7,0.4-1.6,1-1.9l57-32.9c0.2-0.1,0.5-0.1,0.6,0l0,0l-6.8-3.9l0,0c-0.2-0.1-0.4-0.1-0.6,0
								l-57,32.9c-0.5,0.3-1,1.2-1,1.9V74l6.8,3.9C60.6,77.9,60.6,70,60.6,70z"/>
							<path class="st1" d="M60.6,78.9c-0.2,0-0.3,0-0.5-0.1l-6.8-3.9c-0.3-0.2-0.5-0.5-0.5-0.9v-7.9c0-1.1,0.6-2.3,1.5-2.7l57-32.9
								c0.5-0.3,1-0.3,1.5-0.1c0.1,0,0.1,0,0.2,0.1l6.8,3.9c0.2,0.1,0.4,0.4,0.5,0.6c0.1,0.3,0,0.6-0.2,0.8
								c-0.2,0.3-0.7,0.5-1.1,0.4L62.1,69c-0.2,0.1-0.5,0.6-0.5,1v7.9c0,0.4-0.2,0.7-0.5,0.9C61,78.9,60.8,78.9,60.6,78.9z
								 M54.8,73.4l4.8,2.8V70c0-1.1,0.6-2.3,1.5-2.7L117,35l-4.8-2.8L55.3,65.1c-0.2,0.1-0.5,0.6-0.5,1V73.4z"/>
						</g>
						<path class="st5" d="M60.6,70c0-0.7,0.4-1.6,1-1.9l57-32.9c0.2-0.1,0.5-0.1,0.6,0l0,0l-6.8-3.9l0,0c-0.2-0.1-0.4-0.1-0.6,0
							l-57,32.9c-0.5,0.3-1,1.2-1,1.9l0,0L60.6,70L60.6,70z"/>
						<path class="st1" d="M61.2,124c-0.2,0-0.4,0-0.6-0.1c-0.1,0-0.1,0-0.2-0.1l-6.8-3.9c-0.1,0-0.1-0.1-0.2-0.1
							c-0.4-0.3-0.7-0.9-0.7-1.6V66.1c0-1.1,0.6-2.3,1.5-2.7l57-32.9c0.5-0.3,1-0.3,1.5-0.1c0.1,0,0.1,0,0.2,0.1l6.8,3.9
							c0.1,0,0.1,0.1,0.2,0.1c0.4,0.3,0.7,0.9,0.7,1.5v52.1c0,1.1-0.6,2.3-1.5,2.7l-57,32.9C61.8,123.9,61.5,124,61.2,124z
							 M54.8,118.2l6.4,3.7l56.9-32.8c0.2-0.1,0.5-0.6,0.5-1V36l0,0l-6.4-3.7L55.3,65.1c-0.2,0.1-0.5,0.6-0.5,1V118.2L54.8,118.2z
							 M54.7,118.1L54.7,118.1L54.7,118.1z M118.7,36.1L118.7,36.1L118.7,36.1z"/>
						<g>
							<path class="st1" d="M119.6,43.9V36c0-0.7-0.4-1.1-1-0.7l-57,32.9c-0.5,0.3-1,1.2-1,1.9V78L119.6,43.9z"/>
							<path class="st1" d="M60.6,78.9c-0.2,0-0.3,0-0.5-0.1c-0.3-0.2-0.5-0.5-0.5-0.9V70c0-1.1,0.6-2.3,1.5-2.7l57-32.9
								c0.6-0.3,1.2-0.3,1.6-0.1c0.5,0.3,0.8,0.9,0.8,1.7v7.9c0,0.4-0.2,0.7-0.5,0.9l-59,34C61,78.9,60.8,78.9,60.6,78.9z
								 M118.6,36.4L62.1,69c-0.2,0.1-0.5,0.6-0.5,1v6.2l57-32.9V36.4z M119.6,43.9L119.6,43.9L119.6,43.9z"/>
						</g>
						<g>
							
								<ellipse transform="matrix(0.3916 -0.9201 0.9201 0.3916 -18.9652 106.4255)" class="st5" cx="71" cy="67.6" rx="1.7" ry="1"/>
							
								<ellipse transform="matrix(0.3916 -0.9201 0.9201 0.3916 -14.1789 108.8513)" class="st3" cx="75.2" cy="65.1" rx="1.7" ry="1"/>
							
								<ellipse transform="matrix(0.3916 -0.9201 0.9201 0.3916 -24.0865 103.9271)" class="st4" cx="66.5" cy="70.2" rx="1.7" ry="1"/>
						</g>
					</g>
				</g>
			</g>
		</g>
	</g>
	<g>
		<rect class="st0" width="128" height="128"/>
	</g>
</g>
</svg>
