<?xml version="1.0" encoding="utf-8"?>
<!-- Generator: Adobe Illustrator 24.1.0, SVG Export Plug-In . SVG Version: 6.00 Build 0)  -->
<svg version="1.1" id="Layer_1" xmlns="http://www.w3.org/2000/svg" xmlns:xlink="http://www.w3.org/1999/xlink" x="0px" y="0px"
	 viewBox="0 0 128 128" style="enable-background:new 0 0 128 128;" xml:space="preserve">
<style type="text/css">
	.st0{fill:#C4D7D3;}
	.st1{fill:#FFFFFF;}
	.st2{fill:#27ae60;}
	.st3{fill:#185849;}
	.st4{fill:#4D9987;}
	.st5{fill:#E9EBDF;}
	.st6{fill:#0E352C;}
	.st7{enable-background:new    ;}
	.st8{fill:none;}
</style>
<g id="Layer_1_1_">
</g>
<g>
	<g id="Layer_2_1_">
		<g id="Tech_Concepts_1_">
			<g>
				<g>
					<g>
						<path class="st0" d="M55.8,36.6L55.8,36.6l-11-6.4c-2.4-1.4-5.8-1.2-9.5,0.9C28,35.3,22,45.6,22,54.1c0,4.2,1.5,7.2,3.9,8.5
							l11,6.4c-0.2-0.1-0.3-0.2-0.4-0.3c2.4,1.7,6,1.6,9.9-0.6c7.4-4.2,13.3-14.5,13.3-23C59.7,41,58.2,38,55.8,36.6z"/>
						<path class="st1" d="M55.8,36.6L55.8,36.6l-11-6.4c-2.4-1.4-5.8-1.2-9.5,0.9c-3.9,2.2-7.3,6.2-9.8,10.6L55.4,59
							c2.7-4.3,4.3-9.3,4.3-13.8C59.7,41,58.2,38,55.8,36.6z"/>
						<g>
							<g>
								<g>
									<polygon class="st2" points="105.7,63.8 105.7,85.4 87,96.3 86.9,74.7 									"/>
									<path class="st1" d="M87,97.3c-0.2,0-0.3,0-0.5-0.1C86.2,97,86,96.7,86,96.3l-0.1-21.6c0-0.4,0.2-0.7,0.5-0.9L105.2,63
										c0.3-0.2,0.7-0.2,1,0s0.5,0.5,0.5,0.9l0.1,21.6c0,0.4-0.2,0.7-0.5,0.9L87.5,97.1C87.3,97.2,87.1,97.3,87,97.3z M87.9,75.3
										L88,94.5l16.8-9.7l-0.1-19.3L87.9,75.3z"/>
								</g>
							</g>
							<g>
								<g>
									<polygon class="st0" points="87,96.3 68.2,85.3 68.1,63.8 86.9,74.7 									"/>
									<path class="st1" d="M87,97.3c-0.2,0-0.3,0-0.5-0.1l-18.8-11c-0.3-0.2-0.5-0.5-0.5-0.9l-0.1-21.6c0-0.4,0.2-0.7,0.5-0.9
										s0.7-0.2,1,0l18.8,10.9c0.3,0.2,0.5,0.5,0.5,0.9L88,96.2c0,0.4-0.2,0.7-0.5,0.9C87.3,97.2,87.1,97.3,87,97.3z M69.2,84.7
										L86,94.5l-0.1-19.2l-16.8-9.8L69.2,84.7z"/>
								</g>
							</g>
							<g>
								<g>
									<polygon class="st0" points="86.9,74.7 68.1,63.8 86.9,52.9 105.7,63.8 									"/>
									<path class="st1" d="M86.9,75.7c-0.2,0-0.3,0-0.5-0.1l-18.8-11c-0.3-0.2-0.5-0.5-0.5-0.9s0.2-0.7,0.5-0.9L86.4,52
										c0.3-0.2,0.7-0.2,1,0l18.8,11c0.3,0.2,0.5,0.5,0.5,0.9s-0.2,0.7-0.5,0.9L87.4,75.6C87.3,75.6,87.1,75.7,86.9,75.7z
										 M70.1,63.8l16.8,9.8l16.8-9.7l-16.8-9.8L70.1,63.8z"/>
								</g>
							</g>
							<path class="st3" d="M87,97.3c-0.2,0-0.3,0-0.5-0.1l-18.8-11c-0.3-0.2-0.5-0.5-0.5-0.9l-0.1-21.6c0-0.4,0.2-0.7,0.5-0.9
								L86.4,52c0.3-0.2,0.7-0.2,1,0l18.8,11c0.3,0.2,0.5,0.5,0.5,0.9l0.1,21.6c0,0.4-0.2,0.7-0.5,0.9L87.5,97.1
								C87.3,97.2,87.1,97.3,87,97.3z M69.2,84.7L87,95.1l17.8-10.3l-0.1-20.4L86.9,54.1L69.1,64.3L69.2,84.7z"/>
						</g>
						<g>
							<g>
								<g>
									<polygon class="st4" points="59.7,90.6 59.7,112.2 41,123 40.9,101.4 									"/>
									<path class="st1" d="M41,124c-0.2,0-0.3,0-0.5-0.1c-0.3-0.2-0.5-0.5-0.5-0.9l-0.1-21.6c0-0.4,0.2-0.7,0.5-0.9l18.8-10.8
										c0.3-0.2,0.7-0.2,1,0s0.5,0.5,0.5,0.9l0.1,21.6c0,0.4-0.2,0.7-0.5,0.9l-18.8,10.8C41.3,124,41.1,124,41,124z M41.9,102
										l0.1,19.3l16.8-9.7l-0.1-19.3L41.9,102z"/>
								</g>
							</g>
							<g>
								<g>
									<polygon class="st5" points="41,123 22.2,112.1 22.1,90.5 40.9,101.4 									"/>
									<path class="st1" d="M41,124c-0.2,0-0.3,0-0.5-0.1L21.7,113c-0.3-0.2-0.5-0.5-0.5-0.9l-0.1-21.6c0-0.4,0.2-0.7,0.5-0.9
										c0.3-0.2,0.7-0.2,1,0l18.8,10.9c0.3,0.2,0.5,0.5,0.5,0.9L42,123c0,0.4-0.2,0.7-0.5,0.9C41.3,124,41.1,124,41,124z
										 M23.2,111.5l16.8,9.8L39.9,102l-16.8-9.8L23.2,111.5z"/>
								</g>
							</g>
							<g>
								<g>
									<polygon class="st5" points="40.9,101.4 22.1,90.5 40.9,79.7 59.7,90.6 									"/>
									<path class="st1" d="M40.9,102.4c-0.2,0-0.3,0-0.5-0.1L21.6,91.4c-0.3-0.2-0.5-0.5-0.5-0.9s0.2-0.7,0.5-0.9l18.8-10.8
										c0.3-0.2,0.7-0.2,1,0l18.8,10.9c0.3,0.2,0.5,0.5,0.5,0.9s-0.2,0.7-0.5,0.9l-18.8,10.8C41.2,102.4,41.1,102.4,40.9,102.4z
										 M24.1,90.5l16.8,9.8l16.8-9.7l-16.8-9.8L24.1,90.5z"/>
								</g>
							</g>
							<path class="st6" d="M41,124c-0.2,0-0.3,0-0.5-0.1L21.7,113c-0.3-0.2-0.5-0.5-0.5-0.9l-0.1-21.6c0-0.4,0.2-0.7,0.5-0.9
								l18.8-10.8c0.3-0.2,0.7-0.2,1,0l18.8,10.9c0.3,0.2,0.5,0.5,0.5,0.9l0.1,21.6c0,0.4-0.2,0.7-0.5,0.9l-18.8,10.8
								C41.3,124,41.1,124,41,124z M23.2,111.5L41,121.8l17.8-10.3l-0.1-20.4L40.9,80.8L23.1,91.1L23.2,111.5z"/>
						</g>
						<g>
							<g class="st7">
								<g>
									
										<ellipse transform="matrix(0.5025 -0.8646 0.8646 0.5025 -22.6401 66.4567)" class="st2" cx="46.4" cy="52.9" rx="18.8" ry="10.9"/>
								</g>
							</g>
						</g>
						<g>
							<g class="st7">
								<g>
									<path class="st1" d="M40.5,71c-1.4,0-2.8-0.3-4-1c-2.8-1.6-4.4-5-4.4-9.4c0-8.8,6.2-19.5,13.8-23.9l0,0
										c3.9-2.2,7.6-2.6,10.5-0.9c2.8,1.6,4.4,5,4.4,9.4c0,8.8-6.2,19.5-13.8,23.9C44.7,70.4,42.5,71,40.5,71z M52.3,36.7
										c-1.7,0-3.5,0.6-5.5,1.7l0,0C39.7,42.5,34,52.4,34,60.5c0,3.7,1.2,6.4,3.4,7.7c2.2,1.3,5.2,0.9,8.5-0.9
										c7.1-4.1,12.8-14,12.8-22.1c0-3.7-1.2-6.4-3.4-7.7C54.4,37,53.4,36.7,52.3,36.7z M46.4,37.6L46.4,37.6L46.4,37.6z"/>
								</g>
							</g>
						</g>
						<path class="st3" d="M40.5,71c-1.4,0-2.7-0.3-3.8-0.9c-0.1,0-0.1-0.1-0.2-0.1l0,0l-11-6.4c-2.8-1.6-4.4-5-4.4-9.4
							c0-8.8,6.2-19.5,13.8-23.9c3.9-2.3,7.6-2.6,10.5-0.9l11,6.4c0,0,0,0,0.1,0c2.8,1.6,4.3,5,4.3,9.4c0,8.8-6.2,19.5-13.8,23.9
							C44.7,70.3,42.5,71,40.5,71z M36.8,67.8c0.1,0,0.2,0.1,0.3,0.2c2.2,1.5,5.4,1.3,8.8-0.7c7.1-4.1,12.8-14,12.8-22.1
							c0-3.7-1.2-6.4-3.4-7.7c0,0,0,0-0.1,0l-10.9-6.3c-2.2-1.3-5.2-1-8.5,0.9C28.7,36.2,23,46.1,23,54.2c0,3.7,1.2,6.4,3.4,7.7
							L36.8,67.8z"/>
						<g>
							<polygon class="st5" points="86.9,43 86.9,43 86.9,5 67.8,32.1 							"/>
							<polygon class="st4" points="86.9,43 86.9,43 86.9,5 105.9,32.1 							"/>
							<path class="st1" d="M86.9,44c-0.2,0-0.3,0-0.5-0.1c-0.3-0.2-0.5-0.5-0.5-0.9V5c0-0.4,0.3-0.8,0.7-1c0.4-0.1,0.9,0,1.1,0.4
								l19,27.1c0.2,0.2,0.2,0.5,0.2,0.8c-0.1,0.3-0.2,0.5-0.5,0.7l-19,11C87.2,44,87,44,86.9,44z M87.9,8.2v33.2l16.6-9.6L87.9,8.2
								z"/>
							<path class="st6" d="M86.9,44c-0.2,0-0.3,0-0.5-0.1l-19-11c-0.2-0.1-0.4-0.4-0.5-0.7s0-0.6,0.2-0.8l19-27.1
								c0.4-0.5,1.3-0.5,1.6,0l19,27.1c0.2,0.2,0.2,0.5,0.2,0.8c-0.1,0.3-0.2,0.5-0.5,0.7l-19,11C87.2,44,87,44,86.9,44z M69.3,31.7
								l17.6,10.1l17.6-10.1l-17.6-25L69.3,31.7z"/>
						</g>
					</g>
				</g>
				<rect x="4" y="4" class="st8" width="120" height="120"/>
				<rect x="4" y="4" class="st8" width="120" height="120"/>
			</g>
		</g>
	</g>
	<g>
		<rect class="st8" width="128" height="128"/>
	</g>
</g>
</svg>
