<?xml version="1.0" encoding="utf-8"?>
<!-- Generator: Adobe Illustrator 24.1.0, SVG Export Plug-In . SVG Version: 6.00 Build 0)  -->
<svg version="1.1" id="Layer_1" xmlns="http://www.w3.org/2000/svg" xmlns:xlink="http://www.w3.org/1999/xlink" x="0px" y="0px"
	 viewBox="0 0 128 128" style="enable-background:new 0 0 128 128;" xml:space="preserve">
<style type="text/css">
	.st0{fill:none;}
	.st1{fill:#185849;}
	.st2{fill:#FFFFFF;}
	.st3{fill:#4D9987;}
	.st4{fill:#C4D7D3;}
	.st5{fill:#27ae60;}
	.st6{fill:#E9EBDF;}
	.st7{fill:#0E352C;}
</style>
<g id="Layer_1_1_">
</g>
<g>
	<g id="Layer_2_1_">
		<g id="New_Illustrations_1_">
			<g>
				<g>
					<rect x="4" y="4" class="st0" width="120" height="120"/>
					<rect x="4" y="4" class="st0" width="120" height="120"/>
				</g>
				<g>
					<g>
						<g>
							<path class="st1" d="M57,121.8c-0.1,0-0.1,0-0.2,0c-0.1,0-0.1,0-0.2-0.1c-0.1,0-0.1-0.1-0.2-0.1c-0.1,0-0.1-0.1-0.1-0.1
								c-0.2-0.2-0.3-0.4-0.3-0.7c0-0.3,0.1-0.5,0.3-0.7c0-0.1,0.1-0.1,0.1-0.1s0.1-0.1,0.2-0.1c0.1,0,0.1,0,0.2-0.1
								c0.1,0,0.3,0,0.4,0c0.1,0,0.1,0,0.2,0.1c0.1,0,0.1,0.1,0.2,0.1l0.1,0.1c0.1,0.1,0.2,0.2,0.2,0.3c0,0.1,0.1,0.2,0.1,0.4
								c0,0.3-0.1,0.5-0.3,0.7l-0.1,0.1c0,0-0.1,0.1-0.2,0.1c-0.1,0-0.1,0-0.2,0.1C57.2,121.8,57.1,121.8,57,121.8z"/>
							<path class="st1" d="M51.6,118.9c-0.5-0.3-0.6-0.9-0.4-1.4l0,0c0.3-0.5,0.9-0.6,1.4-0.4l0,0c0.5,0.3,0.6,0.9,0.4,1.4l0,0
								c-0.2,0.3-0.5,0.5-0.9,0.5l0,0C52,119,51.8,118.9,51.6,118.9z M46.8,116c-0.5-0.3-0.6-0.9-0.4-1.4l0,0
								c0.3-0.5,0.9-0.6,1.4-0.4l0,0c0.5,0.3,0.6,0.9,0.4,1.4l0,0c-0.2,0.3-0.5,0.5-0.9,0.5l0,0C47.1,116.2,46.9,116.1,46.8,116z
								 M41.9,113.2c-0.5-0.3-0.6-0.9-0.4-1.4l0,0c0.3-0.5,0.9-0.6,1.4-0.4l0,0c0.5,0.3,0.6,0.9,0.4,1.4l0,0
								c-0.2,0.3-0.5,0.5-0.9,0.5l0,0C42.2,113.3,42,113.3,41.9,113.2z M37,110.4c-0.5-0.3-0.6-0.9-0.4-1.4l0,0
								c0.3-0.5,0.9-0.6,1.4-0.4l0,0c0.5,0.3,0.6,0.9,0.4,1.4l0,0c-0.2,0.3-0.5,0.5-0.9,0.5l0,0C37.3,110.5,37.2,110.5,37,110.4z
								 M32.1,107.6c-0.5-0.3-0.7-0.9-0.4-1.4l0,0c0.3-0.5,0.9-0.6,1.4-0.4l0,0c0.5,0.3,0.6,0.9,0.4,1.4l0,0
								c-0.2,0.3-0.5,0.5-0.9,0.5l0,0C32.5,107.7,32.3,107.7,32.1,107.6z M27.2,104.8c-0.5-0.3-0.6-0.9-0.4-1.4l0,0
								c0.3-0.5,0.9-0.6,1.4-0.4l0,0c0.5,0.3,0.6,0.9,0.4,1.4l0,0c-0.2,0.3-0.5,0.5-0.9,0.5l0,0C27.6,104.9,27.4,104.8,27.2,104.8z"
								/>
							<path class="st1" d="M22.9,102.1c-0.3,0-0.5-0.1-0.7-0.3c-0.2-0.2-0.3-0.4-0.3-0.7c0-0.1,0-0.3,0.1-0.4s0.1-0.2,0.2-0.3
								c0.1-0.1,0.2-0.2,0.3-0.2c0.4-0.2,0.8-0.1,1.1,0.2c0.1,0.1,0.2,0.2,0.2,0.3c0,0.1,0.1,0.2,0.1,0.4c0,0.3-0.1,0.5-0.3,0.7
								C23.4,102,23.1,102.1,22.9,102.1z"/>
						</g>
						<g>
							<path class="st1" d="M67.5,115.8c-0.3,0-0.5-0.1-0.7-0.3c-0.2-0.2-0.3-0.4-0.3-0.7c0-0.3,0.1-0.5,0.3-0.7
								c0.4-0.4,1-0.4,1.4,0c0.2,0.2,0.3,0.4,0.3,0.7c0,0.3-0.1,0.5-0.3,0.7S67.7,115.8,67.5,115.8z"/>
							<path class="st1" d="M61.4,118.3c-0.3-0.5-0.1-1.1,0.4-1.4l0,0c0.5-0.3,1.1-0.1,1.4,0.4l0,0c0.3,0.5,0.1,1.1-0.4,1.4l0,0
								c-0.2,0.1-0.3,0.1-0.5,0.1l0,0C61.9,118.8,61.6,118.6,61.4,118.3z"/>
							<path class="st1" d="M57,121.8c-0.1,0-0.1,0-0.2,0c-0.1,0-0.1,0-0.2-0.1c-0.1,0-0.1-0.1-0.2-0.1c-0.1,0-0.1-0.1-0.1-0.1
								c-0.2-0.2-0.3-0.4-0.3-0.7c0-0.3,0.1-0.5,0.3-0.7c0-0.1,0.1-0.1,0.1-0.1s0.1-0.1,0.2-0.1c0.1,0,0.1,0,0.2-0.1
								c0.1,0,0.3,0,0.4,0c0.1,0,0.1,0,0.2,0.1c0.1,0,0.1,0.1,0.2,0.1l0.1,0.1c0.1,0.1,0.2,0.2,0.2,0.3c0,0.1,0.1,0.2,0.1,0.4
								c0,0.3-0.1,0.5-0.3,0.7l-0.1,0.1c0,0-0.1,0.1-0.2,0.1c-0.1,0-0.1,0-0.2,0.1C57.2,121.8,57.1,121.8,57,121.8z"/>
						</g>
						<g>
							<g>
								<path class="st2" d="M83.6,9.6l-7.1-4.1l0,0c-0.2-0.1-0.4-0.1-0.7,0L16.5,39.9c-0.6,0.3-1,1.2-1,2v54.3
									c0,0.4,0.1,0.7,0.4,0.8l0,0l7.1,4.1l5.9-11.2l47-31.9c0.6-0.3,1-1.2,1-2V18.6L83.6,9.6z"/>
								<path class="st3" d="M22.9,102.1c-0.2,0-0.3,0-0.5-0.1l-7.1-4.1c-0.1,0-0.1-0.1-0.2-0.1c-0.4-0.3-0.7-0.9-0.7-1.6V41.9
									c0-1.1,0.7-2.3,1.5-2.8L75.4,4.8c0.5-0.3,1-0.3,1.5-0.1c0.1,0,0.1,0,0.2,0.1l7.1,4.1c0.2,0.1,0.4,0.4,0.5,0.7s0,0.6-0.2,0.8
									L78,19.1v37.1c0,1.1-0.7,2.3-1.5,2.8L29.6,90.5l-5.8,11c-0.1,0.2-0.3,0.4-0.6,0.5C23,102.1,22.9,102.1,22.9,102.1z
									 M16.4,96.2l6,3.5l5.5-10.3c0.1-0.1,0.2-0.3,0.3-0.4l47.1-31.8c0.3-0.2,0.6-0.7,0.6-1.1V18.6c0-0.2,0.1-0.4,0.2-0.6l6-8
									l-5.9-3.4L17,40.8c-0.2,0.1-0.5,0.6-0.5,1.1L16.4,96.2L16.4,96.2z M16.3,96.1L16.3,96.1L16.3,96.1z"/>
							</g>
							<path class="st4" d="M22.5,100.9V36.4l-6,3.5c-0.6,0.3-1,1.2-1,2v54.3c0,0.4,0.1,0.7,0.4,0.8l0,0L22.5,100.9z"/>
							<g>
								<path class="st2" d="M82.9,66.7L23.5,101c-0.6,0.3-1,0-1-0.8V46c0-0.8,0.5-1.6,1-2L82.9,9.7c0.6-0.3,1,0,1,0.8v54.3
									C84,65.5,83.5,66.4,82.9,66.7z"/>
								<path class="st5" d="M23.1,102.2c-0.3,0-0.5-0.1-0.8-0.2c-0.5-0.3-0.9-0.9-0.9-1.7V46c0-1.1,0.7-2.3,1.5-2.8L82.4,8.8
									c0.6-0.3,1.2-0.3,1.7-0.1C84.6,9,85,9.6,85,10.4v54.3c0,1.1-0.7,2.3-1.5,2.8L24,101.9C23.7,102.1,23.4,102.2,23.1,102.2z
									 M83,10.8L24,44.9c-0.2,0.1-0.5,0.6-0.5,1.1v53.9l58.9-34l0,0c0.2-0.1,0.5-0.6,0.5-1.1L83,10.8L83,10.8z"/>
							</g>
							<path class="st5" d="M22.5,46c0-0.8,0.5-1.6,1-2L82.9,9.7c0.3-0.1,0.5-0.2,0.7,0l0,0l-7.1-4.1l0,0c-0.2-0.1-0.4-0.1-0.7,0
								L16.5,39.9c-0.6,0.3-1,1.2-1,2v8.2l7.1,4.1V46H22.5z"/>
							<path class="st1" d="M22.5,55.2c-0.2,0-0.3,0-0.5-0.1L14.9,51c-0.3-0.2-0.5-0.5-0.5-0.9v-8.2c0-1.1,0.7-2.3,1.5-2.8L75.4,4.8
								c0.5-0.3,1-0.3,1.5-0.1c0.1,0,0.1,0,0.2,0.1l7.1,4.1c0.2,0.1,0.4,0.4,0.5,0.6c0.1,0.3,0,0.6-0.1,0.8
								c-0.2,0.4-0.7,0.5-1.1,0.4L24,44.9c-0.2,0.1-0.5,0.6-0.5,1.1v8.2c0,0.4-0.2,0.7-0.5,0.9C22.8,55.1,22.7,55.2,22.5,55.2z
								 M16.4,49.5l5.1,2.9V46c0-1.1,0.7-2.3,1.5-2.8L81.3,9.5l-5.1-2.9L17,40.8c-0.2,0.1-0.5,0.6-0.5,1.1v7.6H16.4z"/>
							<path class="st4" d="M22.5,46c0-0.8,0.5-1.6,1-2L82.9,9.7c0.3-0.1,0.5-0.2,0.7,0l0,0l-7.1-4.1l0,0c-0.2-0.1-0.4-0.1-0.7,0
								L16.5,39.9c-0.6,0.3-1,1.2-1,2l0,0L22.5,46L22.5,46z"/>
							<path class="st1" d="M23.1,102.1c-0.2,0-0.4,0-0.6-0.1c-0.1,0-0.1,0-0.2-0.1l-7.1-4.1c-0.1,0-0.1-0.1-0.2-0.1
								c-0.4-0.3-0.7-0.9-0.7-1.6V41.9c0-1.1,0.7-2.3,1.5-2.8L75.4,4.8c0.5-0.3,1-0.3,1.5-0.1c0.1,0,0.1,0,0.2,0.1l7.1,4.1
								c0.1,0,0.1,0.1,0.2,0.1c0.4,0.3,0.7,0.9,0.7,1.6v54.3c0,1.1-0.7,2.3-1.5,2.8L24,101.9C23.7,102.1,23.4,102.1,23.1,102.1z
								 M16.4,96.2l6.7,3.9l59.3-34.2c0.2-0.1,0.5-0.6,0.5-1.1V10.5l0,0l-6.7-3.9L17,40.8c-0.2,0.1-0.5,0.6-0.5,1.1L16.4,96.2
								L16.4,96.2z M16.3,96.1L16.3,96.1L16.3,96.1z M83.1,10.5L83.1,10.5L83.1,10.5z"/>
							<g>
								<path class="st1" d="M84,18.7v-8.2c0-0.8-0.5-1.1-1-0.8L23.5,44c-0.6,0.3-1,1.2-1,2v8.2L84,18.7z"/>
								<path class="st1" d="M22.5,55.2c-0.2,0-0.3,0-0.5-0.1c-0.3-0.2-0.5-0.5-0.5-0.9V46c0-1.1,0.7-2.3,1.5-2.8L82.4,8.8
									c0.6-0.3,1.2-0.3,1.7-0.1C84.6,9,85,9.6,85,10.4v8.2c0,0.4-0.2,0.7-0.5,0.9L23,55C22.8,55.1,22.7,55.2,22.5,55.2z M83,10.8
									L24,44.9c-0.2,0.1-0.5,0.6-0.5,1.1v6.5L83,18.1V10.8z M84,18.7L84,18.7L84,18.7z M83,10.3L83,10.3L83,10.3z"/>
							</g>
							<g>
								
									<ellipse transform="matrix(0.3916 -0.9201 0.9201 0.3916 -19.6591 57.0312)" class="st4" cx="33.3" cy="43.4" rx="1.8" ry="1"/>
								
									<ellipse transform="matrix(0.3916 -0.9201 0.9201 0.3916 -14.6449 59.5609)" class="st2" cx="37.7" cy="40.9" rx="1.8" ry="1"/>
								
									<ellipse transform="matrix(0.3916 -0.9201 0.9201 0.3916 -25.0094 54.4184)" class="st5" cx="28.6" cy="46.1" rx="1.8" ry="1"/>
							</g>
							<g>
								<g>
									<polyline class="st2" points="77.2,58.6 69.4,63.1 61.7,67.5 53.9,72 46.1,76.5 46.1,70.6 46.1,64.6 46.1,58.7 46.1,52.7 
																			"/>
									<path class="st3" d="M46.1,77.5c-0.2,0-0.3,0-0.5-0.1c-0.3-0.2-0.5-0.5-0.5-0.9V52.7c0-0.6,0.4-1,1-1s1,0.4,1,1v22
										l29.6-17.1c0.5-0.3,1.1-0.1,1.4,0.4s0.1,1.1-0.4,1.4l-31.1,18C46.5,77.5,46.3,77.5,46.1,77.5z"/>
								</g>
								<g>
									<polygon class="st6" points="46.1,69 53.9,56.8 61.7,54.9 69.4,45.2 77.2,43.3 77.2,58.6 46.1,76.5 									"/>
									<path class="st3" d="M46.1,77.5c-0.2,0-0.3,0-0.5-0.1c-0.3-0.2-0.5-0.5-0.5-0.9V69c0-0.2,0.1-0.4,0.2-0.5l7.8-12.3
										c0.1-0.2,0.4-0.4,0.6-0.4l7.4-1.8l7.6-9.4c0.1-0.2,0.3-0.3,0.5-0.3l7.8-1.9c0.3-0.1,0.6,0,0.9,0.2c0.2,0.2,0.4,0.5,0.4,0.8
										v15.2c0,0.4-0.2,0.7-0.5,0.9L46.6,77.4C46.5,77.5,46.3,77.5,46.1,77.5z M47.1,69.3v5.4L76.2,58V44.6L70,46.1l-7.6,9.4
										c-0.1,0.2-0.3,0.3-0.5,0.3l-7.4,1.8L47.1,69.3z"/>
								</g>
								<path class="st3" d="M46.1,77.5c-0.2,0-0.3,0-0.5-0.1c-0.3-0.2-0.5-0.5-0.5-0.9V69c0-0.2,0.1-0.4,0.2-0.5l7.8-12.3
									c0.1-0.2,0.4-0.4,0.6-0.4l7.4-1.8l7.6-9.4c0.1-0.2,0.3-0.3,0.5-0.3l7.8-1.9c0.3-0.1,0.6,0,0.9,0.2c0.2,0.2,0.4,0.5,0.4,0.8
									v15.2c0,0.4-0.2,0.7-0.5,0.9L46.6,77.4C46.5,77.5,46.3,77.5,46.1,77.5z M47.1,69.3v5.4L76.2,58V44.6L70,46.1l-7.6,9.4
									c-0.1,0.2-0.3,0.3-0.5,0.3l-7.4,1.8L47.1,69.3z"/>
							</g>
							<g>
								<g>
									<path class="st3" d="M29.3,87.3c-0.2,0-0.3,0-0.5-0.1c-0.3-0.2-0.5-0.5-0.5-0.9V62.5c0-0.4,0.2-0.7,0.5-0.9l11-6.4
										c0.3-0.2,0.7-0.2,1,0s0.5,0.5,0.5,0.9v23.8c0,0.4-0.2,0.7-0.5,0.9l-11,6.4C29.6,87.2,29.4,87.3,29.3,87.3z M30.3,63.1v21.5
										l9-5.2V57.8L30.3,63.1z M40.3,79.9L40.3,79.9L40.3,79.9z"/>
								</g>
								<g>
									<g>
										<polygon class="st2" points="40.3,62.1 40.3,56.1 29.3,62.5 29.3,68.4 										"/>
										<path class="st5" d="M29.3,69.4c-0.2,0-0.3,0-0.5-0.1c-0.3-0.2-0.5-0.5-0.5-0.9v-5.9c0-0.4,0.2-0.7,0.5-0.9l11-6.4
											c0.3-0.2,0.7-0.2,1,0s0.5,0.5,0.5,0.9V62c0,0.4-0.2,0.7-0.5,0.9l-11,6.4C29.6,69.4,29.4,69.4,29.3,69.4z M30.3,63.1v3.6
											l9-5.2v-3.6L30.3,63.1z M40.3,62.1L40.3,62.1L40.3,62.1z"/>
									</g>
								</g>
								<g>
									<g>
										<polygon class="st6" points="40.3,62.1 40.3,56.1 29.3,62.5 29.3,68.4 										"/>
										<path class="st3" d="M29.3,69.4c-0.2,0-0.3,0-0.5-0.1c-0.3-0.2-0.5-0.5-0.5-0.9v-5.9c0-0.4,0.2-0.7,0.5-0.9l11-6.4
											c0.3-0.2,0.7-0.2,1,0s0.5,0.5,0.5,0.9V62c0,0.4-0.2,0.7-0.5,0.9l-11,6.4C29.6,69.4,29.4,69.4,29.3,69.4z M30.3,63.1v3.6
											l9-5.2v-3.6L30.3,63.1z M40.3,62.1L40.3,62.1L40.3,62.1z"/>
									</g>
								</g>
								<g>
									<path class="st3" d="M29.3,69.4c-0.2,0-0.3,0-0.5-0.1c-0.3-0.2-0.5-0.5-0.5-0.9v-5.9c0-0.4,0.2-0.7,0.5-0.9l11-6.4
										c0.3-0.2,0.7-0.2,1,0s0.5,0.5,0.5,0.9V62c0,0.4-0.2,0.7-0.5,0.9l-11,6.4C29.6,69.4,29.4,69.4,29.3,69.4z M30.3,63.1v3.6
										l9-5.2v-3.6L30.3,63.1z M40.3,62.1L40.3,62.1L40.3,62.1z"/>
								</g>
							</g>
						</g>
					</g>
					<g>
						<g>
							<g>
								<g>
									<g>
										<g>
											<path class="st6" d="M95.7,94.4l-11-6.3c-1.4-0.8-3.5-0.8-4.9,0l-11,6.3H52V105c0,0.5,0.3,1,1,1.4l26.8,15.5
												c1.4,0.8,3.5,0.8,4.9,0l26.8-15.5c0.7-0.4,1-0.9,1-1.4V94.4H95.7z"/>
											<path class="st3" d="M82.3,123.5c-1.1,0-2.1-0.2-2.9-0.7l-26.8-15.5c-1-0.6-1.5-1.4-1.5-2.3V94.4c0-0.6,0.4-1,1-1h16.6
												l10.7-6.2c1.7-1,4.2-1,5.9,0L96,93.4h16.6c0.6,0,1,0.4,1,1V105c0,0.9-0.6,1.7-1.5,2.3l-26.8,15.5
												C84.4,123.3,83.3,123.5,82.3,123.5z M53,95.4v9.6c0,0.1,0.2,0.3,0.5,0.5L80.3,121c1,0.6,2.9,0.6,3.9,0l26.8-15.5
												c0.4-0.2,0.5-0.4,0.5-0.5v-9.6H95.7c-0.2,0-0.3,0-0.5-0.1l-11-6.3c-1-0.6-2.9-0.6-3.9,0l-11,6.3
												c-0.2,0.1-0.3,0.1-0.5,0.1H53z"/>
										</g>
										<path class="st3" d="M84.7,121.9l26.8-15.5c0.7-0.4,1-0.9,1-1.4V94.4H95.7l-11-6.3c-0.7-0.4-1.6-0.6-2.4-0.6v35
											C83.2,122.5,84,122.3,84.7,121.9z"/>
										<path class="st3" d="M70.4,112.6c-0.2,0-0.3,0-0.5-0.1l-7.9-4.6c-0.5-0.3-0.6-0.9-0.4-1.4c0.3-0.5,0.9-0.6,1.4-0.4
											l7.9,4.6c0.5,0.3,0.6,0.9,0.4,1.4C71.1,112.4,70.7,112.6,70.4,112.6z"/>
										<g>
											<path class="st2" d="M111.5,93L84.7,77.5c-1.4-0.8-3.5-0.8-4.9,0L53,93c-1.4,0.8-1.4,2,0,2.8l26.8,15.5
												c1.4,0.8,3.5,0.8,4.9,0l26.8-15.5C112.9,95.1,112.9,93.8,111.5,93z"/>
											<path class="st3" d="M82.3,112.9c-1.1,0-2.1-0.2-2.9-0.7L52.5,96.7c-1-0.6-1.5-1.4-1.5-2.3s0.6-1.7,1.5-2.3l26.8-15.5
												c1.7-1,4.2-1,5.9,0L112,92.2l0,0c1,0.6,1.5,1.4,1.5,2.3s-0.6,1.7-1.5,2.3l-26.8,15.5C84.4,112.7,83.3,112.9,82.3,112.9z
												 M82.3,77.9c-0.7,0-1.4,0.1-1.9,0.4L53.5,93.9c-0.4,0.2-0.5,0.4-0.5,0.5s0.2,0.3,0.5,0.5l26.8,15.5c1,0.6,2.9,0.6,3.9,0
												L111,95c0.4-0.2,0.5-0.4,0.5-0.5s-0.2-0.3-0.5-0.5L84.2,78.4C83.7,78.1,83,77.9,82.3,77.9z"/>
										</g>
									</g>
								</g>
								<g>
									<polygon class="st3" points="105.3,110.1 91.1,118.2 91.1,113.3 105.3,105.2 									"/>
									<path class="st6" d="M91.1,119.2c-0.2,0-0.3,0-0.5-0.1c-0.3-0.2-0.5-0.5-0.5-0.9v-4.9c0-0.4,0.2-0.7,0.5-0.9l14.2-8.2
										c0.3-0.2,0.7-0.2,1,0s0.5,0.5,0.5,0.9v4.9c0,0.4-0.2,0.7-0.5,0.9l-14.2,8.2C91.4,119.2,91.3,119.2,91.1,119.2z M92.1,113.9
										v2.6l12.2-7v-2.6L92.1,113.9z M105.3,110.1L105.3,110.1L105.3,110.1z"/>
								</g>
								<path class="st7" d="M82.3,123.5c-1.1,0-2.1-0.3-2.9-0.7l-26.8-15.5c-1-0.6-1.5-1.4-1.5-2.3V94.4c0-0.9,0.6-1.7,1.5-2.3
									l26.8-15.5c1.7-1,4.2-1,5.9,0L112,92.2c1,0.6,1.5,1.4,1.5,2.3V105c0,0.9-0.6,1.7-1.5,2.3l-26.8,15.5
									C84.4,123.2,83.4,123.5,82.3,123.5z M82.3,77.9c-0.7,0-1.4,0.1-1.9,0.4L53.5,93.9c-0.4,0.2-0.5,0.4-0.5,0.5V105
									c0,0.1,0.2,0.3,0.5,0.5L80.3,121c1,0.6,2.9,0.6,3.9,0l26.8-15.5c0.4-0.2,0.5-0.4,0.5-0.5V94.4c0-0.1-0.2-0.3-0.5-0.5l0,0
									L84.2,78.4C83.7,78.1,83,77.9,82.3,77.9z"/>
								<g>
									<ellipse class="st3" cx="105.6" cy="94.4" rx="1.4" ry="0.8"/>
									<ellipse class="st3" cx="82.3" cy="107.9" rx="1.4" ry="0.8"/>
									<ellipse class="st3" cx="82.3" cy="80.9" rx="1.4" ry="0.8"/>
									<ellipse class="st3" cx="58.9" cy="94.4" rx="1.4" ry="0.8"/>
								</g>
							</g>
							<g>
								<g>
									<g>
										<g>
											<path class="st6" d="M95.7,83.9l-11-6.3c-1.4-0.8-3.5-0.8-4.9,0l-11,6.3H52v10.6c0,0.5,0.3,1,1,1.4l26.8,15.5
												c1.4,0.8,3.5,0.8,4.9,0l26.8-15.5c0.7-0.4,1-0.9,1-1.4V83.9H95.7z"/>
											<path class="st3" d="M82.3,112.9c-1.1,0-2.1-0.2-2.9-0.7L52.5,96.7c-1-0.6-1.5-1.4-1.5-2.3V83.9c0-0.6,0.4-1,1-1h16.6
												l10.7-6.2c1.7-1,4.2-1,5.9,0l10.7,6.2h16.6c0.6,0,1,0.4,1,1v10.6c0,0.9-0.6,1.7-1.5,2.3l-26.8,15.5
												C84.4,112.7,83.3,112.9,82.3,112.9z M53,84.9v9.6c0,0.1,0.2,0.3,0.5,0.5l26.8,15.5c1,0.6,2.9,0.6,3.9,0L111,95
												c0.4-0.2,0.5-0.4,0.5-0.5v-9.6H95.7c-0.2,0-0.3,0-0.5-0.1l-11-6.3c-1-0.6-2.9-0.6-3.9,0l-11,6.3
												c-0.2,0.1-0.3,0.1-0.5,0.1H53z"/>
										</g>
										<path class="st3" d="M84.7,111.3l26.8-15.5c0.7-0.4,1-0.9,1-1.4V83.9H95.7l-11-6.3C84,77.2,83.1,77,82.3,77v35
											C83.2,111.9,84,111.7,84.7,111.3z"/>
										<path class="st3" d="M70.4,102c-0.2,0-0.3,0-0.5-0.1L62,97.3c-0.5-0.3-0.6-0.9-0.4-1.4c0.3-0.5,0.9-0.6,1.4-0.4l7.9,4.6
											c0.5,0.3,0.6,0.9,0.4,1.4C71.1,101.8,70.7,102,70.4,102z"/>
										<g>
											<path class="st2" d="M111.5,82.4L84.7,67c-1.4-0.8-3.5-0.8-4.9,0L53,82.4c-1.4,0.8-1.4,2,0,2.8l26.8,15.5
												c1.4,0.8,3.5,0.8,4.9,0l26.8-15.5C112.9,84.5,112.9,83.2,111.5,82.4z"/>
											<path class="st3" d="M82.3,102.3c-1.1,0-2.1-0.2-2.9-0.7L52.5,86.1c-1-0.6-1.5-1.4-1.5-2.3s0.6-1.7,1.5-2.3L79.3,66
												c1.7-1,4.2-1,5.9,0L112,81.6c1,0.6,1.5,1.4,1.5,2.3s-0.6,1.7-1.5,2.3l-26.8,15.5C84.4,102.1,83.3,102.3,82.3,102.3z
												 M82.3,67.4c-0.7,0-1.4,0.1-1.9,0.4L53.5,83.3c-0.4,0.2-0.5,0.4-0.5,0.5s0.2,0.3,0.5,0.5l26.8,15.5c1,0.6,2.9,0.6,3.9,0
												L111,84.4c0.4-0.2,0.5-0.4,0.5-0.5s-0.2-0.3-0.5-0.5L84.2,67.8C83.7,67.5,83,67.4,82.3,67.4z"/>
										</g>
									</g>
								</g>
								<g>
									<polygon class="st3" points="105.3,99.5 91.1,107.7 91.1,102.8 105.3,94.6 									"/>
									<path class="st6" d="M91.1,108.7c-0.2,0-0.3,0-0.5-0.1c-0.3-0.2-0.5-0.5-0.5-0.9v-4.9c0-0.4,0.2-0.7,0.5-0.9l14.2-8.2
										c0.3-0.2,0.7-0.2,1,0s0.5,0.5,0.5,0.9v4.9c0,0.4-0.2,0.7-0.5,0.9l-14.2,8.2C91.4,108.6,91.3,108.7,91.1,108.7z M92.1,103.4
										v2.6l12.2-7v-2.6L92.1,103.4z M105.3,99.5L105.3,99.5L105.3,99.5z"/>
								</g>
								<path class="st7" d="M82.3,112.9c-1.1,0-2.1-0.3-2.9-0.7L52.5,96.7c-1-0.6-1.5-1.4-1.5-2.3V83.9c0-0.9,0.6-1.7,1.5-2.3
									l26.8-15.5c1.7-1,4.2-1,5.9,0L112,81.6l0,0c1,0.6,1.5,1.4,1.5,2.3v10.6c0,0.9-0.6,1.7-1.5,2.3l-26.8,15.5
									C84.4,112.7,83.4,112.9,82.3,112.9z M82.3,67.4c-0.7,0-1.4,0.1-1.9,0.4L53.5,83.3c-0.4,0.2-0.5,0.4-0.5,0.5v10.6
									c0,0.1,0.2,0.3,0.5,0.5l26.8,15.5c1,0.6,2.9,0.6,3.9,0L111,95c0.4-0.2,0.5-0.4,0.5-0.5V83.9c0-0.1-0.2-0.3-0.5-0.5l0,0
									L84.2,67.8C83.7,67.5,83,67.4,82.3,67.4z"/>
								<g>
									<ellipse class="st3" cx="105.6" cy="83.9" rx="1.4" ry="0.8"/>
									<ellipse class="st3" cx="82.3" cy="97.4" rx="1.4" ry="0.8"/>
									<ellipse class="st3" cx="82.3" cy="70.4" rx="1.4" ry="0.8"/>
									<ellipse class="st3" cx="58.9" cy="83.9" rx="1.4" ry="0.8"/>
								</g>
							</g>
							<g>
								<g>
									<g>
										<g>
											<path class="st6" d="M95.7,73.3l-11-6.3c-1.4-0.8-3.5-0.8-4.9,0l-11,6.3H52v10.6c0,0.5,0.3,1,1,1.4l26.8,15.5
												c1.4,0.8,3.5,0.8,4.9,0l26.8-15.5c0.7-0.4,1-0.9,1-1.4V73.3H95.7z"/>
											<path class="st3" d="M82.3,102.3c-1.1,0-2.1-0.2-2.9-0.7L52.5,86.1c-1-0.6-1.5-1.4-1.5-2.3V73.3c0-0.6,0.4-1,1-1h16.6
												l10.7-6.2c1.7-1,4.2-1,5.9,0l10.7,6.2h16.6c0.6,0,1,0.4,1,1v10.6c0,0.9-0.6,1.7-1.5,2.3l-26.8,15.5
												C84.4,102.1,83.3,102.3,82.3,102.3z M53,74.3v9.6c0,0.1,0.2,0.3,0.5,0.5l26.8,15.5c1,0.6,2.9,0.6,3.9,0L111,84.4
												c0.4-0.2,0.5-0.4,0.5-0.5v-9.6H95.7c-0.2,0-0.3,0-0.5-0.1l-11-6.3c-1-0.6-2.9-0.6-3.9,0l-11,6.3
												c-0.2,0.1-0.3,0.1-0.5,0.1H53z"/>
										</g>
										<path class="st3" d="M84.7,100.8l26.8-15.5c0.7-0.4,1-0.9,1-1.4V73.3H95.7l-11-6.3c-0.7-0.4-1.6-0.6-2.4-0.6v35
											C83.2,101.3,84,101.2,84.7,100.8z"/>
										<path class="st3" d="M70.4,91.4c-0.2,0-0.3,0-0.5-0.1L62,86.7c-0.5-0.3-0.6-0.9-0.4-1.4c0.3-0.5,0.9-0.6,1.4-0.4l7.9,4.6
											c0.5,0.3,0.6,0.9,0.4,1.4C71.1,91.2,70.7,91.4,70.4,91.4z"/>
										<g>
											<path class="st2" d="M111.5,71.9L84.7,56.4c-1.4-0.8-3.5-0.8-4.9,0L53,71.9c-1.4,0.8-1.4,2,0,2.8l26.8,15.5
												c1.4,0.8,3.5,0.8,4.9,0l26.8-15.5C112.9,73.9,112.9,72.7,111.5,71.9z"/>
											<path class="st3" d="M82.3,91.8c-1.1,0-2.1-0.2-2.9-0.7L52.5,75.6c-1-0.6-1.5-1.4-1.5-2.3s0.6-1.7,1.5-2.3l26.8-15.5
												c1.7-1,4.2-1,5.9,0L112,71l0,0c1,0.6,1.5,1.4,1.5,2.3s-0.6,1.7-1.5,2.3L85.2,91.1C84.4,91.5,83.3,91.8,82.3,91.8z
												 M82.3,56.8c-0.7,0-1.4,0.1-1.9,0.4L53.5,72.7c-0.4,0.2-0.5,0.4-0.5,0.5s0.2,0.3,0.5,0.5l26.8,15.5c1,0.6,2.9,0.6,3.9,0
												L111,73.8c0.4-0.2,0.5-0.4,0.5-0.5s-0.2-0.3-0.5-0.5L84.2,57.2C83.7,56.9,83,56.8,82.3,56.8z"/>
										</g>
									</g>
								</g>
								<g>
									<polygon class="st3" points="105.3,88.9 91.1,97.1 91.1,92.2 105.3,84 									"/>
									<path class="st6" d="M91.1,98.1c-0.2,0-0.3,0-0.5-0.1c-0.3-0.2-0.5-0.5-0.5-0.9v-4.9c0-0.4,0.2-0.7,0.5-0.9l14.2-8.2
										c0.3-0.2,0.7-0.2,1,0s0.5,0.5,0.5,0.9v4.9c0,0.4-0.2,0.7-0.5,0.9L91.6,98C91.4,98,91.3,98.1,91.1,98.1z M92.1,92.8v2.6
										l12.2-7v-2.6L92.1,92.8z M105.3,88.9L105.3,88.9L105.3,88.9z"/>
								</g>
								<path class="st7" d="M82.3,102.3c-1.1,0-2.1-0.3-2.9-0.7L52.5,86.1c-1-0.6-1.5-1.4-1.5-2.3V73.3c0-0.9,0.6-1.7,1.5-2.3
									l26.8-15.5c1.7-1,4.2-1,5.9,0L112,71c1,0.6,1.5,1.4,1.5,2.3v10.6c0,0.9-0.6,1.7-1.5,2.3l-26.8,15.5
									C84.4,102.1,83.4,102.3,82.3,102.3z M82.3,56.8c-0.7,0-1.4,0.1-1.9,0.4L53.5,72.7c-0.4,0.2-0.5,0.4-0.5,0.5v10.6
									c0,0.1,0.2,0.3,0.5,0.5l26.8,15.5c1,0.6,2.9,0.6,3.9,0L111,84.4c0.4-0.2,0.5-0.4,0.5-0.5V73.3c0-0.1-0.2-0.3-0.5-0.5l0,0
									L84.2,57.2C83.7,56.9,83,56.8,82.3,56.8z"/>
								<g>
									<ellipse class="st3" cx="105.6" cy="73.3" rx="1.4" ry="0.8"/>
									<ellipse class="st3" cx="82.3" cy="86.8" rx="1.4" ry="0.8"/>
									<ellipse class="st3" cx="82.3" cy="59.8" rx="1.4" ry="0.8"/>
									<ellipse class="st3" cx="58.9" cy="73.3" rx="1.4" ry="0.8"/>
								</g>
							</g>
						</g>
					</g>
				</g>
			</g>
		</g>
	</g>
	<g>
		<rect class="st0" width="128" height="128"/>
	</g>
</g>
</svg>
