<?xml version="1.0" encoding="utf-8"?>
<!-- Generator: Adobe Illustrator 24.1.0, SVG Export Plug-In . SVG Version: 6.00 Build 0)  -->
<svg version="1.1" id="Layer_1" xmlns="http://www.w3.org/2000/svg" xmlns:xlink="http://www.w3.org/1999/xlink" x="0px" y="0px"
	 viewBox="0 0 128 128" style="enable-background:new 0 0 128 128;" xml:space="preserve">
<style type="text/css">
	.st0{fill:none;}
	.st1{fill:#C4D7D3;}
	.st2{fill:#27ae60;}
	.st3{fill:#FFFFFF;}
	.st4{fill:#4D9987;}
	.st5{fill:#E9EBDF;}
	.st6{fill:#0E352C;}
</style>
<g id="Layer_1_1_">
</g>
<g>
	<g id="Layer_2_1_">
		<g id="Objects_1_">
			<g>
				<rect x="3.5" y="4" class="st0" width="120" height="120"/>
				<g>
					<g>
						<g>
							<g>
								<path class="st1" d="M115.2,58.4c2.5-1.4,5-2.9,7.4-4.3c-2.4-1.4-5.8-3.4-9.5-5.5c3.3-1.9,6.4-3.7,8.9-5.2
									c-9.9-5.7-22.6-13.1-34-19.8C65,36.9,22.2,61.9,22.2,61.9L50.4,85c0,0,13.7-8,29.8-17.3c1.3,0.7,2.4,1.4,3.3,1.9
									c2.4-1.4,4.4-2.6,5.8-3.4c-0.8-0.5-1.9-1.1-3.3-1.9c1.5-0.9,3-1.8,4.5-2.6c3.4,2,6.6,3.9,9.5,5.5c3.9-2.3,8-4.6,12-7
									c-2.9-1.7-6.2-3.6-9.5-5.5c1-0.6,2-1.2,3-1.8C109.4,55.1,112.8,57,115.2,58.4z"/>
								<path class="st1" d="M50.4,86c-0.2,0-0.5-0.1-0.6-0.2L21.5,62.6c-0.3-0.2-0.4-0.5-0.4-0.9c0-0.3,0.2-0.6,0.5-0.8l65.7-38.2
									c0.3-0.2,0.7-0.2,1,0l34,19.8c0.3,0.2,0.5,0.5,0.5,0.9s-0.2,0.7-0.5,0.9l-7.4,4.3l8,4.7c0.3,0.2,0.5,0.5,0.5,0.9
									s-0.2,0.7-0.5,0.9l-7.4,4.3c-0.3,0.2-0.7,0.2-1,0l-9-5.2l-1,0.6l8,4.7c0.3,0.2,0.5,0.5,0.5,0.9s-0.2,0.7-0.5,0.9l-12,7
									c-0.3,0.2-0.7,0.2-1,0l-9-5.2L88,64.6l1.8,1c0.3,0.2,0.5,0.5,0.5,0.9s-0.2,0.7-0.5,0.9L84,70.5c-0.3,0.2-0.7,0.2-1,0
									l-2.8-1.6l-29.3,17C50.8,85.9,50.6,86,50.4,86z M23.9,62l26.6,21.8l29.2-17c0.3-0.2,0.7-0.2,1,0l2.8,1.6l3.9-2.2l-1.8-1
									c-0.3-0.2-0.5-0.5-0.5-0.9s0.2-0.7,0.5-0.9l4.5-2.6c0.3-0.2,0.7-0.2,1,0l9,5.2l10-5.8l-8-4.7c-0.3-0.2-0.5-0.5-0.5-0.9
									s0.2-0.7,0.5-0.9l3-1.8c0.3-0.2,0.7-0.2,1,0l9,5.2l5.4-3.1l-8-4.7c-0.3-0.2-0.5-0.5-0.5-0.9s0.2-0.7,0.5-0.9l7.4-4.3
									l-32-18.6L23.9,62z"/>
							</g>
							<path class="st2" d="M50.3,86.2L20.4,61.7l67.4-39.2l36,20.9l-8.9,5.2l9.5,5.5l-9.3,5.4l-9.5-5.5l-1,0.6l9.5,5.5l-14,8.1
								l-9.5-5.5l-2.5,1.5l3.3,1.9l-7.8,4.6l-3.3-1.9L50.3,86.2z M23.9,62l26.6,21.8l29.7-17.3l3.3,1.9l3.9-2.2l-3.3-1.9l6.5-3.8
								l9.5,5.5l10-5.8l-9.5-5.5l5-2.9l9.5,5.5l5.4-3.1l-9.5-5.5l8.9-5.2l-32-18.6L23.9,62z"/>
						</g>
						<path class="st2" d="M61.7,69.5c-0.4,0-0.9-0.1-1.2-0.3l-13.4-7.7c-0.5-0.3-0.8-0.8-0.8-1.3s0.3-1,0.8-1.3l13.2-7.6
							c0.7-0.4,1.8-0.4,2.5,0L76.1,59c0.5,0.3,0.8,0.8,0.8,1.3s-0.3,1-0.8,1.3l-13.2,7.6C62.6,69.4,62.1,69.5,61.7,69.5z M48.9,60.2
							l12.6,7.3c0.1,0.1,0.4,0.1,0.5,0l12.4-7.2L61.7,53c-0.1-0.1-0.4-0.1-0.5,0L48.9,60.2z M75.1,59.8L75.1,59.8L75.1,59.8z"/>
						<path class="st2" d="M86.7,55.3c-0.3,0-0.7-0.1-1-0.2l-8.4-4.8c-0.4-0.2-0.7-0.7-0.7-1.1s0.3-0.9,0.7-1.1l8.2-4.8
							c0.6-0.3,1.4-0.3,1.9,0l8.4,4.8c0.4,0.2,0.7,0.7,0.7,1.1c0,0.5-0.3,0.9-0.7,1.1l-8.2,4.8C87.4,55.3,87,55.3,86.7,55.3z
							 M79.4,49.1l7.3,4.2l7.1-4.2L86.5,45L79.4,49.1z M78.4,49.7L78.4,49.7L78.4,49.7z M94.9,48.6L94.9,48.6L94.9,48.6z"/>
						<path class="st2" d="M102.7,44.8c-0.3,0-0.5-0.1-0.7-0.2l-4.4-2.5c-0.4-0.2-0.6-0.6-0.6-1s0.2-0.8,0.6-1l4.3-2.5
							c0.4-0.3,1-0.3,1.5,0l4.4,2.5c0.4,0.2,0.6,0.6,0.6,1s-0.2,0.8-0.6,1l-4.3,2.5C103.2,44.8,103,44.8,102.7,44.8z M102.4,42.9
							L102.4,42.9L102.4,42.9z M103,42.9L103,42.9L103,42.9z M99.9,41.1l2.8,1.6l2.8-1.6l-2.8-1.6L99.9,41.1z"/>
						
							<rect x="66.5" y="51" transform="matrix(0.8644 -0.5029 0.5029 0.8644 -16.2769 43.5846)" class="st2" width="12.3" height="2"/>
						
							<rect x="91.6" y="43.8" transform="matrix(0.8644 -0.5029 0.5029 0.8644 -9.482 54.4583)" class="st2" width="9.2" height="2"/>
						<polygon class="st2" points="70.2,43.3 69.2,41.6 80.7,34.9 100.8,38.5 100.5,40.5 81.1,37 						"/>
						<path class="st2" d="M118.8,57.3c-0.2,0-0.3,0-0.5-0.1l-5.1-2.9c-0.5-0.3-0.6-0.9-0.4-1.4c0.3-0.5,0.9-0.6,1.4-0.4l5.1,2.9
							c0.5,0.3,0.6,0.9,0.4,1.4C119.5,57.1,119.2,57.3,118.8,57.3z"/>
						<path class="st2" d="M108.1,63.5c-0.2,0-0.3,0-0.5-0.1l-5.1-2.9c-0.5-0.3-0.6-0.9-0.4-1.4c0.3-0.5,0.9-0.6,1.4-0.4l5.1,2.9
							c0.5,0.3,0.6,0.9,0.4,1.4C108.8,63.3,108.5,63.5,108.1,63.5z"/>
						<path class="st2" d="M104.1,65.8c-0.2,0-0.3,0-0.5-0.1l-5.1-2.9c-0.5-0.3-0.6-0.9-0.4-1.4c0.3-0.5,0.9-0.6,1.4-0.4l5.1,2.9
							c0.5,0.3,0.6,0.9,0.4,1.4C104.8,65.7,104.5,65.8,104.1,65.8z"/>
					</g>
					<g>
						<g>
							<g>
								<g>
									<polygon class="st3" points="30.5,63.7 46.2,54.5 56.2,60.3 40.6,69.5 									"/>
									<path class="st4" d="M40.6,70.5c-0.2,0-0.3,0-0.5-0.1l-10-5.8c-0.3-0.2-0.5-0.5-0.5-0.9s0.2-0.7,0.5-0.9l15.7-9.1
										c0.3-0.2,0.7-0.2,1,0l10,5.8c0.3,0.2,0.5,0.5,0.5,0.9s-0.2,0.7-0.5,0.9l-15.7,9.1C40.9,70.4,40.7,70.5,40.6,70.5z
										 M32.5,63.7l8,4.6l13.7-8l-8-4.6L32.5,63.7z"/>
								</g>
							</g>
							<g>
								<g>
									<polygon class="st4" points="40.6,69.5 56.2,60.3 56.2,71.9 40.5,81 									"/>
									<path class="st4" d="M40.5,82c-0.2,0-0.3,0-0.5-0.1c-0.3-0.2-0.5-0.5-0.5-0.9V69.5c0-0.4,0.2-0.7,0.5-0.9l15.7-9.1
										c0.3-0.2,0.7-0.2,1,0s0.5,0.5,0.5,0.9v11.5c0,0.4-0.2,0.7-0.5,0.9L41,81.9C40.9,82,40.7,82,40.5,82z M41.6,70v9.2l13.7-7.9
										v-9.2L41.6,70z"/>
								</g>
							</g>
							<g>
								<g>
									<polygon class="st5" points="40.6,69.5 40.5,81 38.2,79.7 32.8,76.5 30.5,75.2 30.5,63.7 									"/>
									<path class="st4" d="M40.5,82c-0.2,0-0.3,0-0.5-0.1l-10-5.8c-0.3-0.2-0.5-0.5-0.5-0.9V63.7c0-0.4,0.2-0.7,0.5-0.9
										s0.7-0.2,1,0l10,5.8c0.3,0.2,0.5,0.5,0.5,0.9V81c0,0.4-0.2,0.7-0.5,0.9C40.9,82,40.7,82,40.5,82z M31.5,74.6l8,4.6V70
										l-8-4.6V74.6z"/>
								</g>
							</g>
							<path class="st6" d="M40.5,82c-0.2,0-0.3,0-0.5-0.1c-0.3-0.2-0.5-0.5-0.5-0.9V70L30,64.5c-0.3-0.2-0.5-0.5-0.5-0.9
								s0.2-0.7,0.5-0.9l15.7-9.1c0.3-0.2,0.7-0.2,1,0l10,5.8c0.3,0.2,0.5,0.5,0.5,0.9v11.5c0,0.4-0.2,0.7-0.5,0.9L41,81.9
								C40.9,82,40.7,82,40.5,82z M32.5,63.7l8.6,4.9c0.3,0.2,0.5,0.5,0.5,0.9v9.8l13.7-7.9V61l-9-5.2L32.5,63.7z"/>
						</g>
						<g>
							<g>
								<polygon class="st4" points="36,76 36,76.9 36,77.7 34.6,76.9 34.6,76 34.6,75.2 								"/>
							</g>
							<g>
								<polygon class="st4" points="36.8,74 36.8,76.6 36.8,77.4 36.1,77 34.6,76.1 33.9,75.7 33.9,72.3 								"/>
							</g>
							<g>
								<polygon class="st4" points="38.3,71.2 38.2,77.5 37,76.7 34.1,75.1 32.8,74.3 32.8,68.1 								"/>
							</g>
						</g>
					</g>
					<g>
						<path class="st4" d="M22.2,65.4c0,0,25.9,15,34.4,20C59,84,61,82.8,62.4,82c-6-3.5-32.5-18.9-32.5-18.9L22.2,65.4z"/>
						<path class="st4" d="M56.5,86.4c-0.2,0-0.3,0-0.5-0.1l-34.4-20c-0.3-0.2-0.5-0.6-0.5-1s0.3-0.7,0.7-0.8l7.7-2.3
							c0.3-0.1,0.5,0,0.8,0.1l32.5,18.9c0.3,0.2,0.5,0.5,0.5,0.9s-0.2,0.7-0.5,0.9L57,86.3C56.9,86.4,56.7,86.4,56.5,86.4z
							 M24.7,65.7l31.9,18.5l3.9-2.2L29.7,64.2L24.7,65.7z"/>
					</g>
					<g>
						<path class="st5" d="M59.7,74.1c5.9,3.4,10,5.8,10,5.8l5.7,10.2l5.9,3.3v10.9l-5.9-3.4l-5.7,1.9L18.3,73.1
							c-1.6-0.9-3.6-0.9-5.2,0l-0.6,0.4V70c0-1.2-0.9-1.7-1.9-1.1c-1.1,0.6-1.9,2.1-1.9,3.3v3.5c-1.4,0.8-2.7,1.6-4.2,2.4v-8.4
							l3.2-1.9v-6.7l-3.2,1.8V55c2.2-1.3,5.8-3.4,8.6-5.1c1.6-0.9,3.6-1,5.1,0L59.7,74.1z"/>
						<path class="st4" d="M81.3,105.3c-0.2,0-0.3,0-0.5-0.1l-5.5-3.2l-5.3,1.8c-0.3,0.1-0.6,0.1-0.8-0.1L17.8,74
							c-1.3-0.7-2.9-0.7-4.2,0L13,74.4c-0.3,0.2-0.7,0.2-1,0s-0.5-0.5-0.5-0.9V70c0-0.2-0.1-0.3-0.1-0.4c0,0-0.1,0-0.3,0.1
							c-0.8,0.4-1.4,1.6-1.4,2.4v3.5c0,0.4-0.2,0.7-0.5,0.9L5,79c-0.3,0.2-0.7,0.2-1,0s-0.5-0.5-0.5-0.9v-8.4c0-0.4,0.2-0.7,0.5-0.9
							l2.7-1.6V63L5,64c-0.3,0.2-0.7,0.2-1,0c-0.3-0.2-0.5-0.5-0.5-0.9v-7.9c0-0.4,0.2-0.7,0.5-0.9c2.2-1.3,5.8-3.4,8.6-5
							c1.9-1.1,4.3-1.1,6.2,0l41.4,23.9l0,0l10,5.8c0.2,0.1,0.3,0.2,0.4,0.4l5.6,10l5.7,3.1c0.3,0.2,0.5,0.5,0.5,0.9v10.9
							c0,0.4-0.2,0.7-0.5,0.9C81.7,105.3,81.5,105.3,81.3,105.3z M75.4,99.9c0.2,0,0.3,0,0.5,0.1l4.4,2.6V94l-5.4-3
							c-0.2-0.1-0.3-0.2-0.4-0.4l-5.6-10L17.7,51c-1.3-0.7-2.9-0.7-4.1,0c-2.6,1.6-5.9,3.5-8.1,4.8v5.6l1.8-1c0.3-0.2,0.7-0.2,1,0
							s0.5,0.5,0.5,0.9V68c0,0.4-0.2,0.7-0.5,0.9l-2.7,1.6v6l2.2-1.2v-2.9c0-1.6,1-3.4,2.4-4.2c0.8-0.5,1.7-0.5,2.4-0.1
							s1.1,1.1,1.1,2.1V72c1.7-0.7,3.7-0.6,5.3,0.4l51,29.5l5.3-1.8C75.2,99.9,75.3,99.9,75.4,99.9z"/>
					</g>
					<path class="st4" d="M15.6,50.1c-1-0.1-1.9,0.2-2.8,0.7c-2.7,1.6-6.2,3.7-8.3,4.9v7.6l3.2-1.8V68l-3.2,1.8v8.1
						c1.4-0.8,2.7-1.6,4-2.3v-3.4c0-1.2,0.8-2.6,1.8-3.2s1.9-0.1,1.9,1.1v3.4l0.6-0.4c0.8-0.5,1.8-0.7,2.8-0.7V50.1z"/>
					<g>
						<g>
							<g>
								<g>
									<polygon class="st3" points="40.8,67.8 40.8,82 38.9,80.8 32.2,76.9 29.3,75.3 29.4,61.1 									"/>
									<path class="st4" d="M40.8,83c-0.2,0-0.4-0.1-0.5-0.2l-1.9-1.2l-9.5-5.5c-0.3-0.2-0.5-0.5-0.5-0.9V61
										c0-0.4,0.2-0.7,0.5-0.9s0.7-0.2,1,0l11.4,6.7c0.3,0.2,0.5,0.5,0.5,0.9v14.2c0,0.4-0.2,0.7-0.5,0.9
										C41.1,82.9,40.9,83,40.8,83z M30.3,74.7l9.4,5.5V68.4l-9.4-5.5L30.3,74.7z"/>
								</g>
							</g>
						</g>
						<g>
							<g>
								<path class="st6" d="M36.4,72.9V76c0,0.1-0.2,0.2-0.3,0.2l-2.6-1.5c-0.1,0-0.1-0.1-0.1-0.2v-3.3L36.4,72.9z"/>
							</g>
							<g>
								<path class="st6" d="M37.6,69.5v5c0,0.1-0.2,0.2-0.3,0.2l-4.5-2.6c-0.1-0.1-0.2-0.2-0.2-0.3v-5c0-0.1,0.2-0.2,0.3-0.2
									l4.5,2.6C37.5,69.3,37.6,69.4,37.6,69.5z"/>
							</g>
						</g>
					</g>
					<path class="st6" d="M81.3,105.3c-0.2,0-0.3,0-0.5-0.1l-5.5-3.2l-5.3,1.8c-0.3,0.1-0.6,0.1-0.8-0.1L17.8,74
						c-1.3-0.7-2.9-0.7-4.2,0L13,74.4c-0.3,0.2-0.7,0.2-1,0s-0.5-0.5-0.5-0.9V70c0-0.2-0.1-0.3-0.1-0.4c0,0-0.1,0-0.3,0.1
						c-0.8,0.4-1.4,1.6-1.4,2.4v3.5c0,0.4-0.2,0.7-0.5,0.9L5,79c-0.3,0.2-0.7,0.2-1,0s-0.5-0.5-0.5-0.9v-8.4c0-0.4,0.2-0.7,0.5-0.9
						l2.7-1.6V63L5,64c-0.3,0.2-0.7,0.2-1,0c-0.3-0.2-0.5-0.5-0.5-0.9v-7.9c0-0.4,0.2-0.7,0.5-0.9c2.2-1.3,5.8-3.4,8.6-5
						c1.9-1.1,4.3-1.1,6.2,0l41.4,23.9l0,0l10,5.8c0.2,0.1,0.3,0.2,0.4,0.4l5.6,10l5.7,3.1c0.3,0.2,0.5,0.5,0.5,0.9v10.9
						c0,0.4-0.2,0.7-0.5,0.9C81.7,105.3,81.5,105.3,81.3,105.3z M75.4,99.9c0.2,0,0.3,0,0.5,0.1l4.4,2.6V94l-5.4-3
						c-0.2-0.1-0.3-0.2-0.4-0.4l-5.6-10L17.7,51c-1.3-0.7-2.9-0.7-4.1,0c-2.6,1.6-5.9,3.5-8.1,4.8v5.6l1.8-1c0.3-0.2,0.7-0.2,1,0
						s0.5,0.5,0.5,0.9V68c0,0.4-0.2,0.7-0.5,0.9l-2.7,1.6v6l2.2-1.2v-2.9c0-1.6,1-3.4,2.4-4.2c0.8-0.5,1.7-0.5,2.4-0.1
						s1.1,1.1,1.1,2.1V72c1.7-0.7,3.7-0.6,5.3,0.4l51,29.5l5.3-1.8C75.2,99.9,75.3,99.9,75.4,99.9z"/>
					<g>
						<path class="st2" d="M67.2,46.7c-1.1,0-2.2-0.3-3.1-0.8c-1-0.6-1.6-1.4-1.6-2.4c0-0.9,0.6-1.8,1.6-2.4c1.7-1,4.4-1,6.2,0
							c1,0.6,1.6,1.4,1.6,2.4c0,0.9-0.6,1.8-1.6,2.4C69.4,46.4,68.3,46.7,67.2,46.7z M67.2,42.4c-0.8,0-1.5,0.2-2.1,0.5
							c-0.4,0.2-0.6,0.5-0.6,0.6s0.2,0.4,0.6,0.6c1.1,0.6,3.1,0.6,4.2,0c0.4-0.2,0.6-0.5,0.6-0.6s-0.2-0.4-0.6-0.6l0,0
							C68.7,42.6,67.9,42.4,67.2,42.4z"/>
					</g>
				</g>
			</g>
		</g>
	</g>
	<g>
		<rect class="st0" width="128" height="128"/>
	</g>
</g>
</svg>
