<?xml version="1.0" encoding="utf-8"?>
<!-- Generator: Adobe Illustrator 24.1.0, SVG Export Plug-In . SVG Version: 6.00 Build 0)  -->
<svg version="1.1" id="Layer_1" xmlns="http://www.w3.org/2000/svg" xmlns:xlink="http://www.w3.org/1999/xlink" x="0px" y="0px"
	 viewBox="0 0 128 128" style="enable-background:new 0 0 128 128;" xml:space="preserve">
<style type="text/css">
	.st0{fill:#C4D7D3;}
	.st1{fill:#27ae60;}
	.st2{fill:#FFFFFF;}
	.st3{fill:#185849;}
	.st4{fill:#E9EBDF;}
	.st5{fill:#4D9987;}
	.st6{fill:#0E352C;}
	.st7{fill:none;}
</style>
<g id="Layer_1_1_">
</g>
<g>
	<g id="Layer_2_1_">
		<g id="Industries_1_">
			<g>
				<g>
					<g>
						<polygon class="st0" points="24.6,105.1 72.5,76.4 103.4,95.3 55.5,123 						"/>
						<path class="st1" d="M55.5,124c-0.2,0-0.3,0-0.5-0.1L24,106c-0.3-0.2-0.5-0.5-0.5-0.9s0.2-0.7,0.5-0.9l48-28.6
							c0.3-0.2,0.7-0.2,1,0l31,18.9c0.3,0.2,0.5,0.5,0.5,0.9s-0.2,0.7-0.5,0.9l-48,27.6C55.9,124,55.7,124,55.5,124z M26.5,105.1
							l29,16.7l46-26.5l-29-17.7L26.5,105.1z"/>
					</g>
					<g>
						<polygon class="st2" points="24.6,97.9 72.5,70.2 103.4,88.1 55.5,115.8 						"/>
						<path class="st1" d="M55.5,116.8c-0.2,0-0.3,0-0.5-0.1L24,98.8c-0.3-0.2-0.5-0.5-0.5-0.9s0.2-0.7,0.5-0.9l48-27.6
							c0.3-0.2,0.7-0.2,1,0l31,17.9c0.3,0.2,0.5,0.5,0.5,0.9s-0.2,0.7-0.5,0.9l-48,27.5C55.9,116.7,55.7,116.8,55.5,116.8z
							 M26.6,97.9l29,16.7l45.9-26.5l-29-16.7L26.6,97.9z"/>
					</g>
					<g>
						<polygon class="st1" points="103.4,88.1 103.4,95.3 55.5,123 55.5,115.8 						"/>
						<path class="st1" d="M55.5,124c-0.2,0-0.3,0-0.5-0.1c-0.3-0.2-0.5-0.5-0.5-0.9v-7.2c0-0.4,0.2-0.7,0.5-0.9l47.9-27.7
							c0.3-0.2,0.7-0.2,1,0s0.5,0.5,0.5,0.9v7.2c0,0.4-0.2,0.7-0.5,0.9L56,123.9C55.9,124,55.7,124,55.5,124z M56.5,116.4v4.9
							l45.9-26.5v-4.9L56.5,116.4z"/>
					</g>
					<g>
						<polygon class="st0" points="24.6,97.9 24.6,105.1 55.5,123 55.5,115.8 						"/>
						<path class="st1" d="M55.5,124c-0.2,0-0.3,0-0.5-0.1L24,106c-0.3-0.2-0.5-0.5-0.5-0.9v-7.2c0-0.4,0.2-0.7,0.5-0.9s0.7-0.2,1,0
							l31,17.9c0.3,0.2,0.5,0.5,0.5,0.9v7.2c0,0.4-0.2,0.7-0.5,0.9C55.9,124,55.7,124,55.5,124z M25.6,104.5l29,16.7v-4.9l-29-16.7
							C25.6,99.6,25.6,104.5,25.6,104.5z"/>
					</g>
					<path class="st3" d="M55.5,124c-0.2,0-0.3,0-0.5-0.1L24,106c-0.3-0.2-0.5-0.5-0.5-0.9v-7.2c0-0.4,0.2-0.7,0.5-0.9l48-27.6
						c0.3-0.2,0.7-0.2,1,0l31,17.9c0.3,0.2,0.5,0.5,0.5,0.9v7.2c0,0.4-0.2,0.7-0.5,0.9l-48,27.6C55.9,124,55.7,124,55.5,124z
						 M25.6,104.5l30,17.3l46.9-27.1v-6.1l-30-17.3L25.6,98.5V104.5z"/>
					<g>
						<g>
							<path class="st4" d="M72.5,61.9l16.6-45.8L70.5,5.4l0,0c-1-0.6-2.3-0.5-3.7,0.3l-24.2,14c-3.1,1.8-5.6,6.6-5.6,10.8V98
								l18.5,10.7l9.8-27.1l7.1-4.1L72.5,61.9L72.5,61.9z"/>
							<path class="st5" d="M55.5,109.6c-0.2,0-0.3,0-0.5-0.1L36.5,98.8c-0.3-0.2-0.5-0.5-0.5-0.9V30.4c0-4.5,2.7-9.6,6.1-11.6
								l24.2-14c1.6-0.9,3.2-1.1,4.6-0.4c0,0,0.1,0,0.1,0.1l18.5,10.7c0.4,0.2,0.6,0.8,0.4,1.2L73.5,62.1v15.4
								c0,0.4-0.2,0.7-0.5,0.9l-6.8,3.9L56.5,109c-0.1,0.3-0.3,0.5-0.6,0.6C55.8,109.6,55.6,109.6,55.5,109.6z M38,97.3l17,9.8
								l9.4-26c0.1-0.2,0.2-0.4,0.4-0.5l6.6-3.8v-15c0-0.1,0-0.2,0.1-0.3l16.3-45L70.1,6.3c0,0-0.1,0-0.1-0.1
								c-0.9-0.5-2-0.1-2.7,0.3l-24.2,14c-2.8,1.6-5.1,6.1-5.1,9.9C38,30.4,38,97.3,38,97.3z M72.5,77.4L72.5,77.4L72.5,77.4z"/>
						</g>
						<polygon class="st2" points="37,90.6 37,97.9 55.5,108.6 55.5,101.3 						"/>
						<path class="st2" d="M70.5,5.4c-1-0.6-2.3-0.5-3.7,0.3l-24.2,14c-1.8,1.1-3.4,3.2-4.5,5.5l39.4,22.7L89,16L70.5,5.4L70.5,5.4z
							"/>
						<path class="st5" d="M55.5,109.6c-0.2,0-0.3,0-0.5-0.1L36.5,98.8c-0.3-0.2-0.5-0.5-0.5-0.9V30.4c0-4.5,2.7-9.6,6.1-11.6
							l24.2-14c1.6-0.9,3.2-1.1,4.6-0.4c0,0,0.1,0,0.1,0.1l18.5,10.7c0.4,0.2,0.6,0.8,0.4,1.2L73.5,62.1v15.4c0,0.4-0.2,0.7-0.5,0.9
							l-6.8,3.9L56.5,109c-0.1,0.3-0.3,0.5-0.6,0.6C55.8,109.6,55.6,109.6,55.5,109.6z M38,97.3l17,9.8l9.4-26
							c0.1-0.2,0.2-0.4,0.4-0.5l6.6-3.8v-15c0-0.1,0-0.2,0.1-0.3l16.3-45L70.1,6.3c0,0-0.1,0-0.1-0.1c-0.9-0.5-2-0.1-2.7,0.3
							l-24.2,14c-2.8,1.6-5.1,6.1-5.1,9.9C38,30.4,38,97.3,38,97.3z M72.5,77.4L72.5,77.4L72.5,77.4z"/>
						<g>
							<path class="st5" d="M91,88.1l-35.5,20.5V41.1c0-4.1,2.5-9,5.6-10.8l24.2-14c3.1-1.8,5.6,0.1,5.6,4.3L91,88.1L91,88.1z"/>
							<path class="st5" d="M55.5,109.6c-0.2,0-0.3,0-0.5-0.1c-0.3-0.2-0.5-0.5-0.5-0.9V41.1c0-4.5,2.7-9.6,6.1-11.6l24.2-14
								c1.7-1,3.3-1.1,4.7-0.3c1.6,0.9,2.4,2.9,2.4,5.4v67.5c0,0.4-0.2,0.7-0.5,0.9L56,109.5C55.9,109.6,55.7,109.6,55.5,109.6z
								 M87.6,16.7c-0.6,0-1.2,0.3-1.7,0.5l-24.2,14c-2.8,1.6-5.1,6.1-5.1,9.9v65.7L90,87.5V20.6c0-1.8-0.5-3.2-1.4-3.7
								C88.3,16.8,87.9,16.7,87.6,16.7z M91,88.1L91,88.1L91,88.1z"/>
						</g>
						<g>
							<path class="st2" d="M82.2,46.8L64.4,57.1C62.8,58,61.6,57,61.6,55V41.7c0-2.1,1.3-4.5,2.8-5.4L82.2,26
								c1.6-0.9,2.8,0.1,2.8,2.1v13.2C85,43.5,83.7,45.9,82.2,46.8z"/>
							<path class="st4" d="M63.2,58.4c-0.4,0-0.8-0.1-1.2-0.3c-0.9-0.5-1.5-1.7-1.5-3.1V41.7c0-2.4,1.5-5.2,3.3-6.2l17.8-10.3
								c1-0.6,2-0.6,2.8-0.1c0.9,0.5,1.5,1.7,1.5,3.1v13.2c0,2.4-1.5,5.2-3.3,6.2L64.9,57.9C64.3,58.2,63.8,58.4,63.2,58.4z
								 M83.3,26.7c-0.2,0-0.5,0.1-0.6,0.2L64.9,37.2c-1.3,0.7-2.3,2.8-2.3,4.5v13.2c0,0.8,0.3,1.3,0.5,1.4c0.3,0.1,0.6,0,0.8-0.1
								l17.8-10.3l0,0c1.3-0.7,2.3-2.8,2.3-4.5V28.2c0-0.8-0.3-1.3-0.5-1.4C83.5,26.7,83.4,26.7,83.3,26.7z"/>
						</g>
						<polygon class="st4" points="91,80.8 55.5,101.3 55.5,108.6 91,88.1 						"/>
						<path class="st5" d="M55.5,109.6c-0.2,0-0.3,0-0.5-0.1c-0.3-0.2-0.5-0.5-0.5-0.9V41.1c0-4.5,2.7-9.6,6.1-11.6l24.2-14
							c1.7-1,3.3-1.1,4.7-0.3c1.6,0.9,2.4,2.9,2.4,5.4v67.5c0,0.4-0.2,0.7-0.5,0.9L56,109.5C55.9,109.6,55.7,109.6,55.5,109.6z
							 M87.6,16.7c-0.6,0-1.2,0.3-1.7,0.5l-24.2,14c-2.8,1.6-5.1,6.1-5.1,9.9v65.7L90,87.5V20.6c0-1.8-0.5-3.2-1.4-3.7
							C88.3,16.8,87.9,16.7,87.6,16.7z M91,88.1L91,88.1L91,88.1z"/>
						<path class="st6" d="M55.5,109.6c-0.2,0-0.3,0-0.5-0.1L36.5,98.8c-0.3-0.2-0.5-0.5-0.5-0.9V30.4c0-3,1.3-6.5,3.3-9.1l0.1-0.1
							c0.2-0.2,0.4-0.4,0.5-0.6l0.2-0.2c0.2-0.2,0.3-0.3,0.5-0.5l0.2-0.2c0.2-0.1,0.3-0.3,0.5-0.4l0.2-0.2c0.2-0.2,0.5-0.3,0.7-0.5
							l24.2-14c0.3-0.2,0.6-0.3,1-0.5c0.5-0.2,1-0.3,1.5-0.3c0.4,0,0.8,0,1.2,0.1c0.2,0,0.4,0.1,0.6,0.2c0.1,0.1,0.3,0.1,0.4,0.2
							c0,0,0.1,0,0.1,0.1l18.5,10.7l0.1,0.1c1.5,0.9,2.3,2.9,2.3,5.3V88c0,0.4-0.2,0.7-0.5,0.9L56,109.5
							C55.9,109.6,55.7,109.6,55.5,109.6z M38,97.3l17.5,10.1L90,87.5V20.6c0-1.8-0.5-3.1-1.4-3.7c0,0-0.1,0-0.1-0.1L70.1,6.3
							c0,0-0.1,0-0.1-0.1c-0.1,0-0.2-0.1-0.2-0.1c-0.1,0-0.2-0.1-0.3-0.1c-0.2,0-0.4-0.1-0.6,0c-0.3,0-0.6,0.1-0.9,0.2
							s-0.5,0.2-0.7,0.3l-24.2,14c-0.2,0.1-0.4,0.2-0.5,0.4L42.5,21l-0.1,0.1c-0.1,0.1-0.3,0.2-0.4,0.3l-0.1,0.1
							c-0.2,0.2-0.3,0.3-0.4,0.4L41.3,22c-0.1,0.1-0.3,0.3-0.4,0.5L40,22l0.8,0.6C39,24.8,38,27.8,38,30.4V97.3z M91,88.1L91,88.1
							L91,88.1z"/>
						<path class="st4" d="M68.6,66c-0.3,0-0.7-0.2-0.9-0.5c-0.3-0.5-0.1-1.1,0.4-1.4l9.3-5.4c0.5-0.3,1.1-0.1,1.4,0.4
							s0.1,1.1-0.4,1.4l-9.3,5.4C69,65.9,68.8,66,68.6,66z"/>
						
							<ellipse transform="matrix(0.3916 -0.9201 0.9201 0.3916 -26.7779 114.6409)" class="st2" cx="73.3" cy="77.6" rx="9.5" ry="5.4"/>
						<path class="st4" d="M73.3,69.3c-3.4,2-6.2,7.3-6.2,11.9c0,1.4,0.3,2.6,0.8,3.5c0.7-0.1,1.4-0.3,2.2-0.7
							c3.4-2,6.2-7.3,6.2-11.9c0-1.4-0.3-2.6-0.8-3.5C74.8,68.6,74,68.9,73.3,69.3z"/>
						<g>
							<polygon class="st4" points="79,43.1 67.6,49.7 67.6,40 79,33.4 							"/>
							<path class="st4" d="M67.6,50.2c-0.1,0-0.2,0-0.2-0.1c-0.2-0.1-0.2-0.3-0.2-0.4V40c0-0.2,0.1-0.3,0.2-0.4L78.8,33
								c0.2-0.1,0.3-0.1,0.5,0s0.2,0.3,0.2,0.4v9.8c0,0.2-0.1,0.3-0.2,0.4l-11.4,6.6C67.7,50.2,67.7,50.2,67.6,50.2z M68.1,40.2v8.6
								l10.4-6v-8.6L68.1,40.2z M79,43.1L79,43.1L79,43.1z"/>
						</g>
					</g>
					
						<ellipse transform="matrix(0.9201 -0.3916 0.3916 0.9201 -30.7113 24.8305)" class="st5" cx="45.5" cy="87.7" rx="1.9" ry="3.3"/>
					
						<ellipse transform="matrix(0.9201 -0.3916 0.3916 0.9201 -15.5201 21.7255)" class="st5" cx="45.5" cy="48.9" rx="4" ry="7.2"/>
					<path class="st6" d="M41.2,61.2c-1.1,0-2-0.9-2-2v-5.7c0-1.1,0.9-2,2-2s2,0.9,2,2v5.7C43.2,60.3,42.3,61.2,41.2,61.2z"/>
					<path class="st6" d="M43.3,89.7c-0.5,0-1-0.1-1.5-0.4c-0.9-0.5-1.5-1.5-1.5-2.6V59.2c0-0.6,0.4-1,1-1s1,0.4,1,1v27.5
						c0,0.5,0.4,0.8,0.5,0.9c0.2,0.1,0.6,0.3,1,0l1.3-0.7c0.5-0.3,1.1-0.1,1.4,0.4s0.1,1.1-0.4,1.4l-1.3,0.7
						C44.3,89.5,43.8,89.7,43.3,89.7z"/>
					<g>
						<path class="st6" d="M47.6,50.1c0-1.5-0.9-3.3-2.1-4c-0.5-0.3-1-0.3-1.4-0.1l0,0l-6,3.8l0,0c-0.8,0.5-1.4,1.4-1.4,2.5
							c0,1.6,1.3,2.9,2.9,2.9c0.5,0,0.9-0.1,1.3-0.3l0,0l5.9-3.1l0,0C47.3,51.5,47.6,51,47.6,50.1z"/>
						<path class="st6" d="M39.7,56.7c-2.4,0-4.4-2-4.4-4.4c0-1.5,0.7-2.8,1.9-3.6c0,0,0.1-0.1,0.2-0.1l6-3.8
							c0.1-0.1,0.2-0.1,0.2-0.1c0.8-0.4,1.8-0.3,2.7,0.2c1.6,0.9,2.8,3.2,2.8,5.3c0,1.3-0.5,2.3-1.3,2.9c-0.1,0.1-0.2,0.1-0.3,0.2
							l-5.9,3.1c-0.1,0-0.1,0.1-0.2,0.1C40.9,56.6,40.3,56.7,39.7,56.7z M39,51L39,51c-0.5,0.4-0.8,0.8-0.8,1.3c0,1,1,1.8,2.1,1.2
							c0.1,0,0.1-0.1,0.2-0.1l5.5-2.9c0,0,0.1,0,0.1-0.1s0.1-0.2,0.1-0.4c0-1.1-0.7-2.3-1.3-2.7l0,0L39,51z"/>
					</g>
					<path class="st5" d="M40,51.3c-0.3,0-0.7-0.2-0.8-0.5c-0.3-0.5-0.2-1.1,0.3-1.4l4.1-2.6c0.5-0.3,1.1-0.2,1.4,0.3
						c0.3,0.5,0.2,1.1-0.3,1.4l-4.1,2.6C40.4,51.2,40.2,51.3,40,51.3z"/>
					<g>
						<polygon class="st5" points="64.8,14.6 70,17.6 63.2,21.5 58,18.5 						"/>
						<path class="st5" d="M63.2,22.5c-0.2,0-0.3,0-0.5-0.1l-5.2-3c-0.3-0.2-0.5-0.5-0.5-0.9s0.2-0.7,0.5-0.9l6.8-3.9
							c0.3-0.2,0.7-0.2,1,0l5.2,3c0.3,0.2,0.5,0.5,0.5,0.9s-0.2,0.7-0.5,0.9l-6.8,3.9C63.5,22.4,63.4,22.5,63.2,22.5z M60,18.5
							l3.2,1.8l4.8-2.8l-3.2-1.8L60,18.5z"/>
					</g>
				</g>
				<rect x="4" y="4" class="st7" width="120" height="120"/>
				<rect x="4" y="4" class="st7" width="120" height="120"/>
			</g>
		</g>
	</g>
	<g>
		<rect class="st7" width="128" height="128"/>
	</g>
</g>
</svg>
