<?xml version="1.0" encoding="utf-8"?>
<!-- Generator: Adobe Illustrator 24.1.0, SVG Export Plug-In . SVG Version: 6.00 Build 0)  -->
<svg version="1.1" id="Layer_1" xmlns="http://www.w3.org/2000/svg" xmlns:xlink="http://www.w3.org/1999/xlink" x="0px" y="0px"
	 viewBox="0 0 128 128" style="enable-background:new 0 0 128 128;" xml:space="preserve">
<style type="text/css">
	.st0{fill:#27ae60;}
	.st1{fill:#4D9987;}
	.st2{fill:#FFFFFF;}
	.st3{fill:#E9EBDF;}
	.st4{fill:#0E352C;}
	.st5{fill:none;}
</style>
<g id="Layer_1_1_">
</g>
<g>
	<g id="Layer_2_1_">
		<g id="Tech_Concepts_1_">
			<g>
				<g>
					<g>
						<path class="st0" d="M38.3,71.3c-2.1,0-4.1-0.5-5.9-1.5c-5-2.9-7.8-9.4-7.8-17.9c0-15.8,9.7-34.3,21.6-41.2
							C51.6,7.6,56.9,7.2,61,9.6c5,2.9,7.8,9.4,7.8,17.9c0,15.8-9.7,34.3-21.6,41.2C44.2,70.4,41.1,71.3,38.3,71.3z M55.1,10
							c-2.5,0-5.1,0.8-7.9,2.4C35.9,19,26.6,36.6,26.6,51.8c0,7.8,2.5,13.7,6.8,16.2c3.5,2,8.1,1.6,12.8-1.1
							c11.4-6.6,20.6-24.2,20.6-39.4c0-7.8-2.5-13.7-6.8-16.2C58.5,10.4,56.9,10,55.1,10z"/>
						<g>
							<g>
								<polygon class="st1" points="88.1,45.8 46.7,39.7 45.5,103.1 58.4,85.8 73.6,112.1 90.4,89.4 75.2,63 								"/>
								<path class="st2" d="M73.6,113.1C73.5,113.1,73.5,113.1,73.6,113.1c-0.4,0-0.7-0.2-0.9-0.5l-14.4-25l-11.9,16.1
									c-0.3,0.4-0.7,0.5-1.1,0.4c-0.4-0.1-0.7-0.5-0.7-1l1.2-63.4c0-0.3,0.1-0.6,0.4-0.7c0.2-0.2,0.5-0.3,0.8-0.2l41.3,6.1
									c0.3,0.1,0.6,0.3,0.8,0.6s0.1,0.7-0.1,1L76.4,63.1l14.9,25.8c0.2,0.3,0.2,0.8-0.1,1.1l-16.9,22.7
									C74.2,112.9,73.9,113.1,73.6,113.1z M58.4,84.8L58.4,84.8c0.4,0,0.7,0.2,0.9,0.5l14.4,25l15.6-21L74.4,63.5
									c-0.2-0.3-0.2-0.8,0.1-1.1l11.8-16l-38.6-5.7L46.6,100l11-14.8C57.7,84.9,58,84.8,58.4,84.8z"/>
							</g>
							<g>
								<polygon class="st1" points="100,52.7 58.7,46.6 57.5,110 70.3,92.7 85.5,119 102.4,96.3 87.2,69.9 								"/>
								<path class="st2" d="M85.5,120L85.5,120c-0.4,0-0.7-0.2-0.9-0.5l-14.4-25l-11.9,16.1c-0.3,0.4-0.7,0.5-1.1,0.4
									c-0.4-0.1-0.7-0.5-0.7-1l1.2-63.4c0-0.3,0.1-0.6,0.4-0.7c0.2-0.2,0.5-0.3,0.8-0.2l41.3,6.1c0.3,0.1,0.6,0.3,0.8,0.6
									s0.1,0.7-0.1,1L88.4,70l14.9,25.8c0.2,0.3,0.2,0.8-0.1,1.1l-16.9,22.7C86.1,119.9,85.8,120,85.5,120z M70.3,91.7L70.3,91.7
									c0.4,0,0.7,0.2,0.9,0.5l14.4,25l15.6-21L86.3,70.4c-0.2-0.3-0.2-0.8,0.1-1.1l11.8-16l-38.6-5.7l-1.1,59.1l11-14.8
									C69.7,91.8,70,91.7,70.3,91.7z"/>
							</g>
							<g>
								<polygon class="st3" points="85.5,119 73.6,112.1 65.8,98.7 70.3,92.7 								"/>
								<path class="st2" d="M85.5,120c-0.2,0-0.3,0-0.5-0.1L73,113c-0.2-0.1-0.3-0.2-0.4-0.4L65,99.2c-0.2-0.3-0.2-0.8,0.1-1.1
									l4.5-6c0.2-0.3,0.5-0.4,0.9-0.4c0.3,0,0.6,0.2,0.8,0.5l15.2,26.3c0.2,0.4,0.2,0.9-0.2,1.2C86,119.9,85.8,120,85.5,120z
									 M74.3,111.4l8.5,4.9L70.2,94.5L67,98.8L74.3,111.4z"/>
							</g>
							<g>
								<polygon class="st3" points="57.5,110 45.5,103.1 46.7,39.7 58.7,46.6 								"/>
								<path class="st2" d="M57.5,111c-0.2,0-0.3,0-0.5-0.1L45,104c-0.3-0.2-0.5-0.5-0.5-0.9l1.2-63.4c0-0.4,0.2-0.7,0.5-0.9
									s0.7-0.2,1,0l12,6.9c0.3,0.2,0.5,0.5,0.5,0.9L58.5,110c0,0.4-0.2,0.7-0.5,0.9C57.8,110.9,57.6,111,57.5,111z M46.5,102.5
									l10,5.8l1.2-61.1l-10-5.8L46.5,102.5z"/>
							</g>
							<g>
								<polygon class="st3" points="100,52.7 88.1,45.8 46.7,39.7 58.7,46.6 								"/>
								<path class="st2" d="M100,53.7L100,53.7l-41.4-6.1c-0.1,0-0.2-0.1-0.4-0.1l-12-6.9c-0.4-0.2-0.6-0.7-0.4-1.2
									c0.2-0.5,0.6-0.7,1.1-0.7l41.3,6.1c0.1,0,0.2,0.1,0.4,0.1l12,6.9c0.4,0.2,0.6,0.7,0.4,1.2C100.8,53.4,100.4,53.7,100,53.7z
									 M59,45.6l36,5.3l-7.3-4.2l-36-5.3L59,45.6z"/>
							</g>
							<path class="st4" d="M85.5,120c-0.2,0-0.3,0-0.5-0.1L73,113c-0.2-0.1-0.3-0.2-0.4-0.4l-7-12.1l-7.5,10
								c-0.3,0.4-0.9,0.5-1.3,0.3l-12-6.9c-0.3-0.2-0.5-0.5-0.5-0.9l1.2-63.4c0-0.3,0.1-0.6,0.4-0.7c0.2-0.2,0.5-0.3,0.8-0.2
								L88,44.8c0.1,0,0.2,0.1,0.4,0.1l12,6.9c0.2,0.1,0.4,0.4,0.5,0.7s0,0.6-0.2,0.8L88.4,70l14.9,25.8c0.2,0.3,0.2,0.8-0.1,1.1
								l-16.9,22.7C86.1,119.9,85.8,120,85.5,120z M74.3,111.4l10.9,6.3l15.9-21.5L86.3,70.4c-0.2-0.3-0.2-0.8,0.1-1.1L98.5,53
								l-10.8-6.2l-40-5.9l-1.2,61.7l10.7,6.2L65,98.1c0.2-0.3,0.5-0.4,0.9-0.4c0.3,0,0.6,0.2,0.8,0.5L74.3,111.4z"/>
						</g>
					</g>
				</g>
				<rect x="4" y="4" class="st5" width="120" height="120"/>
				<rect x="4" y="4" class="st5" width="120" height="120"/>
			</g>
		</g>
	</g>
	<g>
		<rect class="st5" width="128" height="128"/>
	</g>
</g>
</svg>
