<?xml version="1.0" encoding="utf-8"?>
<!-- Generator: Adobe Illustrator 24.1.0, SVG Export Plug-In . SVG Version: 6.00 Build 0)  -->
<svg version="1.1" id="Layer_1" xmlns="http://www.w3.org/2000/svg" xmlns:xlink="http://www.w3.org/1999/xlink" x="0px" y="0px"
	 viewBox="0 0 128 128" style="enable-background:new 0 0 128 128;" xml:space="preserve">
<style type="text/css">
	.st0{fill:#4D9987;}
	.st1{fill:#0E352C;}
	.st2{fill:#E9EBDF;}
	.st3{fill:#FFFFFF;}
	.st4{fill:#27ae60;}
	.st5{fill:none;}
</style>
<g id="Layer_1_1_">
</g>
<g>
	<g id="Layer_2_1_">
		<g id="Tech_Concepts_1_">
			<g>
				<g>
					<g>
						<g>
							<g>
								<g>
									<g>
										<path class="st0" d="M74.3,9.1l-6.7-3.8l0,0c-0.7-0.4-1.5-0.4-2.5,0.2l-38,21.9c-2.1,1.2-3.8,4.4-3.8,7.2v70.8
											c0,1.5,0.5,2.6,1.3,3l0,0l6.7,3.8l2.5-7.9l31.2-18c2.1-1.2,3.8-4.4,3.8-7.2V20.5L74.3,9.1z"/>
										<path class="st0" d="M43.2,33.1l-0.7-9.5c-0.2-2.6-1.7-5.4-3.6-6.4l0,0c-1.9-1.1-3.4-0.1-3.6,2.3l-0.7,8.7"/>
										<path class="st1" d="M43.2,34.1c-0.5,0-1-0.4-1-0.9l-0.7-9.5c-0.2-2.3-1.5-4.7-3.1-5.6c-0.3-0.2-0.9-0.4-1.3-0.2
											c-0.4,0.2-0.7,0.9-0.8,1.7l-0.7,8.7c0,0.6-0.5,1-1.1,0.9c-0.6,0-1-0.5-0.9-1.1l0.7-8.7c0.1-1.6,0.8-2.7,1.8-3.3
											c1-0.5,2.1-0.4,3.3,0.2c2.2,1.3,3.9,4.3,4.1,7.2l0.7,9.5C44.3,33.6,43.9,34.1,43.2,34.1C43.3,34.1,43.3,34.1,43.2,34.1z"
											/>
										<path class="st2" d="M67.6,5.3c-0.7-0.4-1.5-0.4-2.5,0.2l-38,21.9c-1,0.6-1.9,1.6-2.6,2.9l44.3,25.6V20.5l5.4-11.4
											L67.6,5.3L67.6,5.3z"/>
										<g>
											<path class="st3" d="M71.8,90.1l-38,21.9c-2.1,1.2-3.8-0.1-3.8-2.8V38.4c0-2.8,1.7-6,3.8-7.2l38-21.9
												c2.1-1.2,3.8,0.1,3.8,2.8v70.8C75.6,85.7,73.9,88.9,71.8,90.1z"/>
											<path class="st0" d="M32.3,113.5c-0.5,0-1-0.1-1.5-0.4c-1.1-0.7-1.8-2.1-1.8-3.9V38.4c0-3.1,1.9-6.7,4.3-8.1l38-21.9
												c1.2-0.7,2.5-0.8,3.5-0.2c1.1,0.7,1.8,2.1,1.8,3.9v70.8c0,3.1-1.9,6.7-4.3,8.1l-38,21.9C33.7,113.3,33,113.5,32.3,113.5z
												 M73.3,9.8c-0.4,0-0.8,0.2-1,0.3L34.3,32c-1.8,1-3.3,3.9-3.3,6.3v70.8c0,1.1,0.3,1.9,0.8,2.2c0.5,0.3,1.1,0,1.5-0.2
												l38-21.9l0,0c1.8-1,3.3-3.9,3.3-6.3V12.1c0-1.1-0.3-1.9-0.8-2.2C73.6,9.9,73.5,9.8,73.3,9.8z"/>
										</g>
										<path class="st1" d="M32.4,113.5c-0.4,0-0.9-0.1-1.3-0.3c-0.1,0-0.2-0.1-0.2-0.1l-6.7-3.8c-0.1,0-0.2-0.1-0.2-0.2
											c-1-0.7-1.6-2.1-1.6-3.7V34.6c0-1.5,0.5-3.3,1.3-4.8c0.4-0.7,0.8-1.3,1.3-1.9l0.1-0.1c0.2-0.2,0.4-0.4,0.6-0.6
											c0.3-0.2,0.6-0.5,0.9-0.6l38-21.9c1.1-0.6,2.3-0.7,3.2-0.3c0.1,0,0.2,0.1,0.2,0.1l6.7,3.8c0.1,0,0.2,0.1,0.2,0.2
											c1,0.7,1.6,2.1,1.6,3.7V83c0,3.1-1.9,6.7-4.3,8.1l-38,21.9C33.7,113.3,33,113.5,32.4,113.5z M31.7,111.3
											c0.1,0,0.1,0,0.2,0.1c0.5,0.3,1.1,0.1,1.5-0.2l38-21.9c1.8-1,3.3-3.9,3.3-6.3V12.1c0-1.1-0.3-1.9-0.8-2.2
											c-0.1,0-0.1-0.1-0.2-0.1l-6.3-3.6c-0.1,0-0.1,0-0.2-0.1c-0.5-0.3-1.1-0.1-1.5,0.2l-38,21.9c-0.2,0.1-0.4,0.3-0.6,0.4
											s-0.3,0.3-0.5,0.4l-0.1,0.1c-0.4,0.4-0.7,0.9-1,1.5c-0.7,1.2-1.1,2.6-1.1,3.9v70.8c0,1.1,0.3,1.9,0.8,2.2
											c0.1,0,0.1,0.1,0.2,0.1L31.7,111.3z"/>
										<g>
											<path class="st2" d="M61.8,12.5c-0.2-2.6-1.7-5.4-3.6-6.4c-0.9-0.5-1.7-0.6-2.4-0.2l0,0L36.6,17l0,0
												c0.6-0.4,1.5-0.3,2.4,0.2c1.9,1.1,3.4,3.9,3.6,6.4l0.7,9.5L62.5,22L61.8,12.5z"/>
											<path class="st3" d="M38.9,17.2c1.2,0.7,2.3,2.1,3,3.8L61.2,9.8c-0.7-1.6-1.7-3.1-3-3.8c-0.9-0.5-1.7-0.6-2.4-0.2l0,0
												L36.6,17l0,0C37.2,16.6,38,16.7,38.9,17.2z"/>
											<g>
												<path class="st1" d="M43.2,34.1c-0.2,0-0.3,0-0.5-0.1c-0.3-0.2-0.5-0.5-0.5-0.8l-0.7-9.5c-0.2-2.3-1.5-4.7-3.1-5.6
													c-0.4-0.2-0.9-0.4-1.4-0.2l0,0l0,0c-0.5,0.3-1.1,0.1-1.4-0.4c-0.3-0.4-0.1-1,0.2-1.3l0.1-0.1L55.3,5
													c1-0.6,2.2-0.5,3.4,0.2c2.2,1.3,3.9,4.3,4.1,7.2l0.7,9.5c0,0.4-0.2,0.7-0.5,0.9L43.7,34C43.6,34.1,43.4,34.1,43.2,34.1z
													 M39.6,16.4c2.1,1.3,3.8,4.3,4,7.2l0.6,7.9l17.4-10L61,12.7l0,0c-0.2-2.3-1.5-4.7-3.1-5.6c-0.3-0.2-0.9-0.5-1.4-0.2
													L39.6,16.4z"/>
											</g>
											<path class="st3" d="M48.6,11.6l3.2-1.9c0.1-0.5,0.2-1,0.2-1.6c0-2.5-1.5-3.7-3.4-2.6s-3.4,4-3.4,6.5
												c0,0.5,0.1,1,0.2,1.4L48.6,11.6z"/>
											
												<ellipse transform="matrix(0.3916 -0.9201 0.9201 0.3916 20.2915 50.8399)" class="st1" cx="48.6" cy="10.1" rx="1.6" ry="0.9"/>
											<path class="st1" d="M45.4,14.5c-0.4,0-0.8-0.3-1-0.7c-0.2-0.5-0.2-1.1-0.2-1.7c0-2.9,1.7-6.1,3.9-7.4
												C49.2,4,50.4,4,51.3,4.5C52.4,5.1,53,6.4,53,8.1c0,0.6-0.1,1.2-0.2,1.9c-0.1,0.5-0.7,0.9-1.2,0.8
												c-0.5-0.1-0.9-0.7-0.8-1.2C50.9,9,51,8.6,51,8.1c0-0.9-0.3-1.7-0.7-1.9c-0.4-0.2-0.9,0-1.2,0.2c-1.6,0.9-2.9,3.5-2.9,5.7
												c0,0.4,0.1,0.8,0.2,1.1c0.2,0.5-0.1,1.1-0.7,1.3C45.6,14.5,45.5,14.5,45.4,14.5z"/>
										</g>
									</g>
								</g>
							</g>
							<g>
								<path class="st4" d="M52.6,47.5c-0.3,0-0.7-0.2-0.9-0.5c-0.3-0.5-0.1-1.1,0.4-1.4l15.3-8.8c0.5-0.3,1.1-0.1,1.4,0.4
									s0.1,1.1-0.4,1.4l-15.3,8.8C52.9,47.5,52.7,47.5,52.6,47.5z"/>
								<g>
									<path class="st4" d="M41,72.4c-0.2,0.1-0.4,0.1-0.5,0l-2.2-1.6c-0.3-0.2-0.5-1-0.2-1.5s1-0.7,1.2-0.5l1.5,1.1l4.8-9.3
										c0.3-0.5,0.8-0.7,1.1-0.5s0.4,0.9,0.2,1.5l-5.3,10.3C41.4,72.1,41.2,72.3,41,72.4z"/>
									<path class="st4" d="M40.7,72.7c-0.1,0-0.3,0-0.4-0.1L38.1,71c-0.4-0.3-0.6-1.2-0.3-1.8c0.2-0.3,0.5-0.6,0.9-0.7
										c0.3-0.1,0.6,0,0.7,0.1l1.2,0.9l4.7-9.1c0.2-0.4,0.5-0.6,0.9-0.7c0.2-0.1,0.5,0,0.6,0.1c0.4,0.3,0.6,1.1,0.2,1.8l-5.3,10.3
										c-0.2,0.3-0.4,0.5-0.6,0.7l0,0C41,72.7,40.9,72.7,40.7,72.7z M39,68.9L39,68.9c-0.3,0.1-0.5,0.2-0.6,0.4
										c-0.2,0.4,0,1,0.1,1.2l2.2,1.6c0.1,0.1,0.2,0,0.2,0l0,0c0.2-0.1,0.3-0.3,0.4-0.5l5.3-10.3c0.2-0.5,0.1-1-0.1-1.2
										c0,0-0.1,0-0.2,0c-0.2,0-0.4,0.2-0.5,0.5l-5,9.6L39.2,69C39.1,69,39.1,68.9,39,68.9z"/>
								</g>
								<g>
									<path class="st4" d="M41,56.3c-0.2,0.1-0.4,0.1-0.5,0l-2.2-1.6c-0.3-0.2-0.5-1-0.2-1.5s1-0.7,1.2-0.5l1.5,1.1l4.8-9.3
										c0.3-0.5,0.8-0.7,1.1-0.5s0.4,0.9,0.2,1.5l-5.3,10.3C41.4,56,41.2,56.2,41,56.3z"/>
									<path class="st4" d="M40.7,56.7c-0.1,0-0.3,0-0.4-0.1L38.1,55c-0.4-0.3-0.6-1.2-0.3-1.8c0.2-0.3,0.5-0.6,0.9-0.7
										c0.3-0.1,0.6,0,0.7,0.1l1.2,0.9l4.7-9.1c0.2-0.4,0.5-0.6,0.9-0.7c0.2-0.1,0.5,0,0.6,0.1c0.4,0.3,0.6,1.1,0.2,1.8l-5.3,10.3
										c-0.2,0.3-0.4,0.5-0.6,0.7l0,0C41,56.6,40.9,56.7,40.7,56.7z M39,52.9L39,52.9c-0.3,0.1-0.5,0.2-0.6,0.4
										c-0.2,0.4,0,1,0.1,1.2l2.2,1.6c0.1,0.1,0.2,0,0.2,0l0,0c0.2-0.1,0.3-0.3,0.4-0.5l5.3-10.3c0.2-0.5,0.1-1-0.1-1.2
										c0,0-0.1,0-0.2,0c-0.2,0-0.4,0.2-0.5,0.5l-5,9.6L39.1,53C39.1,52.9,39.1,52.9,39,52.9z"/>
								</g>
								<path class="st4" d="M52.6,63.6c-0.3,0-0.7-0.2-0.9-0.5c-0.3-0.5-0.1-1.1,0.4-1.4l15.3-8.8c0.5-0.3,1.1-0.1,1.4,0.4
									s0.1,1.1-0.4,1.4l-15.3,8.8C52.9,63.6,52.7,63.6,52.6,63.6z"/>
								<path class="st4" d="M52.6,79.7c-0.3,0-0.7-0.2-0.9-0.5c-0.3-0.5-0.1-1.1,0.4-1.4L67.4,69c0.5-0.3,1.1-0.1,1.4,0.4
									s0.1,1.1-0.4,1.4l-15.3,8.8C52.9,79.6,52.7,79.7,52.6,79.7z"/>
								<g>
									<path class="st4" d="M41,88.5c-0.2,0.1-0.4,0.1-0.5,0l-2.2-1.6c-0.3-0.2-0.5-1-0.2-1.5s1-0.7,1.2-0.5l1.5,1.1l4.8-9.3
										c0.3-0.5,0.8-0.7,1.1-0.5s0.4,0.9,0.2,1.5L41.6,88C41.4,88.2,41.2,88.4,41,88.5z"/>
									<path class="st4" d="M40.7,88.8c-0.1,0-0.3,0-0.4-0.1L38.1,87c-0.4-0.3-0.6-1.2-0.3-1.8c0.2-0.3,0.5-0.6,0.9-0.7
										c0.3-0.1,0.6,0,0.7,0.1l1.2,0.9l4.7-9.1c0.2-0.4,0.5-0.6,0.9-0.7c0.2-0.1,0.5,0,0.6,0.1c0.4,0.3,0.6,1.1,0.2,1.8L41.8,88
										c-0.2,0.3-0.4,0.5-0.6,0.7l0,0C41,88.8,40.9,88.8,40.7,88.8z M39,85L39,85c-0.3,0.1-0.5,0.2-0.6,0.4c-0.2,0.4,0,1,0.1,1.2
										l2.2,1.6c0.1,0.1,0.2,0,0.2,0l0,0c0.2-0.1,0.3-0.3,0.4-0.5l5.3-10.3c0.2-0.5,0.1-1-0.1-1.2c0,0-0.1,0-0.2,0
										c-0.2,0-0.4,0.2-0.5,0.5l-5,9.6l-1.7-1.2C39.1,85,39.1,85,39,85z"/>
								</g>
							</g>
						</g>
						<g>
							<g>
								<polygon class="st0" points="94.9,73.4 66.9,69.3 66.1,112.2 74.8,100.5 85.1,118.3 96.5,102.9 86.2,85.1 								"/>
								<path class="st3" d="M85.1,119.3C85,119.3,85,119.3,85.1,119.3c-0.4,0-0.7-0.2-0.9-0.5l-9.5-16.5l-7.8,10.5
									c-0.3,0.3-0.7,0.5-1.1,0.4s-0.7-0.5-0.7-1l0.8-43c0-0.3,0.1-0.6,0.4-0.7c0.2-0.2,0.5-0.3,0.8-0.2l28,4.1
									c0.3,0.1,0.6,0.3,0.8,0.6s0.1,0.7-0.1,1l-8.3,11.2l10,17.3c0.2,0.3,0.2,0.8-0.1,1.1L86,119
									C85.7,119.2,85.4,119.3,85.1,119.3z M74.8,99.5L74.8,99.5c0.4,0,0.7,0.2,0.9,0.5l9.5,16.5l10.1-13.6l-10-17.3
									c-0.2-0.3-0.2-0.8,0.1-1.1l7.7-10.4l-25.2-3.7l-0.7,38.7l6.8-9.2C74.2,99.6,74.4,99.5,74.8,99.5z"/>
							</g>
							<g>
								<polygon class="st0" points="103,78.1 75,73.9 74.2,116.9 82.9,105.2 93.2,123 104.6,107.6 94.3,89.8 								"/>
								<path class="st3" d="M93.2,124C93.1,124,93.1,124,93.2,124c-0.4,0-0.7-0.2-0.9-0.5L82.8,107L75,117.5
									c-0.3,0.4-0.7,0.5-1.1,0.4s-0.7-0.5-0.7-1l0.8-43c0-0.3,0.1-0.6,0.4-0.7c0.2-0.2,0.5-0.3,0.8-0.2l28,4.1
									c0.3,0.1,0.6,0.3,0.8,0.6s0.1,0.7-0.1,1l-8.3,11.2l10,17.3c0.2,0.3,0.2,0.8-0.1,1.1L94,123.6C93.8,123.9,93.5,124,93.2,124z
									 M82.9,104.2L82.9,104.2c0.4,0,0.7,0.2,0.9,0.5l9.5,16.5l10.1-13.6l-10-17.3c-0.2-0.3-0.2-0.8,0.1-1.1l7.7-10.4L76,75.1
									l-0.7,38.7l6.8-9.2C82.2,104.3,82.5,104.2,82.9,104.2z"/>
							</g>
							<g>
								<polygon class="st2" points="93.2,123 85.1,118.3 79.8,109.3 82.9,105.2 								"/>
								<path class="st3" d="M93.2,124c-0.2,0-0.3,0-0.5-0.1l-8.1-4.7c-0.2-0.1-0.3-0.2-0.4-0.4l-5.2-9.1c-0.2-0.3-0.2-0.8,0.1-1.1
									l3-4.1c0.2-0.3,0.5-0.4,0.9-0.4c0.3,0,0.6,0.2,0.8,0.5L94,122.5c0.2,0.4,0.2,0.9-0.2,1.2C93.7,123.9,93.4,124,93.2,124z
									 M85.8,117.6l4.6,2.7L82.8,107l-1.7,2.3L85.8,117.6z"/>
							</g>
							<g>
								<polygon class="st2" points="74.2,116.9 66.1,112.2 66.9,69.3 75,73.9 								"/>
								<path class="st3" d="M74.2,117.9c-0.2,0-0.3,0-0.5-0.1l-8.1-4.7c-0.3-0.2-0.5-0.5-0.5-0.9l0.8-43c0-0.4,0.2-0.7,0.5-0.9
									c0.3-0.2,0.7-0.2,1,0l8.1,4.7c0.3,0.2,0.5,0.5,0.5,0.9l-0.8,43c0,0.4-0.2,0.7-0.5,0.9C74.5,117.8,74.3,117.9,74.2,117.9z
									 M67.1,111.6l6.1,3.5L74,74.5L67.9,71L67.1,111.6z"/>
							</g>
							<g>
								<polygon class="st2" points="103,78.1 94.9,73.4 66.9,69.3 75,73.9 								"/>
								<path class="st3" d="M103,79.1L103,79.1L74.9,75c-0.1,0-0.2-0.1-0.4-0.1l-8.1-4.7C66,70,65.8,69.5,66,69s0.6-0.7,1.1-0.7
									l28,4.1c0.1,0,0.2,0.1,0.4,0.1l8.1,4.7c0.4,0.2,0.6,0.7,0.4,1.2C103.8,78.8,103.4,79.1,103,79.1z M75.3,73l22.6,3.3l-3.4-2
									L71.9,71L75.3,73z"/>
							</g>
							<path class="st1" d="M93.2,124c-0.2,0-0.3,0-0.5-0.1l-8.1-4.7c-0.2-0.1-0.3-0.2-0.4-0.4l-4.5-7.8l-4.8,6.4
								c-0.3,0.4-0.9,0.5-1.3,0.3l-8.1-4.7c-0.3-0.2-0.5-0.5-0.5-0.9l0.8-43c0-0.3,0.1-0.6,0.4-0.7c0.2-0.2,0.5-0.3,0.8-0.2l28,4.1
								c0.1,0,0.2,0.1,0.4,0.1l8.1,4.7c0.2,0.1,0.4,0.4,0.5,0.7c0.1,0.3,0,0.6-0.2,0.8l-8.3,11.2l10,17.3c0.2,0.3,0.2,0.8-0.1,1.1
								L94,123.6C93.8,123.9,93.5,124,93.2,124z M85.8,117.6l7.1,4.1l10.5-14.1l-10-17.3c-0.2-0.3-0.2-0.8,0.1-1.1l8-10.8l-7-4
								l-26.7-3.9L67,111.7l6.8,3.9l5.1-6.9c0.2-0.3,0.5-0.4,0.9-0.4c0.3,0,0.6,0.2,0.8,0.5L85.8,117.6z"/>
						</g>
					</g>
				</g>
				<rect x="4" y="4" class="st5" width="120" height="120"/>
				<rect x="4" y="4" class="st5" width="120" height="120"/>
			</g>
		</g>
	</g>
	<g>
		<rect class="st5" width="128" height="128"/>
	</g>
</g>
</svg>
