<?xml version="1.0" encoding="utf-8"?>
<!-- Generator: Adobe Illustrator 24.1.0, SVG Export Plug-In . SVG Version: 6.00 Build 0)  -->
<svg version="1.1" id="Layer_1" xmlns="http://www.w3.org/2000/svg" xmlns:xlink="http://www.w3.org/1999/xlink" x="0px" y="0px"
	 viewBox="0 0 128 128" style="enable-background:new 0 0 128 128;" xml:space="preserve">
<style type="text/css">
	.st0{fill:#FFFFFF;}
	.st1{fill:#4D9987;}
	.st2{fill:#E9EBDF;}
	.st3{fill:#0E352C;}
	.st4{fill:#27ae60;}
	.st5{fill:#C4D7D3;}
	.st6{fill:none;}
</style>
<g id="Layer_1_1_">
</g>
<g>
	<g id="Layer_2_1_">
		<g id="Actions_1_">
			<g>
				<g>
					<g>
						<g>
							<path class="st0" d="M87.4,9.9L79,5.1l0,0c-0.2-0.1-0.5-0.1-0.8,0L7.4,46c-0.7,0.4-1.2,1.4-1.2,2.3V117c0,0.5,0.2,0.8,0.4,1
								l0,0l8.4,4.9l7.1-13.4l56.1-37.9c0.7-0.4,1.2-1.4,1.2-2.3V20.6L87.4,9.9z"/>
							<path class="st1" d="M15,123.9c-0.2,0-0.3,0-0.5-0.1l-8.4-4.9c-0.1,0-0.1-0.1-0.2-0.1c-0.5-0.4-0.8-1-0.8-1.7V48.4
								c0-1.3,0.7-2.6,1.7-3.2L77.7,4.3c0.5-0.3,1.1-0.4,1.6-0.1c0.1,0,0.1,0,0.2,0.1l8.4,4.9c0.2,0.1,0.4,0.4,0.5,0.7
								s0,0.6-0.2,0.8l-7.8,10.4v48.3c0,1.3-0.7,2.6-1.7,3.2l-55.9,37.7l-7,13.2c-0.1,0.2-0.3,0.4-0.6,0.5
								C15.2,123.9,15.1,123.9,15,123.9z M7.2,117.3l7.4,4.3l6.6-12.5c0.1-0.1,0.2-0.3,0.3-0.4l56.1-37.9c0.4-0.2,0.8-0.9,0.8-1.5
								V20.6c0-0.2,0.1-0.4,0.2-0.6l7.3-9.8L78.7,6L7.9,46.9c-0.3,0.2-0.7,0.9-0.7,1.5v68.7C7.2,117.2,7.2,117.2,7.2,117.3
								C7.2,117.2,7.2,117.3,7.2,117.3z"/>
						</g>
						<path class="st2" d="M14.6,122.7V41.9L7.4,46c-0.7,0.4-1.2,1.4-1.2,2.3V117c0,0.5,0.2,0.8,0.4,1l0,0L14.6,122.7z"/>
						<g>
							<path class="st1" d="M53.8,85.7l24.4-14.1c0.7-0.4,1.2-1.4,1.2-2.3V20.6l8-10.7L79,5.1l0,0c-0.2-0.1-0.5-0.1-0.8,0L7.4,46
								c-0.7,0.4-1.2,1.4-1.2,2.3v9.8L53.8,85.7z"/>
							<path class="st3" d="M53.8,86.7c-0.2,0-0.3,0-0.5-0.1L5.7,59c-0.3-0.2-0.5-0.5-0.5-0.9v-9.8c0-1.3,0.7-2.6,1.7-3.2L77.7,4.3
								c0.5-0.3,1.1-0.4,1.6-0.1c0.1,0,0.1,0,0.2,0.1l8.4,4.9c0.2,0.1,0.4,0.4,0.5,0.7s0,0.6-0.2,0.8l-7.8,10.4v48.3
								c0,1.3-0.7,2.6-1.7,3.2L54.3,86.5C54.2,86.6,54,86.7,53.8,86.7z M7.2,57.6l46.7,26.9l23.9-13.8c0.3-0.2,0.7-0.9,0.7-1.5V20.6
								c0-0.2,0.1-0.4,0.2-0.6l7.3-9.8L78.7,6L7.9,46.9c-0.3,0.2-0.7,0.9-0.7,1.5C7.2,48.4,7.2,57.6,7.2,57.6z"/>
						</g>
						<path class="st2" d="M56.1,77.2l23.3-32.6v-24l8-10.7L79,5.1l0,0c-0.2-0.1-0.5-0.1-0.8,0L7.4,46c-0.7,0.4-1.2,1.4-1.2,2.3l0,0
							L56.1,77.2z"/>
						<g>
							<path class="st0" d="M86.6,82l-70.8,40.9c-0.7,0.4-1.2,0-1.2-0.9V53.2c0-0.9,0.5-1.9,1.2-2.3L86.6,10c0.7-0.4,1.2,0,1.2,0.9
								v68.7C87.9,80.5,87.3,81.6,86.6,82z"/>
							<path class="st1" d="M15.3,124c-0.3,0-0.6-0.1-0.8-0.2c-0.6-0.3-0.9-1-0.9-1.9V53.2c0-1.3,0.7-2.6,1.7-3.2L86.1,9.1
								c0.6-0.4,1.3-0.4,1.8-0.1c0.6,0.3,0.9,1,0.9,1.9v68.7c0,1.3-0.7,2.6-1.7,3.2l-70.8,40.9C16,123.9,15.7,124,15.3,124z
								 M86.9,11L16.3,51.8c-0.3,0.2-0.7,0.9-0.7,1.5v68.6l70.5-40.7l0,0c0.3-0.2,0.7-0.9,0.7-1.5V11H86.9z"/>
						</g>
						<path class="st3" d="M15.3,124c-0.2,0-0.4,0-0.6-0.1c-0.1,0-0.1,0-0.2-0.1l-8.4-4.9c-0.1,0-0.1-0.1-0.2-0.1
							c-0.5-0.4-0.8-1-0.8-1.7V48.4c0-1.3,0.7-2.6,1.7-3.2L77.7,4.3c0.5-0.3,1.1-0.4,1.6-0.1c0.1,0,0.1,0,0.2,0.1l8.4,4.9
							c0.1,0,0.1,0.1,0.2,0.1c0.5,0.4,0.8,1,0.8,1.7v68.7c0,1.3-0.7,2.6-1.7,3.2l-70.8,40.9C16,123.9,15.7,124,15.3,124z M7.2,117.3
							l8.1,4.7l70.8-40.9c0.3-0.2,0.7-0.9,0.7-1.5V10.9c0-0.1,0-0.1,0-0.2l0,0L78.7,6L7.9,46.9c-0.3,0.2-0.7,0.9-0.7,1.5v68.7
							C7.2,117.2,7.2,117.2,7.2,117.3C7.2,117.2,7.2,117.3,7.2,117.3z M86.9,10.8L86.9,10.8L86.9,10.8z"/>
						<g>
							<path class="st3" d="M87.9,20.7v-9.8c0-0.9-0.5-1.3-1.2-0.9L15.8,50.9c-0.7,0.4-1.2,1.4-1.2,2.3V63L87.9,20.7z"/>
							<path class="st3" d="M14.6,64c-0.2,0-0.3,0-0.5-0.1c-0.3-0.2-0.5-0.5-0.5-0.9v-9.8c0-1.3,0.7-2.6,1.7-3.2L86.1,9.1
								c0.6-0.4,1.3-0.4,1.8-0.1c0.6,0.3,0.9,1,0.9,1.9v9.8c0,0.4-0.2,0.7-0.5,0.9L15.1,63.9C14.9,64,14.8,64,14.6,64z M86.9,11
								L16.3,51.8c-0.3,0.2-0.7,0.9-0.7,1.5v8.1l71.3-41.1V11z M87.9,20.7L87.9,20.7L87.9,20.7z"/>
						</g>
						<g>
							
								<ellipse transform="matrix(0.3916 -0.9201 0.9201 0.3916 -31.3369 54.8287)" class="st2" cx="25.8" cy="51.1" rx="2.1" ry="1.2"/>
							
								<ellipse transform="matrix(0.3916 -0.9201 0.9201 0.3916 -25.3004 57.8314)" class="st0" cx="31.1" cy="48" rx="2.1" ry="1.2"/>
							
								<ellipse transform="matrix(0.3916 -0.9201 0.9201 0.3916 -37.607 51.6751)" class="st1" cx="20.3" cy="54.3" rx="2.1" ry="1.2"/>
						</g>
					</g>
					<polygon class="st4" points="71.1,42.5 22.3,70.6 22.3,108.9 71.1,80.7 					"/>
					<g>
						<g>
							<path class="st2" d="M120.3,102.9L120.3,102.9L76.6,77.7l-5.1,8.8l43.7,25.2l0,0l0,0c1.8,1,4.3-0.1,5.7-2.6
								C122.3,106.7,122,103.9,120.3,102.9z"/>
							<path class="st1" d="M116.6,113.1c-0.6,0-1.2-0.1-1.8-0.4c-0.1,0-0.1,0-0.2-0.1L71,87.4c-0.2-0.1-0.4-0.4-0.5-0.6
								s0-0.5,0.1-0.8l5.1-8.8c0.3-0.5,0.9-0.6,1.4-0.4l43.7,25.2c0.1,0,0.1,0.1,0.1,0.1c1.1,0.7,1.7,1.8,1.9,3.3
								c0.1,1.4-0.2,2.9-1,4.3C120.6,111.8,118.5,113.1,116.6,113.1z M115.6,110.8C115.6,110.8,115.7,110.8,115.6,110.8
								c1.4,0.8,3.4-0.2,4.5-2.1c0.6-1,0.8-2.1,0.7-3c-0.1-0.9-0.5-1.5-1-1.8l-0.1-0.1L76.9,79l-4.1,7.1L115.6,110.8z"/>
						</g>
						<path class="st0" d="M120.3,102.9L120.3,102.9L79.8,79.5l-2.5,4.4l39.9,23c2.2,1.3,4.9-1.1,3.7-3.4
							C120.7,103.3,120.5,103.1,120.3,102.9z"/>
						<path class="st3" d="M116.6,113.1c-0.6,0-1.2-0.1-1.8-0.4c-0.1,0-0.1,0-0.2-0.1L71,87.4c-0.2-0.1-0.4-0.4-0.5-0.6
							s0-0.5,0.1-0.8l5.1-8.8c0.3-0.5,0.9-0.6,1.4-0.4l43.7,25.2c0.1,0,0.1,0.1,0.1,0.1c1.1,0.7,1.7,1.8,1.9,3.3
							c0.1,1.4-0.2,2.9-1,4.3C120.6,111.8,118.5,113.1,116.6,113.1z M115.6,110.8C115.6,110.8,115.7,110.8,115.6,110.8
							c1.4,0.8,3.4-0.2,4.5-2.1c0.6-1,0.8-2.1,0.7-3c-0.1-0.9-0.5-1.5-1-1.8l-0.1-0.1L76.9,79l-4.1,7.1L115.6,110.8z"/>
						<g>
							<path class="st1" d="M92.6,85L92.6,85l-11.7-6.8L74,90.1l11.7,6.8l0,0l0,0c2.4,1.4,5.9-0.2,7.7-3.4
								C95.4,90.1,95,86.3,92.6,85z"/>
							<path class="st1" d="M87.6,98.3c-0.8,0-1.6-0.2-2.2-0.5c-0.1,0-0.1,0-0.2-0.1l-11.7-6.8c-0.2-0.1-0.4-0.4-0.5-0.6
								s0-0.5,0.1-0.8L80,77.7c0.3-0.5,0.9-0.6,1.4-0.4l11.7,6.8c0.1,0,0.1,0.1,0.2,0.1c2.7,1.7,3.2,6,1.1,9.7
								C92.7,96.7,90.1,98.3,87.6,98.3z M86.1,95.9c0.1,0,0.1,0,0.2,0.1c1.9,1.1,4.8-0.3,6.4-3.1c1.6-2.7,1.3-6-0.5-7.1
								c-0.1,0-0.1-0.1-0.1-0.1l-10.7-6.2l-5.9,10.2L86.1,95.9z"/>
						</g>
						<path class="st2" d="M92.6,85L92.6,85l-8.3-4.8l-3.4,5.9l7.4,4.3c3,1.7,6.5-1.4,5-4.5C93.2,85.5,92.9,85.2,92.6,85z"/>
						<path class="st3" d="M87.6,98.3c-0.8,0-1.6-0.2-2.2-0.5c-0.1,0-0.1,0-0.2-0.1l-11.7-6.8c-0.2-0.1-0.4-0.4-0.5-0.6
							s0-0.5,0.1-0.8L80,77.7c0.3-0.5,0.9-0.6,1.4-0.4l11.7,6.8c0.1,0,0.1,0.1,0.2,0.1c2.7,1.7,3.2,6,1.1,9.7
							C92.7,96.7,90.1,98.3,87.6,98.3z M86.1,95.9c0.1,0,0.1,0,0.2,0.1c1.9,1.1,4.8-0.3,6.4-3.1c1.6-2.7,1.3-6-0.5-7.1
							c-0.1,0-0.1-0.1-0.1-0.1l-10.7-6.2l-5.9,10.2L86.1,95.9z"/>
						<path class="st2" d="M86.4,55.8L78.2,51l0,0c-3.3-1.9-7.7-1.7-12.4,1c-10.5,6-19,22.3-19,36.3c0,7.6,2.5,13,6.6,15.3l0,0
							l8.2,4.8l1.3-4.4c1-0.4,1.9-0.8,2.9-1.4c10.5-6,19-22.3,19-36.3c0-2.6-0.3-4.9-0.8-7L86.4,55.8z"/>
						<path class="st0" d="M78.2,51L78.2,51c-3.3-1.9-7.7-1.7-12.4,1c-5.7,3.3-10.9,9.7-14.3,17l28.7,16.6
							c2.9-6.1,4.6-12.9,4.6-19.2c0-2.6-0.3-4.9-0.8-7l2.5-3.6L78.2,51z"/>
						<path class="st4" d="M61.6,109.4c-0.2,0-0.3,0-0.5-0.1l-8.2-4.8c0,0-0.1,0-0.1-0.1c-4.4-2.6-6.9-8.5-6.9-16.1
							c0-14.3,8.7-30.9,19.5-37.1c4.8-2.8,9.5-3.2,13.3-1.1c0,0,0.1,0,0.1,0.1L87,55c0.2,0.1,0.4,0.4,0.5,0.6s0,0.6-0.2,0.8L85,59.6
							c0.5,2.1,0.8,4.3,0.8,6.8c0,14.3-8.7,30.9-19.5,37.1c-0.9,0.5-1.7,0.9-2.6,1.3l-1.1,3.9c-0.1,0.3-0.3,0.5-0.6,0.6
							C61.9,109.4,61.7,109.4,61.6,109.4z M54,102.8l7,4l0.9-3.1c0.1-0.3,0.3-0.5,0.6-0.7c0.9-0.3,1.8-0.8,2.8-1.3
							C75.5,95.9,83.8,80,83.8,66.4c0-2.4-0.3-4.7-0.8-6.7c-0.1-0.3,0-0.6,0.1-0.8l1.9-2.7L77.8,52c0,0-0.1,0-0.1-0.1
							c-3.1-1.8-7.2-1.5-11.4,1c-10.2,5.9-18.5,21.8-18.5,35.4C47.8,95.3,50,100.5,54,102.8L54,102.8z"/>
						<path class="st4" d="M74,83.1c-0.2,0-0.3,0-0.5-0.1l-8.2-4.8c-0.5-0.3-0.6-0.9-0.4-1.4c0.3-0.5,0.9-0.6,1.4-0.4l8.2,4.8
							c0.5,0.3,0.6,0.9,0.4,1.4C74.7,82.9,74.4,83.1,74,83.1z"/>
						<g>
							
								<ellipse transform="matrix(0.3916 -0.9201 0.9201 0.3916 -30.5106 118.0872)" class="st1" cx="74" cy="82.1" rx="29.1" ry="16.5"/>
							<path class="st1" d="M66.5,110.7c-1.9,0-3.7-0.5-5.4-1.4c-4.5-2.6-7.1-8.5-7.1-16.2c0-14.3,8.7-30.9,19.5-37.1
								c4.9-2.8,9.6-3.2,13.4-1c4.5,2.6,7.1,8.5,7.1,16.2c0,14.3-8.7,30.9-19.5,37.1C71.8,109.8,69,110.7,66.5,110.7z M81.6,55.5
								c-2.2,0-4.6,0.7-7,2.1C64.3,63.5,56.1,79.4,56.1,93c0,7,2.2,12.3,6.1,14.5c3.1,1.8,7.2,1.4,11.4-1
								C83.7,100.6,92,84.8,92,71.1c0-7-2.2-12.3-6.1-14.5C84.6,55.9,83.2,55.5,81.6,55.5z"/>
						</g>
						<path class="st2" d="M67.8,104.3c-5.4,0-8.8-5.1-8.8-13.1c0-11.3,6.9-24.5,15.4-29.4c2.1-1.2,4.1-1.8,5.9-1.8
							c5.4,0,8.8,5.1,8.8,13.1c0,11.3-6.9,24.5-15.4,29.4C71.6,103.6,69.7,104.3,67.8,104.3z"/>
						<path class="st0" d="M85.3,88.6l-22.6-13C60.4,80.5,59,86,59,91.1c0,8,3.5,13.1,8.8,13.1c1.9,0,3.8-0.6,5.9-1.8
							C78.4,99.8,82.5,94.6,85.3,88.6z"/>
						<path class="st3" d="M67.8,105.3c-6,0-9.8-5.5-9.8-14.1c0-11.7,7.1-25.2,15.9-30.3c2.2-1.3,4.4-1.9,6.4-1.9
							c6,0,9.8,5.5,9.8,14.1c0,11.7-7.1,25.2-15.9,30.3C72,104.6,69.8,105.3,67.8,105.3z M80.3,60.9c-1.7,0-3.5,0.6-5.4,1.7
							C66.6,67.3,60,80.1,60,91.1c0,7.4,3.1,12.1,7.8,12.1c1.7,0,3.5-0.6,5.4-1.7C81.4,96.9,88.1,84,88.1,73
							C88.1,65.7,85,60.9,80.3,60.9z"/>
						<path class="st3" d="M66.5,110.6c-1.9,0-3.7-0.4-5.3-1.3c0,0-0.1,0-0.1-0.1l-8.2-4.8c0,0-0.1,0-0.1-0.1
							c-4.4-2.6-6.9-8.5-6.9-16.1c0-8.4,3.1-18.2,8.3-26c0.2-0.4,0.4-0.6,0.6-0.9l0.1-0.2c0.2-0.3,0.4-0.5,0.6-0.8l0.2-0.2
							c0.2-0.2,0.4-0.5,0.6-0.7l0.2-0.2c0.2-0.3,0.4-0.5,0.6-0.8l0.2-0.2c0.6-0.7,1.2-1.4,1.8-2l1.2-1.2c0.1-0.1,0.3-0.3,0.4-0.4
							c0.2-0.1,0.3-0.3,0.5-0.4l0.4-0.4c0.2-0.1,0.3-0.3,0.5-0.4l0.4-0.3c0.2-0.1,0.4-0.3,0.5-0.4l0.4-0.3c0.2-0.1,0.4-0.3,0.6-0.4
							l0.3-0.2c0.3-0.2,0.6-0.4,1-0.6c4.8-2.8,9.5-3.2,13.3-1.1c0,0,0.1,0,0.1,0.1l8.2,4.8c0,0,0.1,0,0.1,0.1
							c4.4,2.6,6.9,8.5,6.9,16.1c0,14.3-8.7,30.9-19.5,37.1C71.8,109.8,69,110.6,66.5,110.6z M62,107.5
							C62,107.5,62.1,107.5,62,107.5c3.2,1.9,7.3,1.6,11.5-0.9c10.2-6,18.5-21.8,18.5-35.5c0-7-2.2-12.2-6.1-14.5c0,0-0.1,0-0.1-0.1
							l-8-4.6c0,0-0.1,0-0.1-0.1c-3.1-1.8-7.2-1.5-11.4,1c-0.3,0.2-0.6,0.4-0.9,0.5l-0.3,0.2c-0.2,0.1-0.4,0.3-0.6,0.4l-0.3,0.2
							c-0.2,0.2-0.4,0.3-0.6,0.4l-0.3,0.3c-0.2,0.2-0.4,0.3-0.5,0.4l-0.4,0.3c-0.1,0.1-0.3,0.3-0.4,0.4c-0.1,0.1-0.3,0.2-0.4,0.4
							l-1.2,1.2c-0.6,0.6-1.2,1.3-1.7,1.9l-0.2,0.2c-0.2,0.2-0.4,0.4-0.5,0.7l-0.2,0.3c-0.2,0.2-0.4,0.5-0.5,0.7L57,61.6
							c-0.2,0.2-0.4,0.5-0.5,0.8l-0.1,0.2c-0.2,0.3-0.4,0.6-0.6,0.8c-5,7.6-8,16.9-8,24.9c0,7,2.2,12.2,6.1,14.5c0,0,0.1,0,0.1,0.1
							L62,107.5z"/>
						<path class="st0" d="M74.3,61.7C65.9,66.6,59,79.8,59,91.1c0,3.3,0.6,6.1,1.7,8.3c1.5-0.2,3.2-0.8,4.8-1.7
							c8.5-4.9,15.4-18.1,15.4-29.4c0-3.3-0.6-6.1-1.7-8.3C77.6,60.2,76,60.7,74.3,61.7z"/>
						<path class="st5" d="M59,91l14.9-8.6V62C65.7,67.1,59,79.9,59,91z"/>
						<path class="st3" d="M60.7,100.4c-0.4,0-0.7-0.2-0.9-0.6c-1.2-2.3-1.8-5.4-1.8-8.7c0-11.7,7.1-25.2,15.9-30.3
							c1.8-1,3.5-1.6,5.2-1.9c0.4,0,0.8,0.2,1,0.5c1.2,2.3,1.8,5.4,1.8,8.7c0,11.7-7.1,25.2-15.9,30.3
							C64.2,99.4,62.5,100,60.7,100.4C60.7,100.4,60.7,100.4,60.7,100.4z M78.6,61.1c-1.2,0.2-2.5,0.7-3.7,1.5l0,0
							C66.6,67.3,60,80.1,60,91.1c0,2.7,0.4,5.2,1.3,7.2c1.2-0.2,2.5-0.7,3.7-1.5c8.2-4.7,14.9-17.6,14.9-28.6
							C79.9,65.5,79.4,63.1,78.6,61.1z M74.3,61.7L74.3,61.7L74.3,61.7z"/>
					</g>
				</g>
				<rect x="4" y="4" class="st6" width="120" height="120"/>
				<rect x="4" y="4" class="st6" width="120" height="120"/>
			</g>
		</g>
	</g>
	<g>
		<rect class="st6" width="128" height="128"/>
	</g>
</g>
</svg>
