<?xml version="1.0" encoding="utf-8"?>
<!-- Generator: Adobe Illustrator 24.1.0, SVG Export Plug-In . SVG Version: 6.00 Build 0)  -->
<svg version="1.1" id="Layer_1" xmlns="http://www.w3.org/2000/svg" xmlns:xlink="http://www.w3.org/1999/xlink" x="0px" y="0px"
	 viewBox="0 0 128 128" style="enable-background:new 0 0 128 128;" xml:space="preserve">
<style type="text/css">
	.st0{fill:#E9EBDF;}
	.st1{fill:#4D9987;}
	.st2{fill:#0E352C;}
	.st3{fill:#27ae60;}
	.st4{fill:#FFFFFF;}
	.st5{fill:#C4D7D3;}
	.st6{fill:#185849;}
	.st7{fill:none;}
</style>
<g id="Layer_1_1_">
</g>
<g>
	<g id="Layer_2_1_">
		<g id="Industries_1_">
			<g>
				<g>
					<path class="st0" d="M26,43.9c-4.3,10.2-6.8,21.1-6.8,31.5v36.1l5.2,3l7-4V74.2c0-7.9,1.9-16.4,5.1-24.2L26,43.9z"/>
					<path class="st1" d="M24.4,115.4c-0.2,0-0.3,0-0.5-0.1l-5.2-3c-0.3-0.2-0.5-0.5-0.5-0.9V75.3c0-25.8,15.8-55.9,35.1-67.1
						c8.6-4.9,16.9-5.6,23.5-1.9c0.1,0,0.1,0,0.2,0.1l5.2,3c0.3,0.2,0.5,0.6,0.5,1c0,0.3-0.1,0.5-0.3,0.7c0.4,0.5,0.8,1,1.2,1.5
						c0.2,0.3,0.2,0.6,0.1,1c-0.1,0.3-0.4,0.5-0.8,0.6l-13.7,2.4c-0.2,0-0.3,0-0.5,0c-0.3-0.1-0.7-0.2-1-0.3L56.8,20L32.4,51.7
						l-4.2,53.8c0,0.1,0,0.1,0,0.2l-2.7,9c-0.1,0.3-0.3,0.5-0.6,0.6C24.7,115.4,24.6,115.4,24.4,115.4z M20.2,110.8l3.6,2.1l2.3-7.7
						l4.2-54c0-0.2,0.1-0.4,0.2-0.5l24.8-32.2c0.1-0.2,0.3-0.3,0.5-0.3l11.5-4c0.2-0.1,0.3-0.1,0.5,0c0.5,0.1,0.9,0.2,1.3,0.3
						l11.9-2c-0.3-0.4-0.6-0.7-1-1.1c-0.2-0.2-0.3-0.6-0.2-0.9v-0.1l-3.6-2.1c-0.1,0-0.1,0-0.2-0.1C70,4.8,62.3,5.4,54.4,10
						C35.5,20.9,20.2,50.2,20.2,75.3V110.8z"/>
					<g>
						<path class="st1" d="M59.1,21.3L59.1,21.3c15.3-8.8,27.7,0.5,27.7,20.9v36.2L36.6,49.5C41.7,37.3,49.8,26.6,59.1,21.3z"/>
						<path class="st0" d="M36.6,49.5l50.1,28.9V42.2c0-0.2,0-0.4,0-0.6l-31.2-18C47.8,29.4,41,38.9,36.6,49.5z"/>
						<path class="st1" d="M42.4,52.9l37.5-15.2l-4.7-12.4L68,18.1c-2.8,0.3-5.8,1.4-8.9,3.2l0,0c-9.2,5.3-17.4,16.1-22.4,28.2
							L42.4,52.9z"/>
						<path class="st1" d="M73.8,18.4c4.1,4.1,6.6,11,6.6,20.1v36.2L36.6,49.5l0,0l50.1,28.9V42.2C86.8,29,81.6,20.5,73.8,18.4z"/>
						<path class="st1" d="M73.8,18.4c3,2.9,5.1,7.3,6,12.9l6.3,3.6C84.6,25.9,80.1,20.1,73.8,18.4z"/>
						<path class="st2" d="M86.8,79.4c-0.2,0-0.3,0-0.5-0.1L36.1,50.4c-0.5-0.3-0.6-0.9-0.4-1.4c0.3-0.5,0.9-0.6,1.4-0.4l0,0
							L79.4,73V38.6c0-8.5-2.2-15.4-6.3-19.4c-0.3-0.3-0.4-0.8-0.2-1.2c0.2-0.4,0.7-0.6,1.1-0.5c8.6,2.3,13.7,11.5,13.7,24.7v36.2
							c0,0.4-0.2,0.7-0.5,0.9C87.1,79.4,86.9,79.4,86.8,79.4z M81.5,74.2l4.3,2.5V42.2c0-10.2-3.2-17.8-8.6-21.3
							c2.8,4.4,4.3,10.5,4.3,17.6C81.5,38.5,81.5,74.2,81.5,74.2z"/>
						<path class="st2" d="M86.8,79.4c-0.2,0-0.3,0-0.5-0.1L36.1,50.4c-0.4-0.3-0.6-0.8-0.4-1.2C41,36.4,49.5,25.6,58.6,20.4l0,0
							c7-4,13.8-4.5,19.1-1.5c6.4,3.7,10.1,12.2,10.1,23.3v36.2c0,0.4-0.2,0.7-0.5,0.9C87.1,79.4,86.9,79.4,86.8,79.4z M37.9,49.1
							l47.8,27.6V42.2c0-10.3-3.3-18.2-9.1-21.5c-4.6-2.7-10.7-2.2-17,1.4l0,0C51.1,27,43,37.1,37.9,49.1z"/>
						<g>
							<g>
								<polygon class="st3" points="104.7,100.7 108.8,98.4 108.8,103.1 104.7,105.5 								"/>
								<path class="st3" d="M104.7,106.5c-0.2,0-0.3,0-0.5-0.1c-0.3-0.2-0.5-0.5-0.5-0.9v-4.7c0-0.4,0.2-0.7,0.5-0.9l4.1-2.4
									c0.3-0.2,0.7-0.2,1,0s0.5,0.5,0.5,0.9v4.7c0,0.4-0.2,0.7-0.5,0.9l-4.1,2.4C105.1,106.4,104.9,106.5,104.7,106.5z
									 M105.7,101.3v2.4l2.1-1.2v-2.4L105.7,101.3z"/>
							</g>
							<g>
								<path class="st4" d="M34.5,55.5l74.3,42.9l-4.1,2.4L33.3,59.5C33.7,58.2,34.1,56.8,34.5,55.5z"/>
								<path class="st3" d="M104.7,101.7c-0.2,0-0.3,0-0.5-0.1L32.8,60.4c-0.4-0.2-0.6-0.7-0.5-1.1c0.3-1.4,0.7-2.7,1.2-4.1
									c0.1-0.3,0.3-0.5,0.6-0.6s0.6-0.1,0.9,0.1l74.3,42.9c0.3,0.2,0.5,0.5,0.5,0.9s-0.2,0.7-0.5,0.9l-4.1,2.4
									C105.1,101.7,104.9,101.7,104.7,101.7z M34.5,59l70.2,40.6l2.1-1.2L35.1,57C34.9,57.7,34.7,58.3,34.5,59z"/>
							</g>
							<g>
								<path class="st5" d="M33.3,59.5l71.4,41.2v4.7L32.4,63.7C32.7,62.3,33,60.9,33.3,59.5z"/>
								<path class="st3" d="M104.7,106.5c-0.2,0-0.3,0-0.5-0.1L31.9,64.6c-0.4-0.2-0.6-0.6-0.5-1c0.3-1.4,0.6-2.8,0.9-4.2
									c0.1-0.3,0.3-0.6,0.6-0.7c0.3-0.1,0.6-0.1,0.9,0.1l71.4,41.2c0.3,0.2,0.5,0.5,0.5,0.9v4.7c0,0.4-0.2,0.7-0.5,0.9
									C105.1,106.4,104.9,106.5,104.7,106.5z M33.5,63.2l70.2,40.5v-2.4L34,61.1C33.8,61.8,33.7,62.5,33.5,63.2z"/>
							</g>
							<path class="st6" d="M104.7,106.5c-0.2,0-0.3,0-0.5-0.1L31.9,64.6c-0.4-0.2-0.6-0.6-0.5-1c0.5-2.8,1.2-5.6,2.1-8.3
								c0.1-0.3,0.3-0.5,0.6-0.6s0.6-0.1,0.9,0.1l74.3,42.9c0.3,0.2,0.5,0.5,0.5,0.9v4.7c0,0.4-0.2,0.7-0.5,0.9l-4.1,2.4
								C105.1,106.4,104.9,106.5,104.7,106.5z M33.5,63.2l71.2,41.1l3.1-1.8V99L35.1,57C34.4,59,33.9,61.1,33.5,63.2z"/>
						</g>
						<g>
							<g>
								<polygon class="st3" points="95.6,99.9 69.1,115.2 61.7,111 88.2,95.7 								"/>
								<path class="st3" d="M69.1,116.2c-0.2,0-0.3,0-0.5-0.1l-7.4-4.3c-0.3-0.2-0.5-0.5-0.5-0.9s0.2-0.7,0.5-0.9l26.5-15.3
									c0.3-0.2,0.7-0.2,1,0l7.4,4.3c0.3,0.2,0.5,0.5,0.5,0.9s-0.2,0.7-0.5,0.9l-26.5,15.3C69.4,116.2,69.2,116.2,69.1,116.2z
									 M63.7,111l5.4,3.1l24.5-14.2l-5.4-3.1L63.7,111z"/>
							</g>
							<g>
								<polygon class="st4" points="95.6,97.6 69.1,112.9 61.7,108.6 88.2,93.3 								"/>
								<path class="st3" d="M69.1,113.9c-0.2,0-0.3,0-0.5-0.1l-7.4-4.3c-0.3-0.2-0.5-0.5-0.5-0.9s0.2-0.7,0.5-0.9l26.5-15.3
									c0.3-0.2,0.7-0.2,1,0l7.4,4.3c0.3,0.2,0.5,0.5,0.5,0.9s-0.2,0.7-0.5,0.9l-26.5,15.3C69.4,113.8,69.2,113.9,69.1,113.9z
									 M63.7,108.6l5.4,3.1l24.5-14.2l-5.4-3.1L63.7,108.6z"/>
							</g>
							<g>
								<polygon class="st3" points="95.6,97.6 95.6,99.9 69.1,115.2 69.1,112.9 								"/>
								<path class="st3" d="M69.1,116.2c-0.2,0-0.3,0-0.5-0.1c-0.3-0.2-0.5-0.5-0.5-0.9v-2.4c0-0.4,0.2-0.7,0.5-0.9l26.5-15.3
									c0.3-0.2,0.7-0.2,1,0s0.5,0.5,0.5,0.9v2.4c0,0.4-0.2,0.7-0.5,0.9l-26.5,15.3C69.4,116.2,69.2,116.2,69.1,116.2z M70.1,113.5
									L70.1,113.5l24.5-14.1l0,0L70.1,113.5z"/>
							</g>
							<path class="st6" d="M69.1,116.2c-0.2,0-0.3,0-0.5-0.1l-7.4-4.3c-0.3-0.2-0.5-0.5-0.5-0.9s0.2-0.7,0.5-0.9l0.5-0.3l-0.5-0.3
								c-0.3-0.2-0.5-0.5-0.5-0.9s0.2-0.7,0.5-0.9l26.5-15.3c0.3-0.2,0.7-0.2,1,0l7.4,4.3c0.3,0.2,0.5,0.5,0.5,0.9v2.4
								c0,0.4-0.2,0.7-0.5,0.9l-26.5,15.3C69.4,116.2,69.2,116.2,69.1,116.2z M63.7,111l5.4,3.1l25.5-14.7v-1.2l-6.4-3.7l-24.5,14.2
								l0.5,0.3c0.3,0.2,0.5,0.5,0.5,0.9s-0.2,0.7-0.5,0.9L63.7,111z"/>
						</g>
						<g>
							<g>
								<polygon class="st3" points="75.2,88.2 48.7,103.5 41.3,99.2 67.9,83.9 								"/>
								<path class="st3" d="M48.7,104.5c-0.2,0-0.3,0-0.5-0.1l-7.4-4.3c-0.3-0.2-0.5-0.5-0.5-0.9s0.2-0.7,0.5-0.9L67.4,83
									c0.3-0.2,0.7-0.2,1,0l7.4,4.3c0.3,0.2,0.5,0.5,0.5,0.9S76,88.8,75.7,89l-26.5,15.3C49,104.4,48.9,104.5,48.7,104.5z
									 M43.3,99.2l5.4,3.1l24.5-14.2L67.8,85L43.3,99.2z"/>
							</g>
							<g>
								<polygon class="st4" points="75.2,85.8 48.7,101.1 41.3,96.9 67.9,81.6 								"/>
								<path class="st3" d="M48.7,102.1c-0.2,0-0.3,0-0.5-0.1l-7.4-4.3c-0.3-0.2-0.5-0.5-0.5-0.9s0.2-0.7,0.5-0.9l26.5-15.3
									c0.3-0.2,0.7-0.2,1,0l7.4,4.3c0.3,0.2,0.5,0.5,0.5,0.9s-0.2,0.7-0.5,0.9L49.2,102C49,102.1,48.9,102.1,48.7,102.1z
									 M43.3,96.9l5.4,3.1l24.5-14.2l-5.4-3.1L43.3,96.9z"/>
							</g>
							<g>
								<polygon class="st3" points="75.2,85.8 75.2,88.2 48.7,103.5 48.7,101.1 								"/>
								<path class="st3" d="M48.7,104.5c-0.2,0-0.3,0-0.5-0.1c-0.3-0.2-0.5-0.5-0.5-0.9v-2.4c0-0.4,0.2-0.7,0.5-0.9l26.5-15.3
									c0.3-0.2,0.7-0.2,1,0s0.5,0.5,0.5,0.9v2.4c0,0.4-0.2,0.7-0.5,0.9l-26.5,15.3C49,104.4,48.9,104.5,48.7,104.5z M49.7,101.7
									L49.7,101.7l24.5-14.1l0,0L49.7,101.7z"/>
							</g>
							<path class="st6" d="M48.7,104.5c-0.2,0-0.3,0-0.5-0.1l-7.4-4.3c-0.3-0.2-0.5-0.5-0.5-0.9s0.2-0.7,0.5-0.9l0.5-0.3l-0.5-0.3
								c-0.3-0.2-0.5-0.5-0.5-0.9s0.2-0.7,0.5-0.9l26.5-15.3c0.3-0.2,0.7-0.2,1,0l7.4,4.3c0.3,0.2,0.5,0.5,0.5,0.9v2.4
								c0,0.4-0.2,0.7-0.5,0.9l-26.5,15.3C49,104.4,48.9,104.5,48.7,104.5z M43.3,99.2l5.4,3.1l25.5-14.7v-1.2l-6.4-3.7L43.3,96.9
								l0.5,0.3c0.3,0.2,0.5,0.5,0.5,0.9s-0.2,0.7-0.5,0.9L43.3,99.2z"/>
						</g>
						<g>
							<g>
								<polygon class="st3" points="54.8,76.4 31.6,89.8 26.5,84.3 47.5,72.1 								"/>
								<path class="st3" d="M31.6,90.8c-0.3,0-0.5-0.1-0.7-0.3L25.7,85c-0.2-0.2-0.3-0.5-0.3-0.8s0.2-0.6,0.5-0.7l21-12.1
									c0.3-0.2,0.7-0.2,1,0l7.4,4.3c0.3,0.2,0.5,0.5,0.5,0.9s-0.2,0.7-0.5,0.9L32.1,90.7C32,90.8,31.8,90.8,31.6,90.8z M28,84.5
									l3.8,4l21-12.1l-5.4-3.1L28,84.5z"/>
							</g>
							<g>
								<polygon class="st4" points="54.8,74 31.6,87.4 26.5,81.9 47.5,69.8 								"/>
								<path class="st3" d="M31.6,88.4c-0.3,0-0.5-0.1-0.7-0.3l-5.2-5.5c-0.2-0.2-0.3-0.5-0.3-0.8s0.2-0.6,0.5-0.7l21-12.1
									c0.3-0.2,0.7-0.2,1,0l7.4,4.3c0.3,0.2,0.5,0.5,0.5,0.9s-0.2,0.7-0.5,0.9L32.1,88.3C32,88.4,31.8,88.4,31.6,88.4z M28,82.2
									l3.8,4l21-12.1L47.4,71L28,82.2z"/>
							</g>
							<g>
								<polygon class="st3" points="54.8,74 54.8,76.4 31.6,89.8 31.6,87.4 								"/>
								<path class="st3" d="M31.6,90.8c-0.2,0-0.3,0-0.5-0.1c-0.3-0.2-0.5-0.5-0.5-0.9v-2.4c0-0.4,0.2-0.7,0.5-0.9l23.2-13.4
									c0.3-0.2,0.7-0.2,1,0s0.5,0.5,0.5,0.9v2.4c0,0.4-0.2,0.7-0.5,0.9L32.1,90.7C32,90.8,31.8,90.8,31.6,90.8z M32.6,88L32.6,88
									l21.2-12.3L32.6,88z"/>
							</g>
							<path class="st6" d="M31.6,90.8c-0.3,0-0.5-0.1-0.7-0.3L25.7,85c-0.2-0.2-0.3-0.5-0.3-0.8s0.2-0.6,0.5-0.7l0.5-0.3L26,82.8
								c-0.3-0.2-0.5-0.5-0.5-0.9s0.2-0.7,0.5-0.9l21-12.1c0.3-0.2,0.7-0.2,1,0l7.4,4.3c0.3,0.2,0.5,0.5,0.5,0.9v2.4
								c0,0.4-0.2,0.7-0.5,0.9L32.1,90.7C32,90.8,31.8,90.8,31.6,90.8z M28,84.5l3.8,4l22-12.7v-1.2l-6.4-3.7l-19,11l0.5,0.3
								c0.3,0.2,0.5,0.5,0.5,0.9S29.3,83.8,29,84L28,84.5z"/>
						</g>
						<g>
							<g>
								<polygon class="st5" points="31.4,93.5 74.3,118.3 74.3,123 31.4,98.2 								"/>
								<path class="st3" d="M74.3,124c-0.2,0-0.3,0-0.5-0.1L30.9,99.1c-0.3-0.2-0.5-0.5-0.5-0.9v-4.7c0-0.4,0.2-0.7,0.5-0.9
									c0.3-0.2,0.7-0.2,1,0l42.9,24.8c0.3,0.2,0.5,0.5,0.5,0.9v4.7c0,0.4-0.2,0.7-0.5,0.9C74.7,124,74.5,124,74.3,124z M32.4,97.6
									l40.9,23.7v-2.4L32.4,95.2V97.6z"/>
							</g>
							<g>
								<polygon class="st4" points="31.4,88.8 31.4,88.8 78.4,115.9 74.3,118.3 31.4,93.5 								"/>
								<path class="st3" d="M74.3,119.3c-0.2,0-0.3,0-0.5-0.1L30.9,94.3c-0.3-0.2-0.5-0.5-0.5-0.9v-4.7c0-0.4,0.2-0.7,0.5-0.9
									c0.3-0.2,0.7-0.2,1,0l47,27.2c0.3,0.2,0.5,0.5,0.5,0.9s-0.2,0.7-0.5,0.9l-4.1,2.4C74.7,119.2,74.5,119.3,74.3,119.3z
									 M32.4,92.9l41.9,24.2l2.1-1.2l-44-25.4V92.9z"/>
							</g>
							<g>
								<polygon class="st3" points="74.3,118.3 78.4,115.9 78.4,120.6 74.3,123 								"/>
								<path class="st3" d="M74.3,124c-0.2,0-0.3,0-0.5-0.1c-0.3-0.2-0.5-0.5-0.5-0.9v-4.7c0-0.4,0.2-0.7,0.5-0.9l4.1-2.4
									c0.3-0.2,0.7-0.2,1,0s0.5,0.5,0.5,0.9v4.7c0,0.4-0.2,0.7-0.5,0.9l-4.1,2.4C74.7,124,74.5,124,74.3,124z M75.3,118.9v2.4
									l2.1-1.2v-2.4L75.3,118.9z"/>
							</g>
							<path class="st6" d="M74.3,124c-0.2,0-0.3,0-0.5-0.1L30.9,99.1c-0.3-0.2-0.5-0.5-0.5-0.9v-9.4c0-0.4,0.2-0.7,0.5-0.9
								c0.3-0.2,0.7-0.2,1,0l47,27.2c0.3,0.2,0.5,0.5,0.5,0.9v4.7c0,0.4-0.2,0.7-0.5,0.9l-4.1,2.4C74.7,124,74.5,124,74.3,124z
								 M32.4,97.6l41.9,24.2l3.1-1.8v-3.6l-45-26V97.6z"/>
						</g>
						<path class="st2" d="M31.4,111.4c-0.6,0-1-0.4-1-1V74.2c0-20.7,12.6-44.8,28.2-53.8c7-4,13.8-4.5,19.1-1.5
							c6.4,3.7,10.1,12.2,10.1,23.3v36.2c0,0.6-0.4,1-1,1s-1-0.4-1-1V42.2c0-10.3-3.3-18.2-9.1-21.5C72,18,65.9,18.5,59.6,22.1
							c-15,8.7-27.2,32-27.2,52v36.2C32.4,111,32,111.4,31.4,111.4z"/>
						<path class="st2" d="M31.4,111.4c-0.6,0-1-0.4-1-1V74.2c0-20.7,12.6-44.8,28.2-53.8c7-4,13.8-4.5,19.1-1.5
							c6.4,3.7,10.1,12.2,10.1,23.3v36.2c0,0.6-0.4,1-1,1s-1-0.4-1-1V42.2c0-10.3-3.3-18.2-9.1-21.5C72,18,65.9,18.5,59.6,22.1
							c-15,8.7-27.2,32-27.2,52v36.2C32.4,111,32,111.4,31.4,111.4z"/>
					</g>
					<g>
						<path class="st1" d="M31.4,110.4V74.2c0-20.4,12.4-44.1,27.7-52.9l0,0c15.3-8.8,27.7,0.5,27.7,20.9v3.6v32.7l7-4V42.9v-4.5
							c0-25.5-15.5-37.2-34.6-26.2l0,0c-19.1,11-34.6,40.7-34.6,66.2v36.1L31.4,110.4z"/>
						<path class="st0" d="M24.4,115.4c-0.2,0-0.3,0-0.5-0.1c-0.3-0.2-0.5-0.5-0.5-0.9v-36c0-25.8,15.8-55.9,35.1-67.1
							c8.7-5,17.1-5.6,23.7-1.8c7.9,4.6,12.5,15.1,12.5,28.9v36.1c0,0.4-0.2,0.7-0.5,0.9l-7,4c-0.3,0.2-0.7,0.2-1,0
							s-0.5-0.5-0.5-0.9V42.2c0-10.3-3.3-18.2-9.1-21.5c-4.6-2.7-10.7-2.2-17,1.4c-15,8.7-27.2,32-27.2,52v36.2
							c0,0.4-0.2,0.7-0.5,0.9l-7,4C24.8,115.4,24.6,115.4,24.4,115.4z M72.9,9c-4.1,0-8.7,1.3-13.3,4C40.7,23.9,25.4,53.2,25.4,78.4
							v34.3l5-2.9V74.2c0-20.7,12.6-44.8,28.2-53.8c7-4,13.8-4.5,19.1-1.5c6.4,3.7,10.1,12.2,10.1,23.3v34.5l5-2.9V38.4
							c0-13-4.2-22.9-11.5-27.2C78.7,9.7,75.9,9,72.9,9z M31.4,110.4L31.4,110.4L31.4,110.4z"/>
					</g>
					<path class="st2" d="M24.4,115.4c-0.2,0-0.3,0-0.5-0.1l-5.2-3c-0.3-0.2-0.5-0.5-0.5-0.9V75.3c0-25.8,15.8-55.9,35.1-67.1
						c8.6-4.9,16.9-5.6,23.5-1.9c0.1,0,0.1,0,0.2,0.1l5.2,3c0.1,0,0.1,0.1,0.1,0.1c7.8,4.6,12.3,15.1,12.3,28.8v36.1
						c0,0.4-0.2,0.7-0.5,0.9l-7,4c-0.3,0.2-0.7,0.2-1,0s-0.5-0.5-0.5-0.9V42.2c0-10.3-3.3-18.2-9.1-21.5C72,18,65.9,18.5,59.6,22.1
						c-15,8.7-27.2,32-27.2,52v36.2c0,0.4-0.2,0.7-0.5,0.9l-7,4C24.8,115.4,24.6,115.4,24.4,115.4z M20.2,110.8l4.2,2.4l6-3.4V74.2
						c0-20.7,12.6-44.8,28.2-53.8c7-4,13.8-4.5,19.1-1.5c6.4,3.7,10.1,12.2,10.1,23.3v34.5l5-2.9V38.4c0-13-4.2-22.9-11.5-27.1
						c-0.1,0-0.1-0.1-0.1-0.1l-4.9-2.8c-0.1,0-0.1,0-0.2-0.1C70,4.8,62.3,5.4,54.4,10C35.5,20.9,20.2,50.2,20.2,75.3V110.8z
						 M93.7,74.4L93.7,74.4L93.7,74.4z"/>
				</g>
				<rect x="4" y="4" class="st7" width="120" height="120"/>
				<rect x="4" y="4" class="st7" width="120" height="120"/>
			</g>
		</g>
	</g>
	<g>
		<rect class="st7" width="128" height="128"/>
	</g>
</g>
</svg>
