<?xml version="1.0" encoding="utf-8"?>
<!-- Generator: Adobe Illustrator 24.1.0, SVG Export Plug-In . SVG Version: 6.00 Build 0)  -->
<svg version="1.1" id="Layer_1" xmlns="http://www.w3.org/2000/svg" xmlns:xlink="http://www.w3.org/1999/xlink" x="0px" y="0px"
	 viewBox="0 0 128 128" style="enable-background:new 0 0 128 128;" xml:space="preserve">
<style type="text/css">
	.st0{fill:#E9EBDF;}
	.st1{fill:#4D9987;}
	.st2{fill:#FFFFFF;}
	.st3{fill:#0E352C;}
	.st4{fill:none;}
</style>
<g id="Layer_1_1_">
</g>
<g>
	<g id="Layer_2_1_">
		<g id="Tech_Concepts_1_">
			<g>
				<g>
					<g>
						<g>
							<path class="st0" d="M84.2,38.8c0.2-0.7,0.3-1.5,0.5-2.2l11.3-16L78.3,10.4l0,0c-3.7-2.2-8.6-2-13.9,1.1
								c-6.1,3.5-11.7,10.2-15.6,18c-3.9-3.3-9.4-3.6-15.6-0.1C21.5,36.3,12,54.5,12,70.1c0,3.6,0.5,6.8,1.5,9.5l0,0
								c3.1,9.7,13.8,19.2,23.2,24.7l0,0l17.7,10.2l4.9-21.4C69.1,76.6,80.9,52.8,84.2,38.8L84.2,38.8z"/>
							<path class="st1" d="M54.4,115.5c-0.2,0-0.3,0-0.5-0.1l-17.7-10.2c0,0,0,0-0.1,0c-8.8-5.1-20.3-14.8-23.6-25.2v-0.1
								c-1-2.8-1.5-6.1-1.5-9.7c0-15.9,9.8-34.5,21.8-41.5c5.8-3.3,11.5-3.5,15.7-0.6c4.1-7.8,9.5-14,15.4-17.4
								c5.4-3.1,10.6-3.5,14.8-1.2c0,0,0.1,0,0.1,0.1l17.7,10.2c0.2,0.1,0.4,0.4,0.5,0.7c0.1,0.3,0,0.6-0.2,0.8L85.6,37
								c-0.1,0.6-0.3,1.3-0.4,1.9V39C81.9,53,70,77.1,60.3,93.5l-4.9,21.2c-0.1,0.3-0.3,0.6-0.6,0.7
								C54.6,115.5,54.5,115.5,54.4,115.5z M37.2,103.5l16.4,9.5l4.6-20c0-0.1,0.1-0.2,0.1-0.3c9.7-16.3,21.5-40.1,24.8-54v-0.1
								c0.2-0.7,0.3-1.4,0.5-2.1c0-0.1,0.1-0.3,0.2-0.4L94.5,21l-16.6-9.6c0,0-0.1,0-0.1-0.1c-3.5-2-8.1-1.6-12.9,1.1
								c-5.7,3.3-11.2,9.7-15.2,17.6c-0.1,0.3-0.4,0.5-0.7,0.5c-0.3,0.1-0.6,0-0.8-0.2c-3.7-3.2-8.8-3.2-14.4,0
								C22.3,37,13,54.8,13,70.1c0,3.4,0.5,6.5,1.4,9.1v0.1C17.4,88.7,28,98.1,37.2,103.5C37.2,103.4,37.2,103.4,37.2,103.5z"/>
						</g>
						<path class="st2" d="M86.7,33.7l9.2-13L78.3,10.4l0,0c-3.7-2.2-8.6-2-13.9,1.1c-2.3,1.4-4.6,3.2-6.7,5.3L86.7,33.7z"/>
						<g>
							<path class="st2" d="M67.8,77.8C73,67.9,78,57.2,81.2,48.3L48.8,29.6l0,0l0,0l-3.4-2c-3.4-1.2-7.6-0.7-12.1,1.9
								c-6.4,3.7-12.2,10.8-16.1,19.1L67.8,77.8z"/>
							<path class="st2" d="M68.2,79.2L15.9,49l0.4-0.8c4.1-8.8,10.1-15.9,16.5-19.5c4.6-2.7,9.1-3.4,13-2l0.2,0.1l36.6,21.1
								l-0.3,0.8c-3,8.2-7.8,18.8-13.5,29.7L68.2,79.2z M18.5,48.2l48.9,28.2c5.3-10.2,9.7-19.9,12.6-27.7L45,28.5
								c-3.3-1.1-7.1-0.5-11.2,1.9C27.9,33.7,22.4,40.2,18.5,48.2z"/>
						</g>
						<g>
							<path class="st1" d="M101.9,49c0.9-3.7,1.5-7.5,1.5-11.2c0-15.6-9.5-22.8-21.3-16.1c-6.1,3.5-11.7,10.2-15.6,18
								c-3.9-3.3-9.4-3.6-15.6-0.1c-11.7,6.8-21.3,25-21.3,40.6c0,3.6,0.5,6.8,1.5,9.5l0,0c4.3,13.6,23.9,27.1,33.6,29
								c0.5,0.2,1.1,0.2,1.7-0.2l0,0l0,0c0.1-0.1,0.3-0.2,0.4-0.3l0.1-0.1c0.1-0.1,0.2-0.2,0.4-0.4l0,0l0,0c0.3-0.3,0.5-0.6,0.7-0.9
								C77.9,103.8,97.5,67.7,101.9,49L101.9,49z"/>
							<path class="st0" d="M65.4,120c-0.3,0-0.7-0.1-1-0.2c-10.5-2.2-30-16.2-34.3-29.7V90c-1-2.8-1.5-6.1-1.5-9.7
								c0-15.9,9.8-34.5,21.8-41.5c5.8-3.3,11.5-3.5,15.7-0.6c4.1-7.8,9.5-14,15.4-17.4c5.4-3.1,10.7-3.5,14.9-1.1
								c5,2.9,7.8,9.5,7.8,18.1c0,3.6-0.5,7.4-1.5,11.3c0,0,0,0,0,0.1c-4.5,19.4-24.7,55.9-33.9,68.3c-0.2,0.3-0.5,0.7-0.8,1
								c0,0.1-0.1,0.1-0.1,0.1c-0.1,0.1-0.2,0.2-0.4,0.3c0,0-0.1,0.1-0.2,0.1c-0.2,0.1-0.3,0.3-0.5,0.4
								C66.5,119.8,65.9,120,65.4,120z M32.1,89.6c4.4,13.7,23.9,26.5,32.8,28.3c0.1,0,0.2,0,0.3,0.1c0.2,0.1,0.5,0,0.8-0.2
								c0.1-0.1,0.2-0.1,0.3-0.2l0.1-0.1c0,0,0.1-0.1,0.2-0.2c0,0,0,0,0.1-0.1l0,0c0.2-0.2,0.4-0.5,0.6-0.8
								c10.3-13.8,29.3-49.5,33.5-67.5v-0.1c0.9-3.8,1.4-7.5,1.4-10.9c0-7.9-2.5-13.8-6.8-16.3c-3.5-2-8.1-1.6-12.9,1.1
								c-5.7,3.3-11.2,9.7-15.2,17.6c-0.1,0.3-0.4,0.5-0.7,0.5c-0.3,0.1-0.6,0-0.8-0.2c-3.7-3.2-8.8-3.2-14.4,0
								C40,47.2,30.7,65,30.7,80.3c0,3.4,0.5,6.5,1.4,9.1C32.1,89.5,32.1,89.6,32.1,89.6z"/>
						</g>
						<path class="st3" d="M65.4,120c-0.3,0-0.7-0.1-1-0.2c-2.9-0.6-6.6-2.2-10.5-4.4h-0.1l-17.7-10.2c0,0,0,0-0.1,0
							c-8.8-5.1-20.3-14.8-23.6-25.2v-0.1c-1-2.8-1.5-6.1-1.5-9.7c0-15.9,9.8-34.5,21.8-41.5c5.8-3.3,11.5-3.5,15.7-0.6
							c4.1-7.8,9.5-14,15.4-17.4c5.4-3.1,10.6-3.5,14.8-1.2c0,0,0.1,0,0.1,0.1l17.7,10.2l0.1,0.1c4.9,2.9,7.7,9.5,7.7,18
							c0,3.6-0.5,7.4-1.5,11.3c0,0,0,0,0,0.1c-4.5,19.4-24.7,55.9-33.8,68.3c-0.2,0.3-0.5,0.7-0.8,1c0,0.1-0.1,0.1-0.1,0.1
							c-0.1,0.1-0.2,0.2-0.4,0.3c0,0-0.1,0.1-0.2,0.1c-0.2,0.1-0.3,0.3-0.5,0.4C66.5,119.8,65.9,120,65.4,120z M54.8,113.6
							L54.8,113.6c3.9,2.2,7.5,3.7,10.2,4.3c0.1,0,0.2,0,0.3,0.1c0.2,0.1,0.5,0,0.8-0.2c0.1-0.1,0.2-0.1,0.3-0.2l0.1-0.1
							c0,0,0.1-0.1,0.2-0.2c0,0,0,0,0.1-0.1l0,0c0.2-0.2,0.4-0.5,0.6-0.8c10.3-13.8,29.3-49.5,33.5-67.5v-0.1
							c0.9-3.8,1.4-7.5,1.4-10.9c0-7.9-2.5-13.8-6.9-16.3c0,0-0.1,0-0.1-0.1L77.9,11.4c0,0-0.1,0-0.1-0.1c-3.5-2-8.1-1.6-12.9,1.1
							c-5.7,3.3-11.2,9.7-15.2,17.6c-0.1,0.3-0.4,0.5-0.7,0.5c-0.3,0.1-0.6,0-0.8-0.2c-3.7-3.2-8.8-3.2-14.4,0
							C22.3,37,13,54.8,13,70.1c0,3.4,0.5,6.5,1.4,9.1v0.1c3,9.3,13.6,18.7,22.7,24c0,0,0,0,0.1,0L54.8,113.6z"/>
					</g>
					<path class="st3" d="M17,102c-0.3,0-0.7-0.2-0.9-0.5c-0.3-0.5-0.1-1.1,0.4-1.4l33.4-19.3l3.8-11.3c0.1-0.4,0.5-0.7,0.9-0.7
						s0.8,0.2,1,0.6l8.5,17.3l8.5-36.9c0.1-0.4,0.5-0.7,0.9-0.8c0.4,0,0.8,0.2,1,0.6L81.1,67l4.6-13.1c0.1-0.2,0.2-0.4,0.4-0.5
						l29.3-16.9c0.5-0.3,1.1-0.1,1.4,0.4s0.1,1.1-0.4,1.4L87.4,55L82,70.4c-0.1,0.4-0.5,0.7-0.9,0.7l0,0c-0.4,0-0.8-0.3-0.9-0.6
						l-6.4-16.8l-8.4,36.5c-0.1,0.4-0.4,0.7-0.9,0.8c-0.4,0-0.8-0.2-1-0.6l-8.7-17.6l-3.1,9.3c-0.1,0.2-0.2,0.4-0.4,0.5l-33.8,19.5
						C17.3,101.9,17.2,102,17,102z"/>
				</g>
				<rect x="4" y="4" class="st4" width="120" height="120"/>
				<rect x="4" y="4" class="st4" width="120" height="120"/>
			</g>
		</g>
	</g>
	<g>
		<rect class="st4" width="128" height="128"/>
	</g>
</g>
</svg>
