<?xml version="1.0" encoding="utf-8"?>
<!-- Generator: Adobe Illustrator 24.1.0, SVG Export Plug-In . SVG Version: 6.00 Build 0)  -->
<svg version="1.1" id="Layer_1" xmlns="http://www.w3.org/2000/svg" xmlns:xlink="http://www.w3.org/1999/xlink" x="0px" y="0px"
	 viewBox="0 0 128 128" style="enable-background:new 0 0 128 128;" xml:space="preserve">
<style type="text/css">
	.st0{fill:#C4D7D3;}
	.st1{fill:#185849;}
	.st2{fill:#27ae60;}
	.st3{fill:#FFFFFF;}
	.st4{fill:#E9EBDF;}
	.st5{fill:#0E352C;}
	.st6{fill:#4D9987;}
	.st7{fill:none;}
</style>
<g id="Layer_1_1_">
</g>
<g>
	<g id="Layer_2_1_">
		<g id="Objects_1_">
			<g>
				<g>
					<g>
						<path class="st0" d="M31.8,37.4c-10.7,0-26,9.5-26,28.3C5.8,75.8,23,77,35.5,73.9c12.5-3.2,16.8-9.4,16.8-15.8
							C52.3,47.6,43.3,37.4,31.8,37.4z"/>
						<path class="st1" d="M23.1,76.4c-5.8,0-11.3-1.1-14.8-3.8c-2.3-1.8-3.5-4.1-3.5-6.9c0-11.1,5.1-18.1,9.3-22
							c5-4.6,11.6-7.4,17.7-7.4c11.5,0,21.5,10.1,21.5,21.7c0,5.6-3,13.1-17.6,16.8C31.9,75.8,27.5,76.4,23.1,76.4z M31.8,38.4
							c-10.5,0-25,9.5-25,27.3c0,2.1,0.9,3.9,2.7,5.3c5.3,4.2,17,4.1,25.7,1.9c10.5-2.7,16-7.8,16-14.8
							C51.3,47.6,42.2,38.4,31.8,38.4z"/>
						<path class="st0" d="M23.2,74.7c-3.9,0-16.7-0.7-16.7-9c0-18,14.7-27.6,25.3-27.6c11.7,0,19.8,10.5,19.8,20
							c0,5-2.8,11.7-16.3,15.1C31.5,74.2,27.2,74.7,23.2,74.7z M31.8,40.1C22,40.1,8.5,49,8.5,65.7c0,6.5,11.3,7,14.7,7
							c3.8,0,7.9-0.5,11.6-1.4c6.7-1.7,14.8-5.4,14.8-13.2C49.6,49.6,42.3,40.1,31.8,40.1z"/>
						<g>
							<circle class="st0" cx="29.6" cy="23.1" r="18.1"/>
							<path class="st2" d="M41.2,12.8c-0.8-0.9-2.4,0-1.9,1.2c1.5,3.8,2,9.4-3.7,15.1s-11.3,5.3-15.1,3.7c-1.2-0.5-2.1,1.1-1.2,1.9
								c3.1,2.8,7.4,4.3,12,3.9c7.2-0.8,13-6.6,13.8-13.8C45.5,20.1,43.9,15.9,41.2,12.8z"/>
							<path class="st1" d="M29.6,42.1c-10.5,0-19.1-8.6-19.1-19.1S19.1,4,29.6,4s19.1,8.6,19.1,19.1S40.1,42.1,29.6,42.1z M29.6,6
								c-9.4,0-17.1,7.7-17.1,17.1s7.7,17.1,17.1,17.1s17.1-7.7,17.1-17.1S39,6,29.6,6z"/>
							
								<ellipse transform="matrix(0.7071 -0.7071 0.7071 0.7071 -4.1141 19.1958)" class="st3" cx="21.1" cy="14.6" rx="4.2" ry="2.6"/>
							<path class="st0" d="M29.6,40.4c-9.6,0-17.4-7.8-17.4-17.4S20,5.6,29.6,5.6S47,13.4,47,23C46.9,32.7,39.2,40.4,29.6,40.4z
								 M29.6,7.7c-8.5,0-15.4,6.9-15.4,15.4s6.9,15.4,15.4,15.4S45,31.6,45,23.1C44.9,14.6,38,7.7,29.6,7.7z"/>
						</g>
						
							<ellipse transform="matrix(0.6392 -0.769 0.769 0.6392 -33.3674 31.1465)" class="st3" cx="16.5" cy="51.1" rx="3.8" ry="2.3"/>
						<path class="st2" d="M49.8,58.1c0-5.9-3.4-12.2-9-15.6c-1.5-0.9-3.4,0.2-3.2,1.9c0.1,1.2,0.2,2.4,0.2,3.6
							c0,7.8-3.7,15.3-14.3,19.1c-1.6,0.6-3.4,1-5.1,1.4c-2.3,0.4-2.3,3.8,0.1,4.1c1.9,0.2,3.7,0.3,4.7,0.3c3.8,0,8-0.5,11.7-1.5
							C41.7,69.7,49.8,66,49.8,58.1z"/>
					</g>
					<g>
						<g>
							<path class="st0" d="M101.6,37.4c-10.7,0-26,9.5-26,28.3c0,10.1,17.2,11.3,29.7,8.2c12.5-3.2,16.8-9.4,16.8-15.8
								C122.2,47.6,113.2,37.4,101.6,37.4z"/>
							<path class="st1" d="M93,76.4c-5.8,0-11.3-1.1-14.8-3.8c-2.3-1.8-3.5-4.1-3.5-6.9c0-11.1,5.1-18.1,9.3-22
								c5-4.6,11.6-7.4,17.7-7.4c11.5,0,21.5,10.1,21.5,21.7c0,5.6-3,13.1-17.6,16.8C101.8,75.8,97.3,76.4,93,76.4z M101.6,38.4
								c-10.5,0-25,9.5-25,27.3c0,2.1,0.9,3.9,2.7,5.3c5.3,4.2,17,4.1,25.7,1.9c10.5-2.7,16-7.8,16-14.8
								C121.2,47.6,112,38.4,101.6,38.4z"/>
							<path class="st0" d="M93.1,74.7c-3.9,0-16.7-0.7-16.7-9c0-18,14.7-27.6,25.3-27.6c11.7,0,19.8,10.5,19.8,20
								c0,5-2.8,11.7-16.3,15.1C101.4,74.2,97.1,74.7,93.1,74.7z M101.6,40.1c-9.8,0-23.3,8.9-23.3,25.6c0,6.5,11.3,7,14.7,7
								c3.8,0,7.9-0.5,11.6-1.4c6.7-1.7,14.8-5.4,14.8-13.2C119.5,49.6,112.2,40.1,101.6,40.1z"/>
							<g>
								<circle class="st0" cx="99.4" cy="23.1" r="18.1"/>
								<path class="st2" d="M111,12.8c-0.8-0.9-2.4,0-1.9,1.2c1.5,3.8,2,9.4-3.7,15.1s-11.3,5.3-15.1,3.7c-1.2-0.5-2.1,1.1-1.2,1.9
									c3.1,2.8,7.4,4.3,12,3.9c7.2-0.8,13-6.6,13.8-13.8C115.4,20.1,113.8,15.9,111,12.8z"/>
								<path class="st1" d="M99.4,42.1c-10.5,0-19.1-8.6-19.1-19.1S88.9,4,99.4,4s19.1,8.6,19.1,19.1S109.9,42.1,99.4,42.1z
									 M99.4,6c-9.4,0-17,7.7-17,17.1s7.6,17,17,17s17.1-7.7,17.1-17.1S108.8,6,99.4,6z"/>
								
									<ellipse transform="matrix(0.7071 -0.7071 0.7071 0.7071 16.3049 68.5761)" class="st3" cx="90.9" cy="14.6" rx="4.2" ry="2.6"/>
								<path class="st0" d="M99.4,40.4C89.8,40.4,82,32.6,82,23S89.8,5.6,99.4,5.6s17.4,7.8,17.4,17.4
									C116.8,32.7,109,40.4,99.4,40.4z M99.4,7.7C90.9,7.7,84,14.6,84,23.1s6.9,15.4,15.4,15.4s15.4-6.9,15.4-15.4
									S107.9,7.7,99.4,7.7z"/>
							</g>
							
								<ellipse transform="matrix(0.6392 -0.769 0.769 0.6392 -8.1319 84.8786)" class="st3" cx="86.4" cy="51.1" rx="3.8" ry="2.3"/>
							<path class="st2" d="M119.6,58.1c0-5.9-3.4-12.2-9-15.6c-1.5-0.9-3.4,0.2-3.2,1.9c0.1,1.2,0.2,2.4,0.2,3.6
								c0,7.8-3.7,15.3-14.3,19.1c-1.6,0.6-3.4,1-5.1,1.4c-2.3,0.4-2.3,3.8,0.1,4.1c1.9,0.2,3.7,0.3,4.7,0.3c3.8,0,8-0.5,11.7-1.5
								C111.5,69.7,119.6,66,119.6,58.1z"/>
						</g>
					</g>
					<g>
						<g>
							<path class="st4" d="M66.8,74.8c-13.5,0-32.9,12.1-32.9,35.9c0,12.7,21.8,14.4,37.6,10.4s21.3-11.9,21.3-20.1
								C92.8,87.7,81.4,74.8,66.8,74.8z"/>
							<path class="st5" d="M55.8,124c-7.3,0-14.2-1.4-18.6-4.8c-2.9-2.2-4.3-5.1-4.3-8.6c0-14,6.4-22.7,11.7-27.6
								c6.3-5.8,14.6-9.3,22.2-9.3c14.4,0,27,12.7,27,27.2c0,7-3.8,16.4-22.1,21C66.9,123.3,61.3,124,55.8,124z M66.8,75.8
								c-13.4,0-31.9,12.1-31.9,34.9c0,2.8,1.2,5.2,3.5,7c6.8,5.3,21.7,5.2,32.8,2.4c13.4-3.4,20.5-10,20.5-19.1
								C91.8,87.6,80.1,75.8,66.8,75.8z"/>
							<path class="st4" d="M55.9,121.9c-4.9,0-20.9-0.8-20.9-11.2C35,88,53.4,75.9,66.8,75.9c14.7,0,24.9,13.2,24.9,25.1
								c0,6.3-3.5,14.7-20.4,18.9C66.3,121.2,60.9,121.9,55.9,121.9z M66.8,77.9C54.3,77.9,37,89.3,37,110.7
								c0,8.5,14.5,9.2,18.9,9.2c4.8,0,10.1-0.7,14.8-1.8c8.6-2.2,18.9-6.9,18.9-17C89.6,90.1,80.2,77.9,66.8,77.9z"/>
							<g>
								<circle class="st4" cx="63.9" cy="56.6" r="22.9"/>
								<path class="st6" d="M78.6,43.5c-1.1-1.2-3.1,0-2.4,1.5c2,4.8,2.6,11.9-4.7,19.1c-7.3,7.3-14.3,6.7-19.1,4.7
									c-1.5-0.6-2.7,1.4-1.5,2.4c4,3.5,9.3,5.5,15.2,4.9c9.1-1,16.5-8.3,17.5-17.5C84.1,52.9,82.2,47.5,78.6,43.5z"/>
								<path class="st5" d="M63.9,80.5C50.8,80.5,40,69.8,40,56.6s10.7-23.9,23.9-23.9s23.9,10.7,23.9,23.9S77.1,80.5,63.9,80.5z
									 M63.9,34.7c-12,0-21.9,9.8-21.9,21.9s9.8,21.9,21.9,21.9s21.9-9.8,21.9-21.9S76,34.7,63.9,34.7z"/>
								
									<ellipse transform="matrix(0.7071 -0.7071 0.7071 0.7071 -16.801 51.0049)" class="st3" cx="53.2" cy="45.8" rx="5.3" ry="3.3"/>
								<path class="st4" d="M63.9,78.4c-12,0-21.8-9.8-21.8-21.8s9.8-21.8,21.8-21.8s21.8,9.8,21.8,21.8S76,78.4,63.9,78.4z
									 M63.9,36.8c-10.9,0-19.8,8.9-19.8,19.8S53,76.4,63.9,76.4s19.8-8.9,19.8-19.8S74.8,36.8,63.9,36.8z"/>
							</g>
							<ellipse transform="matrix(0.6392 -0.769 0.769 0.6392 -53.797 69.751)" class="st3" cx="47.4" cy="92.2" rx="4.8" ry="3"/>
							<path class="st6" d="M89.6,101c0-7.4-4.4-15.4-11.4-19.8c-1.9-1.1-4.3,0.3-4,2.5c0.2,1.5,0.3,3.1,0.3,4.6
								c0,9.9-4.7,19.4-18.2,24.2c-2.1,0.7-4.3,1.3-6.5,1.7c-3,0.5-2.9,4.8,0.1,5.2c2.5,0.3,4.7,0.4,6,0.4c4.8,0,10.1-0.7,14.8-1.8
								C79.3,115.8,89.6,111.1,89.6,101z"/>
						</g>
					</g>
				</g>
				<rect x="4" y="4" class="st7" width="120" height="120"/>
				<rect x="4" y="4" class="st7" width="120" height="120"/>
			</g>
		</g>
	</g>
	<g>
		<rect class="st7" width="128" height="128"/>
	</g>
</g>
</svg>
