<?xml version="1.0" encoding="utf-8"?>
<!-- Generator: Adobe Illustrator 24.1.0, SVG Export Plug-In . SVG Version: 6.00 Build 0)  -->
<svg version="1.1" id="Layer_1" xmlns="http://www.w3.org/2000/svg" xmlns:xlink="http://www.w3.org/1999/xlink" x="0px" y="0px"
	 viewBox="0 0 128 128" style="enable-background:new 0 0 128 128;" xml:space="preserve">
<style type="text/css">
	.st0{fill:#E9EBDF;}
	.st1{fill:#0E352C;}
	.st2{fill:#FFFFFF;}
	.st3{fill:#4D9987;}
	.st4{fill:none;}
</style>
<g id="Layer_1_1_">
</g>
<g>
	<g id="Layer_2_1_">
		<g id="Objects_1_">
			<g>
				<g>
					<g>
						<path class="st0" d="M68.2,59.6c-16.7,0-40.5,14.9-40.5,44.3c0,15.7,26.8,17.7,46.3,12.8S100.2,102,100.2,92
							C100.3,75.6,86.2,59.6,68.2,59.6z"/>
						<path class="st1" d="M55.2,120.1c-10.7,0-19-2.5-23.2-5.9c-3.5-2.7-5.2-6.2-5.2-10.4C26.7,86.7,34.5,76,41,70
							c7.8-7.1,17.9-11.4,27.2-11.4c17.6,0,33,15.6,33,33.3c0,8.6-4.7,20-27,25.7C67.4,119.3,60.9,120.1,55.2,120.1z M68.2,60.6
							c-16.6,0-39.5,15-39.5,43.3c0,3.5,1.5,6.5,4.4,8.8c8.5,6.6,26.9,6.5,40.7,3c16.7-4.2,25.5-12.4,25.5-23.7
							C99.3,75.2,84.8,60.6,68.2,60.6z"/>
						<path class="st0" d="M54.9,117.4c-6,0-25.5-1-25.5-13.5c0-27.8,22.6-42.6,38.9-42.6c17.9,0,30.4,16.2,30.4,30.7
							c0,11-8.6,19-25,23.1C67.7,116.5,61,117.4,54.9,117.4z M68.2,63.2c-15.5,0-36.9,14.1-36.9,40.6c0,10.7,18,11.5,23.5,11.5
							c6,0,12.5-0.8,18.3-2.3c15.4-3.9,23.5-11.2,23.5-21.2C96.6,78.3,85,63.2,68.2,63.2z"/>
						<g>
							<circle class="st0" cx="64.8" cy="37.2" r="28.2"/>
							<path class="st1" d="M64.8,66.4c-16.1,0-29.2-13.1-29.2-29.2S48.7,8,64.8,8S94,21.1,94,37.2S80.9,66.4,64.8,66.4z M64.8,10
								c-15,0-27.2,12.2-27.2,27.2s12.2,27.2,27.2,27.2S92,52.2,92,37.2S79.8,10,64.8,10z"/>
							
								<ellipse transform="matrix(0.7071 -0.7071 0.7071 0.7071 -1.8299 43.3976)" class="st2" cx="51.5" cy="23.9" rx="6.5" ry="4"/>
							<path class="st0" d="M64.8,63.8c-14.7,0-26.6-11.9-26.6-26.6s11.9-26.6,26.6-26.6s26.6,11.9,26.6,26.6S79.4,63.8,64.8,63.8z
								 M64.8,12.6c-13.6,0-24.6,11-24.6,24.6s11,24.6,24.6,24.6s24.6-11,24.6-24.6C89.4,23.7,78.3,12.6,64.8,12.6z"/>
							<g>
								<path class="st3" d="M82.9,21.1c-1.3-1.5-3.8,0-3,1.8c2.4,5.9,3.1,14.6-5.8,23.6c-8.9,8.9-17.6,8.2-23.6,5.8
									c-1.8-0.7-3.3,1.7-1.8,3c4.9,4.4,11.5,6.8,18.7,6C78.6,60.1,87.7,51,88.9,39.8C89.7,32.6,87.2,26,82.9,21.1z"/>
								<path class="st3" d="M64.7,62c-6.1,0-11.8-2.2-16.4-6.3c-0.9-0.8-1-2-0.4-2.9c0.5-0.8,1.5-1.4,2.8-0.9
									c5.6,2.3,14.2,3.1,23-5.7s8-17.4,5.7-23c-0.5-1.2,0.1-2.3,0.9-2.8c1-0.6,2.2-0.4,2.9,0.4c4.7,5.3,6.9,12,6.1,19.1
									c-1.2,11.5-10.4,20.8-22,22C66.5,61.9,65.6,62,64.7,62z M49.8,52.7c-0.5,0-0.8,0.3-1,0.6c-0.3,0.4-0.4,1.1,0.2,1.7
									c5.1,4.5,11.5,6.6,18.3,5.9c11.1-1.2,19.9-10,21.1-21.1c0.7-6.8-1.4-13.3-5.9-18.3c-0.5-0.6-1.2-0.5-1.7-0.2
									c-0.4,0.3-0.8,0.8-0.5,1.5c2.4,5.9,3.3,14.9-5.9,24.1s-18.2,8.3-24.1,5.9C50.1,52.7,50,52.7,49.8,52.7z"/>
							</g>
						</g>
						<ellipse transform="matrix(0.6392 -0.769 0.769 0.6392 -46.2951 63.3818)" class="st2" cx="44.4" cy="81" rx="5.9" ry="3.6"/>
						<g>
							<path class="st3" d="M96.3,91.9c0-9.2-5.4-19-14-24.4c-2.3-1.4-5.3,0.4-4.9,3c0.2,1.9,0.3,3.8,0.3,5.7
								c0,12.1-5.7,23.9-22.4,29.8c-2.5,0.9-5.2,1.6-8,2.1c-3.6,0.6-3.5,5.9,0.1,6.4c3,0.4,5.8,0.5,7.4,0.5c6,0,12.4-0.8,18.2-2.3
								C83.7,110.1,96.3,104.3,96.3,91.9z"/>
							<path class="st3" d="M54.9,115.5c-1.7,0-4.5-0.1-7.5-0.5c-2.2-0.3-3.2-2-3.2-3.6s0.9-3.4,3.1-3.8c2.7-0.5,5.4-1.2,7.9-2.1
								c18.2-6.5,22-19.6,22-29.4c0-1.8-0.1-3.7-0.3-5.6c-0.2-1.4,0.5-2.7,1.7-3.5s2.8-0.8,4,0c8.5,5.3,14.3,15.2,14.3,24.8
								c0,12.7-12.8,18.6-23.6,21.3C67.4,114.7,60.9,115.5,54.9,115.5z M80.6,67.6c-0.5,0-1,0.1-1.5,0.4c-0.9,0.6-1.3,1.5-1.2,2.5
								c0.2,1.9,0.3,3.8,0.3,5.7c0,10.1-3.9,23.6-22.7,30.3c-2.6,0.9-5.3,1.6-8.1,2.1c-1.6,0.3-2.3,1.6-2.3,2.8
								c0,1.1,0.7,2.4,2.4,2.6c3,0.4,5.6,0.5,7.3,0.5c5.9,0,12.3-0.8,18.1-2.3c10.4-2.6,22.9-8.3,22.9-20.4
								c0-9.2-5.5-18.8-13.8-23.9C81.6,67.7,81.1,67.6,80.6,67.6z"/>
						</g>
					</g>
				</g>
				<rect x="4" y="4" class="st4" width="120" height="120"/>
				<rect x="4" y="4" class="st4" width="120" height="120"/>
			</g>
		</g>
	</g>
	<g>
		<rect class="st4" width="128" height="128"/>
	</g>
</g>
</svg>
