<?xml version="1.0" encoding="utf-8"?>
<!-- Generator: Adobe Illustrator 24.1.0, SVG Export Plug-In . SVG Version: 6.00 Build 0)  -->
<svg version="1.1" id="Layer_1" xmlns="http://www.w3.org/2000/svg" xmlns:xlink="http://www.w3.org/1999/xlink" x="0px" y="0px"
	 viewBox="0 0 128 128" style="enable-background:new 0 0 128 128;" xml:space="preserve">
<style type="text/css">
	.st0{fill:#E9EBDF;}
	.st1{fill:#4D9987;}
	.st2{fill:#FFFFFF;}
	.st3{fill:#0E352C;}
	.st4{fill:none;}
</style>
<g id="Layer_1_1_">
</g>
<g>
	<g id="Layer_2_1_">
		<g id="Objects_1_">
			<g>
				<g>
					<g>
						<path class="st0" d="M86.7,8.8l-6.1-3.5l0,0C80,5,79.2,5,78.4,5.5l-34.8,20c-1.9,1.1-3.4,4-3.4,6.5v84.4
							c0,1.4,0.5,2.3,1.2,2.8l0,0l6.1,3.5l2.3-8.7l27.3-15.8c1.9-1.1,3.4-4,3.4-6.5V23.2L86.7,8.8z"/>
						<path class="st1" d="M47.4,123.8c-0.2,0-0.3,0-0.5-0.1l-6.1-3.5c0,0-0.1,0-0.1-0.1c-1-0.6-1.6-1.9-1.6-3.6V32
							c0-2.9,1.7-6.1,3.9-7.4L77.8,4.5C78.9,3.9,80,3.8,81,4.3c0,0,0.1,0,0.1,0.1l6.1,3.5c0.4,0.3,0.6,0.8,0.4,1.3l-6,14.3v68.3
							c0,2.9-1.7,6.1-3.9,7.4l-27,15.6l-2.2,8.3c-0.1,0.3-0.3,0.5-0.6,0.7C47.7,123.7,47.6,123.8,47.4,123.8z M41.9,118.4l4.9,2.8
							l2-7.4c0.1-0.3,0.2-0.5,0.5-0.6l27.3-15.8c1.6-0.9,2.9-3.5,2.9-5.7V23.2c0-0.1,0-0.3,0.1-0.4l5.8-13.6l-5.3-3.1H80
							c-0.4-0.2-0.9,0-1.2,0.2l-34.7,20c-1.6,0.9-2.9,3.5-2.9,5.7v84.4C41.1,117.4,41.4,118.1,41.9,118.4
							C41.8,118.4,41.9,118.4,41.9,118.4z"/>
					</g>
					<path class="st1" d="M41.1,28.4c-0.6,1.1-0.9,2.4-0.9,3.7v84.4c0,1.4,0.5,2.3,1.2,2.8l0,0l6.1,3.5l2.3-8.7l27.3-15.8
						c1.9-1.1,3.4-4,3.4-6.5V51.2L41.1,28.4z"/>
					<g>
						<path class="st0" d="M84.4,102.5l-34.8,20.1c-1.9,1.1-3.4-0.1-3.4-2.6V35.6c0-2.5,1.5-5.4,3.4-6.5L84.4,8.9
							c1.9-1.1,3.4,0.1,3.4,2.6V96C87.9,98.5,86.3,101.4,84.4,102.5z"/>
						<path class="st1" d="M48.3,124c-0.5,0-1-0.1-1.4-0.4c-1.1-0.6-1.7-1.9-1.7-3.6V35.6c0-2.9,1.7-6.1,3.9-7.4L83.9,8.1
							c1.1-0.7,2.3-0.7,3.2-0.2c1.1,0.6,1.7,1.9,1.7,3.6V96c0,2.9-1.7,6.1-3.9,7.4l0,0l-34.8,20.1C49.5,123.8,48.9,124,48.3,124z
							 M85.8,9.5c-0.3,0-0.7,0.2-0.9,0.3L50.2,29.9c-1.6,0.9-2.9,3.5-2.9,5.7V120c0,0.9,0.3,1.7,0.7,1.9c0.4,0.2,1,0,1.2-0.2
							L84,101.6c1.6-0.9,2.9-3.5,2.9-5.7V11.5c0-0.9-0.3-1.7-0.7-1.9C86.1,9.6,85.9,9.5,85.8,9.5z M84.4,102.5L84.4,102.5
							L84.4,102.5z"/>
					</g>
					<path class="st2" d="M48.3,124c-0.5,0-1-0.1-1.4-0.4c-1.1-0.6-1.7-1.9-1.7-3.6V35.6c0-2.9,1.7-6.1,3.9-7.4L83.9,8.1
						c1.1-0.7,2.3-0.7,3.2-0.2c1.1,0.6,1.7,1.9,1.7,3.6V96c0,2.9-1.7,6.1-3.9,7.4l-34.8,20.1C49.5,123.8,48.9,124,48.3,124z
						 M85.8,9.5c-0.3,0-0.7,0.2-0.9,0.3L50.2,29.9c-1.6,0.9-2.9,3.5-2.9,5.7V120c0,0.9,0.3,1.7,0.7,1.9c0.4,0.2,1,0,1.2-0.2
						L84,101.6c1.6-0.9,2.9-3.5,2.9-5.7V11.5c0-0.9-0.3-1.7-0.7-1.9C86.1,9.6,85.9,9.5,85.8,9.5z"/>
					<path class="st2" d="M48.3,123.5c-1.3,0-2.6-1.1-2.6-3.5V35.6c0-2.7,1.6-5.8,3.7-7L84.2,8.5C84.7,8.2,85.3,8,85.8,8
						c1.3,0,2.6,1.1,2.6,3.5V96c0,2.7-1.6,5.8-3.7,7l-34.8,20C49.4,123.3,48.8,123.5,48.3,123.5z M84.9,12.2L51.2,31.6
						c-0.9,0.5-1.9,2.4-1.9,3.9v83.8L83,99.9c0.9-0.5,1.9-2.4,1.9-3.9V12.2z"/>
					<path class="st2" d="M87.9,29.7V11.5c0-2.5-1.5-3.7-3.4-2.6L49.7,29c-1.9,1.1-3.4,4-3.4,6.5v66.2L87.9,29.7z"/>
					<path class="st1" d="M48.3,124c-0.5,0-1-0.1-1.4-0.4c-1.1-0.6-1.7-1.9-1.7-3.6V35.6c0-2.9,1.7-6.1,3.9-7.4L83.9,8.1
						c1.1-0.7,2.3-0.7,3.2-0.2c1.1,0.6,1.7,1.9,1.7,3.6V96c0,2.9-1.7,6.1-3.9,7.4l0,0l-34.8,20.1C49.5,123.8,48.9,124,48.3,124z
						 M85.8,9.5c-0.3,0-0.7,0.2-0.9,0.3L50.2,29.9c-1.6,0.9-2.9,3.5-2.9,5.7V120c0,0.9,0.3,1.7,0.7,1.9c0.4,0.2,1,0,1.2-0.2
						L84,101.6c1.6-0.9,2.9-3.5,2.9-5.7V11.5c0-0.9-0.3-1.7-0.7-1.9C86.1,9.6,85.9,9.5,85.8,9.5z M84.4,102.5L84.4,102.5L84.4,102.5
						z"/>
					<path class="st3" d="M48.3,124c-0.5,0-0.9-0.1-1.3-0.3c0,0-0.1,0-0.1-0.1l-6.1-3.5c0,0-0.1,0-0.1-0.1c-1-0.6-1.6-1.9-1.6-3.6
						V32c0-2.9,1.7-6.1,3.9-7.4L77.8,4.5C78.9,3.9,80,3.8,81,4.3c0,0,0.1,0,0.1,0.1l6.1,3.5c0,0,0.1,0,0.1,0.1
						c1,0.6,1.6,1.9,1.6,3.6V96c0,2.9-1.7,6.1-3.9,7.4l-34.8,20.1C49.6,123.8,48.9,124,48.3,124z M47.9,121.9L47.9,121.9
						c0.5,0.3,1,0.1,1.3-0.1L84,101.7c1.6-0.9,2.9-3.5,2.9-5.7V11.5c0-0.9-0.3-1.7-0.7-1.9c0,0-0.1,0-0.1-0.1l-6-3.4H80
						c-0.4-0.2-0.9,0-1.2,0.2l-34.7,20c-1.6,0.9-2.9,3.5-2.9,5.7v84.4c0,0.9,0.3,1.7,0.7,1.9c0,0,0.1,0,0.1,0.1L47.9,121.9z"/>
					<g>
						
							<ellipse transform="matrix(0.3916 -0.9201 0.9201 0.3916 20.3141 75.2641)" class="st1" cx="67.1" cy="22.3" rx="3.8" ry="2.2"/>
						<path class="st1" d="M66.1,26.9c-0.4,0-0.8-0.1-1.1-0.3c-0.9-0.5-1.4-1.6-1.4-2.9c0-2.2,1.3-4.7,3-5.6
							c0.9-0.5,1.9-0.6,2.6-0.1c0.9,0.5,1.4,1.6,1.4,2.9c0,2.2-1.3,4.7-3,5.6C67.1,26.8,66.6,26.9,66.1,26.9z M68.1,19.7
							c-0.1,0-0.3,0.1-0.5,0.2c-1.1,0.6-2,2.4-2,3.9c0,0.7,0.2,1,0.4,1.2c0.1,0.1,0.4,0,0.6-0.1c1.1-0.6,2-2.4,2-3.9
							c0-0.7-0.2-1-0.4-1.2C68.2,19.7,68.1,19.7,68.1,19.7z"/>
					</g>
					<g>
						<path class="st1" d="M72.1,16.1c-1.4,0.8-2.5,2.9-2.5,4.8l-5,2.9c0-1.8-1.1-2.7-2.5-1.9L72.1,16.1z"/>
						<path class="st1" d="M64.6,24.8c-0.2,0-0.3,0-0.5-0.1c-0.3-0.2-0.5-0.5-0.5-0.9c0-0.7-0.2-1-0.4-1.2c-0.1-0.1-0.4,0-0.6,0.1
							c-0.5,0.3-1.1,0.1-1.4-0.4s-0.1-1.1,0.4-1.4l0,0l0,0l10-5.8l0,0l0,0c0.5-0.3,1.1-0.1,1.4,0.4s0.1,1.1-0.4,1.4l0,0l0,0
							c-1.1,0.6-2,2.4-2,3.9c0,0.4-0.2,0.7-0.5,0.9l-5,2.9C64.9,24.7,64.7,24.8,64.6,24.8z M64.8,21.4c0.2,0.2,0.3,0.5,0.4,0.8
							l3.3-1.9c0-0.4,0.1-0.8,0.2-1.1L64.8,21.4z"/>
					</g>
				</g>
				<rect x="4" y="4" class="st4" width="120" height="120"/>
				<rect x="4" y="4" class="st4" width="120" height="120"/>
			</g>
		</g>
	</g>
	<g>
		<rect class="st4" width="128" height="128"/>
	</g>
</g>
</svg>
