<?xml version="1.0" encoding="utf-8"?>
<!-- Generator: Adobe Illustrator 24.1.0, SVG Export Plug-In . SVG Version: 6.00 Build 0)  -->
<svg version="1.1" id="Layer_1" xmlns="http://www.w3.org/2000/svg" xmlns:xlink="http://www.w3.org/1999/xlink" x="0px" y="0px"
	 viewBox="0 0 128 128" style="enable-background:new 0 0 128 128;" xml:space="preserve">
<style type="text/css">
	.st0{fill:#E9EBDF;}
	.st1{fill:#0E352C;}
	.st2{fill:#FFFFFF;}
	.st3{fill:#4D9987;}
	.st4{fill:#27ae60;}
	.st5{fill:#C4D7D3;}
	.st6{fill:#185849;}
	.st7{fill:none;}
</style>
<g id="Layer_1_1_">
</g>
<g>
	<g id="Layer_2_1_">
		<g id="New_Illustrations_1_">
			<g>
				<g>
					<g>
						<path class="st0" d="M63,99.2l-17-9.8c-1.3-0.7-3.3-0.7-4.6,0l-22.5,13c-1.3,0.7-1.3,1.9,0,2.7l17,9.8L63,99.2z"/>
						<path class="st1" d="M45.3,120.4c-1,0-2-0.2-2.8-0.7l-24-13.9c-0.9-0.5-1.5-1.3-1.5-2.2s0.5-1.7,1.5-2.2l22.5-13
							c1.6-0.9,4-0.9,5.6,0l24,13.9c0.9,0.5,1.5,1.3,1.5,2.2c0,0.9-0.5,1.7-1.5,2.2l-22.5,13C47.4,120.2,46.3,120.4,45.3,120.4z
							 M43.8,89.8c-0.7,0-1.3,0.1-1.8,0.4l-22.5,13c-0.3,0.2-0.5,0.4-0.5,0.5s0.1,0.3,0.5,0.5l24,13.9c1,0.6,2.6,0.6,3.6,0l22.5-13
							l0,0c0.3-0.2,0.5-0.4,0.5-0.5s-0.1-0.3-0.5-0.5l-24-13.9C45.1,90,44.4,89.8,43.8,89.8z"/>
						<path class="st0" d="M91.5,7.9l-4.8-2.8l0,0c-0.3-0.2-0.7-0.2-1.1,0.1L11.9,47.8c-0.9,0.5-1.6,1.9-1.6,3.1v66
							c0,0.7,0.2,1.1,0.6,1.3l0,0l4.8,2.8l6.5-10.9l61.7-35.6c0.9-0.5,1.6-1.9,1.6-3.1V16L91.5,7.9z"/>
						<path class="st2" d="M86.7,5.1L86.7,5.1c-0.3-0.2-0.7-0.2-1.1,0.1L11.9,47.8c-0.5,0.3-1,0.9-1.3,1.6l58.3,33.7l14.9-8.6
							c0.9-0.5,1.6-1.9,1.6-3.1V16l6.1-8.1L86.7,5.1z"/>
						<path class="st0" d="M90.5,78.4L16.7,121c-0.9,0.5-1.6,0-1.6-1.2v-66c0-1.2,0.7-2.6,1.6-3.1L90.5,8c0.9-0.5,1.6,0,1.6,1.2v66
							C92.1,76.4,91.4,77.9,90.5,78.4z"/>
						<g>
							<path class="st3" d="M90.5,78.4L16.7,121c-0.9,0.5-1.6,0-1.6-1.2v-66c0-1.2,0.7-2.6,1.6-3.1L90.5,8c0.9-0.5,1.6,0,1.6,1.2v66
								C92.1,76.4,91.4,77.9,90.5,78.4z"/>
							<path class="st3" d="M16,122.2c-0.3,0-0.6-0.1-0.9-0.2c-0.7-0.4-1.1-1.2-1.1-2.2v-66c0-1.6,0.9-3.3,2.1-4L90,7.1
								c0.7-0.4,1.4-0.4,2-0.1c0.7,0.4,1.1,1.2,1.1,2.2v66c0,1.6-0.9,3.3-2.1,4l0,0l-73.8,42.6C16.8,122.1,16.4,122.2,16,122.2z
								 M91,8.8L91,8.8L17.2,51.4c-0.5,0.3-1.1,1.3-1.1,2.3v66c0,0.2,0,0.3,0.1,0.4c0,0,0,0,0.1,0L90,77.5c0.5-0.3,1.1-1.3,1.1-2.3
								v-66C91.1,9,91.1,8.9,91,8.8z"/>
						</g>
						<g>
							<path class="st1" d="M90.5,8L16.7,50.6c-0.9,0.5-1.6,1.9-1.6,3.1v58.8l77-44.5V9.2C92.1,8,91.4,7.4,90.5,8z"/>
							<path class="st1" d="M15,113.5c-0.2,0-0.3,0-0.5-0.1c-0.3-0.2-0.5-0.5-0.5-0.9V53.7c0-1.6,0.9-3.3,2.1-4L90,7.1
								c0.7-0.4,1.4-0.4,2-0.1c0.7,0.4,1.1,1.2,1.1,2.2V68c0,0.4-0.2,0.7-0.5,0.9l-77.1,44.5C15.4,113.4,15.2,113.5,15,113.5z
								 M91,8.8L91,8.8L91,8.8L17.2,51.4c-0.5,0.3-1.1,1.3-1.1,2.3v57.1l75.1-43.3V9.2C91.1,9,91.1,8.9,91,8.8z M90.5,8L90.5,8
								L90.5,8z"/>
						</g>
						
							<ellipse transform="matrix(0.3916 -0.9201 0.9201 0.3916 -54.8989 106.9704)" class="st0" cx="53.4" cy="95" rx="2" ry="1.1"/>
						<polygon class="st2" points="18.8,54.1 88.4,13.9 88.4,65.7 18.8,105.9 						"/>
						<polygon class="st0" points="88.4,65.7 88.4,13.9 76,21.1 31.2,98.7 						"/>
						<path class="st1" d="M16,122.2c-0.3,0-0.5-0.1-0.7-0.2c-0.1,0-0.1,0-0.2-0.1l-4.8-2.8c-0.7-0.4-1.1-1.2-1.1-2.2v-66
							c0-1.6,0.9-3.3,2.1-4L85.2,4.3c0.7-0.4,1.5-0.4,2.1-0.1L92,7c0.1,0,0.1,0.1,0.2,0.1c0.6,0.4,0.9,1.2,0.9,2.1v66
							c0,1.6-0.9,3.3-2.1,4l-73.8,42.6C16.8,122.1,16.4,122.2,16,122.2z M16.1,120.2L16.1,120.2L16.1,120.2z M16,120.1L16,120.1
							c0.1,0,0.1,0,0.2,0L90,77.5c0.5-0.3,1.1-1.3,1.1-2.3v-66c0-0.3-0.1-0.4-0.1-0.5c0,0-0.1,0-0.1-0.1L86.3,6c0,0,0,0-0.1,0.1
							L12.4,48.7C11.9,49,11.3,50,11.3,51v66c0,0.3,0.1,0.5,0.1,0.5L16,120.1z"/>
						<path class="st2" d="M18.8,54.1v51.8l69.6-40.2V13.9L18.8,54.1z M85.4,64l-63.7,36.8v-45L85.4,19V64z"/>
					</g>
					<g>
						<g>
							<g>
								<path class="st4" d="M80.1,82.5v34.6c0,0.8,0.6,1.7,1.7,2.3l4.5,2.6c2.2,1.3,5.8,1.3,8,0l21.8-12.6c1.1-0.6,1.7-1.5,1.7-2.3
									V72.5L80.1,82.5z"/>
								<path class="st5" d="M90.2,79.9l-10.1,2.7v34.6c0,0.8,0.6,1.7,1.7,2.3l4.5,2.6c1.1,0.6,2.5,0.9,3.9,1V79.9z"/>
								<g>
									<path class="st2" d="M116.1,74.8L94.3,87.4c-2.2,1.3-5.8,1.3-8,0l-4.5-2.6c-2.2-1.3-2.2-3.3,0-4.6l21.8-12.6
										c2.2-1.3,5.8-1.3,8,0l4.5,2.6C118.3,71.5,118.3,73.6,116.1,74.8z"/>
									<path class="st4" d="M90.3,89.4c-1.6,0-3.2-0.4-4.5-1.1l-4.5-2.6c-1.4-0.8-2.2-1.9-2.2-3.2s0.8-2.4,2.2-3.2l21.8-12.6
										c2.5-1.5,6.5-1.5,9,0l4.5,2.6c1.4,0.8,2.2,1.9,2.2,3.2s-0.8,2.4-2.2,3.2L94.8,88.3C93.5,89,91.9,89.4,90.3,89.4z
										 M107.6,67.7c-1.3,0-2.6,0.3-3.5,0.8L82.3,81.1c-0.7,0.4-1.2,1-1.2,1.4s0.4,1,1.2,1.4l4.5,2.6c1.9,1.1,5.1,1.1,7,0
										L115.6,74l0,0c0.7-0.4,1.2-1,1.2-1.4s-0.4-1-1.2-1.4l-4.5-2.6C110.2,67.9,108.9,67.7,107.6,67.7z"/>
								</g>
							</g>
						</g>
						<g>
							<g>
								<path class="st6" d="M108.2,93.6c0-2.2-1.4-3.3-3-2.3c-1.7,1-3,3.6-3,5.8c0,1.5,0.6,2.4,1.5,2.6l-0.6,7.8l4.4-2.5l-0.6-7.1
									C107.6,96.7,108.2,95.1,108.2,93.6z"/>
								<path class="st6" d="M103,108.6c-0.2,0-0.4-0.1-0.5-0.2c-0.3-0.2-0.5-0.6-0.5-0.9l0.6-7.1c-0.9-0.6-1.4-1.8-1.4-3.2
									c0-2.6,1.6-5.5,3.5-6.7c1.1-0.6,2.1-0.7,3-0.2c1,0.6,1.6,1.8,1.6,3.3s-0.5,3.2-1.4,4.6l0.6,6.8c0,0.4-0.2,0.8-0.5,1
									l-4.4,2.5C103.3,108.5,103.2,108.6,103,108.6z M106.4,92c-0.3,0-0.5,0.1-0.7,0.2c-1.4,0.8-2.5,3.1-2.5,4.9
									c0,0.9,0.3,1.6,0.7,1.6c0.5,0.1,0.8,0.6,0.8,1.1l-0.5,5.9l2.2-1.3l-0.6-6.5c0-0.2,0-0.5,0.2-0.7c0.8-1.1,1.3-2.5,1.3-3.7
									c0-0.9-0.3-1.4-0.6-1.6C106.6,92,106.5,92,106.4,92z"/>
							</g>
						</g>
						<path class="st6" d="M90.3,124c-1.6,0-3.2-0.4-4.5-1.1l-4.5-2.6c-1.4-0.8-2.2-1.9-2.2-3.2V82.5c0-1.2,0.8-2.4,2.2-3.2
							l21.8-12.6c2.5-1.5,6.5-1.5,9,0l4.5,2.6c1.4,0.8,2.2,1.9,2.2,3.2v34.6c0,1.2-0.8,2.4-2.2,3.2l-21.8,12.6
							C93.5,123.6,91.9,124,90.3,124z M107.6,67.7c-1.3,0-2.6,0.3-3.5,0.8L82.3,81.1c-0.7,0.4-1.2,1-1.2,1.4v34.6
							c0,0.5,0.4,1,1.2,1.4l4.5,2.6c1.9,1.1,5.1,1.1,7,0l21.8-12.6c0.7-0.4,1.2-1,1.2-1.4V72.5c0-0.5-0.4-1-1.2-1.4l0,0l-4.5-2.6
							C110.2,67.9,108.9,67.7,107.6,67.7z"/>
						<g>
							<path class="st5" d="M106.8,45.4c-2.9-1.7-6.5-1.5-10,0.5c-6.1,3.5-10.9,12.5-10.9,20.5v15.3l0,0l0,0c0,1.3,1.9,2.4,4.2,2.4
								c2.3,0,4.2-1.1,4.2-2.4l0,0V66.3c0-5,3.1-11.1,6.7-13.2c0.9-0.5,1.4-0.5,1.5-0.5c0.3,0.2,0.9,1.3,0.9,3.5v15.3l0,0
								c0,1.3,1.9,2.4,4.2,2.4s4.2-1.1,4.2-2.4l0,0l0,0V56.2C111.9,51.2,110,47.3,106.8,45.4z"/>
							<path class="st4" d="M90.1,85.1c-2.9,0-5.2-1.5-5.2-3.4V66.3c0-8.3,5-17.6,11.4-21.3c3.7-2.2,7.7-2.3,11-0.5
								c3.6,2.1,5.6,6.3,5.6,11.6v15.3c0,1.9-2.3,3.4-5.2,3.4s-5.2-1.5-5.2-3.4V56.2c0-1.3-0.2-2-0.4-2.4c-0.2,0.1-0.4,0.1-0.6,0.3
								c-3.2,1.9-6.2,7.7-6.2,12.3v15.3C95.3,83.6,93,85.1,90.1,85.1z M102.4,45.2c-1.7,0-3.4,0.5-5.1,1.5
								c-5.8,3.4-10.4,12-10.4,19.6v15.3c0,0.6,1.3,1.4,3.2,1.4c1.9,0,3.2-0.9,3.2-1.4V66.3c0-5.4,3.3-11.8,7.2-14
								c0.5-0.3,1.8-0.9,2.5-0.5c0.9,0.5,1.4,2.2,1.4,4.3v15.3c0,0.6,1.3,1.4,3.2,1.4c1.9,0,3.2-0.9,3.2-1.4V56.2
								c0-4.6-1.7-8.2-4.6-9.9C105.1,45.6,103.8,45.2,102.4,45.2z M101.9,53.5L101.9,53.5L101.9,53.5z"/>
						</g>
						<path class="st4" d="M90,83.5c-0.6,0-1-0.4-1-1s0.4-1,1-1c1,0,1.5-0.3,1.8-0.4V66.2c0-2.6,0.7-5.6,2-8.3
							c0.2-0.5,0.8-0.7,1.3-0.5s0.7,0.8,0.5,1.3c-1.2,2.5-1.8,5.1-1.8,7.4v15.3C93.7,82.7,92,83.5,90,83.5z"/>
						<path class="st2" d="M105.4,70.5L105.4,70.5c-0.6,0-1-0.4-1-1V55.6c0-0.9-0.1-1.7-0.3-2.4c-0.2-0.7-0.5-1.3-0.9-1.5
							s-1.1,0-2,0.5c-0.7,0.4-1.3,0.9-2,1.6c-0.4,0.4-1,0.4-1.4,0s-0.4-1,0-1.4c0.8-0.8,1.6-1.4,2.4-1.9c1.5-0.9,2.9-1.1,4-0.5
							c0.8,0.5,1.4,1.4,1.8,2.6c0.2,0.9,0.4,1.9,0.4,2.9v13.9C106.4,70.1,106,70.5,105.4,70.5z"/>
						<path class="st4" d="M107.2,73.5c-0.6,0-1-0.4-1-1s0.4-1,1-1c1,0,1.5-0.2,1.8-0.4V56.2c0-2.5-0.6-4.8-1.6-6.4
							c-0.3-0.5-0.2-1.1,0.3-1.4c0.5-0.3,1.1-0.2,1.4,0.3c1.3,2,2,4.6,2,7.5v15.3C110.9,72.6,109.2,73.5,107.2,73.5z"/>
						<path class="st2" d="M87.8,79.6c-0.6,0-1-0.4-1-1V66.8c0-7.8,4.7-16.6,10.7-20.1c1.8-1,3.6-1.6,5.4-1.6c0.6,0,1,0.4,1,1
							s-0.4,1-1,1c-1.4,0-2.9,0.4-4.4,1.3c-5.4,3.1-9.7,11.2-9.7,18.4v11.8C88.8,79.2,88.4,79.6,87.8,79.6z"/>
						<path class="st6" d="M90.1,85.1c-2.9,0-5.2-1.5-5.2-3.4V66.3c0-8.3,5-17.6,11.4-21.3c3.7-2.2,7.7-2.3,11-0.5
							c3.6,2.1,5.6,6.3,5.6,11.6v15.3c0,1.9-2.3,3.4-5.2,3.4s-5.2-1.5-5.2-3.4V56.2c0-1.3-0.2-2-0.4-2.4c-0.2,0.1-0.4,0.1-0.6,0.3
							c-3.2,1.9-6.2,7.7-6.2,12.3v15.3C95.3,83.6,93,85.1,90.1,85.1z M102.4,45.2c-1.7,0-3.4,0.5-5.1,1.5
							c-5.8,3.4-10.4,12-10.4,19.6v15.3c0,0.6,1.3,1.4,3.2,1.4c1.9,0,3.2-0.9,3.2-1.4V66.3c0-5.4,3.3-11.8,7.2-14
							c0.5-0.3,1.8-0.9,2.5-0.5c0.9,0.5,1.4,2.2,1.4,4.3v15.3c0,0.6,1.3,1.4,3.2,1.4c1.9,0,3.2-0.9,3.2-1.4V56.2
							c0-4.6-1.7-8.2-4.6-9.9C105.1,45.6,103.8,45.2,102.4,45.2z M101.9,53.5L101.9,53.5L101.9,53.5z"/>
					</g>
				</g>
				<rect x="4" y="4" class="st7" width="120" height="120"/>
			</g>
		</g>
	</g>
	<g>
		<rect class="st7" width="128" height="128"/>
	</g>
</g>
</svg>
