<?xml version="1.0" encoding="utf-8"?>
<!-- Generator: Adobe Illustrator 24.1.0, SVG Export Plug-In . SVG Version: 6.00 Build 0)  -->
<svg version="1.1" id="Layer_1" xmlns="http://www.w3.org/2000/svg" xmlns:xlink="http://www.w3.org/1999/xlink" x="0px" y="0px"
	 viewBox="0 0 128 128" style="enable-background:new 0 0 128 128;" xml:space="preserve">
<style type="text/css">
	.st0{fill:none;}
	.st1{fill:#E9EBDF;}
	.st2{fill:#FFFFFF;}
	.st3{fill:#27ae60;}
	.st4{fill:#C4D7D3;}
	.st5{fill:#185849;}
	.st6{fill:#4D9987;}
	.st7{fill:#0E352C;}
</style>
<g id="Layer_1_1_">
</g>
<g>
	<g id="Layer_2_1_">
		<g id="Objects_1_">
			<g>
				<g>
					<rect x="4" y="4" class="st0" width="120" height="120"/>
					<rect x="4" y="4" class="st0" width="120" height="120"/>
				</g>
				<g>
					<path class="st1" d="M98.5,106.5c-0.2,0-0.3,0-0.5-0.1L78.8,95.3c-0.5-0.3-0.6-0.9-0.4-1.4c0.3-0.5,0.9-0.6,1.4-0.4L99,104.6
						c0.5,0.3,0.6,0.9,0.4,1.4C99.1,106.3,98.8,106.5,98.5,106.5z"/>
					<g>
						<g>
							<g>
								<g>
									<g>
										<g>
											<polygon class="st2" points="123,47.6 93.5,64.6 64,47.6 93.5,30.5 											"/>
											<path class="st3" d="M93.5,65.6c-0.2,0-0.3,0-0.5-0.1l-29.5-17C63.2,48.3,63,48,63,47.6s0.2-0.7,0.5-0.9l29.5-17
												c0.3-0.2,0.7-0.2,1,0l29.5,17c0.3,0.2,0.5,0.5,0.5,0.9s-0.2,0.7-0.5,0.9L94,65.5C93.8,65.5,93.7,65.6,93.5,65.6z
												 M66,47.6l27.5,15.9L121,47.6L93.5,31.7L66,47.6z"/>
										</g>
										<g>
											<polygon class="st2" points="105,47.6 93.5,54.2 82,47.6 93.5,40.9 											"/>
											<path class="st3" d="M93.5,55.2c-0.2,0-0.3,0-0.5-0.1l-11.5-6.6C81.2,48.3,81,48,81,47.6s0.2-0.7,0.5-0.9L93,40
												c0.3-0.2,0.7-0.2,1,0l11.5,6.6c0.3,0.2,0.5,0.5,0.5,0.9s-0.2,0.7-0.5,0.9L94,55.1C93.8,55.1,93.7,55.2,93.5,55.2z
												 M84,47.6l9.5,5.5l9.5-5.5l-9.5-5.5L84,47.6z"/>
										</g>
										<g>
											<polygon class="st3" points="123,47.6 123,68.9 93.5,85.9 93.5,64.6 											"/>
											<path class="st3" d="M93.5,86.9c-0.2,0-0.3,0-0.5-0.1c-0.3-0.2-0.5-0.5-0.5-0.9V64.6c0-0.4,0.2-0.7,0.5-0.9l29.5-17
												c0.3-0.2,0.7-0.2,1,0s0.5,0.5,0.5,0.9V69c0,0.4-0.2,0.7-0.5,0.9L94,86.8C93.8,86.9,93.7,86.9,93.5,86.9z M94.5,65.2v19
												L122,68.3v-19L94.5,65.2z"/>
										</g>
										<g>
											<polygon class="st4" points="64,47.6 64,65.6 93.5,85.9 93.5,64.6 											"/>
											<path class="st3" d="M93.5,86.9c-0.2,0-0.4-0.1-0.6-0.2L63.4,66.5C63.2,66.3,63,66,63,65.6v-18c0-0.4,0.2-0.7,0.5-0.9
												s0.7-0.2,1,0l29.5,17c0.3,0.2,0.5,0.5,0.5,0.9V86c0,0.4-0.2,0.7-0.5,0.9C93.8,86.9,93.7,86.9,93.5,86.9z M65,65.1
												L92.5,84V65.2L65,49.3V65.1z"/>
										</g>
										<path class="st5" d="M93.5,86.9c-0.2,0-0.4-0.1-0.6-0.2L63.4,66.5C63.2,66.3,63,66,63,65.6v-18c0-0.4,0.2-0.7,0.5-0.9
											l29.5-17c0.3-0.2,0.7-0.2,1,0l29.5,17c0.3,0.2,0.5,0.5,0.5,0.9V69c0,0.4-0.2,0.7-0.5,0.9L94,86.8
											C93.8,86.9,93.7,86.9,93.5,86.9z M65,65.1l28.5,19.7L122,68.3V48.1L93.5,31.7L65,48.1V65.1z"/>
									</g>
									<g>
										<g>
											<g>
												<polygon class="st6" points="93.5,37.9 64,54.9 34.5,37.9 64,20.8 												"/>
												<path class="st7" d="M64,55.9c-0.2,0-0.3,0-0.5-0.1L34,38.7c-0.3-0.2-0.5-0.5-0.5-0.9s0.2-0.7,0.5-0.9l29.5-17
													c0.3-0.2,0.7-0.2,1,0L94,37c0.3,0.2,0.5,0.5,0.5,0.9s-0.2,0.7-0.5,0.9l-29.5,17C64.3,55.8,64.2,55.9,64,55.9z
													 M36.5,37.9L64,53.7l27.5-15.9L64,22L36.5,37.9z"/>
											</g>
											<g>
												<polygon class="st6" points="93.5,37.9 93.5,85.9 64,103 64,54.9 												"/>
												<path class="st7" d="M64,104c-0.2,0-0.3,0-0.5-0.1c-0.3-0.2-0.5-0.5-0.5-0.9V54.9c0-0.4,0.2-0.7,0.5-0.9L93,37
													c0.3-0.2,0.7-0.2,1,0s0.5,0.5,0.5,0.9V86c0,0.4-0.2,0.7-0.5,0.9l-29.5,17C64.3,103.9,64.2,104,64,104z M65,55.5v45.8
													l27.5-15.9V39.6L65,55.5z"/>
											</g>
											<polygon class="st1" points="34.5,37.9 34.5,82.7 64,103 64,54.9 											"/>
											<path class="st6" d="M64,104c-0.2,0-0.3,0-0.5-0.1c-0.3-0.2-0.5-0.5-0.5-0.9V54.9c0-0.4,0.2-0.7,0.5-0.9L93,37
												c0.3-0.2,0.7-0.2,1,0s0.5,0.5,0.5,0.9V86c0,0.4-0.2,0.7-0.5,0.9l-29.5,17C64.3,103.9,64.2,104,64,104z M65,55.5v45.8
												l27.5-15.9V39.6L65,55.5z"/>
											<path class="st6" d="M64,104c-0.2,0-0.4-0.1-0.6-0.2L33.9,83.5c-0.3-0.2-0.4-0.5-0.4-0.8V37.9c0-0.4,0.2-0.7,0.5-0.9
												s0.7-0.2,1,0l29.5,17c0.3,0.2,0.5,0.5,0.5,0.9V103c0,0.4-0.2,0.7-0.5,0.9C64.3,103.9,64.2,104,64,104z M35.5,82.1
												l27.5,19V55.5L35.5,39.6V82.1z"/>
										</g>
										<path class="st7" d="M64,104c-0.2,0-0.4-0.1-0.6-0.2L33.9,83.5c-0.3-0.2-0.4-0.5-0.4-0.8V37.9c0-0.4,0.2-0.7,0.5-0.9
											l29.5-17c0.3-0.2,0.7-0.2,1,0L94,37c0.3,0.2,0.5,0.5,0.5,0.9V86c0,0.4-0.2,0.7-0.5,0.9l-29.5,17
											C64.3,103.9,64.2,104,64,104z M35.5,82.1L64,101.8l28.5-16.4v-47L64,22L35.5,38.4V82.1z"/>
									</g>
									<g>
										<g>
											<polygon class="st2" points="64,71.1 34.5,88.1 5,71.1 34.5,54 											"/>
											<path class="st3" d="M34.5,89.1c-0.2,0-0.3,0-0.5-0.1L4.5,72C4.2,71.7,4,71.4,4,71.1s0.2-0.7,0.5-0.9l29.5-17
												c0.3-0.2,0.7-0.2,1,0l29.5,17c0.3,0.2,0.5,0.5,0.5,0.9s-0.2,0.7-0.5,0.9L35,89C34.8,89,34.7,89.1,34.5,89.1z M7,71.1
												L34.5,87L62,71.1L34.5,55.2L7,71.1z"/>
										</g>
										<g>
											<polygon class="st3" points="64,71.1 64,103 34.5,120 34.5,88.1 											"/>
											<path class="st3" d="M34.5,121c-0.2,0-0.3,0-0.5-0.1c-0.3-0.2-0.5-0.5-0.5-0.9V88.1c0-0.4,0.2-0.7,0.5-0.9l29.5-17
												c0.3-0.2,0.7-0.2,1,0s0.5,0.5,0.5,0.9V103c0,0.4-0.2,0.7-0.5,0.9l-29.5,17C34.8,121,34.7,121,34.5,121z M35.5,88.7v29.6
												L63,102.4V72.8L35.5,88.7z"/>
										</g>
										<g>
											<polygon class="st4" points="5,71.1 5,103 34.5,120 34.5,88.1 											"/>
											<path class="st3" d="M34.5,121c-0.2,0-0.3,0-0.5-0.1l-29.5-17C4.2,103.7,4,103.3,4,103V71.1c0-0.4,0.2-0.7,0.5-0.9
												c0.3-0.2,0.7-0.2,1,0l29.5,17c0.3,0.2,0.5,0.5,0.5,0.9V120c0,0.4-0.2,0.7-0.5,0.9C34.8,121,34.7,121,34.5,121z M6,102.4
												l27.5,15.9V88.7L6,72.8V102.4z"/>
										</g>
										<path class="st5" d="M34.5,121c-0.2,0-0.3,0-0.5-0.1l-29.5-17C4.2,103.7,4,103.3,4,103V71.1c0-0.4,0.2-0.7,0.5-0.9
											l29.5-17c0.3-0.2,0.7-0.2,1,0l29.5,17c0.3,0.2,0.5,0.5,0.5,0.9V103c0,0.4-0.2,0.7-0.5,0.9l-29.5,17
											C34.8,121,34.7,121,34.5,121z M6,102.4l28.5,16.5L63,102.4V71.6L34.5,55.2L6,71.6V102.4z"/>
									</g>
								</g>
							</g>
							<g>
								<path class="st6" d="M51.3,35.4c-0.1,0-0.2,0-0.2,0.1l-3.3,1.9c-0.1,0.1-0.2,0.2-0.1,0.2c0.1,0.1,0.2,0.1,0.4,0.1l11-0.5
									c0.2,0,0.5,0.1,0.4,0.2l-0.9,6.4c0,0.1,0,0.2,0.2,0.2c0.2,0.1,0.4,0,0.5,0l3.2-1.8c0.1,0,0.1-0.1,0.1-0.1l1-6.9v-0.1
									c0-0.1-0.1-0.2-0.3-0.2h-0.1L51.3,35.4z"/>
								<g>
									<path class="st6" d="M65.4,35c0-0.1,0.2-0.2,0.4-0.2l9.6-0.5c0.1,0,0.3,0,0.3,0.1c0.1,0.1,0.1,0.2,0,0.3l-3.2,1.8
										c-0.1,0-0.1,0.1-0.2,0.1L65.6,37c-0.2,0-0.4-0.1-0.4-0.2L65.4,35z"/>
								</g>
								<path class="st6" d="M63.4,33.9c0.2,0,0.3-0.1,0.4-0.2l1-5.6c0-0.1,0-0.2-0.2-0.2c-0.2-0.1-0.4,0-0.5,0L61,29.8
									c-0.1,0-0.1,0.1-0.1,0.1l-0.6,3.9c0,0.1,0.2,0.3,0.4,0.2L63.4,33.9z"/>
							</g>
							<g>
								<g>
									<g>
										<polygon class="st1" points="80.3,38.2 65.6,46.6 72,50.3 72,98.4 79.3,94.4 86.6,90 86.6,41.9 										"/>
										<path class="st6" d="M72,99.4c-0.2,0-0.4,0-0.5-0.1c-0.3-0.2-0.5-0.5-0.5-0.9V50.9l-5.9-3.4c-0.3-0.2-0.5-0.5-0.5-0.9
											s0.2-0.7,0.5-0.9l14.6-8.5c0.3-0.2,0.7-0.2,1,0l6.4,3.7c0.3,0.2,0.5,0.5,0.5,0.9V90c0,0.4-0.2,0.7-0.5,0.9l-7.3,4.4
											l-7.4,4.1C72.3,99.4,72.1,99.4,72,99.4z M67.6,46.6l4.9,2.8c0.3,0.2,0.5,0.5,0.5,0.9v46.4l5.8-3.2l6.8-4.1v-47l-5.4-3.1
											L67.6,46.6z"/>
									</g>
									<path class="st7" d="M101.1,116.2c-0.2,0-0.3,0-0.5-0.1L71.5,99.3c-0.3-0.2-0.5-0.5-0.5-0.9V50.9l-5.9-3.4
										c-0.3-0.2-0.5-0.5-0.5-0.9s0.2-0.7,0.5-0.9l14.6-8.5c0.3-0.2,0.7-0.2,1,0l6.4,3.7c0.3,0.2,0.5,0.5,0.5,0.9v47.4l28.7,16.6
										c0.4,0.2,0.6,0.7,0.5,1.1s-0.5,0.7-1,0.7l-13.6,0.1l-0.1,7.4c0,0.4-0.2,0.7-0.5,0.9C101.4,116.2,101.3,116.2,101.1,116.2z
										 M73,97.8l27.1,15.7l0.1-6.7c0-0.5,0.5-1,1-1l10.9-0.1L86.5,91c-0.3,0-0.6-0.2-0.7-0.5c-0.1-0.2-0.2-0.5-0.1-0.7V42.4
										l-5.4-3.1l-12.6,7.3l4.9,2.8c0.3,0.2,0.5,0.5,0.5,0.9v47.5H73z"/>
									<path class="st7" d="M101.1,116.2L101.1,116.2c-0.6,0-1-0.5-1-1l0.1-8.4c0-0.5,0.5-1,1-1l14.6-0.1l0,0c0.5,0,1,0.4,1,1
										s-0.4,1-1,1l-13.6,0.1l-0.1,7.4C102.1,115.8,101.6,116.2,101.1,116.2z"/>
								</g>
								<path class="st6" d="M79.3,95.4c-0.6,0-1-0.4-1-1V58.8c0-0.6,0.4-1,1-1s1,0.4,1,1v35.6C80.3,94.9,79.9,95.4,79.3,95.4z"/>
							</g>
							<g>
								<ellipse class="st2" cx="34.5" cy="71.1" rx="9.5" ry="5.5"/>
								<path class="st3" d="M34.5,77.5C28.6,77.5,24,74.7,24,71s4.6-6.5,10.5-6.5S45,67.4,45,71.1S40.4,77.5,34.5,77.5z M34.5,66.6
									c-4.6,0-8.5,2.1-8.5,4.5s3.9,4.5,8.5,4.5s8.5-2.1,8.5-4.5S39.1,66.6,34.5,66.6z"/>
							</g>
						</g>
					</g>
					<g>
						<g>
							<g>
								<path class="st2" d="M92.6,34L66.5,18.9c-1.3-0.8-3.4-0.8-4.8,0L35.6,34c-1.3,0.8-1.3,2,0,2.7l26.1,15.1
									c1.3,0.8,3.4,0.8,4.8,0l26.1-15.1C94,35.9,94,34.7,92.6,34z"/>
								<path class="st3" d="M64.1,53.4c-1,0-2.1-0.2-2.9-0.7L35.1,37.6c-0.9-0.5-1.5-1.4-1.5-2.2c0-0.9,0.5-1.7,1.5-2.2L61.2,18
									c1.6-0.9,4.1-0.9,5.8,0l26.1,15.1c0.9,0.5,1.5,1.4,1.5,2.2c0,0.9-0.5,1.7-1.5,2.2L67,52.7C66.2,53.1,65.2,53.4,64.1,53.4z
									 M64.1,19.3c-0.7,0-1.4,0.1-1.9,0.4L36.1,34.8c-0.3,0.2-0.5,0.4-0.5,0.5s0.2,0.3,0.5,0.5l26.1,15.1c1,0.6,2.8,0.6,3.8,0
									l26.1-15.1c0.3-0.2,0.5-0.4,0.5-0.5s-0.2-0.3-0.5-0.5l0,0L66,19.7C65.5,19.4,64.8,19.3,64.1,19.3z"/>
							</g>
							<g>
								<g>
									<g>
										<g>
											<path class="st1" d="M77.2,25l-10.7-6.2c-1.3-0.8-3.4-0.8-4.8,0L51.1,25H34.6v10.3c0,0.5,0.3,1,1,1.4l26.1,15.1
												c1.3,0.8,3.4,0.8,4.8,0l26.1-15.1c0.7-0.4,1-0.9,1-1.4V25H77.2z"/>
											<path class="st6" d="M64.1,53.4c-1,0-2.1-0.2-2.9-0.7L35.1,37.6c-0.9-0.5-1.5-1.4-1.5-2.2V25c0-0.6,0.4-1,1-1h16.2
												l10.4-6c1.6-0.9,4.1-0.9,5.8,0l10.4,6h16.2c0.6,0,1,0.4,1,1v10.3c0,0.9-0.5,1.7-1.5,2.2L67,52.7
												C66.2,53.1,65.2,53.4,64.1,53.4z M35.6,26v9.3c0,0.1,0.2,0.3,0.5,0.5l26.1,15.1c1,0.6,2.8,0.6,3.8,0l26.1-15.1
												c0.3-0.2,0.5-0.4,0.5-0.5V26H77.2c-0.2,0-0.3,0-0.5-0.1L66,19.7c-1-0.6-2.8-0.6-3.8,0l-10.7,6.2C51.4,26,51.2,26,51.1,26
												H35.6z"/>
										</g>
										<path class="st6" d="M66.5,51.8l26.1-15.1c0.7-0.4,1-0.9,1-1.4V25H77.2l-10.7-6.2c-0.7-0.4-1.5-0.6-2.4-0.6v34.1
											C65,52.4,65.8,52.2,66.5,51.8z"/>
										<path class="st6" d="M52.5,42.7c-0.2,0-0.3,0-0.5-0.1l-7.7-4.5c-0.5-0.3-0.6-0.9-0.4-1.4s0.9-0.6,1.4-0.4l7.7,4.5
											c0.5,0.3,0.6,0.9,0.4,1.4C53.2,42.5,52.9,42.7,52.5,42.7z"/>
										<g>
											<path class="st2" d="M92.6,23.7L66.5,8.6c-1.3-0.8-3.4-0.8-4.8,0L35.6,23.7c-1.3,0.8-1.3,2,0,2.7l26.1,15.1
												c1.3,0.8,3.4,0.8,4.8,0l26.1-15.1C94,25.6,94,24.4,92.6,23.7z"/>
											<path class="st6" d="M64.1,43.1c-1,0-2.1-0.2-2.9-0.7L35.1,27.3c-0.9-0.5-1.5-1.4-1.5-2.2c0-0.9,0.5-1.7,1.5-2.2
												L61.2,7.7c1.6-0.9,4.1-0.9,5.8,0l26.1,15.1l0,0c0.9,0.5,1.5,1.4,1.5,2.2c0,0.9-0.5,1.7-1.5,2.2L67,42.4
												C66.2,42.8,65.2,43.1,64.1,43.1z M64.1,9c-0.7,0-1.4,0.1-1.9,0.4L36.1,24.5c-0.3,0.2-0.5,0.4-0.5,0.5s0.2,0.3,0.5,0.5
												l26.1,15.1c1,0.6,2.8,0.6,3.8,0l26.1-15.1c0.3-0.2,0.5-0.4,0.5-0.5s-0.2-0.3-0.5-0.5l0,0L66,9.4C65.5,9.1,64.8,9,64.1,9z
												"/>
										</g>
										<g>
											<path class="st6" d="M52.9,24.4c-0.1,0-0.2,0-0.2,0.1l-3.5,2C49,26.6,49,26.7,49,26.8c0.1,0.1,0.2,0.2,0.4,0.1l11.8-0.6
												c0.3,0,0.5,0.1,0.5,0.3l-1,6.8c0,0.1,0,0.2,0.2,0.2c0.2,0.1,0.4,0.1,0.5,0l3.4-2c0.1,0,0.1-0.1,0.1-0.1l1.1-7.4V24
												c0-0.1-0.1-0.2-0.3-0.2h-0.1L52.9,24.4z"/>
											<g>
												<path class="st6" d="M67.9,24c0-0.1,0.2-0.2,0.4-0.2l10.3-0.5c0.1,0,0.3,0,0.4,0.1s0.1,0.2,0,0.3l-3.4,2
													c-0.1,0-0.2,0.1-0.2,0.1L68.1,26c-0.3,0-0.5-0.1-0.5-0.3L67.9,24z"/>
											</g>
											<path class="st6" d="M65.8,22.8c0.2,0,0.4-0.1,0.4-0.2l1-6c0-0.1,0-0.2-0.2-0.2c-0.2-0.1-0.4-0.1-0.5,0l-3.4,2
												c-0.1,0-0.1,0.1-0.1,0.1l-0.7,4.1c0,0.2,0.2,0.3,0.5,0.3L65.8,22.8z"/>
										</g>
									</g>
								</g>
								<path class="st7" d="M72.7,49.2c-0.2,0-0.3,0-0.5-0.1c-0.3-0.2-0.5-0.5-0.5-0.9v-4.8c0-0.4,0.2-0.7,0.5-0.9l13.8-8
									c0.3-0.2,0.7-0.2,1,0s0.5,0.5,0.5,0.9v4.8c0,0.4-0.2,0.7-0.5,0.9l-13.8,8C73.1,49.2,72.9,49.2,72.7,49.2z M73.7,44v2.4
									l11.8-6.8v-2.4L73.7,44z M86.5,40.2L86.5,40.2L86.5,40.2z"/>
								<path class="st7" d="M64.1,53.4c-1.1,0-2.1-0.2-2.9-0.7L35.1,37.6c-0.9-0.5-1.5-1.4-1.5-2.2V25c0-0.9,0.5-1.7,1.5-2.2
									L61.2,7.7c1.6-0.9,4.1-0.9,5.8,0l26.1,15.1l0,0c0.9,0.5,1.5,1.4,1.5,2.2v10.3c0,0.9-0.5,1.7-1.5,2.2L67,52.7
									C66.2,53.1,65.2,53.4,64.1,53.4z M64.1,9c-0.7,0-1.4,0.1-1.9,0.4L36.1,24.5c-0.3,0.2-0.5,0.4-0.5,0.5v10.3
									c0,0.1,0.2,0.3,0.5,0.5l26.1,15.1c1,0.6,2.8,0.6,3.8,0l26.1-15.1c0.3-0.2,0.5-0.4,0.5-0.5V25c0-0.1-0.2-0.3-0.5-0.5l0,0
									L66,9.4C65.5,9.1,64.8,9,64.1,9z"/>
								<g>
									<ellipse class="st6" cx="86.9" cy="25" rx="1.3" ry="0.8"/>
									<ellipse class="st6" cx="64.1" cy="38.2" rx="1.3" ry="0.8"/>
									<ellipse class="st6" cx="64.1" cy="11.9" rx="1.3" ry="0.8"/>
									<ellipse class="st6" cx="41.4" cy="25" rx="1.3" ry="0.8"/>
								</g>
							</g>
						</g>
					</g>
				</g>
			</g>
		</g>
	</g>
	<g>
		<rect class="st0" width="128" height="128"/>
	</g>
</g>
</svg>
