<?xml version="1.0" encoding="utf-8"?>
<!-- Generator: Adobe Illustrator 24.1.0, SVG Export Plug-In . SVG Version: 6.00 Build 0)  -->
<svg version="1.1" id="Layer_1" xmlns="http://www.w3.org/2000/svg" xmlns:xlink="http://www.w3.org/1999/xlink" x="0px" y="0px"
	 viewBox="0 0 128 128" style="enable-background:new 0 0 128 128;" xml:space="preserve">
<style type="text/css">
	.st0{fill:#E9EBDF;}
	.st1{fill:#4D9987;}
	.st2{fill:#FFFFFF;}
	.st3{fill:#0E352C;}
	.st4{fill:#C4D7D3;}
	.st5{fill:#27ae60;}
	.st6{fill:#185849;}
	.st7{fill:none;}
</style>
<g>
	<path class="st0" d="M81.5,86.1l-14.4-8.3c-2-1-4.4-1-6.4,0l-14.4,8.3H24V100c0.1,0.8,0.6,1.5,1.3,1.9l35.3,20.4c2,1,4.4,1,6.4,0
		l35.3-20.4c0.7-0.3,1.3-1,1.3-1.9V86.1H81.5z"/>
	<path class="st1" d="M67.1,122.2l35.3-20.4c0.7-0.3,1.3-1,1.3-1.9V86.1H81.5l-14.4-8.3c-1-0.5-2.1-0.8-3.2-0.8v46
		C65,123,66.1,122.8,67.1,122.2z"/>
	<path class="st1" d="M48.2,109.6c-0.2,0-0.3,0-0.5-0.1l-10.4-6c-0.5-0.3-0.6-0.9-0.4-1.4c0.3-0.5,0.9-0.6,1.4-0.4l10.4,6
		c0.5,0.3,0.6,0.9,0.4,1.4C48.9,109.4,48.6,109.6,48.2,109.6L48.2,109.6z"/>
	<path class="st2" d="M102.3,84.3L67.1,63.9c-2-1-4.4-1-6.4,0L25.4,84.3c-1.8,1-1.8,2.7,0,3.7l35.3,20.4c2,1,4.4,1,6.4,0L102.3,88
		C104.1,86.9,104.1,85.3,102.3,84.3z"/>
	<path class="st1" d="M63.9,110.1c-1.3,0-2.6-0.3-3.7-0.9L24.9,88.8c-1.5-0.6-2.2-2.3-1.6-3.8c0.3-0.7,0.9-1.3,1.6-1.6L60.1,63
		c2.3-1.2,5.1-1.2,7.4,0l35.3,20.4l0,0c1.5,0.6,2.2,2.3,1.6,3.8c-0.3,0.7-0.9,1.3-1.6,1.6l-35.3,20.4
		C66.4,109.8,65.2,110.1,63.9,110.1z M63.9,64.1c-0.9,0-1.9,0.2-2.7,0.6L25.9,85.1c-0.5,0.3-0.8,0.7-0.8,1s0.3,0.7,0.8,1l35.3,20.4
		c1.7,0.8,3.7,0.8,5.4,0l35.3-20.4c0.5-0.3,0.8-0.7,0.8-1s-0.3-0.7-0.8-1L66.6,64.8C65.7,64.3,64.8,64.1,63.9,64.1z"/>
	<polygon class="st1" points="94.1,106.6 75.5,117.4 75.5,111 94.1,100.2 	"/>
	<path class="st0" d="M75.4,118.4c-0.6,0-1-0.4-1-1V111c0-0.4,0.2-0.7,0.5-0.9l18.6-10.8c0.5-0.3,1.1-0.1,1.4,0.4
		c0.1,0.2,0.1,0.3,0.1,0.5v6.4c0,0.4-0.2,0.7-0.5,0.9l-18.6,10.8C75.8,118.4,75.6,118.4,75.4,118.4z M76.4,111.6v4.1l16.6-9.6V102
		L76.4,111.6z M94.1,106.6L94.1,106.6z"/>
	<path class="st3" d="M63.9,124c-1.3,0-2.6-0.3-3.7-0.9l-35.3-20.4c-1.1-0.5-1.8-1.5-1.8-2.7V86.1c0.1-1.2,0.8-2.2,1.8-2.7L60.1,63
		c2.3-1.2,5.1-1.2,7.4,0l35.3,20.4l0,0c1.1,0.5,1.8,1.6,1.8,2.7V100c-0.1,1.2-0.8,2.2-1.8,2.7l-35.3,20.4
		C66.4,123.7,65.2,124,63.9,124z M63.9,64.1c-0.9,0-1.9,0.2-2.7,0.6L25.9,85.1c-0.5,0.3-0.8,0.7-0.8,1V100c0,0.3,0.3,0.7,0.8,1
		l35.3,20.4c1.7,0.8,3.7,0.8,5.4,0l35.3-20.4c0.5-0.3,0.8-0.7,0.8-1V86.1c0-0.3-0.3-0.7-0.8-1L66.6,64.8
		C65.7,64.3,64.8,64.1,63.9,64.1z"/>
	<ellipse class="st0" cx="94.6" cy="86.1" rx="1.8" ry="1"/>
	<ellipse class="st0" cx="63.9" cy="103.8" rx="1.8" ry="1"/>
	<ellipse class="st0" cx="63.9" cy="68.4" rx="1.8" ry="1"/>
	<ellipse class="st0" cx="33.1" cy="86.1" rx="1.8" ry="1"/>
	<path class="st4" d="M97.4,17.7c-5.6-2.1-13.2-1.8-18.2,1.1l-8.4,4.9c-9.5-4.6-23.6-4.3-32.5,0.8c-0.3,0.1-0.5,0.3-0.7,0.5h-6.3
		v9.4l0,0c0.1,2.5,1.1,4.9,2.9,6.6l-10,3.7v9.4l0,0c0,2.1,1.4,4.3,4.2,5.9c5.6,3.3,14.8,3.3,20.4,0l50.7-29.3
		c2.8-1.6,4.2-3.8,4.2-5.9v-9.4L97.4,17.7z"/>
	<path class="st2" d="M79.3,7.4l-8.4,4.9C61.4,7.7,47.3,8,38.4,13.1S29,26.4,37,31.9l-8.4,4.9c-5.6,3.3-5.6,8.5,0,11.8
		s14.8,3.3,20.4,0l50.7-29.3c5.6-3.3,5.6-8.5,0-11.8l0,0C94.1,4.2,84.9,4.2,79.3,7.4z"/>
	<path class="st5" d="M38.8,52c-3.7,0.1-7.4-0.8-10.7-2.6c-3.1-1.8-4.7-4.2-4.7-6.8s1.7-5,4.7-6.8l7.1-4.1c-3.2-2.6-4.9-5.8-4.8-9.2
		c0.2-3.9,2.8-7.6,7.5-10.3c9-5.2,23-5.6,32.9-1.1l8-4.6c5.9-3.4,15.5-3.4,21.4,0c3.1,1.8,4.7,4.2,4.7,6.8s-1.7,5-4.7,6.8L49.5,49.4
		C46.2,51.2,42.5,52,38.8,52z M55.5,10.1c-6,0-12,1.3-16.5,3.9c-4.1,2.4-6.4,5.4-6.5,8.7c-0.1,3,1.7,6,5.2,8.4
		c0.5,0.3,0.6,0.9,0.3,1.4c-0.1,0.1-0.2,0.2-0.3,0.3l-8.4,4.9c-2.4,1.4-3.7,3.2-3.7,5s1.3,3.6,3.7,5c5.4,3.1,14.1,3.1,19.4,0
		l50.7-29.3c2.4-1.4,3.7-3.2,3.7-5s-1.3-3.6-3.7-5C94,5.3,85.3,5.3,80,8.4l0,0l-8.4,4.9c-0.3,0.2-0.6,0.2-0.9,0
		C65.7,11.1,60.6,10,55.5,10.1z M79.3,7.4L79.3,7.4z"/>
	<path class="st6" d="M38.8,63.3c-3.7,0.1-7.4-0.8-10.7-2.6c-3.1-1.8-4.7-4.2-4.7-6.8V42.6c0-2.6,1.7-5,4.7-6.8l2.6-1.5
		c-0.1-0.6-0.2-1.2-0.2-1.8c0-0.1,0-0.2,0-0.2V23c0-0.1,0-0.2,0-0.2c0.1-4,2.8-7.7,7.5-10.5c9-5.2,23-5.6,32.9-1.1l8-4.6
		c5.9-3.4,15.5-3.4,21.4,0l0,0c3.1,1.8,4.7,4.2,4.7,6.8v11.3c0,2.6-1.7,5-4.7,6.8L49.5,60.7C46.2,62.5,42.5,63.3,38.8,63.3z
		 M32.4,32.1c0,0.1,0,0.1,0,0.2c0,0.8,0.1,1.5,0.4,2.2c0.1,0.4,0,0.9-0.5,1.2l-3.2,1.9c-2.4,1.4-3.7,3.2-3.7,5v11.3
		c0,1.9,1.3,3.6,3.7,5c5.4,3.1,14.1,3.1,19.4,0l50.7-29.3c2.4-1.4,3.7-3.2,3.7-5V13.3c0-1.9-1.3-3.6-3.7-5c-5.4-3.1-14.1-3.1-19.4,0
		l-8.4,4.9c-0.3,0.2-0.6,0.2-0.9,0C61.3,8.8,47.5,9.1,39,14c-4.2,2.4-6.5,5.6-6.5,9c0,0.1,0,0.1,0,0.2L32.4,32.1z"/>
	<path class="st6" d="M104,34.6c-0.3,0-0.5-0.1-0.7-0.3c0,0-0.1-0.1-0.1-0.2c0-0.1-0.1-0.1-0.1-0.2c0-0.1,0-0.1-0.1-0.2
		c0-0.1,0-0.1,0-0.2c0-0.1,0-0.3,0.1-0.4c0.1-0.1,0.1-0.2,0.2-0.3c0.4-0.4,1-0.4,1.4,0c0.1,0.1,0.2,0.2,0.2,0.3
		c0.1,0.1,0.1,0.2,0.1,0.4c0,0.1,0,0.1,0,0.2c0,0.1,0,0.1-0.1,0.2c0,0.1-0.1,0.1-0.1,0.2C104.6,34.4,104.3,34.6,104,34.6z"/>
	<path class="st6" d="M103,73.9c0-0.6,0.4-1,1-1l0,0c0.6,0,1,0.4,1,1l0,0c0,0.6-0.4,1-1,1l0,0C103.4,74.9,103,74.5,103,73.9
		L103,73.9z M103,68.2c0-0.6,0.4-1,1-1l0,0c0.6,0,1,0.4,1,1l0,0c0,0.6-0.4,1-1,1l0,0C103.4,69.2,103,68.7,103,68.2
		C103,68.1,103,68.1,103,68.2L103,68.2z M103,62.4c0-0.6,0.4-1,1-1l0,0c0.6,0,1,0.4,1,1l0,0c0,0.6-0.4,1-1,1l0,0
		C103.4,63.4,103,62.9,103,62.4L103,62.4L103,62.4z M103,56.6c0-0.5,0.4-1,1-1l0,0l0,0c0.6,0,1,0.4,1,1l0,0c0,0.6-0.4,1-1,1l0,0
		C103.4,57.6,103,57.2,103,56.6L103,56.6L103,56.6z M103,50.9c0-0.6,0.4-1,1-1l0,0c0.6,0,1,0.4,1,1l0,0c0,0.6-0.4,1-1,1l0,0
		C103.4,51.9,103,51.4,103,50.9L103,50.9L103,50.9z M103,45.1c0-0.6,0.4-1,1-1l0,0c0.6,0,1,0.4,1,1l0,0c0,0.6-0.4,1-1,1l0,0
		C103.4,46.1,103,45.7,103,45.1L103,45.1L103,45.1z M103,39.4c0-0.5,0.4-1,1-1l0,0l0,0c0.6,0,1,0.4,1,1l0,0c0,0.6-0.4,1-1,1l0,0
		C103.4,40.4,103,39.9,103,39.4L103,39.4L103,39.4z"/>
	<path class="st6" d="M104,80.7c-0.1,0-0.3,0-0.4-0.1c-0.4-0.2-0.6-0.5-0.6-0.9c0-0.1,0-0.3,0.1-0.4s0.1-0.2,0.2-0.3
		c0.4-0.4,1-0.4,1.4,0c0.1,0.1,0.2,0.2,0.2,0.3c0.2,0.4,0.1,0.8-0.2,1.1C104.5,80.6,104.2,80.7,104,80.7z"/>
	<path class="st3" d="M24.3,64c-0.3,0-0.5-0.1-0.7-0.3c-0.1-0.1-0.2-0.2-0.2-0.3c-0.1-0.1-0.1-0.3-0.1-0.4c0-0.3,0.1-0.5,0.3-0.7
		c0.4-0.4,1-0.4,1.4,0c0.2,0.2,0.3,0.4,0.3,0.7c0,0.1,0,0.3-0.1,0.4c-0.1,0.1-0.1,0.2-0.2,0.3C24.8,63.9,24.6,64,24.3,64z"/>
	<path class="st3" d="M23.3,74c0-0.6,0.4-1,1-1l0,0c0.6,0,1,0.4,1,1l0,0c0,0.6-0.4,1-1,1l0,0C23.8,75,23.3,74.6,23.3,74z M23.3,68.5
		c0-0.6,0.4-1,1-1l0,0c0.6,0,1,0.4,1,1l0,0c0,0.6-0.4,1-1,1l0,0C23.8,69.5,23.3,69.1,23.3,68.5z"/>
	<path class="st3" d="M24.3,80.5c-0.3,0-0.5-0.1-0.7-0.3c-0.1-0.1-0.2-0.2-0.2-0.3c-0.1-0.1-0.1-0.3-0.1-0.4s0-0.3,0.1-0.4
		c0.1-0.2,0.3-0.4,0.5-0.5c0.4-0.1,0.8-0.1,1.1,0.2c0.1,0.1,0.2,0.2,0.2,0.3c0,0.1,0.1,0.2,0.1,0.4c0,0.1,0,0.3-0.1,0.4
		s-0.1,0.2-0.2,0.3C24.8,80.4,24.6,80.5,24.3,80.5z"/>
	<path class="st5" d="M49.4,23.8c-2.7-1.6-3-4-0.7-5.3s6.5-1.2,9.2,0.4c1.8,1,2.5,2.4,2.2,3.7l10,4.8L63.9,31l-8.2-5.8
		C53.5,25.3,51.3,24.8,49.4,23.8z"/>
	<path class="st1" d="M50.8,94.2c-0.4,0-0.8-0.1-1.2-0.3c-0.4-0.1-0.6-0.5-0.5-0.9c0.1-0.2,0.2-0.4,0.5-0.5l16.2-9.4
		c0.8-0.4,1.6-0.4,2.4,0c0.4,0.1,0.6,0.5,0.5,0.9c-0.1,0.2-0.2,0.4-0.5,0.5L52,93.9C51.7,94.1,51.3,94.2,50.8,94.2z"/>
	<path class="st1" d="M55.9,95.3c-0.4,0-0.8-0.1-1.2-0.3l-3.5-2c-0.4-0.1-0.6-0.5-0.5-0.9c0.1-0.2,0.2-0.4,0.5-0.5
		c0.8-0.4,1.6-0.4,2.4,0l3.5,2c0.4,0.1,0.6,0.5,0.5,0.9c-0.1,0.2-0.2,0.4-0.5,0.5C56.8,95.2,56.4,95.3,55.9,95.3z"/>
	<path class="st1" d="M59.1,92.5c-0.4,0-0.8-0.1-1.2-0.3l-2.7-1.6c-0.4-0.1-0.6-0.5-0.5-0.9c0.1-0.2,0.2-0.4,0.5-0.5
		c0.8-0.4,1.6-0.4,2.4,0l2.7,1.6c0.4,0.1,0.6,0.5,0.5,0.9c-0.1,0.2-0.2,0.4-0.5,0.5C60,92.4,59.6,92.5,59.1,92.5z"/>
	<path class="st1" d="M71.4,85.9c-1.9,0-3.8-0.4-5.5-1.3c-1.8-0.6-2.7-2.5-2.1-4.2c0.3-1,1.1-1.8,2.1-2.1l0,0c3.5-1.8,7.5-1.8,11,0
		c3,1.7,3,4.6,0,6.3C75.2,85.5,73.3,85.9,71.4,85.9z M71.4,78.9c-1.1,0-2.1,0.2-3.1,0.7l0,0c-1,0.3-1.5,1.4-1.2,2.4
		c0.2,0.6,0.6,1,1.2,1.2c1.9,1,4.2,1,6.2,0c1.7-1,1.7-2.6,0-3.6C73.5,79.1,72.5,78.9,71.4,78.9L71.4,78.9z M67.1,78.9L67.1,78.9z"/>
	<rect x="4" y="4" class="st7" width="120" height="120"/>
	<g>
		<rect class="st7" width="128" height="128"/>
	</g>
</g>
</svg>
