<?xml version="1.0" encoding="utf-8"?>
<!-- Generator: Adobe Illustrator 24.1.0, SVG Export Plug-In . SVG Version: 6.00 Build 0)  -->
<svg version="1.1" id="Layer_1" xmlns="http://www.w3.org/2000/svg" xmlns:xlink="http://www.w3.org/1999/xlink" x="0px" y="0px"
	 viewBox="0 0 128 128" style="enable-background:new 0 0 128 128;" xml:space="preserve">
<style type="text/css">
	.st0{fill:#FFFFFF;}
	.st1{fill:#E9EBDF;}
	.st2{fill:#4D9987;}
	.st3{fill:#0E352C;}
	.st4{clip-path:url(#SVGID_2_);}
	.st5{fill:#C4D7D3;}
	.st6{fill:#27ae60;}
	.st7{fill:#185849;}
	.st8{fill:none;}
</style>
<g id="Layer_1_1_">
</g>
<g>
	<g id="Layer_2_1_">
		<g id="Tech_Concepts_1_">
			<g>
				<g>
					<g>
						<g>
							<path class="st0" d="M104.4,36.3L104.4,36.3L86.1,25.7l0,0c-2.1-1.2-4.9-1.1-8,0.6l-1.3,0.8L61,18l0,0
								c-3.6-2.1-8.2-1.9-13.3,1.1C37,25.2,28.3,41.2,27.3,55.6l-10.1,5.8C10.5,65.3,5,75.8,5,84.8l0,0c0,4.9,1.6,8.4,4.2,9.9l0,0
								l18.4,10.6l0,0c2.1,1.2,4.9,1.1,8-0.6l60.8-35.1c6.8-3.9,12.2-14.4,12.2-23.4l0,0C108.7,41.2,107,37.8,104.4,36.3z"/>
							<path class="st1" d="M96.4,36.9l-10.1,5.8c-0.9-13.3-9.6-19.2-20.3-13S46.6,51.8,45.7,66.2L35.6,72
								c-6.8,3.9-12.2,14.4-12.2,23.4s5.5,13.2,12.2,9.3l60.8-35.1c6.8-3.9,12.2-14.4,12.2-23.4l0,0C108.7,37.1,103.2,33,96.4,36.9z
								"/>
							<path class="st2" d="M23.4,96.4c-0.6,0-1-0.4-1-1c0-9.3,5.7-20.2,12.7-24.3l9.6-5.6c1.1-14.8,10-30.6,20.8-36.8
								c5.1-2.9,10-3.4,14-1.3c4.2,2.2,6.9,7,7.7,13.5l8.7-5c0.5-0.3,1.1-0.1,1.4,0.4s0.1,1.1-0.4,1.4l-10.1,5.8
								c-0.3,0.2-0.7,0.2-1,0s-0.5-0.5-0.5-0.8c-0.5-6.6-2.9-11.4-6.8-13.5c-3.3-1.8-7.6-1.3-12.1,1.2C56.2,36.3,47.5,52,46.6,66.1
								c0,0.3-0.2,0.6-0.5,0.8L36,72.7c-6.5,3.7-11.7,13.8-11.7,22.5C24.4,96,23.9,96.4,23.4,96.4z"/>
							<path class="st3" d="M30.7,107.1c-1.3,0-2.5-0.3-3.5-0.9c0,0-0.1,0-0.1-0.1L8.7,95.6c-0.1,0-0.1-0.1-0.2-0.1
								C5.7,93.7,4,89.8,4,84.8c0-9.3,5.7-20.2,12.7-24.3l9.6-5.6c1.1-14.8,10-30.6,20.8-36.8c5.2-3,10.2-3.4,14.2-1.1
								c0,0,0.1,0,0.1,0.1l15.2,8.8l0.8-0.5c3.2-1.8,6.3-2.1,8.8-0.7c0.1,0,0.1,0,0.2,0.1l18.4,10.6c0,0,0.1,0,0.1,0.1
								c3,1.8,4.6,5.7,4.6,10.7c0,9.3-5.7,20.2-12.7,24.3L36,105.6C34.3,106.6,32.4,107.1,30.7,107.1z M28,104.4
								C28,104.4,28.1,104.4,28,104.4c2,1.1,4.5,0.9,7.1-0.6l60.8-35.1c6.5-3.7,11.7-13.8,11.7-22.5c0-4.4-1.4-7.7-3.7-9
								c0,0-0.1,0-0.1-0.1L85.7,26.6c-0.1,0-0.1,0-0.2-0.1c-1.9-1.1-4.4-0.9-7,0.6l-1.3,0.8c-0.3,0.2-0.7,0.2-1,0l-15.6-9
								c0,0-0.1,0-0.1-0.1c-3.4-2-7.8-1.6-12.3,1.1C38,25.8,29.3,41.5,28.4,55.6c0,0.3-0.2,0.6-0.5,0.8l-10.1,5.8
								C11.3,66,6,76.1,6,84.8c0,4.4,1.4,7.7,3.7,9c0.1,0,0.1,0.1,0.1,0.1L28,104.4z"/>
						</g>
						<g>
							<g>
								<g>
									<path class="st3" d="M73.3,55.1c0-3.7-2.3-5.4-5-3.8c-2.8,1.6-5,5.9-5,9.6c0,2.4,1,4,2.4,4.3l-1,13L72,74l-1-11.8
										C72.3,60.3,73.3,57.6,73.3,55.1z"/>
									<path class="st3" d="M64.6,79.3c-0.2,0-0.4-0.1-0.5-0.2c-0.3-0.2-0.5-0.6-0.5-0.9l1-12.2c-1.5-0.8-2.4-2.6-2.4-5
										c0-4.1,2.4-8.7,5.5-10.5c1.5-0.9,3.1-1,4.3-0.3c1.4,0.8,2.2,2.6,2.2,4.9c0,2.5-0.9,5.2-2.4,7.4l1,11.4c0,0.4-0.2,0.8-0.5,1
										L65,79.1C65,79.2,64.8,79.3,64.6,79.3z M70.2,51.7c-0.5,0-1.1,0.2-1.5,0.5c-2.5,1.4-4.5,5.4-4.5,8.8c0,1.8,0.6,3.1,1.7,3.4
										c0.5,0.1,0.8,0.6,0.8,1.1l-0.9,11.1l5.1-2.9l-1-11.2c0-0.2,0-0.5,0.2-0.7c1.4-1.9,2.3-4.4,2.3-6.6c0-1.6-0.5-2.8-1.2-3.2
										C70.8,51.8,70.5,51.7,70.2,51.7z"/>
								</g>
							</g>
							<g>
								<g>
									<g>
										<g>
											<defs>
												<path id="SVGID_1_" d="M123,47.9c0,0-33.4-5-38.3-5c-4.9-0.1-12.7-1.6-14.4,1.4c-0.8,1.5-1.3,4.3-1.5,6.8
													c-0.2,0.1-0.4,0.2-0.5,0.3c-2.8,1.6-5,5.9-5,9.6c0,2.4,1,4,2.4,4.3l-1,13l3.6-2.1V89c0,0-6,19.7,13.1,21.8
													c19.1,2.1,41.7-3,41.7-3L123,47.9L123,47.9z"/>
											</defs>
											<clipPath id="SVGID_2_">
												<use xlink:href="#SVGID_1_"  style="overflow:visible;"/>
											</clipPath>
											<g class="st4">
												<g>
													<g>
														<g>
															<path class="st1" d="M58.7,66.7c-0.2-0.4-0.4-0.9-0.4-1.4v-9.6c0-1.5,1.2-2.7,2.7-2.7s2.7,1.2,2.7,2.7v9.6
																c0,1.5-1.2,2.7-2.7,2.7C60,68,59.1,67.5,58.7,66.7z"/>
															<path class="st2" d="M61,69c-1.3,0-2.6-0.7-3.2-1.9l0,0c-0.3-0.6-0.5-1.2-0.5-1.9v-9.6c0-2,1.7-3.7,3.7-3.7
																c1,0,1.9,0.4,2.6,1.1c0.7,0.7,1.1,1.6,1.1,2.6v9.6C64.7,67.4,63.1,69,61,69z M61,54c-0.9,0-1.7,0.8-1.7,1.7v9.6
																c0,0.3,0.1,0.6,0.2,0.9l0,0c0.3,0.5,0.9,0.9,1.5,0.9c0.9,0,1.7-0.8,1.7-1.7v-9.6c0-0.5-0.2-0.9-0.5-1.2
																C61.9,54.2,61.5,54,61,54z"/>
														</g>
														<path class="st0" d="M60,65.9c-0.6,0-1-0.4-1-1v-7.4c0-0.6,0.4-1,1-1s1,0.4,1,1v7.4C61,65.5,60.6,65.9,60,65.9z"/>
													</g>
													<g>
														<path class="st1" d="M48.8,65.6c-0.2-0.4-0.4-0.9-0.4-1.4V49c0-1.5,1.2-2.7,2.7-2.7s2.7,1.2,2.7,2.7v15.2
															c0,1.5-1.2,2.7-2.7,2.7C50.1,67,49.2,66.4,48.8,65.6z"/>
														<path class="st2" d="M51.1,68c-1.3,0-2.6-0.7-3.2-1.9l0,0c-0.3-0.6-0.5-1.2-0.5-1.9V49c0-2,1.7-3.7,3.7-3.7l0,0
															c1,0,1.9,0.4,2.6,1.1c0.7,0.7,1.1,1.6,1.1,2.6v15.2C54.8,66.3,53.2,68,51.1,68z M49.6,65.1c0.3,0.5,0.9,0.9,1.5,0.9
															c0.9,0,1.7-0.8,1.7-1.7V49c0-0.5-0.2-0.9-0.5-1.2s-0.8-0.5-1.2-0.5l0,0c-0.9,0-1.7,0.8-1.7,1.7v15.2
															C49.4,64.6,49.5,64.9,49.6,65.1z"/>
													</g>
													<path class="st0" d="M50.1,64.9c-0.6,0-1-0.4-1-1v-13c0-0.6,0.4-1,1-1s1,0.4,1,1v13C51.1,64.4,50.7,64.9,50.1,64.9z"/>
													<path class="st1" d="M91.9,76.8c-0.8,0-1.5-0.2-2.2-0.6L45.1,50.5c-2.1-1.2-2.9-4-1.6-6.1c1.2-2.1,4-2.9,6.1-1.6
														l44.6,25.7c2.1,1.2,2.9,4,1.6,6.1C94.9,76,93.4,76.8,91.9,76.8z"/>
													<path class="st0" d="M91.7,72c-0.3,0-0.6-0.1-0.9-0.3L48.1,47.1c-0.9-0.5-1.2-1.7-0.7-2.6c0.5-0.9,1.7-1.2,2.6-0.7
														l42.7,24.7c0.9,0.5,1.2,1.7,0.7,2.6C93,71.7,92.4,72,91.7,72z"/>
													<path class="st2" d="M93.7,78.9c-1,0-1.9-0.3-2.7-0.7L44.6,51.4c-2.6-1.5-3.5-4.9-2-7.5c0.7-1.3,1.9-2.2,3.3-2.5
														c1.4-0.4,2.9-0.2,4.1,0.5l46.4,26.8c1.3,0.7,2.2,1.9,2.5,3.3c0.4,1.4,0.2,2.9-0.5,4.1C97.5,77.9,95.7,78.9,93.7,78.9z
														 M47.3,43.2c-0.3,0-0.6,0-0.9,0.1c-0.9,0.2-1.6,0.8-2.1,1.6s-0.6,1.7-0.3,2.6c0.2,0.9,0.8,1.6,1.6,2.1L92,76.4
														c0.5,0.3,1.1,0.5,1.7,0.5c1.2,0,2.4-0.7,3-1.7c0.5-0.8,0.6-1.7,0.3-2.6c-0.2-0.9-0.8-1.6-1.6-2.1L49,43.6
														C48.5,43.3,47.9,43.2,47.3,43.2z"/>
												</g>
												<g>
													<g>
														<g>
															<path class="st5" d="M58.7,66.7c-0.2-0.4-0.4-0.9-0.4-1.4v-9.6c0-1.5,1.2-2.7,2.7-2.7s2.7,1.2,2.7,2.7v9.6
																c0,1.5-1.2,2.7-2.7,2.7C60,68,59.1,67.5,58.7,66.7z"/>
															<path class="st6" d="M61,69c-1.3,0-2.6-0.7-3.2-1.9l0,0c-0.3-0.6-0.5-1.2-0.5-1.9v-9.6c0-2,1.7-3.7,3.7-3.7
																c1,0,1.9,0.4,2.6,1.1c0.7,0.7,1.1,1.6,1.1,2.6v9.6C64.7,67.4,63.1,69,61,69z M61,54c-0.9,0-1.7,0.8-1.7,1.7v9.6
																c0,0.3,0.1,0.6,0.2,0.9l0,0c0.3,0.5,0.9,0.9,1.5,0.9c0.9,0,1.7-0.8,1.7-1.7v-9.6c0-0.5-0.2-0.9-0.5-1.2
																C61.9,54.2,61.5,54,61,54z"/>
														</g>
														<path class="st0" d="M60,65.9c-0.6,0-1-0.4-1-1v-7.4c0-0.6,0.4-1,1-1s1,0.4,1,1v7.4C61,65.5,60.6,65.9,60,65.9z"/>
													</g>
													<g>
														<path class="st5" d="M48.8,65.6c-0.2-0.4-0.4-0.9-0.4-1.4V49c0-1.5,1.2-2.7,2.7-2.7s2.7,1.2,2.7,2.7v15.2
															c0,1.5-1.2,2.7-2.7,2.7C50.1,67,49.2,66.4,48.8,65.6z"/>
														<path class="st6" d="M51.1,68c-1.3,0-2.6-0.7-3.2-1.9l0,0c-0.3-0.6-0.5-1.2-0.5-1.9V49c0-2,1.7-3.7,3.7-3.7l0,0
															c1,0,1.9,0.4,2.6,1.1c0.7,0.7,1.1,1.6,1.1,2.6v15.2C54.8,66.3,53.2,68,51.1,68z M49.6,65.1c0.3,0.5,0.9,0.9,1.5,0.9
															c0.9,0,1.7-0.8,1.7-1.7V49c0-0.5-0.2-0.9-0.5-1.2s-0.8-0.5-1.2-0.5l0,0c-0.9,0-1.7,0.8-1.7,1.7v15.2
															C49.4,64.6,49.5,64.9,49.6,65.1z"/>
													</g>
													<path class="st0" d="M50.1,64.9c-0.6,0-1-0.4-1-1v-13c0-0.6,0.4-1,1-1s1,0.4,1,1v13C51.1,64.4,50.7,64.9,50.1,64.9z"/>
													<path class="st6" d="M91.9,76.8c-0.8,0-1.5-0.2-2.2-0.6L45.1,50.5c-2.1-1.2-2.9-4-1.6-6.1c1.2-2.1,4-2.9,6.1-1.6
														l44.6,25.7c2.1,1.2,2.9,4,1.6,6.1C94.9,76,93.4,76.8,91.9,76.8z"/>
													<path class="st5" d="M81.5,66.1c-0.3,0-0.6-0.1-0.9-0.3L48.1,47.1c-0.9-0.5-1.2-1.7-0.7-2.6c0.5-0.9,1.7-1.2,2.6-0.7
														l32.5,18.8c0.9,0.5,1.2,1.7,0.7,2.6C82.8,65.8,82.2,66.1,81.5,66.1z"/>
													<path class="st6" d="M93.7,78.9c-1,0-1.9-0.3-2.7-0.7L44.6,51.4c-2.6-1.5-3.5-4.9-2-7.5c0.7-1.3,1.9-2.2,3.3-2.5
														c1.4-0.4,2.9-0.2,4.1,0.5l46.4,26.8c1.3,0.7,2.2,1.9,2.5,3.3c0.4,1.4,0.2,2.9-0.5,4.1C97.5,77.9,95.7,78.9,93.7,78.9z
														 M47.3,43.2c-0.3,0-0.6,0-0.9,0.1c-0.9,0.2-1.6,0.8-2.1,1.6s-0.6,1.7-0.3,2.6c0.2,0.9,0.8,1.6,1.6,2.1L92,76.4
														c0.5,0.3,1.1,0.5,1.7,0.5c1.2,0,2.4-0.7,3-1.7c0.5-0.8,0.6-1.7,0.3-2.6c-0.2-0.9-0.8-1.6-1.6-2.1L49,43.6
														C48.5,43.3,47.9,43.2,47.3,43.2z"/>
												</g>
												<g>
													<path class="st5" d="M121.8,81.6c0-10.9-6.6-23.6-14.8-28.3c-3.7-2.1-7.1-2.3-9.7-0.8l0,0l-7.2,4.1l1.4,2.1
														c-0.7,1.9-1.1,4.1-1.1,6.8c0,10.9,6.6,23.6,14.8,28.3c1.2,0.7,2.4,1.2,3.5,1.5l0.8,2.5l7.2-4.1l0,0
														C119.8,91.7,121.8,87.5,121.8,81.6z"/>
													<g>
														<path class="st5" d="M91.5,56c2.4-0.8,5.2-0.4,8.3,1.4c8.2,4.7,14.8,17.4,14.8,28.3s-6.6,15.9-14.8,11.2
															c-5.2-3-9.7-9.1-12.3-15.9c-1.6-4-2.5-8.3-2.5-12.4C85,61.8,87.6,57.2,91.5,56z"/>
														<path class="st0" d="M105.7,99.7c-2,0-4.2-0.6-6.4-1.9c-5.2-3-9.9-9.1-12.8-16.5C84.9,77,84,72.6,84,68.6
															c0-7,2.7-12.1,7.2-13.6l0,0l0,0c2.7-0.9,5.9-0.4,9.1,1.5c8.4,4.9,15.3,18,15.3,29.2c0,6.1-2,10.8-5.6,12.9
															C108.7,99.3,107.2,99.7,105.7,99.7z M93.9,56.6c-0.7,0-1.4,0.1-2.1,0.3l0,0c-3.7,1.2-5.8,5.5-5.8,11.7
															c0,3.8,0.8,7.9,2.4,12c2.7,6.9,7.1,12.7,11.9,15.4c3.2,1.9,6.3,2.1,8.7,0.8c2.9-1.7,4.6-5.7,4.6-11.1
															c0-10.6-6.4-22.9-14.3-27.4C97.4,57.2,95.6,56.6,93.9,56.6z M91.5,56L91.5,56L91.5,56z"/>
													</g>
													<path class="st6" d="M121.8,81.6c0-7.9-3.5-16.8-8.5-22.8c1.9,2.3,3.6,4.9,4.9,7.8l-13,7.5c1.1,2.3,1.7,4.8,1.7,7.2
														c0,5.2-3.2,7.6-7.1,5.4c-2.1-1.2-4.1-3.6-5.4-6.4L94,80.5c2.7,5.7,6.7,10.7,11.2,13.3c1.2,0.7,2.4,1.2,3.5,1.5l0.8,2.5
														l7.2-4.1l0,0C119.8,91.7,121.8,87.5,121.8,81.6z"/>
													<g>
														<path class="st5" d="M91.5,56c-3.9,1.3-6.5,5.8-6.5,12.6c0,4,0.9,8.3,2.5,12.4"/>
														<path class="st6" d="M87.5,81.9c-0.4,0-0.8-0.2-0.9-0.6C84.9,77,84,72.6,84,68.6c0-7,2.7-12.1,7.2-13.6
															c0.5-0.2,1.1,0.1,1.3,0.6c0.2,0.5-0.1,1.1-0.6,1.3c-3.7,1.2-5.8,5.5-5.8,11.7c0,3.8,0.8,7.9,2.4,12
															c0.2,0.5-0.1,1.1-0.6,1.3C87.7,81.9,87.6,81.9,87.5,81.9z"/>
													</g>
													<g>
														<path class="st5" d="M87.5,80.9c2.7,6.9,7.2,13,12.3,15.9c8.2,4.7,14.8-0.3,14.8-11.2S108,62,99.8,57.3
															c-3.1-1.8-5.9-2.2-8.3-1.4"/>
														<path class="st0" d="M105.7,99.7c-2,0-4.2-0.6-6.4-1.9c-5.2-3-9.9-9.1-12.8-16.5c-0.2-0.5,0.1-1.1,0.6-1.3
															c0.5-0.2,1.1,0.1,1.3,0.6c2.7,6.9,7.1,12.7,11.9,15.4c3.2,1.9,6.3,2.1,8.7,0.8c2.9-1.7,4.6-5.7,4.6-11.1
															c0-10.6-6.4-22.9-14.3-27.4c-2.7-1.6-5.3-2-7.5-1.3c-0.5,0.2-1.1-0.1-1.3-0.6c-0.2-0.5,0.1-1.1,0.6-1.3
															c2.7-0.9,5.9-0.4,9.1,1.5c8.4,4.9,15.3,18,15.3,29.2c0,6.1-2,10.8-5.6,12.9C108.7,99.3,107.2,99.7,105.7,99.7z"/>
													</g>
													<g>
														<path class="st6" d="M99.8,86.6c-3.9-2.3-7.1-8.3-7.1-13.6c0-5.2,3.2-7.6,7.1-5.4c3.9,2.3,7.1,8.3,7.1,13.6
															C106.9,86.5,103.7,88.9,99.8,86.6z"/>
														<path class="st6" d="M102.6,88.5c-1.1,0-2.2-0.3-3.3-1l0,0C95,85,91.7,78.7,91.7,73c0-3.1,1.1-5.5,3-6.6
															c1.6-0.9,3.6-0.8,5.7,0.4c4.3,2.5,7.6,8.8,7.6,14.4c0,3.1-1.1,5.5-3,6.6C104.2,88.3,103.5,88.5,102.6,88.5z
															 M100.3,85.7c1,0.6,2.4,1.1,3.7,0.4c1.2-0.7,2-2.5,2-4.9c0-4.9-3-10.6-6.6-12.7c-1-0.6-2.4-1.1-3.7-0.4
															c-1.2,0.7-2,2.5-2,4.9C93.7,77.9,96.7,83.6,100.3,85.7L100.3,85.7z"/>
													</g>
												</g>
												<path class="st7" d="M105.7,99.7c-2,0-4.2-0.6-6.4-1.9c-6.9-4-12.9-13.5-14.8-23.3L64.7,63v2.3c0,2-1.7,3.7-3.7,3.7
													c-1.3,0-2.6-0.7-3.2-1.9c-0.3-0.6-0.5-1.2-0.5-1.9v-6.6l-2.4-1.4v7c0,2-1.7,3.7-3.7,3.7l0,0c-1.3,0-2.6-0.7-3.2-1.9
													c-0.3-0.6-0.5-1.2-0.5-1.9V52.8l-2.8-1.6c-1.3-0.7-2.2-1.9-2.5-3.3c-0.4-1.4-0.2-2.9,0.5-4.1c0.7-1.3,1.9-2.2,3.3-2.5
													c1.4-0.4,2.9-0.2,4.1,0.5L84.9,62c0.9-2.9,2.5-5,4.6-6.2c0,0,0.1,0,0.1-0.1l7.2-4.1c0,0,0.1,0,0.1-0.1
													c3-1.7,6.8-1.4,10.6,0.8c2.3,1.3,4.5,3.3,6.6,5.7l0,0c0.3,0.3,0.6,0.7,0.9,1.1c0.3,0.4,0.6,0.8,0.9,1.2
													c0.6,0.9,1.2,1.8,1.7,2.7l0.1,0.2c0.5,0.9,1,1.8,1.4,2.7V66c0,0,0,0,0,0.1v0.1c0.4,0.9,0.8,1.8,1.2,2.8l0.1,0.2
													c0.2,0.4,0.3,0.9,0.5,1.3v0.1c0.2,0.5,0.3,0.9,0.4,1.4l0.1,0.2c0.1,0.5,0.2,0.9,0.3,1.3l0.1,0.3
													c0.1,0.5,0.2,0.9,0.3,1.4v0.2c0.1,0.5,0.2,0.9,0.2,1.3l0.1,0.3c0.1,0.5,0.1,0.9,0.2,1.4v0.1c0,0.5,0.1,0.9,0.1,1.3v0.4
													c0,0.5,0,0.9,0,1.4c0,2.1-0.3,4.1-0.7,5.9c-0.1,0.2-0.1,0.4-0.2,0.6c-0.3,0.8-0.6,1.5-0.9,2.2c-0.2,0.4-0.4,0.8-0.7,1.1
													l0,0c-0.8,1.3-1.9,2.3-3,2.9c0,0-0.1,0-0.1,0.1l-7.2,4.1c0,0-0.1,0-0.1,0.1C108.6,99.3,107.2,99.7,105.7,99.7z
													 M63.7,60.3c0.2,0,0.3,0,0.5,0.1L86,72.9c0.3,0.1,0.4,0.4,0.5,0.7c1.6,9.4,7.3,18.6,13.9,22.4c3.2,1.9,6.3,2.1,8.7,0.8
													c0,0,0.1,0,0.1-0.1l7-4c0,0,0.1,0,0.1-0.1c0.9-0.5,1.8-1.3,2.5-2.4c0.2-0.3,0.4-0.6,0.5-0.9c0.3-0.6,0.6-1.2,0.8-1.9
													c0.1-0.2,0.1-0.4,0.2-0.6c0.4-1.6,0.7-3.4,0.7-5.4c0-0.4,0-0.9,0-1.3v-0.3c0-0.4-0.1-0.8-0.1-1.1v-0.1
													c-0.1-0.5-0.1-0.9-0.2-1.4v-0.3c-0.1-0.4-0.1-0.8-0.2-1.1v-0.2c-0.1-0.4-0.2-0.9-0.3-1.3l-0.1-0.3
													c-0.1-0.4-0.2-0.8-0.3-1.1v-0.1v-0.2c-0.1-0.5-0.3-0.9-0.4-1.3l0.9-0.5l-0.9,0.3c-0.1-0.4-0.3-0.8-0.4-1.2l-0.1-0.2
													c-0.3-0.9-0.7-1.8-1.1-2.6V67l0,0l0,0c-0.4-0.9-0.9-1.8-1.4-2.6l-0.1-0.1c-0.5-0.9-1-1.7-1.5-2.5l-0.1-0.1
													c-0.3-0.4-0.5-0.7-0.8-1.1c-0.3-0.4-0.6-0.8-0.9-1.2c-1.9-2.3-3.9-4.1-6-5.3c-3.2-1.9-6.3-2.1-8.7-0.8h-0.1l-7,4
													c0,0-0.1,0-0.1,0.1c-2,1.1-3.4,3.3-4.1,6.3c-0.1,0.3-0.3,0.6-0.6,0.7c-0.3,0.1-0.6,0.1-0.9-0.1L49,43.6
													c-0.8-0.5-1.7-0.6-2.6-0.3c-0.9,0.2-1.6,0.8-2.1,1.6c-1,1.7-0.4,3.8,1.3,4.7l3.3,1.9c0.3,0.2,0.5,0.5,0.5,0.9v11.8
													c0,0.3,0.1,0.6,0.2,0.9c0.3,0.5,0.9,0.9,1.5,0.9l0,0c0.9,0,1.7-0.8,1.7-1.7v-8.7c0-0.4,0.2-0.7,0.5-0.9s0.7-0.2,1,0
													l4.4,2.6c0.3,0.2,0.5,0.5,0.5,0.9v7.2c0,0.3,0.1,0.6,0.2,0.9c0.3,0.5,0.9,0.9,1.5,0.9c0.9,0,1.7-0.8,1.7-1.7v-4.1
													c0-0.4,0.2-0.7,0.5-0.9C63.4,60.3,63.6,60.3,63.7,60.3z M119.4,90.8L119.4,90.8L119.4,90.8z"/>
											</g>
										</g>
									</g>
								</g>
								<g>
									<path class="st3" d="M64.6,79.3L64.6,79.3c-0.6,0-1-0.5-1-1.1l1-12.2c-1.5-0.8-2.4-2.6-2.4-5c0-4.1,2.4-8.7,5.5-10.5
										c0.5-0.3,1.1-0.1,1.4,0.4s0.1,1.1-0.4,1.4c-2.5,1.4-4.5,5.4-4.5,8.8c0,1.8,0.6,3.1,1.7,3.4c0.5,0.1,0.8,0.6,0.8,1.1l-1,13
										C65.6,78.9,65.1,79.3,64.6,79.3z"/>
								</g>
							</g>
						</g>
					</g>
				</g>
				<rect x="4" y="4" class="st8" width="120" height="120"/>
				<rect x="4" y="4" class="st8" width="120" height="120"/>
			</g>
		</g>
	</g>
	<g>
		<rect class="st8" width="128" height="128"/>
	</g>
</g>
</svg>
