<?xml version="1.0" encoding="utf-8"?>
<!-- Generator: Adobe Illustrator 24.1.0, SVG Export Plug-In . SVG Version: 6.00 Build 0)  -->
<svg version="1.1" id="Layer_1" xmlns="http://www.w3.org/2000/svg" xmlns:xlink="http://www.w3.org/1999/xlink" x="0px" y="0px"
	 viewBox="0 0 128 128" style="enable-background:new 0 0 128 128;" xml:space="preserve">
<style type="text/css">
	.st0{fill:#4D9987;}
	.st1{fill:#E9EBDF;}
	.st2{fill:#FFFFFF;}
	.st3{fill:#C4D7D3;}
	.st4{fill:#27ae60;}
	.st5{fill:#185849;}
	.st6{fill:none;}
</style>
<g id="Layer_1_1_">
</g>
<g>
	<g id="Layer_2_1_">
		<g id="New_Illustrations_1_">
			<g>
				<g>
					<g>
						<path class="st0" d="M49.3,93.8c-0.3,0-0.5-0.1-0.7-0.3c-0.2-0.2-0.3-0.4-0.3-0.7c0-0.1,0-0.3,0.1-0.4s0.1-0.2,0.2-0.3
							c0.2-0.2,0.6-0.3,0.9-0.3c0.1,0,0.1,0,0.2,0.1c0.1,0,0.1,0.1,0.2,0.1c0.1,0,0.1,0.1,0.2,0.1c0.1,0.1,0.2,0.2,0.2,0.3
							c0.1,0.1,0.1,0.2,0.1,0.4c0,0.3-0.1,0.5-0.3,0.7c0,0.1-0.1,0.1-0.2,0.1c-0.1,0-0.1,0.1-0.2,0.1c-0.1,0-0.1,0-0.2,0.1
							C49.4,93.8,49.4,93.8,49.3,93.8z"/>
						<path class="st0" d="M43,105.6c-0.5-0.2-0.7-0.8-0.5-1.3l0,0c0.2-0.5,0.8-0.7,1.3-0.5l0,0c0.5,0.2,0.7,0.8,0.4,1.3l0,0
							c-0.2,0.3-0.5,0.6-0.9,0.6l0,0C43.3,105.7,43.2,105.7,43,105.6z M45.9,99.7c-0.5-0.2-0.7-0.8-0.5-1.3l0,0
							c0.2-0.5,0.9-0.7,1.3-0.5l0,0c0.5,0.2,0.7,0.8,0.5,1.3l0,0c-0.2,0.3-0.5,0.6-0.9,0.6l0,0C46.2,99.8,46.1,99.7,45.9,99.7z"/>
						<path class="st0" d="M40.5,111.7c-0.3,0-0.5-0.1-0.7-0.3c-0.2-0.2-0.3-0.4-0.3-0.7c0-0.3,0.1-0.5,0.3-0.7c0.4-0.4,1-0.4,1.4,0
							c0.2,0.2,0.3,0.4,0.3,0.7c0,0.3-0.1,0.5-0.3,0.7C41.1,111.6,40.8,111.7,40.5,111.7z"/>
					</g>
					<g>
						<path class="st0" d="M40.8,40.8c-0.3,0-0.5-0.1-0.7-0.3s-0.3-0.4-0.3-0.7s0.1-0.5,0.3-0.7c0.4-0.4,1-0.4,1.4,0
							c0.2,0.2,0.3,0.4,0.3,0.7s-0.1,0.5-0.3,0.7S41,40.8,40.8,40.8z"/>
						<path class="st0" d="M48.2,46.7c-0.4-0.3-0.5-1-0.2-1.4l0,0c0.3-0.4,1-0.5,1.4-0.2l0,0c0.4,0.3,0.5,1,0.2,1.4l0,0
							c-0.2,0.3-0.5,0.4-0.8,0.4l0,0C48.6,46.9,48.4,46.9,48.2,46.7z M44.2,43.7c-0.4-0.3-0.5-1-0.2-1.4l0,0c0.3-0.4,1-0.5,1.4-0.2
							l0,0c0.4,0.3,0.5,1,0.2,1.4l0,0c-0.2,0.3-0.5,0.4-0.8,0.4l0,0C44.6,43.9,44.4,43.8,44.2,43.7z"/>
						<path class="st0" d="M52.8,50c-0.3,0-0.5-0.1-0.7-0.3C52,49.6,52,49.6,52,49.5c0-0.1-0.1-0.1-0.1-0.2c0-0.1,0-0.1-0.1-0.2
							c0-0.1,0-0.1,0-0.2c0-0.3,0.1-0.5,0.3-0.7c0.3-0.3,0.7-0.4,1.1-0.2c0.1,0.1,0.2,0.1,0.3,0.2c0.2,0.2,0.3,0.4,0.3,0.7
							s-0.1,0.5-0.3,0.7c-0.1,0.1-0.2,0.2-0.3,0.2C53.1,50,53,50,52.8,50z"/>
					</g>
					<g>
						<path class="st0" d="M35.2,79.1c-0.3,0-0.5-0.1-0.7-0.3c-0.2-0.2-0.3-0.4-0.3-0.7c0-0.3,0.1-0.5,0.3-0.7c0.4-0.4,1-0.4,1.4,0
							c0.2,0.2,0.3,0.4,0.3,0.7s-0.1,0.5-0.3,0.7C35.7,79,35.4,79.1,35.2,79.1z"/>
						<path class="st0" d="M28.8,81.7c-0.3-0.5-0.1-1.1,0.4-1.4l0,0c0.5-0.3,1.1-0.1,1.4,0.4l0,0c0.3,0.5,0.1,1.1-0.4,1.4l0,0
							c-0.1,0.1-0.3,0.1-0.5,0.1l0,0C29.3,82.2,29,82,28.8,81.7z"/>
						<path class="st0" d="M24.2,85.4c-0.3,0-0.5-0.1-0.7-0.3c-0.1-0.1-0.2-0.2-0.2-0.3c0-0.1-0.1-0.2-0.1-0.4
							c0-0.3,0.1-0.5,0.3-0.7c0.4-0.4,1-0.4,1.4,0c0.2,0.2,0.3,0.4,0.3,0.7c0,0.1,0,0.3-0.1,0.4S25,85,24.9,85.1
							C24.7,85.3,24.5,85.4,24.2,85.4z"/>
					</g>
					<g>
						<circle class="st1" cx="20.4" cy="86.6" r="4.4"/>
						<path class="st0" d="M20.4,92c-3,0-5.4-2.4-5.4-5.4s2.4-5.4,5.4-5.4s5.4,2.4,5.4,5.4S23.4,92,20.4,92z M20.4,83.2
							c-1.9,0-3.4,1.5-3.4,3.4s1.5,3.4,3.4,3.4s3.4-1.5,3.4-3.4S22.3,83.2,20.4,83.2z"/>
					</g>
					<g>
						<path class="st0" d="M76.4,42.6c-0.3,0-0.5-0.1-0.7-0.3s-0.3-0.4-0.3-0.7s0.1-0.5,0.3-0.7c0.1-0.1,0.2-0.2,0.3-0.2
							c0.2-0.1,0.5-0.1,0.8,0c0.1,0,0.2,0.1,0.3,0.2c0.2,0.2,0.3,0.4,0.3,0.7s-0.1,0.5-0.3,0.7c-0.1,0.1-0.2,0.2-0.3,0.2
							C76.7,42.6,76.6,42.6,76.4,42.6z"/>
						<path class="st0" d="M78.5,37.6c-0.5-0.2-0.7-0.9-0.4-1.4l0,0c0.2-0.5,0.9-0.7,1.3-0.4l0,0c0.5,0.2,0.7,0.9,0.4,1.4l0,0
							c-0.2,0.3-0.5,0.5-0.9,0.5l0,0C78.8,37.7,78.7,37.7,78.5,37.6z M81.1,32.7c-0.5-0.2-0.7-0.9-0.4-1.3l0,0
							c0.2-0.5,0.8-0.7,1.3-0.4l0,0c0.5,0.2,0.7,0.9,0.4,1.4l0,0c-0.2,0.3-0.5,0.5-0.9,0.5l0,0C81.4,32.8,81.2,32.8,81.1,32.7z
							 M83.6,27.8c-0.5-0.2-0.7-0.9-0.4-1.4l0,0c0.3-0.5,0.9-0.7,1.4-0.4l0,0c0.5,0.3,0.7,0.9,0.4,1.4l0,0c-0.2,0.3-0.5,0.5-0.9,0.5
							l0,0C83.9,28,83.7,27.9,83.6,27.8z"/>
						<path class="st0" d="M86.6,23.1c-0.1,0-0.3,0-0.4-0.1s-0.2-0.1-0.3-0.2c-0.2-0.2-0.3-0.4-0.3-0.7c0-0.1,0-0.3,0.1-0.4
							c0-0.1,0.1-0.2,0.2-0.3c0.1-0.1,0.2-0.2,0.3-0.2c0.4-0.2,0.8-0.1,1.1,0.2c0.2,0.2,0.3,0.4,0.3,0.7c0,0.3-0.1,0.5-0.3,0.7
							C87.1,23,86.9,23.1,86.6,23.1z"/>
					</g>
					<g>
						<path class="st0" d="M91,46.8c-0.1,0-0.3,0-0.4-0.1c-0.1,0-0.2-0.1-0.3-0.2c-0.2-0.2-0.3-0.4-0.3-0.7s0.1-0.5,0.3-0.7
							c0.4-0.4,1-0.4,1.4,0c0.2,0.2,0.3,0.4,0.3,0.7s-0.1,0.5-0.3,0.7C91.6,46.7,91.3,46.8,91,46.8z"/>
						<path class="st0" d="M94.4,43.8c-0.3-0.5-0.1-1.1,0.4-1.4l0,0c0.5-0.3,1.1-0.1,1.4,0.4l0,0c0.3,0.5,0.1,1.1-0.4,1.4l0,0
							c-0.2,0.1-0.3,0.1-0.5,0.1l0,0C94.9,44.3,94.6,44.2,94.4,43.8z M98.7,41.4c-0.3-0.5-0.1-1.1,0.4-1.4l0,0
							c0.5-0.3,1.1-0.1,1.4,0.4l0,0c0.3,0.5,0.1,1.1-0.4,1.4l0,0c-0.2,0.1-0.3,0.1-0.5,0.1l0,0C99.2,41.9,98.9,41.7,98.7,41.4z"/>
						<path class="st0" d="M103.8,39.4c-0.3,0-0.5-0.1-0.7-0.3s-0.3-0.4-0.3-0.7c0-0.1,0-0.3,0.1-0.4c0.1-0.1,0.1-0.2,0.2-0.3
							c0.4-0.4,1-0.4,1.4,0c0.1,0.1,0.2,0.2,0.2,0.3s0.1,0.2,0.1,0.4c0,0.3-0.1,0.5-0.3,0.7C104.3,39.3,104,39.4,103.8,39.4z"/>
					</g>
					<g>
						<path class="st0" d="M86,75.1c-0.1,0-0.3,0-0.4-0.1c-0.1,0-0.2-0.1-0.3-0.2c-0.2-0.2-0.3-0.4-0.3-0.7c0-0.3,0.1-0.5,0.3-0.7
							c0.1-0.1,0.2-0.2,0.3-0.2c0.2-0.1,0.4-0.1,0.6-0.1c0.1,0,0.1,0,0.2,0.1c0.1,0,0.1,0.1,0.2,0.1l0.1,0.1
							c0.2,0.2,0.3,0.4,0.3,0.7c0,0.1,0,0.3-0.1,0.4c0,0.1-0.1,0.2-0.2,0.3C86.6,75,86.3,75.1,86,75.1z"/>
						<path class="st0" d="M93.2,81c-0.4-0.3-0.5-1-0.2-1.4l0,0c0.3-0.4,1-0.5,1.4-0.2l0,0c0.4,0.3,0.5,1,0.2,1.4l0,0
							c-0.2,0.2-0.5,0.4-0.8,0.4l0,0C93.6,81.2,93.3,81.1,93.2,81z M89.3,77.9c-0.4-0.3-0.5-1-0.2-1.4l0,0c0.3-0.4,1-0.5,1.4-0.2
							l0,0c0.4,0.3,0.5,1,0.2,1.4l0,0c-0.2,0.2-0.5,0.4-0.8,0.4l0,0C89.7,78.1,89.5,78.1,89.3,77.9z"/>
						<path class="st0" d="M97.7,84.2c-0.3,0-0.5-0.1-0.7-0.3c-0.1-0.1-0.2-0.2-0.2-0.3c0-0.1-0.1-0.2-0.1-0.4c0-0.1,0-0.3,0.1-0.4
							s0.1-0.2,0.2-0.3c0.4-0.4,1-0.4,1.4,0c0.1,0.1,0.2,0.2,0.2,0.3c0,0.1,0.1,0.2,0.1,0.4c0,0.1,0,0.3-0.1,0.4s-0.1,0.2-0.2,0.3
							C98.2,84.1,97.9,84.2,97.7,84.2z"/>
					</g>
					<g>
						<path class="st0" d="M67,38.2c-0.3,0-0.5-0.1-0.7-0.3c-0.1-0.1-0.2-0.2-0.2-0.3C66,37.5,66,37.3,66,37.2s0-0.1,0-0.2
							c0-0.1,0-0.1,0.1-0.2c0-0.1,0-0.1,0.1-0.2c0-0.1,0.1-0.1,0.1-0.2c0.3-0.3,0.7-0.4,1.1-0.2c0.1,0.1,0.2,0.1,0.3,0.2
							c0,0.1,0.1,0.1,0.1,0.2c0,0.1,0.1,0.1,0.1,0.2c0,0.1,0,0.1,0.1,0.2c0,0.1,0,0.1,0,0.2c0,0.1,0,0.3-0.1,0.4
							c0,0.1-0.1,0.2-0.2,0.3s-0.2,0.2-0.3,0.2C67.3,38.2,67.1,38.2,67,38.2z"/>
						<path class="st0" d="M66,31.4c0-0.6,0.4-1,1-1l0,0c0.5,0,1,0.4,1,1l0,0c0,0.6-0.5,1-1,1l0,0C66.4,32.4,66,31.9,66,31.4z
							 M66,25.5c0-0.5,0.4-1,1-1l0,0c0.5,0,1,0.5,1,1l0,0c0,0.6-0.5,1-1,1l0,0C66.4,26.5,66,26.1,66,25.5z M66,19.7c0-0.6,0.4-1,1-1
							l0,0c0.5,0,1,0.4,1,1l0,0c0,0.5-0.5,1-1,1l0,0C66.4,20.7,66,20.2,66,19.7z"/>
						<path class="st0" d="M67,14.8c-0.3,0-0.5-0.1-0.7-0.3c-0.1-0.1-0.2-0.2-0.2-0.3C66,14.1,66,13.9,66,13.8
							c0-0.3,0.1-0.5,0.3-0.7c0.3-0.3,0.7-0.4,1.1-0.2c0.1,0.1,0.2,0.1,0.3,0.2c0.2,0.2,0.3,0.4,0.3,0.7c0,0.1,0,0.3-0.1,0.4
							c0,0.1-0.1,0.2-0.2,0.3s-0.2,0.2-0.3,0.2C67.3,14.8,67.1,14.8,67,14.8z"/>
					</g>
					<g>
						<path class="st0" d="M67,86.1c-0.3,0-0.5-0.1-0.7-0.3c0-0.1-0.1-0.1-0.1-0.1c0-0.1-0.1-0.1-0.1-0.2S66,85.4,66,85.3
							s0-0.1,0-0.2s0-0.3,0.1-0.4c0-0.1,0.1-0.2,0.2-0.3c0.3-0.3,0.7-0.4,1.1-0.2c0.1,0.1,0.2,0.1,0.3,0.2c0.1,0.1,0.2,0.2,0.2,0.3
							c0,0.1,0.1,0.2,0.1,0.4c0,0.1,0,0.1,0,0.2s0,0.1-0.1,0.2c0,0.1,0,0.1-0.1,0.2c0,0.1-0.1,0.1-0.1,0.1c-0.1,0.1-0.2,0.2-0.3,0.2
							C67.3,86.1,67.1,86.1,67,86.1z"/>
						<path class="st0" d="M66,108.4c0-0.6,0.4-1,1-1l0,0c0.5,0,1,0.4,1,1l0,0c0,0.6-0.5,1-1,1l0,0C66.4,109.4,66,108.9,66,108.4z
							 M66,102.5c0-0.6,0.4-1,1-1l0,0c0.5,0,1,0.4,1,1l0,0c0,0.6-0.5,1-1,1l0,0C66.4,103.5,66,103.1,66,102.5z M66,96.7
							c0-0.5,0.4-1,1-1l0,0c0.5,0,1,0.5,1,1l0,0c0,0.6-0.5,1-1,1l0,0C66.4,97.7,66,97.3,66,96.7z M66,90.9c0-0.6,0.4-1,1-1l0,0
							c0.5,0,1,0.4,1,1l0,0c0,0.6-0.5,1-1,1l0,0C66.4,91.9,66,91.5,66,90.9z"/>
						<path class="st0" d="M67,115.2c-0.3,0-0.5-0.1-0.7-0.3c0-0.1-0.1-0.1-0.1-0.2s-0.1-0.1-0.1-0.2s-0.1-0.1-0.1-0.2s0-0.1,0-0.2
							s0-0.3,0.1-0.4c0-0.1,0.1-0.2,0.2-0.3c0.3-0.3,0.7-0.4,1.1-0.2c0.1,0.1,0.2,0.1,0.3,0.2c0.1,0.1,0.2,0.2,0.2,0.3
							c0,0.1,0.1,0.2,0.1,0.4c0,0.1,0,0.1,0,0.2s0,0.1-0.1,0.2c0,0.1,0,0.1-0.1,0.2c0,0.1-0.1,0.1-0.1,0.2c-0.1,0.1-0.2,0.2-0.3,0.2
							C67.3,115.2,67.1,115.2,67,115.2z"/>
					</g>
					<g>
						<circle class="st1" cx="67" cy="118.6" r="4.4"/>
						<path class="st0" d="M67,124c-3,0-5.4-2.4-5.4-5.4s2.4-5.4,5.4-5.4s5.4,2.4,5.4,5.4S70,124,67,124z M67,115.2
							c-1.9,0-3.4,1.5-3.4,3.4s1.5,3.4,3.4,3.4s3.4-1.5,3.4-3.4S68.9,115.2,67,115.2z"/>
					</g>
					<g>
						<g>
							<path class="st2" d="M97.5,49.5L97.5,49.5L86,42.9l0,0c-1.3-0.8-3.1-0.7-5,0.4l-0.8,0.5l-9.9-5.7l0,0
								c-2.2-1.3-5.2-1.2-8.4,0.7c-6.7,3.9-12.2,13.9-12.7,22.9l-6.3,3.6c-4.2,2.4-7.7,9-7.7,14.7l0,0c0,3.1,1,5.3,2.7,6.2l0,0
								l11.5,6.6l0,0c1.3,0.8,3.1,0.7,5-0.4l38.1-22c4.2-2.4,7.7-9,7.7-14.7l0,0C100.1,52.6,99.1,50.5,97.5,49.5z"/>
							<path class="st3" d="M92.5,49.9l-6.3,3.6c-0.6-8.4-6.1-12-12.7-8.2c-6.7,3.9-12.2,13.9-12.7,22.9l-6.3,3.6
								c-4.2,2.4-7.7,9-7.7,14.7s3.4,8.2,7.7,5.8l38.1-22c4.2-2.4,7.7-9,7.7-14.7l0,0C100.1,50.1,96.7,47.5,92.5,49.9z"/>
							<path class="st4" d="M46.7,87.6c-0.6,0-1-0.4-1-1c0-6.1,3.6-12.9,8.2-15.5l5.9-3.4c0.8-9.3,6.4-19.2,13.2-23.2
								c3.3-1.9,6.5-2.2,9.1-0.8s4.3,4.3,4.9,8.2l5-2.9c0.5-0.3,1.1-0.1,1.4,0.4s0.1,1.1-0.4,1.4l-6.3,3.6c-0.3,0.2-0.7,0.2-1,0
								s-0.5-0.5-0.5-0.8c-0.3-4-1.7-6.9-4-8.2c-2-1.1-4.5-0.8-7.2,0.8c-6.3,3.6-11.7,13.3-12.2,22.1c0,0.3-0.2,0.6-0.5,0.8L55,72.7
								c-4,2.3-7.2,8.5-7.2,13.8C47.7,87.1,47.2,87.6,46.7,87.6z"/>
							<path class="st5" d="M51.3,94.3c-0.9,0-1.7-0.2-2.4-0.6h-0.1L37.3,87l-0.1-0.1c-1.9-1.2-3-3.7-3-7c0-6.1,3.6-12.9,8.2-15.5
								l5.9-3.4c0.8-9.3,6.4-19.2,13.2-23.2c3.4-1.9,6.6-2.2,9.3-0.7h0.1l9.4,5.4l0.3-0.2c2.1-1.2,4.2-1.4,5.9-0.5
								c0,0,0.1,0,0.1,0.1L98,48.6h0.1c2,1.2,3.1,3.7,3.1,7c0,6.1-3.6,12.9-8.2,15.5l-38.1,22C53.6,94,52.4,94.3,51.3,94.3z
								 M49.7,91.9C49.8,91.9,49.8,91.9,49.7,91.9c1.2,0.7,2.6,0.5,4.1-0.4l38.1-22c4-2.3,7.2-8.5,7.2-13.8c0-2.6-0.8-4.5-2.2-5.3
								c0,0,0,0-0.1,0l-11.3-6.5c0,0-0.1,0-0.1-0.1c-1.1-0.6-2.5-0.5-4,0.4l-0.8,0.5c-0.3,0.2-0.7,0.2-1,0L69.8,39h-0.1
								c-2-1.2-4.6-0.9-7.4,0.7c-6.2,3.6-11.6,13.3-12.1,22c0,0.3-0.2,0.6-0.5,0.8l-6.3,3.6c-4,2.3-7.2,8.5-7.2,13.8
								c0,2.6,0.8,4.5,2.2,5.3l0.1,0.1L49.7,91.9z"/>
						</g>
					</g>
					<g>
						<circle class="st1" cx="67" cy="9.4" r="4.4"/>
						<path class="st0" d="M67,14.8c-3,0-5.4-2.4-5.4-5.4S64,4,67,4s5.4,2.4,5.4,5.4S70,14.8,67,14.8z M67,6c-1.9,0-3.4,1.5-3.4,3.4
							s1.5,3.4,3.4,3.4s3.4-1.5,3.4-3.4S68.9,6,67,6z"/>
					</g>
					<g>
						<circle class="st1" cx="88.6" cy="18.2" r="4.4"/>
						<path class="st0" d="M88.6,23.6c-3,0-5.4-2.4-5.4-5.4s2.4-5.4,5.4-5.4s5.4,2.4,5.4,5.4S91.6,23.6,88.6,23.6z M88.6,14.8
							c-1.9,0-3.4,1.5-3.4,3.4s1.5,3.4,3.4,3.4S92,20,92,18.2S90.5,14.8,88.6,14.8z"/>
					</g>
					<g>
						<circle class="st1" cx="107.6" cy="36.2" r="4.4"/>
						<path class="st0" d="M107.6,41.7c-3,0-5.4-2.4-5.4-5.4s2.4-5.4,5.4-5.4s5.4,2.4,5.4,5.4S110.6,41.7,107.6,41.7z M107.6,32.8
							c-1.9,0-3.4,1.5-3.4,3.4s1.5,3.4,3.4,3.4s3.4-1.5,3.4-3.4S109.5,32.8,107.6,32.8z"/>
					</g>
					<g>
						<circle class="st1" cx="37" cy="37.7" r="4.4"/>
						<path class="st0" d="M37,43.1c-3,0-5.4-2.4-5.4-5.4s2.4-5.4,5.4-5.4s5.4,2.4,5.4,5.4S39.9,43.1,37,43.1z M37,34.3
							c-1.9,0-3.4,1.5-3.4,3.4s1.5,3.4,3.4,3.4s3.4-1.5,3.4-3.4S38.8,34.3,37,34.3z"/>
					</g>
					<g>
						<circle class="st1" cx="38.6" cy="114.6" r="4.4"/>
						<path class="st0" d="M38.6,120c-3,0-5.4-2.4-5.4-5.4s2.4-5.4,5.4-5.4s5.4,2.4,5.4,5.4S41.5,120,38.6,120z M38.6,111.2
							c-1.9,0-3.4,1.5-3.4,3.4s1.5,3.4,3.4,3.4s3.4-1.5,3.4-3.4S40.4,111.2,38.6,111.2z"/>
					</g>
					<g>
						<circle class="st1" cx="101.2" cy="85.9" r="4.4"/>
						<path class="st0" d="M101.2,91.3c-3,0-5.4-2.4-5.4-5.4s2.4-5.4,5.4-5.4s5.4,2.4,5.4,5.4S104.1,91.3,101.2,91.3z M101.2,82.5
							c-1.9,0-3.4,1.5-3.4,3.4s1.5,3.4,3.4,3.4s3.4-1.5,3.4-3.4S103,82.5,101.2,82.5z"/>
					</g>
				</g>
				<rect x="4" y="4" class="st6" width="120" height="120"/>
			</g>
		</g>
	</g>
	<g>
		<rect class="st6" width="128" height="128"/>
	</g>
</g>
</svg>
