<?xml version="1.0" encoding="utf-8"?>
<!-- Generator: Adobe Illustrator 24.1.0, SVG Export Plug-In . SVG Version: 6.00 Build 0)  -->
<svg version="1.1" id="Layer_1" xmlns="http://www.w3.org/2000/svg" xmlns:xlink="http://www.w3.org/1999/xlink" x="0px" y="0px"
	 viewBox="0 0 128 128" style="enable-background:new 0 0 128 128;" xml:space="preserve">
<style type="text/css">
	.st0{fill:none;}
	.st1{fill:#FFFFFF;}
	.st2{fill:#27ae60;}
	.st3{fill:#E9EBDF;}
	.st4{fill:#4D9987;}
	.st5{fill:#0E352C;}
	.st6{fill:#185849;}
</style>
<g id="Layer_1_1_">
</g>
<g>
	<g id="Layer_2_1_">
		<g id="New_Illustrations_1_">
			<g>
				<rect x="4" y="4" class="st0" width="120" height="120"/>
				<g>
					<g>
						<g>
							<g>
								<g>
									<path class="st1" d="M106.5,94.6l-39-22.5c-2-1.1-5.1-1.1-7.1,0l-39,22.5c-2,1.1-2,3,0,4.1l39,22.5c2,1.1,5.1,1.1,7.1,0
										l39-22.5C108.5,97.6,108.5,95.8,106.5,94.6z"/>
									<path class="st2" d="M64,123.1c-1.5,0-2.9-0.3-4.1-1L21,99.6c-1.3-0.7-2-1.8-2-2.9s0.7-2.2,2-2.9l39-22.5
										c2.3-1.3,5.8-1.3,8.1,0l39,22.5l0,0c1.3,0.7,2,1.8,2,2.9s-0.7,2.2-2,2.9l-39,22.5C66.9,122.7,65.5,123.1,64,123.1z
										 M64,72.3c-1.1,0-2.2,0.2-3.1,0.7L22,95.5c-0.6,0.4-1,0.8-1,1.2c0,0.4,0.4,0.8,1,1.2l39,22.5c1.7,1,4.4,1,6.1,0l39-22.5
										c0.6-0.4,1-0.8,1-1.2c0-0.4-0.4-0.8-1-1.2L67.1,73C66.2,72.5,65.1,72.3,64,72.3z"/>
								</g>
								<g>
									<g>
										<g>
											<g>
												<path class="st3" d="M83.5,81.3l-15.9-9.2c-2-1.1-5.1-1.1-7.1,0l-15.9,9.2H20v15.4c0,0.7,0.5,1.5,1.5,2.1l39,22.5
													c2,1.1,5.1,1.1,7.1,0l39-22.5c1-0.6,1.5-1.3,1.5-2.1V81.3H83.5z"/>
												<path class="st4" d="M64,123.1c-1.5,0-2.9-0.3-4.1-1L21,99.6c-1.3-0.7-2-1.8-2-2.9V81.3c0-0.6,0.4-1,1-1h24.3L60,71.2
													c2.3-1.3,5.8-1.3,8.1,0l15.7,9.1H108c0.6,0,1,0.4,1,1v15.4c0,1.1-0.7,2.2-2,2.9l-39,22.5
													C66.9,122.7,65.5,123.1,64,123.1z M21,82.3v14.4c0,0.4,0.4,0.8,1,1.2l39,22.5c1.7,1,4.4,1,6.1,0l39-22.5
													c0.6-0.4,1-0.8,1-1.2V82.3H83.5c-0.2,0-0.3,0-0.5-0.1L67.1,73c-1.7-1-4.5-1-6.1,0l-16,9.2c-0.2,0.1-0.3,0.1-0.5,0.1
													C44.5,82.3,21,82.3,21,82.3z"/>
											</g>
											<path class="st4" d="M67.6,121.2l39-22.5c1-0.6,1.5-1.3,1.5-2.1V81.3H83.5l-15.9-9.2c-1-0.6-2.3-0.8-3.6-0.8v50.8
												C65.3,122.1,66.6,121.8,67.6,121.2z"/>
											<path class="st4" d="M46.7,107.2c-0.2,0-0.3,0-0.5-0.1l-11.5-6.7c-0.5-0.3-0.6-0.9-0.4-1.4c0.3-0.5,0.9-0.6,1.4-0.4
												l11.5,6.7c0.5,0.3,0.6,0.9,0.4,1.4C47.4,107,47.1,107.2,46.7,107.2z"/>
											<g>
												<path class="st1" d="M106.5,79.3l-39-22.5c-2-1.1-5.1-1.1-7.1,0l-39,22.5c-2,1.1-2,3,0,4.1l39,22.5c2,1.1,5.1,1.1,7.1,0
													l39-22.5C108.5,82.2,108.5,80.4,106.5,79.3z"/>
												<path class="st4" d="M64,107.7c-1.5,0-2.9-0.3-4.1-1L21,84.2c-1.3-0.7-2-1.8-2-2.9s0.7-2.2,2-2.9l39-22.5
													c2.3-1.3,5.8-1.3,8.1,0l39,22.5l0,0c1.3,0.7,2,1.8,2,2.9s-0.7,2.2-2,2.9l-39,22.5C66.9,107.4,65.5,107.7,64,107.7z
													 M64,56.9c-1.1,0-2.2,0.2-3.1,0.7L22,80.1c-0.6,0.4-1,0.8-1,1.2c0,0.4,0.4,0.8,1,1.2L61,105c1.7,1,4.4,1,6.1,0l39-22.5
													c0.6-0.4,1-0.8,1-1.2c0-0.4-0.4-0.8-1-1.2l-39-22.5C66.2,57.1,65.1,56.9,64,56.9z"/>
											</g>
										</g>
									</g>
									<g>
										<polygon class="st4" points="97.4,104 76.8,115.9 76.8,108.8 97.4,96.9 										"/>
										<path class="st3" d="M76.8,116.9c-0.2,0-0.3,0-0.5-0.1c-0.3-0.2-0.5-0.5-0.5-0.9v-7.1c0-0.4,0.2-0.7,0.5-0.9L96.9,96
											c0.3-0.2,0.7-0.2,1,0s0.5,0.5,0.5,0.9v7.1c0,0.4-0.2,0.7-0.5,0.9l-20.6,11.9C77.2,116.8,77,116.9,76.8,116.9z M77.8,109.4
											v4.8l18.6-10.7v-4.8L77.8,109.4z M97.4,104L97.4,104L97.4,104z"/>
									</g>
									<path class="st5" d="M64,123.1c-1.5,0-3-0.3-4.1-1L21,99.6c-1.3-0.7-2-1.8-2-2.9V81.3c0-1.1,0.7-2.2,2-2.9l39-22.5
										c2.3-1.3,5.8-1.3,8.1,0l39,22.5l0,0c1.3,0.7,2,1.8,2,2.9v15.4c0,1.1-0.7,2.2-2,2.9l-39,22.5C67,122.7,65.5,123.1,64,123.1z
										 M64,56.9c-1.1,0-2.2,0.2-3.1,0.7L22,80.1c-0.6,0.4-1,0.8-1,1.2v15.4c0,0.4,0.4,0.8,1,1.2l39,22.5c1.6,0.9,4.5,0.9,6.1,0
										l39-22.5c0.6-0.4,1-0.8,1-1.2V81.3c0-0.4-0.4-0.8-1-1.2l0,0l-39-22.5C66.2,57.1,65.1,56.9,64,56.9z"/>
									<g>
										<ellipse class="st4" cx="97.9" cy="81.3" rx="2" ry="1.2"/>
										<ellipse class="st4" cx="64" cy="100.9" rx="2" ry="1.2"/>
										<ellipse class="st4" cx="64" cy="61.7" rx="2" ry="1.2"/>
										<ellipse class="st4" cx="30.1" cy="81.3" rx="2" ry="1.2"/>
									</g>
								</g>
							</g>
						</g>
						<g>
							<polygon class="st1" points="81.6,81.3 64,91.5 46.4,81.3 64,71.2 							"/>
							<path class="st4" d="M64,92.5c-0.2,0-0.3,0-0.5-0.1L45.9,82.2c-0.3-0.2-0.5-0.5-0.5-0.9s0.2-0.7,0.5-0.9l17.6-10.2
								c0.3-0.2,0.7-0.2,1,0l17.6,10.2c0.3,0.2,0.5,0.5,0.5,0.9s-0.2,0.7-0.5,0.9L64.5,92.3C64.3,92.4,64.2,92.5,64,92.5z
								 M48.4,81.3l15.6,9l15.6-9l-15.6-9L48.4,81.3z"/>
						</g>
					</g>
					<g>
						<g>
							<path class="st1" d="M108,46.7V31.3c0-0.7-0.5-1.5-1.5-2.1l-39-22.5c-2-1.1-5.1-1.1-7.1,0l-39,22.5c-1,0.6-1.5,1.3-1.5,2.1
								v15.4c0,0.6,0.3,1.1,0.8,1.6c0.2,0.2,0.4,0.3,0.6,0.5l39,22.5c0.7,0.4,1.6,0.7,2.6,0.8c1.3,0.1,2.6,0,3.7-0.4
								c0.3-0.1,0.5-0.2,0.8-0.4l39-22.5c0.7-0.4,1.2-0.9,1.4-1.5C108,47.1,108,46.9,108,46.7z"/>
							<path class="st6" d="M64,73.1c-0.4,0-0.7,0-1.1-0.1c-1.1-0.1-2.2-0.4-3-0.9L21,49.6c-0.3-0.2-0.6-0.4-0.8-0.6
								c-0.8-0.7-1.2-1.5-1.2-2.3V31.3c0-1.1,0.7-2.2,2-2.9L60,5.9c2.3-1.3,5.8-1.3,8.1,0l39,22.5c1.3,0.7,2,1.8,2,2.9v15.4
								c0,0.3,0,0.6-0.1,0.9c-0.3,0.8-0.9,1.5-1.8,2l-39,22.5c-0.3,0.2-0.6,0.3-0.9,0.4C66.2,72.9,65.1,73.1,64,73.1z M64,6.9
								c-1.1,0-2.2,0.2-3.1,0.7L22,30.1c-0.6,0.4-1,0.8-1,1.2v15.4c0,0.3,0.3,0.6,0.5,0.8c0.1,0.1,0.3,0.2,0.5,0.3l39,22.5
								c0.6,0.3,1.4,0.6,2.2,0.7c1.1,0.1,2.3,0,3.3-0.4c0.2-0.1,0.4-0.2,0.6-0.3l39-22.5c0.5-0.3,0.8-0.6,0.9-0.9c0-0.1,0-0.2,0-0.2
								V31.3c0-0.4-0.4-0.8-1-1.2L67,7.6C66.2,7.2,65.1,6.9,64,6.9z"/>
						</g>
						<g>
							<path class="st1" d="M106.5,44.6l-39-22.5c-2-1.1-5.1-1.1-7.1,0l-39,22.5c-2,1.1-2,3,0,4.1l39,22.5c2,1.1,5.1,1.1,7.1,0
								l39-22.5C108.5,47.6,108.5,45.8,106.5,44.6z"/>
							<path class="st6" d="M64,73.1c-1.5,0-2.9-0.3-4.1-1L21,49.6c-1.3-0.7-2-1.8-2-2.9c0-1.1,0.7-2.2,2-2.9l39-22.5
								c2.3-1.3,5.8-1.3,8.1,0l39,22.5l0,0c1.3,0.7,2,1.8,2,2.9c0,1.1-0.7,2.2-2,2.9l-39,22.5C66.9,72.8,65.5,73.1,64,73.1z
								 M64,22.3c-1.1,0-2.2,0.2-3.1,0.7L22,45.5c-0.6,0.4-1,0.8-1,1.2s0.4,0.8,1,1.2l39,22.5c1.7,1,4.4,1,6.1,0l39-22.5
								c0.6-0.4,1-0.8,1-1.2s-0.4-0.8-1-1.2L67.1,23C66.2,22.5,65.1,22.3,64,22.3z"/>
						</g>
						<path class="st2" d="M64,73.1c-1.5,0-2.9-0.3-4.1-1L21,49.6c-1.3-0.7-2-1.8-2-2.9c0-1.1,0.7-2.2,2-2.9l39-22.5
							c2.3-1.3,5.8-1.3,8.1,0l39,22.5l0,0c1.3,0.7,2,1.8,2,2.9c0,1.1-0.7,2.2-2,2.9l-39,22.5C66.9,72.8,65.5,73.1,64,73.1z M64,22.3
							c-1.1,0-2.2,0.2-3.1,0.7L22,45.5c-0.6,0.4-1,0.8-1,1.2s0.4,0.8,1,1.2l39,22.5c1.7,1,4.4,1,6.1,0l39-22.5c0.6-0.4,1-0.8,1-1.2
							s-0.4-0.8-1-1.2L67.1,23C66.2,22.5,65.1,22.3,64,22.3z"/>
						<path class="st2" d="M64,73.1c-1.5,0-2.9-0.3-4.1-1L21,49.6c-1.3-0.7-2-1.8-2-2.9V31.3c0-0.6,0.4-1,1-1s1,0.4,1,1
							c0,0.4,0.4,0.8,1,1.2L61,55c1.7,1,4.4,1,6.1,0l39-22.5c0.6-0.4,1-0.8,1-1.2c0-0.6,0.4-1,1-1s1,0.4,1,1v15.4
							c0,1.1-0.7,2.2-2,2.9l-39,22.5C66.9,72.8,65.5,73.1,64,73.1z M21,34.3v12.4c0,0.4,0.4,0.8,1,1.2l39,22.5c1.7,1,4.4,1,6.1,0
							l39-22.5c0.6-0.4,1-0.8,1-1.2V34.3l-39,22.4c-2.3,1.3-5.8,1.3-8.1,0L21,34.3z M106.5,33.4L106.5,33.4L106.5,33.4z"/>
						<path class="st2" d="M64,57.7c-1.5,0-2.9-0.3-4.1-1L21,34.2c-1.3-0.7-2-1.8-2-2.9s0.7-2.2,2-2.9L60,5.9c2.3-1.3,5.8-1.3,8.1,0
							l39,22.5l0,0c1.3,0.7,2,1.8,2,2.9s-0.7,2.2-2,2.9l-39,22.5C66.9,57.4,65.5,57.7,64,57.7z M64,6.9c-1.1,0-2.2,0.2-3.1,0.7
							L22,30.1c-0.6,0.4-1,0.8-1,1.2c0,0.4,0.4,0.8,1,1.2L61,55c1.7,1,4.4,1,6.1,0l39-22.5c0.6-0.4,1-0.8,1-1.2c0-0.4-0.4-0.8-1-1.2
							l-39-22.5C66.2,7.2,65.1,6.9,64,6.9z"/>
						<g>
							<path class="st6" d="M108,56c-0.3,0-0.5-0.1-0.7-0.3S107,55.3,107,55c0-0.1,0-0.3,0.1-0.4c0-0.1,0.1-0.2,0.2-0.3
								c0.4-0.4,1-0.4,1.4,0c0.1,0.1,0.2,0.2,0.2,0.3s0.1,0.2,0.1,0.4c0,0.3-0.1,0.5-0.3,0.7l-0.1,0.1c-0.1,0-0.1,0.1-0.2,0.1
								s-0.1,0-0.2,0.1C108.1,56,108.1,56,108,56z"/>
							<path class="st6" d="M107,67c0-0.5,0.4-1,1-1l0,0c0.6,0,1,0.5,1,1l0,0c0,0.6-0.4,1-1,1l0,0C107.4,68,107,67.6,107,67z
								 M107,61c0-0.5,0.4-1,1-1l0,0c0.6,0,1,0.5,1,1l0,0c0,0.6-0.4,1-1,1l0,0C107.4,62,107,61.5,107,61z"/>
							<path class="st6" d="M108,74c-0.3,0-0.5-0.1-0.7-0.3l-0.1-0.1c0-0.1-0.1-0.1-0.1-0.2s0-0.1-0.1-0.2c0-0.1,0-0.1,0-0.2
								c0-0.3,0.1-0.5,0.3-0.7c0.2-0.2,0.6-0.3,0.9-0.3c0.1,0,0.1,0,0.2,0.1c0.1,0,0.1,0.1,0.2,0.1l0.1,0.1c0.2,0.2,0.3,0.4,0.3,0.7
								c0,0.3-0.1,0.5-0.3,0.7C108.5,73.9,108.3,74,108,74z"/>
						</g>
						<g>
							<path class="st5" d="M20,56c-0.3,0-0.5-0.1-0.7-0.3c-0.1-0.1-0.2-0.2-0.2-0.3C19,55.2,19,55.1,19,55s0-0.1,0-0.2
								c0-0.1,0-0.1,0.1-0.2c0-0.1,0.1-0.1,0.1-0.2c0-0.1,0.1-0.1,0.1-0.2c0.4-0.4,1-0.4,1.4,0c0,0,0.1,0.1,0.1,0.2
								c0,0.1,0.1,0.1,0.1,0.2c0,0.1,0,0.1,0,0.2c0,0.1,0,0.1,0,0.2c0,0.3-0.1,0.5-0.3,0.7C20.5,55.9,20.3,56,20,56z"/>
							<path class="st5" d="M19,67c0-0.5,0.4-1,1-1l0,0c0.6,0,1,0.5,1,1l0,0c0,0.6-0.4,1-1,1l0,0C19.4,68,19,67.6,19,67z M19,61
								c0-0.5,0.4-1,1-1l0,0c0.6,0,1,0.5,1,1l0,0c0,0.6-0.4,1-1,1l0,0C19.4,62,19,61.5,19,61z"/>
							<path class="st5" d="M20,74c-0.3,0-0.5-0.1-0.7-0.3l-0.1-0.1c0-0.1-0.1-0.1-0.1-0.2s0-0.1-0.1-0.2c0-0.1,0-0.1,0-0.2
								c0-0.3,0.1-0.5,0.3-0.7c0.1-0.1,0.2-0.2,0.3-0.2c0.2-0.1,0.5-0.1,0.8,0c0.1,0.1,0.2,0.1,0.3,0.2c0.2,0.2,0.3,0.4,0.3,0.7
								c0,0.1,0,0.1,0,0.2s0,0.1,0,0.2s-0.1,0.1-0.1,0.2s-0.1,0.1-0.1,0.1C20.5,73.9,20.3,74,20,74z"/>
						</g>
					</g>
				</g>
			</g>
		</g>
	</g>
	<g>
		<rect class="st0" width="128" height="128"/>
	</g>
</g>
</svg>
