<?xml version="1.0" encoding="utf-8"?>
<!-- Generator: Adobe Illustrator 24.1.0, SVG Export Plug-In . SVG Version: 6.00 Build 0)  -->
<svg version="1.1" id="Layer_1" xmlns="http://www.w3.org/2000/svg" xmlns:xlink="http://www.w3.org/1999/xlink" x="0px" y="0px"
	 viewBox="0 0 128 128" style="enable-background:new 0 0 128 128;" xml:space="preserve">
<style type="text/css">
	.st0{fill:#185849;}
	.st1{fill:#0E352C;}
	.st2{fill:#27ae60;}
	.st3{fill:#C4D7D3;}
	.st4{fill:#FFFFFF;}
	.st5{fill:#4D9987;}
	.st6{fill:#E9EBDF;}
	.st7{fill:none;}
</style>
<g id="Layer_1_1_">
</g>
<g>
	<g id="Layer_2_1_">
		<g id="Tech_Concepts_1_">
			<g>
				<g>
					<g>
						<path class="st0" d="M22,92.6c-0.1,0-0.3,0-0.4-0.1s-0.2-0.1-0.3-0.2c-0.2-0.2-0.3-0.4-0.3-0.7c0-0.1,0-0.3,0.1-0.4
							s0.1-0.2,0.2-0.3c0.2-0.2,0.6-0.3,0.9-0.3c0.1,0,0.1,0,0.2,0s0.2,0.1,0.3,0.2c0.1,0.1,0.2,0.2,0.2,0.3c0,0.1,0.1,0.3,0.1,0.4
							c0,0.3-0.1,0.5-0.3,0.7c-0.1,0.1-0.2,0.2-0.3,0.2C22.3,92.5,22.1,92.6,22,92.6z"/>
						<path class="st0" d="M21,85.1c0-0.6,0.4-1,1-1l0,0c0.5,0,1,0.4,1,1l0,0c0,0.5-0.5,1-1,1l0,0C21.4,86.1,21,85.6,21,85.1z
							 M21,78.6c0-0.5,0.4-1,1-1l0,0c0.5,0,1,0.5,1,1l0,0c0,0.6-0.5,1-1,1l0,0C21.4,79.6,21,79.1,21,78.6z"/>
						<path class="st0" d="M22,73.1c-0.1,0-0.3,0-0.4-0.1c-0.1,0-0.2-0.1-0.3-0.2c-0.1-0.1-0.2-0.2-0.2-0.3c0-0.1-0.1-0.2-0.1-0.4
							s0-0.3,0.1-0.4s0.1-0.2,0.2-0.3c0.4-0.4,1-0.4,1.4,0c0.1,0.1,0.2,0.2,0.2,0.3c0,0.1,0.1,0.2,0.1,0.4s0,0.3-0.1,0.4
							c0,0.1-0.1,0.2-0.2,0.3c-0.1,0.1-0.2,0.2-0.3,0.2C22.3,73,22.1,73.1,22,73.1z"/>
					</g>
					<g>
						<path class="st0" d="M106,92.6c-0.3,0-0.5-0.1-0.7-0.3c-0.2-0.2-0.3-0.4-0.3-0.7c0-0.1,0-0.3,0.1-0.4c0-0.1,0.1-0.2,0.2-0.3
							c0.2-0.2,0.6-0.3,0.9-0.3c0.1,0,0.1,0,0.2,0s0.2,0.1,0.3,0.2c0.1,0.1,0.2,0.2,0.2,0.3c0,0.1,0.1,0.3,0.1,0.4s0,0.3-0.1,0.4
							s-0.1,0.2-0.2,0.3C106.5,92.5,106.3,92.6,106,92.6z"/>
						<path class="st0" d="M105,85.1c0-0.6,0.5-1,1-1l0,0c0.5,0,1,0.4,1,1l0,0c0,0.5-0.5,1-1,1l0,0C105.5,86.1,105,85.6,105,85.1z
							 M105,78.6c0-0.5,0.5-1,1-1l0,0c0.5,0,1,0.5,1,1l0,0c0,0.6-0.5,1-1,1l0,0C105.5,79.6,105,79.1,105,78.6z"/>
						<path class="st0" d="M106,73.1c-0.1,0-0.3,0-0.4-0.1c-0.1,0-0.2-0.1-0.3-0.2c-0.1-0.1-0.2-0.2-0.2-0.3c0-0.1-0.1-0.2-0.1-0.4
							s0-0.3,0.1-0.4c0-0.1,0.1-0.2,0.2-0.3c0.4-0.4,1-0.4,1.4,0c0.1,0.1,0.2,0.2,0.2,0.3c0,0.1,0.1,0.2,0.1,0.4s0,0.3-0.1,0.4
							c0,0.1-0.1,0.2-0.2,0.3c-0.1,0.1-0.2,0.2-0.3,0.2C106.3,73,106.1,73.1,106,73.1z"/>
					</g>
					<g>
						<path class="st1" d="M22,65.9c-0.3,0-0.5-0.1-0.7-0.3c-0.1-0.1-0.2-0.2-0.2-0.3c0-0.1-0.1-0.2-0.1-0.4c0-0.1,0-0.3,0.1-0.4
							s0.1-0.2,0.2-0.3c0.4-0.4,1-0.4,1.4,0c0.1,0.1,0.2,0.2,0.2,0.3c0,0.1,0.1,0.2,0.1,0.4c0,0.1,0,0.3-0.1,0.4s-0.1,0.2-0.2,0.3
							c-0.1,0.1-0.2,0.2-0.3,0.2S22.1,65.9,22,65.9z"/>
						<path class="st1" d="M21,58.1c0-0.5,0.4-1,1-1l0,0c0.5,0,1,0.5,1,1l0,0c0,0.5-0.5,1-1,1l0,0C21.4,59.1,21,58.6,21,58.1z
							 M21,51.3c0-0.6,0.4-1,1-1l0,0c0.5,0,1,0.4,1,1l0,0c0,0.5-0.5,1-1,1l0,0C21.4,52.3,21,51.8,21,51.3z"/>
						<path class="st1" d="M22,45.5c-0.1,0-0.3,0-0.4-0.1c-0.1,0-0.2-0.1-0.3-0.2c-0.1-0.1-0.2-0.2-0.2-0.3S21,44.7,21,44.5
							c0-0.1,0-0.3,0.1-0.4c0.1-0.1,0.1-0.2,0.2-0.3s0.2-0.2,0.3-0.2c0.2-0.1,0.5-0.1,0.8,0c0.1,0.1,0.2,0.1,0.3,0.2
							c0.1,0.1,0.2,0.2,0.2,0.3s0.1,0.2,0.1,0.4c0,0.1,0,0.3-0.1,0.4c0,0.1-0.1,0.2-0.2,0.3C22.5,45.4,22.3,45.5,22,45.5z"/>
					</g>
					<g>
						<g>
							<polygon class="st2" points="64,115.8 64,123 106,98.7 106,91.6 							"/>
							<path class="st2" d="M64,124c-0.2,0-0.3,0-0.5-0.1c-0.3-0.2-0.5-0.5-0.5-0.9v-7.2c0-0.4,0.2-0.7,0.5-0.9l42-24.3
								c0.3-0.2,0.7-0.2,1,0s0.5,0.5,0.5,0.9v7.2c0,0.4-0.2,0.7-0.5,0.9l-42,24.2C64.3,124,64.2,124,64,124z M65,116.4v4.9l40-23.1
								v-4.9L65,116.4z"/>
						</g>
						<g>
							<polygon class="st2" points="34.7,91.6 40.9,95.2 64,81.8 64,74.6 							"/>
							<path class="st2" d="M40.9,96.2c-0.2,0-0.3,0-0.5-0.1l-6.2-3.6c-0.3-0.2-0.5-0.5-0.5-0.9s0.2-0.7,0.5-0.9l29.3-16.9
								c0.3-0.2,0.7-0.2,1,0s0.5,0.5,0.5,0.9v7.2c0,0.4-0.2,0.7-0.5,0.9L41.4,96C41.2,96.1,41.1,96.2,40.9,96.2z M36.7,91.6l4.2,2.4
								L63,81.2v-4.9L36.7,91.6z"/>
						</g>
						<polygon class="st3" points="93.3,91.6 87.1,95.2 64,81.8 64,74.6 						"/>
						<g>
							<polygon class="st4" points="64,115.8 64,123 57.7,119.3 57.7,112.2 							"/>
							<path class="st2" d="M64,124c-0.2,0-0.3,0-0.5-0.1l-6.3-3.7c-0.3-0.2-0.5-0.5-0.5-0.9v-7.2c0-0.4,0.2-0.7,0.5-0.9
								c0.3-0.2,0.7-0.2,1,0l6.3,3.7c0.3,0.2,0.5,0.5,0.5,0.9v7.2c0,0.4-0.2,0.7-0.5,0.9C64.3,124,64.2,124,64,124z M58.7,118.8
								l4.3,2.5v-4.9l-4.3-2.5V118.8z"/>
						</g>
						<g>
							<path class="st4" d="M106,91.6L70.3,71l0,0L64,67.3L57.7,71l0,0L22,91.6l6.3,3.7l0,0L64,115.8l35.7-20.6l0,0L106,91.6z
								 M64,108.5L34.7,91.6l29.3-17l29.3,16.9L64,108.5z"/>
							<path class="st2" d="M64,116.8c-0.2,0-0.3,0-0.5-0.1l-42-24.3c-0.3-0.2-0.5-0.5-0.5-0.9s0.2-0.7,0.5-0.9l42-24.2
								c0.3-0.2,0.7-0.2,1,0l42,24.2c0.3,0.2,0.5,0.5,0.5,0.9s-0.2,0.7-0.5,0.9l-42,24.3C64.3,116.8,64.2,116.8,64,116.8z M24,91.6
								l40,23.1l40-23.1L64,68.5L24,91.6z M64,109.5c-0.2,0-0.3,0-0.5-0.1l-29.3-17c-0.3-0.2-0.5-0.5-0.5-0.9s0.2-0.7,0.5-0.9
								l29.3-16.9c0.3-0.2,0.7-0.2,1,0l29.3,16.9c0.3,0.2,0.5,0.5,0.5,0.9s-0.2,0.7-0.5,0.9l-29.3,16.9
								C64.3,109.5,64.2,109.5,64,109.5z M36.7,91.6L64,107.3l27.3-15.8L64,75.8L36.7,91.6z"/>
						</g>
						<polygon class="st3" points="64,115.8 64,123 22,98.7 22,91.6 						"/>
						<path class="st2" d="M87.1,96.2c-0.2,0-0.3,0-0.5-0.1L63.5,82.7c-0.3-0.2-0.5-0.5-0.5-0.9v-7.2c0-0.4,0.2-0.7,0.5-0.9
							c0.3-0.2,0.7-0.2,1,0l29.3,16.9c0.3,0.2,0.5,0.5,0.5,0.9s-0.2,0.7-0.5,0.9L87.6,96C87.5,96.1,87.3,96.2,87.1,96.2z M65,81.2
							L87.1,94l4.2-2.4L65,76.4V81.2z"/>
						<path class="st2" d="M64,124c-0.2,0-0.3,0-0.5-0.1l-42-24.2c-0.3-0.2-0.5-0.5-0.5-0.9v-7.2c0-0.4,0.2-0.7,0.5-0.9
							c0.3-0.2,0.7-0.2,1,0l42,24.3c0.3,0.2,0.5,0.5,0.5,0.9v7.2c0,0.4-0.2,0.7-0.5,0.9C64.3,124,64.2,124,64,124z M23,98.2l40,23.1
							v-4.9L23,93.3V98.2z"/>
						<path class="st0" d="M64,124c-0.2,0-0.3,0-0.5-0.1l-42-24.2c-0.3-0.2-0.5-0.5-0.5-0.9v-7.2c0-0.4,0.2-0.7,0.5-0.9l42-24.2
							c0.3-0.2,0.7-0.2,1,0l42,24.2c0.3,0.2,0.5,0.5,0.5,0.9v7.2c0,0.4-0.2,0.7-0.5,0.9l-42,24.2C64.3,124,64.2,124,64,124z
							 M23,98.2l41,23.7l41-23.7v-6L64,68.5L23,92.1V98.2z M64,109.5c-0.2,0-0.3,0-0.5-0.1L40.4,96c-0.3-0.2-0.5-0.5-0.5-0.9
							s0.2-0.7,0.5-0.9l23.1-13.3c0.3-0.2,0.7-0.2,1,0l23.1,13.3c0.3,0.2,0.5,0.5,0.5,0.9s-0.2,0.7-0.5,0.9l-23.1,13.3
							C64.3,109.5,64.2,109.5,64,109.5z M42.9,95.2L64,107.3l21.1-12.2L64,83L42.9,95.2z"/>
						<g>
							<g>
								<polygon class="st5" points="64,89.1 64,96.3 106,72.1 106,64.9 								"/>
								<path class="st5" d="M64,97.3c-0.2,0-0.3,0-0.5-0.1C63.2,97,63,96.7,63,96.3v-7.2c0-0.4,0.2-0.7,0.5-0.9l42-24.2
									c0.3-0.2,0.7-0.2,1,0c0.3,0.2,0.5,0.5,0.5,0.9v7.2c0,0.4-0.2,0.7-0.5,0.9l-42,24.2C64.3,97.3,64.2,97.3,64,97.3z M65,89.7
									v4.9l40-23.1v-4.9L65,89.7z"/>
							</g>
							<g>
								<polygon class="st5" points="34.7,64.9 40.9,68.5 64,55.1 64,47.9 								"/>
								<path class="st5" d="M40.9,69.5c-0.2,0-0.3,0-0.5-0.1l-6.2-3.6c-0.3-0.2-0.5-0.5-0.5-0.9s0.2-0.7,0.5-0.9l29.3-16.9
									c0.3-0.2,0.7-0.2,1,0S65,47.6,65,48v7.2c0,0.4-0.2,0.7-0.5,0.9L41.4,69.3C41.2,69.4,41.1,69.5,40.9,69.5z M36.7,64.9
									l4.2,2.4L63,54.5v-4.9L36.7,64.9z"/>
							</g>
							<g>
								<polygon class="st6" points="93.3,64.9 87.1,68.5 64,55.1 64,47.9 								"/>
								<path class="st5" d="M87.1,69.5c-0.2,0-0.3,0-0.5-0.1L63.5,56c-0.3-0.2-0.5-0.5-0.5-0.9v-7.2c0-0.4,0.2-0.7,0.5-0.9
									s0.7-0.2,1,0l29.3,17c0.3,0.2,0.5,0.5,0.5,0.9s-0.2,0.7-0.5,0.9l-6.2,3.6C87.5,69.4,87.3,69.5,87.1,69.5z M65,54.5
									l22.1,12.8l4.2-2.4L65,49.7V54.5z"/>
							</g>
							<g>
								<path class="st4" d="M106,64.9L70.3,44.3l0,0L64,40.6l-6.3,3.7l0,0L22,64.9l6.3,3.7l0,0L64,89.1l35.7-20.6l0,0L106,64.9z
									 M64,81.8L34.7,64.9l29.3-17l29.3,16.9L64,81.8z"/>
								<path class="st5" d="M64,90.1c-0.2,0-0.3,0-0.5-0.1l-42-24.2c-0.3-0.2-0.5-0.5-0.5-0.9s0.2-0.7,0.5-0.9l42-24.2
									c0.3-0.2,0.7-0.2,1,0l42,24.2c0.3,0.2,0.5,0.5,0.5,0.9s-0.2,0.7-0.5,0.9L64.5,90C64.3,90.1,64.2,90.1,64,90.1z M24,64.9
									L64,88l40-23.1L64,41.8L24,64.9z M64,82.8c-0.2,0-0.3,0-0.5-0.1l-29.3-17c-0.3-0.2-0.5-0.5-0.5-0.9s0.2-0.7,0.5-0.9L63.5,47
									c0.3-0.2,0.7-0.2,1,0l29.3,17c0.3,0.2,0.5,0.5,0.5,0.9s-0.2,0.7-0.5,0.9L64.5,82.7C64.3,82.8,64.2,82.8,64,82.8z M36.7,64.9
									L64,80.7l27.3-15.8L64,49.1L36.7,64.9z"/>
							</g>
							<g>
								<polygon class="st6" points="64,89.1 64,96.3 22,72.1 22,64.9 								"/>
								<path class="st5" d="M64,97.3c-0.2,0-0.3,0-0.5-0.1L21.5,73c-0.3-0.2-0.5-0.5-0.5-0.9v-7.2c0-0.4,0.2-0.7,0.5-0.9
									c0.3-0.2,0.7-0.2,1,0l42,24.2c0.3,0.2,0.5,0.5,0.5,0.9v7.2c0,0.4-0.2,0.7-0.5,0.9C64.3,97.3,64.2,97.3,64,97.3z M23,71.5
									l40,23.1v-4.9L23,66.6V71.5z"/>
							</g>
							<path class="st1" d="M64,97.3c-0.2,0-0.3,0-0.5-0.1L21.5,73c-0.3-0.2-0.5-0.5-0.5-0.9v-7.2c0-0.4,0.2-0.7,0.5-0.9l42-24.2
								c0.3-0.2,0.7-0.2,1,0l42,24.2c0.3,0.2,0.5,0.5,0.5,0.9v7.2c0,0.4-0.2,0.7-0.5,0.9l-42,24.2C64.3,97.3,64.2,97.3,64,97.3z
								 M23,71.5l41,23.7l41-23.7v-6L64,41.8L23,65.5V71.5z M64,82.8c-0.2,0-0.3,0-0.5-0.1L40.4,69.3c-0.3-0.2-0.5-0.5-0.5-0.9
								s0.2-0.7,0.5-0.9l23.1-13.3c0.3-0.2,0.7-0.2,1,0l23.1,13.3c0.3,0.2,0.5,0.5,0.5,0.9s-0.2,0.7-0.5,0.9L64.5,82.7
								C64.3,82.8,64.2,82.8,64,82.8z M42.9,68.5L64,80.7l21.1-12.2L64,56.3L42.9,68.5z"/>
						</g>
					</g>
					<g>
						<path class="st1" d="M106,65.9c-0.1,0-0.3,0-0.4-0.1s-0.2-0.1-0.3-0.2c-0.1-0.1-0.2-0.2-0.2-0.3S105,65,105,64.9
							s0-0.3,0.1-0.4c0-0.1,0.1-0.2,0.2-0.3c0.4-0.4,1-0.4,1.4,0c0.1,0.1,0.2,0.2,0.2,0.3c0,0.1,0.1,0.2,0.1,0.4
							c0,0.1,0,0.3-0.1,0.4s-0.1,0.2-0.2,0.3C106.5,65.8,106.3,65.9,106,65.9z"/>
						<path class="st1" d="M105,58.1c0-0.5,0.5-1,1-1l0,0c0.5,0,1,0.5,1,1l0,0c0,0.5-0.5,1-1,1l0,0C105.5,59.1,105,58.6,105,58.1z
							 M105,51.3c0-0.6,0.5-1,1-1l0,0c0.5,0,1,0.4,1,1l0,0c0,0.5-0.5,1-1,1l0,0C105.5,52.3,105,51.8,105,51.3z"/>
						<path class="st1" d="M106,45.5c-0.1,0-0.3,0-0.4-0.1c-0.1,0-0.2-0.1-0.3-0.2c-0.1-0.1-0.2-0.2-0.2-0.3s-0.1-0.2-0.1-0.4
							c0-0.1,0-0.3,0.1-0.4s0.1-0.2,0.2-0.3s0.2-0.2,0.3-0.2c0.2-0.1,0.5-0.1,0.8,0c0.1,0.1,0.2,0.1,0.3,0.2
							c0.1,0.1,0.2,0.2,0.2,0.3s0.1,0.2,0.1,0.4c0,0.1,0,0.3-0.1,0.4c0,0.1-0.1,0.2-0.2,0.3C106.5,45.4,106.3,45.5,106,45.5z"/>
					</g>
					<g>
						<g>
							<g>
								<path class="st4" d="M104.6,42L67.4,20.5c-1.9-1.1-4.9-1.1-6.8,0L23.4,42c-1.9,1.1-1.9,2.8,0,3.9l37.2,21.5
									c1.9,1.1,4.9,1.1,6.8,0l37.2-21.5C106.5,44.8,106.5,43,104.6,42z"/>
								<path class="st2" d="M64,69.2c-1.4,0-2.8-0.3-3.9-0.9L22.9,46.7C21.7,46,21,45,21,43.9s0.7-2.1,1.9-2.8l37.2-21.5
									c2.2-1.3,5.6-1.3,7.8,0l37.2,21.5c1.2,0.7,1.9,1.7,1.9,2.8s-0.7,2.1-1.9,2.8L67.9,68.2C66.8,68.8,65.4,69.2,64,69.2z
									 M64,20.7c-1.1,0-2.1,0.2-2.9,0.7L23.9,42.8c-0.6,0.3-0.9,0.7-0.9,1.1c0,0.4,0.3,0.8,0.9,1.1l37.2,21.5
									c1.6,0.9,4.2,0.9,5.8,0L104.1,45c0.6-0.3,0.9-0.7,0.9-1.1c0-0.4-0.3-0.8-0.9-1.1l0,0L66.9,21.3C66.1,20.9,65.1,20.7,64,20.7
									z"/>
							</g>
							<g>
								<g>
									<g>
										<g>
											<path class="st6" d="M82.6,29.3l-15.2-8.8c-1.9-1.1-4.9-1.1-6.8,0l-15.2,8.8H22V44c0,0.7,0.5,1.4,1.4,2l37.2,21.5
												c1.9,1.1,4.9,1.1,6.8,0L104.6,46c0.9-0.5,1.4-1.2,1.4-2V29.3H82.6z"/>
											<path class="st5" d="M64,69.2c-1.4,0-2.8-0.3-3.9-0.9L22.9,46.7C21.7,46,21,45,21,43.9V29.3c0-0.6,0.4-1,1-1h23.1l15-8.6
												c2.2-1.3,5.6-1.3,7.8,0l15,8.6H106c0.6,0,1,0.4,1,1V44c0,1.1-0.7,2.1-1.9,2.8L67.9,68.2C66.8,68.8,65.4,69.2,64,69.2z
												 M23,30.3V44c0,0.4,0.3,0.8,0.9,1.1l37.2,21.5c1.6,0.9,4.2,0.9,5.8,0L104.1,45c0.6-0.3,0.9-0.7,0.9-1.1V30.3H82.6
												c-0.2,0-0.3,0-0.5-0.1l-15.2-8.8c-1.6-0.9-4.2-0.9-5.8,0l-15.2,8.8c-0.2,0.1-0.3,0.1-0.5,0.1C45.4,30.3,23,30.3,23,30.3z
												"/>
										</g>
										<path class="st5" d="M67.4,67.4l37.2-21.5c0.9-0.5,1.4-1.2,1.4-2V29.3H82.6l-15.2-8.8c-0.9-0.5-2.2-0.8-3.4-0.8v48.5
											C65.2,68.2,66.5,67.9,67.4,67.4z"/>
										<path class="st5" d="M47.5,54c-0.2,0-0.3,0-0.5-0.1l-11-6.3c-0.5-0.3-0.6-0.9-0.4-1.4c0.3-0.5,0.9-0.6,1.4-0.4l11,6.3
											c0.5,0.3,0.6,0.9,0.4,1.4C48.2,53.8,47.8,54,47.5,54z"/>
										<g>
											<path class="st4" d="M104.6,27.3L67.4,5.8c-1.9-1.1-4.9-1.1-6.8,0L23.4,27.3c-1.9,1.1-1.9,2.8,0,3.9l37.2,21.5
												c1.9,1.1,4.9,1.1,6.8,0l37.2-21.5C106.5,30.1,106.5,28.4,104.6,27.3z"/>
											<path class="st5" d="M64,54.5c-1.4,0-2.8-0.3-3.9-0.9L22.9,32.1c-1.2-0.7-1.9-1.7-1.9-2.8c0-1.1,0.7-2.1,1.9-2.8
												L60.1,4.9c2.2-1.3,5.6-1.3,7.8,0l37.2,21.5l0,0c1.2,0.7,1.9,1.7,1.9,2.8c0,1.1-0.7,2.1-1.9,2.8L67.9,53.6
												C66.8,54.2,65.4,54.5,64,54.5z M64,6c-1.1,0-2.1,0.2-2.9,0.7L23.9,28.2c-0.6,0.3-0.9,0.7-0.9,1.1s0.3,0.8,0.9,1.1
												l37.2,21.5c1.6,0.9,4.2,0.9,5.8,0l37.2-21.5c0.6-0.3,0.9-0.7,0.9-1.1s-0.3-0.8-0.9-1.1L66.9,6.7C66.1,6.2,65.1,6,64,6z"
												/>
										</g>
									</g>
								</g>
								<g>
									<polygon class="st5" points="95.9,50.9 76.2,62.3 76.2,55.5 95.9,44.1 									"/>
									<path class="st6" d="M76.2,63.3c-0.2,0-0.3,0-0.5-0.1c-0.3-0.2-0.5-0.5-0.5-0.9v-6.8c0-0.4,0.2-0.7,0.5-0.9l19.7-11.3
										c0.3-0.2,0.7-0.2,1,0s0.5,0.5,0.5,0.9V51c0,0.4-0.2,0.7-0.5,0.9L76.7,63.1C76.6,63.2,76.4,63.3,76.2,63.3z M77.2,56.1v4.5
										l17.7-10.2v-4.5L77.2,56.1z M95.9,50.9L95.9,50.9L95.9,50.9z"/>
								</g>
								<path class="st1" d="M64,69.2c-1.5,0-2.8-0.3-3.9-0.9L22.9,46.7C21.7,46,21,45,21,43.9V29.3c0-1.1,0.7-2.1,1.9-2.8L60.1,4.9
									c2.2-1.3,5.6-1.3,7.8,0l37.2,21.5l0,0c1.2,0.7,1.9,1.7,1.9,2.8v14.7c0,1.1-0.7,2.1-1.9,2.8L67.9,68.2
									C66.8,68.8,65.5,69.2,64,69.2z M64,6c-1.1,0-2.1,0.2-2.9,0.7L23.9,28.2c-0.6,0.3-0.9,0.7-0.9,1.1V44c0,0.4,0.3,0.8,0.9,1.1
									l37.2,21.5c1.5,0.9,4.3,0.9,5.8,0L104.1,45c0.6-0.3,0.9-0.7,0.9-1.1V29.3c0-0.4-0.3-0.8-0.9-1.1L66.9,6.7
									C66.1,6.2,65.1,6,64,6z"/>
								<g>
									<ellipse class="st5" cx="96.4" cy="29.3" rx="1.9" ry="1.1"/>
									<ellipse class="st5" cx="64" cy="48" rx="1.9" ry="1.1"/>
									<ellipse class="st5" cx="64" cy="10.5" rx="1.9" ry="1.1"/>
									<ellipse class="st5" cx="31.6" cy="29.3" rx="1.9" ry="1.1"/>
								</g>
							</g>
						</g>
					</g>
				</g>
				<rect x="4" y="4" class="st7" width="120" height="120"/>
				<rect x="4" y="4" class="st7" width="120" height="120"/>
			</g>
		</g>
	</g>
	<g>
		<rect class="st7" width="128" height="128"/>
	</g>
</g>
</svg>
