<?xml version="1.0" encoding="utf-8"?>
<!-- Generator: Adobe Illustrator 24.1.0, SVG Export Plug-In . SVG Version: 6.00 Build 0)  -->
<svg version="1.1" id="Layer_1" xmlns="http://www.w3.org/2000/svg" xmlns:xlink="http://www.w3.org/1999/xlink" x="0px" y="0px"
	 viewBox="0 0 128 128" style="enable-background:new 0 0 128 128;" xml:space="preserve">
<style type="text/css">
	.st0{fill:#FFFFFF;}
	.st1{fill:#27ae60;}
	.st2{fill:#C4D7D3;}
	.st3{fill:#4D9987;}
	.st4{fill:#185849;}
	.st5{fill:#E9EBDF;}
	.st6{fill:#0E352C;}
	.st7{fill:none;}
</style>
<g id="Layer_1_1_">
</g>
<g>
	<g id="Layer_2_1_">
		<g id="Industries_1_">
			<g>
				<g>
					<g>
						<polygon class="st0" points="84.2,31.7 46,53.8 12.2,34.3 50.4,12.3 						"/>
						<path class="st1" d="M46,54.8c-0.2,0-0.3,0-0.5-0.1L11.7,35.2c-0.3-0.2-0.5-0.5-0.5-0.9s0.2-0.7,0.5-0.9l38.2-22.1
							c0.3-0.2,0.7-0.2,1,0l33.8,19.5c0.3,0.2,0.5,0.5,0.5,0.9c0,0.4-0.2,0.7-0.5,0.9L46.5,54.7C46.3,54.8,46.1,54.8,46,54.8z
							 M14.2,34.3L46,52.7l36.2-20.9L50.4,13.4L14.2,34.3z"/>
					</g>
					<g>
						<polygon class="st0" points="84.2,31.7 46,53.8 12.2,34.3 50.4,12.3 						"/>
						<path class="st1" d="M46,54.8c-0.2,0-0.3,0-0.5-0.1L11.7,35.2c-0.3-0.2-0.5-0.5-0.5-0.9s0.2-0.7,0.5-0.9l38.2-22.1
							c0.3-0.2,0.7-0.2,1,0l33.8,19.5c0.3,0.2,0.5,0.5,0.5,0.9c0,0.4-0.2,0.7-0.5,0.9L46.5,54.7C46.3,54.8,46.1,54.8,46,54.8z
							 M14.2,34.3L46,52.7l36.2-20.9L50.4,13.4L14.2,34.3z"/>
					</g>
					<g>
						<polygon class="st1" points="84.2,31.7 84.2,82.2 46,104.2 46,53.8 						"/>
						<path class="st1" d="M46,105.2c-0.2,0-0.3,0-0.5-0.1c-0.3-0.2-0.5-0.5-0.5-0.9V53.8c0-0.4,0.2-0.7,0.5-0.9l38.2-22.1
							c0.3-0.2,0.7-0.2,1,0s0.5,0.5,0.5,0.9v50.4c0,0.4-0.2,0.7-0.5,0.9l-38.2,22.1C46.3,105.2,46.1,105.2,46,105.2z M47,54.4v48.1
							l36.2-20.9V33.5L47,54.4z"/>
					</g>
					<g>
						<polygon class="st0" points="90.1,33.2 48.1,57.4 12.2,36.7 54.2,12.5 						"/>
						<path class="st1" d="M48.1,58.4c-0.2,0-0.3,0-0.5-0.1L11.7,37.6c-0.3-0.2-0.5-0.5-0.5-0.9s0.2-0.7,0.5-0.9l42-24.2
							c0.3-0.2,0.7-0.2,1,0l35.9,20.7c0.3,0.2,0.5,0.5,0.5,0.9s-0.2,0.7-0.5,0.9l-42,24.2C48.4,58.4,48.3,58.4,48.1,58.4z
							 M14.2,36.7l33.9,19.6l40-23.1L54.2,13.6L14.2,36.7z"/>
					</g>
					<g>
						<polygon class="st2" points="19.9,38.8 19.9,89.2 46,104.2 46,53.8 						"/>
						<path class="st1" d="M46,105.2c-0.2,0-0.3,0-0.5-0.1L19.4,90c-0.3-0.2-0.5-0.5-0.5-0.9V38.8c0-0.4,0.2-0.7,0.5-0.9
							s0.7-0.2,1,0l26.1,15c0.3,0.2,0.5,0.5,0.5,0.9v50.4c0,0.4-0.2,0.7-0.5,0.9C46.3,105.2,46.1,105.2,46,105.2z M20.9,88.6
							L45,102.5V54.4L20.9,40.5V88.6z"/>
					</g>
					<g>
						<polygon class="st0" points="96,89 57.8,111.1 46,104.2 84.2,82.2 						"/>
						<path class="st3" d="M57.8,112.1c-0.2,0-0.3,0-0.5-0.1l-11.8-6.8c-0.3-0.2-0.5-0.5-0.5-0.9s0.2-0.7,0.5-0.9l38.2-22.1
							c0.3-0.2,0.7-0.2,1,0l11.8,6.8c0.3,0.2,0.5,0.5,0.5,0.9s-0.2,0.7-0.5,0.9L58.3,112C58.1,112,58,112.1,57.8,112.1z M48,104.2
							l9.8,5.7L94,89l-9.8-5.7L48,104.2z"/>
					</g>
					<g>
						<polygon class="st1" points="57.8,81.6 46,88.4 46,117.9 57.8,111.1 96,89 96,59.5 						"/>
						<path class="st1" d="M46,118.9c-0.2,0-0.3,0-0.5-0.1c-0.3-0.2-0.5-0.5-0.5-0.9V88.4c0-0.4,0.2-0.7,0.5-0.9l11.8-6.8l0,0
							l38.2-22.1c0.3-0.2,0.7-0.2,1,0s0.5,0.5,0.5,0.9V89c0,0.4-0.2,0.7-0.5,0.9l-50,28.9C46.3,118.8,46.1,118.9,46,118.9z M47,89
							v27.2l48-27.7V61.2L47,89z"/>
					</g>
					<polygon class="st2" points="57.8,103 46,109.9 46,117.9 57.8,111.1 96,87.8 96,81 					"/>
					<path class="st1" d="M46,118.9c-0.2,0-0.3,0-0.5-0.1c-0.3-0.2-0.5-0.5-0.5-0.9V88.4c0-0.4,0.2-0.7,0.5-0.9l11.8-6.8l0,0
						l38.2-22.1c0.3-0.2,0.7-0.2,1,0s0.5,0.5,0.5,0.9V89c0,0.4-0.2,0.7-0.5,0.9l-50,28.9C46.3,118.8,46.1,118.9,46,118.9z M47,89
						v27.2l48-27.7V61.2L47,89z"/>
					<g>
						<polygon class="st0" points="84.2,52.7 46,74.7 34.1,67.9 22.3,74.7 46,88.4 96,59.5 						"/>
						<path class="st1" d="M46,89.4c-0.2,0-0.3,0-0.5-0.1L21.8,75.6c-0.3-0.2-0.5-0.5-0.5-0.9s0.2-0.7,0.5-0.9L33.6,67
							c0.3-0.2,0.7-0.2,1,0L46,73.6l37.7-21.8c0.3-0.2,0.7-0.2,1,0l11.8,6.8c0.3,0.2,0.5,0.5,0.5,0.9s-0.2,0.7-0.5,0.9l-50,28.9
							C46.3,89.4,46.1,89.4,46,89.4z M24.3,74.7L46,87.3l48-27.7l-9.8-5.7L46.5,75.6c-0.3,0.2-0.7,0.2-1,0l-11.3-6.5L24.3,74.7z"/>
					</g>
					<polygon class="st1" points="12.2,30.7 12.2,36.7 48.1,57.4 48.1,51.5 					"/>
					<polygon class="st4" points="90.1,27.2 90.1,33.2 48.1,57.4 48.1,51.5 					"/>
					<polygon class="st2" points="90.1,27.2 48.1,51.5 12.2,30.7 54.2,6.5 					"/>
					<path class="st0" d="M48.1,44.2c-0.2,0-0.3,0-0.5-0.1L26,31.6c-0.3-0.2-0.5-0.5-0.5-0.9s0.2-0.7,0.5-0.9l27.7-16
						c0.3-0.2,0.7-0.2,1,0l21.6,12.5c0.3,0.2,0.5,0.5,0.5,0.9s-0.2,0.7-0.5,0.9l-27.7,16C48.4,44.2,48.3,44.2,48.1,44.2z M28.5,30.7
						L48.1,42l25.7-14.8L54.2,15.9L28.5,30.7z"/>
					<path class="st4" d="M48.1,58.4c-0.2,0-0.3,0-0.5-0.1L11.7,37.6c-0.3-0.2-0.5-0.5-0.5-0.9v-6c0-0.4,0.2-0.7,0.5-0.9l42-24.2
						c0.3-0.2,0.7-0.2,1,0l35.9,20.7c0.3,0.2,0.5,0.5,0.5,0.9v6c0,0.4-0.2,0.7-0.5,0.9l-42,24.2C48.4,58.4,48.3,58.4,48.1,58.4z
						 M13.2,36.1l34.9,20.1l41-23.7v-4.8l-34.9-20l-41,23.7C13.2,31.4,13.2,36.1,13.2,36.1z"/>
					<g>
						<polygon class="st2" points="34.1,81.6 22.3,74.7 22.3,32.1 8.1,23.9 8.1,96 22.3,104.2 34.1,111.1 46,117.9 46,88.4 						
							"/>
						<path class="st1" d="M46,118.9c-0.2,0-0.3,0-0.5-0.1L7.6,96.9c-0.3-0.2-0.5-0.5-0.5-0.9V23.9c0-0.4,0.2-0.7,0.5-0.9
							s0.7-0.2,1,0l14.2,8.2c0.3,0.2,0.5,0.5,0.5,0.9v42l23.2,13.4c0.3,0.2,0.5,0.5,0.5,0.9v29.5c0,0.4-0.2,0.7-0.5,0.9
							C46.3,118.8,46.1,118.9,46,118.9z M9.1,95.4L45,116.2V89L21.8,75.6c-0.3-0.2-0.5-0.5-0.5-0.9v-42l-12.2-7V95.4z"/>
					</g>
					<polygon class="st0" points="8.1,88 8.1,96 34.1,111.1 46,117.9 46,109.9 34.1,103 					"/>
					<path class="st1" d="M46,118.9c-0.2,0-0.3,0-0.5-0.1L7.6,96.9c-0.3-0.2-0.5-0.5-0.5-0.9V23.9c0-0.4,0.2-0.7,0.5-0.9
						s0.7-0.2,1,0l14.2,8.2c0.3,0.2,0.5,0.5,0.5,0.9v42l23.2,13.4c0.3,0.2,0.5,0.5,0.5,0.9v29.5c0,0.4-0.2,0.7-0.5,0.9
						C46.3,118.8,46.1,118.9,46,118.9z M9.1,95.4L45,116.2V89L21.8,75.6c-0.3-0.2-0.5-0.5-0.5-0.9v-42l-12.2-7V95.4z"/>
					<g>
						<polygon class="st1" points="34.1,67.9 22.3,74.7 22.3,32.1 34.1,25.3 						"/>
						<path class="st1" d="M22.3,75.7c-0.2,0-0.3,0-0.5-0.1c-0.3-0.2-0.5-0.5-0.5-0.9V32.1c0-0.4,0.2-0.7,0.5-0.9l11.8-6.8
							c0.3-0.2,0.7-0.2,1,0s0.5,0.5,0.5,0.9v42.6c0,0.4-0.2,0.7-0.5,0.9l-11.8,6.8C22.6,75.7,22.5,75.7,22.3,75.7z M23.3,32.7V73
							l9.8-5.7V27L23.3,32.7z M34.1,67.9L34.1,67.9L34.1,67.9z"/>
					</g>
					<g>
						<polygon class="st0" points="19.9,17.1 8.1,23.9 22.3,32.1 34.1,25.3 						"/>
						<path class="st1" d="M22.3,33.1c-0.2,0-0.3,0-0.5-0.1L7.6,24.8c-0.3-0.2-0.5-0.5-0.5-0.9s0.2-0.7,0.5-0.9l11.8-6.8
							c0.3-0.2,0.7-0.2,1,0l14.2,8.2c0.3,0.2,0.5,0.5,0.5,0.9s-0.2,0.7-0.5,0.9L22.8,33C22.6,33.1,22.5,33.1,22.3,33.1z M10.1,23.9
							L22.3,31l9.8-5.7l-12.2-7.1L10.1,23.9z"/>
					</g>
					<g>
						<g>
							<polygon class="st0" points="5,24.9 20,16.2 37.2,26.2 22.2,34.8 							"/>
							<path class="st1" d="M22.2,35.8c-0.2,0-0.3,0-0.5-0.1L4.5,25.8C4.2,25.6,4,25.3,4,24.9s0.2-0.7,0.5-0.9l15-8.7
								c0.3-0.2,0.7-0.2,1,0l17.2,9.9c0.3,0.2,0.5,0.5,0.5,0.9S38,26.8,37.7,27l-15,8.7C22.5,35.8,22.4,35.8,22.2,35.8z M7,24.9
								l15.2,8.8l13-7.5L20,17.4L7,24.9z"/>
						</g>
						<polygon class="st2" points="5,19.5 20,10.8 37.2,20.8 22.2,29.4 						"/>
						<polygon class="st0" points="15.9,19.9 20.7,17.1 26.3,20.3 21.4,23.1 						"/>
						<polygon class="st4" points="37.2,20.8 37.2,26.2 22.2,34.8 22.2,29.4 						"/>
						<polygon class="st1" points="5,19.5 5,24.9 22.2,34.8 22.2,29.4 						"/>
						<path class="st4" d="M22.2,35.8c-0.2,0-0.3,0-0.5-0.1L4.5,25.8C4.2,25.6,4,25.3,4,24.9v-5.4c0-0.4,0.2-0.7,0.5-0.9l15-8.7
							c0.3-0.2,0.7-0.2,1,0l17.2,9.9c0.3,0.2,0.5,0.5,0.5,0.9v5.4c0,0.4-0.2,0.7-0.5,0.9l-15,8.7C22.5,35.8,22.4,35.8,22.2,35.8z
							 M6,24.3l16.2,9.3l14-8.1v-4.2L20,12L6,20.1V24.3z"/>
					</g>
					<path class="st4" d="M46,118.9c-0.2,0-0.3,0-0.5-0.1L7.6,96.9c-0.3-0.2-0.5-0.5-0.5-0.9V27.2l-2.6-1.5C4.2,25.6,4,25.3,4,24.9
						v-5.4c0-0.4,0.2-0.7,0.5-0.9l15-8.7c0.3-0.2,0.7-0.2,1,0l12.8,7.4L53.7,5.6c0.3-0.2,0.7-0.2,1,0l35.9,20.7
						c0.3,0.2,0.5,0.5,0.5,0.9v6c0,0.4-0.2,0.7-0.5,0.9l-5.4,3.1v14.9l11.3,6.5c0.3,0.2,0.5,0.5,0.5,0.9V89c0,0.4-0.2,0.7-0.5,0.9
						l-50,28.9C46.3,118.8,46.1,118.9,46,118.9z M9.1,95.4L46,116.7l49-28.3V60.1l-11.3-6.5c-0.3-0.2-0.5-0.5-0.5-0.9V36.6
						c0-0.4,0.2-0.7,0.5-0.9l5.4-3.1v-4.8L54.2,7.7L33.8,19.4c-0.3,0.2-0.7,0.2-1,0L20,12L6,20.1v4.2l2.6,1.5
						c0.3,0.2,0.5,0.5,0.5,0.9V95.4z M96,89L96,89L96,89z"/>
					<polygon class="st1" points="17.3,44.9 12.4,42.1 12.4,35.7 17.3,38.5 					"/>
					<polygon class="st1" points="17.3,73.5 12.4,70.7 12.4,50 17.3,52.8 					"/>
					<polygon class="st1" points="17.3,73.5 12.4,70.7 12.4,64.3 17.3,67.1 					"/>
					<polygon class="st1" points="17.3,87.8 12.4,85 12.4,78.6 17.3,81.4 					"/>
					<polygon class="st1" points="28.8,94.5 23.9,91.7 23.9,85.2 28.8,88 					"/>
					<polygon class="st1" points="40.3,101.1 35.4,98.3 35.4,91.9 40.3,94.6 					"/>
					<polygon class="st4" points="51.2,67.5 56,64.7 56,58.2 51.2,61 					"/>
					<polygon class="st4" points="62.6,60.8 67.5,58 67.5,51.6 62.6,54.4 					"/>
					<polygon class="st4" points="74.1,54.2 79,51.4 79,44.9 74.1,47.7 					"/>
					<polygon class="st4" points="74.1,54.2 79,51.4 79,44.9 74.1,47.7 					"/>
					<polygon class="st4" points="25.8,68.9 30.6,66.2 30.6,35.9 25.8,38.6 					"/>
					<g>
						<path class="st3" d="M123,91.8l-10.7-21.4L86.8,85.1l-8.9,7.5l0,0c-0.5,0.4-1.8,1.5-1.8,1.5l1.8,1v16l17.8,10.3l25.5-14.7v-14
							L123,91.8z"/>
						<path class="st3" d="M97.5,107.5c-0.4,0-0.7-0.2-0.9-0.6L86.4,86.7l-9.7,8.2c-0.4,0.4-1.1,0.3-1.4-0.1
							c-0.4-0.4-0.3-1.1,0.1-1.4l10.7-9c0.2-0.2,0.5-0.3,0.8-0.2c0.3,0.1,0.6,0.3,0.7,0.5L98.4,106c0.2,0.5,0,1.1-0.4,1.3
							C97.8,107.5,97.6,107.5,97.5,107.5z"/>
						<g>
							<polygon class="st0" points="77.9,92.6 77.9,111.2 95.7,121.5 95.7,103.1 86.8,85.1 							"/>
							<path class="st3" d="M95.7,122.5c-0.2,0-0.3,0-0.5-0.1l-17.8-10.3c-0.3-0.2-0.5-0.5-0.5-0.9V92.6c0-0.3,0.1-0.6,0.4-0.8
								l8.9-7.5c0.2-0.2,0.5-0.3,0.8-0.2c0.3,0.1,0.6,0.3,0.7,0.5l8.9,18c0.1,0.1,0.1,0.3,0.1,0.4v18.4c0,0.4-0.2,0.7-0.5,0.9
								C96,122.5,95.9,122.5,95.7,122.5z M78.9,110.6l15.8,9.1v-16.5l-8.3-16.6L78.8,93L78.9,110.6L78.9,110.6z"/>
						</g>
						<polygon class="st5" points="95.7,121.5 77.9,111.2 77.9,106.1 95.7,116.4 						"/>
						<g>
							<polyline class="st5" points="101.6,79.4 112.3,70.3 123,91.8 							"/>
							<path class="st3" d="M123,92.8c-0.4,0-0.7-0.2-0.9-0.6L112,71.9l-9.7,8.2c-0.4,0.4-1.1,0.3-1.4-0.1c-0.4-0.4-0.3-1.1,0.1-1.4
								l10.7-9c0.2-0.2,0.5-0.3,0.8-0.2c0.3,0.1,0.6,0.3,0.7,0.5l10.7,21.4c0.2,0.5,0,1.1-0.4,1.3C123.3,92.7,123.2,92.8,123,92.8z"
								/>
						</g>
						<g>
							<polygon class="st5" points="103.4,96.5 121.2,106.8 121.2,88.3 103.4,78 							"/>
							<path class="st3" d="M121.2,107.8c-0.2,0-0.3,0-0.5-0.1l-17.8-10.3c-0.3-0.2-0.5-0.5-0.5-0.9V78c0-0.4,0.2-0.7,0.5-0.9
								s0.7-0.2,1,0l17.8,10.3c0.3,0.2,0.5,0.5,0.5,0.9v18.4c0,0.4-0.2,0.7-0.5,0.9C121.6,107.7,121.4,107.8,121.2,107.8z
								 M104.4,95.9l15.8,9.1V88.9l-15.8-9.1V95.9z"/>
						</g>
						<g>
							<polygon class="st5" points="121.2,106.8 95.7,121.5 95.7,103.1 121.2,88.3 							"/>
							<path class="st3" d="M95.7,122.5c-0.2,0-0.3,0-0.5-0.1c-0.3-0.2-0.5-0.5-0.5-0.9v-18.4c0-0.4,0.2-0.7,0.5-0.9l25.5-14.7
								c0.3-0.2,0.7-0.2,1,0s0.5,0.5,0.5,0.9v18.4c0,0.4-0.2,0.7-0.5,0.9l-25.5,14.7C96,122.5,95.9,122.5,95.7,122.5z M96.7,103.6
								v16.1l23.5-13.6v-16L96.7,103.6z M121.2,106.8L121.2,106.8L121.2,106.8z"/>
						</g>
						<g>
							<polygon class="st3" points="95.7,121.5 121.2,106.8 121.2,101.7 95.7,116.4 							"/>
						</g>
						<g>
							<polygon class="st3" points="97.5,106.5 123,91.8 112.3,70.3 86.8,85.1 							"/>
							<path class="st3" d="M97.5,107.5c-0.1,0-0.2,0-0.3,0c-0.3-0.1-0.5-0.3-0.6-0.5L85.9,85.5c-0.2-0.5-0.1-1,0.4-1.3l25.5-14.7
								c0.2-0.1,0.5-0.2,0.8-0.1s0.5,0.3,0.6,0.5l10.7,21.4c0.2,0.5,0.1,1-0.4,1.3L98,107.4C97.8,107.4,97.7,107.5,97.5,107.5z
								 M88.1,85.5l9.8,19.6l23.8-13.7l-9.8-19.6L88.1,85.5z"/>
						</g>
						<path class="st6" d="M97.5,107.5c-0.1,0-0.2,0-0.3,0c-0.3-0.1-0.5-0.3-0.6-0.5L85.9,85.5c-0.2-0.5-0.1-1,0.4-1.3l25.5-14.7
							c0.2-0.1,0.5-0.2,0.8-0.1s0.5,0.3,0.6,0.5l10.7,21.4c0.2,0.5,0.1,1-0.4,1.3L98,107.4C97.8,107.4,97.7,107.5,97.5,107.5z
							 M88.1,85.5l9.8,19.6l23.8-13.7l-9.8-19.6L88.1,85.5z"/>
						<path class="st6" d="M95.7,122.5c-0.2,0-0.3,0-0.5-0.1l-17.8-10.3c-0.3-0.2-0.5-0.5-0.5-0.9V95.7L75.6,95
							c-0.3-0.2-0.5-0.5-0.5-0.8s0.1-0.6,0.4-0.9l10.7-9l0.1-0.1l25.5-14.7c0.2-0.1,0.5-0.2,0.8-0.1s0.5,0.3,0.6,0.5l10.7,21.4
							c0.2,0.5,0.1,1-0.4,1.3l-1.3,0.7v13.4c0,0.4-0.2,0.7-0.5,0.9l-25.5,14.7C96,122.5,95.9,122.5,95.7,122.5z M78.9,110.6
							l16.8,9.7l24.5-14.2V92.8c0-0.4,0.2-0.7,0.5-0.9l1-0.6l-9.8-19.6L87.3,85.9L77.8,94l0.6,0.3c0.3,0.2,0.5,0.5,0.5,0.9V110.6z"
							/>
					</g>
					<polygon class="st4" points="56.2,96.9 85.8,79.8 85.8,73.4 56.2,90.5 					"/>
				</g>
				<rect x="4" y="4" class="st7" width="120" height="120"/>
				<rect x="4" y="4" class="st7" width="120" height="120"/>
			</g>
		</g>
	</g>
	<g>
		<rect class="st7" width="128" height="128"/>
	</g>
</g>
</svg>
