<?xml version="1.0" encoding="utf-8"?>
<!-- Generator: Adobe Illustrator 24.1.0, SVG Export Plug-In . SVG Version: 6.00 Build 0)  -->
<svg version="1.1" id="Layer_1" xmlns="http://www.w3.org/2000/svg" xmlns:xlink="http://www.w3.org/1999/xlink" x="0px" y="0px"
	 viewBox="0 0 128 128" style="enable-background:new 0 0 128 128;" xml:space="preserve">
<style type="text/css">
	.st0{fill:#185849;}
	.st1{fill:#C4D7D3;}
	.st2{fill:#FFFFFF;}
	.st3{fill:#27ae60;}
	.st4{fill:#0E352C;}
	.st5{fill:#4D9987;}
	.st6{fill:#E9EBDF;}
	.st7{fill:none;}
</style>
<g id="Layer_1_1_">
</g>
<g>
	<g id="Layer_2_1_">
		<g id="New_Icon_Set_1_">
			<g>
				<g>
					<g>
						<path class="st0" d="M35.2,14.1c-0.3,0-0.5-0.1-0.7-0.3c-0.1-0.1-0.2-0.2-0.2-0.3c-0.1-0.1-0.1-0.2-0.1-0.4
							c0-0.1,0-0.3,0.1-0.4c0-0.1,0.1-0.2,0.2-0.3c0.1,0,0.1-0.1,0.1-0.1c0.1,0,0.1-0.1,0.2-0.1c0.1,0,0.1,0,0.2-0.1
							c0.3-0.1,0.7,0,0.9,0.3c0.1,0.1,0.2,0.2,0.2,0.3c0.1,0.1,0.1,0.2,0.1,0.4c0,0.1,0,0.3-0.1,0.4c0,0.1-0.1,0.2-0.2,0.3
							c-0.1,0.1-0.2,0.2-0.3,0.2C35.4,14.1,35.3,14.1,35.2,14.1z"/>
						<path class="st0" d="M69.8,34.3c-0.5-0.3-0.6-0.9-0.4-1.4l0,0c0.3-0.5,0.9-0.6,1.4-0.4l0,0c0.5,0.3,0.7,0.9,0.4,1.4l0,0
							c-0.2,0.3-0.5,0.5-0.9,0.5l0,0C70.2,34.4,70,34.4,69.8,34.3z M64.8,31.4c-0.5-0.3-0.6-0.9-0.4-1.4l0,0
							c0.3-0.5,0.9-0.6,1.4-0.4l0,0c0.5,0.3,0.6,0.9,0.4,1.4l0,0c-0.2,0.3-0.5,0.5-0.9,0.5l0,0C65.1,31.5,65,31.5,64.8,31.4z
							 M59.8,28.5c-0.5-0.3-0.6-0.9-0.4-1.4l0,0c0.3-0.5,0.9-0.6,1.4-0.4l0,0c0.5,0.3,0.6,0.9,0.4,1.4l0,0c-0.2,0.3-0.5,0.5-0.9,0.5
							l0,0C60.1,28.6,59.9,28.6,59.8,28.5z M54.8,25.6c-0.5-0.3-0.7-0.9-0.4-1.4l0,0c0.3-0.5,0.9-0.6,1.4-0.4l0,0
							c0.5,0.3,0.6,0.9,0.4,1.4l0,0c-0.2,0.3-0.5,0.5-0.9,0.5l0,0C55.1,25.7,54.9,25.7,54.8,25.6z M49.7,22.7
							c-0.5-0.3-0.6-0.9-0.4-1.4l0,0c0.3-0.5,0.9-0.6,1.4-0.4l0,0c0.5,0.3,0.6,0.9,0.4,1.4l0,0c-0.2,0.3-0.5,0.5-0.9,0.5l0,0
							C50.1,22.8,49.9,22.8,49.7,22.7z M44.7,19.8c-0.5-0.3-0.6-0.9-0.4-1.4l0,0c0.3-0.5,0.9-0.6,1.4-0.4l0,0
							c0.5,0.3,0.6,0.9,0.4,1.4l0,0c-0.2,0.3-0.5,0.5-0.9,0.5l0,0C45,19.9,44.9,19.9,44.7,19.8z M39.7,16.9
							c-0.5-0.3-0.6-0.9-0.4-1.4l0,0c0.3-0.5,0.9-0.6,1.4-0.4l0,0c0.5,0.3,0.6,0.9,0.4,1.4l0,0c-0.2,0.3-0.5,0.5-0.9,0.5l0,0
							C40,17,39.9,17,39.7,16.9z"/>
						<path class="st0" d="M75.4,37.3c-0.3,0-0.5-0.1-0.7-0.3c-0.1-0.1-0.2-0.2-0.2-0.3s-0.1-0.2-0.1-0.4s0-0.3,0.1-0.4
							c0.1-0.1,0.1-0.2,0.2-0.3s0.2-0.2,0.3-0.2c0.2-0.1,0.5-0.1,0.8,0c0.1,0,0.1,0.1,0.2,0.1s0.1,0.1,0.2,0.1
							c0.1,0.1,0.2,0.2,0.2,0.3s0.1,0.2,0.1,0.4s0,0.3-0.1,0.4s-0.1,0.2-0.2,0.3s-0.2,0.2-0.3,0.2S75.5,37.3,75.4,37.3z"/>
					</g>
					<g>
						<g>
							<g>
								<g>
									<g>
										<g>
											<polygon class="st1" points="29,50.4 28.8,96.1 14.7,88 14.9,42.3 											"/>
											<path class="st2" d="M28.8,97.1c-0.2,0-0.3,0-0.5-0.1l-14.1-8.1c-0.3-0.2-0.5-0.5-0.5-0.9l0.2-45.7
												c0-0.4,0.2-0.7,0.5-0.9s0.7-0.2,1,0l14.1,8.1c0.3,0.2,0.5,0.5,0.5,0.9l-0.2,45.7c0,0.4-0.2,0.7-0.5,0.9
												C29.2,97.1,29,97.1,28.8,97.1z M15.7,87.4l12.1,7L28,51l-12.1-7L15.7,87.4z"/>
										</g>
									</g>
									<g>
										<g>
											<polygon class="st3" points="29,50.4 35,47 34.8,92.7 28.8,96.1 											"/>
											<path class="st2" d="M28.8,97.1c-0.2,0-0.3,0-0.5-0.1c-0.3-0.2-0.5-0.5-0.5-0.9L28,50.4c0-0.4,0.2-0.7,0.5-0.9l5.9-3.5
												c0.3-0.2,0.7-0.2,1,0s0.5,0.5,0.5,0.9l-0.2,45.7c0,0.4-0.2,0.7-0.5,0.9L29.3,97C29.2,97.1,29,97.1,28.8,97.1z M30,51
												l-0.2,43.4l3.9-2.3L34,48.7L30,51z"/>
										</g>
									</g>
									<g>
										<g>
											<polygon class="st2" points="14.9,42.3 20.9,38.8 35,47 29,50.4 											"/>
											<path class="st2" d="M29,51.4c-0.2,0-0.3,0-0.5-0.1l-14.1-8.1c-0.3-0.2-0.5-0.5-0.5-0.9s0.2-0.7,0.5-0.9l5.9-3.5
												c0.3-0.2,0.7-0.2,1,0L35.4,46c0.3,0.2,0.5,0.5,0.5,0.9s-0.2,0.7-0.5,0.9l-5.9,3.5C29.4,51.4,29.2,51.4,29,51.4z
												 M16.9,42.3l12.1,7l4-2.3l-12.1-7L16.9,42.3z"/>
										</g>
									</g>
									<path class="st0" d="M28.8,97.1c-0.2,0-0.3,0-0.5-0.1l-14.1-8.1c-0.3-0.2-0.5-0.5-0.5-0.9l0.2-45.7c0-0.4,0.2-0.7,0.5-0.9
										l5.9-3.5c0.3-0.2,0.7-0.2,1,0L35.4,46c0.3,0.2,0.5,0.5,0.5,0.9l-0.2,45.7c0,0.4-0.2,0.7-0.5,0.9L29.3,97
										C29.2,97.1,29,97.1,28.8,97.1z M15.7,87.4L28.8,95l5-2.9L34,47.5L20.9,40l-5,2.9L15.7,87.4z"/>
								</g>
								<path class="st0" d="M17.9,54c-0.2,0-0.4,0-0.5-0.1l-3-1.8c-0.5-0.3-0.6-0.9-0.3-1.4s0.9-0.6,1.4-0.3l3,1.8
									c0.5,0.3,0.6,0.9,0.3,1.4C18.6,53.8,18.2,54,17.9,54z"/>
								<path class="st0" d="M17.9,63.4c-0.2,0-0.4,0-0.5-0.1l-3-1.8c-0.5-0.3-0.6-0.9-0.3-1.4s0.9-0.6,1.4-0.3l3,1.8
									c0.5,0.3,0.6,0.9,0.3,1.4C18.6,63.3,18.2,63.4,17.9,63.4z"/>
								<path class="st0" d="M17.9,72.9c-0.2,0-0.4,0-0.5-0.1l-3-1.8c-0.5-0.3-0.6-0.9-0.3-1.4s0.9-0.6,1.4-0.3l3,1.8
									c0.5,0.3,0.6,0.9,0.3,1.4C18.6,72.7,18.2,72.9,17.9,72.9z"/>
								<path class="st0" d="M17.9,82.3c-0.2,0-0.4,0-0.5-0.1l-3-1.8c-0.5-0.3-0.6-0.9-0.3-1.4s0.9-0.6,1.4-0.3l3,1.8
									c0.5,0.3,0.6,0.9,0.3,1.4C18.6,82.2,18.2,82.3,17.9,82.3z"/>
								<path class="st3" d="M22.5,56.6c-0.2,0-0.3,0-0.5-0.1l-0.2-0.1c-0.5-0.3-0.6-0.9-0.4-1.4c0.3-0.5,0.9-0.6,1.4-0.4l0.2,0.1
									c0.5,0.3,0.6,0.9,0.4,1.4C23.2,56.4,22.8,56.6,22.5,56.6z"/>
								<path class="st3" d="M22.5,66.1c-0.2,0-0.3,0-0.5-0.1l-0.2-0.1c-0.5-0.3-0.6-0.9-0.3-1.4c0.3-0.5,0.9-0.6,1.4-0.4l0.2,0.1
									c0.5,0.3,0.6,0.9,0.3,1.4C23.2,65.9,22.8,66.1,22.5,66.1z"/>
								<path class="st3" d="M22.5,75.5c-0.2,0-0.3,0-0.5-0.1l-0.2-0.1c-0.5-0.3-0.6-0.9-0.4-1.4c0.3-0.5,0.9-0.6,1.4-0.4l0.2,0.1
									c0.5,0.3,0.6,0.9,0.4,1.4C23.2,75.3,22.8,75.5,22.5,75.5z"/>
								<path class="st3" d="M22.5,84.9c-0.2,0-0.3,0-0.5-0.1l-0.2-0.1c-0.5-0.3-0.6-0.9-0.4-1.4c0.3-0.5,0.9-0.6,1.4-0.4L23,83
									c0.5,0.3,0.6,0.9,0.4,1.4C23.2,84.8,22.8,84.9,22.5,84.9z"/>
								<g>
									<g>
										<g>
											<g>
												<polygon class="st1" points="29.2,16.6 29,29.4 14.9,21.3 15.1,8.5 												"/>
												<path class="st2" d="M29,30.4c-0.2,0-0.3,0-0.5-0.1l-14.1-8.1c-0.3-0.2-0.5-0.5-0.5-0.9l0.2-12.9c0-0.4,0.2-0.7,0.5-0.9
													c0.3-0.2,0.7-0.2,1,0l14.1,8.1c0.3,0.2,0.5,0.5,0.5,0.9l-0.2,13c0,0.4-0.2,0.7-0.5,0.9C29.4,30.4,29.2,30.4,29,30.4z
													 M15.9,20.7l12.1,7l0.2-10.6l-12.1-7L15.9,20.7z"/>
											</g>
										</g>
										<g>
											<g>
												<polygon class="st3" points="29.2,16.6 35.2,13.1 35,26 29,29.4 												"/>
												<path class="st2" d="M29,30.4c-0.2,0-0.3,0-0.5-0.1c-0.3-0.2-0.5-0.5-0.5-0.9l0.2-12.9c0-0.4,0.2-0.7,0.5-0.8l5.9-3.5
													c0.3-0.2,0.7-0.2,1,0s0.5,0.5,0.5,0.9L36,26c0,0.4-0.2,0.7-0.5,0.8l-5.9,3.5C29.4,30.4,29.2,30.4,29,30.4z M30.2,17.2
													L30,27.7l3.9-2.3l0.2-10.5L30.2,17.2z"/>
											</g>
										</g>
										<g>
											<g>
												<polygon class="st2" points="15.1,8.5 21.1,5 35.2,13.1 29.2,16.6 												"/>
												<path class="st2" d="M29.2,17.6c-0.2,0-0.3,0-0.5-0.1L14.6,9.3c-0.3-0.2-0.5-0.5-0.5-0.9s0.2-0.7,0.5-0.9L20.5,4
													c0.3-0.2,0.7-0.2,1,0l14.1,8.1c0.3,0.2,0.5,0.5,0.5,0.9s-0.1,0.8-0.4,1l-5.9,3.5C29.6,17.6,29.4,17.6,29.2,17.6z
													 M17.1,8.5l12.1,7l4-2.3l-12.1-7L17.1,8.5z"/>
											</g>
										</g>
										<path class="st0" d="M29,30.4c-0.2,0-0.3,0-0.5-0.1l-14.1-8.1c-0.3-0.2-0.5-0.5-0.5-0.9l0.2-12.9c0-0.4,0.2-0.7,0.5-0.8
											l5.9-3.5c0.3-0.2,0.7-0.2,1,0l14.1,8.1c0.3,0.2,0.5,0.5,0.5,0.9L36,26c0,0.4-0.2,0.7-0.5,0.8l-5.9,3.5
											C29.4,30.4,29.2,30.4,29,30.4z M15.9,20.7L29,28.3l5-2.9l0.2-11.7L21.1,6.2l-5,2.9L15.9,20.7z"/>
									</g>
									<path class="st0" d="M18.1,18.5c-0.2,0-0.4,0-0.5-0.1l-3-1.8c-0.5-0.3-0.6-0.9-0.3-1.4s0.9-0.6,1.4-0.3l3,1.8
										c0.5,0.3,0.6,0.9,0.3,1.4C18.8,18.4,18.4,18.5,18.1,18.5z"/>
									<path class="st3" d="M22.7,21.2c-0.2,0-0.3,0-0.5-0.1L22,20.9c-0.5-0.3-0.6-0.9-0.4-1.4c0.3-0.5,0.9-0.6,1.4-0.4l0.2,0.1
										c0.5,0.3,0.6,0.9,0.4,1.4C23.4,21,23,21.2,22.7,21.2z"/>
								</g>
							</g>
						</g>
						<g>
							<path class="st0" d="M65,65.3c-0.1,0-0.3,0-0.4-0.1s-0.2-0.1-0.3-0.2c-0.1-0.1-0.2-0.2-0.2-0.3S64,64.5,64,64.3
								c0-0.3,0.1-0.5,0.3-0.7c0.3-0.3,0.7-0.4,1.1-0.2c0.1,0,0.2,0.1,0.3,0.2c0.2,0.2,0.3,0.4,0.3,0.7c0,0.1,0,0.3-0.1,0.4
								s-0.1,0.2-0.2,0.3c-0.1,0.1-0.2,0.2-0.3,0.2S65.2,65.3,65,65.3z"/>
							<path class="st0" d="M59.5,62.3c-0.5-0.3-0.6-0.9-0.4-1.4l0,0c0.3-0.5,0.9-0.6,1.4-0.4l0,0c0.5,0.3,0.6,0.9,0.4,1.4l0,0
								c-0.2,0.3-0.5,0.5-0.9,0.5l0,0C59.8,62.4,59.7,62.4,59.5,62.3z M54.5,59.4c-0.5-0.3-0.6-0.9-0.4-1.4l0,0
								c0.3-0.5,0.9-0.6,1.4-0.4l0,0c0.5,0.3,0.6,0.9,0.4,1.4l0,0c-0.2,0.3-0.5,0.5-0.9,0.5l0,0C54.8,59.5,54.7,59.5,54.5,59.4z
								 M49.5,56.5c-0.5-0.3-0.6-0.9-0.4-1.4l0,0c0.3-0.5,0.9-0.6,1.4-0.4l0,0c0.5,0.3,0.6,0.9,0.4,1.4l0,0
								c-0.2,0.3-0.5,0.5-0.9,0.5l0,0C49.8,56.6,49.7,56.6,49.5,56.5z M44.5,53.6c-0.5-0.3-0.6-0.9-0.4-1.4l0,0
								c0.3-0.5,0.9-0.6,1.4-0.4l0,0c0.5,0.3,0.6,0.9,0.4,1.4l0,0c-0.2,0.3-0.5,0.5-0.9,0.5l0,0C44.8,53.7,44.6,53.7,44.5,53.6z
								 M39.5,50.7c-0.5-0.3-0.6-0.9-0.4-1.4l0,0c0.3-0.5,0.9-0.6,1.4-0.4l0,0c0.5,0.3,0.6,0.9,0.4,1.4l0,0
								c-0.2,0.3-0.5,0.5-0.9,0.5l0,0C39.8,50.9,39.6,50.8,39.5,50.7z"/>
							<path class="st0" d="M35,48c-0.3,0-0.5-0.1-0.7-0.3S34,47.2,34,47c0-0.1,0-0.3,0.1-0.4c0-0.1,0.1-0.2,0.2-0.3
								c0.2-0.2,0.6-0.3,0.9-0.3c0.1,0,0.1,0,0.2,0c0.1,0,0.1,0.1,0.2,0.1l0.1,0.1c0.1,0.1,0.2,0.2,0.2,0.3s0.1,0.2,0.1,0.4
								c0,0.1,0,0.3-0.1,0.4c-0.1,0.1-0.1,0.2-0.2,0.3C35.5,47.9,35.2,48,35,48z"/>
						</g>
					</g>
					<g>
						<g>
							<path class="st4" d="M85.7,50.1c-0.3,0-0.5-0.1-0.7-0.3c-0.1-0.1-0.2-0.2-0.2-0.3c-0.1-0.1-0.1-0.2-0.1-0.4
								c0-0.1,0-0.3,0.1-0.4c0-0.1,0.1-0.2,0.2-0.3s0.2-0.2,0.3-0.2c0.4-0.1,0.8-0.1,1.1,0.2c0.2,0.2,0.3,0.4,0.3,0.7
								c0,0.1,0,0.3-0.1,0.4c0,0.1-0.1,0.2-0.2,0.3S86.2,50,86.1,50C85.9,50.1,85.8,50.1,85.7,50.1z"/>
							<path class="st4" d="M84.7,59.2c0-0.5,0.4-1,1-1l0,0c0.6,0,1,0.5,1,1l0,0c0,0.5-0.4,1-1,1l0,0C85.1,60.2,84.7,59.8,84.7,59.2
								z M84.7,54.2c0-0.5,0.4-1,1-1l0,0c0.6,0,1,0.5,1,1l0,0c0,0.5-0.4,1-1,1l0,0C85.1,55.2,84.7,54.7,84.7,54.2z"/>
							<path class="st4" d="M85.7,65.3c-0.1,0-0.3,0-0.4-0.1c-0.1,0-0.2-0.1-0.3-0.2c-0.1-0.1-0.2-0.2-0.2-0.3
								c-0.1-0.1-0.1-0.2-0.1-0.4c0-0.1,0-0.3,0.1-0.4c0-0.1,0.1-0.2,0.2-0.3l0.1-0.1c0.1,0,0.1-0.1,0.2-0.1c0.2-0.1,0.5-0.1,0.8,0
								c0.1,0,0.2,0.1,0.3,0.2c0.1,0.1,0.2,0.2,0.2,0.3c0.1,0.1,0.1,0.2,0.1,0.4c0,0.1,0,0.3-0.1,0.4c0,0.1-0.1,0.2-0.2,0.3
								c-0.1,0.1-0.2,0.2-0.3,0.2C85.9,65.3,85.8,65.3,85.7,65.3z"/>
						</g>
						<g>
							<path class="st4" d="M65,50.1c-0.3,0-0.5-0.1-0.7-0.3c-0.1-0.1-0.2-0.2-0.2-0.3S64,49.2,64,49.1c0-0.1,0-0.3,0.1-0.4
								c0-0.1,0.1-0.2,0.2-0.3c0,0,0.1-0.1,0.2-0.1c0,0,0.1-0.1,0.2-0.1s0.1,0,0.2,0c0.3-0.1,0.7,0,0.9,0.3c0.2,0.2,0.3,0.4,0.3,0.7
								c0,0.1,0,0.3-0.1,0.4c-0.1,0.1-0.1,0.2-0.2,0.3s-0.2,0.2-0.3,0.2C65.3,50.1,65.2,50.1,65,50.1z"/>
							<path class="st4" d="M64,59.2c0-0.5,0.4-1,1-1l0,0c0.5,0,1,0.5,1,1l0,0c0,0.5-0.5,1-1,1l0,0C64.5,60.2,64,59.8,64,59.2z
								 M64,54.2c0-0.5,0.4-1,1-1l0,0c0.5,0,1,0.5,1,1l0,0c0,0.5-0.5,1-1,1l0,0C64.5,55.2,64,54.7,64,54.2z"/>
							<path class="st4" d="M65,65.3c-0.1,0-0.3,0-0.4-0.1s-0.2-0.1-0.3-0.2c-0.1-0.1-0.2-0.2-0.2-0.3S64,64.5,64,64.3
								c0-0.3,0.1-0.5,0.3-0.7c0.3-0.3,0.7-0.4,1.1-0.2c0.1,0,0.2,0.1,0.3,0.2c0.2,0.2,0.3,0.4,0.3,0.7c0,0.1,0,0.3-0.1,0.4
								s-0.1,0.2-0.2,0.3c-0.1,0.1-0.2,0.2-0.3,0.2S65.2,65.3,65,65.3z"/>
						</g>
						<g>
							<polygon class="st5" points="85.7,64.3 75.4,70.3 75.4,123 113.3,101.1 							"/>
							<path class="st5" d="M75.4,124c-0.2,0-0.3,0-0.5-0.1c-0.3-0.2-0.5-0.5-0.5-0.9V70.3c0-0.4,0.2-0.7,0.5-0.9l10.3-6
								c0.4-0.3,1-0.1,1.3,0.3l27.6,36.8c0.2,0.2,0.2,0.5,0.2,0.8c-0.1,0.3-0.2,0.5-0.5,0.7l-37.9,21.9C75.7,124,75.5,124,75.4,124z
								 M76.4,70.9v50.4l35.4-20.5L85.4,65.6L76.4,70.9z"/>
						</g>
						<g>
							<polygon class="st6" points="65,64.3 75.4,70.3 75.4,123 37.4,101.1 							"/>
							<path class="st5" d="M75.4,124c-0.2,0-0.3,0-0.5-0.1l-38-21.9c-0.2-0.1-0.4-0.4-0.5-0.7c-0.1-0.3,0-0.6,0.2-0.8l27.6-36.8
								c0.3-0.4,0.9-0.5,1.3-0.3l10.3,6c0.3,0.2,0.5,0.5,0.5,0.9V123c0,0.4-0.2,0.7-0.5,0.9C75.7,124,75.5,124,75.4,124z
								 M38.9,100.8l35.4,20.5V70.9l-9.1-5.2L38.9,100.8z"/>
						</g>
						<g>
							<polygon class="st2" points="65,64.3 75.4,58.4 85.7,64.3 75.4,70.3 							"/>
							<path class="st5" d="M75.4,71.3c-0.2,0-0.3,0-0.5-0.1l-10.3-6C64.2,65,64,64.7,64,64.3s0.2-0.7,0.5-0.9l10.3-6
								c0.3-0.2,0.7-0.2,1,0l10.3,6c0.3,0.2,0.5,0.5,0.5,0.9s-0.2,0.7-0.5,0.9l-10.3,6C75.7,71.2,75.5,71.3,75.4,71.3z M67,64.3
								l8.3,4.8l8.3-4.8l-8.3-4.8L67,64.3z"/>
						</g>
						<path class="st4" d="M75.4,124c-0.2,0-0.3,0-0.5-0.1l-38-21.9c-0.2-0.1-0.4-0.4-0.5-0.7c-0.1-0.3,0-0.6,0.2-0.8l27.6-36.8
							c0.1-0.1,0.2-0.2,0.3-0.3l10.3-6c0.3-0.2,0.7-0.2,1,0l10.3,6c0.1,0.1,0.2,0.2,0.3,0.3l27.6,36.8c0.2,0.2,0.2,0.5,0.2,0.8
							c-0.1,0.3-0.2,0.5-0.5,0.7l-37.9,21.9C75.7,124,75.5,124,75.4,124z M38.9,100.8l36.4,21l36.4-21L85,65.1l-9.6-5.6l-9.6,5.6
							L38.9,100.8z"/>
						<g>
							<g>
								<polygon class="st6" points="75.4,35.3 75.4,55.1 85.7,49.1 								"/>
								<path class="st5" d="M75.4,56.1c-0.2,0-0.3,0-0.5-0.1c-0.3-0.2-0.5-0.5-0.5-0.9V35.3c0-0.4,0.3-0.8,0.7-0.9
									c0.4-0.1,0.9,0,1.1,0.3l10.3,13.8c0.2,0.2,0.2,0.5,0.2,0.8c-0.1,0.3-0.2,0.5-0.5,0.7l-10.3,6C75.7,56,75.5,56.1,75.4,56.1z
									 M76.4,38.3v15l7.8-4.5L76.4,38.3z"/>
							</g>
							<g>
								<polygon class="st2" points="75.4,35.3 75.4,55.1 65,49.1 								"/>
								<path class="st5" d="M75.4,56.1c-0.2,0-0.3,0-0.5-0.1l-10.3-6c-0.2-0.1-0.4-0.4-0.5-0.7s0-0.6,0.2-0.8l10.3-13.8
									c0.3-0.3,0.7-0.5,1.1-0.3c0.4,0.1,0.7,0.5,0.7,0.9V55c0,0.4-0.2,0.7-0.5,0.9C75.7,56,75.5,56.1,75.4,56.1z M66.5,48.8
									l7.8,4.5v-15L66.5,48.8z"/>
							</g>
							<path class="st4" d="M75.4,56.1c-0.2,0-0.3,0-0.5-0.1l-10.3-6c-0.2-0.1-0.4-0.4-0.5-0.7s0-0.6,0.2-0.8l10.3-13.8
								c0.4-0.5,1.2-0.5,1.6,0l10.3,13.8c0.2,0.2,0.2,0.5,0.2,0.8c-0.1,0.3-0.2,0.5-0.5,0.7l-10.3,6C75.7,56,75.5,56.1,75.4,56.1z
								 M66.5,48.8l8.8,5.1l8.8-5.1L75.4,37L66.5,48.8z"/>
						</g>
					</g>
				</g>
				<rect x="4" y="4" class="st7" width="120" height="120"/>
				<rect x="4" y="4" class="st7" width="120" height="120"/>
			</g>
		</g>
	</g>
	<g>
		<rect class="st7" width="128" height="128"/>
	</g>
</g>
</svg>
