<?xml version="1.0" encoding="utf-8"?>
<!-- Generator: Adobe Illustrator 24.1.0, SVG Export Plug-In . SVG Version: 6.00 Build 0)  -->
<svg version="1.1" id="Layer_1" xmlns="http://www.w3.org/2000/svg" xmlns:xlink="http://www.w3.org/1999/xlink" x="0px" y="0px"
	 viewBox="0 0 128 128" style="enable-background:new 0 0 128 128;" xml:space="preserve">
<style type="text/css">
	.st0{fill:#27ae60;}
	.st1{fill:#4D9987;}
	.st2{fill:#C4D7D3;}
	.st3{fill:#FFFFFF;}
	.st4{fill:#185849;}
	.st5{fill:#E9EBDF;}
	.st6{fill:#0E352C;}
	.st7{fill:none;}
</style>
<g id="Layer_1_1_">
</g>
<g>
	<g id="Layer_2_1_">
		<g id="New_Icon_Set_1_">
			<g>
				<g>
					<g>
						<g>
							<g>
								<g>
									<polygon class="st0" points="58.9,119 54.3,116.3 54.2,52 58.8,54.7 									"/>
									<path class="st1" d="M58.9,120c-0.2,0-0.3,0-0.5-0.1l-4.6-2.7c-0.3-0.2-0.5-0.5-0.5-0.9L53.2,52c0-0.4,0.2-0.7,0.5-0.9
										s0.7-0.2,1,0l4.6,2.7c0.3,0.2,0.5,0.5,0.5,0.9l0.1,64.4c0,0.4-0.2,0.7-0.5,0.9C59.2,120,59.1,120,58.9,120z M55.3,115.8
										l2.6,1.5l-0.1-62l-2.6-1.5L55.3,115.8z"/>
								</g>
							</g>
							<g>
								<g>
									<polygon class="st2" points="75.6,45 75.7,109.3 67.3,103.6 58.9,119 58.8,54.7 									"/>
									<path class="st3" d="M58.9,120c-0.1,0-0.2,0-0.2,0c-0.4-0.1-0.8-0.5-0.8-1l-0.1-64.4c0-0.4,0.2-0.7,0.5-0.9L75.1,44
										c0.3-0.2,0.7-0.2,1,0s0.5,0.5,0.5,0.9l0.1,64.3c0,0.4-0.2,0.7-0.5,0.9c-0.3,0.2-0.7,0.2-1-0.1l-7.5-5.1l-7.8,14.4
										C59.6,119.8,59.3,120,58.9,120z M59.8,55.2l0.1,59.8l6.5-12c0.1-0.2,0.4-0.4,0.6-0.5c0.3-0.1,0.6,0,0.8,0.1l6.9,4.7
										l-0.1-60.7L59.8,55.2z"/>
								</g>
							</g>
							<g>
								<polygon class="st0" points="67.2,49.8 67.2,103.6 67.3,103.6 75.7,109.3 75.6,45 								"/>
								<path class="st0" d="M75.7,109.8c-0.1,0-0.2,0-0.3-0.1l-8.3-5.6c-0.2-0.1-0.3-0.2-0.3-0.5V49.8c0-0.2,0.1-0.3,0.2-0.4
									l8.3-4.8c0.2-0.1,0.3-0.1,0.5,0s0.2,0.3,0.3,0.4l0.1,64.4c0,0.2-0.1,0.4-0.3,0.4C75.8,109.8,75.8,109.8,75.7,109.8z
									 M67.7,103.3l7.4,5L75,45.8L67.7,50V103.3z"/>
							</g>
							<path class="st4" d="M58.9,120c-0.2,0-0.3,0-0.5-0.1l-4.6-2.7c-0.3-0.2-0.5-0.5-0.5-0.9L53.2,52c0-0.4,0.2-0.7,0.5-0.9
								l16.8-9.7c0.3-0.2,0.7-0.2,1,0l4.6,2.7c0.3,0.2,0.5,0.5,0.5,0.9l0.1,64.3c0,0.4-0.2,0.7-0.5,0.9c-0.3,0.2-0.7,0.2-1-0.1
								l-7.5-5.1l-7.8,14.4c-0.1,0.2-0.3,0.4-0.6,0.5C59.1,120,59,120,58.9,120z M55.3,115.8l3.2,1.9l7.9-14.5
								c0.1-0.2,0.4-0.4,0.6-0.5c0.3-0.1,0.6,0,0.8,0.1l6.9,4.7l-0.1-61.9L71,43.5l-15.8,9.1L55.3,115.8z"/>
						</g>
						<g>
							<polygon class="st3" points="99.4,25.8 90.1,20.4 71.3,31.2 76.3,39.1 							"/>
							<g>
								<polygon class="st5" points="68.3,14.4 59,9 50.9,42.9 60.3,48.3 								"/>
								<path class="st1" d="M60.3,49.3c-0.2,0-0.3,0-0.5-0.1l-9.4-5.4c-0.4-0.2-0.6-0.7-0.5-1.1l8-33.9c0.1-0.3,0.3-0.6,0.6-0.7
									s0.7-0.1,1,0l9.4,5.4c0.4,0.2,0.6,0.7,0.5,1.1l-8,33.9c-0.1,0.3-0.3,0.6-0.6,0.7C60.6,49.3,60.5,49.3,60.3,49.3z M52.1,42.4
									l7.6,4.4l7.5-31.9l-7.6-4.4L52.1,42.4z"/>
							</g>
							<g>
								<polygon class="st3" points="60.3,48.3 37.9,61.3 28.6,55.9 50.9,42.9 								"/>
								<path class="st3" d="M37.9,62.3c-0.2,0-0.3,0-0.5-0.1L28,56.8c-0.3-0.2-0.5-0.5-0.5-0.9s0.2-0.7,0.5-0.9l22.4-12.9
									c0.3-0.2,0.7-0.2,1,0l9.4,5.4c0.3,0.2,0.5,0.5,0.5,0.9s-0.2,0.7-0.5,0.9L38.4,62.1C38.3,62.2,38.1,62.3,37.9,62.3z
									 M30.6,55.9l7.4,4.3l20.4-11.8L51,44.1L30.6,55.9z"/>
							</g>
							<polygon class="st5" points="47.9,101.7 38.5,96.3 45.8,65.5 55.2,70.6 							"/>
							<g>
								<path class="st1" d="M81.6,56l17.9-30.3L76.3,39.1l-8-24.7c0,0-5.3,22.5-8,33.9l-22.4,13c0,0,12.2,6.6,17.3,9.4l-7.3,31
									c0,0,13.6-18.4,20.4-27.5c6.8,1.3,20.4,3.9,20.4,3.9L81.6,56z"/>
								<path class="st3" d="M47.9,102.7c-0.1,0-0.3,0-0.4-0.1c-0.4-0.2-0.7-0.7-0.6-1.1L54,71.2l-16.6-9c-0.3-0.2-0.5-0.5-0.5-0.9
									s0.2-0.7,0.5-0.9l22-12.7l7.9-33.5c0.1-0.4,0.5-0.8,0.9-0.8s0.9,0.3,1,0.7l7.6,23.5l22-12.7c0.4-0.2,0.9-0.2,1.2,0.2
									c0.3,0.3,0.4,0.8,0.2,1.2L82.7,56.2l7,21.6c0.1,0.3,0,0.7-0.2,1s-0.6,0.4-0.9,0.3l-19.8-3.8l-20,27
									C48.5,102.5,48.2,102.7,47.9,102.7z M40,61.2l15.7,8.5c0.4,0.2,0.6,0.7,0.5,1.1L50,97.2l17.5-23.6c0.2-0.3,0.6-0.5,1-0.4
									l18.7,3.6l-6.6-20.5c-0.1-0.3-0.1-0.6,0.1-0.8l15.9-27L76.8,40c-0.3,0.2-0.6,0.2-0.9,0.1c-0.3-0.1-0.5-0.3-0.6-0.6
									l-6.9-21.3l-7.2,30.5c-0.1,0.3-0.2,0.5-0.5,0.6L40,61.2z"/>
							</g>
							<path class="st6" d="M47.9,102.7c-0.2,0-0.3,0-0.5-0.1L38,97.1c-0.4-0.2-0.6-0.7-0.5-1.1l7.1-30l-7.2-3.9L28,56.7
								c-0.3-0.2-0.5-0.5-0.5-0.9s0.2-0.7,0.5-0.9l22-12.7l8-33.4c0.1-0.3,0.3-0.6,0.6-0.7c0.2-0.1,0.6-0.1,0.9,0l9.4,5.4
								c0,0,0,0,0.1,0c0.1,0.1,0.1,0.1,0.2,0.2l0,0l0,0c0.1,0.1,0.1,0.2,0.2,0.3l0,0l4.7,14.4l15.6-9c0.3-0.2,0.7-0.2,1,0l9.4,5.4
								c0.2,0.1,0.4,0.4,0.5,0.6c0.1,0.3,0,0.5-0.1,0.8l-17.8,30l7,21.6c0.1,0.3,0,0.7-0.2,1s-0.6,0.4-0.9,0.3l-19.8-3.8l-20,27
								C48.5,102.5,48.2,102.7,47.9,102.7z M39.7,95.8l8,4.6l19.9-26.8c0.2-0.3,0.6-0.5,1-0.4l18.7,3.6l-6.6-20.5
								c-0.1-0.3-0.1-0.6,0.1-0.8l17.3-29.4l-8-4.6l-16.2,9.3C73.6,31,73.3,31,73,30.9s-0.5-0.3-0.6-0.6l-4.8-14.7
								c-0.2-0.2-0.4-0.4-0.4-0.7l-7.6-4.4l-7.7,32.6c-0.1,0.3-0.2,0.5-0.5,0.6L30.6,55.9l7.9,4.5l7.9,4.3c0.5,0.3,0.7,0.9,0.4,1.4
								l0,0L39.7,95.8z"/>
						</g>
					</g>
				</g>
				<rect x="4" y="4" class="st7" width="120" height="120"/>
				<rect x="4" y="4" class="st7" width="120" height="120"/>
			</g>
		</g>
	</g>
	<g>
		<rect class="st7" width="128" height="128"/>
	</g>
</g>
</svg>
