<?xml version="1.0" encoding="utf-8"?>
<!-- Generator: Adobe Illustrator 24.1.0, SVG Export Plug-In . SVG Version: 6.00 Build 0)  -->
<svg version="1.1" id="Layer_1" xmlns="http://www.w3.org/2000/svg" xmlns:xlink="http://www.w3.org/1999/xlink" x="0px" y="0px"
	 viewBox="0 0 128 128" style="enable-background:new 0 0 128 128;" xml:space="preserve">
<style type="text/css">
	.st0{fill:#E9EBDF;}
	.st1{fill:#0E352C;}
	.st2{fill:#FFFFFF;}
	.st3{fill:#4D9987;}
	.st4{fill:none;}
</style>
<g id="Layer_1_1_">
</g>
<g>
	<g id="Layer_2_1_">
		<g id="Tech_Concepts_1_">
			<g>
				<g>
					<path class="st0" d="M76.1,100.7l-17.2-9.9c-1.3-0.7-3.4-0.7-4.7,0L31.4,104c-1.3,0.7-1.3,2,0,2.7l17.2,9.9L76.1,100.7z"/>
					<path class="st1" d="M58.2,122.2c-1,0-2-0.2-2.8-0.7L31,107.4c-0.9-0.5-1.5-1.3-1.5-2.2c0-0.9,0.5-1.7,1.5-2.2l22.8-13.2
						c1.6-0.9,4.1-0.9,5.7,0l24.4,14.1c0.9,0.5,1.5,1.3,1.5,2.2c0,0.9-0.5,1.7-1.5,2.2L61,121.6C60.2,122,59.2,122.2,58.2,122.2z
						 M56.6,91.2c-0.7,0-1.3,0.1-1.8,0.4L32,104.8c-0.4,0.2-0.5,0.4-0.5,0.5s0.1,0.3,0.5,0.5l24.4,14.1c1,0.6,2.7,0.6,3.7,0
						l22.8-13.2l0,0c0.4-0.2,0.5-0.4,0.5-0.5s-0.1-0.3-0.5-0.5L58.4,91.6C57.9,91.3,57.3,91.2,56.6,91.2z"/>
					<path class="st0" d="M105.1,7.9l-4.9-2.8l0,0c-0.3-0.2-0.7-0.2-1.1,0.1L24.2,48.5c-0.9,0.5-1.7,2-1.7,3.2v67.1
						c0,0.7,0.2,1.1,0.6,1.3l0,0l4.9,2.8l6.6-11.1l62.7-36.2c0.9-0.5,1.7-2,1.7-3.2V16.2L105.1,7.9z"/>
					<path class="st2" d="M100.2,5.1L100.2,5.1c-0.3-0.2-0.7-0.2-1.1,0.1L24.2,48.5c-0.5,0.3-1,0.9-1.3,1.7l59.2,34.2l15.1-8.7
						c0.9-0.5,1.7-2,1.7-3.2V16.2l6.2-8.2L100.2,5.1z"/>
					<path class="st0" d="M104,79.5l-74.9,43.3c-0.9,0.5-1.7,0-1.7-1.3v-67c0-1.2,0.7-2.7,1.7-3.2L104,8c0.9-0.5,1.7,0,1.7,1.3v67.1
						C105.7,77.6,104.9,79,104,79.5z"/>
					<g>
						<path class="st3" d="M104,79.5l-74.9,43.3c-0.9,0.5-1.7,0-1.7-1.3v-67c0-1.2,0.7-2.7,1.7-3.2L104,8c0.9-0.5,1.7,0,1.7,1.3
							v67.1C105.7,77.6,104.9,79,104,79.5z"/>
						<path class="st3" d="M28.4,124c-0.3,0-0.6-0.1-0.9-0.2c-0.7-0.4-1.1-1.2-1.1-2.2V54.5c0-1.6,0.9-3.3,2.2-4.1l74.9-43.3
							c0.7-0.4,1.5-0.4,2.1-0.1c0.7,0.4,1.1,1.2,1.1,2.2v67.1c0,1.6-0.9,3.3-2.2,4.1l-74.9,43.3C29.2,123.9,28.8,124,28.4,124z
							 M104.6,8.8C104.6,8.8,104.6,8.9,104.6,8.8l-75,43.3c-0.6,0.3-1.2,1.4-1.2,2.3v67.1c0,0.2,0,0.4,0.1,0.4h0.1l74.9-43.3
							c0.6-0.3,1.2-1.4,1.2-2.3v-67C104.7,9.1,104.6,8.9,104.6,8.8z"/>
					</g>
					<g>
						<path class="st1" d="M104,8L29.1,51.3c-0.9,0.5-1.7,2-1.7,3.2v59.7L105.7,69V9.3C105.7,8,104.9,7.5,104,8z"/>
						<path class="st1" d="M27.4,115.2c-0.2,0-0.3,0-0.5-0.1c-0.3-0.2-0.5-0.5-0.5-0.9V54.5c0-1.6,0.9-3.3,2.2-4.1l74.9-43.3l0,0
							c0.7-0.4,1.5-0.4,2.1-0.1c0.7,0.4,1.1,1.2,1.1,2.2V69c0,0.4-0.2,0.7-0.5,0.9L27.9,115C27.8,115.1,27.6,115.2,27.4,115.2z
							 M104.5,8.9L29.6,52.1c-0.6,0.3-1.2,1.4-1.2,2.3v58l76.3-44V9.3C104.7,9.1,104.6,8.9,104.5,8.9C104.6,8.8,104.6,8.9,104.5,8.9
							L104.5,8.9z"/>
					</g>
					
						<ellipse transform="matrix(0.3916 -0.9201 0.9201 0.3916 -48.2874 119.7477)" class="st0" cx="66.4" cy="96.4" rx="2" ry="1.2"/>
					<polygon class="st2" points="31.2,54.9 101.9,14.1 101.9,66.7 31.2,107.5 					"/>
					<polygon class="st0" points="101.9,66.7 101.9,14.1 89.3,21.4 43.8,100.2 					"/>
					<path class="st1" d="M28.4,124c-0.3,0-0.5-0.1-0.8-0.2c-0.1,0-0.1,0-0.2-0.1l-4.9-2.8c-0.7-0.4-1.1-1.2-1.1-2.2v-67
						c0-1.6,0.9-3.3,2.2-4.1l75-43.3c0.7-0.4,1.5-0.4,2.1-0.1l4.9,2.8c0.1,0,0.1,0.1,0.2,0.1c0.6,0.4,0.9,1.2,0.9,2.1v67.1
						c0,1.6-0.9,3.3-2.2,4.1l-74.9,43.3C29.2,123.9,28.8,124,28.4,124z M28.5,122L28.5,122L28.5,122z M28.4,121.9h0.1
						c0,0,0,0,0.1-0.1l74.9-43.3c0.6-0.3,1.2-1.4,1.2-2.3V9.3c0-0.3-0.1-0.5-0.1-0.5s-0.1,0-0.1-0.1L99.8,6c0,0-0.1,0-0.1,0.1
						l-75,43.2c-0.6,0.3-1.2,1.4-1.2,2.3v67.1c0,0.3,0.1,0.5,0.1,0.5L28.4,121.9z"/>
					<path class="st2" d="M31.2,54.9v52.6l70.7-40.8V14.1L31.2,54.9z M98.9,64.9l-64.7,37.4V56.7l64.7-37.4V64.9z"/>
				</g>
				<rect x="4" y="4" class="st4" width="120" height="120"/>
				<rect x="4" y="4" class="st4" width="120" height="120"/>
			</g>
		</g>
	</g>
	<g>
		<rect class="st4" width="128" height="128"/>
	</g>
</g>
</svg>
