<?xml version="1.0" encoding="utf-8"?>
<!-- Generator: Adobe Illustrator 24.1.0, SVG Export Plug-In . SVG Version: 6.00 Build 0)  -->
<svg version="1.1" id="Layer_1" xmlns="http://www.w3.org/2000/svg" xmlns:xlink="http://www.w3.org/1999/xlink" x="0px" y="0px"
	 viewBox="0 0 128 128" style="enable-background:new 0 0 128 128;" xml:space="preserve">
<style type="text/css">
	.st0{fill:none;}
	.st1{fill:#0E352C;}
	.st2{fill:#185849;}
	.st3{fill:#E9EBDF;}
	.st4{fill:#4D9987;}
	.st5{fill:#FFFFFF;}
	.st6{fill:#27ae60;}
	.st7{fill:#C4D7D3;}
</style>
<g id="Layer_1_1_">
</g>
<g>
	<g id="Layer_2_1_">
		<g id="Objects_1_">
			<g>
				<g>
					<rect x="4" y="4" class="st0" width="120" height="120"/>
				</g>
				<g>
					<g>
						<path class="st1" d="M20.5,38.6c-0.1,0-0.3,0-0.4-0.1s-0.2-0.1-0.3-0.2l-0.1-0.1c0-0.1-0.1-0.1-0.1-0.2c0-0.1-0.1-0.1-0.1-0.2
							c0-0.1,0-0.1,0-0.2c0-0.3,0.1-0.5,0.3-0.7c0.1-0.1,0.2-0.2,0.3-0.2c0.4-0.2,0.8-0.1,1.1,0.2c0.2,0.2,0.3,0.4,0.3,0.7
							c0,0.1,0,0.1,0,0.2c0,0.1,0,0.1-0.1,0.2c0,0.1,0,0.1-0.1,0.2l-0.1,0.1C21.1,38.5,20.8,38.6,20.5,38.6z"/>
						<path class="st1" d="M19.5,77.2c0-0.6,0.4-1,1-1l0,0c0.5,0,1,0.4,1,1l0,0c0,0.6-0.5,1-1,1l0,0C20,78.2,19.5,77.8,19.5,77.2z
							 M19.5,71.5c0-0.5,0.4-1,1-1l0,0c0.5,0,1,0.5,1,1l0,0c0,0.6-0.5,1-1,1l0,0C20,72.5,19.5,72.1,19.5,71.5z M19.5,65.9
							c0-0.6,0.4-1,1-1l0,0c0.5,0,1,0.4,1,1l0,0c0,0.5-0.5,1-1,1l0,0C20,66.9,19.5,66.4,19.5,65.9z M19.5,60.2c0-0.6,0.4-1,1-1l0,0
							c0.5,0,1,0.4,1,1l0,0c0,0.5-0.5,1-1,1l0,0C20,61.2,19.5,60.8,19.5,60.2z M19.5,54.5c0-0.5,0.4-1,1-1l0,0c0.5,0,1,0.5,1,1l0,0
							c0,0.6-0.5,1-1,1l0,0C20,55.5,19.5,55.1,19.5,54.5z M19.5,48.9c0-0.6,0.4-1,1-1l0,0c0.5,0,1,0.4,1,1l0,0c0,0.5-0.5,1-1,1l0,0
							C20,49.9,19.5,49.4,19.5,48.9z M19.5,43.2c0-0.6,0.4-1,1-1l0,0c0.5,0,1,0.4,1,1l0,0c0,0.5-0.5,1-1,1l0,0
							C20,44.2,19.5,43.8,19.5,43.2z"/>
						<path class="st1" d="M20.5,83.9c-0.1,0-0.3,0-0.4-0.1c-0.1,0-0.2-0.1-0.3-0.2c0-0.1-0.1-0.1-0.1-0.2c0,0-0.1-0.1-0.1-0.2
							s-0.1-0.1-0.1-0.2s0-0.1,0-0.2c0-0.3,0.1-0.5,0.3-0.7c0.1-0.1,0.2-0.2,0.3-0.2c0.4-0.2,0.8-0.1,1.1,0.2
							c0.2,0.2,0.3,0.5,0.3,0.7c0,0.1,0,0.1,0,0.2s0,0.1-0.1,0.2c0,0.1,0,0.1-0.1,0.2c0,0.1-0.1,0.1-0.1,0.2
							C21.1,83.8,20.8,83.9,20.5,83.9z"/>
					</g>
					<g>
						<path class="st2" d="M107.4,38.6c-0.3,0-0.5-0.1-0.7-0.3s-0.3-0.4-0.3-0.7c0-0.1,0-0.3,0.1-0.4c0.1-0.1,0.1-0.2,0.2-0.3
							c0.4-0.4,1.1-0.4,1.4,0c0.1,0.1,0.2,0.2,0.2,0.3s0.1,0.2,0.1,0.4c0,0.3-0.1,0.5-0.3,0.7C108,38.5,107.7,38.6,107.4,38.6z"/>
						<path class="st2" d="M106.4,77.2c0-0.6,0.4-1,1-1l0,0c0.5,0,1,0.4,1,1l0,0c0,0.6-0.5,1-1,1l0,0
							C106.9,78.2,106.4,77.8,106.4,77.2z M106.4,71.5c0-0.5,0.4-1,1-1l0,0c0.5,0,1,0.5,1,1l0,0c0,0.6-0.5,1-1,1l0,0
							C106.9,72.5,106.4,72.1,106.4,71.5z M106.4,65.9c0-0.6,0.4-1,1-1l0,0c0.5,0,1,0.4,1,1l0,0c0,0.5-0.5,1-1,1l0,0
							C106.9,66.9,106.4,66.4,106.4,65.9z M106.4,60.2c0-0.6,0.4-1,1-1l0,0c0.5,0,1,0.4,1,1l0,0c0,0.6-0.5,1-1,1l0,0
							C106.9,61.2,106.4,60.8,106.4,60.2z M106.4,54.5c0-0.5,0.4-1,1-1l0,0c0.5,0,1,0.5,1,1l0,0c0,0.6-0.5,1-1,1l0,0
							C106.9,55.5,106.4,55.1,106.4,54.5z M106.4,48.9c0-0.6,0.4-1,1-1l0,0c0.5,0,1,0.4,1,1l0,0c0,0.5-0.5,1-1,1l0,0
							C106.9,49.9,106.4,49.4,106.4,48.9z M106.4,43.2c0-0.6,0.4-1,1-1l0,0c0.5,0,1,0.4,1,1l0,0c0,0.5-0.5,1-1,1l0,0
							C106.9,44.2,106.4,43.8,106.4,43.2z"/>
						<path class="st2" d="M107.4,83.9c-0.3,0-0.5-0.1-0.7-0.3c-0.2-0.2-0.3-0.4-0.3-0.7s0.1-0.5,0.3-0.7c0.4-0.4,1-0.4,1.4,0
							c0.2,0.2,0.3,0.5,0.3,0.7s-0.1,0.5-0.3,0.7C108,83.8,107.7,83.9,107.4,83.9z"/>
					</g>
					<g>
						<g>
							<g>
								<path class="st2" d="M81.4,83.9c-0.2,0-0.3,0-0.5-0.1l-4.4-2.5c-0.5-0.3-0.6-0.9-0.4-1.4c0.3-0.5,0.9-0.6,1.4-0.4l4.4,2.5
									c0.5,0.3,0.6,0.9,0.4,1.4C82.1,83.7,81.7,83.9,81.4,83.9z"/>
								<path class="st2" d="M64,93.9c-0.6,0-1-0.4-1-1v-5c0-0.6,0.4-1,1-1s1,0.4,1,1v5C65,93.5,64.5,93.9,64,93.9z"/>
								<path class="st2" d="M77,101.4c-0.3,0-0.7-0.2-0.9-0.5c-0.3-0.5-0.1-1.1,0.4-1.4l4.4-2.5c0.5-0.3,1.1-0.1,1.4,0.4
									s0.1,1.1-0.4,1.4l-4.4,2.5C77.4,101.4,77.2,101.4,77,101.4z"/>
								<path class="st2" d="M46.8,83.8c-0.3,0-0.7-0.2-0.9-0.5c-0.3-0.5-0.1-1.1,0.4-1.4l4.2-2.4c0.5-0.3,1.1-0.1,1.4,0.4
									c0.3,0.5,0.1,1.1-0.4,1.4l-4.2,2.4C47.1,83.7,47,83.8,46.8,83.8z"/>
								<path class="st2" d="M51,101.4c-0.2,0-0.3,0-0.5-0.1l-4.4-2.5c-0.5-0.3-0.6-0.9-0.4-1.4c0.3-0.5,0.9-0.6,1.4-0.4l4.4,2.5
									c0.5,0.3,0.6,0.9,0.4,1.4C51.6,101.3,51.3,101.4,51,101.4z"/>
								<g>
									<g>
										<g>
											<polygon class="st3" points="46.6,97.9 33.6,105.4 20.5,97.9 20.5,82.9 33.6,75.3 46.6,82.9 											"/>
											<path class="st4" d="M33.6,106.4c-0.2,0-0.3,0-0.5-0.1l-13-7.5c-0.3-0.2-0.5-0.5-0.5-0.9v-15c0-0.4,0.2-0.7,0.5-0.9
												l13-7.5c0.3-0.2,0.7-0.2,1,0l13,7.5c0.3,0.2,0.5,0.5,0.5,0.9v15c0,0.4-0.2,0.7-0.5,0.9l-13,7.5
												C33.9,106.4,33.7,106.4,33.6,106.4z M21.5,97.3l12,6.9l12-6.9V83.4l-12-6.9l-12,6.9V97.3z M46.6,97.9L46.6,97.9
												L46.6,97.9z"/>
										</g>
										<g>
											<polygon class="st5" points="46.6,82.9 33.6,90.4 20.5,82.9 20.5,82.9 33.6,75.3 											"/>
											<path class="st4" d="M33.6,91.4c-0.2,0-0.3,0-0.5-0.1l-13-7.5c-0.3-0.2-0.5-0.5-0.5-0.9s0.2-0.7,0.5-0.9l13-7.5
												c0.3-0.2,0.7-0.2,1,0l13,7.5c0.3,0.2,0.5,0.5,0.5,0.9s-0.2,0.7-0.5,0.9l-13,7.5C33.9,91.3,33.7,91.4,33.6,91.4z
												 M22.5,82.9l11,6.4l11-6.4l-11-6.4L22.5,82.9z"/>
										</g>
										<g>
											<polygon class="st4" points="33.6,90.4 33.6,105.4 46.6,97.9 46.6,82.9 											"/>
											<path class="st4" d="M33.6,106.4c-0.2,0-0.3,0-0.5-0.1c-0.3-0.2-0.5-0.5-0.5-0.9v-15c0-0.4,0.2-0.7,0.5-0.9l13-7.5
												c0.3-0.2,0.7-0.2,1,0s0.5,0.5,0.5,0.9v15c0,0.4-0.2,0.7-0.5,0.9l-13,7.5C33.9,106.4,33.7,106.4,33.6,106.4z M34.6,91
												v12.7l11-6.4V84.6L34.6,91z"/>
										</g>
									</g>
									<path class="st1" d="M33.6,106.4c-0.2,0-0.3,0-0.5-0.1l-13-7.5c-0.3-0.2-0.5-0.5-0.5-0.9v-15c0-0.4,0.2-0.7,0.5-0.9l13-7.5
										c0.3-0.2,0.7-0.2,1,0l13,7.5c0.3,0.2,0.5,0.5,0.5,0.9v15c0,0.4-0.2,0.7-0.5,0.9l-13,7.5C33.9,106.4,33.7,106.4,33.6,106.4z
										 M21.5,97.3l12,6.9l12-6.9V83.4l-12-6.9l-12,6.9V97.3z"/>
								</g>
								<g>
									<g>
										<g>
											<polygon class="st3" points="77,115.5 64,123 51,115.5 51,100.4 64,92.9 77,100.4 											"/>
											<path class="st4" d="M64,124c-0.2,0-0.3,0-0.5-0.1l-13-7.5c-0.3-0.2-0.5-0.5-0.5-0.9v-15c0-0.4,0.2-0.7,0.5-0.9l13-7.5
												c0.3-0.2,0.7-0.2,1,0l13,7.5c0.3,0.2,0.5,0.5,0.5,0.9v15c0,0.4-0.2,0.7-0.5,0.9l-13,7.5C64.3,124,64.2,124,64,124z
												 M52,114.9l12,6.9l12-6.9V101l-12-6.9L52,101V114.9z M77,115.5L77,115.5L77,115.5z"/>
										</g>
										<g>
											<polygon class="st5" points="77,100.4 64,108 51,100.4 51,100.4 64,92.9 											"/>
											<path class="st4" d="M64,109c-0.2,0-0.3,0-0.5-0.1l-13-7.5c-0.3-0.2-0.5-0.5-0.5-0.9s0.2-0.7,0.5-0.9l13-7.5
												c0.3-0.2,0.7-0.2,1,0l13,7.5c0.3,0.2,0.5,0.5,0.5,0.9s-0.2,0.7-0.5,0.9l-13,7.5C64.3,108.9,64.2,109,64,109z M53,100.4
												l11,6.4l11-6.4L64,94L53,100.4z"/>
										</g>
										<g>
											<polygon class="st4" points="64,108 64,123 77,115.5 77,100.4 											"/>
											<path class="st4" d="M64,124c-0.2,0-0.3,0-0.5-0.1c-0.3-0.2-0.5-0.5-0.5-0.9v-15c0-0.4,0.2-0.7,0.5-0.9l13-7.5
												c0.3-0.2,0.7-0.2,1,0s0.5,0.5,0.5,0.9v15c0,0.4-0.2,0.7-0.5,0.9l-13,7.5C64.3,124,64.2,124,64,124z M65,108.5v12.7
												l11-6.4v-12.7L65,108.5z"/>
										</g>
									</g>
									<path class="st1" d="M64,124c-0.2,0-0.3,0-0.5-0.1l-13-7.5c-0.3-0.2-0.5-0.5-0.5-0.9v-15c0-0.4,0.2-0.7,0.5-0.9l13-7.5
										c0.3-0.2,0.7-0.2,1,0l13,7.5c0.3,0.2,0.5,0.5,0.5,0.9v15c0,0.4-0.2,0.7-0.5,0.9l-13,7.5C64.3,124,64.2,124,64,124z
										 M52,114.9l12,6.9l12-6.9V101l-12-6.9L52,101V114.9z"/>
								</g>
								<g>
									<g>
										<g>
											<polygon class="st3" points="107.4,97.9 94.4,105.4 81.4,97.9 81.4,82.9 94.4,75.3 107.4,82.9 											"/>
											<path class="st4" d="M94.4,106.4c-0.2,0-0.3,0-0.5-0.1l-13-7.5c-0.3-0.2-0.5-0.5-0.5-0.9v-15c0-0.4,0.2-0.7,0.5-0.9
												l13-7.5c0.3-0.2,0.7-0.2,1,0l13,7.5c0.3,0.2,0.5,0.5,0.5,0.9v15c0,0.4-0.2,0.7-0.5,0.9l-13,7.5
												C94.8,106.4,94.6,106.4,94.4,106.4z M82.4,97.3l12,6.9l12-6.9V83.4l-12-6.9l-12,6.9V97.3z M107.4,97.9L107.4,97.9
												L107.4,97.9z"/>
										</g>
										<g>
											<polygon class="st5" points="107.4,82.9 94.4,90.4 81.4,82.9 81.4,82.9 94.4,75.3 											"/>
											<path class="st4" d="M94.4,91.4c-0.2,0-0.3,0-0.5-0.1l-13-7.5c-0.3-0.2-0.5-0.5-0.5-0.9s0.2-0.7,0.5-0.9l13-7.5
												c0.3-0.2,0.7-0.2,1,0l13,7.5c0.3,0.2,0.5,0.5,0.5,0.9s-0.2,0.7-0.5,0.9l-13,7.5C94.8,91.3,94.6,91.4,94.4,91.4z
												 M83.4,82.9l11,6.4l11-6.4l-11-6.4L83.4,82.9z"/>
										</g>
										<g>
											<polygon class="st4" points="94.4,90.4 94.4,105.4 107.4,97.9 107.4,82.9 											"/>
											<path class="st4" d="M94.4,106.4c-0.2,0-0.3,0-0.5-0.1c-0.3-0.2-0.5-0.5-0.5-0.9v-15c0-0.4,0.2-0.7,0.5-0.9l13-7.5
												c0.3-0.2,0.7-0.2,1,0s0.5,0.5,0.5,0.9v15c0,0.4-0.2,0.7-0.5,0.9l-13,7.5C94.8,106.4,94.6,106.4,94.4,106.4z M95.4,91
												v12.7l11-6.4V84.6L95.4,91z"/>
										</g>
									</g>
									<path class="st1" d="M94.4,106.4c-0.2,0-0.3,0-0.5-0.1l-13-7.5c-0.3-0.2-0.5-0.5-0.5-0.9v-15c0-0.4,0.2-0.7,0.5-0.9l13-7.5
										c0.3-0.2,0.7-0.2,1,0l13,7.5c0.3,0.2,0.5,0.5,0.5,0.9v15c0,0.4-0.2,0.7-0.5,0.9l-13,7.5C94.8,106.4,94.6,106.4,94.4,106.4z
										 M82.4,97.3l12,6.9l12-6.9V83.4l-12-6.9l-12,6.9V97.3z"/>
								</g>
								<g>
									<g>
										<g>
											<polygon class="st3" points="77,80.3 64,87.9 51,80.3 51,65.3 64,57.8 77,65.3 											"/>
											<path class="st4" d="M64,88.9c-0.2,0-0.3,0-0.5-0.1l-13-7.5c-0.3-0.3-0.5-0.6-0.5-1v-15c0-0.4,0.2-0.7,0.5-0.9l13-7.5
												c0.3-0.2,0.7-0.2,1,0l13,7.5c0.3,0.2,0.5,0.5,0.5,0.9v15c0,0.4-0.2,0.7-0.5,0.9l-13,7.5C64.3,88.8,64.2,88.9,64,88.9z
												 M52,79.8l12,6.9l12-6.9V65.9L64,59l-12,6.9V79.8z M77,80.3L77,80.3L77,80.3z"/>
										</g>
										<g>
											<polygon class="st5" points="77,65.3 64,72.8 51,65.3 51,65.3 64,57.8 											"/>
											<path class="st4" d="M64,73.8c-0.2,0-0.3,0-0.5-0.1l-13-7.5C50.2,66,50,65.7,50,65.3s0.2-0.7,0.5-0.9l13-7.5
												c0.3-0.2,0.7-0.2,1,0l13,7.5c0.3,0.2,0.5,0.5,0.5,0.9s-0.2,0.7-0.5,0.9l-13,7.5C64.3,73.8,64.2,73.8,64,73.8z M53,65.3
												l11,6.4l11-6.4l-11-6.4L53,65.3z"/>
										</g>
										<g>
											<polygon class="st4" points="64,72.8 64,87.9 77,80.3 77,65.3 											"/>
											<path class="st4" d="M64,88.9c-0.2,0-0.3,0-0.5-0.1c-0.3-0.2-0.5-0.5-0.5-0.9v-15c0-0.4,0.2-0.7,0.5-0.9l13-7.5
												c0.3-0.2,0.7-0.2,1,0S78,65,78,65.4v15c0,0.4-0.2,0.7-0.5,0.9l-13,7.5C64.3,88.8,64.2,88.9,64,88.9z M65,73.4v12.7
												l11-6.4V67L65,73.4z"/>
										</g>
									</g>
									<path class="st1" d="M64,88.9c-0.2,0-0.3,0-0.5-0.1l-13-7.5c-0.3-0.3-0.5-0.6-0.5-1v-15c0-0.4,0.2-0.7,0.5-0.9l13-7.5
										c0.3-0.2,0.7-0.2,1,0l13,7.5c0.3,0.2,0.5,0.5,0.5,0.9v15c0,0.4-0.2,0.7-0.5,0.9l-13,7.5C64.3,88.8,64.2,88.9,64,88.9z
										 M52,79.8l12,6.9l12-6.9V65.9L64,59l-12,6.9V79.8z"/>
								</g>
							</g>
						</g>
						<g>
							<g>
								<g>
									<g>
										<path class="st5" d="M106.8,28.8c0.9,0.5,0.9,1.4,0,1.9L65,55c-0.9,0.5-2.4,0.5-3.3,0L21.3,31.6c-0.9-0.5-0.9-1.4,0-1.9
											L63.1,5.4c0.9-0.5,2.4-0.5,3.3,0L106.8,28.8z"/>
									</g>
									<path class="st6" d="M63.3,62.3c0.6,0,1.2-0.1,1.6-0.4l41.8-24.3c0.4-0.3,0.7-0.6,0.7-0.9v-6.9c0,0.3-0.2,0.7-0.7,0.9
										L65,55c-0.4,0.3-1,0.4-1.6,0.4L63.3,62.3z"/>
									<path class="st7" d="M63.3,55.3c-0.6,0-1.2-0.1-1.6-0.4L21.3,31.6c-0.5-0.3-0.7-0.6-0.7-1v6.9c0,0.3,0.2,0.7,0.7,1
										l40.5,23.4c0.5,0.3,1,0.4,1.6,0.4"/>
									<path class="st6" d="M28,35.5l-6.8-3.9c-0.5-0.3-0.7-0.6-0.7-1v6.9c0,0.3,0.2,0.7,0.7,1l6.8,3.9V35.5z"/>
									<path class="st1" d="M28,36.5c-0.3,0-0.7-0.2-0.9-0.5c-0.3-0.5-0.1-1.1,0.4-1.4L72.6,8.4c0.5-0.3,1.1-0.1,1.4,0.4
										s0.1,1.1-0.4,1.4L28.5,36.4C28.4,36.4,28.2,36.5,28,36.5z"/>
									<g>
										<g>
											<path class="st5" d="M63.1,5.4c0.9-0.5,2.4-0.5,3.3,0l40.5,23.4c0.9,0.5,0.9,1.4,0,1.9L65,55c-0.9,0.5-2.4,0.5-3.3,0
												L28,35.5"/>
											<path class="st6" d="M63.3,56.4c-0.8,0-1.5-0.2-2.1-0.5L27.5,36.4c-0.5-0.3-0.6-0.9-0.4-1.4c0.3-0.5,0.9-0.6,1.4-0.4
												L62.2,54c0.6,0.3,1.7,0.3,2.3,0l41.8-24.3l0.1-0.1l-0.1-0.1L65.8,6.3c-0.6-0.3-1.7-0.3-2.3,0c-0.5,0.3-1.1,0.1-1.4-0.4
												c-0.3-0.5-0.1-1.1,0.4-1.4c1.2-0.7,3-0.7,4.3,0l40.5,23.4c0.8,0.4,1.2,1.1,1.2,1.8c0,0.7-0.4,1.4-1.2,1.8L65.5,55.8
												C64.9,56.2,64.1,56.4,63.3,56.4z"/>
										</g>
									</g>
									<path class="st6" d="M28,43.4c-0.6,0-1-0.4-1-1v-6.9c0-0.6,0.4-1,1-1s1,0.4,1,1v6.9C29,43,28.6,43.4,28,43.4z"/>
									<path class="st7" d="M66.3,5.4c-0.9-0.5-2.4-0.5-3.3,0L21.2,29.7c-0.9,0.5-0.9,1.4,0,1.9l6.8,3.9L73,9.3L66.3,5.4z"/>
									<path class="st6" d="M28,36.5c-0.2,0-0.3,0-0.5-0.1l-6.8-3.9c-0.7-0.4-1.2-1.1-1.2-1.8c0-0.7,0.4-1.4,1.2-1.8L62.6,4.5
										c1.2-0.7,3-0.7,4.3,0l6.7,3.9c0.3,0.2,0.5,0.5,0.5,0.9s-0.2,0.7-0.5,0.9l-45,26.2C28.4,36.5,28.2,36.5,28,36.5z M21.6,30.6
										l0.1,0.1l6.3,3.6L71,9.2l-5.3-3l0,0c-0.6-0.3-1.7-0.3-2.3,0L21.7,30.6C21.7,30.6,21.7,30.6,21.6,30.6z"/>
									<g>
										<path class="st2" d="M36.9,25.8c-0.6-0.4-0.6-1,0-1.3c0.6-0.4,1.7-0.4,2.3,0s0.6,1,0,1.3C38.6,26.1,37.6,26.1,36.9,25.8z"
											/>
									</g>
									<g>
										<path class="st2" d="M32.3,28.4c-0.6-0.4-0.6-1,0-1.3c0.6-0.4,1.7-0.4,2.3,0s0.6,1,0,1.3C34,28.8,32.9,28.8,32.3,28.4z"/>
									</g>
									<g>
										<path class="st2" d="M27.7,31.1c-0.6-0.4-0.6-1,0-1.3c0.6-0.4,1.7-0.4,2.3,0c0.6,0.4,0.6,1,0,1.3
											C29.3,31.5,28.3,31.5,27.7,31.1z"/>
									</g>
									<path class="st2" d="M63.3,63.3c-0.8,0-1.5-0.2-2.1-0.5L20.7,39.4c-0.8-0.4-1.2-1.1-1.2-1.8v-6.9l0,0
										c0-0.7,0.4-1.3,1.2-1.8L62.6,4.5c1.2-0.7,3-0.7,4.3,0l40.5,23.4l0,0c0.7,0.4,1.2,1.1,1.2,1.8l0,0v6.9
										c0,0.7-0.4,1.4-1.2,1.8L65.5,62.7C64.9,63.1,64.1,63.3,63.3,63.3z M21.6,37.5c0,0,0.1,0,0.2,0.1L62.2,61
										c0.6,0.3,1.7,0.3,2.3,0l41.8-24.3c0.1-0.1,0.2-0.1,0.2-0.2v-6.8l0,0c0,0-0.1,0-0.2-0.1l0,0L65.8,6.3
										c-0.6-0.3-1.7-0.3-2.3,0L21.7,30.6c-0.1,0.1-0.1,0.1-0.2,0.1L21.6,37.5L21.6,37.5z"/>
								</g>
								<g>
									<path class="st6" d="M60.1,29.9c-0.2,0-0.3-0.1-0.4-0.3c-0.1-0.2-0.1-0.5,0.2-0.7l11.8-6.8c0.2-0.1,0.5-0.1,0.7,0.2
										c0.1,0.2,0.1,0.5-0.2,0.7l-11.8,6.8C60.2,29.9,60.1,29.9,60.1,29.9z"/>
									<path class="st6" d="M71.9,36.7c-0.1,0-0.2,0-0.2-0.1l-11.8-6.8c-0.2-0.1-0.3-0.4-0.2-0.7c0.1-0.2,0.4-0.3,0.7-0.2
										l11.8,6.8c0.2,0.1,0.3,0.4,0.2,0.7C72.2,36.6,72,36.7,71.9,36.7z"/>
									<path class="st6" d="M71.9,36.7c-0.2,0-0.3-0.1-0.4-0.3s-0.1-0.5,0.2-0.7L83.4,29c0.2-0.1,0.5-0.1,0.7,0.2
										c0.1,0.2,0.1,0.5-0.2,0.7l-11.8,6.8C72,36.7,72,36.7,71.9,36.7z"/>
									<path class="st6" d="M83.7,29.9c-0.1,0-0.2,0-0.2-0.1L71.6,23c-0.2-0.1-0.3-0.4-0.2-0.7c0.1-0.2,0.4-0.3,0.7-0.2L83.9,29
										c0.2,0.1,0.3,0.4,0.2,0.7C84,29.8,83.8,29.9,83.7,29.9z"/>
									<polygon class="st4" points="90.6,29.4 83.7,25.4 76.7,29.4 76.7,29.4 83.7,33.4 									"/>
									<polygon class="st4" points="78.8,22.6 71.9,18.6 64.9,22.6 64.9,22.6 71.9,26.6 									"/>
									<polygon class="st4" points="78.8,36.2 71.9,32.2 64.9,36.2 64.9,36.2 71.9,40.2 									"/>
									<polygon class="st4" points="67,29.4 60.1,25.4 53.1,29.4 53.1,29.4 60.1,33.4 									"/>
									<path class="st6" d="M55.3,39.4c-0.2,0-0.3-0.1-0.4-0.3c-0.1-0.2-0.1-0.5,0.2-0.7l10.2-5.9c0.2-0.1,0.5-0.1,0.7,0.2
										c0.1,0.2,0.1,0.5-0.2,0.7l-10.2,5.9C55.5,39.4,55.4,39.4,55.3,39.4z"/>
									<polygon class="st6" points="62.3,38.9 55.3,34.9 48.4,38.9 48.4,38.9 55.3,43 									"/>
								</g>
							</g>
						</g>
					</g>
				</g>
			</g>
		</g>
	</g>
	<g>
		<rect class="st0" width="128" height="128"/>
	</g>
</g>
</svg>
