<?xml version="1.0" encoding="utf-8"?>
<!-- Generator: Adobe Illustrator 24.1.0, SVG Export Plug-In . SVG Version: 6.00 Build 0)  -->
<svg version="1.1" id="Layer_1" xmlns="http://www.w3.org/2000/svg" xmlns:xlink="http://www.w3.org/1999/xlink" x="0px" y="0px"
	 viewBox="0 0 128 128" style="enable-background:new 0 0 128 128;" xml:space="preserve">
<style type="text/css">
	.st0{fill:#185849;}
	.st1{fill:#E9EBDF;}
	.st2{fill:#0E352C;}
	.st3{fill:#FFFFFF;}
	.st4{fill:#C4D7D3;}
	.st5{fill:#4D9987;}
	.st6{fill:none;}
</style>
<g id="Layer_1_1_">
</g>
<g>
	<g id="Layer_2_1_">
		<g id="Objects_1_">
			<g>
				<g>
					<g>
						<g>
							<g>
								<g>
									<path class="st0" d="M55.8,99.6c-0.3,0-0.5-0.1-0.7-0.3c-0.2-0.2-0.3-0.4-0.3-0.7c0-0.3,0.1-0.5,0.3-0.7
										c0.4-0.4,1-0.4,1.4,0c0.2,0.2,0.3,0.4,0.3,0.7c0,0.3-0.1,0.5-0.3,0.7C56.3,99.5,56.1,99.6,55.8,99.6z"/>
									<path class="st0" d="M54.8,116.9c0-0.6,0.5-1,1-1l0,0c0.5,0,1,0.4,1,1l0,0c0,0.6-0.5,1-1,1l0,0
										C55.3,117.9,54.8,117.4,54.8,116.9z M54.8,110.8c0-0.6,0.5-1,1-1l0,0c0.5,0,1,0.5,1,1l0,0c0,0.6-0.5,1-1,1l0,0
										C55.3,111.8,54.8,111.3,54.8,110.8z M54.8,104.7c0-0.6,0.5-1,1-1l0,0c0.5,0,1,0.4,1,1l0,0c0,0.6-0.5,1-1,1l0,0
										C55.3,105.7,54.8,105.2,54.8,104.7z"/>
									<path class="st0" d="M55.8,124c-0.3,0-0.5-0.1-0.7-0.3c-0.2-0.2-0.3-0.4-0.3-0.7c0-0.3,0.1-0.5,0.3-0.7
										c0.4-0.4,1-0.4,1.4,0c0.2,0.2,0.3,0.4,0.3,0.7c0,0.3-0.1,0.5-0.3,0.7C56.3,123.9,56.1,124,55.8,124z"/>
									<path class="st0" d="M50.3,121c-0.5-0.3-0.6-0.9-0.4-1.4l0,0c0.3-0.5,0.9-0.6,1.4-0.4l0,0c0.5,0.3,0.6,0.9,0.4,1.4l0,0
										c-0.2,0.3-0.5,0.5-0.9,0.5l0,0C50.7,121.1,50.5,121.1,50.3,121z M45.3,118.1c-0.5-0.3-0.6-0.9-0.4-1.4l0,0
										c0.3-0.5,0.9-0.6,1.4-0.4l0,0c0.5,0.3,0.6,0.9,0.4,1.4l0,0c-0.2,0.3-0.5,0.5-0.9,0.5l0,0C45.7,118.2,45.5,118.2,45.3,118.1
										z M40.4,115.2c-0.5-0.3-0.6-0.9-0.4-1.4l0,0c0.3-0.5,0.9-0.6,1.4-0.4l0,0c0.5,0.3,0.6,0.9,0.4,1.4l0,0
										c-0.2,0.3-0.5,0.5-0.9,0.5l0,0C40.7,115.4,40.5,115.3,40.4,115.2z M35.4,112.4c-0.5-0.3-0.6-0.9-0.4-1.4l0,0
										c0.3-0.5,0.9-0.7,1.4-0.4l0,0c0.5,0.3,0.6,0.9,0.4,1.4l0,0c-0.2,0.3-0.5,0.5-0.9,0.5l0,0C35.7,112.5,35.5,112.4,35.4,112.4
										z M30.4,109.5c-0.5-0.3-0.6-0.9-0.4-1.4l0,0c0.3-0.5,0.9-0.6,1.4-0.4l0,0c0.5,0.3,0.6,0.9,0.4,1.4l0,0
										c-0.2,0.3-0.5,0.5-0.9,0.5l0,0C30.7,109.6,30.5,109.6,30.4,109.5z M25.4,106.6c-0.5-0.3-0.6-0.9-0.4-1.4l0,0
										c0.3-0.5,0.9-0.6,1.4-0.4l0,0c0.5,0.3,0.6,0.9,0.4,1.4l0,0c-0.2,0.3-0.5,0.5-0.9,0.5l0,0C25.7,106.7,25.6,106.7,25.4,106.6
										z M20.4,103.7c-0.5-0.3-0.6-0.9-0.4-1.4l0,0c0.3-0.5,0.9-0.7,1.4-0.4l0,0c0.5,0.3,0.6,0.9,0.4,1.4l0,0
										c-0.2,0.3-0.5,0.5-0.9,0.5l0,0C20.8,103.9,20.6,103.8,20.4,103.7z M15.4,100.8c-0.5-0.3-0.6-0.9-0.4-1.4l0,0
										c0.3-0.5,0.9-0.6,1.4-0.4l0,0c0.5,0.3,0.7,0.9,0.4,1.4l0,0c-0.2,0.3-0.5,0.5-0.9,0.5l0,0C15.8,101,15.6,100.9,15.4,100.8z
										 M10.5,98c-0.5-0.3-0.6-0.9-0.4-1.4l0,0c0.3-0.5,0.9-0.6,1.4-0.4l0,0c0.5,0.3,0.6,0.9,0.4,1.4l0,0
										c-0.2,0.3-0.5,0.5-0.9,0.5l0,0C10.8,98.1,10.6,98.1,10.5,98z"/>
									<path class="st0" d="M6,95.2c-0.1,0-0.1,0-0.2,0s-0.1,0-0.2-0.1c-0.1,0-0.1-0.1-0.2-0.1c0,0-0.1-0.1-0.2-0.1
										C5.1,94.8,5,94.5,5,94.2c0-0.1,0-0.3,0.1-0.4c0-0.1,0.1-0.2,0.2-0.3c0.2-0.2,0.6-0.3,0.9-0.3c0.1,0,0.1,0,0.2,0.1
										c0.1,0,0.1,0.1,0.2,0.1s0.1,0.1,0.1,0.1c0.1,0.1,0.2,0.2,0.2,0.3C6.9,94,7,94.1,7,94.2c0,0.3-0.1,0.5-0.3,0.7
										C6.7,95,6.6,95,6.6,95c-0.1,0-0.1,0.1-0.2,0.1s-0.1,0-0.2,0.1C6.1,95.2,6,95.2,6,95.2z"/>
									<path class="st0" d="M5,88.6c0-0.5,0.5-1,1-1l0,0c0.6,0,1,0.5,1,1l0,0c0,0.6-0.4,1-1,1l0,0C5.4,89.6,5,89.1,5,88.6z
										 M5,82.9c0-0.6,0.5-1,1-1l0,0c0.6,0,1,0.4,1,1l0,0c0,0.6-0.4,1-1,1l0,0C5.4,83.9,5,83.5,5,82.9z M5,77.2c0-0.6,0.5-1,1-1
										l0,0c0.6,0,1,0.4,1,1l0,0c0,0.5-0.4,1-1,1l0,0C5.4,78.2,5,77.8,5,77.2z M5,71.6c0-0.5,0.5-1,1-1l0,0c0.6,0,1,0.5,1,1l0,0
										c0,0.6-0.4,1-1,1l0,0C5.4,72.6,5,72.1,5,71.6z M5,65.9c0-0.6,0.5-1,1-1l0,0c0.6,0,1,0.4,1,1l0,0c0,0.6-0.4,1-1,1l0,0
										C5.4,66.9,5,66.5,5,65.9z M5,60.2c0-0.6,0.5-1,1-1l0,0c0.6,0,1,0.4,1,1l0,0c0,0.5-0.4,1-1,1l0,0C5.4,61.2,5,60.8,5,60.2z
										 M5,54.6c0-0.5,0.5-1,1-1l0,0c0.6,0,1,0.5,1,1l0,0c0,0.6-0.4,1-1,1l0,0C5.4,55.6,5,55.1,5,54.6z M5,48.9c0-0.6,0.5-1,1-1
										l0,0c0.6,0,1,0.4,1,1l0,0c0,0.6-0.4,1-1,1l0,0C5.4,49.9,5,49.5,5,48.9z"/>
									<path class="st0" d="M6,44.2c-0.1,0-0.1,0-0.2,0s-0.1,0-0.2-0.1c-0.1,0-0.1,0-0.2-0.1c0,0-0.1-0.1-0.2-0.1
										C5.1,43.8,5,43.5,5,43.2c0-0.1,0-0.3,0.1-0.4c0-0.1,0.1-0.2,0.2-0.3c0.4-0.4,1.1-0.4,1.4,0c0.1,0.1,0.2,0.2,0.2,0.3
										C6.9,43,7,43.1,7,43.2c0,0.3-0.1,0.5-0.3,0.7L6.6,44c-0.1,0-0.1,0.1-0.2,0.1s-0.1,0.1-0.2,0.1C6.1,44.2,6,44.2,6,44.2z"/>
									<path class="st0" d="M27.2,56.7c-0.5-0.3-0.6-0.9-0.4-1.4l0,0c0.3-0.5,0.9-0.6,1.4-0.4l0,0c0.5,0.3,0.6,0.9,0.4,1.4l0,0
										c-0.2,0.3-0.5,0.5-0.9,0.5l0,0C27.5,56.8,27.4,56.7,27.2,56.7z M21.8,53.5c-0.5-0.3-0.6-0.9-0.4-1.4l0,0
										c0.3-0.5,0.9-0.6,1.4-0.4l0,0c0.5,0.3,0.6,0.9,0.4,1.4l0,0c-0.2,0.3-0.5,0.5-0.9,0.5l0,0C22.1,53.7,21.9,53.6,21.8,53.5z
										 M16.3,50.4c-0.5-0.3-0.6-0.9-0.4-1.4l0,0c0.3-0.5,0.9-0.6,1.4-0.4l0,0c0.5,0.3,0.6,0.9,0.4,1.4l0,0
										c-0.2,0.3-0.5,0.5-0.9,0.5l0,0C16.7,50.5,16.5,50.5,16.3,50.4z M10.9,47.2c-0.5-0.3-0.7-0.9-0.4-1.4l0,0
										c0.3-0.5,0.9-0.6,1.4-0.4l0,0c0.5,0.3,0.6,0.9,0.4,1.4l0,0c-0.2,0.3-0.5,0.5-0.9,0.5l0,0C11.2,47.4,11.1,47.3,10.9,47.2z"
										/>
									<path class="st0" d="M33.2,59.9c-0.3,0-0.5-0.1-0.7-0.3c0,0-0.1-0.1-0.1-0.2c0-0.1-0.1-0.1-0.1-0.2c0-0.1,0-0.1-0.1-0.2
										c0-0.1,0-0.1,0-0.2c0-0.1,0-0.3,0.1-0.4c0-0.1,0.1-0.2,0.2-0.3c0-0.1,0.1-0.1,0.1-0.1c0.1,0,0.1-0.1,0.2-0.1
										c0.1,0,0.1,0,0.2-0.1c0.2,0,0.4,0,0.6,0.1c0.1,0,0.2,0.1,0.3,0.2s0.2,0.2,0.2,0.3s0.1,0.2,0.1,0.4c0,0.3-0.1,0.5-0.3,0.7
										c-0.1,0.1-0.2,0.2-0.3,0.2C33.4,59.9,33.3,59.9,33.2,59.9z"/>
								</g>
								<g>
									<path class="st0" d="M72.2,33.9c-0.3,0-0.5-0.1-0.7-0.3s-0.3-0.4-0.3-0.7s0.1-0.5,0.3-0.7c0.1-0.1,0.2-0.2,0.3-0.2
										c0.1,0,0.1,0,0.2-0.1c0.3-0.1,0.7,0,0.9,0.3c0.2,0.2,0.3,0.4,0.3,0.7s-0.1,0.5-0.3,0.7C72.7,33.8,72.5,33.9,72.2,33.9z"/>
									<path class="st0" d="M71.2,27.3c0-0.6,0.4-1,1-1l0,0c0.5,0,1,0.4,1,1l0,0c0,0.6-0.5,1-1,1l0,0
										C71.6,28.3,71.2,27.9,71.2,27.3z M71.2,21.7c0-0.6,0.4-1,1-1l0,0c0.5,0,1,0.4,1,1l0,0c0,0.5-0.5,1-1,1l0,0
										C71.6,22.7,71.2,22.3,71.2,21.7z M71.2,16.2c0-0.6,0.4-1,1-1l0,0c0.5,0,1,0.4,1,1l0,0c0,0.6-0.5,1-1,1l0,0
										C71.6,17.2,71.2,16.7,71.2,16.2z M71.2,10.6c0-0.6,0.4-1,1-1l0,0c0.5,0,1,0.4,1,1l0,0c0,0.6-0.5,1-1,1l0,0
										C71.6,11.6,71.2,11.1,71.2,10.6z"/>
									<path class="st0" d="M72.2,6c-0.3,0-0.5-0.1-0.7-0.3c-0.2-0.2-0.3-0.4-0.3-0.7c0-0.3,0.1-0.5,0.3-0.7c0.4-0.4,1-0.4,1.4,0
										c0.2,0.2,0.3,0.4,0.3,0.7c0,0.3-0.1,0.5-0.3,0.7C72.7,5.9,72.5,6,72.2,6z"/>
									<path class="st0" d="M116.5,31.8c-0.5-0.3-0.6-0.9-0.4-1.4l0,0c0.3-0.5,0.9-0.6,1.4-0.4l0,0c0.5,0.3,0.6,0.9,0.4,1.4l0,0
										c-0.2,0.3-0.5,0.5-0.9,0.5l0,0C116.9,31.9,116.7,31.9,116.5,31.8z M111.6,28.9c-0.5-0.3-0.7-0.9-0.4-1.4l0,0
										c0.3-0.5,0.9-0.6,1.4-0.4l0,0c0.5,0.3,0.6,0.9,0.4,1.4l0,0c-0.2,0.3-0.5,0.5-0.9,0.5l0,0C111.9,29,111.7,29,111.6,28.9z
										 M106.6,26c-0.5-0.3-0.6-0.9-0.4-1.4l0,0c0.3-0.5,0.9-0.7,1.4-0.4l0,0c0.5,0.3,0.6,0.9,0.4,1.4l0,0
										c-0.2,0.3-0.5,0.5-0.9,0.5l0,0C106.9,26.1,106.7,26.1,106.6,26z M101.6,23.1c-0.5-0.3-0.6-0.9-0.4-1.4l0,0
										c0.3-0.5,0.9-0.6,1.4-0.4l0,0c0.5,0.3,0.6,0.9,0.4,1.4l0,0c-0.2,0.3-0.5,0.5-0.9,0.5l0,0C101.9,23.3,101.8,23.2,101.6,23.1
										z M96.6,20.3c-0.5-0.3-0.7-0.9-0.4-1.4l0,0c0.3-0.5,0.9-0.6,1.4-0.4l0,0c0.5,0.3,0.6,0.9,0.4,1.4l0,0
										c-0.2,0.3-0.5,0.5-0.9,0.5l0,0C96.9,20.4,96.8,20.3,96.6,20.3z M91.6,17.4c-0.5-0.3-0.6-0.9-0.4-1.4l0,0
										c0.3-0.5,0.9-0.6,1.4-0.4l0,0c0.5,0.3,0.6,0.9,0.4,1.4l0,0c-0.2,0.3-0.5,0.5-0.9,0.5l0,0C92,17.5,91.8,17.5,91.6,17.4z
										 M86.6,14.5c-0.5-0.3-0.6-0.9-0.4-1.4l0,0c0.3-0.5,0.9-0.7,1.4-0.4l0,0c0.5,0.3,0.6,0.9,0.4,1.4l0,0
										c-0.2,0.3-0.5,0.5-0.9,0.5l0,0C87,14.6,86.8,14.6,86.6,14.5z M81.7,11.6c-0.5-0.3-0.7-0.9-0.4-1.4l0,0
										c0.3-0.5,0.9-0.6,1.4-0.4l0,0c0.5,0.3,0.6,0.9,0.4,1.4l0,0c-0.2,0.3-0.5,0.5-0.9,0.5l0,0C82,11.8,81.8,11.7,81.7,11.6z
										 M76.7,8.7c-0.5-0.3-0.6-0.9-0.4-1.4l0,0c0.3-0.5,0.9-0.6,1.4-0.4l0,0c0.5,0.3,0.7,0.9,0.4,1.4l0,0
										c-0.2,0.3-0.5,0.5-0.9,0.5l0,0C77,8.9,76.8,8.8,76.7,8.7z"/>
									<path class="st0" d="M122,34.8c-0.3,0-0.5-0.1-0.7-0.3c-0.1-0.1-0.2-0.2-0.2-0.3S121,34,121,33.8c0-0.1,0-0.3,0.1-0.4
										c0.1-0.1,0.1-0.2,0.2-0.3s0.2-0.2,0.3-0.2c0.4-0.2,0.8-0.1,1.1,0.2c0.1,0.1,0.2,0.2,0.2,0.3s0.1,0.2,0.1,0.4
										c0,0.1,0,0.3-0.1,0.4s-0.1,0.2-0.2,0.3c-0.1,0-0.1,0.1-0.2,0.1s-0.1,0.1-0.2,0.1s-0.1,0-0.2,0.1
										C122.2,34.8,122.1,34.8,122,34.8z"/>
									<path class="st0" d="M121,79.1c0-0.6,0.4-1,1-1l0,0c0.5,0,1,0.4,1,1l0,0c0,0.5-0.5,1-1,1l0,0C121.5,80.1,121,79.7,121,79.1
										z M121,73.4c0-0.5,0.4-1,1-1l0,0c0.5,0,1,0.5,1,1l0,0c0,0.6-0.5,1-1,1l0,0C121.5,74.4,121,74,121,73.4z M121,67.8
										c0-0.6,0.4-1,1-1l0,0c0.5,0,1,0.4,1,1l0,0c0,0.6-0.5,1-1,1l0,0C121.5,68.8,121,68.3,121,67.8z M121,62.1c0-0.6,0.4-1,1-1
										l0,0c0.5,0,1,0.4,1,1l0,0c0,0.5-0.5,1-1,1l0,0C121.5,63.1,121,62.7,121,62.1z M121,56.4c0-0.5,0.4-1,1-1l0,0
										c0.5,0,1,0.5,1,1l0,0c0,0.6-0.5,1-1,1l0,0C121.5,57.4,121,57,121,56.4z M121,50.8c0-0.6,0.4-1,1-1l0,0c0.5,0,1,0.4,1,1l0,0
										c0,0.6-0.5,1-1,1l0,0C121.5,51.8,121,51.3,121,50.8z M121,45.1c0-0.6,0.4-1,1-1l0,0c0.5,0,1,0.4,1,1l0,0c0,0.5-0.5,1-1,1
										l0,0C121.5,46.1,121,45.7,121,45.1z M121,39.4c0-0.5,0.4-1,1-1l0,0c0.5,0,1,0.5,1,1l0,0c0,0.6-0.5,1-1,1l0,0
										C121.5,40.4,121,40,121,39.4z"/>
									<path class="st0" d="M122,85.8c-0.1,0-0.3,0-0.4-0.1c-0.1,0-0.2-0.1-0.3-0.2c-0.1-0.1-0.2-0.2-0.2-0.3
										c0-0.1-0.1-0.2-0.1-0.4s0-0.3,0.1-0.4s0.1-0.2,0.2-0.3c0.2-0.2,0.6-0.3,0.9-0.3c0.1,0,0.1,0,0.2,0.1c0.1,0,0.1,0.1,0.2,0.1
										c0,0,0.1,0.1,0.2,0.1c0.1,0.1,0.2,0.2,0.2,0.3s0.1,0.2,0.1,0.4s0,0.3-0.1,0.4c0,0.1-0.1,0.2-0.2,0.3
										c-0.1,0-0.1,0.1-0.2,0.1s-0.1,0.1-0.2,0.1s-0.1,0.1-0.2,0.1C122.2,85.8,122.1,85.8,122,85.8z"/>
									<path class="st0" d="M116.3,82.6c-0.5-0.3-0.7-0.9-0.4-1.4l0,0c0.3-0.5,0.9-0.7,1.4-0.4l0,0c0.5,0.3,0.6,0.9,0.4,1.4l0,0
										c-0.2,0.3-0.5,0.5-0.9,0.5l0,0C116.6,82.7,116.4,82.7,116.3,82.6z M111,79.5c-0.5-0.3-0.6-0.9-0.4-1.4l0,0
										c0.3-0.5,0.9-0.6,1.4-0.4l0,0c0.5,0.3,0.6,0.9,0.4,1.4l0,0c-0.2,0.3-0.5,0.5-0.9,0.5l0,0C111.3,79.7,111.1,79.6,111,79.5z
										 M105.7,76.5c-0.5-0.3-0.6-0.9-0.4-1.4l0,0c0.3-0.5,0.9-0.6,1.4-0.4l0,0c0.5,0.3,0.6,0.9,0.4,1.4l0,0
										c-0.2,0.3-0.5,0.5-0.9,0.5l0,0C106,76.6,105.9,76.6,105.7,76.5z"/>
									<path class="st0" d="M100.9,73.6c-0.3,0-0.5-0.1-0.7-0.3c-0.2-0.2-0.3-0.4-0.3-0.7c0-0.3,0.1-0.5,0.3-0.7
										c0.4-0.4,1-0.4,1.4,0c0.2,0.2,0.3,0.4,0.3,0.7c0,0.3-0.1,0.5-0.3,0.7C101.4,73.5,101.2,73.6,100.9,73.6z"/>
								</g>
								<g>
									<g>
										<g>
											<g>
												<path class="st1" d="M35.5,55.4l-0.8-3c-0.2-0.8,0.4-1.8,1.2-2.2l0.4-0.2c0.9-0.4,1.7-0.1,1.9,0.8l0.8,3
													c0.2,0.8-0.4,1.8-1.2,2.2l-0.4,0.2C36.6,56.5,35.7,56.2,35.5,55.4z"/>
												<path class="st2" d="M36.7,57.3c-0.4,0-0.7-0.1-1-0.2c-0.6-0.3-1-0.8-1.1-1.5l-0.8-3c-0.3-1.3,0.5-2.8,1.8-3.4L36,49
													c0.7-0.3,1.5-0.3,2.1,0s1,0.8,1.2,1.5l0.8,3c0.3,1.3-0.5,2.8-1.8,3.4L37.8,57C37.5,57.2,37.1,57.3,36.7,57.3z M37,50.8
													c-0.1,0-0.2,0-0.3,0.1l-0.4,0.2c-0.5,0.2-0.7,0.7-0.7,1.1l0.8,3l0,0c0,0.1,0.1,0.1,0.1,0.1c0.1,0,0.2,0,0.4,0l0.4-0.2
													c0.5-0.2,0.7-0.7,0.7-1.1l-0.8-3c0-0.1-0.1-0.2-0.1-0.2C37.1,50.8,37.1,50.8,37,50.8z"/>
											</g>
											<g>
												<path class="st3" d="M99.6,68.9l4.7-2.5c0,0,9.2-1.2,9.2-14.5s-13.1-15.2-13.1-15.2l-7.5-3.5l-11.6,4.6"/>
												<path class="st4" d="M99.6,69.9c-0.4,0-0.7-0.2-0.9-0.5c-0.3-0.5-0.1-1.1,0.4-1.4l4.7-2.5c0.1-0.1,0.2-0.1,0.4-0.1
													c0.3,0,8.4-1.3,8.4-13.5c0-12.3-11.8-14.2-12.3-14.2c-0.1,0-0.2,0-0.3-0.1l-7.1-3.3l-11.2,4.4c-0.5,0.2-1.1,0-1.3-0.6
													c-0.2-0.5,0-1.1,0.6-1.3l11.6-4.6c0.3-0.1,0.5-0.1,0.8,0l7.4,3.4c1.5,0.3,13.8,3,13.8,16.2c0,12.9-8.4,15.1-9.9,15.4
													l-4.5,2.4C99.9,69.9,99.7,69.9,99.6,69.9z"/>
											</g>
											<path class="st3" d="M109.9,46.8c2.8-3.5-1.2-9.3-8.7-13.4s-16.3-4.3-21.6-1.3"/>
											<g>
												<path class="st3" d="M98,46.8c8.9,2.4,13.1-2.5,12.6-4.2"/>
												<path class="st5" d="M102.6,48.4c-1.4,0-3-0.2-4.9-0.7c-0.5-0.1-0.9-0.7-0.7-1.2c0.1-0.5,0.7-0.9,1.2-0.7
													c6.4,1.7,9.6-0.6,10.4-1.4c0.8-0.7,1-1.4,0.9-1.5c-0.2-0.5,0.1-1.1,0.6-1.3s1.1,0.1,1.3,0.6c0.3,1-0.1,2.2-1.2,3.3
													C109.6,46.4,107.2,48.4,102.6,48.4z"/>
											</g>
											<path class="st1" d="M110.5,42.6c-0.9-3-4.4-6.5-9.3-9.2c-7-3.8-15.1-4.3-20.5-1.8c-1.3,0-2.6,0-3.9,0.3
												C66.6,33.7,55.2,39,44.9,47.3v0.1c-4.5,3.7-8.8,8-12.8,12.8C21.7,66.6,15,71.4,15,81.9c0,0-2.7,7.6,3,10.1l2,0.3l9,5
												l0.6,1.5c7.9,4.6,18.3,1.7,21.9-1.8l5.7-3.7l42.4-24.5l0,0l4.7-2.5c0,0,9.2-1.2,9.2-14.5
												C113.5,47.8,112.2,44.8,110.5,42.6z"/>
											<path class="st3" d="M97.2,39.2c-0.2,0-0.4,0-0.5-0.2c-2.6-1.6-5.4-3.2-8.3-4.6c-3.6-1.8-7.6-2.4-11.4-1.7
												c-0.5,0.1-1.1-0.3-1.2-0.8s0.3-1.1,0.8-1.2c4.2-0.8,8.6-0.1,12.6,1.8c3,1.5,5.9,3,8.5,4.7c0.5,0.3,0.6,0.9,0.3,1.4
												C97.9,39.1,97.6,39.2,97.2,39.2z"/>
											<path class="st5" d="M110.5,42.6c0.6,1.7-3.6,6.5-12.6,4.2L70.3,64.5l-14.6,6.6l2,5.5c-6.2,1.7-18.4,5.6-23.4,10.4
												l-0.2,0.3l4.5,1.5v3.9c0,3.5-3.4,5.9-6.7,4.8c-1.7-0.6-2.8-1.1-2.8-1.1l0.6,2.3c4.1,2.4,8.8,2.8,12.9,2.1c0,0,0,0,0.1,0
												c0.3-0.1,0.6-0.1,0.9-0.2h0.1c0.3-0.1,0.6-0.1,0.9-0.2c0.3-0.1,0.6-0.2,0.9-0.2h0.1c0.3-0.1,0.6-0.2,0.9-0.3l0,0
												c2.2-0.8,4-1.8,5.1-2.9l5.7-3.7l42.4-24.5l4.7-2.5c0,0,9.2-1.2,9.2-14.5C113.5,47.8,112.2,44.8,110.5,42.6z"/>
											<path class="st2" d="M92.7,73.8c-0.5,0-0.9-0.4-1-0.8c-0.1-0.7-0.2-1.5-0.2-2.3c0-0.6,0.4-1,1-1s1,0.4,1,1
												c0,0.7,0.1,1.3,0.2,2c0.1,0.5-0.3,1.1-0.8,1.1C92.8,73.8,92.8,73.8,92.7,73.8z"/>
											<path class="st1" d="M108.5,56.2c-0.3,0-0.6-0.1-0.8-0.4c-0.3-0.4-0.2-1.1,0.2-1.4c0.2-0.2,5.7-4.2,3.2-8.9
												c-0.3-0.5-0.1-1.1,0.4-1.3c0.5-0.3,1.1-0.1,1.3,0.4c2.6,5-1.3,9.7-3.8,11.5C108.9,56.2,108.7,56.2,108.5,56.2z"/>
											<path class="st1" d="M32.5,86c-1.6,1.9-2.8,3.8-3.1,5.8c0,0,13.1,8.6,20.7-5.9c0.5-1-0.3-2.2-1.2-1.9
												C44.4,85.8,38.4,86.7,32.5,86L32.5,86z"/>
											<path class="st5" d="M102.6,48.4c-1.4,0-3-0.2-4.9-0.7c-0.5-0.1-0.9-0.7-0.7-1.2c0.1-0.5,0.7-0.9,1.2-0.7
												c6.5,1.7,9.6-0.6,10.4-1.4c0.8-0.7,1-1.4,0.9-1.5c-0.2-0.5,0.1-1.1,0.6-1.3s1.1,0.1,1.3,0.6c0.3,1-0.1,2.2-1.2,3.3
												C109.6,46.4,107.2,48.4,102.6,48.4z"/>
											<path class="st3" d="M19.8,80.3c-0.1,0-0.2,0-0.3,0c-0.5-0.2-0.8-0.7-0.7-1.2c2-7,6.1-13.1,13.1-19.8
												c0.4-0.4,1-0.4,1.4,0c0.4,0.4,0.4,1,0,1.4C26.5,67.1,22.6,73,20.7,79.6C20.6,80,20.2,80.3,19.8,80.3z"/>
											<path class="st3" d="M34.3,88c-0.3,0-0.5-0.1-0.7-0.3c-0.4-0.4-0.4-1,0-1.4c6-5.7,20.9-9.9,23.8-10.7
												c0.5-0.1,1.1,0.2,1.2,0.7c0.1,0.5-0.2,1.1-0.7,1.2c-7.9,2.1-18.6,6-23,10.2C34.8,87.9,34.5,88,34.3,88z"/>
											<g>
												<path class="st1" d="M30,86.2c-1.4-0.4-2.8-1-4-1.7c-1.3-0.8-2.5-1.5-3.4-2.3"/>
												<path class="st5" d="M30,87.2c-0.1,0-0.2,0-0.3,0c-1.6-0.4-3-1-4.2-1.8c-1.4-0.8-2.6-1.6-3.5-2.4
													c-0.4-0.3-0.5-1-0.2-1.4s1-0.5,1.4-0.2c0.9,0.7,2,1.4,3.3,2.2c1.1,0.6,2.4,1.2,3.8,1.6c0.5,0.2,0.8,0.7,0.7,1.2
													C30.8,87,30.4,87.2,30,87.2z"/>
											</g>
											<path class="st2" d="M81.9,80.1c-0.1,0-0.2,0-0.2,0c-0.5-0.1-0.9-0.7-0.7-1.2c0.4-1.8,0.6-4.9,0.5-8.1c0-0.6,0.4-1,1-1
												c0.5,0,1,0.4,1,1c0.1,3.4-0.1,6.6-0.6,8.6C82.8,79.8,82.4,80.1,81.9,80.1z"/>
											<g>
												<path class="st3" d="M31.4,61.1c3,2.9,11.1,9.6,26.3,15.5c3.5-7.8,7.4-13.8,11.4-18.4c-0.1,0-12.7-4.9-22.5-12.3
													C41.2,50.2,36,55.2,31.4,61.1z"/>
											</g>
											<path class="st1" d="M57.7,76.6c2.7-6,5.5-10.9,8.5-14.8c-3.5-1.5-9.6-4.4-15.5-8.2c-2.6-1.7-6-1.5-8.3,0.6
												c-3.1,2.7-6,5.7-8.8,8.9C37.7,66.5,45.4,71.8,57.7,76.6z"/>
											<path class="st1" d="M32.6,59.6c-0.4,0.5-0.8,1-1.2,1.6c3,2.9,11.1,9.6,26.3,15.5c0.3-0.6,0.5-1.1,0.8-1.7
												c1-2.1,0.1-4.5-2-5.4C48.2,65.9,42.2,62,38.2,59C36.4,57.7,34,57.9,32.6,59.6z"/>
											<path class="st3" d="M57.7,77.6c-0.1,0-0.2,0-0.4-0.1c-15.4-6-23.8-13-26.6-15.7c-0.4-0.4-0.4-0.9-0.1-1.3
												c0.4-0.5,0.8-1.1,1.3-1.6c1.7-2.1,4.7-2.4,6.9-0.8c5.1,3.8,11.2,7.3,18.1,10.4c1.2,0.6,2.2,1.6,2.7,2.8
												c0.5,1.3,0.4,2.7-0.2,3.9c-0.3,0.5-0.5,1.1-0.8,1.7C58.4,77.4,58.1,77.6,57.7,77.6z M32.7,61c3.2,2.9,10.9,9,24.4,14.3
												c0.1-0.3,0.3-0.6,0.4-0.8c0.4-0.8,0.4-1.6,0.1-2.4c-0.3-0.8-0.9-1.4-1.6-1.7c-7.1-3.2-13.3-6.7-18.5-10.7
												c-1.3-1-3.1-0.8-4.1,0.4l0,0C33.2,60.5,33,60.7,32.7,61z M32.6,59.6L32.6,59.6L32.6,59.6z"/>
											<g>
												<path class="st5" d="M57.7,77.6c-0.1,0-0.2,0-0.4-0.1c-15.4-6-23.8-13-26.6-15.7c-0.4-0.4-0.4-0.9-0.1-1.3
													c4.5-5.7,9.7-10.8,15.4-15.3c0.4-0.3,0.9-0.3,1.2,0c9.5,7.1,21.7,11.9,22.2,12.1c0.3,0.1,0.5,0.4,0.6,0.7s0,0.7-0.2,0.9
													c-4.2,4.7-8,10.8-11.2,18.1C58.4,77.4,58.1,77.6,57.7,77.6z M32.7,61c3.2,2.9,10.9,9,24.4,14.3
													c3-6.6,6.5-12.2,10.2-16.7C64,57.2,54.5,53,46.6,47.3C41.5,51.3,36.8,55.9,32.7,61z"/>
											</g>
											<path class="st1" d="M78.4,71.6l-1.5,0.8c-0.5,0.3-0.8,0-0.8-0.6v-0.1c0-0.6,0.4-1.3,0.8-1.6l1.5-0.8
												c0.5-0.3,0.8,0,0.8,0.6V70C79.2,70.7,78.9,71.4,78.4,71.6z"/>
											<path class="st3" d="M27.4,93.7l-6.9-4c-0.3-0.2-0.6-0.7-0.6-1.2v-2.2c0-0.5,0.3-0.7,0.6-0.5l6.9,4
												C27.7,90,28,90.5,28,91v2.2C28,93.7,27.7,93.9,27.4,93.7z"/>
											<path class="st1" d="M57.7,76.6C68.3,73.8,94,58.3,99.8,49.4c0.6-0.9,0.1-2.2-0.9-2.4C87.6,44.1,70.3,48.4,57.7,76.6z"/>
											<path class="st3" d="M99.7,47.5c-0.2-0.3-0.5-0.5-0.8-0.5c-11.3-2.9-28.6,1.4-41.2,29.6c0,0,0,0,0.1,0
												c3.6-1,6.7-3.5,8.5-6.7C76.9,51.3,89.9,46.6,99.7,47.5z"/>
											<path class="st5" d="M81.3,60.9c-0.5,0-0.9-0.4-1-0.9c-0.8-5.7-2.2-9.6-2.2-9.7c-0.2-0.5,0.1-1.1,0.6-1.3
												s1.1,0.1,1.3,0.6c0.1,0.2,1.5,4.2,2.3,10.1c0.1,0.5-0.3,1.1-0.8,1.1C81.4,60.9,81.3,60.9,81.3,60.9z"/>
											<path class="st5" d="M57.7,77.6c-0.3,0-0.6-0.1-0.8-0.4s-0.3-0.7-0.2-1.1c5.8-13,13-22,21.5-26.9c6.6-3.8,14-5,20.9-3.3
												c0.8,0.2,1.4,0.8,1.8,1.6c0.3,0.8,0.2,1.7-0.2,2.4c-6,9.2-32.3,24.8-42.7,27.6C57.8,77.6,57.8,77.6,57.7,77.6z
												 M92.6,47.2C80,47.2,68,57.1,59.5,75c5.2-1.8,12.9-5.8,20.5-10.5c9.4-5.9,16.4-11.7,19-15.6c0.2-0.2,0.1-0.5,0.1-0.6
												S99,48,98.7,48C96.6,47.4,94.6,47.2,92.6,47.2z"/>
											<g>
												<path class="st1" d="M34.3,87c-1.2,1.1-1.9,2.2-2.2,3.4c0,0,9.2,5,14.5-3.5c0.4-0.6-0.2-1.3-0.8-1.1
													C42.7,86.9,38.5,87.5,34.3,87L34.3,87z"/>
												<path class="st3" d="M38.2,92.9c-3.6,0-6.5-1.5-6.5-1.6c-0.4-0.2-0.6-0.6-0.5-1.1c0.3-1.3,1.1-2.6,2.5-3.9
													c0.2-0.2,0.6-0.3,0.9-0.3c3.7,0.4,7.8-0.1,11-1.1c0.7-0.2,1.5,0,1.9,0.6c0.5,0.6,0.5,1.4,0.1,2
													C44.8,91.8,41.2,92.9,38.2,92.9z M33.3,89.9c2.1,0.9,8,2.7,12.1-2.9c-3.2,0.9-7.1,1.3-10.7,1
													C34,88.7,33.6,89.3,33.3,89.9z"/>
											</g>
											<g>
												<path class="st3" d="M40.1,87c-1.9,0.2-3.8,0.2-5.8,0l0,0c-1.2,1.1-1.9,2.2-2.2,3.4c0,0,0.1,0,0.2,0.1
													c2.3,1.1,5.1,0.2,6.6-1.9C39.3,88.1,39.7,87.6,40.1,87z"/>
												<path class="st3" d="M34.5,91.6c-0.8,0-1.6-0.2-2.3-0.5C32,91,31.9,91,31.9,91c-0.2-0.1-0.3-0.3-0.2-0.5
													c0.2-1.2,1-2.4,2.3-3.7c0.1-0.1,0.3-0.2,0.4-0.1c1.8,0.2,3.7,0.2,5.6,0c0.2,0,0.4,0.1,0.5,0.3c0.1,0.2,0.1,0.4-0.1,0.6
													c-0.4,0.5-0.8,1-1.1,1.6C38.2,90.6,36.4,91.6,34.5,91.6z M32.7,90.2c2.1,0.9,4.5,0.2,5.8-1.8c0.2-0.2,0.3-0.5,0.5-0.7
													c-1.5,0.1-3.1,0.1-4.5-0.1C33.6,88.5,33,89.3,32.7,90.2z"/>
											</g>
											<g>
												<path class="st3" d="M19.8,80.3c-0.2,0-0.4-0.1-0.6-0.2c-0.4-0.3-0.5-0.8-0.3-1.2l0,0c0.2-0.4,0.7-0.7,1.1-0.6
													c0.5,0.1,0.8,0.5,0.8,1c0,0.1,0,0.3-0.1,0.4l0,0c-0.1,0.1-0.1,0.3-0.3,0.3C20.3,80.2,20,80.3,19.8,80.3z M19.8,79.3
													l-0.7-0.8L19.8,79.3z"/>
												<g>
													<path class="st3" d="M18.7,70.7c-1.2,1.5-2.1,3.1-2.7,4.9c-0.5,5.1,3,7.1,3,7.1c0.2-1.2,0.5-2.3,0.8-3.4
														C18.4,77.1,18.1,74.4,18.7,70.7z"/>
													<path class="st3" d="M19,83.7c-0.2,0-0.3,0-0.5-0.1s-4-2.4-3.5-8.1c0-0.1,0-0.2,0.1-0.2c0.6-1.8,1.6-3.5,2.8-5.1
														c0.3-0.4,0.8-0.5,1.2-0.3c0.4,0.2,0.7,0.6,0.6,1.1c-0.6,3.6-0.3,5.9,1,7.9c0.1,0.2,0.2,0.5,0.1,0.8
														c-0.3,1.1-0.6,2.2-0.8,3.3c-0.1,0.3-0.3,0.6-0.6,0.7C19.3,83.7,19.1,83.7,19,83.7z M17,75.8c-0.2,2.5,0.6,4.1,1.4,5
														c0.1-0.5,0.2-0.9,0.3-1.3c-0.8-1.4-1.2-2.9-1.3-4.7C17.3,75.1,17.1,75.4,17,75.8z"/>
												</g>
											</g>
											<path class="st2" d="M39,102.2c-3.3,0-6.8-0.7-9.9-2.6c-0.2-0.1-0.3-0.3-0.4-0.5L28.3,98l-8.5-4.8L17.9,93
												c-0.1,0-0.2,0-0.2-0.1c-5.2-2.2-4.7-8.2-3.7-11.2c0.1-10.7,7-15.8,17.4-22.2c3.8-4.7,8.1-9,12.7-12.8
												c0-0.1,0.1-0.1,0.1-0.1c10-8.2,21.5-13.7,32.4-15.7c1.2-0.2,2.5-0.3,3.9-0.3c5.9-2.6,14.2-1.8,21.1,2
												c5,2.7,8.7,6.3,9.8,9.6c2,2.7,3,6,3,9.8c0,12.9-8.4,15.1-9.9,15.4l-4.5,2.4L57.7,94.2l-5.5,3.6
												C49.5,100.3,44.4,102.2,39,102.2z M30.4,98.1c7.7,4.3,17.3,1.1,20.4-1.8l0.1-0.1l5.7-3.7L99.1,68l4.7-2.5
												c0.1-0.1,0.2-0.1,0.4-0.1c0.3,0,8.4-1.3,8.4-13.5c0-3.4-0.9-6.3-2.7-8.7c-0.1-0.1-0.1-0.2-0.2-0.3
												c-0.9-2.8-4.3-6.1-8.9-8.6c-6.4-3.5-14.3-4.2-19.6-1.8c-0.1,0.1-0.3,0.1-0.4,0.1c-1.3,0-2.5,0-3.7,0.3
												C66.5,34.7,55.4,40.1,45.6,48c0,0.1-0.1,0.1-0.1,0.1c-4.6,3.8-8.9,8-12.6,12.7c-0.1,0.1-0.2,0.2-0.3,0.2
												C22.3,67.5,16,72,16,81.9c0,0.1,0,0.2-0.1,0.3c-0.1,0.3-2.3,6.7,2.4,8.8l1.9,0.3c0.1,0,0.2,0.1,0.3,0.1l9,5
												c0.2,0.1,0.4,0.3,0.4,0.5L30.4,98.1z"/>
											
												<ellipse transform="matrix(0.3916 -0.9201 0.9201 0.3916 -52.1172 106.6099)" class="st5" cx="54.6" cy="92.7" rx="7.9" ry="4.5"/>
											<path class="st2" d="M52.5,101.1c-0.6,0-1.3-0.2-1.8-0.5c-1.4-0.8-2.3-2.7-2.3-5c0-4.2,2.5-8.9,5.6-10.7
												c1.6-0.9,3.1-1,4.4-0.3c1.4,0.8,2.3,2.7,2.3,5c0,4.2-2.5,8.9-5.6,10.7C54.2,100.9,53.3,101.1,52.5,101.1z M56.6,86.2
												c-0.6,0-1.1,0.2-1.5,0.5c-2.5,1.5-4.6,5.5-4.6,8.9c0,1.6,0.5,2.8,1.3,3.3s1.7,0.1,2.4-0.3c2.5-1.4,4.6-5.5,4.6-8.9
												c0-1.6-0.5-2.8-1.3-3.3C57.1,86.3,56.9,86.2,56.6,86.2z"/>
											<path class="st2" d="M63.2,90.9L63.2,90.9c-0.6-0.1-1-0.6-1-1.1c0.1-0.8,0.2-1.5,0.2-2.2c0-0.6,0.4-1,1-1s1,0.4,1,1
												c0,0.8-0.1,1.6-0.2,2.5C64.1,90.5,63.7,90.9,63.2,90.9z"/>
											
												<ellipse transform="matrix(0.3916 -0.9201 0.9201 0.3916 -52.1172 106.6099)" class="st1" cx="54.6" cy="92.7" rx="3.5" ry="2"/>
											
												<ellipse transform="matrix(0.3916 -0.9201 0.9201 0.3916 1.3311 133.2522)" class="st5" cx="101.4" cy="65.6" rx="7.9" ry="4.5"/>
											<path class="st2" d="M99.4,74.1c-0.6,0-1.3-0.2-1.8-0.5c-1.4-0.8-2.3-2.7-2.3-5c0-4.2,2.5-8.9,5.6-10.7
												c1.6-0.9,3.1-1,4.4-0.3c1.4,0.8,2.3,2.7,2.3,5c0,4.2-2.5,8.9-5.6,10.7C101.1,73.8,100.2,74.1,99.4,74.1z M103.5,59.1
												c-0.6,0-1.1,0.2-1.5,0.5c-2.5,1.5-4.6,5.5-4.6,8.9c0,1.6,0.5,2.8,1.3,3.3s1.7,0.1,2.4-0.3c2.5-1.5,4.6-5.5,4.6-8.9
												c0-1.6-0.5-2.8-1.3-3.3C104,59.2,103.7,59.1,103.5,59.1z"/>
											
												<ellipse transform="matrix(0.3916 -0.9201 0.9201 0.3916 1.3311 133.2522)" class="st1" cx="101.4" cy="65.6" rx="3.5" ry="2"/>
											<path class="st5" d="M39.9,75.1c-0.2,0-0.3,0-0.5-0.1c-1.2-0.7-2.3-1.3-3.4-2c-0.8-0.5-1.6-1-2.3-1.5
												c-0.5-0.3-0.6-0.9-0.3-1.4s0.9-0.6,1.4-0.3c0.7,0.5,1.4,0.9,2.2,1.4c1.1,0.7,2.2,1.3,3.3,2c0.5,0.3,0.7,0.9,0.4,1.4
												C40.6,75,40.2,75.1,39.9,75.1z"/>
											<path class="st1" d="M94.6,62.3l-1.5,0.8c-0.5,0.3-0.8,0-0.8-0.6v-0.1c0-0.6,0.4-1.3,0.8-1.6l1.5-0.8
												c0.5-0.3,0.8,0,0.8,0.6v0.1C95.5,61.3,95.1,62,94.6,62.3z"/>
											<path class="st5" d="M65.1,72.4L65.1,72.4l-4.6-0.6c-0.5-0.1-0.9-0.6-0.8-1.1c0.1-0.5,0.6-0.9,1.1-0.8l4.5,0.6
												c0.5,0.1,0.9,0.6,0.8,1.1C66,72,65.6,72.4,65.1,72.4z"/>
											<path class="st2" d="M99.4,74.1c-0.6,0-1.3-0.2-1.8-0.5c-1.4-0.8-2.3-2.7-2.3-5c0-4.2,2.5-8.9,5.6-10.7
												c1.6-0.9,3.1-1,4.4-0.3c1.4,0.8,2.3,2.7,2.3,5c0,4.2-2.5,8.9-5.6,10.7C101.1,73.8,100.2,74.1,99.4,74.1z M103.5,59.1
												c-0.6,0-1.1,0.2-1.5,0.5c-2.5,1.5-4.6,5.5-4.6,8.9c0,1.6,0.5,2.8,1.3,3.3s1.7,0.1,2.4-0.3c2.5-1.5,4.6-5.5,4.6-8.9
												c0-1.6-0.5-2.8-1.3-3.3C104,59.2,103.7,59.1,103.5,59.1z"/>
											<g>
												<path class="st1" d="M70.6,73.6l-3.9-0.2c-0.9-0.1-1.6-1-1.7-2V71c0-1.1,0.7-1.9,1.6-1.8l3.9,0.2c0.9,0.1,1.6,1,1.7,2
													v0.4C72.2,72.8,71.5,73.6,70.6,73.6z"/>
												<path class="st5" d="M70.7,74.6L70.7,74.6l-4-0.2c-1.4-0.1-2.6-1.4-2.6-3V71c0-0.8,0.3-1.6,0.8-2.2
													c0.5-0.5,1.1-0.7,1.8-0.7l3.9,0.2c1.4,0.1,2.6,1.4,2.6,3v0.4c0,0.8-0.3,1.6-0.8,2.2C71.9,74.4,71.3,74.6,70.7,74.6z
													 M66.6,70.2c-0.1,0-0.1,0-0.2,0.1c-0.2,0.1-0.2,0.4-0.2,0.7v0.4c0,0.6,0.4,1,0.7,1l3.9,0.2l0,0c0,0,0.1,0,0.3-0.1
													c0.2-0.1,0.2-0.4,0.2-0.7v-0.4c0-0.6-0.4-1-0.7-1L66.6,70.2L66.6,70.2z"/>
											</g>
										</g>
									</g>
								</g>
								<g>
									<path class="st0" d="M6,44.2c-0.1,0-0.1,0-0.2,0s-0.1,0-0.2-0.1c-0.1,0-0.1,0-0.2-0.1c0,0-0.1-0.1-0.2-0.1
										C5.1,43.8,5,43.5,5,43.2c0-0.1,0-0.3,0.1-0.4c0-0.1,0.1-0.2,0.2-0.3c0.4-0.4,1.1-0.4,1.4,0c0.1,0.1,0.2,0.2,0.2,0.3
										C6.9,43,7,43.1,7,43.2c0,0.3-0.1,0.5-0.3,0.7L6.6,44c-0.1,0-0.1,0.1-0.2,0.1s-0.1,0.1-0.2,0.1C6.1,44.2,6,44.2,6,44.2z"/>
									<path class="st0" d="M10.2,40.8c-0.3-0.5-0.1-1.1,0.4-1.4l0,0c0.5-0.3,1.1-0.1,1.4,0.4l0,0c0.3,0.5,0.1,1.1-0.4,1.4l0,0
										c-0.2,0.1-0.3,0.1-0.5,0.1l0,0C10.7,41.3,10.4,41.1,10.2,40.8z M15.3,37.9c-0.3-0.5-0.1-1.1,0.4-1.4l0,0
										c0.5-0.3,1.1-0.1,1.4,0.4l0,0c0.3,0.5,0.1,1.1-0.4,1.4l0,0c-0.2,0.1-0.3,0.1-0.5,0.1l0,0C15.8,38.4,15.5,38.2,15.3,37.9z
										 M20.4,34.9c-0.3-0.5-0.1-1.1,0.4-1.4l0,0c0.5-0.3,1.1-0.1,1.4,0.4l0,0c0.3,0.5,0.1,1.1-0.4,1.4l0,0
										c-0.2,0.1-0.3,0.1-0.5,0.1l0,0C20.9,35.4,20.6,35.2,20.4,34.9z M25.5,32c-0.3-0.5-0.1-1.1,0.4-1.4l0,0
										c0.5-0.3,1.1-0.1,1.4,0.4l0,0c0.3,0.5,0.1,1.1-0.4,1.4l0,0c-0.1,0.1-0.3,0.1-0.5,0.1l0,0C26,32.5,25.7,32.3,25.5,32z
										 M30.6,29c-0.3-0.5-0.1-1.1,0.4-1.4l0,0c0.5-0.3,1.1-0.1,1.4,0.4l0,0c0.3,0.5,0.1,1.1-0.4,1.4l0,0
										c-0.2,0.1-0.3,0.1-0.5,0.1l0,0C31.1,29.5,30.8,29.4,30.6,29z M35.7,26.1c-0.3-0.5-0.1-1.1,0.4-1.4l0,0
										c0.5-0.3,1.1-0.1,1.4,0.4l0,0c0.3,0.5,0.1,1.1-0.4,1.4l0,0c-0.2,0.1-0.3,0.1-0.5,0.1l0,0C36.2,26.6,35.9,26.4,35.7,26.1z
										 M40.8,23.1c-0.3-0.5-0.1-1.1,0.4-1.4l0,0c0.5-0.3,1.1-0.1,1.4,0.4l0,0c0.3,0.5,0.1,1.1-0.4,1.4l0,0
										c-0.2,0.1-0.3,0.1-0.5,0.1l0,0C41.3,23.6,41,23.5,40.8,23.1z M45.9,20.2c-0.3-0.5-0.1-1.1,0.4-1.4l0,0
										c0.5-0.3,1.1-0.1,1.4,0.4l0,0c0.3,0.5,0.1,1.1-0.4,1.4l0,0c-0.2,0.1-0.3,0.1-0.5,0.1l0,0C46.4,20.7,46,20.5,45.9,20.2z
										 M51,17.3c-0.3-0.5-0.1-1.1,0.4-1.4l0,0c0.5-0.3,1.1-0.1,1.4,0.4l0,0c0.3,0.5,0.1,1.1-0.4,1.4l0,0
										c-0.2,0.1-0.3,0.1-0.5,0.1l0,0C51.5,17.8,51.1,17.6,51,17.3z M56,14.3c-0.3-0.5-0.1-1.1,0.4-1.4l0,0
										c0.5-0.3,1.1-0.1,1.4,0.4l0,0c0.3,0.5,0.1,1.1-0.4,1.4l0,0c-0.2,0.1-0.3,0.1-0.5,0.1l0,0C56.6,14.8,56.2,14.6,56,14.3z
										 M61.1,11.4c-0.3-0.5-0.1-1.1,0.4-1.4l0,0c0.5-0.3,1.1-0.1,1.4,0.4l0,0c0.3,0.5,0.1,1.1-0.4,1.4l0,0
										c-0.2,0.1-0.3,0.1-0.5,0.1l0,0C61.7,11.9,61.3,11.7,61.1,11.4z M66.2,8.4c-0.2-0.4-0.1-1,0.4-1.3l0,0
										C67.1,6.8,67.7,7,68,7.4l0,0c0.3,0.5,0.1,1.1-0.4,1.4l0,0c-0.2,0.1-0.3,0.1-0.5,0.1l0,0C66.8,8.9,66.4,8.8,66.2,8.4z"/>
									<path class="st0" d="M72.2,6c-0.3,0-0.5-0.1-0.7-0.3c-0.2-0.2-0.3-0.4-0.3-0.7c0-0.3,0.1-0.5,0.3-0.7c0.4-0.4,1-0.4,1.4,0
										c0.2,0.2,0.3,0.4,0.3,0.7c0,0.3-0.1,0.5-0.3,0.7C72.7,5.9,72.5,6,72.2,6z"/>
								</g>
								<g>
									<path class="st0" d="M122,85.8c-0.1,0-0.3,0-0.4-0.1c-0.1,0-0.2-0.1-0.3-0.2c-0.1-0.1-0.2-0.2-0.2-0.3
										c0-0.1-0.1-0.2-0.1-0.4s0-0.3,0.1-0.4s0.1-0.2,0.2-0.3c0.2-0.2,0.6-0.3,0.9-0.3c0.1,0,0.1,0,0.2,0.1c0.1,0,0.1,0.1,0.2,0.1
										c0,0,0.1,0.1,0.2,0.1c0.1,0.1,0.2,0.2,0.2,0.3s0.1,0.2,0.1,0.4s0,0.3-0.1,0.4c0,0.1-0.1,0.2-0.2,0.3
										c-0.1,0-0.1,0.1-0.2,0.1s-0.1,0.1-0.2,0.1s-0.1,0.1-0.2,0.1C122.2,85.8,122.1,85.8,122,85.8z"/>
									<path class="st0" d="M60,120.6c-0.3-0.5-0.1-1.1,0.4-1.4l0,0c0.5-0.3,1.1-0.1,1.4,0.4l0,0c0.3,0.5,0.1,1.1-0.4,1.4l0,0
										c-0.1,0.1-0.3,0.1-0.5,0.1l0,0C60.6,121.1,60.2,120.9,60,120.6z M65.1,117.6c-0.3-0.5-0.1-1.1,0.4-1.4l0,0
										c0.5-0.3,1.1-0.1,1.4,0.4l0,0c0.3,0.5,0.1,1.1-0.4,1.4l0,0c-0.2,0.1-0.3,0.1-0.5,0.1l0,0C65.6,118.1,65.3,117.9,65.1,117.6
										z M70.2,114.7c-0.3-0.5-0.1-1.1,0.4-1.4l0,0c0.5-0.3,1.1-0.1,1.4,0.4l0,0c0.3,0.5,0.1,1.1-0.4,1.4l0,0
										c-0.2,0.1-0.3,0.1-0.5,0.1l0,0C70.7,115.2,70.4,115,70.2,114.7z M75.3,111.7c-0.3-0.5-0.1-1.1,0.4-1.4l0,0
										c0.5-0.3,1.1-0.1,1.4,0.4l0,0c0.3,0.5,0.1,1.1-0.4,1.4l0,0c-0.2,0.1-0.3,0.1-0.5,0.1l0,0C75.8,112.2,75.5,112.1,75.3,111.7
										z M80.4,108.8c-0.3-0.5-0.1-1.1,0.4-1.4l0,0c0.5-0.3,1.1-0.1,1.4,0.4l0,0c0.3,0.5,0.1,1.1-0.4,1.4l0,0
										c-0.2,0.1-0.3,0.1-0.5,0.1l0,0C80.9,109.3,80.6,109.1,80.4,108.8z M85.5,105.9c-0.3-0.5-0.1-1.1,0.4-1.4l0,0
										c0.5-0.3,1.1-0.1,1.4,0.4l0,0c0.3,0.5,0.1,1.1-0.4,1.4l0,0c-0.2,0.1-0.3,0.1-0.5,0.1l0,0C86,106.4,85.7,106.2,85.5,105.9z
										 M90.6,102.9c-0.3-0.5-0.1-1.1,0.4-1.4l0,0c0.5-0.3,1.1-0.1,1.4,0.4l0,0c0.3,0.5,0.1,1.1-0.4,1.4l0,0
										c-0.2,0.1-0.3,0.1-0.5,0.1l0,0C91.1,103.4,90.8,103.2,90.6,102.9z M95.7,100c-0.3-0.5-0.1-1.1,0.4-1.4l0,0
										c0.5-0.3,1.1-0.1,1.4,0.4l0,0c0.3,0.5,0.1,1.1-0.4,1.4l0,0c-0.2,0.1-0.3,0.1-0.5,0.1l0,0C96.2,100.5,95.9,100.3,95.7,100z
										 M100.8,97c-0.3-0.5-0.1-1.1,0.4-1.4l0,0c0.5-0.3,1.1-0.1,1.4,0.4l0,0c0.3,0.5,0.1,1.1-0.4,1.4l0,0
										c-0.2,0.1-0.3,0.1-0.5,0.1l0,0C101.3,97.5,101,97.4,100.8,97z M105.9,94.1c-0.3-0.5-0.1-1.1,0.4-1.4l0,0
										c0.5-0.3,1.1-0.1,1.4,0.4l0,0c0.3,0.5,0.1,1.1-0.4,1.4l0,0c-0.2,0.1-0.3,0.1-0.5,0.1l0,0C106.4,94.6,106.1,94.4,105.9,94.1
										z M111,91.1c-0.3-0.5-0.1-1.1,0.4-1.4l0,0c0.5-0.3,1.1-0.1,1.4,0.4l0,0c0.3,0.5,0.1,1.1-0.4,1.4l0,0
										c-0.2,0.1-0.3,0.1-0.5,0.1l0,0C111.5,91.6,111.2,91.5,111,91.1z M116.1,88.2c-0.3-0.5-0.1-1.1,0.4-1.4l0,0
										c0.5-0.3,1.1-0.1,1.4,0.4l0,0c0.3,0.5,0.1,1.1-0.4,1.4l0,0c-0.2,0.1-0.3,0.1-0.5,0.1l0,0C116.6,88.7,116.3,88.5,116.1,88.2
										z"/>
									<path class="st0" d="M55.8,124c-0.3,0-0.5-0.1-0.7-0.3c-0.2-0.2-0.3-0.4-0.3-0.7c0-0.3,0.1-0.5,0.3-0.7
										c0.4-0.4,1-0.4,1.4,0c0.2,0.2,0.3,0.4,0.3,0.7c0,0.3-0.1,0.5-0.3,0.7C56.3,123.9,56.1,124,55.8,124z"/>
								</g>
							</g>
						</g>
					</g>
				</g>
				<rect x="4" y="4" class="st6" width="120" height="120"/>
			</g>
		</g>
	</g>
	<g>
		<rect class="st6" width="128" height="128"/>
	</g>
</g>
</svg>
