<?xml version="1.0" encoding="utf-8"?>
<!-- Generator: Adobe Illustrator 24.1.0, SVG Export Plug-In . SVG Version: 6.00 Build 0)  -->
<svg version="1.1" id="Layer_1" xmlns="http://www.w3.org/2000/svg" xmlns:xlink="http://www.w3.org/1999/xlink" x="0px" y="0px"
	 viewBox="0 0 128 128" style="enable-background:new 0 0 128 128;" xml:space="preserve">
<style type="text/css">
	.st0{fill:#FFFFFF;}
	.st1{fill:#27ae60;}
	.st2{fill:#E9EBDF;}
	.st3{fill:#4D9987;}
	.st4{fill:#0E352C;}
	.st5{fill:#185849;}
	.st6{fill:none;}
</style>
<g>
	<path class="st0" d="M102.7,98.5L67.2,78c-2-1-4.4-1-6.5,0L25.3,98.5c-1.8,1-1.8,2.7,0,3.7l35.4,20.5c2,1,4.4,1,6.5,0l35.4-20.5
		C104.4,101.2,104.4,99.5,102.7,98.5z"/>
	<path class="st1" d="M64,124.4c-1.3,0-2.6-0.3-3.7-0.9L24.9,103c-1.5-0.6-2.2-2.3-1.6-3.8c0.3-0.7,0.9-1.3,1.6-1.6l35.4-20.5
		c2.3-1.2,5.1-1.2,7.5,0l35.4,20.5l0,0c1.5,0.6,2.2,2.3,1.6,3.8c-0.3,0.7-0.9,1.3-1.6,1.6l-35.4,20.5
		C66.6,124.1,65.3,124.5,64,124.4z M64,78.2c-0.9,0-1.9,0.2-2.7,0.6L25.8,99.3c-0.5,0.3-0.8,0.7-0.8,1s0.3,0.7,0.8,1l35.4,20.5
		c1.7,0.9,3.7,0.9,5.5,0l35.4-20.5c0.5-0.3,0.8-0.7,0.8-1s-0.3-0.7-0.8-1L66.7,78.9C65.9,78.4,64.9,78.2,64,78.2z"/>
	<path class="st2" d="M81.7,86.4L67.2,78c-2-1-4.4-1-6.5,0l-14.5,8.4H24v14c0.1,0.8,0.6,1.5,1.3,1.9l35.4,20.5c2,1,4.4,1,6.5,0
		l35.4-20.5c0.8-0.3,1.3-1,1.3-1.9v-14H81.7z"/>
	<path class="st3" d="M64,124.4c-1.3,0-2.6-0.3-3.7-0.9L24.9,103c-1.1-0.5-1.8-1.6-1.8-2.7v-14c0-0.6,0.4-1,1-1h22l14.2-8.2
		c2.3-1.2,5.1-1.2,7.5,0L82,85.4h22c0.6,0,1,0.4,1,1v14c-0.1,1.2-0.8,2.2-1.8,2.7l-35.4,20.5C66.6,124.1,65.3,124.5,64,124.4z
		 M25,87.4v13c0,0.3,0.3,0.7,0.8,1l35.4,20.5c1.7,0.9,3.7,0.9,5.5,0l35.4-20.5c0.5-0.3,0.8-0.7,0.8-1v-13H81.7c-0.2,0-0.3,0-0.5-0.1
		l-14.5-8.4C65,78,63,78,61.3,78.9l-14.5,8.4c-0.2,0.1-0.3,0.1-0.5,0.1H25z"/>
	<path class="st3" d="M67.2,122.7l35.4-20.5c0.8-0.3,1.3-1,1.3-1.9v-14H81.7L67.2,78c-1-0.5-2.1-0.8-3.2-0.8v46.2
		C65.1,123.5,66.2,123.2,67.2,122.7z"/>
	<path class="st3" d="M48.3,110c-0.2,0-0.3,0-0.5-0.1l-10.5-6c-0.5-0.3-0.6-0.9-0.4-1.4c0.3-0.5,0.9-0.6,1.4-0.4l10.5,6
		c0.5,0.3,0.6,0.9,0.4,1.4C49,109.8,48.6,110,48.3,110z"/>
	<path class="st0" d="M102.7,84.5L67.2,64.1c-2-1-4.4-1-6.5,0L25.3,84.5c-1.8,1-1.8,2.7,0,3.7l35.4,20.5c2,1,4.4,1,6.5,0l35.4-20.5
		C104.4,87.2,104.4,85.5,102.7,84.5z"/>
	<path class="st3" d="M64,110.5c-1.3,0-2.6-0.3-3.7-0.9L24.8,89.1c-1.5-0.6-2.2-2.3-1.6-3.8c0.3-0.7,0.9-1.3,1.6-1.6l35.4-20.5
		c2.3-1.2,5.1-1.2,7.5,0l35.4,20.5l0,0c1.5,0.6,2.2,2.3,1.6,3.8c-0.3,0.7-0.9,1.3-1.6,1.6l-35.4,20.5
		C66.6,110.2,65.3,110.5,64,110.5z M64,64.3c-0.9,0-1.9,0.2-2.7,0.6L25.8,85.4c-0.5,0.3-0.8,0.7-0.8,1s0.3,0.7,0.8,1l35.4,20.5
		c1.7,0.9,3.7,0.9,5.5,0l35.4-20.5c0.5-0.3,0.8-0.7,0.8-1s-0.3-0.7-0.8-1L66.7,64.9C65.9,64.5,64.9,64.3,64,64.3L64,64.3z"/>
	<polygon class="st3" points="94.4,107 75.6,117.8 75.6,111.4 94.4,100.5 	"/>
	<path class="st2" d="M75.6,118.8c-0.6,0-1-0.4-1-1v-6.5c0-0.4,0.2-0.7,0.5-0.9l18.7-10.8c0.5-0.3,1.1-0.1,1.4,0.4
		c0.1,0.2,0.1,0.3,0.1,0.5v6.5c0,0.4-0.2,0.7-0.5,0.9l-18.7,10.8C76,118.8,75.8,118.8,75.6,118.8z M76.6,111.9v4.1l16.7-9.7v-4.1
		L76.6,111.9z M94.4,107L94.4,107z"/>
	<path class="st4" d="M64,124.4c-1.3,0-2.6-0.3-3.7-0.9L24.9,103c-1.1-0.5-1.8-1.6-1.8-2.7v-14c0.1-1.2,0.8-2.2,1.8-2.7l35.4-20.5
		c2.3-1.2,5.1-1.2,7.5,0l35.4,20.5l0,0c1.1,0.5,1.8,1.6,1.8,2.7v14c-0.1,1.2-0.8,2.2-1.8,2.7l-35.4,20.5
		C66.6,124.1,65.3,124.5,64,124.4z M64,64.3c-0.9,0-1.9,0.2-2.7,0.6L25.8,85.4c-0.5,0.3-0.8,0.7-0.8,1v14c0,0.3,0.3,0.7,0.8,1
		l35.4,20.5c1.7,0.8,3.7,0.8,5.5,0l35.4-20.5c0.5-0.3,0.8-0.7,0.8-1v-14c0-0.3-0.3-0.7-0.8-1L66.7,64.9C65.9,64.5,64.9,64.3,64,64.3
		z"/>
	<ellipse class="st3" cx="94.9" cy="86.4" rx="1.8" ry="1"/>
	<ellipse class="st3" cx="64" cy="104.2" rx="1.8" ry="1"/>
	<ellipse class="st3" cx="64" cy="68.6" rx="1.8" ry="1"/>
	<ellipse class="st3" cx="33.1" cy="86.4" rx="1.8" ry="1"/>
	<path class="st5" d="M64,85.6c-22.6,0-41-18.4-41-41s18.4-41,41-41s41,18.4,41,41S86.6,85.5,64,85.6z M64,5.6
		c-21.5,0-39,17.5-39,39s17.5,39,39,39s39-17.5,39-39C103,23,85.5,5.6,64,5.6z"/>
	<path class="st5" d="M104,61.6c-0.1,0-0.3,0-0.4-0.1s-0.2-0.1-0.3-0.2c-0.1-0.1-0.2-0.2-0.2-0.3c-0.1-0.1-0.1-0.3-0.1-0.4
		c0-0.4,0.2-0.8,0.6-0.9c0.2-0.1,0.4-0.1,0.6-0.1l0.2,0.1c0.1,0,0.1,0.1,0.2,0.1s0.1,0.1,0.2,0.1c0.1,0.1,0.2,0.2,0.2,0.3
		c0.1,0.1,0.1,0.2,0.1,0.4c0,0.1,0,0.3-0.1,0.4c-0.1,0.1-0.1,0.2-0.2,0.3s-0.2,0.2-0.3,0.2C104.3,61.6,104.1,61.6,104,61.6z"/>
	<path class="st5" d="M103,73.2c0-0.6,0.4-1,1-1l0,0c0.6,0,1,0.4,1,1l0,0c0,0.6-0.4,1-1,1l0,0C103.4,74.2,103,73.8,103,73.2z
		 M103,66.9c0-0.6,0.4-1,1-1l0,0c0.6,0,1,0.4,1,1l0,0c0,0.6-0.4,1-1,1l0,0C103.4,67.9,103,67.5,103,66.9L103,66.9z"/>
	<path class="st5" d="M104,80.5c-0.3,0-0.5-0.1-0.7-0.3c-0.2-0.2-0.3-0.4-0.3-0.7c0-0.1,0-0.3,0.1-0.4c0-0.1,0.1-0.2,0.2-0.3
		c0.4-0.4,1-0.4,1.4,0c0.1,0.1,0.2,0.2,0.2,0.3c0.1,0.1,0.1,0.3,0.1,0.4c0,0.4-0.2,0.8-0.6,0.9C104.3,80.5,104.1,80.5,104,80.5z"/>
	<path class="st4" d="M24,61.6c-0.1,0-0.3,0-0.4-0.1s-0.2-0.1-0.3-0.2c-0.1-0.1-0.2-0.2-0.2-0.3C23,60.9,23,60.8,23,60.6
		c0-0.4,0.2-0.8,0.6-0.9c0.2-0.1,0.4-0.1,0.6-0.1l0.2,0.1c0.1,0,0.1,0.1,0.2,0.1s0.1,0.1,0.1,0.1c0.1,0.1,0.2,0.2,0.2,0.3
		c0.1,0.1,0.1,0.2,0.1,0.4c0,0.1,0,0.3-0.1,0.4c-0.1,0.2-0.3,0.4-0.5,0.5C24.3,61.6,24.1,61.6,24,61.6z"/>
	<path class="st4" d="M23,73.2c0-0.6,0.4-1,1-1l0,0c0.6,0,1,0.4,1,1l0,0c0,0.6-0.4,1-1,1l0,0C23.4,74.2,23,73.8,23,73.2z M23,66.9
		c0-0.6,0.4-1,1-1l0,0c0.6,0,1,0.4,1,1l0,0c0,0.6-0.4,1-1,1l0,0C23.4,67.9,23,67.5,23,66.9L23,66.9z"/>
	<path class="st4" d="M24,80.5c-0.3,0-0.5-0.1-0.7-0.3C23.1,80,23,79.7,23,79.5c0-0.1,0-0.3,0.1-0.4c0-0.1,0.1-0.2,0.2-0.3
		c0.2-0.2,0.6-0.3,0.9-0.3l0.2,0.1c0.1,0.1,0.2,0.1,0.3,0.2c0.1,0.1,0.2,0.2,0.2,0.3c0.1,0.1,0.1,0.3,0.1,0.4c0,0.3-0.1,0.5-0.3,0.7
		C24.5,80.4,24.3,80.5,24,80.5z"/>
	<circle class="st0" cx="64" cy="44.6" r="39"/>
	<path class="st1" d="M98.6,64.2l2.4-3.5l0.7-2.7c-0.2-0.2-0.4-0.2-0.6,0.1c-0.1-6.1-1.4-12.2-3.9-17.7c2.5-2.9,3.9-6.6,4-10.4
		c0-0.6-1.3-2.8-3.2-5.4c0.8,1.7,1.2,3.5,1.2,5.4c0,3-1.1,6-2.9,8.4c-0.7-1.5-1.5-2.9-2.3-4.2c-2.5-4-5.5-7.8-9-11
		c1.4-1.6,2.1-3.7,2.2-5.8c0-0.7-0.1-1.4-0.3-2.1c2.4,1,4.6,2.3,6.7,3.8c-2.6-2.9-5.4-5.4-7.7-6.3c-2.4-4-7.8-7.1-14.6-8.5h-0.1
		c-2.3-0.5-4.7-0.7-7.1-0.7c-10,0-18.6,3.8-21.7,9.1c-5.7,2.1-15.2,13.2-14.6,12.6C27.3,26.8,27,28.4,27,30c0.1,3.8,1.5,7.5,4,10.4
		c-2.4,5.4-3.7,11.1-3.9,17c-0.9-0.9-1.5,1.4,0,2.8c0.2,4.9,2.5,6,2.1,1.8c6.3,4.9,13.6,8.2,21.4,9.8c0.3,3.7,1.1,7.4,2.3,10.9
		c0.8,0.5,1.7,0.9,2.6,1l0,0c-1.6-3.7-2.6-7.5-2.9-11.5c3.9,0.7,7.9,1.1,11.8,1.1c3.7,0,7.4-0.3,11.1-1c-0.4,4-1.4,8-3.1,11.7
		c0.8-0.1,1.6-0.3,2.4-0.4c1.5-3.7,2.4-7.6,2.7-11.6c7.7-1.5,15-4.7,21.4-9.3C98.8,63.1,98.7,63.7,98.6,64.2z M84.4,14.3
		c0.5,0.9,0.7,2,0.7,3c0,1.6-0.6,3.2-1.6,4.5c-4.3-3.9-9.3-7-14.7-9.1c2.8-0.3,5.5-0.3,8.3,0C79.5,13,82,13.5,84.4,14.3z M56.9,28.4
		c-4.7-0.9-8.5-2.8-11-5.1c5.6-5,11.6-8.3,16.3-9.3C60.1,18.7,58.3,23.5,56.9,28.4z M64,14.8c2,4.5,3.7,9.2,5.2,13.9
		c-1.7,0.2-3.4,0.4-5.2,0.4c-1.7,0-3.5-0.1-5.2-0.4C60.3,24,62,19.3,64,14.8z M58.2,30.6C60.1,30.9,62,31,64,31
		c1.9,0,3.9-0.1,5.8-0.4c1.2,4.1,2.4,8.6,3.4,13.3c0.4,2,0.8,4,1.2,6.1c-3.5,0.7-6.9,1-10.4,1s-6.9-0.3-10.3-0.9
		c0.3-2.1,0.7-4.2,1.2-6.1C55.8,39.2,57,34.7,58.2,30.6z M65.8,14c4.7,1,10.7,4.3,16.3,9.3c-2.5,2.3-6.4,4.2-11,5.1
		C69.7,23.5,67.9,18.7,65.8,14L65.8,14z M71.2,6.3c4.9,1,8.9,2.9,11.4,5.5c-5.4-1.4-11-1.6-16.5-0.6C67.5,9.2,69.2,7.6,71.2,6.3
		L71.2,6.3z M64,5.6c1.5,0,3,0.1,4.4,0.3c-1.7,1.4-3.2,3-4.4,4.9c-1.2-1.8-2.7-3.5-4.4-4.9C61,5.7,62.5,5.6,64,5.6z M56.8,6.3
		c2,1.3,3.7,2.9,5.1,4.9c-3.7-0.7-7.5-0.8-11.2-0.4c-1.8,0.2-3.5,0.5-5.2,1C47.9,9.2,52,7.3,56.8,6.3z M43.6,14.3
		c2.3-0.8,4.8-1.3,7.2-1.6c2.8-0.3,5.6-0.3,8.4,0c-5.4,2-10.4,5.1-14.7,9.1c-1-1.3-1.6-2.9-1.6-4.5C42.9,16.3,43.2,15.2,43.6,14.3z
		 M28.9,29.9c0-2.2,0.6-4.4,1.6-6.3c0.2-0.4,0.1-0.9-0.2-1.2c3.2-3.1,6.8-5.5,10.9-7.2c-0.2,0.7-0.3,1.4-0.3,2.1
		c0,2.1,0.8,4.2,2.2,5.8c-3.5,3.3-6.5,7-9,11c-0.8,1.3-1.6,2.7-2.3,4.2C29.9,35.9,28.9,33,28.9,29.9z M50.4,69.7
		C42,67.8,34.5,64.1,29,59.2c-0.1-5.9,1-11.8,3.3-17.3c4.4,4.4,11.1,7.9,19.1,9.7C50.5,57.6,50.1,63.6,50.4,69.7z M33.2,40
		c0.8-1.7,1.6-3.3,2.6-4.8c2.4-3.9,5.3-7.5,8.6-10.6c3.4,2.9,7.5,4.9,11.9,5.7c-1.9,6.4-3.4,12.8-4.5,19.4
		C43.8,47.9,37.2,44.4,33.2,40z M75.6,70.2c-3.7,0.7-7.5,1-11.2,1c-4,0-8-0.4-12-1.1c-0.3-6.1,0-12.1,1-18.1c3.5,0.7,7.1,1,10.7,1
		s7.1-0.3,10.7-1C75.6,58,75.9,64.1,75.6,70.2z M71.7,30.3c4.4-0.8,8.5-2.8,11.9-5.7c3.3,3.2,6.2,6.7,8.6,10.6
		c1,1.6,1.8,3.2,2.6,4.8c-4,4.4-10.6,7.9-18.6,9.6C75.1,43.1,73.6,36.6,71.7,30.3z M77.6,69.8c0.3-6.1-0.1-12.2-1-18.2
		c8-1.8,14.7-5.2,19.1-9.7c2.4,5.7,3.5,11.8,3.3,17.9C92.8,64.9,85.4,68.3,77.6,69.8z"/>
	<path class="st5" d="M64,85.6c-22.6,0-41-18.4-41-41s18.4-41,41-41s41,18.4,41,41S86.6,85.5,64,85.6z M64,5.6
		c-21.5,0-39,17.5-39,39s17.5,39,39,39s39-17.5,39-39C103,23,85.5,5.6,64,5.6z"/>
	<g>
		<rect class="st6" width="128" height="128"/>
	</g>
</g>
</svg>
