<?xml version="1.0" encoding="utf-8"?>
<!-- Generator: Adobe Illustrator 24.1.0, SVG Export Plug-In . SVG Version: 6.00 Build 0)  -->
<svg version="1.1" id="Layer_1" xmlns="http://www.w3.org/2000/svg" xmlns:xlink="http://www.w3.org/1999/xlink" x="0px" y="0px"
	 viewBox="0 0 128 128" style="enable-background:new 0 0 128 128;" xml:space="preserve">
<style type="text/css">
	.st0{fill:#C4D7D3;}
	.st1{fill:#27ae60;}
	.st2{fill:#FFFFFF;}
	.st3{fill:#185849;}
	.st4{fill:#E9EBDF;}
	.st5{fill:#4D9987;}
	.st6{fill:#0E352C;}
	.st7{fill:none;}
</style>
<g id="Layer_1_1_">
</g>
<g>
	<g id="Layer_2_1_">
		<g id="Tech_Concepts_1_">
			<g>
				<g>
					<g>
						<g>
							<path class="st0" d="M79.7,39.2c-0.1-0.1-0.2-0.1-0.3-0.2c-8.5-4.9-22.2-4.9-30.7,0c-0.1,0.1-0.2,0.1-0.3,0.2h-6.1V89
								c0,3.2,2.1,6.4,6.4,8.9c8.5,4.9,22.2,4.9,30.7,0c4.2-2.4,6.4-5.7,6.4-8.9V39.2H79.7z"/>
							<path class="st1" d="M79.4,97.9c4.2-2.4,6.4-5.7,6.4-8.9V39.2h-6.1c-0.1-0.1-0.2-0.1-0.3-0.2c-4.2-2.4-9.8-3.7-15.4-3.7v66.2
								C69.6,101.6,75.1,100.4,79.4,97.9z"/>
							<ellipse class="st2" cx="64" cy="39.2" rx="21.7" ry="12.5"/>
							<path class="st3" d="M64,102.6c-6,0-11.6-1.4-15.9-3.8c-4.4-2.6-6.9-6-6.9-9.7V39.2c0-3.7,2.4-7.2,6.9-9.7
								c11.3-6.5,20.5-6.5,31.7,0c4.4,2.6,6.9,6,6.9,9.7V89c0,1.4-0.3,2.7-1,4c-1.1,2.2-3.1,4.1-5.9,5.7c-2.2,1.2-4.7,2.2-7.5,2.9
								c-0.7,0.2-1.4,0.3-2,0.4c-1.4,0.2-2.8,0.4-4.2,0.5C65.4,102.6,64.7,102.6,64,102.6z M64,26.6c-4.8,0-9.5,1.5-14.9,4.6
								c-3.8,2.2-5.9,5-5.9,8V89c0,3,2.1,5.8,5.9,8c4,2.3,9.2,3.5,14.9,3.5c0.7,0,1.4,0,2-0.1c1.3-0.1,2.7-0.2,4-0.4
								c0.7-0.1,1.3-0.2,1.9-0.4c2.6-0.6,4.9-1.5,6.9-2.6c2.4-1.4,4.1-3.1,5.1-4.9c0.5-1,0.8-2.1,0.8-3.1V39.2c0-3-2.1-5.8-5.9-8
								C73.5,28.2,68.8,26.6,64,26.6z"/>
						</g>
						<g>
							<path class="st4" d="M79.7,19.3c-0.1-0.1-0.2-0.1-0.3-0.2c-8.5-4.9-22.2-4.9-30.7,0c-0.1,0.1-0.2,0.1-0.3,0.2h-6.1v19.9
								c0,3.2,2.1,6.4,6.4,8.9c8.5,4.9,22.2,4.9,30.7,0c4.2-2.4,6.4-5.7,6.4-8.9V19.3H79.7z"/>
							<path class="st5" d="M79.4,48.1c4.2-2.4,6.4-5.7,6.4-8.9V19.3h-6.1c-0.1-0.1-0.2-0.1-0.3-0.2c-4.2-2.4-9.8-3.7-15.4-3.7v36.3
								C69.6,51.8,75.1,50.6,79.4,48.1z"/>
							<g>
								<ellipse class="st2" cx="64" cy="19.3" rx="21.7" ry="12.5"/>
								<path class="st5" d="M64,32.9c-5.7,0-11.5-1.3-15.9-3.8c-4.4-2.6-6.9-6-6.9-9.7s2.4-7.2,6.9-9.7c8.7-5,23-5,31.7,0
									c4.4,2.6,6.9,6,6.9,9.7s-2.4,7.2-6.9,9.7C75.5,31.6,69.7,32.9,64,32.9z M64,7.8c-5.4,0-10.8,1.2-14.9,3.5
									c-3.8,2.2-5.9,5-5.9,8s2.1,5.8,5.9,8c8.2,4.7,21.5,4.7,29.7,0c3.8-2.2,5.9-5,5.9-8s-2.1-5.8-5.9-8l0,0
									C74.8,9,69.4,7.8,64,7.8z"/>
							</g>
							<path class="st6" d="M64,52.8c-6,0-11.6-1.4-15.9-3.8c-4.4-2.6-6.9-6-6.9-9.7v-20c0-3.7,2.4-7.2,6.9-9.7
								c8.7-5.1,23-5.1,31.7,0c4.4,2.6,6.9,6,6.9,9.7v19.9c0,1.4-0.3,2.7-1,4c-1.1,2.2-3.1,4.1-5.9,5.7c-2.2,1.2-4.7,2.2-7.5,2.9
								c-0.7,0.2-1.4,0.3-2,0.4c-1.4,0.2-2.8,0.4-4.2,0.5C65.4,52.8,64.7,52.8,64,52.8z M64,7.8c-5.4,0-10.8,1.2-14.9,3.5
								c-3.8,2.2-5.9,5-5.9,8v19.9c0,3,2.1,5.8,5.9,8c4,2.3,9.2,3.5,14.9,3.5c0.7,0,1.4,0,2-0.1c1.3-0.1,2.7-0.2,4-0.4
								c0.7-0.1,1.3-0.2,1.9-0.4c2.6-0.6,4.9-1.5,6.9-2.6c2.4-1.4,4.1-3.1,5.1-4.9c0.5-1,0.8-2.1,0.8-3.1l0,0V19.3
								c0-3-2.1-5.8-5.9-8C74.8,9,69.4,7.8,64,7.8z"/>
						</g>
						<g>
							<path class="st0" d="M116.9,92.5c-0.1-0.1-0.2-0.1-0.3-0.2c-8.5-4.9-22.2-4.9-30.7,0c-0.1,0.1-0.2,0.1-0.3,0.2h-6.1v16.1
								c0,3.2,2.1,6.4,6.4,8.9c8.5,4.9,22.2,4.9,30.7,0c4.2-2.4,6.4-5.7,6.4-8.9V92.5H116.9z"/>
							<path class="st1" d="M116.6,117.5c4.2-2.4,6.4-5.7,6.4-8.9V92.5h-6.1c-0.1-0.1-0.2-0.1-0.3-0.2c-4.2-2.4-9.8-3.7-15.4-3.7
								v32.5C106.8,121.2,112.4,120,116.6,117.5z"/>
							<ellipse class="st2" cx="101.3" cy="92.5" rx="21.7" ry="12.5"/>
							<path class="st3" d="M101.3,122.2c-6,0-11.6-1.4-15.9-3.8c-4.4-2.6-6.9-6-6.9-9.7V92.5c0-3.7,2.4-7.2,6.9-9.7
								c8.7-5.1,23-5.1,31.7,0c4.4,2.6,6.9,6,6.9,9.7v16.1c0,1.4-0.3,2.7-1,4c-1.1,2.2-3.1,4.1-5.9,5.7c-2.2,1.2-4.7,2.2-7.5,2.9
								c-0.7,0.2-1.4,0.3-2,0.4c-1.4,0.2-2.8,0.4-4.2,0.5C102.7,122.2,102,122.2,101.3,122.2z M101.3,81c-5.4,0-10.8,1.2-14.9,3.5
								c-3.8,2.2-5.9,5-5.9,8v16.1c0,3,2.1,5.8,5.9,8c4,2.3,9.2,3.5,14.9,3.5c0.7,0,1.4,0,2-0.1c1.3-0.1,2.7-0.2,4-0.4
								c0.7-0.1,1.3-0.2,1.9-0.4c2.6-0.6,4.9-1.5,6.9-2.6c2.4-1.4,4.1-3.1,5.1-4.9c0.5-1,0.8-2.1,0.8-3.1V92.5c0-3-2.1-5.8-5.9-8
								C112,82.1,106.7,81,101.3,81z"/>
						</g>
						<g>
							<path class="st4" d="M116.9,69.8c-0.1-0.1-0.2-0.1-0.3-0.2c-8.5-4.9-22.2-4.9-30.7,0c-0.1,0.1-0.2,0.1-0.3,0.2h-6.1v22.7
								c0,3.2,2.1,6.4,6.4,8.9c8.5,4.9,22.2,4.9,30.7,0c4.2-2.4,6.4-5.7,6.4-8.9V69.8H116.9z"/>
							<path class="st5" d="M116.6,101.4c4.2-2.4,6.4-5.7,6.4-8.9V69.8h-6.1c-0.1-0.1-0.2-0.1-0.3-0.2c-4.2-2.4-9.8-3.7-15.4-3.7
								V105C106.8,105.1,112.4,103.8,116.6,101.4z"/>
							<g>
								<ellipse class="st2" cx="101.3" cy="69.8" rx="21.7" ry="12.5"/>
								<path class="st5" d="M101.3,83.4c-5.7,0-11.5-1.3-15.9-3.8c-4.4-2.6-6.9-6-6.9-9.7s2.4-7.2,6.9-9.7c8.7-5,23-5,31.7,0l0,0
									c4.4,2.6,6.9,6,6.9,9.7c0,3.7-2.4,7.2-6.9,9.7C112.8,82.1,107,83.4,101.3,83.4z M101.3,58.3c-5.4,0-10.8,1.2-14.9,3.5
									c-3.8,2.2-5.9,5-5.9,8s2.1,5.8,5.9,8c8.2,4.7,21.5,4.7,29.7,0c3.8-2.2,5.9-5,5.9-8s-2.1-5.8-5.9-8l0,0
									C112,59.5,106.7,58.3,101.3,58.3z"/>
							</g>
							<ellipse class="st4" cx="101.3" cy="69.8" rx="11.9" ry="6.2"/>
							<path class="st6" d="M101.3,106.1c-6,0-11.6-1.4-15.9-3.8c-4.4-2.6-6.9-6-6.9-9.7V69.8c0-3.7,2.4-7.2,6.9-9.7
								c8.7-5,23-5,31.7,0c4.4,2.6,6.9,6,6.9,9.7v22.7c0,1.4-0.3,2.7-1,4c-1.1,2.2-3.1,4.1-5.9,5.7c-2.2,1.2-4.7,2.2-7.5,2.9
								c-0.7,0.2-1.4,0.3-2,0.4c-1.4,0.2-2.8,0.4-4.2,0.5C102.7,106,102,106.1,101.3,106.1z M101.3,58.3c-5.4,0-10.8,1.2-14.9,3.5
								c-3.8,2.2-5.9,5-5.9,8v22.7c0,3,2.1,5.8,5.9,8c4,2.3,9.2,3.5,14.9,3.5c0.7,0,1.4,0,2-0.1c1.3-0.1,2.7-0.2,4-0.4
								c0.7-0.1,1.3-0.2,1.9-0.4c2.6-0.6,4.9-1.5,6.9-2.6c2.4-1.4,4.1-3.1,5.1-4.9c0.5-1,0.8-2.1,0.8-3.1V69.8c0-3-2.1-5.8-5.9-8
								C112,59.5,106.7,58.3,101.3,58.3z"/>
						</g>
						<g>
							<path class="st0" d="M42.4,94.5c-0.1-0.1-0.2-0.1-0.3-0.2c-8.5-4.9-22.2-4.9-30.7,0c-0.1,0.1-0.2,0.1-0.3,0.2H5v14.2
								c0,3.2,2.1,6.4,6.4,8.9c8.5,4.9,22.2,4.9,30.7,0c4.2-2.4,6.4-5.7,6.4-8.9V94.5H42.4z"/>
							<path class="st1" d="M42.1,117.5c4.2-2.4,6.4-5.7,6.4-8.9V94.5h-6.1c-0.1-0.1-0.2-0.1-0.3-0.2c-4.2-2.4-9.8-3.7-15.4-3.7
								v30.6C32.3,121.2,37.8,120,42.1,117.5z"/>
							<ellipse class="st2" cx="26.7" cy="94.5" rx="21.7" ry="12.5"/>
							<path class="st3" d="M26.7,122.2c-6,0-11.6-1.4-15.9-3.8c-4.4-2.6-6.9-6-6.9-9.7V94.5c0-3.7,2.4-7.2,6.9-9.7
								c8.7-5,23-5,31.7,0c4.4,2.6,6.9,6,6.9,9.7v14.2c0,1.4-0.3,2.7-1,4c-1.1,2.2-3.1,4.1-5.9,5.7c-2.2,1.2-4.7,2.2-7.5,2.9
								c-0.7,0.2-1.4,0.3-2,0.4c-1.4,0.2-2.8,0.4-4.2,0.5C28.2,122.2,27.4,122.2,26.7,122.2z M26.7,82.9c-5.4,0-10.8,1.2-14.9,3.5
								c-3.8,2.2-5.9,5-5.9,8v14.2c0,3,2.1,5.8,5.9,8c4,2.3,9.2,3.5,14.9,3.5c0.7,0,1.4,0,2-0.1c1.3-0.1,2.7-0.2,4-0.4
								c0.7-0.1,1.3-0.2,1.9-0.4c2.6-0.6,4.9-1.5,6.9-2.6c2.4-1.4,4.1-3.1,5.1-4.9c0.5-1,0.8-2.1,0.8-3.1V94.5c0-3-2.1-5.8-5.9-8
								C37.5,84.1,32.1,82.9,26.7,82.9z"/>
						</g>
						<g>
							<path class="st4" d="M42.4,81.6c-0.1-0.1-0.2-0.1-0.3-0.2c-8.5-4.9-22.2-4.9-30.7,0c-0.1,0.1-0.2,0.1-0.3,0.2H5v12.9
								c0,3.2,2.1,6.4,6.4,8.9c8.5,4.9,22.2,4.9,30.7,0c4.2-2.4,6.4-5.7,6.4-8.9V81.6H42.4z"/>
							<path class="st5" d="M42.1,103.3c4.2-2.4,6.4-5.7,6.4-8.9V81.6h-6.1c-0.1-0.1-0.2-0.1-0.3-0.2c-4.2-2.4-9.8-3.7-15.4-3.7V107
								C32.3,107,37.8,105.8,42.1,103.3z"/>
							<g>
								<ellipse class="st2" cx="26.7" cy="81.6" rx="21.7" ry="12.5"/>
								<path class="st5" d="M26.7,95.1c-5.7,0-11.5-1.3-15.9-3.8c-4.4-2.6-6.9-6-6.9-9.7s2.4-7.2,6.9-9.7c8.7-5,23-5,31.7,0
									c4.4,2.6,6.9,6,6.9,9.7s-2.4,7.2-6.9,9.7C38.2,93.8,32.5,95.1,26.7,95.1z M26.7,70c-5.4,0-10.8,1.2-14.9,3.5
									c-3.8,2.2-5.9,5-5.9,8s2.1,5.8,5.9,8c8.2,4.7,21.5,4.7,29.7,0c3.8-2.2,5.9-5,5.9-8s-2.1-5.8-5.9-8
									C37.5,71.2,32.1,70,26.7,70z"/>
							</g>
							<path class="st6" d="M26.7,108c-6,0-11.6-1.4-15.9-3.8c-4.4-2.6-6.9-6-6.9-9.7V81.6c0-3.7,2.4-7.2,6.9-9.7c8.7-5,23-5,31.7,0
								c4.4,2.6,6.9,6,6.9,9.7v12.9c0,1.4-0.3,2.7-1,4c-1.1,2.2-3.1,4.1-5.9,5.7c-2.2,1.2-4.7,2.2-7.5,2.9c-0.7,0.2-1.4,0.3-2,0.4
								c-1.4,0.2-2.8,0.4-4.2,0.5C28.2,108,27.4,108,26.7,108z M26.7,70c-5.4,0-10.8,1.2-14.9,3.5c-3.8,2.2-5.9,5-5.9,8v12.9
								c0,3,2.1,5.8,5.9,8c4,2.3,9.2,3.5,14.9,3.5c0.7,0,1.4,0,2-0.1c1.4-0.1,2.7-0.2,4-0.4c0.7-0.1,1.3-0.2,1.9-0.4
								c2.6-0.6,4.9-1.5,6.9-2.6c2.4-1.4,4.1-3.1,5.1-4.9c0.5-1,0.8-2.1,0.8-3.1l0,0V81.6c0-3-2.1-5.8-5.9-8
								C37.5,71.2,32.1,70,26.7,70z"/>
						</g>
					</g>
					<ellipse class="st4" cx="26.7" cy="81.9" rx="11.9" ry="6.2"/>
					<ellipse class="st4" cx="64" cy="19.3" rx="11.9" ry="6.2"/>
				</g>
				<rect x="4" y="4" class="st7" width="120" height="120"/>
				<rect x="4" y="4" class="st7" width="120" height="120"/>
			</g>
		</g>
	</g>
	<g>
		<rect class="st7" width="128" height="128"/>
	</g>
</g>
</svg>
