<?xml version="1.0" encoding="utf-8"?>
<!-- Generator: Adobe Illustrator 24.1.0, SVG Export Plug-In . SVG Version: 6.00 Build 0)  -->
<svg version="1.1" id="Layer_1" xmlns="http://www.w3.org/2000/svg" xmlns:xlink="http://www.w3.org/1999/xlink" x="0px" y="0px"
	 viewBox="0 0 128 128" style="enable-background:new 0 0 128 128;" xml:space="preserve">
<style type="text/css">
	.st0{fill:#4D9987;}
	.st1{fill:#E9EBDF;}
	.st2{fill:#FFFFFF;}
	.st3{fill:#0E352C;}
	.st4{fill:#27ae60;}
	.st5{fill:#C4D7D3;}
	.st6{fill:#185849;}
	.st7{fill:none;}
</style>
<g id="Layer_1_1_">
</g>
<g>
	<g id="Layer_2_1_">
		<g id="Tech_Concepts_1_">
			<g>
				<g>
					<g>
						<g>
							<g>
								<g>
									<polygon class="st0" points="122.7,22.8 122.8,72.9 107.8,81.6 107.7,31.4 									"/>
								</g>
								<g>
									<polygon class="st1" points="107.8,81.6 77,63.8 77,13.6 107.7,31.4 									"/>
								</g>
								<g>
									<polygon class="st2" points="107.7,31.4 77,13.6 91.9,5 122.7,22.8 									"/>
								</g>
								<g>
									<path class="st0" d="M107.8,82.6c-0.2,0-0.3,0-0.5-0.1c-0.3-0.2-0.5-0.5-0.5-0.9V31.4c0-0.4,0.2-0.7,0.5-0.9l15-8.6
										c0.3-0.2,0.7-0.2,1,0s0.5,0.5,0.5,0.9V73c0,0.4-0.2,0.7-0.5,0.9l-15,8.6C108.1,82.5,108,82.6,107.8,82.6z M108.7,32v47.9
										l13-7.5V24.5L108.7,32z"/>
								</g>
								<g>
									<path class="st0" d="M107.8,82.6c-0.2,0-0.3,0-0.5-0.1L76.5,64.7c-0.3-0.2-0.5-0.5-0.5-0.9V13.6c0-0.4,0.2-0.7,0.5-0.9
										s0.7-0.2,1,0l30.8,17.8c0.3,0.2,0.5,0.5,0.5,0.9v50.2c0,0.4-0.2,0.7-0.5,0.9C108.1,82.5,108,82.6,107.8,82.6z M78,63.2
										l28.8,16.6V31.9L78,15.4V63.2z"/>
								</g>
								<g>
									<path class="st0" d="M107.7,32.4c-0.2,0-0.3,0-0.5-0.1L76.5,14.5C76.2,14.3,76,14,76,13.6s0.2-0.7,0.5-0.9l15-8.6
										c0.3-0.2,0.7-0.2,1,0l30.8,17.8c0.3,0.2,0.5,0.5,0.5,0.9s-0.2,0.7-0.5,0.9l-15,8.6C108.1,32.4,107.9,32.4,107.7,32.4z
										 M79,13.6l28.8,16.6l13-7.5L91.9,6.2L79,13.6z"/>
								</g>
								<path class="st3" d="M107.8,82.6c-0.2,0-0.3,0-0.5-0.1L76.5,64.7c-0.3-0.2-0.5-0.5-0.5-0.9V13.6c0-0.4,0.2-0.7,0.5-0.9
									l15-8.6c0.3-0.2,0.7-0.2,1,0l30.8,17.8c0.3,0.2,0.5,0.5,0.5,0.9V73c0,0.4-0.2,0.7-0.5,0.9l-15,8.6
									C108.1,82.5,108,82.6,107.8,82.6z M78,63.2l29.8,17.2l14-8.1v-49L91.9,6.2l-14,8.1L78,63.2z"/>
							</g>
							<g>
								
									<ellipse transform="matrix(0.3916 -0.9201 0.9201 0.3916 42.3101 127.7625)" class="st1" cx="117.8" cy="31.9" rx="1.8" ry="1"/>
								
									<ellipse transform="matrix(0.3916 -0.9201 0.9201 0.3916 37.0484 125.1105)" class="st2" cx="113.1" cy="34.5" rx="1.8" ry="1"/>
							</g>
						</g>
						<g>
							<g>
								<g>
									<polygon class="st4" points="98.8,47.7 98.9,86.7 83.9,95.4 83.8,56.3 									"/>
								</g>
								<g>
									<polygon class="st5" points="83.9,95.4 53.1,77.6 53.1,38.6 83.8,56.3 									"/>
								</g>
								<g>
									<polygon class="st2" points="83.8,56.3 53.1,38.6 68,29.9 98.8,47.7 									"/>
								</g>
								<g>
									<path class="st4" d="M83.9,96.4c-0.2,0-0.3,0-0.5-0.1c-0.3-0.2-0.5-0.5-0.5-0.9v-39c0-0.4,0.2-0.7,0.5-0.9l15-8.6
										c0.3-0.2,0.7-0.2,1,0s0.5,0.5,0.5,0.9v39c0,0.4-0.2,0.7-0.5,0.9l-15,8.6C84.2,96.3,84.1,96.4,83.9,96.4z M84.8,56.9v36.7
										l13-7.5V49.4L84.8,56.9z"/>
								</g>
								<g>
									<path class="st4" d="M83.9,96.4c-0.2,0-0.3,0-0.5-0.1L52.6,78.5c-0.3-0.2-0.5-0.5-0.5-0.9v-39c0-0.4,0.2-0.7,0.5-0.9
										s0.7-0.2,1,0l30.8,17.8c0.3,0.2,0.5,0.5,0.5,0.9v39c0,0.4-0.2,0.7-0.5,0.9C84.2,96.3,84.1,96.4,83.9,96.4z M54.1,77
										l28.8,16.6V56.9L54.1,40.3V77z"/>
								</g>
								<g>
									<path class="st4" d="M83.8,57.3c-0.2,0-0.3,0-0.5-0.1L52.6,39.4c-0.3-0.2-0.5-0.5-0.5-0.9s0.2-0.7,0.5-0.9l15-8.6
										c0.3-0.2,0.7-0.2,1,0l30.8,17.8c0.3,0.2,0.5,0.5,0.5,0.9s-0.2,0.7-0.5,0.9l-15,8.6C84.2,57.3,84,57.3,83.8,57.3z
										 M55.1,38.6l28.8,16.6l13-7.5L68,31.1L55.1,38.6z"/>
								</g>
								<path class="st6" d="M83.9,96.4c-0.2,0-0.3,0-0.5-0.1L52.6,78.5c-0.3-0.2-0.5-0.5-0.5-0.9v-39c0-0.4,0.2-0.7,0.5-0.9l15-8.6
									c0.3-0.2,0.7-0.2,1,0l30.8,17.8c0.3,0.2,0.5,0.5,0.5,0.9v39c0,0.4-0.2,0.7-0.5,0.9l-15,8.6C84.2,96.3,84.1,96.4,83.9,96.4z
									 M54.1,77l29.8,17.2l14-8.1V48.2L68,31.1l-14,8.1L54.1,77z"/>
							</g>
							<g>
								
									<ellipse transform="matrix(0.3916 -0.9201 0.9201 0.3916 4.8225 120.8932)" class="st5" cx="93.8" cy="56.8" rx="1.8" ry="1"/>
								
									<ellipse transform="matrix(0.3916 -0.9201 0.9201 0.3916 -0.4392 118.2411)" class="st2" cx="89.2" cy="59.5" rx="1.8" ry="1"/>
							</g>
						</g>
						<g>
							<g>
								<g>
									<polygon class="st4" points="74.9,73.7 74.9,100.6 60,109.2 59.9,82.3 									"/>
								</g>
								<g>
									<polygon class="st5" points="60,109.2 29.2,91.4 29.1,64.5 59.9,82.3 									"/>
								</g>
								<g>
									<polygon class="st2" points="59.9,82.3 29.1,64.5 44.1,55.9 74.9,73.7 									"/>
								</g>
								<g>
									<path class="st4" d="M60,110.2c-0.2,0-0.3,0-0.5-0.1c-0.3-0.2-0.5-0.5-0.5-0.9V82.3c0-0.4,0.2-0.7,0.5-0.9l15-8.6
										c0.3-0.2,0.7-0.2,1,0s0.5,0.5,0.5,0.9v26.9c0,0.4-0.2,0.7-0.5,0.9l-15,8.6C60.3,110.2,60.1,110.2,60,110.2z M60.9,82.9
										v24.6l13-7.5V75.4L60.9,82.9z"/>
								</g>
								<g>
									<path class="st4" d="M60,110.2c-0.2,0-0.3,0-0.5-0.1L28.7,92.3c-0.3-0.2-0.5-0.5-0.5-0.9V64.5c0-0.4,0.2-0.7,0.5-0.9
										s0.7-0.2,1,0l30.8,17.8c0.3,0.2,0.5,0.5,0.5,0.9v26.9c0,0.4-0.2,0.7-0.5,0.9C60.3,110.2,60.1,110.2,60,110.2z M30.2,90.9
										L59,107.5V82.9L30.1,66.3L30.2,90.9z"/>
								</g>
								<g>
									<path class="st4" d="M59.9,83.3c-0.2,0-0.3,0-0.5-0.1L28.6,65.4c-0.3-0.2-0.5-0.5-0.5-0.9s0.2-0.7,0.5-0.9l15-8.6
										c0.3-0.2,0.7-0.2,1,0l30.8,17.8c0.3,0.2,0.5,0.5,0.5,0.9s-0.2,0.7-0.5,0.9l-15,8.6C60.3,83.3,60.1,83.3,59.9,83.3z
										 M31.1,64.5l28.8,16.6l13-7.5L44.1,57L31.1,64.5z"/>
								</g>
								<path class="st6" d="M60,110.2c-0.2,0-0.3,0-0.5-0.1L28.7,92.3c-0.3-0.2-0.5-0.5-0.5-0.9V64.5c0-0.4,0.2-0.7,0.5-0.9l15-8.6
									c0.3-0.2,0.7-0.2,1,0l30.8,17.8c0.3,0.2,0.5,0.5,0.5,0.9v26.9c0,0.4-0.2,0.7-0.5,0.9l-15,8.6
									C60.3,110.2,60.1,110.2,60,110.2z M30.2,90.9L60,108l14-8.1V74.2L44.1,57l-14,8.1L30.2,90.9z"/>
							</g>
							<g>
								
									<ellipse transform="matrix(0.3916 -0.9201 0.9201 0.3916 -33.6128 114.6206)" class="st5" cx="69.9" cy="82.7" rx="1.8" ry="1"/>
								
									<ellipse transform="matrix(0.3916 -0.9201 0.9201 0.3916 -38.9831 111.9885)" class="st2" cx="65.2" cy="85.5" rx="1.8" ry="1"/>
							</g>
						</g>
						<g>
							<g>
								<g>
									<polygon class="st0" points="51,96.6 51,114.4 36.1,123 36,105.2 									"/>
								</g>
								<g>
									<polygon class="st1" points="36.1,123 5.3,105.2 5.2,87.4 36,105.2 									"/>
								</g>
								<g>
									<polygon class="st2" points="36,105.2 5.2,87.4 20.2,78.8 51,96.6 									"/>
									<polygon class="st1" points="15.2,87.4 20.2,84.6 41,96.6 36,99.5 									"/>
								</g>
								<g>
									<path class="st0" d="M36.1,124c-0.2,0-0.3,0-0.5-0.1c-0.3-0.2-0.5-0.5-0.5-0.9v-17.8c0-0.4,0.2-0.7,0.5-0.9l15-8.6
										c0.3-0.2,0.7-0.2,1,0s0.5,0.5,0.5,0.9v17.8c0,0.4-0.2,0.7-0.5,0.9l-15,8.6C36.4,124,36.2,124,36.1,124z M37,105.8v15.5
										l13-7.5V98.3L37,105.8z"/>
								</g>
								<g>
									<path class="st0" d="M36.1,124c-0.2,0-0.3,0-0.5-0.1L4.8,106.1c-0.3-0.2-0.5-0.5-0.5-0.9V87.4c0-0.4,0.2-0.7,0.5-0.9
										c0.3-0.2,0.7-0.2,1,0l30.8,17.8c0.3,0.2,0.5,0.5,0.5,0.9V123c0,0.4-0.2,0.7-0.5,0.9C36.4,124,36.2,124,36.1,124z
										 M6.3,104.7l28.8,16.6v-15.5L6.2,89.2L6.3,104.7z"/>
								</g>
								<g>
									<path class="st0" d="M36,106.2c-0.2,0-0.3,0-0.5-0.1L4.7,88.3c-0.3-0.2-0.5-0.5-0.5-0.9s0.2-0.7,0.5-0.9l15-8.6
										c0.3-0.2,0.7-0.2,1,0l30.8,17.8c0.3,0.2,0.5,0.5,0.5,0.9s-0.2,0.7-0.5,0.9l-15,8.6C36.4,106.2,36.2,106.2,36,106.2z
										 M7.2,87.4L36,104.1l13-7.5L20.2,80L7.2,87.4z"/>
								</g>
								<path class="st3" d="M36.1,124c-0.2,0-0.3,0-0.5-0.1L4.8,106.1c-0.3-0.2-0.5-0.5-0.5-0.9V87.4c0-0.4,0.2-0.7,0.5-0.9l15-8.6
									c0.3-0.2,0.7-0.2,1,0l30.8,17.8c0.3,0.2,0.5,0.5,0.5,0.9v17.8c0,0.4-0.2,0.7-0.5,0.9l-15,8.6C36.4,124,36.2,124,36.1,124z
									 M6.3,104.7l29.8,17.2l14-8.1V97.2L20.2,80l-14,8L6.3,104.7z"/>
								<g>
									<polygon class="st5" points="39.1,64.5 44.1,61.6 64.9,73.7 59.9,76.6 									"/>
								</g>
								<g>
									<polygon class="st5" points="63,38.6 68,35.7 88.8,47.7 83.8,50.6 									"/>
								</g>
								<g>
									<polygon class="st1" points="87.6,13.6 92.6,10.8 113.5,22.8 108.4,25.7 									"/>
								</g>
							</g>
							<g>
								
									<ellipse transform="matrix(0.3916 -0.9201 0.9201 0.3916 -69.211 106.6551)" class="st1" cx="46" cy="105.7" rx="1.8" ry="1"/>
								
									<ellipse transform="matrix(0.3916 -0.9201 0.9201 0.3916 -74.5812 104.0231)" class="st2" cx="41.4" cy="108.4" rx="1.8" ry="1"/>
							</g>
						</g>
					</g>
					<path class="st6" d="M91.3,92.1c-0.6,0-1-0.4-1-1v-3.4c0-0.6,0.4-1,1-1s1,0.4,1,1v3.4C92.3,91.6,91.9,92.1,91.3,92.1z"/>
					<path class="st6" d="M67.4,105.9c-0.6,0-1-0.4-1-1v-3.4c0-0.6,0.4-1,1-1s1,0.4,1,1v3.4C68.4,105.4,68,105.9,67.4,105.9z"/>
					<path class="st3" d="M43.5,119.7c-0.6,0-1-0.4-1-1v-3.4c0-0.6,0.4-1,1-1s1,0.4,1,1v3.4C44.5,119.3,44,119.7,43.5,119.7z"/>
					<path class="st3" d="M115.3,78.3c-0.6,0-1-0.4-1-1v-3.4c0-0.6,0.4-1,1-1s1,0.4,1,1v3.4C116.3,77.8,115.8,78.3,115.3,78.3z"/>
				</g>
				<rect x="4" y="4" class="st7" width="120" height="120"/>
				<rect x="4" y="4" class="st7" width="120" height="120"/>
			</g>
		</g>
	</g>
	<g>
		<rect class="st7" width="128" height="128"/>
	</g>
</g>
</svg>
