<?xml version="1.0" encoding="utf-8"?>
<!-- Generator: Adobe Illustrator 24.1.0, SVG Export Plug-In . SVG Version: 6.00 Build 0)  -->
<svg version="1.1" id="Layer_1" xmlns="http://www.w3.org/2000/svg" xmlns:xlink="http://www.w3.org/1999/xlink" x="0px" y="0px"
	 viewBox="0 0 128 128" style="enable-background:new 0 0 128 128;" xml:space="preserve">
<style type="text/css">
	.st0{fill:#C4D7D3;}
	.st1{fill:#4D9987;}
	.st2{fill:#FFFFFF;}
	.st3{fill:#E9EBDF;}
	.st4{fill:#27ae60;}
	.st5{fill:#0E352C;}
	.st6{clip-path:url(#SVGID_2_);}
	.st7{fill:none;}
</style>
<g id="Layer_1_1_">
</g>
<g>
	<g id="Layer_2_1_">
		<g id="Objects_1_">
			<g>
				<g>
					<g>
						<path class="st0" d="M47.5,110.2l-9.5-3.8c-0.4-0.1-0.8-0.1-1.2,0c-1.2,0.7-2.5,1.2-4,1.5c-9.2,1.6-20,11.1-14.3,13.8
							c7.9,3.7,22.3-1.3,27.8-9.2c0.4-0.6,0.9-1.1,1.4-1.7C48,110.7,47.9,110.4,47.5,110.2z"/>
						<path class="st0" d="M50.7,107.5c0.4,0.2,1,0.1,1.3-0.1c4.7-3.8,9.5-7.1,3-9.4c-6.1-2.3-9.5,1.7-13.6,5.2
							c-0.3,0.2-0.2,0.6,0.2,0.7L50.7,107.5z"/>
						<path class="st1" d="M24.8,124c-2.5,0-4.8-0.4-6.7-1.3c-1.6-0.7-2.3-2-2.1-3.6c0.6-4.5,9.3-10.8,16.7-12.1
							c1.3-0.2,2.5-0.7,3.7-1.4c0.6-0.3,1.4-0.4,2-0.1l9.5,3.8l0,0c0.5,0.2,0.9,0.6,1,1.1c0.1,0.4,0,0.9-0.4,1.2
							c-0.5,0.6-1,1.1-1.3,1.6C42.6,119.6,32.9,124,24.8,124z M37.5,107.3C37.4,107.3,37.4,107.3,37.5,107.3
							c-1.5,0.8-2.9,1.3-4.4,1.6c-6.9,1.2-14.6,7.1-15,10.4c-0.1,0.5,0,1.1,1,1.6c7.3,3.4,21.2-1.2,26.6-8.8
							c0.3-0.4,0.6-0.7,0.9-1.1l-8.8-3.6C37.6,107.3,37.5,107.3,37.5,107.3z M47.1,111.2L47.1,111.2l0.4-0.9L47.1,111.2z"/>
						<path class="st1" d="M51.2,108.6c-0.3,0-0.6-0.1-0.9-0.2l-9-3.7c-0.5-0.2-0.9-0.6-1-1.1s0.1-0.9,0.5-1.3s0.8-0.7,1.2-1.1
							c3.6-3.2,7.3-6.5,13.4-4.3c2.3,0.8,3.5,1.9,3.7,3.3c0.4,2.3-2.3,4.5-5.5,7.1l-1,0.8C52.3,108.5,51.7,108.6,51.2,108.6z
							 M42.8,103.2l8.3,3.3l0,0c0.1,0,0.2,0,0.3,0l1-0.8c2.3-1.9,5-4,4.8-5.2c-0.1-0.3-0.4-1-2.5-1.7c-4.9-1.8-7.9,0.8-11.3,3.9
							C43.2,102.9,43,103.1,42.8,103.2z"/>
						<g>
							<path class="st2" d="M55,101.3c1.1,0.4,1.9,0.8,2.4,1.3c-1.1,1.5-3.3,3.1-5.4,4.8c-0.3,0.2-0.9,0.3-1.3,0.1l-7.2-2.9
								C46.8,101.8,50,99.4,55,101.3z"/>
							<path class="st0" d="M51.2,108.6c-0.3,0-0.6-0.1-0.9-0.2l-7.2-2.9c-0.3-0.1-0.6-0.4-0.6-0.8c-0.1-0.3,0.1-0.7,0.3-0.9
								c3.4-3,7-5.6,12.5-3.5l0,0c1.2,0.4,2.1,0.9,2.7,1.5c0.4,0.3,0.4,0.9,0.1,1.3c-1,1.3-2.7,2.7-4.6,4.2l-1,0.8
								C52.3,108.5,51.7,108.6,51.2,108.6z M45.4,104.3l5.7,2.3c0.1,0,0.2,0,0.3,0l1-0.8c1.3-1.1,2.6-2.1,3.5-3
								c-0.3-0.2-0.7-0.4-1.2-0.5l0,0C50.8,100.8,48.1,102.1,45.4,104.3z"/>
						</g>
						<g>
							<path class="st2" d="M18.5,121.8c-0.5-0.2-0.8-0.5-1.1-0.8c2-3.8,9.1-8.6,15.3-9.7c1.5-0.3,2.8-0.8,4-1.5
								c0.3-0.2,0.8-0.2,1.2,0l8.1,3.3C40.3,120.6,26.3,125.4,18.5,121.8z"/>
							<path class="st0" d="M24.9,124c-2.5,0-4.8-0.4-6.8-1.3l0,0c-0.6-0.3-1-0.6-1.4-1c-0.3-0.3-0.3-0.8-0.1-1.1
								c2.3-4.3,9.8-9.1,16.1-10.3c1.3-0.2,2.5-0.7,3.7-1.4c0.6-0.3,1.4-0.4,2-0.1l8.1,3.3c0.3,0.1,0.5,0.4,0.6,0.7
								c0.1,0.3,0,0.6-0.2,0.9C42.2,119.8,32.7,124,24.9,124z M18.9,120.8c6.9,3.2,19.5-0.6,25.5-7.4l-6.8-2.8c-0.1,0-0.2,0-0.3,0
								c-1.4,0.8-2.8,1.3-4.3,1.6c-5.7,1-12,5.2-14.2,8.5C18.8,120.8,18.9,120.8,18.9,120.8L18.9,120.8z"/>
						</g>
						<g>
							<path class="st0" d="M29,55.7l6.7,5.5c0.2,0.2,0.2,0.5-0.1,0.7c-1.2,0.7-2.1,1.5-2.6,2.3c-2.8,5.3-19.3,11.6-24,8.3
								c-6.4-4.6,2.3-12.9,15.9-16.1c1-0.2,1.9-0.5,2.9-0.8C28.2,55.4,28.8,55.4,29,55.7z"/>
							<g>
								<path class="st3" d="M33.7,53.8c-0.3-0.2-0.2-0.6,0.2-0.7c6.7-2.7,12.3-5.5,16.4-1.8c3.9,3.5-2.9,5.5-9,7.8
									c-0.4,0.2-1,0.1-1.2-0.1L33.7,53.8z"/>
								<path class="st3" d="M40.8,60.2c-0.5,0-1-0.2-1.4-0.5l-6.3-5.2l0,0c-0.4-0.3-0.6-0.8-0.5-1.3s0.4-0.9,1-1.2l1.4-0.6
									c6.3-2.6,11.7-4.9,16-1c1.2,1,1.6,2.1,1.4,3.2c-0.5,2.5-4.4,3.9-8.9,5.6c-0.6,0.2-1.3,0.5-1.9,0.7
									C41.4,60.2,41.1,60.2,40.8,60.2z M35.1,53.7l5.6,4.6h0.2c0.6-0.2,1.3-0.5,1.9-0.7c3.3-1.2,7.3-2.7,7.6-4.1
									c0.1-0.4-0.4-1-0.8-1.4c-3.3-3-8-1.1-13.9,1.3L35.1,53.7z"/>
							</g>
							<path class="st1" d="M12.9,74.3c-1.7,0-3.3-0.3-4.4-1.1c-2.6-1.8-2.8-4-2.5-5.5c1-4.9,8.7-10,18.7-12.4
								c0.9-0.2,1.8-0.5,2.8-0.8c0.7-0.2,1.6-0.1,2.1,0.3l6.7,5.5c0.4,0.3,0.6,0.7,0.5,1.2c0,0.5-0.3,0.9-0.7,1.1
								c-1.1,0.7-1.9,1.3-2.2,1.9c-2,3.8-9.6,7.6-15.8,9C16.5,74,14.6,74.3,12.9,74.3z M28.3,56.4h-0.1c-1,0.3-2,0.6-3,0.8
								C14.9,59.7,8.6,64.7,8,68.1c-0.3,1.3,0.3,2.5,1.7,3.5c1.3,0.9,4.2,1,7.9,0.1c6.4-1.5,13-5.2,14.5-8c0.4-0.8,1.2-1.6,2.3-2.3
								L28.3,56.4C28.4,56.4,28.3,56.4,28.3,56.4z M35,61.9L35,61.9L35,61.9z M28.4,56.5L28.4,56.5L28.4,56.5z M28.4,56.4L28.4,56.4
								L28.4,56.4z"/>
							<path class="st1" d="M40.8,60.2c-0.5,0-1-0.2-1.4-0.5l-6.3-5.2l0,0c-0.4-0.3-0.6-0.8-0.5-1.3s0.4-0.9,1-1.2l1.4-0.6
								c6.3-2.6,11.7-4.9,16-1c1.2,1,1.6,2.1,1.4,3.2c-0.5,2.5-4.4,3.9-8.9,5.6c-0.6,0.2-1.3,0.5-1.9,0.7
								C41.4,60.2,41.1,60.2,40.8,60.2z M35.1,53.7l5.6,4.6h0.2c0.6-0.2,1.3-0.5,1.9-0.7c3.3-1.2,7.3-2.7,7.6-4.1
								c0.1-0.4-0.4-1-0.8-1.4c-3.3-3-8-1.1-13.9,1.3L35.1,53.7z"/>
							<g>
								<path class="st2" d="M33,64.1c-2.8,5.3-19.3,11.6-24,8.3c-0.9-0.6-1.5-1.3-1.8-2.1c1.6-4.1,8.5-8.5,17.7-10.7
									c1-0.2,1.9-0.5,2.9-0.8c0.4-0.1,0.9-0.1,1.2,0.2l4.9,4C33.5,63.4,33.2,63.7,33,64.1z"/>
								<path class="st0" d="M12.9,74.3c-1.7,0-3.3-0.3-4.4-1.1c-1-0.7-1.7-1.5-2.1-2.5c-0.1-0.2-0.1-0.5,0-0.8
									c1.8-4.6,9.2-9.1,18.4-11.3c0.9-0.2,1.8-0.5,2.8-0.8c0.7-0.2,1.6-0.1,2.1,0.3l4.9,4c0.2,0.2,0.4,0.5,0.4,0.7
									c0,0.3-0.1,0.6-0.3,0.8c-0.3,0.3-0.6,0.6-0.7,0.8l0,0c-2,3.8-9.6,7.6-15.8,9C16.5,74,14.6,74.3,12.9,74.3z M8.4,70.3
									c0.3,0.5,0.7,0.9,1.3,1.3c1.3,0.9,4.2,1,7.9,0.1c6.4-1.5,13-5.2,14.5-8l0,0c0.1-0.2,0.2-0.4,0.3-0.5l-4.1-3.4
									c0,0-0.1,0-0.2,0c-1,0.3-2,0.6-3,0.8C17,62.5,10.2,66.4,8.4,70.3z"/>
							</g>
							<g>
								<path class="st2" d="M50.3,54.6c0.1,0.1,0.2,0.2,0.3,0.3c-1.7,1.6-5.6,2.8-9.3,4.2c-0.4,0.2-1,0.1-1.2-0.1l-4.2-3.4
									C41.7,53.2,46.6,51.3,50.3,54.6z"/>
								<path class="st3" d="M40.8,60.2c-0.5,0-1-0.2-1.4-0.5l-4.2-3.4c-0.3-0.2-0.4-0.6-0.4-0.9c0.1-0.3,0.3-0.6,0.6-0.8
									C41,52.4,46.7,50,51,53.9l0,0c0.1,0.1,0.2,0.2,0.3,0.3c0.2,0.2,0.3,0.5,0.3,0.7c0,0.3-0.1,0.5-0.3,0.7
									c-1.6,1.4-4.6,2.5-7.7,3.7c-0.6,0.2-1.2,0.5-1.9,0.7C41.4,60.2,41.1,60.2,40.8,60.2z M37.8,55.9l2.9,2.4h0.2
									c0.6-0.2,1.3-0.5,1.9-0.7c2.3-0.9,4.7-1.7,6.1-2.6C46.2,53,42.7,53.9,37.8,55.9z"/>
							</g>
							<path class="st4" d="M12.9,74.3c-1.8,0-3.3-0.3-4.4-1.1C8.2,73,8,72.8,7.8,72.7l-0.1-0.1c-0.2-0.2-0.3-0.3-0.5-0.5
								s-0.4-0.4-0.5-0.6v-0.1c-0.1-0.2-0.2-0.4-0.3-0.6c-0.7-1.4-0.6-3,0.2-4.7c2.2-4.5,9.3-8.7,18.1-10.7c0.9-0.2,1.8-0.5,2.8-0.8
								c0.5-0.2,1-0.2,1.5,0l0,0c0.2,0.1,0.4,0.2,0.6,0.3l6.7,5.5c0.2,0.1,0.3,0.3,0.4,0.5c0.1,0.2,0.2,0.5,0.1,0.7
								c0,0.4-0.3,0.8-0.7,1.1c-0.4,0.2-0.8,0.5-1.1,0.7c-0.1,0.1-0.2,0.2-0.3,0.2l-0.1,0.1c-0.1,0.1-0.2,0.1-0.2,0.2
								c-0.1,0.1-0.1,0.1-0.2,0.2c-0.1,0.1-0.1,0.2-0.2,0.2c0,0.1-0.1,0.1-0.1,0.2c-0.1,0.2-0.2,0.4-0.4,0.6l-0.1,0.1
								c-0.1,0.2-0.2,0.3-0.4,0.5l-0.1,0.1c-0.2,0.2-0.3,0.3-0.4,0.5l-0.1,0.1c-0.2,0.2-0.3,0.3-0.5,0.5L31.8,67
								c-0.2,0.2-0.4,0.3-0.6,0.5c-0.3,0.2-0.5,0.4-0.7,0.6C26.3,71.2,18.4,74.3,12.9,74.3z M8.4,70.3c0.1,0.1,0.2,0.3,0.3,0.4
								C8.8,70.9,9,71,9.1,71.1l0.1,0.1c0.1,0.1,0.3,0.3,0.5,0.4c3.2,2.3,14.2-1,19.7-5.1c0.2-0.2,0.4-0.3,0.6-0.5s0.4-0.3,0.6-0.5
								l0.7,0.7l-0.7-0.7c0.1-0.1,0.3-0.3,0.4-0.4l0.8,0.6L31.1,65c0.1-0.1,0.2-0.2,0.3-0.4l0.9,0.5l-0.8-0.6
								c0.1-0.1,0.2-0.2,0.3-0.3l0.1-0.1c0.1-0.2,0.2-0.3,0.3-0.4c0.1-0.1,0.2-0.3,0.2-0.4c0.1-0.1,0.1-0.2,0.2-0.3l0.1-0.1
								c0.1-0.1,0.2-0.2,0.3-0.3s0.2-0.2,0.3-0.3l0.1-0.1c0.1-0.1,0.3-0.2,0.4-0.3c0.2-0.2,0.4-0.3,0.6-0.5l-6-4.9
								c-0.1,0-0.2,0-0.3,0c-1,0.3-2,0.6-3,0.8c-8,1.9-14.9,5.9-16.8,9.7c-0.5,1.1-0.6,2.1-0.2,3C8.2,70,8.3,70.2,8.4,70.3l-0.8,0.6
								L8.4,70.3z"/>
							<path class="st1" d="M40.8,60.2c-0.5,0-1-0.2-1.4-0.4l-6.3-5.2c-0.4-0.3-0.6-0.8-0.5-1.3s0.4-0.9,1-1.2l1.4-0.6
								c3.7-1.5,7.1-2.9,10.2-3c0.3,0,0.5,0,0.7,0c0.3,0,0.6,0,0.8,0.1c0.2,0,0.5,0.1,0.7,0.1h0.1c0.2,0.1,0.5,0.1,0.7,0.2
								c0.2,0.1,0.5,0.2,0.7,0.3l0.1,0.1c0.2,0.1,0.4,0.2,0.6,0.3c0.2,0.1,0.4,0.3,0.6,0.4l0.2,0.1c0.2,0.1,0.4,0.3,0.6,0.5l0,0l0,0
								c0.1,0.1,0.2,0.2,0.4,0.3l0.1,0.1c0.1,0.1,0.2,0.2,0.2,0.3l0.1,0.1c0.1,0.1,0.1,0.2,0.2,0.3l0.1,0.1c0.1,0.1,0.1,0.2,0.2,0.4
								v0.1c0,0.1,0.1,0.2,0.1,0.3v0.1c0,0.1,0,0.2,0.1,0.3v0.1c0,0.1,0,0.2,0,0.3v0.1c0,0.1,0,0.3-0.1,0.4V54
								c0,0.1-0.1,0.2-0.1,0.3c0,0,0,0.1-0.1,0.1c0,0.1-0.1,0.2-0.1,0.2L52,54.7c-0.1,0.1-0.1,0.2-0.2,0.3c-0.1,0.1-0.2,0.2-0.3,0.3
								l-0.1,0.1c-0.1,0.1-0.1,0.1-0.2,0.2l-0.1,0.1c-0.1,0.1-0.1,0.1-0.2,0.2L50.8,56c-0.1,0.1-0.2,0.2-0.3,0.2l-0.1,0.1
								c-0.1,0.1-0.2,0.1-0.3,0.2L49.3,57l-0.1,0.1c-0.1,0.1-0.3,0.1-0.4,0.2h-0.1l-0.1,0.1l-3,1.3c-0.7,0.3-1.3,0.5-2,0.8l-1.9,0.7
								C41.4,60.2,41.1,60.2,40.8,60.2z M35.1,53.7l5.5,4.6c0,0,0,0,0.1,0s0.1,0,0.1,0l1.9-0.7c0.7-0.2,1.3-0.5,2-0.7l2.9-1.2
								l0.5,0.8l-0.4-0.9l0.4-0.2l0.6,0.8l-0.5-0.9l0.9-0.5c0.2-0.1,0.2-0.2,0.3-0.2l0.7,0.7l-0.6-0.8l0.1-0.1l0.1-0.1l0.1-0.1
								C49.9,54.1,50,54,50,54c0-0.1,0.1-0.1,0.1-0.1l1,0.3l-0.9-0.4c0,0,0-0.1,0.1-0.1v-0.1l1-0.2l-1,0.1v-0.1c0-0.1,0-0.1,0-0.1
								c0-0.1-0.1-0.1-0.1-0.2c-0.1-0.1-0.1-0.1-0.1-0.2l0,0l0.8-0.6l-0.8,0.5C50,52.5,50,52.4,50,52.4c-0.1-0.1-0.2-0.2-0.3-0.3
								l0,0c-0.1-0.1-0.3-0.2-0.4-0.3l-0.1-0.1c-0.1-0.1-0.3-0.2-0.4-0.3c-0.2-0.1-0.3-0.2-0.5-0.3L48,51c-0.2-0.1-0.3-0.1-0.5-0.2
								c-0.2-0.1-0.4-0.1-0.5-0.2c-0.2-0.1-0.4-0.1-0.6-0.1c-0.2,0-0.4,0-0.6-0.1c-0.2,0-0.4,0-0.6,0c-2.7,0.1-6,1.5-9.5,2.9
								L35.1,53.7z"/>
						</g>
						<path class="st4" d="M24.6,124c-0.1,0-0.1,0-0.2,0h-0.6c-0.1,0-0.2,0-0.4,0c-0.1,0-0.2,0-0.4,0h-0.3c-0.1,0-0.2,0-0.3,0
							c-0.1,0-0.2,0-0.4-0.1l-0.6-0.1c-0.1,0-0.3-0.1-0.4-0.1h-0.2c-0.1,0-0.2,0-0.3-0.1c-0.1,0-0.3-0.1-0.4-0.1l-0.5-0.1
							c-0.2-0.1-0.3-0.1-0.5-0.2l-0.4-0.1c-0.3-0.1-0.6-0.2-0.8-0.3c-0.2-0.1-0.4-0.2-0.5-0.3c-0.1,0-0.1-0.1-0.2-0.1
							c-0.1-0.1-0.1-0.1-0.2-0.1c-1.1-0.9-1.5-2.1-1.1-3.6c1.1-4.5,9.5-10.3,16.6-11.6l0,0c1.3-0.2,2.5-0.7,3.7-1.4
							c0.4-0.2,0.9-0.3,1.4-0.3c0.3,0,0.5,0.1,0.7,0.2l9.5,3.8c0.4,0.2,0.8,0.5,0.9,0.9c0.1,0.4,0.1,0.8-0.1,1.1
							c-0.1,0.1-0.1,0.2-0.2,0.3c-0.2,0.3-0.5,0.5-0.7,0.8s-0.4,0.5-0.6,0.8c-0.2,0.3-0.5,0.7-0.8,1l-0.2,0.3
							c-0.3,0.3-0.6,0.6-0.9,1c-0.3,0.3-0.6,0.6-1,0.9l-0.2,0.2c-0.3,0.3-0.7,0.6-1,0.9c0,0,0,0-0.1,0c-0.4,0.3-0.7,0.6-1.1,0.8
							l-0.3,0.2c-0.5,0.4-1,0.7-1.6,1c-0.3,0.2-0.6,0.3-0.9,0.5l-0.3,0.2c-0.2,0.1-0.5,0.2-0.7,0.4l-0.2,0.1
							c-0.1,0.1-0.3,0.1-0.4,0.2l0,0l-0.3,0.2c-0.4,0.2-0.7,0.3-1,0.4H36c-0.3,0.1-0.6,0.2-0.9,0.4H35c-0.3,0.1-0.6,0.2-0.9,0.3H34
							c-0.3,0.1-0.6,0.2-0.9,0.3H33c-0.3,0.1-0.6,0.2-0.9,0.3h-0.2c-0.3,0.1-0.6,0.2-0.9,0.2h-0.2c-0.3,0.1-0.6,0.1-0.8,0.2h-0.2
							c-0.3,0.1-0.6,0.1-0.8,0.2l-0.3,0.1c-0.2,0-0.4,0.1-0.7,0.1l-0.4,0.1c-0.2,0-0.4,0.1-0.6,0.1h-0.4c-0.3,0-0.4,0-0.6,0.1h-0.5
							c-0.1,0-0.3,0-0.4,0L24.6,124C24.8,124,24.7,124,24.6,124z M33,108.9c-6.7,1.2-14.1,6.7-15,10.1c-0.2,0.9,0.1,1.3,0.4,1.5
							l0.2,0.1c0.1,0.1,0.2,0.1,0.3,0.2c0.2,0.1,0.5,0.2,0.7,0.3l0.2,0.1c0.2,0.1,0.3,0.1,0.5,0.2l0.4,0.1c0.1,0,0.2,0.1,0.3,0.1
							l0.5,0.1c0.1,0,0.2,0,0.3,0.1l0.5,0.1c0.1,0,0.2,0,0.3,0l2.1,0.1h1.4c0.2,0,0.3,0,0.5,0h0.5c0.2,0,0.3,0,0.5-0.1l0.4-0.1
							c0.2,0,0.4-0.1,0.6-0.1l0.3-0.1c0.2,0,0.4-0.1,0.7-0.1l0.3-0.1c0.2-0.1,0.5-0.1,0.7-0.2l0.3-0.1c0.2-0.1,0.5-0.1,0.7-0.2h0.1
							h0.1c0.2-0.1,0.5-0.1,0.7-0.2l0.2-0.1c0.3-0.1,0.5-0.2,0.8-0.3l0.2-0.1c0.3-0.1,0.5-0.2,0.8-0.3l0.5,0.9l-0.4-0.9
							c0.3-0.1,0.5-0.2,0.8-0.3l0.5,0.9l-0.4-0.9c0.3-0.1,0.6-0.2,0.8-0.4l0.4-0.2l0,0l0.5-0.3c0.3-0.1,0.5-0.2,0.7-0.4l0.3-0.1
							c0.3-0.2,0.5-0.3,0.8-0.5c0.5-0.3,1-0.6,1.5-0.9l0.2-0.2c0.4-0.3,0.7-0.5,1-0.8l0,0l0,0c0.3-0.3,0.6-0.5,1-0.8l0.2-0.2
							c0.3-0.3,0.6-0.6,0.9-0.8c0.3-0.3,0.5-0.6,0.8-0.9l0.2-0.2c0.2-0.3,0.5-0.6,0.7-0.9s0.5-0.6,0.7-0.9c0.1-0.1,0.1-0.1,0.2-0.2
							l-8.8-3.6h-0.1c-0.1,0-0.2,0-0.2,0C35.9,108.1,34.5,108.6,33,108.9L33,108.9z M47,110.2L47,110.2L47,110.2z"/>
						<path class="st4" d="M51.2,108.6c-0.3,0-0.6-0.1-0.9-0.2l-9-3.7c-0.5-0.2-0.9-0.6-1-1.1s0.1-0.9,0.5-1.3s0.8-0.7,1.2-1.1
							c2.6-2.3,5.3-4.7,8.9-5c0.3,0,0.7,0,1.1,0c0.2,0,0.4,0,0.5,0c0.2,0,0.4,0,0.6,0.1c0.2,0,0.4,0.1,0.6,0.1h0.1
							c0.2,0,0.3,0.1,0.5,0.1l0.2,0.1l-0.1,1l0.3-1l0.2,0.1c0.2,0.1,0.4,0.1,0.6,0.2c0.2,0.1,0.4,0.2,0.6,0.2c0,0,0.1,0,0.1,0.1
							c0.2,0.1,0.3,0.1,0.4,0.2l0.1,0.1c0.2,0.1,0.3,0.1,0.3,0.2l0.2,0.1c0.1,0.1,0.2,0.1,0.3,0.2l0.2,0.1c0.1,0.1,0.2,0.1,0.2,0.2
							l0.1,0.1c0.1,0.1,0.2,0.2,0.3,0.2c0.2,0.2,0.3,0.3,0.4,0.4l0.1,0.1c0.1,0.1,0.1,0.2,0.2,0.2l0.1,0.1c0,0.1,0.1,0.2,0.1,0.2
							c0,0.1,0,0.1,0.1,0.2c0,0.1,0,0.2,0.1,0.2c0,0.1,0,0.1,0,0.2s0,0.2,0,0.2c0,0.1,0,0.1,0,0.2s0,0.2,0,0.3v0.1
							c0,0.1,0,0.3-0.1,0.4v0.1c0,0.1-0.1,0.2-0.1,0.3c0,0,0,0.1-0.1,0.1c0,0.1-0.1,0.2-0.1,0.2l-0.8,1.2l-2.2,2.2
							c-0.3,0.2-0.6,0.5-0.9,0.7l-0.1,0.1l-2.2,1.8c-0.2,0.2-0.4,0.3-0.6,0.3C51.8,108.6,51.5,108.6,51.2,108.6z M42.8,103.2
							l8.3,3.3c0.1,0,0.2,0,0.3,0l2.2-1.8c0.4-0.3,0.7-0.5,0.9-0.8l2.4-2.6l0.1-0.1l0.1-0.3c0-0.1,0-0.1,0-0.2v-0.1l1-0.3l-1,0.2
							v-0.1v-0.1l-0.1-0.1c-0.1-0.1-0.1-0.1-0.2-0.2c-0.1-0.1-0.1-0.1-0.2-0.2l0.5-0.9l-0.6,0.8c0,0-0.1-0.1-0.2-0.1l-0.1-0.1
							c-0.1,0-0.1-0.1-0.2-0.1v0.1c-0.1,0-0.1-0.1-0.2-0.1l-0.1-0.1c-0.1,0-0.2-0.1-0.3-0.1l0.2-1l-0.4,0.9C55,99,54.9,99,54.7,98.9
							s-0.3-0.1-0.5-0.2l-0.5-0.1c-0.1,0-0.2-0.1-0.3-0.1l0.1-1l-0.2,1c-0.1,0-0.3,0-0.4-0.1c-0.2,0-0.3,0-0.5-0.1
							c-0.2,0-0.3,0-0.4,0c-0.3,0-0.6,0-0.8,0c-2.9,0.2-5.3,2.3-7.7,4.5C43.2,103,43,103.1,42.8,103.2z M42.1,102.9l-0.4,0.9
							L42.1,102.9L42.1,102.9z"/>
					</g>
					<g>
						<g>
							<path class="st3" d="M119.1,75.3L119.1,75.3L61.3,41.9l-6.7,11.7L112.4,87l0,0l0,0c2.3,1.3,5.7-0.2,7.6-3.4
								C121.8,80.3,121.4,76.7,119.1,75.3z"/>
							<path class="st1" d="M114.2,88.4c-0.8,0-1.5-0.2-2.2-0.5c-0.1,0-0.1,0-0.2-0.1L54,54.4c-0.2-0.1-0.4-0.4-0.5-0.6
								c-0.1-0.3,0-0.5,0.1-0.8l6.7-11.7c0.3-0.5,0.9-0.6,1.4-0.4l57.8,33.4c0.1,0,0.1,0.1,0.2,0.1c1.3,0.8,2.1,2.3,2.3,4.1
								c0.2,1.8-0.3,3.7-1.3,5.4c-1,1.7-2.4,3.1-4.1,3.8C115.9,88.2,115,88.4,114.2,88.4z M112.7,86c0.1,0,0.1,0,0.2,0.1
								c0.8,0.5,1.9,0.5,3.1,0c1.2-0.6,2.4-1.6,3.2-3c0.8-1.4,1.1-2.9,1-4.2c-0.1-1.2-0.7-2.2-1.5-2.7c-0.1,0-0.1-0.1-0.1-0.1
								l-57-32.8l-5.7,9.9L112.7,86z"/>
						</g>
						<path class="st2" d="M119.1,75.3L119.1,75.3L65.5,44.4l-3.4,5.8l52.8,30.5c2.9,1.7,6.5-1.4,5-4.5
							C119.6,75.8,119.4,75.5,119.1,75.3z"/>
						<path class="st5" d="M114.2,88.4c-0.8,0-1.5-0.2-2.2-0.5c-0.1,0-0.1,0-0.2-0.1L54,54.4c-0.2-0.1-0.4-0.4-0.5-0.6
							c-0.1-0.3,0-0.5,0.1-0.8l6.7-11.7c0.3-0.5,0.9-0.6,1.4-0.4l57.8,33.4c0.1,0,0.1,0.1,0.2,0.1c1.3,0.8,2.1,2.3,2.3,4.1
							c0.2,1.8-0.3,3.7-1.3,5.4c-1,1.7-2.4,3.1-4.1,3.8C115.9,88.2,115,88.4,114.2,88.4z M112.7,86c0.1,0,0.1,0,0.2,0.1
							c0.8,0.5,1.9,0.5,3.1,0c1.2-0.6,2.4-1.6,3.2-3c0.8-1.4,1.1-2.9,1-4.2c-0.1-1.2-0.7-2.2-1.5-2.7c-0.1,0-0.1-0.1-0.1-0.1
							l-57-32.8l-5.7,9.9L112.7,86z"/>
						<g>
							<path class="st1" d="M82.4,51.6L82.4,51.6l-15.5-9l-9.1,15.7l15.5,9l0,0l0,0c3.2,1.8,7.7-0.2,10.2-4.6
								C86.1,58.4,85.6,53.4,82.4,51.6z"/>
							<path class="st1" d="M75.9,68.9c-1,0-2-0.2-2.9-0.7c-0.1,0-0.1,0-0.2-0.1l-15.5-9c-0.2-0.1-0.4-0.4-0.5-0.6
								c-0.1-0.3,0-0.5,0.1-0.8L66,42.1c0.3-0.5,0.9-0.6,1.4-0.4l15.5,9c0.1,0,0.1,0.1,0.2,0.1c1.7,1.1,2.8,2.9,3,5.3
								c0.2,2.3-0.3,4.8-1.7,7.1c-1.3,2.3-3.2,4.1-5.3,5C78,68.7,77,68.9,75.9,68.9z M73.7,66.3c0.1,0,0.1,0,0.2,0.1
								c1.2,0.7,2.8,0.7,4.5,0c1.7-0.8,3.3-2.3,4.4-4.2s1.6-4,1.4-5.9c-0.2-1.8-1-3.2-2.2-3.9c-0.1,0-0.1-0.1-0.2-0.1l-14.5-8.4
								l-8.1,14L73.7,66.3z"/>
						</g>
						<path class="st3" d="M82.4,51.6L82.4,51.6l-10.9-6.3L67,53l9.9,5.7c3.9,2.3,8.6-1.9,6.6-5.9C83.2,52.2,82.9,51.8,82.4,51.6z"
							/>
						<path class="st5" d="M75.9,68.9c-1,0-2-0.2-2.9-0.7c-0.1,0-0.1,0-0.2-0.1l-15.5-9c-0.2-0.1-0.4-0.4-0.5-0.6
							c-0.1-0.3,0-0.5,0.1-0.8L66,42.1c0.3-0.5,0.9-0.6,1.4-0.4l15.5,9c0.1,0,0.1,0.1,0.2,0.1c1.7,1.1,2.8,2.9,3,5.3
							c0.2,2.3-0.3,4.8-1.7,7.1c-1.3,2.3-3.2,4.1-5.3,5C78,68.7,77,68.9,75.9,68.9z M73.7,66.3c0.1,0,0.1,0,0.2,0.1
							c1.2,0.7,2.8,0.7,4.5,0c1.7-0.8,3.3-2.3,4.4-4.2s1.6-4,1.4-5.9c-0.2-1.8-1-3.2-2.2-3.9c-0.1,0-0.1-0.1-0.2-0.1l-14.5-8.4
							l-8.1,14L73.7,66.3z"/>
						<path class="st3" d="M74.3,13L63.4,6.7l0,0C59,4.2,53.3,4.4,47,8c-13.9,8-25.1,29.5-25.1,47.9c0,10.1,3.4,17.2,8.7,20.3l0,0
							l10.9,6.3l1.7-5.8c1.3-0.5,2.5-1.1,3.9-1.8C61,66.9,72.2,45.4,72.2,27c0-3.4-0.4-6.5-1.1-9.2L74.3,13z"/>
						<path class="st2" d="M63.4,6.7L63.4,6.7C59,4.2,53.3,4.4,47,8c-7.6,4.4-14.4,12.8-19,22.5l38,21.9c3.8-8.1,6.1-17.1,6.1-25.4
							c0-3.4-0.4-6.5-1.1-9.2l3.3-4.8L63.4,6.7z"/>
						<path class="st4" d="M41.5,83.5c-0.2,0-0.3,0-0.5-0.1l-10.9-6.3L30,77c-5.8-3.4-9-11.1-9-21.1c0-18.8,11.5-40.7,25.6-48.8
							C52.8,3.5,58.9,3,63.8,5.8c0,0,0.1,0,0.1,0.1l10.9,6.3c0.2,0.1,0.4,0.4,0.5,0.6c0.1,0.3,0,0.6-0.2,0.8l-3,4.4
							c0.7,2.7,1,5.8,1,9c0,18.8-11.5,40.7-25.6,48.8c-1.2,0.7-2.4,1.3-3.5,1.7l-1.5,5.3c-0.1,0.3-0.3,0.5-0.6,0.6
							C41.7,83.5,41.6,83.5,41.5,83.5z M31.2,75.4l9.6,5.6l1.3-4.5c0.1-0.3,0.3-0.5,0.6-0.7c1.2-0.5,2.5-1,3.7-1.8
							c13.7-7.8,24.7-28.9,24.7-47c0-3.3-0.4-6.3-1.1-8.9c-0.1-0.3,0-0.6,0.1-0.8l2.7-3.9L63,7.7c0,0-0.1,0-0.1-0.1
							c-4.2-2.4-9.7-2-15.4,1.3C33.9,16.7,22.9,37.8,22.9,56c0,9.3,3,16.4,8.2,19.4C31.1,75.4,31.2,75.4,31.2,75.4z"/>
						<path class="st4" d="M57.9,48.7c-0.2,0-0.3,0-0.5-0.1l-10.9-6.3C46,42,45.9,41.4,46.1,41c0.3-0.5,0.9-0.6,1.4-0.4l10.9,6.3
							c0.5,0.3,0.6,0.9,0.4,1.4C58.6,48.6,58.2,48.7,57.9,48.7z"/>
						<g>
							
								<ellipse transform="matrix(0.3916 -0.9201 0.9201 0.3916 -8.7029 82.2679)" class="st1" cx="57.9" cy="47.7" rx="38.5" ry="21.8"/>
							<path class="st1" d="M47.9,85.2c-2.5,0-4.8-0.6-6.9-1.8c-5.8-3.4-9.2-11.1-9.2-21.2c0-18.8,11.5-40.7,25.6-48.8
								c6.4-3.7,12.5-4.1,17.4-1.3c5.8,3.4,9.2,11.1,9.2,21.2C84,52,72.5,73.9,58.4,82.1C54.8,84.2,51.2,85.2,47.9,85.2z M67.9,12.3
								c-2.9,0-6.2,1-9.5,2.9c-13.6,7.8-24.6,28.9-24.6,47c0,9.3,3,16.4,8.2,19.4c4.2,2.4,9.7,2,15.4-1.3C70.9,72.5,82,51.4,82,33.3
								c0-9.3-3-16.4-8.2-19.4C72,12.8,70,12.3,67.9,12.3z"/>
						</g>
						<path class="st3" d="M49.6,77.1c-7.1,0-11.7-6.8-11.7-17.3c0-15,9.1-32.5,20.3-38.9c2.7-1.6,5.4-2.4,7.8-2.4
							c7.1,0,11.7,6.8,11.7,17.3c0,15-9.1,32.5-20.3,38.9C54.7,76.3,52.1,77.1,49.6,77.1z"/>
						<path class="st2" d="M72.8,56.4L42.9,39.1c-3.1,6.5-5,13.8-5,20.6c0,10.5,4.6,17.3,11.7,17.3c2.5,0,5.1-0.8,7.8-2.4
							C63.6,71.1,69.1,64.3,72.8,56.4z"/>
						<path class="st5" d="M49.6,78.1C42,78.1,37,70.9,37,59.7c0-15.3,9.3-33.2,20.8-39.8c2.9-1.7,5.7-2.5,8.3-2.5
							c7.7,0,12.7,7.2,12.7,18.3c0,15.3-9.3,33.2-20.8,39.8C55.1,77.2,52.3,78.1,49.6,78.1z M66.1,19.4c-2.3,0-4.7,0.8-7.3,2.2
							C47.9,28,39,45.1,39,59.7C39,69.6,43.2,76,49.7,76c2.3,0,4.7-0.8,7.3-2.2c10.9-6.3,19.8-23.4,19.8-38.1
							C76.8,25.8,72.6,19.4,66.1,19.4z"/>
						<path class="st5" d="M47.9,85.2c-2.4,0-4.7-0.6-6.8-1.7c0,0-0.1,0-0.1-0.1l-10.9-6.3L30,77c-5.8-3.4-9-11.1-9-21.1
							c0-11.1,4.1-23.9,10.9-34.2c0.3-0.5,0.6-0.8,0.8-1.2l0.2-0.2c0.2-0.3,0.5-0.7,0.7-1l0.2-0.3c0.2-0.3,0.5-0.6,0.7-1l0.3-0.3
							c0.2-0.3,0.5-0.6,0.7-0.9l0.3-0.3c0.8-0.9,1.6-1.8,2.4-2.7l0.5-0.5c0.1-0.1,0.3-0.3,0.4-0.4l0.1-0.1c0.2-0.2,0.4-0.4,0.6-0.6
							c0.2-0.2,0.3-0.3,0.5-0.5s0.5-0.4,0.7-0.6c0.2-0.2,0.4-0.3,0.5-0.5c0.2-0.2,0.4-0.4,0.7-0.5c0.2-0.1,0.4-0.3,0.5-0.4
							c0.2-0.2,0.5-0.4,0.7-0.5L43.6,9c0.1-0.1,0.3-0.2,0.4-0.3c0.3-0.2,0.5-0.4,0.8-0.6l0.4-0.3C45.6,7.5,46,7.3,46.5,7
							c6.3-3.5,12.4-4,17.3-1.2c0,0,0.1,0,0.1,0.1l10.9,6.3l0.1,0.1c5.8,3.4,9,11.1,9,21.1C84,52,72.5,73.9,58.4,82.1
							C54.8,84.1,51.2,85.2,47.9,85.2z M41.8,81.6C41.8,81.6,41.9,81.6,41.8,81.6c4.3,2.5,9.8,2.1,15.5-1.2
							C70.9,72.5,82,51.4,82,33.3c0-9.3-3-16.4-8.2-19.4l-0.1-0.1L63.1,7.6c0,0-0.1,0-0.1-0.1c-4.2-2.4-9.7-2-15.4,1.3
							c-0.4,0.2-0.8,0.5-1.2,0.7L46,9.8c-0.3,0.2-0.5,0.3-0.8,0.5l-0.5,0.3c-0.2,0.2-0.5,0.3-0.7,0.5c-0.2,0.1-0.3,0.3-0.5,0.4
							c-0.2,0.2-0.4,0.3-0.6,0.5c-0.2,0.1-0.3,0.3-0.5,0.4c-0.2,0.2-0.4,0.3-0.6,0.5c-0.2,0.2-0.4,0.3-0.5,0.5
							c-0.2,0.2-0.3,0.3-0.5,0.5l-0.2,0.2c-0.1,0.1-0.3,0.3-0.4,0.4L39.7,15c-0.8,0.8-1.6,1.7-2.3,2.6L37.1,18
							c-0.2,0.3-0.5,0.6-0.7,0.9l-0.3,0.3c-0.2,0.3-0.5,0.6-0.7,0.9l-0.2,0.3c-0.2,0.3-0.5,0.7-0.7,1l-0.2,0.2
							c-0.3,0.4-0.5,0.7-0.8,1.1c-6.7,10.1-10.6,22.4-10.6,33.2c0,9.3,3,16.4,8.2,19.4l0.1,0.1L41.8,81.6z"/>
						<path class="st2" d="M58.3,20.8C47.1,27.3,38,44.7,38,59.7c0,4.4,0.8,8.1,2.2,11c2-0.2,4.2-1,6.4-2.3
							c11.2-6.5,20.3-23.9,20.3-38.9c0-4.4-0.8-8.1-2.2-11C62.7,18.8,60.5,19.5,58.3,20.8z"/>
						<g>
							<g>
								<defs>
									<path id="SVGID_1_" d="M58.3,20.8C47.1,27.3,38,44.7,38,59.7c0,4.4,0.8,8.1,2.2,11c2-0.2,4.2-1,6.4-2.3
										c11.2-6.5,20.3-23.9,20.3-38.9c0-4.4-0.8-8.1-2.2-11C62.7,18.8,60.5,19.5,58.3,20.8z"/>
								</defs>
								<clipPath id="SVGID_2_">
									<use xlink:href="#SVGID_1_"  style="overflow:visible;"/>
								</clipPath>
								<g class="st6">
									<path class="st0" d="M34.9,52.6c-0.3-0.3-0.2-0.7,0.3-0.8c7.8-3.2,14.3-6.4,19.1-2c4.5,4.1-3.4,6.4-10.5,9.1
										c-0.5,0.2-1.1,0.1-1.4-0.2L34.9,52.6z"/>
									<path class="st1" d="M43.1,60c-0.6,0-1.1-0.2-1.5-0.5l-7.4-6.1c-0.4-0.3-0.6-0.8-0.5-1.3s0.5-1,1.1-1.2l1.7-0.7
										c7.3-3,13.6-5.6,18.5-1.2c1.3,1.2,1.8,2.4,1.6,3.6c-0.5,2.8-5,4.5-10.2,6.4c-0.7,0.3-1.5,0.5-2.2,0.8
										C43.8,59.9,43.5,60,43.1,60z M36.2,52.4l6.7,5.5c0,0,0.3,0.1,0.5,0c0.7-0.3,1.5-0.6,2.2-0.8c3.9-1.4,8.6-3.2,9-4.9
										c0.1-0.5-0.2-1.1-1-1.7c-4-3.6-9.4-1.3-16.3,1.5L36.2,52.4z"/>
									<g>
										<path class="st2" d="M54.2,53.6c0.1,0.1,0.2,0.2,0.3,0.3c-2,1.8-6.6,3.3-10.8,4.9c-0.5,0.2-1.1,0.1-1.4-0.2l-4.8-4
											C44.2,51.9,49.9,49.7,54.2,53.6z"/>
										<path class="st0" d="M43.1,60c-0.6,0-1.1-0.2-1.5-0.5l-4.8-4c-0.3-0.2-0.4-0.6-0.4-0.9c0.1-0.3,0.3-0.6,0.6-0.8
											c6.4-2.6,13-5.4,17.8-0.9l0,0c0.1,0.1,0.3,0.2,0.4,0.4c0.2,0.2,0.3,0.5,0.3,0.7s-0.1,0.5-0.3,0.7c-1.8,1.6-5.3,2.9-9,4.3
											c-0.7,0.3-1.5,0.5-2.2,0.8C43.8,59.9,43.5,60,43.1,60z M39.4,55l3.6,2.9c0.1,0,0.3,0.1,0.5,0c0.7-0.3,1.5-0.6,2.2-0.8
											c2.8-1,5.7-2.1,7.4-3.2C49.6,51.4,45.3,52.6,39.4,55z"/>
									</g>
									<path class="st0" d="M43.1,60c-0.6,0-1.1-0.2-1.5-0.5l-7.4-6.1c-0.4-0.3-0.6-0.8-0.5-1.3s0.5-1,1.1-1.2l1.6-0.7
										c4.2-1.8,8.3-3.4,11.8-3.5c0.3,0,0.6,0,0.9,0c0.4,0,0.6,0,0.9,0.1c0.3,0,0.5,0.1,0.8,0.1h0.1c0.3,0.1,0.5,0.1,0.8,0.2
										c0.3,0.1,0.5,0.2,0.8,0.3l0.2,0.1c0.2,0.1,0.5,0.2,0.7,0.4c0.3,0.2,0.5,0.3,0.7,0.5l0.2,0.1c0.2,0.2,0.4,0.3,0.7,0.5
										c0.2,0.1,0.3,0.3,0.4,0.4l0.1,0.1c0.1,0.1,0.2,0.2,0.3,0.3l0.1,0.1c0.1,0.1,0.1,0.2,0.2,0.3l0.1,0.1
										c0.1,0.1,0.2,0.3,0.2,0.4v0.1c0,0.1,0.1,0.2,0.1,0.3v0.1c0,0.1,0.1,0.2,0.1,0.3v0.2c0,0.1,0,0.2,0,0.4v0.1
										c0,0.1,0,0.3-0.1,0.4v0.1c0,0.1-0.1,0.2-0.1,0.3l-0.1,0.1c0,0.1-0.1,0.2-0.1,0.3l-0.1,0.1c-0.1,0.1-0.1,0.2-0.2,0.3
										c-0.1,0.2-0.2,0.3-0.3,0.4l-0.1,0.1c-0.1,0.1-0.2,0.2-0.2,0.2l-0.1,0.1C55,54.9,54.9,55,54.8,55l-0.1,0.1
										c-0.1,0.1-0.2,0.2-0.4,0.3l-0.1,0.1c-0.1,0.1-0.2,0.1-0.3,0.2l-1.1,0.6c-0.1,0.1-0.3,0.2-0.5,0.2l-3.7,1.6
										c-0.8,0.3-1.6,0.6-2.4,0.9L44,59.8C43.8,59.9,43.5,60,43.1,60L43.1,60z M42.9,58c0,0,0.1,0,0.2,0c0.2,0,0.2,0,0.2,0
										l2.2-0.8c0.8-0.3,1.6-0.6,2.4-0.9l3.6-1.5c0.1-0.1,0.3-0.1,0.4-0.2l0.1-0.1l1-0.6l0.7,0.8l-0.6-0.8
										c0.1-0.1,0.2-0.1,0.3-0.2l0.7,0.7l-0.6-0.8l0.4-0.4l0.8,0.6L54.1,53c0.1-0.1,0.1-0.1,0.2-0.2c0.1-0.1,0.1-0.1,0.1-0.2
										c0.1-0.1,0.1-0.1,0.1-0.2c0-0.1,0.1-0.1,0.1-0.2c0-0.1,0-0.1,0-0.2c0-0.1,0-0.1,0-0.1c0-0.1,0-0.1,0-0.2
										c0-0.1,0-0.2-0.1-0.2c0-0.1-0.1-0.2-0.1-0.2c-0.1-0.1-0.1-0.2-0.2-0.2l0,0L54.1,51c-0.1-0.1-0.1-0.1-0.2-0.2l0.6-0.8
										l-0.7,0.7c-0.1-0.1-0.2-0.2-0.3-0.3c-0.2-0.2-0.4-0.3-0.5-0.4l-0.1,0c-0.2-0.1-0.3-0.2-0.5-0.3s-0.4-0.2-0.6-0.3l-0.1-0.1
										c-0.2-0.1-0.4-0.2-0.6-0.2c-0.2-0.1-0.4-0.1-0.6-0.2c-0.3-0.1-0.5-0.1-0.7-0.1s-0.5-0.1-0.7-0.1c-0.3,0-0.5,0-0.8,0
										c-3.2,0.1-7,1.7-11.1,3.4l-1,0.4L42.9,58L42.9,58z"/>
								</g>
							</g>
						</g>
						<path class="st5" d="M40.2,71.7c-0.4,0-0.7-0.2-0.9-0.6c-1.5-3.1-2.3-7-2.3-11.4c0-15.3,9.3-33.2,20.8-39.8l0.5,0.9l-0.5-0.9
							c2.3-1.3,4.6-2.1,6.8-2.4c0.4-0.1,0.8,0.2,1,0.5c1.5,3.1,2.3,7,2.3,11.4c0,15.3-9.3,33.2-20.8,39.8c-2.3,1.3-4.6,2.1-6.8,2.4
							C40.3,71.7,40.2,71.7,40.2,71.7z M64.1,19.6c-1.7,0.3-3.5,1-5.3,2C47.9,28,39,45.1,39,59.7c0,3.8,0.6,7.2,1.8,9.9
							c1.7-0.3,3.5-1,5.3-2C57,61.2,65.9,44.1,65.9,29.5C65.9,25.7,65.3,22.3,64.1,19.6z"/>
					</g>
				</g>
				<rect x="4" y="4" class="st7" width="120" height="120"/>
				<rect x="4" y="4" class="st7" width="120" height="120"/>
			</g>
		</g>
	</g>
	<g>
		<rect class="st7" width="128" height="128"/>
	</g>
</g>
</svg>
