<?xml version="1.0" encoding="utf-8"?>
<!-- Generator: Adobe Illustrator 24.1.0, SVG Export Plug-In . SVG Version: 6.00 Build 0)  -->
<svg version="1.1" id="Layer_1" xmlns="http://www.w3.org/2000/svg" xmlns:xlink="http://www.w3.org/1999/xlink" x="0px" y="0px"
	 viewBox="0 0 128 128" style="enable-background:new 0 0 128 128;" xml:space="preserve">
<style type="text/css">
	.st0{fill:#C4D7D3;}
	.st1{fill:#27ae60;}
	.st2{fill:#FFFFFF;}
	.st3{fill:#4D9987;}
	.st4{fill:#E9EBDF;}
	.st5{fill:#0E352C;}
	.st6{fill:#185849;}
	.st7{fill:none;}
</style>
<g id="Layer_1_1_">
</g>
<g>
	<g id="Layer_2_1_">
		<g id="Objects_1_">
			<g>
				<g>
					<g>
						<g>
							<path class="st0" d="M81.9,25l-16.3-9.4c-0.9-0.5-2.3-0.5-3.2,0L46.1,25l-11.4,5l0,0l0,0v11.5l9,5.2c0.4,0.2,0.8,0.3,1.2,0.3
								c0.7,0,1.4-0.3,1.6-0.8c0.3-0.7,1-1.4,1.9-1.9c0.2-0.1,0.4-0.2,0.6-0.3c0,0,0.1,0,0.2-0.1c0.2-0.1,0.3-0.1,0.5-0.2
								c0,0,0.1,0,0.2-0.1c0.2-0.1,0.4-0.1,0.6-0.2h0.1c0.2-0.1,0.4-0.1,0.6-0.2h0.1c0.2,0,0.5-0.1,0.7-0.1l0,0
								c0.3,0,0.5-0.1,0.8-0.1l0,0c0.5,0,1.1,0,1.6,0v2.8l0,0l0,0v6.6c0,0.3,0.2,0.5,0.5,0.7l9,5.2l0,0l0,0l9-5.2
								c0.3-0.2,0.8-0.3,1.2-0.3c0.7,0,1.4,0.3,1.6,0.7c0.4,0.9,1.3,1.7,2.7,2.3c1.3,0.6,3,0.9,4.6,0.9s3.2-0.3,4.6-0.9
								c1.9-0.9,2.8-2.1,2.8-3.4l0,0l0,0v-4.9v-1.6V43l2.7-1.6v-4.9V30l0,0L81.9,25z"/>
							<g>
								<path class="st1" d="M74,52.9V30.2H64v28.2l9-5.2C73.3,53,73.7,52.9,74,52.9z"/>
								<path class="st1" d="M45.2,30v17c0.6-0.1,1.2-0.3,1.4-0.7c0.3-0.7,1-1.4,1.9-1.9c2.3-1.3,5.8-1.6,8.6-0.8l5.3-2.6V20.6
									L46.1,30H45.2z"/>
								<g>
									<polygon class="st1" points="88,44.5 93.3,41.5 93.3,30 88,30 									"/>
								</g>
								<rect x="81.6" y="30.2" class="st1" width="7.8" height="8"/>
							</g>
							<path class="st1" d="M64,59.4c-0.2,0-0.3,0-0.5-0.1l-9-5.2c-0.6-0.4-1-0.9-1-1.6v-8.4c-0.2,0-0.3,0-0.5,0s-0.5,0-0.7,0.1
								c-0.2,0-0.5,0.1-0.7,0.1c-0.3,0.1-0.5,0.1-0.6,0.2l-0.4-0.9l0.3,1c-0.2,0-0.3,0.1-0.5,0.2l-0.5-0.9l0.3,0.9
								c-0.2,0.1-0.3,0.1-0.5,0.2h-0.1c-0.2,0.1-0.4,0.2-0.6,0.3c-0.7,0.4-1.3,0.9-1.5,1.5c-0.4,1-1.6,1.3-2.5,1.3
								c-0.7,0-1.3-0.1-1.7-0.4l-9-5.2c-0.3-0.2-0.5-0.5-0.5-0.9V30c0-0.4,0.2-0.8,0.6-0.9l11.4-4.9L62,14.8c1.2-0.7,3-0.7,4.2,0
								l16.2,9.4L93.7,29c0.4,0.2,0.6,0.5,0.6,0.9v11.5c0,0.4-0.2,0.7-0.5,0.9l-2.2,1.3v8.9c0,0.1,0,0.1,0,0.2
								c-0.1,1.7-1.3,3.2-3.4,4.1c-1.4,0.6-3.2,1-5,1s-3.6-0.3-5-1c-1.6-0.7-2.7-1.7-3.2-2.9c0,0-0.3-0.1-0.7-0.1
								c-0.3,0-0.6,0.1-0.7,0.2l-9,5.2C64.3,59.4,64.2,59.4,64,59.4z M55.5,52.3l8.5,4.9l8.5-4.9c0.6-0.4,1.3-0.4,1.7-0.4
								c1,0,2.1,0.3,2.6,1.3c0.3,0.7,1.1,1.3,2.2,1.8c1.2,0.5,2.7,0.8,4.2,0.8s3-0.3,4.2-0.8c1.4-0.7,2.2-1.6,2.2-2.5v-0.1v-9.3
								c0-0.4,0.2-0.7,0.5-0.9l2.2-1.3V30.6l-10.8-4.7c0,0-0.1,0-0.1-0.1l-16.3-9.4c-0.6-0.3-1.6-0.3-2.2,0l-16.3,9.4
								c0,0-0.1,0-0.1,0.1l-10.8,4.7v10.3l8.5,4.9c0.2,0.1,0.4,0.2,0.7,0.2c0.4,0,0.7-0.2,0.8-0.2c0.4-0.9,1.2-1.7,2.3-2.3
								c0.2-0.1,0.5-0.3,0.7-0.4c0,0,0.1,0,0.1-0.1c0.2-0.1,0.4-0.2,0.6-0.3h0.1c0.2-0.1,0.4-0.2,0.7-0.2h0.1
								c0.3-0.1,0.5-0.1,0.7-0.2c0.3-0.1,0.6-0.1,0.8-0.1c0.3,0,0.6-0.1,0.9-0.1c0.6,0,1.1,0,1.7,0c0.5,0,1,0.5,1,1v9.2H55.5z
								 M55.5,52.5L55.5,52.5L55.5,52.5z"/>
							<g>
								<path class="st2" d="M59.8,38.4c-1.1,0.8-2.5,1.3-4.1,1.6c-1.3,0.2-1.7,1.1-0.7,1.7l9,5.2l9-5.2c0.9-0.5,2.5-0.3,2.9,0.4
									c0.4,0.9,1.3,1.7,2.7,2.3c2.7,1.2,6.5,1.2,9.2,0c3.5-1.6,3.8-4.6,0.6-6.4c-1-0.6-2.1-0.9-3.3-1.1c-1.3-0.2-1.8-1.1-0.8-1.7
									l9-5.2L65.6,14c-0.9-0.5-2.3-0.5-3.2,0L34.7,30l9,5.2c0.9,0.5,2.5,0.3,2.9-0.5c0.3-0.7,1-1.4,1.9-1.9
									c3.1-1.8,8.3-1.7,11.1,0.4C61.8,34.7,61.8,36.9,59.8,38.4z"/>
								<path class="st1" d="M64,47.9c-0.2,0-0.3,0-0.5-0.1l-9-5.2c-0.7-0.4-1.1-1.1-1-1.9c0.2-0.8,1-1.5,2.1-1.6
									c1.5-0.2,2.7-0.7,3.6-1.4c0.7-0.5,1.1-1.2,1.1-1.8s-0.4-1.3-1.2-1.9c-2.5-1.8-7.3-1.9-10.1-0.3c-0.7,0.4-1.3,0.9-1.5,1.5
									c-0.2,0.5-0.8,0.9-1.5,1.2c-1,0.3-2,0.2-2.8-0.3l-9-5.2c-0.3-0.2-0.5-0.5-0.5-0.9s0.2-0.7,0.5-0.9l27.7-16
									c1.2-0.7,3-0.7,4.2,0l27.7,16c0.3,0.2,0.5,0.5,0.5,0.9s-0.2,0.7-0.5,0.9l-8.7,5h0.1c1.4,0.2,2.6,0.6,3.7,1.2
									c1.8,1,2.8,2.5,2.7,4.1c-0.1,1.7-1.3,3.2-3.4,4.1c-2.9,1.3-7,1.4-10,0c-1.6-0.7-2.7-1.7-3.2-2.9c-0.1-0.1-1-0.2-1.4,0
									l-9,5.2C64.3,47.8,64.2,47.9,64,47.9z M55.8,41l8.2,4.7l8.5-4.9c0.8-0.5,1.9-0.6,2.9-0.2c0.7,0.2,1.2,0.6,1.4,1.1
									c0.3,0.7,1.1,1.3,2.2,1.8c2.4,1.1,5.9,1.1,8.3,0c1.4-0.6,2.2-1.5,2.2-2.4c0-0.8-0.6-1.6-1.7-2.3c-0.8-0.5-1.9-0.8-3-1
									c-1.2-0.2-2-0.8-2.1-1.7c-0.1-0.7,0.2-1.4,1-1.8l7.5-4.4L65.1,14.8c-0.6-0.3-1.6-0.3-2.2,0L36.7,30l7.5,4.4
									c0.5,0.3,1.3,0.1,1.5-0.1c0.4-0.9,1.2-1.7,2.3-2.3c3.5-2,9.1-1.8,12.2,0.4c1.3,0.9,2,2.2,2,3.5s-0.7,2.5-1.9,3.4l0,0
									C59.2,40.1,57.6,40.7,55.8,41L55.8,41z M59.8,38.4L59.8,38.4L59.8,38.4z"/>
							</g>
							<g>
								<g>
									<path class="st3" d="M111.2,78.2L94,68.3c-0.1-0.2-0.2-0.3-0.2-0.4c-0.5-0.5-10-0.7-10-0.7v11.5l0,0c0,0.1,0,0.2,0.1,0.2
										h9.5v27.7l27.7-16c0.4-0.3,0.7-0.6,0.7-0.9V78.2H111.2z"/>
									<path class="st3" d="M93.3,107.6c-0.2,0-0.3,0-0.5-0.1c-0.3-0.2-0.5-0.5-0.5-0.9V79.9h-8.5c-0.4,0-0.8-0.2-0.9-0.6
										c0-0.1-0.1-0.2-0.1-0.4c0-0.1,0-0.1,0-0.2V67.2c0-0.3,0.1-0.5,0.3-0.7c0.2-0.2,0.4-0.3,0.7-0.3c9.9,0.2,10.4,0.7,10.7,0.9
										c0.1,0.1,0.2,0.2,0.3,0.4l16.7,9.6h10.2c0.6,0,1,0.4,1,1v11.5c0,0.7-0.4,1.4-1.2,1.8l-27.7,16
										C93.6,107.6,93.5,107.6,93.3,107.6z M84.8,77.9h8.5c0.6,0,1,0.4,1,1v26l26.2-15.1c0.1-0.1,0.2-0.1,0.2-0.1V79.3h-9.5
										c-0.2,0-0.3,0-0.5-0.1l-17.2-9.9c-0.2-0.1-0.3-0.3-0.4-0.4c-1.1-0.2-4.8-0.4-8.3-0.5C84.8,68.4,84.8,77.9,84.8,77.9z"/>
								</g>
								<path class="st4" d="M94.5,81.7V68.5L94,68.3c-0.1-0.2-0.2-0.3-0.2-0.4c-0.5-0.5-10-0.7-10-0.7v11.5l0,0
									c0,0.1,0,0.2,0.1,0.2h9.5v2.8C93.4,81.7,94.5,81.7,94.5,81.7z"/>
								<g>
									<path class="st3" d="M58.6,83.1L55,84.5c-1-0.5-0.6-1.5,0.7-1.7c1.5-0.2,3-0.7,4.1-1.6c1-0.8,1.5-1.7,1.5-2.6l0,0V67.1
										l-12.2,0.7L47.9,71c-0.6,0.5-1.1,1-1.3,1.5c-0.3,0.7-1.9,1-2.9,0.5l-9-5.2L13.3,80.2l-7-2v11.5c0,0.3,0.2,0.7,0.7,0.9
										l27.7,16l9-5.2c0.3-0.2,0.5-0.4,0.5-0.7l0,0v-6.6l-4.9-1.4c0.3-0.2,0.6-0.3,0.9-0.5c2.6-1.2,6.5-1.2,9.2,0
										c1.4,0.6,2.3,1.5,2.7,2.3c0.3,0.7,1.9,1,2.9,0.4l9-5.2v-6.6L58.6,83.1L58.6,83.1z"/>
									<path class="st3" d="M34.7,107.6c-0.2,0-0.3,0-0.5-0.1l-27.7-16c-0.7-0.4-1.2-1.1-1.2-1.8V78.2c0-0.3,0.1-0.6,0.4-0.8
										c0.3-0.2,0.6-0.2,0.9-0.2l6.6,1.9l21-12.1c0.3-0.2,0.7-0.2,1,0l9,5.2c0.5,0.3,1.3,0.1,1.5-0.1c0.3-0.6,0.7-1.2,1.4-1.7
										l1.1-3c0.1-0.4,0.5-0.6,0.9-0.7L61.3,66c0.3,0,0.5,0.1,0.7,0.3s0.3,0.5,0.3,0.7v11.5v0.1c0,1.2-0.7,2.4-1.9,3.3l0,0H64
										c0.6,0,1,0.4,1,1v6.6c0,0.4-0.2,0.7-0.5,0.9l-9,5.2c-0.8,0.5-1.9,0.6-2.9,0.2c-0.7-0.2-1.1-0.6-1.4-1.1
										c-0.3-0.7-1.1-1.3-2.2-1.8c-1.9-0.8-4.5-1-6.6-0.5l2.1,0.6c0.4,0.1,0.7,0.5,0.7,1v6.6c0,0.1,0,0.1,0,0.2
										c-0.1,0.6-0.4,1.1-1,1.4l-9,5.2C35,107.6,34.9,107.6,34.7,107.6z M7.3,89.7c0,0,0.1,0,0.2,0.1l27.2,15.7l8.5-4.9v-5.7
										L39,93.7c-0.4-0.1-0.7-0.4-0.7-0.8c-0.1-0.4,0.1-0.8,0.5-1s0.7-0.4,1-0.6c2.9-1.3,7-1.4,10,0c1.6,0.7,2.7,1.7,3.2,2.9
										c0.1,0.1,1,0.2,1.4,0l8.5-4.9v-5h-4.2l-3.5,1.3c-0.3,0.1-0.6,0.1-0.8-0.1c-0.7-0.4-1.1-1.1-1-1.9c0.2-0.8,1-1.5,2.1-1.6
										c1.5-0.2,2.7-0.7,3.6-1.4c0.7-0.5,1.1-1.2,1.1-1.8c0,0,0,0,0-0.1V68.2l-10.5,0.6l-0.9,2.6c-0.1,0.2-0.2,0.3-0.3,0.5
										c-0.5,0.4-0.8,0.7-1,1.1c-0.2,0.5-0.8,0.9-1.5,1.2c-0.9,0.3-2,0.2-2.8-0.3L34.7,69L13.8,81.1c-0.2,0.1-0.5,0.2-0.8,0.1
										l-5.7-1.7V89.7L7.3,89.7z"/>
								</g>
								<path class="st4" d="M41.5,86.8v-15l-6.8-3.9L13.3,80.2l-7-2v11.5c0,0.3,0.2,0.7,0.7,0.9l27.7,16l6.8-3.9V88.4l-2.1-0.6
									c0.3-0.2,0.6-0.3,0.9-0.5C40.6,87.1,41,86.9,41.5,86.8z"/>
								<g>
									<path class="st3" d="M66.8,95.1c0.2-0.7,0.7-1.3,1.4-1.9c1.1-0.8,2.5-1.3,4.1-1.6c0.8-0.1,1.2-0.5,1.2-0.9l0,0v-6.6H37.4
										v6.6l0,0c0,1.1,0.7,2.2,2.2,3c1,0.6,2.1,0.9,3.3,1.1c0.3,0.1,0.6,0.2,0.8,0.3h-9.1v11.5l27.7,16c0.9,0.5,2.3,0.5,3.2,0
										l27.7-16V95.1H66.8z"/>
									<path class="st3" d="M64,124c-0.8,0-1.5-0.2-2.1-0.5l-27.7-16c-0.3-0.2-0.5-0.5-0.5-0.9V95.1c0-0.6,0.4-1,1-1h3.7
										c-1.2-0.9-1.9-2-2-3.3c0-0.1,0-0.1,0-0.2V84c0-0.3,0.1-0.5,0.3-0.7s0.4-0.3,0.7-0.3h36.1c0.6,0,1,0.4,1,1v6.6
										c0,0.8-0.6,1.7-2.1,1.9c-1.5,0.2-2.7,0.7-3.6,1.4L68.7,94h24.6c0.6,0,1,0.4,1,1v11.5c0,0.4-0.2,0.7-0.5,0.9l-27.7,16
										C65.5,123.8,64.8,124,64,124z M35.7,106l27.2,15.7c0.6,0.3,1.6,0.3,2.2,0L92.3,106V96H66.8c-0.3,0-0.6-0.1-0.8-0.4
										s-0.2-0.6-0.2-0.9c0.3-0.9,0.9-1.8,1.8-2.4c1.2-0.9,2.7-1.5,4.5-1.7c0.2,0,0.3-0.1,0.4-0.1v-5.4H38.4v5.4v0.1
										c0,0.8,0.6,1.6,1.7,2.2c0.8,0.5,1.8,0.8,3,1c0.5,0.1,0.9,0.2,1.2,0.4c0.4,0.2,0.6,0.7,0.4,1.1c-0.1,0.4-0.5,0.7-1,0.7h-8.1
										L35.7,106L35.7,106z"/>
								</g>
								<path class="st4" d="M64,84.1H37.4v6.6l0,0c0,1.1,0.7,2.2,2.2,3c1,0.6,2.1,0.9,3.3,1.1c0.3,0.1,0.6,0.2,0.8,0.3h-9.1v11.5
									l27.7,16c0.4,0.3,1,0.4,1.6,0.4V84.1H64z"/>
								<g>
									<path class="st2" d="M49.4,80.6c1.4,0.6,2.3,1.5,2.7,2.3c0.3,0.7,1.9,1,2.9,0.4l9-5.2L55,73c-0.9-0.5-0.5-1.5,0.7-1.7
										c1.5-0.2,3-0.7,4.1-1.6c2.1-1.5,2-3.8-0.1-5.3c-2.8-2-8-2.2-11.1-0.4c-1,0.6-1.6,1.2-1.9,1.9c-0.3,0.7-1.9,1-2.9,0.5
										l-9-5.2L7,77.2c-0.9,0.5-0.9,1.3,0,1.9l27.7,16l9-5.2c0.9-0.5,0.5-1.5-0.8-1.7c-1.2-0.2-2.4-0.6-3.3-1.1
										c-3.1-1.8-2.9-4.8,0.6-6.4C42.9,79.5,46.7,79.4,49.4,80.6z"/>
									<path class="st3" d="M34.7,96.1c-0.2,0-0.3,0-0.5-0.1L6.5,80c-0.7-0.4-1.2-1.1-1.2-1.8c0-0.7,0.4-1.4,1.2-1.8l27.7-16
										c0.3-0.2,0.7-0.2,1,0l9,5.2c0.5,0.3,1.3,0.1,1.5-0.1c0.4-0.9,1.2-1.7,2.3-2.3c3.5-2,9.1-1.8,12.2,0.4c1.3,0.9,2,2.2,2,3.5
										c0,1.3-0.7,2.5-1.9,3.4s-2.7,1.5-4.5,1.7l0,0l8.7,5c0.3,0.2,0.5,0.5,0.5,0.9s-0.2,0.7-0.5,0.9l-9,5.2
										c-0.8,0.5-1.9,0.6-2.9,0.2c-0.7-0.2-1.2-0.6-1.4-1.1c-0.3-0.7-1.1-1.3-2.2-1.8l0,0c-2.4-1.1-5.9-1.1-8.3,0
										c-1.4,0.6-2.2,1.5-2.3,2.4c0,0.8,0.6,1.6,1.7,2.3c0.8,0.5,1.9,0.8,3,1c1.2,0.2,2,0.8,2.1,1.7c0.1,0.7-0.2,1.4-1,1.8l-9,5.2
										C35,96,34.9,96.1,34.7,96.1z M7.4,78.2C7.4,78.2,7.5,78.2,7.4,78.2L34.7,94l8.2-4.7h-0.1c-1.4-0.2-2.6-0.6-3.7-1.2
										c-1.8-1-2.8-2.5-2.7-4.1c0.1-1.7,1.3-3.2,3.4-4.1c2.9-1.3,7-1.4,10,0c1.6,0.7,2.7,1.7,3.2,2.9c0.1,0.1,1,0.2,1.4,0l7.5-4.4
										L54.4,74c-0.7-0.4-1.1-1.1-1-1.9c0.2-0.8,1-1.5,2.1-1.6c1.5-0.2,2.7-0.7,3.6-1.4c0.7-0.5,1.1-1.2,1.1-1.8
										c0-0.6-0.4-1.3-1.2-1.9c-2.5-1.8-7.3-1.9-10-0.3c-0.7,0.4-1.3,0.9-1.5,1.5c-0.2,0.5-0.8,0.9-1.5,1.2
										c-0.9,0.3-2,0.2-2.8-0.3l-8.5-4.9L7.4,78.2C7.5,78.1,7.4,78.2,7.4,78.2z"/>
								</g>
								<g>
									<path class="st2" d="M68.2,86.6c1.1-0.8,2.5-1.3,4.1-1.6c1.3-0.2,1.7-1.1,0.7-1.7l-9-5.2l-9,5.2c-0.9,0.5-2.5,0.3-2.9-0.4
										c-0.4-0.9-1.3-1.7-2.7-2.3c-2.7-1.2-6.5-1.2-9.2,0c-3.5,1.6-3.8,4.6-0.6,6.4c1,0.6,2.1,0.9,3.3,1.1
										c1.3,0.2,1.8,1.1,0.8,1.7l-9,5.2l27.7,16c0.9,0.5,2.3,0.5,3.2,0l27.7-16l-9-5.2c-0.9-0.5-2.5-0.3-2.9,0.5
										c-0.3,0.7-1,1.4-1.9,1.9c-3.1,1.8-8.3,1.7-11.1-0.4C66.2,90.4,66.2,88.1,68.2,86.6z"/>
									<path class="st3" d="M64,112.5c-0.8,0-1.5-0.2-2.1-0.5L34.2,96c-0.3-0.2-0.5-0.5-0.5-0.9s0.2-0.7,0.5-0.9l8.7-5h-0.1
										c-1.4-0.2-2.6-0.6-3.7-1.2c-1.8-1-2.8-2.5-2.7-4.1c0.1-1.7,1.3-3.2,3.4-4.1c2.9-1.3,7-1.4,10,0c1.6,0.7,2.7,1.7,3.2,2.9
										c0.1,0.1,1,0.2,1.4,0l9-5.2c0.3-0.2,0.7-0.2,1,0l9,5.2c0.7,0.4,1.1,1.1,1,1.9c-0.2,0.8-1,1.5-2.1,1.6
										c-1.5,0.2-2.7,0.7-3.6,1.4l0,0c-0.7,0.5-1.1,1.2-1.1,1.8c0,0.6,0.4,1.3,1.2,1.9c2.5,1.8,7.3,1.9,10.1,0.3
										c0.7-0.4,1.3-0.9,1.5-1.5c0.2-0.5,0.8-0.9,1.5-1.2c0.9-0.3,2-0.2,2.8,0.3l9,5.2c0.3,0.2,0.5,0.5,0.5,0.9S94,96,93.7,96.2
										l-27.7,16C65.5,112.3,64.8,112.5,64,112.5z M36.7,95.1l26.2,15.1c0.6,0.3,1.6,0.3,2.2,0l26.2-15.1l-7.5-4.4
										c-0.5-0.3-1.3-0.1-1.5,0.1c-0.4,0.9-1.2,1.7-2.3,2.3c-3.5,2-9.1,1.8-12.2-0.4c-1.3-0.9-2-2.2-2-3.5s0.7-2.5,1.9-3.4l0,0
										c1.2-0.9,2.7-1.5,4.5-1.7l0,0L64,79.3l-8.5,4.9c-0.8,0.5-1.9,0.6-2.9,0.2c-0.7-0.2-1.2-0.6-1.4-1.1
										c-0.3-0.7-1.1-1.3-2.2-1.8c-2.4-1.1-5.9-1.1-8.3,0c-1.4,0.6-2.2,1.5-2.2,2.4c0,0.8,0.6,1.6,1.7,2.3c0.8,0.5,1.9,0.8,3,1
										c1.2,0.2,2,0.8,2.1,1.7c0.1,0.7-0.2,1.4-1,1.8L36.7,95.1z M68.2,86.6L68.2,86.6L68.2,86.6z"/>
								</g>
								<g>
									<path class="st2" d="M78.6,75.7c-1.4-0.6-2.3-1.5-2.7-2.3c-0.3-0.7-1.9-1-2.9-0.4l-9,5.2l9,5.2c0.9,0.5,0.5,1.5-0.7,1.7
										c-1.5,0.2-3,0.7-4.1,1.6c-2.1,1.5-2,3.8,0.1,5.3c2.8,2,8,2.2,11.1,0.4c1-0.6,1.6-1.2,1.9-1.9c0.3-0.7,1.9-1,2.9-0.5l9,5.2
										l27.7-16c0.9-0.5,0.9-1.3,0-1.9l-27.7-16l-9,5.2C83.3,67,83.7,68,85,68.2c1.2,0.2,2.4,0.6,3.3,1.1c3.1,1.8,2.9,4.8-0.6,6.4
										C85.1,76.9,81.3,76.9,78.6,75.7z"/>
									<path class="st3" d="M93.3,96.1c-0.2,0-0.3,0-0.5-0.1l-9-5.2c-0.5-0.3-1.3-0.1-1.5,0.1c-0.4,0.9-1.2,1.7-2.3,2.3
										c-3.5,2-9.1,1.8-12.2-0.4c-1.3-0.9-2-2.2-2-3.5s0.7-2.5,1.9-3.4c1.2-0.9,2.7-1.5,4.5-1.7l0,0l-8.7-5
										C63.2,79,63,78.7,63,78.3s0.2-0.7,0.5-0.9l9-5.2c0.8-0.5,1.9-0.6,2.9-0.2c0.7,0.2,1.2,0.6,1.4,1.1c0.3,0.7,1.1,1.3,2.2,1.8
										l0,0c2.4,1.1,5.9,1.1,8.3,0c1.4-0.6,2.2-1.5,2.3-2.4c0-0.8-0.6-1.6-1.7-2.3c-0.8-0.5-1.9-0.8-3-1c-1.2-0.2-2-0.8-2.1-1.7
										c-0.1-0.7,0.2-1.4,1-1.8l9-5.2c0.3-0.2,0.7-0.2,1,0l27.7,16c0.7,0.4,1.2,1.1,1.2,1.8c0,0.7-0.4,1.4-1.2,1.8L93.8,96
										C93.6,96,93.5,96.1,93.3,96.1z M83.1,88.6c0.6,0,1.2,0.1,1.7,0.4l8.5,4.9l27.2-15.7c0,0,0.1,0,0.1-0.1c0,0-0.1,0-0.1-0.1
										L93.3,62.4l-8.2,4.7h0.1c1.4,0.2,2.6,0.6,3.7,1.2c1.8,1,2.8,2.5,2.7,4.1c-0.1,1.7-1.3,3.2-3.4,4.1c-2.9,1.3-7,1.4-10,0
										c-1.6-0.7-2.7-1.7-3.2-2.9c-0.1-0.1-1-0.2-1.4,0L66,78.2l7.5,4.4c0.7,0.4,1.1,1.1,1,1.9c-0.2,0.8-1,1.5-2.1,1.6
										c-1.5,0.2-2.7,0.7-3.6,1.4c-0.7,0.5-1.1,1.2-1.1,1.8c0,0.6,0.4,1.3,1.2,1.9c2.5,1.8,7.3,1.9,10,0.3
										c0.7-0.4,1.3-0.9,1.5-1.5c0.2-0.5,0.8-0.9,1.5-1.2C82.3,88.6,82.7,88.6,83.1,88.6z"/>
								</g>
								<path class="st5" d="M93.3,107.6c-0.2,0-0.3,0-0.5-0.1c-0.3-0.2-0.5-0.5-0.5-0.9v-11l-8.5-4.9c-0.5-0.3-1.3-0.1-1.5,0.1
									c-0.4,0.9-1.2,1.7-2.3,2.3c-3.5,2-9.1,1.8-12.2-0.4c-1.3-0.9-2-2.2-2-3.5s0.7-2.5,1.9-3.4c1.2-0.9,2.7-1.5,4.5-1.7l0,0
									l-8.7-5c-0.3-0.2-0.5-0.5-0.5-0.9s0.2-0.7,0.5-0.9l9-5.2c0.8-0.5,1.9-0.6,2.9-0.2c0.7,0.2,1.2,0.6,1.4,1.1
									c0.3,0.7,1.1,1.3,2.2,1.8s2.4,0.7,3.8,0.8v-8.4c0-0.1,0-0.1,0-0.2c0.1-0.6,0.4-1.1,1-1.4l9-5.2c0.3-0.2,0.7-0.2,1,0l27.7,16
									c0.7,0.4,1.2,1.1,1.2,1.8v11.5c0,0.7-0.4,1.4-1.2,1.8l-27.7,16C93.6,107.6,93.5,107.6,93.3,107.6z M83.1,88.6
									c0.6,0,1.2,0.1,1.7,0.4l9,5.2c0.3,0.2,0.5,0.5,0.5,0.9v9.8l26.2-15.1c0.1-0.1,0.2-0.1,0.2-0.1V78.3c0,0-0.1-0.1-0.2-0.1
									L93.3,62.4l-8.5,4.9l0,0v9.2c0,0.5-0.4,1-1,1c-2,0.1-4-0.2-5.6-0.9c-1.6-0.7-2.7-1.7-3.2-2.9c-0.1-0.1-1-0.2-1.4,0L66,78.2
									l7.5,4.4c0.7,0.4,1.1,1.1,1,1.9c-0.2,0.8-1,1.5-2.1,1.6c-1.5,0.2-2.7,0.7-3.6,1.4c-0.7,0.5-1.1,1.2-1.1,1.8
									c0,0.6,0.4,1.3,1.2,1.9c2.5,1.8,7.3,1.9,10,0.3c0.7-0.4,1.3-0.9,1.5-1.5c0.2-0.5,0.8-0.9,1.5-1.2
									C82.3,88.6,82.7,88.6,83.1,88.6z"/>
								<path class="st5" d="M34.7,107.6c-0.2,0-0.3,0-0.5-0.1l-27.7-16c-0.7-0.4-1.2-1.1-1.2-1.8V78.2c0-0.7,0.4-1.4,1.2-1.8
									l27.7-16c0.3-0.2,0.7-0.2,1,0l9,5.2c0.5,0.3,1.3,0.1,1.5-0.1c0.4-0.9,1.2-1.7,2.3-2.3c3.5-2,9.1-1.8,12.2,0.4
									c1.3,0.9,2,2.1,2,3.4v0.1V76l2.2,1.3c0.3,0.2,0.5,0.5,0.5,0.9s-0.2,0.7-0.5,0.9l-9,5.2c-0.8,0.5-1.9,0.6-2.9,0.2
									c-0.7-0.2-1.1-0.6-1.4-1.1c-0.3-0.7-1.1-1.3-2.2-1.8c-2.4-1.1-5.9-1.1-8.3,0c-1.4,0.6-2.2,1.5-2.3,2.4
									c0,0.8,0.6,1.6,1.7,2.3c0.8,0.5,1.9,0.8,3,1c1.2,0.2,2,0.8,2.1,1.7c0.1,0.7-0.2,1.4-1,1.8l-8.5,4.9v11
									c0,0.4-0.2,0.7-0.5,0.9C35,107.6,34.9,107.6,34.7,107.6z M7.3,89.7c0,0,0.1,0,0.2,0.1l26.2,15.1v-9.8c0-0.4,0.2-0.7,0.5-0.9
									l8.7-5h-0.1c-1.4-0.2-2.7-0.6-3.7-1.2c-1.8-1-2.8-2.5-2.7-4.1c0.1-1.7,1.3-3.2,3.4-4.1c2.9-1.3,7-1.4,10,0
									c1.6,0.7,2.7,1.7,3.2,2.9c0.1,0.1,1,0.2,1.4,0l7.5-4.4l-1.2-0.7c-0.3-0.2-0.5-0.5-0.5-0.9v-9.4v-0.1c0-0.6-0.4-1.3-1.2-1.9
									c-2.5-1.8-7.3-1.9-10-0.3c-0.7,0.4-1.3,0.9-1.5,1.5c-0.2,0.5-0.8,0.9-1.5,1.2c-0.9,0.3-2,0.2-2.8-0.3l-8.5-4.9L7.5,78.1
									c-0.1,0.1-0.2,0.1-0.2,0.1V89.7L7.3,89.7z"/>
								<path class="st5" d="M64,124c-0.8,0-1.5-0.2-2.1-0.5l-27.7-16c-0.3-0.2-0.5-0.5-0.5-0.9V95.1c0-0.4,0.2-0.7,0.5-0.9l8.7-5
									h-0.1c-1.4-0.2-2.6-0.6-3.7-1.2c-1.8-1-2.8-2.5-2.7-4.1c0.1-1.7,1.3-3.2,3.4-4.1c2.9-1.3,7-1.4,10,0
									c1.6,0.7,2.7,1.7,3.2,2.9c0.1,0.1,1,0.2,1.4,0l9-5.2c0.3-0.2,0.7-0.2,1,0l9,5.2c0.7,0.4,1.1,1.1,1,1.9
									c-0.2,0.8-1,1.5-2.1,1.6c-1.5,0.2-2.7,0.7-3.6,1.4c-0.7,0.5-1.1,1.2-1.1,1.8c0,0.6,0.4,1.3,1.2,1.9
									c2.5,1.8,7.3,1.9,10.1,0.3c0.7-0.4,1.3-0.9,1.5-1.5c0.2-0.5,0.8-0.9,1.5-1.2c0.9-0.3,2-0.2,2.8,0.3l9,5.2
									c0.3,0.2,0.5,0.5,0.5,0.9v11.5c0,0.4-0.2,0.7-0.5,0.9l-27.7,16C65.5,123.8,64.8,124,64,124z M35.7,106l27.2,15.7
									c0.6,0.3,1.6,0.3,2.2,0L92.3,106V95.7l-8.5-4.9c-0.5-0.3-1.3-0.1-1.5,0.1c-0.4,0.9-1.2,1.7-2.3,2.3c-3.5,2-9.1,1.8-12.2-0.4
									c-1.3-0.9-2-2.2-2-3.5s0.7-2.5,1.9-3.4c1.2-0.9,2.7-1.5,4.5-1.7l0,0L64,79.3l-8.5,4.9c-0.8,0.5-1.9,0.6-2.9,0.2
									c-0.7-0.2-1.2-0.6-1.4-1.1c-0.3-0.7-1.1-1.3-2.2-1.8c-2.4-1.1-5.9-1.1-8.3,0c-1.4,0.6-2.2,1.5-2.2,2.4
									c0,0.8,0.6,1.6,1.7,2.3c0.8,0.5,1.9,0.8,3,1c1.2,0.2,2,0.8,2.1,1.7c0.1,0.7-0.2,1.4-1,1.8l-8.5,4.9L35.7,106L35.7,106z"/>
							</g>
							<path class="st6" d="M64,59.4c-0.2,0-0.3,0-0.5-0.1l-9-5.2c-0.6-0.4-1-0.9-1-1.6v-8.4c-0.1,0-0.3,0-0.4,0h-0.5
								c-0.3,0-0.5,0.1-0.7,0.1l-0.3,0.1c-0.3,0.1-0.5,0.1-0.8,0.2h-0.1c-0.3,0.1-0.5,0.2-0.7,0.3l-0.2,0.1
								c-0.2,0.1-0.5,0.2-0.7,0.3c0,0,0,0-0.1,0c-0.7,0.4-1.2,0.9-1.5,1.4c0,0,0,0.1-0.1,0.1c-0.1,0.2-0.3,0.4-0.4,0.5
								c-0.1,0.1-0.2,0.1-0.3,0.2c-0.1,0.1-0.2,0.1-0.3,0.2c-0.1,0.1-0.3,0.1-0.4,0.2c-0.1,0-0.1,0-0.2,0.1c-0.2,0-0.3,0.1-0.5,0.1
								h-0.1l0,0c-0.1,0-0.2,0-0.3,0c-0.5,0-1.1-0.1-1.8-0.4l-9-5.2c-0.3-0.2-0.5-0.5-0.5-0.9V30c0-0.4,0.2-0.7,0.5-0.9l27.7-16
								c1.2-0.7,3-0.7,4.2,0l27.7,16c0.3,0.2,0.5,0.5,0.5,0.9v11.5c0,0.4-0.2,0.7-0.5,0.9l-2.2,1.3v8.9c0,0.1,0,0.1,0,0.2
								c0,0.1,0,0.3,0,0.4c0,0.1,0,0.2-0.1,0.3c0,0.2-0.1,0.2-0.1,0.3c-0.1,0.1-0.1,0.3-0.2,0.5c0,0,0,0.1-0.1,0.1
								c-0.1,0.2-0.2,0.3-0.3,0.5c-0.6,0.8-1.5,1.5-2.6,2c-1.4,0.6-3.2,1-5,1s-3.6-0.3-5-1c-1.6-0.7-2.7-1.7-3.2-2.9
								c0,0-0.4-0.2-0.9-0.1h-0.1c-0.1,0-0.1,0-0.2,0S73.5,54,73.4,54l-9,5.2C64.3,59.4,64.2,59.4,64,59.4z M55.5,52.3l8.5,4.9
								l8.5-4.9c0.2-0.1,0.5-0.2,0.8-0.3c0.1,0,0.3-0.1,0.4-0.1c0.2,0,0.4-0.1,0.5-0.1c1,0,2.1,0.3,2.6,1.3c0.3,0.7,1.1,1.3,2.2,1.8
								c1.2,0.5,2.6,0.8,4.2,0.8c1.5,0,3-0.3,4.2-0.8c0.8-0.4,1.4-0.8,1.8-1.3c0.1-0.1,0.1-0.2,0.2-0.3s0.1-0.2,0.1-0.3v-0.1v-0.2
								c0-0.1,0-0.2,0-0.2v-0.1c0,0,0,0,0-0.1V43c0-0.4,0.2-0.7,0.5-0.9l2.2-1.3V30.5L65.1,14.8c-0.6-0.3-1.6-0.3-2.2,0L35.7,30.5
								v10.4l8.5,4.9c0.2,0.1,0.4,0.2,0.7,0.2H45c0,0,0,0,0.1,0s0.2,0,0.2,0c0.1,0,0.2-0.1,0.2-0.1l0.1-0.1c0.4-0.9,1.2-1.7,2.3-2.3
								l0,0c0.3-0.2,0.6-0.3,0.9-0.5l0.2-0.1c0.3-0.1,0.6-0.2,0.9-0.3l0.2-0.1c0.3-0.1,0.7-0.2,1-0.2l0.4-0.1c0.2,0,0.5-0.1,0.7-0.1
								l0.6-0.1c0.5,0,1,0,1.4,0h0.2c0.5,0,1,0.5,1,1L55.5,52.3L55.5,52.3z M55.5,52.5L55.5,52.5L55.5,52.5z"/>
						</g>
						<g>
							<path class="st6" d="M93.3,31c-0.3,0-0.5-0.1-0.7-0.3c-0.2-0.2-0.3-0.4-0.3-0.7c0-0.3,0.1-0.5,0.3-0.7c0.4-0.4,1-0.4,1.4,0
								c0.2,0.2,0.3,0.4,0.3,0.7c0,0.3-0.1,0.5-0.3,0.7C93.8,30.8,93.6,31,93.3,31z"/>
							<path class="st6" d="M92.3,23.7c0-0.6,0.4-1,1-1l0,0c0.5,0,1,0.4,1,1l0,0c0,0.6-0.5,1-1,1l0,0C92.7,24.7,92.3,24.3,92.3,23.7
								z M92.3,17.5c0-0.6,0.4-1,1-1l0,0c0.5,0,1,0.4,1,1l0,0c0,0.6-0.5,1-1,1l0,0C92.7,18.5,92.3,18,92.3,17.5z M92.3,11.2
								c0-0.5,0.4-1,1-1l0,0c0.5,0,1,0.5,1,1l0,0c0,0.6-0.5,1-1,1l0,0C92.7,12.2,92.3,11.8,92.3,11.2z"/>
							<path class="st6" d="M93.3,6c-0.3,0-0.5-0.1-0.7-0.3c-0.2-0.2-0.3-0.5-0.3-0.7s0.1-0.5,0.3-0.7c0.1-0.1,0.2-0.2,0.3-0.2
								C93.3,3.9,93.7,4,94,4.3c0.2,0.2,0.3,0.4,0.3,0.7S94.2,5.5,94,5.7C93.8,5.9,93.6,6,93.3,6z"/>
						</g>
						<g>
							<path class="st6" d="M34.7,31c-0.3,0-0.5-0.1-0.7-0.3c-0.2-0.2-0.3-0.4-0.3-0.7c0-0.3,0.1-0.5,0.3-0.7c0.4-0.4,1-0.4,1.4,0
								c0.2,0.2,0.3,0.4,0.3,0.7c0,0.3-0.1,0.5-0.3,0.7C35.2,30.8,35,31,34.7,31z"/>
							<path class="st6" d="M33.7,23.7c0-0.6,0.5-1,1-1l0,0c0.6,0,1,0.4,1,1l0,0c0,0.6-0.4,1-1,1l0,0C34.1,24.7,33.7,24.3,33.7,23.7
								z M33.7,17.5c0-0.6,0.5-1,1-1l0,0c0.6,0,1,0.4,1,1l0,0c0,0.6-0.4,1-1,1l0,0C34.1,18.5,33.7,18,33.7,17.5z M33.7,11.2
								c0-0.5,0.5-1,1-1l0,0c0.6,0,1,0.5,1,1l0,0c0,0.6-0.4,1-1,1l0,0C34.1,12.2,33.7,11.8,33.7,11.2z"/>
							<path class="st6" d="M34.7,6c-0.3,0-0.5-0.1-0.7-0.3c-0.2-0.2-0.3-0.5-0.3-0.7c0-0.1,0-0.3,0.1-0.4s0.1-0.2,0.2-0.3
								c0.4-0.4,1-0.4,1.4,0c0.2,0.2,0.3,0.4,0.3,0.7s-0.1,0.5-0.3,0.7C35.2,5.9,35,6,34.7,6z"/>
						</g>
					</g>
				</g>
				<rect x="4" y="4" class="st7" width="120" height="120"/>
				<rect x="4" y="4" class="st7" width="120" height="120"/>
			</g>
		</g>
	</g>
	<g>
		<rect class="st7" width="128" height="128"/>
	</g>
</g>
</svg>
