<?xml version="1.0" encoding="utf-8"?>
<!-- Generator: Adobe Illustrator 24.1.0, SVG Export Plug-In . SVG Version: 6.00 Build 0)  -->
<svg version="1.1" id="Layer_1" xmlns="http://www.w3.org/2000/svg" xmlns:xlink="http://www.w3.org/1999/xlink" x="0px" y="0px"
	 viewBox="0 0 128 128" style="enable-background:new 0 0 128 128;" xml:space="preserve">
<style type="text/css">
	.st0{fill:#E9EBDF;}
	.st1{fill:#4D9987;}
	.st2{fill:#FFFFFF;}
	.st3{fill:#0E352C;}
	.st4{fill:#C4D7D3;}
	.st5{fill:#27ae60;}
	.st6{fill:#185849;}
	.st7{fill:none;}
</style>
<g id="Layer_1_1_">
</g>
<g>
	<g id="Layer_2_1_">
		<g id="New_Icon_Set_1_">
			<g>
				<g>
					<g>
						<g>
							<g>
								<g>
									<g>
										<g>
											<path class="st0" d="M83.7,81.8l-16.1-9.3c-2-1.1-5.2-1.1-7.2,0l-16.1,9.3H19.5v15.5c0,0.7,0.5,1.5,1.5,2.1l39.4,22.7
												c2,1.1,5.2,1.1,7.2,0L107,99.4c1-0.6,1.5-1.3,1.5-2.1V81.8H83.7z"/>
											<path class="st1" d="M64,124c-1.5,0-2.9-0.3-4.1-1l-39.4-22.7c-1.3-0.7-2-1.8-2-2.9V81.8c0-0.6,0.4-1,1-1H44l15.9-9.2
												c2.3-1.3,5.9-1.3,8.2,0L84,80.8h24.5c0.6,0,1,0.4,1,1v15.5c0,1.2-0.7,2.2-2,2.9L68.1,123C66.9,123.7,65.5,124,64,124z
												 M20.5,82.8v14.5c0,0.4,0.4,0.8,1,1.2l39.4,22.7c1.7,1,4.5,1,6.2,0l39.4-22.7c0.6-0.4,1-0.8,1-1.2V82.8H83.7
												c-0.2,0-0.3,0-0.5-0.1l-16.1-9.3c-1.7-1-4.5-1-6.2,0l-16.1,9.3c-0.2,0.1-0.3,0.1-0.5,0.1H20.5z"/>
										</g>
										<path class="st1" d="M67.6,122.1L107,99.4c1-0.6,1.5-1.3,1.5-2.1V81.8H83.7l-16.1-9.3c-1-0.6-2.3-0.9-3.6-0.9V123
											C65.3,123,66.6,122.7,67.6,122.1z"/>
										<path class="st1" d="M46.5,108c-0.2,0-0.3,0-0.5-0.1l-11.6-6.7c-0.5-0.3-0.6-0.9-0.4-1.4c0.3-0.5,0.9-0.6,1.4-0.4
											l11.6,6.7c0.5,0.3,0.6,0.9,0.4,1.4C47.2,107.8,46.9,108,46.5,108z"/>
										<g>
											<path class="st2" d="M107,79.7L67.6,57c-2-1.1-5.2-1.1-7.2,0L21,79.7c-2,1.1-2,3,0,4.1l39.4,22.7c2,1.1,5.2,1.1,7.2,0
												L107,83.9C109,82.7,109,80.9,107,79.7z"/>
											<path class="st1" d="M64,108.5c-1.5,0-2.9-0.3-4.1-1L20.5,84.8c-1.3-0.7-2-1.8-2-2.9s0.7-2.2,2-2.9l39.4-22.7
												c2.3-1.3,5.9-1.3,8.2,0L107.5,79l0,0c1.3,0.7,2,1.8,2,2.9s-0.7,2.2-2,2.9l-39.4,22.7C66.9,108.2,65.5,108.5,64,108.5z
												 M64,57.1c-1.1,0-2.3,0.2-3.1,0.7L21.5,80.6c-0.6,0.4-1,0.8-1,1.2s0.4,0.8,1,1.2l39.4,22.7c1.7,1,4.5,1,6.2,0L106.5,83
												c0.6-0.4,1-0.8,1-1.2s-0.4-0.8-1-1.2L67.1,57.9C66.3,57.4,65.1,57.1,64,57.1z"/>
										</g>
									</g>
								</g>
								<g>
									<polygon class="st1" points="97.7,104.7 76.9,116.7 76.9,109.6 97.7,97.6 									"/>
									<path class="st0" d="M76.9,117.7c-0.2,0-0.3,0-0.5-0.1c-0.3-0.2-0.5-0.5-0.5-0.9v-7.2c0-0.4,0.2-0.7,0.5-0.9l20.8-12
										c0.3-0.2,0.7-0.2,1,0s0.5,0.5,0.5,0.9v7.2c0,0.4-0.2,0.7-0.5,0.9l-20.8,12C77.3,117.7,77.1,117.7,76.9,117.7z M77.9,110.1
										v4.9l18.8-10.9v-4.9L77.9,110.1z M97.7,104.7L97.7,104.7L97.7,104.7z"/>
								</g>
								<path class="st3" d="M64,124c-1.5,0-3-0.4-4.1-1l-39.4-22.7c-1.3-0.7-2-1.8-2-2.9V81.8c0-1.2,0.7-2.2,2-2.9l39.4-22.7
									c2.3-1.3,5.9-1.3,8.2,0l39.4,22.7l0,0c1.3,0.7,2,1.8,2,2.9v15.5c0,1.2-0.7,2.2-2,2.9L68.1,123C67,123.6,65.5,124,64,124z
									 M64,57.1c-1.1,0-2.3,0.2-3.1,0.7L21.5,80.6c-0.6,0.4-1,0.8-1,1.2v15.5c0,0.4,0.4,0.8,1,1.2l39.4,22.7
									c1.6,0.9,4.6,0.9,6.2,0l39.4-22.7c0.6-0.4,1-0.8,1-1.2V81.8c0-0.4-0.4-0.8-1-1.2L67.1,57.9C66.3,57.4,65.1,57.1,64,57.1z"/>
								<g>
									<ellipse class="st0" cx="98.3" cy="81.8" rx="2" ry="1.2"/>
									<ellipse class="st0" cx="64" cy="101.6" rx="2" ry="1.2"/>
									<ellipse class="st0" cx="64" cy="62" rx="2" ry="1.2"/>
									<ellipse class="st0" cx="29.7" cy="81.8" rx="2" ry="1.2"/>
								</g>
							</g>
						</g>
					</g>
					<g>
						<g>
							<g>
								<path class="st4" d="M75.5,65.9h-23V77c0,0.6,0.1,1.1,0.4,1.6l0,0l2.2,5l0,0c1,2.3,4.6,4.1,9,4.1c4.3,0,8-1.7,9-4.1l0,0
									l2.2-5l0,0c0.2-0.5,0.4-1,0.4-1.6V65.9H75.5z"/>
								<path class="st5" d="M64,87.7c4.3,0,8-1.7,9-4.1l0,0l2.2-5l0,0c0.2-0.5,0.4-1,0.4-1.6V65.9H64V87.7z"/>
								<path class="st6" d="M64,83.6c-7,0-12.5-3.4-12.5-7.6c0-0.6,0.4-1,1-1s1,0.4,1,1c0,3.1,4.8,5.6,10.5,5.6S74.5,79,74.5,76
									c0-0.6,0.4-1,1-1s1,0.4,1,1C76.5,80.2,71,83.6,64,83.6z"/>
								<path class="st6" d="M64,79.3c-7,0-12.5-3.4-12.5-7.6c0-0.6,0.4-1,1-1s1,0.4,1,1c0,3.1,4.8,5.6,10.5,5.6s10.5-2.6,10.5-5.6
									c0-0.6,0.4-1,1-1s1,0.4,1,1C76.5,75.9,71,79.3,64,79.3z"/>
								<path class="st6" d="M64,88.7c-4.6,0-8.6-1.8-9.8-4.5l-0.1-0.1l-2.2-5c0-0.1,0-0.1-0.1-0.2c-0.2-0.6-0.4-1.2-0.4-1.8V65.9
									c0-0.6,0.4-1,1-1h23c0.6,0,1,0.4,1,1V77c0,0.6-0.1,1.2-0.4,1.8c0,0.1,0,0.1-0.1,0.2l-2.2,5c0,0.1,0,0.1-0.1,0.1
									C72.6,86.9,68.6,88.7,64,88.7z M55.9,83.1C55.9,83.1,55.9,83.2,55.9,83.1c0.8,1.8,3.8,3.6,8.2,3.6s7.3-1.7,8.1-3.5
									c0,0,0-0.1,0.1-0.1l2-4.7v-0.1c0.2-0.4,0.3-0.8,0.3-1.2V66.9h-21V77c0,0.4,0.1,0.8,0.3,1.2c0,0.1,0,0.1,0.1,0.2L55.9,83.1z"
									/>
								<path class="st2" d="M91.6,32.6c0-15.9-13.5-28.7-29.7-27.5c-13.7,1-24.7,12.3-25.4,26C36,41,40.7,49.8,48.1,55
									c2.8,2,4.4,5.3,4.4,8.8v2l0,0v0.1c0,3.7,5.1,6.6,11.5,6.6c6.3,0,11.5-3,11.5-6.6v-0.1l0,0v-2.1c0-3.5,1.7-6.7,4.5-8.7
									C87,50,91.6,41.8,91.6,32.6z"/>
								<path class="st6" d="M64,73.5c-7,0-12.5-3.4-12.5-7.6l0,0c0,0,0,0,0-0.1v-2c0-3.2-1.5-6.2-4-7.9c-8-5.7-12.5-15-12-24.8
									c0.7-14.3,12.1-25.9,26.3-27c8-0.6,15.7,2.1,21.6,7.5c5.8,5.4,9.1,13,9.1,20.9c0,9.2-4.5,17.9-12,23.3
									c-2.5,1.8-4.1,4.8-4.1,7.9v2.1l0,0c0,0,0,0,0,0.1C76.5,70.2,71,73.5,64,73.5z M53.5,65.7c0,0.1,0,0.1,0,0.2V66
									c0,3,4.8,5.6,10.5,5.6S74.5,69,74.5,66c0,0,0,0,0-0.1s0-0.1,0-0.2v-1.9c0-3.8,1.8-7.4,4.9-9.5c7-5,11.2-13.1,11.2-21.6
									c0-7.4-3.1-14.5-8.5-19.5C76.6,8,69.4,5.5,62,6.1c-13.3,1-23.8,11.8-24.5,25.1C37,40.4,41.2,49,48.7,54.3
									c3,2.2,4.9,5.7,4.9,9.6v1.8H53.5z"/>
								<path class="st2" d="M64,70.4c5.3,0,9.2-2.3,9.3-4.4v-0.1c0-0.1,0-0.2,0-0.3v-1.8c0-4.2,2-8.2,5.3-10.5
									c7.2-5.1,11.1-13.3,10.7-22.1c-0.7-12.7-10.7-23-23.4-24c-0.7,0-1.3-0.1-2-0.1c-14,0-25.4,11.4-25.4,25.4
									c0,8.2,4,15.9,10.7,20.7c3.4,2.4,5.4,6.3,5.4,10.5v1.9c0,0.1,0,0.1,0,0.2v0.1C54.8,68.1,58.7,70.4,64,70.4z"/>
								<path class="st4" d="M64,20.4v34.7c0,2.5-1.7,4.6-4,5.4c-2.4,0.8-3.9,2.3-3.9,4c0,2.5,3.6,4.6,7.9,4.6
									c4.4,0,7.9-2.1,7.9-4.6l0,0l0,0v-0.8c0-4.6,2.2-9,6-11.6C84.2,47.6,88,40.3,88,32.6c0-7.9-3.8-14.9-9.8-19.3
									C72.4,8.9,64,13.1,64,20.4z"/>
							</g>
							
								<ellipse transform="matrix(0.7071 -0.7071 0.7071 0.7071 1.0745 41.3849)" class="st4" cx="50.5" cy="19.4" rx="5.1" ry="3"/>
						</g>
					</g>
				</g>
				<rect x="4" y="4" class="st7" width="120" height="120"/>
				<rect x="4" y="4" class="st7" width="120" height="120"/>
			</g>
		</g>
	</g>
	<g>
		<rect class="st7" width="128" height="128"/>
	</g>
</g>
</svg>
