<?xml version="1.0" encoding="utf-8"?>
<!-- Generator: Adobe Illustrator 24.1.0, SVG Export Plug-In . SVG Version: 6.00 Build 0)  -->
<svg version="1.1" id="Layer_1" xmlns="http://www.w3.org/2000/svg" xmlns:xlink="http://www.w3.org/1999/xlink" x="0px" y="0px"
	 viewBox="0 0 128 128" style="enable-background:new 0 0 128 128;" xml:space="preserve">
<style type="text/css">
	.st0{fill:#E9EBDF;}
	.st1{fill:#FFFFFF;}
	.st2{fill:#4D9987;}
	.st3{fill:#0E352C;}
	.st4{fill:#27ae60;}
	.st5{fill:#185849;}
	.st6{fill:none;}
</style>
<g id="Layer_1_1_">
</g>
<g>
	<g id="Layer_2_1_">
		<g id="Objects_1_">
			<g>
				<g>
					<g>
						<circle class="st0" cx="64" cy="89.7" r="10.1"/>
						
							<ellipse transform="matrix(0.7071 -0.7071 0.7071 0.7071 -42.1902 72.5941)" class="st1" cx="66.5" cy="87.2" rx="6.2" ry="7.3"/>
						
							<ellipse transform="matrix(0.9201 -0.3916 0.3916 0.9201 -31.5183 30.2562)" class="st2" cx="58.4" cy="92.4" rx="3" ry="5.2"/>
						
							<ellipse transform="matrix(0.9201 -0.3916 0.3916 0.9201 -31.2229 30.6845)" class="st3" cx="59.6" cy="91.9" rx="1.7" ry="3"/>
						<path class="st2" d="M68,100c-0.4,0-0.7-0.2-0.9-0.5c-0.3-0.5-0.1-1.1,0.4-1.4c1.1-0.6,1.7-2.1,1.7-4.2c0-4.2-2.6-9.2-5.7-11
							c-0.5-0.3-0.6-0.9-0.4-1.4c0.3-0.5,0.9-0.6,1.4-0.4c3.8,2.2,6.7,7.8,6.7,12.8c0,2.8-1,5-2.7,6C68.3,99.9,68.2,100,68,100z"/>
						<path class="st3" d="M64,100.8c-6.1,0-11.1-5-11.1-11.1s5-11.1,11.1-11.1s11.1,5,11.1,11.1S70.1,100.8,64,100.8z M64,80.6
							c-5,0-9.1,4.1-9.1,9.1s4.1,9.1,9.1,9.1s9.1-4.1,9.1-9.1S69,80.6,64,80.6z"/>
					</g>
					<path class="st4" d="M106.4,102.8c-2.8,0-5.7-0.6-7.9-1.9c-2.3-1.3-3.6-3.1-3.6-5.1s1.3-3.8,3.6-5.1c4.4-2.6,11.3-2.6,15.8,0
						c2.3,1.3,3.6,3.1,3.6,5.1s-1.3,3.8-3.6,5.1C112.1,102.2,109.3,102.8,106.4,102.8z M106.4,90.7c-2.5,0-5,0.5-6.9,1.6
						c-1.6,1-2.6,2.2-2.6,3.4s0.9,2.4,2.6,3.4c3.8,2.2,10,2.2,13.8,0c1.6-1,2.6-2.2,2.6-3.4s-0.9-2.4-2.6-3.4
						C111.4,91.3,108.9,90.7,106.4,90.7z"/>
					<path class="st4" d="M21.6,102.8c-2.8,0-5.7-0.6-7.9-1.9l0,0c-2.3-1.3-3.6-3.1-3.6-5.1s1.3-3.8,3.6-5.1
						c4.4-2.6,11.3-2.6,15.8,0c2.3,1.3,3.6,3.1,3.6,5.1s-1.3,3.8-3.6,5.1C27.2,102.2,24.4,102.8,21.6,102.8z M14.7,99.2
						c3.8,2.2,10,2.2,13.8,0c1.6-1,2.6-2.2,2.6-3.4c0-1.2-0.9-2.4-2.6-3.4c-3.8-2.2-10-2.2-13.8,0c-1.6,1-2.6,2.2-2.6,3.4
						S13,98.2,14.7,99.2L14.7,99.2z"/>
					<path class="st4" d="M106.4,53.8c-2.8,0-5.7-0.6-7.9-1.9l0,0c-2.3-1.3-3.6-3.1-3.6-5.1s1.3-3.8,3.6-5.1
						c4.4-2.6,11.3-2.5,15.8,0c2.3,1.3,3.6,3.1,3.6,5.1s-1.3,3.8-3.6,5.1C112.1,53.2,109.3,53.8,106.4,53.8z M99.5,50.2
						c3.8,2.2,10,2.2,13.8,0c1.6-1,2.6-2.2,2.6-3.4s-0.9-2.4-2.6-3.4c-3.8-2.2-10-2.2-13.8,0c-1.6,1-2.6,2.2-2.6,3.4
						S97.9,49.2,99.5,50.2L99.5,50.2z"/>
					<path class="st4" d="M21.6,53.8c-2.8,0-5.7-0.6-7.9-1.9c-2.3-1.3-3.6-3.1-3.6-5.1s1.3-3.8,3.6-5.1c4.4-2.6,11.3-2.6,15.8,0
						c2.3,1.3,3.6,3.1,3.6,5.1s-1.3,3.8-3.6,5.1C27.2,53.2,24.4,53.8,21.6,53.8z M21.6,41.7c-2.5,0-5,0.5-6.9,1.6
						c-1.6,1-2.6,2.2-2.6,3.4s0.9,2.4,2.6,3.4l0,0c3.8,2.2,10,2.2,13.8,0c1.6-1,2.6-2.2,2.6-3.4s-0.9-2.4-2.6-3.4
						C26.6,42.3,24.1,41.7,21.6,41.7z"/>
					<path class="st3" d="M78.9,70.9c-0.8-1-1.9-1.9-3.3-2.7c-6.4-3.7-16.8-3.7-23.2,0C51,69,49.9,70,49.1,70.9h-1.5v4
						c0,2.4,1.6,4.9,4.8,6.7c6.4,3.7,16.8,3.7,23.2,0c3.2-1.9,4.8-4.3,4.8-6.7l0,0v-4H78.9z"/>
					<path class="st3" d="M75.6,68.2c-3.2-1.9-7.4-2.8-11.6-2.8v19c4.2,0,8.4-0.9,11.6-2.8s4.8-4.3,4.8-6.7v-4h-1.5
						C78.1,69.9,77,69,75.6,68.2z"/>
					<g>
						<path class="st0" d="M116.9,90v-3.2h-5.2c-2.7-0.9-5.8-3-8.7-2.5L84.4,73.6c2.9-2.4,4.4-5.3,4.4-8.1l0,0v-5.2h-1.7
							c-0.7-1-1.6-2-2.7-2.9L103,46.7c3.7,0.7,7.9,0.3,10.8-1.4c2-1.2,3.1-2.7,3.1-4.3l0,0v-5.2h-5.2c-3.2-1.1-7.2-1.1-10.4,0h-5.1
							v4.4c-0.2,0.9-0.1,1.9,0.5,2.8L78,53.7c-8.4-3.4-19.7-3.4-28.1,0L31.4,43c0.5-0.9,0.7-1.9,0.5-2.8v-4.4h-5.1
							c-3.2-1.1-7.2-1.1-10.4,0h-5.2V41l0,0c0,1.5,1,3.1,3.1,4.3c2.9,1.7,7.2,2.2,10.8,1.4l18.6,10.7c-1.1,0.9-2,1.9-2.7,2.9h-1.7
							v5.2l0,0c0,2.8,1.5,5.7,4.4,8.1L25,84.3c-2.8-0.6-6-0.4-8.7,0.5h-5.2V90l0,0c0,1.5,1,3.1,3.1,4.3c4.1,2.4,10.7,2.4,14.8,0
							c2.4-1.4,3.4-3.3,3-5.1v-1.5l18-10.4c8.4,3.4,19.7,3.4,28.1,0l18.1,10.4v1.5c-0.4,1.8,0.6,3.7,3,5.1c4.1,2.4,10.7,2.4,14.8,0
							C115.8,93.1,116.9,91.5,116.9,90z"/>
						<path class="st2" d="M106.4,97c-2.8,0-5.7-0.6-7.9-1.9c-2.6-1.5-3.9-3.8-3.5-6v-0.8l-17-9.9c-8.4,3.2-19.5,3.2-27.9,0L33,88.3
							v0.8c0.5,2.3-0.8,4.5-3.5,6c-4.4,2.6-11.3,2.6-15.8,0c-2.3-1.3-3.6-3.1-3.6-5.1v-5.2c0-0.6,0.4-1,1-1h5.1
							c2.6-0.8,5.8-1,8.6-0.5l17-9.8c-2.4-2.4-3.7-5.1-3.7-7.9v-5.2c0-0.6,0.4-1,1-1h1.2c0.4-0.6,0.9-1.2,1.5-1.7l-17-9.8
							c-4,0.7-8.2,0.1-11.2-1.6C11.3,45,10,43.2,10,41.2V36c0-0.6,0.4-1,1-1h5.1c3.3-1.1,7.4-1.1,10.7,0h5c0.6,0,1,0.4,1,1v4.3
							c0.2,0.8,0.1,1.7-0.2,2.5l17.3,10c8.4-3.2,19.5-3.2,27.9,0l17.3-10c-0.3-0.8-0.4-1.7-0.2-2.5V36c0-0.6,0.4-1,1-1h5
							c3.3-1.1,7.4-1.1,10.7,0h5.1c0.6,0,1,0.4,1,1v5c0,2-1.3,3.8-3.6,5.1c-3,1.7-7.2,2.3-11.2,1.6l-17,9.8c0.6,0.5,1.1,1.1,1.5,1.7
							h1.2c0.6,0,1,0.4,1,1v5.2c0,2.8-1.3,5.6-3.7,7.9l17.1,9.8c2.2-0.3,4.5,0.7,6.5,1.6c0.8,0.3,1.5,0.7,2.2,0.9h5.1
							c0.6,0,1,0.4,1,1V90c0,2-1.3,3.8-3.6,5.1C112.1,96.4,109.3,97,106.4,97z M78,76.3c0.2,0,0.3,0,0.5,0.1l18.1,10.4
							c0.3,0.2,0.5,0.5,0.5,0.9v1.5c0,0.1,0,0.2,0,0.2c-0.3,1.4,0.6,2.9,2.5,4c3.8,2.2,10,2.2,13.8,0c1.6-1,2.6-2.2,2.6-3.4v-2.2
							h-4.2c-0.1,0-0.2,0-0.3-0.1c-0.8-0.3-1.6-0.6-2.5-1c-1.9-0.9-4-1.8-5.7-1.4c-0.2,0-0.5,0-0.7-0.1L83.9,74.5
							c-0.3-0.2-0.5-0.5-0.5-0.8s0.1-0.6,0.4-0.9c2.6-2.2,4-4.7,4-7.3v-4.2h-0.7c-0.3,0-0.6-0.2-0.8-0.4c-0.6-0.9-1.5-1.8-2.5-2.7
							c-0.2-0.2-0.4-0.5-0.4-0.9s0.2-0.6,0.5-0.8l18.6-10.7c0.2-0.1,0.5-0.2,0.7-0.1c3.5,0.7,7.5,0.2,10.1-1.3
							c1.6-1,2.6-2.2,2.6-3.4v-4.2h-4.2c-0.1,0-0.2,0-0.3-0.1c-3-1-6.8-1-9.8,0c-0.1,0-0.2,0.1-0.3,0.1h-4.1v3.4c0,0.1,0,0.2,0,0.2
							c-0.2,0.7,0,1.4,0.4,2.1c0.1,0.2,0.2,0.5,0.1,0.8s-0.2,0.5-0.5,0.6L78.5,54.6c-0.3,0.2-0.6,0.2-0.9,0.1
							c-8.2-3.3-19.2-3.3-27.3,0c-0.3,0.1-0.6,0.1-0.9-0.1L30.9,43.9c-0.2-0.1-0.4-0.4-0.5-0.6s0-0.5,0.1-0.8
							c0.4-0.7,0.5-1.4,0.4-2.1c0-0.1,0-0.1,0-0.2v-3.4h-4.1c-0.1,0-0.2,0-0.3-0.1c-3-1-6.8-1-9.8,0c-0.1,0-0.2,0.1-0.3,0.1h-4.2V41
							c0,1.2,0.9,2.4,2.6,3.4c2.6,1.5,6.6,2,10.1,1.3c0.2,0,0.5,0,0.7,0.1l18.6,10.7c0.3,0.2,0.5,0.5,0.5,0.8s-0.1,0.6-0.4,0.9
							c-1,0.8-1.8,1.7-2.5,2.7c-0.2,0.3-0.5,0.4-0.8,0.4h-0.7v4.2c0,2.6,1.4,5.1,4,7.3c0.2,0.2,0.4,0.5,0.4,0.9s-0.2,0.6-0.5,0.8
							L25.5,85.2c-0.2,0.1-0.5,0.2-0.7,0.1c-2.7-0.5-5.7-0.4-8.2,0.4c-0.1,0-0.2,0.1-0.3,0.1h-4.2V90c0,1.2,0.9,2.4,2.6,3.4
							c3.8,2.2,10,2.2,13.8,0c1.9-1.1,2.8-2.5,2.5-4c0-0.1,0-0.2,0-0.2v-1.5c0-0.4,0.2-0.7,0.5-0.9l18.1-10.4
							c0.3-0.2,0.6-0.2,0.9-0.1c8.2,3.3,19.2,3.3,27.3,0C77.8,76.3,77.9,76.3,78,76.3z"/>
					</g>
					<path class="st2" d="M84.4,57.4L103,46.7v-5.2h-7c0.1,0.5,0.2,1,0.5,1.5L78,53.7v4.9h7.7C85.3,58.2,84.9,57.8,84.4,57.4z"/>
					<path class="st2" d="M78,72.1H64v7.7c4.9,0,9.8-0.8,14-2.5l0,0V72.1z"/>
					<path class="st2" d="M42,72.1c0.5,0.5,1,1,1.6,1.5l-12.2,7V92c0.5-0.9,0.7-1.9,0.5-2.8v-1.5L50,77.3v-5.2
						C50,72.1,42,72.1,42,72.1z"/>
					<path class="st2" d="M32,87.6v-5.7h-2.8L25,84.3c-1.1-0.2-2.3-0.3-3.5-0.3v12c2.7,0,5.3-0.6,7.4-1.8c2.4-1.4,3.4-3.3,3-5.1
						v-1.5H32z"/>
					<path class="st2" d="M116.9,87.6v-3.7h-2.8l-4.2,2.4c-1.1-0.2-2.3-0.3-3.5-0.3v10c2.7,0,5.3-0.6,7.4-1.8c2.4-1.4,3.4-3.3,3-5.1
						L116.9,87.6L116.9,87.6z"/>
					<path class="st2" d="M32,38.6v-5.7h-2.8L25,35.3c-1.1-0.2-2.3-0.3-3.5-0.3v12c2.7,0,5.3-0.6,7.4-1.8c2.4-1.4,3.4-3.3,3-5.1
						v-1.5L32,38.6z"/>
					<path class="st2" d="M116.9,38.6v-3.7h-2.8l-4.2,2.4c-1.1-0.2-2.3-0.3-3.5-0.3v10c2.7,0,5.3-0.6,7.4-1.8c2.4-1.4,3.4-3.3,3-5.1
						L116.9,38.6L116.9,38.6z"/>
					<path class="st1" d="M99,31.5c-2.9,1.7-3.7,4.1-2.5,6.3L78,48.5c-8.4-3.4-19.7-3.4-28.1,0L31.4,37.8c1.3-2.1,0.5-4.6-2.5-6.3
						c-4.1-2.4-10.7-2.4-14.8,0s-4.1,6.2,0,8.5c2.9,1.7,7.2,2.2,10.8,1.4l18.6,10.7c-5.8,4.9-5.8,11.3,0,16.2L25,79.1
						c-3.7-0.7-7.9-0.3-10.8,1.4c-4.1,2.4-4.1,6.2,0,8.5c4.1,2.4,10.7,2.4,14.8,0c2.9-1.7,3.7-4.1,2.5-6.3L50,72.1
						c8.4,3.4,19.7,3.4,28.1,0l18.6,10.7c-1.3,2.1-0.5,4.6,2.5,6.3c4.1,2.4,10.7,2.4,14.8,0c4.1-2.4,4.1-6.2,0-8.5
						c-2.9-1.7-7.2-2.2-10.8-1.4L84.4,68.4c5.8-4.9,5.8-11.3,0-16.2L103,41.5c3.7,0.7,7.9,0.3,10.8-1.4c4.1-2.4,4.1-6.2,0-8.5
						C109.7,29.2,103.1,29.2,99,31.5z"/>
					<path class="st2" d="M96.1,91c-0.6,0-1-0.4-1-1v-5.2c0-0.6,0.4-1,1-1s1,0.4,1,1V90C97.1,90.5,96.6,91,96.1,91z"/>
					<path class="st0" d="M106.4,42.8c-2.8,0-5.7-0.6-7.9-1.9l0,0c-2.3-1.3-3.6-3.1-3.6-5.1s1.3-3.8,3.6-5.1
						c4.4-2.6,11.3-2.6,15.8,0c2.3,1.3,3.6,3.1,3.6,5.1s-1.3,3.8-3.6,5.1C112.1,42.2,109.3,42.8,106.4,42.8z M99.5,39.2
						c3.8,2.2,10,2.2,13.8,0c1.6-1,2.6-2.2,2.6-3.4s-0.9-2.4-2.6-3.4c-3.8-2.2-10-2.2-13.8,0c-1.6,1-2.6,2.2-2.6,3.4
						S97.9,38.2,99.5,39.2L99.5,39.2z"/>
					<path class="st0" d="M21.6,42.8c-2.8,0-5.7-0.6-7.9-1.9c-2.3-1.3-3.6-3.1-3.6-5.1s1.3-3.8,3.6-5.1c4.4-2.6,11.3-2.6,15.8,0
						c2.3,1.3,3.6,3.1,3.6,5.1s-1.3,3.8-3.6,5.1C27.2,42.2,24.4,42.8,21.6,42.8z M21.6,30.7c-2.5,0-5,0.5-6.9,1.6
						c-1.6,1-2.6,2.2-2.6,3.4s0.9,2.4,2.6,3.4l0,0c3.8,2.2,10,2.2,13.8,0c1.6-1,2.6-2.2,2.6-3.4s-0.9-2.4-2.6-3.4
						C26.6,31.3,24.1,30.7,21.6,30.7z"/>
					<path class="st0" d="M21.6,91.8c-2.8,0-5.7-0.6-7.9-1.9l0,0c-2.3-1.3-3.6-3.1-3.6-5.1s1.3-3.8,3.6-5.1c4.4-2.6,11.3-2.6,15.8,0
						c2.3,1.3,3.6,3.1,3.6,5.1s-1.3,3.8-3.6,5.1C27.2,91.2,24.4,91.8,21.6,91.8z M14.7,88.2c3.8,2.2,10,2.2,13.8,0
						c1.6-1,2.6-2.2,2.6-3.4c0-1.2-0.9-2.4-2.6-3.4c-3.8-2.2-10-2.2-13.8,0c-1.6,1-2.6,2.2-2.6,3.4S13,87.2,14.7,88.2L14.7,88.2z"/>
					<g>
						<path class="st5" d="M6.7,90c-0.3,0-0.5-0.1-0.7-0.3c-0.1-0.1-0.2-0.2-0.2-0.3c-0.1-0.1-0.1-0.2-0.1-0.4c0-0.1,0-0.1,0-0.2
							s0-0.1,0.1-0.2c0-0.1,0.1-0.1,0.1-0.2c0,0,0.1-0.1,0.1-0.2c0.4-0.4,1-0.4,1.4,0c0.1,0.1,0.1,0.1,0.1,0.2s0.1,0.1,0.1,0.2
							s0,0.1,0.1,0.2c0,0.1,0,0.1,0,0.2c0,0.3-0.1,0.5-0.3,0.7C7.2,89.9,7,90,6.7,90z"/>
						<path class="st5" d="M5,84c-0.5-0.2-0.8-0.7-0.6-1.3l0,0c0.2-0.5,0.7-0.8,1.2-0.7l0,0c0.5,0.2,0.8,0.7,0.7,1.2l0,0
							c-0.1,0.4-0.5,0.7-1,0.7l0,0C5.2,84,5.1,84,5,84z M8.5,78.8c-0.3-0.5-0.1-1.1,0.3-1.4l0,0c0.5-0.3,1.1-0.2,1.4,0.3l0,0
							c0.3,0.5,0.1,1.1-0.3,1.4l0,0c-0.2,0.1-0.4,0.2-0.5,0.2l0,0C9,79.3,8.7,79.1,8.5,78.8z M14.3,76.2c-0.1-0.5,0.2-1.1,0.8-1.2
							l0,0c0.5-0.1,1.1,0.2,1.2,0.7l0,0c0.1,0.5-0.2,1.1-0.7,1.2l0,0c-0.1,0-0.2,0-0.2,0l0,0C14.8,76.9,14.4,76.6,14.3,76.2z"/>
						<path class="st5" d="M21.6,76.2c-0.1,0-0.3,0-0.4-0.1S21,76,20.9,75.9c-0.2-0.2-0.3-0.4-0.3-0.7s0.1-0.5,0.3-0.7
							c0.1-0.1,0.2-0.2,0.3-0.2c0.4-0.2,0.8-0.1,1.1,0.2c0.2,0.2,0.3,0.4,0.3,0.7s-0.1,0.5-0.3,0.7C22.1,76.1,21.8,76.2,21.6,76.2z"
							/>
					</g>
					<path class="st0" d="M106.4,91.8c-2.8,0-5.7-0.6-7.9-1.9c-2.3-1.3-3.6-3.1-3.6-5.1s1.3-3.8,3.6-5.1c4.4-2.6,11.3-2.6,15.8,0
						c2.3,1.3,3.6,3.1,3.6,5.1s-1.3,3.8-3.6,5.1C112.1,91.2,109.3,91.8,106.4,91.8z M106.4,79.7c-2.5,0-5,0.5-6.9,1.6
						c-1.6,1-2.6,2.2-2.6,3.4c0,1.2,0.9,2.4,2.6,3.4l0,0c3.8,2.2,10,2.2,13.8,0c1.6-1,2.6-2.2,2.6-3.4c0-1.2-0.9-2.4-2.6-3.4
						C111.4,80.3,108.9,79.7,106.4,79.7z"/>
					<path class="st2" d="M106.4,91.8c-2.8,0-5.7-0.6-7.9-1.9c-1.8-1.1-3-2.4-3.4-4c-0.2-0.9-0.2-1.8,0.1-2.7L78,73.2
						c-8.4,3.2-19.5,3.2-27.9,0l-17.3,10c0.3,0.9,0.4,1.8,0.1,2.7c-0.4,1.5-1.6,2.9-3.4,4c-4.4,2.6-11.3,2.6-15.8,0
						c-2.3-1.3-3.6-3.1-3.6-5.1s1.3-3.8,3.6-5.1c3-1.7,7.2-2.3,11.2-1.6l17-9.8c-2.4-2.4-3.7-5.1-3.7-7.9c0-2.8,1.3-5.6,3.7-7.9
						l-17-9.8c-4,0.7-8.2,0.1-11.2-1.6c-2.3-1.3-3.6-3.1-3.6-5.1s1.3-3.8,3.6-5.1c4.4-2.6,11.3-2.6,15.8,0c1.8,1.1,3,2.4,3.4,4
						c0.2,0.9,0.2,1.8-0.1,2.7l17.3,10c8.4-3.2,19.5-3.2,27.9,0l17.3-10c-0.3-0.9-0.4-1.8-0.1-2.7c0.4-1.5,1.6-2.9,3.4-4l0,0
						c4.4-2.5,11.3-2.6,15.8,0c2.3,1.3,3.6,3.1,3.6,5.1s-1.3,3.8-3.6,5.1c-3,1.7-7.2,2.3-11.2,1.6l-17,9.8c2.4,2.4,3.7,5.1,3.7,7.9
						c0,2.8-1.3,5.6-3.7,7.9l17,9.8c4-0.7,8.2-0.1,11.2,1.6c2.3,1.3,3.6,3.1,3.6,5.1s-1.3,3.8-3.6,5.1
						C112.1,91.2,109.3,91.8,106.4,91.8z M78,71.1c0.2,0,0.3,0,0.5,0.1l18.6,10.7c0.2,0.1,0.4,0.4,0.5,0.6s0,0.5-0.1,0.8
						c-0.4,0.7-0.5,1.4-0.4,2.1c0.3,1,1.1,2,2.5,2.7c3.8,2.2,10,2.2,13.8,0c1.6-1,2.6-2.2,2.6-3.4s-0.9-2.4-2.6-3.4
						c-2.6-1.5-6.6-2-10.1-1.3c-0.2,0-0.5,0-0.7-0.1L83.9,69.2c-0.3-0.2-0.5-0.5-0.5-0.8s0.1-0.6,0.4-0.9c2.6-2.2,4-4.7,4-7.3
						s-1.4-5.1-4-7.3c-0.2-0.2-0.4-0.5-0.4-0.9s0.2-0.6,0.5-0.8l18.6-10.7c0.2-0.1,0.5-0.2,0.7-0.1c3.5,0.7,7.5,0.2,10.1-1.3
						c1.6-1,2.6-2.2,2.6-3.4s-0.9-2.4-2.6-3.4c-3.8-2.2-10-2.2-13.8,0C98.1,33.1,97.3,34,97,35c-0.2,0.7-0.1,1.4,0.4,2.1
						c0.1,0.2,0.2,0.5,0.1,0.8s-0.2,0.5-0.5,0.6L78.5,49.4c-0.3,0.2-0.6,0.2-0.9,0.1c-8.2-3.3-19.2-3.3-27.3,0
						c-0.3,0.1-0.6,0.1-0.9-0.1L30.9,38.6c-0.2-0.1-0.4-0.4-0.5-0.6s0-0.5,0.1-0.8c0.4-0.7,0.5-1.4,0.4-2.1c-0.3-1-1.1-2-2.5-2.7
						c-3.8-2.2-10-2.2-13.8,0c-1.6,1-2.6,2.2-2.6,3.4s0.9,2.4,2.6,3.4c2.6,1.5,6.6,2,10.1,1.3c0.2,0,0.5,0,0.7,0.1L44,51.3
						c0.3,0.2,0.5,0.5,0.5,0.8s-0.1,0.6-0.4,0.9c-2.6,2.2-4,4.7-4,7.3s1.4,5.1,4,7.3c0.2,0.2,0.4,0.5,0.4,0.9s-0.2,0.6-0.5,0.8
						L25.5,80c-0.2,0.1-0.5,0.2-0.7,0.1c-3.5-0.7-7.5-0.2-10.1,1.3c-1.6,1-2.6,2.2-2.6,3.4s0.9,2.4,2.6,3.4c3.8,2.2,10,2.2,13.8,0
						c1.3-0.8,2.2-1.7,2.5-2.7c0.2-0.7,0.1-1.4-0.4-2.1c-0.1-0.2-0.2-0.5-0.1-0.8s0.2-0.5,0.5-0.6l18.6-10.7
						c0.3-0.2,0.6-0.2,0.9-0.1c8.2,3.3,19.2,3.3,27.3,0C77.8,71.1,77.9,71.1,78,71.1z"/>
					<ellipse class="st0" cx="21.6" cy="84.8" rx="5.5" ry="2.9"/>
					<g>
						<g>
							<path class="st0" d="M79.9,54.3c-0.8-1-2-2-3.5-2.9c-6.8-4-17.9-4-24.8,0c-1.5,0.9-2.7,1.8-3.5,2.9h-1.6v6
								c0,2.6,1.7,5.2,5.1,7.2c6.8,4,17.9,4,24.8,0c3.4-2,5.1-4.6,5.1-7.2l0,0v-6H79.9z"/>
							<path class="st2" d="M64,71.4c-4.7,0-9.3-1-12.9-3.1c-3.6-2.1-5.6-4.9-5.6-8v-6c0-0.6,0.4-1,1-1h1.2c0.9-1,2.1-1.9,3.5-2.8
								c7.1-4.1,18.7-4.1,25.8,0c1.4,0.8,2.6,1.7,3.5,2.8h1.2c0.6,0,1,0.4,1,1v6c0,3.1-2,5.9-5.6,8C73.3,70.3,68.7,71.4,64,71.4z
								 M47.5,55.3v5c0,2.3,1.6,4.6,4.6,6.3c6.6,3.8,17.2,3.8,23.8,0c3-1.7,4.6-4,4.6-6.3v-5h-0.6c-0.3,0-0.6-0.1-0.8-0.4
								c-0.8-1-1.9-1.9-3.2-2.7c-6.6-3.8-17.2-3.8-23.8,0c-1.4,0.8-2.4,1.7-3.2,2.7c-0.2,0.2-0.5,0.4-0.8,0.4H47.5z"/>
						</g>
						<g>
							<path class="st0" d="M79.9,54.3c-0.8-1-2-2-3.5-2.9c-6.8-4-17.9-4-24.8,0c-1.5,0.9-2.7,1.8-3.5,2.9h-1.6v6
								c0,2.6,1.7,5.2,5.1,7.2c6.8,4,17.9,4,24.8,0c3.4-2,5.1-4.6,5.1-7.2l0,0v-6H79.9z"/>
							<path class="st2" d="M64,71.4c-4.7,0-9.3-1-12.9-3.1c-3.6-2.1-5.6-4.9-5.6-8v-6c0-0.6,0.4-1,1-1h1.2c0.9-1,2.1-1.9,3.5-2.8
								c7.1-4.1,18.7-4.1,25.8,0c1.4,0.8,2.6,1.7,3.5,2.8h1.2c0.6,0,1,0.4,1,1v6c0,3.1-2,5.9-5.6,8C73.3,70.3,68.7,71.4,64,71.4z
								 M47.5,55.3v5c0,2.3,1.6,4.6,4.6,6.3c6.6,3.8,17.2,3.8,23.8,0c3-1.7,4.6-4,4.6-6.3v-5h-0.6c-0.3,0-0.6-0.1-0.8-0.4
								c-0.8-1-1.9-1.9-3.2-2.7c-6.6-3.8-17.2-3.8-23.8,0c-1.4,0.8-2.4,1.7-3.2,2.7c-0.2,0.2-0.5,0.4-0.8,0.4H47.5z"/>
						</g>
						<path class="st2" d="M76.4,67.4c3.4-2,5.1-4.6,5.1-7.2v-6h-1.6c-0.8-1-2-2-3.5-2.9c-3.4-2-7.9-3-12.4-3v22
							C68.5,70.4,73,69.4,76.4,67.4z"/>
						<g>
							<ellipse class="st0" cx="64" cy="54.3" rx="17.5" ry="10.1"/>
							<path class="st1" d="M64,65.4c-4.7,0-9.3-1-12.9-3.1c-3.6-2.1-5.6-4.9-5.6-8s2-5.9,5.6-8c7.1-4.1,18.7-4.1,25.8,0l0,0
								c3.6,2.1,5.6,4.9,5.6,8s-2,5.9-5.6,8C73.3,64.4,68.7,65.4,64,65.4z M64,45.1c-4.3,0-8.6,0.9-11.9,2.8c-3,1.7-4.6,4-4.6,6.3
								s1.6,4.6,4.6,6.3c6.6,3.8,17.2,3.8,23.8,0c3-1.7,4.6-4,4.6-6.3s-1.6-4.6-4.6-6.3l0,0C72.6,46.1,68.3,45.1,64,45.1z"/>
						</g>
						<ellipse class="st2" cx="64" cy="54.3" rx="7.5" ry="4.3"/>
					</g>
					<path class="st3" d="M64,71.4c-4.7,0-9.3-1-12.9-3.1c-3.6-2.1-5.6-4.9-5.6-8v-6c0-3.1,2-5.9,5.6-8c7.1-4.1,18.7-4.1,25.8,0
						c3.6,2.1,5.6,4.9,5.6,8v6c0,3.1-2,5.9-5.6,8c-0.5,0.3-0.9,0.5-1.4,0.7C72.1,70.6,68.1,71.4,64,71.4z M64,45.1
						c-4.3,0-8.6,0.9-11.9,2.8c-3,1.7-4.6,4-4.6,6.3v6c0,2.3,1.6,4.6,4.6,6.3c6,3.5,15.9,3.8,22.5,0.7c0.4-0.2,0.9-0.4,1.3-0.7
						c3-1.7,4.6-4,4.6-6.3v-6c0-2.3-1.6-4.6-4.6-6.3C72.6,46.1,68.3,45.1,64,45.1z"/>
					<path class="st3" d="M106.4,97c-2.8,0-5.7-0.6-7.9-1.9c-2.6-1.5-3.9-3.8-3.5-6v-0.8l-15.3-8.9c-0.9,1.2-2.1,2.2-3.6,3.1
						c-6.7,3.9-17.6,3.9-24.2,0c-1.5-0.9-2.8-1.9-3.6-3.1L33,88.3v0.8c0.5,2.3-0.8,4.5-3.5,6c-4.4,2.6-11.3,2.6-15.8,0
						c-2.3-1.3-3.6-3.1-3.6-5.1v-5.2c0-2,1.3-3.8,3.6-5.1c3-1.7,7.2-2.3,11.2-1.6l14.4-8.3c-0.7-1.4-1-2.8-1-4.2v-5.2
						c0-1.4,0.3-2.9,1-4.2l-14.4-8.3c-4,0.7-8.2,0.1-11.2-1.6c-2.3-1.3-3.6-3.1-3.6-5.1V36c0-2,1.3-3.8,3.6-5.1
						c4.4-2.6,11.3-2.6,15.8,0c2.6,1.5,3.9,3.7,3.5,5.9v0.9l16.8,9.7c0.5-0.3,0.9-0.6,1.4-0.9c7.1-4.1,18.7-4.1,25.8,0
						c0.5,0.3,0.9,0.6,1.4,0.9l16.8-9.7v-0.9c-0.4-2.3,0.8-4.4,3.5-5.9c4.4-2.6,11.3-2.5,15.8,0c2.3,1.3,3.6,3.1,3.6,5.1v5
						c0,2-1.3,3.8-3.6,5.1c-3,1.7-7.2,2.3-11.2,1.6L88.8,56c0.7,1.4,1,2.8,1,4.2v5.2c0,1.4-0.3,2.9-1,4.2l14.4,8.3
						c4-0.7,8.2-0.1,11.2,1.6l0,0c2.3,1.3,3.6,3.1,3.6,5.1V90c0,2-1.3,3.8-3.6,5.1C112.1,96.4,109.3,97,106.4,97z M79.5,77.1
						c0.2,0,0.3,0,0.5,0.1l16.6,9.6c0.3,0.2,0.5,0.5,0.5,0.9v1.5c0,0.1,0,0.2,0,0.2c-0.3,1.4,0.6,2.9,2.5,4c3.8,2.2,10,2.2,13.8,0
						c1.6-1,2.6-2.2,2.6-3.4v-5.2c0-1.2-0.9-2.4-2.6-3.4l0,0c-2.6-1.5-6.6-2-10.1-1.3c-0.2,0-0.5,0-0.7-0.1l-15.5-9
						c-0.2-0.1-0.4-0.4-0.5-0.6c-0.1-0.3,0-0.5,0.1-0.8c0.8-1.4,1.2-2.7,1.2-4.1v-5.2c0-1.4-0.4-2.8-1.2-4.1
						c-0.1-0.2-0.2-0.5-0.1-0.8s0.2-0.5,0.5-0.6l15.5-9c0.2-0.1,0.5-0.2,0.7-0.1c3.5,0.7,7.5,0.2,10.1-1.3c1.6-1,2.6-2.2,2.6-3.4
						v-5.2c0-1.2-0.9-2.4-2.6-3.4c-3.8-2.2-10-2.2-13.8,0c-1.9,1.1-2.8,2.5-2.5,3.9c0,0.1,0,0.1,0,0.2v1.6c0,0.4-0.2,0.7-0.5,0.9
						L78.7,49.2c-0.4,0.2-0.8,0.2-1.1-0.1c-0.6-0.5-1.1-0.8-1.7-1.2c-6.6-3.8-17.2-3.8-23.8,0c-0.6,0.3-1.1,0.7-1.7,1.2
						c-0.3,0.3-0.8,0.3-1.1,0.1L31.4,38.9c-0.3-0.2-0.5-0.5-0.5-0.9v-1.6c0-0.1,0-0.1,0-0.2c0.3-1.4-0.6-2.8-2.5-3.9
						c-3.8-2.2-10-2.2-13.8,0c-1.6,1-2.6,2.2-2.6,3.4V41c0,1.2,0.9,2.4,2.6,3.4c2.6,1.5,6.6,2,10.1,1.3c0.2,0,0.5,0,0.7,0.1l15.5,9
						c0.2,0.1,0.4,0.4,0.5,0.6s0,0.5-0.1,0.8c-0.8,1.4-1.2,2.7-1.2,4.1v5.2c0,1.4,0.4,2.8,1.2,4.1c0.1,0.2,0.2,0.5,0.1,0.8
						s-0.2,0.5-0.5,0.6l-15.5,9c-0.2,0.1-0.5,0.2-0.7,0.1c-3.5-0.7-7.5-0.2-10.1,1.3c-1.6,1-2.6,2.2-2.6,3.4V90
						c0,1.2,0.9,2.4,2.6,3.4c3.8,2.2,10,2.2,13.8,0c1.9-1.1,2.8-2.5,2.5-4c0-0.1,0-0.2,0-0.2v-1.5c0-0.4,0.2-0.7,0.5-0.9L48,77.2
						c0.5-0.3,1.1-0.1,1.4,0.3c0.7,1.2,1.9,2.3,3.5,3.2c6.1,3.5,16.1,3.5,22.2,0c1.6-0.9,2.8-2,3.5-3.2
						C78.8,77.3,79.1,77.1,79.5,77.1z"/>
					<g>
						<path class="st5" d="M120.8,41.5c-0.3,0-0.5-0.1-0.7-0.3s-0.3-0.5-0.3-0.7c0-0.3,0.1-0.5,0.3-0.7c0.4-0.4,1-0.4,1.4,0
							c0.2,0.2,0.3,0.5,0.3,0.7c0,0.3-0.1,0.5-0.3,0.7C121.4,41.4,121.1,41.5,120.8,41.5z"/>
						<path class="st5" d="M122,35.3L122,35.3L122,35.3c0-0.6,0.4-1,0.9-1.1l0,0c0.6-0.1,1,0.3,1.1,0.9l0,0c0.1,0.5-0.3,1-0.9,1.1
							l0,0H123l0,0C122.5,36.2,122,35.8,122,35.3z M91.7,31.3c-0.4-0.4-0.3-1,0.1-1.4l0,0c0.4-0.4,1-0.3,1.4,0.1l0,0
							c0.4,0.4,0.3,1-0.1,1.4l0,0c-0.2,0.2-0.4,0.3-0.7,0.3l0,0C92.2,31.6,91.9,31.5,91.7,31.3z M119.4,31.1c-0.4-0.3-0.5-1-0.1-1.4
							l0,0c0.4-0.4,1-0.5,1.4-0.1l0,0c0.4,0.3,0.5,1,0.1,1.4l0,0c-0.2,0.2-0.5,0.4-0.8,0.4l0,0C119.8,31.3,119.6,31.2,119.4,31.1z
							 M96.6,28.1c-0.2-0.5,0.1-1.1,0.6-1.3l0,0c0.5-0.2,1.1,0.1,1.3,0.6l0,0c0.2,0.5-0.1,1.1-0.6,1.3l0,0c-0.1,0-0.2,0.1-0.3,0.1
							l0,0C97.1,28.7,96.7,28.5,96.6,28.1z M114.5,28.5c-0.5-0.2-0.8-0.8-0.6-1.3l0,0c0.2-0.5,0.8-0.8,1.3-0.6l0,0
							c0.5,0.2,0.8,0.8,0.6,1.3l0,0c-0.1,0.4-0.5,0.7-1,0.7l0,0C114.8,28.5,114.6,28.5,114.5,28.5z M102.2,26.5
							c-0.1-0.6,0.3-1,0.9-1.1l0,0c0.5-0.1,1,0.3,1.1,0.9l0,0c0.1,0.6-0.3,1-0.9,1.1l0,0h-0.1l0,0C102.7,27.4,102.3,27,102.2,26.5z
							 M109,27.3c-0.6-0.1-1-0.5-0.9-1.1l0,0c0-0.6,0.5-1,1.1-0.9l0,0c0.5,0,1,0.5,0.9,1.1l0,0C110.1,26.9,109.6,27.3,109,27.3
							L109,27.3C109.1,27.3,109,27.3,109,27.3z"/>
						<path class="st5" d="M89.9,36.8c-0.3,0-0.5-0.1-0.7-0.3c0-0.1-0.1-0.1-0.1-0.2c0-0.1-0.1-0.1-0.1-0.2c0-0.1,0-0.1-0.1-0.2
							c0-0.1,0-0.1,0-0.2c0-0.1,0-0.1,0-0.2c0-0.1,0-0.1,0.1-0.2c0-0.1,0.1-0.1,0.1-0.2c0-0.1,0.1-0.1,0.1-0.2
							c0.2-0.2,0.6-0.3,0.9-0.3c0.1,0,0.1,0,0.2,0.1c0.1,0,0.1,0,0.2,0.1c0.1,0,0.1,0.1,0.1,0.1c0,0.1,0.1,0.1,0.1,0.2
							c0,0,0.1,0.1,0.1,0.2c0,0.1,0,0.1,0.1,0.2c0,0.1,0,0.1,0,0.2c0,0.1,0,0.1,0,0.2c0,0.1,0,0.1-0.1,0.2c0,0.1-0.1,0.1-0.1,0.2
							c0,0-0.1,0.1-0.1,0.2l-0.1,0.1c-0.1,0-0.1,0.1-0.2,0.1s-0.1,0.1-0.2,0.1C90,36.8,89.9,36.8,89.9,36.8z"/>
					</g>
					<g>
						<path class="st5" d="M121.3,90c-0.3,0-0.5-0.1-0.7-0.3c-0.2-0.2-0.3-0.4-0.3-0.7c0-0.3,0.1-0.5,0.3-0.7
							c0.1-0.1,0.2-0.2,0.3-0.2c0.2-0.1,0.5-0.1,0.8,0c0.1,0.1,0.2,0.1,0.3,0.2c0.2,0.2,0.3,0.5,0.3,0.7s-0.1,0.5-0.3,0.7
							c-0.1,0.1-0.2,0.2-0.3,0.2C121.6,90,121.4,90,121.3,90z"/>
						<path class="st5" d="M121.8,83.3L121.8,83.3L121.8,83.3c-0.2-0.5,0.1-1.1,0.7-1.2l0,0c0.5-0.2,1.1,0.1,1.2,0.7l0,0
							c0.2,0.5-0.1,1.1-0.6,1.2l0,0c-0.1,0-0.2,0-0.3,0l0,0C122.3,84,121.9,83.8,121.8,83.3z M118.1,79.2c-0.5-0.3-0.6-0.9-0.3-1.4
							l0,0c0.3-0.5,0.9-0.6,1.4-0.3l0,0c0.5,0.3,0.6,0.9,0.3,1.4l0,0c-0.2,0.3-0.5,0.5-0.8,0.5l0,0
							C118.5,79.3,118.3,79.3,118.1,79.2z M112.5,76.9c-0.5-0.1-0.9-0.7-0.7-1.2l0,0c0.1-0.5,0.7-0.9,1.2-0.7l0,0
							c0.5,0.1,0.9,0.7,0.7,1.2l0,0c-0.1,0.5-0.5,0.8-1,0.8l0,0C112.7,76.9,112.6,76.9,112.5,76.9z"/>
						<path class="st5" d="M106.4,76.2c-0.1,0-0.3,0-0.4-0.1s-0.2-0.1-0.3-0.2c-0.2-0.2-0.3-0.4-0.3-0.7s0.1-0.5,0.3-0.7
							c0.1-0.1,0.2-0.2,0.3-0.2c0.4-0.1,0.8-0.1,1.1,0.2c0.2,0.2,0.3,0.4,0.3,0.7c0,0.1,0,0.3-0.1,0.4s-0.1,0.2-0.2,0.3
							C106.9,76.1,106.7,76.2,106.4,76.2z"/>
					</g>
					<g>
						<path class="st5" d="M7.2,41.5c-0.1,0-0.3,0-0.4-0.1s-0.2-0.1-0.3-0.2c-0.2-0.2-0.3-0.5-0.3-0.7c0-0.3,0.1-0.5,0.3-0.7
							c0.1-0.1,0.2-0.2,0.3-0.2c0.2-0.1,0.4-0.1,0.6-0.1c0.1,0,0.1,0,0.2,0.1c0.1,0,0.1,0,0.2,0.1l0.1,0.1c0.2,0.2,0.3,0.5,0.3,0.7
							c0,0.3-0.1,0.5-0.3,0.7l-0.1,0.1c-0.1,0-0.1,0.1-0.2,0.1s-0.1,0.1-0.2,0.1C7.3,41.5,7.2,41.5,7.2,41.5z"/>
						<path class="st5" d="M4.9,36.2c-0.6-0.1-1-0.6-0.9-1.1l0,0l0,0l0,0c0-0.6,0.5-1,1.1-0.9l0,0c0.6,0,1,0.5,0.9,1.1l0,0
							C6,35.8,5.5,36.2,4.9,36.2L4.9,36.2C5,36.2,5,36.2,4.9,36.2z M34.9,31.4c-0.4-0.4-0.4-1-0.1-1.4l0,0c0.4-0.4,1-0.4,1.4-0.1
							l0,0l0,0l0,0c0.4,0.4,0.4,1,0.1,1.4l0,0c-0.2,0.2-0.5,0.3-0.7,0.3l0,0C35.3,31.6,35.1,31.6,34.9,31.4z M7.2,30.9
							c-0.4-0.4-0.3-1.1,0.1-1.4l0,0c0.4-0.4,1.1-0.3,1.4,0.1l0,0C9.1,30,9,30.7,8.6,31l0,0c-0.2,0.2-0.4,0.2-0.6,0.2l0,0
							C7.7,31.3,7.4,31.2,7.2,30.9z M30.2,28.6c-0.5-0.2-0.8-0.8-0.6-1.3l0,0c0.2-0.5,0.8-0.8,1.3-0.6l0,0c0.5,0.2,0.8,0.8,0.6,1.3
							l0,0c-0.1,0.4-0.5,0.7-0.9,0.7l0,0C30.4,28.7,30.3,28.7,30.2,28.6z M12.2,27.9c-0.2-0.5,0.1-1.1,0.6-1.3l0,0
							c0.5-0.2,1.1,0.1,1.3,0.6l0,0c0.2,0.5-0.1,1.1-0.6,1.3l0,0c-0.1,0-0.2,0-0.3,0l0,0C12.7,28.5,12.3,28.3,12.2,27.9z M24.7,27.4
							c-0.5-0.1-0.9-0.6-0.9-1.1l0,0c0.1-0.5,0.6-0.9,1.1-0.9l0,0c0.5,0.1,0.9,0.6,0.9,1.1l0,0c-0.1,0.5-0.5,0.9-1,0.9l0,0
							C24.7,27.4,24.7,27.4,24.7,27.4z M17.9,26.4c0-0.5,0.4-1,0.9-1.1l0,0c0.6-0.1,1,0.3,1.1,0.9l0,0c0,0.5-0.4,1-0.9,1.1l0,0h-0.1
							l0,0C18.4,27.3,17.9,26.9,17.9,26.4z"/>
						<path class="st5" d="M38.1,36.8c-0.1,0-0.3,0-0.4-0.1s-0.2-0.1-0.3-0.2c-0.1-0.1-0.2-0.2-0.2-0.3s-0.1-0.2-0.1-0.4
							s0-0.3,0.1-0.4s0.1-0.2,0.2-0.3c0.1-0.1,0.2-0.2,0.3-0.2c0.2-0.1,0.5-0.1,0.8,0c0.1,0,0.2,0.1,0.3,0.2
							c0.1,0.1,0.2,0.2,0.2,0.3s0.1,0.2,0.1,0.4s0,0.3-0.1,0.4c-0.1,0.1-0.1,0.2-0.2,0.3c-0.1,0.1-0.2,0.2-0.3,0.2
							C38.4,36.7,38.3,36.8,38.1,36.8z"/>
					</g>
					<path class="st2" d="M17.7,85.7c-0.3,0.2-0.6,0.3-0.8,0.5c0.2,0.2,0.5,0.4,0.8,0.5c2.1,1.1,5.6,1.1,7.8,0
						c0.3-0.2,0.6-0.3,0.8-0.5c-0.2-0.2-0.5-0.4-0.8-0.5C23.3,84.6,19.8,84.6,17.7,85.7z"/>
					<path class="st0" d="M19.1,87.3c1.6,0.4,3.4,0.4,5,0v-2.5h-5V87.3z"/>
					<ellipse class="st1" cx="21.6" cy="84.8" rx="2.5" ry="1.3"/>
					<ellipse class="st0" cx="106.4" cy="84.8" rx="5.5" ry="2.9"/>
					<path class="st2" d="M102.5,85.7c-0.3,0.2-0.6,0.3-0.8,0.5c0.2,0.2,0.5,0.4,0.8,0.5c2.1,1.1,5.6,1.1,7.8,0
						c0.3-0.2,0.6-0.3,0.8-0.5c-0.2-0.2-0.5-0.4-0.8-0.5C108.2,84.6,104.7,84.6,102.5,85.7z"/>
					<path class="st0" d="M103.9,87.3c1.6,0.4,3.4,0.4,5,0v-2.5h-5V87.3z"/>
					<ellipse class="st1" cx="106.4" cy="84.8" rx="2.5" ry="1.3"/>
					<ellipse class="st0" cx="106.4" cy="35.8" rx="5.5" ry="2.9"/>
					<path class="st2" d="M102.5,36.7c-0.3,0.2-0.6,0.3-0.8,0.5c0.2,0.2,0.5,0.4,0.8,0.5c2.1,1.1,5.6,1.1,7.8,0
						c0.3-0.2,0.6-0.3,0.8-0.5c-0.2-0.2-0.5-0.4-0.8-0.5C108.2,35.6,104.7,35.6,102.5,36.7z"/>
					<path class="st0" d="M103.9,38.3c1.6,0.4,3.4,0.4,5,0v-2.5h-5V38.3z"/>
					<ellipse class="st1" cx="106.4" cy="35.8" rx="2.5" ry="1.3"/>
					<ellipse class="st0" cx="21.6" cy="35.8" rx="5.5" ry="2.9"/>
					<path class="st2" d="M17.7,36.7c-0.3,0.2-0.6,0.3-0.8,0.5c0.2,0.2,0.5,0.4,0.8,0.5c2.1,1.1,5.6,1.1,7.8,0
						c0.3-0.2,0.6-0.3,0.8-0.5c-0.2-0.2-0.5-0.4-0.8-0.5C23.3,35.6,19.8,35.6,17.7,36.7z"/>
					<path class="st0" d="M19.1,38.3c1.6,0.4,3.4,0.4,5,0v-2.5h-5V38.3z"/>
					<ellipse class="st1" cx="21.6" cy="35.8" rx="2.5" ry="1.3"/>
				</g>
				<rect x="4" y="4" class="st6" width="120" height="120"/>
			</g>
		</g>
	</g>
	<g>
		<rect class="st6" width="128" height="128"/>
	</g>
</g>
</svg>
