<?xml version="1.0" encoding="utf-8"?>
<!-- Generator: Adobe Illustrator 24.1.0, SVG Export Plug-In . SVG Version: 6.00 Build 0)  -->
<svg version="1.1" id="Layer_1" xmlns="http://www.w3.org/2000/svg" xmlns:xlink="http://www.w3.org/1999/xlink" x="0px" y="0px"
	 viewBox="0 0 128 128" style="enable-background:new 0 0 128 128;" xml:space="preserve">
<style type="text/css">
	.st0{fill:#FFFFFF;}
	.st1{fill:#4D9987;}
	.st2{fill:#E9EBDF;}
	.st3{fill:#0E352C;}
	.st4{fill:#C4D7D3;}
	.st5{fill:none;}
</style>
<g id="Layer_1_1_">
</g>
<g>
	<g id="Layer_2_1_">
		<g id="Objects_1_">
			<g>
				<g>
					<g>
						<polygon class="st0" points="5.4,66.9 50.6,93.2 123,52.4 78.1,25.7 75.1,26.3 						"/>
						<polygon class="st1" points="16.1,66.4 45.5,83.5 39.5,86.9 39.5,91.9 10.2,74.9 16.1,71.6 						"/>
						<g>
							<polygon class="st1" points="10.2,74.9 16.1,71.6 16.1,66.4 10.2,69.8 							"/>
							<path class="st1" d="M9.7,75.7v-6.2l6.9-4v6.3L9.7,75.7z M10.7,70.1V74l4.9-2.7v-4L10.7,70.1z"/>
						</g>
						<g>
							<g>
								<path class="st2" d="M5,68.7v6.5c0,0.9,0.5,1.7,1.3,2.2L49,102.1c0.7,0.4,1.6-0.1,1.6-0.9v-7.3c0-0.4-0.2-0.7-0.5-0.9
									l-10.5-6v5L10.2,74.9v-5l-3.6-2.1C5.9,67.3,5,67.8,5,68.7z"/>
								<path class="st1" d="M49.5,103.2c-0.4,0-0.7-0.1-1-0.3L5.8,78.2c-1.1-0.6-1.8-1.8-1.8-3v-6.5l0,0c0-0.8,0.4-1.4,1-1.8
									c0.7-0.4,1.4-0.4,2.1,0l3.6,2.1c0.3,0.2,0.5,0.5,0.5,0.9v4.5l27.3,15.9V87c0-0.4,0.2-0.7,0.5-0.9c0.3-0.2,0.7-0.2,1,0
									l10.5,6c0.6,0.4,1,1.1,1,1.8v7.3c0,0.8-0.4,1.4-1,1.8C50.2,103.1,49.9,103.2,49.5,103.2z M6,68.7v6.5c0,0.5,0.3,1.1,0.8,1.3
									l42.7,24.8l1.1-0.1h-1v-7.3l-9-5.2V92c0,0.4-0.2,0.7-0.5,0.9s-0.7,0.2-1,0L9.7,75.7c-0.3-0.2-0.5-0.5-0.5-0.9v-4.5l-3.1-1.8
									L5,68.7H6z"/>
							</g>
						</g>
						<g>
							<g>
								<path class="st1" d="M50.6,93.3v6.8c0,1.3,1.4,2.1,2.5,1.5l68.5-39.5c0.9-0.5,1.4-1.5,1.4-2.5v-7.9c0-0.1-0.1-0.2-0.2-0.1
									L50.6,93.2V93.3z"/>
								<path class="st1" d="M52.3,102.3c-0.4,0-0.7-0.1-1.1-0.3c-0.7-0.4-1.1-1.1-1.1-1.9v-6.8c0-0.2,0.1-0.4,0.3-0.6l72.1-41.6
									c0.2-0.1,0.4-0.1,0.6,0s0.3,0.3,0.3,0.6v7.9c0,1.2-0.6,2.3-1.7,2.9L53.4,102C53,102.2,52.6,102.3,52.3,102.3z M51.1,93.5
									v6.6c0,0.4,0.2,0.8,0.6,1c0.4,0.2,0.8,0.2,1.2,0l68.5-39.5c0.7-0.4,1.2-1.2,1.2-2v-7.3L51.1,93.5z M50.9,93.6L50.9,93.6
									L50.9,93.6z"/>
							</g>
						</g>
						<path class="st3" d="M50.6,103.3c-1,0-1.9-0.3-2.8-0.8L5.9,78.2C4.7,77.6,4,76.3,4,75v-6.6c0-1.3,0.7-2.6,1.9-3.3l68.7-39.7
							c1.7-1,3.9-1,5.6,0l41.9,24.3c1.1,0.7,1.9,1.9,1.9,3.2v6.6c0,1.3-0.7,2.6-1.9,3.3l-68.7,39.7
							C52.5,103.1,51.6,103.3,50.6,103.3z M77.4,26.7c-0.6,0-1.2,0.2-1.8,0.5L6.9,66.8C6.3,67.1,6,67.7,6,68.4V75
							c0,0.6,0.3,1.2,0.9,1.5l41.9,24.3c1.1,0.6,2.5,0.6,3.6,0l68.7-39.7c0.5-0.3,0.9-0.9,0.9-1.5V53c0-0.6-0.3-1.2-0.9-1.5
							L79.2,27.2l0,0C78.6,26.8,78,26.7,77.4,26.7z"/>
						<g>
							<polyline class="st2" points="20.6,69 12.3,73.7 28.7,83.2 37,78.5 							"/>
							<path class="st1" d="M28.7,84.2c-0.2,0-0.3,0-0.5-0.1l-16.4-9.5c-0.3-0.2-0.5-0.5-0.5-0.9s0.2-0.7,0.5-0.9l8.3-4.7
								c0.5-0.3,1.1-0.1,1.4,0.4s0.1,1.1-0.4,1.4l-6.8,3.9l14.4,8.4l7.8-4.4c0.5-0.3,1.1-0.1,1.4,0.4c0.3,0.5,0.1,1.1-0.4,1.4
								l-8.3,4.7C29,84.2,28.8,84.2,28.7,84.2z"/>
						</g>
						<path class="st4" d="M102,49.7l-48.6,28c-0.7,0.4-2,0.4-2.7,0L26.1,63.4c-0.7-0.4-0.7-1.1,0-1.6l48.6-28c0.7-0.4,2-0.4,2.7,0
							L102,48.1C102.7,48.5,102.7,49.2,102,49.7z"/>
						<g>
							<path class="st2" d="M57.2,92.3c0.8-0.5,1.5-0.1,1.5,0.9s-0.7,2.1-1.5,2.6s-1.5,0.1-1.5-0.9S56.4,92.7,57.2,92.3z"/>
						</g>
						<g>
							<path class="st2" d="M117.2,57.4c0.8-0.5,1.5-0.1,1.5,0.9s-0.7,2.1-1.5,2.6s-1.5,0.1-1.5-0.9
								C115.7,59.1,116.4,57.9,117.2,57.4z"/>
						</g>
						<g>
							<polygon class="st2" points="28.7,83.2 39.5,89.6 39.5,86.9 45.5,83.5 37,78.5 							"/>
							<path class="st1" d="M39.5,90.6c-0.2,0-0.3,0-0.5-0.1l-10.9-6.3c-0.3-0.2-0.5-0.5-0.5-0.9s0.2-0.7,0.5-0.9l8.3-4.7
								c0.3-0.2,0.7-0.2,1,0l8.5,4.9c0.3,0.2,0.5,0.5,0.5,0.9s-0.2,0.7-0.5,0.9l-5.4,3.1v2.1c0,0.4-0.2,0.7-0.5,0.9
								C39.9,90.5,39.7,90.6,39.5,90.6z M30.7,83.3l7.9,4.6V87c0-0.4,0.2-0.7,0.5-0.9l4.4-2.6L37,79.7L30.7,83.3z"/>
						</g>
						<path class="st1" d="M24.7,81.6c-0.3,0-0.7-0.2-0.9-0.5c-0.3-0.5-0.1-1.1,0.4-1.4l7.9-4.5c0.5-0.3,1.1-0.1,1.4,0.4
							c0.3,0.5,0.1,1.1-0.4,1.4l-7.9,4.5C25.1,81.6,24.9,81.6,24.7,81.6z"/>
						<path class="st1" d="M39.5,92.9c-0.2,0-0.3,0-0.5-0.1L9.7,75.7c-0.3-0.2-0.5-0.5-0.5-0.9v-5c0-0.4,0.2-0.7,0.5-0.9l5.9-3.4
							c0.3-0.2,0.7-0.2,1,0l29.3,17c0.3,0.2,0.5,0.5,0.5,0.9s-0.2,0.7-0.5,0.9l-5.4,3.1v4.5c0,0.4-0.2,0.7-0.5,0.9
							C39.9,92.9,39.7,92.9,39.5,92.9z M11.2,74.3l27.3,15.9v-3.3c0-0.4,0.2-0.7,0.5-0.9l4.4-2.6L16.1,67.6l-4.9,2.8
							C11.2,70.4,11.2,74.3,11.2,74.3z"/>
						<path class="st1" d="M32.4,86.7c-0.3,0-0.7-0.2-0.9-0.5c-0.3-0.5-0.1-1.1,0.4-1.4l7.7-4.4c0.5-0.3,1.1-0.1,1.4,0.4
							c0.3,0.5,0.1,1.1-0.4,1.4l-7.7,4.4C32.7,86.6,32.5,86.7,32.4,86.7z"/>
						<path class="st1" d="M20.7,79.3c-0.3,0-0.7-0.2-0.9-0.5c-0.3-0.5-0.1-1.1,0.4-1.4L28,73c0.5-0.3,1.1-0.1,1.4,0.4
							s0.1,1.1-0.4,1.4l-7.8,4.4C21.1,79.3,20.9,79.3,20.7,79.3z"/>
						<path class="st1" d="M16.7,77c-0.3,0-0.7-0.2-0.9-0.5c-0.3-0.5-0.1-1.1,0.4-1.4l8.1-4.6c0.5-0.3,1.1-0.1,1.4,0.4
							s0.1,1.1-0.4,1.4l-8.1,4.6C17,77,16.9,77,16.7,77z"/>
						<path class="st3" d="M28.7,84.2c-0.2,0-0.3,0-0.5-0.1l-16.4-9.5c-0.3-0.2-0.5-0.5-0.5-0.9s0.2-0.7,0.5-0.9l8.3-4.7
							c0.3-0.2,0.7-0.2,1,0l16.4,9.5c0.3,0.2,0.5,0.5,0.5,0.9s-0.2,0.7-0.5,0.9l-8.3,4.7C29,84.2,28.8,84.2,28.7,84.2z M14.3,73.7
							l14.4,8.4l6.3-3.6l-14.4-8.4L14.3,73.7z"/>
						<path class="st3" d="M39.5,90.6c-0.2,0-0.3,0-0.5-0.1l-10.9-6.3c-0.3-0.2-0.5-0.5-0.5-0.9s0.2-0.7,0.5-0.9l8.3-4.7
							c0.3-0.2,0.7-0.2,1,0l8.5,4.9c0.3,0.2,0.5,0.5,0.5,0.9s-0.2,0.7-0.5,0.9l-5.4,3.1v2.1c0,0.4-0.2,0.7-0.5,0.9
							C39.9,90.5,39.7,90.6,39.5,90.6z M30.7,83.3l7.9,4.6V87c0-0.4,0.2-0.7,0.5-0.9l4.4-2.6L37,79.7L30.7,83.3z"/>
					</g>
				</g>
				<rect x="4" y="4" class="st5" width="120" height="120"/>
			</g>
		</g>
	</g>
	<g>
		<rect class="st5" width="128" height="128"/>
	</g>
</g>
</svg>
