<?xml version="1.0" encoding="utf-8"?>
<!-- Generator: Adobe Illustrator 24.1.0, SVG Export Plug-In . SVG Version: 6.00 Build 0)  -->
<svg version="1.1" id="Layer_1" xmlns="http://www.w3.org/2000/svg" xmlns:xlink="http://www.w3.org/1999/xlink" x="0px" y="0px"
	 viewBox="0 0 128 128" style="enable-background:new 0 0 128 128;" xml:space="preserve">
<style type="text/css">
	.st0{fill:#FFFFFF;}
	.st1{fill:#4D9987;}
	.st2{fill:#E9EBDF;}
	.st3{fill:#0E352C;}
	.st4{fill:none;}
</style>
<g id="Layer_1_1_">
</g>
<g>
	<g id="Layer_2_1_">
		<g id="Objects_1_">
			<g>
				<g>
					<g>
						<polygon class="st0" points="106.1,28.9 94.9,22.5 72.7,35.3 78.6,44.7 						"/>
						<path class="st1" d="M78.6,45.7c-0.3,0-0.7-0.2-0.8-0.5l-5.9-9.4c-0.1-0.2-0.2-0.5-0.1-0.8s0.2-0.5,0.5-0.6l22.2-12.8
							c0.3-0.2,0.7-0.2,1,0l11.1,6.4c0.3,0.2,0.5,0.5,0.5,0.9s-0.2,0.7-0.5,0.9L79.1,45.6C79,45.7,78.8,45.7,78.6,45.7z M74.1,35.7
							l4.8,7.7L104,28.9l-9.1-5.3L74.1,35.7z"/>
					</g>
					<g>
						<polygon class="st2" points="69.1,15.4 58,9 48.5,49.3 59.6,55.7 						"/>
						<path class="st1" d="M59.6,56.7c-0.2,0-0.3,0-0.5-0.1L48,50.1c-0.4-0.2-0.6-0.7-0.5-1.1L57,8.8c0.1-0.3,0.3-0.6,0.6-0.7
							c0.3-0.1,0.6-0.1,0.9,0l11.1,6.4c0.4,0.2,0.6,0.7,0.5,1.1l-9.5,40.3c-0.1,0.3-0.3,0.6-0.6,0.7C59.9,56.7,59.8,56.7,59.6,56.7z
							 M49.7,48.8l9.3,5.4L68,16l-9.3-5.4L49.7,48.8z"/>
					</g>
					<g>
						<polygon class="st0" points="59.6,55.7 33.1,71 21.9,64.6 48.5,49.3 						"/>
						<path class="st0" d="M33.1,72c-0.2,0-0.3,0-0.5-0.1l-11.1-6.4C21.2,65.3,21,65,21,64.6s0.2-0.7,0.5-0.9L48,48.4
							c0.3-0.2,0.7-0.2,1,0l11.1,6.4c0.3,0.2,0.5,0.5,0.5,0.9s-0.2,0.7-0.5,0.9L33.6,71.9C33.4,72,33.2,72,33.1,72z M23.9,64.6
							l9.1,5.3l24.6-14.2l-9.1-5.3L23.9,64.6z"/>
					</g>
					<g>
						<polygon class="st2" points="44.9,119 33.8,112.6 42.4,76.1 53.6,82.2 						"/>
						<path class="st1" d="M44.9,120c-0.2,0-0.3,0-0.5-0.1l-11.1-6.4c-0.4-0.2-0.6-0.7-0.5-1.1l8.6-36.5c0.1-0.3,0.3-0.6,0.6-0.7
							s0.6-0.1,0.9,0l11.2,6.1c0.4,0.2,0.6,0.7,0.5,1.1l-8.7,36.8c-0.1,0.3-0.3,0.6-0.6,0.7C45.2,120,45,120,44.9,120z M34.9,112.1
							l9.3,5.4l8.2-34.8L43,77.6L34.9,112.1z"/>
					</g>
					<g>
						<path class="st1" d="M84.9,64.8l21.2-35.9L78.6,44.7l-9.5-29.3c0,0-6.3,26.7-9.5,40.3L33.1,71c0,0,14.5,7.8,20.5,11.1
							L44.9,119c0,0,16.2-21.8,24.2-32.6c8,1.5,24.2,4.7,24.2,4.7L84.9,64.8z"/>
						<path class="st0" d="M44.9,120c-0.1,0-0.3,0-0.4-0.1c-0.4-0.2-0.7-0.7-0.6-1.1l8.5-36.1L32.6,71.9c-0.3-0.2-0.5-0.5-0.5-0.9
							s0.2-0.7,0.5-0.9L58.8,55l9.4-39.9c0.1-0.4,0.5-0.8,0.9-0.8s0.9,0.3,1,0.7l9.1,28.1L105.6,28c0.4-0.2,0.9-0.2,1.2,0.2
							c0.3,0.3,0.4,0.8,0.2,1.2L86,65l8.3,25.8c0.1,0.3,0,0.7-0.2,1s-0.6,0.4-0.9,0.3l-23.6-4.5l-23.8,32.1
							C45.5,119.9,45.2,120,44.9,120z M35.1,71l19,10.3c0.4,0.2,0.6,0.7,0.5,1.1L47,114.5l21.3-28.7c0.2-0.3,0.6-0.5,1-0.4l22.6,4.3
							l-8-24.6c-0.1-0.3-0.1-0.6,0.1-0.8l19.3-32.7l-24.2,14c-0.3,0.2-0.6,0.2-0.9,0.1c-0.3-0.1-0.5-0.3-0.6-0.6l-8.4-25.9L60.5,56
							c-0.1,0.3-0.2,0.5-0.5,0.6L35.1,71z"/>
					</g>
					<path class="st3" d="M44.9,120c-0.2,0-0.3,0-0.5-0.1l-11.1-6.4c-0.4-0.2-0.6-0.7-0.5-1.1l8.4-35.7L32.6,72l-11.1-6.4
						c-0.3-0.2-0.5-0.5-0.5-0.9s0.2-0.7,0.5-0.9l26.2-15.1L57,8.8c0.1-0.3,0.3-0.6,0.6-0.7c0.3-0.1,0.6-0.1,0.9,0l11.1,6.4
						c0,0,0,0,0.1,0c0.1,0.1,0.1,0.1,0.2,0.2l0,0c0.1,0.1,0.1,0.2,0.2,0.3l0,0l0,0l0,0l0,0l5.6,17.3l18.7-10.8c0.3-0.2,0.7-0.2,1,0
						l11.1,6.4c0.2,0.1,0.4,0.4,0.5,0.6s0,0.5-0.1,0.8L86,65l8.3,25.8c0.1,0.3,0,0.7-0.2,1s-0.6,0.4-0.9,0.3l-23.6-4.5l-23.8,32.1
						C45.5,119.9,45.2,120,44.9,120z M34.9,112.1l9.7,5.6l23.7-31.9c0.2-0.3,0.6-0.5,1-0.4l22.6,4.3l-8-24.6
						c-0.1-0.3-0.1-0.6,0.1-0.8l20.7-35.1L95,23.6L75.6,34.8C75.3,35,75,35,74.7,34.9c-0.3-0.1-0.5-0.3-0.6-0.6l-5.7-17.5
						c-0.3-0.2-0.5-0.5-0.5-0.8l-9.3-5.4l-9.2,39c-0.1,0.3-0.2,0.5-0.5,0.6l-25,14.4l9.6,5.6l9.3,5l0,0l0,0l0,0l0,0
						c0.4,0.3,0.6,0.9,0.4,1.3L34.9,112.1z"/>
				</g>
				<rect x="4" y="4" class="st4" width="120" height="120"/>
				<rect x="4" y="4" class="st4" width="120" height="120"/>
			</g>
		</g>
	</g>
	<g>
		<rect class="st4" width="128" height="128"/>
	</g>
</g>
</svg>
