<?xml version="1.0" encoding="utf-8"?>
<!-- Generator: Adobe Illustrator 24.1.0, SVG Export Plug-In . SVG Version: 6.00 Build 0)  -->
<svg version="1.1" id="Layer_1" xmlns="http://www.w3.org/2000/svg" xmlns:xlink="http://www.w3.org/1999/xlink" x="0px" y="0px"
	 viewBox="0 0 128 128" style="enable-background:new 0 0 128 128;" xml:space="preserve">
<style type="text/css">
	.st0{fill:none;}
	.st1{fill:#E9EBDF;}
	.st2{fill:#4D9987;}
	.st3{fill:#0E352C;}
	.st4{fill:#FFFFFF;}
	.st5{fill:#27ae60;}
	.st6{fill:#C4D7D3;}
	.st7{fill:#185849;}
</style>
<g id="Layer_1_1_">
</g>
<g>
	<g id="Layer_2_1_">
		<g id="Layer_6_1_">
			<g>
				<rect x="4" y="4" class="st0" width="120" height="120"/>
				<rect x="4" y="4" class="st0" width="120" height="120"/>
				<g>
					<g>
						<g>
							<g>
								<g>
									<path class="st1" d="M37.3,59.7c0-14.9-3.4-28.9-7.6-31.3c-0.8-0.5-1.6-0.5-2.3,0l0,0l-5.8,3.4l1.5,7.1
										c-0.6,3.4-0.9,7.6-0.9,12.1c0,10.6,1.7,20.8,4.3,26.7l-0.2,8.1l5.8-3.4l0,0C35.1,80.6,37.3,71.7,37.3,59.7z"/>
									<path class="st2" d="M26.3,86.7c-0.2,0-0.4,0-0.5-0.1c-0.3-0.2-0.5-0.5-0.5-0.9l0.2-7.8c-2.6-6.2-4.2-16.5-4.2-26.9
										c0-4.4,0.3-8.6,0.9-12.1L20.8,32c-0.1-0.4,0.1-0.9,0.5-1.1l5.8-3.4c0,0,0.1,0,0.1-0.1c1-0.6,2.2-0.5,3.2,0.1
										c5.1,2.9,8.1,18.7,8.1,32.2c0,12.1-2.2,21.3-5.6,23.4c0,0-0.1,0-0.1,0.1L27,86.6C26.6,86.6,26.4,86.7,26.3,86.7z
										 M22.7,32.2l1.3,6.4c0,0.1,0,0.2,0,0.4c-0.6,3.5-0.9,7.6-0.9,12c0,10.1,1.6,20.4,4.2,26.3c0.1,0.1,0.1,0.3,0.1,0.4L27.3,84
										l4.2-2.4c0,0,0.1,0,0.1-0.1c2.4-1.4,4.7-9.3,4.7-21.7c0-15.8-3.7-28.5-7.1-30.5c-0.5-0.3-0.9-0.3-1.3,0h-0.1L22.7,32.2z"/>
									<g>
										
											<ellipse transform="matrix(0.9988 -4.801022e-02 4.801022e-02 0.9988 -2.7906 1.2151)" class="st2" cx="23.9" cy="58.7" rx="7.5" ry="27.3"/>
										<path class="st2" d="M25.2,87c-0.6,0-1.2-0.2-1.7-0.5c-5.1-2.9-8.1-18.7-8.1-32.2c0-12.3,2.3-21.5,5.7-23.5
											c1.1-0.6,2.2-0.6,3.3,0c5.1,2.9,8.1,18.7,8.1,32.2c0,12.3-2.3,21.5-5.7,23.5C26.2,86.9,25.7,87,25.2,87z M22.7,32.4
											c-0.2,0-0.4,0.1-0.6,0.2c-2.4,1.4-4.7,9.3-4.7,21.7c0,15.8,3.7,28.5,7.1,30.5c0.5,0.3,0.9,0.3,1.3,0
											c2.4-1.4,4.7-9.3,4.7-21.7c0-15.8-3.7-28.5-7.1-30.5C23.2,32.5,22.9,32.4,22.7,32.4z"/>
									</g>
									<path class="st3" d="M25.2,87c-0.6,0-1.2-0.2-1.7-0.5c-5.1-2.9-8.1-18.7-8.1-32.2c0-12.3,2.3-21.5,5.7-23.5
										c1.1-0.6,2.2-0.6,3.3,0c5.1,2.9,8.1,18.7,8.1,32.2c0,12.3-2.3,21.5-5.7,23.5C26.2,86.9,25.7,87,25.2,87z M22.7,32.4
										c-0.2,0-0.4,0.1-0.6,0.2c-2.4,1.4-4.7,9.3-4.7,21.7c0,15.8,3.7,28.5,7.1,30.5c0.5,0.3,0.9,0.3,1.3,0
										c2.4-1.4,4.7-9.3,4.7-21.7c0-15.8-3.7-28.5-7.1-30.5C23.2,32.5,22.9,32.4,22.7,32.4z"/>
								</g>
								<path class="st3" d="M25.1,87c-0.6,0-1.1-0.2-1.7-0.5c-5.1-2.9-8.1-18.7-8.1-32.2c0-12.1,2.2-21.3,5.6-23.4
									c0,0,0.1,0,0.1-0.1l5.8-3.4c0,0,0.1,0,0.1-0.1c1-0.6,2.2-0.5,3.2,0.1c5.1,2.9,8.1,18.7,8.1,32.2c0,12.1-2.2,21.3-5.6,23.4
									c0,0-0.1,0-0.1,0.1l-5.8,3.4c0,0-0.1,0-0.1,0.1C26.2,86.9,25.7,87,25.1,87z M22.2,32.5C22.1,32.5,22.1,32.6,22.2,32.5
									c-2.4,1.4-4.8,9.3-4.8,21.8c0,15.8,3.7,28.5,7.1,30.5c0.5,0.3,0.9,0.3,1.3,0h0.1l5.6-3.3c0,0,0.1,0,0.1-0.1
									c2.4-1.4,4.7-9.3,4.7-21.7c0-15.8-3.7-28.5-7.1-30.5c-0.5-0.3-0.9-0.3-1.3,0h-0.1L22.2,32.5z"/>
							</g>
							<path class="st2" d="M37.3,99.6c-0.2,0-0.3,0-0.5-0.1l-14.1-8.2c0,0-0.1,0-0.1-0.1c-1.1-0.7-1.8-2.2-1.8-4.1v-34
								c0-14.8,9.1-32.1,20.2-38.6c5-2.9,9.9-3.3,13.8-1.1c0,0,0.1,0,0.1,0.1L69,21.6c0.2,0.1,0.4,0.4,0.5,0.6
								c0.1,0.3,0,0.6-0.1,0.8l-7.1,10.7v30.7c0,3.4-2,7.2-4.6,8.6l-16,9.3l-3.4,16.5c-0.1,0.3-0.3,0.6-0.6,0.7
								C37.5,99.6,37.4,99.6,37.3,99.6z M23.7,89.6L36.5,97l3.2-15.6c0.1-0.3,0.2-0.5,0.5-0.7l16.4-9.5c1.9-1.1,3.6-4.3,3.6-6.9v-31
								c0-0.2,0.1-0.4,0.2-0.6l6.7-10.1L54,15.3c0,0-0.1,0-0.1-0.1c-3.3-1.9-7.5-1.5-11.9,1C31.4,22.3,22.8,38.9,22.8,53v34.1
								C22.7,88.4,23.1,89.3,23.7,89.6L23.7,89.6z"/>
							<path class="st1" d="M75.3,52.8L61.2,61V33.4l7.3-10.9l-14.1-8.2l0,0c-3.5-2-8-1.8-12.9,1l0,0C30.6,21.6,21.8,38.5,21.8,53
								v34.1c0,1.6,0.5,2.8,1.4,3.3l0,0l14.1,8.2l4.1,2.3l1.2-3.2l29.5-17c2.2-1.3,4.1-4.8,4.1-7.8L75.3,52.8z"/>
							<path class="st4" d="M54.4,14.3c-3.5-2-8-1.8-12.9,1l0,0c-6,3.5-11.4,10.1-15,17.9l34.7,20.1V33.4l7.3-10.9L54.4,14.3
								L54.4,14.3z"/>
							<path class="st2" d="M28.2,57.8c-0.6,0-1-0.4-1-1c0-14.8,9.1-32.1,20.2-38.6c5.1-3,10.1-3.3,14-1c0.5,0.3,0.6,0.9,0.3,1.4
								s-0.9,0.6-1.4,0.3c-3.3-1.9-7.5-1.6-12,1C37.7,26,29.1,42.6,29.1,56.7C29.2,57.4,28.8,57.8,28.2,57.8z"/>
							<path class="st2" d="M39.9,79c-0.2,0-0.3,0-0.5-0.1L21.2,68.3c-0.5-0.3-0.6-0.9-0.4-1.4c0.3-0.5,0.9-0.6,1.4-0.4L40.4,77
								c0.5,0.3,0.6,0.9,0.4,1.4C40.6,78.8,40.3,79,39.9,79z"/>
							<g>
								<path class="st2" d="M75.3,52.8V38.4c0-14.5-8.8-21.2-19.7-14.9l0,0c-10.9,6.3-19.7,23.2-19.7,37.7v14.4L75.3,52.8z"/>
								<path class="st2" d="M35.9,76.6c-0.2,0-0.3,0-0.5-0.1c-0.3-0.2-0.5-0.5-0.5-0.9V61.2c0-14.8,9.1-32.1,20.2-38.6
									c5.1-2.9,10-3.3,13.9-1c4.7,2.7,7.3,8.8,7.3,16.8v14.4c0,0.4-0.2,0.7-0.5,0.9L36.4,76.5C36.2,76.6,36,76.6,35.9,76.6z
									 M63.4,22.2c-2.3,0-4.8,0.7-7.3,2.2C45.5,30.5,36.9,47,36.9,61.2v12.7l37.5-21.6V38.4c0-7.3-2.3-12.8-6.3-15.1
									C66.6,22.5,65.1,22.2,63.4,22.2z M75.3,52.8L75.3,52.8L75.3,52.8z"/>
							</g>
							<g>
								<path class="st2" d="M39.9,78v19.7c0,3,1.8,4.4,4.1,3.1l31.3-18.1c2.2-1.3,4.1-4.8,4.1-7.8V57.3c0-0.9-1-1.5-1.8-1L39.9,78z
									"/>
								<path class="st2" d="M42.4,102.2c-0.5,0-1.1-0.1-1.5-0.4c-1.2-0.7-1.9-2.2-1.9-4.2V78c0-0.4,0.2-0.7,0.5-0.9l37.7-21.8
									c0.7-0.4,1.5-0.4,2.2,0s1.1,1.1,1.1,1.9v17.6c0,3.4-2,7.2-4.6,8.6l-31.3,18.1C43.8,102,43.1,102.2,42.4,102.2z M40.9,78.6
									v19.1c0,1.2,0.3,2.1,0.9,2.4c0.5,0.3,1.2,0.1,1.7-0.2l31.3-18.1c1.9-1.1,3.6-4.3,3.6-6.9V57.3c0-0.1,0-0.1-0.1-0.2
									c-0.1,0-0.1,0-0.2,0L40.9,78.6z"/>
							</g>
							<g>
								<path class="st4" d="M77.2,53.9l-1.9-1.1L35.9,75.6l4.1,2.3l37.3-21.5C78.2,55.9,78.2,54.5,77.2,53.9z"/>
								<path class="st2" d="M39.9,79c-0.2,0-0.3,0-0.5-0.1l-4.1-2.3c-0.3-0.2-0.5-0.5-0.5-0.9s0.2-0.7,0.5-0.9L74.8,52
									c0.3-0.2,0.7-0.2,1,0l1.9,1.1l0,0c0.8,0.4,1.2,1.2,1.2,2.1s-0.5,1.7-1.2,2.1L40.4,78.9C40.3,78.9,40.1,79,39.9,79z
									 M37.9,75.6l2.1,1.2l36.8-21.2c0.2-0.1,0.2-0.3,0.2-0.4s0-0.3-0.2-0.4L75.3,54L37.9,75.6z"/>
							</g>
							<path class="st3" d="M54.4,77.2c-0.3,0-0.7-0.2-0.9-0.5c-0.3-0.5-0.1-1.1,0.4-1.4l10.5-6.1c0.5-0.3,1.1-0.1,1.4,0.4
								s0.1,1.1-0.4,1.4l-10.5,6C54.7,77.1,54.6,77.2,54.4,77.2z"/>
							<g>
								<polygon class="st1" points="72.2,78 68,80.4 68,77.5 72.2,75.1 								"/>
								<path class="st1" d="M68,81.4c-0.2,0-0.3,0-0.5-0.1C67.2,81,67,80.7,67,80.4v-2.9c0-0.4,0.2-0.7,0.5-0.9l4.2-2.4
									c0.3-0.2,0.7-0.2,1,0s0.5,0.5,0.5,0.9V78c0,0.4-0.2,0.7-0.5,0.9l-4.2,2.4C68.4,81.3,68.2,81.4,68,81.4z M69,78.1v0.6
									l2.2-1.2v-0.6L69,78.1z M72.2,78L72.2,78L72.2,78z"/>
							</g>
							<path class="st3" d="M42.4,102.2c-0.5,0-1-0.1-1.4-0.4c0,0-0.1,0-0.1-0.1L22.6,91.3c0,0-0.1,0-0.1-0.1
								c-1.1-0.7-1.8-2.2-1.8-4.1v-34c0-6.4,1.7-13.6,4.8-20.3c0.2-0.5,0.5-1,0.7-1.4c0.3-0.5,0.5-1,0.7-1.4c0.3-0.5,0.5-1,0.8-1.4
								c0,0,0-0.1,0.1-0.1c1.3-2.2,2.8-4.4,4.4-6.3l0.1-0.1c0.3-0.4,0.6-0.7,0.9-1l0.2-0.3c0.2-0.3,0.5-0.5,0.7-0.8l0.3-0.3
								c0.2-0.2,0.5-0.5,0.7-0.7l0.4-0.3c0.2-0.2,0.4-0.4,0.7-0.6l0.4-0.3c0.2-0.2,0.4-0.4,0.7-0.5l0.4-0.3c0.2-0.2,0.4-0.3,0.7-0.5
								l0.4-0.3c0.2-0.2,0.5-0.3,0.7-0.5l0.4-0.2c0.4-0.2,0.7-0.5,1.1-0.7c5-2.9,9.9-3.3,13.8-1.1c0,0,0.1,0,0.1,0.1L69,21.6
								c0,0,0.1,0,0.1,0.1c4.6,2.7,7.2,8.8,7.2,16.8v13.8l1.1,0.6c1.8,1.1,3,3,3,5.1v16.9c0,3.4-2,7.2-4.6,8.6l-31.3,18.1
								C43.8,102,43.1,102.2,42.4,102.2z M41.7,100.1C41.8,100.1,41.8,100.1,41.7,100.1c0.6,0.4,1.3,0.1,1.7-0.2l31.3-18.1
								c1.9-1.1,3.6-4.3,3.6-6.9V58c0-1.4-0.8-2.7-2-3.4l-1.6-0.9c-0.3-0.2-0.5-0.5-0.5-0.9V38.4c0-7.3-2.3-12.8-6.3-15.1
								c0,0-0.1,0-0.1-0.1l-13.9-8c0,0-0.1,0-0.1-0.1c-3.3-1.9-7.5-1.5-11.9,1c-0.3,0.2-0.7,0.4-1,0.6l-0.3,0.2
								c-0.2,0.2-0.5,0.3-0.7,0.5l-0.4,0.3c-0.2,0.2-0.4,0.3-0.6,0.5l-0.3,0.3c-0.3,0.2-0.5,0.4-0.7,0.6l-0.4,0.3
								c-0.2,0.2-0.4,0.4-0.6,0.6l-0.3,0.3c-0.2,0.2-0.4,0.4-0.6,0.6l-0.3,0.3c-0.2,0.2-0.5,0.5-0.7,0.7l-0.2,0.3
								c-0.3,0.3-0.5,0.6-0.8,0.9l-0.1,0.1c-1.6,1.9-3,4-4.3,6.2l0,0c-0.3,0.4-0.5,0.9-0.8,1.3c-0.3,0.5-0.5,0.9-0.7,1.4
								c-0.3,0.5-0.5,1-0.7,1.4c-3,6.4-4.7,13.3-4.7,19.4V87c0,1.2,0.3,2.1,0.9,2.4c0,0,0.1,0,0.1,0.1L41.7,100.1z"/>
							<g>
								<polygon class="st1" points="60.3,40.3 55.6,49.2 50.9,45.7 55.6,36.8 								"/>
								<path class="st1" d="M55.6,50.2c-0.2,0-0.4-0.1-0.6-0.2l-4.7-3.5c-0.4-0.3-0.5-0.8-0.3-1.3l4.7-8.9c0.1-0.3,0.4-0.4,0.7-0.5
									s0.6,0,0.8,0.2l4.7,3.5c0.4,0.3,0.5,0.8,0.3,1.3l-4.7,8.9c-0.1,0.3-0.4,0.4-0.7,0.5C55.7,50.2,55.7,50.2,55.6,50.2z
									 M52.2,45.4l3,2.3l3.7-7.1l-3-2.3L52.2,45.4z"/>
							</g>
							<path class="st3" d="M55.6,50.9c-0.2,0-0.4-0.1-0.6-0.2l-5.2-3.9c-0.4-0.3-0.5-0.8-0.3-1.3l5.2-9.9c0.1-0.3,0.4-0.4,0.7-0.5
								s0.6,0,0.8,0.2l5.2,3.9c0.4,0.3,0.5,0.8,0.3,1.3l-5.2,9.9c-0.1,0.3-0.4,0.4-0.7,0.5C55.7,50.9,55.7,50.9,55.6,50.9z
								 M51.7,45.7l3.6,2.7l4.2-8.1l-3.6-2.7L51.7,45.7z"/>
							<path class="st3" d="M34.8,23.9c-0.6,0-1-0.4-1-1v-4.3c0-5.3,3.2-11.4,7.2-13.7c1.9-1.1,3.9-1.2,5.4-0.4
								c1.8,1,2.8,3.3,2.8,6.3v4.3c0,0.6-0.4,1-1,1s-1-0.4-1-1v-4.3c0-2.2-0.7-3.9-1.8-4.6C44.3,5.7,43,6.1,42,6.7
								c-3.4,2-6.2,7.4-6.2,12V23C35.8,23.5,35.4,23.9,34.8,23.9z"/>
							<path class="st2" d="M34.4,86.2c-0.2,0-0.3,0-0.5-0.1l-7.2-4.2c-0.5-0.3-0.6-0.9-0.4-1.4c0.3-0.5,0.9-0.6,1.4-0.4l7.2,4.2
								c0.5,0.3,0.6,0.9,0.4,1.4C35.1,86,34.8,86.2,34.4,86.2z"/>
							<path class="st2" d="M30.1,59c-0.2,0-0.3,0-0.5-0.1l-3.7-2.1c-0.5-0.3-0.6-0.9-0.4-1.4c0.3-0.5,0.9-0.6,1.4-0.4l3.7,2.1
								c0.5,0.3,0.6,0.9,0.4,1.4C30.8,58.8,30.5,59,30.1,59z"/>
						</g>
					</g>
					<g>
						<g>
							<g>
								<g>
									<g>
										<polygon class="st1" points="67.2,118.2 75.5,123 111.7,102.1 102.5,96.8 										"/>
										<path class="st2" d="M75.5,124c-0.2,0-0.3,0-0.5-0.1l-8.3-4.8c-0.3-0.2-0.5-0.5-0.5-0.9s0.2-0.7,0.5-0.9L102,96
											c0.3-0.2,0.7-0.2,1,0l9.2,5.3c0.3,0.2,0.5,0.5,0.5,0.9s-0.2,0.7-0.5,0.9L76,123.9C75.8,124,75.7,124,75.5,124z
											 M69.2,118.2l6.3,3.6l34.2-19.7l-7.1-4.1L69.2,118.2z"/>
									</g>
									<g>
										<path class="st4" d="M75.5,123l-23-13.3c-1.5-0.9-2.8-3.3-2.8-5.3l0,0c0-2,1.2-3,2.8-2.1l23,13.3V123z"/>
										<path class="st5" d="M75.5,124c-0.2,0-0.3,0-0.5-0.1l-23-13.3c-1.8-1.1-3.3-3.8-3.3-6.2c0-1.4,0.5-2.6,1.5-3.1
											c0.8-0.5,1.8-0.4,2.8,0.1l23,13.3c0.3,0.2,0.5,0.5,0.5,0.9v7.4c0,0.4-0.2,0.7-0.5,0.9C75.8,124,75.7,124,75.5,124z
											 M51.4,103c-0.1,0-0.1,0-0.2,0.1c-0.2,0.1-0.5,0.6-0.5,1.4c0,1.7,1,3.7,2.3,4.4l21.5,12.4v-5.1l-22.5-13
											C51.9,103.2,51.7,103,51.4,103z"/>
									</g>
									<g>
										<polygon class="st6" points="75.5,115.6 111.7,94.7 111.7,102.1 75.5,123 										"/>
										<path class="st5" d="M75.5,124c-0.2,0-0.3,0-0.5-0.1c-0.3-0.2-0.5-0.5-0.5-0.9v-7.4c0-0.4,0.2-0.7,0.5-0.9l36.2-20.9
											c0.3-0.2,0.7-0.2,1,0s0.5,0.5,0.5,0.9v7.4c0,0.4-0.2,0.7-0.5,0.9L76,123.9C75.8,124,75.7,124,75.5,124z M76.5,116.2v5.1
											l34.2-19.7v-5.1L76.5,116.2z"/>
									</g>
									<g>
										<path class="st5" d="M52.5,102.4l23,13.3l36.2-20.9l-23-13.3c-0.7-0.4-1.3-0.4-1.8-0.1l0,0l-36.2,20.9l0,0
											C51.2,101.9,51.8,102,52.5,102.4z"/>
										<path class="st5" d="M75.5,116.6c-0.2,0-0.3,0-0.5-0.1l-23-13.3l0,0c-0.2-0.1-0.6-0.3-0.8-0.1c-0.4,0.2-0.8,0.2-1.1-0.1
											c-0.3-0.2-0.4-0.5-0.4-0.9c0-0.3,0.2-0.6,0.5-0.8l36.2-20.9h0.1c0.8-0.4,1.8-0.4,2.7,0.2l23,13.3c0.3,0.2,0.5,0.5,0.5,0.9
											s-0.2,0.7-0.5,0.9L76,116.5C75.8,116.6,75.7,116.6,75.5,116.6z M53.5,101.8l22,12.7l34.2-19.7L88.2,82.3
											c-0.2-0.1-0.6-0.3-0.8-0.1c0,0,0,0-0.1,0L53.5,101.8z"/>
									</g>
									<path class="st6" d="M93.1,97.8c-0.5,0-1.1-0.1-1.5-0.4l-8.5-4.9c-0.6-0.3-0.9-0.9-0.9-1.5s0.3-1.1,0.9-1.5l2.3-1.3
										c0.9-0.5,2.2-0.5,3.1,0l8.5,4.9c0.6,0.3,0.9,0.9,0.9,1.5s-0.3,1.1-0.9,1.5l0,0l-2.3,1.3C94.2,97.7,93.6,97.8,93.1,97.8z
										 M84.5,91.1l8,4.6c0.3,0.1,0.8,0.1,1.1,0l1.8-1l-8-4.6c-0.3-0.1-0.8-0.1-1.1,0L84.5,91.1z M96.4,95.3L96.4,95.3L96.4,95.3z
										"/>
									<path class="st6" d="M71.3,108.3c-0.2,0-0.3,0-0.5-0.1l-6.2-3.6c-0.5-0.3-0.6-0.9-0.4-1.4c0.3-0.5,0.9-0.6,1.4-0.4l6.2,3.6
										c0.5,0.3,0.6,0.9,0.4,1.4C71.9,108.1,71.6,108.3,71.3,108.3z"/>
								</g>
								<path class="st7" d="M75.5,124c-0.2,0-0.3,0-0.5-0.1l-23-13.3c-1.8-1.1-3.3-3.8-3.3-6.2c0-1.4,0.5-2.5,1.4-3
									c0,0,0.1,0,0.1-0.1l36.2-20.9h0.1c0.8-0.4,1.8-0.4,2.7,0.2l23,13.3c0.3,0.2,0.5,0.5,0.5,0.9v7.4c0,0.4-0.2,0.7-0.5,0.9
									L76,123.9C75.8,124,75.7,124,75.5,124z M51.3,103C51.3,103.1,51.2,103.1,51.3,103c-0.3,0.2-0.5,0.6-0.5,1.4
									c0,1.7,1,3.7,2.3,4.4l22.5,13l35.2-20.3v-6.2l-22.5-13l0,0c-0.2-0.1-0.6-0.3-0.8-0.1c0,0,0,0-0.1,0L51.3,103z"/>
							</g>
						</g>
						<g>
							<g>
								<g>
									<g>
										<polygon class="st1" points="67.2,110.8 75.5,115.6 111.7,94.7 102.5,89.5 										"/>
										<path class="st2" d="M75.5,116.6c-0.2,0-0.3,0-0.5-0.1l-8.3-4.8c-0.3-0.2-0.5-0.5-0.5-0.9s0.2-0.7,0.5-0.9L102,88.6
											c0.3-0.2,0.7-0.2,1,0l9.2,5.3c0.3,0.2,0.5,0.5,0.5,0.9s-0.2,0.7-0.5,0.9L76,116.5C75.8,116.6,75.7,116.6,75.5,116.6z
											 M69.2,110.8l6.3,3.6l34.2-19.7l-7.1-4.1L69.2,110.8z"/>
									</g>
									<g>
										<path class="st4" d="M75.5,115.6l-23-13.3c-1.5-0.9-2.8-3.3-2.8-5.3l0,0c0-2,1.2-3,2.8-2.1l23,13.3V115.6z"/>
										<path class="st5" d="M75.5,116.6c-0.2,0-0.3,0-0.5-0.1l-23-13.3c-1.8-1.1-3.3-3.8-3.3-6.2c0-1.4,0.5-2.6,1.5-3.1
											C51,93.4,52,93.5,53,94l23,13.3c0.3,0.2,0.5,0.5,0.5,0.9v7.4c0,0.4-0.2,0.7-0.5,0.9C75.8,116.6,75.7,116.6,75.5,116.6z
											 M51.4,95.6c-0.1,0-0.1,0-0.2,0.1c-0.2,0.1-0.5,0.6-0.5,1.4c0,1.7,1,3.7,2.3,4.4l21.5,12.4v-5.1L52,95.8
											C51.9,95.8,51.7,95.6,51.4,95.6z"/>
									</g>
									<g>
										<polygon class="st6" points="75.5,108.2 111.7,87.4 111.7,94.7 75.5,115.6 										"/>
										<path class="st5" d="M75.5,116.6c-0.2,0-0.3,0-0.5-0.1c-0.3-0.2-0.5-0.5-0.5-0.9v-7.4c0-0.4,0.2-0.7,0.5-0.9l36.2-20.9
											c0.3-0.2,0.7-0.2,1,0s0.5,0.5,0.5,0.9v7.4c0,0.4-0.2,0.7-0.5,0.9L76,116.5C75.8,116.6,75.7,116.6,75.5,116.6z M76.5,108.8
											v5.1l34.2-19.7v-5.1L76.5,108.8z"/>
									</g>
									<g>
										<path class="st5" d="M52.5,95l23,13.3l36.2-20.9l-23-13.3c-0.7-0.4-1.3-0.4-1.8-0.1l0,0L50.7,94.8l0,0
											C51.2,94.6,51.8,94.6,52.5,95z"/>
										<path class="st5" d="M75.5,109.2c-0.2,0-0.3,0-0.5-0.1L52,95.8l0,0c-0.2-0.1-0.6-0.3-0.8-0.1c-0.4,0.2-0.8,0.2-1.1-0.1
											c-0.3-0.2-0.4-0.5-0.4-0.9c0-0.3,0.2-0.6,0.5-0.8L86.4,73h0.1c0.8-0.4,1.8-0.4,2.7,0.2l23,13.3c0.3,0.2,0.5,0.5,0.5,0.9
											s-0.2,0.7-0.5,0.9L76,109.1C75.8,109.2,75.7,109.2,75.5,109.2z M53.5,94.4l22,12.7l34.2-19.7L88.2,75
											c-0.2-0.1-0.6-0.3-0.8-0.1c0,0,0,0-0.1,0L53.5,94.4z"/>
									</g>
									<path class="st6" d="M93.1,90.4c-0.5,0-1.1-0.1-1.5-0.4l-8.5-4.9c-0.6-0.3-0.9-0.9-0.9-1.5s0.3-1.1,0.9-1.5l2.3-1.3
										c0.9-0.5,2.2-0.5,3.1,0l8.5,4.9c0.6,0.3,0.9,0.9,0.9,1.5s-0.3,1.1-0.9,1.5l0,0L94.7,90C94.2,90.3,93.6,90.4,93.1,90.4z
										 M84.5,83.7l8,4.6c0.3,0.1,0.8,0.1,1.1,0l1.8-1l-8-4.6c-0.3-0.1-0.8-0.1-1.1,0L84.5,83.7z M96.4,87.9L96.4,87.9L96.4,87.9z
										"/>
									<path class="st6" d="M71.3,100.9c-0.2,0-0.3,0-0.5-0.1l-6.2-3.6c-0.5-0.3-0.6-0.9-0.4-1.4c0.3-0.5,0.9-0.6,1.4-0.4l6.2,3.6
										c0.5,0.3,0.6,0.9,0.4,1.4C71.9,100.7,71.6,100.9,71.3,100.9z"/>
								</g>
								<path class="st7" d="M75.5,116.6c-0.2,0-0.3,0-0.5-0.1l-23-13.3c-1.8-1.1-3.3-3.8-3.3-6.2c0-1.4,0.5-2.5,1.4-3
									c0,0,0.1,0,0.1-0.1L86.4,73c0,0,0.1,0,0.1-0.1c0.8-0.4,1.8-0.4,2.7,0.2l23,13.3c0.3,0.2,0.5,0.5,0.5,0.9v7.4
									c0,0.4-0.2,0.7-0.5,0.9L76,116.5C75.8,116.6,75.7,116.6,75.5,116.6z M51.3,95.7C51.3,95.7,51.2,95.7,51.3,95.7
									c-0.3,0.2-0.5,0.6-0.5,1.4c0,1.7,1,3.7,2.3,4.4l22.5,13l35.2-20.3V88L88.2,75l0,0c-0.2-0.1-0.6-0.3-0.8-0.1c0,0,0,0-0.1,0
									L51.3,95.7z"/>
							</g>
						</g>
					</g>
				</g>
			</g>
		</g>
	</g>
	<g>
		<rect class="st0" width="128" height="128"/>
	</g>
</g>
</svg>
