<?xml version="1.0" encoding="utf-8"?>
<!-- Generator: Adobe Illustrator 24.1.0, SVG Export Plug-In . SVG Version: 6.00 Build 0)  -->
<svg version="1.1" id="Layer_1" xmlns="http://www.w3.org/2000/svg" xmlns:xlink="http://www.w3.org/1999/xlink" x="0px" y="0px"
	 viewBox="0 0 128 128" style="enable-background:new 0 0 128 128;" xml:space="preserve">
<style type="text/css">
	.st0{fill:#0E352C;}
	.st1{fill:#185849;}
	.st2{fill:#C4D7D3;}
	.st3{fill:#27ae60;}
	.st4{fill:#FFFFFF;}
	.st5{fill:#E9EBDF;}
	.st6{fill:#4D9987;}
	.st7{fill:none;}
</style>
<g id="Layer_1_1_">
</g>
<g>
	<g id="Layer_2_1_">
		<g id="Actions_1_">
			<g>
				<g>
					<g>
						<path class="st0" d="M15.9,77.4c-0.3,0-0.5-0.1-0.7-0.3C15.1,77,15,76.9,15,76.8c0-0.1-0.1-0.2-0.1-0.4c0-0.3,0.1-0.5,0.3-0.7
							c0.4-0.4,1-0.4,1.4,0l0.1,0.1c0,0.1,0.1,0.1,0.1,0.2s0,0.1,0.1,0.2c0,0.1,0,0.1,0,0.2c0,0.3-0.1,0.5-0.3,0.7
							C16.5,77.3,16.2,77.4,15.9,77.4z"/>
						<path class="st0" d="M10.5,73.8c-0.4-0.4-0.5-1-0.1-1.4l0,0c0.4-0.4,1-0.5,1.4-0.1l0,0c0.4,0.4,0.5,1,0.1,1.4l0,0
							c-0.2,0.2-0.5,0.3-0.8,0.3l0,0C10.9,74.1,10.7,74,10.5,73.8z M6.4,69.2L6.4,69.2L6.4,69.2c-0.3-0.5-0.2-1.1,0.3-1.4l0,0
							c0.5-0.3,1.1-0.2,1.4,0.3l0,0c0.3,0.5,0.2,1.1-0.3,1.4l0,0c-0.2,0.1-0.4,0.1-0.5,0.1l0,0C6.9,69.6,6.6,69.5,6.4,69.2z
							 M4.2,63.4c-0.1-0.5,0.3-1.1,0.8-1.1l0,0c0.5-0.1,1,0.3,1.1,0.8l0,0c0.1,0.5-0.3,1.1-0.8,1.1l0,0c-0.1,0-0.1,0-0.2,0l0,0
							C4.7,64.2,4.2,63.8,4.2,63.4z M5.3,58.3c-0.5-0.2-0.8-0.7-0.7-1.2l0,0c0.2-0.5,0.7-0.8,1.2-0.7l0,0c0.5,0.2,0.8,0.7,0.7,1.3
							l0,0c-0.1,0.4-0.5,0.7-1,0.7l0,0C5.5,58.4,5.4,58.4,5.3,58.3z M7.7,53c-0.4-0.3-0.5-1-0.2-1.4l0,0c0.3-0.4,1-0.5,1.4-0.2l0,0
							c0.4,0.3,0.5,1,0.2,1.4l0,0c-0.2,0.2-0.5,0.4-0.8,0.4l0,0C8.1,53.2,7.9,53.2,7.7,53z M11.8,48.8c-0.3-0.4-0.2-1.1,0.2-1.4l0,0
							c0.4-0.3,1.1-0.2,1.4,0.2l0,0c0.3,0.4,0.2,1.1-0.2,1.4l0,0c-0.2,0.1-0.4,0.2-0.6,0.2l0,0C12.3,49.2,12,49.1,11.8,48.8z
							 M16.7,45.5c-0.2-0.5-0.1-1.1,0.4-1.4l0,0l0,0l0,0c0.5-0.2,1.1-0.1,1.3,0.4l0,0c0.2,0.5,0.1,1.1-0.4,1.4l0,0
							C17.9,46,17.7,46,17.5,46l0,0C17.2,46.1,16.9,45.9,16.7,45.5z M63,44.3c-0.5-0.2-0.8-0.8-0.6-1.3l0,0c0.2-0.5,0.8-0.8,1.3-0.6
							l0,0c0.5,0.2,0.8,0.8,0.6,1.3l0,0c-0.1,0.4-0.5,0.6-0.9,0.6l0,0C63.3,44.4,63.1,44.4,63,44.3z M22,43.1
							c-0.2-0.5,0.1-1.1,0.6-1.3l0,0c0.5-0.2,1.1,0.1,1.3,0.6l0,0c0.2,0.5-0.1,1.1-0.6,1.3l0,0c-0.1,0-0.2,0.1-0.3,0.1l0,0
							C22.6,43.8,22.2,43.5,22,43.1z M57.5,42.6c-0.5-0.1-0.9-0.7-0.7-1.2l0,0c0.1-0.5,0.7-0.8,1.2-0.7l0,0c0.5,0.1,0.9,0.7,0.7,1.2
							l0,0c-0.1,0.5-0.5,0.8-1,0.8l0,0C57.7,42.6,57.6,42.6,57.5,42.6z M27.7,41.4c-0.1-0.5,0.2-1.1,0.8-1.2l0,0
							c0.5-0.1,1.1,0.2,1.2,0.8l0,0c0.1,0.5-0.2,1.1-0.8,1.2l0,0c-0.1,0-0.2,0-0.2,0l0,0C28.2,42.2,27.8,41.8,27.7,41.4z M51.9,41.4
							c-0.5-0.1-0.9-0.6-0.8-1.1l0,0c0.1-0.5,0.6-0.9,1.1-0.8l0,0c0.5,0.1,0.9,0.6,0.8,1.1l0,0C52.9,41.1,52.5,41.4,51.9,41.4
							L51.9,41.4L51.9,41.4z M33.4,40.3c-0.1-0.6,0.3-1.1,0.9-1.1l0,0c0.5-0.1,1,0.3,1.1,0.9l0,0c0.1,0.5-0.3,1-0.9,1.1l0,0
							c-0.1,0-0.1,0-0.1,0l0,0C33.9,41.1,33.5,40.8,33.4,40.3z M46.1,40.8c-0.6,0-1-0.5-0.9-1.1l0,0c0-0.6,0.5-1,1.1-0.9l0,0
							c0.6,0,1,0.5,0.9,1.1l0,0C47.1,40.4,46.7,40.8,46.1,40.8L46.1,40.8C46.2,40.8,46.1,40.8,46.1,40.8z M39.3,39.7
							c0-0.5,0.4-1,1-1l0,0c0.6,0,1,0.4,1,1l0,0c0,0.6-0.4,1-1,1l0,0l0,0l0,0C39.8,40.7,39.3,40.3,39.3,39.7z"/>
						<path class="st0" d="M68.7,47c-0.3,0-0.5-0.1-0.7-0.3s-0.3-0.4-0.3-0.7s0.1-0.5,0.3-0.7c0.2-0.2,0.6-0.3,0.9-0.3
							c0.1,0,0.1,0,0.2,0.1c0.1,0,0.1,0,0.2,0.1l0.1,0.1c0.1,0.1,0.2,0.2,0.2,0.3s0.1,0.2,0.1,0.4c0,0.3-0.1,0.5-0.3,0.7l-0.1,0.1
							c-0.1,0-0.1,0.1-0.2,0.1S69,47,68.9,47C68.8,47,68.8,47,68.7,47z"/>
					</g>
					<g>
						<path class="st1" d="M108.6,64.4c-0.1,0-0.1,0-0.2,0s-0.1,0-0.2-0.1c-0.1,0-0.1-0.1-0.2-0.1s-0.1-0.1-0.2-0.1
							c-0.1-0.1-0.2-0.2-0.2-0.3s-0.1-0.3-0.1-0.4c0-0.3,0.1-0.5,0.3-0.7c0.3-0.3,0.7-0.4,1.1-0.2c0.1,0,0.2,0.1,0.3,0.2
							c0.2,0.2,0.3,0.4,0.3,0.7c0,0.1,0,0.3-0.1,0.4c0,0.1-0.1,0.2-0.2,0.3C109.1,64.3,108.9,64.4,108.6,64.4z"/>
						<path class="st1" d="M83.2,100.2c0-0.6,0.4-1,1-1l0,0c0.6,0,1,0.4,1,1l0,0c0,0.5-0.4,1-1,1l0,0l0,0l0,0
							C83.7,101.2,83.2,100.7,83.2,100.2z M78.3,101.1c-0.6,0-1-0.5-0.9-1.1l0,0c0-0.5,0.5-1,1.1-0.9l0,0c0.5,0,1,0.5,0.9,1.1l0,0
							C79.3,100.7,78.9,101.1,78.3,101.1L78.3,101.1L78.3,101.1z M89.1,99.8c-0.1-0.5,0.3-1,0.9-1.1l0,0c0.5-0.1,1,0.3,1.1,0.9l0,0
							c0.1,0.6-0.3,1.1-0.9,1.1l0,0h-0.1l0,0C89.6,100.7,89.1,100.3,89.1,99.8z M72.3,100.4L72.3,100.4L72.3,100.4
							c-0.5-0.1-0.9-0.6-0.8-1.1l0,0c0.1-0.5,0.6-0.9,1.1-0.8l0,0c0.5,0.1,0.9,0.6,0.8,1.1l0,0C73.3,100.1,72.9,100.4,72.3,100.4
							L72.3,100.4C72.4,100.5,72.4,100.5,72.3,100.4z M94.9,98.9c-0.1-0.5,0.2-1.1,0.8-1.2l0,0c0.5-0.1,1.1,0.2,1.2,0.8l0,0
							c0.1,0.5-0.2,1.1-0.8,1.2l0,0c-0.1,0-0.1,0-0.2,0l0,0C95.4,99.7,95,99.4,94.9,98.9z M66.5,99.2c-0.5-0.1-0.9-0.7-0.7-1.2l0,0
							c0.1-0.5,0.7-0.9,1.2-0.7l0,0c0.5,0.1,0.8,0.7,0.7,1.2l0,0c-0.1,0.5-0.5,0.8-1,0.8l0,0C66.6,99.3,66.6,99.3,66.5,99.2z
							 M100.6,97.4c-0.2-0.5,0.1-1.1,0.6-1.3l0,0c0.5-0.2,1.1,0.1,1.3,0.6l0,0c0.2,0.5-0.1,1.1-0.6,1.3l0,0c-0.1,0-0.2,0.1-0.3,0.1
							l0,0C101.1,98.1,100.7,97.8,100.6,97.4z M60.8,97.4L60.8,97.4L60.8,97.4c-0.5-0.2-0.8-0.8-0.6-1.3l0,0
							c0.2-0.5,0.8-0.8,1.3-0.6l0,0c0.5,0.2,0.8,0.8,0.6,1.3l0,0c-0.2,0.4-0.5,0.6-0.9,0.6l0,0C61,97.4,60.9,97.4,60.8,97.4z
							 M106,95.2c-0.3-0.5-0.1-1.1,0.4-1.3l0,0c0.5-0.2,1.1-0.1,1.4,0.4l0,0c0.2,0.5,0,1.1-0.4,1.4l0,0l0,0l0,0
							c-0.1,0.1-0.3,0.1-0.5,0.1l0,0C106.6,95.8,106.2,95.6,106,95.2z M111.1,92.3c-0.3-0.4-0.2-1.1,0.2-1.4l0,0
							c0.4-0.3,1.1-0.2,1.4,0.2l0,0c0.3,0.4,0.2,1.1-0.2,1.4l0,0l0,0l0,0c-0.2,0.1-0.4,0.2-0.6,0.2l0,0
							C111.6,92.7,111.3,92.6,111.1,92.3z M115.5,88.4c-0.4-0.3-0.5-1-0.2-1.4l0,0c0.3-0.4,1-0.5,1.4-0.2l0,0c0.4,0.3,0.5,1,0.2,1.4
							l0,0c-0.2,0.2-0.5,0.4-0.8,0.4l0,0C115.9,88.6,115.7,88.6,115.5,88.4z M118.6,83.4c-0.5-0.2-0.8-0.7-0.6-1.3l0,0
							c0.2-0.5,0.7-0.8,1.2-0.6l0,0c0.5,0.2,0.8,0.7,0.7,1.2l0,0c-0.1,0.4-0.5,0.7-1,0.7l0,0C118.8,83.5,118.7,83.5,118.6,83.4z
							 M118.4,76.8L118.4,76.8c-0.1-0.5,0.3-1.1,0.8-1.1l0,0c0.5-0.1,1.1,0.3,1.1,0.8l0,0c0.1,0.5-0.3,1.1-0.8,1.1l0,0
							c0,0-0.1,0-0.2,0l0,0C118.9,77.7,118.4,77.3,118.4,76.8z M116.4,71.8L116.4,71.8c-0.3-0.5-0.2-1.1,0.3-1.4l0,0
							c0.5-0.3,1.1-0.2,1.4,0.3l0,0c0.3,0.5,0.2,1.1-0.3,1.4l0,0c-0.2,0.1-0.4,0.2-0.5,0.2l0,0C116.9,72.2,116.6,72.1,116.4,71.8z
							 M112.7,67.6L112.7,67.6c-0.4-0.4-0.5-1-0.1-1.4l0,0c0.4-0.4,1-0.5,1.4-0.1l0,0c0.4,0.4,0.5,1,0.1,1.4l0,0
							c-0.2,0.2-0.5,0.3-0.8,0.3l0,0C113.2,67.8,112.9,67.7,112.7,67.6z"/>
						<path class="st1" d="M55.8,94.9c-0.1,0-0.1,0-0.2,0c-0.1,0-0.1,0-0.2-0.1c-0.1,0-0.1,0-0.2-0.1c0,0-0.1-0.1-0.2-0.1
							c-0.2-0.2-0.3-0.4-0.3-0.7c0-0.1,0-0.3,0.1-0.4c0-0.1,0.1-0.2,0.2-0.3c0.1-0.1,0.1-0.1,0.2-0.1c0.1,0,0.1-0.1,0.2-0.1
							c0.1,0,0.1,0,0.2,0c0.3-0.1,0.7,0,0.9,0.3c0.1,0.1,0.2,0.2,0.2,0.3c0.1,0.1,0.1,0.2,0.1,0.4s0,0.3-0.1,0.4
							c0,0.1-0.1,0.2-0.2,0.3C56.3,94.8,56.1,94.9,55.8,94.9z"/>
					</g>
					<g>
						<g>
							<g>
								<g>
									<g>
										<path class="st2" d="M53.3,73.8L42,67.3c-1.4-0.8-3.6-0.8-5,0l-11.2,6.5H8.6v10.8c0,0.5,0.3,1,1,1.4L37,101.8
											c1.4,0.8,3.6,0.8,5,0L69.5,86c0.7-0.4,1-0.9,1-1.4V73.8H53.3z"/>
										<path class="st3" d="M39.6,103.4c-1.1,0-2.2-0.2-3-0.7L9.1,86.9c-1-0.6-1.5-1.4-1.5-2.3V73.8c0-0.6,0.4-1,1-1h17l11-6.3
											c1.7-1,4.3-1,6,0l11,6.3h17c0.6,0,1,0.4,1,1v10.8c0,0.9-0.6,1.7-1.5,2.3l-27.4,15.8C41.7,103.2,40.6,103.4,39.6,103.4z
											 M9.6,74.8v9.8c0,0.1,0.2,0.4,0.5,0.6L37.6,101c1.1,0.6,2.9,0.6,4,0L69,85.1c0.4-0.2,0.5-0.4,0.5-0.6v-9.8H53.3
											c-0.2,0-0.3,0-0.5-0.1l-11.2-6.5c-1.1-0.6-2.9-0.6-4,0l-11.2,6.5c-0.2,0.1-0.3,0.1-0.5,0.1H9.6V74.8z"/>
										<path class="st3" d="M42,101.8L69.5,86c0.7-0.4,1-0.9,1-1.4V73.8H53.3L42,67.3c-0.7-0.4-1.6-0.6-2.5-0.6v35.7
											C40.5,102.4,41.4,102.2,42,101.8z"/>
										<g>
											<path class="st4" d="M69.5,72.3L42,56.5c-1.4-0.8-3.6-0.8-5,0L9.6,72.3c-1.4,0.8-1.4,2.1,0,2.9L37.1,91
												c1.4,0.8,3.6,0.8,5,0l27.4-15.8C70.8,74.4,70.8,73.1,69.5,72.3z"/>
											<path class="st3" d="M39.6,92.6c-1.1,0-2.2-0.2-3-0.7L9.1,76.1c-1-0.6-1.5-1.4-1.5-2.3s0.6-1.7,1.5-2.3l27.4-15.8
												c1.7-1,4.3-1,6,0L70,71.4l0,0c1,0.6,1.5,1.4,1.5,2.3S70.9,75.4,70,76L42.5,91.9C41.7,92.4,40.6,92.6,39.6,92.6z
												 M39.5,56.9c-0.7,0-1.5,0.2-2,0.5L10.1,73.2c-0.4,0.2-0.5,0.4-0.5,0.6c0,0.1,0.2,0.4,0.5,0.6l27.4,15.8
												c1.1,0.6,2.9,0.6,4,0L69,74.3c0.4-0.2,0.5-0.4,0.5-0.6c0-0.1-0.2-0.4-0.5-0.6L41.5,57.3C41,57,40.3,56.9,39.5,56.9z"/>
										</g>
									</g>
								</g>
								<g>
									<polygon class="st2" points="63,89.7 48.6,98.1 48.6,93.1 63,84.7 									"/>
									<path class="st2" d="M48.6,99.1c-0.2,0-0.3,0-0.5-0.1c-0.3-0.2-0.5-0.5-0.5-0.9v-5c0-0.4,0.2-0.7,0.5-0.9l14.5-8.4
										c0.3-0.2,0.7-0.2,1,0s0.5,0.5,0.5,0.9v5c0,0.4-0.2,0.7-0.5,0.9L49.1,99C48.9,99,48.7,99.1,48.6,99.1z M49.6,93.7v2.7
										L62,89.1v-2.7L49.6,93.7z M63,89.7L63,89.7L63,89.7z"/>
								</g>
								<path class="st1" d="M39.6,103.4c-1.1,0-2.2-0.3-3-0.7L9.1,86.9c-1-0.6-1.5-1.4-1.5-2.3V73.8c0-0.9,0.6-1.7,1.5-2.3
									l27.4-15.8c1.7-1,4.3-1,6,0L70,71.4c1,0.6,1.5,1.4,1.5,2.3v10.8c0,0.9-0.6,1.7-1.5,2.3l-27.4,15.8
									C41.7,103.2,40.7,103.4,39.6,103.4z M39.5,56.9c-0.7,0-1.5,0.2-2,0.5L10.1,73.2c-0.4,0.2-0.5,0.4-0.5,0.6v10.8
									c0,0.1,0.2,0.4,0.5,0.6L37.6,101c1,0.6,3,0.6,4,0L69,85.1c0.4-0.2,0.5-0.4,0.5-0.6V73.8c0-0.1-0.2-0.4-0.5-0.6l0,0
									L41.5,57.3C41,57,40.3,56.9,39.5,56.9z"/>
								<g>
									<ellipse class="st3" cx="63.4" cy="73.8" rx="1.4" ry="0.8"/>
									<ellipse class="st3" cx="39.6" cy="87.5" rx="1.4" ry="0.8"/>
									<ellipse class="st3" cx="39.6" cy="60" rx="1.4" ry="0.8"/>
									<ellipse class="st3" cx="15.7" cy="73.8" rx="1.4" ry="0.8"/>
								</g>
							</g>
						</g>
					</g>
					<g>
						<g>
							<g>
								<g>
									<g>
										<g>
											<path class="st5" d="M105.7,43.4L94.5,37c-1.4-0.8-3.6-0.8-5,0l-11.2,6.5H61.1v10.8c0,0.5,0.3,1,1,1.4l27.4,15.8
												c1.4,0.8,3.6,0.8,5,0L122,55.7c0.7-0.4,1-0.9,1-1.4V43.4H105.7z"/>
											<path class="st6" d="M92,73.1c-1.1,0-2.2-0.2-3-0.7L61.6,56.6c-1-0.6-1.5-1.4-1.5-2.3V43.4c0-0.6,0.4-1,1-1h17l11-6.3
												c1.7-1,4.3-1,6,0l11,6.3h17c0.6,0,1,0.4,1,1v10.8c0,0.9-0.6,1.7-1.5,2.3L95,72.4C94.2,72.9,93.1,73.1,92,73.1z
												 M62.1,44.4v9.8c0,0.1,0.2,0.4,0.5,0.6L90,70.7c1.1,0.6,2.9,0.6,4,0l27.4-15.8c0.4-0.2,0.5-0.4,0.5-0.6v-9.8h-16.3
												c-0.2,0-0.3,0-0.5-0.1L94,37.8c-1.1-0.6-2.9-0.6-4,0l-11.2,6.5c-0.2,0.1-0.3,0.1-0.5,0.1C78.3,44.4,62.1,44.4,62.1,44.4z
												"/>
										</g>
										<path class="st6" d="M94.5,71.5L122,55.7c0.7-0.4,1-0.9,1-1.4V43.4h-17.3L94.5,37c-0.7-0.4-1.6-0.6-2.5-0.6v35.7
											C93,72.1,93.9,71.9,94.5,71.5z"/>
										<g>
											<path class="st4" d="M122,42L94.5,26.2c-1.4-0.8-3.6-0.8-5,0L62.1,42c-1.4,0.8-1.4,2.1,0,2.9l27.4,15.8
												c1.4,0.8,3.6,0.8,5,0L122,44.9C123.3,44.1,123.3,42.8,122,42z"/>
											<path class="st6" d="M92,62.3c-1.1,0-2.2-0.2-3-0.7L61.6,45.8c-1-0.6-1.5-1.4-1.5-2.3c0-0.9,0.6-1.7,1.5-2.3L89,25.3
												c1.7-1,4.3-1,6,0l27.4,15.8l0,0c1,0.6,1.5,1.4,1.5,2.3c0,0.9-0.6,1.7-1.5,2.3L95,61.6C94.2,62.1,93.1,62.3,92,62.3z
												 M92,26.6c-0.7,0-1.5,0.2-2,0.5L62.6,42.9c-0.4,0.2-0.5,0.4-0.5,0.6c0,0.1,0.2,0.4,0.5,0.6L90,59.8c1.1,0.6,2.9,0.6,4,0
												L121.5,44c0.4-0.2,0.5-0.4,0.5-0.6c0-0.1-0.2-0.4-0.5-0.6L94,27C93.5,26.7,92.8,26.6,92,26.6z"/>
										</g>
									</g>
								</g>
								<g>
									<polygon class="st5" points="115.5,59.4 101.1,67.8 101.1,62.8 115.5,54.4 									"/>
									<path class="st5" d="M101.1,68.8c-0.2,0-0.3,0-0.5-0.1c-0.3-0.2-0.5-0.5-0.5-0.9v-5c0-0.4,0.2-0.7,0.5-0.9l14.5-8.4
										c0.3-0.2,0.7-0.2,1,0s0.5,0.5,0.5,0.9v5c0,0.4-0.2,0.7-0.5,0.9l-14.5,8.4C101.4,68.7,101.2,68.8,101.1,68.8z M102.1,63.3
										V66l12.5-7.2v-2.7L102.1,63.3z M115.5,59.4L115.5,59.4L115.5,59.4z"/>
								</g>
								<path class="st0" d="M92,73.1c-1.1,0-2.2-0.3-3-0.7L61.6,56.6c-1-0.6-1.5-1.4-1.5-2.3V43.4c0-0.9,0.6-1.7,1.5-2.3L89,25.3
									c1.7-1,4.3-1,6,0l27.4,15.8c1,0.6,1.5,1.4,1.5,2.3v10.8c0,0.9-0.6,1.7-1.5,2.3L95,72.4C94.2,72.9,93.2,73.1,92,73.1z
									 M92,26.6c-0.7,0-1.5,0.2-2,0.5L62.6,42.9c-0.4,0.2-0.5,0.4-0.5,0.6v10.8c0,0.1,0.2,0.4,0.5,0.6L90,70.7c1,0.6,3,0.6,4,0
									l27.4-15.8c0.4-0.2,0.5-0.4,0.5-0.6V43.4c0-0.1-0.2-0.4-0.5-0.6l0,0L94,27C93.5,26.7,92.8,26.6,92,26.6z"/>
								<g>
									<ellipse class="st6" cx="115.9" cy="43.4" rx="1.4" ry="0.8"/>
									<ellipse class="st6" cx="92" cy="57.2" rx="1.4" ry="0.8"/>
									<ellipse class="st6" cx="92" cy="29.7" rx="1.4" ry="0.8"/>
									<ellipse class="st6" cx="68.2" cy="43.4" rx="1.4" ry="0.8"/>
								</g>
							</g>
						</g>
					</g>
				</g>
				<rect x="4" y="4" class="st7" width="120" height="120"/>
				<rect x="4" y="4" class="st7" width="120" height="120"/>
			</g>
		</g>
	</g>
	<g>
		<rect class="st7" width="128" height="128"/>
	</g>
</g>
</svg>
