<?xml version="1.0" encoding="utf-8"?>
<!-- Generator: Adobe Illustrator 24.1.0, SVG Export Plug-In . SVG Version: 6.00 Build 0)  -->
<svg version="1.1" id="Layer_1" xmlns="http://www.w3.org/2000/svg" xmlns:xlink="http://www.w3.org/1999/xlink" x="0px" y="0px"
	 viewBox="0 0 128 128" style="enable-background:new 0 0 128 128;" xml:space="preserve">
<style type="text/css">
	.st0{fill:#FFFFFF;}
	.st1{fill:#4D9987;}
	.st2{fill:#E9EBDF;}
	.st3{fill:#0E352C;}
	.st4{fill:#C4D7D3;}
	.st5{fill:#27ae60;}
	.st6{fill:#185849;}
	.st7{fill:none;}
</style>
<g id="Layer_1_1_">
</g>
<g>
	<g id="Layer_2_1_">
		<g id="Industries_1_">
			<g>
				<g>
					<g>
						<g>
							<polygon class="st0" points="46,5 46,25.2 60.5,33.5 60.5,25.2 							"/>
							<path class="st1" d="M60.5,34.5c-0.2,0-0.3,0-0.5-0.1L45.5,26c-0.3-0.2-0.5-0.5-0.5-0.9V5c0-0.4,0.3-0.8,0.7-1
								c0.4-0.1,0.9,0,1.1,0.4l14.5,20.2c0.1,0.2,0.2,0.4,0.2,0.6v8.3c0,0.4-0.2,0.7-0.5,0.9C60.8,34.5,60.6,34.5,60.5,34.5z
								 M47,24.6l12.5,7.2v-6.3L47,8.1V24.6z"/>
						</g>
						<g>
							<polygon class="st1" points="75,95.3 38.1,116.6 38.1,75.1 75,53.8 							"/>
							<path class="st1" d="M38.1,117.6c-0.2,0-0.3,0-0.5-0.1c-0.3-0.2-0.5-0.5-0.5-0.9V75.1c0-0.4,0.2-0.7,0.5-0.9l36.9-21.3
								c0.3-0.2,0.7-0.2,1,0s0.5,0.5,0.5,0.9v41.6c0,0.4-0.2,0.7-0.5,0.9l-36.9,21.3C38.4,117.6,38.2,117.6,38.1,117.6z M39.1,75.7
								V115L74,94.8V55.5L39.1,75.7z M75,95.3L75,95.3L75,95.3z"/>
						</g>
						<g>
							<polygon class="st2" points="23.6,108.3 38.1,116.6 38.1,75.1 23.6,54.8 							"/>
							<path class="st1" d="M38.1,117.6c-0.2,0-0.3,0-0.5-0.1l-14.5-8.4c-0.3-0.2-0.5-0.5-0.5-0.9V54.8c0-0.4,0.3-0.8,0.7-1
								c0.4-0.1,0.9,0,1.1,0.4l14.5,20.2c0.1,0.2,0.2,0.4,0.2,0.6v41.6c0,0.4-0.2,0.7-0.5,0.9C38.4,117.6,38.2,117.6,38.1,117.6z
								 M24.6,107.7l12.5,7.2V75.4L24.6,58V107.7z"/>
						</g>
						<g>
							<polygon class="st0" points="38.1,75.1 38.1,54.9 23.6,46.5 23.6,54.8 							"/>
							<path class="st1" d="M38.1,76.1c-0.3,0-0.6-0.2-0.8-0.4L22.8,55.4c-0.1-0.2-0.2-0.4-0.2-0.6v-8.3c0-0.4,0.2-0.7,0.5-0.9
								s0.7-0.2,1,0L38.6,54c0.3,0.2,0.5,0.5,0.5,0.9v20.2c0,0.4-0.3,0.8-0.7,1C38.3,76.1,38.2,76.1,38.1,76.1z M24.6,54.5L37.1,72
								V55.5l-12.5-7.2C24.6,48.3,24.6,54.5,24.6,54.5z"/>
						</g>
						<g>
							<polygon class="st2" points="75,53.8 75,33.6 60.5,25.2 60.5,33.5 							"/>
							<path class="st1" d="M75,54.8c-0.3,0-0.6-0.2-0.8-0.4L59.6,34.1c-0.1-0.2-0.2-0.4-0.2-0.6v-8.3c0-0.4,0.2-0.7,0.5-0.9
								c0.3-0.2,0.7-0.2,1,0l14.5,8.4c0.3,0.2,0.5,0.5,0.5,0.9v20.2c0,0.4-0.3,0.8-0.7,1C75.2,54.8,75.1,54.8,75,54.8z M61.5,33.2
								L74,50.7V34.2L61.5,27V33.2z"/>
						</g>
						<g>
							<polygon class="st1" points="75,33.6 69,37 44,51.5 38.1,54.9 38.1,75.1 75,53.8 							"/>
							<path class="st1" d="M38.1,76.1c-0.2,0-0.3,0-0.5-0.1c-0.3-0.2-0.5-0.5-0.5-0.9V54.9c0-0.4,0.2-0.7,0.5-0.9l36.9-21.3
								c0.3-0.2,0.7-0.2,1,0s0.5,0.5,0.5,0.9v20.2c0,0.4-0.2,0.7-0.5,0.9L38.6,75.9C38.4,76,38.2,76.1,38.1,76.1z M39.1,55.5v17.9
								L74,53.2V35.3L39.1,55.5z"/>
						</g>
						<g>
							<polygon class="st0" points="75,33.6 60.5,25.2 23.6,46.5 38.1,54.9 							"/>
							<path class="st1" d="M38.1,55.9c-0.2,0-0.3,0-0.5-0.1l-14.5-8.4c-0.3-0.2-0.5-0.5-0.5-0.9s0.2-0.7,0.5-0.9L60,24.4
								c0.3-0.2,0.7-0.2,1,0l14.5,8.4c0.3,0.2,0.5,0.5,0.5,0.9s-0.2,0.7-0.5,0.9L38.6,55.8C38.4,55.9,38.2,55.9,38.1,55.9z
								 M25.6,46.5l12.5,7.2L73,33.6l-12.5-7.2L25.6,46.5z"/>
						</g>
						<g>
							<polygon class="st2" points="75,33.6 69,37 69,49.4 44,63.8 44,51.5 38.1,54.9 38.1,75.1 75,53.8 							"/>
							<path class="st1" d="M38.1,76.1c-0.2,0-0.3,0-0.5-0.1c-0.3-0.2-0.5-0.5-0.5-0.9V54.9c0-0.4,0.2-0.7,0.5-0.9l6-3.4
								c0.3-0.2,0.7-0.2,1,0s0.5,0.5,0.5,0.9v10.7l23-13.3V37c0-0.4,0.2-0.7,0.5-0.9l6-3.4c0.3-0.2,0.7-0.2,1,0s0.5,0.5,0.5,0.9
								v20.2c0,0.4-0.2,0.7-0.5,0.9l-37,21.2C38.4,76,38.2,76.1,38.1,76.1z M39.1,55.5v17.9L74,53.2V35.3l-4,2.3v11.8
								c0,0.4-0.2,0.7-0.5,0.9l-25,14.4c-0.3,0.2-0.7,0.2-1,0S43,64.2,43,63.8V53.2L39.1,55.5z"/>
						</g>
						<path class="st2" d="M38.1,55.9c-0.2,0-0.4-0.1-0.6-0.2c-0.4-0.3-0.5-1-0.2-1.4l22.4-29.7c0.3-0.4,1-0.5,1.4-0.2
							s0.5,1,0.2,1.4L38.9,55.5C38.7,55.8,38.4,55.9,38.1,55.9z"/>
						<path class="st2" d="M23.6,47.5c-0.4,0-0.9-0.3-1-0.8s0.2-1.1,0.7-1.2l51.4-12.9c0.5-0.1,1.1,0.2,1.2,0.7s-0.2,1.1-0.7,1.2
							l-51.4,13C23.7,47.5,23.6,47.5,23.6,47.5z"/>
						<g>
							<polygon class="st0" points="9.1,26.3 9.1,46.5 23.6,54.8 23.6,46.5 							"/>
							<path class="st1" d="M23.6,55.8c-0.2,0-0.3,0-0.5-0.1L8.6,47.3c-0.3-0.2-0.5-0.5-0.5-0.9V26.3c0-0.4,0.3-0.8,0.7-1
								c0.4-0.1,0.9,0,1.1,0.4L24.4,46c0.1,0.2,0.2,0.4,0.2,0.6v8.3c0,0.4-0.2,0.7-0.5,0.9C23.9,55.8,23.7,55.8,23.6,55.8z
								 M10.1,45.9l12.5,7.2v-6.3L10.1,29.4V45.9z"/>
						</g>
						<g>
							<polygon class="st2" points="46,5 9.1,26.3 23.6,46.5 53.2,29.4 46,25.2 							"/>
							<path class="st1" d="M23.6,47.5c-0.3,0-0.6-0.1-0.8-0.4L8.3,26.9c-0.2-0.2-0.2-0.5-0.2-0.8s0.2-0.5,0.5-0.7L45.5,4.1
								c0.3-0.2,0.7-0.2,1,0C46.8,4.3,47,4.6,47,5v19.6l6.8,3.9c0.3,0.2,0.5,0.5,0.5,0.9s-0.2,0.7-0.5,0.9L24.1,47.4
								C23.9,47.5,23.7,47.5,23.6,47.5z M10.5,26.6l13.3,18.6l27.4-15.8L45.5,26c-0.3-0.2-0.5-0.5-0.5-0.9V6.7L10.5,26.6z"/>
						</g>
						<g>
							<polygon class="st0" points="19.3,40.6 46,25.2 53.2,29.4 23.6,46.5 							"/>
							<path class="st1" d="M23.6,47.5c-0.3,0-0.6-0.1-0.8-0.4l-4.3-6c-0.2-0.2-0.2-0.5-0.2-0.8s0.2-0.5,0.5-0.7l26.7-15.4
								c0.3-0.2,0.7-0.2,1,0l7.3,4.2c0.3,0.2,0.5,0.5,0.5,0.9s-0.2,0.7-0.5,0.9L24.1,47.4C23.9,47.5,23.7,47.5,23.6,47.5z
								 M20.8,40.9l3.1,4.3l27.4-15.8l-5.3-3L20.8,40.9z"/>
						</g>
						<g>
							
								<ellipse transform="matrix(0.3916 -0.9201 0.9201 0.3916 -44.0403 103.8434)" class="st2" cx="56.5" cy="85.2" rx="13.7" ry="7.7"/>
							<path class="st1" d="M53,99.2c-1,0-1.9-0.2-2.8-0.7c-2.3-1.3-3.6-4.3-3.6-8.1c0-6.9,4.2-14.9,9.4-17.9
								c2.5-1.4,4.9-1.6,6.8-0.5c2.3,1.3,3.6,4.3,3.6,8.1C66.4,87,62.2,95,57,98C55.6,98.7,54.3,99.2,53,99.2z M60.1,73.3
								c-0.9,0-2,0.3-3,0.9c-4.6,2.7-8.4,9.9-8.4,16.1c0,3.1,0.9,5.4,2.6,6.3c1.3,0.7,3,0.6,4.8-0.5c4.6-2.7,8.4-9.9,8.4-16.1
								c0-3.1-0.9-5.4-2.6-6.3C61.3,73.4,60.7,73.3,60.1,73.3z"/>
						</g>
						<path class="st0" d="M52.6,88.5c-0.3,0-0.7-0.2-0.9-0.5c-0.3-0.5-0.1-1.1,0.4-1.4L60,82c0.5-0.3,1.1-0.1,1.4,0.4
							c0.3,0.5,0.1,1.1-0.4,1.4l-7.9,4.6C52.9,88.4,52.7,88.5,52.6,88.5z"/>
						<path class="st1" d="M38.1,55.9c-0.2,0-0.3,0-0.5-0.1l-14.5-8.4c-0.3-0.2-0.5-0.5-0.5-0.9s0.2-0.7,0.5-0.9L60,24.4
							c0.3-0.2,0.7-0.2,1,0l14.5,8.4c0.3,0.2,0.5,0.5,0.5,0.9s-0.2,0.7-0.5,0.9L38.6,55.8C38.4,55.9,38.2,55.9,38.1,55.9z
							 M25.6,46.5l12.5,7.2L73,33.6l-12.5-7.2L25.6,46.5z"/>
						<path class="st3" d="M38.1,117.6c-0.2,0-0.3,0-0.5-0.1l-14.5-8.4c-0.3-0.2-0.5-0.5-0.5-0.9V55.4l-14-8.1
							c-0.3-0.2-0.5-0.5-0.5-0.9V26.3c0-0.4,0.2-0.7,0.5-0.9L45.5,4.1c0.4-0.3,1-0.1,1.3,0.3l14.4,20.1l14.3,8.3
							c0.3,0.2,0.5,0.5,0.5,0.9v61.7c0,0.4-0.2,0.7-0.5,0.9l-36.9,21.3C38.4,117.6,38.2,117.6,38.1,117.6z M24.6,107.7l13.5,7.8
							L74,94.8V34.2l-14-8.1c-0.1-0.1-0.2-0.2-0.3-0.3l-14-19.5L10.1,26.9v19l14,8.1c0.3,0.2,0.5,0.5,0.5,0.9V107.7z"/>
						<path class="st3" d="M38.1,76.1c-0.3,0-0.7-0.2-0.9-0.5c-0.3-0.5-0.1-1.1,0.4-1.4l36.9-21.3c0.5-0.3,1.1-0.1,1.4,0.4
							s0.1,1.1-0.4,1.4L38.6,75.9C38.4,76,38.2,76.1,38.1,76.1z"/>
						<path class="st3" d="M38.1,76.1c-0.3,0-0.6-0.1-0.8-0.4L22.8,55.4c-0.4-0.4-0.3-1,0.2-1.4c0.5-0.3,1.1-0.2,1.4,0.2l14.5,20.2
							c0.3,0.4,0.2,1.1-0.2,1.4C38.5,76,38.3,76.1,38.1,76.1z"/>
					</g>
					<g>
						<g>
							<polygon class="st4" points="63.9,115.6 114.6,86.3 118,93.5 67.3,122.8 							"/>
							<path class="st5" d="M67.3,123.8c-0.1,0-0.2,0-0.3,0c-0.3-0.1-0.5-0.3-0.6-0.5L63,116c-0.2-0.5,0-1,0.4-1.3l50.7-29.3
								c0.2-0.1,0.5-0.2,0.8-0.1s0.5,0.3,0.6,0.5l3.4,7.2c0.2,0.5,0,1-0.4,1.3l-50.7,29.3C67.6,123.8,67.5,123.8,67.3,123.8z
								 M65.2,116l2.5,5.4l49-28.3l-2.5-5.4L65.2,116z"/>
						</g>
						<polygon class="st0" points="114.6,86.3 63.9,115.6 65.6,119.2 116.3,89.9 						"/>
						<path class="st5" d="M67.3,123.8c-0.1,0-0.2,0-0.3,0c-0.3-0.1-0.5-0.3-0.6-0.5L63,116c-0.2-0.5,0-1,0.4-1.3l50.7-29.3
							c0.2-0.1,0.5-0.2,0.8-0.1s0.5,0.3,0.6,0.5l3.4,7.2c0.2,0.5,0,1-0.4,1.3l-50.7,29.3C67.6,123.8,67.5,123.8,67.3,123.8z
							 M65.2,116l2.5,5.4l49-28.3l-2.5-5.4L65.2,116z"/>
						<g>
							
								<ellipse transform="matrix(0.9201 -0.3916 0.3916 0.9201 -41.4384 35.206)" class="st5" cx="65.6" cy="119.2" rx="2.3" ry="4"/>
							<path class="st5" d="M66.6,124c-0.5,0-1-0.1-1.5-0.4c-1.7-1-3.1-3.6-3.1-5.8c0-1.4,0.5-2.5,1.4-3c0.8-0.5,1.8-0.4,2.7,0.1
								c1.7,1,3.1,3.6,3.1,5.8c0,1.4-0.5,2.5-1.4,3C67.4,123.9,67,124,66.6,124z M64.6,116.4c-0.1,0-0.1,0-0.2,0
								c-0.2,0.1-0.4,0.5-0.4,1.2c0,1.5,1,3.5,2.1,4.1c0.1,0.1,0.5,0.3,0.7,0.1c0.2-0.1,0.4-0.5,0.4-1.2c0-1.5-1-3.5-2.1-4.1
								C65,116.6,64.8,116.4,64.6,116.4z"/>
						</g>
						<g>
							<path class="st5" d="M118.9,91.4c0-1.9-1.2-4.1-2.6-5c-0.7-0.4-1.2-0.4-1.7-0.1l0,0L101.2,94c0.5-0.3,1-0.3,1.7,0.1
								c1.4,0.8,2.6,3.1,2.6,5c0,1-0.4,1.8-0.9,2.1l0,0l13.4-7.7l0,0C118.6,93.2,118.9,92.5,118.9,91.4z"/>
							<path class="st5" d="M104.6,102.2c-0.1,0-0.2,0-0.3,0c-0.3-0.1-0.5-0.3-0.6-0.5c-0.2-0.5-0.1-1.1,0.4-1.3
								c0.2-0.1,0.4-0.5,0.4-1.2c0-1.5-1-3.5-2.1-4.1c-0.2-0.1-0.5-0.2-0.7-0.1c-0.5,0.3-1.1,0.1-1.4-0.4s-0.1-1.1,0.4-1.4l13.4-7.7
								c0.1,0,0.1-0.1,0.2-0.1c0.8-0.3,1.6-0.3,2.5,0.2c1.7,1,3.1,3.6,3.1,5.8c0,1.3-0.4,2.3-1.2,2.8c-0.1,0.1-0.1,0.1-0.2,0.1
								l-13.4,7.7C105,102.2,104.8,102.2,104.6,102.2z M104,93.6c1.5,1.1,2.5,3.3,2.6,5.3l10.8-6.2l0.1-0.1c0.2-0.1,0.4-0.5,0.4-1.2
								c0-1.5-1-3.5-2.1-4.1c-0.2-0.1-0.5-0.2-0.7-0.1c-0.1,0-0.1,0.1-0.2,0.1L104,93.6z"/>
						</g>
						<path class="st4" d="M116.3,86.5c-0.7-0.4-1.2-0.4-1.7-0.1l0,0l-13.4,7.7c0.5-0.3,1-0.3,1.7,0.1c0.8,0.5,1.5,1.3,2,2.3
							l13.4-7.7C117.8,87.8,117.1,86.9,116.3,86.5z"/>
						<path class="st5" d="M104.6,102.2c-0.1,0-0.2,0-0.3,0c-0.3-0.1-0.5-0.3-0.6-0.5c-0.2-0.5-0.1-1.1,0.4-1.3
							c0.2-0.1,0.4-0.5,0.4-1.2c0-1.5-1-3.5-2.1-4.1c-0.2-0.1-0.5-0.2-0.7-0.1c-0.5,0.3-1.1,0.1-1.4-0.4s-0.1-1.1,0.4-1.4l13.4-7.7
							c0.1,0,0.1-0.1,0.2-0.1c0.8-0.3,1.6-0.3,2.5,0.2c1.7,1,3.1,3.6,3.1,5.8c0,1.3-0.4,2.3-1.2,2.8c-0.1,0.1-0.1,0.1-0.2,0.1
							l-13.4,7.7C105,102.2,104.8,102.2,104.6,102.2z M104,93.6c1.5,1.1,2.5,3.3,2.6,5.3l10.8-6.2l0.1-0.1c0.2-0.1,0.4-0.5,0.4-1.2
							c0-1.5-1-3.5-2.1-4.1c-0.2-0.1-0.5-0.2-0.7-0.1c-0.1,0-0.1,0.1-0.2,0.1L104,93.6z"/>
						<path class="st6" d="M66.6,124c-0.5,0-1-0.1-1.5-0.4c-1.7-1-3.1-3.6-3.1-5.8c0-1.3,0.4-2.3,1.2-2.8c0.1-0.1,0.1-0.1,0.2-0.1
							l50.7-29.3c0.1,0,0.1-0.1,0.2-0.1c0.8-0.3,1.6-0.3,2.5,0.2c0.2,0.1,0.5,0.3,0.7,0.5l0.1,0.1c0.2,0.2,0.4,0.3,0.5,0.5l0.1,0.1
							c0.2,0.2,0.3,0.4,0.5,0.7l0,0c0.2,0.3,0.3,0.5,0.4,0.8c0.5,1,0.8,2.1,0.8,3.1c0,1.3-0.4,2.3-1.2,2.8c-0.1,0.1-0.1,0.1-0.2,0.1
							l-50.7,29.3c-0.1,0-0.1,0.1-0.2,0.1C67.3,123.9,66.9,124,66.6,124z M64.6,116.4L64.6,116.4c-0.3,0.2-0.5,0.6-0.5,1.3
							c0,1.5,1,3.5,2.1,4.1c0.2,0.1,0.5,0.2,0.7,0.1c0.1,0,0.1-0.1,0.2-0.1l50.4-29.1l0.1-0.1c0.2-0.1,0.4-0.5,0.4-1.2
							s-0.2-1.5-0.6-2.2c-0.1-0.2-0.2-0.4-0.3-0.6l0,0l0,0c-0.1-0.2-0.2-0.3-0.4-0.5c-0.1-0.2-0.3-0.3-0.4-0.4l-0.1-0.1
							c-0.1-0.1-0.2-0.2-0.4-0.3c-0.2-0.1-0.5-0.2-0.7-0.1c-0.1,0-0.1,0.1-0.2,0.1L64.6,116.4z"/>
					</g>
					<g>
						<g>
							<g>
								<path class="st5" d="M86.8,22.6v45l0,0c0,1.1,0.7,2.1,2.1,2.9l10.7,6.2c2.8,1.6,7.4,1.6,10.2,0c1.4-0.8,2.1-1.9,2.1-2.9v-45
									L86.8,22.6z"/>
								<path class="st5" d="M104.8,79c-2,0-4-0.5-5.6-1.4l-10.7-6.2c-1.7-1-2.6-2.3-2.6-3.8v-45c0-0.3,0.1-0.6,0.4-0.8
									s0.6-0.3,0.9-0.2l25.2,6.2c0.4,0.1,0.8,0.5,0.8,1v45c0,1.5-0.9,2.8-2.6,3.8C108.8,78.6,106.8,79,104.8,79z M87.8,23.9v43.8
									c0,0.7,0.6,1.5,1.6,2.1l10.7,6.2c2.5,1.4,6.7,1.4,9.2,0c1-0.6,1.6-1.4,1.6-2.1V29.6L87.8,23.9z"/>
							</g>
							<path class="st4" d="M104.6,26.8l-17.8-4.1v45c0,1.1,0.7,2.1,2.1,2.9l10.7,6.2c1.4,0.8,3.2,1.2,5,1.2V26.8z"/>
							<path class="st5" d="M104.8,79c-2,0-4-0.5-5.6-1.4l-10.7-6.2c-1.7-1-2.6-2.3-2.6-3.8v-45c0-0.3,0.1-0.6,0.4-0.8
								s0.6-0.3,0.9-0.2l25.2,6.2c0.4,0.1,0.8,0.5,0.8,1v45c0,1.5-0.9,2.8-2.6,3.8C108.8,78.6,106.8,79,104.8,79z M87.8,23.9v43.8
								c0,0.7,0.6,1.5,1.6,2.1l10.7,6.2c2.5,1.4,6.7,1.4,9.2,0c1-0.6,1.6-1.4,1.6-2.1V29.6L87.8,23.9z"/>
							<g>
								<path class="st4" d="M99.7,31.8L89,25.6c-2.8-1.6-2.8-4.3,0-5.9l0,0c2.8-1.6,7.4-1.6,10.2,0l10.7,6.2c2.8,1.6,2.8,4.3,0,5.9
									l0,0C107.1,33.4,102.5,33.4,99.7,31.8z"/>
								<path class="st5" d="M104.8,34c-2,0-4-0.5-5.6-1.4l-10.7-6.2c-1.7-1-2.6-2.3-2.6-3.8s0.9-2.8,2.6-3.8
									c3.1-1.8,8.1-1.8,11.2,0l10.7,6.2c1.7,1,2.6,2.3,2.6,3.8s-0.9,2.8-2.6,3.8C108.8,33.5,106.8,34,104.8,34z M94.1,19.5
									c-1.7,0-3.4,0.4-4.6,1.1c-1,0.6-1.6,1.4-1.6,2.1s0.6,1.5,1.6,2.1l10.7,6.2l0,0c2.5,1.4,6.7,1.4,9.2,0c1-0.6,1.6-1.4,1.6-2.1
									s-0.6-1.5-1.6-2.1l-10.7-6.2C97.4,19.8,95.7,19.5,94.1,19.5z"/>
							</g>
							<g>
								<path class="st0" d="M99.2,19.7c-1.1-0.7-2.6-2.1-4-2.2l-8.3-6.4v11.5c0,1.1,0.7,2.1,2.1,2.9l7,4l10.2-5.9L99.2,19.7z"/>
								<path class="st5" d="M95.9,30.6c-0.2,0-0.3,0-0.5-0.1l-7-4c-1.7-1-2.6-2.3-2.6-3.8V11.1c0-0.4,0.2-0.7,0.6-0.9
									c0.3-0.2,0.7-0.1,1.1,0.1l8.1,6.2c1.2,0.2,2.2,1,3.2,1.6c0.4,0.3,0.7,0.5,1,0.7l0,0l7,4c0.3,0.2,0.5,0.5,0.5,0.9
									s-0.2,0.7-0.5,0.9l-10.2,5.9C96.3,30.6,96.1,30.6,95.9,30.6z M87.8,13.2v9.5c0,0.7,0.6,1.5,1.6,2.1l6.5,3.7l8.2-4.7
									l-5.5-3.1c-0.4-0.2-0.8-0.5-1.2-0.8c-0.8-0.6-1.7-1.2-2.5-1.3c-0.2,0-0.4-0.1-0.5-0.2L87.8,13.2z"/>
							</g>
							<g>
								<path class="st0" d="M99.2,8.2c-2.8-1.6-7.4-1.6-10.2,0l0,0c-2.8,1.6-2.8,4.3,0,5.9l7,4l10.2-5.9L99.2,8.2z"/>
								<path class="st5" d="M95.9,19.1c-0.2,0-0.3,0-0.5-0.1l-7-4c-1.7-1-2.6-2.3-2.6-3.8s0.9-2.8,2.6-3.8c3.1-1.8,8.1-1.8,11.2,0
									l0,0l7,4c0.3,0.2,0.5,0.5,0.5,0.9s-0.2,0.7-0.5,0.9L96.4,19C96.3,19,96.1,19.1,95.9,19.1z M94.1,8c-1.7,0-3.4,0.4-4.6,1.1
									c-1,0.6-1.6,1.4-1.6,2.1c0,0.7,0.6,1.5,1.6,2.1L96,17l8.2-4.7L98.7,9C97.4,8.3,95.7,8,94.1,8z"/>
							</g>
							<g>
								<polygon class="st4" points="106.1,12.2 106.1,23.7 95.9,29.6 95.9,18.1 								"/>
								<path class="st5" d="M95.9,30.6c-0.2,0-0.3,0-0.5-0.1c-0.3-0.2-0.5-0.5-0.5-0.9V18.1c0-0.4,0.2-0.7,0.5-0.9l10.2-5.9
									c0.3-0.2,0.7-0.2,1,0s0.5,0.5,0.5,0.9v11.5c0,0.4-0.2,0.7-0.5,0.9l-10.2,5.9C96.3,30.6,96.1,30.6,95.9,30.6z M96.9,18.7v9.2
									l8.2-4.7V14L96.9,18.7z"/>
							</g>
							<path class="st6" d="M95.9,30.6c-0.2,0-0.3,0-0.5-0.1l-7-4c-1.7-1-2.6-2.3-2.6-3.8V11.1c0-1.5,0.9-2.8,2.6-3.8
								c3.1-1.8,8.1-1.8,11.2,0l0,0l7,4c0.3,0.2,0.5,0.5,0.5,0.9v11.5c0,0.4-0.2,0.7-0.5,0.9l-10.2,5.9
								C96.3,30.6,96.1,30.6,95.9,30.6z M94.1,8c-1.7,0-3.4,0.4-4.6,1.1c-1,0.6-1.6,1.4-1.6,2.1v11.5c0,0.7,0.6,1.5,1.6,2.1l6.5,3.7
								l9.2-5.3V12.8L98.7,9C97.4,8.3,95.7,8,94.1,8z"/>
							<g>
								<path class="st4" d="M106.4,23.9l-0.3-0.2l-0.3,0.2l-9.9,0.5v5.2l3.8,2.2c2.8,1.6,7.4,1.6,10.2,0l0,0
									c1.4-0.8,2.1-1.9,2.1-2.9v-5.2L106.4,23.9z"/>
								<path class="st5" d="M104.8,34c-2,0-4-0.5-5.6-1.4l-3.8-2.2c-0.3-0.2-0.5-0.5-0.5-0.9v-5.2c0-0.5,0.4-1,1-1l9.6-0.5l0.1-0.1
									c0.3-0.2,0.7-0.2,1,0l0,0l5.3-0.3c0.3,0,0.5,0.1,0.7,0.3c0.2,0.2,0.3,0.5,0.3,0.7v5.2c0,1.5-0.9,2.8-2.6,3.8
									C108.8,33.5,106.8,34,104.8,34z M96.9,29l3.3,1.9c2.5,1.4,6.7,1.4,9.2,0c1-0.6,1.6-1.4,1.6-2.1v-4.2l-4.5,0.2
									c-0.1,0-0.2,0-0.3,0c-0.1,0-0.2,0.1-0.3,0.1L97,25.3L96.9,29L96.9,29z"/>
							</g>
							<path class="st5" d="M106.1,23.7l-0.3,0.2l-1.2,0.1v9c1.9,0,3.8-0.4,5.2-1.2l0,0c1.4-0.8,2.1-1.9,2.1-2.9v-5.2l-5.6,0.3
								L106.1,23.7z"/>
							<g>
								<path class="st4" d="M109.9,20.7l-3.8-2.2l-10.2,5.9l3.8,2.2c2.8,1.6,7.4,1.6,10.2,0l0,0C112.7,24.9,112.7,22.3,109.9,20.7z
									"/>
								<path class="st0" d="M104.8,28.8c-2,0-4-0.5-5.6-1.4l-3.8-2.2c-0.3-0.2-0.5-0.5-0.5-0.9s0.2-0.7,0.5-0.9l10.2-5.9
									c0.3-0.2,0.7-0.2,1,0l3.8,2.2c1.7,1,2.6,2.3,2.6,3.8s-0.9,2.8-2.6,3.8C108.8,28.3,106.8,28.8,104.8,28.8z M97.9,24.4
									l2.3,1.3c2.5,1.4,6.7,1.4,9.2,0c1-0.6,1.6-1.4,1.6-2.1s-0.6-1.5-1.6-2.1l0,0l-3.3-1.9L97.9,24.4z"/>
							</g>
							<path class="st6" d="M104.8,34c-2,0-4-0.5-5.6-1.4l-3.8-2.2c-0.3-0.2-0.5-0.5-0.5-0.9v-5.2c0-0.4,0.2-0.7,0.5-0.9l10.2-5.9
								c0.3-0.2,0.7-0.2,1,0l3.8,2.2c1.7,1,2.6,2.3,2.6,3.8v5.2c0,1.5-0.9,2.8-2.6,3.8C108.8,33.5,106.8,34,104.8,34z M96.9,29
								l3.3,1.9c2.5,1.4,6.7,1.4,9.2,0c1-0.6,1.6-1.4,1.6-2.1v-5.2c0-0.7-0.6-1.5-1.6-2.1l0,0l-3.3-1.9L96.9,25V29z"/>
						</g>
						<path class="st0" d="M95.7,64.1c-0.6,0-1-0.4-1-1V39.6c0-0.6,0.4-1,1-1s1,0.4,1,1v23.5C96.7,63.7,96.3,64.1,95.7,64.1z"/>
						<path class="st6" d="M104.8,79c-1,0-2-0.1-3-0.3c-0.1,0-0.1,0-0.2-0.1c-0.4-0.1-0.8-0.2-1.1-0.4c-0.4-0.2-0.9-0.4-1.3-0.6
							l-10.7-6.2c-1.7-1-2.6-2.3-2.6-3.8V11.1c0-1.5,0.9-2.8,2.6-3.8c3.1-1.8,8.1-1.8,11.2,0l7,4c0.3,0.2,0.5,0.5,0.5,0.9v5.7
							l3.3,1.9c1.7,1,2.6,2.3,2.6,3.8v50.3c0,1.5-0.9,2.8-2.6,3.8C108.8,78.6,106.8,79,104.8,79z M94.1,8c-1.7,0-3.4,0.4-4.6,1.1
							c-1,0.6-1.6,1.4-1.6,2.1v56.6c0,0.7,0.6,1.5,1.6,2.1l10.7,6.2c0.3,0.2,0.6,0.3,1,0.5c0.3,0.1,0.6,0.2,0.9,0.3
							c0.1,0,0.1,0,0.2,0c2.5,0.6,5.4,0.3,7.2-0.8c1-0.6,1.6-1.4,1.6-2.1V23.6c0-0.7-0.6-1.5-1.6-2.1l-3.8-2.2
							c-0.3-0.2-0.5-0.5-0.5-0.9v-5.7L98.7,9C97.4,8.3,95.7,8,94.1,8z"/>
					</g>
				</g>
				<rect x="4" y="4" class="st7" width="120" height="120"/>
				<rect x="4" y="4" class="st7" width="120" height="120"/>
			</g>
		</g>
	</g>
	<g>
		<rect class="st7" width="128" height="128"/>
	</g>
</g>
</svg>
