<?xml version="1.0" encoding="utf-8"?>
<!-- Generator: Adobe Illustrator 24.1.0, SVG Export Plug-In . SVG Version: 6.00 Build 0)  -->
<svg version="1.1" id="Layer_1" xmlns="http://www.w3.org/2000/svg" xmlns:xlink="http://www.w3.org/1999/xlink" x="0px" y="0px"
	 viewBox="0 0 128 128" style="enable-background:new 0 0 128 128;" xml:space="preserve">
<style type="text/css">
	.st0{fill:#FFFFFF;}
	.st1{fill:#4D9987;}
	.st2{fill:#E9EBDF;}
	.st3{fill:#0E352C;}
	.st4{fill:#27ae60;}
	.st5{fill:#C4D7D3;}
	.st6{fill:none;}
	.st7{fill:#185849;}
</style>
<g id="Layer_1_1_">
</g>
<g>
	<g id="Layer_2_1_">
		<g id="Industries_1_">
			<g>
				<g>
					<g>
						<g>
							<g>
								<g>
									<g>
										<g>
											<path class="st0" d="M99.2,9.7l-7.9-4.6l0,0c-0.2-0.1-0.5-0.1-0.8,0L23.8,43.7c-0.6,0.4-1.2,1.4-1.2,2.2v64.8
												c0,0.5,0.2,0.8,0.4,0.9l0,0l7.9,4.6l6.7-12.6l52.9-35.7c0.6-0.4,1.2-1.4,1.2-2.2v-46L99.2,9.7z"/>
											<path class="st1" d="M31,117.1c-0.2,0-0.3,0-0.5-0.1l-7.9-4.6c-0.1,0-0.1-0.1-0.2-0.1c-0.5-0.4-0.7-1-0.7-1.7V45.9
												c0-1.2,0.7-2.5,1.7-3.1L90,4.3C90.5,4,91.1,4,91.6,4.2c0.1,0,0.1,0,0.2,0.1l7.9,4.6c0.2,0.1,0.4,0.4,0.5,0.7
												s0,0.6-0.2,0.8L92.7,20v45.5c0,1.2-0.7,2.5-1.7,3.1l-52.6,35.6l-6.6,12.4c-0.1,0.2-0.3,0.4-0.6,0.5
												C31.1,117.1,31,117.1,31,117.1z M23.6,110.8l6.9,4l6.2-11.7c0.1-0.1,0.2-0.3,0.3-0.4l53-35.8c0.4-0.2,0.7-0.8,0.7-1.4
												V19.7c0-0.2,0.1-0.4,0.2-0.6l6.9-9.1l-6.9-4L24.3,44.5c-0.3,0.2-0.7,0.8-0.7,1.3v64.8C23.6,110.7,23.6,110.7,23.6,110.8z
												"/>
										</g>
										<path class="st2" d="M30.6,115.9V39.8l-6.8,3.9c-0.6,0.4-1.2,1.4-1.2,2.2v64.8c0,0.5,0.2,0.8,0.4,0.9l0,0L30.6,115.9z"/>
										<g>
											<path class="st1" d="M67.5,81l23-13.3c0.6-0.4,1.2-1.4,1.2-2.2V19.7l7.5-10l-7.9-4.6l0,0c-0.2-0.1-0.5-0.1-0.8,0
												L23.8,43.7c-0.6,0.4-1.2,1.4-1.2,2.2v9.2L67.5,81z"/>
											<path class="st3" d="M67.5,82c-0.2,0-0.3,0-0.5-0.1L22.1,56c-0.3-0.2-0.5-0.5-0.5-0.9v-9.2c0-1.2,0.7-2.5,1.7-3.1L90,4.3
												C90.5,4,91.1,4,91.6,4.2c0.1,0,0.1,0,0.2,0.1l7.9,4.6c0.2,0.1,0.4,0.4,0.5,0.7s0,0.6-0.2,0.8L92.7,20v45.5
												c0,1.2-0.7,2.5-1.7,3.1L68,81.9C67.9,82,67.7,82,67.5,82z M23.6,54.5l43.9,25.4l22.5-13c0.3-0.2,0.7-0.8,0.7-1.3V19.7
												c0-0.2,0.1-0.4,0.2-0.6l6.9-9.1l-6.9-4L24.3,44.5c-0.3,0.2-0.7,0.8-0.7,1.3C23.6,45.8,23.6,54.5,23.6,54.5z"/>
										</g>
										<path class="st2" d="M69.7,73l22-30.7V19.7l7.5-10l-7.9-4.6l0,0c-0.2-0.1-0.5-0.1-0.8,0L23.8,43.7
											c-0.6,0.4-1.2,1.4-1.2,2.2l0,0L69.7,73z"/>
										<g>
											<path class="st0" d="M98.4,77.5L31.7,116c-0.6,0.4-1.2,0-1.2-0.9V50.5c0-0.8,0.5-1.8,1.2-2.2L98.4,9.7
												c0.6-0.4,1.2,0,1.2,0.9v64.8C99.6,76.2,99.1,77.2,98.4,77.5z"/>
											<path class="st1" d="M31.2,117.2c-0.3,0-0.5-0.1-0.8-0.2c-0.6-0.3-0.9-1-0.9-1.8V50.5c0-1.2,0.7-2.5,1.7-3.1L97.9,8.8
												c0.6-0.3,1.2-0.4,1.8-0.1c0.6,0.3,0.9,1,0.9,1.8v64.8c0,1.2-0.7,2.5-1.7,3.1l0,0l-66.7,38.5
												C31.9,117.1,31.6,117.2,31.2,117.2z M98.6,10.8L32.2,49.1c-0.3,0.2-0.7,0.8-0.7,1.3V115l66.4-38.3
												c0.3-0.2,0.7-0.8,0.7-1.3V10.8z M98.4,77.5L98.4,77.5L98.4,77.5z"/>
										</g>
										<path class="st3" d="M31.3,117.2c-0.2,0-0.4,0-0.6-0.1c-0.1,0-0.1,0-0.2-0.1l-7.9-4.6c-0.1,0-0.1-0.1-0.2-0.1
											c-0.5-0.4-0.7-1-0.7-1.7V45.9c0-1.2,0.7-2.5,1.7-3.1L90,4.3C90.5,4,91.1,4,91.6,4.2c0.1,0,0.1,0,0.2,0.1l7.9,4.6
											c0.1,0,0.1,0.1,0.2,0.1c0.5,0.4,0.7,1,0.7,1.7v64.8c0,1.2-0.7,2.5-1.7,3.1l-66.7,38.5C31.9,117.1,31.6,117.2,31.3,117.2z
											 M23.6,110.8l7.6,4.4l66.7-38.5c0.3-0.2,0.7-0.8,0.7-1.3V10.6c0-0.1,0-0.1,0-0.1L90.9,6L24.3,44.5
											c-0.3,0.2-0.7,0.8-0.7,1.3v64.8C23.6,110.7,23.6,110.7,23.6,110.8z M98.7,10.5L98.7,10.5L98.7,10.5z"/>
										<g>
											<path class="st3" d="M99.6,19.8v-9.2c0-0.8-0.5-1.2-1.2-0.9L31.7,48.2c-0.6,0.4-1.2,1.4-1.2,2.2v9.2L99.6,19.8z"/>
											<path class="st3" d="M30.6,60.7c-0.2,0-0.3,0-0.5-0.1c-0.3-0.2-0.5-0.5-0.5-0.9v-9.2c0-1.2,0.7-2.5,1.7-3.1L97.9,8.8
												c0.6-0.3,1.2-0.4,1.8-0.1c0.6,0.3,0.9,1,0.9,1.8v9.2c0,0.4-0.2,0.7-0.5,0.9l-69,39.9C30.9,60.6,30.7,60.7,30.6,60.7z
												 M98.6,10.8L32.2,49.1c-0.3,0.2-0.7,0.8-0.7,1.3V58l67-38.7L98.6,10.8L98.6,10.8z M99.6,19.8L99.6,19.8L99.6,19.8z"/>
										</g>
										<g>
											
												<ellipse transform="matrix(0.3916 -0.9201 0.9201 0.3916 -19.5862 67.3646)" class="st2" cx="41.1" cy="48.5" rx="2" ry="1.1"/>
											
												<ellipse transform="matrix(0.3916 -0.9201 0.9201 0.3916 -13.8873 70.2177)" class="st0" cx="46.2" cy="45.6" rx="2" ry="1.1"/>
											
												<ellipse transform="matrix(0.3916 -0.9201 0.9201 0.3916 -25.5166 64.3777)" class="st1" cx="35.9" cy="51.5" rx="2" ry="1.1"/>
										</g>
									</g>
									<path class="st1" d="M38,103.7c-0.3,0-0.7-0.2-0.9-0.5c-0.3-0.5-0.1-1.1,0.4-1.4l54-31.2c0.5-0.3,1.1-0.1,1.4,0.4
										s0.1,1.1-0.4,1.4l-54,31.2C38.3,103.7,38.2,103.7,38,103.7z"/>
									<path class="st1" d="M38,103.7c-0.6,0-1-0.4-1-1V64.4c0-0.6,0.4-1,1-1s1,0.4,1,1v38.3C39,103.3,38.5,103.7,38,103.7z"/>
									<g>
										<path class="st4" d="M45,90.5c-0.3,0-0.5-0.1-0.7-0.3c-0.4-0.4-0.4-1,0-1.4L55,78.7l10.7-22.2c0.1-0.2,0.3-0.4,0.6-0.5
											c0.3-0.1,0.5-0.1,0.8,0.1l10,5.5L87.4,48c0.3-0.4,1-0.5,1.4-0.2s0.5,1,0.2,1.4L78.1,63.3c-0.3,0.4-0.8,0.5-1.3,0.3
											L67,58.2L56.6,79.6c-0.1,0.1-0.1,0.2-0.2,0.3L45.6,90.2C45.5,90.4,45.2,90.5,45,90.5z"/>
										<g>
											
												<ellipse transform="matrix(0.3916 -0.9201 0.9201 0.3916 -39.0003 99.5029)" class="st0" cx="55.7" cy="79.2" rx="3.4" ry="1.9"/>
											<path class="st4" d="M54.9,83.4c-0.4,0-0.7-0.1-1.1-0.3c-0.8-0.5-1.3-1.4-1.3-2.6c0-2,1.2-4.2,2.7-5
												c0.8-0.5,1.7-0.5,2.4-0.1c0.8,0.5,1.3,1.4,1.3,2.6c0,2-1.2,4.2-2.7,5C55.8,83.2,55.3,83.4,54.9,83.4z M56.6,77
												c-0.1,0-0.2,0-0.4,0.1c-0.9,0.5-1.7,2.1-1.7,3.3c0,0.6,0.2,0.8,0.3,0.9c0.1,0,0.2,0,0.4-0.1c0.9-0.5,1.7-2.1,1.7-3.3
												C56.9,77.3,56.8,77.1,56.6,77C56.7,77,56.6,77,56.6,77z"/>
										</g>
										<g>
											
												<ellipse transform="matrix(0.3916 -0.9201 0.9201 0.3916 -11.8037 95.8061)" class="st0" cx="66.5" cy="56.8" rx="3.4" ry="1.9"/>
											<path class="st4" d="M65.7,61c-0.4,0-0.7-0.1-1.1-0.3c-0.8-0.5-1.3-1.4-1.3-2.6c0-2,1.2-4.2,2.7-5
												c0.8-0.5,1.7-0.5,2.4-0.1c0.8,0.5,1.3,1.4,1.3,2.6c0,2-1.2,4.2-2.7,5C66.6,60.8,66.1,61,65.7,61z M67.4,54.6
												c-0.1,0-0.2,0-0.4,0.1c-0.9,0.5-1.7,2.1-1.7,3.3c0,0.6,0.2,0.9,0.3,0.9c0.1,0,0.2,0,0.4-0.1c0.9-0.5,1.7-2.1,1.7-3.3
												C67.7,54.9,67.5,54.7,67.4,54.6C67.5,54.6,67.4,54.6,67.4,54.6z"/>
										</g>
										<g>
											
												<ellipse transform="matrix(0.3916 -0.9201 0.9201 0.3916 -10.6601 109.3216)" class="st0" cx="77.3" cy="62.7" rx="3.4" ry="1.9"/>
											<path class="st4" d="M76.5,66.9c-0.4,0-0.7-0.1-1.1-0.3c-0.8-0.5-1.3-1.4-1.3-2.6c0-2,1.2-4.2,2.7-5
												c0.8-0.5,1.7-0.5,2.4-0.1c0.8,0.5,1.3,1.4,1.3,2.6c0,2-1.2,4.2-2.7,5C77.4,66.7,76.9,66.9,76.5,66.9z M78.2,60.5
												c-0.1,0-0.2,0-0.4,0.1c-0.9,0.5-1.7,2.1-1.7,3.3c0,0.6,0.2,0.8,0.3,0.9c0.1,0,0.2,0,0.4-0.1c0.9-0.5,1.7-2.1,1.7-3.3
												C78.5,60.8,78.3,60.6,78.2,60.5L78.2,60.5z"/>
										</g>
										<g>
											
												<ellipse transform="matrix(0.3916 -0.9201 0.9201 0.3916 9.0955 110.5568)" class="st0" cx="88.1" cy="48.4" rx="3.4" ry="1.9"/>
											<path class="st4" d="M87.2,52.5c-0.4,0-0.7-0.1-1.1-0.3c-0.8-0.5-1.3-1.4-1.3-2.6c0-2,1.2-4.2,2.7-5
												c0.8-0.5,1.7-0.5,2.4-0.1c0.8,0.5,1.3,1.4,1.3,2.6c0,2-1.2,4.2-2.7,5C88.2,52.4,87.7,52.5,87.2,52.5z M89,46.2
												c-0.1,0-0.2,0-0.4,0.1c-0.9,0.5-1.7,2.1-1.7,3.3c0,0.6,0.2,0.8,0.3,0.9c0.1,0,0.2,0,0.4-0.1c0.9-0.5,1.7-2.1,1.7-3.3
												C89.3,46.5,89.1,46.2,89,46.2L89,46.2z"/>
										</g>
										<g>
											
												<ellipse transform="matrix(0.3916 -0.9201 0.9201 0.3916 -54.9169 95.8357)" class="st0" cx="45" cy="89.4" rx="3.4" ry="1.9"/>
											<path class="st4" d="M44.1,93.6c-0.4,0-0.7-0.1-1.1-0.3c-0.8-0.5-1.3-1.4-1.3-2.6c0-2,1.2-4.2,2.7-5
												c0.8-0.5,1.7-0.5,2.4-0.1c0.8,0.5,1.3,1.4,1.3,2.6c0,2-1.2,4.2-2.7,5C45,93.5,44.5,93.6,44.1,93.6z M45.8,87.3
												c-0.1,0-0.2,0-0.4,0.1c-0.9,0.5-1.7,2.1-1.7,3.3c0,0.6,0.2,0.9,0.3,0.9s0.2,0,0.4-0.1c0.9-0.5,1.7-2.1,1.7-3.3
												C46.1,87.6,46,87.3,45.8,87.3C45.9,87.3,45.9,87.3,45.8,87.3z"/>
										</g>
									</g>
								</g>
							</g>
						</g>
					</g>
					<g>
						<g>
							<path class="st5" d="M101.1,95.1c-0.1,0-0.1-0.1-0.2-0.1c-6-3.5-15.8-3.5-21.8,0c-0.1,0-0.1,0.1-0.2,0.1h-4.3v6.4
								c0,2.3,1.5,4.6,4.5,6.3c6,3.5,15.8,3.5,21.8,0c3-1.7,4.5-4,4.5-6.3v-6.4H101.1z"/>
							<path class="st4" d="M100.9,107.8c3-1.7,4.5-4,4.5-6.3v-6.4h-4.3c-0.1,0-0.1-0.1-0.2-0.1c-3-1.7-7-2.6-10.9-2.6v18
								C93.9,110.4,97.8,109.5,100.9,107.8z"/>
							<ellipse class="st5" cx="89.9" cy="95.1" rx="15.4" ry="8.9"/>
							<path class="st0" d="M89.9,105c-4.1,0-8.3-0.9-11.4-2.7c-3.2-1.9-5-4.4-5-7.2s1.8-5.3,5-7.2c6.3-3.6,16.5-3.6,22.8,0l0,0
								c3.2,1.9,5,4.4,5,7.2s-1.8,5.3-5,7.2C98.2,104.1,94.1,105,89.9,105z M89.9,87.2c-3.8,0-7.5,0.8-10.4,2.5
								c-2.6,1.5-4,3.4-4,5.4s1.4,3.9,4,5.4c5.7,3.3,15.1,3.3,20.8,0c2.6-1.5,4-3.4,4-5.4s-1.4-3.9-4-5.4
								C97.5,88,93.7,87.2,89.9,87.2z"/>
							<ellipse class="st6" cx="89.9" cy="100.8" rx="15.8" ry="9.6"/>
							<path class="st7" d="M89.9,111.4c-4.3,0-8.4-1-11.4-2.7c-3.2-1.9-5-4.4-5-7.2v-6.4c0-2.8,1.8-5.3,5-7.2
								c6.3-3.6,16.5-3.6,22.8,0c3.2,1.9,5,4.4,5,7.2v6.4c0,1-0.3,2-0.7,3c-0.8,1.6-2.3,3-4.3,4.2c-1.6,0.9-3.4,1.6-5.4,2.1
								c-0.5,0.1-1,0.2-1.5,0.3c-1,0.2-2,0.3-3,0.3C91,111.4,90.4,111.4,89.9,111.4z M89.9,87.2c-3.8,0-7.5,0.8-10.4,2.5
								c-2.6,1.5-4,3.4-4,5.4v6.4c0,2,1.4,3.9,4,5.4c3.1,1.8,7.4,2.7,11.8,2.4c1-0.1,1.9-0.2,2.8-0.3c0.5-0.1,0.9-0.2,1.4-0.3
								c1.8-0.4,3.5-1,4.8-1.9c1.7-1,2.9-2.1,3.5-3.4c0.3-0.7,0.5-1.4,0.5-2.1v-6.4c0-2-1.4-3.9-4-5.4C97.5,88,93.7,87.2,89.9,87.2z
								"/>
							<path class="st4" d="M95.9,97.6l1.6,0.9L96,99.3l-1.6-0.9c-0.8,0.4-1.6,0.7-2.4,1c-0.9,0.3-1.7,0.4-2.4,0.5l-1-1.5
								c0.6-0.1,1.3-0.2,2-0.4c0.7-0.2,1.3-0.4,1.9-0.7L90,95.9c-0.9,0.3-1.6,0.5-2.3,0.7c-0.7,0.2-1.4,0.2-2.1,0.2
								s-1.4-0.3-2.1-0.6c-0.8-0.5-1.2-1-1.2-1.7s0.5-1.4,1.5-2.1l-1.6-0.9l1.5-0.8l1.6,0.9c1.3-0.6,2.6-1,3.9-1.2l1.1,1.5
								c-1.1,0.2-2.1,0.5-3,0.9l2.5,1.4c0.8-0.3,1.6-0.5,2.3-0.7c0.7-0.2,1.4-0.2,2.1-0.2s1.4,0.2,2,0.6c0.8,0.5,1.2,1,1.2,1.7
								C97.3,96.2,96.9,96.9,95.9,97.6z M86.8,94.9c0.4,0,0.8-0.1,1.2-0.2l-2.1-1.2c-0.3,0.3-0.4,0.5-0.4,0.7s0.2,0.4,0.4,0.5
								C86.1,94.9,86.4,94.9,86.8,94.9 M92,95.3l2,1.2c0.3-0.2,0.4-0.5,0.4-0.7s-0.1-0.4-0.4-0.5c-0.2-0.1-0.5-0.2-0.9-0.2
								C92.8,95.1,92.4,95.2,92,95.3"/>
						</g>
						<g>
							<path class="st5" d="M101.1,88.7c-0.1,0-0.1-0.1-0.2-0.1c-6-3.5-15.8-3.5-21.8,0c-0.1,0-0.1,0.1-0.2,0.1h-4.3v6.4
								c0,2.3,1.5,4.6,4.5,6.3c6,3.5,15.8,3.5,21.8,0c3-1.7,4.5-4,4.5-6.3v-6.4H101.1z"/>
							<path class="st4" d="M100.9,101.4c3-1.7,4.5-4,4.5-6.3v-6.4h-4.3c-0.1,0-0.1-0.1-0.2-0.1c-3-1.7-7-2.6-10.9-2.6v18
								C93.9,104,97.8,103.1,100.9,101.4z"/>
							<ellipse class="st5" cx="89.9" cy="88.7" rx="15.4" ry="8.9"/>
							<path class="st0" d="M89.9,98.6c-4.1,0-8.3-0.9-11.4-2.7c-3.2-1.9-5-4.4-5-7.2s1.8-5.3,5-7.2c6.3-3.6,16.5-3.6,22.8,0
								c3.2,1.9,5,4.4,5,7.2s-1.8,5.3-5,7.2C98.2,97.7,94.1,98.6,89.9,98.6z M89.9,80.8c-3.8,0-7.5,0.8-10.4,2.5
								c-2.6,1.5-4,3.4-4,5.4s1.4,3.9,4,5.4c5.7,3.3,15.1,3.3,20.8,0c2.6-1.5,4-3.4,4-5.4s-1.4-3.9-4-5.4
								C97.5,81.6,93.7,80.8,89.9,80.8z"/>
							<ellipse class="st6" cx="89.9" cy="94.5" rx="15.8" ry="9.6"/>
							<path class="st7" d="M89.9,105c-4.3,0-8.4-1-11.4-2.7c-3.2-1.9-5-4.4-5-7.2v-6.4c0-2.8,1.8-5.3,5-7.2
								c6.3-3.6,16.5-3.6,22.8,0c3.2,1.9,5,4.4,5,7.2v6.4c0,1-0.3,2-0.7,3c-0.8,1.6-2.3,3-4.3,4.2c-1.6,0.9-3.4,1.6-5.4,2.1
								c-0.5,0.1-1,0.2-1.5,0.3c-1,0.2-2,0.3-3,0.3C91,105,90.4,105,89.9,105z M89.9,80.8c-3.8,0-7.5,0.8-10.4,2.5
								c-2.6,1.5-4,3.4-4,5.4v6.4c0,2,1.4,3.9,4,5.4c3.1,1.8,7.4,2.7,11.8,2.4c1-0.1,1.9-0.2,2.8-0.3c0.5-0.1,0.9-0.2,1.4-0.3
								c1.8-0.4,3.5-1,4.8-1.9c1.7-1,2.9-2.1,3.5-3.4c0.3-0.7,0.5-1.4,0.5-2.1v-6.4c0-2-1.4-3.9-4-5.4
								C97.5,81.6,93.7,80.8,89.9,80.8z"/>
							<path class="st4" d="M95.9,91.2l1.6,0.9L96.1,93l-1.6-0.9c-0.8,0.4-1.6,0.7-2.4,1c-0.9,0.3-1.7,0.4-2.4,0.5l-1-1.5
								c0.6-0.1,1.3-0.2,2-0.4c0.7-0.2,1.3-0.4,1.9-0.7l-2.5-1.4c-0.9,0.3-1.6,0.5-2.3,0.7c-0.7,0.2-1.4,0.2-2.1,0.2
								s-1.4-0.3-2.1-0.6c-0.8-0.5-1.2-1-1.2-1.7s0.5-1.4,1.5-2.1L82.3,85l1.5-0.8l1.6,0.9c1.3-0.6,2.6-1,3.9-1.2l1.1,1.5
								c-1.1,0.2-2.1,0.5-3,0.9l2.5,1.4c0.8-0.3,1.6-0.5,2.3-0.7c0.7-0.2,1.4-0.2,2.1-0.2s1.4,0.2,2,0.6c0.8,0.5,1.2,1,1.2,1.7
								C97.3,89.8,96.9,90.5,95.9,91.2z M86.8,88.5c0.4,0,0.8-0.1,1.2-0.2l-2.1-1.2c-0.3,0.3-0.4,0.5-0.4,0.7s0.2,0.4,0.4,0.5
								C86.1,88.5,86.4,88.5,86.8,88.5 M92,88.9l2,1.2c0.3-0.2,0.4-0.5,0.4-0.7S94.3,89,94,88.9c-0.2-0.1-0.5-0.2-0.9-0.2
								C92.8,88.7,92.4,88.8,92,88.9"/>
						</g>
					</g>
					<g>
						<path class="st5" d="M79.2,107.7c-0.1,0-0.1-0.1-0.2-0.1c-6-3.5-15.8-3.5-21.8,0c-0.1,0-0.1,0.1-0.2,0.1h-4.3v6.4
							c0,2.3,1.5,4.6,4.5,6.3c6,3.5,15.8,3.5,21.8,0c3-1.7,4.5-4,4.5-6.3v-6.4H79.2z"/>
						<path class="st4" d="M79,120.4c3-1.7,4.5-4,4.5-6.3v-6.4h-4.3c-0.1,0-0.1-0.1-0.2-0.1c-3-1.7-7-2.6-10.9-2.6v18
							C72,123,76,122.1,79,120.4z"/>
						<ellipse class="st5" cx="68.1" cy="107.7" rx="15.4" ry="8.9"/>
						<path class="st0" d="M68.1,117.6c-4.1,0-8.3-0.9-11.4-2.7c-3.2-1.9-5-4.4-5-7.2c0-2.8,1.8-5.3,5-7.2c6.3-3.6,16.5-3.6,22.8,0
							c3.2,1.9,5,4.4,5,7.2c0,2.8-1.8,5.3-5,7.2C76.4,116.7,72.2,117.6,68.1,117.6z M68.1,99.8c-3.8,0-7.6,0.8-10.4,2.5
							c-2.6,1.5-4,3.4-4,5.4s1.4,3.9,4,5.4c5.7,3.3,15.1,3.3,20.8,0c2.6-1.5,4-3.4,4-5.4s-1.4-3.9-4-5.4
							C75.6,100.6,71.9,99.8,68.1,99.8z"/>
						<ellipse class="st6" cx="68.1" cy="113.5" rx="15.8" ry="9.6"/>
						<path class="st7" d="M68.1,124c-4.3,0-8.4-1-11.4-2.7c-3.2-1.9-5-4.4-5-7.2v-6.4c0-2.8,1.8-5.3,5-7.2c6.3-3.6,16.5-3.6,22.8,0
							c3.2,1.9,5,4.4,5,7.2v6.4c0,1-0.2,2-0.7,3c-0.8,1.6-2.3,3-4.3,4.2c-1.6,0.9-3.4,1.6-5.4,2.1c-0.5,0.1-1,0.2-1.5,0.3
							c-1,0.2-2,0.3-3,0.3C69.1,124,68.6,124,68.1,124z M68.1,99.8c-3.8,0-7.5,0.8-10.4,2.5c-2.6,1.5-4,3.4-4,5.4v6.4
							c0,2,1.4,3.9,4,5.4c3.1,1.8,7.4,2.7,11.8,2.4c0.9-0.1,1.9-0.2,2.8-0.3c0.5-0.1,0.9-0.2,1.4-0.3c1.8-0.4,3.4-1,4.8-1.9
							c1.7-1,2.9-2.1,3.5-3.4c0.3-0.7,0.5-1.4,0.5-2.1l0,0v-6.4c0-2-1.4-3.9-4-5.4C75.6,100.6,71.9,99.8,68.1,99.8z"/>
						<path class="st4" d="M74.1,110.2l1.6,0.9l-1.5,0.8l-1.6-0.9c-0.8,0.4-1.6,0.7-2.4,1c-0.9,0.3-1.7,0.4-2.4,0.5l-1-1.5
							c0.6-0.1,1.3-0.2,2-0.4c0.7-0.2,1.3-0.4,1.9-0.7l-2.5-1.4c-0.9,0.3-1.6,0.5-2.3,0.7c-0.7,0.2-1.4,0.2-2.1,0.2
							c-0.7,0-1.4-0.3-2.1-0.6c-0.8-0.5-1.2-1-1.2-1.7s0.5-1.4,1.5-2.1l-1.6-0.9l1.5-0.8l1.6,0.9c1.3-0.6,2.6-1,3.9-1.2l1.1,1.5
							c-1.1,0.2-2.1,0.5-3,0.9l2.5,1.4c0.8-0.3,1.6-0.5,2.3-0.7c0.7-0.2,1.4-0.2,2.1-0.2s1.4,0.2,2,0.6c0.8,0.5,1.2,1,1.2,1.7
							C75.5,108.8,75,109.5,74.1,110.2z M64.9,107.5c0.4,0,0.8-0.1,1.2-0.2l-2.1-1.2c-0.3,0.3-0.4,0.5-0.4,0.7s0.2,0.4,0.4,0.5
							C64.3,107.5,64.6,107.5,64.9,107.5 M70.1,107.9l2,1.2c0.3-0.2,0.4-0.5,0.4-0.7s-0.1-0.4-0.4-0.5c-0.2-0.1-0.5-0.2-0.9-0.2
							C71,107.7,70.6,107.8,70.1,107.9"/>
					</g>
				</g>
				<rect x="4" y="4" class="st6" width="120" height="120"/>
				<rect x="4" y="4" class="st6" width="120" height="120"/>
			</g>
		</g>
	</g>
	<g>
		<rect class="st6" width="128" height="128"/>
	</g>
</g>
</svg>
