<?xml version="1.0" encoding="utf-8"?>
<!-- Generator: Adobe Illustrator 24.1.0, SVG Export Plug-In . SVG Version: 6.00 Build 0)  -->
<svg version="1.1" id="Layer_1" xmlns="http://www.w3.org/2000/svg" xmlns:xlink="http://www.w3.org/1999/xlink" x="0px" y="0px"
	 viewBox="0 0 128 128" style="enable-background:new 0 0 128 128;" xml:space="preserve">
<style type="text/css">
	.st0{fill:#C4D7D3;}
	.st1{fill:#27ae60;}
	.st2{fill:#185849;}
	.st3{fill:#FFFFFF;}
	.st4{fill:#4D9987;}
	.st5{fill:#E9EBDF;}
	.st6{fill:#0E352C;}
	.st7{fill:none;}
</style>
<g id="Layer_1_1_">
</g>
<g>
	<g id="Layer_2_1_">
		<g id="New_Illustrations_1_">
			<g>
				<g>
					<g>
						<g>
							<polygon class="st0" points="58.4,26.4 81.4,39.7 81.4,92.4 58.4,79.2 							"/>
							<g>
								<g>
									<polygon class="st1" points="72.6,69.5 75.6,71.3 75.6,65.6 72.6,63.8 									"/>
									<polygon class="st1" points="64.1,64.6 67.2,66.4 67.2,60.7 64.1,59 									"/>
									<polygon class="st1" points="72.6,80.2 75.6,82 75.6,76.3 72.6,74.5 									"/>
									<polygon class="st1" points="64.1,75.3 67.2,77.1 67.2,71.4 64.1,69.6 									"/>
									<polygon class="st1" points="72.6,48.2 75.6,50 75.6,44.3 72.6,42.5 									"/>
									<polygon class="st1" points="64.1,43.3 67.2,45.1 67.2,39.4 64.1,37.6 									"/>
									<polygon class="st1" points="72.6,58.8 75.6,60.6 75.6,54.9 72.6,53.2 									"/>
									<polygon class="st1" points="64.1,54 67.2,55.7 67.2,50.1 64.1,48.3 									"/>
								</g>
							</g>
							<g>
								<polygon class="st1" points="81.4,92.4 104.4,79.2 104.4,26.4 81.4,39.7 								"/>
								<path class="st1" d="M81.4,93.4c-0.2,0-0.3,0-0.5-0.1c-0.3-0.2-0.5-0.5-0.5-0.9V39.7c0-0.4,0.2-0.7,0.5-0.9l23-13.3
									c0.3-0.2,0.7-0.2,1,0s0.5,0.5,0.5,0.9v52.8c0,0.4-0.2,0.7-0.5,0.9l-23,13.3C81.7,93.4,81.6,93.4,81.4,93.4z M82.4,40.3v50.4
									l21-12.1V28.1L82.4,40.3z"/>
							</g>
							<g>
								<g>
									<polygon class="st2" points="95.6,39.4 98.7,37.6 98.7,43.3 95.6,45.1 									"/>
									<polygon class="st2" points="87.1,44.3 90.2,42.5 90.2,48.2 87.1,50 									"/>
								</g>
								<g>
									<polygon class="st2" points="95.6,71.4 98.7,69.6 98.7,75.3 95.6,77.1 									"/>
									<polygon class="st2" points="87.1,76.3 90.2,74.5 90.2,80.2 87.1,82 									"/>
									<polygon class="st2" points="95.6,60.7 98.7,59 98.7,64.6 95.6,66.4 									"/>
									<polygon class="st2" points="87.1,65.6 90.2,63.8 90.2,69.5 87.1,71.3 									"/>
									<polygon class="st2" points="95.6,50.1 98.7,48.3 98.7,54 95.6,55.7 									"/>
									<polygon class="st2" points="87.1,54.9 90.2,53.2 90.2,58.8 87.1,60.6 									"/>
								</g>
							</g>
							<path class="st2" d="M81.4,93.4c-0.2,0-0.3,0-0.5-0.1L57.9,80c-0.3-0.2-0.5-0.5-0.5-0.9V26.4c0-0.4,0.2-0.7,0.5-0.9l23-13.3
								c0.3-0.2,0.7-0.2,1,0l23,13.3c0.3,0.2,0.5,0.5,0.5,0.9v52.8c0,0.4-0.2,0.7-0.5,0.9l-23,13.3C81.7,93.4,81.6,93.4,81.4,93.4z
								 M59.4,78.6l22,12.7l22-12.7V27l-22-12.7L59.4,27V78.6z"/>
							<g>
								<g>
									<polygon class="st3" points="102.9,27.3 81.4,13.8 59.8,26.3 81.4,39.7 									"/>
									<path class="st4" d="M81.4,40.7c-0.2,0-0.4-0.1-0.5-0.2L59.3,27.1c-0.3-0.2-0.5-0.5-0.5-0.9s0.2-0.7,0.5-0.8L80.9,13
										c0.3-0.2,0.7-0.2,1,0l21.6,13.4c0.3,0.2,0.5,0.5,0.5,0.9s-0.2,0.7-0.5,0.8L81.9,40.6C81.7,40.7,81.6,40.7,81.4,40.7z
										 M61.8,26.3l19.6,12.2L101,27.2L81.4,15L61.8,26.3z"/>
								</g>
								<g>
									<polygon class="st5" points="107.9,28.3 81.4,11 54.9,28.3 81.4,43.6 									"/>
									<path class="st4" d="M81.4,44.6c-0.2,0-0.3,0-0.5-0.1L54.4,29.1c-0.3-0.2-0.5-0.5-0.5-0.8s0.2-0.7,0.5-0.9l26.5-17.3
										c0.3-0.2,0.8-0.2,1.1,0l26.5,17.3c0.3,0.2,0.5,0.5,0.5,0.9c0,0.3-0.2,0.7-0.5,0.8L81.9,44.4C81.7,44.5,81.6,44.6,81.4,44.6
										z M56.8,28.2l24.6,14.2L106,28.2l-24.6-16L56.8,28.2z"/>
								</g>
								<polygon class="st2" points="107.9,20.3 107.9,28.3 81.4,43.6 81.4,35.6 								"/>
								<g>
									<polygon class="st1" points="81.4,43.6 81.4,35.6 54.9,20.3 54.9,28.3 									"/>
									<path class="st1" d="M81.4,44.6c-0.2,0-0.3,0-0.5-0.1L54.4,29.1c-0.3-0.2-0.5-0.5-0.5-0.9v-7.9c0-0.4,0.2-0.7,0.5-0.9
										c0.3-0.2,0.7-0.2,1,0l26.5,15.3c0.3,0.2,0.5,0.5,0.5,0.9v7.9c0,0.4-0.2,0.7-0.5,0.9C81.7,44.5,81.6,44.6,81.4,44.6z
										 M55.9,27.7l24.5,14.2v-5.6L55.9,22V27.7z"/>
								</g>
								<g>
									<polygon class="st0" points="107.9,20.3 81.4,5 54.9,20.3 81.4,35.6 									"/>
									<path class="st3" d="M81.4,36.6c-0.2,0-0.3,0-0.5-0.1L54.4,21.2c-0.3-0.2-0.5-0.5-0.5-0.9s0.2-0.7,0.5-0.9L80.9,4.1
										c0.3-0.2,0.7-0.2,1,0l26.5,15.3c0.3,0.2,0.5,0.5,0.5,0.9s-0.2,0.7-0.5,0.9L81.9,36.5C81.7,36.6,81.6,36.6,81.4,36.6z
										 M56.9,20.3l24.5,14.2l24.5-14.2L81.4,6.2L56.9,20.3z"/>
								</g>
								<path class="st1" d="M81.4,29.9c-0.2,0-0.3,0-0.5-0.1L66,21.2c-0.3-0.2-0.5-0.5-0.5-0.9s0.2-0.7,0.5-0.9l14.8-8.6
									c0.3-0.2,0.7-0.2,1,0l14.8,8.6c0.3,0.2,0.5,0.5,0.5,0.9S97,21,96.7,21.2l-14.8,8.6C81.7,29.8,81.6,29.9,81.4,29.9z
									 M68.5,20.3l12.8,7.4l12.8-7.4l-12.8-7.4L68.5,20.3z"/>
								<path class="st3" d="M81.4,44.6c-0.6,0-1-0.4-1-1v-7.9c0-0.6,0.4-1,1-1s1,0.4,1,1v7.9C82.4,44.1,81.9,44.6,81.4,44.6z"/>
								<path class="st2" d="M81.4,44.6c-0.2,0-0.3,0-0.5-0.1L54.4,29.1c-0.3-0.2-0.5-0.5-0.5-0.9v-7.9c0-0.4,0.2-0.7,0.5-0.9
									L80.9,4.1c0.3-0.2,0.7-0.2,1,0l26.5,15.3c0.3,0.2,0.5,0.5,0.5,0.9v7.9c0,0.4-0.2,0.7-0.5,0.9L81.9,44.4
									C81.7,44.5,81.6,44.6,81.4,44.6z M55.9,27.7l25.5,14.7l25.5-14.7v-6.8L81.4,6.2L55.9,20.9V27.7z"/>
							</g>
						</g>
						<g>
							<g>
								<polygon class="st5" points="14.8,30.4 37.8,43.6 37.8,117.6 14.8,104.3 								"/>
								<path class="st4" d="M37.8,118.6c-0.2,0-0.3,0-0.5-0.1l-23-13.3c-0.3-0.2-0.5-0.5-0.5-0.9v-74c0-0.4,0.2-0.7,0.5-0.9
									c0.3-0.2,0.7-0.2,1,0l23,13.3c0.3,0.2,0.5,0.5,0.5,0.9v74c0,0.4-0.2,0.7-0.5,0.9C38.1,118.6,38,118.6,37.8,118.6z
									 M15.8,103.7l21,12.1V44.2l-21-12.1C15.8,32.1,15.8,103.7,15.8,103.7z"/>
							</g>
							<g>
								<g>
									<polygon class="st4" points="29,94.7 32.1,96.5 32.1,90.8 29,89 									"/>
									<polygon class="st4" points="20.5,89.8 23.6,91.6 23.6,85.9 20.5,84.1 									"/>
									<polygon class="st4" points="29,105.3 32.1,107.1 32.1,101.4 29,99.7 									"/>
									<polygon class="st4" points="20.5,100.5 23.6,102.2 23.6,96.6 20.5,94.8 									"/>
									<polygon class="st4" points="29,73.3 32.1,75.1 32.1,69.4 29,67.7 									"/>
									<polygon class="st4" points="20.5,68.5 23.6,70.2 23.6,64.6 20.5,62.8 									"/>
									<polygon class="st4" points="29,84 32.1,85.8 32.1,80.1 29,78.3 									"/>
									<polygon class="st4" points="20.5,79.1 23.6,80.9 23.6,75.2 20.5,73.4 									"/>
								</g>
								<g>
									<polygon class="st4" points="29,52 32.1,53.8 32.1,48.1 29,46.3 									"/>
									<polygon class="st4" points="20.5,47.1 23.6,48.9 23.6,43.2 20.5,41.4 									"/>
									<polygon class="st4" points="29,62.7 32.1,64.4 32.1,58.8 29,57 									"/>
									<polygon class="st4" points="20.5,57.8 23.6,59.6 23.6,53.9 20.5,52.1 									"/>
								</g>
							</g>
							<g>
								<polygon class="st4" points="37.8,117.6 60.8,104.3 60.8,30.4 37.8,43.6 								"/>
								<path class="st4" d="M37.8,118.6c-0.2,0-0.3,0-0.5-0.1c-0.3-0.2-0.5-0.5-0.5-0.9v-74c0-0.4,0.2-0.7,0.5-0.9l23-13.3
									c0.3-0.2,0.7-0.2,1,0s0.5,0.5,0.5,0.9v74c0,0.4-0.2,0.7-0.5,0.9l-23,13.3C38.1,118.6,38,118.6,37.8,118.6z M38.8,44.2v71.7
									l21-12.1V32.1L38.8,44.2z"/>
							</g>
							<g>
								<polygon class="st6" points="52,43.2 55.1,41.4 55.1,47.1 52,48.9 								"/>
								<polygon class="st6" points="43.5,48.1 46.6,46.3 46.6,52 43.5,53.8 								"/>
								<polygon class="st6" points="52,64.6 55.1,62.8 55.1,68.5 52,70.2 								"/>
								<polygon class="st6" points="43.5,69.4 46.6,67.7 46.6,73.3 43.5,75.1 								"/>
								<polygon class="st6" points="52,53.9 55.1,52.1 55.1,57.8 52,59.6 								"/>
								<polygon class="st6" points="43.5,58.8 46.6,57 46.6,62.7 43.5,64.4 								"/>
							</g>
							<g>
								<polygon class="st6" points="52,96.6 55.1,94.8 55.1,100.5 52,102.2 								"/>
								<polygon class="st6" points="43.5,101.4 46.6,99.7 46.6,105.3 43.5,107.1 								"/>
								<polygon class="st6" points="52,85.9 55.1,84.1 55.1,89.8 52,91.6 								"/>
								<polygon class="st6" points="43.5,90.8 46.6,89 46.6,94.7 43.5,96.5 								"/>
								<polygon class="st6" points="52,75.2 55.1,73.4 55.1,79.1 52,80.9 								"/>
								<polygon class="st6" points="43.5,80.1 46.6,78.3 46.6,84 43.5,85.8 								"/>
							</g>
							<g>
								<polygon class="st3" points="60.8,30.4 37.8,17.1 14.8,30.4 37.8,43.6 								"/>
								<path class="st4" d="M37.8,44.6c-0.2,0-0.3,0-0.5-0.1l-23-13.3c-0.3-0.2-0.5-0.5-0.5-0.9s0.2-0.7,0.5-0.9l23-13.3
									c0.3-0.2,0.7-0.2,1,0l23,13.3c0.3,0.2,0.5,0.5,0.5,0.9s-0.2,0.7-0.5,0.9l-23,13.3C38.1,44.6,38,44.6,37.8,44.6z M16.8,30.4
									l21,12.1l21-12.1l-21-12.1L16.8,30.4z"/>
							</g>
							<g>
								<polygon class="st5" points="50.2,30.4 37.8,23.2 25.4,30.4 37.8,37.5 								"/>
								<path class="st4" d="M37.8,38.5c-0.2,0-0.3,0-0.5-0.1l-12.4-7.2c-0.3-0.2-0.5-0.5-0.5-0.9s0.2-0.7,0.5-0.9l12.4-7.2
									c0.3-0.2,0.7-0.2,1,0l12.4,7.2c0.3,0.2,0.5,0.5,0.5,0.9S51,31,50.7,31.2l-12.4,7.2C38.1,38.5,38,38.5,37.8,38.5z M27.4,30.4
									l10.4,6l10.4-6l-10.4-6L27.4,30.4z"/>
							</g>
							<path class="st6" d="M37.8,118.6c-0.2,0-0.3,0-0.5-0.1l-23-13.3c-0.3-0.2-0.5-0.5-0.5-0.9v-74c0-0.4,0.2-0.7,0.5-0.9l23-13.3
								c0.3-0.2,0.7-0.2,1,0l23,13.3c0.3,0.2,0.5,0.5,0.5,0.9v74c0,0.4-0.2,0.7-0.5,0.9l-23,13.3C38.1,118.6,38,118.6,37.8,118.6z
								 M15.8,103.7l22,12.7l22-12.7V30.9l-22-12.7l-22,12.7C15.8,30.9,15.8,103.7,15.8,103.7z"/>
						</g>
					</g>
					<g>
						<path class="st4" d="M102.7,93.1c-0.1,0-0.3,0-0.4-0.1s-0.2-0.1-0.3-0.2c-0.2-0.2-0.3-0.4-0.3-0.7c0-0.3,0.1-0.5,0.3-0.7
							c0.1-0.1,0.2-0.2,0.3-0.2c0.4-0.2,0.8-0.1,1.1,0.2c0.2,0.2,0.3,0.4,0.3,0.7c0,0.3-0.1,0.5-0.3,0.7
							C103.3,93,103,93.1,102.7,93.1z"/>
						<path class="st4" d="M74.8,123c0-0.6,0.4-1,0.9-1.1l0,0c0.6,0,1,0.4,1.1,0.9l0,0c0,0.6-0.4,1-0.9,1.1l0,0l0,0l0,0h-0.1l0,0
							C75.3,123.9,74.9,123.5,74.8,123z M69.8,123.4c-0.5-0.2-0.9-0.7-0.7-1.2l0,0c0.1-0.5,0.7-0.9,1.2-0.7l0,0
							c0.5,0.1,0.9,0.7,0.7,1.2l0,0c-0.1,0.4-0.5,0.7-1,0.7l0,0C69.9,123.4,69.9,123.4,69.8,123.4z M80.6,121.9
							c-0.2-0.5-0.1-1.1,0.4-1.4l0,0c0.5-0.2,1.1-0.1,1.4,0.4l0,0c0.2,0.5,0.1,1.1-0.4,1.4l0,0c-0.1,0.1-0.3,0.1-0.5,0.1l0,0
							C81.1,122.5,80.7,122.3,80.6,121.9z M64.3,120.8c-0.5-0.3-0.6-0.9-0.4-1.4l0,0c0.3-0.5,0.9-0.6,1.4-0.4l0,0
							c0.5,0.3,0.6,0.9,0.4,1.4l0,0c-0.2,0.3-0.5,0.5-0.9,0.5l0,0C64.6,120.9,64.4,120.8,64.3,120.8z M85.7,119
							c-0.3-0.5-0.1-1.1,0.4-1.4l0,0c0.5-0.3,1.1-0.1,1.4,0.4l0,0c0.3,0.5,0.1,1.1-0.4,1.4l0,0c-0.2,0.1-0.3,0.1-0.5,0.1l0,0
							C86.2,119.5,85.9,119.4,85.7,119z M90.7,116.1c-0.3-0.5-0.1-1.1,0.4-1.4l0,0c0.5-0.3,1.1-0.1,1.4,0.4l0,0
							c0.3,0.5,0.1,1.1-0.4,1.4l0,0c-0.2,0.1-0.3,0.1-0.5,0.1l0,0C91.3,116.6,90.9,116.4,90.7,116.1z M95.8,113.2
							c-0.3-0.5-0.1-1.1,0.4-1.4l0,0c0.5-0.3,1.1-0.1,1.4,0.4l0,0c0.3,0.5,0.1,1.1-0.4,1.4l0,0c-0.2,0.1-0.3,0.1-0.5,0.1l0,0
							C96.3,113.7,96,113.5,95.8,113.2z M100.9,110.3c-0.3-0.5-0.1-1.1,0.4-1.4l0,0c0.5-0.3,1.1-0.1,1.4,0.4l0,0
							c0.3,0.5,0.1,1.1-0.4,1.4l0,0c-0.2,0.1-0.3,0.1-0.5,0.1l0,0C101.4,110.8,101.1,110.6,100.9,110.3z M105.9,107.3
							c-0.3-0.5-0.1-1.1,0.4-1.4l0,0c0.5-0.3,1.1-0.1,1.4,0.4l0,0c0.3,0.5,0.1,1.1-0.4,1.4l0,0c-0.2,0.1-0.3,0.1-0.5,0.1l0,0
							C106.5,107.8,106.1,107.7,105.9,107.3z M111,104.4c-0.4-0.4-0.4-1,0-1.4l0,0c0.4-0.4,1-0.4,1.4,0l0,0c0.4,0.4,0.4,1,0,1.4l0,0
							l0,0l0,0c-0.2,0.2-0.5,0.3-0.7,0.3l0,0C111.5,104.7,111.2,104.6,111,104.4z M111.7,99c-0.3-0.5-0.2-1.1,0.3-1.4l0,0
							c0.5-0.3,1.1-0.2,1.4,0.3l0,0c0.3,0.5,0.2,1.1-0.3,1.4l0,0c-0.2,0.1-0.4,0.2-0.5,0.2l0,0C112.2,99.4,111.9,99.3,111.7,99z
							 M107.3,95.9c-0.5-0.3-0.6-0.9-0.4-1.4l0,0c0.3-0.5,0.9-0.6,1.4-0.4l0,0c0.5,0.3,0.6,0.9,0.4,1.4l0,0
							c-0.2,0.3-0.5,0.5-0.9,0.5l0,0C107.6,96,107.5,96,107.3,95.9z"/>
						<path class="st4" d="M59.7,117.9c-0.1,0-0.3,0-0.4-0.1s-0.2-0.1-0.3-0.2s-0.2-0.2-0.2-0.3c-0.1-0.1-0.1-0.3-0.1-0.4
							s0-0.1,0-0.2s0-0.1,0.1-0.2c0-0.1,0-0.1,0.1-0.2c0-0.1,0.1-0.1,0.1-0.2c0.1-0.1,0.2-0.2,0.3-0.2c0.2-0.1,0.4-0.1,0.6-0.1
							c0.1,0,0.1,0,0.2,0.1c0.1,0,0.1,0.1,0.2,0.1l0.1,0.1c0,0,0.1,0.1,0.1,0.2s0.1,0.1,0.1,0.2s0.1,0.1,0.1,0.2s0,0.1,0,0.2
							s0,0.3-0.1,0.4c0,0.1-0.1,0.2-0.2,0.3c0,0.1-0.1,0.1-0.1,0.1c-0.1,0-0.1,0.1-0.2,0.1c-0.1,0-0.1,0-0.2,0.1
							C59.8,117.9,59.8,117.9,59.7,117.9z"/>
					</g>
					<path class="st4" d="M57.2,118.5c-1.1,0-2.1-0.2-3-0.7c-1-0.6-1.5-1.4-1.5-2.3s0.6-1.7,1.5-2.3c1.7-1,4.3-1,5.9,0l0,0
						c1,0.6,1.5,1.4,1.5,2.3s-0.6,1.7-1.5,2.3C59.4,118.3,58.3,118.5,57.2,118.5z M57.2,114.5c-0.7,0-1.4,0.2-2,0.5
						c-0.4,0.2-0.5,0.4-0.5,0.6c0,0.1,0.2,0.3,0.5,0.6c1,0.6,2.9,0.6,3.9,0c0.4-0.2,0.5-0.4,0.5-0.6c0-0.1-0.2-0.3-0.5-0.6
						C58.7,114.7,57.9,114.5,57.2,114.5z"/>
					<path class="st4" d="M99.6,94.9c-0.1,0-0.2,0-0.3-0.1c-0.3-0.1-0.5-0.3-0.6-0.6L97,89.6c-0.1-0.3-0.1-0.7,0.2-1
						c0.2-0.3,0.6-0.4,0.9-0.4l8,1c0.4,0.1,0.8,0.4,0.9,0.8s-0.1,0.9-0.5,1.1l-6.3,3.7C99.9,94.9,99.7,94.9,99.6,94.9z M99.4,90.5
						l0.7,2l2.7-1.6L99.4,90.5z"/>
				</g>
				<rect x="4" y="4" class="st7" width="120" height="120"/>
			</g>
		</g>
	</g>
	<g>
		<rect class="st7" width="128" height="128"/>
	</g>
</g>
</svg>
