<?xml version="1.0" encoding="utf-8"?>
<!-- Generator: Adobe Illustrator 24.1.0, SVG Export Plug-In . SVG Version: 6.00 Build 0)  -->
<svg version="1.1" id="Layer_1" xmlns="http://www.w3.org/2000/svg" xmlns:xlink="http://www.w3.org/1999/xlink" x="0px" y="0px"
	 viewBox="0 0 128 128" style="enable-background:new 0 0 128 128;" xml:space="preserve">
<style type="text/css">
	.st0{fill:none;}
	.st1{fill:#0E352C;}
	.st2{fill:#185849;}
	.st3{fill:#FFFFFF;}
	.st4{fill:#27ae60;}
	.st5{fill:#C4D7D3;}
	.st6{fill:#4D9987;}
	.st7{fill:#E9EBDF;}
</style>
<g id="Layer_1_1_">
</g>
<g>
	<g id="Layer_2_1_">
		<g id="New_Illustrations_1_">
			<g>
				<rect x="4" y="3.5" class="st0" width="120" height="120"/>
				<path class="st1" d="M20.4,72.8c0-0.6,0.5-1,1-1l0,0c0.5,0,1,0.4,1,1l0,0c0,0.6-0.5,1-1,1l0,0C20.9,73.8,20.4,73.4,20.4,72.8z
					 M20.4,66.8c0-0.6,0.5-1,1-1l0,0c0.5,0,1,0.4,1,1l0,0c0,0.6-0.5,1-1,1l0,0C20.9,67.8,20.4,67.4,20.4,66.8z M20.4,60.8
					c0-0.6,0.5-1,1-1l0,0c0.5,0,1,0.4,1,1l0,0c0,0.6-0.5,1-1,1l0,0C20.9,61.8,20.4,61.4,20.4,60.8z M20.4,54.8c0-0.6,0.5-1,1-1l0,0
					c0.5,0,1,0.4,1,1l0,0c0,0.6-0.5,1-1,1l0,0C20.9,55.8,20.4,55.4,20.4,54.8z M20.4,48.8c0-0.6,0.5-1,1-1l0,0c0.5,0,1,0.4,1,1l0,0
					c0,0.6-0.5,1-1,1l0,0C20.9,49.8,20.4,49.4,20.4,48.8z M20.4,42.8c0-0.6,0.5-1,1-1l0,0c0.5,0,1,0.4,1,1l0,0c0,0.6-0.5,1-1,1l0,0
					C20.9,43.8,20.4,43.4,20.4,42.8z"/>
				<g>
					<path class="st2" d="M106.6,44c-0.1,0-0.1,0-0.2,0s-0.1,0-0.2,0s-0.1-0.1-0.2-0.1l-0.1-0.1c-0.1-0.1-0.2-0.2-0.2-0.3
						c-0.1-0.1-0.1-0.2-0.1-0.4c0-0.1,0-0.1,0-0.2c0-0.1,0-0.1,0.1-0.2c0-0.1,0.1-0.1,0.1-0.2c0-0.1,0.1-0.1,0.1-0.2
						c0.4-0.4,1-0.4,1.4,0c0.1,0.1,0.2,0.2,0.2,0.3s0,0.1,0.1,0.2c0,0.1,0,0.1,0,0.2c0,0.3-0.1,0.5-0.3,0.7S106.8,44,106.6,44z"/>
					<path class="st2" d="M105.6,67.2c0-0.6,0.4-1,1-1l0,0c0.5,0,1,0.4,1,1l0,0c0,0.6-0.5,1-1,1l0,0C106,68.2,105.6,67.7,105.6,67.2
						z M105.6,61.1c0-0.6,0.4-1,1-1l0,0c0.5,0,1,0.4,1,1l0,0c0,0.6-0.5,1-1,1l0,0C106,62.1,105.6,61.7,105.6,61.1z M105.6,55.1
						c0-0.6,0.4-1,1-1l0,0c0.5,0,1,0.4,1,1l0,0c0,0.6-0.5,1-1,1l0,0C106,56.1,105.6,55.6,105.6,55.1z M105.6,49.1c0-0.6,0.4-1,1-1
						l0,0c0.5,0,1,0.4,1,1l0,0c0,0.6-0.5,1-1,1l0,0C106,50.1,105.6,49.6,105.6,49.1z"/>
					<path class="st2" d="M106.6,74.2c-0.3,0-0.5-0.1-0.7-0.3c-0.2-0.2-0.3-0.4-0.3-0.7c0-0.3,0.1-0.5,0.3-0.7
						c0.3-0.3,0.7-0.4,1.1-0.2c0.1,0.1,0.2,0.1,0.3,0.2c0.2,0.2,0.3,0.4,0.3,0.7s-0.1,0.5-0.3,0.7c-0.1,0.1-0.2,0.2-0.3,0.2
						C106.8,74.2,106.7,74.2,106.6,74.2z"/>
				</g>
				<g>
					<g>
						<polygon class="st3" points="106.6,86.1 64,61.5 21.4,86 21.4,98.8 21.5,98.9 21.4,98.9 64,123.5 64,123.5 64,123.5 64,123.5 
							106.6,99 106.6,99 						"/>
						<path class="st4" d="M64,124.5c-0.1,0-0.2,0-0.2,0c-0.1,0-0.2-0.1-0.3-0.1c0,0-0.1,0-0.1-0.1L20.9,99.7
							c-0.2-0.1-0.4-0.3-0.5-0.6c0-0.1-0.1-0.2-0.1-0.4V85.9c0-0.4,0.2-0.7,0.5-0.9l42.6-24.5c0.3-0.2,0.7-0.2,1,0l42.5,24.6
							c0.3,0.2,0.5,0.5,0.5,0.9v12.7c0.1,0.4-0.1,0.8-0.5,1l-42.6,24.5C64.3,124.5,64.1,124.5,64,124.5z M22.4,98.3l41.6,24
							l41.6-23.9V86.7L64,62.6l-41.6,24V98.3z"/>
					</g>
					<g>
						<polygon class="st4" points="106.6,99 64,123.5 64,110.6 106.6,86.1 						"/>
						<path class="st4" d="M64,124.5c-0.2,0-0.3,0-0.5-0.1c-0.3-0.2-0.5-0.5-0.5-0.9v-12.9c0-0.4,0.2-0.7,0.5-0.9l42.6-24.5
							c0.3-0.2,0.7-0.2,1,0s0.5,0.5,0.5,0.9V99c0,0.4-0.2,0.7-0.5,0.9l-42.6,24.5C64.3,124.5,64.1,124.5,64,124.5z M65,111.2v10.6
							l40.6-23.4V87.8L65,111.2z M106.6,99L106.6,99L106.6,99z"/>
					</g>
					<g>
						<polygon class="st5" points="21.4,98.8 64,123.4 64,110.6 21.4,86 						"/>
						<path class="st4" d="M64,124.4c-0.2,0-0.3,0-0.5-0.1L20.9,99.7c-0.3-0.2-0.5-0.5-0.5-0.9V86c0-0.4,0.2-0.7,0.5-0.9
							c0.3-0.2,0.7-0.2,1,0l42.5,24.6c0.3,0.2,0.5,0.5,0.5,0.9v12.8c0,0.4-0.2,0.7-0.5,0.9C64.3,124.4,64.1,124.4,64,124.4z
							 M22.4,98.2L63,121.7v-10.5L22.4,87.7V98.2z"/>
					</g>
					<path class="st2" d="M64,124.5c-0.1,0-0.2,0-0.2,0c-0.1,0-0.2-0.1-0.3-0.1c0,0-0.1,0-0.1-0.1L20.9,99.7
						c-0.2-0.1-0.4-0.3-0.5-0.6c0-0.1-0.1-0.2-0.1-0.4V85.9c0-0.4,0.2-0.7,0.5-0.9l42.6-24.5c0.3-0.2,0.7-0.2,1,0l42.5,24.6
						c0.3,0.2,0.5,0.5,0.5,0.9v12.7c0.1,0.4-0.1,0.8-0.5,1l-42.6,24.5C64.3,124.5,64.1,124.5,64,124.5z M22.4,98.3l41.6,24
						l41.6-23.9V86.7L64,62.6l-41.6,24V98.3z"/>
					<path class="st2" d="M42.7,112.2c-0.6,0-1-0.4-1-1v-4.5c0-0.6,0.4-1,1-1s1,0.4,1,1v4.5C43.7,111.7,43.3,112.2,42.7,112.2z"/>
				</g>
				<g>
					<polygon class="st3" points="106.6,73.2 106.6,73.2 85.3,60.9 64,48.6 21.4,73.1 21.4,85.9 21.5,86 21.5,86 21.4,86 64,110.6 
						64,110.6 64,110.6 64,110.6 64,110.6 106.6,86.1 106.6,86.1 					"/>
					<g>
						<path class="st6" d="M64,111.6c-0.3,0-0.5-0.1-0.7-0.3c-0.1-0.1-0.2-0.2-0.2-0.3c-0.1-0.1-0.1-0.2-0.1-0.4
							c0-0.3,0.1-0.5,0.3-0.7c0.4-0.4,1-0.4,1.4,0c0.2,0.2,0.3,0.4,0.3,0.7c0,0.1,0,0.3-0.1,0.4c0,0.1-0.1,0.2-0.2,0.3
							C64.5,111.5,64.2,111.6,64,111.6z"/>
						<path class="st6" d="M64,105.2c-0.5,0-1-0.4-1-1l0,0c0-0.6,0.5-1,1-1l0,0c0.5,0,1,0.4,1,1l0,0C65,104.7,64.5,105.2,64,105.2
							L64,105.2L64,105.2z"/>
						<path class="st6" d="M64,98.7c-0.3,0-0.5-0.1-0.7-0.3C63.1,98.2,63,98,63,97.7c0-0.1,0-0.3,0.1-0.4s0.1-0.2,0.2-0.3
							c0.2-0.2,0.6-0.3,0.9-0.3c0.1,0,0.1,0,0.2,0.1c0.1,0,0.1,0.1,0.2,0.1s0.1,0.1,0.1,0.1c0.1,0.1,0.2,0.2,0.2,0.3
							c0,0.1,0.1,0.2,0.1,0.4c0,0.3-0.1,0.5-0.3,0.7l-0.1,0.1c-0.1,0-0.1,0.1-0.2,0.1s-0.1,0-0.2,0.1C64.1,98.7,64,98.7,64,98.7z"/>
						<path class="st6" d="M68.4,95.2c-0.3-0.5-0.1-1.1,0.4-1.4l0,0c0.5-0.3,1.1-0.1,1.4,0.4l0,0c0.3,0.5,0.1,1.1-0.4,1.4l0,0
							c-0.2,0.1-0.3,0.1-0.5,0.1l0,0C69,95.7,68.6,95.5,68.4,95.2z M73.8,92.1c-0.3-0.5-0.1-1.1,0.4-1.4l0,0
							c0.5-0.3,1.1-0.1,1.4,0.4l0,0c0.3,0.5,0.1,1.1-0.4,1.4l0,0c-0.2,0.1-0.3,0.1-0.5,0.1l0,0C74.3,92.6,73.9,92.4,73.8,92.1z
							 M79.1,89c-0.3-0.5-0.1-1.1,0.4-1.4l0,0c0.5-0.3,1.1-0.1,1.4,0.4l0,0c0.3,0.5,0.1,1.1-0.4,1.4l0,0c-0.2,0.1-0.3,0.1-0.5,0.1
							l0,0C79.6,89.5,79.3,89.3,79.1,89z M84.4,86c-0.3-0.5-0.1-1.1,0.4-1.4l0,0c0.5-0.3,1.1-0.1,1.4,0.4l0,0
							c0.3,0.5,0.1,1.1-0.4,1.4l0,0c-0.1,0.1-0.3,0.1-0.5,0.1l0,0C84.9,86.5,84.6,86.3,84.4,86z M89.7,82.9
							c-0.3-0.5-0.1-1.1,0.4-1.4l0,0c0.5-0.3,1.1-0.1,1.4,0.4l0,0c0.3,0.5,0.1,1.1-0.4,1.4l0,0c-0.2,0.1-0.3,0.1-0.5,0.1l0,0
							C90.3,83.4,89.9,83.2,89.7,82.9z M95.1,79.8c-0.3-0.5-0.1-1.1,0.4-1.4l0,0c0.5-0.3,1.1-0.1,1.4,0.4l0,0
							c0.3,0.5,0.1,1.1-0.4,1.4l0,0c-0.2,0.1-0.3,0.1-0.5,0.1l0,0C95.6,80.3,95.2,80.2,95.1,79.8z M100.4,76.8
							c-0.3-0.5-0.1-1.1,0.4-1.4l0,0c0.5-0.3,1.1-0.1,1.4,0.4l0,0c0.3,0.5,0.1,1.1-0.4,1.4l0,0c-0.2,0.1-0.3,0.1-0.5,0.1l0,0
							C100.9,77.3,100.6,77.1,100.4,76.8z"/>
						<path class="st6" d="M106.6,74.2c-0.1,0-0.3,0-0.4-0.1c-0.1,0-0.1-0.1-0.2-0.1l-0.1-0.1c-0.2-0.2-0.3-0.4-0.3-0.7
							c0-0.1,0-0.3,0.1-0.4c0-0.1,0.1-0.2,0.2-0.3l0.1-0.1c0.1,0,0.1-0.1,0.2-0.1c0.2-0.1,0.5-0.1,0.8,0c0.1,0.1,0.2,0.1,0.3,0.2
							c0.1,0.1,0.2,0.2,0.2,0.3c0,0.1,0.1,0.2,0.1,0.4c0,0.3-0.1,0.5-0.3,0.7c-0.1,0.1-0.2,0.2-0.3,0.2
							C106.8,74.2,106.7,74.2,106.6,74.2z"/>
					</g>
					<g>
						<path class="st6" d="M21.5,87c-0.3,0-0.5-0.1-0.7-0.3c0-0.1-0.1-0.1-0.1-0.2s-0.1-0.1-0.1-0.2s-0.1-0.1-0.1-0.2s0-0.1,0-0.2
							s0-0.1,0-0.2s0-0.1,0.1-0.2c0-0.1,0.1-0.1,0.1-0.2s0.1-0.1,0.1-0.2c0.4-0.4,1-0.4,1.4,0c0,0.1,0.1,0.1,0.1,0.2
							s0.1,0.1,0.1,0.2s0,0.1,0,0.2s0,0.1,0,0.2c0,0.3-0.1,0.5-0.3,0.7C22,86.9,21.8,87,21.5,87z"/>
						<path class="st6" d="M27.1,83.7c-0.3,0-0.5-0.1-0.7-0.3c-0.2-0.2-0.3-0.4-0.3-0.7s0.1-0.5,0.3-0.7l0.1-0.1
							c0.1,0,0.1-0.1,0.2-0.1s0.1-0.1,0.2-0.1c0.3-0.1,0.7,0,0.9,0.3c0.2,0.2,0.3,0.4,0.3,0.7c0,0.3-0.1,0.5-0.3,0.7
							C27.6,83.6,27.4,83.7,27.1,83.7z"/>
					</g>
					<g>
						<path class="st6" d="M37.6,77.6c-0.3,0-0.5-0.1-0.7-0.3c-0.2-0.2-0.3-0.4-0.3-0.7s0.1-0.5,0.3-0.7c0.3-0.3,0.7-0.4,1.1-0.2
							c0.1,0,0.1,0,0.2,0.1l0.1,0.1c0.1,0.1,0.2,0.2,0.2,0.3c0.1,0.1,0.1,0.2,0.1,0.4c0,0.1,0,0.3-0.1,0.4c0,0.1-0.1,0.2-0.2,0.3
							l-0.1,0.1c-0.1,0-0.1,0.1-0.2,0.1C37.9,77.6,37.8,77.6,37.6,77.6z"/>
						<path class="st6" d="M42,74.1c-0.3-0.5-0.1-1.1,0.4-1.4l0,0c0.5-0.3,1.1-0.1,1.4,0.4l0,0c0.3,0.5,0.1,1.1-0.4,1.4l0,0
							c-0.2,0.1-0.3,0.1-0.5,0.1l0,0C42.6,74.6,42.2,74.4,42,74.1z M47.3,71c-0.3-0.5-0.1-1.1,0.4-1.4l0,0c0.5-0.3,1.1-0.1,1.4,0.4
							l0,0c0.3,0.5,0.1,1.1-0.4,1.4l0,0c-0.2,0.1-0.3,0.1-0.5,0.1l0,0C47.8,71.5,47.5,71.4,47.3,71z M52.6,68
							c-0.3-0.5-0.1-1.1,0.4-1.4l0,0c0.5-0.3,1.1-0.1,1.4,0.4l0,0c0.3,0.5,0.1,1.1-0.4,1.4l0,0c-0.1,0.1-0.3,0.1-0.5,0.1l0,0
							C53.1,68.5,52.8,68.3,52.6,68z"/>
						<path class="st6" d="M58.7,65.4c-0.3,0-0.5-0.1-0.7-0.3c-0.2-0.2-0.3-0.4-0.3-0.7c0-0.1,0-0.3,0.1-0.4c0-0.1,0.1-0.2,0.2-0.3
							c0.4-0.4,1-0.4,1.4,0c0.1,0.1,0.2,0.2,0.2,0.3s0.1,0.2,0.1,0.4c0,0.3-0.1,0.5-0.3,0.7C59.2,65.3,59,65.4,58.7,65.4z"/>
					</g>
					<g>
						<path class="st6" d="M106.6,87.1c-0.1,0-0.3,0-0.4-0.1c-0.1,0-0.2-0.1-0.3-0.2c0-0.1-0.1-0.1-0.1-0.2s-0.1-0.1-0.1-0.2
							s0-0.1,0-0.2s0-0.1,0-0.2s0-0.3,0.1-0.4c0-0.1,0.1-0.2,0.2-0.3c0.4-0.4,1-0.4,1.4,0c0.2,0.2,0.3,0.4,0.3,0.7
							c0,0.1,0,0.1,0,0.2s0,0.1-0.1,0.2c0,0.1,0,0.1-0.1,0.2c0,0.1-0.1,0.1-0.1,0.2c-0.1,0.1-0.2,0.2-0.3,0.2
							C106.8,87.1,106.7,87.1,106.6,87.1z"/>
						<path class="st6" d="M101,83.9c-0.1,0-0.3,0-0.4-0.1s-0.2-0.1-0.3-0.2c-0.2-0.2-0.3-0.4-0.3-0.7s0.1-0.5,0.3-0.7
							c0.1-0.1,0.2-0.2,0.3-0.2c0.2-0.1,0.5-0.1,0.8,0c0.1,0,0.2,0.1,0.3,0.2c0.2,0.2,0.3,0.4,0.3,0.7s-0.1,0.5-0.3,0.7
							c-0.1,0.1-0.2,0.2-0.3,0.2C101.2,83.8,101.1,83.9,101,83.9z"/>
					</g>
					<g>
						<path class="st6" d="M90.4,77.8c-0.1,0-0.1,0-0.2,0s-0.1,0-0.2,0s-0.1-0.1-0.2-0.1s-0.1-0.1-0.2-0.1c-0.1-0.1-0.2-0.2-0.2-0.3
							c-0.1-0.1-0.1-0.2-0.1-0.4c0-0.1,0-0.3,0.1-0.4c0-0.1,0.1-0.2,0.2-0.3c0-0.1,0.1-0.1,0.2-0.1c0,0,0.1-0.1,0.2-0.1
							s0.1-0.1,0.2-0.1s0.3,0,0.4,0s0.1,0,0.2,0.1c0.1,0,0.1,0.1,0.2,0.1s0.1,0.1,0.2,0.1c0.2,0.2,0.3,0.4,0.3,0.7
							c0,0.1,0,0.3-0.1,0.4c0,0.1-0.1,0.2-0.2,0.3c0,0-0.1,0.1-0.2,0.1c0,0-0.1,0.1-0.2,0.1s-0.1,0-0.2,0
							C90.6,77.8,90.5,77.8,90.4,77.8z"/>
						<path class="st6" d="M84.7,74.6c-0.5-0.3-0.6-0.9-0.4-1.4l0,0c0.3-0.5,0.9-0.6,1.4-0.4l0,0c0.5,0.3,0.7,0.9,0.4,1.4l0,0
							c-0.2,0.3-0.5,0.5-0.9,0.5l0,0C85,74.7,84.8,74.7,84.7,74.6z M79.4,71.5c-0.5-0.3-0.6-0.9-0.4-1.4l0,0
							c0.3-0.5,0.9-0.6,1.4-0.4l0,0c0.5,0.3,0.6,0.9,0.4,1.4l0,0c-0.2,0.3-0.5,0.5-0.9,0.5l0,0C79.7,71.7,79.6,71.6,79.4,71.5z
							 M74.1,68.5c-0.5-0.3-0.6-0.9-0.4-1.4l0,0c0.3-0.5,0.9-0.6,1.4-0.4l0,0c0.5,0.3,0.6,0.9,0.4,1.4l0,0c-0.2,0.3-0.5,0.5-0.9,0.5
							l0,0C74.5,68.6,74.3,68.6,74.1,68.5z"/>
						<path class="st6" d="M69.4,65.6c-0.3,0-0.5-0.1-0.7-0.3l-0.1-0.1c0-0.1-0.1-0.1-0.1-0.2s0-0.1,0-0.2s0-0.1,0-0.2
							s0-0.3,0.1-0.4s0.1-0.2,0.2-0.3c0.4-0.4,1-0.4,1.4,0c0.1,0.1,0.2,0.2,0.2,0.3s0.1,0.3,0.1,0.4s0,0.1,0,0.2s0,0.1-0.1,0.2
							c0,0.1,0,0.1-0.1,0.2c0,0.1-0.1,0.1-0.1,0.1C69.9,65.4,69.6,65.6,69.4,65.6z"/>
					</g>
					<g>
						<path class="st6" d="M64,98.7c-0.3,0-0.5-0.1-0.7-0.3C63.1,98.2,63,98,63,97.7c0-0.1,0-0.3,0.1-0.4s0.1-0.2,0.2-0.3
							c0.2-0.2,0.6-0.3,0.9-0.3c0.1,0,0.1,0,0.2,0.1c0.1,0,0.1,0.1,0.2,0.1s0.1,0.1,0.1,0.1c0.1,0.1,0.2,0.2,0.2,0.3
							c0,0.1,0.1,0.2,0.1,0.4c0,0.3-0.1,0.5-0.3,0.7l-0.1,0.1c-0.1,0-0.1,0.1-0.2,0.1s-0.1,0-0.2,0.1C64.1,98.7,64,98.7,64,98.7z"/>
						<path class="st6" d="M58.2,95.5c-0.5-0.3-0.6-0.9-0.4-1.4l0,0c0.3-0.5,0.9-0.6,1.4-0.4l0,0c0.5,0.3,0.6,0.9,0.4,1.4l0,0
							c-0.2,0.3-0.5,0.5-0.9,0.5l0,0C58.5,95.6,58.3,95.6,58.2,95.5z M52.8,92.4c-0.5-0.3-0.6-0.9-0.4-1.4l0,0
							c0.3-0.5,0.9-0.6,1.4-0.4l0,0c0.5,0.3,0.6,0.9,0.4,1.4l0,0c-0.2,0.3-0.5,0.5-0.9,0.5l0,0C53.2,92.6,53,92.5,52.8,92.4z
							 M47.5,89.3c-0.5-0.3-0.6-0.9-0.4-1.4l0,0c0.3-0.5,0.9-0.6,1.4-0.4l0,0c0.5,0.3,0.6,0.9,0.4,1.4l0,0c-0.2,0.3-0.5,0.5-0.9,0.5
							l0,0C47.9,89.5,47.7,89.4,47.5,89.3z M42.2,86.3c-0.5-0.3-0.6-0.9-0.4-1.4l0,0c0.3-0.5,0.9-0.6,1.4-0.4l0,0
							c0.5,0.3,0.6,0.9,0.4,1.4l0,0c-0.2,0.3-0.5,0.5-0.9,0.5l0,0C42.5,86.4,42.4,86.4,42.2,86.3z M36.9,83.2
							c-0.5-0.3-0.6-0.9-0.4-1.4l0,0c0.3-0.5,0.9-0.6,1.4-0.4l0,0c0.5,0.3,0.6,0.9,0.4,1.4l0,0c-0.2,0.3-0.5,0.5-0.9,0.5l0,0
							C37.2,83.3,37,83.3,36.9,83.2z M31.6,80.1c-0.5-0.3-0.6-0.9-0.4-1.4l0,0c0.3-0.5,0.9-0.6,1.4-0.4l0,0c0.5,0.3,0.6,0.9,0.4,1.4
							l0,0c-0.2,0.3-0.5,0.5-0.9,0.5l0,0C31.9,80.2,31.7,80.2,31.6,80.1z M26.3,77c-0.5-0.3-0.6-0.9-0.4-1.4l0,0
							c0.3-0.5,0.9-0.6,1.4-0.4l0,0c0.5,0.3,0.6,0.9,0.4,1.4l0,0c-0.2,0.3-0.5,0.5-0.9,0.5l0,0C26.6,77.2,26.4,77.1,26.3,77z"/>
						<path class="st6" d="M21.4,74.1c-0.3,0-0.5-0.1-0.7-0.3c0-0.1-0.1-0.1-0.1-0.1c0-0.1-0.1-0.1-0.1-0.2s-0.1-0.1-0.1-0.2
							s0-0.1,0-0.2c0-0.3,0.1-0.5,0.3-0.7c0.4-0.4,1-0.4,1.4,0c0,0.1,0.1,0.1,0.1,0.2s0.1,0.1,0.1,0.2s0,0.1,0.1,0.2
							c0,0.1,0,0.1,0,0.2s0,0.1,0,0.2s0,0.1-0.1,0.2c0,0.1,0,0.1-0.1,0.2c0,0.1-0.1,0.1-0.1,0.1C22,74,21.7,74.1,21.4,74.1z"/>
					</g>
					<path class="st1" d="M64,111.6c-0.1,0-0.2,0-0.3,0s-0.2-0.1-0.3-0.1c0,0,0,0-0.1,0L20.9,86.8c-0.2-0.1-0.4-0.3-0.5-0.6
						c0-0.1-0.1-0.2-0.1-0.4V73c0-0.4,0.2-0.7,0.5-0.9l42.6-24.5c0.3-0.2,0.7-0.2,1,0l42.5,24.6c0.3,0.2,0.5,0.5,0.5,0.9v12.7
						c0.1,0.4-0.1,0.8-0.5,1l-42.6,24.5C64.3,111.6,64.1,111.6,64,111.6z M22.4,85.4L64,109.5l41.6-23.9V73.9L64,49.7l-41.6,24V85.4
						z"/>
				</g>
				<g>
					<polygon class="st3" points="106.6,30.1 64,5.5 21.4,30 21.4,42.8 21.5,42.9 21.4,42.9 64,67.5 64,67.5 64,67.5 64,67.5 
						106.6,43 106.6,43 					"/>
					<polygon class="st6" points="106.6,43 64,67.5 64,54.6 106.6,30.1 					"/>
					<polygon class="st7" points="21.4,42.8 64,67.5 64,54.6 21.4,30 					"/>
					<path class="st1" d="M42.7,56.2c-0.6,0-1-0.4-1-1v-4.5c0-0.6,0.4-1,1-1s1,0.4,1,1v4.5C43.7,55.8,43.3,56.2,42.7,56.2z"/>
					<path class="st6" d="M64,55.6c-0.2,0-0.3,0-0.5-0.1L20.9,30.9c-0.3-0.2-0.5-0.5-0.5-0.9s0.2-0.7,0.5-0.9L63.5,4.6
						c0.3-0.2,0.7-0.2,1,0L107,29.2c0.3,0.2,0.5,0.5,0.5,0.9s-0.2,0.7-0.5,0.9L64.5,55.5C64.3,55.6,64.1,55.6,64,55.6z M23.4,30
						L64,53.5l40.6-23.4L64,6.7L23.4,30z"/>
					<path class="st1" d="M64,68.5c-0.1,0-0.2,0-0.2,0c-0.1,0-0.2-0.1-0.3-0.1c0,0-0.1,0-0.1-0.1L20.9,43.8
						c-0.2-0.1-0.4-0.3-0.5-0.6c0-0.1-0.1-0.2-0.1-0.4V30c0-0.4,0.2-0.7,0.5-0.9L63.5,4.6c0.3-0.2,0.7-0.2,1,0L107,29.2
						c0.3,0.2,0.5,0.5,0.5,0.9v12.7c0.1,0.4-0.1,0.8-0.5,1L64.5,68.4C64.3,68.5,64.1,68.5,64,68.5z M22.4,42.3L64,66.4l41.6-23.9
						V30.8L64,6.7L22.4,30.6V42.3z"/>
				</g>
				<path class="st6" d="M73.3,27.3c-0.5,0-0.9-0.3-1-0.8l-0.7-3.3c-0.1-0.3,0-0.6,0.2-0.9c0.2-0.2,0.5-0.4,0.8-0.3l5.6,0.4
					c0.6,0,1,0.5,0.9,1.1c0,0.6-0.5,1-1.1,0.9l-4.3-0.3l0.4,2C74.2,26.6,73.9,27.2,73.3,27.3C73.5,27.3,73.4,27.3,73.3,27.3z"/>
				<path class="st6" d="M64,39.6c-4,0-7.9-0.9-11-2.6c-3.1-1.8-4.8-4.2-4.8-6.9s1.7-5.1,4.8-6.9c2.9-1.7,6.8-2.6,11-2.6
					c0.6,0,1,0.4,1,1s-0.4,1-1,1c-3.8,0-7.3,0.8-10,2.4c-2.5,1.4-3.8,3.3-3.8,5.2s1.4,3.7,3.8,5.2c5.5,3.2,14.4,3.2,19.9,0
					c2.5-1.4,3.8-3.3,3.8-5.2c0-1.9-1.4-3.7-3.8-5.2c-0.5-0.3-0.6-0.9-0.4-1.4c0.3-0.5,0.9-0.6,1.4-0.4c3.1,1.8,4.8,4.2,4.8,6.9
					S78,35.2,74.9,37C71.9,38.7,67.9,39.6,64,39.6z"/>
			</g>
		</g>
	</g>
	<g>
		<rect class="st0" width="128" height="128"/>
	</g>
</g>
</svg>
