<?xml version="1.0" encoding="utf-8"?>
<!-- Generator: Adobe Illustrator 24.1.0, SVG Export Plug-In . SVG Version: 6.00 Build 0)  -->
<svg version="1.1" id="Layer_1" xmlns="http://www.w3.org/2000/svg" xmlns:xlink="http://www.w3.org/1999/xlink" x="0px" y="0px"
	 viewBox="0 0 128 128" style="enable-background:new 0 0 128 128;" xml:space="preserve">
<style type="text/css">
	.st0{fill:#27ae60;}
	.st1{fill:#C4D7D3;}
	.st2{fill:#FFFFFF;}
	.st3{fill:#185849;}
	.st4{fill:#E9EBDF;}
	.st5{fill:#4D9987;}
	.st6{fill:#0E352C;}
	.st7{fill:none;}
</style>
<g id="Layer_1_1_">
</g>
<g>
	<g id="Layer_2_1_">
		<g id="Actions_1_">
			<g>
				<g>
					<g>
						<g>
							<g>
								<path class="st0" d="M26.8,80.9v16.7c0,5.5,3.6,11,10.9,15.2c14.5,8.4,38,8.4,52.6,0c7.3-4.2,10.9-9.7,10.9-15.2l0,0V80.9
									H26.8z"/>
								<path class="st0" d="M64,120c-9.7,0-19.4-2.1-26.8-6.4c-7.3-4.2-11.4-9.9-11.4-16V80.9c0-0.6,0.4-1,1-1h74.3
									c0.6,0,1,0.4,1,1v16.7c0,6.1-4,11.8-11.4,16C83.4,117.8,73.7,120,64,120z M27.8,81.9v15.7c0,5.4,3.7,10.4,10.4,14.3
									c14.2,8.2,37.3,8.2,51.5,0c6.7-3.9,10.4-8.9,10.4-14.3V81.9H27.8z"/>
							</g>
							<path class="st1" d="M26.8,80.9v16.7c0,5.5,3.6,11,10.9,15.2C45,116.9,54.5,119,64,119V80.9H26.8z"/>
							<g>
								<ellipse class="st1" cx="64" cy="80.9" rx="37.2" ry="21.5"/>
								<path class="st2" d="M64,103.3c-9.7,0-19.4-2.1-26.8-6.4c-7.3-4.2-11.4-9.9-11.4-16s4-11.8,11.4-16
									c14.8-8.5,38.8-8.5,53.5,0c7.3,4.2,11.4,9.9,11.4,16s-4,11.8-11.4,16C83.4,101.2,73.7,103.3,64,103.3z M38.2,95.2
									c14.2,8.2,37.3,8.2,51.5,0c6.7-3.9,10.4-8.9,10.4-14.3s-3.7-10.4-10.4-14.3c-14.2-8.2-37.3-8.2-51.5,0
									c-6.7,3.9-10.4,8.9-10.4,14.3C27.8,86.2,31.5,91.3,38.2,95.2L38.2,95.2z"/>
							</g>
							<ellipse class="st0" cx="64" cy="80.9" rx="25.9" ry="13.8"/>
							<path class="st3" d="M64,120c-9.7,0-19.4-2.1-26.8-6.4c-7.3-4.2-11.4-9.9-11.4-16V80.9c0-6.1,4-11.8,11.4-16
								c14.8-8.5,38.8-8.5,53.5,0c7.3,4.2,11.4,9.9,11.4,16v16.7c0,6.1-4,11.8-11.4,16C83.4,117.8,73.7,120,64,120z M64,60.4
								c-9.3,0-18.7,2.1-25.8,6.2c-6.7,3.9-10.4,8.9-10.4,14.3v16.7c0,5.4,3.7,10.4,10.4,14.3c14.2,8.2,37.3,8.2,51.5,0
								c6.7-3.9,10.4-8.9,10.4-14.3V80.9c0-5.4-3.7-10.4-10.4-14.3C82.7,62.4,73.3,60.4,64,60.4z"/>
							<g>
								<path class="st3" d="M76.2,110.4c-0.1,0-0.3,0-0.4-0.1s-0.2-0.1-0.3-0.2c-0.2-0.2-0.3-0.5-0.3-0.7c0-0.1,0-0.3,0.1-0.4
									c0-0.1,0.1-0.2,0.2-0.3c0.1-0.1,0.2-0.2,0.3-0.2c0.2-0.1,0.5-0.1,0.8,0c0.1,0,0.2,0.1,0.3,0.2c0.1,0.1,0.2,0.2,0.2,0.3
									c0,0.1,0.1,0.2,0.1,0.4c0,0.3-0.1,0.5-0.3,0.7c-0.1,0.1-0.2,0.2-0.3,0.2C76.5,110.4,76.4,110.4,76.2,110.4z"/>
								<path class="st3" d="M80.1,108.5c-0.2-0.5,0.1-1.1,0.7-1.2l0,0c0.5-0.2,1.1,0.1,1.2,0.7l0,0c0.2,0.5-0.1,1.1-0.7,1.2l0,0
									c-0.1,0-0.2,0-0.3,0l0,0C80.7,109.2,80.3,108.9,80.1,108.5z M84.9,106.9c-0.2-0.5,0-1.1,0.5-1.3l0,0c0.5-0.2,1.1,0,1.3,0.5
									l0,0c0.2,0.5,0,1.1-0.5,1.3l0,0c-0.1,0-0.3,0.1-0.4,0.1l0,0C85.4,107.5,85,107.3,84.9,106.9z"/>
								<path class="st3" d="M90.3,105.3c-0.1,0-0.3,0-0.4-0.1s-0.2-0.1-0.3-0.2c-0.1-0.1-0.2-0.2-0.2-0.3c0-0.1-0.1-0.2-0.1-0.4
									c0-0.1,0-0.1,0-0.2s0-0.1,0.1-0.2c0-0.1,0.1-0.1,0.1-0.2s0.1-0.1,0.1-0.2c0.4-0.4,1-0.4,1.4,0c0,0.1,0.1,0.1,0.1,0.2
									s0.1,0.1,0.1,0.2s0.1,0.1,0.1,0.2s0,0.1,0,0.2c0,0.3-0.1,0.5-0.3,0.7c-0.1,0.1-0.2,0.2-0.3,0.2
									C90.5,105.3,90.4,105.3,90.3,105.3z"/>
							</g>
						</g>
					</g>
					<g>
						<g>
							<g>
								<polygon class="st4" points="60,90.7 50.3,85.1 50.3,60.9 59.9,55.4 								"/>
								<path class="st5" d="M60,91.7c-0.2,0-0.3,0-0.5-0.1l-9.7-5.7c-0.3-0.2-0.5-0.5-0.5-0.9V60.9c0-0.4,0.2-0.7,0.5-0.9l9.6-5.6
									c0.3-0.2,0.7-0.2,1,0s0.5,0.5,0.5,0.9L61,90.7c0,0.4-0.2,0.7-0.5,0.9C60.3,91.7,60.2,91.7,60,91.7z M51.2,84.5L59,89
									l-0.1-31.9l-7.7,4.4V84.5z"/>
							</g>
						</g>
						<g>
							<g>
								<polygon class="st4" points="45.7,63.6 36,57.9 59,9 68.8,14.7 								"/>
								<path class="st5" d="M45.7,64.6c-0.2,0-0.3,0-0.5-0.1l-9.7-5.7c-0.4-0.3-0.6-0.8-0.4-1.3l23-48.9c0.1-0.3,0.3-0.4,0.6-0.5
									C59,8,59.3,8,59.5,8.1l9.7,5.7c0.4,0.3,0.6,0.8,0.4,1.3L46.6,64c-0.1,0.3-0.3,0.4-0.6,0.5C45.9,64.6,45.8,64.6,45.7,64.6z
									 M37.3,57.5l8,4.7l22.2-47.1l-8-4.7L37.3,57.5z"/>
							</g>
						</g>
						<g>
							<g>
								<polygon class="st5" points="68.8,14.7 92,36.8 77.9,45 78,80.4 60,90.7 59.9,55.4 45.7,63.6 								"/>
								<path class="st2" d="M60,91.7c-0.2,0-0.3,0-0.5-0.1c-0.3-0.2-0.5-0.5-0.5-0.9l-0.1-33.6l-12.7,7.3c-0.4,0.2-0.9,0.2-1.2-0.1
									s-0.4-0.8-0.2-1.2l23.1-48.9c0.1-0.3,0.4-0.5,0.7-0.6c0.3-0.1,0.6,0,0.9,0.3L92.8,36c0.2,0.2,0.3,0.5,0.3,0.8
									s-0.2,0.6-0.5,0.7l-13.7,7.9l0.1,35c0,0.4-0.2,0.7-0.5,0.9l-18,10.4C60.3,91.7,60.2,91.7,60,91.7z M59.9,54.4
									c0.2,0,0.3,0,0.5,0.1c0.3,0.2,0.5,0.5,0.5,0.9L61,89l16-9.2L76.9,45c0-0.4,0.2-0.7,0.5-0.9l13-7.5L69.1,16.4L48,61.1
									l11.4-6.6C59.6,54.4,59.7,54.4,59.9,54.4z"/>
							</g>
						</g>
						<path class="st6" d="M60,91.7c-0.2,0-0.3,0-0.5-0.1l-9.7-5.7c-0.3-0.2-0.5-0.5-0.5-0.9V62.7l-3,1.8c-0.3,0.2-0.7,0.2-1,0
							l-9.7-5.7c-0.4-0.3-0.6-0.8-0.4-1.3L58.1,8.6c0.1-0.3,0.3-0.4,0.6-0.5C59,8,59.3,8,59.5,8.1l9.7,5.7c0.1,0,0.1,0.1,0.2,0.1
							L92.7,36c0.2,0.2,0.3,0.5,0.3,0.8s-0.2,0.6-0.5,0.7l-13.7,7.9l0.2,35c0,0.4-0.2,0.7-0.5,0.9l-18,10.4
							C60.3,91.7,60.2,91.7,60,91.7z M51.2,84.5l8.8,5.1l17-9.8L76.9,45c0-0.4,0.2-0.7,0.5-0.9l13-7.5L68.2,15.5l-8.7-5.1L37.3,57.5
							l8.5,4.9l4-2.3c0.3-0.2,0.7-0.2,1,0s0.5,0.5,0.5,0.9L51.2,84.5L51.2,84.5z"/>
					</g>
				</g>
				<rect x="4" y="4" class="st7" width="120" height="120"/>
				<rect x="4" y="4" class="st7" width="120" height="120"/>
			</g>
		</g>
	</g>
	<g>
		<rect class="st7" width="128" height="128"/>
	</g>
</g>
</svg>
