<?xml version="1.0" encoding="utf-8"?>
<!-- Generator: Adobe Illustrator 24.1.0, SVG Export Plug-In . SVG Version: 6.00 Build 0)  -->
<svg version="1.1" id="Layer_1" xmlns="http://www.w3.org/2000/svg" xmlns:xlink="http://www.w3.org/1999/xlink" x="0px" y="0px"
	 viewBox="0 0 128 128" style="enable-background:new 0 0 128 128;" xml:space="preserve">
<style type="text/css">
	.st0{fill:#FFFFFF;}
	.st1{fill:#4D9987;}
	.st2{fill:#E9EBDF;}
	.st3{fill:#0E352C;}
	.st4{fill:#27ae60;}
	.st5{fill:none;}
</style>
<g id="Layer_1_1_">
</g>
<g>
	<g id="Layer_2_1_">
		<g id="Objects_1_">
			<g>
				<g>
					<g>
						<g>
							<g>
								<g>
									<path class="st0" d="M104.4,9.9L96,5.1l0,0c-0.2-0.1-0.5-0.1-0.8,0L24.4,46c-0.7,0.4-1.2,1.4-1.2,2.3V117
										c0,0.5,0.2,0.8,0.4,1l0,0l8.4,4.9l7.1-13.4l56.1-37.9c0.7-0.4,1.2-1.4,1.2-2.3V20.6L104.4,9.9z"/>
									<path class="st1" d="M32,123.9c-0.2,0-0.3,0-0.5-0.1l-8.4-4.9c-0.1,0-0.1-0.1-0.2-0.1c-0.5-0.4-0.8-1-0.8-1.7V48.4
										c0-1.3,0.7-2.6,1.7-3.2L94.7,4.3c0.5-0.3,1.1-0.4,1.6-0.1c0.1,0,0.1,0,0.2,0.1l8.4,4.9c0.2,0.1,0.4,0.4,0.5,0.7
										s0,0.6-0.2,0.8l-7.8,10.4v48.3c0,1.3-0.7,2.6-1.7,3.2l-55.9,37.7l-7,13.2c-0.1,0.2-0.3,0.4-0.6,0.5
										C32.2,123.9,32.1,123.9,32,123.9z M24.2,117.3l7.4,4.3l6.6-12.5c0.1-0.1,0.2-0.3,0.3-0.4l56.1-37.9
										c0.4-0.2,0.8-0.9,0.8-1.5V20.6c0-0.2,0.1-0.4,0.2-0.6l7.3-9.8L95.7,6L24.9,46.9c-0.3,0.2-0.7,0.9-0.7,1.5v68.7
										C24.2,117.2,24.2,117.2,24.2,117.3C24.2,117.2,24.2,117.3,24.2,117.3z"/>
								</g>
								<path class="st2" d="M31.6,122.7V41.9L24.4,46c-0.7,0.4-1.2,1.4-1.2,2.3V117c0,0.5,0.2,0.8,0.4,1l0,0L31.6,122.7z"/>
								<path class="st0" d="M73.1,77.2l23.3-32.6v-24l8-10.7L96,5.1l0,0c-0.2-0.1-0.5-0.1-0.8,0L24.4,46c-0.7,0.4-1.2,1.4-1.2,2.3
									l0,0L73.1,77.2z"/>
								<g>
									<path class="st0" d="M32.8,50.9L103.6,10c0.7-0.4,1.2,0,1.2,0.9v68.7c0,0.9-0.5,1.9-1.2,2.3l-70.8,40.9
										c-0.7,0.4-1.2,0-1.2-0.9V53.2C31.6,52.3,32.1,51.3,32.8,50.9z"/>
									<path class="st1" d="M32.3,124c-0.3,0-0.6-0.1-0.8-0.2c-0.6-0.3-0.9-1-0.9-1.9V53.2c0-1.3,0.7-2.6,1.7-3.2l70.8-40.9
										c0.6-0.4,1.3-0.4,1.8-0.1c0.6,0.3,0.9,1,0.9,1.9v68.7c0,1.3-0.7,2.6-1.7,3.2l-70.8,40.9C33,123.9,32.6,124,32.3,124z
										 M32.6,122.2L32.6,122.2L32.6,122.2z M103.8,11L33.3,51.8c-0.3,0.2-0.7,0.9-0.7,1.5v68.6l70.5-40.7
										c0.3-0.2,0.7-0.9,0.7-1.5C103.8,79.7,103.8,11,103.8,11z M32.8,50.9L32.8,50.9L32.8,50.9z"/>
								</g>
								<path class="st3" d="M32.3,124c-0.2,0-0.4,0-0.6-0.1c-0.1,0-0.1,0-0.2-0.1l-8.4-4.9c-0.1,0-0.1-0.1-0.2-0.1
									c-0.5-0.4-0.8-1-0.8-1.7V48.4c0-1.3,0.7-2.6,1.7-3.2L94.7,4.3c0.5-0.3,1.1-0.4,1.6-0.1c0.1,0,0.1,0,0.2,0.1l8.4,4.9
									c0.1,0,0.1,0.1,0.2,0.1c0.5,0.4,0.8,1,0.8,1.7v68.7c0,1.3-0.7,2.6-1.7,3.2l-70.8,40.9C33,123.9,32.7,124,32.3,124z
									 M24.2,117.3l8.1,4.7l70.8-40.9c0.3-0.2,0.7-0.9,0.7-1.5V10.9c0-0.1,0-0.1,0-0.2l0,0L95.7,6L24.9,46.9
									c-0.3,0.2-0.7,0.9-0.7,1.5v68.7C24.2,117.2,24.2,117.2,24.2,117.3C24.2,117.2,24.2,117.3,24.2,117.3z M103.9,10.8
									L103.9,10.8L103.9,10.8z"/>
								<g>
									<path class="st3" d="M31.6,112.1v9.8c0,0.9,0.5,1.3,1.2,0.9L103.6,82c0.7-0.4,1.2-1.4,1.2-2.3v-9.8L31.6,112.1z"/>
									<path class="st3" d="M32.3,124c-0.3,0-0.6-0.1-0.8-0.2c-0.6-0.3-0.9-1-0.9-1.9v-9.8c0-0.4,0.2-0.7,0.5-0.9L104.3,69
										c0.3-0.2,0.7-0.2,1,0s0.5,0.5,0.5,0.9v9.8c0,1.3-0.7,2.6-1.7,3.2l-70.8,40.9C33,123.9,32.6,124,32.3,124z M32.6,122.2
										L32.6,122.2L32.6,122.2z M32.6,112.7v9.1l70.5-40.7c0.3-0.2,0.7-0.9,0.7-1.5v-8.1L32.6,112.7z"/>
								</g>
								<g>
									<path class="st1" d="M23.2,107.3v9.8c0,0.5,0.2,0.8,0.4,1l0,0l8,4.6v-10.5L23.2,107.3z"/>
									<path class="st3" d="M31.6,123.7c-0.2,0-0.3,0-0.5-0.1l-8-4.6c-0.1,0-0.1-0.1-0.2-0.1c-0.5-0.4-0.8-1-0.8-1.7v-9.8
										c0-0.4,0.2-0.7,0.5-0.9c0.3-0.2,0.7-0.2,1,0l8.4,4.9c0.3,0.2,0.5,0.5,0.5,0.9v10.5c0,0.4-0.2,0.7-0.5,0.9
										C31.9,123.6,31.8,123.7,31.6,123.7z M24.2,117.3l6.4,3.7v-8.2l-6.4-3.7V117.3C24.2,117.2,24.2,117.2,24.2,117.3
										C24.2,117.2,24.2,117.3,24.2,117.3z"/>
								</g>
								<g>
									<path class="st1" d="M95.9,81.8c-0.3,0-0.5-0.1-0.7-0.3c-0.1,0-0.1-0.1-0.1-0.1c0-0.1-0.1-0.1-0.1-0.2s0-0.1,0-0.2
										s0-0.1,0-0.2s0-0.1,0-0.2s0-0.1,0-0.2s0.1-0.1,0.1-0.2l0.1-0.1c0.2-0.2,0.6-0.3,0.9-0.3c0.1,0,0.1,0,0.2,0.1
										c0.1,0,0.1,0.1,0.2,0.1s0.1,0.1,0.2,0.1c0,0.1,0.1,0.1,0.1,0.1c0,0.1,0.1,0.1,0.1,0.2s0,0.1,0.1,0.2c0,0.1,0,0.1,0,0.2
										s0,0.1,0,0.2s0,0.1-0.1,0.2c0,0.1-0.1,0.1-0.1,0.2s-0.1,0.1-0.1,0.1c0,0.1-0.1,0.1-0.2,0.1c0,0-0.1,0.1-0.2,0.1
										s-0.1,0.1-0.2,0.1C96.1,81.8,96,81.8,95.9,81.8z"/>
									<path class="st1" d="M70.5,95.5c-0.3-0.5-0.1-1.1,0.4-1.4l0,0c0.5-0.3,1.1-0.1,1.4,0.4l0,0c0.3,0.5,0.1,1.1-0.4,1.4l0,0
										C71.7,96,71.5,96,71.3,96l0,0C71,96,70.6,95.8,70.5,95.5z M75.4,92.7c-0.3-0.5-0.1-1.1,0.4-1.4l0,0
										c0.5-0.3,1.1-0.1,1.4,0.4l0,0c0.3,0.5,0.1,1.1-0.4,1.4l0,0c-0.2,0.1-0.3,0.1-0.5,0.1l0,0C75.9,93.2,75.6,93,75.4,92.7z
										 M80.3,89.8c-0.3-0.5-0.1-1.1,0.4-1.4l0,0c0.5-0.3,1.1-0.1,1.4,0.4l0,0c0.3,0.5,0.1,1.1-0.4,1.4l0,0
										c-0.2,0.1-0.3,0.1-0.5,0.1l0,0C80.8,90.3,80.5,90.1,80.3,89.8z M85.2,87c-0.3-0.5-0.1-1.1,0.4-1.4l0,0
										c0.5-0.3,1.1-0.1,1.4,0.4l0,0c0.3,0.5,0.1,1.1-0.4,1.4l0,0c-0.2,0.1-0.3,0.1-0.5,0.1l0,0C85.7,87.5,85.4,87.3,85.2,87z
										 M90.1,84.1c-0.3-0.5-0.1-1.1,0.4-1.4l0,0c0.5-0.3,1.1-0.1,1.4,0.4l0,0c0.3,0.5,0.1,1.1-0.4,1.4l0,0
										c-0.2,0.1-0.3,0.1-0.5,0.1l0,0C90.7,84.6,90.3,84.5,90.1,84.1z"/>
									<path class="st1" d="M66.4,98.9c-0.3,0-0.5-0.1-0.7-0.3c-0.2-0.2-0.3-0.4-0.3-0.7c0-0.3,0.1-0.5,0.3-0.7
										c0.1-0.1,0.2-0.2,0.3-0.2c0.4-0.2,0.8-0.1,1.1,0.2c0.2,0.2,0.3,0.4,0.3,0.7c0,0.3-0.1,0.5-0.3,0.7
										C66.9,98.7,66.7,98.9,66.4,98.9z"/>
								</g>
								<path class="st0" d="M40.5,113.8c-0.3,0-0.7-0.2-0.9-0.5c-0.3-0.5-0.1-1.1,0.4-1.4l24.4-14.1c0.5-0.3,1.1-0.1,1.4,0.4
									s0.1,1.1-0.4,1.4L41,113.7C40.8,113.8,40.6,113.8,40.5,113.8z"/>
								<g>
									
										<ellipse transform="matrix(0.3916 -0.9201 0.9201 0.3916 -51.358 119.7073)" class="st0" cx="64.8" cy="98.7" rx="3.1" ry="1.7"/>
									<path class="st0" d="M64.1,102.2c-0.3,0-0.5-0.1-0.8-0.2c-0.6-0.3-0.9-1.1-0.9-2.1c0-1.7,1-3.5,2.2-4.3
										c0.6-0.4,1.3-0.4,1.8-0.1c0.6,0.3,0.9,1.1,0.9,2.1c0,1.7-1,3.5-2.2,4.3C64.8,102,64.4,102.2,64.1,102.2z M65.6,96.3
										c-0.2,0-0.4,0.1-0.5,0.2c-0.9,0.5-1.8,2.1-1.8,3.4c0,0.6,0.2,1,0.4,1.2c0.3,0.1,0.6,0,0.8-0.1c0.9-0.5,1.8-2.1,1.8-3.4
										c0-0.6-0.2-1-0.4-1.2C65.8,96.4,65.7,96.3,65.6,96.3z"/>
								</g>
							</g>
							<path class="st3" d="M45,116.8c-0.3,0-0.7-0.2-0.9-0.5c-0.3-0.5-0.1-1.1,0.4-1.4L103.1,81c0.3-0.2,0.7-0.9,0.7-1.5V47.2
								c0-0.6,0.4-1,1-1s1,0.4,1,1v32.4c0,1.3-0.7,2.6-1.7,3.2l-58.6,33.9C45.3,116.8,45.1,116.8,45,116.8z"/>
						</g>
					</g>
					<g>
						<polygon class="st4" points="76.2,56.7 60.2,77.9 60.2,54 						"/>
						<path class="st4" d="M60.2,78.9c-0.1,0-0.2,0-0.3-0.1c-0.4-0.1-0.7-0.5-0.7-0.9V54c0-0.3,0.1-0.6,0.4-0.8s0.5-0.3,0.8-0.2
							l16,2.7c0.3,0.1,0.6,0.3,0.8,0.6s0.1,0.7-0.1,1L61,78.5C60.8,78.8,60.5,78.9,60.2,78.9z M61.2,55.2V75l13.2-17.5L61.2,55.2z"
							/>
					</g>
				</g>
				<rect x="4" y="4" class="st5" width="120" height="120"/>
				<rect x="4" y="4" class="st5" width="120" height="120"/>
			</g>
		</g>
	</g>
	<g>
		<rect class="st5" width="128" height="128"/>
	</g>
</g>
</svg>
