<?xml version="1.0" encoding="utf-8"?>
<!-- Generator: Adobe Illustrator 24.1.0, SVG Export Plug-In . SVG Version: 6.00 Build 0)  -->
<svg version="1.1" id="Layer_1" xmlns="http://www.w3.org/2000/svg" xmlns:xlink="http://www.w3.org/1999/xlink" x="0px" y="0px"
	 viewBox="0 0 128 128" style="enable-background:new 0 0 128 128;" xml:space="preserve">
<style type="text/css">
	.st0{fill:none;}
	.st1{fill:#27ae60;}
	.st2{fill:#FFFFFF;}
	.st3{fill:#4D9987;}
	.st4{fill:#0E352C;}
	.st5{fill:#185849;}
</style>
<g id="Layer_1_1_">
</g>
<g>
	<g id="Layer_2_1_">
		<g id="Objects_1_">
			<g>
				<rect x="4" y="4" class="st0" width="120" height="120"/>
				<g>
					<g>
						<g>
							<g>
								<path class="st1" d="M64,22c-0.3,0-0.5-0.1-0.7-0.3c-0.1-0.1-0.2-0.2-0.2-0.3C63,21.2,63,21.1,63,21s0-0.3,0.1-0.4
									c0-0.1,0.1-0.2,0.2-0.3c0.4-0.4,1-0.4,1.4,0c0.1,0.1,0.2,0.2,0.2,0.3c0,0.1,0.1,0.2,0.1,0.4s0,0.3-0.1,0.4s-0.1,0.2-0.2,0.3
									C64.5,21.9,64.3,22,64,22z"/>
								<path class="st1" d="M63,15c0-0.5,0.5-1,1-1l0,0c0.6,0,1,0.5,1,1l0,0c0,0.6-0.4,1-1,1l0,0C63.4,16,63,15.5,63,15z"/>
								<path class="st1" d="M64,10c-0.3,0-0.5-0.1-0.7-0.3S63,9.3,63,9c0-0.1,0-0.3,0.1-0.4c0-0.1,0.1-0.2,0.2-0.3
									c0.4-0.4,1-0.4,1.4,0c0.1,0.1,0.2,0.2,0.2,0.3C65,8.7,65,8.9,65,9c0,0.3-0.1,0.5-0.3,0.7C64.5,9.9,64.3,10,64,10z"/>
							</g>
							<g>
								<path class="st1" d="M64,120c-0.3,0-0.5-0.1-0.7-0.3c-0.1-0.1-0.2-0.2-0.2-0.3c-0.1-0.1-0.1-0.2-0.1-0.4
									c0-0.3,0.1-0.5,0.3-0.7c0.4-0.4,1-0.4,1.4,0c0.2,0.2,0.3,0.4,0.3,0.7c0,0.1,0,0.3-0.1,0.4s-0.1,0.2-0.2,0.3
									C64.5,119.9,64.3,120,64,120z"/>
								<path class="st1" d="M63,113c0-0.5,0.5-1,1-1l0,0c0.6,0,1,0.5,1,1l0,0c0,0.6-0.4,1-1,1l0,0C63.4,114,63,113.6,63,113z"/>
								<path class="st1" d="M64,108c-0.3,0-0.5-0.1-0.7-0.3c-0.2-0.2-0.3-0.4-0.3-0.7c0-0.1,0-0.3,0.1-0.4c0-0.1,0.1-0.2,0.2-0.3
									c0.3-0.3,0.7-0.4,1.1-0.2c0.1,0.1,0.2,0.1,0.3,0.2c0.1,0.1,0.2,0.2,0.2,0.3c0,0.1,0.1,0.2,0.1,0.4c0,0.3-0.1,0.5-0.3,0.7
									C64.5,107.9,64.3,108,64,108z"/>
							</g>
							<g>
								<g>
									<path class="st1" d="M37.7,41.3c-0.3,0-0.5-0.1-0.7-0.3s-0.3-0.4-0.3-0.7s0.1-0.5,0.3-0.7c0.4-0.4,1.1-0.4,1.4,0
										c0,0.1,0.1,0.1,0.1,0.2c0,0.1,0.1,0.1,0.1,0.2c0,0.1,0.1,0.1,0.1,0.2c0,0.1,0,0.1,0,0.2c0,0.1,0,0.1,0,0.2
										c0,0.1,0,0.1-0.1,0.2c0,0.1,0,0.1-0.1,0.2c0,0.1-0.1,0.1-0.1,0.2C38.2,41.2,37.9,41.3,37.7,41.3z"/>
									<path class="st1" d="M32.5,38.5c-0.5-0.3-0.6-0.9-0.4-1.4l0,0c0.3-0.5,0.9-0.6,1.4-0.4l0,0c0.5,0.3,0.6,0.9,0.4,1.4l0,0
										c-0.2,0.3-0.5,0.5-0.9,0.5l0,0C32.8,38.6,32.7,38.6,32.5,38.5z M27.9,35.8c-0.5-0.3-0.6-0.9-0.4-1.4l0,0
										c0.3-0.5,0.9-0.6,1.4-0.4l0,0c0.5,0.3,0.7,0.9,0.4,1.4l0,0C29,35.8,28.7,36,28.4,36l0,0C28.2,36,28,35.9,27.9,35.8z"/>
									<path class="st1" d="M23.7,33.3c-0.1,0-0.3,0-0.4-0.1S23.1,33.1,23,33c-0.2-0.2-0.3-0.4-0.3-0.7s0.1-0.5,0.3-0.7
										c0.1-0.1,0.2-0.2,0.3-0.2c0.2-0.1,0.5-0.1,0.8,0c0.1,0.1,0.2,0.1,0.3,0.2c0.2,0.2,0.3,0.4,0.3,0.7c0,0.3-0.1,0.5-0.3,0.7
										c-0.1,0.1-0.2,0.2-0.3,0.2C24,33.2,23.8,33.3,23.7,33.3z"/>
								</g>
							</g>
							<g>
								<g>
									<path class="st1" d="M90.3,41.3c-0.3,0-0.5-0.1-0.7-0.3c-0.1-0.1-0.2-0.2-0.2-0.3c-0.1-0.1-0.1-0.2-0.1-0.4s0-0.3,0.1-0.4
										c0-0.1,0.1-0.2,0.2-0.3c0.4-0.4,1-0.4,1.4,0c0.2,0.2,0.3,0.4,0.3,0.7S91.2,40.8,91,41l-0.1,0.1c-0.1,0-0.1,0.1-0.2,0.1
										s-0.1,0.1-0.2,0.1C90.5,41.3,90.4,41.3,90.3,41.3z"/>
									<path class="st1" d="M94.1,38.1c-0.3-0.5-0.1-1.1,0.4-1.4l0,0c0.5-0.3,1.1-0.1,1.4,0.4l0,0c0.3,0.5,0.1,1.1-0.4,1.4l0,0
										c-0.2,0.1-0.3,0.1-0.5,0.1l0,0C94.6,38.6,94.3,38.5,94.1,38.1z M98.8,35.5c-0.3-0.5-0.1-1.1,0.4-1.4l0,0
										c0.5-0.3,1.1-0.1,1.4,0.4l0,0c0.3,0.5,0.1,1.1-0.4,1.4l0,0c-0.1,0.1-0.3,0.1-0.5,0.1l0,0C99.3,36,99,35.8,98.8,35.5z"/>
									<path class="st1" d="M104.3,33.3c-0.3,0-0.5-0.1-0.7-0.3c-0.1-0.1-0.2-0.2-0.2-0.3c-0.1-0.1-0.1-0.2-0.1-0.4
										c0-0.3,0.1-0.5,0.3-0.7c0.1,0,0.1-0.1,0.2-0.1s0.1-0.1,0.2-0.1s0.1,0,0.2-0.1c0.3-0.1,0.7,0,0.9,0.3
										c0.2,0.2,0.3,0.4,0.3,0.7c0,0.1,0,0.3-0.1,0.4c-0.1,0.1-0.1,0.2-0.2,0.3s-0.2,0.2-0.3,0.2
										C104.6,33.2,104.4,33.3,104.3,33.3z"/>
								</g>
							</g>
							<g>
								<g>
									<path class="st1" d="M90.3,88.7c-0.3,0-0.5-0.1-0.7-0.3c-0.1-0.1-0.2-0.2-0.2-0.3c-0.1-0.1-0.1-0.2-0.1-0.4s0-0.3,0.1-0.4
										c0-0.1,0.1-0.2,0.2-0.3c0.4-0.4,1-0.4,1.4,0c0.2,0.2,0.3,0.4,0.3,0.7s-0.1,0.5-0.3,0.7C90.9,88.6,90.6,88.7,90.3,88.7z"/>
									<path class="st1" d="M99.1,93.9c-0.5-0.3-0.6-0.9-0.4-1.4l0,0c0.3-0.5,0.9-0.7,1.4-0.4l0,0c0.5,0.3,0.6,0.9,0.4,1.4l0,0
										c-0.2,0.3-0.5,0.5-0.9,0.5l0,0C99.5,94.1,99.3,94,99.1,93.9z M94.5,91.2c-0.5-0.3-0.6-0.9-0.4-1.4l0,0
										c0.3-0.5,0.9-0.6,1.4-0.4l0,0c0.5,0.3,0.6,0.9,0.4,1.4l0,0c-0.2,0.3-0.5,0.5-0.9,0.5l0,0C94.8,91.4,94.6,91.3,94.5,91.2z"
										/>
									<path class="st1" d="M104.3,96.7c-0.1,0-0.1,0-0.2,0s-0.1,0-0.2-0.1c-0.1,0-0.1-0.1-0.2-0.1s-0.1-0.1-0.2-0.1
										c-0.2-0.2-0.3-0.4-0.3-0.7c0-0.1,0-0.3,0.1-0.4c0-0.1,0.1-0.2,0.2-0.3c0.3-0.3,0.7-0.4,1.1-0.2c0.1,0,0.2,0.1,0.3,0.2
										c0.1,0.1,0.2,0.2,0.2,0.3c0,0.1,0.1,0.2,0.1,0.4c0,0.3-0.1,0.5-0.3,0.7C104.8,96.6,104.6,96.7,104.3,96.7z"/>
								</g>
							</g>
							<g>
								<g>
									<path class="st1" d="M37.7,88.7c-0.3,0-0.5-0.1-0.7-0.3c-0.1-0.1-0.2-0.2-0.2-0.3c0-0.1-0.1-0.2-0.1-0.4s0-0.3,0.1-0.4
										s0.1-0.2,0.2-0.3c0.4-0.4,1.1-0.4,1.4,0c0.2,0.2,0.3,0.4,0.3,0.7c0,0.1,0,0.3-0.1,0.4c0,0.1-0.1,0.2-0.2,0.3
										C38.2,88.6,37.9,88.7,37.7,88.7z"/>
									<path class="st1" d="M27.5,93.6c-0.3-0.5-0.1-1.1,0.4-1.4l0,0c0.5-0.3,1.1-0.1,1.4,0.4l0,0c0.3,0.5,0.1,1.1-0.4,1.4l0,0
										c-0.2,0.1-0.3,0.1-0.5,0.1l0,0C28,94.1,27.7,93.9,27.5,93.6z M32.1,90.9c-0.3-0.5-0.1-1.1,0.4-1.4l0,0
										c0.5-0.3,1.1-0.1,1.4,0.4l0,0c0.3,0.5,0.1,1.1-0.4,1.4l0,0c-0.2,0.1-0.3,0.1-0.5,0.1l0,0C32.7,91.4,32.3,91.2,32.1,90.9z"
										/>
									<path class="st1" d="M23.7,96.7c-0.1,0-0.3,0-0.4-0.1s-0.2-0.1-0.3-0.2c-0.2-0.2-0.3-0.4-0.3-0.7c0-0.3,0.1-0.5,0.3-0.7
										c0.1-0.1,0.2-0.2,0.3-0.2c0.2-0.1,0.5-0.1,0.8,0c0.1,0,0.2,0.1,0.3,0.2c0.2,0.2,0.3,0.4,0.3,0.7c0,0.3-0.1,0.5-0.3,0.7
										c-0.1,0.1-0.2,0.2-0.3,0.2C24,96.7,23.8,96.7,23.7,96.7z"/>
								</g>
							</g>
							<g>
								<path class="st2" d="M37.9,87.7c0.1,0.2,0.3,0.4,0.6,0.5l11.7,6.7l11.7,6.7c0.3,0.2,0.7,0.3,1,0.4c0.4,0.1,0.7,0.1,1.1,0.1
									c0.4,0,0.7,0,1.1-0.1s0.7-0.2,1-0.4l11.7-6.7l11.7-6.7c0.3-0.1,0.5-0.3,0.6-0.5c0.2-0.2,0.3-0.5,0.3-0.7V64V41
									c0-0.2-0.1-0.5-0.3-0.7c-0.1-0.2-0.3-0.4-0.6-0.5l-11.7-6.7l-11.7-6.7c-0.6-0.3-1.4-0.5-2.1-0.5s-1.5,0.2-2.1,0.5l-11.7,6.7
									l-11.7,6.7c-0.3,0.1-0.5,0.3-0.6,0.5c-0.2,0.2-0.3,0.5-0.3,0.7v23v23C37.7,87.2,37.8,87.5,37.9,87.7z"/>
							</g>
							<g>
								<g>
									<path class="st3" d="M57.5,100.1c-0.6,0-1-0.4-1-1V69.2c0-1.1-0.7-2.3-1.3-2.6l-9.3-5.4c-0.2-0.1-0.2-0.1-0.2-0.1
										s-0.1,0.2-0.1,0.6v29.9c0,0.6-0.4,1-1,1s-1-0.4-1-1V61.7c0-1.1,0.4-1.9,1.1-2.3c0.6-0.4,1.4-0.3,2.2,0.1l9.3,5.4
										c1.3,0.8,2.3,2.6,2.3,4.4v29.9C58.5,99.7,58,100.1,57.5,100.1z"/>
									<g>
										<g>
											<path class="st3" d="M70.8,63.2c-0.3,0-0.5-0.1-0.7-0.3s-0.3-0.4-0.3-0.7s0.1-0.5,0.3-0.7c0.4-0.4,1-0.4,1.4,0
												c0.2,0.2,0.3,0.4,0.3,0.7s-0.1,0.5-0.3,0.7C71.3,63.1,71,63.2,70.8,63.2z"/>
											<path class="st3" d="M74.6,60c-0.3-0.5-0.1-1.1,0.4-1.4l0,0c0.5-0.3,1.1-0.1,1.4,0.4l0,0c0.3,0.5,0.1,1.1-0.4,1.4l0,0
												c-0.2,0.1-0.3,0.1-0.5,0.1l0,0C75.1,60.5,74.8,60.3,74.6,60z M79.3,57.3c-0.3-0.5-0.1-1.1,0.4-1.4l0,0
												c0.5-0.3,1.1-0.1,1.4,0.4l0,0c0.3,0.5,0.1,1.1-0.4,1.4l0,0c-0.2,0.1-0.3,0.1-0.5,0.1l0,0C79.8,57.8,79.4,57.6,79.3,57.3z
												"/>
											<path class="st3" d="M84.8,55.1c-0.3,0-0.5-0.1-0.7-0.3c-0.1-0.1-0.2-0.2-0.2-0.3s-0.1-0.3-0.1-0.4
												c0-0.3,0.1-0.5,0.3-0.7c0.3-0.3,0.7-0.4,1.1-0.2c0.1,0,0.2,0.1,0.3,0.2c0.2,0.2,0.3,0.4,0.3,0.7c0,0.1,0,0.3-0.1,0.4
												c-0.1,0.1-0.1,0.2-0.2,0.3S85.3,55,85.2,55C85.1,55.1,84.9,55.1,84.8,55.1z"/>
										</g>
										<g>
											<path class="st3" d="M70.8,72.4c-0.3,0-0.5-0.1-0.7-0.3c-0.2-0.2-0.3-0.4-0.3-0.7c0-0.3,0.1-0.5,0.3-0.7
												c0.4-0.4,1-0.4,1.4,0c0.2,0.2,0.3,0.4,0.3,0.7c0,0.3-0.1,0.5-0.3,0.7C71.3,72.3,71,72.4,70.8,72.4z"/>
											<path class="st3" d="M74.6,69.2c-0.3-0.5-0.1-1.1,0.4-1.4l0,0c0.5-0.3,1.1-0.1,1.4,0.4l0,0c0.3,0.5,0.1,1.1-0.4,1.4l0,0
												c-0.2,0.1-0.3,0.1-0.5,0.1l0,0C75.1,69.7,74.8,69.5,74.6,69.2z M79.3,66.5c-0.3-0.5-0.1-1.1,0.4-1.4l0,0
												c0.5-0.3,1.1-0.1,1.4,0.4l0,0c0.3,0.5,0.1,1.1-0.4,1.4l0,0C80.5,67,80.3,67,80.1,67l0,0C79.8,67,79.4,66.8,79.3,66.5z"/>
											<path class="st3" d="M84.8,64.3c-0.1,0-0.1,0-0.2,0s-0.1,0-0.2-0.1c-0.1,0-0.1-0.1-0.2-0.1S84.1,64,84,64
												c-0.2-0.2-0.3-0.4-0.3-0.7c0-0.1,0-0.1,0-0.2c0-0.1,0-0.1,0.1-0.2c0-0.1,0.1-0.1,0.1-0.2c0-0.1,0.1-0.1,0.1-0.2
												c0.3-0.3,0.7-0.4,1.1-0.2c0.1,0.1,0.2,0.1,0.3,0.2c0.2,0.2,0.3,0.4,0.3,0.7s-0.1,0.5-0.3,0.7
												C85.3,64.2,85.1,64.3,84.8,64.3z"/>
										</g>
										<g>
											<path class="st3" d="M70.8,81.6c-0.3,0-0.5-0.1-0.7-0.3c-0.2-0.2-0.3-0.4-0.3-0.7c0-0.3,0.1-0.5,0.3-0.7
												c0.4-0.4,1-0.4,1.4,0c0.2,0.2,0.3,0.4,0.3,0.7c0,0.3-0.1,0.5-0.3,0.7C71.3,81.5,71,81.6,70.8,81.6z"/>
											<path class="st3" d="M74.6,78.4c-0.3-0.5-0.1-1.1,0.4-1.4l0,0c0.5-0.3,1.1-0.1,1.4,0.4l0,0c0.3,0.5,0.1,1.1-0.4,1.4l0,0
												c-0.2,0.1-0.3,0.1-0.5,0.1l0,0C75.1,78.9,74.8,78.7,74.6,78.4z M79.3,75.7c-0.3-0.5-0.1-1.1,0.4-1.4l0,0
												c0.5-0.3,1.1-0.1,1.4,0.4l0,0c0.3,0.5,0.1,1.1-0.4,1.4l0,0c-0.2,0.1-0.3,0.1-0.5,0.1l0,0C79.8,76.2,79.4,76,79.3,75.7z"
												/>
											<path class="st3" d="M84.8,73.5c-0.3,0-0.5-0.1-0.7-0.3c-0.1-0.1-0.2-0.2-0.2-0.3c0-0.1-0.1-0.3-0.1-0.4
												c0-0.3,0.1-0.5,0.3-0.7c0.3-0.3,0.7-0.4,1.1-0.2c0.1,0,0.2,0.1,0.3,0.2c0.2,0.2,0.3,0.4,0.3,0.7c0,0.1,0,0.3-0.1,0.4
												s-0.1,0.2-0.2,0.3c-0.1,0.1-0.2,0.2-0.3,0.2C85.1,73.5,84.9,73.5,84.8,73.5z"/>
										</g>
										<g>
											<path class="st3" d="M70.8,90.8c-0.3,0-0.5-0.1-0.7-0.3c-0.2-0.2-0.3-0.4-0.3-0.7s0.1-0.5,0.3-0.7c0.4-0.4,1-0.4,1.4,0
												c0.2,0.2,0.3,0.4,0.3,0.7s-0.1,0.5-0.3,0.7S71,90.8,70.8,90.8z"/>
											<path class="st3" d="M74.6,87.6c-0.3-0.5-0.1-1.1,0.4-1.4l0,0c0.5-0.3,1.1-0.1,1.4,0.4l0,0c0.3,0.5,0.1,1.1-0.4,1.4l0,0
												c-0.2,0.1-0.3,0.1-0.5,0.1l0,0C75.1,88.1,74.8,87.9,74.6,87.6z M79.3,84.9c-0.3-0.5-0.1-1.1,0.4-1.4l0,0
												c0.5-0.3,1.1-0.1,1.4,0.4l0,0c0.3,0.5,0.1,1.1-0.4,1.4l0,0c-0.2,0.1-0.3,0.1-0.5,0.1l0,0C79.8,85.4,79.4,85.2,79.3,84.9z
												"/>
											<path class="st3" d="M84.8,82.7c-0.3,0-0.5-0.1-0.7-0.3c-0.2-0.2-0.3-0.4-0.3-0.7c0-0.3,0.1-0.5,0.3-0.7
												c0.1,0,0.1-0.1,0.2-0.1s0.1-0.1,0.2-0.1s0.1,0,0.2,0c0.3-0.1,0.7,0,0.9,0.3c0.2,0.2,0.3,0.4,0.3,0.7c0,0.1,0,0.3-0.1,0.4
												s-0.1,0.2-0.2,0.3c-0.1,0.1-0.2,0.2-0.3,0.2C85.1,82.7,84.9,82.7,84.8,82.7z"/>
										</g>
									</g>
									<g>
										<path class="st3" d="M37.7,42c-0.3,0-0.5-0.1-0.7-0.3c-0.1-0.1-0.2-0.2-0.2-0.3s-0.1-0.2-0.1-0.4s0-0.3,0.1-0.4
											s0.1-0.2,0.2-0.3c0.4-0.4,1.1-0.4,1.4,0c0.2,0.2,0.3,0.4,0.3,0.7c0,0.1,0,0.3-0.1,0.4c0,0.1-0.1,0.2-0.2,0.3
											C38.2,41.9,37.9,42,37.7,42z"/>
										<path class="st3" d="M63,56.2c0-0.5,0.5-1,1-1l0,0c0.5,0,1,0.5,1,1l0,0c0,0.6-0.5,1-1,1l0,0C63.4,57.2,63,56.8,63,56.2z
											 M68.7,54.3c-0.3-0.5-0.1-1.1,0.4-1.4l0,0c0.5-0.3,1.1-0.1,1.4,0.4l0,0c0.3,0.5,0.1,1.1-0.4,1.4l0,0
											c-0.2,0.1-0.3,0.1-0.5,0.1l0,0C69.2,54.8,68.8,54.6,68.7,54.3z M58,54.6c-0.5-0.3-0.7-0.9-0.4-1.4l0,0
											c0.3-0.5,0.9-0.7,1.4-0.4l0,0c0.5,0.3,0.6,0.9,0.4,1.4l0,0c-0.2,0.3-0.5,0.5-0.9,0.5l0,0C58.3,54.8,58.1,54.7,58,54.6z
											 M74,51.2c-0.3-0.5-0.1-1.1,0.4-1.4l0,0c0.5-0.3,1.1-0.1,1.4,0.4l0,0c0.3,0.5,0.1,1.1-0.4,1.4l0,0
											c-0.1,0.1-0.3,0.1-0.5,0.1l0,0C74.5,51.7,74.2,51.5,74,51.2z M52.6,51.6c-0.5-0.3-0.6-0.9-0.4-1.4l0,0
											c0.3-0.5,0.9-0.7,1.4-0.4l0,0c0.5,0.3,0.6,0.9,0.4,1.4l0,0c-0.2,0.3-0.5,0.5-0.9,0.5l0,0C53,51.7,52.8,51.7,52.6,51.6z
											 M79.3,48.1c-0.3-0.5-0.1-1.1,0.4-1.4l0,0c0.5-0.3,1.1-0.1,1.4,0.4l0,0c0.3,0.5,0.1,1.1-0.4,1.4l0,0
											c-0.1,0.1-0.3,0.1-0.5,0.1l0,0C79.8,48.6,79.5,48.5,79.3,48.1z M47.3,48.5c-0.5-0.3-0.6-0.9-0.4-1.4l0,0
											c0.3-0.5,0.9-0.6,1.4-0.4l0,0c0.5,0.3,0.6,0.9,0.4,1.4l0,0c-0.2,0.3-0.5,0.5-0.9,0.5l0,0C47.6,48.6,47.5,48.6,47.3,48.5z
											 M84.6,45.1c-0.3-0.5-0.1-1.1,0.4-1.4l0,0c0.5-0.3,1.1-0.1,1.4,0.4l0,0c0.3,0.5,0.1,1.1-0.4,1.4l0,0
											c-0.2,0.1-0.3,0.1-0.5,0.1l0,0C85.1,45.6,84.8,45.4,84.6,45.1z M42,45.4c-0.5-0.3-0.7-0.9-0.4-1.4l0,0
											c0.3-0.5,0.9-0.6,1.4-0.4l0,0c0.5,0.3,0.6,0.9,0.4,1.4l0,0c-0.2,0.3-0.5,0.5-0.9,0.5l0,0C42.3,45.6,42.2,45.5,42,45.4z"/>
										<path class="st3" d="M90.3,42c-0.3,0-0.5-0.1-0.7-0.3c-0.1-0.1-0.2-0.2-0.2-0.3c-0.1-0.1-0.1-0.2-0.1-0.4s0-0.3,0.1-0.4
											c0-0.1,0.1-0.2,0.2-0.3c0.4-0.4,1-0.4,1.4,0c0.1,0.1,0.2,0.2,0.2,0.3s0.1,0.2,0.1,0.4c0,0.3-0.1,0.5-0.3,0.7l-0.1,0.1
											c-0.1,0-0.1,0.1-0.2,0.1s-0.1,0-0.2,0.1C90.5,42,90.4,42,90.3,42z"/>
									</g>
									<g>
										<path class="st2" d="M75.4,40.5l-10.4-6c-0.5-0.3-1.4-0.3-1.9,0l-10.4,6c-0.5,0.3-0.5,0.8,0,1.1l10.4,6
											c0.5,0.3,1.4,0.3,1.9,0l10.4-6C75.9,41.3,75.9,40.8,75.4,40.5z"/>
										<path class="st3" d="M64,48.8c-0.5,0-1-0.1-1.4-0.4l-10.4-6c-0.6-0.3-0.9-0.8-0.9-1.4c0-0.6,0.3-1.1,0.9-1.4l10.4-6
											c0.8-0.5,2.1-0.5,2.9,0l10.4,6l0,0c0.6,0.3,0.9,0.8,0.9,1.4c0,0.6-0.3,1.1-0.9,1.4l-10.4,6C65,48.7,64.5,48.8,64,48.8z
											 M53.7,41l9.9,5.7c0.2,0.1,0.7,0.1,0.9,0l9.9-5.7l-9.9-5.7c-0.2-0.1-0.7-0.1-0.9,0L53.7,41z M74.9,41.4L74.9,41.4l0.5-0.9
											L74.9,41.4z"/>
									</g>
								</g>
							</g>
							<g>
								<path class="st4" d="M64,103.2c-0.5,0-0.9,0-1.3-0.1c-0.5-0.1-0.9-0.3-1.3-0.5L38,89c-0.4-0.2-0.7-0.5-0.9-0.7l0,0
									c-0.3-0.4-0.5-0.9-0.5-1.3V41c0-0.5,0.2-0.9,0.5-1.3c0.2-0.3,0.5-0.5,0.9-0.7l23.3-13.5c1.4-0.8,3.8-0.8,5.3,0L90,39
									c0.4,0.2,0.7,0.5,0.9,0.7c0.3,0.4,0.5,0.9,0.5,1.3v46c0,0.5-0.2,0.9-0.5,1.3c-0.2,0.3-0.5,0.5-0.9,0.7l-23.3,13.5
									c-0.4,0.2-0.8,0.4-1.3,0.5C64.9,103.1,64.5,103.2,64,103.2z M38.7,87.1c0,0.1,0.1,0.2,0.3,0.3l23.3,13.5
									c0.2,0.1,0.5,0.2,0.8,0.3c0.6,0.1,1.2,0.1,1.7,0c0.3-0.1,0.5-0.2,0.8-0.3L89,87.3c0.2-0.1,0.3-0.2,0.3-0.3
									c0-0.1,0.1-0.1,0.1-0.1V41c0,0,0,0-0.1-0.1c0-0.1-0.1-0.2-0.3-0.3L65.6,27.2c-0.8-0.5-2.4-0.5-3.3,0L39,40.7
									c-0.2,0.1-0.3,0.2-0.3,0.3s-0.1,0.1-0.1,0.1L38.7,87.1C38.7,87,38.7,87,38.7,87.1L38.7,87.1z"/>
								<path class="st5" d="M64,120c-0.2,0-0.3,0-0.5-0.1L23.2,96.6c-0.3-0.2-0.5-0.5-0.5-0.9V32.3c0-0.4,0.2-0.7,0.5-0.9L63.5,8.1
									c0.3-0.2,0.7-0.2,1,0l40.3,23.3c0.3,0.2,0.5,0.5,0.5,0.9v63.5c0,0.4-0.2,0.7-0.5,0.9L64.5,120C64.3,120,64.2,120,64,120z
									 M24.7,95.2L64,117.8l39.3-22.7V32.8L64,10.2L24.7,32.8V95.2z"/>
							</g>
						</g>
					</g>
				</g>
			</g>
		</g>
	</g>
	<g>
		<rect class="st0" width="128" height="128"/>
	</g>
</g>
</svg>
