<?xml version="1.0" encoding="utf-8"?>
<!-- Generator: Adobe Illustrator 24.1.0, SVG Export Plug-In . SVG Version: 6.00 Build 0)  -->
<svg version="1.1" id="Layer_1" xmlns="http://www.w3.org/2000/svg" xmlns:xlink="http://www.w3.org/1999/xlink" x="0px" y="0px"
	 viewBox="0 0 128 128" style="enable-background:new 0 0 128 128;" xml:space="preserve">
<style type="text/css">
	.st0{fill:#0E352C;}
	.st1{fill:#185849;}
	.st2{fill:#FFFFFF;}
	.st3{fill:#4D9987;}
	.st4{fill:#E9EBDF;}
	.st5{fill:#27ae60;}
	.st6{fill:none;}
</style>
<g id="Layer_1_1_">
</g>
<g>
	<g id="Layer_2_1_">
		<g id="Tech_Concepts_1_">
			<g>
				<g>
					<path class="st0" d="M50,100.7c-0.1,0-0.3,0-0.4-0.1c-0.1-0.1-0.2-0.1-0.3-0.2s-0.2-0.2-0.2-0.3c0-0.1-0.1-0.2-0.1-0.4
						s0-0.3,0.1-0.4s0.1-0.2,0.2-0.3c0.1-0.1,0.2-0.2,0.3-0.2c0.4-0.2,0.8-0.1,1.1,0.2c0.1,0.1,0.2,0.2,0.2,0.3
						c0.1,0.1,0.1,0.2,0.1,0.4s0,0.3-0.1,0.4s-0.1,0.2-0.2,0.3c-0.1,0.1-0.2,0.2-0.3,0.2C50.3,100.7,50.2,100.7,50,100.7z"/>
					<path class="st0" d="M54.5,103.4c-0.5-0.3-0.6-0.9-0.4-1.4l0,0c0.3-0.5,0.9-0.6,1.4-0.4l0,0c0.5,0.3,0.6,0.9,0.4,1.4l0,0
						c-0.2,0.3-0.5,0.5-0.9,0.5l0,0C54.8,103.6,54.7,103.5,54.5,103.4z"/>
					<path class="st0" d="M60,106.5c-0.3,0-0.5-0.1-0.7-0.3c-0.2-0.2-0.3-0.4-0.3-0.7c0-0.1,0-0.3,0.1-0.4s0.1-0.2,0.2-0.3
						c0.3-0.3,0.7-0.4,1.1-0.2c0.1,0,0.2,0.1,0.3,0.2s0.2,0.2,0.2,0.3c0.1,0.1,0.1,0.2,0.1,0.4c0,0.1,0,0.3-0.1,0.4
						c0,0.1-0.1,0.2-0.2,0.3C60.5,106.4,60.3,106.5,60,106.5z"/>
				</g>
				<g>
					<g>
						<g>
							<path class="st1" d="M92.2,63.7c-0.3,0-0.5-0.1-0.7-0.3s-0.3-0.4-0.3-0.7s0.1-0.5,0.3-0.7c0.4-0.4,1-0.4,1.4,0
								c0.2,0.2,0.3,0.4,0.3,0.7s-0.1,0.5-0.3,0.7S92.5,63.7,92.2,63.7z"/>
							<path class="st1" d="M106.4,72c-0.5-0.3-0.6-0.9-0.4-1.4l0,0c0.3-0.5,0.9-0.6,1.4-0.4l0,0c0.5,0.3,0.6,0.9,0.4,1.4l0,0
								c-0.2,0.3-0.5,0.5-0.9,0.5l0,0C106.8,72.2,106.6,72.1,106.4,72z M101.5,69.2c-0.5-0.3-0.6-0.9-0.4-1.4l0,0
								c0.3-0.5,0.9-0.6,1.4-0.4l0,0c0.5,0.3,0.6,0.9,0.4,1.4l0,0c-0.2,0.3-0.5,0.5-0.9,0.5l0,0C101.9,69.3,101.7,69.3,101.5,69.2z
								 M96.6,66.4c-0.5-0.3-0.6-0.9-0.4-1.4l0,0c0.3-0.5,0.9-0.6,1.4-0.4l0,0c0.5,0.3,0.6,0.9,0.4,1.4l0,0
								c-0.2,0.3-0.5,0.5-0.9,0.5l0,0C97,66.5,96.8,66.5,96.6,66.4z"/>
							<path class="st1" d="M111.9,75c-0.1,0-0.3,0-0.4-0.1c-0.1,0-0.2-0.1-0.3-0.2c-0.1-0.1-0.2-0.2-0.2-0.3
								c-0.1-0.1-0.1-0.2-0.1-0.4s0-0.3,0.1-0.4c0-0.1,0.1-0.2,0.2-0.3c0.4-0.4,1-0.4,1.4,0c0.1,0.1,0.2,0.2,0.2,0.3
								s0.1,0.2,0.1,0.4s0,0.3-0.1,0.4c0,0.1-0.1,0.2-0.2,0.3c-0.1,0.1-0.2,0.2-0.3,0.2C112.1,75,112,75,111.9,75z"/>
						</g>
						<g>
							<path class="st2" d="M91.8,9.9L83.4,5l0,0c-0.2,0-0.5,0-0.8,0.1L11.8,46c-0.7,0.4-1.2,1.4-1.2,2.3V117c0,0.5,0.2,0.8,0.4,1
								l0,0l8.4,4.9l7.1-13.4l56.1-37.9c0.7-0.4,1.2-1.4,1.2-2.3V20.6L91.8,9.9z"/>
							<path class="st3" d="M19.4,123.9c-0.2,0-0.3,0-0.5-0.1l-8.4-4.9c-0.1,0-0.1-0.1-0.2-0.1c-0.5-0.4-0.8-1-0.8-1.7V48.4
								c0-1.3,0.7-2.6,1.7-3.2L82.1,4.3c0.5-0.3,1.1-0.4,1.6-0.1c0.1,0,0.1,0,0.2,0.1l8.4,4.9c0.2,0.1,0.4,0.4,0.5,0.7
								s0,0.6-0.2,0.8l-7.8,10.4v48.3c0,1.3-0.7,2.6-1.7,3.2l-55.9,37.7l-7,13.2c-0.1,0.2-0.3,0.4-0.6,0.5
								C19.6,123.9,19.5,123.9,19.4,123.9z M11.6,117.3l7.4,4.3l6.6-12.5c0.1-0.1,0.2-0.3,0.3-0.4L82,70.8c0.4-0.2,0.8-0.9,0.8-1.5
								V20.6c0-0.2,0.1-0.4,0.2-0.6l7.3-9.8L83,6L12.3,46.9c-0.3,0.2-0.7,0.9-0.7,1.5v68.7C11.5,117.2,11.6,117.2,11.6,117.3
								C11.6,117.2,11.6,117.3,11.6,117.3z"/>
						</g>
						<path class="st4" d="M19,122.7V41.9L11.8,46c-0.7,0.4-1.2,1.4-1.2,2.3V117c0,0.5,0.2,0.8,0.4,1l0,0L19,122.7z"/>
						<g>
							<path class="st3" d="M58.2,85.7l24.4-14.1c0.7-0.4,1.2-1.4,1.2-2.3V20.6l8-10.7L83.4,5l0,0c-0.2,0-0.5,0-0.8,0.1L11.8,46
								c-0.7,0.4-1.2,1.4-1.2,2.3v9.8L58.2,85.7z"/>
							<path class="st0" d="M58.2,86.7c-0.2,0-0.3,0-0.5-0.1L10,59c-0.3-0.2-0.5-0.5-0.5-0.9v-9.8c0-1.3,0.7-2.6,1.7-3.2L82.1,4.3
								c0.5-0.3,1.1-0.4,1.6-0.1c0.1,0,0.1,0,0.2,0.1l8.4,4.9c0.2,0.1,0.4,0.4,0.5,0.7s0,0.6-0.2,0.8l-7.8,10.4v48.3
								c0,1.3-0.7,2.6-1.7,3.2L58.7,86.5C58.5,86.6,58.4,86.7,58.2,86.7z M11.5,57.6l46.7,26.9l23.9-13.8c0.3-0.2,0.7-0.9,0.7-1.5
								V20.6c0-0.2,0.1-0.4,0.2-0.6l7.3-9.8L83,6L12.3,46.9c-0.3,0.2-0.7,0.9-0.7,1.5v9.2H11.5z"/>
						</g>
						<path class="st4" d="M60.5,77.2l23.3-32.6v-24l8-10.7L83.4,5l0,0c-0.2,0-0.5,0-0.8,0.1L11.8,46c-0.7,0.4-1.2,1.4-1.2,2.3l0,0
							L60.5,77.2z"/>
						<g>
							<path class="st2" d="M91,82l-70.8,40.9c-0.7,0.4-1.2,0-1.2-0.9V53.2c0-0.9,0.5-1.9,1.2-2.3L91,10c0.7-0.4,1.2,0,1.2,0.9v68.7
								C92.2,80.5,91.7,81.6,91,82z"/>
							<path class="st3" d="M19.7,124c-0.3,0-0.6-0.1-0.8-0.2c-0.6-0.3-0.9-1-0.9-1.9V53.2c0-1.3,0.7-2.6,1.7-3.2L90.5,9.1
								c0.6-0.4,1.3-0.4,1.8-0.1c0.6,0.3,0.9,1,0.9,1.9v68.7c0,1.3-0.7,2.6-1.7,3.2l-70.8,40.9C20.4,123.9,20,124,19.7,124z
								 M91.2,11L20.7,51.8C20.4,52,20,52.7,20,53.3v68.6l70.5-40.7l0,0c0.3-0.2,0.7-0.9,0.7-1.5V11z"/>
						</g>
						<g>
							<path class="st0" d="M32,90.8c-0.3,0-0.5-0.1-0.7-0.3c-0.1-0.1-0.2-0.2-0.2-0.3S31,90,31,89.8c0-0.3,0.1-0.5,0.3-0.7
								c0.3-0.3,0.7-0.4,1.1-0.2c0.1,0.1,0.2,0.1,0.3,0.2c0.2,0.2,0.3,0.4,0.3,0.7c0,0.1,0,0.3-0.1,0.4s-0.1,0.2-0.2,0.3
								c-0.1,0.1-0.2,0.2-0.3,0.2S32.1,90.8,32,90.8z"/>
							<path class="st0" d="M48.5,100.5c-0.5-0.3-0.6-0.9-0.4-1.4l0,0c0.3-0.5,0.9-0.6,1.4-0.4l0,0c0.5,0.3,0.6,0.9,0.4,1.4l0,0
								c-0.2,0.3-0.5,0.5-0.9,0.5l0,0C48.8,100.6,48.7,100.6,48.5,100.5z M42.8,97.2c-0.5-0.3-0.6-0.9-0.4-1.4l0,0
								c0.3-0.5,0.9-0.6,1.4-0.4l0,0c0.5,0.3,0.6,0.9,0.4,1.4l0,0c-0.2,0.3-0.5,0.5-0.9,0.5l0,0C43.2,97.4,43,97.3,42.8,97.2z
								 M37.2,94c-0.5-0.3-0.6-0.9-0.4-1.4l0,0c0.3-0.5,0.9-0.6,1.4-0.4l0,0c0.5,0.3,0.6,0.9,0.4,1.4l0,0c-0.2,0.3-0.5,0.5-0.9,0.5
								l0,0C37.5,94.1,37.3,94.1,37.2,94z"/>
							<path class="st0" d="M54.7,103.9c-0.3,0-0.5-0.1-0.7-0.3c-0.2-0.2-0.3-0.4-0.3-0.7c0-0.1,0-0.3,0.1-0.4
								c0-0.1,0.1-0.2,0.2-0.3c0.1-0.1,0.2-0.2,0.3-0.2c0.2-0.1,0.4-0.1,0.6-0.1c0.1,0,0.1,0,0.2,0.1c0.1,0,0.1,0,0.2,0.1l0.1,0.1
								c0.1,0.1,0.2,0.2,0.2,0.3c0.1,0.1,0.1,0.2,0.1,0.4s0,0.3-0.1,0.4c0,0.1-0.1,0.2-0.2,0.3c-0.1,0.1-0.2,0.2-0.3,0.2
								C55,103.9,54.8,103.9,54.7,103.9z"/>
						</g>
						<path class="st0" d="M19.7,124c-0.2,0-0.4,0-0.7-0.1c-0.1,0-0.1,0-0.2-0.1l-8.4-4.9c-0.1,0-0.1-0.1-0.2-0.1
							c-0.5-0.4-0.8-1-0.8-1.7V48.4c0-1.3,0.7-2.6,1.7-3.2l71-40.9c0.5-0.3,1.1-0.4,1.6-0.1c0.1,0,0.1,0,0.2,0.1l8.4,4.9
							c0.1,0,0.1,0.1,0.2,0.1c0.5,0.4,0.8,1,0.8,1.7v68.7c0,1.3-0.7,2.6-1.7,3.2l-70.8,40.9C20.4,123.9,20,124,19.7,124z
							 M11.6,117.3l8.1,4.7l70.8-40.9c0.3-0.2,0.7-0.9,0.7-1.5V10.9c0-0.1,0-0.1,0-0.2l0,0L83,6L12.3,46.9c-0.3,0.2-0.7,0.9-0.7,1.5
							v68.7C11.5,117.2,11.6,117.2,11.6,117.3C11.6,117.2,11.6,117.3,11.6,117.3z M91.3,10.8L91.3,10.8L91.3,10.8z"/>
						<g>
							<path class="st0" d="M92.2,20.7v-9.8c0-0.9-0.5-1.3-1.2-0.9L20.2,50.9c-0.7,0.4-1.2,1.4-1.2,2.3V63L92.2,20.7z"/>
							<path class="st0" d="M19,64c-0.2,0-0.3,0-0.5-0.1C18.2,63.7,18,63.4,18,63v-9.8c0-1.3,0.7-2.6,1.7-3.2L90.5,9.1
								c0.6-0.4,1.3-0.4,1.8-0.1c0.6,0.3,0.9,1,0.9,1.9v9.8c0,0.4-0.2,0.7-0.5,0.9L19.5,63.9C19.3,64,19.1,64,19,64z M91.2,11
								L20.7,51.8C20.4,52,20,52.7,20,53.3v8.1l71.3-41.1V11H91.2z M92.2,20.7L92.2,20.7L92.2,20.7z"/>
						</g>
						<g>
							
								<ellipse transform="matrix(0.3916 -0.9201 0.9201 0.3916 -26.8101 59.8388)" class="st4" cx="31.8" cy="50.2" rx="2.1" ry="1.2"/>
							
								<ellipse transform="matrix(0.3916 -0.9201 0.9201 0.3916 -20.7736 62.8415)" class="st2" cx="37.1" cy="47.1" rx="2.1" ry="1.2"/>
							
								<ellipse transform="matrix(0.3916 -0.9201 0.9201 0.3916 -33.0801 56.6851)" class="st3" cx="26.3" cy="53.4" rx="2.1" ry="1.2"/>
						</g>
						<g>
							<path class="st5" d="M52.4,94.6c-0.2,0-0.3,0-0.5-0.1c-0.3-0.2-0.5-0.5-0.5-0.9v-23c0-0.4,0.2-0.7,0.5-0.9l26.7-15.4
								c0.3-0.2,0.7-0.2,1,0s0.5,0.5,0.5,0.9v23c0,0.4-0.2,0.7-0.5,0.9L52.9,94.5C52.8,94.6,52.6,94.6,52.4,94.6z M53.4,71.2v20.7
								l24.7-14.3V56.9L53.4,71.2z"/>
							<path class="st5" d="M32,90.8c-0.2,0-0.3,0-0.5-0.1c-0.3-0.2-0.5-0.5-0.5-0.9v-23c0-0.4,0.2-0.7,0.5-0.9l26.7-15.4
								c0.3-0.2,0.7-0.2,1,0s0.5,0.5,0.5,0.9v23c0,0.4-0.2,0.7-0.5,0.9L32.5,90.7C32.3,90.8,32.2,90.8,32,90.8z M33,67.4v20.7
								l24.7-14.3V53.1L33,67.4z"/>
						</g>
						<g>
							<g>
								<polygon class="st2" points="111.9,74 117.5,77.2 97,89.1 97,82.6 								"/>
								<path class="st3" d="M97,90.1c-0.2,0-0.3,0-0.5-0.1c-0.3-0.2-0.5-0.5-0.5-0.9v-6.5c0-0.4,0.2-0.7,0.5-0.9l14.9-8.6
									c0.3-0.2,0.7-0.2,1,0l5.6,3.2c0.3,0.2,0.5,0.5,0.5,0.9s-0.2,0.7-0.5,0.9L97.5,89.9C97.3,90,97.2,90.1,97,90.1z M98,83.2v4.1
									l17.5-10.1l-3.6-2.1L98,83.2z"/>
							</g>
							<g>
								<polygon class="st2" points="85.1,112.5 90.7,115.7 90.7,100.4 85.1,103.3 								"/>
								<path class="st3" d="M90.7,116.7c-0.2,0-0.3,0-0.5-0.1l-5.6-3.2c-0.3-0.2-0.5-0.5-0.5-0.9v-9.1c0-0.4,0.2-0.7,0.5-0.9
									l5.6-2.9c0.3-0.2,0.7-0.1,1,0c0.3,0.2,0.5,0.5,0.5,0.9v15.2c0,0.4-0.2,0.7-0.5,0.9C91.1,116.6,90.9,116.7,90.7,116.7z
									 M86.1,111.9l3.6,2.1v-11.9l-3.6,1.9V111.9z"/>
							</g>
							<g>
								<polygon class="st2" points="70.3,88.9 70.3,111.9 97,96.5 97,73.5 								"/>
								<path class="st3" d="M70.3,112.9c-0.2,0-0.3,0-0.5-0.1c-0.3-0.2-0.5-0.5-0.5-0.9v-23c0-0.4,0.2-0.7,0.5-0.9l26.7-15.4
									c0.3-0.2,0.7-0.2,1,0s0.5,0.5,0.5,0.9v23c0,0.4-0.2,0.7-0.5,0.9l-26.7,15.4C70.6,112.9,70.4,112.9,70.3,112.9z M71.3,89.5
									v20.7L96,95.9V75.2L71.3,89.5z"/>
							</g>
							<polygon class="st4" points="90.7,92.7 90.7,115.7 117.5,100.3 117.5,77.2 							"/>
							<g>
								<polygon class="st2" points="90.7,92.7 90.7,115.7 117.5,100.3 117.5,77.2 								"/>
								<path class="st3" d="M90.7,116.7c-0.2,0-0.3,0-0.5-0.1c-0.3-0.2-0.5-0.5-0.5-0.9v-23c0-0.4,0.2-0.7,0.5-0.9L117,76.4
									c0.3-0.2,0.7-0.2,1,0s0.5,0.5,0.5,0.9v23c0,0.4-0.2,0.7-0.5,0.9l-26.7,15.4C91.1,116.6,90.9,116.7,90.7,116.7z M91.7,93.3
									V114l24.7-14.3V79L91.7,93.3z"/>
							</g>
							<g>
								<polygon class="st2" points="91.4,70.2 97,73.5 70.3,88.9 64.7,85.7 								"/>
								<path class="st3" d="M70.3,89.9c-0.2,0-0.3,0-0.5-0.1l-5.6-3.2c-0.3-0.2-0.5-0.5-0.5-0.9s0.2-0.7,0.5-0.9l26.7-15.4
									c0.3-0.2,0.7-0.2,1,0l5.6,3.2c0.3,0.2,0.5,0.5,0.5,0.9s-0.2,0.7-0.5,0.9L70.8,89.8C70.6,89.9,70.4,89.9,70.3,89.9z
									 M66.7,85.7l3.6,2.1L95,73.5l-3.6-2.1L66.7,85.7z"/>
							</g>
							<g>
								<polygon class="st2" points="64.7,108.7 70.3,111.9 70.3,88.9 64.7,85.7 								"/>
								<path class="st3" d="M70.3,112.9c-0.2,0-0.3,0-0.5-0.1l-5.6-3.2c-0.3-0.2-0.5-0.5-0.5-0.9v-23c0-0.4,0.2-0.7,0.5-0.9
									c0.3-0.2,0.7-0.2,1,0l5.6,3.2c0.3,0.2,0.5,0.5,0.5,0.9v23c0,0.4-0.2,0.7-0.5,0.9C70.6,112.9,70.4,112.9,70.3,112.9z
									 M65.7,108.1l3.6,2.1V89.5l-3.6-2.1V108.1z"/>
							</g>
							<path class="st3" d="M90.7,101.1c-0.2,0-0.3,0-0.5-0.1c-0.3-0.2-0.5-0.5-0.5-0.9v-7.4c0-0.4,0.2-0.7,0.5-0.9l6.3-3.6
								c0.3-0.2,0.7-0.2,1,0s0.5,0.5,0.5,0.9v7.4c0,0.4-0.2,0.7-0.5,0.9l-6.3,3.6C91.1,101.1,90.9,101.1,90.7,101.1z M91.7,93.3v5.1
								l4.3-2.5v-5.1L91.7,93.3z M97,96.5L97,96.5L97,96.5z"/>
						</g>
						<path class="st0" d="M90.7,116.7c-0.2,0-0.3,0-0.5-0.1l-5.6-3.2c-0.3-0.2-0.5-0.5-0.5-0.9v-7.4l-13.4,7.7
							c-0.3,0.2-0.7,0.2-1,0l-5.6-3.2c-0.3-0.2-0.5-0.5-0.5-0.9v-23c0-0.4,0.2-0.7,0.5-0.9l26.7-15.4c0.3-0.2,0.7-0.2,1,0l5.6,3.2
							c0.3,0.2,0.5,0.5,0.5,0.9v7.4l13.4-7.7c0.3-0.2,0.7-0.2,1,0l5.6,3.2c0.3,0.2,0.5,0.5,0.5,0.9v23c0,0.4-0.2,0.7-0.5,0.9
							l-26.7,15.4C91.1,116.7,90.9,116.7,90.7,116.7z M86.1,111.9l4.6,2.7l25.7-14.9V77.8l-4.6-2.7l-14.4,8.3c-0.3,0.2-0.7,0.2-1,0
							s-0.5-0.5-0.5-0.9V74l-4.6-2.7L65.7,86.2v21.9l4.6,2.7l14.4-8.3c0.3-0.2,0.7-0.2,1,0s0.5,0.5,0.5,0.9L86.1,111.9L86.1,111.9z"
							/>
						<g>
							<path class="st1" d="M83.6,58.7c-0.3,0-0.5-0.1-0.7-0.3s-0.3-0.4-0.3-0.7c0-0.1,0-0.3,0.1-0.4c0.1-0.1,0.1-0.2,0.2-0.3
								c0.3-0.3,0.7-0.4,1.1-0.2c0.1,0.1,0.2,0.1,0.3,0.2c0.2,0.2,0.3,0.5,0.3,0.7c0,0.1,0,0.3-0.1,0.4s-0.1,0.2-0.2,0.3
								s-0.2,0.2-0.3,0.2S83.8,58.7,83.6,58.7z"/>
							<path class="st1" d="M87.4,61.1c-0.5-0.3-0.6-0.9-0.4-1.4l0,0c0.3-0.5,0.9-0.6,1.4-0.4l0,0c0.5,0.3,0.6,0.9,0.4,1.4l0,0
								c-0.2,0.3-0.5,0.5-0.9,0.5l0,0C87.8,61.2,87.6,61.1,87.4,61.1z"/>
							<path class="st1" d="M92.2,63.7c-0.3,0-0.5-0.1-0.7-0.3s-0.3-0.4-0.3-0.7s0.1-0.5,0.3-0.7c0.4-0.4,1-0.4,1.4,0
								c0.2,0.2,0.3,0.4,0.3,0.7s-0.1,0.5-0.3,0.7S92.5,63.7,92.2,63.7z"/>
						</g>
					</g>
					<rect x="4" y="4" class="st6" width="120" height="120"/>
					<rect x="4" y="4" class="st6" width="120" height="120"/>
				</g>
			</g>
		</g>
	</g>
	<g>
		<rect class="st6" width="128" height="128"/>
	</g>
</g>
</svg>
