<?xml version="1.0" encoding="utf-8"?>
<!-- Generator: Adobe Illustrator 24.1.0, SVG Export Plug-In . SVG Version: 6.00 Build 0)  -->
<svg version="1.1" id="Layer_1" xmlns="http://www.w3.org/2000/svg" xmlns:xlink="http://www.w3.org/1999/xlink" x="0px" y="0px"
	 viewBox="0 0 128 128" style="enable-background:new 0 0 128 128;" xml:space="preserve">
<style type="text/css">
	.st0{fill:none;}
	.st1{fill:#27ae60;}
	.st2{fill:#4D9987;}
	.st3{fill:#FFFFFF;}
	.st4{fill:#185849;}
	.st5{fill:#0E352C;}
</style>
<g id="Layer_1_1_">
</g>
<g>
	<g id="Layer_2_1_">
		<g id="Objects_1_">
			<g>
				<rect x="4" y="4" class="st0" width="120" height="120"/>
				<g>
					<g>
						<g>
							<g>
								<g>
									<path class="st1" d="M109.8,69.4c-0.3,0-0.5-0.1-0.7-0.3C109,69,109,69,109,68.9s-0.1-0.1-0.1-0.2s0-0.1,0-0.2s0-0.1,0-0.2
										c0-0.3,0.1-0.5,0.3-0.7c0.3-0.3,0.7-0.4,1.1-0.2c0.1,0.1,0.2,0.1,0.3,0.2c0.2,0.2,0.3,0.5,0.3,0.7c0,0.1,0,0.1,0,0.2
										s0,0.1-0.1,0.2c0,0.1-0.1,0.1-0.1,0.2s-0.1,0.1-0.1,0.2c-0.1,0.1-0.2,0.2-0.3,0.2C110.1,69.3,110,69.4,109.8,69.4z"/>
									<path class="st1" d="M118.1,74.3c-0.5-0.3-0.6-0.9-0.4-1.4l0,0c0.3-0.5,0.9-0.6,1.4-0.4l0,0c0.5,0.3,0.6,0.9,0.4,1.4l0,0
										c-0.2,0.3-0.5,0.5-0.9,0.5l0,0C118.4,74.4,118.3,74.4,118.1,74.3z M113.7,71.8c-0.5-0.3-0.6-0.9-0.4-1.4l0,0
										c0.3-0.5,0.9-0.7,1.4-0.4l0,0c0.5,0.3,0.6,0.9,0.4,1.4l0,0c-0.2,0.3-0.5,0.5-0.9,0.5l0,0C114,71.9,113.9,71.9,113.7,71.8z"
										/>
									<path class="st1" d="M123,77c-0.3,0-0.5-0.1-0.7-0.3c0,0-0.1-0.1-0.1-0.2c0,0-0.1-0.1-0.1-0.2s0-0.1-0.1-0.2
										c0-0.1,0-0.1,0-0.2s0-0.1,0-0.2s0-0.1,0.1-0.2c0-0.1,0-0.1,0.1-0.2c0,0,0.1-0.1,0.1-0.2c0.4-0.4,1-0.4,1.4,0
										c0,0,0.1,0.1,0.1,0.2s0.1,0.1,0.1,0.2s0.1,0.1,0.1,0.2s0,0.1,0,0.2s0,0.1,0,0.2s0,0.1-0.1,0.2c0,0.1,0,0.1-0.1,0.2
										c0,0.1-0.1,0.1-0.1,0.2C123.5,76.9,123.3,77,123,77z"/>
								</g>
								<g>
									<path class="st1" d="M88.8,86.9c-0.3,0-0.5-0.1-0.7-0.3c-0.2-0.2-0.3-0.5-0.3-0.7s0.1-0.5,0.3-0.7c0.4-0.4,1.1-0.4,1.4,0
										c0.2,0.2,0.3,0.4,0.3,0.7c0,0.1,0,0.1,0,0.2s0,0.1-0.1,0.2c0,0.1-0.1,0.1-0.1,0.2s-0.1,0.1-0.1,0.2
										C89.3,86.8,89.1,86.9,88.8,86.9z"/>
									<path class="st1" d="M92.6,89.2c-0.5-0.3-0.6-0.9-0.4-1.4l0,0c0.3-0.5,0.9-0.7,1.4-0.4l0,0c0.5,0.3,0.6,0.9,0.4,1.4l0,0
										c-0.2,0.3-0.5,0.5-0.9,0.5l0,0C92.9,89.3,92.7,89.3,92.6,89.2z"/>
									<path class="st1" d="M97.3,91.8c-0.3,0-0.5-0.1-0.7-0.3c-0.2-0.2-0.3-0.4-0.3-0.7c0-0.3,0.1-0.5,0.3-0.7
										c0.3-0.3,0.7-0.4,1.1-0.2c0.1,0.1,0.2,0.1,0.3,0.2c0,0,0.1,0.1,0.1,0.2c0,0,0.1,0.1,0.1,0.2s0,0.1,0.1,0.2
										c0,0.1,0,0.1,0,0.2s0,0.1,0,0.2s0,0.1-0.1,0.2c0,0.1-0.1,0.1-0.1,0.2L98,91.6c-0.1,0.1-0.2,0.2-0.3,0.2
										C97.6,91.8,97.5,91.8,97.3,91.8z"/>
								</g>
								<g>
									<path class="st1" d="M123,61.8c-0.3,0-0.5-0.1-0.7-0.3c0,0-0.1-0.1-0.1-0.2c0-0.1-0.1-0.1-0.1-0.2c0-0.1,0-0.1-0.1-0.2
										c0-0.1,0-0.1,0-0.2c0-0.1,0-0.1,0-0.2c0-0.1,0-0.1,0.1-0.2c0-0.1,0-0.1,0.1-0.2c0-0.1,0.1-0.1,0.1-0.2c0.4-0.4,1-0.4,1.4,0
										c0,0,0.1,0.1,0.1,0.2c0,0,0.1,0.1,0.1,0.2c0,0.1,0.1,0.1,0.1,0.2c0,0.1,0,0.1,0,0.2c0,0.1,0,0.1,0,0.2c0,0.1,0,0.1-0.1,0.2
										c0,0.1,0,0.1-0.1,0.2c0,0.1-0.1,0.1-0.1,0.2C123.5,61.7,123.3,61.8,123,61.8z"/>
									<path class="st1" d="M113.3,66.3c-0.3-0.5-0.1-1.1,0.4-1.4l0,0c0.5-0.3,1.1-0.1,1.4,0.4l0,0c0.3,0.5,0.1,1.1-0.4,1.4l0,0
										c-0.2,0.1-0.3,0.1-0.5,0.1l0,0C113.9,66.8,113.5,66.7,113.3,66.3z M117.7,63.8c-0.3-0.5-0.1-1.1,0.4-1.4l0,0
										c0.5-0.3,1.1-0.1,1.4,0.4l0,0c0.3,0.5,0.1,1.1-0.4,1.4l0,0c-0.2,0.1-0.3,0.1-0.5,0.1l0,0C118.3,64.3,117.9,64.1,117.7,63.8
										z"/>
									<path class="st1" d="M109.8,69.4c-0.3,0-0.5-0.1-0.7-0.3C109,69,109,69,109,68.9s-0.1-0.1-0.1-0.2s0-0.1,0-0.2s0-0.1,0-0.2
										c0-0.3,0.1-0.5,0.3-0.7c0.3-0.3,0.7-0.4,1.1-0.2c0.1,0.1,0.2,0.1,0.3,0.2c0.2,0.2,0.3,0.5,0.3,0.7c0,0.1,0,0.1,0,0.2
										s0,0.1-0.1,0.2c0,0.1-0.1,0.1-0.1,0.2s-0.1,0.1-0.1,0.2c-0.1,0.1-0.2,0.2-0.3,0.2C110.1,69.3,110,69.4,109.8,69.4z"/>
								</g>
								<g>
									<path class="st2" d="M47.6,61.8c-0.1,0-0.3,0-0.4-0.1c-0.1-0.1-0.2-0.1-0.3-0.2c-0.2-0.2-0.3-0.4-0.3-0.7s0.1-0.5,0.3-0.7
										c0.4-0.4,1-0.4,1.4,0c0.2,0.2,0.3,0.4,0.3,0.7c0,0.1,0,0.1,0,0.2c0,0.1,0,0.1-0.1,0.2c0,0.1,0,0.1-0.1,0.2
										c0,0.1-0.1,0.1-0.1,0.2C48.1,61.7,47.9,61.8,47.6,61.8z"/>
									<path class="st2" d="M55.9,66.7c-0.5-0.3-0.6-0.9-0.4-1.4l0,0c0.3-0.5,0.9-0.7,1.4-0.4l0,0c0.5,0.3,0.7,0.9,0.4,1.4l0,0
										c-0.2,0.3-0.5,0.5-0.9,0.5l0,0C56.2,66.8,56.1,66.8,55.9,66.7z M51.5,64.2c-0.5-0.3-0.6-0.9-0.4-1.4l0,0
										c0.3-0.5,0.9-0.6,1.4-0.4l0,0c0.5,0.3,0.6,0.9,0.4,1.4l0,0c-0.2,0.3-0.5,0.5-0.9,0.5l0,0C51.8,64.3,51.7,64.3,51.5,64.2z"
										/>
									<path class="st2" d="M60.8,69.4c-0.1,0-0.3,0-0.4-0.1c-0.1,0-0.2-0.1-0.3-0.2C60,69,60,69,60,68.9s-0.1-0.1-0.1-0.2
										s0-0.1-0.1-0.2c0-0.1,0-0.1,0-0.2c0-0.3,0.1-0.5,0.3-0.7s0.6-0.3,0.9-0.3c0.1,0,0.1,0,0.2,0.1c0.1,0,0.1,0.1,0.2,0.1
										l0.1,0.1c0.1,0.1,0.2,0.2,0.2,0.3c0,0.1,0.1,0.2,0.1,0.4c0,0.3-0.1,0.5-0.3,0.7C61.3,69.3,61.1,69.4,60.8,69.4z"/>
								</g>
								<g>
									<path class="st2" d="M60.8,69.4c-0.1,0-0.3,0-0.4-0.1c-0.1,0-0.2-0.1-0.3-0.2C60,69,60,69,60,68.9s-0.1-0.1-0.1-0.2
										s0-0.1-0.1-0.2c0-0.1,0-0.1,0-0.2c0-0.3,0.1-0.5,0.3-0.7s0.6-0.3,0.9-0.3c0.1,0,0.1,0,0.2,0.1c0.1,0,0.1,0.1,0.2,0.1
										l0.1,0.1c0.1,0.1,0.2,0.2,0.2,0.3c0,0.1,0.1,0.2,0.1,0.4c0,0.3-0.1,0.5-0.3,0.7C61.3,69.3,61.1,69.4,60.8,69.4z"/>
									<path class="st2" d="M51.1,73.9c-0.3-0.5-0.1-1.1,0.4-1.4l0,0c0.5-0.3,1.1-0.1,1.4,0.4l0,0c0.3,0.5,0.1,1.1-0.4,1.4l0,0
										c-0.2,0.1-0.3,0.1-0.5,0.1l0,0C51.7,74.4,51.3,74.3,51.1,73.9z M55.5,71.4c-0.3-0.5-0.1-1.1,0.4-1.4l0,0
										c0.5-0.3,1.1-0.1,1.4,0.4l0,0c0.3,0.5,0.1,1.1-0.4,1.4l0,0c-0.1,0.1-0.3,0.1-0.5,0.1l0,0C56.1,71.9,55.7,71.7,55.5,71.4z"
										/>
									<path class="st2" d="M47.6,77c-0.3,0-0.5-0.1-0.7-0.3c-0.2-0.2-0.3-0.4-0.3-0.7c0-0.1,0-0.3,0.1-0.4c0-0.1,0.1-0.2,0.2-0.3
										c0.1-0.1,0.2-0.2,0.3-0.2c0.4-0.2,0.8-0.1,1.1,0.2c0.1,0.1,0.2,0.2,0.2,0.3c0.1,0.1,0.1,0.3,0.1,0.4c0,0.3-0.1,0.5-0.3,0.7
										C48.1,76.9,47.9,77,47.6,77z"/>
								</g>
								<g>
									<path class="st3" d="M61,69c0.1,0.2,0.3,0.3,0.6,0.5l10.9,6.3L83.3,82c0.3,0.2,0.6,0.3,1,0.4c0.3,0.1,0.7,0.1,1,0.1
										s0.7,0,1-0.1s0.7-0.2,1-0.4l10.9-6.3l10.9-6.3c0.2-0.1,0.4-0.3,0.6-0.5s0.3-0.4,0.3-0.7V47V25.6c0-0.2-0.1-0.5-0.3-0.7
										c-0.1-0.2-0.3-0.3-0.6-0.5l-10.9-6.3l-10.9-6.3c-0.5-0.3-1.3-0.5-2-0.5s-1.4,0.2-2,0.5l-10.9,6.3l-10.9,6.3
										c-0.2,0.1-0.4,0.3-0.6,0.5c-0.2,0.2-0.3,0.4-0.3,0.7V47v21.4C60.8,68.6,60.9,68.8,61,69z"/>
								</g>
								<g>
									<g>
										<g>
											<path class="st1" d="M79.2,80.7c-0.3,0-0.5-0.1-0.7-0.3c-0.2-0.2-0.3-0.4-0.3-0.7s0.1-0.5,0.3-0.7c0.4-0.4,1-0.4,1.4,0
												c0.2,0.2,0.3,0.4,0.3,0.7s-0.1,0.5-0.3,0.7C79.8,80.6,79.5,80.7,79.2,80.7z"/>
											<path class="st1" d="M78.3,73.7c0-0.6,0.4-1,1-1l0,0c0.6,0,1,0.4,1,1l0,0c0,0.6-0.5,1-1,1l0,0
												C78.7,74.7,78.3,74.2,78.3,73.7z M78.3,67.7c0-0.6,0.4-1,1-1l0,0c0.6,0,1,0.4,1,1l0,0c0,0.6-0.5,1-1,1l0,0
												C78.7,68.7,78.3,68.2,78.3,67.7z M66.2,66.7c0-0.6,0.4-1,1-1l0,0c0.6,0,1,0.4,1,1l0,0c0,0.5-0.4,1-1,1l0,0
												C66.6,67.7,66.2,67.3,66.2,66.7z M78.3,61.6c0-0.6,0.4-1,1-1l0,0c0.6,0,1,0.5,1,1l0,0c0,0.6-0.5,1-1,1l0,0
												C78.7,62.6,78.3,62.2,78.3,61.6z M66.2,60.7c0-0.6,0.4-1,1-1l0,0c0.6,0,1,0.4,1,1l0,0c0,0.6-0.4,1-1,1l0,0
												C66.6,61.7,66.2,61.2,66.2,60.7z M78.3,55.6c0-0.6,0.4-1,1-1l0,0c0.6,0,1,0.4,1,1l0,0c0,0.6-0.5,1-1,1l0,0
												C78.7,56.6,78.3,56.2,78.3,55.6z M66.2,54.7c0-0.5,0.4-1,1-1l0,0c0.6,0,1,0.5,1,1l0,0c0,0.6-0.4,1-1,1l0,0
												C66.6,55.7,66.2,55.2,66.2,54.7z M77.8,50.2c-0.3-0.5-0.1-1.1,0.3-1.4l0,0c0.5-0.3,1.1-0.1,1.4,0.3l0,0
												c0.3,0.5,0.1,1.1-0.3,1.4l0,0c-0.2,0.1-0.3,0.1-0.5,0.1l0,0C78.3,50.7,78,50.5,77.8,50.2z M66.2,48.6c0-0.5,0.4-1,1-1
												l0,0c0.6,0,1,0.5,1,1l0,0c0,0.6-0.4,1-1,1l0,0C66.6,49.6,66.2,49.2,66.2,48.6z M73.2,47.2c-0.5-0.3-0.6-0.9-0.4-1.4l0,0
												c0.3-0.5,0.9-0.6,1.4-0.4l0,0c0.5,0.3,0.6,0.9,0.4,1.4l0,0c-0.2,0.3-0.5,0.5-0.9,0.5l0,0C73.5,47.3,73.4,47.3,73.2,47.2z
												 M68.2,44.4c-0.5-0.1-0.9-0.6-0.8-1.2l0,0c0.1-0.5,0.6-0.9,1.2-0.8l0,0c0.5,0.1,0.9,0.7,0.8,1.2l0,0
												c-0.1,0.5-0.5,0.8-1,0.8l0,0C68.4,44.4,68.3,44.4,68.2,44.4z"/>
											<path class="st1" d="M67.2,73.7c-0.1,0-0.1,0-0.2,0s-0.1,0-0.2-0.1c-0.1,0-0.1-0.1-0.2-0.1l-0.1-0.1
												c-0.2-0.2-0.3-0.4-0.3-0.7c0-0.1,0-0.3,0.1-0.4c0-0.1,0.1-0.2,0.2-0.3c0.3-0.3,0.7-0.4,1.1-0.2c0.1,0.1,0.2,0.1,0.3,0.2
												c0.1,0.1,0.2,0.2,0.2,0.3c0.1,0.1,0.1,0.2,0.1,0.4c0,0.3-0.1,0.5-0.3,0.7C67.7,73.6,67.5,73.7,67.2,73.7z"/>
										</g>
										<g>
											<g>
												<path class="st1" d="M91.6,46.3c-0.3,0-0.5-0.1-0.7-0.3c-0.1-0.1-0.2-0.2-0.2-0.3c-0.1-0.1-0.1-0.2-0.1-0.4
													c0-0.3,0.1-0.5,0.3-0.7c0.4-0.4,1-0.4,1.4,0c0.2,0.2,0.3,0.4,0.3,0.7c0,0.1,0,0.3-0.1,0.4c-0.1,0.1-0.1,0.2-0.2,0.3
													C92.1,46.2,91.9,46.3,91.6,46.3z"/>
												<path class="st1" d="M95.1,43.3c-0.3-0.5-0.1-1.1,0.4-1.4l0,0c0.5-0.3,1.1-0.1,1.4,0.4l0,0c0.3,0.5,0.1,1.1-0.4,1.4l0,0
													c-0.2,0.1-0.3,0.1-0.5,0.1l0,0C95.6,43.8,95.3,43.6,95.1,43.3z M99.5,40.8c-0.3-0.5-0.1-1.1,0.4-1.4l0,0
													c0.5-0.3,1.1-0.1,1.4,0.4l0,0c0.3,0.5,0.1,1.1-0.4,1.4l0,0c-0.1,0.1-0.3,0.1-0.5,0.1l0,0C100,41.3,99.6,41.1,99.5,40.8z
													"/>
												<path class="st1" d="M104.7,38.8c-0.3,0-0.5-0.1-0.7-0.3c-0.1-0.1-0.2-0.2-0.2-0.3s-0.1-0.2-0.1-0.4
													c0-0.1,0-0.3,0.1-0.4c0-0.1,0.1-0.2,0.2-0.3c0.4-0.4,1-0.4,1.4,0c0.1,0.1,0.2,0.2,0.2,0.3s0.1,0.2,0.1,0.4
													c0,0.1,0,0.3-0.1,0.4c-0.1,0.1-0.1,0.2-0.2,0.3C105.2,38.7,104.9,38.8,104.7,38.8z"/>
											</g>
											<g>
												<path class="st1" d="M91.6,54.9c-0.3,0-0.5-0.1-0.7-0.3s-0.3-0.4-0.3-0.7s0.1-0.5,0.3-0.7c0.4-0.4,1-0.4,1.4,0
													c0.2,0.2,0.3,0.4,0.3,0.7s-0.1,0.5-0.3,0.7C92.1,54.8,91.9,54.9,91.6,54.9z"/>
												<path class="st1" d="M95.1,51.9c-0.3-0.5-0.1-1.1,0.4-1.4l0,0c0.5-0.3,1.1-0.1,1.4,0.4l0,0c0.3,0.5,0.1,1.1-0.4,1.4l0,0
													c-0.2,0.1-0.3,0.1-0.5,0.1l0,0C95.6,52.4,95.3,52.2,95.1,51.9z M99.5,49.3c-0.3-0.5-0.1-1.1,0.4-1.4l0,0
													c0.5-0.3,1.1-0.1,1.4,0.4l0,0c0.3,0.5,0.1,1.1-0.4,1.4l0,0c-0.1,0.1-0.3,0.1-0.5,0.1l0,0C100,49.8,99.6,49.7,99.5,49.3z
													"/>
												<path class="st1" d="M104.7,47.3c-0.3,0-0.5-0.1-0.7-0.3c-0.1-0.1-0.2-0.2-0.2-0.3s-0.1-0.2-0.1-0.4s0-0.3,0.1-0.4
													s0.1-0.2,0.2-0.3c0.4-0.4,1-0.4,1.4,0c0.1,0.1,0.2,0.2,0.2,0.3s0.1,0.2,0.1,0.4s0,0.3-0.1,0.4c-0.1,0.1-0.1,0.2-0.2,0.3
													C105.2,47.2,104.9,47.3,104.7,47.3z"/>
											</g>
											<g>
												<path class="st1" d="M91.6,63.4c-0.3,0-0.5-0.1-0.7-0.3c-0.1-0.1-0.2-0.2-0.2-0.3c-0.1-0.1-0.1-0.2-0.1-0.4
													c0-0.3,0.1-0.5,0.3-0.7c0.4-0.4,1-0.4,1.4,0c0.2,0.2,0.3,0.4,0.3,0.7c0,0.1,0,0.3-0.1,0.4c-0.1,0.1-0.1,0.2-0.2,0.3
													C92.1,63.3,91.9,63.4,91.6,63.4z"/>
												<path class="st1" d="M95.1,60.4c-0.3-0.5-0.1-1.1,0.4-1.4l0,0c0.5-0.3,1.1-0.1,1.4,0.4l0,0c0.3,0.5,0.1,1.1-0.4,1.4l0,0
													c-0.2,0.1-0.3,0.1-0.5,0.1l0,0C95.6,60.9,95.3,60.7,95.1,60.4z M99.5,57.9c-0.3-0.5-0.1-1.1,0.4-1.4l0,0
													c0.5-0.3,1.1-0.1,1.4,0.4l0,0c0.3,0.5,0.1,1.1-0.4,1.4l0,0c-0.1,0.1-0.3,0.1-0.5,0.1l0,0C100,58.4,99.6,58.2,99.5,57.9z
													"/>
												<path class="st1" d="M104.7,55.9c-0.3,0-0.5-0.1-0.7-0.3s-0.3-0.5-0.3-0.7c0-0.1,0-0.3,0.1-0.4c0-0.1,0.1-0.2,0.2-0.3
													c0.4-0.4,1-0.4,1.4,0c0.1,0.1,0.2,0.2,0.2,0.3s0.1,0.2,0.1,0.4c0,0.3-0.1,0.5-0.3,0.7C105.2,55.8,104.9,55.9,104.7,55.9
													z"/>
											</g>
											<g>
												<path class="st1" d="M91.6,72c-0.3,0-0.5-0.1-0.7-0.3c-0.2-0.2-0.3-0.4-0.3-0.7c0-0.3,0.1-0.5,0.3-0.7
													c0.4-0.4,1-0.4,1.4,0c0.2,0.2,0.3,0.4,0.3,0.7c0,0.3-0.1,0.5-0.3,0.7C92.1,71.9,91.9,72,91.6,72z"/>
												<path class="st1" d="M95.1,69c-0.3-0.5-0.1-1.1,0.4-1.4l0,0c0.5-0.3,1.1-0.1,1.4,0.4l0,0c0.3,0.5,0.1,1.1-0.4,1.4l0,0
													c-0.2,0.1-0.3,0.1-0.5,0.1l0,0C95.6,69.5,95.3,69.3,95.1,69z M99.5,66.5c-0.3-0.5-0.1-1.1,0.4-1.4l0,0
													c0.5-0.3,1.1-0.1,1.4,0.4l0,0c0.3,0.5,0.1,1.1-0.4,1.4l0,0c-0.1,0.1-0.3,0.1-0.5,0.1l0,0C100,67,99.6,66.8,99.5,66.5z"
													/>
												<path class="st1" d="M104.7,64.5c-0.3,0-0.5-0.1-0.7-0.3c-0.1,0-0.1-0.1-0.1-0.2c0,0-0.1-0.1-0.1-0.2
													c0-0.1,0-0.1-0.1-0.2c0-0.1,0-0.1,0-0.2c0-0.3,0.1-0.5,0.3-0.7c0.4-0.4,1-0.4,1.4,0c0.2,0.2,0.3,0.4,0.3,0.7
													c0,0.1,0,0.1,0,0.2c0,0.1,0,0.1-0.1,0.2c0,0.1-0.1,0.1-0.1,0.2s-0.1,0.1-0.1,0.2C105.2,64.3,104.9,64.5,104.7,64.5z"/>
											</g>
										</g>
										<g>
											<path class="st1" d="M60.8,26.6c-0.3,0-0.5-0.1-0.7-0.3c-0.2-0.2-0.3-0.4-0.3-0.7c0-0.1,0-0.1,0-0.2s0-0.1,0.1-0.2
												c0-0.1,0.1-0.1,0.1-0.2s0.1-0.1,0.1-0.2c0.1-0.1,0.2-0.2,0.3-0.2c0.4-0.2,0.8-0.1,1.1,0.2c0.2,0.2,0.3,0.4,0.3,0.7
												c0,0.1,0,0.3-0.1,0.4s-0.1,0.2-0.2,0.3c0,0.1-0.1,0.1-0.1,0.1s-0.1,0.1-0.2,0.1c-0.1,0-0.1,0-0.2,0.1
												C60.9,26.6,60.9,26.6,60.8,26.6z"/>
											<path class="st1" d="M84.3,39.8c0-0.6,0.4-1,1-1l0,0c0.5,0,1,0.5,1,1l0,0c0,0.6-0.5,1-1,1l0,0
												C84.7,40.8,84.3,40.3,84.3,39.8z M89.6,38c-0.3-0.5-0.1-1.1,0.4-1.4l0,0c0.5-0.3,1.1-0.1,1.4,0.4l0,0
												c0.3,0.5,0.1,1.1-0.4,1.4l0,0c-0.2,0.1-0.3,0.1-0.5,0.1l0,0C90.1,38.5,89.8,38.3,89.6,38z M79.7,38.3
												c-0.5-0.3-0.6-0.9-0.4-1.4l0,0c0.3-0.5,0.9-0.6,1.4-0.4l0,0c0.5,0.3,0.6,0.9,0.4,1.4l0,0c-0.2,0.3-0.5,0.5-0.9,0.5l0,0
												C80,38.5,79.8,38.4,79.7,38.3z M94.5,35.1c-0.3-0.5-0.1-1.1,0.4-1.4l0,0c0.5-0.3,1.1-0.1,1.4,0.4l0,0
												c0.3,0.5,0.1,1.1-0.4,1.4l0,0c-0.1,0.1-0.3,0.1-0.5,0.1l0,0C95.1,35.6,94.7,35.4,94.5,35.1z M74.7,35.5
												c-0.5-0.3-0.6-0.9-0.4-1.4l0,0c0.3-0.5,0.9-0.6,1.4-0.4l0,0c0.5,0.3,0.6,0.9,0.4,1.4l0,0c-0.2,0.3-0.5,0.5-0.9,0.5l0,0
												C75,35.6,74.9,35.6,74.7,35.5z M99.5,32.3c-0.3-0.5-0.1-1.1,0.4-1.4l0,0c0.5-0.3,1.1-0.1,1.4,0.4l0,0
												c0.3,0.5,0.1,1.1-0.4,1.4l0,0c-0.2,0.1-0.3,0.1-0.5,0.1l0,0C100,32.7,99.7,32.6,99.5,32.3z M69.7,32.6
												c-0.5-0.3-0.6-0.9-0.4-1.4l0,0c0.3-0.5,0.9-0.6,1.4-0.4l0,0c0.5,0.3,0.6,0.9,0.4,1.4l0,0c-0.2,0.3-0.5,0.5-0.9,0.5l0,0
												C70.1,32.7,69.9,32.7,69.7,32.6z M104.4,29.4c-0.3-0.5-0.1-1.1,0.4-1.4l0,0c0.5-0.3,1.1-0.1,1.4,0.4l0,0
												c0.3,0.5,0.1,1.1-0.4,1.4l0,0c-0.2,0.1-0.3,0.1-0.5,0.1l0,0C105,29.9,104.6,29.7,104.4,29.4z M64.8,29.8
												c-0.5-0.3-0.7-0.9-0.4-1.4l0,0c0.3-0.5,0.9-0.6,1.4-0.4l0,0c0.5,0.3,0.6,0.9,0.4,1.4l0,0c-0.2,0.3-0.5,0.5-0.9,0.5l0,0
												C65.1,29.9,64.9,29.8,64.8,29.8z"/>
											<path class="st1" d="M109.8,26.6c-0.3,0-0.5-0.1-0.7-0.3c-0.2-0.2-0.3-0.4-0.3-0.7c0-0.1,0-0.3,0.1-0.4
												c0-0.1,0.1-0.2,0.2-0.3l0.1-0.1c0.1,0,0.1-0.1,0.2-0.1s0.1,0,0.2-0.1c0.1,0,0.3,0,0.4,0s0.1,0,0.2,0.1
												c0.1,0,0.1,0.1,0.2,0.1s0.1,0.1,0.2,0.1c0.1,0.1,0.2,0.2,0.2,0.3s0.1,0.2,0.1,0.4c0,0.3-0.1,0.5-0.3,0.7
												C110.3,26.5,110.1,26.6,109.8,26.6z"/>
										</g>
										<g>
											<path class="st3" d="M95.9,25.1l-9.7-5.6c-0.5-0.3-1.3-0.3-1.8,0l-9.7,5.6c-0.5,0.3-0.5,0.7,0,1l9.7,5.6
												c0.5,0.3,1.3,0.3,1.8,0l9.7-5.6C96.4,25.8,96.4,25.4,95.9,25.1z"/>
											<path class="st1" d="M85.3,32.9c-0.5,0-1-0.1-1.4-0.3L74.2,27c-0.6-0.3-0.9-0.8-0.9-1.4s0.3-1.1,0.9-1.4l9.7-5.6
												c0.8-0.5,2-0.5,2.8,0l9.7,5.6l0,0c0.6,0.3,0.9,0.8,0.9,1.4S97,26.7,96.4,27l-9.7,5.6C86.3,32.8,85.8,32.9,85.3,32.9z
												 M75.8,25.6l9.1,5.2c0.2,0.1,0.6,0.1,0.8,0l9.1-5.2l-9.1-5.2c-0.2-0.1-0.6-0.1-0.8,0L75.8,25.6z M95.4,26L95.4,26
												l0.5-0.9L95.4,26z"/>
										</g>
									</g>
								</g>
								<g>
									<path class="st4" d="M85.3,83.5c-0.4,0-0.8,0-1.2-0.1c-0.5-0.1-0.9-0.3-1.2-0.5L61.1,70.4c-0.3-0.2-0.6-0.4-0.8-0.7l0,0
										c-0.3-0.4-0.5-0.8-0.5-1.3V25.6c0-0.5,0.2-0.9,0.5-1.3c0.2-0.3,0.5-0.5,0.8-0.7l21.7-12.5c1.4-0.8,3.6-0.8,5,0l21.7,12.5
										c0.3,0.2,0.6,0.4,0.8,0.7c0.3,0.4,0.5,0.8,0.5,1.3v42.7c0,0.5-0.2,0.9-0.5,1.3c-0.2,0.3-0.5,0.5-0.8,0.7L87.8,82.9
										c-0.4,0.2-0.8,0.4-1.2,0.5C86.2,83.5,85.7,83.5,85.3,83.5z M61.8,68.4c0,0,0.1,0.1,0.3,0.2l21.7,12.5
										c0.2,0.1,0.4,0.2,0.7,0.3c0.5,0.1,1.1,0.1,1.6,0c0.3-0.1,0.5-0.1,0.7-0.3l21.7-12.5c0.2-0.1,0.2-0.2,0.3-0.2V25.6
										c-0.1-0.1-0.2-0.2-0.3-0.3L86.8,12.8c-0.7-0.4-2.2-0.4-3,0L62.1,25.3c-0.2,0.1-0.2,0.2-0.3,0.2V68.4L61,69L61.8,68.4z"/>
								</g>
							</g>
						</g>
					</g>
					<g>
						<g>
							<g>
								<g>
									<path class="st2" d="M67.2,95.1c-0.3,0-0.5-0.1-0.7-0.3c-0.1-0.1-0.2-0.2-0.2-0.3c-0.1-0.1-0.1-0.2-0.1-0.4
										c0-0.3,0.1-0.5,0.3-0.7c0.3-0.3,0.7-0.4,1.1-0.2c0.1,0.1,0.2,0.1,0.3,0.2c0.2,0.2,0.3,0.4,0.3,0.7c0,0.1,0,0.3-0.1,0.4
										c0,0.1-0.1,0.2-0.2,0.3c-0.1,0.1-0.2,0.2-0.3,0.2C67.5,95.1,67.3,95.1,67.2,95.1z"/>
									<path class="st2" d="M75.5,100c-0.5-0.3-0.6-0.9-0.4-1.4l0,0c0.3-0.5,0.9-0.7,1.4-0.4l0,0c0.5,0.3,0.6,0.9,0.4,1.4l0,0
										c-0.2,0.3-0.5,0.5-0.9,0.5l0,0C75.8,100.2,75.6,100.1,75.5,100z M71.1,97.5c-0.5-0.3-0.6-0.9-0.4-1.4l0,0
										c0.3-0.5,0.9-0.6,1.4-0.4l0,0c0.5,0.3,0.6,0.9,0.4,1.4l0,0c-0.2,0.3-0.5,0.5-0.9,0.5l0,0C71.4,97.6,71.3,97.6,71.1,97.5z"
										/>
									<path class="st2" d="M80.4,102.7c-0.3,0-0.5-0.1-0.7-0.3c-0.2-0.2-0.3-0.4-0.3-0.7s0.1-0.5,0.3-0.7c0.4-0.4,1-0.4,1.4,0
										c0.2,0.2,0.3,0.5,0.3,0.7s-0.1,0.5-0.3,0.7C80.9,102.6,80.6,102.7,80.4,102.7z"/>
								</g>
								<g>
									<path class="st2" d="M46.2,112.6c-0.3,0-0.5-0.1-0.7-0.3c-0.2-0.2-0.3-0.4-0.3-0.7c0-0.1,0-0.1,0-0.2s0-0.1,0.1-0.2
										c0-0.1,0-0.1,0.1-0.2c0-0.1,0.1-0.1,0.1-0.2c0.3-0.3,0.7-0.4,1.1-0.2c0.1,0,0.2,0.1,0.3,0.2c0.2,0.2,0.3,0.4,0.3,0.7
										c0,0.3-0.1,0.5-0.3,0.7C46.7,112.5,46.5,112.6,46.2,112.6z"/>
									<path class="st2" d="M49.9,115c-0.5-0.3-0.6-0.9-0.4-1.4l0,0c0.3-0.5,0.9-0.6,1.4-0.4l0,0c0.5,0.3,0.6,0.9,0.4,1.4l0,0
										c-0.2,0.3-0.5,0.5-0.9,0.5l0,0C50.3,115.1,50.1,115,49.9,115z"/>
									<path class="st2" d="M54.7,117.5c-0.3,0-0.5-0.1-0.7-0.3c-0.2-0.2-0.3-0.4-0.3-0.7c0-0.3,0.1-0.5,0.3-0.7
										c0.4-0.4,1-0.4,1.4,0c0.2,0.2,0.3,0.4,0.3,0.7c0,0.1,0,0.1,0,0.2s0,0.1-0.1,0.2c0,0.1-0.1,0.1-0.1,0.2s-0.1,0.1-0.1,0.2
										C55.2,117.4,55,117.5,54.7,117.5z"/>
								</g>
								<g>
									<path class="st2" d="M5,87.5c-0.3,0-0.5-0.1-0.7-0.3c0-0.1-0.1-0.1-0.1-0.2s-0.1-0.1-0.1-0.2s0-0.1-0.1-0.2
										c0-0.1,0-0.1,0-0.2s0-0.1,0-0.2s0-0.1,0.1-0.2c0-0.1,0-0.1,0.1-0.2c0-0.1,0.1-0.1,0.1-0.2c0.4-0.4,1-0.4,1.4,0
										c0,0.1,0.1,0.1,0.1,0.2s0.1,0.1,0.1,0.2S6,86.1,6,86.2s0,0.1,0,0.2s0,0.1,0,0.2s0,0.1-0.1,0.2c0,0.1,0,0.1-0.1,0.2
										c0,0.1-0.1,0.1-0.1,0.2C5.5,87.4,5.3,87.5,5,87.5z"/>
									<path class="st2" d="M13.3,92.4c-0.5-0.3-0.6-0.9-0.4-1.4l0,0c0.3-0.5,0.9-0.6,1.4-0.4l0,0c0.5,0.3,0.6,0.9,0.4,1.4l0,0
										c-0.2,0.3-0.5,0.5-0.9,0.5l0,0C13.6,92.6,13.4,92.5,13.3,92.4z M8.9,89.9c-0.5-0.3-0.6-0.9-0.4-1.4l0,0
										c0.3-0.5,0.9-0.7,1.4-0.4l0,0c0.5,0.3,0.6,0.9,0.4,1.4l0,0C10.1,89.9,9.7,90,9.4,90l0,0C9.2,90,9,90,8.9,89.9z"/>
									<path class="st2" d="M18.2,95.1c-0.3,0-0.5-0.1-0.7-0.3c-0.1-0.1-0.2-0.2-0.2-0.3c0-0.1-0.1-0.2-0.1-0.4
										c0-0.3,0.1-0.5,0.3-0.7c0.4-0.4,1-0.4,1.4,0c0.1,0.1,0.2,0.2,0.2,0.3c0,0.1,0.1,0.2,0.1,0.4c0,0.1,0,0.3-0.1,0.4
										c0,0.1-0.1,0.2-0.2,0.3C18.7,95,18.4,95.1,18.2,95.1z"/>
								</g>
								<g>
									<path class="st2" d="M18.2,95.1c-0.3,0-0.5-0.1-0.7-0.3c-0.1-0.1-0.2-0.2-0.2-0.3c0-0.1-0.1-0.2-0.1-0.4
										c0-0.3,0.1-0.5,0.3-0.7c0.4-0.4,1-0.4,1.4,0c0.1,0.1,0.2,0.2,0.2,0.3c0,0.1,0.1,0.2,0.1,0.4c0,0.1,0,0.3-0.1,0.4
										c0,0.1-0.1,0.2-0.2,0.3C18.7,95,18.4,95.1,18.2,95.1z"/>
									<path class="st2" d="M8.5,99.7c-0.3-0.5-0.1-1.1,0.4-1.4l0,0c0.5-0.3,1.1-0.1,1.4,0.4l0,0c0.3,0.5,0.1,1.1-0.4,1.4l0,0
										c-0.2,0.1-0.3,0.1-0.5,0.1l0,0C9,100.2,8.7,100,8.5,99.7z M12.9,97.1c-0.3-0.5-0.1-1.1,0.4-1.4l0,0
										c0.5-0.3,1.1-0.1,1.4,0.4l0,0c0.3,0.5,0.1,1.1-0.4,1.4l0,0c-0.2,0.1-0.3,0.1-0.5,0.1l0,0C13.4,97.6,13.1,97.5,12.9,97.1z"
										/>
									<path class="st2" d="M5,102.7c-0.3,0-0.5-0.1-0.7-0.3c-0.1-0.1-0.2-0.2-0.2-0.3c0-0.1-0.1-0.2-0.1-0.4c0-0.1,0-0.1,0-0.2
										s0-0.1,0.1-0.2c0-0.1,0-0.1,0.1-0.2c0-0.1,0.1-0.1,0.1-0.2c0.2-0.2,0.6-0.3,0.9-0.3c0.1,0,0.1,0,0.2,0.1
										c0.1,0,0.1,0.1,0.2,0.1l0.1,0.1c0,0.1,0.1,0.1,0.1,0.2s0.1,0.1,0.1,0.2s0.1,0.1,0.1,0.2s0,0.1,0,0.2s0,0.3-0.1,0.4
										c0,0.1-0.1,0.2-0.2,0.3C5.5,102.6,5.3,102.7,5,102.7z"/>
								</g>
								<g>
									<path class="st2" d="M39.2,112.6c-0.3,0-0.5-0.1-0.7-0.3c-0.2-0.2-0.3-0.4-0.3-0.7c0-0.3,0.1-0.5,0.3-0.7
										c0.4-0.4,1-0.4,1.4,0c0.2,0.2,0.3,0.4,0.3,0.7c0,0.3-0.1,0.5-0.3,0.7C39.7,112.5,39.4,112.6,39.2,112.6z"/>
									<path class="st2" d="M34.1,114.6c-0.3-0.5-0.1-1.1,0.4-1.4l0,0c0.5-0.3,1.1-0.1,1.4,0.4l0,0c0.3,0.5,0.1,1.1-0.4,1.4l0,0
										c-0.2,0.1-0.3,0.1-0.5,0.1l0,0C34.6,115.1,34.2,114.9,34.1,114.6z"/>
									<path class="st2" d="M30.7,117.5c-0.3,0-0.5-0.1-0.7-0.3c-0.1-0.1-0.2-0.2-0.2-0.3c0-0.1-0.1-0.2-0.1-0.4
										c0-0.3,0.1-0.5,0.3-0.7c0.4-0.4,1-0.4,1.4,0c0.2,0.2,0.3,0.4,0.3,0.7c0,0.3-0.1,0.5-0.3,0.7
										C31.2,117.4,30.9,117.5,30.7,117.5z"/>
								</g>
								<g>
									<path class="st3" d="M18.4,94.8c0.1,0.2,0.3,0.3,0.6,0.5l10.9,6.3l10.9,6.3c0.3,0.2,0.6,0.3,1,0.4c0.3,0.1,0.7,0.1,1,0.1
										s0.7,0,1-0.1s0.7-0.2,1-0.4l10.9-6.3l10.9-6.3c0.2-0.1,0.4-0.3,0.6-0.5s0.3-0.4,0.3-0.7V72.7V51.4c0-0.2-0.1-0.5-0.3-0.7
										c-0.1-0.2-0.3-0.3-0.6-0.5l-10.9-6.3l-10.9-6.3c-0.5-0.3-1.3-0.5-2-0.5s-1.4,0.2-2,0.5l-10.9,6.3L19,50.2
										c-0.2,0.1-0.4,0.3-0.6,0.5s-0.3,0.4-0.3,0.7v21.4v21.4C18.2,94.3,18.3,94.6,18.4,94.8z"/>
								</g>
								<g>
									<g>
										<path class="st2" d="M36.6,106.4c-0.6,0-1-0.4-1-1V77.6c0-1-0.6-2.1-1.2-2.4l-8.6-5c-0.1-0.1-0.1-0.1-0.2-0.1
											c0,0,0,0.2,0,0.5v27.9c0,0.6-0.4,1-1,1s-1-0.4-1-1V70.6c0-1,0.4-1.8,1.1-2.2c0.6-0.4,1.4-0.3,2.1,0.1l8.6,5
											c1.3,0.7,2.2,2.5,2.2,4.1v27.9C37.6,106,37.2,106.4,36.6,106.4z"/>
										<g>
											<g>
												<path class="st2" d="M49,72.1c-0.3,0-0.5-0.1-0.7-0.3c-0.2-0.2-0.3-0.4-0.3-0.7c0-0.3,0.1-0.5,0.3-0.7
													c0.4-0.4,1-0.4,1.4,0c0.2,0.2,0.3,0.4,0.3,0.7c0,0.3-0.1,0.5-0.3,0.7C49.5,71.9,49.3,72.1,49,72.1z"/>
												<path class="st2" d="M52.5,69c-0.3-0.5-0.1-1.1,0.4-1.4l0,0c0.5-0.3,1.1-0.1,1.4,0.4l0,0c0.3,0.5,0.1,1.1-0.4,1.4l0,0
													c-0.1,0.1-0.3,0.1-0.5,0.1l0,0C53,69.5,52.7,69.4,52.5,69z M56.8,66.5c-0.3-0.5-0.1-1.1,0.4-1.4l0,0
													c0.5-0.3,1.1-0.1,1.4,0.4l0,0c0.3,0.5,0.1,1.1-0.4,1.4l0,0C58,67,57.9,67,57.7,67l0,0C57.4,67,57,66.8,56.8,66.5z"/>
												<path class="st2" d="M62,64.5c-0.3,0-0.5-0.1-0.7-0.3c-0.1-0.1-0.2-0.2-0.2-0.3S61,63.7,61,63.5c0-0.3,0.1-0.5,0.3-0.7
													c0.1-0.1,0.2-0.2,0.3-0.2c0.4-0.2,0.8-0.1,1.1,0.2c0.2,0.2,0.3,0.4,0.3,0.7c0,0.1,0,0.3-0.1,0.4c0,0.1-0.1,0.2-0.2,0.3
													c0,0-0.1,0.1-0.2,0.1c0,0-0.1,0.1-0.2,0.1C62.2,64.4,62.2,64.5,62,64.5C62.2,64.5,62.1,64.5,62,64.5z"/>
											</g>
											<g>
												<path class="st2" d="M49,80.6c-0.3,0-0.5-0.1-0.7-0.3c-0.2-0.2-0.3-0.5-0.3-0.7c0-0.3,0.1-0.5,0.3-0.7
													c0.4-0.4,1-0.4,1.4,0c0.2,0.2,0.3,0.5,0.3,0.7c0,0.3-0.1,0.5-0.3,0.7C49.5,80.5,49.3,80.6,49,80.6z"/>
												<path class="st2" d="M52.5,77.6c-0.3-0.5-0.1-1.1,0.4-1.4l0,0c0.5-0.3,1.1-0.1,1.4,0.4l0,0c0.3,0.5,0.1,1.1-0.4,1.4l0,0
													c-0.1,0.1-0.3,0.1-0.5,0.1l0,0C53,78.1,52.7,77.9,52.5,77.6z M56.8,75.1c-0.3-0.5-0.1-1.1,0.4-1.4l0,0
													c0.5-0.3,1.1-0.1,1.4,0.4l0,0c0.3,0.5,0.1,1.1-0.4,1.4l0,0c-0.1,0.1-0.3,0.1-0.5,0.1l0,0C57.4,75.6,57,75.4,56.8,75.1z"
													/>
												<path class="st2" d="M62,73.1c-0.3,0-0.5-0.1-0.7-0.3c-0.1-0.1-0.2-0.2-0.2-0.3c0-0.1-0.1-0.2-0.1-0.4
													c0-0.3,0.1-0.5,0.3-0.7c0.1-0.1,0.2-0.2,0.3-0.2c0.4-0.2,0.8-0.1,1.1,0.2c0.2,0.2,0.3,0.4,0.3,0.7c0,0.1,0,0.3-0.1,0.4
													c0,0.1-0.1,0.2-0.2,0.3c0,0.1-0.1,0.1-0.2,0.1c0,0-0.1,0.1-0.2,0.1C62.2,73,62.2,73,62,73.1
													C62.2,73.1,62.1,73.1,62,73.1z"/>
											</g>
											<g>
												<path class="st2" d="M49,89.2c-0.3,0-0.5-0.1-0.7-0.3c-0.2-0.2-0.3-0.4-0.3-0.7s0.1-0.5,0.3-0.7
													c0.3-0.3,0.7-0.4,1.1-0.2c0.1,0.1,0.2,0.1,0.3,0.2c0.2,0.2,0.3,0.4,0.3,0.7s-0.1,0.5-0.3,0.7
													C49.5,89.1,49.3,89.2,49,89.2z"/>
												<path class="st2" d="M52.5,86.2c-0.3-0.5-0.1-1.1,0.4-1.4l0,0c0.5-0.3,1.1-0.1,1.4,0.4l0,0c0.3,0.5,0.1,1.1-0.4,1.4l0,0
													c-0.1,0.1-0.3,0.1-0.5,0.1l0,0C53,86.7,52.7,86.5,52.5,86.2z M56.8,83.7c-0.3-0.5-0.1-1.1,0.4-1.4l0,0
													c0.5-0.3,1.1-0.1,1.4,0.4l0,0c0.3,0.5,0.1,1.1-0.4,1.4l0,0c-0.1,0.1-0.3,0.1-0.5,0.1l0,0C57.4,84.2,57,84,56.8,83.7z"/>
												<path class="st2" d="M62,81.6c-0.1,0-0.3,0-0.4-0.1c-0.1-0.1-0.2-0.1-0.3-0.2s-0.2-0.2-0.2-0.3c0-0.1-0.1-0.2-0.1-0.4
													c0-0.1,0-0.3,0.1-0.4s0.1-0.2,0.2-0.3c0.1-0.1,0.2-0.2,0.3-0.2c0.4-0.2,0.8-0.1,1.1,0.2c0.1,0.1,0.2,0.2,0.2,0.3
													c0.1,0.1,0.1,0.2,0.1,0.4c0,0.1,0,0.3-0.1,0.4c0,0.1-0.1,0.2-0.2,0.3C62.6,81.5,62.3,81.6,62,81.6z"/>
											</g>
											<g>
												<path class="st2" d="M49,97.7c-0.3,0-0.5-0.1-0.7-0.3c-0.1-0.1-0.2-0.2-0.2-0.3S48,96.9,48,96.7s0-0.3,0.1-0.4
													c0-0.1,0.1-0.2,0.2-0.3c0.3-0.3,0.7-0.4,1.1-0.2c0.1,0.1,0.2,0.1,0.3,0.2s0.2,0.2,0.2,0.3c0,0.1,0.1,0.2,0.1,0.4
													s0,0.3-0.1,0.4s-0.1,0.2-0.2,0.3c-0.1,0.1-0.2,0.2-0.3,0.2C49.3,97.7,49.1,97.7,49,97.7z"/>
												<path class="st2" d="M52.5,94.7c-0.3-0.5-0.1-1.1,0.4-1.4l0,0c0.5-0.3,1.1-0.1,1.4,0.4l0,0c0.3,0.5,0.1,1.1-0.4,1.4l0,0
													c-0.1,0.1-0.3,0.1-0.5,0.1l0,0C53,95.2,52.7,95,52.5,94.7z M56.8,92.2c-0.3-0.5-0.1-1.1,0.4-1.4l0,0
													c0.5-0.3,1.1-0.1,1.4,0.4l0,0c0.3,0.5,0.1,1.1-0.4,1.4l0,0c-0.1,0.1-0.3,0.1-0.5,0.1l0,0C57.4,92.7,57,92.5,56.8,92.2z"
													/>
												<path class="st2" d="M62,90.2c-0.1,0-0.3,0-0.4-0.1c-0.1,0-0.2-0.1-0.3-0.2c-0.2-0.2-0.3-0.4-0.3-0.7
													c0-0.1,0-0.3,0.1-0.4s0.1-0.2,0.2-0.3c0.2-0.2,0.6-0.3,0.9-0.3c0.1,0,0.1,0,0.2,0.1c0.1,0,0.1,0.1,0.2,0.1
													c0.1,0,0.1,0.1,0.2,0.1c0.1,0.1,0.2,0.2,0.2,0.3c0.1,0.1,0.1,0.2,0.1,0.4c0,0.3-0.1,0.5-0.3,0.7
													C62.6,90.1,62.3,90.2,62,90.2z"/>
											</g>
										</g>
										<g>
											<path class="st2" d="M18.2,52.4c-0.1,0-0.3,0-0.4-0.1c-0.1,0-0.2-0.1-0.3-0.2c-0.2-0.2-0.3-0.5-0.3-0.7
												c0-0.3,0.1-0.5,0.3-0.7c0.4-0.4,1-0.4,1.4,0c0.1,0.1,0.2,0.2,0.2,0.3s0.1,0.2,0.1,0.4c0,0.3-0.1,0.5-0.3,0.7
												c-0.1,0.1-0.2,0.2-0.3,0.2C18.4,52.3,18.3,52.4,18.2,52.4z"/>
											<path class="st2" d="M41.7,65.5c0-0.5,0.5-1,1-1l0,0c0.6,0,1,0.5,1,1l0,0c0,0.6-0.4,1-1,1l0,0
												C42.1,66.5,41.7,66.1,41.7,65.5z M47,63.7c-0.3-0.5-0.1-1.1,0.4-1.4l0,0c0.5-0.3,1.1-0.1,1.4,0.4l0,0
												c0.3,0.5,0.1,1.1-0.4,1.4l0,0c-0.2,0.1-0.3,0.1-0.5,0.1l0,0C47.5,64.2,47.2,64,47,63.7z M37,64.1
												c-0.5-0.3-0.6-0.9-0.4-1.4l0,0c0.3-0.5,0.9-0.7,1.4-0.4l0,0c0.5,0.3,0.6,0.9,0.4,1.4l0,0c-0.2,0.3-0.5,0.5-0.9,0.5l0,0
												C37.4,64.2,37.2,64.2,37,64.1z M51.9,60.9c-0.3-0.5-0.1-1.1,0.4-1.4l0,0c0.5-0.3,1.1-0.1,1.4,0.4l0,0
												c0.3,0.5,0.1,1.1-0.4,1.4l0,0c-0.2,0.1-0.3,0.1-0.5,0.1l0,0C52.4,61.4,52.1,61.2,51.9,60.9z M32.1,61.2
												c-0.5-0.3-0.6-0.9-0.4-1.4l0,0c0.3-0.5,0.9-0.7,1.4-0.4l0,0c0.5,0.3,0.6,0.9,0.4,1.4l0,0c-0.2,0.3-0.5,0.5-0.9,0.5l0,0
												C32.4,61.4,32.2,61.3,32.1,61.2z M56.9,58c-0.3-0.5-0.1-1.1,0.4-1.4l0,0c0.5-0.3,1.1-0.1,1.4,0.4l0,0
												c0.3,0.5,0.1,1.1-0.4,1.4l0,0c-0.2,0.1-0.3,0.1-0.5,0.1l0,0C57.4,58.5,57.1,58.3,56.9,58z M27.1,58.4
												c-0.5-0.3-0.6-0.9-0.4-1.4l0,0c0.3-0.5,0.9-0.7,1.4-0.4l0,0c0.5,0.3,0.6,0.9,0.4,1.4l0,0c-0.2,0.3-0.5,0.5-0.9,0.5l0,0
												C27.5,58.5,27.3,58.4,27.1,58.4z M61.8,55.1c-0.3-0.5-0.1-1.1,0.4-1.4l0,0c0.5-0.3,1.1-0.1,1.4,0.4l0,0
												c0.3,0.5,0.1,1.1-0.4,1.4l0,0c-0.2,0.1-0.3,0.1-0.5,0.1l0,0C62.4,55.6,62,55.5,61.8,55.1z M22.2,55.5
												c-0.5-0.3-0.6-0.9-0.4-1.4l0,0c0.3-0.5,0.9-0.6,1.4-0.4l0,0c0.5,0.3,0.6,0.9,0.4,1.4l0,0c-0.2,0.3-0.5,0.5-0.9,0.5l0,0
												C22.5,55.6,22.3,55.6,22.2,55.5z"/>
											<path class="st2" d="M67.2,52.4c-0.3,0-0.5-0.1-0.7-0.3c-0.1-0.1-0.2-0.2-0.2-0.3c-0.1-0.1-0.1-0.2-0.1-0.4
												c0-0.3,0.1-0.5,0.3-0.7c0.1,0,0.1-0.1,0.1-0.1c0.1,0,0.1-0.1,0.2-0.1s0.1,0,0.2-0.1c0.3-0.1,0.7,0,0.9,0.3
												c0.2,0.2,0.3,0.4,0.3,0.7c0,0.1,0,0.3-0.1,0.4c0,0.1-0.1,0.2-0.2,0.3s-0.2,0.2-0.3,0.2C67.5,52.3,67.3,52.4,67.2,52.4z"
												/>
										</g>
										<g>
											<path class="st3" d="M53.3,50.9l-9.7-5.6c-0.5-0.3-1.3-0.3-1.8,0l-9.7,5.6c-0.5,0.3-0.5,0.7,0,1l9.7,5.6
												c0.5,0.3,1.3,0.3,1.8,0l9.7-5.6C53.8,51.6,53.8,51.1,53.3,50.9z"/>
											<path class="st2" d="M42.7,58.7c-0.5,0-1-0.1-1.4-0.3l-9.7-5.6c-0.6-0.3-0.9-0.8-0.9-1.4s0.3-1.1,0.9-1.4l9.7-5.6
												c0.8-0.5,2-0.5,2.8,0l9.7,5.6c0.6,0.3,0.9,0.8,0.9,1.4s-0.3,1.1-0.9,1.4l-9.7,5.6C43.7,58.6,43.2,58.7,42.7,58.7z
												 M33.2,51.4l9.1,5.2c0.2,0.1,0.6,0.1,0.8,0l9.1-5.2l-9.1-5.2c-0.2-0.1-0.6-0.1-0.8,0L33.2,51.4z M52.8,51.7L52.8,51.7
												L52.8,51.7z"/>
										</g>
									</g>
								</g>
								<g>
									<path class="st5" d="M42.7,109.3c-0.4,0-0.8,0-1.2-0.1c-0.5-0.1-0.9-0.3-1.2-0.5L18.5,96.1c-0.3-0.2-0.6-0.4-0.8-0.7l0,0
										c-0.3-0.4-0.5-0.8-0.5-1.3V51.4c0-0.5,0.2-0.9,0.5-1.3c0.2-0.3,0.5-0.5,0.8-0.7l21.7-12.5c1.4-0.8,3.6-0.8,5,0l21.7,12.5
										c0.3,0.2,0.6,0.4,0.8,0.7c0.3,0.4,0.5,0.8,0.5,1.3v42.7c0,0.5-0.2,0.9-0.5,1.3c-0.2,0.3-0.5,0.5-0.8,0.7l-21.7,12.5
										c-0.4,0.2-0.8,0.4-1.2,0.5C43.5,109.2,43.1,109.3,42.7,109.3z M19.2,94.2c0,0,0.1,0.1,0.3,0.2l21.7,12.5
										c0.2,0.1,0.4,0.2,0.7,0.3c0.5,0.1,1.1,0.1,1.6,0c0.3-0.1,0.5-0.1,0.7-0.3l21.7-12.5c0.2-0.1,0.2-0.2,0.3-0.2V51.4
										c-0.1-0.1-0.2-0.2-0.3-0.3L44.2,38.5c-0.7-0.4-2.2-0.4-3,0L19.5,51.1c-0.2,0.1-0.2,0.2-0.3,0.2V94.2l-0.8,0.6L19.2,94.2z"
										/>
								</g>
							</g>
						</g>
					</g>
				</g>
			</g>
		</g>
	</g>
	<g>
		<rect class="st0" width="128" height="128"/>
	</g>
</g>
</svg>
