<?xml version="1.0" encoding="utf-8"?>
<!-- Generator: Adobe Illustrator 24.1.0, SVG Export Plug-In . SVG Version: 6.00 Build 0)  -->
<svg version="1.1" id="Layer_1" xmlns="http://www.w3.org/2000/svg" xmlns:xlink="http://www.w3.org/1999/xlink" x="0px" y="0px"
	 viewBox="0 0 128 128" style="enable-background:new 0 0 128 128;" xml:space="preserve">
<style type="text/css">
	.st0{fill:#0E352C;}
	.st1{fill:#185849;}
	.st2{fill:#E9EBDF;}
	.st3{fill:#FFFFFF;}
	.st4{fill:#4D9987;}
	.st5{fill:#C4D7D3;}
	.st6{fill:#27ae60;}
	.st7{fill:none;}
</style>
<g id="Layer_1_1_">
</g>
<g>
	<g id="Layer_2_1_">
		<g id="Tech_Concepts_1_">
			<g>
				<g>
					<g>
						<path class="st0" d="M30.5,92.9c-0.1,0-0.3,0-0.4-0.1s-0.2-0.1-0.3-0.2c-0.1-0.1-0.2-0.2-0.2-0.3s-0.1-0.2-0.1-0.4
							c0-0.3,0.1-0.5,0.3-0.7c0.4-0.4,1-0.4,1.4,0c0.2,0.2,0.3,0.4,0.3,0.7c0,0.1,0,0.3-0.1,0.4s-0.1,0.2-0.2,0.3
							c-0.1,0.1-0.2,0.2-0.3,0.2S30.6,92.9,30.5,92.9z"/>
						<path class="st0" d="M52.6,105.5c-0.5-0.3-0.7-0.9-0.4-1.4l0,0c0.3-0.5,0.9-0.6,1.4-0.4l0,0c0.5,0.3,0.7,0.9,0.4,1.4l0,0
							c-0.2,0.3-0.5,0.5-0.9,0.5l0,0C53,105.7,52.8,105.6,52.6,105.5z M47,102.3c-0.5-0.3-0.7-0.9-0.4-1.4l0,0
							c0.3-0.5,0.9-0.6,1.4-0.4l0,0c0.5,0.3,0.7,0.9,0.4,1.4l0,0c-0.2,0.3-0.5,0.5-0.9,0.5l0,0C47.3,102.5,47.1,102.4,47,102.3z
							 M41.3,99.1c-0.5-0.3-0.7-0.9-0.4-1.4l0,0c0.3-0.5,0.9-0.7,1.4-0.4l0,0c0.5,0.3,0.6,0.9,0.4,1.4l0,0c-0.2,0.3-0.5,0.5-0.9,0.5
							l0,0C41.6,99.3,41.5,99.2,41.3,99.1z M35.6,95.9c-0.5-0.3-0.7-0.9-0.4-1.4l0,0c0.3-0.5,0.9-0.7,1.4-0.4l0,0
							c0.5,0.3,0.6,0.9,0.4,1.4l0,0c-0.2,0.3-0.5,0.5-0.9,0.5l0,0C36,96.1,35.8,96,35.6,95.9z"/>
						<path class="st0" d="M58.8,108.9c-0.3,0-0.5-0.1-0.7-0.3c-0.1-0.1-0.2-0.2-0.2-0.3c0-0.1-0.1-0.2-0.1-0.4c0-0.1,0-0.1,0-0.2
							s0-0.1,0.1-0.2c0-0.1,0.1-0.1,0.1-0.2l0.1-0.1c0.4-0.4,1.1-0.4,1.4,0l0.1,0.1c0,0.1,0.1,0.1,0.1,0.2s0,0.1,0,0.2s0,0.1,0,0.2
							s0,0.3-0.1,0.4s-0.1,0.2-0.2,0.3c-0.1,0.1-0.2,0.2-0.3,0.2C59,108.8,58.9,108.9,58.8,108.9z"/>
					</g>
					<g>
						<path class="st1" d="M95.5,35.2c-0.1,0-0.3,0-0.4-0.1s-0.2-0.1-0.3-0.2c-0.1-0.1-0.2-0.2-0.2-0.3s-0.1-0.2-0.1-0.4
							c0-0.3,0.1-0.5,0.3-0.7c0,0,0.1-0.1,0.2-0.1s0.1-0.1,0.2-0.1s0.1,0,0.2-0.1c0.1,0,0.3,0,0.4,0s0.1,0,0.2,0.1
							c0.1,0,0.2,0.1,0.3,0.2c0.1,0.1,0.2,0.2,0.2,0.3s0.1,0.2,0.1,0.4c0,0.1,0,0.3-0.1,0.4s-0.1,0.2-0.2,0.3
							C96,35.1,95.7,35.2,95.5,35.2z"/>
						<path class="st1" d="M105.3,41.1c-0.5-0.3-0.6-0.9-0.4-1.4l0,0c0.3-0.5,0.9-0.6,1.4-0.4l0,0c0.5,0.3,0.6,0.9,0.4,1.4l0,0
							c-0.2,0.3-0.5,0.5-0.9,0.5l0,0C105.7,41.2,105.5,41.2,105.3,41.1z M100.1,38.1c-0.5-0.3-0.6-0.9-0.4-1.4l0,0
							c0.3-0.5,0.9-0.6,1.4-0.4l0,0c0.5,0.3,0.7,0.9,0.4,1.4l0,0c-0.2,0.3-0.5,0.5-0.9,0.5l0,0C100.5,38.2,100.3,38.2,100.1,38.1z"
							/>
						<path class="st1" d="M111,44.2c-0.1,0-0.3,0-0.4-0.1s-0.2-0.1-0.3-0.2c-0.1-0.1-0.2-0.2-0.2-0.3s-0.1-0.2-0.1-0.4
							c0-0.3,0.1-0.5,0.3-0.7c0.2-0.2,0.6-0.3,0.9-0.3c0.1,0,0.1,0,0.2,0.1c0.1,0,0.2,0.1,0.3,0.2c0.2,0.2,0.3,0.4,0.3,0.7
							c0,0.1,0,0.3-0.1,0.4c-0.1,0.1-0.1,0.2-0.2,0.3C111.5,44.1,111.3,44.2,111,44.2z"/>
					</g>
					<g>
						<g>
							<path class="st2" d="M69.6,114.1l-4.9-3.6l0,0c-0.4-0.3-0.7-0.8-0.7-1.5V79.8c0-1.6,1.3-3.6,2.8-4.5l48.5-28.8
								c0.8-0.5,1.6-0.6,2.1-0.3l0,0l4.9,3.6l-4.5,4.6v23c0,1.6-1.3,3.6-2.8,4.5l-38.7,23L69.6,114.1z"/>
							<path class="st3" d="M69.6,115.1c-0.2,0-0.4-0.1-0.6-0.2l-4.9-3.6l0,0c-0.7-0.5-1.1-1.3-1.1-2.3V79.9c0-1.9,1.4-4.3,3.3-5.4
								l48.5-28.8c1.1-0.7,2.2-0.8,3.1-0.3c0.1,0,0.1,0.1,0.2,0.1l4.9,3.6c0.2,0.2,0.4,0.4,0.4,0.7s-0.1,0.6-0.3,0.8l-4.2,4.3v22.6
								c0,1.9-1.4,4.3-3.3,5.4L77,105.7l-6.6,9C70.2,115,69.9,115.1,69.6,115.1z M65.4,109.8l4,2.9l6.1-8.3c0.1-0.1,0.2-0.2,0.3-0.3
								l38.7-23c1.2-0.7,2.3-2.5,2.3-3.7v-23c0-0.3,0.1-0.5,0.3-0.7l3.7-3.8l-3.9-2.8c-0.2-0.1-0.6,0-1.1,0.3L67.3,76.2
								c-1.2,0.7-2.3,2.4-2.3,3.7v29.2c0,0.3,0.1,0.5,0.2,0.6C65.3,109.7,65.3,109.8,65.4,109.8z"/>
						</g>
						<path class="st4" d="M64.9,77.2c0.5-0.8,1.2-1.5,1.9-1.9l48.5-28.8c0.8-0.5,1.6-0.6,2.1-0.3l0,0l4.9,3.6l-4.5,4.6v23
							c0,1.6-1.3,3.6-2.8,4.5L93.4,94.8L64.9,77.2z"/>
						<path class="st3" d="M123,80.5V51.3c0-1.6-1.3-2.1-2.8-1.2L71.7,78.9c-1.5,0.9-2.8,2.9-2.8,4.5v29.2c0,1.6,1.3,2.1,2.8,1.2
							L120.2,85C121.7,84.1,123,82.1,123,80.5z"/>
						<path class="st2" d="M71.9,83.4c0-0.4,0.6-1.5,1.3-2L120,53.7v26.8c0,0.4-0.6,1.5-1.3,2L72,110.3L71.9,83.4L71.9,83.4z"/>
						<path class="st3" d="M70.3,115.3c-0.4,0-0.8-0.1-1.2-0.3c-0.8-0.4-1.2-1.3-1.2-2.4V83.4c0-1.9,1.4-4.3,3.3-5.4l48.5-28.8
							c1.1-0.7,2.2-0.8,3.1-0.3c0.8,0.4,1.2,1.3,1.2,2.4v29.2c0,1.9-1.4,4.3-3.3,5.4l-48.5,28.8C71.6,115.1,70.9,115.3,70.3,115.3z
							 M121.6,50.6c-0.2,0-0.5,0.1-0.9,0.3L72.2,79.7c-1.2,0.7-2.3,2.4-2.3,3.7v29.2c0,0.3,0.1,0.6,0.2,0.6s0.5,0.1,1.1-0.3
							l48.5-28.8c1.2-0.7,2.3-2.5,2.3-3.7V51.3c0-0.3-0.1-0.6-0.2-0.6C121.8,50.6,121.7,50.6,121.6,50.6z"/>
						<path class="st3" d="M82.9,107.2l-11.2,6.6c-1.5,0.9-2.8,0.4-2.8-1.2V83.4c0-1.6,1.3-3.6,2.8-4.5L109,56.7L82.9,107.2z"/>
						<path class="st4" d="M70.3,115.3c-0.4,0-0.8-0.1-1.2-0.3c-0.8-0.4-1.2-1.3-1.2-2.4V83.4c0-1.9,1.4-4.3,3.3-5.4l48.5-28.8
							c1.1-0.7,2.2-0.8,3.1-0.3c0.8,0.4,1.2,1.3,1.2,2.4v29.2c0,1.9-1.4,4.3-3.3,5.4l-48.5,28.8C71.6,115.1,70.9,115.3,70.3,115.3z
							 M121.6,50.6c-0.2,0-0.5,0.1-0.9,0.3L72.2,79.7c-1.2,0.7-2.3,2.4-2.3,3.7v29.2c0,0.3,0.1,0.6,0.2,0.6s0.5,0.1,1.1-0.3
							l48.5-28.8c1.2-0.7,2.3-2.5,2.3-3.7V51.3c0-0.3-0.1-0.6-0.2-0.6C121.8,50.6,121.7,50.6,121.6,50.6z"/>
						<path class="st0" d="M70.3,115.3c-0.4,0-0.8-0.1-1.1-0.3c-0.1,0-0.1-0.1-0.2-0.1l-4.9-3.6l0,0c-0.7-0.5-1.1-1.3-1.1-2.3V79.9
							c0-1.9,1.4-4.3,3.3-5.4l48.5-28.8c1.1-0.7,2.2-0.8,3.1-0.3c0.1,0,0.1,0.1,0.2,0.1l4.9,3.6l0,0c0.7,0.5,1.1,1.3,1.1,2.3v29.2
							c0,1.9-1.4,4.3-3.3,5.4l-48.5,28.8C71.6,115.1,70.9,115.3,70.3,115.3z M70.1,113.2c0.1,0.1,0.5,0.1,1.1-0.3l48.5-28.8
							c1.2-0.7,2.3-2.5,2.3-3.7V51.3c0-0.3-0.1-0.5-0.2-0.6l-0.1-0.1l-4.8-3.5c-0.2-0.1-0.6,0-1.1,0.3L67.3,76.2
							c-1.2,0.7-2.3,2.4-2.3,3.7v29.2c0,0.3,0.1,0.5,0.2,0.6l0.1,0.1L70.1,113.2z"/>
						<g>
							
								<ellipse transform="matrix(0.5799 -0.8147 0.8147 0.5799 -49.0273 98.4888)" class="st4" cx="71" cy="96.8" rx="2.8" ry="1.5"/>
							<path class="st4" d="M69.9,99.7c-0.3,0-0.5-0.1-0.8-0.2c-0.5-0.3-0.8-0.8-0.8-1.5c0-1.3,1-3,2.3-3.7c0.7-0.4,1.5-0.5,2-0.2
								s0.8,0.8,0.8,1.5c0,1.3-1,3-2.3,3.7l0,0C70.8,99.6,70.3,99.7,69.9,99.7z M71,98.9L71,98.9L71,98.9z M72,94.9
								c-0.2,0-0.5,0.1-0.8,0.3c-1,0.6-1.8,1.9-1.8,2.9c0,0.2,0,0.5,0.3,0.7c0.2,0.1,0.6,0.1,1-0.2c1-0.6,1.8-1.9,1.8-2.9
								c0-0.2,0-0.5-0.3-0.7C72.2,94.9,72.1,94.9,72,94.9z"/>
						</g>
						<g>
							<path class="st4" d="M68.9,102.2c0-1.2,0.9-2.6,2-3.3v-4.2c-1.1,0.7-2,0.3-2-0.9V102.2z"/>
							<path class="st4" d="M68.9,102.7c-0.3,0-0.5-0.2-0.5-0.5v-8.4c0-0.3,0.2-0.5,0.5-0.5s0.5,0.2,0.5,0.5c0,0.2,0,0.5,0.3,0.7
								c0.2,0.1,0.6,0.1,1-0.2c0.2-0.1,0.3-0.1,0.5,0s0.3,0.3,0.3,0.4v4.2c0,0.2-0.1,0.3-0.2,0.4c-1,0.6-1.8,1.9-1.8,2.9
								C69.4,102.5,69.2,102.7,68.9,102.7z M69.4,95.4v4.2c0.3-0.4,0.7-0.7,1-1v-3.2C70.1,95.6,69.7,95.6,69.4,95.4z"/>
						</g>
					</g>
					<g>
						<path class="st3" d="M88.5,30.2L88.5,30.2l-15.4-8.9l0,0c-1.8-1-4.1-1-6.7,0.5l-1.1,0.6L52,14.9l0,0c-3-1.7-6.9-1.6-11.2,0.9
							c-9,5.2-16.3,18.6-17.1,30.7l-8.5,4.9C9.6,54.6,5,63.4,5,71l0,0c0,4.1,1.4,7.1,3.6,8.3l0,0L24,88.2l0,0c1.8,1,4.2,0.9,6.7-0.5
							l51.1-29.5c5.7-3.3,10.3-12.1,10.3-19.7l0,0C92.1,34.4,90.7,31.5,88.5,30.2z"/>
						<path class="st5" d="M81.8,30.7l-8.5,4.9c-0.8-11.2-8.1-16.1-17.1-11c-9,5.2-16.3,18.6-17.1,30.7l-8.5,4.9
							C25,63.5,20.4,72.3,20.4,79.9S25,91,30.7,87.7l51.1-29.5c5.7-3.3,10.3-12.1,10.3-19.7l0,0C92.1,30.9,87.5,27.5,81.8,30.7z"/>
						<path class="st6" d="M20.4,80.9c-0.6,0-1-0.4-1-1c0-7.9,4.8-17.1,10.8-20.5l8-4.6c1-12.5,8.5-25.7,17.5-30.9
							c4.3-2.5,8.5-2.9,11.9-1.1c3.5,1.9,5.8,5.8,6.5,11.3l7.1-4.1c0.5-0.3,1.1-0.1,1.4,0.4s0.1,1.1-0.4,1.4l-8.5,4.9
							c-0.3,0.2-0.7,0.2-1,0s-0.5-0.5-0.5-0.8c-0.4-5.4-2.4-9.5-5.6-11.2c-2.8-1.5-6.3-1.1-10,1C48.1,30.6,40.8,43.8,40,55.6
							c0,0.3-0.2,0.6-0.5,0.8L31,61.3c-5.4,3.1-9.8,11.5-9.8,18.8C21.4,80.4,21,80.9,20.4,80.9z"/>
						<path class="st1" d="M26.6,89.9c-1.1,0-2.1-0.3-3.1-0.8h-0.1L8.1,80.2C8,80.2,8,80.1,8,80.1c-2.6-1.6-4-4.9-4-9.1
							c0-7.9,4.8-17.1,10.8-20.5l8-4.6c1-12.5,8.5-25.7,17.5-30.9c4.4-2.5,8.7-2.9,12.1-1c0,0,0.1,0,0.1,0.1l12.7,7.3l0.6-0.4
							c2.7-1.6,5.4-1.8,7.6-0.6c0.1,0,0.1,0,0.2,0.1L89,29.3c0,0,0.1,0,0.1,0.1c2.5,1.5,4,4.8,4,9.1c0,7.9-4.8,17.1-10.8,20.5
							L31.2,88.5C29.6,89.4,28.1,89.9,26.6,89.9z M24.4,87.3L24.4,87.3c1.6,0.9,3.7,0.7,5.8-0.5l51.1-29.5
							c5.4-3.1,9.8-11.5,9.8-18.8c0-3.6-1.1-6.3-3.1-7.4h-0.1l-15.2-8.8c0,0-0.1,0-0.1-0.1c-1.6-0.9-3.5-0.7-5.7,0.5l-1.1,0.6
							c-0.3,0.2-0.7,0.2-1,0l-13.1-7.6h-0.1c-2.8-1.6-6.4-1.3-10.2,0.9c-8.5,4.9-15.8,18.1-16.6,29.9c0,0.3-0.2,0.6-0.5,0.8
							l-8.5,4.9C10.4,55.3,6,63.7,6,71c0,3.6,1.1,6.3,3.1,7.4l0.1,0.1L24.4,87.3z"/>
					</g>
				</g>
				<rect x="4" y="4" class="st7" width="120" height="120"/>
				<rect x="4" y="4" class="st7" width="120" height="120"/>
			</g>
		</g>
	</g>
	<g>
		<rect class="st7" width="128" height="128"/>
	</g>
</g>
</svg>
