<?xml version="1.0" encoding="utf-8"?>
<!-- Generator: Adobe Illustrator 24.1.0, SVG Export Plug-In . SVG Version: 6.00 Build 0)  -->
<svg version="1.1" id="Layer_1" xmlns="http://www.w3.org/2000/svg" xmlns:xlink="http://www.w3.org/1999/xlink" x="0px" y="0px"
	 viewBox="0 0 128 128" style="enable-background:new 0 0 128 128;" xml:space="preserve">
<style type="text/css">
	.st0{fill:#4D9987;}
	.st1{fill:#E9EBDF;}
	.st2{fill:#FFFFFF;}
	.st3{fill:#0E352C;}
	.st4{fill:#27ae60;}
	.st5{fill:#C4D7D3;}
	.st6{fill:#185849;}
	.st7{fill:none;}
</style>
<g id="Layer_1_1_">
</g>
<g>
	<g id="Layer_2_1_">
		<g id="Tech_Concepts_1_">
			<g>
				<g>
					<g>
						<g>
							<path class="st0" d="M86.4,9.1L86.4,9.1l-6.9-4l0,0c-0.2-0.1-0.4-0.1-0.7,0L20.6,38.7c-0.6,0.3-1,1.2-1,1.9v56.5
								c0,0.4,0.1,0.7,0.4,0.8l0,0l6.9,4l0,0c0.2,0.1,0.4,0.1,0.7,0l58.2-33.6c0.6-0.3,1-1.2,1-1.9V9.9C86.8,9.5,86.6,9.2,86.4,9.1z
								"/>
							<path class="st0" d="M26.9,103c-0.2,0-0.3,0-0.5-0.1l-6.9-4c-0.1,0-0.1-0.1-0.2-0.1c-0.4-0.3-0.7-0.9-0.7-1.6V40.7
								c0-1.1,0.6-2.3,1.5-2.8L78.4,4.3c0.5-0.3,1-0.3,1.5-0.1c0.1,0,0.1,0,0.2,0.1l6.9,4c0.2,0.1,0.4,0.4,0.5,0.7s0,0.6-0.2,0.8
								l-6.4,8.5V58c0,1.1-0.6,2.3-1.5,2.8l-45.9,31l-5.7,10.8c-0.1,0.2-0.3,0.4-0.6,0.5C27.1,103,27,103,26.9,103z M20.6,97.2
								l5.9,3.4l5.3-10.1c0.1-0.1,0.2-0.3,0.3-0.4l46.2-31.2c0.3-0.2,0.6-0.7,0.6-1.1v-40c0-0.2,0.1-0.4,0.2-0.6L85,9.4l-5.7-3.3
								L21.1,39.6c-0.2,0.1-0.5,0.6-0.5,1.1V97.2L20.6,97.2z M20.5,97.1L20.5,97.1L20.5,97.1z"/>
							<path class="st1" d="M86.4,9.1L86.4,9.1l-6.9-4l0,0c-0.2-0.1-0.4-0.1-0.7,0L20.6,38.7c-0.3,0.2-0.6,0.5-0.8,0.9L77.6,73
								l8.2-4.7c0.6-0.3,1-1.2,1-1.9V9.9C86.8,9.5,86.6,9.2,86.4,9.1z"/>
							<g>
								<path class="st2" d="M85.8,68.3l-58.2,33.6c-0.6,0.3-1,0-1-0.8V44.7c0-0.7,0.5-1.6,1-1.9L85.8,9.1c0.6-0.3,1,0,1,0.8v56.5
									C86.8,67.1,86.3,68,85.8,68.3z"/>
								<path class="st0" d="M27.1,103.1c-0.3,0-0.5-0.1-0.8-0.2c-0.5-0.3-0.8-0.9-0.8-1.7V44.7c0-1.1,0.6-2.3,1.5-2.8L85.3,8.2
									c0.6-0.3,1.2-0.3,1.7-0.1c0.5,0.3,0.8,0.9,0.8,1.7v56.5c0,1.1-0.6,2.3-1.5,2.8L28,102.8C27.7,103,27.4,103.1,27.1,103.1z
									 M27.5,101.3L27.5,101.3L27.5,101.3z M85.8,10.3L28,43.6c-0.2,0.1-0.5,0.6-0.5,1.1v56.1l57.7-33.3l0,0
									c0.2-0.1,0.5-0.6,0.5-1.1V10.3H85.8z M85.8,9.8L85.8,9.8L85.8,9.8z"/>
							</g>
							<path class="st3" d="M27.2,103c-0.2,0-0.4,0-0.6-0.1c-0.1,0-0.1,0-0.2-0.1l-6.9-4c-0.1,0-0.1-0.1-0.2-0.1
								c-0.4-0.3-0.7-0.9-0.7-1.6V40.7c0-1.1,0.6-2.3,1.5-2.8L78.4,4.3c0.5-0.3,1-0.3,1.5-0.1c0.1,0,0.1,0,0.2,0.1l6.9,4
								c0.1,0,0.1,0.1,0.2,0.1c0.4,0.3,0.7,0.9,0.7,1.6v56.5c0,1.1-0.6,2.3-1.5,2.8L28,102.8C27.8,103,27.4,103,27.2,103z
								 M20.6,97.2l6.6,3.8l58.1-33.6c0.2-0.1,0.5-0.6,0.5-1.1V9.9l0,0l-6.6-3.8L21.1,39.6c-0.2,0.1-0.5,0.6-0.5,1.1V97.2L20.6,97.2
								z M20.5,97.1L20.5,97.1L20.5,97.1z M85.9,9.9L85.9,9.9L85.9,9.9z"/>
						</g>
						<g>
							<polygon class="st2" points="63.9,52.3 63.9,66.4 76.2,59.3 76.2,45.2 							"/>
							<path class="st4" d="M63.9,67.4c-0.2,0-0.3,0-0.5-0.1c-0.3-0.2-0.5-0.5-0.5-0.9V52.3c0-0.4,0.2-0.7,0.5-0.9l12.3-7.1
								c0.3-0.2,0.7-0.2,1,0s0.5,0.5,0.5,0.9v14.2c0,0.4-0.2,0.7-0.5,0.9l-12.3,7.1C64.3,67.4,64.1,67.4,63.9,67.4z M64.9,52.8v11.9
								l10.3-5.9V46.9L64.9,52.8z"/>
						</g>
						<g>
							<polygon class="st2" points="51.7,59.3 51.7,73.5 63.9,66.4 63.9,52.3 							"/>
							<path class="st4" d="M51.7,74.5c-0.2,0-0.3,0-0.5-0.1c-0.3-0.2-0.5-0.5-0.5-0.9V59.3c0-0.4,0.2-0.7,0.5-0.9l12.3-7.1
								c0.3-0.2,0.7-0.2,1,0s0.5,0.5,0.5,0.9v14.2c0,0.4-0.2,0.7-0.5,0.9l-12.3,7.1C52,74.4,51.8,74.5,51.7,74.5z M52.7,59.9v11.9
								L63,65.9V54L52.7,59.9z"/>
						</g>
						<g>
							<polygon class="st2" points="39.4,66.4 39.4,80.6 51.7,73.5 51.7,59.3 							"/>
							<path class="st4" d="M39.4,81.6c-0.2,0-0.3,0-0.5-0.1c-0.3-0.2-0.5-0.5-0.5-0.9V66.4c0-0.4,0.2-0.7,0.5-0.9l12.3-7.1
								c0.3-0.2,0.7-0.2,1,0s0.5,0.5,0.5,0.9v14.2c0,0.4-0.2,0.7-0.5,0.9l-12.3,7.1C39.7,81.5,39.6,81.6,39.4,81.6z M40.4,67v11.9
								L50.7,73V61.1L40.4,67z"/>
						</g>
						<g>
							<polygon class="st2" points="51.7,45.2 51.7,59.3 63.9,52.3 63.9,38.1 							"/>
							<path class="st0" d="M51.7,60.3c-0.2,0-0.3,0-0.5-0.1c-0.3-0.2-0.5-0.5-0.5-0.9V45.2c0-0.4,0.2-0.7,0.5-0.9l12.3-7.1
								c0.3-0.2,0.7-0.2,1,0s0.5,0.5,0.5,0.9v14.2c0,0.4-0.2,0.7-0.5,0.9l-12.3,7.1C52,60.3,51.8,60.3,51.7,60.3z M52.7,45.7v11.9
								L63,51.7V39.8L52.7,45.7z"/>
						</g>
					</g>
					<g>
						<g>
							<g>
								<polygon class="st5" points="108.4,99.4 94.8,107.3 81.2,99.4 81.2,83.7 94.8,75.9 108.4,83.7 								"/>
								<g>
									<polygon class="st4" points="94.8,91.6 94.8,107.3 108.4,99.4 108.4,83.7 									"/>
									<path class="st4" d="M94.8,108.3c-0.2,0-0.3,0-0.5-0.1c-0.3-0.2-0.5-0.5-0.5-0.9V91.6c0-0.4,0.2-0.7,0.5-0.9l13.6-7.9
										c0.3-0.2,0.7-0.2,1,0s0.5,0.5,0.5,0.9v15.7c0,0.4-0.2,0.7-0.5,0.9l-13.6,7.9C95.1,108.2,95,108.3,94.8,108.3z M95.8,92.2
										v13.4l11.6-6.7V85.5L95.8,92.2z"/>
								</g>
								<g>
									<polygon class="st2" points="108.4,83.7 94.8,91.6 81.2,83.7 81.2,83.7 94.8,75.9 									"/>
									<path class="st4" d="M94.8,92.6c-0.2,0-0.3,0-0.5-0.1l-13.6-7.9c-0.3-0.2-0.5-0.5-0.5-0.9s0.2-0.7,0.5-0.9L94.3,75
										c0.3-0.2,0.7-0.2,1,0l13.6,7.9c0.3,0.2,0.5,0.5,0.5,0.9s-0.2,0.7-0.5,0.9l-13.6,7.9C95.1,92.5,95,92.6,94.8,92.6z
										 M83.2,83.7l11.6,6.7l11.6-6.7L94.8,77L83.2,83.7z"/>
								</g>
							</g>
							<path class="st6" d="M94.8,108.3c-0.2,0-0.3,0-0.5-0.1l-13.6-7.9c-0.3-0.2-0.5-0.5-0.5-0.9V83.7c0-0.4,0.2-0.7,0.5-0.9
								L94.3,75c0.3-0.2,0.7-0.2,1,0l13.6,7.9c0.3,0.2,0.5,0.5,0.5,0.9v15.7c0,0.4-0.2,0.7-0.5,0.9l-13.6,7.9
								C95.1,108.2,95,108.3,94.8,108.3z M82.2,98.9l12.6,7.3l12.6-7.3V84.3L94.8,77l-12.6,7.3C82.2,84.3,82.2,98.9,82.2,98.9z"/>
						</g>
						<g>
							<g>
								<polygon class="st5" points="94.8,107.3 81.2,115.1 67.6,107.3 67.6,91.6 81.2,83.7 94.8,91.6 								"/>
								<g>
									<polygon class="st4" points="81.2,99.4 81.2,115.1 94.8,107.3 94.8,91.6 									"/>
									<path class="st4" d="M81.2,116.1c-0.2,0-0.3,0-0.5-0.1c-0.3-0.2-0.5-0.5-0.5-0.9V99.4c0-0.4,0.2-0.7,0.5-0.9l13.6-7.9
										c0.3-0.2,0.7-0.2,1,0s0.5,0.5,0.5,0.9v15.7c0,0.4-0.2,0.7-0.5,0.9L81.7,116C81.5,116.1,81.3,116.1,81.2,116.1z M82.2,100
										v13.4l11.6-6.7V93.3L82.2,100z"/>
								</g>
								<g>
									<polygon class="st2" points="94.8,91.6 81.2,99.4 67.6,91.6 67.6,91.6 81.2,83.7 									"/>
									<path class="st4" d="M81.2,100.4c-0.2,0-0.3,0-0.5-0.1l-13.6-7.9c-0.3-0.2-0.5-0.5-0.5-0.9s0.2-0.7,0.5-0.9l13.6-7.9
										c0.3-0.2,0.7-0.2,1,0l13.6,7.9c0.3,0.2,0.5,0.5,0.5,0.9s-0.2,0.7-0.5,0.9l-13.6,7.9C81.5,100.4,81.3,100.4,81.2,100.4z
										 M69.6,91.6l11.6,6.7l11.6-6.7l-11.6-6.7L69.6,91.6z"/>
								</g>
							</g>
							<path class="st6" d="M81.2,116.1c-0.2,0-0.3,0-0.5-0.1l-13.6-7.9c-0.3-0.2-0.5-0.5-0.5-0.9V91.6c0-0.4,0.2-0.7,0.5-0.9
								l13.6-7.9c0.3-0.2,0.7-0.2,1,0l13.6,7.9c0.3,0.2,0.5,0.5,0.5,0.9v15.7c0,0.4-0.2,0.7-0.5,0.9L81.7,116
								C81.5,116.1,81.3,116.1,81.2,116.1z M68.6,106.7l12.6,7.3l12.6-7.3V92.2l-12.6-7.3l-12.6,7.3V106.7z"/>
						</g>
						<g>
							<g>
								<polygon class="st5" points="81.2,115.1 67.6,123 54,115.1 54,99.4 67.6,91.6 81.2,99.4 								"/>
								<g>
									<polygon class="st4" points="67.6,107.3 67.6,123 81.2,115.1 81.2,99.4 									"/>
									<path class="st4" d="M67.6,124c-0.2,0-0.3,0-0.5-0.1c-0.3-0.2-0.5-0.5-0.5-0.9v-15.7c0-0.4,0.2-0.7,0.5-0.9l13.6-7.9
										c0.3-0.2,0.7-0.2,1,0s0.5,0.5,0.5,0.9v15.7c0,0.4-0.2,0.7-0.5,0.9l-13.6,7.9C67.9,124,67.7,124,67.6,124z M68.6,107.9v13.4
										l11.6-6.7v-13.4L68.6,107.9z"/>
								</g>
								<g>
									<polygon class="st2" points="81.2,99.4 67.6,107.3 54,99.4 54,99.4 67.6,91.6 									"/>
									<path class="st4" d="M67.6,108.3c-0.2,0-0.3,0-0.5-0.1l-13.6-7.9c-0.3-0.2-0.5-0.5-0.5-0.9s0.2-0.7,0.5-0.9l13.6-7.9
										c0.3-0.2,0.7-0.2,1,0l13.6,7.9c0.3,0.2,0.5,0.5,0.5,0.9s-0.2,0.7-0.5,0.9l-13.6,7.9C67.9,108.2,67.7,108.3,67.6,108.3z
										 M56,99.4l11.6,6.7l11.6-6.7l-11.6-6.7L56,99.4z"/>
								</g>
							</g>
							<path class="st6" d="M67.6,124c-0.2,0-0.3,0-0.5-0.1L53.5,116c-0.3-0.2-0.5-0.5-0.5-0.9V99.4c0-0.4,0.2-0.7,0.5-0.9l13.6-7.9
								c0.3-0.2,0.7-0.2,1,0l13.6,7.9c0.3,0.2,0.5,0.5,0.5,0.9v15.7c0,0.4-0.2,0.7-0.5,0.9l-13.6,7.9C67.9,124,67.7,124,67.6,124z
								 M55,114.6l12.6,7.3l12.6-7.3V100l-12.6-7.3L55,100V114.6z"/>
						</g>
						<g>
							<g>
								<g>
									<polygon class="st1" points="94.8,91.6 81.2,99.4 67.6,91.6 67.6,75.9 81.2,68 94.8,75.9 									"/>
									<path class="st0" d="M81.2,100.4c-0.2,0-0.3,0-0.5-0.1l-13.6-7.9c-0.3-0.2-0.5-0.5-0.5-0.9V75.9c0-0.4,0.2-0.7,0.5-0.9
										l13.6-7.9c0.3-0.2,0.7-0.2,1,0L95.3,75c0.3,0.2,0.5,0.5,0.5,0.9v15.7c0,0.4-0.2,0.7-0.5,0.9l-13.6,7.9
										C81.5,100.4,81.3,100.4,81.2,100.4z M68.6,91l12.6,7.3L93.8,91V76.4l-12.6-7.3l-12.6,7.3C68.6,76.4,68.6,91,68.6,91z
										 M94.8,91.6L94.8,91.6L94.8,91.6z"/>
								</g>
								<g>
									<polygon class="st2" points="94.8,75.9 81.2,83.7 67.6,75.9 67.6,75.9 81.2,68 									"/>
									<path class="st0" d="M81.2,84.7c-0.2,0-0.3,0-0.5-0.1l-13.6-7.9c-0.3-0.2-0.5-0.5-0.5-0.9s0.2-0.7,0.5-0.9L80.7,67
										c0.3-0.2,0.7-0.2,1,0l13.6,8c0.3,0.2,0.5,0.5,0.5,0.9s-0.2,0.7-0.5,0.9l-13.6,7.9C81.5,84.7,81.3,84.7,81.2,84.7z
										 M69.6,75.9l11.6,6.7l11.6-6.7l-11.6-6.7L69.6,75.9z"/>
								</g>
								<g>
									<polygon class="st0" points="81.2,83.7 81.2,99.4 94.8,91.6 94.8,75.9 									"/>
									<path class="st0" d="M81.2,100.4c-0.2,0-0.3,0-0.5-0.1c-0.3-0.2-0.5-0.5-0.5-0.9V83.7c0-0.4,0.2-0.7,0.5-0.9L94.3,75
										c0.3-0.2,0.7-0.2,1,0s0.5,0.5,0.5,0.9v15.7c0,0.4-0.2,0.7-0.5,0.9l-13.6,7.9C81.5,100.4,81.3,100.4,81.2,100.4z M82.2,84.3
										v13.4L93.8,91V77.6L82.2,84.3z"/>
								</g>
							</g>
							<path class="st3" d="M81.2,100.4c-0.2,0-0.3,0-0.5-0.1l-13.6-7.9c-0.3-0.2-0.5-0.5-0.5-0.9V75.9c0-0.4,0.2-0.7,0.5-0.9
								l13.6-7.9c0.3-0.2,0.7-0.2,1,0L95.3,75c0.3,0.2,0.5,0.5,0.5,0.9v15.7c0,0.4-0.2,0.7-0.5,0.9l-13.6,7.9
								C81.5,100.4,81.3,100.4,81.2,100.4z M68.6,91l12.6,7.3L93.8,91V76.4l-12.6-7.3l-12.6,7.3C68.6,76.4,68.6,91,68.6,91z"/>
						</g>
					</g>
				</g>
				<rect x="4" y="4" class="st7" width="120" height="120"/>
				<rect x="4" y="4" class="st7" width="120" height="120"/>
			</g>
		</g>
	</g>
	<g>
		<rect class="st7" width="128" height="128"/>
	</g>
</g>
</svg>
