<?xml version="1.0" encoding="utf-8"?>
<!-- Generator: Adobe Illustrator 24.1.0, SVG Export Plug-In . SVG Version: 6.00 Build 0)  -->
<svg version="1.1" id="Layer_1" xmlns="http://www.w3.org/2000/svg" xmlns:xlink="http://www.w3.org/1999/xlink" x="0px" y="0px"
	 viewBox="0 0 128 128" style="enable-background:new 0 0 128 128;" xml:space="preserve">
<style type="text/css">
	.st0{fill:#FFFFFF;}
	.st1{fill:#27ae60;}
	.st2{fill:#C4D7D3;}
	.st3{fill:#185849;}
	.st4{fill:none;}
</style>
<g id="Layer_1_1_">
</g>
<g>
	<g id="Layer_2_1_">
		<g id="Tech_Concepts_1_">
			<g>
				<g>
					<g>
						<polygon class="st0" points="107.7,71.2 64,45.9 20.3,71.1 20.3,97.4 64,122.7 107.7,97.5 						"/>
						<polygon class="st1" points="107.7,97.5 64,122.7 64,96.4 107.7,71.2 						"/>
						<polygon class="st2" points="20.3,97.4 64,122.7 64,96.4 20.3,71.1 						"/>
						<path class="st1" d="M85.8,84.8c-0.2,0-0.3,0-0.5-0.1L63.5,72c-0.3-0.2-0.5-0.5-0.5-0.9s0.2-0.7,0.5-0.9l21.9-12.6
							c0.3-0.2,0.7-0.2,1,0l21.8,12.6c0.3,0.2,0.5,0.5,0.5,0.9s-0.2,0.7-0.5,0.9L86.3,84.6C86.2,84.7,86,84.8,85.8,84.8z M66,71.1
							l19.8,11.5l19.9-11.4L85.9,59.7L66,71.1z"/>
						<path class="st1" d="M85.8,111.1c-0.6,0-1-0.4-1-1V83.8c0-0.6,0.4-1,1-1s1,0.4,1,1v26.3C86.8,110.7,86.4,111.1,85.8,111.1z"/>
						<path class="st1" d="M64,123.7L64,123.7c-0.6,0-1-0.4-1-1V96.4c0-0.6,0.4-1,1-1l0,0c0.6,0,1,0.4,1,1v26.3
							C65,123.3,64.5,123.7,64,123.7z"/>
						<ellipse class="st1" cx="64" cy="52.3" rx="2.1" ry="1.2"/>
						<ellipse class="st1" cx="31.5" cy="71.1" rx="2.1" ry="1.2"/>
						<ellipse class="st1" cx="64" cy="89.9" rx="2.1" ry="1.2"/>
						<path class="st3" d="M64,110.6c-0.2,0-0.3,0-0.5-0.1L19.8,85.2c-0.5-0.3-0.6-0.9-0.4-1.4c0.3-0.5,0.9-0.6,1.4-0.4l43.2,25
							l43.2-24.9c0.5-0.3,1.1-0.1,1.4,0.4s0.1,1.1-0.4,1.4l-43.7,25.2C64.3,110.5,64.1,110.6,64,110.6z"/>
						<path class="st1" d="M64,97.4c-0.2,0-0.3,0-0.5-0.1L19.8,71.9c-0.5-0.3-0.6-0.9-0.4-1.4c0.3-0.5,0.9-0.6,1.4-0.4l43.2,25
							l43.2-24.9c0.5-0.3,1.1-0.1,1.4,0.4s0.1,1.1-0.4,1.4L64.5,97.2C64.3,97.3,64.1,97.4,64,97.4z"/>
						<path class="st3" d="M64,123.7c-0.2,0-0.3,0-0.5-0.1L19.8,98.3c-0.3-0.2-0.5-0.5-0.5-0.9V71.1c0-0.4,0.2-0.7,0.5-0.9L63.5,45
							c0.3-0.2,0.7-0.2,1,0l43.7,25.3c0.3,0.2,0.5,0.5,0.5,0.9v26.3c0,0.4-0.2,0.7-0.5,0.9l-43.7,25.2
							C64.3,123.7,64.1,123.7,64,123.7z M21.3,96.8L64,121.5l42.7-24.6V71.7L64,47L21.3,71.6V96.8z"/>
						<path class="st1" d="M85.9,77.1c-0.2,0-0.3,0-0.5-0.1l-8.3-4.8c-0.3-0.2-0.5-0.5-0.5-0.9s0.2-0.7,0.5-0.9l8.3-4.8
							c0.3-0.2,0.7-0.2,1,0l8.3,4.8c0.3,0.2,0.5,0.5,0.5,0.9S95,72,94.7,72.2L86.4,77C86.2,77,86,77.1,85.9,77.1z M79.6,71.3
							l6.3,3.6l6.3-3.6l-6.3-3.6L79.6,71.3z"/>
					</g>
					<g>
						<polygon class="st0" points="107.7,30.6 64,5.3 20.3,30.5 20.3,56.8 64,82.1 107.7,56.9 						"/>
						<polygon class="st1" points="107.7,56.9 64,82.1 64,55.8 107.7,30.6 						"/>
						<polygon class="st2" points="20.3,56.8 64,82.1 64,55.8 20.3,30.5 						"/>
						<path class="st1" d="M85.8,44.2c-0.2,0-0.3,0-0.5-0.1L63.5,31.4c-0.3-0.2-0.5-0.5-0.5-0.9s0.2-0.7,0.5-0.9L85.4,17
							c0.3-0.2,0.7-0.2,1,0l21.8,12.6c0.3,0.2,0.5,0.5,0.5,0.9s-0.2,0.7-0.5,0.9L86.3,44.1C86.2,44.1,86,44.2,85.8,44.2z M66,30.5
							L85.8,42l19.9-11.4L85.9,19.1L66,30.5z"/>
						<path class="st1" d="M85.8,70.5c-0.6,0-1-0.4-1-1V43.2c0-0.6,0.4-1,1-1s1,0.4,1,1v26.3C86.8,70.1,86.4,70.5,85.8,70.5z"/>
						<path class="st1" d="M64,83.1L64,83.1c-0.6,0-1-0.4-1-1V55.8c0-0.6,0.4-1,1-1l0,0c0.6,0,1,0.4,1,1v26.3
							C65,82.7,64.5,83.1,64,83.1z"/>
						<ellipse class="st1" cx="64" cy="11.8" rx="2.1" ry="1.2"/>
						<ellipse class="st1" cx="31.5" cy="30.5" rx="2.1" ry="1.2"/>
						<ellipse class="st1" cx="64" cy="49.3" rx="2.1" ry="1.2"/>
						<path class="st3" d="M64,70c-0.2,0-0.3,0-0.5-0.1L19.8,44.6c-0.5-0.3-0.6-0.9-0.4-1.4c0.3-0.5,0.9-0.6,1.4-0.4l43.2,25
							L107.2,43c0.5-0.3,1.1-0.1,1.4,0.4s0.1,1.1-0.4,1.4L64.5,69.9C64.3,70,64.1,70,64,70z"/>
						<path class="st1" d="M64,56.8c-0.2,0-0.3,0-0.5-0.1L19.8,31.3c-0.5-0.3-0.6-0.9-0.4-1.4c0.3-0.5,0.9-0.6,1.4-0.4l43.2,25
							l43.2-24.9c0.5-0.3,1.1-0.1,1.4,0.4s0.1,1.1-0.4,1.4L64.5,56.6C64.3,56.7,64.1,56.8,64,56.8z"/>
						<path class="st3" d="M64,83.1c-0.2,0-0.3,0-0.5-0.1L19.8,57.7c-0.3-0.2-0.5-0.5-0.5-0.9V30.5c0-0.4,0.2-0.7,0.5-0.9L63.5,4.4
							c0.3-0.2,0.7-0.2,1,0l43.7,25.3c0.3,0.2,0.5,0.5,0.5,0.9v26.3c0,0.4-0.2,0.7-0.5,0.9L64.5,83C64.3,83.1,64.1,83.1,64,83.1z
							 M21.3,56.2L64,81l42.7-24.6V31.2L64,6.5L21.3,31.1V56.2z"/>
						<path class="st1" d="M85.9,36.5c-0.2,0-0.3,0-0.5-0.1l-8.3-4.8c-0.3-0.2-0.5-0.5-0.5-0.9s0.2-0.7,0.5-0.9l8.3-4.8
							c0.3-0.2,0.7-0.2,1,0l8.3,4.8c0.3,0.2,0.5,0.5,0.5,0.9s-0.2,0.7-0.5,0.9l-8.3,4.8C86.2,36.5,86,36.5,85.9,36.5z M79.6,30.7
							l6.3,3.6l6.3-3.6l-6.3-3.6L79.6,30.7z"/>
					</g>
				</g>
				<rect x="4" y="4" class="st4" width="120" height="120"/>
				<rect x="4" y="4" class="st4" width="120" height="120"/>
			</g>
		</g>
	</g>
	<g>
		<rect class="st4" width="128" height="128"/>
	</g>
</g>
</svg>
