<?xml version="1.0" encoding="utf-8"?>
<!-- Generator: Adobe Illustrator 24.1.0, SVG Export Plug-In . SVG Version: 6.00 Build 0)  -->
<svg version="1.1" id="Layer_1" xmlns="http://www.w3.org/2000/svg" xmlns:xlink="http://www.w3.org/1999/xlink" x="0px" y="0px"
	 viewBox="0 0 128 128" style="enable-background:new 0 0 128 128;" xml:space="preserve">
<style type="text/css">
	.st0{fill:none;}
	.st1{fill:#FFFFFF;}
	.st2{fill:#4D9987;}
	.st3{fill:#E9EBDF;}
	.st4{fill:#0E352C;}
	.st5{fill:#27ae60;}
	.st6{fill:#C4D7D3;}
	.st7{fill:#185849;}
</style>
<g id="Layer_1_1_">
</g>
<g>
	<g id="Layer_2_1_">
		<g id="New_Illustrations_1_">
			<g>
				<rect x="4" y="4" class="st0" width="120" height="120"/>
				<g>
					<g>
						<g>
							<g>
								<path class="st1" d="M81.8,10L74,5.5l0,0c-0.2-0.1-0.5-0.1-0.7,0.1l-66,38.1C6.6,44,6.1,45,6.1,45.9v64
									c0,0.5,0.2,0.8,0.4,0.9l0,0l7.8,4.5l6.6-12.5l52.3-35.3c0.6-0.4,1.1-1.3,1.1-2.2V20L81.8,10z"/>
								<path class="st2" d="M14.3,116.4c-0.2,0-0.3,0-0.5-0.1L6,111.7c-0.1,0-0.1-0.1-0.2-0.1c-0.5-0.4-0.7-1-0.7-1.7v-64
									c0-1.2,0.7-2.5,1.6-3l66-38.1c0.5-0.3,1.1-0.3,1.6-0.1c0.1,0,0.1,0,0.2,0.1l7.8,4.5c0.2,0.1,0.4,0.4,0.5,0.7s0,0.6-0.2,0.8
									l-7.3,9.7v45c0,1.2-0.7,2.5-1.6,3l-52,35.2L15.2,116c-0.1,0.2-0.3,0.4-0.6,0.5C14.5,116.3,14.4,116.4,14.3,116.4z M7.1,110
									l6.8,3.9l6.1-11.6c0.1-0.1,0.2-0.3,0.3-0.4l52.3-35.3c0.3-0.2,0.7-0.8,0.7-1.4V20c0-0.2,0.1-0.4,0.2-0.6l6.8-9l-6.7-3.9
									l-65.9,38c-0.3,0.2-0.6,0.8-0.6,1.3v64C7.1,110,7.1,110,7.1,110z"/>
							</g>
							<path class="st3" d="M13.9,115.1V39.8l-6.7,3.9C6.6,44,6.1,45,6.1,45.9v64c0,0.5,0.2,0.8,0.4,0.9l0,0L13.9,115.1z"/>
							<g>
								<path class="st2" d="M50.5,80.6l22.7-13.1c0.6-0.4,1.1-1.3,1.1-2.2V20l7.5-9.9L74,5.5l0,0c-0.2-0.1-0.5-0.1-0.7,0.1
									l-66,38.1C6.6,44,6.1,45,6.1,45.9V55L50.5,80.6z"/>
								<path class="st4" d="M50.5,81.6c-0.2,0-0.3,0-0.5-0.1L5.6,55.9c-0.3-0.2-0.5-0.5-0.5-0.9v-9.1c0-1.2,0.7-2.5,1.6-3l66-38.1
									c0.5-0.3,1.1-0.3,1.6-0.1c0.1,0,0.1,0,0.2,0.1l7.8,4.5c0.2,0.1,0.4,0.4,0.5,0.7s0,0.6-0.2,0.8l-7.3,9.7v45
									c0,1.2-0.7,2.5-1.6,3L51,81.5C50.9,81.6,50.7,81.6,50.5,81.6z M7.1,54.4l43.4,25.1l22.2-12.8c0.3-0.2,0.6-0.8,0.6-1.3V20
									c0-0.2,0.1-0.4,0.2-0.6l6.8-9l-6.7-3.9l-65.9,38c-0.3,0.2-0.6,0.8-0.6,1.3V54.4z"/>
							</g>
							<path class="st3" d="M52.6,72.7l21.8-30.4V20l7.5-9.9L74,5.5l0,0c-0.2-0.1-0.5-0.1-0.7,0.1l-66,38.1C6.6,44,6.1,45,6.1,45.9
								l0,0L52.6,72.7z"/>
							<g>
								<path class="st1" d="M81.1,77.2l-66,38.1c-0.6,0.4-1.1,0-1.1-0.9v-64c0-0.8,0.5-1.8,1.1-2.2l66-38.1c0.6-0.4,1.1,0,1.1,0.9
									v64C82.2,75.8,81.7,76.8,81.1,77.2z"/>
								<path class="st2" d="M14.6,116.4c-0.3,0-0.5-0.1-0.8-0.2c-0.6-0.3-0.9-1-0.9-1.8v-64c0-1.2,0.7-2.5,1.6-3l66-38.1
									c0.6-0.3,1.2-0.4,1.7-0.1c0.6,0.3,0.9,1,0.9,1.8v64c0,1.2-0.7,2.5-1.6,3l-66,38.1C15.3,116.3,14.9,116.4,14.6,116.4z
									 M81.2,11.2L15.6,49.1c-0.3,0.2-0.6,0.8-0.6,1.3v63.8l65.6-37.9l0,0c0.3-0.2,0.6-0.8,0.6-1.3V11.2z"/>
							</g>
							<path class="st4" d="M14.6,116.4c-0.2,0-0.4,0-0.6-0.1c-0.1,0-0.1,0-0.2-0.1L6,111.7c-0.1,0-0.1-0.1-0.2-0.1
								c-0.5-0.4-0.7-1-0.7-1.7v-64c0-1.2,0.7-2.5,1.6-3l66-38.1c0.5-0.3,1.1-0.3,1.6-0.1c0.1,0,0.1,0,0.2,0.1l7.8,4.5
								c0.1,0,0.1,0.1,0.2,0.1c0.5,0.4,0.7,1,0.7,1.7v64c0,1.2-0.7,2.5-1.6,3l-66,38.1C15.3,116.3,14.9,116.4,14.6,116.4z M7.1,110
								l7.6,4.4l65.9-38.1c0.3-0.2,0.6-0.8,0.6-1.3V11c0-0.1,0-0.1,0-0.1l-7.6-4.4l-65.9,38c-0.3,0.2-0.6,0.8-0.6,1.3v64
								C7.1,110,7.1,110,7.1,110z M81.3,10.9L81.3,10.9L81.3,10.9z"/>
							<g>
								<path class="st4" d="M82.2,20.1V11c0-0.8-0.5-1.2-1.1-0.9l-66,38.1c-0.6,0.4-1.1,1.3-1.1,2.2v9.1L82.2,20.1z"/>
								<path class="st4" d="M13.9,60.5c-0.2,0-0.3,0-0.5-0.1c-0.3-0.2-0.5-0.5-0.5-0.9v-9.1c0-1.2,0.7-2.5,1.6-3l66-38.1
									c0.6-0.3,1.2-0.4,1.7-0.1c0.6,0.3,0.9,1,0.9,1.8v9.1c0,0.4-0.2,0.7-0.5,0.9L14.4,60.4C14.3,60.5,14.1,60.5,13.9,60.5z
									 M81.2,11.2L15.6,49.1c-0.3,0.2-0.6,0.8-0.6,1.3v7.4l66.3-38.3v-8.3H81.2z M82.2,20.1L82.2,20.1L82.2,20.1z"/>
							</g>
							<g>
								
									<ellipse transform="matrix(0.3916 -0.9201 0.9201 0.3916 -29.7027 51.8734)" class="st3" cx="24.4" cy="48.4" rx="2" ry="1.1"/>
								
									<ellipse transform="matrix(0.3916 -0.9201 0.9201 0.3916 -24.1017 54.7781)" class="st1" cx="29.4" cy="45.6" rx="2" ry="1.1"/>
								
									<ellipse transform="matrix(0.3916 -0.9201 0.9201 0.3916 -35.6233 48.9664)" class="st2" cx="19.2" cy="51.4" rx="2" ry="1.1"/>
							</g>
							<g>
								<g>
									<polygon class="st1" points="23.5,64.2 23.5,101.2 72.7,72.8 72.7,35.8 									"/>
									<path class="st2" d="M23.5,102.2c-0.2,0-0.3,0-0.5-0.1c-0.3-0.2-0.5-0.5-0.5-0.9v-37c0-0.4,0.2-0.7,0.5-0.9l49.2-28.4
										c0.3-0.2,0.7-0.2,1,0s0.5,0.5,0.5,0.9v37c0,0.4-0.2,0.7-0.5,0.9L24,102C23.8,102.1,23.7,102.2,23.5,102.2z M24.5,64.8v34.7
										l47.2-27.2V37.5L24.5,64.8z"/>
								</g>
							</g>
							<g>
								<g>
									<polygon class="st1" points="23.5,64.2 23.5,73.2 72.7,44.8 72.7,35.8 									"/>
									<path class="st2" d="M23.5,74.2c-0.2,0-0.3,0-0.5-0.1c-0.3-0.2-0.5-0.5-0.5-0.9v-9c0-0.4,0.2-0.7,0.5-0.9l49.2-28.4
										c0.3-0.2,0.7-0.2,1,0s0.5,0.5,0.5,0.9v9c0,0.4-0.2,0.7-0.5,0.9L24,74C23.8,74.1,23.7,74.2,23.5,74.2z M24.5,64.8v6.7
										l47.2-27.2v-6.7L24.5,64.8z"/>
								</g>
							</g>
							<g>
								<polygon class="st1" points="38.2,55.7 23.5,64.2 23.5,101.2 38.2,92.7 								"/>
								<path class="st2" d="M23.5,102.2c-0.2,0-0.3,0-0.5-0.1c-0.3-0.2-0.5-0.5-0.5-0.9v-37c0-0.4,0.2-0.7,0.5-0.9l14.7-8.5
									c0.3-0.2,0.7-0.2,1,0s0.5,0.5,0.5,0.9v37c0,0.4-0.2,0.7-0.5,0.9L24,102C23.8,102.1,23.7,102.2,23.5,102.2z M24.5,64.8v34.7
									l12.7-7.3V57.5L24.5,64.8z"/>
							</g>
						</g>
					</g>
					<g>
						<g>
							<path class="st2" d="M92.4,119.1l28.4-16.4c0.7-0.4,1.1-1,1.1-1.5V88.8H104l-11.6-6.7c-0.7-0.4-1.7-0.6-2.6-0.6v38.2
								C90.8,119.7,91.7,119.5,92.4,119.1z"/>
							<path class="st4" d="M113.7,101.9l-13.6,7.9c-0.6,0.4-1.1,1.3-1.1,2.1v3.2l15.8-9.1v-3.2
								C114.8,101.9,114.3,101.6,113.7,101.9z"/>
							<path class="st3" d="M89.8,81.5c-0.9,0-1.9,0.2-2.6,0.6l-11.6,6.7H57.7v12.3c0,0.5,0.4,1.1,1.1,1.5L87.2,119
								c0.7,0.4,1.7,0.6,2.6,0.6"/>
							<path class="st2" d="M85.7,111c-0.7-0.4-1.3-0.9-1.7-1.8c-0.4-0.9-1.1-1.6-1.7-2l-16.8-9.7c-0.7-0.4-1.3-0.4-1.7,0
								c-0.4,0.3-1.1,0.1-1.7-0.2l-4.2-2.4v2.3l4.2,2.4c0.7,0.4,1.3,0.9,1.7,1.8c0.4,0.9,1.1,1.6,1.7,2l16.8,9.7
								c0.7,0.4,1.3,0.4,1.7,0c0.4-0.3,1.1-0.1,1.7,0.3l4.3,2.5v-2.3L85.7,111z"/>
							<g>
								<path class="st1" d="M120.8,87.3L92.4,70.9c-1.4-0.8-3.8-0.8-5.2,0L58.8,87.3c-1.4,0.8-1.4,2.2,0,3l28.4,16.4
									c1.4,0.8,3.8,0.8,5.2,0l28.4-16.4C122.3,89.5,122.3,88.2,120.8,87.3z"/>
								<path class="st2" d="M89.8,108.4c-1.1,0-2.2-0.2-3.1-0.8L58.3,91.2c-1-0.6-1.6-1.4-1.6-2.4s0.6-1.8,1.6-2.4L86.7,70
									c1.7-1,4.4-1,6.2,0l28.4,16.4l0,0c1,0.6,1.6,1.4,1.6,2.4s-0.6,1.8-1.6,2.4l-28.4,16.4C92,108.1,90.9,108.4,89.8,108.4z
									 M89.8,71.3c-0.8,0-1.5,0.2-2.1,0.5L59.3,88.2c-0.4,0.2-0.6,0.5-0.6,0.6s0.1,0.4,0.6,0.6l28.4,16.4c1.1,0.6,3.1,0.6,4.2,0
									l28.4-16.4c0.4-0.2,0.6-0.5,0.6-0.6s-0.2-0.4-0.6-0.6L91.9,71.8C91.3,71.5,90.6,71.3,89.8,71.3z"/>
							</g>
							<path class="st4" d="M89.8,120.7c-1.2,0-2.2-0.3-3.1-0.8l-28.4-16.4c-1-0.6-1.6-1.4-1.6-2.4V88.8c0-0.9,0.6-1.8,1.6-2.4
								L86.7,70c1.7-1,4.4-1,6.2,0l28.4,16.4l0,0c1,0.6,1.6,1.4,1.6,2.4v12.3c0,0.9-0.6,1.8-1.6,2.4l-28.4,16.4
								C92.1,120.4,91,120.7,89.8,120.7z M89.8,71.3c-0.8,0-1.5,0.2-2.1,0.5L59.3,88.2c-0.4,0.2-0.6,0.5-0.6,0.6v12.3
								c0,0.1,0.2,0.4,0.6,0.6l28.4,16.4c1.1,0.6,3.1,0.6,4.2,0l28.4-16.4c0.4-0.2,0.6-0.5,0.6-0.6V88.8c0-0.1-0.2-0.4-0.6-0.6
								L91.9,71.8C91.3,71.5,90.6,71.3,89.8,71.3z"/>
							<g>
								
									<ellipse transform="matrix(0.9201 -0.3916 0.3916 0.9201 -36.5793 40.9914)" class="st3" cx="82.2" cy="110.2" rx="0.5" ry="0.9"/>
							</g>
							<g>
								<ellipse class="st3" cx="114.7" cy="88.8" rx="1.5" ry="0.8"/>
								<ellipse class="st3" cx="90" cy="103.1" rx="1.5" ry="0.8"/>
								<ellipse class="st3" cx="90" cy="74.5" rx="1.5" ry="0.8"/>
								<ellipse class="st3" cx="65.2" cy="88.8" rx="1.5" ry="0.8"/>
							</g>
							<g>
								<path class="st3" d="M79.2,88.3c-0.1,0-0.2,0-0.2,0.1l-3.3,1.9c-0.1,0.1-0.2,0.2-0.1,0.2c0.1,0.1,0.2,0.1,0.4,0.1L87.1,90
									c0.2,0,0.5,0.1,0.4,0.3l-0.9,6.4c0,0.1,0,0.2,0.2,0.2c0.2,0.1,0.4,0,0.5,0l3.2-1.8c0.1,0,0.1-0.1,0.1-0.1l1-7v-0.1
									c0-0.1-0.1-0.2-0.3-0.2h-0.1L79.2,88.3z"/>
								<g>
									<path class="st3" d="M93.4,87.8c0-0.1,0.2-0.2,0.4-0.2l9.7-0.5c0.1,0,0.3,0,0.4,0.1s0.1,0.2,0,0.3l-3.2,1.8
										c-0.1,0-0.1,0.1-0.2,0.1l-6.7,0.4c-0.2,0-0.5-0.1-0.4-0.2L93.4,87.8z"/>
								</g>
								<path class="st3" d="M91.4,86.7c0.2,0,0.4-0.1,0.4-0.2l1-5.6c0-0.1,0-0.2-0.2-0.2c-0.2-0.1-0.4,0-0.5,0l-3.2,1.8
									c-0.1,0-0.1,0.1-0.1,0.1l-0.6,3.9c0,0.1,0.2,0.3,0.4,0.3L91.4,86.7z"/>
							</g>
						</g>
					</g>
					<g>
						<g>
							<g>
								<g>
									<g>
										<path class="st5" d="M29.6,105v7.7c0,2.5,1.7,5.1,5,7c6.7,3.9,17.5,3.9,24.2,0c3.3-1.9,5-4.5,5-7l0,0V105H29.6z"/>
										<path class="st5" d="M46.7,123.5c-4.6,0-9.1-1-12.6-3c-3.6-2.1-5.5-4.8-5.5-7.9V105c0-0.6,0.4-1,1-1h34.2c0.6,0,1,0.4,1,1
											v7.7c0,3-2,5.8-5.5,7.9C55.8,122.5,51.3,123.5,46.7,123.5z M30.6,106v6.7c0,2.3,1.6,4.4,4.5,6.1c6.4,3.7,16.8,3.7,23.2,0
											c2.9-1.7,4.5-3.9,4.5-6.1V106H30.6z"/>
									</g>
									<path class="st6" d="M29.6,105v7.7c0,2.5,1.7,5.1,5,7s7.7,2.9,12.1,2.9V105H29.6z"/>
									<g>
										<ellipse class="st6" cx="46.7" cy="105" rx="17.1" ry="9.9"/>
										<path class="st1" d="M46.7,115.9c-4.6,0-9.1-1-12.6-3l0,0c-3.6-2.1-5.5-4.8-5.5-7.9s2-5.8,5.5-7.9c6.9-4,18.2-4,25.2,0
											c3.6,2.1,5.5,4.8,5.5,7.9s-2,5.8-5.5,7.9C55.8,114.9,51.3,115.9,46.7,115.9z M46.7,96.1c-4.2,0-8.4,0.9-11.6,2.8
											c-2.9,1.7-4.5,3.9-4.5,6.1s1.6,4.4,4.5,6.1l0,0c6.4,3.7,16.8,3.7,23.2,0c2.9-1.7,4.5-3.9,4.5-6.1s-1.6-4.4-4.5-6.1
											C55.1,97,50.9,96.1,46.7,96.1z"/>
									</g>
									<ellipse class="st5" cx="46.7" cy="105" rx="11.9" ry="6.4"/>
									<path class="st7" d="M46.7,123.5c-4.6,0-9.1-1-12.6-3c-3.6-2.1-5.5-4.8-5.5-7.9V105c0-3,2-5.8,5.5-7.9c6.9-4,18.2-4,25.2,0
										c3.6,2.1,5.5,4.8,5.5,7.9v7.7c0,3-2,5.8-5.5,7.9C55.8,122.5,51.3,123.5,46.7,123.5z M46.7,96.1c-4.2,0-8.4,0.9-11.6,2.8
										c-2.9,1.7-4.5,3.9-4.5,6.1v7.7c0,2.3,1.6,4.4,4.5,6.1c6.4,3.7,16.8,3.7,23.2,0c2.9-1.7,4.5-3.9,4.5-6.1V105
										c0-2.3-1.6-4.4-4.5-6.1C55.1,97,50.9,96.1,46.7,96.1z"/>
									<g>
										<path class="st7" d="M52.3,119.2c-0.3,0-0.5-0.1-0.7-0.3c-0.1-0.1-0.2-0.2-0.2-0.3c0-0.1-0.1-0.2-0.1-0.4
											c0-0.3,0.1-0.5,0.3-0.7c0.4-0.4,1-0.4,1.4,0c0.1,0.1,0.2,0.2,0.2,0.3c0.1,0.1,0.1,0.2,0.1,0.4c0,0.1,0,0.3-0.1,0.4
											c0,0.1-0.1,0.2-0.2,0.3C52.9,119,52.6,119.2,52.3,119.2z"/>
										<path class="st7" d="M54.7,117.6c-0.2-0.5,0.1-1.1,0.6-1.3l0,0c0.5-0.2,1.1,0.1,1.3,0.6l0,0c0.2,0.5-0.1,1.1-0.6,1.3l0,0
											c-0.1,0-0.2,0.1-0.3,0.1l0,0C55.3,118.2,54.9,118,54.7,117.6z"/>
										<path class="st7" d="M58.8,116.8c-0.3,0-0.5-0.1-0.7-0.3c-0.1-0.1-0.2-0.2-0.2-0.3c0-0.1-0.1-0.2-0.1-0.4
											c0-0.3,0.1-0.5,0.3-0.7s0.6-0.3,0.9-0.3c0.1,0,0.1,0,0.2,0.1c0.1,0,0.1,0.1,0.2,0.1l0.1,0.1c0.2,0.2,0.3,0.4,0.3,0.7
											c0,0.1,0,0.3-0.1,0.4c0,0.1-0.1,0.2-0.2,0.3c0,0.1-0.1,0.1-0.1,0.1c-0.1,0-0.1,0.1-0.2,0.1c-0.1,0-0.1,0-0.2,0.1
											C58.9,116.8,58.9,116.8,58.8,116.8z"/>
									</g>
								</g>
							</g>
						</g>
						<g>
							<g>
								<g>
									<g>
										<path class="st5" d="M29.6,95.4v7.7c0,2.5,1.7,5.1,5,7c6.7,3.9,17.5,3.9,24.2,0c3.3-1.9,5-4.5,5-7l0,0v-7.7H29.6z"/>
										<path class="st5" d="M46.7,114c-4.6,0-9.1-1-12.6-3c-3.6-2.1-5.5-4.8-5.5-7.9v-7.7c0-0.6,0.4-1,1-1h34.2c0.6,0,1,0.4,1,1
											v7.7c0,3-2,5.8-5.5,7.9C55.8,113,51.3,114,46.7,114z M30.6,96.4v6.7c0,2.3,1.6,4.4,4.5,6.1c6.4,3.7,16.8,3.7,23.2,0
											c2.9-1.7,4.5-3.9,4.5-6.1v-6.7H30.6z"/>
									</g>
									<path class="st6" d="M29.6,95.4v7.7c0,2.5,1.7,5.1,5,7s7.7,2.9,12.1,2.9V95.4H29.6z"/>
									<g>
										<ellipse class="st6" cx="46.7" cy="95.4" rx="17.1" ry="9.9"/>
										<path class="st1" d="M46.7,106.3c-4.6,0-9.1-1-12.6-3l0,0c-3.6-2.1-5.5-4.8-5.5-7.9c0-3,2-5.8,5.5-7.9
											c6.9-4,18.2-4,25.2,0c3.6,2.1,5.5,4.8,5.5,7.9c0,3-2,5.8-5.5,7.9C55.8,105.3,51.3,106.3,46.7,106.3z M35.1,101.5
											c6.4,3.7,16.8,3.7,23.2,0c2.9-1.7,4.5-3.9,4.5-6.1c0-2.3-1.6-4.4-4.5-6.1c-6.4-3.7-16.8-3.7-23.2,0
											c-2.9,1.7-4.5,3.9-4.5,6.1C30.6,97.7,32.2,99.9,35.1,101.5L35.1,101.5z"/>
									</g>
									<ellipse class="st5" cx="46.7" cy="95.4" rx="11.9" ry="6.4"/>
									<path class="st7" d="M46.7,114c-4.6,0-9.1-1-12.6-3c-3.6-2.1-5.5-4.8-5.5-7.9v-7.7c0-3,2-5.8,5.5-7.9c6.9-4,18.2-4,25.2,0
										c3.6,2.1,5.5,4.8,5.5,7.9v7.7c0,3-2,5.8-5.5,7.9C55.8,113,51.3,114,46.7,114z M46.7,86.5c-4.2,0-8.4,0.9-11.6,2.8
										c-2.9,1.7-4.5,3.9-4.5,6.1v7.7c0,2.3,1.6,4.4,4.5,6.1c6.4,3.7,16.8,3.7,23.2,0c2.9-1.7,4.5-3.9,4.5-6.1v-7.7
										c0-2.3-1.6-4.4-4.5-6.1C55.1,87.5,50.9,86.5,46.7,86.5z"/>
									<g>
										<path class="st7" d="M52.3,109.6c-0.1,0-0.1,0-0.2,0c-0.1,0-0.1,0-0.2-0.1c-0.1,0-0.1,0-0.2-0.1c0,0-0.1-0.1-0.2-0.1
											c-0.2-0.2-0.3-0.4-0.3-0.7s0.1-0.5,0.3-0.7c0.3-0.3,0.7-0.4,1.1-0.2c0.1,0.1,0.2,0.1,0.3,0.2s0.2,0.2,0.2,0.3
											c0.1,0.1,0.1,0.2,0.1,0.4c0,0.1,0,0.3-0.1,0.4c0,0.1-0.1,0.2-0.2,0.3C52.9,109.5,52.6,109.6,52.3,109.6z"/>
										<path class="st7" d="M54.7,108c-0.2-0.5,0.1-1.1,0.6-1.3l0,0c0.5-0.2,1.1,0.1,1.3,0.6l0,0c0.2,0.5-0.1,1.1-0.6,1.3l0,0
											c-0.1,0-0.2,0.1-0.3,0.1l0,0C55.3,108.7,54.9,108.4,54.7,108z"/>
										<path class="st7" d="M58.8,107.2c-0.3,0-0.5-0.1-0.7-0.3c-0.2-0.2-0.3-0.4-0.3-0.7c0-0.3,0.1-0.5,0.3-0.7s0.6-0.3,0.9-0.3
											c0.1,0,0.1,0,0.2,0.1c0.1,0,0.1,0.1,0.2,0.1l0.1,0.1c0.2,0.2,0.3,0.4,0.3,0.7c0,0.3-0.1,0.5-0.3,0.7l-0.1,0.1
											c-0.1,0-0.1,0.1-0.2,0.1c-0.1,0-0.1,0-0.2,0.1C58.9,107.2,58.9,107.2,58.8,107.2z"/>
									</g>
								</g>
							</g>
						</g>
						<g>
							<g>
								<g>
									<g>
										<path class="st5" d="M29.6,85.8v7.7c0,2.5,1.7,5.1,5,7c6.7,3.9,17.5,3.9,24.2,0c3.3-1.9,5-4.5,5-7l0,0v-7.7H29.6z"/>
										<path class="st5" d="M46.7,104.4c-4.6,0-9.1-1-12.6-3c-3.6-2.1-5.5-4.8-5.5-7.9v-7.7c0-0.6,0.4-1,1-1h34.2
											c0.6,0,1,0.4,1,1v7.7c0,3-2,5.8-5.5,7.9C55.8,103.4,51.3,104.4,46.7,104.4z M30.6,86.8v6.7c0,2.3,1.6,4.4,4.5,6.1
											c6.4,3.7,16.8,3.7,23.2,0c2.9-1.7,4.5-3.9,4.5-6.1v-6.7H30.6z"/>
									</g>
									<path class="st6" d="M29.6,85.8v7.7c0,2.5,1.7,5.1,5,7s7.7,2.9,12.1,2.9V85.8H29.6z"/>
									<g>
										<ellipse class="st6" cx="46.7" cy="85.8" rx="17.1" ry="9.9"/>
										<path class="st1" d="M46.7,96.7c-4.6,0-9.1-1-12.6-3c-3.6-2.1-5.5-4.8-5.5-7.9s2-5.8,5.5-7.9c6.9-4,18.2-4,25.2,0
											c3.6,2.1,5.5,4.8,5.5,7.9s-2,5.8-5.5,7.9C55.8,95.7,51.3,96.7,46.7,96.7z M46.7,77c-4.2,0-8.4,0.9-11.6,2.8
											c-2.9,1.7-4.5,3.9-4.5,6.1s1.6,4.4,4.5,6.1c6.4,3.7,16.8,3.7,23.2,0c2.9-1.7,4.5-3.9,4.5-6.1s-1.6-4.4-4.5-6.1
											C55.1,77.9,50.9,77,46.7,77z"/>
									</g>
									<ellipse class="st5" cx="46.7" cy="85.8" rx="11.9" ry="6.4"/>
									<path class="st7" d="M46.7,104.4c-4.6,0-9.1-1-12.6-3c-3.6-2.1-5.5-4.8-5.5-7.9v-7.7c0-3,2-5.8,5.5-7.9
										c6.9-4,18.2-4,25.2,0c3.6,2.1,5.5,4.8,5.5,7.9v7.7c0,3-2,5.8-5.5,7.9C55.8,103.4,51.3,104.4,46.7,104.4z M46.7,77
										c-4.2,0-8.4,0.9-11.6,2.8c-2.9,1.7-4.5,3.9-4.5,6.1v7.7c0,2.3,1.6,4.4,4.5,6.1c6.4,3.7,16.8,3.7,23.2,0
										c2.9-1.7,4.5-3.9,4.5-6.1v-7.7c0-2.3-1.6-4.4-4.5-6.1C55.1,77.9,50.9,77,46.7,77z"/>
									<g>
										<path class="st7" d="M52.3,100c-0.3,0-0.5-0.1-0.7-0.3c-0.1-0.1-0.2-0.2-0.2-0.3c0-0.1-0.1-0.2-0.1-0.4
											c0-0.3,0.1-0.5,0.3-0.7c0.4-0.4,1-0.4,1.4,0c0.1,0.1,0.2,0.2,0.2,0.3c0.1,0.1,0.1,0.2,0.1,0.4c0,0.1,0,0.3-0.1,0.4
											c0,0.1-0.1,0.2-0.2,0.3C52.9,99.9,52.6,100,52.3,100z"/>
										<path class="st7" d="M54.7,98.4c-0.2-0.5,0.1-1.1,0.6-1.3l0,0c0.5-0.2,1.1,0.1,1.3,0.6l0,0c0.2,0.5-0.1,1.1-0.6,1.3l0,0
											c-0.1,0-0.2,0.1-0.3,0.1l0,0C55.3,99.1,54.9,98.8,54.7,98.4z"/>
										<path class="st7" d="M58.8,97.6c-0.3,0-0.5-0.1-0.7-0.3c-0.2-0.2-0.3-0.4-0.3-0.7c0-0.3,0.1-0.5,0.3-0.7s0.6-0.3,0.9-0.3
											c0.1,0,0.1,0,0.2,0c0.1,0,0.1,0.1,0.2,0.1l0.1,0.1c0.2,0.2,0.3,0.4,0.3,0.7c0,0.3-0.1,0.5-0.3,0.7c0,0.1-0.1,0.1-0.1,0.1
											c-0.1,0-0.1,0.1-0.2,0.1c-0.1,0-0.1,0-0.2,0.1C58.9,97.6,58.9,97.6,58.8,97.6z"/>
									</g>
								</g>
							</g>
						</g>
					</g>
				</g>
			</g>
		</g>
	</g>
	<g>
		<rect class="st0" width="128" height="128"/>
	</g>
</g>
</svg>
