<?xml version="1.0" encoding="utf-8"?>
<!-- Generator: Adobe Illustrator 24.1.0, SVG Export Plug-In . SVG Version: 6.00 Build 0)  -->
<svg version="1.1" id="Layer_1" xmlns="http://www.w3.org/2000/svg" xmlns:xlink="http://www.w3.org/1999/xlink" x="0px" y="0px"
	 viewBox="0 0 128 128" style="enable-background:new 0 0 128 128;" xml:space="preserve">
<style type="text/css">
	.st0{fill:#185849;}
	.st1{fill:#0E352C;}
	.st2{fill:#4D9987;}
	.st3{fill:#E9EBDF;}
	.st4{fill:#FFFFFF;}
	.st5{fill:#C4D7D3;}
	.st6{fill:#27ae60;}
	.st7{fill:none;}
</style>
<g id="Layer_1_1_">
</g>
<g>
	<g id="Layer_2_1_">
		<g id="Tech_Concepts_1_">
			<g>
				<g>
					<g>
						<path class="st0" d="M106.6,43.2c-0.3,0-0.5-0.1-0.7-0.3s-0.3-0.4-0.3-0.7s0.1-0.5,0.3-0.7c0.4-0.4,1-0.4,1.4,0
							c0.2,0.2,0.3,0.4,0.3,0.7c0,0.1,0,0.3-0.1,0.4c0,0.1-0.1,0.2-0.2,0.3C107.2,43.1,106.9,43.2,106.6,43.2z"/>
						<path class="st0" d="M105.6,73.7c0-0.5,0.4-1,1-1l0,0c0.5,0,1,0.5,1,1l0,0c0,0.5-0.5,1-1,1l0,0
							C106.1,74.7,105.6,74.3,105.6,73.7z M105.6,67.4c0-0.5,0.4-1,1-1l0,0c0.5,0,1,0.5,1,1l0,0c0,0.6-0.5,1-1,1l0,0
							C106.1,68.4,105.6,68,105.6,67.4z M105.6,61.1c0-0.5,0.4-1,1-1l0,0c0.5,0,1,0.5,1,1l0,0c0,0.5-0.5,1-1,1l0,0
							C106.1,62.1,105.6,61.7,105.6,61.1z M105.6,54.8c0-0.5,0.4-1,1-1l0,0c0.5,0,1,0.5,1,1l0,0c0,0.5-0.5,1-1,1l0,0
							C106.1,55.8,105.6,55.4,105.6,54.8z M105.6,48.5c0-0.6,0.4-1,1-1l0,0c0.5,0,1,0.4,1,1l0,0c0,0.5-0.5,1-1,1l0,0
							C106.1,49.5,105.6,49.1,105.6,48.5z"/>
						<path class="st0" d="M106.6,81c-0.1,0-0.3,0-0.4-0.1c-0.1,0-0.2-0.1-0.3-0.2c-0.1-0.1-0.2-0.2-0.2-0.3c0-0.1-0.1-0.2-0.1-0.4
							c0-0.3,0.1-0.5,0.3-0.7c0.2-0.2,0.6-0.3,0.9-0.3c0.1,0,0.1,0,0.2,0s0.1,0.1,0.2,0.1l0.1,0.1c0.1,0.1,0.2,0.2,0.2,0.3
							c0.1,0.1,0.1,0.2,0.1,0.4c0,0.3-0.1,0.5-0.3,0.7C107.2,80.9,106.9,81,106.6,81z"/>
					</g>
					<g>
						<path class="st1" d="M21.4,30.2c-0.3,0-0.5-0.1-0.7-0.3c-0.2-0.2-0.3-0.4-0.3-0.7c0-0.1,0-0.3,0.1-0.4c0-0.1,0.1-0.2,0.2-0.3
							c0.1-0.1,0.2-0.2,0.3-0.2c0.2-0.1,0.5-0.1,0.8,0c0.1,0,0.2,0.1,0.3,0.2c0.1,0.1,0.2,0.2,0.2,0.3c0,0.1,0.1,0.3,0.1,0.4
							s0,0.3-0.1,0.4s-0.1,0.2-0.2,0.3c-0.1,0.1-0.2,0.2-0.3,0.2C21.6,30.2,21.5,30.2,21.4,30.2z"/>
						<path class="st1" d="M20.4,78.6c0-0.5,0.5-1,1-1l0,0c0.6,0,1,0.5,1,1l0,0c0,0.5-0.4,1-1,1l0,0C20.8,79.6,20.4,79.1,20.4,78.6z
							 M20.4,72.4c0-0.6,0.5-1,1-1l0,0c0.6,0,1,0.4,1,1l0,0c0,0.5-0.4,1-1,1l0,0C20.8,73.4,20.4,73,20.4,72.4z M20.4,66.2
							c0-0.5,0.5-1,1-1l0,0c0.6,0,1,0.5,1,1l0,0c0,0.6-0.4,1-1,1l0,0C20.8,67.2,20.4,66.8,20.4,66.2z M20.4,60.1c0-0.6,0.5-1,1-1
							l0,0c0.6,0,1,0.4,1,1l0,0c0,0.6-0.4,1-1,1l0,0C20.8,61.1,20.4,60.6,20.4,60.1z M20.4,53.9c0-0.5,0.5-1,1-1l0,0
							c0.6,0,1,0.4,1,1l0,0c0,0.6-0.4,1-1,1l0,0C20.8,54.9,20.4,54.4,20.4,53.9z M20.4,47.7c0-0.5,0.5-1,1-1l0,0c0.6,0,1,0.5,1,1
							l0,0c0,0.5-0.4,1-1,1l0,0C20.8,48.7,20.4,48.3,20.4,47.7z M20.4,41.5c0-0.6,0.5-1,1-1l0,0c0.6,0,1,0.4,1,1l0,0
							c0,0.5-0.4,1-1,1l0,0C20.8,42.5,20.4,42.1,20.4,41.5z M20.4,35.4c0-0.6,0.5-1,1-1l0,0c0.6,0,1,0.4,1,1l0,0c0,0.5-0.4,1-1,1
							l0,0C20.8,36.4,20.4,35.9,20.4,35.4z"/>
						<path class="st1" d="M21.4,85.8c-0.1,0-0.3,0-0.4-0.1s-0.2-0.1-0.3-0.2c-0.2-0.2-0.3-0.4-0.3-0.7c0-0.3,0.1-0.5,0.3-0.7
							c0.1-0.1,0.2-0.2,0.3-0.2c0.2-0.1,0.4-0.1,0.6-0.1c0.1,0,0.1,0,0.2,0.1c0.1,0,0.1,0.1,0.2,0.1c0,0,0,0,0.1,0
							c0.2,0.2,0.3,0.4,0.3,0.7c0,0.3-0.1,0.5-0.3,0.7c-0.1,0.1-0.2,0.2-0.3,0.2C21.6,85.7,21.5,85.8,21.4,85.8z"/>
					</g>
					<g>
						<g>
							<polygon class="st2" points="106.5,89.4 106.6,100.7 67.9,123 67.8,111.7 							"/>
						</g>
						<g>
							<polygon class="st3" points="67.9,123 21.5,96 21.4,84.8 67.8,111.7 							"/>
						</g>
						<g>
							<polygon class="st3" points="67.8,111.7 21.4,84.8 60.1,62.4 106.5,89.4 							"/>
						</g>
						<g>
							<g>
								<polygon class="st4" points="67.8,111.7 21.4,84.8 60.1,62.4 106.5,89.4 								"/>
								<path class="st2" d="M67.8,112.7c-0.2,0-0.3,0-0.5-0.1l-46.5-27c-0.3-0.2-0.5-0.5-0.5-0.9s0.2-0.7,0.5-0.9l38.7-22.3
									c0.3-0.2,0.7-0.2,1,0l46.5,27c0.3,0.2,0.5,0.5,0.5,0.9s-0.2,0.7-0.5,0.9l-38.7,22.3C68.2,112.7,68,112.7,67.8,112.7z
									 M23.4,84.8l44.5,25.8l36.7-21.2L60,63.6L23.4,84.8z"/>
							</g>
						</g>
						<g>
							<path class="st2" d="M67.9,118.5c-0.2,0-0.3,0-0.5-0.1l-46.5-27c-0.5-0.3-0.6-0.9-0.4-1.4c0.3-0.5,0.9-0.6,1.4-0.4l46.5,27
								c0.5,0.3,0.6,0.9,0.4,1.4C68.5,118.3,68.2,118.5,67.9,118.5z"/>
						</g>
						<g>
							<path class="st4" d="M67.8,102.4L67.8,102.4c-7.3,1.8-15,0.7-21.5-3.1l-25-14.5L60,62.5L85,77c6.5,3.8,14.2,4.9,21.5,3.1l0,0
								L67.8,102.4z"/>
						</g>
						<g>
							<g>
								<path class="st4" d="M67.8,102.4L67.8,102.4c-7.3,1.8-15,0.7-21.5-3.1l-25-14.5L60,62.5L85,77c6.5,3.8,14.2,4.9,21.5,3.1
									l0,0L67.8,102.4z"/>
								<path class="st2" d="M60.9,104.2c-5.2,0-10.4-1.4-15-4.1l-25-14.5c-0.3-0.2-0.5-0.5-0.5-0.9s0.2-0.7,0.5-0.9l38.7-22.3
									c0.3-0.2,0.7-0.2,1,0l25,14.5c6.3,3.7,13.7,4.7,20.7,3c0.5-0.1,1,0.1,1.2,0.6s0,1-0.4,1.2l-38.7,22.3
									c-0.1,0-0.2,0.1-0.3,0.1C65.7,103.9,63.3,104.2,60.9,104.2z M67.8,102.4L67.8,102.4L67.8,102.4z M23.4,84.8l23.5,13.7
									c6.3,3.6,13.6,4.7,20.6,3l34-19.6c-5.9,0.4-11.7-1-16.9-4L60,63.6L23.4,84.8z"/>
							</g>
							<g>
								<path class="st3" d="M60.9,100.3c-4.6,0-9.1-1.2-13.1-3.5l-20.7-12l32.9-19l23.5,13.7c3.5,2,7.3,3.4,11.3,4L66.7,99.6
									C64.8,100.1,62.9,100.3,60.9,100.3z"/>
								<path class="st4" d="M60.9,100.8c-4.7,0-9.3-1.2-13.4-3.6l-20.7-12c-0.2-0.1-0.2-0.3-0.2-0.4c0-0.2,0.1-0.3,0.2-0.4l32.9-19
									c0.2-0.1,0.3-0.1,0.5,0L83.8,79c3.4,2,7.2,3.3,11.1,3.9c0.2,0,0.4,0.2,0.4,0.4c0,0.2-0.1,0.4-0.2,0.5L67,100.1
									c0,0-0.1,0-0.1,0.1C64.9,100.6,62.9,100.8,60.9,100.8z M28.1,84.8L48,96.4c5.5,3.2,12.2,4.2,18.5,2.8l26.9-15.5
									c-3.6-0.7-6.9-2-10.1-3.8L60,66.3L28.1,84.8z"/>
							</g>
						</g>
						<path class="st1" d="M67.9,124c-0.2,0-0.3,0-0.5-0.1L21,96.9c-0.3-0.2-0.5-0.5-0.5-0.9l-0.1-11.3c0-0.4,0.2-0.7,0.5-0.9
							l38.7-22.3c0.3-0.2,0.7-0.2,1,0l25,14.5c6.3,3.7,13.7,4.7,20.7,3c0.5-0.1,1,0.1,1.2,0.6s0,1-0.4,1.2l-6.6,3.8l6.6,3.8
							c0.3,0.2,0.5,0.5,0.5,0.9l0.1,11.3c0,0.4-0.2,0.7-0.5,0.9l-38.7,22.3C68.3,124,68.1,124,67.9,124z M22.5,95.4L68,121.8
							l37.7-21.8l-0.2-10l-7.6-4.4c-0.3-0.2-0.5-0.5-0.5-0.9s0.2-0.7,0.5-0.9l3.5-2c-5.9,0.4-11.7-1-16.9-4L60,63.6L22.4,85.3
							L22.5,95.4z"/>
					</g>
					<g>
						<g>
							<path class="st5" d="M106.6,42.2v-6.1l-10.4-0.9L55.4,11.7c-1.5-0.9-3.9-0.9-5.4,0L27.8,24.5l-6.5-1.4v6.1
								c0,0.6,0.4,1.1,1.1,1.6l50.1,28.9c1.5,0.9,3.9,0.9,5.4,0l27.5-15.9C106.3,43.4,106.6,42.8,106.6,42.2z"/>
							<path class="st6" d="M75.6,23.4v36.9c0.9,0,1.7-0.2,2.4-0.6l27.5-15.9c0.7-0.4,1.1-1,1.1-1.6v-6.1l-10.4-0.9L75.6,23.4z"/>
							<path class="st6" d="M75.3,61.3c-1.2,0-2.3-0.3-3.2-0.8L22,31.6c-1-0.6-1.6-1.5-1.6-2.4v-6.1c0-0.3,0.1-0.6,0.4-0.8
								c0.2-0.2,0.5-0.3,0.8-0.2l6.1,1.4l21.8-12.6c1.8-1,4.6-1,6.4,0l40.6,23.4l10.2,0.8c0.5,0,0.9,0.5,0.9,1v6.1
								c0,0.9-0.6,1.8-1.6,2.4l-27.5,16C77.6,61.1,76.5,61.3,75.3,61.3z M22.4,24.3v4.8c0,0.2,0.2,0.4,0.6,0.7l50.1,28.9
								c1.2,0.7,3.2,0.7,4.4,0L105,42.9c0.5-0.3,0.6-0.5,0.6-0.7l0,0V37l-9.5-0.8c-0.1,0-0.3-0.1-0.4-0.1L54.9,12.6
								c-1.2-0.7-3.2-0.7-4.4,0L28.3,25.4c-0.2,0.1-0.5,0.2-0.7,0.1L22.4,24.3z"/>
							<path class="st4" d="M105.5,37.7L78,53.6c-1.5,0.9-3.9,0.9-5.4,0L22.5,24.7c-1.5-0.9-1.5-2.3,0-3.1L50,5.6
								c1.5-0.9,3.9-0.9,5.4,0l50.1,28.9C107,35.4,107,36.8,105.5,37.7z"/>
							<path class="st5" d="M75.3,51.2c-0.6,0-1-0.1-1.2-0.2L25.9,23.1L51.5,8.3c0.2-0.1,0.6-0.2,1.2-0.2c0.6,0,1,0.1,1.2,0.2
								l48.2,27.9L76.5,51C76.3,51.1,75.9,51.2,75.3,51.2z"/>
							<path class="st4" d="M66.2,11.9L55.4,5.6c-1.5-0.9-3.9-0.9-5.4,0L22.5,21.5c-1.5,0.9-1.5,2.3,0,3.1l39.3,22.7L66.2,11.9z"/>
							<path class="st6" d="M75.3,55.2c-1.2,0-2.3-0.3-3.2-0.8L22,25.5c-1-0.6-1.6-1.5-1.6-2.4s0.6-1.8,1.6-2.4L49.5,4.8
								c1.8-1,4.6-1,6.4,0L106,33.7c1,0.6,1.6,1.5,1.6,2.4s-0.6,1.8-1.6,2.4l0,0l-27.5,16C77.6,55,76.5,55.2,75.3,55.2z M52.7,6
								c-0.8,0-1.6,0.2-2.2,0.5L23,22.4c-0.5,0.3-0.6,0.5-0.6,0.7s0.2,0.4,0.6,0.7l50.1,28.9c1.2,0.7,3.2,0.7,4.4,0L105,36.8
								c0.5-0.3,0.6-0.5,0.6-0.7s-0.2-0.4-0.6-0.7L54.9,6.5C54.3,6.2,53.5,6,52.7,6z M105.5,37.7L105.5,37.7L105.5,37.7z"/>
							<path class="st0" d="M38.2,17.3c-0.9,0-1.8-0.2-2.5-0.6c-0.8-0.5-1.3-1.2-1.3-2s0.5-1.5,1.3-2c1.4-0.8,3.5-0.8,5,0
								c0.8,0.5,1.3,1.2,1.3,2s-0.5,1.5-1.3,2C40,17.1,39.1,17.3,38.2,17.3z M38.2,14.1c-0.5,0-1.1,0.1-1.5,0.3
								c-0.2,0.1-0.3,0.3-0.3,0.3s0.1,0.1,0.3,0.3c0.8,0.5,2.2,0.5,3,0c0.2-0.1,0.3-0.3,0.3-0.3s-0.1-0.1-0.3-0.3
								C39.3,14.2,38.8,14.1,38.2,14.1z"/>
							<path class="st0" d="M32.3,16.9c-0.3,0-0.7-0.2-0.9-0.5c-0.3-0.5-0.1-1.1,0.4-1.4l0,0l7.9-4.6l0,0l0,0
								c0.5-0.3,1.1-0.1,1.4,0.4c0.3,0.5,0.1,1.1-0.4,1.4c-0.2,0.1-0.3,0.3-0.3,0.3s0.1,0.1,0.3,0.3c0.3,0.2,0.5,0.5,0.5,0.9
								s-0.2,0.7-0.5,0.9l-4,2.3c-0.3,0.2-0.7,0.2-1,0c-0.8-0.5-2.2-0.5-3,0l0,0C32.6,16.8,32.5,16.9,32.3,16.9z"/>
						</g>
						<path class="st0" d="M75.3,61.3c-1.2,0-2.3-0.3-3.2-0.8L22,31.6c-1-0.6-1.6-1.5-1.6-2.4v-6.1c0-0.2,0-0.5,0.1-0.7
							c0.2-0.6,0.6-1.1,1.2-1.5c0.1-0.1,0.2-0.1,0.3-0.2L49.5,4.8c0.4-0.3,1-0.5,1.5-0.6C51.8,4,52.7,4,53.5,4
							c0.9,0.1,1.7,0.3,2.3,0.7l50.2,29c1,0.6,1.6,1.5,1.6,2.4v6.1c0,0.9-0.6,1.8-1.6,2.4l-27.5,16c-0.4,0.2-0.8,0.4-1.3,0.5
							s-1,0.2-1.5,0.2C75.6,61.3,75.4,61.3,75.3,61.3z M52.7,6c-0.4,0-0.8,0-1.2,0.1s-0.7,0.2-1,0.4l-27.7,16
							c-0.3,0.2-0.4,0.4-0.4,0.5v0.1v6.1c0,0.2,0.2,0.4,0.6,0.7l50.1,28.9c0.6,0.4,1.5,0.6,2.5,0.5c0.4,0,0.7-0.1,1-0.2
							c0.4-0.1,0.7-0.2,0.9-0.3L105,42.9c0.5-0.3,0.6-0.5,0.6-0.7v-6.1c0-0.2-0.2-0.4-0.6-0.7l0,0L54.9,6.5c-0.5-0.3-1-0.4-1.6-0.5
							C53.1,6,52.9,6,52.7,6z"/>
					</g>
					<g>
						<path class="st0" d="M39.5,25.9c-0.3,0-0.7-0.2-0.9-0.5c-0.3-0.5-0.1-1.1,0.4-1.4l16.4-9.4c0.5-0.3,1.1-0.1,1.4,0.4
							c0.3,0.5,0.1,1.1-0.4,1.4L40,25.8C39.8,25.9,39.6,25.9,39.5,25.9z"/>
						<path class="st0" d="M47.6,30.6c-0.3,0-0.7-0.2-0.9-0.5c-0.3-0.5-0.1-1.1,0.4-1.4l16.4-9.4c0.5-0.3,1.1-0.1,1.4,0.4
							s0.1,1.1-0.4,1.4l-16.4,9.4C48,30.6,47.8,30.6,47.6,30.6z"/>
						<g>
							<path class="st0" d="M55.8,35.3c-0.3,0-0.7-0.2-0.9-0.5c-0.3-0.5-0.1-1.1,0.4-1.4L71.7,24c0.5-0.3,1.1-0.1,1.4,0.4
								s0.1,1.1-0.4,1.4l-16.4,9.4C56.2,35.3,56,35.3,55.8,35.3z"/>
							<g>
								<path class="st0" d="M64,40.1c-0.3,0-0.7-0.2-0.9-0.5c-0.3-0.5-0.1-1.1,0.4-1.4l16.4-9.4c0.5-0.3,1.1-0.1,1.4,0.4
									s0.1,1.1-0.4,1.4L64.5,40C64.3,40,64.2,40.1,64,40.1z"/>
								<path class="st0" d="M72.2,44.8c-0.3,0-0.7-0.2-0.9-0.5c-0.3-0.5-0.1-1.1,0.4-1.4L88,33.5c0.5-0.3,1.1-0.1,1.4,0.4
									s0.1,1.1-0.4,1.4l-16.4,9.4C72.5,44.7,72.3,44.8,72.2,44.8z"/>
							</g>
						</g>
					</g>
				</g>
				<rect x="4" y="4" class="st7" width="120" height="120"/>
				<rect x="4" y="4" class="st7" width="120" height="120"/>
			</g>
		</g>
	</g>
	<g>
		<rect class="st7" width="128" height="128"/>
	</g>
</g>
</svg>
