<?xml version="1.0" encoding="utf-8"?>
<!-- Generator: Adobe Illustrator 24.1.0, SVG Export Plug-In . SVG Version: 6.00 Build 0)  -->
<svg version="1.1" id="Layer_1" xmlns="http://www.w3.org/2000/svg" xmlns:xlink="http://www.w3.org/1999/xlink" x="0px" y="0px"
	 viewBox="0 0 128 128" style="enable-background:new 0 0 128 128;" xml:space="preserve">
<style type="text/css">
	.st0{fill:#0E352C;}
	.st1{fill:#FFFFFF;}
	.st2{fill:#4D9987;}
	.st3{fill:#27ae60;}
	.st4{fill:#C4D7D3;}
	.st5{fill:#185849;}
	.st6{fill:none;}
</style>
<g id="Layer_1_1_">
</g>
<g>
	<g id="Layer_2_1_">
		<g id="Objects_1_">
			<g>
				<g>
					<g>
						<path class="st0" d="M18.6,42.4c-0.1,0-0.3,0-0.4-0.1s-0.2-0.1-0.3-0.2c-0.2-0.2-0.3-0.4-0.3-0.7s0.1-0.5,0.3-0.7
							c0.1-0.1,0.2-0.2,0.3-0.2c0.2-0.1,0.4-0.1,0.6-0.1c0.1,0,0.1,0,0.2,0.1c0.1,0,0.1,0.1,0.2,0.1s0.1,0.1,0.2,0.1
							c0,0,0.1,0.1,0.1,0.2c0,0.1,0.1,0.1,0.1,0.2c0,0.1,0,0.1,0.1,0.2c0,0.1,0,0.1,0,0.2c0,0.3-0.1,0.5-0.3,0.7
							c0,0-0.1,0.1-0.2,0.1c0,0-0.1,0.1-0.2,0.1s-0.1,0.1-0.2,0.1C18.7,42.4,18.7,42.4,18.6,42.4z"/>
						<path class="st0" d="M17.6,80.9c0-0.6,0.5-1,1-1l0,0c0.5,0,1,0.4,1,1l0,0c0,0.5-0.5,1-1,1l0,0C18.1,81.9,17.6,81.5,17.6,80.9z
							 M17.6,75.3c0-0.6,0.5-1,1-1l0,0c0.5,0,1,0.4,1,1l0,0c0,0.6-0.5,1-1,1l0,0C18.1,76.3,17.6,75.8,17.6,75.3z M17.6,69.6
							c0-0.6,0.5-1,1-1l0,0c0.5,0,1,0.4,1,1l0,0c0,0.6-0.5,1-1,1l0,0C18.1,70.6,17.6,70.2,17.6,69.6z M17.6,64c0-0.5,0.5-1,1-1l0,0
							c0.5,0,1,0.5,1,1l0,0c0,0.6-0.5,1-1,1l0,0C18.1,65,17.6,64.5,17.6,64z M17.6,58.3c0-0.6,0.5-1,1-1l0,0c0.5,0,1,0.4,1,1l0,0
							c0,0.6-0.5,1-1,1l0,0C18.1,59.3,17.6,58.9,17.6,58.3z M17.6,52.7c0-0.6,0.5-1,1-1l0,0c0.5,0,1,0.4,1,1l0,0c0,0.5-0.5,1-1,1
							l0,0C18.1,53.7,17.6,53.2,17.6,52.7z M17.6,47c0-0.6,0.5-1,1-1l0,0c0.5,0,1,0.4,1,1l0,0c0,0.6-0.5,1-1,1l0,0
							C18.1,48,17.6,47.6,17.6,47z"/>
						<path class="st0" d="M18.6,87.6c-0.1,0-0.3,0-0.4-0.1s-0.2-0.1-0.3-0.2c-0.2-0.2-0.3-0.4-0.3-0.7s0.1-0.5,0.3-0.7
							c0.1-0.1,0.2-0.2,0.3-0.2c0.2-0.1,0.4-0.1,0.6-0.1c0.1,0,0.1,0,0.2,0.1c0.1,0,0.1,0,0.2,0.1c0.1,0,0.1,0.1,0.2,0.1
							c0.2,0.2,0.3,0.4,0.3,0.7c0,0.1,0,0.1,0,0.2s0,0.1-0.1,0.2c0,0.1-0.1,0.1-0.1,0.2s-0.1,0.1-0.1,0.2c0,0-0.1,0.1-0.2,0.1
							c0,0-0.1,0.1-0.2,0.1s-0.1,0.1-0.2,0.1C18.7,87.6,18.7,87.6,18.6,87.6z"/>
					</g>
					<g>
						<polygon class="st1" points="64,60.4 18.6,86.6 18.6,96.8 64,123 109.4,96.8 109.4,86.6 						"/>
						<path class="st2" d="M64,113.8c-0.2,0-0.3,0-0.5-0.1L18.1,87.5c-0.3-0.2-0.5-0.5-0.5-0.9s0.2-0.7,0.5-0.9l45.4-26.2
							c0.3-0.2,0.7-0.2,1,0l45.4,26.2c0.3,0.2,0.5,0.5,0.5,0.9s-0.2,0.7-0.5,0.9l-45.4,26.2C64.3,113.8,64.2,113.8,64,113.8z
							 M20.6,86.6l43.4,25l43.4-25L64,61.6L20.6,86.6z"/>
						<path class="st2" d="M64,124c-0.2,0-0.3,0-0.5-0.1c-0.3-0.2-0.5-0.5-0.5-0.9v-10.2c0-0.4,0.2-0.7,0.5-0.9l45.4-26.2
							c0.3-0.2,0.7-0.2,1,0s0.5,0.5,0.5,0.9v10.2c0,0.4-0.2,0.7-0.5,0.9l-45.4,26.2C64.3,124,64.2,124,64,124z M65,113.4v7.9
							l43.4-25v-7.9L65,113.4z M109.4,96.8L109.4,96.8L109.4,96.8z"/>
						<path class="st2" d="M18.6,97.8c-0.2,0-0.3,0-0.5-0.1c-0.3-0.2-0.5-0.5-0.5-0.9V86.6c0-0.4,0.2-0.7,0.5-0.9l45.4-26.2
							c0.3-0.2,0.7-0.2,1,0S65,60,65,60.4v10.2c0,0.4-0.2,0.7-0.5,0.9L19.1,97.7C19,97.8,18.8,97.8,18.6,97.8z M19.6,87.2v7.9L63,70
							v-7.9L19.6,87.2z M64,70.6L64,70.6L64,70.6z"/>
						<path class="st2" d="M109.4,97.8c-0.2,0-0.3,0-0.5-0.1L63.5,71.5C63.2,71.3,63,71,63,70.6V60.4c0-0.4,0.2-0.7,0.5-0.9
							s0.7-0.2,1,0l45.4,26.2c0.3,0.2,0.5,0.5,0.5,0.9v10.2c0,0.4-0.2,0.7-0.5,0.9C109.7,97.8,109.6,97.8,109.4,97.8z M65,70
							l43.4,25v-7.9L65,62.1V70z"/>
						<path class="st0" d="M64,124c-0.2,0-0.3,0-0.5-0.1L18.1,97.7c-0.3-0.2-0.5-0.5-0.5-0.9V86.6c0-0.4,0.2-0.7,0.5-0.9l45.4-26.2
							c0.3-0.2,0.7-0.2,1,0l45.4,26.2c0.3,0.2,0.5,0.5,0.5,0.9v10.2c0,0.4-0.2,0.7-0.5,0.9l-45.4,26.2C64.3,124,64.2,124,64,124z
							 M19.6,96.2L64,121.8l44.4-25.6v-9L64,61.6L19.6,87.2V96.2z"/>
					</g>
					<g>
						<polygon class="st3" points="78.2,86.6 64,94.8 64,39.4 78.2,31.2 						"/>
						<polygon class="st4" points="49.8,86.6 64,94.8 64,39.4 49.8,31.2 						"/>
						<g>
							<polygon class="st1" points="78.2,31.2 64,23 49.8,31.2 64,39.4 							"/>
							<path class="st3" d="M64,40.4c-0.2,0-0.3,0-0.5-0.1l-14.2-8.2c-0.3-0.2-0.5-0.5-0.5-0.9s0.2-0.7,0.5-0.9l14.2-8.2
								c0.3-0.2,0.7-0.2,1,0l14.2,8.2c0.3,0.2,0.5,0.5,0.5,0.9s-0.2,0.7-0.5,0.9l-14.2,8.2C64.3,40.3,64.2,40.4,64,40.4z M51.8,31.2
								l12.2,7l12.2-7l-12.2-7L51.8,31.2z"/>
						</g>
						<path class="st3" d="M64,95.8c-0.2,0-0.3,0-0.5-0.1c-0.3-0.2-0.5-0.5-0.5-0.9V39.4c0-0.4,0.2-0.7,0.5-0.9l14.2-8.2
							c0.3-0.2,0.7-0.2,1,0s0.5,0.5,0.5,0.9v55.4c0,0.4-0.2,0.7-0.5,0.9l-14.2,8.2C64.3,95.7,64.2,95.8,64,95.8z M65,40v53l12.2-7
							V32.9L65,40z M78.2,86.6L78.2,86.6L78.2,86.6z"/>
						<path class="st5" d="M64,95.8c-0.2,0-0.3,0-0.5-0.1l-14.2-8.2c-0.3-0.2-0.5-0.5-0.5-0.9V31.2c0-0.4,0.2-0.7,0.5-0.9l14.2-8.2
							c0.3-0.2,0.7-0.2,1,0l14.2,8.2c0.3,0.2,0.5,0.5,0.5,0.9v55.4c0,0.4-0.2,0.7-0.5,0.9l-14.2,8.2C64.3,95.7,64.2,95.8,64,95.8z
							 M50.8,86L64,93.6L77.2,86V31.8L64,24.2l-13.2,7.6V86z"/>
					</g>
					<g>
						<g>
							<polygon class="st1" points="64,5 18.6,31.2 18.6,41.4 64,67.6 109.4,41.4 109.4,31.2 							"/>
							<path class="st2" d="M64,68.6c-0.2,0-0.3,0-0.5-0.1C63.2,68.3,63,68,63,67.6V39.4c0-0.4,0.2-0.7,0.5-0.9l14.2-8.2
								c0.3-0.2,0.7-0.2,1,0s0.5,0.5,0.5,0.9v28.2c0,0.4-0.2,0.7-0.5,0.9l-14.2,8.2C64.3,68.6,64.2,68.6,64,68.6z M65,40v25.9
								l12.2-7v-26L65,40z M78.2,59.4L78.2,59.4L78.2,59.4z"/>
							<path class="st2" d="M64,68.6c-0.2,0-0.3,0-0.5-0.1l-14.2-8.2c-0.3-0.2-0.5-0.5-0.5-0.9V31.2c0-0.4,0.2-0.7,0.5-0.9
								c0.3-0.2,0.7-0.2,1,0l14.2,8.2c0.3,0.2,0.5,0.5,0.5,0.9v28.2c0,0.4-0.2,0.7-0.5,0.9C64.3,68.6,64.2,68.6,64,68.6z M50.8,58.9
								l12.2,7V40l-12.2-7V58.9z"/>
							<path class="st2" d="M64,40.4c-0.2,0-0.3,0-0.5-0.1l-14.2-8.2c-0.3-0.2-0.5-0.5-0.5-0.9s0.2-0.7,0.5-0.9l14.2-8.2
								c0.3-0.2,0.7-0.2,1,0l14.2,8.2c0.3,0.2,0.5,0.5,0.5,0.9s-0.2,0.7-0.5,0.9l-14.2,8.2C64.3,40.3,64.2,40.4,64,40.4z M51.8,31.2
								l12.2,7l12.2-7l-12.2-7L51.8,31.2z"/>
							<path class="st2" d="M64,58.4c-0.2,0-0.3,0-0.5-0.1L18.1,32.1c-0.3-0.2-0.5-0.5-0.5-0.9s0.2-0.7,0.5-0.9L63.5,4.1
								c0.3-0.2,0.7-0.2,1,0l45.4,26.2c0.3,0.2,0.5,0.5,0.5,0.9s-0.2,0.7-0.5,0.9L64.5,58.3C64.3,58.4,64.2,58.4,64,58.4z
								 M20.6,31.2l43.4,25l43.4-25L64,6.2L20.6,31.2z"/>
							<path class="st2" d="M64,68.6c-0.2,0-0.3,0-0.5-0.1C63.2,68.3,63,68,63,67.6V57.4c0-0.4,0.2-0.7,0.5-0.9l45.4-26.2
								c0.3-0.2,0.7-0.2,1,0s0.5,0.5,0.5,0.9v10.2c0,0.4-0.2,0.7-0.5,0.9L64.5,68.5C64.3,68.6,64.2,68.6,64,68.6z M65,58v7.9
								l43.4-25V33L65,58z M109.4,41.4L109.4,41.4L109.4,41.4z"/>
							<path class="st2" d="M18.6,42.4c-0.2,0-0.3,0-0.5-0.1c-0.3-0.2-0.5-0.5-0.5-0.9V31.2c0-0.4,0.2-0.7,0.5-0.9L63.5,4.1
								c0.3-0.2,0.7-0.2,1,0C64.8,4.3,65,4.6,65,5v10.2c0,0.4-0.2,0.7-0.5,0.9L19.1,42.3C19,42.4,18.8,42.4,18.6,42.4z M19.6,31.8
								v7.9l43.4-25v-8L19.6,31.8z M64,15.2L64,15.2L64,15.2z"/>
							<path class="st2" d="M109.4,42.4c-0.2,0-0.3,0-0.5-0.1L63.5,16.1c-0.3-0.2-0.5-0.5-0.5-0.9V5c0-0.4,0.2-0.7,0.5-0.9
								c0.3-0.2,0.7-0.2,1,0l45.4,26.2c0.3,0.2,0.5,0.5,0.5,0.9v10.2c0,0.4-0.2,0.7-0.5,0.9C109.7,42.4,109.6,42.4,109.4,42.4z
								 M65,14.6l43.4,25v-7.9L65,6.7V14.6z"/>
							<path class="st0" d="M64,68.6c-0.2,0-0.3,0-0.5-0.1L18.1,42.3c-0.3-0.2-0.5-0.5-0.5-0.9V31.2c0-0.4,0.2-0.7,0.5-0.9L63.5,4.1
								c0.3-0.2,0.7-0.2,1,0l45.4,26.2c0.3,0.2,0.5,0.5,0.5,0.9v10.2c0,0.4-0.2,0.7-0.5,0.9L64.5,68.5C64.3,68.6,64.2,68.6,64,68.6z
								 M19.6,40.8L64,66.4l44.4-25.6v-9L64,6.2L19.6,31.8V40.8z"/>
						</g>
					</g>
					<g>
						<path class="st0" d="M109.4,42.4c-0.3,0-0.5-0.1-0.7-0.3c-0.1-0.1-0.2-0.2-0.2-0.3s-0.1-0.2-0.1-0.4c0-0.1,0-0.3,0.1-0.4
							c0-0.1,0.1-0.2,0.2-0.3c0.3-0.3,0.7-0.4,1.1-0.2c0.1,0.1,0.2,0.1,0.3,0.2c0.2,0.2,0.3,0.4,0.3,0.7s-0.1,0.5-0.3,0.7
							C109.9,42.3,109.6,42.4,109.4,42.4z"/>
						<path class="st0" d="M108.4,80.9c0-0.6,0.5-1,1-1l0,0c0.5,0,1,0.4,1,1l0,0c0,0.5-0.5,1-1,1l0,0
							C108.8,81.9,108.4,81.5,108.4,80.9z M108.4,75.3c0-0.6,0.5-1,1-1l0,0c0.5,0,1,0.4,1,1l0,0c0,0.6-0.5,1-1,1l0,0
							C108.8,76.3,108.4,75.8,108.4,75.3z M108.4,69.6c0-0.6,0.5-1,1-1l0,0c0.5,0,1,0.4,1,1l0,0c0,0.6-0.5,1-1,1l0,0
							C108.8,70.6,108.4,70.2,108.4,69.6z M108.4,64c0-0.5,0.5-1,1-1l0,0c0.5,0,1,0.5,1,1l0,0c0,0.6-0.5,1-1,1l0,0
							C108.8,65,108.4,64.5,108.4,64z M108.4,58.3c0-0.6,0.5-1,1-1l0,0c0.5,0,1,0.4,1,1l0,0c0,0.6-0.5,1-1,1l0,0
							C108.8,59.3,108.4,58.9,108.4,58.3z M108.4,52.7c0-0.6,0.5-1,1-1l0,0c0.5,0,1,0.4,1,1l0,0c0,0.5-0.5,1-1,1l0,0
							C108.8,53.7,108.4,53.2,108.4,52.7z M108.4,47c0-0.6,0.5-1,1-1l0,0c0.5,0,1,0.4,1,1l0,0c0,0.6-0.5,1-1,1l0,0
							C108.8,48,108.4,47.6,108.4,47z"/>
						<path class="st0" d="M109.4,87.6c-0.3,0-0.5-0.1-0.7-0.3c-0.1-0.1-0.2-0.2-0.2-0.3c0-0.1-0.1-0.2-0.1-0.4c0-0.1,0-0.3,0.1-0.4
							c0-0.1,0.1-0.2,0.2-0.3c0.4-0.4,1-0.4,1.4,0c0.2,0.2,0.3,0.4,0.3,0.7s-0.1,0.5-0.3,0.7C109.9,87.5,109.6,87.6,109.4,87.6z"/>
					</g>
				</g>
				<rect x="4" y="4" class="st6" width="120" height="120"/>
				<rect x="4" y="4" class="st6" width="120" height="120"/>
			</g>
		</g>
	</g>
	<g>
		<rect class="st6" width="128" height="128"/>
	</g>
</g>
</svg>
