<svg xmlns="http://www.w3.org/2000/svg" width="900" height="600" viewBox="0 0 900 600"><path d="M492.322,68.943,445.181,41.725a15.369,15.369,0,0,0-13.906,0L384.133,68.943H365.951V356.285c0,1.454.96,2.907,2.881,4.015l62.443,36.051a15.369,15.369,0,0,0,13.906,0L507.624,360.3c1.92-1.108,2.881-2.561,2.881-4.015V68.943Z" fill="#fff"/><path d="M438.228,399.027a15.176,15.176,0,0,1-7.454-1.81l-62.443-36.051c-2.18-1.258-3.38-2.991-3.38-4.881V68.943a1,1,0,0,1,1-1h17.914l46.909-27.084a16.254,16.254,0,0,1,14.907,0L492.59,67.943h17.915a1,1,0,0,1,1,1V356.285c0,1.889-1.2,3.623-3.381,4.881l-62.443,36.051A15.175,15.175,0,0,1,438.228,399.027ZM366.951,69.943V356.285c0,1.145.845,2.263,2.38,3.149l62.443,36.051a14.282,14.282,0,0,0,12.907,0l62.443-36.051c1.535-.886,2.381-2,2.381-3.149V69.943H492.322a1.012,1.012,0,0,1-.5-.134L444.681,42.592a14.282,14.282,0,0,0-12.907,0L384.633,69.809a1.009,1.009,0,0,1-.5.134Z" fill="#0E352C"/><path d="M445.181,396.351,507.624,360.3c1.92-1.109,2.881-2.562,2.881-4.015V68.943H492.323L445.181,41.726a14.2,14.2,0,0,0-6.953-1.663V398.015a14.193,14.193,0,0,0,6.953-1.664" fill="#E9EBDF"/><path d="M438.225,302.991a15.136,15.136,0,0,1-7.451-1.8l-62.443-36.051c-2.18-1.258-3.38-2.992-3.38-4.881a1,1,0,1,1,2,0c0,1.145.845,2.263,2.38,3.149l62.443,36.051a13.121,13.121,0,0,0,6.451,1.529,1,1,0,0,1,0,2Z" fill="#4D9987"/><path d="M438.23,302.991h-.006a1,1,0,1,1,0-2h.006a13.117,13.117,0,0,0,6.452-1.53l62.443-36.051c1.534-.886,2.379-2,2.379-3.147a1,1,0,0,1,2,0c0,1.888-1.2,3.621-3.379,4.88l-62.443,36.051A15.14,15.14,0,0,1,438.23,302.991Z" fill="#4D9987"/><path d="M438.225,264.193a15.146,15.146,0,0,1-7.451-1.8l-62.443-36.051c-2.18-1.259-3.38-2.992-3.38-4.881a1,1,0,0,1,2,0c0,1.144.845,2.263,2.38,3.148l62.443,36.052a13.132,13.132,0,0,0,6.451,1.528,1,1,0,0,1,0,2Z" fill="#4D9987"/><path d="M438.23,264.194h-.006a1,1,0,1,1,0-2h.006a13.131,13.131,0,0,0,6.452-1.529l62.443-36.052c1.534-.885,2.379-2,2.379-3.148a1,1,0,0,1,2,0c0,1.889-1.2,3.622-3.379,4.88L445.682,262.4A15.145,15.145,0,0,1,438.23,264.194Z" fill="#4D9987"/><path d="M438.225,225.4a15.138,15.138,0,0,1-7.451-1.8l-62.443-36.052c-2.18-1.258-3.38-2.991-3.38-4.88a1,1,0,0,1,2,0c0,1.144.845,2.262,2.38,3.148l62.443,36.052a13.118,13.118,0,0,0,6.451,1.528,1,1,0,0,1,0,2Z" fill="#4D9987"/><path d="M438.224,225.4a1,1,0,0,1,0-2,13.146,13.146,0,0,0,6.458-1.528l62.443-36.053c1.534-.885,2.379-2,2.379-3.147a1,1,0,0,1,2,0c0,1.89-1.2,3.622-3.379,4.88L445.682,223.6A15.174,15.174,0,0,1,438.224,225.4Z" fill="#4D9987"/><path d="M438.225,186.6a15.127,15.127,0,0,1-7.451-1.8l-62.443-36.051c-2.18-1.258-3.38-2.992-3.38-4.88a1,1,0,1,1,2,0c0,1.144.845,2.262,2.38,3.148l62.443,36.051a13.118,13.118,0,0,0,6.451,1.529,1,1,0,0,1,0,2Z" fill="#4D9987"/><path d="M438.224,186.6a1,1,0,0,1,0-2,13.157,13.157,0,0,0,6.458-1.528l62.443-36.052c1.534-.886,2.379-2,2.379-3.148a1,1,0,1,1,2,0c0,1.889-1.2,3.622-3.379,4.88L445.682,184.8A15.174,15.174,0,0,1,438.224,186.6Z" fill="#4D9987"/><path d="M438.225,147.8a15.13,15.13,0,0,1-7.451-1.8l-62.443-36.051c-2.18-1.259-3.38-2.992-3.38-4.881a1,1,0,1,1,2,0c0,1.144.846,2.262,2.38,3.149l62.443,36.051a13.121,13.121,0,0,0,6.451,1.529,1,1,0,0,1,0,2Z" fill="#4D9987"/><path d="M438.224,147.8a1,1,0,0,1,0-2,13.149,13.149,0,0,0,6.458-1.529l62.443-36.052c1.534-.886,2.379-2,2.379-3.147a1,1,0,1,1,2,0c0,1.888-1.2,3.621-3.379,4.88l-62.443,36.052A15.174,15.174,0,0,1,438.224,147.8Z" fill="#4D9987"/><path d="M438.228,399.027a15.176,15.176,0,0,1-7.454-1.81l-62.443-36.051c-2.18-1.258-3.38-2.991-3.38-4.881V68.943a1,1,0,0,1,1-1h17.914l46.909-27.084a16.254,16.254,0,0,1,14.907,0L492.59,67.943h17.915a1,1,0,0,1,1,1V356.285c0,1.889-1.2,3.623-3.381,4.881l-62.443,36.051A15.175,15.175,0,0,1,438.228,399.027ZM366.951,69.943V356.285c0,1.145.845,2.263,2.38,3.149l62.443,36.051a14.282,14.282,0,0,0,12.907,0l62.443-36.051c1.535-.886,2.381-2,2.381-3.149V69.943H492.322a1.012,1.012,0,0,1-.5-.134L444.681,42.592a14.282,14.282,0,0,0-12.907,0L384.633,69.809a1.009,1.009,0,0,1-.5.134Z" fill="#0E352C"/><path d="M507.624,72.957l-62.443,36.052a15.371,15.371,0,0,1-13.907,0L368.831,72.957c-3.84-2.217-3.84-5.811,0-8.029l62.443-36.051a15.371,15.371,0,0,1,13.907,0l62.443,36.051c3.84,2.218,3.84,5.812,0,8.029" fill="#4D9987"/><path d="M438.228,111.685a15.176,15.176,0,0,1-7.454-1.81L368.331,73.824c-2.18-1.259-3.38-2.992-3.38-4.881s1.2-3.622,3.38-4.881l62.443-36.051a16.254,16.254,0,0,1,14.907,0l62.443,36.051c2.18,1.259,3.38,2.992,3.38,4.881s-1.2,3.622-3.38,4.881h0l-62.443,36.051A15.175,15.175,0,0,1,438.228,111.685Zm0-83.483a13.2,13.2,0,0,0-6.454,1.541L369.331,65.794c-1.534.887-2.38,2.005-2.38,3.149s.846,2.262,2.38,3.148l62.443,36.052a14.288,14.288,0,0,0,12.907,0l62.443-36.052c1.534-.886,2.38-2,2.38-3.148s-.846-2.262-2.38-3.149L444.681,29.743A13.2,13.2,0,0,0,438.228,28.2Z" fill="#4D9987"/><path d="M500.7,49.57,446.93,18.524a17.532,17.532,0,0,0-15.863,0L377.3,49.57H356.554V64.226c0,1.657,1.1,3.315,3.286,4.579l71.227,41.124a17.538,17.538,0,0,0,15.863,0l71.227-41.124c2.19-1.264,3.285-2.922,3.285-4.579V49.57Z" fill="#E9EBDF"/><path d="M446.93,109.929l71.228-41.124c2.189-1.264,3.284-2.922,3.284-4.579V49.57H500.7L446.93,18.524a16.208,16.208,0,0,0-7.932-1.9v95.2a16.219,16.219,0,0,0,7.932-1.9" fill="#4D9987"/><path d="M518.157,54.149,446.929,95.272a17.53,17.53,0,0,1-15.862,0L359.839,54.149c-4.38-2.53-4.38-6.63,0-9.159L431.067,3.867a17.53,17.53,0,0,1,15.862,0L518.157,44.99c4.381,2.529,4.381,6.629,0,9.159" fill="#E9EBDF"/><path d="M439,98.185a17.173,17.173,0,0,1-8.432-2.047L359.339,55.015c-2.441-1.41-3.785-3.344-3.785-5.446s1.344-4.035,3.785-5.445L430.566,3a18.39,18.39,0,0,1,16.863,0l71.228,41.124c2.442,1.41,3.785,3.343,3.785,5.445s-1.343,4.036-3.785,5.446h0L447.429,96.138A17.18,17.18,0,0,1,439,98.185Zm0-95.227a15.2,15.2,0,0,0-7.432,1.775L360.339,45.856c-1.8,1.037-2.785,2.356-2.785,3.713s.989,2.677,2.785,3.714l71.227,41.123a16.449,16.449,0,0,0,14.863,0l71.228-41.123c1.8-1.037,2.785-2.356,2.785-3.714s-.989-2.676-2.785-3.713L446.429,4.733A15.193,15.193,0,0,0,439,2.958Z" fill="#fff"/><path d="M409.832,51.118a1.423,1.423,0,0,1-.646-.174l-9.241-5.334c-.293-.17-.423-.423-.277-.646a1.231,1.231,0,0,1,1.067-.393L431.8,46.107c.692.034,1.272-.3,1.216-.7L430.474,27.43c-.031-.218.117-.44.427-.566a1.646,1.646,0,0,1,1.339.067l8.892,5.134a.558.558,0,0,1,.3.372l2.915,19.508.023.178c.042.3-.384.556-.908.543l-.348-.01Z" fill="#4D9987"/><path d="M449.242,52.39c.044.316.477.566,1.022.591l26.952,1.436a1.518,1.518,0,0,0,.981-.247c.3-.246.236-.569-.116-.773l-8.893-5.134a1.468,1.468,0,0,0-.646-.174l-18.748-1.1c-.688-.034-1.263.3-1.209.693Z" fill="#4D9987"/><path d="M443.845,55.45c.545.025.978.275,1.023.59l2.737,15.669c.031.218-.117.44-.427.566a1.647,1.647,0,0,1-1.338-.067l-8.894-5.134a.562.562,0,0,1-.3-.372l-1.718-10.86c-.059-.4.514-.731,1.2-.7Z" fill="#4D9987"/><path d="M439,112.842a17.18,17.18,0,0,1-8.433-2.047L359.339,69.672c-2.441-1.41-3.785-3.343-3.785-5.445V49.569c0-2.1,1.343-4.035,3.785-5.445L430.566,3a18.393,18.393,0,0,1,16.863,0l71.228,41.124h0c2.443,1.41,3.786,3.345,3.785,5.446V64.227c0,2.1-1.344,4.035-3.785,5.445L447.429,110.8A17.176,17.176,0,0,1,439,112.842ZM439,2.959a15.206,15.206,0,0,0-7.433,1.774L360.339,45.856c-1.8,1.037-2.785,2.356-2.785,3.713V64.227c0,1.357.989,2.676,2.785,3.712l71.227,41.123a16.445,16.445,0,0,0,14.863,0l71.228-41.124c1.8-1.036,2.785-2.355,2.785-3.712V49.57c0-1.358-.988-2.676-2.785-3.715L446.429,4.733A15.192,15.192,0,0,0,439,2.959Z" fill="#0E352C"/><path d="M464.765,115.435a1,1,0,0,1-.5-1.867l23.278-13.439a1,1,0,0,1,1,1.732L465.264,115.3A1,1,0,0,1,464.765,115.435Z" fill="#4D9987"/><path d="M464.765,154.232a1,1,0,0,1-.5-1.866l23.278-13.44a1,1,0,0,1,1,1.733L465.264,154.1A1,1,0,0,1,464.765,154.232Z" fill="#4D9987"/><path d="M464.765,193.029a1,1,0,0,1-.5-1.866l23.278-13.439a1,1,0,0,1,1,1.732L465.264,192.9A1,1,0,0,1,464.765,193.029Z" fill="#4D9987"/><path d="M464.765,231.826a1,1,0,0,1-.5-1.866l23.278-13.439a1,1,0,1,1,1,1.732l-23.278,13.439A1,1,0,0,1,464.765,231.826Z" fill="#4D9987"/><path d="M464.765,270.624a1,1,0,0,1-.5-1.867l23.278-13.439a1,1,0,0,1,1,1.732l-23.278,13.44A1,1,0,0,1,464.765,270.624Z" fill="#4D9987"/><path d="M464.765,76.637a1,1,0,0,1-.5-1.866l23.278-13.439a1,1,0,0,1,1,1.732L465.264,76.5A1,1,0,0,1,464.765,76.637Z" fill="#4D9987"/><path d="M413.726,115.435a.992.992,0,0,1-.5-.134l-23.279-13.44a1,1,0,1,1,1-1.732l23.279,13.439a1,1,0,0,1-.5,1.867Z" fill="#4D9987"/><path d="M413.726,154.232a.992.992,0,0,1-.5-.134l-23.279-13.439a1,1,0,0,1,1-1.733l23.279,13.44a1,1,0,0,1-.5,1.866Z" fill="#4D9987"/><path d="M413.726,193.029a.992.992,0,0,1-.5-.134l-23.279-13.439a1,1,0,0,1,1-1.732l23.279,13.439a1,1,0,0,1-.5,1.866Z" fill="#4D9987"/><path d="M413.726,231.826a.992.992,0,0,1-.5-.134l-23.279-13.439a1,1,0,0,1,1-1.732l23.279,13.439a1,1,0,0,1-.5,1.866Z" fill="#4D9987"/><path d="M413.726,270.624a.992.992,0,0,1-.5-.134l-23.279-13.44a1,1,0,1,1,1-1.732l23.279,13.439a1,1,0,0,1-.5,1.867Z" fill="#4D9987"/><path d="M413.726,76.637a.992.992,0,0,1-.5-.134L389.948,63.064a1,1,0,1,1,1-1.732l23.279,13.439a1,1,0,0,1-.5,1.866Z" fill="#4D9987"/><polygon points="343.062 262.309 343.062 300.989 306.654 322.009 306.654 381.089 306.654 472.193 343.062 451.172 379.468 430.153 379.468 332.393 379.468 290.414 379.468 241.29 343.062 262.309" fill="#E9EBDF"/><path d="M306.654,473.193a1,1,0,0,1-1-1V322.009a1,1,0,0,1,.5-.866l35.908-20.731v-38.1a1,1,0,0,1,.5-.866l36.406-21.019a1,1,0,0,1,1.5.866V430.153a1,1,0,0,1-.5.866l-72.814,42.04A1,1,0,0,1,306.654,473.193Zm1-150.607V470.461l70.814-40.885V243.022l-34.406,19.864v38.1a1,1,0,0,1-.5.866Z" fill="#0E352C"/><path d="M343.062,439.321a1,1,0,0,1-1-1V313.841a1,1,0,0,1,2,0v124.48A1,1,0,0,1,343.062,439.321Z" fill="#4D9987"/><path d="M270.248,452.172a1,1,0,0,1-1-1V300.989a1,1,0,0,1,2,0V451.172A1,1,0,0,1,270.248,452.172Z" fill="#0E352C"/><polygon points="306.654 322.008 306.654 381.089 306.654 472.192 270.248 451.172 233.84 430.153 233.84 330.694 233.84 279.969 270.248 300.989 306.654 322.008" fill="#E9EBDF"/><path d="M306.654,473.192a1,1,0,0,1-.5-.134L233.34,431.019a1,1,0,0,1-.5-.866V279.969a1,1,0,0,1,1.5-.866l72.814,42.039a1,1,0,0,1,.5.866V472.192a1,1,0,0,1-1,1ZM234.84,429.576l70.814,40.884V322.585L234.84,281.7Z" fill="#0E352C"/><path d="M288.23,462.658a1,1,0,0,1-.5-.134l-36.555-21.105a1,1,0,0,1-.5-.866v-107.7a1,1,0,0,1,1.5-.866l36.555,21.1a1,1,0,0,1,.5.866v107.7a1,1,0,0,1-1,1Zm-35.555-22.682,34.555,19.95V354.538l-34.555-19.95Z" fill="#4D9987"/><path d="M288.23,332.944a1,1,0,0,1-1-1v-20.4a1,1,0,1,1,2,0v20.4A1,1,0,0,1,288.23,332.944Z" fill="#E9EBDF"/><path d="M269.952,322.385a1,1,0,0,1-1-1v-20.4a1,1,0,1,1,2,0v20.4A1,1,0,0,1,269.952,322.385Z" fill="#E9EBDF"/><path d="M251.675,311.839a1,1,0,0,1-1-1v-20.4a1,1,0,0,1,2,0v20.4A1,1,0,0,1,251.675,311.839Z" fill="#E9EBDF"/><path d="M306.654,473.192a1,1,0,0,1-.5-.134L233.34,431.019a1,1,0,0,1-.5-.866V279.969a1,1,0,0,1,1.5-.866l72.814,42.039a1,1,0,0,1,.5.866V472.192a1,1,0,0,1-1,1ZM234.84,429.576l70.814,40.884V322.585L234.84,281.7Z" fill="#4D9987"/><polygon points="379.468 241.289 306.654 199.251 270.248 220.27 343.062 262.309 379.468 241.289" fill="#fff"/><path d="M343.062,263.309a.99.99,0,0,1-.5-.134l-72.814-42.039a1,1,0,0,1,0-1.732l36.406-21.02a1,1,0,0,1,1,0l72.814,42.039a1,1,0,0,1,0,1.733l-36.406,21.019A1,1,0,0,1,343.062,263.309ZM272.248,220.27l70.814,40.884,34.406-19.864-70.814-40.885Z" fill="#4D9987"/><polygon points="343.062 300.989 270.248 258.949 233.841 279.969 306.654 322.008 343.062 300.989" fill="#fff"/><path d="M306.654,323.008a1,1,0,0,1-.5-.133l-72.813-42.04a1,1,0,0,1,0-1.732l36.407-21.02a1,1,0,0,1,1,0l72.814,42.04a1,1,0,0,1,0,1.732l-36.408,21.02A1,1,0,0,1,306.654,323.008Zm-70.813-43.039,70.813,40.885,34.408-19.865L270.248,260.1Z" fill="#0E352C"/><polygon points="343.062 300.989 270.248 258.949 270.248 220.269 343.062 262.309 343.062 300.989" fill="#E9EBDF"/><path d="M343.062,301.989a.99.99,0,0,1-.5-.134l-72.814-42.04a1,1,0,0,1-.5-.866V220.27a1,1,0,0,1,1.5-.867l72.814,42.04a1,1,0,0,1,.5.866v38.68a1,1,0,0,1-1,1Zm-71.814-43.617,70.814,40.885V262.886L271.248,222Z" fill="#0E352C"/><path d="M324.784,291.437a1,1,0,0,1-1-1V251.756a1,1,0,1,1,2,0v38.681A1,1,0,0,1,324.784,291.437Z" fill="#E9EBDF"/><path d="M306.507,280.877a1,1,0,0,1-1-1V241.2a1,1,0,1,1,2,0v38.68A1,1,0,0,1,306.507,280.877Z" fill="#E9EBDF"/><path d="M288.23,270.332a1,1,0,0,1-1-1v-38.68a1,1,0,0,1,2,0v38.68A1,1,0,0,1,288.23,270.332Z" fill="#E9EBDF"/><path d="M343.062,301.989a.99.99,0,0,1-.5-.134l-72.814-42.04a1,1,0,0,1-.5-.866V220.27a1,1,0,0,1,1.5-.867l72.814,42.04a1,1,0,0,1,.5.866v38.68a1,1,0,0,1-1,1Zm-71.814-43.617,70.814,40.885V262.886L271.248,222Z" fill="#4D9987"/><path d="M288.23,312.542a1,1,0,0,1-.5-1.866l36.554-21.106a1,1,0,0,1,1,1.732L288.73,312.408A1,1,0,0,1,288.23,312.542Z" fill="#E9EBDF"/><path d="M269.952,301.982a1,1,0,0,1-.5-1.866l36.556-21.1a1,1,0,0,1,1,1.732l-36.556,21.106A1,1,0,0,1,269.952,301.982Z" fill="#E9EBDF"/><path d="M251.676,291.437a1,1,0,0,1-.5-1.867l36.555-21.105a1,1,0,0,1,1,1.733L252.175,291.3A.992.992,0,0,1,251.676,291.437Z" fill="#E9EBDF"/><path d="M306.654,323.008a1,1,0,0,1-.5-.133l-72.813-42.04a1,1,0,0,1,0-1.732l36.407-21.02a1,1,0,0,1,1,0l72.814,42.04a1,1,0,0,1,0,1.732l-36.408,21.02A1,1,0,0,1,306.654,323.008Zm-70.813-43.039,70.813,40.885,34.408-19.865L270.248,260.1Z" fill="#4D9987"/><path d="M306.654,473.193a1,1,0,0,1-1-1V322.009a1,1,0,0,1,.5-.866l35.908-20.731v-38.1a1,1,0,0,1,.5-.866l36.406-21.019a1,1,0,0,1,1.5.866V430.153a1,1,0,0,1-.5.866l-72.814,42.04A1,1,0,0,1,306.654,473.193Zm1-150.607V470.461l70.814-40.885V243.022l-34.406,19.864v38.1a1,1,0,0,1-.5.866Z" fill="#4D9987"/><path d="M319.119,428.131a1,1,0,0,1-.5-1.866l11.64-6.72a1,1,0,1,1,1,1.732L319.618,428A.992.992,0,0,1,319.119,428.131Z" fill="#4D9987"/><path d="M319.119,428.131a1,1,0,0,1-.5-1.866l11.64-6.72a1,1,0,1,1,1,1.732L319.618,428A.992.992,0,0,1,319.119,428.131Z" fill="#4D9987"/><path d="M319.119,390.692a1,1,0,0,1-.5-1.866l11.64-6.721a1,1,0,1,1,1,1.732l-11.64,6.721A.992.992,0,0,1,319.119,390.692Z" fill="#4D9987"/><path d="M319.119,353.252a1,1,0,0,1-.5-1.866l11.64-6.72a1,1,0,0,1,1,1.732l-11.64,6.72A.992.992,0,0,1,319.119,353.252Z" fill="#4D9987"/><path d="M355.367,332.324a1,1,0,0,1-.5-1.866l11.639-6.72a1,1,0,0,1,1,1.733l-11.639,6.719A.992.992,0,0,1,355.367,332.324Z" fill="#4D9987"/><path d="M355.367,294.885a1,1,0,0,1-.5-1.866l11.639-6.72a1,1,0,0,1,1,1.733l-11.639,6.719A.992.992,0,0,1,355.367,294.885Z" fill="#4D9987"/><path d="M355.367,369.764a1,1,0,0,1-.5-1.866l11.639-6.721a1,1,0,0,1,1,1.733l-11.639,6.72A.992.992,0,0,1,355.367,369.764Z" fill="#4D9987"/><path d="M355.367,407.2a1,1,0,0,1-.5-1.866l11.639-6.72a1,1,0,0,1,1,1.733l-11.639,6.719A.992.992,0,0,1,355.367,407.2Z" fill="#4D9987"/><path d="M306.655,473.191a1,1,0,0,1-.5-.133L233.34,431.02a1,1,0,0,1-.5-.867V279.969a1,1,0,0,1,.5-.866l35.908-20.73v-38.1a1,1,0,0,1,.5-.867l36.406-21.019a1,1,0,0,1,1,0l72.814,42.039a1,1,0,0,1,.5.866V430.153a1,1,0,0,1-.5.867l-72.813,42.038A1,1,0,0,1,306.655,473.191ZM234.84,429.576l71.814,41.461,71.814-41.461V241.866l-71.814-41.461-35.406,20.442v38.1a1,1,0,0,1-.5.866l-35.908,20.73Z" fill="#0E352C"/><path d="M351.243,200.463V246.34c0,1.278-1.8,2.315-4.011,2.315s-4.012-1.037-4.012-2.315V200.463Z" fill="#C4D7D3"/><path d="M347.231,249.655c-2.809,0-5.01-1.456-5.01-3.315V200.463a1,1,0,0,1,1-1h8.021a1,1,0,0,1,1,1V246.34C352.242,248.2,350.041,249.655,347.231,249.655Zm-3.01-48.192V246.34c0,.524,1.2,1.315,3.01,1.315s3.011-.791,3.011-1.315V201.463Z" fill="#185849"/><path d="M351.243,200.463V246.34c0,1.278-1.8,2.315-4.011,2.315s-4.012-1.037-4.012-2.315V200.463Z" fill="#C4D7D3"/><path d="M347.231,249.655c-2.809,0-5.01-1.456-5.01-3.315V200.463a1,1,0,0,1,1-1h8.021a1,1,0,0,1,1,1V246.34C352.242,248.2,350.041,249.655,347.231,249.655Zm-3.01-48.192V246.34c0,.524,1.2,1.315,3.01,1.315s3.011-.791,3.011-1.315V201.463Z" fill="#185849"/><path d="M351.243,217.106V234.6c0,1.278-1.8,2.315-4.011,2.315s-4.012-1.037-4.012-2.315V217.106Z" fill="#C4D7D3"/><path d="M347.231,249.655c-2.809,0-5.01-1.456-5.01-3.315V200.463a1,1,0,0,1,1-1h8.021a1,1,0,0,1,1,1V246.34C352.242,248.2,350.041,249.655,347.231,249.655Zm-3.01-48.192V246.34c0,.524,1.2,1.315,3.01,1.315s3.011-.791,3.011-1.315V201.463Z" fill="#185849"/><path d="M306.5,174.628v45.877c0,1.279-1.8,2.315-4.011,2.315s-4.01-1.036-4.01-2.315V174.628Z" fill="#C4D7D3"/><path d="M302.484,223.82c-2.809,0-5.01-1.456-5.01-3.315V174.628a1,1,0,0,1,1-1H306.5a1,1,0,0,1,1,1v45.877C307.5,222.364,305.294,223.82,302.484,223.82Zm-3.01-48.192v44.877c0,.524,1.2,1.315,3.01,1.315s3.011-.791,3.011-1.315V175.628Z" fill="#185849"/><path d="M306.5,174.628v45.877c0,1.279-1.8,2.315-4.011,2.315s-4.01-1.036-4.01-2.315V174.628Z" fill="#C4D7D3"/><path d="M302.484,223.82c-2.809,0-5.01-1.456-5.01-3.315V174.628a1,1,0,0,1,1-1H306.5a1,1,0,0,1,1,1v45.877C307.5,222.364,305.294,223.82,302.484,223.82Zm-3.01-48.192v44.877c0,.524,1.2,1.315,3.01,1.315s3.011-.791,3.011-1.315V175.628Z" fill="#185849"/><path d="M306.5,191.271V208.76c0,1.278-1.8,2.315-4.011,2.315s-4.01-1.037-4.01-2.315V191.271Z" fill="#C4D7D3"/><path d="M302.484,223.82c-2.809,0-5.01-1.456-5.01-3.315V174.628a1,1,0,0,1,1-1H306.5a1,1,0,0,1,1,1v45.877C307.5,222.364,305.294,223.82,302.484,223.82Zm-3.01-48.192v44.877c0,.524,1.2,1.315,3.01,1.315s3.011-.791,3.011-1.315V175.628Z" fill="#185849"/><polygon points="281.065 182.437 281.065 182.437 281.065 105.833 289.185 101.145 376.772 151.713 376.772 228.317 368.651 233.005 360.531 237.693 272.944 187.125 281.065 182.437" fill="#fff"/><polygon points="368.651 233.005 281.065 182.437 281.065 105.833 368.651 156.401 368.651 233.005" fill="#fff"/><polygon points="376.772 228.317 368.651 233.004 368.651 156.401 376.772 151.712 376.772 228.317" fill="#C4D7D3"/><polygon points="289.186 101.145 281.066 105.834 368.652 156.401 376.772 151.713 289.186 101.145" fill="#fff"/><path d="M368.651,234.005a1,1,0,0,1-.5-.134L280.565,183.3a1,1,0,0,1-.5-.866v-76.6a1,1,0,0,1,1.5-.866l87.586,50.568a1,1,0,0,1,.5.866v76.6a1,1,0,0,1-1,1ZM282.065,181.86l85.586,49.413V156.979l-85.586-49.414Z" fill="#27ae60"/><path d="M368.651,234a1,1,0,0,1-1-1V156.4a1,1,0,0,1,.5-.866l8.121-4.689a1,1,0,0,1,1.5.866v76.6a1,1,0,0,1-.5.867l-8.121,4.688A1,1,0,0,1,368.651,234Zm1-77.026v74.294l6.121-3.533v-74.3Z" fill="#27ae60"/><path d="M368.651,157.4a1,1,0,0,1-.5-.133L280.565,106.7a1,1,0,0,1,0-1.732l8.121-4.689a1,1,0,0,1,1,0l87.586,50.567a1,1,0,0,1,0,1.733l-8.121,4.689A1.009,1.009,0,0,1,368.651,157.4Zm-85.586-51.567,85.586,49.413,6.121-3.535L289.186,102.3Z" fill="#27ae60"/><path d="M360.531,238.693a1,1,0,0,1-.5-.133l-87.587-50.569a1,1,0,0,1,0-1.732l7.62-4.4V105.833a1,1,0,0,1,.5-.866l8.121-4.688a1,1,0,0,1,1,0l87.587,50.568a1,1,0,0,1,.5.866v76.6a1,1,0,0,1-.5.866l-16.241,9.377A1,1,0,0,1,360.531,238.693Zm-85.587-51.568,85.587,49.414,15.241-8.8V152.29L289.185,102.3l-7.121,4.11v76.027a1,1,0,0,1-.5.866Z" fill="#185849"/><path d="M498.069,351.638v78.515l55.966,32.312c10.448,6.031,27.388,6.031,37.836,0l37.048-21.39c5.225-3.015,7.836-6.97,7.836-10.922V351.638Z" fill="#E9EBDF"/><path d="M572.953,467.966c-7.032,0-14.064-1.545-19.418-4.635l-55.966-32.312a1,1,0,0,1-.5-.866V351.638a1,1,0,0,1,1-1H636.755a1,1,0,0,1,1,1v78.515c0,4.5-2.961,8.685-8.336,11.788l-37.048,21.39C587.018,466.421,579.985,467.966,572.953,467.966Zm-73.884-38.39L554.535,461.6c10.156,5.863,26.682,5.862,36.836,0l37.048-21.39c4.73-2.73,7.336-6.3,7.336-10.056V352.638H499.069Z" fill="#0E352C"/><path d="M572.953,466.989c6.847,0,13.694-1.509,18.918-4.524l37.048-21.39c5.225-3.016,7.836-6.969,7.836-10.923V351.637h-63.8Z" fill="#E9EBDF"/><path d="M572.953,467.966c-7.032,0-14.064-1.545-19.418-4.635l-55.966-32.312a1,1,0,0,1-.5-.866V351.638a1,1,0,0,1,1-1H636.755a1,1,0,0,1,1,1v78.515c0,4.5-2.961,8.685-8.336,11.788l-37.048,21.39C587.018,466.421,579.985,467.966,572.953,467.966Zm-73.884-38.39L554.535,461.6c10.156,5.863,26.682,5.862,36.836,0l37.048-21.39c4.73-2.73,7.336-6.3,7.336-10.056V352.638H499.069Z" fill="#0E352C"/><path d="M572.953,467.966c-7.032,0-14.064-1.545-19.418-4.635l-55.966-32.312a1,1,0,1,1,1-1.732L554.535,461.6c10.156,5.863,26.68,5.863,36.836,0l37.048-21.389c4.73-2.731,7.336-6.3,7.336-10.056a1,1,0,1,1,2,0c0,4.5-2.96,8.685-8.336,11.788l-37.048,21.39C587.018,466.421,579.985,467.966,572.953,467.966Z" fill="#0E352C"/><path d="M572.953,415.627c-7.319,0-14.216-1.655-19.418-4.659l-55.966-32.312a1,1,0,1,1,1-1.732l55.966,32.312c4.9,2.831,11.445,4.391,18.418,4.391a1,1,0,0,1,0,2Z" fill="#4D9987"/><path d="M572.953,415.626a1,1,0,0,1,0-2c6.974,0,13.515-1.559,18.418-4.39l37.048-21.389c4.73-2.732,7.336-6.3,7.336-10.057a1,1,0,0,1,2,0c0,4.5-2.96,8.685-8.336,11.789l-37.048,21.39C587.168,413.972,580.272,415.626,572.953,415.626Z" fill="#4D9987"/><path d="M572.953,441.779c-7.319,0-14.216-1.654-19.418-4.658l-55.966-32.313a1,1,0,0,1,1-1.732l55.966,32.312c4.9,2.832,11.445,4.391,18.418,4.391a1,1,0,0,1,0,2Z" fill="#4D9987"/><path d="M572.953,441.779a1,1,0,0,1,0-2c6.974,0,13.515-1.559,18.418-4.39L628.419,414c4.73-2.731,7.336-6.3,7.336-10.058a1,1,0,1,1,2,0c0,4.5-2.96,8.686-8.336,11.79l-37.048,21.39C587.168,440.125,580.272,441.779,572.953,441.779Z" fill="#4D9987"/><path d="M572.953,467.966c-7.032,0-14.064-1.545-19.418-4.635l-55.966-32.312a1,1,0,0,1-.5-.866V351.638a1,1,0,0,1,1-1H636.755a1,1,0,0,1,1,1v78.515c0,4.5-2.961,8.685-8.336,11.788l-37.048,21.39C587.018,466.421,579.985,467.966,572.953,467.966Zm-73.884-38.39L554.535,461.6c10.156,5.863,26.682,5.862,36.836,0l37.048-21.39c4.73-2.73,7.336-6.3,7.336-10.056V352.638H499.069Z" fill="#0E352C"/><path d="M554.035,383.95c10.447,6.032,27.388,6.032,37.836,0l37.048-21.389c10.449-6.032,10.449-15.812,0-21.845L572.953,308.4l-74.884,43.235Z" fill="#fff"/><path d="M572.953,389.453c-7.033,0-14.064-1.545-19.418-4.636L497.569,352.5a1,1,0,0,1,0-1.732l74.883-43.235a1,1,0,0,1,1,0l55.967,32.313c5.376,3.1,8.337,7.29,8.337,11.789s-2.961,8.684-8.337,11.788l-37.048,21.39C587.018,387.907,579.984,389.453,572.953,389.453Zm-18.418-6.369c10.155,5.864,26.679,5.865,36.836,0l37.048-21.39c4.731-2.731,7.337-6.3,7.337-10.055s-2.606-7.326-7.337-10.057l-55.467-32.024-72.883,42.08Z" fill="#0E352C"/><polygon points="572.356 338.255 553.785 327.532 535.212 316.811 516.641 327.532 498.069 338.255 516.641 348.977 535.212 359.699 553.785 348.977 572.356 338.255" fill="#fff"/><polygon points="498.069 351.638 535.213 373.082 535.213 359.7 498.069 338.255 498.069 351.638" fill="#E9EBDF"/><polygon points="572.356 351.638 535.212 373.082 535.212 359.7 572.356 338.255 572.356 351.638" fill="#E9EBDF"/><path d="M535.212,360.7a1,1,0,0,1-.5-.134l-37.144-21.444a1,1,0,0,1,0-1.732l37.144-21.445a1,1,0,0,1,1,0l37.143,21.445a1,1,0,0,1,0,1.732l-37.143,21.444A1,1,0,0,1,535.212,360.7Zm-35.144-22.444,35.144,20.289,35.143-20.289-35.143-20.29Z" fill="#4D9987"/><path d="M535.212,374.082a1,1,0,0,1-1-1V359.7a1,1,0,0,1,.5-.867l37.143-21.445a1,1,0,0,1,1.5.866v13.384a1,1,0,0,1-.5.866l-37.143,21.444A.99.99,0,0,1,535.212,374.082Zm1-13.805V371.35l35.143-20.289V339.986Z" fill="#4D9987"/><path d="M535.213,374.082a.99.99,0,0,1-.5-.134L497.569,352.5a1,1,0,0,1-.5-.866V338.254a1,1,0,0,1,1.5-.866l37.144,21.445a1,1,0,0,1,.5.867v13.382a1,1,0,0,1-.5.866A.99.99,0,0,1,535.213,374.082Zm-36.144-23.021,35.144,20.289V360.277l-35.144-20.291Z" fill="#4D9987"/><path d="M535.212,345.282c-6.414,0-11.439-3.087-11.439-7.027s5.025-7.027,11.439-7.027,11.438,3.086,11.438,7.027S541.626,345.282,535.212,345.282Zm0-12.054c-5.116,0-9.439,2.3-9.439,5.027s4.323,5.027,9.439,5.027,9.438-2.3,9.438-5.027S540.328,333.228,535.212,333.228Z" fill="#4D9987"/><path d="M535.213,374.083a1,1,0,0,1-.5-.134L497.569,352.5a1,1,0,0,1-.5-.866V338.255a1,1,0,0,1,.5-.866l37.144-21.445a1,1,0,0,1,1,0l37.142,21.445a1,1,0,0,1,.5.866v13.383a1,1,0,0,1-.5.866l-37.142,21.445A1,1,0,0,1,535.213,374.083Zm-36.144-23.022,36.144,20.867,36.142-20.867V338.832L553.283,328.4h0l-18.07-10.433-36.144,20.867Z" fill="#0E352C"/><path d="M567.884,332.175v45.876c0,1.279,1.8,2.316,4.011,2.316s4.011-1.037,4.011-2.316V332.175Z" fill="#C4D7D3"/><path d="M571.9,381.367c-2.81,0-5.011-1.457-5.011-3.316V332.175a1,1,0,0,1,1-1h8.021a1,1,0,0,1,1,1v45.876C576.905,379.91,574.7,381.367,571.9,381.367Zm-3.011-48.192v44.876c0,.524,1.2,1.316,3.011,1.316s3.01-.792,3.01-1.316V333.175Z" fill="#185849"/><path d="M567.884,332.175v45.876c0,1.279,1.8,2.316,4.011,2.316s4.011-1.037,4.011-2.316V332.175Z" fill="#C4D7D3"/><path d="M571.9,381.367c-2.81,0-5.011-1.457-5.011-3.316V332.175a1,1,0,0,1,1-1h8.021a1,1,0,0,1,1,1v45.876C576.905,379.91,574.7,381.367,571.9,381.367Zm-3.011-48.192v44.876c0,.524,1.2,1.316,3.011,1.316s3.01-.792,3.01-1.316V333.175Z" fill="#185849"/><path d="M567.884,348.818v17.488c0,1.279,1.8,2.315,4.011,2.315s4.011-1.036,4.011-2.315V348.818Z" fill="#C4D7D3"/><path d="M571.9,381.367c-2.81,0-5.011-1.457-5.011-3.316V332.175a1,1,0,0,1,1-1h8.021a1,1,0,0,1,1,1v45.876C576.905,379.91,574.7,381.367,571.9,381.367Zm-3.011-48.192v44.876c0,.524,1.2,1.316,3.011,1.316s3.01-.792,3.01-1.316V333.175Z" fill="#185849"/><path d="M612.632,306.34v45.877c0,1.278,1.8,2.315,4.01,2.315s4.011-1.037,4.011-2.315V306.34Z" fill="#C4D7D3"/><path d="M616.643,355.532c-2.81,0-5.011-1.456-5.011-3.315V306.34a1,1,0,0,1,1-1h8.021a1,1,0,0,1,1,1v45.877C621.653,354.076,619.452,355.532,616.643,355.532Zm-3.011-48.192v44.877c0,.523,1.2,1.315,3.011,1.315s3.01-.792,3.01-1.315V307.34Z" fill="#185849"/><path d="M612.632,306.34v45.877c0,1.278,1.8,2.315,4.01,2.315s4.011-1.037,4.011-2.315V306.34Z" fill="#C4D7D3"/><path d="M616.643,355.532c-2.81,0-5.011-1.456-5.011-3.315V306.34a1,1,0,0,1,1-1h8.021a1,1,0,0,1,1,1v45.877C621.653,354.076,619.452,355.532,616.643,355.532Zm-3.011-48.192v44.877c0,.523,1.2,1.315,3.011,1.315s3.01-.792,3.01-1.315V307.34Z" fill="#185849"/><path d="M612.632,322.983v17.488c0,1.279,1.8,2.315,4.01,2.315s4.011-1.036,4.011-2.315V322.983Z" fill="#C4D7D3"/><path d="M616.643,355.532c-2.81,0-5.011-1.456-5.011-3.315V306.34a1,1,0,0,1,1-1h8.021a1,1,0,0,1,1,1v45.877C621.653,354.076,619.452,355.532,616.643,355.532Zm-3.011-48.192v44.877c0,.523,1.2,1.315,3.011,1.315s3.01-.792,3.01-1.315V307.34Z" fill="#185849"/><polygon points="638.061 314.149 638.061 314.149 638.061 237.544 629.942 232.857 542.355 283.424 542.355 360.028 550.475 364.716 558.596 369.405 646.182 318.836 638.061 314.149" fill="#fff"/><polygon points="550.476 364.716 638.061 314.148 638.061 237.545 550.476 288.112 550.476 364.716" fill="#C4D7D3"/><polygon points="542.355 360.028 550.476 364.716 550.476 288.112 542.355 283.424 542.355 360.028" fill="#fff"/><polygon points="629.941 232.857 638.061 237.544 550.475 288.113 542.355 283.424 629.941 232.857" fill="#fff"/><path d="M550.476,365.716a1,1,0,0,1-1-1v-76.6a1,1,0,0,1,.5-.866l87.586-50.567a1,1,0,0,1,1.5.866v76.6a1,1,0,0,1-.5.867l-87.586,50.567A1,1,0,0,1,550.476,365.716Zm1-77.027v74.295l85.586-49.413V239.277Z" fill="#27ae60"/><path d="M550.476,365.716a1,1,0,0,1-.5-.134l-8.121-4.688a1,1,0,0,1-.5-.866v-76.6a1,1,0,0,1,1.5-.866l8.121,4.688a1,1,0,0,1,.5.866v76.6a1,1,0,0,1-1,1Zm-7.121-6.265,6.121,3.533V288.689l-6.121-3.533Z" fill="#27ae60"/><path d="M550.476,289.113a1,1,0,0,1-.5-.134l-8.121-4.689a1,1,0,0,1,0-1.732L629.44,231.99a1,1,0,0,1,1,0l8.122,4.688a1,1,0,0,1,0,1.733l-87.586,50.568A1,1,0,0,1,550.476,289.113Zm-6.121-5.689,6.121,3.534,85.586-49.414-6.122-3.533Z" fill="#27ae60"/><path d="M558.6,370.405a1,1,0,0,1-.5-.134L541.855,360.9a1,1,0,0,1-.5-.867v-76.6a1,1,0,0,1,.5-.866l87.586-50.568a1,1,0,0,1,1,0l8.121,4.688a1,1,0,0,1,.5.866v76.027l7.621,4.4a1,1,0,0,1,0,1.733L559.1,370.271A1,1,0,0,1,558.6,370.405Zm-15.241-10.954,15.241,8.8,85.587-49.414-6.621-3.821a1,1,0,0,1-.5-.867V238.122l-7.121-4.111L543.355,284Z" fill="#185849"/><path d="M597.781,322.706a1,1,0,0,1-1-1v-9.27l-12.095,6.983a1,1,0,0,1-1.429-1.236l13.6-34.12a1,1,0,0,1,1.928.371v24.538l5.07-2.928a1,1,0,0,1,1,1.733l-6.07,3.5v10.425A1,1,0,0,1,597.781,322.706Zm-1-33.061-10.6,26.6,10.6-6.12Z" fill="#185849"/><path d="M440.512,284.063,406.32,303.8l-20.707,11.954c-10.062,5.809-18.218,21.394-18.218,34.809l.073,25.3V505.554l73.044,42.173,73.044-221.493Z" fill="#E9EBDF"/><path d="M440.513,548.727a1,1,0,0,1-.5-.134L366.968,506.42a1,1,0,0,1-.5-.866V375.867l-.073-25.3c0-13.716,8.4-29.719,18.718-35.678l54.9-31.7a1,1,0,0,1,1,0l73.043,42.172a1,1,0,0,1,.449,1.179L441.462,548.04a1,1,0,0,1-.949.687Zm-72.045-43.75,71.48,41.27,72.4-219.553-71.839-41.477-54.4,31.407c-9.77,5.64-17.718,20.867-17.718,33.943l.073,25.3Z" fill="#0E352C"/><path d="M481.411,393.242l32.145-67.008-73.044-42.171L406.32,303.8l-20.707,11.955c-5.068,2.927-9.65,8.336-12.952,14.7Z" fill="#fff"/><path d="M458.657,357.93c-10.061,5.809-18.218,21.394-18.218,34.809l.073,25.3V547.727l73.044-42.172V326.233l-34.192,19.742Z" fill="#E9EBDF"/><path d="M440.513,548.727a1,1,0,0,1-1-1V418.04l-.074-25.3c0-13.715,8.4-29.719,18.718-35.679h0l54.9-31.7a1,1,0,0,1,1.5.866V505.555a1,1,0,0,1-.5.866l-73.043,42.172A.992.992,0,0,1,440.513,548.727Zm18.144-190.8.5.866c-9.77,5.641-17.718,20.868-17.718,33.943l.074,25.3V546l71.043-41.017V327.965l-53.4,30.831Z" fill="#4D9987"/><path d="M456.9,428.167a1,1,0,0,1-.5-1.867l39.423-22.76a1,1,0,1,1,1,1.732L457.4,428.033A1,1,0,0,1,456.9,428.167Z" fill="#4D9987"/><path d="M457.861,406.217a7.423,7.423,0,0,1-3.758-.987c-3.106-1.793-4.887-5.85-4.887-11.129,0-9.648,5.917-20.914,13.19-25.114,3.373-1.947,6.679-2.185,9.3-.669,3.105,1.793,4.887,5.849,4.887,11.13,0,9.649-5.917,20.914-13.191,25.114A11.205,11.205,0,0,1,457.861,406.217Zm10.088-36.881a9.226,9.226,0,0,0-4.543,1.383c-6.721,3.881-12.19,14.37-12.19,23.382,0,4.545,1.417,7.971,3.887,9.4,1.981,1.145,4.575.907,7.3-.669,6.722-3.88,12.191-14.369,12.191-23.381,0-4.547-1.417-7.972-3.887-9.4A5.448,5.448,0,0,0,467.949,369.336Z" fill="#4D9987"/><path d="M423.628,403.243a.992.992,0,0,1-.5-.134l-39.424-22.761a1,1,0,0,1,1-1.733l39.424,22.761a1,1,0,0,1-.5,1.867Z" fill="#4D9987"/><path d="M456.9,539.267a1,1,0,0,1-1-1v-111.1a1,1,0,0,1,2,0v111.1A1,1,0,0,1,456.9,539.267Z" fill="#4D9987"/><path d="M496.319,516.506a1,1,0,0,1-1-1v-111.1a1,1,0,0,1,2,0v111.1A1,1,0,0,1,496.319,516.506Z" fill="#4D9987"/><path d="M402.288,371.712a1,1,0,0,1-1-1,45.737,45.737,0,0,1,5.183-20.2,1,1,0,0,1,1.783.907,43.7,43.7,0,0,0-4.966,19.294A1,1,0,0,1,402.288,371.712Z" fill="#4D9987"/><path d="M407.361,351.964a1,1,0,0,1-.89-1.453c3.555-6.992,8.362-12.487,13.535-15.473l54.9-31.7a1,1,0,1,1,1,1.733l-54.9,31.7c-4.842,2.794-9.37,8-12.752,14.646A1,1,0,0,1,407.361,351.964Z" fill="#E9EBDF"/><path d="M440.513,548.727a.99.99,0,0,1-.5-.134L366.969,506.42a1,1,0,0,1-.5-.866V375.867l-.074-25.3c0-13.715,8.4-29.719,18.718-35.678l54.9-31.7a1,1,0,0,1,1,0l73.043,42.172a1,1,0,0,1,.5.866v179.32a1,1,0,0,1-.5.866l-73.043,42.173A.992.992,0,0,1,440.513,548.727Zm-72.044-43.75,72.044,41.6,72.043-41.6V326.812l-72.043-41.6-54.4,31.407c-9.77,5.641-17.718,20.868-17.718,33.943l.074,25.3Z" fill="#0E352C"/><path d="M423.628,438.961a1,1,0,0,1-.5-.133l-39.424-22.761a1,1,0,1,1,1-1.732l39.424,22.76a1,1,0,0,1-.5,1.866Z" fill="#4D9987"/><path d="M423.628,438.961a1,1,0,0,1-.5-.133l-39.424-22.761a1,1,0,1,1,1-1.732l39.424,22.76a1,1,0,0,1-.5,1.866Z" fill="#4D9987"/><path d="M423.628,474.682a.992.992,0,0,1-.5-.134l-39.424-22.762a1,1,0,1,1,1-1.732l39.424,22.761a1,1,0,0,1-.5,1.867Z" fill="#4D9987"/><path d="M423.628,510.4a1,1,0,0,1-.5-.133l-39.424-22.762a1,1,0,1,1,1-1.732l39.424,22.761a1,1,0,0,1-.5,1.866Z" fill="#4D9987"/><path d="M464.612,294.083v45.876c0,1.278-1.8,2.316-4.011,2.316s-4.01-1.038-4.01-2.316V294.083Z" fill="#C4D7D3"/><path d="M460.6,343.275c-2.81,0-5.011-1.457-5.011-3.316V294.083a1,1,0,0,1,1-1h8.021a1,1,0,0,1,1,1v45.876C465.612,341.818,463.411,343.275,460.6,343.275Zm-3.011-48.192v44.876c0,.524,1.2,1.316,3.011,1.316s3.01-.792,3.01-1.316V295.083Z" fill="#185849"/><path d="M464.612,294.083v45.876c0,1.278-1.8,2.316-4.011,2.316s-4.01-1.038-4.01-2.316V294.083Z" fill="#C4D7D3"/><path d="M460.6,343.275c-2.81,0-5.011-1.457-5.011-3.316V294.083a1,1,0,0,1,1-1h8.021a1,1,0,0,1,1,1v45.876C465.612,341.818,463.411,343.275,460.6,343.275Zm-3.011-48.192v44.876c0,.524,1.2,1.316,3.011,1.316s3.01-.792,3.01-1.316V295.083Z" fill="#185849"/><path d="M464.612,310.725v17.488c0,1.28-1.8,2.316-4.011,2.316s-4.01-1.036-4.01-2.316V310.725Z" fill="#C4D7D3"/><path d="M460.6,343.275c-2.81,0-5.011-1.457-5.011-3.316V294.083a1,1,0,0,1,1-1h8.021a1,1,0,0,1,1,1v45.876C465.612,341.818,463.411,343.275,460.6,343.275Zm-3.011-48.192v44.876c0,.524,1.2,1.316,3.011,1.316s3.01-.792,3.01-1.316V295.083Z" fill="#185849"/><path d="M419.864,268.248v45.876c0,1.278-1.795,2.316-4.01,2.316s-4.011-1.038-4.011-2.316V268.248Z" fill="#C4D7D3"/><path d="M415.854,317.44c-2.81,0-5.011-1.457-5.011-3.316V268.248a1,1,0,0,1,1-1h8.021a1,1,0,0,1,1,1v45.876C420.864,315.983,418.663,317.44,415.854,317.44Zm-3.011-48.192v44.876c0,.524,1.2,1.316,3.011,1.316s3.01-.792,3.01-1.316V269.248Z" fill="#185849"/><path d="M419.864,268.248v45.876c0,1.278-1.795,2.316-4.01,2.316s-4.011-1.038-4.011-2.316V268.248Z" fill="#C4D7D3"/><path d="M415.854,317.44c-2.81,0-5.011-1.457-5.011-3.316V268.248a1,1,0,0,1,1-1h8.021a1,1,0,0,1,1,1v45.876C420.864,315.983,418.663,317.44,415.854,317.44Zm-3.011-48.192v44.876c0,.524,1.2,1.316,3.011,1.316s3.01-.792,3.01-1.316V269.248Z" fill="#185849"/><path d="M419.864,284.89v17.488c0,1.28-1.795,2.316-4.01,2.316s-4.011-1.036-4.011-2.316V284.89Z" fill="#C4D7D3"/><path d="M415.854,317.44c-2.81,0-5.011-1.457-5.011-3.316V268.248a1,1,0,0,1,1-1h8.021a1,1,0,0,1,1,1v45.876C420.864,315.983,418.663,317.44,415.854,317.44Zm-3.011-48.192v44.876c0,.524,1.2,1.316,3.011,1.316s3.01-.792,3.01-1.316V269.248Z" fill="#185849"/><polygon points="394.435 276.056 394.435 276.056 394.435 199.453 402.555 194.764 490.141 245.332 490.141 321.936 482.021 326.624 473.9 331.313 386.315 280.745 394.435 276.056" fill="#fff"/><polygon points="482.021 326.624 394.435 276.056 394.435 199.452 482.021 250.021 482.021 326.624" fill="#fff"/><polygon points="490.141 321.935 482.021 326.624 482.021 250.021 490.141 245.332 490.141 321.935" fill="#C4D7D3"/><polygon points="402.555 194.764 394.435 199.452 482.021 250.02 490.141 245.332 402.555 194.764" fill="#fff"/><path d="M482.021,327.624a.99.99,0,0,1-.5-.134l-87.586-50.568a1,1,0,0,1-.5-.866v-76.6a1,1,0,0,1,1.5-.867l87.586,50.569a1,1,0,0,1,.5.866v76.6a1,1,0,0,1-1,1Zm-86.586-52.145,85.586,49.413V250.6l-85.586-49.413Z" fill="#27ae60"/><path d="M482.021,327.624a1,1,0,0,1-1-1v-76.6a1,1,0,0,1,.5-.866l8.12-4.689a1,1,0,0,1,1.5.866v76.6a1,1,0,0,1-.5.866l-8.12,4.688A1,1,0,0,1,482.021,327.624Zm1-77.026v74.294l6.12-3.534V247.064Z" fill="#27ae60"/><path d="M482.021,251.021a1,1,0,0,1-.5-.134l-87.586-50.569a1,1,0,0,1,0-1.732l8.121-4.688a1,1,0,0,1,1,0l87.585,50.568a1,1,0,0,1,0,1.732l-8.12,4.689A1,1,0,0,1,482.021,251.021Zm-85.586-51.569,85.586,49.414,6.12-3.534-85.585-49.413Z" fill="#27ae60"/><path d="M473.9,332.313a1,1,0,0,1-.5-.134l-87.586-50.568a1,1,0,0,1,0-1.733l7.621-4.4V199.453a1,1,0,0,1,.5-.867l8.12-4.688a1,1,0,0,1,1,0l87.586,50.568a1,1,0,0,1,.5.867v76.6a1,1,0,0,1-.5.866L474.4,332.179A.99.99,0,0,1,473.9,332.313Zm-85.586-51.568L473.9,330.158l15.241-8.8V245.91l-86.586-49.991-7.12,4.111v76.026a1,1,0,0,1-.5.866Z" fill="#185849"/><polygon points="561.651 481.393 546.132 472.432 530.613 481.393 546.132 490.352 561.651 481.393" fill="#fff"/><path d="M546.132,491.352a.99.99,0,0,1-.5-.134l-15.52-8.959a1,1,0,0,1,0-1.733l15.52-8.96a1,1,0,0,1,1,0l15.518,8.96a1,1,0,0,1,0,1.733l-15.518,8.959A.99.99,0,0,1,546.132,491.352Zm-13.52-9.959,13.52,7.8,13.518-7.8-13.518-7.806Z" fill="#4D9987"/><polygon points="561.651 502.084 546.132 511.043 546.132 490.352 561.651 481.393 561.651 502.084" fill="#E9EBDF"/><path d="M546.132,512.043a1,1,0,0,1-1-1V490.352a1,1,0,0,1,.5-.866l15.518-8.96a1,1,0,0,1,1.5.867v20.691a1,1,0,0,1-.5.866l-15.518,8.96A1,1,0,0,1,546.132,512.043Zm1-21.114v18.383l13.518-7.805V483.125Z" fill="#4D9987"/><polygon points="530.613 502.084 546.132 511.043 546.132 490.352 530.613 481.393 530.613 502.084" fill="#E9EBDF"/><path d="M546.132,512.043a1,1,0,0,1-.5-.133l-15.52-8.96a1,1,0,0,1-.5-.866V481.393a1,1,0,0,1,1.5-.867l15.52,8.96a1,1,0,0,1,.5.866v20.691a1,1,0,0,1-1,1Zm-14.52-10.536,13.52,7.805V490.929l-13.52-7.8Z" fill="#4D9987"/><path d="M199.688,436.52v18.554c0,1.357-1.905,2.457-4.255,2.457s-4.254-1.1-4.254-2.457V436.52Z" fill="#C4D7D3"/><path d="M195.433,458.531c-2.947,0-5.254-1.519-5.254-3.457V436.52a1,1,0,0,1,1-1h8.509a1,1,0,0,1,1,1v18.554C200.688,457.012,198.379,458.531,195.433,458.531Zm-3.254-21.011v17.554c0,.58,1.3,1.457,3.254,1.457s3.255-.877,3.255-1.457V437.52Z" fill="#0E352C"/><path d="M199.688,426.77v18.553c0,1.356-1.905,2.457-4.255,2.457s-4.254-1.1-4.254-2.457V426.77Z" fill="#27ae60"/><path d="M195.433,458.531c-2.947,0-5.254-1.519-5.254-3.457V436.52a1,1,0,0,1,1-1h8.509a1,1,0,0,1,1,1v18.554C200.688,457.012,198.379,458.531,195.433,458.531Zm-3.254-21.011v17.554c0,.58,1.3,1.457,3.254,1.457s3.255-.877,3.255-1.457V437.52Z" fill="#185849"/><path d="M179.672,431.771h0L191.623,391.2h0a3.969,3.969,0,0,1,7.614,0h0L211.2,431.771h-.005a5.475,5.475,0,0,1,.232,1.559c0,5.1-7.161,9.234-15.993,9.234s-15.993-4.135-15.993-9.234a5.475,5.475,0,0,1,.232-1.559" fill="#C4D7D3"/><path d="M195.433,443.564c-9.53,0-16.994-4.5-16.994-10.233a6.493,6.493,0,0,1,.245-1.742.706.706,0,0,1,.024-.1l11.956-40.575c.008-.028.017-.054.027-.08a4.969,4.969,0,0,1,9.508.079l11.959,40.576a.93.93,0,0,1,.025.1,6.507,6.507,0,0,1,.243,1.742C212.426,439.069,204.962,443.564,195.433,443.564Zm-14.78-11.6a.848.848,0,0,1-.022.094,4.517,4.517,0,0,0-.192,1.277c0,4.462,6.867,8.233,14.994,8.233s14.993-3.771,14.993-8.233a4.53,4.53,0,0,0-.191-1.277c-.009-.032-.016-.063-.023-.095l-11.929-40.481a2.971,2.971,0,0,0-5.7,0c-.007.023-.015.047-.023.07Z" fill="#0E352C"/><path d="M211.427,433.331a5.507,5.507,0,0,0-.232-1.56h0L199.241,391.2h0l-.015-.05a1.955,1.955,0,0,0-3.792.675v50.744c8.833,0,15.994-4.135,15.994-9.234" fill="#27ae60"/><path d="M195.433,443.564c-9.53,0-16.994-4.5-16.994-10.233a6.493,6.493,0,0,1,.245-1.742.706.706,0,0,1,.024-.1l11.956-40.575c.008-.028.017-.054.027-.08a4.969,4.969,0,0,1,9.508.079l11.959,40.576a.93.93,0,0,1,.025.1,6.507,6.507,0,0,1,.243,1.742C212.426,439.069,204.962,443.564,195.433,443.564Zm-14.78-11.6a.848.848,0,0,1-.022.094,4.517,4.517,0,0,0-.192,1.277c0,4.462,6.867,8.233,14.994,8.233s14.993-3.771,14.993-8.233a4.53,4.53,0,0,0-.191-1.277c-.009-.032-.016-.063-.023-.095l-11.929-40.481a2.971,2.971,0,0,0-5.7,0c-.007.023-.015.047-.023.07Z" fill="#185849"/><path d="M235.934,457.447V476c0,1.356-1.905,2.457-4.255,2.457s-4.254-1.1-4.254-2.457V457.447Z" fill="#C4D7D3"/><path d="M231.68,479.458c-2.947,0-5.255-1.518-5.255-3.457V457.447a1,1,0,0,1,1-1h8.51a1,1,0,0,1,1,1V476C236.935,477.94,234.626,479.458,231.68,479.458Zm-3.255-21.011V476c0,.581,1.3,1.457,3.255,1.457s3.255-.876,3.255-1.457V458.447Z" fill="#0E352C"/><path d="M235.934,447.7v18.554c0,1.356-1.905,2.456-4.255,2.456s-4.254-1.1-4.254-2.456V447.7Z" fill="#27ae60"/><path d="M231.68,479.458c-2.947,0-5.255-1.518-5.255-3.457V457.447a1,1,0,0,1,1-1h8.51a1,1,0,0,1,1,1V476C236.935,477.94,234.626,479.458,231.68,479.458Zm-3.255-21.011V476c0,.581,1.3,1.457,3.255,1.457s3.255-.876,3.255-1.457V458.447Z" fill="#185849"/><path d="M215.918,452.7h0l11.957-40.575h0a3.969,3.969,0,0,1,7.614,0h0L247.446,452.7h0a5.51,5.51,0,0,1,.232,1.559c0,5.1-7.161,9.235-15.993,9.235s-15.994-4.135-15.994-9.235a5.51,5.51,0,0,1,.232-1.559" fill="#C4D7D3"/><path d="M231.68,464.492c-9.53,0-16.993-4.5-16.993-10.235a6.5,6.5,0,0,1,.243-1.74.872.872,0,0,1,.024-.1L226.91,411.84a.846.846,0,0,1,.028-.08,4.969,4.969,0,0,1,9.484,0c.01.026.018.052.026.079L248.4,452.416a.876.876,0,0,1,.025.1,6.482,6.482,0,0,1,.244,1.74C248.673,460,241.209,464.492,231.68,464.492ZM216.9,452.887a.611.611,0,0,1-.022.094,4.532,4.532,0,0,0-.19,1.276c0,4.464,6.866,8.235,14.993,8.235s14.993-3.771,14.993-8.235a4.521,4.521,0,0,0-.192-1.276c-.009-.031-.016-.063-.023-.094l-11.907-40.41q-.013-.034-.024-.072a2.969,2.969,0,0,0-5.7,0c-.007.024-.015.048-.023.071Z" fill="#0E352C"/><path d="M247.673,454.257a5.48,5.48,0,0,0-.232-1.559h0l-11.957-40.575h0l-.015-.049a1.955,1.955,0,0,0-3.792.674v50.744c8.833,0,15.993-4.135,15.993-9.235" fill="#27ae60"/><path d="M231.68,464.492c-9.53,0-16.993-4.5-16.993-10.235a6.5,6.5,0,0,1,.243-1.74.872.872,0,0,1,.024-.1L226.91,411.84a.846.846,0,0,1,.028-.08,4.969,4.969,0,0,1,9.484,0c.01.026.018.052.026.079L248.4,452.416a.876.876,0,0,1,.025.1,6.482,6.482,0,0,1,.244,1.74C248.673,460,241.209,464.492,231.68,464.492ZM216.9,452.887a.611.611,0,0,1-.022.094,4.532,4.532,0,0,0-.19,1.276c0,4.464,6.866,8.235,14.993,8.235s14.993-3.771,14.993-8.235a4.521,4.521,0,0,0-.192-1.276c-.009-.031-.016-.063-.023-.094l-11.907-40.41q-.013-.034-.024-.072a2.969,2.969,0,0,0-5.7,0c-.007.024-.015.048-.023.071Z" fill="#185849"/><path d="M320.138,484.732v18.106c0,2.006,1.325,4.013,3.977,5.543,5.3,3.062,13.9,3.062,19.2,0,2.653-1.53,3.978-3.537,3.978-5.543V484.732" fill="#E9EBDF"/><path d="M333.717,510.677a19.622,19.622,0,0,0,9.6-2.3c2.653-1.53,3.978-3.537,3.978-5.543V484.732H333.717Z" fill="#E9EBDF"/><path d="M343.318,479.188c5.3,3.063,5.3,8.026,0,11.089s-13.9,3.061-19.2,0-5.3-8.026,0-11.089,13.9-3.061,19.2,0" fill="#fff"/><path d="M333.717,493.554a20.674,20.674,0,0,1-10.1-2.411c-2.887-1.668-4.477-3.945-4.477-6.411s1.591-4.743,4.477-6.41c5.571-3.215,14.634-3.215,20.2,0h0c2.888,1.667,4.478,3.944,4.478,6.41s-1.59,4.743-4.478,6.411A20.666,20.666,0,0,1,333.717,493.554Zm0-15.672a18.615,18.615,0,0,0-9.1,2.173c-2.242,1.294-3.476,2.955-3.477,4.677s1.235,3.384,3.477,4.679c5.02,2.9,13.185,2.9,18.2,0,2.244-1.3,3.478-2.957,3.478-4.679s-1.235-3.383-3.478-4.677h0A18.6,18.6,0,0,0,333.717,477.882Z" fill="#4D9987"/><path d="M333.717,511.66a20.674,20.674,0,0,1-10.1-2.412c-2.886-1.667-4.476-3.943-4.476-6.41V484.732c0-2.466,1.59-4.742,4.476-6.409,5.571-3.217,14.635-3.216,20.205,0h0c2.887,1.667,4.477,3.943,4.477,6.409v18.106c0,2.467-1.59,4.743-4.477,6.41A20.67,20.67,0,0,1,333.717,511.66Zm0-33.778a18.615,18.615,0,0,0-9.1,2.173c-2.242,1.294-3.476,2.956-3.476,4.677v18.106c0,1.722,1.234,3.383,3.476,4.677,5.02,2.9,13.186,2.9,18.205,0,2.243-1.294,3.477-2.955,3.477-4.677V484.732c0-1.721-1.234-3.383-3.477-4.678A18.619,18.619,0,0,0,333.717,477.882Z" fill="#0E352C"/><path d="M289.851,37.959l0,0L266.1,24.238l-.012.015c-2.78-1.6-6.4-1.469-10.363.821l-1.726,1L233.634,14.313l-.006.008c-4.632-2.674-10.669-2.43-17.279,1.386-13.8,7.968-25.125,28.616-26.316,47.292l-13.056,7.538c-8.757,5.057-15.856,18.619-15.856,30.294,0,6.388,2.133,10.868,5.492,12.8l-.01.018,23.757,13.717,0-.006c2.781,1.605,6.4,1.46,10.37-.83L279.481,81.07c8.757-5.055,15.855-18.619,15.855-30.294,0-6.386-2.127-10.879-5.485-12.817" fill="#fff"/><path d="M194.44,129.431a9.043,9.043,0,0,1-4.467-1.139,1.068,1.068,0,0,1-.113-.055L166.1,114.52a.918.918,0,0,1-.173-.127c-3.695-2.249-5.809-7.175-5.809-13.561,0-11.975,7.337-25.953,16.356-31.161l12.6-7.272C190.48,43.25,201.925,22.88,215.85,14.841c6.614-3.819,13.055-4.334,18.155-1.456a.953.953,0,0,1,.129.062L254,24.915l1.226-.707c4.044-2.337,8.008-2.66,11.187-.919a.979.979,0,0,1,.188.083l23.758,13.716a1.079,1.079,0,0,1,.1.068c3.737,2.227,5.878,7.181,5.878,13.62,0,11.975-7.337,25.954-16.355,31.16L201.234,127.4A13.717,13.717,0,0,1,194.44,129.431Zm-3.681-2.985a.939.939,0,0,1,.105.053c2.555,1.476,5.884,1.182,9.37-.831L278.981,80.2c8.467-4.888,15.355-18.089,15.355-29.428,0-5.767-1.817-10.122-4.985-11.95a1.084,1.084,0,0,1-.1-.064L265.761,25.2a1.012,1.012,0,0,1-.175-.079c-2.565-1.477-5.891-1.187-9.364.82l-1.726,1a1,1,0,0,1-1,0L233.252,15.248a1.178,1.178,0,0,1-.124-.06c-4.474-2.584-10.256-2.092-16.278,1.385-13.305,7.681-24.646,28.1-25.819,46.489a1,1,0,0,1-.5.8L177.477,71.4c-8.467,4.889-15.356,18.09-15.356,29.428,0,5.757,1.819,10.109,4.992,11.938a.975.975,0,0,1,.165.119Z" fill="#0E352C"/><path d="M279.481,38.791l-13.057,7.538c-1.19-17.3-12.514-24.873-26.317-16.9s-25.125,28.615-26.316,47.292l-13.057,7.539c-8.756,5.054-15.854,18.618-15.854,30.293s7.1,17.042,15.854,11.986L279.481,81.07c8.756-5.055,15.855-18.618,15.855-30.294s-7.1-17.041-15.855-11.985" fill="#E9EBDF"/><path d="M194.44,129.431a9.043,9.043,0,0,1-4.467-1.139,1.068,1.068,0,0,1-.113-.055L166.1,114.52a.918.918,0,0,1-.173-.127c-3.695-2.249-5.809-7.175-5.809-13.561,0-11.975,7.337-25.953,16.356-31.161l12.6-7.272C190.48,43.25,201.925,22.88,215.85,14.841c6.614-3.819,13.055-4.334,18.155-1.456a.953.953,0,0,1,.129.062L254,24.915l1.226-.707c4.044-2.337,8.008-2.66,11.187-.919a.979.979,0,0,1,.188.083l23.758,13.716a1.079,1.079,0,0,1,.1.068c3.737,2.227,5.878,7.181,5.878,13.62,0,11.975-7.337,25.954-16.355,31.16L201.234,127.4A13.717,13.717,0,0,1,194.44,129.431Zm-3.681-2.985a.939.939,0,0,1,.105.053c2.555,1.476,5.884,1.182,9.37-.831L278.981,80.2c8.467-4.888,15.355-18.089,15.355-29.428,0-5.767-1.817-10.122-4.985-11.95a1.084,1.084,0,0,1-.1-.064L265.761,25.2a1.012,1.012,0,0,1-.175-.079c-2.565-1.477-5.891-1.187-9.364.82l-1.726,1a1,1,0,0,1-1,0L233.252,15.248a1.178,1.178,0,0,1-.124-.06c-4.474-2.584-10.256-2.092-16.278,1.385-13.305,7.681-24.646,28.1-25.819,46.489a1,1,0,0,1-.5.8L177.477,71.4c-8.467,4.889-15.356,18.09-15.356,29.428,0,5.757,1.819,10.109,4.992,11.938a.975.975,0,0,1,.165.119Z" fill="#0E352C"/><path d="M184.88,115.548a1,1,0,0,1-1-1c0-11.976,7.337-25.953,16.354-31.159l12.6-7.273c1.408-19.148,12.853-39.518,26.777-47.558,6.472-3.736,12.814-4.316,17.859-1.63,5.444,2.9,8.9,9.169,9.817,17.75l11.7-6.754a1,1,0,1,1,1,1.733L266.924,47.2a1,1,0,0,1-1.5-.8c-.6-8.679-3.758-14.966-8.9-17.705-4.411-2.348-10.064-1.782-15.918,1.6-13.3,7.682-24.645,28.1-25.818,46.489a1,1,0,0,1-.5.8l-13.057,7.54c-8.466,4.887-15.354,18.087-15.354,29.426A1,1,0,0,1,184.88,115.548Z" fill="#4D9987"/><path d="M693.713,173.811l-43.169-5,3.782,14.973h0a3.672,3.672,0,0,0,1.817,2.032l14.9,8.605a10.213,10.213,0,0,0,9.243,0l7.832-4.522a3.718,3.718,0,0,0,1.805-1.988h0Z" fill="#4D9987"/><path d="M675.674,196.528a10.416,10.416,0,0,1-5.122-1.245l-14.9-8.6a4.711,4.711,0,0,1-2.242-2.509,1.122,1.122,0,0,1-.049-.145l-3.782-14.973a1,1,0,0,1,.218-.9.979.979,0,0,1,.867-.335l43.169,5a1,1,0,0,1,.851,1.252l-3.78,14.1a4.715,4.715,0,0,1-2.272,2.595l-7.832,4.522A10.431,10.431,0,0,1,675.674,196.528Zm-20.4-13.085.018.055a2.764,2.764,0,0,0,1.357,1.449l14.9,8.6a9.259,9.259,0,0,0,8.243,0l7.832-4.522a2.817,2.817,0,0,0,1.353-1.425l3.467-12.934-40.579-4.7Z" fill="#0E352C"/><path d="M654.326,183.781h0a3.674,3.674,0,0,0,1.816,2.032l14.9,8.6a9.229,9.229,0,0,0,4.226,1.084l-1.369-23.986-23.363-2.708Z" fill="#E9EBDF"/><path d="M675.674,196.528a10.416,10.416,0,0,1-5.122-1.245l-14.9-8.6a4.711,4.711,0,0,1-2.242-2.509,1.122,1.122,0,0,1-.049-.145l-3.782-14.973a1,1,0,0,1,.218-.9.979.979,0,0,1,.867-.335l43.169,5a1,1,0,0,1,.851,1.252l-3.78,14.1a4.715,4.715,0,0,1-2.272,2.595l-7.832,4.522A10.431,10.431,0,0,1,675.674,196.528Zm-20.4-13.085.018.055a2.764,2.764,0,0,0,1.357,1.449l14.9,8.6a9.259,9.259,0,0,0,8.243,0l7.832-4.522a2.817,2.817,0,0,0,1.353-1.425l3.467-12.934-40.579-4.7Z" fill="#0E352C"/><path d="M691.522,176.221l-9.5,5.482a12.386,12.386,0,0,1-11.2,0l-18.069-10.432c-3.094-1.786-3.094-4.684,0-6.469l9.5-5.482a12.374,12.374,0,0,1,11.2,0l18.069,10.431c3.094,1.787,3.094,4.683,0,6.47" fill="#E9EBDF"/><path d="M676.424,184.05a12.436,12.436,0,0,1-6.1-1.481l-18.068-10.432c-1.819-1.051-2.82-2.507-2.82-4.1s1-3.051,2.82-4.1l9.5-5.482a13.3,13.3,0,0,1,12.206,0l18.069,10.431c1.819,1.051,2.821,2.507,2.821,4.1s-1,3.051-2.821,4.1h0l-9.5,5.482A12.423,12.423,0,0,1,676.424,184.05Zm-8.573-25.063a10.481,10.481,0,0,0-5.1,1.2l-9.5,5.482a3.011,3.011,0,0,0-1.82,2.368,3.053,3.053,0,0,0,1.82,2.369l18.068,10.431a11.46,11.46,0,0,0,10.206,0l9.5-5.482a2.45,2.45,0,0,0,0-4.736l-18.069-10.432A10.476,10.476,0,0,0,667.851,158.987Z" fill="#0E352C"/><path d="M683.957,70.885h-2.823l-6.026-7.794c-1.151-1.489-4.53-1.85-6.528-.7L636.359,81l25.187,16.03,20.9-17.217a3.62,3.62,0,0,0,1.5-2.758l.014,0Z" fill="#4D9987"/><path d="M661.546,98.027a1,1,0,0,1-.537-.156l-25.187-16.03a1,1,0,0,1,.037-1.71l32.22-18.6c2.429-1.4,6.374-.919,7.82.951l5.727,7.406h2.331a1,1,0,0,1,1,1v6.164a1,1,0,0,1-.018.191,4.634,4.634,0,0,1-1.856,3.342L662.182,97.8A1,1,0,0,1,661.546,98.027ZM638.287,81.039l23.184,14.755,20.341-16.756a2.73,2.73,0,0,0,1.131-1.987.99.99,0,0,1,.014-.164v-5h-1.822a1,1,0,0,1-.791-.388L674.317,63.7c-.775-1-3.56-1.411-5.238-.442Z" fill="#fff"/><path d="M661.545,90.863l20.9-17.217c1.68-1.384,1.979-3.176.785-4.72l-8.125-10.51c-1.151-1.489-4.53-1.85-6.528-.7l-32.221,18.6Z" fill="#E9EBDF"/><path d="M661.545,91.863a1,1,0,0,1-.5-.134L635.858,77.188a1,1,0,0,1,0-1.732l32.222-18.6c2.428-1.4,6.373-.92,7.818.951l8.125,10.509c1.53,1.977,1.162,4.373-.939,6.1l-20.9,17.218A1,1,0,0,1,661.545,91.863ZM638.358,76.322,661.444,89.65l20.369-16.776c.732-.6,1.787-1.839.628-3.336l-8.125-10.51c-.775-1-3.558-1.412-5.236-.442Z" fill="#fff"/><path d="M661.545,98.027a1,1,0,0,1-.537-.156l-25.187-16.03a1,1,0,0,1,.037-1.71l2.549-1.471-2.549-1.472a1,1,0,0,1,0-1.732l32.222-18.6c2.428-1.4,6.374-.919,7.819.95l8.125,10.51a4.222,4.222,0,0,1,.915,2.379,1.008,1.008,0,0,1,.018.192v6.164a1,1,0,0,1-.018.191,4.64,4.64,0,0,1-1.854,3.342L662.181,97.8A1,1,0,0,1,661.545,98.027ZM638.286,81.039,661.47,95.794l20.343-16.756a2.732,2.732,0,0,0,1.13-1.987.99.99,0,0,1,.014-.164V71.049a.981.981,0,0,1-.014-.164,2.178,2.178,0,0,0-.5-1.346l-8.126-10.511c-.775-1-3.56-1.411-5.237-.442L638.358,76.322l2.549,1.471a1,1,0,0,1,0,1.733Z" fill="#0E352C"/><path d="M579.214,87.569c16.725,51.62,87.378,122.129,145.533,90.657a26.939,26.939,0,0,0,14.121-24.458c-1.822-66.1-98.211-92.032-151.278-80.707a11.267,11.267,0,0,0-8.376,14.508" fill="#fff"/><path d="M693.952,186.984a81.3,81.3,0,0,1-30.212-6.18c-18.3-7.326-37.244-21.342-53.329-39.464-14.839-16.718-26.556-36.2-32.148-53.463a12.266,12.266,0,0,1,9.118-15.794c17.743-3.787,40.478-3.382,62.374,1.11C673.493,78.062,695.1,87.458,710.6,99.647c18.576,14.611,28.7,33.316,29.27,54.094a27.832,27.832,0,0,1-14.645,25.364A65.022,65.022,0,0,1,693.952,186.984ZM580.165,87.261c10.6,32.724,45.041,75.966,84.318,91.686,21.678,8.675,41.791,8.137,59.789-1.6a25.841,25.841,0,0,0,13.6-23.552c-.563-20.451-10.155-38.141-28.508-52.576-33.253-26.156-87.919-34.36-121.561-27.18a10.267,10.267,0,0,0-7.634,13.222Z" fill="#0E352C"/><path d="M735.6,159.437c-51.864,23.293-120.866-37.824-143.423-84.3a3.933,3.933,0,0,0-4.354-2.125c-.054.013-.109.024-.163.035a11.325,11.325,0,0,0-8.441,14.521c16.725,51.62,87.376,122.13,145.533,90.658a26.928,26.928,0,0,0,13.239-16.845,1.694,1.694,0,0,0-2.359-1.958l-.032.014" fill="#E9EBDF"/><path d="M693.952,186.984a81.3,81.3,0,0,1-30.212-6.18c-18.3-7.326-37.244-21.342-53.329-39.464-14.839-16.718-26.556-36.2-32.148-53.463a12.266,12.266,0,0,1,9.118-15.794c17.743-3.787,40.478-3.382,62.374,1.11C673.493,78.062,695.1,87.458,710.6,99.647c18.576,14.611,28.7,33.316,29.27,54.094a27.832,27.832,0,0,1-14.645,25.364A65.022,65.022,0,0,1,693.952,186.984ZM580.165,87.261c10.6,32.724,45.041,75.966,84.318,91.686,21.678,8.675,41.791,8.137,59.789-1.6a25.841,25.841,0,0,0,13.6-23.552c-.563-20.451-10.155-38.141-28.508-52.576-33.253-26.156-87.919-34.36-121.561-27.18a10.267,10.267,0,0,0-7.634,13.222Z" fill="#0E352C"/><path d="M607.744,120.653l-5.141.272a134.2,134.2,0,0,1-11.959-12.71l-.714-.412-26.311,15.191-7.091.376v6.163h.007c0,.873.837,1.732,2.381,2.13l18.2,4.691a13.674,13.674,0,0,0,8.174-.453l22.449-9.085" fill="#4D9987"/><path d="M580.524,137.775a14.741,14.741,0,0,1-3.653-.453l-18.2-4.69c-1.863-.481-3.045-1.6-3.127-2.948a.942.942,0,0,1-.012-.151v-6.162a1,1,0,0,1,.948-1l6.851-.364,26.1-15.071a1,1,0,0,1,1,0l.714.412a1.016,1.016,0,0,1,.269.228A134.5,134.5,0,0,0,602.972,119.9l4.719-.25a1,1,0,1,1,.106,2l-5.142.273a1.009,1.009,0,0,1-.73-.263,135.726,135.726,0,0,1-11.936-12.669l-.058-.034-25.812,14.9a1.01,1.01,0,0,1-.447.133l-6.144.326v5.1a.892.892,0,0,1,.007.116c0,.368.561.886,1.631,1.162l18.2,4.691a12.707,12.707,0,0,0,7.551-.412l22.449-9.085a1,1,0,1,1,.75,1.853l-22.449,9.086A13.884,13.884,0,0,1,580.524,137.775Z" fill="#fff"/><path d="M637.117,80.488,631.454,66.87a28.35,28.35,0,0,0-12-13.667l-9.121-5.267a4.448,4.448,0,0,0-4.506.005l-.006-.008-4.847,2.8,4.666,3.547,2.014,16.546a111.438,111.438,0,0,1,19.18,4.477l5.439,7.986" fill="#E9EBDF"/><path d="M632.272,84.287a1,1,0,0,1-.828-.437l-5.244-7.7a106.679,106.679,0,0,0-18.665-4.334,1,1,0,0,1-.876-.872L604.7,54.819l-4.329-3.292a1,1,0,0,1,.106-1.662l4.846-2.8a1.108,1.108,0,0,1,.139-.067,5.452,5.452,0,0,1,5.372.07l9.122,5.266a29.515,29.515,0,0,1,12.426,14.15L638.041,80.1a1,1,0,0,1-1.847.768l-5.663-13.618a27.506,27.506,0,0,0-11.58-13.185L609.83,48.8a3.432,3.432,0,0,0-3.506.005.912.912,0,0,1-.126.061l-3.424,1.978,3.468,2.636a1,1,0,0,1,.387.675l1.921,15.771a112.883,112.883,0,0,1,18.581,4.419.991.991,0,0,1,.526.391l5.44,7.986a1,1,0,0,1-.825,1.563Z" fill="#fff"/><path d="M601.1,74.605,598.74,55.192a4.517,4.517,0,0,1,6.743-4.457L614.6,56a28.353,28.353,0,0,1,12,13.668l5.663,13.618" fill="#4D9987"/><path d="M632.271,84.287a1,1,0,0,1-.923-.617l-5.664-13.618A27.5,27.5,0,0,0,614.1,56.868L604.982,51.6a3.517,3.517,0,0,0-5.25,3.471L602.1,74.483a1,1,0,1,1-1.985.243l-2.364-19.413a5.518,5.518,0,0,1,8.235-5.445l9.122,5.267a29.5,29.5,0,0,1,12.426,14.15L633.193,82.9a1,1,0,0,1-.922,1.384Z" fill="#fff"/><path d="M589.93,103.128l-32.221,18.6c-2,1.153-1.372,3.1,1.207,3.768l18.2,4.692a13.688,13.688,0,0,0,8.176-.453l22.448-9.086" fill="#E9EBDF"/><path d="M580.523,131.612a14.727,14.727,0,0,1-3.652-.453l-18.2-4.692c-1.775-.457-2.94-1.5-3.116-2.777a2.849,2.849,0,0,1,1.659-2.825l32.222-18.6a1,1,0,0,1,1,1.733l-32.222,18.6c-.458.265-.712.572-.677.822.047.345.578.84,1.633,1.112l18.205,4.692a12.725,12.725,0,0,0,7.551-.412l22.448-9.085a1,1,0,1,1,.75,1.853l-22.448,9.086A13.9,13.9,0,0,1,580.523,131.612Z" fill="#fff"/><path d="M580.523,137.776a14.741,14.741,0,0,1-3.653-.453l-18.2-4.692c-1.863-.479-3.046-1.6-3.127-2.948a.926.926,0,0,1-.012-.149V123.37a1,1,0,0,1,.012-.156,2.943,2.943,0,0,1,1.67-2.349l32.222-18.6a1,1,0,0,1,1,1.733l-32.222,18.6c-.423.244-.675.533-.675.773a.923.923,0,0,1-.007.118v5.93a.888.888,0,0,1,.007.115c0,.3.435.854,1.631,1.162l18.205,4.691a12.7,12.7,0,0,0,7.551-.412l22.448-9.084a1,1,0,1,1,.75,1.853l-22.448,9.085A13.879,13.879,0,0,1,580.523,137.776Z" fill="#0E352C"/><path d="M637.117,81.488a1,1,0,0,1-.924-.616l-5.662-13.618a27.506,27.506,0,0,0-11.58-13.185L609.83,48.8a3.432,3.432,0,0,0-3.506.005.912.912,0,0,1-.126.061l-4.6,2.658a.9.9,0,0,1-.116.078,3.474,3.474,0,0,0-1.748,3.467L602.1,74.484a1,1,0,1,1-1.985.242l-2.363-19.414a5.428,5.428,0,0,1,2.6-5.361.988.988,0,0,1,.125-.086l4.846-2.8a1.108,1.108,0,0,1,.139-.067,5.454,5.454,0,0,1,5.373.07l9.121,5.266a29.515,29.515,0,0,1,12.426,14.15L638.04,80.1a1,1,0,0,1-.923,1.384Z" fill="#0E352C"/><path d="M648.8,460.9v18.554c0,1.356-1.9,2.455-4.255,2.455s-4.254-1.1-4.254-2.455V460.9Z" fill="#C4D7D3"/><path d="M644.548,482.914c-2.946,0-5.254-1.518-5.254-3.456V460.9a1,1,0,0,1,1-1h8.51a1,1,0,0,1,1,1v18.554C649.8,481.4,647.5,482.914,644.548,482.914Zm-3.254-21.01v17.554c0,.579,1.3,1.456,3.254,1.456s3.256-.877,3.256-1.456V461.9Z" fill="#0E352C"/><path d="M648.8,451.152v18.555c0,1.356-1.9,2.456-4.255,2.456s-4.254-1.1-4.254-2.456V451.152Z" fill="#27ae60"/><path d="M644.548,482.914c-2.946,0-5.254-1.518-5.254-3.456V460.9a1,1,0,0,1,1-1h8.51a1,1,0,0,1,1,1v18.554C649.8,481.4,647.5,482.914,644.548,482.914Zm-3.254-21.01v17.554c0,.579,1.3,1.456,3.254,1.456s3.256-.877,3.256-1.456V461.9Z" fill="#185849"/><path d="M628.787,456.154h0l11.957-40.576h0a3.969,3.969,0,0,1,7.614,0h0l11.957,40.576h-.005a5.516,5.516,0,0,1,.232,1.559c0,5.1-7.161,9.234-15.993,9.234s-15.994-4.134-15.994-9.234a5.516,5.516,0,0,1,.232-1.559" fill="#C4D7D3"/><path d="M644.549,467.947c-9.529,0-16.993-4.5-16.993-10.234a6.51,6.51,0,0,1,.243-1.74c.006-.035.015-.069.024-.1L639.779,415.3a.758.758,0,0,1,.028-.08,4.968,4.968,0,0,1,9.483,0,.579.579,0,0,1,.027.08l11.956,40.575a.844.844,0,0,1,.025.1,6.493,6.493,0,0,1,.244,1.74C661.542,463.452,654.078,467.947,644.549,467.947Zm-14.78-11.6a.789.789,0,0,1-.023.093,4.544,4.544,0,0,0-.19,1.277c0,4.463,6.866,8.234,14.993,8.234s14.993-3.771,14.993-8.234a4.531,4.531,0,0,0-.191-1.277c-.01-.031-.017-.062-.024-.094l-11.907-40.41a.573.573,0,0,1-.023-.07,2.969,2.969,0,0,0-5.7,0c-.007.024-.014.047-.023.071Z" fill="#0E352C"/><path d="M660.542,457.714a5.476,5.476,0,0,0-.232-1.56h.005l-11.957-40.575h0c0-.017-.01-.033-.016-.05a1.954,1.954,0,0,0-3.791.674v50.744c8.832,0,15.993-4.134,15.993-9.233" fill="#27ae60"/><path d="M644.549,467.947c-9.529,0-16.993-4.5-16.993-10.234a6.51,6.51,0,0,1,.243-1.74c.006-.035.015-.069.024-.1L639.779,415.3a.758.758,0,0,1,.028-.08,4.968,4.968,0,0,1,9.483,0,.579.579,0,0,1,.027.08l11.956,40.575a.844.844,0,0,1,.025.1,6.493,6.493,0,0,1,.244,1.74C661.542,463.452,654.078,467.947,644.549,467.947Zm-14.78-11.6a.789.789,0,0,1-.023.093,4.544,4.544,0,0,0-.19,1.277c0,4.463,6.866,8.234,14.993,8.234s14.993-3.771,14.993-8.234a4.531,4.531,0,0,0-.191-1.277c-.01-.031-.017-.062-.024-.094l-11.907-40.41a.573.573,0,0,1-.023-.07,2.969,2.969,0,0,0-5.7,0c-.007.024-.014.047-.023.071Z" fill="#185849"/><path d="M685.051,439.976V458.53c0,1.356-1.906,2.456-4.255,2.456s-4.254-1.1-4.254-2.456V439.976Z" fill="#C4D7D3"/><path d="M680.8,461.986c-2.946,0-5.254-1.518-5.254-3.456V439.977a1,1,0,0,1,1-1h8.509a1,1,0,0,1,1,1V458.53C686.051,460.468,683.742,461.986,680.8,461.986Zm-3.254-21.009V458.53c0,.58,1.3,1.456,3.254,1.456s3.255-.876,3.255-1.456V440.977Z" fill="#0E352C"/><path d="M685.051,430.226V448.78c0,1.356-1.906,2.456-4.255,2.456s-4.254-1.1-4.254-2.456V430.226Z" fill="#27ae60"/><path d="M680.8,461.986c-2.946,0-5.254-1.518-5.254-3.456V439.977a1,1,0,0,1,1-1h8.509a1,1,0,0,1,1,1V458.53C686.051,460.468,683.742,461.986,680.8,461.986Zm-3.254-21.009V458.53c0,.58,1.3,1.456,3.254,1.456s3.255-.876,3.255-1.456V440.977Z" fill="#185849"/><path d="M665.034,435.226h0l11.956-40.574h0a3.969,3.969,0,0,1,7.614,0h0l11.957,40.574h0a5.486,5.486,0,0,1,.231,1.56c0,5.1-7.16,9.234-15.992,9.234s-15.993-4.134-15.993-9.234a5.522,5.522,0,0,1,.231-1.56" fill="#C4D7D3"/><path d="M680.8,447.021c-9.529,0-16.993-4.5-16.993-10.235a6.51,6.51,0,0,1,.245-1.75c.006-.031.013-.062.022-.093l11.957-40.574a.67.67,0,0,1,.028-.079,4.968,4.968,0,0,1,9.507.079l11.96,40.574c.009.034.018.068.024.1a6.493,6.493,0,0,1,.242,1.741C697.788,442.525,690.324,447.021,680.8,447.021Zm-14.783-11.6a.754.754,0,0,1-.02.082,4.568,4.568,0,0,0-.19,1.279c0,4.464,6.866,8.235,14.993,8.235s14.992-3.771,14.992-8.235a4.516,4.516,0,0,0-.189-1.277c-.01-.031-.017-.063-.024-.094l-11.929-40.48a2.971,2.971,0,0,0-5.7,0c-.007.024-.014.048-.023.072Z" fill="#0E352C"/><path d="M696.789,436.786a5.515,5.515,0,0,0-.231-1.559h0L684.6,394.652h0l-.015-.049a1.955,1.955,0,0,0-3.792.673v50.745c8.833,0,15.993-4.135,15.993-9.235" fill="#27ae60"/><path d="M680.8,447.021c-9.529,0-16.993-4.5-16.993-10.235a6.51,6.51,0,0,1,.245-1.75c.006-.031.013-.062.022-.093l11.957-40.574a.67.67,0,0,1,.028-.079,4.968,4.968,0,0,1,9.507.079l11.96,40.574c.009.034.018.068.024.1a6.493,6.493,0,0,1,.242,1.741C697.788,442.525,690.324,447.021,680.8,447.021Zm-14.783-11.6a.754.754,0,0,1-.02.082,4.568,4.568,0,0,0-.19,1.279c0,4.464,6.866,8.235,14.993,8.235s14.992-3.771,14.992-8.235a4.516,4.516,0,0,0-.189-1.277c-.01-.031-.017-.063-.024-.094l-11.929-40.48a2.971,2.971,0,0,0-5.7,0c-.007.024-.014.048-.023.072Z" fill="#185849"/><path d="M408.019,556.093v18.553c0,1.356-1.905,2.457-4.255,2.457s-4.255-1.1-4.255-2.457V556.093Z" fill="#C4D7D3"/><path d="M403.764,578.1c-2.947,0-5.254-1.518-5.254-3.457V556.093a1,1,0,0,1,1-1h8.509a1,1,0,0,1,1,1v18.553C409.019,576.585,406.71,578.1,403.764,578.1Zm-3.254-21.01v17.553c0,.581,1.3,1.457,3.254,1.457s3.255-.876,3.255-1.457V557.093Z" fill="#0E352C"/><path d="M408.019,546.342V564.9c0,1.356-1.905,2.456-4.255,2.456s-4.255-1.1-4.255-2.456V546.342Z" fill="#27ae60"/><path d="M403.764,578.1c-2.947,0-5.254-1.518-5.254-3.457V556.093a1,1,0,0,1,1-1h8.509a1,1,0,0,1,1,1v18.553C409.019,576.585,406.71,578.1,403.764,578.1Zm-3.254-21.01v17.553c0,.581,1.3,1.457,3.254,1.457s3.255-.876,3.255-1.457V557.093Z" fill="#185849"/><path d="M388,551.343h0l11.957-40.575h0a3.969,3.969,0,0,1,7.614,0h0l11.956,40.575h0a5.48,5.48,0,0,1,.232,1.559c0,5.1-7.16,9.235-15.993,9.235S387.772,558,387.772,552.9a5.479,5.479,0,0,1,.231-1.559" fill="#C4D7D3"/><path d="M403.764,563.137c-9.529,0-16.992-4.5-16.992-10.235a6.5,6.5,0,0,1,.243-1.74.872.872,0,0,1,.024-.1L399,510.485a4.97,4.97,0,0,1,9.51-.079.735.735,0,0,1,.027.079l11.956,40.576a.876.876,0,0,1,.025.1,6.5,6.5,0,0,1,.243,1.74C420.757,558.641,413.293,563.137,403.764,563.137Zm-14.78-11.6a.627.627,0,0,1-.022.093,4.532,4.532,0,0,0-.19,1.276c0,4.464,6.865,8.235,14.992,8.235s14.993-3.771,14.993-8.235a4.534,4.534,0,0,0-.191-1.276c-.009-.031-.016-.063-.023-.094l-11.907-40.41c-.009-.023-.017-.047-.024-.071a2.969,2.969,0,0,0-5.7,0Z" fill="#0E352C"/><path d="M419.757,552.9a5.468,5.468,0,0,0-.232-1.558h0l-11.957-40.576h0l-.014-.049a1.955,1.955,0,0,0-3.793.674v50.744c8.833,0,15.993-4.135,15.993-9.235" fill="#27ae60"/><path d="M403.764,563.137c-9.529,0-16.992-4.5-16.992-10.235a6.5,6.5,0,0,1,.243-1.74.872.872,0,0,1,.024-.1L399,510.485a4.97,4.97,0,0,1,9.51-.079.735.735,0,0,1,.027.079l11.956,40.576a.876.876,0,0,1,.025.1,6.5,6.5,0,0,1,.243,1.74C420.757,558.641,413.293,563.137,403.764,563.137Zm-14.78-11.6a.627.627,0,0,1-.022.093,4.532,4.532,0,0,0-.19,1.276c0,4.464,6.865,8.235,14.992,8.235s14.993-3.771,14.993-8.235a4.534,4.534,0,0,0-.191-1.276c-.009-.031-.016-.063-.023-.094l-11.907-40.41c-.009-.023-.017-.047-.024-.071a2.969,2.969,0,0,0-5.7,0Z" fill="#185849"/><path d="M444.266,577.02v18.554c0,1.356-1.905,2.456-4.255,2.456s-4.254-1.1-4.254-2.456V577.02Z" fill="#C4D7D3"/><path d="M440.011,599.03c-2.947,0-5.254-1.518-5.254-3.456V577.02a1,1,0,0,1,1-1h8.51a1,1,0,0,1,1,1v18.554C445.267,597.512,442.958,599.03,440.011,599.03Zm-3.254-21.01v17.554c0,.579,1.3,1.456,3.254,1.456s3.256-.877,3.256-1.456V578.02Z" fill="#0E352C"/><path d="M444.266,567.269v18.554c0,1.356-1.905,2.456-4.255,2.456s-4.254-1.1-4.254-2.456V567.269Z" fill="#27ae60"/><path d="M440.011,599.03c-2.947,0-5.254-1.518-5.254-3.456V577.02a1,1,0,0,1,1-1h8.51a1,1,0,0,1,1,1v18.554C445.267,597.512,442.958,599.03,440.011,599.03Zm-3.254-21.01v17.554c0,.579,1.3,1.456,3.254,1.456s3.256-.877,3.256-1.456V578.02Z" fill="#185849"/><path d="M424.25,572.27h0L436.2,531.7h0a3.968,3.968,0,0,1,7.614,0h0l11.957,40.574h0a5.516,5.516,0,0,1,.232,1.559c0,5.1-7.161,9.235-15.994,9.235s-15.993-4.135-15.993-9.235a5.516,5.516,0,0,1,.232-1.559" fill="#C4D7D3"/><path d="M440.012,584.064c-9.53,0-16.993-4.5-16.993-10.234a6.511,6.511,0,0,1,.243-1.741.941.941,0,0,1,.024-.1l11.956-40.574a.686.686,0,0,1,.028-.08,4.968,4.968,0,0,1,9.483,0,.752.752,0,0,1,.027.08l11.956,40.574a.947.947,0,0,1,.025.1,6.5,6.5,0,0,1,.244,1.741C457.005,579.568,449.541,584.064,440.012,584.064Zm-14.781-11.605a.627.627,0,0,1-.022.093,4.551,4.551,0,0,0-.19,1.278c0,4.463,6.866,8.234,14.993,8.234s14.993-3.771,14.993-8.234a4.574,4.574,0,0,0-.191-1.278c-.01-.031-.017-.062-.024-.094l-11.907-40.409c-.009-.023-.017-.047-.024-.07a2.969,2.969,0,0,0-5.7,0c-.007.023-.015.047-.023.07Z" fill="#0E352C"/><path d="M456.005,573.83a5.517,5.517,0,0,0-.232-1.56h0L443.82,531.7h0c0-.018-.011-.034-.016-.05a1.954,1.954,0,0,0-3.791.674v50.745c8.832,0,15.993-4.135,15.993-9.235" fill="#27ae60"/><path d="M440.012,584.064c-9.53,0-16.993-4.5-16.993-10.234a6.511,6.511,0,0,1,.243-1.741.941.941,0,0,1,.024-.1l11.956-40.574a.686.686,0,0,1,.028-.08,4.968,4.968,0,0,1,9.483,0,.752.752,0,0,1,.027.08l11.956,40.574a.947.947,0,0,1,.025.1,6.5,6.5,0,0,1,.244,1.741C457.005,579.568,449.541,584.064,440.012,584.064Zm-14.781-11.605a.627.627,0,0,1-.022.093,4.551,4.551,0,0,0-.19,1.278c0,4.463,6.866,8.234,14.993,8.234s14.993-3.771,14.993-8.234a4.574,4.574,0,0,0-.191-1.278c-.01-.031-.017-.062-.024-.094l-11.907-40.409c-.009-.023-.017-.047-.024-.07a2.969,2.969,0,0,0-5.7,0c-.007.023-.015.047-.023.07Z" fill="#185849"/><path d="M480.513,556.093v18.553c0,1.356-1.9,2.457-4.256,2.457S472,576,472,574.646V556.093Z" fill="#C4D7D3"/><path d="M476.258,578.1c-2.946,0-5.255-1.518-5.255-3.457V556.093a1,1,0,0,1,1-1h8.51a1,1,0,0,1,1,1v18.553C481.513,576.585,479.2,578.1,476.258,578.1ZM473,557.093v17.553c0,.581,1.3,1.457,3.255,1.457s3.255-.876,3.255-1.457V557.093Z" fill="#0E352C"/><path d="M480.513,546.342V564.9c0,1.356-1.9,2.456-4.256,2.456S472,566.252,472,564.9V546.342Z" fill="#27ae60"/><path d="M476.258,578.1c-2.946,0-5.255-1.518-5.255-3.457V556.093a1,1,0,0,1,1-1h8.51a1,1,0,0,1,1,1v18.553C481.513,576.585,479.2,578.1,476.258,578.1ZM473,557.093v17.553c0,.581,1.3,1.457,3.255,1.457s3.255-.876,3.255-1.457V557.093Z" fill="#185849"/><path d="M460.5,551.343h0l11.957-40.575h0a3.969,3.969,0,0,1,7.614,0h0l11.956,40.575h0a5.48,5.48,0,0,1,.232,1.559c0,5.1-7.16,9.235-15.993,9.235S460.265,558,460.265,552.9a5.515,5.515,0,0,1,.231-1.559" fill="#C4D7D3"/><path d="M476.258,563.137c-9.529,0-16.993-4.5-16.993-10.235a6.5,6.5,0,0,1,.243-1.74.872.872,0,0,1,.024-.1l11.958-40.576a4.97,4.97,0,0,1,9.51-.079.73.73,0,0,1,.026.079l11.957,40.576a.876.876,0,0,1,.025.1,6.5,6.5,0,0,1,.243,1.74C493.251,558.641,485.787,563.137,476.258,563.137Zm-14.78-11.6a.789.789,0,0,1-.023.093,4.532,4.532,0,0,0-.19,1.276c0,4.464,6.866,8.235,14.993,8.235s14.993-3.771,14.993-8.235a4.532,4.532,0,0,0-.19-1.276c-.01-.031-.017-.063-.024-.094l-11.908-40.41q-.014-.035-.024-.072a2.969,2.969,0,0,0-5.695,0Z" fill="#0E352C"/><path d="M492.251,552.9a5.48,5.48,0,0,0-.232-1.559h0l-11.957-40.575h0l-.015-.049a1.955,1.955,0,0,0-3.792.674v50.744c8.833,0,15.993-4.135,15.993-9.235" fill="#27ae60"/><path d="M476.258,563.137c-9.529,0-16.993-4.5-16.993-10.235a6.5,6.5,0,0,1,.243-1.74.872.872,0,0,1,.024-.1l11.958-40.576a4.97,4.97,0,0,1,9.51-.079.73.73,0,0,1,.026.079l11.957,40.576a.876.876,0,0,1,.025.1,6.5,6.5,0,0,1,.243,1.74C493.251,558.641,485.787,563.137,476.258,563.137Zm-14.78-11.6a.789.789,0,0,1-.023.093,4.532,4.532,0,0,0-.19,1.276c0,4.464,6.866,8.235,14.993,8.235s14.993-3.771,14.993-8.235a4.532,4.532,0,0,0-.19-1.276c-.01-.031-.017-.063-.024-.094l-11.908-40.41q-.014-.035-.024-.072a2.969,2.969,0,0,0-5.695,0Z" fill="#185849"/><path d="M328.37,192.935a1,1,0,0,1-1-1V181.509l-13.1-7.56a1,1,0,0,1-.3-1.46l13.594-18.42a1,1,0,0,1,1.805.594v25.692l6.069,3.5a1,1,0,1,1-1,1.732l-5.069-2.927v9.271A1,1,0,0,1,328.37,192.935Zm-12.126-20.159L327.37,179.2V157.7Z" fill="#185849"/><path d="M441.7,281.769a8.008,8.008,0,0,1-3.972-1.183c-5.089-2.937-9.23-10.807-9.23-17.544v-9.775c0-3.747,1.282-6.636,3.518-7.927,1.907-1.1,4.291-.936,6.712.461,5.089,2.938,9.229,10.808,9.229,17.545v9.776c0,3.746-1.281,6.635-3.516,7.925A5.413,5.413,0,0,1,441.7,281.769Zm-6.94-35.145a3.445,3.445,0,0,0-1.744.448c-1.6.924-2.518,3.182-2.518,6.195v9.775c0,6.1,3.692,13.193,8.23,15.812,1.776,1.026,3.452,1.189,4.713.461,1.6-.923,2.516-3.181,2.516-6.193v-9.776c0-6.1-3.691-13.194-8.229-15.813A6.039,6.039,0,0,0,434.756,246.624Z" fill="#185849"/><path d="M546.132,512.044a.99.99,0,0,1-.5-.134l-15.52-8.96a1,1,0,0,1-.5-.866V481.393a1,1,0,0,1,.5-.867l15.52-8.96a1,1,0,0,1,1,0l15.518,8.96a1,1,0,0,1,.5.867v20.691a1,1,0,0,1-.5.866l-15.518,8.96A.99.99,0,0,1,546.132,512.044Zm-14.52-10.537,14.52,8.382,14.518-8.382V481.97l-14.518-8.383-14.52,8.383Z" fill="#0E352C"/><rect width="900" height="600" fill="none"/></svg>