<svg xmlns="http://www.w3.org/2000/svg" width="900" height="600" viewBox="0 0 900 600"><path d="M318.173,412.457l-8.908-1.236L251.03,377.6a13.17,13.17,0,0,0-11.917,0l-14.045,8.109-10.048,5.8-1.773,1.023-4.691-1.153v6.877c0,1.245.822,2.49,2.468,3.44l65.034,37.548a13.17,13.17,0,0,0,11.917,0l27.3-15.762a5.116,5.116,0,0,0,2.895-4.15h0Z" fill="#E9EBDF"/><path d="M282.017,441.679a13.147,13.147,0,0,1-6.459-1.569l-65.035-37.547c-1.914-1.1-2.967-2.634-2.967-4.306V391.38a1,1,0,0,1,1.238-.971l4.3,1.057,25.517-14.733a14.092,14.092,0,0,1,12.917,0L309.6,410.258l8.715,1.208a1,1,0,0,1,.862.99v6.878a.831.831,0,0,1,0,.087,6.11,6.11,0,0,1-3.4,4.928l-27.3,15.761A13.16,13.16,0,0,1,282.017,441.679Zm-72.461-49.024v5.6a3.262,3.262,0,0,0,1.967,2.574l65.035,37.547a12.266,12.266,0,0,0,10.918,0l27.3-15.762a4.194,4.194,0,0,0,2.4-3.282c0-.026,0-.052,0-.077v-5.93l-8.046-1.115a1.011,1.011,0,0,1-.362-.124L250.53,378.466a12.257,12.257,0,0,0-10.917,0L213.747,393.4a1,1,0,0,1-.738.105Z" fill="#0E352C"/><path d="M281.422,395.146,251.03,377.6a13.17,13.17,0,0,0-11.917,0l-14.045,8.109-10.048,5.8-1.773,1.023-4.691-1.153v6.877c0,1.245.822,2.49,2.468,3.44l65.034,37.548a11.879,11.879,0,0,0,5.364,1.408Z" fill="#fff"/><path d="M282.017,441.679a13.147,13.147,0,0,1-6.459-1.569l-65.035-37.547c-1.914-1.1-2.967-2.634-2.967-4.306V391.38a1,1,0,0,1,1.238-.971l4.3,1.057,25.517-14.733a14.092,14.092,0,0,1,12.917,0L309.6,410.258l8.715,1.208a1,1,0,0,1,.862.99v6.878a.831.831,0,0,1,0,.087,6.11,6.11,0,0,1-3.4,4.928l-27.3,15.761A13.16,13.16,0,0,1,282.017,441.679Zm-72.461-49.024v5.6a3.262,3.262,0,0,0,1.967,2.574l65.035,37.547a12.266,12.266,0,0,0,10.918,0l27.3-15.762a4.194,4.194,0,0,0,2.4-3.282c0-.026,0-.052,0-.077v-5.93l-8.046-1.115a1.011,1.011,0,0,1-.362-.124L250.53,378.466a12.257,12.257,0,0,0-10.917,0L213.747,393.4a1,1,0,0,1-.738.105Z" fill="#0E352C"/><path d="M318.129,411.925a3.867,3.867,0,0,0-2.065-2.655L251.03,371.722a13.17,13.17,0,0,0-11.917,0l-14.045,8.109-10.048,5.8-4,2.307c-3.291,1.9-3.291,4.981,0,6.881l65.034,37.547a12.179,12.179,0,0,0,5.959,1.425,14.354,14.354,0,0,0,1.609-.089,12.4,12.4,0,0,0,3.027-.712,9.077,9.077,0,0,0,1.322-.624l27.3-15.761a5.4,5.4,0,0,0,2.862-3.668A3.276,3.276,0,0,0,318.129,411.925Z" fill="#fff"/><path d="M316.064,409.27l-52.7-30.427v46.2l12.693,7.328a12.179,12.179,0,0,0,5.959,1.425,14.354,14.354,0,0,0,1.609-.089,12.4,12.4,0,0,0,3.027-.712,9.077,9.077,0,0,0,1.322-.624l27.3-15.761a5.4,5.4,0,0,0,2.862-3.668,3.276,3.276,0,0,0-.009-1.013A3.867,3.867,0,0,0,316.064,409.27Z" fill="#fff"/><path d="M282.017,434.792a13.122,13.122,0,0,1-6.459-1.559l-65.035-37.546c-1.914-1.106-2.967-2.635-2.967-4.307s1.054-3.2,2.968-4.307l28.089-16.217a14.1,14.1,0,0,1,12.917,0L316.564,408.4a4.784,4.784,0,0,1,2.55,3.354h0a4.263,4.263,0,0,1,.012,1.325,6.358,6.358,0,0,1-3.352,4.39l-27.3,15.761a10.374,10.374,0,0,1-1.466.693,13.388,13.388,0,0,1-3.274.771A15.474,15.474,0,0,1,282.017,434.792Zm-36.946-63.484a11.2,11.2,0,0,0-5.458,1.281l-28.089,16.217a2.667,2.667,0,0,0,0,5.148L276.558,431.5a11.1,11.1,0,0,0,5.459,1.291,13.246,13.246,0,0,0,1.5-.083,11.358,11.358,0,0,0,2.783-.652,8.216,8.216,0,0,0,1.178-.556l27.3-15.762a4.474,4.474,0,0,0,2.373-2.944,2.23,2.23,0,0,0,0-.7h0a2.916,2.916,0,0,0-1.579-1.957L250.53,372.589A11.2,11.2,0,0,0,245.071,371.308Z" fill="#4D9987"/><ellipse cx="244.989" cy="376.778" rx="2.94" ry="1.698" fill="#4D9987"/><path d="M291.834,421.6a7.421,7.421,0,0,1-3.648-.887,2.9,2.9,0,0,1,0-5.368,7.951,7.951,0,0,1,7.3,0h0a2.9,2.9,0,0,1,0,5.368A7.428,7.428,0,0,1,291.834,421.6Zm0-5.145a5.428,5.428,0,0,0-2.648.622c-.5.291-.805.647-.805.951s.3.661.805.952a5.939,5.939,0,0,0,5.3,0c.5-.29.8-.646.8-.952s-.3-.661-.8-.951A5.432,5.432,0,0,0,291.834,416.454Z" fill="#4D9987"/><path d="M281.419,441.653h-.041c-.109,0-.217-.015-.325-.027l-.162-.016c-.29-.021-.576-.043-.859-.079-.241-.031-.477-.075-.715-.12l-.246-.046c-.207-.037-.412-.075-.612-.125-.278-.067-.542-.153-.807-.241l-.274-.087c-.144-.043-.286-.087-.423-.14a10.008,10.008,0,0,1-1.4-.661l-65.035-37.547c-1.914-1.1-2.967-2.634-2.967-4.306V391.38c0-1.671,1.053-3.2,2.967-4.307l28.09-16.217a14.1,14.1,0,0,1,12.917,0L316.564,408.4a4.787,4.787,0,0,1,2.551,3.354,4.376,4.376,0,0,1,.055.612.831.831,0,0,1,0,.087v6.878q0,.036,0,.072a6.106,6.106,0,0,1-3.4,4.943l-27.3,15.761a13.323,13.323,0,0,1-6.913,1.533A1.148,1.148,0,0,1,281.419,441.653Zm.006-2.016h.038a11.427,11.427,0,0,0,6.013-1.26l27.3-15.762a4.2,4.2,0,0,0,2.4-3.283c0-.021,0-.042,0-.062v-6.738c0-.025,0-.051,0-.077a2.26,2.26,0,0,0-.028-.367,2.918,2.918,0,0,0-1.579-1.953L250.53,372.589a12.264,12.264,0,0,0-10.917,0l-28.09,16.217c-1.268.733-1.967,1.647-1.967,2.574v6.877a3.262,3.262,0,0,0,1.967,2.574l65.035,37.547a8.257,8.257,0,0,0,1.121.528c.092.035.184.063.277.091l.322.1c.216.071.431.143.658.2.161.039.326.068.491.1l.17.031c.292.055.488.094.689.119.248.032.5.05.746.068l.238.023.052.006A.889.889,0,0,1,281.425,439.637Z" fill="#0E352C"/><path d="M533.608,225.15,373.654,132.8a4.765,4.765,0,0,0-3.463-.618l0-.007-9.241,2.1,4.387,7.374-29.682,120.88L490.4,351.871l6.737,11.325,7.161-1.627a3.455,3.455,0,0,0,2.589-2.545l30.565-124.478A8.952,8.952,0,0,0,533.608,225.15Z" fill="#C4D7D3"/><path d="M537.516,231.215l-113.965,25.9s-4.016,30.094-8.816,51.075L490.4,351.871l6.737,11.325,7.161-1.627a3.455,3.455,0,0,0,2.589-2.545l30.565-124.478A8.237,8.237,0,0,0,537.516,231.215Z" fill="#27ae60"/><path d="M475.5,360.031,326.41,273.956,237.6,325.23l-10.834-1.585v9.326a3.09,3.09,0,0,0,1.821,2.539L390.518,429a9.754,9.754,0,0,0,8.793,0l95.519-55.148a4.606,4.606,0,0,0,2.3-3.989V363.2Z" fill="#C4D7D3"/><path d="M394.915,431.056a9.966,9.966,0,0,1-4.9-1.19l-161.931-93.49a4.032,4.032,0,0,1-2.32-3.4v-9.327a1,1,0,0,1,.345-.757,1.012,1.012,0,0,1,.8-.233l10.489,1.534,88.509-51.1a1,1,0,0,1,1,0l148.921,85.98,21.446,3.138a1,1,0,0,1,.856.989v6.667a5.625,5.625,0,0,1-2.8,4.856l-95.518,55.147A9.973,9.973,0,0,1,394.915,431.056ZM227.768,324.8v8.17c0,.578.481,1.187,1.32,1.672l161.931,93.49a8.754,8.754,0,0,0,7.793,0l95.518-55.148a3.617,3.617,0,0,0,1.8-3.123v-5.8l-20.78-3.04A1,1,0,0,1,475,360.9L326.41,275.109,238.1,326.1a1,1,0,0,1-.645.123Z" fill="#27ae60"/><polygon points="325.408 382.082 325.408 385.582 293.699 367.275 293.699 363.775 325.408 382.082" fill="#C4D7D3"/><path d="M325.408,386.582a1,1,0,0,1-.5-.134L293.2,368.142a1,1,0,0,1-.5-.867v-3.5a1,1,0,0,1,1.5-.866l31.709,18.308a1,1,0,0,1,.5.866v3.5a1,1,0,0,1-1,1ZM294.7,366.7l29.709,17.152v-1.191L294.7,365.507Z" fill="#C4D7D3"/><path d="M395.531,313.862V430.017a8.663,8.663,0,0,0,3.78-1.017l95.519-55.148a4.606,4.606,0,0,0,2.3-3.989V363.2L475.5,360.031Z" fill="#C4D7D3"/><path d="M497.133,363.2l-97.822,56.478a9.723,9.723,0,0,1-8.793,0l-161.93-93.491c-2.428-1.4-2.428-3.675,0-5.076l97.822-56.478Z" fill="#fff"/><path d="M394.915,421.729a9.976,9.976,0,0,1-4.9-1.189L228.088,327.05a3.659,3.659,0,0,1,0-6.81l97.822-56.477a1,1,0,0,1,1,0L497.633,362.33a1,1,0,0,1,0,1.732L399.812,420.54A9.983,9.983,0,0,1,394.915,421.729Zm-68.5-155.946-97.322,56.19c-.839.484-1.32,1.094-1.32,1.673s.481,1.187,1.32,1.671l161.931,93.491a8.767,8.767,0,0,0,7.793,0L495.133,363.2Z" fill="#27ae60"/><path d="M410.951,393.213,274.419,314.387c-2.1-1.211-2.1-3.175,0-4.386L323.5,281.666a8.4,8.4,0,0,1,7.6,0l136.532,78.826c2.1,1.211,2.1,3.175,0,4.386l-49.078,28.335A8.4,8.4,0,0,1,410.951,393.213Z" fill="#fff"/><path d="M414.749,395.122a8.759,8.759,0,0,1-4.3-1.043h0L273.919,315.253a3.293,3.293,0,0,1,0-6.118L323,280.8a9.372,9.372,0,0,1,8.6,0l136.532,78.826a3.293,3.293,0,0,1,0,6.118l-49.078,28.335A8.759,8.759,0,0,1,414.749,395.122Zm-3.3-2.775a7.407,7.407,0,0,0,6.6,0l49.078-28.335c.682-.394,1.073-.877,1.073-1.327s-.391-.933-1.073-1.327L330.593,282.532a7.407,7.407,0,0,0-6.6,0l-49.078,28.335c-.682.394-1.073.877-1.073,1.327s.391.933,1.073,1.327Z" fill="#27ae60"/><path d="M326.41,264.629l31.074-126.55c.853-3.472,3.955-4.9,6.929-3.179l159.954,92.35a8.954,8.954,0,0,1,3.84,9.4L497.133,363.2Z" fill="#C4D7D3"/><path d="M497.133,364.2a1,1,0,0,1-.5-.134L325.91,265.5a1,1,0,0,1-.471-1.1l31.075-126.55a6.036,6.036,0,0,1,3.346-4.261,5.568,5.568,0,0,1,5.053.454l159.953,92.35a9.885,9.885,0,0,1,4.312,10.5L498.1,363.435a1,1,0,0,1-.579.681A.993.993,0,0,1,497.133,364.2ZM327.561,264.139,496.48,361.664l30.756-125.256a7.906,7.906,0,0,0-3.37-8.292L363.913,135.767a3.629,3.629,0,0,0-3.267-.348,4.022,4.022,0,0,0-2.191,2.9Z" fill="#fff"/><path d="M497.133,364.2a1,1,0,0,1-.5-.134L325.91,265.5a1,1,0,0,1-.471-1.1l31.075-126.55a5.834,5.834,0,0,1,4.074-4.5,1.036,1.036,0,0,1,.137-.042l9.241-2.1a1.062,1.062,0,0,1,.136-.02,5.773,5.773,0,0,1,4.052.755l159.953,92.349a9.887,9.887,0,0,1,4.312,10.5L507.854,359.263a4.433,4.433,0,0,1-3.338,3.282l-7.161,1.627A1.048,1.048,0,0,1,497.133,364.2ZM327.561,264.139l169.732,98,6.779-1.541a2.442,2.442,0,0,0,1.84-1.808l30.566-124.477a7.906,7.906,0,0,0-3.371-8.293h0l-159.953-92.35a3.789,3.789,0,0,0-2.742-.509,1,1,0,0,1-.12.02l-9,2.044a1.191,1.191,0,0,1-.124.037,3.815,3.815,0,0,0-2.716,3.059Z" fill="#185849"/><path d="M394.915,431.056a9.966,9.966,0,0,1-4.9-1.19l-161.931-93.49a4.032,4.032,0,0,1-2.32-3.4v-9.327a4.032,4.032,0,0,1,2.32-3.4l97.822-56.477a1,1,0,0,1,1,0L497.633,362.33a1,1,0,0,1,.5.866v6.667a5.625,5.625,0,0,1-2.8,4.856l-95.518,55.147A9.973,9.973,0,0,1,394.915,431.056Zm-68.5-165.273-97.322,56.19c-.839.484-1.32,1.093-1.32,1.672v9.327c0,.578.481,1.187,1.32,1.672l161.931,93.49a8.754,8.754,0,0,0,7.793,0l95.518-55.148a3.617,3.617,0,0,0,1.8-3.123v-6.09Z" fill="#185849"/><path d="M334.356,261.239l29.188-118.863,157.368,90.857A2.346,2.346,0,0,1,521.5,235l-28.88,117.611Z" fill="#fff"/><path d="M334.356,261.239l29.188-118.863,157.368,90.857A2.346,2.346,0,0,1,521.5,235l-28.88,117.611Z" fill="#fff"/><path d="M520.912,233.233,368.789,145.405l117.532,203.57,6.3,3.636L521.5,235A2.342,2.342,0,0,0,520.912,233.233Z" fill="#C4D7D3"/><path d="M492.618,353.611a1.009,1.009,0,0,1-.5-.133L333.856,262.105a1,1,0,0,1-.47-1.1l29.187-118.863a1,1,0,0,1,1.471-.628l157.368,90.857a1,1,0,0,1,.1.07,3.271,3.271,0,0,1,.954,2.8L493.589,352.85a1,1,0,0,1-.971.761ZM335.507,260.749l156.458,90.33,28.562-116.317a1.852,1.852,0,0,0-.242-.736L364.2,143.908Z" fill="#27ae60"/><path d="M354.432,369.787,315,347.018a10.124,10.124,0,0,0-9.162,0L285.254,358.9l48.6,28.059,20.579-11.882C356.962,373.616,356.962,371.247,354.432,369.787Z" fill="#fff"/><path d="M333.853,387.958a1,1,0,0,1-.5-.134l-48.6-28.058a1,1,0,0,1,0-1.733l20.579-11.882a11.086,11.086,0,0,1,10.162,0l39.438,22.77a3.77,3.77,0,0,1,0,7.021l-20.58,11.882A1,1,0,0,1,333.853,387.958Zm-46.6-29.059,46.6,26.9,20.08-11.594c.887-.513,1.4-1.161,1.4-1.779s-.509-1.265-1.4-1.778h0L314.5,347.884a9.167,9.167,0,0,0-8.162,0Z" fill="#27ae60"/><path d="M195.236,316.253l-52.831-30.5c-3.518-2.032-6.371-7.482-6.371-12.173h0c0-4.692,2.853-6.848,6.371-4.817l52.831,30.5Z" fill="#fff"/><path d="M195.235,317.253a1,1,0,0,1-.5-.134l-52.83-30.5c-3.853-2.224-6.871-7.952-6.871-13.039,0-2.834.985-5.027,2.7-6.018a5.048,5.048,0,0,1,5.168.335l52.83,30.5a1,1,0,0,1,.5.867v16.989a1,1,0,0,1-1,1ZM139.878,269a2.25,2.25,0,0,0-1.141.3c-1.082.625-1.7,2.187-1.7,4.287,0,4.292,2.689,9.47,5.871,11.307l51.33,29.635v-14.68l-52.33-30.212A4.221,4.221,0,0,0,139.878,269Z" fill="#4D9987"/><polygon points="195.236 299.264 281.557 249.426 281.557 266.416 195.236 316.253 195.236 299.264" fill="#fff"/><path d="M195.235,317.253a1,1,0,0,1-1-1V299.264a1,1,0,0,1,.5-.867l86.322-49.836a1,1,0,0,1,1.5.866v16.989a1,1,0,0,1-.5.866l-86.322,49.837A1,1,0,0,1,195.235,317.253Zm1-17.412v14.68l84.322-48.682v-14.68Z" fill="#4D9987"/><path d="M142.405,268.762l52.831,30.5,86.321-49.838-52.83-30.5a4.071,4.071,0,0,0-4.163-.331l-.006,0-86.321,49.837.006.006A4.071,4.071,0,0,1,142.405,268.762Z" fill="#E9EBDF"/><path d="M195.235,300.264a1,1,0,0,1-.5-.134l-52.83-30.5h0a3.2,3.2,0,0,0-3.163-.33,1,1,0,0,1-1-1.738l86.321-49.838a.918.918,0,0,1,.134-.065,5.087,5.087,0,0,1,5.035.4l52.83,30.5a1,1,0,0,1,0,1.732L195.735,300.13A1,1,0,0,1,195.235,300.264ZM142.905,267.9l52.33,30.213,84.322-48.682-51.33-29.636a3.205,3.205,0,0,0-3.164-.33,1.046,1.046,0,0,1-.116.058l-82.988,47.914a7.627,7.627,0,0,1,.946.463Z" fill="#0E352C"/><path d="M241.23,253.881a5.837,5.837,0,0,1-2.86-.693l-19.579-11.3a2.42,2.42,0,0,1,0-4.457l5.219-3.013a6.234,6.234,0,0,1,5.719,0l19.579,11.3a2.42,2.42,0,0,1,0,4.457h0l-5.219,3.013A5.831,5.831,0,0,1,241.23,253.881Zm-14.361-18.164a3.838,3.838,0,0,0-1.859.429l-5.219,3.013c-.377.218-.477.42-.477.5s.1.279.477.5l19.579,11.3a4.248,4.248,0,0,0,3.719,0l5.219-3.013c.377-.217.477-.42.477-.5s-.1-.278-.477-.5l-19.579-11.3A3.839,3.839,0,0,0,226.869,235.717Z" fill="#4D9987"/><path d="M226.616,254.409a.992.992,0,0,1-.5-.134l-9.212-5.316a1,1,0,0,1,1-1.732l9.212,5.316a1,1,0,0,1-.5,1.866Z" fill="#fff"/><path d="M193.73,284.034a1,1,0,0,1-.5-.134L165.6,267.944a1,1,0,0,1,1-1.732l27.635,15.956a1,1,0,0,1-.5,1.866Z" fill="#fff"/><path d="M195.235,317.253a1,1,0,0,1-.5-.134l-52.83-30.5c-3.853-2.224-6.871-7.952-6.871-13.039,0-2.763.942-4.917,2.589-5.941a.876.876,0,0,1,.114-.077l86.321-49.838a.918.918,0,0,1,.134-.065,5.087,5.087,0,0,1,5.035.4l52.83,30.5a1,1,0,0,1,.5.866v16.989a1,1,0,0,1-.5.866l-86.322,49.837A1,1,0,0,1,195.235,317.253Zm-56.391-48.022a1.178,1.178,0,0,1-.1.067c-1.086.626-1.709,2.186-1.709,4.281,0,4.292,2.689,9.47,5.871,11.307l52.33,30.213,85.322-49.26V250l-52.33-30.213h0a3.205,3.205,0,0,0-3.164-.33,1.046,1.046,0,0,1-.116.058Z" fill="#0E352C"/><polygon points="290.21 222.854 253.69 201.769 288.281 181.798 324.801 202.883 290.21 222.854" fill="#fff"/><path d="M290.21,223.854a1,1,0,0,1-.5-.134l-36.52-21.084a1,1,0,0,1,0-1.733l34.591-19.971a1,1,0,0,1,1,0l36.52,21.085a1,1,0,0,1,0,1.732L290.71,223.72A1,1,0,0,1,290.21,223.854ZM255.69,201.77,290.21,221.7,322.8,202.883l-34.52-19.931Z" fill="#4D9987"/><polygon points="324.801 202.883 324.801 213.517 290.21 233.488 290.21 222.854 324.801 202.883" fill="#E9EBDF"/><path d="M290.21,234.488a1,1,0,0,1-1-1V222.854a1,1,0,0,1,.5-.867l34.591-19.97a1,1,0,0,1,1.5.866v10.634a1,1,0,0,1-.5.866L290.71,234.354A1,1,0,0,1,290.21,234.488Zm1-11.057v8.325L323.8,212.939v-8.324Z" fill="#4D9987"/><polygon points="253.69 201.769 253.69 212.404 290.21 233.488 290.21 222.854 253.69 201.769" fill="#E9EBDF"/><path d="M290.21,234.488a1,1,0,0,1-.5-.134L253.19,213.27a1,1,0,0,1-.5-.867V201.77a1,1,0,0,1,1.5-.867l36.52,21.084a1,1,0,0,1,.5.867v10.634a1,1,0,0,1-1,1Zm-35.52-22.662,34.52,19.93v-8.325L254.69,203.5Z" fill="#4D9987"/><path d="M290.21,234.488a1,1,0,0,1-.5-.134L253.19,213.27a1,1,0,0,1-.5-.867V201.77a1,1,0,0,1,.5-.867l34.591-19.971a1,1,0,0,1,1,0l36.52,21.085a1,1,0,0,1,.5.866v10.634a1,1,0,0,1-.5.866L290.71,234.354A1,1,0,0,1,290.21,234.488Zm-35.52-22.662,35.52,20.508,33.591-19.4V203.46l-35.52-20.508-33.591,19.4Z" fill="#0E352C"/><path d="M302.373,189.934a27.742,27.742,0,0,0,18.475,3.144l-34.592,19.971a27.744,27.744,0,0,1-18.475-3.144l-3.232-1.867-10.859-6.269L288.281,181.8l9.726,5.615Z" fill="#fff"/><path d="M281.547,214.491a29.164,29.164,0,0,1-14.266-3.72l-14.091-8.135a1,1,0,0,1,0-1.733l34.591-19.971a1,1,0,0,1,1,0l14.092,8.135h0a26.783,26.783,0,0,0,17.782,3.03,1,1,0,0,1,.693,1.847l-34.591,19.972a1,1,0,0,1-.308.115A25.483,25.483,0,0,1,281.547,214.491ZM255.69,201.77l12.591,7.269A26.822,26.822,0,0,0,285.9,212.1l30.45-17.58h-.216a29.164,29.164,0,0,1-14.263-3.72l-13.592-7.848Z" fill="#0E352C"/><polygon points="295.557 185.998 288.281 181.798 253.69 201.769 260.966 205.97 295.557 185.998" fill="#fff"/><path d="M281.547,214.491a29.164,29.164,0,0,1-14.266-3.72l-14.091-8.135a1,1,0,0,1,0-1.733l34.591-19.971a1,1,0,0,1,1,0l14.092,8.135h0a26.783,26.783,0,0,0,17.782,3.03,1,1,0,0,1,.693,1.847l-34.591,19.972a1,1,0,0,1-.308.115A25.483,25.483,0,0,1,281.547,214.491ZM255.69,201.77l12.591,7.269A26.822,26.822,0,0,0,285.9,212.1l30.45-17.58h-.216a29.164,29.164,0,0,1-14.263-3.72l-13.592-7.848Z" fill="#0E352C"/><path d="M316.392,165.568l11.248-6.494a20.454,20.454,0,0,1,10.943-2.727h0a2.074,2.074,0,0,1,1.728,3.1l-.083.145a20.449,20.449,0,0,1-7.531,7.565l-12.145,7.012Z" fill="#E9EBDF"/><path d="M327.64,159.074l-11.248,6.494,2.077,4.3,15.615-9.015a1.9,1.9,0,0,0-1.321-3.516A16.235,16.235,0,0,0,327.64,159.074Z" fill="#fff"/><ellipse cx="318.42" cy="169.893" rx="2.717" ry="4.802" transform="translate(-41.098 138.242) rotate(-23.051)" fill="#E9EBDF"/><path d="M319.664,175.441a3.5,3.5,0,0,1-1.744-.511,8.475,8.475,0,0,1-3.628-6.843,3.732,3.732,0,0,1,1.581-3.395,2.967,2.967,0,0,1,3.047.164,8.475,8.475,0,0,1,3.628,6.843,3.731,3.731,0,0,1-1.582,3.4A2.58,2.58,0,0,1,319.664,175.441Zm-2.484-9.093a.6.6,0,0,0-.307.076c-.281.162-.581.684-.581,1.663a6.5,6.5,0,0,0,2.628,5.11c.249.145.713.359,1.047.165.28-.162.581-.683.581-1.663a6.5,6.5,0,0,0-2.628-5.11A1.608,1.608,0,0,0,317.18,166.348Z" fill="#4D9987"/><path d="M319.648,175.432a3.469,3.469,0,0,1-1.729-.5,8.473,8.473,0,0,1-3.627-6.842,3.743,3.743,0,0,1,1.535-3.344c.021-.014.042-.028.065-.041l11.248-6.494a1,1,0,1,1,1,1.732L316.949,166.4c-.02.014-.042.027-.063.039a1.909,1.909,0,0,0-.594,1.647,6.5,6.5,0,0,0,2.628,5.11,1.056,1.056,0,0,0,1.071.134,1.083,1.083,0,0,1,.181-.1l12.025-6.943a1,1,0,0,1,1,1.732l-12.145,7.013c-.031.018-.065.034-.1.049A2.6,2.6,0,0,1,319.648,175.432Z" fill="#0E352C"/><path d="M332.7,167.159,314.456,177.69c-1.108.64-2.006-.039-2.006-1.516h0a4.8,4.8,0,0,1,2.006-3.832L332.7,161.81Z" fill="#E9EBDF"/><path d="M332.7,168.158a1,1,0,0,1-.5-1.866,19.469,19.469,0,0,0,7.163-7.193l.083-.145a1.075,1.075,0,0,0-.895-1.608,19.422,19.422,0,0,0-10.408,2.594,1,1,0,1,1-1-1.732,21.4,21.4,0,0,1,11.478-2.86,3.074,3.074,0,0,1,2.562,4.6l-.083.146a21.454,21.454,0,0,1-7.9,7.934A.992.992,0,0,1,332.7,168.158Z" fill="#0E352C"/><path d="M313.655,178.93a2,2,0,0,1-1.011-.268,2.735,2.735,0,0,1-1.194-2.488,5.739,5.739,0,0,1,2.5-4.7l8.326-4.807a1,1,0,0,1,1,1.732l-8.326,4.807a3.828,3.828,0,0,0-1.5,2.966c0,.537.161.739.194.757a.525.525,0,0,0,.311-.107L332.2,166.292a1,1,0,0,1,1,1.732l-18.242,10.533A2.613,2.613,0,0,1,313.655,178.93Z" fill="#0E352C"/><polygon points="501.677 180.509 515.837 172.333 410.256 111.376 396.096 119.551 501.677 180.509" fill="#fff"/><path d="M501.677,181.509a1,1,0,0,1-.5-.134L395.6,120.418a1,1,0,0,1,0-1.732l14.16-8.176a1,1,0,0,1,1,0l105.581,60.957a1,1,0,0,1,0,1.732l-14.16,8.176A1,1,0,0,1,501.677,181.509ZM398.1,119.552l103.581,59.8,12.16-7.021-103.581-59.8Z" fill="#0E352C"/><path d="M501.891,173.611a1,1,0,0,1-.5-.133l-92.119-53.185a1,1,0,1,1,1-1.732l92.119,53.184a1,1,0,0,1-.5,1.866Z" fill="#4D9987"/><polygon points="540.683 197.527 529.489 185.751 544.658 188.923 540.683 197.527" fill="#fff"/><path d="M540.683,198.526a1,1,0,0,1-.725-.31L528.764,186.44a1,1,0,0,1,.929-1.668l15.17,3.172a1,1,0,0,1,.7,1.4l-3.975,8.6a1,1,0,0,1-.745.567A1.013,1.013,0,0,1,540.683,198.526Zm-8.26-11.14,7.97,8.384,2.831-6.125Z" fill="#4D9987"/><path d="M620.876,232.977l-75.431-43.55a1.849,1.849,0,0,0-2.4-.137,7.5,7.5,0,0,0-3.128,5.977c0,1.515.612,2.475,1.519,2.683L616.184,241.1Z" fill="#E9EBDF"/><path d="M616.183,242.1a.992.992,0,0,1-.5-.134l-74.63-43.088c-1.322-.391-2.134-1.758-2.134-3.615a8.479,8.479,0,0,1,3.628-6.843,2.842,2.842,0,0,1,3.5.2l75.324,43.487a1,1,0,0,1,.366,1.367L617.05,241.6A1,1,0,0,1,616.183,242.1ZM544.26,189.922a1.457,1.457,0,0,0-.712.234,6.506,6.506,0,0,0-2.628,5.111c0,.934.291,1.6.741,1.708a.945.945,0,0,1,.277.108l73.879,42.654,3.693-6.394-74.566-43.05a.99.99,0,0,1-.216-.169A.61.61,0,0,0,544.26,189.922Z" fill="#4D9987"/><path d="M540.7,192.089a6.392,6.392,0,0,1,2.348-2.8,1.85,1.85,0,0,1,2.4.137l75.431,43.55-2.338,4.051Z" fill="#fff"/><path d="M616.183,242.1a.992.992,0,0,1-.5-.134l-74.63-43.088c-1.322-.391-2.134-1.758-2.134-3.615a8.479,8.479,0,0,1,3.628-6.843,2.842,2.842,0,0,1,3.5.2l75.324,43.487a1,1,0,0,1,.366,1.367L617.05,241.6A1,1,0,0,1,616.183,242.1ZM544.26,189.922a1.457,1.457,0,0,0-.712.234,6.506,6.506,0,0,0-2.628,5.111c0,.934.291,1.6.741,1.708a.945.945,0,0,1,.277.108l73.879,42.654,3.693-6.394-74.566-43.05a.99.99,0,0,1-.216-.169A.61.61,0,0,0,544.26,189.922Z" fill="#4D9987"/><path d="M620.876,232.977l-7.783-4.493a1.847,1.847,0,0,0-2.4-.137,7.5,7.5,0,0,0-3.128,5.977c0,1.515.612,2.475,1.518,2.683l7.1,4.1Z" fill="#fff"/><path d="M616.183,242.1a.992.992,0,0,1-.5-.134l-6.983-4.031c-1.319-.391-2.132-1.758-2.132-3.615a8.475,8.475,0,0,1,3.628-6.843,2.834,2.834,0,0,1,3.5.2l7.675,4.429a1,1,0,0,1,.366,1.367L617.05,241.6A1,1,0,0,1,616.183,242.1Zm-4.274-13.125a1.448,1.448,0,0,0-.711.234,6.5,6.5,0,0,0-2.629,5.111c0,.935.291,1.6.742,1.708a1.025,1.025,0,0,1,.276.109l6.23,3.6,3.693-6.394-6.917-3.992a1,1,0,0,1-.218-.17A.6.6,0,0,0,611.909,228.979Z" fill="#4D9987"/><ellipse cx="618.479" cy="237.011" rx="4.802" ry="2.717" transform="translate(158.226 713.306) rotate(-66.949)" fill="#fff"/><path d="M617.234,242.56a2.572,2.572,0,0,1-1.3-.348,3.731,3.731,0,0,1-1.581-3.4,8.469,8.469,0,0,1,3.628-6.841,2.961,2.961,0,0,1,3.046-.165,3.731,3.731,0,0,1,1.581,3.4,8.474,8.474,0,0,1-3.627,6.843A3.5,3.5,0,0,1,617.234,242.56Zm2.485-9.094a1.608,1.608,0,0,0-.74.241,6.5,6.5,0,0,0-2.628,5.109c0,.98.3,1.5.581,1.664.335.194.8-.022,1.047-.165a6.5,6.5,0,0,0,2.627-5.11c0-.979-.3-1.5-.581-1.664A.6.6,0,0,0,619.719,233.466Z" fill="#4D9987"/><path d="M617.251,242.552a2.57,2.57,0,0,1-1.776-.7l-6.775-3.911a2.577,2.577,0,0,1-1.01-.584l-66.638-38.473a2.616,2.616,0,0,1-1.063-.635,2.991,2.991,0,0,1-.211-.22L528.764,186.44a1,1,0,0,1,.929-1.668l15.17,3.172a1.012,1.012,0,0,1,.383.17,1.325,1.325,0,0,1,.15.062,2.652,2.652,0,0,1,.656.446L612.8,227.157a2.589,2.589,0,0,1,.9.518l6.783,3.916a2.574,2.574,0,0,1,1.116.687,4.1,4.1,0,0,1,1.015,2.927,8.476,8.476,0,0,1-3.626,6.843A3.475,3.475,0,0,1,617.251,242.552Zm-84.828-55.166,8.828,9.286c.019.02.037.041.054.061a.842.842,0,0,0,.072.074.63.63,0,0,0,.284.168.962.962,0,0,1,.277.108l66.858,38.6a1,1,0,0,1,.213.165.614.614,0,0,0,.3.183,1.012,1.012,0,0,1,.276.109l7,4.038a1.007,1.007,0,0,1,.217.169c.1.1.4.417,1.181-.033a6.5,6.5,0,0,0,2.626-5.11,2.224,2.224,0,0,0-.448-1.531.563.563,0,0,0-.291-.176,1.038,1.038,0,0,1-.278-.109l-7-4.041a1.049,1.049,0,0,1-.214-.166.627.627,0,0,0-.284-.151.99.99,0,0,1-.206-.09l-66.942-38.648a1.008,1.008,0,0,1-.216-.169.723.723,0,0,0-.194-.144l-.132-.016a1,1,0,0,1-.329-.142Z" fill="#0E352C"/><polygon points="588.668 261.09 552.746 240.351 569.642 230.595 605.564 251.335 588.668 261.09" fill="#fff"/><path d="M588.668,262.09a1,1,0,0,1-.5-.134l-35.922-20.739a1,1,0,0,1,0-1.733l16.9-9.755a1.008,1.008,0,0,1,1,0l35.921,20.74a1,1,0,0,1,0,1.732l-16.9,9.755A1,1,0,0,1,588.668,262.09Zm-33.922-21.739,33.922,19.585,14.9-8.6L569.643,231.75Z" fill="#4D9987"/><polygon points="605.564 251.335 605.564 265.053 588.668 274.808 588.668 261.09 605.564 251.335" fill="#E9EBDF"/><path d="M588.668,275.809a1,1,0,0,1-1-1V261.09a1,1,0,0,1,.5-.866l16.9-9.755a1,1,0,0,1,1.5.866v13.718a1,1,0,0,1-.5.866l-16.9,9.756A1,1,0,0,1,588.668,275.809Zm1-14.142v11.409l14.9-8.6V253.067Z" fill="#4D9987"/><polygon points="552.746 240.351 552.746 254.069 588.668 274.808 588.668 261.09 552.746 240.351" fill="#E9EBDF"/><path d="M588.668,275.809a1,1,0,0,1-.5-.134l-35.922-20.74a1,1,0,0,1-.5-.867V240.351a1,1,0,0,1,1.5-.867l35.922,20.74a1,1,0,0,1,.5.866v13.719a1,1,0,0,1-1,1Zm-34.922-22.318,33.922,19.585V261.667l-33.922-19.584Z" fill="#4D9987"/><path d="M588.668,275.809a1,1,0,0,1-.5-.134l-35.922-20.74a1,1,0,0,1-.5-.867V240.351a1,1,0,0,1,.5-.867l16.9-9.755a1.008,1.008,0,0,1,1,0l35.921,20.74a1,1,0,0,1,.5.866v13.718a1,1,0,0,1-.5.866l-16.9,9.756A1,1,0,0,1,588.668,275.809Zm-34.922-22.318,34.922,20.163,15.9-9.178V251.912L569.643,231.75l-15.9,9.178Z" fill="#0E352C"/><polygon points="616.567 328.586 538.682 283.62 558.02 272.455 635.905 317.422 616.567 328.586" fill="#fff"/><path d="M616.567,329.587a1,1,0,0,1-.5-.134l-77.884-44.967a1,1,0,0,1,0-1.732l19.337-11.165a1,1,0,0,1,1,0L636.4,316.556a1,1,0,0,1,0,1.732l-19.337,11.165A1,1,0,0,1,616.567,329.587ZM540.683,283.62l75.884,43.813L633.9,317.422,558.02,273.609Z" fill="#4D9987"/><polygon points="635.905 317.422 635.905 325.122 616.567 336.287 616.567 328.586 635.905 317.422" fill="#E9EBDF"/><path d="M616.567,337.286a1,1,0,0,1-1-1v-7.7a1,1,0,0,1,.5-.866L635.4,316.556a1,1,0,0,1,1.5.866v7.7a1,1,0,0,1-.5.866l-19.337,11.164A1,1,0,0,1,616.567,337.286Zm1-8.122v5.39L634.9,324.545v-5.391Z" fill="#4D9987"/><polygon points="538.682 283.62 538.682 291.32 616.567 336.287 616.567 328.586 538.682 283.62" fill="#E9EBDF"/><path d="M616.567,337.286a1,1,0,0,1-.5-.134l-77.884-44.966a1,1,0,0,1-.5-.867v-7.7a1,1,0,0,1,1.5-.866l77.884,44.967a1,1,0,0,1,.5.866v7.7a1,1,0,0,1-1,1Zm-76.884-46.544,75.884,43.812v-5.39l-75.884-43.811Z" fill="#4D9987"/><path d="M616.567,337.286a1,1,0,0,1-.5-.134l-77.884-44.966a1,1,0,0,1-.5-.867v-7.7a1,1,0,0,1,.5-.866l19.338-11.165a1,1,0,0,1,1,0l77.884,44.967a1,1,0,0,1,.5.866v7.7a1,1,0,0,1-.5.866l-19.338,11.164A1,1,0,0,1,616.567,337.286Zm-76.884-46.544,76.884,44.39,18.338-10.587V318l-76.884-44.39L539.683,284.2Z" fill="#0E352C"/><path d="M672.976,268.949h-9.71c-8.794-3.881-21.055-3.881-29.849,0h-9.71v15.065c0,3.64,2.4,7.28,7.215,10.057,9.62,5.554,25.218,5.554,34.839,0,4.81-2.777,7.216-6.417,7.215-10.057h0Z" fill="#E9EBDF"/><path d="M648.341,299.216c-6.489,0-12.979-1.427-17.919-4.278-4.977-2.874-7.716-6.753-7.715-10.924V268.949a1,1,0,0,1,1-1h9.5c8.945-3.869,21.32-3.869,30.268,0h9.5a1,1,0,0,1,1,1v15.065c0,4.172-2.741,8.05-7.716,10.924C661.32,297.789,654.831,299.216,648.341,299.216Zm-23.634-29.267v14.065c0,3.426,2.384,6.691,6.715,9.191,9.33,5.386,24.511,5.385,33.839,0,4.331-2.5,6.716-5.765,6.716-9.191V269.949h-8.71a1,1,0,0,1-.4-.085c-8.55-3.773-20.492-3.773-29.043,0a1,1,0,0,1-.4.085Z" fill="#4D9987"/><path d="M633.417,268.949h-9.71v15.065c0,3.64,2.4,7.28,7.215,10.057s11.115,4.166,17.419,4.166v-32.2A37.6,37.6,0,0,0,633.417,268.949Z" fill="#fff"/><path d="M648.341,299.216c-6.489,0-12.979-1.427-17.919-4.278-4.977-2.874-7.716-6.753-7.715-10.924V268.949a1,1,0,0,1,1-1h9.5c8.945-3.869,21.32-3.869,30.268,0h9.5a1,1,0,0,1,1,1v15.065c0,4.172-2.741,8.05-7.716,10.924C661.32,297.789,654.831,299.216,648.341,299.216Zm-23.634-29.267v14.065c0,3.426,2.384,6.691,6.715,9.191,9.33,5.386,24.511,5.385,33.839,0,4.331-2.5,6.716-5.765,6.716-9.191V269.949h-8.71a1,1,0,0,1-.4-.085c-8.55-3.773-20.492-3.773-29.043,0a1,1,0,0,1-.4.085Z" fill="#4D9987"/><path d="M623.707,268.95c0-3.64,2.4-7.28,7.215-10.058,9.621-5.554,25.219-5.554,34.839,0s9.621,14.56,0,20.115-25.219,5.554-34.839,0" fill="#fff"/><path d="M648.341,284.151c-6.489,0-12.979-1.426-17.919-4.278a1,1,0,0,1,1-1.732c9.331,5.387,24.51,5.385,33.839,0,4.331-2.5,6.716-5.765,6.716-9.192s-2.385-6.69-6.716-9.19c-9.329-5.388-24.51-5.386-33.839,0-4.331,2.5-6.716,5.764-6.716,9.191a1,1,0,0,1-2,0c0-4.172,2.74-8.051,7.716-10.924,9.881-5.7,25.958-5.705,35.839,0,4.975,2.872,7.716,6.751,7.716,10.923s-2.741,8.051-7.716,10.924C661.32,282.725,654.831,284.151,648.341,284.151Z" fill="#4D9987"/><path d="M630.921,280.007a.992.992,0,0,1-.5-.134c-4.975-2.872-7.715-6.751-7.716-10.923a1,1,0,1,1,2,0c0,3.427,2.386,6.691,6.716,9.191a1,1,0,0,1-.5,1.866Z" fill="#0E352C"/><path d="M648.36,299.238c-6.594,0-13.076-1.494-17.938-4.3-4.976-2.874-7.716-6.752-7.716-10.924a1,1,0,0,1,2,0c0,3.426,2.385,6.691,6.716,9.191,6.765,3.905,16.9,5.1,25.827,3.048a1,1,0,1,1,.449,1.949A41.927,41.927,0,0,1,648.36,299.238Z" fill="#0E352C"/><ellipse cx="648.342" cy="268.949" rx="10.571" ry="6.103" fill="#fff"/><path d="M640.866,264.634c-4.128,2.383-4.128,6.248,0,8.631a15.281,15.281,0,0,0,7.475,1.788V262.846A15.281,15.281,0,0,0,640.866,264.634Z" fill="#E9EBDF"/><path d="M648.342,276.067a16.246,16.246,0,0,1-7.976-1.936c-2.318-1.339-3.6-3.179-3.6-5.181s1.276-3.843,3.6-5.182a17.39,17.39,0,0,1,15.95,0c2.32,1.338,3.6,3.179,3.6,5.182s-1.277,3.842-3.6,5.181A16.235,16.235,0,0,1,648.342,276.067Zm0-12.233a14.271,14.271,0,0,0-6.976,1.666c-1.674.967-2.6,2.191-2.6,3.45s.921,2.483,2.6,3.448a15.436,15.436,0,0,0,13.95,0c1.675-.965,2.6-2.191,2.6-3.448s-.922-2.483-2.6-3.45h0A14.263,14.263,0,0,0,648.342,263.834Z" fill="#4D9987"/><polyline points="630.922 294.071 657.476 309.402 657.476 294.337 630.922 279.007" fill="#fff"/><path d="M657.476,310.4a1.009,1.009,0,0,1-.5-.133l-26.554-15.33a1,1,0,0,1,1-1.733l25.054,14.464V294.914l-26.054-15.041a1,1,0,0,1,1-1.732l26.554,15.33a1,1,0,0,1,.5.866V309.4a1,1,0,0,1-.5.867A1.015,1.015,0,0,1,657.476,310.4Z" fill="#0E352C"/><path d="M657.475,310.4a1,1,0,0,1-.5-.133l-26.554-15.33a1,1,0,0,1,1-1.733l26.554,15.33a1,1,0,0,1-.5,1.866Z" fill="#0E352C"/><path d="M657.476,310.4a1,1,0,0,1-1-1V297.226a1,1,0,0,1,2,0V309.4A1,1,0,0,1,657.476,310.4Z" fill="#0E352C"/><path d="M657.473,298.228a1,1,0,0,1-.224-1.975,28.99,28.99,0,0,0,8.012-3.048c4.331-2.5,6.716-5.765,6.716-9.191V268.949c0-3.427-2.385-6.691-6.716-9.19-9.329-5.388-24.51-5.386-33.839,0-4.331,2.5-6.716,5.763-6.716,9.19v15.065a1,1,0,0,1-2,0V268.949c0-4.172,2.74-8.051,7.716-10.923,9.881-5.7,25.958-5.705,35.839,0,4.975,2.872,7.716,6.751,7.716,10.923v15.065c0,4.172-2.741,8.05-7.716,10.924A31.053,31.053,0,0,1,657.7,298.2.972.972,0,0,1,657.473,298.228Z" fill="#0E352C"/><path d="M735.688,351.6a4.76,4.76,0,0,1-2.366-.7,1,1,0,1,1,1-1.732,2.2,2.2,0,0,0,1.994.288,1,1,0,1,1,.889,1.791A3.392,3.392,0,0,1,735.688,351.6Z" fill="#0E352C"/><path d="M750.524,343.038a4.773,4.773,0,0,1-2.366-.695,1,1,0,0,1,1-1.733,2.2,2.2,0,0,0,2,.287,1,1,0,0,1,.889,1.791A3.375,3.375,0,0,1,750.524,343.038Z" fill="#0E352C"/><path d="M662.246,320c-.972.584-1.584,1.9-1.584,3.771,0,3.453,2.1,7.465,4.689,8.96l42.514,24.545a14.839,14.839,0,0,0,13.431,0l39.888-23.029c3.709-2.141,3.709-5.613,0-7.755L718.67,301.944Z" fill="#fff"/><path d="M714.58,359.892a14.7,14.7,0,0,1-7.216-1.752l-42.513-24.546c-2.911-1.68-5.19-6-5.19-9.825,0-2.152.755-3.838,2.07-4.629a1.017,1.017,0,0,1,.21-.095l56.424-18.053a1,1,0,0,1,.8.086l42.514,24.545c2.116,1.222,3.281,2.906,3.281,4.744s-1.165,3.522-3.281,4.743L721.8,358.14A14.7,14.7,0,0,1,714.58,359.892Zm-51.9-38.983a3.492,3.492,0,0,0-1.016,2.86c0,3.076,1.919,6.782,4.19,8.092l42.513,24.546a13.758,13.758,0,0,0,12.432,0l39.888-23.029c1.471-.85,2.281-1.919,2.281-3.011s-.81-2.162-2.281-3.012l-42.131-24.324Z" fill="#0E352C"/><path d="M761.184,326.489,718.67,301.944l-4.508,1.442v55.47a13.907,13.907,0,0,0,7.134-1.583l39.888-23.029C764.893,332.1,764.893,328.631,761.184,326.489Z" fill="#E9EBDF"/><path d="M714.58,359.892a14.7,14.7,0,0,1-7.216-1.752l-42.513-24.546c-2.911-1.68-5.19-6-5.19-9.825,0-2.152.755-3.838,2.07-4.629a1.017,1.017,0,0,1,.21-.095l56.424-18.053a1,1,0,0,1,.8.086l42.514,24.545c2.116,1.222,3.281,2.906,3.281,4.744s-1.165,3.522-3.281,4.743L721.8,358.14A14.7,14.7,0,0,1,714.58,359.892Zm-51.9-38.983a3.492,3.492,0,0,0-1.016,2.86c0,3.076,1.919,6.782,4.19,8.092l42.513,24.546a13.758,13.758,0,0,0,12.432,0l39.888-23.029c1.471-.85,2.281-1.919,2.281-3.011s-.81-2.162-2.281-3.012l-42.131-24.324Z" fill="#0E352C"/><rect x="745.054" y="316.8" width="14.969" height="13.612" fill="#E9EBDF"/><path d="M760.022,329.412a1,1,0,0,1-1-1v-10.99a1,1,0,1,1,2,0v10.99A1,1,0,0,1,760.022,329.412Z" fill="#0E352C"/><path d="M718.669,302.944a1,1,0,0,1-.5-.133c-2.91-1.68-5.19-6-5.19-9.827,0-2.149.754-3.837,2.07-4.628a1,1,0,1,1,1.031,1.713,3.357,3.357,0,0,0-1.1,2.915c0,3.077,1.919,6.784,4.19,8.094a1,1,0,0,1-.5,1.866Z" fill="#0E352C"/><path d="M662.246,320a2.987,2.987,0,0,1,3.105.226l42.514,24.545a14.839,14.839,0,0,0,13.431,0l39.888-23.029c3.709-2.141,3.709-5.613,0-7.754L718.67,289.439a2.985,2.985,0,0,0-3.1-.226l.036-.021-53.32,30.784Z" fill="#fff"/><path d="M714.58,347.387a14.7,14.7,0,0,1-7.216-1.752l-42.513-24.546a2.1,2.1,0,0,0-2.09-.235h0a1.018,1.018,0,0,1-1.359-.36.983.983,0,0,1,.329-1.354l.027-.016.013-.008L715.1,288.325l.018-.011a3.971,3.971,0,0,1,4.05.259l42.514,24.545c2.116,1.222,3.282,2.906,3.282,4.744s-1.166,3.522-3.282,4.743L721.8,345.635A14.7,14.7,0,0,1,714.58,347.387ZM665.6,319.217c.085.044.17.091.255.139L708.364,343.9a13.758,13.758,0,0,0,12.432,0l39.888-23.029c1.471-.85,2.282-1.919,2.282-3.011s-.811-2.162-2.282-3.011L718.17,290.306a2.106,2.106,0,0,0-2.09-.236h0Z" fill="#0E352C"/><path d="M714.581,340.913a8.416,8.416,0,0,1-3.987-.875l-36.67-21.17a1,1,0,0,1,1-1.732L711.6,338.307a7.658,7.658,0,0,0,5.969,0l35.3-20.38.5-1-.5.866-38.541-22.251a1,1,0,0,1,1-1.732l38.541,22.25a2.078,2.078,0,0,1,0,3.6l-35.3,20.379A8.418,8.418,0,0,1,714.581,340.913Z" fill="#E9EBDF"/><path d="M714.58,347.387a14.7,14.7,0,0,1-7.216-1.752l-42.513-24.546a2.1,2.1,0,0,0-2.09-.235h0a1.018,1.018,0,0,1-1.359-.36.983.983,0,0,1,.329-1.354l.027-.016.013-.008L715.1,288.325l.018-.011a3.971,3.971,0,0,1,4.05.259l42.514,24.545c2.116,1.222,3.282,2.906,3.282,4.744s-1.166,3.522-3.282,4.743L721.8,345.635A14.7,14.7,0,0,1,714.58,347.387ZM665.6,319.217c.085.044.17.091.255.139L708.364,343.9a13.758,13.758,0,0,0,12.432,0l39.888-23.029c1.471-.85,2.282-1.919,2.282-3.011s-.811-2.162-2.282-3.011L718.17,290.306a2.106,2.106,0,0,0-2.09-.236h0Z" fill="#0E352C"/><path d="M714.58,353.638a14.7,14.7,0,0,1-7.216-1.752l-42.513-24.545a1,1,0,1,1,1-1.733l42.513,24.545a13.758,13.758,0,0,0,12.432,0l34.531-19.936a1,1,0,1,1,1,1.732L721.8,351.886A14.7,14.7,0,0,1,714.58,353.638Z" fill="#4D9987"/><path d="M753.347,337.931c0-3.453-2.1-7.465-4.689-8.96l-10.014-5.781a16.411,16.411,0,0,0-14.848,0c-4.1,2.367-4.1,6.2,0,8.573.044.025.1.041.14.065l9.886,5.708c2.59,1.5,4.69,5.507,4.69,8.96,0,1.97-.683,3.332-1.751,3.862l.13-.069,14.835-8.566-.129.07C752.664,341.263,753.347,339.9,753.347,337.931Z" fill="#fff"/><path d="M736.762,351.358a1,1,0,0,1-.472-1.881l.106-.058c.7-.409,1.116-1.491,1.116-2.923,0-3.076-1.919-6.783-4.19-8.094l-9.886-5.708a.674.674,0,0,1-.14-.065c-2.306-1.331-3.574-3.161-3.574-5.152s1.268-3.822,3.574-5.153a17.29,17.29,0,0,1,15.849,0l10.012,5.78c2.91,1.682,5.19,6,5.19,9.827,0,2.216-.784,3.909-2.156,4.678l-14.805,8.549c-.059.033-.119.066-.181.1A.989.989,0,0,1,736.762,351.358ZM731.22,322.4a14.152,14.152,0,0,0-6.924,1.654c-1.66.959-2.574,2.172-2.574,3.42s.914,2.461,2.574,3.419a.72.72,0,0,1,.125.058l9.9,5.716c2.91,1.68,5.19,6,5.19,9.826a8.44,8.44,0,0,1-.079,1.171l11.584-6.688a.951.951,0,0,1,.106-.067l.117-.062c.695-.413,1.107-1.493,1.107-2.919,0-3.076-1.919-6.783-4.19-8.094l-10.012-5.78A14.156,14.156,0,0,0,731.22,322.4Z" fill="#0E352C"/><path d="M736.761,350.358l.13-.069,14.835-8.566-.129.07c1.067-.53,1.75-1.892,1.75-3.862a11.391,11.391,0,0,0-1.155-4.735l-14.835,8.565a11.391,11.391,0,0,1,1.155,4.735C738.512,348.466,737.829,349.828,736.761,350.358Z" fill="#E9EBDF"/><path d="M736.762,351.358a1,1,0,0,1-.472-1.881l.106-.058c.7-.409,1.116-1.491,1.116-2.923,0-3.076-1.919-6.783-4.19-8.094l-9.886-5.708a.674.674,0,0,1-.14-.065c-2.306-1.331-3.574-3.161-3.574-5.152s1.268-3.822,3.574-5.153a17.29,17.29,0,0,1,15.849,0l10.012,5.78c2.91,1.682,5.19,6,5.19,9.827,0,2.216-.784,3.909-2.156,4.678l-14.805,8.549c-.059.033-.119.066-.181.1A.989.989,0,0,1,736.762,351.358ZM731.22,322.4a14.152,14.152,0,0,0-6.924,1.654c-1.66.959-2.574,2.172-2.574,3.42s.914,2.461,2.574,3.419a.72.72,0,0,1,.125.058l9.9,5.716c2.91,1.68,5.19,6,5.19,9.826a8.44,8.44,0,0,1-.079,1.171l11.584-6.688a.951.951,0,0,1,.106-.067l.117-.062c.695-.413,1.107-1.493,1.107-2.919,0-3.076-1.919-6.783-4.19-8.094l-10.012-5.78A14.156,14.156,0,0,0,731.22,322.4Z" fill="#0E352C"/><ellipse cx="731.22" cy="327.476" rx="5.055" ry="2.919" fill="#fff"/><path d="M731.22,331.4a8.3,8.3,0,0,1-4.074-.99,3.157,3.157,0,0,1,0-5.86,8.889,8.889,0,0,1,8.149,0h0a3.157,3.157,0,0,1,0,5.86A8.305,8.305,0,0,1,731.22,331.4Zm0-5.839a6.315,6.315,0,0,0-3.074.721c-.624.36-.981.8-.981,1.2s.357.837.981,1.2a6.9,6.9,0,0,0,6.149,0c.623-.36.98-.8.981-1.2s-.358-.838-.981-1.2h0A6.317,6.317,0,0,0,731.22,325.557Z" fill="#4D9987"/><path d="M583.5,382.941a9.226,9.226,0,0,1-4.666-1.243c-3.608-2.083-5.678-6.538-5.678-12.221,0-9.63,5.761-20.5,13.115-24.746,3.862-2.228,7.745-2.44,10.935-.6,3.609,2.083,5.679,6.538,5.679,12.222,0,9.63-5.761,20.5-13.114,24.746A12.61,12.61,0,0,1,583.5,382.941Zm9.027-33.04a5.975,5.975,0,0,0-2.756.893c-5.211,3.009-9.615,11.564-9.615,18.683,0,3.614,1.125,5.551,2.178,6.16,1.262.725,3.009-.064,3.937-.6,5.211-3.009,9.614-11.564,9.614-18.683,0-3.615-1.125-5.552-2.179-6.16A2.317,2.317,0,0,0,592.525,349.9Z" fill="#fff"/><path d="M583.507,384.62c-5.993,0-12.041-4.682-12.041-15.143,0-10.176,6.132-21.688,13.959-26.207a14.163,14.163,0,0,1,7.105-2.059c5.993,0,12.041,4.683,12.041,15.143,0,10.177-6.132,21.689-13.959,26.208A14.172,14.172,0,0,1,583.507,384.62Zm9.023-41.409A12.2,12.2,0,0,0,586.425,345c-7.267,4.195-12.959,14.946-12.959,24.475,0,9.079,5.043,13.143,10.041,13.143a12.2,12.2,0,0,0,6.105-1.791c7.267-4.195,12.959-14.945,12.959-24.475C602.571,347.275,597.528,343.211,592.53,343.211Z" fill="#0E352C"/><path d="M583.507,376.244c-2.227,0-3.665-2.656-3.665-6.767,0-7.215,4.474-15.895,9.77-18.954a5.938,5.938,0,0,1,2.918-.936c2.227,0,3.665,2.656,3.665,6.767,0,7.215-4.474,15.9-9.77,18.954A6.012,6.012,0,0,1,583.507,376.244Zm9.023-24.657a4.038,4.038,0,0,0-1.918.669c-4.754,2.745-8.77,10.631-8.77,17.221,0,2.628.747,4.767,1.665,4.767a4.038,4.038,0,0,0,1.918-.669c4.754-2.745,8.77-10.632,8.77-17.221C594.2,353.726,593.448,351.587,592.53,351.587Z" fill="#0E352C"/><path d="M531.351,341.889v49.453c0,9.122,12.808,16.517,28.608,16.517s28.607-7.395,28.607-16.517V341.889Z" fill="#fff"/><path d="M559.959,408.859c-16.325,0-29.607-7.858-29.607-17.516V341.889a1,1,0,0,1,1-1h57.214a1,1,0,0,1,1,1v49.454C589.566,401,576.284,408.859,559.959,408.859Zm-27.607-65.97v48.454c0,8.555,12.384,15.516,27.607,15.516s27.607-6.961,27.607-15.516V342.889Z" fill="#0E352C"/><path d="M559.959,407.859c15.8,0,28.607-7.395,28.607-16.517V341.889H559.959Z" fill="#E9EBDF"/><ellipse cx="559.959" cy="341.889" rx="28.608" ry="16.517" fill="#fff"/><path d="M559.959,408.859c-16.325,0-29.607-7.858-29.607-17.516V341.889a1,1,0,0,1,2,0v49.454c0,8.555,12.384,15.516,27.607,15.516s27.607-6.961,27.607-15.516V341.889a1,1,0,0,1,2,0v49.454C589.566,401,576.284,408.859,559.959,408.859Z" fill="#0E352C"/><ellipse cx="559.959" cy="341.889" rx="23.453" ry="12.564" fill="#fff"/><path d="M559.959,355.453c-13.712,0-24.453-5.958-24.453-13.564s10.741-13.564,24.453-13.564,24.453,5.958,24.453,13.564S573.671,355.453,559.959,355.453Zm0-25.128c-12.171,0-22.453,5.3-22.453,11.564s10.282,11.564,22.453,11.564,22.453-5.3,22.453-11.564S572.13,330.325,559.959,330.325Z" fill="#0E352C"/><path d="M559.959,329.325h0c-12.953,0-23.453,5.625-23.453,12.564s10.5,12.564,23.453,12.564h0Z" fill="#fff"/><ellipse cx="559.959" cy="346.088" rx="22.107" ry="8.365" fill="#E9EBDF"/><path d="M559.959,355.453c-10.232,0-19.452-3.542-22.94-8.813a1,1,0,0,1,0-1.1c3.488-5.271,12.708-8.813,22.94-8.813s19.452,3.542,22.94,8.813a1,1,0,0,1,0,1.1C579.411,351.911,570.191,355.453,559.959,355.453Zm-20.878-9.365c3.414,4.429,11.666,7.365,20.878,7.365s17.464-2.936,20.878-7.365c-3.414-4.429-11.666-7.365-20.878-7.365S542.5,341.659,539.081,346.088Z" fill="#4D9987"/><path d="M559.959,355.453c-13.712,0-24.453-5.958-24.453-13.564s10.741-13.564,24.453-13.564,24.453,5.958,24.453,13.564S573.671,355.453,559.959,355.453Zm0-25.128c-12.171,0-22.453,5.3-22.453,11.564s10.282,11.564,22.453,11.564,22.453-5.3,22.453-11.564S572.13,330.325,559.959,330.325Z" fill="#0E352C"/><path d="M588.566,342.889a1,1,0,0,1-1-1c0-3.328-1.886-6.515-5.457-9.214a30.46,30.46,0,0,0-10.5-4.843,47.178,47.178,0,0,0-23.292,0,30.453,30.453,0,0,0-10.5,4.843c-3.571,2.7-5.457,5.886-5.457,9.214a1,1,0,0,1-2,0c0-3.98,2.161-7.718,6.25-10.81a32.483,32.483,0,0,1,11.2-5.181,49.188,49.188,0,0,1,24.314,0,32.5,32.5,0,0,1,11.2,5.181c4.089,3.092,6.25,6.83,6.25,10.81A1,1,0,0,1,588.566,342.889Z" fill="#0E352C"/><path d="M542.387,357a.988.988,0,0,1-.409-.088,24.828,24.828,0,0,1-7.748-5.226,1,1,0,1,1,1.44-1.389,22.828,22.828,0,0,0,7.128,4.791,1,1,0,0,1-.411,1.912Z" fill="#4D9987"/><path d="M559.959,360.482a49.111,49.111,0,0,1-9.157-.845,39.624,39.624,0,0,1-8.824-2.724,1,1,0,0,1,.82-1.824,37.538,37.538,0,0,0,8.379,2.583,48.188,48.188,0,0,0,17.564,0,37.538,37.538,0,0,0,8.379-2.583,1,1,0,1,1,.82,1.824,39.64,39.64,0,0,1-8.824,2.724A49.111,49.111,0,0,1,559.959,360.482Z" fill="#4D9987"/><path d="M577.531,357a1,1,0,0,1-.411-1.912,22.828,22.828,0,0,0,7.128-4.791,1,1,0,1,1,1.44,1.389,24.828,24.828,0,0,1-7.748,5.226A.988.988,0,0,1,577.531,357Z" fill="#4D9987"/><path d="M540.23,357.342a1,1,0,0,1-1-1,8.132,8.132,0,0,1,3.483-6.564,2.969,2.969,0,0,1,2.535-.348,2.8,2.8,0,0,1,1.645,1.695,1,1,0,0,1-1.866.723.864.864,0,0,0-.443-.532,1.13,1.13,0,0,0-.871.2,6.143,6.143,0,0,0-2.483,4.831A1,1,0,0,1,540.23,357.342Z" fill="#0E352C"/><path d="M545.4,387.623c0,1.235-.751,1.8-1.677,1.268l-3.091-1.785-3.091-1.785a4.013,4.013,0,0,1-1.677-3.2v-9.225a4.867,4.867,0,0,1,.745-2.82l2.469-3.458c.743-1.041,2.365-.1,3.108,1.794l2.469,6.309a10.315,10.315,0,0,1,.745,3.681Z" fill="#E9EBDF"/><path d="M544.389,390.092a2.356,2.356,0,0,1-1.17-.335l-6.183-3.569a4.973,4.973,0,0,1-2.176-4.07v-9.224a5.842,5.842,0,0,1,.93-3.4l2.47-3.458a1.955,1.955,0,0,1,1.883-.833,4.178,4.178,0,0,1,2.97,2.845l2.469,6.309a11.26,11.26,0,0,1,.814,4.044v9.225a2.447,2.447,0,0,1-1.08,2.223A1.843,1.843,0,0,1,544.389,390.092Zm-4.5-22.909h-.013l-2.457,3.469a3.959,3.959,0,0,0-.558,2.241v9.224a3.055,3.055,0,0,0,1.176,2.337l6.183,3.569a.68.68,0,0,0,.1.051,1.172,1.172,0,0,0,.073-.452V378.4a9.251,9.251,0,0,0-.676-3.315l-2.47-6.31C540.81,367.646,540.1,367.183,539.888,367.183Z" fill="#0E352C"/><path d="M540.23,367.312a1,1,0,0,1-1-1v-9.97a1,1,0,0,1,2,0v9.97A1,1,0,0,1,540.23,367.312Z" fill="#0E352C"/><path d="M640.509,355.39l14.5-8.373,0,0a2.574,2.574,0,0,1,2.636.208l3,1.729v10.753l-3-1.73A6.46,6.46,0,0,1,656,356.548l-13.371,5.311Z" fill="#fff"/><path d="M642.629,362.859a1,1,0,0,1-.95-.688L639.56,355.7a1,1,0,0,1,.45-1.178l14.5-8.374a1.052,1.052,0,0,1,.117-.057,3.577,3.577,0,0,1,3.521.27l3,1.73a1,1,0,0,1,.5.866v10.753a1,1,0,0,1-1.5.866l-3-1.729a6.879,6.879,0,0,1-1.42-1.118L643,362.789A1,1,0,0,1,642.629,362.859Zm-.916-7.008,1.535,4.686,12.383-4.919a1,1,0,0,1,1.132.282,5.452,5.452,0,0,0,1.387,1.216l1.5.863v-8.443l-2.5-1.44a1.69,1.69,0,0,0-1.635-.208c-.032.017-.064.034-.1.049Z" fill="#4D9987"/><path d="M646.143,368.085l-3-1.729c-2.227-1.286-4.032-4.735-4.032-7.7s1.805-4.334,4.032-3.048l3,1.729Z" fill="#fff"/><path d="M646.144,369.085a1,1,0,0,1-.5-.134l-3-1.729c-2.542-1.467-4.533-5.232-4.533-8.571a4.54,4.54,0,0,1,1.894-4.127,3.547,3.547,0,0,1,3.639.212l3,1.73a1,1,0,0,1,.5.866v10.753a1,1,0,0,1-1,1Zm-4.592-12.967a1.074,1.074,0,0,0-.543.138,2.729,2.729,0,0,0-.894,2.4c0,2.6,1.618,5.734,3.533,6.838l1.5.864v-8.444l-2.5-1.44A2.305,2.305,0,0,0,641.552,356.118Z" fill="#4D9987"/><path d="M646.144,369.085a1,1,0,0,1-.5-.134l-3-1.729c-2.542-1.467-4.533-5.232-4.533-8.571a4.6,4.6,0,0,1,1.795-4.061,1.152,1.152,0,0,1,.1-.066l14.5-8.374a1.052,1.052,0,0,1,.117-.057,3.577,3.577,0,0,1,3.521.27l3,1.73a1,1,0,0,1,.5.866v10.753a1,1,0,0,1-1.5.866l-3-1.729a6.879,6.879,0,0,1-1.42-1.118l-8.586,3.412v6.942a1,1,0,0,1-1,1Zm-5.052-12.876c-.026.019-.053.036-.08.052a2.72,2.72,0,0,0-.9,2.39c0,2.6,1.618,5.734,3.533,6.838l1.5.864v-5.889a1,1,0,0,1,.63-.93l9.857-3.916a1,1,0,0,1,1.132.282,5.452,5.452,0,0,0,1.387,1.216l1.5.863v-8.443l-2.5-1.44a1.69,1.69,0,0,0-1.635-.208c-.032.017-.064.034-.1.049Z" fill="#0E352C"/><polygon points="669.463 370.796 683.965 362.423 660.646 348.959 646.143 357.332 669.463 370.796" fill="#fff"/><path d="M669.463,371.8a1,1,0,0,1-.5-.134L645.644,358.2a1,1,0,0,1,0-1.732l14.5-8.373a1,1,0,0,1,1,0l23.32,13.464a1,1,0,0,1,0,1.732l-14.5,8.373A1,1,0,0,1,669.463,371.8Zm-21.319-14.464,21.319,12.31,12.5-7.219-21.32-12.31Z" fill="#0E352C"/><polygon points="667.884 364.168 672.486 361.511 662.224 355.587 657.623 358.243 667.884 364.168" fill="#E9EBDF"/><polygon points="683.965 362.423 683.965 373.175 669.463 381.548 669.463 370.796 683.965 362.423" fill="#E9EBDF"/><path d="M669.463,382.549a1,1,0,0,1-1-1V370.8a1,1,0,0,1,.5-.866l14.5-8.373a1,1,0,0,1,1.5.866v10.753a1,1,0,0,1-.5.866l-14.5,8.373A1,1,0,0,1,669.463,382.549Zm1-11.176v8.443l12.5-7.217v-8.444Z" fill="#0E352C"/><polygon points="646.143 357.332 646.143 368.085 669.463 381.548 669.463 370.796 646.143 357.332" fill="#E9EBDF"/><path d="M669.463,382.549a1,1,0,0,1-.5-.134l-23.319-13.464a1,1,0,0,1-.5-.866V357.332a1,1,0,0,1,1.5-.866l23.319,13.464a1,1,0,0,1,.5.866v10.753a1,1,0,0,1-1,1Zm-22.319-15.041,21.319,12.308v-8.443l-21.319-12.309Z" fill="#4D9987"/><path d="M669.463,382.549a1,1,0,0,1-.5-.134l-23.319-13.464a1,1,0,0,1-.5-.866V357.332a1,1,0,0,1,1.5-.866l23.319,13.464a1,1,0,0,1,.5.866v10.753a1,1,0,0,1-1,1Zm-22.319-15.041,21.319,12.308v-8.443l-21.319-12.309Z" fill="#4D9987"/><path d="M669.463,382.549a1,1,0,0,1-.5-.134l-23.319-13.464a1,1,0,0,1-.5-.866V357.332a1,1,0,0,1,.5-.866l14.5-8.373a1,1,0,0,1,1,0l23.32,13.464a1,1,0,0,1,0,1.732l-14,8.084v10.176a1,1,0,0,1-1,1Zm-22.319-15.041,21.319,12.308V370.8a1,1,0,0,1,.5-.866l13-7.507-21.32-12.31-13.5,7.8Z" fill="#0E352C"/><path d="M675.1,384.49a1,1,0,0,1-.914-.594L668.549,371.2a1,1,0,0,1,.414-1.271l14.5-8.373a1,1,0,0,1,1,0l3,1.728c2.542,1.468,4.532,5.234,4.532,8.571a4.6,4.6,0,0,1-1.791,4.059,1.222,1.222,0,0,1-.1.068l-14.5,8.373A1,1,0,0,1,675.1,384.49Zm-4.355-13.278,4.818,10.856,13.451-7.766a.91.91,0,0,1,.086-.056,2.721,2.721,0,0,0,.9-2.39c0-2.6-1.617-5.733-3.532-6.838l-2.5-1.441Z" fill="#4D9987"/><path d="M683.965,362.423l3,1.729c2.227,1.286,4.032,4.735,4.032,7.7,0,1.624-.542,2.763-1.4,3.256l0,0-14.5,8.373,0,0a2.576,2.576,0,0,1-2.636-.208l-3-1.73V370.8Z" fill="#fff"/><path d="M669.463,370.8l3,1.729c2.227,1.286,4.032,4.735,4.032,7.7s-1.805,4.334-4.032,3.049l-3-1.73Z" fill="#fff"/><path d="M674.062,384.764a4.238,4.238,0,0,1-2.1-.62l-3-1.729a1,1,0,0,1-.5-.866V370.8a1,1,0,0,1,1.5-.866l3,1.729c2.541,1.467,4.532,5.232,4.532,8.57,0,1.928-.69,3.432-1.894,4.127A3.035,3.035,0,0,1,674.062,384.764Zm-3.6-3.792,2.5,1.439a1.7,1.7,0,0,0,1.639.213,2.729,2.729,0,0,0,.893-2.4c0-2.6-1.617-5.733-3.532-6.837l-1.5-.864Z" fill="#4D9987"/><path d="M674.054,384.761a4.22,4.22,0,0,1-2.1-.617l-3-1.729a1,1,0,0,1-.5-.866V370.8a1,1,0,0,1,.5-.866l14.5-8.373a1,1,0,0,1,1,0l3,1.728c2.542,1.468,4.532,5.234,4.532,8.571a4.6,4.6,0,0,1-1.791,4.059,1.222,1.222,0,0,1-.1.068l-14.5,8.373a1.06,1.06,0,0,1-.117.058A3.041,3.041,0,0,1,674.054,384.761Zm-3.591-3.789,2.5,1.439a1.691,1.691,0,0,0,1.636.208c.031-.017.063-.034.095-.049l14.322-8.268a.91.91,0,0,1,.086-.056,2.721,2.721,0,0,0,.9-2.39c0-2.6-1.617-5.733-3.532-6.838l-2.5-1.441-13.5,7.8Z" fill="#0E352C"/><polygon points="642.527 402.964 653.721 391.188 638.552 394.36 642.527 402.964" fill="#fff"/><path d="M642.526,403.964a.913.913,0,0,1-.163-.014,1,1,0,0,1-.745-.567l-3.974-8.6a1,1,0,0,1,.7-1.4l15.169-3.173a1,1,0,0,1,.929,1.668l-11.194,11.775A.994.994,0,0,1,642.526,403.964Zm-2.54-8.882,2.83,6.125,7.97-8.384Z" fill="#4D9987"/><path d="M562.334,438.414l75.431-43.55a1.849,1.849,0,0,1,2.4-.136,7.491,7.491,0,0,1,3.127,5.976c0,1.515-.611,2.475-1.518,2.683l-74.745,43.154Z" fill="#E9EBDF"/><path d="M567.025,447.541a1.027,1.027,0,0,1-.258-.034,1,1,0,0,1-.608-.466l-4.691-8.127a1,1,0,0,1,.366-1.366l75.324-43.487a2.839,2.839,0,0,1,3.5-.2,8.475,8.475,0,0,1,3.628,6.843c0,1.858-.812,3.225-2.133,3.615l-74.631,43.088A1,1,0,0,1,567.025,447.541ZM563.7,438.78l3.692,6.4,73.879-42.654a.994.994,0,0,1,.278-.109c.449-.1.74-.773.74-1.708a6.5,6.5,0,0,0-2.628-5.11c-.773-.447-1.079-.136-1.179-.032a.957.957,0,0,1-.216.168Z" fill="#4D9987"/><path d="M642.51,397.526a6.385,6.385,0,0,0-2.349-2.8,1.848,1.848,0,0,0-2.4.136l-75.431,43.55,2.338,4.051Z" fill="#fff"/><path d="M567.025,447.541a1.027,1.027,0,0,1-.258-.034,1,1,0,0,1-.608-.466l-4.691-8.127a1,1,0,0,1,.366-1.366l75.324-43.487a2.839,2.839,0,0,1,3.5-.2,8.475,8.475,0,0,1,3.628,6.843c0,1.858-.812,3.225-2.133,3.615l-74.631,43.088A1,1,0,0,1,567.025,447.541ZM563.7,438.78l3.692,6.4,73.879-42.654a.994.994,0,0,1,.278-.109c.449-.1.74-.773.74-1.708a6.5,6.5,0,0,0-2.628-5.11c-.773-.447-1.079-.136-1.179-.032a.957.957,0,0,1-.216.168Z" fill="#4D9987"/><ellipse cx="564.731" cy="442.448" rx="2.717" ry="4.802" transform="translate(-128.151 256.448) rotate(-23.051)" fill="#E9EBDF"/><path d="M565.976,448a3.505,3.505,0,0,1-1.745-.513,8.47,8.47,0,0,1-3.627-6.841,3.731,3.731,0,0,1,1.581-3.4,2.961,2.961,0,0,1,3.046.164,8.475,8.475,0,0,1,3.628,6.843,3.731,3.731,0,0,1-1.582,3.4A2.567,2.567,0,0,1,565.976,448Zm-2.485-9.1a.6.6,0,0,0-.306.077c-.282.162-.581.684-.581,1.664a6.5,6.5,0,0,0,2.627,5.109,1.16,1.16,0,0,0,1.047.166c.281-.162.581-.685.581-1.664a6.5,6.5,0,0,0-2.628-5.11A1.6,1.6,0,0,0,563.491,438.9Z" fill="#4D9987"/><path d="M565.959,447.989a3.477,3.477,0,0,1-1.729-.5,8.47,8.47,0,0,1-3.626-6.841,4.1,4.1,0,0,1,1.012-2.925,2.591,2.591,0,0,1,1.119-.69l6.782-3.916a2.572,2.572,0,0,1,.9-.517l66.742-38.534a2.665,2.665,0,0,1,.657-.448,1.784,1.784,0,0,1,.2-.078.843.843,0,0,1,.336-.153l15.17-3.173a1,1,0,0,1,.929,1.668l-11.014,11.586c-.068.079-.139.15-.21.22a2.626,2.626,0,0,1-1.064.635L575.52,442.791a2.563,2.563,0,0,1-1.011.584l-6.774,3.91A2.56,2.56,0,0,1,565.959,447.989Zm73.146-52.722a.858.858,0,0,1-.305.136l-.111.023a.47.47,0,0,0-.2.134.976.976,0,0,1-.218.17l-66.942,38.649a1.034,1.034,0,0,1-.21.091.6.6,0,0,0-.278.147,1.028,1.028,0,0,1-.216.168l-7,4.041a1.04,1.04,0,0,1-.278.11.556.556,0,0,0-.293.176,2.228,2.228,0,0,0-.446,1.531,6.5,6.5,0,0,0,2.626,5.109c.774.448,1.081.136,1.181.032a1.021,1.021,0,0,1,.217-.169l7-4.038a1,1,0,0,1,.279-.109.617.617,0,0,0,.3-.183,1.03,1.03,0,0,1,.213-.165l66.857-38.6a1.012,1.012,0,0,1,.278-.109.6.6,0,0,0,.283-.168.85.85,0,0,0,.073-.074c.017-.021.035-.041.054-.062l8.828-9.285Z" fill="#0E352C"/><path d="M577.768,435.905a1,1,0,0,1-.5-1.866l15.428-8.908a1,1,0,1,1,1,1.732l-15.428,8.908A1,1,0,0,1,577.768,435.905Z" fill="#4D9987"/><path d="M451.362,439.123a6.569,6.569,0,0,1-3.257-.962,14.631,14.631,0,0,1-5.285-5.936,18.061,18.061,0,0,1-2.143-8.168,1,1,0,0,1,2,0,16.029,16.029,0,0,0,1.915,7.24,12.634,12.634,0,0,0,4.513,5.132c1.48.853,2.828.921,3.795.19a1,1,0,1,1,1.207,1.6A4.478,4.478,0,0,1,451.362,439.123Z" fill="#0E352C"/><path d="M467.49,429.812a6.58,6.58,0,0,1-3.258-.962,14.611,14.611,0,0,1-5.284-5.937,18.047,18.047,0,0,1-2.143-8.167,1,1,0,0,1,2,0,16.025,16.025,0,0,0,1.915,7.239,12.611,12.611,0,0,0,4.512,5.132c1.479.853,2.829.923,3.8.192a1,1,0,1,1,1.2,1.595A4.469,4.469,0,0,1,467.49,429.812Z" fill="#0E352C"/><path d="M435.236,448.434a6.57,6.57,0,0,1-3.258-.962,14.628,14.628,0,0,1-5.285-5.937,18.057,18.057,0,0,1-2.143-8.167,1,1,0,0,1,2,0,16.025,16.025,0,0,0,1.915,7.239,12.635,12.635,0,0,0,4.513,5.132c1.481.856,2.83.922,3.8.192a1,1,0,1,1,1.207,1.6A4.471,4.471,0,0,1,435.236,448.434Z" fill="#0E352C"/><polygon points="424.858 437.657 424.858 448.826 493.79 488.624 493.79 477.454 424.858 437.657" fill="#E9EBDF"/><path d="M493.79,489.624a1,1,0,0,1-.5-.134l-68.932-39.8a1,1,0,0,1-.5-.866v-11.17a1,1,0,0,1,1.5-.866l68.932,39.8a1,1,0,0,1,.5.866v11.17a1,1,0,0,1-1,1Zm-67.932-41.375,66.932,38.643v-8.861l-66.932-38.642Z" fill="#4D9987"/><polygon points="545.039 447.866 545.039 459.036 493.79 488.624 493.79 477.454 545.039 447.866" fill="#E9EBDF"/><path d="M493.79,489.624a1,1,0,0,1-1-1v-11.17a1,1,0,0,1,.5-.866L544.539,447a1,1,0,0,1,1.5.866v11.169a1,1,0,0,1-.5.866L494.29,489.49A1,1,0,0,1,493.79,489.624Zm1-11.593v8.861l49.249-28.434V449.6Z" fill="#4D9987"/><polygon points="493.79 477.454 504.04 471.537 514.289 465.619 524.54 459.701 534.789 453.784 545.039 447.866 531.252 439.907 517.467 431.947 503.678 423.987 489.893 416.028 476.107 408.068 465.857 413.986 455.608 419.903 445.357 425.822 435.108 431.739 424.858 437.657 438.644 445.616 452.43 453.575 466.218 461.536 480.004 469.495 493.79 477.454" fill="#fff"/><path d="M493.79,478.454a1,1,0,0,1-.5-.134l-68.932-39.8a1,1,0,0,1,0-1.732L475.606,407.2a1,1,0,0,1,1,0L545.539,447a1,1,0,0,1,0,1.732L494.29,478.32A1,1,0,0,1,493.79,478.454Zm-66.932-40.8L493.79,476.3l49.249-28.434-66.933-38.643Z" fill="#4D9987"/><polygon points="431.444 441.459 441.694 435.541 451.943 429.624 462.194 423.705 472.443 417.788 482.692 411.87 476.107 408.068 465.857 413.986 455.608 419.903 445.357 425.822 435.108 431.739 424.858 437.657 431.444 441.459" fill="#fff"/><path d="M431.444,442.459a1,1,0,0,1-.5-.134l-6.586-3.8a1,1,0,0,1,0-1.732L475.606,407.2a1,1,0,0,1,1,0l6.586,3.8a1,1,0,0,1,0,1.732l-51.248,29.589A1,1,0,0,1,431.444,442.459Zm-4.586-4.8,4.586,2.649,49.248-28.435-4.586-2.647Z" fill="#4D9987"/><path d="M490.337,468.146a1,1,0,0,1-.5-1.867l36.848-21.273a1,1,0,1,1,1,1.732l-36.848,21.274A.992.992,0,0,1,490.337,468.146Z" fill="#4D9987"/><path d="M476.552,460.187a1,1,0,0,1-.5-1.867L512.9,437.047a1,1,0,1,1,1,1.732l-36.847,21.274A.992.992,0,0,1,476.552,460.187Z" fill="#4D9987"/><path d="M462.764,452.227a1,1,0,0,1-.5-1.867l36.846-21.274a1,1,0,1,1,1,1.732l-36.846,21.275A1,1,0,0,1,462.764,452.227Z" fill="#4D9987"/><path d="M448.978,444.267a1,1,0,0,1-.5-1.867l36.847-21.273a1,1,0,1,1,1,1.732l-36.847,21.274A1,1,0,0,1,448.978,444.267Z" fill="#4D9987"/><path d="M437.378,434.665a1,1,0,0,1-.887-.536A12.634,12.634,0,0,0,431.978,429c-1.48-.855-2.829-.924-3.8-.191-1.038.783-1.633,2.446-1.633,4.562a1,1,0,0,1-2,0c0-2.789.861-4.976,2.427-6.158,1.622-1.229,3.808-1.211,6,.055a14.631,14.631,0,0,1,5.285,5.936,1,1,0,0,1-.885,1.464Z" fill="#0E352C"/><path d="M493.79,489.624a1,1,0,0,1-.5-.134l-68.932-39.8a1,1,0,0,1-.5-.866v-11.17a1,1,0,0,1,.5-.866L475.606,407.2a1,1,0,0,1,1,0l55.146,31.838h0L545.538,447a1,1,0,0,1,.5.866v11.169a1,1,0,0,1-.5.866L494.29,489.49A1,1,0,0,1,493.79,489.624Zm-67.932-41.375L493.79,487.47l50.248-29.012V448.443l-67.932-39.22-50.248,29.01Z" fill="#0E352C"/><path d="M453.505,425.354a1,1,0,0,1-.887-.537,12.625,12.625,0,0,0-4.513-5.131c-1.479-.855-2.829-.925-3.8-.192-1.038.784-1.632,2.447-1.632,4.563a1,1,0,0,1-2,0c0-2.788.861-4.975,2.426-6.159,1.627-1.227,3.814-1.208,6,.055a14.628,14.628,0,0,1,5.285,5.937,1,1,0,0,1-.885,1.464Z" fill="#0E352C"/><path d="M469.633,416.042a1,1,0,0,1-.887-.536,12.642,12.642,0,0,0-4.514-5.132c-1.48-.853-2.827-.925-3.794-.19-1.039.783-1.633,2.446-1.633,4.562a1,1,0,0,1-2,0c0-2.789.861-4.976,2.426-6.158,1.625-1.23,3.814-1.208,6,.054a14.638,14.638,0,0,1,5.286,5.936,1,1,0,0,1-.885,1.464Z" fill="#0E352C"/><rect width="900" height="600" fill="none"/></svg>