<svg xmlns="http://www.w3.org/2000/svg" width="900" height="600" viewBox="0 0 900 600"><rect width="900" height="600" fill="none"/><path d="M322,405.729a.985.985,0,0,1-.38-.069,1.193,1.193,0,0,1-.33-.221.986.986,0,0,1-.29-.71,1.225,1.225,0,0,1,.02-.189.686.686,0,0,1,.06-.19.545.545,0,0,1,.09-.17.936.936,0,0,1,.12-.15,1.036,1.036,0,0,1,1.42,0,1.008,1.008,0,0,1,.29.7.99.99,0,0,1-1,1Z" fill="#E9EBDF"/><path d="M326.33,402.229a1.011,1.011,0,0,1,.37-1.37h0a1.011,1.011,0,0,1,1.369.37h0a1.01,1.01,0,0,1-.369,1.371h0a1.019,1.019,0,0,1-.5.129h0A1.015,1.015,0,0,1,326.33,402.229Zm5.2-3a1.011,1.011,0,0,1,.369-1.37h0a.99.99,0,0,1,1.361.37h0a.989.989,0,0,1-.361,1.361h0a1.018,1.018,0,0,1-.5.139h0A1.016,1.016,0,0,1,331.53,399.229Zm5.2-3.009a1.013,1.013,0,0,1,.37-1.37h0a1,1,0,0,1,1.36.37h0a1,1,0,0,1-.36,1.37h0a1.012,1.012,0,0,1-.5.13h0A1.006,1.006,0,0,1,336.73,396.22Zm5.2-3a1,1,0,0,1,.37-1.37h0a1,1,0,0,1,1.36.37h0a.994.994,0,0,1-.36,1.36h0a.926.926,0,0,1-.5.14h0A1.006,1.006,0,0,1,341.93,393.22Zm5.2-3a1,1,0,0,1,.37-1.37h0a.984.984,0,0,1,1.359.36h0a1.006,1.006,0,0,1-.359,1.37h0a1.009,1.009,0,0,1-.5.13h0A1.016,1.016,0,0,1,347.13,390.22Zm5.2-3.01a1,1,0,0,1,.37-1.37h0a1,1,0,0,1,1.36.37h0a1.007,1.007,0,0,1-.36,1.37h0a1.009,1.009,0,0,1-.5.13h0A1.006,1.006,0,0,1,352.33,387.21Zm5.2-3a1,1,0,0,1,.369-1.37h0a.992.992,0,0,1,1.361.37h0a.994.994,0,0,1-.361,1.359h0a1.01,1.01,0,0,1-.5.141h0A.994.994,0,0,1,357.53,384.21Zm5.2-3.01a1,1,0,0,1,.36-1.36h0a1.007,1.007,0,0,1,1.37.36h0a1.007,1.007,0,0,1-.36,1.369h0a1,1,0,0,1-.5.131h0A1,1,0,0,1,362.73,381.2Zm5.2-3a1,1,0,0,1,.36-1.37h0a1.01,1.01,0,0,1,1.37.37h0a1,1,0,0,1-.37,1.369h0a.939.939,0,0,1-.49.131h0A.993.993,0,0,1,367.93,378.2Zm5.2-3a1,1,0,0,1,.36-1.37h0a1.006,1.006,0,0,1,1.369.359h0a1.008,1.008,0,0,1-.369,1.371h0a1,1,0,0,1-.5.14h0A.989.989,0,0,1,373.13,375.2Zm5.2-3.011a1,1,0,0,1,.359-1.37h0a1.013,1.013,0,0,1,1.371.37h0a1.011,1.011,0,0,1-.371,1.371h0a.989.989,0,0,1-.5.129h0A.988.988,0,0,1,378.33,372.189Zm5.2-3a1,1,0,0,1,.36-1.37h0a1.012,1.012,0,0,1,1.37.37h0a1,1,0,0,1-.37,1.361h0a.933.933,0,0,1-.5.139h0A.988.988,0,0,1,383.53,369.189Zm5.2-3a1,1,0,0,1,.36-1.37h0a1,1,0,0,1,1.37.361h0a1.011,1.011,0,0,1-.37,1.37h0a1.009,1.009,0,0,1-.5.13h0A1,1,0,0,1,388.73,366.189Z" fill="#E9EBDF"/><path d="M394.79,363.68a.968.968,0,0,1-.38-.071,1.186,1.186,0,0,1-.33-.219,1.043,1.043,0,0,1-.21-.33.943.943,0,0,1,0-.76,1.141,1.141,0,0,1,.21-.33,1,1,0,0,1,.9-.27.586.586,0,0,1,.19.06.556.556,0,0,1,.17.09c.059.04.11.08.16.12a1.141,1.141,0,0,1,.21.33.943.943,0,0,1,0,.76,1.043,1.043,0,0,1-.21.33,1.2,1.2,0,0,1-.33.219A.968.968,0,0,1,394.79,363.68Z" fill="#E9EBDF"/><path d="M580.361,394.174A2.283,2.283,0,0,1,579,396.036a7.4,7.4,0,0,1-6.581,0,1.953,1.953,0,0,1,0-3.724,7.407,7.407,0,0,1,6.581,0A2.283,2.283,0,0,1,580.361,394.174Z" fill="#fff"/><path d="M575.707,397.808a7.8,7.8,0,0,1-3.782-.9,3.205,3.205,0,0,1-1.871-2.732,3.247,3.247,0,0,1,1.871-2.733,8.644,8.644,0,0,1,7.565,0,3.249,3.249,0,0,1,1.871,2.733,3.208,3.208,0,0,1-1.871,2.732A7.8,7.8,0,0,1,575.707,397.808Zm0-5.267a5.869,5.869,0,0,0-2.8.641c-.536.3-.855.673-.855.992s.319.688.855.992a6.719,6.719,0,0,0,5.6,0c.535-.3.855-.675.855-.992s-.32-.689-.855-.992A5.87,5.87,0,0,0,575.707,392.541Z" fill="#E9EBDF"/><path d="M528.779,286.83a1.005,1.005,0,0,1-1.009-1,1.018,1.018,0,0,1,.3-.71,1,1,0,0,1,.321-.21.955.955,0,0,1,.58-.06.674.674,0,0,1,.19.06.7.7,0,0,1,.17.09c.05.04.109.08.15.12a1.236,1.236,0,0,1,.22.33,1,1,0,0,1-.921,1.38Z" fill="#4D9987"/><path d="M533.2,283.24a1.006,1.006,0,0,1,.35-1.37h0a1.015,1.015,0,0,1,1.37.359h0a1,1,0,0,1-.36,1.371h0a1,1,0,0,1-.5.14h0A.991.991,0,0,1,533.2,283.24Zm5.28-3.091a1,1,0,0,1,.36-1.369h0a1,1,0,0,1,1.37.36h0a1,1,0,0,1-.36,1.37h0a1.022,1.022,0,0,1-.51.13h0A.992.992,0,0,1,538.48,280.149Zm5.29-3.089a1,1,0,0,1,.35-1.371h0a1,1,0,0,1,1.37.361h0a1.007,1.007,0,0,1-.35,1.37h0a1.046,1.046,0,0,1-.51.13h0A.981.981,0,0,1,543.77,277.06Zm5.28-3.09a1,1,0,0,1,.36-1.37h0a1,1,0,0,1,1.369.36h0a.985.985,0,0,1-.359,1.359h0a.928.928,0,0,1-.51.141h0A1.013,1.013,0,0,1,549.05,273.97Zm5.29-3.09a1,1,0,0,1,.349-1.37h0a1,1,0,0,1,1.371.349h0a1,1,0,0,1-.36,1.37h0a1,1,0,0,1-.5.141h0A1,1,0,0,1,554.34,270.88Zm5.28-3.1a.987.987,0,0,1,.36-1.36h0a1,1,0,0,1,1.37.35h0a1,1,0,0,1-.36,1.37h0a1.073,1.073,0,0,1-.51.14h0A1,1,0,0,1,559.62,267.78Zm5.279-3.091a1.018,1.018,0,0,1,.361-1.37h0a1,1,0,0,1,1.37.361h0a1,1,0,0,1-.36,1.37h0a1.026,1.026,0,0,1-.5.139h0A1.007,1.007,0,0,1,564.9,264.689Z" fill="#4D9987"/><path d="M571.06,262.1a1.025,1.025,0,0,1-.39-.08,1.063,1.063,0,0,1-.54-.541.994.994,0,0,1-.08-.379,1.087,1.087,0,0,1,.08-.39.866.866,0,0,1,.22-.32.62.62,0,0,1,.15-.13c.05-.031.109-.06.17-.09s.12-.04.189-.061a.981.981,0,0,1,.9.281,1,1,0,0,1,.22.32,1.109,1.109,0,0,1,.08.39,1,1,0,0,1-.3.7.882.882,0,0,1-.321.22A1.052,1.052,0,0,1,571.06,262.1Z" fill="#4D9987"/><path d="M328.78,252.47a1,1,0,0,1-.711-1.71.941.941,0,0,1,.151-.13c.05-.03.11-.061.17-.09a1.015,1.015,0,0,1,1.09.22.978.978,0,0,1,0,1.41A.981.981,0,0,1,328.78,252.47Z" fill="#4D9987"/><path d="M382.51,283.62a1.008,1.008,0,0,1-.37-1.37h0a1.006,1.006,0,0,1,1.37-.36h0a1,1,0,0,1,.37,1.36h0a1.011,1.011,0,0,1-.87.5h0A1.009,1.009,0,0,1,382.51,283.62Zm-5.42-3.13a1.007,1.007,0,0,1-.37-1.37h0a1,1,0,0,1,1.37-.36h0a1,1,0,0,1,.36,1.36h0a.993.993,0,0,1-.86.5h0A1.009,1.009,0,0,1,377.09,280.49Zm-5.43-3.131a1,1,0,0,1-.36-1.369h0a1,1,0,0,1,1.36-.36h0a1,1,0,0,1,.37,1.37h0a1.009,1.009,0,0,1-.87.5h0A1.01,1.01,0,0,1,371.66,277.359Zm-5.42-3.13a1,1,0,0,1-.37-1.359h0a1,1,0,0,1,1.37-.37h0a1.009,1.009,0,0,1,.369,1.37h0a1.018,1.018,0,0,1-.869.5h0A1.017,1.017,0,0,1,366.24,274.229Zm-5.421-3.129a1,1,0,0,1-.369-1.36h0a1.009,1.009,0,0,1,1.369-.37h0a1,1,0,0,1,.361,1.37h0a.991.991,0,0,1-.861.5h0A.928.928,0,0,1,360.819,271.1Zm-5.429-3.13a.994.994,0,0,1-.36-1.361h0a1,1,0,0,1,1.36-.369h0a1,1,0,0,1,.37,1.369h0a1.006,1.006,0,0,1-.87.5h0A.933.933,0,0,1,355.39,267.97Zm-5.42-3.12a1.012,1.012,0,0,1-.37-1.371h0a1.012,1.012,0,0,1,1.37-.37h0a1,1,0,0,1,.36,1.37h0a.99.99,0,0,1-.86.5h0A1.019,1.019,0,0,1,349.97,264.85Zm-5.42-3.13a1,1,0,0,1-.37-1.37h0a1,1,0,0,1,1.37-.36h0a.994.994,0,0,1,.36,1.36h0a.991.991,0,0,1-.86.5h0A.983.983,0,0,1,344.55,261.72Zm-5.43-3.13a1,1,0,0,1-.36-1.37h0a.986.986,0,0,1,1.36-.361h0a.991.991,0,0,1,.37,1.361h0a1.006,1.006,0,0,1-.87.5h0A1.009,1.009,0,0,1,339.12,258.59Zm-5.42-3.13a1,1,0,0,1-.37-1.36h0a1,1,0,0,1,1.37-.371h0a.988.988,0,0,1,.36,1.361h0a.969.969,0,0,1-.86.51h0A1.019,1.019,0,0,1,333.7,255.46Z" fill="#4D9987"/><path d="M388.439,286.88a1.019,1.019,0,0,1-.389-.07,1,1,0,0,1-.32-.22.875.875,0,0,1-.22-.32,1.037,1.037,0,0,1-.071-.39.966.966,0,0,1,.291-.7.866.866,0,0,1,.32-.22.956.956,0,0,1,.58-.061,1.536,1.536,0,0,1,.189.061.867.867,0,0,1,.171.09.934.934,0,0,1,.15.13.974.974,0,0,1,.3.7,1.026,1.026,0,0,1-.08.39,1,1,0,0,1-.219.32,1.02,1.02,0,0,1-.321.22A1,1,0,0,1,388.439,286.88Z" fill="#4D9987"/><path d="M230.305,170.179c5.144-2.97,9.8-3.245,13.166-1.29l8.979,5.217c-3.365-1.955-8.023-1.679-13.167,1.291-10.232,5.907-18.5,20.229-18.468,31.987.017,5.84,2.08,9.95,5.405,11.883l-8.978-5.218c-3.326-1.933-5.388-6.042-5.405-11.883C211.8,190.409,220.073,176.086,230.305,170.179Z" fill="#fff"/><path d="M230.816,182.66c-5.956,6.982-10.024,16.478-10,24.724.017,5.84,2.08,9.95,5.405,11.883l-8.978-5.218c-3.326-1.933-5.388-6.042-5.405-11.883-.023-8.245,4.044-17.742,10-24.723Z" fill="#fff"/><path d="M239.283,175.4c-10.232,5.907-18.5,20.23-18.467,31.986s8.356,16.5,18.588,10.593,18.484-20.22,18.45-31.977S249.515,169.489,239.283,175.4Z" fill="#E9EBDF"/><path d="M239.331,183.9a3.412,3.412,0,0,0-1.55,2.684c0,.987.7,1.385,1.56.889a3.414,3.414,0,0,0,1.548-2.684C240.887,183.8,240.189,183.405,239.331,183.9Z" fill="#4D9987"/><path d="M231.089,221.526a10.559,10.559,0,0,1-5.335-1.374c-3.813-2.193-5.922-6.727-5.939-12.765-.034-12.059,8.475-26.8,18.968-32.857a1,1,0,0,1,1,1.733c-9.939,5.738-18,19.7-17.968,31.118.015,5.295,1.768,9.215,4.937,11.038,3.193,1.837,7.509,1.374,12.151-1.309a1,1,0,1,1,1,1.733A17.9,17.9,0,0,1,231.089,221.526Z" fill="#4D9987"/><path d="M231.114,221.494a10.572,10.572,0,0,1-5.381-1.388l-.014.026,0,0-8.975-5.216c-3.789-2.2-5.884-6.727-5.9-12.744-.034-12.06,8.475-26.8,18.968-32.856,5.3-3.061,10.332-3.52,14.17-1.289l8.977,5.218h0l.053.031h0c3.758,2.213,5.835,6.726,5.852,12.721.034,12.059-8.468,26.793-18.952,32.847A17.856,17.856,0,0,1,231.114,221.494Zm-4.925-3.468c3.2,2.237,7.836,1.9,12.714-.916,9.931-5.733,17.984-19.689,17.952-31.108-.015-5.3-1.768-9.219-4.934-11.043v0l-8.953-5.2c-3.191-1.854-7.51-1.395-12.164,1.293h0c-9.94,5.737-18,19.7-17.968,31.117.015,5.277,1.758,9.191,4.907,11.022l8.413,4.888Z" fill="#0E352C"/><path d="M297.069,189.083V224.86l-55.428-31.98a2.169,2.169,0,0,0-2.315.167,6.958,6.958,0,0,0-3.158,5.47,2.144,2.144,0,0,0,1.023,2.07l59.878,34.549h0a5.933,5.933,0,0,0,8.9-5.138V189.083Z" fill="#E9EBDF"/><path d="M300.036,236.942a6.916,6.916,0,0,1-3.467-.94L236.69,201.453a3.1,3.1,0,0,1-1.522-2.933,7.952,7.952,0,0,1,3.658-6.339,3.15,3.15,0,0,1,3.363-.137l53.88,31.084V189.083a1,1,0,0,1,1-1h8.9a1,1,0,0,1,1,1V230a6.96,6.96,0,0,1-6.933,6.944Zm-59.328-43.317a1.833,1.833,0,0,0-.882.288,5.95,5.95,0,0,0-2.658,4.6c0,.6.17,1.032.463,1.175l59.938,34.581a4.933,4.933,0,0,0,7.4-4.272V190.083h-6.9v34.776a1,1,0,0,1-1.5.867l-55.428-31.98A.782.782,0,0,0,240.708,193.625Z" fill="#0E352C"/><path d="M303.969,231a1,1,0,0,1-1-1V198.859a1,1,0,1,1,2,0V230A1,1,0,0,1,303.969,231Z" fill="#fff"/><path d="M314.531,155.722,382.955,194.2l14.575-21.332-64.121-36.594a12.622,12.622,0,0,0-18.878,10.963Z" fill="#E9EBDF"/><path d="M382.953,195.2a.993.993,0,0,1-.489-.128L314.04,156.594a1,1,0,0,1-.51-.872v-8.485a13.622,13.622,0,0,1,20.374-11.83L398.026,172a1,1,0,0,1,.329,1.433l-14.576,21.332A1,1,0,0,1,382.953,195.2ZM315.53,155.137l67.116,37.743,13.447-19.68-63.181-36.056a11.622,11.622,0,0,0-17.382,10.093Z" fill="#0E352C"/><path d="M278.765,168.02c0-.114.009-.229.016-.344s.017-.23.028-.345.023-.232.038-.348.032-.238.051-.357l0-.015V166.6c.018-.111.037-.224.058-.336s.048-.247.075-.371.056-.248.087-.372.064-.251.1-.377c.028-.1.058-.2.089-.3l.006-.022.015-.052c.037-.122.077-.245.118-.367s.083-.242.126-.363.086-.232.131-.348.091-.231.139-.346c.038-.091.078-.182.117-.273l.008-.019.021-.048c.051-.115.1-.229.156-.343s.12-.251.182-.376c.071-.142.144-.284.219-.424.085-.16.175-.317.265-.474.012-.02.023-.041.035-.062s.025-.046.039-.069q.261-.446.547-.873.217-.325.449-.639l0,0,0,0c.1-.138.2-.275.311-.409.091-.115.182-.228.275-.34s.183-.217.276-.323.184-.206.278-.307c.018-.02.038-.04.057-.06l.025-.026c.069-.074.139-.148.209-.22.1-.1.2-.2.3-.3s.208-.2.313-.292.211-.186.318-.276c.053-.045.107-.088.161-.132l.038-.031.118-.1c.1-.081.208-.161.313-.239s.206-.149.311-.22.2-.135.3-.2.2-.125.3-.185l.07-.041,22.291-12.87c.076-.043.152-.086.227-.126.1-.053.195-.1.292-.152.063-.031.125-.059.187-.088l.045-.021.057-.027c.1-.042.19-.083.285-.121s.192-.074.287-.108l.049-.016.04-.013c.066-.022.131-.044.2-.064.1-.03.2-.057.295-.081.046-.012.092-.021.138-.031l.061-.014.092-.02c.105-.02.209-.038.312-.051.063-.009.124-.013.186-.019l.067-.007.064-.007c.113-.008.224-.011.334-.011.048,0,.094.005.142.007l.112,0c.038,0,.077,0,.115.006a3.928,3.928,0,0,1,.41.059l.006,0c.03.006.058.017.087.024a3.648,3.648,0,0,1,.4.111c.01,0,.019.01.03.014a3.424,3.424,0,0,1,.546.252l68.392,39.764-.011-.006c1.283.74,2.08,2.32,2.087,4.572l.072,25.614a15.632,15.632,0,0,1-7.094,12.3l-22.291,12.87c-1.992,1.149-3.8,1.248-5.093.48.007,0,.012.012.02.017l-68.393-39.764a3.461,3.461,0,0,1-.778-.642c-.071-.075-.132-.161-.2-.244a3.9,3.9,0,0,1-.258-.319,4.524,4.524,0,0,1-.268-.487l-.01-.023-.008-.02c-.054-.117-.106-.236-.153-.362s-.086-.246-.124-.375-.067-.239-.095-.364c-.012-.051-.021-.1-.032-.157l-.008-.042c-.01-.05-.022-.1-.03-.15-.019-.111-.037-.225-.051-.341s-.026-.227-.036-.343-.016-.223-.021-.337-.007-.228-.008-.345v-.021l-.073-25.615C278.76,168.234,278.762,168.127,278.765,168.02Z" fill="#fff"/><path d="M356.883,211.086c-.007-2.541-.907-4.325-2.356-5.159l.014.006-74.4-43.254.006-.015c.059-.126.12-.251.182-.376.071-.142.144-.284.219-.424.085-.16.175-.317.265-.474.012-.02.023-.041.035-.062s.025-.046.039-.069q.26-.446.547-.873.217-.325.449-.639l0,0,0,0c.1-.138.2-.275.311-.409q.135-.173.275-.34c.091-.109.183-.217.276-.323s.184-.206.277-.307l.058-.06.025-.026c.069-.074.138-.148.209-.22.1-.1.2-.2.3-.3s.208-.2.314-.292.211-.186.318-.276c.053-.045.107-.088.161-.132l.037-.031.119-.1c.1-.081.208-.161.313-.239s.206-.149.31-.22.2-.135.3-.2.2-.125.3-.185l.07-.041,22.291-12.87c.076-.043.152-.086.227-.126.1-.053.195-.1.292-.152.063-.031.125-.059.187-.088l.045-.021.057-.027c.1-.042.19-.083.285-.121s.192-.074.287-.108l.049-.016.04-.013c.066-.022.131-.044.2-.064q.149-.045.294-.081c.047-.012.093-.021.139-.031l.061-.014.092-.02c.105-.02.209-.038.312-.051.063-.009.124-.013.186-.019l.067-.007.064-.007c.112-.008.224-.011.334-.011.048,0,.094.005.142.007l.112,0c.038,0,.077,0,.115.006a3.871,3.871,0,0,1,.409.059l.007,0c.03.006.058.017.087.024a3.648,3.648,0,0,1,.4.111c.01,0,.019.01.03.014a3.374,3.374,0,0,1,.545.252l68.393,39.764-.012-.006c1.284.74,2.081,2.32,2.088,4.572l.072,25.614a15.632,15.632,0,0,1-7.094,12.3l-19.714,11.382Z" fill="#fff"/><path d="M354.258,195.811a15.65,15.65,0,0,0-7.1,12.293l.073,25.614c.013,4.531,3.218,6.346,7.151,4.076l22.291-12.87a15.632,15.632,0,0,0,7.094-12.3l-.072-25.614c-.013-4.519-3.208-6.34-7.141-4.069Z" fill="#E9EBDF"/><path d="M351.182,239.775a4.685,4.685,0,0,1-2.282-.569.832.832,0,0,1-.1-.051l-68.394-39.763a4.509,4.509,0,0,1-1-.823c-.069-.073-.136-.158-.2-.244l-.109-.134a2.79,2.79,0,0,1-.256-.33,5.435,5.435,0,0,1-.33-.6c-.086-.19-.148-.333-.2-.484s-.1-.289-.147-.44-.078-.281-.11-.424c0-.013-.024-.117-.026-.129l.961-.293-.983.189-.036-.19c-.018-.1-.038-.232-.055-.365s-.03-.261-.04-.394c-.01-.118-.017-.242-.022-.368s-.009-.251-.01-.38l-.072-25.64,0-.352v-.007c0-.125.009-.251.017-.377s.018-.244.03-.37.026-.252.042-.38.034-.254.054-.378c0-.013,0-.026.006-.04l.235-1.153c.035-.139.071-.274.109-.409l.093-.321c0-.015.031-.1.036-.119.025-.087.067-.218.112-.351l.274-.757c.047-.122.1-.246.148-.369l.088-.205c0-.008.016-.037.029-.066l.025-.06c.064-.146.121-.269.178-.392s.126-.263.193-.4c.073-.149.152-.3.232-.45.089-.167.185-.335.282-.5l.073-.133c.186-.316.379-.623.58-.925.155-.23.313-.456.476-.677l.012-.015c.105-.144.214-.285.323-.424.093-.119.192-.241.292-.361s.192-.226.29-.34.2-.225.3-.331l.052-.054c.017-.02.035-.038.054-.058.054-.058.131-.14.21-.219.1-.1.2-.205.311-.309s.231-.218.346-.32.223-.2.34-.3l.122-.1.718.7-.636-.771.14-.113c.108-.086.223-.174.338-.258s.223-.162.337-.241l.324-.214c.117-.074.226-.14.334-.2L307.9,142.173c.112-.061.22-.116.327-.17l.218-.1.515.864-.409-.912c.107-.049.215-.094.321-.137s.22-.086.329-.124l.112-.037.214-.07c.115-.035.233-.067.349-.095l.337-.076c.122-.024.242-.042.36-.06l.189-.02.206.985-.091-1c.222-.018.356-.022.489-.022l.154.006.153.007c.075,0,.121.006.166.011a4.366,4.366,0,0,1,.507.074h0c.025,0,.049.012.074.018l.068.019a4.176,4.176,0,0,1,.487.137,1.115,1.115,0,0,1,.128.054,3.677,3.677,0,0,1,.618.29l68.392,39.763.055.034c1.618.971,2.511,2.882,2.517,5.394l.073,25.614a16.526,16.526,0,0,1-7.594,13.169l-22.291,12.87A7.486,7.486,0,0,1,351.182,239.775Zm-1.484-2.412c.032.015.065.032.1.05,1.031.611,2.481.439,4.083-.485l22.291-12.87a14.565,14.565,0,0,0,6.594-11.431l-.073-25.614c0-1.805-.568-3.121-1.585-3.708-.019-.01-.037-.022-.054-.033l-68.331-39.727a2.424,2.424,0,0,0-.387-.178l-.052-.021c-.085-.028-.173-.048-.26-.069-.02,0-.069-.017-.094-.024a2.532,2.532,0,0,0-.279-.039l-.177-.008-.073-1-.033,1c-.082,0-.17,0-.259.009l-.168-.987.059,1-.153.014c-.07.01-.156.025-.245.041l-.313-.954.209.978-.137.03c-.084.021-.163.043-.243.067l-.11.036-.153.05c-.064.023-.146.054-.227.086s-.167.07-.251.107l-.511-.864.413.911-.159.074c-.084.041-.171.087-.258.134l-.2.113-22.9,13.256c-.094.063-.188.132-.28.2s-.191.143-.284.217l-.1.076-.109.089-.087.071c-.1.087-.2.171-.293.257s-.2.183-.3.273-.18.177-.272.271l-.2.206-.8-.607.731.682-.27.3c-.081.093-.167.193-.251.295s-.176.213-.259.32c-.1.129-.2.256-.294.385h0l0,.008h0c-.146.2-.287.4-.424.6-.179.267-.351.543-.515.823l-.925-.4.867.5c-.1.169-.181.316-.259.464s-.141.266-.206.4-.118.239-.172.356l-.146.32c-.007.017-.044.1-.052.115l-.46,1.2c-.037.108-.073.221-.108.336l-.1.348c-.035.123-.066.239-.094.357l-.2,1,0,.01h0c-.02.122-.034.232-.049.339s-.024.2-.033.31-.019.209-.026.313-.011.212-.014.312l0,.293.072,25.611c0,.12,0,.225.008.326s.011.2.018.3.019.2.031.3.027.193.045.289l-.956.323.977-.21.026.131c.036.161.063.264.092.363s.065.2.1.306.079.2.123.29a3.027,3.027,0,0,0,.221.41.721.721,0,0,0,.078.094l.119.141.071.092a1.082,1.082,0,0,0,.07.088,2.5,2.5,0,0,0,.557.466Z" fill="#0E352C"/><path d="M347.153,229.184a1,1,0,0,1-1-1V208.1a16.528,16.528,0,0,1,7.6-13.16l17.822-10.289a1,1,0,0,1,1,1.733l-17.822,10.289a14.566,14.566,0,0,0-6.6,11.424v20.083A1,1,0,0,1,347.153,229.184Z" fill="#4D9987"/><path d="M373.567,196.385v0c-2.083-1.2-4.964-1.031-8.146.806-6.327,3.653-11.45,12.517-11.429,19.8.01,3.62,1.3,6.164,3.362,7.357l0,0,8.467,4.888,16.216-27.964Z" fill="#fff"/><path d="M373.566,196.387c-2.083-1.2-4.964-1.031-8.146.806a23.38,23.38,0,0,0-8.069,8.5l16.573,9.569,8.11-13.985-8.467-4.888Z" fill="#fff"/><ellipse cx="373.924" cy="215.258" rx="16.164" ry="9.363" transform="translate(-0.067 430.398) rotate(-59.838)" fill="#E9EBDF"/><path d="M362.457,222.878a1,1,0,0,1-1-1c-.021-7.585,5.33-16.856,11.93-20.666a14.752,14.752,0,0,1,2.106-1.009,1,1,0,0,1,.711,1.869,12.756,12.756,0,0,0-1.817.872c-6.046,3.491-10.949,11.983-10.93,18.928a1,1,0,0,1-1,1Z" fill="#4D9987"/><path d="M368.824,231.01a6.923,6.923,0,0,1-3.436-.87c-.025-.011-.048-.024-.071-.036l-8.465-4.889-.062-.038c-2.44-1.445-3.788-4.347-3.8-8.184-.022-7.585,5.329-16.855,11.93-20.666,3.37-1.947,6.592-2.245,9.084-.842.02.011.042.022.062.034l8.467,4.887c.024.014.046.028.068.043,2.433,1.445,3.778,4.348,3.789,8.185.022,7.585-5.329,16.855-11.929,20.667A11.437,11.437,0,0,1,368.824,231.01Zm-2.569-2.675.064.034c1.854,1.071,4.392.787,7.143-.8,6.047-3.491,10.949-11.983,10.929-18.928-.009-3.132-1.024-5.44-2.859-6.5l-.061-.039-8.347-4.818-.058-.031c-1.854-1.07-4.39-.786-7.145.807-6.047,3.49-10.95,11.981-10.93,18.927.009,3.127,1.025,5.434,2.862,6.493l.056.036Z" fill="#0E352C"/><ellipse cx="373.924" cy="215.257" rx="9.867" ry="5.715" transform="translate(-0.067 430.398) rotate(-59.838)" fill="#0E352C"/><polygon points="282.871 172.1 282.859 176.44 279.084 174.26 279.096 169.92 282.871 172.1" fill="#0E352C"/><path d="M322.922,130.29l74.608,42.579-43.274,25.3-12.825,18.77a3.348,3.348,0,0,1-4.438,1.01l-62.379-36.016a5.021,5.021,0,0,1-2.511-4.349V155.072a8.368,8.368,0,0,1,4.15-7.227l29.936-17.473A16.736,16.736,0,0,1,322.922,130.29Z" fill="#fff"/><path d="M322.921,130.29l74.609,42.579-43.274,25.3L272.1,150.267l34.086-19.895A16.736,16.736,0,0,1,322.921,130.29Z" fill="#fff"/><path d="M338.653,219.4a4.307,4.307,0,0,1-2.16-.577l-61.846-35.708a1,1,0,1,1,1-1.732l61.846,35.708a2.357,2.357,0,0,0,3.112-.709l12.826-18.77a.992.992,0,0,1,.32-.3l41.78-24.43-73.1-41.722a15.788,15.788,0,0,0-15.735.077,1,1,0,1,1-1.007-1.726,17.778,17.778,0,0,1,17.733-.087L398.026,172a1,1,0,0,1,.009,1.731l-43.08,25.191-12.7,18.584A4.358,4.358,0,0,1,338.653,219.4Z" fill="#0E352C"/><polygon points="287.08 176.482 287.067 180.822 283.292 178.642 283.304 174.303 287.08 176.482" fill="#4D9987"/><polygon points="332.23 202.705 332.218 207.044 328.442 204.865 328.455 200.525 332.23 202.705" fill="#4D9987"/><path d="M344.851,193.689a1,1,0,0,1-.5-.135L278.58,155.2a1,1,0,1,1,1.008-1.728l65.767,38.35a1,1,0,0,1-.5,1.864Z" fill="#E9EBDF"/><path d="M338.653,219.4a4.307,4.307,0,0,1-2.16-.577L274.113,182.8a6.039,6.039,0,0,1-3.009-5.214V155.072a9.4,9.4,0,0,1,4.645-8.091l29.936-17.472a17.78,17.78,0,0,1,17.734-.087h0L398.026,172a1,1,0,0,1,.009,1.731l-43.08,25.191-12.7,18.584A4.358,4.358,0,0,1,338.653,219.4Zm-24.026-90.3a15.749,15.749,0,0,0-7.935,2.138l-29.935,17.473a7.4,7.4,0,0,0-3.653,6.364v22.517a4.031,4.031,0,0,0,2.009,3.481l62.38,36.017a2.357,2.357,0,0,0,3.112-.709l12.826-18.77a.992.992,0,0,1,.32-.3l41.78-24.43-73.1-41.722A15.735,15.735,0,0,0,314.627,129.1Z" fill="#0E352C"/><path d="M296.122,227.313a.991.991,0,0,1-.5-.133l-54.482-31.434a1,1,0,1,1,1-1.732l54.482,31.433a1,1,0,0,1-.5,1.866Z" fill="#fff"/><path d="M351.406,171.548a.992.992,0,0,1-.5-.134l-36.679-21.177a1,1,0,1,1,1-1.732l36.679,21.177a1,1,0,0,1-.5,1.866Z" fill="#E9EBDF"/><path d="M673.534,131.538a3.672,3.672,0,0,1,3.672,3.672v53.729c0,1.171-1.644,2.12-3.672,2.12s-3.673-.949-3.673-2.12V135.21A3.672,3.672,0,0,1,673.534,131.538Z" fill="#fff"/><path d="M673.534,191.059h0c2.028,0,3.672-.949,3.672-2.12V136.122a1.836,1.836,0,0,0-1.836-1.836h0a1.836,1.836,0,0,0-1.836,1.836Z" fill="#E9EBDF"/><path d="M673.534,192.059c-2.664,0-4.673-1.342-4.673-3.121V135.21a4.673,4.673,0,0,1,9.345,0v53.728C678.206,190.717,676.2,192.059,673.534,192.059Zm0-59.521a2.676,2.676,0,0,0-2.673,2.672v53.728c0,.4,1.015,1.121,2.673,1.121s2.672-.726,2.672-1.121V135.21A2.674,2.674,0,0,0,673.534,132.538Z" fill="#0E352C"/><path d="M673.534,162.68c-2.664,0-4.673-1.342-4.673-3.121a1,1,0,1,1,2,0c0,.4,1.015,1.121,2.673,1.121s2.672-.726,2.672-1.121a1,1,0,1,1,2,0C678.206,161.338,676.2,162.68,673.534,162.68Z" fill="#0E352C"/><path d="M576.862,204.541l-.07,21.531c0,.03,0,.059,0,.089a6.99,6.99,0,0,0,.054.791c.007.049.02.1.028.146.012.083.031.166.046.249.024.129.041.258.072.386s.082.268.123.4c.026.082.047.164.076.246.015.045.024.089.04.133a8.017,8.017,0,0,0,.342.792c.008.016.019.032.027.048.031.061.07.12.1.18.106.2.21.4.334.589.041.064.094.127.137.191.079.117.164.232.25.347s.147.218.233.324.165.179.243.269c.127.148.258.3.4.44.075.079.136.161.215.239.174.173.361.344.553.513.02.018.037.036.057.053.23.2.47.4.723.592.1.076.21.148.314.223s.2.143.3.214c.389.269.8.534,1.234.788l27.867,16.089c.457.264.933.509,1.421.742.157.075.321.142.482.215.338.151.679.3,1.03.437.193.076.39.147.587.218.332.121.668.237,1.01.345q.31.1.625.191c.131.039.258.083.391.12s.29.064.432.1q.664.173,1.343.315c.145.03.283.072.429.1.122.024.248.039.371.062.285.052.571.1.858.142.188.029.371.066.56.092.155.021.312.034.467.053.22.027.44.051.661.074.151.015.3.038.452.051.258.023.518.035.777.051.164.011.327.025.492.033.068,0,.135.011.2.014q.7.032,1.406.035l.1,0c.095,0,.19,0,.286,0,.329,0,.658,0,.986-.015.154,0,.308-.018.462-.025s.317-.016.475-.026c.138-.009.276-.013.414-.023.369-.027.736-.065,1.1-.1.064-.007.129-.011.193-.018l.052,0q.686-.08,1.363-.186c.083-.013.164-.031.247-.045.165-.027.327-.059.49-.089.221-.04.444-.075.663-.12.172-.035.339-.079.509-.117.2-.045.4-.09.6-.138.122-.03.246-.054.367-.085.219-.057.429-.127.645-.188.24-.068.48-.134.717-.209.081-.025.167-.045.248-.072.17-.055.329-.125.5-.183.365-.127.727-.257,1.081-.4.1-.039.2-.069.3-.11.221-.092.432-.2.648-.293.153-.07.308-.136.458-.208.477-.23.944-.471,1.391-.731l43.866-25.481c3.386-1.968,5.292-4.466,5.721-7.034a6.723,6.723,0,0,0,.094-1.1l.069-21.53c-.008,2.946-1.945,5.888-5.814,8.137l-43.867,25.481c-.446.26-.913.5-1.39.731-.151.072-.307.138-.46.208q-.463.212-.944.4c-.353.142-.716.272-1.08.4-.248.086-.493.176-.745.255-.236.075-.477.141-.717.209-.335.095-.67.189-1.012.272-.2.049-.4.094-.6.139-.388.086-.778.166-1.172.237-.164.03-.326.062-.491.089-.549.091-1.1.172-1.661.235-.065.008-.13.012-.194.019-.5.054-1.008.095-1.515.127-.159.01-.318.018-.478.026q-.721.035-1.447.04c-.095,0-.19,0-.286,0-.568,0-1.137-.018-1.7-.047-.164-.008-.328-.022-.493-.033q-.615-.039-1.227-.1c-.221-.023-.442-.047-.662-.074-.344-.042-.685-.093-1.026-.145-.287-.045-.574-.09-.858-.142s-.535-.106-.8-.162q-.678-.143-1.342-.315c-.276-.071-.553-.142-.824-.221q-.315-.092-.625-.191c-.341-.108-.677-.224-1.01-.345-.2-.071-.394-.142-.587-.218-.35-.138-.692-.286-1.03-.437-.16-.073-.325-.14-.482-.215-.488-.233-.964-.478-1.42-.742l-27.868-16.089c-.439-.254-.844-.519-1.234-.789-.1-.07-.2-.142-.3-.213-.366-.266-.717-.536-1.036-.815-.021-.017-.038-.036-.058-.053-.277-.245-.526-.5-.768-.752-.139-.145-.27-.292-.4-.44-.168-.2-.328-.393-.476-.593-.085-.115-.171-.231-.25-.347a9.08,9.08,0,0,1-.471-.78c-.032-.06-.071-.119-.1-.18a7.826,7.826,0,0,1-.409-.973c-.028-.082-.05-.164-.075-.246a7.14,7.14,0,0,1-.2-.788c-.015-.083-.034-.166-.046-.249a6.812,6.812,0,0,1-.082-1.026v0Z" fill="#E9EBDF"/><path d="M576.758,226.072v.089a6.767,6.767,0,0,0,.055.791c.006.049.02.1.027.146.012.083.031.166.047.249.024.129.04.258.071.386s.082.268.124.4c.025.082.047.164.075.246.015.045.024.089.041.133a7.777,7.777,0,0,0,.341.792c.008.016.019.032.027.048.031.061.07.12.1.18.106.2.21.4.334.589.041.064.094.127.137.191.079.117.165.232.25.347s.148.218.233.324.165.179.243.269c.127.148.258.3.4.44.075.079.136.161.215.239.175.173.361.344.553.513.02.018.038.036.058.053q.344.3.722.592c.1.076.211.148.314.223s.2.143.3.214c.39.269.8.534,1.234.788l27.868,16.089c.456.264.932.509,1.42.742.157.075.322.142.482.215.338.151.679.3,1.03.437.193.076.39.147.587.218.333.121.668.237,1.01.345q.31.1.625.191c.132.039.259.083.392.12s.289.064.432.1q.663.173,1.342.315c.145.03.284.072.429.1.123.024.249.039.372.062.284.052.57.1.858.142.187.029.371.066.559.092.155.021.312.034.468.053.22.027.439.051.66.074.152.015.3.038.453.051.258.023.517.035.776.051.164.011.328.025.492.033.068,0,.135.011.2.014q.7.032,1.405.035l.095,0c.1,0,.191,0,.286,0,.329,0,.658,0,.987-.015.154,0,.307-.018.461-.025l.029,0V232.221c-.468.022-.938.036-1.407.039-.1,0-.191,0-.286,0-.569,0-1.138-.018-1.705-.047-.164-.008-.328-.022-.492-.033q-.617-.039-1.227-.1c-.222-.023-.442-.047-.662-.074-.344-.042-.686-.093-1.027-.145-.287-.045-.574-.09-.858-.142s-.534-.106-.8-.162q-.68-.143-1.343-.315c-.276-.071-.552-.142-.824-.221q-.315-.092-.625-.191c-.341-.108-.677-.224-1.009-.345-.2-.071-.394-.142-.588-.218-.35-.138-.691-.286-1.029-.437-.161-.073-.325-.14-.483-.215-.487-.233-.964-.478-1.42-.742l-27.868-16.089c-.439-.254-.844-.519-1.234-.789-.1-.07-.2-.142-.3-.213-.365-.266-.716-.536-1.036-.815-.02-.017-.038-.036-.058-.053-.277-.245-.526-.5-.768-.752q-.207-.217-.4-.44c-.168-.2-.328-.393-.476-.593-.085-.115-.171-.231-.249-.347a8.6,8.6,0,0,1-.471-.78c-.033-.06-.072-.119-.1-.18a7.834,7.834,0,0,1-.41-.973c-.028-.082-.05-.164-.075-.246a6.917,6.917,0,0,1-.195-.788c-.016-.083-.034-.166-.047-.249a6.812,6.812,0,0,1-.082-1.026v0Z" fill="#fff"/><path d="M606.9,249.314a1,1,0,0,1-.5-.133l-20.729-11.968a1,1,0,0,1-.5-.866v-4a3.592,3.592,0,0,1,1.526-3.267,2.87,2.87,0,0,1,2.943.156l14.792,8.54a8.1,8.1,0,0,1,3.468,6.539v4a1,1,0,0,1-1,1ZM587.175,235.77,605.9,246.582v-2.263a6.115,6.115,0,0,0-2.468-4.806h0l-14.792-8.54c-.227-.131-.651-.324-.943-.157-.255.147-.526.627-.526,1.535Z" fill="#4D9987"/><ellipse cx="640.846" cy="238.304" rx="2.893" ry="1.67" transform="translate(115.004 675.297) rotate(-60.126)" fill="#4D9987"/><ellipse cx="678.567" cy="216.526" rx="2.893" ry="1.67" transform="translate(152.82 697.075) rotate(-60.126)" fill="#4D9987"/><path d="M582.727,212.786c-7.832-4.522-7.873-11.855-.086-16.381l43.867-25.482c7.787-4.525,20.448-4.525,28.28,0l27.867,16.09c7.832,4.521,7.873,11.855.086,16.381l-43.866,25.481c-7.788,4.526-20.448,4.526-28.28,0Z" fill="#fff"/><ellipse cx="622.575" cy="205.92" rx="5.605" ry="9.709" transform="translate(414.774 827.87) rotate(-89.827)" fill="#4D9987"/><path d="M622.638,216.633h-.094c-9.992-.03-17.806-4.759-17.788-10.765.018-5.986,7.812-10.657,17.759-10.657h.093a29.289,29.289,0,0,1,5.219.485l19.592-11.175a10.377,10.377,0,0,1,10.344.053l.632.369a4.505,4.505,0,0,1-.041,7.8L639.847,203.3a6.828,6.828,0,0,1,.549,2.675c-.009,2.964-1.945,5.706-5.45,7.715A25.133,25.133,0,0,1,622.638,216.633Zm-.116-19.422c-8.542,0-15.751,3.957-15.766,8.663-.014,4.722,7.219,8.732,15.794,8.759a23.3,23.3,0,0,0,11.4-2.676c2.86-1.64,4.438-3.766,4.445-5.987a5.134,5.134,0,0,0-.73-2.574l-.5-.869,20.2-11.519a2.5,2.5,0,0,0,.022-4.338l-.631-.369a8.37,8.37,0,0,0-8.345-.043L628.172,197.8l-.366-.073a27.184,27.184,0,0,0-5.2-.518Z" fill="#4D9987"/><path d="M626.016,204.96a1,1,0,0,1-.5-1.868l21.646-12.347a1,1,0,0,1,.99,1.736L626.51,204.828A.984.984,0,0,1,626.016,204.96Z" fill="#4D9987"/><path d="M624.607,254.794c-.573,0-1.055-.012-1.537-.034l-.983-.064c-.177-.01-.354-.021-.529-.037l-.462-.052c-.232-.023-.457-.049-.683-.076l-.189-.021c-.1-.01-.2-.021-.3-.034-.121-.017-.239-.038-.359-.058l-.217-.037c-.293-.045-.59-.093-.883-.147l-.381-.062c-.1-.02-.192-.043-.286-.067l-.159-.038c-.468-.1-.931-.207-1.388-.325l-.163-.037c-.1-.02-.192-.042-.285-.068s-.17-.05-.256-.077l-.148-.045c-.22-.065-.435-.131-.649-.2-.355-.112-.7-.232-1.047-.357l-.146-.053c-.157-.057-.314-.115-.468-.176-.365-.143-.722-.3-1.074-.457l-.164-.071c-.115-.05-.228-.1-.339-.152-.511-.243-1.01-.5-1.49-.778l-27.867-16.089c-.463-.267-.891-.547-1.3-.832l-.427-.3c-.078-.054-.156-.109-.229-.165-.266-.2-.522-.415-.768-.629-.013-.011-.068-.063-.079-.073-.19-.166-.391-.35-.58-.538-.064-.063-.118-.125-.172-.188-.213-.228-.356-.389-.5-.55l-.069-.074c-.068-.072-.136-.146-.195-.221s-.122-.162-.179-.244l-.075-.106c-.114-.155-.2-.271-.277-.387-.074-.1-.115-.154-.152-.212-.132-.207-.245-.417-.358-.629-.07-.122-.1-.176-.128-.229a8.56,8.56,0,0,1-.413-.943c-.009-.024-.04-.123-.047-.148-.025-.077-.049-.155-.071-.233l-.048-.151c-.038-.118-.076-.236-.106-.355s-.048-.226-.066-.337l-.1-.544a8.1,8.1,0,0,1-.064-.919v-.1l.069-21.533c0-.023,0-.046,0-.068.039-3.417,2.275-6.585,6.309-8.929h0l43.866-25.482c8.049-4.678,21.185-4.68,29.281-.006l27.868,16.09c4.009,2.314,6.288,5.514,6.375,8.886a1.006,1.006,0,0,1,.026.227l-.07,21.53a7.82,7.82,0,0,1-.107,1.266c-.493,2.948-2.7,5.694-6.2,7.732l-43.867,25.482c-.469.273-.959.526-1.46.767-.112.054-.227.106-.343.156l-.351.161c-.151.07-.3.14-.458.206-.074.03-.145.055-.216.081l-.1.035c-.367.146-.743.282-1.123.414l-.187.07c-.107.042-.215.083-.326.119l-.181.054c-.279.085-.483.143-.687.2l-.386.114c-.137.041-.276.083-.417.119l-.375.087c-.211.051-.415.1-.621.143l-.19.045c-.112.027-.224.054-.337.077-.144.03-.289.055-.436.08l-1.013.182c-.461.073-.93.138-1.4.191l-.108.009-.08.009c-.441.046-.818.085-1.2.113l-1.386.076c-.343.012-.681.014-1.019.016Zm-46.78-50.227-.069,21.507a6.142,6.142,0,0,0,.047.753l.045.235.02.1.025.143a1.755,1.755,0,0,0,.035.187c.016.068.04.137.063.206l.109.35c.006.02.031.1.036.121a6.636,6.636,0,0,0,.3.691l.115.2c.1.191.189.358.294.521l.121.166c.065.1.134.189.2.281l.14.195c.031.045.061.09.1.134s.057.064.087.095l.13.142c.12.141.239.274.365.407l.2.221c.158.157.33.313.506.468.268.238.491.421.726.6l.577.41c.367.254.749.5,1.164.743l27.868,16.091c.435.251.887.483,1.351.7.091.044.183.084.275.124l.187.082c.325.147.65.287.985.419.141.055.282.107.423.158l.145.053c.314.113.638.226.966.33q.3.095.6.185l.373.114c.063.018.123.03.184.043l.238.056c.426.11.857.212,1.3.3l.774.158c.275.049.552.093.83.136l.258.043c.1.018.191.034.289.048l.453.051c.209.025.423.05.638.071l.44.05c.156.014.314.023.473.032l.753.049.115.008c.541.026,1,.038,1.451.04l.1,0h0l.276,0c.315,0,.635,0,.953-.014l1.314-.072c.354-.026.712-.063,1.068-.1l.1-.01c.022,0,.119-.012.141-.013q.659-.077,1.315-.18l.98-.176c.126-.022.251-.043.375-.069l1.422-.329c.117-.03.229-.064.341-.1l.421-.123c.185-.052.37-.1.551-.162l.147-.042c.169-.051.243-.081.318-.11l.252-.094c.351-.122.7-.246,1.037-.383l.287-.1c.128-.054.256-.113.385-.174l.381-.174c.1-.043.193-.085.287-.131.456-.218.9-.448,1.325-.694l43.866-25.481c2.983-1.735,4.843-3.984,5.236-6.334a5.76,5.76,0,0,0,.08-.942l.067-20.667a.986.986,0,0,1-.041-.381v0c.249-2.882-1.7-5.746-5.357-7.854l-27.868-16.09c-7.544-4.356-19.781-4.354-27.276,0L583.144,197.27c-3.43,1.994-5.318,4.584-5.315,7.3Z" fill="#0E352C"/><path d="M624.747,233.245a29.961,29.961,0,0,1-14.652-3.5l-24.623-14.216a1,1,0,1,1,1-1.732L611.1,228.009c7.542,4.354,19.779,4.354,27.278,0l39.691-23.071a1,1,0,1,1,1.006,1.728l-39.692,23.071A29.768,29.768,0,0,1,624.747,233.245Z" fill="#4D9987"/><path d="M514.069,359.58a1,1,0,0,1-.38-.08.928.928,0,0,1-.33-.22.869.869,0,0,1-.21-.32.942.942,0,0,1,0-.76.953.953,0,0,1,.21-.33,1.048,1.048,0,0,1,1.421,0,.938.938,0,0,1,.21.33.953.953,0,0,1,0,.76,1.016,1.016,0,0,1-.21.32A1,1,0,0,1,514.069,359.58Z" fill="#4D9987"/><path d="M566.609,390.109a1.01,1.01,0,0,1-.369-1.369h0a1,1,0,0,1,1.369-.36h0a1,1,0,0,1,.371,1.36h0a1.007,1.007,0,0,1-.871.5h0A1,1,0,0,1,566.609,390.109Zm-5.3-3.069a.991.991,0,0,1-.371-1.36h0a1,1,0,0,1,1.371-.37h0a1,1,0,0,1,.36,1.37h0a.992.992,0,0,1-.86.5h0A.993.993,0,0,1,561.31,387.04ZM556,383.979a1,1,0,0,1-.36-1.37h0a1,1,0,0,1,1.36-.369h0a1.009,1.009,0,0,1,.37,1.369h0a1,1,0,0,1-.87.5h0A1.009,1.009,0,0,1,556,383.979Zm-5.3-3.069a1,1,0,0,1-.37-1.37h0a1,1,0,0,1,1.37-.36h0a.987.987,0,0,1,.36,1.36h0a.993.993,0,0,1-.86.5h0A1,1,0,0,1,550.7,380.91Zm-5.31-3.07a1,1,0,0,1-.361-1.361h0a1,1,0,0,1,1.361-.37h0a1,1,0,0,1,.37,1.37h0a1.006,1.006,0,0,1-.87.5h0A1.021,1.021,0,0,1,545.39,377.84Zm-5.3-3.06a1.009,1.009,0,0,1-.37-1.37h0a1,1,0,0,1,1.37-.36h0a.985.985,0,0,1,.36,1.36h0a.993.993,0,0,1-.86.5h0A1.009,1.009,0,0,1,540.09,374.78Zm-5.311-3.07a1.008,1.008,0,0,1-.359-1.37h0a1,1,0,0,1,1.359-.361h0a.987.987,0,0,1,.37,1.361h0a1,1,0,0,1-.87.5h0A1.009,1.009,0,0,1,534.779,371.71Zm-5.3-3.07a.987.987,0,0,1-.36-1.36h0a.988.988,0,0,1,1.36-.37h0a1.01,1.01,0,0,1,.37,1.37h0a1.02,1.02,0,0,1-.87.5h0A1.033,1.033,0,0,1,529.48,368.64Zm-5.3-3.06a1,1,0,0,1-.37-1.37h0a1.009,1.009,0,0,1,1.37-.37h0a1.009,1.009,0,0,1,.36,1.37h0a.992.992,0,0,1-.86.5h0A.983.983,0,0,1,524.18,365.58Zm-5.31-3.07a1,1,0,0,1-.36-1.37h0a1,1,0,0,1,1.36-.36h0a1,1,0,0,1,.37,1.369h0a1,1,0,0,1-.87.5h0A1.021,1.021,0,0,1,518.87,362.51Z" fill="#4D9987"/><path d="M572.42,393.31a1,1,0,0,1-.391-.07,1.057,1.057,0,0,1-.319-.22.983.983,0,0,1-.22-.331,1.064,1.064,0,0,1,0-.759,1.19,1.19,0,0,1,.22-.33,1.032,1.032,0,0,1,1.41,0,1.038,1.038,0,0,1,.3.71,1.019,1.019,0,0,1-.3.71,1.062,1.062,0,0,1-.32.22A.986.986,0,0,1,572.42,393.31Z" fill="#4D9987"/><path d="M514.069,359.58a1,1,0,0,1-.38-.08.928.928,0,0,1-.33-.22.869.869,0,0,1-.21-.32.942.942,0,0,1,0-.76.953.953,0,0,1,.21-.33,1.048,1.048,0,0,1,1.421,0,.938.938,0,0,1,.21.33.953.953,0,0,1,0,.76,1.016,1.016,0,0,1-.21.32A1,1,0,0,1,514.069,359.58Z" fill="#4D9987"/><path d="M566.609,390.109a1.01,1.01,0,0,1-.369-1.369h0a1,1,0,0,1,1.369-.36h0a1,1,0,0,1,.371,1.36h0a1.007,1.007,0,0,1-.871.5h0A1,1,0,0,1,566.609,390.109Zm-5.3-3.069a.991.991,0,0,1-.371-1.36h0a1,1,0,0,1,1.371-.37h0a1,1,0,0,1,.36,1.37h0a.992.992,0,0,1-.86.5h0A.993.993,0,0,1,561.31,387.04ZM556,383.979a1,1,0,0,1-.36-1.37h0a1,1,0,0,1,1.36-.369h0a1.009,1.009,0,0,1,.37,1.369h0a1,1,0,0,1-.87.5h0A1.009,1.009,0,0,1,556,383.979Zm-5.3-3.069a1,1,0,0,1-.37-1.37h0a1,1,0,0,1,1.37-.36h0a.987.987,0,0,1,.36,1.36h0a.993.993,0,0,1-.86.5h0A1,1,0,0,1,550.7,380.91Zm-5.31-3.07a1,1,0,0,1-.361-1.361h0a1,1,0,0,1,1.361-.37h0a1,1,0,0,1,.37,1.37h0a1.006,1.006,0,0,1-.87.5h0A1.021,1.021,0,0,1,545.39,377.84Zm-5.3-3.06a1.009,1.009,0,0,1-.37-1.37h0a1,1,0,0,1,1.37-.36h0a.985.985,0,0,1,.36,1.36h0a.993.993,0,0,1-.86.5h0A1.009,1.009,0,0,1,540.09,374.78Zm-5.311-3.07a1.008,1.008,0,0,1-.359-1.37h0a1,1,0,0,1,1.359-.361h0a.987.987,0,0,1,.37,1.361h0a1,1,0,0,1-.87.5h0A1.009,1.009,0,0,1,534.779,371.71Zm-5.3-3.07a.987.987,0,0,1-.36-1.36h0a.988.988,0,0,1,1.36-.37h0a1.01,1.01,0,0,1,.37,1.37h0a1.02,1.02,0,0,1-.87.5h0A1.033,1.033,0,0,1,529.48,368.64Zm-5.3-3.06a1,1,0,0,1-.37-1.37h0a1.009,1.009,0,0,1,1.37-.37h0a1.009,1.009,0,0,1,.36,1.37h0a.992.992,0,0,1-.86.5h0A.983.983,0,0,1,524.18,365.58Zm-5.31-3.07a1,1,0,0,1-.36-1.37h0a1,1,0,0,1,1.36-.36h0a1,1,0,0,1,.37,1.369h0a1,1,0,0,1-.87.5h0A1.021,1.021,0,0,1,518.87,362.51Z" fill="#4D9987"/><path d="M572.42,393.31a1,1,0,0,1-.391-.07,1.057,1.057,0,0,1-.319-.22.983.983,0,0,1-.22-.331,1.064,1.064,0,0,1,0-.759,1.19,1.19,0,0,1,.22-.33,1.032,1.032,0,0,1,1.41,0,1.038,1.038,0,0,1,.3.71,1.019,1.019,0,0,1-.3.71,1.062,1.062,0,0,1-.32.22A.986.986,0,0,1,572.42,393.31Z" fill="#4D9987"/><polygon points="510.339 350.54 514.069 358.578 500.146 356.424 510.339 350.54" fill="#fff"/><path d="M514.069,359.578a1,1,0,0,1-.153-.012l-13.923-2.153a1,1,0,0,1-.346-1.854l10.192-5.885a1,1,0,0,1,1.407.445l3.731,8.038a1,1,0,0,1-.908,1.421Zm-10.963-3.707,9.27,1.434-2.484-5.352Z" fill="#E9EBDF"/><path d="M556.289,420.3l80.762-46.628c7.956-4.593,19.377-5.947,29.4-4.089l-1-4.181h21.122v20.114h0c0,4.286-2.832,8.573-8.5,11.843l-15.291,8.829,9.653-1.28v20.113h0c0,7.141-4.714,14.282-14.153,19.731-17.856,10.309-46.2,10.864-65.2,1.675l-16.893,9.753c-11.329,6.541-29.7,6.541-41.027,0-5.664-3.27-8.5-7.557-8.5-11.843h0V424.223Z" fill="#E9EBDF"/><path d="M668.624,415.792c6.913-9.433,4.43-20.614-7.44-28.795l16.893-9.753c11.329-6.541,11.329-17.146,0-23.687h0c-11.329-6.541-29.7-6.541-41.027,0L535.167,412.379c-11.329,6.541-11.329,17.146,0,23.687s29.7,6.541,41.027,0l16.893-9.753c19,9.189,47.339,8.634,65.2-1.675a33.193,33.193,0,0,0,10.341-8.846" fill="#fff"/><path d="M555.681,441.95c-7.611,0-15.22-1.673-21.014-5.017a1,1,0,0,1,1-1.733c11.035,6.371,28.992,6.371,40.027,0l16.893-9.754a1,1,0,0,1,.935-.034c18.741,9.067,46.966,8.346,64.261-1.641a40.8,40.8,0,0,0,3.836-2.5,1,1,0,1,1,1.188,1.61,42.951,42.951,0,0,1-4.024,2.623c-17.958,10.367-46.074,11.177-65.652,1.937l-16.437,9.492C570.9,440.277,563.291,441.95,555.681,441.95Z" fill="#4D9987"/><path d="M668.337,394.633a1,1,0,0,1-.8-.393,30.281,30.281,0,0,0-6.925-6.42,1,1,0,0,1,.068-1.689l16.893-9.753a1,1,0,1,1,1,1.732l-15.553,8.979a31.1,31.1,0,0,1,6.107,5.936,1,1,0,0,1-.794,1.608Z" fill="#4D9987"/><path d="M555.681,462.062c-7.611,0-15.221-1.672-21.014-5.016s-9-7.864-9-12.71V424.223c0-4.847,3.2-9.36,9-12.709l101.884-58.823c11.585-6.688,30.437-6.691,42.026,0,5.8,3.35,9,7.864,9,12.71v20.114c0,4.846-3.195,9.36-9,12.71l-5.5,3.175a17.508,17.508,0,0,1,.36,3.416c0,.031,0,.061,0,.091V425.02c0,.031,0,.061,0,.091-.042,7.793-5.242,15.073-14.653,20.506-17.958,10.367-46.073,11.176-65.651,1.938l-16.438,9.491C570.9,460.39,563.29,462.062,555.681,462.062ZM657.564,349.645c-7.249,0-14.5,1.592-20.013,4.779L535.667,413.246c-5.157,2.977-8,6.875-8,10.977v20.113c0,4.1,2.84,8,8,10.977,11.034,6.371,28.991,6.372,40.027,0l16.894-9.753a1,1,0,0,1,.935-.035c18.741,9.064,46.967,8.345,64.26-1.64,8.8-5.082,13.652-11.782,13.653-18.865,0-.031,0-.06,0-.089V405c0-.029,0-.058,0-.088a15.576,15.576,0,0,0-.468-3.763,1,1,0,0,1,.471-1.109l6.138-3.544c5.157-2.976,8-6.876,8-10.977V365.4c0-4.1-2.84-8-8-10.977C672.06,351.237,664.812,349.645,657.564,349.645Z" fill="#4D9987"/><path d="M322,405.729a.985.985,0,0,1-.38-.069,1.193,1.193,0,0,1-.33-.221.986.986,0,0,1-.29-.71,1.225,1.225,0,0,1,.02-.189.686.686,0,0,1,.06-.19.545.545,0,0,1,.09-.17.936.936,0,0,1,.12-.15,1.036,1.036,0,0,1,1.42,0,1.008,1.008,0,0,1,.29.7.99.99,0,0,1-1,1Z" fill="#4D9987"/><path d="M326.33,402.229a1.011,1.011,0,0,1,.37-1.37h0a1.011,1.011,0,0,1,1.369.37h0a1.01,1.01,0,0,1-.369,1.371h0a1.019,1.019,0,0,1-.5.129h0A1.015,1.015,0,0,1,326.33,402.229Zm5.2-3a1.011,1.011,0,0,1,.369-1.37h0a.99.99,0,0,1,1.361.37h0a.989.989,0,0,1-.361,1.361h0a1.018,1.018,0,0,1-.5.139h0A1.016,1.016,0,0,1,331.53,399.229Zm5.2-3.009a1.013,1.013,0,0,1,.37-1.37h0a1,1,0,0,1,1.36.37h0a1,1,0,0,1-.36,1.37h0a1.012,1.012,0,0,1-.5.13h0A1.006,1.006,0,0,1,336.73,396.22Zm5.2-3a1,1,0,0,1,.37-1.37h0a1,1,0,0,1,1.36.37h0a.994.994,0,0,1-.36,1.36h0a.926.926,0,0,1-.5.14h0A1.006,1.006,0,0,1,341.93,393.22Zm5.2-3a1,1,0,0,1,.37-1.37h0a.984.984,0,0,1,1.359.36h0a1.006,1.006,0,0,1-.359,1.37h0a1.009,1.009,0,0,1-.5.13h0A1.016,1.016,0,0,1,347.13,390.22Zm5.2-3.01a1,1,0,0,1,.37-1.37h0a1,1,0,0,1,1.36.37h0a1.007,1.007,0,0,1-.36,1.37h0a1.009,1.009,0,0,1-.5.13h0A1.006,1.006,0,0,1,352.33,387.21Zm5.2-3a1,1,0,0,1,.369-1.37h0a.992.992,0,0,1,1.361.37h0a.994.994,0,0,1-.361,1.359h0a1.01,1.01,0,0,1-.5.141h0A.994.994,0,0,1,357.53,384.21Zm5.2-3.01a1,1,0,0,1,.36-1.36h0a1.007,1.007,0,0,1,1.37.36h0a1.007,1.007,0,0,1-.36,1.369h0a1,1,0,0,1-.5.131h0A1,1,0,0,1,362.73,381.2Zm5.2-3a1,1,0,0,1,.36-1.37h0a1.01,1.01,0,0,1,1.37.37h0a1,1,0,0,1-.37,1.369h0a.939.939,0,0,1-.49.131h0A.993.993,0,0,1,367.93,378.2Zm5.2-3a1,1,0,0,1,.36-1.37h0a1.006,1.006,0,0,1,1.369.359h0a1.008,1.008,0,0,1-.369,1.371h0a1,1,0,0,1-.5.14h0A.989.989,0,0,1,373.13,375.2Zm5.2-3.011a1,1,0,0,1,.359-1.37h0a1.013,1.013,0,0,1,1.371.37h0a1.011,1.011,0,0,1-.371,1.371h0a.989.989,0,0,1-.5.129h0A.988.988,0,0,1,378.33,372.189Zm5.2-3a1,1,0,0,1,.36-1.37h0a1.012,1.012,0,0,1,1.37.37h0a1,1,0,0,1-.37,1.361h0a.933.933,0,0,1-.5.139h0A.988.988,0,0,1,383.53,369.189Zm5.2-3a1,1,0,0,1,.36-1.37h0a1,1,0,0,1,1.37.361h0a1.011,1.011,0,0,1-.37,1.37h0a1.009,1.009,0,0,1-.5.13h0A1,1,0,0,1,388.73,366.189Z" fill="#4D9987"/><path d="M394.79,363.68a.968.968,0,0,1-.38-.071,1.186,1.186,0,0,1-.33-.219,1.043,1.043,0,0,1-.21-.33.943.943,0,0,1,0-.76,1.141,1.141,0,0,1,.21-.33,1,1,0,0,1,.9-.27.586.586,0,0,1,.19.06.556.556,0,0,1,.17.09c.059.04.11.08.16.12a1.141,1.141,0,0,1,.21.33.943.943,0,0,1,0,.76,1.043,1.043,0,0,1-.21.33,1.2,1.2,0,0,1-.33.219A.968.968,0,0,1,394.79,363.68Z" fill="#4D9987"/><polygon points="399.886 365.624 401.752 361.605 403.617 357.586 396.655 358.663 389.694 359.739 394.79 362.682 399.886 365.624" fill="#fff"/><path d="M399.886,366.624a.994.994,0,0,1-.5-.134l-10.193-5.885a1,1,0,0,1,.347-1.854l13.925-2.153a1,1,0,0,1,1.059,1.409l-3.731,8.038a1,1,0,0,1-.605.532A1.012,1.012,0,0,1,399.886,366.624Zm-7.233-6.331,6.786,3.918,2.485-5.352Z" fill="#E9EBDF"/><path d="M323.364,406.6A2.284,2.284,0,0,1,322,408.459a7.407,7.407,0,0,1-6.581,0,1.954,1.954,0,0,1,0-3.725,7.407,7.407,0,0,1,6.581,0A2.284,2.284,0,0,1,323.364,406.6Z" fill="#fff"/><path d="M318.71,410.23a7.8,7.8,0,0,1-3.782-.9,2.931,2.931,0,0,1,0-5.465,8.648,8.648,0,0,1,7.565,0,2.931,2.931,0,0,1,0,5.465A7.81,7.81,0,0,1,318.71,410.23Zm0-5.267a5.886,5.886,0,0,0-2.8.641c-.536.3-.855.674-.855.993s.319.688.855.992a6.719,6.719,0,0,0,5.6,0c.535-.3.855-.675.855-.992s-.32-.689-.855-.993A5.893,5.893,0,0,0,318.71,404.963Z" fill="#E9EBDF"/><path d="M367.557,433.146l-12.69-1.759-82.953-47.893c-4.688-2.707-12.288-2.707-16.976,0l-20.006,11.55-14.314,8.264-2.526,1.458-6.682-1.643V411.5c0,1.774,1.172,3.547,3.516,4.9l92.639,53.485c4.688,2.706,12.288,2.706,16.976,0l38.888-22.452c2.621-1.514,4.125-3.756,4.125-5.911h0Z" fill="#E9EBDF"/><path d="M315.205,408.488l-43.291-24.994c-4.688-2.707-12.288-2.707-16.976,0l-20.006,11.55-14.314,8.264-2.526,1.458-6.682-1.643V411.5c0,1.774,1.172,3.547,3.516,4.9l92.639,53.485a16.923,16.923,0,0,0,7.64,2.006Z" fill="#fff"/><path d="M316.053,472.893a18.383,18.383,0,0,1-8.989-2.146l-92.638-53.485c-2.59-1.5-4.016-3.544-4.016-5.767v-8.372a1,1,0,0,1,1.239-.971l6.291,1.547,36.5-21.071c4.956-2.861,13.02-2.861,17.976,0l82.784,47.8,12.5,1.733a1,1,0,0,1,.863.99v8.373a.787.787,0,0,1,0,.084c-.036,2.541-1.759,5.038-4.624,6.692l-38.888,22.452A18.371,18.371,0,0,1,316.053,472.893ZM212.41,404.4v7.1c0,1.479,1.071,2.911,3.016,4.034l92.638,53.486c4.4,2.543,11.573,2.542,15.977,0l38.888-22.453c2.236-1.291,3.626-3.224,3.625-5.044,0-.026,0-.051,0-.077v-7.423l-11.827-1.641a1.016,1.016,0,0,1-.363-.124L271.414,384.36c-4.4-2.543-11.572-2.543-15.976,0l-36.846,21.273a.989.989,0,0,1-.739.1Z" fill="#0E352C"/><path d="M367.493,432.389a5.509,5.509,0,0,0-2.94-3.782l-92.639-53.485c-4.688-2.707-12.288-2.707-16.976,0l-20.006,11.55-14.314,8.264-5.692,3.287c-4.688,2.706-4.688,7.094,0,9.8l92.639,53.485a17.354,17.354,0,0,0,8.488,2.03,20.794,20.794,0,0,0,2.292-.127,17.718,17.718,0,0,0,4.313-1.015,13.192,13.192,0,0,0,1.883-.888l38.888-22.452a7.7,7.7,0,0,0,4.078-5.225A4.623,4.623,0,0,0,367.493,432.389Z" fill="#fff"/><path d="M364.553,428.607l-75.07-43.341v65.8l18.082,10.439a17.354,17.354,0,0,0,8.488,2.03,20.794,20.794,0,0,0,2.292-.127,17.718,17.718,0,0,0,4.313-1.015,13.192,13.192,0,0,0,1.883-.888l38.888-22.452a7.7,7.7,0,0,0,4.078-5.225,4.623,4.623,0,0,0-.014-1.443A5.509,5.509,0,0,0,364.553,428.607Z" fill="#fff"/><path d="M316.053,464.539a18.259,18.259,0,0,1-8.989-2.164l-90.705-52.368a1,1,0,0,1,1-1.733l90.705,52.369a17.32,17.32,0,0,0,10.171,1.775,16.529,16.529,0,0,0,4.066-.956,12.036,12.036,0,0,0,1.739-.818l37.329-21.553a1,1,0,0,1,1,1.732l-37.328,21.552a13.937,13.937,0,0,1-2.028.956,18.576,18.576,0,0,1-4.556,1.075A21.98,21.98,0,0,1,316.053,464.539Z" fill="#4D9987"/><path d="M227.159,405.186a7.055,7.055,0,0,1-3.462-.84,2.786,2.786,0,0,1,0-5.153,7.549,7.549,0,0,1,6.923,0,2.785,2.785,0,0,1,0,5.153A7.053,7.053,0,0,1,227.159,405.186Zm0-4.838a5.048,5.048,0,0,0-2.461.578c-.455.262-.726.578-.726.844s.271.581.726.843a5.519,5.519,0,0,0,4.923,0c.455-.262.727-.578.727-.843s-.272-.582-.727-.844A5.047,5.047,0,0,0,227.158,400.348Z" fill="#E9EBDF"/><path d="M316.1,472.905q-.963,0-1.939-.085l-.129-.01q-.457-.043-.91-.107l-.227-.032c-.277-.041-.547-.088-.817-.139l-.224-.045-.1-.02c-.243-.052-.482-.106-.72-.165l-.381-.1c-.237-.065-.446-.124-.652-.189-.14-.044-.28-.093-.421-.142l-.2-.071c-.131-.045-.261-.091-.389-.141-.2-.08-.4-.166-.6-.253l-.12-.051c-.089-.039-.179-.077-.265-.118-.32-.152-.635-.314-.938-.489l-92.638-53.485c-2.59-1.5-4.016-3.544-4.016-5.767v-8.372c0-2.223,1.426-4.27,4.016-5.767l40.012-23.1c4.956-2.861,13.02-2.861,17.976,0l92.639,53.484a6.414,6.414,0,0,1,3.427,4.481,5.372,5.372,0,0,1,.073.841.787.787,0,0,1,0,.084v8.373a.787.787,0,0,1,0,.084c-.036,2.541-1.759,5.038-4.624,6.692l-38.888,22.452A18.18,18.18,0,0,1,316.1,472.905Zm-52.671-98.824a16.339,16.339,0,0,0-7.988,1.907l-40.012,23.1c-1.945,1.123-3.016,2.556-3.016,4.034V411.5c0,1.479,1.071,2.911,3.016,4.034l92.638,53.486c.256.147.524.286.8.416l.334.145c.17.074.341.151.518.22.1.04.21.076.316.113l.14.049c.188.066.307.108.427.146.186.059.372.11.557.162l.361.095c.216.055.431.1.649.149l.286.057c.243.047.489.088.737.125l.2.03c.278.039.551.071.828.1l.123.011a17.173,17.173,0,0,0,9.7-1.814l38.888-22.453c2.236-1.291,3.626-3.224,3.625-5.044,0-.026,0-.051,0-.077v-8.217c0-.026,0-.051,0-.078a3.514,3.514,0,0,0-.046-.588,4.57,4.57,0,0,0-2.455-3.085l-92.639-53.485A16.342,16.342,0,0,0,263.426,374.081Z" fill="#0E352C"/><path d="M330.037,445.75a10.154,10.154,0,0,1-4.985-1.211,3.711,3.711,0,0,1,0-6.912,10.876,10.876,0,0,1,9.97,0h0a3.711,3.711,0,0,1,0,6.912A10.149,10.149,0,0,1,330.037,445.75Zm0-7.326a8.182,8.182,0,0,0-3.985.935c-.863.5-1.359,1.127-1.359,1.724s.5,1.226,1.359,1.724a8.954,8.954,0,0,0,7.97,0c.864-.5,1.359-1.127,1.359-1.724s-.495-1.226-1.359-1.724A8.191,8.191,0,0,0,330.037,438.424Z" fill="#4D9987"/><path d="M528.779,286.83a1.005,1.005,0,0,1-1.009-1,1.018,1.018,0,0,1,.3-.71,1,1,0,0,1,.321-.21.955.955,0,0,1,.58-.06.674.674,0,0,1,.19.06.7.7,0,0,1,.17.09c.05.04.109.08.15.12a1.236,1.236,0,0,1,.22.33,1,1,0,0,1-.921,1.38Z" fill="#4D9987"/><path d="M533.2,283.24a1.006,1.006,0,0,1,.35-1.37h0a1.015,1.015,0,0,1,1.37.359h0a1,1,0,0,1-.36,1.371h0a1,1,0,0,1-.5.14h0A.991.991,0,0,1,533.2,283.24Zm5.28-3.091a1,1,0,0,1,.36-1.369h0a1,1,0,0,1,1.37.36h0a1,1,0,0,1-.36,1.37h0a1.022,1.022,0,0,1-.51.13h0A.992.992,0,0,1,538.48,280.149Zm5.29-3.089a1,1,0,0,1,.35-1.371h0a1,1,0,0,1,1.37.361h0a1.007,1.007,0,0,1-.35,1.37h0a1.046,1.046,0,0,1-.51.13h0A.981.981,0,0,1,543.77,277.06Zm5.28-3.09a1,1,0,0,1,.36-1.37h0a1,1,0,0,1,1.369.36h0a.985.985,0,0,1-.359,1.359h0a.928.928,0,0,1-.51.141h0A1.013,1.013,0,0,1,549.05,273.97Zm5.29-3.09a1,1,0,0,1,.349-1.37h0a1,1,0,0,1,1.371.349h0a1,1,0,0,1-.36,1.37h0a1,1,0,0,1-.5.141h0A1,1,0,0,1,554.34,270.88Zm5.28-3.1a.987.987,0,0,1,.36-1.36h0a1,1,0,0,1,1.37.35h0a1,1,0,0,1-.36,1.37h0a1.073,1.073,0,0,1-.51.14h0A1,1,0,0,1,559.62,267.78Zm5.279-3.091a1.018,1.018,0,0,1,.361-1.37h0a1,1,0,0,1,1.37.361h0a1,1,0,0,1-.36,1.37h0a1.026,1.026,0,0,1-.5.139h0A1.007,1.007,0,0,1,564.9,264.689Z" fill="#4D9987"/><path d="M571.06,262.1a1.025,1.025,0,0,1-.39-.08,1.063,1.063,0,0,1-.54-.541.994.994,0,0,1-.08-.379,1.087,1.087,0,0,1,.08-.39.866.866,0,0,1,.22-.32.62.62,0,0,1,.15-.13c.05-.031.109-.06.17-.09s.12-.04.189-.061a.981.981,0,0,1,.9.281,1,1,0,0,1,.22.32,1.109,1.109,0,0,1,.08.39,1,1,0,0,1-.3.7.882.882,0,0,1-.321.22A1.052,1.052,0,0,1,571.06,262.1Z" fill="#4D9987"/><path d="M579,259.233a2.284,2.284,0,0,1-1.363,1.862,7.407,7.407,0,0,1-6.581,0,1.953,1.953,0,0,1,0-3.724,7.4,7.4,0,0,1,6.581,0A2.283,2.283,0,0,1,579,259.233Z" fill="#fff"/><path d="M574.345,262.866a7.8,7.8,0,0,1-3.783-.9,3.21,3.21,0,0,1-1.872-2.733,3.25,3.25,0,0,1,1.872-2.732,8.644,8.644,0,0,1,7.565,0A3.249,3.249,0,0,1,580,259.232a3.208,3.208,0,0,1-1.871,2.733A7.8,7.8,0,0,1,574.345,262.866Zm0-5.266a5.882,5.882,0,0,0-2.8.64c-.535.3-.856.675-.856.992s.321.689.856.993a6.719,6.719,0,0,0,5.6,0c.536-.3.855-.674.855-.993s-.319-.688-.855-.992A5.883,5.883,0,0,0,574.345,257.6Z" fill="#E9EBDF"/><polygon points="523.679 282.888 521.814 286.907 519.949 290.927 526.91 289.85 533.872 288.773 528.776 285.83 523.679 282.888" fill="#fff"/><path d="M519.948,291.927a1,1,0,0,1-.907-1.421l3.731-8.039a1,1,0,0,1,1.408-.446l10.192,5.885a1,1,0,0,1-.347,1.855L520.1,291.915A1.008,1.008,0,0,1,519.948,291.927Zm4.179-7.626-2.484,5.351,9.269-1.433Z" fill="#E9EBDF"/><path d="M518.066,242.531a3.857,3.857,0,0,1,3.857,3.857v57.863c0,1.23-1.727,2.227-3.857,2.227s-3.858-1-3.858-2.227V246.388A3.857,3.857,0,0,1,518.066,242.531Z" fill="#fff"/><path d="M518.066,306.478h0c2.13,0,3.857-1,3.857-2.227v-56.9A1.929,1.929,0,0,0,520,245.417h0a1.929,1.929,0,0,0-1.929,1.929Z" fill="#C4D7D3"/><path d="M518.066,307.478c-2.769,0-4.858-1.387-4.858-3.227V246.389a4.858,4.858,0,1,1,9.716,0v57.862C522.924,306.091,520.836,307.478,518.066,307.478Zm0-63.947a2.861,2.861,0,0,0-2.858,2.858v57.862c0,.488,1.14,1.227,2.858,1.227s2.858-.739,2.858-1.227V246.389A2.861,2.861,0,0,0,518.066,243.531Z" fill="#185849"/><path d="M518.066,276.618c-2.769,0-4.858-1.388-4.858-3.227a1,1,0,1,1,2,0c0,.488,1.14,1.227,2.858,1.227s2.858-.739,2.858-1.227a1,1,0,0,1,2,0C522.924,275.23,520.836,276.618,518.066,276.618Z" fill="#185849"/><path d="M474.824,282.481c-2.769,0-4.858-1.386-4.858-3.226V221.393a4.858,4.858,0,0,1,9.716,0v57.862C479.682,281.1,477.594,282.481,474.824,282.481Zm0-63.946a2.861,2.861,0,0,0-2.858,2.858v57.862c0,.488,1.139,1.226,2.858,1.226s2.858-.738,2.858-1.226V221.393A2.862,2.862,0,0,0,474.824,218.535Z" fill="#185849"/><path d="M474.824,281.482h0c2.13,0,3.857-1,3.857-2.227v-56.9a1.929,1.929,0,0,0-1.929-1.929h0a1.929,1.929,0,0,0-1.928,1.929Z" fill="#C4D7D3"/><path d="M474.824,282.481c-2.769,0-4.858-1.386-4.858-3.226V221.393a4.858,4.858,0,0,1,9.716,0v57.862C479.682,281.1,477.594,282.481,474.824,282.481Zm0-63.946a2.861,2.861,0,0,0-2.858,2.858v57.862c0,.488,1.139,1.226,2.858,1.226s2.858-.738,2.858-1.226V221.393A2.862,2.862,0,0,0,474.824,218.535Z" fill="#185849"/><path d="M474.823,251.622c-2.769,0-4.857-1.388-4.857-3.227a1,1,0,1,1,2,0c0,.488,1.139,1.227,2.857,1.227s2.859-.739,2.859-1.227a1,1,0,1,1,2,0C479.682,250.234,477.593,251.622,474.823,251.622Z" fill="#185849"/><path d="M521.421,299.074l-61.908-35.742a3.021,3.021,0,0,0-3.1-.229l-.026-.023-73.554,42.467,68.15,63.025,73.555-42.467-.025-.022c1.016-.58,1.674-1.907,1.674-3.836V308.189C526.191,304.676,524.055,300.6,521.421,299.074Z" fill="#fff"/><path d="M450.987,369.571a1,1,0,0,1-.678-.265l-68.15-63.025a1,1,0,0,1,.179-1.6l73.554-42.467a1.027,1.027,0,0,1,.279-.11,4.083,4.083,0,0,1,3.842.362l61.908,35.742h0c2.955,1.706,5.269,6.091,5.269,9.981v14.058a5.321,5.321,0,0,1-1.931,4.55.97.97,0,0,1-.217.174l-73.555,42.467A1.007,1.007,0,0,1,450.987,369.571Zm-66.473-63.837,66.611,61.6,72.7-41.974a.946.946,0,0,1,.195-.148c.744-.425,1.169-1.506,1.169-2.968V308.189c0-3.134-1.955-6.913-4.269-8.249L459.013,264.2a2.139,2.139,0,0,0-2.1-.226.945.945,0,0,1-.229.094Z" fill="#185849"/><path d="M524.517,326.083c1.016-.58,1.674-1.907,1.674-3.836V308.189a12.068,12.068,0,0,0-3.289-7.916L435.733,350.6l4.788,8.293,10.466,9.679,73.555-42.467Z" fill="#C4D7D3"/><path d="M450.987,369.571a1,1,0,0,1-.678-.265l-68.15-63.025a1,1,0,0,1,.179-1.6l73.554-42.467a1.027,1.027,0,0,1,.279-.11,4.083,4.083,0,0,1,3.842.362l61.908,35.742h0c2.955,1.706,5.269,6.091,5.269,9.981v14.058a5.321,5.321,0,0,1-1.931,4.55.97.97,0,0,1-.217.174l-73.555,42.467A1.007,1.007,0,0,1,450.987,369.571Zm-66.473-63.837,66.611,61.6,72.7-41.974a.946.946,0,0,1,.195-.148c.744-.425,1.169-1.506,1.169-2.968V308.189c0-3.134-1.955-6.913-4.269-8.249L459.013,264.2a2.139,2.139,0,0,0-2.1-.226.945.945,0,0,1-.229.094Z" fill="#185849"/><path d="M385.959,332.578l61.907,35.742c2.635,1.521,4.77-.093,4.77-3.606V350.656c0-3.513-2.135-7.594-4.77-9.115L385.959,305.8c-2.635-1.521-4.771.093-4.771,3.606v14.058C381.188,326.976,383.324,331.057,385.959,332.578Z" fill="#C4D7D3"/><path d="M452.637,357.67a1,1,0,0,1-1-1v-6.015c0-3.134-1.956-6.912-4.271-8.248l-55.873-32.259a1,1,0,1,1,1-1.732l55.873,32.259c2.955,1.706,5.271,6.09,5.271,9.98v6.015A1,1,0,0,1,452.637,357.67Z" fill="#27ae60"/><path d="M449.718,369.876a4.731,4.731,0,0,1-2.353-.689l-61.907-35.743c-2.955-1.707-5.269-6.091-5.269-9.981V309.4a5.323,5.323,0,0,1,1.93-4.55.949.949,0,0,1,.218-.174l73.555-42.467a.993.993,0,0,1,.277-.109,4.083,4.083,0,0,1,3.845.361l61.907,35.742c2.955,1.7,5.269,6.09,5.269,9.981v14.058a5.317,5.317,0,0,1-1.929,4.548.92.92,0,0,1-.219.177l-73.555,42.466a1.028,1.028,0,0,1-.276.108A3.475,3.475,0,0,1,449.718,369.876Zm-66.166-63.587a.924.924,0,0,1-.195.149c-.743.424-1.168,1.5-1.168,2.967v14.058c0,3.135,1.955,6.912,4.269,8.249l61.907,35.742a2.141,2.141,0,0,0,2.1.226,1.021,1.021,0,0,1,.227-.1l73.13-42.22a.9.9,0,0,1,.2-.15c.744-.425,1.169-1.506,1.169-2.968V308.189c0-3.135-1.955-6.914-4.269-8.249h0L459.014,264.2a2.144,2.144,0,0,0-2.1-.226,1.01,1.01,0,0,1-.226.094Z" fill="#185849"/><path d="M463.316,350.7a1,1,0,0,1-.5-1.866l1.691-.976a1,1,0,0,1,1,1.733l-1.691.975A.992.992,0,0,1,463.316,350.7Z" fill="#fff"/><path d="M500.188,329.413a1,1,0,0,1-.5-1.866l13.836-7.989a1,1,0,1,1,1,1.732l-13.836,7.989A1,1,0,0,1,500.188,329.413Z" fill="#fff"/><path d="M419.5,339.556a.992.992,0,0,1-.5-.134l-5.178-2.989a1,1,0,0,1,1-1.733L420,337.689a1,1,0,0,1-.5,1.867Z" fill="#27ae60"/><path d="M454.827,313.362c-9.562,0-17.054-4.51-17.054-10.268s7.492-10.27,17.054-10.27,17.054,4.511,17.054,10.27S464.39,313.362,454.827,313.362Zm0-18.538c-8.16,0-15.054,3.787-15.054,8.27s6.894,8.268,15.054,8.268,15.054-3.786,15.054-8.268S462.987,294.824,454.827,294.824Z" fill="#C4D7D3"/><path d="M328.78,252.47a1,1,0,0,1-.711-1.71.941.941,0,0,1,.151-.13c.05-.03.11-.061.17-.09a1.015,1.015,0,0,1,1.09.22.978.978,0,0,1,0,1.41A.981.981,0,0,1,328.78,252.47Z" fill="#4D9987"/><path d="M382.51,283.62a1.008,1.008,0,0,1-.37-1.37h0a1.006,1.006,0,0,1,1.37-.36h0a1,1,0,0,1,.37,1.36h0a1.011,1.011,0,0,1-.87.5h0A1.009,1.009,0,0,1,382.51,283.62Zm-5.42-3.13a1.007,1.007,0,0,1-.37-1.37h0a1,1,0,0,1,1.37-.36h0a1,1,0,0,1,.36,1.36h0a.993.993,0,0,1-.86.5h0A1.009,1.009,0,0,1,377.09,280.49Zm-5.43-3.131a1,1,0,0,1-.36-1.369h0a1,1,0,0,1,1.36-.36h0a1,1,0,0,1,.37,1.37h0a1.009,1.009,0,0,1-.87.5h0A1.01,1.01,0,0,1,371.66,277.359Zm-5.42-3.13a1,1,0,0,1-.37-1.359h0a1,1,0,0,1,1.37-.37h0a1.009,1.009,0,0,1,.369,1.37h0a1.018,1.018,0,0,1-.869.5h0A1.017,1.017,0,0,1,366.24,274.229Zm-5.421-3.129a1,1,0,0,1-.369-1.36h0a1.009,1.009,0,0,1,1.369-.37h0a1,1,0,0,1,.361,1.37h0a.991.991,0,0,1-.861.5h0A.928.928,0,0,1,360.819,271.1Zm-5.429-3.13a.994.994,0,0,1-.36-1.361h0a1,1,0,0,1,1.36-.369h0a1,1,0,0,1,.37,1.369h0a1.006,1.006,0,0,1-.87.5h0A.933.933,0,0,1,355.39,267.97Zm-5.42-3.12a1.012,1.012,0,0,1-.37-1.371h0a1.012,1.012,0,0,1,1.37-.37h0a1,1,0,0,1,.36,1.37h0a.99.99,0,0,1-.86.5h0A1.019,1.019,0,0,1,349.97,264.85Zm-5.42-3.13a1,1,0,0,1-.37-1.37h0a1,1,0,0,1,1.37-.36h0a.994.994,0,0,1,.36,1.36h0a.991.991,0,0,1-.86.5h0A.983.983,0,0,1,344.55,261.72Zm-5.43-3.13a1,1,0,0,1-.36-1.37h0a.986.986,0,0,1,1.36-.361h0a.991.991,0,0,1,.37,1.361h0a1.006,1.006,0,0,1-.87.5h0A1.009,1.009,0,0,1,339.12,258.59Zm-5.42-3.13a1,1,0,0,1-.37-1.36h0a1,1,0,0,1,1.37-.371h0a.988.988,0,0,1,.36,1.361h0a.969.969,0,0,1-.86.51h0A1.019,1.019,0,0,1,333.7,255.46Z" fill="#4D9987"/><path d="M388.439,286.88a1.019,1.019,0,0,1-.389-.07,1,1,0,0,1-.32-.22.875.875,0,0,1-.22-.32,1.037,1.037,0,0,1-.071-.39.966.966,0,0,1,.291-.7.866.866,0,0,1,.32-.22.956.956,0,0,1,.58-.061,1.536,1.536,0,0,1,.189.061.867.867,0,0,1,.171.09.934.934,0,0,1,.15.13.974.974,0,0,1,.3.7,1.026,1.026,0,0,1-.08.39,1,1,0,0,1-.219.32,1.02,1.02,0,0,1-.321.22A1,1,0,0,1,388.439,286.88Z" fill="#4D9987"/><path d="M330.139,249.605a2.282,2.282,0,0,1-1.363,1.862,7.407,7.407,0,0,1-6.581,0,1.954,1.954,0,0,1,0-3.725,7.407,7.407,0,0,1,6.581,0A2.282,2.282,0,0,1,330.139,249.605Z" fill="#fff"/><path d="M325.485,253.238a7.8,7.8,0,0,1-3.782-.9,2.931,2.931,0,0,1,0-5.465,8.646,8.646,0,0,1,7.566,0,2.931,2.931,0,0,1,0,5.465A7.811,7.811,0,0,1,325.485,253.238Zm0-5.267a5.882,5.882,0,0,0-2.8.641c-.536.3-.856.675-.856.992s.32.689.856.993a6.717,6.717,0,0,0,5.6,0c.535-.3.856-.675.856-.993s-.321-.688-.856-.992A5.887,5.887,0,0,0,325.485,247.971Z" fill="#E9EBDF"/><polygon points="393.531 282.941 395.396 286.96 397.261 290.979 390.3 289.902 383.338 288.825 388.434 285.883 393.531 282.941" fill="#fff"/><path d="M397.262,291.979a1.006,1.006,0,0,1-.154-.011l-13.923-2.155a1,1,0,0,1-.347-1.854l10.192-5.885a1,1,0,0,1,1.408.446l3.731,8.039a1,1,0,0,1-.907,1.42ZM386.3,288.271l9.27,1.434-2.484-5.351Z" fill="#E9EBDF"/><path d="M652.4,232.636a1,1,0,0,1-.5-1.866l14.62-8.441a1,1,0,0,1,1,1.733L652.9,232.5A1,1,0,0,1,652.4,232.636Z" fill="#4D9987"/><path d="M616.412,410.124c-8.972,0-16-4.243-16-9.66s7.028-9.66,16-9.66,16,4.243,16,9.66S625.384,410.124,616.412,410.124Zm0-17.32c-7.589,0-14,3.508-14,7.66s6.411,7.66,14,7.66,14-3.508,14-7.66S624,392.8,616.412,392.8Z" fill="#C4D7D3"/></svg>