<?xml version="1.0" encoding="utf-8"?>
<!-- Generator: Adobe Illustrator 24.1.0, SVG Export Plug-In . SVG Version: 6.00 Build 0)  -->
<svg version="1.1" id="Layer_1" xmlns="http://www.w3.org/2000/svg" xmlns:xlink="http://www.w3.org/1999/xlink" x="0px" y="0px"
	 viewBox="0 0 128 128" style="enable-background:new 0 0 128 128;" xml:space="preserve">
<style type="text/css">
	.st0{fill:#DEEAFF;}
	.st1{fill:#98B9EA;}
	.st2{clip-path:url(#SVGID_2_);}
	.st3{fill:#FFFFFF;}
	.st4{fill:#436DB5;}
	.st5{fill:none;}
</style>
<g id="Layer_1_1_">
</g>
<g>
	<g id="Layer_2_1_">
		<g id="Objects_1_">
			<g>
				<g>
					<g>
						<path class="st0" d="M71.8,46.6c-5.7-3.3-10.3-12.1-10.3-19.7c0-3.5,1.2-6,3-7.1h0.1L8,52.3H7.9c-1.8,1.1-3,3.6-3,7.1
							C5,67,9.6,75.8,15.3,79.1h0.1l51.2,29.6L123,76.2L71.8,46.6z"/>
						<path class="st1" d="M61.4,26.9c0-3.5,1.2-6,3-7.1h0.1L8,52.3H7.9c-1.8,1.1-3,3.6-3,7.1c0,1.9,0.3,3.8,0.8,5.8l56.4-32.6
							C61.7,30.7,61.4,28.8,61.4,26.9z"/>
						<g>
							<g>
								<defs>
									<path id="SVGID_1_" d="M18.3,73.8c-3.4-1.9-7.2-8.6-7.2-14.4c0-1.1,0.2-1.7,0.3-2l44.4-25.6c1.5,8.3,6.5,16.4,12.9,20.1
										l41.1,23.8l-44.2,25.5L18.3,73.8z"/>
								</defs>
								<clipPath id="SVGID_2_">
									<use xlink:href="#SVGID_1_"  style="overflow:visible;"/>
								</clipPath>
								<g class="st2">
									<path class="st3" d="M54.6,95.8c-0.3,0-0.7-0.2-0.9-0.5c-0.3-0.5-0.1-1.1,0.4-1.4l44.2-25.5c0.5-0.3,1.1-0.1,1.4,0.4
										s0.1,1.1-0.4,1.4L55.1,95.7C54.9,95.8,54.8,95.8,54.6,95.8z"/>
									<path class="st3" d="M43.6,89.4c-0.3,0-0.7-0.2-0.9-0.5c-0.3-0.5-0.1-1.1,0.4-1.4L87.3,62c0.5-0.3,1.1-0.1,1.4,0.4
										s0.1,1.1-0.4,1.4L44.1,89.3C43.9,89.4,43.7,89.4,43.6,89.4z"/>
									<path class="st3" d="M11.8,56.7c-0.3,0-0.7-0.2-0.9-0.5c-0.3-0.5-0.1-1.1,0.4-1.4l46-26.6c0.5-0.3,1.1-0.1,1.4,0.4
										c0.3,0.5,0.1,1.1-0.4,1.4l-46,26.6C12.2,56.6,12,56.7,11.8,56.7z"/>
									<path class="st3" d="M32.5,83c-0.3,0-0.7-0.2-0.9-0.5c-0.3-0.5-0.1-1.1,0.4-1.4l44.2-25.5c0.5-0.3,1.1-0.1,1.4,0.4
										s0.1,1.1-0.4,1.4L33,82.9C32.8,83,32.7,83,32.5,83z"/>
									<path class="st3" d="M21.5,76.7c-0.3,0-0.7-0.2-0.9-0.5c-0.3-0.5-0.1-1.1,0.4-1.4l44.5-25.7c0.5-0.3,1.1-0.1,1.4,0.4
										s0.1,1.1-0.4,1.4L22,76.5C21.8,76.6,21.6,76.7,21.5,76.7z"/>
									<path class="st3" d="M13.2,68.7c-0.3,0-0.7-0.2-0.9-0.5c-0.3-0.5-0.1-1.1,0.4-1.4l45.8-26.5c0.5-0.3,1.1-0.1,1.4,0.4
										c0.3,0.5,0.1,1.1-0.4,1.4L13.7,68.5C13.5,68.6,13.4,68.7,13.2,68.7z"/>
								</g>
							</g>
						</g>
						<path class="st3" d="M65.7,102.2c-0.2,0-0.3,0-0.5-0.1L17.8,74.7c-0.8-0.5-1.6-1.1-2.4-2c-0.6-0.7-1.2-1.5-1.8-2.3
							c-0.5-0.8-1-1.6-1.4-2.5s-0.8-1.8-1.1-2.7c-0.3-0.9-0.6-1.9-0.7-2.8c-0.2-1-0.3-2-0.3-2.9c0-0.1,0-0.3,0-0.4
							c0-0.1,0-0.3,0-0.4c0-0.1,0-0.3,0-0.4c0-0.1,0-0.3,0.1-0.4c0-0.2,0.1-0.3,0.1-0.4c0-0.1,0.1-0.3,0.1-0.3
							c0.2-0.9,0.4-1.7,0.7-2.4c0.3-0.9,0.8-1.7,1.3-2.4c0.6-0.8,1.3-1.4,2.1-1.9c0.8-0.5,1.7-0.8,2.6-0.9c0.8-0.1,1.7-0.1,2.7,0
							c0.7,0.1,1.4,0.2,2.1,0.4l33.4-19c0.3-0.2,0.6-0.2,0.9,0c0.3,0.1,0.5,0.4,0.6,0.7c0.2,1.3,0.6,2.6,1,3.8
							c0.4,1.3,0.9,2.5,1.4,3.7c0.6,1.2,1.2,2.4,1.9,3.5s1.5,2.2,2.3,3.2c0.9,1,1.8,2,2.7,2.8c1,0.9,2.1,1.7,3.1,2.3l41.1,23.8
							c0.3,0.2,0.5,0.5,0.5,0.9s-0.2,0.7-0.5,0.9L66.2,102C66,102.1,65.8,102.2,65.7,102.2z M18.3,51.5c-0.3,0-0.7,0-1,0.1
							c-0.7,0.1-1.3,0.3-1.9,0.7c-0.6,0.3-1,0.8-1.5,1.4c-0.4,0.5-0.7,1.2-1,1.9c-0.2,0.6-0.5,1.4-0.6,2.2c0,0.1,0,0.1-0.1,0.2
							c0,0,0,0.1-0.1,0.2c0,0.1,0,0.2-0.1,0.3c0,0.1,0,0.2,0,0.3s0,0.2,0,0.3s0,0.2,0,0.3s0,0.2,0,0.3c0,0.8,0.1,1.7,0.2,2.6
							c0.2,0.8,0.4,1.7,0.7,2.6c0.3,0.8,0.6,1.7,1,2.5s0.8,1.6,1.3,2.3c0.5,0.8,1,1.5,1.6,2.1c0.6,0.7,1.3,1.2,1.9,1.6l47,26.6
							l42.2-24.4L68.2,52.8c-1.2-0.7-2.4-1.5-3.5-2.5c-1-0.9-2-1.9-2.9-3.1c-0.9-1.1-1.7-2.2-2.5-3.4c-0.7-1.2-1.4-2.4-2-3.7
							s-1.1-2.6-1.5-3.9c-0.3-0.9-0.5-1.8-0.7-2.7L22.5,52c-0.2,0.1-0.5,0.2-0.8,0.1c-0.8-0.2-1.5-0.4-2.2-0.5
							C19.1,51.5,18.7,51.5,18.3,51.5z"/>
						<path class="st3" d="M98.8,83c-0.2,0-0.3,0-0.5-0.1L51,55.6c-3.6-2.1-7.7-9.1-7.7-15.3c0-1.2,0.2-1.9,0.3-2.3
							c0.7-3.2,2-5.5,4.1-6.7c2-1.2,4.6-1.3,7.8-0.3c0.5,0.2,0.8,0.7,0.7,1.3c-0.2,0.5-0.7,0.8-1.3,0.7c-2.6-0.8-4.7-0.8-6.2,0.1
							c-1.5,0.9-2.6,2.7-3.1,5.4c0,0.1,0,0.1-0.1,0.2c0,0.1-0.2,0.5-0.2,1.6c0,5.4,3.6,11.8,6.7,13.6l47.4,27.3
							c0.5,0.3,0.6,0.9,0.4,1.4C99.5,82.9,99.2,83,98.8,83z"/>
						<path class="st3" d="M87.8,89.4c-0.2,0-0.3,0-0.5-0.1L39.9,61.9c-3.6-2.1-7.7-9.1-7.7-15.3c0-1.2,0.2-1.9,0.3-2.3
							c0.7-3.2,2-5.5,4.1-6.7c2-1.2,4.6-1.3,7.8-0.3c0.5,0.2,0.8,0.7,0.7,1.3c-0.2,0.5-0.7,0.8-1.3,0.7c-2.6-0.8-4.7-0.8-6.2,0.1
							c-1.5,0.9-2.6,2.7-3.1,5.4c0,0.1,0,0.1-0.1,0.2c0,0.1-0.2,0.5-0.2,1.6c0,5.4,3.6,11.8,6.7,13.6l47.4,27.3
							c0.5,0.3,0.6,0.9,0.4,1.4C88.4,89.2,88.1,89.4,87.8,89.4z"/>
						<path class="st3" d="M76.7,95.8c-0.2,0-0.3,0-0.5-0.1L28.9,68.3c-3.6-2.1-7.7-9.1-7.7-15.3c0-1.2,0.2-1.9,0.3-2.3
							c0.7-3.2,2-5.5,4.1-6.7c2-1.2,4.6-1.3,7.8-0.3c0.5,0.2,0.8,0.7,0.7,1.3c-0.2,0.5-0.7,0.8-1.3,0.7c-2.6-0.8-4.7-0.8-6.2,0.1
							c-1.5,0.9-2.6,2.7-3.1,5.4c0,0.1,0,0.1-0.1,0.2c0,0.1-0.2,0.5-0.2,1.6c0,5.4,3.6,11.8,6.7,13.6l47.4,27.3
							c0.5,0.3,0.6,0.9,0.4,1.4C77.4,95.6,77.1,95.8,76.7,95.8z"/>
						<path class="st4" d="M66.6,109.8c-0.2,0-0.3,0-0.5-0.1L14.9,80C8.9,76.6,4,67.3,4,59.4c0-3.7,1.3-6.6,3.5-7.9L64,19
							c0.5-0.3,1.1-0.1,1.4,0.4s0.1,1.1-0.4,1.4c-1.6,1-2.5,3.2-2.5,6.2c0,7.3,4.4,15.7,9.8,18.9l0,0l51.2,29.6
							c0.3,0.2,0.5,0.5,0.5,0.9s-0.2,0.7-0.5,0.9l-56.4,32.5C67,109.7,66.8,109.8,66.6,109.8z M61,23L8.5,53.2
							c-1.6,1-2.5,3.2-2.5,6.2c0,7.3,4.4,15.7,9.8,18.9l50.8,29.3L121,76.2L71.3,47.5c-6-3.4-10.8-12.7-10.8-20.6
							C60.4,25.5,60.6,24.1,61,23z"/>
						<path class="st0" d="M74.9,25.3c-1.3-2.2-2.9-4-4.7-5C68,19,66,18.9,64.4,19.9h0.1L8,52.3H7.9c1.5-0.9,3.6-0.9,5.8,0.4
							c1.8,1,3.5,2.8,4.7,5L74.9,25.3z"/>
						<path class="st4" d="M18.5,58.8c-0.3,0-0.7-0.2-0.9-0.5c-1.2-2.1-2.8-3.7-4.4-4.7c-1.8-1-3.5-1.2-4.8-0.4l0,0
							c-0.5,0.2-1.1,0.1-1.3-0.4c-0.3-0.5-0.2-1.1,0.3-1.3l0.1-0.1L64,19c1.9-1.1,4.3-0.9,6.7,0.5c1.9,1.1,3.7,3,5.1,5.4
							c0.1,0.2,0.2,0.5,0.1,0.8s-0.2,0.5-0.5,0.6L19,58.7C18.9,58.7,18.7,58.8,18.5,58.8z M12.3,51c0.7,0.2,1.3,0.5,2,0.9
							c1.7,1,3.2,2.5,4.6,4.5l54.7-31.5c-1.1-1.7-2.5-3-3.8-3.8c-1.8-1-3.5-1.2-4.8-0.4l0,0L12.3,51z"/>
					</g>
					<path class="st4" d="M65.7,89.4c-0.2,0-0.3,0-0.5-0.1l-22-12.8c-0.3-0.2-0.5-0.5-0.5-0.9s0.2-0.7,0.5-0.9l22-12.7
						c0.3-0.2,0.7-0.2,1,0l22,12.8c0.3,0.2,0.5,0.5,0.5,0.9s-0.2,0.7-0.5,0.9l-22,12.7C66,89.4,65.8,89.4,65.7,89.4z M45.7,75.6
						l20,11.7l20-11.5l-20-11.7L45.7,75.6z"/>
					<path class="st4" d="M65.7,89.4c-0.2,0-0.3,0-0.5-0.1l-22-12.8c-0.3-0.2-0.5-0.5-0.5-0.9s0.2-0.7,0.5-0.9l22-12.7
						c0.3-0.2,0.7-0.2,1,0l22,12.8c0.3,0.2,0.5,0.5,0.5,0.9s-0.2,0.7-0.5,0.9l-22,12.7C66,89.4,65.8,89.4,65.7,89.4z M45.7,75.6
						l20,11.7l20-11.5l-20-11.7L45.7,75.6z"/>
					<path class="st4" d="M32.5,70.3c-0.3,0-0.7-0.2-0.9-0.5c-0.3-0.5-0.1-1.1,0.4-1.4l22.1-12.8c0.5-0.3,1.1-0.1,1.4,0.4
						c0.3,0.5,0.1,1.1-0.4,1.4L33,70.1C32.8,70.2,32.7,70.3,32.5,70.3z"/>
				</g>
				<rect x="4" y="4" class="st5" width="120" height="120"/>
				<rect x="4" y="4" class="st5" width="120" height="120"/>
			</g>
		</g>
	</g>
	<g>
		<rect class="st5" width="128" height="128"/>
	</g>
</g>
</svg>
