<?xml version="1.0" encoding="utf-8"?>
<!-- Generator: Adobe Illustrator 24.1.0, SVG Export Plug-In . SVG Version: 6.00 Build 0)  -->
<svg version="1.1" id="Layer_1" xmlns="http://www.w3.org/2000/svg" xmlns:xlink="http://www.w3.org/1999/xlink" x="0px" y="0px"
	 viewBox="0 0 128 128" style="enable-background:new 0 0 128 128;" xml:space="preserve">
<style type="text/css">
	.st0{fill:#FFFFFF;}
	.st1{fill:#98B9EA;}
	.st2{fill:#DEEAFF;}
	.st3{fill:#436DB5;}
	.st4{fill:#DFEAB0;}
	.st5{fill:#A7B23B;}
	.st6{fill:none;}
</style>
<g id="Layer_1_1_">
</g>
<g>
	<g id="Layer_2_1_">
		<g id="Objects_1_">
			<g>
				<g>
					<g>
						<path class="st0" d="M90.9,20.2l1.8-2.9l-9.9-5.7l0,0C79.7,9.9,76.4,9,72.7,9C68,9,63,10.5,57.9,13.4
							C38.4,24.7,22.5,55,22.5,81c0,14.4,4.8,25,12.9,29.7l0,0l9.9,5.7l1.1-3.2c4.4-0.2,9-1.7,13.7-4.4
							c19.6-11.3,35.5-41.6,35.5-67.6C95.6,32.8,93.9,25.6,90.9,20.2z"/>
						<path class="st1" d="M45.3,117.4c-0.2,0-0.3,0-0.5-0.1l-9.9-5.7c0,0-0.1,0-0.1-0.1c-8.4-5-13.3-16.1-13.3-30.5
							c0-26.3,16.1-57,36-68.4C62.7,9.5,67.8,8,72.7,8c3.8,0,7.3,0.9,10.4,2.7c0,0,0.1,0,0.1,0.1l9.9,5.7c0.2,0.1,0.4,0.4,0.5,0.6
							c0.1,0.3,0,0.5-0.1,0.8L92,20.2c3,5.6,4.6,12.9,4.6,21.1c0,26.3-16.1,57-36,68.4c-4.6,2.6-9.1,4.1-13.4,4.5l-0.9,2.6
							c-0.1,0.3-0.3,0.5-0.6,0.6C45.6,117.4,45.4,117.4,45.3,117.4z M36,109.9l8.8,5.1l0.7-2.1c0.1-0.4,0.5-0.6,0.9-0.7
							c4.2-0.2,8.7-1.6,13.2-4.2c19.3-11.1,35-41,35-66.7c0-8.1-1.6-15.2-4.6-20.6c-0.2-0.3-0.2-0.7,0-1l1.2-2l-8.9-5.2
							c0,0-0.1,0-0.1-0.1c-2.8-1.6-6-2.5-9.5-2.5c-4.5,0-9.3,1.4-14.2,4.3c-19.3,11.1-35,41-35,66.7c0,13.8,4.5,24.3,12.4,28.8
							C35.9,109.8,36,109.8,36,109.9z"/>
					</g>
					<path class="st2" d="M86.9,77.2L31.2,45.1c-5.4,11.4-8.7,24.1-8.7,35.9c0,14.4,4.8,25,12.9,29.7l0,0l9.9,5.7l1.1-3.2
						c4.4-0.2,9-1.7,13.7-4.4C70.8,102.7,80.3,90.9,86.9,77.2z"/>
					<g>
						<path class="st1" d="M55.3,119c-13.9,0-22.9-12.7-22.9-32.3c0-26,15.9-56.3,35.5-67.6c5.1-2.9,10-4.4,14.7-4.4
							c13.9,0,22.9,12.7,22.9,32.3c0,26-15.9,56.3-35.5,67.6C65,117.5,60,119,55.3,119z"/>
						<path class="st0" d="M55.3,120c-14.5,0-23.9-13.1-23.9-33.3c0-26.3,16.1-57,36-68.4c5.2-3,10.4-4.5,15.2-4.5
							c14.5,0,23.9,13.1,23.9,33.3c0,26.3-16.1,57-36,68.4C65.3,118.5,60.2,120,55.3,120z M82.6,15.7c-4.5,0-9.3,1.4-14.2,4.3
							c-19.3,11.1-35,41-35,66.7c0,19,8.6,31.3,21.9,31.3c4.5,0,9.3-1.4,14.2-4.3c19.3-11.1,35-41,35-66.7
							C104.5,28,95.9,15.7,82.6,15.7z"/>
					</g>
					<path class="st3" d="M55.3,120c-3.8,0-7.3-0.9-10.4-2.7c0,0-0.1,0-0.1-0.1l-9.9-5.7c0,0-0.1,0-0.1-0.1
						c-8.4-5-13.3-16.1-13.3-30.5c0-26.3,16.1-57,36-68.4C62.7,9.5,67.8,8,72.7,8c3.8,0,7.3,0.9,10.4,2.7c0,0,0.1,0,0.1,0.1l9.9,5.7
						c0,0,0.1,0,0.1,0.1c8.4,5,13.3,16.1,13.3,30.5c0,26.3-16.1,57-36,68.4C65.3,118.5,60.2,120,55.3,120z M45.7,115.5
						C45.7,115.5,45.8,115.5,45.7,115.5c2.9,1.7,6.1,2.6,9.6,2.6c4.5,0,9.3-1.4,14.2-4.3c19.3-11.1,35-41,35-66.7
						c0-13.8-4.5-24.3-12.4-28.8c0,0-0.1,0-0.1-0.1l-9.7-5.6c0,0-0.1,0-0.1-0.1c-2.8-1.6-6-2.5-9.5-2.5c-4.5,0-9.3,1.4-14.2,4.3
						c-19.3,11.1-35,41-35,66.7c0,13.8,4.5,24.3,12.4,28.8c0,0,0.1,0,0.1,0.1L45.7,115.5z"/>
					<g>
						
							<ellipse transform="matrix(0.3916 -0.9201 0.9201 0.3916 -19.528 104.1838)" class="st0" cx="69" cy="66.9" rx="46.1" ry="26.1"/>
						<path class="st3" d="M57,111.5c-3,0-5.7-0.7-8.2-2.1c-6.9-4-10.9-13.2-10.9-25.1c0-22.4,13.7-48.5,30.5-58.2
							c7.5-4.4,14.9-4.9,20.6-1.6c6.9,4,10.9,13.2,10.9,25.1c0,22.4-13.7,48.5-30.5,58.2C65.2,110.3,60.9,111.5,57,111.5z
							 M80.9,24.2c-3.6,0-7.5,1.2-11.4,3.5C53.2,37.1,40,62.4,40,84.2c0,11.3,3.6,19.8,9.9,23.4c5.1,3,11.8,2.4,18.6-1.6
							C84.8,96.6,98,71.3,98,49.5c0-11.3-3.6-19.8-9.9-23.4C86,24.9,83.5,24.2,80.9,24.2z"/>
					</g>
					<path class="st4" d="M69,43.1c-0.6,0-1-0.4-1-1v-6.5c0-0.6,0.4-1,1-1s1,0.4,1,1v6.5C70,42.6,69.5,43.1,69,43.1z"/>
					<path class="st5" d="M69,67.9c-0.6,0-1-0.4-1-1V35.6c0-0.6,0.4-1,1-1s1,0.4,1,1v31.3C70,67.4,69.5,67.9,69,67.9z"/>
					<path class="st5" d="M45.5,81.4c-0.3,0-0.7-0.2-0.9-0.5c-0.3-0.5-0.1-1.1,0.4-1.4l4.9-2.8c0.5-0.3,1.1-0.1,1.4,0.4
						c0.3,0.5,0.1,1.1-0.4,1.4L46,81.3C45.9,81.4,45.7,81.4,45.5,81.4z"/>
					<path class="st5" d="M69,99.2c-0.6,0-1-0.4-1-1v-6.5c0-0.6,0.4-1,1-1s1,0.4,1,1v6.5C70,98.7,69.5,99.2,69,99.2z"/>
					<path class="st5" d="M87.6,57.1c-0.3,0-0.7-0.2-0.9-0.5c-0.3-0.5-0.1-1.1,0.4-1.4l4.9-2.8c0.5-0.3,1.1-0.1,1.4,0.4
						s0.1,1.1-0.4,1.4L88.1,57C87.9,57.1,87.7,57.1,87.6,57.1z"/>
					<path class="st4" d="M86.3,44.6c-0.2,0-0.4-0.1-0.6-0.2c-0.4-0.3-0.5-1-0.2-1.4l1.8-2.4c0.3-0.4,1-0.5,1.4-0.2s0.5,1,0.2,1.4
						l-1.8,2.4C86.9,44.4,86.6,44.6,86.3,44.6z"/>
					<path class="st4" d="M79,39c-0.1,0-0.2,0-0.3-0.1c-0.5-0.2-0.8-0.8-0.6-1.3l1-3c0.2-0.5,0.8-0.8,1.3-0.6s0.8,0.8,0.6,1.3l-1,3
						C79.8,38.8,79.4,39,79,39z"/>
					<path class="st4" d="M59,50.6c-0.3,0-0.7-0.2-0.9-0.5l-1-1.8c-0.3-0.5-0.1-1.1,0.4-1.4c0.5-0.3,1.1-0.1,1.4,0.4l1,1.8
						c0.3,0.5,0.1,1.1-0.4,1.4C59.3,50.5,59.2,50.6,59,50.6z"/>
					<path class="st4" d="M51.7,64.5c-0.1,0-0.1,0-0.2,0l-1.8-0.3c-0.5-0.1-0.9-0.6-0.8-1.2c0.1-0.5,0.6-0.9,1.2-0.8l1.8,0.3
						c0.5,0.1,0.9,0.6,0.8,1.2C52.6,64.2,52.1,64.5,51.7,64.5z"/>
					<path class="st4" d="M49.9,93.6c-0.2,0-0.4-0.1-0.6-0.2c-0.4-0.3-0.5-1-0.2-1.4l1.8-2.4c0.3-0.4,1-0.5,1.4-0.2s0.5,1,0.2,1.4
						l-1.8,2.4C50.5,93.5,50.2,93.6,49.9,93.6z"/>
					<path class="st4" d="M57.9,99.7c-0.1,0-0.2,0-0.3-0.1c-0.5-0.2-0.8-0.8-0.6-1.3l1-3c0.2-0.5,0.7-0.8,1.3-0.6
						c0.5,0.2,0.8,0.8,0.6,1.3l-1,3C58.7,99.5,58.4,99.7,57.9,99.7z"/>
					<path class="st4" d="M80,87c-0.3,0-0.7-0.2-0.9-0.5l-1-1.8c-0.3-0.5-0.1-1.1,0.4-1.4s1.1-0.1,1.4,0.4l1,1.8
						c0.3,0.5,0.1,1.1-0.4,1.4C80.4,86.9,80.2,87,80,87z"/>
					<path class="st4" d="M88.1,71.5c-0.1,0-0.1,0-0.2,0l-1.8-0.3c-0.5-0.1-0.9-0.6-0.8-1.2c0.1-0.5,0.6-0.9,1.2-0.8l1.8,0.3
						c0.5,0.1,0.9,0.6,0.8,1.2C89,71.2,88.6,71.5,88.1,71.5z"/>
					<path class="st5" d="M82.4,70.4c-0.1,0-0.1,0-0.2,0l-13.8-2.7c-0.5-0.1-0.9-0.6-0.8-1.2c0.1-0.5,0.6-0.9,1.2-0.8l13.8,2.7
						c0.5,0.1,0.9,0.6,0.8,1.2C83.3,70.1,82.8,70.4,82.4,70.4z"/>
					<g>
						
							<ellipse transform="matrix(0.3916 -0.9201 0.9201 0.3916 -19.528 104.1838)" class="st5" cx="69" cy="66.9" rx="3.4" ry="1.9"/>
						<path class="st5" d="M68.1,71.1c-0.4,0-0.7-0.1-1.1-0.3c-0.8-0.5-1.3-1.4-1.3-2.7c0-2,1.2-4.3,2.7-5.2
							c0.8-0.5,1.7-0.5,2.5-0.1c0.8,0.5,1.3,1.4,1.3,2.7c0,2-1.2,4.3-2.7,5.2C69,71,68.5,71.1,68.1,71.1z M69.9,64.6
							c-0.1,0-0.2,0-0.4,0.1c-0.9,0.5-1.7,2.1-1.7,3.4c0,0.6,0.2,0.9,0.3,0.9c0.1,0,0.2,0,0.5-0.1c0.9-0.5,1.7-2.1,1.7-3.4
							C70.2,65,70.1,64.7,69.9,64.6L69.9,64.6z"/>
					</g>
				</g>
				<rect x="4" y="4" class="st6" width="120" height="120"/>
				<rect x="4" y="4" class="st6" width="120" height="120"/>
			</g>
		</g>
	</g>
	<g>
		<rect class="st6" width="128" height="128"/>
	</g>
</g>
</svg>
