<?xml version="1.0" encoding="utf-8"?>
<!-- Generator: Adobe Illustrator 24.1.0, SVG Export Plug-In . SVG Version: 6.00 Build 0)  -->
<svg version="1.1" id="Layer_1" xmlns="http://www.w3.org/2000/svg" xmlns:xlink="http://www.w3.org/1999/xlink" x="0px" y="0px"
	 viewBox="0 0 128 128" style="enable-background:new 0 0 128 128;" xml:space="preserve">
<style type="text/css">
	.st0{fill:none;}
	.st1{fill:#DEEAFF;}
	.st2{fill:#436DB5;}
	.st3{fill:#FFFFFF;}
	.st4{fill:#DFEAB0;}
	.st5{fill:#98B9EA;}
	.st6{fill:#A7B23B;}
	.st7{fill:#C4D36C;}
</style>
<g id="Layer_1_1_">
</g>
<g>
	<g id="Layer_2_1_">
		<g id="Objects_1_">
			<g>
				<rect x="4" y="4" class="st0" width="120" height="120"/>
				<g>
					<g>
						<g>
							<g>
								<g>
									<path class="st1" d="M119.8,69.4l-12.1,7c-0.3,0.2-0.8,0.2-1.1,0l-1.5-0.8c-0.3-0.2-0.3-0.5,0-0.6l12.1-7
										c0.3-0.2,0.8-0.2,1.1,0l1.5,0.8C120.1,69,120.1,69.2,119.8,69.4z"/>
									<path class="st1" d="M96.2,83l-12.1,7c-0.3,0.2-0.8,0.2-1.1,0l-1.5-0.8c-0.3-0.2-0.3-0.5,0-0.6l12.1-7
										c0.3-0.2,0.8-0.2,1.1,0l1.5,0.8C96.5,82.5,96.5,82.8,96.2,83z"/>
									<path class="st1" d="M72.7,96.6l-12.1,7c-0.3,0.2-0.8,0.2-1.1,0l-1.5-0.8c-0.3-0.2-0.3-0.5,0-0.6l12.1-7
										c0.3-0.2,0.8-0.2,1.1,0l1.5,0.8C73,96.1,73,96.4,72.7,96.6z"/>
								</g>
								<g>
									<path class="st1" d="M71.4,41.5l-12.1,7c-0.3,0.2-0.8,0.2-1.1,0l-1.5-0.8c-0.3-0.2-0.3-0.5,0-0.6l12.1-7
										c0.3-0.2,0.8-0.2,1.1,0l1.5,0.8C71.7,41,71.7,41.3,71.4,41.5z"/>
									<path class="st1" d="M47.8,55l-12.1,7c-0.3,0.2-0.8,0.2-1.1,0l-1.5-0.8c-0.3-0.2-0.3-0.5,0-0.6l12.1-7
										c0.3-0.2,0.8-0.2,1.1,0l1.5,0.8C48.1,54.6,48.1,54.9,47.8,55z"/>
									<path class="st1" d="M24.3,68.6l-12.1,7c-0.3,0.2-0.8,0.2-1.1,0l-1.5-0.8c-0.3-0.2-0.3-0.5,0-0.6l12.1-7
										c0.3-0.2,0.8-0.2,1.1,0l1.5,0.8C24.6,68.2,24.6,68.5,24.3,68.6z"/>
								</g>
								<g>
									<g>
										<path class="st1" d="M41,48.2l-0.8-3c-0.2-0.8,0.4-1.8,1.2-2.2l0.4-0.2c0.9-0.4,1.7-0.1,1.9,0.8l0.8,3
											c0.2,0.8-0.4,1.8-1.2,2.2L43,49C42.1,49.4,41.2,49.1,41,48.2z"/>
										<path class="st2" d="M42.2,50.2c-0.4,0-0.7-0.1-1-0.2c-0.6-0.3-1-0.8-1.1-1.5l-0.8-3c-0.3-1.3,0.5-2.8,1.8-3.4l0.4-0.2
											c0.7-0.3,1.5-0.3,2.2,0c0.6,0.3,1,0.8,1.2,1.5l0.8,3c0.3,1.3-0.5,2.8-1.8,3.4L43.5,50C43,50.1,42.6,50.2,42.2,50.2z
											 M42.6,43.7c-0.1,0-0.2,0-0.3,0.1L41.9,44c-0.5,0.2-0.7,0.8-0.7,1.1l0.8,3l0,0c0,0.1,0.1,0.1,0.1,0.1c0.1,0,0.2,0,0.4,0
											l0.4-0.2c0.5-0.2,0.7-0.8,0.7-1.1l-0.8-3c0-0.1-0.1-0.2-0.1-0.2C42.7,43.7,42.6,43.7,42.6,43.7z"/>
									</g>
									<g>
										<path class="st3" d="M105.3,61.8l4.7-2.5c0,0,9.3-1.2,9.3-14.5s-13.2-15.3-13.2-15.3L98.5,26l-11.6,4.6"/>
										<path class="st4" d="M105.3,62.8c-0.4,0-0.7-0.2-0.9-0.5c-0.3-0.5-0.1-1.1,0.4-1.4l4.7-2.5c0.1-0.1,0.2-0.1,0.4-0.1
											c0.3,0,8.4-1.3,8.4-13.5c0-12.3-11.8-14.2-12.3-14.3c-0.1,0-0.2,0-0.3-0.1l-7.2-3.3l-11.2,4.4c-0.5,0.2-1.1,0-1.3-0.6
											c-0.2-0.5,0-1.1,0.6-1.3L98.2,25c0.3-0.1,0.5-0.1,0.8,0l7.4,3.4c1.5,0.3,13.9,3,13.9,16.2c0,12.9-8.5,15.2-9.9,15.5
											l-4.5,2.5C105.6,62.8,105.5,62.8,105.3,62.8z"/>
									</g>
									<path class="st3" d="M115.7,39.6c2.8-3.5-1.2-9.3-8.7-13.4s-16.4-4.3-21.7-1.3"/>
									<g>
										<path class="st3" d="M103.7,39.6c9,2.4,13.2-2.5,12.6-4.2"/>
										<path class="st5" d="M108.4,41.3c-1.4,0-3-0.2-4.9-0.7c-0.5-0.1-0.9-0.7-0.7-1.2c0.1-0.5,0.7-0.9,1.2-0.7
											c6.5,1.7,9.7-0.6,10.5-1.4c0.8-0.7,0.9-1.4,0.9-1.5c-0.2-0.5,0.1-1.1,0.6-1.3s1.1,0.1,1.3,0.6c0.3,1-0.1,2.2-1.2,3.3
											C115.3,39.2,112.9,41.3,108.4,41.3z"/>
									</g>
									<path class="st1" d="M116.3,35.4c-0.9-3-4.4-6.5-9.4-9.2c-7.1-3.8-15.2-4.3-20.5-1.8c-1.3,0-2.6,0-3.9,0.3
										c-10.3,1.9-21.7,7.1-32,15.5v0.1c-4.5,3.7-8.9,8-12.8,12.9C27.3,59.6,20.6,64.4,20.6,75c0,0-2.7,7.6,3.1,10.1l2.1,0.3
										l9,5.1l0.6,1.5c7.9,4.6,18.3,1.7,22-1.8l5.7-3.7L105.6,62l0,0l4.7-2.5c0,0,9.3-1.2,9.3-14.5
										C119.3,40.7,118,37.6,116.3,35.4z"/>
									<path class="st3" d="M103,32.1c-0.2,0-0.4,0-0.5-0.2c-2.6-1.6-5.4-3.2-8.4-4.6c-3.6-1.8-7.6-2.4-11.4-1.7
										c-0.5,0.1-1.1-0.3-1.2-0.8s0.3-1.1,0.8-1.2c4.3-0.8,8.6-0.1,12.7,1.8c3,1.5,5.9,3.1,8.5,4.7c0.5,0.3,0.6,0.9,0.3,1.4
										C103.6,31.9,103.3,32.1,103,32.1z"/>
									<path class="st5" d="M116.3,35.4c0.6,1.7-3.6,6.6-12.6,4.2L76,57.4L61.3,64l2,5.5C57,71.2,44.8,75.2,39.8,80l-0.2,0.3
										l4.5,1.5v3.9c0,3.5-3.4,5.9-6.7,4.8c-1.7-0.6-2.8-1.1-2.8-1.1l0.6,2.4c4.1,2.4,8.8,2.8,13,2.1c0,0,0,0,0.1,0
										c0.3-0.1,0.6-0.1,0.9-0.2h0.1c0.3-0.1,0.6-0.1,0.9-0.2c0.3-0.1,0.6-0.2,0.9-0.2h0.1c0.3-0.1,0.6-0.2,0.9-0.3l0,0
										c2.2-0.8,4-1.8,5.1-2.9l5.7-3.7l42.5-24.5l4.7-2.5c0,0,9.3-1.2,9.3-14.5C119.3,40.7,118,37.6,116.3,35.4z"/>
									<path class="st2" d="M98.5,66.8c-0.5,0-0.9-0.4-1-0.8c-0.1-0.7-0.2-1.5-0.2-2.3c0-0.6,0.4-1,1-1s1,0.4,1,1
										c0,0.7,0.1,1.4,0.2,2c0.1,0.5-0.3,1.1-0.8,1.1C98.6,66.8,98.5,66.8,98.5,66.8z"/>
									<path class="st1" d="M114.3,49.1c-0.3,0-0.6-0.1-0.8-0.4c-0.3-0.4-0.2-1.1,0.2-1.4c0.2-0.2,5.7-4.3,3.2-9
										c-0.3-0.5-0.1-1.1,0.4-1.3c0.5-0.3,1.1-0.1,1.3,0.4c2.6,5-1.3,9.7-3.8,11.5C114.7,49,114.5,49.1,114.3,49.1z"/>
									<path class="st1" d="M38,79c-1.7,1.9-2.8,3.9-3.1,5.9c0,0,13.1,8.6,20.8-6c0.5-1-0.3-2.3-1.2-1.9C50,78.8,43.9,79.7,38,79
										L38,79z"/>
									<path class="st5" d="M108.4,41.3c-1.4,0-3-0.2-4.9-0.7c-0.5-0.1-0.9-0.7-0.7-1.2c0.1-0.5,0.7-0.9,1.2-0.7
										c6.5,1.7,9.7-0.6,10.5-1.4c0.8-0.7,1-1.4,0.9-1.5c-0.2-0.5,0.1-1.1,0.6-1.3s1.1,0.1,1.3,0.6c0.3,1-0.1,2.2-1.2,3.3
										C115.3,39.2,112.9,41.3,108.4,41.3z"/>
									<path class="st3" d="M25.3,73.2c-0.1,0-0.2,0-0.3,0c-0.5-0.2-0.8-0.7-0.7-1.2c2-7,6.1-13.2,13.2-19.9c0.4-0.4,1-0.4,1.4,0
										s0.4,1,0,1.4C32,60,28.1,65.8,26.2,72.5C26.1,72.9,25.7,73.2,25.3,73.2z"/>
									<path class="st3" d="M39.8,81c-0.3,0-0.5-0.1-0.7-0.3c-0.4-0.4-0.4-1,0-1.4c6-5.7,21-9.9,23.9-10.7
										c0.5-0.1,1.1,0.2,1.2,0.7s-0.2,1.1-0.7,1.2c-7.9,2.1-18.7,6-23,10.2C40.3,80.9,40.1,81,39.8,81z"/>
									<g>
										<path class="st1" d="M35.5,79.2c-1.4-0.4-2.8-1-4-1.7c-1.3-0.8-2.5-1.5-3.4-2.3"/>
										<path class="st5" d="M35.5,80.2c-0.1,0-0.2,0-0.3,0c-1.6-0.4-3-1-4.3-1.8c-1.4-0.8-2.6-1.6-3.6-2.4
											c-0.4-0.3-0.5-1-0.2-1.4s1-0.5,1.4-0.2c0.9,0.7,2,1.4,3.3,2.2c1.1,0.6,2.4,1.2,3.8,1.6c0.5,0.2,0.8,0.7,0.7,1.2
											C36.4,79.9,36,80.2,35.5,80.2z"/>
									</g>
									<path class="st2" d="M87.6,73c-0.1,0-0.2,0-0.2,0c-0.5-0.1-0.9-0.7-0.7-1.2c0.4-1.8,0.6-4.9,0.5-8.1c0-0.6,0.4-1,1-1
										c0.5,0,1,0.4,1,1c0.1,3.4-0.1,6.6-0.6,8.7C88.5,72.7,88.1,73,87.6,73z"/>
									<g>
										<path class="st3" d="M36.9,54c3,2.9,11.2,9.7,26.4,15.6c3.5-7.9,7.4-13.9,11.4-18.4c-0.1,0-12.7-5-22.5-12.3
											C46.7,43,41.5,48.1,36.9,54z"/>
									</g>
									<path class="st1" d="M63.3,69.6c2.7-6,5.6-10.9,8.6-14.9c-3.5-1.5-9.6-4.4-15.5-8.2c-2.6-1.7-6-1.5-8.3,0.6
										c-3.1,2.7-6,5.7-8.8,9C43.2,59.4,50.9,64.8,63.3,69.6z"/>
									<path class="st1" d="M38.2,52.4c-0.4,0.5-0.8,1-1.3,1.6c3,2.9,11.2,9.7,26.4,15.6c0.3-0.6,0.5-1.1,0.8-1.7
										c1-2.1,0.1-4.5-2-5.4c-8.4-3.7-14.4-7.6-18.4-10.6C42,50.5,39.5,50.8,38.2,52.4z"/>
									<path class="st3" d="M63.3,70.6c-0.1,0-0.2,0-0.4-0.1c-15.5-6-23.8-13-26.7-15.8c-0.4-0.4-0.4-0.9-0.1-1.3
										c0.4-0.5,0.8-1.1,1.3-1.6c1.7-2.1,4.7-2.4,6.9-0.8c5.1,3.8,11.2,7.4,18.2,10.5c1.2,0.6,2.2,1.6,2.7,2.8
										c0.5,1.3,0.4,2.7-0.2,3.9c-0.3,0.6-0.5,1.1-0.8,1.7C64,70.3,63.7,70.6,63.3,70.6z M38.3,53.9c3.2,2.9,11,9,24.5,14.4
										c0.1-0.3,0.3-0.6,0.4-0.9c0.4-0.8,0.4-1.6,0.1-2.4c-0.3-0.8-0.9-1.4-1.6-1.7c-7.1-3.2-13.3-6.8-18.6-10.7
										c-1.3-1-3.1-0.8-4.2,0.5l0,0C38.7,53.3,38.5,53.6,38.3,53.9z M38.2,52.4L38.2,52.4L38.2,52.4z"/>
									<g>
										<path class="st5" d="M63.3,70.6c-0.1,0-0.2,0-0.4-0.1c-15.5-6-23.8-13-26.7-15.8c-0.4-0.4-0.4-0.9-0.1-1.3
											c4.5-5.7,9.7-10.9,15.4-15.3c0.4-0.3,0.9-0.3,1.2,0c9.6,7.2,22.2,12.1,22.3,12.2c0.3,0.1,0.5,0.4,0.6,0.7s0,0.7-0.2,0.9
											c-4.2,4.7-8,10.8-11.3,18.2C64,70.3,63.7,70.6,63.3,70.6z M38.3,53.9c3.2,2.9,11,9,24.5,14.4c3-6.6,6.5-12.2,10.3-16.7
											c-3.4-1.4-13-5.7-20.9-11.4C47,44.1,42.4,48.8,38.3,53.9z"/>
									</g>
									<path class="st1" d="M84.1,64.6l-1.5,0.8c-0.5,0.3-0.8,0-0.8-0.6v-0.1c0-0.6,0.4-1.3,0.8-1.6l1.5-0.8
										c0.5-0.3,0.8,0,0.8,0.6V63C84.9,63.6,84.5,64.3,84.1,64.6z"/>
									<path class="st3" d="M32.9,86.7l-6.9-4c-0.3-0.2-0.6-0.7-0.6-1.2v-2.2c0-0.5,0.3-0.7,0.6-0.5l6.9,4
										c0.3,0.2,0.6,0.7,0.6,1.2v2.2C33.5,86.7,33.2,86.9,32.9,86.7z"/>
									<path class="st1" d="M63.3,69.6c10.6-2.8,36.5-18.4,42.3-27.3c0.6-0.9,0.1-2.2-0.9-2.4C93.3,36.9,75.9,41.2,63.3,69.6z"/>
									<path class="st3" d="M105.5,40.4c-0.2-0.3-0.5-0.5-0.8-0.5C93.4,37,76,41.3,63.3,69.6c0,0,0,0,0.1,0c3.7-1,6.7-3.5,8.6-6.8
										C82.6,44.1,95.6,39.4,105.5,40.4z"/>
									<path class="st5" d="M87,53.8c-0.5,0-0.9-0.4-1-0.9c-0.8-5.7-2.2-9.7-2.2-9.7c-0.2-0.5,0.1-1.1,0.6-1.3s1.1,0.1,1.3,0.6
										c0.1,0.2,1.5,4.2,2.3,10.1c0.1,0.5-0.3,1.1-0.8,1.1C87.1,53.8,87,53.8,87,53.8z"/>
									<path class="st5" d="M63.3,70.6c-0.3,0-0.6-0.1-0.8-0.4s-0.3-0.7-0.2-1.1c5.8-13,13.1-22.1,21.6-27
										c6.6-3.9,14.1-5,20.9-3.3c0.8,0.2,1.4,0.8,1.8,1.6c0.3,0.8,0.2,1.7-0.2,2.4c-6,9.3-32.4,24.9-42.9,27.7
										C63.5,70.5,63.4,70.6,63.3,70.6z M98.3,40c-12.6,0-24.6,10-33.2,27.9c5.2-1.8,13-5.8,20.6-10.6c9.4-5.9,16.5-11.7,19-15.6
										c0.2-0.2,0.1-0.5,0.1-0.6s-0.1-0.3-0.4-0.3C102.4,40.3,100.3,40,98.3,40z"/>
									<g>
										<path class="st1" d="M39.8,80c-1.2,1.1-1.9,2.3-2.2,3.4c0,0,9.2,5,14.6-3.5c0.4-0.6-0.2-1.3-0.9-1.1
											C48.3,79.9,44,80.4,39.8,80L39.8,80z"/>
										<path class="st3" d="M43.7,85.9c-3.6,0-6.5-1.5-6.5-1.6c-0.4-0.2-0.6-0.6-0.5-1.1c0.3-1.3,1.1-2.6,2.5-4
											c0.2-0.2,0.6-0.3,0.9-0.3c3.7,0.4,7.9-0.1,11.1-1.1c0.7-0.2,1.5,0,1.9,0.6c0.5,0.6,0.5,1.4,0.1,2
											C50.4,84.7,46.8,85.9,43.7,85.9z M38.9,82.9C41,83.8,47,85.6,51,80c-3.2,1-7.2,1.3-10.8,1C39.6,81.7,39.1,82.3,38.9,82.9z
											"/>
									</g>
									<g>
										<path class="st3" d="M45.6,80c-1.9,0.2-3.8,0.2-5.8,0l0,0c-1.2,1.1-1.9,2.3-2.2,3.4c0,0,0.1,0,0.2,0.1
											c2.4,1.1,5.1,0.2,6.6-1.9C44.8,81.1,45.2,80.5,45.6,80z"/>
										<path class="st3" d="M40,84.5c-0.8,0-1.6-0.2-2.4-0.5c-0.2-0.1-0.3-0.1-0.3-0.1c-0.2-0.1-0.3-0.3-0.2-0.5
											c0.2-1.2,1-2.5,2.3-3.7c0.1-0.1,0.3-0.2,0.5-0.1c1.8,0.2,3.7,0.2,5.7,0c0.2,0,0.4,0.1,0.5,0.3c0.1,0.2,0.1,0.4-0.1,0.6
											c-0.4,0.5-0.8,1.1-1.1,1.6C43.8,83.6,41.9,84.5,40,84.5z M38.2,83.2c2.1,0.9,4.5,0.2,5.8-1.8c0.2-0.2,0.3-0.5,0.5-0.7
											c-1.6,0.1-3.1,0.1-4.6-0.1C39.1,81.4,38.5,82.3,38.2,83.2z"/>
									</g>
									<g>
										<path class="st3" d="M25.3,73.2c-0.6,0-1-0.4-1-1l0,0c0-0.6,0.4-1,1-1s1,0.4,1,1S25.8,73.2,25.3,73.2z"/>
										<g>
											<path class="st3" d="M24.2,63.6c-1.2,1.5-2.1,3.1-2.7,4.9c-0.5,5.1,3,7.1,3,7.1c0.2-1.2,0.5-2.3,0.8-3.4
												C23.9,70,23.6,67.3,24.2,63.6z"/>
											<path class="st3" d="M24.5,76.6c-0.2,0-0.3,0-0.5-0.1s-4.1-2.4-3.5-8.1c0-0.1,0-0.2,0.1-0.2c0.6-1.8,1.6-3.5,2.8-5.2
												c0.3-0.4,0.8-0.5,1.2-0.3c0.4,0.2,0.7,0.6,0.6,1.1c-0.6,3.6-0.3,5.9,1,7.9c0.1,0.2,0.2,0.5,0.1,0.8
												c-0.3,1.1-0.6,2.2-0.8,3.3c-0.1,0.3-0.3,0.6-0.6,0.7C24.8,76.6,24.6,76.6,24.5,76.6z M22.5,68.7c-0.2,2.5,0.6,4.1,1.4,5
												c0.1-0.5,0.2-0.9,0.3-1.4c-0.8-1.4-1.2-2.9-1.3-4.8C22.7,68,22.6,68.4,22.5,68.7z"/>
										</g>
									</g>
									<path class="st2" d="M44.6,95.2c-3.4,0-6.8-0.7-9.9-2.6c-0.2-0.1-0.3-0.3-0.4-0.5L33.8,91l-8.5-4.8L23.4,86
										c-0.1,0-0.2,0-0.2-0.1c-5.2-2.2-4.7-8.2-3.7-11.2c0.1-10.8,7-15.9,17.5-22.3c3.8-4.7,8.1-9,12.8-12.8
										c0-0.1,0.1-0.1,0.1-0.1c10-8.2,21.6-13.8,32.5-15.7c1.2-0.2,2.5-0.3,3.9-0.3c5.9-2.6,14.2-1.8,21.2,2
										c5,2.7,8.7,6.3,9.8,9.6c2,2.7,3,6,3,9.8c0,12.9-8.5,15.2-9.9,15.5l-4.5,2.5L63.3,87.2l-5.6,3.6
										C55.1,93.3,50,95.2,44.6,95.2z M36,91.1c7.7,4.3,17.4,1.2,20.5-1.8l0.1-0.1l5.7-3.7l42.6-24.6l4.7-2.5
										c0.1-0.1,0.2-0.1,0.4-0.1c0.3,0,8.4-1.3,8.4-13.5c0-3.4-0.9-6.4-2.7-8.7c-0.1-0.1-0.1-0.2-0.2-0.3
										c-0.9-2.8-4.3-6.1-8.9-8.6c-6.4-3.5-14.3-4.2-19.7-1.8c-0.1,0.1-0.3,0.1-0.4,0.1c-1.3,0-2.5,0-3.7,0.3
										c-10.5,1.9-21.7,7.3-31.5,15.3c0,0.1-0.1,0.1-0.1,0.1c-4.6,3.8-8.9,8.1-12.7,12.7c-0.1,0.1-0.2,0.2-0.3,0.2
										c-10.4,6.4-16.7,11-16.7,20.9c0,0.1,0,0.2-0.1,0.3c-0.1,0.3-2.3,6.7,2.4,8.8l1.9,0.3c0.1,0,0.2,0.1,0.3,0.1l9,5.1
										c0.2,0.1,0.4,0.3,0.4,0.5L36,91.1z"/>
									
										<ellipse transform="matrix(0.3916 -0.9201 0.9201 0.3916 -42.2558 107.507)" class="st5" cx="60.2" cy="85.7" rx="7.9" ry="4.5"/>
									<path class="st2" d="M58.1,94.1c-0.6,0-1.3-0.2-1.8-0.5c-1.4-0.8-2.3-2.7-2.3-5c0-4.2,2.5-8.9,5.7-10.7
										c1.6-0.9,3.1-1,4.4-0.3c1.4,0.8,2.3,2.7,2.3,5c0,4.2-2.5,8.9-5.7,10.7C59.8,93.9,58.9,94.1,58.1,94.1z M62.2,79.2
										c-0.6,0-1.1,0.2-1.5,0.5c-2.5,1.5-4.7,5.6-4.7,9c0,1.6,0.5,2.8,1.3,3.3s1.7,0.1,2.4-0.3c2.5-1.5,4.7-5.6,4.7-9
										c0-1.6-0.5-2.8-1.3-3.3C62.7,79.2,62.5,79.2,62.2,79.2z"/>
									<path class="st2" d="M68.8,83.9L68.8,83.9c-0.6-0.1-1-0.6-1-1.1C68,82,68,81.2,68,80.5c0-0.6,0.4-1,1-1s1,0.4,1,1
										c0,0.8-0.1,1.6-0.2,2.5C69.8,83.5,69.3,83.9,68.8,83.9z"/>
									
										<ellipse transform="matrix(0.3916 -0.9201 0.9201 0.3916 -42.2558 107.507)" class="st1" cx="60.2" cy="85.7" rx="3.5" ry="2"/>
									
										<ellipse transform="matrix(0.3916 -0.9201 0.9201 0.3916 11.4163 134.2209)" class="st5" cx="107.2" cy="58.5" rx="7.9" ry="4.5"/>
									<path class="st2" d="M105.1,67c-0.6,0-1.3-0.2-1.8-0.5c-1.4-0.8-2.3-2.7-2.3-5c0-4.2,2.5-8.9,5.7-10.7
										c1.6-0.9,3.1-1,4.4-0.3c1.4,0.8,2.3,2.7,2.3,5c0,4.2-2.5,8.9-5.7,10.7C106.8,66.7,105.9,67,105.1,67z M109.2,52
										c-0.6,0-1.1,0.2-1.5,0.5c-2.5,1.5-4.7,5.6-4.7,9c0,1.6,0.5,2.8,1.3,3.3s1.7,0.1,2.4-0.3c2.5-1.5,4.7-5.6,4.7-9
										c0-1.6-0.5-2.8-1.3-3.3C109.8,52.1,109.5,52,109.2,52z"/>
									
										<ellipse transform="matrix(0.3916 -0.9201 0.9201 0.3916 11.4163 134.2209)" class="st1" cx="107.2" cy="58.5" rx="3.5" ry="2"/>
									<path class="st5" d="M45.4,68.1c-0.2,0-0.3,0-0.5-0.1c-1.2-0.7-2.3-1.3-3.4-2c-0.8-0.5-1.6-1-2.3-1.5
										c-0.5-0.3-0.6-0.9-0.3-1.4s0.9-0.6,1.4-0.3c0.7,0.5,1.4,0.9,2.2,1.4c1.1,0.7,2.2,1.3,3.3,2c0.5,0.3,0.7,0.9,0.4,1.4
										C46.1,67.9,45.8,68.1,45.4,68.1z"/>
									<path class="st1" d="M100.4,55.2L98.9,56c-0.5,0.3-0.8,0-0.8-0.6v-0.1c0-0.6,0.4-1.3,0.8-1.6l1.5-0.8
										c0.5-0.3,0.8,0,0.8,0.6v0.1C101.2,54.2,100.8,54.9,100.4,55.2z"/>
									<path class="st5" d="M70.7,65.3L70.7,65.3L66,64.6c-0.5-0.1-0.9-0.6-0.8-1.1s0.6-0.9,1.1-0.8l4.6,0.6
										c0.5,0.1,0.9,0.6,0.8,1.1C71.7,64.9,71.2,65.3,70.7,65.3z"/>
									<path class="st2" d="M105.1,67c-0.6,0-1.3-0.2-1.8-0.5c-1.4-0.8-2.3-2.7-2.3-5c0-4.2,2.5-8.9,5.7-10.7
										c1.6-0.9,3.1-1,4.4-0.3c1.4,0.8,2.3,2.7,2.3,5c0,4.2-2.5,8.9-5.7,10.7C106.8,66.7,105.9,67,105.1,67z M109.2,52
										c-0.6,0-1.1,0.2-1.5,0.5c-2.5,1.5-4.7,5.6-4.7,9c0,1.6,0.5,2.8,1.3,3.3s1.7,0.1,2.4-0.3c2.5-1.5,4.7-5.6,4.7-9
										c0-1.6-0.5-2.8-1.3-3.3C109.8,52.1,109.5,52,109.2,52z"/>
									<g>
										<path class="st1" d="M76.3,66.5l-3.9-0.2c-0.9-0.1-1.6-1-1.7-2v-0.4c0-1.1,0.7-1.9,1.6-1.8l3.9,0.2c0.9,0.1,1.6,1,1.7,2
											v0.4C77.9,65.8,77.2,66.6,76.3,66.5z"/>
										<path class="st5" d="M76.4,67.5L76.4,67.5l-4-0.2c-1.4-0.1-2.6-1.4-2.6-3v-0.4c0-0.8,0.3-1.6,0.8-2.2
											c0.5-0.5,1.1-0.7,1.8-0.7l3.9,0.2c1.4,0.1,2.6,1.4,2.6,3v0.4c0,0.8-0.3,1.6-0.8,2.2C77.6,67.3,77,67.5,76.4,67.5z
											 M76.3,65.5c0,0,0.2,0,0.3-0.1c0.2-0.1,0.2-0.4,0.2-0.7v-0.4c0-0.6-0.4-1-0.7-1l-3.9-0.2c0,0-0.2,0-0.3,0.1
											c-0.2,0.1-0.2,0.4-0.2,0.7v0.4c0,0.6,0.4,1,0.7,1L76.3,65.5z"/>
									</g>
								</g>
							</g>
						</g>
						<g>
							<g>
								<path class="st6" d="M8,90.9c-0.1,0-0.1,0-0.2,0s-0.1,0-0.2-0.1c-0.1,0-0.1-0.1-0.2-0.1s-0.1-0.1-0.2-0.1
									C7.1,90.4,7,90.1,7,89.9c0-0.3,0.1-0.5,0.3-0.7c0,0,0.1-0.1,0.2-0.1c0,0,0.1-0.1,0.2-0.1s0.1,0,0.2-0.1c0.1,0,0.3,0,0.4,0
									c0.1,0,0.1,0,0.2,0.1c-0.1,0,0,0,0.1,0l0.1,0.1C8.9,89.3,9,89.6,9,89.9s-0.1,0.5-0.3,0.7c0,0.1-0.1,0.1-0.1,0.1
									c-0.1,0-0.1,0.1-0.2,0.1c-0.1,0-0.1,0-0.2,0.1C8.1,90.8,8.1,90.9,8,90.9z"/>
								<path class="st6" d="M28.8,105.8c-0.5-0.1-0.9-0.6-0.9-1.1l0,0c0.1-0.5,0.6-0.9,1.1-0.9l0,0c0.5,0.1,0.9,0.6,0.9,1.1l0,0
									c-0.1,0.5-0.5,0.9-1,0.9l0,0H28.8z M23.2,104.7c-0.5-0.1-0.8-0.7-0.7-1.2l0,0c0.1-0.5,0.7-0.9,1.2-0.7l0,0
									c0.5,0.2,0.9,0.7,0.7,1.2l0,0c-0.1,0.4-0.5,0.7-1,0.7l0,0C23.4,104.8,23.3,104.7,23.2,104.7z M17.8,102.8
									c-0.5-0.2-0.7-0.8-0.5-1.3l0,0c0.2-0.5,0.8-0.7,1.3-0.5l0,0c0.5,0.2,0.7,0.8,0.5,1.3l0,0c-0.2,0.4-0.5,0.6-0.9,0.6l0,0
									C18.1,102.9,17.9,102.9,17.8,102.8z M12.8,99.9c-0.4-0.3-0.5-1-0.2-1.4l0,0c0.3-0.4,1-0.5,1.4-0.2l0,0
									c0.4,0.3,0.5,1,0.2,1.4l0,0c-0.2,0.3-0.5,0.4-0.8,0.4l0,0C13.2,100.1,13,100.1,12.8,99.9z M8.8,95.6
									c-0.3-0.5-0.2-1.1,0.3-1.4l0,0c0.5-0.3,1.1-0.1,1.4,0.3l0,0l0,0l0,0c0.3,0.5,0.2,1.1-0.3,1.4l0,0C10,96,9.8,96.1,9.7,96.1
									l0,0C9.3,96.1,8.9,95.9,8.8,95.6z"/>
								<path class="st6" d="M34.5,106.1c-0.3,0-0.5-0.1-0.7-0.3c-0.1-0.1-0.2-0.2-0.2-0.3c-0.1-0.1-0.1-0.3-0.1-0.4
									c0-0.3,0.1-0.5,0.3-0.7c0-0.1,0.1-0.1,0.1-0.1c0.1,0,0.1-0.1,0.2-0.1c0.1,0,0.1,0,0.2-0.1c0.3-0.1,0.7,0,0.9,0.3
									c0.2,0.2,0.3,0.4,0.3,0.7c0,0.1,0,0.3-0.1,0.4c0,0.1-0.1,0.2-0.2,0.3C35,106,34.7,106.1,34.5,106.1z"/>
							</g>
							<g>
								<path class="st6" d="M19.3,90.9c-0.1,0-0.1,0-0.2,0s-0.1,0-0.2-0.1c-0.1,0-0.1-0.1-0.2-0.1l-0.1-0.1c0,0-0.1-0.1-0.1-0.2
									c0,0-0.1-0.1-0.1-0.2s-0.1-0.1-0.1-0.2s0-0.1,0-0.2c0-0.3,0.1-0.5,0.3-0.7l0.1-0.1c0.1,0,0.1-0.1,0.2-0.1s0.1,0,0.2-0.1
									c0.1,0,0.3,0,0.4,0s0.1,0,0.2,0.1c0.1,0,0.1,0.1,0.2,0.1s0.1,0.1,0.2,0.1c0.2,0.2,0.3,0.5,0.3,0.7c0,0.1,0,0.1,0,0.2
									s0,0.1-0.1,0.2c0,0.1,0,0.1-0.1,0.2c0,0.1-0.1,0.1-0.1,0.2c-0.1,0.1-0.1,0.1-0.2,0.1c0,0-0.1,0.1-0.2,0.1s-0.1,0-0.2,0.1
									C19.5,90.8,19.4,90.9,19.3,90.9z"/>
								<path class="st6" d="M27.9,98.8c-0.5-0.1-0.8-0.7-0.7-1.2l0,0c0.1-0.5,0.7-0.9,1.2-0.7l0,0c0.5,0.2,0.8,0.7,0.7,1.2l0,0
									c-0.1,0.4-0.5,0.7-1,0.7l0,0C28.1,98.8,28,98.8,27.9,98.8z M21.8,95.9L21.8,95.9c-0.4-0.3-0.5-1-0.2-1.4l0,0
									c0.3-0.4,1-0.5,1.4-0.2l0,0c0.4,0.3,0.5,1,0.2,1.4l0,0c-0.2,0.2-0.5,0.4-0.8,0.4l0,0C22.2,96.1,22,96.1,21.8,95.9z"/>
								<path class="st6" d="M34.5,99.6c-0.3,0-0.5-0.1-0.7-0.3c-0.1-0.1-0.2-0.2-0.2-0.3c-0.1-0.1-0.1-0.2-0.1-0.4
									c0-0.3,0.1-0.5,0.3-0.7l0.1-0.1c0.1,0,0.1-0.1,0.2-0.1c0.1,0,0.1,0,0.2-0.1c0.3-0.1,0.7,0,0.9,0.3c0.2,0.2,0.3,0.4,0.3,0.7
									c0,0.1,0,0.3-0.1,0.4c0,0.1-0.1,0.2-0.2,0.3C35,99.5,34.7,99.6,34.5,99.6z"/>
							</g>
						</g>
					</g>
					<g>
						<path class="st6" d="M68.9,88.4c-0.3,0-0.5-0.1-0.7-0.3C68.1,88,68,87.9,68,87.8c0-0.1-0.1-0.2-0.1-0.4c0-0.3,0.1-0.5,0.3-0.7
							c0.4-0.4,1-0.4,1.4,0c0.2,0.2,0.3,0.4,0.3,0.7c0,0.1,0,0.3-0.1,0.4s-0.1,0.2-0.2,0.3C69.4,88.3,69.2,88.4,68.9,88.4z"/>
						<path class="st6" d="M72.7,90.8c-0.5-0.3-0.6-0.9-0.4-1.4l0,0c0.3-0.5,0.9-0.7,1.4-0.4l0,0c0.5,0.3,0.6,0.9,0.4,1.4l0,0
							c-0.2,0.3-0.5,0.5-0.9,0.5l0,0C73.1,90.9,72.9,90.9,72.7,90.8z"/>
						<path class="st6" d="M77.5,93.4c-0.3,0-0.5-0.1-0.7-0.3c-0.1-0.1-0.2-0.2-0.2-0.3c0-0.1-0.1-0.2-0.1-0.4c0-0.1,0-0.1,0-0.2
							s0-0.1,0-0.2s0.1-0.1,0.1-0.2s0.1-0.1,0.1-0.2c0.2-0.2,0.6-0.3,0.9-0.3c0.1,0,0.1,0,0.2,0.1c0.1,0,0.1,0.1,0.2,0.1
							s0.1,0.1,0.2,0.1c0.2,0.2,0.3,0.4,0.3,0.7c0,0.1,0,0.3-0.1,0.4c0,0.1-0.1,0.2-0.2,0.3c0,0-0.1,0.1-0.2,0.1
							c0,0-0.1,0.1-0.2,0.1s-0.1,0-0.2,0.1C77.7,93.4,77.6,93.4,77.5,93.4z"/>
					</g>
					<g>
						<path class="st6" d="M92.6,74.8c-0.1,0-0.1,0-0.2,0s-0.1,0-0.2-0.1c-0.1,0-0.1-0.1-0.2-0.1s-0.1-0.1-0.2-0.1
							c-0.1-0.1-0.2-0.2-0.2-0.3c-0.1-0.1-0.1-0.3-0.1-0.4s0-0.1,0-0.2s0-0.1,0.1-0.2c0-0.1,0-0.1,0.1-0.2c0-0.1,0.1-0.1,0.1-0.2
							s0.1-0.1,0.2-0.1s0.1-0.1,0.2-0.1s0.1,0,0.2-0.1c0.1,0,0.3,0,0.4,0s0.1,0,0.2,0.1c0.1,0,0.1,0.1,0.2,0.1c0,0,0.1,0.1,0.2,0.1
							c0.2,0.2,0.3,0.4,0.3,0.7c0,0.1,0,0.3-0.1,0.4s-0.1,0.2-0.2,0.3c-0.1,0-0.1,0.1-0.2,0.1s-0.1,0.1-0.2,0.1s-0.1,0-0.2,0.1
							C92.8,74.8,92.7,74.8,92.6,74.8z"/>
						<path class="st6" d="M96.4,77.1c-0.5-0.3-0.7-0.9-0.4-1.4l0,0c0.3-0.5,0.9-0.6,1.4-0.4l0,0c0.5,0.3,0.6,0.9,0.4,1.4l0,0
							c-0.2,0.3-0.5,0.5-0.9,0.5l0,0C96.8,77.2,96.6,77.2,96.4,77.1z"/>
						<path class="st6" d="M101.2,79.7c-0.3,0-0.5-0.1-0.7-0.3c-0.1-0.1-0.2-0.2-0.2-0.3c-0.1-0.1-0.1-0.2-0.1-0.4s0-0.3,0.1-0.4
							c0-0.1,0.1-0.2,0.2-0.3c0.2-0.2,0.6-0.3,0.9-0.3c0.1,0,0.1,0,0.2,0.1c0.1,0,0.1,0.1,0.2,0.1s0.1,0.1,0.2,0.1
							c0.1,0.1,0.2,0.2,0.2,0.3c0.1,0.1,0.1,0.2,0.1,0.4c0,0.3-0.1,0.5-0.3,0.7c0,0.1-0.1,0.1-0.2,0.1c0,0-0.1,0.1-0.2,0.1
							s-0.1,0-0.2,0.1C101.4,79.7,101.3,79.7,101.2,79.7z"/>
					</g>
				</g>
				<g>
					<path class="st4" d="M27.8,51.6c-0.5,0-1.1-0.1-1.6-0.4l0,0l-12.3-7.1c-1.6-0.9-2.4-3.1-1.9-4.9l4.5-13.8c0.3-1,1-1.7,1.8-2
						c0.9-0.3,1.8-0.2,2.6,0.3l12.2,7.1c1.6,0.9,2.4,3.1,1.9,4.9l-4.5,13.8c-0.3,1-1,1.7-1.8,2C28.5,51.6,28.1,51.6,27.8,51.6z
						 M27.2,49.5c0.3,0.2,0.6,0.2,0.9,0.1c0.3-0.1,0.5-0.4,0.6-0.8L33.2,35c0.3-0.9-0.1-2.1-1-2.6l-12.2-7c-0.3-0.2-0.6-0.2-0.9-0.1
						s-0.5,0.4-0.6,0.8L14,39.8c-0.3,0.9,0.1,2.1,1,2.6L27.2,49.5L27.2,49.5z"/>
					<g>
						<path class="st4" d="M20.7,52.3L8.4,45.2c-1.2-0.7-1.8-2.4-1.4-3.7l4.5-13.8c0.4-1.4,1.8-1.9,3-1.2l12.3,7.1
							c1.2,0.7,1.8,2.4,1.4,3.7l-4.5,13.8C23.2,52.5,21.9,53,20.7,52.3z"/>
						<path class="st4" d="M21.8,53.6c-0.5,0-1.1-0.1-1.6-0.4l0,0L7.9,46.1C6.3,45.2,5.5,43,6,41.2l4.5-13.8c0.3-1,1-1.7,1.8-2
							c0.9-0.3,1.8-0.2,2.6,0.3l12.3,7.1c1.6,0.9,2.4,3.1,1.9,4.9l-4.5,13.8c-0.3,1-1,1.7-1.8,2C22.5,53.6,22.1,53.6,21.8,53.6z
							 M21.2,51.5c0.3,0.2,0.6,0.2,0.9,0.1c0.3-0.1,0.5-0.4,0.6-0.8L27.2,37c0.3-0.9-0.1-2.1-1-2.6l-12.2-7
							c-0.3-0.2-0.6-0.2-0.9-0.1c-0.3,0.1-0.5,0.4-0.6,0.8L8,41.8c-0.3,0.9,0.1,2.1,1,2.6L21.2,51.5L21.2,51.5z"/>
					</g>
					<path class="st7" d="M21.8,53.6c-0.5,0-1.1-0.1-1.6-0.4l0,0L7.9,46.1C6.3,45.2,5.5,43,6,41.2l4.5-13.8c0.3-1,1-1.7,1.8-2
						c0.9-0.3,1.8-0.2,2.6,0.3l12.3,7.1c1.6,0.9,2.4,3.1,1.9,4.9l-4.5,13.8c-0.3,1-1,1.7-1.8,2C22.5,53.6,22.1,53.6,21.8,53.6z
						 M21.2,51.5c0.3,0.2,0.6,0.2,0.9,0.1c0.3-0.1,0.5-0.4,0.6-0.8L27.2,37c0.3-0.9-0.1-2.1-1-2.6l-12.2-7c-0.3-0.2-0.6-0.2-0.9-0.1
						c-0.3,0.1-0.5,0.4-0.6,0.8L8,41.8c-0.3,0.9,0.1,2.1,1,2.6L21.2,51.5L21.2,51.5z"/>
					<g>
						<path class="st3" d="M17.8,44.2c-0.1,0-0.2,0-0.3,0c-0.5-0.2-0.8-0.7-0.6-1.3c0.5-1.7,0.3-3.7-0.6-5.4
							c-0.3-0.5-0.1-1.1,0.4-1.4c0.5-0.3,1.1-0.1,1.4,0.4c1.2,2.2,1.5,4.8,0.8,7C18.7,43.9,18.3,44.2,17.8,44.2z"/>
						<path class="st3" d="M17.2,46.2c-0.1,0-0.2,0-0.3,0c-0.5-0.2-0.8-0.7-0.6-1.3l0.6-2c0.2-0.5,0.7-0.8,1.3-0.6
							c0.5,0.2,0.8,0.7,0.6,1.3l-0.6,2C18,45.9,17.6,46.2,17.2,46.2z"/>
						<g>
							<polygon class="st3" points="14.4,38.1 15,32.4 19.4,35.4 							"/>
							<path class="st3" d="M14.4,38.6c-0.1,0-0.2,0-0.3-0.1c-0.2-0.1-0.2-0.3-0.2-0.5l0.6-5.7c0-0.2,0.1-0.3,0.3-0.4s0.3-0.1,0.5,0
								l4.4,3c0.1,0.1,0.2,0.3,0.2,0.4c0,0.2-0.1,0.3-0.3,0.4l-5,2.6C14.6,38.5,14.5,38.6,14.4,38.6z M15.4,33.3L15,37.2l3.4-1.8
								L15.4,33.3z"/>
						</g>
					</g>
				</g>
			</g>
		</g>
	</g>
	<g>
		<rect class="st0" width="128" height="128"/>
	</g>
</g>
</svg>
