<?xml version="1.0" encoding="utf-8"?>
<!-- Generator: Adobe Illustrator 24.1.0, SVG Export Plug-In . SVG Version: 6.00 Build 0)  -->
<svg version="1.1" id="Layer_1" xmlns="http://www.w3.org/2000/svg" xmlns:xlink="http://www.w3.org/1999/xlink" x="0px" y="0px"
	 viewBox="0 0 128 128" style="enable-background:new 0 0 128 128;" xml:space="preserve">
<style type="text/css">
	.st0{fill:#FFFFFF;}
	.st1{fill:#C4D36C;}
	.st2{fill:#DFEAB0;}
	.st3{fill:#A7B23B;}
	.st4{fill:#DEEAFF;}
	.st5{fill:#98B9EA;}
	.st6{fill:#436DB5;}
	.st7{fill:none;}
</style>
<g id="Layer_1_1_">
</g>
<g>
	<g id="Layer_2_1_">
		<g id="Tech_Concepts_1_">
			<g>
				<g>
					<g>
						<g>
							<path class="st0" d="M56.6,54.3V77l0,0c0,0.8,0.5,1.5,1.5,2.1l1.7,1c2,1.2,5.3,1.2,7.3,0l2.2-1.3c1-0.6,1.5-1.4,1.5-2.1V54
								L56.6,54.3z"/>
							<path class="st1" d="M63.5,82c-1.5,0-3-0.3-4.2-1l-1.7-1c-1.3-0.8-2-1.8-2-3V54.3c0-0.5,0.4-1,1-1L70.9,53
								c0.3,0,0.5,0.1,0.7,0.3s0.3,0.4,0.3,0.7v22.7c0,1.2-0.7,2.2-2,3L67.7,81C66.5,81.7,65,82,63.5,82z M57.6,55.3V77
								c0,0.4,0.4,0.9,1,1.3l1.7,1c1.7,1,4.6,1,6.3,0l2.2-1.3c0.6-0.4,1-0.8,1-1.3V55L57.6,55.3z"/>
						</g>
						<path class="st2" d="M67.2,80.2l2.2-1.3c1-0.6,1.5-1.4,1.5-2.1V54.2h-7.2V81C65,81,66.2,80.7,67.2,80.2z"/>
						<path class="st1" d="M63.5,82c-1.5,0-3-0.3-4.2-1l-1.7-1c-1.3-0.8-2-1.8-2-3V54.3c0-0.5,0.4-1,1-1L70.9,53
							c0.3,0,0.5,0.1,0.7,0.3s0.3,0.4,0.3,0.7v22.7c0,1.2-0.7,2.2-2,3L67.7,81C66.5,81.7,65,82,63.5,82z M57.6,55.3V77
							c0,0.4,0.4,0.9,1,1.3l1.7,1c1.7,1,4.6,1,6.3,0l2.2-1.3c0.6-0.4,1-0.8,1-1.3V55L57.6,55.3z"/>
						<g>
							<path class="st0" d="M69.4,51.9l-1.7-1c-2-1.2-5.3-1.2-7.3,0l-2.2,1.3c-2,1.2-2,3.1,0,4.2l1.7,1c2,1.2,5.3,1.2,7.3,0l2.2-1.3
								C71.4,55,71.4,53.1,69.4,51.9z"/>
							<path class="st1" d="M63.5,59.3c-1.5,0-3-0.3-4.2-1l-1.7-1c-1.3-0.8-2-1.8-2-3s0.7-2.2,2-3l2.2-1.3c2.3-1.3,6-1.3,8.3,0
								l1.7,1l0,0c1.3,0.8,2,1.8,2,3s-0.7,2.2-2,3l-2.2,1.3C66.5,59,65,59.3,63.5,59.3z M64,51c-1.2,0-2.3,0.2-3.2,0.7L58.6,53
								c-0.6,0.4-1,0.8-1,1.3s0.4,0.9,1,1.3l1.7,1c1.7,1,4.6,1,6.3,0l2.2-1.3c0.6-0.4,1-0.8,1-1.3c0-0.4-0.4-0.9-1-1.3l-1.7-1
								C66.3,51.3,65.2,51,64,51z"/>
						</g>
						<path class="st2" d="M105.8,100.1l2.2-1.3c1-0.6,1.5-1.4,1.5-2.1V76.4h-7.2V101C103.6,101,104.8,100.7,105.8,100.1z"/>
						<path class="st0" d="M18.5,76.3v20.5l0,0c0,0.8,0.5,1.5,1.5,2.1l1.7,1c2,1.2,5.3,1.2,7.3,0l2.2-1.3c1-0.6,1.5-1.4,1.5-2.1V76
							L18.5,76.3z"/>
						<path class="st2" d="M29.1,99.9l2.2-1.3c1-0.6,1.5-1.4,1.5-2.1V76.1h-7.2v24.6C26.9,100.7,28.2,100.4,29.1,99.9z"/>
						<path class="st0" d="M57.1,98.5V119l0,0c0,0.8,0.5,1.5,1.5,2.1l1.7,1c2,1.2,5.3,1.2,7.3,0l2.2-1.3c1-0.6,1.5-1.4,1.5-2.1V98.3
							L57.1,98.5z"/>
						<path class="st2" d="M67.7,122.1l2.2-1.3c1-0.6,1.5-1.4,1.5-2.1V98.4h-7.2V123C65.5,123,66.7,122.7,67.7,122.1z"/>
						<path class="st2" d="M91.9,64.9l-24.3-14c-2-1.2-5.3-1.2-7.3,0L36,64.9H18.5v11.4c0,0.8,0.5,1.5,1.5,2.1l40.3,23.3
							c2,1.2,5.3,1.2,7.3,0L108,78.4c1-0.6,1.5-1.4,1.5-2.1V64.9H91.9z"/>
						<path class="st0" d="M60.3,50.9L36,64.9H18.5v11.4c0,0.8,0.5,1.5,1.5,2.1l40.3,23.3c1,0.6,2.3,0.9,3.7,0.9V50
							C62.7,50,61.3,50.3,60.3,50.9z"/>
						<path class="st1" d="M64,124c-1.5,0-3-0.3-4.2-1l-1.7-1c-1.3-0.7-2-1.8-2-3v-18.6L33.8,87.5v9c0,1.2-0.7,2.2-2,3l-2.2,1.3
							c-2.3,1.4-6,1.4-8.3,0l-1.7-1c-1.3-0.8-2-1.8-2-3V76.3V64.9c0-0.6,0.4-1,1-1h17.3l24-13.9c2.3-1.3,6-1.3,8.3,0l24,13.9h17.3
							c0.6,0,1,0.4,1,1v31.8c0,1.2-0.7,2.2-2,3l-2.2,1.3c-2.3,1.3-6,1.3-8.3,0l-1.7-1c-1.3-0.7-2-1.8-2-3v-9.5l-21.8,12.6v18.6
							c0,1.2-0.7,2.2-2,3l-2.2,1.3C67,123.7,65.5,124,64,124z M32.8,84.8c0.2,0,0.3,0,0.5,0.1l24.2,14c0.3,0.2,0.5,0.5,0.5,0.9V119
							c0,0.4,0.4,0.9,1,1.3l1.7,1c1.7,1,4.6,1,6.3,0l2.2-1.3c0.6-0.4,1-0.8,1-1.3V99.5c0-0.4,0.2-0.7,0.5-0.9l23.8-13.7
							c0.3-0.2,0.7-0.2,1,0s0.5,0.5,0.5,0.9V97c0,0.4,0.4,0.9,1,1.3l1.7,1c1.7,1,4.6,1,6.3,0l2.2-1.3c0.6-0.4,1-0.8,1-1.3V65.9H91.9
							c-0.2,0-0.3,0-0.5-0.1l-24.3-14c-1.7-1-4.6-1-6.3,0l-24.3,14c-0.2,0.1-0.3,0.1-0.5,0.1H19.5v30.8c0,0.4,0.4,0.9,1,1.3l1.7,1
							c1.7,1,4.6,1,6.3,0l2.2-1.3c0.6-0.4,1-0.8,1-1.3V85.8c0-0.4,0.2-0.7,0.5-0.9C32.5,84.8,32.7,84.8,32.8,84.8z"/>
						<g>
							<path class="st0" d="M108,62.8L67.7,39.5c-2-1.2-5.3-1.2-7.3,0L20,62.8c-2,1.2-2,3.1,0,4.2l40.3,23.3c2,1.2,5.3,1.2,7.3,0
								L108,67C110,65.9,110,64,108,62.8z"/>
							<path class="st1" d="M64,92.2c-1.5,0-3-0.3-4.2-1L19.5,67.9c-1.3-0.8-2-1.8-2-3c0-1.2,0.7-2.2,2-3l40.3-23.3
								c2.3-1.3,6-1.3,8.3,0l40.3,23.3c1.3,0.8,2,1.8,2,3c0,1.2-0.7,2.2-2,3L68.2,91.2C67,91.8,65.5,92.2,64,92.2z M64,39.6
								c-1.2,0-2.3,0.2-3.2,0.7L20.5,63.7c-0.6,0.4-1,0.8-1,1.3s0.4,0.9,1,1.3l40.3,23.3c1.7,1,4.6,1,6.3,0l40.3-23.3
								c0.6-0.4,1-0.8,1-1.3s-0.4-0.9-1-1.3l0,0L67.2,40.4C66.3,39.9,65.2,39.6,64,39.6z"/>
						</g>
						<path class="st3" d="M64,124c-1.5,0-3-0.3-4.2-1l-1.7-1c-1.3-0.7-2-1.8-2-3v-18.6L33.8,87.5v9c0,1.2-0.7,2.2-2,3l-2.2,1.3
							c-0.3,0.2-0.6,0.3-0.9,0.4c-0.2,0.1-0.5,0.2-0.7,0.2c-0.1,0-0.2,0.1-0.2,0.1c-2.2,0.5-4.7,0.3-6.5-0.7l-1.7-1
							c-1.3-0.8-2-1.8-2-3V76.3V64.9c0-1.2,0.7-2.2,2-3l40.3-23.3c2.3-1.3,6-1.3,8.3,0l40.3,23.3c1.3,0.8,2,1.8,2,3v31.8
							c0,0.9-0.4,1.7-1.2,2.4c-0.2,0.2-0.5,0.4-0.8,0.6l-2.2,1.3h-0.1c-0.3,0.2-0.6,0.3-0.8,0.4c-0.2,0.1-0.5,0.2-0.7,0.2
							c-0.1,0-0.2,0.1-0.2,0.1c-2.2,0.5-4.7,0.3-6.5-0.7l-1.7-1c-1.3-0.7-2-1.8-2-3v-9.5l-21.8,12.6v18.6c0,1.1-0.6,2.1-1.8,2.8
							c-0.1,0.1-0.2,0.1-0.2,0.2l-2.2,1.3c-0.3,0.2-0.6,0.3-0.9,0.4c-0.2,0.1-0.5,0.2-0.7,0.2c-0.1,0-0.2,0.1-0.3,0.1
							C65.5,123.9,64.8,124,64,124z M32.8,84.8c0.2,0,0.3,0,0.5,0.1l24.2,14c0.3,0.2,0.5,0.5,0.5,0.9V119c0,0.4,0.4,0.9,1,1.3l1.7,1
							c1.3,0.7,3.3,0.9,5,0.5c0,0,0.2,0,0.2-0.1c0.2-0.1,0.4-0.1,0.6-0.2s0.4-0.2,0.6-0.3l2.2-1.3c0.1,0,0.1-0.1,0.2-0.1
							c0.6-0.4,0.9-0.8,0.9-1.1V99.5c0-0.4,0.2-0.7,0.5-0.9l23.8-13.7c0.3-0.2,0.7-0.2,1,0s0.5,0.5,0.5,0.9V97c0,0.4,0.4,0.9,1,1.3
							l1.7,1c1.3,0.7,3.3,0.9,5,0.5c0,0,0.2,0,0.2-0.1c0.2-0.1,0.4-0.1,0.6-0.2s0.4-0.2,0.6-0.3c0,0,0,0,0.1,0l2.1-1.2
							c0.2-0.1,0.4-0.2,0.5-0.4c0.2-0.2,0.5-0.5,0.5-0.9V64.9c0-0.4-0.4-0.9-1-1.3L67.2,40.4c-1.7-1-4.6-1-6.3,0L20.5,63.7
							c-0.6,0.4-1,0.8-1,1.3v31.8c0,0.4,0.4,0.9,1,1.3l1.7,1c1.3,0.7,3.3,0.9,5,0.5c0,0,0.2,0,0.2-0.1c0.2-0.1,0.4-0.1,0.6-0.2
							s0.5-0.2,0.6-0.3l2.2-1.3c0.6-0.4,1-0.8,1-1.3V85.8c0-0.4,0.2-0.7,0.5-0.9C32.5,84.8,32.7,84.8,32.8,84.8z M105.8,100.1
							L105.8,100.1L105.8,100.1z"/>
						<g>
							<g>
								<g>
									<g>
										<path class="st4" d="M84.1,49l-16.5-9.5c-2-1.2-5.3-1.2-7.3,0L43.9,49H18.5v15.9c0,0.8,0.5,1.5,1.5,2.1l40.3,23.3
											c2,1.2,5.3,1.2,7.3,0L108,67c1-0.6,1.5-1.4,1.5-2.1V49H84.1z"/>
										<path class="st5" d="M64,92.2c-1.5,0-3-0.3-4.2-1L19.5,67.9c-1.3-0.7-2-1.8-2-3V49c0-0.6,0.4-1,1-1h25.1l16.2-9.4
											c2.3-1.3,6-1.3,8.3,0L84.4,48h25.1c0.6,0,1,0.4,1,1v15.9c0,1.2-0.7,2.2-2,3L68.2,91.2C67,91.8,65.5,92.2,64,92.2z
											 M19.5,50v14.9c0,0.4,0.4,0.9,1,1.3l40.3,23.3c1.7,1,4.6,1,6.3,0l40.3-23.3c0.6-0.4,1-0.8,1-1.3V50H84.1
											c-0.2,0-0.3,0-0.5-0.1l-16.5-9.5c-1.7-1-4.6-1-6.3,0l-16.5,9.5C44.2,50,44,50,43.9,50H19.5z"/>
									</g>
									<path class="st5" d="M67.7,90.3L108,67c1-0.6,1.5-1.4,1.5-2.1V49H84.1l-16.5-9.5c-1-0.6-2.3-0.9-3.7-0.9v52.5
										C65.3,91.2,66.7,90.9,67.7,90.3z"/>
									<path class="st5" d="M46.1,75.8c-0.2,0-0.3,0-0.5-0.1l-11.9-6.9c-0.5-0.3-0.6-0.9-0.4-1.4c0.3-0.5,0.9-0.6,1.4-0.4
										l11.9,6.9c0.5,0.3,0.6,0.9,0.4,1.4C46.8,75.6,46.5,75.8,46.1,75.8z"/>
									<g>
										<path class="st0" d="M108,46.9L67.7,23.7c-2-1.2-5.3-1.2-7.3,0L20,46.9c-2,1.2-2,3.1,0,4.2l40.3,23.3c2,1.2,5.3,1.2,7.3,0
											L108,51.2C110,50,110,48.1,108,46.9z"/>
										<path class="st5" d="M64,76.3c-1.5,0-3-0.3-4.2-1L19.5,52c-1.3-0.8-2-1.8-2-3s0.7-2.2,2-3l40.3-23.3c2.3-1.3,6-1.3,8.3,0
											L108.5,46c1.3,0.8,2,1.8,2,3s-0.7,2.2-2,3L68.2,75.3C67,76,65.5,76.3,64,76.3z M64,23.8c-1.2,0-2.3,0.2-3.2,0.7L20.5,47.8
											c-0.6,0.4-1,0.8-1,1.3s0.4,0.9,1,1.3l40.3,23.3c1.7,1,4.6,1,6.3,0l40.3-23.3c0.6-0.4,1-0.8,1-1.3s-0.4-0.9-1-1.3l0,0
											L67.2,24.5C66.3,24,65.2,23.8,64,23.8z"/>
									</g>
								</g>
							</g>
							<g>
								<polygon class="st5" points="98.5,72.5 77.2,84.8 77.2,77.4 98.5,65.1 								"/>
								<path class="st4" d="M77.2,85.8c-0.2,0-0.3,0-0.5-0.1c-0.3-0.2-0.5-0.5-0.5-0.9v-7.3c0-0.4,0.2-0.7,0.5-0.9L98,64.3
									c0.3-0.2,0.7-0.2,1,0s0.5,0.5,0.5,0.9v7.3c0,0.4-0.2,0.7-0.5,0.9L77.7,85.6C77.6,85.7,77.4,85.8,77.2,85.8z M78.2,78v5
									l19.3-11.1v-5L78.2,78z M98.5,72.5L98.5,72.5L98.5,72.5z"/>
							</g>
							<path class="st6" d="M64,92.2c-1.6,0-3-0.4-4.2-1L19.5,67.9c-1.3-0.7-2-1.8-2-3V49c0-1.2,0.7-2.2,2-3l40.3-23.3
								c2.3-1.3,6-1.3,8.3,0L108.5,46l0,0c1.3,0.7,2,1.8,2,3v15.9c0,1.2-0.7,2.2-2,3L68.2,91.2C67,91.8,65.6,92.2,64,92.2z M64,23.8
								c-1.2,0-2.3,0.2-3.2,0.7L20.5,47.8c-0.6,0.4-1,0.8-1,1.3V65c0,0.4,0.4,0.9,1,1.3l40.3,23.3c1.6,0.9,4.7,0.9,6.3,0l40.3-23.3
								c0.6-0.4,1-0.8,1-1.3V49c0-0.4-0.4-0.9-1-1.3l0,0L67.2,24.5C66.3,24,65.2,23.8,64,23.8z"/>
							<g>
								<ellipse class="st5" cx="99.1" cy="49" rx="2.1" ry="1.2"/>
								<ellipse class="st5" cx="64" cy="69.3" rx="2.1" ry="1.2"/>
								<ellipse class="st5" cx="64" cy="28.8" rx="2.1" ry="1.2"/>
								<ellipse class="st5" cx="28.9" cy="49" rx="2.1" ry="1.2"/>
							</g>
						</g>
						<g>
							<path class="st3" d="M105.8,101.1c-0.3,0-0.5-0.1-0.7-0.3c-0.2-0.2-0.3-0.4-0.3-0.7c0-0.3,0.1-0.5,0.3-0.7
								c0,0,0.1-0.1,0.2-0.1c0,0,0.1-0.1,0.2-0.1s0.1,0,0.2-0.1c0.2,0,0.4,0,0.6,0.1c0.1,0,0.2,0.1,0.3,0.2c0.2,0.2,0.3,0.4,0.3,0.7
								c0,0.3-0.1,0.5-0.3,0.7c-0.1,0.1-0.2,0.2-0.3,0.2C106,101.1,105.9,101.1,105.8,101.1z"/>
							<path class="st3" d="M74.1,118.4c-0.3-0.5-0.1-1.1,0.4-1.4l0,0c0.5-0.3,1.1-0.1,1.4,0.4l0,0c0.3,0.5,0.1,1.1-0.4,1.4l0,0
								c-0.2,0.1-0.3,0.1-0.5,0.1l0,0C74.6,118.9,74.3,118.7,74.1,118.4z M79.3,115.4c-0.3-0.5-0.1-1.1,0.4-1.4l0,0
								c0.5-0.3,1.1-0.1,1.4,0.4l0,0c0.3,0.5,0.1,1.1-0.4,1.4l0,0c-0.2,0.1-0.3,0.1-0.5,0.1l0,0C79.8,115.9,79.4,115.7,79.3,115.4z
								 M84.4,112.5c-0.3-0.5-0.1-1.1,0.4-1.4l0,0c0.5-0.3,1.1-0.1,1.4,0.4l0,0c0.3,0.5,0.1,1.1-0.4,1.4l0,0
								c-0.2,0.1-0.3,0.1-0.5,0.1l0,0C84.9,113,84.6,112.8,84.4,112.5z M89.5,109.5c-0.3-0.5-0.1-1.1,0.4-1.4l0,0
								c0.5-0.3,1.1-0.1,1.4,0.4l0,0c0.3,0.5,0.1,1.1-0.4,1.4l0,0c-0.2,0.1-0.3,0.1-0.5,0.1l0,0C90,110,89.7,109.8,89.5,109.5z
								 M94.6,106.5c-0.3-0.5-0.1-1.1,0.4-1.4l0,0c0.5-0.3,1.1-0.1,1.4,0.4l0,0c0.3,0.5,0.1,1.1-0.4,1.4l0,0
								c-0.2,0.1-0.3,0.1-0.5,0.1l0,0C95.2,107,94.8,106.9,94.6,106.5z M99.8,103.6c-0.3-0.5-0.1-1.1,0.4-1.4l0,0
								c0.5-0.3,1.1-0.1,1.4,0.4l0,0c0.3,0.5,0.1,1.1-0.4,1.4l0,0c-0.2,0.1-0.3,0.1-0.5,0.1l0,0C100.3,104.1,100,103.9,99.8,103.6z"
								/>
							<path class="st3" d="M69.9,121.8c-0.1,0-0.3,0-0.4-0.1c-0.1,0-0.2-0.1-0.3-0.2c-0.1-0.1-0.2-0.2-0.2-0.3
								c-0.1-0.1-0.1-0.2-0.1-0.4s0-0.3,0.1-0.4c0-0.1,0.1-0.2,0.2-0.3c0.1-0.1,0.2-0.2,0.3-0.2c0.2-0.1,0.4-0.1,0.6-0.1
								c0.1,0,0.1,0,0.2,0.1c0.1,0,0.1,0,0.2,0.1c0,0,0.1,0.1,0.2,0.1c0.1,0.1,0.2,0.2,0.2,0.3s0.1,0.2,0.1,0.4s0,0.3-0.1,0.4
								c0,0.1-0.1,0.2-0.2,0.3c-0.1,0.1-0.2,0.2-0.3,0.2C70.1,121.8,70,121.8,69.9,121.8z"/>
						</g>
						<g>
							<path class="st3" d="M21.8,100.9c-0.3,0-0.5-0.1-0.7-0.3c-0.2-0.2-0.3-0.4-0.3-0.7c0-0.1,0-0.1,0-0.2s0-0.1,0-0.2
								s0.1-0.1,0.1-0.2s0.1-0.1,0.1-0.1c0.1,0,0.1-0.1,0.2-0.1s0.1-0.1,0.2-0.1s0.1,0,0.2-0.1c0.1,0,0.3,0,0.4,0s0.1,0,0.2,0.1
								c0.1,0,0.1,0.1,0.2,0.1s0.1,0.1,0.1,0.1c0.1,0,0.1,0.1,0.1,0.1c0,0.1,0.1,0.1,0.1,0.2s0,0.1,0.1,0.2c0,0.1,0,0.1,0,0.2
								c0,0.3-0.1,0.5-0.3,0.7C22.3,100.8,22,100.9,21.8,100.9z"/>
							<path class="st3" d="M52.8,118.9c-0.5-0.3-0.6-0.9-0.4-1.4l0,0c0.3-0.5,0.9-0.6,1.4-0.4l0,0c0.5,0.3,0.6,0.9,0.4,1.4l0,0
								c-0.2,0.3-0.5,0.5-0.9,0.5l0,0C53.2,119.1,53,119,52.8,118.9z M47.6,115.9c-0.5-0.3-0.6-0.9-0.4-1.4l0,0
								c0.3-0.5,0.9-0.6,1.4-0.4l0,0c0.5,0.3,0.7,0.9,0.4,1.4l0,0c-0.2,0.3-0.5,0.5-0.9,0.5l0,0C47.9,116,47.7,116,47.6,115.9z
								 M42.3,112.9c-0.5-0.3-0.6-0.9-0.4-1.4l0,0c0.3-0.5,0.9-0.6,1.4-0.4l0,0c0.5,0.3,0.6,0.9,0.4,1.4l0,0
								c-0.2,0.3-0.5,0.5-0.9,0.5l0,0C42.6,113,42.5,113,42.3,112.9z M37.1,109.8c-0.5-0.3-0.6-0.9-0.4-1.4l0,0
								c0.3-0.5,0.9-0.6,1.4-0.4l0,0c0.5,0.3,0.6,0.9,0.4,1.4l0,0c-0.2,0.3-0.5,0.5-0.9,0.5l0,0C37.4,110,37.2,109.9,37.1,109.8z
								 M31.8,106.8c-0.5-0.3-0.7-0.9-0.4-1.4l0,0c0.3-0.5,0.9-0.6,1.4-0.4l0,0c0.5,0.3,0.6,0.9,0.4,1.4l0,0
								c-0.2,0.3-0.5,0.5-0.9,0.5l0,0C32.1,106.9,32,106.9,31.8,106.8z M26.5,103.8c-0.5-0.3-0.7-0.9-0.4-1.4l0,0
								c0.3-0.5,0.9-0.6,1.4-0.4l0,0c0.5,0.3,0.6,0.9,0.4,1.4l0,0c-0.2,0.3-0.5,0.5-0.9,0.5l0,0C26.9,103.9,26.7,103.9,26.5,103.8z"
								/>
							<path class="st3" d="M58.6,122.1c-0.3,0-0.5-0.1-0.7-0.3c-0.1-0.1-0.2-0.2-0.2-0.3s-0.1-0.2-0.1-0.4s0-0.3,0.1-0.4
								s0.1-0.2,0.2-0.3c0.3-0.3,0.7-0.4,1.1-0.2c0.1,0,0.2,0.1,0.3,0.2c0.2,0.2,0.3,0.4,0.3,0.7c0,0.1,0,0.3-0.1,0.4
								s-0.1,0.2-0.2,0.3c-0.1,0.1-0.2,0.2-0.3,0.2S58.7,122.1,58.6,122.1z"/>
						</g>
					</g>
					<g>
						<path class="st6" d="M109.5,50c-0.1,0-0.3,0-0.4-0.1s-0.2-0.1-0.3-0.2c-0.1-0.1-0.2-0.2-0.2-0.3s-0.1-0.2-0.1-0.4
							c0-0.3,0.1-0.5,0.3-0.7c0.4-0.4,1-0.4,1.4,0c0.2,0.2,0.3,0.4,0.3,0.7c0,0.1,0,0.3-0.1,0.4c0,0.1-0.1,0.2-0.2,0.3
							s-0.2,0.2-0.3,0.2C109.7,50,109.6,50,109.5,50z"/>
						<path class="st6" d="M108.5,42.9c0-0.5,0.5-1,1-1l0,0c0.6,0,1,0.5,1,1l0,0c0,0.5-0.4,1-1,1l0,0
							C108.9,43.9,108.5,43.5,108.5,42.9z M17.5,42.9c0-0.5,0.5-1,1-1l0,0c0.5,0,1,0.5,1,1l0,0c0,0.5-0.5,1-1,1l0,0
							C18,43.9,17.5,43.5,17.5,42.9z M108.5,36.8c0-0.5,0.5-1,1-1l0,0c0.6,0,1,0.5,1,1l0,0c0,0.6-0.4,1-1,1l0,0
							C108.9,37.8,108.5,37.4,108.5,36.8z M17.5,36.8c0-0.5,0.5-1,1-1l0,0c0.5,0,1,0.5,1,1l0,0c0,0.5-0.5,1-1,1l0,0
							C18,37.8,17.5,37.3,17.5,36.8z M108,31.3c-0.3-0.5-0.2-1.1,0.3-1.4l0,0c0.5-0.3,1.1-0.1,1.4,0.3l0,0c0.3,0.5,0.1,1.1-0.3,1.4
							l0,0c-0.2,0.1-0.3,0.2-0.5,0.2l0,0C108.5,31.8,108.2,31.6,108,31.3z M18.6,31.6c-0.5-0.3-0.6-0.9-0.3-1.4l0,0
							c0.3-0.5,0.9-0.6,1.4-0.3l0,0c0.5,0.3,0.6,0.9,0.3,1.4l0,0c-0.2,0.3-0.5,0.5-0.9,0.5l0,0C19,31.8,18.8,31.8,18.6,31.6z
							 M103.4,28.3c-0.5-0.3-0.6-0.9-0.4-1.4l0,0c0.3-0.5,0.9-0.6,1.4-0.4l0,0c0.5,0.3,0.6,0.9,0.4,1.4l0,0
							c-0.2,0.3-0.5,0.5-0.9,0.5l0,0C103.7,28.4,103.5,28.3,103.4,28.3z M23.3,27.9c-0.3-0.5-0.1-1.1,0.4-1.4l0,0
							c0.5-0.3,1.1-0.1,1.4,0.4l0,0c0.3,0.5,0.1,1.1-0.4,1.4l0,0c-0.2,0.1-0.3,0.1-0.5,0.1l0,0C23.8,28.4,23.5,28.2,23.3,27.9z
							 M98.1,25.2c-0.5-0.3-0.6-0.9-0.4-1.4l0,0c0.3-0.5,0.9-0.6,1.4-0.4l0,0c0.5,0.3,0.6,0.9,0.4,1.4l0,0c-0.2,0.3-0.5,0.5-0.9,0.5
							l0,0C98.4,25.3,98.2,25.3,98.1,25.2z M28.6,24.8c-0.3-0.5-0.1-1.1,0.4-1.4l0,0c0.5-0.3,1.1-0.1,1.4,0.4l0,0
							c0.3,0.5,0.1,1.1-0.4,1.4l0,0c-0.2,0.1-0.3,0.1-0.5,0.1l0,0C29.1,25.3,28.7,25.2,28.6,24.8z M92.8,22.1
							c-0.5-0.3-0.6-0.9-0.4-1.4l0,0c0.3-0.5,0.9-0.7,1.4-0.4l0,0c0.5,0.3,0.6,0.9,0.4,1.4l0,0c-0.2,0.3-0.5,0.5-0.9,0.5l0,0
							C93.1,22.3,93,22.2,92.8,22.1z M33.8,21.8c-0.3-0.5-0.1-1.1,0.4-1.4l0,0c0.5-0.3,1.1-0.1,1.4,0.4l0,0c0.3,0.5,0.1,1.1-0.4,1.4
							l0,0c-0.2,0.1-0.3,0.1-0.5,0.1l0,0C34.4,22.3,34,22.1,33.8,21.8z M87.5,19.1c-0.5-0.3-0.6-0.9-0.4-1.4l0,0
							c0.3-0.5,0.9-0.6,1.4-0.4l0,0c0.5,0.3,0.6,0.9,0.4,1.4l0,0c-0.2,0.3-0.5,0.5-0.9,0.5l0,0C87.8,19.2,87.7,19.2,87.5,19.1z
							 M39.1,18.7c-0.3-0.5-0.1-1.1,0.4-1.4l0,0c0.5-0.3,1.1-0.1,1.4,0.4l0,0c0.3,0.5,0.1,1.1-0.4,1.4l0,0c-0.2,0.1-0.3,0.1-0.5,0.1
							l0,0C39.7,19.2,39.3,19,39.1,18.7z M82.2,16c-0.5-0.3-0.6-0.9-0.4-1.4l0,0c0.3-0.5,0.9-0.6,1.4-0.4l0,0
							c0.5,0.3,0.6,0.9,0.4,1.4l0,0c-0.2,0.3-0.5,0.5-0.9,0.5l0,0C82.5,16.2,82.4,16.1,82.2,16z M44.4,15.7
							c-0.3-0.5-0.1-1.1,0.4-1.4l0,0c0.5-0.3,1.1-0.1,1.4,0.4l0,0c0.3,0.5,0.1,1.1-0.4,1.4l0,0c-0.2,0.1-0.3,0.1-0.5,0.1l0,0
							C45,16.2,44.6,16,44.4,15.7z M76.9,13c-0.5-0.3-0.6-0.9-0.4-1.4l0,0c0.3-0.5,0.9-0.6,1.4-0.4l0,0c0.5,0.3,0.6,0.9,0.4,1.4l0,0
							c-0.2,0.3-0.5,0.5-0.9,0.5l0,0C77.2,13.1,77.1,13.1,76.9,13z M49.7,12.6c-0.3-0.5-0.1-1.1,0.4-1.4l0,0
							c0.5-0.3,1.1-0.1,1.4,0.4l0,0c0.3,0.5,0.1,1.1-0.4,1.4l0,0c-0.2,0.1-0.3,0.1-0.5,0.1l0,0C50.2,13.1,49.9,12.9,49.7,12.6z
							 M71.6,9.9C71.1,9.7,71,9,71.3,8.6l0,0c0.3-0.5,0.9-0.7,1.4-0.4l0,0c0.5,0.3,0.6,0.9,0.4,1.4l0,0c-0.2,0.3-0.5,0.5-0.9,0.5
							l0,0C72,10.1,71.8,10,71.6,9.9z M55,9.6c-0.3-0.5-0.1-1.1,0.4-1.4l0,0c0.5-0.3,1.1-0.1,1.4,0.4l0,0c0.2,0.4,0.1,1-0.4,1.3l0,0
							C56.2,10,56.1,10,55.9,10l0,0C55.5,10.1,55.2,9.9,55,9.6z M66.3,6.9C65.9,6.6,65.7,6,66,5.5l0,0c0.3-0.5,0.9-0.6,1.4-0.4l0,0
							C67.8,5.4,68,6,67.7,6.5l0,0C67.5,6.8,67.2,7,66.8,7l0,0C66.7,7,66.5,7,66.3,6.9z M60.3,6.5C60,6,60.2,5.4,60.7,5.1l0,0
							C61.1,4.9,61.8,5,62,5.5l0,0c0.3,0.5,0.1,1.1-0.4,1.4l0,0C61.5,7,61.3,7,61.2,7l0,0C60.8,7,60.5,6.8,60.3,6.5z"/>
						<path class="st6" d="M18.5,50c-0.3,0-0.5-0.1-0.7-0.3c-0.1-0.1-0.2-0.2-0.2-0.3s-0.1-0.2-0.1-0.4c0-0.3,0.1-0.5,0.3-0.7
							c0.3-0.3,0.7-0.4,1.1-0.2c0.1,0,0.2,0.1,0.3,0.2c0.1,0.1,0.2,0.2,0.2,0.3c0.1,0.1,0.1,0.2,0.1,0.4s0,0.3-0.1,0.4
							c0,0.1-0.1,0.2-0.2,0.3s-0.2,0.2-0.3,0.2C18.8,50,18.6,50,18.5,50z"/>
					</g>
				</g>
				<rect x="4" y="4" class="st7" width="120" height="120"/>
				<rect x="4" y="4" class="st7" width="120" height="120"/>
			</g>
		</g>
	</g>
	<g>
		<rect class="st7" width="128" height="128"/>
	</g>
</g>
</svg>
