<?xml version="1.0" encoding="utf-8"?>
<!-- Generator: Adobe Illustrator 24.1.0, SVG Export Plug-In . SVG Version: 6.00 Build 0)  -->
<svg version="1.1" id="Layer_1" xmlns="http://www.w3.org/2000/svg" xmlns:xlink="http://www.w3.org/1999/xlink" x="0px" y="0px"
	 viewBox="0 0 128 128" style="enable-background:new 0 0 128 128;" xml:space="preserve">
<style type="text/css">
	.st0{fill:#C4D36C;}
	.st1{fill:#DFEAB0;}
	.st2{fill:#FFFFFF;}
	.st3{fill:#A7B23B;}
	.st4{fill:#98B9EA;}
	.st5{fill:#DEEAFF;}
	.st6{fill:#436DB5;}
	.st7{fill:none;}
</style>
<g id="Layer_1_1_">
</g>
<g>
	<g id="Layer_2_1_">
		<g id="Objects_1_">
			<g>
				<g>
					<g>
						<path class="st0" d="M25.3,79.2v17.4c0,5.7,3.8,11.4,11.3,15.8c15.1,8.7,39.7,8.7,54.8,0c7.6-4.4,11.3-10.1,11.3-15.8l0,0
							V79.2H25.3z"/>
						<path class="st1" d="M25.3,79.2v17.4c0,5.7,3.8,11.4,11.3,15.8c7.6,4.4,17.5,6.5,27.4,6.5V79.2H25.3z"/>
						<g>
							<ellipse class="st1" cx="64" cy="79.2" rx="38.7" ry="22.4"/>
							<path class="st2" d="M64,102.6c-10.1,0-20.2-2.2-27.9-6.7l0,0c-7.6-4.4-11.8-10.3-11.8-16.7c0-6.3,4.2-12.3,11.8-16.7
								c15.4-8.9,40.4-8.9,55.8,0c7.6,4.4,11.8,10.3,11.8,16.7c0,6.3-4.2,12.3-11.8,16.7C84.2,100.4,74.1,102.6,64,102.6z
								 M37.1,94.2c14.8,8.6,39,8.6,53.8,0c7-4,10.8-9.3,10.8-14.9s-3.9-10.9-10.8-14.9c-14.8-8.6-39-8.6-53.8,0
								c-7,4-10.8,9.3-10.8,14.9C26.3,84.8,30.1,90.1,37.1,94.2L37.1,94.2z"/>
						</g>
						<ellipse class="st0" cx="64" cy="79.2" rx="20" ry="10.7"/>
						<path class="st3" d="M64,120c-10.1,0-20.2-2.2-27.9-6.7c-7.6-4.4-11.8-10.3-11.8-16.7V79.2c0-6.3,4.2-12.3,11.8-16.7
							c15.4-8.9,40.4-8.9,55.8,0c7.6,4.4,11.8,10.3,11.8,16.7v17.4c0,6.3-4.2,12.3-11.8,16.7C84.2,117.8,74.1,120,64,120z M64,57.9
							c-9.7,0-19.5,2.1-26.9,6.4c-7,4-10.8,9.3-10.8,14.9v17.4c0,5.6,3.9,10.9,10.8,14.9c14.8,8.6,39,8.6,53.8,0
							c7-4,10.8-9.3,10.8-14.9V79.2c0-5.6-3.9-10.9-10.8-14.9C83.5,60,73.7,57.9,64,57.9z"/>
						<g>
							<path class="st3" d="M76.8,110c-0.3,0-0.5-0.1-0.7-0.3c-0.1-0.1-0.2-0.2-0.2-0.3c0-0.1-0.1-0.2-0.1-0.4c0-0.1,0-0.3,0.1-0.4
								s0.1-0.2,0.2-0.3c0.4-0.4,1.1-0.4,1.4,0c0.1,0.1,0.2,0.2,0.2,0.3c0,0.1,0.1,0.2,0.1,0.4c0,0.1,0,0.3-0.1,0.4
								s-0.1,0.2-0.2,0.3C77.3,109.9,77,110,76.8,110z"/>
							<path class="st3" d="M80.9,108.1c-0.2-0.5,0.1-1.1,0.7-1.2l0,0l0,0l0,0c0.5-0.2,1.1,0.1,1.2,0.7l0,0c0.2,0.5-0.1,1.1-0.7,1.2
								l0,0c-0.1,0-0.2,0.1-0.3,0.1l0,0C81.4,108.8,81,108.5,80.9,108.1z M85.8,106.4c-0.2-0.5,0-1.1,0.5-1.3l0,0
								c0.5-0.2,1.1,0,1.3,0.5l0,0c0.2,0.5,0,1.1-0.5,1.3l0,0c-0.1,0.1-0.2,0.1-0.4,0.1l0,0C86.3,107,86,106.8,85.8,106.4z"/>
							<path class="st3" d="M91.4,104.7c-0.3,0-0.5-0.1-0.7-0.3c-0.1-0.1-0.2-0.2-0.2-0.3s-0.1-0.2-0.1-0.4s0-0.3,0.1-0.4
								c0-0.1,0.1-0.2,0.2-0.3c0.2-0.2,0.6-0.3,0.9-0.3c0.1,0,0.1,0,0.2,0.1c0.1,0,0.1,0,0.2,0.1l0.1,0.1c0.1,0.1,0.2,0.2,0.2,0.3
								c0,0.1,0.1,0.2,0.1,0.4s0,0.3-0.1,0.4s-0.1,0.2-0.2,0.3l-0.1,0.1c-0.1,0-0.1,0.1-0.2,0.1s-0.1,0-0.2,0.1
								C91.5,104.7,91.5,104.7,91.4,104.7z"/>
						</g>
					</g>
					<g>
						<path class="st4" d="M25.3,31.4v17.4c0,5.7,3.8,11.4,11.3,15.8c15.1,8.7,39.7,8.7,54.8,0c7.6-4.4,11.3-10.1,11.3-15.8l0,0
							V31.4H25.3z"/>
						<path class="st5" d="M25.3,31.4v17.4c0,5.7,3.8,11.4,11.3,15.8c7.6,4.4,17.5,6.5,27.4,6.5V31.4H25.3z"/>
						<g>
							<ellipse class="st5" cx="64" cy="31.4" rx="38.7" ry="22.4"/>
							<path class="st2" d="M64,54.7c-10.1,0-20.2-2.2-27.9-6.7l0,0c-7.6-4.4-11.8-10.3-11.8-16.7S28.5,19,36.1,14.6
								c15.4-8.9,40.4-8.9,55.8,0c7.6,4.4,11.8,10.3,11.8,16.7S99.5,43.6,91.9,48C84.2,52.5,74.1,54.7,64,54.7z M37.1,46.3
								c14.8,8.6,39,8.6,53.8,0c7-4,10.8-9.3,10.8-14.9s-3.9-10.9-10.8-14.9c-14.8-8.6-39-8.6-53.8,0c-7,4-10.8,9.3-10.8,14.9
								S30.1,42.3,37.1,46.3L37.1,46.3z"/>
						</g>
						<ellipse class="st4" cx="64" cy="31.4" rx="20" ry="10.7"/>
						<path class="st6" d="M64,72.1c-10.1,0-20.2-2.2-27.9-6.7C28.5,61,24.3,55.1,24.3,48.8V31.4c0-6.3,4.2-12.3,11.8-16.7
							c15.4-8.9,40.4-8.9,55.8,0c7.6,4.4,11.8,10.3,11.8,16.7v17.4c0,6.3-4.2,12.3-11.8,16.7C84.2,69.9,74.1,72.1,64,72.1z M64,10
							c-9.7,0-19.5,2.1-26.9,6.4c-7,4-10.8,9.3-10.8,14.9v17.4c0,5.6,3.9,10.9,10.8,14.9c14.8,8.6,39,8.6,53.8,0
							c7-4,10.8-9.3,10.8-14.9V31.4c0-5.6-3.9-10.9-10.8-14.9C83.5,12.1,73.7,10,64,10z"/>
						<g>
							<path class="st6" d="M76.8,62.1c-0.3,0-0.5-0.1-0.7-0.3c-0.1-0.1-0.2-0.2-0.2-0.3s-0.1-0.2-0.1-0.4s0-0.3,0.1-0.4
								c0.1-0.1,0.1-0.2,0.2-0.3c0.4-0.4,1.1-0.4,1.4,0c0.1,0.1,0.2,0.2,0.2,0.3s0.1,0.2,0.1,0.4s0,0.3-0.1,0.4
								c-0.1,0.1-0.1,0.2-0.2,0.3C77.3,62,77,62.1,76.8,62.1z"/>
							<path class="st6" d="M80.9,60.2c-0.2-0.5,0.1-1.1,0.7-1.2l0,0l0,0l0,0c0.5-0.2,1.1,0.1,1.2,0.7l0,0c0.2,0.5-0.1,1.1-0.7,1.2
								l0,0c-0.1,0-0.2,0.1-0.3,0.1l0,0C81.4,60.9,81,60.6,80.9,60.2z M85.8,58.5c-0.2-0.5,0-1.1,0.5-1.3l0,0c0.5-0.2,1.1,0,1.3,0.5
								l0,0c0.2,0.5,0,1.1-0.5,1.3l0,0c-0.1,0.1-0.2,0.1-0.4,0.1l0,0C86.3,59.1,86,58.9,85.8,58.5z"/>
							<path class="st6" d="M91.4,56.8c-0.1,0-0.3,0-0.4-0.1s-0.2-0.1-0.3-0.2c-0.1-0.1-0.2-0.2-0.2-0.3s-0.1-0.2-0.1-0.4
								c0-0.1,0-0.3,0.1-0.4c0-0.1,0.1-0.2,0.2-0.3c0.2-0.2,0.6-0.3,0.9-0.3c0.1,0,0.1,0,0.2,0.1c0.1,0,0.1,0.1,0.2,0.1l0.1,0.1
								c0.1,0.1,0.2,0.2,0.2,0.3s0.1,0.2,0.1,0.4c0,0.1,0,0.3-0.1,0.4c-0.1,0.1-0.1,0.2-0.2,0.3L92,56.6c-0.1,0-0.1,0.1-0.2,0.1
								s-0.1,0-0.2,0.1C91.5,56.8,91.5,56.8,91.4,56.8z"/>
						</g>
					</g>
					<path class="st3" d="M101.7,67.5c0-0.6,0.4-1,1-1l0,0c0.5,0,1,0.4,1,1l0,0c0,0.6-0.5,1-1,1l0,0C102.2,68.5,101.7,68,101.7,67.5
						z M101.7,61.5c0-0.6,0.4-1,1-1l0,0c0.5,0,1,0.4,1,1l0,0c0,0.6-0.5,1-1,1l0,0C102.2,62.5,101.7,62,101.7,61.5z"/>
					<path class="st6" d="M24.3,67.5c0-0.6,0.5-1,1-1l0,0c0.6,0,1,0.4,1,1l0,0c0,0.6-0.4,1-1,1l0,0C24.7,68.5,24.3,68,24.3,67.5z
						 M24.3,61.5c0-0.6,0.5-1,1-1l0,0c0.6,0,1,0.4,1,1l0,0c0,0.6-0.4,1-1,1l0,0C24.7,62.5,24.3,62,24.3,61.5z"/>
				</g>
				<rect x="4" y="4" class="st7" width="120" height="120"/>
				<rect x="4" y="4" class="st7" width="120" height="120"/>
			</g>
		</g>
	</g>
	<g>
		<rect class="st7" width="128" height="128"/>
	</g>
</g>
</svg>
