<?xml version="1.0" encoding="utf-8"?>
<!-- Generator: Adobe Illustrator 24.1.0, SVG Export Plug-In . SVG Version: 6.00 Build 0)  -->
<svg version="1.1" id="Layer_1" xmlns="http://www.w3.org/2000/svg" xmlns:xlink="http://www.w3.org/1999/xlink" x="0px" y="0px"
	 viewBox="0 0 128 128" style="enable-background:new 0 0 128 128;" xml:space="preserve">
<style type="text/css">
	.st0{fill:none;}
	.st1{fill:#A7B23B;}
	.st2{fill:#436DB5;}
	.st3{fill:#DEEAFF;}
	.st4{fill:#98B9EA;}
	.st5{fill:#FFFFFF;}
	.st6{fill:#DFEAB0;}
	.st7{fill:#C4D36C;}
</style>
<g id="Layer_1_1_">
</g>
<g>
	<g id="Layer_2_1_">
		<g id="New_Illustrations_1_">
			<g>
				<rect x="4" y="4" class="st0" width="120" height="120"/>
				<rect x="4" y="4" class="st0" width="120" height="120"/>
				<g>
					<g>
						<path class="st1" d="M91.4,56.6c-0.1,0-0.3,0-0.4-0.1s-0.2-0.1-0.3-0.2c-0.2-0.2-0.3-0.4-0.3-0.7s0.1-0.5,0.3-0.7
							c0.4-0.4,1-0.4,1.4,0c0.2,0.2,0.3,0.4,0.3,0.7s-0.1,0.5-0.3,0.7C91.9,56.5,91.7,56.6,91.4,56.6z"/>
						<path class="st1" d="M91.2,69c-0.6,0-1-0.5-1-1l0,0c0-0.6,0.5-1,1-1l0,0c0.6,0,1,0.5,1,1l0,0C92.2,68.6,91.8,69,91.2,69
							L91.2,69L91.2,69z M91.3,62.8c-0.5,0-1-0.5-1-1l0,0c0-0.5,0.5-1,1-1l0,0c0.5,0,1,0.5,1,1l0,0C92.3,62.4,91.9,62.8,91.3,62.8
							L91.3,62.8L91.3,62.8z"/>
						<path class="st1" d="M91.1,75.2c-0.1,0-0.3,0-0.4-0.1s-0.2-0.1-0.3-0.2c-0.2-0.2-0.3-0.4-0.3-0.7c0-0.3,0.1-0.5,0.3-0.7
							c0.4-0.4,1-0.4,1.4,0c0.2,0.2,0.3,0.4,0.3,0.7c0,0.3-0.1,0.5-0.3,0.7C91.7,75.1,91.4,75.2,91.1,75.2z"/>
					</g>
					<g>
						<path class="st2" d="M36.6,56.6c-0.3,0-0.5-0.1-0.7-0.3s-0.3-0.4-0.3-0.7s0.1-0.5,0.3-0.7c0.4-0.4,1-0.4,1.4,0
							c0.2,0.2,0.3,0.4,0.3,0.7s-0.1,0.5-0.3,0.7S36.9,56.6,36.6,56.6z"/>
						<path class="st2" d="M35.8,68.1c0-0.6,0.4-1,1-1l0,0c0.6,0,1,0.4,1,1l0,0c0,0.5-0.4,1-1,1l0,0l0,0l0,0
							C36.2,69,35.8,68.6,35.8,68.1z M35.7,61.8c0-0.5,0.4-1,1-1l0,0c0.5,0,1,0.4,1,1l0,0c0,0.6-0.4,1-1,1l0,0l0,0l0,0
							C36.1,62.8,35.7,62.4,35.7,61.8z"/>
						<path class="st2" d="M36.9,75.2c-0.3,0-0.5-0.1-0.7-0.3c-0.2-0.2-0.3-0.4-0.3-0.7c0-0.3,0.1-0.5,0.3-0.7c0.4-0.4,1-0.4,1.4,0
							c0.2,0.2,0.3,0.4,0.3,0.7c0,0.3-0.1,0.5-0.3,0.7C37.4,75.1,37.1,75.2,36.9,75.2z"/>
					</g>
					<g>
						<g>
							<g>
								<g>
									<g>
										<path class="st3" d="M88.5,93.3c-0.2-0.1-0.3-0.2-0.5-0.3c-13.3-7.7-34.8-7.7-48.1,0c-0.2,0.1-0.3,0.2-0.5,0.3H30v10
											c0,5,3.3,10,10,13.9c13.3,7.7,34.8,7.7,48.1,0c6.6-3.8,10-8.9,10-13.9v-10H88.5z"/>
										<path class="st4" d="M64,123.9c-8.9,0-17.8-2-24.5-5.9S29,108.9,29,103.3v-10c0-0.6,0.4-1,1-1h9.2c0.1,0,0.2-0.1,0.2-0.1
											c13.5-7.8,35.6-7.8,49.1,0c0.1,0,0.2,0.1,0.2,0.1H98c0.6,0,1,0.4,1,1v10c0,5.6-3.7,10.9-10.5,14.7
											C81.8,121.9,72.9,123.9,64,123.9z M31,94.3v9c0,4.9,3.4,9.5,9.5,13c13,7.5,34.1,7.5,47.1,0c6.1-3.5,9.5-8.1,9.5-13v-9
											h-8.5c-0.2,0-0.4,0-0.5-0.1l-0.4-0.3c-13-7.5-34.1-7.5-47.1,0L40,94.1c-0.2,0.1-0.3,0.1-0.5,0.1H31V94.3z"/>
									</g>
									<path class="st4" d="M88,117.2c6.6-3.8,10-8.9,10-13.9v-10h-9.5c-0.2-0.1-0.3-0.2-0.5-0.3c-6.6-3.8-15.3-5.8-24-5.8v35.6
										C72.7,122.9,81.4,121,88,117.2z"/>
									<ellipse class="st3" cx="64" cy="93.3" rx="34" ry="19.6"/>
									<g>
										<ellipse class="st4" cx="64" cy="93.3" rx="27.2" ry="14.7"/>
										<path class="st4" d="M64,109c-7.1,0-14.3-1.5-19.7-4.4c-5.5-3-8.5-7-8.5-11.3s3-8.3,8.5-11.3c10.9-5.9,28.6-5.9,39.4,0
											l0,0c5.5,3,8.5,7,8.5,11.3s-3,8.3-8.5,11.3C78.3,107.5,71.1,109,64,109z M64,79.5c-6.8,0-13.6,1.4-18.8,4.2
											c-4.8,2.6-7.4,6-7.4,9.5c0,3.6,2.6,6.9,7.4,9.5c10.3,5.6,27.2,5.6,37.5,0c4.8-2.6,7.4-6,7.4-9.5c0-3.6-2.6-6.9-7.4-9.5
											C77.6,80.9,70.8,79.5,64,79.5z"/>
									</g>
									<g>
										<path class="st5" d="M83.2,84.8c-10.6-5.8-27.8-5.8-38.5,0c-4.9,2.6-7.5,6-7.9,9.5c0.4,3.4,3,6.8,7.9,9.5
											c10.6,5.8,27.8,5.8,38.5,0c4.9-2.6,7.5-6,7.9-9.5C90.7,90.8,88.1,87.4,83.2,84.8z"/>
										<path class="st4" d="M64,109c-7.1,0-14.3-1.5-19.7-4.4c-5-2.7-8-6.3-8.4-10.2c0-0.1,0-0.2,0-0.2c0.5-3.9,3.5-7.5,8.4-10.2
											c10.9-5.9,28.6-5.9,39.4,0l0,0c5,2.7,8,6.3,8.4,10.2c0,0.1,0,0.2,0,0.2c-0.5,3.9-3.5,7.5-8.4,10.2
											C78.3,107.5,71.1,109,64,109z M37.9,94.3c0.4,3.2,3,6.2,7.4,8.6c10.3,5.6,27.2,5.6,37.5,0c4.3-2.3,6.9-5.4,7.4-8.6
											c-0.4-3.2-3-6.2-7.4-8.6l0,0c-10.3-5.6-27.2-5.6-37.5,0C40.9,88,38.3,91.1,37.9,94.3z"/>
									</g>
									<path class="st3" d="M47.7,95.6c0-2.4,1.6-4.8,4.7-6.6c6.3-3.6,16.5-3.6,22.8,0c6.3,3.6,6.3,9.5,0,13.2
										C72.1,104,68,105,63.8,105v2.8c5.4,0,10.7-1.2,14.8-3.6c8.2-4.7,8.2-12.4,0-17.1s-21.5-4.7-29.7,0
										c-4.1,2.4-6.2,5.5-6.2,8.6h5V95.6z"/>
									<path class="st4" d="M75.2,102.2C72.1,104,68,105,63.8,105v2.8c5.4,0,10.7-1.2,14.8-3.6s6.2-5.5,6.2-8.6H80
										C80,98,78.4,100.4,75.2,102.2z"/>
									<path class="st3" d="M52.8,105.7l-6.5-3.8c-0.7-0.4-0.7-1.1,0-1.5l2.3-1.3c0.7-0.4,1.8-0.4,2.5,0l6.5,3.8
										c0.7,0.4,0.7,1.1,0,1.5l-2.3,1.3C54.7,106.1,53.5,106.1,52.8,105.7z"/>
									<path class="st2" d="M75.4,103.3L63,96.1c-0.5-0.3-0.5-0.7,0-1s1.2-0.3,1.7,0l12.4,7.2c0.5,0.3,0.5,0.7,0,1
										S75.9,103.6,75.4,103.3z"/>
									<ellipse class="st2" cx="63.8" cy="95.6" rx="3" ry="1.7"/>
									<path class="st5" d="M64,113.9c-8.9,0-17.8-2-24.5-5.9C32.7,104.1,29,98.9,29,93.3s3.7-10.9,10.5-14.7
										c13.5-7.8,35.6-7.8,49.1,0l0,0C95.3,82.4,99,87.7,99,93.3c0,5.6-3.7,10.9-10.5,14.7C81.8,111.9,72.9,113.9,64,113.9z
										 M64,74.7c-8.5,0-17.1,1.9-23.5,5.6c-6.1,3.5-9.5,8.1-9.5,13s3.4,9.5,9.5,13c13,7.5,34.1,7.5,47.1,0
										c6.1-3.5,9.5-8.1,9.5-13s-3.4-9.5-9.5-13l0,0C81.1,76.5,72.5,74.7,64,74.7z"/>
									<path class="st2" d="M64,123.9c-9.3,0-18-2.1-24.5-5.9c-6.7-3.9-10.5-9.1-10.5-14.7v-10c0-5.6,3.7-10.9,10.5-14.7
										c13.5-7.8,35.6-7.8,49.1,0C95.3,82.4,99,87.7,99,93.3v10c0,2.1-0.5,4.1-1.5,6c-1.7,3.3-4.8,6.3-8.9,8.7
										c-3.3,1.9-7.2,3.4-11.5,4.4c-1,0.2-2.1,0.5-3.2,0.6c-2.1,0.4-4.3,0.6-6.5,0.7C66.2,123.9,65.1,123.9,64,123.9z M64,74.7
										c-8.5,0-17.1,1.9-23.5,5.6c-6.1,3.5-9.5,8.1-9.5,13v10c0,4.9,3.4,9.5,9.5,13c6.3,3.6,14.6,5.6,23.5,5.6
										c1.1,0,2.1,0,3.2-0.1c2.1-0.1,4.3-0.4,6.3-0.7c1-0.2,2.1-0.4,3.1-0.6c4.1-1,7.8-2.4,11-4.2c3.8-2.2,6.7-4.9,8.2-7.9
										c0.9-1.7,1.3-3.4,1.3-5.1v-10c0-4.9-3.4-9.5-9.5-13C81.1,76.5,72.5,74.7,64,74.7z"/>
									<path class="st4" d="M64,109c-7.1,0-14.3-1.5-19.7-4.4c-5-2.7-8-6.3-8.4-10.2c0-0.1,0-0.2,0-0.2c0.5-3.9,3.5-7.5,8.4-10.2
										c10.9-5.9,28.6-5.9,39.4,0l0,0c5,2.7,8,6.3,8.4,10.2c0,0.1,0,0.2,0,0.2c-0.5,3.9-3.5,7.5-8.4,10.2
										C78.3,107.5,71.1,109,64,109z M37.9,94.3c0.4,3.2,3,6.2,7.4,8.6c10.3,5.6,27.2,5.6,37.5,0c4.3-2.3,6.9-5.4,7.4-8.6
										c-0.4-3.2-3-6.2-7.4-8.6l0,0c-10.3-5.6-27.2-5.6-37.5,0C40.9,88,38.3,91.1,37.9,94.3z"/>
								</g>
							</g>
						</g>
					</g>
					<g>
						<g>
							<g>
								<path class="st6" d="M76.2,69.5H51.8v7.3c0,0.6,0.1,1.2,0.4,1.7l0,0l2.3,5.3l0,0c1.1,2.5,4.9,4.3,9.5,4.3s8.5-1.8,9.5-4.3
									l0,0l2.3-5.3l0,0c0.2-0.5,0.4-1.1,0.4-1.7C76.2,76.8,76.2,69.5,76.2,69.5z"/>
								<path class="st7" d="M64,88.1c4.6,0,8.5-1.8,9.5-4.3l0,0l2.3-5.3l0,0c0.2-0.5,0.4-1.1,0.4-1.7v-7.3H64V88.1z"/>
								<path class="st1" d="M64,89.1c-4.9,0-9-1.9-10.4-4.8l-0.1-0.1l-2.3-5.3c0-0.1,0-0.1-0.1-0.2c-0.3-0.6-0.4-1.3-0.4-1.9v-7.3
									c0-0.6,0.4-1,1-1H76c0.6,0,1,0.4,1,1v7.3c0,0.6-0.1,1.3-0.4,1.9c0,0.1,0,0.1-0.1,0.2l-2.3,5.3c0,0.1,0,0.1-0.1,0.1
									C73,87.2,68.9,89.1,64,89.1z M55.3,83.3C55.3,83.3,55.3,83.4,55.3,83.3c1,2.2,4.6,3.8,8.7,3.8s7.7-1.6,8.6-3.7
									c0,0,0-0.1,0.1-0.1l2.2-5c0-0.1,0-0.1,0.1-0.2c0.2-0.5,0.3-0.9,0.3-1.3v-6.3H52.8v6.3c0,0.4,0.1,0.8,0.3,1.3
									c0,0.1,0,0.1,0.1,0.2L55.3,83.3z"/>
								<path class="st5" d="M93.2,34.3c0-16.8-14.3-30.4-31.4-29.1c-14.5,1.1-26.1,13-26.9,27.5c-0.5,10.5,4.4,19.8,12.3,25.4
									c3,2.1,4.7,5.6,4.7,9.3v2.1l0,0v0.1c0,3.9,5.4,7,12.2,7s12.2-3.1,12.2-7v-0.1l0,0v-2.2c0-3.7,1.7-7.1,4.7-9.2
									C88.3,52.7,93.2,44.1,93.2,34.3z"/>
								<path class="st1" d="M64,77.6c-7.4,0-13.2-3.5-13.2-8l0,0c0,0,0,0,0-0.1v-2.1c0-3.4-1.6-6.6-4.3-8.5
									c-8.5-6-13.2-15.8-12.7-26.2C34.7,17.5,46.6,5.3,61.7,4.2c8.5-0.6,16.6,2.2,22.8,8c6.1,5.7,9.6,13.7,9.6,22.1
									c0,9.7-4.7,18.9-12.7,24.6c-2.7,1.9-4.3,5.1-4.3,8.4v2.2c0,0,0,0,0,0.1c0,0,0,0,0,0.1C77.2,74,71.4,77.6,64,77.6z
									 M52.8,69.3c0,0.1,0,0.1,0,0.2v0.1c0,3.2,5.1,6,11.2,6s11.2-2.8,11.2-6c0,0,0,0,0-0.1s0-0.1,0-0.2v-2c0-4,1.9-7.8,5.2-10.1
									c7.4-5.3,11.8-13.9,11.8-22.9c0-7.8-3.3-15.3-9-20.6c-5.8-5.4-13.4-8-21.3-7.4c-14.1,1-25.2,12.5-26,26.6
									c-0.5,9.7,3.9,18.9,11.9,24.5c3.2,2.3,5.1,6,5.1,10.1L52.8,69.3L52.8,69.3z"/>
								<path class="st5" d="M64,74.3c5.6,0,9.8-2.4,9.9-4.7v-0.1c0-0.1,0-0.2,0-0.3v-1.9c0-4.5,2.1-8.6,5.6-11.1
									c7.6-5.4,11.8-14.1,11.3-23.4C90.1,19.4,79.5,8.5,66.1,7.5c-0.7-0.1-1.4-0.1-2.1-0.1c-14.8,0-26.9,12.1-26.9,26.9
									c0,8.7,4.2,16.9,11.3,21.9c3.6,2.5,5.7,6.7,5.7,11.1v2c0,0.1,0,0.2,0,0.2v0.1C54.2,71.8,58.4,74.3,64,74.3z"/>
								<path class="st6" d="M64,21.4v36.7c0,2.6-1.7,4.9-4.2,5.7s-4.2,2.4-4.2,4.2c0,2.7,3.8,4.9,8.4,4.9s8.4-2.2,8.4-4.9l0,0l0,0
									v-0.8c0-4.9,2.4-9.5,6.3-12.3c6.7-4.8,10.7-12.5,10.7-20.7c0-8.4-4.1-15.8-10.3-20.4C72.8,9.2,64,13.7,64,21.4z"/>
								<path class="st1" d="M64,83.6c-7.4,0-13.2-3.5-13.2-8c0-0.6,0.4-1,1-1s1,0.4,1,1c0,3.3,5.1,6,11.2,6s11.2-2.8,11.2-6
									c0-0.6,0.4-1,1-1s1,0.4,1,1C77.2,80.1,71.4,83.6,64,83.6z"/>
							</g>
							
								<ellipse transform="matrix(0.7071 -0.7071 0.7071 0.7071 0.1836 41.0742)" class="st6" cx="49.7" cy="20.3" rx="5.4" ry="3.2"/>
						</g>
					</g>
				</g>
			</g>
		</g>
	</g>
	<g>
		<rect class="st0" width="128" height="128"/>
	</g>
</g>
</svg>
