<?xml version="1.0" encoding="utf-8"?>
<!-- Generator: Adobe Illustrator 24.1.0, SVG Export Plug-In . SVG Version: 6.00 Build 0)  -->
<svg version="1.1" id="Layer_1" xmlns="http://www.w3.org/2000/svg" xmlns:xlink="http://www.w3.org/1999/xlink" x="0px" y="0px"
	 viewBox="0 0 128 128" style="enable-background:new 0 0 128 128;" xml:space="preserve">
<style type="text/css">
	.st0{fill:#FFFFFF;}
	.st1{fill:#DEEAFF;}
	.st2{fill:#98B9EA;}
	.st3{fill:#436DB5;}
	.st4{fill:#C4D36C;}
	.st5{fill:#DFEAB0;}
	.st6{fill:#A7B23B;}
	.st7{fill:none;}
</style>
<g id="Layer_1_1_">
</g>
<g>
	<g id="Layer_2_1_">
		<g id="New_Illustrations_1_">
			<g>
				<g>
					<path class="st0" d="M75.9,15.7l-8.6-5l0,0c-1.3-0.7-3.1-0.7-5,0.4l-4.8,2.8l2.5-3.1l-8.6-5l0,0c-2.3-1.3-5.2-1.2-8.5,0.7
						c-6.8,3.9-12.3,14-12.9,23.2l-6.4,3.7c-4.3,2.5-7.8,9.1-7.8,14.9c0,3.1,1,5.3,2.7,6.3l0,0l8.6,5l7.7-8L31,49.9l31.3-18.1
						c2.9-1.7,5.4-5.2,6.7-9.1L75.9,15.7z"/>
					<path class="st1" d="M70.9,16.1l-6.4,3.7c-0.6-8.5-6.1-12.2-12.9-8.3s-12.3,14-12.9,23.2l-6.4,3.7c-4.3,2.5-7.8,9.1-7.8,14.9
						s3.5,8.4,7.8,5.9l38.6-22.3c4.3-2.5,7.8-9.1,7.8-14.9l0,0C78.6,16.2,75.2,13.6,70.9,16.1z"/>
					<path class="st2" d="M24.5,54.2c-0.6,0-1-0.4-1-1c0-6.1,3.6-13,8.3-15.7l5.9-3.4c0.8-9.5,6.5-19.5,13.4-23.5
						c3.3-1.9,6.6-2.2,9.3-0.8s4.4,4.3,5,8.3l5.1-2.9c0.5-0.3,1.1-0.1,1.4,0.4s0.1,1.1-0.4,1.4L65,20.7c-0.3,0.2-0.7,0.2-1,0
						c-0.3-0.2-0.5-0.5-0.5-0.8c-0.3-4-1.8-7-4.1-8.3c-2-1.1-4.6-0.8-7.3,0.8c-6.4,3.7-11.8,13.5-12.4,22.4c0,0.3-0.2,0.6-0.5,0.8
						l-6.4,3.7c-4,2.3-7.3,8.6-7.3,14C25.5,53.8,25,54.2,24.5,54.2z"/>
					<path class="st3" d="M29.2,61.1c-0.8,0-1.6-0.2-2.4-0.6c0,0-0.1,0-0.1-0.1l-8.6-5L18,55.3c-1.9-1.2-3.1-3.8-3.1-7.1
						c0-6.1,3.6-13,8.3-15.7l5.9-3.4c0.8-9.5,6.5-19.5,13.4-23.5c3.4-1.9,6.6-2.2,9.3-0.8c0.1,0,0.1,0,0.2,0.1l8.6,5
						c0.1,0,0.1,0.1,0.2,0.1c0.2,0.1,0.5,0.3,0.7,0.5l0.4-0.2c2-1.3,4.1-1.4,5.8-0.5c0,0,0.1,0,0.1,0.1l8.6,5l0.1,0.1
						c1.9,1.2,3.1,3.8,3.1,7.1c0,6.1-3.6,13-8.3,15.7L32.7,60C31.5,60.7,30.3,61.1,29.2,61.1z M27.5,58.6c0,0,0.1,0,0.1,0.1
						c1.1,0.6,2.5,0.5,4.1-0.4L70.4,36c4-2.3,7.3-8.6,7.3-14c0-2.6-0.8-4.6-2.2-5.4l-0.1-0.1L67,11.7c0,0-0.1,0-0.1-0.1
						c-1.1-0.6-2.5-0.5-4.1,0.4l-1,0.6c-0.4,0.2-0.9,0.2-1.2-0.1s-0.7-0.5-1.1-0.8c-0.1,0-0.1-0.1-0.2-0.1L51,6.8
						c-0.1,0-0.1,0-0.2-0.1c-2.1-1.2-4.6-1-7.5,0.7c-6.4,3.7-11.8,13.5-12.4,22.4c0,0.3-0.2,0.6-0.5,0.8L24,34.3
						c-4,2.3-7.3,8.6-7.3,14c0,2.6,0.8,4.6,2.2,5.4l0.1,0.1L27.5,58.6z"/>
					<g>
						<path class="st4" d="M107.3,95.5h-3.9c-1.6-2-3.8-3.8-6.5-5.4C84.4,82.8,73,76.3,73,76.3c-10.9,6.3-37.6,8.5-37.6,8.5
							s-1.3,5.2-4.6,10.8H20.6v7.5c0,0,11.3,6.5,23.8,13.8c14.1,8.1,38.5,7.1,56.1,2.2c4.1-4.8,6.6-10.6,6.6-16.2l0,0v-7.4H107.3z"
							/>
						<path class="st0" d="M72.6,124c-10.6,0-21-1.7-28.6-6.1l-23.8-13.8c-0.3-0.2-0.5-0.5-0.5-0.9v-7.5c0-0.6,0.4-1,1-1h9.6
							c2.9-5.2,4.2-10,4.2-10.1c0.1-0.4,0.5-0.7,0.9-0.8c0.3,0,26.7-2.3,37.2-8.4c0.3-0.2,0.7-0.2,1,0l23.8,13.8
							c2.6,1.5,4.8,3.3,6.5,5.3h3.4c0.3,0,0.5,0.1,0.7,0.3c0.2,0.2,0.3,0.4,0.3,0.7v7.5c0,0.1,0,0.2,0,0.2
							c-0.1,5.5-2.5,11.4-6.8,16.6c-0.1,0.2-0.3,0.3-0.5,0.3C92.7,122.5,82.6,124,72.6,124z M21.7,102.6L45,116.1
							c14.1,8.1,38.3,6.8,55.1,2.2c4-4.8,6.2-10.2,6.2-15.3c0-0.1,0-0.2,0-0.2v-6.3h-2.9l0,0c-0.3,0-0.6-0.1-0.8-0.4
							c-1.6-2-3.7-3.7-6.3-5.2L73,77.4c-10.3,5.6-32.5,7.9-36.9,8.3c-0.5,1.6-1.9,5.9-4.5,10.4c-0.2,0.3-0.5,0.5-0.9,0.5h-9.2v6
							H21.7z"/>
					</g>
					<path class="st5" d="M73,65.5c0,0,11.3,6.5,23.8,13.8c14.1,8.1,12.4,22.2,3.8,32.4c-17.6,5-42,6-56.1-2.2
						C32,102.2,20.7,95.7,20.7,95.7C31.6,89.4,35.4,74,35.4,74S62.2,71.7,73,65.5z"/>
					<path class="st0" d="M71.9,109.7c-9.8,0-18-1.7-23.6-5l-17.2-9.9c5.6-5.2,8.6-12.5,9.8-16.1c5.9-0.6,22.2-2.7,31.3-7l19.9,11.5
						c4.3,2.5,6.9,5.7,7.6,9.6c0.8,4.3-0.8,9.3-4.4,13.8C87.9,108.6,79.6,109.7,71.9,109.7z"/>
					<path class="st5" d="M99.6,92.8c-0.7-3.9-3.2-7.1-7.6-9.6L72.2,71.7c-9.1,4.3-25.3,6.4-31.3,7l54.3,27.9
						C98.8,102.1,100.4,97.2,99.6,92.8z"/>
					<path class="st0" d="M72.6,116.5c-10.6,0-21-1.7-28.6-6.1L20.2,96.6c-0.3-0.2-0.5-0.5-0.5-0.9s0.2-0.7,0.5-0.9
						c10.4-6,14.2-20.9,14.2-21.1c0.1-0.4,0.5-0.7,0.9-0.8c0.3,0,26.7-2.3,37.2-8.4c0.3-0.2,0.7-0.2,1,0l23.9,13.8
						c6,3.4,9.7,8.3,10.6,13.9c1.1,6.4-1.3,13.7-6.6,20c-0.1,0.2-0.3,0.3-0.5,0.3C92.7,114.9,82.6,116.5,72.6,116.5z M22.6,95.7
						L45,108.6c14.1,8.1,38.3,6.8,55.1,2.2c4.8-5.8,7-12.4,6-18.1c-0.9-5.1-4.1-9.3-9.7-12.5L73,66.6c-10.3,5.6-32.5,7.9-36.8,8.3
						C35.3,77.9,31.5,89.6,22.6,95.7z"/>
					<path class="st5" d="M72.2,71.7c-9.1,4.3-25.3,6.4-31.3,7c-1.2,3.6-4.2,10.9-9.8,16.1l15,8.6L86.6,80L72.2,71.7z"/>
					<path class="st0" d="M86.6,80.1l-14.4-8.3c-9.1,4.3-25.3,6.4-31.3,7l25.4,13.1L86.6,80.1z"/>
					<path class="st6" d="M72.6,124c-10.6,0-21-1.7-28.6-6.1l-23.8-13.8c-0.3-0.2-0.5-0.5-0.5-0.9v-7.5c0-0.4,0.2-0.7,0.5-0.9
						c10.4-6,14.2-20.9,14.2-21.1c0.1-0.4,0.5-0.7,0.9-0.8c0.3,0,26.7-2.3,37.2-8.4c0.3-0.2,0.7-0.2,1,0l23.8,13.8
						c8.8,5.1,10.8,11.9,10.9,16.9c0,0.1,0,0.2,0,0.2v7.5c0,0.1,0,0.2,0,0.2c-0.1,5.5-2.5,11.4-6.8,16.6c-0.1,0.2-0.3,0.3-0.5,0.3
						C92.7,122.5,82.6,124,72.6,124z M21.7,102.6L45,116.1c14.1,8.1,38.3,6.8,55.1,2.2c4-4.8,6.2-10.2,6.2-15.3c0-0.1,0-0.2,0-0.2
						v-7c0-0.1,0-0.2,0-0.2c0-6.3-3.4-11.6-9.9-15.4L73,66.6c-10.3,5.6-32.5,7.9-36.8,8.3c-0.9,3.1-5,15.5-14.5,21.3V102.6z"/>
					<path class="st6" d="M71.9,110.7c-10,0-18.4-1.8-24.1-5.1l-17.2-9.9c-0.3-0.2-0.5-0.4-0.5-0.8c0-0.3,0.1-0.6,0.3-0.8
						c5.4-5,8.3-12,9.5-15.7c0.1-0.4,0.5-0.6,0.8-0.7c6.4-0.7,22.1-2.7,30.9-6.9c0.3-0.1,0.6-0.1,0.9,0l19.9,11.5
						c4.6,2.7,7.3,6.1,8,10.3c0.8,4.6-0.9,9.9-4.6,14.6c-0.1,0.2-0.3,0.3-0.5,0.3C88.1,109.6,79.7,110.7,71.9,110.7z M32.8,94.6
						l16,9.2c5.5,3.2,13.5,4.8,23.1,4.8c7.5,0,15.5-1,22.7-2.9c3.2-4.2,4.7-8.9,4-12.8c-0.6-3.6-3-6.6-7.1-8.9L72.1,72.9
						C63.2,77,48.3,79,41.6,79.7C40.4,83.4,37.6,89.7,32.8,94.6z"/>
					<path class="st5" d="M67.2,95.8c-2.6,0-4.8-0.5-6.3-1.3l-4.6-2.6c1.5-1.4,2.3-3.3,2.6-4.3c1.6-0.2,5.9-0.7,8.3-1.9l5.3,3
						c1.2,0.7,1.8,1.5,2,2.6s-0.2,2.5-1.2,3.7C71.4,95.5,69.2,95.8,67.2,95.8z"/>
					<path class="st6" d="M67.2,96.8c-2.8,0-5.1-0.5-6.8-1.5l-4.6-2.6c-0.3-0.2-0.5-0.4-0.5-0.8c0-0.3,0.1-0.6,0.3-0.8
						c1.3-1.2,2-2.9,2.3-3.9c0.1-0.4,0.5-0.6,0.8-0.7c1.3-0.1,5.7-0.7,8-1.8c0.3-0.1,0.6-0.1,0.9,0l5.3,3c1.4,0.8,2.3,1.9,2.5,3.3
						c0.3,1.4-0.2,3-1.4,4.5c-0.1,0.2-0.3,0.3-0.5,0.3C71.6,96.5,69.3,96.8,67.2,96.8z M57.9,91.6l3.5,2c1.3,0.8,3.3,1.2,5.8,1.2
						c1.8,0,3.8-0.2,5.6-0.7c0.6-0.9,0.9-1.8,0.8-2.6c-0.1-0.7-0.6-1.3-1.5-1.9l-4.8-2.8c-2.3,0.9-5.6,1.4-7.5,1.7
						C59.3,89.3,58.8,90.5,57.9,91.6z"/>
					<path class="st0" d="M109.4,35l-8.6-5l0,0c-1.4-0.8-3.1-0.7-5.1,0.4L91,33.2l2.5-3.1l-8.6-5l0,0c-2.3-1.3-5.2-1.2-8.5,0.7
						c-6.8,3.9-12.3,14-12.9,23.2l-6.4,3.7c-4.3,2.5-7.8,9.1-7.8,14.9c0,3.1,1,5.3,2.7,6.3l0,0l8.6,5l7.7-8l-3.8-1.6l31.3-18.1
						c2.9-1.7,5.4-5.2,6.7-9.1L109.4,35z"/>
					<path class="st1" d="M104.3,35.4l-6.4,3.7c-0.6-8.5-6.1-12.2-12.9-8.3S72.7,44.8,72.1,54l-6.4,3.7c-4.3,2.5-7.8,9.1-7.8,14.9
						s3.5,8.4,7.8,5.9l38.6-22.3c4.3-2.5,7.8-9.1,7.8-14.9l0,0C112.1,35.6,108.6,32.9,104.3,35.4z"/>
					<path class="st2" d="M57.9,73.6c-0.6,0-1-0.4-1-1c0-6.1,3.6-13,8.3-15.7l5.9-3.4C72,44,77.6,33.9,84.5,30
						c3.3-1.9,6.6-2.2,9.3-0.8c2.7,1.4,4.4,4.3,5,8.3l5.1-2.9c0.5-0.3,1.1-0.1,1.4,0.4s0.1,1.1-0.4,1.4L98.4,40
						c-0.3,0.2-0.7,0.2-1,0s-0.5-0.5-0.5-0.8c-0.3-4-1.8-7-4.1-8.3c-2-1.1-4.6-0.8-7.3,0.8c-6.4,3.7-11.8,13.5-12.4,22.4
						c0,0.3-0.2,0.6-0.5,0.8l-6.4,3.7c-4,2.3-7.3,8.6-7.3,14C58.9,73.1,58.5,73.6,57.9,73.6z"/>
					<path class="st3" d="M62.6,80.4c-0.8,0-1.6-0.2-2.4-0.6c0,0-0.1,0-0.1-0.1l-8.6-5l-0.1-0.1c-1.9-1.2-3.1-3.8-3.1-7.1
						c0-6.1,3.6-13,8.3-15.7l5.9-3.4C63.4,39,69.1,29,76,25c3.4-1.9,6.6-2.2,9.3-0.8c0.1,0,0.1,0,0.2,0.1l8.6,5
						c0.1,0,0.1,0.1,0.2,0.1c0.2,0.1,0.5,0.3,0.7,0.5l0.4-0.2c2.1-1.2,4.2-1.4,5.9-0.5c0,0,0.1,0,0.1,0.1l8.6,5l0.1,0.1
						c1.9,1.2,3.1,3.8,3.1,7.1c0,6.1-3.6,13-8.3,15.7L66.2,79.3C65,80,63.8,80.4,62.6,80.4z M61,77.9C61,77.9,61.1,77.9,61,77.9
						c1.2,0.7,2.6,0.6,4.2-0.3l38.6-22.3c4-2.3,7.3-8.6,7.3-14c0-2.6-0.8-4.6-2.2-5.4c0,0-0.1,0-0.1-0.1l-8.3-4.8c0,0-0.1,0-0.1-0.1
						c-1.1-0.6-2.5-0.5-4.1,0.4l-1,0.6c-0.4,0.2-0.9,0.2-1.2-0.1c-0.3-0.3-0.7-0.5-1.1-0.8c-0.1,0-0.1-0.1-0.2-0.1l-8.3-4.8
						c-0.1,0-0.1,0-0.2-0.1c-2.1-1.2-4.6-1-7.5,0.7C70.4,30.4,65,40.2,64.4,49.1c0,0.3-0.2,0.6-0.5,0.8l-6.4,3.7
						c-4,2.3-7.3,8.6-7.3,14c0,2.6,0.8,4.6,2.2,5.4l0.1,0.1L61,77.9z"/>
					<g>
						<path class="st6" d="M111.1,56c-0.1,0-0.3,0-0.4-0.1s-0.2-0.1-0.3-0.2c-0.2-0.2-0.3-0.4-0.3-0.7s0.1-0.5,0.3-0.7
							c0.1-0.1,0.2-0.2,0.3-0.2c0.4-0.1,0.8-0.1,1.1,0.2c0.2,0.2,0.3,0.4,0.3,0.7s-0.1,0.5-0.3,0.7C111.6,55.9,111.4,56,111.1,56z"
							/>
						<path class="st6" d="M109.1,80.5c-0.6-0.1-1-0.5-0.9-1.1l0,0c0-0.6,0.5-1,1.1-0.9l0,0c0.5,0.1,1,0.5,0.9,1.1l0,0
							C110.1,80.1,109.7,80.5,109.1,80.5L109.1,80.5L109.1,80.5z M109.6,74.4c-0.6-0.1-1-0.5-0.9-1.1l0,0c0-0.6,0.5-1,1.1-0.9l0,0
							c0.6,0,1,0.5,0.9,1.1l0,0C110.6,74,110.2,74.4,109.6,74.4L109.6,74.4L109.6,74.4z M110.1,68.3c-0.6,0-1-0.5-0.9-1.1l0,0
							c0-0.6,0.5-1,1.1-0.9l0,0c0.5,0,1,0.5,0.9,1.1l0,0C111.1,67.9,110.6,68.3,110.1,68.3L110.1,68.3L110.1,68.3z M110.5,62.1
							c-0.6,0-1-0.5-0.9-1.1l0,0c0-0.6,0.5-1,1.1-0.9l0,0c0.6,0,1,0.5,0.9,1.1l0,0C111.6,61.8,111.1,62.2,110.5,62.1L110.5,62.1
							C110.6,62.2,110.6,62.1,110.5,62.1z"/>
						<path class="st6" d="M108.7,86.7c-0.3,0-0.5-0.1-0.7-0.3c-0.1-0.1-0.2-0.2-0.2-0.3c-0.1-0.1-0.1-0.2-0.1-0.4
							c0-0.3,0.1-0.5,0.3-0.7c0.4-0.4,1-0.4,1.4,0c0.2,0.2,0.3,0.4,0.3,0.7c0,0.1,0,0.3-0.1,0.4s-0.1,0.2-0.2,0.3
							C109.2,86.6,109,86.7,108.7,86.7z"/>
					</g>
					<g>
						<path class="st3" d="M16.9,59.5c-0.3,0-0.5-0.1-0.7-0.3c0-0.1-0.1-0.1-0.1-0.2c0-0.1-0.1-0.1-0.1-0.2c0-0.1,0-0.1-0.1-0.2
							c0-0.1,0-0.1,0-0.2c0-0.3,0.1-0.5,0.3-0.7c0.2-0.2,0.6-0.3,0.9-0.3c0.1,0,0.1,0,0.2,0.1c0.1,0,0.1,0.1,0.2,0.1
							s0.1,0.1,0.2,0.1c0.2,0.2,0.3,0.5,0.3,0.7c0,0.1,0,0.1,0,0.2c0,0.1,0,0.1-0.1,0.2c0,0.1-0.1,0.1-0.1,0.2
							c0,0.1-0.1,0.1-0.1,0.2c0,0-0.1,0.1-0.2,0.1c0,0-0.1,0.1-0.2,0.1s-0.1,0.1-0.2,0.1S17,59.5,16.9,59.5z"/>
						<path class="st3" d="M18.4,82.6c-0.1-0.6,0.3-1,0.9-1.1l0,0c0.5-0.1,1,0.3,1.1,0.9l0,0c0,0.6-0.4,1-0.9,1.1l0,0h-0.1l0,0
							C18.8,83.5,18.4,83.1,18.4,82.6z M17.7,76.6c-0.1-0.6,0.3-1,0.9-1.1l0,0c0.5-0.1,1,0.3,1.1,0.9l0,0c0.1,0.6-0.3,1-0.9,1.1l0,0
							h-0.1l0,0C18.2,77.5,17.8,77.1,17.7,76.6z M17.1,70.6c-0.1-0.6,0.3-1,0.9-1.1l0,0c0.6-0.1,1,0.3,1.1,0.9l0,0
							c0.1,0.6-0.4,1-0.9,1.1l0,0h-0.1l0,0C17.6,71.5,17.2,71.1,17.1,70.6z M16.5,64.6c-0.1-0.6,0.3-1,0.9-1.1l0,0
							c0.5-0.1,1,0.3,1.1,0.9l0,0c0,0.6-0.4,1-0.9,1.1l0,0h-0.1l0,0C17,65.5,16.6,65.1,16.5,64.6z"/>
						<path class="st3" d="M20,89.5c-0.3,0-0.5-0.1-0.7-0.3C19.1,89,19,88.7,19,88.5c0-0.1,0-0.3,0.1-0.4c0-0.1,0.1-0.2,0.2-0.3
							c0.1-0.1,0.2-0.2,0.3-0.2c0.4-0.1,0.8-0.1,1.1,0.2c0.2,0.2,0.3,0.5,0.3,0.7s-0.1,0.5-0.3,0.7C20.5,89.3,20.2,89.5,20,89.5z"/>
					</g>
				</g>
				<rect x="4" y="4" class="st7" width="120" height="120"/>
			</g>
		</g>
	</g>
	<g>
		<rect class="st7" width="128" height="128"/>
	</g>
</g>
</svg>
