<?xml version="1.0" encoding="utf-8"?>
<!-- Generator: Adobe Illustrator 24.1.0, SVG Export Plug-In . SVG Version: 6.00 Build 0)  -->
<svg version="1.1" id="Layer_1" xmlns="http://www.w3.org/2000/svg" xmlns:xlink="http://www.w3.org/1999/xlink" x="0px" y="0px"
	 viewBox="0 0 128 128" style="enable-background:new 0 0 128 128;" xml:space="preserve">
<style type="text/css">
	.st0{fill:#C4D36C;}
	.st1{fill:#DFEAB0;}
	.st2{fill:#FFFFFF;}
	.st3{fill:#A7B23B;}
	.st4{fill:#98B9EA;}
	.st5{fill:#DEEAFF;}
	.st6{fill:#436DB5;}
	.st7{fill:none;}
</style>
<g id="Layer_1_1_">
</g>
<g>
	<g id="Layer_2_1_">
		<g id="Tech_Concepts_1_">
			<g>
				<g>
					<g>
						<g>
							<path class="st0" d="M78.5,69.7c-0.3,0-0.7-0.2-0.9-0.5c-0.3-0.5-0.1-1.1,0.4-1.4l8.3-4.8c0.5-0.3,1.1-0.1,1.4,0.4
								s0.1,1.1-0.4,1.4L79,69.6C78.9,69.7,78.7,69.7,78.5,69.7z"/>
							<g>
								<path class="st1" d="M23.3,36.9v63.7l55.2-31.9V5L23.3,36.9z M31.6,41.6l38.7-22.3v44.6L31.6,86.3V41.6z"/>
								<path class="st0" d="M23.3,101.1c-0.1,0-0.2,0-0.2-0.1c-0.2-0.1-0.2-0.3-0.2-0.4V36.9c0-0.2,0.1-0.3,0.2-0.4L78.3,4.6
									c0.2-0.1,0.3-0.1,0.5,0C78.9,4.7,79,4.8,79,5v63.7c0,0.2-0.1,0.3-0.2,0.4L23.6,101C23.5,101.1,23.4,101.1,23.3,101.1z
									 M23.8,37.1v62.6L78,68.4V5.9L23.8,37.1z M31.6,86.8c-0.1,0-0.2,0-0.2-0.1c-0.2-0.1-0.2-0.3-0.2-0.4V41.6
									c0-0.2,0.1-0.3,0.2-0.4L70,18.9c0.2-0.1,0.3-0.1,0.5,0s0.2,0.3,0.2,0.4v44.6c0,0.2-0.1,0.3-0.2,0.4L31.8,86.7
									C31.8,86.7,31.7,86.8,31.6,86.8z M32.1,41.9v43.5l37.7-21.7V20.2L32.1,41.9z"/>
							</g>
							<path class="st0" d="M23.3,101.6c-0.2,0-0.3,0-0.5-0.1c-0.3-0.2-0.5-0.5-0.5-0.9V36.9c0-0.4,0.2-0.7,0.5-0.9L78,4.1
								c0.3-0.2,0.7-0.2,1,0c0.3,0.2,0.5,0.5,0.5,0.9v63.7c0,0.4-0.2,0.7-0.5,0.9l-55.2,31.9C23.7,101.5,23.5,101.6,23.3,101.6z
								 M24.3,37.4v61.4l53.2-30.7V6.7L24.3,37.4z M31.6,87.3c-0.2,0-0.3,0-0.5-0.1c-0.3-0.2-0.5-0.5-0.5-0.9V41.6
								c0-0.4,0.2-0.7,0.5-0.9l38.7-22.3c0.3-0.2,0.7-0.2,1,0s0.5,0.5,0.5,0.9v44.6c0,0.4-0.2,0.7-0.5,0.9L32.1,87.1
								C31.9,87.2,31.8,87.3,31.6,87.3z M32.6,42.2v42.3l36.7-21.2V21L32.6,42.2z"/>
							<path class="st0" d="M31.6,87.3c-0.2,0-0.3,0-0.5-0.1c-0.3-0.2-0.5-0.5-0.5-0.9V41.6c0-0.4,0.2-0.7,0.5-0.9l38.7-22.3
								c0.3-0.2,0.7-0.2,1,0s0.5,0.5,0.5,0.9v44.6c0,0.4-0.2,0.7-0.5,0.9L32.1,87.1C31.9,87.2,31.8,87.3,31.6,87.3z M32.6,42.2v42.3
								l36.7-21.2V21L32.6,42.2z"/>
							<g>
								<polygon class="st1" points="70.3,28.8 78.5,24.1 78.5,68.7 39.9,91 39.9,81.5 70.3,63.9 								"/>
								<path class="st0" d="M39.9,92c-0.2,0-0.3,0-0.5-0.1c-0.3-0.2-0.5-0.5-0.5-0.9v-9.5c0-0.4,0.2-0.7,0.5-0.9l29.9-17.3V28.8
									c0-0.4,0.2-0.7,0.5-0.9l8.3-4.8c0.3-0.2,0.7-0.2,1,0s0.5,0.5,0.5,0.9v44.6c0,0.4-0.2,0.7-0.5,0.9L40.4,91.9
									C40.2,92,40,92,39.9,92z M40.9,82.1v7.2l36.7-21.2V25.8l-6.3,3.6v34.5c0,0.4-0.2,0.7-0.5,0.9L40.9,82.1z M70.3,63.9
									L70.3,63.9L70.3,63.9z"/>
							</g>
							<g>
								<polygon class="st2" points="70.3,63.9 78.5,68.7 78.5,68.7 39.9,91 39.9,81.5 								"/>
								<path class="st0" d="M39.9,91.5c-0.1,0-0.2,0-0.2-0.1c-0.2-0.1-0.2-0.3-0.2-0.4v-9.5c0-0.2,0.1-0.3,0.2-0.4L70,63.5
									c0.2-0.1,0.3-0.1,0.5,0l8.3,4.8c0.2,0.1,0.2,0.3,0.2,0.4s-0.1,0.3-0.2,0.4L40.1,91.5C40,91.5,39.9,91.5,39.9,91.5z
									 M40.4,81.8v8.4l37.2-21.5l-7.3-4.2L40.4,81.8z"/>
							</g>
							<path class="st0" d="M39.9,92c-0.2,0-0.3,0-0.5-0.1c-0.3-0.2-0.5-0.5-0.5-0.9v-9.5c0-0.4,0.2-0.7,0.5-0.9l29.9-17.3V28.8
								c0-0.4,0.2-0.7,0.5-0.9l8.3-4.8c0.3-0.2,0.7-0.2,1,0s0.5,0.5,0.5,0.9v44.6c0,0.4-0.2,0.7-0.5,0.9L40.4,91.9
								C40.2,92,40,92,39.9,92z M40.9,82.1v7.2l36.7-21.2V25.8l-6.3,3.6v34.5c0,0.4-0.2,0.7-0.5,0.9L40.9,82.1z M70.3,63.9
								L70.3,63.9L70.3,63.9z"/>
							<path class="st0" d="M78.5,69.7c-0.2,0-0.3,0-0.5-0.1l-8.3-4.8c-0.5-0.3-0.6-0.9-0.4-1.4c0.3-0.5,0.9-0.6,1.4-0.4l8.3,4.8
								c0.5,0.3,0.6,0.9,0.4,1.4C79.2,69.5,78.9,69.7,78.5,69.7z"/>
							<g>
								<path class="st0" d="M31.6,41.6v63.7l55.2-31.9V9.8L31.6,41.6z M39.9,46.4l38.7-22.3v44.6L39.9,91V46.4z"/>
								<path class="st0" d="M31.6,106.3c-0.2,0-0.3,0-0.5-0.1c-0.3-0.2-0.5-0.5-0.5-0.9V41.6c0-0.4,0.2-0.7,0.5-0.9L86.3,8.9
									c0.3-0.2,0.7-0.2,1,0s0.5,0.5,0.5,0.9v63.7c0,0.4-0.2,0.7-0.5,0.9l-55.2,31.9C31.9,106.3,31.8,106.3,31.6,106.3z M32.6,42.2
									v61.4l53.2-30.7V11.5L32.6,42.2z M39.9,92c-0.2,0-0.3,0-0.5-0.1c-0.3-0.2-0.5-0.5-0.5-0.9V46.4c0-0.4,0.2-0.7,0.5-0.9
									L78,23.2c0.3-0.2,0.7-0.2,1,0s0.5,0.5,0.5,0.9v44.6c0,0.4-0.2,0.7-0.5,0.9L40.4,91.9C40.2,92,40,92,39.9,92z M40.9,47v42.3
									l36.7-21.2V25.8L40.9,47z"/>
							</g>
							<path class="st0" d="M31.6,106.3c-0.2,0-0.3,0-0.5-0.1c-0.3-0.2-0.5-0.5-0.5-0.9V41.6c0-0.4,0.2-0.7,0.5-0.9l35-20.2l0,0l0,0
								l0.6-0.4l0,0L86.3,8.9c0.3-0.2,0.7-0.2,1,0s0.5,0.5,0.5,0.9v63.7c0,0.4-0.2,0.7-0.5,0.9l-55.2,31.9
								C31.9,106.3,31.8,106.3,31.6,106.3z M32.6,42.2v61.4l53.2-30.7V11.5L67.7,22l0,0L67,22.3l0,0L32.6,42.2z M39.9,92
								c-0.2,0-0.3,0-0.5-0.1c-0.3-0.2-0.5-0.5-0.5-0.9V46.4c0-0.4,0.2-0.7,0.5-0.9L78,23.2c0.3-0.2,0.7-0.2,1,0s0.5,0.5,0.5,0.9
								v44.6c0,0.4-0.2,0.7-0.5,0.9L40.4,91.9C40.2,92,40,92,39.9,92z M40.9,47v42.3l36.7-21.2V25.8L40.9,47z"/>
							<g>
								<polyline class="st2" points="86.8,9.8 31.6,41.6 23.3,36.9 78.5,5 86.8,9.8 								"/>
								<path class="st0" d="M31.6,42.1c-0.1,0-0.2,0-0.2-0.1l-8.3-4.8c-0.2-0.1-0.2-0.3-0.2-0.4s0.1-0.3,0.2-0.4L78.3,4.6
									c0.2-0.1,0.3-0.1,0.5,0L87,9.3c0.2,0.1,0.2,0.3,0.2,0.4S87.1,10,87,10.1l-55.2,32C31.8,42.1,31.7,42.1,31.6,42.1z
									 M24.3,36.9l7.3,4.2L85.8,9.8l-7.3-4.2L24.3,36.9z"/>
							</g>
							<path class="st0" d="M31.6,42.6c-0.2,0-0.3,0-0.5-0.1l-8.3-4.8c-0.3-0.2-0.5-0.5-0.5-0.9s0.2-0.7,0.5-0.9L78,4.1
								c0.3-0.2,0.7-0.2,1,0l8.3,4.8c0.3,0.2,0.5,0.5,0.5,0.9s-0.2,0.7-0.5,0.9L32.1,42.5C31.9,42.6,31.8,42.6,31.6,42.6z
								 M25.3,36.9l6.3,3.6L84.8,9.8l-6.3-3.6L25.3,36.9z"/>
							<g>
								<polygon class="st1" points="31.6,105.3 23.3,100.6 23.3,36.9 31.6,41.6 								"/>
								<path class="st0" d="M31.6,106.3c-0.2,0-0.3,0-0.5-0.1l-8.3-4.8c-0.3-0.2-0.5-0.5-0.5-0.9V36.9c0-0.4,0.2-0.7,0.5-0.9
									s0.7-0.2,1,0l8.3,4.8c0.3,0.2,0.5,0.5,0.5,0.9v63.7c0,0.4-0.2,0.7-0.5,0.9C31.9,106.3,31.8,106.3,31.6,106.3z M24.3,100
									l6.3,3.6V42.2l-6.3-3.6V100z"/>
							</g>
							<path class="st0" d="M31.6,106.3c-0.2,0-0.3,0-0.5-0.1l-8.3-4.8c-0.3-0.2-0.5-0.5-0.5-0.9V36.9c0-0.4,0.2-0.7,0.5-0.9
								s0.7-0.2,1,0l8.3,4.8c0.3,0.2,0.5,0.5,0.5,0.9v63.7c0,0.4-0.2,0.7-0.5,0.9C31.9,106.3,31.8,106.3,31.6,106.3z M24.3,100
								l6.3,3.6V42.2l-6.3-3.6V100z"/>
						</g>
						<path class="st3" d="M31.6,106.3c-0.2,0-0.3,0-0.5-0.1l-8.3-4.8c-0.3-0.2-0.5-0.5-0.5-0.9V36.9c0-0.4,0.2-0.7,0.5-0.9L78,4.1
							c0.3-0.2,0.7-0.2,1,0l8.3,4.8c0.3,0.2,0.5,0.5,0.5,0.9v63.7c0,0.4-0.2,0.7-0.5,0.9l-55.2,31.9
							C31.9,106.3,31.8,106.3,31.6,106.3z M24.3,100l7.3,4.2l54.2-31.3V10.3l-7.3-4.2L24.3,37.4V100z"/>
						<path class="st3" d="M39.9,82.5c-0.2,0-0.3,0-0.5-0.1c-0.3-0.2-0.5-0.5-0.5-0.9V46.4c0-0.4,0.2-0.7,0.5-0.9L69.8,28
							c0.3-0.2,0.7-0.2,1,0s0.5,0.5,0.5,0.9V64c0,0.4-0.2,0.7-0.5,0.9L40.4,82.4C40.2,82.5,40,82.5,39.9,82.5z M40.9,47v32.8
							l28.4-16.4V30.6L40.9,47z M70.3,63.9L70.3,63.9L70.3,63.9z"/>
					</g>
					<g>
						<g>
							<polygon class="st4" points="93.3,64.6 60.3,59.8 59.4,110.3 69.6,96.5 81.7,117.5 95.1,99.4 83,78.4 							"/>
							<path class="st2" d="M81.7,118.5L81.7,118.5c-0.4,0-0.7-0.2-0.9-0.5L69.5,98.3l-9.3,12.6c-0.3,0.4-0.7,0.5-1.1,0.4
								s-0.7-0.5-0.7-1l1-50.5c0-0.3,0.1-0.6,0.4-0.7c0.2-0.2,0.5-0.3,0.8-0.2l32.9,4.9c0.3,0.1,0.6,0.3,0.8,0.6s0.1,0.7-0.1,1
								l-9.8,13.3L96,98.9c0.2,0.3,0.2,0.8-0.1,1.1l-13.4,18.1C82.3,118.4,82,118.5,81.7,118.5z M69.6,95.5L69.6,95.5
								c0.4,0,0.7,0.2,0.9,0.5l11.4,19.7L94,99.3L82.2,78.9c-0.2-0.3-0.2-0.8,0.1-1.1l9.2-12.4L61.3,61l-0.9,46.3L68.8,96
								C69,95.7,69.3,95.5,69.6,95.5z"/>
						</g>
						<g>
							<polygon class="st4" points="102.8,70.1 69.8,65.3 68.9,115.8 79.1,102 91.2,123 104.7,104.9 92.6,83.9 							"/>
							<path class="st2" d="M91.2,124L91.2,124c-0.4,0-0.7-0.2-0.9-0.5L79,103.8l-9.3,12.6c-0.3,0.4-0.7,0.5-1.1,0.4s-0.7-0.5-0.7-1
								l1-50.5c0-0.3,0.1-0.6,0.4-0.7c0.2-0.2,0.5-0.3,0.8-0.2l32.9,4.9c0.3,0.1,0.6,0.3,0.8,0.6s0.1,0.7-0.1,1L93.7,84l11.8,20.4
								c0.2,0.3,0.2,0.8-0.1,1.1L92,123.6C91.8,123.9,91.5,124,91.2,124z M79.1,101L79.1,101c0.4,0,0.7,0.2,0.9,0.5l11.4,19.7
								l12.1-16.4L91.7,84.4c-0.2-0.3-0.2-0.8,0.1-1.1l9.2-12.4l-30.2-4.4l-0.9,46.3l8.4-11.3C78.5,101.2,78.8,101,79.1,101z"/>
						</g>
						<g>
							<polygon class="st5" points="91.2,123 81.7,117.5 75.5,106.8 79.1,102 							"/>
							<path class="st2" d="M91.2,124c-0.2,0-0.3,0-0.5-0.1l-9.5-5.5c-0.2-0.1-0.3-0.2-0.4-0.4l-6.2-10.7c-0.2-0.3-0.2-0.8,0.1-1.1
								l3.6-4.8c0.2-0.3,0.5-0.4,0.9-0.4c0.3,0,0.6,0.2,0.8,0.5l12.1,21c0.2,0.4,0.2,0.9-0.2,1.2C91.7,123.9,91.5,124,91.2,124z
								 M82.4,116.8l6.1,3.5L79,103.8l-2.3,3.1L82.4,116.8z"/>
						</g>
						<g>
							<polygon class="st5" points="68.9,115.8 59.4,110.3 60.3,59.8 69.8,65.3 							"/>
							<path class="st2" d="M68.9,116.8c-0.2,0-0.3,0-0.5-0.1l-9.5-5.5c-0.3-0.2-0.5-0.5-0.5-0.9l1-50.5c0-0.4,0.2-0.7,0.5-0.9
								s0.7-0.2,1,0l9.5,5.5c0.3,0.2,0.5,0.5,0.5,0.9l-1,50.5c0,0.4-0.2,0.7-0.5,0.9C69.2,116.8,69,116.8,68.9,116.8z M60.4,109.7
								l7.5,4.4l0.9-48.2l-7.5-4.4L60.4,109.7z"/>
						</g>
						<g>
							<polygon class="st5" points="102.8,70.1 93.3,64.6 60.3,59.8 69.8,65.3 							"/>
							<path class="st2" d="M102.8,71.1L102.8,71.1l-33-4.9c-0.1,0-0.2-0.1-0.4-0.1l-9.5-5.5c-0.4-0.2-0.6-0.7-0.4-1.2
								c0.2-0.5,0.6-0.7,1.1-0.7l32.9,4.9c0.1,0,0.2,0.1,0.4,0.1l9.5,5.5c0.4,0.2,0.6,0.7,0.4,1.2C103.6,70.9,103.2,71.1,102.8,71.1
								z M70.2,64.3l27.6,4.1L93,65.6l-27.6-4.1L70.2,64.3z"/>
						</g>
						<path class="st6" d="M91.2,124c-0.2,0-0.3,0-0.5-0.1l-9.5-5.5c-0.2-0.1-0.3-0.2-0.4-0.4l-5.4-9.4l-5.8,7.8
							c-0.3,0.4-0.9,0.5-1.3,0.3l-9.5-5.5c-0.3-0.2-0.5-0.5-0.5-0.9l1-50.5c0-0.3,0.1-0.6,0.4-0.7c0.2-0.2,0.5-0.3,0.8-0.2l32.9,4.9
							c0.1,0,0.2,0.1,0.4,0.1l9.5,5.5c0.2,0.1,0.4,0.4,0.5,0.7c0.1,0.3,0,0.6-0.2,0.8L93.7,84l11.8,20.4c0.2,0.3,0.2,0.8-0.1,1.1
							L92,123.6C91.8,123.9,91.5,124,91.2,124z M82.4,116.8l8.5,4.9l12.5-16.9L91.7,84.4c-0.2-0.3-0.2-0.8,0.1-1.1l9.6-12.9L93,65.6
							l-31.6-4.7l-0.9,48.8l8.2,4.8l6.1-8.3c0.2-0.3,0.5-0.4,0.9-0.4c0.3,0,0.6,0.2,0.8,0.5L82.4,116.8z"/>
					</g>
				</g>
				<rect x="4" y="4" class="st7" width="120" height="120"/>
				<rect x="4" y="4" class="st7" width="120" height="120"/>
			</g>
		</g>
	</g>
	<g>
		<rect class="st7" width="128" height="128"/>
	</g>
</g>
</svg>
