<?xml version="1.0" encoding="utf-8"?>
<!-- Generator: Adobe Illustrator 24.1.0, SVG Export Plug-In . SVG Version: 6.00 Build 0)  -->
<svg version="1.1" id="Layer_1" xmlns="http://www.w3.org/2000/svg" xmlns:xlink="http://www.w3.org/1999/xlink" x="0px" y="0px"
	 viewBox="0 0 128 128" style="enable-background:new 0 0 128 128;" xml:space="preserve">
<style type="text/css">
	.st0{fill:#98B9EA;}
	.st1{fill:#DEEAFF;}
	.st2{fill:#FFFFFF;}
	.st3{fill:#436DB5;}
	.st4{clip-path:url(#SVGID_2_);}
	.st5{fill:#DFEAB0;}
	.st6{fill:#C4D36C;}
	.st7{fill:#A7B23B;}
	.st8{fill:none;}
</style>
<g id="Layer_1_1_">
</g>
<g>
	<g id="Layer_2_1_">
		<g id="New_Icon_Set_1_">
			<g>
				<g>
					<g>
						<g>
							<g>
								<path class="st0" d="M25.5,69.1v46.1c0,1.1,0.7,2.2,2.2,3.1l6,3.4c2.9,1.7,7.7,1.7,10.7,0l29.1-16.8c1.5-0.8,2.2-2,2.2-3.1
									v-46L25.5,69.1z"/>
								<path class="st1" d="M38.9,65.6l-13.4,3.6v46.1c0,1.1,0.7,2.2,2.2,3.1l6,3.4c1.4,0.8,3.3,1.3,5.2,1.3
									C38.9,123.1,38.9,65.6,38.9,65.6z"/>
								<g>
									<path class="st2" d="M73.4,58.9L44.3,75.7c-2.9,1.7-7.7,1.7-10.7,0l-6-3.4c-2.9-1.7-2.9-4.5,0-6.2l29.1-16.8
										c2.9-1.7,7.7-1.7,10.7,0l6,3.4C76.4,54.4,76.4,57.2,73.4,58.9z"/>
									<path class="st0" d="M39,77.9c-2.1,0-4.2-0.5-5.8-1.4l-6-3.4c-1.7-1-2.7-2.4-2.7-3.9s1-2.9,2.7-3.9l29.1-16.8
										c3.3-1.9,8.4-1.9,11.7,0l6,3.4c1.7,1,2.7,2.4,2.7,3.9s-1,2.9-2.7,3.9L44.8,76.5C43.2,77.5,41.1,77.9,39,77.9z M62.1,49
										c-1.8,0-3.5,0.4-4.8,1.1L28.2,66.9c-1.1,0.6-1.7,1.4-1.7,2.2c0,0.8,0.6,1.6,1.7,2.2l6,3.4c2.6,1.5,7,1.5,9.7,0l29-16.7l0,0
										c1.1-0.6,1.7-1.4,1.7-2.2s-0.6-1.6-1.7-2.2l-6-3.4C65.6,49.4,63.9,49,62.1,49z"/>
								</g>
							</g>
						</g>
						<g>
							<g>
								<path class="st3" d="M62.9,83.9c0-3-1.8-4.4-4.1-3.1c-2.2,1.3-4.1,4.8-4.1,7.7c0,2,0.8,3.2,2,3.5L56,102.5l5.8-3.4L61,89.7
									C62.1,88,62.9,85.9,62.9,83.9z"/>
								<path class="st3" d="M56,103.5c-0.2,0-0.4-0.1-0.5-0.2c-0.3-0.2-0.5-0.6-0.5-0.9l0.8-9.7c-1.2-0.7-1.9-2.2-1.9-4.1
									c0-3.4,2-7.1,4.6-8.6c1.3-0.7,2.6-0.8,3.7-0.2c1.2,0.7,1.9,2.2,1.9,4.1c0,2-0.7,4.2-1.9,6L63,99c0,0.4-0.2,0.8-0.5,1
									l-5.8,3.4C56.3,103.4,56.1,103.5,56,103.5z M60.5,81.3c-0.4,0-0.8,0.2-1.1,0.4c-1.9,1.1-3.6,4.3-3.6,6.9
									c0,1.4,0.5,2.3,1.2,2.5c0.5,0.1,0.8,0.6,0.8,1.1l-0.7,8.5l3.6-2.1L60,89.7c0-0.2,0-0.5,0.2-0.7c1.1-1.5,1.8-3.5,1.8-5.2
									c0-1.2-0.3-2.1-0.9-2.4C60.9,81.4,60.7,81.3,60.5,81.3z"/>
							</g>
						</g>
						<path class="st3" d="M39,124c-2.1,0-4.2-0.5-5.8-1.4l-6-3.4c-1.7-1-2.7-2.4-2.7-3.9V69.1c0-1.5,1-2.9,2.7-3.9l29.1-16.8
							c3.3-1.9,8.4-1.9,11.7,0l6,3.4c1.7,1,2.7,2.4,2.7,3.9v46.1c0,1.5-1,2.9-2.7,3.9l-29.1,16.8C43.2,123.5,41.1,124,39,124z
							 M62.1,49c-1.8,0-3.5,0.4-4.8,1.1L28.2,66.9c-1.1,0.6-1.7,1.4-1.7,2.2v46.1c0,0.8,0.6,1.6,1.7,2.2l6,3.4c2.6,1.5,7,1.5,9.7,0
							L73,104c1.1-0.6,1.7-1.4,1.7-2.2v-46c0-0.8-0.6-1.6-1.7-2.2l0,0l-6-3.4C65.6,49.4,63.9,49,62.1,49z"/>
						<g>
							<g>
								<path class="st1" d="M85.1,6.5c-3.9-2.2-8.7-2-13.3,0.6c-8.1,4.7-14.5,16.7-14.5,27.3v20.4l0,0l0,0c0,1.8,2.5,3.2,5.6,3.2
									s5.6-1.4,5.6-3.2l0,0V34.4c0-6.6,4.2-14.8,8.9-17.5c1.2-0.7,1.9-0.7,2.1-0.6c0.4,0.2,1.2,1.7,1.2,4.6v20.4l0,0
									c0,1.8,2.5,3.2,5.6,3.2s5.6-1.4,5.6-3.2l0,0l0,0V20.9C92,14.3,89.5,9,85.1,6.5z"/>
								<path class="st3" d="M62.9,59c-3.7,0-6.6-1.9-6.6-4.2V34.4c0-10.9,6.6-23.3,15-28.1c4.9-2.8,10.1-3,14.3-0.6l0,0
									c4.7,2.7,7.4,8.2,7.4,15.2v20.4c0,2.4-2.9,4.2-6.6,4.2s-6.6-1.9-6.6-4.2V20.9c0-2.1-0.4-3.2-0.7-3.6
									c-0.2,0.1-0.6,0.2-1.1,0.5c-4.4,2.5-8.4,10.5-8.4,16.7v20.4l0,0C69.5,57.2,66.6,59,62.9,59z M79.3,6c-2.3,0-4.7,0.7-7,2
									c-7.9,4.5-14,16.1-14,26.4v20.4c0,1.1,2,2.2,4.6,2.2s4.6-1.2,4.6-2.2l0,0V34.4c0-6.9,4.4-15.5,9.4-18.4
									c1.3-0.7,2.4-1,3.1-0.6c0.9,0.5,1.8,2.4,1.8,5.5v20.4c0,1.1,2,2.2,4.6,2.2s4.6-1.2,4.6-2.2V20.9c0-6.2-2.3-11.1-6.4-13.5
									l0,0C83,6.5,81.2,6,79.3,6z"/>
								<path class="st0" d="M86.3,43.4c-0.6,0-1-0.4-1-1s0.4-1,1-1c1.3,0,2.1-0.4,2.5-0.6v-20c0-2.6-0.4-4.9-1.3-6.9
									c-0.2-0.5,0-1.1,0.5-1.3s1.1,0,1.3,0.5c0.9,2.2,1.4,4.8,1.4,7.6v20.4c0,0.1,0,0.3-0.1,0.4C90.4,42.5,88.6,43.4,86.3,43.4z
									 M89.9,41.3L89.9,41.3L89.9,41.3z M89.1,40.7L89.1,40.7L89.1,40.7z"/>
								<path class="st2" d="M59.4,53.6L59.4,53.6c-0.6,0-1-0.4-1-1V34.4c0-7.4,3.1-15.5,8.2-21.4c0.4-0.4,1-0.5,1.4-0.1
									s0.5,1,0.1,1.4c-4.7,5.4-7.7,13.3-7.7,20v18.2C60.4,53.2,59.9,53.6,59.4,53.6z"/>
								<path class="st0" d="M62.9,56.9c-0.6,0-1-0.4-1-1s0.4-1,1-1c1.3,0,2.1-0.4,2.5-0.6V34.4c0-3.1,0.8-6.7,2.3-10.1
									c0.2-0.5,0.8-0.7,1.3-0.5s0.7,0.8,0.5,1.3c-1.4,3.1-2.1,6.4-2.1,9.3v20.4c0,0.1,0,0.3-0.1,0.4C67,56,65.2,56.9,62.9,56.9z
									 M65.6,54.2L65.6,54.2L65.6,54.2z"/>
								<path class="st2" d="M82.8,40.1L82.8,40.1c-0.6,0-1-0.4-1-1V20.9c0-3.1-0.9-5.1-1.8-5.6c-0.7-0.4-1.9-0.1-3.2,0.6
									c-1,0.6-2.1,1.4-3,2.5c-0.4,0.4-1,0.4-1.4,0s-0.4-1,0-1.4c1.1-1.2,2.3-2.2,3.5-2.9c2-1.1,3.8-1.4,5.1-0.6
									c1.8,1,2.8,3.7,2.8,7.3V39C83.8,39.7,83.4,40.1,82.8,40.1z"/>
							</g>
							<path class="st0" d="M34.2,68.3L34.2,68.3c0-1.7,2.3-3,5.2-3s5.2,1.4,5.2,3l0,0l0,0l0,0c0,1.7-2.3,3-5.2,3
								C36.6,71.4,34.2,70,34.2,68.3L34.2,68.3L34.2,68.3z"/>
							<path class="st3" d="M39.5,72.4c-3.5,0-6.2-1.8-6.2-4l0,0c0-2.3,2.7-4,6.2-4s6.2,1.8,6.2,4l0,0C45.7,70.6,43,72.4,39.5,72.4z
								 M34.2,68.3h1c0,1,1.8,2,4.2,2s4.2-1.1,4.2-2c0-1-1.8-2-4.2-2s-4.2,1.1-4.2,2H34.2z"/>
							<path class="st3" d="M39.5,68.3c-1.9,0-3.6,0.6-4.5,1.5c0.9,0.9,2.6,1.5,4.5,1.5s3.6-0.6,4.5-1.5
								C43.1,68.9,41.4,68.3,39.5,68.3z"/>
						</g>
					</g>
					<g>
						<g>
							<defs>
								<path id="SVGID_1_" d="M102.5,78.2c0,0-26.6-4-30.5-4s-10.1-1.3-11.5,1.1c-0.7,1.2-1,3.4-1.2,5.4c-0.1,0.1-0.3,0.1-0.4,0.2
									c-2.2,1.3-4,4.7-4,7.7c0,2,0.8,3.2,2,3.5L56,102.4l2.9-1.7V111c0,0-4.8,7.2,10.4,8.9c15.2,1.7,33.2-2.4,33.2-2.4V78.2z"/>
							</defs>
							<clipPath id="SVGID_2_">
								<use xlink:href="#SVGID_1_"  style="overflow:visible;"/>
							</clipPath>
							<g class="st4">
								<g>
									<g>
										<g>
											<path class="st1" d="M51.2,93.1c-0.2-0.3-0.3-0.7-0.3-1.1v-7.6c0-1.2,1-2.2,2.2-2.2s2.2,1,2.2,2.2V92
												c0,1.2-1,2.2-2.2,2.2C52.3,94.2,51.6,93.8,51.2,93.1z"/>
											<path class="st0" d="M53.1,95.2c-1.1,0-2.2-0.6-2.7-1.6l0,0c-0.3-0.5-0.4-1-0.4-1.6v-7.6c0-1.7,1.4-3.2,3.2-3.2l0,0
												c0.8,0,1.6,0.3,2.2,0.9c0.6,0.6,0.9,1.4,0.9,2.2v7.6C56.3,93.8,54.8,95.2,53.1,95.2L53.1,95.2z M52.1,92.6
												c0.2,0.4,0.6,0.6,1,0.6l0,0c0.6,0,1.2-0.5,1.2-1.2v-7.6c0-0.3-0.1-0.6-0.3-0.8s-0.5-0.3-0.8-0.3l0,0
												c-0.6,0-1.2,0.5-1.2,1.2v7.6C51.9,92.3,52,92.5,52.1,92.6z"/>
										</g>
										<path class="st2" d="M52.3,92.7c-0.6,0-1-0.4-1-1v-5.9c0-0.6,0.4-1,1-1s1,0.4,1,1v5.9C53.3,92.3,52.8,92.7,52.3,92.7z"/>
									</g>
									<g>
										<path class="st1" d="M43.3,92.3C43.1,92,43,91.6,43,91.2V79.1c0-1.2,1-2.2,2.2-2.2s2.2,1,2.2,2.2v12.1
											c0,1.2-1,2.2-2.2,2.2C44.4,93.4,43.7,93,43.3,92.3z"/>
										<path class="st0" d="M45.2,94.4c-1.1,0-2.2-0.6-2.7-1.6l0,0c-0.3-0.5-0.4-1-0.4-1.6V79.1c0-1.7,1.4-3.2,3.2-3.2
											c0.8,0,1.6,0.3,2.2,0.9c0.6,0.6,0.9,1.4,0.9,2.2v12.1C48.4,93,47,94.4,45.2,94.4z M44.2,91.8c0.2,0.4,0.6,0.6,1,0.6
											c0.6,0,1.2-0.5,1.2-1.2V79.1c0-0.3-0.1-0.6-0.3-0.8c-0.2-0.2-0.5-0.3-0.8-0.3c-0.6,0-1.2,0.5-1.2,1.2v12.1
											C44.1,91.4,44.1,91.6,44.2,91.8L44.2,91.8z"/>
									</g>
									<path class="st2" d="M44.4,91.9c-0.6,0-1-0.4-1-1V80.5c0-0.6,0.4-1,1-1s1,0.4,1,1v10.4C45.4,91.5,45,91.9,44.4,91.9z"/>
									<path class="st1" d="M77.7,101.2c-0.6,0-1.2-0.2-1.8-0.5L40.4,80.2c-1.7-1-2.3-3.2-1.3-4.9c1-1.7,3.2-2.3,4.9-1.3
										l35.5,20.5c1.7,1,2.3,3.2,1.3,4.9C80.1,100.6,78.9,101.2,77.7,101.2z"/>
									<path class="st2" d="M77.6,97.4c-0.3,0-0.5-0.1-0.7-0.2l-34-19.6c-0.7-0.4-1-1.3-0.5-2c0.4-0.7,1.3-1,2-0.5l34,19.6
										c0.7,0.4,1,1.3,0.5,2C78.6,97.1,78.1,97.4,77.6,97.4z"/>
									<path class="st0" d="M79.2,103.1c-0.8,0-1.6-0.2-2.3-0.6l-37-21.4c-1.1-0.6-1.8-1.6-2.1-2.8s-0.2-2.4,0.5-3.5
										c0.6-1.1,1.6-1.8,2.8-2.1c1.2-0.3,2.4-0.2,3.5,0.5l37,21.4c1.1,0.6,1.8,1.6,2.1,2.8c0.3,1.2,0.2,2.4-0.5,3.5
										C82.3,102.2,80.8,103.1,79.2,103.1z M42.2,74.6c-0.2,0-0.4,0-0.7,0.1c-0.7,0.2-1.2,0.6-1.6,1.2c-0.3,0.6-0.4,1.3-0.3,1.9
										s0.6,1.2,1.2,1.6l37,21.4c1.2,0.7,2.8,0.2,3.5-0.9c0.3-0.6,0.4-1.3,0.3-1.9c-0.2-0.7-0.6-1.2-1.2-1.6L43.4,75
										C43,74.7,42.6,74.6,42.2,74.6z"/>
								</g>
								<g>
									<g>
										<g>
											<path class="st5" d="M51.2,93.1c-0.2-0.3-0.3-0.7-0.3-1.1v-7.6c0-1.2,1-2.2,2.2-2.2s2.2,1,2.2,2.2V92
												c0,1.2-1,2.2-2.2,2.2C52.3,94.2,51.6,93.8,51.2,93.1z"/>
											<path class="st6" d="M53.1,95.2c-1.1,0-2.2-0.6-2.7-1.6l0,0c-0.3-0.5-0.4-1-0.4-1.6v-7.6c0-1.7,1.4-3.2,3.2-3.2l0,0
												c0.8,0,1.6,0.3,2.2,0.9c0.6,0.6,0.9,1.4,0.9,2.2v7.6C56.3,93.8,54.8,95.2,53.1,95.2L53.1,95.2z M52.1,92.6
												c0.2,0.4,0.6,0.6,1,0.6l0,0c0.6,0,1.2-0.5,1.2-1.2v-7.6c0-0.3-0.1-0.6-0.3-0.8s-0.5-0.3-0.8-0.3l0,0
												c-0.6,0-1.2,0.5-1.2,1.2v7.6C51.9,92.3,52,92.5,52.1,92.6z"/>
										</g>
										<path class="st2" d="M52.3,92.7c-0.6,0-1-0.4-1-1v-5.9c0-0.6,0.4-1,1-1s1,0.4,1,1v5.9C53.3,92.3,52.8,92.7,52.3,92.7z"/>
									</g>
									<g>
										<path class="st5" d="M43.3,92.3C43.1,92,43,91.6,43,91.2V79.1c0-1.2,1-2.2,2.2-2.2s2.2,1,2.2,2.2v12.1
											c0,1.2-1,2.2-2.2,2.2C44.4,93.4,43.7,93,43.3,92.3z"/>
										<path class="st6" d="M45.2,94.4c-1.1,0-2.2-0.6-2.7-1.6l0,0c-0.3-0.5-0.4-1-0.4-1.6V79.1c0-1.7,1.4-3.2,3.2-3.2
											c0.8,0,1.6,0.3,2.2,0.9c0.6,0.6,0.9,1.4,0.9,2.2v12.1C48.4,93,47,94.4,45.2,94.4z M44.2,91.8c0.2,0.4,0.6,0.6,1,0.6
											c0.6,0,1.2-0.5,1.2-1.2V79.1c0-0.3-0.1-0.6-0.3-0.8c-0.2-0.2-0.5-0.3-0.8-0.3c-0.6,0-1.2,0.5-1.2,1.2v12.1
											C44.1,91.4,44.1,91.6,44.2,91.8L44.2,91.8z"/>
									</g>
									<path class="st2" d="M44.4,91.9c-0.6,0-1-0.4-1-1V80.5c0-0.6,0.4-1,1-1s1,0.4,1,1v10.4C45.4,91.5,45,91.9,44.4,91.9z"/>
									<g>
										<path class="st5" d="M77.7,101.2c-0.6,0-1.2-0.2-1.8-0.5L40.4,80.2c-1.7-1-2.3-3.2-1.3-4.9c1-1.7,3.2-2.3,4.9-1.3
											l35.5,20.5c1.7,1,2.3,3.2,1.3,4.9C80.1,100.6,78.9,101.2,77.7,101.2z"/>
										<path class="st6" d="M77.7,102.2c-0.8,0-1.6-0.2-2.3-0.6L39.9,81.1c-1.1-0.6-1.8-1.6-2.1-2.8s-0.2-2.4,0.5-3.5
											c0.6-1.1,1.6-1.8,2.8-2.1c1.2-0.3,2.4-0.2,3.5,0.5L80,93.7c1.1,0.6,1.8,1.6,2.1,2.8s0.2,2.4-0.5,3.5
											C80.8,101.4,79.3,102.2,77.7,102.2z M42.2,74.6c-0.2,0-0.4,0-0.7,0.1c-0.7,0.2-1.2,0.6-1.6,1.2c-0.3,0.6-0.4,1.3-0.3,1.9
											s0.6,1.2,1.2,1.6l35.5,20.5c1.2,0.7,2.8,0.2,3.5-0.9c0.3-0.6,0.4-1.3,0.3-1.9s-0.6-1.2-1.2-1.6L43.4,75
											C43,74.7,42.6,74.6,42.2,74.6z"/>
									</g>
									<path class="st2" d="M77.6,97.4c-0.3,0-0.5-0.1-0.7-0.2l-34-19.6c-0.7-0.4-1-1.3-0.5-2c0.4-0.7,1.3-1,2-0.5l34,19.6
										c0.7,0.4,1,1.3,0.5,2C78.6,97.1,78.1,97.4,77.6,97.4z"/>
									<path class="st6" d="M79.2,103.1c-0.8,0-1.6-0.2-2.3-0.6l-37-21.4c-1.1-0.6-1.8-1.6-2.1-2.8s-0.2-2.4,0.5-3.5
										c0.6-1.1,1.6-1.8,2.8-2.1c1.2-0.3,2.4-0.2,3.5,0.5l37,21.4c1.1,0.6,1.8,1.6,2.1,2.8c0.3,1.2,0.2,2.4-0.5,3.5
										C82.3,102.2,80.8,103.1,79.2,103.1z M42.2,74.6c-0.2,0-0.4,0-0.7,0.1c-0.7,0.2-1.2,0.6-1.6,1.2c-0.3,0.6-0.4,1.3-0.3,1.9
										s0.6,1.2,1.2,1.6l37,21.4c1.2,0.7,2.8,0.2,3.5-0.9c0.3-0.6,0.4-1.3,0.3-1.9c-0.2-0.7-0.6-1.2-1.2-1.6L43.4,75
										C43,74.7,42.6,74.6,42.2,74.6z"/>
								</g>
								<g>
									<path class="st2" d="M101.5,105c0-8.7-5.3-18.8-11.8-22.6c-3-1.7-5.7-1.8-7.7-0.6l0,0l-5.7,3.3l1.1,1.7
										c-0.5,1.5-0.9,3.3-0.9,5.4c0,8.7,5.3,18.8,11.8,22.6c1,0.6,1.9,0.9,2.8,1.2l0.6,2l5.7-3.3l0,0
										C99.9,113.1,101.5,109.8,101.5,105z"/>
									<path class="st5" d="M101.5,105c0-6.3-2.8-13.4-6.8-18.2c1.5,1.8,2.8,3.9,3.9,6.2l-10.3,6c0.9,1.8,1.4,3.8,1.4,5.7
										c0,4.2-2.5,6.1-5.7,4.3c-1.7-1-3.2-2.9-4.3-5.1l-0.3,0.2c2.2,4.6,5.4,8.5,8.9,10.6c1,0.6,1.9,0.9,2.8,1.2l0.6,2l5.7-3.3
										l0,0C99.9,113.1,101.5,109.8,101.5,105z"/>
									<g>
										<path class="st5" d="M84,85.7c-6.5-3.7-11.8,0.3-11.8,9s5.3,18.8,11.8,22.6c6.5,3.8,11.8-0.2,11.8-8.9
											C95.8,99.6,90.5,89.5,84,85.7z"/>
										<path class="st6" d="M88.7,119.6c-1.6,0-3.4-0.5-5.2-1.6c-6.8-3.9-12.3-14.4-12.3-23.4c0-4.9,1.7-8.7,4.6-10.4
											c2.5-1.4,5.6-1.2,8.7,0.6l0,0c6.8,3.9,12.3,14.4,12.3,23.4c0,4.9-1.7,8.7-4.6,10.4C91.2,119.3,90,119.6,88.7,119.6z
											 M79.3,85.3c-0.9,0-1.8,0.2-2.5,0.7c-2.3,1.3-3.6,4.5-3.6,8.7c0,8.4,5.1,18.1,11.3,21.7c2.5,1.5,4.9,1.7,6.7,0.6
											c2.3-1.3,3.6-4.5,3.6-8.7c0-8.4-5.1-18.1-11.3-21.7C82,85.8,80.6,85.3,79.3,85.3z"/>
									</g>
									<path class="st6" d="M84,109c-3.1-1.8-5.6-6.6-5.6-10.8c0-4.2,2.5-6.1,5.6-4.3c3.1,1.8,5.6,6.6,5.6,10.8
										C89.7,108.9,87.1,110.8,84,109z"/>
								</g>
								<path class="st7" d="M88.7,119.6c-1.6,0-3.4-0.5-5.2-1.5c-5.5-3.2-10.3-10.8-11.8-18.6l-15.4-8.9v1.5c0,1.7-1.4,3.2-3.2,3.2
									c-1.1,0-2.2-0.6-2.7-1.6c-0.3-0.5-0.4-1-0.4-1.6v-5.2L48.4,86v5.2c0,1.7-1.4,3.2-3.2,3.2l0,0c-1.1,0-2.2-0.6-2.7-1.6
									c-0.3-0.5-0.4-1-0.4-1.6v-8.9l-2.2-1.2c-1.1-0.6-1.8-1.6-2.1-2.8s-0.2-2.4,0.5-3.5c0.6-1.1,1.6-1.8,2.8-2.1
									c1.2-0.3,2.4-0.2,3.5,0.5L72,89.1c0.8-2.2,2-3.9,3.7-4.8c0,0,0.1,0,0.1-0.1l5.7-3.3h0.1c2.5-1.4,5.5-1.1,8.6,0.7
									c1.8,1.1,3.6,2.6,5.3,4.6c0,0,0,0,0.1,0.1c0.2,0.3,0.5,0.6,0.7,0.9c0.3,0.3,0.5,0.7,0.7,1c0.5,0.7,0.9,1.4,1.3,2.1l0.1,0.1
									c0.4,0.7,0.8,1.4,1.1,2.2v0.1l0,0v0.1c0.3,0.7,0.7,1.5,0.9,2.2l0.1,0.1c0.2,0.4,0.3,0.8,0.4,1.1v0.1
									c0.1,0.4,0.2,0.8,0.4,1.1v0.2c0.1,0.4,0.2,0.7,0.3,1l0.1,0.2c0.1,0.4,0.2,0.7,0.2,1.1v0.1c0.1,0.4,0.1,0.7,0.2,1v0.3
									c0.1,0.4,0.1,0.7,0.1,1.1v0.1c0,0.4,0.1,0.7,0.1,1v0.3c0,0.4,0,0.7,0,1.1c0,1.7-0.2,3.3-0.6,4.7c0,0.2-0.1,0.3-0.2,0.5
									c-0.2,0.6-0.5,1.2-0.7,1.8c-0.2,0.3-0.4,0.6-0.5,0.9l0,0c-0.7,1-1.5,1.8-2.5,2.4c0,0-0.1,0-0.1,0.1l-5.7,3.3h-0.1
									C91.1,119.4,89.9,119.6,88.7,119.6z M55.3,87.8c0.2,0,0.3,0,0.5,0.1l17.3,10c0.3,0.1,0.4,0.4,0.5,0.7
									c1.3,7.5,5.8,14.7,11,17.7c2.5,1.5,4.9,1.7,6.7,0.6h0.1l5.5-3.2c0,0,0.1,0,0.1-0.1c0.7-0.4,1.4-1,1.9-1.8
									c0.1-0.2,0.3-0.5,0.4-0.7c0.2-0.5,0.4-1,0.6-1.5c0-0.1,0.1-0.3,0.1-0.4c0.4-1.3,0.5-2.7,0.5-4.2c0-0.3,0-0.7,0-1v-0.3
									c0-0.3,0-0.6-0.1-0.9l1-0.2l-1,0.1c0-0.3-0.1-0.7-0.1-1v-0.2c-0.1-0.4-0.1-0.7-0.2-1v-0.1c-0.1-0.4-0.2-0.8-0.3-1.1v-0.1
									c-0.1-0.4-0.2-0.7-0.3-1L99.4,98c-0.1-0.4-0.2-0.7-0.3-1.1l0.9-0.4l-0.9,0.3c-0.1-0.3-0.2-0.6-0.3-1l-0.1-0.2
									c-0.3-0.7-0.6-1.4-0.9-2.1v-0.1l0,0l0,0c-0.4-0.7-0.7-1.4-1.1-2.1l-0.1-0.1c-0.4-0.7-0.8-1.3-1.2-1.9
									c-0.2-0.4-0.5-0.7-0.7-0.9c-0.2-0.3-0.5-0.6-0.7-0.9l0,0c-1.5-1.8-3.1-3.2-4.7-4.1c-2.5-1.5-4.9-1.7-6.7-0.6h-0.1L77,86
									c0,0-0.1,0-0.1,0.1c-1.5,0.9-2.6,2.6-3.2,4.9c-0.1,0.3-0.3,0.6-0.6,0.7c-0.3,0.1-0.6,0.1-0.9-0.1L43.4,75
									c-0.6-0.3-1.3-0.4-1.9-0.3c-0.7,0.2-1.2,0.6-1.6,1.2c-0.3,0.6-0.4,1.3-0.3,1.9s0.6,1.2,1.2,1.6l2.7,1.5
									c0.3,0.2,0.5,0.5,0.5,0.9v9.4c0,0.2,0.1,0.4,0.2,0.6c0.2,0.4,0.6,0.6,1,0.6l0,0c0.6,0,1.2-0.5,1.2-1.2v-6.9
									c0-0.4,0.2-0.7,0.5-0.9c0.3-0.2,0.7-0.2,1,0l3.5,2c0.3,0.2,0.5,0.5,0.5,0.9V92c0,0.2,0.1,0.4,0.2,0.6c0.2,0.4,0.6,0.6,1,0.6
									c0.6,0,1.2-0.5,1.2-1.2v-3.2c0-0.4,0.2-0.7,0.5-0.9C54.9,87.9,55.1,87.8,55.3,87.8z M99.7,112.4L99.7,112.4L99.7,112.4z"/>
							</g>
						</g>
					</g>
					<path class="st3" d="M56,103.5C55.9,103.5,55.9,103.5,56,103.5c-0.6,0-1-0.5-1-1.1l0.8-9.7c-1.2-0.7-1.9-2.2-1.9-4.1
						c0-3.4,2-7.1,4.6-8.6c1-0.6,2-0.8,2.9-0.5c0.5,0.1,0.9,0.7,0.7,1.2c-0.1,0.5-0.7,0.9-1.2,0.7c-0.4-0.1-0.9,0-1.4,0.3
						c-1.9,1.1-3.6,4.3-3.6,6.9c0,1.4,0.5,2.3,1.2,2.5c0.5,0.1,0.8,0.6,0.8,1.1L57,102.6C56.9,103.1,56.5,103.5,56,103.5z"/>
				</g>
				<rect x="4" y="4" class="st8" width="120" height="120"/>
				<rect x="4" y="4" class="st8" width="120" height="120"/>
			</g>
		</g>
	</g>
	<g>
		<rect class="st8" width="128" height="128"/>
	</g>
</g>
</svg>
