<?xml version="1.0" encoding="utf-8"?>
<!-- Generator: Adobe Illustrator 24.1.0, SVG Export Plug-In . SVG Version: 6.00 Build 0)  -->
<svg version="1.1" id="Layer_1" xmlns="http://www.w3.org/2000/svg" xmlns:xlink="http://www.w3.org/1999/xlink" x="0px" y="0px"
	 viewBox="0 0 128 128" style="enable-background:new 0 0 128 128;" xml:space="preserve">
<style type="text/css">
	.st0{fill:#98B9EA;}
	.st1{fill:#DEEAFF;}
	.st2{fill:#436DB5;}
	.st3{fill:#FFFFFF;}
	.st4{fill:none;}
</style>
<g id="Layer_1_1_">
</g>
<g>
	<g id="Layer_2_1_">
		<g id="Objects_1_">
			<g>
				<g>
					<g>
						<g>
							<path class="st0" d="M77,43v-0.3c0-1.5-2.1-2.7-4.6-2.7H55.6C53,40,51,41.2,51,42.7V43H9v42l0,0c0,0.5,0.2,0.9,0.6,1.3
								l8.4,8.4c1.3,1.3,4.1,1.7,6.3,1l11-3.7c4.5,2.3,9.8,4.1,15.7,5.2v7.3c0,1.5,2.1,2.7,4.6,2.7h16.8c2.6,0,4.6-1.2,4.6-2.7v-7.3
								c5.9-1.1,11.2-2.9,15.7-5.2l11,3.7c2.2,0.7,5,0.3,6.3-1l8.4-8.4c0.4-0.4,0.6-0.9,0.6-1.3l0,0V65.7v-3.1V43H77z"/>
							<path class="st1" d="M92.7,92.1L92.7,92.1l11,3.7c1,0.3,2.2,0.4,3.3,0.3V57.8H92.7V92.1z"/>
							<path class="st1" d="M9.6,86.4l8.4,8.4c0.9,0.9,2.6,1.4,4.3,1.3V43H9v42l0,0C9,85.5,9.2,85.9,9.6,86.4z"/>
							<path class="st1" d="M35.3,92.1c4.5,2.3,9.8,4.1,15.7,5.2v-44H35.3V92.1L35.3,92.1z"/>
							<ellipse class="st1" cx="64" cy="54.2" rx="19.3" ry="11.1"/>
							<path class="st0" d="M35.3,93.1c-0.6,0-1-0.4-1-1V68c0-0.6,0.4-1,1-1s1,0.4,1,1v24.1C36.3,92.6,35.9,93.1,35.3,93.1z"/>
							<path class="st0" d="M51,105.6c-0.6,0-1-0.4-1-1V80.5c0-0.6,0.4-1,1-1s1,0.4,1,1v24.1C52,105.2,51.5,105.6,51,105.6z"/>
							<path class="st0" d="M77,105.6c-0.6,0-1-0.4-1-1V80.5c0-0.6,0.4-1,1-1s1,0.4,1,1v24.1C78,105.2,77.6,105.6,77,105.6z"/>
							<path class="st0" d="M92.7,93.1c-0.6,0-1-0.4-1-1V68c0-0.6,0.4-1,1-1s1,0.4,1,1v24.1C93.7,92.6,93.3,93.1,92.7,93.1z"/>
							<path class="st0" d="M44.7,54.2c0,6.2,8.6,11.1,19.3,11.1V43C53.3,43,44.7,48,44.7,54.2z"/>
							<path class="st2" d="M48.9,61.1c3.5,2.6,9,4.2,15.1,4.2s11.6-1.7,15.1-4.2c-3.5-2.6-9-4.2-15.1-4.2
								C57.9,56.8,52.4,58.5,48.9,61.1z"/>
						</g>
						<g>
							<path class="st3" d="M116.7,63l-10.9-3.6c0.6-1.7,1-3.4,1-5.2s-0.3-3.5-1-5.2l10.9-3.6c2.2-0.7,3-2.4,1.7-3.7l-8.4-8.4
								c-1.3-1.3-4.1-1.7-6.3-1l-11,3.7c-4.5-2.3-9.8-4.1-15.7-5.2v-7.3c0-1.5-2.1-2.7-4.6-2.7H55.6C53,20.8,51,22,51,23.5v7.3
								c-5.9,1.1-11.2,2.9-15.7,5.2l-11-3.7c-2.2-0.7-5-0.3-6.3,1l-8.4,8.4c-1.3,1.3-0.5,2.9,1.7,3.7L22.2,49c-0.6,1.7-1,3.4-1,5.2
								s0.3,3.5,1,5.2L11.3,63c-2.2,0.7-3,2.4-1.7,3.7l8.4,8.4c1.3,1.3,4.1,1.7,6.3,1l11-3.7c4.5,2.3,9.8,4.1,15.7,5.2v7.3
								c0,1.5,2.1,2.7,4.6,2.7h16.8c2.6,0,4.6-1.2,4.6-2.7v-7.3c5.9-1.1,11.2-2.9,15.7-5.2l11,3.7c2.2,0.7,5,0.3,6.3-1l8.4-8.4
								C119.7,65.4,118.9,63.8,116.7,63z M64,65.3c-10.7,0-19.3-5-19.3-11.1S53.3,43,64,43s19.3,5,19.3,11.1S74.7,65.3,64,65.3z"/>
							<path class="st0" d="M72.4,88.6H55.6c-3.2,0-5.6-1.6-5.6-3.7v-6.5c-5.5-1.1-10.4-2.7-14.8-5L24.7,77
								c-2.6,0.9-5.8,0.3-7.4-1.2l-8.4-8.4c-0.8-0.8-1.1-1.7-0.8-2.6c0.3-1.2,1.3-2.1,2.9-2.7l10-3.3c-0.5-1.5-0.7-3.1-0.7-4.6
								s0.2-3.1,0.7-4.6l-10-3.3c-1.6-0.5-2.7-1.5-2.9-2.7c-0.2-0.9,0.1-1.9,0.8-2.6l8.4-8.4c1.5-1.5,4.8-2.1,7.4-1.2l10.6,3.5
								c4.3-2.2,9.3-3.9,14.8-5v-6.5c0-2.1,2.5-3.7,5.6-3.7h16.8c3.2,0,5.6,1.6,5.6,3.7v6.5c5.5,1.1,10.4,2.7,14.8,5l10.6-3.5
								c2.6-0.9,5.8-0.3,7.4,1.2l8.4,8.4c0.8,0.8,1.1,1.7,0.8,2.6c-0.3,1.2-1.3,2.1-2.9,2.7l-10,3.3c0.5,1.5,0.7,3.1,0.7,4.6
								s-0.2,3.1-0.7,4.6l10,3.3c1.6,0.5,2.7,1.5,2.9,2.7c0.2,0.9-0.1,1.9-0.8,2.6l-8.4,8.4c-1.5,1.5-4.8,2.1-7.4,1.2l-10.6-3.5
								c-4.3,2.2-9.3,3.9-14.8,5V85C78,87,75.6,88.6,72.4,88.6z M35.3,71.4c0.2,0,0.3,0,0.5,0.1c4.4,2.3,9.7,4.1,15.4,5.1
								c0.5,0.1,0.8,0.5,0.8,1v7.3c0,0.7,1.4,1.7,3.6,1.7h16.8c2.2,0,3.6-1,3.6-1.7v-7.3c0-0.5,0.3-0.9,0.8-1c5.7-1,11-2.8,15.4-5.1
								c0.2-0.1,0.5-0.1,0.8-0.1l11,3.7c1.8,0.6,4.3,0.3,5.3-0.7l8.4-8.4c0.3-0.3,0.4-0.5,0.3-0.8s-0.6-0.9-1.6-1.2l-11-3.7
								c-0.3-0.1-0.5-0.3-0.6-0.5s-0.1-0.5,0-0.8c0.6-1.6,0.9-3.2,0.9-4.9s-0.3-3.3-0.9-4.9c-0.1-0.3-0.1-0.5,0-0.8s0.3-0.4,0.6-0.5
								l11-3.6c1.1-0.4,1.5-0.9,1.6-1.2c0.1-0.2,0-0.5-0.3-0.8l-8.4-8.4c-1-1-3.5-1.3-5.3-0.7l-11,3.7c-0.3,0.1-0.5,0.1-0.8-0.1
								c-4.4-2.3-9.7-4.1-15.4-5.1c-0.5-0.1-0.8-0.5-0.8-1v-7.3c0-0.7-1.4-1.7-3.6-1.7H55.6c-2.2,0-3.6,1-3.6,1.7v7.3
								c0,0.5-0.3,0.9-0.8,1c-5.7,1-11,2.8-15.4,5.1c-0.2,0.1-0.5,0.1-0.8,0.1l-11-3.7c-1.8-0.6-4.3-0.3-5.3,0.7l-8.4,8.4
								c-0.3,0.3-0.4,0.5-0.3,0.8c0.1,0.3,0.6,0.9,1.6,1.2l11,3.6c0.3,0.1,0.5,0.3,0.6,0.5s0.1,0.5,0,0.8c-0.6,1.6-0.9,3.2-0.9,4.9
								s0.3,3.3,0.9,4.9c0.1,0.3,0.1,0.5,0,0.8s-0.3,0.4-0.6,0.5l-11,3.7c-1.1,0.4-1.5,0.9-1.6,1.2c-0.1,0.2,0,0.5,0.3,0.8l8.4,8.4
								c1,1,3.5,1.3,5.3,0.7l11-3.7C35.1,71.4,35.2,71.4,35.3,71.4z M64,66.3c-11.4,0-20.3-5.3-20.3-12.1S52.6,42,64,42
								s20.3,5.3,20.3,12.1S75.4,66.3,64,66.3z M64,44c-10.1,0-18.3,4.5-18.3,10.1S53.9,64.3,64,64.3s18.3-4.5,18.3-10.1
								S74.1,44,64,44z"/>
						</g>
						<path class="st2" d="M64,66.3c-11.4,0-20.3-5.3-20.3-12.1S52.6,42,64,42s20.3,5.3,20.3,12.1C84.3,61,75.4,66.3,64,66.3z
							 M64,44c-10.1,0-18.3,4.5-18.3,10.1S53.9,64.3,64,64.3s18.3-4.5,18.3-10.1S74.1,44,64,44z M119,44c-0.6,0-1-0.4-1-1
							c0-0.2-0.2-0.5-0.3-0.6l-8.4-8.4c-1-1-3.5-1.3-5.3-0.7L93,37c-0.3,0.1-0.5,0.1-0.8-0.1c-4.4-2.3-9.7-4.1-15.4-5.1
							c-0.5-0.1-0.8-0.5-0.8-1v-7.3c0-0.7-1.4-1.7-3.6-1.7H55.6c-2.2,0-3.6,1-3.6,1.7v7.3c0,0.5-0.3,0.9-0.8,1
							c-5.7,1-11,2.8-15.4,5.1C35.6,37,35.3,37,35,37l-11-3.7c-1.8-0.6-4.3-0.3-5.3,0.7l-8.4,8.4c-0.2,0.2-0.3,0.3-0.3,0.5
							c-0.1,0.5-0.6,0.9-1.2,0.8c-0.5-0.1-0.9-0.6-0.8-1.2C8.1,42,8.4,41.4,8.9,41l8.4-8.4c1.5-1.5,4.8-2.1,7.4-1.2l10.6,3.5
							c4.3-2.2,9.3-3.9,14.8-5v-6.5c0-2.1,2.5-3.7,5.6-3.7h16.8c3.2,0,5.6,1.6,5.6,3.7v6.5c5.5,1.1,10.4,2.7,14.8,5l10.6-3.5
							c2.6-0.9,5.8-0.3,7.4,1.2l8.4,8.4c0.6,0.6,0.9,1.3,0.9,2C120,43.5,119.6,44,119,44z"/>
					</g>
					<path class="st2" d="M72.4,108.3H55.6c-3.2,0-5.6-1.6-5.6-3.7v-6.5c-5.5-1.1-10.4-2.7-14.8-5l-10.6,3.5
						c-2.6,0.9-5.8,0.3-7.4-1.2L8.8,87C8.4,86.5,8,85.8,8,85.2v-0.1V43c0-0.6,0.4-1,1-1s1,0.4,1,1v42v0.1c0,0.2,0.1,0.4,0.3,0.6
						l8.4,8.4c1,1,3.5,1.3,5.3,0.7l11-3.7c0.3-0.1,0.5-0.1,0.8,0.1c4.4,2.3,9.7,4.1,15.4,5.1c0.5,0.1,0.8,0.5,0.8,1v7.3
						c0,0.7,1.4,1.7,3.6,1.7h16.8c2.2,0,3.6-1,3.6-1.7v-7.3c0-0.5,0.3-0.9,0.8-1c5.7-1,11-2.8,15.4-5.1c0.2-0.1,0.5-0.1,0.8-0.1
						l11,3.7c1.8,0.6,4.3,0.3,5.3-0.7l8.4-8.4c0.2-0.2,0.3-0.4,0.3-0.6V85V43c0-0.6,0.4-1,1-1s1,0.4,1,1v42v0.1
						c0,0.7-0.3,1.4-0.9,1.9l-8.4,8.4c-1.5,1.5-4.8,2.1-7.4,1.2l-10.6-3.5c-4.3,2.2-9.3,3.9-14.8,5v6.5
						C78,106.7,75.6,108.3,72.4,108.3z"/>
				</g>
				<rect x="4" y="4" class="st4" width="120" height="120"/>
				<rect x="4" y="4" class="st4" width="120" height="120"/>
			</g>
		</g>
	</g>
	<g>
		<rect class="st4" width="128" height="128"/>
	</g>
</g>
</svg>
