<?xml version="1.0" encoding="utf-8"?>
<!-- Generator: Adobe Illustrator 24.1.0, SVG Export Plug-In . SVG Version: 6.00 Build 0)  -->
<svg version="1.1" id="Layer_1" xmlns="http://www.w3.org/2000/svg" xmlns:xlink="http://www.w3.org/1999/xlink" x="0px" y="0px"
	 viewBox="0 0 128 128" style="enable-background:new 0 0 128 128;" xml:space="preserve">
<style type="text/css">
	.st0{fill:#A7B23B;}
	.st1{fill:#436DB5;}
	.st2{fill:#DEEAFF;}
	.st3{fill:#98B9EA;}
	.st4{fill:#FFFFFF;}
	.st5{fill:#DFEAB0;}
	.st6{fill:#C4D36C;}
	.st7{fill:none;}
</style>
<g id="Layer_1_1_">
</g>
<g>
	<g id="Layer_2_1_">
		<g id="Industries_1_">
			<g>
				<g>
					<g>
						<g>
							<path class="st0" d="M67,8.9c-0.3,0-0.5-0.1-0.7-0.3l-0.1-0.1c0-0.1-0.1-0.1-0.1-0.2c0-0.1,0-0.1-0.1-0.2C66,8,66,8,66,7.9
								s0-0.3,0.1-0.4s0.1-0.2,0.2-0.3c0.4-0.4,1-0.4,1.4,0c0.1,0.1,0.2,0.2,0.2,0.3C68,7.7,68,7.8,68,7.9c0,0.3-0.1,0.5-0.3,0.7
								C67.5,8.8,67.3,8.9,67,8.9z"/>
							<path class="st0" d="M89.6,18.7L89.6,18.7c-0.1-0.5,0.2-1.1,0.8-1.2l0,0c0.5-0.1,1.1,0.2,1.2,0.8l0,0
								c0.1,0.5-0.2,1.1-0.8,1.2l0,0c-0.1,0-0.1,0-0.2,0l0,0C90.1,19.5,89.7,19.2,89.6,18.7z M86.8,11.8c-0.3-0.5-0.2-1.1,0.3-1.4
								l0,0c0.5-0.3,1.1-0.2,1.4,0.3l0,0c0.3,0.5,0.2,1.1-0.3,1.4l0,0c-0.2,0.1-0.3,0.1-0.5,0.1l0,0C87.3,12.3,87,12.1,86.8,11.8z
								 M81.5,7C81,6.8,80.8,6.2,81,5.7l0,0c0.2-0.5,0.8-0.7,1.3-0.5l0,0C82.8,5.4,83,6,82.8,6.5l0,0c-0.2,0.4-0.5,0.6-0.9,0.6l0,0
								C81.8,7.1,81.7,7.1,81.5,7z M73.3,5.3c-0.1-0.6,0.3-1.1,0.8-1.1l0,0l0,0l0,0c0.5-0.1,1.1,0.3,1.2,0.8l0,0
								c0.1,0.5-0.3,1-0.8,1.1l0,0c-0.1,0-0.1,0-0.2,0l0,0C73.8,6.2,73.4,5.8,73.3,5.3z"/>
							<path class="st0" d="M91.3,27.3c-0.1,0-0.2,0-0.4-0.1c-0.1,0-0.2-0.1-0.3-0.2c-0.2-0.2-0.3-0.4-0.3-0.7c0-0.1,0-0.3,0.1-0.4
								s0.1-0.2,0.2-0.3c0.1-0.1,0.2-0.2,0.3-0.2c0.2-0.1,0.4-0.1,0.6-0.1c0.1,0,0.1,0,0.2,0.1c0.1,0,0.1,0.1,0.2,0.1
								s0.1,0.1,0.1,0.1c0.1,0.1,0.2,0.2,0.2,0.3c0,0.1,0.1,0.2,0.1,0.4c0,0.3-0.1,0.5-0.3,0.7c0,0.1-0.1,0.1-0.1,0.1
								c-0.1,0-0.1,0.1-0.2,0.1s-0.1,0-0.2,0C91.5,27.3,91.4,27.3,91.3,27.3z"/>
						</g>
						<g>
							<path class="st1" d="M36.9,58.8c-0.1,0-0.1,0-0.2,0c-0.1,0-0.1,0-0.2,0c-0.1,0-0.1-0.1-0.2-0.1c-0.1,0-0.1-0.1-0.2-0.1
								c-0.2-0.2-0.3-0.4-0.3-0.7s0.1-0.5,0.3-0.7c0,0,0.1-0.1,0.2-0.1c0,0,0.1-0.1,0.2-0.1c0.1,0,0.1,0,0.2-0.1
								c0.3-0.1,0.7,0,0.9,0.3c0.1,0.1,0.2,0.2,0.2,0.3s0.1,0.2,0.1,0.4c0,0.1,0,0.3-0.1,0.4c0,0.1-0.1,0.2-0.2,0.3
								C37.4,58.7,37.1,58.8,36.9,58.8z"/>
							<path class="st1" d="M37.4,51c-0.5-0.1-0.9-0.6-0.8-1.1l0,0c0.1-0.5,0.6-0.9,1.1-0.8l0,0c0.5,0.1,0.9,0.6,0.8,1.1l0,0
								c-0.1,0.5-0.5,0.9-1,0.9l0,0C37.5,51,37.4,51,37.4,51z M39,43.4c-0.5-0.2-0.8-0.7-0.7-1.2l0,0c0.2-0.5,0.7-0.8,1.2-0.7l0,0
								c0.5,0.2,0.8,0.7,0.7,1.2l0,0c-0.1,0.4-0.5,0.7-1,0.7l0,0C39.2,43.4,39.1,43.4,39,43.4z M41.5,36c-0.5-0.2-0.7-0.8-0.5-1.3
								l0,0c0.2-0.5,0.8-0.7,1.3-0.5l0,0c0.5,0.2,0.7,0.8,0.5,1.3l0,0c-0.2,0.4-0.5,0.6-0.9,0.6l0,0C41.8,36.1,41.6,36.1,41.5,36z
								 M44.9,29c-0.5-0.3-0.6-0.9-0.4-1.4l0,0c0.3-0.5,0.9-0.6,1.4-0.4l0,0c0.5,0.3,0.6,0.9,0.4,1.4l0,0c-0.2,0.3-0.5,0.5-0.9,0.5
								l0,0C45.3,29.1,45.1,29.1,44.9,29z M49.2,22.5c-0.4-0.3-0.5-1-0.2-1.4l0,0l0,0l0,0c0.3-0.4,1-0.5,1.4-0.2l0,0
								c0.4,0.3,0.5,1,0.2,1.4l0,0c-0.2,0.2-0.5,0.4-0.8,0.4l0,0C49.6,22.7,49.3,22.6,49.2,22.5z M54.3,16.6c-0.4-0.4-0.3-1,0-1.4
								l0,0c0.4-0.4,1-0.4,1.4,0.1l0,0c0.4,0.4,0.3,1-0.1,1.4l0,0c-0.2,0.2-0.4,0.3-0.7,0.3l0,0C54.7,16.9,54.5,16.8,54.3,16.6z"/>
							<path class="st1" d="M61.2,12.3c-0.3,0-0.5-0.1-0.7-0.3c-0.1-0.1-0.2-0.2-0.2-0.3s-0.1-0.3-0.1-0.4c0-0.3,0.1-0.5,0.3-0.7
								s0.6-0.3,0.9-0.3c0.1,0,0.1,0,0.2,0.1c0.1,0,0.1,0.1,0.2,0.1c0.1,0,0.1,0.1,0.1,0.1c0,0.1,0.1,0.1,0.1,0.2
								c0,0.1,0.1,0.1,0.1,0.2c0,0.1,0,0.1,0.1,0.2c0,0.1,0,0.1,0,0.2c0,0.1,0,0.3-0.1,0.4c0,0.1-0.1,0.2-0.2,0.3l-0.1,0.1
								c-0.1,0-0.1,0.1-0.2,0.1c-0.1,0-0.1,0-0.2,0.1C61.4,12.3,61.3,12.3,61.2,12.3z"/>
						</g>
						<g>
							<path class="st2" d="M34.1,85.8c10.4,0,25.4,9.3,25.4,27.7c0,9.8-16.8,11.1-29,8S14,112.3,14,106
								C14,95.8,22.8,85.8,34.1,85.8z"/>
							<path class="st3" d="M43.3,119.7c0,1.8,1.6,3.2,3.4,3c7.2-0.7,12.8-3.6,12.8-9.3c0-3.3-0.5-6.3-1.3-9c-1-3.2-3.9-5.3-7.3-5.3
								l0,0c-4.2,0-7.6,3.4-7.6,7.6C43.3,106.7,43.3,119.7,43.3,119.7z"/>
							<path class="st1" d="M42.6,124c-4.2,0-8.6-0.6-12.3-1.5C16,118.9,13,111.5,13,106c0-11.3,9.8-21.2,21.1-21.2
								c5.9,0,12.4,2.7,17.3,7.2c4.2,3.8,9.1,10.6,9.1,21.5c0,2.7-1.1,5-3.4,6.8C53.7,123,48.2,124,42.6,124z M34.1,86.8
								C24,86.8,15,95.8,15,106c0,6.9,5.4,11.9,15.7,14.5c8.5,2.2,19.9,2.2,25.1-1.8c1.8-1.4,2.6-3.1,2.6-5.2
								C58.5,102.3,50,86.8,34.1,86.8z"/>
							<g>
								<circle class="st2" cx="36.9" cy="72.9" r="17.7"/>
								<path class="st3" d="M36.9,55.3c-9.8,0-17.7,7.9-17.7,17.7s7.9,17.7,17.7,17.7S54.6,82.8,54.6,73
									C54.6,63.2,46.6,55.3,36.9,55.3z M42.7,78.7c-5.6,5.6-14.2,6-19.3,0.9s-4.6-13.6,1-19.2s14.2-6,19.3-0.9
									C48.7,64.5,48.3,73.2,42.7,78.7z"/>
								<path class="st1" d="M36.9,91.6c-10.3,0-18.7-8.4-18.7-18.7s8.4-18.7,18.7-18.7s18.7,8.4,18.7,18.7S47.2,91.6,36.9,91.6z
									 M36.9,56.3c-9.2,0-16.7,7.5-16.7,16.7s7.5,16.7,16.7,16.7S53.6,82.2,53.6,73S46.1,56.3,36.9,56.3z"/>
								
									<ellipse transform="matrix(0.7071 -0.7071 0.7071 0.7071 -37.4178 39.4249)" class="st4" cx="28.9" cy="64.9" rx="4.8" ry="2.9"/>
							</g>
							
								<ellipse transform="matrix(0.7071 -0.7071 0.7071 0.7071 -61.4854 44.337)" class="st4" cx="22.8" cy="96.4" rx="3.7" ry="2.3"/>
						</g>
						<g>
							<path class="st5" d="M88.6,54.3C99,54.3,114,63.6,114,82c0,9.8-16.8,11.1-29,8c-12.3-3-16.5-9.1-16.5-15.4
								C68.5,64.3,77.3,54.3,88.6,54.3z"/>
							<g>
								<path class="st6" d="M97.7,88.3c0,1.8,1.6,3.2,3.4,3c7.2-0.7,12.8-3.6,12.8-9.3c0-3.3-0.5-6.3-1.3-9c-1-3.2-3.9-5.3-7.3-5.3
									l0,0c-4.2,0-7.6,3.4-7.6,7.6V88.3z"/>
								<path class="st6" d="M100.8,92.4c-1,0-2-0.4-2.7-1c-0.9-0.8-1.3-1.9-1.3-3v-13c0-4.8,3.9-8.6,8.6-8.6c3.8,0,7.1,2.4,8.2,6
									c0.9,2.9,1.4,6,1.4,9.3c0,5.6-5,9.4-13.7,10.3C101.1,92.3,100.9,92.4,100.8,92.4z M105.4,68.7c-3.6,0-6.6,3-6.6,6.6v12.9
									c0,0.6,0.2,1.1,0.7,1.5c0.4,0.4,1,0.6,1.6,0.5c4.5-0.5,11.9-2.2,11.9-8.3c0-3.1-0.4-6-1.3-8.7
									C110.8,70.6,108.3,68.7,105.4,68.7z"/>
							</g>
							<path class="st0" d="M97,92.6c-4.2,0-8.6-0.6-12.3-1.5c-14.2-3.6-17.2-10.9-17.2-16.4c0-11.3,9.8-21.2,21.1-21.2
								c5.9,0,12.4,2.7,17.3,7.2c4.1,3.8,9.1,10.6,9.1,21.5c0,2.7-1.1,5-3.4,6.8C108.1,91.5,102.7,92.6,97,92.6z M88.6,55.3
								c-10.2,0-19.1,9-19.1,19.2c0,6.9,5.4,11.9,15.7,14.5c8.5,2.2,19.9,2.2,25.1-1.8c1.8-1.4,2.6-3.1,2.6-5.2
								C113,70.9,104.5,55.3,88.6,55.3z"/>
							<g>
								<circle class="st5" cx="91.4" cy="41.5" r="17.7"/>
								<path class="st6" d="M91.4,23.8c-9.8,0-17.7,7.9-17.7,17.7s7.9,17.7,17.7,17.7s17.7-7.9,17.7-17.7S101.1,23.8,91.4,23.8z
									 M97.2,47.3c-5.6,5.6-14.2,6-19.3,0.9c-5.1-5.1-4.6-13.7,0.9-19.3c5.6-5.6,14.2-6,19.3-0.9C103.2,33.1,102.7,41.7,97.2,47.3
									z"/>
								<path class="st0" d="M91.4,60.2c-10.3,0-18.7-8.4-18.7-18.7s8.4-18.7,18.7-18.7S110,31.2,110,41.5S101.7,60.2,91.4,60.2z
									 M91.4,24.8c-9.2,0-16.7,7.5-16.7,16.7s7.5,16.7,16.7,16.7S108,50.7,108,41.5S100.5,24.8,91.4,24.8z"/>
								
									<ellipse transform="matrix(0.7071 -0.7071 0.7071 0.7071 0.7091 68.7443)" class="st4" cx="83.3" cy="33.5" rx="4.8" ry="2.9"/>
							</g>
							
								<ellipse transform="matrix(0.7071 -0.7071 0.7071 0.7071 -23.3585 73.6563)" class="st4" cx="77.2" cy="65" rx="3.7" ry="2.3"/>
						</g>
					</g>
					<g>
						<g>
							<path class="st0" d="M67,8.9c-0.3,0-0.5-0.1-0.7-0.3l-0.1-0.1c0-0.1-0.1-0.1-0.1-0.2c0-0.1,0-0.1-0.1-0.2C66,8,66,8,66,7.9
								s0-0.3,0.1-0.4s0.1-0.2,0.2-0.3c0.4-0.4,1-0.4,1.4,0c0.1,0.1,0.2,0.2,0.2,0.3C68,7.7,68,7.8,68,7.9c0,0.3-0.1,0.5-0.3,0.7
								C67.5,8.8,67.3,8.9,67,8.9z"/>
							<path class="st0" d="M89.6,18.7L89.6,18.7c-0.1-0.5,0.2-1.1,0.8-1.2l0,0c0.5-0.1,1.1,0.2,1.2,0.8l0,0
								c0.1,0.5-0.2,1.1-0.8,1.2l0,0c-0.1,0-0.1,0-0.2,0l0,0C90.1,19.5,89.7,19.2,89.6,18.7z M86.8,11.8c-0.3-0.5-0.2-1.1,0.3-1.4
								l0,0c0.5-0.3,1.1-0.2,1.4,0.3l0,0c0.3,0.5,0.2,1.1-0.3,1.4l0,0c-0.2,0.1-0.3,0.1-0.5,0.1l0,0C87.3,12.3,87,12.1,86.8,11.8z
								 M81.5,7C81,6.8,80.8,6.2,81,5.7l0,0c0.2-0.5,0.8-0.7,1.3-0.5l0,0C82.8,5.4,83,6,82.8,6.5l0,0c-0.2,0.4-0.5,0.6-0.9,0.6l0,0
								C81.8,7.1,81.7,7.1,81.5,7z M73.3,5.3c-0.1-0.6,0.3-1.1,0.8-1.1l0,0l0,0l0,0c0.5-0.1,1.1,0.3,1.2,0.8l0,0
								c0.1,0.5-0.3,1-0.8,1.1l0,0c-0.1,0-0.1,0-0.2,0l0,0C73.8,6.2,73.4,5.8,73.3,5.3z"/>
							<path class="st0" d="M91.3,27.3c-0.1,0-0.2,0-0.4-0.1c-0.1,0-0.2-0.1-0.3-0.2c-0.2-0.2-0.3-0.4-0.3-0.7c0-0.1,0-0.3,0.1-0.4
								s0.1-0.2,0.2-0.3c0.1-0.1,0.2-0.2,0.3-0.2c0.2-0.1,0.4-0.1,0.6-0.1c0.1,0,0.1,0,0.2,0.1c0.1,0,0.1,0.1,0.2,0.1
								s0.1,0.1,0.1,0.1c0.1,0.1,0.2,0.2,0.2,0.3c0,0.1,0.1,0.2,0.1,0.4c0,0.3-0.1,0.5-0.3,0.7c0,0.1-0.1,0.1-0.1,0.1
								c-0.1,0-0.1,0.1-0.2,0.1s-0.1,0-0.2,0C91.5,27.3,91.4,27.3,91.3,27.3z"/>
						</g>
						<g>
							<path class="st1" d="M36.9,58.8c-0.1,0-0.1,0-0.2,0c-0.1,0-0.1,0-0.2,0c-0.1,0-0.1-0.1-0.2-0.1c-0.1,0-0.1-0.1-0.2-0.1
								c-0.2-0.2-0.3-0.4-0.3-0.7s0.1-0.5,0.3-0.7c0,0,0.1-0.1,0.2-0.1c0,0,0.1-0.1,0.2-0.1c0.1,0,0.1,0,0.2-0.1
								c0.3-0.1,0.7,0,0.9,0.3c0.1,0.1,0.2,0.2,0.2,0.3s0.1,0.2,0.1,0.4c0,0.1,0,0.3-0.1,0.4c0,0.1-0.1,0.2-0.2,0.3
								C37.4,58.7,37.1,58.8,36.9,58.8z"/>
							<path class="st1" d="M37.4,51c-0.5-0.1-0.9-0.6-0.8-1.1l0,0c0.1-0.5,0.6-0.9,1.1-0.8l0,0c0.5,0.1,0.9,0.6,0.8,1.1l0,0
								c-0.1,0.5-0.5,0.9-1,0.9l0,0C37.5,51,37.4,51,37.4,51z M39,43.4c-0.5-0.2-0.8-0.7-0.7-1.2l0,0c0.2-0.5,0.7-0.8,1.2-0.7l0,0
								c0.5,0.2,0.8,0.7,0.7,1.2l0,0c-0.1,0.4-0.5,0.7-1,0.7l0,0C39.2,43.4,39.1,43.4,39,43.4z M41.5,36c-0.5-0.2-0.7-0.8-0.5-1.3
								l0,0c0.2-0.5,0.8-0.7,1.3-0.5l0,0c0.5,0.2,0.7,0.8,0.5,1.3l0,0c-0.2,0.4-0.5,0.6-0.9,0.6l0,0C41.8,36.1,41.6,36.1,41.5,36z
								 M44.9,29c-0.5-0.3-0.6-0.9-0.4-1.4l0,0c0.3-0.5,0.9-0.6,1.4-0.4l0,0c0.5,0.3,0.6,0.9,0.4,1.4l0,0c-0.2,0.3-0.5,0.5-0.9,0.5
								l0,0C45.3,29.1,45.1,29.1,44.9,29z M49.2,22.5c-0.4-0.3-0.5-1-0.2-1.4l0,0l0,0l0,0c0.3-0.4,1-0.5,1.4-0.2l0,0
								c0.4,0.3,0.5,1,0.2,1.4l0,0c-0.2,0.2-0.5,0.4-0.8,0.4l0,0C49.6,22.7,49.3,22.6,49.2,22.5z M54.3,16.6c-0.4-0.4-0.3-1,0-1.4
								l0,0c0.4-0.4,1-0.4,1.4,0.1l0,0c0.4,0.4,0.3,1-0.1,1.4l0,0c-0.2,0.2-0.4,0.3-0.7,0.3l0,0C54.7,16.9,54.5,16.8,54.3,16.6z"/>
							<path class="st1" d="M61.2,12.3c-0.3,0-0.5-0.1-0.7-0.3c-0.1-0.1-0.2-0.2-0.2-0.3s-0.1-0.3-0.1-0.4c0-0.3,0.1-0.5,0.3-0.7
								s0.6-0.3,0.9-0.3c0.1,0,0.1,0,0.2,0.1c0.1,0,0.1,0.1,0.2,0.1c0.1,0,0.1,0.1,0.1,0.1c0,0.1,0.1,0.1,0.1,0.2
								c0,0.1,0.1,0.1,0.1,0.2c0,0.1,0,0.1,0.1,0.2c0,0.1,0,0.1,0,0.2c0,0.1,0,0.3-0.1,0.4c0,0.1-0.1,0.2-0.2,0.3l-0.1,0.1
								c-0.1,0-0.1,0.1-0.2,0.1c-0.1,0-0.1,0-0.2,0.1C61.4,12.3,61.3,12.3,61.2,12.3z"/>
						</g>
						<g>
							<path class="st2" d="M34.1,85.8c10.4,0,25.4,9.3,25.4,27.7c0,9.8-16.8,11.1-29,8S14,112.3,14,106
								C14,95.8,22.8,85.8,34.1,85.8z"/>
							<path class="st3" d="M43.3,119.7c0,1.8,1.6,3.2,3.4,3c7.2-0.7,12.8-3.6,12.8-9.3c0-3.3-0.5-6.3-1.3-9c-1-3.2-3.9-5.3-7.3-5.3
								l0,0c-4.2,0-7.6,3.4-7.6,7.6C43.3,106.7,43.3,119.7,43.3,119.7z"/>
							<path class="st1" d="M42.6,124c-4.2,0-8.6-0.6-12.3-1.5C16,118.9,13,111.5,13,106c0-11.3,9.8-21.2,21.1-21.2
								c5.9,0,12.4,2.7,17.3,7.2c4.2,3.8,9.1,10.6,9.1,21.5c0,2.7-1.1,5-3.4,6.8C53.7,123,48.2,124,42.6,124z M34.1,86.8
								C24,86.8,15,95.8,15,106c0,6.9,5.4,11.9,15.7,14.5c8.5,2.2,19.9,2.2,25.1-1.8c1.8-1.4,2.6-3.1,2.6-5.2
								C58.5,102.3,50,86.8,34.1,86.8z"/>
							<g>
								<circle class="st2" cx="36.9" cy="72.9" r="17.7"/>
								<path class="st3" d="M36.9,55.3c-9.8,0-17.7,7.9-17.7,17.7s7.9,17.7,17.7,17.7S54.6,82.8,54.6,73
									C54.6,63.2,46.6,55.3,36.9,55.3z M42.7,78.7c-5.6,5.6-14.2,6-19.3,0.9s-4.6-13.6,1-19.2s14.2-6,19.3-0.9
									C48.7,64.5,48.3,73.2,42.7,78.7z"/>
								<path class="st1" d="M36.9,91.6c-10.3,0-18.7-8.4-18.7-18.7s8.4-18.7,18.7-18.7s18.7,8.4,18.7,18.7S47.2,91.6,36.9,91.6z
									 M36.9,56.3c-9.2,0-16.7,7.5-16.7,16.7s7.5,16.7,16.7,16.7S53.6,82.2,53.6,73S46.1,56.3,36.9,56.3z"/>
								
									<ellipse transform="matrix(0.7071 -0.7071 0.7071 0.7071 -37.4178 39.4249)" class="st4" cx="28.9" cy="64.9" rx="4.8" ry="2.9"/>
							</g>
							
								<ellipse transform="matrix(0.7071 -0.7071 0.7071 0.7071 -61.4854 44.337)" class="st4" cx="22.8" cy="96.4" rx="3.7" ry="2.3"/>
						</g>
						<g>
							<path class="st5" d="M88.6,54.3C99,54.3,114,63.6,114,82c0,9.8-16.8,11.1-29,8c-12.3-3-16.5-9.1-16.5-15.4
								C68.5,64.3,77.3,54.3,88.6,54.3z"/>
							<g>
								<path class="st6" d="M97.7,88.3c0,1.8,1.6,3.2,3.4,3c7.2-0.7,12.8-3.6,12.8-9.3c0-3.3-0.5-6.3-1.3-9c-1-3.2-3.9-5.3-7.3-5.3
									l0,0c-4.2,0-7.6,3.4-7.6,7.6V88.3z"/>
								<path class="st6" d="M100.8,92.4c-1,0-2-0.4-2.7-1c-0.9-0.8-1.3-1.9-1.3-3v-13c0-4.8,3.9-8.6,8.6-8.6c3.8,0,7.1,2.4,8.2,6
									c0.9,2.9,1.4,6,1.4,9.3c0,5.6-5,9.4-13.7,10.3C101.1,92.3,100.9,92.4,100.8,92.4z M105.4,68.7c-3.6,0-6.6,3-6.6,6.6v12.9
									c0,0.6,0.2,1.1,0.7,1.5c0.4,0.4,1,0.6,1.6,0.5c4.5-0.5,11.9-2.2,11.9-8.3c0-3.1-0.4-6-1.3-8.7
									C110.8,70.6,108.3,68.7,105.4,68.7z"/>
							</g>
							<path class="st0" d="M97,92.6c-4.2,0-8.6-0.6-12.3-1.5c-14.2-3.6-17.2-10.9-17.2-16.4c0-11.3,9.8-21.2,21.1-21.2
								c5.9,0,12.4,2.7,17.3,7.2c4.1,3.8,9.1,10.6,9.1,21.5c0,2.7-1.1,5-3.4,6.8C108.1,91.5,102.7,92.6,97,92.6z M88.6,55.3
								c-10.2,0-19.1,9-19.1,19.2c0,6.9,5.4,11.9,15.7,14.5c8.5,2.2,19.9,2.2,25.1-1.8c1.8-1.4,2.6-3.1,2.6-5.2
								C113,70.9,104.5,55.3,88.6,55.3z"/>
							<g>
								<circle class="st5" cx="91.4" cy="41.5" r="17.7"/>
								<path class="st6" d="M91.4,23.8c-9.8,0-17.7,7.9-17.7,17.7s7.9,17.7,17.7,17.7s17.7-7.9,17.7-17.7S101.1,23.8,91.4,23.8z
									 M97.2,47.3c-5.6,5.6-14.2,6-19.3,0.9c-5.1-5.1-4.6-13.7,0.9-19.3c5.6-5.6,14.2-6,19.3-0.9C103.2,33.1,102.7,41.7,97.2,47.3
									z"/>
								<path class="st0" d="M91.4,60.2c-10.3,0-18.7-8.4-18.7-18.7s8.4-18.7,18.7-18.7S110,31.2,110,41.5S101.7,60.2,91.4,60.2z
									 M91.4,24.8c-9.2,0-16.7,7.5-16.7,16.7s7.5,16.7,16.7,16.7S108,50.7,108,41.5S100.5,24.8,91.4,24.8z"/>
								
									<ellipse transform="matrix(0.7071 -0.7071 0.7071 0.7071 0.7091 68.7443)" class="st4" cx="83.3" cy="33.5" rx="4.8" ry="2.9"/>
							</g>
							
								<ellipse transform="matrix(0.7071 -0.7071 0.7071 0.7071 -23.3585 73.6563)" class="st4" cx="77.2" cy="65" rx="3.7" ry="2.3"/>
						</g>
					</g>
				</g>
				<rect x="4" y="4" class="st7" width="120" height="120"/>
				<rect x="4" y="4" class="st7" width="120" height="120"/>
			</g>
		</g>
	</g>
	<g>
		<rect class="st7" width="128" height="128"/>
	</g>
</g>
</svg>
