<?xml version="1.0" encoding="UTF-8"?>
<svg xmlns="http://www.w3.org/2000/svg" viewBox="0 0 800 450" fill="none">
  <rect width="800" height="450" fill="#F7F8F4"/>
  <line x1="0" y1="0" x2="800" y2="0" stroke="#3F403D" stroke-width="0.4" opacity="0.06"/><line x1="0" y1="50" x2="800" y2="50" stroke="#3F403D" stroke-width="0.4" opacity="0.06"/><line x1="0" y1="100" x2="800" y2="100" stroke="#3F403D" stroke-width="0.4" opacity="0.06"/><line x1="0" y1="150" x2="800" y2="150" stroke="#3F403D" stroke-width="0.4" opacity="0.06"/><line x1="0" y1="200" x2="800" y2="200" stroke="#3F403D" stroke-width="0.4" opacity="0.06"/><line x1="0" y1="250" x2="800" y2="250" stroke="#3F403D" stroke-width="0.4" opacity="0.06"/><line x1="0" y1="300" x2="800" y2="300" stroke="#3F403D" stroke-width="0.4" opacity="0.06"/><line x1="0" y1="350" x2="800" y2="350" stroke="#3F403D" stroke-width="0.4" opacity="0.06"/><line x1="0" y1="400" x2="800" y2="400" stroke="#3F403D" stroke-width="0.4" opacity="0.06"/><line x1="0" y1="450" x2="800" y2="450" stroke="#3F403D" stroke-width="0.4" opacity="0.06"/>
  <ellipse cx="700" cy="50" rx="60" ry="30" stroke="#518DD2" stroke-width="0.9" opacity="0.6"/><ellipse cx="700" cy="50" rx="115" ry="55" stroke="#518DD2" stroke-width="0.8300000000000001" opacity="0.5499999999999999"/><ellipse cx="700" cy="50" rx="170" ry="80" stroke="#518DD2" stroke-width="0.76" opacity="0.5"/><ellipse cx="700" cy="50" rx="225" ry="105" stroke="#518DD2" stroke-width="0.69" opacity="0.44999999999999996"/><ellipse cx="700" cy="50" rx="280" ry="130" stroke="#518DD2" stroke-width="0.62" opacity="0.39999999999999997"/><ellipse cx="700" cy="50" rx="335" ry="155" stroke="#518DD2" stroke-width="0.55" opacity="0.35"/><ellipse cx="700" cy="50" rx="390" ry="180" stroke="#518DD2" stroke-width="0.48" opacity="0.29999999999999993"/><ellipse cx="700" cy="50" rx="445" ry="205" stroke="#518DD2" stroke-width="0.41" opacity="0.24999999999999994"/><ellipse cx="700" cy="50" rx="500" ry="230" stroke="#518DD2" stroke-width="0.33999999999999997" opacity="0.19999999999999996"/><ellipse cx="700" cy="50" rx="555" ry="255" stroke="#518DD2" stroke-width="0.2699999999999999" opacity="0.14999999999999997"/>
</svg>