<?xml version="1.0" encoding="UTF-8"?>
<svg xmlns="http://www.w3.org/2000/svg" viewBox="0 0 800 450" fill="none">
  <rect width="800" height="450" fill="#0A1020"/>
  <rect x="40"  y="60"  width="220" height="90"  rx="45" stroke="#518DD2" stroke-width="1.5" fill="#0F1F3A" opacity="0.9"/>
  <rect x="290" y="40"  width="170" height="75"  rx="37" stroke="#9CBFE7" stroke-width="1"   fill="none" opacity="0.5"/>
  <rect x="500" y="70"  width="260" height="100" rx="50" stroke="#518DD2" stroke-width="1.5" fill="#0F1F3A" opacity="0.7"/>
  <rect x="60"  y="190" width="290" height="110" rx="55" stroke="#518DD2" stroke-width="2"   fill="#0A1828" opacity="0.9"/>
  <rect x="380" y="200" width="200" height="85"  rx="42" stroke="#9CBFE7" stroke-width="1"   fill="none" opacity="0.5"/>
  <rect x="610" y="180" width="160" height="70"  rx="35" stroke="#518DD2" stroke-width="1"   fill="#0F1F3A" opacity="0.6"/>
  <rect x="40"  y="340" width="160" height="70"  rx="35" stroke="#9CBFE7" stroke-width="1"   fill="none" opacity="0.4"/>
  <rect x="230" y="330" width="340" height="95"  rx="47" stroke="#518DD2" stroke-width="1.5" fill="#0F1F3A" opacity="0.8"/>
  <rect x="600" y="345" width="170" height="75"  rx="37" stroke="#9CBFE7" stroke-width="1"   fill="none" opacity="0.4"/>
  <line x1="0" y1="0" x2="800" y2="0" stroke="#518DD2" stroke-width="0.3" opacity="0.06"/><line x1="0" y1="42" x2="800" y2="42" stroke="#518DD2" stroke-width="0.3" opacity="0.06"/><line x1="0" y1="84" x2="800" y2="84" stroke="#518DD2" stroke-width="0.3" opacity="0.06"/><line x1="0" y1="126" x2="800" y2="126" stroke="#518DD2" stroke-width="0.3" opacity="0.06"/><line x1="0" y1="168" x2="800" y2="168" stroke="#518DD2" stroke-width="0.3" opacity="0.06"/><line x1="0" y1="210" x2="800" y2="210" stroke="#518DD2" stroke-width="0.3" opacity="0.06"/><line x1="0" y1="252" x2="800" y2="252" stroke="#518DD2" stroke-width="0.3" opacity="0.06"/><line x1="0" y1="294" x2="800" y2="294" stroke="#518DD2" stroke-width="0.3" opacity="0.06"/><line x1="0" y1="336" x2="800" y2="336" stroke="#518DD2" stroke-width="0.3" opacity="0.06"/><line x1="0" y1="378" x2="800" y2="378" stroke="#518DD2" stroke-width="0.3" opacity="0.06"/><line x1="0" y1="420" x2="800" y2="420" stroke="#518DD2" stroke-width="0.3" opacity="0.06"/><line x1="0" y1="462" x2="800" y2="462" stroke="#518DD2" stroke-width="0.3" opacity="0.06"/>
</svg>