<?xml version="1.0" encoding="UTF-8"?>
<svg xmlns="http://www.w3.org/2000/svg" viewBox="0 0 800 450" fill="none">
  <rect width="800" height="450" fill="#100A1A"/>
  <polyline points="640.0,225.0 639.0,232.5 636.1,239.8 631.3,246.8 624.7,253.2 616.6,258.9 607.0,263.8 596.3,267.8 584.7,270.7 572.5,272.4 560.0,273.0 547.5,272.4 535.3,270.7 523.7,267.8 513.0,263.8 503.4,258.9 495.3,253.2 488.7,246.8 483.9,239.8 481.0,232.5 480.0,225.0 481.0,217.5 483.9,210.2 488.7,203.2 495.3,196.8 503.4,191.1 513.0,186.2 523.7,182.2 535.3,179.3 547.5,177.6 560.0,177.0 572.5,177.6 584.7,179.3 596.3,182.2 607.0,186.2 616.6,191.1 624.7,196.8 631.3,203.2 636.1,210.2 639.0,217.5" stroke="#9874D2" stroke-width="0.6" opacity="0.6" fill="none"/><polyline points="631.8,249.8 630.9,257.3 628.0,264.3 623.4,270.7 617.1,276.5 609.2,281.4 600.0,285.3 589.6,288.1 578.4,289.8 566.6,290.3 554.5,289.6 542.5,287.7 530.7,284.7 519.5,280.6 509.1,275.5 499.9,269.6 492.0,263.1 485.7,256.0 481.1,248.5 478.2,240.9 477.3,233.3 478.2,225.9 481.1,218.9 485.7,212.4 492.0,206.7 499.9,201.8 509.1,197.9 519.5,195.0 530.7,193.4 542.5,192.9 554.5,193.6 566.6,195.5 578.4,198.5 589.6,202.6 600.0,207.6 609.2,213.5 617.1,220.1 623.4,227.2 628.0,234.6 630.9,242.2" stroke="#9874D2" stroke-width="0.6" opacity="0.5897777478867205" fill="none"/><polyline points="607.8,273.0 607.0,280.3 604.5,287.0 600.3,293.0 594.6,298.2 587.6,302.3 579.3,305.2 570.0,307.0 560.0,307.6 549.4,306.9 538.6,305.0 527.7,301.9 517.2,297.7 507.1,292.5 497.8,286.4 489.6,279.6 482.5,272.3 476.8,264.5 472.7,256.6 470.1,248.7 469.3,241.0 470.1,233.7 472.7,227.0 476.8,221.0 482.5,215.8 489.6,211.7 497.8,208.8 507.1,207.0 517.2,206.4 527.7,207.1 538.6,209.0 549.4,212.1 560.0,216.3 570.0,221.5 579.3,227.6 587.6,234.4 594.6,241.7 600.3,249.5 604.5,257.4 607.0,265.3" stroke="#9874D2" stroke-width="0.6" opacity="0.5598076211353316" fill="none"/><polyline points="569.7,292.9 569.0,300.1 566.9,306.6 563.5,312.2 558.9,316.8 553.1,320.2 546.4,322.4 538.8,323.3 530.6,322.9 522.0,321.2 513.1,318.3 504.3,314.1 495.7,308.9 487.5,302.8 479.9,295.8 473.1,288.2 467.4,280.2 462.7,271.9 459.3,263.6 457.3,255.4 456.6,247.6 457.3,240.4 459.3,233.9 462.7,228.3 467.4,223.7 473.1,220.3 479.9,218.1 487.5,217.2 495.7,217.6 504.3,219.3 513.1,222.3 522.0,226.4 530.6,231.6 538.8,237.8 546.4,244.7 553.1,252.3 558.9,260.3 563.5,268.6 566.9,276.9 569.0,285.1" stroke="#9874D2" stroke-width="0.6" opacity="0.5121320343559642" fill="none"/><polyline points="520.0,308.1 519.5,315.3 518.0,321.6 515.6,326.9 512.4,331.1 508.3,334.0 503.5,335.5 498.2,335.8 492.4,334.6 486.3,332.2 480.0,328.4 473.7,323.5 467.6,317.5 461.8,310.6 456.5,303.0 451.7,294.8 447.6,286.2 444.4,277.5 442.0,268.9 440.5,260.6 440.0,252.7 440.5,245.5 442.0,239.2 444.4,233.9 447.6,229.8 451.7,226.9 456.5,225.3 461.8,225.1 467.6,226.2 473.7,228.7 480.0,232.4 486.3,237.4 492.4,243.3 498.2,250.2 503.5,257.9 508.3,266.1 512.4,274.6 515.6,283.3 518.0,291.9 519.5,300.3" stroke="#9874D2" stroke-width="0.6" opacity="0.45" fill="none"/><polyline points="462.1,317.7 461.9,324.9 461.1,331.0 459.9,336.2 458.2,340.0 456.1,342.6 453.6,343.8 450.8,343.6 447.8,342.0 444.7,339.1 441.4,334.8 438.2,329.4 435.0,322.9 432.0,315.6 429.2,307.5 426.8,298.9 424.7,290.0 423.0,281.1 421.7,272.3 421.0,263.8 420.7,255.9 421.0,248.8 421.7,242.6 423.0,237.5 424.7,233.6 426.8,231.0 429.2,229.8 432.0,230.0 435.0,231.6 438.2,234.6 441.4,238.8 444.7,244.2 447.8,250.7 450.8,258.1 453.6,266.2 456.1,274.7 458.2,283.6 459.9,292.6 461.1,301.4 461.9,309.8" stroke="#9874D2" stroke-width="0.6" opacity="0.3776457135307562" fill="none"/><polyline points="400.0,321.0 400.0,328.1 400.0,334.3 400.0,339.3 400.0,343.1 400.0,345.6 400.0,346.6 400.0,346.3 400.0,344.5 400.0,341.4 400.0,337.0 400.0,331.4 400.0,324.8 400.0,317.2 400.0,309.0 400.0,300.3 400.0,291.3 400.0,282.3 400.0,273.4 400.0,264.9 400.0,257.0 400.0,249.9 400.0,243.7 400.0,238.7 400.0,234.9 400.0,232.4 400.0,231.4 400.0,231.7 400.0,233.5 400.0,236.6 400.0,241.0 400.0,246.6 400.0,253.2 400.0,260.8 400.0,269.0 400.0,277.7 400.0,286.7 400.0,295.7 400.0,304.6 400.0,313.1" stroke="#9874D2" stroke-width="0.6" opacity="0.3" fill="none"/><polyline points="337.9,317.7 338.1,324.9 338.9,331.0 340.1,336.2 341.8,340.0 343.9,342.6 346.4,343.8 349.2,343.6 352.2,342.0 355.3,339.1 358.6,334.8 361.8,329.4 365.0,322.9 368.0,315.6 370.8,307.5 373.2,298.9 375.3,290.0 377.0,281.1 378.3,272.3 379.0,263.8 379.3,255.9 379.0,248.8 378.3,242.6 377.0,237.5 375.3,233.6 373.2,231.0 370.8,229.8 368.0,230.0 365.0,231.6 361.8,234.6 358.6,238.8 355.3,244.2 352.2,250.7 349.2,258.1 346.4,266.2 343.9,274.7 341.8,283.6 340.1,292.6 338.9,301.4 338.1,309.8" stroke="#9874D2" stroke-width="0.6" opacity="0.37764571353075627" fill="none"/><polyline points="280.0,308.1 280.5,315.3 282.0,321.6 284.4,326.9 287.6,331.1 291.7,334.0 296.5,335.5 301.8,335.8 307.6,334.6 313.7,332.2 320.0,328.4 326.3,323.5 332.4,317.5 338.2,310.6 343.5,303.0 348.3,294.8 352.4,286.2 355.6,277.5 358.0,268.9 359.5,260.6 360.0,252.7 359.5,245.5 358.0,239.2 355.6,233.9 352.4,229.8 348.3,226.9 343.5,225.3 338.2,225.1 332.4,226.2 326.3,228.7 320.0,232.4 313.7,237.4 307.6,243.3 301.8,250.2 296.5,257.9 291.7,266.1 287.6,274.6 284.4,283.3 282.0,291.9 280.5,300.3" stroke="#9874D2" stroke-width="0.6" opacity="0.44999999999999996" fill="none"/><polyline points="230.3,292.9 231.0,300.1 233.1,306.6 236.5,312.2 241.1,316.8 246.9,320.2 253.6,322.4 261.2,323.3 269.4,322.9 278.0,321.2 286.9,318.3 295.7,314.1 304.3,308.9 312.5,302.8 320.1,295.8 326.9,288.2 332.6,280.2 337.3,271.9 340.7,263.6 342.7,255.4 343.4,247.6 342.7,240.4 340.7,233.9 337.3,228.3 332.6,223.7 326.9,220.3 320.1,218.1 312.5,217.2 304.3,217.6 295.7,219.3 286.9,222.3 278.0,226.4 269.4,231.6 261.2,237.8 253.6,244.7 246.9,252.3 241.1,260.3 236.5,268.6 233.1,276.9 231.0,285.1" stroke="#9874D2" stroke-width="0.6" opacity="0.5121320343559642" fill="none"/><polyline points="192.2,273.0 193.0,280.3 195.5,287.0 199.7,293.0 205.4,298.2 212.4,302.3 220.7,305.2 230.0,307.0 240.0,307.6 250.6,306.9 261.4,305.0 272.3,301.9 282.8,297.7 292.9,292.5 302.2,286.4 310.4,279.6 317.5,272.3 323.2,264.5 327.3,256.6 329.9,248.7 330.7,241.0 329.9,233.7 327.3,227.0 323.2,221.0 317.5,215.8 310.4,211.7 302.2,208.8 292.9,207.0 282.8,206.4 272.3,207.1 261.4,209.0 250.6,212.1 240.0,216.3 230.0,221.5 220.7,227.6 212.4,234.4 205.4,241.7 199.7,249.5 195.5,257.4 193.0,265.3" stroke="#9874D2" stroke-width="0.6" opacity="0.5598076211353316" fill="none"/><polyline points="168.2,249.8 169.1,257.3 172.0,264.3 176.6,270.7 182.9,276.5 190.8,281.4 200.0,285.3 210.4,288.1 221.6,289.8 233.4,290.3 245.5,289.6 257.5,287.7 269.3,284.7 280.5,280.6 290.9,275.5 300.1,269.6 308.0,263.1 314.3,256.0 318.9,248.5 321.8,240.9 322.7,233.3 321.8,225.9 318.9,218.9 314.3,212.4 308.0,206.7 300.1,201.8 290.9,197.9 280.5,195.0 269.3,193.4 257.5,192.9 245.5,193.6 233.4,195.5 221.6,198.5 210.4,202.6 200.0,207.6 190.8,213.5 182.9,220.1 176.6,227.2 172.0,234.6 169.1,242.2" stroke="#9874D2" stroke-width="0.6" opacity="0.5897777478867204" fill="none"/><polyline points="160.0,225.0 161.0,232.5 163.9,239.8 168.7,246.8 175.3,253.2 183.4,258.9 193.0,263.8 203.7,267.8 215.3,270.7 227.5,272.4 240.0,273.0 252.5,272.4 264.7,270.7 276.3,267.8 287.0,263.8 296.6,258.9 304.7,253.2 311.3,246.8 316.1,239.8 319.0,232.5 320.0,225.0 319.0,217.5 316.1,210.2 311.3,203.2 304.7,196.8 296.6,191.1 287.0,186.2 276.3,182.2 264.7,179.3 252.5,177.6 240.0,177.0 227.5,177.6 215.3,179.3 203.7,182.2 193.0,186.2 183.4,191.1 175.3,196.8 168.7,203.2 163.9,210.2 161.0,217.5" stroke="#9874D2" stroke-width="0.6" opacity="0.6" fill="none"/><polyline points="168.2,200.2 169.1,207.8 172.0,215.4 176.6,222.8 182.9,229.9 190.8,236.5 200.0,242.4 210.4,247.4 221.6,251.5 233.4,254.5 245.5,256.4 257.5,257.1 269.3,256.6 280.5,255.0 290.9,252.1 300.1,248.2 308.0,243.3 314.3,237.6 318.9,231.1 321.8,224.1 322.7,216.7 321.8,209.1 318.9,201.5 314.3,194.0 308.0,186.9 300.1,180.4 290.9,174.5 280.5,169.4 269.3,165.3 257.5,162.3 245.5,160.4 233.4,159.7 221.6,160.2 210.4,161.9 200.0,164.7 190.8,168.6 182.9,173.5 176.6,179.3 172.0,185.7 169.1,192.7" stroke="#9874D2" stroke-width="0.6" opacity="0.5897777478867205" fill="none"/><polyline points="192.2,177.0 193.0,184.7 195.5,192.6 199.7,200.5 205.4,208.3 212.4,215.6 220.7,222.4 230.0,228.5 240.0,233.7 250.6,237.9 261.4,241.0 272.3,242.9 282.8,243.6 292.9,243.0 302.2,241.2 310.4,238.3 317.5,234.2 323.2,229.0 327.3,223.0 329.9,216.3 330.7,209.0 329.9,201.3 327.3,193.4 323.2,185.5 317.5,177.7 310.4,170.4 302.2,163.6 292.9,157.5 282.8,152.3 272.3,148.1 261.4,145.0 250.6,143.1 240.0,142.4 230.0,143.0 220.7,144.8 212.4,147.7 205.4,151.8 199.7,157.0 195.5,163.0 193.0,169.7" stroke="#9874D2" stroke-width="0.6" opacity="0.5598076211353316" fill="none"/><polyline points="230.3,157.1 231.0,164.9 233.1,173.1 236.5,181.4 241.1,189.7 246.9,197.7 253.6,205.3 261.2,212.2 269.4,218.4 278.0,223.6 286.9,227.7 295.7,230.7 304.3,232.4 312.5,232.8 320.1,231.9 326.9,229.7 332.6,226.3 337.3,221.7 340.7,216.1 342.7,209.6 343.4,202.4 342.7,194.6 340.7,186.4 337.3,178.1 332.6,169.8 326.9,161.8 320.1,154.2 312.5,147.2 304.3,141.1 295.7,135.9 286.9,131.7 278.0,128.8 269.4,127.1 261.2,126.7 253.6,127.6 246.9,129.8 241.1,133.2 236.5,137.8 233.1,143.4 231.0,149.9" stroke="#9874D2" stroke-width="0.6" opacity="0.5121320343559643" fill="none"/><polyline points="280.0,141.9 280.5,149.7 282.0,158.1 284.4,166.7 287.6,175.4 291.7,183.9 296.5,192.1 301.8,199.8 307.6,206.7 313.7,212.6 320.0,217.6 326.3,221.3 332.4,223.8 338.2,224.9 343.5,224.7 348.3,223.1 352.4,220.2 355.6,216.1 358.0,210.8 359.5,204.5 360.0,197.3 359.5,189.4 358.0,181.1 355.6,172.5 352.4,163.8 348.3,155.2 343.5,147.0 338.2,139.4 332.4,132.5 326.3,126.5 320.0,121.6 313.7,117.8 307.6,115.4 301.8,114.2 296.5,114.5 291.7,116.0 287.6,118.9 284.4,123.1 282.0,128.4 280.5,134.7" stroke="#9874D2" stroke-width="0.6" opacity="0.4500000000000001" fill="none"/><polyline points="337.9,132.3 338.1,140.2 338.9,148.6 340.1,157.4 341.8,166.4 343.9,175.3 346.4,183.8 349.2,191.9 352.2,199.3 355.3,205.8 358.6,211.2 361.8,215.4 365.0,218.4 368.0,220.0 370.8,220.2 373.2,219.0 375.3,216.4 377.0,212.5 378.3,207.4 379.0,201.2 379.3,194.1 379.0,186.2 378.3,177.7 377.0,168.9 375.3,160.0 373.2,151.1 370.8,142.5 368.0,134.4 365.0,127.1 361.8,120.6 358.6,115.2 355.3,110.9 352.2,108.0 349.2,106.4 346.4,106.2 343.9,107.4 341.8,110.0 340.1,113.8 338.9,119.0 338.1,125.1" stroke="#9874D2" stroke-width="0.6" opacity="0.37764571353075616" fill="none"/><polyline points="400.0,129.0 400.0,136.9 400.0,145.4 400.0,154.3 400.0,163.3 400.0,172.3 400.0,181.0 400.0,189.2 400.0,196.8 400.0,203.4 400.0,209.0 400.0,213.4 400.0,216.5 400.0,218.3 400.0,218.6 400.0,217.6 400.0,215.1 400.0,211.3 400.0,206.3 400.0,200.1 400.0,193.0 400.0,185.1 400.0,176.6 400.0,167.7 400.0,158.7 400.0,149.7 400.0,141.0 400.0,132.8 400.0,125.2 400.0,118.6 400.0,113.0 400.0,108.6 400.0,105.5 400.0,103.7 400.0,103.4 400.0,104.4 400.0,106.9 400.0,110.7 400.0,115.7 400.0,121.9" stroke="#9874D2" stroke-width="0.6" opacity="0.30000000000000004" fill="none"/><polyline points="462.1,132.3 461.9,140.2 461.1,148.6 459.9,157.4 458.2,166.4 456.1,175.3 453.6,183.8 450.8,191.9 447.8,199.3 444.7,205.8 441.4,211.2 438.2,215.4 435.0,218.4 432.0,220.0 429.2,220.2 426.8,219.0 424.7,216.4 423.0,212.5 421.7,207.4 421.0,201.2 420.7,194.1 421.0,186.2 421.7,177.7 423.0,168.9 424.7,160.0 426.8,151.1 429.2,142.5 432.0,134.4 435.0,127.1 438.2,120.6 441.4,115.2 444.7,110.9 447.8,108.0 450.8,106.4 453.6,106.2 456.1,107.4 458.2,110.0 459.9,113.8 461.1,119.0 461.9,125.1" stroke="#9874D2" stroke-width="0.6" opacity="0.37764571353075604" fill="none"/><polyline points="520.0,141.9 519.5,149.7 518.0,158.1 515.6,166.7 512.4,175.4 508.3,183.9 503.5,192.1 498.2,199.8 492.4,206.7 486.3,212.6 480.0,217.6 473.7,221.3 467.6,223.8 461.8,224.9 456.5,224.7 451.7,223.1 447.6,220.2 444.4,216.1 442.0,210.8 440.5,204.5 440.0,197.3 440.5,189.4 442.0,181.1 444.4,172.5 447.6,163.8 451.7,155.2 456.5,147.0 461.8,139.4 467.6,132.5 473.7,126.5 480.0,121.6 486.3,117.8 492.4,115.4 498.2,114.2 503.5,114.5 508.3,116.0 512.4,118.9 515.6,123.1 518.0,128.4 519.5,134.7" stroke="#9874D2" stroke-width="0.6" opacity="0.45" fill="none"/><polyline points="569.7,157.1 569.0,164.9 566.9,173.1 563.5,181.4 558.9,189.7 553.1,197.7 546.4,205.3 538.8,212.2 530.6,218.4 522.0,223.6 513.1,227.7 504.3,230.7 495.7,232.4 487.5,232.8 479.9,231.9 473.1,229.7 467.4,226.3 462.7,221.7 459.3,216.1 457.3,209.6 456.6,202.4 457.3,194.6 459.3,186.4 462.7,178.1 467.4,169.8 473.1,161.8 479.9,154.2 487.5,147.2 495.7,141.1 504.3,135.9 513.1,131.7 522.0,128.8 530.6,127.1 538.8,126.7 546.4,127.6 553.1,129.8 558.9,133.2 563.5,137.8 566.9,143.4 569.0,149.9" stroke="#9874D2" stroke-width="0.6" opacity="0.5121320343559642" fill="none"/><polyline points="607.8,177.0 607.0,184.7 604.5,192.6 600.3,200.5 594.6,208.3 587.6,215.6 579.3,222.4 570.0,228.5 560.0,233.7 549.4,237.9 538.6,241.0 527.7,242.9 517.2,243.6 507.1,243.0 497.8,241.2 489.6,238.3 482.5,234.2 476.8,229.0 472.7,223.0 470.1,216.3 469.3,209.0 470.1,201.3 472.7,193.4 476.8,185.5 482.5,177.7 489.6,170.4 497.8,163.6 507.1,157.5 517.2,152.3 527.7,148.1 538.6,145.0 549.4,143.1 560.0,142.4 570.0,143.0 579.3,144.8 587.6,147.7 594.6,151.8 600.3,157.0 604.5,163.0 607.0,169.7" stroke="#9874D2" stroke-width="0.6" opacity="0.5598076211353316" fill="none"/><polyline points="631.8,200.2 630.9,207.8 628.0,215.4 623.4,222.8 617.1,229.9 609.2,236.5 600.0,242.4 589.6,247.4 578.4,251.5 566.6,254.5 554.5,256.4 542.5,257.1 530.7,256.6 519.5,255.0 509.1,252.1 499.9,248.2 492.0,243.3 485.7,237.6 481.1,231.1 478.2,224.1 477.3,216.7 478.2,209.1 481.1,201.5 485.7,194.0 492.0,186.9 499.9,180.4 509.1,174.5 519.5,169.4 530.7,165.3 542.5,162.3 554.5,160.4 566.6,159.7 578.4,160.2 589.6,161.9 600.0,164.7 609.2,168.6 617.1,173.5 623.4,179.3 628.0,185.7 630.9,192.7" stroke="#9874D2" stroke-width="0.6" opacity="0.5897777478867205" fill="none"/>
  <!-- cross-section rings -->
  <ellipse cx="560.0" cy="225.0" rx="80" ry="48" stroke="#9874D2" stroke-width="0.5" opacity="0.4" fill="none"/><ellipse cx="538.6" cy="257.0" rx="80" ry="48" stroke="#9874D2" stroke-width="0.5" opacity="0.37320508075688774" fill="none"/><ellipse cx="480.0" cy="280.4" rx="80" ry="48" stroke="#9874D2" stroke-width="0.5" opacity="0.30000000000000004" fill="none"/><ellipse cx="400.0" cy="289.0" rx="80" ry="48" stroke="#9874D2" stroke-width="0.5" opacity="0.2" fill="none"/><ellipse cx="320.0" cy="280.4" rx="80" ry="48" stroke="#9874D2" stroke-width="0.5" opacity="0.3" fill="none"/><ellipse cx="261.4" cy="257.0" rx="80" ry="48" stroke="#9874D2" stroke-width="0.5" opacity="0.37320508075688774" fill="none"/><ellipse cx="240.0" cy="225.0" rx="80" ry="48" stroke="#9874D2" stroke-width="0.5" opacity="0.4" fill="none"/><ellipse cx="261.4" cy="193.0" rx="80" ry="48" stroke="#9874D2" stroke-width="0.5" opacity="0.37320508075688774" fill="none"/><ellipse cx="320.0" cy="169.6" rx="80" ry="48" stroke="#9874D2" stroke-width="0.5" opacity="0.3000000000000001" fill="none"/><ellipse cx="400.0" cy="161.0" rx="80" ry="48" stroke="#9874D2" stroke-width="0.5" opacity="0.20000000000000004" fill="none"/><ellipse cx="480.0" cy="169.6" rx="80" ry="48" stroke="#9874D2" stroke-width="0.5" opacity="0.30000000000000004" fill="none"/><ellipse cx="538.6" cy="193.0" rx="80" ry="48" stroke="#9874D2" stroke-width="0.5" opacity="0.3732050807568877" fill="none"/>
</svg>