<?xml version="1.0" encoding="UTF-8"?>
<svg xmlns="http://www.w3.org/2000/svg" viewBox="0 0 800 450" fill="none">
  <rect width="800" height="450" fill="#F7F8F4"/>
  <rect width="400" height="450" fill="#151515"/>
  <linearGradient id="sg1" x1="0" y1="0" x2="1" y2="0">
    <stop offset="0%" stop-color="#151515"/>
    <stop offset="100%" stop-color="#F7F8F4"/>
  </linearGradient>
  <rect x="360" width="80" height="450" fill="url(#sg1)"/>
  <line x1="0" y1="0" x2="800" y2="0" stroke="#518DD2" stroke-width="0.4" opacity="0.12"/><line x1="0" y1="56" x2="800" y2="56" stroke="#518DD2" stroke-width="0.4" opacity="0.12"/><line x1="0" y1="112" x2="800" y2="112" stroke="#518DD2" stroke-width="0.4" opacity="0.12"/><line x1="0" y1="168" x2="800" y2="168" stroke="#518DD2" stroke-width="0.4" opacity="0.12"/><line x1="0" y1="224" x2="800" y2="224" stroke="#518DD2" stroke-width="0.4" opacity="0.12"/><line x1="0" y1="280" x2="800" y2="280" stroke="#518DD2" stroke-width="0.4" opacity="0.12"/><line x1="0" y1="336" x2="800" y2="336" stroke="#518DD2" stroke-width="0.4" opacity="0.12"/><line x1="0" y1="392" x2="800" y2="392" stroke="#518DD2" stroke-width="0.4" opacity="0.12"/><line x1="0" y1="448" x2="800" y2="448" stroke="#518DD2" stroke-width="0.4" opacity="0.12"/>
  <line x1="400" y1="0" x2="400" y2="450" stroke="#518DD2" stroke-width="1" opacity="0.3"/>
  <line x1="0" y1="0" x2="0" y2="450" stroke="#E9EBDF" stroke-width="0.4" opacity="0.08"/><line x1="70" y1="0" x2="70" y2="450" stroke="#E9EBDF" stroke-width="0.4" opacity="0.08"/><line x1="140" y1="0" x2="140" y2="450" stroke="#E9EBDF" stroke-width="0.4" opacity="0.08"/><line x1="210" y1="0" x2="210" y2="450" stroke="#E9EBDF" stroke-width="0.4" opacity="0.08"/><line x1="280" y1="0" x2="280" y2="450" stroke="#E9EBDF" stroke-width="0.4" opacity="0.08"/><line x1="350" y1="0" x2="350" y2="450" stroke="#E9EBDF" stroke-width="0.4" opacity="0.08"/>
  <line x1="420" y1="0" x2="420" y2="450" stroke="#151515" stroke-width="0.4" opacity="0.08"/><line x1="490" y1="0" x2="490" y2="450" stroke="#151515" stroke-width="0.4" opacity="0.08"/><line x1="560" y1="0" x2="560" y2="450" stroke="#151515" stroke-width="0.4" opacity="0.08"/><line x1="630" y1="0" x2="630" y2="450" stroke="#151515" stroke-width="0.4" opacity="0.08"/><line x1="700" y1="0" x2="700" y2="450" stroke="#151515" stroke-width="0.4" opacity="0.08"/><line x1="770" y1="0" x2="770" y2="450" stroke="#151515" stroke-width="0.4" opacity="0.08"/>
</svg>