<?xml version="1.0" encoding="UTF-8"?>
<svg xmlns="http://www.w3.org/2000/svg" viewBox="0 0 800 450" fill="none">
  <rect width="800" height="450" fill="#080E1A"/>
  <g opacity="0.15"><circle cx="21" cy="19" r="5" stroke="#518DD2" stroke-width="1" fill="none"/></g><g opacity="0.54"><circle cx="63" cy="19" r="2" fill="#3A6BA8"/></g><g opacity="0.64"><rect x="100" y="14" width="10" height="10" stroke="#518DD2" stroke-width="1" fill="none"/></g><g opacity="0.36"><path d="M141 19 h12 M147 13 v12" stroke="#3A6BA8" stroke-width="1.2"/></g><g opacity="0.37"><path d="M184 14 L194 24 M194 14 L184 24" stroke="#518DD2" stroke-width="1"/></g><g opacity="0.64"><polygon points="231,12 238,19 231,26 224,19" stroke="#3A6BA8" stroke-width="1" fill="none"/></g><g opacity="0.54"><polygon points="273,12 279,22.5 267,22.5" stroke="#518DD2" stroke-width="1" fill="none"/></g><g opacity="0.16"><circle cx="315" cy="19" r="5" stroke="#3A6BA8" stroke-width="1" fill="none"/></g><g opacity="0.55"><circle cx="357" cy="19" r="2" fill="#518DD2"/></g><g opacity="0.63"><rect x="394" y="14" width="10" height="10" stroke="#3A6BA8" stroke-width="1" fill="none"/></g><g opacity="0.36"><path d="M435 19 h12 M441 13 v12" stroke="#518DD2" stroke-width="1.2"/></g><g opacity="0.38"><path d="M478 14 L488 24 M488 14 L478 24" stroke="#3A6BA8" stroke-width="1"/></g><g opacity="0.64"><polygon points="525,12 532,19 525,26 518,19" stroke="#518DD2" stroke-width="1" fill="none"/></g><g opacity="0.53"><polygon points="567,12 573,22.5 561,22.5" stroke="#3A6BA8" stroke-width="1" fill="none"/></g><g opacity="0.17"><circle cx="609" cy="19" r="5" stroke="#518DD2" stroke-width="1" fill="none"/></g><g opacity="0.55"><circle cx="651" cy="19" r="2" fill="#3A6BA8"/></g><g opacity="0.63"><rect x="688" y="14" width="10" height="10" stroke="#518DD2" stroke-width="1" fill="none"/></g><g opacity="0.35"><path d="M729 19 h12 M735 13 v12" stroke="#3A6BA8" stroke-width="1.2"/></g><g opacity="0.39"><path d="M772 14 L782 24 M782 14 L772 24" stroke="#518DD2" stroke-width="1"/></g><g opacity="0.64"><polygon points="819,12 826,19 819,26 812,19" stroke="#3A6BA8" stroke-width="1" fill="none"/></g><g opacity="0.61"><rect x="16" y="52" width="10" height="10" stroke="#9CBFE7" stroke-width="1" fill="none"/></g><g opacity="0.59"><path d="M57 57 h12 M63 51 v12" stroke="#6AAEE0" stroke-width="1.2"/></g><g opacity="0.24"><path d="M100 52 L110 62 M110 52 L100 62" stroke="#9CBFE7" stroke-width="1"/></g><g opacity="0.48"><polygon points="147,50 154,57 147,64 140,57" stroke="#6AAEE0" stroke-width="1" fill="none"/></g><g opacity="0.65"><polygon points="189,50 195,60.5 183,60.5" stroke="#9CBFE7" stroke-width="1" fill="none"/></g><g opacity="0.44"><circle cx="231" cy="57" r="5" stroke="#6AAEE0" stroke-width="1" fill="none"/></g><g opacity="0.29"><circle cx="273" cy="57" r="2" fill="#9CBFE7"/></g><g opacity="0.61"><rect x="310" y="52" width="10" height="10" stroke="#6AAEE0" stroke-width="1" fill="none"/></g><g opacity="0.58"><path d="M351 57 h12 M357 51 v12" stroke="#9CBFE7" stroke-width="1.2"/></g><g opacity="0.23"><path d="M394 52 L404 62 M404 52 L394 62" stroke="#6AAEE0" stroke-width="1"/></g><g opacity="0.49"><polygon points="441,50 448,57 441,64 434,57" stroke="#9CBFE7" stroke-width="1" fill="none"/></g><g opacity="0.65"><polygon points="483,50 489,60.5 477,60.5" stroke="#6AAEE0" stroke-width="1" fill="none"/></g><g opacity="0.43"><circle cx="525" cy="57" r="5" stroke="#9CBFE7" stroke-width="1" fill="none"/></g><g opacity="0.30"><circle cx="567" cy="57" r="2" fill="#6AAEE0"/></g><g opacity="0.62"><rect x="604" y="52" width="10" height="10" stroke="#9CBFE7" stroke-width="1" fill="none"/></g><g opacity="0.58"><path d="M645 57 h12 M651 51 v12" stroke="#6AAEE0" stroke-width="1.2"/></g><g opacity="0.22"><path d="M688 52 L698 62 M698 52 L688 62" stroke="#9CBFE7" stroke-width="1"/></g><g opacity="0.50"><polygon points="735,50 742,57 735,64 728,57" stroke="#6AAEE0" stroke-width="1" fill="none"/></g><g opacity="0.65"><polygon points="777,50 783,60.5 771,60.5" stroke="#9CBFE7" stroke-width="1" fill="none"/></g><g opacity="0.42"><circle cx="819" cy="57" r="5" stroke="#6AAEE0" stroke-width="1" fill="none"/></g><g opacity="0.51"><path d="M16 90 L26 100 M26 90 L16 100" stroke="#3A6BA8" stroke-width="1"/></g><g opacity="0.20"><polygon points="63,88 70,95 63,102 56,95" stroke="#518DD2" stroke-width="1" fill="none"/></g><g opacity="0.57"><polygon points="105,88 111,98.5 99,98.5" stroke="#3A6BA8" stroke-width="1" fill="none"/></g><g opacity="0.62"><circle cx="147" cy="95" r="5" stroke="#518DD2" stroke-width="1" fill="none"/></g><g opacity="0.32"><circle cx="189" cy="95" r="2" fill="#3A6BA8"/></g><g opacity="0.41"><rect x="226" y="90" width="10" height="10" stroke="#518DD2" stroke-width="1" fill="none"/></g><g opacity="0.65"><path d="M267 95 h12 M273 89 v12" stroke="#3A6BA8" stroke-width="1.2"/></g><g opacity="0.50"><path d="M310 90 L320 100 M320 90 L310 100" stroke="#518DD2" stroke-width="1"/></g><g opacity="0.21"><polygon points="357,88 364,95 357,102 350,95" stroke="#3A6BA8" stroke-width="1" fill="none"/></g><g opacity="0.57"><polygon points="399,88 405,98.5 393,98.5" stroke="#518DD2" stroke-width="1" fill="none"/></g><g opacity="0.62"><circle cx="441" cy="95" r="5" stroke="#3A6BA8" stroke-width="1" fill="none"/></g><g opacity="0.31"><circle cx="483" cy="95" r="2" fill="#518DD2"/></g><g opacity="0.42"><rect x="520" y="90" width="10" height="10" stroke="#3A6BA8" stroke-width="1" fill="none"/></g><g opacity="0.65"><path d="M561 95 h12 M567 89 v12" stroke="#518DD2" stroke-width="1.2"/></g><g opacity="0.50"><path d="M604 90 L614 100 M614 90 L604 100" stroke="#3A6BA8" stroke-width="1"/></g><g opacity="0.22"><polygon points="651,88 658,95 651,102 644,95" stroke="#518DD2" stroke-width="1" fill="none"/></g><g opacity="0.58"><polygon points="693,88 699,98.5 687,98.5" stroke="#3A6BA8" stroke-width="1" fill="none"/></g><g opacity="0.62"><circle cx="735" cy="95" r="5" stroke="#518DD2" stroke-width="1" fill="none"/></g><g opacity="0.30"><circle cx="777" cy="95" r="2" fill="#3A6BA8"/></g><g opacity="0.43"><rect x="814" y="90" width="10" height="10" stroke="#518DD2" stroke-width="1" fill="none"/></g><g opacity="0.33"><polygon points="21,126 27,136.5 15,136.5" stroke="#6AAEE0" stroke-width="1" fill="none"/></g><g opacity="0.63"><circle cx="63" cy="133" r="5" stroke="#9CBFE7" stroke-width="1" fill="none"/></g><g opacity="0.56"><circle cx="105" cy="133" r="2" fill="#6AAEE0"/></g><g opacity="0.19"><rect x="142" y="128" width="10" height="10" stroke="#9CBFE7" stroke-width="1" fill="none"/></g><g opacity="0.52"><path d="M183 133 h12 M189 127 v12" stroke="#6AAEE0" stroke-width="1.2"/></g><g opacity="0.64"><path d="M226 128 L236 138 M236 128 L226 138" stroke="#9CBFE7" stroke-width="1"/></g><g opacity="0.40"><polygon points="273,126 280,133 273,140 266,133" stroke="#6AAEE0" stroke-width="1" fill="none"/></g><g opacity="0.34"><polygon points="315,126 321,136.5 309,136.5" stroke="#9CBFE7" stroke-width="1" fill="none"/></g><g opacity="0.63"><circle cx="357" cy="133" r="5" stroke="#6AAEE0" stroke-width="1" fill="none"/></g><g opacity="0.56"><circle cx="399" cy="133" r="2" fill="#9CBFE7"/></g><g opacity="0.18"><rect x="436" y="128" width="10" height="10" stroke="#6AAEE0" stroke-width="1" fill="none"/></g><g opacity="0.52"><path d="M477 133 h12 M483 127 v12" stroke="#9CBFE7" stroke-width="1.2"/></g><g opacity="0.64"><path d="M520 128 L530 138 M530 128 L520 138" stroke="#6AAEE0" stroke-width="1"/></g><g opacity="0.39"><polygon points="567,126 574,133 567,140 560,133" stroke="#9CBFE7" stroke-width="1" fill="none"/></g><g opacity="0.35"><polygon points="609,126 615,136.5 603,136.5" stroke="#6AAEE0" stroke-width="1" fill="none"/></g><g opacity="0.63"><circle cx="651" cy="133" r="5" stroke="#9CBFE7" stroke-width="1" fill="none"/></g><g opacity="0.55"><circle cx="693" cy="133" r="2" fill="#6AAEE0"/></g><g opacity="0.17"><rect x="730" y="128" width="10" height="10" stroke="#9CBFE7" stroke-width="1" fill="none"/></g><g opacity="0.53"><path d="M771 133 h12 M777 127 v12" stroke="#6AAEE0" stroke-width="1.2"/></g><g opacity="0.64"><path d="M814 128 L824 138 M824 128 L814 138" stroke="#9CBFE7" stroke-width="1"/></g><g opacity="0.65"><circle cx="21" cy="171" r="2" fill="#518DD2"/></g><g opacity="0.47"><rect x="58" y="166" width="10" height="10" stroke="#3A6BA8" stroke-width="1" fill="none"/></g><g opacity="0.25"><path d="M99 171 h12 M105 165 v12" stroke="#518DD2" stroke-width="1.2"/></g><g opacity="0.59"><path d="M142 166 L152 176 M152 166 L142 176" stroke="#3A6BA8" stroke-width="1"/></g><g opacity="0.61"><polygon points="189,164 196,171 189,178 182,171" stroke="#518DD2" stroke-width="1" fill="none"/></g><g opacity="0.27"><polygon points="231,164 237,174.5 225,174.5" stroke="#3A6BA8" stroke-width="1" fill="none"/></g><g opacity="0.45"><circle cx="273" cy="171" r="5" stroke="#518DD2" stroke-width="1" fill="none"/></g><g opacity="0.65"><circle cx="315" cy="171" r="2" fill="#3A6BA8"/></g><g opacity="0.47"><rect x="352" y="166" width="10" height="10" stroke="#518DD2" stroke-width="1" fill="none"/></g><g opacity="0.26"><path d="M393 171 h12 M399 165 v12" stroke="#3A6BA8" stroke-width="1.2"/></g><g opacity="0.60"><path d="M436 166 L446 176 M446 166 L436 176" stroke="#518DD2" stroke-width="1"/></g><g opacity="0.60"><polygon points="483,164 490,171 483,178 476,171" stroke="#3A6BA8" stroke-width="1" fill="none"/></g><g opacity="0.26"><polygon points="525,164 531,174.5 519,174.5" stroke="#518DD2" stroke-width="1" fill="none"/></g><g opacity="0.46"><circle cx="567" cy="171" r="5" stroke="#3A6BA8" stroke-width="1" fill="none"/></g><g opacity="0.65"><circle cx="609" cy="171" r="2" fill="#518DD2"/></g><g opacity="0.46"><rect x="646" y="166" width="10" height="10" stroke="#3A6BA8" stroke-width="1" fill="none"/></g><g opacity="0.26"><path d="M687 171 h12 M693 165 v12" stroke="#518DD2" stroke-width="1.2"/></g><g opacity="0.60"><path d="M730 166 L740 176 M740 166 L730 176" stroke="#3A6BA8" stroke-width="1"/></g><g opacity="0.60"><polygon points="777,164 784,171 777,178 770,171" stroke="#518DD2" stroke-width="1" fill="none"/></g><g opacity="0.25"><polygon points="819,164 825,174.5 813,174.5" stroke="#3A6BA8" stroke-width="1" fill="none"/></g><g opacity="0.36"><path d="M15 209 h12 M21 203 v12" stroke="#9CBFE7" stroke-width="1.2"/></g><g opacity="0.38"><path d="M58 204 L68 214 M68 204 L58 214" stroke="#6AAEE0" stroke-width="1"/></g><g opacity="0.64"><polygon points="105,202 112,209 105,216 98,209" stroke="#9CBFE7" stroke-width="1" fill="none"/></g><g opacity="0.53"><polygon points="147,202 153,212.5 141,212.5" stroke="#6AAEE0" stroke-width="1" fill="none"/></g><g opacity="0.16"><circle cx="189" cy="209" r="5" stroke="#9CBFE7" stroke-width="1" fill="none"/></g><g opacity="0.55"><circle cx="231" cy="209" r="2" fill="#6AAEE0"/></g><g opacity="0.63"><rect x="268" y="204" width="10" height="10" stroke="#9CBFE7" stroke-width="1" fill="none"/></g><g opacity="0.35"><path d="M309 209 h12 M315 203 v12" stroke="#6AAEE0" stroke-width="1.2"/></g><g opacity="0.38"><path d="M352 204 L362 214 M362 204 L352 214" stroke="#9CBFE7" stroke-width="1"/></g><g opacity="0.64"><polygon points="399,202 406,209 399,216 392,209" stroke="#6AAEE0" stroke-width="1" fill="none"/></g><g opacity="0.53"><polygon points="441,202 447,212.5 435,212.5" stroke="#9CBFE7" stroke-width="1" fill="none"/></g><g opacity="0.17"><circle cx="483" cy="209" r="5" stroke="#6AAEE0" stroke-width="1" fill="none"/></g><g opacity="0.55"><circle cx="525" cy="209" r="2" fill="#9CBFE7"/></g><g opacity="0.63"><rect x="562" y="204" width="10" height="10" stroke="#6AAEE0" stroke-width="1" fill="none"/></g><g opacity="0.34"><path d="M603 209 h12 M609 203 v12" stroke="#9CBFE7" stroke-width="1.2"/></g><g opacity="0.39"><path d="M646 204 L656 214 M656 204 L646 214" stroke="#6AAEE0" stroke-width="1"/></g><g opacity="0.64"><polygon points="693,202 700,209 693,216 686,209" stroke="#9CBFE7" stroke-width="1" fill="none"/></g><g opacity="0.52"><polygon points="735,202 741,212.5 729,212.5" stroke="#6AAEE0" stroke-width="1" fill="none"/></g><g opacity="0.18"><circle cx="777" cy="209" r="5" stroke="#9CBFE7" stroke-width="1" fill="none"/></g><g opacity="0.56"><circle cx="819" cy="209" r="2" fill="#6AAEE0"/></g><g opacity="0.49"><polygon points="21,240 28,247 21,254 14,247" stroke="#3A6BA8" stroke-width="1" fill="none"/></g><g opacity="0.65"><polygon points="63,240 69,250.5 57,250.5" stroke="#518DD2" stroke-width="1" fill="none"/></g><g opacity="0.43"><circle cx="105" cy="247" r="5" stroke="#3A6BA8" stroke-width="1" fill="none"/></g><g opacity="0.30"><circle cx="147" cy="247" r="2" fill="#518DD2"/></g><g opacity="0.62"><rect x="184" y="242" width="10" height="10" stroke="#3A6BA8" stroke-width="1" fill="none"/></g><g opacity="0.58"><path d="M225 247 h12 M231 241 v12" stroke="#518DD2" stroke-width="1.2"/></g><g opacity="0.22"><path d="M268 242 L278 252 M278 242 L268 252" stroke="#3A6BA8" stroke-width="1"/></g><g opacity="0.49"><polygon points="315,240 322,247 315,254 308,247" stroke="#518DD2" stroke-width="1" fill="none"/></g><g opacity="0.65"><polygon points="357,240 363,250.5 351,250.5" stroke="#3A6BA8" stroke-width="1" fill="none"/></g><g opacity="0.43"><circle cx="399" cy="247" r="5" stroke="#518DD2" stroke-width="1" fill="none"/></g><g opacity="0.30"><circle cx="441" cy="247" r="2" fill="#3A6BA8"/></g><g opacity="0.62"><rect x="478" y="242" width="10" height="10" stroke="#518DD2" stroke-width="1" fill="none"/></g><g opacity="0.58"><path d="M519 247 h12 M525 241 v12" stroke="#3A6BA8" stroke-width="1.2"/></g><g opacity="0.21"><path d="M562 242 L572 252 M572 242 L562 252" stroke="#518DD2" stroke-width="1"/></g><g opacity="0.50"><polygon points="609,240 616,247 609,254 602,247" stroke="#3A6BA8" stroke-width="1" fill="none"/></g><g opacity="0.65"><polygon points="651,240 657,250.5 645,250.5" stroke="#518DD2" stroke-width="1" fill="none"/></g><g opacity="0.42"><circle cx="693" cy="247" r="5" stroke="#3A6BA8" stroke-width="1" fill="none"/></g><g opacity="0.31"><circle cx="735" cy="247" r="2" fill="#518DD2"/></g><g opacity="0.62"><rect x="772" y="242" width="10" height="10" stroke="#3A6BA8" stroke-width="1" fill="none"/></g><g opacity="0.57"><path d="M813 247 h12 M819 241 v12" stroke="#518DD2" stroke-width="1.2"/></g><g opacity="0.62"><circle cx="21" cy="285" r="5" stroke="#6AAEE0" stroke-width="1" fill="none"/></g><g opacity="0.31"><circle cx="63" cy="285" r="2" fill="#9CBFE7"/></g><g opacity="0.42"><rect x="100" y="280" width="10" height="10" stroke="#6AAEE0" stroke-width="1" fill="none"/></g><g opacity="0.65"><path d="M141 285 h12 M147 279 v12" stroke="#9CBFE7" stroke-width="1.2"/></g><g opacity="0.50"><path d="M184 280 L194 290 M194 280 L184 290" stroke="#6AAEE0" stroke-width="1"/></g><g opacity="0.21"><polygon points="231,278 238,285 231,292 224,285" stroke="#9CBFE7" stroke-width="1" fill="none"/></g><g opacity="0.58"><polygon points="273,278 279,288.5 267,288.5" stroke="#6AAEE0" stroke-width="1" fill="none"/></g><g opacity="0.62"><circle cx="315" cy="285" r="5" stroke="#9CBFE7" stroke-width="1" fill="none"/></g><g opacity="0.31"><circle cx="357" cy="285" r="2" fill="#6AAEE0"/></g><g opacity="0.42"><rect x="394" y="280" width="10" height="10" stroke="#9CBFE7" stroke-width="1" fill="none"/></g><g opacity="0.65"><path d="M435 285 h12 M441 279 v12" stroke="#6AAEE0" stroke-width="1.2"/></g><g opacity="0.49"><path d="M478 280 L488 290 M488 280 L478 290" stroke="#9CBFE7" stroke-width="1"/></g><g opacity="0.22"><polygon points="525,278 532,285 525,292 518,285" stroke="#6AAEE0" stroke-width="1" fill="none"/></g><g opacity="0.58"><polygon points="567,278 573,288.5 561,288.5" stroke="#9CBFE7" stroke-width="1" fill="none"/></g><g opacity="0.62"><circle cx="609" cy="285" r="5" stroke="#6AAEE0" stroke-width="1" fill="none"/></g><g opacity="0.30"><circle cx="651" cy="285" r="2" fill="#9CBFE7"/></g><g opacity="0.43"><rect x="688" y="280" width="10" height="10" stroke="#6AAEE0" stroke-width="1" fill="none"/></g><g opacity="0.65"><path d="M729 285 h12 M735 279 v12" stroke="#9CBFE7" stroke-width="1.2"/></g><g opacity="0.49"><path d="M772 280 L782 290 M782 280 L772 290" stroke="#6AAEE0" stroke-width="1"/></g><g opacity="0.23"><polygon points="819,278 826,285 819,292 812,285" stroke="#9CBFE7" stroke-width="1" fill="none"/></g><g opacity="0.18"><rect x="16" y="318" width="10" height="10" stroke="#518DD2" stroke-width="1" fill="none"/></g><g opacity="0.52"><path d="M57 323 h12 M63 317 v12" stroke="#3A6BA8" stroke-width="1.2"/></g><g opacity="0.64"><path d="M100 318 L110 328 M110 318 L100 328" stroke="#518DD2" stroke-width="1"/></g><g opacity="0.39"><polygon points="147,316 154,323 147,330 140,323" stroke="#3A6BA8" stroke-width="1" fill="none"/></g><g opacity="0.34"><polygon points="189,316 195,326.5 183,326.5" stroke="#518DD2" stroke-width="1" fill="none"/></g><g opacity="0.63"><circle cx="231" cy="323" r="5" stroke="#3A6BA8" stroke-width="1" fill="none"/></g><g opacity="0.56"><circle cx="273" cy="323" r="2" fill="#518DD2"/></g><g opacity="0.17"><rect x="310" y="318" width="10" height="10" stroke="#3A6BA8" stroke-width="1" fill="none"/></g><g opacity="0.53"><path d="M351 323 h12 M357 317 v12" stroke="#518DD2" stroke-width="1.2"/></g><g opacity="0.64"><path d="M394 318 L404 328 M404 318 L394 328" stroke="#3A6BA8" stroke-width="1"/></g><g opacity="0.39"><polygon points="441,316 448,323 441,330 434,323" stroke="#518DD2" stroke-width="1" fill="none"/></g><g opacity="0.35"><polygon points="483,316 489,326.5 477,326.5" stroke="#3A6BA8" stroke-width="1" fill="none"/></g><g opacity="0.63"><circle cx="525" cy="323" r="5" stroke="#518DD2" stroke-width="1" fill="none"/></g><g opacity="0.55"><circle cx="567" cy="323" r="2" fill="#3A6BA8"/></g><g opacity="0.17"><rect x="604" y="318" width="10" height="10" stroke="#518DD2" stroke-width="1" fill="none"/></g><g opacity="0.53"><path d="M645 323 h12 M651 317 v12" stroke="#3A6BA8" stroke-width="1.2"/></g><g opacity="0.64"><path d="M688 318 L698 328 M698 318 L688 328" stroke="#518DD2" stroke-width="1"/></g><g opacity="0.38"><polygon points="735,316 742,323 735,330 728,323" stroke="#3A6BA8" stroke-width="1" fill="none"/></g><g opacity="0.36"><polygon points="777,316 783,326.5 771,326.5" stroke="#518DD2" stroke-width="1" fill="none"/></g><g opacity="0.64"><circle cx="819" cy="323" r="5" stroke="#3A6BA8" stroke-width="1" fill="none"/></g><g opacity="0.60"><path d="M16 356 L26 366 M26 356 L16 366" stroke="#9CBFE7" stroke-width="1"/></g><g opacity="0.60"><polygon points="63,354 70,361 63,368 56,361" stroke="#6AAEE0" stroke-width="1" fill="none"/></g><g opacity="0.27"><polygon points="105,354 111,364.5 99,364.5" stroke="#9CBFE7" stroke-width="1" fill="none"/></g><g opacity="0.46"><circle cx="147" cy="361" r="5" stroke="#6AAEE0" stroke-width="1" fill="none"/></g><g opacity="0.65"><circle cx="189" cy="361" r="2" fill="#9CBFE7"/></g><g opacity="0.46"><rect x="226" y="356" width="10" height="10" stroke="#6AAEE0" stroke-width="1" fill="none"/></g><g opacity="0.26"><path d="M267 361 h12 M273 355 v12" stroke="#9CBFE7" stroke-width="1.2"/></g><g opacity="0.60"><path d="M310 356 L320 366 M320 356 L310 366" stroke="#6AAEE0" stroke-width="1"/></g><g opacity="0.60"><polygon points="357,354 364,361 357,368 350,361" stroke="#9CBFE7" stroke-width="1" fill="none"/></g><g opacity="0.26"><polygon points="399,354 405,364.5 393,364.5" stroke="#6AAEE0" stroke-width="1" fill="none"/></g><g opacity="0.46"><circle cx="441" cy="361" r="5" stroke="#9CBFE7" stroke-width="1" fill="none"/></g><g opacity="0.65"><circle cx="483" cy="361" r="2" fill="#6AAEE0"/></g><g opacity="0.46"><rect x="520" y="356" width="10" height="10" stroke="#9CBFE7" stroke-width="1" fill="none"/></g><g opacity="0.27"><path d="M561 361 h12 M567 355 v12" stroke="#6AAEE0" stroke-width="1.2"/></g><g opacity="0.60"><path d="M604 356 L614 366 M614 356 L604 366" stroke="#9CBFE7" stroke-width="1"/></g><g opacity="0.60"><polygon points="651,354 658,361 651,368 644,361" stroke="#6AAEE0" stroke-width="1" fill="none"/></g><g opacity="0.25"><polygon points="693,354 699,364.5 687,364.5" stroke="#9CBFE7" stroke-width="1" fill="none"/></g><g opacity="0.47"><circle cx="735" cy="361" r="5" stroke="#6AAEE0" stroke-width="1" fill="none"/></g><g opacity="0.65"><circle cx="777" cy="361" r="2" fill="#9CBFE7"/></g><g opacity="0.45"><rect x="814" y="356" width="10" height="10" stroke="#6AAEE0" stroke-width="1" fill="none"/></g><g opacity="0.53"><polygon points="21,392 27,402.5 15,402.5" stroke="#3A6BA8" stroke-width="1" fill="none"/></g><g opacity="0.17"><circle cx="63" cy="399" r="5" stroke="#518DD2" stroke-width="1" fill="none"/></g><g opacity="0.55"><circle cx="105" cy="399" r="2" fill="#3A6BA8"/></g><g opacity="0.63"><rect x="142" y="394" width="10" height="10" stroke="#518DD2" stroke-width="1" fill="none"/></g><g opacity="0.35"><path d="M183 399 h12 M189 393 v12" stroke="#3A6BA8" stroke-width="1.2"/></g><g opacity="0.39"><path d="M226 394 L236 404 M236 394 L226 404" stroke="#518DD2" stroke-width="1"/></g><g opacity="0.64"><polygon points="273,392 280,399 273,406 266,399" stroke="#3A6BA8" stroke-width="1" fill="none"/></g><g opacity="0.53"><polygon points="315,392 321,402.5 309,402.5" stroke="#518DD2" stroke-width="1" fill="none"/></g><g opacity="0.18"><circle cx="357" cy="399" r="5" stroke="#3A6BA8" stroke-width="1" fill="none"/></g><g opacity="0.56"><circle cx="399" cy="399" r="2" fill="#518DD2"/></g><g opacity="0.63"><rect x="436" y="394" width="10" height="10" stroke="#3A6BA8" stroke-width="1" fill="none"/></g><g opacity="0.34"><path d="M477 399 h12 M483 393 v12" stroke="#518DD2" stroke-width="1.2"/></g><g opacity="0.39"><path d="M520 394 L530 404 M530 394 L520 404" stroke="#3A6BA8" stroke-width="1"/></g><g opacity="0.64"><polygon points="567,392 574,399 567,406 560,399" stroke="#518DD2" stroke-width="1" fill="none"/></g><g opacity="0.52"><polygon points="609,392 615,402.5 603,402.5" stroke="#3A6BA8" stroke-width="1" fill="none"/></g><g opacity="0.18"><circle cx="651" cy="399" r="5" stroke="#518DD2" stroke-width="1" fill="none"/></g><g opacity="0.56"><circle cx="693" cy="399" r="2" fill="#3A6BA8"/></g><g opacity="0.63"><rect x="730" y="394" width="10" height="10" stroke="#518DD2" stroke-width="1" fill="none"/></g><g opacity="0.33"><path d="M771 399 h12 M777 393 v12" stroke="#3A6BA8" stroke-width="1.2"/></g><g opacity="0.40"><path d="M814 394 L824 404 M824 394 L814 404" stroke="#518DD2" stroke-width="1"/></g><g opacity="0.30"><circle cx="21" cy="437" r="2" fill="#6AAEE0"/></g><g opacity="0.62"><rect x="58" y="432" width="10" height="10" stroke="#9CBFE7" stroke-width="1" fill="none"/></g><g opacity="0.58"><path d="M99 437 h12 M105 431 v12" stroke="#6AAEE0" stroke-width="1.2"/></g><g opacity="0.22"><path d="M142 432 L152 442 M152 432 L142 442" stroke="#9CBFE7" stroke-width="1"/></g><g opacity="0.50"><polygon points="189,430 196,437 189,444 182,437" stroke="#6AAEE0" stroke-width="1" fill="none"/></g><g opacity="0.65"><polygon points="231,430 237,440.5 225,440.5" stroke="#9CBFE7" stroke-width="1" fill="none"/></g><g opacity="0.42"><circle cx="273" cy="437" r="5" stroke="#6AAEE0" stroke-width="1" fill="none"/></g><g opacity="0.31"><circle cx="315" cy="437" r="2" fill="#9CBFE7"/></g><g opacity="0.62"><rect x="352" y="432" width="10" height="10" stroke="#6AAEE0" stroke-width="1" fill="none"/></g><g opacity="0.58"><path d="M393 437 h12 M399 431 v12" stroke="#9CBFE7" stroke-width="1.2"/></g><g opacity="0.21"><path d="M436 432 L446 442 M446 432 L436 442" stroke="#6AAEE0" stroke-width="1"/></g><g opacity="0.50"><polygon points="483,430 490,437 483,444 476,437" stroke="#9CBFE7" stroke-width="1" fill="none"/></g><g opacity="0.65"><polygon points="525,430 531,440.5 519,440.5" stroke="#6AAEE0" stroke-width="1" fill="none"/></g><g opacity="0.42"><circle cx="567" cy="437" r="5" stroke="#9CBFE7" stroke-width="1" fill="none"/></g><g opacity="0.32"><circle cx="609" cy="437" r="2" fill="#6AAEE0"/></g><g opacity="0.62"><rect x="646" y="432" width="10" height="10" stroke="#9CBFE7" stroke-width="1" fill="none"/></g><g opacity="0.57"><path d="M687 437 h12 M693 431 v12" stroke="#6AAEE0" stroke-width="1.2"/></g><g opacity="0.20"><path d="M730 432 L740 442 M740 432 L730 442" stroke="#9CBFE7" stroke-width="1"/></g><g opacity="0.51"><polygon points="777,430 784,437 777,444 770,437" stroke="#6AAEE0" stroke-width="1" fill="none"/></g><g opacity="0.65"><polygon points="819,430 825,440.5 813,440.5" stroke="#9CBFE7" stroke-width="1" fill="none"/></g>
  <linearGradient id="gi2" x1="0" y1="0" x2="1" y2="0">
    <stop offset="0%" stop-color="#080E1A" stop-opacity="0.9"/>
    <stop offset="30%" stop-color="#080E1A" stop-opacity="0"/>
    <stop offset="70%" stop-color="#080E1A" stop-opacity="0"/>
    <stop offset="100%" stop-color="#080E1A" stop-opacity="0.9"/>
  </linearGradient>
  <rect width="800" height="450" fill="url(#gi2)"/>
</svg>