<?xml version="1.0" encoding="UTF-8"?>
<svg xmlns="http://www.w3.org/2000/svg" viewBox="0 0 800 450" fill="none">
  <rect width="800" height="450" fill="#0D1A17"/>
  <line x1="0" y1="0" x2="0" y2="450" stroke="#4D9987" stroke-width="0.4" opacity="0.12"/><line x1="90" y1="0" x2="90" y2="450" stroke="#4D9987" stroke-width="0.4" opacity="0.12"/><line x1="180" y1="0" x2="180" y2="450" stroke="#4D9987" stroke-width="0.4" opacity="0.12"/><line x1="270" y1="0" x2="270" y2="450" stroke="#4D9987" stroke-width="0.4" opacity="0.12"/><line x1="360" y1="0" x2="360" y2="450" stroke="#4D9987" stroke-width="0.4" opacity="0.12"/><line x1="450" y1="0" x2="450" y2="450" stroke="#4D9987" stroke-width="0.4" opacity="0.12"/><line x1="540" y1="0" x2="540" y2="450" stroke="#4D9987" stroke-width="0.4" opacity="0.12"/><line x1="630" y1="0" x2="630" y2="450" stroke="#4D9987" stroke-width="0.4" opacity="0.12"/><line x1="720" y1="0" x2="720" y2="450" stroke="#4D9987" stroke-width="0.4" opacity="0.12"/><line x1="810" y1="0" x2="810" y2="450" stroke="#4D9987" stroke-width="0.4" opacity="0.12"/>
  <ellipse cx="600" cy="220" rx="50" ry="25" stroke="#4D9987" stroke-width="1.3" opacity="0.85"/><ellipse cx="600" cy="220" rx="105" ry="49" stroke="#4D9987" stroke-width="1.23" opacity="0.7999999999999999"/><ellipse cx="600" cy="220" rx="160" ry="73" stroke="#4D9987" stroke-width="1.1600000000000001" opacity="0.75"/><ellipse cx="600" cy="220" rx="215" ry="97" stroke="#4D9987" stroke-width="1.09" opacity="0.7"/><ellipse cx="600" cy="220" rx="270" ry="121" stroke="#4D9987" stroke-width="1.02" opacity="0.6499999999999999"/><ellipse cx="600" cy="220" rx="325" ry="145" stroke="#4D9987" stroke-width="0.95" opacity="0.6"/><ellipse cx="600" cy="220" rx="380" ry="169" stroke="#4D9987" stroke-width="0.88" opacity="0.5499999999999999"/><ellipse cx="600" cy="220" rx="435" ry="193" stroke="#4D9987" stroke-width="0.81" opacity="0.49999999999999994"/><ellipse cx="600" cy="220" rx="490" ry="217" stroke="#4D9987" stroke-width="0.74" opacity="0.44999999999999996"/><ellipse cx="600" cy="220" rx="545" ry="241" stroke="#4D9987" stroke-width="0.6699999999999999" opacity="0.39999999999999997"/><ellipse cx="600" cy="220" rx="600" ry="265" stroke="#4D9987" stroke-width="0.6" opacity="0.35"/><ellipse cx="600" cy="220" rx="655" ry="289" stroke="#4D9987" stroke-width="0.53" opacity="0.29999999999999993"/><ellipse cx="600" cy="220" rx="710" ry="313" stroke="#4D9987" stroke-width="0.45999999999999996" opacity="0.2499999999999999"/><ellipse cx="600" cy="220" rx="765" ry="337" stroke="#4D9987" stroke-width="0.3899999999999999" opacity="0.19999999999999996"/>
  <radialGradient id="g2" cx="600" cy="220" r="320" gradientUnits="userSpaceOnUse">
    <stop offset="0%" stop-color="#4D9987" stop-opacity="0.15"/>
    <stop offset="100%" stop-color="#4D9987" stop-opacity="0"/>
  </radialGradient>
  <rect width="800" height="450" fill="url(#g2)"/>
</svg>