<?xml version="1.0" encoding="UTF-8"?>
<svg xmlns="http://www.w3.org/2000/svg" viewBox="0 0 800 450" fill="none">
  <rect width="800" height="450" fill="#1A0F0A"/>
  <line x1="0" y1="0" x2="800" y2="0" stroke="#E8765E" stroke-width="0.3" opacity="0.09"/><line x1="0" y1="45" x2="800" y2="45" stroke="#E8765E" stroke-width="0.3" opacity="0.09"/><line x1="0" y1="90" x2="800" y2="90" stroke="#E8765E" stroke-width="0.3" opacity="0.09"/><line x1="0" y1="135" x2="800" y2="135" stroke="#E8765E" stroke-width="0.3" opacity="0.09"/><line x1="0" y1="180" x2="800" y2="180" stroke="#E8765E" stroke-width="0.3" opacity="0.09"/><line x1="0" y1="225" x2="800" y2="225" stroke="#E8765E" stroke-width="0.3" opacity="0.09"/><line x1="0" y1="270" x2="800" y2="270" stroke="#E8765E" stroke-width="0.3" opacity="0.09"/><line x1="0" y1="315" x2="800" y2="315" stroke="#E8765E" stroke-width="0.3" opacity="0.09"/><line x1="0" y1="360" x2="800" y2="360" stroke="#E8765E" stroke-width="0.3" opacity="0.09"/><line x1="0" y1="405" x2="800" y2="405" stroke="#E8765E" stroke-width="0.3" opacity="0.09"/><line x1="0" y1="450" x2="800" y2="450" stroke="#E8765E" stroke-width="0.3" opacity="0.09"/>
  <ellipse cx="400" cy="450" rx="80" ry="35" stroke="#E8765E" stroke-width="1.1" opacity="0.9"/><ellipse cx="400" cy="450" rx="145" ry="67" stroke="#E8765E" stroke-width="1.04" opacity="0.8400000000000001"/><ellipse cx="400" cy="450" rx="210" ry="99" stroke="#E8765E" stroke-width="0.9800000000000001" opacity="0.78"/><ellipse cx="400" cy="450" rx="275" ry="131" stroke="#E8765E" stroke-width="0.9200000000000002" opacity="0.72"/><ellipse cx="400" cy="450" rx="340" ry="163" stroke="#E8765E" stroke-width="0.8600000000000001" opacity="0.66"/><ellipse cx="400" cy="450" rx="405" ry="195" stroke="#E8765E" stroke-width="0.8" opacity="0.6000000000000001"/><ellipse cx="400" cy="450" rx="470" ry="227" stroke="#E8765E" stroke-width="0.7400000000000001" opacity="0.54"/><ellipse cx="400" cy="450" rx="535" ry="259" stroke="#E8765E" stroke-width="0.6800000000000002" opacity="0.48000000000000004"/><ellipse cx="400" cy="450" rx="600" ry="291" stroke="#E8765E" stroke-width="0.6200000000000001" opacity="0.42000000000000004"/><ellipse cx="400" cy="450" rx="665" ry="323" stroke="#E8765E" stroke-width="0.56" opacity="0.36"/><ellipse cx="400" cy="450" rx="730" ry="355" stroke="#E8765E" stroke-width="0.5000000000000001" opacity="0.30000000000000004"/><ellipse cx="400" cy="450" rx="795" ry="387" stroke="#E8765E" stroke-width="0.44000000000000017" opacity="0.2400000000000001"/><ellipse cx="400" cy="450" rx="860" ry="419" stroke="#E8765E" stroke-width="0.3800000000000001" opacity="0.18000000000000005"/>
  <radialGradient id="g3" cx="400" cy="450" r="350" gradientUnits="userSpaceOnUse">
    <stop offset="0%" stop-color="#E8765E" stop-opacity="0.2"/>
    <stop offset="100%" stop-color="#E8765E" stop-opacity="0"/>
  </radialGradient>
  <rect width="800" height="450" fill="url(#g3)"/>
</svg>