<?xml version="1.0" encoding="UTF-8"?>
<svg xmlns="http://www.w3.org/2000/svg" viewBox="0 0 800 450">
  <rect width="800" height="450" fill="#0C1008"/>
  <text font-family="monospace" font-size="10" fill="#4D9987">
    <tspan x="12" dy="0" y="18" opacity="0.35">SELECT * FROM_</tspan><tspan x="140" dy="0" y="18" opacity="0.35">WHERE id =_</tspan><tspan x="268" dy="0" y="18" opacity="0.35">JOIN users ON_</tspan><tspan x="396" dy="0" y="18" opacity="0.35">GROUP BY_</tspan><tspan x="524" dy="0" y="18" opacity="0.35">ORDER BY_</tspan><tspan x="652" dy="0" y="18" opacity="0.35">LIMIT 100_</tspan><tspan x="12" dy="0" y="40" opacity="0.33">INSERT INTO_</tspan><tspan x="140" dy="0" y="40" opacity="0.33">UPDATE SET_</tspan><tspan x="268" dy="0" y="40" opacity="0.33">DELETE FROM_</tspan><tspan x="396" dy="0" y="40" opacity="0.33">CREATE TABLE_</tspan><tspan x="524" dy="0" y="40" opacity="0.33">INDEX ON_</tspan><tspan x="652" dy="0" y="40" opacity="0.33">CONSTRAINT_</tspan><tspan x="12" dy="0" y="62" opacity="0.32">SELECT * FROM_</tspan><tspan x="140" dy="0" y="62" opacity="0.32">WHERE id =_</tspan><tspan x="268" dy="0" y="62" opacity="0.32">JOIN users ON_</tspan><tspan x="396" dy="0" y="62" opacity="0.32">GROUP BY_</tspan><tspan x="524" dy="0" y="62" opacity="0.32">ORDER BY_</tspan><tspan x="652" dy="0" y="62" opacity="0.32">LIMIT 100_</tspan><tspan x="12" dy="0" y="84" opacity="0.30">INSERT INTO_</tspan><tspan x="140" dy="0" y="84" opacity="0.30">UPDATE SET_</tspan><tspan x="268" dy="0" y="84" opacity="0.30">DELETE FROM_</tspan><tspan x="396" dy="0" y="84" opacity="0.30">CREATE TABLE_</tspan><tspan x="524" dy="0" y="84" opacity="0.30">INDEX ON_</tspan><tspan x="652" dy="0" y="84" opacity="0.30">CONSTRAINT_</tspan><tspan x="12" dy="0" y="106" opacity="0.29">SELECT * FROM_</tspan><tspan x="140" dy="0" y="106" opacity="0.29">WHERE id =_</tspan><tspan x="268" dy="0" y="106" opacity="0.29">JOIN users ON_</tspan><tspan x="396" dy="0" y="106" opacity="0.29">GROUP BY_</tspan><tspan x="524" dy="0" y="106" opacity="0.29">ORDER BY_</tspan><tspan x="652" dy="0" y="106" opacity="0.29">LIMIT 100_</tspan><tspan x="12" dy="0" y="128" opacity="0.27">INSERT INTO_</tspan><tspan x="140" dy="0" y="128" opacity="0.27">UPDATE SET_</tspan><tspan x="268" dy="0" y="128" opacity="0.27">DELETE FROM_</tspan><tspan x="396" dy="0" y="128" opacity="0.27">CREATE TABLE_</tspan><tspan x="524" dy="0" y="128" opacity="0.27">INDEX ON_</tspan><tspan x="652" dy="0" y="128" opacity="0.27">CONSTRAINT_</tspan><tspan x="12" dy="0" y="150" opacity="0.26">SELECT * FROM_</tspan><tspan x="140" dy="0" y="150" opacity="0.26">WHERE id =_</tspan><tspan x="268" dy="0" y="150" opacity="0.26">JOIN users ON_</tspan><tspan x="396" dy="0" y="150" opacity="0.26">GROUP BY_</tspan><tspan x="524" dy="0" y="150" opacity="0.26">ORDER BY_</tspan><tspan x="652" dy="0" y="150" opacity="0.26">LIMIT 100_</tspan><tspan x="12" dy="0" y="172" opacity="0.24">INSERT INTO_</tspan><tspan x="140" dy="0" y="172" opacity="0.24">UPDATE SET_</tspan><tspan x="268" dy="0" y="172" opacity="0.24">DELETE FROM_</tspan><tspan x="396" dy="0" y="172" opacity="0.24">CREATE TABLE_</tspan><tspan x="524" dy="0" y="172" opacity="0.24">INDEX ON_</tspan><tspan x="652" dy="0" y="172" opacity="0.24">CONSTRAINT_</tspan><tspan x="12" dy="0" y="194" opacity="0.23">SELECT * FROM_</tspan><tspan x="140" dy="0" y="194" opacity="0.23">WHERE id =_</tspan><tspan x="268" dy="0" y="194" opacity="0.23">JOIN users ON_</tspan><tspan x="396" dy="0" y="194" opacity="0.23">GROUP BY_</tspan><tspan x="524" dy="0" y="194" opacity="0.23">ORDER BY_</tspan><tspan x="652" dy="0" y="194" opacity="0.23">LIMIT 100_</tspan><tspan x="12" dy="0" y="216" opacity="0.21">INSERT INTO_</tspan><tspan x="140" dy="0" y="216" opacity="0.21">UPDATE SET_</tspan><tspan x="268" dy="0" y="216" opacity="0.21">DELETE FROM_</tspan><tspan x="396" dy="0" y="216" opacity="0.21">CREATE TABLE_</tspan><tspan x="524" dy="0" y="216" opacity="0.21">INDEX ON_</tspan><tspan x="652" dy="0" y="216" opacity="0.21">CONSTRAINT_</tspan><tspan x="12" dy="0" y="238" opacity="0.20">SELECT * FROM_</tspan><tspan x="140" dy="0" y="238" opacity="0.20">WHERE id =_</tspan><tspan x="268" dy="0" y="238" opacity="0.20">JOIN users ON_</tspan><tspan x="396" dy="0" y="238" opacity="0.20">GROUP BY_</tspan><tspan x="524" dy="0" y="238" opacity="0.20">ORDER BY_</tspan><tspan x="652" dy="0" y="238" opacity="0.20">LIMIT 100_</tspan><tspan x="12" dy="0" y="260" opacity="0.18">INSERT INTO_</tspan><tspan x="140" dy="0" y="260" opacity="0.18">UPDATE SET_</tspan><tspan x="268" dy="0" y="260" opacity="0.18">DELETE FROM_</tspan><tspan x="396" dy="0" y="260" opacity="0.18">CREATE TABLE_</tspan><tspan x="524" dy="0" y="260" opacity="0.18">INDEX ON_</tspan><tspan x="652" dy="0" y="260" opacity="0.18">CONSTRAINT_</tspan><tspan x="12" dy="0" y="282" opacity="0.17">SELECT * FROM_</tspan><tspan x="140" dy="0" y="282" opacity="0.17">WHERE id =_</tspan><tspan x="268" dy="0" y="282" opacity="0.17">JOIN users ON_</tspan><tspan x="396" dy="0" y="282" opacity="0.17">GROUP BY_</tspan><tspan x="524" dy="0" y="282" opacity="0.17">ORDER BY_</tspan><tspan x="652" dy="0" y="282" opacity="0.17">LIMIT 100_</tspan><tspan x="12" dy="0" y="304" opacity="0.15">INSERT INTO_</tspan><tspan x="140" dy="0" y="304" opacity="0.15">UPDATE SET_</tspan><tspan x="268" dy="0" y="304" opacity="0.15">DELETE FROM_</tspan><tspan x="396" dy="0" y="304" opacity="0.15">CREATE TABLE_</tspan><tspan x="524" dy="0" y="304" opacity="0.15">INDEX ON_</tspan><tspan x="652" dy="0" y="304" opacity="0.15">CONSTRAINT_</tspan><tspan x="12" dy="0" y="326" opacity="0.14">SELECT * FROM_</tspan><tspan x="140" dy="0" y="326" opacity="0.14">WHERE id =_</tspan><tspan x="268" dy="0" y="326" opacity="0.14">JOIN users ON_</tspan><tspan x="396" dy="0" y="326" opacity="0.14">GROUP BY_</tspan><tspan x="524" dy="0" y="326" opacity="0.14">ORDER BY_</tspan><tspan x="652" dy="0" y="326" opacity="0.14">LIMIT 100_</tspan><tspan x="12" dy="0" y="348" opacity="0.13">INSERT INTO_</tspan><tspan x="140" dy="0" y="348" opacity="0.13">UPDATE SET_</tspan><tspan x="268" dy="0" y="348" opacity="0.13">DELETE FROM_</tspan><tspan x="396" dy="0" y="348" opacity="0.13">CREATE TABLE_</tspan><tspan x="524" dy="0" y="348" opacity="0.13">INDEX ON_</tspan><tspan x="652" dy="0" y="348" opacity="0.13">CONSTRAINT_</tspan><tspan x="12" dy="0" y="370" opacity="0.11">SELECT * FROM_</tspan><tspan x="140" dy="0" y="370" opacity="0.11">WHERE id =_</tspan><tspan x="268" dy="0" y="370" opacity="0.11">JOIN users ON_</tspan><tspan x="396" dy="0" y="370" opacity="0.11">GROUP BY_</tspan>
  </text>
  <linearGradient id="tm1" x1="0" y1="0" x2="0" y2="1">
    <stop offset="0%" stop-color="#0C1008" stop-opacity="0.4"/>
    <stop offset="40%" stop-color="#0C1008" stop-opacity="0"/>
    <stop offset="60%" stop-color="#0C1008" stop-opacity="0"/>
    <stop offset="100%" stop-color="#0C1008" stop-opacity="0.6"/>
  </linearGradient>
  <rect width="800" height="450" fill="url(#tm1)"/>
</svg>