<?xml version="1.0" encoding="UTF-8"?>
<svg xmlns="http://www.w3.org/2000/svg" viewBox="0 0 800 450" fill="none">
  <rect width="800" height="450" fill="#0A0C12"/>
  <g opacity="0.25"><circle cx="19" cy="16" r="5" stroke="#9CBFE7" stroke-width="1" fill="none"/></g><g opacity="0.54"><path d="M51 16 h12 M57 10 v12" stroke="#C4B3E8" stroke-width="1.2"/></g><g opacity="0.69"><polygon points="95,9 101,19.5 89,19.5" stroke="#518DD2" stroke-width="1" fill="none"/></g><g opacity="0.64"><rect x="128" y="11" width="10" height="10" stroke="#F4B89A" stroke-width="1" fill="none"/></g><g opacity="0.40"><polygon points="171,9 178,16 171,23 164,16" stroke="#E9EBDF" stroke-width="1" fill="none"/></g><g opacity="0.41"><circle cx="209" cy="16" r="2" fill="#A8D5C4"/></g><g opacity="0.64"><path d="M242 11 L252 21 M252 11 L242 21" stroke="#F0C87A" stroke-width="1"/></g><g opacity="0.69"><circle cx="285" cy="16" r="5" stroke="#9CBFE7" stroke-width="1" fill="none"/></g><g opacity="0.53"><path d="M317 16 h12 M323 10 v12" stroke="#C4B3E8" stroke-width="1.2"/></g><g opacity="0.26"><polygon points="361,9 367,19.5 355,19.5" stroke="#518DD2" stroke-width="1" fill="none"/></g><g opacity="0.55"><rect x="394" y="11" width="10" height="10" stroke="#F4B89A" stroke-width="1" fill="none"/></g><g opacity="0.69"><polygon points="437,9 444,16 437,23 430,16" stroke="#E9EBDF" stroke-width="1" fill="none"/></g><g opacity="0.63"><circle cx="475" cy="16" r="2" fill="#A8D5C4"/></g><g opacity="0.39"><path d="M508 11 L518 21 M518 11 L508 21" stroke="#F0C87A" stroke-width="1"/></g><g opacity="0.41"><circle cx="551" cy="16" r="5" stroke="#9CBFE7" stroke-width="1" fill="none"/></g><g opacity="0.65"><path d="M583 16 h12 M589 10 v12" stroke="#C4B3E8" stroke-width="1.2"/></g><g opacity="0.69"><polygon points="627,9 633,19.5 621,19.5" stroke="#518DD2" stroke-width="1" fill="none"/></g><g opacity="0.53"><rect x="660" y="11" width="10" height="10" stroke="#F4B89A" stroke-width="1" fill="none"/></g><g opacity="0.27"><polygon points="703,9 710,16 703,23 696,16" stroke="#E9EBDF" stroke-width="1" fill="none"/></g><g opacity="0.55"><circle cx="741" cy="16" r="2" fill="#A8D5C4"/></g><g opacity="0.70"><path d="M774 11 L784 21 M784 11 L774 21" stroke="#F0C87A" stroke-width="1"/></g><g opacity="0.63"><circle cx="817" cy="16" r="5" stroke="#9CBFE7" stroke-width="1" fill="none"/></g><g opacity="0.54"><rect x="33" y="43" width="10" height="10" stroke="#9CBFE7" stroke-width="1" fill="none"/></g><g opacity="0.69"><polygon points="76,41 83,48 76,55 69,48" stroke="#C4B3E8" stroke-width="1" fill="none"/></g><g opacity="0.64"><circle cx="114" cy="48" r="2" fill="#518DD2"/></g><g opacity="0.40"><path d="M147 43 L157 53 M157 43 L147 53" stroke="#F4B89A" stroke-width="1"/></g><g opacity="0.41"><circle cx="190" cy="48" r="5" stroke="#E9EBDF" stroke-width="1" fill="none"/></g><g opacity="0.64"><path d="M222 48 h12 M228 42 v12" stroke="#A8D5C4" stroke-width="1.2"/></g><g opacity="0.69"><polygon points="266,41 272,51.5 260,51.5" stroke="#F0C87A" stroke-width="1" fill="none"/></g><g opacity="0.53"><rect x="299" y="43" width="10" height="10" stroke="#9CBFE7" stroke-width="1" fill="none"/></g><g opacity="0.26"><polygon points="342,41 349,48 342,55 335,48" stroke="#C4B3E8" stroke-width="1" fill="none"/></g><g opacity="0.55"><circle cx="380" cy="48" r="2" fill="#518DD2"/></g><g opacity="0.69"><path d="M413 43 L423 53 M423 43 L413 53" stroke="#F4B89A" stroke-width="1"/></g><g opacity="0.63"><circle cx="456" cy="48" r="5" stroke="#E9EBDF" stroke-width="1" fill="none"/></g><g opacity="0.39"><path d="M488 48 h12 M494 42 v12" stroke="#A8D5C4" stroke-width="1.2"/></g><g opacity="0.41"><polygon points="532,41 538,51.5 526,51.5" stroke="#F0C87A" stroke-width="1" fill="none"/></g><g opacity="0.65"><rect x="565" y="43" width="10" height="10" stroke="#9CBFE7" stroke-width="1" fill="none"/></g><g opacity="0.69"><polygon points="608,41 615,48 608,55 601,48" stroke="#C4B3E8" stroke-width="1" fill="none"/></g><g opacity="0.53"><circle cx="646" cy="48" r="2" fill="#518DD2"/></g><g opacity="0.27"><path d="M679 43 L689 53 M689 43 L679 53" stroke="#F4B89A" stroke-width="1"/></g><g opacity="0.55"><circle cx="722" cy="48" r="5" stroke="#E9EBDF" stroke-width="1" fill="none"/></g><g opacity="0.70"><path d="M754 48 h12 M760 42 v12" stroke="#A8D5C4" stroke-width="1.2"/></g><g opacity="0.63"><polygon points="798,41 804,51.5 792,51.5" stroke="#F0C87A" stroke-width="1" fill="none"/></g><g opacity="0.39"><rect x="831" y="43" width="10" height="10" stroke="#9CBFE7" stroke-width="1" fill="none"/></g><g opacity="0.69"><path d="M14 75 L24 85 M24 75 L14 85" stroke="#9CBFE7" stroke-width="1"/></g><g opacity="0.64"><circle cx="57" cy="80" r="5" stroke="#C4B3E8" stroke-width="1" fill="none"/></g><g opacity="0.40"><path d="M89 80 h12 M95 74 v12" stroke="#518DD2" stroke-width="1.2"/></g><g opacity="0.41"><polygon points="133,73 139,83.5 127,83.5" stroke="#F4B89A" stroke-width="1" fill="none"/></g><g opacity="0.64"><rect x="166" y="75" width="10" height="10" stroke="#E9EBDF" stroke-width="1" fill="none"/></g><g opacity="0.69"><polygon points="209,73 216,80 209,87 202,80" stroke="#A8D5C4" stroke-width="1" fill="none"/></g><g opacity="0.53"><circle cx="247" cy="80" r="2" fill="#F0C87A"/></g><g opacity="0.26"><path d="M280 75 L290 85 M290 75 L280 85" stroke="#9CBFE7" stroke-width="1"/></g><g opacity="0.55"><circle cx="323" cy="80" r="5" stroke="#C4B3E8" stroke-width="1" fill="none"/></g><g opacity="0.69"><path d="M355 80 h12 M361 74 v12" stroke="#518DD2" stroke-width="1.2"/></g><g opacity="0.63"><polygon points="399,73 405,83.5 393,83.5" stroke="#F4B89A" stroke-width="1" fill="none"/></g><g opacity="0.39"><rect x="432" y="75" width="10" height="10" stroke="#E9EBDF" stroke-width="1" fill="none"/></g><g opacity="0.41"><polygon points="475,73 482,80 475,87 468,80" stroke="#A8D5C4" stroke-width="1" fill="none"/></g><g opacity="0.65"><circle cx="513" cy="80" r="2" fill="#F0C87A"/></g><g opacity="0.69"><path d="M546 75 L556 85 M556 75 L546 85" stroke="#9CBFE7" stroke-width="1"/></g><g opacity="0.53"><circle cx="589" cy="80" r="5" stroke="#C4B3E8" stroke-width="1" fill="none"/></g><g opacity="0.27"><path d="M621 80 h12 M627 74 v12" stroke="#518DD2" stroke-width="1.2"/></g><g opacity="0.55"><polygon points="665,73 671,83.5 659,83.5" stroke="#F4B89A" stroke-width="1" fill="none"/></g><g opacity="0.70"><rect x="698" y="75" width="10" height="10" stroke="#E9EBDF" stroke-width="1" fill="none"/></g><g opacity="0.63"><polygon points="741,73 748,80 741,87 734,80" stroke="#A8D5C4" stroke-width="1" fill="none"/></g><g opacity="0.39"><circle cx="779" cy="80" r="2" fill="#F0C87A"/></g><g opacity="0.42"><path d="M812 75 L822 85 M822 75 L812 85" stroke="#9CBFE7" stroke-width="1"/></g><g opacity="0.64"><polygon points="38,105 44,115.5 32,115.5" stroke="#9CBFE7" stroke-width="1" fill="none"/></g><g opacity="0.40"><rect x="71" y="107" width="10" height="10" stroke="#C4B3E8" stroke-width="1" fill="none"/></g><g opacity="0.41"><polygon points="114,105 121,112 114,119 107,112" stroke="#518DD2" stroke-width="1" fill="none"/></g><g opacity="0.64"><circle cx="152" cy="112" r="2" fill="#F4B89A"/></g><g opacity="0.69"><path d="M185 107 L195 117 M195 107 L185 117" stroke="#E9EBDF" stroke-width="1"/></g><g opacity="0.53"><circle cx="228" cy="112" r="5" stroke="#A8D5C4" stroke-width="1" fill="none"/></g><g opacity="0.26"><path d="M260 112 h12 M266 106 v12" stroke="#F0C87A" stroke-width="1.2"/></g><g opacity="0.55"><polygon points="304,105 310,115.5 298,115.5" stroke="#9CBFE7" stroke-width="1" fill="none"/></g><g opacity="0.69"><rect x="337" y="107" width="10" height="10" stroke="#C4B3E8" stroke-width="1" fill="none"/></g><g opacity="0.63"><polygon points="380,105 387,112 380,119 373,112" stroke="#518DD2" stroke-width="1" fill="none"/></g><g opacity="0.39"><circle cx="418" cy="112" r="2" fill="#F4B89A"/></g><g opacity="0.41"><path d="M451 107 L461 117 M461 107 L451 117" stroke="#E9EBDF" stroke-width="1"/></g><g opacity="0.65"><circle cx="494" cy="112" r="5" stroke="#A8D5C4" stroke-width="1" fill="none"/></g><g opacity="0.69"><path d="M526 112 h12 M532 106 v12" stroke="#F0C87A" stroke-width="1.2"/></g><g opacity="0.53"><polygon points="570,105 576,115.5 564,115.5" stroke="#9CBFE7" stroke-width="1" fill="none"/></g><g opacity="0.27"><rect x="603" y="107" width="10" height="10" stroke="#C4B3E8" stroke-width="1" fill="none"/></g><g opacity="0.55"><polygon points="646,105 653,112 646,119 639,112" stroke="#518DD2" stroke-width="1" fill="none"/></g><g opacity="0.70"><circle cx="684" cy="112" r="2" fill="#F4B89A"/></g><g opacity="0.63"><path d="M717 107 L727 117 M727 107 L717 117" stroke="#E9EBDF" stroke-width="1"/></g><g opacity="0.39"><circle cx="760" cy="112" r="5" stroke="#A8D5C4" stroke-width="1" fill="none"/></g><g opacity="0.42"><path d="M792 112 h12 M798 106 v12" stroke="#F0C87A" stroke-width="1.2"/></g><g opacity="0.65"><polygon points="836,105 842,115.5 830,115.5" stroke="#9CBFE7" stroke-width="1" fill="none"/></g><g opacity="0.40"><circle cx="19" cy="144" r="2" fill="#9CBFE7"/></g><g opacity="0.41"><path d="M52 139 L62 149 M62 139 L52 149" stroke="#C4B3E8" stroke-width="1"/></g><g opacity="0.64"><circle cx="95" cy="144" r="5" stroke="#518DD2" stroke-width="1" fill="none"/></g><g opacity="0.69"><path d="M127 144 h12 M133 138 v12" stroke="#F4B89A" stroke-width="1.2"/></g><g opacity="0.53"><polygon points="171,137 177,147.5 165,147.5" stroke="#E9EBDF" stroke-width="1" fill="none"/></g><g opacity="0.26"><rect x="204" y="139" width="10" height="10" stroke="#A8D5C4" stroke-width="1" fill="none"/></g><g opacity="0.55"><polygon points="247,137 254,144 247,151 240,144" stroke="#F0C87A" stroke-width="1" fill="none"/></g><g opacity="0.69"><circle cx="285" cy="144" r="2" fill="#9CBFE7"/></g><g opacity="0.63"><path d="M318 139 L328 149 M328 139 L318 149" stroke="#C4B3E8" stroke-width="1"/></g><g opacity="0.39"><circle cx="361" cy="144" r="5" stroke="#518DD2" stroke-width="1" fill="none"/></g><g opacity="0.41"><path d="M393 144 h12 M399 138 v12" stroke="#F4B89A" stroke-width="1.2"/></g><g opacity="0.65"><polygon points="437,137 443,147.5 431,147.5" stroke="#E9EBDF" stroke-width="1" fill="none"/></g><g opacity="0.69"><rect x="470" y="139" width="10" height="10" stroke="#A8D5C4" stroke-width="1" fill="none"/></g><g opacity="0.53"><polygon points="513,137 520,144 513,151 506,144" stroke="#F0C87A" stroke-width="1" fill="none"/></g><g opacity="0.27"><circle cx="551" cy="144" r="2" fill="#9CBFE7"/></g><g opacity="0.55"><path d="M584 139 L594 149 M594 139 L584 149" stroke="#C4B3E8" stroke-width="1"/></g><g opacity="0.70"><circle cx="627" cy="144" r="5" stroke="#518DD2" stroke-width="1" fill="none"/></g><g opacity="0.63"><path d="M659 144 h12 M665 138 v12" stroke="#F4B89A" stroke-width="1.2"/></g><g opacity="0.39"><polygon points="703,137 709,147.5 697,147.5" stroke="#E9EBDF" stroke-width="1" fill="none"/></g><g opacity="0.42"><rect x="736" y="139" width="10" height="10" stroke="#A8D5C4" stroke-width="1" fill="none"/></g><g opacity="0.65"><polygon points="779,137 786,144 779,151 772,144" stroke="#F0C87A" stroke-width="1" fill="none"/></g><g opacity="0.69"><circle cx="817" cy="144" r="2" fill="#9CBFE7"/></g><g opacity="0.41"><path d="M32 176 h12 M38 170 v12" stroke="#9CBFE7" stroke-width="1.2"/></g><g opacity="0.64"><polygon points="76,169 82,179.5 70,179.5" stroke="#C4B3E8" stroke-width="1" fill="none"/></g><g opacity="0.69"><rect x="109" y="171" width="10" height="10" stroke="#518DD2" stroke-width="1" fill="none"/></g><g opacity="0.53"><polygon points="152,169 159,176 152,183 145,176" stroke="#F4B89A" stroke-width="1" fill="none"/></g><g opacity="0.26"><circle cx="190" cy="176" r="2" fill="#E9EBDF"/></g><g opacity="0.55"><path d="M223 171 L233 181 M233 171 L223 181" stroke="#A8D5C4" stroke-width="1"/></g><g opacity="0.69"><circle cx="266" cy="176" r="5" stroke="#F0C87A" stroke-width="1" fill="none"/></g><g opacity="0.63"><path d="M298 176 h12 M304 170 v12" stroke="#9CBFE7" stroke-width="1.2"/></g><g opacity="0.39"><polygon points="342,169 348,179.5 336,179.5" stroke="#C4B3E8" stroke-width="1" fill="none"/></g><g opacity="0.41"><rect x="375" y="171" width="10" height="10" stroke="#518DD2" stroke-width="1" fill="none"/></g><g opacity="0.65"><polygon points="418,169 425,176 418,183 411,176" stroke="#F4B89A" stroke-width="1" fill="none"/></g><g opacity="0.69"><circle cx="456" cy="176" r="2" fill="#E9EBDF"/></g><g opacity="0.53"><path d="M489 171 L499 181 M499 171 L489 181" stroke="#A8D5C4" stroke-width="1"/></g><g opacity="0.27"><circle cx="532" cy="176" r="5" stroke="#F0C87A" stroke-width="1" fill="none"/></g><g opacity="0.55"><path d="M564 176 h12 M570 170 v12" stroke="#9CBFE7" stroke-width="1.2"/></g><g opacity="0.70"><polygon points="608,169 614,179.5 602,179.5" stroke="#C4B3E8" stroke-width="1" fill="none"/></g><g opacity="0.63"><rect x="641" y="171" width="10" height="10" stroke="#518DD2" stroke-width="1" fill="none"/></g><g opacity="0.39"><polygon points="684,169 691,176 684,183 677,176" stroke="#F4B89A" stroke-width="1" fill="none"/></g><g opacity="0.42"><circle cx="722" cy="176" r="2" fill="#E9EBDF"/></g><g opacity="0.65"><path d="M755 171 L765 181 M765 171 L755 181" stroke="#A8D5C4" stroke-width="1"/></g><g opacity="0.69"><circle cx="798" cy="176" r="5" stroke="#F0C87A" stroke-width="1" fill="none"/></g><g opacity="0.52"><path d="M830 176 h12 M836 170 v12" stroke="#9CBFE7" stroke-width="1.2"/></g><g opacity="0.64"><polygon points="19,201 26,208 19,215 12,208" stroke="#9CBFE7" stroke-width="1" fill="none"/></g><g opacity="0.69"><circle cx="57" cy="208" r="2" fill="#C4B3E8"/></g><g opacity="0.53"><path d="M90 203 L100 213 M100 203 L90 213" stroke="#518DD2" stroke-width="1"/></g><g opacity="0.26"><circle cx="133" cy="208" r="5" stroke="#F4B89A" stroke-width="1" fill="none"/></g><g opacity="0.55"><path d="M165 208 h12 M171 202 v12" stroke="#E9EBDF" stroke-width="1.2"/></g><g opacity="0.69"><polygon points="209,201 215,211.5 203,211.5" stroke="#A8D5C4" stroke-width="1" fill="none"/></g><g opacity="0.63"><rect x="242" y="203" width="10" height="10" stroke="#F0C87A" stroke-width="1" fill="none"/></g><g opacity="0.39"><polygon points="285,201 292,208 285,215 278,208" stroke="#9CBFE7" stroke-width="1" fill="none"/></g><g opacity="0.41"><circle cx="323" cy="208" r="2" fill="#C4B3E8"/></g><g opacity="0.65"><path d="M356 203 L366 213 M366 203 L356 213" stroke="#518DD2" stroke-width="1"/></g><g opacity="0.69"><circle cx="399" cy="208" r="5" stroke="#F4B89A" stroke-width="1" fill="none"/></g><g opacity="0.53"><path d="M431 208 h12 M437 202 v12" stroke="#E9EBDF" stroke-width="1.2"/></g><g opacity="0.27"><polygon points="475,201 481,211.5 469,211.5" stroke="#A8D5C4" stroke-width="1" fill="none"/></g><g opacity="0.55"><rect x="508" y="203" width="10" height="10" stroke="#F0C87A" stroke-width="1" fill="none"/></g><g opacity="0.70"><polygon points="551,201 558,208 551,215 544,208" stroke="#9CBFE7" stroke-width="1" fill="none"/></g><g opacity="0.63"><circle cx="589" cy="208" r="2" fill="#C4B3E8"/></g><g opacity="0.39"><path d="M622 203 L632 213 M632 203 L622 213" stroke="#518DD2" stroke-width="1"/></g><g opacity="0.42"><circle cx="665" cy="208" r="5" stroke="#F4B89A" stroke-width="1" fill="none"/></g><g opacity="0.65"><path d="M697 208 h12 M703 202 v12" stroke="#E9EBDF" stroke-width="1.2"/></g><g opacity="0.69"><polygon points="741,201 747,211.5 735,211.5" stroke="#A8D5C4" stroke-width="1" fill="none"/></g><g opacity="0.52"><rect x="774" y="203" width="10" height="10" stroke="#F0C87A" stroke-width="1" fill="none"/></g><g opacity="0.27"><polygon points="817,201 824,208 817,215 810,208" stroke="#9CBFE7" stroke-width="1" fill="none"/></g><g opacity="0.69"><circle cx="38" cy="240" r="5" stroke="#9CBFE7" stroke-width="1" fill="none"/></g><g opacity="0.53"><path d="M70 240 h12 M76 234 v12" stroke="#C4B3E8" stroke-width="1.2"/></g><g opacity="0.26"><polygon points="114,233 120,243.5 108,243.5" stroke="#518DD2" stroke-width="1" fill="none"/></g><g opacity="0.55"><rect x="147" y="235" width="10" height="10" stroke="#F4B89A" stroke-width="1" fill="none"/></g><g opacity="0.69"><polygon points="190,233 197,240 190,247 183,240" stroke="#E9EBDF" stroke-width="1" fill="none"/></g><g opacity="0.63"><circle cx="228" cy="240" r="2" fill="#A8D5C4"/></g><g opacity="0.39"><path d="M261 235 L271 245 M271 235 L261 245" stroke="#F0C87A" stroke-width="1"/></g><g opacity="0.41"><circle cx="304" cy="240" r="5" stroke="#9CBFE7" stroke-width="1" fill="none"/></g><g opacity="0.65"><path d="M336 240 h12 M342 234 v12" stroke="#C4B3E8" stroke-width="1.2"/></g><g opacity="0.69"><polygon points="380,233 386,243.5 374,243.5" stroke="#518DD2" stroke-width="1" fill="none"/></g><g opacity="0.53"><rect x="413" y="235" width="10" height="10" stroke="#F4B89A" stroke-width="1" fill="none"/></g><g opacity="0.27"><polygon points="456,233 463,240 456,247 449,240" stroke="#E9EBDF" stroke-width="1" fill="none"/></g><g opacity="0.55"><circle cx="494" cy="240" r="2" fill="#A8D5C4"/></g><g opacity="0.70"><path d="M527 235 L537 245 M537 235 L527 245" stroke="#F0C87A" stroke-width="1"/></g><g opacity="0.63"><circle cx="570" cy="240" r="5" stroke="#9CBFE7" stroke-width="1" fill="none"/></g><g opacity="0.39"><path d="M602 240 h12 M608 234 v12" stroke="#C4B3E8" stroke-width="1.2"/></g><g opacity="0.42"><polygon points="646,233 652,243.5 640,243.5" stroke="#518DD2" stroke-width="1" fill="none"/></g><g opacity="0.65"><rect x="679" y="235" width="10" height="10" stroke="#F4B89A" stroke-width="1" fill="none"/></g><g opacity="0.69"><polygon points="722,233 729,240 722,247 715,240" stroke="#E9EBDF" stroke-width="1" fill="none"/></g><g opacity="0.52"><circle cx="760" cy="240" r="2" fill="#A8D5C4"/></g><g opacity="0.27"><path d="M793 235 L803 245 M803 235 L793 245" stroke="#F0C87A" stroke-width="1"/></g><g opacity="0.56"><circle cx="836" cy="240" r="5" stroke="#9CBFE7" stroke-width="1" fill="none"/></g><g opacity="0.53"><rect x="14" y="267" width="10" height="10" stroke="#9CBFE7" stroke-width="1" fill="none"/></g><g opacity="0.26"><polygon points="57,265 64,272 57,279 50,272" stroke="#C4B3E8" stroke-width="1" fill="none"/></g><g opacity="0.55"><circle cx="95" cy="272" r="2" fill="#518DD2"/></g><g opacity="0.69"><path d="M128 267 L138 277 M138 267 L128 277" stroke="#F4B89A" stroke-width="1"/></g><g opacity="0.63"><circle cx="171" cy="272" r="5" stroke="#E9EBDF" stroke-width="1" fill="none"/></g><g opacity="0.39"><path d="M203 272 h12 M209 266 v12" stroke="#A8D5C4" stroke-width="1.2"/></g><g opacity="0.41"><polygon points="247,265 253,275.5 241,275.5" stroke="#F0C87A" stroke-width="1" fill="none"/></g><g opacity="0.65"><rect x="280" y="267" width="10" height="10" stroke="#9CBFE7" stroke-width="1" fill="none"/></g><g opacity="0.69"><polygon points="323,265 330,272 323,279 316,272" stroke="#C4B3E8" stroke-width="1" fill="none"/></g><g opacity="0.53"><circle cx="361" cy="272" r="2" fill="#518DD2"/></g><g opacity="0.27"><path d="M394 267 L404 277 M404 267 L394 277" stroke="#F4B89A" stroke-width="1"/></g><g opacity="0.55"><circle cx="437" cy="272" r="5" stroke="#E9EBDF" stroke-width="1" fill="none"/></g><g opacity="0.70"><path d="M469 272 h12 M475 266 v12" stroke="#A8D5C4" stroke-width="1.2"/></g><g opacity="0.63"><polygon points="513,265 519,275.5 507,275.5" stroke="#F0C87A" stroke-width="1" fill="none"/></g><g opacity="0.39"><rect x="546" y="267" width="10" height="10" stroke="#9CBFE7" stroke-width="1" fill="none"/></g><g opacity="0.42"><polygon points="589,265 596,272 589,279 582,272" stroke="#C4B3E8" stroke-width="1" fill="none"/></g><g opacity="0.65"><circle cx="627" cy="272" r="2" fill="#518DD2"/></g><g opacity="0.69"><path d="M660 267 L670 277 M670 267 L660 277" stroke="#F4B89A" stroke-width="1"/></g><g opacity="0.52"><circle cx="703" cy="272" r="5" stroke="#E9EBDF" stroke-width="1" fill="none"/></g><g opacity="0.27"><path d="M735 272 h12 M741 266 v12" stroke="#A8D5C4" stroke-width="1.2"/></g><g opacity="0.56"><polygon points="779,265 785,275.5 773,275.5" stroke="#F0C87A" stroke-width="1" fill="none"/></g><g opacity="0.70"><rect x="812" y="267" width="10" height="10" stroke="#9CBFE7" stroke-width="1" fill="none"/></g><g opacity="0.26"><path d="M33 299 L43 309 M43 299 L33 309" stroke="#9CBFE7" stroke-width="1"/></g><g opacity="0.55"><circle cx="76" cy="304" r="5" stroke="#C4B3E8" stroke-width="1" fill="none"/></g><g opacity="0.69"><path d="M108 304 h12 M114 298 v12" stroke="#518DD2" stroke-width="1.2"/></g><g opacity="0.63"><polygon points="152,297 158,307.5 146,307.5" stroke="#F4B89A" stroke-width="1" fill="none"/></g><g opacity="0.39"><rect x="185" y="299" width="10" height="10" stroke="#E9EBDF" stroke-width="1" fill="none"/></g><g opacity="0.41"><polygon points="228,297 235,304 228,311 221,304" stroke="#A8D5C4" stroke-width="1" fill="none"/></g><g opacity="0.65"><circle cx="266" cy="304" r="2" fill="#F0C87A"/></g><g opacity="0.69"><path d="M299 299 L309 309 M309 299 L299 309" stroke="#9CBFE7" stroke-width="1"/></g><g opacity="0.53"><circle cx="342" cy="304" r="5" stroke="#C4B3E8" stroke-width="1" fill="none"/></g><g opacity="0.27"><path d="M374 304 h12 M380 298 v12" stroke="#518DD2" stroke-width="1.2"/></g><g opacity="0.55"><polygon points="418,297 424,307.5 412,307.5" stroke="#F4B89A" stroke-width="1" fill="none"/></g><g opacity="0.70"><rect x="451" y="299" width="10" height="10" stroke="#E9EBDF" stroke-width="1" fill="none"/></g><g opacity="0.63"><polygon points="494,297 501,304 494,311 487,304" stroke="#A8D5C4" stroke-width="1" fill="none"/></g><g opacity="0.39"><circle cx="532" cy="304" r="2" fill="#F0C87A"/></g><g opacity="0.42"><path d="M565 299 L575 309 M575 299 L565 309" stroke="#9CBFE7" stroke-width="1"/></g><g opacity="0.65"><circle cx="608" cy="304" r="5" stroke="#C4B3E8" stroke-width="1" fill="none"/></g><g opacity="0.69"><path d="M640 304 h12 M646 298 v12" stroke="#518DD2" stroke-width="1.2"/></g><g opacity="0.52"><polygon points="684,297 690,307.5 678,307.5" stroke="#F4B89A" stroke-width="1" fill="none"/></g><g opacity="0.27"><rect x="717" y="299" width="10" height="10" stroke="#E9EBDF" stroke-width="1" fill="none"/></g><g opacity="0.56"><polygon points="760,297 767,304 760,311 753,304" stroke="#A8D5C4" stroke-width="1" fill="none"/></g><g opacity="0.70"><circle cx="798" cy="304" r="2" fill="#F0C87A"/></g><g opacity="0.63"><path d="M831 299 L841 309 M841 299 L831 309" stroke="#9CBFE7" stroke-width="1"/></g><g opacity="0.55"><polygon points="19,329 25,339.5 13,339.5" stroke="#9CBFE7" stroke-width="1" fill="none"/></g><g opacity="0.69"><rect x="52" y="331" width="10" height="10" stroke="#C4B3E8" stroke-width="1" fill="none"/></g><g opacity="0.63"><polygon points="95,329 102,336 95,343 88,336" stroke="#518DD2" stroke-width="1" fill="none"/></g><g opacity="0.39"><circle cx="133" cy="336" r="2" fill="#F4B89A"/></g><g opacity="0.41"><path d="M166 331 L176 341 M176 331 L166 341" stroke="#E9EBDF" stroke-width="1"/></g><g opacity="0.65"><circle cx="209" cy="336" r="5" stroke="#A8D5C4" stroke-width="1" fill="none"/></g><g opacity="0.69"><path d="M241 336 h12 M247 330 v12" stroke="#F0C87A" stroke-width="1.2"/></g><g opacity="0.53"><polygon points="285,329 291,339.5 279,339.5" stroke="#9CBFE7" stroke-width="1" fill="none"/></g><g opacity="0.27"><rect x="318" y="331" width="10" height="10" stroke="#C4B3E8" stroke-width="1" fill="none"/></g><g opacity="0.55"><polygon points="361,329 368,336 361,343 354,336" stroke="#518DD2" stroke-width="1" fill="none"/></g><g opacity="0.70"><circle cx="399" cy="336" r="2" fill="#F4B89A"/></g><g opacity="0.63"><path d="M432 331 L442 341 M442 331 L432 341" stroke="#E9EBDF" stroke-width="1"/></g><g opacity="0.39"><circle cx="475" cy="336" r="5" stroke="#A8D5C4" stroke-width="1" fill="none"/></g><g opacity="0.42"><path d="M507 336 h12 M513 330 v12" stroke="#F0C87A" stroke-width="1.2"/></g><g opacity="0.65"><polygon points="551,329 557,339.5 545,339.5" stroke="#9CBFE7" stroke-width="1" fill="none"/></g><g opacity="0.69"><rect x="584" y="331" width="10" height="10" stroke="#C4B3E8" stroke-width="1" fill="none"/></g><g opacity="0.52"><polygon points="627,329 634,336 627,343 620,336" stroke="#518DD2" stroke-width="1" fill="none"/></g><g opacity="0.27"><circle cx="665" cy="336" r="2" fill="#F4B89A"/></g><g opacity="0.56"><path d="M698 331 L708 341 M708 331 L698 341" stroke="#E9EBDF" stroke-width="1"/></g><g opacity="0.70"><circle cx="741" cy="336" r="5" stroke="#A8D5C4" stroke-width="1" fill="none"/></g><g opacity="0.63"><path d="M773 336 h12 M779 330 v12" stroke="#F0C87A" stroke-width="1.2"/></g><g opacity="0.38"><polygon points="817,329 823,339.5 811,339.5" stroke="#9CBFE7" stroke-width="1" fill="none"/></g><g opacity="0.69"><circle cx="38" cy="368" r="2" fill="#9CBFE7"/></g><g opacity="0.63"><path d="M71 363 L81 373 M81 363 L71 373" stroke="#C4B3E8" stroke-width="1"/></g><g opacity="0.39"><circle cx="114" cy="368" r="5" stroke="#518DD2" stroke-width="1" fill="none"/></g><g opacity="0.41"><path d="M146 368 h12 M152 362 v12" stroke="#F4B89A" stroke-width="1.2"/></g><g opacity="0.65"><polygon points="190,361 196,371.5 184,371.5" stroke="#E9EBDF" stroke-width="1" fill="none"/></g><g opacity="0.69"><rect x="223" y="363" width="10" height="10" stroke="#A8D5C4" stroke-width="1" fill="none"/></g><g opacity="0.53"><polygon points="266,361 273,368 266,375 259,368" stroke="#F0C87A" stroke-width="1" fill="none"/></g><g opacity="0.27"><circle cx="304" cy="368" r="2" fill="#9CBFE7"/></g><g opacity="0.55"><path d="M337 363 L347 373 M347 363 L337 373" stroke="#C4B3E8" stroke-width="1"/></g><g opacity="0.70"><circle cx="380" cy="368" r="5" stroke="#518DD2" stroke-width="1" fill="none"/></g><g opacity="0.63"><path d="M412 368 h12 M418 362 v12" stroke="#F4B89A" stroke-width="1.2"/></g><g opacity="0.39"><polygon points="456,361 462,371.5 450,371.5" stroke="#E9EBDF" stroke-width="1" fill="none"/></g><g opacity="0.42"><rect x="489" y="363" width="10" height="10" stroke="#A8D5C4" stroke-width="1" fill="none"/></g><g opacity="0.65"><polygon points="532,361 539,368 532,375 525,368" stroke="#F0C87A" stroke-width="1" fill="none"/></g><g opacity="0.69"><circle cx="570" cy="368" r="2" fill="#9CBFE7"/></g><g opacity="0.52"><path d="M603 363 L613 373 M613 363 L603 373" stroke="#C4B3E8" stroke-width="1"/></g><g opacity="0.27"><circle cx="646" cy="368" r="5" stroke="#518DD2" stroke-width="1" fill="none"/></g><g opacity="0.56"><path d="M678 368 h12 M684 362 v12" stroke="#F4B89A" stroke-width="1.2"/></g><g opacity="0.70"><polygon points="722,361 728,371.5 716,371.5" stroke="#E9EBDF" stroke-width="1" fill="none"/></g><g opacity="0.63"><rect x="755" y="363" width="10" height="10" stroke="#A8D5C4" stroke-width="1" fill="none"/></g><g opacity="0.38"><polygon points="798,361 805,368 798,375 791,368" stroke="#F0C87A" stroke-width="1" fill="none"/></g><g opacity="0.43"><circle cx="836" cy="368" r="2" fill="#9CBFE7"/></g><g opacity="0.63"><path d="M13 400 h12 M19 394 v12" stroke="#9CBFE7" stroke-width="1.2"/></g><g opacity="0.39"><polygon points="57,393 63,403.5 51,403.5" stroke="#C4B3E8" stroke-width="1" fill="none"/></g><g opacity="0.41"><rect x="90" y="395" width="10" height="10" stroke="#518DD2" stroke-width="1" fill="none"/></g><g opacity="0.65"><polygon points="133,393 140,400 133,407 126,400" stroke="#F4B89A" stroke-width="1" fill="none"/></g><g opacity="0.69"><circle cx="171" cy="400" r="2" fill="#E9EBDF"/></g><g opacity="0.53"><path d="M204 395 L214 405 M214 395 L204 405" stroke="#A8D5C4" stroke-width="1"/></g><g opacity="0.27"><circle cx="247" cy="400" r="5" stroke="#F0C87A" stroke-width="1" fill="none"/></g><g opacity="0.55"><path d="M279 400 h12 M285 394 v12" stroke="#9CBFE7" stroke-width="1.2"/></g><g opacity="0.70"><polygon points="323,393 329,403.5 317,403.5" stroke="#C4B3E8" stroke-width="1" fill="none"/></g><g opacity="0.63"><rect x="356" y="395" width="10" height="10" stroke="#518DD2" stroke-width="1" fill="none"/></g><g opacity="0.39"><polygon points="399,393 406,400 399,407 392,400" stroke="#F4B89A" stroke-width="1" fill="none"/></g><g opacity="0.42"><circle cx="437" cy="400" r="2" fill="#E9EBDF"/></g><g opacity="0.65"><path d="M470 395 L480 405 M480 395 L470 405" stroke="#A8D5C4" stroke-width="1"/></g><g opacity="0.69"><circle cx="513" cy="400" r="5" stroke="#F0C87A" stroke-width="1" fill="none"/></g><g opacity="0.52"><path d="M545 400 h12 M551 394 v12" stroke="#9CBFE7" stroke-width="1.2"/></g><g opacity="0.27"><polygon points="589,393 595,403.5 583,403.5" stroke="#C4B3E8" stroke-width="1" fill="none"/></g><g opacity="0.56"><rect x="622" y="395" width="10" height="10" stroke="#518DD2" stroke-width="1" fill="none"/></g><g opacity="0.70"><polygon points="665,393 672,400 665,407 658,400" stroke="#F4B89A" stroke-width="1" fill="none"/></g><g opacity="0.63"><circle cx="703" cy="400" r="2" fill="#E9EBDF"/></g><g opacity="0.38"><path d="M736 395 L746 405 M746 395 L736 405" stroke="#A8D5C4" stroke-width="1"/></g><g opacity="0.43"><circle cx="779" cy="400" r="5" stroke="#F0C87A" stroke-width="1" fill="none"/></g><g opacity="0.65"><path d="M811 400 h12 M817 394 v12" stroke="#9CBFE7" stroke-width="1.2"/></g><g opacity="0.39"><polygon points="38,425 45,432 38,439 31,432" stroke="#9CBFE7" stroke-width="1" fill="none"/></g><g opacity="0.41"><circle cx="76" cy="432" r="2" fill="#C4B3E8"/></g><g opacity="0.65"><path d="M109 427 L119 437 M119 427 L109 437" stroke="#518DD2" stroke-width="1"/></g><g opacity="0.69"><circle cx="152" cy="432" r="5" stroke="#F4B89A" stroke-width="1" fill="none"/></g><g opacity="0.53"><path d="M184 432 h12 M190 426 v12" stroke="#E9EBDF" stroke-width="1.2"/></g><g opacity="0.27"><polygon points="228,425 234,435.5 222,435.5" stroke="#A8D5C4" stroke-width="1" fill="none"/></g><g opacity="0.55"><rect x="261" y="427" width="10" height="10" stroke="#F0C87A" stroke-width="1" fill="none"/></g><g opacity="0.70"><polygon points="304,425 311,432 304,439 297,432" stroke="#9CBFE7" stroke-width="1" fill="none"/></g><g opacity="0.63"><circle cx="342" cy="432" r="2" fill="#C4B3E8"/></g><g opacity="0.39"><path d="M375 427 L385 437 M385 427 L375 437" stroke="#518DD2" stroke-width="1"/></g><g opacity="0.42"><circle cx="418" cy="432" r="5" stroke="#F4B89A" stroke-width="1" fill="none"/></g><g opacity="0.65"><path d="M450 432 h12 M456 426 v12" stroke="#E9EBDF" stroke-width="1.2"/></g><g opacity="0.69"><polygon points="494,425 500,435.5 488,435.5" stroke="#A8D5C4" stroke-width="1" fill="none"/></g><g opacity="0.52"><rect x="527" y="427" width="10" height="10" stroke="#F0C87A" stroke-width="1" fill="none"/></g><g opacity="0.27"><polygon points="570,425 577,432 570,439 563,432" stroke="#9CBFE7" stroke-width="1" fill="none"/></g><g opacity="0.56"><circle cx="608" cy="432" r="2" fill="#C4B3E8"/></g><g opacity="0.70"><path d="M641 427 L651 437 M651 427 L641 437" stroke="#518DD2" stroke-width="1"/></g><g opacity="0.63"><circle cx="684" cy="432" r="5" stroke="#F4B89A" stroke-width="1" fill="none"/></g><g opacity="0.38"><path d="M716 432 h12 M722 426 v12" stroke="#E9EBDF" stroke-width="1.2"/></g><g opacity="0.43"><polygon points="760,425 766,435.5 754,435.5" stroke="#A8D5C4" stroke-width="1" fill="none"/></g><g opacity="0.65"><rect x="793" y="427" width="10" height="10" stroke="#F0C87A" stroke-width="1" fill="none"/></g><g opacity="0.69"><polygon points="836,425 843,432 836,439 829,432" stroke="#9CBFE7" stroke-width="1" fill="none"/></g>
  <!-- Gradient overlay to fade edges -->
  <radialGradient id="gi1" cx="50%" cy="50%" r="55%" gradientUnits="objectBoundingBox">
    <stop offset="0%" stop-color="#0A0C12" stop-opacity="0"/>
    <stop offset="70%" stop-color="#0A0C12" stop-opacity="0.3"/>
    <stop offset="100%" stop-color="#0A0C12" stop-opacity="0.85"/>
  </radialGradient>
  <rect width="800" height="450" fill="url(#gi1)"/>
</svg>