<?xml version="1.0" encoding="UTF-8"?>
<svg xmlns="http://www.w3.org/2000/svg" viewBox="0 0 800 450" fill="none">
  <rect width="800" height="450" fill="#0A1A12"/>
  <!-- Distorted horizontal lines (curving down toward center) -->
  <path d="M0 17 Q200 17.20551111111111 400 17.342518518518517 Q600 17.20551111111111 800 17" stroke="#4D9987" stroke-width="0.5604444444444445" opacity="0.3377777777777778" fill="none"/><path d="M0 51 Q200 52.8496 400 54.08266666666667 Q600 52.8496 800 51" stroke="#4D9987" stroke-width="0.6813333333333333" opacity="0.41333333333333333" fill="none"/><path d="M0 85 Q200 90.13777777777777 400 93.56296296296296 Q600 90.13777777777777 800 85" stroke="#4D9987" stroke-width="0.8022222222222222" opacity="0.4888888888888889" fill="none"/><path d="M0 119 Q200 129.07004444444445 400 135.78340740740742 Q600 129.07004444444445 800 119" stroke="#4D9987" stroke-width="0.9231111111111112" opacity="0.5644444444444445" fill="none"/><path d="M0 153 Q200 169.6464 400 180.744 Q600 169.6464 800 153" stroke="#4D9987" stroke-width="1.044" opacity="0.6399999999999999" fill="none"/><path d="M0 187 Q200 211.86684444444444 400 228.44474074074074 Q600 211.86684444444444 800 187" stroke="#4D9987" stroke-width="1.164888888888889" opacity="0.7155555555555555" fill="none"/><path d="M0 221 Q200 255.73137777777777 400 278.88562962962965 Q600 255.73137777777777 800 221" stroke="#4D9987" stroke-width="1.2857777777777777" opacity="0.7911111111111111" fill="none"/><path d="M0 255 Q200 282.04 400 300.06666666666666 Q600 282.04 800 255" stroke="#4D9987" stroke-width="1.1933333333333334" opacity="0.7333333333333334" fill="none"/><path d="M0 289 Q200 307.43271111111113 400 319.72118518518516 Q600 307.43271111111113 800 289" stroke="#4D9987" stroke-width="1.0724444444444443" opacity="0.6577777777777778" fill="none"/><path d="M0 323 Q200 334.4695111111111 400 342.11585185185186 Q600 334.4695111111111 800 323" stroke="#4D9987" stroke-width="0.9515555555555557" opacity="0.5822222222222222" fill="none"/><path d="M0 357 Q200 363.1504 400 367.2506666666667 Q600 363.1504 800 357" stroke="#4D9987" stroke-width="0.8306666666666667" opacity="0.5066666666666666" fill="none"/><path d="M0 391 Q200 393.4753777777778 400 395.12562962962966 Q600 393.4753777777778 800 391" stroke="#4D9987" stroke-width="0.7097777777777778" opacity="0.4311111111111111" fill="none"/><path d="M0 425 Q200 425.44444444444446 400 425.74074074074076 Q600 425.44444444444446 800 425" stroke="#4D9987" stroke-width="0.5888888888888889" opacity="0.35555555555555557" fill="none"/><path d="M0 459 Q200 459 400 459 Q600 459 800 459" stroke="#4D9987" stroke-width="0.5" opacity="0.3" fill="none"/>
  <!-- Distorted vertical lines (curving toward center) -->
  <path d="M23 0 Q22.92065 225 23 450" stroke="#4D9987" stroke-width="0.44025000000000003" opacity="0.223" fill="none"/><path d="M70 0 Q69.265 225 70 450" stroke="#4D9987" stroke-width="0.5225000000000001" opacity="0.27" fill="none"/><path d="M117 0 Q114.94665 225 117 450" stroke="#4D9987" stroke-width="0.60475" opacity="0.317" fill="none"/><path d="M164 0 Q159.9656 225 164 450" stroke="#4D9987" stroke-width="0.687" opacity="0.36400000000000005" fill="none"/><path d="M211 0 Q204.32184999999998 225 211 450" stroke="#4D9987" stroke-width="0.76925" opacity="0.41100000000000003" fill="none"/><path d="M258 0 Q248.0154 225 258 450" stroke="#4D9987" stroke-width="0.8514999999999999" opacity="0.458" fill="none"/><path d="M305 0 Q291.04625 225 305 450" stroke="#4D9987" stroke-width="0.93375" opacity="0.505" fill="none"/><path d="M352 0 Q333.4144 225 352 450" stroke="#4D9987" stroke-width="1.016" opacity="0.552" fill="none"/><path d="M399 0 Q375.11985 225 399 450" stroke="#4D9987" stroke-width="1.0982500000000002" opacity="0.599" fill="none"/><path d="M446 0 Q427.2026 225 446 450" stroke="#4D9987" stroke-width="1.0194999999999999" opacity="0.554" fill="none"/><path d="M493 0 Q478.86265 225 493 450" stroke="#4D9987" stroke-width="0.9372499999999999" opacity="0.507" fill="none"/><path d="M540 0 Q529.86 225 540 450" stroke="#4D9987" stroke-width="0.855" opacity="0.46" fill="none"/><path d="M587 0 Q580.19465 225 587 450" stroke="#4D9987" stroke-width="0.77275" opacity="0.41300000000000003" fill="none"/><path d="M634 0 Q629.8666 225 634 450" stroke="#4D9987" stroke-width="0.6905" opacity="0.36600000000000005" fill="none"/><path d="M681 0 Q678.87585 225 681 450" stroke="#4D9987" stroke-width="0.60825" opacity="0.319" fill="none"/><path d="M728 0 Q727.2224 225 728 450" stroke="#4D9987" stroke-width="0.526" opacity="0.272" fill="none"/><path d="M775 0 Q774.90625 225 775 450" stroke="#4D9987" stroke-width="0.44375000000000003" opacity="0.225" fill="none"/><path d="M822 0 Q822 225 822 450" stroke="#4D9987" stroke-width="0.4" opacity="0.2" fill="none"/>
  <!-- Center "sink" glow -->
  <radialGradient id="gw1" cx="400" cy="225" r="200" gradientUnits="userSpaceOnUse">
    <stop offset="0%" stop-color="#4D9987" stop-opacity="0.2"/>
    <stop offset="100%" stop-color="#4D9987" stop-opacity="0"/>
  </radialGradient>
  <circle cx="400" cy="225" r="200" fill="url(#gw1)"/>
</svg>