<?xml version="1.0" encoding="utf-8"?>
<!-- Generator: Adobe Illustrator 24.1.0, SVG Export Plug-In . SVG Version: 6.00 Build 0)  -->
<svg version="1.1" id="Layer_1" xmlns="http://www.w3.org/2000/svg" xmlns:xlink="http://www.w3.org/1999/xlink" x="0px" y="0px"
	 viewBox="0 0 128 128" style="enable-background:new 0 0 128 128;" xml:space="preserve">
<style type="text/css">
	.st0{fill:#FFFFFF;}
	.st1{fill:#E9EBDF;}
	.st2{fill:#4D9987;}
	.st3{fill:#0E352C;}
	.st4{fill:none;}
</style>
<g>
	<path class="st0" d="M86.9,2.1c-0.4-0.2-0.8-0.1-1.2,0.1L53.8,20.6c-1,0.6-1.6,1.7-1.7,2.9l0.2,63.2c0,0.4,0.1,0.8,0.5,1.1l6.7,3.9
		C59.2,91.5,59,91,59,90.6l-0.2-63.2c0.1-1.2,0.7-2.2,1.7-2.9L92.4,6.1c0.3-0.2,0.8-0.3,1.2-0.1L86.9,2.1z"/>
	<path class="st1" d="M92.4,6.1C93.3,5.6,94.1,6,94.1,7l0.2,63.2c-0.1,1.2-0.7,2.2-1.7,2.9L60.7,91.5c-0.9,0.5-1.7,0.1-1.7-1
		l-0.2-63.2c0.1-1.2,0.7-2.2,1.7-2.9L92.4,6.1z"/>
	<path class="st1" d="M52.6,21.8c-0.3,0.5-0.4,1-0.5,1.6l0.2,60.3c0,0.4,0.1,0.8,0.5,1l6.4,3.7c-0.3-0.2-0.5-0.6-0.5-1l-0.2-60.3
		c0-0.5,0.2-1.1,0.5-1.6"/>
	<path class="st2" d="M59.6,92.6c-0.2,0-0.3,0-0.5-0.1l0,0l-6.7-3.9c-0.7-0.4-1-1.2-1-1.9l-0.2-63.2c0.1-1.5,0.9-2.9,2.2-3.7
		L85.2,1.4c0.7-0.4,1.5-0.5,2.2-0.1l6.7,3.9l0,0c0.5,0.3,0.6,0.9,0.3,1.4C94.1,7,93.5,7.2,93.1,7c0,0-0.1,0-0.2,0.1L61,25.4
		c-0.7,0.5-1.1,1.2-1.2,2L60,90.6c0,0.1,0,0.2,0,0.2c0.5,0.3,0.6,0.9,0.3,1.4C60.2,92.5,59.9,92.7,59.6,92.6L59.6,92.6z M86.4,3
		c-0.1,0-0.2,0-0.2,0.1L54.3,21.5c-0.7,0.5-1.1,1.2-1.2,2l0.2,63.2c0,0.1,0,0.2,0,0.3l4.7,2.7l-0.2-62.2c0.1-1.5,0.9-2.9,2.2-3.7
		L91.1,5.7L86.4,3z"/>
	<path class="st0" d="M69.5,19.9L85,11c0,0,3.2,2.8,1.4,6.2L69.7,27C70.9,24.8,70.9,22.1,69.5,19.9z"/>
	<path class="st2" d="M69.7,28c-0.6,0-1-0.4-1-1c0-0.2,0-0.3,0.1-0.4c1.1-1.9,1.1-4.2,0-6c-0.3-0.4-0.2-1.1,0.2-1.4
		c0,0,0.1,0,0.1-0.1l15.5-8.9c0.4-0.2,0.8-0.2,1.2,0.1c1.3,1.1,3.4,4.2,1.7,7.5c-0.1,0.2-0.2,0.3-0.4,0.4L70.3,28
		C70,27.9,69.8,28,69.7,28z M70.9,20.3c0.6,1.4,0.8,3,0.6,4.5l14.2-8.3c0.6-1.5,0.2-3.1-0.9-4.3L70.9,20.3z"/>
	<path class="st3" d="M60,92.8c-0.3,0-0.5-0.1-0.8-0.2c-0.1,0-0.1,0-0.2-0.1l-6.7-3.9c-0.7-0.4-1-1.2-1-1.9l-0.2-63.3
		c0-0.7,0.2-1.4,0.6-2.1c0.1-0.1,0.1-0.2,0.2-0.3c0.3-0.5,0.8-1,1.3-1.3l32-18.3c0.7-0.4,1.5-0.5,2.2-0.1l6.7,3.9l0,0l0,0
		c0.6,0.4,1,1.1,0.9,1.9l0.2,63.2c-0.1,1.5-0.9,2.9-2.2,3.7L61.2,92.4C60.9,92.6,60.4,92.8,60,92.8z M59.7,90.6
		c0.1,0,0.2,0.1,0.3,0.2c0,0,0.1,0,0.2-0.1l31.9-18.4c0.7-0.5,1.1-1.2,1.2-2L93.1,7.1l0,0c0-0.1,0-0.2,0-0.2L86.4,3
		c0,0-0.1,0-0.2,0.1L54.3,21.5c-0.3,0.2-0.6,0.5-0.8,0.8c0,0.1-0.1,0.1-0.2,0.2c-0.1,0.3-0.2,0.5-0.2,0.8v0.1l0.2,63.2
		c0,0.1,0,0.2,0,0.3L59.7,90.6z"/>
	<path class="st0" d="M59.6,111.4c1.3-0.8,2.4-0.1,2.4,1.4v1.8c-0.1,1.7-1,3.2-2.4,4.1c-1.3,0.8-2.4,0.1-2.4-1.4v-1.8
		C57.3,113.9,58.2,112.3,59.6,111.4z"/>
	<path class="st0" d="M58.6,120c-0.4,0-0.8-0.1-1.1-0.3c-0.8-0.5-1.3-1.4-1.2-2.4v-1.8c0.1-2,1.2-3.9,2.9-5l0,0
		c1.1-0.8,2.6-0.6,3.4,0.5c0.4,0.5,0.5,1.1,0.5,1.7v1.8c-0.1,2-1.2,3.9-2.9,5C59.7,119.8,59.1,120,58.6,120z M60.7,112.1
		c-0.2,0-0.4,0.1-0.6,0.2l0,0c-1.1,0.7-1.8,1.9-1.9,3.2v1.8c0,0.4,0.1,0.6,0.2,0.7s0.3,0,0.7-0.2c1.1-0.7,1.8-1.9,1.9-3.2v-1.8
		c0-0.4-0.1-0.6-0.2-0.7C60.8,112.1,60.7,112.1,60.7,112.1L60.7,112.1z"/>
	<path class="st0" d="M80.8,41.1l0.1,42.8V94c-0.1,1.7-1,3.2-2.4,4.1c-1.3,0.8-2.4,0.2-2.4-1.4V86.6c-0.2-1.2-1.2-1.7-2.4-1
		c-1.3,0.8-2.1,2.2-2.3,3.7v4.4c-0.1,1.7-1,3.2-2.4,4.1c-1.3,0.8-2.4,0.2-2.4-1.4V92c-0.2-1.2-1.2-1.7-2.4-1c-1.2,1-2,2.3-2.2,3.8
		v7.8c-0.1,1.7-1,3.2-2.4,4.1c-1.3,0.8-2.4,0.2-2.4-1.3v-7.8c-0.2-1.2-1.2-1.7-2.4-1c-1.3,0.8-2.1,2.2-2.3,3.7v21.3
		c-0.1,1.7-1,3.2-2.4,4.1c-1.3,0.8-2.4,0.1-2.4-1.4l0-21.3l-0.1-52.7l33.3-19.2L80.8,41.1z"/>
	<path class="st0" d="M49.1,127c-0.4,0-0.8-0.1-1.1-0.3c-0.8-0.5-1.3-1.4-1.2-2.4l-0.2-74c0-0.4,0.2-0.7,0.5-0.9l33.3-19.2
		c0.5-0.3,1.1-0.1,1.4,0.4c0.1,0.2,0.1,0.3,0.1,0.5l-0.1,10L81.9,94c-0.1,2-1.2,3.9-2.9,5c-1.1,0.8-2.6,0.6-3.4-0.5
		c-0.4-0.5-0.6-1.1-0.5-1.8v-10c0-0.2-0.1-0.3-0.2-0.4c-0.2,0-0.5,0-0.7,0.2c-1,0.7-1.7,1.8-1.8,3v4.3c-0.1,2-1.2,3.9-2.9,4.9
		c-1.1,0.8-2.6,0.6-3.4-0.5c-0.4-0.5-0.5-1.1-0.5-1.7v-4.3c0-0.2-0.1-0.3-0.2-0.4c-0.2,0-0.5,0-0.7,0.2c-1,0.7-1.7,1.8-1.8,3v7.7
		c-0.1,2-1.2,3.9-2.9,4.9c-1.1,0.8-2.6,0.6-3.4-0.5c-0.4-0.5-0.6-1.1-0.5-1.7v-7.7c0-0.2-0.1-0.3-0.2-0.4c-0.2,0-0.5,0-0.7,0.2
		c-1,0.7-1.7,1.8-1.8,3v21.2c-0.1,2-1.2,3.9-2.9,5C50.2,126.8,49.7,127,49.1,127z M48.6,50.9l0.2,73.4c0,0.4,0.1,0.6,0.2,0.7
		s0.3,0,0.7-0.2c1.1-0.7,1.8-1.9,1.9-3.2v-21.3c0.2-1.9,1.2-3.6,2.8-4.6c0.8-0.5,1.7-0.6,2.6-0.2c0.7,0.4,1.2,1.1,1.3,2v0.1v7.8
		c0,0.4,0.1,0.6,0.2,0.7s0.3,0,0.7-0.2c1.1-0.7,1.8-1.9,1.9-3.2v-7.8c0.2-1.9,1.2-3.6,2.8-4.6c0.8-0.5,1.7-0.6,2.6-0.2
		c0.7,0.4,1.2,1.1,1.3,2v0.1v4.4c0,0.4,0.1,0.6,0.2,0.7s0.3,0,0.7-0.2c1.1-0.7,1.8-1.9,1.9-3.2v-4.4c0.2-1.9,1.2-3.6,2.8-4.6
		c0.8-0.5,1.7-0.6,2.6-0.2c0.7,0.4,1.2,1.1,1.3,2v0.1v10.1c0,0.4,0.1,0.6,0.2,0.7s0.3,0,0.7-0.2c1.1-0.7,1.8-1.9,1.9-3.2L80,41.3
		l0,0l0.1-8.2L48.6,50.9z"/>
	<path class="st2" d="M58.6,120c-0.4,0-0.8-0.1-1.1-0.3c-0.8-0.5-1.3-1.4-1.2-2.4v-1.8c0.1-2,1.2-3.9,2.9-5l0,0
		c1.1-0.8,2.6-0.6,3.4,0.5c0.4,0.5,0.5,1.1,0.5,1.7v1.8c-0.1,2-1.2,3.9-2.9,5C59.7,119.8,59.1,120,58.6,120z M60.7,112.1
		c-0.2,0-0.4,0.1-0.6,0.2l0,0c-1.1,0.7-1.8,1.9-1.9,3.2v1.8c0,0.4,0.1,0.6,0.2,0.7s0.3,0,0.7-0.2c1.1-0.7,1.8-1.9,1.9-3.2v-1.8
		c0-0.4-0.1-0.6-0.2-0.7C60.8,112.1,60.7,112.1,60.7,112.1L60.7,112.1z"/>
	<path class="st2" d="M49.1,127c-0.4,0-0.8-0.1-1.1-0.3c-0.8-0.5-1.3-1.4-1.2-2.4l-0.2-74c0-0.4,0.2-0.7,0.5-0.9l33.3-19.2
		c0.5-0.3,1.1-0.1,1.4,0.4c0.1,0.2,0.1,0.3,0.1,0.5l-0.1,10L81.9,94c-0.1,2-1.2,3.9-2.9,5c-1.1,0.8-2.6,0.6-3.4-0.5
		c-0.4-0.5-0.6-1.1-0.5-1.8v-10c0-0.2-0.1-0.3-0.2-0.4c-0.2,0-0.5,0-0.7,0.2c-1,0.7-1.7,1.8-1.8,3v4.3c-0.1,2-1.2,3.9-2.9,4.9
		c-1.1,0.8-2.6,0.6-3.4-0.5c-0.4-0.5-0.5-1.1-0.5-1.7v-4.3c0-0.2-0.1-0.3-0.2-0.4c-0.2,0-0.5,0-0.7,0.2c-1,0.7-1.7,1.8-1.8,3v7.7
		c-0.1,2-1.2,3.9-2.9,4.9c-1.1,0.8-2.6,0.6-3.4-0.5c-0.4-0.5-0.6-1.1-0.5-1.7v-7.7c0-0.2-0.1-0.3-0.2-0.4c-0.2,0-0.5,0-0.7,0.2
		c-1,0.7-1.7,1.8-1.8,3v21.2c-0.1,2-1.2,3.9-2.9,5C50.2,126.8,49.7,127,49.1,127z M48.6,50.9l0.2,73.4c0,0.4,0.1,0.6,0.2,0.7
		s0.3,0,0.7-0.2c1.1-0.7,1.8-1.9,1.9-3.2v-21.3c0.2-1.9,1.2-3.6,2.8-4.6c0.8-0.5,1.7-0.6,2.6-0.2c0.7,0.4,1.2,1.1,1.3,2v0.1v7.8
		c0,0.4,0.1,0.6,0.2,0.7s0.3,0,0.7-0.2c1.1-0.7,1.8-1.9,1.9-3.2v-7.8c0.2-1.9,1.2-3.6,2.8-4.6c0.8-0.5,1.7-0.6,2.6-0.2
		c0.7,0.4,1.2,1.1,1.3,2v0.1v4.4c0,0.4,0.1,0.6,0.2,0.7s0.3,0,0.7-0.2c1.1-0.7,1.8-1.9,1.9-3.2v-4.4c0.2-1.9,1.2-3.6,2.8-4.6
		c0.8-0.5,1.7-0.6,2.6-0.2c0.7,0.4,1.2,1.1,1.3,2v0.1v10.1c0,0.4,0.1,0.6,0.2,0.7s0.3,0,0.7-0.2c1.1-0.7,1.8-1.9,1.9-3.2L80,41.3
		l0,0l0.1-8.2L48.6,50.9z"/>
	<path class="st1" d="M56.2,88c-0.6,0-1-0.4-1-1V76.5c0-0.4,0.2-0.7,0.5-0.9l16.1-9.3c0.5-0.3,1.1-0.1,1.4,0.4
		c0.1,0.2,0.1,0.3,0.1,0.5v10.5c0,0.4-0.2,0.7-0.5,0.9l-16.1,9.3C56.6,87.9,56.4,88,56.2,88z M57.2,77.1v8.2l14.1-8.1V69L57.2,77.1z
		"/>
	<path class="st1" d="M56.2,69.3c-0.6,0-1-0.4-1-1c0-0.4,0.2-0.7,0.5-0.9L68,60.3c0.5-0.3,1.1-0.1,1.4,0.4s0.1,1.1-0.4,1.4l0,0
		l-12.3,7.1C56.6,69.2,56.4,69.3,56.2,69.3z"/>
	<path class="st1" d="M56.2,63.2c-0.6,0-1-0.4-1-1c0-0.4,0.2-0.7,0.5-0.9L71.8,52c0.5-0.3,1.1-0.1,1.4,0.4s0.1,1.1-0.4,1.4l0,0
		L56.7,63C56.6,63.1,56.4,63.2,56.2,63.2z"/>
	<rect x="1" y="1" class="st4" width="126" height="126"/>
	<rect class="st4" width="128" height="128"/>
</g>
</svg>
