<?xml version="1.0" encoding="utf-8"?>
<!-- Generator: Adobe Illustrator 24.1.0, SVG Export Plug-In . SVG Version: 6.00 Build 0)  -->
<svg version="1.1" id="Layer_1" xmlns="http://www.w3.org/2000/svg" xmlns:xlink="http://www.w3.org/1999/xlink" x="0px" y="0px"
	 viewBox="0 0 128 128" style="enable-background:new 0 0 128 128;" xml:space="preserve">
<style type="text/css">
	.st0{fill:#E9EBDF;}
	.st1{fill:#0E352C;}
	.st2{fill:#FFFFFF;}
	.st3{fill:#4D9987;}
	.st4{fill:#C4D7D3;}
	.st5{fill:#185849;}
	.st6{fill:none;}
</style>
<g>
	<path class="st0" d="M57.5,118.9c-0.6,0-1-0.5-1-1l0,0c0-0.6,0.5-1,1-1l0,0c0.6,0,1,0.5,1,1l0,0l0,0
		C58.6,118.5,58.1,118.9,57.5,118.9C57.6,118.9,57.6,118.9,57.5,118.9z M63.6,118.9c-0.5,0-1-0.4-1-1l0,0c0-0.6,0.4-1,1-1l0,0l0,0
		c0.6,0,1,0.4,1,1l0,0l0,0C64.6,118.5,64.1,118.9,63.6,118.9z M51.5,118.5c-0.5-0.1-0.9-0.6-0.9-1.1l0,0l0,0
		c0.1-0.5,0.6-0.9,1.1-0.9l0,0l0,0c0.5,0.1,0.9,0.6,0.9,1.1l0,0l0,0C52.5,118.1,52.1,118.5,51.5,118.5L51.5,118.5L51.5,118.5z
		 M68.5,117.6c-0.1-0.5,0.3-1,0.9-1.1l0,0l0,0c0.5-0.1,1,0.3,1.1,0.9l0,0l0,0c0.1,0.5-0.3,1-0.9,1.1l0,0h-0.1l0,0
		C69,118.5,68.6,118.1,68.5,117.6z M45.5,117.6c-0.5-0.1-0.9-0.6-0.8-1.2l0,0c0.1-0.5,0.6-0.9,1.2-0.8l0,0l0,0
		c0.5,0.1,0.9,0.6,0.8,1.2l0,0l0,0c-0.1,0.5-0.5,0.8-1,0.8l0,0C45.7,117.6,45.6,117.6,45.5,117.6z M74.4,116.8
		c-0.1-0.5,0.2-1.1,0.8-1.2l0,0l0,0c0.5-0.1,1.1,0.2,1.2,0.8l0,0l0,0c0.1,0.5-0.2,1.1-0.8,1.2l0,0l0,0c-0.1,0-0.1,0-0.2,0l0,0
		C75,117.6,74.5,117.2,74.4,116.8z M39.6,116.1c-0.5-0.2-0.8-0.7-0.7-1.2l0,0c0.1-0.5,0.7-0.8,1.2-0.7l0,0l0,0
		c0.5,0.2,0.8,0.7,0.7,1.2l0,0l0,0c-0.1,0.4-0.5,0.7-1,0.7l0,0C39.8,116.2,39.7,116.1,39.6,116.1z M80.3,115.4
		c-0.1-0.5,0.2-1.1,0.7-1.2l0,0c0.5-0.2,1.1,0.2,1.2,0.7l0,0c0.2,0.5-0.1,1.1-0.7,1.2l0,0l0,0c-0.1,0-0.2,0-0.3,0l0,0
		C80.8,116.1,80.4,115.8,80.3,115.4z M33.9,114.1c-0.5-0.2-0.8-0.8-0.5-1.3l0,0c0.2-0.5,0.8-0.8,1.3-0.6l0,0
		c0.5,0.2,0.8,0.8,0.5,1.3l0,0l0,0c-0.2,0.4-0.5,0.6-0.9,0.6l0,0C34.1,114.2,34,114.2,33.9,114.1z M85.9,113.6
		c-0.2-0.5,0-1.1,0.5-1.3l0,0l0,0c0.5-0.2,1.1,0,1.3,0.5l0,0l0,0c0.2,0.5,0,1.1-0.5,1.3l0,0l0,0c-0.1,0-0.3,0.1-0.4,0.1l0,0
		C86.5,114.2,86.1,113.9,85.9,113.6z M28.4,111.5c-0.5-0.3-0.6-0.9-0.4-1.4l0,0c0.3-0.5,0.9-0.6,1.4-0.4l0,0
		c0.5,0.3,0.7,0.9,0.4,1.4l0,0l0,0c-0.2,0.3-0.5,0.5-0.9,0.5l0,0C28.7,111.6,28.5,111.6,28.4,111.5z M91.4,111.1
		c-0.3-0.5-0.1-1.1,0.4-1.4l0,0c0.5-0.3,1.1-0.1,1.4,0.4l0,0c0.3,0.5,0.1,1.1-0.4,1.4l0,0c-0.1,0.1-0.3,0.1-0.5,0.1l0,0
		C91.9,111.6,91.6,111.4,91.4,111.1z M23.3,108.1L23.3,108.1c-0.4-0.3-0.5-1-0.2-1.4l0,0c0.3-0.4,1-0.5,1.4-0.2l0,0
		c0.4,0.3,0.5,1,0.2,1.4l0,0l0,0c-0.2,0.2-0.5,0.4-0.8,0.4l0,0C23.7,108.3,23.5,108.2,23.3,108.1z M96.4,107.9
		c-0.3-0.4-0.3-1.1,0.2-1.4l0,0c0.4-0.3,1.1-0.3,1.4,0.2l0,0c0.3,0.4,0.3,1.1-0.2,1.4l0,0c-0.2,0.1-0.4,0.2-0.6,0.2l0,0
		C96.9,108.3,96.6,108.1,96.4,107.9z M18.9,103.8L18.9,103.8c-0.4-0.4-0.3-1.1,0.1-1.4l0,0l0,0c0.4-0.4,1.1-0.3,1.4,0.1l0,0l0,0
		c0.4,0.4,0.3,1.1-0.1,1.4l0,0l0,0c-0.2,0.1-0.4,0.2-0.6,0.2l0,0C19.3,104.1,19,104,18.9,103.8z M100.9,103.9
		c-0.4-0.3-0.5-1-0.1-1.4l0,0l0,0c0.3-0.4,1-0.5,1.4-0.1l0,0c0.4,0.3,0.5,1,0.1,1.4l0,0l0,0c-0.2,0.2-0.5,0.4-0.8,0.4l0,0
		C101.3,104.1,101,104,100.9,103.9z M15.6,98.4c-0.2-0.5,0-1.1,0.6-1.3l0,0c0.5-0.2,1.1,0,1.3,0.6l0,0c0.2,0.5,0,1.1-0.5,1.3l0,0
		l0,0c-0.1,0.1-0.2,0.1-0.4,0.1l0,0C16.1,99.1,15.8,98.8,15.6,98.4z M104.2,98.9c-0.5-0.2-0.8-0.8-0.6-1.3l0,0
		c0.2-0.5,0.8-0.8,1.3-0.6l0,0l0,0c0.5,0.2,0.8,0.8,0.6,1.3l0,0c-0.2,0.4-0.5,0.6-0.9,0.6l0,0C104.4,99,104.3,99,104.2,98.9z
		 M14.4,92.2c0-0.6,0.4-1,1-1l0,0c0.6,0,1,0.4,1,1l0,0c0,0.5-0.4,1-1,1l0,0l0,0C14.8,93.2,14.4,92.8,14.4,92.2
		C14.4,92.3,14.4,92.3,14.4,92.2z M104.7,92.2L104.7,92.2L104.7,92.2C104.7,92.1,104.7,92.1,104.7,92.2L104.7,92.2
		c0-0.7,0.4-1.1,1-1.1l0,0c0.6,0,1,0.4,1,1l0,0v0.1l0,0v0.1l0,0c0,0.6-0.4,1-1,1l0,0C105.2,93.2,104.7,92.7,104.7,92.2L104.7,92.2z
		 M16.1,87.3c-0.5-0.2-0.8-0.8-0.6-1.3l0,0c0.2-0.5,0.8-0.8,1.3-0.6l0,0c0.5,0.2,0.8,0.8,0.6,1.3l0,0l0,0c-0.2,0.4-0.5,0.6-0.9,0.6
		l0,0C16.4,87.4,16.2,87.4,16.1,87.3z M103.6,86.6c-0.2-0.5,0-1.1,0.5-1.3l0,0c0.5-0.2,1.1,0,1.3,0.5l0,0l0,0c0.2,0.5,0,1.1-0.5,1.3
		l0,0l0,0c-0.1,0-0.3,0.1-0.4,0.1l0,0C104.1,87.3,103.8,87,103.6,86.6z M18.9,82.1c-0.4-0.4-0.5-1-0.2-1.4l0,0
		c0.4-0.4,1-0.5,1.4-0.1l0,0c0.4,0.4,0.5,1,0.1,1.4l0,0c-0.2,0.2-0.5,0.4-0.8,0.4l0,0C19.3,82.3,19.1,82.2,18.9,82.1z M100.6,81.8
		L100.6,81.8c-0.3-0.4-0.3-1,0.1-1.4l0,0l0,0c0.4-0.4,1-0.3,1.4,0.1l0,0l0,0c0.4,0.4,0.3,1.1-0.1,1.4l0,0l0,0
		c-0.2,0.1-0.4,0.2-0.6,0.2l0,0C101.1,82.2,100.8,82,100.6,81.8z M23,77.8c-0.3-0.4-0.3-1.1,0.2-1.4l0,0c0.4-0.3,1.1-0.3,1.4,0.2
		l0,0c0.3,0.4,0.3,1.1-0.2,1.4l0,0c-0.2,0.1-0.4,0.2-0.6,0.2l0,0C23.5,78.1,23.2,78,23,77.8z M96.5,77.8L96.5,77.8
		c-0.4-0.3-0.5-1-0.2-1.4l0,0l0,0c0.3-0.4,1-0.5,1.4-0.2l0,0l0,0c0.4,0.3,0.5,1,0.2,1.4l0,0l0,0c-0.2,0.2-0.5,0.4-0.8,0.4l0,0
		C96.9,78,96.7,78,96.5,77.8z M27.9,74.3c-0.3-0.5-0.1-1.1,0.4-1.4l0,0c0.5-0.3,1.1-0.1,1.4,0.4l0,0c0.3,0.5,0.1,1.1-0.4,1.4l0,0
		c-0.1,0.1-0.3,0.1-0.5,0.1l0,0C28.4,74.8,28.1,74.6,27.9,74.3z M91.7,74.6c-0.5-0.3-0.7-0.9-0.4-1.4l0,0l0,0
		c0.3-0.5,0.9-0.7,1.4-0.4l0,0l0,0c0.5,0.3,0.7,0.9,0.4,1.4l0,0l0,0c-0.2,0.3-0.5,0.5-0.9,0.5l0,0C92,74.7,91.8,74.7,91.7,74.6z
		 M33.2,71.6c-0.2-0.5,0-1.1,0.5-1.3l0,0c0.5-0.2,1.1,0,1.3,0.5l0,0l0,0c0.2,0.5,0,1.1-0.5,1.3l0,0l0,0c-0.1,0-0.3,0.1-0.4,0.1l0,0
		C33.8,72.2,33.4,72,33.2,71.6z M86.4,72.1c-0.5-0.2-0.8-0.8-0.6-1.3l0,0c0.2-0.5,0.8-0.8,1.3-0.6l0,0c0.5,0.2,0.8,0.8,0.5,1.3l0,0
		c-0.2,0.4-0.5,0.6-0.9,0.6l0,0C86.6,72.2,86.5,72.1,86.4,72.1z M38.8,69.5c-0.2-0.5,0.1-1.1,0.7-1.2l0,0l0,0
		c0.5-0.1,1.1,0.2,1.2,0.7l0,0c0.2,0.5-0.1,1.1-0.7,1.2l0,0c-0.1,0-0.2,0-0.3,0l0,0C39.4,70.2,39,70,38.8,69.5z M80.8,70.2
		C80.3,70,80,69.5,80.1,69l0,0c0.2-0.5,0.7-0.8,1.2-0.7l0,0c0.5,0.2,0.8,0.7,0.7,1.2l0,0l0,0c-0.1,0.4-0.5,0.7-1,0.7l0,0
		C81,70.2,80.9,70.2,80.8,70.2z M44.6,68c-0.1-0.5,0.2-1.1,0.8-1.2l0,0c0.5-0.1,1.1,0.2,1.2,0.8l0,0l0,0c0.1,0.5-0.2,1.1-0.8,1.2
		l0,0l0,0c-0.1,0-0.1,0-0.2,0l0,0C45.1,68.8,44.7,68.5,44.6,68z M75.1,68.8c-0.5-0.1-0.9-0.6-0.8-1.2l0,0l0,0
		c0.1-0.5,0.6-0.9,1.2-0.8l0,0c0.5,0.1,0.9,0.6,0.8,1.2l0,0l0,0c-0.1,0.5-0.5,0.8-1,0.8l0,0C75.2,68.8,75.2,68.8,75.1,68.8z
		 M50.5,67c-0.1-0.5,0.3-1,0.9-1.1l0,0l0,0c0.5-0.1,1,0.3,1.1,0.9l0,0l0,0c0.1,0.5-0.3,1-0.9,1.1l0,0l0,0h-0.1l0,0
		C51,67.9,50.6,67.5,50.5,67z M69.3,67.8c-0.5-0.1-0.9-0.5-0.9-1.1l0,0l0,0c0.1-0.5,0.5-0.9,1.1-0.9l0,0l0,0
		c0.5,0.1,0.9,0.6,0.9,1.1l0,0C70.3,67.4,69.9,67.8,69.3,67.8L69.3,67.8C69.4,67.9,69.3,67.9,69.3,67.8z M57.5,67.4
		c-0.5,0-1-0.4-1-1l0,0c0-0.6,0.4-1,1-1l0,0c0.6,0,1,0.4,1,1l0,0l0,0C58.5,66.9,58.1,67.4,57.5,67.4L57.5,67.4z M63.4,67.4
		c-0.6,0-1-0.5-1-1l0,0l0,0c0-0.5,0.5-1,1-1l0,0l0,0c0.5,0,1,0.5,1,1l0,0l0,0C64.4,67,64,67.4,63.4,67.4L63.4,67.4z"/>
	<path class="st0" d="M88.7,70.6c-3.1,0-4.2-4.2-4.2-7.9c0-8.6,5.3-18.8,11.6-22.5c1-0.7,2.2-1,3.4-1.1c3.1,0,4.2,4.2,4.2,7.9
		c0,8.6-5.3,18.8-11.6,22.5C91,70.1,89.9,70.5,88.7,70.6z M99.4,31.1c-2.6,0.1-5.2,0.8-7.4,2.2c-8.7,5-15.6,18-15.6,29.4
		c0,11,6.1,15.9,12.2,15.9c2.6-0.1,5.2-0.8,7.4-2.2c8.7-5,15.6-18,15.6-29.4C111.6,36,105.5,31.1,99.4,31.1z"/>
	<path class="st1" d="M88.7,80.6c-7.1,0-14.2-5.5-14.2-17.9c0-12.1,7.3-25.8,16.6-31.1c2.5-1.5,5.4-2.4,8.4-2.4
		c7.1,0,14.2,5.5,14.2,17.9c0,12.1-7.3,25.8-16.6,31.1C94.5,79.7,91.6,80.5,88.7,80.6z M99.4,31.1c-2.6,0.1-5.2,0.8-7.4,2.2
		c-8.7,5-15.6,18-15.6,29.4c0,11,6.1,15.9,12.2,15.9c2.6-0.1,5.2-0.8,7.4-2.2c8.7-5,15.6-18,15.6-29.4
		C111.6,36,105.5,31.1,99.4,31.1z"/>
	<path class="st0" d="M88.7,72.6c-4.6,0-6.2-5.3-6.2-9.9c0-0.6,0.4-1,1-1s1,0.4,1,1c0,2.9,0.9,7.9,4.2,7.9c1.2-0.1,2.4-0.4,3.4-1.1
		c3.1-1.8,6.2-5.5,8.5-10.1c0.2-0.5,0.8-0.7,1.3-0.5s0.7,0.8,0.5,1.3l0,0c-2.4,4.9-5.8,8.9-9.3,10.9C91.7,72,90.2,72.5,88.7,72.6z"
		/>
	<path class="st2" d="M77.5,63.7c-0.6,0-1-0.4-1-1c0-11.4,6.8-24.4,15.6-29.4c2.2-1.4,4.8-2.1,7.4-2.2c4,0,7.6,2.1,9.6,5.5
		c0.3,0.5,0.2,1.1-0.3,1.4c-0.5,0.3-1.1,0.2-1.4-0.3c0,0,0-0.1-0.1-0.1c-1.6-2.9-4.6-4.6-7.9-4.6c-2.3,0.1-4.5,0.7-6.4,1.9
		c-8.2,4.7-14.6,16.9-14.6,27.7C78.5,63.2,78,63.7,77.5,63.7L77.5,63.7z"/>
	<path class="st1" d="M88.7,70.6c-3.1,0-4.2-4.2-4.2-7.9c0-8.6,5.3-18.8,11.6-22.5c1-0.7,2.2-1,3.4-1.1c3.1,0,4.2,4.2,4.2,7.9
		c0,8.6-5.3,18.8-11.6,22.5C91,70.1,89.9,70.5,88.7,70.6z M99.4,41.1c-0.9,0.1-1.7,0.4-2.4,0.8c-5.7,3.3-10.6,12.8-10.6,20.7
		c0,3.3,1,5.9,2.2,5.9c0.9-0.1,1.7-0.3,2.4-0.8c5.7-3.3,10.6-12.8,10.6-20.7C101.6,43.7,100.7,41.1,99.4,41.1z"/>
	<path class="st2" d="M26.4,29.7v59.1c0,10.9,15.3,19.7,34.2,19.7s34.2-8.8,34.2-19.7V29.7H26.4z"/>
	<path class="st1" d="M60.5,109.5c-19.4,0-35.2-9.3-35.2-20.7V29.7c0-0.6,0.4-1,1-1h68.3c0.6,0,1,0.4,1,1v59.1
		C95.7,100.2,79.9,109.5,60.5,109.5z M27.4,30.7v58.1c0,10.3,14.9,18.7,33.2,18.7s33.2-8.4,33.2-18.7V30.7H27.4z"/>
	<path class="st0" d="M60.5,108.5c18.9,0,34.2-8.8,34.2-19.7V29.7H60.5V108.5z"/>
	<ellipse class="st2" cx="60.5" cy="29.7" rx="34.2" ry="19.7"/>
	<path class="st1" d="M60.5,109.5c-19.4,0-35.2-9.3-35.2-20.7V29.7c0-0.6,0.4-1,1-1s1,0.4,1,1v59.1c0,10.3,14.9,18.7,33.2,18.7
		s33.2-8.4,33.2-18.7V29.7c0-0.6,0.4-1,1-1s1,0.4,1,1v59.1C95.7,100.2,79.9,109.5,60.5,109.5z"/>
	<path class="st0" d="M60.5,14.7L60.5,14.7c-15.5,0-28,6.7-28,15s12.5,15,28,15l0,0V14.7z"/>
	<ellipse class="st0" cx="60.5" cy="34.7" rx="26.4" ry="10"/>
	<path class="st3" d="M60.5,45.7c-12.2,0-23.1-4.2-27.2-10.4c-0.2-0.3-0.2-0.8,0-1.1c4.1-6.2,15.1-10.4,27.2-10.4S83.6,28,87.8,34.2
		c0.2,0.3,0.2,0.8,0,1.1C83.7,41.5,72.7,45.7,60.5,45.7z M35.4,34.7c4.1,5.4,14,9,25.2,9s21.1-3.6,25.2-9c-4.1-5.4-14-9-25.2-9
		S39.4,29.3,35.4,34.7z"/>
	<path class="st1" d="M60.5,45.7c-16.3,0-29-7-29-16s12.7-16,29-16s29,7,29,16S76.8,45.7,60.5,45.7z M60.5,15.7
		c-14.9,0-27,6.3-27,14s12.1,14,27,14s27-6.3,27-14S75.4,15.7,60.5,15.7z"/>
	<path class="st1" d="M94.7,30.7c-0.6,0-1-0.4-1-1c0-4-2.3-7.9-6.6-11.2c-3.8-2.7-8.1-4.7-12.6-5.8c-9.2-2.3-18.8-2.3-27.9,0
		c-4.5,1.1-8.8,3.1-12.6,5.8c-4.3,3.3-6.6,7.1-6.6,11.2c0,0.6-0.4,1-1,1s-1-0.4-1-1c0-4.7,2.6-9.1,7.4-12.8c4-2.9,8.5-5,13.3-6.2
		c9.5-2.4,19.4-2.4,28.9,0c4.8,1.2,9.3,3.3,13.3,6.2c4.8,3.7,7.4,8.1,7.4,12.8C95.7,30.3,95.3,30.7,94.7,30.7z"/>
	<path class="st3" d="M60.5,51.5c-3.7,0-7.3-0.3-10.9-1c-3.6-0.7-7.1-1.8-10.5-3.2c-3.4-1.5-6.5-3.6-9.2-6.2c-0.4-0.4-0.4-1,0-1.4
		s1-0.4,1.4,0c2.5,2.4,5.4,4.4,8.6,5.8c3.2,1.4,6.6,2.5,10,3.1c7,1.3,14.1,1.3,21.1,0c3.5-0.6,6.8-1.7,10.1-3.1
		c3.2-1.4,6.1-3.3,8.6-5.8c0.4-0.4,1-0.4,1.4,0s0.4,1,0,1.4c-2.6,2.6-5.8,4.7-9.2,6.2c-3.4,1.5-6.9,2.6-10.5,3.2
		C67.9,51.1,64.2,51.5,60.5,51.5z"/>
	<path class="st1" d="M37,48c-0.6,0-1-0.4-1-1c0-3,1.8-6.4,4.1-7.7c0.8-0.6,1.9-0.7,2.9-0.4c0.9,0.3,1.5,1,1.8,1.9
		c0.2,0.5,0,1.1-0.5,1.3s-1.1,0-1.3-0.5c0,0,0,0,0-0.1c-0.1-0.3-0.3-0.6-0.6-0.7c-0.4-0.1-0.9,0-1.2,0.2c-1.9,1.4-3,3.6-3.1,5.9
		C38,47.5,37.5,48,37,48L37,48z"/>
	<path class="st4" d="M43.5,86c0,1.6-0.9,2.3-2.1,1.6l-3.9-2.2l-3.9-2.2c-1.3-0.9-2.1-2.4-2.1-4V67.5c-0.1-1.3,0.3-2.5,0.9-3.5
		l3.1-4.4c0.9-1.3,3-0.1,3.9,2.3l3.1,7.9c0.6,1.5,0.9,3,0.9,4.6L43.5,86z"/>
	<path class="st5" d="M42.2,88.8c-0.5,0-0.9-0.1-1.3-0.4L33.1,84c-1.6-1.1-2.6-2.9-2.6-4.9V67.5c-0.1-1.5,0.3-2.9,1.1-4.1l3.1-4.4
		c0.5-0.7,1.3-1.1,2.1-0.9c1.4,0.2,2.8,1.5,3.5,3.4l3.1,7.9c0.6,1.6,1,3.3,1,5V86c0.1,1-0.4,2-1.2,2.6
		C42.9,88.7,42.6,88.8,42.2,88.8z M36.5,60c-0.1,0-0.1,0-0.2,0.1l-3.1,4.4c-0.5,0.9-0.8,1.9-0.8,3v11.6c0,1.2,0.6,2.4,1.6,3.2
		l7.8,4.5c0.2,0.1,0.3,0.1,0.4,0.1c0.1,0,0.2-0.3,0.2-0.8V74.4c0-1.5-0.3-2.9-0.9-4.3l-3.1-7.9C38.2,61.2,37.5,60.4,36.5,60L36.5,60
		z"/>
	<path class="st1" d="M37,62.8c-0.6,0-1-0.4-1-1V47c0-0.6,0.4-1,1-1s1,0.4,1,1v14.8C38,62.3,37.5,62.8,37,62.8z"/>
	<path class="st5" d="M37,75.2c-0.6,0-1-0.4-1-1v-6.3c0-0.6,0.4-1,1-1s1,0.4,1,1v6.3C38,74.8,37.5,75.2,37,75.2z"/>
	<path class="st5" d="M37,80.4c-0.6,0-1-0.4-1-1v-0.2c0-0.6,0.4-1,1-1s1,0.4,1,1v0.2C38,80,37.5,80.4,37,80.4z"/>
	<rect x="1" y="1" class="st6" width="126" height="126"/>
	<rect class="st6" width="128" height="128"/>
</g>
</svg>
