<?xml version="1.0" encoding="utf-8"?>
<!-- Generator: Adobe Illustrator 24.1.0, SVG Export Plug-In . SVG Version: 6.00 Build 0)  -->
<svg version="1.1" id="Layer_1" xmlns="http://www.w3.org/2000/svg" xmlns:xlink="http://www.w3.org/1999/xlink" x="0px" y="0px"
	 viewBox="0 0 128 128" style="enable-background:new 0 0 128 128;" xml:space="preserve">
<style type="text/css">
	.st0{fill:none;}
	.st1{fill:#185849;}
	.st2{fill:#C4D7D3;}
	.st3{fill:#27ae60;}
	.st4{fill:#FFFFFF;}
	.st5{fill:#E9EBDF;}
	.st6{fill:#0E352C;}
	.st7{fill:#4D9987;}
</style>
<g>
	<rect x="1" y="1" class="st0" width="126" height="126"/>
	<path class="st1" d="M32,50.8c-0.1,0-0.1,0-0.2,0s-0.1,0-0.2-0.1c-0.1,0-0.1-0.1-0.2-0.1c-0.4-0.3-0.6-0.8-0.4-1.2
		c0-0.1,0.1-0.2,0.2-0.3c0.3-0.3,0.7-0.4,1.1-0.2c0.1,0.1,0.2,0.1,0.3,0.2c0.1,0.1,0.2,0.2,0.2,0.3s0.1,0.2,0.1,0.4
		c0,0.3-0.1,0.5-0.3,0.7C32.5,50.7,32.3,50.8,32,50.8z"/>
	<path class="st1" d="M32.1,44c-0.6,0-1-0.5-1-1l0,0l0,0c0-0.6,0.5-1,1-1l0,0l0,0c0.6,0,1,0.5,1,1l0,0l0,0
		C33.1,43.5,32.7,43.9,32.1,44L32.1,44z M32.2,37.1c-0.6,0-1-0.5-1-1l0,0c0-0.6,0.5-1,1-1l0,0l0,0c0.6,0,1,0.5,1,1l0,0l0,0
		C33.2,36.6,32.8,37.1,32.2,37.1L32.2,37.1z"/>
	<path class="st1" d="M32.4,30.2c-0.3,0-0.5-0.1-0.7-0.3l-0.1-0.1c0-0.1-0.1-0.1-0.1-0.2s0-0.1-0.1-0.2c0-0.1,0-0.1,0-0.2
		s0-0.3,0.1-0.4c0-0.1,0.1-0.2,0.2-0.3l0.1-0.1l0.2-0.1l0.2-0.1c0.5-0.1,1.1,0.2,1.2,0.8c0,0.1,0,0.1,0,0.2s0,0.1,0,0.2
		s0,0.1-0.1,0.2c0,0.1-0.1,0.1-0.1,0.2s-0.1,0.1-0.1,0.1c-0.1,0.1-0.2,0.2-0.3,0.2C32.6,30.2,32.5,30.2,32.4,30.2z"/>
	<path class="st1" d="M79.1,50.1c-0.5,0-1-0.5-1-1c0-0.3,0.1-0.5,0.3-0.7c0.2-0.2,0.6-0.3,0.9-0.3c0.1,0,0.1,0,0.2,0
		s0.1,0.1,0.2,0.1s0.1,0.1,0.1,0.1c0.3,0.3,0.4,0.7,0.2,1.1c-0.1,0.1-0.1,0.2-0.2,0.3l-0.1,0.1c-0.1,0-0.1,0.1-0.2,0.1
		s-0.1,0-0.2,0.1C79.3,50.1,79.2,50.1,79.1,50.1z"/>
	<path class="st1" d="M79.3,43.6c-0.6,0-1-0.5-1-1l0,0l0,0c0-0.6,0.5-1,1-1l0,0l0,0c0.6,0,1,0.5,1,1l0,0l0,0
		C80.3,43.2,79.8,43.6,79.3,43.6L79.3,43.6z M79.4,37.1c-0.6,0-1-0.5-1-1l0,0l0,0c0-0.6,0.5-1,1-1l0,0l0,0c0.6,0,1,0.5,1,1l0,0l0,0
		C80.4,36.7,80,37.1,79.4,37.1L79.4,37.1z"/>
	<path class="st1" d="M79.5,30.6c-0.6,0-1-0.4-1-1c0-0.3,0.1-0.5,0.3-0.7l0.1-0.1l0.2-0.1l0.2-0.1c0.1,0,0.3,0,0.4,0s0.1,0,0.2,0.1
		s0.1,0.1,0.2,0.1s0.1,0.1,0.2,0.1c0.4,0.4,0.4,1,0,1.4C80.1,30.5,79.8,30.6,79.5,30.6z"/>
	<path class="st2" d="M79.5,24.2v-6.7H68.6L57.3,11c-0.8-0.4-1.7-0.4-2.4,0l-11.4,6.6H32.6v6.7c0,0.3,0.2,0.6,0.5,0.7l21.7,12.6
		c0.8,0.4,1.7,0.4,2.4,0L79,24.9C79.3,24.8,79.5,24.6,79.5,24.2z"/>
	<path class="st2" d="M56,10.7c-0.4,0-0.8,0.1-1.2,0.3l-11.4,6.6H32.6v6.7c0,0.3,0.2,0.6,0.5,0.7l21.7,12.6c0.4,0.2,0.8,0.3,1.2,0.3
		V10.7z"/>
	<path class="st3" d="M56.1,38.8c-0.6,0-1.2-0.1-1.7-0.4L32.6,25.8c-0.6-0.3-1-0.9-1-1.6v-6.7c0-0.6,0.4-1,1-1h10.6l11.1-6.4
		c1.1-0.6,2.4-0.6,3.4,0l11.1,6.4h10.6c0.6,0,1,0.4,1,1v6.7c0,0.7-0.4,1.3-1,1.6L57.8,38.4C57.3,38.6,56.7,38.8,56.1,38.8z
		 M33.6,24.1l21.7,12.6c0.5,0.2,1,0.2,1.4,0l21.7-12.5l0,0v-5.5h-9.9c-0.2,0-0.3,0-0.5-0.1L56.6,12c-0.5-0.2-1-0.2-1.4,0L44,18.4
		c-0.2,0.1-0.3,0.1-0.5,0.1h-9.9V24.1z"/>
	<path class="st4" d="M79,18.3L57.3,30.8c-0.8,0.4-1.7,0.4-2.4,0L33.1,18.3c-0.4-0.1-0.6-0.6-0.5-0.9c0.1-0.2,0.2-0.4,0.5-0.5
		L54.8,4.3c0.8-0.4,1.7-0.4,2.4,0L79,16.8c0.4,0.1,0.6,0.6,0.5,0.9C79.4,18,79.2,18.2,79,18.3z"/>
	<path class="st3" d="M56.1,32.1c-0.6,0-1.2-0.1-1.7-0.4L32.6,19.1c-0.9-0.4-1.2-1.4-0.8-2.3c0.2-0.4,0.5-0.7,0.8-0.8L54.3,3.4
		c1.1-0.6,2.4-0.6,3.4,0L79.5,16c0.9,0.4,1.2,1.4,0.8,2.3c-0.2,0.4-0.5,0.7-0.8,0.8l0,0L57.8,31.7C57.3,32,56.7,32.1,56.1,32.1z
		 M33.9,17.5l21.5,12.4c0.5,0.2,1,0.2,1.4,0l21.5-12.4L56.8,5.2c-0.5-0.2-1-0.2-1.4,0L33.9,17.5z"/>
	<path class="st1" d="M56.1,38.8c-0.3,0-0.6,0-0.9-0.1c-0.3-0.1-0.6-0.2-0.8-0.3L32.6,25.8c-0.6-0.3-1-0.9-1-1.6v-6.7
		c0-0.7,0.4-1.3,1-1.6L54.3,3.4c1.1-0.6,2.4-0.6,3.4,0L79.5,16l0,0c0.6,0.3,1,0.9,1,1.6v6.7c0,0.7-0.4,1.3-1,1.6L57.8,38.4
		C57.3,38.7,56.7,38.8,56.1,38.8z M33.6,24.1l21.7,12.6c0.1,0.1,0.2,0.1,0.3,0.1c0.4,0.1,0.8,0.1,1.2-0.1l21.7-12.5l0,0v-6.4l0,0
		L56.8,5.2c-0.5-0.2-1-0.2-1.4,0L33.6,17.7l0,0V24.1z"/>
	<path class="st3" d="M61.8,13.8c-0.3-0.1-0.7,0-0.9,0.3C60,15.7,58.8,17,57.2,18c-2.7,1.7-5.6,2.8-8.7,3.3
		c-0.4,0.1-0.5,0.3-0.5,0.5c0.1,0.3,0.3,0.5,0.6,0.4h0.1c3.5-0.1,7-1.1,10-3c2.1-1.4,3.4-3.3,3.5-5l0,0
		C62.3,14.1,62.1,13.8,61.8,13.8z"/>
	<path class="st3" d="M61.7,11.4c-0.6,0-2.3,0.9-2.5,2.1c0,0.2,0.1,0.4,0.3,0.5s0.4,0.1,0.6-0.1c1-0.9,1.4-1,1.5-1l0,0
		c0.1,0,0.5,0.1,1.5,1.2c0.1,0.1,0.3,0.2,0.4,0.2c0.1,0,0.1,0,0.2,0c0.2-0.1,0.3-0.3,0.3-0.5C64,12.5,62.3,11.4,61.7,11.4z"/>
	<path class="st5" d="M123.8,53.7l-16.4,1l0.3,1.8c-7.2-1.2-15.2-0.2-20.9,3l-12.6,7.1C61,60.1,41.7,59.8,28.3,66l-13.1,1L15,82l0,0
		c0,4.7,2.7,9.5,8.2,13.4l-1.9,1.1l-17-0.2l-0.1,15l0,0c0,3.2,2,6.4,6.2,8.9c8.4,4.9,22.1,5.1,30.5,0.3l76.2-43
		c4.2-2.4,6.4-5.6,6.4-8.8l0,0L123.8,53.7z"/>
	<path class="st4" d="M87,44.6l-12.6,7.1c-14.1-7-35.2-6.8-48.5,0.8s-14.2,19.7-2.4,28l-12.6,7.1c-8.5,4.8-8.6,12.7-0.2,17.6
		s22.1,5.1,30.5,0.3l76.2-43c8.5-4.8,8.6-12.7,0.2-17.6l0,0C109.2,39.9,95.5,39.8,87,44.6z"/>
	<path class="st6" d="M26.1,125c-5.8,0-11.7-1.3-16.1-3.9s-6.8-6-6.7-9.7l0.1-15c0-3.7,2.5-7.1,6.9-9.6l4-2.2
		c-0.1-0.8-0.2-1.6-0.2-2.4v-0.1l0.1-15V67c0.1-5.9,4.1-11.3,11.2-15.4c13.5-7.6,34.4-8,49-1l12.2-6.9c8.7-4.9,22.9-4.8,31.5,0.3
		l0,0c4.4,2.6,6.8,6,6.7,9.7l-0.1,15c0,3.7-2.5,7.1-6.9,9.6l-76.2,43C36.7,123.8,31.4,125.1,26.1,125z M16,82L16,82
		c0,1,0.1,1.9,0.3,2.8c0.1,0.4-0.1,0.9-0.5,1.1l-4.6,2.6c-3.8,2.1-5.9,4.9-5.9,7.9l-0.1,15c0,3,2,5.8,5.7,8
		c8.1,4.8,21.3,4.9,29.5,0.3l76.2-43c3.8-2.1,5.9-4.9,5.9-7.9l0.1-15c0-3-2-5.8-5.7-8l0,0c-8.1-4.8-21.3-4.9-29.5-0.3l-12.6,7.1
		c-0.3,0.2-0.6,0.2-0.9,0c-13.8-6.8-34.7-6.5-47.6,0.8c-6.5,3.7-10.1,8.5-10.2,13.7v0.1L16,82z"/>
	<path class="st7" d="M26.2,110c-5.8,0-11.7-1.3-16.1-3.9c-0.5-0.3-0.7-0.9-0.4-1.4s0.9-0.7,1.4-0.4c0,0,0,0,0.1,0
		c8.1,4.8,21.3,4.9,29.5,0.3l76.2-43c0.5-0.3,1.1-0.1,1.4,0.4s0.1,1.1-0.4,1.4l-76.2,43C36.9,108.9,31.6,110.1,26.2,110z M23.4,81.6
		c-0.2,0-0.4-0.1-0.6-0.2c-1.9-1.3-3.7-2.9-5.2-4.8c-0.4-0.4-0.3-1.1,0.1-1.4c0.4-0.4,1.1-0.3,1.4,0.1l0,0c1.4,1.7,3,3.2,4.8,4.4
		c0.5,0.3,0.6,0.9,0.2,1.4C24,81.4,23.7,81.6,23.4,81.6z"/>
	<path class="st7" d="M55.4,83.5c-0.6,0-1.2-0.1-1.8-0.4L31.9,70.2c-0.9-0.4-1.2-1.4-0.8-2.3c0.2-0.4,0.5-0.7,0.9-0.8l22-12.4
		c1.1-0.6,2.4-0.5,3.5,0l21.7,12.8c0.9,0.4,1.2,1.4,0.8,2.3c-0.2,0.4-0.5,0.7-0.9,0.8l0,0L57.1,83C56.6,83.4,56,83.5,55.4,83.5z
		 M33.2,68.7l21.5,12.7c0.5,0.2,1,0.2,1.5,0l21.7-12.3L56.4,56.4c-0.5-0.2-1-0.2-1.5,0L33.2,68.7z"/>
	<path class="st7" d="M60.9,64.9c-0.3-0.1-0.7,0-0.9,0.3c-0.9,1.6-2.1,2.9-3.7,3.9c-2.7,1.7-5.6,2.8-8.7,3.3
		c-0.4,0.1-0.5,0.3-0.5,0.5c0.1,0.3,0.3,0.5,0.6,0.4h0.1c3.5-0.1,7-1.1,10-3c2.1-1.4,3.4-3.3,3.5-5l0,0
		C61.4,65.2,61.2,64.9,60.9,64.9z"/>
	<path class="st7" d="M60.8,62.5c-0.6,0-2.3,0.9-2.5,2.1c0,0.2,0.1,0.4,0.3,0.5s0.4,0.1,0.6-0.1c1-0.9,1.4-1,1.5-1l0,0
		c0.1,0,0.5,0.1,1.5,1.2c0.1,0.1,0.3,0.2,0.4,0.2c0.1,0,0.1,0,0.2,0c0.2-0.1,0.3-0.3,0.3-0.5C63.1,63.6,61.4,62.5,60.8,62.5z"/>
	<path class="st1" d="M79.1,63.5c-0.1,0-0.1,0-0.2,0s-0.1,0-0.2-0.1c-0.1,0-0.1-0.1-0.2-0.1s-0.1-0.1-0.2-0.1s-0.1-0.1-0.1-0.2
		c0-0.1-0.1-0.1-0.1-0.2c0-0.1,0-0.1-0.1-0.2c0-0.1,0-0.1,0-0.2c0-0.1,0-0.3,0.1-0.4c0-0.1,0.1-0.2,0.2-0.3c0.2-0.2,0.6-0.3,0.9-0.3
		c0.1,0,0.1,0,0.2,0s0.1,0.1,0.2,0.1s0.1,0.1,0.1,0.1c0.1,0.1,0.2,0.2,0.2,0.3s0.1,0.3,0.1,0.4c0,0.1,0,0.1,0,0.2
		c0,0.1,0,0.1-0.1,0.2c0,0.1-0.1,0.1-0.1,0.2c0,0.1-0.1,0.1-0.1,0.2l-0.1,0.1c-0.1,0-0.1,0.1-0.2,0.1s-0.1,0-0.2,0.1
		C79.3,63.4,79.2,63.4,79.1,63.5z"/>
	<path class="st1" d="M79.4,55.9c-0.3,0-0.5-0.1-0.7-0.3c-0.4-0.4-0.4-1,0-1.4s1-0.4,1.4,0s0.4,1,0,1.4
		C79.9,55.8,79.6,55.9,79.4,55.9L79.4,55.9z"/>
	<path class="st1" d="M32,64c-0.3,0-0.5-0.1-0.7-0.3c0,0-0.1-0.1-0.1-0.2c0-0.1-0.1-0.1-0.1-0.2s0-0.1-0.1-0.2c0-0.1,0-0.1,0-0.2
		c0-0.3,0.2-0.6,0.4-0.8c0.1,0,0.1-0.1,0.2-0.1s0.1-0.1,0.2-0.1c0.3-0.1,0.7,0,0.9,0.3c0.1,0.1,0.2,0.2,0.2,0.3s0.1,0.2,0.1,0.4
		c0,0.1,0,0.1,0,0.2c0,0.1,0,0.1,0,0.2c0,0.1-0.1,0.1-0.1,0.2c0,0.1-0.1,0.1-0.1,0.2c-0.1,0.1-0.2,0.2-0.3,0.2
		C32.3,63.9,32.1,63.9,32,64z"/>
	<path class="st1" d="M32.4,56.6c-0.1,0-0.1,0-0.2,0c-0.1,0-0.1,0-0.2-0.1c-0.1,0-0.1-0.1-0.2-0.1l-0.1-0.1
		c-0.1-0.1-0.2-0.2-0.2-0.3c-0.1-0.1-0.1-0.2-0.1-0.4c0-0.1,0-0.1,0-0.2c0-0.1,0-0.1,0.1-0.2c0-0.1,0-0.1,0.1-0.2l0.1-0.2
		c0.3-0.3,0.7-0.4,1.1-0.2c0.1,0.1,0.2,0.1,0.3,0.2c0,0,0.1,0.1,0.1,0.2c0.1,0.1,0.1,0.2,0.1,0.4c0,0.1,0,0.1,0,0.2
		C33.4,56.2,32.9,56.6,32.4,56.6L32.4,56.6z"/>
	<rect class="st0" width="128" height="128"/>
</g>
</svg>
