<?xml version="1.0" encoding="utf-8"?>
<!-- Generator: Adobe Illustrator 24.1.0, SVG Export Plug-In . SVG Version: 6.00 Build 0)  -->
<svg version="1.1" id="Layer_1" xmlns="http://www.w3.org/2000/svg" xmlns:xlink="http://www.w3.org/1999/xlink" x="0px" y="0px"
	 viewBox="0 0 128 128" style="enable-background:new 0 0 128 128;" xml:space="preserve">
<style type="text/css">
	.st0{fill:#FFFFFF;}
	.st1{fill:#185849;}
	.st2{fill:#27ae60;}
	.st3{fill:none;}
	.st4{fill:#0E352C;}
	.st5{fill:#4D9987;}
	.st6{fill:#E9EBDF;}
</style>
<g>
	<path class="st0" d="M66,57.3c-5.2-3-9.5-11.1-9.5-18.1c0-3.2,1.1-5.5,2.7-6.5h0.1L7.5,62.5H7.4c-1.7,1-2.7,3.3-2.7,6.5
		c0,7,4.2,15.1,9.5,18.1h0.1l57.2,33l51.8-29.9L66,57.3z"/>
	<path class="st1" d="M71.5,121.2c-0.2,0-0.3,0-0.5-0.1l-57.2-33c-5.6-3.2-10-11.7-10-19C3.8,65.7,5,63,7,61.8l51.9-29.9
		c0.5-0.3,1.1-0.1,1.4,0.4c0.3,0.5,0.1,1.1-0.4,1.4c-1.5,0.9-2.3,2.9-2.3,5.7c0,6.7,4,14.4,9,17.2l57.2,33c0.5,0.3,0.6,0.9,0.4,1.4
		c-0.1,0.2-0.2,0.3-0.4,0.4L72,121.1C71.8,121.2,71.7,121.2,71.5,121.2z M56,35.8L8,63.4c-1.5,0.9-2.3,2.9-2.3,5.7
		c0,6.7,4,14.4,9,17.2l56.8,32.8l49.8-28.7L65.5,58.2c-5.5-3.2-10-11.7-10-19C55.6,38,55.7,36.9,56,35.8z"/>
	<path class="st0" d="M56.6,39.2c0-3.2,1.1-5.5,2.7-6.5h0.1L7.5,62.5H7.4c-1.7,1-2.7,3.3-2.7,6.5c0,1.8,0.3,3.6,0.7,5.3l51.8-29.9
		C56.8,42.7,56.6,41,56.6,39.2z"/>
	<path class="st2" d="M60.4,108.4c-0.6,0-1-0.4-1-1c0-0.4,0.2-0.7,0.5-0.9l40.6-23.4c0.5-0.3,1.1-0.1,1.4,0.4s0.1,1.1-0.4,1.4l0,0
		l-40.6,23.4C60.8,108.4,60.6,108.4,60.4,108.4z"/>
	<path class="st2" d="M50.3,102.5c-0.6,0-1-0.4-1-1c0-0.4,0.2-0.7,0.5-0.9l40.6-23.4c0.5-0.3,1.1-0.1,1.4,0.4s0.1,1.1-0.4,1.4l0,0
		l-40.6,23.4C50.6,102.5,50.5,102.5,50.3,102.5z"/>
	<path class="st2" d="M40.2,96.7c-0.6,0-1-0.4-1-1c0-0.4,0.2-0.7,0.5-0.9l40.6-23.4c0.5-0.3,1.1-0.1,1.4,0.4s0.1,1.1-0.4,1.4l0,0
		L40.6,96.5C40.5,96.6,40.3,96.7,40.2,96.7z"/>
	<path class="st2" d="M11,66.6c-0.6,0-1-0.4-1-1c0-0.4,0.2-0.7,0.5-0.9l43-24.8c0.5-0.3,1.1-0.1,1.4,0.4c0.3,0.5,0.1,1.1-0.4,1.4
		l-43,24.8C11.4,66.6,11.2,66.6,11,66.6z"/>
	<path class="st3" d="M17,82.3c-3.1-1.8-6.6-7.9-6.6-13.2c0-0.6,0.1-1.3,0.3-1.8l40.8-23.5c1.4,7.6,6,15.1,11.9,18.4l47.9,27.7
		l-40.6,23.4L17,82.3z"/>
	<path class="st2" d="M101,96.7c-0.2,0-0.3,0-0.5-0.1l-53.6-31c-3.4-1.9-7.1-8.4-7.1-14.1c0-0.7,0.1-1.4,0.3-2.1
		c0.6-3,1.9-5.1,3.8-6.2s4.3-1.2,7.2-0.3c0.5,0.2,0.8,0.7,0.7,1.3c-0.2,0.5-0.7,0.8-1.3,0.7c-2.3-0.7-4.2-0.7-5.6,0.1
		s-2.3,2.5-2.8,4.9c0,0.1,0,0.1-0.1,0.2c-0.2,0.5-0.2,1-0.2,1.5c0,5,3.3,10.7,6.1,12.4l53.6,31c0.5,0.3,0.6,0.9,0.4,1.4
		C101.7,96.5,101.4,96.7,101,96.7L101,96.7z"/>
	<path class="st2" d="M90.9,102.5c-0.2,0-0.3,0-0.5-0.1l-53.6-31c-3.4-1.9-7.1-8.4-7.1-14.1c0-0.7,0.1-1.4,0.3-2.1
		c0.6-3,1.9-5.1,3.8-6.2s4.3-1.2,7.2-0.3c0.5,0.2,0.8,0.7,0.7,1.3c-0.2,0.5-0.7,0.8-1.3,0.7c-2.3-0.7-4.2-0.7-5.6,0.1
		s-2.3,2.5-2.8,4.9c0,0.1,0,0.1-0.1,0.2c-0.2,0.5-0.2,1-0.2,1.5c0,5,3.3,10.7,6.1,12.4l53.6,31c0.5,0.3,0.6,0.9,0.4,1.4
		C91.6,102.4,91.3,102.5,90.9,102.5L90.9,102.5z"/>
	<path class="st2" d="M80.7,108.4c-0.2,0-0.3,0-0.5-0.1l-53.6-31c-3.4-1.9-7.1-8.4-7.1-14.1c0-0.7,0.1-1.4,0.3-2.1
		c0.6-3,1.9-5.1,3.8-6.2s4.3-1.2,7.2-0.3c0.5,0.2,0.8,0.7,0.7,1.3c-0.2,0.5-0.7,0.8-1.3,0.7c-2.4-0.7-4.2-0.7-5.6,0.1
		s-2.3,2.5-2.8,4.9c0,0.1,0,0.1-0.1,0.2c-0.2,0.5-0.2,1-0.2,1.5c0,5,3.3,10.7,6.1,12.4l53.6,31c0.5,0.3,0.6,0.9,0.4,1.4
		C81.4,108.2,81.1,108.4,80.7,108.4L80.7,108.4z"/>
	<path class="st1" d="M71.5,121.2c-0.2,0-0.3,0-0.5-0.1l-57.2-33c-5.6-3.2-10-11.7-10-19C3.8,65.7,5,63,7,61.8l51.9-29.9
		c0.5-0.3,1.1-0.1,1.4,0.4c0.3,0.5,0.1,1.1-0.4,1.4c-1.5,0.9-2.3,2.9-2.3,5.7c0,6.7,4,14.4,9,17.2l57.2,33c0.5,0.3,0.6,0.9,0.4,1.4
		c-0.1,0.2-0.2,0.3-0.4,0.4L72,121.1C71.8,121.2,71.7,121.2,71.5,121.2z M56,35.8L8,63.4c-1.5,0.9-2.3,2.9-2.3,5.7
		c0,6.7,4,14.4,9,17.2l56.8,32.8l49.8-28.7L65.5,58.2c-5.5-3.2-10-11.7-10-19C55.6,38,55.7,36.9,56,35.8z"/>
	<path class="st2" d="M70.6,114.3c-0.2,0-0.3,0-0.5-0.1l-53.6-31c-0.8-0.5-1.6-1.1-2.2-1.8c-0.6-0.7-1.2-1.4-1.7-2.1
		s-0.9-1.5-1.3-2.3c-0.4-0.8-0.7-1.6-1-2.5s-0.5-1.7-0.7-2.6c-0.2-1-0.3-1.9-0.3-2.9c0-0.1,0-0.2,0-0.3c0-0.1,0-0.2,0-0.4
		s0-0.2,0-0.4c0-0.1,0-0.3,0.1-0.4c0-0.1,0.1-0.3,0.1-0.4s0.1-0.2,0.1-0.3c0.2-0.7,0.4-1.5,0.6-2.2c0.3-0.8,0.7-1.5,1.2-2.2
		c1-1.4,2.6-2.4,4.4-2.6c0.8-0.1,1.7-0.1,2.5,0c0.6,0.1,1.3,0.2,1.9,0.4l30.7-17.5c0.5-0.3,1.1-0.1,1.4,0.4c0.1,0.1,0.1,0.2,0.1,0.3
		c0.2,1.2,0.5,2.4,0.9,3.5c0.4,1.2,0.8,2.3,1.3,3.4c0.5,1.1,1.1,2.2,1.7,3.2c0.6,1,1.3,2,2.1,2.9s1.6,1.8,2.5,2.6s1.9,1.5,2.9,2.1
		L111.7,89c0.5,0.3,0.6,0.9,0.4,1.4c-0.1,0.2-0.2,0.3-0.4,0.4l-40.6,23.4C70.9,114.2,70.8,114.3,70.6,114.3z M17,61.8
		c-0.3,0-0.6,0-0.9,0.1c-0.6,0.1-1.2,0.3-1.7,0.6s-1,0.7-1.3,1.2c-0.4,0.5-0.7,1.1-0.9,1.7s-0.4,1.3-0.6,2c0,0.1,0,0.1-0.1,0.2
		c0,0.1,0,0.1-0.1,0.2c0,0.1,0,0.1-0.1,0.2s0,0.2,0,0.3s0,0.2,0,0.3s0,0.2,0,0.3v0.3c0,0.8,0.1,1.6,0.2,2.4c0.1,0.8,0.3,1.6,0.6,2.3
		c0.3,0.8,0.6,1.5,0.9,2.2c0.4,0.7,0.8,1.4,1.2,2.1s0.9,1.3,1.5,1.9c0.5,0.6,1.1,1,1.7,1.4l53.1,30.7l38.6-22.3L62.8,63
		c-1.1-0.7-2.2-1.4-3.2-2.3c-1-0.9-1.9-1.8-2.7-2.8s-1.6-2.1-2.3-3.2c-0.7-1.1-1.3-2.2-1.8-3.4s-1-2.4-1.4-3.6
		c-0.3-0.8-0.5-1.6-0.7-2.4l-29.9,17c-0.2,0.1-0.5,0.2-0.8,0.1c-0.6-0.2-1.3-0.4-2-0.5C17.7,61.9,17.3,61.8,17,61.8z"/>
	<path class="st2" d="M30,90.8c-0.6,0-1-0.4-1-1c0-0.4,0.2-0.7,0.5-0.9l40.6-23.4c0.5-0.3,1.1-0.1,1.4,0.4s0.1,1.1-0.4,1.4l0,0
		L30.5,90.7C30.3,90.8,30.2,90.8,30,90.8z"/>
	<path class="st2" d="M19.9,85c-0.6,0-1-0.4-1-1c0-0.4,0.2-0.7,0.5-0.9L60,59.7c0.5-0.3,1.1-0.1,1.4,0.4c0.3,0.5,0.1,1.1-0.4,1.4
		l0,0L20.4,84.8C20.2,84.9,20,85,19.9,85z"/>
	<path class="st2" d="M12.3,77.6c-0.6,0-1-0.4-1-1c0-0.4,0.2-0.7,0.5-0.9l42.1-24.3c0.5-0.3,1.1-0.1,1.4,0.4
		c0.3,0.5,0.1,1.1-0.4,1.4L12.8,77.5C12.6,77.6,12.5,77.6,12.3,77.6z"/>
	<path class="st0" d="M69,37.7c-1-1.9-2.5-3.5-4.4-4.6c-2-1.2-3.9-1.2-5.3-0.4h0.1L7.5,62.5H7.4c1.4-0.8,3.3-0.8,5.3,0.4
		c1.8,1.1,3.3,2.7,4.4,4.6L69,37.7z"/>
	<path class="st1" d="M17.2,68.6c-0.4,0-0.7-0.2-0.9-0.5c-1-1.7-2.3-3.2-4-4.2C10.7,63,9.1,62.8,8,63.5l0,0
		c-0.5,0.2-1.1,0.1-1.3-0.4C6.4,62.6,6.5,62,7,61.7l0,0l0.1-0.1l51.8-29.8l0,0c1.8-1,4-0.9,6.3,0.4c2,1.2,3.6,2.9,4.7,5
		c0.3,0.5,0.1,1.1-0.3,1.4l0,0L17.7,68.4C17.5,68.5,17.3,68.6,17.2,68.6z M11.6,61.3c0.6,0.2,1.1,0.5,1.7,0.8c1.7,1,3.1,2.4,4.2,4.1
		l50.1-28.8c-0.9-1.4-2.1-2.5-3.5-3.4c-1.6-0.9-3.2-1.1-4.3-0.4l0,0L11.6,61.3z"/>
	<path class="st0" d="M117.9,48.2c-5.1,2.8-11.7,4.2-18.3,4.2S86.4,50.9,81.4,48S74,41.4,74,37.6s2.6-7.5,7.7-10.3l18.1,10.4
		L117.9,48.2z"/>
	<path class="st4" d="M99.8,53.4h-0.2c-7.1,0-13.7-1.6-18.7-4.5c-5.2-3-8-7-7.9-11.3s3-8.2,8.2-11.2c0.3-0.2,0.7-0.2,1,0l36.1,20.9
		c0.5,0.3,0.6,0.9,0.4,1.4c-0.1,0.2-0.2,0.3-0.4,0.4C112.7,52.1,106.3,53.6,99.8,53.4z M81.8,28.5c-4.3,2.5-6.7,5.8-6.7,9.2
		c-0.1,3.5,2.4,6.9,6.9,9.5c4.7,2.7,11,4.2,17.7,4.2c5.6,0.1,11.1-1,16.2-3.2L81.8,28.5z"/>
	<path class="st5" d="M88.1,45.6c-0.6,0-1-0.4-1-1c0-0.4,0.2-0.7,0.5-0.9l5.4-3.3c0.5-0.3,1.1-0.2,1.4,0.3s0.2,1.1-0.3,1.4l0,0
		l-5.4,3.3C88.5,45.5,88.3,45.6,88.1,45.6z"/>
	<path class="st5" d="M91,38.8h-7.5c-0.6,0-1-0.4-1-1s0.4-1,1-1H91c0.6,0,1,0.4,1,1S91.6,38.8,91,38.8z"/>
	<path class="st5" d="M99.9,48.6c-0.6,0-1-0.4-1-1v-4.8c0-0.6,0.4-1,1-1s1,0.4,1,1v4.8C100.9,48.2,100.5,48.6,99.9,48.6z"/>
	<path class="st5" d="M99.8,43.8L99.8,43.8c-2.4,0-4.7-0.5-6.8-1.6c-2-1.1-3.1-2.7-3-4.4c0-1.7,1.2-3.2,3.1-4.3c0.3-0.2,0.7-0.2,1,0
		l12.3,7.1c0.5,0.3,0.6,0.9,0.4,1.4c-0.1,0.2-0.2,0.3-0.4,0.4C104.4,43.3,102.1,43.8,99.8,43.8z M93.7,35.4
		c-0.9,0.5-1.5,1.4-1.6,2.4c0,1,0.7,1.9,2,2.7c1.8,0.9,3.7,1.4,5.7,1.4c1.3,0,2.7-0.2,4-0.6L93.7,35.4z"/>
	<path class="st4" d="M99.8,53.4h-0.2c-7.1,0-13.7-1.6-18.7-4.5c-5.2-3-8-7-7.9-11.3s3-8.2,8.2-11.2c0.3-0.2,0.7-0.2,1,0l36.1,20.9
		c0.5,0.3,0.6,0.9,0.4,1.4c-0.1,0.2-0.2,0.3-0.4,0.4C112.7,52.1,106.3,53.6,99.8,53.4z M81.8,28.5c-4.3,2.5-6.7,5.8-6.7,9.2
		c-0.1,3.5,2.4,6.9,6.9,9.5c4.7,2.7,11,4.2,17.7,4.2c5.6,0.1,11.1-1,16.2-3.2L81.8,28.5z"/>
	<path class="st4" d="M117.9,49.2c-0.3,0-0.5-0.1-0.7-0.3c-0.1-0.1-0.2-0.2-0.2-0.3c-0.1-0.4-0.1-0.8,0.2-1.1c0.4-0.4,1-0.4,1.4,0
		l0,0c0.3,0.3,0.4,0.7,0.2,1.1c-0.1,0.1-0.1,0.2-0.2,0.3s-0.2,0.2-0.3,0.2C118.2,49.2,118,49.2,117.9,49.2z"/>
	<path class="st4" d="M116.9,41.9c0-0.6,0.4-1,1-1l0,0l0,0c0.5,0,1,0.4,1,1l0,0l0,0c0,0.6-0.4,1-1,1l0,0l0,0
		C117.3,42.9,116.9,42.5,116.9,41.9L116.9,41.9z M116.9,35.5c0-0.6,0.4-1,1-1l0,0l0,0c0.5,0,1,0.4,1,1l0,0l0,0c0,0.5-0.4,1-1,1l0,0
		l0,0C117.3,36.6,116.9,36.1,116.9,35.5C116.9,35.6,116.9,35.6,116.9,35.5z M116.9,29.2c0-0.6,0.4-1,1-1l0,0l0,0c0.5,0,1,0.4,1,1
		l0,0l0,0c0,0.5-0.4,1-1,1l0,0l0,0C117.3,30.2,116.9,29.8,116.9,29.2L116.9,29.2z"/>
	<path class="st4" d="M117.9,23.9c-0.1,0-0.3,0-0.4-0.1s-0.2-0.1-0.3-0.2c-0.1-0.1-0.2-0.2-0.2-0.3c0-0.1-0.1-0.3-0.1-0.4
		c0-0.3,0.1-0.5,0.3-0.7c0.1-0.1,0.2-0.2,0.3-0.2c0.2-0.1,0.5-0.1,0.8,0c0.1,0,0.2,0.1,0.3,0.2c0.1,0,0.1,0.1,0.1,0.1
		s0.1,0.1,0.1,0.2s0,0.1,0.1,0.2c0,0.1,0,0.1,0,0.2s0,0.3-0.1,0.4c-0.1,0.2-0.3,0.4-0.5,0.5C118.2,23.8,118,23.9,117.9,23.9z"/>
	<path class="st4" d="M81.8,28.4c-0.1,0-0.3,0-0.4-0.1s-0.2-0.1-0.3-0.2c-0.2-0.2-0.3-0.4-0.3-0.7c0-0.3,0.1-0.5,0.3-0.7
		c0.4-0.4,1-0.4,1.4,0c0.2,0.2,0.3,0.4,0.3,0.7c0,0.3-0.1,0.5-0.3,0.7c-0.1,0.1-0.2,0.2-0.3,0.2C82,28.3,81.9,28.4,81.8,28.4z"/>
	<path class="st4" d="M80.8,21c0-0.6,0.4-1,1-1l0,0c0.6,0,1,0.4,1,1l0,0c0,0.6-0.4,1-1,1l0,0C81.2,22,80.8,21.6,80.8,21z M80.8,14.7
		c0-0.6,0.4-1,1-1l0,0c0.6,0,1,0.4,1,1l0,0c0,0.6-0.4,1-1,1l0,0C81.2,15.7,80.8,15.2,80.8,14.7L80.8,14.7z M80.8,8.3
		c0-0.6,0.4-1,1-1l0,0c0.6,0,1,0.4,1,1l0,0c0,0.6-0.4,1-1,1l0,0C81.2,9.3,80.8,8.9,80.8,8.3C80.8,8.4,80.8,8.3,80.8,8.3z"/>
	<path class="st4" d="M81.8,3c-0.3,0-0.5-0.1-0.7-0.3c-0.4-0.4-0.4-1,0-1.4s1-0.4,1.4,0c0.2,0.2,0.3,0.4,0.3,0.7
		C82.8,2.6,82.3,3,81.8,3z"/>
	<polygon class="st6" points="98.8,99.3 108.2,89.5 95.5,92.1 	"/>
	<path class="st5" d="M98.8,100.3c-0.4,0-0.7-0.2-0.9-0.6l-3.3-7.2c-0.2-0.5,0-1.1,0.5-1.3c0.1,0,0.1-0.1,0.2-0.1l12.7-2.7
		c0.5-0.1,1.1,0.2,1.2,0.8c0.1,0.3,0,0.7-0.3,0.9l-9.4,9.9C99.4,100.2,99.1,100.3,98.8,100.3z M96.9,92.8l2.2,4.7l6.2-6.5L96.9,92.8
		z"/>
	<path class="st6" d="M49.4,118.8l45.5-26.3c0.6-0.5,1.4-0.6,2-0.1c1.6,1.2,2.6,3,2.6,5c0,1.3-0.5,2.1-1.3,2.2l-44.9,25.9
		L49.4,118.8z"/>
	<path class="st5" d="M53.3,126.6c-0.4,0-0.7-0.2-0.9-0.5l-3.9-6.8c-0.3-0.5-0.1-1.1,0.4-1.4l45.4-26.2c0.9-0.8,2.2-0.8,3.1-0.2
		c1.9,1.3,3.1,3.5,3.1,5.9c0,1.9-0.9,2.9-1.9,3.2l-44.8,25.9C53.6,126.6,53.5,126.6,53.3,126.6z M50.7,119.2l2.9,5.1l44-25.4
		c0.1,0,0.2-0.1,0.3-0.1c0.3-0.1,0.5-0.6,0.5-1.3c0-1.6-0.8-3.2-2.1-4.1c-0.5-0.3-0.7-0.1-0.8-0.1c-0.1,0.1-0.1,0.1-0.2,0.2
		L50.7,119.2z"/>
	<path class="st6" d="M98.8,94.8c-0.4-1-1.1-1.8-2-2.3c-0.6-0.5-1.5-0.4-2,0.1l-45.5,26.3l2,3.4L98.8,94.8z"/>
	<path class="st5" d="M53.3,126.6c-0.4,0-0.7-0.2-0.9-0.5l-3.9-6.8c-0.3-0.5-0.1-1.1,0.4-1.4l45.4-26.2c0.9-0.8,2.2-0.8,3.1-0.2
		c1.9,1.3,3.1,3.5,3.1,5.9c0,1.9-0.9,2.9-1.9,3.2l-44.8,25.9C53.6,126.6,53.5,126.6,53.3,126.6z M50.7,119.2l2.9,5.1l44-25.4
		c0.1,0,0.2-0.1,0.3-0.1c0.3-0.1,0.5-0.6,0.5-1.3c0-1.6-0.8-3.2-2.1-4.1c-0.5-0.3-0.7-0.1-0.8-0.1c-0.1,0.1-0.1,0.1-0.2,0.2
		L50.7,119.2z"/>
	<path class="st6" d="M49.4,118.8l6.5-3.8c0.6-0.5,1.4-0.6,2-0.1c1.6,1.2,2.6,3,2.6,5c0,1.3-0.5,2.1-1.3,2.2l-5.9,3.4L49.4,118.8z"
		/>
	<path class="st5" d="M53.3,126.6c-0.4,0-0.7-0.2-0.9-0.5l-3.9-6.8c-0.3-0.5-0.1-1.1,0.4-1.4l6.4-3.7c0.9-0.8,2.2-0.8,3.1-0.2
		c1.9,1.3,3.1,3.5,3.1,5.9c0,1.9-0.9,2.9-1.9,3.2l-5.8,3.4C53.6,126.6,53.5,126.6,53.3,126.6z M50.7,119.2l2.9,5.1l5.1-2.9
		c0.1-0.1,0.2-0.1,0.3-0.1c0.3-0.1,0.5-0.6,0.5-1.3c0-1.6-0.8-3.2-2.1-4.1c-0.5-0.3-0.7-0.1-0.8-0.1c-0.1,0.1-0.1,0.1-0.2,0.2
		L50.7,119.2z"/>
	<ellipse transform="matrix(0.9201 -0.3916 0.3916 0.9201 -43.7417 29.8888)" class="st6" cx="51.4" cy="122.2" rx="2.3" ry="4"/>
	<path class="st5" d="M52.4,127c-0.5,0-1.1-0.2-1.5-0.4c-1.9-1.3-3.1-3.5-3.1-5.9c-0.1-1.2,0.4-2.3,1.4-3c0.9-0.5,1.9-0.4,2.7,0.1
		c1.9,1.3,3.1,3.5,3.1,5.9c0.1,1.2-0.4,2.3-1.4,3C53.2,126.9,52.8,127,52.4,127z M50.3,119.4c-0.1,0-0.1,0-0.2,0
		c-0.2,0.1-0.4,0.5-0.4,1.3c0,1.6,0.8,3.2,2.1,4.1c0.1,0.1,0.5,0.3,0.7,0.1c0.2-0.1,0.4-0.5,0.4-1.3c0-1.6-0.8-3.2-2.1-4.1
		C50.7,119.5,50.5,119.4,50.3,119.4L50.3,119.4z"/>
	<path class="st4" d="M52.4,127c-0.5,0-1.1-0.2-1.5-0.4c-1.9-1.3-3.1-3.5-3.1-5.9c0-0.9,0.3-1.9,0.9-2.6c0.3-0.3,0.6-0.5,1-0.6
		l5.7-3.3c0.2-0.2,0.5-0.4,0.8-0.5l38.2-22c0.2-0.2,0.4-0.3,0.6-0.4c0.1,0,0.1,0,0.2-0.1s0.2-0.1,0.3-0.1l12.7-2.7
		c0.5-0.1,1.1,0.2,1.2,0.8c0.1,0.3,0,0.7-0.3,0.9l-9.2,9.7c-0.1,0.1-0.1,0.1-0.2,0.2c-0.3,0.3-0.6,0.5-0.9,0.6l-38.1,22
		c-0.3,0.2-0.6,0.4-0.9,0.5l-5.7,3.3C53.6,126.8,53,127,52.4,127z M95.7,93.2C95.6,93.2,95.6,93.2,95.7,93.2
		c-0.2,0.1-0.2,0.2-0.3,0.2L57,115.6c-0.1,0-0.1,0.1-0.2,0.1c-0.1,0-0.1,0-0.2,0.1c-0.1,0.1-0.1,0.1-0.2,0.2l-5.9,3.4
		c-0.1,0.1-0.2,0.1-0.3,0.1s-0.1,0.1-0.2,0.1c-0.2,0.3-0.4,0.8-0.3,1.2c0,1.6,0.8,3.2,2.1,4.1c0.5,0.3,0.7,0.1,0.8,0.1
		c0.1-0.1,0.1-0.1,0.2-0.2l5.9-3.4c0.1-0.1,0.2-0.1,0.3-0.1s0.1-0.1,0.2-0.1c0.1-0.1,0.1-0.1,0.2-0.2l38.3-22.1
		c0.1,0,0.2-0.1,0.3-0.1c0.1,0,0.1-0.1,0.2-0.1l0.1-0.1l7-7.4L96,93C95.9,93.1,95.8,93.1,95.7,93.2L95.7,93.2L95.7,93.2z"/>
	<path class="st1" d="M60.4,96.7c-0.2,0-0.3,0-0.5-0.1L39.7,84.8c-0.5-0.3-0.6-0.9-0.4-1.4c0.1-0.2,0.2-0.3,0.4-0.4l20.2-11.7
		c0.3-0.2,0.7-0.2,1,0l20.2,11.8c0.5,0.3,0.6,0.9,0.4,1.4c-0.1,0.2-0.2,0.3-0.4,0.4L60.9,96.5C60.8,96.6,60.6,96.7,60.4,96.7z
		 M42.2,83.9l18.2,10.6L78.7,84L60.4,73.4L42.2,83.9z"/>
	<path class="st1" d="M30,79.1c-0.6,0-1-0.4-1-1c0-0.4,0.2-0.7,0.5-0.9l20.3-11.7c0.5-0.3,1.1-0.1,1.4,0.4c0.3,0.5,0.1,1.1-0.4,1.4
		l0,0L30.5,79C30.3,79.1,30.2,79.1,30,79.1z"/>
	<rect x="1" y="1" class="st3" width="126" height="126"/>
	<rect class="st3" width="128" height="128"/>
</g>
</svg>
