<?xml version="1.0" encoding="utf-8"?>
<!-- Generator: Adobe Illustrator 24.1.0, SVG Export Plug-In . SVG Version: 6.00 Build 0)  -->
<svg version="1.1" id="Layer_1" xmlns="http://www.w3.org/2000/svg" xmlns:xlink="http://www.w3.org/1999/xlink" x="0px" y="0px"
	 viewBox="0 0 128 128" style="enable-background:new 0 0 128 128;" xml:space="preserve">
<style type="text/css">
	.st0{fill:#4D9987;}
	.st1{fill:#E9EBDF;}
	.st2{fill:#FFFFFF;}
	.st3{fill:#0E352C;}
	.st4{fill:#C4D7D3;}
	.st5{fill:#27ae60;}
	.st6{fill:#185849;}
	.st7{fill:none;}
</style>
<g>
	<path class="st0" d="M64,85.4c-6.6-2.8-13.6-4.3-20.8-4.2c-13.1,0-24.5,4.3-30,10.7H9.7v8.7c0,10.7,15,19.4,33.5,19.4
		c7.1,0.1,14.2-1.3,20.8-4.2V85.4z"/>
	<ellipse class="st1" cx="43.2" cy="91.9" rx="33.5" ry="19.4"/>
	<path class="st1" d="M114.8,91.9c-5.5-6.3-16.9-10.7-30-10.7c-7.1-0.1-14.2,1.3-20.8,4.2v30.4c6.6,2.8,13.6,4.3,20.8,4.2
		c18.5,0,33.5-8.7,33.5-19.4v-8.7H114.8z"/>
	<ellipse class="st2" cx="84.8" cy="91.9" rx="33.5" ry="19.4"/>
	<path class="st1" d="M64,76.7c-12.9,5.9-16.7,16.4-8.3,24.9c2.4,2.3,5.2,4.2,8.3,5.5c12.9-5.9,16.7-16.4,8.3-24.9
		C69.9,79.9,67.1,78.1,64,76.7z"/>
	<path class="st1" d="M64,108.1c-0.1,0-0.3,0-0.4-0.1c-3.2-1.4-6.1-3.3-8.6-5.7c-3.8-3.8-5.4-8.2-4.6-12.6c1-5.5,5.8-10.6,13.1-13.9
		c0.3-0.1,0.6-0.1,0.8,0c3.2,1.4,6.1,3.3,8.6,5.7c3.8,3.8,5.4,8.2,4.6,12.6c-1,5.5-5.8,10.6-13.2,13.9
		C64.3,108.1,64.1,108.1,64,108.1z M64,77.8c-6.5,3.1-10.7,7.5-11.6,12.3c-0.7,3.7,0.7,7.5,4,10.8c2.2,2.1,4.8,3.9,7.6,5.1
		c6.5-3.1,10.7-7.5,11.6-12.3c0.7-3.7-0.7-7.5-4-10.8C69.4,80.8,66.8,79.1,64,77.8L64,77.8z"/>
	<path class="st0" d="M64,116.8c-0.6,0-1-0.4-1-1v-8.7c0-0.6,0.4-1,1-1s1,0.4,1,1v8.7C65,116.4,64.6,116.8,64,116.8z"/>
	<path class="st0" d="M43.2,112.3c-19,0-34.5-9.1-34.5-20.4s15.5-20.4,34.5-20.4s34.5,9.1,34.5,20.4S62.3,112.3,43.2,112.3z
		 M43.2,73.6c-17.9,0-32.5,8.2-32.5,18.4s14.6,18.4,32.5,18.4s32.5-8.2,32.5-18.4S61.2,73.6,43.2,73.6z"/>
	<path class="st0" d="M84.8,112.3c-19,0-34.5-9.1-34.5-20.4s15.5-20.4,34.5-20.4s34.5,9.1,34.5,20.4S103.8,112.3,84.8,112.3z
		 M84.8,73.6c-17.9,0-32.5,8.2-32.5,18.4s14.6,18.4,32.5,18.4s32.5-8.2,32.5-18.4S102.7,73.6,84.8,73.6L84.8,73.6z"/>
	<path class="st3" d="M43.2,121c-19,0-34.5-9.1-34.5-20.4v-8.7c0-11.2,15.5-20.4,34.5-20.4c7.1-0.1,14.2,1.3,20.8,4.1
		c6.6-2.8,13.7-4.2,20.8-4.1c19,0,34.5,9.1,34.5,20.4v8.7c0,11.2-15.5,20.4-34.5,20.4c-7.1,0.1-14.2-1.3-20.8-4.1
		C57.4,119.7,50.3,121.1,43.2,121z M43.2,73.6c-17.9,0-32.5,8.2-32.5,18.4v8.7c0,10.1,14.6,18.4,32.5,18.4c7,0.1,13.9-1.3,20.4-4.1
		c0.3-0.1,0.6-0.1,0.8,0c6.4,2.8,13.4,4.2,20.4,4.1c17.9,0,32.5-8.2,32.5-18.4V92c0-10.1-14.6-18.4-32.5-18.4
		c-7-0.1-13.9,1.3-20.4,4.1c-0.3,0.1-0.6,0.1-0.8,0C57.2,74.9,50.2,73.5,43.2,73.6z"/>
	<path class="st4" d="M94,39c-5.5-6.3-16.9-10.7-30-10.7S39.5,32.7,34,39h-3.6v8.7c0,10.7,15,19.4,33.5,19.4s33.5-8.7,33.5-19.4V39
		H94z"/>
	<path class="st5" d="M64,68.1c-19,0-34.5-9.1-34.5-20.4V39c0-0.6,0.4-1,1-1h3.1c6-6.6,17.6-10.7,30.4-10.7S88.4,31.4,94.4,38h3.1
		c0.6,0,1,0.4,1,1v8.7C98.5,59,83,68.1,64,68.1z M31.5,40v7.7c0,10.1,14.6,18.4,32.5,18.4s32.5-8.2,32.5-18.4V40H94
		c-0.3,0-0.6-0.1-0.8-0.3C87.7,33.3,76.5,29.4,64,29.4s-23.7,4-29.2,10.3C34.6,39.9,34.3,40,34,40H31.5z"/>
	<path class="st5" d="M64,68.1c-19,0-34.5-9.1-34.5-20.4V39c0-0.6,0.4-1,1-1h3.1c6-6.6,17.6-10.7,30.4-10.7S88.4,31.4,94.4,38h3.1
		c0.6,0,1,0.4,1,1v8.7C98.5,59,83,68.1,64,68.1z M31.5,40v7.7c0,10.1,14.6,18.4,32.5,18.4s32.5-8.2,32.5-18.4V40H94
		c-0.3,0-0.6-0.1-0.8-0.3C87.7,33.3,76.5,29.4,64,29.4s-23.7,4-29.2,10.3C34.6,39.9,34.3,40,34,40H31.5z"/>
	<ellipse class="st2" cx="64" cy="39" rx="33.5" ry="19.4"/>
	<path class="st5" d="M64,59.4c-19,0-34.5-9.1-34.5-20.4S45,18.7,64,18.7S98.5,27.8,98.5,39S83,59.4,64,59.4z M64,20.7
		c-17.9,0-32.5,8.2-32.5,18.4S46.1,57.4,64,57.4S96.5,49.2,96.5,39S81.9,20.7,64,20.7z"/>
	<path class="st5" d="M64,59.4c-19,0-34.5-9.1-34.5-20.4S45,18.7,64,18.7S98.5,27.8,98.5,39S83,59.4,64,59.4z M64,20.7
		c-17.9,0-32.5,8.2-32.5,18.4S46.1,57.4,64,57.4S96.5,49.2,96.5,39S81.9,20.7,64,20.7z"/>
	<path class="st6" d="M64,68.1c-19,0-34.5-9.1-34.5-20.4V39C29.5,27.8,45,18.7,64,18.7S98.5,27.8,98.5,39v8.7
		C98.5,59,83,68.1,64,68.1z M64,20.7c-17.9,0-32.5,8.2-32.5,18.4v8.7c0,10.1,14.6,18.4,32.5,18.4S96.5,58,96.5,47.8V39
		C96.5,28.9,81.9,20.7,64,20.7L64,20.7z"/>
	<path class="st6" d="M97.6,30.1c-0.1,0-0.1,0-0.2,0S97.1,30,97,30s-0.1-0.1-0.2-0.1c-0.2-0.2-0.3-0.4-0.3-0.7c0-0.1,0-0.3,0.1-0.4
		s0.1-0.2,0.2-0.3c0,0,0.1-0.1,0.2-0.1c0.1-0.1,0.2-0.1,0.4-0.1c0.1,0,0.3,0,0.4,0s0.1,0,0.2,0.1c0.1,0,0.1,0.1,0.2,0.1
		s0.1,0.1,0.2,0.1c0.1,0.1,0.2,0.2,0.2,0.3c0.2,0.4,0.1,0.8-0.2,1.1c0,0-0.1,0.1-0.2,0.1C98,29.9,98,30,97.9,30s-0.1,0.1-0.2,0.1
		C97.7,30.1,97.6,30.1,97.6,30.1z"/>
	<path class="st6" d="M96.6,23.8c0-0.5,0.4-1,1-1l0,0l0,0c0.6,0,1,0.4,1,1l0,0c0,0.6-0.4,1-1,1l0,0C97,24.8,96.6,24.4,96.6,23.8z
		 M96.6,18.5c0-0.6,0.4-1,1-1l0,0c0.6,0,1,0.4,1,1l0,0c0,0.6-0.4,1-1,1l0,0C97,19.5,96.6,19.1,96.6,18.5z M96.6,13.3
		c0-0.5,0.4-1,1-1l0,0l0,0c0.6,0,1,0.4,1,1l0,0c0,0.6-0.4,1-1,1l0,0C97,14.3,96.6,13.8,96.6,13.3z"/>
	<path class="st6" d="M97.6,9c-0.1,0-0.1,0-0.2,0S97.1,8.9,97,8.9l-0.2-0.1c-0.2-0.2-0.3-0.4-0.3-0.7c0-0.1,0-0.3,0.1-0.4
		s0.1-0.2,0.2-0.3L97,7.2C97.1,7.1,97.2,7,97.4,7c0.1,0,0.3,0,0.4,0s0.1,0,0.2,0.1c0.1,0,0.1,0.1,0.2,0.1s0.1,0.1,0.2,0.1
		c0.2,0.2,0.3,0.4,0.3,0.7s-0.1,0.5-0.3,0.7c0,0-0.1,0.1-0.2,0.1S98.1,8.9,98,8.9C97.9,9,97.8,9,97.6,9L97.6,9z"/>
	<path class="st6" d="M30.5,30.1c-0.6,0-1-0.4-1-1c0-0.3,0.1-0.5,0.3-0.7l0.1-0.1c0.1,0,0.1-0.1,0.2-0.1s0.1-0.1,0.2-0.1
		c0.3-0.1,0.7,0,0.9,0.3c0.1,0.1,0.2,0.2,0.2,0.3c0,0.1,0.1,0.2,0.1,0.4c0,0.1,0,0.1,0,0.2s0,0.1,0,0.2s-0.1,0.1-0.1,0.2
		s-0.1,0.1-0.1,0.1C31.2,29.9,31.1,30,31,30C30.7,30,30.6,30.1,30.5,30.1z"/>
	<path class="st6" d="M29.5,23.8c0-0.6,0.4-1,1-1l0,0c0.6,0,1,0.4,1,1l0,0c0,0.6-0.4,1-1,1l0,0C29.9,24.8,29.5,24.4,29.5,23.8z
		 M29.5,18.5c0-0.6,0.4-1,1-1l0,0c0.6,0,1,0.4,1,1l0,0c0,0.6-0.4,1-1,1l0,0C29.9,19.5,29.5,19.1,29.5,18.5z M29.5,13.3
		c0-0.6,0.4-1,1-1l0,0c0.6,0,1,0.4,1,1l0,0c0,0.5-0.4,1-1,1l0,0l0,0C29.9,14.3,29.5,13.8,29.5,13.3L29.5,13.3z"/>
	<path class="st6" d="M30.5,9c-0.3,0-0.5-0.1-0.7-0.3c-0.1-0.1-0.2-0.2-0.2-0.3c-0.2-0.4-0.1-0.8,0.2-1.1c0.2-0.3,0.7-0.4,1-0.2
		c0.1,0,0.2,0.1,0.3,0.2c0,0,0.1,0.1,0.1,0.2s0.1,0.1,0.1,0.2s0,0.1,0,0.2s0,0.1,0,0.2s0,0.3-0.1,0.4c-0.1,0.1-0.1,0.2-0.2,0.3
		S30.8,9,30.7,9C30.7,9,30.6,9,30.5,9z"/>
	<rect x="1" y="1" class="st7" width="126" height="126"/>
	<rect class="st7" width="128" height="128"/>
</g>
</svg>
