<?xml version="1.0" encoding="utf-8"?>
<!-- Generator: Adobe Illustrator 24.1.0, SVG Export Plug-In . SVG Version: 6.00 Build 0)  -->
<svg version="1.1" id="Layer_1" xmlns="http://www.w3.org/2000/svg" xmlns:xlink="http://www.w3.org/1999/xlink" x="0px" y="0px"
	 viewBox="0 0 128 128" style="enable-background:new 0 0 128 128;" xml:space="preserve">
<style type="text/css">
	.st0{fill:none;}
	.st1{fill:#185849;}
	.st2{fill:#E9EBDF;}
	.st3{fill:#4D9987;}
	.st4{fill:#FFFFFF;}
	.st5{fill:#0E352C;}
	.st6{fill:#C4D7D3;}
	.st7{fill:#27ae60;}
</style>
<g>
	<rect x="1" y="1" class="st0" width="126" height="126"/>
	<rect x="1" y="1" class="st0" width="126" height="126"/>
	<rect x="1" y="1" class="st0" width="126" height="126"/>
	<path class="st1" d="M26.7,43c-0.1,0-0.3,0-0.4-0.1c-0.1,0-0.2-0.1-0.3-0.2c-0.4-0.4-0.4-1,0-1.4c0.1-0.1,0.2-0.2,0.3-0.2
		c0.4-0.2,0.8-0.1,1.1,0.2c0,0,0.1,0.1,0.1,0.2c0,0.1,0.1,0.1,0.1,0.2c0,0.1,0.1,0.1,0.1,0.2c0,0.1,0,0.1,0,0.2
		C27.7,42.5,27.3,43,26.7,43L26.7,43z"/>
	<path class="st1" d="M25.7,67.3c0-0.6,0.4-1,1-1l0,0c0.6,0,1,0.4,1,1l0,0c0,0.6-0.4,1-1,1l0,0C26.1,68.3,25.7,67.8,25.7,67.3z
		 M25.7,60.9c0-0.5,0.4-1,1-1l0,0l0,0c0.6,0,1,0.4,1,1l0,0c0,0.6-0.4,1-1,1l0,0C26.1,61.9,25.7,61.5,25.7,60.9z M25.7,54.6
		c0-0.6,0.4-1,1-1l0,0c0.6,0,1,0.4,1,1l0,0c0,0.6-0.4,1-1,1l0,0C26.1,55.6,25.7,55.2,25.7,54.6z M25.7,48.3c0-0.6,0.4-1,1-1l0,0l0,0
		c0.6,0,1,0.4,1,1l0,0l0,0c0,0.5-0.4,1-1,1l0,0l0,0C26.2,49.3,25.7,48.9,25.7,48.3L25.7,48.3z"/>
	<path class="st1" d="M26.7,74.6c-0.1,0-0.3,0-0.4-0.1c-0.1,0-0.2-0.1-0.3-0.2c-0.2-0.2-0.3-0.4-0.3-0.7c0-0.1,0-0.1,0-0.2
		s0-0.1,0-0.2s0.1-0.1,0.1-0.2s0.1-0.1,0.1-0.2c0.1-0.1,0.2-0.2,0.3-0.2c0.4-0.1,0.8-0.1,1.1,0.2c0,0,0.1,0.1,0.1,0.2
		s0.1,0.1,0.1,0.2s0,0.1,0.1,0.2c0,0.1,0,0.1,0,0.2C27.7,74.1,27.3,74.6,26.7,74.6z"/>
	<path class="st1" d="M101.3,43c-0.1,0-0.3,0-0.4-0.1s-0.2-0.1-0.3-0.2c-0.2-0.2-0.3-0.4-0.3-0.7c0-0.1,0-0.3,0.1-0.4
		c0.1-0.3,0.3-0.4,0.5-0.5c0.5-0.2,1.1,0,1.3,0.5c0.2,0.4,0.1,0.8-0.2,1.1C101.8,42.9,101.6,43,101.3,43z"/>
	<path class="st1" d="M100.3,67.3c0-0.6,0.4-1,1-1l0,0c0.6,0,1,0.4,1,1l0,0c0,0.6-0.4,1-1,1l0,0C100.7,68.3,100.3,67.8,100.3,67.3z
		 M100.3,60.9c0-0.6,0.4-1,1-1l0,0c0.6,0,1,0.4,1,1l0,0c0,0.6-0.4,1-1,1l0,0C100.7,61.9,100.3,61.5,100.3,60.9z M100.3,54.6
		c0-0.6,0.4-1,1-1l0,0c0.6,0,1,0.4,1,1l0,0c0,0.6-0.4,1-1,1l0,0C100.7,55.6,100.3,55.2,100.3,54.6z M100.3,48.3c0-0.6,0.4-1,1-1l0,0
		c0.6,0,1,0.4,1,1l0,0c0,0.6-0.4,1-1,1l0,0C100.7,49.3,100.3,48.9,100.3,48.3z"/>
	<path class="st1" d="M101.3,74.6c-0.3,0-0.5-0.1-0.7-0.3c0,0-0.1-0.1-0.1-0.2s-0.1-0.1-0.1-0.2s0-0.1-0.1-0.2c0-0.1,0-0.1,0-0.2
		c0-0.6,0.4-1,1-1c0.3,0,0.5,0.1,0.7,0.3c0.1,0,0.1,0.1,0.1,0.2s0.1,0.1,0.1,0.2s0,0.1,0.1,0.2c0,0.1,0,0.1,0,0.2s0,0.1,0,0.2
		s0,0.1-0.1,0.2c0,0.1-0.1,0.1-0.1,0.2s-0.1,0.1-0.1,0.2C101.8,74.5,101.6,74.6,101.3,74.6z"/>
	<polygon class="st2" points="26.7,98.5 64,120 64,107.6 26.7,86 	"/>
	<path class="st3" d="M64,121c-0.2,0-0.3,0-0.5-0.1L26.2,99.3c-0.3-0.2-0.5-0.5-0.5-0.9V86c0-0.6,0.4-1,1-1c0.2,0,0.3,0,0.5,0.1
		l37.3,21.5c0.3,0.2,0.5,0.5,0.5,0.9V120C65,120.6,64.6,121,64,121z M27.7,97.9L63,118.3v-10.1L27.7,87.8V97.9z"/>
	<polygon class="st2" points="101.3,98.5 64,120 64,107.6 101.3,86 	"/>
	<path class="st3" d="M64,121c-0.6,0-1-0.4-1-1v-12.4c0-0.4,0.2-0.7,0.5-0.9l37.3-21.5c0.5-0.3,1.1-0.1,1.4,0.4
		c0.1,0.2,0.1,0.3,0.1,0.5v12.4c0,0.4-0.2,0.7-0.5,0.9l-37.3,21.5C64.3,121,64.2,121,64,121z M65,108.1v10.1l35.3-20.4v-10L65,108.1
		z"/>
	<path class="st3" d="M54.9,115.8c-0.2,0-0.3,0-0.5-0.1l-19.2-11.1c-0.3-0.2-0.5-0.5-0.5-0.9V98c0-0.6,0.4-1,1-1
		c0.2,0,0.3,0,0.5,0.1l19.2,11.1c0.3,0.2,0.5,0.5,0.5,0.9v5.7C55.9,115.3,55.5,115.8,54.9,115.8z M36.7,103.1l17.2,9.9v-3.4
		l-17.2-9.9V103.1z"/>
	<path class="st3" d="M31.6,96.5c-0.2,0-0.3,0-0.5-0.1L31,96.3c-0.5-0.3-0.6-0.9-0.4-1.4s0.9-0.6,1.4-0.4l0.1,0.1
		c0.5,0.3,0.6,0.9,0.4,1.4C32.3,96.4,31.9,96.5,31.6,96.5z"/>
	<polygon class="st4" points="101.3,86 64,64.5 26.7,86 64,107.6 	"/>
	<path class="st3" d="M64,108.6c-0.2,0-0.3,0-0.5-0.1L26.2,86.9c-0.5-0.3-0.6-0.9-0.4-1.4c0.1-0.2,0.2-0.3,0.4-0.4l37.3-21.5
		c0.3-0.2,0.7-0.2,1,0l37.3,21.5c0.5,0.3,0.6,0.9,0.4,1.4c-0.1,0.2-0.2,0.3-0.4,0.4l-37.3,21.5C64.3,108.5,64.2,108.6,64,108.6z
		 M28.7,86L64,106.4L99.3,86L64,65.6L28.7,86z"/>
	<path class="st5" d="M64,121c-0.2,0-0.3,0-0.5-0.1L26.2,99.3c-0.3-0.2-0.5-0.5-0.5-0.9V86c0-0.4,0.2-0.7,0.5-0.9l37.3-21.5
		c0.3-0.2,0.7-0.2,1,0l37.3,21.5c0.3,0.2,0.5,0.5,0.5,0.9v12.4c0,0.4-0.2,0.7-0.5,0.9l-37.3,21.5C64.3,121,64.2,121,64,121z
		 M27.7,97.9l36.3,21l36.3-21V86.6L64,65.6l-36.3,21V97.9z"/>
	<polygon class="st2" points="26.7,86 64,107.6 64,95.1 26.7,73.6 	"/>
	<path class="st3" d="M64,108.6c-0.2,0-0.3,0-0.5-0.1L26.2,86.9c-0.3-0.2-0.5-0.5-0.5-0.9V73.6c0-0.6,0.4-1,1-1c0.2,0,0.3,0,0.5,0.1
		l37.3,21.5c0.3,0.2,0.5,0.5,0.5,0.9v12.4C65,108.1,64.6,108.6,64,108.6z M27.7,85.5L63,105.8V95.7L27.7,75.3V85.5z"/>
	<polygon class="st2" points="101.3,86 64,107.6 64,95.1 101.3,73.6 	"/>
	<path class="st3" d="M64,108.6c-0.6,0-1-0.4-1-1V95.1c0-0.4,0.2-0.7,0.5-0.9l37.3-21.5c0.5-0.3,1.1-0.1,1.4,0.4
		c0.1,0.2,0.1,0.3,0.1,0.5V86c0,0.4-0.2,0.7-0.5,0.9l-37.3,21.5C64.3,108.5,64.2,108.6,64,108.6z M65,95.7v10.1l35.3-20.4V75.3
		L65,95.7z"/>
	<path class="st3" d="M54.9,103.3c-0.2,0-0.3,0-0.5-0.1L35.2,92.1c-0.3-0.2-0.5-0.5-0.5-0.9v-5.7c0-0.6,0.4-1,1-1
		c0.2,0,0.3,0,0.5,0.1l19.2,11.1c0.3,0.2,0.5,0.5,0.5,0.9v5.7C56,102.9,55.5,103.3,54.9,103.3L54.9,103.3z M36.8,90.7l17.2,9.9v-3.4
		l-17.2-9.9V90.7z"/>
	<path class="st3" d="M31.6,84.1c-0.2,0-0.3,0-0.5-0.1L31,83.9c-0.5-0.3-0.6-0.9-0.3-1.4c0.3-0.4,0.9-0.6,1.3-0.4l0.1,0.1
		c0.5,0.3,0.6,0.9,0.4,1.4C32.3,83.9,31.9,84.1,31.6,84.1z"/>
	<polygon class="st4" points="101.3,73.6 64,52.1 26.7,73.6 64,95.1 	"/>
	<path class="st3" d="M64,96.1c-0.2,0-0.3,0-0.5-0.1L26.2,74.5c-0.5-0.3-0.6-0.9-0.4-1.4c0.1-0.2,0.2-0.3,0.4-0.4l37.3-21.5
		c0.3-0.2,0.7-0.2,1,0l37.3,21.5c0.5,0.3,0.6,0.9,0.4,1.4c-0.1,0.2-0.2,0.3-0.4,0.4L64.5,96C64.3,96.1,64.2,96.1,64,96.1z
		 M28.7,73.6L64,94l35.3-20.4L64,53.2L28.7,73.6z"/>
	<path class="st5" d="M64,108.6c-0.2,0-0.3,0-0.5-0.1L26.2,86.9c-0.3-0.2-0.5-0.5-0.5-0.9V73.6c0-0.4,0.2-0.7,0.5-0.9l37.3-21.5
		c0.3-0.2,0.7-0.2,1,0l37.3,21.5c0.3,0.2,0.5,0.5,0.5,0.9V86c0,0.4-0.2,0.7-0.5,0.9l-37.3,21.5C64.3,108.5,64.2,108.6,64,108.6z
		 M27.7,85.5l36.3,21l36.3-21V74.2L64,53.2l-36.3,21V85.5z"/>
	<path class="st2" d="M51.9,74.6c-0.1,0-0.2,0-0.3-0.1L48,72.4c-0.1-0.1-0.2-0.2-0.1-0.3C48,72,48.1,72,48.3,72l12.3,0.6
		c0.3,0,0.5-0.1,0.5-0.3l-1-7.1c0-0.1,0-0.2,0.2-0.2c0.2-0.1,0.4-0.1,0.5,0l3.5,2c0.1,0,0.1,0.1,0.1,0.1l1.1,7.7v0.1
		c0,0.1-0.2,0.2-0.4,0.2H65L51.9,74.6z"/>
	<path class="st2" d="M67.4,75.1c0,0.1,0.2,0.2,0.4,0.2l10.6,0.6c0.1,0,0.3,0,0.4-0.1s0.1-0.2,0-0.3l-3.5-2c-0.1,0-0.2-0.1-0.3-0.1
		L67.6,73c-0.3,0-0.5,0.1-0.5,0.3L67.4,75.1z"/>
	<path class="st2" d="M65.3,76.3c0.2,0,0.4,0.1,0.4,0.2l1.1,6.2c0,0.1,0,0.2-0.2,0.2c-0.2,0.1-0.4,0.1-0.5,0l-3.5-2
		c-0.1,0-0.1-0.1-0.1-0.1l-0.7-4.3c0-0.2,0.2-0.3,0.5-0.3L65.3,76.3z"/>
	<polygon class="st6" points="101.3,42 64,63.5 64,51.1 101.3,29.5 	"/>
	<path class="st7" d="M64,64.5c-0.6,0-1-0.4-1-1V51.1c0-0.4,0.2-0.7,0.5-0.9l37.3-21.5c0.5-0.3,1.1-0.1,1.4,0.4
		c0.1,0.2,0.1,0.3,0.1,0.5V42c0,0.4-0.2,0.7-0.5,0.9L64.5,64.4C64.3,64.5,64.2,64.5,64,64.5z M65,51.7v10.1l35.3-20.4V31.3L65,51.7z
		"/>
	<polygon class="st6" points="26.7,42 64,63.5 64,51.1 26.7,29.5 	"/>
	<path class="st7" d="M64,64.5c-0.2,0-0.3,0-0.5-0.1L26.2,42.8c-0.3-0.2-0.5-0.5-0.5-0.9V29.5c0-0.6,0.4-1,1-1c0.2,0,0.3,0,0.5,0.1
		l37.3,21.5c0.3,0.2,0.5,0.5,0.5,0.9v12.4C65,64.1,64.6,64.5,64,64.5z M27.7,41.4L63,61.8V51.7L27.7,31.3V41.4z"/>
	<path class="st7" d="M54.9,59.3c-0.2,0-0.3,0-0.5-0.1L35.2,48.1c-0.3-0.2-0.5-0.5-0.5-0.9v-5.7c0-0.6,0.4-1,1-1
		c0.2,0,0.3,0,0.5,0.1l19.2,11.1c0.3,0.2,0.5,0.5,0.5,0.9v5.7C56,58.8,55.5,59.3,54.9,59.3L54.9,59.3z M36.8,46.6L54,56.5v-3.4
		l-17.2-9.9V46.6z"/>
	<polygon class="st4" points="101.3,29.5 64,8 26.7,29.5 64,51.1 	"/>
	<path class="st7" d="M64,52.1c-0.2,0-0.3,0-0.5-0.1L26.2,30.4c-0.5-0.3-0.6-0.9-0.4-1.4c0.1-0.2,0.2-0.3,0.4-0.4L63.5,7.1
		c0.3-0.2,0.7-0.2,1,0l37.3,21.5c0.5,0.3,0.6,0.9,0.4,1.4c-0.1,0.2-0.2,0.3-0.4,0.4L64.5,51.9C64.3,52,64.2,52.1,64,52.1z
		 M28.7,29.5L64,49.9l35.3-20.4L64,9.2L28.7,29.5z"/>
	<path class="st7" d="M31.6,40.1c-0.2,0-0.3,0-0.5-0.1L31,39.9c-0.5-0.3-0.6-0.9-0.3-1.4c0.3-0.4,0.9-0.6,1.3-0.4l0.1,0.1
		c0.5,0.3,0.6,0.9,0.4,1.4C32.3,39.9,31.9,40.1,31.6,40.1z"/>
	<path class="st6" d="M51.9,30.1c-0.1,0-0.2,0-0.3-0.1L48,28c-0.1-0.1-0.2-0.2-0.1-0.3c0.1-0.1,0.3-0.2,0.4-0.2l12.3,0.6
		c0.3,0,0.5-0.1,0.5-0.3l-1-7.1c0-0.1,0-0.2,0.2-0.2c0.2-0.1,0.4-0.1,0.5,0l3.5,2c0.1,0,0.1,0.1,0.1,0.1l1.1,7.7v0.1
		c0,0.1-0.2,0.2-0.4,0.2H65L51.9,30.1z"/>
	<path class="st6" d="M67.4,30.6c0,0.1,0.2,0.2,0.4,0.2l10.6,0.6c0.1,0,0.3,0,0.4-0.1s0.1-0.2,0-0.3l-3.5-2c-0.1,0-0.2,0-0.3,0
		l-7.4-0.4c-0.3,0-0.5,0.1-0.5,0.3L67.4,30.6z"/>
	<path class="st6" d="M65.3,31.9c0.2,0,0.4,0.1,0.4,0.2l1.1,6.2c0,0.1,0,0.2-0.2,0.2c-0.2,0.1-0.4,0.1-0.5,0l-3.5-2
		c-0.1,0-0.1-0.1-0.1-0.1L61.8,32c0-0.2,0.2-0.3,0.5-0.3L65.3,31.9z"/>
	<path class="st1" d="M64,64.5c-0.2,0-0.3,0-0.5-0.1L26.2,42.8c-0.3-0.2-0.5-0.5-0.5-0.9V29.5c0-0.4,0.2-0.7,0.5-0.9L63.5,7.1
		c0.3-0.2,0.7-0.2,1,0l37.3,21.5c0.3,0.2,0.5,0.5,0.5,0.9V42c0,0.4-0.2,0.7-0.5,0.9L64.5,64.4C64.3,64.5,64.2,64.5,64,64.5z
		 M27.7,41.4l36.3,21l36.3-21V30.1L64,9.2l-36.3,21V41.4z"/>
	<rect class="st0" width="128" height="128"/>
</g>
</svg>
