<?xml version="1.0" encoding="utf-8"?>
<!-- Generator: Adobe Illustrator 24.1.0, SVG Export Plug-In . SVG Version: 6.00 Build 0)  -->
<svg version="1.1" id="Layer_1" xmlns="http://www.w3.org/2000/svg" xmlns:xlink="http://www.w3.org/1999/xlink" x="0px" y="0px"
	 viewBox="0 0 128 128" style="enable-background:new 0 0 128 128;" xml:space="preserve">
<style type="text/css">
	.st0{fill:none;}
	.st1{fill:#E9EBDF;}
	.st2{fill:#27ae60;}
	.st3{fill:#4D9987;}
	.st4{fill:#0E352C;}
	.st5{fill:#C4D7D3;}
	.st6{fill:#FFFFFF;}
	.st7{fill:#185849;}
</style>
<g>
	<rect x="1" y="1" class="st0" width="126" height="126"/>
	<rect x="1" y="1" class="st0" width="126" height="126"/>
	<polygon class="st1" points="98.3,100.4 64,120.2 64,106.8 98.3,87 	"/>
	<path class="st2" d="M64,121.2c-0.6,0-1-0.4-1-1v-13.4c0-0.4,0.2-0.7,0.5-0.9l34.3-19.8c0.5-0.3,1.1-0.1,1.4,0.4
		c0.1,0.2,0.1,0.3,0.1,0.5v13.4c0,0.4-0.2,0.7-0.5,0.9l-34.3,19.8C64.3,121.2,64.2,121.2,64,121.2z M65,107.4v11.1l32.3-18.6V88.7
		L65,107.4z"/>
	<polygon class="st1" points="29.7,100.4 64,120.2 64,106.8 29.7,87 	"/>
	<path class="st2" d="M64,121.2c-0.2,0-0.3,0-0.5-0.1l-34.3-19.8c-0.3-0.2-0.5-0.5-0.5-0.9V87c0-0.6,0.4-1,1-1c0.2,0,0.3,0,0.5,0.1
		l34.3,19.8c0.3,0.2,0.5,0.5,0.5,0.9v13.4C65,120.8,64.6,121.2,64,121.2L64,121.2z M30.7,99.8L63,118.5v-11.1L30.7,88.7V99.8z"/>
	<polygon class="st3" points="38,105.2 55.7,115.4 55.7,110.1 38,99.9 	"/>
	<path class="st3" d="M55.7,115.9c-0.1,0-0.2,0-0.2-0.1l-17.7-10.2c-0.2-0.1-0.3-0.3-0.2-0.4v-5.3c0-0.3,0.2-0.5,0.5-0.5
		c0.1,0,0.2,0,0.2,0.1L56,109.7c0.2,0.1,0.3,0.3,0.2,0.4v5.3C56.2,115.7,56,115.9,55.7,115.9z M38.5,104.9l16.7,9.6v-4.1l-16.7-9.6
		V104.9z"/>
	<path class="st3" d="M34.2,98.7c-0.2,0-0.3,0-0.5-0.1l-0.1-0.1c-0.5-0.3-0.7-0.9-0.4-1.4s0.9-0.7,1.4-0.4c0,0,0,0,0.1,0l0.1,0.1
		c0.5,0.3,0.6,0.9,0.4,1.4C34.9,98.5,34.6,98.7,34.2,98.7z"/>
	<polygon class="st1" points="98.3,87 64,67.2 29.7,87 64,106.8 	"/>
	<path class="st2" d="M64,107.8c-0.2,0-0.3,0-0.5-0.1L29.2,87.8c-0.5-0.3-0.6-0.9-0.4-1.4c0.1-0.2,0.2-0.3,0.4-0.4l34.3-19.8
		c0.3-0.2,0.7-0.2,1,0L98.8,86c0.5,0.3,0.6,0.9,0.4,1.4c-0.1,0.2-0.2,0.3-0.4,0.4l-34.3,19.8C64.3,107.7,64.2,107.8,64,107.8z
		 M31.7,87L64,105.6L96.3,87L64,68.3L31.7,87z"/>
	<path class="st2" d="M64,121.2c-0.2,0-0.3,0-0.5-0.1l-34.3-19.8c-0.3-0.2-0.5-0.5-0.5-0.9V87c0-0.6,0.4-1,1-1c0.2,0,0.3,0,0.5,0.1
		l34.3,19.8c0.3,0.2,0.5,0.5,0.5,0.9v13.4C65,120.8,64.6,121.2,64,121.2L64,121.2z M30.7,99.8L63,118.5v-11.1L30.7,88.7V99.8z"/>
	<path class="st4" d="M64,121.2c-0.2,0-0.3,0-0.5-0.1l-34.3-19.8c-0.3-0.2-0.5-0.5-0.5-0.9V87c0-0.4,0.2-0.7,0.5-0.9l34.3-19.8
		c0.3-0.2,0.7-0.2,1,0l34.3,19.8c0.3,0.2,0.5,0.5,0.5,0.9v13.4c0,0.4-0.2,0.7-0.5,0.9l-34.3,19.8C64.3,121.2,64.2,121.2,64,121.2z
		 M30.7,99.8L64,119.1l33.3-19.2V87.6L64,68.3L30.7,87.6V99.8z"/>
	<polygon class="st5" points="29.7,87 64,106.8 64,93.3 29.7,73.5 	"/>
	<path class="st2" d="M64,107.8c-0.2,0-0.3,0-0.5-0.1L29.2,87.8c-0.3-0.2-0.5-0.5-0.5-0.9V73.5c0-0.6,0.4-1,1-1c0.2,0,0.3,0,0.5,0.1
		l34.3,19.8c0.3,0.2,0.5,0.5,0.5,0.9v13.4C65,107.3,64.6,107.8,64,107.8L64,107.8z M30.7,86.4L63,105V93.9L30.7,75.3V86.4z"/>
	<path class="st2" d="M34.2,85.3c-0.2,0-0.3,0-0.5-0.1l-0.1-0.1c-0.5-0.3-0.6-0.9-0.4-1.4c0.3-0.5,0.9-0.6,1.4-0.4l0,0l0.1,0.1
		c0.5,0.3,0.6,0.9,0.4,1.4C34.9,85.1,34.6,85.3,34.2,85.3z"/>
	<polygon class="st2" points="38,91.8 55.7,102 55.7,96.7 38,86.5 	"/>
	<path class="st2" d="M55.7,102.5c-0.1,0-0.2,0-0.2-0.1L37.8,92.2c-0.2-0.1-0.2-0.3-0.2-0.4v-5.3c0-0.3,0.2-0.5,0.5-0.5
		c0.1,0,0.2,0,0.2,0.1L56,96.3c0.2,0.1,0.2,0.3,0.2,0.4v5.3C56.2,102.2,56,102.5,55.7,102.5z M38.5,91.5l16.7,9.6V97l-16.7-9.6V91.5
		z"/>
	<path class="st2" d="M64,107.8c-0.2,0-0.3,0-0.5-0.1L29.2,87.8c-0.3-0.2-0.5-0.5-0.5-0.9V73.5c0-0.6,0.4-1,1-1c0.2,0,0.3,0,0.5,0.1
		l34.3,19.8c0.3,0.2,0.5,0.5,0.5,0.9v13.4C65,107.3,64.6,107.8,64,107.8L64,107.8z M30.7,86.4L63,105V93.9L30.7,75.3V86.4z"/>
	<polygon class="st5" points="98.3,87 64,106.8 64,93.3 98.3,73.5 	"/>
	<path class="st2" d="M64,107.8c-0.6,0-1-0.4-1-1V93.3c0-0.4,0.2-0.7,0.5-0.9l34.3-19.8c0.5-0.3,1.1-0.1,1.4,0.4
		c0.1,0.2,0.1,0.3,0.1,0.5V87c0,0.4-0.2,0.7-0.5,0.9l-34.3,19.8C64.3,107.7,64.2,107.8,64,107.8z M65,93.9V105l32.3-18.6V75.3
		L65,93.9z"/>
	<polygon class="st6" points="98.3,73.5 64,53.7 29.7,73.5 64,93.3 	"/>
	<path class="st2" d="M64,94.3c-0.2,0-0.3,0-0.5-0.1L29.2,74.4c-0.5-0.3-0.6-0.9-0.4-1.4c0.1-0.2,0.2-0.3,0.4-0.4l34.3-19.8
		c0.3-0.2,0.7-0.2,1,0l34.3,19.8c0.5,0.3,0.6,0.9,0.4,1.4c-0.1,0.2-0.2,0.3-0.4,0.4L64.5,94.2C64.3,94.3,64.2,94.3,64,94.3z
		 M31.7,73.5L64,92.2l32.3-18.6L64,54.9L31.7,73.5z"/>
	<path class="st7" d="M64,107.8c-0.2,0-0.3,0-0.5-0.1L29.2,87.8c-0.3-0.2-0.5-0.5-0.5-0.9V73.5c0-0.4,0.2-0.7,0.5-0.9l34.3-19.8
		c0.3-0.2,0.7-0.2,1,0l34.3,19.8c0.3,0.2,0.5,0.5,0.5,0.9V87c0,0.4-0.2,0.7-0.5,0.9l-34.3,19.8C64.3,107.7,64.2,107.8,64,107.8z
		 M30.7,86.4L64,105.6l33.3-19.2V74.1L64,54.9L30.7,74.1V86.4z"/>
	<path class="st2" d="M64,79.3c-0.6,0-1-0.4-1-1v-9.2c0-0.6,0.4-1,1-1s1,0.4,1,1v9.2C65,78.9,64.6,79.3,64,79.3z"/>
	<path class="st2" d="M72,74.7H56c-0.6,0-1-0.4-1-1s0.4-1,1-1h16c0.6,0,1,0.4,1,1S72.6,74.7,72,74.7z"/>
	<path class="st2" d="M64,83.5c-9.3,0-16.5-4.4-16.5-9.9s7.2-9.9,16.5-9.9s16.5,4.4,16.5,9.9S73.3,83.5,64,83.5z M64,65.6
		c-7.9,0-14.5,3.6-14.5,7.9s6.6,7.9,14.5,7.9s14.5-3.6,14.5-7.9S71.9,65.6,64,65.6L64,65.6z"/>
	<path class="st7" d="M29.7,42c-0.1,0-0.1,0-0.2,0s-0.1,0-0.2-0.1c-0.1,0-0.1-0.1-0.2-0.1s-0.1-0.1-0.2-0.1
		c-0.2-0.2-0.3-0.4-0.3-0.7c0-0.1,0-0.1,0-0.2c0-0.1,0-0.1,0.1-0.2c0-0.1,0.1-0.1,0.1-0.2l0.1-0.2c0,0,0.1-0.1,0.2-0.1
		s0.1-0.1,0.2-0.1s0.1,0,0.2,0s0.3,0,0.4,0s0.1,0,0.2,0s0.1,0.1,0.2,0.1s0.1,0.1,0.2,0.1l0.1,0.2c0.1,0.1,0.1,0.2,0.1,0.4
		c0,0.1,0,0.1,0,0.2c0,0.3-0.1,0.5-0.3,0.7c0,0-0.1,0.1-0.2,0.1c0,0-0.1,0.1-0.2,0.1c0,0.1,0,0.1-0.1,0.1S29.8,42,29.7,42z"/>
	<path class="st7" d="M28.7,67c0-0.6,0.4-1,1-1l0,0c0.6,0,1,0.4,1,1l0,0c0,0.6-0.4,1-1,1l0,0C29.1,68,28.7,67.6,28.7,67z M28.7,60.5
		c0-0.6,0.4-1,1-1l0,0c0.6,0,1,0.4,1,1l0,0c0,0.6-0.4,1-1,1l0,0l0,0C29.1,61.5,28.7,61.1,28.7,60.5L28.7,60.5z M28.7,54
		c0-0.6,0.4-1,1-1l0,0c0.6,0,1,0.4,1,1l0,0c0,0.6-0.4,1-1,1l0,0C29.1,55,28.7,54.6,28.7,54z M28.7,47.5c0-0.6,0.4-1,1-1l0,0
		c0.6,0,1,0.4,1,1l0,0c0,0.6-0.4,1-1,1l0,0C29.1,48.5,28.7,48.1,28.7,47.5z"/>
	<path class="st7" d="M29.7,74.5c-0.1,0-0.1,0-0.2,0s-0.1,0-0.2-0.1c-0.1,0-0.1-0.1-0.2-0.1s-0.1-0.1-0.2-0.1L28.8,74
		c0-0.1-0.1-0.1-0.1-0.2s0-0.1-0.1-0.2c0-0.1,0-0.1,0-0.2c0-0.3,0.1-0.5,0.3-0.7c0,0,0.1-0.1,0.2-0.1s0.1-0.1,0.2-0.1
		s0.1-0.1,0.2-0.1s0.3,0,0.4,0s0.1,0,0.2,0.1c0.1,0,0.1,0.1,0.2,0.1s0.1,0.1,0.2,0.1c0.2,0.2,0.3,0.4,0.3,0.7c0,0.1,0,0.1,0,0.2
		s0,0.1-0.1,0.2c0,0.1-0.1,0.1-0.1,0.2l-0.1,0.2c-0.1,0-0.1,0.1-0.2,0.1s-0.1,0.1-0.2,0.1s-0.1,0-0.2,0.1
		C29.8,74.5,29.8,74.5,29.7,74.5z"/>
	<path class="st7" d="M98.3,42c-0.6,0-1-0.4-1-1c0-0.3,0.1-0.5,0.3-0.7c0.2-0.2,0.6-0.3,0.9-0.3c0.1,0,0.1,0,0.2,0s0.1,0.1,0.2,0.1
		s0.1,0.1,0.2,0.1c0.2,0.2,0.3,0.4,0.3,0.7s-0.1,0.5-0.3,0.7c0,0-0.1,0.1-0.2,0.1s-0.1,0.1-0.2,0.1s-0.1,0-0.2,0.1
		C98.4,42,98.4,42,98.3,42z"/>
	<path class="st7" d="M97.3,67c0-0.6,0.4-1,1-1l0,0c0.6,0,1,0.4,1,1l0,0c0,0.6-0.4,1-1,1l0,0C97.7,68,97.3,67.6,97.3,67z M97.3,60.5
		c0-0.6,0.4-1,1-1l0,0c0.6,0,1,0.4,1,1l0,0c0,0.6-0.4,1-1,1l0,0C97.7,61.5,97.3,61.1,97.3,60.5z M97.3,54c0-0.6,0.4-1,1-1l0,0
		c0.6,0,1,0.4,1,1l0,0c0,0.6-0.4,1-1,1l0,0C97.7,55,97.3,54.6,97.3,54z M97.3,47.5c0-0.6,0.4-1,1-1l0,0c0.6,0,1,0.4,1,1l0,0
		c0,0.6-0.4,1-1,1l0,0C97.7,48.5,97.3,48.1,97.3,47.5z"/>
	<path class="st7" d="M98.3,74.5c-0.6,0-1-0.4-1-1c0-0.3,0.1-0.5,0.3-0.7c0.2-0.2,0.6-0.3,0.9-0.3c0.1,0,0.1,0,0.2,0.1
		c0.1,0,0.1,0.1,0.2,0.1s0.1,0.1,0.2,0.1c0.4,0.4,0.4,1,0,1.4c0,0-0.1,0.1-0.2,0.1s-0.1,0.1-0.2,0.1s-0.1,0-0.2,0.1
		C98.4,74.5,98.4,74.5,98.3,74.5z"/>
	<polygon class="st5" points="29.7,41 64,60.8 64,47.4 29.7,27.6 	"/>
	<path class="st2" d="M64,61.8c-0.2,0-0.3,0-0.5-0.1L29.2,41.9c-0.3-0.2-0.5-0.5-0.5-0.9V27.6c0-0.6,0.4-1,1-1c0.2,0,0.3,0,0.5,0.1
		l34.3,19.8c0.3,0.2,0.5,0.5,0.5,0.9v13.4C65,61.4,64.6,61.8,64,61.8z M30.7,40.5L63,59.1V48L30.7,29.3V40.5z"/>
	<path class="st2" d="M34.2,39.3c-0.2,0-0.3,0-0.5-0.1l-0.1-0.1c-0.5-0.3-0.7-0.9-0.4-1.4s0.9-0.7,1.4-0.4c0,0,0,0,0.1,0l0.1,0.1
		c0.5,0.3,0.6,0.9,0.4,1.4C34.9,39.2,34.6,39.3,34.2,39.3z"/>
	<polygon class="st2" points="38,45.8 55.7,56 55.7,50.7 38,40.5 	"/>
	<path class="st2" d="M55.7,56.5c-0.1,0-0.2,0-0.2-0.1L37.8,46.3c-0.2-0.1-0.2-0.3-0.2-0.4v-5.3c0-0.3,0.2-0.5,0.5-0.5
		c0.1,0,0.2,0,0.2,0.1L56,50.4c0.2,0.1,0.2,0.3,0.2,0.4V56C56.2,56.3,56,56.5,55.7,56.5z M38.5,45.5l16.7,9.6V51l-16.7-9.6V45.5z"/>
	<path class="st2" d="M64,61.8c-0.2,0-0.3,0-0.5-0.1L29.2,41.9c-0.3-0.2-0.5-0.5-0.5-0.9V27.6c0-0.6,0.4-1,1-1c0.2,0,0.3,0,0.5,0.1
		l34.3,19.8c0.3,0.2,0.5,0.5,0.5,0.9v13.4C65,61.4,64.6,61.8,64,61.8z M30.7,40.5L63,59.1V48L30.7,29.3V40.5z"/>
	<polygon class="st5" points="98.3,41 64,60.8 64,47.4 98.3,27.6 	"/>
	<path class="st2" d="M64,61.8c-0.6,0-1-0.4-1-1V47.4c0-0.4,0.2-0.7,0.5-0.9l34.3-19.8c0.5-0.3,1.1-0.1,1.4,0.4
		c0.1,0.2,0.1,0.3,0.1,0.5V41c0,0.4-0.2,0.7-0.5,0.9L64.5,61.7C64.3,61.8,64.2,61.8,64,61.8z M65,48v11.1l32.3-18.6V29.3L65,48z"/>
	<polygon class="st6" points="98.3,27.6 64,7.8 29.7,27.6 64,47.4 	"/>
	<path class="st2" d="M64,48.4c-0.2,0-0.3,0-0.5-0.1L29.2,28.5c-0.5-0.3-0.6-0.9-0.4-1.4c0.1-0.2,0.2-0.3,0.4-0.4L63.5,6.9
		c0.3-0.2,0.7-0.2,1,0l34.3,19.8c0.5,0.3,0.6,0.9,0.4,1.4c-0.1,0.2-0.2,0.3-0.4,0.4L64.5,48.3C64.3,48.4,64.2,48.4,64,48.4z
		 M31.7,27.6L64,46.2l32.3-18.6L64,8.9L31.7,27.6z"/>
	<path class="st2" d="M64,33.4c-0.6,0-1-0.4-1-1v-9.2c0-0.6,0.4-1,1-1s1,0.4,1,1v9.2C65,32.9,64.6,33.4,64,33.4z"/>
	<path class="st2" d="M72,28.7H56c-0.6,0-1-0.4-1-1s0.4-1,1-1h16c0.6,0,1,0.4,1,1S72.6,28.7,72,28.7z"/>
	<path class="st2" d="M64,37.5c-9.3,0-16.5-4.4-16.5-9.9s7.2-9.9,16.5-9.9s16.5,4.4,16.5,9.9S73.3,37.5,64,37.5z M64,19.6
		c-7.9,0-14.5,3.6-14.5,7.9s6.6,7.9,14.5,7.9s14.5-3.6,14.5-7.9S71.9,19.6,64,19.6L64,19.6z"/>
	<path class="st7" d="M64,61.8c-0.2,0-0.3,0-0.5-0.1L29.2,41.9c-0.3-0.2-0.5-0.5-0.5-0.9V27.6c0-0.4,0.2-0.7,0.5-0.9L63.5,6.9
		c0.3-0.2,0.7-0.2,1,0l34.3,19.8c0.3,0.2,0.5,0.5,0.5,0.9V41c0,0.4-0.2,0.7-0.5,0.9L64.5,61.7C64.3,61.8,64.2,61.8,64,61.8z
		 M30.7,40.5L64,59.7l33.3-19.2V28.2L64,8.9L30.7,28.2V40.5z"/>
	<rect x="1" y="1" class="st0" width="126" height="126"/>
	<rect x="1" y="1" class="st0" width="126" height="126"/>
	<rect x="1" y="1" class="st0" width="126" height="126"/>
	<rect class="st0" width="128" height="128"/>
</g>
</svg>
