<?xml version="1.0" encoding="utf-8"?>
<!-- Generator: Adobe Illustrator 24.1.0, SVG Export Plug-In . SVG Version: 6.00 Build 0)  -->
<svg version="1.1" id="Layer_1" xmlns="http://www.w3.org/2000/svg" xmlns:xlink="http://www.w3.org/1999/xlink" x="0px" y="0px"
	 viewBox="0 0 128 128" style="enable-background:new 0 0 128 128;" xml:space="preserve">
<style type="text/css">
	.st0{fill:none;}
	.st1{fill:#27ae60;}
	.st2{fill:#C4D7D3;}
	.st3{fill:#E9EBDF;}
	.st4{fill:#4D9987;}
	.st5{fill:#FFFFFF;}
	.st6{fill:#0E352C;}
	.st7{fill:#185849;}
</style>
<g>
	<rect x="1" y="1" class="st0" width="126" height="126"/>
	<path class="st1" d="M19.4,106.1c-0.3-0.5-0.1-1.1,0.4-1.4l0,0l0,0c0.5-0.3,1.1-0.1,1.4,0.4l0,0c0.3,0.5,0.1,1.1-0.4,1.4l0,0l0,0
		c-0.1,0.1-0.3,0.1-0.5,0.1l0,0C19.9,106.6,19.6,106.4,19.4,106.1z M24.6,103.1c-0.3-0.5-0.1-1.1,0.4-1.4l0,0l0,0
		c0.5-0.3,1.1-0.1,1.4,0.4l0,0c0.3,0.5,0.1,1.1-0.4,1.4l0,0c-0.1,0.1-0.3,0.1-0.5,0.1l0,0C25.1,103.6,24.8,103.4,24.6,103.1z
		 M29.8,100.1c-0.3-0.5-0.1-1.1,0.4-1.4l0,0c0.5-0.3,1.1-0.1,1.4,0.4l0,0c0.3,0.5,0.1,1.1-0.3,1.4l0,0l0,0c-0.1,0.1-0.3,0.1-0.5,0.1
		l0,0C30.3,100.6,30,100.4,29.8,100.1z M35,97.1c-0.3-0.5-0.1-1.1,0.4-1.4l0,0c0.5-0.3,1.1-0.1,1.4,0.4l0,0c0.3,0.5,0.1,1.1-0.4,1.4
		l0,0l0,0c-0.2,0.1-0.3,0.1-0.5,0.1l0,0C35.5,97.6,35.2,97.4,35,97.1L35,97.1z M40.2,94.1c-0.3-0.5-0.1-1.1,0.4-1.4l0,0
		c0.5-0.3,1.1-0.1,1.4,0.4l0,0c0.3,0.5,0.1,1.1-0.4,1.4l0,0c-0.1,0.1-0.3,0.1-0.5,0.1l0,0C40.7,94.6,40.4,94.4,40.2,94.1L40.2,94.1z
		 M45.4,91.1c-0.3-0.5-0.1-1.1,0.4-1.4l0,0c0.5-0.3,1.1-0.1,1.4,0.4l0,0c0.3,0.5,0.1,1.1-0.4,1.4l0,0l0,0c-0.2,0.1-0.3,0.1-0.5,0.1
		l0,0C45.9,91.6,45.6,91.4,45.4,91.1L45.4,91.1z"/>
	<path class="st2" d="M14.2,117.2c-0.2,0-0.3,0-0.5-0.1l-12.2-7c-0.5-0.3-0.6-0.9-0.4-1.4c0.1-0.2,0.2-0.3,0.4-0.4l12.2-7
		c0.3-0.2,0.7-0.2,1,0l12.2,7c0.5,0.3,0.6,0.9,0.4,1.4c-0.1,0.2-0.2,0.3-0.4,0.4l-12.2,7C14.5,117.1,14.4,117.2,14.2,117.2z
		 M4,109.1l10.2,5.9l10.2-5.9l-10.2-5.9L4,109.1z"/>
	<polygon class="st3" points="126,58.9 102.1,72.7 90.1,79.6 78.2,86.5 66.2,93.4 66.2,84.3 66.2,75.1 66.2,66 66.2,56.9 78.2,50 
		90.1,43.1 114,29.3 126,22.4 126,31.5 126,40.6 126,49.8 	"/>
	<path class="st4" d="M66.2,94.4c-0.6,0-1-0.4-1-1V56.9c0-0.4,0.2-0.7,0.5-0.9l59.8-34.5c0.5-0.3,1.1-0.1,1.4,0.4
		c0.1,0.2,0.1,0.3,0.1,0.5v36.4c0,0.4-0.2,0.7-0.5,0.9L66.7,94.2C66.6,94.3,66.4,94.4,66.2,94.4z M67.2,57.5v34.1L125,58.3V24.2
		L67.2,57.5z"/>
	<polygon class="st5" points="38.9,41.1 66.2,56.9 126,22.4 98.7,6.6 	"/>
	<path class="st4" d="M66.2,57.9c-0.2,0-0.3,0-0.5-0.1L38.4,42c-0.5-0.3-0.6-0.9-0.4-1.4c0.1-0.2,0.2-0.3,0.4-0.4L98.2,5.8
		c0.3-0.2,0.7-0.2,1,0l27.3,15.8c0.5,0.3,0.6,0.9,0.4,1.4c-0.1,0.2-0.2,0.3-0.4,0.4L66.7,57.8C66.6,57.9,66.4,57.9,66.2,57.9z
		 M40.9,41.1l25.3,14.6L124,22.4L98.7,7.8L40.9,41.1z"/>
	<path class="st4" d="M78.2,82c-0.6,0-1-0.4-1-1V55.5c0-0.6,0.4-1,1-1s1,0.4,1,1V81C79.2,81.6,78.8,82,78.2,82z"/>
	<polygon class="st3" points="38.9,77.6 66.2,93.4 66.2,56.9 38.9,41.1 	"/>
	<path class="st4" d="M66.2,94.4c-0.2,0-0.3,0-0.5-0.1L38.4,78.4c-0.3-0.2-0.5-0.5-0.5-0.9V41.1c0-0.6,0.4-1,1-1
		c0.2,0,0.3,0,0.5,0.1L66.7,56c0.3,0.2,0.5,0.5,0.5,0.9v36.4C67.2,93.9,66.8,94.4,66.2,94.4z M39.9,77l25.3,14.6V57.5L39.9,42.9V77z
		"/>
	<polygon class="st3" points="43.2,75.1 43.2,48.6 61.9,59.4 61.9,85.9 	"/>
	<path class="st6" d="M61.9,86.9c-0.2,0-0.3,0-0.5-0.1L42.7,75.9c-0.3-0.2-0.5-0.5-0.5-0.9V48.6c0-0.6,0.4-1,1-1
		c0.2,0,0.3,0,0.5,0.1l18.7,10.8c0.3,0.2,0.5,0.5,0.5,0.9v26.4C62.9,86.4,62.5,86.9,61.9,86.9z M44.2,74.5l16.7,9.6V60l-16.7-9.6
		V74.5z"/>
	<polygon class="st4" points="61.9,59.4 43.2,48.6 43.2,75.1 61.9,64.3 	"/>
	<path class="st6" d="M43.2,76.1c-0.6,0-1-0.4-1-1V48.6c0-0.6,0.4-1,1-1c0.2,0,0.3,0,0.5,0.1l18.7,10.8c0.3,0.2,0.5,0.5,0.5,0.9v4.8
		c0,0.4-0.2,0.7-0.5,0.9L43.7,75.9C43.6,76,43.4,76.1,43.2,76.1z M44.2,50.4v23l16.7-9.6V60L44.2,50.4z"/>
	<path class="st4" d="M97.3,34.5c-0.2,0-0.3,0-0.5-0.1L79,24.1c-0.5-0.3-0.6-0.9-0.4-1.4c0.3-0.5,0.9-0.6,1.4-0.4l17.8,10.3
		c0.5,0.3,0.6,0.9,0.4,1.4C98,34.3,97.7,34.5,97.3,34.5L97.3,34.5z"/>
	<path class="st4" d="M85.4,41.4c-0.2,0-0.3,0-0.5-0.1L67.1,31c-0.5-0.3-0.6-0.9-0.4-1.4s0.9-0.6,1.4-0.4l0,0l17.8,10.3
		c0.5,0.3,0.6,0.9,0.4,1.4C86.1,41.2,85.7,41.4,85.4,41.4L85.4,41.4z"/>
	<path class="st4" d="M73.4,48.3c-0.2,0-0.3,0-0.5-0.1L55.1,37.9c-0.5-0.3-0.6-0.9-0.4-1.4c0.3-0.5,0.9-0.6,1.4-0.4l0,0l17.8,10.3
		c0.5,0.3,0.6,0.9,0.4,1.4C74.1,48.1,73.8,48.3,73.4,48.3L73.4,48.3z"/>
	<polygon class="st3" points="34.5,43.7 20.9,35.8 20.9,72.2 34.5,80.1 	"/>
	<path class="st4" d="M34.5,81.1c-0.2,0-0.3,0-0.5-0.1l-13.7-7.9c-0.3-0.2-0.5-0.5-0.5-0.9V35.8c0-0.6,0.4-1,1-1
		c0.2,0,0.3,0,0.5,0.1L35,42.8c0.3,0.2,0.5,0.5,0.5,0.9v36.4C35.5,80.7,35.1,81.1,34.5,81.1z M21.9,71.6l11.7,6.7V44.2l-11.7-6.7
		C21.9,37.5,21.9,71.6,21.9,71.6z"/>
	<polygon class="st3" points="38.9,77.6 34.5,80.1 34.5,43.7 38.9,41.1 	"/>
	<path class="st4" d="M34.5,81.1c-0.6,0-1-0.4-1-1V43.7c0-0.4,0.2-0.7,0.5-0.9l4.4-2.5c0.5-0.3,1.1-0.1,1.4,0.4
		c0.1,0.2,0.1,0.3,0.1,0.5v36.4c0,0.4-0.2,0.7-0.5,0.9L35,81C34.9,81.1,34.7,81.1,34.5,81.1z M35.5,44.2v34.1l2.4-1.4v-34L35.5,44.2
		z"/>
	<polygon class="st5" points="25.2,33.2 20.9,35.8 34.5,43.7 38.9,41.1 	"/>
	<path class="st4" d="M34.5,44.7c-0.2,0-0.3,0-0.5-0.1l-13.7-7.9c-0.5-0.3-0.6-0.9-0.4-1.4c0.1-0.2,0.2-0.3,0.4-0.4l4.4-2.5
		c0.3-0.2,0.7-0.2,1,0l13.7,7.9c0.5,0.3,0.6,0.9,0.4,1.4c-0.1,0.2-0.2,0.3-0.4,0.4L35,44.5C34.9,44.6,34.7,44.7,34.5,44.7z
		 M22.9,35.8l11.7,6.7l2.4-1.4l-11.7-6.7L22.9,35.8z"/>
	<path class="st4" d="M34.5,81.1c-0.6,0-1-0.4-1-1V43.7c0-0.4,0.2-0.7,0.5-0.9l4.4-2.5c0.5-0.3,1.1-0.1,1.4,0.4
		c0.1,0.2,0.1,0.3,0.1,0.5v36.4c0,0.4-0.2,0.7-0.5,0.9L35,81C34.9,81.1,34.7,81.1,34.5,81.1z M35.5,44.2v34.1l2.4-1.4v-34L35.5,44.2
		z"/>
	<path class="st6" d="M34.5,81.1c-0.2,0-0.3,0-0.5-0.1l-13.7-7.9c-0.3-0.2-0.5-0.5-0.5-0.9V35.8c0-0.4,0.2-0.7,0.5-0.9l4.4-2.5
		c0.3-0.2,0.7-0.2,1,0l13.7,7.9c0.3,0.2,0.5,0.5,0.5,0.9v36.4c0,0.4-0.2,0.7-0.5,0.9L35,81C34.9,81.1,34.7,81.1,34.5,81.1z
		 M21.9,71.6L34.5,79l3.4-2V41.7l-12.7-7.3l-3.4,2L21.9,71.6L21.9,71.6z"/>
	<path class="st4" d="M29.4,48.4c-0.2,0-0.3,0-0.5-0.1l-3.4-1.9c-0.5-0.3-0.6-0.9-0.4-1.4c0.3-0.5,0.9-0.6,1.4-0.4l3.4,1.9
		c0.5,0.3,0.6,0.9,0.4,1.4C30.1,48.2,29.7,48.4,29.4,48.4z"/>
	<path class="st4" d="M90.1,75.1c-0.6,0-1-0.4-1-1V48.6c0-0.6,0.4-1,1-1s1,0.4,1,1v25.5C91.1,74.7,90.7,75.1,90.1,75.1z"/>
	<path class="st6" d="M102.1,68.2c-0.6,0-1-0.4-1-1V41.7c0-0.6,0.4-1,1-1s1,0.4,1,1v25.5C103.1,67.8,102.7,68.2,102.1,68.2z"/>
	<path class="st4" d="M102.1,68.2c-0.6,0-1-0.4-1-1V41.7c0-0.6,0.4-1,1-1s1,0.4,1,1v25.5C103.1,67.8,102.7,68.2,102.1,68.2z"/>
	<path class="st4" d="M109.3,27.6c-0.2,0-0.3,0-0.5-0.1L91,17.2c-0.5-0.3-0.6-0.9-0.4-1.4c0.3-0.5,0.9-0.6,1.4-0.4l17.8,10.3
		c0.5,0.3,0.6,0.9,0.4,1.4C110,27.4,109.6,27.6,109.3,27.6L109.3,27.6z"/>
	<path class="st4" d="M97.3,34.5c-0.2,0-0.3,0-0.5-0.1L79,24.1c-0.5-0.3-0.6-0.9-0.4-1.4c0.3-0.5,0.9-0.6,1.4-0.4l17.8,10.3
		c0.5,0.3,0.6,0.9,0.4,1.4C98,34.3,97.7,34.5,97.3,34.5L97.3,34.5z"/>
	<path class="st4" d="M114,61.3c-0.6,0-1-0.4-1-1V34.8c0-0.6,0.4-1,1-1s1,0.4,1,1v25.5C115,60.9,114.6,61.3,114,61.3z"/>
	<path class="st6" d="M66.2,94.4c-0.2,0-0.3,0-0.5-0.1L38.4,78.4c-0.3-0.2-0.5-0.5-0.5-0.9V41.1c0-0.4,0.2-0.7,0.5-0.9L98.2,5.8
		c0.3-0.2,0.7-0.2,1,0l27.3,15.8c0.3,0.2,0.5,0.5,0.5,0.9v36.4c0,0.4-0.2,0.7-0.5,0.9L66.7,94.2C66.6,94.3,66.4,94.4,66.2,94.4z
		 M39.9,77l26.3,15.2L125,58.3V23L98.7,7.8L39.9,41.7V77z"/>
	<polygon class="st3" points="75.5,67.3 61.9,59.5 61.9,95.9 75.5,103.8 	"/>
	<path class="st4" d="M75.5,104.8c-0.2,0-0.3,0-0.5-0.1l-13.7-7.9c-0.3-0.2-0.5-0.5-0.5-0.9V59.5c0-0.6,0.4-1,1-1
		c0.2,0,0.3,0,0.5,0.1L76,66.5c0.3,0.2,0.5,0.5,0.5,0.9v36.4C76.5,104.3,76.1,104.8,75.5,104.8z M62.9,95.3l11.7,6.7V67.9l-11.7-6.7
		C62.9,61.2,62.9,95.3,62.9,95.3z"/>
	<polygon class="st5" points="66.2,56.9 61.9,59.5 75.5,67.3 79.9,64.8 	"/>
	<path class="st4" d="M75.5,68.3c-0.2,0-0.3,0-0.5-0.1l-13.7-7.9C60.9,60,60.7,59.4,61,59c0.1-0.2,0.2-0.3,0.4-0.4l4.4-2.5
		c0.3-0.2,0.7-0.2,1,0L80.5,64c0.5,0.3,0.6,0.9,0.4,1.4c-0.1,0.2-0.2,0.3-0.4,0.4L76,68.2C75.9,68.3,75.7,68.3,75.5,68.3z
		 M63.9,59.5l11.7,6.7l2.4-1.4l-11.7-6.7L63.9,59.5z"/>
	<polygon class="st3" points="79.9,101.3 75.5,103.8 75.5,67.3 79.9,64.8 	"/>
	<path class="st4" d="M75.5,104.8c-0.6,0-1-0.4-1-1V67.3c0-0.4,0.2-0.7,0.5-0.9l4.4-2.5c0.5-0.3,1.1-0.1,1.4,0.4
		c0.1,0.2,0.1,0.3,0.1,0.5v36.4c0,0.4-0.2,0.7-0.5,0.9l-4.4,2.5C75.9,104.7,75.7,104.8,75.5,104.8z M76.5,67.9V102l2.4-1.4V66.5
		L76.5,67.9z"/>
	<path class="st4" d="M75.5,104.8c-0.6,0-1-0.4-1-1V67.3c0-0.4,0.2-0.7,0.5-0.9l4.4-2.5c0.5-0.3,1.1-0.1,1.4,0.4
		c0.1,0.2,0.1,0.3,0.1,0.5v36.4c0,0.4-0.2,0.7-0.5,0.9l-4.4,2.5C75.9,104.7,75.7,104.8,75.5,104.8z M76.5,67.9V102l2.4-1.4V66.5
		L76.5,67.9z"/>
	<path class="st4" d="M70.4,72.1c-0.2,0-0.3,0-0.5-0.1l-3.4-2c-0.5-0.3-0.6-0.9-0.4-1.4c0.3-0.5,0.9-0.6,1.4-0.4l0,0l3.4,1.9
		c0.5,0.3,0.6,0.9,0.4,1.4C71.1,71.9,70.7,72.1,70.4,72.1z"/>
	<path class="st6" d="M75.5,104.8c-0.2,0-0.3,0-0.5-0.1l-13.7-7.9c-0.3-0.2-0.5-0.5-0.5-0.9V59.5c0-0.4,0.2-0.7,0.5-0.9l4.4-2.5
		c0.3-0.2,0.7-0.2,1,0L80.4,64c0.3,0.2,0.5,0.5,0.5,0.9v36.4c0,0.4-0.2,0.7-0.5,0.9l-4.4,2.5C75.9,104.7,75.7,104.8,75.5,104.8z
		 M62.9,95.3l12.7,7.3l3.4-2V65.4l-12.7-7.3l-3.4,2V95.3z"/>
	<polygon class="st5" points="14.2,62.2 2,69.3 2,85.5 14.2,78.5 26.4,85.5 26.4,69.3 	"/>
	<path class="st1" d="M26.4,86.5c-0.2,0-0.3,0-0.5-0.1l-11.7-6.7L2.5,86.4C2,86.7,1.4,86.5,1.1,86C1,85.9,1,85.7,1,85.5V69.3
		c0-0.4,0.2-0.7,0.5-0.9l12.2-7c0.3-0.2,0.7-0.2,1,0l12.2,7c0.3,0.2,0.5,0.5,0.5,0.9v16.3C27.4,86.1,26.9,86.5,26.4,86.5z
		 M14.2,77.5c0.2,0,0.3,0,0.5,0.1l10.7,6.2V69.9l-11.2-6.5L3,69.9v13.9l10.7-6.2C13.8,77.5,14,77.5,14.2,77.5z"/>
	<polygon class="st2" points="26.4,85.5 14.2,92.6 14.2,76.3 26.4,69.3 	"/>
	<path class="st1" d="M14.2,93.6c-0.6,0-1-0.4-1-1V76.3c0-0.4,0.2-0.7,0.5-0.9l12.2-7c0.5-0.3,1.1-0.1,1.4,0.4
		c0.1,0.2,0.1,0.3,0.1,0.5v16.3c0,0.4-0.2,0.7-0.5,0.9l-12.2,7C14.5,93.5,14.4,93.6,14.2,93.6z M15.2,76.9v13.9L25.4,85V71
		L15.2,76.9z"/>
	<polygon class="st5" points="2,85.5 14.2,92.6 14.2,76.3 2,69.3 	"/>
	<path class="st1" d="M14.2,93.6c-0.2,0-0.3,0-0.5-0.1l-12.2-7c-0.3-0.3-0.5-0.6-0.5-1V69.3c0-0.6,0.4-1,1-1c0.2,0,0.3,0,0.5,0.1
		l12.2,7c0.3,0.2,0.5,0.5,0.5,0.9v16.3C15.2,93.1,14.7,93.6,14.2,93.6z M3,85l10.2,5.9v-14L3,71V85z"/>
	<path class="st7" d="M26.4,54c-0.6,0-1-0.4-1-1c0-0.1,0-0.3,0.1-0.4c0-0.1,0.1-0.2,0.2-0.3c0.4-0.4,1-0.4,1.4,0
		c0.1,0.1,0.2,0.2,0.2,0.3c0.2,0.4,0.1,0.8-0.2,1.1C26.9,53.9,26.6,54,26.4,54z"/>
	<path class="st7" d="M25.4,63.9c0-0.6,0.4-1,1-1l0,0c0.6,0,1,0.4,1,1l0,0c0,0.6-0.4,1-1,1l0,0C25.8,64.9,25.4,64.4,25.4,63.9z
		 M25.4,58.5c0-0.6,0.4-1,1-1l0,0c0.6,0,1,0.4,1,1l0,0c0,0.6-0.4,1-1,1l0,0C25.8,59.5,25.4,59,25.4,58.5z"/>
	<path class="st7" d="M26.4,70.3c-0.6,0-1-0.5-1-1c0-0.3,0.1-0.5,0.3-0.7c0.4-0.4,1-0.4,1.4,0s0.4,1,0,1.4
		C26.9,70.2,26.6,70.3,26.4,70.3z"/>
	<path class="st7" d="M2,54c-0.3,0-0.5-0.1-0.7-0.3c0,0-0.1-0.1-0.1-0.2c0-0.1-0.1-0.1-0.1-0.2c0-0.1,0-0.1-0.1-0.2
		C1,53,1,53,1,52.9c0-0.1,0-0.3,0.1-0.4c0-0.1,0.1-0.2,0.2-0.3C1.6,52,2,52,2.4,52.1c0.1,0.1,0.2,0.1,0.3,0.2
		c0.1,0.1,0.2,0.2,0.2,0.3C3,52.8,3,52.9,3,53s0,0.1,0,0.2c0,0.1,0,0.1-0.1,0.2c0,0.1-0.1,0.1-0.1,0.2c0,0.1-0.1,0.1-0.1,0.2
		C2.5,53.9,2.3,54,2,54z"/>
	<path class="st7" d="M1,63.9c0-0.6,0.4-1,1-1l0,0c0.6,0,1,0.4,1,1l0,0c0,0.6-0.4,1-1,1l0,0C1.4,64.9,1,64.4,1,63.9z M1,58.5
		c0-0.6,0.4-1,1-1l0,0c0.6,0,1,0.4,1,1l0,0c0,0.6-0.4,1-1,1l0,0C1.4,59.5,1,59,1,58.5z"/>
	<path class="st7" d="M2,70.3c-0.3,0-0.5-0.1-0.7-0.3c-0.1-0.1-0.2-0.2-0.2-0.3C1,69.5,1,69.4,1,69.3c0-0.6,0.4-1,1-1
		c0.1,0,0.3,0,0.4,0.1c0.1,0.1,0.2,0.1,0.3,0.2C2.9,68.8,3,69,3,69.3c0,0.1,0,0.3-0.1,0.4c0,0.1-0.1,0.2-0.2,0.3
		c-0.1,0.1-0.2,0.2-0.3,0.2C2.3,70.2,2.1,70.3,2,70.3z"/>
	<path class="st7" d="M14.2,93.6c-0.2,0-0.3,0-0.5-0.1l-12.2-7c-0.3-0.3-0.5-0.6-0.5-1V69.3c0-0.4,0.2-0.7,0.5-0.9l12.2-7
		c0.3-0.2,0.7-0.2,1,0l12.2,7c0.3,0.2,0.5,0.5,0.5,0.9v16.3c0,0.4-0.2,0.7-0.5,0.9l-12.2,7C14.5,93.5,14.4,93.6,14.2,93.6z M3,85
		l11.2,6.5L25.4,85V69.9l-11.2-6.5L3,69.9V85z"/>
	<rect class="st0" width="128" height="128"/>
</g>
</svg>
