<?xml version="1.0" encoding="utf-8"?>
<!-- Generator: Adobe Illustrator 24.1.0, SVG Export Plug-In . SVG Version: 6.00 Build 0)  -->
<svg version="1.1" id="Layer_1" xmlns="http://www.w3.org/2000/svg" xmlns:xlink="http://www.w3.org/1999/xlink" x="0px" y="0px"
	 viewBox="0 0 128 128" style="enable-background:new 0 0 128 128;" xml:space="preserve">
<style type="text/css">
	.st0{fill:none;}
	.st1{fill:#FFFFFF;}
	.st2{fill:#4D9987;}
	.st3{fill:#E9EBDF;}
	.st4{fill:#0E352C;}
	.st5{fill:#185849;}
	.st6{fill:#C4D7D3;}
	.st7{fill:#27ae60;}
</style>
<g>
	<rect x="1" y="1" class="st0" width="126" height="126"/>
	<polygon class="st1" points="64,102.4 94.4,84.8 64,67.3 	"/>
	<path class="st2" d="M64,103.4c-0.6,0-1-0.4-1-1V67.3c0-0.6,0.4-1,1-1c0.2,0,0.3,0,0.5,0.1L94.9,84c0.5,0.3,0.6,0.9,0.4,1.4
		c-0.1,0.2-0.2,0.3-0.4,0.4l-30.4,17.5C64.3,103.3,64.2,103.4,64,103.4z M65,69v31.6l27.4-15.8L65,69z"/>
	<polygon class="st3" points="64,67.3 74.6,96.2 64,102.4 	"/>
	<polygon class="st3" points="64,102.4 33.6,84.8 64,67.3 	"/>
	<path class="st2" d="M64,103.4c-0.2,0-0.3,0-0.5-0.1L33.1,85.7c-0.5-0.3-0.6-0.9-0.4-1.4c0.1-0.2,0.2-0.3,0.4-0.4l30.4-17.6
		c0.5-0.3,1.1-0.1,1.4,0.4C65,66.9,65,67,65,67.2v35.1C65,102.9,64.6,103.4,64,103.4L64,103.4z M35.6,84.8L63,100.6V69L35.6,84.8z"
		/>
	<polygon class="st3" points="45.1,94.5 52.6,97.5 40.1,104.7 39.7,94.5 	"/>
	<path class="st2" d="M40.1,105.7c-0.5,0-1-0.4-1-1l-0.3-10.2c0-0.6,0.4-1,1-1l0,0h5.4c0.1,0,0.2,0,0.4,0.1l7.5,2.9
		c0.5,0.2,0.8,0.8,0.6,1.3c-0.1,0.2-0.2,0.4-0.4,0.5l-12.6,7.3C40.4,105.7,40.2,105.7,40.1,105.7z M40.8,95.5L41,103l9.3-5.4
		L45,95.5H40.8z"/>
	<polygon class="st3" points="64,90.9 33.6,108.5 64,126 94.4,108.5 	"/>
	<path class="st2" d="M64,127c-0.2,0-0.3,0-0.5-0.1l-30.4-17.5c-0.5-0.3-0.6-0.9-0.4-1.4c0.1-0.2,0.2-0.3,0.4-0.4L63.5,90
		c0.3-0.2,0.7-0.2,1,0l30.4,17.5c0.5,0.3,0.6,0.9,0.4,1.4c-0.1,0.2-0.2,0.3-0.4,0.4l-30.4,17.5C64.3,127,64.2,127,64,127z
		 M35.6,108.5L64,124.8l28.4-16.4L64,92.1L35.6,108.5z"/>
	<polygon class="st3" points="94.4,108.5 64,126 64,102.4 94.4,84.8 	"/>
	<path class="st2" d="M64,127c-0.6,0-1-0.4-1-1v-23.6c0-0.4,0.2-0.7,0.5-0.9L93.9,84c0.5-0.3,1.1-0.1,1.4,0.4
		c0.1,0.2,0.1,0.3,0.1,0.5v23.6c0,0.4-0.2,0.7-0.5,0.9l-30.4,17.5C64.3,127,64.2,127,64,127z M65,102.9v21.3l28.4-16.4V86.5
		L65,102.9z"/>
	<path class="st1" d="M33.6,84.8v23.6L64,126v-23.6L33.6,84.8z"/>
	<path class="st2" d="M64,127c-0.2,0-0.3,0-0.5-0.1l-30.4-17.5c-0.3-0.2-0.5-0.5-0.5-0.9V84.8c0-0.6,0.4-1,1-1c0.2,0,0.3,0,0.5,0.1
		l30.4,17.5c0.3,0.2,0.5,0.5,0.5,0.9V126C65,126.6,64.6,127,64,127z M34.6,107.9L63,124.3V103L34.6,86.5V107.9z"/>
	<polygon class="st1" points="94.4,84.8 108.7,86.1 78.3,103.7 64,102.4 	"/>
	<path class="st4" d="M78.3,104.7C78.2,104.7,78.2,104.7,78.3,104.7l-14.4-1.3c-0.6,0-1-0.5-0.9-1.1c0-0.3,0.2-0.6,0.5-0.8L93.9,84
		c0.2-0.1,0.4-0.1,0.6-0.1l14.3,1.3c0.5,0.1,1,0.5,0.9,1.1c0,0.3-0.2,0.6-0.5,0.8l-30.4,17.5C78.6,104.6,78.5,104.7,78.3,104.7z
		 M67.2,101.7l10.8,1l27.4-15.8l-10.8-1L67.2,101.7z"/>
	<polygon class="st1" points="64,67.3 49.7,52.1 19.3,69.6 33.6,84.8 	"/>
	<path class="st2" d="M33.6,85.8c-0.3,0-0.5-0.1-0.7-0.3L18.6,70.3c-0.4-0.4-0.4-1,0-1.4c0.1-0.1,0.1-0.1,0.2-0.1l30.4-17.5
		c0.4-0.2,0.9-0.2,1.2,0.2l14.3,15.2c0.4,0.4,0.4,1,0,1.4c-0.1,0.1-0.1,0.1-0.2,0.1L34.1,85.7C33.9,85.8,33.8,85.8,33.6,85.8z
		 M20.9,69.9l12.9,13.7L62.4,67L49.5,53.4L20.9,69.9z"/>
	<path class="st3" d="M53.9,106.8c0,1.1-0.7,1.6-1.5,1.1l-7.2-4.2c-0.9-0.7-1.5-1.7-1.5-2.8v-1.1c0-1.1,0.7-1.6,1.5-1.1l7.2,4.2
		c0.9,0.7,1.5,1.7,1.5,2.8V106.8z"/>
	<path class="st2" d="M53,109.1c-0.4,0-0.8-0.1-1.1-0.3l-7.2-4.2c-1.2-0.8-2-2.2-2-3.7v-1.1c-0.1-0.8,0.3-1.6,1-2.1
		c0.6-0.3,1.4-0.3,2,0.1l7.2,4.2c1.2,0.8,2,2.2,2,3.7v1.1c0.1,0.8-0.3,1.6-1,2.1C53.6,109,53.3,109.1,53,109.1z M44.8,99.6
		c0,0.1,0,0.1,0,0.2v1.1c0,0.8,0.4,1.5,1,1.9l7.1,4.1c0-0.1,0-0.1,0-0.2v-1.1c0-0.8-0.4-1.5-1-1.9L44.8,99.6z"/>
	<path class="st1" d="M84.3,89.2c0,1.1-0.7,1.6-1.5,1.1l-7.2-4.2c-0.9-0.7-1.5-1.7-1.5-2.8v-1.1c0-1.1,0.7-1.6,1.5-1.1l7.2,4.2
		c0.9,0.7,1.5,1.7,1.5,2.8V89.2z"/>
	<path class="st2" d="M83.4,91.5c-0.4,0-0.8-0.1-1.1-0.3L75.1,87c-1.2-0.8-2-2.2-2-3.7v-1.1c-0.1-0.8,0.3-1.6,1-2.1
		c0.6-0.3,1.4-0.3,2,0.1l7.2,4.2c1.2,0.8,2,2.2,2,3.7v1.1c0.1,0.8-0.3,1.6-1,2.1C84,91.4,83.7,91.5,83.4,91.5z M75.1,82.1
		c0,0.1,0,0.1,0,0.2v1.1c0,0.8,0.4,1.5,1,1.9l7.1,4.1c0-0.1,0-0.1,0-0.2v-1.1c0-0.8-0.4-1.5-1-1.9L75.1,82.1z"/>
	<path class="st4" d="M64,127c-0.2,0-0.3,0-0.5-0.1l-30.4-17.5c-0.3-0.2-0.5-0.5-0.5-0.9V85.2l-14-14.9c-0.4-0.4-0.4-1,0-1.4
		c0.1-0.1,0.1-0.1,0.2-0.1l30.4-17.5c0.4-0.2,0.9-0.2,1.2,0.2l14.2,15.1L94.7,84l14.1,1.3c0.5,0.1,1,0.5,0.9,1.1
		c0,0.3-0.2,0.6-0.5,0.8l-13.8,8v13.5c0,0.4-0.2,0.7-0.5,0.9l-30.4,17.5C64.3,127,64.2,127,64,127z M34.6,107.9l29.4,17l29.4-17
		V94.4c0-0.4,0.2-0.7,0.5-0.9l11.6-6.7l-11.2-1c-0.1,0-0.3-0.1-0.4-0.1L63.5,68.1c-0.1,0-0.2-0.1-0.2-0.2L49.5,53.4L20.9,69.9
		l13.4,14.3c0.2,0.2,0.3,0.4,0.3,0.7V107.9z"/>
	<path class="st4" d="M64,103.4c-0.6,0-1-0.4-1-1c0-0.4,0.2-0.7,0.5-0.9L93.9,84c0.5-0.3,1.1-0.1,1.4,0.4s0.1,1.1-0.4,1.4
		l-30.4,17.5C64.3,103.3,64.2,103.4,64,103.4z"/>
	<path class="st4" d="M64,103.4c-0.2,0-0.3,0-0.5-0.1L33.1,85.7c-0.5-0.3-0.6-0.9-0.4-1.4s0.9-0.6,1.4-0.4l30.4,17.5
		c0.5,0.3,0.6,0.9,0.4,1.4C64.7,103.2,64.4,103.4,64,103.4z"/>
	<path class="st4" d="M33.6,85.8c-0.6,0-1-0.4-1-1c0-0.4,0.2-0.7,0.5-0.9l30.4-17.6c0.5-0.3,1.1-0.1,1.4,0.4s0.1,1.1-0.4,1.4
		L34.1,85.7C33.9,85.8,33.8,85.8,33.6,85.8z"/>
	<path class="st4" d="M64,127c-0.6,0-1-0.4-1-1v-23.6c0-0.6,0.4-1,1-1s1,0.4,1,1V126C65,126.6,64.6,127,64,127z"/>
	<path class="st5" d="M83,24.6c-0.1,0-0.1,0-0.2,0s-0.1,0-0.2-0.1c-0.1,0-0.1-0.1-0.2-0.1s-0.1-0.1-0.1-0.1c-0.4-0.4-0.4-1,0-1.4
		s1-0.4,1.4,0s0.4,1,0,1.4c0,0-0.1,0.1-0.2,0.1s-0.1,0.1-0.2,0.1s-0.1,0.1-0.2,0.1C83.1,24.6,83.1,24.6,83,24.6z"/>
	<path class="st5" d="M82,18.2c0-0.6,0.4-1,1-1l0,0c0.6,0,1,0.4,1,1l0,0c0,0.6-0.4,1-1,1l0,0C82.4,19.2,82,18.7,82,18.2z M82,12.8
		c0-0.6,0.4-1,1-1l0,0l0,0c0.6,0,1,0.4,1,1l0,0l0,0c0,0.5-0.4,1-1,1l0,0l0,0C82.5,13.8,82,13.3,82,12.8L82,12.8z M82,7.4
		c0-0.6,0.4-1,1-1l0,0c0.6,0,1,0.4,1,1l0,0c0,0.6-0.4,1-1,1l0,0C82.4,8.4,82,7.9,82,7.4L82,7.4z"/>
	<path class="st5" d="M83,3c-0.1,0-0.1,0-0.2,0s-0.1,0-0.2-0.1c-0.1,0-0.1-0.1-0.2-0.1l-0.1-0.1C82.1,2.5,82,2.3,82,2
		c0-0.1,0-0.1,0-0.2s0-0.1,0.1-0.2c0-0.1,0.1-0.1,0.1-0.2l0.1-0.2c0.4-0.4,1-0.4,1.4,0l0.1,0.2c0,0.1,0.1,0.1,0.1,0.2s0,0.1,0.1,0.2
		c0,0.1,0,0.1,0,0.2c0,0.3-0.1,0.5-0.3,0.7c-0.1,0-0.1,0.1-0.2,0.1s-0.1,0.1-0.2,0.1c0,0.1,0,0.1-0.1,0.1C83.1,3,83.1,3,83,3z"/>
	<path class="st5" d="M45,24.6c-0.3,0-0.5-0.1-0.7-0.3c-0.1-0.1-0.2-0.2-0.2-0.3C44,23.8,44,23.7,44,23.6c0-0.5,0.4-1,1-1
		c0.1,0,0.3,0,0.4,0.1c0.1,0.1,0.2,0.1,0.3,0.2c0.2,0.2,0.3,0.4,0.3,0.7c0,0.1,0,0.3-0.1,0.4c0,0.1-0.1,0.2-0.2,0.3
		c-0.1,0.1-0.2,0.2-0.3,0.2C45.3,24.5,45.1,24.6,45,24.6z"/>
	<path class="st5" d="M44,18.2c0-0.6,0.4-1,1-1l0,0c0.6,0,1,0.4,1,1l0,0c0,0.6-0.4,1-1,1l0,0C44.4,19.2,44,18.7,44,18.2z M44,12.8
		c0-0.6,0.4-1,1-1l0,0l0,0c0.6,0,1,0.4,1,1l0,0l0,0c0,0.5-0.4,1-1,1l0,0l0,0C44.5,13.8,44,13.3,44,12.8L44,12.8z M44,7.4
		c0-0.6,0.4-1,1-1l0,0c0.6,0,1,0.4,1,1l0,0c0,0.6-0.4,1-1,1l0,0C44.4,8.4,44,7.9,44,7.4L44,7.4z"/>
	<path class="st5" d="M45,3c-0.3,0-0.5-0.1-0.7-0.3c-0.1-0.1-0.2-0.2-0.2-0.3C44,2.3,44,2.1,44,2c0-0.1,0-0.3,0.1-0.4
		c0-0.1,0.1-0.2,0.2-0.3C44.6,1,45,0.9,45.4,1.1c0.1,0.1,0.2,0.1,0.3,0.2s0.2,0.2,0.2,0.3C46,1.7,46,1.9,46,2c0,0.3-0.1,0.5-0.3,0.7
		c-0.1,0.1-0.2,0.2-0.3,0.2C45.3,3,45.1,3,45,3z"/>
	<path class="st6" d="M77.7,31.3c-0.1-0.1-0.2-0.1-0.3-0.2c-7.4-4.3-19.5-4.3-26.9,0c-0.1,0.1-0.2,0.1-0.3,0.2H45v7.4
		c0,2.8,1.9,5.6,5.6,7.8c7.4,4.3,19.5,4.3,26.9,0c3.7-2.1,5.6-5,5.6-7.8v-7.4C83.1,31.3,77.7,31.3,77.7,31.3z"/>
	<path class="st6" d="M77.4,46.5c3.7-2.1,5.6-5,5.6-7.8v-7.4h-5.3c-0.1-0.1-0.2-0.1-0.3-0.2C73.3,29,68.7,27.9,64,28v21.7
		C68.7,49.8,73.3,48.7,77.4,46.5z"/>
	<path class="st0" d="M77.7,31.3c-0.1-0.1-0.2-0.1-0.3-0.2c-7.4-4.3-19.5-4.3-26.9,0c-0.1,0.1-0.2,0.1-0.3,0.2H45v7.4
		c0,2.8,1.9,5.6,5.6,7.8c7.4,4.3,19.5,4.3,26.9,0c3.7-2.1,5.6-5,5.6-7.8v-7.4C83.1,31.3,77.7,31.3,77.7,31.3z"/>
	<ellipse class="st1" cx="64" cy="31.3" rx="19" ry="11"/>
	<path class="st7" d="M64,43.3c-4.9,0.1-9.6-1-13.9-3.3c-3.9-2.3-6.1-5.3-6.1-8.6s2.2-6.4,6.1-8.6c7.7-4.4,20.2-4.4,27.9,0
		c3.8,2.2,6,5.2,6,8.5s-2.2,6.4-6.1,8.6C73.6,42.2,68.9,43.4,64,43.3z M64,21.4c-4.5-0.1-9,1-12.9,3.1c-3.3,1.9-5.1,4.3-5.1,6.9
		s1.8,5,5.1,6.9c7.1,4.1,18.7,4.1,25.9,0c3.3-1.9,5.1-4.3,5.1-6.9s-1.8-5-5.1-6.9l0,0C73,22.3,68.5,21.3,64,21.4z"/>
	<path class="st7" d="M70,33.8l1.6,0.9l-1.5,0.8l-1.6-0.9c-0.8,0.4-1.6,0.7-2.4,1c-0.8,0.2-1.6,0.4-2.4,0.5l-1-1.5
		c0.7-0.1,1.3-0.2,2-0.4c0.6-0.2,1.3-0.4,1.9-0.7l-2.5-1.4c-0.8,0.3-1.5,0.5-2.3,0.7C61.1,33,60.4,33,59.7,33
		c-0.7,0-1.4-0.3-2.1-0.6c-0.7-0.3-1.2-1-1.2-1.7c0.1-0.9,0.7-1.7,1.5-2.1l-1.6-0.9l1.5-0.8l1.6,0.9c1.2-0.6,2.5-1,3.9-1.2l1.1,1.5
		c-1,0.1-2,0.4-3,0.9l2.5,1.4c0.7-0.3,1.5-0.5,2.3-0.7c0.7-0.2,1.4-0.2,2.1-0.2s1.4,0.3,2,0.6c0.7,0.3,1.1,1,1.2,1.7
		C71.3,32.6,70.8,33.4,70,33.8z M60.8,31.2c0.4,0,0.8-0.1,1.2-0.2l-2-1.3c-0.2,0.2-0.4,0.4-0.4,0.7c0,0.2,0.2,0.4,0.4,0.5
		C60.2,31.1,60.5,31.2,60.8,31.2 M66,31.5l2,1.2c0.2-0.2,0.4-0.4,0.4-0.7c0-0.2-0.2-0.4-0.4-0.5c-0.3-0.1-0.6-0.2-0.9-0.2
		C66.8,31.4,66.4,31.4,66,31.5"/>
	<path class="st5" d="M64,50.7c-4.9,0.1-9.7-1.1-13.9-3.3C46.2,45.1,44,42,44,38.7v-7.4c0-3.3,2.2-6.4,6.1-8.6
		c7.7-4.4,20.2-4.4,27.9,0l0,0c3.8,2.3,6,5.3,6,8.6v7.4c0,0.8-0.1,1.6-0.4,2.4c-0.3,0.8-0.7,1.6-1.2,2.3c-0.3,0.4-0.6,0.7-0.9,1.1
		c-0.7,0.7-1.4,1.4-2.2,2c-0.4,0.3-0.9,0.6-1.4,0.9c-0.2,0.1-0.4,0.2-0.6,0.3l-0.2,0.1c-1.2,0.6-2.4,1.1-3.6,1.5
		c-0.8,0.3-1.5,0.5-2.2,0.6C69,50.4,66.5,50.7,64,50.7z M64,21.4c-4.5-0.1-9,1-12.9,3.1c-3.3,1.9-5.1,4.3-5.1,6.9v7.4
		c0,2.6,1.8,5,5.1,6.9c4,2.1,8.4,3.2,12.9,3.1c2.3,0,4.7-0.3,6.9-0.8c0.6-0.1,1.3-0.3,2-0.6c1.1-0.4,2.2-0.8,3.3-1.4l0.2-0.1
		c0.2-0.1,0.3-0.2,0.5-0.2c0.4-0.2,0.8-0.5,1.2-0.8c0.7-0.5,1.3-1.1,1.9-1.7c0.3-0.3,0.5-0.6,0.7-0.9c0.4-0.5,0.7-1.1,0.9-1.8
		c0.2-0.6,0.3-1.2,0.3-1.8v-7.4c0-2.6-1.8-5-5.1-6.9l0,0C73,22.3,68.5,21.3,64,21.4z"/>
	<rect class="st0" width="128" height="128"/>
</g>
</svg>
