<?xml version="1.0" encoding="utf-8"?>
<!-- Generator: Adobe Illustrator 24.1.0, SVG Export Plug-In . SVG Version: 6.00 Build 0)  -->
<svg version="1.1" id="Layer_1" xmlns="http://www.w3.org/2000/svg" xmlns:xlink="http://www.w3.org/1999/xlink" x="0px" y="0px"
	 viewBox="0 0 128 128" style="enable-background:new 0 0 128 128;" xml:space="preserve">
<style type="text/css">
	.st0{fill:#E9EBDF;}
	.st1{fill:#FFFFFF;}
	.st2{fill:#4D9987;}
	.st3{fill:#0E352C;}
	.st4{fill:#C4D7D3;}
	.st5{fill:#27ae60;}
	.st6{fill:#185849;}
	.st7{fill:none;}
</style>
<g>
	<path class="st0" d="M14.7,39.3C9.8,42.1,5.8,49,5.9,54.6s4,7.9,8.9,5.1s8.8-9.7,8.8-15.3S19.6,36.5,14.7,39.3z"/>
	<path class="st1" d="M10.8,37L10.8,37c2.4-1.4,4.5-1.5,6.1-0.7c0,0,0,0,0.1,0l0.2,0.1l3.8,2.2c-1.6-0.9-3.8-0.8-6.3,0.6
		C9.8,42.1,5.8,49,5.9,54.6c0,2.8,1,4.8,2.6,5.7L4.6,58C3,57.1,2,55.1,2,52.3C2,46.7,5.9,39.9,10.8,37z"/>
	<path class="st0" d="M8.3,46.1c-1.5,2.6-2.4,5.5-2.5,8.5c0,2.8,1,4.8,2.6,5.7L4.6,58C3,57.1,2,55.1,2,52.3c0.1-3,0.9-5.9,2.4-8.5"
		/>
	<path class="st0" d="M52.2,81.1c0.5-1,1-2.1,1.4-3.2c0.3-1,0.5-2.1,0.6-3.2l0.1-13.2L20.4,42.3l0,0c-1.8-0.4-3.9-0.9-7,1.8
		c-3,2.6-3,3.4-4,7.5c-1.2,5,2.8,6.6,1.7,5.9L52.2,81.1z"/>
	<path class="st1" d="M11.3,46.8l42.9,24.7v-10L20.4,42.3l0,0c0.9,0.7-3-1.7-5.3,0.3C13.6,43.7,12.3,45.2,11.3,46.8z"/>
	<path class="st2" d="M52.2,82.1c-0.2,0-0.3,0-0.5-0.1L10.6,58.5c-1.4-0.9-2.2-2.3-2.3-3.9c0-0.1,0-0.1,0-0.2v-0.1
		c0-0.2,0-0.5,0-0.7c0.1-2.2,0.7-4.4,1.7-6.3c0.2-0.3,0.3-0.6,0.5-0.9c0.1-0.2,0.2-0.4,0.3-0.5c1.1-1.7,2.5-3.1,4.2-4.1
		c0.3-0.2,0.5-0.3,0.8-0.4l0.2-0.1c0.2-0.1,0.4-0.2,0.6-0.2c0.1,0,0.1,0,0.2-0.1c0.2-0.1,0.4-0.1,0.6-0.1c0.1,0,0.1,0,0.2,0
		c0.2,0,0.4,0,0.5-0.1h0.2c0.2,0,0.4,0,0.6,0h0.2c0.2,0,0.4,0.1,0.5,0.1h0.2c0.2,0.1,0.4,0.1,0.6,0.2c0.2,0.1,0.4,0.2,0.6,0.3
		l33.9,19.3c0.3,0.2,0.5,0.6,0.5,1l-2.1,19.5C53.1,81.7,52.7,82.1,52.2,82.1z M18.4,42.7L18.4,42.7h-0.2c-0.1,0-0.2,0-0.3,0h-0.2
		c-0.1,0-0.2,0.1-0.3,0.1l-0.2,0.1c-0.1,0-0.3,0.1-0.4,0.2h-0.1c-0.2,0.1-0.5,0.2-0.7,0.3c-1.4,0.9-2.6,2.1-3.6,3.5
		c-0.1,0.2-0.2,0.3-0.3,0.5c-0.2,0.3-0.3,0.5-0.5,0.8c-0.9,1.6-1.4,3.5-1.5,5.3c0,0.2,0,0.4,0,0.6v0.2c0,1,0.5,1.9,1.3,2.4
		l39.8,22.8L53,62.1L20,43.2c-0.1,0-0.1-0.1-0.2-0.1c-0.1-0.1-0.2-0.1-0.3-0.2c-0.1-0.1-0.2-0.1-0.3-0.1c-0.1,0-0.2-0.1-0.4-0.1
		h-0.1C18.6,42.7,18.5,42.7,18.4,42.7z"/>
	<path class="st3" d="M52.2,82.1c-0.2,0-0.3,0-0.5-0.1l-37-21.2c-2.5,1.3-4.9,1.4-6.7,0.3l-3.9-2.2c-2-1.1-3.1-3.5-3.1-6.5
		c0-5.9,4.2-13.2,9.3-16.1c2.6-1.5,5.1-1.8,7.1-0.7h0.1l4,2.3l0,0l0,0c1.8,1,2.8,3.1,3,5.7l30.2,17.2c0.3,0.2,0.5,0.6,0.5,1
		l-2.1,19.5C53.1,81.7,52.7,82.1,52.2,82.1L52.2,82.1z M14.7,58.7c0.2,0,0.3,0,0.5,0.1l36.2,20.7l1.8-17.4L23.1,45
		c-0.3-0.2-0.5-0.5-0.5-0.8c0-2.2-0.8-3.9-2.1-4.6l0,0l0,0l-3.9-2.3c0,0,0,0-0.1,0c-1.3-0.7-3.2-0.4-5.1,0.7C6.7,40.6,3,47,3,52.3
		c0,2.3,0.7,4,2.1,4.8L9,59.3c1.3,0.8,3.2,0.5,5.2-0.6C14.3,58.7,14.5,58.7,14.7,58.7L14.7,58.7z"/>
	<path class="st0" d="M113.2,39.3c4.9,2.8,8.8,9.7,8.8,15.3s-4,7.9-8.9,5.1s-8.8-9.7-8.8-15.3S108.3,36.5,113.2,39.3z"/>
	<path class="st1" d="M117.1,37L117.1,37c-2.4-1.4-4.5-1.5-6.1-0.7c0,0,0,0-0.1,0l-0.2,0.1l-3.8,2.2c1.6-0.9,3.8-0.8,6.3,0.6
		c4.9,2.8,8.8,9.7,8.8,15.3c0,2.8-1,4.8-2.6,5.7l3.9-2.2c1.6-0.9,2.6-2.9,2.6-5.7C125.9,46.7,122,39.9,117.1,37z"/>
	<path class="st0" d="M119.6,46.1c1.5,2.6,2.4,5.5,2.5,8.5c0,2.8-1,4.8-2.6,5.7l3.9-2.2c1.6-0.9,2.6-2.9,2.6-5.7
		c-0.1-3-0.9-5.9-2.4-8.5"/>
	<path class="st0" d="M75.8,81.1c-0.5-1-1-2.1-1.4-3.2c-0.3-1-0.5-2.1-0.6-3.2l-0.1-13.2l33.9-19.3l0,0c-0.9,0.7,5.1-0.6,6.2,0.9
		c4.3,5.8,4.7,4.3,5,8.8c0.2,3.2-3,6.2-1.9,5.5L75.8,81.1z"/>
	<path class="st1" d="M116.7,46.8L73.8,71.6v-10l33.9-19.3l0,0c-0.9,0.7,2.6-1.1,4.1-0.1C113.8,43.3,115.5,44.9,116.7,46.8z"/>
	<path class="st2" d="M75.8,82.1c-0.5,0-0.9-0.4-1-0.9l-2.1-19.5c0-0.4,0.2-0.8,0.5-1l33.9-19.3c0.2-0.1,0.3-0.2,0.5-0.3h0.1
		c0.2-0.1,0.4-0.2,0.6-0.2h0.1c0.2-0.1,0.4-0.1,0.6-0.1h0.2c0.2,0,0.3,0,0.5,0h0.2c0.2,0,0.3,0,0.5,0.1h0.2c0.2,0,0.4,0.1,0.5,0.1
		s0.2,0.1,0.3,0.1c0.2,0.1,0.4,0.1,0.5,0.2c0.1,0,0.2,0.1,0.2,0.1c0.3,0.1,0.5,0.2,0.8,0.4c1.7,1,3.1,2.4,4.2,4.1
		c1.6,2.3,2.5,5,2.6,7.7c0,0.3,0,0.5,0,0.7c0,0.1,0,0.2,0,0.3l-1-0.1l1,0.1c-0.1,1.6-1,3.1-2.3,3.9L76.3,82
		C76.2,82.1,76,82.1,75.8,82.1z M74.8,62.1l1.8,17.4l39.8-22.8c0.8-0.6,1.3-1.5,1.3-2.4l0,0v-0.1c0-0.3,0-0.5,0-0.7
		c-0.1-2.4-0.9-4.7-2.3-6.6c-0.9-1.4-2.1-2.6-3.6-3.5c-0.2-0.1-0.4-0.2-0.6-0.3L111,43c-0.1-0.1-0.3-0.1-0.4-0.2l-0.2-0.1
		c-0.1,0-0.2-0.1-0.3-0.1H110c-0.2,0-0.3,0-0.4,0h-0.1c-0.1,0-0.2,0-0.3,0h-0.1c-0.1,0-0.2,0-0.3,0.1c-0.1,0-0.2,0.1-0.4,0.1
		c-0.1,0.1-0.2,0.1-0.3,0.2c-0.1,0-0.1,0.1-0.2,0.1L74.8,62.1z"/>
	<path class="st3" d="M75.8,82.1c-0.5,0-0.9-0.4-1-0.9l-2.1-19.5c0-0.4,0.2-0.8,0.5-1l30.1-17.1c0.2-2.7,1.2-4.7,3-5.8l0,0l4-2.3
		l0.1-0.1c1.9-1,4.4-0.7,7,0.8l0,0c5.2,3,9.3,10.2,9.3,16.1c0,3.1-1.1,5.4-3.1,6.5l-3.9,2.2c-1.9,1.1-4.2,1-6.7-0.3L76.3,82
		C76.2,82.1,76,82.1,75.8,82.1z M74.8,62.1l1.8,17.4l36.1-20.7c0.3-0.2,0.7-0.2,1,0c2,1.1,3.9,1.3,5.2,0.6l3.9-2.2
		c1.3-0.8,2.1-2.5,2.1-4.8c0-5.3-3.7-11.8-8.3-14.4c-2-1.1-3.8-1.4-5.1-0.7h-0.1l-3.9,2.3l0,0l0,0c-1.3,0.8-2.1,2.4-2.1,4.7
		c0,0.4-0.2,0.7-0.5,0.9L74.8,62.1z"/>
	<polygon class="st1" points="64,49.1 98.7,29.1 64,9.1 29.3,29.1 	"/>
	<polyline class="st1" points="64,9.1 29.3,29.1 34.7,32.2 64,15.3 	"/>
	<polyline class="st4" points="64,15.3 93.8,31.9 98.7,29.1 64,9.1 	"/>
	<path class="st5" d="M34.7,33.2c-0.2,0-0.3,0-0.5-0.1L28.8,30c-0.5-0.3-0.6-0.9-0.4-1.4c0.1-0.2,0.2-0.3,0.4-0.4l34.7-20
		c0.3-0.2,0.7-0.2,1,0l34.7,20c0.5,0.3,0.6,0.9,0.4,1.4c-0.1,0.2-0.3,0.4-0.6,0.5l-7.2,2.1c-0.3,0.1-0.5,0-0.8-0.1L64,16.5
		L35.2,33.1C35.1,33.2,34.9,33.2,34.7,33.2z M31.3,29.1l3.4,2l28.8-16.6c0.3-0.2,0.7-0.2,1,0l27.1,15.6l4.5-1.3L64,10.2L31.3,29.1z"
		/>
	<path class="st0" d="M64,59.5v42.7l9.7-5.4c0,0,0.9-19.5,1.2-21.1l17.5,10.1l0,0l6.2-3.6V29.1L64,59.5z"/>
	<path class="st2" d="M64,103.1c-0.6,0-1-0.4-1-1V59.5c0-0.3,0.1-0.6,0.3-0.8L98,28.3c0.4-0.4,1-0.3,1.4,0.1
		c0.2,0.2,0.2,0.4,0.2,0.7v53c0,0.4-0.2,0.7-0.5,0.9l-6.2,3.6c-0.3,0.2-0.7,0.2-1,0l-16.2-9.3c-0.3,3.6-0.7,13-1,19.5
		c0,0.3-0.2,0.7-0.5,0.8l-9.7,5.4C64.3,103.1,64.2,103.1,64,103.1z M65,59.9v40.5l7.8-4.3c0.2-3.6,0.9-19.2,1.2-20.7
		c0.1-0.5,0.6-0.9,1.2-0.8c0.1,0,0.2,0.1,0.3,0.1l17,9.8l5.2-3V31.3L65,59.9z"/>
	<path class="st1" d="M64,49.1l-34.7-20v53l6.2,3.6L53,75.6c0.3,1.6,1.2,21.1,1.2,21.1l9.7,5.4l0,0"/>
	<path class="st4" d="M64,102.1l9.7-5.4c0,0-0.2-9.5,0.2-15.8c0.1-1.8,0.5-3.6,1-5.3l17.5,10.1l6.2-3.6v-53L64,49.1"/>
	<path class="st4" d="M81.3,67c4.2-2.4,7.6,0.1,7.6,5.7v14.2l-14.8-8.6C75,73.6,77.9,68.9,81.3,67z"/>
	<path class="st5" d="M81.3,67c-3.4,2-6.3,6.6-7.3,11.3l7.7,4.4l0,0l7.1-11.3C88.4,66.8,85.2,64.7,81.3,67z"/>
	<path class="st2" d="M64,50.1c-0.2,0-0.3,0-0.5-0.1L28.8,30c-0.5-0.3-0.6-0.9-0.4-1.4c0.3-0.5,0.9-0.6,1.4-0.4l34.7,20
		c0.5,0.3,0.6,0.9,0.4,1.4C64.7,49.9,64.4,50.1,64,50.1z"/>
	<path class="st6" d="M64,50.1c-0.2,0-0.3,0-0.5-0.1L28.8,30c-0.5-0.3-0.6-0.9-0.4-1.4c0.1-0.2,0.2-0.3,0.4-0.4l34.7-20
		c0.3-0.2,0.7-0.2,1,0l34.7,20c0.5,0.3,0.6,0.9,0.4,1.4c-0.1,0.2-0.2,0.3-0.4,0.4L64.5,50C64.3,50.1,64.2,50.1,64,50.1z M31.3,29.1
		L64,47.9L96.7,29L64,10.2L31.3,29.1z"/>
	<polygon class="st1" points="98.7,17.8 64,37.8 58.2,34.4 92.8,14.4 	"/>
	<polygon class="st4" points="98.7,17.8 98.7,29.1 64,49.1 64,37.8 	"/>
	<path class="st1" d="M64,50.1c-0.6,0-1-0.4-1-1V37.8c0-0.4,0.2-0.7,0.5-0.9l34.7-20c0.5-0.3,1.1-0.1,1.4,0.4
		c0.1,0.2,0.1,0.3,0.1,0.5v11.3c0,0.4-0.2,0.7-0.5,0.9L64.5,50C64.3,50.1,64.2,50.1,64,50.1z M65,38.4v9l32.7-18.9v-9L65,38.4z"/>
	<polygon class="st4" points="58.2,34.4 58.2,45.7 64,49.1 64,37.8 	"/>
	<path class="st1" d="M64,50.1c-0.2,0-0.3,0-0.5-0.1l-5.8-3.4c-0.3-0.2-0.5-0.5-0.5-0.9V34.4c0-0.6,0.4-1,1-1c0.2,0,0.3,0,0.5,0.1
		l5.8,3.4c0.3,0.2,0.5,0.5,0.5,0.9v11.3C65,49.7,64.6,50.1,64,50.1z M59.2,45.2l3.8,2.2v-9l-3.8-2.2V45.2z"/>
	<path class="st6" d="M64,50.1c-0.2,0-0.3,0-0.5-0.1l-5.8-3.4c-0.3-0.2-0.5-0.5-0.5-0.9V34.4c0-0.4,0.2-0.7,0.5-0.9l34.7-20
		c0.3-0.2,0.7-0.2,1,0l5.8,3.4c0.3,0.2,0.5,0.5,0.5,0.9v11.3c0,0.4-0.2,0.7-0.5,0.9L64.5,50C64.3,50.1,64.2,50.1,64,50.1z
		 M59.2,45.2L64,48l33.7-19.4V18.4l-4.8-2.8L59.2,35V45.2z"/>
	<path class="st1" d="M75.7,37.7c-0.6,0-1-0.4-1-1c0-0.4,0.2-0.7,0.5-0.9l11.3-6.5c0.5-0.3,1.1-0.1,1.4,0.4s0.1,1.1-0.4,1.4l0,0
		l-11.3,6.5C76,37.7,75.8,37.7,75.7,37.7z"/>
	<path class="st1" d="M75.8,73.3c-0.5,1-1,2.1-1.4,3.2c-0.3,1-0.5,2.1-0.6,3.2l-0.1,13.2l33.9,19.3l0,0c-1.1-1-1.7-2.4-1.5-3.8
		c0.2-4.5,2.6-8.5,6.3-11c1.8-1,3.3-1.1,4.5-0.5L75.8,73.3z"/>
	<path class="st0" d="M107.7,102.4l-34-19.6v10l33.9,19.3l0,0c-1.1-1-1.7-2.4-1.5-3.8C106.2,106.2,106.7,104.2,107.7,102.4z"/>
	<path class="st0" d="M112.4,97.2c-3.7,2.4-6.1,6.5-6.3,11c0,4,2.9,5.7,6.4,3.6c3.7-2.4,6.1-6.5,6.3-11
		C118.8,96.8,115.9,95.2,112.4,97.2z"/>
	<path class="st2" d="M109.6,113.7c-0.8,0-1.5-0.2-2.2-0.6c-1.5-0.9-2.4-2.6-2.4-4.9c0.2-4.8,2.8-9.2,6.8-11.8l0,0
		c2-1.2,4-1.3,5.5-0.4s2.4,2.6,2.4,4.9c-0.2,4.8-2.8,9.2-6.8,11.8C112,113.3,110.8,113.7,109.6,113.7z M112.9,98.1
		c-3.4,2.3-5.6,6-5.8,10.1c0,1.6,0.5,2.7,1.4,3.2s2.1,0.3,3.5-0.4c3.4-2.3,5.6-6,5.8-10.1c0-1.6-0.5-2.7-1.4-3.2
		S114.3,97.3,112.9,98.1L112.9,98.1z"/>
	<path class="st0" d="M112.4,97.2c-3.7,2.4-6.1,6.5-6.3,11c0,4,2.9,5.7,6.4,3.6c3.7-2.4,6.1-6.5,6.3-11
		C118.8,96.8,115.9,95.2,112.4,97.2z"/>
	<path class="st2" d="M116.7,107.6c-1,1.7-2.5,3.2-4.2,4.3c-3.5,2-6.4,0.4-6.4-3.6c0.1-2,0.6-4,1.6-5.8L116.7,107.6z"/>
	<path class="st3" d="M109.6,113.7c-0.8,0-1.5-0.2-2.2-0.6c-1.5-0.9-2.4-2.6-2.4-4.9c0.2-4.8,2.8-9.2,6.8-11.8l0,0
		c2-1.2,4-1.3,5.5-0.4s2.4,2.6,2.4,4.9c-0.2,4.8-2.8,9.2-6.8,11.8C112,113.3,110.8,113.7,109.6,113.7z M112.9,98.1
		c-3.4,2.3-5.6,6-5.8,10.1c0,1.6,0.5,2.7,1.4,3.2s2.1,0.3,3.5-0.4c3.4-2.3,5.6-6,5.8-10.1c0-1.6-0.5-2.7-1.4-3.2
		S114.3,97.3,112.9,98.1L112.9,98.1z"/>
	<path class="st3" d="M109.6,113.7c-0.8,0-1.5-0.2-2.2-0.6c-1.5-0.9-2.4-2.6-2.4-4.9c0.2-4.8,2.8-9.2,6.8-11.8l0,0
		c2-1.2,4-1.3,5.5-0.4s2.4,2.6,2.4,4.9c-0.2,4.8-2.8,9.2-6.8,11.8C112,113.3,110.8,113.7,109.6,113.7z M112.9,98.1
		c-3.4,2.3-5.6,6-5.8,10.1c0,1.6,0.5,2.7,1.4,3.2s2.1,0.3,3.5-0.4c3.4-2.3,5.6-6,5.8-10.1c0-1.6-0.5-2.7-1.4-3.2
		S114.3,97.3,112.9,98.1L112.9,98.1z"/>
	<path class="st5" d="M64,103.1c-0.6,0-1-0.4-1-1v-53c0-0.6,0.4-1,1-1s1,0.4,1,1v53C65,102.7,64.6,103.1,64,103.1z"/>
	<path class="st2" d="M73.8,84.4c0.7-2.4,2.2-4.5,4.4-5.8c2.7-1.5,5.2-1.2,6.3-0.4l-8.6-4.9C75.8,73.3,73.8,74.8,73.8,84.4z"/>
	<path class="st3" d="M73.7,97.7c-0.6,0-1-0.4-1-1V81.5c0-1.1,0.1-2.3,0.4-3.4c0.1-0.5,0.6-0.9,1.2-0.8s0.9,0.6,0.8,1.2
		c-0.2,1-0.3,2-0.3,3v15.3C74.7,97.3,74.3,97.7,73.7,97.7z"/>
	<path class="st6" d="M88.9,81.7c-0.6,0-1-0.4-1-1v-8c0-0.6,0.4-1,1-1s1,0.4,1,1v8C89.9,81.3,89.5,81.7,88.9,81.7z"/>
	<path class="st0" d="M46.7,67c-4.2-2.4-7.6,0.1-7.6,5.7v14.2l14.8-8.6C53,73.6,50.1,68.9,46.7,67z"/>
	<path class="st3" d="M39.1,87.9c-0.6,0-1-0.4-1-1V72.7c0-3.3,1.1-5.9,3.1-7c1.7-1,3.8-0.8,6,0.4c3.6,2.1,6.7,6.9,7.7,12
		c0.1,0.4-0.1,0.9-0.5,1.1l-14.8,8.6C39.4,87.8,39.3,87.9,39.1,87.9z M43.7,67.1c-0.5,0-1,0.1-1.5,0.4c-1.3,0.8-2.1,2.7-2.1,5.3
		v12.4l12.7-7.3c-1-4.3-3.7-8.3-6.6-10l0,0C45.4,67.4,44.6,67.1,43.7,67.1z"/>
	<path class="st5" d="M46.7,67c3.4,2,6.3,6.6,7.3,11.3l-7.7,4.4h-7.1l0.1-11.3C39.6,66.8,42.8,64.7,46.7,67z"/>
	<path class="st1" d="M52.2,73.3c0.5,1,1,2.1,1.4,3.2c0.3,1,0.5,2.1,0.6,3.2l0.1,13.2l-33.9,19.3l0,0c1.1-1,1.7-2.4,1.5-3.8
		c-0.2-4.5-2.6-8.5-6.3-11c-1.8-1-3.3-1.1-4.5-0.5L52.2,73.3z"/>
	<path class="st0" d="M20.3,102.4l34-19.6v10l-33.9,19.3l0,0c1.1-1,1.7-2.4,1.5-3.8C21.8,106.2,21.3,104.2,20.3,102.4z"/>
	<path class="st0" d="M15.6,97.2c3.7,2.4,6.1,6.5,6.3,11c0,4-2.9,5.7-6.4,3.6c-3.7-2.4-6.1-6.5-6.3-11C9.2,96.8,12.1,95.2,15.6,97.2
		z"/>
	<path class="st2" d="M18.4,113.7c-1.2,0-2.3-0.4-3.4-1c-4.1-2.6-6.6-7-6.8-11.8c0-2.3,0.8-4.1,2.4-4.9s3.5-0.7,5.5,0.4l0,0
		c4.1,2.6,6.6,7,6.8,11.8c0,2.3-0.8,4.1-2.4,4.9C19.9,113.5,19.1,113.7,18.4,113.7z M12.7,97.4c-0.4,0-0.8,0.1-1.2,0.3
		c-0.9,0.5-1.4,1.6-1.4,3.2c0.3,4.1,2.4,7.8,5.8,10.1c1.4,0.8,2.6,1,3.5,0.4s1.4-1.6,1.4-3.2c-0.3-4.1-2.4-7.8-5.8-10.1l0,0
		C14.4,97.7,13.6,97.4,12.7,97.4z"/>
	<path class="st0" d="M15.6,97.2c3.7,2.4,6.1,6.5,6.3,11c0,4-2.9,5.7-6.4,3.6c-3.7-2.4-6.1-6.5-6.3-11C9.2,96.8,12.1,95.2,15.6,97.2
		z"/>
	<path class="st2" d="M11.3,107.6c1,1.7,2.5,3.2,4.2,4.3c3.5,2,6.4,0.4,6.4-3.6c-0.1-2-0.6-4-1.6-5.8L11.3,107.6z"/>
	<path class="st3" d="M18.4,113.7c-1.2,0-2.3-0.4-3.4-1c-4.1-2.6-6.6-7-6.8-11.8c0-2.3,0.8-4.1,2.4-4.9s3.5-0.7,5.5,0.4l0,0
		c4.1,2.6,6.6,7,6.8,11.8c0,2.3-0.8,4.1-2.4,4.9C19.9,113.5,19.1,113.7,18.4,113.7z M12.7,97.4c-0.4,0-0.8,0.1-1.2,0.3
		c-0.9,0.5-1.4,1.6-1.4,3.2c0.3,4.1,2.4,7.8,5.8,10.1c1.4,0.8,2.6,1,3.5,0.4s1.4-1.6,1.4-3.2c-0.3-4.1-2.4-7.8-5.8-10.1l0,0
		C14.4,97.7,13.6,97.4,12.7,97.4z"/>
	<path class="st3" d="M18.4,113.7c-1.2,0-2.3-0.4-3.4-1c-4.1-2.6-6.6-7-6.8-11.8c0-2.3,0.8-4.1,2.4-4.9s3.5-0.7,5.5,0.4l0,0
		c4.1,2.6,6.6,7,6.8,11.8c0,2.3-0.8,4.1-2.4,4.9C19.9,113.5,19.1,113.7,18.4,113.7z M12.7,97.4c-0.4,0-0.8,0.1-1.2,0.3
		c-0.9,0.5-1.4,1.6-1.4,3.2c0.3,4.1,2.4,7.8,5.8,10.1c1.4,0.8,2.6,1,3.5,0.4s1.4-1.6,1.4-3.2c-0.3-4.1-2.4-7.8-5.8-10.1l0,0
		C14.4,97.7,13.6,97.4,12.7,97.4z"/>
	<path class="st2" d="M54.2,92.8c0,0-0.3-15.6-14.6-12.4l12.6-7.2C52.2,73.3,54.2,76,54.2,92.8z"/>
	<path class="st3" d="M18.4,113.7c-1.2,0-2.3-0.4-3.4-1c-4.1-2.6-6.6-7-6.8-11.8c0-2.3,0.9-4.1,2.4-5l41.1-23.5
		c0.5-0.3,1.1-0.1,1.4,0.4c0.3,0.5,0.1,1.1-0.4,1.4L11.6,97.7c-0.9,0.5-1.4,1.6-1.4,3.2c0.3,4.1,2.4,7.8,5.8,10.1
		c1.5,0.9,2.9,1,3.7,0.3c0.1,0,0.1-0.1,0.2-0.1L53.7,92c0.5-0.3,1.1-0.1,1.4,0.3s0.1,1.1-0.3,1.4l0,0L20.9,113
		C20.1,113.4,19.3,113.7,18.4,113.7z"/>
	<path class="st6" d="M39.1,81.7c-0.6,0-1-0.4-1-1v-8c0-0.6,0.4-1,1-1s1,0.4,1,1v8C40.1,81.3,39.6,81.7,39.1,81.7z"/>
	<path class="st6" d="M33,85.2c-0.2,0-0.3,0-0.5-0.1L28.8,83c-0.3-0.2-0.5-0.5-0.5-0.9v-53c0-0.6,0.4-1,1-1c0.2,0,0.3,0,0.5,0.1
		L64,47.9l34.2-19.7c0.5-0.3,1.1-0.1,1.4,0.4c0.1,0.2,0.1,0.3,0.1,0.5v53c0,0.4-0.2,0.7-0.5,0.9l-3.3,1.9c-0.5,0.3-1.1,0.1-1.4-0.4
		s-0.1-1.1,0.4-1.4l2.8-1.6V30.8L64.5,50c-0.3,0.2-0.7,0.2-1,0L30.3,30.8v50.7l3.1,1.8c0.5,0.3,0.6,0.9,0.4,1.4
		C33.7,85.1,33.3,85.2,33,85.2L33,85.2z"/>
	<path class="st3" d="M28.4,87.9c-0.6,0-1-0.4-1-1c0-0.4,0.2-0.7,0.5-0.9l16.9-9.7c0.5-0.3,1.1-0.1,1.4,0.4c0.3,0.5,0.1,1.1-0.4,1.4
		l-16.9,9.6C28.7,87.8,28.6,87.9,28.4,87.9z"/>
	<path class="st3" d="M100.7,88.5c-0.2,0-0.3,0-0.5-0.1L84,79.1c-0.5-0.3-0.6-0.9-0.4-1.4c0.3-0.5,0.9-0.6,1.4-0.4l16.3,9.3
		c0.5,0.3,0.6,0.9,0.4,1.4C101.4,88.3,101.1,88.5,100.7,88.5L100.7,88.5z"/>
	<path class="st0" d="M117.1,97.4c-4.9,2.8-8.8,9.7-8.8,15.3s4,7.9,8.9,5.1s8.8-9.7,8.8-15.3S122,94.5,117.1,97.4z"/>
	<path class="st1" d="M113.3,95.1L113.3,95.1c2.4-1.4,4.5-1.5,6.1-0.7c0,0,0,0,0.1,0l0.2,0.1l3.8,2.2c-1.6-0.9-3.8-0.8-6.3,0.6
		c-4.9,2.8-8.8,9.7-8.8,15.3c0,2.8,1,4.8,2.6,5.7l-3.9-2.2c-1.6-0.9-2.6-2.9-2.6-5.7C104.4,104.8,108.4,97.9,113.3,95.1z"/>
	<path class="st0" d="M110.8,104.2c-1.5,2.6-2.4,5.5-2.5,8.5c0,2.8,1,4.8,2.6,5.7l-3.9-2.2c-1.6-0.9-2.6-2.9-2.6-5.7
		c0.1-3,0.9-5.9,2.4-8.5"/>
	<path class="st0" d="M117.1,102.1c-2.8,1.8-4.5,4.8-4.7,8.1c0,3,2.1,4.2,4.7,2.7c2.8-1.8,4.5-4.8,4.7-8.1
		C121.8,101.8,119.7,100.6,117.1,102.1z"/>
	<path class="st2" d="M113.2,119.9c-1,0-2-0.2-2.8-0.7l0,0l-3.9-2.2c-2-1.1-3.1-3.5-3.1-6.5l0,0c0-5.9,4.2-13.2,9.3-16.2
		c2.6-1.5,5.1-1.8,7.1-0.7h0.1l4,2.3c0,0,0,0,0.1,0c1.9,1.2,3,3.5,3,6.5c0,5.9-4.2,13.2-9.3,16.1
		C116.3,119.4,114.8,119.9,113.2,119.9z M111.3,117.4c1.4,0.8,3.3,0.6,5.3-0.6c4.6-2.7,8.3-9.1,8.3-14.4c0-2.3-0.8-4-2.1-4.8
		c0,0,0,0-0.1,0l-3.9-2.3h-0.1c-1.3-0.7-3.2-0.4-5.1,0.7c-4.6,2.7-8.3,9.1-8.3,14.4l0,0c0,2.3,0.7,4,2.1,4.8L111.3,117.4z"/>
	<path class="st2" d="M120.3,109.7c0.9-1.5,1.4-3.1,1.5-4.9c0-3-2.1-4.2-4.7-2.7c-1.5,0.9-2.6,2.2-3.4,3.7L120.3,109.7z"/>
	<path class="st2" d="M115,114.6c-0.6,0-1.2-0.2-1.7-0.5c-1.3-0.9-2-2.3-1.9-3.9c0.2-3.7,2.1-7,5.2-9l0,0c1.7-1.3,4.1-1.1,5.4,0.6
		c0.7,0.8,1,1.9,0.8,3c-0.2,3.7-2.1,7-5.2,9C116.8,114.3,115.9,114.6,115,114.6z M117.6,103c-2.5,1.6-4,4.3-4.2,7.3
		c-0.1,0.8,0.2,1.6,0.9,2.2c0.8,0.3,1.7,0.2,2.3-0.3c2.5-1.6,4-4.3,4.2-7.3c0.1-0.8-0.2-1.6-0.9-2.2
		C119.2,102.4,118.3,102.5,117.6,103z"/>
	<path class="st0" d="M10.9,97.3c4.9,2.8,8.8,9.7,8.8,15.3s-4,7.9-8.9,5.1S2,108,2,102.4S6,94.5,10.9,97.3z"/>
	<path class="st1" d="M14.7,95.1L14.7,95.1c-2.4-1.4-4.5-1.5-6.1-0.7c0,0,0,0-0.1,0l-0.2,0.1l-3.8,2.2c1.6-0.9,3.8-0.8,6.3,0.6
		c4.9,2.8,8.8,9.7,8.8,15.3c0,2.8-1,4.8-2.6,5.7l4-2.3c1.6-0.9,2.6-2.9,2.6-5.7C23.6,104.8,19.6,97.9,14.7,95.1z"/>
	<path class="st0" d="M17.2,104.1c1.5,2.6,2.4,5.5,2.5,8.5c0,2.8-1,4.8-2.6,5.7L21,116c1.6-0.9,2.6-2.9,2.6-5.7
		c-0.1-3-0.9-5.9-2.4-8.5"/>
	<path class="st0" d="M10.9,102.1c2.8,1.8,4.5,4.8,4.7,8.1c0,3-2.1,4.2-4.7,2.7c-2.8-1.8-4.5-4.8-4.7-8.1
		C6.2,101.8,8.3,100.6,10.9,102.1z"/>
	<path class="st2" d="M14.8,119.9c-1.6,0-3.1-0.5-4.5-1.3c-5.2-3-9.3-10.2-9.3-16.1c0-3,1.1-5.3,3-6.5l0,0l0,0l0,0l4-2.3
		c0,0,0.1,0,0.1-0.1c1.9-1,4.5-0.7,7,0.8l-0.5,0.9l0.5-0.9c5.2,3,9.3,10.2,9.3,16.2c0,3.1-1.1,5.4-3.1,6.5l-3.8,2.2l0,0l0,0h-0.1
		l0,0C16.8,119.6,15.8,119.9,14.8,119.9z M5.1,97.6L5.1,97.6c-1.4,0.8-2.1,2.5-2.1,4.8c0,5.3,3.7,11.8,8.3,14.4c2,1.2,4,1.4,5.3,0.6
		l3.9-2.2c1.3-0.8,2.1-2.5,2.1-4.8c0-5.3-3.7-11.8-8.3-14.4l0,0c-2-1.1-3.8-1.4-5.1-0.7L9,95.4L5.1,97.6z"/>
	<path class="st2" d="M7.7,109.6c-0.9-1.5-1.4-3.1-1.5-4.9c0-3,2.1-4.2,4.7-2.7c1.5,0.9,2.6,2.2,3.4,3.7L7.7,109.6z"/>
	<path class="st2" d="M13,114.6c-0.9,0-1.8-0.3-2.6-0.8c-3.1-2-5-5.3-5.2-9c-0.1-1.5,0.6-3,1.9-3.9c1.4-0.7,3.1-0.6,4.3,0.3
		c3.1,2,5,5.3,5.2,9c0.1,1.5-0.6,3-1.9,3.9C14.2,114.4,13.6,114.6,13,114.6z M8.8,102.5c-0.3,0-0.5,0.1-0.7,0.2
		c-0.6,0.5-1,1.3-0.9,2.2c0.2,2.9,1.7,5.6,4.2,7.3c0.7,0.5,1.6,0.6,2.3,0.3c0.6-0.5,1-1.3,0.9-2.2c-0.2-2.9-1.7-5.6-4.2-7.3l0,0
		C9.9,102.7,9.4,102.5,8.8,102.5L8.8,102.5z"/>
	<path class="st3" d="M14.8,119.9c-1.6,0-3.1-0.5-4.5-1.3c-5.2-3-9.3-10.2-9.3-16.1c0-3,1.1-5.4,3-6.5l0,0l0,0l4-2.3
		c0,0,0.1,0,0.1-0.1c2-0.9,4.3-0.8,6.1,0.3l37.3-21.4c0.5-0.3,1.1-0.1,1.4,0.4c0.3,0.5,0.1,1.1-0.4,1.4l0,0L14.9,95.8
		c-0.3,0.2-0.7,0.2-1,0c-1.9-1-3.6-1.2-4.8-0.5H9l-0.1,0.1l-3.7,2.2l0,0l0,0l0,0c-1.3,0.8-2.1,2.5-2.1,4.8c0,5.3,3.7,11.8,8.3,14.4
		c2,1.2,4,1.4,5.3,0.6l3.9-2.2c1.3-0.8,2.1-2.5,2.1-4.8v-0.1c0-0.4,0.2-0.7,0.5-0.9L53.9,92c0.5-0.3,1.1-0.1,1.4,0.3
		s0.1,1.1-0.3,1.4l0,0l-30.2,17.2c-0.1,2.8-1.2,5-3.1,6.1l-3.9,2.2C16.8,119.6,15.8,119.9,14.8,119.9z"/>
	<path class="st6" d="M54.3,97.7c-0.6,0-1-0.4-1-1V81.5c0-1-0.1-2-0.3-3c-0.1-0.5,0.2-1.1,0.8-1.2s1.1,0.2,1.2,0.8
		c0.2,1.1,0.3,2.2,0.4,3.4v15.3C55.3,97.3,54.8,97.7,54.3,97.7z"/>
	<path class="st6" d="M53.9,79.3c-0.5,0-0.9-0.3-1-0.8c-0.9-4.5-3.7-8.9-6.8-10.7c-1.5-0.9-2.9-1-4-0.4c-1.3,0.8-2.1,2.7-2.1,5.3
		c0,0.6-0.4,1-1,1s-1-0.4-1-1c0-3.3,1.1-5.9,3.1-7c1.7-1,3.8-0.8,6,0.4c3.6,2.1,6.7,6.9,7.7,12c0.1,0.5-0.2,1.1-0.8,1.2
		C54.1,79.3,54,79.3,53.9,79.3z"/>
	<path class="st3" d="M113.2,119.9c-1,0-2-0.2-2.8-0.7l-3.9-2.2c-1.9-1.1-3-3.3-3.1-6.1L73.3,93.7c-0.5-0.3-0.7-0.9-0.4-1.4
		c0.3-0.5,0.9-0.7,1.4-0.4l0,0l30.7,17.4c0.3,0.2,0.5,0.5,0.5,0.9v0.1c0,2.3,0.7,4.1,2.1,4.8l3.9,2.2c1.3,0.8,3.3,0.5,5.3-0.6
		c4.6-2.7,8.3-9.1,8.3-14.4c0-2.3-0.8-4-2.1-4.8l0,0l0,0l-3.9-2.3H119c-1.2-0.6-2.9-0.5-4.8,0.5c-0.3,0.2-0.7,0.2-1,0L75.3,74.1
		c-0.5-0.3-0.6-0.9-0.4-1.4c0.3-0.5,0.9-0.6,1.4-0.4l37.4,21.4c1.9-1,4.2-1.1,6.1-0.3h0.1l4,2.3l0,0l0,0c1.9,1.2,3,3.5,3,6.5
		c0,5.9-4.2,13.2-9.3,16.1C116.3,119.4,114.8,119.9,113.2,119.9z"/>
	<path class="st6" d="M64,103.1c-0.2,0-0.3,0-0.5-0.1l-9.7-5.4c-0.5-0.3-0.7-0.9-0.4-1.4s0.9-0.7,1.4-0.4L64,101l8.7-4.8
		c0-2.2-0.1-9.9,0.2-15.3c0.1-1.7,0.4-3.4,0.9-5c0.1-0.2,0.1-0.3,0.1-0.4c0.1-0.5,0.6-0.9,1.2-0.8c0.5,0.1,0.9,0.6,0.8,1.2l0,0
		c0,0.1-0.1,0.3-0.1,0.6c-0.5,1.5-0.7,3-0.9,4.6c-0.4,6.2-0.2,15.6-0.2,15.7c0,0.4-0.2,0.7-0.5,0.9l-9.7,5.4
		C64.3,103.1,64.2,103.1,64,103.1z"/>
	<path class="st6" d="M74.1,79.3c-0.1,0-0.1,0-0.2,0c-0.5-0.1-0.9-0.6-0.8-1.2l0,0c1-5.1,4.1-9.9,7.7-12c2.1-1.2,4.3-1.4,6-0.4
		c2,1.1,3.1,3.7,3.1,7c0,0.6-0.4,1-1,1s-1-0.4-1-1c0-2.6-0.8-4.5-2.1-5.3c-1.1-0.6-2.4-0.5-4,0.4c-3.1,1.8-5.9,6.2-6.8,10.7
		C75,79,74.5,79.3,74.1,79.3z"/>
	<rect x="1" y="1" class="st7" width="126" height="126"/>
	<rect class="st7" width="128" height="128"/>
</g>
</svg>
