<?xml version="1.0" encoding="utf-8"?>
<!-- Generator: Adobe Illustrator 24.1.0, SVG Export Plug-In . SVG Version: 6.00 Build 0)  -->
<svg version="1.1" id="Layer_1" xmlns="http://www.w3.org/2000/svg" xmlns:xlink="http://www.w3.org/1999/xlink" x="0px" y="0px"
	 viewBox="0 0 128 128" style="enable-background:new 0 0 128 128;" xml:space="preserve">
<style type="text/css">
	.st0{fill:none;}
	.st1{fill:#E9EBDF;}
	.st2{fill:#0E352C;}
	.st3{fill:#4D9987;}
	.st4{fill:#FFFFFF;}
	.st5{fill:#27ae60;}
</style>
<g>
	<rect x="1" y="3.5" class="st0" width="126" height="126"/>
	<path class="st1" d="M91.2,45.9v44.9c0,1.3-1.8,2.3-4,2.3s-4-1-4-2.3V45.9H91.2z"/>
	<path class="st1" d="M87.2,45.9h-4v44.9c0,1.3,1.8,2.3,4,2.3V45.9z"/>
	<path class="st1" d="M91.2,67.5v15.6c0,1.3-1.8,2.3-4,2.3s-4-1-4-2.3V67.5H91.2z"/>
	<path class="st2" d="M87.2,94.1c-2.8,0-5-1.4-5-3.3V46.6c0-0.6,0.4-1,1-1s1,0.4,1,1v44.2c0,0.5,1.2,1.3,3,1.3s3-0.8,3-1.3V46.6
		c0-0.6,0.4-1,1-1s1,0.4,1,1v44.2C92.2,92.7,90,94.1,87.2,94.1z"/>
	<path class="st1" d="M37.4,77v44.9c0,1.3-1.8,2.3-4,2.3s-4-1-4-2.3V77H37.4z"/>
	<path class="st1" d="M33.4,77h-4v44.9c0,1.3,1.8,2.3,4,2.3V77z"/>
	<path class="st1" d="M37.4,98.6v15.6c0,1.3-1.8,2.3-4,2.3s-4-1-4-2.3V98.6H37.4z"/>
	<path class="st2" d="M33.4,125.2c-2.8,0-5-1.4-5-3.3V77.7c0-0.6,0.4-1,1-1s1,0.4,1,1v44.2c0,0.5,1.2,1.3,3,1.3s3-0.8,3-1.3V77.7
		c0-0.6,0.4-1,1-1s1,0.4,1,1v44.2C38.4,123.7,36.2,125.2,33.4,125.2z"/>
	<path class="st1" d="M91.6,0.4L91.6,0.4c-0.6-0.3-1.4-0.3-2,0.2L25.7,37.4c-1.9,1.3-3,3.5-3,5.8v60.4l12.8,7.4v-5.4l-6.8-4l0,0
		l8.7-11.9l55.3-31.9V10.4l4.9-6.6L91.6,0.4z"/>
	<path class="st3" d="M28.6,102.5c-0.2,0-0.3,0-0.5-0.1l-6-3.4c-0.5-0.3-0.6-0.9-0.4-1.4c0.3-0.5,0.9-0.6,1.4-0.4l5.9,3.4
		c0.5,0.3,0.6,0.9,0.4,1.4C29.2,102.3,28.9,102.5,28.6,102.5z"/>
	<path class="st4" d="M25.7,37.4L89.6,0.5c0.6-0.4,1.3-0.5,2-0.2l0,0l5.9,3.4L93.8,8v41.8c0,2.3-1.2,4.4-3,5.8l-24.3,14l-43.4-29
		C23.6,39.3,24.5,38.2,25.7,37.4z"/>
	<path class="st3" d="M35.4,111.9c-0.2,0-0.3,0-0.5-0.1l-12.8-7.4c-0.3-0.2-0.5-0.5-0.5-0.9V43.2c0-2.7,1.3-5.1,3.5-6.6l64-36.9
		C89.9-0.9,91-1,91.9-0.5c0,0,0.1,0,0.1,0.1l6,3.3c0.5,0.3,0.6,0.9,0.4,1.4c0,0,0,0.1-0.1,0.1l-4.7,6.4v47c0,0.4-0.2,0.7-0.5,0.9
		L38,90.4l-8,10.8l5.9,3.4c0.3,0.2,0.5,0.5,0.5,0.9v5.4C36.4,111.5,36,111.9,35.4,111.9L35.4,111.9z M23.6,103l10.8,6.2v-3.1
		l-6.3-3.7c-0.5-0.3-0.6-0.9-0.4-1.4c0,0,0-0.1,0.1-0.1L36.5,89c0.1-0.1,0.2-0.2,0.3-0.3l54.8-31.6V10.4c0-0.2,0.1-0.4,0.2-0.6
		L96,4.1l-4.9-2.8H91c-0.3-0.2-0.7,0-1,0.2L26.2,38.3c-1.6,1.2-2.5,3-2.5,4.9L23.6,103z"/>
	<polyline class="st4" points="98.5,61.1 105.4,65.1 35.4,105.5 28.6,101.5 	"/>
	<path class="st3" d="M35.4,106.5c-0.2,0-0.3,0-0.5-0.1l-6.8-4c-0.5-0.3-0.6-0.9-0.4-1.4c0.3-0.5,0.9-0.6,1.4-0.4l0,0l6.3,3.7
		l68-39.2L98,62c-0.5-0.3-0.6-0.9-0.4-1.4s0.9-0.6,1.4-0.4l6.8,4c0.5,0.3,0.6,0.9,0.4,1.4c-0.1,0.2-0.2,0.3-0.4,0.4l-70,40.4
		C35.7,106.4,35.6,106.5,35.4,106.5z"/>
	<path class="st1" d="M98.5,61.1V6.2c0-2.2-1.4-3.2-3-2.3L31.6,40.8c-1.9,1.3-3,3.5-3,5.8v54.9"/>
	<path class="st3" d="M28.6,102.5c-0.6,0-1-0.4-1-1V46.6c0-2.7,1.3-5.1,3.5-6.6L95,3.1c0.9-0.6,2-0.7,3-0.2c1.1,0.7,1.7,2,1.5,3.3
		v54.9c0,0.6-0.4,1-1,1s-1-0.4-1-1V6.2c0-0.9-0.3-1.4-0.5-1.6c-0.3-0.2-0.7,0-1,0.2L32.1,41.7c-1.6,1.2-2.5,3-2.5,4.9v54.9
		C29.6,102.1,29.1,102.5,28.6,102.5z"/>
	<path class="st4" d="M33,90.9V48.1c0-1.2,0.7-2.4,1.7-3l57.7-33.3c0.5-0.3,1.2-0.1,1.6,0.4c0.1,0.2,0.2,0.4,0.2,0.6v42.8
		c0,1.2-0.7,2.4-1.7,3L34.7,91.9c-0.5,0.3-1.2,0.1-1.6-0.4C33,91.3,33,91.1,33,90.9z"/>
	<path class="st2" d="M34.1,93.1c-0.4,0-0.7-0.1-1.1-0.3c-0.7-0.4-1.1-1.1-1.1-1.9V48.1c0-1.6,0.8-3,2.2-3.8L91.9,11
		c1-0.6,2.3-0.2,2.9,0.8c0.2,0.3,0.3,0.7,0.3,1.1v42.8c0,1.6-0.8,3-2.2,3.8L35.2,92.8C34.9,93,34.5,93.1,34.1,93.1z M92.9,12.7
		L92.9,12.7L35.2,46c-0.7,0.4-1.2,1.2-1.2,2.1v42.8c0,0.1,0,0.1,0.1,0.1h0.1l57.7-33.3c0.7-0.4,1.2-1.2,1.2-2.1V12.8
		C93.1,12.8,93.1,12.7,92.9,12.7C93,12.7,93,12.7,92.9,12.7z"/>
	<polygon class="st1" points="105.4,70.5 105.4,65.1 35.4,105.5 35.4,110.9 	"/>
	<path class="st3" d="M35.4,111.9c-0.6,0-1-0.4-1-1v-5.4c0-0.4,0.2-0.7,0.5-0.9l70-40.4c0.5-0.3,1.1-0.1,1.4,0.4
		c0.1,0.2,0.1,0.3,0.1,0.5v5.4c0,0.4-0.2,0.7-0.5,0.9l-70,40.4C35.7,111.9,35.6,111.9,35.4,111.9z M36.4,106.1v3.1l68-39.2v-3.1
		L36.4,106.1z"/>
	<path class="st5" d="M77.3,49.2c-0.6,0-1-0.4-1-1v-7.9c0-0.4,0.2-0.7,0.5-0.9l5.9-3.4c0.5-0.3,1.1-0.1,1.4,0.4
		c0.1,0.2,0.1,0.3,0.1,0.5v7.9c0,0.4-0.2,0.7-0.5,0.9l-5.9,3.4C77.7,49.1,77.5,49.2,77.3,49.2z M78.3,40.8v5.6l3.9-2.3v-5.6
		L78.3,40.8z"/>
	<path class="st5" d="M45.5,59.6c-0.4,0-0.8-0.1-1.2-0.3c-1-0.7-1.6-1.9-1.5-3.1c0-2.5,1.3-4.8,3.3-6.2c0.8-0.6,1.9-0.6,2.8-0.1
		c1,0.7,1.6,1.9,1.5,3.1c0,2.5-1.3,4.8-3.3,6.2C46.6,59.4,46,59.6,45.5,59.6z M47.7,51.5c-0.2,0-0.4,0.1-0.6,0.2
		c-1.4,1.1-2.3,2.7-2.3,4.5c0,0.8,0.3,1.3,0.5,1.4c0.3,0.2,0.7-0.1,0.8-0.1c1.4-1.1,2.3-2.7,2.3-4.5c0-0.8-0.3-1.3-0.5-1.4
		C47.8,51.5,47.8,51.5,47.7,51.5L47.7,51.5z"/>
	<path class="st5" d="M45.5,74.5c-0.4,0-0.8-0.1-1.2-0.3c-1-0.7-1.6-1.9-1.5-3.1c0-2.5,1.3-4.8,3.3-6.2c0.8-0.6,1.9-0.6,2.8-0.1
		c1,0.7,1.6,1.9,1.5,3.1c0,2.5-1.3,4.8-3.3,6.2C46.6,74.3,46,74.5,45.5,74.5z M47.7,66.4c-0.2,0-0.4,0.1-0.6,0.2
		c-1.4,1.1-2.3,2.7-2.3,4.5c0,0.8,0.3,1.3,0.5,1.4c0.3,0.2,0.7-0.1,0.8-0.1c1.4-1.1,2.3-2.7,2.3-4.5c0-0.8-0.3-1.3-0.5-1.4
		C47.8,66.4,47.8,66.4,47.7,66.4z"/>
	<path class="st5" d="M62.3,57.4c-0.4,0-0.8-0.1-1.2-0.3c-1-0.7-1.6-1.9-1.5-3.1c0-2.5,1.3-4.8,3.3-6.2c0.8-0.6,1.9-0.6,2.8-0.1
		c1,0.7,1.6,1.9,1.5,3.1c0,2.5-1.3,4.8-3.3,6.2C63.4,57.2,62.8,57.4,62.3,57.4z M64.5,49.2c-0.2,0-0.4,0.1-0.6,0.2
		c-1.4,1.1-2.3,2.7-2.3,4.5c0,0.8,0.3,1.3,0.5,1.4c0.3,0.1,0.7-0.1,0.8-0.1c1.4-1.1,2.3-2.7,2.3-4.5c0-0.8-0.3-1.3-0.5-1.4
		C64.6,49.3,64.6,49.2,64.5,49.2z"/>
	<path class="st5" d="M49.4,53.9c-0.6,0-1-0.4-1-1c0-0.4,0.2-0.7,0.5-0.9l11.2-6.5c0.8-0.6,1.9-0.6,2.8-0.1c1,0.7,1.6,1.9,1.5,3.1
		c0,0.6-0.4,1-1,1s-1-0.4-1-1c0-0.8-0.3-1.3-0.5-1.4c-0.3-0.2-0.7,0.1-0.8,0.1l-11.2,6.5C49.7,53.9,49.6,53.9,49.4,53.9z"/>
	<path class="st5" d="M49.4,68.8c-0.6,0-1-0.4-1-1c0-0.4,0.2-0.7,0.5-0.9l11.2-6.5c1.4-1.1,2.3-2.7,2.3-4.5c0-0.6,0.4-1,1-1
		s1,0.4,1,1c0,2.5-1.3,4.8-3.3,6.2l-11.2,6.5C49.7,68.8,49.6,68.8,49.4,68.8z"/>
	<path class="st5" d="M66.2,51.7c-0.6,0-1-0.4-1-1c0-0.4,0.2-0.7,0.5-0.9l11.2-6.5c0.5-0.3,1.1-0.1,1.4,0.4s0.1,1.1-0.4,1.4l0,0
		l-11.2,6.5C66.5,51.6,66.3,51.7,66.2,51.7z"/>
	<path class="st3" d="M28.6,102.5c-0.6,0-1-0.4-1-1c0-0.4,0.2-0.7,0.5-0.9l70-40.4c0.5-0.3,1.1-0.1,1.4,0.4s0.1,1.1-0.4,1.4
		l-70,40.4C28.9,102.5,28.7,102.5,28.6,102.5z"/>
	<path class="st2" d="M35.1,112.4c-0.2,0-0.3,0-0.5-0.1l-12.9-7.5c-0.3-0.2-0.5-0.5-0.5-0.9V43c0-1,0.2-2,0.6-3
		c0.1-0.3,0.2-0.5,0.4-0.8l0.1-0.2c0.1-0.2,0.3-0.5,0.4-0.7l0.1-0.1c0.2-0.2,0.3-0.4,0.5-0.6l0.1-0.1c0.2-0.2,0.4-0.4,0.6-0.6
		l0.1-0.1c0.2-0.2,0.5-0.4,0.7-0.5L89.3-1c0.5-0.3,1-0.4,1.5-0.5c0.5,0,1,0.1,1.4,0.3c0,0,0.1,0,0.1,0.1l6,3.5
		c0.1,0,0.1,0.1,0.2,0.2c0.9,0.8,1.4,2,1.4,3.2v54.9l6.4,3.7c0.3,0.2,0.5,0.5,0.5,0.9v5.5c0,0.4-0.2,0.7-0.5,0.9l-70.7,40.8
		C35.4,112.4,35.3,112.4,35.1,112.4z M23.2,103.4l11.9,6.9L104.8,70v-4.3L98.4,62c-0.3-0.2-0.5-0.5-0.5-0.9V5.6
		C98,5,97.8,4.5,97.3,4c-0.1,0-0.1-0.1-0.2-0.1l-5.7-3.3c0,0,0,0-0.1,0c-0.1-0.1-0.2-0.1-0.3-0.1c-0.2,0-0.5,0.1-0.7,0.2L25.7,38
		c-0.1,0.1-0.3,0.2-0.4,0.3l-0.8-0.7l0.7,0.8c-0.1,0.1-0.3,0.3-0.4,0.4L24,38.2l0.8,0.7c-0.1,0.1-0.2,0.3-0.3,0.5l-0.9-0.5l0.8,0.6
		c-0.1,0.2-0.2,0.4-0.3,0.6L24,40.2c-0.1,0.2-0.2,0.4-0.3,0.6c-0.3,0.7-0.4,1.5-0.5,2.2V103.4z"/>
	<rect class="st0" width="128" height="128"/>
</g>
</svg>
