<?xml version="1.0" encoding="utf-8"?>
<!-- Generator: Adobe Illustrator 24.1.0, SVG Export Plug-In . SVG Version: 6.00 Build 0)  -->
<svg version="1.1" id="Layer_1" xmlns="http://www.w3.org/2000/svg" xmlns:xlink="http://www.w3.org/1999/xlink" x="0px" y="0px"
	 viewBox="0 0 128 128" style="enable-background:new 0 0 128 128;" xml:space="preserve">
<style type="text/css">
	.st0{fill:none;}
	.st1{fill:#185849;}
	.st2{fill:#C4D7D3;}
	.st3{fill:#FFFFFF;}
	.st4{fill:#27ae60;}
	.st5{fill:#E9EBDF;}
	.st6{fill:#4D9987;}
	.st7{fill:#0E352C;}
</style>
<g>
	<rect x="1" y="1" class="st0" width="126" height="126"/>
	<path class="st1" d="M83.2,115.1c-0.1,0-0.1,0-0.2,0s-0.1,0-0.2-0.1c-0.1,0-0.1-0.1-0.2-0.1s-0.1-0.1-0.2-0.1
		c-0.2-0.2-0.3-0.4-0.3-0.7c0-0.3,0.1-0.5,0.3-0.7c0.4-0.4,1-0.4,1.4,0l0,0c0.2,0.2,0.3,0.4,0.3,0.7c0,0.1,0,0.3-0.1,0.4
		c0,0.1-0.1,0.2-0.2,0.3C83.8,114.9,83.5,115,83.2,115.1z"/>
	<path class="st1" d="M82.2,107c0-0.6,0.4-1,1-1l0,0c0.6,0,1,0.4,1,1l0,0c0,0.6-0.4,1-1,1l0,0C82.7,108,82.2,107.5,82.2,107z"/>
	<path class="st1" d="M83.2,100.9c-0.1,0-0.1,0-0.2,0s-0.1,0-0.2-0.1c-0.1,0-0.1-0.1-0.2-0.1s-0.1-0.1-0.2-0.1c-0.4-0.4-0.4-1,0-1.4
		s1-0.4,1.4,0s0.4,1,0,1.4C83.8,100.8,83.5,100.9,83.2,100.9z"/>
	<path class="st1" d="M95.6,115.1c-0.4,0-0.8-0.2-0.9-0.6c-0.1-0.2-0.1-0.5,0-0.8c0-0.1,0.1-0.2,0.2-0.3c0.4-0.4,1-0.4,1.4,0
		c0.2,0.2,0.3,0.4,0.3,0.7c0,0.1,0,0.3-0.1,0.4s-0.1,0.2-0.2,0.3C96.1,114.9,95.9,115.1,95.6,115.1z"/>
	<path class="st1" d="M94.6,107c0-0.6,0.4-1,1-1l0,0c0.6,0,1,0.4,1,1l0,0c0,0.6-0.4,1-1,1l0,0C95,108,94.6,107.5,94.6,107z"/>
	<path class="st1" d="M95.6,100.9c-0.3,0-0.5-0.1-0.7-0.3c-0.1-0.1-0.2-0.2-0.2-0.3c-0.1-0.1-0.1-0.2-0.1-0.4c0-0.3,0.1-0.5,0.3-0.7
		c0.4-0.4,1-0.4,1.4,0c0.2,0.2,0.3,0.4,0.3,0.7c0,0.1,0,0.3-0.1,0.4s-0.1,0.2-0.2,0.3C96.1,100.8,95.9,100.9,95.6,100.9z"/>
	<path class="st2" d="M83.2,114v7.8c0,2,2.8,3.6,6.3,3.6s6.3-1.6,6.3-3.6V114H83.2z"/>
	<path class="st3" d="M83.2,114v7.8c0,2,2.8,3.6,6.3,3.6s6.3-1.6,6.3-3.6V114H83.2z"/>
	<path class="st2" d="M89.5,125.5L89.5,125.5c3.5,0,6.3-1.6,6.3-3.6V114h-6.3V125.5z"/>
	<ellipse class="st3" cx="89.5" cy="114" rx="6.3" ry="3.6"/>
	<ellipse class="st3" cx="89.5" cy="114" rx="6.3" ry="3.6"/>
	<path class="st4" d="M89.5,118.7c-4.1,0-7.3-2-7.3-4.6s3.2-4.6,7.3-4.6s7.3,2,7.3,4.6S93.6,118.7,89.5,118.7z M89.5,111.4
		c-3.1,0-5.3,1.4-5.3,2.6s2.2,2.6,5.3,2.6s5.3-1.4,5.3-2.6S92.7,111.4,89.5,111.4z"/>
	<path class="st4" d="M89.5,118.7c-4.1,0-7.3-2-7.3-4.6s3.2-4.6,7.3-4.6s7.3,2,7.3,4.6S93.6,118.7,89.5,118.7z M89.5,111.4
		c-3.1,0-5.3,1.4-5.3,2.6s2.2,2.6,5.3,2.6s5.3-1.4,5.3-2.6S92.7,111.4,89.5,111.4z"/>
	<path class="st1" d="M89.5,126.5c-4.1,0-7.3-2-7.3-4.6V114c0-2.6,3.2-4.6,7.3-4.6s7.3,2,7.3,4.6v7.8
		C96.8,124.4,93.6,126.5,89.5,126.5z M89.5,111.4c-3.1,0-5.3,1.4-5.3,2.6v7.8c0,1.2,2.2,2.6,5.3,2.6s5.3-1.4,5.3-2.6V114
		C94.8,112.8,92.7,111.4,89.5,111.4z"/>
	<path class="st3" d="M55.5,69.3l31.1-18c0.5-0.3,1.1-0.4,1.6-0.1l0,0l37,21.4l-34.3,31.7l-37-21.4l0,0c-0.6-0.4-0.9-1.2-0.8-1.9
		v-7.1C53.1,72.1,54,70.4,55.5,69.3z"/>
	<path class="st1" d="M90.9,105.3c-0.2,0-0.3,0-0.5-0.1l-37-21.4c-0.1,0-0.1-0.1-0.2-0.1C52.5,83,52,82,52.1,81v-7.1
		c0-2.2,1.1-4.2,2.9-5.4l31.1-18c0.7-0.5,1.6-0.5,2.4-0.2c0.1,0,0.1,0.1,0.2,0.1l37,21.4c0.5,0.3,0.6,0.9,0.4,1.4
		c-0.1,0.1-0.1,0.2-0.2,0.2L91.6,105C91.4,105.2,91.2,105.3,90.9,105.3z M54.6,82.1L90.8,103l32.7-30.3L87.8,52.2
		c-0.1,0-0.1,0-0.2-0.1c-0.2-0.1-0.4,0-0.6,0.1l-31,18l0,0c-1.2,0.9-1.9,2.3-1.9,3.7V81c0,0.6,0.2,1,0.3,1.1
		C54.5,82.1,54.5,82.1,54.6,82.1z"/>
	<path class="st5" d="M53.9,82.9c-0.6-0.4-0.9-1.2-0.8-1.9v-7.1c0-1.5,0.6-2.9,1.7-4l43.8,25.3l-2.4,4.2l-5.3,4.9L53.9,82.9
		L53.9,82.9z"/>
	<path class="st1" d="M90.9,105.3c-0.2,0-0.3,0-0.5-0.1l-37-21.4c-0.1,0-0.1-0.1-0.2-0.1C52.5,83,52,82,52.1,81v-7.1
		c0-2.2,1.1-4.2,2.9-5.4l31.1-18c0.7-0.5,1.6-0.5,2.4-0.2c0.1,0,0.1,0.1,0.2,0.1l37,21.4c0.5,0.3,0.6,0.9,0.4,1.4
		c-0.1,0.1-0.1,0.2-0.2,0.2L91.6,105C91.4,105.2,91.2,105.3,90.9,105.3z M54.6,82.1L90.8,103l32.7-30.3L87.8,52.2
		c-0.1,0-0.1,0-0.2-0.1c-0.2-0.1-0.4,0-0.6,0.1l-31,18l0,0c-1.2,0.9-1.9,2.3-1.9,3.7V81c0,0.6,0.2,1,0.3,1.1
		C54.5,82.1,54.5,82.1,54.6,82.1z"/>
	<path class="st5" d="M123.6,86.2l-31.1,18c-1.3,0.8-2.4,0-2.4-1.8v-7.1c0-1.8,0.9-3.5,2.4-4.6l31.1-18c1.3-0.8,2.4,0,2.4,1.8v7.1
		C126,83.4,125.1,85.1,123.6,86.2z"/>
	<path class="st6" d="M90.1,99.3c-0.6,0-1-0.4-1-1v-3c0-2.2,1.1-4.2,2.9-5.4l28.1-16.2c0.5-0.3,1.1-0.1,1.4,0.4s0.1,1.1-0.4,1.4
		L93,91.5c-1.2,0.9-1.9,2.3-1.9,3.7v3C91.1,98.8,90.6,99.3,90.1,99.3z"/>
	<path class="st7" d="M91.5,105.4c-0.3,0-0.6-0.1-0.9-0.2c-0.1,0-0.1-0.1-0.2-0.1l-37-21.4c-0.1,0-0.1-0.1-0.2-0.1
		C52.5,83,52,82,52.1,81v-7.1c0-2.2,1.1-4.2,2.9-5.4l31.1-18c0.7-0.5,1.6-0.5,2.4-0.2c0.1,0,0.1,0.1,0.2,0.1l37,21.4
		c0.1,0,0.1,0.1,0.2,0.1c0.8,0.7,1.2,1.6,1.1,2.7v7.1c0,2.2-1.1,4.2-2.9,5.4L93,105C92.5,105.3,92.1,105.4,91.5,105.4z M91.3,103.3
		c0.1,0,0.1,0,0.2,0.1c0.2,0.1,0.4,0,0.6-0.1l31.1-18c1.2-0.9,1.9-2.3,1.9-3.7v-7.1c0-0.6-0.2-1-0.3-1.1c-0.1,0-0.1-0.1-0.2-0.1
		L87.8,52.2c-0.1,0-0.1,0-0.2-0.1c-0.2-0.1-0.4,0-0.6,0.1l-31,18l0,0c-1.2,0.9-1.9,2.3-1.9,3.7V81c0,0.6,0.2,1,0.3,1.1
		c0.1,0,0.1,0.1,0.2,0.1L91.3,103.3z"/>
	<path class="st6" d="M84.7,95.8c-0.2,0-0.3,0-0.5-0.1l-0.8-0.5c-0.5-0.3-0.6-0.9-0.4-1.4c0.3-0.5,0.9-0.6,1.4-0.4l0,0l0.8,0.5
		c0.5,0.3,0.6,0.9,0.4,1.4C85.4,95.6,85.1,95.8,84.7,95.8z"/>
	<path class="st6" d="M66.2,85.1c-0.2,0-0.3,0-0.5-0.1l-7-4c-0.5-0.3-0.6-0.9-0.4-1.4c0.3-0.5,0.9-0.6,1.4-0.4l0,0l7,4
		c0.5,0.3,0.6,0.9,0.4,1.4C66.9,84.9,66.5,85.1,66.2,85.1z"/>
	<path class="st3" d="M106.7,90.2c-0.6,0-1-0.4-1-1c0-0.4,0.2-0.7,0.5-0.9l2.6-1.5c0.5-0.3,1.1-0.1,1.4,0.4s0.1,1.1-0.4,1.4
		l-2.6,1.5C107.1,90.1,106.9,90.2,106.7,90.2z"/>
	<ellipse class="st5" cx="89.5" cy="71" rx="6.3" ry="3.6"/>
	<path class="st7" d="M89.5,75.7c-4.1,0-7.3-2-7.3-4.6s3.2-4.6,7.3-4.6s7.3,2,7.3,4.6S93.6,75.7,89.5,75.7z M89.5,68.4
		c-3.1,0-5.3,1.4-5.3,2.6s2.2,2.6,5.3,2.6s5.3-1.4,5.3-2.6S92.7,68.4,89.5,68.4z"/>
	<path class="st2" d="M83.2,48.9v7.8c0,2,2.8,3.6,6.3,3.6s6.3-1.6,6.3-3.6v-7.8H83.2z"/>
	<path class="st3" d="M83.2,48.9v7.8c0,2,2.8,3.6,6.3,3.6s6.3-1.6,6.3-3.6v-7.8H83.2z"/>
	<path class="st2" d="M89.5,60.4L89.5,60.4c3.5,0,6.3-1.6,6.3-3.6V49h-6.3V60.4z"/>
	<ellipse class="st3" cx="89.5" cy="48.9" rx="6.3" ry="3.6"/>
	<ellipse class="st3" cx="89.5" cy="48.9" rx="6.3" ry="3.6"/>
	<path class="st4" d="M89.5,53.6c-4.1,0-7.3-2-7.3-4.6s3.2-4.6,7.3-4.6s7.3,2,7.3,4.6S93.6,53.6,89.5,53.6z M89.5,46.3
		c-3.1,0-5.3,1.4-5.3,2.6s2.2,2.6,5.3,2.6s5.3-1.4,5.3-2.6S92.7,46.3,89.5,46.3z"/>
	<path class="st4" d="M89.5,53.6c-4.1,0-7.3-2-7.3-4.6s3.2-4.6,7.3-4.6s7.3,2,7.3,4.6S93.6,53.6,89.5,53.6z M89.5,46.3
		c-3.1,0-5.3,1.4-5.3,2.6s2.2,2.6,5.3,2.6s5.3-1.4,5.3-2.6S92.7,46.3,89.5,46.3z"/>
	<path class="st1" d="M89.5,61.4c-4.1,0-7.3-2-7.3-4.6V49c0-2.6,3.2-4.6,7.3-4.6s7.3,2,7.3,4.6v7.8C96.8,59.3,93.6,61.4,89.5,61.4z
		 M89.5,46.3c-3.1,0-5.3,1.4-5.3,2.6v7.8c0,1.2,2.2,2.6,5.3,2.6s5.3-1.4,5.3-2.6v-7.8C94.8,47.7,92.7,46.3,89.5,46.3z"/>
	<path class="st5" d="M94.9,32.8c-0.9-0.2-1.8-0.4-2.7-0.5c-1.8-0.2-3.6-0.2-5.4,0c-0.9,0.1-1.8,0.3-2.7,0.5H76v6.3
		c0,2.5,2,4.7,5.2,6.2c5.3,2.2,11.3,2.2,16.6,0c3.2-1.4,5.2-3.7,5.2-6.2v-6.3H94.9z"/>
	<path class="st6" d="M103.1,39.1v-6.3h-8.2c-0.9-0.2-1.8-0.4-2.7-0.5c-0.9-0.1-1.8-0.2-2.7-0.2v14.7c2.9,0,5.7-0.5,8.3-1.6
		C101,43.8,103.1,41.6,103.1,39.1z"/>
	<path class="st7" d="M89.5,47.9c-3,0-6-0.6-8.7-1.7C77.1,44.5,75,42,75,39.1v-6.3c0-0.6,0.4-1,1-1h8c0.9-0.2,1.8-0.4,2.7-0.5
		c1.9-0.2,3.8-0.2,5.6,0c0.9,0.1,1.8,0.3,2.7,0.5h8c0.6,0,1,0.4,1,1v6.3c0,2.8-2.1,5.4-5.8,7.1C95.5,47.3,92.5,47.9,89.5,47.9z
		 M77,33.8v5.3c0,2,1.7,4,4.6,5.3c5.1,2.1,10.7,2.1,15.8,0c2.9-1.3,4.6-3.3,4.6-5.3v-5.3h-7.2c-0.1,0-0.2,0-0.2,0
		c-0.8-0.2-1.7-0.4-2.5-0.5c-1.7-0.2-3.5-0.2-5.2,0c-0.9,0.1-1.7,0.3-2.5,0.5c-0.1,0-0.2,0-0.2,0H77z"/>
	<path class="st5" d="M103.1,32.8c0,2.5-2,4.7-5.2,6.2c-5.3,2.2-11.3,2.2-16.6,0c-3.2-1.4-5.2-3.7-5.2-6.2s2-4.7,5.2-6.2
		c5.3-2.2,11.3-2.2,16.6,0C101,28.1,103.1,30.3,103.1,32.8z"/>
	<path class="st3" d="M89.5,41.6c-3,0-6-0.6-8.7-1.7c-3.7-1.7-5.8-4.2-5.8-7.1s2.1-5.4,5.8-7.1c5.6-2.3,11.9-2.3,17.4,0
		c3.7,1.7,5.8,4.2,5.8,7.1s-2.1,5.4-5.8,7.1C95.5,41.1,92.5,41.7,89.5,41.6z M89.5,26c-2.7,0-5.4,0.5-7.9,1.6
		c-2.9,1.3-4.6,3.3-4.6,5.3s1.7,4,4.6,5.3c5.1,2.1,10.7,2.1,15.8,0c2.9-1.3,4.6-3.3,4.6-5.3s-1.7-4-4.6-5.3
		C95,26.5,92.3,25.9,89.5,26z"/>
	<path class="st7" d="M89.5,47.9c-3,0-6-0.6-8.7-1.7C77.1,44.5,75,42,75,39.1v-6.3c0-2.8,2.1-5.4,5.8-7.1c5.6-2.3,11.9-2.3,17.4,0
		c3.7,1.7,5.8,4.2,5.8,7.1v6.3c0,2.8-2.1,5.4-5.8,7.1c-2,0.9-4.1,1.4-6.3,1.6C91.2,47.9,90.4,47.9,89.5,47.9z M89.5,26
		c-2.7,0-5.4,0.5-7.9,1.6c-2.9,1.3-4.6,3.3-4.6,5.3v6.3c0,2,1.7,4,4.6,5.3c2.5,1.1,5.2,1.6,7.9,1.6c0.7,0,1.5,0,2.2-0.1
		c2-0.2,3.9-0.7,5.7-1.5c2.9-1.3,4.6-3.3,4.6-5.3v-6.3c0-2-1.7-4-4.6-5.3C95,26.5,92.3,25.9,89.5,26z"/>
	<path class="st3" d="M88.6,5c-3.2-1.8-6.8-2.7-10.5-2.4S70.9,4,67.8,5.9l-7.6,4.4l-14.6,8.5l4.9,8.5l4.9,8.5l7.6-4.4l14.6-8.5
		c0.2-0.1,0.5-0.3,0.7-0.3c0.2-0.1,0.5-0.2,0.7-0.3c0.4,0.8,0.6,1.6,0.7,2.4s0.2,1.7,0.2,2.5v4.7c0,1.8,1.5,3.4,3.8,4.5
		c3.9,1.6,8.2,1.6,12,0c2.3-1,3.8-2.6,3.8-4.5v-4.7c0.1-4.3-0.8-8.6-2.4-12.6C95.3,10.5,92.3,7.2,88.6,5z"/>
	<path class="st5" d="M95.9,34.6c-1.7,0-3-1.3-3-3V24c0-1.7,1.3-3,3-3s3,1.3,3,3v7.6C98.9,33.3,97.5,34.6,95.9,34.6z"/>
	<path class="st5" d="M56.9,32.9c-1.7,0-3-1.3-3-3c0-1.1,0.6-2.1,1.5-2.6L74,16.6c1.4-0.8,3.3-0.3,4.1,1.1c0.8,1.4,0.3,3.3-1.1,4.1
		L58.4,32.5C57.9,32.8,57.4,32.9,56.9,32.9z"/>
	<path class="st5" d="M77.5,23.8c-0.6,0-1-0.4-1-1c0-0.4,0.2-0.7,0.5-0.9l3.7-2.1c0.5-0.3,1.1-0.1,1.4,0.4s0.1,1.1-0.4,1.4l0,0
		L78,23.7C77.9,23.8,77.7,23.8,77.5,23.8z"/>
	<path class="st3" d="M49.4,16.4L67,6.3c1.4-0.8,3.2-0.3,4,1l0,0c0.8,1.4,0.3,3.1-1.1,3.9L52.3,21.4c-1.4,0.8-3.1,0.3-3.9-1.1l0,0
		C47.6,19,48.1,17.2,49.4,16.4z"/>
	<path class="st7" d="M89.5,38.5c-2.2,0-4.4-0.4-6.4-1.3c-2.8-1.2-4.4-3.2-4.4-5.4v-4.7c0-0.8-0.1-1.6-0.2-2.4
		c-0.1-0.4-0.1-0.8-0.3-1.2c-0.1,0-0.2,0.1-0.3,0.2L55.8,36.5c-0.5,0.3-1.1,0.1-1.4-0.4l-9.8-17c-0.3-0.5-0.1-1.1,0.4-1.4L67.3,5
		c3.3-2,7-3.1,10.8-3.4c3.9-0.3,7.7,0.6,11.1,2.5l0,0c3.9,2.3,7,5.8,8.7,10c1.6,3.8,2.5,7.9,2.5,12.1v0.1v5.5c0,2.2-1.6,4.1-4.4,5.4
		C93.9,38.1,91.8,38.5,89.5,38.5z M78.9,21.2c0.4,0,0.7,0.2,0.9,0.5c0.4,0.9,0.7,1.8,0.8,2.7c0.1,0.9,0.2,1.8,0.2,2.7v4.7
		c0,1.3,1.2,2.7,3.2,3.6c3.6,1.4,7.6,1.4,11.2,0c2-0.9,3.2-2.2,3.2-3.5v-4.7c0.1-4.2-0.7-8.3-2.3-12.2c-1.6-3.8-4.4-7-7.9-9.1
		c-3-1.7-6.5-2.5-9.9-2.3c-3.5,0.3-6.9,1.4-9.9,3.2L46.9,19l8.8,15.2L77,22c0.3-0.2,0.5-0.3,0.7-0.4c0.3-0.1,0.5-0.2,0.8-0.3
		C78.7,21.2,78.8,21.2,78.9,21.2z"/>
	<path class="st6" d="M61.2,31.8c0-6.9-4.2-15-9.4-18c-2.4-1.4-4.5-1.4-6.1-0.5l0,0l-5.2,3l1.5,3.2c-0.1,0.6-0.1,1.1-0.1,1.7
		c0,6.9,4.2,14.9,9.4,18l1.5,3.2l5.1-3l0,0C60,38.2,61.2,35.6,61.2,31.8z"/>
	<path class="st5" d="M51.8,13.8c-2.4-1.4-4.5-1.4-6.1-0.5l0,0l-5.2,3l1.5,3.2c-0.1,0.6-0.1,1.1-0.1,1.7c0.1,3.3,0.9,6.6,2.3,9.5
		l14.7-8.5C57.2,18.6,54.7,15.5,51.8,13.8z"/>
	<path class="st6" d="M52.8,43.4c-0.1,0-0.2,0-0.3,0c-0.3-0.1-0.5-0.3-0.6-0.5L50.5,40c-5.3-3.3-9.6-11.6-9.6-18.7
		c0-0.5,0-1,0.1-1.5l-1.4-3c-0.2-0.5,0-1,0.4-1.3l5.1-3c0.1,0,0.1-0.1,0.2-0.1c2-1.1,4.5-0.9,7,0.6c5.5,3.2,9.9,11.6,9.9,18.8
		c0,3.9-1.3,7-3.6,8.4l-0.1,0.1l-5.1,3C53.2,43.3,53,43.4,52.8,43.4z M41.8,16.7l1.1,2.4c0.1,0.2,0.1,0.4,0.1,0.5
		c-0.1,0.5-0.1,1.1-0.1,1.6c0,6.6,4,14.2,8.9,17.1c0.2,0.1,0.3,0.3,0.4,0.4l1,2.2l4.1-2.4l0.1-0.1c1.8-1,2.8-3.5,2.8-6.7
		c0-6.6-4-14.3-8.9-17.1c-2-1.1-3.7-1.3-5.1-0.5c0,0-0.1,0-0.1,0.1L41.8,16.7z"/>
	<ellipse transform="matrix(0.9201 -0.3916 0.3916 0.9201 -7.7431 20.6223)" class="st5" cx="46.7" cy="29.3" rx="8.2" ry="14.4"/>
	<path class="st3" d="M50.4,44c-1.5,0-3-0.5-4.2-1.3c-5.5-3.2-9.9-11.6-9.9-18.8c0-4,1.4-7.1,3.8-8.5c2-1.2,4.6-1,7.2,0.5
		c5.5,3.2,9.9,11.6,9.9,18.8c0,4-1.4,7.1-3.8,8.5C52.5,43.7,51.4,44,50.4,44z M43,16.7c-0.7,0-1.3,0.2-1.9,0.5
		c-1.7,1-2.8,3.5-2.8,6.7c0,6.6,4,14.3,8.9,17.1c1.9,1.1,3.8,1.3,5.2,0.5c1.7-1,2.8-3.5,2.8-6.7c0-6.6-4-14.3-8.9-17.1
		C45.2,17.1,44.1,16.7,43,16.7z"/>
	<path class="st6" d="M49.4,38.4c-0.8,0-1.6-0.3-2.3-0.7c-3.5-2-6.4-7.5-6.4-12.2c0-3.1,1.3-5.2,3.3-5.2c0.8,0,1.6,0.3,2.3,0.7
		c3.5,2,6.4,7.5,6.4,12.2C52.7,36.4,51.4,38.4,49.4,38.4z"/>
	<path class="st7" d="M46.3,21c-0.3-0.2-0.7-0.4-1.1-0.5c-0.2,0.8-0.4,1.7-0.4,2.5c0,4.7,2.9,10.2,6.4,12.2c0.3,0.2,0.7,0.4,1.1,0.5
		c0.2-0.8,0.4-1.7,0.4-2.5C52.7,28.5,49.8,23,46.3,21z"/>
	<path class="st7" d="M50.4,44c-1.5,0-2.9-0.5-4.2-1.3c-5.5-3.2-9.9-11.6-9.9-18.8c0-3.9,1.3-7,3.6-8.4l0.1-0.1l5.1-3
		c0.1,0,0.1-0.1,0.2-0.1c2-1.1,4.5-0.9,7,0.6c5.5,3.2,9.9,11.6,9.9,18.8c0,3.9-1.3,7-3.6,8.4l-0.1,0.1l-5.1,3c0,0-0.1,0.1-0.2,0.1
		C52.3,43.8,51.4,44,50.4,44z M41.2,17.1l-0.1,0.1c-1.8,1-2.8,3.5-2.8,6.7c0,6.6,4,14.3,8.9,17.1c2,1.1,3.7,1.3,5.1,0.5
		c0,0,0.1,0,0.1-0.1l4.9-2.8l0.1-0.1c1.8-1,2.8-3.5,2.8-6.7c0-6.6-4-14.3-8.9-17.1c-2-1.1-3.7-1.3-5.1-0.5c0,0-0.1,0-0.1,0.1
		L41.2,17.1z"/>
	<polygon class="st3" points="18.2,39.1 11.3,43.1 18.2,47 25.1,43.1 	"/>
	<polygon class="st5" points="25.1,52.2 18.2,56.2 18.2,47 25.1,43.1 	"/>
	<polygon class="st5" points="11.3,52.2 18.2,56.2 18.2,47 11.3,43.1 	"/>
	<path class="st6" d="M18.2,48c-0.2,0-0.3,0-0.5-0.1l-6.9-4c-0.5-0.3-0.6-0.9-0.4-1.4c0.1-0.2,0.2-0.3,0.4-0.4l6.9-4
		c0.3-0.2,0.7-0.2,1,0l6.9,4c0.5,0.3,0.6,0.9,0.4,1.4c-0.1,0.2-0.2,0.3-0.4,0.4l-6.9,4C18.6,48,18.4,48,18.2,48z M13.3,43.1l4.9,2.8
		l4.9-2.8l-4.9-2.8L13.3,43.1z"/>
	<path class="st6" d="M18.2,57.2c-0.6,0-1-0.4-1-1V47c0-0.4,0.2-0.7,0.5-0.9l6.9-4c0.5-0.3,1.1-0.1,1.4,0.4c0.1,0.2,0.1,0.3,0.1,0.5
		v9.2c0,0.4-0.2,0.7-0.5,0.9l-6.9,4C18.6,57.1,18.4,57.2,18.2,57.2z M19.2,47.6v6.9l4.9-2.8v-6.9L19.2,47.6z"/>
	<path class="st6" d="M18.2,57.2c-0.2,0-0.3,0-0.5-0.1l-6.9-4c-0.3-0.2-0.5-0.5-0.5-0.9V43c0-0.6,0.4-1,1-1c0.2,0,0.3,0,0.5,0.1
		l6.9,4c0.3,0.2,0.5,0.5,0.5,0.9v9.2C19.2,56.7,18.8,57.2,18.2,57.2z M12.3,51.6l4.9,2.8v-6.9l-4.9-2.8
		C12.3,44.7,12.3,51.6,12.3,51.6z"/>
	<path class="st7" d="M18.2,57.2c-0.2,0-0.3,0-0.5-0.1l-6.9-4c-0.3-0.2-0.5-0.5-0.5-0.9V43c0-0.4,0.2-0.7,0.5-0.9l6.9-4
		c0.3-0.2,0.7-0.2,1,0l6.9,4c0.3,0.2,0.5,0.5,0.5,0.9v9.2c0,0.4-0.2,0.7-0.5,0.9l-6.9,4C18.6,57.1,18.4,57.2,18.2,57.2z M12.3,51.6
		l5.9,3.4l5.9-3.4v-8l-5.9-3.4l-5.9,3.4C12.3,43.6,12.3,51.6,12.3,51.6z"/>
	<path class="st7" d="M11.3,44c-0.1,0-0.1,0-0.2,0c-0.1,0-0.1,0-0.2,0c-0.1,0-0.1-0.1-0.2-0.1c-0.1,0-0.1-0.1-0.1-0.1
		c-0.1-0.1-0.2-0.2-0.2-0.3c-0.1-0.1-0.1-0.3-0.1-0.4c0-0.1,0-0.3,0.1-0.4c0-0.1,0.1-0.2,0.2-0.3c0-0.1,0.1-0.1,0.1-0.1
		c0.1,0,0.1-0.1,0.2-0.1s0.1,0,0.2-0.1c0.2,0,0.4,0,0.6,0.1c0.1,0,0.2,0.1,0.3,0.2c0.1,0.1,0.2,0.2,0.2,0.3s0.1,0.2,0.1,0.4
		c0,0.1,0,0.3-0.1,0.4c-0.1,0.2-0.3,0.4-0.5,0.5C11.6,44,11.5,44.1,11.3,44z"/>
	<path class="st7" d="M5.8,46.2c-0.3-0.5-0.1-1.1,0.4-1.4l0,0l0,0c0.5-0.3,1.1-0.1,1.4,0.4l0,0c0.3,0.5,0.1,1.1-0.4,1.4l0,0l0,0
		c-0.2,0.1-0.3,0.1-0.5,0.1l0,0C6.3,46.8,6,46.6,5.8,46.2z"/>
	<path class="st7" d="M2,49.4c-0.1,0-0.3,0-0.4-0.1s-0.2-0.1-0.3-0.2C1.1,49,1,48.7,1,48.4c0-0.4,0.2-0.8,0.6-0.9
		c0.4-0.1,0.8-0.1,1.1,0.2C2.9,47.9,3,48.2,3,48.4c0,0.1,0,0.1,0,0.2c0,0.1,0,0.1-0.1,0.2c0,0.1-0.1,0.1-0.1,0.2l-0.1,0.2
		C2.5,49.3,2.3,49.4,2,49.4z"/>
	<path class="st7" d="M18.2,57.2c-0.3,0-0.5-0.1-0.7-0.3c-0.4-0.4-0.4-1,0-1.4s1-0.4,1.4,0s0.4,1,0,1.4
		C18.7,57.1,18.5,57.2,18.2,57.2z"/>
	<path class="st7" d="M12.7,59.4c-0.3-0.5-0.1-1.1,0.4-1.4l0,0c0.5-0.3,1.1-0.1,1.4,0.4l0,0c0.3,0.5,0.1,1.1-0.4,1.4l0,0
		c-0.2,0.1-0.3,0.1-0.5,0.1l0,0C13.2,59.9,12.9,59.7,12.7,59.4z"/>
	<path class="st7" d="M8.9,62.6c-0.1,0-0.1,0-0.2,0c-0.1,0-0.1,0-0.2-0.1s-0.1-0.1-0.2-0.1c-0.1,0-0.1-0.1-0.1-0.1
		c-0.4-0.4-0.4-1,0-1.4l0,0c0-0.1,0.1-0.1,0.1-0.1c0.1,0,0.1-0.1,0.2-0.1s0.1,0,0.2-0.1c0.2,0,0.4,0,0.6,0.1
		c0.1,0.1,0.2,0.1,0.3,0.2c0.4,0.4,0.4,1,0,1.4C9.4,62.5,9.1,62.6,8.9,62.6z"/>
	<polygon class="st3" points="35.3,29.2 28.4,33.2 35.3,37.2 42.2,33.2 	"/>
	<polygon class="st5" points="42.2,42.4 35.3,46.3 35.3,37.2 42.2,33.2 	"/>
	<polygon class="st5" points="28.4,42.4 35.3,46.3 35.3,37.2 28.4,33.2 	"/>
	<path class="st6" d="M35.3,38.2c-0.2,0-0.3,0-0.5-0.1l-6.9-4c-0.5-0.3-0.6-0.9-0.4-1.4c0.1-0.2,0.2-0.3,0.4-0.4l6.9-4
		c0.3-0.2,0.7-0.2,1,0l6.9,4c0.5,0.3,0.6,0.9,0.4,1.4c-0.1,0.2-0.2,0.3-0.4,0.4l-6.9,4C35.6,38.1,35.5,38.2,35.3,38.2z M30.4,33.2
		l4.9,2.8l4.9-2.8l-4.9-2.8L30.4,33.2z"/>
	<path class="st6" d="M35.3,47.3c-0.6,0-1-0.4-1-1v-9.2c0-0.4,0.2-0.7,0.5-0.9l6.9-4c0.5-0.3,1.1-0.1,1.4,0.4
		c0.1,0.2,0.1,0.3,0.1,0.5v9.2c0,0.4-0.2,0.7-0.5,0.9l-6.9,4C35.6,47.3,35.5,47.3,35.3,47.3z M36.3,37.7v6.9l4.9-2.8v-6.9L36.3,37.7
		z"/>
	<path class="st6" d="M35.3,47.3c-0.2,0-0.3,0-0.5-0.1l-6.9-4c-0.3-0.2-0.5-0.5-0.5-0.9v-9.2c0-0.6,0.4-1,1-1c0.2,0,0.3,0,0.5,0.1
		l6.9,4c0.3,0.2,0.5,0.5,0.5,0.9v9.2C36.3,46.9,35.8,47.3,35.3,47.3z M29.4,41.8l4.9,2.8v-6.9l-4.9-2.8V41.8z"/>
	<path class="st7" d="M35.3,47.3c-0.2,0-0.3,0-0.5-0.1l-6.9-4c-0.3-0.2-0.5-0.5-0.5-0.9v-9.2c0-0.4,0.2-0.7,0.5-0.9l6.9-4
		c0.3-0.2,0.7-0.2,1,0l6.9,4c0.3,0.2,0.5,0.5,0.5,0.9v9.2c0,0.4-0.2,0.7-0.5,0.9l-6.9,4C35.6,47.3,35.5,47.3,35.3,47.3z M29.4,41.8
		l5.9,3.4l5.9-3.4v-8l-5.9-3.4l-5.9,3.4V41.8z"/>
	<rect class="st0" width="128" height="128"/>
</g>
</svg>
