<?xml version="1.0" encoding="utf-8"?>
<!-- Generator: Adobe Illustrator 24.1.0, SVG Export Plug-In . SVG Version: 6.00 Build 0)  -->
<svg version="1.1" id="Layer_1" xmlns="http://www.w3.org/2000/svg" xmlns:xlink="http://www.w3.org/1999/xlink" x="0px" y="0px"
	 viewBox="0 0 128 128" style="enable-background:new 0 0 128 128;" xml:space="preserve">
<style type="text/css">
	.st0{fill:#FFFFFF;}
	.st1{fill:#4D9987;}
	.st2{fill:#E9EBDF;}
	.st3{fill:#185849;}
	.st4{fill:#0E352C;}
	.st5{fill:#C4D7D3;}
	.st6{fill:#27ae60;}
	.st7{fill:none;}
</style>
<g>
	<path class="st0" d="M72.8,2c-1,0-1.9,0.8-1.9,1.9v23.4c0,0.6,0.8,1.1,1.9,1.1s1.9-0.5,1.9-1.1V3.9C74.7,2.8,73.9,2,72.8,2L72.8,2z
		"/>
	<path class="st1" d="M20.2,72.2c-0.4,0-0.8-0.2-0.9-0.6c-0.1-0.1-0.1-0.2-0.1-0.4c0-0.3,0.1-0.5,0.3-0.7c0.1-0.1,0.2-0.2,0.3-0.2
		c0.2-0.1,0.5-0.1,0.8,0c0.1,0,0.2,0.1,0.3,0.2c0.2,0.2,0.3,0.4,0.3,0.7c0,0.1,0,0.3-0.1,0.4s-0.1,0.2-0.2,0.3
		C20.7,72.1,20.5,72.2,20.2,72.2z"/>
	<path class="st1" d="M46.6,87.6c-0.5-0.3-0.6-0.9-0.4-1.4l0,0c0.3-0.5,0.9-0.6,1.4-0.4l0,0l0,0c0.5,0.3,0.6,0.9,0.4,1.4l0,0l0,0
		c-0.2,0.3-0.5,0.5-0.9,0.5l0,0C46.9,87.8,46.8,87.7,46.6,87.6z M41.2,84.5c-0.5-0.3-0.6-0.9-0.4-1.4l0,0l0,0
		c0.3-0.5,0.9-0.6,1.4-0.4l0,0l0,0c0.5,0.3,0.6,0.9,0.4,1.4l0,0c-0.2,0.3-0.5,0.5-0.9,0.5l0,0C41.6,84.7,41.4,84.6,41.2,84.5z
		 M35.9,81.4c-0.5-0.3-0.6-0.9-0.4-1.3l0,0l0,0c0.3-0.5,0.9-0.6,1.3-0.4l0,0l0,0c0.5,0.3,0.6,0.9,0.4,1.4l0,0
		c-0.2,0.3-0.5,0.5-0.9,0.5l0,0C36.2,81.6,36,81.5,35.9,81.4z M30.5,78.3C30,78,29.8,77.4,30.1,77l0,0l0,0c0.3-0.5,0.9-0.6,1.4-0.4
		l0,0c0.5,0.3,0.6,0.9,0.4,1.4l0,0c-0.2,0.3-0.5,0.5-0.9,0.5l0,0C30.8,78.5,30.6,78.4,30.5,78.3L30.5,78.3z M25.1,75.2
		c-0.5-0.3-0.6-0.9-0.4-1.4l0,0l0,0c0.3-0.5,0.9-0.6,1.4-0.4l0,0l0,0c0.5,0.3,0.6,0.9,0.4,1.4l0,0l0,0c-0.2,0.3-0.5,0.5-0.9,0.5l0,0
		C25.4,75.3,25.3,75.3,25.1,75.2z"/>
	<path class="st1" d="M52.5,90.9c-0.6,0-1-0.5-1-1c0-0.3,0.1-0.5,0.3-0.7c0.4-0.4,1-0.4,1.4,0c0.1,0.1,0.2,0.2,0.2,0.3
		c0.1,0.2,0.1,0.5,0,0.8c0,0.1-0.1,0.2-0.2,0.3C53,90.8,52.8,90.9,52.5,90.9z"/>
	<path class="st2" d="M17.1,74.1c-0.4,0-0.8-0.3-0.9-0.7l-1.7-4.6c-0.2-0.5,0.1-1.1,0.6-1.3c0.1-0.1,0.3-0.1,0.5-0.1l8,1
		c0.5,0.1,0.9,0.6,0.9,1.1c0,0.3-0.2,0.6-0.5,0.7l-6.3,3.6C17.4,74,17.2,74.1,17.1,74.1z M16.9,69.6l0.7,2l2.7-1.6L16.9,69.6z"/>
	<path class="st1" d="M107.8,73.9c-0.3,0-0.5-0.1-0.7-0.3c-0.1-0.1-0.2-0.2-0.2-0.3c0-0.1-0.1-0.2-0.1-0.4c0-0.3,0.1-0.5,0.3-0.7
		c0.1-0.1,0.2-0.2,0.3-0.2c0.2-0.1,0.5-0.1,0.8,0c0.1,0,0.2,0.1,0.3,0.2c0.2,0.2,0.3,0.4,0.3,0.7c0,0.1,0,0.3-0.1,0.4
		c0,0.1-0.1,0.2-0.2,0.3C108.3,73.8,108,73.9,107.8,73.9z"/>
	<path class="st1" d="M102.7,75.9c-0.3-0.5-0.1-1.1,0.4-1.4l0,0l0,0c0.5-0.3,1.1-0.1,1.4,0.4l0,0c0.3,0.5,0.1,1.1-0.4,1.4l0,0
		c-0.2,0.1-0.3,0.1-0.5,0.1l0,0C103.2,76.4,102.9,76.2,102.7,75.9z"/>
	<path class="st1" d="M99.3,78.8c-0.1,0-0.3,0-0.4-0.1s-0.2-0.1-0.3-0.2c-0.3-0.3-0.4-0.7-0.2-1.1c0.1-0.1,0.1-0.2,0.2-0.3
		c0.3-0.3,0.7-0.4,1.1-0.2c0.1,0,0.2,0.1,0.3,0.2c0.2,0.2,0.3,0.4,0.3,0.7c0,0.3-0.1,0.5-0.3,0.7C99.8,78.7,99.6,78.8,99.3,78.8z"/>
	<path class="st2" d="M110.9,75.7c-0.2,0-0.3,0-0.5-0.1l-6.3-3.6c-0.5-0.3-0.6-0.9-0.4-1.4c0.2-0.3,0.4-0.4,0.7-0.5l8-1
		c0.5-0.1,1,0.3,1.1,0.9c0,0.2,0,0.3-0.1,0.5l-1.7,4.6c-0.1,0.3-0.3,0.5-0.6,0.6C111.2,75.7,111.1,75.7,110.9,75.7z M107.7,71.7
		l2.7,1.6l0.7-2L107.7,71.7z"/>
	<path class="st1" d="M20.2,124.2c-0.3,0-0.5-0.1-0.7-0.3c-0.2-0.2-0.3-0.4-0.3-0.7c0-0.1,0-0.1,0-0.2s0-0.1,0.1-0.2
		s0.1-0.1,0.1-0.2s0.1-0.1,0.1-0.2c0.4-0.4,1-0.4,1.4,0c0.2,0.2,0.3,0.4,0.3,0.7c0,0.1,0,0.3-0.1,0.4s-0.1,0.2-0.2,0.3
		C20.7,124.1,20.5,124.2,20.2,124.2z"/>
	<path class="st1" d="M24.7,120.6c-0.3-0.5-0.1-1.1,0.3-1.4l0,0l0,0c0.5-0.3,1.1-0.1,1.4,0.4l0,0l0,0c0.3,0.5,0.1,1.1-0.4,1.4l0,0
		c-0.2,0.1-0.3,0.1-0.5,0.1l0,0C25.2,121.1,24.8,120.9,24.7,120.6z M30,117.6c-0.3-0.5-0.1-1.1,0.3-1.4l0,0l0,0
		c0.5-0.3,1.1-0.1,1.4,0.4l0,0l0,0c0.3,0.5,0.1,1.1-0.4,1.4l0,0c-0.2,0.1-0.3,0.1-0.5,0.1l0,0C30.5,118.1,30.1,117.9,30,117.6z
		 M35.2,114.5c-0.3-0.5-0.1-1.1,0.4-1.4l0,0c0.5-0.3,1.1-0.1,1.4,0.4l0,0l0,0c0.3,0.5,0.1,1.1-0.4,1.4l0,0c-0.2,0.1-0.3,0.1-0.5,0.1
		l0,0C35.8,115,35.4,114.8,35.2,114.5z"/>
	<path class="st1" d="M41.4,111.9c-0.3,0-0.5-0.1-0.7-0.3c-0.2-0.2-0.3-0.4-0.3-0.7c0-0.1,0-0.3,0.1-0.4c0-0.1,0.1-0.2,0.2-0.3
		c0,0,0.1-0.1,0.2-0.1L41,110c0.1,0,0.1,0,0.2-0.1c0.3-0.1,0.7,0,0.9,0.3c0.1,0.1,0.2,0.2,0.2,0.3c0.1,0.1,0.1,0.2,0.1,0.4
		c0,0.1,0,0.3-0.1,0.4c0,0.1-0.1,0.2-0.2,0.3c-0.1,0.1-0.2,0.2-0.3,0.2C41.7,111.9,41.5,111.9,41.4,111.9z"/>
	<path class="st2" d="M15.3,127c-0.6,0-1-0.4-1-1c0-0.1,0-0.2,0.1-0.3l1.7-4.6c0.2-0.5,0.8-0.8,1.3-0.6c0.1,0,0.1,0,0.2,0.1l6.3,3.6
		c0.5,0.3,0.6,0.9,0.4,1.4c-0.2,0.3-0.4,0.5-0.7,0.5l-8,1C15.4,127,15.4,127,15.3,127z M17.6,122.8l-0.7,2l3.4-0.4L17.6,122.8z"/>
	<path class="st1" d="M106.9,124.2c-0.5,0-1-0.4-1-1l0,0c0-0.1,0-0.1,0-0.2s0-0.1,0.1-0.2c0-0.1,0.1-0.1,0.1-0.2s0.1-0.1,0.1-0.2
		c0.4-0.4,1-0.4,1.4,0c0.1,0,0.1,0.1,0.1,0.2s0.1,0.1,0.1,0.2s0,0.1,0.1,0.2c0,0.1,0,0.1,0,0.2C107.9,123.7,107.5,124.2,106.9,124.2
		L106.9,124.2z"/>
	<path class="st1" d="M101.1,121c-0.5-0.3-0.6-0.9-0.4-1.4l0,0l0,0c0.3-0.5,0.9-0.6,1.3-0.4l0,0l0,0c0.5,0.3,0.6,0.9,0.4,1.3l0,0
		l0,0c-0.2,0.3-0.5,0.5-0.9,0.5l0,0C101.4,121.1,101.3,121.1,101.1,121z M95.8,117.9c-0.5-0.3-0.6-0.9-0.4-1.4l0,0l0,0
		c0.3-0.5,0.9-0.6,1.4-0.4l0,0l0,0c0.5,0.3,0.6,0.9,0.4,1.3l0,0l0,0c-0.2,0.3-0.5,0.5-0.9,0.5l0,0C96.1,118.1,96,118,95.8,117.9z
		 M90.5,114.9c-0.5-0.3-0.6-0.9-0.4-1.4l0,0c0.3-0.5,0.9-0.6,1.4-0.4l0,0l0,0c0.5,0.3,0.6,0.9,0.4,1.4l0,0l0,0
		c-0.2,0.3-0.5,0.5-0.9,0.5l0,0C90.8,115,90.7,115,90.5,114.9z"/>
	<path class="st1" d="M85.7,111.9c-0.3,0-0.5-0.1-0.7-0.3c-0.1-0.1-0.2-0.2-0.2-0.3c-0.1-0.1-0.1-0.3-0.1-0.4s0-0.3,0.1-0.4
		c0-0.1,0.1-0.2,0.2-0.3c0,0,0.1-0.1,0.2-0.1l0.2-0.1c0.1,0,0.1,0,0.2-0.1c0.2,0,0.4,0,0.6,0.1c0.1,0.1,0.2,0.1,0.3,0.2
		c0.1,0.1,0.2,0.2,0.2,0.3c0.1,0.1,0.1,0.2,0.1,0.4c0,0.1,0,0.3-0.1,0.4c0,0.1-0.1,0.2-0.2,0.3c-0.1,0.1-0.2,0.2-0.3,0.2
		C86,111.9,85.8,111.9,85.7,111.9z"/>
	<path class="st2" d="M111.8,127L111.8,127l-8.1-1c-0.5-0.1-0.9-0.6-0.9-1.1c0-0.3,0.2-0.6,0.5-0.7l6.3-3.6c0.5-0.3,1.1-0.1,1.4,0.4
		c0,0,0.1,0.1,0.1,0.2l1.7,4.6c0.2,0.5-0.1,1.1-0.6,1.3C112,127,111.9,127,111.8,127L111.8,127z M106.8,124.4l3.4,0.4l-0.7-2
		L106.8,124.4z"/>
	<path class="st3" d="M99.3,67.4c-0.3,0-0.5-0.1-0.7-0.3c-0.1-0.1-0.2-0.2-0.2-0.3c-0.1-0.2-0.1-0.5,0-0.8c0-0.1,0.1-0.2,0.2-0.3
		c0,0,0.1-0.1,0.2-0.1s0.1-0.1,0.2-0.1s0.1,0,0.2-0.1c0.1,0,0.3,0,0.4,0s0.1,0,0.2,0.1c0.1,0,0.1,0.1,0.2,0.1s0.1,0.1,0.2,0.1
		c0.1,0.1,0.2,0.2,0.2,0.3c0.1,0.2,0.1,0.5,0,0.8c0,0.1-0.1,0.2-0.2,0.3c-0.1,0.1-0.2,0.2-0.3,0.2C99.6,67.4,99.4,67.4,99.3,67.4z"
		/>
	<path class="st3" d="M98.3,59.3c0-0.5,0.4-1,1-1l0,0l0,0c0.6,0,1,0.4,1,1l0,0c0,0.6-0.4,1-1,1l0,0C98.8,60.3,98.3,59.8,98.3,59.3z"
		/>
	<path class="st3" d="M99.3,53.2c-0.3,0-0.5-0.1-0.7-0.3c-0.1-0.1-0.2-0.2-0.2-0.3s-0.1-0.2-0.1-0.4c0-0.3,0.1-0.5,0.3-0.7
		c0,0,0.1-0.1,0.2-0.1s0.1-0.1,0.2-0.1s0.1,0,0.2-0.1c0.1,0,0.3,0,0.4,0s0.1,0,0.2,0.1c0.1,0,0.1,0.1,0.2,0.1s0.1,0.1,0.2,0.1
		c0.2,0.2,0.3,0.4,0.3,0.7c0,0.1,0,0.3-0.1,0.4c-0.1,0.2-0.3,0.4-0.5,0.5C99.6,53.1,99.4,53.2,99.3,53.2z"/>
	<path class="st3" d="M29.5,69.6c-0.1,0-0.3,0-0.4-0.1c-0.1,0-0.2-0.1-0.3-0.2c-0.1-0.1-0.2-0.2-0.2-0.3c0-0.1-0.1-0.2-0.1-0.4
		c0-0.3,0.1-0.5,0.3-0.7c0.1-0.1,0.2-0.2,0.3-0.2c0.2-0.1,0.5-0.1,0.8,0s0.4,0.3,0.5,0.5s0.1,0.5,0,0.8c0,0.1-0.1,0.2-0.2,0.3
		c-0.1,0.1-0.2,0.2-0.3,0.2C29.8,69.6,29.7,69.6,29.5,69.6z"/>
	<path class="st3" d="M28.5,61.3c0-0.6,0.4-1,1-1l0,0c0.6,0,1,0.5,1,1l0,0c0,0.5-0.5,1-1,1l0,0l0,0C29,62.3,28.6,61.9,28.5,61.3
		C28.6,61.3,28.6,61.3,28.5,61.3z"/>
	<path class="st3" d="M29.5,55.1c-0.3,0-0.5-0.1-0.7-0.3s-0.3-0.4-0.3-0.7c0-0.1,0-0.1,0-0.2c0-0.1,0-0.1,0.1-0.2
		c0-0.1,0.1-0.1,0.1-0.2c0-0.1,0.1-0.1,0.1-0.2c0.1-0.1,0.2-0.2,0.3-0.2c0.4-0.2,0.8-0.1,1.1,0.2l0.1,0.2c0,0.1,0.1,0.1,0.1,0.2
		c0,0.1,0,0.1,0.1,0.2c0,0.1,0,0.1,0,0.2c0,0.3-0.1,0.5-0.3,0.7C30.1,55,29.8,55.1,29.5,55.1z"/>
	<path class="st0" d="M97,82.9L67.2,65.7c-0.4-0.3-1-0.4-1.5-0.1l0,0L30.3,86l32.8,30.3l35.4-20.4l0,0c0.6-0.4,0.9-1.1,0.8-1.8v-6.8
		C99.3,85.6,98.4,83.9,97,82.9z"/>
	<path class="st3" d="M63.1,117.4c-0.3,0-0.5-0.1-0.7-0.3L29.6,86.8c-0.4-0.4-0.4-1-0.1-1.4c0.1-0.1,0.1-0.1,0.2-0.2l35.4-20.4
		c0.1,0,0.1-0.1,0.2-0.1c0.8-0.3,1.6-0.2,2.3,0.2l29.8,17.2c1.7,1.2,2.8,3.2,2.8,5.3v6.8c0.1,1-0.3,2-1.1,2.6
		c-0.1,0.1-0.1,0.1-0.2,0.1l-35.4,20.4C63.5,117.3,63.3,117.4,63.1,117.4z M32,86.2l31.3,28.9l34.6-20L98,95c0.1-0.1,0.3-0.3,0.3-1
		v-6.8c0-1.4-0.7-2.7-1.8-3.5l0,0L66.7,66.6c-0.1-0.1-0.4-0.2-0.5-0.1c0,0-0.1,0.1-0.2,0.1L32,86.2z"/>
	<path class="st2" d="M98.5,95.9c0.6-0.4,0.9-1.1,0.8-1.8v-6.8c0-1.4-0.6-2.8-1.6-3.8l-42,24.2l2.3,4l5,4.7L98.5,95.9L98.5,95.9z"/>
	<path class="st3" d="M63.1,117.4c-0.3,0-0.5-0.1-0.7-0.3L29.6,86.8c-0.4-0.4-0.4-1-0.1-1.4c0.1-0.1,0.1-0.1,0.2-0.2l35.4-20.4
		c0.1,0,0.1-0.1,0.2-0.1c0.8-0.3,1.6-0.2,2.3,0.2l29.8,17.2c1.7,1.2,2.8,3.2,2.8,5.3v6.8c0.1,1-0.3,2-1.1,2.6
		c-0.1,0.1-0.1,0.1-0.2,0.1l-35.4,20.4C63.5,117.3,63.3,117.4,63.1,117.4z M32,86.2l31.3,28.9l34.6-20L98,95c0.1-0.1,0.3-0.3,0.3-1
		v-6.8c0-1.4-0.7-2.7-1.8-3.5l0,0L66.7,66.6c-0.1-0.1-0.4-0.2-0.5-0.1c0,0-0.1,0.1-0.2,0.1L32,86.2z"/>
	<path class="st2" d="M31.8,99.1l29.8,17.2c1.3,0.7,2.3,0,2.3-1.7v-6.8c0-1.7-0.9-3.4-2.3-4.4L31.8,86.2c-1.3-0.7-2.3,0-2.3,1.7v6.8
		C29.6,96.4,30.4,98,31.8,99.1z"/>
	<path class="st1" d="M63.9,111.6c-0.6,0-1-0.4-1-1v-2.9c0-1.4-0.7-2.7-1.8-3.5L34.2,88.7c-0.5-0.3-0.6-0.9-0.4-1.4
		c0.3-0.5,0.9-0.6,1.4-0.4l26.9,15.5c1.7,1.2,2.8,3.2,2.8,5.3v2.9C64.9,111.2,64.5,111.6,63.9,111.6L63.9,111.6z"/>
	<path class="st4" d="M62.5,117.5c-0.5,0-1-0.1-1.4-0.4L31.3,99.9c-1.7-1.2-2.8-3.2-2.8-5.3v-6.8c-0.1-1,0.3-2,1.1-2.6
		c0.1-0.1,0.1-0.1,0.2-0.1l35.4-20.4c0.1,0,0.1-0.1,0.2-0.1c0.8-0.3,1.6-0.2,2.3,0.2L97.5,82l0,0c1.7,1.2,2.8,3.2,2.8,5.3v6.8
		c0.1,1-0.3,2-1.1,2.6c-0.1,0.1-0.1,0.1-0.2,0.1l-35.4,20.4c-0.1,0-0.1,0.1-0.2,0.1C63.1,117.5,62.8,117.5,62.5,117.5z M31,86.8
		l-0.1,0.1c-0.1,0.1-0.3,0.4-0.3,1v6.8c0,1.4,0.7,2.7,1.8,3.5l29.8,17.2c0.1,0.1,0.4,0.2,0.5,0.1c0,0,0.1-0.1,0.2-0.1L98,95.1
		l0.1-0.1c0.1-0.1,0.3-0.3,0.3-1v-6.8c0-1.4-0.7-2.7-1.8-3.5L66.7,66.6c-0.1-0.1-0.4-0.2-0.5-0.1c0,0-0.1,0.1-0.2,0.1L31,86.8z"/>
	<path class="st0" d="M69.1,108.3c-0.6,0-1-0.4-1-1c0-0.4,0.2-0.7,0.5-0.9l0.8-0.5c0.5-0.3,1.1-0.1,1.4,0.4s0.1,1.1-0.4,1.4l0,0
		l-0.8,0.5C69.4,108.2,69.2,108.3,69.1,108.3z"/>
	<path class="st0" d="M86.8,98c-0.6,0-1-0.4-1-1c0-0.4,0.2-0.7,0.5-0.9l6.7-3.8c0.5-0.3,1.1-0.1,1.4,0.4s0.1,1.1-0.4,1.4l0,0
		l-6.7,3.8C87.2,98,87,98,86.8,98z"/>
	<path class="st1" d="M48,102.9c-0.2,0-0.3,0-0.5-0.1l-2.5-1.4c-0.5-0.3-0.6-0.9-0.4-1.4c0.3-0.5,0.9-0.6,1.4-0.4l2.5,1.4
		c0.5,0.3,0.6,0.9,0.4,1.4C48.7,102.7,48.3,102.9,48,102.9z"/>
	<path class="st5" d="M65,90.3c-4.9,0-8.7-2.4-8.7-5.5s3.8-5.5,8.7-5.5s8.7,2.4,8.7,5.5S69.9,90.3,65,90.3z M65,81.4
		c-4,0-6.7,1.8-6.7,3.5s2.8,3.5,6.7,3.5c4,0,6.7-1.8,6.7-3.5S68.9,81.4,65,81.4L65,81.4z"/>
	<path class="st0" d="M97,70L67.2,52.8c-0.4-0.3-1-0.4-1.5-0.1l0,0L30.3,73.2l32.8,30.3L98.5,83l0,0c0.6-0.4,0.9-1.1,0.8-1.8v-6.8
		C99.3,72.7,98.4,71.1,97,70z"/>
	<path class="st3" d="M63.1,104.5c-0.3,0-0.5-0.1-0.7-0.3L29.6,73.9c-0.4-0.4-0.4-1-0.1-1.4c0.1-0.1,0.1-0.1,0.2-0.2l35.4-20.4
		c0.1,0,0.1-0.1,0.2-0.1c0.8-0.3,1.6-0.2,2.3,0.2l29.8,17.2l0,0c1.7,1.2,2.8,3.2,2.8,5.3v6.8c0.1,1-0.3,2-1.1,2.6
		C99,84,99,84,98.9,84l-35.4,20.4C63.5,104.4,63.3,104.5,63.1,104.5z M32,73.3l31.3,28.9l34.6-20l0.1-0.1c0.1-0.1,0.3-0.4,0.3-1
		v-6.8c0-1.4-0.7-2.7-1.8-3.5L66.7,53.7c-0.1-0.1-0.4-0.2-0.5-0.1c0,0-0.1,0.1-0.2,0.1L32,73.3z"/>
	<path class="st2" d="M98.5,83c0.6-0.4,0.9-1.1,0.8-1.8v-6.8c0-1.4-0.6-2.8-1.6-3.8l-42,24.2l2.3,4l5,4.7L98.5,83L98.5,83z"/>
	<path class="st3" d="M63.1,104.5c-0.3,0-0.5-0.1-0.7-0.3L29.6,73.9c-0.4-0.4-0.4-1-0.1-1.4c0.1-0.1,0.1-0.1,0.2-0.2l35.4-20.4
		c0.1,0,0.1-0.1,0.2-0.1c0.8-0.3,1.6-0.2,2.3,0.2l29.8,17.2l0,0c1.7,1.2,2.8,3.2,2.8,5.3v6.8c0.1,1-0.3,2-1.1,2.6
		C99,84,99,84,98.9,84l-35.4,20.4C63.5,104.4,63.3,104.5,63.1,104.5z M32,73.3l31.3,28.9l34.6-20l0.1-0.1c0.1-0.1,0.3-0.4,0.3-1
		v-6.8c0-1.4-0.7-2.7-1.8-3.5L66.7,53.7c-0.1-0.1-0.4-0.2-0.5-0.1c0,0-0.1,0.1-0.2,0.1L32,73.3z"/>
	<path class="st2" d="M31.8,86.2l29.8,17.2c1.3,0.7,2.3,0,2.3-1.7v-6.8c0-1.7-0.9-3.4-2.3-4.4L31.8,73.3c-1.3-0.7-2.3,0-2.3,1.7v6.8
		C29.6,83.5,30.4,85.1,31.8,86.2z"/>
	<path class="st1" d="M63.9,98.8c-0.6,0-1-0.4-1-1v-2.9c0-1.4-0.7-2.7-1.8-3.5L34.2,75.8c-0.5-0.3-0.6-0.9-0.4-1.4
		c0.3-0.5,0.9-0.6,1.4-0.4l26.9,15.5c1.7,1.2,2.8,3.2,2.8,5.3v2.9C64.9,98.3,64.5,98.8,63.9,98.8L63.9,98.8z"/>
	<path class="st4" d="M62.5,104.6c-0.5,0-1-0.1-1.4-0.4L31.3,87c-1.7-1.2-2.8-3.2-2.8-5.3V75c-0.1-1,0.3-2,1.1-2.6
		c0.1-0.1,0.1-0.1,0.2-0.1l35.4-20.4c0.1,0,0.1-0.1,0.2-0.1c0.8-0.3,1.6-0.2,2.3,0.2l29.8,17.2l0,0c1.7,1.2,2.8,3.2,2.8,5.3v6.8
		c0.1,1-0.3,2-1.1,2.6C99.1,84,99.1,84,99,84l-35.4,20.4c-0.1,0-0.1,0.1-0.2,0.1C63.1,104.6,62.8,104.6,62.5,104.6z M31,73.9
		L30.9,74c-0.1,0.1-0.3,0.3-0.3,1v6.8c0,1.4,0.7,2.7,1.8,3.5l29.8,17.2c0.1,0.1,0.4,0.2,0.5,0.1c0,0,0.1-0.1,0.2-0.1L98,82.2
		l0.1-0.1c0.1-0.1,0.3-0.4,0.3-1v-6.8c0-1.4-0.7-2.7-1.8-3.5L66.7,53.7c-0.1-0.1-0.4-0.2-0.5-0.1c0,0-0.1,0.1-0.2,0.1L31,73.9z"/>
	<path class="st0" d="M69.1,95.4c-0.6,0-1-0.4-1-1c0-0.4,0.2-0.7,0.5-0.9l0.8-0.5c0.5-0.3,1.1-0.1,1.4,0.4s0.1,1.1-0.4,1.4l-0.8,0.5
		C69.4,95.4,69.2,95.4,69.1,95.4z"/>
	<path class="st0" d="M86.8,85.2c-0.6,0-1-0.4-1-1c0-0.4,0.2-0.7,0.5-0.9l6.7-3.8c0.5-0.3,1.1-0.1,1.4,0.4s0.1,1.1-0.4,1.4l0,0
		L87.3,85C87.2,85.1,87,85.2,86.8,85.2z"/>
	<path class="st1" d="M48,90c-0.2,0-0.3,0-0.5-0.1L45,88.5c-0.5-0.3-0.6-0.9-0.4-1.4s0.9-0.6,1.4-0.4l2.5,1.4
		c0.5,0.3,0.6,0.9,0.4,1.4C48.7,89.8,48.3,90,48,90z"/>
	<path class="st5" d="M65,77.4c-4.9,0-8.7-2.4-8.7-5.5s3.8-5.5,8.7-5.5s8.7,2.4,8.7,5.5S69.9,77.4,65,77.4z M65,68.5
		c-4,0-6.7,1.8-6.7,3.5s2.8,3.5,6.7,3.5c4,0,6.7-1.8,6.7-3.5S68.9,68.5,65,68.5z"/>
	<path class="st0" d="M93.7,14c-1,0-1.9,0.8-1.9,1.9v23.4c0,0.6,0.8,1.1,1.9,1.1s1.9-0.5,1.9-1.1V15.9C95.5,14.9,94.7,14,93.7,14
		L93.7,14z"/>
	<path class="st5" d="M93.7,40.4L93.7,40.4c-1,0-1.9-0.5-1.9-1.1v-23c0-0.5,0.4-0.9,0.9-0.9l0,0c0.5,0,0.9,0.4,0.9,0.9l0,0
		L93.7,40.4L93.7,40.4z"/>
	<path class="st3" d="M93.7,41.4c-1.6,0-2.9-0.9-2.9-2.1V15.9c0-1.6,1.3-2.9,2.9-2.9s2.9,1.3,2.9,2.9l0,0v23.4
		C96.5,40.5,95.3,41.4,93.7,41.4z M92.8,39.2c0.5,0.3,1.2,0.3,1.7,0V15.9c0-0.5-0.4-0.9-0.9-0.9s-0.9,0.4-0.9,0.9l0,0v23.3H92.8z"/>
	<path class="st3" d="M93.7,26.5c-1.6,0-2.9-0.9-2.9-2.1c0-0.6,0.4-1,1-1c0.5,0,0.9,0.4,1,0.9c0.5,0.3,1.2,0.3,1.7,0
		c0.1-0.5,0.6-0.9,1.1-0.8s0.9,0.5,0.9,1C96.5,25.6,95.3,26.5,93.7,26.5z"/>
	<path class="st3" d="M72.8,29.3c-1.6,0-2.9-0.9-2.9-2.1V3.9C70,2.3,71.3,1,72.8,1c1.6,0,2.9,1.3,2.9,2.9l0,0v23.4
		C75.7,28.5,74.5,29.3,72.8,29.3z M72,27.1c0.5,0.3,1.2,0.3,1.7,0V3.9c0-0.5-0.4-0.9-0.9-0.9C72.4,3,72,3.4,72,3.9l0,0V27.1z"/>
	<path class="st5" d="M72.8,28.3L72.8,28.3c-1,0-1.9-0.5-1.9-1.1v-23c0-0.5,0.4-0.9,0.9-0.9l0,0l0,0c0.5,0,0.9,0.4,0.9,0.9l0,0
		L72.8,28.3L72.8,28.3z"/>
	<path class="st3" d="M72.8,29.3c-1.6,0-2.9-0.9-2.9-2.1V3.9C70,2.3,71.3,1,72.8,1c1.6,0,2.9,1.3,2.9,2.9l0,0v23.4
		C75.7,28.5,74.5,29.3,72.8,29.3z M72,27.1c0.5,0.3,1.2,0.3,1.7,0V3.9c0-0.5-0.4-0.9-0.9-0.9C72.4,3,72,3.4,72,3.9l0,0V27.1z"/>
	<path class="st3" d="M72.8,14.5c-1.6,0-2.9-0.9-2.9-2.1c0-0.6,0.4-1,1-1c0.5,0,0.9,0.4,1,0.9c0.5,0.3,1.2,0.3,1.7,0
		c0.1-0.5,0.6-0.9,1.1-0.8c0.5,0.1,0.9,0.5,0.9,1C75.7,13.6,74.5,14.5,72.8,14.5z"/>
	<path class="st0" d="M97.1,34.6L67.2,17.4c-0.4-0.3-1-0.4-1.5-0.1l0,0L30.3,37.7L63.1,68l35.4-20.4l0,0c0.6-0.4,0.9-1.1,0.8-1.8V39
		C99.3,37.2,98.5,35.6,97.1,34.6z"/>
	<path class="st3" d="M63.1,69.1c-0.3,0-0.5-0.1-0.7-0.3L29.7,38.4c-0.4-0.4-0.4-1-0.1-1.4c0.1-0.1,0.1-0.1,0.2-0.2l35.4-20.4
		c0.1,0,0.1-0.1,0.2-0.1c0.8-0.3,1.6-0.2,2.3,0.2l29.8,17.2l0,0c1.7,1.2,2.8,3.2,2.8,5.3v6.8c0.1,1-0.3,2-1.1,2.6
		c-0.1,0.1-0.1,0.1-0.2,0.1L63.6,68.9C63.5,69,63.3,69.1,63.1,69.1z M32,37.9l31.3,28.9l34.6-20l0.1-0.1c0.1-0.1,0.3-0.3,0.3-1V39
		c0-1.4-0.7-2.7-1.8-3.5L66.8,18.3c-0.1-0.1-0.4-0.2-0.5-0.1c0,0-0.1,0.1-0.2,0.1L32,37.9z"/>
	<path class="st5" d="M98.5,47.6c0.6-0.4,0.9-1.1,0.8-1.8V39c0-1.4-0.6-2.8-1.6-3.8l-42,24.2l2.3,4l5,4.7L98.5,47.6L98.5,47.6z"/>
	<path class="st3" d="M63.1,69.1c-0.3,0-0.5-0.1-0.7-0.3L29.7,38.4c-0.4-0.4-0.4-1-0.1-1.4c0.1-0.1,0.1-0.1,0.2-0.2l35.4-20.4
		c0.1,0,0.1-0.1,0.2-0.1c0.8-0.3,1.6-0.2,2.3,0.2l29.8,17.2l0,0c1.7,1.2,2.8,3.2,2.8,5.3v6.8c0.1,1-0.3,2-1.1,2.6
		c-0.1,0.1-0.1,0.1-0.2,0.1L63.6,68.9C63.5,69,63.3,69.1,63.1,69.1z M32,37.9l31.3,28.9l34.6-20l0.1-0.1c0.1-0.1,0.3-0.3,0.3-1V39
		c0-1.4-0.7-2.7-1.8-3.5L66.8,18.3c-0.1-0.1-0.4-0.2-0.5-0.1c0,0-0.1,0.1-0.2,0.1L32,37.9z"/>
	<path class="st5" d="M31.8,50.7l29.8,17.2c1.3,0.7,2.3,0,2.3-1.7v-6.8c0-1.7-0.9-3.4-2.3-4.4L31.8,37.8c-1.3-0.7-2.3,0-2.3,1.7v6.8
		C29.6,48.1,30.4,49.7,31.8,50.7z"/>
	<path class="st6" d="M63.9,63.3c-0.6,0-1-0.4-1-1v-2.9c0-1.4-0.7-2.7-1.8-3.5L34.2,40.4c-0.5-0.3-0.6-0.9-0.4-1.4s0.9-0.6,1.4-0.4
		l26.9,15.5c1.7,1.2,2.8,3.2,2.8,5.3v2.9C64.9,62.9,64.5,63.3,63.9,63.3z"/>
	<path class="st3" d="M62.5,69.2c-0.5,0-1-0.1-1.4-0.4L31.3,51.6c-1.7-1.2-2.8-3.2-2.8-5.3v-6.8c-0.1-1,0.3-2,1.1-2.6
		c0.1-0.1,0.1-0.1,0.2-0.1l35.4-20.4c0.1,0,0.1-0.1,0.2-0.1c0.8-0.3,1.6-0.2,2.3,0.2l29.8,17.2c1.7,1.2,2.8,3.2,2.8,5.3v6.8
		c0.1,1-0.3,2-1.1,2.6c-0.1,0.1-0.1,0.1-0.2,0.1L63.6,68.9c-0.1,0-0.1,0.1-0.2,0.1C63.1,69.1,62.8,69.2,62.5,69.2z M31,38.5
		l-0.1,0.1c-0.1,0.1-0.3,0.3-0.3,1v6.8c0,1.4,0.7,2.7,1.8,3.5l29.8,17.2c0.1,0.1,0.4,0.2,0.5,0.1c0,0,0.1-0.1,0.2-0.1L98,46.8
		l0.1-0.1c0.1-0.1,0.3-0.3,0.3-1V39c0-1.4-0.7-2.7-1.8-3.5L66.8,18.3c-0.1-0.1-0.4-0.2-0.5-0.1c0,0-0.1,0.1-0.2,0.1L31,38.5z"/>
	<path class="st0" d="M69.1,60c-0.6,0-1-0.4-1-1c0-0.4,0.2-0.7,0.5-0.9l0.8-0.5c0.5-0.3,1.1-0.1,1.4,0.4s0.1,1.1-0.4,1.4l0,0
		l-0.8,0.5C69.4,59.9,69.3,60,69.1,60z"/>
	<path class="st0" d="M86.8,49.7c-0.6,0-1-0.4-1-1c0-0.4,0.2-0.7,0.5-0.9L93,44c0.5-0.3,1.1-0.1,1.4,0.4s0.1,1.1-0.4,1.4l0,0
		l-6.7,3.8C87.2,49.7,87,49.7,86.8,49.7z"/>
	<path class="st6" d="M48,54.6c-0.2,0-0.3,0-0.5-0.1L45,53c-0.5-0.3-0.6-0.9-0.4-1.4c0.3-0.5,0.9-0.6,1.4-0.4l0,0l2.5,1.4
		c0.5,0.3,0.6,0.9,0.4,1.4C48.7,54.4,48.3,54.6,48,54.6z"/>
	<path class="st5" d="M65,42c-4.9,0-8.7-2.4-8.7-5.5S60.1,31,65,31s8.7,2.4,8.7,5.5S69.9,42,65,42z M65,33.1c-4,0-6.7,1.8-6.7,3.5
		S61,40,65,40s6.7-1.8,6.7-3.5S69,33.1,65,33.1L65,33.1z"/>
	<rect x="1" y="1" class="st7" width="126" height="126"/>
	<rect class="st7" width="128" height="128"/>
</g>
</svg>
