<?xml version="1.0" encoding="utf-8"?>
<!-- Generator: Adobe Illustrator 24.1.0, SVG Export Plug-In . SVG Version: 6.00 Build 0)  -->
<svg version="1.1" id="Layer_1" xmlns="http://www.w3.org/2000/svg" xmlns:xlink="http://www.w3.org/1999/xlink" x="0px" y="0px"
	 viewBox="0 0 128 128" style="enable-background:new 0 0 128 128;" xml:space="preserve">
<style type="text/css">
	.st0{fill:#4D9987;}
	.st1{fill:#E9EBDF;}
	.st2{fill:#185849;}
	.st3{fill:#FFFFFF;}
	.st4{fill:#0E352C;}
	.st5{fill:#C4D7D3;}
	.st6{fill:#27ae60;}
	.st7{fill:none;}
</style>
<g>
	<path class="st0" d="M11,62.6c-0.3,0-0.5-0.1-0.7-0.3c-0.4-0.4-0.4-1,0-1.4s1-0.4,1.4,0c0.2,0.2,0.3,0.4,0.3,0.7c0,0.1,0,0.1,0,0.2
		c0,0.1,0,0.1-0.1,0.2c0,0.1-0.1,0.1-0.1,0.2c0,0.1-0.1,0.1-0.1,0.2C11.5,62.5,11.3,62.6,11,62.6z"/>
	<path class="st0" d="M37.2,77.9c-0.5-0.3-0.6-0.9-0.4-1.3l0,0l0,0c0.3-0.5,0.9-0.6,1.4-0.4l0,0c0.5,0.3,0.6,0.9,0.4,1.4l0,0
		C38.3,77.8,38,78,37.7,78l0,0C37.5,78,37.3,78,37.2,77.9z M31.8,74.8c-0.5-0.3-0.6-0.9-0.4-1.4l0,0l0,0c0.3-0.5,0.9-0.6,1.3-0.4
		l0,0l0,0c0.5,0.3,0.6,0.9,0.4,1.3l0,0l0,0c-0.2,0.3-0.5,0.5-0.9,0.5l0,0C32.1,74.9,31.9,74.8,31.8,74.8z M26.4,71.6
		c-0.5-0.3-0.6-0.9-0.4-1.3l0,0l0,0c0.3-0.5,0.9-0.6,1.4-0.4l0,0l0,0c0.5,0.3,0.6,0.9,0.4,1.4l0,0l0,0c-0.2,0.3-0.5,0.5-0.9,0.5l0,0
		C26.7,71.8,26.5,71.7,26.4,71.6z M21,68.5c-0.5-0.3-0.6-0.9-0.4-1.3l0,0l0,0c0.3-0.5,0.9-0.6,1.4-0.4l0,0c0.5,0.3,0.6,0.9,0.4,1.4
		l0,0l0,0c-0.2,0.3-0.5,0.5-0.9,0.5l0,0C21.3,68.7,21.1,68.6,21,68.5z M15.6,65.4c-0.5-0.3-0.6-0.9-0.4-1.4l0,0
		c0.3-0.5,0.9-0.6,1.4-0.4l0,0l0,0c0.5,0.3,0.6,0.9,0.4,1.4l0,0l0,0c-0.2,0.3-0.5,0.5-0.9,0.5l0,0C15.9,65.5,15.7,65.5,15.6,65.4
		L15.6,65.4z"/>
	<path class="st0" d="M41.4,80.2c-0.1,0-0.3,0-0.4-0.1c-0.1,0-0.2-0.1-0.3-0.2c0,0-0.1-0.1-0.1-0.2s-0.1-0.1-0.1-0.2s0-0.1-0.1-0.2
		c0-0.1,0-0.1,0-0.2s0-0.3,0.1-0.4c0.1-0.2,0.3-0.4,0.5-0.5s0.5-0.1,0.8,0c0.1,0,0.2,0.1,0.3,0.2s0.2,0.2,0.2,0.3
		c0,0.1,0.1,0.2,0.1,0.4c0,0.1,0,0.1,0,0.2s0,0.1,0,0.2s-0.1,0.1-0.1,0.2s-0.1,0.1-0.1,0.2C42,80,41.9,80,41.8,80.1
		C41.6,80.1,41.5,80.2,41.4,80.2z"/>
	<path class="st1" d="M8,64.3c-0.4,0-0.8-0.3-0.9-0.7l-1.6-4.4c-0.2-0.5,0.1-1.1,0.6-1.3C6.2,58,6.4,58,6.5,58l7.6,0.9
		C14.7,59,15,59.5,15,60c0,0.3-0.2,0.6-0.5,0.7l-5.9,3.4C8.4,64.3,8.2,64.3,8,64.3z M7.9,60.2l0.6,1.7l2.3-1.3L7.9,60.2z"/>
	<path class="st0" d="M117,62.6c-0.1,0-0.1,0-0.2,0s-0.1,0-0.2-0.1c-0.1,0-0.1-0.1-0.2-0.1s-0.1-0.1-0.2-0.1
		c-0.1-0.1-0.2-0.2-0.2-0.3s-0.1-0.2-0.1-0.4c0-0.3,0.1-0.5,0.3-0.7l0.2-0.1c0.1,0,0.1-0.1,0.2-0.1s0.1,0,0.2-0.1c0.1,0,0.3,0,0.4,0
		s0.1,0,0.2,0.1c0.1,0,0.1,0.1,0.2,0.1s0.1,0.1,0.1,0.1c0.2,0.2,0.3,0.4,0.3,0.7c0,0.1,0,0.3-0.1,0.4c0,0.1-0.1,0.2-0.2,0.3
		l-0.1,0.1c-0.1,0-0.1,0.1-0.2,0.1s-0.1,0.1-0.2,0.1C117.1,62.6,117.1,62.6,117,62.6z"/>
	<path class="st0" d="M89.5,77.5c-0.3-0.5-0.1-1.1,0.4-1.4l0,0l0,0c0.5-0.3,1.1-0.1,1.4,0.4l0,0c0.3,0.5,0.1,1.1-0.4,1.4l0,0l0,0
		C90.7,78,90.5,78,90.3,78l0,0C90,78,89.6,77.8,89.5,77.5z M94.9,74.4c-0.3-0.5-0.1-1.1,0.4-1.4l0,0l0,0c0.5-0.3,1.1-0.1,1.4,0.4
		l0,0l0,0c0.3,0.5,0.1,1.1-0.4,1.4l0,0l0,0c-0.1,0.1-0.3,0.1-0.5,0.1l0,0C95.4,74.9,95,74.7,94.9,74.4z M100.3,71.3
		c-0.3-0.5-0.1-1.1,0.4-1.4l0,0l0,0c0.5-0.3,1.1-0.1,1.4,0.4l0,0l0,0c0.3,0.5,0.1,1.1-0.4,1.4l0,0c-0.2,0.1-0.3,0.1-0.5,0.1l0,0
		C100.8,71.8,100.4,71.6,100.3,71.3z M105.7,68.2c-0.3-0.5-0.1-1.1,0.4-1.4l0,0c0.5-0.3,1.1-0.1,1.4,0.4l0,0
		c0.3,0.5,0.1,1.1-0.4,1.4l0,0c-0.1,0.1-0.3,0.1-0.5,0.1l0,0C106.2,68.7,105.8,68.5,105.7,68.2z M111.1,65c-0.3-0.5-0.1-1.1,0.4-1.4
		l0,0c0.5-0.3,1.1-0.1,1.4,0.4l0,0l0,0c0.3,0.5,0.1,1.1-0.4,1.4l0,0l0,0c-0.2,0.1-0.3,0.1-0.5,0.1l0,0
		C111.6,65.5,111.2,65.3,111.1,65z"/>
	<path class="st0" d="M86.6,80.2c-0.1,0-0.1,0-0.2,0s-0.1,0-0.2-0.1c-0.1,0-0.1-0.1-0.2-0.1s-0.1-0.1-0.1-0.1
		c-0.2-0.2-0.3-0.4-0.3-0.7c0-0.1,0-0.3,0.1-0.4s0.1-0.2,0.2-0.3l0.1-0.1c0.1,0,0.1-0.1,0.2-0.1s0.1,0,0.2-0.1
		c0.3-0.1,0.7,0,0.9,0.3c0.4,0.4,0.4,1,0,1.4C87.1,80,86.9,80.1,86.6,80.2z"/>
	<path class="st1" d="M120,64.3c-0.2,0-0.3,0-0.5-0.1l-5.9-3.4c-0.5-0.3-0.6-0.9-0.4-1.4c0.2-0.3,0.4-0.5,0.7-0.5l7.6-0.9
		c0.5-0.1,1,0.3,1.1,0.9c0,0.2,0,0.3-0.1,0.5l-1.6,4.4C120.8,64.1,120.4,64.3,120,64.3L120,64.3z M117.1,60.5l2.3,1.3l0.6-1.7
		L117.1,60.5z"/>
	<path class="st0" d="M117,124.3c-0.1,0-0.1,0-0.2,0s-0.1,0-0.2-0.1c-0.1,0-0.1-0.1-0.2-0.1l-0.2-0.1c0,0-0.1-0.1-0.1-0.2
		s-0.1-0.1-0.1-0.2s0-0.1-0.1-0.2c0-0.1,0-0.1,0-0.2s0-0.1,0-0.2s0-0.1,0.1-0.2c0-0.1,0.1-0.1,0.1-0.2s0.1-0.1,0.1-0.2
		c0,0,0.1-0.1,0.2-0.1s0.1-0.1,0.2-0.1s0.1,0,0.2-0.1c0.1,0,0.3,0,0.4,0s0.1,0,0.2,0.1c0.1,0,0.1,0.1,0.2,0.1s0.1,0.1,0.1,0.1
		c0.2,0.2,0.3,0.4,0.3,0.7c0,0.3-0.1,0.5-0.3,0.7l-0.1,0.1c-0.1,0-0.1,0.1-0.2,0.1s-0.1,0.1-0.2,0.1
		C117.1,124.3,117.1,124.3,117,124.3z"/>
	<path class="st0" d="M111.8,121.5c-0.5-0.3-0.6-0.9-0.4-1.4l0,0c0.3-0.5,0.9-0.6,1.4-0.4l0,0l0,0c0.5,0.3,0.6,0.9,0.4,1.3l0,0l0,0
		c-0.2,0.3-0.5,0.5-0.9,0.5l0,0C112.1,121.6,111.9,121.6,111.8,121.5z M106.7,118.6c-0.5-0.3-0.6-0.9-0.4-1.4l0,0l0,0
		c0.3-0.5,0.9-0.6,1.4-0.4l0,0c0.5,0.3,0.6,0.9,0.4,1.3l0,0l0,0c-0.2,0.3-0.5,0.5-0.9,0.5l0,0C107,118.7,106.8,118.6,106.7,118.6z
		 M101.6,115.6c-0.5-0.3-0.6-0.9-0.4-1.4l0,0l0,0c0.3-0.5,0.9-0.6,1.4-0.4l0,0c0.5,0.3,0.6,0.9,0.4,1.4l0,0
		c-0.2,0.3-0.5,0.5-0.9,0.5l0,0C102,115.8,101.8,115.7,101.6,115.6z M96.6,112.7c-0.5-0.3-0.6-0.9-0.4-1.3l0,0l0,0
		c0.3-0.5,0.9-0.6,1.3-0.4l0,0l0,0c0.5,0.3,0.6,0.9,0.4,1.4l0,0c-0.2,0.3-0.5,0.5-0.9,0.5l0,0C96.9,112.9,96.7,112.8,96.6,112.7z
		 M91.5,109.8c-0.5-0.3-0.6-0.9-0.4-1.3l0,0l0,0c0.3-0.5,0.9-0.6,1.4-0.4l0,0l0,0c0.5,0.3,0.6,0.9,0.4,1.4l0,0
		c-0.2,0.3-0.5,0.5-0.9,0.5l0,0C91.8,109.9,91.7,109.9,91.5,109.8z M86.5,106.9c-0.5-0.3-0.6-0.9-0.4-1.4l0,0
		c0.3-0.5,0.9-0.6,1.4-0.4l0,0c0.5,0.3,0.6,0.9,0.4,1.4l0,0c-0.2,0.3-0.5,0.5-0.9,0.5l0,0C86.8,107,86.6,107,86.5,106.9L86.5,106.9z
		"/>
	<path class="st0" d="M83.8,105.2c-0.6,0-1-0.5-1-1c0-0.3,0.1-0.5,0.3-0.7c0.4-0.4,1-0.4,1.4,0s0.4,1,0,1.4
		C84.3,105.1,84.1,105.2,83.8,105.2z"/>
	<path class="st0" d="M11,124.3c-0.5,0-1-0.4-1-1l0,0c0-0.1,0-0.3,0.1-0.4c0-0.1,0.1-0.2,0.2-0.3c0.4-0.4,1-0.4,1.4,0
		c0.1,0.1,0.2,0.2,0.2,0.3c0.1,0.1,0.1,0.2,0.1,0.4C12,123.9,11.6,124.3,11,124.3C11,124.4,11,124.4,11,124.3z"/>
	<path class="st0" d="M15.4,120.8c-0.3-0.5-0.1-1.1,0.4-1.4l0,0l0,0c0.5-0.3,1.1-0.1,1.4,0.4l0,0l0,0c0.3,0.5,0.1,1.1-0.4,1.4l0,0
		l0,0c-0.2,0.1-0.3,0.1-0.5,0.1l0,0C15.9,121.3,15.5,121.1,15.4,120.8z M20.9,117.6c-0.3-0.5-0.1-1.1,0.4-1.4l0,0l0,0
		c0.5-0.3,1.1-0.1,1.4,0.4l0,0c0.3,0.5,0.1,1.1-0.4,1.4l0,0c-0.2,0.1-0.3,0.1-0.5,0.1l0,0C21.5,118.1,21.1,117.9,20.9,117.6z
		 M26.5,114.4c-0.3-0.5-0.1-1.1,0.4-1.4l0,0c0.5-0.3,1.1-0.1,1.4,0.4l0,0c0.3,0.5,0.1,1.1-0.3,1.4l0,0l0,0c-0.2,0.1-0.3,0.1-0.5,0.1
		l0,0C27,114.9,26.7,114.7,26.5,114.4z M32.1,111.2c-0.3-0.5-0.1-1.1,0.4-1.4l0,0l0,0c0.5-0.3,1.1-0.1,1.4,0.4l0,0
		c0.3,0.5,0.1,1.1-0.4,1.4l0,0l0,0c-0.2,0.1-0.3,0.1-0.5,0.1l0,0C32.6,111.7,32.3,111.5,32.1,111.2z M37.7,108
		c-0.3-0.5-0.1-1.1,0.4-1.4l0,0l0,0c0.5-0.3,1.1-0.1,1.4,0.4l0,0l0,0c0.3,0.5,0.1,1.1-0.4,1.4l0,0l0,0c-0.2,0.1-0.3,0.1-0.5,0.1l0,0
		C38.2,108.5,37.8,108.3,37.7,108z"/>
	<path class="st0" d="M42.3,106.2c-0.3,0-0.5-0.1-0.7-0.3c-0.2-0.2-0.3-0.4-0.3-0.7c0-0.1,0-0.1,0-0.2s0-0.1,0.1-0.2
		s0.1-0.1,0.1-0.2s0.1-0.1,0.1-0.2c0.2-0.2,0.6-0.3,0.9-0.3c0.1,0,0.1,0,0.2,0.1c0.1,0,0.1,0.1,0.2,0.1c0.1,0,0.1,0.1,0.2,0.1
		c0.1,0,0.1,0.1,0.1,0.2s0.1,0.1,0.1,0.2s0,0.1,0,0.2s0,0.1,0,0.2s0,0.1,0,0.2s0,0.1,0,0.2l-0.1,0.2c0,0.1-0.1,0.1-0.1,0.2
		c0,0-0.1,0.1-0.2,0.1c-0.1,0-0.1,0.1-0.2,0.1c-0.1,0-0.1,0-0.2,0.1C42.5,106.2,42.4,106.3,42.3,106.2z"/>
	<path class="st2" d="M96.8,77.3c-0.3,0-0.5-0.1-0.7-0.3c-0.1-0.1-0.2-0.2-0.2-0.3c-0.1-0.1-0.1-0.2-0.1-0.4c0-0.1,0-0.1,0-0.2
		s0-0.1,0.1-0.2c0-0.1,0.1-0.1,0.1-0.2l0.1-0.2c0.4-0.4,1-0.4,1.4,0l0.1,0.2c0.1,0.1,0.1,0.2,0.2,0.4c0,0.1,0,0.1,0,0.2
		s0,0.3-0.1,0.4c0,0.1-0.1,0.2-0.2,0.3C97.3,77.2,97.1,77.3,96.8,77.3z"/>
	<path class="st2" d="M96.8,71.5c-0.3,0-0.5-0.1-0.7-0.3L96,71c0-0.1-0.1-0.1-0.1-0.2s0-0.1-0.1-0.2c0-0.1,0-0.1,0-0.2
		s0-0.3,0.1-0.4s0.1-0.2,0.2-0.3c0.2-0.2,0.6-0.3,0.9-0.3c0.1,0,0.1,0,0.2,0.1c0.1,0,0.1,0,0.2,0.1c0.1,0,0.1,0.1,0.2,0.1
		c0.1,0.1,0.2,0.2,0.2,0.3c0.1,0.1,0.1,0.2,0.1,0.4c0,0.1,0,0.1,0,0.2s0,0.1-0.1,0.2c0,0.1-0.1,0.1-0.1,0.2l-0.1,0.2
		C97.3,71.4,97.1,71.5,96.8,71.5z"/>
	<path class="st2" d="M95.8,63.7c0-0.6,0.4-1,1-1l0,0c0.6,0,1,0.4,1,1l0,0c0,0.6-0.4,1-1,1l0,0C96.3,64.7,95.8,64.3,95.8,63.7z
		 M95.8,56.9c0-0.6,0.4-1,1-1l0,0c0.6,0,1,0.4,1,1l0,0c0,0.6-0.4,1-1,1l0,0C96.3,57.9,95.8,57.5,95.8,56.9L95.8,56.9z M95.8,50.2
		c0-0.6,0.4-1,1-1l0,0c0.6,0,1,0.4,1,1l0,0c0,0.6-0.4,1-1,1l0,0C96.3,51.2,95.8,50.7,95.8,50.2z"/>
	<path class="st2" d="M96.8,44.4c-0.6,0-1-0.5-1-1c0-0.3,0.1-0.5,0.3-0.7c0.2-0.2,0.6-0.3,0.9-0.3l0.2,0.1c0.1,0,0.1,0.1,0.2,0.1
		s0.1,0.1,0.2,0.1c0.4,0.4,0.4,1,0,1.4C97.3,44.3,97.1,44.4,96.8,44.4z"/>
	<path class="st2" d="M96.8,42.4c-0.6,0-1-0.4-1-1c0-0.3,0.1-0.5,0.3-0.7c0.2-0.2,0.6-0.3,0.9-0.3c0.1,0,0.1,0,0.2,0.1
		c0.1,0,0.1,0,0.2,0.1c0.1,0,0.1,0.1,0.2,0.1c0.4,0.4,0.4,1,0,1.4c-0.1,0-0.1,0.1-0.2,0.1s-0.1,0.1-0.2,0.1s-0.1,0-0.2,0.1
		C96.9,42.4,96.9,42.4,96.8,42.4z"/>
	<path class="st2" d="M31.2,79c-0.6,0-1-0.4-1-1c0-0.3,0.1-0.5,0.3-0.7c0.3-0.3,0.7-0.4,1.1-0.2c0.1,0.1,0.2,0.1,0.3,0.2
		c0,0.1,0.1,0.1,0.1,0.2s0.1,0.1,0.1,0.2s0.1,0.1,0.1,0.2s0,0.1,0,0.2s0,0.1,0,0.2s0,0.1-0.1,0.2c0,0.1,0,0.1-0.1,0.2
		c0,0.1-0.1,0.1-0.1,0.2c-0.1,0.1-0.2,0.2-0.3,0.2C31.4,79,31.3,79,31.2,79z"/>
	<path class="st2" d="M31.2,73.2c-0.6,0-1-0.5-1-1c0-0.6,0.5-1,1-1c0.1,0,0.2,0,0.4,0.1c0.1,0.1,0.2,0.1,0.3,0.2
		c0.4,0.4,0.4,1,0,1.4C31.7,73.1,31.5,73.2,31.2,73.2z"/>
	<path class="st2" d="M30.2,65.1c0-0.6,0.4-1,1-1l0,0c0.6,0,1,0.4,1,1l0,0c0,0.6-0.4,1-1,1l0,0C30.6,66.1,30.2,65.7,30.2,65.1z
		 M30.2,58c0-0.6,0.4-1,1-1l0,0c0.6,0,1,0.4,1,1l0,0c0,0.6-0.4,1-1,1l0,0C30.6,59,30.2,58.6,30.2,58z"/>
	<path class="st2" d="M31.2,51.9c-0.3,0-0.5-0.1-0.7-0.3s-0.3-0.4-0.3-0.7c0-0.6,0.5-1,1-1c0.1,0,0.3,0,0.4,0.1s0.2,0.1,0.3,0.2
		c0,0,0.1,0.1,0.1,0.2c0,0.1,0.1,0.1,0.1,0.2c0,0.1,0.1,0.1,0.1,0.2c0,0.1,0,0.1,0,0.2c0,0.1,0,0.1,0,0.2c0,0.1,0,0.1-0.1,0.2
		c0,0.1,0,0.1-0.1,0.2l-0.1,0.2c-0.1,0.1-0.2,0.2-0.3,0.2C31.4,51.9,31.3,51.9,31.2,51.9z"/>
	<path class="st2" d="M31.2,44.2c-0.3,0-0.5-0.1-0.7-0.3c-0.4-0.4-0.4-1,0-1.4c0.3-0.3,0.7-0.4,1.1-0.2c0.1,0.1,0.2,0.1,0.3,0.2
		c0.4,0.4,0.4,1,0,1.4c-0.1,0.1-0.2,0.2-0.3,0.2C31.4,44.1,31.3,44.1,31.2,44.2z"/>
	<path class="st3" d="M94.7,78.9l-28-16.2c-0.4-0.3-1-0.3-1.4-0.1l0,0L31.9,81.8l30.9,28.5l33.3-19.2l0,0c0.5-0.4,0.8-1.1,0.8-1.7
		V83C96.8,81.4,96,79.9,94.7,78.9"/>
	<path class="st2" d="M62.8,111.4c-0.3,0-0.5-0.1-0.7-0.3L31.2,82.6c-0.4-0.4-0.4-1-0.1-1.4c0.1-0.1,0.1-0.1,0.2-0.2l33.3-19.2
		c0.1,0,0.1-0.1,0.2-0.1c0.7-0.3,1.5-0.2,2.2,0.2l28,16.2c1.6,1.1,2.6,3,2.7,5v6.4c0.1,1-0.3,1.9-1.1,2.5c-0.1,0.1-0.1,0.1-0.2,0.1
		l-33.3,19.2C63.1,111.3,63,111.4,62.8,111.4z M33.6,82l29.3,27.1l32.5-18.8l0.1-0.1c0.1-0.1,0.3-0.3,0.3-0.9V83
		c0-1.3-0.6-2.5-1.7-3.3l0,0l-28-16.2c-0.1-0.1-0.3-0.2-0.4-0.1l-0.1,0.1L33.6,82z"/>
	<path class="st1" d="M96.1,91.1c0.5-0.4,0.8-1.1,0.8-1.7V83c0-1.3-0.6-2.6-1.5-3.6l-39.5,22.8L58,106l4.7,4.4L96.1,91.1L96.1,91.1z
		"/>
	<path class="st2" d="M62.8,111.4c-0.3,0-0.5-0.1-0.7-0.3L31.2,82.6c-0.4-0.4-0.4-1-0.1-1.4c0.1-0.1,0.1-0.1,0.2-0.2l33.3-19.2
		c0.1,0,0.1-0.1,0.2-0.1c0.7-0.3,1.5-0.2,2.2,0.2l28,16.2c1.6,1.1,2.6,3,2.7,5v6.4c0.1,1-0.3,1.9-1.1,2.5c-0.1,0.1-0.1,0.1-0.2,0.1
		l-33.3,19.2C63.1,111.3,63,111.4,62.8,111.4z M33.6,82l29.3,27.1l32.5-18.8l0.1-0.1c0.1-0.1,0.3-0.3,0.3-0.9V83
		c0-1.3-0.6-2.5-1.7-3.3l0,0l-28-16.2c-0.1-0.1-0.3-0.2-0.4-0.1l-0.1,0.1L33.6,82z"/>
	<path class="st1" d="M33.3,94.1l28,16.2c1.2,0.7,2.2,0,2.2-1.6v-6.4c0-1.6-0.8-3.2-2.2-4.1L33.3,82c-1.2-0.7-2.2,0-2.2,1.6V90
		C31.2,91.6,32,93.1,33.3,94.1"/>
	<path class="st0" d="M63.5,106c-0.6,0-1-0.4-1-1v-2.7c0-1.3-0.6-2.5-1.7-3.3L35.6,84.4c-0.5-0.3-0.7-0.9-0.4-1.4s0.9-0.7,1.4-0.4
		c0,0,0,0,0.1,0L62,97.2c1.6,1.1,2.6,3,2.7,5v2.7C64.5,105.5,64.1,106,63.5,106z"/>
	<path class="st4" d="M62.2,111.5c-0.5,0-0.9-0.1-1.3-0.4l-28-16.2c-1.6-1.1-2.6-3-2.7-5v-6.4c-0.1-0.9,0.3-1.9,1.1-2.5
		c0.1-0.1,0.1-0.1,0.2-0.1l33.3-19.2c0.1,0,0.1-0.1,0.2-0.1c0.7-0.3,1.5-0.2,2.2,0.2l28,16.2c1.6,1.1,2.6,3,2.7,5v6.4
		c0.1,1-0.3,1.9-1.1,2.5C96.7,92,96.7,92,96.6,92l-33.3,19.2c-0.1,0-0.1,0.1-0.2,0.1C62.8,111.4,62.5,111.5,62.2,111.5z M32.6,82.6
		L32.6,82.6c-0.2,0.2-0.4,0.4-0.4,1V90c0,1.3,0.6,2.5,1.7,3.3l28,16.2c0.1,0.1,0.3,0.2,0.4,0.1c0,0,0.1,0,0.1-0.1l33-19.1l0.1-0.1
		c0.1-0.1,0.3-0.3,0.3-0.9V83c0-1.3-0.6-2.5-1.7-3.3l0,0l-28-16.2c-0.1-0.1-0.3-0.2-0.4-0.1c0,0-0.1,0-0.1,0.1L32.6,82.6z"/>
	<path class="st3" d="M68.4,102.8c-0.6,0-1-0.4-1-1c0-0.4,0.2-0.7,0.5-0.9l0.8-0.4c0.5-0.3,1.1-0.1,1.4,0.4s0.1,1.1-0.4,1.4l0,0
		l-0.8,0.4C68.7,102.8,68.5,102.8,68.4,102.8z"/>
	<path class="st3" d="M85.1,93.2c-0.6,0-1-0.4-1-1c0-0.4,0.2-0.7,0.5-0.9l6.3-3.6c0.5-0.3,1.1-0.1,1.4,0.4s0.1,1.1-0.4,1.4l0,0
		L85.6,93C85.4,93.1,85.2,93.2,85.1,93.2z"/>
	<path class="st0" d="M48.5,97.8c-0.2,0-0.3,0-0.5-0.1l-2.3-1.4c-0.5-0.3-0.6-0.9-0.4-1.4c0.3-0.5,0.9-0.6,1.4-0.4l2.3,1.4
		c0.5,0.3,0.6,0.9,0.4,1.4C49.2,97.6,48.9,97.8,48.5,97.8z"/>
	<path class="st5" d="M64.5,85.9c-4.6,0-8.3-2.3-8.3-5.2s3.6-5.2,8.3-5.2s8.3,2.3,8.3,5.2S69.2,85.9,64.5,85.9z M64.5,77.5
		c-3.7,0-6.3,1.7-6.3,3.2s2.6,3.2,6.3,3.2c3.7,0,6.3-1.7,6.3-3.2S68.2,77.5,64.5,77.5z"/>
	<path class="st3" d="M94.7,66.8l-28-16.2c-0.4-0.3-1-0.3-1.4-0.1l0,0L31.9,69.7l30.9,28.5L96.1,79l0,0c0.5-0.4,0.8-1.1,0.8-1.7
		v-6.4C96.8,69.3,96,67.7,94.7,66.8"/>
	<path class="st2" d="M62.8,99.2c-0.3,0-0.5-0.1-0.7-0.3L31.2,70.4c-0.4-0.4-0.4-1-0.1-1.4c0.1-0.1,0.1-0.1,0.2-0.2l33.3-19.2
		c0.1,0,0.1-0.1,0.2-0.1c0.7-0.3,1.5-0.2,2.2,0.2l28,16.2c1.6,1.1,2.6,3,2.7,5v6.4c0.1,1-0.3,1.9-1.1,2.5c-0.1,0-0.1,0.1-0.2,0.1
		L63.3,99.1C63.1,99.2,63,99.2,62.8,99.2z M33.6,69.9L62.9,97l32.5-18.8l0.1-0.1c0.1-0.1,0.3-0.3,0.3-0.9v-6.4
		c0-1.3-0.6-2.5-1.7-3.3l0,0l-28-16.2c-0.1-0.1-0.3-0.1-0.4-0.1l-0.1,0.1L33.6,69.9z"/>
	<path class="st1" d="M96.1,79c0.5-0.4,0.8-1.1,0.8-1.7v-6.4c0-1.3-0.6-2.6-1.5-3.6L55.9,90.1l2.2,3.8l4.7,4.4L96.1,79L96.1,79z"/>
	<path class="st2" d="M62.8,99.2c-0.3,0-0.5-0.1-0.7-0.3L31.2,70.4c-0.4-0.4-0.4-1-0.1-1.4c0.1-0.1,0.1-0.1,0.2-0.2l33.3-19.2
		c0.1,0,0.1-0.1,0.2-0.1c0.7-0.3,1.5-0.2,2.2,0.2l28,16.2c1.6,1.1,2.6,3,2.7,5v6.4c0.1,1-0.3,1.9-1.1,2.5c-0.1,0-0.1,0.1-0.2,0.1
		L63.3,99.1C63.1,99.2,63,99.2,62.8,99.2z M33.6,69.9L62.9,97l32.5-18.8l0.1-0.1c0.1-0.1,0.3-0.3,0.3-0.9v-6.4
		c0-1.3-0.6-2.5-1.7-3.3l0,0l-28-16.2c-0.1-0.1-0.3-0.1-0.4-0.1l-0.1,0.1L33.6,69.9z"/>
	<path class="st1" d="M33.3,81.9l28,16.2c1.2,0.7,2.2,0,2.2-1.6v-6.4c0-1.6-0.8-3.2-2.2-4.1l-28-16.2c-1.2-0.7-2.2,0-2.2,1.6v6.4
		C31.2,79.5,32,81,33.3,81.9"/>
	<path class="st0" d="M63.5,93.8c-0.6,0-1-0.4-1-1v-2.7c0-1.3-0.6-2.5-1.7-3.3L35.6,72.3c-0.5-0.3-0.6-0.9-0.4-1.4
		c0.3-0.5,0.9-0.6,1.4-0.4l25.3,14.6c1.6,1.1,2.6,3,2.7,5v2.7C64.5,93.4,64.1,93.8,63.5,93.8L63.5,93.8z"/>
	<path class="st4" d="M62.2,99.4c-0.5,0-0.9-0.1-1.3-0.4l-28-16.2c-1.6-1.1-2.6-3-2.7-5v-6.4c-0.1-1,0.3-1.9,1.1-2.5
		c0.1-0.1,0.1-0.1,0.2-0.1l33.3-19.2c0.1,0,0.1-0.1,0.2-0.1c0.7-0.3,1.5-0.2,2.2,0.2l28,16.2c1.6,1.1,2.6,3,2.7,5v6.4
		c0.1,1-0.3,1.9-1.1,2.5c-0.1,0.1-0.1,0.1-0.2,0.1L63.3,99.1c-0.1,0-0.1,0.1-0.2,0.1C62.8,99.3,62.5,99.4,62.2,99.4z M32.6,70.5
		L32.6,70.5c-0.2,0.2-0.4,0.4-0.4,1v6.4c0,1.3,0.6,2.5,1.7,3.3l28,16.2c0.1,0.1,0.3,0.2,0.4,0.1c0,0,0.1,0,0.1-0.1l33-19.1l0.1-0.1
		c0.1-0.1,0.3-0.3,0.3-0.9v-6.4c0-1.3-0.6-2.5-1.7-3.3l0,0l-28-16.2c-0.1-0.1-0.3-0.1-0.4-0.1c0,0-0.1,0-0.1,0.1L32.6,70.5z"/>
	<path class="st3" d="M68.4,90.7c-0.6,0-1-0.4-1-1c0-0.4,0.2-0.7,0.5-0.9l0.8-0.4c0.5-0.3,1.1-0.1,1.4,0.4s0.1,1.1-0.4,1.4l-0.8,0.4
		C68.7,90.6,68.5,90.7,68.4,90.7z"/>
	<path class="st3" d="M85.1,81.1c-0.6,0-1-0.4-1-1c0-0.4,0.2-0.7,0.5-0.9l6.3-3.6c0.5-0.3,1.1-0.1,1.4,0.4s0.1,1.1-0.4,1.4l0,0
		L85.6,81C85.4,81,85.2,81.1,85.1,81.1z"/>
	<path class="st0" d="M48.5,85.6c-0.2,0-0.3,0-0.5-0.1l-2.3-1.4c-0.5-0.3-0.6-0.9-0.4-1.4c0.3-0.5,0.9-0.6,1.4-0.4l2.3,1.4
		c0.5,0.3,0.6,0.9,0.4,1.4C49.2,85.5,48.9,85.6,48.5,85.6z"/>
	<path class="st0" d="M64.5,73.8c-4.6,0-8.3-2.3-8.3-5.2s3.6-5.2,8.3-5.2s8.3,2.3,8.3,5.2S69.2,73.8,64.5,73.8z M64.5,65.4
		c-3.7,0-6.3,1.7-6.3,3.2s2.6,3.2,6.3,3.2c3.7,0,6.3-1.7,6.3-3.2S68.2,65.4,64.5,65.4z"/>
	<path class="st3" d="M68.4,49.3c-0.6,0-1-0.4-1-1c0-0.4,0.2-0.7,0.5-0.9l0.8-0.4c0.5-0.3,1.1-0.1,1.4,0.4s0.1,1.1-0.4,1.4l0,0
		l-0.8,0.4C68.7,49.3,68.5,49.3,68.4,49.3z"/>
	<path class="st2" d="M91.3,38.6c-0.1,0-0.2,0-0.3,0c-0.8,0-1.4-0.4-1.8-1.1L74.1,5.6C73.3,4,74,2.1,75.6,1.3l0,0
		c1.6-0.8,3.5-0.1,4.3,1.5l15.1,32c0.2,0.5,0.2,1,0,1.5c-0.4,0.9-1.1,1.6-2,2C92.5,38.4,91.9,38.6,91.3,38.6z M91,36.6
		c0.9,0.1,1.7-0.3,2.2-1L78.1,3.7c-0.3-0.6-1-0.8-1.6-0.6l0,0c-0.6,0.3-0.8,1-0.6,1.6L91,36.6z"/>
	<path class="st3" d="M76,2.2c1.1-0.5,2.4-0.1,2.9,1l7.6,16.1L94,35.2c0.3,0.6-0.3,1.6-1.4,2.1s-2.2,0.4-2.5-0.2l-7.5-15.9L75,5.1
		C74.5,4,75,2.7,76,2.2"/>
	<path class="st2" d="M91.3,38.6c-0.1,0-0.2,0-0.3,0c-0.8,0-1.4-0.4-1.8-1.1L74.1,5.6C73.3,4,74,2.1,75.6,1.3l0,0
		c1.6-0.8,3.5-0.1,4.3,1.5l15.1,32c0.2,0.5,0.2,1,0,1.5c-0.4,0.9-1.1,1.6-2,2C92.5,38.4,91.9,38.6,91.3,38.6z M91,36.6
		c0.9,0.1,1.7-0.3,2.2-1L78.1,3.7c-0.3-0.6-1-0.8-1.6-0.6l0,0c-0.6,0.3-0.8,1-0.6,1.6L91,36.6z"/>
	<path class="st5" d="M92.7,37.3L92.7,37.3c1.1-0.5,1.7-1.5,1.4-2.1l-7.5-15.9L79.2,3.7c-0.3-0.5-1-0.7-1.5-0.4S77,4.2,77.2,4.7
		L92.7,37.3z"/>
	<path class="st6" d="M83.9,23.3c-0.1,0-0.2,0-0.3,0c-0.8,0-1.5-0.4-1.8-1.1c-0.2-0.5,0-1.1,0.5-1.3c0.5-0.2,1.1,0,1.3,0.5
		c0,0,0.1,0,0.2,0c0.4,0,0.8-0.1,1.1-0.3c0.7-0.3,1-0.8,1-0.9c-0.2-0.5,0-1.1,0.5-1.3l0,0c0.5-0.2,1.1,0,1.3,0.5
		c0.3,0.7,0.2,1.5-0.3,2.1c-0.4,0.6-1,1.1-1.7,1.4C85.2,23.2,84.6,23.3,83.9,23.3z"/>
	<path class="st2" d="M91.3,38.6c-0.1,0-0.2,0-0.3,0c-0.8,0-1.4-0.4-1.8-1.1L74.1,5.6C73.3,4,74,2.1,75.6,1.3l0,0
		c1.6-0.8,3.5-0.1,4.3,1.5l15.1,32c0.2,0.5,0.2,1,0,1.5c-0.4,0.9-1.1,1.6-2,2C92.5,38.4,91.9,38.6,91.3,38.6z M91,36.6
		c0.9,0.1,1.7-0.3,2.2-1L78.1,3.7c-0.3-0.6-1-0.8-1.6-0.6l0,0c-0.6,0.3-0.8,1-0.6,1.6L91,36.6z"/>
	<path class="st3" d="M94.7,32.9l-28-16.2c-0.4-0.3-1-0.3-1.4-0.1l0,0L31.9,35.9l30.9,28.5l33.3-19.2l0,0c0.5-0.4,0.8-1.1,0.8-1.7
		v-6.4C96.8,35.4,96,33.9,94.7,32.9"/>
	<path class="st2" d="M62.8,65.4c-0.3,0-0.5-0.1-0.7-0.3L31.2,36.6c-0.4-0.4-0.4-1-0.1-1.4c0.1-0.1,0.1-0.1,0.2-0.2l33.3-19.2
		c0.1,0,0.1-0.1,0.2-0.1c0.7-0.3,1.5-0.2,2.2,0.2l28,16.2l0,0c1.6,1.1,2.6,3,2.7,5v6.4c0.1,1-0.3,1.9-1.1,2.5c0.1,0,0,0,0,0
		L63.3,65.3C63.1,65.4,63,65.4,62.8,65.4z M33.6,36.1l29.3,27.1l32.5-18.8l0.1-0.1c0.1-0.1,0.3-0.3,0.3-0.9V37
		c0-1.3-0.6-2.5-1.7-3.3l-28-16.2c-0.1-0.1-0.3-0.1-0.4-0.1l-0.1,0.1L33.6,36.1z"/>
	<path class="st5" d="M96.1,45.2c0.5-0.4,0.8-1.1,0.8-1.7v-6.4c0-1.3-0.6-2.6-1.5-3.6L55.9,56.3L58,60l4.7,4.4L96.1,45.2L96.1,45.2z
		"/>
	<path class="st2" d="M62.8,65.4c-0.3,0-0.5-0.1-0.7-0.3L31.2,36.6c-0.4-0.4-0.4-1-0.1-1.4c0.1-0.1,0.1-0.1,0.2-0.2l33.3-19.2
		c0.1,0,0.1-0.1,0.2-0.1c0.7-0.3,1.5-0.2,2.2,0.2l28,16.2l0,0c1.6,1.1,2.6,3,2.7,5v6.4c0.1,1-0.3,1.9-1.1,2.5c0.1,0,0,0,0,0
		L63.3,65.3C63.1,65.4,63,65.4,62.8,65.4z M33.6,36.1l29.3,27.1l32.5-18.8l0.1-0.1c0.1-0.1,0.3-0.3,0.3-0.9V37
		c0-1.3-0.6-2.5-1.7-3.3l-28-16.2c-0.1-0.1-0.3-0.1-0.4-0.1l-0.1,0.1L33.6,36.1z"/>
	<path class="st5" d="M33.3,48.1l28,16.2c1.2,0.7,2.2,0,2.2-1.6v-6.4c0-1.6-0.8-3.2-2.2-4.1L33.3,36c-1.2-0.7-2.2,0-2.2,1.6V44
		C31.2,45.6,32,47.1,33.3,48.1"/>
	<path class="st6" d="M63.5,60c-0.6,0-1-0.4-1-1v-2.7c0-1.3-0.6-2.5-1.7-3.3L35.6,38.4c-0.5-0.3-0.6-0.9-0.4-1.4
		c0.3-0.5,0.9-0.6,1.4-0.4l25.3,14.6c1.6,1.1,2.6,3,2.7,5V59C64.5,59.6,64.1,60,63.5,60z"/>
	<path class="st2" d="M62.2,65.5c-0.5,0-0.9-0.1-1.3-0.4L32.8,49c-1.6-1.1-2.6-3-2.7-5v-6.4c-0.1-1,0.3-1.9,1.1-2.5
		c0.1,0,0.1-0.1,0.2-0.1l33.3-19.2c0.1,0,0.1-0.1,0.2-0.1c0.7-0.3,1.5-0.2,2.2,0.2l28,16.2l0,0c1.6,1.1,2.6,3,2.7,5v6.4
		c0.1,1-0.3,1.9-1.1,2.5c0,0-0.1,0-0.1,0L63.3,65.3c-0.1,0-0.1,0.1-0.2,0.1C62.8,65.5,62.5,65.5,62.2,65.5z M32.6,36.6L32.6,36.6
		c-0.2,0.2-0.4,0.4-0.4,1V44c0,1.3,0.6,2.5,1.7,3.3l28,16.2c0.1,0.1,0.3,0.2,0.4,0.1c0,0,0.1,0,0.1-0.1l33-19.1l0.1-0.1
		c0.1-0.1,0.3-0.3,0.3-0.9V37c0-1.3-0.6-2.5-1.7-3.3l-28-16.2c-0.1-0.1-0.3-0.1-0.4-0.1c0,0-0.1,0-0.1,0.1L32.6,36.6z"/>
	<path class="st3" d="M85.1,47.2c-0.6,0-1-0.4-1-1c0-0.4,0.2-0.7,0.5-0.9l6.3-3.6c0.5-0.3,1.1-0.1,1.4,0.4s0.1,1.1-0.4,1.4l0,0
		l-6.3,3.6C85.4,47.2,85.2,47.2,85.1,47.2z"/>
	<path class="st6" d="M48.5,51.8c-0.2,0-0.3,0-0.5-0.1l-2.3-1.4C45.2,50,45,49.4,45.3,49c0.3-0.5,0.9-0.6,1.4-0.4L49,50
		c0.5,0.3,0.6,0.9,0.4,1.4C49.2,51.6,48.9,51.8,48.5,51.8z"/>
	<path class="st5" d="M64.5,39.9c-4.6,0-8.3-2.3-8.3-5.2s3.6-5.2,8.3-5.2s8.3,2.3,8.3,5.2S69.2,39.9,64.5,39.9z M64.5,31.6
		c-3.7,0-6.3,1.7-6.3,3.2s2.6,3.2,6.3,3.2c3.7,0,6.3-1.7,6.3-3.2S68.2,31.6,64.5,31.6z"/>
	<path class="st1" d="M121.6,127L121.6,127l-7.7-0.9c-0.5-0.1-0.9-0.6-0.9-1.1c0-0.3,0.2-0.6,0.5-0.7l5.9-3.4
		c0.5-0.3,1.1-0.1,1.4,0.4c0,0,0.1,0.1,0.1,0.2l1.6,4.4c0.2,0.5-0.1,1.1-0.6,1.3C121.8,127,121.7,127,121.6,127z M117.1,124.4l3,0.4
		l-0.6-1.7L117.1,124.4z"/>
	<path class="st1" d="M6.4,127c-0.6,0-1-0.4-1-1c0-0.1,0-0.2,0.1-0.3l1.6-4.4c0.2-0.5,0.8-0.8,1.3-0.6c0.1,0,0.1,0,0.2,0.1l5.9,3.4
		c0.5,0.3,0.6,0.9,0.4,1.4c-0.2,0.3-0.4,0.5-0.7,0.5L6.4,127C6.5,127,6.5,127,6.4,127z M8.6,123.1L8,124.8l3-0.4L8.6,123.1z"/>
	<rect x="1" y="1" class="st7" width="126" height="126"/>
	<rect class="st7" width="128" height="128"/>
</g>
</svg>
