<?xml version="1.0" encoding="utf-8"?>
<!-- Generator: Adobe Illustrator 24.1.0, SVG Export Plug-In . SVG Version: 6.00 Build 0)  -->
<svg version="1.1" id="Layer_1" xmlns="http://www.w3.org/2000/svg" xmlns:xlink="http://www.w3.org/1999/xlink" x="0px" y="0px"
	 viewBox="0 0 128 128" style="enable-background:new 0 0 128 128;" xml:space="preserve">
<style type="text/css">
	.st0{fill:none;}
	.st1{fill:#27ae60;}
	.st2{fill:#C4D7D3;}
	.st3{fill:#4D9987;}
	.st4{fill:#E9EBDF;}
	.st5{fill:#185849;}
	.st6{fill:#FFFFFF;}
	.st7{fill:#0E352C;}
</style>
<g>
	<rect x="1" y="1" class="st0" width="126" height="126"/>
	<rect x="1" y="1" class="st0" width="126" height="126"/>
	<rect x="1" y="1" class="st0" width="126" height="126"/>
	<path class="st1" d="M60.6,54.3c-0.6,0-1-0.4-1-1c0-0.3,0.1-0.5,0.3-0.7s0.6-0.3,0.9-0.3c0.1,0,0.1,0,0.2,0.1
		c0.1,0,0.1,0.1,0.2,0.1c0.1,0,0.1,0.1,0.2,0.1c0.4,0.4,0.4,1,0,1.4c0,0-0.1,0.1-0.2,0.1c-0.1,0-0.1,0.1-0.2,0.1
		c-0.1,0-0.1,0.1-0.2,0.1C60.7,54.3,60.6,54.3,60.6,54.3z"/>
	<path class="st1" d="M64.5,50.9c-0.3-0.5-0.1-1.1,0.3-1.4l0,0c0.5-0.3,1.1-0.1,1.4,0.3l0,0c0.3,0.5,0.1,1.1-0.3,1.4l0,0
		c-0.2,0.1-0.3,0.1-0.5,0.1l0,0C65,51.4,64.7,51.2,64.5,50.9z M69.3,48c-0.3-0.5-0.1-1.1,0.3-1.4l0,0l0,0c0.5-0.3,1.1-0.1,1.4,0.3
		l0,0c0.3,0.5,0.1,1.1-0.3,1.4l0,0c-0.2,0.1-0.3,0.1-0.5,0.1l0,0C69.8,48.5,69.5,48.3,69.3,48z M74.1,45.1c-0.3-0.5-0.1-1.1,0.3-1.4
		l0,0c0.5-0.3,1.1-0.1,1.4,0.3l0,0c0.3,0.5,0.1,1.1-0.3,1.4l0,0l0,0c-0.2,0.1-0.3,0.1-0.5,0.1l0,0C74.6,45.6,74.3,45.4,74.1,45.1z
		 M78.9,42.2c-0.3-0.5-0.1-1.1,0.3-1.4l0,0c0.5-0.3,1.1-0.1,1.4,0.3l0,0c0.3,0.5,0.1,1.1-0.3,1.4l0,0c-0.2,0.1-0.3,0.1-0.5,0.1l0,0
		C79.4,42.7,79.1,42.5,78.9,42.2z"/>
	<path class="st1" d="M84.5,39.8c-0.1,0-0.1,0-0.2,0s-0.1,0-0.2-0.1c-0.1,0-0.1-0.1-0.2-0.1s-0.1-0.1-0.1-0.1
		c-0.2-0.2-0.3-0.4-0.3-0.7s0.1-0.5,0.3-0.7l0.1-0.1c0.1,0,0.1-0.1,0.2-0.1s0.1-0.1,0.2-0.1c0.5-0.1,1.1,0.2,1.2,0.8
		c0,0.1,0,0.1,0,0.2c0,0.3-0.1,0.5-0.3,0.7c0,0-0.1,0.1-0.2,0.1s-0.1,0.1-0.2,0.1s-0.1,0-0.2,0.1C84.7,39.8,84.6,39.8,84.5,39.8z"/>
	<path class="st2" d="M87.7,41.7c-0.2,0-0.3,0-0.5-0.1l-6.4-3.7c-0.5-0.3-0.6-0.9-0.4-1.4c0.2-0.3,0.4-0.5,0.7-0.5l8.1-1
		c0.5-0.1,1,0.3,1.1,0.9c0,0.2,0,0.3-0.1,0.5L88.7,41C88.5,41.4,88.1,41.7,87.7,41.7L87.7,41.7z M84.4,37.6l2.8,1.6l0.8-2L84.4,37.6
		z"/>
	<path class="st3" d="M59.1,80.4c-0.3,0-0.5-0.1-0.7-0.3c-0.2-0.2-0.3-0.4-0.3-0.7c0-0.3,0.1-0.5,0.3-0.7s0.6-0.3,0.9-0.3
		c0.1,0,0.1,0,0.2,0.1c0.1,0,0.1,0.1,0.2,0.1c0.1,0,0.1,0.1,0.2,0.1c0.2,0.2,0.3,0.4,0.3,0.7c0,0.3-0.1,0.5-0.3,0.7
		c0,0-0.1,0.1-0.2,0.1c-0.1,0-0.1,0.1-0.2,0.1c-0.1,0-0.1,0-0.2,0.1C59.2,80.4,59.1,80.4,59.1,80.4z"/>
	<path class="st3" d="M75.4,90c-0.5-0.3-0.6-0.9-0.4-1.3l0,0l0,0c0.3-0.5,0.9-0.6,1.3-0.4l0,0l0,0c0.5,0.3,0.6,0.9,0.4,1.4l0,0l0,0
		c-0.2,0.3-0.5,0.5-0.9,0.5l0,0C75.7,90.1,75.5,90.1,75.4,90z M69.8,86.8c-0.5-0.3-0.6-0.9-0.4-1.4l0,0c0.3-0.5,0.9-0.6,1.4-0.4l0,0
		l0,0c0.5,0.3,0.6,0.9,0.4,1.3l0,0l0,0c-0.2,0.3-0.5,0.5-0.9,0.5l0,0C70.1,86.9,69.9,86.8,69.8,86.8z M64.2,83.5
		c-0.5-0.3-0.6-0.9-0.4-1.4l0,0l0,0c0.3-0.5,0.9-0.6,1.4-0.4l0,0l0,0c0.5,0.3,0.6,0.9,0.4,1.4l0,0l0,0c-0.2,0.3-0.5,0.5-0.9,0.5l0,0
		C64.5,83.7,64.3,83.6,64.2,83.5z"/>
	<path class="st3" d="M81.5,93.4c-0.3,0-0.5-0.1-0.7-0.3c-0.4-0.4-0.4-1,0-1.4s1-0.4,1.4,0s0.4,1,0,1.4C82,93.3,81.8,93.4,81.5,93.4
		z"/>
	<path class="st4" d="M84,96.8c-1,0-2.1-0.2-3-0.7c-1.3-0.5-1.9-2-1.3-3.2c0.3-0.6,0.7-1.1,1.3-1.3c1.9-0.9,4.1-0.9,5.9,0
		c1.3,0.5,1.9,2,1.3,3.2c-0.3,0.6-0.7,1.1-1.3,1.3C86,96.6,85,96.8,84,96.8z M84,92.8c-0.7,0-1.4,0.1-2,0.5
		c-0.4,0.2-0.5,0.4-0.5,0.6s0.2,0.3,0.5,0.6c1.2,0.6,2.7,0.6,3.9,0c0.4-0.2,0.5-0.4,0.5-0.6s-0.2-0.3-0.5-0.6
		C85.3,92.9,84.6,92.8,84,92.8L84,92.8z"/>
	<path class="st5" d="M68,59.6c-0.1,0-0.2,0-0.3,0c-0.8,0-1.5-0.4-1.8-1.1L50.2,25.3c-0.8-1.6-0.1-3.6,1.6-4.4l0,0
		c1.6-0.8,3.6-0.1,4.4,1.6l0,0l15.7,33.1c0.3,0.7,0.2,1.5-0.3,2.1c-0.4,0.6-1,1.1-1.7,1.4C69.2,59.4,68.6,59.6,68,59.6z M67.7,57.6
		c0.4,0,0.9-0.1,1.3-0.3c0.7-0.3,1-0.8,1-0.9l-15.7-33c-0.3-0.6-1-1-1.7-0.7c-0.6,0.3-1,1-0.7,1.7v0.1L67.7,57.6L67.7,57.6z"/>
	<path class="st6" d="M52.2,21.9c1.1-0.5,2.5-0.1,3,1.1l0,0l7.9,16.7l7.8,16.4c0.3,0.7-0.4,1.6-1.5,2.2s-2.3,0.4-2.6-0.2L59,41.6
		l-7.9-16.7C50.5,23.8,51,22.4,52.2,21.9L52.2,21.9"/>
	<path class="st5" d="M68,59.6c-0.1,0-0.2,0-0.3,0c-0.8,0-1.5-0.4-1.8-1.1L50.2,25.3c-0.8-1.6-0.1-3.6,1.6-4.4l0,0
		c1.6-0.8,3.6-0.1,4.4,1.6l0,0l15.7,33.1c0.3,0.7,0.2,1.5-0.3,2.1c-0.4,0.6-1,1.1-1.7,1.4C69.2,59.4,68.6,59.6,68,59.6z M67.7,57.6
		c0.4,0,0.9-0.1,1.3-0.3c0.7-0.3,1-0.8,1-0.9l-15.7-33c-0.3-0.6-1-1-1.7-0.7c-0.6,0.3-1,1-0.7,1.7v0.1L67.7,57.6L67.7,57.6z"/>
	<path class="st4" d="M69.4,58.2L69.4,58.2c1.1-0.5,1.8-1.5,1.5-2.2l-7.8-16.4l-7.6-16.1c-0.3-0.6-0.9-0.8-1.5-0.6
		c-0.6,0.3-0.8,0.9-0.6,1.5l0,0L69.4,58.2z"/>
	<path class="st3" d="M58.8,40.3c-0.9,0.1-1.7-0.4-2.1-1.1c-0.2-0.5,0-1.1,0.5-1.3s1.1,0,1.3,0.5c0.4,0,0.9-0.1,1.3-0.3
		c0.7-0.3,1-0.8,1-0.9c-0.2-0.5,0-1,0.4-1.3l0,0c0.5-0.2,1.1,0,1.3,0.5s0.2,1,0,1.5c-0.4,0.9-1.1,1.6-2,2
		C60.1,40.2,59.5,40.3,58.8,40.3z"/>
	<path class="st7" d="M68,59.6c-0.1,0-0.2,0-0.3,0c-0.8,0-1.5-0.4-1.8-1.1L50.2,25.3c-0.8-1.6-0.1-3.6,1.6-4.4l0,0
		c1.6-0.8,3.6-0.1,4.4,1.6l0,0l15.7,33.1c0.3,0.7,0.2,1.5-0.3,2.1c-0.4,0.6-1,1.1-1.7,1.4C69.2,59.4,68.6,59.6,68,59.6z M67.7,57.6
		c0.4,0,0.9-0.1,1.3-0.3c0.7-0.3,1-0.8,1-0.9l-15.7-33c-0.3-0.6-1-1-1.7-0.7c-0.6,0.3-1,1-0.7,1.7v0.1L67.7,57.6L67.7,57.6z"/>
	<path class="st3" d="M12.9,66.4c-0.6,0-1-0.4-1-1c0-0.3,0.1-0.5,0.3-0.7c0.1-0.1,0.2-0.2,0.3-0.2c0.2-0.1,0.5-0.1,0.8,0
		c0.1,0.1,0.2,0.1,0.3,0.2c0.4,0.4,0.4,1,0,1.4C13.5,66.3,13.2,66.5,12.9,66.4z"/>
	<path class="st3" d="M61.5,66.4c-0.1,0-0.1,0-0.2,0c-0.1,0-0.3-0.1-0.4-0.2c-0.1,0-0.1-0.1-0.2-0.1c-0.4-0.4-0.4-1,0-1.4l0,0
		c0,0,0.1-0.1,0.2-0.1c0.1-0.1,0.2-0.1,0.4-0.1s0.4,0,0.6,0.1c0.1,0,0.2,0.1,0.3,0.2c0.4,0.4,0.4,1,0,1.4l0,0
		C62,66.3,61.7,66.4,61.5,66.4z"/>
	<path class="st5" d="M72.4,63.4c-0.3,0-0.5-0.1-0.7-0.3c0,0-0.1-0.1-0.1-0.2c0-0.1-0.1-0.1-0.1-0.2c0-0.1,0-0.1-0.1-0.2
		c0-0.1,0-0.1,0-0.2c0-0.3,0.1-0.5,0.3-0.7c0.4-0.4,1-0.4,1.4,0s0.4,1,0,1.4C72.9,63.3,72.7,63.4,72.4,63.4z"/>
	<path class="st5" d="M2,65.2c-0.1,0-0.1,0-0.2,0s-0.1,0-0.2-0.1c-0.1,0-0.1-0.1-0.2-0.1c0,0,0,0-0.1,0c-0.1-0.1-0.2-0.2-0.2-0.3
		C1,64.3,1,63.9,1.3,63.6l0.1-0.1c0.1,0,0.1-0.1,0.2-0.1s0.1,0,0.2,0c0.2,0,0.4,0,0.6,0c0.1,0.1,0.2,0.1,0.3,0.2
		C2.9,63.7,3,64,3,64.3c0,0.1,0,0.3-0.1,0.4c0,0.1-0.1,0.2-0.2,0.3c-0.1,0.1-0.2,0.2-0.3,0.2C2.3,65.2,2.2,65.2,2,65.2z"/>
	<path class="st2" d="M37.8,72.6c-4.9,0-8.8-2.4-8.8-5.5s3.9-5.5,8.8-5.5s8.8,2.4,8.8,5.5S42.7,72.6,37.8,72.6z M37.8,63.6
		c-4,0-6.8,1.8-6.8,3.5s2.8,3.5,6.8,3.5s6.8-1.8,6.8-3.5S41.8,63.6,37.8,63.6L37.8,63.6z"/>
	<path class="st6" d="M70.1,52.2L40,34.8c-0.4-0.3-1-0.4-1.5-0.1l0,0L2.8,55.3l33.1,30.6l35.7-20.6l0,0c0.6-0.4,0.9-1.1,0.8-1.9
		v-6.8C72.4,54.8,71.5,53.2,70.1,52.2"/>
	<path class="st5" d="M35.9,86.9c-0.3,0-0.5-0.1-0.7-0.3L2.1,56c-0.4-0.4-0.4-1-0.1-1.4c0.1-0.1,0.1-0.1,0.2-0.2L38,33.8
		c0.1,0,0.1-0.1,0.2-0.1c0.8-0.3,1.6-0.2,2.3,0.2l30.1,17.4c1.7,1.2,2.8,3.2,2.8,5.3v6.8c0.1,1-0.3,2-1.1,2.6
		c-0.1,0.1-0.1,0.1-0.2,0.1L36.4,86.8C36.2,86.9,36.1,86.9,35.9,86.9z M4.5,55.5L36,84.7l35-20.2l0.1-0.1c0.1-0.1,0.3-0.3,0.3-1
		v-6.8c0-1.4-0.7-2.7-1.8-3.6l0,0L39.5,35.7c-0.1-0.1-0.4-0.2-0.5-0.1c0,0-0.1,0.1-0.2,0.1L4.5,55.5z"/>
	<path class="st4" d="M71.6,65.3c0.6-0.4,0.9-1.1,0.8-1.9v-6.8c0-1.4-0.6-2.8-1.6-3.8L28.5,77.2l2.3,4l5.1,4.7L71.6,65.3L71.6,65.3z
		"/>
	<path class="st5" d="M35.9,86.9c-0.3,0-0.5-0.1-0.7-0.3L2.1,56c-0.4-0.4-0.4-1-0.1-1.4c0.1-0.1,0.1-0.1,0.2-0.2L38,33.8
		c0.1,0,0.1-0.1,0.2-0.1c0.8-0.3,1.6-0.2,2.3,0.2l30.1,17.4c1.7,1.2,2.8,3.2,2.8,5.3v6.8c0.1,1-0.3,2-1.1,2.6
		c-0.1,0.1-0.1,0.1-0.2,0.1L36.4,86.8C36.2,86.9,36.1,86.9,35.9,86.9z M4.5,55.5L36,84.7l35-20.2l0.1-0.1c0.1-0.1,0.3-0.3,0.3-1
		v-6.8c0-1.4-0.7-2.7-1.8-3.6l0,0L39.5,35.7c-0.1-0.1-0.4-0.2-0.5-0.1c0,0-0.1,0.1-0.2,0.1L4.5,55.5z"/>
	<path class="st4" d="M4.3,68.4l30.1,17.4c1.3,0.7,2.3,0,2.3-1.8v-6.8c0-1.8-0.9-3.4-2.3-4.4L4.3,55.4C3,54.7,2,55.5,2,57.2V64
		C2,65.8,2.9,67.4,4.3,68.4"/>
	<path class="st3" d="M36.7,81.1c-0.6,0-1-0.4-1-1v-2.9c0-1.4-0.7-2.7-1.8-3.6L6.7,58c-0.5-0.3-0.6-0.9-0.4-1.4
		c0.3-0.5,0.9-0.6,1.4-0.4l27.1,15.7c1.7,1.2,2.8,3.2,2.8,5.3v2.9C37.7,80.7,37.3,81.1,36.7,81.1z"/>
	<path class="st7" d="M35.3,87.1c-0.5,0-1-0.1-1.4-0.4L3.8,69.3C2.1,68.1,1,66.1,1,64v-6.8c-0.1-1,0.3-2,1.1-2.6
		c0.1-0.1,0.1-0.1,0.2-0.1L38,33.8c0.1,0,0.1-0.1,0.2-0.1c0.8-0.3,1.6-0.2,2.3,0.2l30.1,17.4c1.7,1.2,2.8,3.2,2.8,5.3v6.8
		c0.1,1-0.3,2-1.1,2.6c-0.1,0.1-0.1,0.1-0.2,0.1L36.4,86.8c-0.1,0-0.1,0.1-0.2,0.1C35.9,87,35.6,87.1,35.3,87.1z M3.5,56.1L3.5,56.1
		c-0.2,0.2-0.4,0.4-0.4,1.1V64c0,1.4,0.7,2.7,1.8,3.6L35,85c0.1,0.1,0.4,0.2,0.5,0.1c0,0,0.1,0,0.1-0.1L71,64.5l0.1-0.1
		c0.1-0.1,0.3-0.3,0.3-1v-6.8c0-1.4-0.7-2.7-1.8-3.6l0,0L39.5,35.7c-0.1-0.1-0.4-0.2-0.5-0.1c0,0-0.1,0.1-0.2,0.1L3.5,56.1z"/>
	<path class="st6" d="M41.9,77.8c-0.6,0-1-0.4-1-1c0-0.4,0.2-0.7,0.5-0.9l0.8-0.5c0.5-0.3,1.1-0.1,1.4,0.4c0.3,0.5,0.1,1.1-0.4,1.4
		l-0.8,0.5C42.2,77.7,42.1,77.8,41.9,77.8z"/>
	<path class="st6" d="M59.8,67.4c-0.6,0-1-0.4-1-1c0-0.4,0.2-0.7,0.5-0.9l6.7-3.9c0.5-0.3,1.1-0.1,1.4,0.4s0.1,1.1-0.4,1.4l0,0
		l-6.7,3.9C60.1,67.4,60,67.4,59.8,67.4z"/>
	<path class="st3" d="M20.6,72.3c-0.2,0-0.3,0-0.5-0.1l-2.5-1.5c-0.5-0.3-0.6-0.9-0.4-1.4c0.3-0.5,0.9-0.6,1.4-0.4l2.5,1.5
		c0.5,0.3,0.6,0.9,0.4,1.4C21.3,72.2,21,72.3,20.6,72.3z"/>
	<path class="st3" d="M37.8,59.6c-4.9,0-8.8-2.4-8.8-5.5s3.9-5.5,8.8-5.5s8.8,2.4,8.8,5.5S42.7,59.6,37.8,59.6z M37.8,50.6
		c-4,0-6.8,1.8-6.8,3.5s2.8,3.5,6.8,3.5s6.8-1.8,6.8-3.5S41.8,50.6,37.8,50.6L37.8,50.6z"/>
	<path class="st4" d="M108.8,97l-4.2-2.4c0-0.1-0.1-0.2-0.2-0.3c-0.4-0.4-7.7-0.5-7.7-0.5v8.9l0,0c0,0.3,0.4,0.7,1,0.8
		c0.9,0.1,1.8-3.4,2.6-3c0.9,0.5,1.4,5,1.6,5.6l-11.7-3.8v3h18.6L108.8,97z"/>
	<polygon class="st4" points="81.5,111.1 81.5,102.2 88,102.2 97.2,120.1 	"/>
	<path class="st3" d="M97.2,121.1c-0.2,0-0.3,0-0.5-0.1L81,112c-0.3-0.2-0.5-0.5-0.5-0.9v-8.9c0-0.6,0.4-1,1-1H88
		c0.4,0,0.7,0.2,0.9,0.5l9.1,17.9c0.3,0.5,0.1,1.1-0.4,1.3C97.5,121.1,97.3,121.1,97.2,121.1L97.2,121.1z M82.5,110.5l12.2,7
		l-7.3-14.4h-4.9L82.5,110.5z"/>
	<path class="st4" d="M125.5,110.4l-21.4-12.3l-7,4c-0.7,0.4-0.4,1.1,0.6,1.3c0.9,0.1,1.8,0.4,2.6,0.9c2.4,1.4,2.2,3.7-0.5,5
		c-2.3,0.9-4.8,1-7.1,0c-0.9-0.3-1.6-1-2.1-1.8c-0.2-0.6-1.5-0.7-2.2-0.3l-4.9,2.8v9.7l0,0c0,0.8,0.5,1.6,1.2,2.1
		c2.6,1.6,5.9,1.7,8.6,0.3c0.6-0.3,1.2-0.8,1.5-1.5c0.3-0.6,1.5-0.8,2.2-0.4l7,4l21.4-12.3c0.4-0.1,0.6-0.6,0.5-1
		C125.9,110.6,125.7,110.5,125.5,110.4z"/>
	<path class="st3" d="M104.1,125.2c-0.2,0-0.3,0-0.5-0.1l-7-4c-0.3-0.1-0.6-0.1-0.8,0c-0.4,0.8-1.1,1.4-1.9,1.9
		c-3.1,1.6-6.7,1.5-9.7-0.3c-1-0.6-1.6-1.6-1.6-2.8v-0.1v-9.7c0-0.4,0.2-0.7,0.5-0.9l4.9-2.8c0.7-0.4,1.6-0.5,2.4-0.2
		c0.5,0.1,1,0.5,1.2,1c0.4,0.6,0.9,1.1,1.6,1.3c2,0.8,4.2,0.8,6.2,0c1-0.4,1.6-1.1,1.6-1.7c0-0.5-0.4-1.1-1.2-1.5
		c-0.7-0.4-1.4-0.6-2.2-0.7c-0.9,0-1.6-0.6-1.8-1.5c-0.1-0.7,0.2-1.4,0.9-1.7l7-4c0.3-0.2,0.7-0.2,1,0l21.4,12.3l0,0
		c0.9,0.4,1.3,1.4,0.9,2.3c-0.2,0.4-0.5,0.7-0.9,0.9L104.6,125C104.5,125.1,104.3,125.2,104.1,125.2z M96.2,118.9
		c0.5,0,1,0.1,1.4,0.4l6.5,3.7l20.6-11.9l-20.6-11.9l-5.7,3.3c0.8,0.2,1.6,0.5,2.4,0.9c1.3,0.6,2.2,1.9,2.2,3.4
		c-0.1,1.4-1.1,2.6-2.8,3.4c-2.5,1.1-5.4,1.1-7.9,0c-1.1-0.4-2-1.2-2.5-2.2c-0.3-0.1-0.6-0.1-0.8,0l-4.4,2.5v9.1v0.1
		c0.1,0.5,0.4,1,0.8,1.3c2.3,1.3,5.1,1.4,7.5,0.2c0.5-0.2,0.8-0.6,1.1-1c0.3-0.5,0.7-0.9,1.3-1C95.6,118.9,95.9,118.9,96.2,118.9z"
		/>
	<path class="st4" d="M117.9,102.2l-13.3-7.7c0-0.1-0.1-0.2-0.2-0.3c-0.4-0.4-7.7-0.5-7.7-0.5v8.9l0,0c0,0.1,0,0.1,0.1,0.2h7.3v21.4
		l21.4-12.3c0.3-0.1,0.5-0.4,0.5-0.7v-8.9L117.9,102.2z"/>
	<path class="st3" d="M104.1,125.2c-0.6,0-1-0.4-1-1v-20.4h-6.3c-0.4,0-0.8-0.2-0.9-0.6c0-0.1-0.1-0.2-0.1-0.4c0-0.1,0-0.1,0-0.2
		v-8.9c0-0.3,0.1-0.5,0.3-0.7c0.2-0.2,0.5-0.3,0.7-0.3c7.7,0.2,8.1,0.5,8.4,0.8c0.1,0.1,0.2,0.2,0.3,0.3l12.8,7.4h7.8
		c0.6,0,1,0.4,1,1v8.9c0,0.7-0.4,1.3-1,1.6L104.6,125C104.5,125.1,104.3,125.2,104.1,125.2z M97.8,101.8h6.4c0.6,0,1,0.4,1,1v19.6
		L125,111l0,0v-7.7h-7.1c-0.2,0-0.3,0-0.5-0.1l-13.3-7.7c-0.1-0.1-0.3-0.2-0.3-0.3c-0.9-0.1-3.5-0.3-6.1-0.3L97.8,101.8z"/>
	<path class="st6" d="M92.8,100.3c-0.9-0.3-1.6-1-2.1-1.8c-0.2-0.6-1.5-0.7-2.2-0.3l-7,4l7,4c0.7,0.4,0.4,1.1-0.6,1.3
		c-1.1,0.1-2.2,0.6-3.1,1.2c-1.6,1.2-1.6,2.9,0.1,4.1c2.6,1.6,5.9,1.7,8.6,0.3c0.6-0.3,1.2-0.8,1.5-1.5c0.3-0.6,1.5-0.8,2.2-0.4l7,4
		l21.4-12.3c0.4-0.1,0.6-0.6,0.5-1c-0.1-0.2-0.3-0.4-0.5-0.5l-21.4-12.3l-7,4c-0.7,0.4-0.4,1.1,0.6,1.3c0.9,0.1,1.8,0.4,2.6,0.9
		c2.4,1.4,2.2,3.7-0.5,5C97.6,101.2,95.1,101.2,92.8,100.3z"/>
	<path class="st3" d="M104.1,116.3c-0.2,0-0.3,0-0.5-0.1l-7-4c-0.3-0.1-0.6-0.1-0.8,0c-0.4,0.8-1.1,1.4-1.9,1.9
		c-3.1,1.6-6.7,1.5-9.7-0.3c-1-0.6-1.6-1.7-1.7-2.9c0-1.1,0.6-2.2,1.6-2.8c0.9-0.6,1.9-1.1,3-1.3l-6.2-3.6c-0.5-0.3-0.6-0.9-0.4-1.4
		c0.1-0.2,0.2-0.3,0.4-0.4l7-4c0.7-0.4,1.6-0.5,2.4-0.2c0.5,0.1,1,0.5,1.2,1c0.4,0.6,0.9,1.1,1.6,1.3l0,0c2,0.8,4.2,0.8,6.2,0
		c1-0.4,1.6-1.1,1.6-1.7c0-0.5-0.4-1.1-1.2-1.5c-0.7-0.4-1.4-0.6-2.2-0.7c-0.9-0.1-1.6-0.6-1.8-1.5c-0.1-0.7,0.2-1.4,0.9-1.7l7-4
		c0.3-0.2,0.7-0.2,1,0l21.4,12.3c0.9,0.4,1.3,1.4,0.9,2.3c-0.2,0.4-0.5,0.7-0.9,0.9l-21.4,12.3C104.5,116.2,104.3,116.3,104.1,116.3
		z M96.2,110c0.5,0,1,0.1,1.4,0.4l6.5,3.7l20.6-11.9l-20.6-11.9l-5.7,3.3c0.8,0.2,1.6,0.5,2.4,0.9c1.3,0.6,2.2,1.9,2.2,3.4
		c-0.2,1.6-1.3,2.9-2.8,3.4c-2.5,1.1-5.4,1.1-7.9,0c-1.1-0.4-2-1.2-2.5-2.2c-0.3-0.1-0.6-0.1-0.8,0l-5.5,3.2l5.5,3.2
		c0.6,0.3,1,1,0.9,1.7c-0.2,0.8-0.9,1.4-1.8,1.4c-1,0.1-1.9,0.5-2.7,1c-0.4,0.3-0.7,0.7-0.8,1.2c0.1,0.5,0.4,1,0.8,1.2
		c2.3,1.3,5.1,1.4,7.5,0.2c0.5-0.2,0.8-0.6,1.1-1c0.3-0.5,0.7-0.9,1.3-1C95.6,110.1,95.9,110,96.2,110z"/>
	<path class="st7" d="M104.1,125.2c-0.2,0-0.3,0-0.5-0.1l-7-4c-0.3-0.1-0.6-0.1-0.8,0c-0.4,0.8-1.1,1.4-1.9,1.9
		c-3.1,1.6-6.7,1.5-9.7-0.3c-1-0.6-1.6-1.6-1.6-2.8v-0.1v-6.7L81,112c-0.3-0.2-0.5-0.5-0.5-0.9v-8.9c0-0.4,0.2-0.7,0.5-0.9l7-4
		c0.7-0.4,1.6-0.5,2.4-0.2c0.5,0.1,1,0.5,1.2,1c0.4,0.6,0.9,1.1,1.6,1.3c0.8,0.3,1.7,0.5,2.6,0.6v-6.3c0-0.1,0-0.1,0-0.2
		c0.1-0.5,0.4-1,0.9-1.2l7-4c0.3-0.2,0.7-0.2,1,0l21.4,12.3c0.6,0.3,1,0.9,1,1.6v8.9c0,0.2,0,0.3-0.1,0.5c-0.2,0.5-0.5,0.8-0.9,1.1
		L104.6,125C104.5,125.1,104.3,125.2,104.1,125.2z M96.2,118.9c0.5,0,1,0.1,1.4,0.4l6.5,3.7l20.9-12c0,0,0,0,0,0.1v-8.7l-20.9-12.1
		L97.8,94v7c0,0.5-0.4,1-1,1c-1.5,0.1-3-0.2-4.4-0.7c-1.1-0.4-2-1.2-2.5-2.2c-0.3-0.1-0.6-0.1-0.8,0l-6.5,3.7v7.7l1.6,0.9
		c0.3,0.2,0.5,0.5,0.5,0.9v7.2v0.1c0.1,0.5,0.4,1,0.8,1.3c2.3,1.3,5.1,1.4,7.5,0.2c0.5-0.2,0.8-0.6,1.1-1c0.3-0.5,0.7-0.9,1.3-1
		C95.6,119,95.9,118.9,96.2,118.9z"/>
	<path class="st2" d="M117.2,12.7l-12.6-7.2c-0.8-0.4-1.7-0.4-2.5,0l-12.6,7.2l-8.8,3.8l0,0v8.9l7,4c0.3,0.2,0.6,0.2,1,0.2
		c0.5,0,1-0.2,1.3-0.6c0.3-0.6,0.8-1.2,1.5-1.5c0.2-0.1,0.3-0.2,0.5-0.2h0.1c0.1-0.1,0.3-0.1,0.4-0.2h0.1c0.1,0,0.3-0.1,0.4-0.1h0.1
		c0.2,0,0.3-0.1,0.5-0.1h0.1c0.2,0,0.4-0.1,0.5-0.1l0,0c0.2,0,0.4,0,0.6-0.1l0,0c0.4,0,0.8,0,1.2,0v2.2l0,0V34
		c0,0.2,0.2,0.4,0.4,0.5l7,4l0,0l7-4c0.3-0.2,0.6-0.2,0.9-0.2c0.5-0.1,1,0.2,1.3,0.6c0.4,0.8,1.2,1.5,2.1,1.8c2.3,0.9,4.8,0.9,7.1,0
		c1.5-0.7,2.2-1.6,2.2-2.6l0,0v-7.3l2.1-1.2v-8.9l0,0L117.2,12.7z"/>
	<path class="st2" d="M103.4,39.4c-0.2,0-0.3,0-0.5-0.1l-7-4C95.4,35,95,34.5,95,33.9v-6.2h-0.2c-0.2,0-0.4,0-0.5,0.1
		s-0.3,0.1-0.5,0.1S93.5,28,93.3,28c-0.1-0.1-0.3,0-0.4,0l-0.4-0.9l0.3,0.9c-0.1,0-0.2,0.1-0.3,0.1h-0.1c-0.1,0.1-0.3,0.1-0.4,0.2
		c-0.5,0.2-0.8,0.6-1.1,1c-0.4,0.8-1.3,1.2-2.2,1.2c-0.5,0-1-0.1-1.5-0.4l-7-4c-0.3-0.2-0.5-0.5-0.5-0.9v-8.9c0-0.4,0.2-0.8,0.6-0.9
		l8.7-3.8l12.5-7.2c1.1-0.6,2.4-0.6,3.5,0l12.5,7.2l8.7,3.8c0.4,0.2,0.6,0.5,0.6,0.9v8.9c0,0.4-0.2,0.7-0.5,0.9l-1.6,0.9v6.7
		c0,0.1,0,0.1,0,0.2c-0.2,1.6-1.3,2.9-2.8,3.4c-2.5,1.1-5.4,1.1-7.9,0c-1.1-0.4-2-1.2-2.5-2.2c-0.3-0.1-0.6-0.1-0.8,0l-7,4
		C103.7,39.4,103.6,39.4,103.4,39.4z M97,33.6l6.4,3.7l6.5-3.7c0.4-0.2,0.9-0.4,1.4-0.4c0.9-0.1,1.7,0.4,2.2,1.1
		c0.4,0.6,0.9,1.1,1.6,1.3c1,0.4,2.1,0.6,3.1,0.6c1.1,0,2.1-0.2,3.1-0.6c1-0.5,1.6-1.1,1.6-1.7v-0.1v-7.2c0-0.4,0.2-0.7,0.5-0.9
		l1.6-0.9v-7.7l-8.2-3.6c0,0-0.1,0-0.1-0.1l-12.6-7.2c-0.5-0.2-1-0.2-1.5,0L90,13.4c0,0-0.1,0-0.1,0.1L81.7,17v7.7l6.5,3.7
		c0.1,0.1,0.3,0.1,0.4,0.1s0.3,0,0.4-0.1c0.4-0.8,1.1-1.4,1.9-1.9c0.2-0.1,0.4-0.2,0.6-0.3h0.1c0.2-0.1,0.3-0.1,0.5-0.2h0.1
		c0.2-0.1,0.4-0.1,0.5-0.2h0.1c0.2,0,0.4-0.1,0.5-0.1c0.3-0.1,0.5-0.1,0.7-0.1s0.5-0.1,0.7-0.1c0.4,0,0.9,0,1.3,0c0.5,0,1,0.5,1,1
		V33.6z"/>
	<path class="st2" d="M111.1,34.2V16.7h-7.7v21.7l7-4C110.6,34.3,110.9,34.2,111.1,34.2z"/>
	<path class="st2" d="M88.9,16.5v13.1c0.4,0,0.9-0.2,1.1-0.6c0.3-0.6,0.8-1.2,1.5-1.5c2-1,4.4-1.3,6.6-0.6l4.1-2V9.2l-12.6,7.2h-0.7
		V16.5z"/>
	<polygon class="st2" points="121.9,27.7 126,25.4 126,16.5 121.9,16.5 	"/>
	<rect x="117" y="16.7" class="st2" width="6" height="6.2"/>
	<path class="st1" d="M103.4,39.4c-0.2,0-0.3,0-0.5-0.1l-7-4C95.4,35,95,34.5,95,33.9v-6.2h-0.2c-0.2,0-0.4,0-0.5,0.1
		s-0.3,0.1-0.5,0.1S93.5,28,93.3,28c-0.1-0.1-0.3,0-0.4,0l-0.4-0.9l0.3,0.9c-0.1,0-0.2,0.1-0.3,0.1h-0.1c-0.1,0.1-0.3,0.1-0.4,0.2
		c-0.5,0.2-0.8,0.6-1.1,1c-0.4,0.8-1.3,1.2-2.2,1.2c-0.5,0-1-0.1-1.5-0.4l-7-4c-0.3-0.2-0.5-0.5-0.5-0.9v-8.9c0-0.4,0.2-0.8,0.6-0.9
		l8.7-3.8l12.5-7.2c1.1-0.6,2.4-0.6,3.5,0l12.5,7.2l8.7,3.8c0.4,0.2,0.6,0.5,0.6,0.9v8.9c0,0.4-0.2,0.7-0.5,0.9l-1.6,0.9v6.7
		c0,0.1,0,0.1,0,0.2c-0.2,1.6-1.3,2.9-2.8,3.4c-2.5,1.1-5.4,1.1-7.9,0c-1.1-0.4-2-1.2-2.5-2.2c-0.3-0.1-0.6-0.1-0.8,0l-7,4
		C103.7,39.4,103.6,39.4,103.4,39.4z M97,33.6l6.4,3.7l6.5-3.7c0.4-0.2,0.9-0.4,1.4-0.4c0.9-0.1,1.7,0.4,2.2,1.1
		c0.4,0.6,0.9,1.1,1.6,1.3c1,0.4,2.1,0.6,3.1,0.6c1.1,0,2.1-0.2,3.1-0.6c1-0.5,1.6-1.1,1.6-1.7v-0.1v-7.2c0-0.4,0.2-0.7,0.5-0.9
		l1.6-0.9v-7.7l-8.2-3.6c0,0-0.1,0-0.1-0.1l-12.6-7.2c-0.5-0.2-1-0.2-1.5,0L90,13.4c0,0-0.1,0-0.1,0.1L81.7,17v7.7l6.5,3.7
		c0.1,0.1,0.3,0.1,0.4,0.1s0.3,0,0.4-0.1c0.4-0.8,1.1-1.4,1.9-1.9c0.2-0.1,0.4-0.2,0.6-0.3h0.1c0.2-0.1,0.3-0.1,0.5-0.2h0.1
		c0.2-0.1,0.4-0.1,0.5-0.2h0.1c0.2,0,0.4-0.1,0.5-0.1c0.3-0.1,0.5-0.1,0.7-0.1s0.5-0.1,0.7-0.1c0.4,0,0.9,0,1.3,0c0.5,0,1,0.5,1,1
		V33.6z"/>
	<path class="st6" d="M100.1,23c-0.9,0.6-2,1.1-3.1,1.2c-1,0.1-1.3,0.9-0.6,1.3l7,4l7-4c0.7-0.4,2-0.2,2.2,0.3
		c0.4,0.8,1.2,1.5,2.1,1.8c2.3,0.9,4.8,0.9,7.1,0c2.7-1.3,2.9-3.6,0.5-5c-0.8-0.4-1.7-0.7-2.6-0.9c-1-0.2-1.4-0.9-0.6-1.3l7-4
		L104.6,4.1c-0.8-0.4-1.7-0.4-2.5,0L80.8,16.5l7,4c0.7,0.4,1.9,0.2,2.2-0.4c0.3-0.6,0.9-1.2,1.5-1.5c2.7-1.4,6-1.3,8.6,0.3
		C101.7,20.1,101.7,21.8,100.1,23z"/>
	<path class="st1" d="M103.4,30.5c-0.2,0-0.3,0-0.5-0.1l-7-4c-0.6-0.3-1-1-0.9-1.7c0.2-0.8,0.9-1.4,1.8-1.4c1-0.1,1.9-0.5,2.7-1l0,0
		c0.4-0.3,0.7-0.7,0.8-1.2c-0.1-0.5-0.4-1-0.8-1.2c-2.3-1.3-5.1-1.4-7.5-0.2c-0.5,0.2-0.8,0.6-1.1,1c-0.3,0.5-0.7,0.9-1.3,1
		c-0.8,0.3-1.6,0.2-2.4-0.2l-7-4c-0.5-0.3-0.6-0.9-0.4-1.4c0.1-0.2,0.2-0.3,0.4-0.4l21.4-12.3c1.1-0.6,2.4-0.6,3.5,0l21.4,12.3
		c0.5,0.3,0.6,0.9,0.4,1.4c-0.1,0.2-0.2,0.3-0.4,0.4l-6.2,3.6c0.8,0.2,1.6,0.5,2.4,0.9c1.3,0.6,2.1,1.9,2.2,3.4
		c-0.1,1.4-1.1,2.6-2.8,3.4c-2.5,1.1-5.4,1.1-7.9,0c-1.1-0.4-2-1.2-2.5-2.2c-0.3-0.1-0.6-0.1-0.8,0l-7,4
		C103.7,30.5,103.6,30.5,103.4,30.5z M97.8,25.1l5.7,3.3l6.5-3.7c0.7-0.4,1.6-0.5,2.4-0.2c0.5,0.1,1,0.5,1.2,1
		c0.4,0.6,0.9,1.1,1.6,1.3c2,0.8,4.2,0.8,6.2,0c1-0.5,1.6-1.1,1.6-1.7c0-0.5-0.4-1.1-1.2-1.5c-0.7-0.4-1.4-0.6-2.2-0.7
		c-0.9,0-1.6-0.6-1.8-1.5c-0.1-0.7,0.2-1.4,0.9-1.7l5.5-3.2L104.1,5c-0.5-0.2-1-0.2-1.5,0L82.8,16.5l5.5,3.2c0.3,0.1,0.6,0.1,0.8,0
		c0.4-0.8,1.1-1.4,1.9-1.9c3.1-1.6,6.7-1.5,9.7,0.3c1,0.6,1.6,1.7,1.7,2.9c0,1.1-0.6,2.2-1.6,2.8l0,0C99.8,24.5,98.8,24.9,97.8,25.1
		z"/>
	<path class="st5" d="M103.4,39.4c-0.2,0-0.3,0-0.5-0.1l-7-4C95.4,35,95,34.5,95,33.9v-6.2l0,0h-0.1h-0.3c-0.2,0-0.4,0-0.5,0.1h-0.2
		c-0.2,0-0.4,0.1-0.6,0.1h-0.1C93,28,92.8,28,92.7,28.1l-0.2,0.1c-0.2,0.1-0.4,0.2-0.5,0.3l0,0l0,0c-0.5,0.2-0.8,0.6-1.1,1
		c0,0,0,0.1-0.1,0.1c-0.1,0.2-0.2,0.3-0.4,0.5c-0.1,0.1-0.2,0.1-0.2,0.2c-0.1,0.1-0.2,0.1-0.2,0.1c-0.1,0.1-0.2,0.1-0.4,0.1h-0.2
		c-0.1,0-0.3,0.1-0.4,0.1c0,0,0,0-0.1,0l0,0h-0.2c-0.5,0-1-0.1-1.5-0.4l-7-4c-0.3-0.2-0.5-0.5-0.5-0.9v-8.9c0-0.4,0.2-0.7,0.5-0.9
		l21.4-12.3c1.1-0.6,2.4-0.6,3.5,0l21.4,12.3c0.3,0.2,0.5,0.5,0.5,0.9v8.9c0,0.4-0.2,0.7-0.5,0.9l-1.6,0.9v6.7c0,0.1,0,0.1,0,0.2
		c0,0.1,0,0.2,0,0.3s0,0.2-0.1,0.3c0,0-0.1,0.2-0.1,0.3s-0.1,0.2-0.2,0.4l-0.1,0.1c-0.1,0.1-0.2,0.3-0.3,0.4
		c-0.6,0.7-1.3,1.2-2.1,1.6c-1.2,0.5-2.6,0.8-3.9,0.8c-1.4,0-2.7-0.2-4-0.8c-1.1-0.4-2-1.2-2.5-2.2c-0.1,0-0.3-0.1-0.4-0.1h-0.1
		c-0.1,0-0.2,0-0.2,0h-0.1l-7,4C103.7,39.4,103.6,39.4,103.4,39.4z M97,33.6l6.4,3.7l6.5-3.7c0.2-0.1,0.4-0.2,0.6-0.3
		c0.1,0,0.2,0,0.3-0.1c0.2,0,0.3,0,0.5,0c0.9-0.1,1.7,0.4,2.2,1.1c0.4,0.6,0.9,1.1,1.6,1.3c2,0.8,4.2,0.8,6.2,0
		c0.5-0.2,0.9-0.5,1.3-1c0-0.1,0.1-0.1,0.1-0.2c0-0.1,0.1-0.1,0.1-0.2v-0.1c0-0.1,0-0.1,0-0.2v-0.1l0,0v-7.2c0-0.4,0.2-0.7,0.5-0.9
		l1.6-0.9V17L104.1,5c-0.5-0.2-1-0.2-1.5,0L81.8,17v7.7l6.5,3.7c0.1,0.1,0.3,0.1,0.4,0.1h0.1l0,0c0.1,0,0.1,0,0.1,0
		c0.1,0,0.1,0,0.1,0l0,0c0.4-0.8,1.1-1.4,1.8-1.8l0,0c0.2-0.1,0.5-0.2,0.7-0.4l0.2-0.1c0.3-0.1,0.5-0.2,0.7-0.2l0.2-0.1
		c0.3-0.1,0.5-0.1,0.8-0.2h0.2c0.3,0,0.4-0.1,0.6-0.1h0.3h0.1c0.4,0,0.8,0,1.1,0h0.1c0.5,0,1,0.5,0.9,1L97,33.6z"/>
	<rect class="st0" width="128" height="128"/>
</g>
</svg>
