<?xml version="1.0" encoding="utf-8"?>
<!-- Generator: Adobe Illustrator 24.1.0, SVG Export Plug-In . SVG Version: 6.00 Build 0)  -->
<svg version="1.1" id="Layer_1" xmlns="http://www.w3.org/2000/svg" xmlns:xlink="http://www.w3.org/1999/xlink" x="0px" y="0px"
	 viewBox="0 0 128 128" style="enable-background:new 0 0 128 128;" xml:space="preserve">
<style type="text/css">
	.st0{fill:none;}
	.st1{fill:#E9EBDF;}
	.st2{fill:#4D9987;}
	.st3{fill:#0E352C;}
	.st4{fill:#FFFFFF;}
	.st5{fill:#185849;}
	.st6{fill:#C4D7D3;}
	.st7{fill:#27ae60;}
</style>
<g>
	<rect x="1" y="1" class="st0" width="126" height="126"/>
	<path class="st1" d="M125.4,90.1l-34-18l0,0l-34-21.3c-1-0.5-2.1-0.5-3.1,0L25.5,67.5c-0.5,0.3-1.2,0.3-1.7,0.1l-2.2-0.9
		c-1.2-0.5-2.6-0.4-3.8,0.2L4.1,74.8c-1,0.6-1.2,1.5-0.4,2.2l1.5,1.3c0.4,0.3,0.3,0.7-0.2,1l-2.4,1.4c-0.5,0.2-0.7,0.7-0.6,1.2
		c0.1,0.3,0.3,0.5,0.6,0.6l34,21.3l0,0l34,17.9c1,0.5,2.1,0.5,3.1,0l51.7-29.8c0.5-0.2,0.7-0.7,0.6-1.2
		C125.9,90.4,125.6,90.2,125.4,90.1z"/>
	<path class="st2" d="M36.6,104.7c-0.6,0-1-0.4-1-1c0-0.4,0.2-0.7,0.5-0.9l54.7-31.6c0.5-0.3,1.1-0.1,1.4,0.4s0.1,1.1-0.4,1.4l0,0
		l-54.7,31.6C37,104.7,36.8,104.7,36.6,104.7z"/>
	<path class="st3" d="M72.2,123.1c-0.7,0-1.4-0.2-2-0.5l-34-17.9L2.1,83.3C1.4,83,1,82.3,1,81.6c0-0.7,0.5-1.4,1.1-1.7l2-1.1l-1-0.9
		c-0.6-0.5-0.9-1.2-0.8-1.9c0.1-0.8,0.6-1.5,1.4-1.9l13.7-7.9c1.4-0.7,3.1-0.8,4.6-0.3l2.2,0.9c0.3,0.1,0.6,0.1,0.9,0L53.8,50
		c1.3-0.7,2.8-0.7,4.1,0l34,21.3l33.9,17.9l0,0c1,0.4,1.4,1.6,1,2.5c-0.2,0.4-0.5,0.8-1,1l-51.7,29.8
		C73.6,122.9,72.9,123.1,72.2,123.1z M3.1,81.6L3.1,81.6l34.1,21.3l33.9,17.9c0.7,0.3,1.4,0.3,2.1,0L124.9,91l0,0l0,0l-34-18
		L56.8,51.7c-0.6-0.3-1.4-0.3-2,0L26,68.4c-0.8,0.4-1.7,0.5-2.6,0.2l-2.2-0.9c-0.9-0.3-2-0.3-2.9,0.1L4.6,75.7
		C4.3,75.9,4.2,76,4.2,76c0,0.1,0.1,0.2,0.2,0.2l1.5,1.3c0.4,0.3,0.6,0.8,0.6,1.3c-0.1,0.6-0.4,1-0.9,1.3L3.1,81.6L3.1,81.6z"/>
	<polygon class="st4" points="40.9,93.9 73.8,110.1 119.6,83.6 86.8,67.4 	"/>
	<path class="st3" d="M73.8,111.1c-0.2,0-0.3,0-0.4-0.1L40.5,94.8C40,94.6,39.8,94,40,93.5c0.1-0.2,0.2-0.3,0.4-0.4l45.8-26.5
		c0.3-0.2,0.6-0.2,0.9,0L120,82.8c0.5,0.2,0.7,0.8,0.5,1.3c-0.1,0.2-0.2,0.3-0.4,0.4L74.3,111C74.1,111,74,111.1,73.8,111.1z
		 M43,93.8l30.7,15.1l43.8-25.3l-30.7-15L43,93.8z"/>
	<polygon class="st1" points="73.8,116.6 73.8,110.1 119.6,83.6 119.6,90.2 	"/>
	<path class="st2" d="M73.8,117.6c-0.6,0-1-0.4-1-1V110c0-0.4,0.2-0.7,0.5-0.9l45.8-26.5c0.5-0.3,1.1-0.1,1.4,0.4
		c0.1,0.2,0.1,0.3,0.1,0.5v6.6c0,0.4-0.2,0.7-0.5,0.9l-45.8,26.5C74.1,117.6,74,117.6,73.8,117.6z M74.8,110.7v4.3l43.8-25.3v-4.3
		L74.8,110.7z"/>
	<polygon class="st1" points="73.8,116.6 73.8,110.1 40.9,93.9 40.9,100.5 	"/>
	<path class="st2" d="M73.8,117.6c-0.2,0-0.3,0-0.4-0.1l-32.9-16.2c-0.3-0.2-0.6-0.5-0.6-0.9v-6.6c0-0.6,0.4-1,1-1
		c0.2,0,0.3,0,0.4,0.1l32.9,16.2c0.3,0.2,0.6,0.5,0.6,0.9v6.6C74.8,117.2,74.3,117.6,73.8,117.6z M41.9,99.8L72.8,115v-4.3
		L41.9,95.5V99.8z"/>
	<polygon class="st1" points="115,86.3 82.1,70.1 86.8,67.4 119.6,83.6 	"/>
	<path class="st2" d="M115,87.3c-0.2,0-0.3,0-0.4-0.1L81.7,71c-0.5-0.2-0.7-0.8-0.5-1.3c0.1-0.2,0.2-0.3,0.4-0.4l4.6-2.7
		c0.3-0.2,0.6-0.2,0.9,0L120,82.8c0.5,0.2,0.7,0.8,0.5,1.3c-0.1,0.2-0.2,0.3-0.4,0.4l-4.6,2.7C115.4,87.2,115.2,87.3,115,87.3z
		 M84.2,70L115,85.1l2.5-1.5l-30.7-15L84.2,70z"/>
	<path class="st5" d="M119.6,41.3c-0.3,0-0.5-0.1-0.7-0.3c0,0-0.1-0.1-0.1-0.2c0-0.1-0.1-0.1-0.1-0.2c0-0.1,0-0.1-0.1-0.2
		c0-0.1,0-0.1,0-0.2c0-0.3,0.1-0.5,0.3-0.7c0.4-0.4,1-0.4,1.4,0c0.2,0.2,0.3,0.4,0.3,0.7c0,0.1,0,0.1,0,0.2c0,0.1,0,0.1,0,0.2
		c0,0.1-0.1,0.1-0.1,0.2c0,0.1-0.1,0.1-0.1,0.2c-0.1,0.1-0.2,0.2-0.3,0.2C119.9,41.3,119.8,41.3,119.6,41.3z"/>
	<path class="st5" d="M118.6,34.6c0-0.5,0.4-1,1-1l0,0l0,0c0.5,0,1,0.4,1,1l0,0l0,0c0,0.6-0.4,1-1,1l0,0
		C119.1,35.6,118.6,35.1,118.6,34.6L118.6,34.6z M118.6,28.9c0-0.5,0.4-1,1-1l0,0l0,0c0.6,0,1,0.4,1,1l0,0c0,0.6-0.4,1-1,1l0,0
		C119.1,29.8,118.6,29.4,118.6,28.9L118.6,28.9z M118.6,23.1c0-0.5,0.4-1,1-1l0,0l0,0c0.6,0,1,0.4,1,1l0,0c0,0.6-0.4,1-1,1l0,0
		C119.1,24.1,118.6,23.7,118.6,23.1L118.6,23.1z M118.6,17.4c0-0.5,0.4-1,1-1l0,0l0,0c0.6,0,1,0.4,1,1l0,0c0,0.6-0.4,1-1,1l0,0
		C119.1,18.4,118.6,17.9,118.6,17.4L118.6,17.4z M118.6,11.7c0-0.5,0.4-1,1-1l0,0l0,0c0.5,0,1,0.4,1,1l0,0l0,0c0,0.6-0.4,1-1,1l0,0
		C119.1,12.7,118.6,12.2,118.6,11.7L118.6,11.7z"/>
	<path class="st5" d="M119.6,6.9c-0.5,0-1-0.5-1-1c0-0.3,0.1-0.5,0.3-0.7c0.4-0.4,1-0.4,1.4,0l0,0c0.2,0.2,0.3,0.4,0.3,0.7
		c0,0.3-0.1,0.5-0.3,0.7c-0.1,0.1-0.2,0.2-0.3,0.2C119.9,6.9,119.8,6.9,119.6,6.9z"/>
	<path class="st5" d="M40.9,48.8c-0.1,0-0.3,0-0.4-0.1c-0.1-0.1-0.2-0.1-0.3-0.2c-0.1-0.1-0.2-0.2-0.2-0.3s0-0.1-0.1-0.2
		c0-0.1,0-0.1,0-0.2c0-0.1,0-0.1,0-0.2c0-0.1,0.1-0.3,0.1-0.4c0-0.1,0.1-0.1,0.1-0.2c0.1-0.1,0.2-0.2,0.3-0.2c0.2-0.1,0.5-0.1,0.8,0
		c0.1,0,0.2,0.1,0.3,0.2c0,0,0.1,0.1,0.1,0.2c0,0,0.1,0.1,0.1,0.2s0,0.1,0.1,0.2c0,0.1,0,0.1,0,0.2c0,0.1,0,0.1,0,0.2l-0.1,0.2
		c0,0.1-0.1,0.2-0.2,0.3c-0.1,0.1-0.2,0.2-0.3,0.2C41.2,48.8,41,48.8,40.9,48.8z"/>
	<path class="st5" d="M39.9,41.9c0-0.6,0.4-1,1-1l0,0c0.6,0,1,0.4,1,1l0,0c0,0.6-0.4,1-1,1l0,0C40.3,42.9,39.9,42.5,39.9,41.9z
		 M39.9,36c0-0.6,0.4-1,1-1l0,0c0.6,0,1,0.4,1,1l0,0c0,0.6-0.4,1-1,1l0,0C40.3,37,39.9,36.6,39.9,36L39.9,36z M39.9,30.1
		c0-0.6,0.4-1,1-1l0,0c0.5,0,1,0.4,1,1l0,0l0,0c0,0.6-0.4,1-1,1l0,0C40.3,31.1,39.9,30.7,39.9,30.1L39.9,30.1z M39.9,24.2
		c0-0.6,0.4-1,1-1l0,0c0.6,0,1,0.4,1,1l0,0l0,0c0,0.6-0.4,1-1,1l0,0C40.3,25.2,39.9,24.8,39.9,24.2L39.9,24.2z M39.9,18.3
		c0-0.6,0.4-1,1-1l0,0c0.6,0,1,0.4,1,1l0,0c0,0.6-0.4,1-1,1l0,0C40.3,19.3,39.9,18.9,39.9,18.3L39.9,18.3z"/>
	<path class="st5" d="M40.9,13.4c-0.1,0-0.3,0-0.4-0.1c-0.1,0-0.2-0.1-0.3-0.2c-0.4-0.4-0.4-1,0-1.4l0,0c0.4-0.4,1-0.4,1.4,0
		s0.4,1,0,1.4l0,0c-0.1,0.1-0.2,0.2-0.3,0.2C41.2,13.4,41,13.4,40.9,13.4z"/>
	<polygon class="st4" points="40.9,47.8 73.8,66.8 119.6,40.3 86.8,21.3 	"/>
	<polygon class="st6" points="115,43 82.1,24 86.8,21.3 119.6,40.3 	"/>
	<path class="st7" d="M115,44c-0.2,0-0.3,0-0.5-0.1l-32.9-19c-0.5-0.3-0.6-0.9-0.4-1.4c0.1-0.2,0.2-0.3,0.4-0.4l4.6-2.7
		c0.3-0.2,0.7-0.2,1,0l32.9,19c0.5,0.3,0.6,0.9,0.4,1.4c-0.1,0.2-0.2,0.3-0.4,0.4l-4.6,2.7C115.4,43.9,115.2,44,115,44z M84.1,24
		L115,41.8l2.6-1.5L86.8,22.5L84.1,24z"/>
	<path class="st7" d="M75.1,52.9c0.7-0.4,1.5-0.3,2.1,0.1l0.4,0.2c1,0.5,2.2,0.4,3.2-0.2l4.3-2.5c0.9-0.6,2.1-0.8,3.1-0.6
		c-0.4-0.6,0-1.3,1-1.8l4.3-2.5c1-0.6,1.1-1.4,0.3-1.8l-0.4-0.2c-0.8-0.5-0.7-0.9-0.1-1.2c0.7-0.3,1.5-0.3,2.1,0.1l0.4,0.2
		c1.8,1.1,2.2,2.9-0.1,4.2l-4,2.3c-0.6,0.3-0.9,0.7-0.8,1.1c0.2,0.5,0.3,0.7-0.3,1.1c-0.6,0.3-1.2,0.3-1.8,0.1
		c-0.7-0.1-1.3,0.1-1.9,0.5l-4,2.3c-2.3,1.2-5,1.2-7.3,0.1l-0.4-0.2C74.5,53.7,74.6,53.2,75.1,52.9"/>
	<path class="st7" d="M67.5,38.1c0.6-0.3,1.2-0.3,1.8-0.1c0.7,0.1,1.3-0.1,1.9-0.5l4-2.3c2.3-1.2,5-1.2,7.3-0.1l0.4,0.2
		c0.8,0.5,0.7,0.9,0.2,1.2c-0.7,0.4-1.5,0.3-2.1-0.1l-0.4-0.2c-1-0.5-2.2-0.4-3.1,0.2l-4.3,2.5c-0.9,0.6-2.1,0.8-3.1,0.6
		c0.4,0.6,0,1.3-1,1.8l-4.3,2.5c-1,0.6-1.1,1.4-0.3,1.8l0.4,0.2c0.8,0.5,0.7,0.9,0.1,1.2c-0.7,0.3-1.5,0.3-2.1-0.1l-0.4-0.2
		c-1.8-1.1-2.2-2.9,0.1-4.2l4-2.3c0.6-0.3,0.9-0.7,0.8-1.1C67,38.6,67,38.4,67.5,38.1"/>
	<path class="st1" d="M76,97.3c0.6-0.3,1.4-0.3,2,0.1l0.4,0.2c1,0.4,2.1,0.4,3-0.2l4.1-2.4c0.9-0.6,2-0.8,3-0.6
		c-0.4-0.6,0-1.2,1-1.7l4.1-2.4c1-0.6,1-1.3,0.3-1.7l-0.4-0.2c-0.8-0.4-0.7-0.9-0.1-1.2c0.6-0.3,1.4-0.3,2,0.1l0.4,0.2
		c1.8,1,2.1,2.8-0.1,4l-3.8,2.2c-0.5,0.3-0.9,0.7-0.8,1.1c0.2,0.5,0.3,0.7-0.2,1s-1.2,0.3-1.8,0.1c-0.6-0.1-1.3,0.1-1.8,0.4
		l-3.8,2.2c-2.2,1.2-4.8,1.2-7,0.1l-0.4-0.2C75.4,98,75.5,97.6,76,97.3"/>
	<path class="st1" d="M68.7,83c0.5-0.3,1.2-0.3,1.8-0.1c0.6,0.1,1.3-0.1,1.8-0.4l3.8-2.2c2.2-1.2,4.8-1.2,7-0.1l0.4,0.2
		c0.8,0.4,0.7,0.9,0.2,1.2c-0.6,0.3-1.4,0.3-2-0.1l-0.4-0.2c-1-0.5-2.1-0.4-3,0.2L74,83.8c-0.9,0.6-2,0.8-3,0.6c0.4,0.6,0,1.2-1,1.7
		l-4.1,2.4c-1,0.6-1,1.3-0.3,1.8l0.4,0.2c0.8,0.4,0.7,0.9,0.1,1.2c-0.6,0.3-1.4,0.3-2-0.1l-0.4-0.2c-1.8-1-2.1-2.8,0.1-4l3.8-2.2
		c0.5-0.3,0.9-0.7,0.8-1.1C68.2,83.6,68.2,83.3,68.7,83"/>
	<path class="st3" d="M73.8,117.6c-0.2,0-0.3,0-0.4-0.1l-32.9-16.2c-0.3-0.2-0.6-0.5-0.6-0.9v-6.6c0-0.4,0.2-0.7,0.5-0.9l45.8-26.5
		c0.3-0.2,0.6-0.2,0.9,0L120,82.6c0.3,0.2,0.6,0.5,0.6,0.9v6.6c0,0.4-0.2,0.7-0.5,0.9l-45.8,26.5C74.1,117.6,74,117.6,73.8,117.6z
		 M41.9,99.8l31.8,15.7l44.9-25.9v-5.4L86.8,68.6L41.9,94.5V99.8z"/>
	<path class="st5" d="M73.8,67.8c-0.2,0-0.3,0-0.5-0.1l-32.9-19c-0.5-0.3-0.6-0.9-0.4-1.4c0.1-0.2,0.2-0.3,0.4-0.4l45.8-26.5
		c0.3-0.2,0.7-0.2,1,0l32.9,19c0.5,0.3,0.6,0.9,0.4,1.4c-0.1,0.2-0.2,0.3-0.4,0.4L74.3,67.6C74.1,67.7,74,67.8,73.8,67.8z
		 M42.9,47.8l30.9,17.8l43.9-25.3L86.8,22.5L42.9,47.8z"/>
	<rect class="st0" width="128" height="128"/>
</g>
</svg>
