<?xml version="1.0" encoding="utf-8"?>
<!-- Generator: Adobe Illustrator 24.1.0, SVG Export Plug-In . SVG Version: 6.00 Build 0)  -->
<svg version="1.1" id="Layer_1" xmlns="http://www.w3.org/2000/svg" xmlns:xlink="http://www.w3.org/1999/xlink" x="0px" y="0px"
	 viewBox="0 0 128 128" style="enable-background:new 0 0 128 128;" xml:space="preserve">
<style type="text/css">
	.st0{fill:none;}
	.st1{fill:#E9EBDF;}
	.st2{fill:#FFFFFF;}
	.st3{fill:#0E352C;}
	.st4{fill:#4D9987;}
</style>
<g>
	<ellipse class="st0" cx="64.5" cy="71.4" rx="37.2" ry="18.1"/>
	<path class="st1" d="M21.9,67.5c0,0-24.9,5.6-16.1,16.8S26.3,87,23.1,94S3,121,57.3,120.8s32.1-13.7,38.5-19.2
		c6.6-5.7,46.2-15.2,23.1-28S88.6,65.3,95,54.3S67.8,46,58.7,53.9S21.9,67.5,21.9,67.5z"/>
	<path class="st2" d="M72.4,30.7L34,8.4C26.9,4.3,15.4,11,8.3,23.2s-7.1,25.6,0,29.7l38.4,22.3L72.4,30.7z"/>
	<path class="st3" d="M46.7,76.2c-0.2,0-0.3,0-0.5-0.1L7.7,53.8C4,51.6,1.9,47.1,1.9,41.1c0-5.8,2-12.3,5.5-18.4s8.2-11,13.2-13.9
		c5.2-3,10.1-3.4,13.8-1.3l38.4,22.3c0.5,0.3,0.6,0.9,0.4,1.4l0,0L47.5,75.7c-0.1,0.2-0.4,0.4-0.6,0.5
		C46.8,76.1,46.7,76.2,46.7,76.2z M29.2,8.2c-2.7,0.1-5.3,0.9-7.6,2.3c-4.7,2.7-9.1,7.4-12.5,13.2s-5.2,12-5.2,17.4
		c0,5.2,1.7,9.1,4.8,10.9l37.6,21.8L71,31L33.5,9.3C32.2,8.6,30.7,8.2,29.2,8.2z"/>
	<path class="st1" d="M8.3,23.3C1.2,35.6,1.2,48.9,8.3,53l38.4,22.3L59.6,53L8.3,23.3z"/>
	<ellipse transform="matrix(0.501 -0.8654 0.8654 0.501 -16.1262 77.9019)" class="st1" cx="59.5" cy="52.9" rx="25.7" ry="14.8"/>
	<path class="st3" d="M46.7,76.2c-0.2,0-0.3,0-0.5-0.1L7.7,53.8C4,51.6,1.9,47.1,1.9,41.1c0-5.8,2-12.3,5.5-18.4s8.2-11,13.2-13.9
		c5.2-3,10.1-3.4,13.8-1.3l38.4,22.3c0.5,0.3,0.6,0.9,0.3,1.4c-0.3,0.4-0.9,0.6-1.3,0.4L33.5,9.3c-3.1-1.8-7.3-1.4-11.8,1.3
		C17,13.3,12.6,18,9.2,23.8S4,35.8,4,41.2c0,5.2,1.7,9.1,4.8,10.9l38.4,22.3c0.5,0.3,0.6,0.9,0.4,1.4C47.3,76,47,76.2,46.7,76.2
		L46.7,76.2z"/>
	<ellipse transform="matrix(0.501 -0.8654 0.8654 0.501 -16.1262 77.9019)" class="st1" cx="59.5" cy="52.9" rx="21.1" ry="11.3"/>
	<path class="st1" d="M69.3,58.6L69.3,58.6c5.8-10.1,6.2-20.8,0.8-23.9s-14.5,2.5-20.3,12.6l0,0L69.3,58.6z"/>
	<path class="st3" d="M51.4,77.4c-1.8,0-3.6-0.4-5.2-1.4c-0.5-0.3-0.6-0.9-0.3-1.4c0.3-0.4,0.9-0.6,1.3-0.4c2.6,1.5,5.9,1.4,9.5-0.1
		c3.2-1.4,6-3.5,8.5-6C70.1,63,73.7,56.8,75.7,50c1-3.3,1.3-6.8,1-10.3c-0.5-4-2.1-6.8-4.7-8.3c-0.5-0.3-0.7-0.9-0.4-1.4
		c0.3-0.5,0.9-0.7,1.4-0.4c0,0,0,0,0.1,0c3.1,1.8,5.1,5.2,5.6,9.8c0.4,3.7,0,7.5-1,11.1c-2,7.1-5.8,13.6-11,18.9
		c-2.6,2.7-5.7,4.9-9.1,6.4C55.5,76.9,53.5,77.3,51.4,77.4z"/>
	<path class="st4" d="M41.4,69.4c-0.4,0-0.8-0.3-1-0.7c-0.7-2.7-0.9-5.6-0.6-8.4c0.3-2.8,0.9-5.5,1.9-8.1c1.8-5.2,4.7-10.1,8.3-14.3
		c1.8-2.1,3.9-4,6.1-5.6c2.3-1.7,4.8-2.9,7.6-3.7c0.5-0.1,1.1,0.2,1.2,0.7s-0.2,1.1-0.7,1.2c-2.5,0.7-4.8,1.8-6.9,3.4
		c-2.1,1.5-4.1,3.3-5.8,5.3c-3.4,4-6.1,8.6-7.9,13.6c-0.9,2.5-1.5,5-1.8,7.7c-0.3,2.6-0.1,5.2,0.5,7.7c0.2,0.5-0.2,1.1-0.7,1.2l0,0
		C41.6,69.4,41.5,69.4,41.4,69.4z"/>
	<path class="st1" d="M36.9,65.3c-3.2,5.2-8.7,8.6-14.8,9.1C12,75.4,3,68.9,2.1,59.9c-0.2-1.6-0.1-3.2,0.3-4.8
		c1-3.8,3.2-7.2,6.4-9.5c0,0,5.4,0.4,4.1,6.5c-2,1.8-3.7,5.1-3.4,7.7c0.5,4.9,5.7,7.9,11.5,7.4c4.6-0.5,8.6-3.5,9.6-7.2
		C30.7,60,37.2,58,36.9,65.3z"/>
	<path class="st2" d="M37.4,65c-0.1,0-0.1,0-0.2,0c-0.5-0.1-0.9-0.6-0.8-1.2c0.2-0.9-0.1-1.9-0.8-2.6c-0.8-0.8-2-1.1-3.2-0.8
		c-0.5,0.1-1.1-0.2-1.2-0.7s0.2-1.1,0.7-1.2c0,0,0,0,0.1,0c1.8-0.4,3.7,0.1,5,1.4c1.2,1.1,1.7,2.8,1.3,4.4
		C38.3,64.6,37.9,65,37.4,65z"/>
	<path class="st2" d="M25.1,68.9c-0.6,0-1-0.4-1-1c0-0.4,0.3-0.8,0.7-1c2.4-0.6,4.3-2.3,5.2-4.5c0.2-0.5,0.8-0.8,1.3-0.6
		s0.8,0.8,0.6,1.3l0,0c-1.2,2.9-3.6,5-6.6,5.8C25.3,68.9,25.2,68.9,25.1,68.9z"/>
	<path class="st3" d="M19.6,68.3c-2.4,0-4.8-0.6-6.8-1.8c-2.4-1.4-3.9-3.8-4.2-6.5c-0.3-2.8,1.3-5.8,2.8-7.6c0.4-0.4,1-0.5,1.4-0.1
		s0.5,1,0.1,1.4c-1.5,1.7-2.3,3.9-2.3,6.1c0.2,2.1,1.5,3.9,3.3,5c2.1,1.2,4.6,1.8,7.1,1.5c3.3-0.3,6.3-2.1,8.1-4.9
		c0.3-0.5,0.9-0.6,1.4-0.4c0.5,0.3,0.6,0.9,0.4,1.4l0,0c-2.1,3.3-5.7,5.5-9.6,5.9C20.6,68.2,20.1,68.3,19.6,68.3z"/>
	<path class="st1" d="M20.2,73.9c-3.3,0-6.5-0.7-9.4-2.1c-0.5-0.3-0.7-0.9-0.4-1.4s0.9-0.7,1.4-0.4c0.4,0.2,10.7,5.7,21-2.9
		c0.4-0.4,1-0.3,1.4,0.1s0.3,1-0.1,1.4l0,0C30.2,72,25.3,73.9,20.2,73.9z"/>
	<path class="st3" d="M20,75.4c-9.8,0-18.1-6.6-19-15.4c-0.2-1.7-0.1-3.5,0.3-5.1c0.8-3.1,2.4-6,4.7-8.2c0.4-0.4,1-0.4,1.4,0
		s0.4,1,0,1.4c-2,2-3.5,4.5-4.2,7.3c-0.3,1.5-0.4,3-0.3,4.5c0.8,8.4,9.4,14.5,19,13.5c5.2-0.4,10-3.1,13.2-7.3
		c0.3-0.5,0.9-0.6,1.4-0.3c0.5,0.3,0.6,0.9,0.3,1.4l0,0c-3.5,4.7-8.8,7.6-14.6,8.1C21.5,75.4,20.8,75.4,20,75.4z"/>
	<path class="st3" d="M52.3,73c-1.4,0-2.7-0.3-3.9-1c-2.9-1.7-4.5-5.3-4.3-10.2c0.4-5.3,2-10.5,4.7-15C55,36.1,64.5,30.4,70.5,33.9
		s5.8,14.5-0.4,25.2c-1.5,2.7-3.4,5.2-5.5,7.4c-0.4,0.4-1,0.4-1.4,0.1c-0.4-0.4-0.4-1-0.1-1.4l0,0c2-2.1,3.8-4.5,5.2-7
		c5.4-9.4,6-19.7,1.2-22.5s-13.5,2.8-19,12.2C47.9,52.2,46.4,57,46,62c-0.1,4.1,1,7.1,3.3,8.4c2.5,1.4,6.1,0.7,9.9-2
		c0.4-0.3,1.1-0.2,1.4,0.2c0.3,0.4,0.2,1.1-0.2,1.4l0,0C58.2,71.8,55.3,72.8,52.3,73z"/>
	<path class="st1" d="M60.4,60c2.2,2.1,4.9,2.9,5.5,3.5c2.4,2.5,0.8,6.1,3,5.7c2.9-0.5,1.9,10.9-6.3,11.1s-5.2-3.1-2.8-4.8
		c1.2-0.9,1.2-5.4,0.1-6.3c-0.1-0.1-0.1-0.1-0.2-0.1c-1.3-0.5-11.3-3.7-14.5-6.3c0,0,0,0-0.1-0.1c0.1-4.1,1-8.2,2.8-11.9
		C49.1,51.7,56.1,55.9,60.4,60z"/>
	<path class="st4" d="M59.6,76.7c-0.6,0-1-0.4-1-1c0-0.4,0.3-0.8,0.7-1c0.1,0,0.5-0.1,0.7-0.9c0.2-1.4,0-2.8-0.8-4
		c-0.2-0.1-0.8-0.3-1.8-0.6c-4.3-1.5-8.4-3.2-12.5-5.1c-0.5-0.3-0.7-0.9-0.4-1.3s0.9-0.7,1.3-0.4l0,0c4,1.9,8.1,3.6,12.3,5
		c1,0.4,1.7,0.6,1.9,0.7s0.3,0.2,0.5,0.3c1.1,1,1.8,4,1.4,5.9c-0.2,1.1-1,2.1-2,2.4C59.8,76.7,59.7,76.7,59.6,76.7z"/>
	<path class="st4" d="M68.9,70.2c-0.2,0-0.5,0-0.7-0.1c-0.7-0.3-1-1.1-1.2-1.9c-0.3-1.3-1-2.4-1.9-3.4c-0.3-0.3-3.5-2.7-6.7-4.9
		c-4.5-3.3-9.7-7.1-11.1-8.3c-0.4-0.4-0.5-1-0.1-1.4s1-0.5,1.4-0.1c1.4,1.2,6.7,5.1,11,8.2c5.2,3.8,6.7,4.9,6.9,5.2
		c1.1,1.2,1.9,2.6,2.3,4.2c0.1,0.2,0.1,0.4,0.2,0.5c0,0,0.1,0,0.1-0.1c0.5-0.2,1.1,0,1.3,0.5c0.2,0.5,0,1.1-0.5,1.3
		C69.7,70.1,69.3,70.2,68.9,70.2z"/>
	<path class="st3" d="M45.5,66.9c-0.5,0-0.9-0.3-1-0.8c-1.2-5.3,0.5-12.5,4.4-19.3c0.6-1.1,1.3-2.1,2-3.1c0.3-0.5,0.9-0.6,1.4-0.2
		s0.6,0.9,0.2,1.4c-0.7,0.9-1.3,1.9-1.9,2.9C47,54,45.4,60.9,46.5,65.6c0.1,0.5-0.2,1.1-0.8,1.2C45.6,66.8,45.6,66.9,45.5,66.9z"/>
	<path class="st4" d="M57.2,76.7c-1.1,0.3-1.9,1.2-2.3,2.2c-0.2,0.9,0,1.7,0.5,2.5c0.3,0.4,0.7,0.8,1.1,1c0.5,0.3,1.1,0.1,1.4-0.4
		c0.3-0.5,0.1-1.1-0.4-1.4c-0.1-0.1-0.3-0.3-0.1,0c-0.1-0.1-0.1-0.1-0.2-0.2s-0.1-0.1-0.2-0.2s-0.1-0.2,0.1,0.1L57,80.2
		c0-0.1-0.1-0.1-0.1-0.2c0,0,0-0.1-0.1-0.1c-0.1-0.1,0.1,0.3,0,0.1c0-0.1-0.1-0.2-0.1-0.2v-0.1c0.1,0.3,0,0.2,0,0.1s0-0.2,0-0.3
		c0-0.2-0.1,0.3,0,0.1v-0.1v-0.1c0-0.1-0.1,0.3,0,0.1c0-0.1,0.1-0.2,0.1-0.2c0.1-0.1-0.2,0.2,0,0l0.1-0.1l0.1-0.1
		c0.2-0.2-0.2,0.1,0,0c0.1-0.1,0.2-0.1,0.3-0.2c0.1,0,0.1-0.1,0.2-0.1s0.3-0.1,0,0c0.2-0.1,0.5-0.2,0.6-0.5c0.3-0.5,0.1-1.1-0.3-1.4
		C57.8,76.6,57.5,76.6,57.2,76.7L57.2,76.7z"/>
	<path class="st1" d="M72.7,79.2c1-0.8,2-1.5,3.1-2.2c1.2-0.7,2-1.8,2.5-3.1c0.4-1.3,0-2.7-1-3.6c-1.2-0.8-2.6-1.2-4.1-1.1
		c-0.6,0-1,0.4-1,1s0.4,1,1,1c1-0.1,1.9,0.1,2.8,0.6c0.6,0.5,0.6,1.4,0.2,2c-0.5,0.8-1.3,1.4-2.1,1.9c-1,0.5-2,1.2-2.8,2
		c-0.4,0.4-0.4,1,0,1.4C71.7,79.6,72.3,79.6,72.7,79.2L72.7,79.2z"/>
	<path class="st4" d="M50.2,80.1c-0.6,1.1-0.5,2.4,0.1,3.5c0.7,1,1.6,1.8,2.6,2.4c2.1,1.2,4.5,1.8,7,1.7c1.3,0,1.3-2,0-2
		c-1.9,0.1-3.7-0.3-5.4-1.2c-0.8-0.4-1.5-0.9-2.1-1.5c-0.5-0.5-0.7-1.3-0.4-1.9C52.5,79.9,50.8,78.9,50.2,80.1L50.2,80.1z"/>
	<path class="st1" d="M73.6,67.1c0.2-0.1,0.3-0.1,0.5-0.1h-0.3c0.2,0,0.5,0,0.7,0h-0.3c0.2,0,0.4,0.1,0.6,0.2l-0.2-0.1
		c0.2,0.1,0.4,0.2,0.6,0.3L75,67.2c0.1,0.1,0.2,0.2,0.3,0.3c0.4,0.4,1,0.4,1.4,0s0.4-1,0-1.4c-0.9-1-2.3-1.3-3.6-0.9
		c-0.2,0.1-0.5,0.2-0.6,0.5c-0.1,0.2-0.2,0.5-0.1,0.8s0.2,0.5,0.5,0.6C73.1,67.1,73.4,67.2,73.6,67.1L73.6,67.1z"/>
	<path class="st1" d="M120.6,79.3c0.1,0,0.1,0.1,0.2,0.1c0,0,0.2,0.1,0.1,0c0.1,0.1,0.2,0.2,0.3,0.3c0.1,0.1,0.1,0.1,0.2,0.2
		s0,0,0,0.1c0.1,0.1,0.2,0.2,0.2,0.4c0,0.1,0.1,0.1,0.1,0.2s0-0.1,0,0.1s0.1,0.3,0.1,0.5c0,0.1,0,0.1,0,0.2c0-0.2,0,0,0,0.1
		c0,0.2,0,0.3,0,0.5s0-0.1,0,0s0,0.2,0,0.2c0,0.2-0.1,0.3-0.1,0.4s-0.1,0.1,0,0c0,0.1-0.1,0.1-0.1,0.2c-0.1,0.1-0.2,0.3-0.2,0.4
		c-0.1,0.1,0.1-0.2,0,0.1l-0.1,0.1c-0.1,0.1-0.2,0.2-0.3,0.3c0.1-0.1,0,0-0.1,0s-0.1,0.1-0.2,0.1c-0.1,0.1-0.3,0.1-0.4,0.2
		c-0.5,0.3-0.6,0.9-0.4,1.4c0.3,0.5,0.9,0.6,1.4,0.4c2.3-1,3.4-3.7,2.3-6c-0.4-0.9-1.1-1.6-1.9-2.1c-0.5-0.3-1.1-0.1-1.4,0.4
		C120,78.4,120.1,79,120.6,79.3L120.6,79.3L120.6,79.3z"/>
	<path class="st1" d="M92,52.2c0,0.2,0,0.4,0,0.5v-0.3c-0.1,0.4-0.2,0.8-0.3,1.2l0.1-0.2c-0.1,0.3-0.3,0.6-0.5,0.8
		c0,0.1-0.1,0.1-0.1,0.2c0.2-0.3,0,0,0,0c-0.1,0.1-0.2,0.2-0.4,0.4c-0.4,0.4-0.4,1,0,1.4s1,0.4,1.4,0c1.1-1.1,1.7-2.5,1.8-4
		c0-0.6-0.4-1-1-1S92,51.6,92,52.2L92,52.2z"/>
	<path class="st1" d="M85.8,113.7l-0.6,0.1c-0.5,0.2-0.8,0.7-0.7,1.2l0.1,0.2c0.1,0.1,0.2,0.3,0.4,0.4l0.2,0.1c0.2,0,0.4,0,0.5,0
		l0.6-0.1c0.2-0.1,0.5-0.2,0.6-0.5c0.1-0.2,0.2-0.5,0.1-0.8l-0.1-0.2c-0.1-0.1-0.2-0.3-0.4-0.4l-0.2-0.1
		C86.2,113.7,86,113.7,85.8,113.7L85.8,113.7z"/>
	<path class="st1" d="M93.3,103c0.1-0.2,0.2-0.4,0.2-0.6c0-0.1,0.1-0.2,0.1-0.3c-0.1,0.2,0,0.1,0,0s0-0.1,0.1-0.2
		c0.2-0.4,0.4-0.8,0.6-1.1c0,0,0-0.1,0.1-0.1c-0.2,0.2-0.1,0.1,0,0s0.1-0.1,0.2-0.2s0.1-0.1,0.2-0.2l0.1-0.1c0,0,0.2-0.1,0,0
		s0,0,0,0l0.1-0.1c0.1,0,0.1-0.1,0.2-0.1c0,0,0.1,0,0.1-0.1c0.1-0.1-0.2,0.1-0.1,0c0.1,0,0.2-0.1,0.3-0.1c0.5-0.1,0.8-0.7,0.7-1.2
		c-0.1-0.5-0.7-0.8-1.2-0.7l0,0c-1,0.3-1.8,0.9-2.4,1.8c-0.6,0.8-1,1.7-1.3,2.7c-0.1,0.5,0.2,1.1,0.7,1.2l0,0
		C92.7,103.8,93.2,103.5,93.3,103L93.3,103z"/>
	<path class="st1" d="M20.5,107.2c-0.2,1.1,0,2.2,0.6,3.1c0.5,0.8,1.2,1.6,1.9,2.2c0.4,0.4,1,0.4,1.4,0s0.4-1,0-1.4
		c-0.3-0.3-0.6-0.6-0.9-0.9c-0.1-0.1-0.3-0.3-0.4-0.5c0.2,0.2,0-0.1-0.1-0.1c-0.1-0.1-0.1-0.2-0.1-0.2c-0.1-0.2-0.2-0.3-0.3-0.5
		c0,0.1,0.1,0.1,0,0c0,0,0-0.1-0.1-0.1c0-0.1-0.1-0.2-0.1-0.3c0-0.1-0.1-0.2-0.1-0.3c0,0.1,0,0.2,0,0c0-0.1,0-0.1,0-0.1
		c0-0.1,0-0.2,0-0.3c0-0.1,0-0.1,0,0c0-0.1,0-0.1,0-0.1c0.1-0.5-0.2-1.1-0.7-1.2C21.2,106.4,20.7,106.7,20.5,107.2L20.5,107.2z"/>
	<path class="st1" d="M23.9,90.1c0.1,0,0.3,0.1,0.4,0.1l-0.2-0.1c0.1,0.1,0.3,0.1,0.4,0.2l-0.2-0.2c0.1,0.1,0.2,0.2,0.3,0.3
		l-0.2-0.2c0.1,0.1,0.2,0.3,0.2,0.4l-0.1-0.2c0.1,0.2,0.1,0.3,0.1,0.5v-0.3c0,0.1,0,0.2,0,0.4c0,0.3,0.1,0.5,0.3,0.7
		c0.4,0.4,1,0.4,1.4,0l0.2-0.2c0.1-0.2,0.1-0.3,0.1-0.5c0-0.3,0-0.6-0.1-0.9c-0.1-0.4-0.3-0.7-0.6-1c-0.2-0.2-0.4-0.4-0.7-0.6
		c-0.3-0.2-0.6-0.3-0.9-0.3c-0.1,0-0.3,0-0.4,0s-0.3,0-0.4,0.1c-0.5,0.3-0.6,0.9-0.4,1.4l0,0C23.4,89.8,23.6,90,23.9,90.1L23.9,90.1
		z"/>
	<path class="st1" d="M62.8,66L62.8,66l-0.2-0.1C62.7,66,62.8,66,62.8,66L62.8,66c0.3,0.3,0.6,0.6,0.9,1l-0.2-0.2
		c0.2,0.2,0.3,0.5,0.5,0.8l-0.1-0.2c0,0.1,0.1,0.2,0.1,0.2v-0.3l0,0c0,0.3,0.1,0.5,0.3,0.7c0.4,0.4,1,0.4,1.4,0
		c0.2-0.2,0.3-0.4,0.3-0.7c-0.1-0.5-0.3-1-0.6-1.4c-0.3-0.5-0.7-0.9-1.1-1.2c-0.3-0.2-0.6-0.4-0.9-0.5c-0.5-0.1-1.1,0.2-1.2,0.7
		C62,65.3,62.3,65.8,62.8,66L62.8,66z"/>
	<path class="st2" d="M13.9,50.7c-0.1,0-0.1,0-0.2,0c-0.5-0.1-0.9-0.6-0.8-1.2c0.2-0.9-0.1-1.9-0.8-2.6c-0.8-0.8-2-1.1-3.2-0.8
		c-0.5,0.1-1.1-0.2-1.2-0.7s0.2-1.1,0.7-1.2l0,0c1.8-0.4,3.7,0.1,5,1.4c1.2,1.1,1.7,2.8,1.3,4.4C14.7,50.4,14.3,50.7,13.9,50.7z"/>
	<rect x="1" y="1" class="st0" width="126" height="126"/>
	<rect class="st0" width="128" height="128"/>
</g>
</svg>
