<?xml version="1.0" encoding="utf-8"?>
<!-- Generator: Adobe Illustrator 24.1.0, SVG Export Plug-In . SVG Version: 6.00 Build 0)  -->
<svg version="1.1" id="Layer_1" xmlns="http://www.w3.org/2000/svg" xmlns:xlink="http://www.w3.org/1999/xlink" x="0px" y="0px"
	 viewBox="0 0 128 128" style="enable-background:new 0 0 128 128;" xml:space="preserve">
<style type="text/css">
	.st0{fill:#4D9987;}
	.st1{fill:#E9EBDF;}
	.st2{fill:#FFFFFF;}
	.st3{fill:#0E352C;}
	.st4{fill:#C4D7D3;}
	.st5{fill:#27ae60;}
	.st6{fill:#185849;}
	.st7{fill:none;}
</style>
<g>
	<g>
		<path class="st0" d="M64,88.2c-0.6,0-1-0.4-1-1v-5.8c0-0.6,0.4-1,1-1s1,0.4,1,1v5.8C65,87.8,64.6,88.2,64,88.2z"/>
		<path class="st0" d="M64,65c-0.6,0-1-0.4-1-1V40.8c0-0.6,0.4-1,1-1s1,0.4,1,1V64C65,64.6,64.6,65,64,65z"/>
		<path class="st0" d="M84.1,36c-0.2,0-0.3,0-0.5-0.1L79,33.2c-0.5-0.3-0.6-0.9-0.4-1.4c0.3-0.5,0.9-0.6,1.4-0.4l4.6,2.7
			c0.5,0.3,0.6,0.9,0.4,1.4C84.8,35.8,84.5,36,84.1,36L84.1,36z"/>
		<path class="st0" d="M79.1,96.9c-0.6,0-1-0.4-1-1c0-0.4,0.2-0.7,0.5-0.9l5-2.9c0.5-0.3,1.1-0.1,1.4,0.4s0.1,1.1-0.4,1.4l0,0
			l-5,2.9C79.4,96.9,79.2,96.9,79.1,96.9z"/>
		<path class="st0" d="M99.2,67.9c-0.6,0-1-0.4-1-1v-5.8c0-0.6,0.4-1,1-1s1,0.4,1,1v5.8C100.2,67.5,99.7,67.9,99.2,67.9z"/>
		<path class="st0" d="M44.1,76.5c-0.6,0-1-0.4-1-1c0-0.4,0.2-0.7,0.5-0.9l40-23.1c0.5-0.3,1.1-0.1,1.4,0.4s0.1,1.1-0.4,1.4l0,0
			l-40,23.1C44.5,76.4,44.3,76.5,44.1,76.5z"/>
		<path class="st0" d="M43.9,36c-0.6,0-1-0.4-1-1c0-0.4,0.2-0.7,0.5-0.9l5-2.9c0.5-0.3,1.1-0.1,1.4,0.4s0.1,1.1-0.4,1.4l0,0l-5,2.9
			C44.2,36,44.1,36,43.9,36z"/>
		<path class="st0" d="M48.9,96.9c-0.2,0-0.3,0-0.5-0.1l-5-2.9c-0.5-0.3-0.6-0.9-0.4-1.4c0.3-0.5,0.9-0.6,1.4-0.4l0,0l5,2.9
			c0.5,0.3,0.6,0.9,0.4,1.4C49.6,96.7,49.3,96.9,48.9,96.9z"/>
		<path class="st0" d="M84.1,76.6c-0.2,0-0.3,0-0.5-0.1L43.4,53.3c-0.5-0.3-0.6-0.9-0.4-1.4c0.3-0.5,0.9-0.6,1.4-0.4l0,0l40.2,23.2
			c0.5,0.3,0.6,0.9,0.4,1.4C84.8,76.4,84.5,76.6,84.1,76.6L84.1,76.6z"/>
		<path class="st0" d="M28.8,67.9c-0.6,0-1-0.4-1-1v-5.8c0-0.6,0.4-1,1-1s1,0.4,1,1v5.8C29.8,67.5,29.4,67.9,28.8,67.9z"/>
		<polygon class="st1" points="114.2,93 99.2,101.7 84.1,93 84.1,75.6 99.2,66.9 114.2,75.6 		"/>
		<path class="st0" d="M99.2,102.7c-0.2,0-0.3,0-0.5-0.1l-15.1-8.7c-0.3-0.2-0.5-0.5-0.5-0.9V75.6c0-0.4,0.2-0.7,0.5-0.9L98.7,66
			c0.3-0.2,0.7-0.2,1,0l15.1,8.7c0.3,0.2,0.5,0.5,0.5,0.9V93c0,0.4-0.2,0.7-0.5,0.9l-15.1,8.7C99.5,102.7,99.3,102.7,99.2,102.7z
			 M85.1,92.4l14.1,8.1l14.1-8.1V76.2l-14.1-8.1l-14.1,8.1V92.4z"/>
		<polygon class="st2" points="114.2,75.6 99.2,84.3 84.1,75.6 84.1,75.6 99.2,66.9 		"/>
		<path class="st0" d="M99.2,85.3c-0.2,0-0.3,0-0.5-0.1l-15.1-8.7c-0.5-0.3-0.6-0.9-0.4-1.4c0.1-0.2,0.2-0.3,0.4-0.4L98.7,66
			c0.3-0.2,0.7-0.2,1,0l15.1,8.7c0.5,0.3,0.6,0.9,0.4,1.4c-0.1,0.2-0.2,0.3-0.4,0.4l-15.1,8.7C99.5,85.3,99.3,85.3,99.2,85.3z
			 M86.1,75.6l13.1,7.5l13.1-7.5l-13.1-7.5L86.1,75.6z"/>
		<polygon class="st1" points="99.2,84.3 99.2,101.7 114.2,93 114.2,75.6 		"/>
		<path class="st0" d="M99.2,102.7c-0.6,0-1-0.4-1-1V84.3c0-0.4,0.2-0.7,0.5-0.9l15.1-8.7c0.5-0.3,1.1-0.1,1.4,0.4
			c0.1,0.2,0.1,0.3,0.1,0.5V93c0,0.4-0.2,0.7-0.5,0.9l-15.1,8.7C99.5,102.7,99.3,102.7,99.2,102.7z M100.2,84.9V100l13.1-7.5V77.3
			L100.2,84.9z"/>
		<path class="st3" d="M99.2,102.7c-0.2,0-0.3,0-0.5-0.1l-15.1-8.7c-0.3-0.2-0.5-0.5-0.5-0.9V75.6c0-0.4,0.2-0.7,0.5-0.9L98.7,66
			c0.3-0.2,0.7-0.2,1,0l15.1,8.7c0.3,0.2,0.5,0.5,0.5,0.9V93c0,0.4-0.2,0.7-0.5,0.9l-15.1,8.7C99.5,102.7,99.3,102.7,99.2,102.7z
			 M85.1,92.4l14.1,8.1l14.1-8.1V76.2l-14.1-8.1l-14.1,8.1V92.4z"/>
		<polygon class="st1" points="114.2,52.4 99.2,61.1 84.1,52.4 84.1,35 99.2,26.3 114.2,35 		"/>
		<path class="st0" d="M99.2,62.1c-0.2,0-0.3,0-0.5-0.1l-15.1-8.7c-0.3-0.2-0.5-0.5-0.5-0.9V35c0-0.4,0.2-0.7,0.5-0.9l15.1-8.7
			c0.3-0.2,0.7-0.2,1,0l15.1,8.7c0.3,0.2,0.5,0.5,0.5,0.9v17.4c0,0.4-0.2,0.7-0.5,0.9L99.7,62C99.5,62,99.3,62.1,99.2,62.1z
			 M85.1,51.8l14.1,8.1l14.1-8.1V35.6l-14.1-8.1l-14.1,8.1V51.8z"/>
		<polygon class="st2" points="114.2,35 99.2,43.7 84.1,35 84.1,35 99.2,26.3 		"/>
		<path class="st0" d="M99.2,44.7c-0.2,0-0.3,0-0.5-0.1l-15.1-8.7c-0.5-0.3-0.6-0.9-0.4-1.4c0.1-0.2,0.2-0.3,0.4-0.4l15.1-8.7
			c0.3-0.2,0.7-0.2,1,0l15.1,8.7c0.5,0.3,0.6,0.9,0.4,1.4c-0.1,0.2-0.2,0.3-0.4,0.4l-15.1,8.7C99.5,44.7,99.3,44.7,99.2,44.7z
			 M86.1,35l13.1,7.5l13.1-7.5l-13.1-7.5L86.1,35z"/>
		<polygon class="st1" points="99.2,43.7 99.2,61.1 114.2,52.4 114.2,35 		"/>
		<path class="st0" d="M99.2,62.1c-0.6,0-1-0.4-1-1V43.7c0-0.4,0.2-0.7,0.5-0.9l15.1-8.7c0.5-0.3,1.1-0.1,1.4,0.4
			c0.1,0.2,0.1,0.3,0.1,0.5v17.4c0,0.4-0.2,0.7-0.5,0.9L99.7,62C99.5,62,99.3,62.1,99.2,62.1z M100.2,44.3v15.1l13.1-7.5V36.7
			L100.2,44.3z"/>
		<path class="st3" d="M99.2,62.1c-0.2,0-0.3,0-0.5-0.1l-15.1-8.7c-0.3-0.2-0.5-0.5-0.5-0.9V35c0-0.4,0.2-0.7,0.5-0.9l15.1-8.7
			c0.3-0.2,0.7-0.2,1,0l15.1,8.7c0.3,0.2,0.5,0.5,0.5,0.9v17.4c0,0.4-0.2,0.7-0.5,0.9L99.7,62C99.5,62,99.3,62.1,99.2,62.1z
			 M85.1,51.8l14.1,8.1l14.1-8.1V35.6l-14.1-8.1l-14.1,8.1V51.8z"/>
		<polygon class="st1" points="79.1,32.1 64,40.8 48.9,32.1 48.9,14.7 64,6 79.1,14.7 		"/>
		<path class="st0" d="M64,41.8c-0.2,0-0.3,0-0.5-0.1L48.4,33c-0.3-0.2-0.5-0.5-0.5-0.9V14.7c0-0.4,0.2-0.7,0.5-0.9l15.1-8.7
			c0.3-0.2,0.7-0.2,1,0l15.1,8.7c0.3,0.2,0.5,0.5,0.5,0.9v17.4c0,0.4-0.2,0.7-0.5,0.9l-15.1,8.7C64.3,41.7,64.2,41.8,64,41.8z
			 M49.9,31.5L64,39.6l14.1-8.1V15.3L64,7.2l-14.1,8.1V31.5z"/>
		<polygon class="st2" points="79.1,14.7 64,23.4 48.9,14.7 48.9,14.7 64,6 		"/>
		<path class="st0" d="M64,24.4c-0.2,0-0.3,0-0.5-0.1l-15.1-8.7c-0.5-0.3-0.6-0.9-0.4-1.4c0.1-0.2,0.2-0.3,0.4-0.4l15.1-8.7
			c0.3-0.2,0.7-0.2,1,0l15.1,8.7c0.5,0.3,0.6,0.9,0.4,1.4c-0.1,0.2-0.2,0.3-0.4,0.4l-15.1,8.7C64.3,24.3,64.2,24.4,64,24.4z
			 M50.9,14.7L64,22.2l13.1-7.5L64,7.2L50.9,14.7z"/>
		<polygon class="st1" points="64,23.4 64,40.8 79.1,32.1 79.1,14.7 		"/>
		<path class="st0" d="M64,41.8c-0.6,0-1-0.4-1-1V23.4c0-0.4,0.2-0.7,0.5-0.9l15.1-8.7c0.5-0.3,1.1-0.1,1.4,0.4
			c0.1,0.2,0.1,0.3,0.1,0.5v17.4c0,0.4-0.2,0.7-0.5,0.9l-15.1,8.7C64.3,41.7,64.2,41.8,64,41.8z M65,24v15l13.1-7.5V16.4L65,24z"/>
		<path class="st3" d="M64,41.8c-0.2,0-0.3,0-0.5-0.1L48.4,33c-0.3-0.2-0.5-0.5-0.5-0.9V14.7c0-0.4,0.2-0.7,0.5-0.9l15.1-8.7
			c0.3-0.2,0.7-0.2,1,0l15.1,8.7c0.3,0.2,0.5,0.5,0.5,0.9v17.4c0,0.4-0.2,0.7-0.5,0.9l-15.1,8.7C64.3,41.7,64.2,41.8,64,41.8z
			 M49.9,31.5L64,39.6l14.1-8.1V15.3L64,7.2l-14.1,8.1V31.5z"/>
		<polygon class="st1" points="43.9,52.4 28.8,61.1 13.8,52.4 13.8,35 28.8,26.3 43.9,35 		"/>
		<path class="st0" d="M28.8,62.1c-0.2,0-0.3,0-0.5-0.1l-15.1-8.7c-0.3-0.2-0.5-0.5-0.5-0.9V35c0-0.4,0.2-0.7,0.5-0.9l15.1-8.7
			c0.3-0.2,0.7-0.2,1,0l15.1,8.7c0.3,0.2,0.5,0.5,0.5,0.9v17.4c0,0.4-0.2,0.7-0.5,0.9L29.3,62C29.2,62,29,62.1,28.8,62.1z
			 M14.8,51.8l14.1,8.1L43,51.8V35.6l-14.1-8.1l-14.1,8.1C14.8,35.6,14.8,51.8,14.8,51.8z"/>
		<polygon class="st2" points="43.9,35 28.8,43.7 13.8,35 13.8,35 28.8,26.3 		"/>
		<path class="st0" d="M28.8,44.7c-0.2,0-0.3,0-0.5-0.1l-15.1-8.7c-0.5-0.3-0.6-0.9-0.4-1.4c0.1-0.2,0.2-0.3,0.4-0.4l15.1-8.7
			c0.3-0.2,0.7-0.2,1,0l15.1,8.7c0.5,0.3,0.6,0.9,0.4,1.4c-0.1,0.2-0.2,0.3-0.4,0.4l-15.1,8.7C29.2,44.7,29,44.7,28.8,44.7z
			 M15.8,35l13.1,7.5l13-7.5l-13.1-7.5L15.8,35z"/>
		<polygon class="st1" points="28.8,43.7 28.8,61.1 43.9,52.4 43.9,35 		"/>
		<path class="st0" d="M28.8,62.1c-0.6,0-1-0.4-1-1V43.7c0-0.4,0.2-0.7,0.5-0.9l15.1-8.7c0.5-0.3,1.1-0.1,1.4,0.4
			c0.1,0.2,0.1,0.3,0.1,0.5v17.4c0,0.4-0.2,0.7-0.5,0.9L29.3,62C29.2,62,29,62.1,28.8,62.1z M29.8,44.3v15.1l13.1-7.5V36.7
			L29.8,44.3z"/>
		<path class="st3" d="M28.8,62.1c-0.2,0-0.3,0-0.5-0.1l-15.1-8.7c-0.3-0.2-0.5-0.5-0.5-0.9V35c0-0.4,0.2-0.7,0.5-0.9l15.1-8.7
			c0.3-0.2,0.7-0.2,1,0l15.1,8.7c0.3,0.2,0.5,0.5,0.5,0.9v17.4c0,0.4-0.2,0.7-0.5,0.9L29.3,62C29.2,62,29,62.1,28.8,62.1z
			 M14.8,51.8l14.1,8.1L43,51.8V35.6l-14.1-8.1l-14.1,8.1C14.8,35.6,14.8,51.8,14.8,51.8z"/>
		<polygon class="st1" points="43.9,93 28.8,101.7 13.8,93 13.8,75.6 28.8,66.9 43.9,75.6 		"/>
		<path class="st0" d="M28.8,102.7c-0.2,0-0.3,0-0.5-0.1l-15.1-8.7c-0.3-0.2-0.5-0.5-0.5-0.9V75.6c0-0.4,0.2-0.7,0.5-0.9L28.3,66
			c0.3-0.2,0.7-0.2,1,0l15.1,8.7c0.3,0.2,0.5,0.5,0.5,0.9V93c0,0.4-0.2,0.7-0.5,0.9l-15.1,8.7C29.2,102.7,29,102.7,28.8,102.7z
			 M14.8,92.4l14.1,8.1L43,92.4V76.2l-14.1-8.1l-14.1,8.1C14.8,76.2,14.8,92.4,14.8,92.4z"/>
		<polygon class="st2" points="43.9,75.6 28.8,84.3 13.8,75.6 13.8,75.6 28.8,66.9 		"/>
		<path class="st0" d="M28.8,85.3c-0.2,0-0.3,0-0.5-0.1l-15.1-8.7c-0.5-0.3-0.6-0.9-0.4-1.4c0.1-0.2,0.2-0.3,0.4-0.4L28.3,66
			c0.3-0.2,0.7-0.2,1,0l15.1,8.7c0.5,0.3,0.6,0.9,0.4,1.4c-0.1,0.2-0.2,0.3-0.4,0.4l-15.1,8.7C29.2,85.3,29,85.3,28.8,85.3z
			 M15.8,75.6l13.1,7.5L42,75.6l-13.1-7.5L15.8,75.6z"/>
		<polygon class="st1" points="28.8,84.3 28.8,101.7 43.9,93 43.9,75.6 		"/>
		<path class="st0" d="M28.8,102.7c-0.6,0-1-0.4-1-1V84.3c0-0.4,0.2-0.7,0.5-0.9l15.1-8.7c0.5-0.3,1.1-0.1,1.4,0.4
			c0.1,0.2,0.1,0.3,0.1,0.5V93c0,0.4-0.2,0.7-0.5,0.9l-15.1,8.7C29.2,102.7,29,102.7,28.8,102.7z M29.8,84.9V100l13.1-7.5V77.3
			L29.8,84.9z"/>
		<path class="st3" d="M28.8,102.7c-0.2,0-0.3,0-0.5-0.1l-15.1-8.7c-0.3-0.2-0.5-0.5-0.5-0.9V75.6c0-0.4,0.2-0.7,0.5-0.9L28.3,66
			c0.3-0.2,0.7-0.2,1,0l15.1,8.7c0.3,0.2,0.5,0.5,0.5,0.9V93c0,0.4-0.2,0.7-0.5,0.9l-15.1,8.7C29.2,102.7,29,102.7,28.8,102.7z
			 M14.8,92.4l14.1,8.1L43,92.4V76.2l-14.1-8.1l-14.1,8.1C14.8,76.2,14.8,92.4,14.8,92.4z"/>
		<polygon class="st1" points="79.1,113.3 64,122 48.9,113.3 48.9,95.9 64,87.2 79.1,95.9 		"/>
		<path class="st0" d="M64,123c-0.2,0-0.3,0-0.5-0.1l-15.1-8.7c-0.3-0.2-0.5-0.5-0.5-0.9V95.9c0-0.4,0.2-0.7,0.5-0.9l15.1-8.7
			c0.3-0.2,0.7-0.2,1,0L79.6,95c0.3,0.2,0.5,0.5,0.5,0.9v17.4c0,0.4-0.2,0.7-0.5,0.9l-15.1,8.7C64.3,123,64.2,123,64,123z
			 M49.9,112.7l14.1,8.1l14.1-8.1V96.5L64,88.4l-14.1,8.1V112.7z"/>
		<polygon class="st2" points="79.1,95.9 64,104.6 48.9,95.9 48.9,95.9 64,87.2 		"/>
		<path class="st0" d="M64,105.6c-0.2,0-0.3,0-0.5-0.1l-15.1-8.7c-0.5-0.3-0.6-0.9-0.4-1.4c0.1-0.2,0.2-0.3,0.4-0.4l15.1-8.7
			c0.3-0.2,0.7-0.2,1,0L79.6,95c0.5,0.3,0.6,0.9,0.4,1.4c-0.1,0.2-0.2,0.3-0.4,0.4l-15.1,8.7C64.3,105.6,64.2,105.6,64,105.6z
			 M50.9,95.9l13.1,7.5l13.1-7.5L64,88.4L50.9,95.9z"/>
		<polygon class="st1" points="64,104.6 64,122 79.1,113.3 79.1,95.9 		"/>
		<path class="st0" d="M64,123c-0.6,0-1-0.4-1-1v-17.4c0-0.4,0.2-0.7,0.5-0.9L78.6,95c0.5-0.3,1.1-0.1,1.4,0.4
			c0.1,0.2,0.1,0.3,0.1,0.5v17.4c0,0.4-0.2,0.7-0.5,0.9l-15.1,8.7C64.3,123,64.2,123,64,123z M65,105.2v15.1l13.1-7.5V97.6L65,105.2
			z"/>
		<path class="st3" d="M64,123c-0.2,0-0.3,0-0.5-0.1l-15.1-8.7c-0.3-0.2-0.5-0.5-0.5-0.9V95.9c0-0.4,0.2-0.7,0.5-0.9l15.1-8.7
			c0.3-0.2,0.7-0.2,1,0L79.6,95c0.3,0.2,0.5,0.5,0.5,0.9v17.4c0,0.4-0.2,0.7-0.5,0.9l-15.1,8.7C64.3,123,64.2,123,64,123z
			 M49.9,112.7l14.1,8.1l14.1-8.1V96.5L64,88.4l-14.1,8.1V112.7z"/>
		<g>
			<path class="st0" d="M64,105.6c-0.6,0-1-0.4-1-1c0-0.3,0.1-0.5,0.3-0.7c0.1-0.1,0.2-0.2,0.3-0.2c0.4-0.2,0.8-0.1,1.1,0.2
				c0.4,0.4,0.4,1,0,1.4C64.5,105.5,64.3,105.6,64,105.6z"/>
			<path class="st0" d="M63,98.8c0-0.6,0.4-1,1-1l0,0c0.6,0,1,0.4,1,1l0,0c0,0.6-0.4,1-1,1l0,0C63.4,99.8,63,99.4,63,98.8z M63,93
				c0-0.5,0.4-1,1-1l0,0l0,0c0.5,0,1,0.4,1,1l0,0l0,0c0,0.6-0.4,1-1,1l0,0l0,0C63.4,94,63,93.6,63,93L63,93z"/>
			<path class="st0" d="M64,88.2c-0.3,0-0.5-0.1-0.7-0.3c-0.2-0.2-0.3-0.4-0.3-0.7c0-0.3,0.1-0.5,0.3-0.7c0.1-0.1,0.2-0.2,0.3-0.2
				c0.4-0.1,0.8-0.1,1.1,0.2c0.2,0.2,0.3,0.4,0.3,0.7C65,87.8,64.6,88.2,64,88.2z"/>
		</g>
		<g>
			<path class="st0" d="M99.2,85.3c-0.1,0-0.1,0-0.2,0s-0.1,0-0.2-0.1c-0.1,0-0.1-0.1-0.2-0.1S98.5,85,98.5,85
				c-0.2-0.2-0.3-0.4-0.3-0.7c0-0.3,0.1-0.5,0.3-0.7l0.1-0.1c0.1,0,0.1-0.1,0.2-0.1s0.1,0,0.2-0.1c0.1,0,0.3,0,0.4,0s0.1,0,0.2,0.1
				s0.1,0.1,0.2,0.1s0.1,0.1,0.2,0.1c0.2,0.2,0.3,0.4,0.3,0.7c0,0.1,0,0.3-0.1,0.4c0,0.1-0.1,0.2-0.2,0.3c0,0.1-0.1,0.1-0.2,0.1
				s-0.1,0.1-0.2,0.1s-0.1,0-0.2,0.1C99.3,85.3,99.2,85.3,99.2,85.3z"/>
			<path class="st0" d="M98.2,78.5c0-0.6,0.4-1,1-1l0,0c0.6,0,1,0.4,1,1l0,0c0,0.6-0.4,1-1,1l0,0C98.6,79.5,98.2,79.1,98.2,78.5z
				 M98.2,72.7c0-0.6,0.4-1,1-1l0,0c0.6,0,1,0.4,1,1l0,0c0,0.6-0.4,1-1,1l0,0C98.6,73.7,98.2,73.3,98.2,72.7z"/>
			<path class="st0" d="M99.2,67.9c-0.3,0-0.5-0.1-0.7-0.3c-0.1-0.1-0.2-0.2-0.2-0.3c0-0.1-0.1-0.3-0.1-0.4c0-0.3,0.1-0.5,0.3-0.7
				l0.1-0.1c0.1,0,0.1-0.1,0.2-0.1s0.1,0,0.2-0.1c0.1,0,0.3,0,0.4,0s0.1,0,0.2,0.1c0.1,0,0.1,0.1,0.2,0.1s0.1,0.1,0.2,0.1
				c0.2,0.2,0.3,0.4,0.3,0.7c0,0.3-0.1,0.5-0.3,0.7c0,0.1-0.1,0.1-0.2,0.1s-0.1,0.1-0.2,0.1s-0.1,0-0.2,0.1
				C99.3,67.9,99.2,67.9,99.2,67.9z"/>
		</g>
		<g>
			<path class="st0" d="M43.6,93.9c-0.3,0-0.5-0.1-0.7-0.3c-0.1,0-0.1-0.1-0.1-0.2s-0.1-0.1-0.1-0.2s0-0.1-0.1-0.2
				c0-0.1,0-0.1,0-0.2s0-0.3,0.1-0.4c0.2-0.5,0.8-0.7,1.3-0.5c0.1,0,0.2,0.1,0.3,0.2s0.2,0.2,0.2,0.3c0,0.1,0.1,0.3,0.1,0.4
				s0,0.1,0,0.2s0,0.1-0.1,0.2c0,0.1-0.1,0.1-0.1,0.2s-0.1,0.1-0.1,0.2C44.2,93.8,43.9,93.9,43.6,93.9z"/>
			<path class="st0" d="M38.2,90.9c-0.5-0.3-0.6-0.9-0.4-1.3l0,0l0,0c0.3-0.5,0.9-0.6,1.4-0.4l0,0l0,0c0.5,0.3,0.6,0.9,0.4,1.4l0,0
				l0,0c-0.2,0.3-0.5,0.5-0.9,0.5l0,0C38.5,91,38.4,91,38.2,90.9z M33.3,88c-0.5-0.3-0.6-0.9-0.4-1.4l0,0c0.3-0.5,0.9-0.6,1.4-0.4
				l0,0l0,0c0.5,0.3,0.6,0.9,0.4,1.4l0,0l0,0c-0.2,0.3-0.5,0.5-0.9,0.5l0,0C33.6,88.2,33.4,88.1,33.3,88z"/>
			<path class="st0" d="M28.8,85.3c-0.1,0-0.1,0-0.2,0s-0.1,0-0.2-0.1c-0.1,0-0.1-0.1-0.2-0.1S28.1,85,28.1,85S28,84.9,28,84.8
				s-0.1-0.1-0.1-0.2s0-0.1-0.1-0.2c0-0.1,0-0.1,0-0.2s0-0.3,0.1-0.4c0-0.1,0.1-0.2,0.2-0.3c0-0.1,0.1-0.1,0.1-0.1s0.1-0.1,0.2-0.1
				s0.1,0,0.2-0.1c0.1,0,0.3,0,0.4,0l0.2,0.1l0.2,0.1c0.1,0,0.1,0.1,0.1,0.1c0.1,0.1,0.2,0.2,0.2,0.3c0.1,0.1,0.1,0.2,0.1,0.4
				c0,0.1,0,0.1,0,0.2s0,0.1-0.1,0.2c0,0.1-0.1,0.1-0.1,0.2s-0.1,0.1-0.1,0.2l-0.1,0.1l-0.2,0.1c-0.1,0-0.1,0-0.2,0.1
				C29,85.3,28.9,85.3,28.8,85.3z"/>
		</g>
		<polygon class="st4" points="79.1,72.7 64,81.4 48.9,72.7 48.9,55.3 64,46.6 79.1,55.3 		"/>
		<path class="st4" d="M64,82.4c-0.2,0-0.3,0-0.5-0.1l-15.1-8.7c-0.3-0.2-0.5-0.5-0.5-0.9V55.3c0-0.4,0.2-0.7,0.5-0.9l15.1-8.7
			c0.3-0.2,0.7-0.2,1,0l15.1,8.7c0.3,0.2,0.5,0.5,0.5,0.9v17.4c0,0.4-0.2,0.7-0.5,0.9l-15.1,8.7C64.3,82.3,64.2,82.4,64,82.4z
			 M49.9,72.1L64,80.2l14.1-8.1V55.9L64,47.8l-14.1,8.1V72.1z"/>
		<polygon class="st2" points="79.1,55.3 64,64 48.9,55.3 48.9,55.3 64,46.6 		"/>
		<path class="st5" d="M64,65c-0.2,0-0.3,0-0.5-0.1l-15.1-8.7c-0.5-0.3-0.6-0.9-0.4-1.4c0.1-0.2,0.2-0.3,0.4-0.4l15.1-8.7
			c0.3-0.2,0.7-0.2,1,0l15.1,8.7c0.5,0.3,0.6,0.9,0.4,1.4c-0.1,0.2-0.2,0.3-0.4,0.4l-15.1,8.7C64.3,65,64.2,65,64,65z M50.9,55.3
			L64,62.8l13.1-7.5L64,47.8L50.9,55.3z"/>
		<polygon class="st4" points="64,64 64,81.4 79.1,72.7 79.1,55.3 		"/>
		<path class="st5" d="M64,82.4c-0.6,0-1-0.4-1-1V64c0-0.4,0.2-0.7,0.5-0.9l15.1-8.7c0.5-0.3,1.1-0.1,1.4,0.4
			c0.1,0.2,0.1,0.3,0.1,0.5v17.4c0,0.4-0.2,0.7-0.5,0.9l-15.1,8.7C64.3,82.3,64.2,82.4,64,82.4z M65,64.6v15.1l13.1-7.5V57L65,64.6z
			"/>
		<path class="st6" d="M64,82.4c-0.2,0-0.3,0-0.5-0.1l-15.1-8.7c-0.3-0.2-0.5-0.5-0.5-0.9V55.3c0-0.4,0.2-0.7,0.5-0.9l15.1-8.7
			c0.3-0.2,0.7-0.2,1,0l15.1,8.7c0.3,0.2,0.5,0.5,0.5,0.9v17.4c0,0.4-0.2,0.7-0.5,0.9l-15.1,8.7C64.3,82.3,64.2,82.4,64,82.4z
			 M49.9,72.1L64,80.2l14.1-8.1V55.9L64,47.8l-14.1,8.1V72.1z"/>
		<g>
			<path class="st0" d="M28.8,85.3c-0.1,0-0.1,0-0.2,0s-0.1,0-0.2-0.1c-0.1,0-0.1-0.1-0.2-0.1S28.1,85,28.1,85S28,84.9,28,84.8
				s-0.1-0.1-0.1-0.2s0-0.1-0.1-0.2c0-0.1,0-0.1,0-0.2s0-0.3,0.1-0.4c0-0.1,0.1-0.2,0.2-0.3c0-0.1,0.1-0.1,0.1-0.1s0.1-0.1,0.2-0.1
				s0.1,0,0.2-0.1c0.1,0,0.3,0,0.4,0l0.2,0.1l0.2,0.1c0.1,0,0.1,0.1,0.1,0.1c0.1,0.1,0.2,0.2,0.2,0.3c0.1,0.1,0.1,0.2,0.1,0.4
				c0,0.1,0,0.1,0,0.2s0,0.1-0.1,0.2c0,0.1-0.1,0.1-0.1,0.2s-0.1,0.1-0.1,0.2l-0.1,0.1l-0.2,0.1c-0.1,0-0.1,0-0.2,0.1
				C29,85.3,28.9,85.3,28.8,85.3z"/>
			<path class="st0" d="M27.8,78.5c0-0.6,0.4-1,1-1l0,0c0.6,0,1,0.4,1,1l0,0c0,0.6-0.4,1-1,1l0,0C28.3,79.5,27.8,79.1,27.8,78.5z
				 M27.8,72.7c0-0.6,0.4-1,1-1l0,0c0.6,0,1,0.4,1,1l0,0c0,0.6-0.4,1-1,1l0,0C28.3,73.7,27.8,73.3,27.8,72.7z"/>
			<path class="st0" d="M28.8,67.9c-0.1,0-0.1,0-0.2,0s-0.1,0-0.2-0.1c-0.1,0-0.1-0.1-0.2-0.1s-0.1-0.1-0.1-0.1
				c-0.1-0.1-0.2-0.2-0.2-0.3c-0.1-0.1-0.1-0.3-0.1-0.4s0-0.3,0.1-0.4c0-0.1,0.1-0.2,0.2-0.3c0-0.1,0.1-0.1,0.1-0.1
				c0.1,0,0.1-0.1,0.2-0.1s0.1,0,0.2-0.1c0.1,0,0.3,0,0.4,0s0.1,0,0.2,0.1c0.1,0,0.1,0.1,0.2,0.1s0.1,0.1,0.1,0.1
				c0.1,0.1,0.2,0.2,0.2,0.3c0.1,0.1,0.1,0.2,0.1,0.4c0,0.1,0,0.3-0.1,0.4c0,0.1-0.1,0.2-0.2,0.3l-0.1,0.1c-0.1,0-0.1,0.1-0.2,0.1
				s-0.1,0-0.2,0.1C29,67.9,28.9,67.9,28.8,67.9z"/>
		</g>
		<g>
			<path class="st0" d="M84.1,94c-0.1,0-0.1,0-0.2,0s-0.1,0-0.2-0.1c-0.1,0-0.1-0.1-0.2-0.1l-0.2-0.1c-0.1-0.1-0.2-0.2-0.2-0.3
				c0-0.1-0.1-0.2-0.1-0.4c0-0.3,0.1-0.5,0.3-0.7c0,0,0.1-0.1,0.2-0.1s0.1-0.1,0.2-0.1s0.1,0,0.2-0.1c0.1,0,0.3,0,0.4,0
				s0.1,0,0.2,0.1c0.1,0,0.1,0.1,0.2,0.1s0.1,0.1,0.2,0.1c0.3,0.3,0.4,0.7,0.2,1.1c-0.1,0.1-0.1,0.2-0.2,0.3
				C84.6,93.9,84.4,94,84.1,94z"/>
			<path class="st0" d="M88.2,90.7c-0.3-0.5-0.1-1.1,0.4-1.4l0,0l0,0c0.5-0.3,1.1-0.1,1.4,0.4l0,0c0.3,0.5,0.1,1.1-0.4,1.4l0,0l0,0
				c-0.1,0.1-0.3,0.1-0.5,0.1l0,0C88.7,91.2,88.4,91,88.2,90.7z M93.1,87.8c-0.3-0.5-0.1-1.1,0.4-1.4l0,0l0,0
				c0.5-0.3,1.1-0.1,1.4,0.4l0,0c0.3,0.5,0.1,1.1-0.4,1.4l0,0c-0.1,0.1-0.3,0.1-0.5,0.1l0,0C93.6,88.3,93.3,88.1,93.1,87.8z"/>
			<path class="st0" d="M98.9,85.4c-0.5,0-1-0.4-1-1l0,0c0-0.3,0.1-0.5,0.3-0.7c0.1-0.1,0.2-0.2,0.3-0.2c0.2-0.1,0.5-0.1,0.8,0
				c0.1,0.1,0.2,0.1,0.3,0.2c0.2,0.2,0.3,0.4,0.3,0.7c0,0.1,0,0.1,0,0.2s-0.1,0.3-0.1,0.4s-0.1,0.1-0.1,0.2
				C99.4,85.3,99.2,85.4,98.9,85.4z"/>
		</g>
		<g>
			<path class="st0" d="M43.9,53.4c-0.3,0-0.5-0.1-0.7-0.3c0,0-0.1-0.1-0.1-0.2c0-0.1-0.1-0.1-0.1-0.2c0-0.1,0-0.1-0.1-0.2
				c0-0.1,0-0.1,0-0.2c0-0.1,0-0.3,0.1-0.4c0.1-0.1,0.1-0.2,0.2-0.3c0.2-0.2,0.6-0.3,0.9-0.3c0.1,0,0.1,0,0.2,0.1
				c0.1,0,0.1,0.1,0.2,0.1l0.2,0.1c0.1,0.1,0.2,0.2,0.2,0.3s0.1,0.2,0.1,0.4c0,0.1,0,0.1,0,0.2c0,0.1,0,0.1-0.1,0.2
				c0,0.1-0.1,0.1-0.1,0.2c0,0.1-0.1,0.1-0.1,0.2c0,0-0.1,0.1-0.2,0.1c-0.1,0-0.1,0.1-0.2,0.1c-0.1,0-0.1,0.1-0.2,0.1
				C44,53.4,44,53.4,43.9,53.4z"/>
			<path class="st0" d="M38.5,50.4c-0.5-0.3-0.6-0.9-0.4-1.4l0,0c0.3-0.5,0.9-0.6,1.4-0.4l0,0c0.5,0.3,0.6,0.9,0.4,1.4l0,0l0,0
				c-0.2,0.3-0.5,0.5-0.9,0.5l0,0C38.8,50.5,38.6,50.5,38.5,50.4z M33.5,47.5c-0.5-0.3-0.6-0.9-0.4-1.3l0,0l0,0
				c0.3-0.5,0.9-0.6,1.4-0.4l0,0c0.5,0.3,0.6,0.9,0.4,1.4l0,0l0,0c-0.2,0.3-0.5,0.5-0.9,0.5l0,0C33.8,47.7,33.7,47.6,33.5,47.5z"/>
			<path class="st0" d="M29.1,44.8c-0.1,0-0.1,0-0.2,0s-0.1,0-0.2-0.1c-0.1,0-0.1-0.1-0.2-0.1s-0.1-0.1-0.2-0.1c0,0-0.1-0.1-0.1-0.2
				c0-0.1-0.1-0.1-0.1-0.2c0-0.1-0.1-0.1-0.1-0.2c0-0.1,0-0.1,0-0.2c0-0.1,0-0.3,0.1-0.4c0-0.1,0.1-0.2,0.2-0.3c0,0,0.1-0.1,0.2-0.1
				s0.1-0.1,0.2-0.1s0.1-0.1,0.2-0.1s0.3,0,0.4,0s0.1,0,0.2,0.1c0.1,0,0.1,0.1,0.2,0.1s0.1,0.1,0.2,0.1c0.1,0.1,0.2,0.2,0.2,0.3
				c0.1,0.1,0.1,0.2,0.1,0.4c0,0.1,0,0.1,0,0.2c0,0.1,0,0.1-0.1,0.2c0,0.1-0.1,0.1-0.1,0.2c0,0.1-0.1,0.1-0.1,0.2
				c0,0-0.1,0.1-0.2,0.1s-0.1,0.1-0.2,0.1s-0.1,0.1-0.2,0.1C29.2,44.8,29.1,44.8,29.1,44.8z"/>
		</g>
		<g>
			<path class="st0" d="M84.4,53.5c-0.1,0-0.1,0-0.2,0s-0.1,0-0.2,0s-0.1-0.1-0.2-0.1s-0.1-0.1-0.2-0.1c-0.4-0.4-0.4-1,0-1.4
				c0-0.1,0.1-0.1,0.2-0.1s0.1-0.1,0.2-0.1s0.1,0,0.2,0c0.3-0.1,0.7,0,0.9,0.3c0.4,0.4,0.4,1,0,1.4C84.9,53.4,84.6,53.5,84.4,53.5z"
				/>
			<path class="st0" d="M88.4,50.2c-0.3-0.5-0.1-1.1,0.3-1.3l0,0l0,0c0.5-0.3,1.1-0.1,1.4,0.4l0,0l0,0c0.3,0.5,0.1,1.1-0.4,1.4l0,0
				c-0.2,0.1-0.3,0.1-0.5,0.1l0,0C88.9,50.7,88.6,50.5,88.4,50.2z M93.4,47.3c-0.3-0.5-0.1-1.1,0.4-1.4l0,0c0.5-0.3,1.1-0.1,1.4,0.4
				l0,0c0.3,0.5,0.1,1.1-0.4,1.4l0,0c-0.2,0.1-0.3,0.1-0.5,0.1l0,0C93.9,47.8,93.5,47.6,93.4,47.3z"/>
			<path class="st0" d="M99.2,45c-0.1,0-0.1,0-0.2,0s-0.1,0-0.2,0s-0.1-0.1-0.2-0.1s-0.1-0.1-0.1-0.1c-0.2-0.2-0.3-0.4-0.3-0.7
				c0-0.1,0-0.3,0.1-0.4c0.1-0.1,0.1-0.2,0.2-0.3l0.1-0.1c0.1,0,0.1-0.1,0.2-0.1s0.1,0,0.2-0.1c0.1,0,0.3,0,0.4,0s0.1,0,0.2,0.1
				c0.1,0,0.1,0.1,0.2,0.1s0.1,0.1,0.2,0.1c0.1,0.1,0.2,0.2,0.2,0.3c0.2,0.4,0.1,0.8-0.2,1.1c0,0.1-0.1,0.1-0.2,0.1S99.7,45,99.6,45
				s-0.1,0-0.2,0C99.3,45,99.2,45,99.2,45z"/>
		</g>
		<g>
			<path class="st0" d="M64,24.4c-0.1,0-0.3,0-0.4-0.1c-0.1,0-0.2-0.1-0.3-0.2c-0.4-0.4-0.4-1,0-1.4c0.1-0.1,0.2-0.2,0.3-0.2
				c0.4-0.2,0.8-0.1,1.1,0.2c0,0,0.1,0.1,0.1,0.2c0.1,0.1,0.1,0.2,0.1,0.4c0,0.1,0,0.1,0,0.2C65,23.9,64.6,24.4,64,24.4L64,24.4z"/>
			<path class="st0" d="M73.4,30c-0.5-0.3-0.6-0.9-0.4-1.4l0,0l0,0c0.3-0.5,0.9-0.6,1.4-0.4l0,0l0,0c0.5,0.3,0.6,0.9,0.4,1.4l0,0
				l0,0c-0.2,0.3-0.5,0.5-0.9,0.5l0,0C73.7,30.1,73.5,30,73.4,30z M68.4,27.1c-0.5-0.3-0.6-0.9-0.4-1.4l0,0l0,0
				c0.3-0.5,0.9-0.6,1.4-0.4l0,0c0.5,0.3,0.6,0.9,0.4,1.4l0,0l0,0c-0.2,0.3-0.5,0.5-0.9,0.5l0,0C68.8,27.2,68.6,27.2,68.4,27.1z"/>
			<path class="st0" d="M78.8,32.9c-0.3,0-0.5-0.1-0.7-0.3s-0.3-0.4-0.3-0.7s0.1-0.5,0.3-0.7c0.4-0.4,1-0.4,1.4,0s0.4,1,0,1.4
				C79.3,32.8,79.1,32.9,78.8,32.9z"/>
		</g>
		<g>
			<path class="st0" d="M64,24.4c-0.1,0-0.3,0-0.4-0.1c-0.1,0-0.2-0.1-0.3-0.2c-0.4-0.4-0.4-1,0-1.4c0.1-0.1,0.2-0.2,0.3-0.2
				c0.4-0.2,0.8-0.1,1.1,0.2c0,0,0.1,0.1,0.1,0.2c0.1,0.1,0.1,0.2,0.1,0.4c0,0.1,0,0.1,0,0.2C65,23.9,64.6,24.4,64,24.4L64,24.4z"/>
			<path class="st0" d="M53.3,29.6c-0.3-0.5-0.1-1.1,0.4-1.4l0,0l0,0c0.5-0.3,1.1-0.1,1.4,0.4l0,0l0,0c0.3,0.5,0.1,1.1-0.4,1.4l0,0
				l0,0c-0.2,0.1-0.3,0.1-0.5,0.1l0,0C53.8,30.1,53.4,29.9,53.3,29.6z M58.2,26.7c-0.3-0.5-0.1-1.1,0.3-1.4l0,0l0,0
				c0.5-0.3,1.1-0.1,1.4,0.4l0,0l0,0c0.3,0.5,0.1,1.1-0.4,1.4l0,0c-0.2,0.1-0.3,0.1-0.5,0.1l0,0C58.7,27.2,58.4,27,58.2,26.7z"/>
			<path class="st0" d="M49.2,32.9c-0.1,0-0.1,0-0.2,0c-0.1,0-0.1,0-0.2,0c-0.1,0-0.1-0.1-0.2-0.1c-0.1,0-0.1-0.1-0.2-0.1
				c-0.2-0.2-0.3-0.4-0.3-0.7s0.1-0.5,0.3-0.7c0,0,0.1-0.1,0.2-0.1c0.1,0,0.1-0.1,0.2-0.1c0.1,0,0.1,0,0.2-0.1c0.2,0,0.4,0,0.6,0.1
				c0.1,0.1,0.2,0.1,0.3,0.2c0.2,0.2,0.3,0.4,0.3,0.7c0,0.3-0.1,0.5-0.3,0.7c-0.1,0.1-0.2,0.2-0.3,0.2
				C49.4,32.9,49.3,32.9,49.2,32.9z"/>
		</g>
		<rect x="1" y="1" class="st7" width="126" height="126"/>
	</g>
	<rect class="st7" width="128" height="128"/>
</g>
</svg>
