<?xml version="1.0" encoding="utf-8"?>
<!-- Generator: Adobe Illustrator 24.1.0, SVG Export Plug-In . SVG Version: 6.00 Build 0)  -->
<svg version="1.1" id="Layer_1" xmlns="http://www.w3.org/2000/svg" xmlns:xlink="http://www.w3.org/1999/xlink" x="0px" y="0px"
	 viewBox="0 0 128 128" style="enable-background:new 0 0 128 128;" xml:space="preserve">
<style type="text/css">
	.st0{fill:none;}
	.st1{fill:#FFFFFF;}
	.st2{fill:#0E352C;}
	.st3{fill:#E9EBDF;}
	.st4{fill:#C4D7D3;}
	.st5{fill:#27ae60;}
	.st6{fill:#185849;}
	.st7{fill:#4D9987;}
</style>
<g>
	<rect x="1" y="1" class="st0" width="126" height="126"/>
	<polygon class="st1" points="62,56.5 41.4,68.4 41.4,68.4 62,80.3 82.5,68.4 82.5,68.4 	"/>
	<path class="st2" d="M62,81.3c-0.2,0-0.3,0-0.5-0.1L40.9,69.3c-0.5-0.3-0.6-0.9-0.4-1.4c0.1-0.2,0.2-0.3,0.4-0.4l20.6-11.9
		c0.3-0.2,0.7-0.2,1,0L83,67.5c0.5,0.3,0.6,0.9,0.4,1.4c-0.1,0.2-0.2,0.3-0.4,0.4L62.5,81.2C62.3,81.3,62.1,81.3,62,81.3z
		 M43.4,68.4L62,79.1l18.6-10.7L62,57.7L43.4,68.4z"/>
	<polygon class="st3" points="41.4,95.9 62,107.8 62,80.3 41.4,68.4 	"/>
	<path class="st2" d="M62,108.8c-0.2,0-0.3,0-0.5-0.1l-20.6-12c-0.3-0.2-0.5-0.5-0.5-0.9V68.4c0-0.6,0.4-1,1-1c0.2,0,0.3,0,0.5,0.1
		l20.6,11.9c0.3,0.2,0.5,0.5,0.5,0.9v27.5C63,108.3,62.5,108.8,62,108.8z M42.4,95.3L61,106V80.9L42.4,70.1V95.3z"/>
	<polygon class="st3" points="82.5,95.9 62,107.8 62,80.3 82.5,68.4 	"/>
	<path class="st2" d="M62,108.8c-0.6,0-1-0.4-1-1V80.3c0-0.4,0.2-0.7,0.5-0.9L82,67.5c0.5-0.3,1.1-0.1,1.4,0.4
		c0.1,0.2,0.1,0.3,0.1,0.5v27.5c0,0.4-0.2,0.7-0.5,0.9l-20.6,11.9C62.3,108.7,62.1,108.8,62,108.8z M63,80.9V106l18.6-10.7V70.1
		L63,80.9z"/>
	<polygon class="st3" points="62,80.3 62,84 82.5,95.9 82.5,68.4 	"/>
	<path class="st2" d="M82.5,96.9c-0.2,0-0.3,0-0.5-0.1l-20.5-12C61.1,84.7,61,84.3,61,84v-3.7c0-0.4,0.2-0.7,0.5-0.9L82,67.5
		c0.5-0.3,1.1-0.1,1.4,0.4c0.1,0.2,0.1,0.3,0.1,0.5v27.5C83.5,96.4,83.1,96.9,82.5,96.9z M63,83.4l18.6,10.7v-24L63,80.9V83.4z"/>
	<polygon class="st3" points="82.5,68.4 77.4,81.1 68.9,76.3 	"/>
	<path class="st2" d="M82.5,96.9c-0.2,0-0.3,0-0.5-0.1l-20.5-12C61.1,84.7,61,84.3,61,84v-3.7c0-0.4,0.2-0.7,0.5-0.9L82,67.5
		c0.5-0.3,1.1-0.1,1.4,0.4c0.1,0.2,0.1,0.3,0.1,0.5v27.5C83.5,96.4,83.1,96.9,82.5,96.9z M63,83.4l18.6,10.7v-24L63,80.9V83.4z"/>
	<path class="st2" d="M85.8,100.1c-0.6,0-1-0.4-1-1c0-0.4,0.2-0.7,0.5-0.9l5.4-3.1c0.5-0.3,1.1-0.1,1.4,0.4s0.1,1.1-0.4,1.4l0,0
		l-5.5,3.1C86.1,100,85.9,100.1,85.8,100.1z"/>
	<polygon class="st4" points="62,95.9 82.3,107.6 82.3,119.5 62,107.8 	"/>
	<path class="st5" d="M82.3,120.5c-0.2,0-0.3,0-0.5-0.1l-20.3-11.7c-0.3-0.2-0.5-0.5-0.5-0.9V95.9c0-0.6,0.4-1,1-1
		c0.2,0,0.3,0,0.5,0.1l20.3,11.7c0.3,0.2,0.5,0.5,0.5,0.9v11.8C83.3,120,82.8,120.5,82.3,120.5z M63,107.2l18.3,10.6v-9.5L63,97.6
		V107.2z"/>
	<polygon class="st4" points="68.9,76.3 102.9,95.8 102.9,107.6 62,84 62,80.3 	"/>
	<path class="st5" d="M102.9,108.6c-0.2,0-0.3,0-0.5-0.1L61.5,84.8C61.1,84.7,61,84.3,61,84v-3.7c0-0.4,0.2-0.7,0.5-0.9l7-4
		c0.3-0.2,0.7-0.2,1,0l33.9,19.5c0.3,0.2,0.5,0.5,0.5,0.9v11.8C103.8,108.1,103.4,108.6,102.9,108.6L102.9,108.6z M63,83.4
		l38.9,22.5v-9.5l-33-19l-6,3.5L63,83.4L63,83.4z"/>
	<polygon class="st4" points="62,84 72.3,89.9 68.9,76.3 62,80.3 	"/>
	<polygon class="st4" points="72.3,89.9 76,80.3 68.9,76.3 67.1,81.4 	"/>
	<path class="st5" d="M82.3,120.5c-0.2,0-0.3,0-0.5-0.1l-20.3-11.7c-0.3-0.2-0.5-0.5-0.5-0.9V95.9c0-0.6,0.4-1,1-1
		c0.2,0,0.3,0,0.5,0.1l20.3,11.7c0.3,0.2,0.5,0.5,0.5,0.9v11.8C83.3,120,82.8,120.5,82.3,120.5z M63,107.2l18.3,10.6v-9.5L63,97.6
		V107.2z"/>
	<path class="st5" d="M102.9,108.6c-0.2,0-0.3,0-0.5-0.1L61.5,84.8C61.1,84.7,61,84.3,61,84v-3.7c0-0.4,0.2-0.7,0.5-0.9l7-4
		c0.3-0.2,0.7-0.2,1,0l33.9,19.5c0.3,0.2,0.5,0.5,0.5,0.9v11.8C103.8,108.1,103.4,108.6,102.9,108.6L102.9,108.6z M63,83.4
		l38.9,22.5v-9.5l-33-19l-6,3.5L63,83.4L63,83.4z"/>
	<path class="st5" d="M82.3,108.6c-0.2,0-0.3,0-0.5-0.1L61.5,96.8c-0.3-0.2-0.5-0.5-0.5-0.9V84c0-0.6,0.4-1,1-1c0.2,0,0.3,0,0.5,0.1
		l20.3,11.7c0.3,0.2,0.5,0.5,0.5,0.9v11.9C83.3,108.2,82.8,108.6,82.3,108.6z M63,95.3l18.3,10.6v-9.6L63,85.7V95.3z"/>
	<polygon class="st1" points="82.3,107.6 82.3,95.7 62,84 62,95.9 	"/>
	<path class="st5" d="M82.3,108.6c-0.2,0-0.3,0-0.5-0.1L61.5,96.8c-0.3-0.2-0.5-0.5-0.5-0.9V84c0-0.6,0.4-1,1-1c0.2,0,0.3,0,0.5,0.1
		l20.3,11.7c0.3,0.2,0.5,0.5,0.5,0.9v11.9C83.3,108.2,82.8,108.6,82.3,108.6z M63,95.3l18.3,10.6v-9.6L63,85.7V95.3z"/>
	<polygon class="st4" points="72.3,89.9 62,84 62,95.9 	"/>
	<path class="st6" d="M82.3,108.6c-0.2,0-0.3,0-0.5-0.1L61.5,96.8c-0.3-0.2-0.5-0.5-0.5-0.9V84c0-0.6,0.4-1,1-1c0.2,0,0.3,0,0.5,0.1
		l20.3,11.7c0.3,0.2,0.5,0.5,0.5,0.9v11.9C83.3,108.2,82.8,108.6,82.3,108.6z M63,95.3l18.3,10.6v-9.6L63,85.7V95.3z"/>
	<polygon class="st4" points="107.2,110.1 86.6,122 86.6,94.5 107.2,82.7 	"/>
	<path class="st5" d="M86.6,123c-0.6,0-1-0.4-1-1V94.5c0-0.4,0.2-0.7,0.5-0.9l20.6-11.9c0.5-0.3,1.1-0.1,1.4,0.4
		c0.1,0.2,0.1,0.3,0.1,0.5v27.5c0,0.4-0.2,0.7-0.5,0.9l-20.6,11.9C87,123,86.8,123,86.6,123z M87.6,95.1v25.1l18.6-10.7V84.4
		L87.6,95.1z"/>
	<path class="st5" d="M94.2,104.9c-0.6,0-1-0.4-1-1c0-0.4,0.2-0.7,0.5-0.9l5.5-3.1c0.5-0.3,1.1-0.1,1.4,0.4s0.1,1.1-0.4,1.4l0,0
		l-5.5,3.1C94.5,104.9,94.4,104.9,94.2,104.9z"/>
	<polygon class="st1" points="107.2,82.7 102.9,80.1 82.3,92 86.6,94.5 	"/>
	<path class="st5" d="M86.6,95.5c-0.2,0-0.3,0-0.5-0.1l-4.4-2.5c-0.5-0.3-0.6-0.9-0.4-1.4c0.1-0.2,0.2-0.3,0.4-0.4l20.6-11.9
		c0.3-0.2,0.7-0.2,1,0l4.4,2.5c0.5,0.3,0.6,0.9,0.4,1.4c-0.1,0.2-0.2,0.3-0.4,0.4L87.1,95.4C87,95.5,86.8,95.5,86.6,95.5z M84.3,92
		l2.4,1.4l18.6-10.7l-2.4-1.4L84.3,92z"/>
	<polygon class="st1" points="86.6,122 82.3,119.5 82.3,92 86.6,94.5 	"/>
	<path class="st5" d="M86.6,123c-0.2,0-0.3,0-0.5-0.1l-4.4-2.5c-0.3-0.2-0.5-0.5-0.5-0.9V92c0-0.6,0.4-1,1-1c0.2,0,0.3,0,0.5,0.1
		l4.4,2.5c0.3,0.2,0.5,0.5,0.5,0.9V122C87.6,122.6,87.2,123,86.6,123z M83.3,118.9l2.4,1.4V95.1l-2.4-1.4V118.9z"/>
	<path class="st6" d="M86.6,123c-0.2,0-0.3,0-0.5-0.1l-24.7-14.2c-0.3-0.2-0.5-0.5-0.5-0.9V80.3c0-0.4,0.2-0.7,0.5-0.9l7-4
		c0.3-0.2,0.7-0.2,1,0l19.9,11.4l13.1-7.5c0.3-0.2,0.7-0.2,1,0l4.4,2.5c0.3,0.2,0.5,0.5,0.5,0.9v27.5c0,0.4-0.2,0.7-0.5,0.9
		L87.2,123C87,123,86.8,123,86.6,123z M63,107.2l23.7,13.7l19.6-11.3V83.2l-3.4-1.9l-13.1,7.5c-0.3,0.2-0.7,0.2-1,0L68.9,77.4
		l-6,3.5L63,107.2L63,107.2z"/>
	<path class="st2" d="M62,81.3c-0.6,0-1-0.4-1-1c0-0.4,0.2-0.7,0.5-0.9l20.6-11.9c0.5-0.3,1.1-0.1,1.4,0.4s0.1,1.1-0.4,1.4l0,0
		L62.5,81.2C62.3,81.3,62.1,81.3,62,81.3z"/>
	<path class="st2" d="M62,108.8c-0.6,0-1-0.4-1-1V80.3c0-0.6,0.4-1,1-1s1,0.4,1,1v27.5C63,108.3,62.5,108.8,62,108.8L62,108.8z"/>
	<path class="st6" d="M82.3,108.6c-0.2,0-0.3,0-0.5-0.1L61.5,96.8c-0.5-0.3-0.6-0.9-0.4-1.4c0.3-0.5,0.9-0.6,1.4-0.4l0,0l20.3,11.7
		c0.5,0.3,0.6,0.9,0.4,1.4C82.9,108.4,82.6,108.6,82.3,108.6z"/>
	<polygon class="st1" points="41.4,68.4 20.8,80.3 20.8,80.3 41.4,92.2 62,80.3 62,80.3 	"/>
	<path class="st7" d="M41.4,93.2c-0.2,0-0.3,0-0.5-0.1L20.3,81.2c-0.5-0.3-0.6-0.9-0.4-1.4c0.1-0.2,0.2-0.3,0.4-0.4l20.6-11.9
		c0.3-0.2,0.7-0.2,1,0l20.6,11.9c0.5,0.3,0.6,0.9,0.4,1.4c-0.1,0.2-0.2,0.3-0.4,0.4L41.9,93.1C41.7,93.1,41.5,93.2,41.4,93.2z
		 M22.8,80.3L41.4,91L60,80.3L41.4,69.6L22.8,80.3z"/>
	<polygon class="st3" points="20.8,107.8 41.4,119.6 41.4,92.2 20.8,80.3 	"/>
	<path class="st7" d="M41.4,120.6c-0.2,0-0.3,0-0.5-0.1l-20.6-11.9c-0.3-0.2-0.5-0.5-0.5-0.9V80.3c0-0.6,0.4-1,1-1
		c0.2,0,0.3,0,0.5,0.1l20.6,11.9c0.3,0.2,0.5,0.5,0.5,0.9v27.5C42.4,120.2,41.9,120.6,41.4,120.6L41.4,120.6z M21.8,107.2l18.6,10.7
		V92.8L21.8,82V107.2z"/>
	<polygon class="st3" points="62,107.8 41.4,119.6 41.4,92.2 62,80.3 	"/>
	<path class="st7" d="M41.4,120.6c-0.6,0-1-0.4-1-1V92.2c0-0.4,0.2-0.7,0.5-0.9l20.6-11.9c0.5-0.3,1.1-0.1,1.4,0.4
		C63,80,63,80.1,63,80.3v27.5c0,0.4-0.2,0.7-0.5,0.9l-20.6,11.9C41.7,120.6,41.5,120.6,41.4,120.6z M42.4,92.8v25.1L61,107.2V82
		L42.4,92.8z"/>
	<path class="st7" d="M48.9,102.6c-0.6,0-1-0.4-1-1c0-0.4,0.2-0.7,0.5-0.9l5.5-3.1c0.5-0.3,1.1-0.1,1.4,0.4c0.3,0.5,0.1,1.1-0.4,1.4
		l0,0l-5.5,3.1C49.3,102.5,49.1,102.6,48.9,102.6z"/>
	<path class="st2" d="M41.4,120.6c-0.2,0-0.3,0-0.5-0.1l-20.6-11.9c-0.3-0.2-0.5-0.5-0.5-0.9V80.3c0-0.4,0.2-0.7,0.5-0.9l20.6-11.9
		c0.3-0.2,0.7-0.2,1,0l20.6,11.9c0.3,0.2,0.5,0.5,0.5,0.9v27.5c0,0.4-0.2,0.7-0.5,0.9l-20.6,11.9C41.7,120.6,41.5,120.6,41.4,120.6z
		 M21.8,107.2l19.6,11.3L61,107.2V80.9L41.4,69.6L21.8,80.9V107.2z"/>
	<polygon class="st1" points="62,29.1 41.4,41 41.4,41 62,52.8 82.5,41 82.5,41 	"/>
	<path class="st7" d="M62,53.8c-0.2,0-0.3,0-0.5-0.1L40.9,41.8c-0.5-0.3-0.6-0.9-0.4-1.4c0.1-0.2,0.2-0.3,0.4-0.4l20.6-11.9
		c0.3-0.2,0.7-0.2,1,0l20.5,12c0.5,0.3,0.6,0.9,0.4,1.4c-0.1,0.2-0.2,0.3-0.4,0.4L62.5,53.7C62.3,53.8,62.1,53.8,62,53.8z M43.4,41
		L62,51.7L80.5,41L62,30.2L43.4,41z"/>
	<polygon class="st3" points="41.4,68.4 62,80.3 62,52.8 41.4,41 	"/>
	<path class="st7" d="M62,81.3c-0.2,0-0.3,0-0.5-0.1L40.9,69.3c-0.3-0.2-0.5-0.5-0.5-0.9V41c0-0.6,0.4-1,1-1c0.2,0,0.3,0,0.5,0.1
		L62.5,52c0.3,0.2,0.5,0.5,0.5,0.9v27.5C63,80.9,62.5,81.3,62,81.3z M42.4,67.8L61,78.6V53.4L42.4,42.7V67.8z"/>
	<polygon class="st3" points="82.5,68.4 62,80.3 62,52.8 82.5,41 	"/>
	<path class="st7" d="M62,81.3c-0.6,0-1-0.4-1-1V52.8c0-0.4,0.2-0.7,0.5-0.9L82,40.1c0.5-0.3,1.1-0.1,1.4,0.4
		c0.1,0.2,0.1,0.3,0.1,0.5v27.4c0,0.4-0.2,0.7-0.5,0.9L62.5,81.2C62.3,81.3,62.1,81.3,62,81.3z M63,53.4v25.1l18.6-10.7V42.7
		L63,53.4z"/>
	<path class="st7" d="M69.5,63.3c-0.6,0-1-0.4-1-1c0-0.4,0.2-0.7,0.5-0.9l5.5-3.1c0.5-0.3,1.1-0.1,1.4,0.4s0.1,1.1-0.4,1.4l0,0
		l-5.5,3C69.9,63.2,69.7,63.3,69.5,63.3z"/>
	<path class="st2" d="M62,81.3c-0.2,0-0.3,0-0.5-0.1L40.9,69.3c-0.3-0.2-0.5-0.5-0.5-0.9V41c0-0.4,0.2-0.7,0.5-0.9l20.6-11.9
		c0.3-0.2,0.7-0.2,1,0L83,40.1c0.3,0.2,0.5,0.5,0.5,0.9v27.4c0,0.4-0.2,0.7-0.5,0.9L62.5,81.2C62.3,81.3,62.1,81.3,62,81.3z
		 M42.4,67.8L62,79.1l19.6-11.3V41.5L62,30.2L42.4,41.5V67.8z"/>
	<polygon class="st1" points="41.4,41 20.8,52.8 20.8,52.8 41.4,64.7 62,52.8 62,52.8 	"/>
	<path class="st7" d="M41.4,65.7c-0.2,0-0.3,0-0.5-0.1L20.3,53.7c-0.5-0.3-0.6-0.9-0.4-1.4c0.1-0.2,0.2-0.3,0.4-0.4L40.9,40
		c0.3-0.2,0.7-0.2,1,0l20.6,12c0.5,0.3,0.6,0.9,0.4,1.4c-0.1,0.2-0.2,0.3-0.4,0.4L41.9,65.6C41.7,65.7,41.5,65.7,41.4,65.7z
		 M22.8,52.8l18.6,10.7L60,52.8L41.4,42.1L22.8,52.8z"/>
	<polygon class="st3" points="20.8,80.3 41.4,92.2 41.4,64.7 20.8,52.8 	"/>
	<path class="st7" d="M41.4,93.2c-0.2,0-0.3,0-0.5-0.1L20.3,81.2c-0.3-0.2-0.5-0.5-0.5-0.9V52.8c0-0.6,0.4-1,1-1
		c0.2,0,0.3,0,0.5,0.1l20.6,11.9c0.3,0.2,0.5,0.5,0.5,0.9v27.5C42.4,92.7,41.9,93.2,41.4,93.2z M21.8,79.7l18.6,10.7V65.3L21.8,54.6
		V79.7z"/>
	<polygon class="st3" points="62,80.3 41.4,92.2 41.4,64.7 62,52.8 	"/>
	<path class="st7" d="M41.4,93.2c-0.6,0-1-0.4-1-1V64.7c0-0.4,0.2-0.7,0.5-0.9L61.5,52c0.5-0.3,1.1-0.1,1.4,0.4
		c0.1,0.2,0.1,0.3,0.1,0.5v27.5c0,0.4-0.2,0.7-0.5,0.9L41.9,93.1C41.7,93.1,41.5,93.2,41.4,93.2z M42.4,65.3v25.1L61,79.7V54.6
		L42.4,65.3z"/>
	<path class="st7" d="M48.9,75.1c-0.6,0-1-0.4-1-1c0-0.4,0.2-0.7,0.5-0.9l5.5-3.1c0.5-0.3,1.1-0.1,1.4,0.3c0.3,0.5,0.1,1.1-0.3,1.4
		c0,0,0,0-0.1,0L49.4,75C49.3,75.1,49.1,75.1,48.9,75.1z"/>
	<path class="st2" d="M41.4,93.2c-0.2,0-0.3,0-0.5-0.1L20.3,81.2c-0.3-0.2-0.5-0.5-0.5-0.9V52.8c0-0.4,0.2-0.7,0.5-0.9L40.9,40
		c0.3-0.2,0.7-0.2,1,0l20.6,12c0.3,0.2,0.5,0.5,0.5,0.9v27.5c0,0.4-0.2,0.7-0.5,0.9L41.9,93.1C41.7,93.1,41.5,93.2,41.4,93.2z
		 M21.8,79.7L41.4,91L61,79.7V53.4L41.4,42.1L21.8,53.4V79.7z"/>
	<polygon class="st1" points="79.1,17.6 66.7,24.8 66.7,41.4 79.1,34.2 91.6,41.4 91.6,24.8 	"/>
	<path class="st5" d="M91.6,42.4c-0.2,0-0.3,0-0.5-0.1l-12-6.9l-12,6.9c-0.5,0.3-1.1,0.1-1.4-0.4c-0.1-0.2-0.1-0.3-0.1-0.5V24.8
		c0-0.4,0.2-0.7,0.5-0.9l12.5-7.2c0.3-0.2,0.7-0.2,1,0l12.5,7.2c0.3,0.2,0.5,0.5,0.5,0.9v16.6C92.6,42,92.2,42.4,91.6,42.4
		L91.6,42.4z M79.1,33.2c0.2,0,0.3,0,0.5,0.1l11,6.3V25.4l-11.5-6.6l-11.5,6.6v14.3l11-6.3C78.8,33.3,79,33.2,79.1,33.2L79.1,33.2z"
		/>
	<polygon class="st4" points="91.6,41.4 79.1,48.6 79.1,32 91.6,24.8 	"/>
	<path class="st5" d="M79.1,49.6c-0.6,0-1-0.4-1-1V32c0-0.4,0.2-0.7,0.5-0.9l12.5-7.2c0.5-0.3,1.1-0.1,1.4,0.4
		c0.1,0.2,0.1,0.3,0.1,0.5v16.6c0,0.4-0.2,0.7-0.5,0.9l-12.5,7.2C79.5,49.6,79.3,49.6,79.1,49.6z M80.1,32.6v14.3l10.5-6V26.5
		L80.1,32.6z"/>
	<polygon class="st1" points="66.7,41.4 79.1,48.6 79.1,32 66.7,24.8 	"/>
	<path class="st5" d="M79.1,49.6c-0.2,0-0.3,0-0.5-0.1l-12.5-7.2c-0.3-0.2-0.5-0.5-0.5-0.9V24.8c0-0.6,0.4-1,1-1
		c0.2,0,0.3,0,0.5,0.1l12.5,7.2c0.3,0.2,0.5,0.5,0.5,0.9v16.6C80.1,49.2,79.7,49.6,79.1,49.6z M67.7,40.9l10.5,6V32.6l-10.5-6V40.9z
		"/>
	<path class="st6" d="M79.1,49.6c-0.2,0-0.3,0-0.5-0.1l-12.5-7.2c-0.3-0.2-0.5-0.5-0.5-0.9V24.8c0-0.4,0.2-0.7,0.5-0.9l12.5-7.2
		c0.3-0.2,0.7-0.2,1,0l12.5,7.2c0.3,0.2,0.5,0.5,0.5,0.9v16.6c0,0.4-0.2,0.7-0.5,0.9l-12.5,7.2C79.5,49.6,79.3,49.6,79.1,49.6z
		 M67.7,40.9l11.5,6.6l11.5-6.6V25.4l-11.5-6.6l-11.5,6.6V40.9z"/>
	<path class="st6" d="M91.6,7c-0.4,0-0.8-0.2-0.9-0.6c-0.1-0.1-0.1-0.2-0.1-0.4c0-0.3,0.1-0.5,0.3-0.7c0.4-0.4,1-0.4,1.4,0
		s0.4,1,0,1.4C92.1,6.9,91.9,7,91.6,7z"/>
	<path class="st6" d="M90.6,18.5c0-0.6,0.4-1,1-1l0,0c0.6,0,1,0.4,1,1l0,0c0,0.6-0.4,1-1,1l0,0C91,19.5,90.6,19.1,90.6,18.5z
		 M90.6,12.3c0-0.6,0.4-1,1-1l0,0c0.6,0,1,0.4,1,1l0,0c0,0.6-0.4,1-1,1l0,0C91,13.3,90.6,12.8,90.6,12.3z"/>
	<path class="st6" d="M91.6,25.8c-0.6,0-1-0.5-1-1c0-0.3,0.1-0.5,0.3-0.7c0.4-0.4,1-0.4,1.4,0c0.2,0.2,0.3,0.4,0.3,0.7
		C92.6,25.4,92.2,25.8,91.6,25.8L91.6,25.8z"/>
	<path class="st6" d="M66.7,7c-0.1,0-0.3,0-0.4-0.1c-0.1,0-0.2-0.1-0.3-0.2c-0.2-0.2-0.3-0.4-0.3-0.7c0-0.1,0-0.3,0.1-0.4
		s0.1-0.2,0.2-0.3c0.1-0.1,0.2-0.2,0.3-0.2C66.5,5,66.7,5,66.9,5C67,5,67,5,67.1,5.1c0.1,0,0.1,0.1,0.2,0.1s0.1,0.1,0.2,0.1
		c0.1,0.1,0.2,0.2,0.2,0.3c0.1,0.1,0.1,0.2,0.1,0.4c0,0.3-0.1,0.5-0.3,0.7c0,0-0.1,0.1-0.2,0.1s-0.1,0.1-0.2,0.1S67,6.9,66.9,7
		C66.8,7,66.7,7,66.7,7z"/>
	<path class="st6" d="M65.7,18.5c0-0.6,0.4-1,1-1l0,0c0.6,0,1,0.4,1,1l0,0c0,0.6-0.4,1-1,1l0,0C66.1,19.5,65.7,19.1,65.7,18.5z
		 M65.7,12.3c0-0.6,0.4-1,1-1l0,0c0.6,0,1,0.4,1,1l0,0c0,0.6-0.4,1-1,1l0,0C66.1,13.3,65.7,12.8,65.7,12.3z"/>
	<path class="st6" d="M66.7,25.8c-0.1,0-0.3,0-0.4-0.1c-0.3-0.1-0.4-0.3-0.5-0.5c-0.1-0.1-0.1-0.2-0.1-0.4c0-0.1,0-0.1,0-0.2
		s0.1-0.3,0.2-0.4l0.1-0.1c0.1-0.1,0.2-0.2,0.3-0.2c0.2-0.1,0.4-0.1,0.6,0c0.1,0,0.1,0,0.2,0s0.1,0.1,0.2,0.1s0.1,0.1,0.2,0.1
		l0.1,0.1c0.1,0.1,0.1,0.2,0.2,0.4c0,0.1,0,0.1,0,0.2s0,0.3-0.1,0.4s-0.1,0.2-0.2,0.3l-0.2,0.1c-0.1,0-0.1,0.1-0.2,0.1
		s-0.1,0-0.2,0.1C66.8,25.8,66.7,25.8,66.7,25.8z"/>
	<path class="st6" d="M82.3,93c-0.6,0-1-0.4-1-1c0-0.4,0.2-0.7,0.5-0.9l7-4.1c0.5-0.3,1.1-0.1,1.4,0.4s0.1,1.1-0.4,1.4l0,0l-7,4.1
		C82.6,93,82.4,93,82.3,93z"/>
	<path class="st6" d="M82.3,120.5c-0.6,0-1-0.4-1-1V92c0-0.6,0.4-1,1-1s1,0.4,1,1v27.5C83.3,120,82.8,120.5,82.3,120.5z"/>
	<rect class="st0" width="128" height="128"/>
</g>
</svg>
