<?xml version="1.0" encoding="utf-8"?>
<!-- Generator: Adobe Illustrator 24.1.0, SVG Export Plug-In . SVG Version: 6.00 Build 0)  -->
<svg version="1.1" id="Layer_1" xmlns="http://www.w3.org/2000/svg" xmlns:xlink="http://www.w3.org/1999/xlink" x="0px" y="0px"
	 viewBox="0 0 128 128" style="enable-background:new 0 0 128 128;" xml:space="preserve">
<style type="text/css">
	.st0{fill:none;}
	.st1{fill:#0E352C;}
	.st2{fill:#FFFFFF;}
	.st3{opacity:0.85;}
	.st4{fill:#E9EBDF;}
	.st5{fill:#4D9987;}
	.st6{fill:#C4D7D3;}
	.st7{fill:#27ae60;}
	.st8{fill:#185849;}
</style>
<g>
	<rect x="1" y="1" class="st0" width="126" height="126"/>
	<path class="st1" d="M62,123.8c-1.9,0-3.8-0.5-5.5-1.5l-4.5-2.6c-1.4-0.8-1.9-2.7-1.1-4.1c0.3-0.5,0.6-0.8,1.1-1.1l7.5-4.3
		c0.5-0.3,0.6-0.9,0.4-1.4c-0.1-0.2-0.2-0.3-0.4-0.4l-9.7-5.4c-0.5-0.3-0.7-0.9-0.4-1.3c0.3-0.5,0.9-0.7,1.3-0.4l0,0l9.7,5.4
		c1.5,0.8,2,2.6,1.2,4.1c-0.3,0.5-0.7,0.9-1.1,1.1l-7.5,4.3c-0.5,0.3-0.6,0.9-0.4,1.4c0.1,0.2,0.2,0.3,0.4,0.4l4.5,2.6
		c2.8,1.6,6.2,1.6,9,0l12.8-7.4c0.5-0.3,1.1-0.2,1.4,0.3s0.2,1.1-0.3,1.4c0,0,0,0-0.1,0l-12.8,7.4C65.8,123.3,63.9,123.8,62,123.8z"
		/>
	<path class="st2" d="M73.3,23.4C50.7,34.2,29.1,47,8.9,61.7c-4.4,3.2-7,8.4-7,13.9v9.9c0,1.5,0.8,3,2.1,3.7l31,17.9
		c3,1.7,6.6,1.5,9.4-0.5c4.3-3.2,8.7-6.2,13.1-9.2c7.6-5.1,12.4-14.3,20.3-18.9c6-3.5,15-2.5,21.2-5.7c3.9-2,7.8-3.9,11.8-5.8
		c3-1.4,4.9-4.4,4.9-7.8V48.6c0-3.1-1.6-5.9-4.3-7.5L81.2,23.7C78.8,22.3,75.8,22.2,73.3,23.4z"/>
	<g class="st3">
		<path class="st4" d="M114.5,44.4c-0.8-1.4-1.9-2.5-3.2-3.3L81.2,23.7c-2.4-1.4-5.4-1.5-8-0.3c-1.2,0.6-2.4,1.2-3.6,1.7L108,47.3
			c2.1-1,4.3-2.1,6.5-3.1C114.5,44.3,114.5,44.3,114.5,44.4z"/>
		<path class="st5" d="M108,48.3c-0.2,0-0.3,0-0.5-0.1L69.2,26c-0.5-0.3-0.6-0.9-0.4-1.4c0.1-0.2,0.2-0.3,0.4-0.4l1.4-0.7
			c0.7-0.4,1.5-0.7,2.2-1.1c2.8-1.4,6.2-1.2,8.9,0.4l30.1,17.4c1.4,0.8,2.6,2,3.4,3.4l0,0l0,0c0,0.1,0.1,0.1,0.1,0.2
			c0.3,0.5,0.1,1.1-0.4,1.4c-0.2,0.1-0.5,0.2-0.8,0.1c-2,0.9-3.9,1.8-5.9,2.8C108.3,48.2,108.1,48.3,108,48.3z M71.8,25.2L108,46.1
			c1.6-0.8,3.3-1.6,4.9-2.3c-0.6-0.7-1.3-1.3-2.1-1.8L80.7,24.6c-2.2-1.3-4.8-1.4-7-0.3C73.1,24.6,72.4,24.9,71.8,25.2z"/>
	</g>
	<path class="st2" d="M41.7,89.9l-38-22c-1.2,2.4-1.8,5-1.8,7.6v5.6l38,22v-5.5C39.9,94.9,40.5,92.3,41.7,89.9z"/>
	<path class="st4" d="M41.7,89.9l-38-22c-1.2,2.4-1.8,5-1.8,7.6v5.6l38,22v-5.5C39.9,94.9,40.5,92.3,41.7,89.9z"/>
	<path class="st4" d="M114.4,44.2C90.7,55.2,68.1,68.4,47,83.7c-4.5,3.2-7.1,8.4-7.1,11.3v8.1c10.2-6.6,20.8-13.2,31.7-19.8
		c1.8-1.9,3.9-3.5,6.2-4.9c1.7-0.9,3.5-1.6,5.4-2c10.6-6.2,21.4-12.4,32.5-18.6v-9.3c0-1.5-0.4-2.9-1.1-4.2
		C114.5,44.3,114.5,44.3,114.4,44.2z"/>
	<path class="st4" d="M35,107.1c1.5,0.9,3.2,1.2,4.9,1.1v-6.3c-1.2,0.1-2.4-0.2-3.4-0.8L2,81.1v4.3c0,1.5,0.8,2.9,2.1,3.7L35,107.1z
		"/>
	<path class="st5" d="M43.1,100.7c-0.9,0.7-2,1.1-3.2,1.2v6.3l0,0c1.6-0.1,3.2-0.7,4.5-1.6c0.1-0.1,0.2-0.1,0.3-0.2
		c1.8-1.3,3.6-2.6,5.4-3.9c0.5-0.4,1-0.7,1.5-1.1c1.9-1.4,3.9-2.7,5.8-4c7.6-5.1,12.4-14.3,20.3-18.9c6-3.5,15-2.5,21.2-5.7
		c2.4-1.3,4.9-2.5,7.4-3.7c0.7-0.3,1.4-0.7,2.1-1c0.8-0.4,1.5-0.7,2.3-1.1c3-1.4,4.9-4.4,4.9-7.8v-1.3C90,69.6,65.7,84,43.1,100.7z"
		/>
	<path class="st5" d="M88.6,57.3l-0.7,0.4c-1.1,0.6-2.3,1.3-3.4,1.9c-0.3,0.2-0.6,0.4-1,0.6c-0.5,0.3-1,0.6-1.5,0.9
		c5.5-1.1,12.1,0,17-2.5c2.4-1.3,4.9-2.5,7.4-3.7c0.7-0.3,1.4-0.7,2.1-1c0.8-0.4,1.5-0.7,2.3-1.1c2.4-1.1,4.1-3.3,4.7-5.8
		c0-0.1,0-0.2,0-0.2c-0.2-0.8-0.5-1.5-0.9-2.2c0-0.1-0.1-0.1-0.1-0.2c-7.4,3.4-14.6,7-21.8,10.9l-0.3,0.2
		C91.1,55.9,89.8,56.6,88.6,57.3z"/>
	<path class="st5" d="M39.9,109.2L39.9,109.2c-0.6,0-1-0.4-1-1V95c0-3.3,2.8-8.8,7.5-12.2C67.6,67.5,90.2,54.3,114,43.3
		c0.5-0.2,1,0,1.3,0.4l0.1,0.2c0.3,0.5,0.1,1.1-0.4,1.4c-0.2,0.1-0.5,0.2-0.8,0.1c-23.4,10.9-45.8,24-66.7,39.1
		c-4.3,3.1-6.7,8.1-6.7,10.5v13.2C40.9,108.8,40.4,109.2,39.9,109.2L39.9,109.2z"/>
	<path class="st4" d="M95,44.8L70.2,30.5c-1.3-0.7-2.8-0.8-4.1-0.1c-18.8,9.6-36.9,20.7-54,33.2L12,63.7c-0.9,0.7-1.1,2.1-0.4,3
		c0.2,0.2,0.4,0.4,0.6,0.6l26.5,15.3c1.5,0.9,3.4,0.8,4.8-0.3c0.1-0.1,0.3-0.2,0.5-0.3c16.6-12.2,34.3-23,52.6-32.4
		c1.1-0.5,1.5-1.8,0.9-2.9c-0.2-0.4-0.5-0.7-0.8-0.9L95,44.8z"/>
	<path class="st2" d="M66.1,33.1l-17.5,9.6c-0.7,0.4-0.9,1.2-0.5,1.9c0.1,0.2,0.3,0.4,0.5,0.5l23.2,13.5c0.9,0.5,1.9,0.5,2.8,0
		L92.1,49c0.7-0.4,0.9-1.2,0.5-1.9c-0.1-0.2-0.3-0.4-0.5-0.5L68.9,33.1C68,32.6,66.9,32.6,66.1,33.1z"/>
	<path class="st4" d="M48.6,45.2l1.6,0.9l15.9-8.7c0.9-0.5,1.9-0.5,2.8,0L90.5,50l1.6-0.9c0.7-0.4,0.9-1.2,0.5-1.9
		c-0.1-0.2-0.3-0.4-0.5-0.5L68.9,33.1c-0.9-0.5-1.9-0.5-2.8,0l-17.5,9.6c-0.7,0.4-0.9,1.2-0.5,1.9C48.2,44.9,48.4,45,48.6,45.2z"/>
	<path class="st5" d="M73.2,60c-0.7,0-1.3-0.2-1.9-0.5L48.1,46c-1.1-0.7-1.5-2.1-0.9-3.3c0.2-0.4,0.5-0.7,0.9-0.9l17.5-9.6
		c1.2-0.7,2.6-0.7,3.8,0l23.2,13.5c1.1,0.7,1.5,2.1,0.9,3.3c-0.2,0.4-0.5,0.7-0.9,0.9l-17.5,9.6C74.5,59.9,73.9,60,73.2,60z
		 M67.5,33.8c-0.3,0-0.6,0.1-0.9,0.2l0,0l-17.5,9.6c-0.1,0.1-0.2,0.2-0.2,0.3s0.1,0.3,0.2,0.4l23.2,13.5c0.6,0.3,1.3,0.3,1.8,0
		l17.5-9.6c0.1-0.1,0.2-0.2,0.2-0.3s-0.1-0.3-0.2-0.3L68.4,34C68.1,33.8,67.8,33.8,67.5,33.8z"/>
	<path class="st5" d="M32.6,94.1c-0.2,0-0.3,0-0.5-0.1L10.8,81.6c-0.5-0.3-0.6-0.9-0.4-1.4c0.3-0.5,0.9-0.6,1.4-0.4l21.3,12.3
		c0.5,0.3,0.6,0.9,0.4,1.4C33.3,93.9,32.9,94.1,32.6,94.1L32.6,94.1z"/>
	<path class="st5" d="M65.6,61.8c0.5,0.3,0.5,0.8,0,1.1l-2.8,1.7c-0.6,0.3-1.3,0.3-1.9,0L56.4,62c-0.3-0.1-0.5-0.4-0.4-0.7
		c0.1-0.2,0.2-0.3,0.4-0.4l2.8-1.7c0.6-0.3,1.3-0.3,1.9,0L65.6,61.8z"/>
	<path class="st5" d="M55.8,56.2c0.5,0.3,0.5,0.8,0,1.1L53,59c-0.6,0.3-1.3,0.3-1.9,0l-4.5-2.6c-0.3-0.1-0.5-0.4-0.4-0.7
		c0.1-0.2,0.2-0.3,0.4-0.4l2.8-1.6c0.6-0.3,1.3-0.3,1.9,0L55.8,56.2z"/>
	<path class="st5" d="M45.9,50.6c0.5,0.3,0.5,0.8,0,1l-2.7,1.6c-0.6,0.3-1.2,0.3-1.8,0l-4.3-2.5c-0.3-0.1-0.4-0.4-0.3-0.7
		c0.1-0.2,0.2-0.3,0.3-0.3l2.7-1.6c0.6-0.3,1.2-0.3,1.8,0L45.9,50.6z"/>
	<path class="st5" d="M58.4,66.2c0.5,0.3,0.5,0.8,0,1.1L55.6,69c-0.6,0.3-1.3,0.3-1.9,0l-4.5-2.6c-0.3-0.1-0.5-0.4-0.4-0.7
		c0.1-0.2,0.2-0.3,0.4-0.4l2.8-1.7c0.6-0.3,1.3-0.3,1.9,0L58.4,66.2z"/>
	<path class="st5" d="M48.5,60.6c0.5,0.3,0.5,0.8,0,1.1l-2.8,1.7c-0.6,0.3-1.3,0.3-1.9,0l-4.5-2.6c-0.3-0.1-0.5-0.4-0.4-0.7
		c0.1-0.2,0.2-0.3,0.4-0.4l2.8-1.7c0.6-0.3,1.3-0.3,1.9,0L48.5,60.6z"/>
	<path class="st5" d="M38.7,55c0.5,0.3,0.5,0.8,0,1L36,57.7c-0.6,0.3-1.2,0.3-1.8,0l-4.3-2.5c-0.3-0.1-0.4-0.4-0.3-0.7
		c0.1-0.2,0.2-0.3,0.3-0.3l2.7-1.6c0.6-0.3,1.2-0.3,1.8,0L38.7,55z"/>
	<path class="st5" d="M51.4,70.6c0.5,0.3,0.5,0.8,0,1.1l-2.8,1.7c-0.6,0.3-1.3,0.3-1.9,0l-4.5-2.6c-0.3-0.1-0.5-0.4-0.4-0.7
		c0.1-0.2,0.2-0.3,0.4-0.4L45,68c0.6-0.3,1.3-0.3,1.9,0L51.4,70.6z"/>
	<path class="st5" d="M41.6,65.1c0.5,0.3,0.5,0.8,0,1.1l-2.8,1.7c-0.6,0.3-1.3,0.3-1.9,0l-4.5-2.6c-0.3-0.1-0.5-0.4-0.4-0.7
		c0.1-0.2,0.2-0.3,0.4-0.4l2.8-1.7c0.6-0.3,1.3-0.3,1.9,0L41.6,65.1z"/>
	<path class="st5" d="M31.8,59.5c0.5,0.3,0.5,0.8,0,1l-2.7,1.6c-0.6,0.3-1.2,0.3-1.8,0L23,59.6c-0.3-0.1-0.4-0.4-0.3-0.7
		c0.1-0.2,0.2-0.3,0.3-0.3l2.7-1.6c0.6-0.3,1.2-0.3,1.8,0L31.8,59.5z"/>
	<path class="st5" d="M44.6,75.2c0.5,0.3,0.5,0.8,0,1.1L41.8,78c-0.6,0.3-1.3,0.3-1.9,0l-4.5-2.6c-0.3-0.1-0.5-0.4-0.4-0.7
		c0.1-0.2,0.2-0.3,0.4-0.4l2.8-1.7c0.6-0.3,1.3-0.3,1.9,0L44.6,75.2z"/>
	<path class="st5" d="M34.8,69.6c0.5,0.3,0.5,0.8,0,1.1L32,72.4c-0.6,0.3-1.3,0.3-1.9,0l-4.5-2.6c-0.3-0.1-0.5-0.4-0.4-0.7
		c0.1-0.2,0.2-0.3,0.4-0.4l2.8-1.7c0.6-0.3,1.3-0.3,1.9,0L34.8,69.6z"/>
	<path class="st5" d="M25,64c0.5,0.3,0.5,0.8,0,1l-2.7,1.6c-0.6,0.3-1.2,0.3-1.8,0l-4.3-2.5c-0.3-0.1-0.4-0.4-0.3-0.7
		c0.1-0.2,0.2-0.3,0.3-0.3l2.7-1.6c0.6-0.3,1.2-0.3,1.8,0L25,64z"/>
	<path class="st2" d="M102.3,44L76.7,29.2l3.3-8c2.7-6.5,8-11.6,14.7-14l5.8-2L126.1,20l-5.8,2c-6.7,2.3-12,7.4-14.7,14L102.3,44z"
		/>
	<path class="st5" d="M102.3,45c-0.2,0-0.3,0-0.5-0.1L76.2,30c-0.4-0.3-0.6-0.8-0.4-1.2l3.3-8C81.8,14,87.4,8.7,94.3,6.3l5.8-2
		c0.3-0.1,0.6-0.1,0.8,0.1l25.7,14.8c0.5,0.3,0.6,0.9,0.4,1.4c-0.1,0.2-0.3,0.4-0.5,0.4l-5.8,2c-6.4,2.2-11.5,7.1-14.1,13.4l-3.3,8
		C103.1,44.8,102.7,45,102.3,45L102.3,45z M77.9,28.7l23.9,13.8l2.8-7c2.8-6.8,8.4-12.1,15.3-14.5l3.7-1.3L100.3,6.3L95,8.2
		c-6.4,2.2-11.5,7.1-14.1,13.4L77.9,28.7z"/>
	<path class="st1" d="M39.3,109.2c-1.7,0-3.3-0.4-4.8-1.3l-31-17.8c-1.6-1-2.6-2.7-2.6-4.6v-9.9c0-5.8,2.8-11.3,7.4-14.7
		c20.3-14.8,41.9-27.6,64.5-38.4c1.8-0.9,3.8-1.1,5.8-0.8l0.4-0.9C81.8,14,87.4,8.7,94.3,6.3l5.8-2c0.3-0.1,0.6-0.1,0.8,0.1
		l25.7,14.8c0.5,0.3,0.6,0.9,0.4,1.4c-0.1,0.2-0.3,0.4-0.5,0.4l-5.8,2l0,0c-6.4,2.2-11.5,7.1-14.1,13.4l-0.3,0.7l5.6,3.2
		c3,1.7,4.8,4.9,4.8,8.3v10.6c0,3.7-2.1,7.1-5.5,8.7c-3.9,1.9-7.9,3.8-11.7,5.8c-3.1,1.6-6.9,2.2-10.6,2.8
		c-3.8,0.6-7.7,1.2-10.6,2.9c-4.1,2.4-7.4,6.1-10.6,9.7c-3,3.3-6,6.7-9.7,9.2c-4.4,3-8.8,6.1-13,9.2
		C43.3,108.6,41.3,109.3,39.3,109.2z M76.9,23.6c-1.1,0-2.2,0.2-3.2,0.7C51.2,35,29.7,47.8,9.5,62.5c-4.2,3.1-6.6,7.9-6.6,13.1v9.9
		c0,1.2,0.6,2.3,1.7,2.9l30.9,17.9c2.6,1.5,5.9,1.3,8.3-0.4c4.3-3.1,8.7-6.3,13.1-9.2c3.5-2.3,6.4-5.7,9.3-8.9
		c3.3-3.7,6.8-7.6,11.1-10.1c3.3-1.9,7.4-2.5,11.3-3.2c3.5-0.5,7.1-1.1,10-2.6c3.9-2,7.8-4,11.8-5.8c2.6-1.3,4.3-3.9,4.3-6.9V48.6
		c0-2.7-1.5-5.2-3.8-6.6l-6.4-3.7c-0.4-0.3-0.6-0.8-0.4-1.2l0.6-1.5c2.8-6.8,8.4-12.1,15.3-14.5l3.7-1.3L100.3,6.3L95,8.2
		c-6.4,2.2-11.5,7.1-14.1,13.4l-0.7,1.7C80,23.7,79.5,24,79,23.9C78.3,23.7,77.6,23.6,76.9,23.6z"/>
	<path class="st4" d="M99.4,35.3c-0.2,0-0.3,0-0.5-0.1L84.8,27c-0.5-0.3-0.6-0.9-0.4-1.4c0.3-0.5,0.9-0.6,1.4-0.4l14.1,8.1
		c0.5,0.3,0.6,0.9,0.4,1.4C100.1,35.1,99.7,35.3,99.4,35.3z"/>
	<path class="st4" d="M102.6,28.6c-0.2,0-0.3,0-0.5-0.1l-14-8.1c-0.5-0.3-0.6-0.9-0.4-1.4c0.3-0.5,0.9-0.6,1.4-0.4l14,8.1
		c0.5,0.3,0.6,0.9,0.4,1.4C103.3,28.4,102.9,28.6,102.6,28.6L102.6,28.6z"/>
	<path class="st4" d="M107.6,23.8c-0.2,0-0.3,0-0.5-0.1l-14.2-8.2c-0.5-0.3-0.6-0.9-0.4-1.4c0.3-0.5,0.9-0.6,1.4-0.4l14.2,8.2
		c0.5,0.3,0.6,0.9,0.4,1.4C108.3,23.6,107.9,23.8,107.6,23.8z"/>
	<path class="st4" d="M113.9,20.1c-0.2,0-0.3,0-0.5-0.1l-13.9-8c-0.5-0.3-0.6-0.9-0.4-1.4c0.3-0.5,0.9-0.6,1.4-0.4l13.9,8
		c0.5,0.3,0.6,0.9,0.4,1.4C114.6,19.9,114.2,20.1,113.9,20.1L113.9,20.1z"/>
	<path class="st1" d="M103,45.4c-0.2,0-0.3,0-0.5-0.1L75.3,29.6c-0.5-0.3-0.7-0.9-0.4-1.4s0.9-0.7,1.4-0.4c0,0,0,0,0.1,0l27.2,15.7
		c0.5,0.3,0.6,0.9,0.4,1.4C103.7,45.2,103.4,45.4,103,45.4z"/>
	<path class="st6" d="M120.1,85.2L120.1,85.2c0.8-0.4,1.7-0.3,2.4,0.2c2,1.1,3.6,4.2,3.6,6.9c0.1,1.1-0.4,2.2-1.3,2.9l0,0l-8.9,5.1
		l-4.7-10L120.1,85.2z"/>
	<path class="st2" d="M120.1,85.2L120.1,85.2c0.8-0.4,1.7-0.3,2.4,0.2c1.2,0.8,2.1,1.9,2.7,3.2l-11.6,6.7l0,0l-2.4-5L120.1,85.2z"/>
	<path class="st7" d="M115,101.6c-0.7,0-1.3-0.2-1.9-0.6c-2.3-1.3-4.1-4.7-4.1-7.7c-0.1-1.4,0.5-2.8,1.6-3.7c0,0,0.1,0,0.1-0.1
		l4.9-2.8c0.1,0,0.2-0.1,0.2-0.1c0.4-0.2,0.9-0.3,1.4-0.3c0.6,0,1.2,0.2,1.7,0.5c0.3,0.2,0.5,0.4,0.8,0.6l0.1,0.1
		c0.2,0.2,0.4,0.4,0.6,0.6c0.1,0.1,0.2,0.2,0.2,0.3c0.2,0.2,0.3,0.4,0.4,0.6c0.1,0.1,0.2,0.3,0.3,0.5c1,1.6,1.5,3.3,1.6,5.2
		c0.1,1.4-0.5,2.7-1.5,3.6c-0.1,0.1-0.1,0.1-0.2,0.2l-4.9,2.8c0,0-0.1,0-0.1,0.1C116,101.5,115.5,101.6,115,101.6z M111.8,91.2
		L111.8,91.2c-0.6,0.6-0.9,1.3-0.8,2.1c0,2.3,1.4,5,3.1,6c0.4,0.3,0.9,0.4,1.4,0.2h0.1l4.6-2.7c0.1,0,0.1-0.1,0.2-0.1
		c0.6-0.5,0.9-1.3,0.8-2c0-1.4-0.5-2.9-1.3-4.1c-0.1-0.2-0.2-0.3-0.3-0.4c-0.1-0.2-0.2-0.3-0.3-0.4l-0.2-0.2
		c-0.1-0.2-0.3-0.3-0.5-0.5l0.6-0.8l-0.6,0.8c-0.2-0.1-0.3-0.3-0.5-0.4c-0.3-0.2-0.5-0.3-0.8-0.3c-0.2,0-0.4,0-0.5,0.1
		c-0.1,0-0.1,0.1-0.2,0.1L111.8,91.2z"/>
	<ellipse transform="matrix(0.9201 -0.3916 0.3916 0.9201 -28.2477 52.0928)" class="st4" cx="113.6" cy="95.3" rx="3.1" ry="5.5"/>
	<path class="st5" d="M115,101.6c-0.7,0-1.3-0.2-1.9-0.6c-2.3-1.3-4.1-4.7-4.1-7.7c-0.1-1.5,0.5-2.9,1.7-3.8
		c1.1-0.6,2.4-0.5,3.4,0.2c2.3,1.3,4.1,4.7,4.1,7.7c0.1,1.5-0.5,2.9-1.7,3.8C116,101.4,115.5,101.6,115,101.6z M112.2,91.1
		c-0.1,0-0.3,0-0.4,0.1c-0.6,0.5-0.8,1.3-0.7,2c0,2.3,1.4,5,3.1,6c0.4,0.3,0.9,0.4,1.4,0.2c0.6-0.5,0.8-1.3,0.7-2c0-2.3-1.4-5-3.1-6
		C112.8,91.2,112.5,91.1,112.2,91.1z"/>
	<path class="st8" d="M115,101.6c-0.7,0-1.3-0.2-1.9-0.6c-2.3-1.3-4.1-4.7-4.1-7.7c-0.1-1.4,0.5-2.8,1.6-3.7c0,0,0.1,0,0.1-0.1
		l8.9-5.1c0.1,0,0.2-0.1,0.2-0.1c0.4-0.2,0.9-0.3,1.4-0.3c0.6,0,1.2,0.2,1.7,0.5c0.3,0.2,0.5,0.4,0.8,0.6l0.1,0.1
		c0.2,0.2,0.4,0.4,0.6,0.6c0.1,0.1,0.1,0.2,0.2,0.3c0.2,0.2,0.3,0.4,0.4,0.6s0.2,0.3,0.3,0.5c1,1.6,1.5,3.3,1.6,5.2
		c0.1,1.4-0.5,2.7-1.5,3.6c-0.1,0.1-0.1,0.1-0.2,0.2l-8.9,5.1c0,0-0.1,0-0.1,0.1C116,101.5,115.5,101.6,115,101.6z M111.8,91.2
		L111.8,91.2c-0.6,0.6-0.9,1.3-0.8,2.1c0,2.3,1.4,5,3.1,6c0.4,0.3,0.9,0.4,1.4,0.2h0.1l8.6-5c0.1,0,0.1-0.1,0.2-0.1
		c0.6-0.5,0.9-1.3,0.8-2c-0.1-1.4-0.5-2.9-1.3-4.1c-0.1-0.2-0.2-0.3-0.3-0.4c-0.1-0.2-0.2-0.3-0.3-0.4c-0.1-0.1-0.1-0.1-0.2-0.2
		c-0.1-0.2-0.3-0.3-0.4-0.4l0.6-0.8l-0.6,0.8c-0.2-0.1-0.3-0.3-0.5-0.4c-0.3-0.2-0.5-0.3-0.8-0.3c-0.2,0-0.4,0-0.5,0.1
		c-0.1,0-0.1,0.1-0.2,0.1L111.8,91.2z"/>
	<path class="st6" d="M78.5,99.5c4.5-3.1,11.3-5.1,18.9-5.1s14.4,2,18.9,5.1h5.7v7.5c0,7.8-11,14.2-24.6,14.2s-24.6-6.4-24.6-14.2
		v-7.5H78.5z"/>
	<path class="st6" d="M97.5,94.4v26.9c-13.6,0-24.6-6.4-24.6-14.2v-7.5h5.7C83,96.4,89.8,94.4,97.5,94.4z"/>
	<ellipse class="st2" cx="97.5" cy="99.5" rx="24.6" ry="14.2"/>
	<path class="st2" d="M97.5,114.7c-14.1,0-25.6-6.8-25.6-15.2c0-0.6,0.4-1,1-1s1,0.4,1,1c0,7.3,10.6,13.2,23.6,13.2
		s23.6-5.9,23.6-13.2c0-0.6,0.4-1,1-1s1,0.4,1,1C123.1,107.9,111.6,114.7,97.5,114.7z"/>
	<ellipse class="st7" cx="97.5" cy="99.5" rx="18.9" ry="10.2"/>
	<path class="st6" d="M97.5,89.3L97.5,89.3v20.4l0,0c-10.4,0-18.9-4.6-18.9-10.2S87,89.3,97.5,89.3z"/>
	<ellipse class="st2" cx="97.5" cy="101.4" rx="18.5" ry="8.3"/>
	<path class="st7" d="M97.5,110.7c-11.1,0-19.9-4.9-19.9-11.2s8.7-11.2,19.9-11.2c11.1,0,19.9,4.9,19.9,11.2S108.6,110.7,97.5,110.7
		z M97.5,90.3c-9.7,0-17.9,4.2-17.9,9.2s8.2,9.2,17.9,9.2s17.9-4.2,17.9-9.2S107.1,90.3,97.5,90.3z"/>
	<path class="st8" d="M97.5,122.3c-14.1,0-25.6-6.8-25.6-15.2v-7.5c0-8.4,11.5-15.2,25.6-15.2s25.6,6.8,25.6,15.2v7.5
		C123.1,115.4,111.6,122.3,97.5,122.3z M97.5,86.3c-13,0-23.6,5.9-23.6,13.2v7.5c0,7.3,10.6,13.2,23.6,13.2s23.6-5.9,23.6-13.2v-7.5
		C121.1,92.2,110.5,86.3,97.5,86.3z"/>
	<path class="st6" d="M97.5,103.3V93.1c4.4-0.1,8.9,0.9,12.9,2.7L97.5,103.3z"/>
	<ellipse class="st7" cx="97.5" cy="103.3" rx="4.2" ry="2.3"/>
	<rect class="st0" width="128" height="128"/>
</g>
</svg>
