<?xml version="1.0" encoding="utf-8"?>
<!-- Generator: Adobe Illustrator 24.1.0, SVG Export Plug-In . SVG Version: 6.00 Build 0)  -->
<svg version="1.1" id="Layer_1" xmlns="http://www.w3.org/2000/svg" xmlns:xlink="http://www.w3.org/1999/xlink" x="0px" y="0px"
	 viewBox="0 0 128 128" style="enable-background:new 0 0 128 128;" xml:space="preserve">
<style type="text/css">
	.st0{fill:#FFFFFF;}
	.st1{fill:#E9EBDF;}
	.st2{fill:#4D9987;}
	.st3{fill:#0E352C;}
	.st4{fill:#27ae60;}
	.st5{fill:#C4D7D3;}
	.st6{fill:#185849;}
	.st7{fill:none;}
</style>
<g>
	<polygon class="st0" points="117.2,93.6 73.1,119 10.8,83 54.9,57.6 	"/>
	<path class="st1" d="M73.1,120c-0.2,0-0.3,0-0.5-0.1l-62.3-36C9.9,83.6,9.7,83,10,82.5c0.1-0.2,0.2-0.3,0.4-0.4l44-25.4
		c0.3-0.2,0.7-0.2,1,0l62.3,36c0.5,0.3,0.6,0.9,0.4,1.4c-0.1,0.2-0.2,0.3-0.4,0.4l-44,25.4C73.5,120,73.3,120,73.1,120z M12.8,83
		l60.3,34.8l42-24.3L54.9,58.8L12.8,83z"/>
	<path class="st1" d="M17,87.6c-0.6,0-1-0.4-1-1v-9.5c0-0.6,0.4-1,1-1s1,0.4,1,1v9.5C18,87.1,17.5,87.6,17,87.6z"/>
	<polygon class="st0" points="73.1,119 73.1,109.5 10.8,73.6 10.8,83 	"/>
	<path class="st2" d="M73.1,120c-0.2,0-0.3,0-0.5-0.1l-62.3-36C10,83.7,9.8,83.4,9.8,83v-9.5c0-0.6,0.4-1,1-1c0.2,0,0.3,0,0.5,0.1
		l62.3,36c0.3,0.2,0.5,0.5,0.5,0.9v9.5C74.1,119.6,73.7,120,73.1,120L73.1,120z M11.8,82.5l60.3,34.8v-7.1L11.8,75.3V82.5z"/>
	<polygon class="st1" points="73.1,119 73.1,109.5 117.2,84.1 117.2,93.6 	"/>
	<path class="st2" d="M73.1,120c-0.6,0-1-0.4-1-1v-9.5c0-0.4,0.2-0.7,0.5-0.9l44-25.4c0.5-0.3,1.1-0.1,1.4,0.4
		c0.1,0.2,0.1,0.3,0.1,0.5v9.5c0,0.4-0.2,0.7-0.5,0.9l-44,25.4C73.5,120,73.3,120,73.1,120z M74.1,110.1v7.1l42-24.3v-7.1
		L74.1,110.1z"/>
	<path class="st2" d="M73.1,120c-0.6,0-1-0.4-1-1v-9.5c0-0.4,0.2-0.7,0.5-0.9l44-25.4c0.5-0.3,1.1-0.1,1.4,0.4
		c0.1,0.2,0.1,0.3,0.1,0.5v9.5c0,0.4-0.2,0.7-0.5,0.9l-44,25.4C73.5,120,73.3,120,73.1,120z M74.1,110.1v7.1l42-24.3v-7.1
		L74.1,110.1z"/>
	<path class="st2" d="M73.1,120c-0.2,0-0.3,0-0.5-0.1l-62.3-36C10,83.7,9.8,83.4,9.8,83v-9.5c0-0.6,0.4-1,1-1c0.2,0,0.3,0,0.5,0.1
		l62.3,36c0.3,0.2,0.5,0.5,0.5,0.9v9.5C74.1,119.6,73.7,120,73.1,120L73.1,120z M11.8,82.5l60.3,34.8v-7.1L11.8,75.3V82.5z"/>
	<polygon class="st0" points="117.2,84.1 73.1,109.5 10.8,73.6 54.9,48.2 	"/>
	<path class="st1" d="M73.1,110.5c-0.2,0-0.3,0-0.5-0.1l-62.3-36c-0.5-0.3-0.6-0.9-0.4-1.4c0.1-0.2,0.2-0.3,0.4-0.4l44-25.4
		c0.3-0.2,0.7-0.2,1,0l62.3,36c0.5,0.3,0.6,0.9,0.4,1.4c-0.1,0.2-0.2,0.3-0.4,0.4l-44,25.4C73.5,110.5,73.3,110.5,73.1,110.5z
		 M12.8,73.6l60.3,34.8l42-24.3L54.9,49.3L12.8,73.6z"/>
	<path class="st1" d="M29.9,78.3c-0.6,0-1-0.4-1-1c0-0.4,0.2-0.7,0.5-0.9l31.3-18.1c0.5-0.3,1.1-0.1,1.4,0.4
		c0.3,0.5,0.1,1.1-0.4,1.4l0,0l-31.3,18C30.3,78.2,30.1,78.3,29.9,78.3z"/>
	<path class="st1" d="M38.3,78.6c-0.6,0-1-0.4-1-1c0-0.4,0.2-0.7,0.5-0.9l23.6-13.6c0.5-0.3,1.1-0.1,1.4,0.4
		c0.3,0.5,0.1,1.1-0.4,1.4l0,0L38.8,78.5C38.6,78.6,38.5,78.6,38.3,78.6z"/>
	<path class="st1" d="M42.8,85.7c-0.6,0-1-0.4-1-1c0-0.4,0.2-0.7,0.5-0.9l31.3-18.1c0.5-0.3,1.1-0.1,1.4,0.4s0.1,1.1-0.4,1.4l0,0
		l-31.3,18C43.1,85.6,43,85.7,42.8,85.7z"/>
	<path class="st1" d="M47.3,88.3c-0.6,0-1-0.4-1-1c0-0.4,0.2-0.7,0.5-0.9l31.3-18.1c0.5-0.3,1.1-0.1,1.4,0.4s0.1,1.1-0.4,1.4l0,0
		l-31.3,18C47.6,88.2,47.5,88.3,47.3,88.3z"/>
	<path class="st1" d="M55.4,92.9c-0.6,0-1-0.4-1-1c0-0.4,0.2-0.7,0.5-0.9l12.8-7.4c0.5-0.3,1.1-0.1,1.4,0.4s0.1,1.1-0.4,1.4l0,0
		l-12.8,7.4C55.7,92.9,55.5,92.9,55.4,92.9z"/>
	<polygon class="st1" points="61,51.7 17,77.1 10.8,73.6 54.9,48.2 	"/>
	<path class="st2" d="M17,78.1c-0.2,0-0.3,0-0.5-0.1l-6.2-3.6c-0.5-0.3-0.6-0.9-0.4-1.4c0.1-0.2,0.2-0.3,0.4-0.4l44-25.4
		c0.3-0.2,0.7-0.2,1,0l6.2,3.6c0.5,0.3,0.6,0.9,0.4,1.4c-0.1,0.2-0.2,0.3-0.4,0.4L17.5,78C17.3,78.1,17.2,78.1,17,78.1z M12.8,73.6
		L17,76l42-24.3l-4.2-2.4L12.8,73.6z"/>
	<path class="st1" d="M72.6,102.9c-0.2,0-0.3,0-0.5-0.1l-12.8-7.4c-0.5-0.3-0.6-0.9-0.4-1.4c0.1-0.2,0.2-0.3,0.4-0.4l12.8-7.4
		c0.3-0.2,0.7-0.2,1,0l12.8,7.4c0.5,0.3,0.6,0.9,0.4,1.4c-0.1,0.2-0.2,0.3-0.4,0.4l-12.8,7.4C73,102.9,72.8,102.9,72.6,102.9z
		 M61.9,94.5l10.8,6.2l10.8-6.2l-10.8-6.2L61.9,94.5z"/>
	<path class="st1" d="M87.4,91.3c-0.6,0-1-0.4-1-1c0-0.4,0.2-0.7,0.5-0.9l13.8-8c0.5-0.3,1.1-0.1,1.4,0.4s0.1,1.1-0.4,1.4l0,0
		l-13.8,8C87.8,91.3,87.6,91.3,87.4,91.3z"/>
	<path class="st2" d="M73.1,110.5c-0.2,0-0.3,0-0.5-0.1l-62.3-36c-0.5-0.3-0.6-0.9-0.4-1.4c0.1-0.2,0.2-0.3,0.4-0.4l44-25.4
		c0.3-0.2,0.7-0.2,1,0l62.3,36c0.5,0.3,0.6,0.9,0.4,1.4c-0.1,0.2-0.2,0.3-0.4,0.4l-44,25.4C73.5,110.5,73.3,110.5,73.1,110.5z
		 M12.8,73.6l60.3,34.8l42-24.3L54.9,49.3L12.8,73.6z"/>
	<path class="st1" d="M82.7,87.8c-0.6,0-1-0.4-1-1c0-0.4,0.2-0.7,0.5-0.9l13.8-8c0.5-0.3,1.1-0.1,1.4,0.4s0.1,1.1-0.4,1.4l0,0
		l-13.8,8C83.1,87.8,82.9,87.8,82.7,87.8z"/>
	<path class="st1" d="M82.7,87.8c-0.6,0-1-0.4-1-1c0-0.4,0.2-0.7,0.5-0.9l13.8-8c0.5-0.3,1.1-0.1,1.4,0.4s0.1,1.1-0.4,1.4l0,0
		l-13.8,8C83.1,87.8,82.9,87.8,82.7,87.8z"/>
	<path class="st1" d="M78,84.4c-0.6,0-1-0.4-1-1c0-0.4,0.2-0.7,0.5-0.9l13.8-8c0.5-0.3,1.1-0.1,1.4,0.4s0.1,1.1-0.4,1.4l0,0l-13.8,8
		C78.4,84.4,78.2,84.4,78,84.4z"/>
	<path class="st3" d="M73.1,120c-0.2,0-0.3,0-0.5-0.1l-62.3-36C10,83.7,9.8,83.4,9.8,83v-9.5c0-0.4,0.2-0.7,0.5-0.9l44-25.4
		c0.3-0.2,0.7-0.2,1,0l62.3,36c0.3,0.2,0.5,0.5,0.5,0.9v9.5c0,0.4-0.2,0.7-0.5,0.9l-44,25.4C73.5,120,73.3,120,73.1,120z M11.8,82.5
		l61.3,35.4l43-24.8v-8.3L54.9,49.3l-43,24.8L11.8,82.5z"/>
	<polygon class="st0" points="112,43.2 85.4,34.4 79.9,39.9 106.5,48.8 104,44.4 	"/>
	<path class="st4" d="M106.5,49.8c-0.1,0-0.2,0-0.3-0.1l-26.6-8.9c-0.5-0.2-0.8-0.7-0.6-1.3c0-0.1,0.1-0.3,0.2-0.4l5.5-5.5
		c0.3-0.3,0.7-0.4,1-0.2l26.6,8.9c0.5,0.2,0.8,0.7,0.6,1.3c-0.1,0.4-0.4,0.6-0.8,0.7l-6.6,1l1.8,3.1c0.3,0.5,0.1,1.1-0.4,1.4
		C106.9,49.7,106.7,49.8,106.5,49.8L106.5,49.8z M81.7,39.5l22.6,7.5l-1.2-2.1c-0.3-0.5-0.1-1.1,0.4-1.4c0.1-0.1,0.2-0.1,0.4-0.1
		l3.9-0.6l-22.1-7.4L81.7,39.5z"/>
	<polygon class="st0" points="89.7,52 97.9,53.8 90.2,46.1 82.5,38.4 77.7,40 72.9,41.6 80.6,49.3 88.3,57 	"/>
	<path class="st4" d="M88.3,58c-0.3,0-0.5-0.1-0.7-0.3L72.2,42.3c-0.4-0.4-0.4-1,0-1.4c0.1-0.1,0.2-0.2,0.4-0.2l9.6-3.2
		c0.4-0.1,0.8,0,1,0.2l15.4,15.4c0.4,0.4,0.4,1,0,1.4c-0.2,0.2-0.6,0.3-0.9,0.3l-7.2-1.6l-1.2,4.1c-0.1,0.3-0.4,0.6-0.7,0.7
		C88.5,57.9,88.4,58,88.3,58z M74.8,42l13,13l1-3.3c0.1-0.5,0.7-0.8,1.2-0.7l4.8,1L82.2,39.5L74.8,42z"/>
	<path class="st4" d="M106.5,49.8c-0.1,0-0.2,0-0.3-0.1l-26.6-8.9c-0.5-0.2-0.8-0.7-0.6-1.3c0-0.1,0.1-0.3,0.2-0.4l5.5-5.5
		c0.3-0.3,0.7-0.4,1-0.2l26.6,8.9c0.5,0.2,0.8,0.7,0.6,1.3c-0.1,0.4-0.4,0.6-0.8,0.7l-6.6,1l1.8,3.1c0.3,0.5,0.1,1.1-0.4,1.4
		C106.9,49.7,106.7,49.8,106.5,49.8L106.5,49.8z M81.7,39.5l22.6,7.5l-1.2-2.1c-0.3-0.5-0.1-1.1,0.4-1.4c0.1-0.1,0.2-0.1,0.4-0.1
		l3.9-0.6l-22.1-7.4L81.7,39.5z"/>
	<path class="st4" d="M88.3,58c-0.3,0-0.5-0.1-0.7-0.3L72.2,42.3c-0.4-0.4-0.4-1,0-1.4c0.1-0.1,0.2-0.2,0.4-0.2l9.6-3.2
		c0.4-0.1,0.8,0,1,0.2l15.4,15.4c0.4,0.4,0.4,1,0,1.4c-0.2,0.2-0.6,0.3-0.9,0.3l-7.2-1.6l-1.2,4.1c-0.1,0.3-0.4,0.6-0.7,0.7
		C88.5,57.9,88.4,58,88.3,58z M74.8,42l13,13l1-3.3c0.1-0.5,0.7-0.8,1.2-0.7l4.8,1L82.2,39.5L74.8,42z"/>
	<path class="st5" d="M86.8,24.9c-2.4-1.2-5.3-1.5-7.9-0.7c-0.9-1.6-3.4-2.7-6.5-2.7s-5.6,1.1-6.5,2.7c-2.6-0.8-5.4-0.5-7.9,0.7
		c-2.1,1.2-2.5,3.1-1.3,4.5c-2.7,0.5-4.7,2-4.7,3.7c0,1.7,2,3.2,4.7,3.7c-1.3,1.5-0.9,3.3,1.3,4.5c2.4,1.2,5.3,1.5,7.9,0.7
		c0.9,1.6,3.4,2.7,6.5,2.7s5.6-1.1,6.5-2.7c2.6,0.8,5.4,0.5,7.9-0.7c2.1-1.2,2.5-3.1,1.3-4.5c2.7-0.5,4.7-2,4.7-3.7s-2-3.2-4.7-3.7
		C89.3,27.9,88.9,26.1,86.8,24.9z M75.5,37.4c-2-0.6-4.1-0.6-6.1,0c-0.4-0.7-1-1.2-1.7-1.5c-0.8-0.5-1.7-0.8-2.7-1c1-1,1-2.6,0-3.5
		l0,0c0.9-0.2,1.9-0.5,2.7-1c0.7-0.4,1.2-0.9,1.7-1.6c2,0.6,4.1,0.6,6.1,0c0.4,0.7,1,1.2,1.6,1.6c0.8,0.5,1.7,0.8,2.7,1
		c-1,1-1,2.6,0,3.5c-0.9,0.2-1.9,0.5-2.7,1C76.5,36.2,75.9,36.7,75.5,37.4z"/>
	<path class="st4" d="M72.4,45.8c-3,0-5.6-1-6.9-2.6c-2.7,0.6-5.5,0.3-8-1c-1.2-0.6-2.1-1.8-2.4-3.1c-0.1-0.6,0-1.1,0.2-1.7
		c-2.5-0.8-4.1-2.5-4.1-4.4s1.6-3.5,4.1-4.4c-0.2-0.5-0.2-1.1-0.2-1.7c0.3-1.3,1.2-2.5,2.4-3.1c2.5-1.3,5.3-1.6,8-1
		c1.3-1.6,3.9-2.6,6.9-2.6s5.6,1,6.9,2.6c2.7-0.6,5.5-0.3,8,1c1.2,0.6,2.1,1.8,2.4,3.1c0.1,0.6,0,1.1-0.2,1.7
		c2.5,0.8,4.1,2.5,4.1,4.4c0,1.9-1.6,3.5-4.1,4.4c0.2,0.5,0.2,1.1,0.2,1.7c-0.3,1.3-1.2,2.5-2.4,3.1c-2.5,1.3-5.3,1.6-8,1
		C78,44.8,75.4,45.8,72.4,45.8z M66,41.1c0.4,0,0.7,0.2,0.9,0.5c0.6,1.1,2.6,2.2,5.6,2.2s5-1.1,5.6-2.2c0.2-0.4,0.7-0.6,1.2-0.5
		c2.4,0.7,4.9,0.5,7.1-0.6c0.7-0.3,1.3-0.9,1.5-1.7c0.1-0.5-0.1-1-0.5-1.3c-0.4-0.4-0.3-1,0.1-1.4c0.1-0.1,0.3-0.2,0.5-0.2
		c2.2-0.4,3.9-1.6,3.9-2.7s-1.6-2.3-3.9-2.7c-0.5-0.1-0.9-0.6-0.8-1.2c0-0.2,0.1-0.3,0.2-0.5c0.4-0.3,0.5-0.8,0.5-1.3
		c-0.2-0.8-0.8-1.4-1.5-1.7l0,0c-2.2-1.1-4.7-1.3-7.1-0.6c-0.4,0.1-0.9-0.1-1.2-0.5c-0.6-1.1-2.6-2.2-5.6-2.2s-5,1.1-5.6,2.2
		c-0.2,0.4-0.7,0.6-1.2,0.5c-2.4-0.7-4.9-0.5-7.1,0.6c-0.7,0.3-1.3,0.9-1.5,1.7c-0.1,0.5,0.1,1,0.5,1.3c0.4,0.4,0.3,1-0.1,1.4
		c-0.1,0.1-0.3,0.2-0.5,0.2c-2.2,0.4-3.9,1.6-3.9,2.7s1.6,2.3,3.9,2.7c0.5,0.1,0.9,0.6,0.8,1.2c0,0.2-0.1,0.3-0.2,0.5
		c-0.4,0.3-0.5,0.8-0.5,1.3c0.2,0.8,0.8,1.4,1.5,1.7c2.2,1.1,4.7,1.3,7.1,0.6C65.8,41.1,65.9,41.1,66,41.1L66,41.1z M75.5,38.4
		c-0.1,0-0.2,0-0.3,0c-1.8-0.5-3.8-0.5-5.6,0c-0.4,0.1-0.9-0.1-1.2-0.5c-0.3-0.5-0.8-0.9-1.3-1.2c-0.7-0.4-1.5-0.7-2.4-0.8
		c-0.5-0.1-0.9-0.6-0.8-1.2c0-0.2,0.1-0.3,0.2-0.5c0.6-0.6,0.7-1.5,0.1-2.1L64.1,32c-0.4-0.4-0.3-1,0.1-1.4c0.1-0.1,0.3-0.2,0.5-0.2
		c0.8-0.1,1.6-0.4,2.4-0.8c0.5-0.3,1-0.7,1.3-1.2c0.2-0.4,0.7-0.6,1.2-0.5c1.8,0.5,3.8,0.5,5.6,0c0.4-0.1,0.9,0.1,1.2,0.5
		c0.3,0.5,0.8,0.9,1.3,1.2c0.7,0.4,1.5,0.7,2.4,0.8c0.5,0.1,0.9,0.6,0.8,1.2c0,0.2-0.1,0.3-0.2,0.5c-0.6,0.6-0.6,1.5-0.1,2.1
		l0.1,0.1c0.4,0.4,0.3,1-0.1,1.4c-0.1,0.1-0.3,0.2-0.5,0.2c-0.8,0.1-1.6,0.4-2.4,0.8c-0.5,0.3-1,0.7-1.3,1.2
		C76.2,38.2,75.9,38.4,75.5,38.4z M66.5,34.3c0.6,0.2,1.1,0.4,1.7,0.7s1.1,0.8,1.6,1.3c1.7-0.4,3.6-0.4,5.3,0c0.4-0.5,1-0.9,1.6-1.3
		c0.5-0.3,1.1-0.5,1.7-0.7c-0.3-0.7-0.3-1.5,0-2.3c-0.6-0.2-1.1-0.4-1.7-0.7c-0.6-0.3-1.1-0.8-1.6-1.3c-1.7,0.4-3.6,0.4-5.3,0
		c-0.4,0.5-1,0.9-1.6,1.3c-0.5,0.3-1.1,0.5-1.7,0.7C66.8,32.7,66.8,33.5,66.5,34.3z"/>
	<path class="st4" d="M56.4,35.2c-1.5-0.3-2.8-1-3.8-2.2c-0.1-0.1-0.2-0.2-0.4-0.1c-0.1,0-0.1,0.1-0.1,0.2l0,0
		c0,1.5,1.5,2.8,3.7,3.5c0.1,0,0.3,0,0.3-0.2l0,0c0.1-0.3,0.2-0.6,0.4-0.8C56.7,35.5,56.6,35.3,56.4,35.2
		C56.5,35.2,56.5,35.2,56.4,35.2z"/>
	<path class="st4" d="M88.3,35.6c0.2,0.3,0.3,0.5,0.4,0.8c0,0.1,0.2,0.2,0.3,0.2l0,0c2.2-0.6,3.7-2,3.7-3.5l0,0
		c0-0.1-0.1-0.3-0.3-0.3c-0.1,0-0.2,0-0.2,0.1c-1,1.2-2.3,1.9-3.8,2.2C88.3,35.2,88.2,35.4,88.3,35.6C88.2,35.5,88.2,35.6,88.3,35.6
		z"/>
	<path class="st4" d="M88.9,37.6c-0.6,0-1.1-0.4-1.2-0.9c-0.1-0.2-0.1-0.4-0.3-0.5l0,0c-0.2-0.3-0.3-0.8-0.1-1.2
		c0.2-0.4,0.5-0.7,0.9-0.8c1.2-0.2,2.4-0.8,3.2-1.8c0.3-0.5,0.9-0.7,1.4-0.5s0.9,0.6,0.9,1.2c0,2-1.7,3.7-4.4,4.5
		C89.1,37.6,89,37.6,88.9,37.6z"/>
	<path class="st4" d="M72.4,45.8c-3,0-5.6-1-6.9-2.6c-2.7,0.6-5.5,0.3-8-1c-1.2-0.6-2.1-1.8-2.4-3.1c-0.1-0.6,0-1.1,0.2-1.7
		c-2.5-0.8-4.1-2.5-4.1-4.4s1.6-3.5,4.1-4.4c-0.2-0.5-0.2-1.1-0.2-1.7c0.3-1.3,1.2-2.5,2.4-3.1c2.5-1.3,5.3-1.6,8-1
		c1.3-1.6,3.9-2.6,6.9-2.6s5.6,1,6.9,2.6c2.7-0.6,5.5-0.3,8,1c1.2,0.6,2.1,1.8,2.4,3.1c0.1,0.6,0,1.1-0.2,1.7
		c2.5,0.8,4.1,2.5,4.1,4.4c0,1.9-1.6,3.5-4.1,4.4c0.2,0.5,0.2,1.1,0.2,1.7c-0.3,1.3-1.2,2.5-2.4,3.1c-2.5,1.3-5.3,1.6-8,1
		C78,44.8,75.4,45.8,72.4,45.8z M66,41.1c0.4,0,0.7,0.2,0.9,0.5c0.6,1.1,2.6,2.2,5.6,2.2s5-1.1,5.6-2.2c0.2-0.4,0.7-0.6,1.2-0.5
		c2.4,0.7,4.9,0.5,7.1-0.6c0.7-0.3,1.3-0.9,1.5-1.7c0.1-0.5-0.1-1-0.5-1.3c-0.4-0.4-0.3-1,0.1-1.4c0.1-0.1,0.3-0.2,0.5-0.2
		c2.2-0.4,3.9-1.6,3.9-2.7s-1.6-2.3-3.9-2.7c-0.5-0.1-0.9-0.6-0.8-1.2c0-0.2,0.1-0.3,0.2-0.5c0.4-0.3,0.5-0.8,0.5-1.3
		c-0.2-0.8-0.8-1.4-1.5-1.7l0,0c-2.2-1.1-4.7-1.3-7.1-0.6c-0.4,0.1-0.9-0.1-1.2-0.5c-0.6-1.1-2.6-2.2-5.6-2.2s-5,1.1-5.6,2.2
		c-0.2,0.4-0.7,0.6-1.2,0.5c-2.4-0.7-4.9-0.5-7.1,0.6c-0.7,0.3-1.3,0.9-1.5,1.7c-0.1,0.5,0.1,1,0.5,1.3c0.4,0.4,0.3,1-0.1,1.4
		c-0.1,0.1-0.3,0.2-0.5,0.2c-2.2,0.4-3.9,1.6-3.9,2.7s1.6,2.3,3.9,2.7c0.5,0.1,0.9,0.6,0.8,1.2c0,0.2-0.1,0.3-0.2,0.5
		c-0.4,0.3-0.5,0.8-0.5,1.3c0.2,0.8,0.8,1.4,1.5,1.7c2.2,1.1,4.7,1.3,7.1,0.6C65.8,41.1,65.9,41.1,66,41.1L66,41.1z M75.5,38.4
		c-0.1,0-0.2,0-0.3,0c-1.8-0.5-3.8-0.5-5.6,0c-0.4,0.1-0.9-0.1-1.2-0.5c-0.3-0.5-0.8-0.9-1.3-1.2c-0.7-0.4-1.5-0.7-2.4-0.8
		c-0.5-0.1-0.9-0.6-0.8-1.2c0-0.2,0.1-0.3,0.2-0.5c0.6-0.6,0.7-1.5,0.1-2.1L64.1,32c-0.4-0.4-0.3-1,0.1-1.4c0.1-0.1,0.3-0.2,0.5-0.2
		c0.8-0.1,1.6-0.4,2.4-0.8c0.5-0.3,1-0.7,1.3-1.2c0.2-0.4,0.7-0.6,1.2-0.5c1.8,0.5,3.8,0.5,5.6,0c0.4-0.1,0.9,0.1,1.2,0.5
		c0.3,0.5,0.8,0.9,1.3,1.2c0.7,0.4,1.5,0.7,2.4,0.8c0.5,0.1,0.9,0.6,0.8,1.2c0,0.2-0.1,0.3-0.2,0.5c-0.6,0.6-0.6,1.5-0.1,2.1
		l0.1,0.1c0.4,0.4,0.3,1-0.1,1.4c-0.1,0.1-0.3,0.2-0.5,0.2c-0.8,0.1-1.6,0.4-2.4,0.8c-0.5,0.3-1,0.7-1.3,1.2
		C76.2,38.2,75.9,38.4,75.5,38.4z M66.5,34.3c0.6,0.2,1.1,0.4,1.7,0.7s1.1,0.8,1.6,1.3c1.7-0.4,3.6-0.4,5.3,0c0.4-0.5,1-0.9,1.6-1.3
		c0.5-0.3,1.1-0.5,1.7-0.7c-0.3-0.7-0.3-1.5,0-2.3c-0.6-0.2-1.1-0.4-1.7-0.7c-0.6-0.3-1.1-0.8-1.6-1.3c-1.7,0.4-3.6,0.4-5.3,0
		c-0.4,0.5-1,0.9-1.6,1.3c-0.5,0.3-1.1,0.5-1.7,0.7C66.8,32.7,66.8,33.5,66.5,34.3z"/>
	<ellipse class="st0" cx="72.4" cy="32.8" rx="11.5" ry="6.7"/>
	<path class="st4" d="M72.4,40.4c-3,0.1-6-0.7-8.6-2.1c-2.5-1.4-3.9-3.4-3.9-5.6s1.4-4.1,3.9-5.6c5.4-2.8,11.9-2.8,17.3,0
		c2.5,1.4,3.9,3.4,3.9,5.6s-1.4,4.1-3.9,5.6C78.4,39.8,75.4,40.5,72.4,40.4z M72.4,27.1c-2.7-0.1-5.3,0.6-7.6,1.8
		c-1.9,1.1-2.9,2.4-2.9,3.8s1,2.8,2.9,3.8c4.8,2.4,10.5,2.4,15.3,0c1.9-1.1,2.9-2.4,2.9-3.8c0-1.4-1-2.8-2.9-3.8
		C77.7,27.7,75.1,27.1,72.4,27.1z"/>
	<path class="st6" d="M88.3,58c-0.3,0-0.5-0.1-0.7-0.3L75.4,45.5c-1,0.2-2,0.4-3,0.4c-3,0-5.6-1-6.9-2.6c-2.7,0.6-5.5,0.3-8-1
		c-1.2-0.6-2.1-1.8-2.4-3.1c-0.1-0.6,0-1.1,0.2-1.7c-2.5-0.8-4.1-2.5-4.1-4.4s1.6-3.5,4.1-4.4c-0.2-0.5-0.2-1.1-0.2-1.7
		c0.3-1.3,1.2-2.5,2.4-3.1c2.5-1.3,5.3-1.6,8-1c1.3-1.6,3.9-2.6,6.9-2.6s5.6,1,6.9,2.6c2.7-0.6,5.5-0.3,8,1c1.2,0.6,2.1,1.8,2.4,3.1
		c0.1,0.6,0,1.1-0.2,1.7c2.5,0.8,4.1,2.4,4.1,4.3v0.1c0,0.3,0,0.6-0.1,0.9c0,0.1-0.1,0.2-0.1,0.2c-0.1,0.2-0.1,0.4-0.2,0.5
		c0,0.1-0.1,0.2-0.2,0.3c-0.1,0.2-0.2,0.3-0.3,0.4c-0.1,0.1-0.1,0.1-0.2,0.2l19.8,6.6c0.5,0.2,0.8,0.7,0.6,1.3
		c-0.1,0.4-0.4,0.6-0.8,0.7l-6.6,1l1.8,3.1c0.3,0.5,0.1,1.1-0.4,1.4c-0.2,0.1-0.5,0.2-0.8,0.1l-16.4-5.5l8.8,8.8
		c0.4,0.4,0.4,1,0,1.4c-0.2,0.2-0.6,0.3-0.9,0.3l-7.2-1.6l-1.2,4.1c-0.1,0.3-0.4,0.6-0.7,0.7C88.5,57.9,88.4,58,88.3,58z M75.7,43.3
		c0.3,0,0.5,0.1,0.7,0.3L87.8,55l1-3.3c0.1-0.5,0.7-0.8,1.2-0.7l4.8,1l-9.4-9.4c-0.4-0.4-0.4-1,0-1.4c0.3-0.3,0.7-0.4,1-0.2l18,6
		l-1.2-2.1c-0.3-0.5-0.1-1.1,0.4-1.4c0.1-0.1,0.2-0.1,0.4-0.1l3.9-0.6L90.1,37c-0.5-0.2-0.8-0.7-0.6-1.3c0.1-0.2,0.3-0.5,0.5-0.6
		l0.1-0.1c0.1,0,0.2-0.1,0.3-0.2c0.1-0.1,0.2-0.1,0.3-0.2s0.1-0.1,0.2-0.2s0.2-0.1,0.2-0.2c0.1-0.1,0.1-0.1,0.2-0.2
		c0.1-0.1,0.1-0.1,0.2-0.2c0.1-0.1,0.1-0.1,0.1-0.1c0-0.1,0.1-0.2,0.1-0.2v-0.1c0-0.1,0-0.2,0.1-0.3l0,0c0-1.2-1.6-2.3-3.9-2.7
		c-0.5-0.1-0.9-0.6-0.8-1.2c0-0.2,0.1-0.3,0.2-0.5c0.4-0.3,0.5-0.8,0.5-1.3c-0.2-0.8-0.8-1.4-1.5-1.7c-2.2-1.1-4.7-1.3-7.1-0.6
		c-0.4,0.1-0.9-0.1-1.2-0.5c-0.6-1.1-2.6-2.2-5.6-2.2s-5,1.1-5.6,2.2c-0.2,0.4-0.7,0.6-1.2,0.5c-2.4-0.7-4.9-0.5-7.1,0.6
		c-0.7,0.3-1.3,0.9-1.5,1.7c-0.1,0.5,0.1,1,0.5,1.3c0.4,0.4,0.3,1-0.1,1.4c-0.1,0.1-0.3,0.2-0.5,0.2C54.7,30.7,53,31.9,53,33
		s1.6,2.3,3.9,2.7c0.5,0.1,0.9,0.6,0.8,1.2c0,0.2-0.1,0.3-0.2,0.5c-0.4,0.3-0.5,0.8-0.5,1.3c0.2,0.8,0.8,1.4,1.5,1.7
		c2.2,1.1,4.7,1.3,7.1,0.6c0.4-0.1,0.9,0.1,1.2,0.5c0.6,1.1,2.6,2.2,5.6,2.2c1,0,2-0.1,2.9-0.4C75.5,43.4,75.6,43.3,75.7,43.3z"/>
	<path class="st6" d="M72.4,45.8c-3,0-5.6-1-6.9-2.6c-2.7,0.6-5.5,0.3-8-1c-1.2-0.6-2.1-1.8-2.4-3.1c-0.1-0.6,0-1.1,0.2-1.7
		c-2.5-0.8-4.1-2.5-4.1-4.4s1.6-3.5,4.1-4.4c-0.2-0.5-0.2-1.1-0.2-1.7c0.3-1.3,1.2-2.5,2.4-3.1c2.5-1.3,5.3-1.6,8-1
		c1.3-1.6,3.9-2.6,6.9-2.6s5.6,1,6.9,2.6c2.7-0.6,5.5-0.3,8,1c1.2,0.6,2.1,1.8,2.4,3.1c0.1,0.6,0,1.1-0.2,1.7
		c2.5,0.8,4.1,2.5,4.1,4.4c0,1.9-1.6,3.5-4.1,4.4c0.2,0.5,0.2,1.1,0.2,1.7c-0.3,1.3-1.2,2.5-2.4,3.1c-2.5,1.3-5.3,1.6-8,1
		C78,44.8,75.4,45.8,72.4,45.8z M66,41.1c0.4,0,0.7,0.2,0.9,0.5c0.6,1.1,2.6,2.2,5.6,2.2s5-1.1,5.6-2.2c0.2-0.4,0.7-0.6,1.2-0.5
		c2.4,0.7,4.9,0.5,7.1-0.6c0.7-0.3,1.3-0.9,1.5-1.7c0.1-0.5-0.1-1-0.5-1.3c-0.4-0.4-0.3-1,0.1-1.4c0.1-0.1,0.3-0.2,0.5-0.2
		c2.2-0.4,3.9-1.6,3.9-2.7s-1.6-2.3-3.9-2.7c-0.5-0.1-0.9-0.6-0.8-1.2c0-0.2,0.1-0.3,0.2-0.5c0.4-0.3,0.5-0.8,0.5-1.3
		c-0.2-0.8-0.8-1.4-1.5-1.7l0,0c-2.2-1.1-4.7-1.3-7.1-0.6c-0.4,0.1-0.9-0.1-1.2-0.5c-0.6-1.1-2.6-2.2-5.6-2.2s-5,1.1-5.6,2.2
		c-0.2,0.4-0.7,0.6-1.2,0.5c-2.4-0.7-4.9-0.5-7.1,0.6c-0.7,0.3-1.3,0.9-1.5,1.7c-0.1,0.5,0.1,1,0.5,1.3c0.4,0.4,0.3,1-0.1,1.4
		c-0.1,0.1-0.3,0.2-0.5,0.2c-2.2,0.4-3.9,1.6-3.9,2.7s1.6,2.3,3.9,2.7c0.5,0.1,0.9,0.6,0.8,1.2c0,0.2-0.1,0.3-0.2,0.5
		c-0.4,0.3-0.5,0.8-0.5,1.3c0.2,0.8,0.8,1.4,1.5,1.7c2.2,1.1,4.7,1.3,7.1,0.6C65.8,41.1,65.9,41.1,66,41.1L66,41.1z"/>
	<path class="st6" d="M52.2,34.1c-0.3,0-0.5-0.1-0.7-0.3c-0.1-0.1-0.2-0.2-0.2-0.3s-0.1-0.3-0.1-0.4c0-0.1,0-0.3,0.1-0.4
		c0.1-0.1,0.1-0.2,0.2-0.3c0.2-0.2,0.6-0.3,0.9-0.3c0.1,0,0.1,0,0.2,0.1c0.1,0,0.1,0.1,0.2,0.1c0.1,0,0.1,0.1,0.2,0.1
		c0.2,0.2,0.3,0.4,0.3,0.7s-0.1,0.5-0.3,0.7c0,0.1-0.1,0.1-0.2,0.1c-0.1,0-0.1,0.1-0.2,0.1c-0.1,0-0.1,0-0.2,0
		C52.3,34.1,52.2,34.1,52.2,34.1z"/>
	<path class="st6" d="M51.2,27.1c0-0.6,0.4-1,1-1l0,0c0.5,0,1,0.4,1,1l0,0l0,0c0,0.5-0.4,1-1,1l0,0l0,0
		C51.6,28.1,51.2,27.6,51.2,27.1z M51.2,21.1c0-0.6,0.4-1,1-1l0,0c0.5,0,1,0.4,1,1l0,0l0,0c0,0.5-0.4,1-1,1l0,0l0,0
		C51.6,22.1,51.2,21.6,51.2,21.1z M51.2,15c0-0.6,0.4-1,1-1l0,0c0.5,0,1,0.4,1,1l0,0l0,0c0,0.5-0.4,1-1,1l0,0l0,0
		C51.6,16,51.2,15.6,51.2,15z"/>
	<path class="st6" d="M52.2,10c-0.3,0-0.5-0.1-0.7-0.3S51.2,9.3,51.2,9c0-0.1,0-0.3,0.1-0.4c0.1-0.1,0.1-0.2,0.2-0.3
		C51.7,8.1,52,8,52.4,8c0.1,0,0.1,0,0.2,0.1c0.1,0,0.1,0.1,0.2,0.1c0.1,0,0.1,0.1,0.2,0.1c0.4,0.4,0.4,1,0,1.4l0,0
		c0,0-0.1,0.1-0.2,0.1c-0.1,0-0.1,0.1-0.2,0.1c-0.1,0-0.1,0-0.2,0.1C52.3,10,52.2,10,52.2,10z"/>
	<path class="st6" d="M112,44.2c-0.5,0-1-0.5-1-1c0-0.3,0.1-0.5,0.3-0.7c0.4-0.4,1-0.4,1.4,0c0.2,0.2,0.3,0.4,0.3,0.7
		s-0.1,0.5-0.3,0.7C112.6,44.1,112.3,44.2,112,44.2z"/>
	<path class="st6" d="M111.1,37.2c0-0.5,0.4-1,1-1l0,0l0,0c0.6,0,1,0.4,1,1l0,0c0,0.6-0.4,1-1,1l0,0C111.5,38.2,111,37.8,111.1,37.2
		C111,37.2,111,37.2,111.1,37.2z M111.1,31.2c0-0.5,0.4-1,1-1l0,0l0,0c0.5,0,1,0.4,1,1l0,0l0,0c0,0.6-0.4,1-1,1l0,0
		C111.5,32.2,111,31.7,111.1,31.2C111,31.2,111,31.2,111.1,31.2z M111.1,25.1c0-0.5,0.4-1,1-1l0,0l0,0c0.5,0,1,0.4,1,1l0,0l0,0
		c0,0.6-0.4,1-1,1l0,0l0,0C111.5,26.1,111,25.7,111.1,25.1L111.1,25.1z"/>
	<path class="st6" d="M112,20.1c-0.3,0-0.5-0.1-0.7-0.3c-0.4-0.4-0.4-1,0-1.4l0,0c0.4-0.4,1-0.4,1.4,0s0.4,1,0,1.4
		C112.6,20,112.3,20.1,112,20.1z"/>
	<rect x="1" y="1" class="st7" width="126" height="126"/>
	<rect class="st7" width="128" height="128"/>
</g>
</svg>
