<?xml version="1.0" encoding="utf-8"?>
<!-- Generator: Adobe Illustrator 24.1.0, SVG Export Plug-In . SVG Version: 6.00 Build 0)  -->
<svg version="1.1" id="Layer_1" xmlns="http://www.w3.org/2000/svg" xmlns:xlink="http://www.w3.org/1999/xlink" x="0px" y="0px"
	 viewBox="0 0 128 128" style="enable-background:new 0 0 128 128;" xml:space="preserve">
<style type="text/css">
	.st0{fill:none;}
	.st1{fill:#FFFFFF;}
	.st2{fill:#C4D7D3;}
	.st3{fill:#27ae60;}
	.st4{fill:#185849;}
	.st5{fill:#E9EBDF;}
	.st6{fill:#4D9987;}
	.st7{fill:#0E352C;}
</style>
<g>
	<rect x="1" y="1" class="st0" width="126" height="126"/>
	<polygon class="st1" points="49.5,119.1 49.5,107 38.4,101 38.4,113.1 	"/>
	<polygon class="st2" points="49.5,119.1 49.5,107 60.6,101 60.6,113.1 	"/>
	<path class="st3" d="M49.5,120.1c-0.6,0-1-0.4-1-1V107c0-0.4,0.2-0.7,0.5-0.9l11.1-6c0.5-0.3,1.1-0.1,1.4,0.4
		c0.1,0.1,0.1,0.3,0.1,0.5v12.1c0,0.4-0.2,0.7-0.5,0.9L50,120C49.9,120,49.7,120.1,49.5,120.1z M50.5,107.6v9.8l9.1-4.9v-9.8
		L50.5,107.6z"/>
	<polygon class="st1" points="49.5,107 38.4,101 49.5,95 60.6,101 	"/>
	<path class="st3" d="M49.5,108c-0.2,0-0.3,0-0.5-0.1l-11.1-6c-0.5-0.3-0.7-0.9-0.4-1.4c0.1-0.2,0.2-0.3,0.4-0.4l11.1-6
		c0.3-0.2,0.7-0.2,1,0l11.1,6c0.5,0.3,0.7,0.9,0.4,1.4c-0.1,0.2-0.2,0.3-0.4,0.4l-11.1,6C49.9,108,49.7,108,49.5,108z M40.5,101
		l9,4.9l9-4.9l-9-4.9L40.5,101z"/>
	<path class="st4" d="M49.5,120.1c-0.2,0-0.3,0-0.5-0.1l-11.1-6c-0.3-0.2-0.5-0.5-0.5-0.9V101c0-0.4,0.2-0.7,0.5-0.9l11.1-6
		c0.3-0.2,0.7-0.2,1,0l11.1,6c0.3,0.2,0.5,0.5,0.5,0.9v12.1c0,0.4-0.2,0.7-0.5,0.9L50,120C49.9,120,49.7,120.1,49.5,120.1z
		 M39.4,112.5l10.1,5.5l10.1-5.5v-10.9l-10.1-5.5l-10.1,5.5V112.5z"/>
	<polygon class="st5" points="56.9,44 114.7,75.3 113.1,76.2 113.1,81.3 85.3,96.5 27.2,65.2 27.2,59.7 	"/>
	<polygon class="st6" points="109.9,72.7 110.2,58 96.2,65.4 	"/>
	<polyline class="st7" points="24.2,70.1 29.9,67 23.8,58.3 24.2,70.1 	"/>
	<path class="st7" d="M24.2,71.1c-0.5,0-1-0.4-1-1l-0.4-11.8c0-0.6,0.4-1,1-1c0.3,0,0.7,0.1,0.9,0.4l6.2,8.7
		c0.3,0.5,0.2,1.1-0.2,1.4c0,0-0.1,0-0.1,0.1L24.7,71C24.6,71.1,24.4,71.1,24.2,71.1z M24.9,61.6l0.3,6.8l3.3-1.8L24.9,61.6z"/>
	<polygon class="st5" points="56.9,44 90.2,61.1 109.9,50.3 110.2,58 96.3,65.3 114.7,75.3 113.1,76.2 113.1,81.3 85.3,96.5 
		27.2,65.2 27.2,59.7 	"/>
	<polygon class="st7" points="60.2,89.9 66.4,86.6 68.8,82.3 60.2,77.7 	"/>
	<path class="st7" d="M60.2,90.9c-0.6,0-1-0.4-1-1V77.7c0-0.6,0.4-1,1-1c0.2,0,0.3,0,0.5,0.1l8.6,4.7c0.5,0.3,0.7,0.9,0.4,1.4l0,0
		l-2.4,4.3c-0.1,0.2-0.2,0.3-0.4,0.4L60.7,91C60.6,90.9,60.4,90.9,60.2,90.9z M61.2,79.3v8.9l4.4-2.4l1.8-3.1L61.2,79.3z"/>
	<polygon class="st7" points="75,97.8 81.4,94.4 79.5,88.1 74.3,85.3 	"/>
	<path class="st7" d="M75,98.8c-0.5,0-1-0.4-1-0.9l-0.7-12.5c0-0.6,0.4-1,0.9-1.1c0.2,0,0.4,0,0.5,0.1l5.2,2.8
		c0.2,0.1,0.4,0.3,0.5,0.6l1.9,6.2c0.1,0.5-0.1,0.9-0.5,1.2l-6.4,3.5C75.4,98.8,75.2,98.8,75,98.8z M75.4,87l0.5,9.2l4.3-2.3l-1.5-5
		L75.4,87z"/>
	<path class="st5" d="M27.2,31.1v32.2c-0.1,1.4-1.3,2.5-2.7,2.4c-0.4,0-0.8-0.1-1.1-0.3L2,54.1V38.5c0-2.5,0.8-4.9,2.3-7L7.7,27
		c1.9-2.5,5.3-3.3,8.1-1.8L27.2,31.1z"/>
	<polygon class="st5" points="2,48.3 6.7,50.8 6.7,56.6 2,54.1 	"/>
	<path class="st5" d="M11.9,43.7L11.9,43.7l-4.3-2.4v-4c-0.1-0.9,0.1-1.7,0.6-2.5l2.4-3.6c0.9-1,2.3-1.3,3.5-0.7l8.8,4.6v10.3
		l-7.1-3.9c-1.3-0.7-2.9-0.2-3.6,1.1C12.1,42.9,12,43.3,11.9,43.7z"/>
	<polygon class="st5" points="85.3,91.3 85.3,56.4 27.2,25.1 27.2,59.7 	"/>
	<polygon class="st1" points="56.9,8.9 114.7,40.3 85.3,56.4 27.2,25.1 	"/>
	<path class="st1" d="M47.8,13.9L42.4,11c-1.9-1-4.3-1-6.2,0L11.3,24.5l16,7.4v-6.8L47.8,13.9z"/>
	<ellipse transform="matrix(0.9012 -0.4334 0.4334 0.9012 -32.365 40.0124)" class="st6" cx="71.6" cy="91" rx="4.5" ry="7.6"/>
	<path class="st7" d="M73.7,99.2c-0.9,0-1.8-0.3-2.5-0.7l0,0c-3.2-1.7-5.7-6.2-5.7-10.2c0-2.2,0.8-3.9,2.2-4.8
		c1.4-0.8,3.1-0.7,4.5,0.2c3.2,1.7,5.7,6.2,5.7,10.2c0,2.2-0.8,3.9-2.2,4.8C75,99,74.3,99.2,73.7,99.2z M72.1,96.7
		c0.7,0.5,1.7,0.6,2.5,0.2c0.9-0.7,1.4-1.9,1.2-3.1c0-3.2-2.1-7.1-4.7-8.5c-0.7-0.5-1.7-0.6-2.5-0.2c-0.9,0.7-1.4,1.9-1.2,3.1
		C67.4,91.4,69.5,95.3,72.1,96.7z"/>
	<path class="st6" d="M85.3,92.3c-0.2,0-0.3,0-0.5-0.1l-58-31.6c-0.3-0.2-0.5-0.5-0.5-0.9V25.1c0-0.6,0.4-1,1-1c0.2,0,0.3,0,0.5,0.1
		l58.1,31.3c0.3,0.2,0.5,0.5,0.5,0.9v34.9C86.3,91.9,85.9,92.3,85.3,92.3z M28.2,59.1l56.1,30.5V57L28.2,26.7V59.1z"/>
	<polygon class="st5" points="114.7,40.3 114.7,75.3 109.9,78 109.9,50.3 90.2,61.1 90.2,88.7 85.3,91.3 85.3,56.4 	"/>
	<path class="st6" d="M85.3,92.3c-0.6,0-1-0.4-1-1V56.4c0-0.4,0.2-0.7,0.5-0.9l29.4-16.1c0.5-0.3,1.1-0.1,1.4,0.4
		c0.1,0.1,0.1,0.3,0.1,0.5v35c0,0.4-0.2,0.7-0.5,0.9l-29.4,16C85.7,92.3,85.5,92.3,85.3,92.3z M86.3,57v32.6l27.4-14.9V42L86.3,57z"
		/>
	<path class="st6" d="M21.7,65c-1.1,0-2.2-0.3-3.2-0.8L6.2,57.5c-0.3-0.2-0.5-0.5-0.5-0.9v-5.2l-4.2-2.3C1.2,49,1,48.6,1,48.3v-9.7
		c0-2.7,0.9-5.4,2.5-7.5l3.4-4.6c2.2-2.9,6.2-3.8,9.4-2.1l11.4,5.9c0.3,0.2,0.5,0.5,0.5,0.9V59c0,2.2-1.2,4.1-3,5.2
		C24.1,64.7,23,65,21.7,65z M7.7,56l11.8,6.4c1.5,0.8,3.3,0.8,4.7-0.1c1.3-0.7,2.1-2,2.1-3.5V31.7l-10.9-5.6
		c-2.3-1.2-5.2-0.6-6.9,1.5l-3.4,4.6C3.7,34,3,36.2,3,38.5v9.2L7.2,50c0.3,0.2,0.5,0.5,0.5,0.9V56z"/>
	<path class="st6" d="M85.3,57.4c-0.2,0-0.3,0-0.5-0.1l-58-31.4c-0.5-0.3-0.7-0.9-0.4-1.4c0.1-0.2,0.2-0.3,0.4-0.4L56.5,8
		c0.3-0.2,0.7-0.2,1,0l57.8,31.4c0.5,0.3,0.7,0.9,0.4,1.4c-0.1,0.2-0.2,0.3-0.4,0.4L85.8,57.3C85.7,57.4,85.5,57.4,85.3,57.4z
		 M29.3,25.1l56,30.2l27.3-14.9L56.9,10L29.3,25.1z"/>
	<ellipse transform="matrix(0.9012 -0.4334 0.4334 0.9012 -32.365 40.0124)" class="st6" cx="71.6" cy="91" rx="4.5" ry="7.6"/>
	<path class="st7" d="M73.7,99.2c-0.9,0-1.8-0.3-2.5-0.7l0,0c-3.2-1.7-5.7-6.2-5.7-10.2c0-2.2,0.8-3.9,2.2-4.8
		c1.4-0.8,3.1-0.7,4.5,0.2c3.2,1.7,5.7,6.2,5.7,10.2c0,2.2-0.8,3.9-2.2,4.8C75,99,74.3,99.2,73.7,99.2z M72.1,96.7
		c0.7,0.5,1.7,0.6,2.5,0.2c0.9-0.7,1.4-1.9,1.2-3.1c0-3.2-2.1-7.1-4.7-8.5c-0.7-0.5-1.7-0.6-2.5-0.2c-0.9,0.7-1.4,1.9-1.2,3.1
		C67.4,91.4,69.5,95.3,72.1,96.7z"/>
	<path class="st7" d="M85.3,97.5c-0.2,0-0.3,0-0.5-0.1c-8.5-4.6-60.1-32.5-60.7-32.8c-0.5-0.3-0.7-0.9-0.4-1.4s0.9-0.7,1.4-0.4l0,0
		c0.5,0.3,50.4,27.2,60.2,32.6L111.6,81v-4.1c0-0.6,0.4-1,1-1l0,0l0,0c0.5,0,1,0.4,1,1v4.7c0,0.4-0.2,0.7-0.5,0.9L85.8,97.4
		C85.7,97.5,85.5,97.5,85.3,97.5z"/>
	<ellipse transform="matrix(0.9012 -0.4334 0.4334 0.9012 -32.365 40.0124)" class="st6" cx="71.6" cy="91" rx="4.5" ry="7.6"/>
	<path class="st7" d="M73.7,99.2c-0.9,0-1.8-0.3-2.5-0.7l0,0c-3.2-1.7-5.7-6.2-5.7-10.2c0-2.2,0.8-3.9,2.2-4.8
		c1.4-0.8,3.1-0.7,4.5,0.2c3.2,1.7,5.7,6.2,5.7,10.2c0,2.2-0.8,3.9-2.2,4.8C75,99,74.3,99.2,73.7,99.2z M72.1,96.7
		c0.7,0.5,1.7,0.6,2.5,0.2c0.9-0.7,1.4-1.9,1.2-3.1c0-3.2-2.1-7.1-4.7-8.5c-0.7-0.5-1.7-0.6-2.5-0.2c-0.9,0.7-1.4,1.9-1.2,3.1
		C67.4,91.4,69.5,95.3,72.1,96.7z"/>
	<path class="st7" d="M59,91.2c-0.9,0-1.8-0.3-2.5-0.7l0,0c-3.2-1.7-5.7-6.2-5.7-10.2c0-2.2,0.8-3.9,2.2-4.8
		c1.4-0.8,3.1-0.7,4.5,0.2c3.2,1.7,5.7,6.2,5.7,10.2c0,2.2-0.8,3.9-2.2,4.8C60.3,91,59.7,91.2,59,91.2z M57.4,88.7
		c0.7,0.5,1.7,0.6,2.5,0.2c0.9-0.7,1.4-1.9,1.2-3.1c0-3.2-2.1-7.1-4.7-8.5c-0.7-0.5-1.7-0.6-2.5-0.2c-0.9,0.7-1.4,1.9-1.2,3.1
		C52.7,83.5,54.8,87.3,57.4,88.7L57.4,88.7z"/>
	<path class="st7" d="M23.6,66.3c-0.8,0-1.6-0.2-2.3-0.6L1.5,55C1.2,54.8,1,54.4,1,54.1V38.5c0-2.7,0.9-5.4,2.5-7.5l3.4-4.6
		c0.7-1,1.7-1.7,2.8-2.3l26-14c2.2-1.2,4.9-1.2,7.2,0l5.4,2.9c0.5,0.3,0.7,0.9,0.4,1.4c-0.1,0.2-0.2,0.3-0.4,0.4l-20,10.9v36.2
		c0,1.6-0.8,3-2.2,3.8C25.3,66,24.4,66.3,23.6,66.3z M3,53.5l19.2,10.4c0.9,0.5,1.9,0.5,2.8-0.1c0.7-0.4,1.2-1.2,1.2-2.1V24.9
		c0-0.4,0.2-0.7,0.5-0.9l18.9-10.3l-3.8-2c-1.6-0.9-3.6-0.9-5.3,0L10.6,25.9c-0.8,0.4-1.5,1-2.1,1.7l-3.4,4.6C3.7,34,3,36.2,3,38.5
		V53.5z"/>
	<path class="st7" d="M27.2,66.2c-0.1,0-0.2,0-0.3-0.1l-13.8-4.9c-0.5-0.2-0.8-0.8-0.6-1.3l0,0l1.8-4.6c0.3-0.9,0.9-1.6,1.7-2
		c1.2-0.5,2.5,0.2,3.6,0.9l0.4,0.2l7.7,4.2c0.3,0.2,0.5,0.5,0.5,0.9v5.6C28.2,65.7,27.8,66.2,27.2,66.2L27.2,66.2z M14.8,59.7
		l11.5,4v-3.6L18.7,56c-0.7-0.4-1.6-0.9-1.9-0.7c-0.2,0.1-0.4,0.4-0.5,0.8L14.8,59.7z"/>
	<path class="st6" d="M22.9,46.4c-0.2,0-0.3,0-0.5-0.1l-7.1-3.9c-0.5-0.3-1.1-0.3-1.6,0s-0.8,0.7-0.8,1.3s-0.4,1-1,1
		c-0.2,0-0.3,0-0.5-0.1L7,42.2c-0.3-0.2-0.5-0.5-0.5-0.9v-4c-0.1-1.1,0.2-2.2,0.8-3.1l2.3-3.6c0,0,0-0.1,0.1-0.1
		c1.2-1.3,3.1-1.7,4.7-0.9l8.8,4.6c0.3,0.2,0.5,0.5,0.5,0.9v10.3C23.9,45.9,23.5,46.4,22.9,46.4L22.9,46.4z M14.6,40.2
		c0.6,0,1.2,0.2,1.7,0.4l5.6,3.1v-8l-8.3-4.3c-0.8-0.4-1.7-0.2-2.3,0.4L9,35.3c0,0,0,0.1-0.1,0.1c-0.3,0.6-0.4,1.2-0.3,1.8v3.4
		l2.7,1.5c0.3-0.6,0.8-1.1,1.4-1.5C13.3,40.3,13.9,40.2,14.6,40.2L14.6,40.2z"/>
	<polygon class="st7" points="81.4,94.4 79.5,88.1 52.6,73.5 49.4,77.1 	"/>
	<path class="st7" d="M81.4,95.4c-0.2,0-0.3,0-0.5-0.1L48.9,78c-0.5-0.3-0.7-0.9-0.4-1.4c0-0.1,0.1-0.1,0.1-0.2l3.2-3.6
		c0.3-0.3,0.8-0.4,1.2-0.2l27,14.7c0.2,0.1,0.4,0.3,0.5,0.6l1.9,6.2c0.2,0.5-0.1,1.1-0.7,1.2C81.6,95.3,81.5,95.4,81.4,95.4z
		 M51,76.8l28.8,15.5l-1-3.5l-26-14L51,76.8z"/>
	<path class="st7" d="M27.2,59.5l-7.7-4.2c-1.6-0.9-3.4-2.1-4.3,0.4l-1.8,4.6l13.8,4.9V59.5z"/>
	<path class="st7" d="M27.2,66.2c-0.1,0-0.2,0-0.3-0.1l-13.8-4.9c-0.5-0.2-0.8-0.8-0.6-1.3l0,0l1.8-4.6c0.3-0.9,0.9-1.6,1.7-2
		c1.2-0.5,2.5,0.2,3.6,0.9l0.4,0.2l7.7,4.2c0.3,0.2,0.5,0.5,0.5,0.9v5.6C28.2,65.7,27.8,66.2,27.2,66.2L27.2,66.2z M14.8,59.7
		l11.5,4v-3.6L18.7,56c-0.7-0.4-1.6-0.9-1.9-0.7c-0.2,0.1-0.4,0.4-0.5,0.8L14.8,59.7z"/>
	<ellipse transform="matrix(0.9012 -0.4334 0.4334 0.9012 -25.4271 15.2369)" class="st6" cx="20.7" cy="63.4" rx="4.5" ry="7.6"/>
	<path class="st7" d="M22.8,71.5c-0.9,0-1.8-0.3-2.6-0.7l0,0c-3.2-1.7-5.7-6.2-5.7-10.2c0-2.2,0.8-3.9,2.2-4.8
		c1.4-0.8,3.1-0.7,4.5,0.2c3.2,1.7,5.7,6.2,5.7,10.2c0,2.2-0.8,3.9-2.2,4.8C24.1,71.3,23.4,71.5,22.8,71.5z M21.2,69
		c0.7,0.5,1.7,0.6,2.5,0.2c0.9-0.7,1.4-1.9,1.2-3.1c0-3.2-2.1-7.1-4.7-8.5c-0.7-0.5-1.7-0.6-2.5-0.2c-0.9,0.7-1.4,1.9-1.2,3.1
		C16.5,63.8,18.6,67.7,21.2,69z"/>
	<ellipse transform="matrix(0.9012 -0.4334 0.4334 0.9012 -32.365 40.0124)" class="st6" cx="71.6" cy="91" rx="4.5" ry="7.6"/>
	<path class="st7" d="M73.7,99.2c-0.9,0-1.8-0.3-2.5-0.7l0,0c-3.2-1.7-5.7-6.2-5.7-10.2c0-2.2,0.8-3.9,2.2-4.8
		c1.4-0.8,3.1-0.7,4.5,0.2c3.2,1.7,5.7,6.2,5.7,10.2c0,2.2-0.8,3.9-2.2,4.8C75,99,74.3,99.2,73.7,99.2z M72.1,96.7
		c0.7,0.5,1.7,0.6,2.5,0.2c0.9-0.7,1.4-1.9,1.2-3.1c0-3.2-2.1-7.1-4.7-8.5c-0.7-0.5-1.7-0.6-2.5-0.2c-0.9,0.7-1.4,1.9-1.2,3.1
		C67.4,91.4,69.5,95.3,72.1,96.7z"/>
	<ellipse transform="matrix(0.9012 -0.4334 0.4334 0.9012 -30.3912 32.8763)" class="st6" cx="56.9" cy="83.1" rx="4.5" ry="7.6"/>
	<path class="st7" d="M59,91.2c-0.9,0-1.8-0.3-2.5-0.7l0,0c-3.2-1.7-5.7-6.2-5.7-10.2c0-2.2,0.8-3.9,2.2-4.8
		c1.4-0.8,3.1-0.7,4.5,0.2c3.2,1.7,5.7,6.2,5.7,10.2c0,2.2-0.8,3.9-2.2,4.8C60.3,91,59.7,91.2,59,91.2z M57.4,88.7
		c0.7,0.5,1.7,0.6,2.5,0.2c0.9-0.7,1.4-1.9,1.2-3.1c0-3.2-2.1-7.1-4.7-8.5c-0.7-0.5-1.7-0.6-2.5-0.2c-0.9,0.7-1.4,1.9-1.2,3.1
		C52.7,83.5,54.8,87.3,57.4,88.7L57.4,88.7z"/>
	<path class="st6" d="M109.9,73.7c-0.2,0-0.3,0-0.5-0.1l-13.6-7.4c-0.5-0.3-0.7-0.9-0.4-1.3c0.3-0.5,0.9-0.7,1.3-0.4l0,0l13.6,7.4
		c0.5,0.3,0.7,0.9,0.4,1.4C110.6,73.5,110.3,73.7,109.9,73.7z"/>
	<path class="st7" d="M90.2,69.7c-0.6,0-1-0.4-1-1c0-0.4,0.2-0.7,0.5-0.9L109.5,57c0.5-0.3,1.1-0.1,1.4,0.4s0.1,1.1-0.4,1.4
		L90.6,69.6C90.5,69.7,90.3,69.7,90.2,69.7z"/>
	<path class="st6" d="M90.3,65.7c-0.6,0-1-0.4-1-1c0-0.4,0.2-0.7,0.5-0.9l19.6-10.6c0.5-0.3,1.1-0.1,1.4,0.4s0.1,1.1-0.4,1.4l0,0
		L90.7,65.5C90.6,65.6,90.4,65.7,90.3,65.7z"/>
	<polygon class="st1" points="106.3,110 126,99.3 110,78 90.2,88.8 	"/>
	<path class="st7" d="M85.3,92.3c-0.2,0-0.3,0-0.5-0.1l-58-31.6c-0.3-0.2-0.5-0.5-0.5-0.9V25.1c0-0.4,0.2-0.7,0.5-0.9L56.5,8
		c0.3-0.2,0.7-0.2,1,0l57.8,31.4c0.3,0.2,0.5,0.5,0.5,0.9v35c0,0.4-0.2,0.7-0.5,0.9l-29.4,16C85.7,92.3,85.5,92.3,85.3,92.3z
		 M28.2,59.1l57.1,31l28.4-15.4V40.9L56.9,10L28.2,25.6V59.1z"/>
	<path class="st7" d="M90.2,89.7c-0.6,0-1-0.4-1-1V61.1c0-0.4,0.2-0.7,0.5-0.9l19.8-10.8c0.5-0.3,1.1-0.1,1.4,0.4
		c0.1,0.1,0.1,0.3,0.1,0.5V78c0,0.4-0.2,0.7-0.5,0.9L90.6,89.6C90.5,89.7,90.3,89.7,90.2,89.7z M91.2,61.7V87l17.8-9.7V52L91.2,61.7
		z"/>
	<path class="st5" d="M93.2,93.3c-0.6,0-1-0.4-1-1c0-0.4,0.2-0.7,0.5-0.9l19.4-10.5c0.5-0.3,1.1-0.1,1.4,0.4s0.1,1.1-0.4,1.4
		L93.7,93.2C93.5,93.3,93.4,93.3,93.2,93.3z"/>
	<path class="st5" d="M96.3,97.9c-0.6,0-1-0.4-1-1c0-0.4,0.2-0.7,0.5-0.9l19.7-10.7c0.5-0.3,1.1-0.1,1.4,0.4s0.1,1.1-0.4,1.4l0,0
		L96.8,97.7C96.6,97.8,96.5,97.9,96.3,97.9z"/>
	<path class="st5" d="M99.7,102.2c-0.6,0-1-0.4-1-1c0-0.4,0.2-0.7,0.5-0.9l19.7-10.7c0.5-0.3,1.1-0.1,1.4,0.4s0.1,1.1-0.4,1.4
		l-19.7,10.7C100,102.2,99.8,102.2,99.7,102.2z"/>
	<path class="st5" d="M103.1,106.6c-0.6,0-1-0.4-1-1c0-0.4,0.2-0.7,0.5-0.9L122.3,94c0.5-0.3,1.1-0.1,1.4,0.4s0.1,1.1-0.4,1.4l0,0
		l-19.7,10.7C103.4,106.6,103.2,106.6,103.1,106.6z"/>
	<path class="st7" d="M106.3,111c-0.3,0-0.6-0.1-0.8-0.4L89.4,89.4c-0.3-0.4-0.3-1.1,0.2-1.4l0.1-0.1l19.9-10.8
		c0.4-0.2,1-0.1,1.3,0.3l16,21.3c0.3,0.4,0.2,1.1-0.2,1.4l-0.1,0.1l-19.7,10.7C106.7,111,106.5,111,106.3,111z M91.7,89.1l15,19.6
		l17.9-9.7l-14.8-19.7L91.7,89.1z"/>
	<polygon class="st5" points="29.1,98.7 18,104.7 18,82.9 	"/>
	<path class="st6" d="M18,105.7c-0.6,0-1-0.4-1-1V82.9c0-0.6,0.4-1,1-1c0.3,0,0.6,0.2,0.8,0.4l11.1,15.8c0.3,0.5,0.2,1.1-0.2,1.4
		c0,0-0.1,0-0.1,0.1l-11.1,6C18.3,105.7,18.1,105.7,18,105.7z M19,86v17l8.6-4.7L19,86z"/>
	<polygon class="st1" points="6.9,98.7 18,104.7 18,82.9 	"/>
	<path class="st6" d="M18,105.7c-0.2,0-0.3,0-0.5-0.1l-11.1-6c-0.5-0.3-0.7-0.9-0.4-1.4c0,0,0-0.1,0.1-0.1l11.1-15.8
		c0.3-0.5,0.9-0.6,1.4-0.2c0.3,0.2,0.4,0.5,0.4,0.8v21.9C19,105.3,18.5,105.7,18,105.7L18,105.7z M8.3,98.3L17,103V86L8.3,98.3z"/>
	<path class="st7" d="M18,105.7c-0.2,0-0.3,0-0.5-0.1l-11.1-6c-0.5-0.3-0.7-0.9-0.4-1.4c0,0,0-0.1,0.1-0.1l11.1-15.8
		c0.4-0.5,1-0.5,1.5-0.2c0.1,0.1,0.1,0.1,0.2,0.2L30,98.1c0.3,0.5,0.2,1.1-0.2,1.4c0,0-0.1,0-0.1,0.1l-11.1,6
		C18.3,105.7,18.1,105.7,18,105.7z M8.3,98.3l9.6,5.2l9.6-5.2L18,84.6L8.3,98.3z"/>
	<rect class="st0" width="128" height="128"/>
</g>
</svg>
