<?xml version="1.0" encoding="utf-8"?>
<!-- Generator: Adobe Illustrator 24.1.0, SVG Export Plug-In . SVG Version: 6.00 Build 0)  -->
<svg version="1.1" id="Layer_1" xmlns="http://www.w3.org/2000/svg" xmlns:xlink="http://www.w3.org/1999/xlink" x="0px" y="0px"
	 viewBox="0 0 128 128" style="enable-background:new 0 0 128 128;" xml:space="preserve">
<style type="text/css">
	.st0{fill:#E9EBDF;}
	.st1{fill:#4D9987;}
	.st2{fill:#FFFFFF;}
	.st3{fill:#0E352C;}
	.st4{fill:#C4D7D3;}
	.st5{fill:#27ae60;}
	.st6{fill:#185849;}
	.st7{fill:none;}
</style>
<g>
	<g>
		<polygon class="st0" points="112.5,92 98,100.4 83.4,92 83.4,75.2 98,66.8 112.5,75.2 		"/>
		<path class="st1" d="M98,101.4c-0.2,0-0.3,0-0.5-0.1L83,92.9c-0.3-0.2-0.5-0.5-0.5-0.9V75.2c0-0.4,0.2-0.7,0.5-0.9l14.5-8.4
			c0.3-0.2,0.7-0.2,1,0l14.5,8.4c0.3,0.2,0.5,0.5,0.5,0.9V92c0,0.4-0.2,0.7-0.5,0.9l-14.5,8.4C98.3,101.4,98.1,101.4,98,101.4z
			 M84.4,91.4L98,99.2l13.5-7.8V75.8L98,68l-13.5,7.8L84.4,91.4L84.4,91.4z"/>
		<polygon class="st2" points="112.5,75.2 98,83.6 83.4,75.2 83.4,75.2 98,66.8 		"/>
		<path class="st1" d="M98,84.6c-0.2,0-0.3,0-0.5-0.1L83,76.1c-0.5-0.3-0.6-0.9-0.4-1.4c0.1-0.2,0.2-0.3,0.4-0.4l14.5-8.4
			c0.3-0.2,0.7-0.2,1,0l14.5,8.4c0.5,0.3,0.6,0.9,0.4,1.4c-0.1,0.2-0.2,0.3-0.4,0.4l-14.5,8.4C98.3,84.6,98.1,84.6,98,84.6z
			 M85.4,75.2L98,82.4l12.5-7.2L98,68L85.4,75.2z"/>
		<polygon class="st0" points="98,83.6 98,100.4 112.5,92 112.5,75.2 		"/>
		<path class="st1" d="M98,101.4c-0.6,0-1-0.4-1-1V83.6c0-0.4,0.2-0.7,0.5-0.9l14.5-8.4c0.5-0.3,1.1-0.1,1.4,0.4
			c0.1,0.2,0.1,0.3,0.1,0.5V92c0,0.4-0.2,0.7-0.5,0.9l-14.5,8.4C98.3,101.4,98.1,101.4,98,101.4z M99,84.2v14.5l12.5-7.2V76.9
			L99,84.2z"/>
		<path class="st3" d="M98,101.4c-0.2,0-0.3,0-0.5-0.1L83,92.9c-0.3-0.2-0.5-0.5-0.5-0.9V75.2c0-0.4,0.2-0.7,0.5-0.9l14.5-8.4
			c0.3-0.2,0.7-0.2,1,0l14.5,8.4c0.3,0.2,0.5,0.5,0.5,0.9V92c0,0.4-0.2,0.7-0.5,0.9l-14.5,8.4C98.3,101.4,98.1,101.4,98,101.4z
			 M84.4,91.4L98,99.2l13.5-7.8V75.8L98,68l-13.5,7.8L84.4,91.4L84.4,91.4z"/>
		<polygon class="st0" points="112.5,52.8 98,61.2 83.4,52.8 83.4,36 98,27.6 112.5,36 		"/>
		<path class="st1" d="M98,62.2c-0.2,0-0.3,0-0.5-0.1L83,53.7c-0.3-0.2-0.5-0.5-0.5-0.9V36c0-0.4,0.2-0.7,0.5-0.9l14.5-8.4
			c0.3-0.2,0.7-0.2,1,0l14.5,8.4c0.3,0.2,0.5,0.5,0.5,0.9v16.8c0,0.4-0.2,0.7-0.5,0.9l-14.5,8.4C98.3,62.1,98.1,62.2,98,62.2z
			 M84.4,52.2L98,60l13.5-7.8V36.6L98,28.8l-13.5,7.8L84.4,52.2L84.4,52.2z"/>
		<polygon class="st2" points="112.5,36 98,44.4 83.4,36 83.4,36 98,27.6 		"/>
		<path class="st1" d="M98,45.4c-0.2,0-0.3,0-0.5-0.1L83,36.9c-0.5-0.3-0.6-0.9-0.4-1.4c0.1-0.2,0.2-0.3,0.4-0.4l14.5-8.4
			c0.3-0.2,0.7-0.2,1,0l14.5,8.4c0.5,0.3,0.6,0.9,0.4,1.4c-0.1,0.2-0.2,0.3-0.4,0.4l-14.5,8.4C98.3,45.4,98.1,45.4,98,45.4z
			 M85.4,36L98,43.2l12.5-7.2L98,28.8L85.4,36z"/>
		<polygon class="st0" points="98,44.4 98,61.2 112.5,52.8 112.5,36 		"/>
		<path class="st1" d="M98,62.2c-0.6,0-1-0.4-1-1V44.4c0-0.4,0.2-0.7,0.5-0.9l14.5-8.4c0.5-0.3,1.1-0.1,1.4,0.4
			c0.1,0.2,0.1,0.3,0.1,0.5v16.8c0,0.4-0.2,0.7-0.5,0.9l-14.5,8.4C98.3,62.1,98.1,62.2,98,62.2z M99,45v14.5l12.5-7.2V37.7L99,45z"
			/>
		<path class="st3" d="M98,62.2c-0.2,0-0.3,0-0.5-0.1L83,53.7c-0.3-0.2-0.5-0.5-0.5-0.9V36c0-0.4,0.2-0.7,0.5-0.9l14.5-8.4
			c0.3-0.2,0.7-0.2,1,0l14.5,8.4c0.3,0.2,0.5,0.5,0.5,0.9v16.8c0,0.4-0.2,0.7-0.5,0.9l-14.5,8.4C98.3,62.1,98.1,62.2,98,62.2z
			 M84.4,52.2L98,60l13.5-7.8V36.6L98,28.8l-13.5,7.8L84.4,52.2L84.4,52.2z"/>
		<polygon class="st0" points="78.5,33.2 64,41.6 49.5,33.2 49.5,16.4 64,8 78.5,16.4 		"/>
		<path class="st1" d="M64,42.6c-0.2,0-0.3,0-0.5-0.1L49,34c-0.3-0.2-0.5-0.5-0.5-0.9V16.4c0-0.4,0.2-0.7,0.5-0.9l14.5-8.4
			c0.3-0.2,0.7-0.2,1,0L79,15.5c0.3,0.2,0.5,0.5,0.5,0.9v16.8c0,0.4-0.2,0.7-0.5,0.9l-14.5,8.4C64.3,42.5,64.2,42.6,64,42.6z
			 M50.5,32.6L64,40.4l13.5-7.8V17L64,9.2L50.5,17V32.6z"/>
		<polygon class="st2" points="78.5,16.4 64,24.8 49.5,16.4 49.5,16.4 64,8 		"/>
		<path class="st1" d="M64,25.8c-0.2,0-0.3,0-0.5-0.1L49,17.3c-0.5-0.3-0.6-0.9-0.4-1.4c0.1-0.2,0.2-0.3,0.4-0.4l14.5-8.4
			c0.3-0.2,0.7-0.2,1,0L79,15.5c0.5,0.3,0.6,0.9,0.4,1.4c-0.1,0.2-0.2,0.3-0.4,0.4l-14.5,8.4C64.3,25.7,64.2,25.8,64,25.8z
			 M51.5,16.4L64,23.6l12.5-7.2L64,9.2L51.5,16.4z"/>
		<polygon class="st0" points="64,24.8 64,41.6 78.5,33.2 78.5,16.4 		"/>
		<path class="st1" d="M64,42.6c-0.6,0-1-0.4-1-1V24.8c0-0.4,0.2-0.7,0.5-0.9L78,15.5c0.5-0.3,1.1-0.1,1.4,0.4
			c0.1,0.2,0.1,0.3,0.1,0.5v16.8c0,0.4-0.2,0.7-0.5,0.9l-14.5,8.4C64.3,42.5,64.2,42.6,64,42.6z M65,25.4v14.5l12.5-7.2V18.1
			L65,25.4z"/>
		<path class="st3" d="M64,42.6c-0.2,0-0.3,0-0.5-0.1L49,34c-0.3-0.2-0.5-0.5-0.5-0.9V16.4c0-0.4,0.2-0.7,0.5-0.9l14.5-8.4
			c0.3-0.2,0.7-0.2,1,0L79,15.5c0.3,0.2,0.5,0.5,0.5,0.9v16.8c0,0.4-0.2,0.7-0.5,0.9l-14.5,8.4C64.3,42.5,64.2,42.6,64,42.6z
			 M50.5,32.6L64,40.4l13.5-7.8V17L64,9.2L50.5,17V32.6z"/>
		<polygon class="st0" points="44.6,52.8 30,61.2 15.5,52.8 15.5,36 30,27.6 44.6,36 		"/>
		<path class="st1" d="M30,62.2c-0.2,0-0.3,0-0.5-0.1L15,53.7c-0.3-0.2-0.5-0.5-0.5-0.9V36c0-0.4,0.2-0.7,0.5-0.9l14.5-8.4
			c0.3-0.2,0.7-0.2,1,0L45,35.1c0.3,0.2,0.5,0.5,0.5,0.9v16.8c0,0.4-0.2,0.7-0.5,0.9l-14.5,8.4C30.4,62.1,30.2,62.2,30,62.2z
			 M16.5,52.2L30,60l13.5-7.8V36.6L30,28.8l-13.5,7.8V52.2z"/>
		<polygon class="st2" points="44.6,36 30,44.4 15.5,36 15.5,36 30,27.6 		"/>
		<path class="st1" d="M30,45.4c-0.2,0-0.3,0-0.5-0.1L15,36.9c-0.5-0.3-0.6-0.9-0.4-1.4c0.1-0.2,0.2-0.3,0.4-0.4l14.5-8.4
			c0.3-0.2,0.7-0.2,1,0L45,35.1c0.5,0.3,0.6,0.9,0.4,1.4c-0.1,0.2-0.2,0.3-0.4,0.4l-14.5,8.4C30.4,45.4,30.2,45.4,30,45.4z M17.5,36
			L30,43.2L42.6,36L30,28.8L17.5,36z"/>
		<polygon class="st0" points="30,44.4 30,61.2 44.6,52.8 44.6,36 		"/>
		<path class="st1" d="M30,62.2c-0.6,0-1-0.4-1-1V44.4c0-0.4,0.2-0.7,0.5-0.9L44,35.1c0.5-0.3,1.1-0.1,1.4,0.4
			c0.1,0.2,0.1,0.3,0.1,0.5v16.8c0,0.4-0.2,0.7-0.5,0.9l-14.5,8.4C30.4,62.1,30.2,62.2,30,62.2z M31,45v14.5l12.5-7.2V37.7L31,45z"
			/>
		<path class="st3" d="M30,62.2c-0.2,0-0.3,0-0.5-0.1L15,53.7c-0.3-0.2-0.5-0.5-0.5-0.9V36c0-0.4,0.2-0.7,0.5-0.9l14.5-8.4
			c0.3-0.2,0.7-0.2,1,0L45,35.1c0.3,0.2,0.5,0.5,0.5,0.9v16.8c0,0.4-0.2,0.7-0.5,0.9l-14.5,8.4C30.4,62.1,30.2,62.2,30,62.2z
			 M16.5,52.2L30,60l13.5-7.8V36.6L30,28.8l-13.5,7.8V52.2z"/>
		<polygon class="st0" points="44.6,92 30,100.4 15.5,92 15.5,75.2 30,66.8 44.6,75.2 		"/>
		<path class="st1" d="M30,101.4c-0.2,0-0.3,0-0.5-0.1L15,92.9c-0.3-0.2-0.5-0.5-0.5-0.9V75.2c0-0.4,0.2-0.7,0.5-0.9l14.5-8.4
			c0.3-0.2,0.7-0.2,1,0L45,74.3c0.3,0.2,0.5,0.5,0.5,0.9V92c0,0.4-0.2,0.7-0.5,0.9l-14.5,8.4C30.4,101.4,30.2,101.4,30,101.4z
			 M16.5,91.4L30,99.2l13.5-7.8V75.8L30,68l-13.5,7.8V91.4z"/>
		<polygon class="st2" points="44.6,75.2 30,83.6 15.5,75.2 15.5,75.2 30,66.8 		"/>
		<path class="st1" d="M30,84.6c-0.2,0-0.3,0-0.5-0.1L15,76.1c-0.5-0.3-0.6-0.9-0.4-1.4c0.1-0.2,0.2-0.3,0.4-0.4l14.5-8.4
			c0.3-0.2,0.7-0.2,1,0L45,74.3c0.5,0.3,0.6,0.9,0.4,1.4c-0.1,0.2-0.2,0.3-0.4,0.4l-14.5,8.4C30.4,84.6,30.2,84.6,30,84.6z
			 M17.5,75.2L30,82.4l12.5-7.2L30,68L17.5,75.2z"/>
		<polygon class="st0" points="30,83.6 30,100.4 44.6,92 44.6,75.2 		"/>
		<path class="st1" d="M30,101.4c-0.6,0-1-0.4-1-1V83.6c0-0.4,0.2-0.7,0.5-0.9L44,74.3c0.5-0.3,1.1-0.1,1.4,0.4
			c0.1,0.2,0.1,0.3,0.1,0.5V92c0,0.4-0.2,0.7-0.5,0.9l-14.5,8.4C30.4,101.4,30.2,101.4,30,101.4z M31,84.2v14.5l12.5-7.2V76.9
			L31,84.2z"/>
		<path class="st3" d="M30,101.4c-0.2,0-0.3,0-0.5-0.1L15,92.9c-0.3-0.2-0.5-0.5-0.5-0.9V75.2c0-0.4,0.2-0.7,0.5-0.9l14.5-8.4
			c0.3-0.2,0.7-0.2,1,0L45,74.3c0.3,0.2,0.5,0.5,0.5,0.9V92c0,0.4-0.2,0.7-0.5,0.9l-14.5,8.4C30.4,101.4,30.2,101.4,30,101.4z
			 M16.5,91.4L30,99.2l13.5-7.8V75.8L30,68l-13.5,7.8V91.4z"/>
		<polygon class="st0" points="78.5,111.6 64,120 49.5,111.6 49.5,94.8 64,86.4 78.5,94.8 		"/>
		<path class="st1" d="M64,121c-0.2,0-0.3,0-0.5-0.1L49,112.5c-0.3-0.2-0.5-0.5-0.5-0.9V94.8c0-0.4,0.2-0.7,0.5-0.9l14.5-8.4
			c0.3-0.2,0.7-0.2,1,0L79,93.9c0.3,0.2,0.5,0.5,0.5,0.9v16.8c0,0.4-0.2,0.7-0.5,0.9l-14.5,8.4C64.3,121,64.2,121,64,121z M50.5,111
			l13.5,7.8l13.5-7.8V95.4L64,87.6l-13.5,7.8V111z"/>
		<polygon class="st2" points="78.5,94.8 64,103.2 49.5,94.8 49.5,94.8 64,86.4 		"/>
		<path class="st1" d="M64,104.2c-0.2,0-0.3,0-0.5-0.1L49,95.7c-0.5-0.3-0.6-0.9-0.4-1.4c0.1-0.2,0.2-0.3,0.4-0.4l14.5-8.4
			c0.3-0.2,0.7-0.2,1,0L79,93.9c0.5,0.3,0.6,0.9,0.4,1.4c-0.1,0.2-0.2,0.3-0.4,0.4l-14.5,8.4C64.3,104.2,64.2,104.2,64,104.2z
			 M51.5,94.8L64,102l12.5-7.2L64,87.6L51.5,94.8z"/>
		<polygon class="st0" points="64,103.2 64,120 78.5,111.6 78.5,94.8 		"/>
		<path class="st1" d="M64,121c-0.6,0-1-0.4-1-1v-16.8c0-0.4,0.2-0.7,0.5-0.9L78,93.9c0.5-0.3,1.1-0.1,1.4,0.4
			c0.1,0.2,0.1,0.3,0.1,0.5v16.8c0,0.4-0.2,0.7-0.5,0.9l-14.5,8.4C64.3,121,64.2,121,64,121z M65,103.8v14.5l12.5-7.2V96.5L65,103.8
			z"/>
		<path class="st3" d="M64,121c-0.2,0-0.3,0-0.5-0.1L49,112.5c-0.3-0.2-0.5-0.5-0.5-0.9V94.8c0-0.4,0.2-0.7,0.5-0.9l14.5-8.4
			c0.3-0.2,0.7-0.2,1,0L79,93.9c0.3,0.2,0.5,0.5,0.5,0.9v16.8c0,0.4-0.2,0.7-0.5,0.9l-14.5,8.4C64.3,121,64.2,121,64,121z M50.5,111
			l13.5,7.8l13.5-7.8V95.4L64,87.6l-13.5,7.8V111z"/>
		<path class="st1" d="M83.4,37c-0.2,0-0.3,0-0.5-0.1l-4.5-2.6c-0.5-0.3-0.6-0.9-0.4-1.4c0.3-0.5,0.9-0.6,1.4-0.4l0,0l4.5,2.6
			c0.5,0.3,0.6,0.9,0.4,1.4C84.1,36.8,83.8,37,83.4,37z"/>
		<path class="st1" d="M78.5,95.8c-0.6,0-1-0.4-1-1c0-0.4,0.2-0.7,0.5-0.9l4.9-2.8c0.5-0.3,1.1-0.1,1.4,0.4s0.1,1.1-0.4,1.4l0,0
			L79,95.7C78.9,95.8,78.7,95.8,78.5,95.8z"/>
		<path class="st1" d="M98,67.8c-0.6,0-1-0.4-1-1v-5.6c0-0.6,0.4-1,1-1s1,0.4,1,1v5.6C99,67.4,98.5,67.8,98,67.8z"/>
		<g>
			<path class="st1" d="M98,84.6c-0.6,0-1-0.5-1-1c0-0.1,0-0.3,0.1-0.4c0.2-0.4,0.7-0.7,1.1-0.6c0.1,0,0.1,0,0.2,0.1
				s0.1,0.1,0.2,0.1s0.1,0.1,0.2,0.1c0.1,0.1,0.2,0.2,0.2,0.3c0.1,0.4,0.1,0.8-0.2,1.1c0,0.1-0.1,0.1-0.2,0.1s-0.1,0.1-0.2,0.1
				s-0.1,0-0.2,0.1C98.1,84.6,98,84.6,98,84.6z"/>
			<path class="st1" d="M97,78c0-0.5,0.4-1,1-1l0,0l0,0c0.6,0,1,0.4,1,1l0,0c0,0.6-0.4,1-1,1l0,0C97.4,79,97,78.6,97,78z M97,72.4
				c0-0.6,0.4-1,1-1l0,0c0.6,0,1,0.4,1,1l0,0c0,0.6-0.4,1-1,1l0,0C97.4,73.4,97,73,97,72.4z"/>
			<path class="st1" d="M98,67.8c-0.5,0-1-0.4-1-1l0,0c0-0.3,0.1-0.5,0.3-0.7c0.2-0.2,0.6-0.3,0.9-0.3c0.1,0,0.1,0,0.2,0.1
				s0.1,0.1,0.2,0.1s0.1,0.1,0.2,0.1c0.2,0.2,0.3,0.4,0.3,0.7c0,0.3-0.1,0.5-0.3,0.7c0,0.1-0.1,0.1-0.2,0.1s-0.1,0.1-0.2,0.1
				s-0.1,0-0.2,0.1C98.1,67.8,98,67.8,98,67.8z"/>
		</g>
		<path class="st1" d="M44.6,37c-0.6,0-1-0.4-1-1c0-0.4,0.2-0.7,0.5-0.9l4.9-2.8c0.5-0.3,1.1-0.1,1.4,0.4c0.3,0.5,0.1,1.1-0.4,1.4
			l-4.9,2.8C44.9,37,44.8,37,44.6,37z"/>
		<path class="st1" d="M49.5,95.8c-0.2,0-0.3,0-0.5-0.1l-4.9-2.8c-0.5-0.3-0.6-0.9-0.4-1.4c0.3-0.5,0.9-0.6,1.4-0.4l4.9,2.8
			c0.5,0.3,0.6,0.9,0.4,1.4C50.1,95.6,49.8,95.8,49.5,95.8z"/>
		<g>
			<path class="st1" d="M44.3,92.9c-0.3,0-0.5-0.1-0.7-0.3c-0.1-0.1-0.2-0.2-0.2-0.3c-0.1-0.2-0.1-0.5,0-0.8
				c0.1-0.1,0.1-0.2,0.2-0.3c0.2-0.2,0.6-0.3,0.9-0.3c0.1,0,0.1,0,0.2,0.1c0.1,0,0.1,0,0.2,0.1c0.1,0,0.1,0.1,0.2,0.1
				c0.3,0.3,0.4,0.7,0.2,1.1c0,0.1-0.1,0.2-0.2,0.3c0,0-0.1,0.1-0.2,0.1c-0.1,0-0.1,0.1-0.2,0.1c-0.1,0-0.1,0-0.2,0.1
				C44.5,92.9,44.4,92.9,44.3,92.9z"/>
			<path class="st1" d="M39.1,90c-0.5-0.3-0.6-0.9-0.4-1.4l0,0c0.3-0.5,0.9-0.6,1.4-0.4l0,0c0.5,0.3,0.6,0.9,0.4,1.4l0,0l0,0
				c-0.2,0.3-0.5,0.5-0.9,0.5l0,0C39.4,90.1,39.2,90.1,39.1,90z M34.3,87.2c-0.5-0.3-0.6-0.9-0.4-1.4l0,0c0.3-0.5,0.9-0.6,1.4-0.4
				l0,0l0,0c0.5,0.3,0.6,0.9,0.4,1.4l0,0c-0.2,0.3-0.5,0.5-0.9,0.5l0,0C34.6,87.4,34.5,87.3,34.3,87.2z"/>
			<path class="st1" d="M30,84.6c-0.3,0-0.5-0.1-0.7-0.3c-0.4-0.4-0.4-1,0-1.4l0,0c0.2-0.2,0.6-0.3,0.9-0.3c0.1,0,0.1,0,0.2,0.1
				s0.1,0.1,0.2,0.1s0.1,0.1,0.1,0.1c0.4,0.4,0.4,1,0,1.4l-0.1,0.1c0,0-0.1,0.1-0.2,0.1s-0.1,0-0.2,0.1C30.2,84.6,30.1,84.6,30,84.6
				z"/>
		</g>
		<path class="st1" d="M30,67.8c-0.6,0-1-0.4-1-1v-5.6c0-0.6,0.4-1,1-1s1,0.4,1,1v5.6C31,67.4,30.6,67.8,30,67.8z"/>
		<polygon class="st4" points="78.5,72.4 64,80.8 49.5,72.4 49.5,55.6 64,47.2 78.5,55.6 		"/>
		<path class="st5" d="M64,81.8c-0.2,0-0.3,0-0.5-0.1L49,73.3c-0.3-0.2-0.5-0.5-0.5-0.9V55.6c0-0.4,0.2-0.7,0.5-0.9l14.5-8.4
			c0.3-0.2,0.7-0.2,1,0L79,54.7c0.3,0.2,0.5,0.5,0.5,0.9v16.8c0,0.4-0.2,0.7-0.5,0.9l-14.5,8.4C64.3,81.7,64.2,81.8,64,81.8z
			 M50.5,71.8L64,79.6l13.5-7.8V56.2L64,48.4l-13.5,7.8V71.8z"/>
		<polygon class="st2" points="78.5,55.6 64,64 49.5,55.6 49.5,55.6 64,47.2 		"/>
		<path class="st5" d="M64,65c-0.2,0-0.3,0-0.5-0.1L49,56.5c-0.5-0.3-0.6-0.9-0.4-1.4c0.1-0.2,0.2-0.3,0.4-0.4l14.5-8.4
			c0.3-0.2,0.7-0.2,1,0L79,54.7c0.5,0.3,0.6,0.9,0.4,1.4c-0.1,0.2-0.2,0.3-0.4,0.4l-14.5,8.4C64.3,65,64.2,65,64,65z M51.5,55.6
			L64,62.8l12.5-7.2L64,48.4L51.5,55.6z"/>
		<polygon class="st4" points="64,64 64,80.8 78.5,72.4 78.5,55.6 		"/>
		<path class="st5" d="M64,81.8c-0.6,0-1-0.4-1-1V64c0-0.4,0.2-0.7,0.5-0.9L78,54.7c0.5-0.3,1.1-0.1,1.4,0.4
			c0.1,0.2,0.1,0.3,0.1,0.5v16.8c0,0.4-0.2,0.7-0.5,0.9l-14.5,8.4C64.3,81.7,64.2,81.8,64,81.8z M65,64.6v14.5l12.5-7.2V57.3
			L65,64.6z"/>
		<path class="st6" d="M64,81.8c-0.2,0-0.3,0-0.5-0.1L49,73.3c-0.3-0.2-0.5-0.5-0.5-0.9V55.6c0-0.4,0.2-0.7,0.5-0.9l14.5-8.4
			c0.3-0.2,0.7-0.2,1,0L79,54.7c0.3,0.2,0.5,0.5,0.5,0.9v16.8c0,0.4-0.2,0.7-0.5,0.9l-14.5,8.4C64.3,81.7,64.2,81.8,64,81.8z
			 M50.5,71.8L64,79.6l13.5-7.8V56.2L64,48.4l-13.5,7.8V71.8z"/>
		<g>
			<path class="st1" d="M30,84.6c-0.3,0-0.5-0.1-0.7-0.3c-0.4-0.4-0.4-1,0-1.4l0,0c0.2-0.2,0.6-0.3,0.9-0.3c0.1,0,0.1,0,0.2,0.1
				s0.1,0.1,0.2,0.1s0.1,0.1,0.1,0.1c0.4,0.4,0.4,1,0,1.4l-0.1,0.1c0,0-0.1,0.1-0.2,0.1s-0.1,0-0.2,0.1C30.2,84.6,30.1,84.6,30,84.6
				z"/>
			<path class="st1" d="M29,78c0-0.6,0.4-1,1-1l0,0c0.5,0,1,0.4,1,1l0,0l0,0c0,0.6-0.4,1-1,1l0,0C29.5,79,29,78.6,29,78z M29,72.4
				c0-0.6,0.4-1,1-1l0,0c0.6,0,1,0.4,1,1l0,0c0,0.6-0.4,1-1,1l0,0C29.5,73.4,29,73,29,72.4z"/>
			<path class="st1" d="M30,67.8c-0.3,0-0.5-0.1-0.7-0.3c-0.2-0.2-0.3-0.4-0.3-0.7c0-0.1,0-0.3,0.1-0.4c0-0.1,0.1-0.2,0.2-0.3
				c0.2-0.2,0.6-0.3,0.9-0.3c0.1,0,0.1,0,0.2,0.1c0.1,0,0.1,0.1,0.2,0.1s0.1,0.1,0.1,0.1c0.1,0.1,0.2,0.2,0.2,0.3
				c0,0.1,0.1,0.2,0.1,0.4c0,0.1,0,0.1,0,0.2s0,0.1,0,0.2s-0.1,0.1-0.1,0.2s-0.1,0.1-0.1,0.2l-0.1,0.1c-0.1,0-0.1,0.1-0.2,0.1
				s-0.1,0-0.2,0.1C30.2,67.8,30.1,67.8,30,67.8z"/>
		</g>
		<g>
			<path class="st1" d="M83.4,93c-0.6,0-1-0.5-1-1c0-0.3,0.1-0.5,0.3-0.7c0.1-0.1,0.2-0.2,0.3-0.2c0.4-0.2,0.8-0.1,1.1,0.2
				c0.4,0.4,0.4,1,0,1.4L84,92.8c-0.1,0-0.1,0.1-0.2,0.1s-0.1,0-0.2,0.1C83.5,93,83.5,93,83.4,93z"/>
			<path class="st1" d="M87.3,89.8c-0.3-0.5-0.1-1.1,0.4-1.4l0,0l0,0c0.5-0.3,1.1-0.1,1.4,0.4l0,0l0,0c0.3,0.5,0.1,1.1-0.4,1.4l0,0
				c-0.2,0.1-0.3,0.1-0.5,0.1l0,0C87.8,90.2,87.5,90.1,87.3,89.8z M92.1,87c-0.3-0.5-0.1-1.1,0.4-1.4l0,0c0.5-0.3,1.1-0.1,1.4,0.4
				l0,0l0,0c0.3,0.5,0.1,1.1-0.3,1.4l0,0l0,0c-0.2,0.1-0.3,0.1-0.5,0.1l0,0C92.6,87.5,92.3,87.3,92.1,87z"/>
			<path class="st1" d="M97.7,84.7c-0.3,0-0.5-0.1-0.7-0.3c-0.1-0.1-0.2-0.2-0.2-0.3c0-0.1-0.1-0.3-0.1-0.4s0-0.3,0.1-0.4
				c0.2-0.5,0.8-0.7,1.3-0.5c0.1,0,0.2,0.1,0.3,0.2c0.1,0.1,0.2,0.2,0.2,0.3c0,0.1,0.1,0.2,0.1,0.4c0,0.1,0,0.3-0.1,0.4
				c0,0.1-0.1,0.2-0.2,0.3c0,0-0.1,0.1-0.2,0.1s-0.1,0.1-0.2,0.1s-0.1,0-0.2,0.1C97.8,84.7,97.8,84.7,97.7,84.7z"/>
		</g>
		<g>
			<path class="st1" d="M64,25.8c-0.1,0-0.3,0-0.4-0.1c-0.1,0-0.2-0.1-0.3-0.2c-0.2-0.2-0.3-0.4-0.3-0.7c0-0.1,0-0.1,0-0.2
				s0-0.1,0.1-0.2c0-0.1,0.1-0.1,0.1-0.2s0.1-0.1,0.1-0.2c0.1-0.1,0.2-0.2,0.3-0.2c0.2-0.1,0.5-0.1,0.8,0c0.1,0.1,0.2,0.1,0.3,0.2
				c0.2,0.2,0.3,0.4,0.3,0.7c0,0.3-0.1,0.5-0.3,0.7c-0.1,0.1-0.2,0.2-0.3,0.2C64.3,25.8,64.1,25.8,64,25.8z"/>
			<path class="st1" d="M73,31.2c-0.5-0.3-0.6-0.9-0.4-1.4l0,0c0.3-0.5,0.9-0.6,1.3-0.4l0,0l0,0c0.5,0.3,0.6,0.9,0.4,1.4l0,0l0,0
				c-0.2,0.3-0.5,0.5-0.9,0.5l0,0C73.4,31.3,73.2,31.2,73,31.2z M68.3,28.4c-0.5-0.3-0.6-0.9-0.4-1.4l0,0l0,0
				c0.3-0.5,0.9-0.6,1.4-0.4l0,0c0.5,0.3,0.6,0.9,0.4,1.3l0,0l0,0c-0.2,0.3-0.5,0.5-0.9,0.5l0,0C68.6,28.5,68.4,28.5,68.3,28.4z"/>
			<path class="st1" d="M78.3,34c-0.6,0-1-0.4-1-1c0-0.1,0-0.3,0.1-0.4c0-0.1,0.1-0.2,0.2-0.3c0.4-0.4,1-0.4,1.4,0
				c0.1,0.1,0.2,0.2,0.2,0.3s0.1,0.2,0.1,0.4C79.3,33.6,78.9,34,78.3,34C78.3,34.1,78.3,34.1,78.3,34z"/>
		</g>
		<g>
			<path class="st1" d="M64,25.8c-0.1,0-0.3,0-0.4-0.1c-0.1,0-0.2-0.1-0.3-0.2c-0.2-0.2-0.3-0.4-0.3-0.7c0-0.1,0-0.1,0-0.2
				s0-0.1,0.1-0.2c0-0.1,0.1-0.1,0.1-0.2s0.1-0.1,0.1-0.2c0.1-0.1,0.2-0.2,0.3-0.2c0.2-0.1,0.5-0.1,0.8,0c0.1,0.1,0.2,0.1,0.3,0.2
				c0.2,0.2,0.3,0.4,0.3,0.7c0,0.3-0.1,0.5-0.3,0.7c-0.1,0.1-0.2,0.2-0.3,0.2C64.3,25.8,64.1,25.8,64,25.8z"/>
			<path class="st1" d="M53.6,30.8c-0.3-0.5-0.1-1.1,0.4-1.4l0,0c0.5-0.3,1.1-0.1,1.4,0.4l0,0l0,0c0.3,0.5,0.1,1.1-0.4,1.4l0,0l0,0
				c-0.1,0.1-0.3,0.1-0.5,0.1l0,0C54.1,31.3,53.8,31.1,53.6,30.8z M58.4,28c-0.3-0.5-0.1-1.1,0.3-1.4l0,0l0,0
				c0.5-0.3,1.1-0.1,1.4,0.4l0,0c0.3,0.5,0.1,1.1-0.4,1.4l0,0c-0.2,0.1-0.3,0.1-0.5,0.1l0,0C58.9,28.5,58.5,28.3,58.4,28z"/>
			<path class="st1" d="M49.7,34c-0.3,0-0.5-0.1-0.7-0.3c-0.1-0.1-0.2-0.2-0.2-0.3c-0.1-0.2-0.1-0.5,0-0.8c0.1-0.1,0.1-0.2,0.2-0.3
				c0.2-0.2,0.6-0.3,0.9-0.3c0.1,0,0.1,0,0.2,0c0.1,0,0.1,0.1,0.2,0.1c0.1,0,0.1,0.1,0.1,0.1c0.1,0.1,0.2,0.2,0.2,0.3
				c0.1,0.2,0.1,0.5,0,0.8c-0.1,0.1-0.1,0.2-0.2,0.3l-0.1,0.1c-0.1,0-0.1,0.1-0.2,0.1C50,34,50,34,49.9,34C49.8,34,49.8,34,49.7,34z
				"/>
		</g>
		<rect x="1" y="1" class="st7" width="126" height="126"/>
	</g>
	<rect class="st7" width="128" height="128"/>
</g>
</svg>
