<?xml version="1.0" encoding="utf-8"?>
<!-- Generator: Adobe Illustrator 24.1.0, SVG Export Plug-In . SVG Version: 6.00 Build 0)  -->
<svg version="1.1" id="Layer_1" xmlns="http://www.w3.org/2000/svg" xmlns:xlink="http://www.w3.org/1999/xlink" x="0px" y="0px"
	 viewBox="0 0 128 128" style="enable-background:new 0 0 128 128;" xml:space="preserve">
<style type="text/css">
	.st0{fill:#C4D7D3;}
	.st1{fill:#FFFFFF;}
	.st2{fill:#27ae60;}
	.st3{fill:#185849;}
	.st4{fill:none;}
	.st5{fill:#4D9987;}
	.st6{fill:#0E352C;}
</style>
<g>
	<polygon class="st0" points="114.5,23.7 114.5,32.6 51.7,68.9 51.7,59.9 	"/>
	<polygon class="st1" points="13.5,37.9 13.5,46.9 51.7,68.9 51.7,59.9 	"/>
	<path class="st1" d="M13.5,37.9L76.3,1.7l38.1,22L52.9,59.2c-0.7,0.4-1.7,0.4-2.4,0L13.5,37.9z"/>
	<path class="st2" d="M51.7,60.4c-0.7,0-1.5-0.2-2.1-0.6L31.1,49.2c-0.5-0.3-0.6-0.9-0.4-1.4c0.1-0.2,0.2-0.3,0.4-0.4L44,40.1
		c0.3-0.2,0.7-0.2,1,0l20.1,11.6c0.5,0.3,0.6,0.9,0.4,1.4c-0.1,0.2-0.2,0.3-0.4,0.4L53.8,60C53.1,60.3,52.4,60.4,51.7,60.4z
		 M33.6,48.4l17,9.8c0.7,0.4,1.5,0.4,2.2,0l9.8-5.6L44.5,42.1L33.6,48.4z"/>
	<path class="st2" d="M31.6,49.4c-0.6,0-1-0.4-1-1c0-0.4,0.2-0.7,0.5-0.9L44,40.1c0.9-0.4,1.5-1.2,1.6-2.1c-0.1-0.9-0.8-1.8-1.6-2.1
		l-12.9-7.4c-0.5-0.3-0.6-0.9-0.4-1.4c0.3-0.5,0.9-0.6,1.4-0.4L45,34.1c1.5,0.7,2.5,2.2,2.6,3.9c-0.1,1.7-1.1,3.2-2.6,3.9l-12.9,7.4
		C31.9,49.3,31.8,49.4,31.6,49.4z"/>
	<ellipse class="st0" cx="75.3" cy="24.3" rx="20.9" ry="12.1"/>
	<path class="st3" d="M75.3,37.4C70,37.5,64.7,36.2,60,33.7l0,0c-4.3-2.5-6.6-5.8-6.6-9.4s2.4-6.9,6.6-9.4c8.4-4.9,22.2-4.9,30.6,0
		c4.3,2.5,6.6,5.8,6.6,9.4s-2.4,6.9-6.6,9.4C85.9,36.2,80.6,37.5,75.3,37.4z M75.3,13.2c-5-0.1-9.9,1.1-14.3,3.4
		c-3.6,2.1-5.6,4.8-5.6,7.7s2,5.6,5.6,7.7l0,0c7.9,4.6,20.7,4.6,28.6,0c3.6-2.1,5.6-4.8,5.6-7.7s-2-5.6-5.6-7.7
		C85.2,14.3,80.2,13.1,75.3,13.2z"/>
	<path class="st1" d="M26,36.5L26,36.5c-0.8-1.7,1.2-3.5,4.3-3.7l33.4-2.7c1.3-0.1,1.7,0.9,0.6,1.2L33,38.6
		C30,39.2,26.8,38.3,26,36.5z"/>
	<path class="st3" d="M31,39.8c-2.7,0-5.1-1.1-5.9-2.8l0,0c-0.4-0.8-0.4-1.8,0.1-2.6c0.8-1.4,2.7-2.3,5-2.5l33.4-2.7
		c1-0.2,2,0.4,2.3,1.4c0.1,0.9-0.6,1.7-1.4,1.8l-31.3,7.3C32.4,39.7,31.7,39.8,31,39.8z M26.9,36.1c0.5,1.1,3.2,2,5.8,1.4l26.2-6.1
		l-28.6,2.3c-1.3,0-2.5,0.5-3.4,1.5C26.8,35.6,26.8,35.9,26.9,36.1L26.9,36.1z"/>
	<ellipse class="st2" cx="31.4" cy="35.7" rx="1.4" ry="0.8"/>
	<ellipse class="st1" cx="75.3" cy="24.3" rx="5.2" ry="3"/>
	<path class="st3" d="M75.3,28.3c-1.5,0-2.9-0.3-4.2-1c-1.2-0.6-1.9-1.7-2-3c0.1-1.3,0.9-2.4,2-3c2.6-1.4,5.7-1.4,8.4,0
		c1.2,0.6,1.9,1.7,2,3c-0.1,1.3-0.9,2.4-2,3C78.2,28,76.7,28.3,75.3,28.3z M75.3,22.3c-1.1,0-2.2,0.2-3.2,0.7c-0.7,0.4-1,0.8-1,1.3
		s0.4,0.9,1,1.3c2,1,4.4,1,6.4,0c0.7-0.4,1-0.8,1-1.3s-0.4-0.9-1-1.3C77.5,22.5,76.4,22.3,75.3,22.3z"/>
	<path class="st2" d="M51.7,60.6c-0.6,0-1.2-0.2-1.7-0.5l-36.3-21c-0.5-0.3-0.6-0.9-0.4-1.4s0.9-0.6,1.4-0.4l0,0l36.3,21
		c0.4,0.3,1,0.3,1.4,0l61-35.2c0.5-0.3,1.1-0.1,1.4,0.4s0.1,1.1-0.4,1.4l0,0l-61,35.2C52.9,60.4,52.3,60.6,51.7,60.6z"/>
	<path class="st3" d="M51.7,69.4c-0.7,0-1.5-0.2-2.1-0.6L13.8,48.2c-0.8-0.5-1.3-1.3-1.3-2.3v-7.1c0-0.9,0.5-1.8,1.3-2.3L74.2,1.7
		c1.3-0.8,2.9-0.8,4.2,0l35.7,20.6c0.8,0.5,1.3,1.3,1.3,2.3v7.1c0,0.9-0.5,1.8-1.3,2.3L53.8,68.8C53.1,69.2,52.4,69.4,51.7,69.4z
		 M76.3,3.2c-0.4,0-0.8,0.1-1.1,0.3l0,0L14.8,38.3c-0.2,0.1-0.3,0.3-0.3,0.5v7.1c0,0.2,0.1,0.4,0.3,0.5L50.5,67
		c0.7,0.4,1.5,0.4,2.2,0l60.4-34.9c0.2-0.1,0.3-0.3,0.3-0.5v-7.1c0-0.2-0.1-0.4-0.3-0.5L77.4,3.5C77.1,3.3,76.7,3.2,76.3,3.2z"/>
	<path class="st4" d="M14.5,102.4l60.6-35c1.1-0.6,2.4-0.6,3.4,0l35.1,20.3c0.8,0.5,1.1,1.5,0.6,2.3c-0.1,0.3-0.4,0.5-0.6,0.6
		l-60.6,35c-1.1,0.6-2.4,0.6-3.4,0l-35.1-20.3c-0.7-0.6-0.6-1.9,0-2.6C14.5,102.7,14.6,102.7,14.5,102.4z"/>
	<path class="st5" d="M51.3,127.1c-0.8,0-1.5-0.2-2.2-0.6l-19-11c-0.5-0.3-0.6-0.9-0.4-1.4c0.1-0.2,0.2-0.3,0.4-0.4l13.3-7.7
		c0.3-0.2,0.7-0.2,1,0l20.7,12c0.5,0.3,0.6,0.9,0.4,1.4c-0.1,0.2-0.2,0.3-0.4,0.4l-11.6,6.7C52.8,126.9,52.1,127.1,51.3,127.1z
		 M32.6,114.7l17.5,10.1c0.7,0.4,1.7,0.4,2.4,0l10.1-5.8l-18.7-10.8L32.6,114.7z"/>
	<path class="st5" d="M51.3,127.1c-0.8,0-1.5-0.2-2.2-0.6L14,106.2c-1.3-0.7-1.7-2.4-1-3.7c0.2-0.4,0.6-0.8,1-1l0,0l60.6-35
		c1.4-0.8,3-0.8,4.4,0l35.1,20.3c1.3,0.7,1.7,2.4,1,3.7c-0.2,0.4-0.6,0.8-1,1l-60.6,35C52.9,126.9,52.1,127.1,51.3,127.1z M15,103.3
		c-0.3,0.2-0.5,0.6-0.3,1c0.1,0.1,0.2,0.2,0.3,0.3l35.1,20.3c0.7,0.4,1.7,0.4,2.4,0l60.6-35c0.3-0.2,0.5-0.6,0.3-1
		c-0.1-0.1-0.2-0.2-0.3-0.3L78,68.3c-0.7-0.4-1.7-0.4-2.4,0L15,103.3z"/>
	<ellipse class="st1" cx="75.7" cy="89.8" rx="5.4" ry="3.1"/>
	<path class="st6" d="M75.7,93.9c-1.5,0-3-0.3-4.3-1c-1.7-0.7-2.5-2.6-1.8-4.3c0.3-0.8,1-1.5,1.8-1.8c2.7-1.4,5.9-1.4,8.6,0
		c1.7,0.7,2.5,2.6,1.8,4.3c-0.3,0.8-1,1.5-1.8,1.8C78.7,93.6,77.2,94,75.7,93.9z M75.7,87.7c-1.1,0-2.3,0.2-3.3,0.8
		c-0.7,0.4-1.1,0.9-1.1,1.3s0.4,0.9,1.1,1.3l0,0c2.1,1,4.5,1,6.6,0c0.7-0.4,1.1-0.9,1.1-1.3s-0.4-0.9-1.1-1.3
		C78,88,76.8,87.7,75.7,87.7z"/>
	<path class="st5" d="M75.7,103.3c-5.5,0.1-10.9-1.2-15.8-3.8c-4.4-2.5-6.8-6-6.8-9.7s2.4-7.2,6.8-9.7c8.7-5,22.9-5,31.6,0
		c4.4,2.5,6.8,6,6.8,9.7s-2.4,7.1-6.8,9.7C86.6,102.1,81.2,103.4,75.7,103.3z M75.7,78.3c-5.2-0.1-10.2,1.1-14.8,3.5
		c-3.8,2.2-5.8,5-5.8,8s2.1,5.8,5.8,8l0,0c8.2,4.7,21.4,4.7,29.6,0c3.8-2.2,5.8-5,5.8-8s-2.1-5.8-5.8-8
		C85.9,79.4,80.8,78.2,75.7,78.3L75.7,78.3z"/>
	<path class="st5" d="M75.7,93.9c-1.5,0-3-0.3-4.3-1c-1.7-0.7-2.5-2.6-1.8-4.3c0.3-0.8,1-1.5,1.8-1.8c2.7-1.4,5.9-1.4,8.6,0
		c1.7,0.7,2.5,2.6,1.8,4.3c-0.3,0.8-1,1.5-1.8,1.8C78.6,93.6,77.2,94,75.7,93.9z M75.7,87.7c-1.1,0-2.3,0.2-3.3,0.8
		c-0.7,0.4-1.1,0.9-1.1,1.3s0.4,0.9,1.1,1.3l0,0c2.1,1,4.5,1,6.6,0c0.7-0.4,1.1-0.9,1.1-1.3s-0.4-0.9-1.1-1.3
		C77.9,88,76.8,87.7,75.7,87.7z"/>
	<path class="st5" d="M30,105.8c-2.7,0-5.3-1.1-6.1-2.9l0,0c-0.4-0.9-0.4-1.9,0.1-2.7c0.8-1.4,2.7-2.4,5.1-2.6l34.5-2.8
		c1-0.2,2.1,0.4,2.3,1.4c0.1,0.9-0.6,1.7-1.5,1.8l0,0l-32.3,7.5C31.5,105.7,30.7,105.8,30,105.8z M59.2,97.2l-29.9,2.5
		c-1.9,0.2-3.1,0.9-3.5,1.6c-0.2,0.3-0.2,0.6,0,0.9l0,0c0.6,1.2,3.3,2.1,6,1.5L59.2,97.2z"/>
	<ellipse class="st5" cx="30.4" cy="101.6" rx="1.5" ry="0.9"/>
	<path class="st3" d="M12.6,96.3c0-0.6,0.4-1,1-1l0,0c0.5,0,1,0.4,1,1l0,0l0,0c0,0.5-0.4,1-1,1l0,0C13.1,97.3,12.6,96.9,12.6,96.3z
		 M12.6,90.3c0-0.6,0.4-1,1-1l0,0c0.5,0,1,0.4,1,1l0,0l0,0c0,0.5-0.4,1-1,1l0,0C13.1,91.3,12.6,90.9,12.6,90.3z M12.6,84.3
		c0-0.6,0.4-1,1-1l0,0c0.5,0,1,0.4,1,1l0,0l0,0c0,0.5-0.4,1-1,1l0,0C13.1,85.3,12.6,84.9,12.6,84.3z M12.6,78.3c0-0.6,0.4-1,1-1l0,0
		c0.5,0,1,0.4,1,1l0,0l0,0c0,0.5-0.4,1-1,1l0,0C13.1,79.3,12.6,78.9,12.6,78.3z M12.6,72.3c0-0.6,0.4-1,1-1l0,0c0.5,0,1,0.4,1,1l0,0
		l0,0c0,0.5-0.4,1-1,1l0,0C13.1,73.3,12.6,72.9,12.6,72.3z M12.6,66.3c0-0.6,0.4-1,1-1l0,0c0.5,0,1,0.4,1,1l0,0l0,0c0,0.5-0.4,1-1,1
		l0,0C13.1,67.3,12.6,66.9,12.6,66.3z M12.6,60.3c0-0.6,0.4-1,1-1l0,0c0.5,0,1,0.4,1,1l0,0l0,0c0,0.5-0.4,1-1,1l0,0
		C13.1,61.3,12.6,60.9,12.6,60.3z M12.6,54.3c0-0.6,0.4-1,1-1l0,0c0.5,0,1,0.4,1,1l0,0l0,0c0,0.5-0.4,1-1,1l0,0
		C13.1,55.3,12.6,54.9,12.6,54.3z"/>
	<path class="st3" d="M113.5,80.9c0-0.6,0.4-1,1-1l0,0l0,0c0.5,0,1,0.4,1,1l0,0l0,0c0,0.6-0.4,1-1,1l0,0l0,0
		C113.9,81.9,113.5,81.5,113.5,80.9z M113.5,74.9c0-0.6,0.4-1,1-1l0,0l0,0c0.6,0,1,0.5,1,1l0,0l0,0c0,0.5-0.4,1-1,1l0,0l0,0
		C113.9,75.9,113.5,75.5,113.5,74.9z M113.5,68.9c0-0.6,0.5-1,1-1l0,0c0.5,0,1,0.4,1,1l0,0l0,0c0,0.5-0.4,1-1,1l0,0l0,0
		C113.9,69.9,113.5,69.5,113.5,68.9L113.5,68.9z M113.5,62.9c0-0.6,0.4-1,1-1l0,0l0,0c0.5,0,1,0.4,1,1l0,0l0,0c0,0.5-0.4,1-1,1l0,0
		l0,0C113.9,63.9,113.5,63.5,113.5,62.9L113.5,62.9z M113.5,56.9c0-0.6,0.4-1,1-1l0,0l0,0c0.5,0,1,0.4,1,1l0,0l0,0c0,0.5-0.4,1-1,1
		l0,0l0,0C113.9,57.9,113.5,57.5,113.5,56.9L113.5,56.9z M113.5,50.9c0-0.6,0.4-1,1-1l0,0l0,0c0.5,0,1,0.4,1,1l0,0l0,0
		c0,0.6-0.4,1-1,1l0,0l0,0C113.9,51.9,113.5,51.5,113.5,50.9z M113.5,44.9c0-0.6,0.4-1,1-1l0,0l0,0c0.6,0,1,0.5,1,1l0,0l0,0
		c0,0.5-0.4,1-1,1l0,0l0,0C113.9,45.9,113.5,45.5,113.5,44.9z M113.5,38.9c0-0.6,0.4-1,1-1l0,0l0,0c0.5,0,1,0.4,1,1l0,0l0,0
		c0,0.5-0.4,1-1,1l0,0l0,0C113.9,39.9,113.5,39.5,113.5,38.9z"/>
	<path class="st5" d="M30.6,115.7c-0.2,0-0.3,0-0.5-0.1L14,106.2c-1.3-0.7-1.7-2.4-1-3.7c0.2-0.4,0.6-0.8,1-1l16.1-9.3
		c0.3-0.2,0.7-0.2,1,0l8.2,4.7c0.5,0.3,0.6,0.9,0.4,1.4c-0.3,0.5-0.9,0.6-1.4,0.4l-7.7-4.4l-15.6,9c-0.3,0.2-0.5,0.6-0.3,1
		c0.1,0.1,0.2,0.2,0.3,0.3l15.6,9l12.8-7.4c0.9-0.4,1.5-1.1,1.7-2.1c0-0.7-0.3-1.4-0.9-1.8c-0.4-0.4-0.4-1-0.1-1.4s1-0.4,1.4-0.1
		c1,0.8,1.6,2.1,1.5,3.5c-0.3,1.6-1.3,2.9-2.7,3.6L31,115.6C30.9,115.6,30.8,115.7,30.6,115.7z"/>
	<rect x="1" y="0.9" class="st4" width="126" height="126"/>
	<rect class="st4" width="128" height="128"/>
</g>
</svg>
