<?xml version="1.0" encoding="utf-8"?>
<!-- Generator: Adobe Illustrator 24.1.0, SVG Export Plug-In . SVG Version: 6.00 Build 0)  -->
<svg version="1.1" id="Layer_1" xmlns="http://www.w3.org/2000/svg" xmlns:xlink="http://www.w3.org/1999/xlink" x="0px" y="0px"
	 viewBox="0 0 128 128" style="enable-background:new 0 0 128 128;" xml:space="preserve">
<style type="text/css">
	.st0{fill:#E9EBDF;}
	.st1{fill:#FFFFFF;}
	.st2{fill:#4D9987;}
	.st3{fill:#0E352C;}
	.st4{fill:#185849;}
	.st5{fill:#C4D7D3;}
	.st6{fill:#27ae60;}
	.st7{fill:none;}
</style>
<g>
	<path class="st0" d="M55.4,35.6l-18-10.4c-0.6-0.3-1.2-0.3-1.8,0l-18,10.4c-0.2,0.1-0.4,0.3-0.4,0.5v6.6c0,0.2,0.2,0.4,0.4,0.5
		l18,10.4c0.6,0.3,1.2,0.3,1.8,0l18-10.4c0.2-0.1,0.4-0.3,0.4-0.5v-6.6C55.8,35.9,55.6,35.7,55.4,35.6z"/>
	<path class="st0" d="M36.5,25c-0.3,0-0.6,0.1-0.9,0.2l-18,10.4c-0.2,0.1-0.4,0.3-0.4,0.5v6.6c0,0.2,0.2,0.4,0.4,0.5l18,10.4
		c0.3,0.1,0.6,0.2,0.9,0.2V25z"/>
	<path class="st1" d="M55.4,35.6l-18-10.4c-0.6-0.3-1.2-0.3-1.8,0l-18,10.4c-0.3,0.1-0.4,0.4-0.3,0.7c0.1,0.2,0.2,0.3,0.3,0.3
		l18,10.4c0.6,0.3,1.2,0.3,1.8,0l18-10.4c0.3-0.1,0.4-0.4,0.3-0.7C55.7,35.8,55.6,35.6,55.4,35.6z"/>
	<path class="st1" d="M55.4,35.6l-18-10.4c-0.6-0.3-1.2-0.3-1.8,0l-18,10.4c-0.3,0.1-0.4,0.4-0.3,0.7c0.1,0.2,0.2,0.3,0.3,0.3
		l18,10.4c0.6,0.3,1.2,0.3,1.8,0l18-10.4c0.3-0.1,0.4-0.4,0.3-0.7C55.7,35.8,55.6,35.6,55.4,35.6z"/>
	<path class="st2" d="M36.5,48.2c-0.5,0-1-0.1-1.4-0.4l-18-10.4c-0.8-0.4-1.1-1.3-0.7-2.1c0.2-0.3,0.4-0.6,0.7-0.7l18-10.4
		c0.9-0.5,1.9-0.5,2.8,0l18,10.4c0.8,0.4,1.1,1.3,0.7,2.1c-0.2,0.3-0.4,0.6-0.7,0.7L38,47.9C37.5,48.1,37,48.2,36.5,48.2z
		 M18.8,36.1l17.4,10c0.3,0.1,0.6,0.1,0.8,0l17.4-10L37,26.1c-0.3-0.1-0.6-0.1-0.8,0L18.8,36.1z"/>
	<path class="st3" d="M36.5,54.9c-0.5,0-1-0.1-1.4-0.4l-18-10.4c-0.5-0.3-0.9-0.8-0.9-1.4v-6.6c0-0.6,0.4-1.1,0.9-1.4l18-10.4
		c0.9-0.5,1.9-0.5,2.8,0l18,10.4c0.5,0.3,0.9,0.8,0.9,1.4v6.6c0,0.6-0.4,1.1-0.9,1.4L38,54.5C37.5,54.8,37,54.9,36.5,54.9z
		 M18.3,42.5l17.9,10.3c0.3,0.1,0.6,0.1,0.8,0l17.9-10.3v-6.1L37,26.1c-0.3-0.1-0.6-0.1-0.8,0L18.3,36.4V42.5z"/>
	<path class="st1" d="M42.8,35.9l-5.9-3.4c-0.2-0.1-0.4-0.1-0.6,0l-5.9,3.4c-0.1,0-0.1,0.1-0.1,0.2c0,0.1,0.1,0.1,0.1,0.1l5.9,3.4
		c0.2,0.1,0.4,0.1,0.6,0l5.9-3.4C42.9,36.2,42.9,36.1,42.8,35.9C42.9,36,42.8,36,42.8,35.9z"/>
	<path class="st0" d="M36.5,40.8c-0.3,0-0.6-0.1-0.8-0.2l-5.9-3.4c-0.6-0.3-0.8-1-0.5-1.6c0.1-0.2,0.3-0.4,0.5-0.5l5.9-3.4
		c0.5-0.3,1.1-0.3,1.6,0l5.9,3.4l0,0c0.6,0.3,0.8,1,0.5,1.6c-0.1,0.2-0.3,0.4-0.5,0.5l-5.9,3.4C37.1,40.7,36.8,40.8,36.5,40.8z
		 M32,36.1l4.5,2.6l4.5-2.6l-4.5-2.6L32,36.1z"/>
	<path class="st0" d="M124.3,75.4l-18-10.4c-0.6-0.3-1.2-0.3-1.8,0l-18,10.4c-0.2,0.1-0.4,0.3-0.4,0.5v6.6c0,0.2,0.2,0.4,0.4,0.5
		l18,10.4c0.6,0.3,1.2,0.3,1.8,0l18-10.4c0.2-0.1,0.4-0.3,0.4-0.5v-6.6C124.6,75.7,124.5,75.5,124.3,75.4z"/>
	<path class="st0" d="M105.4,64.8c-0.3,0-0.6,0.1-0.9,0.2l-18,10.4c-0.2,0.1-0.4,0.3-0.4,0.5v6.6c0,0.2,0.2,0.4,0.4,0.5l18,10.4
		c0.3,0.1,0.6,0.2,0.9,0.2V64.8z"/>
	<path class="st1" d="M124.3,75.4l-18-10.4c-0.6-0.3-1.2-0.3-1.8,0l-18,10.4c-0.3,0.1-0.4,0.4-0.3,0.7c0.1,0.2,0.2,0.3,0.3,0.3
		l18,10.4c0.6,0.3,1.2,0.3,1.8,0l18-10.4c0.3-0.1,0.4-0.4,0.3-0.7C124.6,75.5,124.5,75.4,124.3,75.4z"/>
	<path class="st1" d="M124.3,75.4l-18-10.4c-0.6-0.3-1.2-0.3-1.8,0l-18,10.4c-0.3,0.1-0.4,0.4-0.3,0.7c0.1,0.2,0.2,0.3,0.3,0.3
		l18,10.4c0.6,0.3,1.2,0.3,1.8,0l18-10.4c0.3-0.1,0.4-0.4,0.3-0.7C124.6,75.5,124.5,75.4,124.3,75.4z"/>
	<path class="st2" d="M105.4,88c-0.5,0-1-0.1-1.4-0.4L86,77.3c-0.8-0.4-1.1-1.3-0.7-2.1c0.2-0.3,0.4-0.6,0.7-0.7l18-10.4
		c0.9-0.5,1.9-0.5,2.8,0l18,10.4c0.8,0.4,1.1,1.3,0.7,2.1c-0.2,0.3-0.4,0.6-0.7,0.7l-18,10.4C106.4,87.9,105.9,88,105.4,88z
		 M87.6,75.9l17.4,10c0.3,0.1,0.6,0.1,0.8,0l17.4-10l-17.4-10c-0.3-0.1-0.6-0.1-0.8,0L87.6,75.9z"/>
	<path class="st3" d="M105.4,94.7c-0.5,0-1-0.1-1.4-0.4L86,83.9c-0.5-0.3-0.9-0.8-0.9-1.4v-6.6c0-0.6,0.4-1.1,0.9-1.4l18-10.4
		c0.9-0.5,1.9-0.5,2.8,0l18,10.4c0.5,0.3,0.9,0.8,0.9,1.4v6.6c0,0.6-0.4,1.1-0.9,1.4l-18,10.4C106.4,94.5,105.9,94.7,105.4,94.7z
		 M87.1,82.3L105,92.6c0.3,0.1,0.6,0.1,0.8,0l17.9-10.3v-6.1l-17.9-10.3c-0.3-0.1-0.6-0.1-0.8,0L87.1,76.2V82.3z"/>
	<path class="st4" d="M43.4,80.9c-0.1,0-0.3,0-0.4-0.1c-0.1,0-0.2-0.1-0.3-0.2c-0.2-0.2-0.3-0.4-0.3-0.7c0-0.1,0-0.3,0.1-0.4
		s0.1-0.2,0.2-0.3c0.1-0.1,0.2-0.2,0.3-0.2c0.4-0.1,0.8-0.1,1.1,0.2c0.1,0.1,0.2,0.2,0.2,0.3c0.1,0.1,0.1,0.2,0.1,0.4
		c0,0.3-0.1,0.5-0.3,0.7c-0.1,0.1-0.2,0.2-0.3,0.2S43.6,80.9,43.4,80.9z"/>
	<path class="st4" d="M47.5,77.5c-0.3-0.5-0.1-1.1,0.4-1.4l0,0l0,0c0.5-0.3,1.1-0.1,1.4,0.4l0,0l0,0c0.3,0.5,0.1,1.1-0.4,1.4l0,0
		C48.7,78,48.6,78,48.4,78l0,0C48,78,47.7,77.8,47.5,77.5z M52.5,74.6c-0.3-0.5-0.1-1.1,0.4-1.4l0,0l0,0c0.5-0.3,1.1-0.1,1.4,0.4
		l0,0c0.3,0.5,0.1,1.1-0.4,1.4l0,0c-0.2,0.1-0.3,0.1-0.5,0.1l0,0C53,75.1,52.7,74.9,52.5,74.6z"/>
	<path class="st4" d="M58.3,72.2c-0.5,0-1-0.4-1-1l0,0c0-0.3,0.1-0.5,0.3-0.7c0.4-0.4,1-0.4,1.4,0c0.2,0.2,0.3,0.4,0.3,0.7
		C59.4,71.8,58.9,72.2,58.3,72.2C58.4,72.2,58.4,72.2,58.3,72.2z"/>
	<path class="st5" d="M89.9,55.5l-18-10.4c-0.6-0.3-1.2-0.3-1.8,0l-18,10.4c-0.2,0.1-0.4,0.3-0.4,0.5v6.6c0,0.2,0.2,0.4,0.4,0.5
		l18,10.4c0.6,0.3,1.2,0.3,1.8,0l18-10.4c0.2-0.1,0.4-0.3,0.4-0.5V56C90.2,55.8,90.1,55.6,89.9,55.5z"/>
	<path class="st1" d="M71,44.9c-0.3,0-0.6,0.1-0.9,0.2l-18,10.4c-0.2,0.1-0.4,0.3-0.4,0.5v6.6c0,0.2,0.2,0.4,0.4,0.5l18,10.4
		c0.3,0.1,0.6,0.2,0.9,0.2V44.9z"/>
	<path class="st1" d="M89.9,55.5l-18-10.4c-0.6-0.3-1.2-0.3-1.8,0l-18,10.4c-0.3,0.1-0.4,0.4-0.3,0.7c0.1,0.2,0.2,0.3,0.3,0.3
		l18,10.4c0.6,0.3,1.2,0.3,1.8,0l18-10.4c0.3-0.1,0.4-0.4,0.3-0.7C90.2,55.6,90,55.5,89.9,55.5z"/>
	<path class="st1" d="M89.9,55.5l-18-10.4c-0.6-0.3-1.2-0.3-1.8,0l-18,10.4c-0.3,0.1-0.4,0.4-0.3,0.7c0.1,0.2,0.2,0.3,0.3,0.3
		l18,10.4c0.6,0.3,1.2,0.3,1.8,0l18-10.4c0.3-0.1,0.4-0.4,0.3-0.7C90.2,55.6,90,55.5,89.9,55.5z"/>
	<path class="st6" d="M71,68.1c-0.5,0-1-0.1-1.4-0.4l-18-10.4c-0.8-0.4-1.1-1.3-0.7-2.1c0.2-0.3,0.4-0.6,0.7-0.7l18-10.4
		c0.9-0.5,1.9-0.5,2.8,0l18,10.4c0.8,0.4,1.1,1.3,0.7,2.1c-0.2,0.3-0.4,0.6-0.7,0.7l-18,10.4C72,68,71.5,68.1,71,68.1z M53.2,56
		l17.4,10c0.3,0.1,0.6,0.1,0.8,0l17.4-10L71.4,46c-0.3-0.1-0.6-0.1-0.8,0L53.2,56z"/>
	<path class="st4" d="M71,74.7c-0.5,0-1-0.1-1.4-0.4L51.6,64c-0.5-0.3-0.9-0.8-0.9-1.4V56c0-0.6,0.4-1.1,0.9-1.4l18-10.4
		c0.9-0.5,1.9-0.5,2.8,0l18,10.4l0,0c0.5,0.3,0.9,0.8,0.9,1.4v6.6c0,0.6-0.4,1.1-0.9,1.4l-18,10.4C72,74.6,71.5,74.8,71,74.7z
		 M52.7,62.3l17.9,10.3c0.3,0.1,0.6,0.1,0.8,0l17.9-10.3v-6.1L71.4,45.9c-0.3-0.1-0.6-0.1-0.8,0L52.7,56.3V62.3z"/>
	<path class="st1" d="M111.6,75.7l-5.9-3.4c-0.2-0.1-0.4-0.1-0.6,0l-5.9,3.4c-0.1,0-0.1,0.1-0.1,0.2s0.1,0.1,0.1,0.1l5.9,3.4
		c0.2,0.1,0.4,0.1,0.6,0l5.9-3.4C111.7,76,111.7,75.9,111.6,75.7C111.7,75.8,111.7,75.7,111.6,75.7z"/>
	<path class="st0" d="M105.4,80.6c-0.3,0-0.6-0.1-0.8-0.2L98.7,77c-0.6-0.3-0.8-1-0.5-1.6c0.1-0.2,0.3-0.4,0.5-0.5l5.9-3.4
		c0.5-0.3,1.1-0.3,1.6,0l5.9,3.4l0,0c0.6,0.3,0.8,1,0.5,1.6c-0.1,0.2-0.3,0.4-0.5,0.5l-5.9,3.4C106,80.5,105.7,80.6,105.4,80.6z
		 M100.9,75.9l4.5,2.6l4.5-2.6l-4.5-2.6L100.9,75.9z"/>
	<path class="st6" d="M71,60.2c-0.6,0-1-0.4-1-1v-6.4c0-0.6,0.4-1,1-1s1,0.4,1,1v6.4C72,59.7,71.5,60.2,71,60.2L71,60.2z"/>
	<path class="st6" d="M76.4,57H65.5c-0.6,0-1-0.4-1-1s0.4-1,1-1h10.9c0.6,0,1,0.4,1,1S77,57,76.4,57z"/>
	<path class="st1" d="M50,90.1l-21.8,12.6c-0.8,0.4-1.7,0.4-2.5,0L3.8,90.1c-0.4-0.1-0.6-0.6-0.5-1c0.1-0.2,0.2-0.4,0.5-0.5L25.6,76
		c0.8-0.4,1.7-0.4,2.5,0L50,88.7c0.4,0.1,0.6,0.6,0.5,1C50.4,89.9,50.2,90,50,90.1z"/>
	<path class="st4" d="M26.9,104c-0.6,0-1.2-0.1-1.7-0.4L3.3,91c-0.9-0.4-1.3-1.4-0.9-2.3C2.7,88.3,3,88,3.3,87.8l21.8-12.6
		c1.1-0.6,2.4-0.6,3.5,0l21.8,12.6c0.9,0.4,1.3,1.4,0.9,2.3c-0.2,0.4-0.5,0.7-0.9,0.9l0,0l-21.8,12.6C28.1,103.9,27.5,104,26.9,104z
		 M4.6,89.4l21.6,12.5c0.5,0.2,1,0.2,1.5,0l21.6-12.4L27.6,76.9c-0.5-0.2-1-0.2-1.5,0L4.6,89.4z"/>
	<path class="st5" d="M26.6,102.1c0,0.3,0,0.6,0.1,0.9c0.5,0,1-0.1,1.4-0.3L50,90.1c0.3-0.1,0.5-0.5,0.5-0.8c-0.5,0-1,0-1.5,0
		C36.6,89.2,26.6,95,26.6,102.1z"/>
	<path class="st4" d="M26.9,104c-0.1,0-0.2,0-0.3,0c-0.5,0-0.9-0.4-0.9-0.9c0-0.3-0.1-0.7-0.1-1c0-3.8,2.5-7.3,7-10
		c5-2.7,10.6-4,16.3-3.9c0.5,0,1.1,0,1.6,0s0.8,0.3,0.9,0.8c0.1,0.8-0.3,1.6-1,1.9l-21.8,12.6C28.1,103.9,27.5,104,26.9,104z
		 M47.7,90.2c-4.9,0.1-9.7,1.3-14.1,3.6c-3.8,2.2-5.9,5-6,8L47.7,90.2z"/>
	<ellipse class="st5" cx="24.3" cy="87.8" rx="8.1" ry="4.7"/>
	<path class="st4" d="M24.3,93.5c-2.2,0-4.3-0.5-6.2-1.5c-1.9-1.1-2.9-2.6-2.9-4.2s1-3.1,2.9-4.2c3.9-2,8.6-2,12.5,0
		c1.9,1.1,2.9,2.6,2.9,4.2s-1,3.1-2.9,4.2C28.6,93,26.4,93.5,24.3,93.5z M24.3,84.1c-1.8,0-3.6,0.4-5.2,1.2
		c-1.3,0.4-2.1,1.7-1.8,3.1c0.2,0.9,0.9,1.6,1.8,1.8c3.3,1.6,7.2,1.6,10.5,0c1.3-0.4,2.1-1.7,1.8-3.1c-0.2-0.9-0.9-1.6-1.8-1.8l0,0
		C27.9,84.5,26.1,84.1,24.3,84.1L24.3,84.1z"/>
	<rect x="1" y="1" class="st7" width="126" height="126"/>
	<rect class="st7" width="128" height="128"/>
</g>
</svg>
