<?xml version="1.0" encoding="utf-8"?>
<!-- Generator: Adobe Illustrator 24.1.0, SVG Export Plug-In . SVG Version: 6.00 Build 0)  -->
<svg version="1.1" id="Layer_1" xmlns="http://www.w3.org/2000/svg" xmlns:xlink="http://www.w3.org/1999/xlink" x="0px" y="0px"
	 viewBox="0 0 128 128" style="enable-background:new 0 0 128 128;" xml:space="preserve">
<style type="text/css">
	.st0{fill:#4D9987;}
	.st1{fill:#C4D7D3;}
	.st2{fill:#FFFFFF;}
	.st3{fill:none;}
	.st4{fill:#185849;}
	.st5{fill:#27ae60;}
</style>
<g>
	<path class="st0" d="M34.2,24.9c-0.3,0-0.5-0.1-0.7-0.3c-0.1-0.1-0.2-0.2-0.2-0.3c-0.1-0.2-0.1-0.5,0-0.8c0-0.1,0.1-0.2,0.2-0.3
		c0,0,0.1-0.1,0.2-0.1c0.1,0,0.1-0.1,0.2-0.1c0.1,0,0.1,0,0.2-0.1c0.1,0,0.3,0,0.4,0c0.1,0,0.1,0,0.2,0.1c0.1,0,0.1,0,0.2,0.1
		c0.1,0,0.1,0.1,0.2,0.1c0.1,0.1,0.2,0.2,0.2,0.3c0.2,0.5,0,1.1-0.5,1.3C34.4,24.8,34.3,24.9,34.2,24.9z"/>
	<path class="st0" d="M18.5,91.5c-0.5-0.1-0.9-0.7-0.8-1.2l0,0l0,0c0.1-0.5,0.7-0.9,1.2-0.8l0,0c0.5,0.1,0.9,0.7,0.8,1.2l0,0l0,0
		c-0.1,0.5-0.5,0.8-1,0.8l0,0C18.6,91.5,18.5,91.5,18.5,91.5z M19.9,85.4c-0.5-0.1-0.9-0.7-0.8-1.2l0,0l0,0c0.1-0.5,0.6-0.9,1.2-0.8
		l0,0l0,0c0.5,0.1,0.9,0.7,0.8,1.2l0,0l0,0c-0.1,0.5-0.5,0.8-1,0.8l0,0C20,85.5,19.9,85.5,19.9,85.4z M21.3,79.4
		c-0.5-0.1-0.9-0.7-0.7-1.2l0,0l0,0c0.1-0.5,0.6-0.9,1.2-0.8l0,0l0,0c0.5,0.1,0.9,0.6,0.8,1.2l0,0l0,0c-0.1,0.5-0.5,0.8-1,0.8l0,0
		C21.4,79.4,21.3,79.4,21.3,79.4z M22.7,73.3c-0.5-0.1-0.9-0.7-0.8-1.2l0,0c0.1-0.5,0.7-0.9,1.2-0.8l0,0l0,0
		c0.5,0.1,0.9,0.7,0.8,1.2l0,0l0,0c-0.1,0.5-0.5,0.8-1,0.8l0,0C22.8,73.3,22.8,73.3,22.7,73.3z M24.1,67.3c-0.5-0.1-0.9-0.6-0.8-1.2
		l0,0l0,0c0.1-0.5,0.7-0.9,1.2-0.8l0,0c0.5,0.1,0.9,0.7,0.8,1.2l0,0c-0.1,0.5-0.5,0.8-1,0.8l0,0C24.2,67.3,24.2,67.3,24.1,67.3z
		 M25.5,61.2c-0.5-0.1-0.9-0.7-0.7-1.2l0,0l0,0c0.1-0.5,0.6-0.9,1.2-0.7l0,0l0,0c0.5,0.1,0.9,0.7,0.7,1.2l0,0l0,0
		c-0.1,0.5-0.5,0.8-1,0.8l0,0C25.6,61.2,25.6,61.2,25.5,61.2z M26.9,55.1c-0.5-0.1-0.9-0.7-0.8-1.2l0,0l0,0c0.1-0.5,0.7-0.9,1.2-0.8
		l0,0l0,0c0.5,0.1,0.9,0.7,0.8,1.2l0,0l0,0c-0.1,0.5-0.5,0.8-1,0.8l0,0C27.1,55.2,27,55.1,26.9,55.1z M28.3,49.1
		c-0.5-0.1-0.9-0.7-0.8-1.2l0,0l0,0c0.1-0.5,0.7-0.9,1.2-0.8l0,0l0,0c0.5,0.1,0.9,0.7,0.8,1.2l0,0c-0.1,0.5-0.5,0.8-1,0.8l0,0
		C28.5,49.1,28.4,49.1,28.3,49.1z M29.7,43c-0.5-0.1-0.9-0.7-0.7-1.2l0,0c0.1-0.5,0.7-0.9,1.2-0.8l0,0l0,0c0.5,0.1,0.9,0.7,0.7,1.2
		l0,0c-0.1,0.5-0.5,0.8-1,0.8l0,0C29.9,43,29.8,43,29.7,43z M31.1,37c-0.5-0.1-0.9-0.7-0.8-1.2l0,0c0.1-0.5,0.7-0.9,1.2-0.8l0,0l0,0
		c0.5,0.1,0.9,0.6,0.8,1.2l0,0l0,0c-0.1,0.5-0.5,0.8-1,0.8l0,0C31.3,37,31.2,37,31.1,37z M32.5,30.9c-0.5-0.1-0.9-0.7-0.8-1.2l0,0
		l0,0c0.1-0.5,0.6-0.9,1.2-0.8l0,0l0,0c0.5,0.1,0.9,0.7,0.8,1.2l0,0l0,0c-0.1,0.5-0.5,0.8-1,0.8l0,0C32.7,30.9,32.6,30.9,32.5,30.9z
		"/>
	<path class="st0" d="M17.3,97.6c-0.3,0-0.5-0.1-0.7-0.3c-0.2-0.2-0.3-0.4-0.3-0.7c0-0.1,0-0.1,0-0.2s0-0.1,0.1-0.2
		c0-0.1,0.1-0.1,0.1-0.2l0.1-0.1c0.4-0.4,1-0.4,1.4,0c0.2,0.2,0.3,0.4,0.3,0.7C18.3,97.1,17.8,97.6,17.3,97.6z"/>
	<path class="st0" d="M71.1,42.4c-0.3,0-0.5-0.1-0.7-0.3c-0.4-0.4-0.4-1,0-1.4c0.1-0.1,0.2-0.2,0.3-0.2c0.2-0.1,0.5-0.1,0.8,0
		c0.1,0,0.2,0.1,0.3,0.2c0.2,0.2,0.3,0.4,0.3,0.7s-0.1,0.5-0.3,0.7c-0.1,0.1-0.2,0.2-0.3,0.2C71.3,42.3,71.2,42.4,71.1,42.4z"/>
	<path class="st0" d="M83.8,85.7c-0.2-0.5,0.1-1.1,0.7-1.2l0,0c0.5-0.2,1.1,0.1,1.2,0.6l0,0l0,0c0.2,0.5-0.1,1.1-0.7,1.2l0,0
		c-0.1,0-0.2,0-0.3,0l0,0C84.3,86.4,83.9,86.2,83.8,85.7z M82.1,80.2c-0.2-0.5,0.1-1.1,0.7-1.2l0,0c0.5-0.2,1.1,0.1,1.2,0.7l0,0
		c0.2,0.5-0.1,1.1-0.7,1.3l0,0c-0.1,0-0.2,0-0.3,0l0,0C82.6,80.9,82.2,80.6,82.1,80.2z M80.4,74.7c-0.2-0.5,0.1-1.1,0.6-1.2l0,0l0,0
		c0.5-0.2,1.1,0.1,1.3,0.7l0,0c0.2,0.5-0.1,1.1-0.7,1.3l0,0c-0.1,0-0.2,0-0.3,0l0,0C80.9,75.4,80.5,75.1,80.4,74.7z M78.7,69.2
		c-0.2-0.5,0.1-1.1,0.7-1.2l0,0c0.5-0.2,1.1,0.1,1.2,0.7l0,0c0.2,0.5-0.1,1.1-0.7,1.2l0,0c-0.1,0-0.2,0-0.3,0l0,0
		C79.2,69.9,78.8,69.6,78.7,69.2z M76.9,63.7c-0.2-0.5,0.1-1.1,0.7-1.2l0,0c0.5-0.2,1.1,0.1,1.2,0.7l0,0c0.2,0.5-0.1,1.1-0.7,1.2
		l0,0c-0.1,0-0.2,0-0.3,0l0,0C77.5,64.4,77.1,64.1,76.9,63.7z M75.2,58.2c-0.2-0.5,0.1-1.1,0.6-1.2l0,0l0,0c0.5-0.2,1.1,0.1,1.3,0.7
		l0,0c0.2,0.5-0.1,1.1-0.7,1.2l0,0c-0.1,0-0.2,0-0.3,0l0,0C75.8,58.9,75.4,58.6,75.2,58.2z M73.5,52.7c-0.2-0.5,0.1-1.1,0.7-1.2l0,0
		c0.5-0.2,1.1,0.1,1.2,0.7l0,0c0.2,0.5-0.1,1.1-0.6,1.2l0,0l0,0c-0.1,0-0.2,0-0.3,0l0,0C74,53.4,73.7,53.1,73.5,52.7z M71.8,47.2
		c-0.2-0.5,0.1-1.1,0.7-1.2l0,0c0.5-0.2,1.1,0.1,1.2,0.7l0,0c0.2,0.5-0.1,1.1-0.7,1.2l0,0c-0.1,0-0.2,0-0.3,0l0,0
		C72.3,47.9,71.9,47.6,71.8,47.2z"/>
	<path class="st0" d="M86.5,91.9c-0.3,0-0.5-0.1-0.7-0.3c-0.2-0.2-0.3-0.4-0.3-0.7c0-0.3,0.1-0.5,0.3-0.7c0-0.1,0.1-0.1,0.2-0.1
		s0.1-0.1,0.2-0.1s0.1-0.1,0.2-0.1c0.2,0,0.4,0,0.6,0.1c0.1,0,0.2,0.1,0.3,0.2c0.2,0.2,0.3,0.4,0.3,0.7c0,0.3-0.1,0.5-0.3,0.7
		c-0.1,0.1-0.2,0.2-0.3,0.2C86.7,91.9,86.6,92,86.5,91.9z"/>
	<path class="st0" d="M52.1,114.7c-0.3,0-0.6-0.1-0.8-0.2L18,97.5c-0.1,0-0.1,0-0.2-0.1c-0.5,0.3-1.1,0.1-1.4-0.3
		c-0.3-0.5-0.2-1.1,0.3-1.4c0,0,0,0,0.1,0l35.8-22l0,0c0.6-0.4,1.4-0.4,2.1,0l32.2,16.4c1,0.5,1.3,1.7,0.8,2.7
		c-0.2,0.3-0.4,0.6-0.7,0.8l-34,20.9l0,0C52.8,114.6,52.5,114.7,52.1,114.7z M19.8,96.2l32.3,16.4L86,91.8L53.8,75.4
		c-0.1,0-0.1,0-0.2-0.1L19.8,96.2z"/>
	<polygon class="st0" points="70.1,88.8 59.6,95.3 65,98 75.5,91.5 	"/>
	<path class="st0" d="M52.2,127c-0.4,0-0.8-0.1-1.1-0.3l-33.3-23.8c-1.4-1.1-2.2-2.8-2.2-4.6c-0.1-1,0.3-1.9,1.1-2.5l35.9-22.1l0,0
		l0,0c0.6-0.4,1.4-0.4,2.1,0l32.2,16.4c1,0.5,1.3,1.7,0.8,2.7c-0.2,0.3-0.4,0.6-0.7,0.8l-6.6,4l6.9,4.9l0,0c0.9,0.6,1.1,1.9,0.4,2.8
		c-0.1,0.2-0.3,0.4-0.5,0.5l-14.6,9c-0.1,0.1-0.2,0.2-0.2,0.3c0,0.1,0,0.3,0.1,0.4l0.8,0.7c0.6,0.5,0.8,1.3,0.7,2
		c-0.1,0.8-0.5,1.4-1.1,1.8l-10.4,6.4c-0.7,0.4-1.6,0.5-2.3,0.1l-3.5-1.9c-0.1,0-0.2,0-0.3,0l-3.4,2.1C52.9,126.9,52.5,127,52.2,127
		z M53.7,75.4l-35.8,22c-0.2,0.2-0.2,0.5-0.2,0.8c0,1.2,0.5,2.2,1.4,3L52.2,125l3.3-2c0.7-0.4,1.6-0.5,2.3-0.1l3.5,1.9
		c0.1,0.1,0.2,0,0.3,0l10.4-6.4c0.1-0.1,0.2-0.2,0.2-0.3c0-0.1,0-0.3-0.1-0.4l-0.8-0.7c-0.6-0.5-0.8-1.3-0.7-2
		c0.1-0.8,0.5-1.4,1.1-1.8l14.6-9l-8.1-5.8c-0.4-0.3-0.6-0.9-0.2-1.4c0.1-0.1,0.2-0.2,0.3-0.3l7.9-4.8L53.7,75.4L53.7,75.4z"/>
	<path class="st0" d="M59.6,90.3c-0.6,0-1-0.4-1-1c0-0.3,0.2-0.7,0.5-0.9l4.6-2.8c0.4-0.3,1.1-0.2,1.4,0.2c0.3,0.4,0.2,1.1-0.2,1.4
		l-0.1,0.1l-4.6,2.8C60,90.2,59.8,90.3,59.6,90.3z"/>
	<path class="st1" d="M107.6,60.5c-1,0-1.6-1-1.6-2.5c0-2.2,1-4.3,2.7-5.7c0.3-0.2,0.7-0.3,1.1-0.3c1,0,1.6,1,1.6,2.5
		c0,2.2-1,4.3-2.7,5.7C108.3,60.3,107.9,60.5,107.6,60.5z"/>
	<path class="st2" d="M53.3,14.8h-9.8l-19.2,4.7v8.9l0,0c0,4.3,2.8,8.6,8.5,11.9s13.1,4.9,20.5,4.9"/>
	<path class="st1" d="M53.3,45.3c7.4,0,14.8-1.6,20.5-4.9s8.5-7.6,8.5-11.9l0,0v-8.9l-15.9-4.7H53.3"/>
	<path class="st3" d="M53.3,7.3c-4.9-0.1-9.8,1.1-14.1,3.4c-7.8,4.5-7.8,11.8,0,16.3c4.3,2.3,9.2,3.5,14.1,3.4"/>
	<path class="st3" d="M53.3,30.4c4.9,0.1,9.8-1.1,14.1-3.4c7.8-4.5,7.8-11.8,0-16.3C63,8.3,58.2,7.2,53.3,7.3"/>
	<path class="st2" d="M53.3,2c-7.4,0-14.8,1.6-20.5,4.9C21.4,13.5,21.1,25.5,32.4,32c6.4,3.5,13.6,5.3,20.9,5.3"/>
	<path class="st2" d="M53.3,37.3c7.3,0,14.5-1.8,20.9-5.4c11.3-6.6,10.9-18.5-0.5-25.1C68.1,3.6,60.7,2,53.3,2"/>
	<path class="st2" d="M78.6,38.2l2.4-5.6l-4.1-2.4C76.7,30,76.4,30,76.1,30c-0.5,0-1,0.2-1.4,0.5c-1.3,1-2.3,2.3-2.9,3.8"/>
	<path class="st1" d="M71.8,34.3c-0.5,1.2-0.8,2.5-0.8,3.8c-0.1,1.2,0.3,2.3,1.2,3.1c0,0,0.1,0,0.1,0.1l4,2.3l2.3-5.4"/>
	<ellipse class="st2" cx="53.3" cy="18.8" rx="19.9" ry="11.5"/>
	<path class="st1" d="M53.3,7.3c-4.9-0.1-9.8,1.1-14.1,3.4c-6.1,3.5-7.4,8.7-4,13c1.1-1.4,2.5-2.5,4-3.3c4.3-2.3,9.2-3.5,14.1-3.4"
		/>
	<path class="st2" d="M53.3,16.9c4.9-0.1,9.8,1.1,14.1,3.4c1.5,0.9,2.9,2,4,3.3c3.4-4.3,2.1-9.5-4-13C63,8.3,58.2,7.2,53.3,7.3"/>
	<path class="st2" d="M77,37.8c0.4-1.1,1.2-2.1,2.2-2.9c0.3-0.2,0.7-0.3,1.1-0.3c0.2,0,0.4,0.1,0.6,0.2l0,0l28.6,16.7l0.9,0.5
		l-3.9,2.9L77,37.8z"/>
	<path class="st1" d="M77,37.8c-0.4,0.9-0.6,1.9-0.6,2.9c-0.1,0.9,0.3,1.8,1,2.4l0,0L105,59.2l1.8,1.1l-0.4-5.4L77,37.8z"/>
	<path class="st4" d="M53.3,31.3c-5.1,0.1-10.1-1.1-14.6-3.5c-4.1-2.4-6.3-5.6-6.3-9s2.2-6.7,6.3-9c8-4.7,21.1-4.7,29.2,0
		c4.1,2.4,6.3,5.6,6.3,9s-2.2,6.7-6.3,9C63.4,30.2,58.4,31.4,53.3,31.3z M53.3,8.3c-4.7-0.1-9.4,1-13.6,3.3c-3.4,2-5.3,4.6-5.3,7.3
		s1.9,5.3,5.3,7.3c7.5,4.3,19.7,4.3,27.2,0c3.4-2,5.3-4.6,5.3-7.3s-1.9-5.3-5.3-7.3C62.7,9.3,58,8.2,53.3,8.3z"/>
	<path class="st5" d="M53.3,38.4c-7.6,0-15.2-1.8-21-5.3c-5.6-3.5-8.9-8.4-8.9-13.6c0-0.6,0.4-1,1-1l0,0l0,0c0.5,0,1,0.4,1,1
		c0,4.5,2.9,8.8,8,11.9c11,6.7,29,6.7,40,0c5.4-3.3,8.3-7.9,8-12.5c0-0.6,0.4-1,0.9-1.1c0.6,0,1,0.4,1.1,0.9
		c0.4,5.4-2.9,10.7-8.9,14.4C68.5,36.7,60.9,38.4,53.3,38.4z"/>
	<path class="st4" d="M71.4,24.6c-0.3,0-0.6-0.1-0.8-0.4c-1-1.3-2.3-2.3-3.7-3.1c-7.5-4.3-19.7-4.3-27.2,0l0,0
		C38.3,21.9,37,23,36,24.3c-0.4,0.4-1,0.5-1.5,0.1l-0.1-0.1c-1.6-1.9-2.3-4.4-1.9-6.9c0.6-2.9,2.7-5.5,6.2-7.6
		c8-4.7,21.1-4.7,29.2,0c3.5,2,5.6,4.6,6.2,7.6c0.4,2.5-0.3,5-1.9,6.9C71.9,24.5,71.7,24.6,71.4,24.6z M53.3,15.9
		c5.1-0.1,10.1,1.1,14.6,3.5c1.2,0.7,2.4,1.6,3.4,2.6c0.8-1.3,1.1-2.8,0.8-4.3c-0.4-2.3-2.3-4.5-5.2-6.2c-7.5-4.3-19.7-4.3-27.2,0
		c-2.9,1.7-4.8,3.9-5.2,6.2c-0.3,1.5,0,3,0.8,4.3c1-1,2.2-1.9,3.4-2.6l0,0C43.2,17,48.2,15.8,53.3,15.9z"/>
	<path class="st5" d="M72,41.7c-0.4,0-0.8-0.3-0.9-0.6c-0.3-0.7-0.4-1.5-0.4-2.2c0-3.2,1.8-6.8,4.1-8.2c0.9-0.7,2.1-0.8,3.2-0.3
		l3.6,2.1c0.5,0.3,0.6,0.9,0.4,1.4c-0.3,0.5-0.9,0.6-1.4,0.4L77,32c-0.4-0.1-0.8,0-1.2,0.2c-1.7,1.1-3.2,4-3.2,6.5
		c0,0.5,0.1,1,0.2,1.5c0.2,0.5,0,1.1-0.6,1.3l0,0C72.3,41.7,72.1,41.7,72,41.7z"/>
	<path class="st4" d="M53.3,46.2c-7.6,0-15.3-1.7-21-5c-5.8-3.4-9-7.9-9-12.8v-8.9c0-0.1,0-0.1,0-0.2c-0.2-5,3-9.8,9-13.3
		c11.6-6.7,30.4-6.7,42,0c5.8,3.4,9,8.1,9,13.4v8.9c0,2-0.4,4-1.2,5.8c-0.2,0.5-0.8,0.7-1.3,0.5s-0.7-0.8-0.5-1.3
		c0.6-1.6,0.9-3.3,1-5v-8.9c0-4.6-2.8-8.7-8-11.7c-11-6.4-29-6.4-40,0c-5.4,3.1-8.3,7.4-8,11.6c0,0.1,0,0.2,0,0.3v8.7
		c0,4.1,2.8,8,8,11c10.4,6,27.3,6.4,38.4,0.8c0.3-0.2,0.7-0.1,1.1,0.1l0,0l3.9,2.3c0.1,0,0.1,0.1,0.2,0.1c0.2,0.2,0.5,0.2,0.8,0.1
		c0.5-0.2,1.1,0.1,1.3,0.6s-0.1,1.1-0.6,1.3l0,0c-0.8,0.3-1.7,0.2-2.4-0.2c0,0,0,0-0.1,0l-3.7-2.2C66.2,45,59.8,46.3,53.3,46.2z"/>
	<path class="st5" d="M107.6,61.5c-1.3,0-2.6-1.1-2.6-3.5c0-2.5,1.4-5.4,3.2-6.5c0.5-0.3,1-0.5,1.6-0.5c1.3,0,2.6,1.1,2.6,3.5
		c0,2.5-1.4,5.4-3.2,6.5C108.7,61.3,108.1,61.5,107.6,61.5z M109.8,52.9c-0.2,0-0.4,0.1-0.5,0.2c-1.4,1.2-2.3,3-2.3,4.8
		c0,1,0.3,1.5,0.6,1.5c0.2,0,0.4-0.1,0.5-0.2c1.4-1.2,2.3-3,2.3-4.8C110.4,53.5,110.1,52.9,109.8,52.9z"/>
	<path class="st4" d="M107.6,61.5c-0.4,0-0.8-0.1-1.1-0.3h-0.1L76.9,43.9c0,0-0.1,0-0.1-0.1c-1-0.8-1.5-2-1.4-3.2
		c0-2.6,1.4-5.4,3.2-6.6c0.8-0.6,1.8-0.7,2.7-0.2c0,0,0,0,0.1,0L110.9,51c0,0,0.1,0,0.1,0.1c1,0.8,1.5,2,1.4,3.2
		c0,2.6-1.4,5.4-3.2,6.6C108.7,61.3,108.1,61.5,107.6,61.5z M107.3,59.4c0.1,0,0.1,0.1,0.2,0.1h0.1c0.2,0,0.4-0.1,0.5-0.2
		c1.4-1.2,2.3-3,2.3-4.9c0-0.9-0.2-1.4-0.5-1.5c-0.1,0-0.1-0.1-0.2-0.1L80.4,35.7h-0.1c-0.1-0.1-0.4,0-0.7,0.2
		c-1.4,1.2-2.3,3-2.3,4.9c0,0.9,0.2,1.4,0.5,1.5c0,0,0.1,0,0.1,0.1L107.3,59.4z"/>
	<rect x="1" y="1" class="st3" width="126" height="126"/>
	<rect class="st3" width="128" height="128"/>
</g>
</svg>
