<?xml version="1.0" encoding="utf-8"?>
<!-- Generator: Adobe Illustrator 24.1.0, SVG Export Plug-In . SVG Version: 6.00 Build 0)  -->
<svg version="1.1" id="Layer_1" xmlns="http://www.w3.org/2000/svg" xmlns:xlink="http://www.w3.org/1999/xlink" x="0px" y="0px"
	 viewBox="0 0 128 128" style="enable-background:new 0 0 128 128;" xml:space="preserve">
<style type="text/css">
	.st0{fill:#0E352C;}
	.st1{fill:#E9EBDF;}
	.st2{fill:#4D9987;}
	.st3{fill:#FFFFFF;}
	.st4{fill:#27ae60;}
	.st5{fill:none;}
</style>
<g>
	<path class="st0" d="M22,40.4c-0.3,0-0.5-0.1-0.7-0.3c-0.1-0.1-0.2-0.2-0.2-0.3c-0.1-0.2-0.1-0.5,0-0.8c0-0.1,0.1-0.2,0.2-0.3
		c0.3-0.3,0.7-0.4,1.1-0.2c0.1,0.1,0.2,0.1,0.3,0.2c0.1,0.1,0.2,0.2,0.2,0.3c0.1,0.1,0.1,0.2,0.1,0.4c0,0.3-0.1,0.5-0.3,0.7
		C22.5,40.3,22.3,40.4,22,40.4z"/>
	<path class="st0" d="M21,76.9c0-0.6,0.4-1,1-1l0,0c0.6,0,1,0.4,1,1l0,0c0,0.6-0.4,1-1,1l0,0C21.4,77.9,21,77.5,21,76.9L21,76.9z
		 M21,70.6c0-0.6,0.4-1,1-1l0,0c0.6,0,1,0.4,1,1l0,0c0,0.6-0.4,1-1,1l0,0C21.4,71.6,21,71.2,21,70.6z M21,64.4c0-0.6,0.4-1,1-1l0,0
		c0.6,0,1,0.4,1,1l0,0c0,0.6-0.4,1-1,1l0,0C21.4,65.4,21,64.9,21,64.4z M21,58.1c0-0.5,0.4-1,1-1l0,0l0,0c0.6,0,1,0.4,1,1l0,0
		c0,0.5-0.5,1-1,1l0,0C21.4,59.1,21,58.7,21,58.1L21,58.1z M21,51.9c0-0.6,0.4-1,1-1l0,0c0.6,0,1,0.4,1,1l0,0c0,0.6-0.4,1-1,1l0,0
		C21.4,52.9,21,52.4,21,51.9L21,51.9z M21,45.6c0-0.6,0.4-1,1-1l0,0c0.6,0,1,0.4,1,1l0,0c0,0.6-0.4,1-1,1l0,0
		C21.4,46.6,21,46.2,21,45.6z"/>
	<path class="st0" d="M22,84.1c-0.3,0-0.5-0.1-0.7-0.3c-0.1-0.1-0.2-0.2-0.2-0.3c0-0.1-0.1-0.2-0.1-0.4c0-0.3,0.1-0.5,0.3-0.7
		c0.4-0.4,1-0.4,1.4,0c0.2,0.2,0.3,0.4,0.3,0.7c0,0.3-0.1,0.5-0.3,0.7c-0.1,0.1-0.2,0.2-0.3,0.2C22.3,84.1,22.1,84.1,22,84.1z"/>
	<path class="st0" d="M106,39.6c-0.1,0-0.3,0-0.4-0.1c-0.1,0-0.2-0.1-0.3-0.2c-0.3-0.3-0.4-0.7-0.2-1.1c0-0.1,0.1-0.2,0.2-0.3
		s0.2-0.2,0.3-0.2c0.2-0.1,0.5-0.1,0.8,0c0.1,0.1,0.2,0.1,0.3,0.2c0.1,0.1,0.2,0.2,0.2,0.3c0.1,0.2,0.1,0.5,0,0.8
		c0,0.1-0.1,0.2-0.2,0.3s-0.2,0.2-0.3,0.2C106.3,39.6,106.1,39.6,106,39.6z"/>
	<path class="st0" d="M105,76.8c0-0.6,0.4-1,1-1l0,0c0.6,0,1,0.4,1,1l0,0c0,0.6-0.4,1-1,1l0,0l0,0C105.4,77.8,105,77.3,105,76.8
		L105,76.8z M105,70.4c0-0.6,0.4-1,1-1l0,0c0.6,0,1,0.4,1,1l0,0c0,0.6-0.4,1-1,1l0,0C105.4,71.4,105,71,105,70.4z M105,64.1
		c0-0.6,0.4-1,1-1l0,0c0.6,0,1,0.4,1,1l0,0c0,0.6-0.4,1-1,1l0,0C105.4,65.1,105,64.6,105,64.1z M105,57.7c0-0.5,0.4-1,1-1l0,0l0,0
		c0.5,0,1,0.4,1,1l0,0l0,0c0,0.6-0.4,1-1,1l0,0l0,0C105.4,58.7,105,58.3,105,57.7L105,57.7z M105,51.3c0-0.6,0.4-1,1-1l0,0
		c0.6,0,1,0.4,1,1l0,0c0,0.6-0.4,1-1,1l0,0C105.5,52.3,105,51.9,105,51.3L105,51.3z M105,45c0-0.6,0.4-1,1-1l0,0c0.6,0,1,0.4,1,1
		l0,0c0,0.6-0.4,1-1,1l0,0C105.4,46,105,45.5,105,45z"/>
	<path class="st0" d="M106,84.1c-0.1,0-0.3,0-0.4-0.1c-0.1,0-0.2-0.1-0.3-0.2c-0.2-0.2-0.3-0.4-0.3-0.7c0-0.6,0.4-1,1-1s1,0.4,1,1
		c0,0.1,0,0.3-0.1,0.4c0,0.1-0.1,0.2-0.2,0.3C106.5,84,106.3,84.2,106,84.1z"/>
	<path class="st1" d="M82.6,83.1l-15.2-9.7c-2.1-1.2-4.7-1.2-6.8,0l-15.2,9.7H22v16.2c0.1,0.9,0.6,1.7,1.4,2.2l37.2,23.7
		c2.1,1.2,4.7,1.2,6.8,0l37.2-23.7c0.8-0.4,1.3-1.2,1.4-2.2V83.1H82.6z"/>
	<path class="st1" d="M67.4,125.1l37.2-23.7c0.8-0.4,1.3-1.2,1.4-2.2V83.1H82.6l-15.2-9.7c-1-0.6-2.2-0.9-3.4-0.9V126
		C65.2,126,66.4,125.7,67.4,125.1z"/>
	<path class="st2" d="M47.5,110.3c-0.2,0-0.4-0.1-0.5-0.2l-11-7c-0.5-0.3-0.6-0.9-0.3-1.4s0.9-0.6,1.4-0.3l0,0l11,7
		c0.5,0.3,0.6,0.9,0.3,1.4C48.2,110.1,47.8,110.3,47.5,110.3z"/>
	<path class="st3" d="M104.6,81L67.4,57.3c-2.1-1.2-4.7-1.2-6.8,0L23.4,81c-1.9,1.2-1.9,3.1,0,4.3L60.6,109c2.1,1.2,4.7,1.2,6.8,0
		l37.2-23.7C106.5,84.1,106.5,82.2,104.6,81z"/>
	<path class="st2" d="M64,110.9c-1.4,0-2.7-0.3-3.9-1.1L22.9,86.1c-1.7-0.8-2.3-2.8-1.5-4.5c0.3-0.7,0.9-1.2,1.5-1.5l37.2-23.7
		c2.4-1.4,5.4-1.4,7.9,0l37.2,23.7l0,0c1.7,0.8,2.3,2.8,1.5,4.5c-0.3,0.7-0.9,1.2-1.5,1.5L68,109.8C66.7,110.5,65.4,110.9,64,110.9z
		 M64,57.4c-1,0-2,0.2-2.9,0.7L23.9,81.8c-0.7,0.2-1.1,1-0.9,1.8c0.1,0.4,0.5,0.7,0.9,0.9l37.2,23.7c1.8,1,3.9,1,5.7,0L104,84.5
		c0.7-0.2,1.1-1,0.9-1.8c-0.1-0.4-0.5-0.7-0.9-0.9L66.8,58.2C66,57.7,65,57.4,64,57.4z"/>
	<path class="st2" d="M76.2,120.5c-0.6,0-1-0.4-1-1V112c0-0.3,0.2-0.7,0.5-0.8l19.7-12.5c0.5-0.3,1.1-0.2,1.4,0.3
		c0.1,0.2,0.2,0.3,0.2,0.5v7.5c0,0.3-0.2,0.7-0.5,0.8l-19.7,12.5C76.6,120.4,76.4,120.5,76.2,120.5z M77.2,112.6v5.1l17.7-11.2v-5.1
		L77.2,112.6z"/>
	<path class="st0" d="M64,127c-1.4,0-2.7-0.3-3.9-1l-37.2-23.7c-1.1-0.6-1.8-1.7-1.9-3V83.1c0.1-1.3,0.8-2.4,1.9-3l37.2-23.7
		c2.4-1.4,5.4-1.4,7.9,0l37.2,23.7l0,0c1.1,0.6,1.8,1.7,1.9,3v16.2c-0.1,1.3-0.8,2.4-1.9,3L67.9,126C66.7,126.7,65.4,127,64,127z
		 M64,57.4c-1,0-2,0.2-2.9,0.7L23.9,81.8c-0.5,0.3-0.9,0.7-0.9,1.3v16.2c0.1,0.6,0.4,1.1,0.9,1.3l37.2,23.7c1.8,0.9,3.9,0.9,5.7,0
		l37.2-23.7c0.5-0.2,0.9-0.7,0.9-1.3V83.1c-0.1-0.6-0.4-1.1-0.9-1.3L66.8,58.2C66,57.7,65,57.4,64,57.4z"/>
	<ellipse class="st1" cx="96.4" cy="83.1" rx="1.9" ry="1.2"/>
	<ellipse class="st1" cx="64" cy="103.7" rx="1.9" ry="1.2"/>
	<ellipse class="st1" cx="64" cy="62.5" rx="1.9" ry="1.2"/>
	<ellipse class="st1" cx="31.6" cy="83.1" rx="1.9" ry="1.2"/>
	<path class="st1" d="M105.5,39.7c0.6-0.4,0.7-1.2,0.3-1.7c-0.1-0.1-0.2-0.2-0.2-0.3L66.8,9c-1.3-1.2-2.1-2.9-2.1-4.7
		c-0.1-0.8,0.2-1.5,0.8-2l0,0L22.8,29.4l0,0c-0.6,0.5-0.9,1.3-0.8,2c0,1.8,0.8,3.5,2.1,4.7l39.6,29.4c0.3,0.3,0.8,0.3,1.1,0l4-2.6
		c0.5-0.3,1.1-0.3,1.5,0l4.2,2.3c0.5,0.3,1.1,0.3,1.5,0l12.3-7.9c0.8-0.6,1.1-1.8,0.5-2.6c-0.1-0.1-0.1-0.2-0.2-0.2l-0.9-0.9
		c-0.7-0.7-0.7-1.9,0-2.6c0.1-0.1,0.2-0.1,0.2-0.2L105.5,39.7z"/>
	<path class="st1" d="M64.3,66.8c-0.4,0-0.8-0.1-1.2-0.4L23.5,37c-1.6-1.4-2.5-3.4-2.5-5.5c-0.1-1.1,0.4-2.2,1.2-2.9L64.9,1.3
		C65.4,1,66,1.2,66.3,1.7c0.2,0.4,0.1,1-0.3,1.3c-0.2,0.1-0.4,0.5-0.4,1.2c0,1.5,0.6,2.9,1.7,3.9L106,36.9c1,0.8,1.2,2.2,0.4,3.1
		c-0.1,0.2-0.3,0.4-0.5,0.5L88.6,51.7c-0.2,0.1-0.3,0.3-0.3,0.6s0.1,0.5,0.2,0.7l0.9,0.9c0.6,0.6,0.9,1.5,0.8,2.3s-0.5,1.6-1.2,2.1
		l-12.3,7.9c-0.8,0.5-1.8,0.5-2.6,0.1L69.9,64c-0.2-0.1-0.4-0.1-0.5,0l-4,2.6C65.1,66.7,64.7,66.8,64.3,66.8z M63.7,4.5L23.3,30.3
		c-0.3,0.3-0.4,0.8-0.3,1.2c0,1.5,0.6,2.9,1.7,3.9l39.6,29.4l4-2.6c0.8-0.5,1.8-0.5,2.6-0.1l4.2,2.3c0.2,0.1,0.3,0.1,0.5,0l12.3-7.9
		c0.2-0.1,0.3-0.3,0.3-0.6s-0.1-0.5-0.2-0.7l-0.9-0.9c-0.6-0.6-0.9-1.5-0.8-2.3s0.5-1.6,1.2-2.1l17.4-11.1l0,0c0,0,0.1-0.1,0.1-0.2
		c0-0.1,0-0.1-0.1-0.2L66.2,9.8C64.7,8.4,63.8,6.5,63.7,4.5z"/>
	<path class="st1" d="M105.5,39.7c0.6-0.4,0.7-1.2,0.3-1.7c-0.1-0.1-0.2-0.2-0.2-0.3L66.8,9c-1.3-1.2-2.1-2.9-2.1-4.7
		c-0.1-0.8,0.2-1.5,0.8-2l0,0L22.8,29.4l0,0c-0.6,0.5-0.9,1.3-0.8,2c0,1.8,0.8,3.5,2.1,4.7l39.6,29.4c0.3,0.3,0.8,0.3,1.1,0l4-2.6
		c0.5-0.3,1.1-0.3,1.5,0l4.2,2.3c0.5,0.3,1.1,0.3,1.5,0l12.3-7.9c0.8-0.6,1.1-1.8,0.5-2.6c-0.1-0.1-0.1-0.2-0.2-0.2l-0.9-0.9
		c-0.7-0.7-0.7-1.9,0-2.6c0.1-0.1,0.2-0.1,0.2-0.2L105.5,39.7z"/>
	<path class="st3" d="M64.8,50.4l40.4-25.8c0.6-0.4,0.7-1.2,0.3-1.7c-0.1-0.1-0.2-0.3-0.4-0.4L66.8,2.2c-0.4-0.3-0.9-0.3-1.4,0l0,0
		L22.8,29.4l0,0c0.4-0.3,1-0.2,1.4,0l39.6,21C64.1,50.6,64.5,50.6,64.8,50.4z"/>
	<path class="st2" d="M64.2,51.5c-0.3,0-0.6-0.1-0.9-0.2l-39.6-21l-0.3-0.1l0,0c-0.5,0.3-1.1,0.2-1.4-0.3s-0.2-1.1,0.3-1.4
		c0,0,0.1,0,0.1-0.1L64.9,1.3l0,0c0.7-0.4,1.6-0.4,2.3,0l38.3,20.3c0.7,0.4,1.1,1.1,1.1,1.8c0,0.8-0.3,1.5-1,2L65.3,51.2l0,0
		C65,51.4,64.6,51.5,64.2,51.5z M25.4,29l38.9,20.6l40.4-25.8c0.1,0,0.1-0.1,0.1-0.2s0-0.1-0.1-0.2L66.4,3.1L66.1,3L25.4,29z"/>
	<path class="st0" d="M64.3,66.8c-0.4,0-0.8-0.1-1.2-0.4L23.5,37c-1.6-1.4-2.5-3.4-2.5-5.5c-0.1-1.1,0.4-2.2,1.2-2.9L64.9,1.3l0,0
		c0.7-0.4,1.6-0.4,2.3,0l38.3,20.3c0.7,0.4,1.1,1.1,1.1,1.8c0,0.8-0.3,1.5-1,2l-8.1,5.2l8.5,6.3l0,0c1,0.8,1.2,2.2,0.4,3.1
		c-0.1,0.2-0.3,0.4-0.5,0.5L88.6,51.7c-0.2,0.1-0.3,0.3-0.3,0.6s0.1,0.5,0.2,0.7l0.9,0.9c0.6,0.6,0.9,1.5,0.8,2.3s-0.5,1.6-1.2,2.1
		l-12.3,7.9c-0.8,0.5-1.8,0.5-2.6,0.1L69.9,64c-0.2-0.1-0.4-0.1-0.5,0l-4,2.6C65.1,66.7,64.7,66.8,64.3,66.8z M66,3L23.3,30.3
		c-0.3,0.3-0.4,0.8-0.3,1.2c0,1.5,0.6,2.9,1.7,3.9l39.6,29.4l4-2.6c0.8-0.5,1.8-0.5,2.6-0.1l4.2,2.3c0.2,0.1,0.3,0.1,0.5,0l12.3-7.9
		c0.2-0.1,0.3-0.3,0.3-0.6s-0.1-0.5-0.2-0.7l-0.9-0.9c-0.6-0.6-0.9-1.5-0.8-2.3s0.5-1.6,1.2-2.1l17.4-11.1c0,0,0.1-0.1,0.1-0.2
		c0-0.1,0-0.1-0.1-0.2l-9.7-7.2c-0.4-0.3-0.5-1-0.2-1.4c0.1-0.1,0.2-0.2,0.3-0.2l9.4-6c0.1,0,0.1-0.1,0.1-0.2s0-0.1-0.1-0.2
		L66.4,3.1C66.3,3.1,66.1,3,66,3L66,3L66,3z"/>
	<path class="st4" d="M65.9,32.2c-0.6,0-1-0.4-1-1V20.7c0-0.6,0.4-1,1-1s1,0.4,1,1v10.4C66.9,31.7,66.5,32.2,65.9,32.2z"/>
	<path class="st4" d="M73.9,26.9h-16c-0.6,0-1-0.4-1-1s0.4-1,1-1h16c0.6,0,1,0.4,1,1S74.5,26.9,73.9,26.9z"/>
	<path class="st4" d="M65.9,36.9c-9.1,0-16.5-5-16.5-11.1s7.4-11.1,16.5-11.1s16.5,5,16.5,11.1S75,36.9,65.9,36.9z M65.9,16.7
		c-8,0-14.5,4.1-14.5,9.1s6.5,9.1,14.5,9.1s14.5-4.1,14.5-9.1S73.9,16.7,65.9,16.7z"/>
	<rect x="1" y="1" class="st5" width="126" height="126"/>
	<rect class="st5" width="128" height="128"/>
</g>
</svg>
