<?xml version="1.0" encoding="utf-8"?>
<!-- Generator: Adobe Illustrator 24.1.0, SVG Export Plug-In . SVG Version: 6.00 Build 0)  -->
<svg version="1.1" id="Layer_1" xmlns="http://www.w3.org/2000/svg" xmlns:xlink="http://www.w3.org/1999/xlink" x="0px" y="0px"
	 viewBox="0 0 128 128" style="enable-background:new 0 0 128 128;" xml:space="preserve">
<style type="text/css">
	.st0{fill:#4D9987;}
	.st1{fill:#E9EBDF;}
	.st2{fill:#FFFFFF;}
	.st3{fill:#0E352C;}
	.st4{fill:#C4D7D3;}
	.st5{fill:#27ae60;}
	.st6{fill:#185849;}
	.st7{fill:none;}
</style>
<g>
	<g>
		<path class="st0" d="M64,110.6c-0.6,0-1-0.4-1-1c0-0.4,0.2-0.7,0.5-0.9l34-19.6c0.5-0.3,1.1-0.1,1.4,0.4s0.1,1.1-0.4,1.4l-34,19.6
			C64.3,110.5,64.2,110.6,64,110.6z"/>
		<path class="st0" d="M98,90.9c-0.6,0-1-0.4-1-1V50.6c0-0.6,0.4-1,1-1s1,0.4,1,1v39.3C99,90.5,98.6,90.9,98,90.9z"/>
		<path class="st0" d="M64,110.6c-0.2,0-0.3,0-0.5-0.1l-34-19.6c-0.5-0.3-0.6-0.9-0.4-1.4s0.9-0.6,1.4-0.4l34,19.6
			c0.5,0.3,0.6,0.9,0.4,1.4C64.7,110.4,64.4,110.6,64,110.6z"/>
		<path class="st0" d="M30,90.9c-0.6,0-1-0.4-1-1V50.6c0-0.6,0.4-1,1-1s1,0.4,1,1v39.3C31,90.5,30.5,90.9,30,90.9z"/>
		<path class="st0" d="M64,96.1c-0.6,0-1-0.4-1-1v-8.9c0-0.6,0.4-1,1-1s1,0.4,1,1v8.9C65,95.7,64.6,96.1,64,96.1z"/>
		<path class="st0" d="M49.2,55.8c0-0.6,0.4-1,1-1l0,0c0.6,0,1,0.4,1,1l0,0c0,0.6-0.4,1-1,1l0,0C49.6,56.8,49.2,56.3,49.2,55.8z
			 M49.2,49.8c0-0.6,0.4-1,1-1l0,0c0.6,0,1,0.4,1,1l0,0c0,0.6-0.4,1-1,1l0,0C49.6,50.8,49.2,50.3,49.2,49.8z M49.2,43.8
			c0-0.6,0.4-1,1-1l0,0c0.6,0,1,0.4,1,1l0,0c0,0.6-0.4,1-1,1l0,0C49.6,44.8,49.2,44.3,49.2,43.8z M49.2,37.8c0-0.6,0.4-1,1-1l0,0
			c0.6,0,1,0.4,1,1l0,0c0,0.6-0.4,1-1,1l0,0C49.6,38.8,49.2,38.3,49.2,37.8z M49.2,31.8c0-0.6,0.4-1,1-1l0,0c0.6,0,1,0.4,1,1l0,0
			c0,0.6-0.4,1-1,1l0,0C49.6,32.8,49.2,32.3,49.2,31.8z"/>
		<path class="st0" d="M76.8,55.8c0-0.6,0.4-1,1-1l0,0c0.6,0,1,0.4,1,1l0,0c0,0.6-0.4,1-1,1l0,0C77.3,56.8,76.8,56.3,76.8,55.8z
			 M76.8,49.8c0-0.6,0.4-1,1-1l0,0c0.6,0,1,0.4,1,1l0,0c0,0.6-0.4,1-1,1l0,0C77.3,50.8,76.8,50.3,76.8,49.8z M76.8,43.8
			c0-0.6,0.4-1,1-1l0,0c0.6,0,1,0.4,1,1l0,0c0,0.6-0.4,1-1,1l0,0C77.3,44.8,76.8,44.3,76.8,43.8z M76.8,37.8c0-0.6,0.4-1,1-1l0,0
			c0.6,0,1,0.4,1,1l0,0c0,0.6-0.4,1-1,1l0,0C77.3,38.8,76.8,38.3,76.8,37.8z M76.8,31.8c0-0.6,0.4-1,1-1l0,0c0.6,0,1,0.4,1,1l0,0
			c0,0.6-0.4,1-1,1l0,0C77.3,32.8,76.8,32.3,76.8,31.8z"/>
		<path class="st0" d="M30,90.9c-0.6,0-1-0.4-1-1c0-0.4,0.2-0.7,0.5-0.9l20.2-11.7c0.5-0.3,1.1-0.1,1.4,0.4s0.1,1.1-0.4,1.4
			L30.5,90.8C30.3,90.9,30.2,90.9,30,90.9z"/>
		<path class="st0" d="M50.2,63.3c-0.2,0-0.3,0-0.5-0.1l-6.4-3.7c-0.5-0.3-0.6-0.9-0.4-1.4c0.3-0.5,0.9-0.6,1.4-0.4l0,0l6.4,3.7
			c0.5,0.3,0.6,0.9,0.4,1.4C50.9,63.1,50.5,63.3,50.2,63.3z"/>
		<path class="st0" d="M98,90.9c-0.2,0-0.3,0-0.5-0.1L77.3,79.1c-0.5-0.3-0.6-0.9-0.4-1.4s0.9-0.6,1.4-0.4L98.5,89
			c0.5,0.3,0.6,0.9,0.4,1.4C98.7,90.7,98.4,90.9,98,90.9L98,90.9z"/>
		<polygon class="st1" points="43.8,58.6 30,66.6 16.1,58.6 16.1,42.7 30,34.7 43.8,42.7 		"/>
		<path class="st0" d="M30,67.6c-0.2,0-0.3,0-0.5-0.1l-13.8-8c-0.3-0.2-0.5-0.5-0.5-0.9v-16c0-0.4,0.2-0.7,0.5-0.9l13.8-8
			c0.3-0.2,0.7-0.2,1,0l13.8,8c0.3,0.2,0.5,0.5,0.5,0.9v16c0,0.4-0.2,0.7-0.5,0.9l-13.8,8C30.3,67.6,30.2,67.6,30,67.6z M17.1,58
			L30,65.5L42.8,58V43.2L30,35.8l-12.8,7.4V58H17.1z"/>
		<polygon class="st2" points="43.8,42.7 30,50.6 16.1,42.7 16.1,42.7 30,34.7 		"/>
		<path class="st0" d="M30,51.6c-0.2,0-0.3,0-0.5-0.1l-13.8-8c-0.5-0.3-0.6-0.9-0.4-1.4c0.1-0.2,0.2-0.3,0.4-0.4l13.8-8
			c0.3-0.2,0.7-0.2,1,0l13.8,8c0.5,0.3,0.6,0.9,0.4,1.4c-0.1,0.2-0.2,0.3-0.4,0.4l-13.8,8C30.3,51.6,30.2,51.6,30,51.6z M18.1,42.7
			L30,49.5l11.8-6.8L30,35.8L18.1,42.7z"/>
		<polygon class="st1" points="30,50.6 30,66.6 43.8,58.6 43.8,42.7 		"/>
		<path class="st0" d="M30,67.6c-0.6,0-1-0.4-1-1v-16c0-0.4,0.2-0.7,0.5-0.9l13.8-8c0.5-0.3,1.1-0.1,1.4,0.4
			c0.1,0.2,0.1,0.3,0.1,0.5v16c0,0.4-0.2,0.7-0.5,0.9l-13.8,8C30.3,67.6,30.2,67.6,30,67.6z M31,51.2v13.7L42.8,58V44.4L31,51.2z"/>
		<polygon class="st1" points="43.8,97.9 30,105.9 16.1,97.9 16.1,82 30,74 43.8,82 		"/>
		<path class="st0" d="M30,106.9c-0.2,0-0.3,0-0.5-0.1l-13.8-8c-0.3-0.2-0.5-0.5-0.5-0.9V82c0-0.4,0.2-0.7,0.5-0.9l13.8-8
			c0.3-0.2,0.7-0.2,1,0l13.8,8c0.3,0.2,0.5,0.5,0.5,0.9v16c0,0.4-0.2,0.7-0.5,0.9l-13.8,8C30.3,106.9,30.2,106.9,30,106.9z
			 M17.1,97.3l12.8,7.4l12.8-7.4V82.5L30,75.1l-12.8,7.4v14.8H17.1z"/>
		<polygon class="st2" points="43.8,82 30,89.9 16.1,82 16.1,82 30,74 		"/>
		<path class="st0" d="M30,90.9c-0.2,0-0.3,0-0.5-0.1l-13.8-8c-0.5-0.3-0.6-0.9-0.4-1.4c0.1-0.2,0.2-0.3,0.4-0.4l13.8-8
			c0.3-0.2,0.7-0.2,1,0l13.8,8c0.5,0.3,0.6,0.9,0.4,1.4c-0.1,0.2-0.2,0.3-0.4,0.4l-13.8,8C30.3,90.9,30.2,90.9,30,90.9z M18.1,82
			L30,88.8L41.8,82L30,75.1L18.1,82z"/>
		<polygon class="st1" points="30,89.9 30,105.9 43.8,97.9 43.8,82 		"/>
		<path class="st0" d="M30,106.9c-0.6,0-1-0.4-1-1v-16c0-0.4,0.2-0.7,0.5-0.9l13.8-8c0.5-0.3,1.1-0.1,1.4,0.4
			c0.1,0.2,0.1,0.3,0.1,0.5v16c0,0.4-0.2,0.7-0.5,0.9l-13.8,8C30.3,106.9,30.2,106.9,30,106.9z M31,90.5v13.7l11.8-6.8V83.7L31,90.5
			z"/>
		<polygon class="st1" points="111.9,58.6 98,66.6 84.2,58.6 84.2,42.7 98,34.7 111.9,42.7 		"/>
		<path class="st0" d="M98,67.6c-0.2,0-0.3,0-0.5-0.1l-13.8-8c-0.3-0.2-0.5-0.5-0.5-0.9v-16c0-0.4,0.2-0.7,0.5-0.9l13.8-8
			c0.3-0.2,0.7-0.2,1,0l13.8,8c0.3,0.2,0.5,0.5,0.5,0.9v16c0,0.4-0.2,0.7-0.5,0.9l-13.8,8C98.4,67.6,98.2,67.6,98,67.6z M85.2,58
			L98,65.5l12.8-7.4V43.2L98,35.8l-12.8,7.4V58z"/>
		<polygon class="st2" points="111.9,42.7 98,50.6 84.2,42.7 84.2,42.7 98,34.7 		"/>
		<path class="st0" d="M98,51.6c-0.2,0-0.3,0-0.5-0.1l-13.8-8c-0.5-0.3-0.6-0.9-0.4-1.4c0.1-0.2,0.2-0.3,0.4-0.4l13.8-8
			c0.3-0.2,0.7-0.2,1,0l13.8,8c0.5,0.3,0.6,0.9,0.4,1.4c-0.1,0.2-0.2,0.3-0.4,0.4l-13.8,8C98.4,51.6,98.2,51.6,98,51.6z M86.2,42.7
			L98,49.5l11.8-6.8L98,35.8L86.2,42.7z"/>
		<polygon class="st1" points="98,50.6 98,66.6 111.9,58.6 111.9,42.7 		"/>
		<path class="st0" d="M98,67.6c-0.2,0-0.3,0-0.5-0.1C97.2,67.3,97,67,97,66.6v-16c0-0.4,0.2-0.7,0.5-0.9l13.8-8
			c0.5-0.3,1.1-0.1,1.4,0.4c0.1,0.2,0.1,0.3,0.1,0.5v16c0,0.4-0.2,0.7-0.5,0.9l-13.8,8C98.4,67.6,98.2,67.6,98,67.6z M99,51.2v13.7
			l11.8-6.8V44.4L99,51.2z"/>
		<path class="st3" d="M98,67.6c-0.2,0-0.3,0-0.5-0.1l-13.8-8c-0.3-0.2-0.5-0.5-0.5-0.9v-16c0-0.4,0.2-0.7,0.5-0.9l13.8-8
			c0.3-0.2,0.7-0.2,1,0l13.8,8c0.3,0.2,0.5,0.5,0.5,0.9v16c0,0.4-0.2,0.7-0.5,0.9l-13.8,8C98.4,67.6,98.2,67.6,98,67.6z M85.2,58
			L98,65.5l12.8-7.4V43.2L98,35.8l-12.8,7.4V58z"/>
		<polygon class="st1" points="111.9,97.9 98,105.9 84.2,97.9 84.2,82 98,74 111.9,82 		"/>
		<path class="st0" d="M98,106.9c-0.2,0-0.3,0-0.5-0.1l-13.8-8c-0.3-0.2-0.5-0.5-0.5-0.9V82c0-0.4,0.2-0.7,0.5-0.9l13.8-8
			c0.3-0.2,0.7-0.2,1,0l13.8,8c0.3,0.2,0.5,0.5,0.5,0.9v16c0,0.4-0.2,0.7-0.5,0.9l-13.8,8C98.4,106.9,98.2,106.9,98,106.9z
			 M85.2,97.3l12.8,7.4l12.8-7.4V82.5L98,75.1l-12.8,7.4V97.3z"/>
		<polygon class="st2" points="111.9,82 98,89.9 84.2,82 84.2,82 98,74 		"/>
		<path class="st0" d="M98,90.9c-0.2,0-0.3,0-0.5-0.1l-13.8-8c-0.5-0.3-0.6-0.9-0.4-1.4c0.1-0.2,0.2-0.3,0.4-0.4l13.8-8
			c0.3-0.2,0.7-0.2,1,0l13.8,8c0.5,0.3,0.6,0.9,0.4,1.4c-0.1,0.2-0.2,0.3-0.4,0.4l-13.8,8C98.4,90.9,98.2,90.9,98,90.9z M86.2,82
			L98,88.8l11.8-6.8L98,75.1L86.2,82z"/>
		<polygon class="st1" points="98,89.9 98,105.9 111.9,97.9 111.9,82 		"/>
		<path class="st0" d="M98,106.9c-0.6,0-1-0.4-1-1v-16c0-0.4,0.2-0.7,0.5-0.9l13.8-8c0.5-0.3,1.1-0.1,1.4,0.4
			c0.1,0.2,0.1,0.3,0.1,0.5v16c0,0.4-0.2,0.7-0.5,0.9l-13.8,8C98.4,106.9,98.2,106.9,98,106.9z M99,90.5v13.7l11.8-6.8V83.7L99,90.5
			z"/>
		<polygon class="st1" points="77.8,117.6 64,125.5 50.2,117.6 50.2,101.6 64,93.6 77.8,101.6 		"/>
		<path class="st0" d="M64,126.5c-0.2,0-0.3,0-0.5-0.1l-13.8-8c-0.3-0.2-0.5-0.5-0.5-0.9v-16c0-0.4,0.2-0.7,0.5-0.9l13.8-8
			c0.3-0.2,0.7-0.2,1,0l13.8,8c0.3,0.2,0.5,0.5,0.5,0.9v16c0,0.4-0.2,0.7-0.5,0.9l-13.8,8C64.3,126.5,64.2,126.5,64,126.5z
			 M51.2,117l12.8,7.4l12.8-7.4v-14.8L64,94.8l-12.8,7.4V117z"/>
		<polygon class="st2" points="77.8,101.6 64,109.6 50.2,101.6 50.2,101.6 64,93.6 		"/>
		<path class="st0" d="M64,110.6c-0.2,0-0.3,0-0.5-0.1l-13.8-8c-0.5-0.3-0.6-0.9-0.4-1.4c0.1-0.2,0.2-0.3,0.4-0.4l13.8-8
			c0.3-0.2,0.7-0.2,1,0l13.8,8c0.5,0.3,0.6,0.9,0.4,1.4c-0.1,0.2-0.2,0.3-0.4,0.4l-13.8,8C64.3,110.5,64.2,110.6,64,110.6z
			 M52.2,101.6l11.8,6.8l11.8-6.8L64,94.8L52.2,101.6z"/>
		<polygon class="st1" points="64,109.6 64,125.5 77.8,117.6 77.8,101.6 		"/>
		<path class="st0" d="M64,126.5c-0.6,0-1-0.4-1-1v-16c0-0.4,0.2-0.7,0.5-0.9l13.8-8c0.5-0.3,1.1-0.1,1.4,0.4
			c0.1,0.2,0.1,0.3,0.1,0.5v16c0,0.4-0.2,0.7-0.5,0.9l-13.8,8C64.3,126.5,64.2,126.5,64,126.5z M65,110.2v13.7l11.8-6.8v-13.7
			L65,110.2z"/>
		<path class="st0" d="M64,87.3c-0.2,0-0.3,0-0.5-0.1l-13.8-8c-0.3-0.2-0.5-0.5-0.5-0.9v-16c0-0.4,0.2-0.7,0.5-0.9l13.8-8
			c0.3-0.2,0.7-0.2,1,0l13.8,8c0.3,0.2,0.5,0.5,0.5,0.9v16c0,0.4-0.2,0.7-0.5,0.9l-13.8,8C64.3,87.2,64.2,87.3,64,87.3z M51.2,77.7
			L64,85.1l12.8-7.4V62.9L64,55.5l-12.8,7.4V77.7z"/>
		<path class="st0" d="M64,71.3c-0.2,0-0.3,0-0.5-0.1l-13.8-8c-0.5-0.3-0.6-0.9-0.4-1.4c0.1-0.2,0.2-0.3,0.4-0.4l13.8-8
			c0.3-0.2,0.7-0.2,1,0l13.8,8c0.5,0.3,0.6,0.9,0.4,1.4c-0.1,0.2-0.2,0.3-0.4,0.4l-13.8,8C64.3,71.2,64.2,71.3,64,71.3z M52.2,62.3
			L64,69.1l11.8-6.8L64,55.5L52.2,62.3z"/>
		<path class="st0" d="M64,87.3c-0.6,0-1-0.4-1-1v-16c0-0.4,0.2-0.7,0.5-0.9l13.8-8c0.5-0.3,1.1-0.1,1.4,0.4
			c0.1,0.2,0.1,0.3,0.1,0.5v16c0,0.4-0.2,0.7-0.5,0.9l-13.8,8C64.3,87.2,64.2,87.3,64,87.3z M65,70.9v13.7l11.8-6.8V64L65,70.9z"/>
		<polygon class="st4" points="77.8,26.4 64,34.4 50.2,26.4 50.2,10.4 64,2.5 77.8,10.4 		"/>
		<path class="st5" d="M64,35.4c-0.2,0-0.3,0-0.5-0.1l-13.8-8c-0.3-0.2-0.5-0.5-0.5-0.9v-16c0-0.4,0.2-0.7,0.5-0.9l13.8-8
			c0.3-0.2,0.7-0.2,1,0l13.8,8c0.3,0.2,0.5,0.5,0.5,0.9v16c0,0.4-0.2,0.7-0.5,0.9l-13.8,8C64.3,35.4,64.2,35.4,64,35.4z M51.2,25.8
			L64,33.2l12.8-7.4V11L64,3.6L51.2,11V25.8z"/>
		<polygon class="st2" points="77.8,10.4 64,18.4 50.2,10.4 50.2,10.4 64,2.5 		"/>
		<path class="st5" d="M64,19.4c-0.2,0-0.3,0-0.5-0.1l-13.8-8c-0.5-0.3-0.6-0.9-0.4-1.4c0.1-0.2,0.2-0.3,0.4-0.4l13.8-8
			c0.3-0.2,0.7-0.2,1,0l13.8,8c0.5,0.3,0.6,0.9,0.4,1.4c-0.1,0.2-0.2,0.3-0.4,0.4l-13.8,8C64.3,19.4,64.2,19.4,64,19.4z M52.2,10.4
			L64,17.3l11.8-6.8L64,3.6L52.2,10.4z"/>
		<polygon class="st4" points="64,18.4 64,34.4 77.8,26.4 77.8,10.4 		"/>
		<path class="st5" d="M64,35.4c-0.6,0-1-0.4-1-1v-16c0-0.4,0.2-0.7,0.5-0.9l13.8-8c0.5-0.3,1.1-0.1,1.4,0.4
			c0.1,0.2,0.1,0.3,0.1,0.5v16c0,0.4-0.2,0.7-0.5,0.9l-13.8,8C64.3,35.4,64.2,35.4,64,35.4z M65,19v13.7l11.8-6.8V12.2L65,19z"/>
		<path class="st6" d="M64,35.4c-0.2,0-0.3,0-0.5-0.1l-13.8-8c-0.3-0.2-0.5-0.5-0.5-0.9v-16c0-0.4,0.2-0.7,0.5-0.9l13.8-8
			c0.3-0.2,0.7-0.2,1,0l13.8,8c0.3,0.2,0.5,0.5,0.5,0.9v16c0,0.4-0.2,0.7-0.5,0.9l-13.8,8C64.3,35.4,64.2,35.4,64,35.4z M51.2,25.8
			L64,33.2l12.8-7.4V11L64,3.6L51.2,11V25.8z"/>
		<path class="st3" d="M98,106.9c-0.2,0-0.3,0-0.5-0.1l-13.8-8c-0.3-0.2-0.5-0.5-0.5-0.9V82c0-0.4,0.2-0.7,0.5-0.9l13.8-8
			c0.3-0.2,0.7-0.2,1,0l13.8,8c0.3,0.2,0.5,0.5,0.5,0.9v16c0,0.4-0.2,0.7-0.5,0.9l-13.8,8C98.4,106.9,98.2,106.9,98,106.9z
			 M85.2,97.3l12.8,7.4l12.8-7.4V82.5L98,75.1l-12.8,7.4V97.3z"/>
		<path class="st3" d="M30,67.6c-0.2,0-0.3,0-0.5-0.1l-13.8-8c-0.3-0.2-0.5-0.5-0.5-0.9v-16c0-0.4,0.2-0.7,0.5-0.9l13.8-8
			c0.3-0.2,0.7-0.2,1,0l13.8,8c0.3,0.2,0.5,0.5,0.5,0.9v16c0,0.4-0.2,0.7-0.5,0.9l-13.8,8C30.3,67.6,30.2,67.6,30,67.6z M17.1,58
			L30,65.5L42.8,58V43.2L30,35.8l-12.8,7.4V58H17.1z"/>
		<path class="st3" d="M30,106.9c-0.2,0-0.3,0-0.5-0.1l-13.8-8c-0.3-0.2-0.5-0.5-0.5-0.9V82c0-0.4,0.2-0.7,0.5-0.9l13.8-8
			c0.3-0.2,0.7-0.2,1,0l13.8,8c0.3,0.2,0.5,0.5,0.5,0.9v16c0,0.4-0.2,0.7-0.5,0.9l-13.8,8C30.3,106.9,30.2,106.9,30,106.9z
			 M17.1,97.3l12.8,7.4l12.8-7.4V82.5L30,75.1l-12.8,7.4v14.8H17.1z"/>
		<path class="st3" d="M64,126.5c-0.2,0-0.3,0-0.5-0.1l-13.8-8c-0.3-0.2-0.5-0.5-0.5-0.9v-16c0-0.4,0.2-0.7,0.5-0.9l13.8-8
			c0.3-0.2,0.7-0.2,1,0l13.8,8c0.3,0.2,0.5,0.5,0.5,0.9v16c0,0.4-0.2,0.7-0.5,0.9l-13.8,8C64.3,126.5,64.2,126.5,64,126.5z
			 M51.2,117l12.8,7.4l12.8-7.4v-14.8L64,94.8l-12.8,7.4V117z"/>
		<path class="st0" d="M77.8,63.3c-0.6,0-1-0.4-1-1c0-0.4,0.2-0.7,0.5-0.9l6.4-3.7c0.5-0.3,1.1-0.1,1.4,0.4s0.1,1.1-0.4,1.4l0,0
			l-6.4,3.7C78.2,63.3,78,63.3,77.8,63.3z"/>
		<rect x="1" y="1" class="st7" width="126" height="126"/>
	</g>
	<rect class="st7" width="128" height="128"/>
</g>
</svg>
