<?xml version="1.0" encoding="utf-8"?>
<!-- Generator: Adobe Illustrator 24.1.0, SVG Export Plug-In . SVG Version: 6.00 Build 0)  -->
<svg version="1.1" id="Layer_1" xmlns="http://www.w3.org/2000/svg" xmlns:xlink="http://www.w3.org/1999/xlink" x="0px" y="0px"
	 viewBox="0 0 128 128" style="enable-background:new 0 0 128 128;" xml:space="preserve">
<style type="text/css">
	.st0{fill:none;}
	.st1{fill:#E9EBDF;}
	.st2{fill:#0E352C;}
	.st3{fill:#FFFFFF;}
	.st4{clip-path:url(#SVGID_2_);}
	.st5{fill:#4D9987;}
</style>
<g>
	<g>
		<rect x="1" y="1" class="st0" width="126" height="126"/>
		<path class="st1" d="M115.7,87.4L66.6,59.1c-1.6-0.8-3.6-0.8-5.2,0L12.3,87.4l-3.4-1.6v8.4c0.1,0.7,0.5,1.2,1.1,1.5l51.4,29.7
			c1.6,0.8,3.6,0.8,5.2,0L118,95.7c0.6-0.3,1-0.8,1.1-1.5v-8.4L115.7,87.4z M64.6,95V76.5l16,9.2L64.6,95z"/>
		<path class="st2" d="M64,127c-1.1,0-2.1-0.2-3.1-0.8L9.5,96.6c-0.9-0.4-1.5-1.3-1.6-2.4v-8.4c0-0.6,0.5-1,1-1c0.1,0,0.3,0,0.4,0.1
			l2.9,1.4l48.6-28.1c1.9-1,4.2-1,6.2,0l48.6,28.1l2.9-1.4c0.5-0.2,1.1,0,1.3,0.5c0.1,0.1,0.1,0.3,0.1,0.4v8.4
			c-0.1,1-0.7,1.9-1.6,2.4l-51.4,29.7C66.1,126.8,65.1,127,64,127z M9.9,87.3v6.9c0,0.1,0.1,0.4,0.6,0.6l51.4,29.7
			c1.3,0.6,2.9,0.6,4.2,0l51.4-29.7c0.4-0.2,0.6-0.5,0.6-0.6v-6.9l-2,0.9c-0.3,0.1-0.6,0.1-0.9,0L66.1,59.9c-1.3-0.6-2.9-0.6-4.2,0
			L12.8,88.3c-0.3,0.2-0.6,0.2-0.9,0L9.9,87.3z M64.6,96c-0.6,0-1-0.4-1-1V76.5c0-0.6,0.4-1,1-1c0.2,0,0.3,0,0.5,0.1l16,9.3
			c0.5,0.3,0.6,0.9,0.4,1.4c-0.1,0.2-0.2,0.3-0.4,0.4l-16,9.2C65,96,64.8,96,64.6,96z M65.6,78.2v15l13-7.5L65.6,78.2z"/>
		<path class="st1" d="M115.7,87.4L66.6,59.1c-0.8-0.4-1.7-0.6-2.6-0.6v18.4l16.7,8.9l-16,9.2L64,94.6V126c0.9,0,1.8-0.2,2.6-0.6
			L118,95.7c0.6-0.3,1-0.8,1.1-1.5v-8.4L115.7,87.4z"/>
		<path class="st3" d="M118,84.3L66.6,54.6c-1.6-0.8-3.6-0.8-5.2,0L10,84.3c-1.4,0.8-1.4,2.2,0,3L61.4,117c1.6,0.8,3.6,0.8,5.2,0
			L118,87.3C119.4,86.4,119.4,85.1,118,84.3z"/>
		<g>
			<g>
				<defs>
					<path id="SVGID_1_" d="M118,84.3L66.6,54.6c-1.6-0.8-3.6-0.8-5.2,0L10,84.3c-1.4,0.8-1.4,2.2,0,3L61.4,117
						c1.6,0.8,3.6,0.8,5.2,0L118,87.3C119.4,86.4,119.4,85.1,118,84.3z"/>
				</defs>
				<clipPath id="SVGID_2_">
					<use xlink:href="#SVGID_1_"  style="overflow:visible;"/>
				</clipPath>
				<g class="st4">
					<path class="st1" d="M9.1,86.8c-0.6,0-1-0.4-1-1c0-0.5,0.3-0.9,0.8-1c24.5-5.6,42.7-20.2,53.5-31.5c0.4-0.4,1-0.4,1.4,0
						s0.4,1,0,1.4c-11,11.5-29.5,26.4-54.5,32.1C9.2,86.8,9.2,86.8,9.1,86.8z"/>
					<path class="st1" d="M19.4,93.2c-0.6,0-1-0.4-1-1c0-0.5,0.3-0.9,0.8-1C44.7,85.8,64.1,70.7,75.8,59c0.4-0.4,1-0.4,1.4,0
						s0.4,1,0,1.4C65.3,72.3,45.6,87.7,19.6,93.2C19.5,93.2,19.4,93.2,19.4,93.2z"/>
					<path class="st1" d="M29.8,99.7c-0.6,0-1-0.5-1-1s0.3-0.9,0.8-1c25.6-5.2,45.7-19.9,57.9-31.4c0.4-0.4,1-0.4,1.4,0s0.4,1,0,1.4
						c0,0,0,0-0.1,0.1C76.4,79.4,56.1,94.4,30,99.7C29.9,99.7,29.9,99.7,29.8,99.7z"/>
					<path class="st1" d="M41,106.2c-0.6,0-1-0.4-1-1c0-0.5,0.3-0.9,0.8-1c25.6-5.3,46.1-19.7,58.8-30.9c0.4-0.4,1.1-0.3,1.4,0.1
						s0.3,1-0.1,1.4c-12.9,11.4-33.7,26-59.7,31.4C41.2,106.2,41.1,106.2,41,106.2z"/>
					<path class="st1" d="M52.4,112.7c-0.6,0-1-0.5-1-1s0.3-0.9,0.8-1c25.5-5.4,46.4-19.6,59.4-30.6c0.4-0.4,1.1-0.3,1.4,0.1
						s0.3,1.1-0.1,1.4c-13.2,11.1-34.4,25.5-60.3,31C52.5,112.7,52.5,112.7,52.4,112.7z"/>
				</g>
			</g>
		</g>
		<path class="st5" d="M64,118.6c-1.1,0-2.1-0.2-3.1-0.8L9.5,88.1c-1.3-0.5-1.9-2-1.4-3.4c0.3-0.6,0.8-1.1,1.4-1.4l51.4-29.7
			c1.9-1,4.2-1,6.2,0l51.4,29.7l0,0c1.3,0.5,1.9,2,1.4,3.4c-0.3,0.6-0.8,1.1-1.4,1.4l-51.4,29.7C66.1,118.3,65.1,118.6,64,118.6z
			 M64,55c-0.7,0-1.4,0.1-2.1,0.5L10.5,85.1c-0.4,0.2-0.6,0.5-0.6,0.6s0.1,0.4,0.6,0.6L61.9,116c1.3,0.6,2.9,0.6,4.2,0l51.4-29.7
			c0.4-0.2,0.6-0.5,0.6-0.6s-0.2-0.4-0.6-0.6L66.1,55.5C65.5,55.1,64.7,55,64,55z"/>
		<path class="st2" d="M64,127c-1.1,0-2.1-0.2-3.1-0.8L9.5,96.6c-0.9-0.4-1.5-1.3-1.6-2.4v-8.4c0.1-1,0.7-1.9,1.6-2.4l51.4-29.7
			c1.9-1,4.2-1,6.2,0l51.4,29.7l0,0c0.9,0.4,1.5,1.3,1.6,2.4v8.4c-0.1,1-0.7,1.9-1.6,2.4l-51.4,29.7C66.1,126.8,65.1,127,64,127z
			 M64,55c-0.7,0-1.4,0.1-2.1,0.5L10.5,85.1c-0.4,0.2-0.6,0.5-0.6,0.6v8.4c0,0.1,0.1,0.4,0.6,0.6l51.4,29.7c1.3,0.6,2.9,0.6,4.2,0
			l51.4-29.7c0.4-0.2,0.6-0.5,0.6-0.6v-8.4c0-0.1-0.2-0.4-0.6-0.6L66.1,55.5C65.5,55.1,64.7,55,64,55L64,55z"/>
		<polygon class="st1" points="109.2,43.2 95.8,50.9 82.5,43.2 82.5,27.7 95.8,20 109.2,27.7 		"/>
		<path class="st5" d="M95.8,51.9c-0.2,0-0.3,0-0.5-0.1L82,44c-0.3-0.2-0.5-0.5-0.5-0.9V27.7c0-0.4,0.2-0.7,0.5-0.9l13.4-7.7
			c0.3-0.2,0.7-0.2,1,0l13.4,7.7c0.3,0.2,0.5,0.5,0.5,0.9v15.4c0,0.4-0.2,0.7-0.5,0.9l-13.4,7.7C96.2,51.8,96,51.9,95.8,51.9z
			 M83.5,42.6l12.4,7.1l12.4-7.1V28.3l-12.4-7.1l-12.4,7.1V42.6z"/>
		<polygon class="st3" points="109.2,27.7 95.8,35.4 82.5,27.7 82.5,27.7 95.8,20 		"/>
		<path class="st5" d="M95.8,36.4c-0.2,0-0.3,0-0.5-0.1L82,28.6c-0.5-0.3-0.6-0.9-0.4-1.4c0.1-0.2,0.2-0.3,0.4-0.4l13.4-7.7
			c0.3-0.2,0.7-0.2,1,0l13.4,7.7c0.5,0.3,0.6,0.9,0.4,1.4c-0.1,0.2-0.2,0.3-0.4,0.4l-13.4,7.7C96.2,36.4,96,36.4,95.8,36.4z
			 M84.5,27.7l11.4,6.6l11.4-6.6l-11.4-6.6L84.5,27.7z"/>
		<polygon class="st1" points="95.8,35.4 95.8,50.9 109.2,43.2 109.2,27.7 		"/>
		<path class="st5" d="M95.8,51.9c-0.6,0-1-0.4-1-1V35.4c0-0.4,0.2-0.7,0.5-0.9l13.4-7.7c0.5-0.3,1.1-0.1,1.4,0.4
			c0.1,0.2,0.1,0.3,0.1,0.5v15.4c0,0.4-0.2,0.7-0.5,0.9l-13.4,7.7C96.2,51.8,96,51.9,95.8,51.9z M96.8,36v13.1l11.4-6.6v-13L96.8,36
			z"/>
		<path class="st2" d="M95.8,51.9c-0.2,0-0.3,0-0.5-0.1L82,44c-0.3-0.2-0.5-0.5-0.5-0.9V27.7c0-0.4,0.2-0.7,0.5-0.9l13.4-7.7
			c0.3-0.2,0.7-0.2,1,0l13.4,7.7c0.3,0.2,0.5,0.5,0.5,0.9v15.4c0,0.4-0.2,0.7-0.5,0.9l-13.4,7.7C96.2,51.8,96,51.9,95.8,51.9z
			 M83.5,42.6l12.4,7.1l12.4-7.1V28.3l-12.4-7.1l-12.4,7.1V42.6z"/>
		<polygon class="st1" points="78,25.1 64.6,32.9 51.3,25.1 51.3,9.7 64.6,2 78,9.7 		"/>
		<path class="st5" d="M64.6,33.9c-0.2,0-0.3,0-0.5-0.1L50.8,26c-0.3-0.2-0.5-0.5-0.5-0.9V9.7c0-0.4,0.2-0.7,0.5-0.9l13.4-7.7
			c0.3-0.2,0.7-0.2,1,0l13.4,7.7C78.8,9,79,9.4,79,9.7v15.4c0,0.4-0.2,0.7-0.5,0.9l-13.4,7.7C65,33.8,64.8,33.9,64.6,33.9z
			 M52.3,24.6l12.4,7.1L77,24.6V10.3L64.6,3.2l-12.4,7.1v14.3H52.3z"/>
		<polygon class="st3" points="78,9.7 64.6,17.4 51.3,9.7 51.3,9.7 64.6,2 		"/>
		<path class="st5" d="M64.6,18.4c-0.2,0-0.3,0-0.5-0.1l-13.4-7.7c-0.5-0.3-0.6-0.9-0.4-1.4c0.1-0.2,0.2-0.3,0.4-0.4l13.4-7.7
			c0.3-0.2,0.7-0.2,1,0l13.4,7.7c0.5,0.3,0.6,0.9,0.4,1.4c-0.1,0.2-0.2,0.3-0.4,0.4l-13.4,7.7C65,18.4,64.8,18.4,64.6,18.4z
			 M53.3,9.7l11.4,6.6L76,9.7L64.6,3.2L53.3,9.7z"/>
		<polygon class="st1" points="64.6,17.4 64.6,32.9 78,25.1 78,9.7 		"/>
		<path class="st5" d="M64.6,33.9c-0.6,0-1-0.4-1-1V17.4c0-0.4,0.2-0.7,0.5-0.9l13.4-7.7c0.5-0.3,1.1-0.1,1.4,0.4
			C79,9.4,79,9.5,79,9.7v15.4c0,0.4-0.2,0.7-0.5,0.9l-13.4,7.7C65,33.8,64.8,33.9,64.6,33.9z M65.6,18v13.1L77,24.6V11.4L65.6,18z"
			/>
		<path class="st2" d="M64.6,33.9c-0.2,0-0.3,0-0.5-0.1L50.8,26c-0.3-0.2-0.5-0.5-0.5-0.9V9.7c0-0.4,0.2-0.7,0.5-0.9l13.4-7.7
			c0.3-0.2,0.7-0.2,1,0l13.4,7.7C78.8,9,79,9.4,79,9.7v15.4c0,0.4-0.2,0.7-0.5,0.9l-13.4,7.7C65,33.8,64.8,33.9,64.6,33.9z
			 M52.3,24.6l12.4,7.1L77,24.6V10.3L64.6,3.2l-12.4,7.1v14.3H52.3z"/>
		<polygon class="st1" points="46.8,43.2 33.4,50.9 20.1,43.2 20.1,27.7 33.4,20 46.8,27.7 		"/>
		<path class="st5" d="M33.4,51.9c-0.2,0-0.3,0-0.5-0.1L19.6,44c-0.3-0.2-0.5-0.5-0.5-0.9V27.7c0-0.4,0.2-0.7,0.5-0.9L33,19.1
			c0.3-0.2,0.7-0.2,1,0l13.4,7.7c0.3,0.2,0.5,0.5,0.5,0.9v15.4c0,0.4-0.2,0.7-0.5,0.9L34,51.7C33.8,51.8,33.6,51.9,33.4,51.9z
			 M21.1,42.6l12.4,7.1l12.4-7.1V28.3l-12.4-7.1l-12.4,7.1V42.6z"/>
		<polygon class="st3" points="46.8,27.7 33.4,35.4 20.1,27.7 20.1,27.7 33.4,20 		"/>
		<path class="st5" d="M33.4,36.4c-0.2,0-0.3,0-0.5-0.1l-13.4-7.7c-0.5-0.3-0.6-0.9-0.4-1.4c0.1-0.2,0.2-0.3,0.4-0.4l13.4-7.7
			c0.3-0.2,0.7-0.2,1,0l13.4,7.7c0.5,0.3,0.6,0.9,0.4,1.4c-0.1,0.2-0.2,0.3-0.4,0.4l-13.4,7.7C33.8,36.4,33.6,36.4,33.4,36.4z
			 M22.1,27.7l11.4,6.6l11.4-6.6l-11.4-6.6L22.1,27.7z"/>
		<polygon class="st1" points="33.4,35.4 33.4,50.9 46.8,43.2 46.8,27.7 		"/>
		<path class="st5" d="M33.4,51.9c-0.6,0-1-0.4-1-1V35.4c0-0.4,0.2-0.7,0.5-0.9l13.4-7.7c0.5-0.3,1.1-0.1,1.4,0.4
			c0.1,0.2,0.1,0.3,0.1,0.5v15.4c0,0.4-0.2,0.7-0.5,0.9l-13.4,7.7C33.8,51.8,33.6,51.9,33.4,51.9z M34.4,36v13.1l11.4-6.6v-13
			L34.4,36z"/>
		<path class="st2" d="M33.4,51.9c-0.2,0-0.3,0-0.5-0.1L19.6,44c-0.3-0.2-0.5-0.5-0.5-0.9V27.7c0-0.4,0.2-0.7,0.5-0.9L33,19.1
			c0.3-0.2,0.7-0.2,1,0l13.4,7.7c0.3,0.2,0.5,0.5,0.5,0.9v15.4c0,0.4-0.2,0.7-0.5,0.9L34,51.7C33.8,51.8,33.6,51.9,33.4,51.9z
			 M21.1,42.6l12.4,7.1l12.4-7.1V28.3l-12.4-7.1l-12.4,7.1V42.6z"/>
		<path class="st5" d="M82.5,28.7c-0.2,0-0.3,0-0.5-0.1l-4.1-2.4c-0.5-0.3-0.6-0.9-0.4-1.4c0.3-0.5,0.9-0.6,1.4-0.4l4.1,2.4
			c0.5,0.3,0.6,0.9,0.4,1.4C83.2,28.5,82.8,28.7,82.5,28.7z"/>
		<path class="st5" d="M46.8,28.7c-0.6,0-1-0.4-1-1c0-0.4,0.2-0.7,0.5-0.9l4.5-2.6c0.5-0.3,1.1-0.1,1.4,0.4c0.3,0.5,0.1,1.1-0.4,1.4
			l-4.5,2.6C47.1,28.7,47,28.7,46.8,28.7z"/>
		<g>
			<path class="st5" d="M46.8,44.1c-0.1,0-0.3,0-0.4-0.1c-0.1-0.1-0.2-0.1-0.3-0.2c-0.1-0.1-0.2-0.2-0.2-0.3
				c-0.1-0.1-0.1-0.3-0.1-0.4c0-0.1,0-0.3,0.1-0.4c0-0.1,0.1-0.2,0.2-0.3c0-0.1,0.1-0.1,0.2-0.1c0.1,0,0.1-0.1,0.2-0.1
				c0.1,0,0.1,0,0.2-0.1c0.1,0,0.3,0,0.4,0c0.1,0,0.1,0,0.2,0.1c0.1,0,0.1,0.1,0.2,0.1c0.1,0,0.1,0.1,0.2,0.1
				c0.1,0.1,0.2,0.2,0.2,0.3c0.1,0.1,0.1,0.2,0.1,0.4c0,0.1,0,0.3-0.1,0.4c0,0.1-0.1,0.2-0.2,0.3c-0.1,0.1-0.2,0.2-0.3,0.2
				C47.1,44.1,46.9,44.2,46.8,44.1z"/>
			<path class="st5" d="M41.9,41.5c-0.5-0.3-0.6-0.9-0.4-1.4l0,0l0,0c0.3-0.5,0.9-0.6,1.3-0.4l0,0l0,0c0.5,0.3,0.6,0.9,0.4,1.4l0,0
				c-0.2,0.3-0.5,0.5-0.9,0.5l0,0C42.2,41.6,42.1,41.6,41.9,41.5z M37.5,39c-0.5-0.3-0.6-0.9-0.4-1.4l0,0c0.3-0.5,0.9-0.6,1.4-0.4
				l0,0c0.5,0.3,0.6,0.9,0.4,1.4l0,0c-0.2,0.3-0.5,0.5-0.9,0.5l0,0C37.9,39.1,37.7,39,37.5,39z"/>
			<path class="st5" d="M33.7,36.6c-0.6,0-1-0.4-1-1c0-0.3,0.1-0.5,0.3-0.7c0,0,0.1-0.1,0.2-0.1c0.1,0,0.1-0.1,0.2-0.1
				c0.1,0,0.1,0,0.2,0c0.3-0.1,0.7,0,0.9,0.3c0.1,0.1,0.2,0.2,0.2,0.3s0.1,0.3,0.1,0.4c0,0.3-0.1,0.5-0.3,0.7
				C34.2,36.5,33.9,36.6,33.7,36.6z"/>
		</g>
		<g>
			<path class="st5" d="M82.7,44.3c-0.3,0-0.5-0.1-0.7-0.3c-0.4-0.4-0.4-1,0-1.4l0,0c0.1-0.1,0.2-0.2,0.3-0.2c0.1,0,0.1,0,0.2-0.1
				c0.1,0,0.3,0,0.4,0s0.1,0,0.2,0.1c0.1,0,0.1,0.1,0.2,0.1s0.1,0.1,0.1,0.1c0.1,0.1,0.2,0.2,0.2,0.3c0.1,0.2,0.1,0.5,0,0.8
				c-0.1,0.1-0.1,0.2-0.2,0.3C83.2,44.2,83,44.3,82.7,44.3L82.7,44.3z"/>
			<path class="st5" d="M86.2,41.2c-0.3-0.5-0.1-1.1,0.4-1.4l0,0c0.5-0.3,1.1-0.1,1.4,0.4l0,0c0.3,0.5,0.1,1.1-0.4,1.4l0,0l0,0
				c-0.1,0.1-0.3,0.1-0.5,0.1l0,0C86.7,41.8,86.4,41.6,86.2,41.2z M90.6,38.7c-0.3-0.5-0.1-1.1,0.4-1.4l0,0c0.5-0.3,1.1-0.1,1.4,0.4
				l0,0c0.3,0.5,0.1,1.1-0.4,1.4l0,0l0,0c-0.2,0.1-0.3,0.1-0.5,0.1l0,0C91.1,39.2,90.8,39,90.6,38.7z"/>
			<path class="st5" d="M95.8,36.7c-0.1,0-0.3,0-0.4-0.1c-0.1,0-0.2-0.1-0.3-0.2c-0.1-0.1-0.2-0.2-0.2-0.3c-0.1-0.1-0.1-0.3-0.1-0.4
				c0-0.3,0.1-0.5,0.3-0.7c0.1-0.1,0.2-0.2,0.3-0.2c0.2-0.1,0.4-0.1,0.6-0.1c0.1,0,0.1,0,0.2,0.1c0.1,0,0.1,0.1,0.2,0.1
				c0.1,0.1,0.2,0.2,0.3,0.3c0,0,0.1,0.1,0.1,0.2s0,0.1,0.1,0.2c0,0.1,0,0.1,0,0.2c0,0.1,0,0.3-0.1,0.4c0,0.1-0.1,0.2-0.2,0.3
				s-0.2,0.2-0.3,0.2C96.1,36.7,96,36.7,95.8,36.7z"/>
		</g>
		<g>
			<path class="st5" d="M64.6,18.4c-0.3,0-0.5-0.1-0.7-0.3c-0.1-0.1-0.2-0.2-0.2-0.3c-0.1-0.2-0.1-0.5,0-0.8c0-0.1,0.1-0.2,0.2-0.3
				c0,0,0.1-0.1,0.2-0.1c0.1,0,0.1-0.1,0.2-0.1s0.1,0,0.2,0s0.3,0,0.4,0s0.1,0,0.2,0s0.1,0.1,0.2,0.1s0.1,0.1,0.2,0.1
				c0.2,0.2,0.3,0.4,0.3,0.7c0,0.1,0,0.3-0.1,0.4c0,0.1-0.1,0.2-0.2,0.3C65.2,18.3,64.9,18.4,64.6,18.4z"/>
			<path class="st5" d="M72.9,23.4c-0.5-0.3-0.6-0.9-0.4-1.4l0,0c0.3-0.5,0.9-0.6,1.4-0.4l0,0c0.5,0.3,0.6,0.9,0.4,1.3l0,0l0,0
				c-0.2,0.3-0.5,0.5-0.9,0.5l0,0C73.2,23.5,73.1,23.4,72.9,23.4z M68.5,20.8c-0.5-0.3-0.6-0.9-0.4-1.4l0,0c0.3-0.5,0.9-0.6,1.4-0.4
				l0,0c0.5,0.3,0.6,0.9,0.4,1.4l0,0C69.7,20.8,69.4,21,69,21l0,0C68.8,21,68.7,20.9,68.5,20.8z"/>
			<path class="st5" d="M77.8,26c-0.1,0-0.3,0-0.4-0.1c-0.2-0.1-0.4-0.3-0.5-0.5c0-0.1-0.1-0.3-0.1-0.4c0-0.3,0.1-0.5,0.3-0.7
				c0.1-0.1,0.2-0.2,0.3-0.2C77.6,24,77.8,24,78,24c0.1,0,0.1,0,0.2,0.1s0.1,0.1,0.2,0.1s0.1,0.1,0.2,0.1c0.2,0.2,0.3,0.4,0.3,0.7
				c0,0.1,0,0.3-0.1,0.4c0,0.1-0.1,0.2-0.2,0.3C78.3,25.9,78,26,77.8,26z"/>
		</g>
		<g>
			<path class="st5" d="M64.6,18.4c-0.3,0-0.5-0.1-0.7-0.3c-0.1-0.1-0.2-0.2-0.2-0.3c-0.1-0.2-0.1-0.5,0-0.8c0-0.1,0.1-0.2,0.2-0.3
				c0,0,0.1-0.1,0.2-0.1c0.1,0,0.1-0.1,0.2-0.1s0.1,0,0.2,0s0.3,0,0.4,0s0.1,0,0.2,0s0.1,0.1,0.2,0.1s0.1,0.1,0.2,0.1
				c0.2,0.2,0.3,0.4,0.3,0.7c0,0.1,0,0.3-0.1,0.4c0,0.1-0.1,0.2-0.2,0.3C65.2,18.3,64.9,18.4,64.6,18.4z"/>
			<path class="st5" d="M55,23c-0.3-0.5-0.1-1.1,0.4-1.4l0,0l0,0c0.5-0.3,1.1-0.1,1.4,0.4l0,0c0.3,0.5,0.1,1.1-0.4,1.4l0,0
				c-0.2,0.1-0.3,0.1-0.5,0.1l0,0C55.5,23.5,55.2,23.3,55,23z M59.4,20.5c-0.3-0.5-0.1-1.1,0.4-1.4l0,0c0.5-0.3,1.1-0.1,1.4,0.4l0,0
				c0.3,0.5,0.1,1.1-0.3,1.4l0,0l0,0C60.7,21,60.6,21,60.4,21l0,0C59.9,21,59.6,20.8,59.4,20.5z"/>
			<path class="st5" d="M51.5,26c-0.3,0-0.5-0.1-0.7-0.3c-0.2-0.2-0.3-0.4-0.3-0.7c0-0.1,0-0.3,0.1-0.4s0.1-0.2,0.2-0.3
				c0.1-0.1,0.2-0.2,0.3-0.2c0.4-0.1,0.8-0.1,1.1,0.2c0.1,0.1,0.2,0.2,0.2,0.3c0.1,0.1,0.1,0.2,0.1,0.4c0,0.1,0,0.3-0.1,0.4
				c0,0.1-0.1,0.2-0.2,0.3c-0.1,0.1-0.2,0.2-0.3,0.2C51.8,26,51.6,26,51.5,26z"/>
		</g>
		<polygon class="st1" points="78,61.2 64.6,68.9 51.3,61.2 51.3,45.7 64.6,38 78,45.7 		"/>
		<path class="st5" d="M64.6,69.9c-0.2,0-0.3,0-0.5-0.1L50.8,62c-0.3-0.2-0.5-0.5-0.5-0.9V45.7c0-0.4,0.2-0.7,0.5-0.9l13.4-7.7
			c0.3-0.2,0.7-0.2,1,0l13.4,7.7c0.3,0.2,0.5,0.5,0.5,0.9v15.4c0,0.4-0.2,0.7-0.5,0.9l-13.4,7.7C65,69.8,64.8,69.9,64.6,69.9z
			 M52.3,60.6l12.4,7.1L77,60.6V46.3l-12.4-7.1l-12.4,7.1v14.3H52.3z"/>
		<polygon class="st3" points="78,45.7 64.6,53.5 51.3,45.7 51.3,45.7 64.6,38 		"/>
		<path class="st5" d="M64.6,54.5c-0.2,0-0.3,0-0.5-0.1l-13.4-7.7c-0.5-0.3-0.6-0.9-0.4-1.4c0.1-0.2,0.2-0.3,0.4-0.4l13.4-7.7
			c0.3-0.2,0.7-0.2,1,0l13.4,7.7c0.5,0.3,0.6,0.9,0.4,1.4c-0.1,0.2-0.2,0.3-0.4,0.4l-13.4,7.7C65,54.4,64.8,54.5,64.6,54.5z
			 M53.3,45.7l11.4,6.6L76,45.7l-11.4-6.6L53.3,45.7z"/>
		<polygon class="st1" points="64.6,53.5 64.6,68.9 78,61.2 78,45.7 		"/>
		<path class="st5" d="M64.6,69.9c-0.6,0-1-0.4-1-1V53.5c0-0.4,0.2-0.7,0.5-0.9l13.4-7.7c0.5-0.3,1.1-0.1,1.4,0.4
			c0.1,0.2,0.1,0.3,0.1,0.5v15.4c0,0.4-0.2,0.7-0.5,0.9l-13.4,7.7C65,69.8,64.8,69.9,64.6,69.9z M65.6,54v13.1L77,60.6V47.5L65.6,54
			z"/>
		<path class="st2" d="M64.6,69.9c-0.2,0-0.3,0-0.5-0.1L50.8,62c-0.3-0.2-0.5-0.5-0.5-0.9V45.7c0-0.4,0.2-0.7,0.5-0.9l13.4-7.7
			c0.3-0.2,0.7-0.2,1,0l13.4,7.7c0.3,0.2,0.5,0.5,0.5,0.9v15.4c0,0.4-0.2,0.7-0.5,0.9l-13.4,7.7C65,69.8,64.8,69.9,64.6,69.9z
			 M52.3,60.6l12.4,7.1L77,60.6V46.3l-12.4-7.1l-12.4,7.1v14.3H52.3z"/>
		<path class="st5" d="M50.9,46.5c-0.2,0-0.3,0-0.5-0.1L46.3,44c-0.5-0.3-0.6-0.9-0.4-1.4s0.9-0.6,1.4-0.4l4.1,2.4
			c0.5,0.3,0.6,0.9,0.4,1.4C51.6,46.3,51.3,46.5,50.9,46.5z"/>
		<path class="st5" d="M78,46.7c-0.6,0-1-0.4-1-1c0-0.4,0.2-0.7,0.5-0.9l4.5-2.6c0.5-0.3,1.1-0.1,1.4,0.4s0.1,1.1-0.4,1.4l-4.5,2.6
			C78.3,46.7,78.2,46.7,78,46.7z"/>
		<path class="st2" d="M78,62.2c-0.3,0-0.5-0.1-0.7-0.3c-0.1-0.1-0.2-0.2-0.2-0.3S77,61.3,77,61.2c0-0.3,0.1-0.5,0.3-0.7
			c0.1-0.1,0.2-0.2,0.3-0.2c0.4-0.1,0.8-0.1,1.1,0.2c0.2,0.2,0.3,0.4,0.3,0.7c0,0.1,0,0.3-0.1,0.4c0,0.1-0.1,0.2-0.2,0.3
			C78.5,62.1,78.3,62.2,78,62.2z"/>
		<path class="st2" d="M77,73.2c0-0.6,0.4-1,1-1l0,0c0.6,0,1,0.4,1,1l0,0c0,0.6-0.4,1-1,1l0,0C77.4,74.2,77,73.8,77,73.2z M77,67.2
			c0-0.5,0.4-1,1-1l0,0l0,0c0.5,0,1,0.4,1,1l0,0l0,0c0,0.6-0.4,1-1,1l0,0l0,0C77.4,68.2,77,67.8,77,67.2L77,67.2z"/>
		<path class="st2" d="M78,80.3c-0.1,0-0.3,0-0.4-0.1C77.2,80,77,79.7,77,79.3c0-0.3,0.1-0.5,0.3-0.7l0.2-0.1c0.1,0,0.1-0.1,0.2-0.1
			s0.1,0,0.2-0.1c0.3-0.1,0.7,0,0.9,0.3c0.2,0.2,0.3,0.4,0.3,0.7c0,0.3-0.1,0.5-0.3,0.7c-0.1,0.1-0.2,0.2-0.3,0.2
			C78.3,80.3,78.1,80.3,78,80.3z"/>
		<path class="st2" d="M51.3,62.2c-0.1,0-0.3,0-0.4-0.1c-0.1,0-0.2-0.1-0.3-0.2c-0.1-0.1-0.2-0.2-0.2-0.3s-0.1-0.3-0.1-0.4
			c0-0.3,0.1-0.5,0.3-0.7c0.4-0.4,1-0.4,1.4,0c0.2,0.2,0.3,0.4,0.3,0.7c0,0.1,0,0.3-0.1,0.4c0,0.1-0.1,0.2-0.2,0.3
			C51.8,62.1,51.5,62.2,51.3,62.2z"/>
		<path class="st2" d="M50.3,73.2c0-0.6,0.4-1,1-1l0,0c0.6,0,1,0.4,1,1l0,0c0,0.6-0.4,1-1,1l0,0C50.7,74.2,50.3,73.8,50.3,73.2z
			 M50.3,67.2c0-0.5,0.4-1,1-1l0,0l0,0c0.5,0,1,0.4,1,1l0,0l0,0c0,0.6-0.4,1-1,1l0,0l0,0C50.7,68.2,50.3,67.8,50.3,67.2L50.3,67.2z"
			/>
		<path class="st2" d="M51.3,80.3c-0.1,0-0.3,0-0.4-0.1c-0.4-0.2-0.6-0.5-0.6-0.9c0-0.1,0-0.1,0-0.2s0-0.1,0-0.2s0.1-0.1,0.1-0.2
			s0.1-0.1,0.1-0.2c0.4-0.4,1-0.4,1.4,0c0.2,0.2,0.3,0.4,0.3,0.7C52.3,79.8,51.8,80.3,51.3,80.3L51.3,80.3z"/>
		<polygon class="st3" points="77.4,85.8 64,93.5 50.6,85.8 50.6,85.8 64,78.1 		"/>
		<path class="st5" d="M64,94.5c-0.2,0-0.3,0-0.5-0.1l-13.4-7.7c-0.5-0.3-0.6-0.9-0.4-1.4c0.1-0.2,0.2-0.3,0.4-0.4l13.4-7.7
			c0.3-0.2,0.7-0.2,1,0l13.4,7.7c0.5,0.3,0.6,0.9,0.4,1.4c-0.1,0.2-0.2,0.3-0.4,0.4l-13.4,7.7C64.3,94.4,64.2,94.5,64,94.5z
			 M52.6,85.8L64,92.3l11.4-6.6L64,79.2L52.6,85.8z"/>
	</g>
	<rect class="st0" width="128" height="128"/>
</g>
</svg>
