<?xml version="1.0" encoding="utf-8"?>
<!-- Generator: Adobe Illustrator 24.1.0, SVG Export Plug-In . SVG Version: 6.00 Build 0)  -->
<svg version="1.1" id="Layer_1" xmlns="http://www.w3.org/2000/svg" xmlns:xlink="http://www.w3.org/1999/xlink" x="0px" y="0px"
	 viewBox="0 0 128 128" style="enable-background:new 0 0 128 128;" xml:space="preserve">
<style type="text/css">
	.st0{fill:#E9EBDF;}
	.st1{fill:#0E352C;}
	.st2{fill:#4D9987;}
	.st3{fill:#FFFFFF;}
	.st4{fill:none;}
</style>
<g>
	<path class="st0" d="M101.5,33.2c0.2-4-2.4-8-7.7-11.1c-10.2-5.9-26.7-5.9-36.8,0c-5,2.9-7.6,6.8-7.6,10.6l0,0L49.3,95
		c0,1.5,0.4,3,1.1,4.3c0.7,1.3,1.5,2.4,2.6,3.4c1.2,1.2,2.6,2.2,4.1,3c0.6,0.3,1.2,0.7,1.8,1c0.1,0,0.1,0.1,0.2,0.1
		c0.6,0.3,1.2,0.5,1.8,0.8c10.1,4,24,3.4,33-1.8c5-2.9,7.6-6.8,7.6-10.6l0.2-62.3C101.5,33,101.5,33.1,101.5,33.2z"/>
	<path class="st0" d="M62.3,19.8c-1.8,0.6-3.6,1.4-5.3,2.4c-5,2.9-7.6,6.8-7.6,10.6l0,0L49.3,95c0,1.5,0.4,3,1.1,4.3
		c0.7,1.3,1.5,2.4,2.6,3.4c1.2,1.2,2.6,2.2,4.1,3c0.6,0.3,1.2,0.7,1.8,1c0.1,0,0.1,0.1,0.2,0.1c0.6,0.3,1.2,0.5,1.8,0.8
		c0.5,0.2,1,0.4,1.6,0.6L62.3,19.8z"/>
	<path class="st1" d="M75.3,111.2c-5.1,0-10.2-0.9-15-2.7c-0.6-0.2-1.2-0.5-1.8-0.8l-0.1-0.1c-0.8-0.4-1.4-0.7-2-1
		c-1.5-0.9-3-1.9-4.3-3.2c-1.1-1.1-2-2.3-2.7-3.7c-0.8-1.5-1.2-3.1-1.2-4.8l0.2-62.3c0,0,0,0,0-0.1c0-4.3,2.9-8.4,8.1-11.4
		c10.4-6,27.3-6,37.8,0c5.3,3,8.1,7.1,8.2,11.5v0.1l0,0l0,0l0,0L102.3,95c0,4.4-2.9,8.4-8.1,11.4C89.1,109.6,82.2,111.2,75.3,111.2z
		 M50.4,32.8L50.3,95c0,1.3,0.3,2.7,1,3.9c0.6,1.2,1.4,2.2,2.4,3.1c1.2,1.1,2.5,2.1,3.9,2.9c0.5,0.3,1.1,0.6,1.8,0.9l0.1,0.1
		c0.6,0.3,1.2,0.5,1.8,0.8c10.1,4,23.6,3.2,32.1-1.7c4.5-2.6,7.1-6.1,7.1-9.7l0.2-61.8c0-0.1,0-0.1,0-0.2l0,0
		c0.2-3.8-2.4-7.4-7.2-10.2c-9.9-5.7-26-5.7-35.8,0C52.9,25.7,50.4,29.1,50.4,32.8L50.4,32.8z"/>
	<path class="st0" d="M88.5,52.9C73.9,58.8,48,62.9,33.3,57c-0.8-0.3-1.6-0.7-2.4-1c-1.6-0.7-3.4,0-4.1,1.5
		c-0.2,0.4-0.3,0.8-0.3,1.3v30.8c0,1.2,0.6,2.2,1.7,2.7c1.2,0.6,2.6,1.2,4.1,1.8c3.4,1.3,7,2,10.6,2.3l0,0c0,0,2.1,0.1,2.1,2.8V110
		c0,1.6,1.2,3,2.8,3.1c13.8,1.2,30-1,40.5-5.2c7.3-2.9,13-9.8,13-13.7l0.3-55.1C101.5,43,95.8,50,88.5,52.9z"/>
	<path class="st2" d="M55.5,114.5c-2.7,0-5.3-0.1-7.8-0.3c-2.1-0.2-3.8-2-3.7-4.1V99.4c0-1.6-0.9-1.8-1.1-1.8
		c-3.7-0.3-7.4-1.1-10.9-2.4c-1.6-0.6-2.9-1.2-4.1-1.9c-1.4-0.7-2.2-2.1-2.2-3.6V58.8c0-1.4,0.7-2.7,1.9-3.4
		c1.2-0.8,2.7-0.9,3.9-0.3c0.7,0.3,1.5,0.7,2.3,1c13.7,5.5,38.9,2.1,54.5-4.1l0,0c7.1-2.9,12.3-9.6,12.4-12.8l0,0c0-0.6,0.4-1,1-1
		l0,0c0.6,0,1,0.4,1,1l0,0l-0.3,55.1c0,4.2-6,11.5-13.6,14.6C79.7,112.5,67.2,114.5,55.5,114.5z M29.6,56.7c-0.4,0-0.8,0.1-1.1,0.3
		c-0.6,0.4-1,1-0.9,1.8v30.8c0,0.8,0.4,1.5,1.1,1.8c1.2,0.6,2.5,1.2,4,1.8c3.3,1.2,6.8,2,10.3,2.3c1,0,3,0.9,3,3.8v10.8
		c0,1.1,0.8,2,1.9,2.1c13.3,1.2,29.4-0.9,40-5.2c7.2-2.9,12.3-9.6,12.4-12.8l0.2-49.8c-2.9,4.2-6.9,7.4-11.6,9.3l0,0
		c-9,3.4-18.3,5.6-27.8,6.5c-8,0.8-19.4,1.1-28.1-2.4c-0.9-0.3-1.7-0.7-2.4-1C30.2,56.8,29.9,56.7,29.6,56.7z"/>
	<path class="st2" d="M33.3,64.7v2.4c0,0.4,0.3,0.8,0.6,0.9c1.4,0.5,2.7,0.9,4.1,1.2c0.5,0.1,1.1-0.2,1.2-0.8c0-0.1,0-0.1,0-0.2
		v-2.5c0-0.5-0.3-0.9-0.8-1c-1.3-0.3-2.6-0.7-3.9-1.1c-0.5-0.2-1.1,0.1-1.3,0.6C33.3,64.5,33.3,64.6,33.3,64.7z"/>
	<path class="st2" d="M48.5,66.1c-1.3-0.1-2.7-0.1-3.9-0.3c-0.5-0.1-1,0.3-1.1,0.9v0.1v2.5c0,0.5,0.4,0.9,0.9,1
		c1.3,0.1,2.7,0.2,4.1,0.3c0.6,0,1-0.4,1-1l0,0v-2.5C49.5,66.5,49.1,66.1,48.5,66.1z"/>
	<path class="st2" d="M58.6,65.8C57.3,65.9,56,66,54.7,66c-0.5,0-1,0.5-1,1v2.5c0,0.6,0.4,1,1,1l0,0c1.3-0.1,2.7-0.1,4-0.2
		c0.5,0,0.9-0.5,0.9-1v-2.5C59.7,66.3,59.2,65.8,58.6,65.8L58.6,65.8z"/>
	<path class="st2" d="M81,51.7c-0.6,0.3-1.2,0.5-1.9,0.7c-0.4,0.1-0.7,0.5-0.7,1v59.4c0,1.1,0.9,2,2,2c0.2,0,0.4,0,0.7-0.1
		c3.6-1.2,7-2.9,10.2-4.9c7-4.7,9.9-9.9,9.9-13.5l0.3-63V33c0-3.9-2.6-7.8-7.7-10.7c-10.2-6-26.7-6-36.8,0s-10.1,15.6,0.1,21.6
		c6.2,3.7,14.8,5.1,22.9,4.2c0.7-0.1,1.5,0.3,1.9,0.9"/>
	<path class="st3" d="M93.8,22.2c10.2,6,10.3,15.6,0.1,21.6s-26.6,6-36.8,0S46.9,28.1,57,22.2S83.6,16.2,93.8,22.2z"/>
	<path class="st2" d="M74.1,65.3v2.5c0,0.6,0.4,1,1,1c0.1,0,0.1,0,0.2,0c1.2-0.3,2.8-0.6,3.1-0.7v-4.5c-0.3,0.1-2.3,0.5-3.5,0.8
		C74.4,64.4,74.1,64.8,74.1,65.3z"/>
	<path class="st2" d="M78.3,100.5c-0.2,0.1-2.3,0.5-3.4,0.7c-0.5,0.1-0.8,0.5-0.8,1v2.4c0,0.6,0.4,1,1,1c0.1,0,0.1,0,0.2,0
		c1.2-0.3,2.8-0.6,3-0.7C78.3,104.9,78.3,100.5,78.3,100.5z"/>
	<path class="st2" d="M68.7,101.5c-1.3,0.2-2.6,0.4-4,0.6c-0.5,0.1-0.9,0.5-0.9,1v2.5c0,0.6,0.4,1,1,1h0.1c1.4-0.2,2.7-0.4,4-0.6
		c0.5-0.1,0.8-0.5,0.8-1v-2.5C69.7,101.9,69.2,101.5,68.7,101.5C68.8,101.5,68.8,101.5,68.7,101.5z"/>
	<path class="st2" d="M53.7,104v2.5c0,0.6,0.4,1,1,1l0,0c1.3-0.1,2.7-0.1,4-0.2c0.5,0,0.9-0.5,0.9-1v-2.5c0-0.6-0.5-1-1-1
		c0,0,0,0-0.1,0c-1.3,0.1-2.6,0.2-4,0.2C54.1,103.1,53.7,103.5,53.7,104z"/>
	<path class="st1" d="M88.4,47.3c-0.6,0-1-0.4-1-1c0-0.4,0.3-0.8,0.7-1c1.9-0.6,3.6-1.4,5.3-2.4c4.6-2.7,7.1-6.2,7.1-9.9
		c0-3.7-2.6-7.3-7.2-10c-0.5-0.3-0.6-0.9-0.4-1.4c0.3-0.5,0.9-0.6,1.4-0.4l0,0c5.3,3.1,8.2,7.2,8.2,11.7c0,4.4-2.9,8.6-8.1,11.6
		c-1.8,1.1-3.7,1.9-5.7,2.6C88.6,47.3,88.5,47.3,88.4,47.3z"/>
	<path class="st1" d="M80.4,115.8c-1.7,0-3-1.3-3-3V53.4c0-0.9,0.5-1.6,1.4-1.9c0.6-0.2,1.2-0.5,1.8-0.7c0.2-0.1,0.4-0.3,0.5-0.6
		s0.1-0.5-0.1-0.8s-0.5-0.5-0.9-0.4c-8.5,0.9-17.3-0.8-23.5-4.4c-5.3-3.1-8.2-7.2-8.2-11.7c0-4.4,2.9-8.6,8.1-11.6
		c10.4-6.1,27.4-6.1,37.8,0c5.2,3.1,8.1,7.2,8.2,11.6V33l-0.3,63.2c0,4.6-3.9,10-10.4,14.3c-3.3,2.1-6.8,3.8-10.4,5.1
		C81.1,115.7,80.7,115.8,80.4,115.8z M80.2,47c1.6,0,2.9,1.3,2.9,2.9c0,1.2-0.7,2.2-1.8,2.7c-0.6,0.3-1.3,0.5-1.9,0.8v59.4
		c0,0.3,0.2,0.6,0.4,0.8c0.3,0.2,0.6,0.2,0.9,0.1c3.5-1.2,6.9-2.8,10-4.8c7-4.7,9.5-9.6,9.5-12.7l0.3-63.2v-0.1
		c0-3.7-2.6-7.2-7.2-9.9c-9.9-5.8-26-5.8-35.8,0c-4.6,2.7-7.1,6.2-7.1,9.9s2.6,7.3,7.2,10c5.8,3.4,14.1,4.9,22.3,4.1
		C80,47,80.1,47,80.2,47L80.2,47z"/>
	<path class="st2" d="M62.3,47.1c-0.1,0-0.2,0-0.3-0.1c-1.9-0.6-3.7-1.5-5.4-2.4c-5.3-3.1-8.2-7.2-8.2-11.7c0-4.4,2.9-8.6,8.1-11.6
		c10.4-6.1,27.4-6.1,37.8,0c5.2,3,8.1,7.1,8.2,11.5v0.1l0,0l0,0V33l0,0c0,0.3-0.2,0.6-0.4,0.7c-0.2,0.1-0.4,0.2-0.6,0.2
		c-0.5,0-1-0.4-1-0.9l0,0v-0.1c0-3.7-2.6-7.2-7.2-9.9c-9.9-5.8-26-5.8-35.8,0c-4.6,2.7-7.1,6.2-7.1,9.9s2.6,7.3,7.2,10
		c1.6,0.9,3.3,1.7,5,2.3c0.5,0.2,0.8,0.7,0.6,1.3C63.1,46.9,62.7,47.1,62.3,47.1L62.3,47.1z"/>
	<path class="st1" d="M49.3,54.2L49.3,54.2c-0.6,0-1-0.5-1-1l0,0l0.1-20.5c0,0,0,0,0-0.1c0-4.3,2.9-8.4,8.1-11.4
		c10.4-6,27.3-6,37.8,0c5.3,3,8.1,7.1,8.2,11.5v0.1c0,0.1,0,0.2,0,0.3v0.1l0,0c0,0.5-0.4,1-1,1c0,0,0,0-0.1,0c-0.6,0-1-0.5-1-1l0,0
		c0.2-3.8-2.4-7.4-7.2-10.2c-9.9-5.7-26-5.7-35.8,0c-4.6,2.6-7.1,6.1-7.1,9.8l0,0l-0.1,20.5C50.3,53.8,49.8,54.2,49.3,54.2z"/>
	<path class="st0" d="M90.3,22c0.1-2.3-1.4-4.6-4.4-6.3c-5.8-3.4-15.2-3.4-21,0c-2.9,1.7-4.3,3.9-4.3,6l0,0l-0.1,8.8
		c0,0.9,0.2,1.7,0.6,2.5c0.4,0.7,0.9,1.4,1.5,1.9c0.7,0.7,1.5,1.2,2.3,1.7c0.3,0.2,0.7,0.4,1.1,0.5l0.1,0.1c0.3,0.2,0.7,0.3,1,0.4
		c5.8,2.3,13.7,1.9,18.8-1c2.9-1.7,4.3-3.8,4.3-6l0.1-8.8C90.3,21.9,90.3,22,90.3,22z"/>
	<path class="st1" d="M81.9,18.4c3.6,2.1,3.6,5.4,0,7.5C77.8,28,73,28,69,25.9c-3.6-2.1-3.6-5.4,0-7.5C73,16.3,77.9,16.3,81.9,18.4z
		"/>
	<path class="st2" d="M90.3,21.8l-0.1,8.8c0,2.2-1.4,4.4-4.3,6c-5.8,3.4-15.1,3.3-21,0c-2.9-1.7-4.4-3.9-4.4-6.1l0.1-8.8
		c0,2.2,1.5,4.4,4.4,6.1c5.8,3.4,15.2,3.4,21,0C88.9,26.2,90.3,24,90.3,21.8z"/>
	<path class="st2" d="M67.4,29c-0.8-0.3-1.6-0.7-2.3-1.1c-2.9-1.7-4.4-3.9-4.4-6.1l-0.1,8.8c0,2.2,1.5,4.4,4.4,6.1
		c0.8,0.4,1.6,0.8,2.4,1.1V29z"/>
	<path class="st1" d="M75.5,40.2c-3,0-5.9-0.5-8.7-1.5c-0.4-0.1-0.7-0.3-1.1-0.5l-0.1-0.1c-0.4-0.2-0.8-0.4-1.1-0.6
		c-0.9-0.5-1.8-1.1-2.5-1.9c-0.7-0.6-1.2-1.4-1.6-2.2c-0.5-0.9-0.7-1.9-0.7-2.9l0.1-8.8l0,0c0-2.6,1.7-5.1,4.8-6.8
		c6-3.5,15.9-3.5,22,0c3.1,1.8,4.8,4.3,4.9,6.9v0.1l0,0l-0.1,8.8c0,2.6-1.7,5.1-4.8,6.9C83.1,39.4,79.3,40.3,75.5,40.2z M66.6,36.4
		c0.3,0.1,0.6,0.3,1,0.4c5.6,2.2,13.2,1.8,17.9-1c2.5-1.4,3.8-3.3,3.8-5.2l0.1-8.5V22c0.1-2-1.3-3.9-3.9-5.4c-5.5-3.2-14.5-3.2-20,0
		c-2.5,1.4-3.8,3.3-3.8,5.2l0,0l-0.1,8.8c0,0.7,0.2,1.4,0.5,2s0.8,1.2,1.3,1.7c0.6,0.6,1.3,1.1,2.1,1.6C65.8,36,66.1,36.2,66.6,36.4
		l-0.4,0.9L66.6,36.4z"/>
	<path class="st2" d="M68.7,64.6c-1.3,0.2-2.6,0.4-4,0.6c-0.5,0.1-0.9,0.5-0.9,1v2.5c0,0.6,0.4,1,1,1h0.1c1.4-0.2,2.7-0.4,4-0.6
		c0.5-0.1,0.8-0.5,0.8-1v-2.5C69.7,65,69.2,64.6,68.7,64.6C68.8,64.5,68.8,64.5,68.7,64.6z"/>
	<rect x="1" y="1" class="st4" width="126" height="126"/>
	<rect class="st4" width="128" height="128"/>
</g>
</svg>
