<?xml version="1.0" encoding="utf-8"?>
<!-- Generator: Adobe Illustrator 24.1.0, SVG Export Plug-In . SVG Version: 6.00 Build 0)  -->
<svg version="1.1" id="Layer_1" xmlns="http://www.w3.org/2000/svg" xmlns:xlink="http://www.w3.org/1999/xlink" x="0px" y="0px"
	 viewBox="0 0 128 128" style="enable-background:new 0 0 128 128;" xml:space="preserve">
<style type="text/css">
	.st0{fill:#E9EBDF;}
	.st1{fill:#4D9987;}
	.st2{fill:#0E352C;}
	.st3{fill:#FFFFFF;}
	.st4{fill:#185849;}
	.st5{fill:#27ae60;}
	.st6{fill:#C4D7D3;}
	.st7{fill:none;}
</style>
<g>
	<polygon class="st0" points="103.2,103.4 64,126 64,112.9 103.2,90.3 	"/>
	<path class="st1" d="M64,127c-0.6,0-1-0.4-1-1v-13.1c0-0.4,0.2-0.7,0.5-0.9l39.2-22.6c0.5-0.3,1.1-0.1,1.4,0.4
		c0.1,0.2,0.1,0.3,0.1,0.5v13.1c0,0.4-0.2,0.7-0.5,0.9l-39.2,22.6C64.3,127,64.2,127,64,127z M65,113.5v10.7l37.2-21.5V92.1
		L65,113.5z"/>
	<polygon class="st0" points="24.8,103.4 64,126 64,112.9 24.8,90.3 	"/>
	<path class="st2" d="M64,127c-0.2,0-0.3,0-0.5-0.1l-39.2-22.6c-0.3-0.2-0.5-0.5-0.5-0.9V90.3c0-0.6,0.4-1,1-1c0.2,0,0.3,0,0.5,0.1
		L64.5,112c0.3,0.2,0.5,0.5,0.5,0.9V126C65,126.6,64.6,127,64,127z M25.8,102.8L63,124.3v-10.7L25.8,92.1V102.8z"/>
	<path class="st0" d="M54.5,121.5c-0.2,0-0.3,0-0.5-0.1l-20.2-11.6c-0.3-0.2-0.5-0.5-0.5-0.9v-6c0-0.6,0.4-1,1-1
		c0.2,0,0.3,0,0.5,0.1L55,113.6c0.3,0.2,0.5,0.5,0.5,0.9v6C55.5,121.1,55.1,121.5,54.5,121.5z M35.3,108.3l18.2,10.5v-3.7
		l-18.2-10.5V108.3z"/>
	<path class="st0" d="M32,101.3c-0.2,0-0.3,0-0.5-0.1l-0.1-0.1c-0.5-0.3-0.6-0.9-0.3-1.4c0.3-0.4,0.8-0.6,1.3-0.3l0.1,0.1
		c0.5,0.3,0.6,0.9,0.4,1.4C32.7,101.1,32.3,101.3,32,101.3z"/>
	<polygon class="st3" points="103.2,90.3 64,67.7 24.8,90.3 64,112.9 	"/>
	<path class="st1" d="M64,113.9c-0.2,0-0.3,0-0.5-0.1L24.3,91.2c-0.5-0.3-0.6-0.9-0.4-1.4c0.1-0.2,0.2-0.3,0.4-0.4l39.2-22.6
		c0.3-0.2,0.7-0.2,1,0l39.2,22.6c0.5,0.3,0.6,0.9,0.4,1.4c-0.1,0.2-0.2,0.3-0.4,0.4l-39.2,22.6C64.3,113.9,64.2,113.9,64,113.9z
		 M26.8,90.3L64,111.8l37.2-21.5L64,68.9L26.8,90.3z"/>
	<path class="st1" d="M64,127c-0.2,0-0.3,0-0.5-0.1l-39.2-22.6c-0.3-0.2-0.5-0.5-0.5-0.9V90.3c0-0.6,0.4-1,1-1c0.2,0,0.3,0,0.5,0.1
		L64.5,112c0.3,0.2,0.5,0.5,0.5,0.9V126C65,126.6,64.6,127,64,127z M25.8,102.8L63,124.3v-10.7L25.8,92.1V102.8z"/>
	<path class="st4" d="M43.1,32c0-0.6,0.4-1,1-1l0,0c0.6,0,1,0.4,1,1l0,0c0,0.6-0.4,1-1,1l0,0C43.6,33,43.1,32.6,43.1,32z M43.1,26
		c0-0.6,0.4-1,1-1l0,0c0.6,0,1,0.4,1,1l0,0c0,0.6-0.4,1-1,1l0,0C43.6,27,43.1,26.6,43.1,26z M43.1,20c0-0.6,0.4-1,1-1l0,0
		c0.6,0,1,0.4,1,1l0,0c0,0.6-0.4,1-1,1l0,0C43.6,21,43.1,20.6,43.1,20z M43.1,14c0-0.6,0.4-1,1-1l0,0c0.6,0,1,0.4,1,1l0,0
		c0,0.6-0.4,1-1,1l0,0C43.6,15,43.1,14.6,43.1,14z M43.1,8c0-0.6,0.4-1,1-1l0,0c0.6,0,1,0.4,1,1l0,0c0,0.6-0.4,1-1,1l0,0
		C43.6,9,43.1,8.6,43.1,8z M43.1,2c0-0.6,0.4-1,1-1l0,0c0.6,0,1,0.4,1,1l0,0c0,0.6-0.4,1-1,1l0,0C43.6,3,43.1,2.6,43.1,2z"/>
	<path class="st4" d="M82.7,32c0-0.6,0.4-1,1-1l0,0c0.6,0,1,0.4,1,1l0,0c0,0.6-0.4,1-1,1l0,0C83.2,33,82.7,32.6,82.7,32z M82.7,26
		c0-0.6,0.4-1,1-1l0,0c0.6,0,1,0.4,1,1l0,0c0,0.6-0.4,1-1,1l0,0C83.2,27,82.7,26.6,82.7,26z M82.7,20c0-0.6,0.4-1,1-1l0,0
		c0.6,0,1,0.4,1,1l0,0c0,0.6-0.4,1-1,1l0,0C83.2,21,82.7,20.6,82.7,20z M82.7,14c0-0.6,0.4-1,1-1l0,0c0.6,0,1,0.4,1,1l0,0
		c0,0.6-0.4,1-1,1l0,0C83.2,15,82.7,14.6,82.7,14z M82.7,8c0-0.6,0.4-1,1-1l0,0c0.6,0,1,0.4,1,1l0,0c0,0.6-0.4,1-1,1l0,0
		C83.2,9,82.7,8.6,82.7,8z M82.7,2c0-0.6,0.4-1,1-1l0,0c0.6,0,1,0.4,1,1l0,0c0,0.6-0.4,1-1,1l0,0C83.2,3,82.7,2.6,82.7,2z"/>
	<polygon class="st5" points="60.4,10.6 64,12.3 67.3,9 67.3,2.4 64,6.1 60.4,4.4 	"/>
	<path class="st4" d="M64,13.3c-0.2,0-0.3,0-0.4-0.1L60,11.5c-0.3-0.2-0.6-0.5-0.6-0.9V4.4c0-0.6,0.4-1,1-1c0.2,0,0.3,0,0.4,0.1
		l2.9,1.4l2.8-3.2c0.4-0.4,1-0.4,1.4-0.1c0.2,0.2,0.3,0.5,0.3,0.7V9c0,0.3-0.1,0.5-0.3,0.7L64.7,13C64.5,13.2,64.3,13.3,64,13.3z
		 M61.4,10l2.4,1.2l2.5-2.6V5l-1.6,1.8C64.4,7.1,64,7.2,63.6,7l-2.2-1V10z"/>
	<path class="st6" d="M64,52.3c4.8,0.1,9.6-1,13.9-3.3c3.8-2.2,5.7-5.1,5.7-8v6c0,2.9-1.9,5.8-5.7,8c-4.2,2.3-9,3.4-13.8,3.3"/>
	<path class="st6" d="M64.1,58.3c-4.8,0.1-9.6-1-13.8-3.3c-3.9-2.2-5.8-5.1-5.8-8.1v-6c0,2.9,1.9,5.8,5.8,8.1
		c4.2,2.3,9,3.4,13.8,3.3"/>
	<ellipse transform="matrix(2.827390e-03 -1 1 2.827390e-03 22.8969 104.8858)" class="st3" cx="64" cy="41" rx="11.3" ry="19.6"/>
	<path class="st4" d="M64.1,53.3c-5,0.1-9.9-1.1-14.3-3.4c-4-2.3-6.3-5.5-6.3-8.9c0-3.4,2.2-6.5,6.2-8.9c7.9-4.6,20.7-4.6,28.7,0
		l0,0c4,2.3,6.3,5.5,6.3,8.9s-2.2,6.5-6.2,8.8C74,52.2,69.1,53.4,64.1,53.3z M63.9,30.6c-4.6-0.1-9.2,1-13.3,3.2
		c-3.3,1.9-5.2,4.5-5.2,7.1c0,2.7,1.9,5.2,5.3,7.2c7.4,4.3,19.3,4.3,26.7,0c3.3-1.9,5.2-4.5,5.2-7.1c0-2.7-1.9-5.2-5.3-7.2
		C73.2,31.6,68.6,30.5,63.9,30.6z"/>
	<ellipse transform="matrix(2.999973e-03 -1 1 2.999973e-03 23.0804 104.6233)" class="st5" cx="64" cy="40.7" rx="8.4" ry="15"/>
	<ellipse transform="matrix(2.670338e-03 -1 1 2.670338e-03 23.1272 104.5952)" class="st3" cx="64" cy="40.7" rx="5.6" ry="10"/>
	<ellipse transform="matrix(2.670061e-03 -1 1 2.670061e-03 23.1272 104.5952)" class="st5" cx="64" cy="40.7" rx="2.8" ry="5"/>
	<ellipse transform="matrix(2.827463e-03 -1 1 2.827463e-03 22.8969 104.8858)" class="st3" cx="64" cy="41" rx="0.6" ry="1"/>
	<path class="st4" d="M64,41.9c-0.6,0-1-0.4-1-1V6.1c0-0.6,0.4-1,1-1s1,0.4,1,1v34.7C65,41.4,64.5,41.9,64,41.9z"/>
	<path class="st5" d="M64.1,53.3c-5,0.1-9.9-1.1-14.3-3.4c-4-2.3-6.3-5.5-6.3-8.9c0-0.6,0.4-1,1-1l0,0l0,0c0.6,0,1,0.4,1,1
		c0,2.7,1.9,5.2,5.3,7.2c7.4,4.3,19.3,4.3,26.7,0c3.4-2,5.2-4.5,5.2-7.1c0-0.6,0.4-1,1-1l0,0l0,0c0.6,0,1,0.4,1,1
		c0,3.4-2.2,6.6-6.2,8.9C74,52.2,69.1,53.4,64.1,53.3z"/>
	<path class="st4" d="M44.4,42c-0.5,0-1-0.4-1-1c0-3.4,2.2-6.6,6.2-8.9c7.9-4.6,20.7-4.6,28.7,0c4,2.3,6.3,5.5,6.3,8.9
		c0,0.6-0.4,1-1,1l0,0c-0.5,0-1-0.4-1-1c0-2.7-1.9-5.2-5.3-7.2c-7.4-4.3-19.3-4.3-26.7,0c-3.4,2-5.2,4.5-5.2,7.1
		C45.4,41.5,45,42,44.4,42L44.4,42z"/>
	<path class="st4" d="M64.1,59.3c-5,0.1-9.9-1.1-14.3-3.4c-5.4-3.3-6.4-6.7-6.3-9v-6c0-0.6,0.4-1,1-1l0,0c0.6,0,1,0.4,1,1v6
		c-0.2,3.2,2.8,5.7,5.3,7.2c7.4,4.2,19.3,4.2,26.6,0c3.3-1.9,5.2-4.5,5.2-7.1v-6c0-0.6,0.4-1,1-1l0,0c0.6,0,1,0.4,1,1v6
		c0,3.4-2.2,6.5-6.2,8.8C74,58.2,69,59.4,64.1,59.3z"/>
	<path class="st2" d="M64,127c-0.2,0-0.3,0-0.5-0.1l-39.2-22.6c-0.3-0.2-0.5-0.5-0.5-0.9V90.3c0-0.4,0.2-0.7,0.5-0.9l39.2-22.6
		c0.3-0.2,0.7-0.2,1,0l39.2,22.6c0.3,0.2,0.5,0.5,0.5,0.9v13.1c0,0.4-0.2,0.7-0.5,0.9l-39.2,22.6C64.3,127,64.2,127,64,127z
		 M25.8,102.8l38.2,22l38.2-22V90.9L64,68.9l-38.2,22V102.8z"/>
	<path class="st1" d="M63.9,102.6c-0.6,0-1-0.4-1-1l0,0c0-0.6,0.4-1,1-1l0,0c0.5,0,1,0.4,1,1l0,0l0,0
		C64.9,102.2,64.4,102.6,63.9,102.6L63.9,102.6z M57.5,102.1c-0.5-0.1-0.9-0.6-0.8-1.2l0,0c0.1-0.5,0.6-0.9,1.2-0.8l0,0l0,0
		c0.5,0.1,0.9,0.6,0.8,1.2l0,0l0,0c-0.1,0.5-0.5,0.8-1,0.8l0,0C57.7,102.1,57.6,102.1,57.5,102.1z M69,101.2
		c-0.1-0.5,0.3-1.1,0.8-1.2l0,0c0.5-0.1,1.1,0.3,1.2,0.8l0,0l0,0c0.1,0.5-0.2,1.1-0.8,1.2l0,0c-0.1,0-0.1,0-0.2,0l0,0
		C69.5,102.1,69.1,101.7,69,101.2z M51.5,100.2c-0.5-0.2-0.7-0.8-0.5-1.3l0,0c0.2-0.5,0.8-0.7,1.3-0.5l0,0l0,0
		c0.5,0.2,0.7,0.8,0.5,1.3l0,0c-0.2,0.4-0.5,0.6-0.9,0.6l0,0C51.7,100.3,51.6,100.2,51.5,100.2z M75,99.7c-0.2-0.5,0-1.1,0.5-1.3
		l0,0l0,0c0.5-0.2,1.1,0,1.3,0.5l0,0c0.2,0.5,0,1.1-0.5,1.3l0,0c-0.1,0.1-0.3,0.1-0.4,0.1l0,0C75.5,100.3,75.1,100,75,99.7z
		 M46,96.6c-0.4-0.4-0.4-1,0-1.4l0,0c0.4-0.4,1-0.4,1.4,0l0,0c0.4,0.4,0.4,1,0,1.4l0,0c-0.2,0.2-0.4,0.3-0.7,0.3l0,0
		C46.5,96.8,46.2,96.7,46,96.6z M80.3,96.5c-0.4-0.4-0.4-1,0-1.4l0,0c0.4-0.4,1-0.4,1.4,0l0,0c0.4,0.4,0.4,1,0,1.4l0,0
		c-0.2,0.2-0.4,0.3-0.7,0.3l0,0C80.7,96.8,80.4,96.7,80.3,96.5z M43.3,90.4c0-0.6,0.4-1,1-1l0,0c0.6,0,1,0.4,1,1l0,0l0,0
		c0,0.5-0.4,1-1,1l0,0l0,0C43.7,91.4,43.3,90.9,43.3,90.4L43.3,90.4z M82.4,90.3L82.4,90.3L82.4,90.3L82.4,90.3L82.4,90.3
		c0-0.6,0.4-1.1,1-1.1l0,0l0,0c0.5,0,1,0.4,1,1l0,0l0,0v0.1l0,0l0,0l0,0c0,0.6-0.4,1-1,1l0,0C82.9,91.3,82.4,90.9,82.4,90.3z
		 M46,85.6c-0.4-0.4-0.4-1,0-1.4l0,0c0.4-0.4,1-0.4,1.4,0l0,0c0.4,0.4,0.4,1,0,1.4l0,0c-0.2,0.2-0.4,0.3-0.7,0.3l0,0
		C46.5,85.9,46.2,85.8,46,85.6z M80.2,85.5L80.2,85.5c-0.4-0.4-0.4-1,0-1.4l0,0l0,0c0.4-0.4,1-0.4,1.4,0l0,0c0.4,0.4,0.4,1,0,1.4
		l0,0l0,0c-0.2,0.2-0.4,0.3-0.7,0.3l0,0C80.6,85.8,80.4,85.7,80.2,85.5z M50.9,81.9c-0.2-0.5,0-1.1,0.5-1.3l0,0
		c0.5-0.2,1.1,0,1.3,0.5l0,0c0.2,0.5,0,1.1-0.5,1.3l0,0c-0.1,0.1-0.3,0.1-0.4,0.1l0,0C51.4,82.5,51,82.2,50.9,81.9z M75.4,82.3
		c-0.5-0.2-0.7-0.8-0.5-1.3l0,0c0.2-0.5,0.8-0.7,1.3-0.5l0,0l0,0c0.5,0.2,0.7,0.8,0.5,1.3l0,0l0,0c-0.2,0.4-0.5,0.6-0.9,0.6l0,0
		C75.7,82.4,75.5,82.4,75.4,82.3z M56.7,79.8c-0.1-0.5,0.2-1.1,0.8-1.2l0,0c0.5-0.1,1.1,0.3,1.2,0.8l0,0l0,0
		c0.1,0.5-0.2,1.1-0.8,1.2l0,0c-0.1,0-0.1,0-0.2,0l0,0C57.2,80.6,56.8,80.3,56.7,79.8z M69.7,80.6c-0.5-0.1-0.9-0.6-0.8-1.2l0,0
		c0.1-0.5,0.6-0.9,1.2-0.8l0,0c0.5,0.1,0.9,0.6,0.8,1.2l0,0c-0.1,0.5-0.5,0.8-1,0.8l0,0C69.9,80.6,69.8,80.6,69.7,80.6z M63.8,80
		c-0.6,0-1-0.4-1-1l0,0c0-0.6,0.4-1,1-1l0,0c0.6,0,1,0.4,1,1l0,0C64.8,79.6,64.3,80,63.8,80z"/>
	<rect x="1" y="1" class="st7" width="126" height="126"/>
	<rect class="st7" width="128" height="128"/>
</g>
</svg>
