<?xml version="1.0" encoding="utf-8"?>
<!-- Generator: Adobe Illustrator 24.1.0, SVG Export Plug-In . SVG Version: 6.00 Build 0)  -->
<svg version="1.1" id="Layer_1" xmlns="http://www.w3.org/2000/svg" xmlns:xlink="http://www.w3.org/1999/xlink" x="0px" y="0px"
	 viewBox="0 0 128 128" style="enable-background:new 0 0 128 128;" xml:space="preserve">
<style type="text/css">
	.st0{fill:#E9EBDF;}
	.st1{fill:#FFFFFF;}
	.st2{fill:#4D9987;}
	.st3{fill:#0E352C;}
	.st4{fill:#C4D7D3;}
	.st5{fill:#27ae60;}
	.st6{fill:#185849;}
	.st7{fill:none;}
</style>
<g>
	<path class="st0" d="M51.6,18l-18-10.4c-0.6-0.3-1.2-0.3-1.8,0L13.8,18c-0.2,0.1-0.4,0.3-0.4,0.5v6.6c0,0.2,0.2,0.4,0.4,0.5
		l18,10.4c0.6,0.3,1.2,0.3,1.8,0l18-10.4c0.2-0.1,0.4-0.3,0.4-0.5v-6.6C51.9,18.3,51.8,18.1,51.6,18z"/>
	<path class="st0" d="M32.7,7.4c-0.3,0-0.6,0.1-0.9,0.2L13.8,18c-0.2,0.1-0.4,0.3-0.4,0.5v6.6c0,0.2,0.2,0.4,0.4,0.5l18,10.4
		c0.3,0.1,0.6,0.2,0.9,0.2V7.4z"/>
	<path class="st1" d="M51.6,18l-18-10.4c-0.6-0.3-1.2-0.3-1.8,0L13.8,18c-0.3,0.1-0.4,0.4-0.3,0.7c0.1,0.2,0.2,0.3,0.3,0.3l18,10.4
		c0.6,0.3,1.2,0.3,1.8,0l18-10.4c0.3-0.1,0.4-0.4,0.3-0.7C51.9,18.2,51.7,18.1,51.6,18z"/>
	<path class="st1" d="M51.6,18l-18-10.4c-0.6-0.3-1.2-0.3-1.8,0L13.8,18c-0.3,0.1-0.4,0.4-0.3,0.7c0.1,0.2,0.2,0.3,0.3,0.3l18,10.4
		c0.6,0.3,1.2,0.3,1.8,0l18-10.4c0.3-0.1,0.4-0.4,0.3-0.7C51.9,18.2,51.7,18.1,51.6,18z"/>
	<path class="st2" d="M32.7,30.7c-0.5,0-1-0.1-1.4-0.4L13.3,20c-0.8-0.4-1.1-1.3-0.7-2.1c0.2-0.3,0.4-0.6,0.7-0.7l18-10.4
		c0.9-0.5,1.9-0.5,2.8,0l18,10.4c0.8,0.4,1.1,1.3,0.7,2.1c-0.2,0.3-0.4,0.6-0.7,0.7l-18,10.4C33.7,30.6,33.2,30.7,32.7,30.7z
		 M14.9,18.6l17.4,10c0.3,0.1,0.6,0.1,0.8,0l17.4-10l-17.4-10c-0.3-0.1-0.6-0.1-0.8,0L14.9,18.6z"/>
	<path class="st3" d="M32.7,37.3c-0.5,0-1-0.1-1.4-0.4l-18-10.4c-0.5-0.3-0.9-0.8-0.9-1.4v-6.6c0-0.6,0.4-1.1,0.9-1.4l18-10.4
		c0.9-0.5,1.9-0.5,2.8,0l18,10.4c0.5,0.3,0.9,0.8,0.9,1.4v6.6c0,0.6-0.4,1.1-0.9,1.4L34.1,37C33.7,37.2,33.2,37.3,32.7,37.3z
		 M14.4,24.9l17.9,10.3c0.3,0.1,0.6,0.1,0.8,0L51,24.9v-6.1L33.1,8.5c-0.3-0.1-0.6-0.1-0.8,0L14.4,18.8V24.9z"/>
	<path class="st1" d="M38.9,18.4L33,15c-0.2-0.1-0.4-0.1-0.6,0l-5.9,3.4c-0.1,0-0.1,0.1-0.1,0.2s0.1,0.1,0.1,0.1l5.9,3.4
		c0.2,0.1,0.4,0.1,0.6,0l5.9-3.4c0.1,0,0.1-0.1,0.1-0.2C39,18.5,39,18.4,38.9,18.4z"/>
	<path class="st0" d="M32.7,23.2c-0.3,0-0.6-0.1-0.8-0.2L26,19.6c-0.6-0.3-0.8-1-0.5-1.6c0.1-0.2,0.3-0.4,0.5-0.5l5.9-3.4
		c0.5-0.3,1.1-0.3,1.6,0l5.9,3.4l0,0c0.6,0.3,0.8,1,0.5,1.6c-0.1,0.2-0.3,0.4-0.5,0.5L33.5,23C33.2,23.2,33,23.2,32.7,23.2z
		 M28.2,18.6l4.5,2.6l4.5-2.6L32.7,16L28.2,18.6z"/>
	<path class="st3" d="M69.7,85.9c-0.1,0-0.3,0-0.4-0.1s-0.2-0.1-0.3-0.2c-0.1-0.1-0.2-0.2-0.2-0.3c-0.1-0.1-0.1-0.2-0.1-0.4
		c0-0.1,0-0.3,0.1-0.4c0-0.1,0.1-0.2,0.2-0.3c0.3-0.3,0.7-0.4,1.1-0.2c0.1,0,0.2,0.1,0.3,0.2c0.1,0.1,0.2,0.2,0.2,0.3
		c0,0.1,0.1,0.3,0.1,0.4s0,0.3-0.1,0.4s-0.1,0.2-0.2,0.3C70.3,85.8,70,85.9,69.7,85.9z"/>
	<path class="st3" d="M73.7,82.6c-0.3-0.5-0.1-1.1,0.4-1.4l0,0c0.5-0.3,1.1-0.1,1.4,0.4l0,0l0,0c0.3,0.5,0.1,1.1-0.4,1.4l0,0
		c-0.2,0.1-0.3,0.1-0.5,0.1l0,0C74.2,83.1,73.8,82.9,73.7,82.6z M78.4,79.8c-0.3-0.5-0.1-1.1,0.3-1.4l0,0l0,0
		c0.5-0.3,1.1-0.1,1.4,0.4l0,0l0,0c0.3,0.5,0.1,1.1-0.4,1.4l0,0c-0.1,0.1-0.3,0.1-0.5,0.1l0,0C78.9,80.3,78.6,80.2,78.4,79.8z
		 M83.2,77.1c-0.3-0.5-0.1-1.1,0.4-1.4l0,0c0.5-0.3,1.1-0.1,1.3,0.3l0,0l0,0c0.3,0.5,0.1,1.1-0.4,1.4l0,0c-0.2,0.1-0.3,0.1-0.5,0.1
		l0,0C83.7,77.6,83.4,77.4,83.2,77.1z"/>
	<path class="st3" d="M88.8,74.8c-0.6,0-1-0.5-1-1c0-0.3,0.1-0.5,0.3-0.7c0.4-0.4,1-0.4,1.4,0l0,0c0.2,0.2,0.3,0.4,0.3,0.7
		c0,0.1,0,0.3-0.1,0.4s-0.1,0.2-0.2,0.3C89.4,74.7,89.1,74.8,88.8,74.8z"/>
	<path class="st0" d="M120.4,57.8l-18-10.4c-0.6-0.3-1.2-0.3-1.8,0l-18,10.4c-0.2,0.1-0.4,0.3-0.4,0.5V65c0,0.2,0.2,0.4,0.4,0.5
		l18,10.4c0.6,0.3,1.2,0.3,1.8,0l18-10.4c0.2-0.1,0.4-0.3,0.4-0.5v-6.6C120.8,58.1,120.6,57.9,120.4,57.8z"/>
	<path class="st0" d="M101.5,47.2c-0.3,0-0.6,0.1-0.9,0.2l-18,10.4c-0.2,0.1-0.4,0.3-0.4,0.5V65c0,0.2,0.2,0.4,0.4,0.5l18,10.4
		c0.3,0.1,0.6,0.2,0.9,0.2V47.2z"/>
	<path class="st1" d="M120.4,57.8l-18-10.4c-0.6-0.3-1.2-0.3-1.8,0l-18,10.4c-0.3,0.1-0.4,0.4-0.3,0.7c0.1,0.2,0.2,0.3,0.3,0.3
		l18,10.4c0.6,0.3,1.2,0.3,1.8,0l18-10.4c0.3-0.1,0.4-0.4,0.3-0.7C120.7,58,120.6,57.9,120.4,57.8z"/>
	<path class="st1" d="M120.4,57.8l-18-10.4c-0.6-0.3-1.2-0.3-1.8,0l-18,10.4c-0.3,0.1-0.4,0.4-0.3,0.7c0.1,0.2,0.2,0.3,0.3,0.3
		l18,10.4c0.6,0.3,1.2,0.3,1.8,0l18-10.4c0.3-0.1,0.4-0.4,0.3-0.7C120.7,58,120.6,57.9,120.4,57.8z"/>
	<path class="st2" d="M101.5,70.5c-0.5,0-1-0.1-1.4-0.4l-18-10.4c-0.8-0.4-1.1-1.3-0.7-2.1c0.2-0.3,0.4-0.6,0.7-0.7l18-10.4
		c0.9-0.5,1.9-0.5,2.8,0l18,10.4c0.8,0.4,1.1,1.3,0.7,2.1c-0.2,0.3-0.4,0.6-0.7,0.7l-18,10.4C102.5,70.4,102,70.5,101.5,70.5z
		 M83.7,58.3l17.4,10c0.3,0.1,0.6,0.1,0.8,0l17.4-10l-17.4-10c-0.3-0.1-0.6-0.1-0.8,0L83.7,58.3z"/>
	<path class="st3" d="M101.5,77.1c-0.5,0-1-0.1-1.4-0.4l-18-10.4c-0.5-0.3-0.9-0.8-0.9-1.4v-6.6c0-0.6,0.4-1.1,0.9-1.4l18-10.4
		c0.9-0.5,1.9-0.5,2.8,0l18,10.4c0.5,0.3,0.9,0.8,0.9,1.4V65c0,0.6-0.4,1.1-0.9,1.4l-18,10.4C102.5,77,102,77.1,101.5,77.1z
		 M83.3,64.7L101.1,75c0.3,0.1,0.6,0.1,0.8,0l17.9-10.3v-6.1l-17.9-10.3c-0.3-0.1-0.6-0.1-0.8,0L83.3,58.6V64.7z"/>
	<path class="st1" d="M107.8,58.2l-5.9-3.4c-0.2-0.1-0.4-0.1-0.6,0l-5.9,3.4c-0.1,0-0.1,0.1-0.1,0.2c0,0.1,0.1,0.1,0.1,0.1l5.9,3.4
		c0.2,0.1,0.4,0.1,0.6,0l5.9-3.4C107.9,58.5,107.9,58.4,107.8,58.2C107.9,58.2,107.8,58.2,107.8,58.2z"/>
	<path class="st0" d="M101.5,63c-0.3,0-0.6-0.1-0.8-0.2l-5.9-3.4c-0.6-0.3-0.8-1-0.5-1.6c0.1-0.2,0.3-0.4,0.5-0.5l5.9-3.4
		c0.5-0.3,1.1-0.3,1.6,0l5.9,3.4l0,0c0.6,0.3,0.8,1,0.5,1.6c-0.1,0.2-0.3,0.4-0.5,0.5l-5.9,3.4C102.1,62.9,101.8,63,101.5,63z
		 M97,58.3l4.5,2.6l4.5-2.6l-4.5-2.6L97,58.3z"/>
	<path class="st1" d="M73.4,38.3l-5.9-3.4c-0.2-0.1-0.4-0.1-0.6,0L61,38.3c-0.1,0-0.1,0.1-0.1,0.2c0,0.1,0.1,0.1,0.1,0.1l5.9,3.4
		c0.2,0.1,0.4,0.1,0.6,0l5.9-3.4C73.5,38.6,73.5,38.5,73.4,38.3C73.5,38.3,73.4,38.3,73.4,38.3z"/>
	<path class="st4" d="M67.1,43.1c-0.3,0-0.6-0.1-0.8-0.2l-5.9-3.4c-0.6-0.3-0.8-1-0.5-1.6c0.1-0.2,0.3-0.4,0.5-0.5l5.9-3.4
		c0.5-0.3,1.1-0.3,1.6,0l5.9,3.4l0,0c0.6,0.3,0.8,1,0.5,1.6c-0.1,0.2-0.3,0.4-0.5,0.5l-5.9,3.4C67.7,43,67.4,43.1,67.1,43.1z
		 M62.6,38.4l4.5,2.6l4.5-2.6l-4.5-2.6L62.6,38.4z"/>
	<polygon class="st1" points="65.5,86.2 36.4,69.4 7.2,86.1 7.2,103.7 36.3,120.6 65.5,103.8 	"/>
	<path class="st3" d="M36.3,121.6c-0.2,0-0.3,0-0.5-0.1L6.7,104.6c-0.3-0.2-0.5-0.5-0.5-0.9V86.1c0-0.4,0.2-0.7,0.5-0.9l29.2-16.8
		c0.3-0.2,0.7-0.2,1,0l29.1,17c0.3,0.2,0.5,0.5,0.5,0.9v17.6c0,0.4-0.2,0.7-0.5,0.9l-29.2,16.8C36.6,121.5,36.5,121.6,36.3,121.6z
		 M8.2,103.1l28.1,16.3l28.2-16.2V86.8L36.4,70.5L8.2,86.7V103.1z"/>
	<polygon class="st4" points="65.5,103.8 36.3,120.6 36.3,103 65.5,86.2 	"/>
	<polygon class="st4" points="7.2,103.7 36.3,120.6 36.3,103 7.2,86.1 	"/>
	<path class="st5" d="M50.9,95.6c-0.2,0-0.3,0-0.5-0.1L35.8,87c-0.5-0.3-0.6-0.9-0.4-1.4c0.1-0.2,0.2-0.3,0.4-0.4l14.6-8.4
		c0.3-0.2,0.7-0.2,1,0L66,85.4c0.5,0.3,0.6,0.9,0.4,1.4c-0.1,0.2-0.2,0.3-0.4,0.4l-14.6,8.4C51.2,95.6,51.1,95.6,50.9,95.6z
		 M38.3,86.2l12.6,7.3l12.6-7.2L50.9,79L38.3,86.2z"/>
	<path class="st5" d="M50.9,113.2c-0.6,0-1-0.4-1-1V94.6c0-0.6,0.4-1,1-1s1,0.4,1,1v17.5C51.9,112.7,51.4,113.2,50.9,113.2z"/>
	<ellipse class="st5" cx="14.7" cy="86.1" rx="1.4" ry="0.8"/>
	<ellipse class="st5" cx="36.3" cy="98.7" rx="1.4" ry="0.8"/>
	<path class="st5" d="M36.3,112.8c-0.2,0-0.3,0-0.5-0.1L6.7,95.8c-0.5-0.3-0.6-0.9-0.3-1.4c0.3-0.4,0.8-0.6,1.3-0.3l28.6,16.6
		L65,94.2c0.5-0.3,1.1-0.1,1.4,0.4s0.1,1.1-0.4,1.4l-29.2,16.8C36.7,112.8,36.5,112.8,36.3,112.8z"/>
	<path class="st5" d="M36.3,103.8c-0.2,0-0.3,0-0.5-0.1L6.7,87c-0.5-0.3-0.6-0.9-0.3-1.4c0.3-0.4,0.8-0.6,1.3-0.3l28.6,16.4L65,85.3
		c0.5-0.3,1.1-0.1,1.4,0.4s0.1,1.1-0.4,1.4l0,0l-29.1,16.6C36.7,103.8,36.5,103.8,36.3,103.8z"/>
	<path class="st6" d="M36.3,121.6c-0.2,0-0.3,0-0.5-0.1L6.7,104.6c-0.3-0.2-0.5-0.5-0.5-0.9V86.1c0-0.4,0.2-0.7,0.5-0.9l29.2-16.8
		c0.3-0.2,0.7-0.2,1,0l29.1,17c0.3,0.2,0.5,0.5,0.5,0.9v17.6c0,0.4-0.2,0.7-0.5,0.9l-29.2,16.8C36.6,121.5,36.5,121.6,36.3,121.6z
		 M8.2,103.1l28.1,16.3l28.2-16.2V86.8L36.4,70.5L8.2,86.7V103.1z"/>
	<ellipse class="st5" cx="36.4" cy="73.7" rx="1.4" ry="0.8"/>
	<path class="st0" d="M86,37.9L68,27.5c-0.6-0.3-1.2-0.3-1.8,0l-18,10.4c-0.2,0.1-0.4,0.3-0.4,0.5V45c0,0.2,0.2,0.4,0.4,0.5l18,10.4
		c0.6,0.3,1.2,0.3,1.8,0l18-10.4c0.2-0.1,0.4-0.3,0.4-0.5v-6.6C86.4,38.2,86.2,38,86,37.9z"/>
	<path class="st0" d="M67.1,27.3c-0.3,0-0.6,0.1-0.9,0.2l-18,10.4c-0.2,0.1-0.4,0.3-0.4,0.5V45c0,0.2,0.2,0.4,0.4,0.5l18,10.4
		c0.3,0.1,0.6,0.2,0.9,0.2V27.3z"/>
	<path class="st1" d="M86,37.9L68,27.5c-0.6-0.3-1.2-0.3-1.8,0l-18,10.4c-0.3,0.1-0.4,0.4-0.3,0.7c0.1,0.2,0.2,0.3,0.3,0.3l18,10.4
		c0.6,0.3,1.2,0.3,1.8,0L86,39c0.3-0.1,0.4-0.4,0.3-0.7C86.3,38.1,86.2,38,86,37.9z"/>
	<path class="st1" d="M86,37.9L68,27.5c-0.6-0.3-1.2-0.3-1.8,0l-18,10.4c-0.3,0.1-0.4,0.4-0.3,0.7c0.1,0.2,0.2,0.3,0.3,0.3l18,10.4
		c0.6,0.3,1.2,0.3,1.8,0L86,39c0.3-0.1,0.4-0.4,0.3-0.7C86.3,38.1,86.2,38,86,37.9z"/>
	<path class="st2" d="M67.1,50.6c-0.5,0-1-0.1-1.4-0.4l-18-10.4c-0.8-0.4-1.1-1.3-0.7-2.1c0.2-0.3,0.4-0.6,0.7-0.7l18-10.4
		c0.9-0.5,1.9-0.5,2.8,0l18,10.4c0.8,0.4,1.1,1.3,0.7,2.1c-0.2,0.3-0.4,0.6-0.7,0.7l-18,10.4C68.1,50.4,67.6,50.6,67.1,50.6z
		 M49.3,38.4l17.4,10c0.3,0.1,0.6,0.1,0.8,0l17.4-10l-17.4-10c-0.3-0.1-0.6-0.1-0.8,0L49.3,38.4z"/>
	<path class="st3" d="M67.1,57.2c-0.5,0-1-0.1-1.4-0.4l-18-10.4c-0.5-0.3-0.9-0.8-0.9-1.4v-6.6c0-0.6,0.4-1.1,0.9-1.4l18-10.4
		c0.9-0.5,1.9-0.5,2.8,0l18,10.4c0.5,0.3,0.9,0.8,0.9,1.4V45c0,0.6-0.4,1.1-0.9,1.4l-18,10.4C68.1,57.1,67.6,57.2,67.1,57.2z
		 M48.9,44.8l17.9,10.3c0.3,0.1,0.6,0.1,0.8,0l17.9-10.3v-6.1l-18-10.3c-0.3-0.1-0.6-0.1-0.8,0L48.9,38.7V44.8z"/>
	<path class="st1" d="M73.4,38.3l-5.9-3.4c-0.2-0.1-0.4-0.1-0.6,0L61,38.3c-0.1,0-0.1,0.1-0.1,0.2c0,0.1,0.1,0.1,0.1,0.1l5.9,3.4
		c0.2,0.1,0.4,0.1,0.6,0l5.9-3.4C73.5,38.6,73.5,38.5,73.4,38.3C73.5,38.3,73.4,38.3,73.4,38.3z"/>
	<path class="st0" d="M67.1,43.1c-0.3,0-0.6-0.1-0.8-0.2l-5.9-3.4c-0.6-0.3-0.8-1-0.5-1.6c0.1-0.2,0.3-0.4,0.5-0.5l5.9-3.4
		c0.5-0.3,1.1-0.3,1.6,0l5.9,3.4l0,0c0.6,0.3,0.8,1,0.5,1.6c-0.1,0.2-0.3,0.4-0.5,0.5l-5.9,3.4C67.7,43,67.4,43.1,67.1,43.1z
		 M62.6,38.4l4.5,2.6l4.5-2.6l-4.5-2.6L62.6,38.4z"/>
	<path class="st4" d="M50.9,90.4c-0.3,0-0.5-0.1-0.8-0.2l-5.1-3c-0.6-0.3-0.8-1-0.5-1.6c0.1-0.2,0.3-0.4,0.5-0.5l5.1-3
		c0.5-0.3,1-0.3,1.5,0l5.1,3c0.6,0.3,0.8,1,0.5,1.6c-0.1,0.2-0.3,0.4-0.5,0.5l-5.1,3C51.4,90.3,51.2,90.4,50.9,90.4z M47.3,86.2
		l3.6,2.1l3.6-2.1l-3.6-2.1L47.3,86.2z"/>
	<rect x="1" y="1" class="st7" width="126" height="126"/>
	<rect class="st7" width="128" height="128"/>
</g>
</svg>
