<?xml version="1.0" encoding="utf-8"?>
<!-- Generator: Adobe Illustrator 24.1.0, SVG Export Plug-In . SVG Version: 6.00 Build 0)  -->
<svg version="1.1" id="Layer_1" xmlns="http://www.w3.org/2000/svg" xmlns:xlink="http://www.w3.org/1999/xlink" x="0px" y="0px"
	 viewBox="0 0 128 128" style="enable-background:new 0 0 128 128;" xml:space="preserve">
<style type="text/css">
	.st0{fill:none;}
	.st1{fill:#C4D7D3;}
	.st2{fill:#27ae60;}
	.st3{fill:#185849;}
	.st4{fill:#FFFFFF;}
</style>
<g>
	<rect x="1" y="1" class="st0" width="126" height="126"/>
	<path class="st1" d="M96.6,58.5l-5.1,30l-2.8-1.2c-0.6-0.4-1-1.1-0.8-1.8l5-29.2L96.6,58.5z"/>
	<polygon class="st2" points="96.6,58.5 104.8,53.8 99.6,84.3 91.5,88.5 	"/>
	<path class="st3" d="M91.4,89.5c-0.7,0-1.4-0.2-2-0.5l-1.2-0.7c-1-0.6-1.6-1.8-1.4-3l5-29.1c0.1-0.3,0.2-0.6,0.5-0.7l8.2-4.7
		c0.3-0.2,0.7-0.2,1,0l3.8,2.2c0.4,0.2,0.5,0.6,0.5,1l-4.9,28.6c-0.2,1.4-1.1,2.7-2.4,3.4l-5.2,3C92.8,89.3,92.1,89.5,91.4,89.5z
		 M93.8,56.9l-4.9,28.7c-0.1,0.4,0.1,0.8,0.4,1l1.2,0.7c0.6,0.3,1.3,0.4,1.9,0l5.2-2.9c0.7-0.4,1.3-1.2,1.4-2l4.8-28l-2.7-1.6
		L93.8,56.9z"/>
	<path class="st4" d="M79.6,32.1c-6,3.5-12.6,5.9-19.5,7l-29.8,1.5c-3.4,2-2.8,12.1-2.8,18.1c0,12.1,8.5,26.9,19,32.9
		c5.3,3.1,13.6,8.8,17,6.8l16.2-25.2c4.5-5.5,9.9-10.1,16-13.6l0,0c1.8-11.3-4.2-22.3-14.6-27L79.6,32.1z"/>
	<path class="st1" d="M96.1,25.7c-3.7-2.1-7.1-2.3-9.5-1s-14.9,8.6-14.9,8.6c-0.2,0.1-0.3,0.2-0.5,0.3c2-1.3,4.6-1.6,6.9-0.7l0,0
		c4,1.7,7.5,4.3,10.2,7.7c3.8,4.9,6.3,11.2,6.3,16.8c0,1.1-0.1,2.2-0.4,3.3c-0.4,2.4-1.9,4.4-4,5.5c0.1-0.1,0.3-0.1,0.4-0.2
		c2.4-1.4,12.5-7.2,14.9-8.6s3.9-4.4,4-8.6C109.5,40.3,103.5,30,96.1,25.7z"/>
	<path class="st1" d="M78.1,32.9L78.1,32.9c-4.3-1.3-7.8,0.2-9.4,4.1c1.5-0.5,2.9-1,4.4-1.6c0.3-0.1,0.5-0.3,0.8-0.4
		c2-0.7,4.5-0.3,7.3,1.3C87.7,40,92.9,49,92.9,56.4c0,3.2-1,5.6-2.6,6.9c-0.1,0.1-0.2,0.2-0.3,0.2c-1.4,1-2.7,2.1-3.9,3.2
		c4.1,0.5,7.2-1.7,8.2-6.1c0.2-1.1,0.4-2.2,0.4-3.3c0-5.3-2.3-11.4-5.9-16.2C85.9,37.6,82.3,34.7,78.1,32.9z"/>
	<path class="st1" d="M89.5,40.6c-2.8-3.8-6.6-6.7-11-8.6h-0.1h-0.1c-1-0.3-2.1-0.5-3.2-0.5c-3.3,0-6.3,2-7.4,5.1l-0.8,2l2.1-0.7
		c1.5-0.5,3-1.1,4.4-1.7l0,0l0,0c0.2-0.1,0.5-0.2,0.7-0.3c0.6-0.2,1.2-0.3,1.8-0.3c1.7,0.1,3.3,0.6,4.7,1.5
		c6.2,3.6,11.2,12.2,11.1,19.3c0,2.8-0.8,5-2.3,6.2c-0.1,0-0.1,0.1-0.2,0.1l-0.1,0.1c-1.4,1-2.7,2.1-4,3.3l-1.6,1.5l2.2,0.3
		C86.1,68,86.5,68,87,68c4,0,7-2.6,8-7c0.3-1.1,0.4-2.3,0.4-3.5C95.6,52.1,93.3,45.8,89.5,40.6z"/>
	<path class="st3" d="M90.7,67c-0.6,0-1-0.4-1-1c0-0.3,0.1-0.5,0.3-0.7c0.4-0.4,1-0.4,1.4,0s0.4,1,0,1.4c-0.1,0.1-0.2,0.1-0.3,0.2
		l0,0C91,67,90.8,67,90.7,67z"/>
	<path class="st3" d="M90.6,67.1c-0.6,0-1-0.4-1-1c0-0.3,0.1-0.6,0.4-0.8c0,0,0.1-0.1,0.2-0.1l0,0l0,0c0.5-0.3,1.1-0.1,1.4,0.4
		c0.2,0.4,0.1,1-0.3,1.3c0,0-0.1,0-0.1,0.1l0,0h-0.1H91C90.9,67,90.8,67.1,90.6,67.1z"/>
	<path class="st3" d="M61.8,99.9c-3.6,0-8.6-3-13.1-5.8c-0.9-0.6-1.8-1.1-2.7-1.6c-10.8-6.2-19.6-21.4-19.5-33.8c0-0.8,0-1.6,0-2.5
		c-0.1-6.5-0.1-14.5,3.4-16.5c0.1-0.1,0.3-0.1,0.5-0.1L60,38.1c2.7-0.5,5.3-1.1,7.9-2c0.6-1.4,1.6-2.5,2.8-3.4
		c0.1-0.1,0.3-0.2,0.5-0.3c0,0,12.5-7.2,14.9-8.6c2.9-1.6,6.6-1.3,10.5,1c7.7,4.4,13.9,15.2,13.9,24c0,4.5-1.6,7.9-4.5,9.5
		c-1.2,0.7-4.2,2.4-7.3,4.2l-4.5,2.6c-1.3,0.8-2.4,1.4-3.1,1.8c-1.5,0.8-3.1,1.1-4.8,1c-2.1,1.9-4,3.9-5.8,6.1L64.4,99.1
		c-0.1,0.1-0.2,0.2-0.3,0.3C63.4,99.8,62.6,100,61.8,99.9z M30.7,41.6c-2.3,1.7-2.2,9.5-2.2,14.6c0,0.9,0,1.7,0,2.5
		c0,11.8,8.3,26.2,18.5,32.1c0.8,0.5,1.8,1,2.7,1.6c4.2,2.6,10.6,6.4,13.1,5.3l16.1-24.9c0,0,0-0.1,0.1-0.1c2-2.4,4.1-4.6,6.4-6.6
		c0.2-0.2,0.5-0.3,0.8-0.2c1.4,0.2,2.8,0,4-0.7c0.6-0.4,1.7-1,3.1-1.8l4.5-2.6c3.1-1.8,6.1-3.5,7.3-4.2c2.2-1.3,3.4-4,3.4-7.8
		c0-8.2-5.7-18.2-12.9-22.3l0,0c-3.3-1.9-6.3-2.2-8.5-1c-2.4,1.4-14.9,8.6-14.9,8.6c-0.1,0.1-0.2,0.1-0.2,0.2l-0.1,0.1
		c-1,0.7-1.8,1.7-2.3,2.9c-0.1,0.3-0.3,0.5-0.6,0.6c-2.8,1-5.7,1.7-8.7,2.2h-0.1L30.7,41.6z"/>
	<path class="st4" d="M44.1,41.9C58.3,50,69.7,69.8,69.6,86S58.1,108.8,44,100.6S18.5,72.7,18.5,56.5S30,33.7,44.1,41.9z"/>
	<path class="st4" d="M44.1,41.9C58.3,50,69.7,69.8,69.6,86S58.1,108.8,44,100.6S18.5,72.7,18.5,56.5S30,33.7,44.1,41.9z"/>
	<path class="st4" d="M44.1,49.8c10.3,6,18.7,20.4,18.6,32.3S54.3,98.7,44,92.7S25.3,72.3,25.4,60.5S33.8,43.8,44.1,49.8z"/>
	<path class="st2" d="M52.4,96.3c-3.2-0.1-6.2-1-8.9-2.7c-10.6-6.1-19.2-21-19.1-33.1c0-6.1,2.1-10.7,6-12.9s8.9-1.8,14.3,1.3l0,0
		c10.6,6.1,19.2,21,19.1,33.2c0,6.1-2.1,10.7-6,12.9C56.1,95.9,54.3,96.3,52.4,96.3z M35.7,48.2c-1.5,0-3,0.4-4.4,1.1
		c-3.2,1.8-5,5.8-5,11.1c0,11.5,8.1,25.6,18.1,31.4c4.7,2.7,9.1,3.2,12.3,1.3c3.2-1.8,5-5.8,5-11.1c0-11.5-8.1-25.6-18.1-31.4l0,0
		C41.3,49.2,38.5,48.3,35.7,48.2z"/>
	<path class="st1" d="M49.2,39c-7.1-4.1-13.5-4.5-18.2-1.8l-5,2.9c4.6-2.7,11.1-2.3,18.2,1.8C58.3,50,69.7,69.8,69.6,86
		c0,8.1-2.9,13.7-7.5,16.4l5-2.9c4.6-2.7,7.4-8.3,7.5-16.4C74.7,66.9,63.3,47.1,49.2,39z"/>
	<path class="st2" d="M55.5,105.2c-4.2-0.2-8.4-1.4-12-3.7c-14.4-8.3-26-28.5-26-45c0-8.2,2.9-14.3,8-17.3c5.2-3,12-2.3,19.1,1.8
		l0,0c14.4,8.3,26,28.5,26,45c0,8.2-2.9,14.3-8,17.3C60.4,104.5,58,105.2,55.5,105.2z M32.7,39.4c-2.2,0-4.3,0.5-6.2,1.6
		c-4.5,2.6-7,8.1-7,15.6c0,15.9,11.2,35.3,25,43.3c6.5,3.8,12.6,4.4,17.2,1.8c4.5-2.6,7-8.1,7-15.6c0-15.9-11.2-35.3-25-43.3l0,0
		C40.3,40.7,36.6,39.5,32.7,39.4z"/>
	<path class="st3" d="M67.2,100.5c-0.6,0-1-0.5-1-1c0-0.4,0.2-0.7,0.5-0.9c4.5-2.6,6.9-8.1,7-15.5c0-15.9-11.2-35.3-25-43.3
		C42.1,36,36,35.4,31.5,38c-0.5,0.2-1.1,0-1.3-0.4c-0.2-0.5-0.1-1,0.3-1.3c5.2-3,12-2.4,19.2,1.8c14.4,8.3,26,28.5,26,45
		c0,8.2-2.8,14.3-8,17.3C67.5,100.5,67.4,100.5,67.2,100.5z"/>
	<path class="st1" d="M51.6,55.9l-8.7,9.4c-0.5,0.6-0.8,1.4-0.7,2.2c0.1,2.8,1.6,5.3,3.9,6.8c0.7,0.4,1.5,0.6,2.3,0.5l12.6-3
		C59,65.9,55.8,60.4,51.6,55.9z"/>
	<path class="st1" d="M52.8,55.9l-8.7,9.4c-0.5,0.6-0.8,1.4-0.7,2.2c0.1,2.8,1.6,5.3,3.9,6.8c0.7,0.4,1.5,0.6,2.3,0.5l12.6-3
		C60.2,65.9,57,60.4,52.8,55.9z"/>
	<path class="st2" d="M46.1,65.2c2.3,1.5,3.8,4,3.9,6.8c0,2.5-1.8,3.5-4,2.3c-2.3-1.5-3.8-4-3.9-6.8C42.2,64.9,43.9,63.9,46.1,65.2z
		"/>
	<path class="st2" d="M47.8,75.8c-0.8,0-1.6-0.3-2.3-0.7c-2.6-1.7-4.3-4.6-4.4-7.7c0-1,0.3-2.1,1-2.9l8.7-9.4
		c0.2-0.2,0.5-0.3,0.7-0.3l0,0c0.3,0,0.5,0.1,0.7,0.3c4.3,4.7,7.6,10.2,9.6,16.3c0.2,0.5-0.1,1.1-0.6,1.3h-0.1l-12.6,3
		C48.3,75.8,48.1,75.8,47.8,75.8z M51.6,57.3l-8,8.6c-0.3,0.4-0.5,1-0.5,1.5c0.1,2.4,1.4,4.6,3.4,5.9c0.5,0.3,1,0.4,1.5,0.4L59.6,71
		C57.8,66,55.1,61.4,51.6,57.3z"/>
	<path class="st3" d="M55.4,105.2c-4.2-0.2-8.4-1.4-12-3.7c-14.4-8.3-26-28.5-26-45c0-8.1,2.8-14.2,7.9-17.2h0.1l5-2.9
		c5.1-3,11.8-2.4,18.8,1.6c0.5,0.3,0.6,0.9,0.4,1.4c-0.3,0.5-0.9,0.6-1.3,0.4c-6.4-3.6-12.4-4.2-16.8-1.6L26.6,41c0,0,0,0-0.1,0
		c-4.5,2.6-7,8.1-7,15.6c0,15.9,11.2,35.3,25,43.3c6.7,3.9,13,4.4,17.5,1.6l0,0c0.1,0,0.1-0.1,0.2-0.1l4.4-2.6
		c4.5-2.6,6.9-8.1,7-15.5c0-0.6,0.4-1,1-1l0,0c0.6,0,1,0.4,1,1c0,8.1-2.9,14.3-8,17.2l-5,2.9l0,0c0,0-0.1,0-0.1,0.1
		C60.4,104.6,57.9,105.2,55.4,105.2z"/>
	<path class="st3" d="M93.8,65.2c-0.6,0-1-0.4-1-1c0-0.2,0.1-0.4,0.2-0.5c0.6-0.9,1-1.9,1.2-3s0.4-2.2,0.4-3.3
		c0-5.1-2.2-11.2-5.9-16.2c-2.7-3.6-6.4-6.5-10.6-8.3c-0.9-0.3-1.9-0.4-2.9-0.5c-0.6,0-1-0.4-1-1s0.4-1,1-1c1.2,0,2.4,0.2,3.5,0.5
		c0,0,0.1,0,0.2,0.1c4.5,1.9,8.4,5,11.4,8.9c4,5.3,6.3,11.9,6.3,17.4c0,1.2-0.1,2.5-0.4,3.7c-0.3,1.3-0.8,2.5-1.5,3.6
		C94.5,65,94.2,65.2,93.8,65.2z"/>
	<rect class="st0" width="128" height="128"/>
</g>
</svg>
