<?xml version="1.0" encoding="utf-8"?>
<!-- Generator: Adobe Illustrator 24.1.0, SVG Export Plug-In . SVG Version: 6.00 Build 0)  -->
<svg version="1.1" id="Layer_1" xmlns="http://www.w3.org/2000/svg" xmlns:xlink="http://www.w3.org/1999/xlink" x="0px" y="0px"
	 viewBox="0 0 128 128" style="enable-background:new 0 0 128 128;" xml:space="preserve">
<style type="text/css">
	.st0{fill:#E9EBDF;}
	.st1{fill:#4D9987;}
	.st2{fill:#FFFFFF;}
	.st3{fill:#0E352C;}
	.st4{fill:#27ae60;}
	.st5{fill:#C4D7D3;}
	.st6{fill:#185849;}
	.st7{fill:none;}
</style>
<g>
	<path class="st0" d="M111.4,83.5l-24.3-14L59.2,53.3c-3.2-1.6-6.9-1.6-10.1,0L28.6,65.2l-14.8,8.5L6,72.4v7.5
		c0.1,1.3,0.9,2.4,2.1,2.9L36,98.9l32.9,19c3.2,1.6,6.9,1.6,10.1,0l20.5-11.8L120,94.3c1.2-0.5,2-1.6,2.1-2.9v-7.5L111.4,83.5z"/>
	<path class="st1" d="M73.9,120.1c-1.9,0-3.8-0.4-5.6-1.3L7.6,83.7C6.1,83,5.1,81.5,5,79.9v-7.5c0-0.6,0.4-1,1-1c0.1,0,0.1,0,0.2,0
		l7.4,1.2l34.9-20.2c3.5-1.8,7.6-1.8,11.1,0l52,30l10.4,0.4c0.5,0,1,0.5,1,1v7.5c-0.1,1.6-1.1,3.1-2.6,3.8l-40.9,23.6
		C77.8,119.7,75.8,120.2,73.9,120.1z M7,73.6v6.3c0.1,0.9,0.7,1.7,1.6,2.1l60.8,35c2.9,1.4,6.2,1.4,9.1,0l40.9-23.6
		c0.9-0.4,1.5-1.1,1.6-2.1v-6.5l-9.7-0.3c-0.2,0-0.3-0.1-0.5-0.1L58.6,54.2c-2.9-1.4-6.2-1.4-9.1,0L14.3,74.6
		c-0.2,0.1-0.4,0.2-0.7,0.1L7,73.6z"/>
	<path class="st0" d="M87.1,69.5l-12.7-7.4v57c1.6,0,3.2-0.4,4.7-1.2l20.5-11.8l20.5-11.8c1.2-0.5,2-1.6,2.1-2.9v-7.5l-10.6-0.4
		L87.1,69.5z"/>
	<path class="st1" d="M73.9,120.1c-1.9,0-3.8-0.4-5.6-1.3L7.6,83.7C6.1,83,5.1,81.5,5,79.9v-7.5c0-0.6,0.4-1,1-1c0.1,0,0.1,0,0.2,0
		l7.4,1.2l34.9-20.2c3.5-1.8,7.6-1.8,11.1,0l52,30l10.4,0.4c0.5,0,1,0.5,1,1v7.5c-0.1,1.6-1.1,3.1-2.6,3.8l-40.9,23.6
		C77.8,119.7,75.8,120.2,73.9,120.1z M7,73.6v6.3c0.1,0.9,0.7,1.7,1.6,2.1l60.8,35c2.9,1.4,6.2,1.4,9.1,0l40.9-23.6
		c0.9-0.4,1.5-1.1,1.6-2.1v-6.5l-9.7-0.3c-0.2,0-0.3-0.1-0.5-0.1L58.6,54.2c-2.9-1.4-6.2-1.4-9.1,0L14.3,74.6
		c-0.2,0.1-0.4,0.2-0.7,0.1L7,73.6z"/>
	<path class="st2" d="M119.9,81L87.1,62L59.2,45.9c-3.2-1.6-6.9-1.6-10.1,0L28.6,57.7L8.1,69.5c-1.6,0.5-2.5,2.3-1.9,3.9
		c0.3,0.9,1,1.6,1.9,1.9L36,91.5l32.9,19c3.2,1.6,6.9,1.6,10.1,0l20.5-11.8L120,86.9c1.6-0.5,2.5-2.3,1.9-3.9
		C121.5,82,120.8,81.3,119.9,81z"/>
	<path class="st1" d="M73.9,112.6c-1.9,0-3.8-0.4-5.6-1.3L7.6,76.2C5.5,75.4,4.5,73,5.3,71c0.4-1.1,1.3-1.9,2.3-2.3L48.5,45
		c3.5-1.8,7.6-1.8,11.1,0l60.8,35.1c2.1,0.8,3.1,3.2,2.3,5.2c-0.4,1.1-1.3,1.9-2.3,2.3l-40.9,23.6C77.8,112.2,75.8,112.7,73.9,112.6
		z M54.1,45.7c-1.6,0-3.2,0.3-4.6,1.1L8.6,70.4c-0.9,0.4-1.5,1.1-1.6,2.1c0.1,0.9,0.7,1.7,1.6,2.1l60.8,35.1c2.9,1.4,6.2,1.4,9.1,0
		l40.9-23.6c1.1-0.3,1.8-1.4,1.5-2.6c-0.2-0.8-0.8-1.3-1.5-1.5l0,0L58.6,46.7C57.2,46,55.7,45.6,54.1,45.7z"/>
	<polygon class="st2" points="72.1,105.4 111.2,82.8 55.7,50.8 16.6,73.4 	"/>
	<path class="st1" d="M72.1,106.4c-0.2,0-0.3,0-0.5-0.1l-55.5-32c-0.5-0.3-0.6-0.9-0.4-1.4c0.1-0.2,0.2-0.3,0.4-0.4l39.2-22.6
		c0.3-0.2,0.7-0.2,1,0l55.5,32c0.5,0.3,0.6,0.9,0.4,1.4c-0.1,0.2-0.2,0.3-0.4,0.4l-39.2,22.6C72.4,106.4,72.2,106.4,72.1,106.4z
		 M18.6,73.4l53.5,30.9l37.2-21.5L55.7,51.9L18.6,73.4z"/>
	<polygon class="st2" points="22.9,77 16.6,73.4 55.7,50.8 62,54.4 	"/>
	<path class="st1" d="M22.9,78c-0.2,0-0.3,0-0.5-0.1l-6.3-3.6c-0.5-0.3-0.6-0.9-0.4-1.4c0.1-0.2,0.2-0.3,0.4-0.4l39.2-22.6
		c0.3-0.2,0.7-0.2,1,0l6.3,3.6c0.5,0.3,0.6,0.9,0.4,1.4c-0.1,0.2-0.2,0.3-0.4,0.4L23.4,77.9C23.2,78,23,78,22.9,78z M18.6,73.4
		l4.3,2.5L60,54.4l-4.3-2.5L18.6,73.4z"/>
	<polygon class="st2" points="42.5,76.5 38,79.1 33.5,76.5 38,73.9 	"/>
	<path class="st1" d="M38,80.1c-0.2,0-0.3,0-0.5-0.1L33,77.4c-0.5-0.3-0.6-0.9-0.4-1.4c0.1-0.2,0.2-0.3,0.4-0.4l4.5-2.6
		c0.3-0.2,0.7-0.2,1,0l4.5,2.6c0.5,0.3,0.6,0.9,0.4,1.4c-0.1,0.2-0.2,0.3-0.4,0.4L38.5,80C38.3,80.1,38.2,80.1,38,80.1z M35.5,76.5
		L38,78l2.5-1.4L38,75.1L35.5,76.5z"/>
	<path class="st1" d="M43.8,74.2c-0.6,0-1-0.4-1-1c0-0.4,0.2-0.7,0.5-0.9l18.2-10.5c0.5-0.3,1.1-0.1,1.4,0.4
		c0.3,0.5,0.1,1.1-0.4,1.4l0,0L44.3,74C44.2,74.1,44,74.2,43.8,74.2z"/>
	<polygon class="st2" points="50.8,81.3 46.3,83.9 41.9,81.3 46.3,78.8 	"/>
	<path class="st1" d="M46.3,84.9c-0.2,0-0.3,0-0.5-0.1l-4.5-2.6c-0.5-0.3-0.6-0.9-0.4-1.4c0.1-0.2,0.2-0.3,0.4-0.4l4.5-2.6
		c0.3-0.2,0.7-0.2,1,0l4.5,2.6c0.5,0.3,0.6,0.9,0.4,1.4c-0.1,0.2-0.2,0.3-0.4,0.4l-4.5,2.6C46.7,84.9,46.5,84.9,46.3,84.9z
		 M43.9,81.3l2.5,1.4l2.5-1.4l-2.5-1.4L43.9,81.3z"/>
	<path class="st1" d="M52.2,79c-0.6,0-1-0.4-1-1c0-0.4,0.2-0.7,0.5-0.9L68,67.7c0.5-0.3,1.1-0.1,1.4,0.4s0.1,1.1-0.4,1.4l0,0
		l-16.3,9.4C52.5,78.9,52.3,79,52.2,79z"/>
	<polygon class="st2" points="59.2,86.2 54.7,88.8 50.2,86.2 54.7,83.6 	"/>
	<path class="st1" d="M54.7,89.8c-0.2,0-0.3,0-0.5-0.1L49.7,87c-0.5-0.3-0.6-0.9-0.4-1.4c0.1-0.2,0.2-0.3,0.4-0.4l4.5-2.6
		c0.3-0.2,0.7-0.2,1,0l4.5,2.6c0.5,0.3,0.6,0.9,0.4,1.4c-0.1,0.2-0.2,0.3-0.4,0.4l-4.5,2.6C55,89.7,54.9,89.8,54.7,89.8z M52.2,86.2
		l2.5,1.4l2.5-1.4l-2.5-1.4L52.2,86.2z"/>
	<path class="st1" d="M60.5,83.8c-0.6,0-1-0.4-1-1c0-0.4,0.2-0.7,0.5-0.9l19.6-11.3c0.5-0.3,1.1-0.1,1.4,0.4s0.1,1.1-0.4,1.4l0,0
		L61,83.7C60.9,83.8,60.7,83.8,60.5,83.8z"/>
	<ellipse class="st2" cx="71.9" cy="91.3" rx="9" ry="5.2"/>
	<path class="st1" d="M71.9,97.5c-2.4,0-4.8-0.5-6.9-1.7c-2-1.2-3.1-2.8-3.1-4.5S63,88,65,86.8c4.3-2.2,9.4-2.2,13.7,0l0,0
		c2,1.2,3.1,2.8,3.1,4.5s-1.1,3.4-3.1,4.5C76.6,97,74.3,97.6,71.9,97.5z M71.9,87.1c-2,0-4.1,0.4-5.9,1.4c-1.4,0.8-2.1,1.8-2.1,2.8
		s0.8,2,2.1,2.8c3.7,1.8,8,1.8,11.7,0c1.4-0.8,2.1-1.8,2.1-2.8s-0.8-2-2.1-2.8l0,0C75.9,87.6,73.9,87.1,71.9,87.1z"/>
	<path class="st2" d="M80.9,91.3c0-0.1,0-0.2,0-0.4l0,0c0-0.2-0.1-0.3-0.1-0.5l0,0c-0.4-1.2-1.3-2.2-2.5-2.8c-4-2-8.7-2-12.7,0
		l6.4,3.7l0,0v5.2c2.2,0,4.4-0.5,6.4-1.5C80,94,80.9,92.7,80.9,91.3L80.9,91.3z"/>
	<path class="st1" d="M71.9,97.5c-0.6,0-1-0.4-1-1v-4.6L65,88.5c-0.5-0.3-0.6-0.9-0.4-1.4c0.1-0.2,0.2-0.3,0.4-0.4
		c4.3-2.2,9.4-2.2,13.7,0c1.4,0.7,2.4,1.9,3,3.4l0,0c0.1,0.2,0.1,0.4,0.1,0.6v0.1c0,0.1,0,0.3,0,0.4s0,0.1,0,0.2
		c-0.1,1.7-1.2,3.2-3.1,4.4C76.6,97,74.3,97.6,71.9,97.5z M67.7,87.8l4.7,2.7c0.3,0.2,0.5,0.5,0.5,0.9v4.2c1.7-0.1,3.4-0.5,4.9-1.4
		c1.4-0.8,2.1-1.8,2.1-2.8v-0.1v-0.1v-0.1c0,0,0-0.1-0.1-0.3l0,0c-0.4-1-1.1-1.7-2-2.2C74.6,87,71,86.7,67.7,87.8z"/>
	<path class="st3" d="M73.9,120.1c-1.9,0-3.8-0.4-5.6-1.3L7.6,83.7C6.1,83,5.1,81.5,5,79.9v-7.5c0.1-1.6,1.1-3.1,2.6-3.8L48.5,45
		c3.5-1.8,7.6-1.8,11.1,0l60.8,35.1c1.5,0.7,2.5,2.1,2.6,3.8v7.5c-0.1,1.6-1.1,3.1-2.6,3.8l-40.9,23.6c-0.4,0.2-0.8,0.4-1.2,0.6
		c-0.3,0.1-0.6,0.2-0.8,0.3l-0.2,0.1c-0.1,0-0.2,0.1-0.2,0.1c-0.4,0.1-0.8,0.2-1.3,0.2c-0.5,0.1-0.9,0.1-1.4,0.1h-0.1
		C74.1,120.1,74,120.1,73.9,120.1z M54.1,45.7c-1.6,0-3.2,0.3-4.6,1.1L8.6,70.4c-0.9,0.4-1.5,1.1-1.6,2.1V80
		c0.1,0.9,0.7,1.7,1.6,2.1L69.4,117c1.4,0.7,3,1.1,4.6,1.1c0.1,0,0.1,0,0.2,0h0.2c0.4,0,0.8,0,1.2-0.1c0.4,0,0.7-0.1,1.1-0.2
		l0.3-0.1c0.3-0.1,0.5-0.1,0.7-0.2c0.3-0.1,0.6-0.3,0.9-0.4l40.9-23.6c0.9-0.4,1.5-1.1,1.6-2.1v-7.5c-0.1-0.9-0.7-1.7-1.6-2.1
		L58.6,46.7C57.2,46,55.7,45.6,54.1,45.7z"/>
	<polygon class="st2" points="72.1,63.5 111.2,40.9 55.7,8.9 16.6,31.5 	"/>
	<path class="st4" d="M72.1,64.5c-0.2,0-0.3,0-0.5-0.1l-55.5-32c-0.5-0.3-0.6-0.9-0.4-1.4c0.1-0.2,0.2-0.3,0.4-0.4L55.2,8
		c0.3-0.2,0.7-0.2,1,0l55.5,32c0.5,0.3,0.6,0.9,0.4,1.4c-0.1,0.2-0.2,0.3-0.4,0.4L72.6,64.4C72.4,64.5,72.2,64.5,72.1,64.5z
		 M18.6,31.5l53.5,30.9l37.2-21.5L55.7,10L18.6,31.5z"/>
	<polygon class="st5" points="22.9,35.1 16.6,31.5 55.7,8.9 62,12.5 	"/>
	<path class="st4" d="M22.9,36.1c-0.2,0-0.3,0-0.5-0.1l-6.3-3.6c-0.5-0.3-0.6-0.9-0.4-1.4c0.1-0.2,0.2-0.3,0.4-0.4L55.2,8
		c0.3-0.2,0.7-0.2,1,0l6.3,3.6c0.5,0.3,0.6,0.9,0.4,1.4c-0.1,0.2-0.2,0.3-0.4,0.4L23.4,36C23.2,36.1,23,36.1,22.9,36.1z M18.6,31.5
		l4.3,2.5L60,12.5L55.7,10L18.6,31.5z"/>
	<path class="st4" d="M38,38.2c-0.2,0-0.3,0-0.5-0.1L33,35.5c-0.5-0.3-0.6-0.9-0.4-1.4c0.1-0.2,0.2-0.3,0.4-0.4l4.5-2.6
		c0.3-0.2,0.7-0.2,1,0l4.5,2.6c0.5,0.3,0.6,0.9,0.4,1.4c-0.1,0.2-0.2,0.3-0.4,0.4l-4.5,2.6C38.3,38.2,38.2,38.2,38,38.2z M35.5,34.6
		L38,36l2.5-1.4L38,33.2L35.5,34.6z"/>
	<path class="st4" d="M43.8,32.3c-0.6,0-1-0.4-1-1c0-0.4,0.2-0.7,0.5-0.9l18.2-10.5c0.5-0.3,1.1-0.1,1.4,0.4
		c0.3,0.5,0.1,1.1-0.4,1.4l0,0L44.3,32.1C44.2,32.2,44,32.3,43.8,32.3z"/>
	<path class="st4" d="M46.3,43.1c-0.2,0-0.3,0-0.5-0.1l-4.5-2.6c-0.5-0.3-0.6-0.9-0.4-1.4c0.1-0.2,0.2-0.3,0.4-0.4l4.5-2.6
		c0.3-0.2,0.7-0.2,1,0l4.5,2.6c0.5,0.3,0.6,0.9,0.4,1.4c-0.1,0.2-0.2,0.3-0.4,0.4L46.8,43C46.7,43,46.5,43.1,46.3,43.1z M43.9,39.5
		l2.5,1.4l2.5-1.4L46.3,38L43.9,39.5z"/>
	<path class="st4" d="M52.2,37.1c-0.6,0-1-0.4-1-1c0-0.4,0.2-0.7,0.5-0.9l15.7-9c0.5-0.3,1.1-0.1,1.4,0.4s0.1,1.1-0.4,1.4l0,0
		l-15.7,9C52.5,37.1,52.3,37.1,52.2,37.1z"/>
	<polygon class="st5" points="59.2,44.3 54.7,46.9 50.2,44.3 54.7,41.7 	"/>
	<path class="st4" d="M54.7,47.9c-0.2,0-0.3,0-0.5-0.1l-4.5-2.6c-0.5-0.3-0.6-0.9-0.4-1.4c0.1-0.2,0.2-0.3,0.4-0.4l4.5-2.6
		c0.3-0.2,0.7-0.2,1,0l4.5,2.6c0.5,0.3,0.6,0.9,0.4,1.4c-0.1,0.2-0.2,0.3-0.4,0.4l-4.5,2.6C55,47.8,54.9,47.9,54.7,47.9z M52.2,44.3
		l2.5,1.4l2.5-1.4l-2.5-1.4L52.2,44.3z"/>
	<path class="st4" d="M60.5,41.9c-0.6,0-1-0.4-1-1c0-0.4,0.2-0.7,0.5-0.9l19.6-11.3c0.5-0.3,1.1-0.1,1.4,0.4s0.1,1.1-0.4,1.4l0,0
		L61,41.8C60.9,41.9,60.7,41.9,60.5,41.9z"/>
	<ellipse class="st2" cx="71.9" cy="49.4" rx="9" ry="5.2"/>
	<path class="st4" d="M71.9,55.7c-2.4,0-4.8-0.5-6.9-1.7c-2-1.2-3.1-2.8-3.1-4.5S63,46.1,65,45c4.3-2.2,9.4-2.2,13.7,0l0,0
		c2,1.2,3.1,2.8,3.1,4.5s-1.1,3.4-3.1,4.5C76.6,55.1,74.3,55.7,71.9,55.7z M71.9,45.3c-2,0-4.1,0.4-5.9,1.4
		c-1.4,0.8-2.1,1.8-2.1,2.8s0.8,2,2.1,2.8c3.7,1.8,8,1.8,11.7,0c1.4-0.8,2.1-1.8,2.1-2.8s-0.8-2-2.1-2.8l0,0
		C75.9,45.7,73.9,45.2,71.9,45.3z"/>
	<path class="st5" d="M80.9,49.4L80.9,49.4c0-1.3-0.9-2.7-2.6-3.7c-4-2-8.7-2-12.7,0l6.4,3.7H80.9z"/>
	<path class="st4" d="M80.9,50.4h-9c-0.2,0-0.3,0-0.5-0.1L65,46.6c-0.5-0.3-0.6-0.9-0.4-1.4c0.1-0.2,0.2-0.3,0.4-0.4
		c4.3-2.2,9.4-2.2,13.7,0c2,1.2,3.1,2.8,3.1,4.5C81.9,50,81.4,50.4,80.9,50.4z M72.1,48.4h7.5c-0.4-0.8-1.1-1.4-1.9-1.8
		c-3.1-1.5-6.7-1.8-10-0.7L72.1,48.4z"/>
	<path class="st6" d="M72.1,64.5c-0.2,0-0.3,0-0.5-0.1l-55.5-32c-0.5-0.3-0.6-0.9-0.4-1.4c0.1-0.2,0.2-0.3,0.4-0.4L55.2,8
		c0.3-0.2,0.7-0.2,1,0l55.5,32c0.5,0.3,0.6,0.9,0.4,1.4c-0.1,0.2-0.2,0.3-0.4,0.4L72.6,64.4C72.4,64.5,72.2,64.5,72.1,64.5z
		 M18.6,31.5l53.5,30.9l37.2-21.5L55.7,10L18.6,31.5z"/>
	<path class="st6" d="M16.6,69.4c-0.6,0-1-0.5-1-1c0-0.6,0.5-1,1-1c0.3,0,0.5,0.1,0.7,0.3c0.4,0.4,0.4,1,0,1.4
		C17.1,69.3,16.8,69.4,16.6,69.4z"/>
	<path class="st6" d="M15.6,62.2c0-0.6,0.4-1,1-1l0,0c0.6,0,1,0.4,1,1l0,0l0,0c0,0.5-0.4,1-1,1l0,0l0,0C16,63.2,15.6,62.8,15.6,62.2
		L15.6,62.2z M15.6,56.1c0-0.6,0.4-1,1-1l0,0c0.6,0,1,0.4,1,1l0,0l0,0c0,0.6-0.4,1-1,1l0,0C16,57.1,15.6,56.6,15.6,56.1z M15.6,49.9
		c0-0.6,0.4-1,1-1l0,0c0.6,0,1,0.4,1,1l0,0l0,0c0,0.6-0.4,1-1,1l0,0C16,50.9,15.6,50.5,15.6,49.9z M15.6,43.8c0-0.6,0.4-1,1-1l0,0
		c0.6,0,1,0.4,1,1l0,0l0,0c0,0.6-0.4,1-1,1l0,0C16,44.8,15.6,44.3,15.6,43.8z M15.6,37.6c0-0.6,0.4-1,1-1l0,0c0.6,0,1,0.4,1,1l0,0
		l0,0c0,0.6-0.4,1-1,1l0,0C16,38.6,15.6,38.2,15.6,37.6z"/>
	<path class="st6" d="M16.6,32.5c-0.6,0-1-0.4-1-1c0-0.3,0.1-0.5,0.3-0.7c0.4-0.4,1-0.4,1.4,0s0.4,1,0,1.4
		C17.1,32.4,16.8,32.5,16.6,32.5z"/>
	<path class="st6" d="M111.2,78.8c-0.3,0-0.5-0.1-0.7-0.3c-0.4-0.4-0.4-1,0-1.4c0.1-0.1,0.2-0.2,0.3-0.2c0.4-0.2,0.8-0.1,1.1,0.2
		c0.4,0.4,0.4,1,0,1.4C111.8,78.7,111.5,78.8,111.2,78.8z"/>
	<path class="st6" d="M110.2,71.7c0-0.6,0.4-1,1-1l0,0c0.6,0,1,0.4,1,1l0,0c0,0.6-0.4,1-1,1l0,0C110.7,72.7,110.2,72.2,110.2,71.7z
		 M110.2,65.5c0-0.6,0.4-1,1-1l0,0c0.6,0,1,0.4,1,1l0,0c0,0.6-0.4,1-1,1l0,0C110.7,66.5,110.2,66.1,110.2,65.5L110.2,65.5z
		 M110.2,59.4c0-0.6,0.4-1,1-1l0,0c0.6,0,1,0.4,1,1l0,0c0,0.6-0.4,1-1,1l0,0C110.7,60.4,110.2,59.9,110.2,59.4L110.2,59.4z
		 M110.2,53.2c0-0.6,0.4-1,1-1l0,0c0.6,0,1,0.4,1,1l0,0c0,0.6-0.4,1-1,1l0,0C110.7,54.2,110.2,53.8,110.2,53.2z M110.2,47.1
		c0-0.6,0.4-1,1-1l0,0c0.6,0,1,0.4,1,1l0,0c0,0.6-0.4,1-1,1l0,0C110.7,48.1,110.2,47.6,110.2,47.1z"/>
	<path class="st6" d="M111.2,41.9c-0.3,0-0.5-0.1-0.7-0.3c0,0-0.1-0.1-0.1-0.2c0-0.1-0.1-0.1-0.1-0.2c0-0.1,0-0.1-0.1-0.2
		c0-0.1,0-0.1,0-0.2c0-0.3,0.1-0.5,0.3-0.7c0.4-0.4,1-0.4,1.4,0c0.2,0.2,0.3,0.4,0.3,0.7c0,0.1,0,0.1,0,0.2c0,0.1,0,0.1-0.1,0.2
		c0,0.1-0.1,0.1-0.1,0.2l-0.1,0.2C111.8,41.8,111.5,41.9,111.2,41.9z"/>
	<rect x="1" y="1" class="st7" width="126" height="126"/>
	<rect class="st7" width="128" height="128"/>
</g>
</svg>
