<?xml version="1.0" encoding="utf-8"?>
<!-- Generator: Adobe Illustrator 24.1.0, SVG Export Plug-In . SVG Version: 6.00 Build 0)  -->
<svg version="1.1" id="Layer_1" xmlns="http://www.w3.org/2000/svg" xmlns:xlink="http://www.w3.org/1999/xlink" x="0px" y="0px"
	 viewBox="0 0 128 128" style="enable-background:new 0 0 128 128;" xml:space="preserve">
<style type="text/css">
	.st0{fill:#E9EBDF;}
	.st1{fill:#FFFFFF;}
	.st2{fill:none;}
	.st3{fill:#4D9987;}
	.st4{fill:#0E352C;}
	.st5{fill:#185849;}
	.st6{fill:#27ae60;}
	.st7{fill:#C4D7D3;}
</style>
<g>
	<path class="st0" d="M49.4,125.7c0.7,0,1.4-0.2,2-0.5l73.8-42.9c0.5-0.2,0.8-0.6,0.8-1.1v-6.3c0,0.5-0.4,0.9-0.8,1.1l-73.8,42.9
		c-0.6,0.3-1.3,0.5-1.9,0.5"/>
	<path class="st0" d="M49.5,119.4c-0.7,0-1.4-0.1-2-0.5L2.8,93.2C2.4,93,2.1,92.5,2,92v6.3c0,0.5,0.4,0.9,0.8,1.1l44.6,25.8
		c0.6,0.3,1.3,0.5,2,0.5"/>
	<path class="st0" d="M11.4,98.1l-8.6-4.9C2.4,93,2.1,92.5,2,92v6.3c0,0.5,0.4,0.9,0.8,1.1l8.6,5C11.4,104.4,11.4,98.1,11.4,98.1z"
		/>
	<path class="st1" d="M125.2,73.8c0.6,0.2,1,0.9,0.8,1.5c-0.1,0.4-0.4,0.6-0.8,0.8L51.4,119c-1.2,0.6-2.7,0.6-3.9,0L2.8,93.2
		c-0.6-0.2-1-0.9-0.8-1.5c0.1-0.4,0.4-0.6,0.8-0.8L76.6,48c1.2-0.6,2.7-0.6,3.9,0L125.2,73.8z"/>
	<path class="st2" d="M125.2,76.1L51.4,119c-1.2,0.6-2.7,0.6-3.9,0L2.8,93.2C2.4,93,2.1,92.5,2,92v6.3c0,0.5,0.4,0.9,0.8,1.1
		l44.6,25.8c1.2,0.6,2.7,0.6,3.9,0l73.8-42.9c0.5-0.2,0.8-0.6,0.8-1.1v-6.3C126,75.4,125.6,75.8,125.2,76.1z"/>
	<path class="st0" d="M28.8,109.2c-0.6,0-1-0.5-1-1c0-0.4,0.2-0.7,0.5-0.9L106,62.1c0.5-0.3,1.1-0.1,1.4,0.4s0.1,1.1-0.4,1.4
		L29.3,109C29.2,109.1,29,109.2,28.8,109.2z"/>
	<path class="st0" d="M100.5,91.4c-0.2,0-0.3,0-0.5-0.1L61.1,68.8c-0.5-0.3-0.6-0.9-0.4-1.4c0.3-0.5,0.9-0.6,1.4-0.4l0,0L101,89.5
		c0.5,0.3,0.6,0.9,0.4,1.4C101.2,91.2,100.9,91.4,100.5,91.4L100.5,91.4z"/>
	<path class="st0" d="M76.3,105.5c-0.2,0-0.3,0-0.5-0.1L36.9,82.9c-0.5-0.3-0.6-0.9-0.4-1.4s0.9-0.6,1.4-0.4l38.9,22.5
		c0.5,0.3,0.6,0.9,0.4,1.4C77,105.3,76.7,105.5,76.3,105.5L76.3,105.5z"/>
	<path class="st3" d="M49.4,126.7c-0.6,0-1-0.4-1-1s0.4-1,1-1c0.5,0,1-0.1,1.5-0.3l73.8-42.9c0.2-0.1,0.3-0.2,0.3-0.3v-3.9
		l-73.1,42.5c-0.7,0.4-1.6,0.6-2.4,0.6l0,0c-0.6,0-1-0.4-1-1s0.4-1,1-1c0.5,0,1-0.1,1.4-0.3l73.8-42.9c0.1-0.1,0.2-0.2,0.3-0.3
		c0-0.5,0.5-1,1-1l0,0c0.6,0,1,0.4,1,1l0,0v6.3c0,0.8-0.5,1.6-1.3,2l-73.8,42.9C51.1,126.5,50.3,126.7,49.4,126.7L49.4,126.7z"/>
	<path class="st3" d="M49.4,126.7c-0.9,0-1.7-0.2-2.5-0.6L2.3,100.4C1.5,100,1,99.2,1,98.3V92l0,0c0-0.6,0.4-1,1-1l0,0l0,0
		c0.6,0,1,0.4,1,1l0,0c0.1,0.1,0.2,0.2,0.3,0.3L48,118.1c0.5,0.2,1,0.4,1.5,0.3c0.5,0,1,0.4,1,1l0,0c0,0.6-0.4,1-1,1l0,0
		c-0.9,0-1.7-0.2-2.5-0.6L3,94.4v3.9c0.1,0.1,0.2,0.2,0.3,0.3l44.6,25.8c0.5,0.2,1,0.3,1.5,0.3l0,0c0.6,0,1,0.4,1,1
		S50,126.7,49.4,126.7L49.4,126.7z"/>
	<path class="st3" d="M49.4,120.4c-0.9,0-1.7-0.2-2.5-0.6L2.3,94c-1.1-0.5-1.6-1.8-1.1-2.9c0.2-0.5,0.6-0.9,1.1-1.1l73.8-42.9
		c1.5-0.8,3.4-0.8,4.9,0l44.6,25.8l0,0c1.1,0.5,1.6,1.8,1.1,2.9c-0.2,0.5-0.6,0.9-1.1,1.1l-73.8,42.9
		C51.1,120.2,50.3,120.4,49.4,120.4z M78.6,48.5c-0.5,0-1,0.1-1.5,0.3l-73.8,43C3.1,91.9,3,92,3,92c0.1,0.1,0.2,0.2,0.3,0.3
		L48,118.1c0.9,0.5,2,0.5,2.9,0l73.8-42.9c0.2-0.1,0.3-0.2,0.3-0.3c-0.1-0.1-0.2-0.2-0.3-0.3L80.1,48.9
		C79.6,48.6,79.1,48.5,78.6,48.5z"/>
	<path class="st3" d="M49.4,126.7c-0.9,0-1.7-0.2-2.5-0.6L2.3,100.4C1.5,100,1,99.2,1,98.3V92l0,0c0-0.6,0.4-1,1-1l0,0l0,0
		c0.6,0,1,0.4,1,1l0,0c0.1,0.1,0.2,0.2,0.3,0.3L48,118.1c0.9,0.5,2,0.5,2.9,0l73.8-42.9c0.1-0.1,0.2-0.2,0.3-0.3c0-0.5,0.5-1,1-1
		l0,0c0.6,0,1,0.4,1,1l0,0v6.3c0,0.8-0.5,1.6-1.3,2l-73.8,42.9C51.1,126.5,50.3,126.7,49.4,126.7z M3,94.4v3.9
		c0.1,0.1,0.2,0.2,0.3,0.3l44.6,25.8c0.9,0.5,2,0.5,2.9,0l73.8-42.9c0.2-0.1,0.3-0.2,0.3-0.3v-3.9l-73.1,42.5
		c-1.5,0.8-3.4,0.8-4.9,0L3,94.4z"/>
	<path class="st0" d="M88.2,52.4L80.6,48c-1.2-0.6-2.7-0.6-3.9,0L2.8,90.9c-0.6,0.2-1,0.9-0.8,1.5c0.1,0.4,0.4,0.6,0.8,0.8l7.3,4.2
		l0.7,0.1L88.2,52.4z"/>
	<path class="st3" d="M10.8,98.5h-0.1L10,98.4c-0.1,0-0.3-0.1-0.4-0.1L2.3,94c-1.1-0.5-1.6-1.8-1.1-2.9c0.2-0.5,0.6-0.9,1.1-1.1
		l73.8-42.9c1.5-0.8,3.4-0.8,4.9,0l7.7,4.4c0.5,0.3,0.6,0.9,0.4,1.4c-0.1,0.2-0.2,0.3-0.4,0.4l-77.5,45
		C11.1,98.4,10.9,98.5,10.8,98.5z M10.4,96.4h0.1l75.7-44L80,48.8c-0.9-0.5-2-0.5-2.9,0l-73.8,43C3.1,91.9,3,92,3,92
		c0.1,0.1,0.2,0.2,0.3,0.3L10.4,96.4z"/>
	
		<ellipse transform="matrix(2.844907e-03 -1 1 2.844907e-03 -24.4963 118.3224)" class="st0" cx="47.1" cy="71.4" rx="1.7" ry="2.9"/>
	<path class="st4" d="M47.1,72.4c-0.5,0-1-0.4-1-0.9c-0.3-3.4-2.1-6.4-5-8.3c-1.1-0.8-2.5-0.9-3.7-0.3c-1.1,0.8-1.7,2-1.6,3.3
		c0,1.4,0.4,2.7,0.9,3.9c0.2,0.5,0,1.1-0.4,1.3s-1.1,0-1.3-0.4c0,0,0,0,0-0.1c-0.7-1.5-1.1-3.1-1.1-4.8c-0.1-2,0.8-4,2.6-5.1
		c1.8-0.9,4-0.8,5.7,0.3c3.4,2.2,5.6,5.8,6,9.9C48.1,71.9,47.7,72.4,47.1,72.4L47.1,72.4z"/>
	
		<ellipse transform="matrix(2.844781e-03 -1 1 2.844781e-03 -71.9361 105.2534)" class="st0" cx="16.8" cy="88.7" rx="1.7" ry="2.9"/>
	<path class="st4" d="M6.5,89.7c-0.3,0-0.5-0.1-0.7-0.3c-1.7-1.5-2.2-4.6-2.2-6.3c-0.1-2,0.8-4,2.6-5.1c1.8-0.9,4-0.8,5.7,0.3
		c3.4,2.2,5.6,5.8,6,9.9c0,0.6-0.4,1-1,1.1c-0.6,0-1-0.4-1-1c-0.3-3.4-2.1-6.4-5-8.3c-1.1-0.8-2.5-0.9-3.7-0.3
		c-1.1,0.7-1.7,2-1.6,3.3c0,1.3,0.5,3.8,1.6,4.8c0.4,0.4,0.4,1,0.1,1.4C7.1,89.6,6.8,89.7,6.5,89.7z"/>
	
		<ellipse transform="matrix(2.844907e-03 -1 1 2.844907e-03 21.5229 130.5681)" class="st0" cx="76.2" cy="54.5" rx="1.7" ry="2.9"/>
	<path class="st4" d="M76.2,55.5c-0.5,0-1-0.4-1-0.9c-0.3-3.4-2.1-6.4-5-8.2c-1.1-0.8-2.5-0.9-3.7-0.3c-1.1,0.7-1.7,2-1.6,3.3
		c0,1.4,0.4,2.7,0.9,3.9c0.2,0.5,0,1.1-0.5,1.3s-1.1,0-1.3-0.5c-0.7-1.5-1.1-3.1-1.1-4.8c-0.3-2.8,1.7-5.4,4.6-5.7
		c1.3-0.2,2.6,0.2,3.7,1c3.4,2.2,5.6,5.8,6,9.9C77.2,55,76.8,55.5,76.2,55.5L76.2,55.5z"/>
	<path class="st3" d="M10.7,105.1c-0.6,0-1-0.4-1-1v-6.6c0-0.6,0.4-1,1-1s1,0.4,1,1v6.6C11.7,104.6,11.3,105.1,10.7,105.1z"/>
	<path class="st4" d="M49.4,126.7c-0.4,0-0.9,0-1.3-0.1c-0.4-0.1-0.8-0.2-1.2-0.5L2.3,100.4C1.5,100,1,99.2,1,98.3V92
		c0-0.4,0.1-0.8,0.4-1.2c0.1-0.2,0.3-0.3,0.4-0.5c0.2,0,0.3-0.2,0.5-0.3l73.8-42.9c0.8-0.4,1.6-0.6,2.5-0.6l0,0
		c0.6,0,1.3,0.1,1.9,0.3c0.2,0.1,0.4,0.2,0.6,0.3l44.6,25.8c0.7,0.4,1.2,1,1.3,1.8c0,0.1,0,0.1,0,0.2l0,0v6.3c0,0.8-0.5,1.6-1.3,2
		l-73.8,42.9C51.1,126.5,50.3,126.7,49.4,126.7L49.4,126.7z M78.6,48.5c-0.5,0-1,0.1-1.5,0.3l-73.8,43c-0.1,0-0.1,0.1-0.2,0.1L3,92
		v6.4c0.1,0.1,0.2,0.2,0.3,0.3l44.6,25.8c0.2,0.1,0.4,0.2,0.7,0.2c0.3,0.1,0.5,0.1,0.8,0.1l0,0c0.5,0,1-0.1,1.5-0.3l73.8-42.9
		c0.2-0.1,0.3-0.2,0.3-0.3v-5.9c0-0.1,0-0.3,0-0.4c-0.1-0.1-0.2-0.2-0.3-0.3L80.1,48.9c-0.1-0.1-0.2-0.1-0.3-0.1
		C79.4,48.6,79,48.5,78.6,48.5L78.6,48.5z"/>
	<path class="st5" d="M106.5,60c-0.5,0-1-0.4-1-1l0,0c0-0.1,0-0.3,0.1-0.4c0.1-0.1,0.1-0.2,0.2-0.3c0.4-0.4,1-0.4,1.4,0
		c0.1,0.1,0.2,0.2,0.2,0.3c0.1,0.1,0.1,0.2,0.1,0.4c0,0.3-0.1,0.5-0.3,0.7C107,59.9,106.8,60,106.5,60z"/>
	<path class="st5" d="M105.5,53.3c0-0.6,0.4-1,1-1l0,0c0.6,0,1,0.4,1,1l0,0c0,0.6-0.4,1-1,1l0,0C106,54.3,105.5,53.8,105.5,53.3z
		 M105.5,47.5c0-0.6,0.4-1,1-1l0,0c0.6,0,1,0.4,1,1l0,0c0,0.6-0.4,1-1,1l0,0C106,48.5,105.5,48.1,105.5,47.5z M105.5,41.8
		c0-0.6,0.4-1,1-1l0,0c0.6,0,1,0.4,1,1l0,0c0,0.6-0.4,1-1,1l0,0C106,42.8,105.5,42.3,105.5,41.8z M105.5,36c0-0.5,0.4-1,1-1l0,0l0,0
		c0.5,0,1,0.4,1,1l0,0l0,0c0,0.6-0.4,1-1,1l0,0l0,0C106,37,105.5,36.6,105.5,36L105.5,36z M105.5,30.3c0-0.6,0.4-1,1-1l0,0
		c0.6,0,1,0.4,1,1l0,0c0,0.6-0.4,1-1,1l0,0C106,31.3,105.5,30.8,105.5,30.3z"/>
	<path class="st5" d="M106.5,25.5c-0.3,0-0.5-0.1-0.7-0.3l-0.1-0.1c0-0.1-0.1-0.1-0.1-0.2s0-0.1-0.1-0.2c0-0.1,0-0.1,0-0.2
		s0-0.3,0.1-0.4c0-0.1,0.1-0.2,0.2-0.3c0.4-0.4,1-0.4,1.4,0c0.1,0.1,0.2,0.2,0.2,0.3c0.1,0.1,0.1,0.3,0.1,0.4
		C107.5,25.1,107.1,25.5,106.5,25.5z"/>
	<path class="st5" d="M61.6,63.8c-0.3,0-0.5-0.1-0.7-0.3c-0.1-0.1-0.2-0.2-0.2-0.3c-0.1-0.1-0.1-0.2-0.1-0.4c0-0.1,0-0.3,0.1-0.4
		c0.2-0.5,0.8-0.7,1.3-0.5c0.4,0.2,0.6,0.5,0.6,0.9c0,0.3-0.1,0.5-0.3,0.7c-0.1,0.1-0.2,0.2-0.3,0.2C61.9,63.8,61.7,63.8,61.6,63.8z
		"/>
	<path class="st5" d="M60.6,56.7c0-0.6,0.4-1,1-1l0,0c0.6,0,1,0.4,1,1l0,0c0,0.6-0.4,1-1,1l0,0C61,57.7,60.6,57.2,60.6,56.7z
		 M60.6,50.5c0-0.6,0.4-1,1-1l0,0c0.6,0,1,0.4,1,1l0,0c0,0.6-0.4,1-1,1l0,0C61,51.5,60.6,51,60.6,50.5z M60.6,44.3c0-0.6,0.4-1,1-1
		l0,0c0.6,0,1,0.4,1,1l0,0c0,0.6-0.4,1-1,1l0,0C61,45.3,60.6,44.9,60.6,44.3z M60.6,38.2c0-0.5,0.4-1,1-1l0,0l0,0c0.6,0,1,0.4,1,1
		l0,0c0,0.6-0.4,1-1,1l0,0C61,39.2,60.6,38.7,60.6,38.2z M60.6,32c0-0.5,0.4-1,1-1l0,0l0,0c0.6,0,1,0.4,1,1l0,0c0,0.6-0.4,1-1,1l0,0
		C61,33,60.6,32.5,60.6,32z M60.6,25.8c0-0.6,0.4-1,1-1l0,0c0.6,0,1,0.4,1,1l0,0c0,0.6-0.4,1-1,1l0,0C61,26.8,60.6,26.4,60.6,25.8z"
		/>
	<path class="st5" d="M61.6,20.6c-0.1,0-0.1,0-0.2,0c-0.1,0-0.1,0-0.2,0c-0.1,0-0.1-0.1-0.2-0.1c-0.1,0-0.1-0.1-0.2-0.1
		c-0.1-0.1-0.2-0.2-0.2-0.3c-0.1-0.1-0.1-0.2-0.1-0.4c0-0.3,0.1-0.5,0.3-0.7c0,0,0.1-0.1,0.2-0.1c0.1,0,0.1-0.1,0.2-0.1
		c0.1,0,0.1,0,0.2-0.1c0.3-0.1,0.7,0,0.9,0.3c0.4,0.4,0.4,1,0,1.4C62.1,20.5,61.9,20.7,61.6,20.6z"/>
	<polygon class="st1" points="83,6.5 99.2,16 106.6,11.7 90.4,2.3 	"/>
	<path class="st6" d="M99.2,17c-0.2,0-0.3,0-0.5-0.1L82.5,7.4C82,7.1,81.8,6.5,82.1,6c0.1-0.2,0.2-0.3,0.4-0.4l7.4-4.3
		c0.3-0.2,0.7-0.2,1,0l16.2,9.4c0.5,0.3,0.6,0.9,0.4,1.4c-0.1,0.2-0.2,0.3-0.4,0.4l-7.4,4.3C99.5,16.9,99.4,17,99.2,17z M85,6.5
		l14.2,8.3l5.4-3.1L90.4,3.4L85,6.5z"/>
	<polygon class="st7" points="83,6.5 83,22.5 99.2,23.3 99.2,16 	"/>
	<path class="st6" d="M99.2,24.3L99.2,24.3L83,23.5c-0.5,0-1-0.5-0.9-1v-16c0-0.6,0.4-1,1-1c0.2,0,0.3,0,0.5,0.1L99.8,15
		c0.3,0.2,0.5,0.5,0.5,0.9v7.4C100.2,23.9,99.8,24.3,99.2,24.3L99.2,24.3z M84,21.6l14.2,0.7v-5.7L84,8.3V21.6z"/>
	<polygon class="st6" points="99.2,16 99.2,23.3 106.6,19.1 106.6,11.7 	"/>
	<path class="st6" d="M99.2,24.3c-0.5,0-1-0.4-1-1v-7.4c0-0.4,0.2-0.7,0.5-0.9l7.4-4.3c0.5-0.3,1.1-0.1,1.4,0.4
		c0.1,0.2,0.1,0.3,0.1,0.5V19c0,0.4-0.2,0.7-0.5,0.9l-7.4,4.3C99.6,24.3,99.4,24.3,99.2,24.3z M100.2,16.5v5.1l5.4-3.1v-5.1
		L100.2,16.5z"/>
	<polygon class="st7" points="81.5,14.4 91.7,20.3 99.1,16 88.9,10.1 	"/>
	<path class="st6" d="M91.7,21.3c-0.2,0-0.3,0-0.5-0.1l-10.2-6c-0.5-0.3-0.6-0.9-0.4-1.4c0.1-0.2,0.2-0.3,0.4-0.4l7.4-4.3
		c0.3-0.2,0.7-0.2,1,0L99.6,15c0.5,0.3,0.6,0.9,0.4,1.4c-0.1,0.2-0.2,0.3-0.4,0.4l-7.4,4.3C92,21.3,91.9,21.3,91.7,21.3z M83.5,14.4
		l8.2,4.8l5.4-3.1l-8.2-4.8L83.5,14.4z"/>
	<polygon class="st5" points="81.5,14.4 81.5,30.3 91.7,27.7 91.7,20.3 	"/>
	<path class="st6" d="M81.5,31.3c-0.6,0-1-0.4-1-1v-16c0-0.6,0.4-1,1-1c0.2,0,0.3,0,0.5,0.1l10.2,5.9c0.3,0.2,0.5,0.5,0.5,0.9v7.4
		c0,0.5-0.3,0.9-0.7,1l-10.2,2.7C81.7,31.3,81.6,31.3,81.5,31.3z M82.5,16.1V29l8.2-2.1v-6L82.5,16.1z"/>
	<polygon class="st6" points="91.7,20.3 91.7,27.7 99.1,23.4 99.1,16 	"/>
	<path class="st6" d="M91.7,28.7c-0.5,0-1-0.4-1-1v-7.4c0-0.4,0.2-0.7,0.5-0.9l7.4-4.3c0.5-0.3,1.1-0.1,1.4,0.4
		c0.1,0.2,0.1,0.3,0.1,0.5v7.4c0,0.4-0.2,0.7-0.5,0.9l-7.4,4.3C92.1,28.6,91.9,28.7,91.7,28.7z M92.7,20.9V26l5.4-3.1v-5.1
		L92.7,20.9z"/>
	<polygon class="st1" points="61.6,11.4 84.3,24.6 91.7,20.3 69,7.1 	"/>
	<path class="st6" d="M84.3,25.6c-0.2,0-0.3,0-0.5-0.1L61.1,12.2c-0.5-0.3-0.6-0.9-0.4-1.4c0.1-0.2,0.2-0.3,0.4-0.4l7.4-4.3
		c0.3-0.2,0.7-0.2,1,0l22.7,13.2c0.5,0.3,0.6,0.9,0.4,1.4c-0.1,0.2-0.2,0.3-0.4,0.4l-7.4,4.3C84.6,25.5,84.5,25.6,84.3,25.6z
		 M63.6,11.4l20.7,12l5.4-3.1L69,8.2L63.6,11.4z"/>
	<polygon class="st7" points="61.6,11.4 61.6,18.7 84.3,31.9 84.3,24.6 	"/>
	<path class="st6" d="M84.3,32.9c-0.2,0-0.3,0-0.5-0.1L61.1,19.6c-0.3-0.2-0.5-0.5-0.5-0.9v-7.4c0-0.6,0.4-1,1-1
		c0.2,0,0.4,0,0.5,0.1l22.7,13.2c0.3,0.2,0.5,0.5,0.5,0.9v7.4C85.3,32.5,84.9,32.9,84.3,32.9L84.3,32.9z M62.6,18.2l20.7,12v-5.1
		l-20.7-12L62.6,18.2z"/>
	<polygon class="st6" points="84.3,24.6 84.3,31.9 91.8,27.7 91.7,20.3 	"/>
	<path class="st6" d="M84.3,32.9c-0.5,0-1-0.4-1-1v-7.4c0-0.4,0.2-0.7,0.5-0.9l7.4-4.3c0.5-0.3,1.1-0.1,1.4,0.4
		c0.1,0.2,0.1,0.3,0.1,0.5v7.4c0,0.4-0.2,0.7-0.5,0.9l-7.4,4.3C84.7,32.9,84.5,32.9,84.3,32.9z M85.3,25.1v5.1l5.4-3.1V22L85.3,25.1
		z"/>
	<polyline class="st7" points="84.3,33.6 61.6,20.4 61.6,11.4 84.3,24.6 	"/>
	<polyline class="st7" points="84.3,24.6 106.6,11.7 106.6,20.7 84.3,33.6 	"/>
	<path class="st6" d="M84.3,34.6c-0.6,0-1-0.4-1-1v-9c0-0.6,0.4-1,1-1s1,0.4,1,1v9C85.3,34.1,84.9,34.6,84.3,34.6z"/>
	<path class="st6" d="M99.2,26c-0.6,0-1-0.4-1-1v-9c0-0.6,0.4-1,1-1s1,0.4,1,1v9C100.2,25.5,99.7,26,99.2,26z"/>
	<path class="st6" d="M91.7,30.3c-0.6,0-1-0.4-1-1v-9c0-0.6,0.4-1,1-1s1,0.4,1,1v9C92.7,29.9,92.2,30.3,91.7,30.3z"/>
	<path class="st6" d="M84.3,34.6c-0.2,0-0.3,0-0.5-0.1L61.1,21.3c-0.3-0.2-0.5-0.5-0.5-0.9v-9c0-0.6,0.4-1,1-1c0.2,0,0.3,0,0.5,0.1
		l22.2,12.9l21.8-12.6c0.5-0.3,1.1-0.1,1.4,0.4c0.1,0.2,0.1,0.3,0.1,0.5v9c0,0.4-0.2,0.7-0.5,0.9L84.8,34.5
		C84.7,34.5,84.5,34.6,84.3,34.6z M62.6,19.8l21.7,12.6l21.3-12.3v-6.7l-20.8,12c-0.3,0.2-0.7,0.2-1,0L62.6,13.1V19.8z"/>
	<path class="st5" d="M84.3,34.6c-0.2,0-0.3,0-0.5-0.1L61.1,21.3c-0.3-0.2-0.5-0.5-0.5-0.9v-9c0-0.4,0.2-0.7,0.5-0.9l7.4-4.3
		c0.3-0.2,0.7-0.2,1,0l12,7l0.5-0.3V6.5c0-0.4,0.2-0.7,0.5-0.9l7.4-4.3c0.3-0.2,0.7-0.2,1,0l16.2,9.4c0.3,0.2,0.5,0.5,0.5,0.9V19
		v0.1v1.5c0,0.4-0.2,0.7-0.5,0.9l-22.3,13C84.7,34.5,84.5,34.6,84.3,34.6z M62.6,19.8l21.7,12.6l21.3-12.3V19v-0.1v-6.7L90.4,3.4
		L84,7.1v6.3c0,0.4-0.2,0.7-0.5,0.9L82,15.2c-0.3,0.2-0.7,0.2-1,0l-12-7l-6.4,3.7V19.8z"/>
	<rect x="1" y="1" class="st2" width="126" height="126"/>
	<rect class="st2" width="128" height="128"/>
</g>
</svg>
