<?xml version="1.0" encoding="utf-8"?>
<!-- Generator: Adobe Illustrator 24.1.0, SVG Export Plug-In . SVG Version: 6.00 Build 0)  -->
<svg version="1.1" id="Layer_1" xmlns="http://www.w3.org/2000/svg" xmlns:xlink="http://www.w3.org/1999/xlink" x="0px" y="0px"
	 viewBox="0 0 128 128" style="enable-background:new 0 0 128 128;" xml:space="preserve">
<style type="text/css">
	.st0{fill:none;}
	.st1{fill:#E9EBDF;}
	.st2{fill:#0E352C;}
	.st3{fill:#FFFFFF;}
	.st4{fill:#4D9987;}
	.st5{fill:#C4D7D3;}
	.st6{fill:#27ae60;}
	.st7{fill:#185849;}
</style>
<g>
	<rect x="1" y="1" class="st0" width="126" height="126"/>
	<path class="st1" d="M104.6,87.3c-0.1-0.1-0.2-0.1-0.3-0.2c-7.4-4.3-19.3-4.3-26.7,0c-0.1,0.1-0.2,0.1-0.3,0.2H72v8.4
		c0,2.8,1.8,5.6,5.5,7.7c7.4,4.3,19.3,4.3,26.7,0c3.7-2.1,5.5-4.9,5.5-7.7v-8.4H104.6z"/>
	<path class="st2" d="M91,107.5c-4.8,0.1-9.6-1-13.9-3.3c-3.9-2.2-6-5.3-6-8.6v-8.4c0-0.6,0.4-1,1-1h5c7.6-4.4,20.1-4.4,27.7,0l0,0
		h5c0.6,0,1,0.4,1,1v8.4c0,3.3-2.1,6.3-6,8.6C100.6,106.5,95.8,107.6,91,107.5z M73.1,88.3v7.4c0,2.5,1.8,5,5,6.8
		c7.1,4.1,18.6,4.1,25.7,0c3.2-1.9,5-4.3,5-6.8v-7.4h-4.3c-0.2,0-0.4,0-0.5-0.1l-0.2-0.1c-7.1-4.1-18.6-4.1-25.7,0l-0.2,0.1
		c-0.2,0.1-0.3,0.1-0.5,0.1H73.1z"/>
	<path class="st1" d="M104.3,103.3c3.7-2.1,5.5-4.9,5.5-7.7v-8.4h-5.3c-0.1-0.1-0.2-0.1-0.3-0.2c-4.1-2.2-8.7-3.3-13.4-3.2v22.6
		C95.6,106.6,100.2,105.5,104.3,103.3z"/>
	<path class="st2" d="M91,107.5c-4.8,0.1-9.6-1-13.9-3.3c-3.9-2.2-6-5.3-6-8.6v-8.4c0-0.6,0.4-1,1-1h5c7.6-4.4,20.1-4.4,27.7,0l0,0
		h5c0.6,0,1,0.4,1,1v8.4c0,3.3-2.1,6.3-6,8.6C100.6,106.5,95.8,107.6,91,107.5z M73.1,88.3v7.4c0,2.5,1.8,5,5,6.8
		c7.1,4.1,18.6,4.1,25.7,0c3.2-1.9,5-4.3,5-6.8v-7.4h-4.3c-0.2,0-0.4,0-0.5-0.1l-0.2-0.1c-7.1-4.1-18.6-4.1-25.7,0l-0.2,0.1
		c-0.2,0.1-0.3,0.1-0.5,0.1H73.1z"/>
	<ellipse class="st3" cx="91" cy="87.3" rx="18.9" ry="10.9"/>
	<path class="st4" d="M91,99.1c-4.8,0.1-9.6-1-13.9-3.3c-3.9-2.2-6-5.3-6-8.6s2.1-6.3,6-8.6c7.6-4.4,20.1-4.4,27.7,0
		c3.9,2.2,6,5.3,6,8.6s-2.1,6.3-6,8.6C100.6,98.1,95.8,99.2,91,99.1z M91,77.3c-4.5-0.1-8.9,1-12.9,3.1c-3.2,1.9-5,4.3-5,6.8
		s1.8,5,5,6.9c7.1,4.1,18.6,4.1,25.7,0c3.2-1.9,5-4.3,5-6.8s-1.8-5-5-6.8C99.9,78.3,95.4,77.2,91,77.3L91,77.3z"/>
	<path class="st2" d="M91,107.5c-4.8,0.1-9.6-1-13.9-3.3c-3.9-2.2-6-5.3-6-8.6v-8.4c0-3.3,2.1-6.3,6-8.6c7.6-4.4,20.1-4.4,27.7,0
		c3.9,2.2,6,5.3,6,8.6v8.4c0,1.2-0.3,2.5-0.9,3.6c-1.2,2.1-3,3.9-5.1,5c-1,0.6-2,1.1-3.1,1.5s-2.3,0.8-3.4,1
		C95.9,107.3,93.4,107.5,91,107.5z M91,77.3c-4.5-0.1-8.9,1-12.9,3.1c-3.2,1.9-5,4.3-5,6.8v8.4c0,2.5,1.8,5,5,6.8
		c4,2.1,8.4,3.2,12.9,3.1c2.3,0,4.6-0.3,6.9-0.8c1.1-0.2,2.1-0.6,3.2-1c1-0.4,1.9-0.8,2.8-1.3c1.8-1,3.3-2.4,4.4-4.2
		c0.4-0.8,0.7-1.7,0.7-2.7v-8.4c0-2.5-1.8-5-5-6.8C99.9,78.3,95.4,77.2,91,77.3z"/>
	<path class="st1" d="M50.7,87.3c-0.1-0.1-0.2-0.1-0.3-0.2c-7.4-4.3-19.3-4.3-26.7,0c-0.1,0.1-0.2,0.1-0.3,0.2h-5.3v8.4
		c0,2.8,1.8,5.6,5.5,7.7c7.4,4.3,19.3,4.3,26.7,0c3.7-2.1,5.5-4.9,5.5-7.7v-8.4H50.7z"/>
	<path class="st2" d="M37,107.5c-4.8,0.1-9.6-1-13.9-3.3c-3.9-2.2-6-5.3-6-8.6v-8.4c0-0.6,0.4-1,1-1h5c7.6-4.4,20.1-4.4,27.7,0l0,0
		h5c0.6,0,1,0.4,1,1v8.4c0,3.3-2.1,6.3-6,8.6C46.6,106.5,41.9,107.6,37,107.5z M19.1,88.3v7.4c0,2.5,1.8,5,5,6.8
		c7.1,4.1,18.6,4.1,25.7,0c3.2-1.9,5-4.3,5-6.8v-7.4h-4.3c-0.2,0-0.4,0-0.5-0.1L49.9,88c-7.1-4.1-18.6-4.1-25.7,0L24,88.1
		c-0.2,0.1-0.3,0.1-0.5,0.1h-4.4V88.3z"/>
	<path class="st1" d="M50.4,103.3c3.7-2.1,5.5-4.9,5.5-7.7v-8.4h-5.3c-0.1-0.1-0.2-0.1-0.3-0.2c-4.1-2.2-8.7-3.3-13.4-3.2v22.6
		C41.7,106.6,46.3,105.5,50.4,103.3z"/>
	<path class="st2" d="M37,107.5c-4.8,0.1-9.6-1-13.9-3.3c-3.9-2.2-6-5.3-6-8.6v-8.4c0-0.6,0.4-1,1-1h5c7.6-4.4,20.1-4.4,27.7,0l0,0
		h5c0.6,0,1,0.4,1,1v8.4c0,3.3-2.1,6.3-6,8.6C46.6,106.5,41.9,107.6,37,107.5z M19.1,88.3v7.4c0,2.5,1.8,5,5,6.8
		c7.1,4.1,18.6,4.1,25.7,0c3.2-1.9,5-4.3,5-6.8v-7.4h-4.3c-0.2,0-0.4,0-0.5-0.1L49.9,88c-7.1-4.1-18.6-4.1-25.7,0L24,88.1
		c-0.2,0.1-0.3,0.1-0.5,0.1h-4.4V88.3z"/>
	<ellipse class="st3" cx="37" cy="87.3" rx="18.9" ry="10.9"/>
	<path class="st4" d="M37,99.1c-4.8,0.1-9.6-1-13.9-3.3c-3.9-2.2-6-5.3-6-8.6s2.1-6.3,6-8.6c7.6-4.4,20.1-4.4,27.7,0
		c3.9,2.2,6,5.3,6,8.6s-2.1,6.3-6,8.6C46.6,98.1,41.9,99.2,37,99.1z M37,77.3c-4.5-0.1-8.9,1-12.9,3.1c-3.2,1.9-5,4.3-5,6.8
		s1.8,5,5,6.8c7.1,4.1,18.6,4.1,25.7,0c3.2-1.9,5-4.3,5-6.8s-1.8-5-5-6.8l0,0C45.9,78.3,41.5,77.2,37,77.3L37,77.3z"/>
	<path class="st2" d="M37,107.5c-4.8,0.1-9.6-1-13.9-3.3c-3.9-2.2-6-5.3-6-8.6v-8.4c0-3.3,2.1-6.3,6-8.6c7.6-4.4,20.1-4.4,27.7,0
		c3.9,2.2,6,5.3,6,8.6v8.4c0,1.2-0.3,2.5-0.9,3.6c-1.2,2.1-3,3.9-5.1,5c-1,0.6-2,1.1-3.1,1.5s-2.3,0.8-3.4,1
		C42,107.3,39.5,107.5,37,107.5z M37,77.3c-4.5-0.1-8.9,1-12.9,3.1c-3.2,1.9-5,4.3-5,6.8v8.4c0,2.5,1.8,5,5,6.8
		c4,2.1,8.4,3.2,12.9,3.1c2.3,0,4.6-0.3,6.9-0.8c1.1-0.2,2.1-0.6,3.2-1c1-0.4,1.9-0.8,2.8-1.3c1.8-1,3.3-2.4,4.4-4.2
		c0.4-0.8,0.7-1.7,0.7-2.7v-8.4c0-2.5-1.8-5-5-6.8C45.9,78.3,41.5,77.2,37,77.3z"/>
	<path class="st1" d="M50.7,78.9c-0.1-0.1-0.2-0.1-0.3-0.2c-7.4-4.3-19.3-4.3-26.7,0c-0.1,0.1-0.2,0.1-0.3,0.2h-5.3v8.4
		c0,2.8,1.8,5.6,5.5,7.7c7.4,4.3,19.3,4.3,26.7,0c3.7-2.1,5.5-4.9,5.5-7.7v-8.4H50.7z"/>
	<path class="st2" d="M37,99.1c-4.8,0.1-9.6-1-13.9-3.3c-3.9-2.2-6-5.3-6-8.6v-8.4c0-0.6,0.4-1,1-1h5c7.6-4.4,20.1-4.4,27.7,0l0,0h5
		c0.6,0,1,0.4,1,1v8.4c0,3.3-2.1,6.3-6,8.6C46.6,98.1,41.9,99.2,37,99.1z M19.1,79.9v7.4c0,2.5,1.8,5,5,6.8c7.1,4.1,18.6,4.1,25.7,0
		c3.2-1.9,5-4.3,5-6.8v-7.4h-4.3c-0.2,0-0.4,0-0.5-0.1l-0.2-0.1c-7.1-4.1-18.6-4.1-25.7,0l-0.2,0.1c-0.2,0.1-0.3,0.1-0.5,0.1H19.1z"
		/>
	<path class="st1" d="M50.4,95c3.7-2.1,5.5-4.9,5.5-7.7v-8.4h-5.3c-0.1-0.1-0.2-0.1-0.3-0.2c-4.1-2.2-8.7-3.3-13.4-3.2v22.6
		C41.7,98.2,46.3,97.1,50.4,95z"/>
	<path class="st2" d="M37,99.1c-4.8,0.1-9.6-1-13.9-3.3c-3.9-2.2-6-5.3-6-8.6v-8.4c0-0.6,0.4-1,1-1h5c7.6-4.4,20.1-4.4,27.7,0l0,0h5
		c0.6,0,1,0.4,1,1v8.4c0,3.3-2.1,6.3-6,8.6C46.6,98.1,41.9,99.2,37,99.1z M19.1,79.9v7.4c0,2.5,1.8,5,5,6.8c7.1,4.1,18.6,4.1,25.7,0
		c3.2-1.9,5-4.3,5-6.8v-7.4h-4.3c-0.2,0-0.4,0-0.5-0.1l-0.2-0.1c-7.1-4.1-18.6-4.1-25.7,0l-0.2,0.1c-0.2,0.1-0.3,0.1-0.5,0.1H19.1z"
		/>
	<ellipse class="st3" cx="37" cy="78.9" rx="18.9" ry="10.9"/>
	<path class="st4" d="M37,90.8c-4.8,0.1-9.6-1-13.9-3.3c-3.9-2.2-6-5.3-6-8.6s2.1-6.3,6-8.6c7.6-4.4,20.1-4.4,27.7,0
		c3.9,2.2,6,5.3,6,8.6s-2.1,6.3-6,8.6C46.6,89.7,41.9,90.9,37,90.8z M37,69c-4.5-0.1-8.9,1-12.9,3.1c-3.2,1.9-5,4.3-5,6.8
		s1.8,5,5,6.8c7.1,4.1,18.6,4.1,25.7,0c3.2-1.9,5-4.3,5-6.8s-1.8-5-5-6.9l0,0C45.9,69.9,41.5,68.9,37,69L37,69z"/>
	<path class="st2" d="M37,99.2c-4.8,0.1-9.6-1-13.9-3.3c-3.9-2.2-6-5.3-6-8.6v-8.4c0-3.3,2.1-6.3,6-8.6c7.6-4.4,20.1-4.4,27.7,0
		c3.9,2.2,6,5.3,6,8.6v8.4c0,1.2-0.3,2.5-0.9,3.6c-1.2,2.1-3,3.9-5.1,5c-1,0.6-2,1.1-3.1,1.5s-2.3,0.8-3.4,1
		C42,98.9,39.5,99.2,37,99.2z M37,69c-4.5-0.1-8.9,1-12.9,3.1c-3.2,1.9-5,4.3-5,6.8v8.4c0,2.5,1.8,5,5,6.8c4,2.1,8.4,3.2,12.9,3.1
		c2.3,0,4.6-0.3,6.9-0.8c1.1-0.2,2.1-0.6,3.2-1c1-0.4,1.9-0.8,2.8-1.3c1.8-1,3.3-2.4,4.4-4.2c0.4-0.8,0.7-1.7,0.7-2.7v-8.4
		c0-2.5-1.8-5-5-6.8C45.9,69.9,41.5,68.9,37,69z"/>
	<path class="st1" d="M77.5,102.6c-0.1-0.1-0.2-0.1-0.3-0.2c-7.4-4.3-19.3-4.3-26.7,0c-0.1,0.1-0.2,0.1-0.3,0.2H45v8.4
		c0,2.8,1.8,5.6,5.5,7.7c7.4,4.3,19.3,4.3,26.7,0c3.7-2.1,5.5-4.9,5.5-7.7v-8.4H77.5z"/>
	<path class="st2" d="M63.9,122.8c-4.8,0.1-9.6-1-13.9-3.3c-3.9-2.2-6-5.3-6-8.6v-8.4c0-0.6,0.4-1,1-1h5c7.6-4.4,20.1-4.4,27.7,0
		l0,0h5c0.6,0,1,0.4,1,1v8.4c0,3.3-2.1,6.3-6,8.6C73.5,121.8,68.7,122.9,63.9,122.8z M46,103.6v7.4c0,2.5,1.8,5,5,6.8
		c7.1,4.1,18.6,4.1,25.7,0c3.2-1.9,5-4.3,5-6.8v-7.4h-4.3c-0.2,0-0.4,0-0.5-0.1l-0.2-0.1c-7.1-4.1-18.6-4.1-25.7,0l-0.2,0.1
		c-0.2,0.1-0.3,0.1-0.5,0.1H46z"/>
	<path class="st1" d="M77.3,118.6c3.7-2.1,5.5-4.9,5.5-7.7v-8.4h-5.3c-0.1-0.1-0.2-0.1-0.3-0.2c-4.1-2.2-8.7-3.3-13.4-3.2v22.6
		C68.6,121.9,73.2,120.8,77.3,118.6z"/>
	<path class="st2" d="M63.9,122.8c-4.8,0.1-9.6-1-13.9-3.3c-3.9-2.2-6-5.3-6-8.6v-8.4c0-0.6,0.4-1,1-1h5c7.6-4.4,20.1-4.4,27.7,0
		l0,0h5c0.6,0,1,0.4,1,1v8.4c0,3.3-2.1,6.3-6,8.6C73.5,121.8,68.7,122.9,63.9,122.8z M46,103.6v7.4c0,2.5,1.8,5,5,6.8
		c7.1,4.1,18.6,4.1,25.7,0c3.2-1.9,5-4.3,5-6.8v-7.4h-4.3c-0.2,0-0.4,0-0.5-0.1l-0.2-0.1c-7.1-4.1-18.6-4.1-25.7,0l-0.2,0.1
		c-0.2,0.1-0.3,0.1-0.5,0.1H46z"/>
	<ellipse class="st3" cx="63.9" cy="102.6" rx="18.9" ry="10.9"/>
	<path class="st4" d="M63.9,114.4c-4.8,0.1-9.6-1-13.9-3.3c-3.9-2.2-6-5.3-6-8.6s2.1-6.3,6-8.6c7.6-4.4,20.1-4.4,27.7,0
		c3.9,2.2,6,5.3,6,8.6s-2.1,6.3-6,8.6C73.5,113.4,68.7,114.5,63.9,114.4z M63.9,92.6c-4.5-0.1-8.9,1-12.9,3.1c-3.2,1.9-5,4.3-5,6.8
		s1.8,5,5,6.8c7.1,4.1,18.6,4.1,25.7,0c3.2-1.9,5-4.3,5-6.8s-1.8-5-5-6.8C72.8,93.6,68.4,92.6,63.9,92.6L63.9,92.6z"/>
	<path class="st2" d="M63.9,122.8c-4.8,0.1-9.6-1.1-13.9-3.3c-3.9-2.2-6-5.3-6-8.6v-8.4c0-3.3,2.1-6.3,6-8.6
		c7.6-4.4,20.1-4.4,27.7,0c3.9,2.2,6,5.3,6,8.6v8.4c0,1.2-0.3,2.5-0.9,3.6c-0.4,0.8-0.9,1.5-1.5,2.2c-1.1,1.1-2.3,2.1-3.6,2.8
		C73.5,121.8,68.7,122.9,63.9,122.8z M63.9,92.6c-4.5-0.1-8.9,1-12.9,3.1c-3.2,1.9-5,4.3-5,6.8v8.4c0,2.5,1.8,5,5,6.8
		c4,2.1,8.4,3.2,12.9,3.1c4.5,0.1,8.9-1,12.9-3.1c1.2-0.7,2.2-1.5,3.1-2.4c0.5-0.5,0.9-1.1,1.2-1.8c0.4-0.8,0.7-1.7,0.7-2.6v-8.4
		c0-2.5-1.8-5-5-6.8C72.8,93.6,68.4,92.5,63.9,92.6z"/>
	<path class="st1" d="M77.5,94.2c-0.1-0.1-0.2-0.1-0.3-0.2c-7.4-4.3-19.3-4.3-26.7,0c-0.1,0.1-0.2,0.1-0.3,0.2H45v8.4
		c0,2.8,1.8,5.6,5.5,7.7c7.4,4.3,19.3,4.3,26.7,0c3.7-2.1,5.5-4.9,5.5-7.7v-8.4H77.5z"/>
	<path class="st2" d="M63.9,114.4c-4.8,0.1-9.6-1-13.9-3.3c-3.9-2.2-6-5.3-6-8.6v-8.4c0-0.6,0.4-1,1-1h5c7.6-4.4,20.1-4.4,27.7,0
		l0,0h5c0.6,0,1,0.4,1,1v8.4c0,3.3-2.1,6.3-6,8.6C73.5,113.4,68.7,114.5,63.9,114.4z M46,95.2v7.4c0,2.5,1.8,5,5,6.8
		c7.1,4.1,18.6,4.1,25.7,0c3.2-1.9,5-4.3,5-6.8v-7.4h-4.3c-0.2,0-0.4,0-0.5-0.1L76.7,95c-7.1-4.1-18.6-4.1-25.7,0h-0.2
		c-0.2,0.1-0.3,0.1-0.5,0.1L46,95.2L46,95.2z"/>
	<path class="st1" d="M77.3,110.3c3.7-2.1,5.5-4.9,5.5-7.7v-8.4h-5.3c-0.1-0.1-0.2-0.1-0.3-0.2c-4.1-2.2-8.7-3.3-13.4-3.2v22.6
		C68.6,113.5,73.2,112.4,77.3,110.3z"/>
	<path class="st2" d="M63.9,114.4c-4.8,0.1-9.6-1-13.9-3.3c-3.9-2.2-6-5.3-6-8.6v-8.4c0-0.6,0.4-1,1-1h5c7.6-4.4,20.1-4.4,27.7,0
		l0,0h5c0.6,0,1,0.4,1,1v8.4c0,3.3-2.1,6.3-6,8.6C73.5,113.4,68.7,114.5,63.9,114.4z M46,95.2v7.4c0,2.5,1.8,5,5,6.8
		c7.1,4.1,18.6,4.1,25.7,0c3.2-1.9,5-4.3,5-6.8v-7.4h-4.3c-0.2,0-0.4,0-0.5-0.1L76.7,95c-7.1-4.1-18.6-4.1-25.7,0h-0.2
		c-0.2,0.1-0.3,0.1-0.5,0.1L46,95.2L46,95.2z"/>
	<ellipse class="st3" cx="63.9" cy="94.2" rx="18.9" ry="10.9"/>
	<path class="st4" d="M63.9,106.1c-4.8,0.1-9.6-1-13.9-3.3c-3.9-2.2-6-5.3-6-8.6s2.1-6.3,6-8.6c7.6-4.4,20.1-4.4,27.7,0
		c3.9,2.2,6,5.3,6,8.6s-2.1,6.3-6,8.6C73.5,105,68.7,106.2,63.9,106.1z M63.9,84.3c-4.5-0.1-8.9,1-12.9,3.1c-3.2,1.9-5,4.3-5,6.8
		s1.8,5,5,6.8c7.1,4.1,18.6,4.1,25.7,0c3.2-1.9,5-4.3,5-6.8s-1.8-5-5-6.8C72.8,85.2,68.4,84.2,63.9,84.3L63.9,84.3z"/>
	<path class="st2" d="M63.9,114.5c-4.8,0.1-9.6-1-13.9-3.3c-3.9-2.2-6-5.3-6-8.6v-8.4c0-3.3,2.1-6.3,6-8.6c7.6-4.4,20.1-4.4,27.7,0
		c3.9,2.2,6,5.3,6,8.6v8.4c0,1.2-0.3,2.5-0.9,3.6c-0.4,0.8-0.9,1.5-1.5,2.2c-1.1,1.1-2.3,2.1-3.6,2.8
		C73.5,113.4,68.7,114.6,63.9,114.5z M63.9,84.3c-4.5-0.1-8.9,1-12.9,3.1c-3.2,1.9-5,4.3-5,6.8v8.4c0,2.5,1.8,5,5,6.8
		c4,2.1,8.4,3.2,12.9,3.1c4.5,0.1,8.9-1,12.9-3.1c1.2-0.7,2.2-1.5,3.1-2.4c0.5-0.5,0.9-1.1,1.2-1.8c0.4-0.8,0.7-1.7,0.7-2.6v-8.4
		c0-2.5-1.8-5-5-6.8C72.8,85.2,68.4,84.2,63.9,84.3z"/>
	<path class="st1" d="M77.5,85.8c-0.1-0.1-0.2-0.1-0.3-0.2c-7.4-4.3-19.3-4.3-26.7,0c-0.1,0.1-0.2,0.1-0.3,0.2H45v8.4
		c0,2.8,1.8,5.6,5.5,7.7c7.4,4.3,19.3,4.3,26.7,0c3.7-2.1,5.5-4.9,5.5-7.7v-8.4H77.5z"/>
	<path class="st2" d="M63.9,106.1c-4.8,0.1-9.6-1-13.9-3.3c-3.9-2.2-6-5.3-6-8.6v-8.4c0-0.6,0.4-1,1-1h5c7.6-4.4,20.1-4.4,27.7,0
		l0,0h5c0.6,0,1,0.4,1,1v8.4c0,3.3-2.1,6.3-6,8.6C73.5,105,68.7,106.2,63.9,106.1z M46,86.8v7.4c0,2.5,1.8,5,5,6.8
		c7.1,4.1,18.6,4.1,25.7,0c3.2-1.9,5-4.3,5-6.8v-7.4h-4.3c-0.2,0-0.4,0-0.5-0.1l-0.2-0.1c-7.1-4.1-18.6-4.1-25.7,0l-0.2,0.1
		c-0.2,0.1-0.3,0.1-0.5,0.1H46z"/>
	<path class="st1" d="M77.3,101.9c3.7-2.1,5.5-4.9,5.5-7.7v-8.4h-5.3c-0.1-0.1-0.2-0.1-0.3-0.2c-4.1-2.2-8.7-3.3-13.4-3.2V105
		C68.6,105.2,73.2,104.1,77.3,101.9z"/>
	<path class="st2" d="M63.9,106.1c-4.8,0.1-9.6-1-13.9-3.3c-3.9-2.2-6-5.3-6-8.6v-8.4c0-0.6,0.4-1,1-1h5c7.6-4.4,20.1-4.4,27.7,0
		l0,0h5c0.6,0,1,0.4,1,1v8.4c0,3.3-2.1,6.3-6,8.6C73.5,105,68.7,106.2,63.9,106.1z M46,86.8v7.4c0,2.5,1.8,5,5,6.8
		c7.1,4.1,18.6,4.1,25.7,0c3.2-1.9,5-4.3,5-6.8v-7.4h-4.3c-0.2,0-0.4,0-0.5-0.1l-0.2-0.1c-7.1-4.1-18.6-4.1-25.7,0l-0.2,0.1
		c-0.2,0.1-0.3,0.1-0.5,0.1H46z"/>
	<ellipse class="st3" cx="63.9" cy="85.8" rx="18.9" ry="10.9"/>
	<path class="st4" d="M63.9,97.7c-4.8,0.1-9.6-1-13.9-3.3c-3.9-2.2-6-5.3-6-8.6s2.1-6.3,6-8.6c7.6-4.4,20.1-4.4,27.7,0
		c3.9,2.2,6,5.3,6,8.6s-2.1,6.3-6,8.6C73.5,96.6,68.7,97.8,63.9,97.7z M63.9,75.9c-4.5-0.1-8.9,1-12.9,3.1c-3.2,1.9-5,4.3-5,6.8
		s1.8,5,5,6.8c7.1,4.1,18.6,4.1,25.7,0c3.2-1.9,5-4.3,5-6.8s-1.8-5-5-6.8C72.8,76.9,68.4,75.8,63.9,75.9L63.9,75.9z"/>
	<path class="st2" d="M63.9,106.1c-4.8,0.1-9.6-1-13.9-3.3c-3.9-2.2-6-5.3-6-8.6v-8.4c0-3.3,2.1-6.3,6-8.6c7.6-4.4,20.1-4.4,27.7,0
		c3.9,2.2,6,5.3,6,8.6v8.4c0,1.2-0.3,2.5-0.9,3.6c-0.4,0.8-0.9,1.5-1.5,2.2c-1.1,1.1-2.3,2.1-3.6,2.8
		C73.5,105,68.7,106.2,63.9,106.1z M63.9,75.9c-4.5-0.1-8.9,1-12.9,3.1c-3.2,1.9-5,4.3-5,6.8v8.4c0,2.5,1.8,5,5,6.8
		c4,2.1,8.4,3.2,12.9,3.1c4.5,0.1,8.9-1,12.9-3.1c1.2-0.7,2.2-1.5,3.1-2.4c0.5-0.5,0.9-1.1,1.2-1.8c0.4-0.8,0.7-1.7,0.7-2.6v-8.4
		c0-2.5-1.8-5-5-6.8C72.8,76.9,68.4,75.8,63.9,75.9z"/>
	<path class="st1" d="M77.5,77.4c-0.1-0.1-0.2-0.1-0.3-0.2c-7.4-4.3-19.3-4.3-26.7,0c-0.1,0.1-0.2,0.1-0.3,0.2H45v8.4
		c0,2.8,1.8,5.6,5.5,7.7c7.4,4.3,19.3,4.3,26.7,0c3.7-2.1,5.5-4.9,5.5-7.7v-8.4H77.5z"/>
	<path class="st2" d="M63.9,97.7c-4.8,0.1-9.6-1-13.9-3.3c-3.9-2.2-6-5.3-6-8.6v-8.4c0-0.6,0.4-1,1-1h5c7.6-4.4,20.1-4.4,27.7,0l0,0
		h5c0.6,0,1,0.4,1,1v8.4c0,3.3-2.1,6.3-6,8.6C73.5,96.6,68.7,97.8,63.9,97.7z M46,78.4v7.4c0,2.5,1.8,5,5,6.8
		c7.1,4.1,18.6,4.1,25.7,0c3.2-1.9,5-4.3,5-6.8v-7.4h-4.3c-0.2,0-0.4,0-0.5-0.1l-0.2-0.1c-7.1-4.1-18.6-4.1-25.7,0l-0.2,0.1
		c-0.2,0.1-0.3,0.1-0.5,0.1H46z"/>
	<path class="st1" d="M77.3,93.5c3.7-2.1,5.5-4.9,5.5-7.7v-8.4h-5.3c-0.1-0.1-0.2-0.1-0.3-0.2c-4.1-2.2-8.7-3.3-13.4-3.2v22.6
		C68.6,96.8,73.2,95.7,77.3,93.5z"/>
	<path class="st2" d="M63.9,97.7c-4.8,0.1-9.6-1-13.9-3.3c-3.9-2.2-6-5.3-6-8.6v-8.4c0-0.6,0.4-1,1-1h5c7.6-4.4,20.1-4.4,27.7,0l0,0
		h5c0.6,0,1,0.4,1,1v8.4c0,3.3-2.1,6.3-6,8.6C73.5,96.6,68.7,97.8,63.9,97.7z M46,78.4v7.4c0,2.5,1.8,5,5,6.8
		c7.1,4.1,18.6,4.1,25.7,0c3.2-1.9,5-4.3,5-6.8v-7.4h-4.3c-0.2,0-0.4,0-0.5-0.1l-0.2-0.1c-7.1-4.1-18.6-4.1-25.7,0l-0.2,0.1
		c-0.2,0.1-0.3,0.1-0.5,0.1H46z"/>
	<ellipse class="st3" cx="63.9" cy="77.4" rx="18.9" ry="10.9"/>
	<path class="st4" d="M63.9,89.3c-4.8,0.1-9.6-1-13.9-3.3c-3.9-2.2-6-5.3-6-8.6s2.1-6.3,6-8.6c7.6-4.4,20.1-4.4,27.7,0
		c3.9,2.2,6,5.3,6,8.6s-2.1,6.3-6,8.6C73.5,88.3,68.7,89.4,63.9,89.3z M63.9,67.5c-4.5-0.1-8.9,1-12.9,3.1c-3.2,1.9-5,4.3-5,6.8
		s1.8,5,5,6.8c7.1,4.1,18.6,4.1,25.7,0c3.2-1.9,5-4.3,5-6.8s-1.8-5-5-6.8C72.8,68.5,68.4,67.4,63.9,67.5L63.9,67.5z"/>
	<path class="st2" d="M63.9,97.7c-4.8,0.1-9.6-1-13.9-3.3c-3.9-2.2-6-5.3-6-8.6v-8.4c0-3.3,2.1-6.3,6-8.6c7.6-4.4,20.1-4.4,27.7,0
		c3.9,2.2,6,5.3,6,8.6v8.4c0,1.2-0.3,2.5-0.9,3.6c-0.4,0.8-0.9,1.5-1.5,2.2c-1.1,1.1-2.3,2.1-3.6,2.8C73.5,96.7,68.7,97.8,63.9,97.7
		z M63.9,67.5c-4.5-0.1-8.9,1-12.9,3.1c-3.2,1.9-5,4.3-5,6.8v8.4c0,2.5,1.8,5,5,6.8c4,2.1,8.4,3.2,12.9,3.1c4.5,0.1,8.9-1,12.9-3.1
		c1.2-0.6,2.2-1.5,3.1-2.4c0.5-0.5,0.9-1.1,1.2-1.8c0.4-0.8,0.7-1.7,0.7-2.6v-8.4c0-2.5-1.8-5-5-6.8C72.8,68.5,68.4,67.4,63.9,67.5z
		"/>
	<ellipse class="st3" cx="63.9" cy="77.4" rx="18.9" ry="10.9"/>
	<path class="st4" d="M63.9,89.3c-4.8,0.1-9.6-1-13.9-3.3c-3.9-2.2-6-5.3-6-8.6s2.1-6.3,6-8.6c7.6-4.4,20.1-4.4,27.7,0
		c3.9,2.2,6,5.3,6,8.6s-2.1,6.3-6,8.6C73.5,88.3,68.7,89.4,63.9,89.3z M63.9,67.5c-4.5-0.1-8.9,1-12.9,3.1c-3.2,1.9-5,4.3-5,6.8
		s1.8,5,5,6.8c7.1,4.1,18.6,4.1,25.7,0c3.2-1.9,5-4.3,5-6.8s-1.8-5-5-6.8C72.8,68.5,68.4,67.4,63.9,67.5L63.9,67.5z"/>
	<path class="st1" d="M77.5,69.1c-0.1-0.1-0.2-0.1-0.3-0.2c-7.4-4.3-19.3-4.3-26.7,0c-0.1,0.1-0.2,0.1-0.3,0.2H45v8.4
		c0,2.8,1.8,5.6,5.5,7.7c7.4,4.3,19.3,4.3,26.7,0c3.7-2.1,5.5-4.9,5.5-7.7v-8.4H77.5z"/>
	<path class="st2" d="M63.9,89.3c-4.8,0.1-9.6-1-13.9-3.3c-3.9-2.2-6-5.3-6-8.6V69c0-0.6,0.4-1,1-1h5c7.6-4.4,20.1-4.4,27.7,0l0,0h5
		c0.6,0,1,0.4,1,1v8.4c0,3.3-2.1,6.3-6,8.6C73.5,88.3,68.7,89.4,63.9,89.3z M46,70.1v7.4c0,2.5,1.8,5,5,6.8c7.1,4.1,18.6,4.1,25.7,0
		c3.2-1.9,5-4.3,5-6.8v-7.4h-4.3c-0.2,0-0.4,0-0.5-0.1l-0.2-0.1c-7.1-4.1-18.6-4.1-25.7,0L50.8,70c-0.2,0.1-0.3,0.1-0.5,0.1H46z"/>
	<path class="st1" d="M77.3,85.1c3.7-2.1,5.5-4.9,5.5-7.7V69h-5.3c-0.1-0.1-0.2-0.1-0.3-0.2c-4.1-2.2-8.7-3.3-13.4-3.2v22.6
		C68.6,88.4,73.2,87.3,77.3,85.1z"/>
	<path class="st2" d="M63.9,89.3c-4.8,0.1-9.6-1-13.9-3.3c-3.9-2.2-6-5.3-6-8.6V69c0-0.6,0.4-1,1-1h5c7.6-4.4,20.1-4.4,27.7,0l0,0h5
		c0.6,0,1,0.4,1,1v8.4c0,3.3-2.1,6.3-6,8.6C73.5,88.3,68.7,89.4,63.9,89.3z M46,70.1v7.4c0,2.5,1.8,5,5,6.8c7.1,4.1,18.6,4.1,25.7,0
		c3.2-1.9,5-4.3,5-6.8v-7.4h-4.3c-0.2,0-0.4,0-0.5-0.1l-0.2-0.1c-7.1-4.1-18.6-4.1-25.7,0L50.8,70c-0.2,0.1-0.3,0.1-0.5,0.1H46z"/>
	<ellipse class="st3" cx="63.9" cy="69.1" rx="18.9" ry="10.9"/>
	<path class="st4" d="M63.9,80.9c-4.8,0.1-9.6-1-13.9-3.3c-3.9-2.2-6-5.3-6-8.6s2.1-6.3,6-8.6c7.6-4.4,20.1-4.4,27.7,0
		c3.9,2.2,6,5.3,6,8.6s-2.1,6.3-6,8.6C73.5,79.9,68.7,81,63.9,80.9z M63.9,59.1c-4.5-0.1-8.9,1-12.9,3.1c-3.2,1.9-5,4.3-5,6.8
		s1.8,5,5,6.8c7.1,4.1,18.6,4.1,25.7,0c3.2-1.9,5-4.3,5-6.8s-1.8-5-5-6.8C72.8,60.1,68.4,59,63.9,59.1L63.9,59.1z"/>
	<path class="st2" d="M63.9,89.3c-4.8,0.1-9.6-1.1-13.9-3.3c-3.9-2.2-6-5.3-6-8.6V69c0-3.3,2.1-6.3,6-8.6c7.6-4.4,20.1-4.4,27.7,0
		c3.9,2.2,6,5.3,6,8.6v8.4c0,1.2-0.3,2.5-0.9,3.6c-0.4,0.8-0.9,1.5-1.5,2.2c-1.1,1.1-2.3,2.1-3.6,2.8C73.5,88.3,68.7,89.4,63.9,89.3
		z M63.9,59.1c-4.5-0.1-8.9,1-12.9,3.1c-3.2,1.9-5,4.3-5,6.8v8.4c0,2.5,1.8,5,5,6.8c4,2.1,8.4,3.2,12.9,3.1c4.5,0.1,8.9-1,12.9-3.1
		c1.2-0.7,2.2-1.5,3.1-2.4c0.5-0.5,0.9-1.1,1.2-1.8c0.4-0.8,0.7-1.7,0.7-2.6V69c0-2.5-1.8-5-5-6.8C72.8,60.1,68.4,59,63.9,59.1z"/>
	<path class="st5" d="M77.5,25.4c-0.1-0.1-0.2-0.1-0.3-0.2c-7.4-4.3-19.3-4.3-26.7,0c-0.1,0.1-0.2,0.1-0.3,0.2H45v8.4
		c0,2.8,1.8,5.6,5.5,7.7c7.4,4.3,19.3,4.3,26.7,0c3.7-2.1,5.5-4.9,5.5-7.7v-8.4H77.5z"/>
	<path class="st5" d="M77.3,41.5c3.7-2.1,5.5-4.9,5.5-7.7v-8.4h-5.3c-0.1-0.1-0.2-0.1-0.3-0.2c-4.1-2.2-8.7-3.3-13.4-3.2v22.6
		C68.6,44.8,73.2,43.7,77.3,41.5z"/>
	<path class="st2" d="M63.9,45.7c-4.8,0.1-9.6-1-13.9-3.3c-3.9-2.2-6-5.3-6-8.6v-8.4c0-0.6,0.4-1,1-1h5c7.6-4.4,20.1-4.4,27.7,0l0,0
		h5c0.6,0,1,0.4,1,1v8.4c0,3.3-2.1,6.3-6,8.6C73.5,44.6,68.7,45.8,63.9,45.7z M46,26.4v7.4c0,2.5,1.8,5,5,6.8
		c7.1,4.1,18.6,4.1,25.7,0c3.2-1.9,5-4.3,5-6.8v-7.4h-4.3c-0.2,0-0.4,0-0.5-0.1l-0.2-0.1c-7.1-4.1-18.6-4.1-25.7,0l-0.2,0.1
		c-0.2,0.1-0.3,0.1-0.5,0.1H46z"/>
	<ellipse class="st3" cx="63.9" cy="25.4" rx="18.9" ry="10.9"/>
	<path class="st6" d="M63.9,37.3c-4.8,0.1-9.6-1-13.9-3.3c-3.9-2.2-6-5.3-6-8.6s2.1-6.3,6-8.6c7.6-4.4,20.1-4.4,27.7,0
		c3.9,2.2,6,5.3,6,8.6s-2.1,6.3-6,8.6C73.5,36.3,68.7,37.4,63.9,37.3z M63.9,15.5c-4.5-0.1-8.9,1-12.9,3.1c-3.2,1.9-5,4.3-5,6.8
		s1.8,5,5,6.8c7.1,4.1,18.6,4.1,25.7,0c3.2-1.9,5-4.3,5-6.8s-1.8-5-5-6.8C72.8,16.5,68.4,15.4,63.9,15.5L63.9,15.5z"/>
	<path class="st7" d="M63.9,45.7c-4.8,0.1-9.6-1-13.9-3.3c-3.9-2.2-6-5.3-6-8.6v-8.4c0-3.3,2.1-6.3,6-8.6c7.6-4.4,20.1-4.4,27.7,0
		c3.9,2.2,6,5.3,6,8.6v8.4c0,0.8-0.1,1.6-0.4,2.4c-0.2,0.6-0.4,1.1-0.7,1.6c-1.2,1.9-2.9,3.5-4.9,4.6c-1,0.6-2,1.1-3.1,1.5
		s-2.3,0.8-3.4,1C68.9,45.4,66.4,45.7,63.9,45.7z M63.9,15.5c-4.5-0.1-8.9,1-12.9,3.1c-3.2,1.9-5,4.3-5,6.8v8.4c0,2.5,1.8,5,5,6.8
		c4,2.1,8.4,3.2,12.9,3.1c2.3,0,4.6-0.3,6.9-0.8c1.1-0.2,2.1-0.6,3.2-1c1-0.4,1.9-0.8,2.8-1.3c1.7-0.9,3.1-2.2,4.2-3.9
		c0.2-0.4,0.4-0.8,0.6-1.2c0.2-0.6,0.3-1.2,0.3-1.8v-8.4c0-2.5-1.8-5-5-6.8C72.8,16.5,68.4,15.4,63.9,15.5z"/>
	<path class="st5" d="M77.5,17.1c-0.1-0.1-0.2-0.1-0.3-0.2c-7.4-4.3-19.3-4.3-26.7,0c-0.1,0.1-0.2,0.1-0.3,0.2H45v8.4
		c0,2.8,1.8,5.6,5.5,7.7c7.4,4.3,19.3,4.3,26.7,0c3.7-2.1,5.5-4.9,5.5-7.7v-8.4H77.5z"/>
	<path class="st5" d="M77.3,33.2c3.7-2.1,5.5-4.9,5.5-7.7v-8.4h-5.3c-0.1-0.1-0.2-0.1-0.3-0.2c-4.1-2.2-8.7-3.3-13.4-3.2v22.6
		C68.6,36.4,73.2,35.3,77.3,33.2z"/>
	<path class="st2" d="M63.9,37.3c-4.8,0.1-9.6-1-13.9-3.3c-3.9-2.2-6-5.3-6-8.6V17c0-0.6,0.4-1,1-1h5c7.6-4.4,20.1-4.4,27.7,0l0,0h5
		c0.6,0,1,0.4,1,1v8.4c0,3.3-2.1,6.3-6,8.6C73.5,36.3,68.7,37.4,63.9,37.3z M46,18.1v7.4c0,2.5,1.8,5,5,6.8c7.1,4.1,18.6,4.1,25.7,0
		c3.2-1.9,5-4.3,5-6.8v-7.4h-4.3c-0.2,0-0.4,0-0.5-0.1l-0.2-0.1c-7.1-4.1-18.6-4.1-25.7,0L50.8,18c-0.2,0.1-0.3,0.1-0.5,0.1H46z"/>
	<ellipse class="st3" cx="63.9" cy="17.1" rx="18.9" ry="10.9"/>
	<path class="st6" d="M63.9,29c-4.8,0.1-9.6-1-13.9-3.3c-3.9-2.2-6-5.3-6-8.6s2.1-6.3,6-8.6c7.6-4.4,20.1-4.4,27.7,0
		c3.9,2.2,6,5.3,6,8.6s-2.1,6.3-6,8.6C73.5,27.9,68.7,29.1,63.9,29z M63.9,7.2c-4.5-0.1-8.9,1-12.9,3.1c-3.2,1.9-5,4.3-5,6.8
		s1.8,5,5,6.8c7.1,4.1,18.6,4.1,25.7,0c3.2-1.9,5-4.3,5-6.8s-1.8-5-5-6.8C72.8,8.1,68.4,7.1,63.9,7.2L63.9,7.2z"/>
	<path class="st7" d="M63.9,37.4c-4.8,0.1-9.6-1-13.9-3.3c-3.9-2.2-6-5.3-6-8.6v-8.4c0-3.3,2.1-6.3,6-8.6c7.6-4.4,20.1-4.4,27.7,0
		c3.9,2.2,6,5.3,6,8.6v8.4c0,0.8-0.1,1.6-0.4,2.4c-0.2,0.6-0.4,1.1-0.7,1.6c-1.2,1.9-2.9,3.5-4.9,4.6c-1,0.6-2,1.1-3.1,1.5
		s-2.3,0.8-3.4,1C68.9,37.1,66.4,37.4,63.9,37.4z M63.9,7.2c-4.5-0.1-8.9,1-12.9,3.1c-3.2,1.9-5,4.3-5,6.8v8.4c0,2.5,1.8,5,5,6.8
		c4,2.1,8.4,3.2,12.9,3.1c2.3,0,4.6-0.3,6.9-0.8c1.1-0.2,2.1-0.6,3.2-1c1-0.4,1.9-0.8,2.8-1.3c1.7-0.9,3.1-2.2,4.2-3.9
		c0.2-0.4,0.4-0.8,0.6-1.2c0.2-0.6,0.3-1.2,0.3-1.8V17c0-2.5-1.8-5-5-6.8l0,0C72.8,8.1,68.4,7.1,63.9,7.2z"/>
	<path class="st7" d="M45,61.2c-0.1,0-0.3,0-0.4-0.1c-0.1-0.1-0.2-0.1-0.3-0.2c-0.2-0.2-0.3-0.4-0.3-0.7s0.1-0.5,0.3-0.7
		c0.1-0.1,0.2-0.2,0.3-0.2c0.4-0.1,0.8-0.1,1.1,0.2c0.2,0.2,0.3,0.4,0.3,0.7s-0.1,0.5-0.3,0.7c-0.1,0.1-0.2,0.2-0.3,0.2
		C45.3,61.2,45.2,61.3,45,61.2z"/>
	<path class="st7" d="M44,54.6c0-0.6,0.4-1,1-1l0,0c0.6,0,1,0.4,1,1l0,0c0,0.6-0.4,1-1,1l0,0C44.5,55.6,44,55.1,44,54.6z M44,48.9
		c0-0.6,0.4-1,1-1l0,0c0.6,0,1,0.4,1,1l0,0c0,0.6-0.4,1-1,1l0,0C44.5,49.9,44,49.4,44,48.9z"/>
	<path class="st7" d="M45,44.2c-0.3,0-0.5-0.1-0.7-0.3c-0.1-0.1-0.2-0.2-0.2-0.3C44,43.5,44,43.4,44,43.2c0-0.1,0-0.3,0.1-0.4
		c0-0.1,0.1-0.2,0.2-0.3c0.4-0.4,1-0.4,1.4,0c0.1,0.1,0.2,0.2,0.2,0.3s0.1,0.3,0.1,0.4c0,0.1,0,0.3-0.1,0.4
		c-0.1,0.1-0.1,0.2-0.2,0.3c-0.1,0.1-0.2,0.2-0.3,0.2C45.3,44.2,45.2,44.2,45,44.2z"/>
	<path class="st7" d="M82.8,61.5c-0.3,0-0.5-0.1-0.7-0.3c-0.3-0.3-0.4-0.7-0.2-1.1c0.1-0.1,0.1-0.2,0.2-0.3c0.4-0.4,1-0.4,1.4,0
		c0.1,0.1,0.2,0.2,0.2,0.3c0.1,0.1,0.1,0.2,0.1,0.4c0,0.3-0.1,0.5-0.3,0.7C83.3,61.4,83.1,61.5,82.8,61.5z"/>
	<path class="st7" d="M81.8,54.7c0-0.6,0.4-1,1-1l0,0c0.6,0,1,0.4,1,1l0,0c0,0.6-0.4,1-1,1l0,0C82.2,55.7,81.8,55.3,81.8,54.7z
		 M81.8,49c0-0.6,0.4-1,1-1l0,0c0.6,0,1,0.4,1,1l0,0c0,0.6-0.4,1-1,1l0,0C82.2,50,81.8,49.5,81.8,49z"/>
	<path class="st7" d="M82.8,44.2c-0.3,0-0.5-0.1-0.7-0.3c-0.1-0.1-0.2-0.2-0.2-0.3s-0.1-0.2-0.1-0.4c0-0.1,0-0.3,0.1-0.4
		c0.1-0.1,0.1-0.2,0.2-0.3c0.4-0.4,1-0.4,1.4,0c0.1,0.1,0.2,0.2,0.2,0.3c0.1,0.1,0.1,0.3,0.1,0.4c0,0.1,0,0.3-0.1,0.4
		c0,0.1-0.1,0.2-0.2,0.3C83.3,44.1,83.1,44.2,82.8,44.2z"/>
	<rect class="st0" width="128" height="128"/>
</g>
</svg>
