<?xml version="1.0" encoding="utf-8"?>
<!-- Generator: Adobe Illustrator 24.1.0, SVG Export Plug-In . SVG Version: 6.00 Build 0)  -->
<svg version="1.1" id="Layer_1" xmlns="http://www.w3.org/2000/svg" xmlns:xlink="http://www.w3.org/1999/xlink" x="0px" y="0px"
	 viewBox="0 0 128 128" style="enable-background:new 0 0 128 128;" xml:space="preserve">
<style type="text/css">
	.st0{fill:#E9EBDF;}
	.st1{fill:#0E352C;}
	.st2{fill:#FFFFFF;}
	.st3{fill:none;}
	.st4{fill:#C4D7D3;}
	.st5{fill:#185849;}
	.st6{fill:#27ae60;}
</style>
<g>
	<path class="st0" d="M101,60.2l10.6,18.3c0.2,0.4,0.1,0.9-0.3,1.1c-0.3,0.1-0.6,0.1-0.8,0l-15.3-8.8c-0.7-0.4-1.2-0.9-1.6-1.6
		L80.7,49.6c-0.2-0.4-0.1-0.9,0.3-1.1c0.3-0.1,0.6-0.1,0.8,0l17.5,10.1C100,58.9,100.6,59.5,101,60.2z"/>
	<path class="st1" d="M110.8,80.7c-0.3,0-0.6-0.1-0.9-0.2l-15.3-8.8c-0.8-0.5-1.5-1.2-2-2L79.9,50.1c-0.5-0.9-0.3-2,0.6-2.5
		c0.6-0.4,1.3-0.4,1.9,0l17.5,10.1c0.8,0.5,1.5,1.2,2,2L112.5,78c0.5,0.9,0.2,2-0.7,2.5C111.4,80.6,111.1,80.7,110.8,80.7
		L110.8,80.7z M82,49.7l12.3,18.9c0.3,0.5,0.7,1,1.3,1.3l14.8,8.5l-10.2-17.7l0,0c-0.3-0.5-0.7-0.9-1.2-1.2L82,49.7z"/>
	<path class="st1" d="M110.8,80.7c-0.3,0-0.6-0.1-0.9-0.2l-13.7-7.9c-0.8-0.5-1.5-1.2-2-2L79.9,50.1c-0.5-0.7-0.4-1.7,0.2-2.3
		s1.5-0.7,2.2-0.3l17.5,10.1c0.8,0.5,1.5,1.2,2,2l10.6,18.3c0.5,0.9,0.2,2-0.7,2.5C111.4,80.6,111.1,80.7,110.8,80.7L110.8,80.7z
		 M82,49.7l13.9,19.8c0.3,0.5,0.8,1,1.3,1.3l13.1,7.6l-10.2-17.7l0,0c-0.3-0.5-0.7-0.9-1.2-1.2L82,49.7z"/>
	<path class="st2" d="M78.3,49.4l-11,32c-0.4,1.2,0.1,2.6,1.2,3.3l16.9,9.8c1.1,0.6,2.4,0.2,3-0.8c0.1-0.1,0.1-0.2,0.2-0.4
		l11.1-31.9c0.4-1.2-0.1-2.6-1.2-3.3l-16.9-9.8c-1.1-0.6-2.4-0.3-3,0.8C78.4,49.2,78.4,49.3,78.3,49.4z"/>
	<path class="st1" d="M86.5,95.7c-0.6,0-1.1-0.1-1.6-0.4L68,85.5c-1.6-0.9-2.3-2.8-1.7-4.5l11.1-31.9l0,0c0.6-1.7,2.4-2.6,4.1-2
		c0.2,0.1,0.4,0.2,0.6,0.3L99,57.2c1.6,0.9,2.3,2.8,1.7,4.5L89.5,93.6C89.1,94.8,87.9,95.7,86.5,95.7z M79.3,49.7l-11.1,32
		c-0.3,0.8,0.1,1.7,0.8,2.1l16.9,9.8c0.6,0.3,1.3,0.1,1.6-0.4c0-0.1,0.1-0.1,0.1-0.2l11.1-32c0.3-0.8-0.1-1.7-0.8-2.1L81,49.1
		c-0.6-0.3-1.3-0.1-1.6,0.4C79.3,49.6,79.3,49.7,79.3,49.7L79.3,49.7z"/>
	<polygon class="st3" points="79.2,46.9 66.5,83.5 87.7,95.7 100.4,59.1 	"/>
	<path class="st0" d="M85.1,89.3c-0.2,0-0.3,0-0.5-0.1L72,81.9c-0.4-0.2-0.6-0.7-0.4-1.2L80.8,54c0.2-0.5,0.8-0.8,1.3-0.6
		c0.1,0,0.1,0,0.2,0.1l12.6,7.3c0.4,0.2,0.6,0.7,0.4,1.2L86,88.6C85.9,89,85.5,89.3,85.1,89.3L85.1,89.3z M73.8,80.6l10.8,6.2
		L93.2,62l-10.8-6.2L73.8,80.6z"/>
	<path class="st0" d="M75.6,74.8l10.6,18.3c0.2,0.4,0.1,0.9-0.3,1.1c-0.3,0.1-0.6,0.1-0.8,0l-15.3-8.8c-0.7-0.4-1.2-0.9-1.6-1.6
		L55.4,64.2c-0.2-0.4-0.1-0.9,0.3-1.1c0.3-0.2,0.6-0.1,0.8,0L74,73.2C74.7,73.6,75.2,74.1,75.6,74.8z"/>
	<path class="st1" d="M85.4,95.3c-0.3,0-0.6-0.1-0.9-0.2l-15.3-8.8c-0.8-0.5-1.5-1.2-2-2L54.5,64.8c-0.5-0.9-0.3-2,0.6-2.5
		c0.6-0.4,1.3-0.4,1.9,0l17.5,10.1c0.8,0.5,1.5,1.2,2,2l0,0L87,92.6c0.5,0.9,0.2,2-0.7,2.5C86.1,95.2,85.8,95.3,85.4,95.3L85.4,95.3
		z M56.6,64.3l12.3,18.9c0.3,0.5,0.7,1,1.3,1.3L85,93L74.7,75.3c-0.3-0.5-0.7-0.9-1.2-1.2L56.6,64.3z"/>
	<path class="st1" d="M85.4,95.3c-0.3,0-0.6-0.1-0.9-0.2l-13.7-7.9c-0.8-0.5-1.5-1.2-2-2L54.5,64.8c-0.5-0.7-0.4-1.7,0.2-2.3
		c0.6-0.6,1.5-0.7,2.2-0.3l17.5,10.1c0.8,0.5,1.5,1.2,2,2l0,0L87,92.6c0.5,0.9,0.2,2-0.7,2.5C86.1,95.2,85.8,95.3,85.4,95.3
		L85.4,95.3z M56.7,64.3l13.9,19.8c0.3,0.5,0.8,1,1.3,1.3L85,93L74.7,75.3c-0.3-0.5-0.7-0.9-1.2-1.2L56.7,64.3z"/>
	<path class="st2" d="M52.9,64.1L41.9,96c-0.4,1.2,0.1,2.6,1.2,3.3l16.9,9.8c1.1,0.6,2.4,0.2,3-0.8c0.1-0.1,0.1-0.2,0.2-0.4L74.3,76
		c0.4-1.2-0.1-2.6-1.2-3.3l-16.9-9.8c-1.1-0.6-2.4-0.2-3,0.8C53.1,63.8,53,63.9,52.9,64.1z"/>
	<path class="st1" d="M61.1,110.4c-0.6,0-1.1-0.1-1.6-0.4l-16.9-9.8c-1.6-0.9-2.3-2.8-1.7-4.5l11.1-32l0,0c0.6-1.7,2.4-2.6,4.1-2
		c0.2,0.1,0.4,0.2,0.6,0.3l16.9,9.8c1.6,0.9,2.3,2.8,1.7,4.5l-11.1,31.9C63.7,109.5,62.5,110.4,61.1,110.4L61.1,110.4z M53.9,64.4
		L42.8,96.3c-0.3,0.8,0.1,1.7,0.8,2.1l16.9,9.8c0.6,0.3,1.3,0.1,1.6-0.4c0-0.1,0.1-0.1,0.1-0.2l11.1-31.9c0.3-0.8-0.1-1.7-0.8-2.1
		l-16.9-9.8c-0.6-0.3-1.3-0.1-1.6,0.4C54,64.2,53.9,64.3,53.9,64.4L53.9,64.4z"/>
	<polygon class="st3" points="53.8,61.5 41.1,98.2 62.3,110.4 75,73.8 	"/>
	<path class="st0" d="M59.7,103.9c-0.2,0-0.3,0-0.5-0.1l-12.6-7.3c-0.4-0.2-0.6-0.7-0.4-1.2l9.2-26.7c0.2-0.5,0.8-0.8,1.3-0.6
		c0.1,0,0.1,0,0.2,0.1l12.6,7.3c0.4,0.2,0.6,0.7,0.4,1.2l-9.2,26.7C60.5,103.7,60.2,103.9,59.7,103.9z M48.4,95.2l10.8,6.2l8.6-24.8
		L57,70.5L48.4,95.2z"/>
	<path class="st0" d="M50.2,89.4l10.5,18.3c0.2,0.4,0.1,0.9-0.3,1.1c-0.3,0.1-0.6,0.1-0.8,0L44.3,100c-0.7-0.4-1.2-0.9-1.6-1.6
		L30,78.9c-0.2-0.4-0.1-0.9,0.3-1.1c0.3-0.1,0.6-0.1,0.8,0l17.5,10.1C49.3,88.2,49.8,88.8,50.2,89.4z"/>
	<path class="st1" d="M60.1,110c-0.3,0-0.6-0.1-0.9-0.2L43.9,101c-0.8-0.5-1.5-1.2-2-2L29.2,79.4c-0.5-0.9-0.3-2,0.6-2.5
		c0.6-0.4,1.3-0.4,1.9,0L49.1,87c0.8,0.5,1.5,1.2,2,2l0,0l10.6,18.3c0.5,0.9,0.2,2-0.7,2.5C60.7,109.9,60.4,110,60.1,110z M31.3,79
		l12.3,18.9c0.3,0.5,0.7,1,1.3,1.3l14.8,8.5L49.4,89.9l0,0c-0.3-0.5-0.7-0.9-1.2-1.2L31.3,79z"/>
	<path class="st1" d="M60.1,110c-0.3,0-0.6-0.1-0.9-0.2l-13.7-7.9c-0.8-0.5-1.5-1.2-2-2L29.2,79.4c-0.5-0.7-0.4-1.7,0.2-2.3
		c0.6-0.6,1.5-0.7,2.2-0.3L49.1,87c0.8,0.5,1.5,1.2,2,2l0,0l10.5,18.3c0.5,0.9,0.2,2-0.7,2.5C60.7,109.9,60.4,110,60.1,110z
		 M31.3,79l13.9,19.8c0.3,0.5,0.8,1,1.3,1.3l13.1,7.6L49.4,89.9l0,0c-0.3-0.5-0.7-0.9-1.2-1.2L31.3,79z"/>
	<path class="st2" d="M27.6,78.7l-11.1,31.9c-0.4,1.2,0.1,2.6,1.2,3.3l16.9,9.8c1.1,0.6,2.4,0.2,3-0.8c0.1-0.1,0.1-0.2,0.2-0.4
		l11.1-31.9c0.4-1.2-0.1-2.6-1.2-3.3l-16.9-9.8c-1.1-0.6-2.4-0.3-3,0.8C27.7,78.4,27.6,78.6,27.6,78.7z"/>
	<path class="st1" d="M35.8,125c-0.6,0-1.1-0.1-1.6-0.4l-16.9-9.8c-1.6-0.9-2.3-2.8-1.7-4.5l11.1-31.9l0,0c0.6-1.7,2.4-2.6,4.1-2
		c0.2,0.1,0.4,0.2,0.6,0.3l16.9,9.8c1.6,0.9,2.3,2.8,1.7,4.5l-11.1,31.9C38.3,124.1,37.1,125,35.8,125z M28.5,79l-11,32
		c-0.3,0.8,0.1,1.7,0.8,2.1l16.9,9.8c0.6,0.3,1.3,0.1,1.6-0.4c0-0.1,0.1-0.1,0.1-0.2l11.1-32c0.3-0.8-0.1-1.7-0.8-2.1l-16.9-9.8
		c-0.6-0.3-1.3-0.1-1.6,0.4C28.6,78.9,28.6,79,28.5,79L28.5,79z"/>
	<path class="st0" d="M34.4,118.6c-0.2,0-0.3,0-0.5-0.1l-12.6-7.3c-0.4-0.2-0.6-0.7-0.4-1.2l9.2-26.7c0.2-0.5,0.8-0.8,1.3-0.6
		c0.1,0,0.1,0,0.2,0.1L44.1,90c0.4,0.2,0.6,0.7,0.4,1.2l-9.2,26.7C35.2,118.3,34.8,118.6,34.4,118.6L34.4,118.6z M23,109.9l10.8,6.2
		l8.6-24.8l-10.8-6.2L23,109.9z"/>
	<path class="st0" d="M88.3,38.2l10.5,18.3c0.2,0.4,0.1,0.9-0.3,1.1c-0.3,0.1-0.6,0.1-0.8,0l-15.3-8.8c-0.7-0.4-1.2-0.9-1.6-1.6
		L68,27.6c-0.2-0.4-0.1-0.9,0.3-1.1c0.3-0.1,0.6-0.1,0.8,0l17.5,10.1C87.3,37,87.9,37.5,88.3,38.2z"/>
	<path class="st1" d="M98.1,58.7c-0.3,0-0.6-0.1-0.9-0.2l-15.3-8.8c-0.8-0.5-1.5-1.2-2-2L67.2,28.1c-0.5-0.9-0.3-2,0.6-2.5
		c0.6-0.4,1.3-0.4,1.9,0l17.5,10.1c0.8,0.5,1.5,1.2,2,2L99.7,56c0.5,0.9,0.2,2-0.7,2.5C98.7,58.6,98.4,58.7,98.1,58.7L98.1,58.7z
		 M69.3,27.7l12.3,18.9c0.3,0.5,0.7,1,1.3,1.3l14.8,8.5L87.4,38.7l0,0c-0.3-0.5-0.7-0.9-1.2-1.2L69.3,27.7z"/>
	<path class="st1" d="M98.1,58.7c-0.3,0-0.6-0.1-0.9-0.2l-13.7-7.9c-0.8-0.5-1.5-1.2-2-2L67.2,28.2c-0.5-0.7-0.4-1.7,0.2-2.3
		c0.6-0.6,1.5-0.7,2.2-0.3l17.5,10.1c0.8,0.5,1.5,1.2,2,2L99.7,56c0.5,0.9,0.2,2-0.7,2.5C98.7,58.6,98.4,58.7,98.1,58.7L98.1,58.7z
		 M69.4,27.7l13.9,19.8c0.3,0.5,0.8,1,1.3,1.3l13.1,7.6L87.4,38.7l0,0c-0.3-0.5-0.7-0.9-1.2-1.2L69.4,27.7z"/>
	<path class="st2" d="M65.6,27.5l-11,31.9c-0.4,1.2,0.1,2.6,1.2,3.3l16.9,9.8c1.1,0.6,2.4,0.3,3-0.8c0.1-0.1,0.1-0.3,0.2-0.4
		l11.1-32c0.4-1.2-0.1-2.6-1.2-3.3l-16.9-9.8c-1.1-0.6-2.4-0.3-3,0.8C65.7,27.2,65.7,27.3,65.6,27.5z"/>
	<path class="st1" d="M73.8,73.7c-0.6,0-1.1-0.1-1.6-0.4l-16.9-9.8c-1.6-0.9-2.3-2.8-1.7-4.5l11.1-31.9l0,0c0.6-1.7,2.4-2.6,4.1-2
		c0.2,0.1,0.4,0.2,0.6,0.3l16.9,9.8c1.6,0.9,2.3,2.8,1.7,4.5L76.8,71.6C76.4,72.9,75.2,73.7,73.8,73.7z M66.6,27.8L55.5,59.7
		c-0.3,0.8,0.1,1.7,0.8,2.1l16.9,9.8c0.6,0.3,1.3,0.1,1.6-0.4c0-0.1,0.1-0.1,0.1-0.2L86,39c0.3-0.8-0.1-1.7-0.8-2.1l-16.9-9.8
		c-0.6-0.3-1.3-0.1-1.6,0.4C66.6,27.6,66.6,27.7,66.6,27.8z"/>
	<polygon class="st3" points="66.5,24.9 53.8,61.5 75,73.8 87.7,37.2 	"/>
	<path class="st0" d="M72.4,67.3c-0.2,0-0.3,0-0.5-0.1l-12.6-7.3c-0.4-0.2-0.6-0.7-0.4-1.2L68.1,32c0.2-0.5,0.8-0.8,1.3-0.6
		c0.1,0,0.1,0,0.2,0.1l12.6,7.3c0.4,0.2,0.6,0.7,0.4,1.2l-9.2,26.7C73.2,67.1,72.8,67.3,72.4,67.3z M61.1,58.6l10.8,6.2L80.5,40
		l-10.8-6.2L61.1,58.6z"/>
	<path class="st0" d="M62.9,52.8l10.5,18.3c0.2,0.4,0.1,0.9-0.3,1.1c-0.3,0.1-0.6,0.1-0.8,0L57,63.4c-0.7-0.4-1.2-0.9-1.6-1.6
		L42.7,42.2c-0.2-0.4-0.1-0.9,0.3-1.1c0.3-0.1,0.6-0.1,0.8,0l17.5,10.1C62,51.6,62.5,52.2,62.9,52.8z"/>
	<path class="st1" d="M72.8,73.4c-0.3,0-0.6-0.1-0.9-0.2l-15.3-8.8c-0.8-0.5-1.5-1.2-2-2L41.8,42.8c-0.5-0.9-0.3-2,0.6-2.5
		c0.6-0.4,1.3-0.4,1.9,0l17.5,10.1c0.8,0.5,1.5,1.2,2,2l0,0l10.5,18.3c0.5,0.9,0.2,2-0.7,2.5C73.4,73.3,73.1,73.3,72.8,73.4z
		 M43.9,42.4l12.3,18.9c0.3,0.5,0.7,1,1.3,1.3L72.3,71L62.1,53.3l0,0c-0.3-0.5-0.7-0.9-1.2-1.2L43.9,42.4z"/>
	<path class="st1" d="M72.8,73.4c-0.3,0-0.6-0.1-0.9-0.2l-13.7-7.9c-0.8-0.5-1.5-1.2-2-2L41.9,42.8c-0.5-0.7-0.4-1.7,0.2-2.3
		c0.6-0.6,1.5-0.7,2.2-0.3l17.5,10.1c0.8,0.5,1.5,1.2,2,2l0,0l10.5,18.3c0.5,0.9,0.2,2-0.7,2.5C73.4,73.3,73.1,73.3,72.8,73.4z
		 M44,42.4l13.9,19.8c0.3,0.5,0.8,1,1.3,1.3L72.3,71L62.1,53.3l0,0c-0.3-0.5-0.7-0.9-1.2-1.2L44,42.4z"/>
	<path class="st2" d="M40.3,42.1L29.2,74c-0.4,1.2,0.1,2.6,1.2,3.3l16.9,9.8c1.1,0.6,2.4,0.2,3-0.8c0.1-0.1,0.1-0.2,0.2-0.4L61.6,54
		c0.4-1.2-0.1-2.6-1.2-3.3l-16.9-9.8c-1.1-0.6-2.4-0.3-3,0.8C40.4,41.8,40.3,42,40.3,42.1z"/>
	<path class="st1" d="M48.4,88.4c-0.6,0-1.1-0.1-1.6-0.4l-16.9-9.8c-1.6-0.9-2.3-2.8-1.7-4.5l11.1-31.9l0,0c0.6-1.7,2.4-2.6,4.1-2
		c0.2,0.1,0.4,0.2,0.6,0.3l16.9,9.8c1.6,0.9,2.3,2.8,1.7,4.5L51.5,86.2C51,87.5,49.8,88.4,48.4,88.4z M41.2,42.4l-11.1,32
		c-0.3,0.8,0.1,1.7,0.8,2.1l16.9,9.8c0.6,0.3,1.3,0.1,1.6-0.4c0-0.1,0.1-0.1,0.1-0.2l11.1-31.9c0.3-0.8-0.1-1.7-0.8-2.1L43,41.8
		c-0.6-0.3-1.3-0.1-1.6,0.4C41.3,42.3,41.2,42.4,41.2,42.4z"/>
	<polygon class="st3" points="41.1,39.6 28.5,76.2 49.6,88.4 62.3,51.8 	"/>
	<path class="st0" d="M47,82c-0.2,0-0.3,0-0.5-0.1L34,74.6c-0.4-0.2-0.6-0.7-0.4-1.2l9.2-26.7c0.2-0.5,0.8-0.8,1.3-0.6
		c0.1,0,0.1,0,0.2,0.1l12.6,7.3c0.4,0.2,0.6,0.7,0.4,1.2L48,81.3c-0.1,0.3-0.3,0.5-0.6,0.6C47.3,82,47.2,82,47,82z M35.7,73.3
		l10.8,6.2l8.6-24.8l-10.8-6.2L35.7,73.3z"/>
	<path class="st0" d="M47,82c-0.2,0-0.3,0-0.5-0.1L34,74.6c-0.4-0.2-0.6-0.7-0.4-1.2l9.2-26.7c0.2-0.5,0.8-0.8,1.3-0.6
		c0.1,0,0.1,0,0.2,0.1l12.6,7.3c0.4,0.2,0.6,0.7,0.4,1.2L48,81.3c-0.1,0.3-0.3,0.5-0.6,0.6C47.3,82,47.2,82,47,82z M35.7,73.3
		l10.8,6.2l8.6-24.8l-10.8-6.2L35.7,73.3z"/>
	<path class="st4" d="M75.6,16.2l10.6,18.3c0.2,0.4,0.1,0.9-0.3,1.1c-0.3,0.1-0.6,0.1-0.8,0l-15.3-8.8c-0.7-0.4-1.2-0.9-1.6-1.6
		L55.4,5.6c-0.2-0.4-0.1-0.9,0.3-1.1c0.3-0.2,0.6-0.2,0.8,0L74,14.6C74.7,15,75.2,15.5,75.6,16.2z"/>
	<path class="st5" d="M85.4,36.7c-0.3,0-0.6-0.1-0.9-0.2l-15.3-8.8c-0.8-0.5-1.5-1.2-2-2L54.5,6.2c-0.5-0.9-0.3-2,0.6-2.5
		c0.6-0.4,1.3-0.4,1.9,0l17.5,10.1c0.8,0.5,1.5,1.2,2,2l0,0L87,34c0.5,0.9,0.2,2-0.7,2.5C86.1,36.7,85.8,36.7,85.4,36.7L85.4,36.7z
		 M56.6,5.7l12.3,18.9c0.3,0.5,0.7,1,1.3,1.3L85,34.4L74.7,16.7l0,0c-0.3-0.5-0.7-0.9-1.2-1.2L56.6,5.7z"/>
	<path class="st2" d="M52.9,5.5l-11,31.9c-0.4,1.2,0.1,2.6,1.2,3.3L60,50.5c1.1,0.6,2.4,0.2,3-0.8c0.1-0.1,0.1-0.2,0.2-0.4
		l11.1-31.9c0.4-1.2-0.1-2.6-1.2-3.3l-17-9.8c-1.1-0.6-2.4-0.2-3,0.8C53.1,5.2,53,5.4,52.9,5.5z"/>
	<path class="st5" d="M61.1,51.8c-0.6,0-1.1-0.1-1.6-0.4l-16.9-9.8c-1.6-0.9-2.3-2.8-1.7-4.5L52,5.2l0,0c0.6-1.7,2.4-2.6,4.1-2
		c0.2,0.1,0.4,0.2,0.6,0.3l16.9,9.8c1.6,0.9,2.3,2.8,1.7,4.5L64.1,49.6C63.7,50.9,62.5,51.8,61.1,51.8z M53.9,5.8l-11.1,32
		c-0.3,0.8,0.1,1.7,0.8,2.1l16.9,9.8c0.6,0.3,1.3,0.1,1.6-0.4c0-0.1,0.1-0.1,0.1-0.2L73.3,17c0.3-0.8-0.1-1.7-0.8-2.1L55.6,5.2
		C55.1,4.8,54.3,5,54,5.6C53.9,5.7,53.9,5.7,53.9,5.8z"/>
	<path class="st6" d="M59.7,45.4c-0.2,0-0.3,0-0.5-0.1L46.7,38c-0.4-0.2-0.6-0.7-0.4-1.2l9.2-26.7c0.2-0.5,0.8-0.8,1.3-0.6
		c0.1,0,0.1,0,0.2,0.1l12.6,7.3c0.4,0.2,0.6,0.7,0.4,1.2l-9.2,26.7c-0.1,0.3-0.3,0.5-0.6,0.6C60,45.3,59.9,45.4,59.7,45.4z
		 M48.4,36.7l10.8,6.2l8.6-24.8L57,11.9L48.4,36.7z"/>
	<rect x="1" y="1" class="st3" width="126" height="126"/>
	<rect class="st3" width="128" height="128"/>
</g>
</svg>
