<?xml version="1.0" encoding="utf-8"?>
<!-- Generator: Adobe Illustrator 24.1.0, SVG Export Plug-In . SVG Version: 6.00 Build 0)  -->
<svg version="1.1" id="Layer_1" xmlns="http://www.w3.org/2000/svg" xmlns:xlink="http://www.w3.org/1999/xlink" x="0px" y="0px"
	 viewBox="0 0 128 128" style="enable-background:new 0 0 128 128;" xml:space="preserve">
<style type="text/css">
	.st0{fill:none;}
	.st1{fill:#E9EBDF;}
	.st2{fill:#FFFFFF;}
	.st3{fill:#0E352C;}
	.st4{fill:#4D9987;}
	.st5{fill:#C4D7D3;}
	.st6{fill:#27ae60;}
	.st7{fill:#185849;}
</style>
<g>
	<rect x="1" y="1" class="st0" width="126" height="126"/>
	<path class="st1" d="M125.9,77.8c0.1-0.9-0.4-1.7-1.2-2.1L68.2,43.1c-1.9-1-4.3-1-6.2,0L3.3,77.3c-0.7,0.3-1.2,1-1.3,1.8l0,0V87
		c0.1,0.8,0.6,1.5,1.3,1.8l56.4,32.6c1.9,1,4.2,1,6.2,0l58.7-34.1c0.7-0.3,1.2-1,1.3-1.8v-7.9C126,77.6,126,77.7,125.9,77.8z"/>
	<path class="st1" d="M62.8,122c1.1,0,2.2-0.2,3.2-0.7l58.7-34.1c0.7-0.3,1.2-1,1.3-1.8v-7.9c-0.1,0.8-0.6,1.5-1.3,1.8L66,113.4
		c-1,0.5-2,0.8-3.1,0.7"/>
	<path class="st2" d="M124.7,75.7c1.7,1,1.7,2.6,0,3.6L66,113.4c-1.9,1-4.3,1-6.2,0L3.3,80.9c-1.7-1-1.7-2.6,0-3.6L62,43.1
		c1.9-1,4.3-1,6.2,0L124.7,75.7z"/>
	<path class="st1" d="M68.2,43.1c-1.9-1-4.3-1-6.2,0L3.3,77.3c-1.7,1-1.7,2.6,0,3.6l8.4,4.9L76.6,48L68.2,43.1z"/>
	<path class="st3" d="M29.1,63.3c-0.6,0-1-0.5-1-1c0-0.4,0.2-0.7,0.5-0.9l5.3-3.1c0.5-0.3,1.1-0.2,1.4,0.3c0.3,0.5,0.2,1.1-0.3,1.4
		c0,0-0.1,0-0.1,0.1l-5.3,3.1C29.4,63.2,29.3,63.3,29.1,63.3z"/>
	<path class="st3" d="M41.6,56c-0.6,0-1-0.5-1-1c0-0.4,0.2-0.7,0.5-0.9l9.3-5.4c0.5-0.3,1.1-0.1,1.3,0.4s0.1,1-0.3,1.3l-9.3,5.4
		C42,55.9,41.8,56,41.6,56z"/>
	<path class="st3" d="M11.4,73.6c-0.6,0-1-0.5-1-1c0-0.4,0.2-0.7,0.5-0.9l5.1-3c0.5-0.3,1.1-0.1,1.4,0.4s0.1,1.1-0.4,1.3l-5.1,3
		C11.7,73.5,11.6,73.6,11.4,73.6z"/>
	<path class="st4" d="M11.7,94.4c-0.6,0-1-0.4-1-1v-7.7c0-0.6,0.4-1,1-1s1,0.4,1,1v7.7C12.7,93.9,12.3,94.4,11.7,94.4L11.7,94.4z"/>
	<path class="st1" d="M84.9,103.4c-0.2,0-0.3,0-0.5-0.1L33.5,73.6c-0.5-0.3-0.6-0.9-0.4-1.4c0.3-0.5,0.9-0.6,1.4-0.4l50.9,29.7
		c0.5,0.3,0.6,0.9,0.4,1.4C85.6,103.2,85.3,103.4,84.9,103.4L84.9,103.4z"/>
	<path class="st1" d="M28.6,96.4c-0.6,0-1-0.4-1-1c0-0.4,0.2-0.7,0.5-0.9l64.8-37.8c0.5-0.3,1.1-0.1,1.4,0.3s0.1,1.1-0.3,1.4l0,0
		L29.1,96.3C28.9,96.4,28.8,96.4,28.6,96.4z"/>
	<path class="st1" d="M46.1,106.5c-0.6,0-1-0.4-1-1c0-0.4,0.2-0.7,0.5-0.9l64.8-37.8c0.5-0.3,1.1-0.2,1.4,0.3s0.2,1.1-0.3,1.4
		c0,0-0.1,0-0.1,0.1l-64.8,37.8C46.4,106.5,46.2,106.5,46.1,106.5z"/>
	<path class="st1" d="M106.8,90.7c-0.2,0-0.3,0-0.5-0.1L55.4,60.9c-0.5-0.2-0.7-0.8-0.4-1.3c0.2-0.5,0.8-0.7,1.3-0.4
		c0,0,0.1,0,0.1,0.1L107.3,89c0.5,0.3,0.6,0.9,0.4,1.4C107.5,90.5,107.2,90.7,106.8,90.7L106.8,90.7z"/>
	<path class="st4" d="M62.9,115.2c-1.3,0-2.5-0.3-3.6-0.9L2.8,81.7c-1.5-0.6-2.2-2.3-1.6-3.7c0.3-0.7,0.8-1.3,1.6-1.6l58.7-34.1
		c2.3-1.2,4.9-1.2,7.2,0l56.4,32.6l0,0c1.5,0.6,2.2,2.3,1.6,3.7c-0.3,0.7-0.9,1.3-1.6,1.6l-58.7,34.1
		C65.4,114.9,64.1,115.2,62.9,115.2z M65.1,43.4c-0.9,0-1.8,0.2-2.6,0.6L3.8,78.1C3.3,78.4,3,78.8,3,79s0.3,0.6,0.8,0.9l56.4,32.6
		c1.6,0.8,3.6,0.8,5.2,0l58.7-34.1c0.5-0.3,0.8-0.6,0.8-0.9s-0.3-0.7-0.8-0.9L67.7,44C66.9,43.6,66,43.4,65.1,43.4L65.1,43.4z"/>
	<path class="st4" d="M11.7,86.7c-0.2,0-0.3,0-0.5-0.1l-8.4-4.9c-1.5-0.6-2.2-2.3-1.6-3.7c0.3-0.7,0.8-1.3,1.6-1.6l58.7-34.1
		c2.3-1.2,4.9-1.2,7.2,0l0,0l8.4,4.9c0.5,0.3,0.6,0.9,0.4,1.4c-0.1,0.2-0.2,0.3-0.4,0.4L12.2,86.6C12.1,86.7,11.9,86.7,11.7,86.7z
		 M65.1,43.4c-0.9,0-1.8,0.2-2.6,0.6L3.8,78.1C3.3,78.4,3,78.8,3,79s0.3,0.6,0.8,0.9l7.9,4.6l63-36.5l-6.9-4
		C66.9,43.6,66,43.4,65.1,43.4L65.1,43.4z"/>
	<path class="st3" d="M62.9,123L62.9,123c-1.3,0-2.5-0.3-3.6-0.9L2.8,89.6c-1-0.5-1.7-1.5-1.8-2.7V79c0,0,0,0,0-0.1
		c0.1-1.1,0.8-2.1,1.8-2.6l58.7-34.1c2.3-1.2,4.9-1.2,7.2,0l56.4,32.6c1,0.5,1.6,1.4,1.8,2.4c0,0.1,0,0.2,0,0.2l0,0v7.9
		c-0.1,1.1-0.7,2.1-1.8,2.6L66.4,122C65.4,122.8,64.1,123.1,62.9,123z M3,79.1v7.8c0,0.3,0.3,0.7,0.8,0.9l56.4,32.6
		c1.6,0.8,3.6,0.8,5.2,0l58.7-34.1c0.5-0.3,0.8-0.6,0.8-0.9v-7.3c0-0.1-0.1-0.3,0-0.4v-0.1c0.1-0.5-0.5-0.9-0.8-1L67.7,44
		c-1.6-0.8-3.6-0.8-5.2,0L3.8,78.1C3.3,78.4,3,78.8,3,79.1L3,79.1L3,79.1z"/>
	
		<ellipse transform="matrix(2.844907e-03 -1 1 2.844907e-03 -41.1499 97.6237)" class="st4" cx="28.4" cy="69.4" rx="1.8" ry="3.2"/>
	
		<ellipse transform="matrix(2.844907e-03 -1 1 2.844907e-03 -6.5334 107.2311)" class="st4" cx="50.5" cy="56.9" rx="1.8" ry="3.2"/>
	<path class="st3" d="M28.4,70c-0.5,0-1-0.4-1-0.9c-0.2-2.7-1.7-5.1-4-6.6c-0.8-0.6-1.9-0.7-2.8-0.3c-0.8,0.6-1.3,1.6-1.2,2.6
		c0,1,0.2,2,0.6,2.9c0.3,0.5,0.1,1.1-0.4,1.4s-1.1,0.1-1.4-0.4c0,0,0-0.1-0.1-0.1c-0.5-1.2-0.8-2.5-0.8-3.8
		c-0.1-1.7,0.7-3.4,2.2-4.3c1.5-0.8,3.4-0.7,4.8,0.3c2.9,1.8,4.7,4.8,5,8.2C29.4,69.5,29,69.9,28.4,70L28.4,70L28.4,70z"/>
	<path class="st3" d="M50.5,57.3c-0.5,0-1-0.4-1-0.9c-0.2-2.7-1.7-5.1-4-6.6c-0.8-0.6-1.9-0.7-2.8-0.3c-0.8,0.6-1.3,1.6-1.2,2.6
		c0,0.9,0.2,1.9,0.6,2.8c0.2,0.5,0,1.1-0.5,1.3s-1.1,0-1.3-0.5l0,0c-0.5-1.1-0.7-2.3-0.7-3.6c-0.3-2.4,1.5-4.6,3.9-4.8
		c1.1-0.1,2.2,0.2,3.1,0.8c2.9,1.8,4.7,4.8,5,8.2C51.5,56.8,51.1,57.3,50.5,57.3C50.6,57.3,50.6,57.3,50.5,57.3L50.5,57.3z"/>
	<polygon class="st5" points="76.9,50.8 88.4,57.5 72.6,66.7 61,60 	"/>
	<polygon class="st1" points="76.9,13.1 88.4,19.8 72.6,29 61,22.3 	"/>
	<polygon class="st2" points="76.9,5.2 88.4,11.9 72.6,21.1 61,14.4 	"/>
	<polygon class="st6" points="88.4,11.9 72.6,21.1 72.6,29 88.4,19.8 	"/>
	<polygon class="st5" points="72.6,29 61,22.3 61,14.4 72.6,21.1 	"/>
	<path class="st7" d="M72.6,30c-0.2,0-0.3,0-0.5-0.1l-11.6-6.7C60.2,23,60,22.7,60,22.3v-7.9c0-0.4,0.2-0.7,0.5-0.9l15.9-9.2
		c0.3-0.2,0.7-0.2,1,0L88.9,11c0.3,0.2,0.5,0.5,0.5,0.9v7.9c0,0.4-0.2,0.7-0.5,0.9l-15.8,9.2C72.9,29.9,72.8,30,72.6,30z M62,21.7
		l10.6,6.1l14.9-8.6v-6.7L76.9,6.4L62,15V21.7z"/>
	<polygon class="st1" points="50.2,85.5 61.8,92.2 45.9,101.4 34.4,94.7 	"/>
	<polygon class="st2" points="50.2,77.7 61.8,84.3 45.9,93.6 34.4,86.9 	"/>
	<polygon class="st4" points="61.8,84.3 45.9,93.6 45.9,101.4 61.8,92.2 	"/>
	<polygon class="st1" points="45.9,101.4 34.4,94.7 34.4,86.9 45.9,93.6 	"/>
	<path class="st3" d="M45.9,102.4c-0.2,0-0.3,0-0.5-0.1l-11.6-6.7c-0.3-0.2-0.5-0.5-0.5-0.9v-7.9c0-0.4,0.2-0.7,0.5-0.9l15.8-9.2
		c0.3-0.2,0.7-0.2,1,0l11.6,6.7c0.3,0.2,0.5,0.5,0.5,0.9v7.9c0,0.4-0.2,0.7-0.5,0.9l-15.8,9.2C46.3,102.4,46.1,102.4,45.9,102.4z
		 M35.4,94.2l10.6,6.1l14.9-8.6V85l-10.6-6.1l-14.9,8.6V94.2z"/>
	<path class="st7" d="M88.4,50.6c-0.3,0-0.5-0.1-0.7-0.3s-0.3-0.4-0.3-0.7c0-0.1,0-0.1,0-0.2c0-0.1,0-0.1,0.1-0.2
		c0-0.1,0.1-0.1,0.1-0.2c0-0.1,0.1-0.1,0.1-0.2c0,0,0.1-0.1,0.2-0.1s0.1-0.1,0.2-0.1s0.1,0,0.2-0.1c0.1,0,0.3,0,0.4,0s0.1,0,0.2,0.1
		c0.1,0,0.1,0,0.2,0.1c0.1,0,0.1,0.1,0.2,0.1s0.1,0.1,0.1,0.2c0,0.1,0.1,0.1,0.1,0.2c0,0.1,0,0.1,0.1,0.2c0,0.1,0,0.1,0,0.2
		c0,0.3-0.1,0.5-0.3,0.7C89,50.5,88.7,50.6,88.4,50.6z"/>
	<path class="st7" d="M87.4,43.3c0-0.5,0.5-1,1-1l0,0l0,0c0.5,0,1,0.4,1,1l0,0l0,0c0,0.6-0.4,1-1,1l0,0l0,0
		C87.9,44.3,87.4,43.9,87.4,43.3L87.4,43.3z M87.4,37c0-0.6,0.4-1,1-1l0,0c0.6,0,1,0.4,1,1l0,0c0,0.6-0.4,1-1,1l0,0
		C87.9,38,87.4,37.6,87.4,37z M87.4,30.8c0-0.6,0.4-1,1-1l0,0c0.6,0,1,0.4,1,1l0,0c0,0.6-0.4,1-1,1l0,0
		C87.9,31.8,87.4,31.3,87.4,30.8z"/>
	<path class="st7" d="M88.4,25.5c-0.3,0-0.5-0.1-0.7-0.3c-0.2-0.2-0.3-0.4-0.3-0.7c0-0.3,0.1-0.5,0.3-0.7c0.3-0.3,0.7-0.4,1.1-0.2
		c0.1,0,0.1,0.1,0.2,0.1s0.1,0.1,0.2,0.1c0.2,0.2,0.3,0.4,0.3,0.7c0,0.3-0.1,0.5-0.3,0.7c-0.1,0.1-0.2,0.2-0.3,0.2
		C88.7,25.5,88.6,25.5,88.4,25.5z"/>
	<path class="st7" d="M61,54.3c-0.3,0-0.5-0.1-0.7-0.3c-0.1-0.1-0.2-0.2-0.2-0.3C60,53.5,60,53.4,60,53.3c0-0.3,0.1-0.5,0.3-0.7
		c0.1-0.1,0.2-0.2,0.3-0.2c0.2-0.1,0.5-0.1,0.8,0c0.1,0.1,0.2,0.1,0.3,0.2c0.2,0.2,0.3,0.4,0.3,0.7c0,0.1,0,0.3-0.1,0.4
		c-0.1,0.1-0.1,0.2-0.2,0.3C61.5,54.2,61.3,54.3,61,54.3z"/>
	<path class="st7" d="M60,46.8c0-0.6,0.4-1,1-1l0,0c0.6,0,1,0.4,1,1l0,0c0,0.6-0.4,1-1,1l0,0C60.5,47.8,60,47.4,60,46.8z M60,40.4
		c0-0.6,0.4-1,1-1l0,0c0.6,0,1,0.4,1,1l0,0c0,0.6-0.4,1-1,1l0,0C60.5,41.4,60,40.9,60,40.4z M60,33.9c0-0.6,0.4-1,1-1l0,0
		c0.6,0,1,0.4,1,1l0,0c0,0.6-0.4,1-1,1l0,0C60.5,34.9,60,34.5,60,33.9L60,33.9L60,33.9z"/>
	<path class="st7" d="M61,28.5c-0.3,0-0.5-0.1-0.7-0.3C60.1,28,60,27.7,60,27.5c0-0.1,0-0.3,0.1-0.4c0-0.1,0.1-0.2,0.2-0.3
		c0.4-0.4,1-0.4,1.4,0c0.1,0.1,0.2,0.2,0.2,0.3c0.1,0.1,0.1,0.2,0.1,0.4c0,0.3-0.1,0.5-0.3,0.7C61.5,28.3,61.3,28.4,61,28.5z"/>
	<rect class="st0" width="128" height="128"/>
</g>
</svg>
