<?xml version="1.0" encoding="utf-8"?>
<!-- Generator: Adobe Illustrator 24.1.0, SVG Export Plug-In . SVG Version: 6.00 Build 0)  -->
<svg version="1.1" id="Layer_1" xmlns="http://www.w3.org/2000/svg" xmlns:xlink="http://www.w3.org/1999/xlink" x="0px" y="0px"
	 viewBox="0 0 128 128" style="enable-background:new 0 0 128 128;" xml:space="preserve">
<style type="text/css">
	.st0{fill:#185849;}
	.st1{fill:#4D9987;}
	.st2{fill:#E9EBDF;}
	.st3{fill:#FFFFFF;}
	.st4{fill:#27ae60;}
	.st5{fill:#0E352C;}
	.st6{fill:#C4D7D3;}
	.st7{fill:none;}
</style>
<g>
	<path class="st0" d="M85,64.4c-0.3,0-0.5-0.1-0.7-0.3c-0.1-0.1-0.2-0.2-0.2-0.3S84,63.6,84,63.4c0-0.3,0.1-0.5,0.3-0.7
		c0.4-0.4,1-0.4,1.4,0c0.2,0.2,0.3,0.4,0.3,0.7c0,0.1,0,0.3-0.1,0.4c0,0.1-0.1,0.2-0.2,0.3C85.5,64.3,85.3,64.4,85,64.4z"/>
	<path class="st0" d="M84,57.5c0-0.5,0.4-1,1-1l0,0l0,0c0.6,0,1,0.4,1,1l0,0c0,0.6-0.4,1-1,1l0,0C84.5,58.5,84,58.1,84,57.5z
		 M84,51.6c0-0.6,0.4-1,1-1l0,0c0.6,0,1,0.4,1,1l0,0c0,0.6-0.4,1-1,1l0,0C84.5,52.6,84,52.1,84,51.6z M84,45.7c0-0.5,0.4-1,1-1l0,0
		l0,0c0.6,0,1,0.4,1,1l0,0c0,0.6-0.4,1-1,1l0,0C84.5,46.7,84,46.2,84,45.7z M84,39.8c0-0.6,0.4-1,1-1l0,0c0.6,0,1,0.4,1,1l0,0
		c0,0.6-0.4,1-1,1l0,0C84.5,40.8,84,40.3,84,39.8z"/>
	<path class="st0" d="M85,34.8c-0.5,0-1-0.4-1-1l0,0c0-0.3,0.1-0.5,0.3-0.7c0.4-0.4,1-0.4,1.4,0c0.2,0.2,0.3,0.4,0.3,0.7
		C86,34.4,85.6,34.8,85,34.8z"/>
	<path class="st0" d="M38,63.7c-0.3,0-0.5-0.1-0.7-0.3c-0.4-0.4-0.4-1,0-1.4c0.2-0.2,0.6-0.3,0.9-0.3c0.1,0,0.1,0,0.2,0.1
		c0.1,0,0.1,0.1,0.2,0.1l0.2,0.1c0.4,0.4,0.4,1,0,1.4c0,0-0.1,0.1-0.2,0.1c-0.1,0-0.1,0.1-0.2,0.1c-0.1,0-0.1,0-0.2,0
		C38.1,63.6,38,63.7,38,63.7z"/>
	<path class="st0" d="M37,56.8c0-0.6,0.4-1,1-1l0,0c0.6,0,1,0.4,1,1l0,0c0,0.5-0.4,1-1,1l0,0l0,0C37.4,57.7,37,57.3,37,56.8L37,56.8
		z M37,50.8c0-0.6,0.4-1,1-1l0,0c0.6,0,1,0.4,1,1l0,0c0,0.6-0.4,1-1,1l0,0C37.4,51.8,37,51.4,37,50.8z M37,44.9c0-0.6,0.4-1,1-1l0,0
		c0.6,0,1,0.4,1,1l0,0c0,0.6-0.4,1-1,1l0,0C37.4,45.9,37,45.5,37,44.9z M37,39c0-0.6,0.4-1,1-1l0,0c0.6,0,1,0.4,1,1l0,0
		c0,0.6-0.4,1-1,1l0,0C37.4,40,37,39.6,37,39z M37,33.1c0-0.6,0.4-1,1-1l0,0c0.6,0,1,0.4,1,1l0,0c0,0.6-0.4,1-1,1l0,0
		C37.4,34.1,37,33.7,37,33.1z"/>
	<path class="st0" d="M38,28.2c-0.3,0-0.5-0.1-0.7-0.3c-0.2-0.2-0.3-0.4-0.3-0.7c0-0.1,0-0.3,0.1-0.4c0-0.1,0.1-0.2,0.2-0.3
		c0.2-0.2,0.6-0.3,0.9-0.3c0.1,0,0.1,0,0.2,0c0.1,0,0.1,0.1,0.2,0.1c0.1,0,0.1,0.1,0.2,0.1c0.1,0.1,0.2,0.2,0.2,0.3
		c0.1,0.1,0.1,0.3,0.1,0.4c0,0.3-0.1,0.5-0.3,0.7L38.5,28c-0.1,0-0.1,0.1-0.2,0.1C38.2,28.1,38.2,28.1,38,28.2L38,28.2z"/>
	<path class="st1" d="M67.5,82.4c-4.2,0-8.5-0.6-11.5-2.3L37.5,69.4c-0.5-0.3-0.6-0.9-0.4-1.4c0.1-0.2,0.2-0.3,0.4-0.4l24.8-14.3
		c0.3-0.2,0.7-0.2,1,0L81.8,64c2.1,1.1,3.5,3,4,5.3c1.1,5.1-2.8,10.7-3,10.9c-0.1,0.2-0.3,0.3-0.6,0.4
		C77.4,81.8,72.4,82.3,67.5,82.4z M40,68.6l17,9.8c6.9,4,21.9,1,24.4,0.4c0.7-1.2,3.2-5.4,2.4-9c-0.4-1.7-1.5-3.2-3.1-4l-18-10.4
		L40,68.6z"/>
	<path class="st1" d="M67.5,82.4c-4.2,0-8.5-0.6-11.5-2.3L37.5,69.4c-0.5-0.3-0.6-0.9-0.4-1.4c0.1-0.2,0.2-0.3,0.4-0.4l24.8-14.3
		c0.3-0.2,0.7-0.2,1,0L81.8,64c2.1,1.1,3.5,3,4,5.3c1.1,5.1-2.8,10.7-3,10.9c-0.1,0.2-0.3,0.3-0.6,0.4
		C77.4,81.8,72.4,82.3,67.5,82.4z M40,68.6l17,9.8c6.9,4,21.9,1,24.4,0.4c0.7-1.2,3.2-5.4,2.4-9c-0.4-1.7-1.5-3.2-3.1-4l-18-10.4
		L40,68.6z"/>
	<path class="st1" d="M42.8,72.3c-0.2,0-0.3,0-0.5-0.1l-4.8-2.8c-0.5-0.3-0.6-0.9-0.4-1.4c0.1-0.2,0.2-0.3,0.4-0.4l24.8-14.3
		c0.3-0.2,0.7-0.2,1,0l4.8,2.8c0.5,0.3,0.6,0.9,0.4,1.4c-0.1,0.2-0.2,0.3-0.4,0.4L43.3,72.2C43.1,72.3,42.9,72.3,42.8,72.3z
		 M40,68.6l2.8,1.6L65.6,57l-2.8-1.6L40,68.6z"/>
	<path class="st1" d="M68.6,78c-0.2,0-0.5-0.1-0.6-0.2l-3.7-3.1h-6.6l0,0c-0.6,0-1-0.4-1-1c0-0.3,0.1-0.6,0.4-0.8l3.5-2.7l-1.8-3
		c-0.2-0.3-0.2-0.8,0-1.1c0.2-0.3,0.6-0.5,1-0.4l6.3,1.2l5.3-2.3c0.5-0.2,1.1,0,1.3,0.5c0.1,0.1,0.1,0.3,0.1,0.4L72.7,69l5,2.1
		c0.5,0.2,0.8,0.8,0.6,1.3c-0.1,0.3-0.4,0.5-0.8,0.6l-6.1,1l-1.8,3.4c-0.1,0.3-0.4,0.4-0.7,0.5C68.8,78,68.7,78,68.6,78z M64.6,72.7
		c0.2,0,0.5,0.1,0.6,0.2l3.1,2.5l1.5-2.8c0.1-0.3,0.4-0.5,0.7-0.5l3.3-0.6l-2.5-1c-0.4-0.2-0.6-0.5-0.6-0.9l0.1-2.5l-4.2,1.8
		C66.4,69,66.2,69,66,69l-4.4-0.9l1.1,1.9c0.3,0.4,0.1,1-0.2,1.3l-1.8,1.4L64.6,72.7L64.6,72.7z"/>
	<path class="st1" d="M68.6,78c-0.2,0-0.5-0.1-0.6-0.2l-3.7-3.1h-6.6l0,0c-0.6,0-1-0.4-1-1c0-0.3,0.1-0.6,0.4-0.8l3.5-2.7l-1.8-3
		c-0.2-0.3-0.2-0.8,0-1.1c0.2-0.3,0.6-0.5,1-0.4l6.3,1.2l5.3-2.3c0.5-0.2,1.1,0,1.3,0.5c0.1,0.1,0.1,0.3,0.1,0.4L72.7,69l5,2.1
		c0.5,0.2,0.8,0.8,0.6,1.3c-0.1,0.3-0.4,0.5-0.8,0.6l-6.1,1l-1.8,3.4c-0.1,0.3-0.4,0.4-0.7,0.5C68.8,78,68.7,78,68.6,78z M64.6,72.7
		c0.2,0,0.5,0.1,0.6,0.2l3.1,2.5l1.5-2.8c0.1-0.3,0.4-0.5,0.7-0.5l3.3-0.6l-2.5-1c-0.4-0.2-0.6-0.5-0.6-0.9l0.1-2.5l-4.2,1.8
		C66.4,69,66.2,69,66,69l-4.4-0.9l1.1,1.9c0.3,0.4,0.1,1-0.2,1.3l-1.8,1.4L64.6,72.7L64.6,72.7z"/>
	<path class="st1" d="M42.8,72.3c-0.2,0-0.3,0-0.5-0.1l-4.8-2.8c-0.5-0.3-0.6-0.9-0.4-1.4c0.1-0.2,0.2-0.3,0.4-0.4l24.8-14.3
		c0.3-0.2,0.7-0.2,1,0l4.8,2.8c0.5,0.3,0.6,0.9,0.4,1.4c-0.1,0.2-0.2,0.3-0.4,0.4L43.3,72.2C43.1,72.3,42.9,72.3,42.8,72.3z
		 M40,68.6l2.8,1.6L65.6,57l-2.8-1.6L40,68.6z"/>
	<path class="st2" d="M126,90.1l-1-0.1c-0.7-1.1-1.6-2-2.8-2.6l-18.5-10.7l-19.1,11l-5.7-0.3v4.8l18.5,10.7c8,4.6,25.5,0.4,25.5,0.4
		s3-4.2,3-8.4l0,0L126,90.1L126,90.1z"/>
	<path class="st3" d="M103.7,73.1L78.9,87.4l18.5,10.7c8,4.6,25.5,0.4,25.5,0.4s7.2-10.2-0.8-14.7L103.7,73.1z"/>
	<path class="st4" d="M108.4,101.2c-4.2,0-8.5-0.6-11.5-2.3L78.4,88.2c-0.5-0.3-0.6-0.9-0.4-1.4c0.1-0.2,0.2-0.3,0.4-0.4l24.8-14.3
		c0.3-0.2,0.7-0.2,1,0l18.5,10.7c2.1,1.1,3.5,3,4,5.3c1.1,5.1-2.8,10.7-3,10.9c-0.1,0.2-0.3,0.3-0.6,0.4
		C118.4,100.6,113.4,101.2,108.4,101.2z M80.9,87.4l17,9.8c6.9,4,21.9,1,24.4,0.4c0.7-1.2,3.2-5.4,2.4-9c-0.4-1.7-1.5-3.2-3.1-4
		l-18-10.4L80.9,87.4z"/>
	<path class="st2" d="M83.7,90.2l24.8-14.3l-4.8-2.8L78.9,87.4L83.7,90.2z"/>
	<path class="st1" d="M83.7,91.2c-0.2,0-0.3,0-0.5-0.1l-4.8-2.8c-0.5-0.3-0.6-0.9-0.4-1.4c0.1-0.2,0.2-0.3,0.4-0.4l24.8-14.3
		c0.3-0.2,0.7-0.2,1,0L109,75c0.5,0.3,0.6,0.9,0.4,1.4c-0.1,0.2-0.2,0.3-0.4,0.4L84.2,91C84.1,91.1,83.9,91.2,83.7,91.2z M80.9,87.4
		l2.8,1.6l22.8-13.2l-2.8-1.6L80.9,87.4z"/>
	<path class="st1" d="M108.4,101.2c-4.2,0-8.5-0.6-11.5-2.3L78.4,88.2c-0.5-0.3-0.6-0.9-0.4-1.4c0.1-0.2,0.2-0.3,0.4-0.4l24.8-14.3
		c0.3-0.2,0.7-0.2,1,0l18.5,10.7c2.1,1.1,3.5,3,4,5.3c1.1,5.1-2.8,10.7-3,10.9c-0.1,0.2-0.3,0.3-0.6,0.4
		C118.4,100.6,113.4,101.2,108.4,101.2z M80.9,87.4l17,9.8c6.9,4,21.9,1,24.4,0.4c0.7-1.2,3.2-5.4,2.4-9c-0.4-1.7-1.5-3.2-3.1-4
		l-18-10.4L80.9,87.4z"/>
	<polygon class="st2" points="111.7,92 109.6,95.8 105.6,92.5 98.6,92.6 102.8,89.4 100.5,85.5 107.1,86.8 112.7,84.4 112.6,88.5 
		118.3,90.8 	"/>
	<path class="st1" d="M109.6,96.8c-0.2,0-0.5-0.1-0.6-0.2l-3.7-3.1h-6.6l0,0c-0.6,0-1-0.4-1-1c0-0.3,0.1-0.6,0.4-0.8l3.5-2.7l-1.8-3
		c-0.3-0.5-0.1-1.1,0.4-1.4c0.2-0.1,0.5-0.2,0.7-0.1l6.3,1.2l5.3-2.3c0.5-0.2,1.1,0,1.3,0.5c0.1,0.1,0.1,0.3,0.1,0.4l-0.1,3.3l5,2.1
		c0.5,0.2,0.8,0.8,0.5,1.3c-0.1,0.3-0.4,0.5-0.7,0.6l-6.2,1.1l-1.8,3.4c-0.1,0.3-0.4,0.4-0.7,0.5C109.7,96.8,109.7,96.8,109.6,96.8z
		 M105.6,91.5c0.2,0,0.5,0.1,0.6,0.2l3.1,2.5l1.5-2.8c0.1-0.3,0.4-0.5,0.7-0.5l3.3-0.6l-2.5-1c-0.4-0.2-0.6-0.5-0.6-0.9l0.1-2.5
		l-4.2,1.8c-0.2,0.1-0.4,0.1-0.6,0.1l-4.4-0.9l1.1,1.9c0.3,0.4,0.1,1-0.2,1.3l-1.8,1.4H105.6L105.6,91.5z"/>
	<path class="st5" d="M108.4,106.1c-4.2,0-8.5-0.6-11.5-2.3L78.4,93.1c-0.3-0.2-0.5-0.5-0.5-0.9v-4.8c0-0.4,0.2-0.7,0.5-0.9
		l24.8-14.3c0.3-0.2,0.7-0.2,1,0l18.5,10.7c1.9,1,3.3,2.8,3.9,4.8c0.2,0.7,0.3,1.5,0.3,2.2V90v4.8v0.1c0,4.5-3,8.7-3.2,8.9
		c-0.1,0.2-0.3,0.3-0.6,0.4C118.4,105.4,113.4,106,108.4,106.1z M79.9,91.6L98,102c6.9,4,21.9,1,24.4,0.4c0.6-1,2.6-4.3,2.6-7.6
		v-0.1v-4.6V90c0-0.6-0.1-1.2-0.2-1.8c-0.5-1.6-1.6-2.9-3-3.6l-18-10.4L79.9,88V91.6z"/>
	<path class="st2" d="M90,110.8l-1-0.1c-0.7-1.1-1.6-2-2.8-2.6L67.8,97.5l-19.1,11l-5.7-0.3v4.8l18.5,10.7c8,4.6,25.5,0.4,25.5,0.4
		s3-4.2,3-8.4l0,0V110.8z"/>
	<path class="st3" d="M67.8,93.8L43,108.1l18.5,10.7c8,4.6,25.5,0.4,25.5,0.4s7.2-10.2-0.8-14.7L67.8,93.8z"/>
	<path class="st4" d="M72.5,122c-4.2,0-8.5-0.6-11.5-2.3L42.5,109c-0.5-0.3-0.6-0.9-0.4-1.4c0.1-0.2,0.2-0.3,0.4-0.4L67.3,93
		c0.3-0.2,0.7-0.2,1,0l18.5,10.7c2.1,1.1,3.5,3,4,5.3c1.1,5.1-2.8,10.7-3,10.9c-0.1,0.2-0.3,0.3-0.6,0.4
		C82.4,121.3,77.5,121.9,72.5,122z M45,108.1l17,9.8c6.9,4,21.9,1,24.4,0.4c0.7-1.2,3.2-5.4,2.4-9c-0.4-1.7-1.5-3.2-3.1-4L67.8,95
		L45,108.1z"/>
	<path class="st2" d="M47.8,110.9l24.8-14.3l-4.8-2.8L43,108.1L47.8,110.9z"/>
	<path class="st1" d="M47.8,111.9c-0.2,0-0.3,0-0.5-0.1l-4.8-2.8c-0.5-0.3-0.6-0.9-0.4-1.4c0.1-0.2,0.2-0.3,0.4-0.4L67.3,93
		c0.3-0.2,0.7-0.2,1,0l4.8,2.8c0.5,0.3,0.6,0.9,0.4,1.4c-0.1,0.2-0.2,0.3-0.4,0.4l-24.8,14.3C48.1,111.9,48,111.9,47.8,111.9z
		 M45,108.1l2.8,1.6l22.8-13.2L67.8,95L45,108.1z"/>
	<path class="st1" d="M72.5,122c-4.2,0-8.5-0.6-11.5-2.3L42.5,109c-0.5-0.3-0.6-0.9-0.4-1.4c0.1-0.2,0.2-0.3,0.4-0.4L67.3,93
		c0.3-0.2,0.7-0.2,1,0l18.5,10.7c2.1,1.1,3.5,3,4,5.3c1.1,5.1-2.8,10.7-3,10.9c-0.1,0.2-0.3,0.3-0.6,0.4
		C82.4,121.3,77.5,121.9,72.5,122z M45,108.1l17,9.8c6.9,4,21.9,1,24.4,0.4c0.7-1.2,3.2-5.4,2.4-9c-0.4-1.7-1.5-3.2-3.1-4L67.8,95
		L45,108.1z"/>
	<polygon class="st2" points="75.7,112.7 73.6,116.6 69.6,113.3 62.7,113.3 66.8,110.1 64.6,106.3 71.2,107.6 76.8,105.2 
		76.7,109.2 82.4,111.5 	"/>
	<path class="st1" d="M73.6,117.6c-0.2,0-0.5-0.1-0.6-0.2l-3.7-3.1h-6.6l0,0c-0.6,0-1-0.4-1-1c0-0.3,0.1-0.6,0.4-0.8l3.5-2.7l-1.8-3
		c-0.3-0.5-0.1-1.1,0.4-1.4c0.2-0.1,0.5-0.2,0.7-0.1l6.3,1.2l5.3-2.3c0.5-0.2,1.1,0,1.3,0.5c0.1,0.1,0.1,0.3,0.1,0.4l-0.1,3.3l5,2.1
		c0.5,0.2,0.8,0.8,0.6,1.3c-0.1,0.3-0.4,0.5-0.8,0.6l-6.2,1.1l-1.8,3.4C74.4,117.4,74,117.6,73.6,117.6L73.6,117.6z M69.6,112.3
		c0.2,0,0.5,0.1,0.6,0.2l3.1,2.5l1.5-2.8c0.1-0.3,0.4-0.5,0.7-0.5l3.3-0.6l-2.5-1c-0.4-0.2-0.6-0.5-0.6-0.9l0.1-2.5l-4.2,1.8
		c-0.2,0.1-0.4,0.1-0.6,0.1l-4.4-0.9l1.1,1.9c0.3,0.4,0.1,1-0.2,1.3l-1.8,1.4H69.6L69.6,112.3z"/>
	<path class="st5" d="M72.5,126.8c-4.2,0-8.5-0.6-11.5-2.3l-18.5-10.7c-0.3-0.2-0.5-0.5-0.5-0.9v-4.8c0-0.4,0.2-0.7,0.5-0.9L67.3,93
		c0.3-0.2,0.7-0.2,1,0l18.5,10.7c1.9,1,3.3,2.8,3.9,4.8c0.2,0.7,0.3,1.5,0.3,2.2v0.1v4.8v0.1c0,4.5-3,8.7-3.2,8.9
		c-0.1,0.2-0.3,0.3-0.6,0.4C82.4,126.2,77.5,126.8,72.5,126.8z M44,112.4l18,10.4c6.9,4,21.9,1,24.4,0.4c0.6-1,2.6-4.3,2.6-7.6v-0.1
		v-4.6v-0.1c0-0.6-0.1-1.2-0.2-1.8c-0.5-1.6-1.6-2.9-3-3.6L67.8,95L44,108.7V112.4z"/>
	<path class="st2" d="M49.1,87.2l-1-0.1c-0.7-1.1-1.6-2-2.8-2.6L26.8,73.8l-19.1,11L2,84.5v4.8L20.5,100c8,4.6,25.5,0.4,25.5,0.4
		s3-4.2,3-8.4l0,0L49.1,87.2L49.1,87.2z"/>
	<path class="st3" d="M26.8,70.2L2,84.5l18.5,10.7c8,4.6,25.5,0.4,25.5,0.4s7.2-10.2-0.8-14.7L26.8,70.2z"/>
	<path class="st4" d="M31.5,98.3c-4.2,0-8.5-0.6-11.5-2.3L1.5,85.3C1,85.1,0.9,84.5,1.1,84c0.1-0.2,0.2-0.3,0.4-0.4l24.8-14.3
		c0.3-0.2,0.7-0.2,1,0L45.8,80c2.1,1.1,3.5,3,4,5.3c1.1,5.1-2.8,10.7-3,10.9c-0.1,0.2-0.3,0.3-0.6,0.4
		C41.4,97.7,36.5,98.3,31.5,98.3z M4,84.5l17,9.8c6.9,4,21.9,1,24.4,0.4c0.7-1.2,3.2-5.4,2.4-9c-0.4-1.7-1.5-3.2-3.1-4l-18-10.4
		L4,84.5z"/>
	<path class="st2" d="M6.8,87.3L31.6,73l-4.8-2.8L2,84.5L6.8,87.3z"/>
	<path class="st1" d="M6.8,88.3c-0.2,0-0.3,0-0.5-0.1l-4.8-2.8C1,85.1,0.9,84.5,1.1,84c0.1-0.2,0.2-0.3,0.4-0.4l24.8-14.3
		c0.3-0.2,0.7-0.2,1,0l4.8,2.8c0.5,0.3,0.6,0.9,0.4,1.4c-0.1,0.2-0.2,0.3-0.4,0.4L7.3,88.1C7.2,88.2,7,88.3,6.8,88.3z M4,84.5
		l2.8,1.6l22.8-13.2l-2.8-1.6L4,84.5z"/>
	<path class="st1" d="M31.5,98.3c-4.2,0-8.5-0.6-11.5-2.3L1.5,85.3C1,85.1,0.9,84.5,1.1,84c0.1-0.2,0.2-0.3,0.4-0.4l24.8-14.3
		c0.3-0.2,0.7-0.2,1,0L45.8,80c2.1,1.1,3.5,3,4,5.3c1.1,5.1-2.8,10.7-3,10.9c-0.1,0.2-0.3,0.3-0.6,0.4
		C41.4,97.7,36.5,98.3,31.5,98.3z M4,84.5l17,9.8c6.9,4,21.9,1,24.4,0.4c0.7-1.2,3.2-5.4,2.4-9c-0.4-1.7-1.5-3.2-3.1-4l-18-10.4
		L4,84.5z"/>
	<polygon class="st2" points="34.7,89.1 32.7,92.9 28.6,89.6 21.7,89.7 25.8,86.5 23.6,82.6 30.2,83.9 35.8,81.5 35.7,85.6 
		41.4,87.9 	"/>
	<path class="st1" d="M32.7,93.9c-0.2,0-0.5-0.1-0.6-0.2l-3.7-3.1h-6.6l0,0c-0.6,0-1-0.4-1-1c0-0.3,0.1-0.6,0.4-0.8l3.5-2.7l-1.8-3
		c-0.3-0.5-0.1-1.1,0.4-1.4c0.2-0.1,0.5-0.2,0.7-0.1l6.3,1.2l5.3-2.3c0.5-0.2,1.1,0,1.3,0.5c0.1,0.1,0.1,0.3,0.1,0.4l-0.1,3.3l5,2.1
		c0.5,0.2,0.8,0.8,0.5,1.3c-0.1,0.3-0.4,0.5-0.7,0.6L35.4,90l-1.8,3.4c-0.1,0.3-0.4,0.4-0.7,0.5C32.8,93.9,32.7,93.9,32.7,93.9z
		 M28.6,88.6c0.2,0,0.5,0.1,0.6,0.2l3.1,2.5l1.5-2.8c0.1-0.3,0.4-0.5,0.7-0.5l3.3-0.6l-2.5-1c-0.4-0.2-0.6-0.5-0.6-0.9l0.1-2.5
		l-4.1,1.8c-0.2,0.1-0.4,0.1-0.6,0.1L25.7,84l1.1,1.9c0.3,0.4,0.1,1-0.2,1.3l-1.8,1.4H28.6L28.6,88.6z"/>
	<path class="st5" d="M31.5,103.2c-4.2,0-8.5-0.6-11.5-2.3L1.5,90.2C1.2,90,1,89.7,1,89.3v-4.8c0-0.4,0.2-0.7,0.5-0.9l24.8-14.3
		c0.3-0.2,0.7-0.2,1,0L45.8,80c1.9,1,3.3,2.8,3.9,4.8c0.2,0.7,0.3,1.5,0.3,2.2v0.1V92v0.1c0,4.5-3,8.7-3.2,8.9
		c-0.1,0.2-0.3,0.3-0.6,0.4C41.4,102.5,36.5,103.1,31.5,103.2z M3,88.7l18,10.4c6.9,4,21.9,1,24.4,0.4c0.6-1,2.6-4.3,2.6-7.6v-0.1
		v-4.6v-0.1c0-0.6-0.1-1.2-0.2-1.8c-0.5-1.6-1.5-2.9-3-3.6l-18-10.4L3,85.1V88.7z"/>
	<path class="st6" d="M85,19.2l-1-0.1c-0.7-1.1-1.6-2-2.8-2.6L62.8,5.8l-19.1,11L38,16.5v4.8L56.5,32c8,4.6,25.5,0.4,25.5,0.4
		s3-4.2,3-8.4l0,0V19.2z"/>
	<path class="st3" d="M62.8,2.2L38,16.5l18.5,10.7c8,4.6,25.5,0.4,25.5,0.4s7.2-10.2-0.8-14.7L62.8,2.2z"/>
	<path class="st4" d="M67.5,30.3c-4.2,0-8.5-0.6-11.5-2.3L37.5,17.3c-0.5-0.3-0.6-0.9-0.4-1.4c0.1-0.2,0.2-0.3,0.4-0.4L62.3,1.3
		c0.3-0.2,0.7-0.2,1,0L81.8,12c2.1,1.1,3.5,3,4,5.3c1.1,5.1-2.8,10.7-3,10.9c-0.1,0.2-0.3,0.3-0.6,0.4
		C77.4,29.7,72.4,30.3,67.5,30.3z M40,16.5l17,9.8c6.9,4,21.9,1,24.4,0.4c0.7-1.2,3.2-5.4,2.4-9c-0.4-1.7-1.5-3.2-3.1-4l-18-10.4
		L40,16.5z"/>
	<path class="st4" d="M67.5,30.3c-4.2,0-8.5-0.6-11.5-2.3L37.5,17.3c-0.5-0.3-0.6-0.9-0.4-1.4c0.1-0.2,0.2-0.3,0.4-0.4L62.3,1.3
		c0.3-0.2,0.7-0.2,1,0L81.8,12c2.1,1.1,3.5,3,4,5.3c1.1,5.1-2.8,10.7-3,10.9c-0.1,0.2-0.3,0.3-0.6,0.4
		C77.4,29.7,72.4,30.3,67.5,30.3z M40,16.5l17,9.8c6.9,4,21.9,1,24.4,0.4c0.7-1.2,3.2-5.4,2.4-9c-0.4-1.7-1.5-3.2-3.1-4l-18-10.4
		L40,16.5z"/>
	<path class="st3" d="M42.8,19.3L67.6,4.9l-4.8-2.8L38,16.5L42.8,19.3z"/>
	<polygon class="st3" points="70.7,21.1 68.6,24.9 64.6,21.6 57.6,21.7 61.8,18.4 59.6,14.6 66.2,15.9 71.7,13.5 71.7,17.5 
		77.3,19.9 	"/>
	<path class="st4" d="M68.6,25.9c-0.2,0-0.5-0.1-0.6-0.2l-3.7-3.1h-6.6l0,0c-0.6,0-1-0.4-1-1c0-0.3,0.1-0.6,0.4-0.8l3.5-2.7l-1.8-3
		c-0.2-0.3-0.2-0.8,0-1.1s0.6-0.5,1-0.4l6.3,1.2l5.3-2.3c0.5-0.2,1.1,0,1.3,0.5c0.1,0.1,0.1,0.3,0.1,0.4l-0.1,3.3l5,2.1
		c0.5,0.2,0.8,0.8,0.6,1.3c-0.1,0.3-0.4,0.5-0.8,0.6L71.3,22l-1.8,3.4C69.3,25.7,69,25.9,68.6,25.9L68.6,25.9z M64.6,20.6
		c0.2,0,0.5,0.1,0.6,0.2l3.1,2.5l1.5-2.8c0.1-0.3,0.4-0.5,0.7-0.5l3.3-0.6l-2.5-1c-0.4-0.2-0.6-0.5-0.6-0.9l0.1-2.5l-4.1,1.8
		c-0.2,0.1-0.4,0.1-0.6,0.1L61.6,16l1.1,1.9c0.3,0.4,0.1,1-0.2,1.3l-1.8,1.4L64.6,20.6L64.6,20.6z"/>
	<path class="st4" d="M42.8,20.3c-0.2,0-0.3,0-0.5-0.1l-4.8-2.8c-0.5-0.3-0.6-0.9-0.4-1.4c0.1-0.2,0.2-0.3,0.4-0.4L62.3,1.3
		c0.3-0.2,0.7-0.2,1,0l4.8,2.8c0.5,0.3,0.6,0.9,0.4,1.4c-0.1,0.2-0.2,0.3-0.4,0.4L43.3,20.1C43.1,20.2,42.9,20.3,42.8,20.3z
		 M40,16.5l2.8,1.6L65.6,4.9l-2.8-1.6L40,16.5z"/>
	<path class="st0" d="M67.5,35.2c-4.2,0-8.5-0.6-11.5-2.3L37.5,22.2C37.2,22,37,21.7,37,21.3v-4.8c0-0.4,0.2-0.7,0.5-0.9L62.3,1.3
		c0.3-0.2,0.7-0.2,1,0L81.8,12c1.9,1,3.3,2.8,3.9,4.8c0.2,0.7,0.3,1.5,0.3,2.2v0.1V24v0.1c0,4.5-3,8.7-3.2,8.9
		c-0.1,0.2-0.3,0.3-0.6,0.4C77.4,34.5,72.4,35.1,67.5,35.2z M39,20.7l18,10.4c6.9,4,21.9,1,24.4,0.4c0.6-1,2.6-4.3,2.6-7.6v-0.1
		v-4.6v-0.1c0-0.6-0.1-1.2-0.2-1.8c-0.5-1.6-1.5-2.9-3-3.6l-18-10.4L39,17.1V20.7z"/>
	<rect x="1" y="1" class="st7" width="126" height="126"/>
	<rect class="st7" width="128" height="128"/>
</g>
</svg>
