<?xml version="1.0" encoding="utf-8"?>
<!-- Generator: Adobe Illustrator 24.1.0, SVG Export Plug-In . SVG Version: 6.00 Build 0)  -->
<svg version="1.1" id="Layer_1" xmlns="http://www.w3.org/2000/svg" xmlns:xlink="http://www.w3.org/1999/xlink" x="0px" y="0px"
	 viewBox="0 0 128 128" style="enable-background:new 0 0 128 128;" xml:space="preserve">
<style type="text/css">
	.st0{fill:#C4D7D3;}
	.st1{fill:#27ae60;}
	.st2{fill:#FFFFFF;}
	.st3{fill:#185849;}
	.st4{fill:#E9EBDF;}
	.st5{fill:#4D9987;}
	.st6{fill:#0E352C;}
	.st7{fill:none;}
</style>
<g>
	<path class="st0" d="M43.5,28.5v-0.1c0-0.6-0.9-1.2-2-1.2h-7.3c-1.1,0-2,0.5-2,1.2v0.1H13.8v20.4l0,0c0,0.2,0.1,0.4,0.3,0.6
		l3.7,3.7c0.8,0.6,1.8,0.8,2.8,0.4l4.8-1.6c2.2,1.1,4.5,1.9,6.9,2.3v3.2c0,0.6,0.9,1.2,2,1.2h7.3c1.1,0,2-0.5,2-1.2v-3.2
		c2.4-0.4,4.7-1.2,6.9-2.3l4.8,1.6c0.9,0.3,2,0.2,2.8-0.4l3.7-3.7c0.2-0.1,0.3-0.4,0.3-0.6l0,0V28.5H43.5z"/>
	<path class="st1" d="M41.5,59.6h-7.3c-1.7,0-3-0.9-3-2.2V55c-2.1-0.4-4.1-1.1-5.9-2l-4.4,1.5C19.5,55,18,54.7,17,53.8l-3.7-3.7
		c-0.4-0.3-0.6-0.8-0.6-1.3V28.5c0-0.6,0.4-1,1-1h17.6c0.6-0.9,1.7-1.4,2.8-1.3h7.3c1.1-0.1,2.1,0.4,2.8,1.3h17.6c0.6,0,1,0.4,1,1
		v20.4c0,0.5-0.2,1-0.6,1.3l-3.7,3.7c-1.1,0.9-2.5,1.1-3.8,0.7L50.4,53c-1.9,0.9-3.9,1.6-5.9,2v2.4C44.5,58.7,43.2,59.6,41.5,59.6z
		 M33.1,57.3c0.3,0.2,0.7,0.3,1,0.3h7.3c0.4,0,0.7-0.1,1-0.3v-3.1c0-0.5,0.3-0.9,0.8-1c2.3-0.4,4.5-1.1,6.6-2.2
		c0.2-0.1,0.5-0.1,0.8-0.1l4.8,1.6c0.6,0.2,1.2,0.1,1.7-0.2l3.6-3.6V29.5H43.5c-0.6,0-1-0.4-1-1l0,0c-0.3-0.2-0.7-0.3-1-0.3h-7.3
		c-0.4,0-0.7,0.1-1,0.3l0,0c0,0.6-0.4,1-1,1H14.8v19.3l3.6,3.7c0.5,0.3,1.2,0.4,1.7,0.2l4.8-1.6c0.3-0.1,0.5-0.1,0.8,0.1
		c2.1,1,4.3,1.8,6.6,2.2c0.5,0.1,0.8,0.5,0.8,1V57.3z"/>
	<path class="st0" d="M50.3,52L50.3,52l4.8,1.6c0.5,0.1,1,0.2,1.4,0.1V35h-6.2V52z"/>
	<path class="st0" d="M14,49.5l3.7,3.7c0.5,0.4,1.2,0.6,1.9,0.6V28.5h-5.8v20.4l0,0C13.8,49.1,13.9,49.3,14,49.5z"/>
	<path class="st0" d="M25.2,52c2.2,1.1,4.5,1.9,6.8,2.3V33h-6.8V52z"/>
	<ellipse class="st0" cx="37.8" cy="33.4" rx="8.4" ry="4.9"/>
	<path class="st1" d="M13.8,47.8c-0.6,0-1-0.4-1-1V36.3c0-0.6,0.4-1,1-1s1,0.4,1,1v10.4C14.8,47.3,14.3,47.8,13.8,47.8z"/>
	<path class="st1" d="M25.2,53c-0.6,0-1-0.4-1-1V39.4c0-0.6,0.4-1,1-1s1,0.4,1,1V52C26.2,52.5,25.8,53,25.2,53z"/>
	<path class="st1" d="M32.1,58.4c-0.6,0-1-0.4-1-1V44.9c0-0.6,0.4-1,1-1c0.6,0,1,0.4,1,1v12.5C33.1,58,32.7,58.4,32.1,58.4z"/>
	<path class="st1" d="M43.5,58.4c-0.6,0-1-0.4-1-1V44.9c0-0.6,0.4-1,1-1s1,0.4,1,1v12.5C44.5,58,44.1,58.4,43.5,58.4z"/>
	<path class="st1" d="M50.3,53c-0.6,0-1-0.4-1-1V39.4c0-0.6,0.4-1,1-1s1,0.4,1,1V52C51.3,52.5,50.9,53,50.3,53z"/>
	<path class="st0" d="M29.4,33.4c0,2.7,3.8,4.9,8.4,4.9v-9.7C33.1,28.5,29.4,30.7,29.4,33.4z"/>
	<path class="st1" d="M37.8,39.3c-5.3,0-9.4-2.6-9.4-5.9s4.1-5.9,9.4-5.9s9.4,2.6,9.4,5.9S43.1,39.3,37.8,39.3z M37.8,29.5
		c-4,0-7.4,1.8-7.4,3.9s3.5,3.9,7.4,3.9c4.4,0,7.4-2,7.4-3.9S42.2,29.5,37.8,29.5z"/>
	<path class="st1" d="M41.5,59.6h-7.3c-1.7,0-3-0.9-3-2.2V55c-2.1-0.4-4.1-1.1-5.9-2l-4.4,1.5C19.5,55,18,54.7,17,53.8l-3.7-3.7
		c-0.4-0.3-0.6-0.8-0.6-1.3V28.5h2v20.3l3.6,3.7c0.5,0.3,1.2,0.4,1.7,0.2l4.8-1.6c0.3-0.1,0.5-0.1,0.8,0.1c2.1,1,4.3,1.8,6.6,2.2
		c0.5,0.1,0.8,0.5,0.8,1v3.1c0.3,0.2,0.7,0.3,1,0.3h7.3c0.4,0,0.7-0.1,1-0.3v-3.1c0-0.5,0.3-0.9,0.8-1c2.3-0.4,4.5-1.1,6.6-2.2
		c0.2-0.1,0.5-0.1,0.8-0.1l4.8,1.6c0.6,0.2,1.2,0.1,1.7-0.2l3.6-3.6V28.5c0-0.6,0.4-1,1-1s1,0.4,1,1v20.4c0,0.5-0.2,1-0.6,1.3
		l-3.7,3.7c-1.1,0.9-2.5,1.1-3.8,0.7L50.4,53c-1.9,0.9-3.9,1.6-5.9,2v2.4C44.5,58.7,43.2,59.6,41.5,59.6z"/>
	<path class="st2" d="M60.8,37.3L56,35.7c0.6-1.5,0.6-3.1,0-4.6l4.8-1.6c1-0.3,1.3-1,0.7-1.6l-3.7-3.7C57,23.6,56,23.4,55,23.8
		l-4.8,1.6c-2.2-1.1-4.5-1.9-6.8-2.3v-3.2c0-0.6-0.9-1.2-2-1.2h-7.3c-1.1,0-2,0.5-2,1.2v3.2c-2.4,0.4-4.7,1.2-6.9,2.3l-4.8-1.6
		c-0.9-0.3-2-0.2-2.8,0.4L14,27.9c-0.6,0.6-0.2,1.3,0.7,1.6l4.8,1.6c-0.6,1.5-0.6,3.1,0,4.6l-4.8,1.6c-1,0.3-1.3,1-0.7,1.6l3.7,3.7
		c0.8,0.6,1.8,0.8,2.8,0.4l4.8-1.6c2.2,1.1,4.5,1.9,6.8,2.3v3.2c0,0.6,0.9,1.2,2,1.2h7.3c1.1,0,2-0.5,2-1.2v-3.2
		c2.4-0.4,4.7-1.2,6.9-2.3l4.8,1.6c0.9,0.3,2,0.2,2.8-0.4l3.7-3.7C62.1,38.3,61.8,37.6,60.8,37.3z M37.8,38.3
		c-4.7,0-8.4-2.2-8.4-4.9s3.8-4.9,8.4-4.9s8.4,2.2,8.4,4.9S42.5,38.3,37.8,38.3z"/>
	<path class="st1" d="M41.5,49h-7.3c-1.7,0-3-0.9-3-2.2v-2.4c-2.1-0.4-4.1-1.1-5.9-2l-4.4,1.5c-1.3,0.5-2.7,0.2-3.8-0.7l-3.7-3.7
		c-0.5-0.4-0.7-1.1-0.5-1.7c0.2-0.8,0.9-1.4,1.6-1.6l3.9-1.3c-0.2-1.1-0.2-2.2,0-3.3l-3.9-1.3c-0.8-0.2-1.4-0.8-1.6-1.6
		c-0.1-0.6,0.1-1.3,0.5-1.7l3.7-3.7c1.1-0.9,2.5-1.1,3.8-0.7l4.4,1.5c1.9-0.9,3.9-1.6,5.9-2v-2.4c0-1.2,1.3-2.2,3-2.2h7.3
		c1.7,0,3,0.9,3,2.2v2.4c2.1,0.4,4.1,1.1,5.9,2l4.4-1.5c1.3-0.5,2.7-0.2,3.8,0.7l3.7,3.7c0.5,0.4,0.7,1.1,0.5,1.7
		c-0.2,0.8-0.9,1.4-1.7,1.6l-3.9,1.3c0.2,1.1,0.2,2.2,0,3.3l3.9,1.3c0.8,0.2,1.4,0.8,1.6,1.6c0.1,0.6-0.1,1.3-0.5,1.7l-3.7,3.7
		c-1.1,0.9-2.5,1.1-3.8,0.7l-4.4-1.5c-1.9,0.9-3.9,1.6-5.9,2v2.4C44.5,48.1,43.2,49,41.5,49z M33.1,46.7c0.3,0.2,0.7,0.3,1,0.3h7.3
		c0.4,0,0.7-0.1,1-0.3v-3.1c0-0.5,0.3-0.9,0.8-1c2.3-0.4,4.5-1.1,6.6-2.2c0.2-0.1,0.5-0.1,0.8-0.1l4.8,1.6c0.6,0.2,1.2,0.1,1.7-0.2
		l3.5-3.5c-0.1,0-0.1-0.1-0.2-0.1l0,0l-4.8-1.6c-0.5-0.2-0.8-0.7-0.6-1.3l0,0c0.5-1.2,0.5-2.6,0-3.9c-0.2-0.5,0.1-1.1,0.6-1.3l0,0
		l4.8-1.6c0.1,0,0.1-0.1,0.2-0.1l-3.5-3.5c-0.5-0.3-1.2-0.4-1.7-0.2l-4.8,1.6c-0.3,0.1-0.5,0.1-0.8-0.1c-2.1-1.1-4.3-1.8-6.6-2.2
		c-0.5-0.1-0.8-0.5-0.8-1V20c-0.3-0.2-0.7-0.3-1-0.3h-7.3c-0.4,0-0.7,0.1-1,0.3v3.1c0,0.5-0.3,0.9-0.8,1c-2.3,0.4-4.5,1.1-6.6,2.2
		c-0.2,0.1-0.5,0.1-0.8,0.1l-4.8-1.6c-0.6-0.2-1.2-0.1-1.7,0.2l-3.5,3.5c0.1,0,0.1,0.1,0.2,0.1l4.8,1.6c0.5,0.2,0.8,0.7,0.6,1.3l0,0
		c-0.5,1.2-0.5,2.6,0,3.9c0.2,0.5-0.1,1.1-0.6,1.3l0,0l-4.8,1.6c-0.1,0-0.1,0.1-0.2,0.1l3.5,3.5c0.5,0.3,1.2,0.4,1.7,0.2l4.8-1.6
		c0.3-0.1,0.5-0.1,0.8,0.1c2.1,1,4.3,1.8,6.6,2.2c0.5,0.1,0.8,0.5,0.8,1L33.1,46.7z M37.8,39.3c-5.3,0-9.4-2.6-9.4-5.9
		s4.1-5.9,9.4-5.9s9.4,2.6,9.4,5.9S43.1,39.3,37.8,39.3z M37.8,29.5c-4,0-7.4,1.8-7.4,3.9s3.5,3.9,7.4,3.9c4.4,0,7.4-2,7.4-3.9
		S42.2,29.5,37.8,29.5z"/>
	<path class="st3" d="M61.8,29.5c-0.3,0-0.5-0.1-0.7-0.3c-0.4-0.4-0.4-1,0-1.4c0.3-0.3,0.7-0.4,1.1-0.2c0.1,0.1,0.2,0.1,0.3,0.2
		l0.1,0.1c0,0.1,0.1,0.1,0.1,0.2s0.1,0.1,0.1,0.2s0,0.1,0,0.2c0,0.3-0.1,0.5-0.3,0.7c-0.1,0.1-0.2,0.2-0.3,0.2
		C62.1,29.5,62,29.5,61.8,29.5z"/>
	<path class="st3" d="M60.8,23.1c0-0.6,0.4-1,1-1l0,0c0.6,0,1,0.4,1,1l0,0c0,0.6-0.4,1-1,1l0,0C61.3,24.1,60.8,23.7,60.8,23.1z
		 M60.8,17.8c0-0.5,0.4-1,1-1l0,0l0,0c0.6,0,1,0.4,1,1l0,0c0,0.6-0.4,1-1,1l0,0C61.3,18.8,60.8,18.3,60.8,17.8z M60.8,12.4
		c0-0.6,0.4-1,1-1l0,0c0.6,0,1,0.4,1,1l0,0c0,0.6-0.4,1-1,1l0,0C61.3,13.4,60.8,12.9,60.8,12.4z"/>
	<path class="st3" d="M61.8,8c-0.1,0-0.1,0-0.2,0c-0.1,0-0.1,0-0.2-0.1c-0.1,0-0.1-0.1-0.2-0.1c-0.1,0-0.1-0.1-0.2-0.1
		c-0.1-0.1-0.2-0.2-0.2-0.3c-0.1-0.2-0.1-0.5,0-0.8c0.1-0.1,0.1-0.2,0.2-0.3c0.3-0.3,0.7-0.4,1.1-0.2c0.1,0.1,0.2,0.1,0.3,0.2
		c0.4,0.4,0.4,1,0,1.4C62.4,7.9,62.1,8,61.8,8z"/>
	<path class="st3" d="M13.8,29.5c-0.3,0-0.5-0.1-0.7-0.3c-0.4-0.4-0.4-1,0-1.4s1-0.4,1.4,0s0.4,1,0,1.4C14.3,29.4,14,29.5,13.8,29.5
		z"/>
	<path class="st3" d="M12.8,23.1c0-0.6,0.4-1,1-1l0,0c0.6,0,1,0.4,1,1l0,0c0,0.6-0.4,1-1,1l0,0C13.2,24.1,12.8,23.7,12.8,23.1z
		 M12.8,17.8c0-0.6,0.4-1,1-1l0,0l0,0c0.6,0,1,0.4,1,1l0,0l0,0c0,0.5-0.4,1-1,1l0,0l0,0C13.2,18.7,12.8,18.3,12.8,17.8L12.8,17.8z
		 M12.8,12.4c0-0.6,0.4-1,1-1l0,0c0.6,0,1,0.4,1,1l0,0c0,0.6-0.4,1-1,1l0,0C13.2,13.4,12.8,12.9,12.8,12.4z"/>
	<path class="st3" d="M13.8,8c-0.5,0-1-0.4-1-1l0,0c0-0.6,0.5-1,1-1c0.6,0,1,0.5,1,1c0,0.3-0.1,0.5-0.3,0.7C14.3,7.9,14,8,13.8,8z"
		/>
	<path class="st3" d="M41.5,59.6h-7.3c-1.7,0-3-0.9-3-2.2V55c-2.1-0.4-4.1-1.1-5.9-2l-4.4,1.5c-0.4,0.1-0.7,0.2-1.1,0.2h-0.1h-0.1
		c-0.2,0-0.3,0-0.5,0H19c-0.2,0-0.4-0.1-0.6-0.1h-0.1c-0.2-0.1-0.3-0.1-0.5-0.2c0,0-0.1,0-0.1-0.1c-0.2-0.1-0.4-0.2-0.5-0.4
		l-3.7-3.7c-0.4-0.3-0.6-0.8-0.6-1.3V28.5c0-0.1,0-0.1,0-0.2c0.1-0.4,0.2-0.8,0.5-1.1l3.7-3.7c1.1-0.9,2.5-1.1,3.8-0.7l4.4,1.5
		c1.9-0.9,3.9-1.6,5.9-2v-2.4c0-1.2,1.3-2.2,3-2.2h7.3c1.7,0,3,0.9,3,2.2v2.4c2.1,0.4,4.1,1.1,5.9,2l4.4-1.5
		c1.3-0.5,2.7-0.2,3.8,0.7l3.7,3.7c0.3,0.3,0.5,0.7,0.5,1.1c0,0.1,0,0.1,0,0.2v20.4c0,0.5-0.2,1-0.6,1.3l-3.7,3.7
		c-0.5,0.5-1.1,0.8-1.8,0.8h-0.1h-0.1c-0.3,0-0.5,0-0.8,0s-0.6-0.1-1-0.2L50.4,53c-1.9,0.9-3.9,1.6-5.9,2v2.4
		C44.5,58.7,43.2,59.6,41.5,59.6z M33.1,57.3c0.3,0.2,0.7,0.3,1,0.3h7.3c0.4,0,0.7-0.1,1-0.3v-3.1c0-0.5,0.3-0.9,0.8-1
		c2.3-0.4,4.5-1.1,6.6-2.2c0.2-0.1,0.5-0.1,0.8-0.1l4.8,1.6c0.1,0,0.3,0.1,0.5,0.1s0.3,0,0.5,0l0,0c0.3,0,0.5-0.1,0.7-0.3l3.6-3.6
		V28.6l0,0l-3.6-3.7c-0.5-0.3-1.2-0.4-1.7-0.2l-4.8,1.6c-0.3,0.1-0.5,0.1-0.8-0.1c-2.1-1.1-4.3-1.8-6.6-2.2c-0.5-0.1-0.8-0.5-0.8-1
		v-3c-0.3-0.2-0.7-0.3-1-0.3h-7.3c-0.4,0-0.7,0.1-1,0.3v3.1c0,0.5-0.3,0.9-0.8,1c-2.3,0.4-4.5,1.1-6.6,2.2c-0.2,0.1-0.5,0.1-0.8,0.1
		l-4.8-1.6c-0.6-0.2-1.2-0.1-1.7,0.2l-3.6,3.6l0,0v20.2l3.6,3.7l0.1,0.1c0.1,0,0.2,0.1,0.2,0.1c0.1,0,0.2,0.1,0.4,0.1
		c0.1,0,0.2,0,0.4,0l0,0c0.2,0,0.4,0,0.6-0.1l4.8-1.6c0.3-0.1,0.5-0.1,0.8,0.1c2.1,1,4.3,1.8,6.6,2.2c0.5,0.1,0.8,0.5,0.8,1
		L33.1,57.3z"/>
	<path class="st4" d="M104.2,55.5c-0.2-0.2-0.5-0.3-0.7-0.4l-7.2-2.4c-1.1-0.4-2.2-0.2-3.1,0.5l-1.3,1.3L78,53.3l-0.1-0.1
		c-0.9-0.7-2.1-0.9-3.1-0.5L74,53l-17.2-1.4v12l0,0v4.8c0,0.7,1,1.3,2.3,1.3h6.3c0.3,0.5,0.7,1,1,1.5V78l0,0c0,0.5,0.4,0.9,1.1,1.2
		l7.2,2.4c1.1,0.4,2.2,0.2,3.1-0.5l3.1-3.1c3,0.4,6,0.4,9,0l3.1,3.1c0.9,0.7,2.1,0.9,3.1,0.5l7.2-2.4c0.7-0.2,1.1-0.7,1.1-1.2l0,0
		v-6.8c0.4-0.5,0.7-1,1-1.5h6.3c1.3,0,2.3-0.6,2.3-1.3v-12L104.2,55.5z"/>
	<path class="st4" d="M103.5,55.1l-3.2-1.1v18.4h4.4v-1.3c0.4-0.5,0.7-1,1-1.5h6.3c1.3,0,2.3-0.6,2.3-1.3v-12l-10.1-0.8
		C104,55.4,103.7,55.2,103.5,55.1z"/>
	<path class="st5" d="M104.6,73.5h-4.4c-0.6,0-1-0.4-1-1V54.1c0-0.6,0.4-1,1-1c0.1,0,0.2,0,0.3,0.1l3.2,1.1c0.3,0.1,0.5,0.2,0.7,0.3
		l9.8,0.8c0.5,0,0.9,0.5,0.9,1v12c0,1.3-1.4,2.3-3.3,2.3h-5.7c-0.2,0.3-0.4,0.6-0.6,0.9v1C105.6,73.1,105.2,73.5,104.6,73.5z
		 M101.3,71.5h2.4v-0.3c0-0.2,0.1-0.5,0.2-0.6c0.4-0.4,0.7-0.9,0.9-1.4c0.2-0.3,0.5-0.5,0.9-0.5h6.3c0.5,0,0.9-0.1,1.3-0.4v-11
		l-9.1-0.8c-0.2,0-0.4-0.1-0.5-0.2c-0.1-0.1-0.3-0.2-0.4-0.2l0,0l-1.9-0.6L101.3,71.5z"/>
	<path class="st4" d="M65.3,54h-8.6v9.6l0,0v4.8c0,0.7,1,1.3,2.3,1.3h6.3V54z"/>
	<path class="st4" d="M95.9,62v19.6c-1,0.2-2,0-2.7-0.6L90,77.9V62H95.9z"/>
	<path class="st4" d="M95.9,81.6c0.1,0,0.3-0.1,0.4-0.1l7.2-2.4c0.7-0.2,1.1-0.7,1.1-1.2l0,0v-6.8l0,0v-5.4h-8.8L95.9,81.6z"/>
	<path class="st4" d="M75.1,62v19.6c1,0.2,2,0,2.7-0.6l3.1-3.1V62H75.1z"/>
	<path class="st4" d="M90,60.9h-9v17c3,0.4,6,0.4,9,0l0,0V60.9z"/>
	<path class="st5" d="M85.5,79.1c-1.5,0-3.1-0.1-4.6-0.3c-0.5-0.1-0.9-0.5-0.9-1v-17c0-0.6,0.4-1,1-1h9c0.6,0,1,0.4,1,1v17
		c0,0.5-0.4,0.9-0.9,1C88.6,79,87.1,79.1,85.5,79.1z M82,77c2.3,0.2,4.7,0.2,7,0V61.9h-7V77z"/>
	<polyline class="st4" points="104.6,55.1 104.6,41.9 85.6,42.5 66.4,41.9 66.4,55.1 	"/>
	<path class="st5" d="M104.6,56.1c-0.6,0-1-0.4-1-1V43l-18,0.5L67.4,43v12.1c0,0.6-0.4,1-1,1s-1-0.4-1-1V41.9c0-0.3,0.1-0.5,0.3-0.7
		c0.2-0.2,0.5-0.3,0.7-0.3l19.2,0.5l19-0.5c0.3,0,0.5,0.1,0.7,0.3s0.3,0.4,0.3,0.7v13.2C105.6,55.7,105.2,56.1,104.6,56.1
		L104.6,56.1z"/>
	<path class="st5" d="M66.4,72.2c-0.6,0-1-0.4-1-1v-5.4c0-0.6,0.4-1,1-1s1,0.4,1,1v5.4C67.4,71.7,67,72.2,66.4,72.2z"/>
	<path class="st5" d="M104.6,72.2c-0.6,0-1-0.4-1-1v-5.4c0-0.6,0.4-1,1-1s1,0.4,1,1v5.4C105.6,71.7,105.2,72.2,104.6,72.2z"/>
	<path class="st2" d="M112,50.2h-6.3c-0.5-0.9-1.1-1.7-1.8-2.4c-0.8-0.8-1.7-1.5-2.7-2.1l3.1-3.1c0.6-0.6,0.3-1.4-0.8-1.8l-7.2-2.4
		c-1.1-0.4-2.2-0.2-3.1,0.5L90,42c-3-0.4-6-0.4-9,0l-3.1-3.1c-0.9-0.7-2.1-0.9-3.1-0.5l-7.2,2.4c-1.1,0.4-1.5,1.2-0.8,1.8l3.1,3.1
		c-1.8,1.1-3.4,2.6-4.5,4.5h-6.3c-1.3,0-2.3,0.6-2.3,1.3v4.8c0,0.7,1,1.3,2.3,1.3h6.3c0.5,0.9,1.1,1.7,1.8,2.4
		c0.8,0.8,1.7,1.5,2.7,2.1l-3.1,3.1c-0.6,0.6-0.3,1.4,0.8,1.8l7.2,2.4c1.1,0.4,2.2,0.2,3.1-0.5l3.1-3.1c3,0.4,6,0.4,9,0l3.1,3.1
		c0.9,0.7,2.1,0.9,3.1,0.5l7.2-2.4c1.1-0.4,1.5-1.2,0.8-1.8l-3.1-3.1c1.8-1.1,3.4-2.6,4.5-4.5h6.3c1.3,0,2.3-0.6,2.3-1.3v-4.8
		C114.2,50.8,113.2,50.2,112,50.2z M90.3,58.7c-4.6,1.5-10.4,0.6-13.1-2s-1.1-6,3.5-7.5s10.4-0.6,13.1,2S94.9,57.2,90.3,58.7z"/>
	<path class="st5" d="M95.1,70.7c-1,0-2-0.3-2.7-1L89.6,67c-2.7,0.3-5.5,0.3-8.2,0l-2.8,2.8c-1.2,1-2.7,1.2-4.2,0.7l-7.2-2.4
		c-0.8-0.2-1.5-0.9-1.8-1.7c-0.1-0.7,0.1-1.3,0.6-1.8l2.3-2.3c-0.6-0.5-1.2-1-1.8-1.5c-0.6-0.6-1.2-1.3-1.7-2.1h-5.7
		c-1.9,0-3.3-1-3.3-2.3v-4.8c0-1.3,1.4-2.3,3.3-2.3h5.7c0.9-1.4,2.1-2.7,3.5-3.6L66,43.3c-0.5-0.5-0.7-1.1-0.6-1.8
		c0.3-0.8,0.9-1.5,1.8-1.7l7.2-2.4c1.4-0.5,3-0.2,4.2,0.7l2.8,2.8c2.7-0.3,5.5-0.3,8.2,0l2.8-2.8c1.2-1,2.7-1.2,4.2-0.7l7.2,2.4
		c0.8,0.2,1.5,0.9,1.8,1.7c0.1,0.6-0.1,1.3-0.6,1.8l-2.3,2.3c0.6,0.5,1.2,1,1.8,1.5c0.6,0.6,1.2,1.3,1.7,2.1h5.7
		c0.7,0,1.5,0.2,2.1,0.5c0.7,0.3,1.1,1,1.2,1.8v4.8c0,1.3-1.4,2.3-3.3,2.3h-5.7c-0.9,1.4-2.1,2.7-3.5,3.6l2.3,2.3
		c0.5,0.5,0.7,1.1,0.6,1.8c-0.3,0.8-0.9,1.5-1.8,1.7l-7.2,2.4C96.1,70.6,95.6,70.7,95.1,70.7z M90,64.9c0.3,0,0.5,0.1,0.7,0.3
		l3.1,3.1c0.6,0.4,1.4,0.5,2.1,0.2l7.2-2.4c0.1,0,0.3-0.1,0.4-0.2l-3.1-3.1c-0.4-0.4-0.4-1,0-1.4c0.1-0.1,0.1-0.1,0.2-0.1
		c1.7-1,3.1-2.4,4.1-4.1c0.2-0.3,0.5-0.5,0.9-0.5h6.3c0.5,0,0.9-0.1,1.3-0.4v-4.7c-0.4-0.2-0.8-0.3-1.3-0.3h-6.3
		c-0.4,0-0.7-0.2-0.9-0.5c-0.5-0.8-1-1.5-1.7-2.2c-0.8-0.7-1.6-1.4-2.5-2c-0.5-0.3-0.6-0.9-0.3-1.4c0-0.1,0.1-0.1,0.1-0.2l3.1-3.1
		c-0.1-0.1-0.3-0.2-0.4-0.2l-7-2.4c-0.7-0.2-1.5-0.2-2.1,0.2l-3.1,3.1c-0.2,0.2-0.5,0.3-0.8,0.3c-2.9-0.4-5.8-0.4-8.7,0
		c-0.3,0-0.6-0.1-0.8-0.3l-3.1-3.1c-0.6-0.4-1.4-0.5-2.1-0.2l-7.2,2.4c-0.1,0-0.3,0.1-0.4,0.2l3.1,3.1c0.4,0.4,0.4,1,0,1.4
		c-0.1,0.1-0.1,0.1-0.2,0.1c-1.7,1-3.1,2.4-4.1,4.1c-0.2,0.3-0.5,0.5-0.9,0.5h-6.3c-0.5,0-0.9,0.1-1.3,0.4v4.7
		c0.4,0.2,0.8,0.3,1.3,0.3h6.3c0.4,0,0.7,0.2,0.9,0.5c0.5,0.8,1,1.5,1.7,2.2c0.8,0.7,1.6,1.4,2.5,2c0.5,0.3,0.6,0.9,0.3,1.4
		c0,0.1-0.1,0.1-0.1,0.2L67.5,66c0.1,0.1,0.3,0.2,0.4,0.2l7.2,2.4c0.7,0.2,1.5,0.2,2.1-0.2l3.1-3.1c0.2-0.2,0.5-0.3,0.8-0.3
		c2.9,0.4,5.8,0.4,8.7,0C89.9,64.9,90,64.9,90,64.9L90,64.9z M85.5,60.5c-3.6,0-7-1.1-9-3.1c-1.2-1.1-1.8-2.8-1.5-4.4
		c0.5-2.1,2.4-3.8,5.4-4.8c5-1.7,11.2-0.7,14.1,2.3c1.2,1.1,1.8,2.8,1.5,4.4c-0.5,2.1-2.4,3.8-5.4,4.8C89,60.2,87.2,60.5,85.5,60.5
		L85.5,60.5z M85.5,49.4c-1.5,0-3,0.2-4.4,0.7c-2.2,0.7-3.7,2-4,3.3c-0.2,1,0.2,1.9,0.9,2.6c2.4,2.4,7.9,3.2,12,1.8l0,0
		c2.2-0.7,3.7-2,4-3.3c0.2-1-0.2-1.9-0.9-2.6C91.5,50.3,88.5,49.4,85.5,49.4L85.5,49.4z"/>
	<path class="st5" d="M81,78.9c-0.6,0-1-0.4-1-1v-12c0-0.6,0.4-1,1-1s1,0.4,1,1v12C82,78.4,81.6,78.9,81,78.9z"/>
	<path class="st5" d="M90,78.9c-0.6,0-1-0.4-1-1v-12c0-0.6,0.4-1,1-1s1,0.4,1,1v12C91,78.4,90.6,78.9,90,78.9z"/>
	<path class="st5" d="M104.6,78.9c-0.6,0-1-0.4-1-1V65.8c0-0.6,0.4-1,1-1s1,0.4,1,1v12.1C105.6,78.5,105.2,78.9,104.6,78.9z"/>
	<path class="st5" d="M95.1,82.7c-1,0-2-0.3-2.7-1l-2.8-2.8c-2.7,0.3-5.5,0.3-8.2,0l-2.8,2.8c-1.2,1-2.7,1.2-4.2,0.7L67.2,80
		c-1-0.2-1.7-1.1-1.8-2.1v-6.4c-0.2-0.3-0.4-0.6-0.6-0.9h-5.7c-1.9,0-3.3-1-3.3-2.3V51.6c0-0.6,0.4-1,1-1s1,0.4,1,1v16.8
		c0.4,0.2,0.8,0.3,1.3,0.3h6.3c0.4,0,0.7,0.2,0.9,0.5c0.3,0.5,0.6,0.9,0.9,1.4c0.1,0.2,0.2,0.4,0.2,0.6V78c0,0,0.1,0.1,0.5,0.2
		l7.2,2.4c0.7,0.2,1.5,0.2,2.1-0.2l3.1-3.1c0.2-0.2,0.5-0.3,0.8-0.3c2.9,0.4,5.8,0.4,8.7,0c0.3,0,0.6,0.1,0.8,0.3l3.1,3.1
		c0.6,0.4,1.4,0.5,2.1,0.2l7.2-2.4c0.2,0,0.3-0.1,0.5-0.3v-6.7c0-0.2,0.1-0.5,0.2-0.6c0.4-0.4,0.7-0.9,0.9-1.4
		c0.2-0.3,0.5-0.5,0.9-0.5h6.3c0.5,0,0.9-0.1,1.3-0.4V56.4c0-0.6,0.4-1,1-1s1,0.4,1,1v12c0,1.3-1.4,2.3-3.3,2.3h-5.7
		c-0.2,0.3-0.4,0.6-0.6,0.9V78c-0.1,1-0.8,1.9-1.8,2.1l-7.2,2.4C96.1,82.6,95.6,82.7,95.1,82.7z"/>
	<ellipse class="st4" cx="85.5" cy="54" rx="9.6" ry="5.5"/>
	<path class="st4" d="M85.5,48.4v11c1.6,0,3.2-0.2,4.8-0.7c4.6-1.5,6.1-4.9,3.5-7.5C92,49.4,88.8,48.4,85.5,48.4z"/>
	<path class="st5" d="M85.5,60.5c-3.6,0-7-1.1-9-3.1c-1.2-1.1-1.8-2.8-1.5-4.4c0.5-2.1,2.4-3.8,5.4-4.8c5-1.7,11.2-0.7,14.1,2.3
		c1.2,1.1,1.8,2.8,1.5,4.4c-0.5,2.1-2.4,3.8-5.4,4.8C89,60.2,87.2,60.5,85.5,60.5z M85.5,49.4c-1.5,0-3,0.2-4.4,0.7
		c-2.2,0.7-3.7,2-4,3.3c-0.2,1,0.2,1.9,0.9,2.6c2.4,2.4,7.9,3.2,12,1.8l0,0c2.2-0.7,3.7-2,4-3.3c0.2-1-0.2-1.9-0.9-2.6
		C91.5,50.3,88.5,49.4,85.5,49.4z"/>
	<path class="st6" d="M76,82.7L76,82.7c-0.4,0-0.7,0-1-0.1l0,0c-0.2,0-0.4-0.1-0.5-0.1L67.2,80c-1-0.2-1.7-1.1-1.8-2.1v-6.4
		c-0.2-0.3-0.4-0.6-0.6-0.9h-5.7c-1.9,0-3.3-1-3.3-2.3V51.6c0-1.3,1.4-2.3,3.3-2.3h5.7c0.2-0.3,0.4-0.6,0.6-0.8v-6.4
		c0-0.1,0-0.1,0-0.2c0.2-0.9,0.9-1.7,1.8-1.9l7.2-2.4c1.4-0.5,3-0.2,4.2,0.7l2.8,2.8c2.7-0.3,5.5-0.3,8.2,0l2.8-2.8
		c1.2-1,2.7-1.2,4.2-0.7l7.2,2.4c0.9,0.2,1.6,1,1.8,1.9c0,0.1,0,0.1,0,0.2v6.4c0.2,0.3,0.4,0.6,0.6,0.9h5.7c1.9,0,3.3,1,3.3,2.3
		v16.8c0,1.3-1.4,2.3-3.3,2.3h-5.7c-0.2,0.3-0.4,0.6-0.6,0.9v6.4c-0.1,1-0.8,1.9-1.8,2.1l-7.2,2.4c-0.2,0.1-0.3,0.1-0.5,0.1l0,0
		c-0.3,0.1-0.6,0.1-0.9,0.1h-0.1c-0.3,0-0.6,0-0.9-0.1h-0.1c-0.3-0.1-0.5-0.2-0.8-0.3c0,0-0.1,0-0.1-0.1c-0.3-0.1-0.5-0.3-0.7-0.5
		L89.7,79c-2.7,0.3-5.5,0.3-8.2,0l-2.8,2.8c-0.2,0.2-0.5,0.4-0.7,0.5c0,0-0.1,0-0.1,0.1c-0.3,0.1-0.5,0.2-0.8,0.3H77
		C76.6,82.6,76.3,82.7,76,82.7L76,82.7z M90,76.9c0.3,0,0.5,0.1,0.7,0.3l3.1,3.1c0.1,0.1,0.1,0.1,0.2,0.1c0.1,0.1,0.3,0.1,0.4,0.2
		c0.2,0,0.4,0.1,0.6,0.1s0.4,0,0.6-0.1l0,0c0.1,0,0.2,0,0.2-0.1l7.2-2.4c0.2,0,0.4-0.1,0.5-0.3v-6.7c0-0.2,0.1-0.5,0.2-0.6
		c0.4-0.4,0.7-0.9,0.9-1.4c0.2-0.3,0.5-0.5,0.9-0.5h6.3c0.5,0,0.9-0.1,1.3-0.4V51.5c-0.4-0.2-0.8-0.3-1.3-0.3h-6.3
		c-0.4,0-0.7-0.2-0.9-0.5c-0.3-0.5-0.6-0.9-0.9-1.4c-0.1-0.2-0.2-0.4-0.2-0.6v-6.6V42c0,0-0.1-0.1-0.5-0.2l-7-2.5
		c-0.7-0.2-1.5-0.2-2.1,0.2l-3.1,3.1c-0.2,0.2-0.5,0.3-0.8,0.3c-2.9-0.4-5.8-0.4-8.7,0c-0.3,0-0.6-0.1-0.8-0.3l-3.1-3.1
		c-0.6-0.4-1.4-0.5-2.1-0.2l-7.2,2.4c-0.2,0-0.3,0.1-0.5,0.3v6.7c0,0.2-0.1,0.5-0.2,0.6c-0.4,0.4-0.7,0.9-0.9,1.3
		c-0.2,0.3-0.5,0.5-0.9,0.5h-6.3c-0.5,0-0.9,0.1-1.3,0.4v16.7c0.4,0.2,0.8,0.3,1.3,0.3h6.3c0.4,0,0.7,0.2,0.9,0.5
		c0.3,0.5,0.6,0.9,0.9,1.4c0.1,0.2,0.2,0.4,0.2,0.6v6.8c0,0,0.1,0.1,0.5,0.2l7.2,2.4c0.1,0,0.2,0.1,0.3,0.1l0,0c0.2,0,0.3,0,0.5,0
		s0.4,0,0.6-0.1c0.2,0,0.3-0.1,0.5-0.1c0.1,0,0.2-0.1,0.3-0.2l3.1-3.1c0.2-0.2,0.5-0.3,0.8-0.3c2.9,0.4,5.8,0.4,8.7,0
		C89.9,76.9,90,76.9,90,76.9z"/>
	<path class="st4" d="M64,79.5v-0.2c0-1-1.3-1.7-3-1.7H50.2c-1.7,0-3,0.8-3,1.7v0.2H20.1v27.2l0,0c0,0.3,0.2,0.6,0.4,0.9l5.4,5.4
		c1.2,0.9,2.7,1.1,4.1,0.6l7.1-2.4c3.2,1.6,6.6,2.8,10.1,3.4v4.7c0,1,1.3,1.7,3,1.7H61c1.7,0,3-0.8,3-1.7v-4.7
		c3.5-0.6,6.9-1.8,10.1-3.4l7.1,2.4c1.4,0.5,2.9,0.2,4.1-0.6l5.4-5.4c0.2-0.2,0.4-0.5,0.4-0.9l0,0V79.5H64z"/>
	<path class="st5" d="M61,122H50.2c-2.3,0-4-1.2-4-2.7v-3.9c-3.2-0.6-6.3-1.7-9.2-3.1l-6.7,2.2c-1.7,0.6-3.7,0.3-5.1-0.9l-5.4-5.4
		c-0.4-0.4-0.7-0.9-0.7-1.5v-0.1V79.5c0-0.6,0.4-1,1-1h26.3c0.5-1.1,2-1.9,3.8-1.9H61c1.9,0,3.3,0.8,3.8,1.9h26.3c0.6,0,1,0.4,1,1
		v27.2v0.1c0,0.6-0.3,1.1-0.7,1.5l-5.4,5.4c-1.4,1.2-3.4,1.5-5.1,0.9l-6.7-2.2c-2.9,1.4-6,2.5-9.2,3.1v3.9C65,120.8,63.3,122,61,122
		z M37.1,110.2c0.2,0,0.3,0,0.5,0.1c3.1,1.6,6.4,2.7,9.8,3.3c0.5,0.1,0.8,0.5,0.8,1v4.7c0,0.2,0.7,0.7,2,0.7H61c1.3,0,2-0.6,2-0.7
		v-4.7c0-0.5,0.3-0.9,0.8-1c3.4-0.6,6.7-1.7,9.8-3.3c0.2-0.1,0.5-0.1,0.8-0.1l7.1,2.4c1,0.4,2.2,0.2,3.1-0.4l5.4-5.4
		c0,0,0.1-0.1,0.1-0.2v-0.1v-26H64c-0.6,0-1-0.4-1-1v-0.2c0-0.2-0.7-0.7-2-0.7H50.2c-1.3,0-2,0.6-2,0.7v0.2c0,0.6-0.4,1-1,1H21.1
		v26.1v0.1c0,0.1,0.1,0.1,0.1,0.2l5.4,5.4c0.9,0.6,2,0.8,3.1,0.4l7.1-2.4C36.8,110.2,36.9,110.2,37.1,110.2z"/>
	<path class="st4" d="M74.1,111.2L74.1,111.2l7.1,2.4c0.7,0.2,1.4,0.3,2.1,0.2V89h-9.2V111.2z"/>
	<path class="st4" d="M20.5,107.5l5.4,5.4c0.8,0.6,1.8,0.9,2.7,0.9V79.5H20v27.2l0,0C20.1,107,20.2,107.3,20.5,107.5z"/>
	<path class="st4" d="M37.1,111.2c3.2,1.6,6.6,2.8,10.1,3.4V86.1H37.1V111.2z"/>
	<path class="st5" d="M47.2,115.6c-0.1,0-0.1,0-0.2,0c-3.6-0.6-7.1-1.8-10.4-3.5c-0.3-0.2-0.5-0.5-0.5-0.9V86.1c0-0.6,0.4-1,1-1
		h10.1c0.6,0,1,0.4,1,1v28.4C48.2,115.1,47.7,115.6,47.2,115.6z M38.1,110.6c2.6,1.3,5.3,2.2,8.1,2.8V87.1h-8.1V110.6z"/>
	<ellipse class="st4" cx="55.6" cy="86.7" rx="12.5" ry="7.2"/>
	<path class="st6" d="M20.1,104.5c-0.6,0-1-0.4-1-1V91.1c0-0.6,0.4-1,1-1s1,0.4,1,1v12.5C21.1,104.1,20.6,104.5,20.1,104.5z"/>
	<path class="st5" d="M37.1,112.2c-0.6,0-1-0.4-1-1V95.6c0-0.6,0.4-1,1-1s1,0.4,1,1v15.6C38.1,111.7,37.6,112.2,37.1,112.2z"/>
	<path class="st5" d="M47.2,120.3c-0.6,0-1-0.4-1-1v-15.6c0-0.6,0.4-1,1-1s1,0.4,1,1v15.6C48.2,119.8,47.7,120.3,47.2,120.3z"/>
	<path class="st5" d="M64,120.3c-0.6,0-1-0.4-1-1v-15.6c0-0.6,0.4-1,1-1s1,0.4,1,1v15.6C65,119.8,64.6,120.3,64,120.3z"/>
	<path class="st5" d="M74.1,112.2c-0.6,0-1-0.4-1-1V95.6c0-0.6,0.4-1,1-1s1,0.4,1,1v15.6C75.1,111.7,74.7,112.2,74.1,112.2z"/>
	<path class="st4" d="M43.1,86.7c0,4,5.6,7.2,12.5,7.2V79.5C48.7,79.5,43.1,82.7,43.1,86.7z"/>
	<path class="st5" d="M55.6,94.9c-7.5,0-13.5-3.6-13.5-8.2s5.9-8.2,13.5-8.2S69,82.1,69,86.7S63.1,94.9,55.6,94.9z M55.6,80.5
		c-6.2,0-11.5,2.8-11.5,6.2s5.2,6.2,11.5,6.2S67,90.1,67,86.7S61.8,80.5,55.6,80.5L55.6,80.5z"/>
	<path class="st5" d="M61,122H50.2c-2.3,0-4-1.2-4-2.7v-3.9c-3.2-0.6-6.3-1.7-9.2-3.1l-6.7,2.2c-1.7,0.6-3.7,0.3-5.1-0.9l-5.4-5.4
		c-0.4-0.4-0.7-0.9-0.7-1.5v-0.1V79.5c0-0.6,0.4-1,1-1s1,0.4,1,1v27.1v0.1c0,0.1,0.1,0.1,0.1,0.2l5.4,5.4c0.9,0.6,2,0.8,3.1,0.4
		l7.1-2.4c0.3-0.1,0.5-0.1,0.8,0.1c3.1,1.6,6.4,2.7,9.8,3.3c0.5,0.1,0.8,0.5,0.8,1v4.7c0,0.2,0.7,0.7,2,0.7H61c1.3,0,2-0.6,2-0.7
		v-4.7c0-0.5,0.3-0.9,0.8-1c3.4-0.6,6.7-1.7,9.8-3.3c0.2-0.1,0.5-0.1,0.8-0.1l7.1,2.4c1,0.4,2.2,0.2,3.1-0.4l5.4-5.4
		c0,0,0.1-0.1,0.1-0.2v-0.1V79.5c0-0.6,0.4-1,1-1s1,0.4,1,1v27.2v0.1c0,0.6-0.3,1.1-0.7,1.5l-5.4,5.4c-1.4,1.2-3.4,1.5-5.1,0.9
		l-6.7-2.2c-2.9,1.4-6,2.5-9.2,3.1v3.9C65,120.8,63.3,122,61,122z"/>
	<path class="st2" d="M89.6,92.4L82.5,90c0.8-2.2,0.8-4.6,0-6.8l7.1-2.4c1.4-0.5,1.9-1.5,1.1-2.4L85.3,73c-1.2-0.9-2.7-1.1-4.1-0.6
		l-7.1,2.4c-3.2-1.6-6.6-2.8-10.1-3.4v-4.7c0-1-1.3-1.7-3-1.7H50.2c-1.7,0-3,0.8-3,1.7v4.7c-3.5,0.6-6.9,1.8-10.1,3.4L30,72.6
		c-1.4-0.5-2.9-0.3-4.1,0.6l-5.4,5.4c-0.8,0.8-0.3,1.9,1.1,2.4l7.1,2.4c-0.8,2.2-0.8,4.6,0,6.8l-7.1,2.4c-1.4,0.5-1.9,1.5-1.1,2.4
		l5.4,5.4c1.2,0.9,2.7,1.1,4.1,0.6l7.1-2.4c3.2,1.6,6.6,2.8,10.1,3.4v4.7c0,1,1.3,1.7,3,1.7H61c1.7,0,3-0.8,3-1.7V102
		c3.5-0.6,6.9-1.8,10.1-3.4l7.1,2.4c1.4,0.5,2.9,0.3,4.1-0.6l5.4-5.4C91.5,94,91,92.9,89.6,92.4z M55.6,93.9
		c-6.9,0-12.5-3.2-12.5-7.2s5.6-7.2,12.5-7.2S68,82.7,68,86.7S62.5,93.9,55.6,93.9z"/>
	<path class="st5" d="M61,109.3H50.2c-2.3,0-4-1.2-4-2.7v-3.9c-3.2-0.6-6.3-1.7-9.2-3.1l-6.7,2.2c-1.7,0.6-3.7,0.3-5.1-0.9l-5.4-5.4
		c-0.6-0.5-0.8-1.3-0.6-2c0.3-1,1.1-1.7,2.1-2l6.1-2c-0.5-1.8-0.5-3.7,0-5.5l-6.1-2c-1-0.2-1.8-1-2.1-2c-0.2-0.7,0.1-1.5,0.6-2
		l5.4-5.4c1.4-1.2,3.4-1.5,5.1-0.9l6.7,2.2c2.9-1.4,6-2.5,9.2-3.1v-3.9c0-1.6,1.7-2.7,4-2.7H61c2.3,0,4,1.2,4,2.7v3.9
		c3.2,0.6,6.3,1.7,9.2,3.1l6.7-2.2c1.7-0.6,3.7-0.3,5.1,0.9l5.4,5.4c0.6,0.5,0.8,1.3,0.6,2c-0.3,1-1.1,1.7-2.1,2l-6.1,2
		c0.5,1.8,0.5,3.7,0,5.5l6.1,2c1,0.2,1.8,1,2.1,2c0.2,0.7-0.1,1.5-0.6,2l-5.4,5.4c-1.4,1.2-3.4,1.5-5.1,0.9l-6.7-2.2
		c-2.9,1.4-6,2.5-9.2,3.1v3.9C65,108.1,63.3,109.3,61,109.3z M37.1,97.5c0.2,0,0.3,0,0.5,0.1c3.1,1.6,6.4,2.7,9.8,3.3
		c0.5,0.1,0.8,0.5,0.8,1v4.7c0,0.2,0.7,0.7,2,0.7H61c1.3,0,2-0.6,2-0.7v-4.7c0-0.5,0.3-0.9,0.8-1c3.4-0.6,6.7-1.7,9.8-3.3
		c0.2-0.1,0.5-0.1,0.8-0.1l7.1,2.4c1,0.4,2.2,0.2,3.1-0.4l5.4-5.4c0,0,0.1-0.1,0.1-0.2c0,0-0.2-0.3-0.8-0.5l0,0L82.2,91
		c-0.5-0.2-0.8-0.7-0.6-1.3l0,0c0.7-1.9,0.7-4.1,0-6c-0.2-0.5,0.1-1.1,0.6-1.3l0,0l7.1-2.4c0.7-0.2,0.8-0.5,0.8-0.5
		c0-0.1-0.1-0.1-0.1-0.2l-5.4-5.4c-0.9-0.6-2-0.7-3.1-0.4l-7.1,2.4c-0.3,0.1-0.5,0.1-0.8-0.1c-3.1-1.6-6.4-2.7-9.8-3.3
		c-0.5-0.1-0.8-0.5-0.8-1v-4.7c0-0.2-0.7-0.7-2-0.7H50.2c-1.3,0-2,0.6-2,0.7v4.7c0,0.5-0.3,0.9-0.8,1c-3.4,0.6-6.7,1.7-9.8,3.3
		c-0.2,0.1-0.5,0.1-0.8,0.1l-7.1-2.4c-1-0.4-2.2-0.2-3.1,0.4l-5.4,5.4c0,0-0.1,0.1-0.1,0.2c0,0,0.2,0.3,0.8,0.5l7.1,2.4
		c0.5,0.2,0.8,0.7,0.6,1.3l0,0c-0.7,1.9-0.7,4.1,0,6c0.2,0.5-0.1,1.1-0.6,1.3l0,0l-7.1,2.4c-0.6,0.2-0.8,0.5-0.8,0.5
		c0,0.1,0.1,0.1,0.1,0.2l5.4,5.4c0.9,0.6,2,0.7,3.1,0.4l7.1-2.4C36.8,97.5,36.9,97.5,37.1,97.5z M55.6,94.9
		c-7.5,0-13.5-3.6-13.5-8.2s5.9-8.2,13.5-8.2S69,82.1,69,86.7S63.1,94.9,55.6,94.9z M55.6,80.5c-6.2,0-11.5,2.8-11.5,6.2
		s5.2,6.2,11.5,6.2S67,90.1,67,86.7S61.8,80.5,55.6,80.5L55.6,80.5z"/>
	<path class="st6" d="M61,122H50.2c-2.3,0-4-1.2-4-2.7v-3.9c-3.2-0.6-6.3-1.7-9.2-3.1l-6.7,2.2c-0.5,0.2-1,0.2-1.5,0.3h-0.1
		c0,0-0.1,0-0.2,0c-0.2,0-0.5,0-0.7,0h-0.1c-0.3,0-0.6-0.1-0.8-0.2h-0.1c-0.2-0.1-0.4-0.2-0.6-0.3c-0.1,0-0.1-0.1-0.2-0.1
		c-0.2-0.1-0.5-0.3-0.7-0.5l-5.4-5.4c-0.4-0.4-0.7-0.9-0.7-1.5v-0.1V79.5c0-0.1,0-0.1,0-0.2c0.1-0.5,0.3-1,0.7-1.4l5.4-5.4
		c1.4-1.2,3.4-1.5,5.1-0.9l6.7,2.2c2.9-1.4,6-2.5,9.2-3.1v-3.9c0-1.6,1.7-2.7,4-2.7H61c2.3,0,4,1.2,4,2.7v3.9
		c3.2,0.6,6.3,1.7,9.2,3.1l6.7-2.2c1.7-0.6,3.7-0.3,5.1,0.9l5.4,5.4c0.4,0.4,0.6,0.8,0.7,1.3c0,0.1,0,0.1,0,0.2v27.2v0.1
		c0,0.6-0.3,1.1-0.7,1.5l-5.4,5.4c-0.7,0.6-1.5,1-2.5,1.1h-0.1h-0.2c-0.2,0-0.3,0-0.4,0s-0.2,0-0.2,0l-0.1-1v1c-0.1,0-0.2,0-0.3,0
		s-0.2,0-0.3,0v-1l-0.1,1c-0.1,0-0.1,0-0.2,0c-0.2,0-0.4-0.1-0.7-0.2l-6.7-2.2c-2.9,1.4-6,2.5-9.2,3.1v3.9C65,120.8,63.3,122,61,122
		z M37.1,110.2c0.2,0,0.3,0,0.5,0.1c3.1,1.6,6.4,2.7,9.8,3.3c0.5,0.1,0.8,0.5,0.8,1v4.7c0,0.2,0.7,0.7,2,0.7H61c1.3,0,2-0.6,2-0.7
		v-4.7c0-0.5,0.3-0.9,0.8-1c3.4-0.6,6.7-1.7,9.8-3.3c0.2-0.1,0.5-0.1,0.8-0.1l7.1,2.4c0.1,0,0.3,0.1,0.4,0.1h0.2c0.1,0,0.2,0,0.2,0
		s0.1,0,0.2,0h0.2h0.1c0.1,0,0.2,0,0.2,0h0.1l0,0c0.5,0,1-0.2,1.4-0.5l5.4-5.4c0,0,0.1-0.1,0.1-0.2v-0.1V79.6c0-0.1,0-0.1,0-0.2
		s-0.1-0.1-0.1-0.2l-5.4-5.4c-0.9-0.6-2-0.7-3.1-0.4l-7.1,2.4c-0.3,0.1-0.5,0.1-0.8-0.1c-3.1-1.6-6.4-2.7-9.8-3.3
		c-0.5-0.1-0.8-0.5-0.8-1v-4.7c0-0.2-0.7-0.7-2-0.7H50.2c-1.3,0-2,0.6-2,0.7v4.7c0,0.5-0.3,0.9-0.8,1c-3.4,0.6-6.7,1.7-9.8,3.3
		c-0.2,0.1-0.5,0.1-0.8,0.1l-7.1-2.4c-1-0.4-2.2-0.2-3.1,0.4l-5.4,5.4c0,0-0.1,0.1-0.1,0.2s0,0.1,0,0.2v26.9v0.1
		c0,0.1,0.1,0.1,0.1,0.2l5.4,5.4c0.1,0.1,0.2,0.1,0.3,0.2l0.1,0.1c0.1,0.1,0.2,0.1,0.3,0.1h0.1c0.2,0,0.3,0.1,0.5,0.1s0.4,0,0.6,0
		l0,0l0,0c0.4,0,0.7-0.1,1.1-0.2l7.1-2.4C36.8,110.2,36.9,110.2,37.1,110.2z"/>
	<rect x="1" y="1" class="st7" width="126" height="126"/>
	<rect class="st7" width="128" height="128"/>
</g>
</svg>
