<?xml version="1.0" encoding="utf-8"?>
<!-- Generator: Adobe Illustrator 24.1.0, SVG Export Plug-In . SVG Version: 6.00 Build 0)  -->
<svg version="1.1" id="Layer_1" xmlns="http://www.w3.org/2000/svg" xmlns:xlink="http://www.w3.org/1999/xlink" x="0px" y="0px"
	 viewBox="0 0 128 128" style="enable-background:new 0 0 128 128;" xml:space="preserve">
<style type="text/css">
	.st0{fill:none;}
	.st1{fill:#FFFFFF;}
	.st2{fill:#E9EBDF;}
	.st3{fill:#4D9987;}
	.st4{fill:#0E352C;}
	.st5{fill:#27ae60;}
	.st6{fill:#C4D7D3;}
	.st7{fill:#185849;}
</style>
<g>
	<rect x="1" y="1" class="st0" width="126" height="126"/>
	<polygon class="st1" points="64,102.4 94.4,84.8 64,67.3 	"/>
	<path class="st1" d="M64,103.4c-0.6,0-1-0.4-1-1V67.3c0-0.6,0.4-1,1-1c0.2,0,0.3,0,0.5,0.1L94.9,84c0.5,0.3,0.6,0.9,0.4,1.4
		c-0.1,0.2-0.2,0.3-0.4,0.4l-30.4,17.5C64.3,103.3,64.2,103.4,64,103.4z M65,69v31.6l27.4-15.8L65,69z"/>
	<polygon class="st2" points="64,67.3 74.6,96.2 64,102.4 	"/>
	<polygon class="st2" points="64,102.4 33.6,84.8 64,67.3 	"/>
	<path class="st3" d="M64,103.4c-0.2,0-0.3,0-0.5-0.1L33.1,85.7c-0.5-0.3-0.6-0.9-0.4-1.4c0.1-0.2,0.2-0.3,0.4-0.4l30.4-17.6
		c0.5-0.3,1.1-0.1,1.4,0.4C65,66.9,65,67,65,67.2v35.1C65,102.9,64.6,103.4,64,103.4z M35.6,84.8L63,100.6V69L35.6,84.8z"/>
	<polygon class="st2" points="45.1,94.5 52.6,97.5 40.1,104.7 39.7,94.5 	"/>
	<path class="st3" d="M40.1,105.7c-0.5,0-1-0.4-1-1l-0.3-10.2c0-0.6,0.4-1,1-1l0,0h5.4c0.1,0,0.2,0,0.4,0.1l7.5,2.9
		c0.5,0.2,0.8,0.8,0.6,1.3c-0.1,0.2-0.2,0.4-0.4,0.5l-12.6,7.3C40.4,105.7,40.2,105.7,40.1,105.7z M40.8,95.5L41,103l9.3-5.4
		L45,95.5H40.8z"/>
	<polygon class="st2" points="64,90.9 33.6,108.5 64,126 94.4,108.5 	"/>
	<path class="st3" d="M64,127c-0.2,0-0.3,0-0.5-0.1l-30.4-17.5c-0.5-0.3-0.6-0.9-0.4-1.4c0.1-0.2,0.2-0.3,0.4-0.4L63.5,90
		c0.3-0.2,0.7-0.2,1,0l30.4,17.5c0.5,0.3,0.6,0.9,0.4,1.4c-0.1,0.2-0.2,0.3-0.4,0.4l-30.4,17.5C64.3,127,64.2,127,64,127z
		 M35.6,108.5L64,124.8l28.4-16.4L64,92.1L35.6,108.5z"/>
	<polygon class="st2" points="94.4,108.5 64,126 64,102.4 94.4,84.8 	"/>
	<path class="st3" d="M64,127c-0.6,0-1-0.4-1-1v-23.6c0-0.4,0.2-0.7,0.5-0.9L93.9,84c0.5-0.3,1.1-0.1,1.4,0.4
		c0.1,0.2,0.1,0.3,0.1,0.5v23.6c0,0.4-0.2,0.7-0.5,0.9l-30.4,17.5C64.3,127,64.2,127,64,127z M65,102.9v21.3l28.4-16.4V86.6
		L65,102.9z"/>
	<path class="st1" d="M33.6,84.8v23.6L64,126v-23.6L33.6,84.8z"/>
	<path class="st1" d="M64,127c-0.2,0-0.3,0-0.5-0.1l-30.4-17.5c-0.3-0.2-0.5-0.5-0.5-0.9V84.8c0-0.6,0.4-1,1-1c0.2,0,0.3,0,0.5,0.1
		l30.4,17.5c0.3,0.2,0.5,0.5,0.5,0.9V126C65,126.6,64.6,127,64,127z M34.6,107.9L63,124.3V103L34.6,86.6V107.9z"/>
	<polygon class="st1" points="94.4,84.8 108.7,86.1 78.3,103.7 64,102.4 	"/>
	<path class="st4" d="M78.3,104.7C78.2,104.7,78.2,104.7,78.3,104.7l-14.4-1.3c-0.6,0-1-0.5-0.9-1.1c0-0.3,0.2-0.6,0.5-0.8L93.9,84
		c0.2-0.1,0.4-0.1,0.6-0.1l14.3,1.3c0.6,0,1,0.5,0.9,1.1c0,0.3-0.2,0.6-0.5,0.8l-30.4,17.5C78.6,104.6,78.5,104.7,78.3,104.7z
		 M67.2,101.7l10.8,1l27.4-15.8l-10.8-1L67.2,101.7z"/>
	<polygon class="st1" points="64,67.3 49.7,52.1 19.3,69.6 33.6,84.8 	"/>
	<path class="st3" d="M33.6,85.8c-0.3,0-0.5-0.1-0.7-0.3L18.6,70.3c-0.4-0.4-0.4-1,0-1.4c0.1-0.1,0.1-0.1,0.2-0.1l30.4-17.5
		c0.4-0.2,0.9-0.2,1.2,0.2l14.3,15.2c0.4,0.4,0.4,1,0,1.4c-0.1,0.1-0.1,0.1-0.2,0.1L34.1,85.7C34,85.8,33.8,85.8,33.6,85.8z
		 M20.9,69.9l12.9,13.7L62.4,67L49.5,53.4L20.9,69.9z"/>
	<path class="st2" d="M53.9,106.8c0,1.1-0.7,1.6-1.5,1.1l-7.2-4.2c-0.9-0.7-1.5-1.7-1.5-2.8v-1.1c0-1.1,0.7-1.6,1.5-1.1l7.2,4.2
		c0.9,0.7,1.5,1.7,1.5,2.8V106.8z"/>
	<path class="st3" d="M53,109.1c-0.4,0-0.8-0.1-1.1-0.3l-7.2-4.2c-1.2-0.8-2-2.2-2-3.7v-1.1c-0.1-0.8,0.3-1.6,1-2.1
		c0.6-0.3,1.4-0.3,2,0.1l7.2,4.2c1.2,0.8,2,2.2,2,3.7v1.1c0.1,0.8-0.3,1.6-1,2.1C53.6,109,53.3,109.1,53,109.1z M44.8,99.6
		c0,0.1,0,0.1,0,0.2v1.1c0,0.8,0.4,1.5,1,1.9l7.1,4.1c0-0.1,0-0.1,0-0.2v-1.1c0-0.8-0.4-1.5-1-1.9L44.8,99.6z"/>
	<path class="st1" d="M84.3,89.2c0,1.1-0.7,1.6-1.5,1.1l-7.2-4.2c-0.9-0.7-1.5-1.7-1.5-2.8v-1.1c0-1.1,0.7-1.6,1.5-1.1l7.2,4.2
		c0.9,0.7,1.5,1.7,1.5,2.8V89.2z"/>
	<path class="st3" d="M83.4,91.5c-0.4,0-0.8-0.1-1.1-0.3L75.1,87c-1.2-0.8-2-2.2-2-3.7v-1.1c-0.1-0.8,0.3-1.6,1-2.1
		c0.6-0.3,1.4-0.3,2,0.1l7.2,4.2c1.2,0.8,2,2.2,2,3.7v1.1c0.1,0.8-0.3,1.6-1,2.1C84,91.4,83.7,91.5,83.4,91.5z M75.1,82.1
		c0,0.1,0,0.1,0,0.2v1.1c0,0.8,0.4,1.5,1,1.9l7.1,4.1c0-0.1,0-0.1,0-0.2v-1.1c0-0.8-0.4-1.5-1-1.9L75.1,82.1z"/>
	<path class="st4" d="M64,127c-0.2,0-0.3,0-0.5-0.1l-30.4-17.5c-0.3-0.2-0.5-0.5-0.5-0.9V85.2l-14-14.9c-0.4-0.4-0.4-1,0-1.4
		c0.1-0.1,0.1-0.1,0.2-0.1l30.4-17.5c0.4-0.2,0.9-0.2,1.2,0.2l14.2,15.1L94.7,84l14.1,1.3c0.6,0,1,0.5,0.9,1.1
		c0,0.3-0.2,0.6-0.5,0.8l-13.8,8v13.5c0,0.4-0.2,0.7-0.5,0.9l-30.4,17.5C64.3,127,64.2,127,64,127z M34.6,107.9l29.4,17l29.4-17
		V94.4c0-0.4,0.2-0.7,0.5-0.9l11.6-6.7l-11.1-1c-0.1,0-0.3-0.1-0.4-0.1L63.5,68.1c-0.1,0-0.2-0.1-0.2-0.2L49.5,53.4L20.9,69.9
		l13.4,14.3c0.2,0.2,0.3,0.4,0.3,0.7V107.9z"/>
	<path class="st4" d="M64,103.4c-0.6,0-1-0.4-1-1c0-0.4,0.2-0.7,0.5-0.9L93.9,84c0.5-0.3,1.1-0.1,1.4,0.4s0.1,1.1-0.4,1.4l0,0
		l-30.4,17.5C64.3,103.3,64.2,103.4,64,103.4z"/>
	<path class="st4" d="M64,103.4c-0.2,0-0.3,0-0.5-0.1L33.1,85.7c-0.5-0.3-0.6-0.9-0.4-1.4c0.3-0.5,0.9-0.6,1.4-0.4l30.4,17.5
		c0.5,0.3,0.6,0.9,0.4,1.4C64.7,103.2,64.4,103.4,64,103.4z"/>
	<path class="st4" d="M33.6,85.8c-0.6,0-1-0.4-1-1c0-0.4,0.2-0.7,0.5-0.9l30.4-17.6c0.5-0.3,1.1-0.1,1.4,0.4s0.1,1.1-0.4,1.4
		L34.1,85.7C34,85.8,33.8,85.8,33.6,85.8z"/>
	<path class="st4" d="M64,127c-0.6,0-1-0.4-1-1v-23.6c0-0.6,0.4-1,1-1s1,0.4,1,1V126C65,126.6,64.6,127,64,127z"/>
	<polygon class="st1" points="64,15.1 49.9,23.3 49.9,42.1 64,33.9 78.1,42.1 78.1,23.3 	"/>
	<path class="st5" d="M78.1,43.1c-0.2,0-0.3,0-0.5-0.1L64,35.1l-13.6,7.8c-0.5,0.3-1.1,0.1-1.4-0.4c-0.1-0.2-0.1-0.3-0.1-0.5V23.3
		c0-0.4,0.2-0.7,0.5-0.9l14.1-8.1c0.3-0.2,0.7-0.2,1,0l14.1,8.1c0.3,0.2,0.5,0.5,0.5,0.9v18.8C79.1,42.6,78.7,43.1,78.1,43.1
		L78.1,43.1z M64,32.9c0.2,0,0.3,0,0.5,0.1l12.6,7.3V23.8L64,16.3l-13.1,7.6v16.5l12.6-7.3C63.7,33,63.8,32.9,64,32.9z"/>
	<polygon class="st6" points="78.1,42.1 64,50.2 64,31.4 78.1,23.3 	"/>
	<path class="st5" d="M64,51.2c-0.6,0-1-0.4-1-1V31.4c0-0.4,0.2-0.7,0.5-0.9l14.1-8.1c0.5-0.3,1.1-0.1,1.4,0.4
		c0.1,0.2,0.1,0.3,0.1,0.5v18.8c0,0.4-0.2,0.7-0.5,0.9l-14.1,8.1C64.3,51.2,64.2,51.2,64,51.2z M65,32v16.5l12.1-7V25L65,32z"/>
	<polygon class="st6" points="49.9,42.1 64,50.2 64,31.4 49.9,23.3 	"/>
	<path class="st5" d="M64,51.2c-0.2,0-0.3,0-0.5-0.1L49.4,43c-0.3-0.2-0.5-0.5-0.5-0.9V23.3c0-0.6,0.4-1,1-1c0.2,0,0.3,0,0.5,0.1
		l14.1,8.1c0.3,0.2,0.5,0.5,0.5,0.9v18.8C65,50.8,64.6,51.2,64,51.2z M50.9,41.5l12.1,7V32l-12.1-7V41.5z"/>
	<path class="st7" d="M64,51.2c-0.2,0-0.3,0-0.5-0.1L49.4,43c-0.3-0.2-0.5-0.5-0.5-0.9V23.3c0-0.4,0.2-0.7,0.5-0.9l14.1-8.1
		c0.3-0.2,0.7-0.2,1,0l14.1,8.1c0.3,0.2,0.5,0.5,0.5,0.9v18.8c0,0.4-0.2,0.7-0.5,0.9l-14.1,8.1C64.3,51.2,64.2,51.2,64,51.2z
		 M50.9,41.5L64,49l13.1-7.6V23.8L64,16.3l-13.1,7.6V41.5z"/>
	<path class="st7" d="M78.1,3c-0.3,0-0.5-0.1-0.7-0.3c0,0-0.1-0.1-0.1-0.2c0-0.1-0.1-0.1-0.1-0.2c0-0.1,0-0.1-0.1-0.2
		c0-0.1,0-0.1,0-0.2c0-0.5,0.4-1,1-1c0.1,0,0.3,0,0.4,0.1c0.1,0,0.2,0.1,0.3,0.2C79,1.5,79.1,1.7,79.1,2S79,2.5,78.8,2.7
		C78.6,2.9,78.4,3,78.1,3z"/>
	<path class="st7" d="M77.1,18c0-0.6,0.4-1,1-1l0,0c0.6,0,1,0.4,1,1l0,0c0,0.6-0.4,1-1,1l0,0C77.5,19,77.1,18.5,77.1,18z M77.1,12.6
		c0-0.6,0.4-1,1-1l0,0c0.6,0,1,0.4,1,1l0,0c0,0.6-0.4,1-1,1l0,0C77.6,13.6,77.1,13.2,77.1,12.6L77.1,12.6z M77.1,7.3
		c0-0.5,0.4-1,1-1l0,0l0,0c0.6,0,1,0.4,1,1l0,0c0,0.6-0.4,1-1,1l0,0C77.5,8.3,77.1,7.9,77.1,7.3L77.1,7.3z"/>
	<path class="st7" d="M78.1,24.3c-0.3,0-0.5-0.1-0.7-0.3c-0.2-0.2-0.3-0.4-0.3-0.7c0-0.3,0.1-0.5,0.3-0.7c0.4-0.4,1-0.4,1.4,0l0,0
		c0.2,0.2,0.3,0.4,0.3,0.7c0,0.1,0,0.3-0.1,0.4c-0.1,0.2-0.3,0.4-0.5,0.5C78.4,24.2,78.2,24.3,78.1,24.3z"/>
	<path class="st7" d="M49.9,3c-0.3,0-0.5-0.1-0.7-0.3c0,0-0.1-0.1-0.1-0.2L49,2.4l-0.1-0.2c0-0.1,0-0.1,0-0.2c0-0.1,0-0.1,0-0.2
		L49,1.6l0.1-0.2c0-0.1,0.1-0.1,0.1-0.2C49.3,1.1,49.4,1,49.5,1c0.4-0.2,0.8-0.1,1.1,0.2c0,0,0.1,0.1,0.1,0.2s0.1,0.1,0.1,0.2
		s0,0.1,0,0.2s0,0.1,0,0.2s0,0.1,0,0.2c0,0.1,0,0.1,0,0.2c0,0.1-0.1,0.1-0.1,0.2c0,0.1-0.1,0.1-0.1,0.1C50.4,2.9,50.2,3,49.9,3z"/>
	<path class="st7" d="M48.9,18c0-0.6,0.4-1,1-1l0,0c0.6,0,1,0.4,1,1l0,0c0,0.6-0.4,1-1,1l0,0C49.3,19,48.9,18.5,48.9,18z M48.9,12.6
		c0-0.6,0.4-1,1-1l0,0c0.6,0,1,0.4,1,1l0,0c0,0.5-0.4,1-1,1l0,0l0,0C49.3,13.6,48.9,13.2,48.9,12.6L48.9,12.6z M48.9,7.3
		c0-0.6,0.4-1,1-1l0,0c0.6,0,1,0.4,1,1l0,0c0,0.6-0.4,1-1,1l0,0C49.3,8.3,48.9,7.9,48.9,7.3L48.9,7.3z"/>
	<path class="st7" d="M49.9,24.3c-0.1,0-0.3,0-0.4-0.1c-0.1,0-0.2-0.1-0.3-0.2c-0.1,0-0.1-0.1-0.1-0.1S49,23.8,49,23.7
		s0-0.1-0.1-0.2c0-0.1,0-0.1,0-0.2s0-0.1,0-0.2s0-0.1,0.1-0.2s0.1-0.1,0.1-0.2s0.1-0.1,0.1-0.1c0.4-0.4,1-0.4,1.4,0l0,0l0.1,0.1
		c0,0.1,0.1,0.1,0.1,0.2s0,0.1,0,0.2s0,0.1,0,0.2s0,0.1,0,0.2s0,0.1,0,0.2s-0.1,0.1-0.1,0.2S50.6,24,50.6,24
		C50.4,24.2,50.2,24.3,49.9,24.3z"/>
	<rect class="st0" width="128" height="128"/>
</g>
</svg>
