<?xml version="1.0" encoding="utf-8"?>
<!-- Generator: Adobe Illustrator 24.1.0, SVG Export Plug-In . SVG Version: 6.00 Build 0)  -->
<svg version="1.1" id="Layer_1" xmlns="http://www.w3.org/2000/svg" xmlns:xlink="http://www.w3.org/1999/xlink" x="0px" y="0px"
	 viewBox="0 0 128 128" style="enable-background:new 0 0 128 128;" xml:space="preserve">
<style type="text/css">
	.st0{fill:#E9EBDF;}
	.st1{fill:#185849;}
	.st2{fill:#C4D7D3;}
	.st3{fill:#27ae60;}
	.st4{fill:#FFFFFF;}
	.st5{fill:#4D9987;}
	.st6{fill:#0E352C;}
	.st7{fill:none;}
</style>
<g>
	<path class="st0" d="M29.2,112.9c0-0.6,0.4-1,1-1l0,0c0.6,0,1,0.5,1,1l0,0c0,0.6-0.4,1-1,1l0,0C29.7,113.9,29.2,113.5,29.2,112.9
		L29.2,112.9z M35.2,112.7c-0.1-0.5,0.3-1,0.8-1.1l0,0l0,0c0.5-0.1,1,0.3,1.1,0.9l0,0l0,0c0.1,0.5-0.3,1-0.9,1.1l0,0l0,0h-0.1l0,0
		C35.6,113.5,35.2,113.2,35.2,112.7z M24.2,113.5c-0.5-0.1-0.9-0.6-0.9-1.1l0,0c0.1-0.5,0.6-0.9,1.1-0.9l0,0l0,0
		c0.5,0.1,0.9,0.6,0.9,1.1l0,0c-0.1,0.5-0.5,0.9-1,0.9l0,0C24.3,113.5,24.2,113.5,24.2,113.5z M41,111.7c-0.1-0.5,0.2-1.1,0.7-1.2
		l0,0c0.5-0.1,1.1,0.2,1.2,0.7l0,0l0,0c0.1,0.5-0.2,1.1-0.7,1.2l0,0l0,0c-0.1,0-0.2,0-0.2,0l0,0C41.5,112.4,41.1,112.1,41,111.7z
		 M18.2,112.4c-0.5-0.1-0.8-0.7-0.7-1.2l0,0c0.1-0.5,0.7-0.9,1.2-0.7l0,0c0.5,0.1,0.8,0.7,0.7,1.2l0,0l0,0c-0.1,0.4-0.5,0.7-1,0.7
		l0,0C18.4,112.4,18.3,112.4,18.2,112.4z M46.7,109.9c-0.2-0.5,0-1.1,0.5-1.3l0,0c0.5-0.2,1.1,0,1.3,0.5l0,0l0,0
		c0.2,0.5,0,1.1-0.5,1.3l0,0c-0.1,0.1-0.3,0.1-0.4,0.1l0,0C47.2,110.5,46.8,110.2,46.7,109.9z M12.5,110.3c-0.5-0.2-0.7-0.8-0.5-1.3
		l0,0l0,0c0.2-0.5,0.8-0.7,1.3-0.5l0,0l0,0l0,0l0,0c0.5,0.2,0.7,0.8,0.5,1.3l0,0c-0.2,0.4-0.5,0.6-0.9,0.6l0,0
		C12.7,110.4,12.6,110.4,12.5,110.3z M51.9,107.1c-0.3-0.4-0.2-1.1,0.2-1.4l0,0l0,0c0.4-0.3,1.1-0.2,1.4,0.2l0,0l0,0
		c0.3,0.4,0.2,1.1-0.2,1.4l0,0l0,0c-0.2,0.1-0.4,0.2-0.6,0.2l0,0C52.4,107.5,52.1,107.4,51.9,107.1z M7.1,107.2
		c-0.4-0.3-0.5-1-0.2-1.4l0,0l0,0c0.3-0.4,1-0.5,1.4-0.2l0,0l0,0c0.4,0.3,0.5,1,0.2,1.4l0,0c-0.2,0.2-0.5,0.4-0.8,0.4l0,0
		C7.5,107.4,7.3,107.4,7.1,107.2z M56.3,103.1c-0.5-0.3-0.6-0.9-0.3-1.4l0,0c0.3-0.5,0.9-0.6,1.4-0.3l0,0l0,0
		c0.5,0.3,0.6,0.9,0.3,1.4l0,0l0,0c-0.2,0.3-0.5,0.5-0.8,0.5l0,0C56.6,103.2,56.4,103.2,56.3,103.1z M2.8,102.7
		c-0.3-0.5-0.2-1.1,0.3-1.4l0,0l0,0c0.5-0.3,1.1-0.2,1.4,0.3l0,0l0,0c0.3,0.5,0.2,1.1-0.3,1.4l0,0c-0.2,0.1-0.3,0.1-0.5,0.2l0,0
		C3.4,103.2,3,103,2.8,102.7z M58.5,97.6c-0.6,0-1-0.4-1-1l0,0l0,0c0-0.5,0.5-1,1-1l0,0c0.6,0,1,0.5,1,1l0,0l0,0
		C59.5,97.2,59.1,97.6,58.5,97.6L58.5,97.6z M1,96.6c0-0.6,0.4-1,1-1l0,0c0.6,0,1,0.4,1,1l0,0c0,0.6-0.4,1-1,1l0,0
		C1.4,97.6,1,97.1,1,96.6z M56,91.6L56,91.6c-0.3-0.5-0.2-1.1,0.3-1.4l0,0l0,0c0.5-0.3,1.1-0.2,1.4,0.3l0,0l0,0
		c0.3,0.5,0.2,1.1-0.3,1.4l0,0l0,0C57.3,92,57.1,92,56.9,92l0,0C56.5,92,56.2,91.9,56,91.6z M3.2,91.8c-0.5-0.3-0.6-0.9-0.3-1.4l0,0
		c0.3-0.5,0.9-0.6,1.4-0.3l0,0l0,0c0.5,0.3,0.6,0.9,0.3,1.4l0,0l0,0C4.4,91.8,4.1,92,3.7,92l0,0C3.5,91.9,3.3,91.9,3.2,91.8z
		 M52.2,87.5c-0.4-0.3-0.5-1-0.2-1.4l0,0c0.3-0.4,1-0.5,1.4-0.2l0,0c0.4,0.3,0.5,1,0.2,1.4l0,0l0,0c-0.2,0.2-0.5,0.4-0.8,0.4l0,0
		C52.6,87.7,52.4,87.7,52.2,87.5z M7,87.3c-0.3-0.4-0.2-1.1,0.2-1.4l0,0l0,0c0.4-0.3,1.1-0.3,1.4,0.2l0,0l0,0
		c0.3,0.4,0.2,1.1-0.2,1.4l0,0l0,0c-0.2,0.1-0.4,0.2-0.6,0.2l0,0C7.5,87.7,7.2,87.5,7,87.3z M47.3,84.6L47.3,84.6
		c-0.5-0.2-0.7-0.8-0.5-1.3l0,0c0.2-0.5,0.8-0.7,1.3-0.5l0,0c0.5,0.2,0.7,0.8,0.5,1.3l0,0c-0.2,0.4-0.5,0.6-0.9,0.6l0,0
		C47.6,84.7,47.4,84.7,47.3,84.6z M12,84.1c-0.2-0.5,0-1.1,0.5-1.3l0,0l0,0c0.5-0.2,1.1,0,1.3,0.5l0,0l0,0c0.2,0.5,0,1.1-0.5,1.3
		l0,0c-0.1,0.1-0.3,0.1-0.4,0.1l0,0C12.5,84.7,12.2,84.5,12,84.1z M41.9,82.7c-0.5-0.1-0.8-0.7-0.7-1.2l0,0c0.1-0.5,0.7-0.8,1.2-0.7
		l0,0c0.5,0.1,0.9,0.7,0.7,1.2l0,0c-0.1,0.4-0.5,0.7-1,0.7l0,0C42,82.8,41.9,82.7,41.9,82.7z M17.6,82c-0.1-0.5,0.2-1.1,0.7-1.2l0,0
		l0,0c0.5-0.1,1.1,0.2,1.2,0.7l0,0l0,0c0.1,0.5-0.2,1.1-0.7,1.2l0,0c-0.1,0-0.2,0-0.3,0l0,0C18.1,82.7,17.7,82.4,17.6,82z
		 M36.2,81.6L36.2,81.6c-0.5-0.1-0.9-0.6-0.9-1.1l0,0l0,0c0.1-0.5,0.6-0.9,1.1-0.9l0,0c0.5,0.1,0.9,0.6,0.9,1.1l0,0l0,0
		C37.2,81.2,36.8,81.6,36.2,81.6L36.2,81.6C36.2,81.6,36.2,81.6,36.2,81.6z M23.4,80.7c-0.1-0.5,0.3-1,0.8-1.1l0,0l0,0
		c0.5-0.1,1,0.3,1.1,0.9l0,0l0,0c0.1,0.5-0.3,1-0.9,1.1l0,0h-0.1l0,0C23.8,81.6,23.4,81.2,23.4,80.7z M30.4,81.2L30.4,81.2
		c-0.6,0-1.1-0.4-1.1-1l0,0c0-0.6,0.4-1,1-1h0.1c0.6,0,1,0.4,1,1l0,0C31.4,80.8,30.9,81.2,30.4,81.2L30.4,81.2z"/>
	<path class="st1" d="M92.3,16.1c-0.1,0-0.3,0-0.4-0.1s-0.2-0.1-0.3-0.2l-0.1-0.1c0-0.1-0.1-0.1-0.1-0.2c0-0.1,0-0.1-0.1-0.2
		c0-0.1,0-0.1,0-0.2c0-0.3,0.1-0.5,0.3-0.7c0.2-0.2,0.6-0.3,0.9-0.3l0.2,0.1c0.1,0,0.1,0.1,0.2,0.1s0.1,0.1,0.2,0.1
		c0.1,0.1,0.2,0.2,0.2,0.3s0.1,0.3,0.1,0.4c0,0.3-0.1,0.5-0.3,0.7C92.8,16,92.5,16.1,92.3,16.1z"/>
	<path class="st1" d="M91.3,25.7c0-0.6,0.4-1,1-1l0,0c0.6,0,1,0.4,1,1l0,0c0,0.6-0.4,1-1,1l0,0C91.7,26.7,91.3,26.2,91.3,25.7z
		 M91.3,20.4c0-0.6,0.4-1,1-1l0,0c0.6,0,1,0.4,1,1l0,0c0,0.6-0.4,1-1,1l0,0C91.7,21.4,91.3,20.9,91.3,20.4z"/>
	<path class="st1" d="M92.3,32c-0.1,0-0.3,0-0.4-0.1c-0.1,0-0.2-0.1-0.3-0.2c-0.1,0-0.1-0.1-0.1-0.1c0-0.1-0.1-0.1-0.1-0.2
		s-0.1-0.1-0.1-0.2s0-0.1,0-0.2c0-0.3,0.1-0.5,0.3-0.7c0.4-0.4,1-0.4,1.4,0c0.1,0.1,0.2,0.2,0.2,0.3c0,0.1,0.1,0.3,0.1,0.4
		c0,0.3-0.1,0.5-0.3,0.7C92.8,31.9,92.5,32,92.3,32z"/>
	<path class="st1" d="M35.7,16.1c-0.1,0-0.3,0-0.4-0.1c-0.1,0-0.2-0.1-0.3-0.2l-0.1-0.1c0-0.1-0.1-0.1-0.1-0.2c0-0.1,0-0.1,0-0.2
		c0-0.1,0-0.1,0-0.2c0-0.3,0.1-0.5,0.3-0.7c0.1-0.1,0.2-0.2,0.3-0.2c0.4-0.1,0.8-0.1,1.1,0.2c0.1,0.1,0.2,0.2,0.2,0.3
		c0.1,0.1,0.1,0.3,0.1,0.4C36.7,15.7,36.3,16.1,35.7,16.1L35.7,16.1z"/>
	<path class="st1" d="M34.7,25.7c0-0.6,0.4-1,1-1l0,0c0.6,0,1,0.4,1,1l0,0c0,0.6-0.4,1-1,1l0,0C35.2,26.7,34.7,26.2,34.7,25.7z
		 M34.7,20.4c0-0.6,0.4-1,1-1l0,0c0.6,0,1,0.4,1,1l0,0c0,0.6-0.4,1-1,1l0,0C35.2,21.4,34.7,20.9,34.7,20.4z"/>
	<path class="st1" d="M35.7,32c-0.1,0-0.3,0-0.4-0.1c-0.1,0-0.2-0.1-0.3-0.2c-0.2-0.2-0.3-0.4-0.3-0.7c0-0.1,0-0.1,0-0.2
		s0-0.1,0-0.2s0.1-0.1,0.1-0.2s0.1-0.1,0.1-0.1c0.1-0.1,0.2-0.2,0.3-0.2c0.2-0.1,0.4-0.1,0.6,0c0.1,0,0.1,0,0.2,0
		c0.1,0,0.1,0.1,0.2,0.1c0.1,0,0.1,0.1,0.2,0.1c0.2,0.2,0.3,0.4,0.3,0.7c0,0.3-0.1,0.5-0.3,0.7C36.3,31.9,36,32,35.7,32z"/>
	<path class="st2" d="M45.5,28.2V45l8.1,5.5c1.5-2.4,5.6-4.2,10.3-4.2s8.8,1.7,10.3,4.2H78V28.2H45.5z"/>
	<path class="st3" d="M78.1,51.5h-3.8c-0.3,0-0.7-0.2-0.8-0.5c-1.4-2.2-5.2-3.7-9.5-3.7s-8.1,1.5-9.5,3.7c-0.3,0.5-0.9,0.6-1.4,0.3
		l0,0L45,45.8c-0.3-0.2-0.4-0.5-0.4-0.8V28.2c0-0.6,0.4-1,1-1h32.6c0.6,0,1,0.4,1,1v22.3C79.1,51,78.7,51.5,78.1,51.5L78.1,51.5z
		 M74.9,49.5h2.3V29.2H46.5v15.2l6.9,4.7c2.1-2.3,6.1-3.8,10.6-3.8C68.7,45.3,72.9,46.9,74.9,49.5z"/>
	<path class="st2" d="M45.5,28.2V45l8.1,5.5c1.5-2.4,5.6-4.2,10.3-4.2V28.2H45.5z"/>
	<path class="st3" d="M78.1,51.5h-3.8c-0.3,0-0.7-0.2-0.8-0.5c-1.4-2.2-5.2-3.7-9.5-3.7s-8.1,1.5-9.5,3.7c-0.3,0.5-0.9,0.6-1.4,0.3
		l0,0L45,45.8c-0.3-0.2-0.4-0.5-0.4-0.8V28.2c0-0.6,0.4-1,1-1h32.6c0.6,0,1,0.4,1,1v22.3C79.1,51,78.7,51.5,78.1,51.5L78.1,51.5z
		 M74.9,49.5h2.3V29.2H46.5v15.2l6.9,4.7c2.1-2.3,6.1-3.8,10.6-3.8C68.7,45.3,72.9,46.9,74.9,49.5z"/>
	<path class="st2" d="M82.9,32.7c-1.7,3.7-3.2,7.1-4.3,9.5c1.4,1.3,2.3,3.1,2.4,5c0,5.4-7.6,5.9-17,5.9s-17-0.4-17-5.9
		c0.1-1.9,0.9-3.7,2.3-4.9c-1.1-2.3-2.6-5.8-4.3-9.6c-2.5,1.8-4.8,4-6.8,6.4h-2.6v13.6c0,9,12.7,16.3,28.3,16.3s28.3-7.3,28.3-16.3
		V39.1h-2.6C87.7,36.7,85.4,34.5,82.9,32.7z"/>
	<path class="st3" d="M64,70c-16.1,0-29.3-7.8-29.3-17.3V39.1c0-0.6,0.4-1,1-1h2.1c2-2.3,4.2-4.4,6.7-6.2c0.4-0.3,1.1-0.2,1.4,0.2
		c0,0.1,0.1,0.1,0.1,0.2c1.8,4.2,3.3,7.4,4.3,9.5c0.2,0.4,0.1,0.8-0.2,1.1c-1.2,1.1-1.9,2.6-2,4.2c0,4.1,5.6,4.9,16,4.9
		s16-0.8,16-4.9c-0.1-1.6-0.8-3.2-2.1-4.3c-0.3-0.3-0.4-0.7-0.2-1.1c1.1-2.5,2.7-6,4.3-9.5c0.2-0.5,0.8-0.7,1.3-0.5
		c0.1,0,0.1,0.1,0.2,0.1c2.5,1.8,4.8,3.9,6.7,6.2h2.1c0.6,0,1,0.4,1,1v13.6C93.3,62.2,80.1,70,64,70z M36.7,40.1v12.6
		C36.7,61.1,49,68,64,68s27.3-6.9,27.3-15.3V40.1h-1.6c-0.3,0-0.6-0.1-0.8-0.4c-1.7-2-3.6-3.9-5.7-5.5c-1.3,2.8-2.5,5.6-3.5,7.8
		c1.4,1.4,2.1,3.3,2.2,5.2C82,54,72,54,64,54s-18,0-18-6.9c0-1.9,0.8-3.7,2.1-5.1c-0.9-1.9-2.1-4.5-3.5-7.8
		c-2.1,1.6-3.9,3.4-5.6,5.4c-0.2,0.2-0.5,0.4-0.8,0.4L36.7,40.1z"/>
	<path class="st2" d="M81,47.1c0,5.4-7.6,1.9-17,1.9v20c15.6,0,28.3-7.3,28.3-16.3v-15h-1.6l-10.5,3.9C80.7,42.5,81,46.1,81,47.1z"
		/>
	<path class="st3" d="M64,70c-16.1,0-29.3-7.8-29.3-17.3V39.1c0-0.6,0.4-1,1-1h2.1c2-2.3,4.2-4.4,6.7-6.2c0.4-0.3,1.1-0.2,1.4,0.2
		c0,0.1,0.1,0.1,0.1,0.2c1.8,4.2,3.3,7.4,4.3,9.5c0.2,0.4,0.1,0.8-0.2,1.1c-1.2,1.1-1.9,2.6-2,4.2c0,4.1,5.6,4.9,16,4.9
		s16-0.8,16-4.9c-0.1-1.6-0.8-3.2-2.1-4.3c-0.3-0.3-0.4-0.7-0.2-1.1c1.1-2.5,2.7-6,4.3-9.5c0.2-0.5,0.8-0.7,1.3-0.5
		c0.1,0,0.1,0.1,0.2,0.1c2.5,1.8,4.8,3.9,6.7,6.2h2.1c0.6,0,1,0.4,1,1v13.6C93.3,62.2,80.1,70,64,70z M36.7,40.1v12.6
		C36.7,61.1,49,68,64,68s27.3-6.9,27.3-15.3V40.1h-1.6c-0.3,0-0.6-0.1-0.8-0.4c-1.7-2-3.6-3.9-5.7-5.5c-1.3,2.8-2.5,5.6-3.5,7.8
		c1.4,1.4,2.1,3.3,2.2,5.2C82,54,72,54,64,54s-18,0-18-6.9c0-1.9,0.8-3.7,2.1-5.1c-0.9-1.9-2.1-4.5-3.5-7.8
		c-2.1,1.6-3.9,3.4-5.6,5.4c-0.2,0.2-0.5,0.4-0.8,0.4L36.7,40.1z"/>
	<path class="st4" d="M64,22.8c-15.6,0-28.3,7.3-28.3,16.3S48.4,55.4,64,55.4s28.3-7.3,28.3-16.3S79.6,22.8,64,22.8z M64,45.5
		c-6.1,0-11-2.8-11-6.4s4.9-6.4,11-6.4s11,2.8,11,6.4S70.1,45.5,64,45.5z"/>
	<path class="st3" d="M64,56.4c-16.1,0-29.3-7.8-29.3-17.3S47.9,21.8,64,21.8s29.3,7.8,29.3,17.3S80.1,56.4,64,56.4z M64,23.8
		c-15,0-27.3,6.9-27.3,15.3S49,54.4,64,54.4s27.3-6.9,27.3-15.3S79,23.8,64,23.8z M64,46.5c-6.7,0-12-3.2-12-7.4s5.3-7.4,12-7.4
		s12,3.2,12,7.4S70.7,46.5,64,46.5z M64,33.7c-5.4,0-10,2.5-10,5.4s4.6,5.4,10,5.4s10-2.5,10-5.4S69.4,33.7,64,33.7z"/>
	<path class="st1" d="M64,70c-16.1,0-29.3-7.8-29.3-17.3V39.1c0-9.6,13.1-17.3,29.3-17.3c15.1,0,27.4,6.6,29.1,15.4
		c0.1,0.2,0.2,0.4,0.2,0.6v14.9c-0.1,3.2-1.4,6.2-3.7,8.5c-1.2,1.3-2.6,2.4-4.1,3.4c-0.6,0.4-1.3,0.8-2,1.1s-1.4,0.7-2.2,1
		c-1.6,0.7-3.2,1.2-4.8,1.7c-0.4,0.1-0.8,0.2-1.3,0.3c-2.7,0.7-5.5,1.1-8.3,1.2C66,69.9,65,70,64,70z M64,23.8
		c-15,0-27.3,6.9-27.3,15.3v13.5C36.7,61.1,49,68,64,68c0.9,0,1.9,0,2.8-0.1c2.7-0.2,5.3-0.5,7.9-1.2c0.4-0.1,0.8-0.2,1.2-0.3
		c1.5-0.4,3.1-1,4.5-1.6c0.7-0.3,1.4-0.6,2-1c0.6-0.3,1.3-0.7,1.8-1.1c1.4-0.9,2.6-1.9,3.7-3c1.9-1.9,3.1-4.4,3.1-7.1V38.2
		c0-0.1-0.1-0.2-0.1-0.3C90,30,78.1,23.8,64,23.8z"/>
	<rect x="30.3" y="76.7" class="st0" width="13.6" height="13.6"/>
	<path class="st5" d="M43.9,91.3H30.3c-0.6,0-1-0.4-1-1V76.7c0-0.6,0.4-1,1-1h13.6c0.6,0,1,0.4,1,1v13.6
		C44.9,90.8,44.5,91.3,43.9,91.3z M31.3,89.3h11.6V77.7H31.3V89.3z"/>
	<path class="st0" d="M49.1,76.6c-1.7,3.7-3.2,7.1-4.3,9.5c1.4,1.3,2.3,3.1,2.4,5c0,5.4-7.6,5.9-17,5.9s-17-0.4-17-5.9
		c0.1-1.9,0.9-3.7,2.3-4.9c-1.1-2.3-2.6,3-4.3-0.7c-2.8,2.1-5.2,2.4-6.8,4.4L2,83v13.5c0,9,12.7,16.3,28.3,16.3s28.3-7.3,28.3-16.3
		V83H56C54,80.6,51.7,78.4,49.1,76.6z"/>
	<path class="st5" d="M47.2,91.1c0,5.4-7.6,1.9-17,1.9v19.9c15.6,0,28.3-7.3,28.3-16.3v-15H57l-10.5,3.9C47,86.4,47.2,90,47.2,91.1z
		"/>
	<path class="st5" d="M30.3,113.9C14.1,113.9,1,106.1,1,96.6V83c0-0.6,0.4-1,1-1c0.4,0,0.8,0.3,0.9,0.7l2,5.4
		c0.8-0.6,1.7-1.2,2.7-1.6c1.1-0.5,2.1-1.1,3.1-1.8c0.4-0.3,1.1-0.2,1.4,0.2c0,0.1,0.1,0.1,0.1,0.2c0.1,0.3,0.3,0.5,0.5,0.8
		c0.2-0.1,0.4-0.3,0.6-0.4c0.5-0.6,1.2-0.9,2-0.8c0.6,0.2,1,0.6,1.3,1.2c0.2,0.4,0.1,0.8-0.2,1.1c-1.2,1.1-1.9,2.6-2,4.2
		c0,4.1,5.6,4.9,16,4.9s16-0.8,16-4.9c-0.1-1.6-0.8-3.2-2.1-4.3c-0.3-0.3-0.4-0.7-0.2-1.1c1.1-2.6,2.7-6,4.3-9.5
		c0.2-0.5,0.8-0.7,1.3-0.5c0.1,0,0.1,0.1,0.2,0.1c2.5,1.8,4.8,3.9,6.7,6.2h2.1c0.6,0,1,0.4,1,1v13.5
		C59.5,106.1,46.4,113.9,30.3,113.9z M3,88.6v8c0,8.4,12.2,15.3,27.3,15.3s27.3-6.9,27.3-15.3V84H56c-0.3,0-0.6-0.1-0.8-0.4
		c-1.7-2-3.6-3.9-5.7-5.5c-1.3,2.8-2.5,5.6-3.5,7.8c1.4,1.4,2.1,3.3,2.2,5.2c0,6.9-10,6.9-18,6.9s-18,0-18-6.9
		c0-1.2,0.3-2.3,0.9-3.3c-0.3,0.1-0.6,0.1-0.9,0c-0.5-0.1-1-0.5-1.3-0.9c-0.9,0.6-1.7,1-2.4,1.4c-1.2,0.5-2.3,1.3-3.2,2.3
		C5,91,4.4,91,3.9,90.7c-0.1-0.1-0.3-0.3-0.3-0.4L3,88.6z"/>
	<path class="st5" d="M30.3,113.9C14.1,113.9,1,106.1,1,96.6V83c0-0.6,0.4-1,1-1c0.4,0,0.8,0.3,0.9,0.7l2,5.4
		c0.8-0.6,1.7-1.2,2.7-1.6c1.1-0.5,2.1-1.1,3.1-1.8c0.4-0.3,1.1-0.2,1.4,0.2c0,0.1,0.1,0.1,0.1,0.2c0.1,0.3,0.3,0.5,0.5,0.8
		c0.2-0.1,0.4-0.3,0.6-0.4c0.5-0.6,1.2-0.9,2-0.8c0.6,0.2,1,0.6,1.3,1.2c0.2,0.4,0.1,0.8-0.2,1.1c-1.2,1.1-1.9,2.6-2,4.2
		c0,4.1,5.6,4.9,16,4.9s16-0.8,16-4.9c-0.1-1.6-0.8-3.2-2.1-4.3c-0.3-0.3-0.4-0.7-0.2-1.1c1.1-2.6,2.7-6,4.3-9.5
		c0.2-0.5,0.8-0.7,1.3-0.5c0.1,0,0.1,0.1,0.2,0.1c2.5,1.8,4.8,3.9,6.7,6.2h2.1c0.6,0,1,0.4,1,1v13.5
		C59.5,106.1,46.4,113.9,30.3,113.9z M3,88.6v8c0,8.4,12.2,15.3,27.3,15.3s27.3-6.9,27.3-15.3V84H56c-0.3,0-0.6-0.1-0.8-0.4
		c-1.7-2-3.6-3.9-5.7-5.5c-1.3,2.8-2.5,5.6-3.5,7.8c1.4,1.4,2.1,3.3,2.2,5.2c0,6.9-10,6.9-18,6.9s-18,0-18-6.9
		c0-1.2,0.3-2.3,0.9-3.3c-0.3,0.1-0.6,0.1-0.9,0c-0.5-0.1-1-0.5-1.3-0.9c-0.9,0.6-1.7,1-2.4,1.4c-1.2,0.5-2.3,1.3-3.2,2.3
		C5,91,4.4,91,3.9,90.7c-0.1-0.1-0.3-0.3-0.3-0.4L3,88.6z"/>
	<path class="st4" d="M30.3,66.7v10c6.1,0,11,2.8,11,6.4s-4.9,6.4-11,6.4s-11-2.8-11-6.4H2c0,9,12.7,16.3,28.3,16.3S58.5,92,58.5,83
		S45.9,66.7,30.3,66.7z"/>
	<path class="st5" d="M30.3,100.3C14.1,100.3,1,92.6,1,83c0-0.6,0.4-1,1-1h17.3c0.6,0,1,0.4,1,1c0,2.9,4.6,5.4,10,5.4s10-2.5,10-5.4
		s-4.6-5.4-10-5.4c-0.6,0-1-0.4-1-1v-10c0-0.6,0.4-1,1-1c16.1,0,29.3,7.8,29.3,17.3S46.4,100.3,30.3,100.3z M3.1,84
		C4,92,15.8,98.3,30.3,98.3c15,0,27.3-6.9,27.3-15.3c0-8.3-11.7-15-26.3-15.3v8c6.3,0.3,11,3.4,11,7.3c0,4.1-5.3,7.4-12,7.4
		c-6.2,0-11.1-2.7-11.9-6.4H3.1z"/>
	<path class="st6" d="M30.3,113.9C14.1,113.9,1,106.1,1,96.6V83c0-0.6,0.4-1,1-1l0,0h17.3c0.6,0,1,0.4,1,1c0,2.7,4,5.1,9,5.3V66.7
		c0-0.6,0.4-1,1-1c15.1,0,27.4,6.6,29.1,15.4c0.1,0.2,0.2,0.4,0.2,0.6v14.9c0,4.2-2.6,8.3-7.3,11.4c-0.5,0.3-1,0.7-1.5,1
		c-0.4,0.3-0.9,0.5-1.4,0.7C43.4,112.6,36.9,114,30.3,113.9z M3,84v12.5c0,8.4,12.2,15.3,27.3,15.3c6.3,0.1,12.5-1.3,18.2-4
		c0.4-0.2,0.9-0.4,1.3-0.7c0.5-0.3,1-0.6,1.4-0.9c4.1-2.8,6.4-6.2,6.4-9.8V82.1c0-0.1-0.1-0.2-0.1-0.3C56.3,74.1,44.9,68,31.3,67.7
		v21.7c0,0.6-0.4,1-1,1c-6.2,0-11.1-2.7-11.9-6.4C18.4,84,3,84,3,84z"/>
	<path class="st0" d="M96.7,112.9c0-0.5,0.4-1,1-1l0,0l0,0c0.6,0,1,0.4,1,1l0,0c0,0.5-0.4,1-1,1l0,0l0,0
		C97.1,113.9,96.7,113.4,96.7,112.9z M102.6,112.7c-0.1-0.5,0.3-1,0.9-1.1l0,0l0,0c0.5-0.1,1,0.3,1.1,0.9l0,0l0,0
		c0.1,0.5-0.3,1-0.8,1.1l0,0l0,0h-0.1l0,0C103.1,113.5,102.7,113.2,102.6,112.7z M91.6,113.5c-0.5-0.1-0.9-0.6-0.9-1.1l0,0
		c0.1-0.5,0.6-0.9,1.1-0.9l0,0l0,0c0.5,0.1,0.9,0.6,0.9,1.1l0,0l0,0C92.6,113.1,92.2,113.5,91.6,113.5L91.6,113.5
		C91.7,113.5,91.7,113.5,91.6,113.5z M108.5,111.7c-0.1-0.5,0.2-1.1,0.7-1.2l0,0l0,0c0.5-0.1,1.1,0.2,1.2,0.7l0,0l0,0
		c0.1,0.5-0.2,1.1-0.7,1.2l0,0c-0.1,0-0.2,0-0.3,0l0,0C109,112.4,108.6,112.1,108.5,111.7z M85.7,112.4c-0.5-0.1-0.9-0.7-0.7-1.2
		l0,0l0,0c0.1-0.5,0.7-0.8,1.2-0.7l0,0c0.5,0.1,0.8,0.7,0.7,1.2l0,0c-0.1,0.4-0.5,0.8-1,0.8l0,0C85.8,112.4,85.8,112.4,85.7,112.4z
		 M114.1,109.9c-0.2-0.5,0-1.1,0.5-1.3l0,0l0,0c0.5-0.2,1.1,0,1.3,0.5l0,0l0,0c0.2,0.5,0,1.1-0.5,1.3l0,0c-0.1,0.1-0.3,0.1-0.4,0.1
		l0,0C114.7,110.5,114.3,110.2,114.1,109.9z M79.9,110.3c-0.5-0.2-0.7-0.8-0.5-1.3l0,0c0.2-0.5,0.8-0.7,1.3-0.5l0,0l0,0
		c0.5,0.2,0.7,0.8,0.5,1.3l0,0c-0.2,0.4-0.5,0.6-0.9,0.6l0,0C80.2,110.4,80,110.4,79.9,110.3z M119.4,107.1
		c-0.3-0.4-0.2-1.1,0.2-1.4l0,0l0,0c0.4-0.3,1.1-0.2,1.4,0.2l0,0l0,0c0.3,0.4,0.2,1.1-0.2,1.4l0,0c-0.2,0.1-0.4,0.2-0.6,0.2l0,0
		C119.9,107.5,119.6,107.4,119.4,107.1z M74.6,107.2c-0.4-0.3-0.5-1-0.2-1.4l0,0c0.3-0.4,1-0.5,1.4-0.2l0,0l0,0
		c0.4,0.3,0.5,1,0.2,1.4l0,0l0,0c-0.2,0.2-0.5,0.4-0.8,0.4l0,0C75,107.4,74.8,107.4,74.6,107.2z M123.7,103.1
		c-0.5-0.3-0.6-0.9-0.3-1.4l0,0l0,0c0.3-0.5,0.9-0.6,1.4-0.3l0,0l0,0c0.5,0.3,0.6,0.9,0.3,1.4l0,0c-0.2,0.3-0.5,0.5-0.8,0.5l0,0
		C124.1,103.2,123.9,103.2,123.7,103.1z M70.3,102.7c-0.3-0.5-0.1-1.1,0.3-1.4l0,0c0.5-0.3,1.1-0.1,1.4,0.3l0,0
		c0.3,0.5,0.1,1.1-0.3,1.4l0,0c-0.2,0.1-0.3,0.1-0.5,0.2l0,0C70.8,103.2,70.5,103,70.3,102.7z M126,97.6c-0.6,0-1-0.5-1-1l0,0l0,0
		c0-0.6,0.5-1,1-1l0,0l0,0c0.6,0,1,0.5,1,1l0,0l0,0C127,97.2,126.5,97.6,126,97.6L126,97.6z M68.5,96.6c0-0.6,0.4-1,1-1l0,0
		c0.6,0,1,0.4,1,1l0,0c0,0.6-0.5,1-1,1l0,0C68.9,97.6,68.5,97.1,68.5,96.6L68.5,96.6z M123.5,91.6c-0.3-0.5-0.2-1.1,0.3-1.4l0,0l0,0
		c0.5-0.3,1.1-0.2,1.4,0.3l0,0l0,0c0.3,0.5,0.2,1.1-0.3,1.4l0,0l0,0c-0.2,0.1-0.3,0.1-0.5,0.2l0,0C124,92,123.7,91.9,123.5,91.6z
		 M70.6,91.8c-0.5-0.3-0.6-0.9-0.3-1.4l0,0l0,0c0.3-0.5,0.9-0.6,1.4-0.3l0,0l0,0c0.5,0.3,0.6,0.9,0.3,1.4l0,0l0,0
		c-0.2,0.3-0.5,0.5-0.8,0.5l0,0C71,91.9,70.8,91.9,70.6,91.8z M119.7,87.5c-0.4-0.3-0.5-1-0.2-1.4l0,0l0,0c0.3-0.4,1-0.5,1.4-0.2
		l0,0l0,0c0.4,0.3,0.5,1,0.2,1.4l0,0c-0.2,0.2-0.5,0.4-0.8,0.4l0,0C120.1,87.7,119.9,87.7,119.7,87.5z M74.4,87.3
		c-0.3-0.4-0.2-1.1,0.2-1.4l0,0c0.4-0.3,1.1-0.3,1.4,0.2l0,0l0,0c0.3,0.4,0.3,1.1-0.2,1.4l0,0l0,0c-0.2,0.1-0.4,0.2-0.6,0.2l0,0
		C74.9,87.7,74.6,87.5,74.4,87.3z M114.8,84.6c-0.5-0.2-0.7-0.8-0.5-1.3l0,0c0.2-0.5,0.8-0.7,1.3-0.5l0,0l0,0
		c0.5,0.2,0.7,0.8,0.5,1.3l0,0l0,0c-0.2,0.4-0.5,0.6-0.9,0.6l0,0C115,84.7,114.9,84.7,114.8,84.6z M79.4,84.1
		c-0.2-0.5,0-1.1,0.5-1.3l0,0l0,0c0.5-0.2,1.1,0,1.3,0.5l0,0l0,0c0.2,0.5,0,1.1-0.5,1.3l0,0c-0.1,0.1-0.3,0.1-0.4,0.1l0,0
		C80,84.7,79.6,84.5,79.4,84.1z M109.3,82.7c-0.5-0.1-0.8-0.7-0.7-1.2l0,0c0.1-0.5,0.7-0.8,1.2-0.7l0,0c0.5,0.1,0.8,0.7,0.7,1.2l0,0
		l0,0c-0.1,0.4-0.5,0.7-1,0.8l0,0C109.5,82.8,109.4,82.7,109.3,82.7z M85,82c-0.1-0.5,0.2-1.1,0.7-1.2l0,0c0.5-0.1,1.1,0.2,1.2,0.7
		l0,0l0,0c0.1,0.5-0.2,1.1-0.7,1.2l0,0c-0.1,0-0.2,0-0.2,0l0,0C85.5,82.7,85.1,82.4,85,82z M103.6,81.6L103.6,81.6
		c-0.5-0.1-0.9-0.6-0.9-1.1l0,0c0.1-0.5,0.6-0.9,1.1-0.9l0,0l0,0c0.5,0.1,0.9,0.6,0.9,1.1l0,0C104.6,81.2,104.2,81.6,103.6,81.6
		L103.6,81.6C103.7,81.6,103.7,81.6,103.6,81.6z M90.8,80.7c-0.1-0.5,0.3-1,0.9-1.1l0,0l0,0c0.5-0.1,1,0.3,1.1,0.9l0,0
		c0.1,0.5-0.3,1-0.9,1.1l0,0h-0.1l0,0C91.3,81.6,90.9,81.2,90.8,80.7z M97.8,81.2L97.8,81.2c-0.6,0-1.1-0.4-1.1-1l0,0
		c0-0.6,0.4-1,1-1h0.1c0.6,0,1,0.4,1,1l0,0C98.8,80.8,98.4,81.2,97.8,81.2L97.8,81.2z"/>
	<path class="st0" d="M97.7,76.7v13.5c6.1,0,11,2.8,11,6.4l9-13.9c0,0-5-10.3-6.1-10.3s-9.2-0.9-9.2-0.9L97.7,76.7z"/>
	<path class="st5" d="M108.7,97.6c-0.6,0-1-0.4-1-1c0-2.9-4.6-5.4-10-5.4c-0.6,0-1-0.4-1-1V76.7c0-0.2,0.1-0.5,0.3-0.7l4.7-5.1
		c0.2-0.2,0.5-0.4,0.8-0.3c3.2,0.3,8.3,0.9,9.1,0.9c0.6,0,1.7,0,7,10.9c0.2,0.3,0.1,0.7-0.1,1l-9,13.9
		C109.4,97.4,109.1,97.6,108.7,97.6z M98.7,89.2c4.9,0.2,8.9,2.2,10.4,4.9l7.5-11.5c-2-4-4.4-8.4-5.2-9.3c-1.5-0.1-6.8-0.6-8.5-0.8
		L98.8,77L98.7,89.2z"/>
	<path class="st0" d="M123.4,83c-2-2.4-4.3-4.6-6.8-6.4c-1,2.2-2,4.4-2.8,6.3l1.7,0.2l2.2,11.5v13.5l0,0c5.1-3,8.3-7,8.3-11.5V83
		H123.4z"/>
	<path class="st5" d="M117.7,109.1c-0.6,0-1-0.4-1-1V94.7L114.6,84l-1-0.1c-0.5-0.1-1-0.5-0.9-1.1c0-0.1,0-0.2,0.1-0.3
		c0.8-1.9,1.8-4,2.8-6.3c0.2-0.5,0.8-0.7,1.3-0.5c0.1,0,0.1,0.1,0.2,0.1c2.5,1.8,4.8,3.9,6.7,6.2h2.1c0.6,0,1,0.4,1,1v13.5
		c0,4.7-3.1,9.1-8.8,12.4C118.1,109.1,117.9,109.1,117.7,109.1z M115.3,82h0.4c0.4,0,0.8,0.4,0.9,0.8l2.2,11.5c0,0.1,0,0.1,0,0.2
		v11.7c4.1-2.8,6.3-6.2,6.3-9.7V84h-1.6c-0.3,0-0.6-0.1-0.8-0.4c-1.7-2-3.6-3.9-5.7-5.5C116.4,79.5,115.8,80.8,115.3,82z"/>
	<path class="st4" d="M108.7,83c0,1.8-1.2,3.3-3.2,4.5l12.2,7c5.1-3,8.3-7,8.3-11.5c0-9-12.7-16.3-28.3-16.3v10
		C103.8,76.7,108.7,79.5,108.7,83z"/>
	<path class="st5" d="M117.7,95.6c-0.2,0-0.3,0-0.5-0.1l-12.2-7c-0.5-0.3-0.6-0.9-0.4-1.4c0.1-0.2,0.2-0.3,0.4-0.4
		c1.8-1,2.7-2.3,2.7-3.6c0-2.9-4.6-5.4-10-5.4c-0.6,0-1-0.4-1-1v-10c0-0.6,0.4-1,1-1c16.1,0,29.3,7.8,29.3,17.3
		c0,4.7-3.1,9.1-8.8,12.4C118.1,95.5,117.9,95.6,117.7,95.6z M107.4,87.4l10.3,6c4.7-2.9,7.3-6.5,7.3-10.4c0-8.3-11.7-15-26.3-15.3
		v8c6.3,0.3,11,3.4,11,7.3C109.7,84.8,108.8,86.4,107.4,87.4z"/>
	<polygon class="st0" points="117.7,94.6 117.7,108.1 105.5,101.1 105.5,87.5 	"/>
	<path class="st5" d="M117.7,109.1c-0.2,0-0.3,0-0.5-0.1l-12.2-7c-0.3-0.2-0.5-0.5-0.5-0.9V87.5c0-0.6,0.4-1,1-1
		c0.2,0,0.3,0,0.5,0.1l12.2,7c0.3,0.2,0.5,0.5,0.5,0.9V108C118.7,108.7,118.3,109.1,117.7,109.1z M106.5,100.5l10.2,5.9V95.1
		l-10.2-5.9V100.5z"/>
	<path class="st5" d="M117.7,109.1c-0.2,0-0.3,0-0.5-0.1l-12.2-7c-0.3-0.2-0.5-0.5-0.5-0.9v-8.4c-2.1-1-4.4-1.5-6.8-1.5
		c-0.6,0-1-0.4-1-1V66.7c0-0.6,0.4-1,1-1c16.1,0,29.3,7.8,29.3,17.3v13.5c0,4.7-3.1,9.1-8.8,12.4
		C118.1,109.1,117.9,109.1,117.7,109.1z M106.5,100.5l11.2,6.5c4.7-2.9,7.3-6.5,7.3-10.4V83c0-8.3-11.7-15-26.3-15.3v21.5
		c2.6,0.1,5,0.8,7.3,2c0.3,0.2,0.5,0.5,0.5,0.9V100.5z"/>
	<path class="st6" d="M117.7,109.1c-0.2,0-0.3,0-0.5-0.1l-12.2-7c-0.3-0.2-0.5-0.5-0.5-0.9v-8.4c-2.1-1-4.4-1.5-6.8-1.5
		c-0.6,0-1-0.4-1-1V66.7c0-0.6,0.4-1,1-1c16.1,0,29.3,7.8,29.3,17.3v13.5c0,4.7-3.1,9.1-8.8,12.4
		C118.1,109.1,117.9,109.1,117.7,109.1z M106.5,100.5l11.2,6.5c4.7-2.9,7.3-6.5,7.3-10.4V83c0-8.3-11.7-15-26.3-15.3v21.5
		c2.6,0.1,5,0.8,7.3,2c0.3,0.2,0.5,0.5,0.5,0.9V100.5z"/>
	<rect x="1" y="1" class="st7" width="126" height="126"/>
	<rect class="st7" width="128" height="128"/>
</g>
</svg>
