<?xml version="1.0" encoding="utf-8"?>
<!-- Generator: Adobe Illustrator 24.1.0, SVG Export Plug-In . SVG Version: 6.00 Build 0)  -->
<svg version="1.1" id="Layer_1" xmlns="http://www.w3.org/2000/svg" xmlns:xlink="http://www.w3.org/1999/xlink" x="0px" y="0px"
	 viewBox="0 0 128 128" style="enable-background:new 0 0 128 128;" xml:space="preserve">
<style type="text/css">
	.st0{fill:none;}
	.st1{fill:#FFFFFF;}
	.st2{fill:#E9EBDF;}
	.st3{fill:#4D9987;}
	.st4{fill:#0E352C;}
	.st5{fill:#C4D7D3;}
	.st6{fill:#27ae60;}
	.st7{fill:#185849;}
</style>
<g>
	<rect x="1" y="1" class="st0" width="126" height="126"/>
	<path class="st1" d="M122.6,69.8c1.5,0.9,1.5,2.3,0,3.1L72,102.3c-1.7,0.9-3.7,0.9-5.4,0l-60.5-35c-0.9-0.5-1.5-1.5-1.5-2.6V51.8
		c0-1.3,0.7-2.4,1.8-3.1l37.1-21.5c1.7-0.9,3.7-0.9,5.4,0L122.6,69.8z"/>
	<path class="st2" d="M56.1,31.7l-7.3-4.5c-1.7-0.9-3.7-0.9-5.4,0l-37,21.6c-1.1,0.6-1.8,1.8-1.8,3.1v9.9"/>
	<path class="st3" d="M4.6,62.8c-0.6,0-1-0.4-1-1c0-0.4,0.2-0.7,0.5-0.9l51.5-30.1c0.5-0.3,1.1-0.1,1.4,0.4s0.1,1.1-0.4,1.4
		l-51.5,30C4.9,62.7,4.8,62.8,4.6,62.8z"/>
	<path class="st2" d="M46.9,78.1c-0.6,0-1-0.4-1-1c0-0.4,0.2-0.7,0.5-0.9l19.9-11.6c0.5-0.3,1.1-0.1,1.4,0.4s0.1,1.1-0.4,1.4
		L47.4,77.9C47.3,78,47.1,78.1,46.9,78.1z"/>
	<path class="st2" d="M35.1,71.1c-0.6,0-1-0.4-1-1c0-0.4,0.2-0.7,0.5-0.9L65.7,51c0.5-0.3,1.1-0.1,1.4,0.4s0.1,1.1-0.4,1.4L35.6,71
		C35.5,71.1,35.3,71.1,35.1,71.1z"/>
	<path class="st2" d="M41.3,74.4c-0.6,0-1-0.4-1-1c0-0.4,0.2-0.7,0.5-0.9L55,64.3c0.5-0.3,1.1-0.2,1.4,0.3s0.2,1.1-0.3,1.4H56
		l-14.2,8.3C41.7,74.4,41.5,74.4,41.3,74.4z"/>
	<path class="st4" d="M69.3,103.9c-1.1,0-2.2-0.2-3.2-0.8L5.6,68.2c-1.2-0.7-2-2-2-3.5V51.8c0-1.6,0.9-3.1,2.3-4L43,26.3
		c2-1,4.4-1,6.4,0l73.7,42.6l0,0c1.3,0.6,2,2.1,1.4,3.4c-0.3,0.6-0.8,1.1-1.4,1.4l-50.5,29.4C71.5,103.7,70.4,103.9,69.3,103.9z
		 M46.1,27.6c-0.8,0-1.5,0.2-2.2,0.5l-37,21.5c-0.8,0.5-1.3,1.3-1.3,2.2v12.9c0,0.7,0.4,1.4,1,1.7l60.5,34.9c1.4,0.7,3,0.7,4.4,0
		L122.1,72c0.4-0.2,0.6-0.5,0.6-0.7s-0.2-0.5-0.6-0.7L48.3,28.1C47.7,27.7,46.9,27.5,46.1,27.6z"/>
	<path class="st1" d="M4.6,51.9c0-0.7,0.5-1.2,1.2-1.2c0.2,0,0.4,0.1,0.6,0.2l8.8,5.1c2.1,1.2,2.1,3.2,0,4.4L6,65.7
		c-0.4,0.3-1,0.1-1.3-0.3c-0.1-0.1-0.1-0.3-0.1-0.5V51.9z"/>
	<path class="st4" d="M5.5,66.8c-1.1,0-1.9-0.9-1.9-1.9v-13c0-1.2,1-2.2,2.2-2.2c0.4,0,0.8,0.1,1.1,0.3l8.8,5.1
		c1.7,0.7,2.5,2.6,1.8,4.3c-0.3,0.8-1,1.5-1.8,1.8l-9.2,5.3C6.2,66.7,5.9,66.8,5.5,66.8z M5.8,51.7L5.8,51.7c-0.2,0-0.2,0.1-0.2,0.2
		v12.8l9.1-5.3c0.7-0.4,1.1-0.9,1.1-1.3s-0.4-0.9-1-1.3L6,51.7C5.9,51.7,5.8,51.7,5.8,51.7z"/>
	<polygon class="st5" points="110.7,79.9 103.3,84.2 103.3,91.8 110.7,96.1 	"/>
	<polygon class="st5" points="114.8,59.5 103.3,84.2 110.7,79.9 110.7,96.1 118.9,91.3 118.9,75.1 124.6,71.8 	"/>
	<polygon class="st1" points="114.8,59.5 107.4,55.2 95.9,79.9 103.3,84.2 	"/>
	<path class="st6" d="M110.7,97.1c-0.6,0-1-0.4-1-1V81.6l-5.9,3.4c-0.5,0.3-1.1,0.1-1.4-0.4c-0.2-0.3-0.2-0.6,0-0.9L113.9,59
		c0.2-0.5,0.8-0.7,1.3-0.5s0.7,0.8,0.5,1.3l-10.2,21.8l4.6-2.7c0.5-0.3,1.1-0.1,1.4,0.4c0.1,0.2,0.1,0.3,0.1,0.5v14.5l6.7-3.9
		c0.5-0.3,1.1-0.1,1.4,0.4s0.1,1.1-0.4,1.4l0,0l-8.2,4.8C111,97,110.9,97.1,110.7,97.1z"/>
	<path class="st7" d="M110.7,97.1c-0.2,0-0.3,0-0.5-0.1l-7.4-4.3c-0.3-0.2-0.5-0.5-0.5-0.9v-7l-6.9-4C95,80.5,94.8,80,95,79.5
		l11.5-24.7c0.2-0.5,0.8-0.7,1.3-0.5h0.1l7.4,4.3c0.1,0.1,0.2,0.1,0.3,0.2l9.8,12.3c0.3,0.4,0.3,1.1-0.2,1.4l-0.1,0.1l-5.2,3v15.6
		c0,0.4-0.2,0.7-0.5,0.9l-8.2,4.8C111,97,110.9,97.1,110.7,97.1z M104.3,91.2l6.4,3.7l7.2-4.2V75.1c0-0.4,0.2-0.7,0.5-0.9l4.7-2.7
		l-8.9-11.2l-6.3-3.7L97.2,79.5l6.6,3.9c0.3,0.2,0.5,0.5,0.5,0.9C104.3,84.3,104.3,91.2,104.3,91.2z"/>
	<rect class="st0" width="128" height="128"/>
</g>
</svg>
