<?xml version="1.0" encoding="utf-8"?>
<!-- Generator: Adobe Illustrator 24.1.0, SVG Export Plug-In . SVG Version: 6.00 Build 0)  -->
<svg version="1.1" id="Layer_1" xmlns="http://www.w3.org/2000/svg" xmlns:xlink="http://www.w3.org/1999/xlink" x="0px" y="0px"
	 viewBox="0 0 128 128" style="enable-background:new 0 0 128 128;" xml:space="preserve">
<style type="text/css">
	.st0{fill:none;}
	.st1{fill:#185849;}
	.st2{fill:#E9EBDF;}
	.st3{fill:#4D9987;}
	.st4{fill:#FFFFFF;}
	.st5{fill:#0E352C;}
	.st6{fill:#C4D7D3;}
	.st7{fill:#27ae60;}
</style>
<g>
	<rect x="1" y="1" class="st0" width="126" height="126"/>
	<path class="st1" d="M16,45.6c-0.3,0-0.5-0.1-0.7-0.3c-0.1-0.1-0.2-0.2-0.2-0.3S15,44.7,15,44.6c0-0.3,0.1-0.5,0.3-0.7
		c0.4-0.4,1-0.4,1.4,0c0.2,0.2,0.3,0.4,0.3,0.7s-0.1,0.5-0.3,0.7C16.5,45.5,16.2,45.6,16,45.6z"/>
	<path class="st1" d="M14.9,38.9c0-0.6,0.4-1,1-1l0,0c0.6,0,1,0.4,1,1l0,0c0,0.5-0.4,1-1,1l0,0l0,0C15.4,39.9,14.9,39.4,14.9,38.9z
		 M14.9,33.2c0-0.6,0.4-1,1-1l0,0c0.6,0,1,0.4,1,1l0,0c0,0.6-0.4,1-1,1l0,0C15.4,34.2,14.9,33.7,14.9,33.2L14.9,33.2z M14.9,27.5
		c0-0.6,0.4-1,1-1l0,0c0.5,0,1,0.4,1,1l0,0l0,0c0,0.6-0.4,1-1,1l0,0C15.4,28.5,14.9,28,14.9,27.5L14.9,27.5z"/>
	<path class="st1" d="M16,22.7c-0.3,0-0.5-0.1-0.7-0.3c-0.1-0.1-0.2-0.2-0.2-0.3c0-0.1-0.1-0.2-0.1-0.4c0-0.1,0-0.1,0-0.2
		s0-0.1,0.1-0.2s0.1-0.1,0.1-0.2s0.1-0.1,0.1-0.2c0.4-0.4,1-0.4,1.4,0c0,0,0.1,0.1,0.1,0.2c0,0,0.1,0.1,0.1,0.2s0,0.1,0.1,0.2
		c0,0.1,0,0.1,0,0.2s0,0.3-0.1,0.4c0,0.1-0.1,0.2-0.2,0.3C16.5,22.6,16.2,22.7,16,22.7z"/>
	<polygon class="st2" points="84.4,106.3 50.1,126 50.1,114.6 84.4,94.8 	"/>
	<path class="st3" d="M50.1,127c-0.6,0-1-0.4-1-1v-11.4c0-0.4,0.2-0.7,0.5-0.9L83.9,94c0.5-0.3,1.1-0.1,1.4,0.4
		c0.1,0.2,0.1,0.3,0.1,0.5v11.4c0,0.4-0.2,0.7-0.5,0.9l-34.3,19.7C50.5,127,50.3,127,50.1,127z M51.1,115.2v9.1l32.3-18.6v-9.1
		L51.1,115.2z"/>
	<polygon class="st2" points="15.9,106.2 50.1,126 50.1,114.6 15.9,94.7 	"/>
	<path class="st3" d="M50.1,127c-0.2,0-0.3,0-0.5-0.1L15.4,107c-0.3-0.2-0.5-0.5-0.5-0.9V94.7c0-0.6,0.4-1,1-1c0.2,0,0.3,0,0.5,0.1
		l34.3,19.8c0.3,0.2,0.5,0.5,0.5,0.9v11.4C51.1,126.6,50.7,127,50.1,127z M16.9,105.6l32.3,18.7v-9.1L16.9,96.5V105.6z"/>
	<polygon class="st4" points="84.4,94.8 50.2,75 15.9,94.7 50.1,114.6 	"/>
	<path class="st3" d="M50.1,115.6c-0.2,0-0.3,0-0.5-0.1L15.4,95.6c-0.5-0.3-0.6-0.9-0.4-1.4c0.1-0.2,0.2-0.3,0.4-0.4l34.3-19.7
		c0.3-0.2,0.7-0.2,1,0L84.9,94c0.5,0.3,0.6,0.9,0.4,1.4c-0.1,0.2-0.2,0.3-0.4,0.4l-34.3,19.7C50.5,115.5,50.3,115.6,50.1,115.6z
		 M17.9,94.7l32.3,18.7l32.3-18.6L50.2,76.1L17.9,94.7z"/>
	<path class="st3" d="M67.3,105.7c-0.2,0-0.3,0-0.5-0.1l-17.1-9.9c-0.5-0.3-0.6-0.9-0.4-1.4c0.1-0.2,0.2-0.3,0.4-0.4L66.8,84
		c0.3-0.2,0.7-0.2,1,0l17.1,10c0.5,0.3,0.6,0.9,0.4,1.4c-0.1,0.2-0.2,0.3-0.4,0.4l-17.2,9.9C67.6,105.7,67.5,105.7,67.3,105.7z
		 M52.2,94.8l15.1,8.8l15.2-8.7l-15.1-8.8L52.2,94.8z"/>
	<path class="st3" d="M50.1,115.6c-0.2,0-0.3,0-0.5-0.1L15.4,95.6c-0.5-0.3-0.6-0.9-0.4-1.4c0.1-0.2,0.2-0.3,0.4-0.4l34.3-19.7
		c0.3-0.2,0.7-0.2,1,0L84.9,94c0.5,0.3,0.6,0.9,0.4,1.4c-0.1,0.2-0.2,0.3-0.4,0.4l-34.3,19.7C50.5,115.5,50.3,115.6,50.1,115.6z
		 M17.9,94.7l32.3,18.7l32.3-18.6L50.2,76.1L17.9,94.7z"/>
	<path class="st3" d="M67.3,117.2c-0.6,0-1-0.4-1-1v-11.5c0-0.6,0.4-1,1-1s1,0.4,1,1v11.5C68.3,116.7,67.8,117.2,67.3,117.2
		L67.3,117.2z"/>
	<path class="st3" d="M67.3,98.7c-3.3,0-5.9-1.7-5.9-3.9s2.6-3.9,5.9-3.9s5.9,1.7,5.9,3.9S70.6,98.7,67.3,98.7z M67.3,93
		c-2.3,0-3.9,1-3.9,1.9s1.7,1.9,3.9,1.9s3.9-1,3.9-1.9S69.5,93,67.3,93z"/>
	<ellipse class="st2" cx="50.2" cy="80.1" rx="1.6" ry="1"/>
	<ellipse class="st2" cx="24.7" cy="94.7" rx="1.6" ry="1"/>
	<ellipse class="st2" cx="50.1" cy="109.5" rx="1.6" ry="1"/>
	<path class="st5" d="M50.1,127c-0.2,0-0.3,0-0.5-0.1L15.4,107c-0.3-0.2-0.5-0.5-0.5-0.9V94.7c0-0.4,0.2-0.7,0.5-0.9l34.3-19.7
		c0.3-0.2,0.7-0.2,1,0L67.8,84l0,0l17.1,10c0.3,0.2,0.5,0.5,0.5,0.9v11.4c0,0.4-0.2,0.7-0.5,0.9l-34.3,19.7
		C50.5,127,50.3,127,50.1,127z M16.9,105.6l33.3,19.3l33.3-19.2V95.4L50.2,76.1L16.9,95.3V105.6z"/>
	<polygon class="st2" points="84.4,94.8 50.1,114.6 50.1,103.1 84.4,83.4 	"/>
	<path class="st3" d="M50.1,115.6c-0.6,0-1-0.4-1-1v-11.4c0-0.4,0.2-0.7,0.5-0.9l34.3-19.7c0.5-0.3,1.1-0.1,1.4,0.4
		c0.1,0.2,0.1,0.3,0.1,0.5v11.4c0,0.4-0.2,0.7-0.5,0.9l-34.3,19.7C50.5,115.5,50.3,115.6,50.1,115.6z M51.1,103.7v9.1l32.3-18.6
		v-9.1L51.1,103.7z"/>
	<polygon class="st2" points="15.9,94.7 50.1,114.6 50.1,103.1 15.9,83.3 	"/>
	<path class="st3" d="M50.1,115.6c-0.2,0-0.3,0-0.5-0.1L15.4,95.6c-0.3-0.2-0.5-0.5-0.5-0.9V83.3c0-0.6,0.4-1,1-1
		c0.2,0,0.3,0,0.5,0.1l34.3,19.8c0.3,0.2,0.5,0.5,0.5,0.9v11.4C51.1,115.1,50.7,115.6,50.1,115.6L50.1,115.6z M16.9,94.2l32.3,18.7
		v-9.1L16.9,85V94.2z"/>
	<polygon class="st4" points="84.4,83.4 50.2,63.6 15.9,83.3 50.1,103.1 	"/>
	<path class="st3" d="M50.1,104.1c-0.2,0-0.3,0-0.5-0.1L15.4,84.2c-0.5-0.3-0.6-0.9-0.4-1.4c0.1-0.2,0.2-0.3,0.4-0.4l34.3-19.7
		c0.3-0.2,0.7-0.2,1,0L85,82.5c0.5,0.3,0.6,0.9,0.4,1.4c-0.1,0.2-0.2,0.3-0.4,0.4L50.6,104C50.5,104.1,50.3,104.1,50.1,104.1z
		 M17.9,83.3L50.1,102l32.3-18.6L50.2,64.7L17.9,83.3z"/>
	<path class="st3" d="M67.3,94.3c-0.2,0-0.3,0-0.5-0.1l-17.1-9.9c-0.5-0.3-0.6-0.9-0.4-1.4c0.1-0.2,0.2-0.3,0.4-0.4l17.2-9.9
		c0.3-0.2,0.7-0.2,1,0L85,82.5c0.5,0.3,0.6,0.9,0.4,1.4c-0.1,0.2-0.2,0.3-0.4,0.4l-17.2,9.9C67.6,94.2,67.5,94.3,67.3,94.3z
		 M52.2,83.4l15.1,8.8l15.2-8.7l-15.1-8.8L52.2,83.4z"/>
	<path class="st3" d="M50.1,104.1c-0.2,0-0.3,0-0.5-0.1L15.4,84.2c-0.5-0.3-0.6-0.9-0.4-1.4c0.1-0.2,0.2-0.3,0.4-0.4l34.3-19.7
		c0.3-0.2,0.7-0.2,1,0L85,82.5c0.5,0.3,0.6,0.9,0.4,1.4c-0.1,0.2-0.2,0.3-0.4,0.4L50.6,104C50.5,104.1,50.3,104.1,50.1,104.1z
		 M17.9,83.3L50.1,102l32.3-18.6L50.2,64.7L17.9,83.3z"/>
	<path class="st3" d="M67.3,105.7c-0.6,0-1-0.4-1-1V93.3c0-0.6,0.4-1,1-1s1,0.4,1,1v11.5C68.3,105.3,67.8,105.7,67.3,105.7z"/>
	<path class="st3" d="M67.3,87.3c-3.3,0-5.9-1.7-5.9-3.9s2.6-3.9,5.9-3.9s5.9,1.7,5.9,3.9S70.6,87.3,67.3,87.3z M67.3,81.5
		c-2.3,0-3.9,1-3.9,1.9s1.7,1.9,3.9,1.9s3.9-1,3.9-1.9S69.5,81.5,67.3,81.5z"/>
	<ellipse class="st3" cx="50.2" cy="68.6" rx="1.6" ry="1"/>
	<ellipse class="st3" cx="24.7" cy="83.3" rx="1.6" ry="1"/>
	<ellipse class="st3" cx="50.1" cy="98.1" rx="1.6" ry="1"/>
	<path class="st5" d="M50.1,115.6c-0.2,0-0.3,0-0.5-0.1L15.4,95.6c-0.3-0.2-0.5-0.5-0.5-0.9V83.3c0-0.4,0.2-0.7,0.5-0.9l34.3-19.7
		c0.3-0.2,0.7-0.2,1,0L85,82.5c0.3,0.2,0.5,0.5,0.5,0.9v11.4c0,0.4-0.2,0.7-0.5,0.9l-34.3,19.7C50.5,115.5,50.3,115.6,50.1,115.6z
		 M16.9,94.2l33.3,19.3l33.3-19.2V84L50.2,64.7L16.9,83.9V94.2z"/>
	<polygon class="st6" points="67.4,46.2 50.2,56.1 50.2,44.6 67.4,34.8 	"/>
	<path class="st7" d="M50.2,57.1c-0.6,0-1-0.4-1-1V44.7c0-0.4,0.2-0.7,0.5-0.9l17.2-9.9c0.5-0.3,1.1-0.1,1.4,0.4
		c0.1,0.2,0.1,0.3,0.1,0.5v11.4c0,0.4-0.2,0.7-0.5,0.9L50.7,57C50.6,57,50.4,57.1,50.2,57.1z M51.2,45.2v9.1l15.2-8.7v-9.1
		L51.2,45.2z"/>
	<polygon class="st4" points="15.9,56 50.2,75.9 50.2,64.4 16,44.6 	"/>
	<path class="st7" d="M50.2,76.9c-0.2,0-0.3,0-0.5-0.1L15.4,56.9c-0.3-0.2-0.5-0.5-0.5-0.9V44.6c0-0.6,0.4-1,1-1
		c0.2,0,0.3,0,0.5,0.1l34.3,19.8c0.3,0.2,0.5,0.5,0.5,0.9v11.4C51.2,76.4,50.7,76.9,50.2,76.9L50.2,76.9z M16.9,55.4l32.3,18.7V65
		L17,46.3L16.9,55.4z"/>
	<polygon class="st4" points="67.4,34.8 50.3,24.9 16,44.6 50.2,64.4 67.4,54.6 50.2,44.6 	"/>
	<path class="st7" d="M50.2,65.4c-0.2,0-0.3,0-0.5-0.1L15.5,45.5c-0.5-0.3-0.6-0.9-0.4-1.4c0.1-0.2,0.2-0.3,0.4-0.4L49.8,24
		c0.3-0.2,0.7-0.2,1,0l17.1,9.9c0.5,0.3,0.6,0.9,0.4,1.4c-0.1,0.2-0.2,0.3-0.4,0.4l-15.7,9l15.6,9.1c0.5,0.3,0.6,0.9,0.4,1.4
		c-0.1,0.2-0.2,0.3-0.4,0.4l-17.2,9.9C50.6,65.4,50.4,65.4,50.2,65.4z M18,44.6l32.3,18.7l15.2-8.7l-15.6-9.1
		c-0.5-0.3-0.6-0.9-0.4-1.4c0.1-0.2,0.2-0.3,0.4-0.4l15.7-9L50.3,26L18,44.6z"/>
	<ellipse class="st7" cx="50.2" cy="55.6" rx="1.6" ry="1"/>
	<polygon class="st6" points="67.3,66 50.2,75.9 50.2,64.4 67.4,54.6 	"/>
	<path class="st7" d="M50.2,76.9c-0.6,0-1-0.4-1-1V64.5c0-0.4,0.2-0.7,0.5-0.9l17.2-9.9c0.5-0.3,1.1-0.1,1.4,0.4
		c0.1,0.2,0.1,0.3,0.1,0.5V66c0,0.4-0.2,0.7-0.5,0.9l-17.2,9.9C50.5,76.8,50.4,76.9,50.2,76.9z M51.2,65v9.1l15.2-8.7v-9.1L51.2,65z
		"/>
	<ellipse class="st7" cx="50.2" cy="29.9" rx="1.6" ry="1"/>
	<ellipse class="st7" cx="24.7" cy="44.6" rx="1.6" ry="1"/>
	<path class="st1" d="M50.3,25.9c-0.1,0-0.3,0-0.4-0.1c-0.1-0.1-0.2-0.1-0.3-0.2s-0.2-0.2-0.2-0.3c-0.1-0.1-0.1-0.3-0.1-0.4
		s0-0.3,0.1-0.4c0.1-0.2,0.3-0.4,0.5-0.5s0.5-0.1,0.8,0c0.1,0,0.2,0.1,0.3,0.2s0.2,0.2,0.2,0.3c0,0.1,0.1,0.2,0.1,0.4
		c0,0.1,0,0.3-0.1,0.4c-0.1,0.2-0.3,0.4-0.5,0.5C50.5,25.8,50.4,25.9,50.3,25.9z"/>
	<path class="st1" d="M49.3,19.1c0-0.6,0.4-1,1-1l0,0c0.6,0,1,0.4,1,1l0,0c0,0.6-0.4,1-1,1l0,0C49.7,20.1,49.3,19.7,49.3,19.1z
		 M49.3,13.4c0-0.6,0.4-1,1-1l0,0c0.6,0,1,0.4,1,1l0,0c0,0.6-0.4,1-1,1l0,0C49.7,14.4,49.3,14,49.3,13.4z M49.3,7.7c0-0.6,0.4-1,1-1
		l0,0c0.6,0,1,0.4,1,1l0,0c0,0.6-0.4,1-1,1l0,0C49.7,8.7,49.3,8.3,49.3,7.7z"/>
	<path class="st1" d="M50.3,3c-0.3,0-0.5-0.1-0.7-0.3S49.3,2.3,49.3,2s0.1-0.5,0.3-0.7c0.1-0.1,0.2-0.2,0.3-0.2
		c0.2-0.1,0.5-0.1,0.8,0c0.1,0,0.2,0.1,0.3,0.2c0.4,0.4,0.4,1,0,1.4c-0.1,0.1-0.2,0.2-0.3,0.2C50.5,3,50.4,3,50.3,3z"/>
	<polygon class="st6" points="112.1,56.1 95,66 95,54.6 112.1,44.7 	"/>
	<path class="st7" d="M95,67c-0.6,0-1-0.4-1-1V54.6c0-0.4,0.2-0.7,0.5-0.9l17.2-9.9c0.5-0.3,1.1-0.1,1.4,0.4
		c0.1,0.2,0.1,0.3,0.1,0.5v11.4c0,0.4-0.2,0.7-0.5,0.9l-17.2,9.9C95.3,66.9,95.1,67,95,67z M96,55.1v9.1l15.2-8.7v-9.1L96,55.1z"/>
	<polygon class="st4" points="112.1,44.7 95,34.8 77.9,44.6 95,54.6 	"/>
	<path class="st7" d="M95,55.6c-0.2,0-0.3,0-0.5-0.1l-17.1-9.9c-0.5-0.3-0.6-0.9-0.4-1.4c0.1-0.2,0.2-0.3,0.4-0.4l17.2-9.9
		c0.3-0.2,0.7-0.2,1,0l17.1,9.9c0.5,0.3,0.6,0.9,0.4,1.4c-0.1,0.2-0.2,0.3-0.4,0.4l-17.2,9.9C95.3,55.5,95.2,55.6,95,55.6z
		 M79.9,44.6L95,53.4l15.2-8.7L95,35.9L79.9,44.6z"/>
	<polygon class="st4" points="77.8,56.1 95,66 95,54.6 77.8,44.7 	"/>
	<path class="st7" d="M95,67c-0.2,0-0.3,0-0.5-0.1L77.3,57c-0.3-0.2-0.5-0.5-0.5-0.9V44.7c0-0.6,0.4-1,1-1c0.2,0,0.4,0,0.5,0.1
		l17.2,9.9c0.3,0.2,0.5,0.5,0.5,0.9V66C96,66.5,95.6,67,95,67L95,67z M78.8,55.5L94,64.3v-9.1l-15.2-8.7V55.5z"/>
	<path class="st7" d="M95,48.5c-3.3,0-5.9-1.7-5.9-3.9s2.6-3.9,5.9-3.9s5.9,1.7,5.9,3.9S98.3,48.5,95,48.5z M95,42.8
		c-2.3,0-3.9,1-3.9,1.9s1.7,1.9,3.9,1.9s3.9-1,3.9-1.9S97.2,42.8,95,42.8z"/>
	<path class="st1" d="M95,67c-0.2,0-0.4,0-0.5-0.1c0,0-0.1,0-0.1-0.1l-17-9.8c-0.3-0.2-0.5-0.5-0.5-0.9V44.7c0-0.2,0-0.3,0.1-0.5
		s0.2-0.3,0.4-0.4l17.2-9.9c0.3-0.2,0.7-0.2,1,0l17.1,9.9c0.3,0.2,0.5,0.5,0.5,0.9v11.4c0,0.4-0.2,0.7-0.5,0.9l-17,9.8
		c0,0-0.1,0-0.1,0.1C95.3,66.9,95.2,67,95,67z M78.8,55.5L95,64.8l16.1-9.3V45.2L95,35.9l-16.2,9.3V55.5z"/>
	<path class="st1" d="M50.2,76.9c-0.2,0-0.3,0-0.5-0.1L15.4,56.9c-0.3-0.2-0.5-0.5-0.5-0.9V44.6c0-0.4,0.2-0.7,0.5-0.9L49.8,24
		c0.3-0.2,0.7-0.2,1,0l17.1,9.9c0.3,0.2,0.5,0.5,0.5,0.9v11.4c0,0.4-0.2,0.7-0.5,0.9l-5.7,3.3l5.7,3.3c0.3,0.2,0.5,0.5,0.5,0.9V66
		c0,0.4-0.2,0.7-0.5,0.9l-17.2,9.9C50.5,76.8,50.4,76.9,50.2,76.9z M16.9,55.4l33.3,19.3l16.2-9.3V55.1l-6.7-3.9
		c-0.5-0.3-0.6-0.9-0.4-1.4c0.1-0.2,0.2-0.3,0.4-0.4l6.7-3.9V35.2L50.3,26L17,45.2L16.9,55.4z"/>
	<rect class="st0" width="128" height="128"/>
</g>
</svg>
