<?xml version="1.0" encoding="utf-8"?>
<!-- Generator: Adobe Illustrator 24.1.0, SVG Export Plug-In . SVG Version: 6.00 Build 0)  -->
<svg version="1.1" id="Layer_1" xmlns="http://www.w3.org/2000/svg" xmlns:xlink="http://www.w3.org/1999/xlink" x="0px" y="0px"
	 viewBox="0 0 128 128" style="enable-background:new 0 0 128 128;" xml:space="preserve">
<style type="text/css">
	.st0{fill:none;}
	.st1{fill:#C4D7D3;}
	.st2{fill:#FFFFFF;}
	.st3{fill:#185849;}
	.st4{fill:#27ae60;}
	.st5{fill:#E9EBDF;}
	.st6{fill:#4D9987;}
	.st7{fill:#0E352C;}
</style>
<g>
	<g>
		<rect x="1" y="1" class="st0" width="126" height="126"/>
		<path class="st1" d="M15.7,68.2L29,69.1l-0.3,1.4c5.8-0.9,12.3,0,16.9,2.6L55.8,79c10.8-5.2,26.5-5.2,37.3-0.1l10.7,0.9V92l0,0
			c0,3.8-2.3,7.7-6.8,10.8l1.6,0.9h13.8v12.2l0,0c0,2.6-1.7,5.2-5.1,7.2c-6.8,4-17.9,4-24.8,0L20.8,87.5c-3.4-2-5.1-4.6-5.1-7.2l0,0
			L15.7,68.2z"/>
		<path class="st2" d="M20.8,61L20.8,61c-6.8,4-6.8,10.4,0,14.3l61.6,35.5c6.8,4,17.9,4,24.8,0s6.8-10.4,0-14.3L97,90.7
			c9.6-6.6,9-16.5-1.8-22.7s-27.9-6.6-39.4-1l-10.2-6C38.8,57.1,27.7,57.1,20.8,61z"/>
		<path class="st3" d="M94.8,127c-4.5,0.1-8.9-1-12.9-3.1L20.3,88.4c-3.6-2.1-5.6-4.9-5.6-8V68.2c0-3.1,2-5.9,5.6-8l0,0
			c7.1-4.1,18.7-4.1,25.8,0l9.8,5.6c11.9-5.5,29-5,39.8,1.3c5.8,3.4,9,7.9,9.1,12.7v0.1V92v0.1c0,0.6-0.1,1.2-0.2,1.8l3.1,1.8
			c3.6,2.1,5.6,4.9,5.6,8v12.2c0,3.1-2,5.9-5.6,8C103.7,126,99.3,127.1,94.8,127z M33.2,59.1C29.1,59,25,60,21.3,61.9l0,0
			c-3,1.7-4.6,4-4.6,6.3v12.2c0,2.3,1.6,4.6,4.6,6.3l61.6,35.5c6.6,3.8,17.2,3.8,23.8,0c3-1.7,4.6-4,4.6-6.3v-12.2
			c0-2.3-1.6-4.6-4.6-6.3l-3.7-2.1c-0.4-0.2-0.6-0.7-0.5-1.1c0.2-0.7,0.3-1.4,0.3-2.2v-0.1v-12v-0.1c0-4.1-2.9-8.1-8.1-11.1
			c-10.3-6-27.2-6.4-38.5-1c-0.3,0.1-0.6,0.1-0.9,0l-10.2-5.9C41.5,59.9,37.4,59,33.2,59.1z"/>
		<path class="st4" d="M94.8,114.8c-4.5,0.1-8.9-1-12.9-3.1L20.3,76.2c-0.5-0.3-0.6-0.9-0.4-1.4c0.3-0.5,0.9-0.6,1.4-0.4L82.9,110
			c6.6,3.8,17.2,3.8,23.8,0c0.5-0.3,1.1-0.1,1.4,0.4s0.1,1.1-0.4,1.4l0,0C103.7,113.9,99.3,114.9,94.8,114.8z M97,91.8
			c-0.6,0-1-0.4-1-1c0-0.3,0.2-0.6,0.4-0.8c1.4-1,2.7-2.1,3.9-3.5c0.3-0.4,1-0.5,1.4-0.1s0.5,1,0.1,1.4c-1.2,1.5-2.7,2.8-4.3,3.9
			C97.4,91.7,97.2,91.8,97,91.8z"/>
		<polygon class="st5" points="111.2,37.8 99.6,44.5 88,37.8 88,24.4 99.6,17.7 111.2,24.4 		"/>
		<path class="st6" d="M99.6,45.5c-0.2,0-0.3,0-0.5-0.1l-11.6-6.7c-0.3-0.2-0.5-0.5-0.5-0.9V24.4c0-0.4,0.2-0.7,0.5-0.9l11.6-6.7
			c0.3-0.2,0.7-0.2,1,0l11.6,6.7c0.3,0.2,0.5,0.5,0.5,0.9v13.4c0,0.4-0.2,0.7-0.5,0.9l-11.6,6.7C99.9,45.5,99.8,45.5,99.6,45.5z
			 M89,37.2l10.6,6.1l10.6-6.1V25l-10.6-6.1L89,25V37.2z"/>
		<polygon class="st2" points="111.2,24.4 99.6,31.1 88,24.4 88,24.4 99.6,17.7 		"/>
		<path class="st6" d="M99.6,32.1c-0.2,0-0.3,0-0.5-0.1l-11.6-6.7c-0.5-0.3-0.6-0.9-0.4-1.4c0.1-0.2,0.2-0.3,0.4-0.4l11.6-6.7
			c0.3-0.2,0.7-0.2,1,0l11.6,6.7c0.5,0.3,0.6,0.9,0.4,1.4c-0.1,0.2-0.2,0.3-0.4,0.4L100.1,32C99.9,32.1,99.8,32.1,99.6,32.1z
			 M90,24.4l9.6,5.6l9.6-5.6l-9.6-5.6L90,24.4z"/>
		<polygon class="st5" points="99.6,31.1 99.6,44.5 111.2,37.8 111.2,24.4 		"/>
		<path class="st6" d="M99.6,45.5c-0.6,0-1-0.4-1-1V31.1c0-0.4,0.2-0.7,0.5-0.9l11.6-6.7c0.5-0.3,1.1-0.1,1.4,0.4
			c0.1,0.2,0.1,0.3,0.1,0.5v13.4c0,0.4-0.2,0.7-0.5,0.9l-11.6,6.7C99.9,45.5,99.8,45.5,99.6,45.5z M100.6,31.7v11.1l9.6-5.6V26.1
			L100.6,31.7z"/>
		<path class="st7" d="M99.6,45.5c-0.2,0-0.3,0-0.5-0.1l-11.6-6.7c-0.3-0.2-0.5-0.5-0.5-0.9V24.4c0-0.4,0.2-0.7,0.5-0.9l11.6-6.7
			c0.3-0.2,0.7-0.2,1,0l11.6,6.7c0.3,0.2,0.5,0.5,0.5,0.9v13.4c0,0.4-0.2,0.7-0.5,0.9l-11.6,6.7C99.9,45.5,99.8,45.5,99.6,45.5z
			 M89,37.2l10.6,6.1l10.6-6.1V25l-10.6-6.1L89,25V37.2z"/>
		<polygon class="st5" points="84.1,22.1 72.4,28.8 60.8,22.1 60.8,8.7 72.4,2 84.1,8.7 		"/>
		<path class="st6" d="M72.4,29.8c-0.2,0-0.3,0-0.5-0.1L60.3,23c-0.3-0.2-0.5-0.5-0.5-0.9V8.7c0-0.4,0.2-0.7,0.5-0.9l11.6-6.7
			c0.3-0.2,0.7-0.2,1,0l11.6,6.7C84.8,8,85,8.3,85,8.7v13.4c0,0.4-0.2,0.7-0.5,0.9l-11.6,6.7C72.8,29.8,72.6,29.8,72.4,29.8z
			 M61.8,21.6l10.6,6.1L83,21.6V9.3L72.4,3.2L61.8,9.3V21.6z"/>
		<polygon class="st2" points="84.1,8.7 72.4,15.4 60.8,8.7 60.8,8.7 72.4,2 		"/>
		<path class="st6" d="M72.4,16.4c-0.2,0-0.3,0-0.5-0.1L60.3,9.6c-0.5-0.3-0.6-0.9-0.4-1.4C60,8,60.1,7.9,60.3,7.8l11.6-6.7
			c0.3-0.2,0.7-0.2,1,0l11.6,6.7c0.5,0.3,0.6,0.9,0.4,1.4c-0.1,0.2-0.2,0.3-0.4,0.4l-11.6,6.7C72.8,16.4,72.6,16.4,72.4,16.4z
			 M62.8,8.7l9.6,5.6L82,8.7l-9.6-5.6L62.8,8.7z"/>
		<polygon class="st5" points="72.4,15.4 72.4,28.8 84.1,22.1 84.1,8.7 		"/>
		<path class="st6" d="M72.4,29.8c-0.6,0-1-0.4-1-1V15.4c0-0.4,0.2-0.7,0.5-0.9l11.6-6.7c0.5-0.3,1.1-0.1,1.4,0.4
			C85,8.4,85,8.5,85,8.7v13.4c0,0.4-0.2,0.7-0.5,0.9l-11.6,6.7C72.8,29.8,72.6,29.8,72.4,29.8z M73.4,16v11.1l9.6-5.6V10.4L73.4,16z
			"/>
		<path class="st7" d="M72.4,29.8c-0.2,0-0.3,0-0.5-0.1L60.3,23c-0.3-0.2-0.5-0.5-0.5-0.9V8.7c0-0.4,0.2-0.7,0.5-0.9l11.6-6.7
			c0.3-0.2,0.7-0.2,1,0l11.6,6.7C84.8,8,85,8.3,85,8.7v13.4c0,0.4-0.2,0.7-0.5,0.9l-11.6,6.7C72.8,29.8,72.6,29.8,72.4,29.8z
			 M61.8,21.6l10.6,6.1L83,21.6V9.3L72.4,3.2L61.8,9.3V21.6z"/>
		<polygon class="st5" points="56.9,37.8 45.3,44.5 33.7,37.8 33.7,24.4 45.3,17.7 56.9,24.4 		"/>
		<path class="st6" d="M45.3,45.5c-0.2,0-0.3,0-0.5-0.1l-11.6-6.7c-0.3-0.2-0.5-0.5-0.5-0.9V24.4c0-0.4,0.2-0.7,0.5-0.9l11.6-6.7
			c0.3-0.2,0.7-0.2,1,0l11.6,6.7c0.3,0.2,0.5,0.5,0.5,0.9v13.4c0,0.4-0.2,0.7-0.5,0.9l-11.6,6.7C45.6,45.5,45.5,45.5,45.3,45.5z
			 M34.7,37.2l10.6,6.1l10.6-6.1V25l-10.6-6.1L34.7,25V37.2z"/>
		<polygon class="st2" points="56.9,24.4 45.3,31.1 33.7,24.4 33.7,24.4 45.3,17.7 		"/>
		<path class="st6" d="M45.3,32.1c-0.2,0-0.3,0-0.5-0.1l-11.6-6.7c-0.5-0.3-0.6-0.9-0.4-1.4c0.1-0.2,0.2-0.3,0.4-0.4l11.6-6.7
			c0.3-0.2,0.7-0.2,1,0l11.6,6.7c0.5,0.3,0.6,0.9,0.4,1.4c-0.1,0.2-0.2,0.3-0.4,0.4L45.8,32C45.6,32.1,45.5,32.1,45.3,32.1z
			 M35.7,24.4l9.6,5.6l9.6-5.6l-9.6-5.6L35.7,24.4z"/>
		<polygon class="st5" points="45.3,31.1 45.3,44.5 56.9,37.8 56.9,24.4 		"/>
		<path class="st6" d="M45.3,45.5c-0.6,0-1-0.4-1-1V31.1c0-0.4,0.2-0.7,0.5-0.9l11.6-6.7c0.5-0.3,1.1-0.1,1.4,0.4
			c0.1,0.2,0.1,0.3,0.1,0.5v13.4c0,0.4-0.2,0.7-0.5,0.9l-11.6,6.7C45.6,45.5,45.5,45.5,45.3,45.5z M46.3,31.7v11.1l9.6-5.6V26.1
			L46.3,31.7z"/>
		<path class="st7" d="M45.3,45.5c-0.2,0-0.3,0-0.5-0.1l-11.6-6.7c-0.3-0.2-0.5-0.5-0.5-0.9V24.4c0-0.4,0.2-0.7,0.5-0.9l11.6-6.7
			c0.3-0.2,0.7-0.2,1,0l11.6,6.7c0.3,0.2,0.5,0.5,0.5,0.9v13.4c0,0.4-0.2,0.7-0.5,0.9l-11.6,6.7C45.6,45.5,45.5,45.5,45.3,45.5z
			 M34.7,37.2l10.6,6.1l10.6-6.1V25l-10.6-6.1L34.7,25V37.2z"/>
		<path class="st6" d="M88,25.4c-0.2,0-0.3,0-0.5-0.1l-3.6-2.1c-0.5-0.3-0.6-0.9-0.4-1.4s0.9-0.6,1.4-0.4l0,0l3.6,2.1
			c0.5,0.3,0.6,0.9,0.4,1.4C88.7,25.2,88.3,25.4,88,25.4z"/>
		<path class="st6" d="M56.9,25.4c-0.6,0-1-0.4-1-1c0-0.4,0.2-0.7,0.5-0.9l3.9-2.2c0.5-0.3,1.1-0.1,1.4,0.4c0.3,0.5,0.1,1.1-0.4,1.4
			l0,0l-3.9,2.2C57.3,25.3,57.1,25.4,56.9,25.4z"/>
		<g>
			<path class="st6" d="M56.9,38.8c-0.3,0-0.5-0.1-0.7-0.3s-0.3-0.4-0.3-0.7s0.1-0.5,0.3-0.7c0.1-0.1,0.2-0.2,0.3-0.2
				c0.5-0.2,1.1,0,1.3,0.5c0.1,0.2,0.1,0.5,0,0.8c-0.1,0.1-0.1,0.2-0.2,0.3c-0.1,0.1-0.2,0.2-0.3,0.2C57.2,38.8,57.1,38.8,56.9,38.8
				z"/>
			<path class="st6" d="M50.7,35.4c-0.5-0.3-0.6-0.9-0.4-1.3l0,0l0,0c0.3-0.5,0.9-0.6,1.4-0.4l0,0c0.5,0.3,0.6,0.9,0.4,1.4l0,0l0,0
				c-0.2,0.3-0.5,0.5-0.9,0.5l0,0C51,35.5,50.9,35.5,50.7,35.4z"/>
			<path class="st6" d="M45.5,32.2c-0.1,0-0.3,0-0.4-0.1C45,32,44.9,32,44.8,31.9c-0.2-0.2-0.3-0.4-0.3-0.7c0-0.1,0-0.3,0.1-0.4
				c0-0.1,0.1-0.2,0.2-0.3c0,0,0.1-0.1,0.2-0.1c0.1,0,0.1-0.1,0.2-0.1c0.1,0,0.1,0,0.2,0c0.2,0,0.4,0,0.6,0c0.1,0.1,0.2,0.1,0.3,0.2
				c0.2,0.2,0.3,0.4,0.3,0.7c0,0.1,0,0.3-0.1,0.4c0,0.1-0.1,0.2-0.2,0.3C46,32.1,45.8,32.2,45.5,32.2z"/>
		</g>
		<g>
			<path class="st6" d="M88.2,38.9c-0.3,0-0.5-0.1-0.7-0.3c-0.1-0.1-0.2-0.2-0.2-0.3s-0.1-0.2-0.1-0.4c0-0.3,0.1-0.5,0.3-0.7
				c0.1-0.1,0.2-0.2,0.3-0.2c0.4-0.2,0.8-0.1,1.1,0.2c0.1,0.1,0.2,0.2,0.2,0.3c0.2,0.4,0.1,0.8-0.2,1.1c-0.1,0.1-0.2,0.2-0.3,0.2
				C88.4,38.9,88.3,38.9,88.2,38.9z"/>
			<path class="st6" d="M93,35.1c-0.3-0.5-0.1-1.1,0.4-1.4l0,0c0.5-0.3,1.1-0.1,1.4,0.4l0,0c0.3,0.5,0.1,1.1-0.4,1.4l0,0
				c-0.2,0.1-0.3,0.1-0.5,0.1l0,0C93.5,35.6,93.2,35.4,93,35.1z"/>
			<path class="st6" d="M99.6,32.3c-0.5,0-1-0.4-1-1c0-0.1,0-0.3,0.1-0.4c0.1-0.2,0.2-0.3,0.4-0.4c0.1,0,0.1-0.1,0.2-0.1
				s0.1,0,0.2-0.1c0.3-0.1,0.7,0,0.9,0.3c0.1,0.1,0.2,0.2,0.2,0.3c0.1,0.1,0.1,0.2,0.1,0.4c0,0.3-0.1,0.5-0.3,0.7
				c-0.1,0.1-0.2,0.2-0.3,0.2C99.8,32.3,99.7,32.3,99.6,32.3z"/>
		</g>
		<g>
			<path class="st6" d="M72.4,16.4c-0.1,0-0.3,0-0.4-0.1c-0.1,0-0.2-0.1-0.3-0.2c-0.3-0.3-0.4-0.7-0.2-1.1c0-0.1,0.1-0.2,0.2-0.3
				s0.2-0.2,0.3-0.2c0.5-0.2,1.1,0,1.3,0.5c0.2,0.5,0,1.1-0.5,1.3C72.7,16.4,72.6,16.4,72.4,16.4z"/>
			<path class="st6" d="M77.7,19.6c-0.5-0.3-0.6-0.9-0.4-1.4l0,0l0,0c0.3-0.5,0.9-0.6,1.4-0.4l0,0l0,0c0.5,0.3,0.6,0.9,0.4,1.4l0,0
				c-0.2,0.3-0.5,0.5-0.9,0.5l0,0C78,19.7,77.8,19.7,77.7,19.6z"/>
			<path class="st6" d="M83.9,23c-0.1,0-0.3,0-0.4-0.1c-0.1,0-0.2-0.1-0.3-0.2c-0.1-0.1-0.2-0.2-0.2-0.3c-0.1-0.4-0.1-0.8,0.2-1.1
				c0.1-0.1,0.2-0.2,0.3-0.2c0.2-0.1,0.4-0.1,0.6-0.1c0.1,0,0.1,0,0.2,0.1s0.1,0.1,0.2,0.1s0.1,0.1,0.2,0.1c0.1,0.1,0.2,0.2,0.2,0.3
				C85,21.7,85,21.9,85,22s0,0.3-0.1,0.4c0,0.1-0.1,0.2-0.2,0.3C84.4,22.9,84.1,23,83.9,23z"/>
		</g>
		<g>
			<path class="st6" d="M72.4,16.4c-0.1,0-0.3,0-0.4-0.1c-0.1,0-0.2-0.1-0.3-0.2c-0.3-0.3-0.4-0.7-0.2-1.1c0-0.1,0.1-0.2,0.2-0.3
				s0.2-0.2,0.3-0.2c0.5-0.2,1.1,0,1.3,0.5c0.2,0.5,0,1.1-0.5,1.3C72.7,16.4,72.6,16.4,72.4,16.4z"/>
			<path class="st6" d="M65.9,19.2c-0.3-0.5-0.1-1.1,0.4-1.4l0,0c0.5-0.3,1.1-0.1,1.4,0.4l0,0c0.3,0.5,0.1,1.1-0.4,1.4l0,0
				c-0.2,0.1-0.3,0.1-0.5,0.1l0,0C66.4,19.7,66,19.5,65.9,19.2z"/>
			<path class="st6" d="M61,23c-0.3,0-0.5-0.1-0.7-0.3c-0.1-0.1-0.2-0.2-0.2-0.3C60,22.3,60,22.2,60,22c0-0.1,0-0.3,0.1-0.4
				c0-0.1,0.1-0.2,0.2-0.3c0.4-0.4,1-0.4,1.4,0c0.1,0.1,0.2,0.2,0.2,0.3c0,0.1,0.1,0.3,0.1,0.4s0,0.3-0.1,0.4s-0.1,0.2-0.2,0.3
				C61.5,22.9,61.3,23,61,23z"/>
		</g>
		<polygon class="st5" points="84.1,53.5 72.4,60.2 60.8,53.5 60.8,40.1 72.4,33.3 84.1,40.1 		"/>
		<path class="st6" d="M72.4,61.2c-0.2,0-0.3,0-0.5-0.1l-11.6-6.7c-0.3-0.2-0.5-0.5-0.5-0.9V40.1c0-0.4,0.2-0.7,0.5-0.9l11.6-6.7
			c0.3-0.2,0.7-0.2,1,0l11.6,6.7c0.3,0.2,0.5,0.5,0.5,0.9v13.4c0,0.4-0.2,0.7-0.5,0.9l-11.6,6.7C72.8,61.1,72.6,61.2,72.4,61.2z
			 M61.8,52.9L72.4,59L83,52.9V40.6l-10.6-6.1l-10.6,6.1C61.8,40.6,61.8,52.9,61.8,52.9z"/>
		<polygon class="st2" points="84.1,40.1 72.4,46.8 60.8,40.1 60.8,40.1 72.4,33.3 		"/>
		<path class="st6" d="M72.4,47.8c-0.2,0-0.3,0-0.5-0.1L60.3,41c-0.5-0.3-0.6-0.9-0.4-1.4c0.1-0.2,0.2-0.3,0.4-0.4l11.6-6.7
			c0.3-0.2,0.7-0.2,1,0l11.6,6.7c0.5,0.3,0.6,0.9,0.4,1.4c-0.1,0.2-0.2,0.3-0.4,0.4l-11.6,6.7C72.8,47.7,72.6,47.8,72.4,47.8z
			 M62.8,40.1l9.6,5.6l9.6-5.6l-9.6-5.6L62.8,40.1z"/>
		<polygon class="st5" points="72.4,46.8 72.4,60.2 84.1,53.5 84.1,40.1 		"/>
		<path class="st6" d="M72.4,61.2c-0.2,0-0.3,0-0.5-0.1c-0.3-0.2-0.5-0.5-0.5-0.9V46.8c0-0.4,0.2-0.7,0.5-0.9l11.6-6.7
			c0.5-0.3,1.1-0.1,1.4,0.4c0.1,0.2,0.1,0.3,0.1,0.5v13.4c0,0.4-0.2,0.7-0.5,0.9l-11.6,6.7C72.8,61.1,72.6,61.2,72.4,61.2z
			 M73.4,47.3v11.1l9.6-5.6v-11L73.4,47.3z"/>
		<path class="st7" d="M72.4,61.2c-0.2,0-0.3,0-0.5-0.1l-11.6-6.7c-0.3-0.2-0.5-0.5-0.5-0.9V40.1c0-0.4,0.2-0.7,0.5-0.9l11.6-6.7
			c0.3-0.2,0.7-0.2,1,0l11.6,6.7c0.3,0.2,0.5,0.5,0.5,0.9v13.4c0,0.4-0.2,0.7-0.5,0.9l-11.6,6.7C72.8,61.1,72.6,61.2,72.4,61.2z
			 M61.8,52.9L72.4,59L83,52.9V40.6l-10.6-6.1l-10.6,6.1C61.8,40.6,61.8,52.9,61.8,52.9z"/>
		<path class="st6" d="M60.5,40.9c-0.2,0-0.3,0-0.5-0.1l-3.6-2.1c-0.5-0.3-0.6-0.9-0.4-1.4s0.9-0.6,1.4-0.4L61,39
			c0.5,0.3,0.6,0.9,0.4,1.4C61.2,40.7,60.8,40.9,60.5,40.9L60.5,40.9z"/>
		<path class="st6" d="M84.1,41.1c-0.6,0-1-0.4-1-1c0-0.4,0.2-0.7,0.5-0.9l3.9-2.2c0.5-0.3,1.1-0.1,1.4,0.4s0.1,1.1-0.4,1.4L84.6,41
			C84.4,41,84.2,41.1,84.1,41.1z"/>
		<path class="st7" d="M84.1,53.7c-0.3,0-0.5-0.1-0.7-0.3c-0.1-0.1-0.2-0.2-0.2-0.3c-0.1-0.1-0.1-0.2-0.1-0.4c0-0.1,0-0.3,0.1-0.4
			c0-0.1,0.1-0.2,0.2-0.3c0.4-0.4,1-0.4,1.4,0c0.1,0.1,0.2,0.2,0.2,0.3s0.1,0.3,0.1,0.4c0,0.3-0.1,0.5-0.3,0.7
			c-0.1,0.1-0.2,0.2-0.3,0.2C84.3,53.7,84.2,53.7,84.1,53.7z"/>
		<path class="st7" d="M83.1,69.1c0-0.6,0.4-1,1-1l0,0c0.6,0,1,0.4,1,1l0,0c0,0.6-0.4,1-1,1l0,0C83.5,70.1,83.1,69.7,83.1,69.1z
			 M83.1,63.6c0-0.6,0.4-1,1-1l0,0c0.6,0,1,0.4,1,1l0,0c0,0.6-0.4,1-1,1l0,0C83.5,64.6,83.1,64.2,83.1,63.6z M83.1,58.2
			c0-0.6,0.4-1,1-1l0,0c0.6,0,1,0.4,1,1l0,0l0,0c0,0.5-0.4,1-1,1l0,0l0,0C83.5,59.2,83.1,58.7,83.1,58.2z"/>
		<path class="st7" d="M84.1,75.6c-0.1,0-0.3,0-0.4-0.1c-0.1,0-0.2-0.1-0.3-0.2c-0.2-0.2-0.3-0.4-0.3-0.7c0-0.1,0-0.3,0.1-0.4
			c0-0.1,0.1-0.2,0.2-0.3c0.4-0.4,1-0.4,1.4,0c0.1,0.1,0.2,0.2,0.2,0.3c0.1,0.1,0.1,0.3,0.1,0.4s0,0.3-0.1,0.4
			c0,0.1-0.1,0.2-0.2,0.3C84.6,75.5,84.3,75.6,84.1,75.6L84.1,75.6z"/>
		<path class="st7" d="M60.8,53.7c-0.3,0-0.5-0.1-0.7-0.3c-0.1-0.1-0.2-0.2-0.2-0.3c-0.1-0.1-0.1-0.2-0.1-0.4c0-0.1,0-0.3,0.1-0.4
			c0.2-0.5,0.8-0.7,1.3-0.5c0.1,0.1,0.2,0.1,0.3,0.2c0.1,0.1,0.2,0.2,0.2,0.3s0.1,0.3,0.1,0.4c0,0.1,0,0.3-0.1,0.4
			c-0.1,0.2-0.3,0.4-0.5,0.5C61.1,53.7,61,53.7,60.8,53.7z"/>
		<path class="st7" d="M60.6,70.1c-0.6,0-1-0.5-1-1l0,0l0,0c0-0.6,0.5-1,1-1l0,0l0,0c0.5,0,1,0.5,1,1l0,0l0,0
			C61.6,69.7,61.1,70.1,60.6,70.1L60.6,70.1z M60.6,64.6c-0.6,0-1-0.5-1-1l0,0l0,0c0-0.6,0.5-1,1-1l0,0c0.6,0,1,0.5,1,1l0,0
			C61.6,64.2,61.2,64.6,60.6,64.6L60.6,64.6z M60.7,59.2c-0.6,0-1-0.5-1-1l0,0l0,0c0-0.6,0.5-1,1-1l0,0c0.6,0,1,0.5,1,1l0,0
			C61.7,58.7,61.3,59.2,60.7,59.2L60.7,59.2L60.7,59.2z"/>
		<path class="st7" d="M60.5,75.6c-0.1,0-0.3,0-0.4-0.1c-0.1,0-0.2-0.1-0.3-0.2c-0.2-0.2-0.3-0.4-0.3-0.7c0-0.1,0-0.3,0.1-0.4
			s0.1-0.2,0.2-0.3c0.2-0.2,0.6-0.3,0.9-0.3c0.1,0,0.1,0,0.2,0c0.1,0,0.1,0.1,0.2,0.1c0.1,0,0.1,0.1,0.2,0.1
			c0.1,0.1,0.2,0.2,0.2,0.3c0.1,0.1,0.1,0.3,0.1,0.4s0,0.3-0.1,0.4c0,0.1-0.1,0.2-0.2,0.3C61,75.5,60.8,75.6,60.5,75.6z"/>
		<path class="st6" d="M72.4,90c-0.2,0-0.3,0-0.5-0.1L58.4,82c-0.5-0.3-0.6-0.9-0.4-1.4c0.1-0.2,0.2-0.3,0.4-0.4L72,72.4
			c0.3-0.2,0.7-0.2,1,0l13.6,7.8c0.5,0.3,0.6,0.9,0.4,1.4c-0.1,0.2-0.2,0.3-0.4,0.4L73,89.8C72.8,90,72.6,90,72.4,90z M60.9,81.2
			l11.6,6.7L84,81.2l-11.6-6.7L60.9,81.2z"/>
		<polyline class="st1" points="72.4,73.3 58.9,81.2 65.5,85 72.4,81 		"/>
		<polyline class="st2" points="72.4,81 79.4,85 86,81.2 72.4,73.3 		"/>
		<path class="st4" d="M79.4,86c-0.2,0-0.3,0-0.5-0.1l-7-4c-0.3-0.2-0.5-0.5-0.5-0.9v-7.6c0-0.6,0.4-1,1-1c0.2,0,0.3,0,0.5,0.1
			l13.6,7.8c0.5,0.3,0.6,0.9,0.4,1.4c-0.1,0.2-0.2,0.3-0.4,0.4l-6.6,3.8C79.8,85.9,79.6,86,79.4,86z M73.4,80.4l6,3.4l4.6-2.7
			L73.4,75V80.4z"/>
		<path class="st4" d="M79.4,86c-0.2,0-0.3,0-0.5-0.1l-7-4c-0.3-0.2-0.5-0.5-0.5-0.9v-7.6c0-0.6,0.4-1,1-1c0.2,0,0.3,0,0.5,0.1
			l13.6,7.8c0.5,0.3,0.6,0.9,0.4,1.4c-0.1,0.2-0.2,0.3-0.4,0.4l-6.6,3.8C79.8,85.9,79.6,86,79.4,86z M73.4,80.4l6,3.4l4.6-2.7
			L73.4,75V80.4z"/>
		<polygon class="st2" points="72.4,89 79.5,85 72.4,81 65.5,85 		"/>
		<path class="st4" d="M79.4,86c-0.2,0-0.3,0-0.5-0.1l-6.5-3.7L66,85.8c-0.3,0.2-0.7,0.2-1,0L58.4,82c-0.5-0.3-0.6-0.9-0.4-1.4
			c0.1-0.2,0.2-0.3,0.4-0.4L72,72.4c0.3-0.2,0.7-0.2,1,0l13.6,7.8c0.5,0.3,0.6,0.9,0.4,1.4c-0.1,0.2-0.2,0.3-0.4,0.4L80,85.8
			C79.8,85.9,79.6,86,79.4,86z M72.4,80c0.2,0,0.3,0,0.5,0.1l6.5,3.7l4.6-2.7l-11.6-6.7l-11.6,6.7l4.6,2.7l6.5-3.7
			C72.1,80,72.3,80,72.4,80z"/>
		<path class="st3" d="M72.4,90c-0.2,0-0.3,0-0.5-0.1L58.4,82c-0.5-0.3-0.6-0.9-0.4-1.4c0.1-0.2,0.2-0.3,0.4-0.4L72,72.4
			c0.3-0.2,0.7-0.2,1,0l13.6,7.8c0.5,0.3,0.6,0.9,0.4,1.4c-0.1,0.2-0.2,0.3-0.4,0.4L73,89.8C72.8,90,72.6,90,72.4,90z M60.9,81.2
			l11.6,6.7L84,81.2l-11.6-6.7L60.9,81.2z"/>
	</g>
	<rect class="st0" width="128" height="128"/>
</g>
</svg>
