<?xml version="1.0" encoding="utf-8"?>
<!-- Generator: Adobe Illustrator 24.1.2, SVG Export Plug-In . SVG Version: 6.00 Build 0)  -->
<svg version="1.1" id="Layer_1" xmlns="http://www.w3.org/2000/svg" xmlns:xlink="http://www.w3.org/1999/xlink" x="0px" y="0px"
	 width="440px" height="300px" viewBox="0 0 440 300" style="enable-background:new 0 0 440 300;" xml:space="preserve">
<style type="text/css">
	.st0{fill:#FFFFFF;}
	.st1{fill:#E9EBDF;}
	.st2{fill:#4D9987;}
	.st3{fill:#0E352C;}
	.st4{fill:none;}
</style>
<g>
	<path class="st0" d="M239.4,54c-5.9,0-10.6,4.7-10.7,10.6c0,1,0.1,2,0.4,3l0,0c0,0,3.3,19,0.6,31.8s-21.1,35.9-4.7,77.4
		c1.2,4,7.2,7,14.4,7s13.2-3,14.4-7c16.4-41.5-2-64.6-4.7-77.4s0.6-31.8,0.6-31.8l0,0c1.6-5.6-1.6-11.5-7.2-13.2
		C241.4,54.2,240.4,54,239.4,54z"/>
	<path class="st1" d="M249.1,99.4c-2.7-12.8,0.6-31.8,0.6-31.8l0,0c0.3-1,0.4-2,0.4-3c0-4.4-4.1-8.5-3.1-7.5
		c-5.7,1.4-9.2,7.1-7.8,12.8c0,0.2,0.1,0.3,0.1,0.5l0,0c0,0,3.3,19,0.6,31.8s-21.1,35.9-4.7,77.4c0.6,1.8,1.9,3.2,3.5,4.2
		c0.3,0,0.5,0,0.8,0c7.2,0,13.2-3,14.4-7C270.2,135.2,251.8,112.2,249.1,99.4z"/>
	<path class="st1" d="M248.8,98.1c-0.3-2-0.6-4.1-0.7-6.1c-1.4,1.4-4.5,2.8-8.7,2.8s-7.3-1.4-8.7-2.8c-0.1,2-0.3,4.1-0.7,6.1
		C236,100.9,242.9,100.9,248.8,98.1z"/>
	<path class="st1" d="M240.2,100.2c3-0.1,5.9-0.8,8.6-2.1l0,0c-0.2-1-0.3-1.9-0.4-2.9c0-0.1,0-0.1,0-0.2c-0.1-1-0.2-2-0.3-3
		c-1.2,1.3-3.8,2.5-7.4,2.7C240.7,96.6,240.5,98.4,240.2,100.2z"/>
	<path class="st2" d="M239.4,101.2c-3.4,0.1-6.8-0.7-9.9-2.2l-0.6-0.3L229,98c0.3-2,0.6-4,0.7-6l0.1-2.3l1.6,1.6
		c1.1,1.1,3.9,2.5,8,2.5s6.9-1.3,8-2.5l1.6-1.6l0.1,2.3c0.1,2,0.3,4,0.7,6l0.1,0.7l-0.6,0.3C246.2,100.5,242.8,101.3,239.4,101.2z
		 M231.1,97.5c5.3,2.3,11.3,2.3,16.6,0c-0.2-1.1-0.3-2.4-0.4-3.6c-4.9,2.5-10.8,2.5-15.7,0C231.4,95.2,231.3,96.4,231.1,97.5
		L231.1,97.5z"/>
	<path class="st3" d="M239.4,184.8c-7.5,0-14-3.2-15.4-7.7c-13-33-4.4-54.3,1.4-68.4c1.4-3.1,2.5-6.3,3.3-9.5
		c2.7-12.4-0.5-31.2-0.6-31.4l0,0c-1.7-6.2,1.9-12.6,8.1-14.4c6.2-1.7,12.6,1.9,14.4,8.1c0.6,2.1,0.6,4.2,0,6.3l0,0
		c0,0.2-3.2,18.9-0.6,31.4c0.9,3.3,2,6.4,3.3,9.5c5.7,14.1,14.4,35.4,1.3,68.5C253.4,181.5,247,184.8,239.4,184.8z M230.2,67.6
		c0.3,1.7,3.2,19.6,0.5,32c-0.9,3.4-2,6.7-3.4,9.8c-5.6,13.8-14.1,34.7-1.3,67c1.1,3.7,6.9,6.4,13.5,6.4s12.4-2.7,13.4-6.3
		c12.8-32.4,4.3-53.2-1.3-67c-1.4-3.2-2.6-6.5-3.4-9.8c-2.7-12.4,0.2-30.3,0.5-32c0-0.1,0-0.1,0-0.2c1.5-5.1-1.4-10.5-6.6-12
		c-5.1-1.5-10.5,1.4-12,6.6c-0.5,1.8-0.5,3.6,0,5.4C230.2,67.4,230.2,67.5,230.2,67.6z"/>
	<path class="st0" d="M202.8,75.2c-5.9,0-10.6,4.7-10.7,10.6c0,1,0.1,2,0.4,3l0,0c0,0,3.3,19,0.6,31.8s-21.1,35.9-4.7,77.4
		c1.2,4,7.2,7,14.4,7s13.2-3,14.4-7c16.4-41.5-2-64.6-4.7-77.4s0.6-31.8,0.6-31.8l0,0c1.6-5.6-1.6-11.5-7.2-13.2
		C204.8,75.3,203.8,75.2,202.8,75.2L202.8,75.2z"/>
	<path class="st1" d="M212.4,120.6c-2.7-12.8,0.6-31.8,0.6-31.8l0,0c0.3-1,0.4-2,0.4-3c0-4.4-4.1-8.5-3.1-7.5
		c-5.7,1.4-9.2,7.1-7.8,12.8c0,0.2,0.1,0.3,0.1,0.5l0,0c0,0,3.3,19,0.6,31.8s-21.1,35.9-4.7,77.4c0.6,1.8,1.9,3.2,3.5,4.2
		c0.3,0,0.5,0,0.8,0c7.2,0,13.2-3,14.4-7C233.5,156.4,215.2,133.3,212.4,120.6z"/>
	<path class="st1" d="M212.2,119.2c-0.3-2-0.6-4.1-0.7-6.1c-1.4,1.4-4.5,2.8-8.7,2.8s-7.3-1.4-8.7-2.8c-0.1,2-0.3,4.1-0.7,6.1
		C199.3,122.1,206.2,122.1,212.2,119.2z"/>
	<path class="st1" d="M203.6,121.3c3-0.1,5.9-0.8,8.6-2.1l0,0c-0.2-0.9-0.3-1.9-0.4-2.9c0-0.1,0-0.1,0-0.2c-0.1-1-0.2-2-0.3-3
		c-1.2,1.3-3.8,2.5-7.4,2.7C204,117.7,203.8,119.6,203.6,121.3z"/>
	<path class="st2" d="M202.8,122.4c-3.4,0.1-6.8-0.7-9.9-2.2l-0.6-0.3l0.1-0.7c0.3-2,0.6-4,0.7-6l0.1-2.3l1.6,1.6
		c1.1,1.1,3.9,2.5,8,2.5s6.9-1.3,8-2.5l1.6-1.6l0.1,2.3c0.1,2,0.3,4,0.7,6l0.1,0.7l-0.6,0.3C209.6,121.6,206.2,122.4,202.8,122.4z
		 M194.5,118.7c5.3,2.3,11.3,2.3,16.6,0c-0.2-1.1-0.3-2.4-0.4-3.6c-4.9,2.5-10.8,2.5-15.7,0C194.8,116.3,194.6,117.5,194.5,118.7
		L194.5,118.7z"/>
	<path class="st3" d="M202.8,205.9c-7.5,0-14-3.2-15.4-7.7c-13-33-4.4-54.3,1.4-68.4c1.4-3.1,2.5-6.3,3.3-9.5
		c2.7-12.4-0.5-31.2-0.6-31.4l0,0c-1.7-6.2,1.9-12.6,8.1-14.4c6.2-1.7,12.6,1.9,14.4,8.1c0.6,2.1,0.6,4.2,0,6.3l0,0
		c0,0.2-3.2,18.9-0.6,31.4c0.9,3.3,2,6.4,3.3,9.5c5.7,14.1,14.4,35.4,1.3,68.5C216.8,202.7,210.3,205.9,202.8,205.9z M193.5,88.7
		c0.3,1.7,3.2,19.6,0.5,32c-0.9,3.4-2,6.7-3.4,9.8c-5.6,13.8-14.1,34.7-1.3,67c1.1,3.7,6.9,6.4,13.5,6.4s12.4-2.7,13.4-6.3
		c12.8-32.4,4.3-53.2-1.3-67c-1.4-3.2-2.6-6.5-3.4-9.8c-2.7-12.4,0.2-30.3,0.5-32c0-0.1,0-0.1,0-0.2c1.5-5.1-1.4-10.5-6.6-12
		c-5.1-1.5-10.5,1.4-12,6.6c-0.5,1.8-0.5,3.6,0,5.4C193.5,88.6,193.5,88.7,193.5,88.7z"/>
	<path class="st0" d="M166.1,96.3c-5.9,0-10.6,4.7-10.7,10.6c0,1,0.1,2,0.4,3l0,0c0,0,3.3,19,0.6,31.8s-21.1,35.9-4.7,77.4
		c1.2,4,7.2,7,14.4,7s13.2-3,14.4-7c16.4-41.5-2-64.6-4.7-77.4c-2.7-12.8,0.6-31.8,0.6-31.8l0,0c1.6-5.6-1.6-11.5-7.2-13.2
		C168.1,96.5,167.1,96.3,166.1,96.3L166.1,96.3z"/>
	<path class="st1" d="M175.8,141.7c-2.7-12.8,0.6-31.8,0.6-31.8l0,0c0.3-1,0.4-2,0.4-3c0-4.4-4.1-8.5-3.1-7.5
		c-5.7,1.4-9.2,7.1-7.8,12.8c0,0.2,0.1,0.3,0.1,0.5l0,0c0,0,3.3,19,0.6,31.8s-21.1,35.9-4.7,77.4c0.6,1.8,1.9,3.2,3.5,4.2
		c0.3,0,0.5,0,0.8,0c7.2,0,13.2-3,14.4-7C196.9,177.6,178.5,154.5,175.8,141.7z"/>
	<path class="st1" d="M175.5,140.4c-0.3-2-0.6-4.1-0.7-6.1c-1.4,1.4-4.5,2.8-8.7,2.8s-7.3-1.4-8.7-2.8c-0.1,2-0.3,4.1-0.7,6.1
		C162.7,143.2,169.6,143.2,175.5,140.4L175.5,140.4z"/>
	<path class="st2" d="M166.9,142.5c3-0.1,5.9-0.8,8.6-2.1l0,0c-0.2-1-0.3-1.9-0.4-2.9c0-0.1,0-0.1,0-0.2c-0.1-1-0.2-2-0.3-3
		c-1.2,1.3-3.8,2.5-7.4,2.7C167.4,138.9,167.2,140.7,166.9,142.5z"/>
	<path class="st2" d="M166.1,143.5c-3.4,0.1-6.8-0.7-9.9-2.2l-0.6-0.3l0.1-0.7c0.3-2,0.6-4,0.7-6l0.1-2.3l1.6,1.6
		c1.1,1.1,3.9,2.5,8,2.5s6.9-1.3,8-2.5l1.6-1.6l0.1,2.3c0.1,2,0.3,4,0.7,6l0.1,0.7l-0.6,0.3C172.9,142.8,169.5,143.6,166.1,143.5z
		 M157.8,139.8c5.3,2.3,11.3,2.3,16.6,0c-0.2-1.1-0.3-2.4-0.4-3.6c-4.9,2.5-10.8,2.5-15.7,0C158.1,137.5,158,138.7,157.8,139.8
		L157.8,139.8z"/>
	<path class="st3" d="M166.1,227.1c-7.5,0-14-3.2-15.4-7.7c-13-33-4.4-54.3,1.4-68.4c1.4-3.1,2.5-6.3,3.3-9.5
		c2.7-12.4-0.5-31.2-0.6-31.4l0,0c-1.7-6.2,1.9-12.6,8.1-14.4c6.2-1.7,12.6,1.9,14.4,8.1c0.6,2.1,0.6,4.2,0,6.3l0,0
		c0,0.2-3.2,19-0.6,31.4c0.9,3.3,2,6.4,3.3,9.5c5.7,14.1,14.4,35.4,1.3,68.5C180.1,223.8,173.7,227.1,166.1,227.1z M156.9,109.9
		c0.3,1.7,3.2,19.6,0.5,32c-0.9,3.4-2,6.7-3.4,9.8c-5.6,13.8-14.1,34.7-1.3,67c1.1,3.7,6.9,6.4,13.5,6.4s12.4-2.7,13.4-6.3
		c12.8-32.4,4.3-53.2-1.3-67c-1.4-3.2-2.6-6.5-3.4-9.8c-2.7-12.4,0.2-30.3,0.5-32c0-0.1,0-0.1,0-0.2c1.5-5.1-1.4-10.5-6.6-12
		c-5.1-1.5-10.5,1.4-12,6.6c-0.5,1.8-0.5,3.6,0,5.4C156.9,109.7,156.9,109.8,156.9,109.9z"/>
	<path class="st0" d="M250.5,88.7c-5.9,0-10.6,4.7-10.7,10.6c0,1,0.1,2,0.4,3l0,0c0,0,3.3,19,0.6,31.8s-21.1,35.9-4.7,77.4
		c1.2,4,7.2,7,14.4,7c7.2,0,13.2-3,14.4-7c16.4-41.5-2-64.6-4.7-77.4s0.6-31.8,0.6-31.8l0,0c1.6-5.6-1.6-11.5-7.2-13.2
		C252.5,88.8,251.5,88.7,250.5,88.7L250.5,88.7z"/>
	<path class="st1" d="M260.2,134c-2.7-12.8,0.6-31.8,0.6-31.8l0,0c0.3-1,0.4-2,0.4-3c0-4.4-4.1-8.5-3.1-7.5
		c-5.7,1.4-9.2,7.1-7.8,12.8c0,0.2,0.1,0.3,0.1,0.5l0,0c0,0,3.3,19,0.6,31.8s-21.1,35.9-4.7,77.4c0.6,1.8,1.9,3.2,3.5,4.2
		c0.3,0,0.5,0,0.8,0c7.2,0,13.2-3,14.4-7C281.3,169.9,262.9,146.8,260.2,134z"/>
	<path class="st1" d="M259.9,132.7c-0.3-2-0.6-4.1-0.7-6.1c-1.4,1.4-4.5,2.8-8.7,2.8s-7.3-1.4-8.7-2.8c-0.1,2-0.3,4.1-0.7,6.1
		C247.1,135.6,254,135.6,259.9,132.7z"/>
	<path class="st2" d="M251.3,134.8c3-0.1,5.9-0.8,8.6-2.1l0,0c-0.2-1-0.3-1.9-0.4-2.9c0-0.1,0-0.1,0-0.2c-0.1-1-0.2-2-0.3-3
		c-1.2,1.3-3.8,2.5-7.4,2.7C251.8,131.2,251.6,133.1,251.3,134.8z"/>
	<path class="st2" d="M250.5,135.9c-3.4,0.1-6.8-0.7-9.9-2.2l-0.6-0.3l0.1-0.7c0.3-2,0.6-4,0.7-6l0.1-2.3l1.6,1.6
		c1.1,1.1,3.9,2.5,8,2.5s6.9-1.3,8-2.5l1.6-1.6l0.1,2.3c0.1,2,0.3,4,0.7,6l0.1,0.7l-0.6,0.3C257.3,135.1,253.9,135.9,250.5,135.9z
		 M242.2,132.2c5.3,2.3,11.3,2.3,16.6,0c-0.2-1.1-0.3-2.4-0.4-3.6c-4.9,2.5-10.8,2.5-15.7,0C242.5,129.8,242.4,131,242.2,132.2
		L242.2,132.2z"/>
	<path class="st3" d="M250.5,219.4c-7.5,0-14-3.2-15.4-7.7c-13-33-4.4-54.3,1.4-68.4c1.4-3.1,2.5-6.3,3.3-9.5
		c2.7-12.4-0.5-31.2-0.6-31.4l0,0c-1.7-6.2,1.9-12.6,8.1-14.4c6.2-1.7,12.6,1.9,14.4,8.1c0.6,2.1,0.6,4.2,0,6.3l0,0
		c0,0.2-3.2,18.9-0.6,31.4c0.9,3.3,2,6.4,3.3,9.5c5.7,14.1,14.4,35.4,1.3,68.5C264.5,216.2,258.1,219.4,250.5,219.4z M241.3,102.2
		c0.3,1.8,3.2,19.6,0.5,32c-0.9,3.4-2,6.7-3.4,9.8c-5.6,13.8-14.1,34.7-1.3,67c1.1,3.7,6.9,6.4,13.5,6.4s12.4-2.7,13.4-6.3
		c12.8-32.4,4.3-53.2-1.3-67c-1.4-3.2-2.6-6.5-3.4-9.8c-2.7-12.5,0.2-30.3,0.5-32c0-0.1,0-0.1,0-0.2c1.5-5.1-1.4-10.5-6.6-12
		c-5.1-1.5-10.5,1.4-12,6.6c-0.5,1.8-0.5,3.6,0,5.4C241.3,102.1,241.3,102.1,241.3,102.2z"/>
	<path class="st0" d="M213.9,109.8c-5.9,0-10.6,4.7-10.7,10.6c0,1,0.1,2,0.4,3l0,0c0,0,3.3,19,0.6,31.8s-21.1,35.9-4.7,77.4
		c1.2,4,7.2,7,14.4,7s13.2-3,14.4-7c16.4-41.5-2-64.6-4.7-77.4c-2.7-12.8,0.6-31.8,0.6-31.8l0,0c1.6-5.6-1.6-11.5-7.2-13.2
		C215.9,110,214.9,109.8,213.9,109.8L213.9,109.8z"/>
	<path class="st1" d="M223.5,155.2c-2.7-12.8,0.6-31.8,0.6-31.8l0,0c0.3-1,0.4-2,0.4-3c0-4.4-4.1-8.5-3.1-7.5
		c-5.7,1.4-9.2,7.1-7.8,12.8c0,0.2,0.1,0.3,0.1,0.5l0,0c0,0,3.3,19,0.6,31.8s-21.1,35.9-4.7,77.4c0.6,1.8,1.9,3.2,3.5,4.2
		c0.3,0,0.5,0,0.8,0c7.2,0,13.2-3,14.4-7C244.6,191.1,226.3,168,223.5,155.2z"/>
	<path class="st1" d="M223.3,153.9c-0.3-2-0.6-4.1-0.7-6.1c-1.4,1.4-4.5,2.8-8.7,2.8s-7.3-1.4-8.7-2.8c-0.1,2-0.3,4.1-0.7,6.1
		C210.4,156.7,217.3,156.7,223.3,153.9z"/>
	<path class="st2" d="M214.7,156c3-0.1,5.9-0.8,8.6-2.1l0,0c-0.2-1-0.3-1.9-0.4-2.9c0-0.1,0-0.1,0-0.2c-0.1-1-0.2-2-0.3-3
		c-1.2,1.3-3.8,2.5-7.4,2.7C215.1,152.4,214.9,154.2,214.7,156z"/>
	<path class="st2" d="M213.9,157c-3.4,0.1-6.8-0.7-9.9-2.2l-0.6-0.3l0.1-0.7c0.3-2,0.6-4,0.7-6l0.1-2.3l1.6,1.6
		c1.1,1.1,3.9,2.5,8,2.5s6.9-1.3,8-2.5l1.6-1.6l0.1,2.3c0.1,2,0.3,4,0.7,6l0.1,0.7l-0.6,0.3C220.7,156.3,217.3,157.1,213.9,157z
		 M205.6,153.3c5.3,2.3,11.3,2.3,16.6,0c-0.2-1.1-0.3-2.4-0.4-3.6c-4.9,2.5-10.8,2.5-15.7,0C205.9,151,205.7,152.2,205.6,153.3
		L205.6,153.3z"/>
	<path class="st3" d="M213.9,240.6c-7.5,0-14-3.2-15.4-7.7c-13-33-4.4-54.3,1.4-68.4c1.4-3.1,2.5-6.3,3.3-9.5
		c2.7-12.4-0.5-31.2-0.6-31.4l0,0c-1.7-6.2,1.9-12.6,8.1-14.4c6.2-1.7,12.6,1.9,14.4,8.1c0.6,2.1,0.6,4.2,0,6.3l0,0
		c0,0.2-3.2,19-0.6,31.4c0.9,3.3,2,6.4,3.3,9.5c5.7,14.1,14.4,35.4,1.3,68.5C227.9,237.3,221.4,240.6,213.9,240.6z M204.6,123.4
		c0.3,1.8,3.2,19.6,0.5,32c-0.9,3.4-2,6.7-3.4,9.8c-5.6,13.8-14.1,34.7-1.3,67c1.1,3.7,6.9,6.4,13.5,6.4s12.4-2.7,13.4-6.3
		c12.8-32.4,4.3-53.2-1.3-67c-1.4-3.2-2.6-6.5-3.4-9.8c-2.7-12.5,0.2-30.3,0.5-32c0-0.1,0-0.1,0-0.2c1.5-5.1-1.4-10.5-6.6-12
		c-5.1-1.5-10.5,1.4-12,6.6c-0.5,1.8-0.5,3.6,0,5.4C204.6,123.2,204.6,123.3,204.6,123.4z"/>
	<path class="st0" d="M273.9,116.2c-5.9,0-10.6,4.7-10.7,10.6c0,1,0.1,2,0.4,3l0,0c0,0,3.3,19,0.6,31.8
		c-2.7,12.8-21.1,35.9-4.7,77.4c1.2,4,7.2,7,14.4,7s13.2-3,14.4-7c16.4-41.5-2-64.6-4.7-77.4c-2.7-12.8,0.6-31.8,0.6-31.8l0,0
		c1.6-5.6-1.6-11.5-7.2-13.2C275.9,116.4,274.9,116.2,273.9,116.2L273.9,116.2z"/>
	<path class="st1" d="M283.6,161.6c-2.7-12.8,0.6-31.8,0.6-31.8l0,0c0.3-1,0.4-2,0.4-3c0-4.4-4.1-8.5-3.1-7.5
		c-5.7,1.4-9.2,7.1-7.8,12.8c0,0.2,0.1,0.3,0.1,0.5l0,0c0,0,3.3,19,0.6,31.8c-2.7,12.8-21.1,35.9-4.7,77.4c0.6,1.8,1.9,3.2,3.5,4.2
		c0.3,0,0.5,0,0.8,0c7.2,0,13.2-3,14.4-7C304.7,197.5,286.3,174.4,283.6,161.6z"/>
	<path class="st1" d="M283.3,160.3c-0.3-2-0.6-4.1-0.7-6.1c-1.4,1.4-4.5,2.8-8.7,2.8s-7.3-1.4-8.7-2.8c-0.1,2-0.3,4.1-0.7,6.1
		C270.4,163.1,277.3,163.1,283.3,160.3L283.3,160.3z"/>
	<path class="st2" d="M274.7,162.4c3-0.1,5.9-0.8,8.6-2.1l0,0c-0.2-0.9-0.3-1.9-0.4-2.9c0-0.1,0-0.1,0-0.2c-0.1-1-0.2-2-0.3-3
		c-1.2,1.3-3.8,2.5-7.4,2.7C275.2,158.8,275,160.6,274.7,162.4z"/>
	<path class="st2" d="M273.9,163.4c-3.4,0.1-6.8-0.7-9.9-2.2l-0.6-0.3l0.1-0.7c0.3-2,0.6-4,0.7-6l0.1-2.3l1.6,1.6
		c1.1,1.1,3.9,2.5,8,2.5s6.9-1.3,8-2.5l1.6-1.6l0.1,2.3c0.1,2,0.3,4,0.7,6l0.1,0.7l-0.6,0.3C280.7,162.7,277.3,163.5,273.9,163.4z
		 M265.6,159.7c5.3,2.3,11.3,2.3,16.6,0c-0.2-1.1-0.3-2.4-0.4-3.6c-4.9,2.5-10.8,2.5-15.7,0C265.9,157.4,265.8,158.6,265.6,159.7
		L265.6,159.7z"/>
	<path class="st3" d="M273.9,247c-7.5,0-14-3.2-15.4-7.7c-13-33-4.4-54.3,1.4-68.4c1.4-3.1,2.5-6.3,3.3-9.5
		c2.7-12.4-0.5-31.2-0.6-31.4l0,0c-1.7-6.2,1.9-12.6,8.1-14.4c6.2-1.7,12.6,1.9,14.4,8.1c0.6,2.1,0.6,4.2,0,6.3l0,0
		c0,0.2-3.2,18.9-0.6,31.4c0.9,3.3,2,6.4,3.3,9.5c5.7,14.1,14.4,35.4,1.3,68.5C287.9,243.7,281.4,247,273.9,247z M264.7,129.8
		c0.3,1.8,3.2,19.6,0.5,32c-0.9,3.4-2,6.7-3.4,9.8c-5.6,13.8-14.1,34.7-1.3,67c1.1,3.7,6.9,6.4,13.5,6.4s12.4-2.7,13.4-6.3
		c12.8-32.4,4.3-53.2-1.3-67c-1.4-3.2-2.6-6.5-3.4-9.8c-2.7-12.5,0.2-30.3,0.5-32c0-0.1,0-0.1,0-0.2c1.5-5.1-1.4-10.5-6.6-12
		c-5.1-1.5-10.5,1.4-12,6.6c-0.5,1.8-0.5,3.6,0,5.4C264.6,129.6,264.7,129.7,264.7,129.8z"/>
	<rect y="50" class="st4" width="440" height="200"/>
	<rect class="st4" width="440" height="300"/>
</g>
</svg>
