<?xml version="1.0" encoding="utf-8"?>
<!-- Generator: Adobe Illustrator 24.1.2, SVG Export Plug-In . SVG Version: 6.00 Build 0)  -->
<svg version="1.1" id="Layer_1" xmlns="http://www.w3.org/2000/svg" xmlns:xlink="http://www.w3.org/1999/xlink" x="0px" y="0px"
	 width="440px" height="300px" viewBox="0 0 440 300" style="enable-background:new 0 0 440 300;" xml:space="preserve">
<style type="text/css">
	.st0{fill:#4D9987;}
	.st1{fill:#E9EBDF;}
	.st2{fill:#FFFFFF;}
	.st3{fill:#0E352C;}
	.st4{fill:none;}
</style>
<g>
	<path class="st0" d="M286.8,101.7v82.9c0,8.1-5.4,16.2-16.1,22.4L247,220.7c-21.4,12.4-56.3,12.4-77.7,0
		c-10.7-6.2-16.1-14.3-16.1-22.4l0,0v-82.9L286.8,101.7z"/>
	<path class="st1" d="M208,230c-14,0-28-3.1-38.7-9.3s-16.1-14.3-16.1-22.4v-82.9l54.7-5.6V230H208z"/>
	<path class="st2" d="M193,79.3L169.3,93c-21.4,12.4-21.4,32.5,0,44.8c21.4,12.4,56.3,12.4,77.7,0l23.8-13.7
		c21.4-12.4,21.4-32.5,0-44.8S214.5,66.9,193,79.3z"/>
	<path class="st0" d="M208.1,148.1c-14.2,0-28.5-3.1-39.3-9.4c-10.7-6.2-16.6-14.4-16.6-23.3s5.9-17.1,16.6-23.3l23.8-13.7
		c21.7-12.5,57-12.5,78.7,0c10.7,6.2,16.6,14.4,16.6,23.3s-5.9,17.1-16.6,23.3l-23.8,13.7C236.6,145,222.4,148.1,208.1,148.1z
		 M231.9,71c-13.9,0-27.8,3.1-38.3,9.2l-23.8,13.7c-10,5.8-15.6,13.5-15.6,21.6s5.5,15.8,15.6,21.6c21.1,12.2,55.5,12.2,76.7,0
		l23.8-13.7c10-5.8,15.6-13.5,15.6-21.6s-5.5-15.8-15.6-21.6C259.7,74,245.8,71,231.9,71z"/>
	<path class="st1" d="M193.4,106.1c-8.5,4.9-8.5,12.9,0,17.8s22.3,4.9,30.8,0l22.3-12.9c8.5-4.9,8.5-12.9,0-17.8s-22.3-4.9-30.8,0
		L193.4,106.1z"/>
	<path class="st0" d="M208.8,128.6c-5.5,0.1-11-1.2-15.9-3.8c-4.4-2.6-6.9-6-6.9-9.8s2.4-7.2,6.9-9.8l0,0l22.3-12.9
		c8.8-5.1,23.1-5.1,31.8,0c4.4,2.6,6.9,6,6.9,9.8s-2.4,7.2-6.9,9.8l-22.3,12.9C219.9,127.4,214.4,128.7,208.8,128.6z M193.9,107
		c-3.8,2.2-5.9,5-5.9,8s2.1,5.8,5.9,8c8.2,4.8,21.6,4.8,29.8,0l22.3-12.9c3.8-2.2,5.9-5,5.9-8s-2.1-5.8-5.9-8
		c-8.2-4.8-21.6-4.8-29.8,0L193.9,107z"/>
	<path class="st2" d="M208.1,206.6c-14.9,0-28.8-3.3-39.3-9.4c-0.5-0.3-0.6-0.9-0.4-1.4c0.3-0.5,0.9-0.6,1.4-0.4
		c10.2,5.9,23.8,9.1,38.3,9.1s28.1-3.2,38.3-9.1l23.8-13.7c0.5-0.3,1.1-0.1,1.4,0.4s0.1,1.1-0.4,1.4l0,0l-23.8,13.7
		C236.9,203.3,223,206.6,208.1,206.6z"/>
	<path class="st2" d="M208.1,176.4c-14.9,0-28.8-3.3-39.3-9.4c-0.5-0.3-0.6-0.9-0.4-1.4s0.9-0.6,1.4-0.4l0,0
		c10.2,5.9,23.8,9.1,38.3,9.1s28.1-3.2,38.3-9.1l23.8-13.7c0.5-0.3,1.1-0.1,1.4,0.4s0.1,1.1-0.4,1.4L247.5,167
		C236.9,173,223,176.4,208.1,176.4z"/>
	<path class="st3" d="M208.1,231c-7.1,0-14.1-0.8-21-2.4H187c-0.8-0.2-1.6-0.4-2.4-0.6l-0.2-0.1c-0.7-0.2-1.5-0.4-2.2-0.6l-0.4-0.1
		c-0.7-0.2-1.4-0.4-2-0.7l-0.5-0.2c-0.6-0.2-1.2-0.4-1.8-0.6c-0.1-0.1-0.3-0.1-0.4-0.2l-0.4-0.2c-0.5-0.2-1-0.4-1.5-0.6
		c-0.2-0.1-0.4-0.2-0.5-0.2l-0.7-0.3c-0.3-0.2-0.7-0.3-1-0.5c-0.3-0.1-0.5-0.3-0.8-0.4l-0.7-0.3c-0.2-0.1-0.4-0.2-0.7-0.3
		c-0.7-0.4-1.4-0.7-2.1-1.1c-10.7-6.2-16.6-14.4-16.6-23.3v-82.9c0-8.9,5.9-17.1,16.6-23.3l23.8-13.7c21.7-12.5,57-12.5,78.7,0
		c10.7,6.2,16.6,14.4,16.6,23.3v82.9c0,8.9-5.9,17.1-16.6,23.3l-23.8,13.7C236.8,227.7,222.6,231,208.1,231z M187.6,226.7
		c20.3,4.8,43.4,2.1,58.9-6.8l23.8-13.7c10-5.8,15.6-13.5,15.6-21.6v-82.9c0-8.1-5.5-15.8-15.6-21.6l0,0
		c-21.1-12.2-55.5-12.2-76.7,0l-23.8,13.7c-10,5.8-15.6,13.5-15.6,21.6v82.9c0,8.1,5.5,15.8,15.6,21.6c0.7,0.4,1.3,0.7,2,1.1
		c0.2,0.1,0.4,0.2,0.6,0.3l0.7,0.3c0.2,0.1,0.5,0.3,0.8,0.4c0.3,0.2,0.6,0.3,1,0.4l0.7,0.3c0.2,0.1,0.3,0.1,0.5,0.2
		c0.5,0.2,1,0.4,1.5,0.6l0.8,0.3c0.6,0.2,1.2,0.4,1.7,0.6l0.5,0.2c0.6,0.2,1.3,0.4,2,0.6l0.3,0.1c0.7,0.2,1.4,0.4,2.1,0.6l0.2,0.1
		c0.8,0.2,1.5,0.4,2.3,0.6l-0.1,1L187.6,226.7z"/>
	<rect y="50" class="st4" width="440" height="200"/>
	<rect class="st4" width="440" height="300"/>
</g>
</svg>
