<?xml version="1.0" encoding="utf-8"?>
<!-- Generator: Adobe Illustrator 24.1.2, SVG Export Plug-In . SVG Version: 6.00 Build 0)  -->
<svg version="1.1" id="Layer_1" xmlns="http://www.w3.org/2000/svg" xmlns:xlink="http://www.w3.org/1999/xlink" x="0px" y="0px"
	 width="440px" height="300px" viewBox="0 0 440 300" style="enable-background:new 0 0 440 300;" xml:space="preserve">
<style type="text/css">
	.st0{fill:#E9EBDF;}
	.st1{fill:#FFFFFF;}
	.st2{fill:#4D9987;}
	.st3{fill:#0E352C;}
	.st4{fill:none;}
</style>
<g>
	<polygon class="st0" points="227.4,6.8 220,11 212.6,6.8 220,2.5 	"/>
	<polygon class="st1" points="220,86.4 171,58.1 171,269.2 220,297.5 269,269.2 269,58.1 	"/>
	<polygon class="st0" points="269,269.2 269,58.1 220,86.4 220,297.5 	"/>
	<polygon class="st2" points="227.4,6.8 269,58.1 220,86.4 220,11 	"/>
	<path class="st1" d="M220,87.4c-0.6,0-1-0.4-1-1V11c0-0.4,0.2-0.7,0.5-0.9l7.4-4.3c0.4-0.2,1-0.1,1.3,0.2l41.6,51.4
		c0.3,0.4,0.3,1.1-0.1,1.4c0,0-0.1,0.1-0.1,0.1l-49,28.3C220.3,87.4,220.2,87.4,220,87.4z M221,11.6v73.1l46.5-26.8L227.2,8.1
		L221,11.6z"/>
	<polygon class="st0" points="212.6,6.8 171,58.1 220,86.4 220,11 	"/>
	<path class="st1" d="M220,87.4c-0.2,0-0.3,0-0.5-0.1l-49-28.3c-0.5-0.3-0.6-0.9-0.4-1.4c0,0,0.1-0.1,0.1-0.1l41.6-51.4
		c0.3-0.4,0.9-0.5,1.3-0.2l7.4,4.3c0.3,0.2,0.5,0.5,0.5,0.9v75.4C221,87,220.6,87.4,220,87.4z M172.5,57.8L219,84.7V11.6l-6.2-3.6
		L172.5,57.8z"/>
	<path class="st2" d="M220,298.5c-0.6,0-1-0.4-1-1V86.4c0-0.6,0.4-1,1-1s1,0.4,1,1v211.1C221,298.1,220.6,298.5,220,298.5z"/>
	<path class="st2" d="M220,147.7c-0.2,0-0.3,0-0.5-0.1l-49-28.3c-0.5-0.3-0.6-0.9-0.4-1.4c0.3-0.5,0.9-0.6,1.4-0.4c0,0,0,0,0,0
		l49,28.3c0.5,0.3,0.6,0.9,0.4,1.4C220.7,147.5,220.4,147.7,220,147.7z"/>
	<path class="st2" d="M220,117.6c-0.2,0-0.3,0-0.5-0.1l-49-28.3c-0.5-0.3-0.6-0.9-0.4-1.4s0.9-0.6,1.4-0.4l49,28.3
		c0.5,0.3,0.6,0.9,0.4,1.4C220.7,117.4,220.4,117.6,220,117.6z"/>
	<path class="st2" d="M220,147.7c-0.6,0-1-0.4-1-1c0-0.4,0.2-0.7,0.5-0.9l49-28.3c0.5-0.3,1.1-0.1,1.4,0.4c0.3,0.5,0.1,1.1-0.4,1.4
		l-49,28.3C220.3,147.7,220.2,147.7,220,147.7z"/>
	<path class="st2" d="M220,117.6c-0.6,0-1-0.4-1-1c0-0.4,0.2-0.7,0.5-0.9l49-28.3c0.5-0.3,1.1-0.1,1.4,0.4c0.3,0.5,0.1,1.1-0.4,1.4
		l-49,28.3C220.3,117.5,220.2,117.6,220,117.6z"/>
	<path class="st2" d="M220,177.9c-0.2,0-0.3,0-0.5-0.1l-49-28.3c-0.5-0.3-0.6-0.9-0.4-1.4c0.3-0.5,0.9-0.6,1.4-0.4l49,28.3
		c0.5,0.3,0.6,0.9,0.4,1.4C220.7,177.7,220.4,177.9,220,177.9L220,177.9z"/>
	<path class="st2" d="M220,177.9c-0.6,0-1-0.4-1-1c0-0.4,0.2-0.7,0.5-0.9l49-28.3c0.5-0.3,1.1-0.1,1.4,0.4c0.3,0.5,0.1,1.1-0.4,1.4
		c0,0,0,0,0,0l-49,28.3C220.3,177.8,220.2,177.9,220,177.9z"/>
	<path class="st2" d="M220,208c-0.2,0-0.3,0-0.5-0.1l-49-28.3c-0.5-0.3-0.6-0.9-0.4-1.4c0.3-0.5,0.9-0.6,1.4-0.4l49,28.3
		c0.5,0.3,0.6,0.9,0.4,1.4C220.7,207.8,220.4,208,220,208L220,208z"/>
	<path class="st2" d="M220,208c-0.6,0-1-0.4-1-1c0-0.4,0.2-0.7,0.5-0.9l49-28.3c0.5-0.3,1.1-0.1,1.4,0.4c0.3,0.5,0.1,1.1-0.4,1.4
		c0,0,0,0,0,0l-49,28.3C220.3,208,220.2,208,220,208z"/>
	<path class="st2" d="M220,238.2c-0.2,0-0.3,0-0.5-0.1l-49-28.3c-0.5-0.3-0.6-0.9-0.4-1.4c0.3-0.5,0.9-0.6,1.4-0.4c0,0,0,0,0,0
		l49,28.3c0.5,0.3,0.6,0.9,0.4,1.4C220.7,238,220.4,238.2,220,238.2z"/>
	<path class="st2" d="M220,238.2c-0.6,0-1-0.4-1-1c0-0.4,0.2-0.7,0.5-0.9l49-28.3c0.5-0.3,1.1-0.1,1.4,0.4c0.3,0.5,0.1,1.1-0.4,1.4
		l-49,28.3C220.3,238.1,220.2,238.2,220,238.2z"/>
	<path class="st2" d="M220,268.3c-0.2,0-0.3,0-0.5-0.1l-49-28.3c-0.5-0.3-0.6-0.9-0.4-1.4s0.9-0.6,1.4-0.4l49,28.3
		c0.5,0.3,0.6,0.9,0.4,1.4C220.7,268.2,220.4,268.3,220,268.3z"/>
	<path class="st2" d="M220,268.3c-0.6,0-1-0.4-1-1c0-0.4,0.2-0.7,0.5-0.9l49-28.3c0.5-0.3,1.1-0.1,1.4,0.4c0.3,0.5,0.1,1.1-0.4,1.4
		l-49,28.3C220.3,268.3,220.2,268.3,220,268.3z"/>
	<path class="st3" d="M220,298.5c-0.2,0-0.3,0-0.5-0.1l-49-28.3c-0.3-0.2-0.5-0.5-0.5-0.9V58.1c0-0.6,0.4-1,1-1c0.2,0,0.3,0,0.5,0.1
		l48.5,28l48.5-28c0.5-0.3,1.1-0.1,1.4,0.4c0.1,0.2,0.1,0.3,0.1,0.5v211.1c0,0.4-0.2,0.7-0.5,0.9l-49,28.3
		C220.3,298.5,220.2,298.5,220,298.5z M172,268.6l48,27.7l48-27.7V59.9l-47.5,27.4c-0.3,0.2-0.7,0.2-1,0L172,59.9V268.6z"/>
	<path class="st3" d="M220,87.4c-0.2,0-0.3,0-0.5-0.1l-49-28.3c-0.5-0.3-0.6-0.9-0.4-1.4c0,0,0.1-0.1,0.1-0.1l41.6-51.4
		c0.1-0.1,0.2-0.2,0.3-0.2l7.4-4.3c0.3-0.2,0.7-0.2,1,0l7.4,4.3c0.1,0.1,0.2,0.1,0.3,0.2l41.6,51.4c0.3,0.4,0.3,1.1-0.1,1.4
		c0,0-0.1,0.1-0.1,0.1l-49,28.3C220.3,87.4,220.2,87.4,220,87.4z M172.5,57.8L220,85.3l47.5-27.4L226.7,7.5L220,3.7l-6.7,3.9
		L172.5,57.8z"/>
	<rect class="st4" width="440" height="300"/>
	<rect class="st4" width="440" height="300"/>
</g>
</svg>
