<?xml version="1.0" encoding="utf-8"?>
<!-- Generator: Adobe Illustrator 24.1.2, SVG Export Plug-In . SVG Version: 6.00 Build 0)  -->
<svg version="1.1" id="Layer_1" xmlns="http://www.w3.org/2000/svg" xmlns:xlink="http://www.w3.org/1999/xlink" x="0px" y="0px"
	 width="440px" height="300px" viewBox="0 0 440 300" style="enable-background:new 0 0 440 300;" xml:space="preserve">
<style type="text/css">
	.st0{fill:#E9EBDF;}
	.st1{fill:#FFFFFF;}
	.st2{fill:#0E352C;}
	.st3{fill:#4D9987;}
	.st4{fill:none;}
</style>
<g>
	<polygon class="st0" points="220,167.6 220,229.6 220,229.6 251.6,211.4 283.1,193.1 283.1,167.6 283.1,131.2 251.6,106.9 	"/>
	<path class="st1" d="M220,230.6c-0.6,0-1-0.4-1-1v-61.9c0-0.2,0-0.3,0.1-0.5l31.6-60.8c0.3-0.5,0.9-0.7,1.3-0.4
		c0.1,0,0.1,0.1,0.2,0.1l31.5,24.4c0.2,0.2,0.4,0.5,0.4,0.8v61.9c0,0.4-0.2,0.7-0.5,0.9l-63.1,36.4
		C220.3,230.5,220.2,230.6,220,230.6z M221,167.9v59.9l61.1-35.3v-60.9l-30.2-23.3L221,167.9z"/>
	<path class="st2" d="M188.4,212.4c-0.6,0-1-0.4-1-1v-61.9c0-0.6,0.4-1,1-1s1,0.4,1,1v61.9C189.4,211.9,189,212.4,188.4,212.4z"/>
	<polygon class="st1" points="220,167.6 220,229.6 220,229.6 188.4,211.4 156.9,193.1 156.9,193.1 156.9,131.2 188.4,149.4 	"/>
	<path class="st1" d="M220,230.6c-0.2,0-0.3,0-0.5-0.1L156.4,194c-0.3-0.2-0.5-0.5-0.5-0.9v-61.9c0-0.6,0.4-1,1-1
		c0.2,0,0.3,0,0.5,0.1l63.1,36.4c0.3,0.2,0.5,0.5,0.5,0.9v61.9C221,230.1,220.6,230.6,220,230.6z M157.9,192.6l61.1,35.3v-59.6
		L157.9,133V192.6z"/>
	<polygon class="st0" points="251.6,106.9 188.4,70.4 156.9,131.2 220,167.6 	"/>
	<path class="st1" d="M220,168.6c-0.2,0-0.3,0-0.5-0.1l-63.1-36.4c-0.5-0.3-0.6-0.9-0.4-1.3L187.6,70c0.3-0.5,0.9-0.7,1.3-0.4l0,0
		L252,106c0.5,0.3,0.6,0.9,0.4,1.3l-31.6,60.8C220.7,168.4,220.4,168.7,220,168.6L220,168.6z M158.2,130.8l61.4,35.4l30.6-59
		l-61.4-35.4L158.2,130.8z"/>
	<path class="st3" d="M243.5,155.1c-0.6,0-1-0.4-1-1c0-0.4,0.2-0.7,0.5-0.9l16.1-9.3c0.5-0.3,1.1-0.1,1.4,0.4s0.1,1.1-0.4,1.4
		L244,155C243.8,155,243.7,155.1,243.5,155.1z"/>
	<path class="st3" d="M251.6,197.4c-0.6,0-1-0.4-1-1v-20c0-0.6,0.4-1,1-1s1,0.4,1,1v20C252.6,197,252.1,197.4,251.6,197.4z"/>
	<path class="st0" d="M188.5,200.8c-0.6,0-1-0.4-1-1v-26.5c0-0.6,0.4-1,1-1s1,0.4,1,1v26.5C189.5,200.4,189,200.8,188.5,200.8z"/>
	<path class="st2" d="M220,230.6c-0.2,0-0.3,0-0.5-0.1L156.4,194c-0.3-0.2-0.5-0.5-0.5-0.9v-61.9c0-0.2,0-0.3,0.1-0.5L187.6,70
		c0.3-0.5,0.9-0.7,1.3-0.4l0,0L252,106c0,0,0.1,0,0.1,0.1l31.6,24.4c0.2,0.2,0.4,0.5,0.4,0.8v61.9c0,0.4-0.2,0.7-0.5,0.9l-63.1,36.4
		C220.3,230.5,220.2,230.6,220,230.6z M157.9,192.6l62.1,35.9l62.1-35.9v-60.9l-31.1-24l-62.1-35.9l-31,59.6V192.6z"/>
	<rect y="50" class="st4" width="440" height="200"/>
	<rect class="st4" width="440" height="300"/>
</g>
</svg>
