<?xml version="1.0" encoding="utf-8"?>
<!-- Generator: Adobe Illustrator 24.1.2, SVG Export Plug-In . SVG Version: 6.00 Build 0)  -->
<svg version="1.1" id="Layer_1" xmlns="http://www.w3.org/2000/svg" xmlns:xlink="http://www.w3.org/1999/xlink" x="0px" y="0px"
	 width="440px" height="300px" viewBox="0 0 440 300" style="enable-background:new 0 0 440 300;" xml:space="preserve">
<style type="text/css">
	.st0{fill:#FFFFFF;}
	.st1{fill:#E9EBDF;}
	.st2{fill:#4D9987;}
	.st3{fill:#0E352C;}
	.st4{fill:none;}
</style>
<g>
	<polygon class="st0" points="282.9,125.7 267.2,111.8 251.5,97.9 235.7,83.9 220,70 204.3,79.1 188.5,88.2 172.8,97.3 157.1,106.3 
		157.1,106.3 157.1,193.7 220,230 282.9,193.7 	"/>
	<polygon class="st1" points="220,162.1 220,230 282.9,193.7 282.9,125.7 	"/>
	<path class="st2" d="M220,231c-0.6,0-1-0.4-1-1v-67.9c0-0.4,0.2-0.7,0.5-0.9l62.9-36.3c0.5-0.3,1.1-0.1,1.4,0.4
		c0.1,0.2,0.1,0.3,0.1,0.5v67.9c0,0.4-0.2,0.7-0.5,0.9l-62.9,36.3C220.3,231,220.2,231,220,231z M221,162.6v65.6l60.9-35.2v-65.6
		L221,162.6z"/>
	<path class="st2" d="M220,163.1c-0.2,0-0.5-0.1-0.7-0.3l-62.9-55.7c-0.4-0.4-0.5-1-0.1-1.4c0.1-0.1,0.2-0.1,0.2-0.2l62.9-36.3
		c0.4-0.2,0.8-0.2,1.2,0.1l62.9,55.7c0.4,0.4,0.5,1,0.1,1.4c-0.1,0.1-0.2,0.1-0.2,0.2l-62.9,36.3C220.3,163,220.2,163.1,220,163.1z
		 M158.8,106.5l61.4,54.3l61.1-35.3l-61.4-54.3L158.8,106.5z"/>
	<polygon class="st1" points="220,162.1 220,230 157.1,193.7 157.1,106.3 	"/>
	<path class="st2" d="M220,231c-0.2,0-0.3,0-0.5-0.1l-62.9-36.3c-0.3-0.2-0.5-0.5-0.5-0.9v-87.3c0-0.6,0.4-1,1-1
		c0.2,0,0.5,0.1,0.7,0.3l62.9,55.7c0.2,0.2,0.3,0.5,0.3,0.7V230C221,230.6,220.6,231,220,231z M158.1,193.1l60.9,35.2v-65.8
		l-60.9-53.9V193.1z"/>
	<path class="st2" d="M196.6,192.7c-0.2,0-0.3,0-0.5-0.1l-16.1-9.3c-0.3-0.2-0.5-0.5-0.5-0.9v-19.8c0-0.6,0.4-1,1-1
		c0.2,0,0.3,0,0.5,0.1l16.1,8.9c0.3,0.2,0.5,0.5,0.5,0.9v20.1C197.6,192.3,197.1,192.7,196.6,192.7L196.6,192.7z M181.5,181.9
		l14.1,8.1v-17.8l-14.1-7.8V181.9z"/>
	<path class="st2" d="M235.7,154c-0.2,0-0.5-0.1-0.7-0.3L172.1,98c-0.4-0.4-0.5-1-0.1-1.4s1-0.5,1.4-0.1l62.9,55.7
		c0.4,0.4,0.5,1,0.1,1.4C236.3,153.8,236,154,235.7,154L235.7,154z"/>
	<path class="st2" d="M251.5,144.9c-0.2,0-0.5-0.1-0.7-0.3l-62.9-55.7c-0.4-0.4-0.5-1-0.1-1.4s1-0.5,1.4-0.1l62.9,55.7
		c0.4,0.4,0.5,1,0.1,1.4C252,144.8,251.8,144.9,251.5,144.9L251.5,144.9z"/>
	<path class="st2" d="M267.2,135.8c-0.2,0-0.5-0.1-0.7-0.3l-62.9-55.7c-0.4-0.4-0.5-1-0.1-1.4s1-0.5,1.4-0.1l0,0l62.9,55.7
		c0.4,0.4,0.5,1,0.1,1.4C267.8,135.7,267.5,135.8,267.2,135.8L267.2,135.8z"/>
	<path class="st2" d="M220,197c-0.6,0-1-0.4-1-1c0-0.4,0.2-0.7,0.5-0.9l62.9-36.3c0.5-0.3,1.1-0.1,1.4,0.4s0.1,1.1-0.4,1.4
		l-62.9,36.3C220.3,197,220.2,197,220,197z"/>
	<path class="st3" d="M220,231c-0.2,0-0.3,0-0.5-0.1l-62.9-36.3c-0.3-0.2-0.5-0.5-0.5-0.9v-87.3c0-0.4,0.2-0.7,0.5-0.9l62.9-36.3
		c0.4-0.2,0.8-0.2,1.2,0.1l62.9,55.7c0.2,0.2,0.3,0.5,0.3,0.7v67.9c0,0.4-0.2,0.7-0.5,0.9l-62.9,36.3C220.3,231,220.2,231,220,231z
		 M158.1,193.1l61.9,35.8l61.9-35.8v-66.9l-62.1-54.9L158,107v86.1H158.1z"/>
	<rect y="50" class="st4" width="440" height="200"/>
	<rect class="st4" width="440" height="300"/>
</g>
</svg>
