<?xml version="1.0" encoding="utf-8"?>
<!-- Generator: Adobe Illustrator 24.1.2, SVG Export Plug-In . SVG Version: 6.00 Build 0)  -->
<svg version="1.1" id="Layer_1" xmlns="http://www.w3.org/2000/svg" xmlns:xlink="http://www.w3.org/1999/xlink" x="0px" y="0px"
	 width="440px" height="300px" viewBox="0 0 440 300" style="enable-background:new 0 0 440 300;" xml:space="preserve">
<style type="text/css">
	.st0{fill:#E9EBDF;}
	.st1{fill:#4D9987;}
	.st2{fill:#FFFFFF;}
	.st3{fill:#0E352C;}
	.st4{fill:none;}
</style>
<g>
	<polygon class="st0" points="201.5,112.7 201.5,119.1 201.5,187.3 183,176.7 164.6,166 164.6,97.8 164.6,91.3 183,102 	"/>
	<path class="st1" d="M201.5,188.3c-0.2,0-0.3,0-0.5-0.1l-37-21.3c-0.3-0.2-0.5-0.5-0.5-0.9V91.3c0-0.6,0.4-1,1-1
		c0.2,0,0.3,0,0.5,0.1l37,21.3c0.3,0.2,0.5,0.5,0.5,0.9v74.7C202.5,187.9,202.1,188.3,201.5,188.3L201.5,188.3z M165.6,165.4
		l35,20.2v-72.4l-35-20.2V165.4z"/>
	<path class="st0" d="M193.3,183.6c-0.2,0-0.3,0-0.5-0.1l-20.4-11.8c-0.3-0.2-0.5-0.5-0.5-0.9v-52.7c0-0.6,0.4-1,1-1
		c0.2,0,0.3,0,0.5,0.1l20.4,11.8c0.3,0.2,0.5,0.5,0.5,0.9v52.7C194.3,183.1,193.8,183.6,193.3,183.6L193.3,183.6z M173.8,170.2
		l18.4,10.6v-50.4l-18.4-10.6V170.2z"/>
	<polygon class="st2" points="201.5,70 164.6,91.3 201.5,112.7 164.6,134 201.5,155.3 275.4,112.7 	"/>
	<path class="st1" d="M201.5,156.3c-0.2,0-0.3,0-0.5-0.1l-37-21.3c-0.5-0.3-0.6-0.9-0.4-1.4c0.1-0.2,0.2-0.3,0.4-0.4l35.5-20.5
		L164,92.1c-0.5-0.3-0.6-0.9-0.4-1.4c0.1-0.2,0.2-0.3,0.4-0.4L201,69c0.3-0.2,0.7-0.2,1,0l73.9,42.7c0.5,0.3,0.6,0.9,0.4,1.4
		c-0.1,0.2-0.2,0.3-0.4,0.4L202,156.2C201.9,156.3,201.7,156.3,201.5,156.3z M166.6,134l35,20.2l71.9-41.5l-71.9-41.5l-35,20.2
		l35.5,20.5c0.5,0.3,0.6,0.9,0.4,1.4c-0.1,0.2-0.2,0.3-0.4,0.4L166.6,134z"/>
	<polygon class="st0" points="201.5,155.3 201.5,189.4 201.5,161.8 201.5,195.9 201.5,230 220,219.3 238.5,208.7 257,198 
		275.4,187.3 275.4,153.2 275.4,180.9 275.4,146.8 275.4,112.7 257,123.3 238.5,134 220,144.7 	"/>
	<path class="st1" d="M201.5,231c-0.6,0-1-0.4-1-1v-74.7c0-0.4,0.2-0.7,0.5-0.9l73.9-42.7c0.5-0.3,1.1-0.1,1.4,0.4
		c0.1,0.2,0.1,0.3,0.1,0.5v74.7c0,0.4-0.2,0.7-0.5,0.9L202,230.9C201.9,231,201.7,231,201.5,231z M202.5,189.4v38.8l71.9-41.5v-72.4
		l-71.9,41.5V189.4z"/>
	<polygon class="st0" points="201.5,155.3 201.5,161.8 201.5,230 183,219.3 164.6,208.7 164.6,140.5 164.6,134 183,144.7 	"/>
	<path class="st3" d="M201.5,231c-0.2,0-0.3,0-0.5-0.1l-37-21.3c-0.3-0.2-0.5-0.5-0.5-0.9V134c0-0.6,0.4-1,1-1c0.2,0,0.3,0,0.5,0.1
		l37,21.3c0.3,0.2,0.5,0.5,0.5,0.9V230C202.5,230.6,202.1,231,201.5,231z M165.6,208.1l35,20.2v-72.4l-35-20.2V208.1z"/>
	<path class="st0" d="M193.3,226.2c-0.2,0-0.3,0-0.5-0.1l-20.4-11.8c-0.3-0.2-0.5-0.5-0.5-0.9v-52.7c0-0.6,0.4-1,1-1
		c0.2,0,0.3,0,0.5,0.1l20.4,11.8c0.3,0.2,0.5,0.5,0.5,0.9v52.7C194.3,225.8,193.8,226.2,193.3,226.2L193.3,226.2z M173.8,212.9
		l18.4,10.6v-50.4l-18.4-10.6V212.9z"/>
	<path class="st1" d="M201.5,231c-0.2,0-0.3,0-0.5-0.1l-37-21.3c-0.3-0.2-0.5-0.5-0.5-0.9V134c0-0.6,0.4-1,1-1c0.2,0,0.3,0,0.5,0.1
		l37,21.3c0.3,0.2,0.5,0.5,0.5,0.9V230C202.5,230.6,202.1,231,201.5,231z M165.6,208.1l35,20.2v-72.4l-35-20.2V208.1z"/>
	<path class="st1" d="M220,205.4c-0.6,0-1-0.4-1-1v-44.8c0-0.6,0.4-1,1-1s1,0.4,1,1v44.8C221,205,220.6,205.4,220,205.4z"/>
	<path class="st1" d="M238.5,194.7c-0.6,0-1-0.4-1-1v-44.8c0-0.6,0.4-1,1-1s1,0.4,1,1v44.8C239.5,194.3,239,194.7,238.5,194.7z"/>
	<path class="st1" d="M257,184.1c-0.6,0-1-0.4-1-1v-44.8c0-0.6,0.4-1,1-1s1,0.4,1,1v44.8C258,183.6,257.5,184.1,257,184.1z"/>
	<path class="st0" d="M201.5,97.6c-5.6,0-10-2.7-10-6.2s4.4-6.2,10-6.2s10.1,2.7,10.1,6.2S207.2,97.6,201.5,97.6z M201.5,87.1
		c-4.4,0-8,1.9-8,4.2c0,2.3,3.7,4.2,8,4.2s8.1-1.9,8.1-4.2S205.9,87.1,201.5,87.1z"/>
	<path class="st0" d="M238.5,118.9c-5.6,0-10.1-2.7-10.1-6.2s4.4-6.2,10.1-6.2s10,2.7,10,6.2S244.1,118.9,238.5,118.9z M238.5,108.4
		c-4.4,0-8.1,1.9-8.1,4.2c0,2.3,3.7,4.2,8.1,4.2s8-1.9,8-4.2S242.8,108.4,238.5,108.4z"/>
	<path class="st0" d="M201.5,140.2c-5.6,0-10-2.7-10-6.2s4.4-6.2,10-6.2s10.1,2.7,10.1,6.2S207.2,140.2,201.5,140.2z M201.5,129.8
		c-4.4,0-8,1.9-8,4.2s3.7,4.2,8,4.2s8.1-1.9,8.1-4.2S205.9,129.8,201.5,129.8z"/>
	<path class="st3" d="M201.5,231c-0.2,0-0.3,0-0.5-0.1l-37-21.3c-0.3-0.2-0.5-0.5-0.5-0.9V91.3c0-0.4,0.2-0.7,0.5-0.9l37-21.3
		c0.3-0.2,0.7-0.2,1,0l73.9,42.7c0.3,0.2,0.5,0.5,0.5,0.9v74.7c0,0.4-0.2,0.7-0.5,0.9L202,230.9C201.9,231,201.7,231,201.5,231z
		 M165.6,208.1l36,20.8l72.9-42.1v-73.5l-72.9-42.1l-36,20.8V208.1z"/>
	<rect y="50" class="st4" width="440" height="200"/>
	<rect class="st4" width="440" height="300"/>
</g>
</svg>
