<?xml version="1.0" encoding="utf-8"?>
<!-- Generator: Adobe Illustrator 24.1.2, SVG Export Plug-In . SVG Version: 6.00 Build 0)  -->
<svg version="1.1" id="Layer_1" xmlns="http://www.w3.org/2000/svg" xmlns:xlink="http://www.w3.org/1999/xlink" x="0px" y="0px"
	 width="128px" height="128px" viewBox="0 0 128 128" style="enable-background:new 0 0 128 128;" xml:space="preserve">
<style type="text/css">
	.st0{fill:#4D9987;}
	.st1{fill:#0E352C;}
	.st2{fill:#E9EBDF;}
	.st3{fill:#FFFFFF;}
	.st4{fill:none;}
</style>
<g>
	<path class="st0" d="M41.1,68.7l-2.5-5.3l3.1-1.8l0,0c0.8-0.4,1.8-0.3,2.5,0.2c2.2,1.2,3.9,4.6,3.9,7.4c0.1,1.2-0.4,2.4-1.4,3.2
		l0,0l-3.1,1.8L41.1,68.7L41.1,68.7z"/>
	<path class="st1" d="M43.7,75.3c-0.1,0-0.2,0-0.3,0c-0.3-0.1-0.5-0.3-0.6-0.5l-2.6-5.5l0.9-0.4l-0.9,0.4L37.7,64
		c-0.2-0.5,0-1,0.4-1.3l3.1-1.8c0,0,0.1,0,0.1-0.1c1.1-0.5,2.4-0.4,3.4,0.3c2.5,1.4,4.4,5.1,4.4,8.3c0.1,1.5-0.5,3-1.7,3.9
		c0,0-0.1,0-0.1,0.1l-3.1,1.8C44.1,75.2,43.9,75.3,43.7,75.3z M42,68.3l2.1,4.5l2-1.2c0,0,0.1,0,0.1-0.1c0.6-0.6,1-1.4,0.8-2.3
		c0-2.5-1.6-5.5-3.4-6.6c-0.4-0.3-1-0.4-1.5-0.2H42l-2.2,1.3L42,68.3L42,68.3l-0.9,0.4L42,68.3z"/>
	<path class="st0" d="M64.3,82.1l-2.5-5.3l3.1-1.8l0,0c0.8-0.4,1.8-0.3,2.5,0.2c2.2,1.2,3.9,4.6,3.9,7.4c0.1,1.2-0.4,2.4-1.3,3.1
		l0,0l-3.1,1.8L64.3,82.1L64.3,82.1z"/>
	<path class="st1" d="M66.9,88.7c-0.1,0-0.2,0-0.3,0c-0.3-0.1-0.5-0.3-0.6-0.5l-2.6-5.5l0.9-0.4l-0.9,0.4l-2.5-5.3
		c-0.2-0.5,0-1,0.4-1.3l3.1-1.8c0,0,0.1,0,0.1-0.1c1.1-0.5,2.4-0.4,3.4,0.3c2.5,1.4,4.4,5.1,4.4,8.3c0.1,1.5-0.5,3-1.7,3.9
		c0,0-0.1,0-0.1,0.1l-3.1,1.8C67.2,88.6,67.1,88.7,66.9,88.7z M65.2,81.7l2.1,4.5l2-1.2c0,0,0.1,0,0.1-0.1c0.6-0.6,1-1.4,0.8-2.3
		c0-2.5-1.6-5.5-3.4-6.6c-0.4-0.3-1-0.4-1.5-0.2h-0.1L63,77.1L65.2,81.7L65.2,81.7z"/>
	<polygon class="st2" points="31.7,52.1 49.2,42 56.3,46.1 38.8,56.2 	"/>
	<path class="st3" d="M38.8,57.2c-0.2,0-0.3,0-0.5-0.1L31.2,53c-0.5-0.3-0.6-0.9-0.4-1.4c0.1-0.2,0.2-0.3,0.4-0.4l17.5-10.1
		c0.3-0.2,0.7-0.2,1,0l7.1,4.1c0.5,0.3,0.6,0.9,0.4,1.4c-0.1,0.2-0.2,0.3-0.4,0.4L39.3,57.1C39.1,57.2,39,57.2,38.8,57.2z
		 M33.7,52.1l5.1,3l15.5-9l-5.1-3L33.7,52.1z"/>
	<polygon class="st2" points="64.7,62.2 67.7,71.8 78.8,80.2 78.8,88.1 31.7,60.9 31.7,52.1 38.8,56.2 43.5,50 	"/>
	<path class="st0" d="M78.8,89.1c-0.2,0-0.3,0-0.5-0.1L31.2,61.8c-0.3-0.2-0.5-0.5-0.5-0.9v-8.8c0-0.6,0.4-1,1-1
		c0.2,0,0.3,0,0.5,0.1l6.4,3.7l4.2-5.5c0.3-0.4,0.9-0.5,1.3-0.3l21.2,12.3c0.2,0.1,0.4,0.3,0.5,0.6l2.9,9.3l10.8,8.2
		c0.3,0.2,0.4,0.5,0.4,0.8v8C79.8,88.7,79.4,89.2,78.8,89.1L78.8,89.1z M32.7,60.3l45.2,26.1v-5.7l-10.7-8.1
		c-0.2-0.1-0.3-0.3-0.4-0.5l-2.9-9.2L43.8,51.3l-4.2,5.5c-0.3,0.4-0.9,0.5-1.3,0.3l-5.6-3.2V60.3z"/>
	<polygon class="st2" points="67.7,71.8 85.3,61.7 96.3,70.1 78.8,80.2 	"/>
	<path class="st0" d="M78.8,81.2c-0.2,0-0.4-0.1-0.6-0.2l-11.1-8.4c-0.4-0.3-0.5-1-0.2-1.4c0.1-0.1,0.2-0.2,0.3-0.3l17.5-10.1
		c0.3-0.2,0.8-0.2,1.1,0.1l11.1,8.4c0.4,0.3,0.5,1,0.2,1.4c-0.1,0.1-0.2,0.2-0.3,0.3L79.3,81.1C79.2,81.2,79,81.2,78.8,81.2z
		 M69.5,71.9l9.4,7.1l15.7-9l-9.4-7.1L69.5,71.9z"/>
	<polygon class="st2" points="78.8,88.1 78.8,80.2 96.3,70.1 96.3,78 	"/>
	<path class="st0" d="M78.8,89.1c-0.6,0-1-0.4-1-1v-7.9c0-0.4,0.2-0.7,0.5-0.9l17.5-10.1c0.5-0.3,1.1-0.1,1.4,0.4
		c0.1,0.2,0.1,0.3,0.1,0.5v8c0,0.4-0.2,0.7-0.5,0.9L79.3,89C79.2,89.1,79,89.1,78.8,89.1z M79.8,80.8v5.6l15.5-9v-5.6L79.8,80.8z"/>
	<polygon class="st3" points="67.7,71.8 64.7,62.2 82.3,52.1 85.3,61.7 	"/>
	<path class="st0" d="M67.7,72.8c-0.1,0-0.2,0-0.4-0.1c-0.3-0.1-0.5-0.3-0.6-0.6l-3-9.6c-0.1-0.4,0.1-0.9,0.5-1.2l17.5-10.1
		c0.5-0.3,1.1-0.1,1.4,0.4c0,0.1,0.1,0.1,0.1,0.2l3,9.6c0.1,0.4-0.1,0.9-0.5,1.2L68.2,72.7C68.1,72.8,67.9,72.8,67.7,72.8z
		 M65.9,62.7l2.4,7.6l15.8-9.1l-2.4-7.6L65.9,62.7z"/>
	<polygon class="st2" points="43.5,50 61.1,39.9 82.3,52.1 64.7,62.2 	"/>
	<path class="st0" d="M64.7,63.2c-0.2,0-0.3,0-0.5-0.1L43,50.8c-0.5-0.3-0.6-0.9-0.4-1.4c0.1-0.2,0.2-0.3,0.4-0.4l17.6-10
		c0.3-0.2,0.7-0.2,1,0l21.2,12.3c0.5,0.3,0.6,0.9,0.4,1.4c-0.1,0.2-0.2,0.3-0.4,0.4l-17.6,10C65.1,63.2,64.9,63.2,64.7,63.2z
		 M45.5,50l19.2,11.1l15.5-9L61.1,41L45.5,50z"/>
	<path class="st0" d="M53.7,66.8c-0.6,0-1-0.4-1-1v-9.9c0-0.6,0.4-1,1-1s1,0.4,1,1v9.9C54.7,66.4,54.3,66.8,53.7,66.8z"/>
	<path class="st0" d="M60.3,53.1c-0.6,0-1-0.4-1-1c0-0.4,0.2-0.7,0.5-0.9l4-2.3c0.5-0.3,1.1-0.1,1.4,0.4s0.1,1.1-0.4,1.4l0,0l-4,2.3
		C60.7,53.1,60.5,53.1,60.3,53.1z"/>
	<path class="st1" d="M78.8,89.1c-0.2,0-0.3,0-0.5-0.1L31.2,61.8c-0.3-0.2-0.5-0.5-0.5-0.9v-8.8c0-0.4,0.2-0.7,0.5-0.9l17.5-10.1
		c0.3-0.2,0.7-0.2,1,0l3.6,2.1l7.3-4.2c0.3-0.2,0.7-0.2,1,0l21.2,12.3c0.2,0.1,0.4,0.3,0.5,0.6l2.9,9.3L97,69.3
		c0.3,0.2,0.4,0.5,0.4,0.8v8c0,0.4-0.2,0.7-0.5,0.9L79.3,89C79.2,89.1,79,89.1,78.8,89.1z M32.7,60.3L78.8,87l16.5-9.6v-6.9
		l-10.7-8.1c-0.2-0.1-0.3-0.3-0.4-0.5l-2.9-9.2L61.1,41l-7.3,4.2c-0.3,0.2-0.7,0.2-1,0l-3.6-2.1l-16.5,9.5V60.3z"/>
	<ellipse transform="matrix(0.9201 -0.3916 0.3916 0.9201 -27.0963 31.7621)" class="st2" cx="64.3" cy="82.3" rx="3.4" ry="6"/>
	<path class="st1" d="M65.9,88.9c-0.7,0-1.4-0.2-2-0.6l0,0c-2.5-1.4-4.4-5.1-4.4-8.3c-0.1-1.6,0.6-3.1,1.8-4
		c1.1-0.6,2.5-0.5,3.5,0.2c2.5,1.4,4.4,5.1,4.4,8.3c0.1,1.6-0.6,3.1-1.8,4C66.9,88.8,66.4,88.9,65.9,88.9z M64.9,86.6
		c0.4,0.3,1,0.4,1.5,0.2c0.6-0.6,1-1.4,0.8-2.3c0-2.5-1.6-5.5-3.4-6.6c-0.4-0.3-1-0.4-1.5-0.2c-0.6,0.6-1,1.4-0.8,2.3
		C61.5,82.5,63,85.5,64.9,86.6L64.9,86.6z"/>
	<ellipse transform="matrix(0.9201 -0.3916 0.3916 0.9201 -23.6826 21.6386)" class="st2" cx="41.2" cy="68.9" rx="3.4" ry="6"/>
	<path class="st1" d="M42.7,75.5c-0.7,0-1.4-0.2-2-0.6l0,0c-2.5-1.4-4.4-5.1-4.4-8.3c-0.1-1.6,0.6-3.1,1.8-4
		c1.1-0.6,2.5-0.5,3.5,0.2c2.5,1.4,4.4,5.1,4.4,8.3c0.1,1.6-0.6,3.1-1.8,4C43.8,75.4,43.2,75.5,42.7,75.5z M41.7,73.2
		c0.4,0.3,1,0.4,1.5,0.2c0.6-0.6,1-1.4,0.8-2.3c0-2.5-1.6-5.5-3.4-6.6c-0.4-0.3-1-0.4-1.5-0.2c-0.6,0.6-1,1.4-0.8,2.3
		C38.3,69.1,39.8,72.1,41.7,73.2L41.7,73.2z"/>
	<rect x="1" y="1" class="st4" width="126" height="126"/>
	<g>
		<rect class="st4" width="128" height="128"/>
	</g>
</g>
</svg>
