<?xml version="1.0" encoding="utf-8"?>
<!-- Generator: Adobe Illustrator 24.1.2, SVG Export Plug-In . SVG Version: 6.00 Build 0)  -->
<svg version="1.1" id="Layer_1" xmlns="http://www.w3.org/2000/svg" xmlns:xlink="http://www.w3.org/1999/xlink" x="0px" y="0px"
	 width="440px" height="300px" viewBox="0 0 440 300" style="enable-background:new 0 0 440 300;" xml:space="preserve">
<style type="text/css">
	.st0{fill:#FFFFFF;}
	.st1{fill:#0E352C;}
	.st2{fill:#E9EBDF;}
	.st3{fill:#4D9987;}
	.st4{fill:none;}
</style>
<g>
	<path class="st0" d="M291,112.5L291,112.5l-27.4-15.8l0,0c-3.2-1.8-7.4-1.7-11.9,0.9l-2,1.1l-23.4-13.5l0,0
		c-5.3-3.1-12.3-2.8-19.9,1.6c-15.9,9.2-28.9,32.9-30.3,54.5l-15,8.7c-10.1,5.8-18.3,21.4-18.3,34.9l0,0c0,7.4,2.5,12.5,6.3,14.7
		l0,0l27.4,15.8l0,0c3.2,1.8,7.4,1.7,11.9-1l90.7-52.3c10.1-5.8,18.3-21.4,18.3-34.9l0,0C297.3,119.9,294.8,114.8,291,112.5z"/>
	<path class="st1" d="M181.1,217.7c-1.8,0-3.5-0.4-5.1-1.3c0,0-0.1,0-0.1-0.1l-27.4-15.8c-0.1,0-0.1-0.1-0.2-0.1
		c-4.2-2.6-6.6-8.2-6.6-15.5c0-13.7,8.4-29.8,18.8-35.7l14.6-8.4c1.6-22,14.7-45.5,30.8-54.7c7.6-4.4,14.9-5,20.8-1.7
		c0,0,0.1,0,0.1,0.1l22.9,13.2l1.5-0.9c4.6-2.7,9.1-3,12.7-1.1c0.1,0,0.1,0.1,0.2,0.1l27.4,15.8c0,0,0.1,0,0.1,0.1
		c4.3,2.5,6.7,8.2,6.7,15.6c0,13.7-8.4,29.8-18.8,35.7l-90.7,52.4C186.5,216.8,183.8,217.6,181.1,217.7z M176.8,214.6
		c0,0,0.1,0,0.1,0.1c3,1.7,6.9,1.4,10.9-1l90.7-52.3c9.8-5.7,17.8-20.9,17.8-34c0-6.7-2.1-11.8-5.8-13.9c0,0-0.1,0-0.1-0.1
		l-27.1-15.6c-0.1,0-0.1,0-0.2-0.1c-3-1.7-6.9-1.4-10.9,0.9l-2,1.1c-0.3,0.2-0.7,0.2-1,0l-23.3-13.5c0,0-0.1,0-0.1-0.1
		c-5.2-3-11.9-2.4-18.9,1.6c-15.4,8.9-28.4,32.4-29.8,53.6c0,0.3-0.2,0.6-0.5,0.8l-15,8.7c-9.8,5.7-17.8,20.9-17.8,34
		c0,6.7,2.1,11.7,5.8,13.9c0.1,0,0.1,0.1,0.2,0.1L176.8,214.6z"/>
	<path class="st2" d="M279,113.5l-15,8.7c-1.4-19.9-14.4-28.6-30.3-19.5s-28.9,32.9-30.3,54.5l-15,8.7
		c-10.1,5.8-18.3,21.4-18.3,34.9s8.2,19.6,18.3,13.8l90.7-52.3c10.1-5.8,18.3-21.4,18.3-34.9l0,0C297.3,113.9,289.1,107.7,279,113.5
		z"/>
	<path class="st1" d="M181.1,217.7c-1.8,0-3.5-0.4-5.1-1.3c0,0-0.1,0-0.1-0.1l-27.4-15.8c-0.1,0-0.1-0.1-0.2-0.1
		c-4.2-2.6-6.6-8.2-6.6-15.5c0-13.7,8.4-29.8,18.8-35.7l14.6-8.4c1.6-22,14.7-45.5,30.8-54.7c7.6-4.4,14.9-5,20.8-1.7
		c0,0,0.1,0,0.1,0.1l22.9,13.2l1.5-0.9c4.6-2.7,9.1-3,12.7-1.1c0.1,0,0.1,0.1,0.2,0.1l27.4,15.8c0,0,0.1,0,0.1,0.1
		c4.3,2.5,6.7,8.2,6.7,15.6c0,13.7-8.4,29.8-18.8,35.7l-90.7,52.4C186.5,216.8,183.8,217.6,181.1,217.7z M176.8,214.6
		c0,0,0.1,0,0.1,0.1c3,1.7,6.9,1.4,10.9-1l90.7-52.3c9.8-5.7,17.8-20.9,17.8-34c0-6.7-2.1-11.8-5.8-13.9c0,0-0.1,0-0.1-0.1
		l-27.1-15.6c-0.1,0-0.1,0-0.2-0.1c-3-1.7-6.9-1.4-10.9,0.9l-2,1.1c-0.3,0.2-0.7,0.2-1,0l-23.3-13.5c0,0-0.1,0-0.1-0.1
		c-5.2-3-11.9-2.4-18.9,1.6c-15.4,8.9-28.4,32.4-29.8,53.6c0,0.3-0.2,0.6-0.5,0.8l-15,8.7c-9.8,5.7-17.8,20.9-17.8,34
		c0,6.7,2.1,11.7,5.8,13.9c0.1,0,0.1,0.1,0.2,0.1L176.8,214.6z"/>
	<path class="st3" d="M170.1,201.7c-0.6,0-1-0.4-1-1c0-13.7,8.4-29.8,18.8-35.7l14.6-8.4c1.6-22,14.7-45.5,30.8-54.7
		c7.4-4.3,14.7-4.9,20.4-1.9c6.3,3.3,10.2,10.6,11.2,20.6l13.7-7.9c0.5-0.3,1.1-0.1,1.4,0.4s0.1,1.1-0.4,1.4l-15,8.7
		c-0.5,0.3-1.1,0.1-1.4-0.4c-0.1-0.1-0.1-0.3-0.1-0.4c-0.7-10-4.4-17.3-10.3-20.5c-5.1-2.7-11.7-2.1-18.5,1.8
		c-15.4,8.9-28.4,32.4-29.8,53.6c0,0.3-0.2,0.6-0.5,0.8l-15,8.7c-9.8,5.7-17.8,20.9-17.8,34C171.1,201.3,170.6,201.7,170.1,201.7
		L170.1,201.7z"/>
	<rect y="50" class="st4" width="440" height="200"/>
	<rect class="st4" width="440" height="300"/>
</g>
</svg>
