<?xml version="1.0" encoding="utf-8"?>
<!-- Generator: Adobe Illustrator 24.1.2, SVG Export Plug-In . SVG Version: 6.00 Build 0)  -->
<svg version="1.1" id="Layer_1" xmlns="http://www.w3.org/2000/svg" xmlns:xlink="http://www.w3.org/1999/xlink" x="0px" y="0px"
	 width="440px" height="300px" viewBox="0 0 440 300" style="enable-background:new 0 0 440 300;" xml:space="preserve">
<style type="text/css">
	.st0{fill:#E9EBDF;}
	.st1{fill:#0E352C;}
	.st2{fill:#FFFFFF;}
	.st3{fill:#4D9987;}
	.st4{fill:none;}
</style>
<g>
	<path class="st0" d="M286.5,156.6c0-0.1-0.1-0.1-0.1-0.2c-0.3-0.4-0.7-0.7-1-1.1c-0.2-0.2-0.4-0.4-0.6-0.6
		c-0.3-0.3-0.6-0.6-0.9-0.8c-0.3-0.3-0.5-0.5-0.8-0.7s-0.5-0.4-0.8-0.7s-0.7-0.5-1-0.8c-0.2-0.2-0.4-0.3-0.6-0.5
		c-0.6-0.4-1.1-0.8-1.7-1.1l-15-8.7c-0.9-13.7-6.5-28.4-14.6-39.6c-0.1-0.1-0.2-0.3-0.3-0.4c-0.6-0.8-1.2-1.6-1.8-2.3
		c-0.1-0.1-0.1-0.2-0.2-0.3c-0.6-0.7-1.2-1.4-1.8-2.1c-0.1-0.1-0.1-0.1-0.2-0.2c-0.6-0.7-1.3-1.4-1.9-2c-0.1-0.1-0.2-0.2-0.4-0.4
		c-0.7-0.7-1.3-1.3-2-1.9c-0.1-0.1-0.1-0.1-0.2-0.2c-0.6-0.6-1.3-1.1-1.9-1.6c-0.1-0.1-0.2-0.2-0.4-0.3c-0.7-0.5-1.4-1-2.1-1.5
		c-0.1-0.1-0.3-0.2-0.4-0.3c-0.7-0.5-1.4-0.9-2.2-1.4c-1-0.5-1.9-1-2.8-1.5c-1.3-0.6-2.7-1.1-4.1-1.5c-0.4-0.1-0.9-0.2-1.3-0.3
		c-0.8-0.2-1.7-0.3-2.6-0.4c-0.4,0-0.8,0-1.2,0c-1.6,0-3.2,0.2-4.7,0.7c-1.1,0.3-2.2,0.8-3.2,1.4l0,0l-23.4,13.5l-2-1.1
		c-1.5-0.9-3.2-1.6-4.9-1.9c-2.4-0.5-4.9-0.2-7,1l0,0L149,112.5l0,0c-3.9,2.2-6.3,7.4-6.3,14.8l0,0c0,13.4,8.2,29.1,18.3,34.9
		l90.7,52.3c4.6,2.6,8.7,2.8,11.9,1l0,0l27.4-15.8l0,0c3.9-2.2,6.3-7.4,6.3-14.7l0,0C297.3,175.1,292.9,164.1,286.5,156.6z"/>
	<path class="st1" d="M258.9,217.7c-2.7-0.1-5.4-0.9-7.7-2.3L160.5,163c-10.3-6-18.8-22-18.8-35.7c0-7.4,2.4-13,6.7-15.6l0.1-0.1
		l27.4-15.8c0.1,0,0.1-0.1,0.2-0.1c2.3-1.2,5-1.6,7.5-1c1.8,0.4,3.6,1.1,5.2,2.1l1.5,0.9l22.9-13.2c0,0,0.1,0,0.1-0.1
		c1-0.6,2.1-1,3.2-1.4c1.6-0.5,3.3-0.7,5-0.7c0.4,0,0.9,0,1.3,0c0.9,0.1,1.8,0.2,2.7,0.4c0.5,0.1,0.9,0.2,1.4,0.3
		c1.5,0.4,2.9,0.9,4.2,1.5c1,0.4,1.9,0.9,2.9,1.5c0.7,0.4,1.4,0.8,2.2,1.4l0.4,0.3c0.7,0.5,1.4,1,2.1,1.5l0.4,0.3
		c0.7,0.6,1.4,1.1,2,1.7l0.2,0.2c0.6,0.6,1.3,1.2,2,1.9l0.4,0.4c0.7,0.7,1.4,1.4,2,2.1L246,96c0.6,0.7,1.2,1.4,1.8,2.2l0.2,0.3
		c0.6,0.8,1.2,1.6,1.8,2.4l0.3,0.4c8.3,11.5,13.8,26.2,14.8,39.6l14.6,8.4c0.6,0.3,1.2,0.7,1.8,1.2c0.1,0.1,0.3,0.2,0.4,0.3l0.2,0.2
		c0.4,0.3,0.7,0.5,1.1,0.8c0.3,0.2,0.5,0.5,0.8,0.7s0.6,0.5,0.8,0.8c0.3,0.3,0.6,0.6,0.9,0.9c0.2,0.2,0.4,0.4,0.6,0.6
		c0.4,0.4,0.7,0.8,1,1.2l0.1,0.1l-0.7,0.7l0.8-0.6c6.7,7.9,11,19.3,11,29c0,7.3-2.4,12.9-6.6,15.5c-0.1,0.1-0.1,0.1-0.2,0.1
		l-27.4,15.8c0,0-0.1,0-0.1,0.1C262.4,217.3,260.7,217.7,258.9,217.7z M149.7,113.3c0,0-0.1,0-0.1,0.1c-3.7,2.1-5.8,7.2-5.8,13.9
		c0,13.1,8,28.4,17.8,34l90.7,52.3c4.1,2.3,7.9,2.7,10.9,1c0,0,0.1,0,0.1-0.1l27.1-15.6c0.1,0,0.1-0.1,0.2-0.1
		c3.7-2.1,5.8-7.2,5.8-13.9c0-9.3-4.1-20.2-10.5-27.7l0,0l-0.1-0.1c-0.4-0.4-0.7-0.8-1-1.1c-0.2-0.2-0.4-0.4-0.6-0.6
		c-0.3-0.3-0.6-0.6-0.8-0.8c-0.3-0.2-0.5-0.5-0.8-0.7c-0.2-0.2-0.5-0.4-0.7-0.6c-0.3-0.3-0.7-0.5-1-0.8l-0.2-0.2
		c-0.1-0.1-0.2-0.2-0.4-0.3c-0.6-0.4-1.1-0.8-1.6-1.1l-15-8.7c-0.3-0.2-0.5-0.5-0.5-0.8c-0.8-13.1-6.2-27.7-14.4-39.1l-0.3-0.4
		c-0.6-0.8-1.2-1.6-1.8-2.3l-0.2-0.2c-0.6-0.7-1.2-1.4-1.8-2.1l-0.2-0.2c-0.6-0.7-1.2-1.3-1.9-2l-0.4-0.4c-0.7-0.7-1.3-1.3-2-1.9
		l-0.2-0.1c-0.6-0.5-1.2-1.1-1.9-1.6l-0.3-0.3c-0.6-0.5-1.3-1-2-1.5l-0.3-0.2c-0.9-0.6-1.6-1-2.2-1.4c-0.9-0.5-1.8-1-2.7-1.4
		c-1.3-0.6-2.6-1.1-3.9-1.4c-0.4-0.1-0.8-0.2-1.3-0.3c-0.8-0.2-1.6-0.3-2.4-0.3c-0.4-0.1-0.8-0.1-1.2,0c-1.5,0-3,0.2-4.4,0.6
		c-1,0.3-2,0.7-3,1.3c0,0-0.1,0-0.1,0.1L191,99.8c-0.3,0.2-0.7,0.2-1,0l-2-1.1c-1.4-0.9-3-1.5-4.6-1.8c-2.1-0.5-4.4-0.2-6.3,0.9
		c-0.1,0-0.1,0.1-0.2,0.1L149.7,113.3z"/>
	<path class="st0" d="M190.4,99.5c0-0.4,0-0.7,0-0.7l-2-1.1c-4.6-2.6-8.7-2.8-11.9-0.9l0,0L149,112.5l0,0c3.2-1.8,7.4-1.7,11.9,0.9
		l15,8.7C176.9,109.6,182.4,101.5,190.4,99.5z"/>
	<path class="st2" d="M142.7,127.3L142.7,127.3c0,13.4,8.2,29.1,18.3,34.9l90.7,52.3c10.1,5.8,18.3-0.4,18.3-13.8
		s-8.2-29.1-18.3-34.9l-15-8.7c-1.4-21.5-14.4-45.3-30.3-54.5s-28.9-0.5-30.3,19.5l-15-8.7C150.9,107.7,142.7,113.9,142.7,127.3z"/>
	<path class="st1" d="M258.9,217.7c-2.7-0.1-5.4-0.9-7.7-2.3L160.5,163c-10.3-6-18.8-22-18.8-35.7c0-7.4,2.4-13,6.7-15.6l0.1-0.1
		l27.4-15.8c0.1,0,0.1-0.1,0.2-0.1c2.3-1.2,5-1.6,7.5-1c1.8,0.4,3.6,1.1,5.2,2.1l1.5,0.9l22.9-13.2c0,0,0.1,0,0.1-0.1
		c1-0.6,2.1-1,3.2-1.4c1.6-0.5,3.3-0.7,5-0.7c0.4,0,0.9,0,1.3,0c0.9,0.1,1.8,0.2,2.7,0.4c0.5,0.1,0.9,0.2,1.4,0.3
		c1.5,0.4,2.9,0.9,4.2,1.5c1,0.4,1.9,0.9,2.9,1.5c0.7,0.4,1.4,0.8,2.2,1.4l0.4,0.3c0.7,0.5,1.4,1,2.1,1.5l0.4,0.3
		c0.7,0.6,1.4,1.1,2,1.7l0.2,0.2c0.6,0.6,1.3,1.2,2,1.9l0.4,0.4c0.7,0.7,1.4,1.4,2,2.1L246,96c0.6,0.7,1.2,1.4,1.8,2.2l0.2,0.3
		c0.6,0.8,1.2,1.6,1.8,2.4l0.3,0.4c8.3,11.5,13.8,26.2,14.8,39.6l14.6,8.4c0.6,0.3,1.2,0.7,1.8,1.2c0.1,0.1,0.3,0.2,0.4,0.3l0.2,0.2
		c0.4,0.3,0.7,0.5,1.1,0.8c0.3,0.2,0.5,0.5,0.8,0.7s0.6,0.5,0.8,0.8c0.3,0.3,0.6,0.6,0.9,0.9c0.2,0.2,0.4,0.4,0.6,0.6
		c0.4,0.4,0.7,0.8,1,1.2l0.1,0.1l-0.7,0.7l0.8-0.6c6.7,7.9,11,19.3,11,29c0,7.3-2.4,12.9-6.6,15.5c-0.1,0.1-0.1,0.1-0.2,0.1
		l-27.4,15.8c0,0-0.1,0-0.1,0.1C262.4,217.3,260.7,217.7,258.9,217.7z M149.7,113.3c0,0-0.1,0-0.1,0.1c-3.7,2.1-5.8,7.2-5.8,13.9
		c0,13.1,8,28.4,17.8,34l90.7,52.3c4.1,2.3,7.9,2.7,10.9,1c0,0,0.1,0,0.1-0.1l27.1-15.6c0.1,0,0.1-0.1,0.2-0.1
		c3.7-2.1,5.8-7.2,5.8-13.9c0-9.3-4.1-20.2-10.5-27.7l0,0l-0.1-0.1c-0.4-0.4-0.7-0.8-1-1.1c-0.2-0.2-0.4-0.4-0.6-0.6
		c-0.3-0.3-0.6-0.6-0.8-0.8c-0.3-0.2-0.5-0.5-0.8-0.7c-0.2-0.2-0.5-0.4-0.7-0.6c-0.3-0.3-0.7-0.5-1-0.8l-0.2-0.2
		c-0.1-0.1-0.2-0.2-0.4-0.3c-0.6-0.4-1.1-0.8-1.6-1.1l-15-8.7c-0.3-0.2-0.5-0.5-0.5-0.8c-0.8-13.1-6.2-27.7-14.4-39.1l-0.3-0.4
		c-0.6-0.8-1.2-1.6-1.8-2.3l-0.2-0.2c-0.6-0.7-1.2-1.4-1.8-2.1l-0.2-0.2c-0.6-0.7-1.2-1.3-1.9-2l-0.4-0.4c-0.7-0.7-1.3-1.3-2-1.9
		l-0.2-0.1c-0.6-0.5-1.2-1.1-1.9-1.6l-0.3-0.3c-0.6-0.5-1.3-1-2-1.5l-0.3-0.2c-0.9-0.6-1.6-1-2.2-1.4c-0.9-0.5-1.8-1-2.7-1.4
		c-1.3-0.6-2.6-1.1-3.9-1.4c-0.4-0.1-0.8-0.2-1.3-0.3c-0.8-0.2-1.6-0.3-2.4-0.3c-0.4-0.1-0.8-0.1-1.2,0c-1.5,0-3,0.2-4.4,0.6
		c-1,0.3-2,0.7-3,1.3c0,0-0.1,0-0.1,0.1L191,99.8c-0.3,0.2-0.7,0.2-1,0l-2-1.1c-1.4-0.9-3-1.5-4.6-1.8c-2.1-0.5-4.4-0.2-6.3,0.9
		c-0.1,0-0.1,0.1-0.2,0.1L149.7,113.3z"/>
	<path class="st3" d="M269.9,201.7c-0.6,0-1-0.4-1-1c0-13.1-8-28.4-17.8-34l-15-8.7c-0.3-0.2-0.5-0.5-0.5-0.8
		c-1.4-21.2-14.4-44.8-29.8-53.6c-6.8-3.9-13.3-4.6-18.5-1.8c-6,3.2-9.6,10.5-10.3,20.5c0,0.6-0.5,1-1.1,0.9c-0.2,0-0.3-0.1-0.4-0.1
		l-15-8.7c-0.5-0.3-0.6-0.9-0.4-1.4c0.3-0.5,0.9-0.6,1.4-0.4l0,0l13.7,7.9c1-9.9,5-17.2,11.2-20.6c5.8-3.1,13-2.4,20.4,1.9
		c16,9.2,29.2,32.7,30.8,54.7l14.6,8.4c10.3,6,18.8,22,18.8,35.7C270.9,201.3,270.5,201.7,269.9,201.7z"/>
	<rect y="50" class="st4" width="440" height="200"/>
	<rect class="st4" width="440" height="300"/>
</g>
</svg>
