<?xml version="1.0" encoding="utf-8"?>
<!-- Generator: Adobe Illustrator 24.1.2, SVG Export Plug-In . SVG Version: 6.00 Build 0)  -->
<svg version="1.1" id="Layer_1" xmlns="http://www.w3.org/2000/svg" xmlns:xlink="http://www.w3.org/1999/xlink" x="0px" y="0px"
	 width="128px" height="128px" viewBox="0 0 128 128" style="enable-background:new 0 0 128 128;" xml:space="preserve">
<style type="text/css">
	.st0{fill:#E9EBDF;}
	.st1{fill:#FFFFFF;}
	.st2{fill:#0E352C;}
	.st3{fill:#4D9987;}
	.st4{fill:none;}
</style>
<g>
	<path class="st0" d="M103,76L40.4,39.8c-6.2-3.6-15-4.6-22.8-3.2l0.8-3.2H2V49l0,0c0,3.3,2.2,6.6,6.6,9.2L20.4,65L13,64v15.6l0,0
		c0,5.5,3.7,11.1,11,15.3c13.8,8,35.8,8.4,50.6,1.3l13.1,7.6c8.8,5.1,23,5.1,31.8,0c4.4-2.5,6.6-5.9,6.6-9.2l0,0V79L103,76z"/>
	<path class="st1" d="M15.9,72.5c2.2,2.8,4.9,5.2,8,6.9c13.8,8,35.8,8.4,50.6,1.3l13.1,7.6c8.8,5.1,23,5.1,31.8,0s8.8-13.3,0-18.4
		l-79-45.6c-8.8-5.1-23-5.1-31.8,0l0,0c-8.8,5.1-8.8,13.3,0,18.4l13.1,7.6C12.5,56.5,10.6,65.2,15.9,72.5"/>
	<path class="st2" d="M103.5,108.6c-5.7,0.1-11.4-1.2-16.4-3.9l-12.6-7.3c-15.2,7.1-37.1,6.5-51-1.6C16.1,91.5,12,85.8,12,79.7v-0.1
		V64v-0.1c0-0.8,0.1-1.7,0.3-2.5L8.1,59C3.5,56.4,1,52.8,1,49V33.4c0-3.8,2.5-7.4,7.1-10c9-5.2,23.8-5.2,32.8,0l79,45.6
		c4.6,2.6,7.1,6.2,7.1,10.1v15.6c0,3.8-2.5,7.4-7.1,10.1C114.9,107.3,109.2,108.7,103.5,108.6z M74.5,95.2c0.2,0,0.3,0,0.5,0.1
		l13.1,7.6c8.5,4.9,22.3,4.9,30.8,0c3.9-2.3,6.1-5.2,6.1-8.3V79c0-3.1-2.2-6.1-6.1-8.3l-79-45.6c-8.5-4.9-22.3-4.9-30.8,0
		C5.2,27.3,3,30.3,3,33.4V49c0,3.1,2.2,6.1,6.1,8.3l4.8,2.7c0.4,0.2,0.6,0.7,0.5,1.1c-0.3,1-0.4,2-0.4,2.9c0,0,0,0,0,0.1v15.4
		c0,0,0,0,0,0.1C14,85,17.7,90.1,24.5,94c13.4,7.7,35.1,8.3,49.6,1.3C74.2,95.3,74.3,95.2,74.5,95.2z"/>
	<path class="st3" d="M103.5,93c-5.7,0.1-11.4-1.2-16.4-3.9l-12.6-7.3c-15.2,7.1-37.1,6.5-51-1.6c-3.2-1.8-6-4.2-8.2-7
		c-0.3-0.4-0.3-1.1,0.2-1.4s1.1-0.3,1.4,0.2l0,0c2.1,2.7,4.7,4.9,7.6,6.5c13.4,7.7,35.1,8.3,49.6,1.3c0.3-0.1,0.6-0.1,0.9,0
		l13.1,7.6c8.5,4.9,22.3,4.9,30.8,0c0.5-0.3,1.1-0.1,1.4,0.4s0.1,1.1-0.4,1.4l0,0C114.9,91.7,109.2,93.1,103.5,93z"/>
	<path class="st3" d="M15.1,57.7c-0.6,0-1-0.4-1-1c0-0.2,0.1-0.4,0.2-0.5c1.5-2.3,3.4-4.3,5.6-6L8.1,43.4c-0.5-0.3-0.6-0.9-0.4-1.4
		c0.3-0.5,0.9-0.6,1.4-0.4l0,0l13.1,7.6c0.5,0.3,0.6,0.9,0.4,1.4c-0.1,0.1-0.2,0.2-0.3,0.3c-2.5,1.6-4.6,3.8-6.3,6.3
		C15.8,57.6,15.5,57.7,15.1,57.7z"/>
	<rect x="1" y="1" class="st4" width="126" height="126"/>
	<g>
		<rect class="st4" width="128" height="128"/>
	</g>
</g>
</svg>
