<?xml version="1.0" encoding="utf-8"?>
<!-- Generator: Adobe Illustrator 24.1.2, SVG Export Plug-In . SVG Version: 6.00 Build 0)  -->
<svg version="1.1" id="Layer_1" xmlns="http://www.w3.org/2000/svg" xmlns:xlink="http://www.w3.org/1999/xlink" x="0px" y="0px"
	 width="128px" height="128px" viewBox="0 0 128 128" style="enable-background:new 0 0 128 128;" xml:space="preserve">
<style type="text/css">
	.st0{fill:#C4D7D3;}
	.st1{fill:#27ae60;}
	.st2{fill:#FFFFFF;}
	.st3{fill:none;}
	.st4{fill:#185849;}
</style>
<g>
	<path class="st0" d="M87.1,69.3c-0.1-0.1-0.3-0.2-0.4-0.3c-12.5-7.2-32.8-7.2-45.3,0c-0.1,0.1-0.3,0.2-0.4,0.3h-9V80
		c0,4.7,3.1,9.5,9.4,13.1c12.5,7.2,32.8,7.2,45.3,0C92.9,89.5,96,84.7,96,80V69.3H87.1z"/>
	<path class="st1" d="M86.6,93.1C92.9,89.5,96,84.7,96,80V69.3h-8.9c-0.1-0.1-0.3-0.2-0.4-0.3c-6.2-3.6-14.4-5.4-22.6-5.4v34.8
		C72.2,98.5,80.4,96.7,86.6,93.1z"/>
	<ellipse class="st0" cx="64" cy="69.3" rx="32" ry="18.5"/>
	<path class="st2" d="M64,88.8c-8.4,0-16.8-1.8-23.1-5.5s-9.9-8.7-9.9-14s3.5-10.3,9.9-13.9c12.8-7.4,33.5-7.4,46.3,0l0,0
		C93.5,59.1,97,64,97,69.3s-3.5,10.3-9.9,13.9S72.4,88.8,64,88.8z M64,51.9c-8,0-16,1.8-22.1,5.3c-5.7,3.3-8.9,7.6-8.9,12.2
		s3.2,8.9,8.9,12.2c12.2,7,32.1,7,44.3,0c5.7-3.3,8.9-7.6,8.9-12.2s-3.2-8.9-8.9-12.2l0,0C80,53.6,72,51.9,64,51.9z"/>
	<ellipse class="st3" cx="64" cy="80" rx="32" ry="18.5"/>
	<path class="st4" d="M64,99.5c-8.7,0-16.9-2-23.1-5.5c-6.4-3.7-9.9-8.7-9.9-14V69.3c0-5.3,3.5-10.3,9.9-13.9
		c12.8-7.4,33.5-7.4,46.3,0C93.5,59.1,97,64,97,69.3V80c0,2-0.5,4-1.4,5.7c-2,3.5-4.9,6.3-8.4,8.2c-3.4,1.9-7.1,3.3-10.9,4.2
		c-1,0.2-2,0.4-3,0.6c-2,0.3-4.1,0.6-6.2,0.7C66.1,99.4,65,99.5,64,99.5z M64,51.9c-8,0-16,1.8-22.1,5.3c-5.7,3.3-8.9,7.6-8.9,12.2
		V80c0,4.6,3.2,8.9,8.9,12.2c5.9,3.4,13.8,5.3,22.1,5.3c1,0,2,0,3-0.1c2-0.1,4-0.3,5.9-0.7c1-0.2,2-0.4,2.9-0.6
		c3.6-0.8,7.1-2.1,10.3-3.9c3.2-1.7,5.9-4.3,7.7-7.4c0.8-1.5,1.2-3.1,1.2-4.8l0,0V69.3c0-4.6-3.2-8.9-8.9-12.2
		C80,53.6,72,51.9,64,51.9z"/>
	<path class="st1" d="M50.4,70.1c-0.1,0-0.2,0-0.3-0.1l-4.3-2.5c-0.1-0.1-0.2-0.2-0.1-0.3c0.1-0.1,0.3-0.2,0.5-0.2l14.5,0.7
		c0.3,0,0.6-0.1,0.6-0.3L60,59c0-0.1,0.1-0.2,0.2-0.3c0.2-0.1,0.4-0.1,0.6,0l4.2,2.4c0.1,0,0.1,0.1,0.1,0.2l1.4,9.1v0.1
		c0,0.1-0.2,0.3-0.4,0.3h-0.2L50.4,70.1z"/>
	<path class="st1" d="M68.8,70.7c0,0.1,0.2,0.3,0.5,0.3l12.6,0.7c0.2,0,0.3,0,0.5-0.1c0.1-0.1,0.1-0.3-0.1-0.4l-4.2-2.4
		c-0.1,0-0.2-0.1-0.3-0.1L69,68.1c-0.3,0-0.6,0.1-0.6,0.3L68.8,70.7z"/>
	<path class="st1" d="M66.3,72.1c0.3,0,0.5,0.1,0.5,0.3l1.3,7.3c0,0.1-0.1,0.2-0.2,0.3c-0.2,0.1-0.4,0.1-0.6,0L63,77.5
		c-0.1,0-0.1-0.1-0.1-0.2l-0.8-5.1c0-0.2,0.2-0.3,0.6-0.3L66.3,72.1z"/>
	<path class="st0" d="M87.1,58.7c-0.1-0.1-0.3-0.2-0.4-0.3c-12.5-7.2-32.8-7.2-45.3,0c-0.2,0.1-0.3,0.2-0.4,0.3h-9v10.7
		c0,4.7,3.1,9.5,9.4,13.1c12.5,7.2,32.8,7.2,45.3,0c6.2-3.6,9.4-8.3,9.4-13.1V58.7H87.1z"/>
	<path class="st1" d="M86.6,82.4c6.2-3.6,9.4-8.3,9.4-13.1V58.7h-8.9c-0.1-0.1-0.3-0.2-0.4-0.3C80.4,54.8,72.2,53,64,53v34.8
		C72.2,87.8,80.4,86,86.6,82.4z"/>
	<ellipse class="st0" cx="64" cy="58.7" rx="32" ry="18.5"/>
	<path class="st2" d="M64,78.1c-8.4,0-16.8-1.8-23.1-5.5S31,64,31,58.7s3.5-10.3,9.9-13.9c12.8-7.4,33.5-7.4,46.3,0l0,0
		c6.4,3.7,9.9,8.6,9.9,13.9S93.6,69,87.2,72.6S72.4,78.1,64,78.1z M64,41.2c-8,0-16,1.8-22.1,5.3c-5.7,3.3-8.9,7.6-8.9,12.2
		s3.2,8.9,8.9,12.2c12.2,7,32.1,7,44.3,0c5.7-3.3,8.9-7.6,8.9-12.2s-3.2-8.9-8.9-12.2C80,42.9,72,41.2,64,41.2z"/>
	<ellipse class="st3" cx="64" cy="69.3" rx="32" ry="18.5"/>
	<path class="st4" d="M64,88.8c-8.7,0-16.9-2-23.1-5.5c-6.4-3.7-9.9-8.6-9.9-13.9V58.7c0-5.3,3.5-10.3,9.9-13.9
		c12.8-7.4,33.5-7.4,46.3,0c6.4,3.7,9.9,8.6,9.9,13.9v10.7c0,2-0.5,4-1.4,5.7c-2,3.5-4.9,6.3-8.4,8.2c-3.4,1.9-7.1,3.3-10.9,4.2
		c-1,0.2-2,0.4-3,0.6c-2,0.3-4.1,0.6-6.2,0.7C66.1,88.8,65.1,88.8,64,88.8z M64,41.2c-8,0-16,1.8-22.1,5.3
		c-5.7,3.3-8.9,7.6-8.9,12.2v10.7c0,4.6,3.2,8.9,8.9,12.2c5.9,3.4,13.8,5.3,22.1,5.3c1,0,2,0,3-0.1c2-0.1,4-0.3,5.9-0.7
		c1-0.2,1.9-0.4,2.9-0.6c3.6-0.8,7.1-2.1,10.3-4c3.2-1.7,5.9-4.3,7.7-7.4c0.8-1.5,1.2-3.1,1.2-4.8l0,0V58.7c0-4.6-3.2-8.9-8.9-12.2
		C80,42.9,72,41.2,64,41.2z"/>
	<path class="st1" d="M50.4,59.4c-0.1,0-0.2,0-0.3-0.1l-4.3-2.5c-0.1-0.1-0.2-0.2-0.1-0.3c0.1-0.1,0.3-0.2,0.5-0.2L60.7,57
		c0.3,0,0.6-0.1,0.6-0.3L60,48.3c0-0.1,0.1-0.2,0.2-0.3c0.2-0.1,0.4-0.1,0.6,0l4.2,2.4c0.1,0,0.1,0.1,0.1,0.2l1.4,9.1v0.1
		c0,0.1-0.2,0.3-0.4,0.3h-0.2L50.4,59.4z"/>
	<path class="st1" d="M68.8,60c0,0.1,0.2,0.3,0.5,0.3L81.9,61c0.2,0,0.3,0,0.5-0.1c0.1-0.1,0.1-0.3-0.1-0.4l-4.2-2.4
		C78,58,77.9,58,77.8,58L69,57.5c-0.3,0-0.6,0.1-0.6,0.3L68.8,60z"/>
	<path class="st1" d="M66.3,61.4c0.3,0,0.5,0.1,0.5,0.3L68,69c0,0.1-0.1,0.2-0.2,0.3c-0.2,0.1-0.4,0.1-0.6,0L63,66.8
		c-0.1,0-0.1-0.1-0.1-0.2l-0.8-5.1c0-0.2,0.2-0.3,0.6-0.3L66.3,61.4z"/>
	<path class="st0" d="M87.1,48c-0.1-0.1-0.3-0.2-0.4-0.3c-12.5-7.2-32.8-7.2-45.3,0c-0.1,0.1-0.3,0.2-0.4,0.3h-9v10.7
		c0,4.7,3.1,9.5,9.4,13.1c12.5,7.2,32.8,7.2,45.3,0c6.2-3.6,9.4-8.3,9.4-13.1V48H87.1z"/>
	<path class="st1" d="M86.6,71.7c6.2-3.6,9.4-8.3,9.4-13.1V48h-8.9c-0.1-0.1-0.3-0.2-0.4-0.3c-6.2-3.6-14.4-5.4-22.6-5.4v34.8
		C72.2,77.1,80.4,75.3,86.6,71.7z"/>
	<ellipse class="st0" cx="64" cy="48" rx="32" ry="18.5"/>
	<path class="st2" d="M64,67.5c-8.4,0-16.8-1.8-23.1-5.5S31,53.3,31,48s3.5-10.3,9.9-13.9c12.8-7.4,33.5-7.4,46.3,0l0,0
		C93.5,37.7,97,42.7,97,48s-3.5,10.3-9.9,13.9C80.7,65.5,72.4,67.5,64,67.5z M64,30.5c-8,0-16,1.8-22.1,5.3C36.2,39.1,33,43.4,33,48
		s3.2,8.9,8.9,12.2c12.2,7,32.1,7,44.3,0C91.8,56.9,95,52.6,95,48s-3.2-8.9-8.9-12.2l0,0C80,32.3,72,30.5,64,30.5z"/>
	<ellipse class="st3" cx="64" cy="58.7" rx="32" ry="18.5"/>
	<path class="st4" d="M64,78.1c-8.7,0-16.9-2-23.1-5.5C34.5,68.9,31,64,31,58.7V48c0-5.3,3.5-10.3,9.9-13.9
		c12.8-7.4,33.5-7.4,46.3,0C93.5,37.7,97,42.7,97,48v10.7c0,2-0.5,4-1.4,5.7c-2,3.5-4.9,6.3-8.4,8.2c-3.4,1.9-7.1,3.3-10.9,4.2
		c-1,0.2-2,0.4-3,0.6c-2,0.3-4.1,0.6-6.2,0.7C66.1,78.1,65.1,78.1,64,78.1z M64,30.5c-8,0-16,1.8-22.1,5.3C36.2,39.1,33,43.4,33,48
		v10.7c0,4.6,3.2,8.9,8.9,12.2c5.9,3.4,13.8,5.3,22.1,5.3c1,0,2,0,3-0.1c2-0.1,4-0.3,5.9-0.7c1-0.2,1.9-0.4,2.9-0.6
		c3.6-0.8,7.1-2.1,10.3-4c3.2-1.7,5.9-4.3,7.7-7.4c0.8-1.5,1.2-3.1,1.2-4.8l0,0V48c0-4.6-3.2-8.9-8.9-12.2C80,32.3,72,30.5,64,30.5z
		"/>
	<path class="st1" d="M50.4,48.7c-0.1,0-0.2,0-0.3-0.1l-4.3-2.5c-0.1-0.1-0.2-0.2-0.1-0.3c0.1-0.1,0.3-0.2,0.5-0.2l14.5,0.7
		c0.3,0,0.6-0.1,0.6-0.3L60,37.7c0-0.1,0.1-0.2,0.2-0.3c0.2-0.1,0.4-0.1,0.6,0l4.2,2.4c0.1,0,0.1,0.1,0.1,0.2l1.4,9.1v0.1
		c0,0.1-0.2,0.3-0.4,0.3h-0.2L50.4,48.7z"/>
	<path class="st1" d="M68.8,49.3c0,0.1,0.2,0.3,0.5,0.3l12.6,0.7c0.2,0,0.3,0,0.5-0.1c0.1-0.1,0.1-0.3-0.1-0.4l-4.2-2.4
		c-0.1,0-0.2-0.1-0.3-0.1L69,46.8c-0.3,0-0.6,0.1-0.6,0.3L68.8,49.3z"/>
	<path class="st1" d="M66.3,50.8c0.3,0,0.5,0.1,0.5,0.3l1.3,7.3c0,0.1-0.1,0.2-0.2,0.3c-0.2,0.1-0.4,0.1-0.6,0L63,56.2
		c-0.1,0-0.1-0.1-0.1-0.2l-0.8-5.1c0-0.2,0.2-0.3,0.6-0.3L66.3,50.8z"/>
	<rect x="1" y="1" class="st3" width="126" height="126"/>
	<g>
		<rect class="st3" width="128" height="128"/>
	</g>
</g>
</svg>
