<?xml version="1.0" encoding="utf-8"?>
<!-- Generator: Adobe Illustrator 24.1.2, SVG Export Plug-In . SVG Version: 6.00 Build 0)  -->
<svg version="1.1" id="Layer_1" xmlns="http://www.w3.org/2000/svg" xmlns:xlink="http://www.w3.org/1999/xlink" x="0px" y="0px"
	 width="440px" height="300px" viewBox="0 0 440 300" style="enable-background:new 0 0 440 300;" xml:space="preserve">
<style type="text/css">
	.st0{fill:#E9EBDF;}
	.st1{fill:#0E352C;}
	.st2{fill:#FFFFFF;}
	.st3{fill:none;}
</style>
<g>
	<path class="st0" d="M220,156.1c-0.2,0-0.3,0-0.5-0.1l-31.6-18.2c-0.5-0.3-0.6-0.9-0.4-1.4c0.1-0.2,0.2-0.3,0.4-0.4l31.6-18.2
		c0.3-0.2,0.7-0.2,1,0l31.6,18.2c0.5,0.3,0.6,0.9,0.4,1.4c-0.1,0.2-0.2,0.3-0.4,0.4L220.5,156C220.3,156,220.2,156.1,220,156.1z
		 M190.4,136.8l29.6,17.1l29.6-17.1l-29.6-17L190.4,136.8z"/>
	<path class="st0" d="M220,198.6c-0.6,0-1-0.4-1-1v-42.5c0-0.4,0.2-0.7,0.5-0.9l31.6-18.2c0.5-0.3,1.1-0.1,1.4,0.4
		c0.1,0.2,0.1,0.3,0.1,0.5v42.5c0,0.4-0.2,0.7-0.5,0.9l-31.6,18.2C220.3,198.5,220.2,198.6,220,198.6z M221,155.7v40.2l29.6-17.1
		v-40.2L221,155.7z"/>
	<path class="st0" d="M220,198.6c-0.2,0-0.3,0-0.5-0.1l-31.6-18.2c-0.3-0.2-0.5-0.5-0.5-0.9v-42.5c0-0.6,0.4-1,1-1
		c0.2,0,0.3,0,0.5,0.1l31.6,18.2c0.3,0.2,0.5,0.5,0.5,0.9v42.5C221,198.1,220.6,198.6,220,198.6z M189.4,178.7l29.6,17.1v-40.2
		l-29.6-17.1V178.7z"/>
	<polygon class="st0" points="248,213.7 248,171.3 279.6,153 279.6,195.5 	"/>
	<path class="st1" d="M248,214.7c-0.6,0-1-0.4-1-1v-42.5c0-0.4,0.2-0.7,0.5-0.9l31.6-18.2c0.5-0.3,1.1-0.1,1.4,0.4
		c0.1,0.2,0.1,0.3,0.1,0.5v42.5c0,0.4-0.2,0.7-0.5,0.9l-31.6,18.2C248.3,214.7,248.2,214.7,248,214.7z M249,171.8V212l29.6-17.1
		v-40.2L249,171.8z"/>
	<path class="st1" d="M220,156.1c-0.6,0-1-0.5-1-1c0-0.1,0-0.2,0.1-0.4c0.1-0.1,0.1-0.2,0.2-0.3c0.1-0.1,0.2-0.2,0.3-0.2
		c0.2-0.1,0.5-0.1,0.8,0c0.1,0.1,0.2,0.1,0.3,0.2c0.2,0.2,0.3,0.4,0.3,0.7s-0.1,0.5-0.3,0.7C220.5,156,220.3,156.1,220,156.1z"/>
	<path class="st1" d="M241.9,168.9c-0.5-0.3-0.6-0.9-0.4-1.4l0,0c0.3-0.5,0.9-0.6,1.4-0.4l0,0c0.5,0.3,0.6,0.9,0.4,1.4l0,0l0,0
		c-0.2,0.3-0.5,0.5-0.9,0.5l0,0C242.2,169,242,169,241.9,168.9z M236.3,165.6c-0.5-0.3-0.6-0.9-0.4-1.4l0,0c0.3-0.5,0.9-0.6,1.4-0.4
		l0,0c0.5,0.3,0.6,0.9,0.4,1.4l0,0c-0.2,0.3-0.5,0.5-0.9,0.5l0,0C236.6,165.8,236.4,165.7,236.3,165.6z M230.7,162.4
		c-0.5-0.3-0.6-0.9-0.4-1.3l0,0l0,0c0.3-0.5,0.9-0.6,1.3-0.4l0,0l0,0c0.5,0.3,0.6,0.9,0.4,1.4l0,0l0,0c-0.2,0.3-0.5,0.5-0.9,0.5l0,0
		C231,162.6,230.8,162.5,230.7,162.4z M225.1,159.2c-0.5-0.3-0.6-0.9-0.4-1.4l0,0l0,0c0.3-0.5,0.9-0.6,1.3-0.4l0,0l0,0
		c0.5,0.3,0.6,0.9,0.4,1.4l0,0l0,0c-0.2,0.3-0.5,0.5-0.9,0.5l0,0C225.4,159.3,225.2,159.3,225.1,159.2L225.1,159.2z"/>
	<path class="st1" d="M248,172.2c-0.1,0-0.3,0-0.4-0.1c-0.2-0.1-0.4-0.3-0.5-0.5c0-0.1-0.1-0.3-0.1-0.4c0-0.3,0.1-0.5,0.3-0.7
		s0.6-0.3,0.9-0.3c0.1,0,0.1,0,0.2,0.1s0.1,0.1,0.2,0.1c0.1,0,0.1,0.1,0.1,0.1c0.1,0.1,0.2,0.2,0.2,0.3c0.2,0.4,0.1,0.8-0.2,1.1
		c-0.1,0.1-0.2,0.2-0.3,0.2C248.3,172.2,248.1,172.3,248,172.2z"/>
	<path class="st1" d="M220,198.6c-0.6,0-1-0.5-1-1c0-0.3,0.1-0.5,0.3-0.7c0.4-0.4,1-0.4,1.4,0c0.1,0.1,0.2,0.2,0.2,0.3
		c0.1,0.2,0.1,0.5,0,0.8c0,0.1-0.1,0.2-0.2,0.3C220.5,198.4,220.3,198.6,220,198.6z"/>
	<path class="st1" d="M241.9,211.4c-0.5-0.3-0.6-0.9-0.4-1.4l0,0c0.3-0.5,0.9-0.6,1.4-0.4l0,0l0,0c0.5,0.3,0.6,0.9,0.4,1.3l0,0l0,0
		c-0.2,0.3-0.5,0.5-0.9,0.5l0,0C242.2,211.5,242,211.4,241.9,211.4z M236.3,208.1c-0.5-0.3-0.6-0.9-0.4-1.4l0,0
		c0.3-0.5,0.9-0.6,1.4-0.4l0,0l0,0c0.5,0.3,0.6,0.9,0.4,1.4l0,0c-0.2,0.3-0.5,0.5-0.9,0.5l0,0C236.6,208.3,236.4,208.2,236.3,208.1
		L236.3,208.1z M230.7,204.9c-0.5-0.3-0.6-0.9-0.4-1.3l0,0l0,0c0.3-0.5,0.9-0.6,1.4-0.4l0,0c0.5,0.3,0.6,0.9,0.4,1.4l0,0
		c-0.2,0.3-0.5,0.5-0.9,0.5l0,0C231,205,230.8,205,230.7,204.9z M225.1,201.6c-0.5-0.3-0.6-0.9-0.4-1.4l0,0l0,0
		c0.3-0.5,0.9-0.6,1.4-0.4l0,0c0.5,0.3,0.6,0.9,0.4,1.4l0,0l0,0c-0.2,0.3-0.5,0.5-0.9,0.5l0,0C225.4,201.8,225.2,201.7,225.1,201.6
		L225.1,201.6z"/>
	<path class="st1" d="M248,214.7c-0.3,0-0.5-0.1-0.7-0.3c-0.1-0.1-0.2-0.2-0.2-0.3s-0.1-0.2-0.1-0.4c0-0.3,0.1-0.5,0.3-0.7
		c0.3-0.3,0.7-0.4,1.1-0.2c0.1,0,0.2,0.1,0.3,0.2c0.2,0.2,0.3,0.4,0.3,0.7c0,0.1,0,0.3-0.1,0.4c0,0.1-0.1,0.2-0.2,0.3
		C248.5,214.6,248.3,214.7,248,214.7z"/>
	<path class="st1" d="M251.6,137.9c-0.3,0-0.5-0.1-0.7-0.3c-0.1-0.1-0.2-0.2-0.2-0.3c-0.1-0.2-0.1-0.5,0-0.8c0-0.1,0.1-0.2,0.2-0.3
		c0.1-0.1,0.2-0.2,0.3-0.2c0.2-0.1,0.5-0.1,0.8,0c0.1,0.1,0.2,0.1,0.3,0.2c0.1,0.1,0.2,0.2,0.2,0.3c0.2,0.4,0.1,0.8-0.2,1.1
		C252.1,137.7,251.9,137.9,251.6,137.9z"/>
	<path class="st1" d="M273.5,150.6c-0.5-0.3-0.6-0.9-0.4-1.4l0,0c0.3-0.5,0.9-0.6,1.4-0.4l0,0l0,0c0.5,0.3,0.6,0.9,0.4,1.3l0,0l0,0
		c-0.2,0.3-0.5,0.5-0.9,0.5l0,0C273.8,150.8,273.6,150.7,273.5,150.6z M267.9,147.4c-0.5-0.3-0.6-0.9-0.4-1.4l0,0
		c0.3-0.5,0.9-0.6,1.4-0.4l0,0l0,0c0.5,0.3,0.6,0.9,0.4,1.4l0,0c-0.2,0.3-0.5,0.5-0.9,0.5l0,0C268.2,147.5,268,147.5,267.9,147.4z
		 M262.3,144.2c-0.5-0.3-0.6-0.9-0.4-1.4l0,0l0,0c0.3-0.5,0.9-0.6,1.3-0.4l0,0l0,0c0.5,0.3,0.6,0.9,0.4,1.3l0,0l0,0
		c-0.2,0.3-0.5,0.5-0.9,0.5l0,0C262.6,144.3,262.4,144.3,262.3,144.2z M256.7,140.9c-0.5-0.3-0.6-0.9-0.4-1.4l0,0l0,0
		c0.3-0.5,0.9-0.6,1.4-0.4l0,0c0.5,0.3,0.6,0.9,0.4,1.4l0,0c-0.2,0.3-0.5,0.5-0.9,0.5l0,0C257,141.1,256.8,141,256.7,140.9
		L256.7,140.9z"/>
	<path class="st1" d="M279.6,154c-0.1,0-0.3,0-0.4-0.1c-0.1,0-0.2-0.1-0.3-0.2c-0.1-0.1-0.2-0.2-0.2-0.3c-0.1-0.2-0.1-0.5,0-0.8
		c0-0.1,0.1-0.2,0.2-0.3c0.4-0.4,1-0.4,1.4,0c0.2,0.2,0.3,0.4,0.3,0.7C280.6,153.6,280.1,154,279.6,154L279.6,154z"/>
	<polygon class="st0" points="192,213.7 192,171.3 160.4,153 160.4,195.5 	"/>
	<path class="st1" d="M192,214.7c-0.2,0-0.3,0-0.5-0.1l-31.6-18.2c-0.3-0.2-0.5-0.5-0.5-0.9V153c0-0.6,0.4-1,1-1
		c0.2,0,0.3,0,0.5,0.1l31.6,18.2c0.3,0.2,0.5,0.5,0.5,0.9v42.5C193,214.3,192.6,214.7,192,214.7z M161.4,194.9L191,212v-40.2
		l-29.6-17.1V194.9z"/>
	<path class="st1" d="M220,156.1c-0.6,0-1-0.5-1-1c0-0.1,0-0.2,0.1-0.4c0.1-0.1,0.1-0.2,0.2-0.3c0.1-0.1,0.2-0.2,0.3-0.2
		c0.2-0.1,0.5-0.1,0.8,0c0.1,0.1,0.2,0.1,0.3,0.2c0.2,0.2,0.3,0.4,0.3,0.7s-0.1,0.5-0.3,0.7C220.5,156,220.3,156.1,220,156.1z"/>
	<path class="st1" d="M196.7,168.5c-0.3-0.5-0.1-1.1,0.4-1.4l0,0c0.5-0.3,1.1-0.1,1.4,0.4l0,0c0.3,0.5,0.1,1.1-0.4,1.4l0,0l0,0
		c-0.1,0.1-0.3,0.1-0.5,0.1l0,0C197.3,169,196.9,168.8,196.7,168.5z M202.3,165.3c-0.3-0.5-0.1-1.1,0.4-1.4l0,0l0,0
		c0.5-0.3,1.1-0.1,1.4,0.4l0,0c0.3,0.5,0.1,1.1-0.4,1.3l0,0l0,0c-0.2,0.1-0.3,0.1-0.5,0.1l0,0C202.8,165.8,202.5,165.6,202.3,165.3z
		 M207.9,162.1c-0.3-0.5-0.1-1.1,0.4-1.4l0,0c0.5-0.3,1.1-0.1,1.4,0.4l0,0l0,0c0.3,0.5,0.1,1.1-0.4,1.4l0,0
		c-0.2,0.1-0.3,0.1-0.5,0.1l0,0C208.4,162.6,208.1,162.4,207.9,162.1z M213.5,158.8c-0.3-0.5-0.1-1.1,0.4-1.4l0,0
		c0.5-0.3,1.1-0.1,1.4,0.4l0,0l0,0c0.3,0.5,0.1,1.1-0.3,1.3l0,0l0,0c-0.2,0.1-0.3,0.1-0.5,0.1l0,0
		C214,159.3,213.7,159.1,213.5,158.8L213.5,158.8z"/>
	<path class="st1" d="M192,172.2c-0.1,0-0.3,0-0.4-0.1c-0.2-0.1-0.4-0.3-0.5-0.5c0-0.1-0.1-0.3-0.1-0.4c0-0.3,0.1-0.5,0.3-0.7
		c0.4-0.4,1-0.4,1.4,0c0.2,0.2,0.3,0.4,0.3,0.7c0,0.1,0,0.3-0.1,0.4c0,0.1-0.1,0.2-0.2,0.3c-0.1,0.1-0.2,0.2-0.3,0.2
		C192.3,172.2,192.1,172.3,192,172.2z"/>
	<path class="st1" d="M220,198.6c-0.6,0-1-0.5-1-1c0-0.3,0.1-0.5,0.3-0.7c0.4-0.4,1-0.4,1.4,0c0.1,0.1,0.2,0.2,0.2,0.3
		c0.1,0.2,0.1,0.5,0,0.8c0,0.1-0.1,0.2-0.2,0.3C220.5,198.4,220.3,198.6,220,198.6z"/>
	<path class="st1" d="M196.7,211c-0.3-0.5-0.1-1.1,0.4-1.4l0,0l0,0c0.5-0.3,1.1-0.1,1.4,0.3l0,0l0,0c0.3,0.5,0.1,1.1-0.4,1.4l0,0
		c-0.2,0.1-0.3,0.1-0.5,0.1l0,0C197.3,211.5,196.9,211.3,196.7,211z M202.3,207.8c-0.3-0.5-0.1-1.1,0.4-1.4l0,0l0,0
		c0.5-0.3,1.1-0.1,1.4,0.4l0,0l0,0c0.3,0.5,0.1,1.1-0.4,1.4l0,0c-0.2,0.1-0.3,0.1-0.5,0.1l0,0C202.8,208.2,202.5,208.1,202.3,207.8z
		 M207.9,204.5c-0.3-0.5-0.1-1.1,0.4-1.4l0,0c0.5-0.3,1.1-0.1,1.4,0.4l0,0c0.3,0.5,0.1,1.1-0.4,1.4l0,0c-0.2,0.1-0.3,0.1-0.5,0.1
		l0,0C208.4,205,208.1,204.8,207.9,204.5z M213.5,201.3c-0.3-0.5-0.1-1.1,0.4-1.4l0,0c0.5-0.3,1.1-0.1,1.4,0.4l0,0
		c0.3,0.5,0.1,1.1-0.3,1.3l0,0l0,0c-0.2,0.1-0.3,0.1-0.5,0.1l0,0C214,201.8,213.7,201.6,213.5,201.3L213.5,201.3z"/>
	<path class="st1" d="M192,214.7c-0.3,0-0.5-0.1-0.7-0.3c-0.1-0.1-0.2-0.2-0.2-0.3s-0.1-0.2-0.1-0.4c0-0.3,0.1-0.5,0.3-0.7
		c0.4-0.4,1-0.4,1.4,0c0.2,0.2,0.3,0.4,0.3,0.7c0,0.1,0,0.3-0.1,0.4c0,0.1-0.1,0.2-0.2,0.3C192.5,214.6,192.3,214.7,192,214.7z"/>
	<path class="st1" d="M188.4,137.9c-0.6,0-1-0.5-1-1c0-0.1,0-0.2,0.1-0.4c0-0.1,0.1-0.2,0.2-0.3l0.1-0.1c0.1,0,0.1-0.1,0.2-0.1
		c0.1,0,0.1,0,0.2-0.1c0.1,0,0.3,0,0.4,0c0.1,0,0.1,0,0.2,0.1c0.1,0,0.1,0.1,0.2,0.1c0.1,0,0.1,0.1,0.1,0.1c0.1,0.1,0.2,0.2,0.2,0.3
		c0.2,0.4,0.1,0.8-0.2,1.1C188.9,137.7,188.7,137.9,188.4,137.9z"/>
	<path class="st1" d="M165.1,150.3c-0.3-0.5-0.1-1.1,0.4-1.4l0,0l0,0c0.5-0.3,1.1-0.1,1.4,0.4l0,0l0,0c0.3,0.5,0.1,1.1-0.4,1.4l0,0
		l0,0c-0.2,0.1-0.3,0.1-0.5,0.1l0,0C165.6,150.8,165.3,150.6,165.1,150.3z M170.7,147c-0.3-0.5-0.1-1.1,0.3-1.4l0,0l0,0
		c0.5-0.3,1.1-0.1,1.4,0.4l0,0l0,0c0.3,0.5,0.1,1.1-0.4,1.4l0,0l0,0c-0.2,0.1-0.3,0.1-0.5,0.1l0,0
		C171.2,147.5,170.9,147.3,170.7,147L170.7,147z M176.3,143.8c-0.3-0.5-0.1-1.1,0.4-1.4l0,0c0.5-0.3,1.1-0.1,1.4,0.4l0,0l0,0
		c0.3,0.5,0.1,1.1-0.4,1.4l0,0c-0.2,0.1-0.3,0.1-0.5,0.1l0,0C176.8,144.3,176.5,144.1,176.3,143.8L176.3,143.8z M181.9,140.6
		c-0.3-0.5-0.1-1.1,0.4-1.4l0,0c0.5-0.3,1.1-0.1,1.4,0.4l0,0c0.3,0.5,0.1,1.1-0.4,1.4l0,0l0,0c-0.2,0.1-0.3,0.1-0.5,0.1l0,0
		C182.4,141.1,182.1,140.9,181.9,140.6L181.9,140.6z"/>
	<path class="st1" d="M160.4,154c-0.1,0-0.3,0-0.4-0.1c-0.1,0-0.2-0.1-0.3-0.2c-0.1-0.1-0.2-0.2-0.2-0.3c-0.1-0.2-0.1-0.5,0-0.8
		c0-0.1,0.1-0.2,0.2-0.3c0.1-0.1,0.2-0.2,0.3-0.2c0.2-0.1,0.5-0.1,0.8,0c0.1,0,0.2,0.1,0.3,0.2c0.2,0.2,0.3,0.4,0.3,0.7
		C161.4,153.6,161,154,160.4,154L160.4,154z"/>
	<path class="st1" d="M188.4,105.5c-0.3,0-0.5-0.1-0.7-0.3c-0.3-0.3-0.4-0.7-0.2-1.1c0.1-0.1,0.1-0.2,0.2-0.3c0.4-0.4,1-0.4,1.4,0
		c0.1,0.1,0.2,0.2,0.2,0.3c0.1,0.1,0.1,0.2,0.1,0.4c0,0.3-0.1,0.5-0.3,0.7c-0.1,0.1-0.2,0.2-0.3,0.2
		C188.7,105.5,188.5,105.5,188.4,105.5z"/>
	<path class="st1" d="M187.4,130.4c0-0.5,0.4-1,1-1l0,0l0,0c0.6,0,1,0.4,1,1l0,0c0,0.6-0.4,1-1,1l0,0
		C187.8,131.4,187.4,130.9,187.4,130.4z M187.4,123.9c0-0.6,0.4-1,1-1l0,0c0.6,0,1,0.4,1,1l0,0c0,0.6-0.4,1-1,1l0,0
		C187.8,124.9,187.4,124.5,187.4,123.9z M187.4,117.5c0-0.6,0.4-1,1-1l0,0c0.6,0,1,0.4,1,1l0,0c0,0.6-0.4,1-1,1l0,0
		C187.8,118.5,187.4,118,187.4,117.5z M187.4,111c0-0.5,0.4-1,1-1l0,0l0,0c0.5,0,1,0.4,1,1l0,0l0,0c0,0.6-0.4,1-1,1l0,0
		C187.9,112,187.4,111.6,187.4,111L187.4,111z"/>
	<path class="st1" d="M188.4,137.9c-0.6,0-1-0.5-1-1c0-0.1,0-0.2,0.1-0.4c0-0.1,0.1-0.2,0.2-0.3l0.1-0.1c0.1,0,0.1-0.1,0.2-0.1
		c0.1,0,0.1,0,0.2-0.1c0.1,0,0.3,0,0.4,0c0.1,0,0.1,0,0.2,0.1c0.1,0,0.1,0.1,0.2,0.1c0.1,0,0.1,0.1,0.1,0.1c0.1,0.1,0.2,0.2,0.2,0.3
		c0.2,0.4,0.1,0.8-0.2,1.1C188.9,137.7,188.7,137.9,188.4,137.9z"/>
	<path class="st1" d="M251.6,105.5c-0.1,0-0.3,0-0.4-0.1c-0.1,0-0.2-0.1-0.3-0.2c-0.3-0.3-0.4-0.7-0.2-1.1c0.1-0.1,0.1-0.2,0.2-0.3
		c0.4-0.4,1-0.4,1.4,0c0.1,0.1,0.2,0.2,0.2,0.3c0.2,0.5,0,1.1-0.5,1.3C251.9,105.5,251.7,105.5,251.6,105.5z"/>
	<path class="st1" d="M250.6,130.4c0-0.5,0.4-1,1-1l0,0l0,0c0.6,0,1,0.4,1,1l0,0c0,0.6-0.4,1-1,1l0,0
		C251,131.4,250.6,130.9,250.6,130.4z M250.6,123.9c0-0.6,0.4-1,1-1l0,0c0.6,0,1,0.4,1,1l0,0c0,0.6-0.4,1-1,1l0,0
		C251,124.9,250.6,124.5,250.6,123.9z M250.6,117.5c0-0.6,0.4-1,1-1l0,0c0.6,0,1,0.4,1,1l0,0c0,0.6-0.4,1-1,1l0,0
		C251,118.5,250.6,118,250.6,117.5z M250.6,111c0-0.5,0.4-1,1-1l0,0l0,0c0.5,0,1,0.4,1,1l0,0l0,0c0,0.6-0.4,1-1,1l0,0
		C251.1,112,250.6,111.6,250.6,111L250.6,111z"/>
	<path class="st1" d="M251.6,137.9c-0.3,0-0.5-0.1-0.7-0.3c-0.1-0.1-0.2-0.2-0.2-0.3c-0.1-0.2-0.1-0.5,0-0.8c0-0.1,0.1-0.2,0.2-0.3
		c0.1-0.1,0.2-0.2,0.3-0.2c0.2-0.1,0.5-0.1,0.8,0c0.1,0.1,0.2,0.1,0.3,0.2c0.1,0.1,0.2,0.2,0.2,0.3c0.2,0.4,0.1,0.8-0.2,1.1
		C252.1,137.7,251.9,137.9,251.6,137.9z"/>
	<path class="st1" d="M220,123.8c-0.5,0-1-0.4-1-1l0,0c0-0.3,0.1-0.5,0.3-0.7s0.6-0.3,0.9-0.3c0.1,0,0.1,0,0.2,0.1
		c0.1,0,0.1,0,0.2,0.1c0.1,0,0.1,0.1,0.1,0.1c0.2,0.2,0.3,0.4,0.3,0.7c0,0.3-0.1,0.5-0.3,0.7c-0.1,0.1-0.2,0.2-0.3,0.2
		C220.3,123.7,220.1,123.8,220,123.8z"/>
	<path class="st1" d="M219,148.6c0-0.6,0.4-1,1-1l0,0c0.6,0,1,0.4,1,1l0,0c0,0.6-0.4,1-1,1l0,0C219.4,149.6,219,149.2,219,148.6z
		 M219,142.2c0-0.5,0.4-1,1-1l0,0l0,0c0.6,0,1,0.4,1,1l0,0c0,0.5-0.4,1-1,1l0,0l0,0C219.5,143.2,219,142.7,219,142.2L219,142.2z
		 M219,135.7c0-0.6,0.4-1,1-1l0,0c0.6,0,1,0.4,1,1l0,0c0,0.6-0.4,1-1,1l0,0C219.4,136.7,219,136.3,219,135.7z M219,129.2
		c0-0.6,0.4-1,1-1l0,0c0.6,0,1,0.4,1,1l0,0c0,0.6-0.4,1-1,1l0,0C219.4,130.2,219,129.8,219,129.2z"/>
	<path class="st1" d="M220,156.1c-0.6,0-1-0.5-1-1c0-0.1,0-0.2,0.1-0.4c0.1-0.1,0.1-0.2,0.2-0.3c0.1-0.1,0.2-0.2,0.3-0.2
		c0.2-0.1,0.5-0.1,0.8,0c0.1,0.1,0.2,0.1,0.3,0.2c0.2,0.2,0.3,0.4,0.3,0.7s-0.1,0.5-0.3,0.7C220.5,156,220.3,156.1,220,156.1z"/>
	<polygon class="st2" points="220,122.8 188.4,104.5 220,86.3 251.6,104.5 	"/>
	<path class="st1" d="M220,123.8c-0.2,0-0.3,0-0.5-0.1l-31.6-18.2c-0.5-0.3-0.6-0.9-0.4-1.4c0.1-0.2,0.2-0.3,0.4-0.4l31.6-18.2
		c0.3-0.2,0.7-0.2,1,0l31.6,18.2c0.5,0.3,0.6,0.9,0.4,1.4c-0.1,0.2-0.2,0.3-0.4,0.4l-31.6,18.2C220.3,123.7,220.2,123.8,220,123.8z
		 M190.4,104.5l29.6,17.1l29.6-17.1L220,87.4L190.4,104.5z"/>
	<rect y="50" class="st3" width="440" height="200"/>
	<rect class="st3" width="440" height="300"/>
</g>
</svg>
