<?xml version="1.0" encoding="utf-8"?>
<!-- Generator: Adobe Illustrator 24.1.2, SVG Export Plug-In . SVG Version: 6.00 Build 0)  -->
<svg version="1.1" id="Layer_1" xmlns="http://www.w3.org/2000/svg" xmlns:xlink="http://www.w3.org/1999/xlink" x="0px" y="0px"
	 width="128px" height="128px" viewBox="0 0 128 128" style="enable-background:new 0 0 128 128;" xml:space="preserve">
<style type="text/css">
	.st0{fill:#FFFFFF;}
	.st1{fill:#E9EBDF;}
	.st2{fill:#4D9987;}
	.st3{fill:#0E352C;}
	.st4{fill:none;}
</style>
<g>
	<polygon class="st0" points="100,79.1 64,58.2 28,78.9 63.9,99.8 	"/>
	<polygon class="st1" points="100,91.1 63.9,111.8 63.9,99.8 100,79.1 	"/>
	<path class="st2" d="M63.9,112.8c-0.6,0-1-0.4-1-1v-12c0-0.4,0.2-0.7,0.5-0.9l36-20.7c0.5-0.3,1.1-0.1,1.4,0.4
		c0.1,0.2,0.1,0.3,0.1,0.5v12c0,0.4-0.2,0.7-0.5,0.9l-36,20.7C64.3,112.7,64.1,112.8,63.9,112.8z M64.9,100.4v9.7l34-19.6v-9.7
		L64.9,100.4z"/>
	<polygon class="st1" points="28,90.9 63.9,111.8 63.9,99.8 28,78.9 	"/>
	<path class="st2" d="M63.9,112.8c-0.2,0-0.3,0-0.5-0.1l-36-20.8c-0.3-0.2-0.5-0.5-0.5-0.9V79c0-0.6,0.4-1,1-1c0.2,0,0.3,0,0.5,0.1
		l36,20.8c0.3,0.2,0.5,0.5,0.5,0.9v12C64.9,112.3,64.5,112.8,63.9,112.8L63.9,112.8z M29,90.4l34,19.7v-9.7L29,80.7V90.4z"/>
	<path class="st3" d="M63.9,112.8c-0.2,0-0.3,0-0.5-0.1l-36-20.8c-0.3-0.2-0.5-0.5-0.5-0.9V79c0-0.4,0.2-0.7,0.5-0.9l36-20.7
		c0.3-0.2,0.7-0.2,1,0l36,20.8c0.3,0.2,0.5,0.5,0.5,0.9v12c0,0.4-0.2,0.7-0.5,0.9l-36,20.7C64.3,112.7,64.1,112.8,63.9,112.8z
		 M29,90.4l35,20.3l35-20.2V79.7L64,59.4L29,79.5V90.4z"/>
	<path class="st3" d="M64,69.3c-0.1,0-0.3,0-0.4-0.1c-0.1,0-0.2-0.1-0.3-0.2c-0.2-0.2-0.3-0.4-0.3-0.7c0-0.1,0-0.3,0.1-0.4
		c0.1-0.2,0.3-0.4,0.5-0.5s0.4-0.1,0.6-0.1l0.2,0.1c0.1,0,0.1,0.1,0.2,0.1s0.1,0.1,0.2,0.1c0.1,0.1,0.2,0.2,0.2,0.3
		c0,0.1,0.1,0.3,0.1,0.4s0,0.3-0.1,0.4s-0.1,0.2-0.2,0.3c-0.1,0.1-0.2,0.2-0.3,0.2C64.3,69.3,64.1,69.3,64,69.3z"/>
	<path class="st3" d="M63,93.5c0-0.6,0.4-1,1-1l0,0c0.6,0,1,0.5,1,1l0,0c0,0.5-0.4,1-1,1l0,0l0,0C63.4,94.5,63,94,63,93.5L63,93.5z
		 M63,87.2c0-0.6,0.4-1,1-1l0,0c0.6,0,1,0.4,1,1l0,0l0,0c0,0.5-0.5,1-1,1l0,0C63.4,88.2,63,87.7,63,87.2L63,87.2L63,87.2z M63,80.9
		c0-0.6,0.5-1,1-1l0,0c0.5,0,1,0.4,1,1l0,0l0,0c0,0.5-0.4,1-1,1l0,0l0,0C63.4,81.9,63,81.4,63,80.9L63,80.9z M63,74.6
		c0-0.6,0.5-1,1-1l0,0c0.5,0,1,0.4,1,1l0,0l0,0c0,0.5-0.4,1-1,1l0,0l0,0C63.4,75.6,63,75.1,63,74.6L63,74.6z"/>
	<path class="st3" d="M64,100.8c-0.3,0-0.5-0.1-0.7-0.3c-0.1-0.1-0.2-0.2-0.2-0.3c0-0.1-0.1-0.3-0.1-0.4s0-0.1,0-0.2s0-0.1,0.1-0.2
		c0-0.1,0.1-0.1,0.1-0.2s0.1-0.1,0.1-0.1c0.1-0.1,0.2-0.2,0.3-0.2c0.4-0.1,0.8-0.1,1.1,0.2c0.2,0.2,0.3,0.4,0.3,0.7
		c0,0.1,0,0.3-0.1,0.4C64.7,100.5,64.4,100.8,64,100.8L64,100.8z"/>
	<polygon class="st0" points="100,37.1 64.1,16.2 28,36.9 64,57.8 	"/>
	<polygon class="st1" points="100,49.1 64,69.8 64,57.8 100,37.1 	"/>
	<path class="st2" d="M64,70.8c-0.6,0-1-0.4-1-1v-12c0-0.4,0.2-0.7,0.5-0.9l36-20.7c0.5-0.3,1.1-0.1,1.4,0.4
		c0.1,0.2,0.1,0.3,0.1,0.5v12c0,0.4-0.2,0.7-0.5,0.9l-36,20.7C64.3,70.7,64.2,70.8,64,70.8z M65,58.4v9.7l34-19.6v-9.7L65,58.4z"/>
	<polygon class="st1" points="28,48.9 64,69.8 64,57.8 28,36.9 	"/>
	<path class="st2" d="M64,70.8c-0.2,0-0.3,0-0.5-0.1l-36-20.8C27.2,49.7,27,49.4,27,49V37c0-0.6,0.4-1,1-1c0.2,0,0.3,0,0.5,0.1
		l36,20.8c0.3,0.2,0.5,0.5,0.5,0.9v12C65,70.3,64.5,70.8,64,70.8L64,70.8z M29,48.4l34,19.7v-9.7L29,38.7V48.4z"/>
	<path class="st3" d="M64,70.8c-0.2,0-0.3,0-0.5-0.1l-36-20.8C27.2,49.7,27,49.4,27,49V37c0-0.4,0.2-0.7,0.5-0.9l36-20.7
		c0.3-0.2,0.7-0.2,1,0l36,20.8c0.3,0.2,0.5,0.5,0.5,0.9v12c0,0.4-0.2,0.7-0.5,0.9l-36,20.7C64.3,70.7,64.2,70.8,64,70.8z M29,48.4
		l35,20.3l35-20.2V37.7L64,17.4L29,37.5V48.4z"/>
	<path class="st3" d="M100,50c-0.1,0-0.3,0-0.4-0.1s-0.2-0.1-0.3-0.2C99.1,49.6,99,49.3,99,49c0-0.1,0-0.3,0.1-0.4
		c0.1-0.1,0.1-0.2,0.2-0.3s0.2-0.2,0.3-0.2c0.2-0.1,0.5-0.1,0.8,0c0.1,0,0.2,0.1,0.3,0.2c0.1,0.1,0.2,0.2,0.2,0.3
		c0.1,0.2,0.1,0.5,0,0.8c-0.1,0.1-0.1,0.2-0.2,0.3s-0.2,0.2-0.3,0.2C100.3,50,100.2,50.1,100,50z"/>
	<path class="st3" d="M99,74.1c0-0.6,0.5-1,1-1l0,0c0.5,0,1,0.4,1,1l0,0l0,0c0,0.6-0.4,1-1,1l0,0C99.4,75.1,99,74.6,99,74.1z
		 M99,67.8c0-0.6,0.4-1,1-1l0,0c0.6,0,1,0.4,1,1l0,0c0,0.6-0.4,1-1,1l0,0C99.4,68.8,99,68.4,99,67.8L99,67.8z M99,61.6
		c0-0.6,0.4-1,1-1l0,0c0.6,0,1,0.4,1,1l0,0c0,0.6-0.4,1-1,1l0,0C99.4,62.6,99,62.1,99,61.6z M99,55.3c0-0.6,0.4-1,1-1l0,0
		c0.6,0,1,0.4,1,1l0,0c0,0.6-0.4,1-1,1l0,0C99.5,56.3,99,55.9,99,55.3z"/>
	<path class="st3" d="M100,81.3c-0.1,0-0.3,0-0.4-0.1s-0.2-0.1-0.3-0.2c-0.1-0.1-0.2-0.2-0.2-0.3c-0.1-0.2-0.1-0.5,0-0.8
		c0.1-0.1,0.1-0.2,0.2-0.3c0.2-0.2,0.6-0.3,0.9-0.3c0.1,0,0.1,0,0.2,0.1c0.1,0,0.1,0,0.2,0.1c0.1,0,0.1,0.1,0.2,0.1
		c0.3,0.3,0.4,0.7,0.2,1.1c0,0.1-0.1,0.2-0.2,0.3c-0.1,0.1-0.2,0.2-0.3,0.2C100.2,81.3,100.1,81.4,100,81.3z"/>
	<path class="st3" d="M28,50c-0.3,0-0.5-0.1-0.7-0.3c-0.1-0.1-0.2-0.2-0.2-0.3c-0.1-0.2-0.1-0.5,0-0.8c0-0.1,0.1-0.2,0.2-0.3
		c0,0,0.1-0.1,0.2-0.1s0.1-0.1,0.2-0.1s0.1-0.1,0.2-0.1c0.3-0.1,0.7,0,0.9,0.3c0.1,0.1,0.2,0.2,0.2,0.3c0,0.1,0,0.2,0,0.4
		c0,0.1,0,0.3-0.1,0.4c-0.1,0.1-0.1,0.2-0.2,0.3s-0.2,0.2-0.3,0.2C28.3,49.9,28.2,49.9,28,50z"/>
	<path class="st3" d="M27,74c0-0.6,0.5-1,1-1l0,0c0.6,0,1,0.4,1,1l0,0c0,0.6-0.5,1-1,1l0,0C27.4,75,27,74.5,27,74z M27,67.7
		c0-0.6,0.5-1,1-1l0,0c0.5,0,1,0.4,1,1l0,0l0,0c0,0.6-0.4,1-1,1l0,0C27.4,68.7,27,68.3,27,67.7z M27,61.5c0-0.6,0.4-1,1-1l0,0
		c0.6,0,1,0.4,1,1l0,0c0,0.6-0.4,1-1,1l0,0C27.4,62.5,27,62,27,61.5z M27,55.2c0-0.6,0.4-1,1-1l0,0c0.6,0,1,0.4,1,1l0,0
		c0,0.6-0.4,1-1,1l0,0C27.5,56.2,27,55.8,27,55.2z"/>
	<path class="st3" d="M28,81.2c-0.1,0-0.3,0-0.4-0.1c-0.1,0-0.2-0.1-0.3-0.2c-0.1-0.1-0.2-0.2-0.2-0.3c-0.1-0.2-0.1-0.5,0-0.8
		c0.1-0.1,0.1-0.2,0.2-0.3c0.4-0.4,1-0.4,1.4,0c0,0,0.1,0.1,0.1,0.2s0.1,0.1,0.1,0.2c0.1,0.2,0.1,0.5,0,0.8
		c-0.1,0.1-0.1,0.2-0.2,0.3C28.5,81.1,28.2,81.2,28,81.2z"/>
	<rect x="1" y="1" class="st4" width="126" height="126"/>
	<g>
		<rect class="st4" width="128" height="128"/>
	</g>
</g>
</svg>
