<?xml version="1.0" encoding="utf-8"?>
<!-- Generator: Adobe Illustrator 24.1.2, SVG Export Plug-In . SVG Version: 6.00 Build 0)  -->
<svg version="1.1" id="Layer_1" xmlns="http://www.w3.org/2000/svg" xmlns:xlink="http://www.w3.org/1999/xlink" x="0px" y="0px"
	 width="128px" height="128px" viewBox="0 0 128 128" style="enable-background:new 0 0 128 128;" xml:space="preserve">
<style type="text/css">
	.st0{fill:#FFFFFF;}
	.st1{fill:#E9EBDF;}
	.st2{fill:#4D9987;}
	.st3{fill:#0E352C;}
	.st4{fill:none;}
</style>
<g>
	<polygon class="st0" points="100,52.1 64,31.2 28,51.9 64,72.8 	"/>
	<polygon class="st1" points="100,76.1 64,96.8 64,72.8 100,52.1 	"/>
	<path class="st2" d="M64,97.8c-0.6,0-1-0.4-1-1v-24c0-0.4,0.2-0.7,0.5-0.9l36-20.7c0.5-0.3,1.1-0.1,1.4,0.4
		c0.1,0.2,0.1,0.3,0.1,0.5v24c0,0.4-0.2,0.7-0.5,0.9l-36,20.7C64.3,97.7,64.1,97.8,64,97.8z M65,73.4v21.7l34-19.6V53.8L65,73.4z"/>
	<polygon class="st1" points="28,75.9 64,96.8 64,72.8 28,51.9 	"/>
	<path class="st2" d="M64,97.8c-0.2,0-0.3,0-0.5-0.1l-36-20.8C27.2,76.7,27,76.4,27,76V52c0-0.6,0.4-1,1-1c0.2,0,0.3,0,0.5,0.1
		l36,20.8c0.3,0.2,0.5,0.5,0.5,0.9v24C65,97.3,64.5,97.8,64,97.8L64,97.8z M29,75.4l34,19.7V73.4L29,53.7V75.4z"/>
	<path class="st3" d="M64,97.8c-0.2,0-0.3,0-0.5-0.1l-36-20.8C27.2,76.7,27,76.4,27,76V52c0-0.4,0.2-0.7,0.5-0.9l36-20.7
		c0.3-0.2,0.7-0.2,1,0l36,20.8c0.3,0.2,0.5,0.5,0.5,0.9v24c0,0.4-0.2,0.7-0.5,0.9l-36,20.7C64.3,97.7,64.1,97.8,64,97.8z M29,75.4
		l35,20.3l35-20.2V52.7L64,32.4L29,52.5V75.4z"/>
	<rect x="1" y="1" class="st4" width="126" height="126"/>
	<g>
		<rect class="st4" width="128" height="128"/>
	</g>
</g>
</svg>
