<?xml version="1.0" encoding="utf-8"?>
<!-- Generator: Adobe Illustrator 24.1.2, SVG Export Plug-In . SVG Version: 6.00 Build 0)  -->
<svg version="1.1" id="Layer_1" xmlns="http://www.w3.org/2000/svg" xmlns:xlink="http://www.w3.org/1999/xlink" x="0px" y="0px"
	 width="128px" height="128px" viewBox="0 0 128 128" style="enable-background:new 0 0 128 128;" xml:space="preserve">
<style type="text/css">
	.st0{fill:#4D9987;}
	.st1{fill:#C4D7D3;}
	.st2{fill:none;}
</style>
<g>
	<path class="st0" d="M52.8,50.2c-0.3,0-0.5-0.1-0.7-0.3s-0.3-0.4-0.3-0.7c0-0.1,0-0.3,0.1-0.4c0.1-0.1,0.1-0.2,0.2-0.3
		c0.1-0.1,0.2-0.2,0.3-0.2c0.4-0.1,0.8-0.1,1.1,0.2c0.1,0.1,0.2,0.2,0.2,0.3c0.2,0.4,0.1,0.8-0.2,1.1C53.3,50.1,53.1,50.2,52.8,50.2
		z"/>
	<path class="st0" d="M51.8,43.3c0-0.5,0.4-1,1-1l0,0l0,0c0.6,0,1,0.4,1,1l0,0c0,0.6-0.4,1-1,1l0,0C52.3,44.3,51.8,43.8,51.8,43.3z
		 M51.8,37.4c0-0.6,0.4-1,1-1l0,0c0.6,0,1,0.4,1,1l0,0c0,0.6-0.4,1-1,1l0,0C52.3,38.4,51.8,37.9,51.8,37.4z M51.8,31.5
		c0-0.5,0.4-1,1-1l0,0l0,0c0.5,0,1,0.4,1,1l0,0c0,0.6-0.4,1-1,1l0,0l0,0C52.3,32.5,51.8,32,51.8,31.5L51.8,31.5z M51.8,25.6
		c0-0.6,0.4-1,1-1l0,0c0.6,0,1,0.4,1,1l0,0c0,0.6-0.4,1-1,1l0,0C52.3,26.6,51.8,26.1,51.8,25.6z M51.8,19.7c0-0.5,0.4-1,1-1l0,0l0,0
		c0.6,0,1,0.4,1,1l0,0c0,0.6-0.4,1-1,1l0,0C52.3,20.7,51.8,20.2,51.8,19.7z M51.8,13.8c0-0.6,0.4-1,1-1l0,0c0.6,0,1,0.4,1,1l0,0
		c0,0.6-0.4,1-1,1l0,0C52.3,14.8,51.8,14.3,51.8,13.8L51.8,13.8z M51.8,7.9c0-0.5,0.4-1,1-1l0,0l0,0c0.6,0,1,0.4,1,1l0,0
		c0,0.6-0.4,1-1,1l0,0C52.3,8.9,51.8,8.5,51.8,7.9L51.8,7.9z"/>
	<path class="st0" d="M52.8,3c-0.1,0-0.3,0-0.4-0.1c-0.1-0.1-0.2-0.1-0.3-0.2c-0.2-0.2-0.3-0.4-0.3-0.7c0-0.1,0-0.3,0.1-0.4
		s0.1-0.2,0.2-0.3c0.1-0.1,0.2-0.2,0.3-0.2c0.5-0.2,1.1,0,1.3,0.5l0,0c0.1,0.1,0.1,0.2,0.1,0.4c0,0.1,0,0.3-0.1,0.4
		c0,0.1-0.1,0.2-0.2,0.3c-0.1,0.1-0.2,0.2-0.3,0.2C53.1,3,52.9,3,52.8,3z"/>
	<path class="st0" d="M12,81c-0.6,0-1-0.5-1-1c0-0.1,0-0.2,0.1-0.4c0.1-0.1,0.1-0.2,0.2-0.3c0.2-0.2,0.6-0.3,0.9-0.3l0.2,0.1
		c0.1,0,0.1,0.1,0.2,0.1c0.1,0,0.1,0.1,0.1,0.1c0.1,0.1,0.2,0.2,0.2,0.3C13,79.7,13,79.8,13,80c0,0.3-0.1,0.5-0.3,0.7
		c-0.1,0.1-0.2,0.2-0.3,0.2C12.2,81,12.1,81,12,81z"/>
	<path class="st0" d="M86.8,80c0-0.5,0.5-1,1-1l0,0l0,0c0.5,0,1,0.4,1,1l0,0l0,0c0,0.5-0.4,1-1,1l0,0l0,0C87.3,81,86.8,80.6,86.8,80
		z M81,80c0-0.5,0.5-1,1-1l0,0l0,0c0.5,0,1,0.4,1,1l0,0l0,0c0,0.6-0.4,1-1,1l0,0C81.4,81,81,80.6,81,80z M75.1,80c0-0.5,0.5-1,1-1
		l0,0l0,0c0.6,0,1,0.4,1,1l0,0c0,0.6-0.4,1-1,1l0,0l0,0C75.6,81,75.1,80.6,75.1,80z M69.3,80c0-0.5,0.5-1,1-1l0,0l0,0
		c0.5,0,1,0.4,1,1l0,0l0,0c0,0.6-0.4,1-1,1l0,0C69.8,81,69.3,80.6,69.3,80z M63.5,80c0-0.5,0.4-1,1-1l0,0l0,0c0.5,0,1,0.4,1,1l0,0
		l0,0c0,0.6-0.4,1-1,1l0,0C63.9,81,63.5,80.6,63.5,80L63.5,80z M57.6,80c0-0.5,0.5-1,1-1l0,0l0,0c0.5,0,1,0.4,1,1l0,0l0,0
		c0,0.6-0.4,1-1,1l0,0C58.1,81,57.6,80.6,57.6,80z M51.8,80c0-0.5,0.5-1,1-1l0,0l0,0c0.5,0,1,0.4,1,1l0,0l0,0c0,0.6-0.4,1-1,1l0,0
		C52.3,81,51.8,80.6,51.8,80z M46,80c0-0.5,0.5-1,1-1l0,0l0,0c0.5,0,1,0.4,1,1l0,0l0,0c0,0.6-0.4,1-1,1l0,0C46.4,81,46,80.6,46,80z
		 M40.1,80c0-0.5,0.5-1,1-1l0,0l0,0c0.5,0,1,0.4,1,1l0,0l0,0c0,0.6-0.4,1-1,1l0,0C40.6,81,40.1,80.6,40.1,80z M34.3,80
		c0-0.5,0.5-1,1-1l0,0l0,0c0.5,0,1,0.4,1,1l0,0l0,0c0,0.6-0.4,1-1,1l0,0C34.7,81,34.3,80.6,34.3,80z M28.5,80c0-0.5,0.5-1,1-1l0,0
		l0,0c0.5,0,1,0.4,1,1l0,0l0,0c0,0.6-0.4,1-1,1l0,0C28.9,81,28.5,80.6,28.5,80z M22.6,80c0-0.6,0.5-1,1-1l0,0c0.5,0,1,0.4,1,1l0,0
		l0,0c0,0.5-0.4,1-1,1l0,0l0,0C23.1,81,22.6,80.6,22.6,80L22.6,80z M16.8,80c0-0.5,0.5-1,1-1l0,0l0,0c0.5,0,1,0.4,1,1l0,0l0,0
		c0,0.6-0.4,1-1,1l0,0C17.2,81,16.8,80.6,16.8,80z"/>
	<path class="st0" d="M93.7,81c-0.5,0-1-0.4-1-1l0,0c0-0.3,0.1-0.5,0.3-0.7c0.4-0.4,1-0.4,1.4,0c0.2,0.2,0.3,0.4,0.3,0.7
		c0,0.4-0.2,0.8-0.6,0.9C93.9,81,93.8,81,93.7,81z"/>
	<path class="st0" d="M12,26.6c-0.5,0-1-0.4-1-1l0,0c0-0.1,0-0.3,0.1-0.4s0.1-0.2,0.2-0.3l0.1-0.1c0.1,0,0.1-0.1,0.2-0.1
		c0.1,0,0.1,0,0.2-0.1c0.3-0.1,0.7,0,0.9,0.3c0.1,0.1,0.2,0.2,0.2,0.3c0.2,0.5,0,1.1-0.5,1.3C12.2,26.6,12.1,26.6,12,26.6z"/>
	<path class="st0" d="M86.8,25.6c0-0.6,0.4-1,1-1l0,0c0.6,0,1,0.4,1,1l0,0c0,0.6-0.4,1-1,1l0,0C87.3,26.6,86.8,26.1,86.8,25.6z
		 M81,25.6c0-0.6,0.4-1,1-1l0,0c0.6,0,1,0.4,1,1l0,0c0,0.6-0.4,1-1,1l0,0C81.4,26.6,81,26.1,81,25.6z M75.1,25.6c0-0.5,0.4-1,1-1
		l0,0l0,0c0.6,0,1,0.4,1,1l0,0l0,0c0,0.6-0.4,1-1,1l0,0l0,0C75.6,26.6,75.1,26.1,75.1,25.6L75.1,25.6z M69.3,25.6c0-0.6,0.4-1,1-1
		l0,0c0.6,0,1,0.4,1,1l0,0c0,0.6-0.4,1-1,1l0,0C69.8,26.6,69.3,26.1,69.3,25.6z M63.5,25.6c0-0.6,0.4-1,1-1l0,0c0.6,0,1,0.4,1,1l0,0
		c0,0.6-0.4,1-1,1l0,0C63.9,26.6,63.5,26.1,63.5,25.6z M57.6,25.6c0-0.6,0.4-1,1-1l0,0c0.6,0,1,0.4,1,1l0,0c0,0.6-0.4,1-1,1l0,0
		C58.1,26.6,57.6,26.1,57.6,25.6z M51.8,25.6c0-0.6,0.4-1,1-1l0,0c0.6,0,1,0.4,1,1l0,0c0,0.6-0.4,1-1,1l0,0
		C52.3,26.6,51.8,26.1,51.8,25.6z M46,25.6c0-0.6,0.4-1,1-1l0,0c0.6,0,1,0.4,1,1l0,0c0,0.6-0.4,1-1,1l0,0C46.4,26.6,46,26.1,46,25.6
		z M40.1,25.6c0-0.6,0.4-1,1-1l0,0c0.6,0,1,0.4,1,1l0,0c0,0.6-0.4,1-1,1l0,0C40.6,26.6,40.1,26.1,40.1,25.6z M34.3,25.6
		c0-0.6,0.4-1,1-1l0,0c0.6,0,1,0.4,1,1l0,0c0,0.6-0.4,1-1,1l0,0C34.7,26.6,34.3,26.1,34.3,25.6z M28.5,25.6c0-0.6,0.4-1,1-1l0,0
		c0.6,0,1,0.4,1,1l0,0c0,0.6-0.4,1-1,1l0,0C28.9,26.6,28.5,26.1,28.5,25.6z M22.6,25.6c0-0.6,0.4-1,1-1l0,0c0.6,0,1,0.4,1,1l0,0l0,0
		c0,0.6-0.4,1-1,1l0,0l0,0C23.1,26.6,22.6,26.1,22.6,25.6z M16.8,25.6c0-0.6,0.4-1,1-1l0,0c0.6,0,1,0.4,1,1l0,0c0,0.6-0.4,1-1,1l0,0
		C17.2,26.6,16.8,26.1,16.8,25.6z"/>
	<path class="st0" d="M93.7,26.6c-0.1,0-0.3,0-0.4-0.1c-0.1,0-0.2-0.1-0.3-0.2c-0.2-0.2-0.3-0.4-0.3-0.7c0-0.1,0-0.3,0.1-0.4
		s0.1-0.2,0.2-0.3c0.4-0.4,1-0.4,1.4,0c0.1,0.1,0.2,0.2,0.2,0.3c0.1,0.1,0.1,0.2,0.1,0.4c0,0.3-0.1,0.5-0.3,0.7
		C94.2,26.5,93.9,26.6,93.7,26.6z"/>
	<path class="st0" d="M52.8,104.6c-0.6,0-1-0.4-1-1V49.2c0-0.4,0.2-0.7,0.5-0.9l40.8-23.6c0.5-0.3,1.1-0.1,1.4,0.4
		c0.1,0.2,0.1,0.3,0.1,0.5V80c0,0.4-0.2,0.7-0.5,0.9l-40.8,23.6C53.2,104.6,53,104.6,52.8,104.6z M53.8,49.7v52.1l38.8-22.4V27.3
		L53.8,49.7z"/>
	<path class="st0" d="M52.8,104.6c-0.2,0-0.3,0-0.5-0.1L11.5,80.9C11.2,80.7,11,80.4,11,80V25.6c0-0.6,0.4-1,1-1
		c0.2,0,0.3,0,0.5,0.1l40.8,23.6c0.3,0.2,0.5,0.5,0.5,0.9v54.5C53.8,104.2,53.4,104.6,52.8,104.6z M13,79.5l38.8,22.4V49.7L13,27.3
		V79.5z"/>
	<path class="st0" d="M93.6,125H12c-0.6,0-1-0.4-1-1s0.4-1,1-1h81.7c0.6,0,1,0.4,1,1S94.2,125,93.6,125z"/>
	<path class="st0" d="M52.8,126.7c-0.6,0-1-0.4-1-1v-3.4c0-0.6,0.4-1,1-1s1,0.4,1,1v3.4C53.8,126.3,53.4,126.7,52.8,126.7z"/>
	<polygon class="st1" points="93.6,124 91.9,123.1 90.2,122.1 90.2,124 90.2,126 91.9,125 	"/>
	<path class="st0" d="M90.2,127c-0.6,0-1-0.4-1-1v-3.9c0-0.6,0.4-1,1-1c0.2,0,0.3,0,0.5,0.1l3.4,2c0.5,0.3,0.6,0.9,0.4,1.4
		c-0.1,0.2-0.2,0.3-0.4,0.4l-3.4,2C90.6,127,90.4,127,90.2,127z"/>
	<polygon class="st1" points="12,124 13.7,125 15.4,126 15.4,124 15.4,122.1 13.7,123.1 	"/>
	<path class="st0" d="M15.4,127c-0.2,0-0.3,0-0.5-0.1l-3.4-2c-0.5-0.3-0.6-0.9-0.4-1.4c0.1-0.2,0.2-0.3,0.4-0.4l3.4-2
		c0.5-0.3,1.1-0.1,1.4,0.4c0.1,0.2,0.1,0.3,0.1,0.5v3.9C16.4,126.6,15.9,127,15.4,127z"/>
	<path class="st0" d="M114.1,81c-0.6,0-1-0.4-1-1V52.8c0-0.6,0.4-1,1-1s1,0.4,1,1V80C115.1,80.6,114.6,81,114.1,81z"/>
	<polygon class="st1" points="114.1,52.8 113.1,54.5 112.1,56.2 114.1,56.2 116,56.2 115.1,54.5 	"/>
	<path class="st0" d="M116,57.2h-3.9c-0.6,0-1-0.4-1-1c0-0.2,0-0.3,0.1-0.5l2-3.4c0.3-0.5,1-0.6,1.4-0.3c0.1,0.1,0.2,0.2,0.3,0.3
		l2,3.4c0.3,0.5,0.1,1.1-0.4,1.4C116.4,57.2,116.2,57.2,116,57.2L116,57.2z"/>
	<polygon class="st1" points="114.1,80 115.1,78.3 116,76.6 114.1,76.6 112.1,76.6 113.1,78.3 	"/>
	<path class="st0" d="M114.1,81c-0.4,0-0.7-0.2-0.9-0.5l-2-3.4c-0.3-0.5-0.1-1.1,0.4-1.4c0.2-0.1,0.3-0.1,0.5-0.1h3.9
		c0.6,0,1,0.4,1,1c0,0.2,0,0.3-0.1,0.5l-2,3.4C114.8,80.8,114.4,81,114.1,81z"/>
	<path class="st0" d="M52.8,50.2c-0.2,0-0.3,0-0.5-0.1L11.5,26.4c-0.5-0.3-0.6-0.9-0.4-1.4c0.1-0.2,0.2-0.3,0.4-0.4L52.3,1.1
		c0.3-0.2,0.7-0.2,1,0l40.8,23.6c0.5,0.3,0.6,0.9,0.4,1.4c-0.1,0.2-0.2,0.3-0.4,0.4L53.3,50C53.2,50.1,53,50.2,52.8,50.2z M14,25.6
		L52.8,48l38.8-22.4L52.8,3.2L14,25.6z"/>
	<path class="st0" d="M52.8,77.4c-0.2,0-0.3,0-0.5-0.1L11.5,53.7c-0.5-0.3-0.6-0.9-0.4-1.4c0.1-0.2,0.2-0.3,0.4-0.4l40.8-23.6
		c0.3-0.2,0.7-0.2,1,0l40.8,23.6c0.5,0.3,0.6,0.9,0.4,1.4c-0.1,0.2-0.2,0.3-0.4,0.4L53.3,77.3C53.2,77.3,53,77.4,52.8,77.4z
		 M14,52.8l38.8,22.4l38.8-22.4L52.8,30.4L14,52.8z"/>
	<path class="st0" d="M52.8,104.6c-0.6,0-1-0.4-1-1V76.4c0-0.4,0.2-0.7,0.5-0.9l40.8-23.6c0.5-0.3,1.1-0.1,1.4,0.4
		c0.1,0.2,0.1,0.3,0.1,0.5V80c0,0.4-0.2,0.7-0.5,0.9l-40.8,23.6C53.2,104.6,53,104.6,52.8,104.6z M53.8,77v24.9l38.8-22.4v-25
		L53.8,77z"/>
	<path class="st0" d="M52.8,104.6c-0.2,0-0.3,0-0.5-0.1L11.5,80.9C11.2,80.7,11,80.4,11,80V52.8c0-0.6,0.4-1,1-1
		c0.2,0,0.3,0,0.5,0.1l40.8,23.6c0.3,0.2,0.5,0.5,0.5,0.9v27.2C53.8,104.2,53.4,104.6,52.8,104.6z M13,79.5l38.8,22.4V77L13,54.5
		V79.5z"/>
	<rect x="1" y="1" class="st2" width="126" height="126"/>
	<g>
		<rect class="st2" width="128" height="128"/>
	</g>
</g>
</svg>
