<?xml version="1.0" encoding="utf-8"?>
<!-- Generator: Adobe Illustrator 24.1.2, SVG Export Plug-In . SVG Version: 6.00 Build 0)  -->
<svg version="1.1" id="Layer_1" xmlns="http://www.w3.org/2000/svg" xmlns:xlink="http://www.w3.org/1999/xlink" x="0px" y="0px"
	 width="128px" height="128px" viewBox="0 0 128 128" style="enable-background:new 0 0 128 128;" xml:space="preserve">
<style type="text/css">
	.st0{fill:#4D9987;}
	.st1{fill:#C4D7D3;}
	.st2{fill:none;}
</style>
<g>
	<path class="st0" d="M52.9,49.9c-0.1,0-0.3,0-0.4-0.1c-0.1,0-0.2-0.1-0.3-0.2c-0.2-0.2-0.3-0.4-0.3-0.7c0-0.1,0-0.3,0.1-0.4
		c0.1-0.2,0.3-0.4,0.5-0.5c0.4-0.1,0.8-0.1,1.1,0.2c0.1,0.1,0.2,0.2,0.2,0.3c0.1,0.1,0.1,0.3,0.1,0.4c0,0.3-0.1,0.5-0.3,0.7
		c-0.1,0.1-0.2,0.2-0.3,0.2C53.1,49.9,53,49.9,52.9,49.9z"/>
	<path class="st0" d="M51.9,43c0-0.6,0.4-1,1-1l0,0c0.6,0,1,0.4,1,1l0,0c0,0.6-0.4,1-1,1l0,0C52.3,44,51.9,43.6,51.9,43z M51.9,37.2
		c0-0.6,0.4-1,1-1l0,0c0.6,0,1,0.4,1,1l0,0c0,0.6-0.4,1-1,1l0,0C52.3,38.2,51.9,37.7,51.9,37.2z M51.9,31.3c0-0.5,0.4-1,1-1l0,0l0,0
		c0.6,0,1,0.4,1,1l0,0c0,0.6-0.4,1-1,1l0,0C52.3,32.3,51.9,31.9,51.9,31.3z M51.9,25.5c0-0.6,0.4-1,1-1l0,0c0.6,0,1,0.4,1,1l0,0
		c0,0.6-0.4,1-1,1l0,0C52.3,26.5,51.9,26,51.9,25.5L51.9,25.5z M51.9,19.6c0-0.6,0.4-1,1-1l0,0c0.6,0,1,0.4,1,1l0,0c0,0.6-0.4,1-1,1
		l0,0C52.3,20.6,51.9,20.1,51.9,19.6z M51.9,13.7c0-0.5,0.4-1,1-1l0,0l0,0c0.6,0,1,0.4,1,1l0,0c0,0.6-0.4,1-1,1l0,0
		C52.3,14.7,51.9,14.3,51.9,13.7z M51.9,7.9c0-0.5,0.4-1,1-1l0,0l0,0c0.5,0,1,0.4,1,1l0,0l0,0c0,0.6-0.4,1-1,1l0,0
		C52.3,8.9,51.9,8.4,51.9,7.9z"/>
	<path class="st0" d="M52.9,3c-0.3,0-0.5-0.1-0.7-0.3C52.1,2.6,52,2.5,52,2.4S51.9,2.1,51.9,2c0-0.3,0.1-0.5,0.3-0.7
		c0.4-0.4,1-0.4,1.4,0c0.2,0.2,0.3,0.4,0.3,0.7c0,0.1,0,0.3-0.1,0.4c0,0.1-0.1,0.2-0.2,0.3C53.4,2.9,53.1,3,52.9,3z"/>
	<path class="st0" d="M12.2,80.6c-0.1,0-0.3,0-0.4-0.1c-0.1,0-0.2-0.1-0.3-0.2c-0.2-0.2-0.3-0.4-0.3-0.7c0-0.1,0-0.3,0.1-0.4
		c0.1-0.2,0.3-0.4,0.5-0.5c0.4-0.1,0.8-0.1,1.1,0.2c0.4,0.4,0.4,1,0,1.4l0,0C12.8,80.5,12.5,80.6,12.2,80.6z"/>
	<path class="st0" d="M86.7,79.6c0-0.6,0.4-1,1-1l0,0l0,0c0.6,0,1,0.5,1,1l0,0c0,0.6-0.4,1-1,1l0,0C87.1,80.6,86.7,80.2,86.7,79.6
		L86.7,79.6z M80.9,79.6c0-0.6,0.4-1,1-1l0,0c0.6,0,1,0.5,1,1l0,0c0,0.6-0.4,1-1,1l0,0C81.3,80.6,80.9,80.2,80.9,79.6z M75.1,79.6
		c0-0.6,0.4-1,1-1l0,0c0.6,0,1,0.5,1,1l0,0c0,0.6-0.4,1-1,1l0,0C75.5,80.6,75.1,80.2,75.1,79.6z M69.3,79.6c0-0.6,0.4-1,1-1l0,0l0,0
		c0.6,0,1,0.5,1,1l0,0c0,0.6-0.4,1-1,1l0,0C69.7,80.6,69.3,80.2,69.3,79.6z M63.5,79.6c0-0.6,0.4-1,1-1l0,0c0.6,0,1,0.5,1,1l0,0
		c0,0.6-0.4,1-1,1l0,0C63.9,80.6,63.5,80.2,63.5,79.6L63.5,79.6z M57.7,79.6c0-0.6,0.4-1,1-1l0,0c0.6,0,1,0.5,1,1l0,0
		c0,0.6-0.4,1-1,1l0,0C58.1,80.6,57.7,80.2,57.7,79.6z M51.9,79.6c0-0.6,0.4-1,1-1l0,0l0,0c0.6,0,1,0.5,1,1l0,0c0,0.6-0.4,1-1,1l0,0
		C52.3,80.6,51.9,80.2,51.9,79.6z M46.1,79.6c0-0.6,0.4-1,1-1l0,0c0.6,0,1,0.4,1,1l0,0l0,0c0,0.6-0.4,1-1,1l0,0
		C46.5,80.6,46.1,80.2,46.1,79.6L46.1,79.6z M40.3,79.6c0-0.6,0.4-1,1-1l0,0c0.6,0,1,0.5,1,1l0,0c0,0.6-0.4,1-1,1l0,0
		C40.7,80.6,40.3,80.2,40.3,79.6z M34.5,79.6c0-0.6,0.4-1,1-1l0,0c0.6,0,1,0.5,1,1l0,0c0,0.6-0.4,1-1,1l0,0
		C34.9,80.6,34.5,80.2,34.5,79.6z M28.7,79.6c0-0.6,0.4-1,1-1l0,0l0,0c0.6,0,1,0.4,1,1l0,0l0,0c0,0.6-0.4,1-1,1l0,0
		C29.1,80.6,28.7,80.2,28.7,79.6L28.7,79.6z M22.8,79.6c0-0.6,0.4-1,1-1l0,0c0.6,0,1,0.5,1,1l0,0c0,0.6-0.4,1-1,1l0,0
		C23.3,80.6,22.9,80.2,22.8,79.6z M17,79.6c0-0.6,0.4-1,1-1l0,0c0.6,0,1,0.5,1,1l0,0c0,0.6-0.4,1-1,1l0,0C17.5,80.6,17,80.2,17,79.6
		z"/>
	<path class="st0" d="M93.5,80.6c-0.5,0-1-0.4-1-1l0,0c0-0.1,0-0.3,0.1-0.4c0-0.1,0.1-0.2,0.2-0.3c0,0,0.1-0.1,0.2-0.1
		s0.1-0.1,0.2-0.1l0.2-0.1c0.1,0,0.3,0,0.4,0s0.1,0,0.2,0.1s0.1,0.1,0.2,0.1s0.1,0.1,0.2,0.1c0.2,0.2,0.3,0.4,0.3,0.7
		c0,0.3-0.1,0.5-0.3,0.7C94,80.5,93.8,80.6,93.5,80.6L93.5,80.6z"/>
	<path class="st0" d="M12.2,26.5c-0.6,0-1-0.5-1-1c0-0.1,0-0.2,0.1-0.4c0.2-0.5,0.8-0.7,1.3-0.5c0.1,0,0.2,0.1,0.3,0.2
		s0.2,0.2,0.2,0.3c0.1,0.4,0.1,0.8-0.2,1.1c-0.1,0.1-0.2,0.2-0.3,0.2C12.5,26.4,12.4,26.5,12.2,26.5z"/>
	<path class="st0" d="M86.7,25.5c0-0.6,0.4-1,1-1l0,0c0.6,0,1,0.4,1,1l0,0c0,0.6-0.4,1-1,1l0,0C87.1,26.5,86.7,26,86.7,25.5z
		 M80.9,25.5c0-0.6,0.4-1,1-1l0,0c0.6,0,1,0.4,1,1l0,0c0,0.6-0.4,1-1,1l0,0C81.3,26.5,80.9,26,80.9,25.5L80.9,25.5z M75.1,25.5
		c0-0.6,0.4-1,1-1l0,0c0.6,0,1,0.4,1,1l0,0c0,0.6-0.4,1-1,1l0,0C75.5,26.5,75.1,26,75.1,25.5z M69.3,25.5c0-0.6,0.4-1,1-1l0,0
		c0.6,0,1,0.4,1,1l0,0c0,0.6-0.4,1-1,1l0,0C69.7,26.5,69.3,26,69.3,25.5z M63.5,25.5c0-0.6,0.4-1,1-1l0,0c0.6,0,1,0.4,1,1l0,0l0,0
		c0,0.6-0.4,1-1,1l0,0C63.9,26.5,63.5,26,63.5,25.5z M57.7,25.5c0-0.6,0.4-1,1-1l0,0c0.6,0,1,0.4,1,1l0,0c0,0.6-0.4,1-1,1l0,0
		C58.1,26.5,57.7,26,57.7,25.5z M51.9,25.5c0-0.6,0.4-1,1-1l0,0c0.6,0,1,0.4,1,1l0,0c0,0.6-0.4,1-1,1l0,0
		C52.3,26.5,51.9,26,51.9,25.5z M46.1,25.5c0-0.6,0.4-1,1-1l0,0c0.6,0,1,0.4,1,1l0,0c0,0.6-0.4,1-1,1l0,0
		C46.5,26.4,46.1,26,46.1,25.5z M40.3,25.5c0-0.6,0.4-1,1-1l0,0c0.6,0,1,0.4,1,1l0,0c0,0.6-0.4,1-1,1l0,0
		C40.7,26.5,40.3,26,40.3,25.5z M34.5,25.5c0-0.6,0.4-1,1-1l0,0c0.6,0,1,0.4,1,1l0,0c0,0.6-0.4,1-1,1l0,0
		C34.9,26.5,34.5,26,34.5,25.5z M28.6,25.5c0-0.6,0.4-1,1-1l0,0c0.6,0,1,0.4,1,1l0,0c0,0.6-0.4,1-1,1l0,0
		C29.1,26.5,28.6,26,28.6,25.5z M22.8,25.5c0-0.6,0.4-1,1-1l0,0c0.6,0,1,0.4,1,1l0,0c0,0.6-0.4,1-1,1l0,0
		C23.3,26.4,22.9,26,22.8,25.5z M17,25.5c0-0.6,0.4-1,1-1l0,0c0.6,0,1,0.4,1,1l0,0c0,0.6-0.4,1-1,1l0,0C17.5,26.5,17,26,17,25.5z"/>
	<path class="st0" d="M93.5,26.5c-0.1,0-0.3,0-0.4-0.1s-0.2-0.1-0.3-0.2c-0.1-0.1-0.2-0.2-0.2-0.3c0-0.1-0.1-0.2-0.1-0.4
		c0-0.3,0.1-0.5,0.3-0.7c0.4-0.4,1-0.4,1.4,0c0.2,0.2,0.3,0.4,0.3,0.7c0,0.1,0,0.3-0.1,0.4c0,0.1-0.1,0.2-0.2,0.3
		c-0.1,0.1-0.2,0.2-0.3,0.2C93.7,26.4,93.6,26.5,93.5,26.5z"/>
	<path class="st0" d="M52.9,49.9c-0.2,0-0.3,0-0.5-0.1L11.7,26.3c-0.5-0.3-0.6-0.9-0.4-1.4c0.1-0.2,0.2-0.3,0.4-0.4L52.4,1.1
		c0.3-0.2,0.7-0.2,1,0L94,24.6c0.5,0.3,0.6,0.9,0.4,1.4c-0.1,0.2-0.2,0.3-0.4,0.4L53.4,49.8C53.2,49.9,53,49.9,52.9,49.9z
		 M14.2,25.5l38.6,22.3l38.6-22.3L52.9,3.2L14.2,25.5z"/>
	<path class="st0" d="M52.9,104.1c-0.6,0-1-0.4-1-1V48.9c0-0.4,0.2-0.7,0.5-0.9L93,24.6c0.5-0.3,1.1-0.1,1.4,0.4
		c0.1,0.2,0.1,0.3,0.1,0.5v54.2c0,0.4-0.2,0.7-0.5,0.9l-40.6,23.5C53.2,104,53,104.1,52.9,104.1z M53.9,49.5v51.9L92.5,79V27.2
		L53.9,49.5z"/>
	<path class="st0" d="M52.9,104.1c-0.2,0-0.3,0-0.5-0.1L11.7,80.5c-0.3-0.2-0.5-0.5-0.5-0.9V25.5c0-0.6,0.4-1,1-1
		c0.2,0,0.3,0,0.5,0.1L53.4,48c0.3,0.2,0.5,0.5,0.5,0.9v54.2c0,0.4-0.2,0.7-0.5,0.9C53.2,104,53,104.1,52.9,104.1z M13.2,79
		l38.6,22.3V49.5L13.2,27.2V79z"/>
	<path class="st0" d="M93.5,124.4H12.2c-0.6,0-1-0.4-1-1s0.4-1,1-1h81.2c0.6,0,1,0.4,1,1S94,124.4,93.5,124.4z"/>
	<polygon class="st1" points="93.5,123.4 91.8,122.4 90.1,121.4 90.1,123.4 90.1,125.3 91.8,124.4 	"/>
	<path class="st0" d="M90.1,126.3c-0.6,0-1-0.4-1-1v-3.9c0-0.6,0.4-1,1-1c0.2,0,0.3,0,0.5,0.1l3.4,2c0.5,0.3,0.6,0.9,0.4,1.4
		c-0.1,0.2-0.2,0.3-0.4,0.4l-3.4,2C90.4,126.3,90.3,126.3,90.1,126.3z"/>
	<polygon class="st1" points="13.3,124 15,125 16.7,126 16.7,124 16.7,122.1 15,123.1 	"/>
	<path class="st0" d="M16.7,127c-0.2,0-0.3,0-0.5-0.1l-3.4-2c-0.5-0.3-0.6-0.9-0.4-1.4c0.1-0.2,0.2-0.3,0.4-0.4l3.4-2
		c0.5-0.3,1.1-0.1,1.4,0.4c0.1,0.2,0.1,0.3,0.1,0.5v3.9C17.7,126.6,17.2,127,16.7,127z"/>
	<path class="st0" d="M113.8,80.6c-0.6,0-1-0.4-1-1V25.5c0-0.6,0.4-1,1-1s1,0.4,1,1v54.2C114.8,80.2,114.4,80.6,113.8,80.6z"/>
	<polygon class="st1" points="113.8,25.5 112.8,27.1 111.8,28.8 113.8,28.8 115.8,28.8 114.8,27.1 	"/>
	<path class="st0" d="M115.8,29.8h-3.9c-0.6,0-1-0.4-1-1c0-0.2,0-0.3,0.1-0.5l2-3.4c0.3-0.5,1-0.6,1.4-0.3c0.1,0.1,0.2,0.2,0.3,0.3
		l2,3.4c0.3,0.5,0.1,1.1-0.4,1.4C116.1,29.8,115.9,29.8,115.8,29.8L115.8,29.8z"/>
	<polygon class="st1" points="113.8,79.6 114.8,77.9 115.8,76.2 113.8,76.2 111.8,76.2 112.8,77.9 	"/>
	<path class="st0" d="M113.8,80.6c-0.4,0-0.7-0.2-0.9-0.5l-2-3.4c-0.3-0.5-0.1-1.1,0.4-1.4c0.2-0.1,0.3-0.1,0.5-0.1h3.9
		c0.6,0,1,0.4,1,1c0,0.2,0,0.3-0.1,0.5l-2,3.4C114.5,80.4,114.2,80.6,113.8,80.6z"/>
	<path class="st0" d="M52.9,126.1c-0.6,0-1-0.4-1-1v-3.4c0-0.6,0.4-1,1-1s1,0.4,1,1v3.4C53.9,125.6,53.4,126.1,52.9,126.1z"/>
	<path class="st0" d="M115.5,53.5h-3.4c-0.6,0-1-0.4-1-1s0.4-1,1-1h3.4c0.6,0,1,0.4,1,1S116,53.5,115.5,53.5z"/>
	<rect x="1" y="1" class="st2" width="126" height="126"/>
	<g>
		<rect class="st2" width="128" height="128"/>
	</g>
</g>
</svg>
