<?xml version="1.0" encoding="utf-8"?>
<!-- Generator: Adobe Illustrator 24.1.2, SVG Export Plug-In . SVG Version: 6.00 Build 0)  -->
<svg version="1.1" id="Layer_1" xmlns="http://www.w3.org/2000/svg" xmlns:xlink="http://www.w3.org/1999/xlink" x="0px" y="0px"
	 width="128px" height="128px" viewBox="0 0 128 128" style="enable-background:new 0 0 128 128;" xml:space="preserve">
<style type="text/css">
	.st0{fill:#FFFFFF;}
	.st1{fill:#E9EBDF;}
	.st2{fill:#4D9987;}
	.st3{fill:#0E352C;}
	.st4{fill:none;}
</style>
<g>
	<polygon class="st0" points="91,45.2 55,24.4 37,34.8 73,55.6 	"/>
	<polygon class="st1" points="91,93.2 73,103.6 73,55.6 91,45.2 	"/>
	<path class="st2" d="M73,104.6c-0.6,0-1-0.4-1-1v-48c0-0.4,0.2-0.7,0.5-0.9l18-10.4c0.5-0.3,1.1-0.1,1.4,0.4C92,44.8,92,45,92,45.2
		v48c0,0.4-0.2,0.7-0.5,0.9l-18,10.4C73.3,104.5,73.2,104.6,73,104.6z M74,56.2v45.7l16-9.2V46.9L74,56.2z"/>
	<polygon class="st1" points="37,82.8 73,103.6 73,55.6 37,34.8 	"/>
	<path class="st2" d="M73,104.6c-0.2,0-0.3,0-0.5-0.1l-36-20.8c-0.3-0.2-0.5-0.5-0.5-0.9v-48c0-0.4,0.2-0.7,0.5-0.9s0.7-0.2,1,0
		l36,20.8c0.3,0.2,0.5,0.5,0.5,0.9v48C74,104.1,73.6,104.6,73,104.6L73,104.6z M38,82.2l34,19.6V56.2L38,36.5V82.2z"/>
	<path class="st3" d="M73,104.6c-0.2,0-0.3,0-0.5-0.1l-36-20.8c-0.3-0.2-0.5-0.5-0.5-0.9v-48c0-0.4,0.2-0.7,0.5-0.9l18-10.4
		c0.3-0.2,0.7-0.2,1,0l36,20.8c0.3,0.2,0.5,0.5,0.5,0.9v48c0,0.4-0.2,0.7-0.5,0.9l-18,10.4C73.3,104.5,73.2,104.6,73,104.6z
		 M38,82.2l35,20.2l17-9.8V45.8L55,25.6l-17,9.8V82.2z"/>
	<rect x="1" y="1" class="st4" width="126" height="126"/>
	<g>
		<rect class="st4" width="128" height="128"/>
	</g>
</g>
</svg>
