<?xml version="1.0" encoding="utf-8"?>
<!-- Generator: Adobe Illustrator 24.1.2, SVG Export Plug-In . SVG Version: 6.00 Build 0)  -->
<svg version="1.1" id="Layer_1" xmlns="http://www.w3.org/2000/svg" xmlns:xlink="http://www.w3.org/1999/xlink" x="0px" y="0px"
	 width="440px" height="300px" viewBox="0 0 440 300" style="enable-background:new 0 0 440 300;" xml:space="preserve">
<style type="text/css">
	.st0{fill:#FFFFFF;}
	.st1{fill:#0E352C;}
	.st2{fill:#E9EBDF;}
	.st3{fill:none;}
</style>
<g>
	<polygon class="st0" points="267.6,140.8 279,141.8 301,129.1 299.3,122.5 267.6,104.2 256.2,103.2 234.2,116 235.9,122.5 
		204.1,140.8 205.8,134.3 183.8,121.5 172.4,122.5 140.7,140.8 139,147.4 161,160.1 172.4,159.2 140.7,177.5 139,184 161,196.8 
		172.4,195.8 204.1,177.5 215.5,178.5 237.6,165.7 235.9,159.2 267.6,177.5 279,178.5 301,165.7 299.3,159.2 	"/>
	<path class="st1" d="M161,197.8c-0.2,0-0.3,0-0.5-0.1L138.4,185c-0.4-0.2-0.6-0.7-0.5-1.1l1.7-6.6c0.1-0.3,0.2-0.5,0.5-0.6
		l27.8-16.1l-6.9,0.6c-0.2,0-0.4,0-0.6-0.1l-22.1-12.7c-0.4-0.2-0.6-0.7-0.5-1.1l1.7-6.6c0.1-0.3,0.2-0.5,0.5-0.6l31.7-18.3
		c0.1-0.1,0.3-0.1,0.4-0.1l11.4-1c0.2,0,0.4,0,0.6,0.1l22.1,12.7c0.4,0.2,0.6,0.7,0.5,1.1l-1.1,4.3l29-16.7l-1.5-5.8
		c-0.1-0.4,0.1-0.9,0.5-1.1l22.1-12.7c0.2-0.1,0.4-0.1,0.6-0.1l11.4,1c0.1,0,0.3,0.1,0.4,0.1l31.7,18.3c0.2,0.1,0.4,0.4,0.5,0.6
		l1.7,6.6c0.1,0.4-0.1,0.9-0.5,1.1l-22.1,12.7c-0.2,0.1-0.4,0.1-0.6,0.1l-6.9-0.6l27.8,16.1c0.2,0.1,0.4,0.4,0.5,0.6l1.7,6.6
		c0.1,0.4-0.1,0.9-0.5,1.1l-22.1,12.7c-0.2,0.1-0.4,0.1-0.6,0.1l-11.4-1c-0.1,0-0.3-0.1-0.4-0.1l-29.7-17.1l1.1,4.3
		c0.1,0.4-0.1,0.9-0.5,1.1L216,179.3c-0.2,0.1-0.4,0.1-0.6,0.1l-11.1-1l-31.5,18.2c-0.1,0.1-0.3,0.1-0.4,0.1L161,197.8
		C161.1,197.8,161.1,197.8,161,197.8z M140.1,183.6l21.1,12.2l10.8-0.9l31.5-18.2c0.2-0.1,0.4-0.1,0.6-0.1l11.1,1l21.1-12.2
		l-1.5-5.8c-0.1-0.5,0.2-1.1,0.7-1.2c0.3-0.1,0.5,0,0.8,0.1l31.5,18.2l10.8,0.9l21.1-12.2l-1.4-5.4l-31.4-18.1
		c-0.5-0.3-0.6-0.9-0.4-1.4c0.2-0.3,0.6-0.5,1-0.5l11.1,1l21.1-12.2l-1.4-5.4l-31.2-18l-10.8-0.9l-21.1,12.2l1.5,5.8
		c0.1,0.4-0.1,0.9-0.5,1.1l-31.7,18.3c-0.5,0.3-1.1,0.1-1.4-0.4c-0.1-0.2-0.2-0.5-0.1-0.8l1.5-5.8l-21.1-12.2l-10.8,0.9l-31.2,18
		L140,147l21.1,12.2l11.1-1c0.5,0,0.9,0.2,1,0.7c0.1,0.4,0,0.9-0.5,1.2l-31.4,18.1L140.1,183.6z"/>
	<path class="st2" d="M172.4,196.8c-0.2,0-0.3,0-0.5-0.1l-31.7-18.3c-0.5-0.3-0.6-0.9-0.4-1.4s0.9-0.6,1.4-0.4l31.7,18.3
		c0.5,0.3,0.6,0.9,0.4,1.4C173.1,196.6,172.8,196.8,172.4,196.8L172.4,196.8z"/>
	<path class="st2" d="M204.1,178.5c-0.2,0-0.3,0-0.5-0.1l-63.5-36.6c-0.5-0.3-0.6-0.9-0.4-1.4c0.3-0.5,0.9-0.6,1.4-0.4l0,0
		l63.5,36.6c0.5,0.3,0.6,0.9,0.4,1.4C204.8,178.3,204.5,178.5,204.1,178.5L204.1,178.5z"/>
	<path class="st2" d="M235.9,160.2c-0.2,0-0.3,0-0.5-0.1l-63.5-36.6c-0.5-0.3-0.6-0.9-0.4-1.4s0.9-0.6,1.4-0.4l63.5,36.6
		c0.5,0.3,0.6,0.9,0.4,1.4C236.6,160,236.2,160.2,235.9,160.2L235.9,160.2z"/>
	<path class="st2" d="M267.6,141.8c-0.2,0-0.3,0-0.5-0.1l-31.7-18.3c-0.5-0.3-0.6-0.9-0.4-1.4s0.9-0.6,1.4-0.4l31.7,18.3
		c0.5,0.3,0.6,0.9,0.4,1.4C268.3,141.7,268,141.8,267.6,141.8L267.6,141.8z"/>
	<path class="st2" d="M204.1,178.5c-0.6,0-1-0.4-1-1c0-0.4,0.2-0.7,0.5-0.9l95.2-55c0.5-0.3,1.1-0.1,1.4,0.4s0.1,1.1-0.4,1.4
		l-95.2,55C204.5,178.4,204.3,178.5,204.1,178.5z"/>
	<path class="st2" d="M267.6,178.5c-0.6,0-1-0.4-1-1c0-0.4,0.2-0.7,0.5-0.9l31.7-18.3c0.5-0.3,1.1-0.1,1.4,0.4s0.1,1.1-0.4,1.4
		l-31.7,18.3C267.9,178.4,267.8,178.5,267.6,178.5z"/>
	<path class="st2" d="M235.9,123.5c-0.6,0-1-0.4-1-1c0-0.4,0.2-0.7,0.5-0.9l31.7-18.3c0.5-0.3,1.1-0.1,1.4,0.4s0.1,1.1-0.4,1.4
		l-31.7,18.3C236.2,123.5,236,123.5,235.9,123.5z"/>
	<path class="st2" d="M172.4,160.2c-0.6,0-1-0.4-1-1c0-0.4,0.2-0.7,0.5-0.9l31.7-18.3c0.5-0.3,1.1-0.1,1.4,0.4
		c0.3,0.5,0.1,1.1-0.4,1.4L172.9,160C172.8,160.1,172.6,160.2,172.4,160.2z"/>
	<path class="st1" d="M161,197.8c-0.2,0-0.3,0-0.5-0.1L138.4,185c-0.4-0.2-0.6-0.7-0.5-1.1l1.7-6.6c0.1-0.3,0.2-0.5,0.5-0.6
		l27.8-16.1l-6.9,0.6c-0.2,0-0.4,0-0.6-0.1l-22.1-12.7c-0.4-0.2-0.6-0.7-0.5-1.1l1.7-6.6c0.1-0.3,0.2-0.5,0.5-0.6l31.7-18.3
		c0.1-0.1,0.3-0.1,0.4-0.1l11.4-1c0.2,0,0.4,0,0.6,0.1l22.1,12.7c0.4,0.2,0.6,0.7,0.5,1.1l-1.1,4.3l29-16.7l-1.5-5.8
		c-0.1-0.4,0.1-0.9,0.5-1.1l22.1-12.7c0.2-0.1,0.4-0.1,0.6-0.1l11.4,1c0.1,0,0.3,0.1,0.4,0.1l31.7,18.3c0.2,0.1,0.4,0.4,0.5,0.6
		l1.7,6.6c0.1,0.4-0.1,0.9-0.5,1.1l-22.1,12.7c-0.2,0.1-0.4,0.1-0.6,0.1l-6.9-0.6l27.8,16.1c0.2,0.1,0.4,0.4,0.5,0.6l1.7,6.6
		c0.1,0.4-0.1,0.9-0.5,1.1l-22.1,12.7c-0.2,0.1-0.4,0.1-0.6,0.1l-11.4-1c-0.1,0-0.3-0.1-0.4-0.1l-29.7-17.1l1.1,4.3
		c0.1,0.4-0.1,0.9-0.5,1.1L216,179.3c-0.2,0.1-0.4,0.1-0.6,0.1l-11.1-1l-31.5,18.2c-0.1,0.1-0.3,0.1-0.4,0.1L161,197.8
		C161.1,197.8,161.1,197.8,161,197.8z M140.1,183.6l21.1,12.2l10.8-0.9l31.5-18.2c0.2-0.1,0.4-0.1,0.6-0.1l11.1,1l21.1-12.2
		l-1.5-5.8c-0.1-0.5,0.2-1.1,0.7-1.2c0.3-0.1,0.5,0,0.8,0.1l31.5,18.2l10.8,0.9l21.1-12.2l-1.4-5.4l-31.4-18.1
		c-0.5-0.3-0.6-0.9-0.4-1.4c0.2-0.3,0.6-0.5,1-0.5l11.1,1l21.1-12.2l-1.4-5.4l-31.2-18l-10.8-0.9l-21.1,12.2l1.5,5.8
		c0.1,0.4-0.1,0.9-0.5,1.1l-31.7,18.3c-0.5,0.3-1.1,0.1-1.4-0.4c-0.1-0.2-0.2-0.5-0.1-0.8l1.5-5.8l-21.1-12.2l-10.8,0.9l-31.2,18
		L140,147l21.1,12.2l11.1-1c0.5,0,0.9,0.2,1,0.7c0.1,0.4,0,0.9-0.5,1.2l-31.4,18.1L140.1,183.6z"/>
	<rect y="50" class="st3" width="440" height="200"/>
	<rect class="st3" width="440" height="300"/>
</g>
</svg>
