<?xml version="1.0" encoding="utf-8"?>
<!-- Generator: Adobe Illustrator 24.1.2, SVG Export Plug-In . SVG Version: 6.00 Build 0)  -->
<svg version="1.1" id="Layer_1" xmlns="http://www.w3.org/2000/svg" xmlns:xlink="http://www.w3.org/1999/xlink" x="0px" y="0px"
	 width="128px" height="128px" viewBox="0 0 128 128" style="enable-background:new 0 0 128 128;" xml:space="preserve">
<style type="text/css">
	.st0{fill:#E9EBDF;}
	.st1{fill:#4D9987;}
	.st2{fill:#FFFFFF;}
	.st3{fill:#0E352C;}
	.st4{fill:none;}
</style>
<g>
	<path class="st0" d="M89.9,79.7c-0.2-0.1-0.3-0.2-0.5-0.3c-14.1-8.1-36.9-8.1-50.9,0c-0.2,0.1-0.3,0.2-0.5,0.3H28v12
		c0,5.3,3.5,10.6,10.5,14.7c14.1,8.1,36.9,8.1,50.9,0c7-4.1,10.5-9.4,10.5-14.7v-12H89.9z"/>
	<path class="st1" d="M89.4,106.4c7-4.1,10.5-9.4,10.5-14.7v-12h-10c-0.2-0.1-0.3-0.2-0.5-0.3c-7-4.1-16.2-6.1-25.5-6.1v39.2
		C73.2,112.5,82.4,110.4,89.4,106.4z"/>
	<ellipse class="st2" cx="64" cy="79.7" rx="36" ry="20.8"/>
	<path class="st1" d="M64,101.4c-9.4,0-18.8-2.1-26-6.2c-7.1-4.1-11-9.6-11-15.6S30.9,68.2,38,64c14.3-8.3,37.6-8.3,51.9,0
		c7.1,4.1,11,9.6,11,15.6s-3.9,11.5-11,15.6C82.8,99.4,73.4,101.4,64,101.4z M64,59.9c-9,0-18.1,2-25,6c-6.5,3.7-10,8.7-10,13.8
		s3.6,10.1,10,13.8c13.8,7.9,36.2,7.9,49.9,0c6.5-3.7,10-8.7,10-13.8s-3.6-10.1-10-13.8C82.1,61.9,73,59.9,64,59.9z"/>
	<path class="st3" d="M64,113.4c-9.8,0-19-2.2-26-6.2c-7.1-4.1-11-9.6-11-15.6v-12c0-5.9,3.9-11.5,11-15.6c14.3-8.3,37.6-8.3,51.9,0
		l0,0c7.1,4.1,11,9.6,11,15.6v12c0,2.2-0.6,4.4-1.6,6.4c-1.8,3.5-5,6.6-9.5,9.2c-2.8,1.6-5.8,2.9-8.9,3.8c-2.2,0.7-4.4,1.2-6.6,1.6
		c-2.3,0.4-4.6,0.6-6.9,0.8C66.3,113.4,65.2,113.4,64,113.4z M64,59.9c-9,0-18.1,2-25,6c-6.5,3.7-10,8.7-10,13.8v12
		c0,5.2,3.6,10.1,10,13.8c6.7,3.8,15.5,6,25,6c1.1,0,2.3,0,3.4-0.1c2.2-0.1,4.5-0.4,6.7-0.7c2.2-0.4,4.3-0.9,6.4-1.5
		c3-0.9,5.8-2.1,8.5-3.6c4.1-2.4,7.1-5.2,8.7-8.4c0.9-1.7,1.4-3.6,1.4-5.5v-12c0-5.2-3.6-10.1-10-13.8l0,0
		C82.1,61.9,73,59.9,64,59.9L64,59.9z"/>
	<path class="st3" d="M100,60c-0.6,0-1-0.5-1-1c0-0.1,0-0.2,0.1-0.4c0.1-0.1,0.1-0.2,0.2-0.3c0.3-0.3,0.7-0.4,1.1-0.2
		c0.2,0.1,0.4,0.3,0.5,0.5c0.1,0.1,0.1,0.2,0.1,0.4c0,0.1,0,0.3-0.1,0.4c-0.1,0.2-0.3,0.4-0.5,0.5C100.3,60,100.1,60,100,60z"/>
	<path class="st3" d="M99,64c0-0.6,0.4-1,1-1l0,0c0.6,0,1,0.4,1,1l0,0c0,0.6-0.4,1-1,1l0,0C99.5,65,99,64.5,99,64z"/>
	<path class="st3" d="M100,70c-0.1,0-0.3,0-0.4-0.1s-0.2-0.1-0.3-0.2C99.1,69.5,99,69.3,99,69c0-0.1,0-0.3,0.1-0.4s0.1-0.2,0.2-0.3
		c0.1-0.1,0.2-0.2,0.3-0.2c0.2-0.1,0.4-0.1,0.6-0.1c0.1,0,0.2,0.1,0.4,0.1c0.1,0,0.1,0.1,0.2,0.1c0.1,0.1,0.2,0.2,0.2,0.3
		c0.1,0.1,0.1,0.3,0.1,0.4c0,0.3-0.1,0.5-0.3,0.7c-0.1,0.1-0.2,0.2-0.3,0.2C100.3,70,100.1,70,100,70z"/>
	<path class="st3" d="M28,60c-0.1,0-0.3,0-0.4-0.1c-0.1,0-0.2-0.1-0.3-0.2C27.1,59.5,27,59.2,27,59c0-0.1,0-0.3,0.1-0.4
		c0.2-0.5,0.8-0.8,1.3-0.5l0,0c0.2,0.1,0.4,0.3,0.5,0.5C29,58.7,29,58.8,29,59c0,0.1,0,0.3-0.1,0.4c-0.1,0.2-0.3,0.4-0.5,0.5
		C28.3,60,28.1,60,28,60z"/>
	<path class="st3" d="M27,64c0-0.6,0.4-1,1-1l0,0c0.6,0,1,0.4,1,1l0,0c0,0.6-0.4,1-1,1l0,0C27.5,65,27,64.5,27,64z"/>
	<path class="st3" d="M28,70c-0.1,0-0.3,0-0.4-0.1s-0.2-0.1-0.3-0.2c-0.1-0.1-0.2-0.2-0.2-0.3c0-0.1-0.1-0.3-0.1-0.4s0-0.3,0.1-0.4
		c0-0.1,0.1-0.2,0.2-0.3l0.1-0.1c0.1,0,0.1-0.1,0.2-0.1s0.1,0,0.2-0.1c0.1,0,0.3,0,0.4,0s0.2,0.1,0.4,0.1c0.1,0,0.1,0.1,0.2,0.1
		c0.1,0.1,0.2,0.2,0.2,0.3c0.1,0.2,0.1,0.5,0,0.8c0,0.1-0.1,0.2-0.2,0.3c-0.1,0.1-0.2,0.2-0.3,0.2C28.3,70,28.1,70,28,70z"/>
	<path class="st0" d="M90,36.3c-0.2-0.1-0.3-0.2-0.5-0.3c-14.1-8.1-36.9-8.1-50.9,0c-0.2,0.1-0.3,0.2-0.5,0.3H28v12
		C28,53.7,31.5,59,38.6,63c14.1,8.1,36.9,8.1,50.9,0c7-4.1,10.5-9.4,10.5-14.7v-12H90z"/>
	<path class="st1" d="M89.5,63c7-4.1,10.5-9.4,10.5-14.7v-12H90c-0.2-0.1-0.3-0.2-0.5-0.3c-7-4.1-16.2-6.1-25.5-6.1v39.2
		C73.2,69.1,82.4,67.1,89.5,63z"/>
	<ellipse class="st2" cx="64" cy="36.3" rx="36" ry="20.8"/>
	<path class="st1" d="M64,58.1c-9.4,0-18.8-2.1-26-6.2c-7.1-4.1-11-9.6-11-15.6s3.9-11.4,11-15.6c14.3-8.3,37.6-8.3,51.9,0
		c7.1,4.1,11,9.6,11,15.6s-3.9,11.5-11,15.6C82.8,56,73.4,58.1,64,58.1z M64,16.5c-9,0-18.1,2-25,6c-6.5,3.7-10,8.7-10,13.8
		s3.6,10.1,10,13.8c13.8,7.9,36.2,7.9,49.9,0c6.5-3.7,10-8.7,10-13.8s-3.6-10.1-10-13.8C82.1,18.5,73,16.5,64,16.5z"/>
	<path class="st3" d="M64,70.1c-9.8,0-19-2.2-26-6.2c-7.1-4.1-11-9.6-11-15.6v-12c0-5.9,3.9-11.5,11-15.6c14.3-8.3,37.6-8.3,51.9,0
		l0,0c7.1,4.1,11,9.6,11,15.6v12c0,2.2-0.6,4.4-1.6,6.4c-1.8,3.5-5,6.6-9.5,9.2c-2.8,1.6-5.8,2.9-8.9,3.8c-2.2,0.7-4.4,1.2-6.6,1.6
		c-2.3,0.4-4.6,0.6-6.9,0.8C66.4,70.1,65.2,70.1,64,70.1z M64,16.5c-9,0-18.1,2-25,6c-6.5,3.7-10,8.7-10,13.8v12
		c0,5.2,3.6,10.1,10,13.8c6.6,3.8,15.5,6,25,6c1.1,0,2.3,0,3.4-0.1c2.2-0.1,4.5-0.4,6.7-0.7c2.2-0.4,4.3-0.9,6.4-1.5
		c3-0.9,5.8-2.1,8.5-3.6c4.1-2.4,7.1-5.2,8.7-8.4c0.9-1.7,1.4-3.6,1.4-5.5v-12c0-5.2-3.6-10.1-10-13.8l0,0
		C82.1,18.5,73,16.5,64,16.5L64,16.5z"/>
	<rect x="1" y="1" class="st4" width="126" height="126"/>
	<g>
		<rect class="st4" width="128" height="128"/>
	</g>
</g>
</svg>
