<?xml version="1.0" encoding="utf-8"?>
<!-- Generator: Adobe Illustrator 24.1.2, SVG Export Plug-In . SVG Version: 6.00 Build 0)  -->
<svg version="1.1" id="Layer_1" xmlns="http://www.w3.org/2000/svg" xmlns:xlink="http://www.w3.org/1999/xlink" x="0px" y="0px"
	 width="128px" height="128px" viewBox="0 0 128 128" style="enable-background:new 0 0 128 128;" xml:space="preserve">
<style type="text/css">
	.st0{fill:#E9EBDF;}
	.st1{fill:#4D9987;}
	.st2{fill:#FFFFFF;}
	.st3{fill:#0E352C;}
	.st4{fill:none;}
</style>
<g>
	<path class="st0" d="M89.9,52c-0.2-0.1-0.3-0.2-0.5-0.3c-14.1-8.1-36.9-8.1-50.9,0c-0.2,0.1-0.3,0.2-0.5,0.3H28v24
		c0,5.3,3.5,10.6,10.5,14.7c14.1,8.1,36.9,8.1,50.9,0c7-4.1,10.5-9.4,10.5-14.7V52H89.9z"/>
	<path class="st1" d="M89.5,90.7c7-4.1,10.5-9.4,10.5-14.7V52H89.9c-0.2-0.1-0.3-0.2-0.5-0.3c-7-4.1-16.2-6.1-25.5-6.1v51.2
		C73.2,96.8,82.4,94.8,89.5,90.7z"/>
	<ellipse class="st2" cx="64" cy="52" rx="36" ry="20.8"/>
	<path class="st1" d="M64,73.8c-9.4,0-18.8-2.1-26-6.2C30.9,63.5,27,58,27,52s3.9-11.5,11-15.6c14.3-8.3,37.6-8.3,51.9,0l0,0
		c7.1,4.1,11,9.6,11,15.6s-3.9,11.5-11,15.6C82.8,71.7,73.4,73.8,64,73.8z M64,32.2c-9,0-18.1,2-25,6c-6.5,3.7-10,8.6-10,13.8
		s3.6,10.1,10,13.8c13.8,7.9,36.2,7.9,49.9,0c6.5-3.7,10-8.7,10-13.8s-3.6-10.1-10-13.8l0,0C82.1,34.2,73,32.2,64,32.2z"/>
	<path class="st3" d="M64,97.8c-9.8,0-19-2.2-26-6.2C30.9,87.5,27,82,27,76V52c0-5.9,3.9-11.5,11-15.6c14.3-8.3,37.6-8.3,51.9,0l0,0
		c7.1,4.1,11,9.6,11,15.6v24c0,2.2-0.6,4.4-1.6,6.4c-1.8,3.5-5,6.6-9.5,9.2c-2.8,1.6-5.8,2.9-8.9,3.8c-2.2,0.7-4.4,1.2-6.6,1.6
		c-2.3,0.4-4.6,0.6-6.9,0.8C66.4,97.8,65.2,97.8,64,97.8z M64,32.2c-9,0-18.1,2-25,6c-6.5,3.7-10,8.7-10,13.8v24
		c0,5.2,3.6,10.1,10,13.8c6.7,3.8,15.5,6,25,6c1.1,0,2.3,0,3.4-0.1c2.2-0.1,4.5-0.4,6.7-0.7c2.2-0.4,4.3-0.9,6.4-1.5
		c3-0.9,5.8-2.1,8.5-3.6c4.1-2.4,7.1-5.2,8.7-8.4c0.9-1.7,1.4-3.6,1.4-5.5V52c0-5.2-3.6-10.1-10-13.8l0,0C82.1,34.2,73,32.2,64,32.2
		z"/>
	<rect x="1" y="1" class="st4" width="126" height="126"/>
	<g>
		<rect class="st4" width="128" height="128"/>
	</g>
</g>
</svg>
