<?xml version="1.0" encoding="utf-8"?>
<!-- Generator: Adobe Illustrator 24.1.2, SVG Export Plug-In . SVG Version: 6.00 Build 0)  -->
<svg version="1.1" id="Layer_1" xmlns="http://www.w3.org/2000/svg" xmlns:xlink="http://www.w3.org/1999/xlink" x="0px" y="0px"
	 width="440px" height="300px" viewBox="0 0 440 300" style="enable-background:new 0 0 440 300;" xml:space="preserve">
<style type="text/css">
	.st0{fill:#185849;}
	.st1{fill:#C4D7D3;}
	.st2{fill:#E9EBDF;}
	.st3{fill:#FFFFFF;}
	.st4{fill:#27ae60;}
	.st5{fill:none;}
</style>
<g>
	<path class="st0" d="M244,119.6c-0.5,0-1-0.4-1-1l0,0c0-0.1,0-0.3,0.1-0.4c0-0.1,0.1-0.2,0.2-0.3c0.4-0.4,1-0.4,1.4,0
		c0.1,0.1,0.2,0.2,0.2,0.3c0.1,0.1,0.1,0.3,0.1,0.4c0,0.3-0.1,0.5-0.3,0.7C244.5,119.5,244.3,119.6,244,119.6z"/>
	<path class="st0" d="M243,112.6c0-0.6,0.4-1,1-1l0,0c0.6,0,1,0.4,1,1l0,0c0,0.6-0.4,1-1,1l0,0C243.4,113.6,243,113.2,243,112.6z
		 M243,106.6c0-0.6,0.4-1,1-1l0,0c0.6,0,1,0.4,1,1l0,0c0,0.6-0.4,1-1,1l0,0C243.4,107.6,243,107.2,243,106.6z M243,100.6
		c0-0.6,0.4-1,1-1l0,0l0,0c0.6,0,1,0.4,1,1l0,0l0,0c0,0.6-0.4,1-1,1l0,0C243.4,101.6,243,101.2,243,100.6z M243,94.6
		c0-0.6,0.4-1,1-1l0,0c0.6,0,1,0.4,1,1l0,0c0,0.6-0.4,1-1,1l0,0C243.4,95.6,243,95.2,243,94.6z"/>
	<path class="st0" d="M244,89.6c-0.1,0-0.3,0-0.4-0.1c-0.1-0.1-0.2-0.1-0.3-0.2s-0.2-0.2-0.2-0.3c-0.1-0.1-0.1-0.2-0.1-0.4
		c0-0.1,0-0.1,0-0.2s0-0.1,0.1-0.2c0-0.1,0.1-0.1,0.1-0.2s0.1-0.1,0.1-0.2c0.1-0.1,0.2-0.2,0.3-0.2c0.4-0.2,0.8-0.1,1.1,0.2
		c0,0,0.1,0.1,0.1,0.2s0.1,0.1,0.1,0.2s0.1,0.1,0.1,0.2s0,0.1,0,0.2s0,0.3-0.1,0.4c0,0.1-0.1,0.2-0.2,0.3
		C244.5,89.5,244.3,89.6,244,89.6z"/>
	<path class="st1" d="M220,205.5c-0.2,0-0.3,0-0.5-0.1l-24-13.9c-0.5-0.3-0.6-0.9-0.4-1.4c0.1-0.2,0.2-0.3,0.4-0.4l24-13.9
		c0.3-0.2,0.7-0.2,1,0l24,13.9c0.5,0.3,0.6,0.9,0.4,1.4c-0.1,0.2-0.2,0.3-0.4,0.4l-24,13.9C220.3,205.4,220.2,205.5,220,205.5z
		 M198,190.6l22,12.7l22-12.7l-22-12.7L198,190.6z"/>
	<path class="st2" d="M184,184.7c-0.2,0-0.3,0-0.5-0.1l-24-13.9c-0.5-0.3-0.6-0.9-0.4-1.4c0.1-0.2,0.2-0.3,0.4-0.4l24-13.9
		c0.3-0.2,0.7-0.2,1,0l24,13.9c0.5,0.3,0.6,0.9,0.4,1.4c-0.1,0.2-0.2,0.3-0.4,0.4l-24,13.9C184.3,184.7,184.2,184.7,184,184.7z
		 M162,169.8l22,12.7l22-12.7l-22-12.7L162,169.8z"/>
	<polygon class="st3" points="244,118.6 220,104.8 196,118.6 220,132.5 	"/>
	<path class="st3" d="M220,133.5c-0.2,0-0.3,0-0.5-0.1l-24-13.9c-0.5-0.3-0.6-0.9-0.4-1.4c0.1-0.2,0.2-0.3,0.4-0.4l24-13.9
		c0.3-0.2,0.7-0.2,1,0l24,13.9c0.5,0.3,0.6,0.9,0.4,1.4c-0.1,0.2-0.2,0.3-0.4,0.4l-24,13.9C220.3,133.4,220.2,133.5,220,133.5z
		 M198,118.6l22,12.7l22-12.7l-22-12.7L198,118.6z"/>
	<polygon class="st4" points="244,150.6 220,164.5 220,132.5 244,118.6 	"/>
	<path class="st3" d="M220,165.5c-0.6,0-1-0.4-1-1v-32c0-0.4,0.2-0.7,0.5-0.9l24-13.9c0.5-0.3,1.1-0.1,1.4,0.4
		c0.1,0.2,0.1,0.3,0.1,0.5v32c0,0.4-0.2,0.7-0.5,0.9l-24,13.9C220.3,165.4,220.2,165.5,220,165.5z M221,133.1v29.7l22-12.7v-29.7
		L221,133.1z"/>
	<polygon class="st1" points="196,150.6 220,164.5 220,132.5 196,118.6 	"/>
	<path class="st3" d="M220,165.5c-0.2,0-0.3,0-0.5-0.1l-24-13.9c-0.3-0.2-0.5-0.5-0.5-0.9v-32c0-0.6,0.4-1,1-1c0.2,0,0.3,0,0.5,0.1
		l24,13.9c0.3,0.2,0.5,0.5,0.5,0.9v32C221,165,220.6,165.5,220,165.5z M197,150l22,12.7V133l-22-12.7V150z"/>
	<path class="st0" d="M220,165.5c-0.2,0-0.3,0-0.5-0.1l-24-13.9c-0.3-0.2-0.5-0.5-0.5-0.9v-32c0-0.4,0.2-0.7,0.5-0.9l24-13.9
		c0.3-0.2,0.7-0.2,1,0l24,13.9c0.3,0.2,0.5,0.5,0.5,0.9v32c0,0.4-0.2,0.7-0.5,0.9l-24,13.9C220.3,165.4,220.2,165.5,220,165.5z
		 M197,150l23,13.3l23-13.3v-30.8l-23-13.3l-23,13.3V150z"/>
	<path class="st2" d="M256,226.3c-0.2,0-0.3,0-0.5-0.1l-24-13.9c-0.5-0.3-0.6-0.9-0.4-1.4c0.1-0.2,0.2-0.3,0.4-0.4l24-13.9
		c0.3-0.2,0.7-0.2,1,0l24,13.9c0.5,0.3,0.6,0.9,0.4,1.4c-0.1,0.2-0.2,0.3-0.4,0.4l-24,13.9C256.3,226.2,256.2,226.3,256,226.3z
		 M234,211.4l22,12.7l22-12.7l-22-12.7L234,211.4z"/>
	<path class="st1" d="M229.2,191.6h-18.4c-0.6,0-1-0.4-1-1s0.4-1,1-1h18.4c0.6,0,1,0.4,1,1S229.7,191.6,229.2,191.6z"/>
	<path class="st1" d="M220,196.9c-0.6,0-1-0.4-1-1v-10.6c0-0.6,0.4-1,1-1s1,0.4,1,1v10.6C221,196.5,220.6,196.9,220,196.9z"/>
	<path class="st0" d="M196,119.6c-0.5,0-1-0.4-1-1l0,0c0-0.1,0-0.3,0.1-0.4c0-0.1,0.1-0.2,0.2-0.3c0.4-0.4,1-0.4,1.4,0
		c0.1,0.1,0.2,0.2,0.2,0.3c0.1,0.1,0.1,0.3,0.1,0.4c0,0.3-0.1,0.5-0.3,0.7C196.5,119.5,196.3,119.6,196,119.6z"/>
	<path class="st0" d="M195,112.6c0-0.6,0.4-1,1-1l0,0c0.6,0,1,0.4,1,1l0,0c0,0.6-0.4,1-1,1l0,0C195.4,113.6,195,113.2,195,112.6z
		 M195,106.6c0-0.6,0.4-1,1-1l0,0c0.6,0,1,0.4,1,1l0,0c0,0.6-0.4,1-1,1l0,0C195.4,107.6,195,107.2,195,106.6z M195,100.6
		c0-0.6,0.4-1,1-1l0,0l0,0c0.6,0,1,0.4,1,1l0,0l0,0c0,0.6-0.4,1-1,1l0,0C195.4,101.6,195,101.2,195,100.6z M195,94.6
		c0-0.6,0.4-1,1-1l0,0c0.6,0,1,0.4,1,1l0,0c0,0.6-0.4,1-1,1l0,0C195.4,95.6,195,95.2,195,94.6z"/>
	<path class="st0" d="M196,89.6c-0.1,0-0.3,0-0.4-0.1c-0.1-0.1-0.2-0.1-0.3-0.2s-0.2-0.2-0.2-0.3c0-0.1-0.1-0.2-0.1-0.4
		c0-0.1,0-0.1,0-0.2s0-0.1,0.1-0.2c0-0.1,0.1-0.1,0.1-0.2s0.1-0.1,0.1-0.2l0.1-0.1c0.1,0,0.1-0.1,0.2-0.1c0.1,0,0.1-0.1,0.2-0.1
		c0.1,0,0.3,0,0.4,0c0.1,0,0.1,0,0.2,0.1c0.1,0,0.1,0.1,0.2,0.1l0.1,0.1c0.2,0.2,0.3,0.4,0.3,0.7c0,0.1,0,0.3-0.1,0.4
		c0,0.1-0.1,0.2-0.2,0.3c-0.1,0.1-0.2,0.2-0.3,0.2C196.3,89.6,196.1,89.6,196,89.6z"/>
	<rect y="50" class="st5" width="440" height="200"/>
	<rect class="st5" width="440" height="300"/>
</g>
</svg>
