<?xml version="1.0" encoding="utf-8"?>
<!-- Generator: Adobe Illustrator 24.1.2, SVG Export Plug-In . SVG Version: 6.00 Build 0)  -->
<svg version="1.1" id="Layer_1" xmlns="http://www.w3.org/2000/svg" xmlns:xlink="http://www.w3.org/1999/xlink" x="0px" y="0px"
	 width="128px" height="128px" viewBox="0 0 128 128" style="enable-background:new 0 0 128 128;" xml:space="preserve">
<style type="text/css">
	.st0{fill:#4D9987;}
	.st1{fill:#0E352C;}
	.st2{fill:#E9EBDF;}
	.st3{fill:#FFFFFF;}
	.st4{fill:none;}
</style>
<g>
	<path class="st0" d="M61.4,99.5l4.1-8.8l-5.1-2.9l0,0c-1.4-0.7-3-0.5-4.2,0.3c-3.6,2.1-6.5,7.6-6.5,12.4c0,2.6,0.9,4.4,2.2,5.2l0,0
		l5.1,2.9L61.4,99.5L61.4,99.5z"/>
	<path class="st1" d="M57.1,109.7c-0.2,0-0.3,0-0.5-0.1l-5.1-2.9l-0.1-0.1c-1.7-1-2.6-3.2-2.6-6c0-5.2,3.1-11,7-13.3
		c1.5-1,3.5-1.2,5.1-0.4c0,0,0.1,0,0.1,0.1l5.1,2.9c0.5,0.3,0.6,0.8,0.4,1.3l-4.1,8.8l0,0l0,0l-4.3,9.2c-0.1,0.3-0.3,0.4-0.6,0.5
		C57.3,109.7,57.2,109.7,57.1,109.7z M52.6,104.9l4,2.3l3.9-8.2l0.9,0.4L60.5,99l3.7-7.9L60,88.7c0,0-0.1,0-0.1-0.1
		c-1.1-0.5-2.3-0.3-3.2,0.3c-3.3,1.9-6,7.1-6,11.5c0,2.1,0.6,3.7,1.7,4.4C52.5,104.9,52.6,104.9,52.6,104.9z"/>
	<path class="st0" d="M115.5,68.8l4.1-8.8l-5.1-2.9l0,0c-1.4-0.7-3-0.5-4.2,0.3c-3.6,2.1-6.5,7.6-6.5,12.4c0,2.6,0.9,4.4,2.2,5.2
		l0,0l5.1,2.9L115.5,68.8L115.5,68.8z"/>
	<path class="st1" d="M111.2,79c-0.2,0-0.3,0-0.5-0.1l-5.1-2.9l-0.1-0.1c-1.7-1-2.6-3.2-2.6-6c0-5.2,3.1-11,7-13.3
		c1.5-1,3.5-1.2,5.1-0.4c0,0,0.1,0,0.1,0.1l5.1,2.9c0.4,0.3,0.6,0.8,0.4,1.3l-4.1,8.8l0,0l-4.3,9.2c-0.1,0.3-0.3,0.4-0.6,0.5
		C111.4,79,111.3,79,111.2,79z M106.7,74.3l4,2.3l3.9-8.2l0,0l3.7-7.9l-4.2-2.4c0,0-0.1,0-0.1-0.1c-1.1-0.5-2.3-0.3-3.2,0.3
		c-3.3,1.9-6,7.1-6,11.5c0,2.1,0.6,3.7,1.7,4.4C106.6,74.2,106.7,74.3,106.7,74.3z"/>
	<path class="st2" d="M123.9,44.7l-2.8-0.1l-3.6-13l-6.6-3.8l-5.8,5.9l-3.1-11l-6.6-3.8L84.8,29.8l-9.1-0.5c-0.8,0-1.7,0.2-2.4,0.6
		L52.6,41.8l0,0l-20,13.6L3.3,77.8C2.5,78.5,2,79.5,2,80.6v6.1c0,1.2,0.7,2.4,1.7,3l32.1,18.5c1.6,0.9,3.6,0.9,5.2,0l33.4-19.3
		c0.4-0.2,0.8-0.3,1.2-0.2l5.3,1.2c0.8,0.2,1.7,0.1,2.5-0.4l19-11c0.7-0.4,1.3-1.1,1.5-1.9l1.9-5.5c0.1-0.4,0.4-0.7,0.8-0.9
		l16.2-9.3c0.7-0.4,1.3-1.1,1.6-1.9l1.5-4.5c0.3-0.8,0.3-1.6,0.1-2.4L123.9,44.7z"/>
	<path class="st2" d="M2,80.6v6.1c0,1.2,0.7,2.4,1.7,3l6.2,3.6l25.9,14.9c0.8,0.5,1.7,0.7,2.6,0.7v-9v-3.6l-36-17.2
		C2.1,79.5,2,80,2,80.6z"/>
	<path class="st3" d="M69,76.5l-36.4-21L3.4,77.8c-0.4,0.3-0.8,0.8-1,1.2l35.1,20.2c0.6,0.3,1.4,0.3,1.9-0.1L69,76.5z"/>
	<path class="st0" d="M38.3,100.5c-0.5,0-0.9-0.1-1.4-0.4L5.1,81.8c-0.5-0.3-0.6-0.9-0.4-1.4C5,80,5.6,79.8,6.1,80.1l31.8,18.4
		c0.3,0.1,0.6,0.1,0.8-0.1L69.4,75c0.4-0.3,1.1-0.2,1.4,0.2c0.3,0.4,0.2,1.1-0.2,1.4L39.9,100C39.5,100.3,38.9,100.5,38.3,100.5z"/>
	<path class="st0" d="M35.7,104.2c-0.2,0-0.3,0-0.5-0.1l-5.6-3.2c-0.5-0.3-0.6-0.9-0.4-1.4c0.3-0.5,0.9-0.6,1.4-0.4l5.6,3.2
		c0.5,0.3,0.6,0.9,0.4,1.4C36.3,104.1,36,104.2,35.7,104.2L35.7,104.2z"/>
	<path class="st0" d="M11.2,90.1c-0.2,0-0.3,0-0.5-0.1l-5.5-3.2c-0.5-0.3-0.6-0.9-0.4-1.4C5,84.9,5.6,84.8,6.1,85l5.5,3.2
		c0.5,0.3,0.6,0.9,0.4,1.4C11.9,89.9,11.5,90.1,11.2,90.1z"/>
	<polygon class="st2" points="74.3,29.2 98.9,43.4 121.1,44.6 96.5,30.5 	"/>
	<path class="st0" d="M82.9,89.9L103,78.3c0.4-0.2,0.6-0.5,0.8-0.9l2.3-6.7L75,88.6l6.6,1.5C82,90.2,82.5,90.1,82.9,89.9z"/>
	<polygon class="st0" points="105.7,43.7 117.5,31.6 121.1,44.6 	"/>
	<polygon class="st0" points="96.9,42.2 88,37.1 102.1,22.7 105.1,33.7 	"/>
	<polygon class="st2" points="102.1,22.7 95.5,18.9 81.4,33.3 88,37.1 	"/>
	<polygon class="st2" points="117.5,31.6 110.9,27.8 96.9,42.2 98.9,43.4 105.7,43.7 	"/>
	<path class="st1" d="M98.9,44.4c-0.2,0-0.3,0-0.5-0.1l-2-1.3c-0.5-0.3-0.6-0.9-0.4-1.4c0-0.1,0.1-0.1,0.2-0.2l14-14.4
		c0.3-0.3,0.8-0.4,1.2-0.2l6.6,3.8c0.5,0.3,0.6,0.9,0.4,1.4c-0.3,0.5-0.9,0.6-1.4,0.4l0,0l-6-3.4L98.5,42l1,0.5
		c0.5,0.3,0.6,0.9,0.4,1.4C99.6,44.2,99.3,44.4,98.9,44.4L98.9,44.4z"/>
	<polygon class="st2" points="98.9,43.4 106.3,54.9 123.9,44.7 	"/>
	<path class="st1" d="M106.3,55.9c-0.3,0-0.7-0.2-0.8-0.5l-7.4-11.5c-0.3-0.5-0.2-1.1,0.3-1.4c0.2-0.1,0.4-0.2,0.6-0.2l25,1.4
		c0.6,0,1,0.5,0.9,1.1c0,0.3-0.2,0.6-0.5,0.8l-17.6,10.2C106.7,55.8,106.5,55.9,106.3,55.9z M100.8,44.5l5.8,9.1l13.8-8L100.8,44.5z
		"/>
	<path class="st2" d="M98.9,43.4L78.8,55c-1.1,0.6-2.4,0.6-3.4,0L52.6,41.8l-20,13.6l34.3,19.8c1.3,0.8,3,0.8,4.3,0l35.2-20.3l0,0
		L124,44.7L98.9,43.4z"/>
	<path class="st1" d="M38.4,109.9c-1.1,0-2.1-0.3-3.1-0.8L3.2,90.5C1.9,89.7,1,88.3,1,86.7v-6.1c0-1.4,0.6-2.7,1.7-3.5l29.2-22.4
		L52,41l20.7-12c0.9-0.5,1.9-0.8,2.9-0.7l8.7,0.5l10.4-10.6c0.3-0.3,0.8-0.4,1.2-0.2l6.6,3.8c0.2,0.1,0.4,0.3,0.5,0.6l2.6,9.3
		l4.5-4.7c0.3-0.3,0.8-0.4,1.2-0.2l6.6,3.8c0.2,0.1,0.4,0.3,0.5,0.6l3.4,12.3l2.1,0.1c0.4,0,0.8,0.3,0.9,0.7l1.9,7.4
		c0.3,1,0.2,2-0.1,3l-1.5,4.5c-0.3,1-1.1,1.9-2,2.5L106.9,71c-0.2,0.1-0.3,0.2-0.3,0.4l-1.9,5.5c-0.3,1-1.1,1.9-2,2.4l-19,11
		c-1,0.6-2.1,0.7-3.2,0.5l-5.3-1.2c-0.2,0-0.4,0-0.5,0.1L41.3,109C40.6,109.6,39.5,109.9,38.4,109.9z M75.4,30.3
		c-0.6,0-1.1,0.2-1.7,0.4l-20.6,12l-20,13.6L4,78.6c-0.6,0.5-1,1.2-1,1.9v6.1c0,0.9,0.5,1.7,1.2,2.1l32.1,18.5
		c1.3,0.7,2.9,0.7,4.2,0L73.9,88c0.6-0.3,1.3-0.5,2-0.3l5.3,1.2c0.6,0.1,1.2,0,1.8-0.3l19-11c0.5-0.3,0.9-0.8,1.1-1.3l1.9-5.5
		c0.2-0.6,0.6-1.1,1.2-1.5l16.2-9.3c0.5-0.3,0.9-0.8,1.1-1.4l1.5-4.5c0.2-0.6,0.2-1.2,0.1-1.9l-1.8-6.7l-2-0.1
		c-0.4,0-0.8-0.3-0.9-0.7l-3.5-12.6l-5.6-3.2l-5.2,5.4c-0.4,0.4-1,0.4-1.4,0c-0.1-0.1-0.2-0.3-0.3-0.4l-2.9-10.6l-5.6-3.2L85.5,30.5
		c-0.2,0.2-0.5,0.3-0.8,0.3l-9.1-0.5C75.5,30.3,75.4,30.3,75.4,30.3z"/>
	<ellipse transform="matrix(0.3916 -0.9201 0.9201 0.3916 -54.4475 117.1143)" class="st0" cx="61.3" cy="99.7" rx="10" ry="5.6"/>
	<path class="st1" d="M58.8,110.1c-0.8,0-1.5-0.2-2.2-0.6c-1.7-1-2.7-3.2-2.7-6.1c0-5.2,3.1-11,7-13.3c1.6-1.1,3.6-1.2,5.2-0.3
		c1.7,1,2.7,3.2,2.7,6.1c0,5.2-3.1,11-7,13.3C60.9,109.8,59.8,110.1,58.8,110.1z M63.9,91.3c-0.7,0-1.4,0.3-2.1,0.6
		c-3.3,1.9-6,7.1-6,11.5c0,2.1,0.6,3.7,1.7,4.4c1.1,0.5,2.3,0.3,3.2-0.3l0,0c3.3-1.9,6-7.1,6-11.5c0-2.1-0.6-3.7-1.7-4.4
		C64.7,91.4,64.3,91.3,63.9,91.3z"/>
	<ellipse transform="matrix(0.3916 -0.9201 0.9201 0.3916 6.6723 148.1956)" class="st0" cx="115.4" cy="69.1" rx="10" ry="5.6"/>
	<path class="st1" d="M112.9,79.5c-0.8,0-1.5-0.2-2.2-0.6c-1.7-1-2.7-3.2-2.7-6.1c0-5.2,3.1-11,7-13.3c1.6-1.1,3.6-1.2,5.2-0.3
		c1.7,1,2.7,3.2,2.7,6.1c0,5.2-3.1,11-7,13.3C115,79.1,113.9,79.4,112.9,79.5z M118,60.6c-0.7,0-1.4,0.3-2.1,0.6
		c-3.3,1.9-6,7.1-6,11.5c0,2.1,0.6,3.7,1.7,4.4c1.1,0.5,2.3,0.3,3.2-0.3l0,0c3.3-1.9,6-7.1,6-11.5c0-2.1-0.6-3.7-1.7-4.4
		C118.8,60.7,118.4,60.6,118,60.6z"/>
	<path class="st0" d="M106.3,54.9l-7.4-11.5l0,0L79.3,54.7c-0.6,0.3-1.3,0.5-2,0.6L69,76.5L106.3,54.9z"/>
	<path class="st2" d="M75,54.7L52.6,41.8l-20,13.6l36.4,21l8.4-21.2C76.5,55.3,75.7,55.1,75,54.7z"/>
	<path class="st1" d="M69,76.8c-0.9,0-1.8-0.2-2.7-0.7L32.1,56.3c-0.5-0.3-0.6-0.9-0.4-1.4c0.1-0.1,0.2-0.2,0.3-0.3L52,41
		c0.3-0.2,0.7-0.2,1.1,0l22.8,13.1c0.8,0.4,1.7,0.4,2.4,0l20.2-11.6c0.5-0.3,1.1-0.1,1.3,0.3l7.4,11.5c0.3,0.5,0.2,1.1-0.3,1.4l0,0
		L71.6,76.1C70.8,76.6,69.9,76.8,69,76.8z M34.4,55.4l32.9,19c1,0.6,2.3,0.6,3.3,0l34.3-19.8l-6.3-9.8l-19.3,11
		c-1.4,0.8-3.1,0.8-4.4,0L52.6,43L34.4,55.4z"/>
	<path class="st1" d="M69,76.8c-0.9,0-1.8-0.2-2.7-0.7L32.1,56.3c-0.5-0.3-0.6-0.9-0.4-1.4c0.1-0.1,0.2-0.2,0.3-0.3L52,41
		c0.3-0.2,0.7-0.2,1.1,0l22.8,13.1c0.8,0.4,1.7,0.4,2.4,0l20.2-11.6c0.2-0.1,0.4-0.1,0.6-0.1l25,1.4c0.6,0,1,0.5,0.9,1.1
		c0,0.3-0.2,0.6-0.5,0.8L71.6,76.1C70.8,76.6,69.9,76.8,69,76.8z M34.4,55.4l32.9,19c1,0.6,2.3,0.6,3.3,0l49.9-28.8l-21.3-1.2
		L79.3,55.8c-1.4,0.8-3.1,0.8-4.4,0L52.6,43L34.4,55.4z"/>
	<path class="st3" d="M75.2,29.8c-0.5-0.3-1.1-0.3-1.6-0.1c-0.2,0.1-0.4,0.2-0.5,0.3L52.6,41.8L75,54.7c1.3,0.8,3,0.8,4.3,0L99,43.3
		L75.2,29.8z"/>
	<path class="st1" d="M77.1,56.3c-0.9,0-1.8-0.2-2.6-0.7L52.1,42.7c-0.5-0.3-0.6-0.9-0.4-1.4c0.1-0.2,0.2-0.3,0.4-0.4L72.6,29
		c0.2-0.1,0.4-0.2,0.7-0.3c0.8-0.3,1.7-0.3,2.5,0.2l23.7,13.6c0.5,0.3,0.6,0.9,0.4,1.4c-0.1,0.2-0.2,0.3-0.4,0.4L79.8,55.6
		C79,56.1,78,56.3,77.1,56.3z M54.6,41.8l20.9,12c1,0.6,2.3,0.6,3.3,0L97,43.3L74.7,30.6c-0.2-0.1-0.5-0.2-0.7-0.1
		c-0.1,0.1-0.3,0.1-0.4,0.2L54.6,41.8z"/>
	<path class="st1" d="M81.4,34.3c-0.6,0-1-0.4-1-1c0-0.3,0.1-0.5,0.3-0.7l14.1-14.4c0.3-0.3,0.8-0.4,1.2-0.2l6.6,3.8
		c0.5,0.3,0.6,0.9,0.4,1.4s-0.9,0.6-1.4,0.4l0,0l-6-3.4L82.1,34C81.9,34.2,81.7,34.3,81.4,34.3z"/>
	<rect x="1" y="1" class="st4" width="126" height="126"/>
	<g>
		<rect class="st4" width="128" height="128"/>
	</g>
</g>
</svg>
