<?xml version="1.0" encoding="utf-8"?>
<!-- Generator: Adobe Illustrator 24.1.2, SVG Export Plug-In . SVG Version: 6.00 Build 0)  -->
<svg version="1.1" id="Layer_1" xmlns="http://www.w3.org/2000/svg" xmlns:xlink="http://www.w3.org/1999/xlink" x="0px" y="0px"
	 width="440px" height="300px" viewBox="0 0 440 300" style="enable-background:new 0 0 440 300;" xml:space="preserve">
<style type="text/css">
	.st0{fill:#E9EBDF;}
	.st1{fill:#4D9987;}
	.st2{fill:#0E352C;}
	.st3{fill:#C4D7D3;}
	.st4{fill:#27ae60;}
	.st5{fill:#185849;}
	.st6{fill:#FFFFFF;}
	.st7{fill:none;}
</style>
<g>
	<polygon class="st0" points="175.3,92.4 216.1,115.9 216.1,105.4 216.1,95 175.3,71.4 164.4,75.6 	"/>
	<path class="st0" d="M216.1,116.8c-0.2,0-0.3,0-0.4-0.1l-40.8-23.5c-0.1-0.1-0.2-0.2-0.3-0.3l-10.9-16.8c-0.3-0.4-0.2-1,0.3-1.2
		c0.1,0,0.1-0.1,0.2-0.1l10.9-4.2c0.3-0.1,0.5-0.1,0.8,0.1l40.8,23.5c0.3,0.2,0.4,0.5,0.4,0.8v21C217,116.4,216.6,116.8,216.1,116.8
		L216.1,116.8z M175.9,91.7l39.2,22.7V95.5l-39.9-23.1l-9.5,3.6L175.9,91.7z"/>
	<polygon class="st1" points="175.3,92.4 216.1,115.9 216.1,105.4 216.1,95 175.3,71.4 164.4,75.6 	"/>
	<path class="st0" d="M216.1,116.8c-0.2,0-0.3,0-0.4-0.1l-40.8-23.5c-0.1-0.1-0.2-0.2-0.3-0.3l-10.9-16.8c-0.3-0.4-0.2-1,0.3-1.2
		c0.1,0,0.1-0.1,0.2-0.1l10.9-4.2c0.3-0.1,0.5-0.1,0.8,0.1l40.8,23.5c0.3,0.2,0.4,0.5,0.4,0.8v21C217,116.4,216.6,116.8,216.1,116.8
		L216.1,116.8z M175.9,91.7l39.2,22.7V95.5l-39.9-23.1l-9.5,3.6L175.9,91.7z"/>
	<path class="st2" d="M216.1,116.9c-0.2,0-0.3,0-0.5-0.1l-40.8-23.5c-0.1-0.1-0.3-0.2-0.3-0.3l-10.9-16.8c-0.3-0.5-0.2-1.1,0.3-1.4
		c0.1,0,0.1-0.1,0.2-0.1l10.9-4.2c0.3-0.1,0.6-0.1,0.9,0.1l40.8,23.5c0.3,0.2,0.5,0.5,0.5,0.9v21
		C217.1,116.5,216.6,116.9,216.1,116.9z M176,91.6l39.1,22.6V95.5l-39.9-23l-9.3,3.6L176,91.6z"/>
	<path class="st2" d="M216.1,116.9c-0.2,0-0.3,0-0.5-0.1l-40.8-23.5c-0.1-0.1-0.3-0.2-0.3-0.3l-10.9-16.8c-0.3-0.5-0.2-1.1,0.3-1.4
		c0.1,0,0.1-0.1,0.2-0.1l10.9-4.2c0.3-0.1,0.6-0.1,0.9,0.1l40.8,23.5c0.3,0.2,0.5,0.5,0.5,0.9v21
		C217.1,116.5,216.6,116.9,216.1,116.9z M176,91.6l39.1,22.6V95.5l-39.9-23l-9.3,3.6L176,91.6z"/>
	<polygon class="st3" points="264.7,82.4 223.9,105.9 223.9,95.4 223.9,85 264.7,61.4 275.6,65.6 	"/>
	<polygon class="st4" points="264.7,82.4 223.9,105.9 223.9,95.4 223.9,85 264.7,61.4 275.6,65.6 	"/>
	<path class="st5" d="M223.9,106.9c-0.6,0-1-0.4-1-1V85c0-0.4,0.2-0.7,0.5-0.9l40.8-23.5c0.3-0.1,0.6-0.2,0.9-0.1l10.9,4.2
		c0.5,0.2,0.8,0.8,0.6,1.3c0,0.1-0.1,0.1-0.1,0.2L265.6,83c-0.1,0.1-0.2,0.2-0.3,0.3l-40.8,23.5
		C224.3,106.9,224.1,106.9,223.9,106.9z M224.9,85.5v18.7L264,81.6l10.1-15.5l-9.3-3.6L224.9,85.5z"/>
	<path class="st0" d="M214.8,73v132.1c0,1.7,2.3,3,5.2,3s5.2-1.4,5.2-3V73H214.8z"/>
	<path class="st2" d="M220,209.1c-3.5,0-6.2-1.8-6.2-4V73c0-0.6,0.4-1,1-1h10.5c0.6,0,1,0.4,1,1v132.1
		C226.2,207.4,223.5,209.1,220,209.1z M215.8,74v131.1c0,1,1.8,2,4.2,2s4.2-1.1,4.2-2V74H215.8z"/>
	<path class="st4" d="M247.6,194.6c-0.2,0-0.3,0-0.5-0.1l-6.8-3.9c-0.5-0.3-0.6-0.9-0.4-1.4c0.1-0.2,0.2-0.3,0.4-0.4l12.8-7.4
		l-3.2-1.9c-0.5-0.3-0.6-0.9-0.4-1.4c0.2-0.3,0.5-0.5,0.8-0.5l18.8-1.5c0.3,0,0.6,0.1,0.8,0.3c0.2,0.2,0.3,0.6,0.2,0.9l-2.5,10.8
		c-0.1,0.5-0.7,0.9-1.2,0.7c-0.1,0-0.2-0.1-0.3-0.1l-4.2-2.4l-13.8,8C247.9,194.5,247.7,194.6,247.6,194.6z M242.8,189.6l4.8,2.8
		l13.8-8c0.3-0.2,0.7-0.2,1,0l3.5,2l1.9-8.2l-14.2,1.1l1.9,1.1c0.5,0.3,0.6,0.9,0.4,1.4c-0.1,0.2-0.2,0.3-0.4,0.4L242.8,189.6z"/>
	<ellipse class="st6" cx="220" cy="73" rx="5.2" ry="3"/>
	<path class="st1" d="M220,77.1c-3.5,0-6.2-1.8-6.2-4c0-2.3,2.7-4,6.2-4s6.2,1.8,6.2,4C226.2,75.3,223.5,77.1,220,77.1z M220,71
		c-2.4,0-4.2,1.1-4.2,2c0,1,1.8,2,4.2,2s4.2-1.1,4.2-2S222.4,71,220,71z"/>
	<path class="st2" d="M220,209.1c-3.5,0-6.2-1.8-6.2-4V73c0-2.3,2.7-4,6.2-4s6.2,1.8,6.2,4l0,0v132.1
		C226.2,207.4,223.5,209.1,220,209.1z M220,71c-2.4,0-4.2,1.1-4.2,2v132.1c0,1,1.8,2,4.2,2s4.2-1.1,4.2-2V73
		C224.2,72.1,222.4,71,220,71z"/>
	<polygon class="st1" points="216.1,133.3 175.3,156.8 164.4,152.7 175.3,135.9 216.1,112.3 	"/>
	<path class="st1" d="M175.3,157.7c-0.1,0-0.2,0-0.3-0.1l-10.9-4.2c-0.5-0.2-0.7-0.7-0.5-1.2c0-0.1,0.1-0.1,0.1-0.2l10.9-16.8
		c0.1-0.1,0.2-0.2,0.3-0.3l40.8-23.5c0.4-0.2,1-0.1,1.2,0.3c0.1,0.1,0.1,0.3,0.1,0.5v21c0,0.3-0.2,0.6-0.4,0.8l-40.8,23.5
		C175.6,157.7,175.5,157.7,175.3,157.7z M165.7,152.2l9.5,3.6l39.9-23.1v-18.9l-39.2,22.7L165.7,152.2z"/>
	<polygon class="st1" points="223.9,119.3 264.7,142.8 275.6,138.7 264.7,121.9 223.9,98.3 	"/>
	<path class="st1" d="M264.7,143.7c-0.2,0-0.3,0-0.5-0.1l-40.8-23.5c-0.3-0.2-0.4-0.5-0.4-0.8v-21c0-0.5,0.4-0.9,0.9-0.9
		c0.2,0,0.3,0,0.5,0.1l40.8,23.5c0.1,0.1,0.2,0.2,0.3,0.3l10.9,16.8c0.3,0.4,0.2,1-0.3,1.2c-0.1,0-0.1,0.1-0.2,0.1l-10.9,4.2
		C264.9,143.7,264.8,143.7,264.7,143.7z M224.8,118.8l39.9,23.1l9.5-3.6L264,122.6l-39.2-22.7V118.8z"/>
	<path class="st2" d="M175.3,157.8c-0.1,0-0.2,0-0.4-0.1l-10.9-4.2c-0.5-0.2-0.8-0.8-0.6-1.3c0-0.1,0.1-0.1,0.1-0.2l10.9-16.8
		c0.1-0.1,0.2-0.2,0.3-0.3l40.8-23.5c0.5-0.3,1.1-0.1,1.4,0.4c0.3,0.5,0.1,1.1-0.4,1.4L176,136.6l-10.1,15.6l9.3,3.6l40.4-23.3
		c0.5-0.3,1.1-0.1,1.4,0.4s0.1,1.1-0.4,1.4l-40.8,23.5C175.7,157.8,175.5,157.8,175.3,157.8z"/>
	<path class="st2" d="M264.7,143.8c-0.2,0-0.3,0-0.5-0.1l-40.8-23.5c-0.5-0.3-0.6-0.9-0.4-1.4s0.9-0.6,1.4-0.4l40.4,23.3l9.3-3.6
		L264,122.6l-40.6-23.4c-0.5-0.3-0.6-0.9-0.4-1.4c0.3-0.5,0.9-0.6,1.4-0.4l40.8,23.5c0.1,0.1,0.3,0.2,0.3,0.3l10.9,16.8
		c0.3,0.5,0.2,1.1-0.3,1.4c-0.1,0-0.1,0.1-0.2,0.1l-10.9,4.2C264.9,143.8,264.8,143.8,264.7,143.8z"/>
	<path class="st1" d="M269.1,234.9L269.1,234.9l-18.8-1.5c-0.6,0-1-0.5-0.9-1.1c0-0.3,0.2-0.6,0.5-0.8l3.2-1.9l-12.8-7.4
		c-0.5-0.3-0.6-0.9-0.4-1.4c0.1-0.2,0.2-0.3,0.4-0.4l6.8-3.9c0.3-0.2,0.7-0.2,1,0l13.8,8l4.2-2.4c0.5-0.3,1.1-0.1,1.4,0.4
		c0,0.1,0.1,0.2,0.1,0.3l2.5,10.8c0.1,0.5-0.2,1.1-0.7,1.2C269.3,234.9,269.2,234.9,269.1,234.9L269.1,234.9z M253.7,231.7l14.2,1.1
		l-1.9-8.2l-3.5,2c-0.3,0.2-0.7,0.2-1,0l-13.8-8l-4.8,2.8l12.8,7.4c0.5,0.3,0.6,0.9,0.4,1.4c-0.1,0.2-0.2,0.3-0.4,0.4L253.7,231.7z"
		/>
	<path class="st1" d="M192.4,194.6c-0.2,0-0.3,0-0.5-0.1l-13.8-8l-4.2,2.4c-0.5,0.3-1.1,0.1-1.4-0.4c0-0.1-0.1-0.2-0.1-0.3
		l-2.5-10.8c-0.1-0.5,0.2-1.1,0.7-1.2c0.1,0,0.2,0,0.3,0l18.8,1.5c0.6,0,1,0.5,0.9,1.1c0,0.3-0.2,0.6-0.5,0.8l-3.2,1.9l12.8,7.4
		c0.5,0.3,0.6,0.9,0.4,1.4c-0.1,0.2-0.2,0.3-0.4,0.4l-6.8,3.9C192.8,194.5,192.6,194.6,192.4,194.6z M178.1,184.3
		c0.2,0,0.3,0,0.5,0.1l13.8,8l4.8-2.8l-12.8-7.4c-0.5-0.3-0.6-0.9-0.4-1.4c0.1-0.2,0.2-0.3,0.4-0.4l1.9-1.1l-14.2-1.1l1.9,8.2l3.5-2
		C177.8,184.3,177.9,184.3,178.1,184.3L178.1,184.3z"/>
	<path class="st1" d="M203.3,217.1c-0.6,0-1-0.4-1-1c0-0.3,0.1-0.5,0.3-0.7c0.4-0.4,1-0.4,1.4,0c0.2,0.2,0.3,0.4,0.3,0.7
		s-0.1,0.5-0.3,0.7S203.6,217.1,203.3,217.1z"/>
	<path class="st1" d="M168.4,236.3c-0.3-0.5-0.1-1.1,0.4-1.4l0,0c0.5-0.3,1.1-0.1,1.4,0.4l0,0c0.3,0.5,0.1,1.1-0.4,1.4l0,0l0,0
		c-0.2,0.1-0.3,0.1-0.5,0.1l0,0C168.9,236.8,168.6,236.6,168.4,236.3z M173.3,233.4c-0.3-0.5-0.1-1.1,0.4-1.4l0,0l0,0
		c0.5-0.3,1.1-0.1,1.4,0.4l0,0c0.3,0.5,0.1,1.1-0.4,1.4l0,0c-0.1,0.1-0.3,0.1-0.5,0.1l0,0C173.8,233.9,173.4,233.8,173.3,233.4
		L173.3,233.4z M178.1,230.6c-0.3-0.5-0.1-1.1,0.4-1.4l0,0c0.5-0.3,1.1-0.1,1.4,0.4l0,0c0.3,0.5,0.1,1.1-0.4,1.4l0,0
		c-0.1,0.1-0.3,0.1-0.5,0.1l0,0C178.6,231.1,178.3,230.9,178.1,230.6L178.1,230.6z M183,227.8c-0.3-0.5-0.1-1.1,0.4-1.4l0,0
		c0.5-0.3,1.1-0.1,1.4,0.4l0,0c0.3,0.5,0.1,1.1-0.3,1.4l0,0l0,0c-0.2,0.1-0.3,0.1-0.5,0.1l0,0C183.5,228.3,183.2,228.1,183,227.8
		L183,227.8z M187.9,225c-0.3-0.5-0.1-1.1,0.4-1.4l0,0l0,0c0.5-0.3,1.1-0.1,1.4,0.4l0,0l0,0c0.3,0.5,0.1,1.1-0.4,1.4l0,0l0,0
		c-0.2,0.1-0.3,0.1-0.5,0.1l0,0C188.4,225.5,188,225.3,187.9,225L187.9,225z M192.7,222.2c-0.3-0.5-0.1-1.1,0.4-1.4l0,0
		c0.5-0.3,1.1-0.1,1.4,0.4l0,0l0,0c0.3,0.5,0.1,1.1-0.4,1.4l0,0l0,0c-0.1,0.1-0.3,0.1-0.5,0.1l0,0
		C193.2,222.7,192.9,222.5,192.7,222.2L192.7,222.2z M197.6,219.4c-0.3-0.5-0.1-1.1,0.4-1.4l0,0l0,0c0.5-0.3,1.1-0.1,1.4,0.4l0,0
		l0,0c0.3,0.5,0.1,1.1-0.4,1.4l0,0c-0.2,0.1-0.3,0.1-0.5,0.1l0,0C198.1,219.9,197.8,219.7,197.6,219.4L197.6,219.4z"/>
	<path class="st1" d="M164.4,239.6c-0.6,0-1-0.4-1-1c0-0.3,0.1-0.5,0.3-0.7c0.4-0.4,1-0.4,1.4,0s0.4,1,0,1.4
		C164.9,239.5,164.6,239.6,164.4,239.6z"/>
	<path class="st1" d="M206,217.7c-1.1,0-2.2-0.2-3.2-0.8c-1.3-0.6-2-2.1-1.4-3.4c0.3-0.6,0.8-1.2,1.4-1.4c2-1,4.4-1,6.4,0
		c1.3,0.6,2,2.1,1.4,3.4c-0.3,0.6-0.8,1.2-1.4,1.4C208.2,217.5,207.1,217.7,206,217.7z M206,213.3c-0.8,0-1.5,0.2-2.2,0.5
		c-0.5,0.3-0.6,0.5-0.6,0.7s0.2,0.4,0.6,0.7c1.4,0.7,3,0.7,4.4,0c0.5-0.3,0.6-0.5,0.6-0.7s-0.2-0.4-0.6-0.7l0,0
		C207.6,213.5,206.8,213.3,206,213.3z"/>
	<rect y="50" class="st7" width="440" height="200"/>
	<rect class="st7" width="440" height="300"/>
</g>
</svg>
