<?xml version="1.0" encoding="utf-8"?>
<!-- Generator: Adobe Illustrator 24.1.2, SVG Export Plug-In . SVG Version: 6.00 Build 0)  -->
<svg version="1.1" id="Layer_1" xmlns="http://www.w3.org/2000/svg" xmlns:xlink="http://www.w3.org/1999/xlink" x="0px" y="0px"
	 width="128px" height="128px" viewBox="0 0 128 128" style="enable-background:new 0 0 128 128;" xml:space="preserve">
<style type="text/css">
	.st0{fill:#27ae60;}
	.st1{fill:#C4D7D3;}
	.st2{fill:#FFFFFF;}
	.st3{fill:#185849;}
	.st4{fill:none;}
</style>
<g>
	<polygon class="st0" points="124.2,38.8 124.2,47.3 89.9,67.1 89.9,58.6 	"/>
	<polygon class="st1" points="89.9,67.1 89.9,58.6 69.7,47 69.7,55.5 	"/>
	<path class="st1" d="M124.2,38.8L114.1,33L104,27.1L86.8,37L69.7,47l10.1,5.8l10.1,5.8l17.2-9.9L124.2,38.8z"/>
	<path class="st2" d="M89.9,68.1c-0.6,0-1-0.4-1-1v-8.5c0-0.4,0.2-0.7,0.5-0.9l34.3-19.8c0.5-0.3,1.1-0.1,1.4,0.4
		c0.1,0.2,0.1,0.3,0.1,0.5v8.5c0,0.4-0.2,0.7-0.5,0.9L90.4,68C90.2,68.1,90,68.1,89.9,68.1z M90.9,59.2v6.2l32.3-18.7v-6.2
		L90.9,59.2z"/>
	<path class="st2" d="M89.9,68.1c-0.2,0-0.3,0-0.5-0.1L69.2,56.3c-0.3-0.2-0.5-0.5-0.5-0.9V47c0-0.6,0.4-1,1-1c0.2,0,0.3,0,0.5,0.1
		l20.2,11.7c0.3,0.2,0.5,0.5,0.5,0.9v8.5C90.9,67.7,90.4,68.1,89.9,68.1z M70.7,54.9l18.2,10.5v-6.2L70.7,48.7V54.9z"/>
	<path class="st2" d="M89.9,59.6c-0.2,0-0.3,0-0.5-0.1L69.2,47.8c-0.5-0.3-0.6-0.9-0.4-1.4c0.1-0.2,0.2-0.3,0.4-0.4l34.3-19.8
		c0.3-0.2,0.7-0.2,1,0l20.2,11.7c0.5,0.3,0.6,0.9,0.4,1.4c-0.1,0.2-0.2,0.3-0.4,0.4L90.4,59.5C90.2,59.6,90,59.6,89.9,59.6z
		 M71.7,47l18.2,10.5l32.3-18.7L104,28.3L71.7,47z"/>
	<path class="st3" d="M89.9,68.1c-0.2,0-0.3,0-0.5-0.1L69.2,56.3c-0.3-0.2-0.5-0.5-0.5-0.9V47c0-0.4,0.2-0.7,0.5-0.9l34.3-19.8
		c0.3-0.2,0.7-0.2,1,0L124.7,38c0.3,0.2,0.5,0.5,0.5,0.9v8.5c0,0.4-0.2,0.7-0.5,0.9L90.4,68C90.2,68.1,90,68.1,89.9,68.1z
		 M70.7,54.9L89.9,66l33.3-19.2v-7.3L104,28.3L70.7,47.5V54.9z"/>
	<polygon class="st1" points="99.6,38.7 89.7,33 79.8,27.2 63.8,43 47.7,58.8 57.7,64.6 67.6,70.3 83.6,54.5 	"/>
	<polygon class="st0" points="102.4,46 101.6,43.9 99.6,38.7 67.6,70.3 70,76.6 70,76.6 70.3,77.6 	"/>
	<polygon class="st1" points="70.3,77.6 50.5,66.1 47.7,58.8 67.6,70.3 	"/>
	<path class="st2" d="M67.6,71.3c-0.2,0-0.3,0-0.5-0.1L47.2,59.7c-0.5-0.3-0.6-0.9-0.4-1.4c0-0.1,0.1-0.1,0.2-0.2l32.1-31.6
		c0.3-0.3,0.8-0.4,1.2-0.2l19.8,11.5c0.5,0.3,0.6,0.9,0.4,1.4c0,0.1-0.1,0.1-0.2,0.2L68.3,71C68.1,71.2,67.9,71.3,67.6,71.3z
		 M49.4,58.6l18,10.4L98,38.9L80,28.5L49.4,58.6z"/>
	<path class="st2" d="M70.3,78.6c-0.1,0-0.1,0-0.2,0c-0.3-0.1-0.6-0.3-0.7-0.6l-2.8-7.3c-0.1-0.4,0-0.8,0.2-1.1L98.9,38
		c0.4-0.4,1-0.4,1.4,0c0.1,0.1,0.2,0.2,0.2,0.3l2.8,7.3c0.1,0.4,0,0.8-0.2,1.1l-32,31.6C70.9,78.5,70.6,78.6,70.3,78.6z M68.8,70.5
		l2,5.3l30.5-30.1l-2-5.3L68.8,70.5z"/>
	<path class="st2" d="M70.3,78.6c-0.2,0-0.3,0-0.5-0.1L50,67c-0.2-0.1-0.4-0.3-0.4-0.5l-2.8-7.3c-0.2-0.5,0.1-1.1,0.6-1.3
		c0.3-0.1,0.6-0.1,0.9,0.1l19.8,11.5c0.2,0.1,0.4,0.3,0.4,0.5l2.8,7.3c0.2,0.5-0.1,1.1-0.6,1.3C70.6,78.6,70.5,78.6,70.3,78.6
		L70.3,78.6z M51.3,65.4l17.1,9.9L66.8,71l-17.1-9.9L51.3,65.4z"/>
	<path class="st3" d="M70.3,78.6L70.3,78.6c-0.2,0-0.3,0-0.5-0.1l0,0L50,67c-0.2-0.1-0.4-0.3-0.4-0.5l-2.8-7.3
		c-0.1-0.4,0-0.8,0.2-1.1l32.1-31.6c0.3-0.3,0.8-0.4,1.2-0.2l19.8,11.5c0.2,0.1,0.4,0.3,0.4,0.5l2.8,7.3c0.1,0.4,0,0.8-0.2,1.1
		l-32,31.6l0,0l0,0l0,0c0,0-0.1,0-0.1,0.1l0,0l0,0c-0.1,0.1-0.3,0.2-0.4,0.2l0,0C70.5,78.6,70.4,78.6,70.3,78.6z M51.3,65.4L69.7,76
		h0.1c0.2-0.1,0.5-0.1,0.8,0l30.7-30.3l-2.4-6.4L80,28.5L49,59.1L51.3,65.4z"/>
	<polygon class="st1" points="77.7,50.3 67.7,44.6 57.8,38.9 41.8,54.7 25.8,70.5 35.7,76.2 45.6,81.9 61.6,66.1 	"/>
	<polygon class="st0" points="80.4,57.6 79.6,55.5 77.7,50.3 45.6,81.9 48,88.2 48,88.2 48.4,89.2 	"/>
	<polygon class="st1" points="48.4,89.2 28.5,77.8 25.8,70.5 45.6,81.9 	"/>
	<path class="st2" d="M45.6,82.9c-0.2,0-0.3,0-0.5-0.1L25.3,71.3c-0.5-0.3-0.6-0.9-0.4-1.4c0-0.1,0.1-0.1,0.2-0.2l32.1-31.6
		c0.3-0.3,0.8-0.4,1.2-0.2l19.8,11.5c0.5,0.3,0.6,0.9,0.4,1.4c0,0.1-0.1,0.1-0.2,0.2L46.3,82.6C46.1,82.8,45.9,82.9,45.6,82.9z
		 M27.4,70.3l18,10.4L76,50.5L58,40.1L27.4,70.3z"/>
	<path class="st2" d="M48.4,90.2c-0.1,0-0.1,0-0.2,0c-0.3-0.1-0.6-0.3-0.7-0.6l-2.8-7.3c-0.1-0.4,0-0.8,0.2-1.1L77,49.6
		c0.4-0.4,1-0.4,1.4,0c0.1,0.1,0.2,0.2,0.2,0.3l2.8,7.3c0.1,0.4,0,0.8-0.2,1.1L49.1,89.9C48.9,90.1,48.6,90.2,48.4,90.2z M46.8,82.2
		l2,5.3l30.5-30.1l-2-5.3L46.8,82.2z"/>
	<path class="st2" d="M48.4,90.2c-0.2,0-0.3,0-0.5-0.1L28,78.6c-0.2-0.1-0.4-0.3-0.4-0.5l-2.8-7.3c-0.2-0.5,0.1-1.1,0.6-1.3
		c0.3-0.1,0.6-0.1,0.9,0.1l19.8,11.5c0.2,0.1,0.4,0.3,0.4,0.5l2.8,7.3c0.2,0.5-0.1,1.1-0.6,1.3C48.6,90.2,48.5,90.2,48.4,90.2
		L48.4,90.2z M29.3,77.1L46.5,87l-1.6-4.3l-17.1-9.9L29.3,77.1z"/>
	<path class="st3" d="M48.4,90.2L48.4,90.2c-0.2,0-0.3,0-0.4-0.1l0,0c0,0,0,0-0.1,0L28,78.6c-0.2-0.1-0.4-0.3-0.4-0.5l-2.8-7.3
		c-0.1-0.4,0-0.8,0.2-1.1l32.1-31.6c0.3-0.3,0.8-0.4,1.2-0.2l19.8,11.5c0.2,0.1,0.4,0.3,0.4,0.5l2.8,7.3c0.1,0.4,0,0.8-0.2,1.1
		l-32,31.6l0,0c0,0-0.1,0-0.1,0.1l0,0l0,0l0,0c-0.1,0.1-0.3,0.2-0.4,0.2l0,0C48.5,90.2,48.4,90.2,48.4,90.2z M29.3,77.1l18.3,10.6
		h0.1c0.2-0.1,0.5-0.1,0.8,0l30.7-30.3L76.9,51L58,40.1L27,70.7L29.3,77.1z"/>
	<polygon class="st1" points="55.7,62 45.8,56.2 35.9,50.5 19.8,66.3 3.8,82.1 13.7,87.8 23.6,93.6 39.7,77.8 	"/>
	<polygon class="st0" points="58.5,69.3 57.7,67.2 55.7,62 23.6,93.6 26,99.8 26,99.8 26.4,100.9 	"/>
	<polygon class="st1" points="26.4,100.9 6.6,89.4 3.8,82.1 23.6,93.6 	"/>
	<path class="st2" d="M23.6,94.6c-0.2,0-0.3,0-0.5-0.1L3.3,83c-0.5-0.3-0.6-0.9-0.4-1.4c0-0.1,0.1-0.1,0.2-0.2l32.1-31.6
		c0.3-0.3,0.8-0.4,1.2-0.2l19.8,11.5c0.5,0.3,0.6,0.9,0.4,1.4c0,0.1-0.1,0.1-0.2,0.2l-32,31.6C24.2,94.4,23.9,94.6,23.6,94.6z
		 M5.4,81.9l18,10.4L54,62.2L36,51.7L5.4,81.9z"/>
	<path class="st2" d="M26.4,101.9c-0.1,0-0.1,0-0.2,0c-0.3-0.1-0.6-0.3-0.7-0.6L22.7,94c-0.1-0.4,0-0.8,0.2-1.1L55,61.2
		c0.2-0.2,0.6-0.3,0.9-0.3c0.3,0.1,0.6,0.3,0.7,0.6l2.8,7.3c0.1,0.4,0,0.8-0.2,1.1l-32.1,31.6C26.9,101.8,26.7,101.9,26.4,101.9z
		 M24.8,93.8l2,5.3L57.3,69l-2-5.3L24.8,93.8z"/>
	<path class="st2" d="M26.4,101.9c-0.2,0-0.3,0-0.5-0.1L6.1,90.3c-0.2-0.1-0.4-0.3-0.4-0.5l-2.8-7.3C2.7,82,3,81.4,3.5,81.2
		c0.3-0.1,0.6-0.1,0.8,0.1l19.8,11.5c0.2,0.1,0.4,0.3,0.4,0.5l2.8,7.3c0.2,0.5-0.1,1.1-0.6,1.3C26.6,101.8,26.5,101.9,26.4,101.9
		L26.4,101.9z M7.4,88.7l17.1,9.9l-1.6-4.3L5.7,84.4L7.4,88.7z"/>
	<path class="st3" d="M26.4,101.9L26.4,101.9c-0.2,0-0.3,0-0.4-0.1l0,0h-0.1L6.1,90.3c-0.2-0.1-0.4-0.3-0.4-0.5l-2.8-7.3
		c-0.1-0.4-0.1-0.8,0.2-1.1l32.1-31.6c0.3-0.3,0.8-0.4,1.2-0.2l19.8,11.5c0.2,0.1,0.4,0.3,0.4,0.5l2.8,7.3c0.1,0.4,0,0.8-0.2,1.1
		l-32,31.6l0,0l0,0c0,0-0.1,0-0.1,0.1l0,0l0,0c-0.1,0.1-0.3,0.1-0.4,0.2l0,0C26.5,101.8,26.5,101.9,26.4,101.9z M7.4,88.7l18.3,10.6
		h0.1c0.2-0.1,0.5-0.1,0.8,0L57.3,69l-2.4-6.4L36,51.7L5,82.4L7.4,88.7z"/>
	<rect x="1" y="1" class="st4" width="126" height="126"/>
	<g>
		<rect class="st4" width="128" height="128"/>
	</g>
</g>
</svg>
