<?xml version="1.0" encoding="utf-8"?>
<!-- Generator: Adobe Illustrator 24.1.2, SVG Export Plug-In . SVG Version: 6.00 Build 0)  -->
<svg version="1.1" id="Layer_1" xmlns="http://www.w3.org/2000/svg" xmlns:xlink="http://www.w3.org/1999/xlink" x="0px" y="0px"
	 width="128px" height="128px" viewBox="0 0 128 128" style="enable-background:new 0 0 128 128;" xml:space="preserve">
<style type="text/css">
	.st0{fill:#E9EBDF;}
	.st1{fill:#4D9987;}
	.st2{fill:#FFFFFF;}
	.st3{fill:#0E352C;}
	.st4{fill:#27ae60;}
	.st5{fill:#C4D7D3;}
	.st6{fill:#185849;}
	.st7{fill:none;}
</style>
<g>
	<polygon class="st0" points="107.9,38.3 104.5,40.3 99.7,43.1 89.7,37.3 79.8,31.6 83.2,29.6 88,26.8 97.9,32.6 	"/>
	<polygon class="st1" points="107.9,38.3 107.9,57.8 107.9,77.3 104.5,79.3 99.7,82.1 99.7,62.6 99.7,43.1 104.5,40.3 	"/>
	<polygon class="st0" points="79.8,31.6 79.8,51.1 79.8,70.6 89.7,76.3 99.7,82.1 99.7,62.6 99.7,43.1 89.7,37.3 	"/>
	<path class="st2" d="M99.7,44.1c-0.2,0-0.3,0-0.5-0.1L79.3,32.4c-0.5-0.3-0.6-0.9-0.4-1.4c0.1-0.2,0.2-0.3,0.4-0.4l8.2-4.7
		c0.3-0.2,0.7-0.2,1,0l19.9,11.5c0.5,0.3,0.6,0.9,0.4,1.4c-0.1,0.2-0.2,0.3-0.4,0.4l-8.2,4.7C100,44,99.9,44.1,99.7,44.1z
		 M81.8,31.6l17.9,10.3l6.2-3.6L88,28L81.8,31.6z"/>
	<path class="st2" d="M99.7,83.1c-0.6,0-1-0.4-1-1v-39c0-0.4,0.2-0.7,0.5-0.9l8.2-4.7c0.5-0.3,1.1-0.1,1.4,0.4
		c0.1,0.2,0.1,0.3,0.1,0.5v39c0,0.4-0.2,0.7-0.5,0.9l-8.2,4.7C100,83,99.9,83.1,99.7,83.1z M100.7,43.6v36.7l6.2-3.6V40.1
		L100.7,43.6z"/>
	<path class="st2" d="M99.7,83.1c-0.2,0-0.3,0-0.5-0.1L79.3,71.5c-0.3-0.2-0.5-0.5-0.5-0.9v-39c0-0.6,0.4-1,1-1c0.2,0,0.3,0,0.5,0.1
		l19.9,11.5c0.3,0.2,0.5,0.5,0.5,0.9v39C100.7,82.6,100.2,83.1,99.7,83.1z M80.8,70l17.9,10.3V43.6L80.8,33.3V70z"/>
	<path class="st3" d="M99.7,83.1c-0.2,0-0.3,0-0.5-0.1L79.3,71.5c-0.3-0.2-0.5-0.5-0.5-0.9v-39c0-0.4,0.2-0.7,0.5-0.9l8.2-4.7
		c0.3-0.2,0.7-0.2,1,0l10,5.8l0,0l10,5.8c0.3,0.2,0.5,0.5,0.5,0.9v39c0,0.4-0.2,0.7-0.5,0.9l-8.2,4.7C100,83,99.9,83.1,99.7,83.1z
		 M80.8,70l18.9,10.9l7.2-4.2V38.9L88,28l-7.2,4.2V70z"/>
	<polygon class="st0" points="88,49.8 84.6,51.8 79.8,54.5 69.8,48.8 59.9,43 63.3,41.1 68.1,38.3 78.1,44.1 	"/>
	<polygon class="st1" points="88,49.8 88,69.3 88,88.8 84.6,90.8 79.8,93.6 79.8,74.1 79.8,54.5 84.6,51.8 	"/>
	<polygon class="st0" points="59.9,43 59.9,62.6 59.9,82.1 69.8,87.8 79.8,93.6 79.8,74.1 79.8,54.5 69.8,48.8 	"/>
	<path class="st2" d="M79.8,55.5c-0.2,0-0.3,0-0.5-0.1L59.4,43.9c-0.5-0.3-0.6-0.9-0.4-1.4c0.1-0.2,0.2-0.3,0.4-0.4l8.2-4.7
		c0.3-0.2,0.7-0.2,1,0l19.9,11.5c0.5,0.3,0.6,0.9,0.4,1.4c-0.1,0.2-0.2,0.3-0.4,0.4l-8.2,4.7C80.1,55.5,80,55.5,79.8,55.5z M61.9,43
		l17.9,10.4l6.2-3.6L68.1,39.5L61.9,43z"/>
	<path class="st2" d="M79.8,94.6c-0.6,0-1-0.4-1-1v-39c0-0.4,0.2-0.7,0.5-0.9l8.2-4.7c0.5-0.3,1.1-0.1,1.4,0.4
		c0.1,0.2,0.1,0.3,0.1,0.5v39c0,0.4-0.2,0.7-0.5,0.9l-8.2,4.7C80.1,94.5,80,94.6,79.8,94.6z M80.8,55.1v36.7l6.2-3.6V51.5L80.8,55.1
		z"/>
	<path class="st2" d="M79.8,94.6c-0.2,0-0.3,0-0.5-0.1L59.4,82.9c-0.3-0.2-0.5-0.5-0.5-0.9V43c0-0.6,0.4-1,1-1c0.2,0,0.3,0,0.5,0.1
		l19.9,11.5c0.3,0.2,0.5,0.5,0.5,0.9v39C80.8,94.1,80.3,94.6,79.8,94.6z M60.9,81.5l17.9,10.3V55.1L60.9,44.8V81.5z"/>
	<path class="st3" d="M79.8,94.6c-0.2,0-0.3,0-0.5-0.1L59.4,82.9c-0.3-0.2-0.5-0.5-0.5-0.9V43c0-0.4,0.2-0.7,0.5-0.9l8.2-4.7
		c0.3-0.2,0.7-0.2,1,0l10,5.7l0,0l10,5.8c0.3,0.2,0.5,0.5,0.5,0.9v39c0,0.4-0.2,0.7-0.5,0.9l-8.2,4.7C80.1,94.5,80,94.6,79.8,94.6z
		 M60.9,81.5l18.9,10.9l7.2-4.2V50.4L68.1,39.5l-7.2,4.2C60.9,43.7,60.9,81.5,60.9,81.5z"/>
	<polygon class="st0" points="68.1,61.3 64.7,63.2 59.9,66 49.9,60.3 40,54.5 43.4,52.6 48.2,49.8 58.2,55.5 	"/>
	<polygon class="st1" points="68.1,61.3 68.1,80.8 68.1,100.3 64.7,102.3 59.9,105.1 59.9,85.5 59.9,66 64.7,63.2 	"/>
	<polygon class="st0" points="40,54.5 40,74 40,93.6 49.9,99.3 59.9,105.1 59.9,85.5 59.9,66 49.9,60.3 	"/>
	<path class="st2" d="M59.9,67c-0.2,0-0.3,0-0.5-0.1L39.5,55.4c-0.5-0.3-0.6-0.9-0.4-1.4c0.1-0.2,0.2-0.3,0.4-0.4l8.2-4.7
		c0.3-0.2,0.7-0.2,1,0l19.9,11.5c0.5,0.3,0.6,0.9,0.4,1.4c-0.1,0.2-0.2,0.3-0.4,0.4l-8.2,4.7C60.3,67,60.1,67,59.9,67z M42,54.5
		l17.9,10.3l6.2-3.6L48.2,50.9L42,54.5z"/>
	<path class="st2" d="M59.9,106.1c-0.6,0-1-0.4-1-1V66c0-0.4,0.2-0.7,0.5-0.9l8.2-4.7c0.5-0.3,1.1-0.1,1.4,0.4
		c0.1,0.2,0.1,0.3,0.1,0.5v39c0,0.4-0.2,0.7-0.5,0.9l-8.2,4.7C60.3,106,60.1,106.1,59.9,106.1z M60.9,66.6v36.7l6.2-3.6V63
		L60.9,66.6z"/>
	<path class="st2" d="M59.9,106.1c-0.2,0-0.3,0-0.5-0.1L39.5,94.4c-0.3-0.2-0.5-0.5-0.5-0.9v-39c0-0.6,0.4-1,1-1
		c0.2,0,0.3,0,0.5,0.1l19.9,11.5c0.3,0.2,0.5,0.5,0.5,0.9v39C60.9,105.6,60.5,106.1,59.9,106.1L59.9,106.1z M41,93l17.9,10.3V66.6
		L41,56.3V93z"/>
	<path class="st3" d="M59.9,106.1c-0.2,0-0.3,0-0.5-0.1L39.5,94.4c-0.3-0.2-0.5-0.5-0.5-0.9v-39c0-0.4,0.2-0.7,0.5-0.9l8.2-4.7
		c0.3-0.2,0.7-0.2,1,0l10,5.7l0,0l10,5.8c0.3,0.2,0.5,0.5,0.5,0.9v39c0,0.4-0.2,0.7-0.5,0.9l-8.2,4.7
		C60.3,106,60.1,106.1,59.9,106.1z M41,93l18.9,10.9l7.2-4.2V61.9l-18.9-11L41,55.1V93z"/>
	<polygon class="st2" points="48.2,43.4 44.8,45.3 40,48.1 30.1,42.4 20.1,36.6 23.5,34.7 28.3,31.9 38.3,37.6 	"/>
	<polygon class="st4" points="48.2,43.4 48.2,62.9 48.2,82.4 44.8,84.4 40,87.2 40,67.6 40,48.1 44.8,45.3 	"/>
	<polygon class="st5" points="20.1,36.6 20.1,56.1 20.1,75.7 30.1,81.4 40,87.2 40,67.6 40,48.1 30.1,42.4 	"/>
	<path class="st2" d="M40,49.1c-0.2,0-0.3,0-0.5-0.1L19.6,37.5c-0.5-0.3-0.6-0.9-0.4-1.4c0.1-0.2,0.2-0.3,0.4-0.4l8.2-4.7
		c0.3-0.2,0.7-0.2,1,0l19.9,11.5c0.5,0.3,0.6,0.9,0.4,1.4c-0.1,0.2-0.2,0.3-0.4,0.4L40.5,49C40.4,49.1,40.2,49.1,40,49.1z
		 M22.1,36.6L40,47l6.2-3.6L28.3,33L22.1,36.6z"/>
	<path class="st2" d="M40,88.2c-0.6,0-1-0.4-1-1v-39c0-0.4,0.2-0.7,0.5-0.9l8.2-4.7c0.5-0.3,1.1-0.1,1.4,0.4
		c0.1,0.2,0.1,0.3,0.1,0.5v39c0,0.4-0.2,0.7-0.5,0.9L40.5,88C40.4,88.1,40.2,88.2,40,88.2z M41,48.7v36.7l6.2-3.6V45.1L41,48.7z"/>
	<path class="st2" d="M40,88.2c-0.2,0-0.3,0-0.5-0.1L19.6,76.5c-0.3-0.2-0.5-0.5-0.5-0.9v-39c0-0.6,0.4-1,1-1c0.2,0,0.3,0,0.5,0.1
		l19.9,11.5c0.3,0.2,0.5,0.5,0.5,0.9v39C41,87.7,40.6,88.2,40,88.2L40,88.2z M21.1,75.1L39,85.4V48.7L21.1,38.4V75.1z"/>
	<path class="st6" d="M40,88.2c-0.2,0-0.3,0-0.5-0.1L19.6,76.5c-0.3-0.2-0.5-0.5-0.5-0.9v-39c0-0.4,0.2-0.7,0.5-0.9l8.2-4.7
		c0.3-0.2,0.7-0.2,1,0l10,5.7l0,0l10,5.8c0.3,0.2,0.5,0.5,0.5,0.9v39c0,0.4-0.2,0.7-0.5,0.9L40.5,88C40.4,88.1,40.2,88.2,40,88.2z
		 M21.1,75.1L40,86l7.2-4.2V44L28.3,33l-7.2,4.2C21.1,37.2,21.1,75.1,21.1,75.1z"/>
	<path class="st5" d="M40,117.5c-0.2,0-0.3,0-0.5-0.1l-19.9-11.5c-0.5-0.3-0.6-0.9-0.4-1.4c0.1-0.2,0.2-0.3,0.4-0.4l8.2-4.7
		c0.3-0.2,0.7-0.2,1,0l19.9,11.5c0.5,0.3,0.6,0.9,0.4,1.4c-0.1,0.2-0.2,0.3-0.4,0.4l-8.2,4.7C40.4,117.5,40.2,117.5,40,117.5z
		 M22.1,105L40,115.4l6.2-3.6l-17.9-10.3L22.1,105z"/>
	<path class="st6" d="M28.3,32.9c-0.6,0-1-0.5-1-1c0-0.3,0.1-0.5,0.3-0.7c0.4-0.4,1-0.4,1.4,0c0.2,0.2,0.3,0.4,0.3,0.7
		c0,0.1,0,0.3-0.1,0.4c-0.1,0.1-0.1,0.2-0.2,0.3s-0.2,0.2-0.3,0.2C28.6,32.9,28.5,32.9,28.3,32.9z"/>
	<path class="st6" d="M27.3,25.1c0-0.6,0.4-1,1-1l0,0c0.6,0,1,0.4,1,1l0,0c0,0.6-0.4,1-1,1l0,0C27.8,26.1,27.3,25.6,27.3,25.1z
		 M27.3,18.3c0-0.6,0.4-1,1-1l0,0c0.5,0,1,0.4,1,1l0,0l0,0c0,0.5-0.4,1-1,1l0,0l0,0C27.8,19.3,27.3,18.8,27.3,18.3L27.3,18.3z"/>
	<path class="st6" d="M28.3,12.5c-0.3,0-0.5-0.1-0.7-0.3c-0.1-0.1-0.2-0.2-0.2-0.3c-0.1-0.1-0.1-0.2-0.1-0.4c0-0.1,0-0.3,0.1-0.4
		c0-0.1,0.1-0.2,0.2-0.3c0.4-0.4,1-0.4,1.4,0c0.1,0.1,0.2,0.2,0.2,0.3s0.1,0.3,0.1,0.4c0,0.1,0,0.3-0.1,0.4
		c-0.1,0.1-0.1,0.2-0.2,0.3C28.8,12.4,28.6,12.5,28.3,12.5z"/>
	<path class="st6" d="M48.2,44.4c-0.3,0-0.5-0.1-0.7-0.3c0,0-0.1-0.1-0.1-0.2c0-0.1-0.1-0.1-0.1-0.2c0-0.1-0.1-0.1-0.1-0.2
		c0-0.1,0-0.1,0-0.2c0-0.6,0.4-1,1-1s1,0.4,1,1c0,0.1,0,0.1,0,0.2c0,0.1,0,0.1-0.1,0.2c0,0.1-0.1,0.1-0.1,0.2c0,0.1-0.1,0.1-0.1,0.2
		l-0.2,0.1c-0.1,0-0.1,0.1-0.2,0.1c-0.1,0-0.1,0-0.2,0.1C48.4,44.4,48.3,44.4,48.2,44.4z"/>
	<path class="st6" d="M47.2,36.6c0-0.6,0.4-1,1-1l0,0c0.6,0,1,0.4,1,1l0,0c0,0.6-0.4,1-1,1l0,0C47.7,37.6,47.2,37.1,47.2,36.6z
		 M47.2,29.8c0-0.6,0.4-1,1-1l0,0c0.6,0,1,0.4,1,1l0,0c0,0.6-0.4,1-1,1l0,0C47.7,30.8,47.2,30.3,47.2,29.8L47.2,29.8z"/>
	<path class="st6" d="M48.2,24c-0.3,0-0.5-0.1-0.7-0.3c-0.2-0.2-0.3-0.4-0.3-0.7c0-0.3,0.1-0.5,0.3-0.7c0.4-0.4,1-0.4,1.4,0
		c0.2,0.2,0.3,0.4,0.3,0.7c0,0.3-0.1,0.5-0.3,0.7C48.8,23.9,48.5,24,48.2,24z"/>
	<rect x="1" y="1" class="st7" width="126" height="126"/>
	<g>
		<rect class="st7" width="128" height="128"/>
	</g>
</g>
</svg>
