<?xml version="1.0" encoding="utf-8"?>
<!-- Generator: Adobe Illustrator 24.1.2, SVG Export Plug-In . SVG Version: 6.00 Build 0)  -->
<svg version="1.1" id="Layer_1" xmlns="http://www.w3.org/2000/svg" xmlns:xlink="http://www.w3.org/1999/xlink" x="0px" y="0px"
	 width="440px" height="300px" viewBox="0 0 440 300" style="enable-background:new 0 0 440 300;" xml:space="preserve">
<style type="text/css">
	.st0{fill:#185849;}
	.st1{fill:#E9EBDF;}
	.st2{fill:#0E352C;}
	.st3{fill:#FFFFFF;}
	.st4{fill:#4D9987;}
	.st5{fill:none;}
</style>
<g>
	<path class="st0" d="M220,162.9c-0.6,0-1-0.4-1-1c0-0.4,0.2-0.7,0.5-0.9l48.2-27.8c0.5-0.3,1.1-0.1,1.4,0.4s0.1,1.1-0.4,1.4
		l-48.2,27.8C220.3,162.8,220.2,162.9,220,162.9z"/>
	<polygon class="st1" points="279,123.3 220,157.4 161,123.3 220,89.3 	"/>
	<path class="st2" d="M220,158.4c-0.2,0-0.3,0-0.5-0.1l-59-34.1c-0.5-0.3-0.6-0.9-0.4-1.4c0.1-0.2,0.2-0.3,0.4-0.4l59-34.1
		c0.3-0.2,0.7-0.2,1,0l59,34.1c0.5,0.3,0.6,0.9,0.4,1.4c-0.1,0.2-0.2,0.3-0.4,0.4l-59,34.1C220.3,158.3,220.2,158.4,220,158.4z
		 M163,123.3l57,32.9l57-32.9l-57-32.9L163,123.3z"/>
	<polygon class="st3" points="169.3,128.1 220,157.4 270.7,128.1 220,98.9 	"/>
	<path class="st2" d="M220,158.4c-0.2,0-0.3,0-0.5-0.1L168.8,129c-0.5-0.3-0.6-0.9-0.4-1.4c0.1-0.2,0.2-0.3,0.4-0.4L219.5,98
		c0.3-0.2,0.7-0.2,1,0l50.7,29.2c0.5,0.3,0.6,0.9,0.4,1.4c-0.1,0.2-0.2,0.3-0.4,0.4l-50.7,29.2C220.3,158.3,220.2,158.4,220,158.4z
		 M171.3,128.1l48.7,28.1l48.7-28.1l-48.7-28L171.3,128.1z"/>
	<polygon class="st1" points="229.9,95 229.9,104.6 270.7,128.1 279,123.3 	"/>
	<path class="st4" d="M270.7,129.1c-0.2,0-0.3,0-0.5-0.1l-40.7-23.5c-0.3-0.2-0.5-0.5-0.5-0.9V95c0-0.6,0.4-1,1-1
		c0.2,0,0.3,0,0.5,0.1l49.1,28.3c0.5,0.3,0.6,0.9,0.4,1.4c-0.1,0.2-0.2,0.3-0.4,0.4l-8.3,4.8C271,129.1,270.8,129.1,270.7,129.1z
		 M230.9,104.1l39.7,22.9l6.3-3.7l-46.1-26.6L230.9,104.1z"/>
	<polygon class="st1" points="279,123.3 279,195.9 268.4,202.1 268.4,202.1 230.6,223.9 230.6,223.9 220,230 220,157.4 	"/>
	<path class="st4" d="M220,231c-0.6,0-1-0.4-1-1v-72.6c0-0.4,0.2-0.7,0.5-0.9l59-34.1c0.5-0.3,1.1-0.1,1.4,0.4
		c0.1,0.2,0.1,0.3,0.1,0.5v72.6c0,0.4-0.2,0.7-0.5,0.9l-59,34.1C220.3,231,220.2,231,220,231z M221,158v70.3l57-32.9v-70.3L221,158z
		"/>
	<polygon class="st1" points="220,157.4 220,230 161,195.9 161,123.3 	"/>
	<path class="st2" d="M220,231c-0.2,0-0.3,0-0.5-0.1l-59-34.1c-0.3-0.2-0.5-0.5-0.5-0.9v-72.6c0-0.6,0.4-1,1-1c0.2,0,0.3,0,0.5,0.1
		l59,34.1c0.3,0.2,0.5,0.5,0.5,0.9V230C221,230.6,220.6,231,220,231z M162,195.4l57,32.9V158l-57-32.9V195.4z"/>
	<path class="st4" d="M220,158.4c-0.2,0-0.3,0-0.5-0.1l-59-34.1c-0.5-0.3-0.6-0.9-0.4-1.4c0.3-0.5,0.9-0.6,1.4-0.4l0,0l59,34.1
		c0.5,0.3,0.6,0.9,0.4,1.4C220.7,158.2,220.4,158.4,220,158.4z"/>
	<polygon class="st1" points="229.9,75.7 170.9,109.8 161,104.1 220,70 	"/>
	<path class="st3" d="M170.9,110.8c-0.2,0-0.3,0-0.5-0.1l-9.9-5.7c-0.5-0.3-0.6-0.9-0.4-1.4c0.1-0.2,0.2-0.3,0.4-0.4l59-34.1
		c0.3-0.2,0.7-0.2,1,0l9.9,5.7c0.5,0.3,0.6,0.9,0.4,1.4c-0.1,0.2-0.2,0.3-0.4,0.4l-59,34.1C171.3,110.7,171.1,110.8,170.9,110.8z
		 M163,104.1l7.9,4.6l57-32.9l-7.9-4.6L163,104.1z"/>
	<polygon class="st4" points="170.9,129.1 170.9,109.8 229.9,75.7 229.9,104.6 179.3,133.9 	"/>
	<path class="st3" d="M179.3,134.9c-0.2,0-0.3,0-0.5-0.1l-8.3-4.8c-0.3-0.2-0.5-0.5-0.5-0.9v-19.3c0-0.4,0.2-0.7,0.5-0.9l59-34.1
		c0.5-0.3,1.1-0.1,1.4,0.4c0.1,0.2,0.1,0.3,0.1,0.5v28.9c0,0.4-0.2,0.7-0.5,0.9l-50.7,29.2C179.6,134.8,179.4,134.9,179.3,134.9z
		 M171.9,128.5l7.3,4.2l49.7-28.7V77.5l-57,32.9V128.5z"/>
	<polygon class="st1" points="161,104.1 161,123.3 170.9,129.1 170.9,109.8 	"/>
	<path class="st3" d="M170.9,130.1c-0.2,0-0.3,0-0.5-0.1l-9.9-5.7c-0.3-0.2-0.5-0.5-0.5-0.9v-19.3c0-0.4,0.2-0.7,0.5-0.9
		c0.3-0.2,0.7-0.2,1,0l9.9,5.7c0.3,0.2,0.5,0.5,0.5,0.9v19.3C171.9,129.6,171.5,130.1,170.9,130.1L170.9,130.1z M162,122.7l7.9,4.6
		v-17l-7.9-4.6V122.7z"/>
	<path class="st2" d="M179.3,134.9c-0.2,0-0.3,0-0.5-0.1l-18.3-10.5c-0.3-0.2-0.5-0.5-0.5-0.9v-19.3c0-0.4,0.2-0.7,0.5-0.9l59-34.1
		c0.3-0.2,0.7-0.2,1,0l9.9,5.7c0.3,0.2,0.5,0.5,0.5,0.9v28.9c0,0.4-0.2,0.7-0.5,0.9l-50.7,29.2C179.6,134.8,179.4,134.9,179.3,134.9
		z M162,122.7l17.3,10L229,104V76.3l-8.9-5.2l-58,33.5v18.1H162z"/>
	<path class="st2" d="M220,231c-0.2,0-0.3,0-0.5-0.1l-59-34.1c-0.3-0.2-0.5-0.5-0.5-0.9v-72.6c0-0.6,0.4-1,1-1c0.2,0,0.3,0,0.5,0.1
		l58.5,33.8l58.5-33.8c0.5-0.3,1.1-0.1,1.4,0.4c0.1,0.2,0.1,0.3,0.1,0.5v72.6c0,0.4-0.2,0.7-0.5,0.9l-59,34.1
		C220.3,231,220.2,231,220,231z M162,195.4l58,33.5l58-33.5v-70.3l-57.5,33.2c-0.3,0.2-0.7,0.2-1,0L162,125.1V195.4z"/>
	<path class="st2" d="M279,124.3c-0.2,0-0.3,0-0.5-0.1l-49.1-28.3c-0.5-0.3-0.6-0.9-0.4-1.4c0.3-0.5,0.9-0.6,1.4-0.4l0,0l49.1,28.3
		c0.5,0.3,0.6,0.9,0.4,1.4C279.7,124.1,279.4,124.3,279,124.3z"/>
	<polygon class="st3" points="201.9,169.2 201.9,197.1 179.3,184 179.3,156.1 	"/>
	<path class="st2" d="M201.9,198.1c-0.2,0-0.3,0-0.5-0.1l-22.7-13.1c-0.3-0.2-0.5-0.5-0.5-0.9v-27.9c0-0.6,0.4-1,1-1
		c0.2,0,0.3,0,0.5,0.1l22.7,13.1c0.3,0.2,0.5,0.5,0.5,0.9v27.9c0,0.4-0.2,0.7-0.5,0.9C202.3,198.1,202.1,198.1,201.9,198.1z
		 M180.3,183.4l20.7,11.9v-25.6l-20.7-11.9V183.4z"/>
	<path class="st4" d="M188.8,182.9c-0.6,0-1-0.4-1-1c0-0.3,0.1-0.6,0.4-0.8l4.1-3.1l-4.4-8.4c-0.2-0.5-0.1-1.1,0.4-1.3
		s1.1-0.1,1.3,0.4l4.8,9.1c0.2,0.4,0.1,1-0.3,1.3l-4.8,3.6C189.2,182.8,189,182.9,188.8,182.9z"/>
	<path class="st3" d="M239.9,137.3c-0.6,0-1-0.4-1-1c0-0.4,0.2-0.7,0.5-0.9l19.3-11.1c0.5-0.3,1.1-0.1,1.4,0.4s0.1,1.1-0.4,1.4
		l-19.3,11.1C240.2,137.2,240,137.3,239.9,137.3z"/>
	<rect y="50" class="st5" width="440" height="200"/>
	<rect class="st5" width="440" height="300"/>
</g>
</svg>
