<?xml version="1.0" encoding="utf-8"?>
<!-- Generator: Adobe Illustrator 24.1.2, SVG Export Plug-In . SVG Version: 6.00 Build 0)  -->
<svg version="1.1" id="Layer_1" xmlns="http://www.w3.org/2000/svg" xmlns:xlink="http://www.w3.org/1999/xlink" x="0px" y="0px"
	 width="128px" height="128px" viewBox="0 0 128 128" style="enable-background:new 0 0 128 128;" xml:space="preserve">
<style type="text/css">
	.st0{fill:#FFFFFF;}
	.st1{fill:#4D9987;}
	.st2{fill:#0E352C;}
	.st3{fill:none;}
</style>
<g>
	<path class="st0" d="M22.2,72.9L51,89.5c1.1,0.5,2.3,0.5,3.4,0l53.8-31c0.5-0.2,0.8-0.8,0.6-1.3c-0.1-0.3-0.3-0.5-0.6-0.6
		L78.5,39.4"/>
	<path class="st1" d="M52.7,90.9c-0.8,0-1.5-0.2-2.2-0.5L21.8,73.7c-0.5-0.3-0.6-0.9-0.4-1.4c0.3-0.5,0.9-0.6,1.4-0.4l28.8,16.6
		c0.7,0.4,1.6,0.4,2.4,0l53.8-31c0.1,0,0.1-0.1,0.1-0.1l-0.1-0.1L78,40.3c-0.5-0.3-0.6-0.9-0.4-1.4c0.3-0.5,0.9-0.6,1.4-0.4l0,0
		l29.6,17.1c1,0.4,1.5,1.6,1,2.6c-0.2,0.5-0.6,0.8-1,1l-53.8,31C54.2,90.7,53.5,90.9,52.7,90.9z"/>
	<path class="st0" d="M22.2,72.9L51,89.5c1.1,0.5,2.3,0.5,3.4,0l53.8-31c0.5-0.2,0.8-0.8,0.6-1.3c-0.1-0.3-0.3-0.5-0.6-0.6
		L78.5,39.4"/>
	<path class="st1" d="M52.7,90.9c-0.8,0-1.5-0.2-2.2-0.5L21.8,73.7c-0.5-0.3-0.6-0.9-0.4-1.4c0.3-0.5,0.9-0.6,1.4-0.4l28.8,16.6
		c0.7,0.4,1.6,0.4,2.4,0l53.8-31c0.1,0,0.1-0.1,0.1-0.1l-0.1-0.1L78,40.3c-0.5-0.3-0.6-0.9-0.4-1.4c0.3-0.5,0.9-0.6,1.4-0.4l0,0
		l29.6,17.1c1,0.4,1.5,1.6,1,2.6c-0.2,0.5-0.6,0.8-1,1l-53.8,31C54.2,90.7,53.5,90.9,52.7,90.9z"/>
	<path class="st0" d="M78.5,39.4L77,38.5c-1.1-0.5-2.3-0.5-3.4,0l-53.8,31c-0.5,0.2-0.8,0.8-0.6,1.3c0.1,0.3,0.3,0.5,0.6,0.6
		l2.4,1.4"/>
	<path class="st1" d="M22.2,73.9c-0.2,0-0.3,0-0.5-0.1l-2.4-1.4c-1-0.4-1.5-1.6-1-2.6c0.2-0.5,0.6-0.8,1-1l53.8-31
		c1.4-0.7,3-0.7,4.4,0l1.6,0.9c0.5,0.3,0.6,0.9,0.4,1.4c-0.3,0.5-0.9,0.6-1.4,0.4l-1.6-0.9c-0.7-0.4-1.6-0.4-2.4,0l-53.8,31
		c-0.1,0-0.1,0.1-0.1,0.1l0.1,0.1l2.4,1.4c0.5,0.3,0.6,0.9,0.4,1.4C22.9,73.7,22.6,73.9,22.2,73.9L22.2,73.9z"/>
	<path class="st0" d="M108.2,56.5c0.5,0.2,0.8,0.8,0.6,1.3c-0.1,0.3-0.3,0.5-0.6,0.6l-53.8,31c-1.1,0.5-2.3,0.5-3.4,0l-1-0.6
		L58.4,65c0.8-2.2,3.7-3.9,7.5-4.3l41.2-4.8L108.2,56.5z"/>
	<path class="st1" d="M52.7,90.9c-0.8,0-1.5-0.2-2.2-0.5l-1-0.6c-0.4-0.2-0.6-0.7-0.4-1.2l8.4-23.8c0.9-2.5,4.2-4.5,8.4-5l41.2-4.8
		c0.2,0,0.4,0,0.6,0.1l1,0.6l0,0c1,0.4,1.5,1.6,1,2.6c-0.2,0.5-0.6,0.8-1,1l-53.8,31C54.2,90.7,53.5,90.9,52.7,90.9z M51.3,88.5
		l0.3,0.2c0.7,0.4,1.6,0.4,2.4,0l53.8-31c0.1,0,0.1-0.1,0.1-0.1l-0.1-0.1l-0.7-0.4l-40.9,4.8c-3.4,0.4-6.1,1.9-6.7,3.7L51.3,88.5z"
		/>
	<path class="st0" d="M19.8,71.5c-0.5-0.2-0.8-0.8-0.6-1.3c0.1-0.3,0.3-0.5,0.6-0.6l53.8-31c1.1-0.5,2.3-0.5,3.4,0l1,0.6L69.6,63
		c-0.8,2.2-3.7,3.9-7.5,4.3l-41.2,4.8L19.8,71.5z"/>
	<path class="st1" d="M20.8,73.1c-0.2,0-0.3,0-0.5-0.1l-1-0.6l0,0c-1-0.4-1.5-1.6-1-2.6c0.2-0.5,0.6-0.8,1-1l53.8-31
		c1.4-0.7,3-0.7,4.4,0l1,0.6c0.4,0.2,0.6,0.7,0.4,1.2l-8.4,23.8c-0.9,2.5-4.2,4.5-8.4,5L21,73.1C20.9,73.1,20.9,73.1,20.8,73.1z
		 M20.3,70.6L21,71l40.9-4.8c3.4-0.4,6.1-1.9,6.7-3.7l8.1-23l-0.3-0.2c-0.7-0.4-1.6-0.4-2.4,0l-53.8,31c-0.1,0-0.1,0.1-0.1,0.1
		C20.2,70.5,20.3,70.6,20.3,70.6L20.3,70.6z"/>
	<path class="st2" d="M52.7,90.9c-0.8,0-1.5-0.2-2.2-0.5l-31.2-18c-1-0.4-1.5-1.6-1-2.6c0.2-0.5,0.6-0.8,1-1l53.8-31
		c1.4-0.7,3-0.7,4.4,0l31.2,18c1,0.4,1.5,1.6,1,2.6c-0.2,0.5-0.6,0.8-1,1l-53.8,31C54.2,90.7,53.5,90.9,52.7,90.9z M20.2,70.5
		l0.1,0.1l2.4,1.4l0,0l28.8,16.6c0.7,0.4,1.6,0.4,2.4,0l53.8-31c0.1,0,0.1-0.1,0.1-0.1l-0.1-0.1l-31.2-18c-0.7-0.4-1.6-0.4-2.4,0
		L20.2,70.5L20.2,70.5z"/>
	<rect x="1" y="1" class="st3" width="126" height="126"/>
	<g>
		<rect class="st3" width="128" height="128"/>
	</g>
</g>
</svg>
