<?xml version="1.0" encoding="utf-8"?>
<!-- Generator: Adobe Illustrator 24.1.2, SVG Export Plug-In . SVG Version: 6.00 Build 0)  -->
<svg version="1.1" id="Layer_1" xmlns="http://www.w3.org/2000/svg" xmlns:xlink="http://www.w3.org/1999/xlink" x="0px" y="0px"
	 width="440px" height="300px" viewBox="0 0 440 300" style="enable-background:new 0 0 440 300;" xml:space="preserve">
<style type="text/css">
	.st0{fill:#185849;}
	.st1{fill:#E9EBDF;}
	.st2{fill:#0E352C;}
	.st3{fill:#FFFFFF;}
	.st4{fill:#4D9987;}
	.st5{fill:none;}
</style>
<g>
	<path class="st0" d="M220,153.2c-0.6,0-1-0.4-1-1c0-0.4,0.2-0.7,0.5-0.9l47.8-27.6c0.5-0.3,1.1-0.1,1.4,0.4s0.1,1.1-0.4,1.4
		l-47.8,27.6C220.3,153.2,220.2,153.2,220,153.2z"/>
	<polygon class="st1" points="278.5,114 220,147.8 161.5,114 220,80.2 	"/>
	<path class="st2" d="M220,148.8c-0.2,0-0.3,0-0.5-0.1L161,114.9c-0.5-0.3-0.6-0.9-0.4-1.4c0.1-0.2,0.2-0.3,0.4-0.4l58.5-33.8
		c0.3-0.2,0.7-0.2,1,0l58.5,33.8c0.5,0.3,0.6,0.9,0.4,1.4c-0.1,0.2-0.2,0.3-0.4,0.4l-58.5,33.8C220.3,148.7,220.2,148.8,220,148.8z
		 M163.5,114l56.5,32.6l56.5-32.6L220,81.4L163.5,114z"/>
	<polygon class="st3" points="169.8,118.8 210.2,142.1 260.4,113.1 220,89.8 	"/>
	<path class="st4" d="M210.2,143.1c-0.2,0-0.3,0-0.5-0.1l-40.4-23.3c-0.5-0.3-0.6-0.9-0.4-1.4c0.1-0.2,0.2-0.3,0.4-0.4l50.2-29
		c0.3-0.2,0.7-0.2,1,0l40.4,23.3c0.5,0.3,0.6,0.9,0.4,1.4c-0.1,0.2-0.2,0.3-0.4,0.4l-50.2,29C210.5,143,210.3,143.1,210.2,143.1z
		 M171.8,118.8l38.4,22.2l48.2-27.8L220,90.9L171.8,118.8z"/>
	<polygon class="st1" points="220,80.2 220,89.8 270.2,118.8 278.5,114 	"/>
	<path class="st4" d="M270.2,119.8c-0.2,0-0.3,0-0.5-0.1l-50.2-29c-0.3-0.2-0.5-0.5-0.5-0.9v-9.5c0-0.6,0.4-1,1-1
		c0.2,0,0.3,0,0.5,0.1l58.5,33.8c0.5,0.3,0.6,0.9,0.4,1.4c-0.1,0.2-0.2,0.3-0.4,0.4l-8.3,4.8C270.6,119.7,270.4,119.8,270.2,119.8z
		 M221,89.2l49.2,28.4l6.3-3.6L221,82V89.2z"/>
	<path class="st1" d="M220,147.8v72l10.5-6.1v-35c0-2.6,0.3-5.3,0.8-7.8l36.7,21.2l0,0l10.5-6.1v-72L220,147.8z"/>
	<path class="st4" d="M220,220.8c-0.2,0-0.3,0-0.5-0.1c-0.3-0.2-0.5-0.5-0.5-0.9v-72c0-0.4,0.2-0.7,0.5-0.9l58.5-33.8
		c0.5-0.3,1.1-0.1,1.4,0.4c0.1,0.2,0.1,0.3,0.1,0.5v72c0,0.4-0.2,0.7-0.5,0.9l-10.5,6.1c-0.3,0.2-0.7,0.2-1,0l-35.4-20.5
		c-0.4,2.1-0.5,4.2-0.6,6.3v35c0,0.4-0.2,0.7-0.5,0.9l-10.5,6.1C220.4,220.7,220.2,220.8,220,220.8z M221,148.4V218l8.5-4.9v-34.4
		c0-2.7,0.3-5.4,0.8-8c0.1-0.5,0.6-0.9,1.2-0.8c0.1,0,0.2,0.1,0.3,0.1l36.2,20.9l9.5-5.5v-69.7L221,148.4z"/>
	<path class="st1" d="M249.2,142.9c10.4-6,18.8,0.4,18.8,14.2v35l-36.7-21.2C233.7,159.3,240.8,147.8,249.2,142.9z"/>
	<path class="st2" d="M268,193.1c-0.2,0-0.3,0-0.5-0.1l-36.7-21.2c-0.4-0.2-0.6-0.6-0.5-1.1c2.5-12.2,9.9-23.7,18.4-28.6l0,0
		c4.8-2.8,9.5-3.1,13.3-1c4.4,2.6,7,8.4,7,16v35C269,192.6,268.6,193.1,268,193.1L268,193.1z M232.5,170.4l34.5,19.9v-33.2
		c0-6.9-2.2-12.1-6-14.3c-3.1-1.8-7.1-1.4-11.3,1C242,148.3,234.9,159.1,232.5,170.4L232.5,170.4z"/>
	<path class="st4" d="M249.2,142.9c-8.4,4.9-15.6,16.4-17.9,28l19,11l0,0l17.5-27.9C266.7,142.4,258.8,137.4,249.2,142.9z"/>
	<path class="st2" d="M268,193.1c-0.2,0-0.3,0-0.5-0.1l-36.7-21.2c-0.4-0.2-0.6-0.6-0.5-1.1c2.5-12.2,9.9-23.7,18.4-28.6l0,0
		c4.8-2.8,9.5-3.1,13.3-1c4.4,2.6,7,8.4,7,16v35C269,192.6,268.6,193.1,268,193.1L268,193.1z M232.5,170.4l34.5,19.9v-33.2
		c0-6.9-2.2-12.1-6-14.3c-3.1-1.8-7.1-1.4-11.3,1C242,148.3,234.9,159.1,232.5,170.4L232.5,170.4z"/>
	<polygon class="st1" points="220,147.8 220,219.8 161.5,186 161.5,114 	"/>
	<path class="st2" d="M220,220.8c-0.2,0-0.3,0-0.5-0.1L161,186.9c-0.3-0.2-0.5-0.5-0.5-0.9v-72c0-0.6,0.4-1,1-1c0.2,0,0.3,0,0.5,0.1
		l58.5,33.8c0.3,0.2,0.5,0.5,0.5,0.9v72C221,220.3,220.6,220.8,220,220.8z M162.5,185.4L219,218v-69.7l-56.5-32.6V185.4z"/>
	<polygon class="st3" points="202.1,159.5 202.1,187.4 179.4,174.3 179.4,146.4 	"/>
	<path class="st2" d="M202.1,188.4c-0.2,0-0.3,0-0.5-0.1l-22.7-13.1c-0.3-0.2-0.5-0.5-0.5-0.9v-27.9c0-0.6,0.4-1,1-1
		c0.2,0,0.3,0,0.5,0.1l22.7,13.1c0.3,0.2,0.5,0.5,0.5,0.9v27.9C203.1,188,202.6,188.4,202.1,188.4z M180.4,173.7l20.7,11.9V160
		l-20.7-11.9V173.7z"/>
	<path class="st4" d="M220,148.8c-0.2,0-0.3,0-0.5-0.1L161,114.9c-0.5-0.3-0.6-0.9-0.4-1.4s0.9-0.6,1.4-0.4l0,0l58.5,33.8
		c0.5,0.3,0.6,0.9,0.4,1.4C220.7,148.6,220.4,148.8,220,148.8z"/>
	<path class="st4" d="M220,220.8c-0.2,0-0.3,0-0.5-0.1L161,186.9c-0.3-0.2-0.5-0.5-0.5-0.9v-72c0-0.6,0.4-1,1-1c0.2,0,0.3,0,0.5,0.1
		l58.5,33.8c0.3,0.2,0.5,0.5,0.5,0.9v72C221,220.3,220.6,220.8,220,220.8z M162.5,185.4L219,218v-69.7l-56.5-32.6V185.4z"/>
	<path class="st4" d="M188.9,173.2c-0.6,0-1-0.4-1-1c0-0.3,0.1-0.6,0.4-0.8l4.1-3.1l-4.4-8.4c-0.3-0.5-0.1-1.1,0.4-1.3
		c0.5-0.3,1.1-0.1,1.4,0.4l4.8,9.1c0.2,0.4,0.1,1-0.3,1.3l-4.8,3.6C189.4,173.1,189.2,173.2,188.9,173.2z"/>
	<path class="st2" d="M220,220.8c-0.2,0-0.3,0-0.5-0.1L161,186.9c-0.3-0.2-0.5-0.5-0.5-0.9v-72c0-0.6,0.4-1,1-1c0.2,0,0.3,0,0.5,0.1
		l58,33.5l58-33.5c0.5-0.3,1.1-0.1,1.4,0.4c0.1,0.2,0.1,0.3,0.1,0.5v72c0,0.4-0.2,0.7-0.5,0.9l-10.5,6.1c-0.3,0.2-0.7,0.2-1,0
		l-35.4-20.5c-0.4,2.1-0.5,4.2-0.6,6.3v35c0,0.4-0.2,0.7-0.5,0.9l-10.5,6.1C220.4,220.7,220.2,220.8,220,220.8z M162.5,185.4
		l57.5,33.2l9.5-5.5v-34.4c0-2.7,0.3-5.4,0.8-8c0.1-0.5,0.6-0.9,1.2-0.8c0.1,0,0.2,0.1,0.3,0.1l36.2,20.9l9.5-5.5v-69.7l-57,32.9
		c-0.3,0.2-0.7,0.2-1,0l-57-32.9V185.4z"/>
	<path class="st2" d="M230.5,214.7c-0.6,0-1-0.4-1-1v-35c0-2.7,0.3-5.4,0.8-8c0.1-0.5,0.6-0.9,1.2-0.8c0.5,0.1,0.9,0.6,0.8,1.2l0,0
		c-0.5,2.5-0.8,5.1-0.8,7.6v35C231.5,214.3,231.1,214.7,230.5,214.7z"/>
	<path class="st2" d="M220,148.8c-0.2,0-0.3,0-0.5-0.1L161,114.9c-0.5-0.3-0.6-0.9-0.4-1.4c0.1-0.2,0.2-0.3,0.4-0.4l58.5-33.8
		c0.3-0.2,0.7-0.2,1,0l58.5,33.8c0.5,0.3,0.6,0.9,0.4,1.4c-0.1,0.2-0.2,0.3-0.4,0.4l-58.5,33.8C220.3,148.7,220.2,148.8,220,148.8z
		 M163.5,114l56.5,32.6l56.5-32.6L220,81.4L163.5,114z"/>
	<polygon class="st1" points="278.5,94.9 220,128.7 210.2,123 268.7,89.2 	"/>
	<path class="st3" d="M220,129.7c-0.2,0-0.3,0-0.5-0.1l-9.8-5.7c-0.5-0.3-0.6-0.9-0.4-1.4c0.1-0.2,0.2-0.3,0.4-0.4l58.5-33.8
		c0.3-0.2,0.7-0.2,1,0L279,94c0.5,0.3,0.6,0.9,0.4,1.4c-0.1,0.2-0.2,0.3-0.4,0.4l-58.5,33.8C220.3,129.6,220.2,129.7,220,129.7z
		 M212.2,123l7.8,4.5l56.5-32.6l-7.8-4.5L212.2,123z"/>
	<polygon class="st4" points="278.5,94.9 278.5,114 220,147.8 220,128.7 	"/>
	<path class="st3" d="M220,148.8c-0.2,0-0.3,0-0.5-0.1c-0.3-0.2-0.5-0.5-0.5-0.9v-19.1c0-0.4,0.2-0.7,0.5-0.9L278,94
		c0.5-0.3,1.1-0.1,1.4,0.4c0.1,0.2,0.1,0.3,0.1,0.5V114c0,0.4-0.2,0.7-0.5,0.9l-58.5,33.8C220.3,148.7,220.2,148.8,220,148.8z
		 M221,129.2V146l56.5-32.6V96.6L221,129.2z"/>
	<polygon class="st1" points="210.2,123 210.2,142.1 220,147.8 220,128.7 	"/>
	<path class="st3" d="M220,148.8c-0.2,0-0.3,0-0.5-0.1l-9.8-5.7c-0.3-0.2-0.5-0.5-0.5-0.9V123c0-0.6,0.4-1,1-1c0.2,0,0.3,0,0.5,0.1
		l9.8,5.7c0.3,0.2,0.5,0.5,0.5,0.9v19.1C221,148.3,220.6,148.8,220,148.8L220,148.8z M211.2,141.5l7.8,4.5v-16.8l-7.8-4.5V141.5z"/>
	<path class="st2" d="M220,148.8c-0.2,0-0.3,0-0.5-0.1l-9.8-5.7c-0.3-0.2-0.5-0.5-0.5-0.9V123c0-0.4,0.2-0.7,0.5-0.9l58.5-33.8
		c0.3-0.2,0.7-0.2,1,0L279,94c0.3,0.2,0.5,0.5,0.5,0.9V114c0,0.4-0.2,0.7-0.5,0.9l-58.5,33.8C220.3,148.7,220.2,148.8,220,148.8z
		 M211.2,141.5l8.8,5.1l57.5-33.2V95.5l-8.8-5.1l-57.5,33.2L211.2,141.5L211.2,141.5z"/>
	<path class="st3" d="M239.7,127.9c-0.6,0-1-0.4-1-1c0-0.4,0.2-0.7,0.5-0.9l19.1-11c0.5-0.3,1.1-0.1,1.4,0.4s0.1,1.1-0.4,1.4
		l-19.1,11C240,127.8,239.9,127.9,239.7,127.9z"/>
	<rect y="50" class="st5" width="440" height="200"/>
	<rect class="st5" width="440" height="300"/>
</g>
</svg>
