<?xml version="1.0" encoding="utf-8"?>
<!-- Generator: Adobe Illustrator 24.1.2, SVG Export Plug-In . SVG Version: 6.00 Build 0)  -->
<svg version="1.1" id="Layer_1" xmlns="http://www.w3.org/2000/svg" xmlns:xlink="http://www.w3.org/1999/xlink" x="0px" y="0px"
	 width="440px" height="300px" viewBox="0 0 440 300" style="enable-background:new 0 0 440 300;" xml:space="preserve">
<style type="text/css">
	.st0{fill:#E9EBDF;}
	.st1{fill:#4D9987;}
	.st2{fill:#FFFFFF;}
	.st3{fill:#0E352C;}
	.st4{fill:#C4D7D3;}
	.st5{fill:none;}
	.st6{fill:#27ae60;}
	.st7{fill:#185849;}
</style>
<g>
	<polyline class="st0" points="272.8,56.1 272.8,67.9 260.4,67.9 260.4,54.8 272.8,56.1 	"/>
	<path class="st1" d="M272.8,68.9h-12.4c-0.6,0-1-0.4-1-1V54.8c0-0.3,0.1-0.6,0.3-0.7c0.2-0.2,0.5-0.3,0.8-0.2l12.4,1.4
		c0.5,0.1,0.9,0.5,0.9,1v11.8C273.8,68.5,273.3,68.9,272.8,68.9L272.8,68.9z M261.4,66.9h10.4V57l-10.4-1.2V66.9z"/>
	<path class="st0" d="M242.7,68.6l4.8-2.8v-2.6h5.7V51.7c3.8,0.8,7.4,2.1,10.7,4c8.2,4.7,10.6,11.5,7.4,17.4l45,26l83.6,39.8v11.8
		c0,2.1-1.4,4.1-4.1,5.7c-5.4,3.1-14.2,3.1-19.6,0l-0.1,0L251.7,84.5c-10.3,1.9-22,0.4-30.2-4.3c-5.9-3.4-8.8-7.8-8.8-12.3h0V56.2
		L242.7,68.6z"/>
	<path class="st0" d="M384.8,132.6l15.2,6.3v11.8c0,2.1-1.4,4.1-4.1,5.7c-3.4,1.8-7.3,2.6-11.1,2.3L384.8,132.6z"/>
	<path class="st0" d="M234,65l8.7,3.6l4.8-2.8v-2.6h4.1v21.3c-5.8,1-11.8,1-17.7,0L234,65z"/>
	<path class="st1" d="M386.1,159.6c-3.5,0.1-6.9-0.7-10-2.3c-0.1,0-0.2,0-0.4-0.1L251.5,85.5c-10.8,1.9-22.5,0.2-30.5-4.5
		c-5.9-3.4-9.2-8-9.3-13c0-0.1,0-0.1,0-0.2V56.2c0-0.6,0.4-1,1-1c0.1,0,0.3,0,0.4,0.1l29.6,12.2l3.9-2.3v-2c0-0.6,0.4-1,1-1h4.7
		V51.7c0-0.6,0.4-1,1-1c0.1,0,0.1,0,0.2,0c3.9,0.8,7.6,2.2,11,4.1c8.1,4.7,11.2,11.4,8.2,17.9l44.2,25.5l83.5,39.8
		c0.3,0.2,0.6,0.5,0.6,0.9v11.8c0,2.5-1.6,4.8-4.6,6.5C393.3,158.9,389.7,159.7,386.1,159.6z M376.4,155.3c0.1,0,0.2,0,0.3,0.1
		c5.1,3,13.5,3,18.6,0c2.3-1.3,3.6-3,3.6-4.8v-11.1L316,100l-45.1-26c-0.5-0.3-0.6-0.9-0.4-1.3c3-5.7,0.3-11.8-7.1-16.1
		c-2.9-1.6-6-2.8-9.2-3.6v10.3c0,0.6-0.4,1-1,1h-4.7v1.6c0,0.4-0.2,0.7-0.5,0.9l-4.8,2.8c-0.3,0.2-0.6,0.2-0.9,0.1l-28.6-11.9v10.1
		c0,0,0,0.1,0,0.2c0,4.3,2.9,8.3,8.3,11.4c7.7,4.5,19,6.1,29.5,4.2c0.2,0,0.5,0,0.7,0.1L376.4,155.3z"/>
	<path class="st0" d="M247.6,58.8l-13.1-7.5V39.5h14.2v11.5c1.6,0.2,3.1,0.4,4.6,0.8v11.5h-5.7L247.6,58.8z"/>
	<path class="st1" d="M253.3,64.2h-5.7c-0.6,0-1-0.4-1-1v-3.9L234,52.1c-0.3-0.2-0.5-0.5-0.5-0.9V39.5c0-0.6,0.4-1,1-1h14.2
		c0.6,0,1,0.4,1,1V50c1.2,0.2,2.5,0.4,3.8,0.7c0.5,0.1,0.8,0.5,0.8,1v11.5C254.3,63.8,253.8,64.2,253.3,64.2z M248.6,62.2h3.7v-9.7
		c-1.2-0.2-2.5-0.4-3.7-0.6c-0.5-0.1-0.9-0.5-0.9-1V40.5h-12.2v10.2l12.6,7.3c0.3,0.2,0.5,0.5,0.5,0.9V62.2z"/>
	<path class="st2" d="M213.8,51.4l13.1,7.5H239l8.5-4.9v-7l-13.1-7.5c10.1-1.7,21.5-0.2,29.5,4.4c8.2,4.7,10.6,11.5,7.4,17.4
		l124.5,71.9c5.4,3.1,5.4,8.2,0,11.3s-14.2,3.1-19.6,0l-0.1,0L251.7,72.7c-10.3,1.9-22,0.4-30.2-4.3C213.5,63.8,211,57.3,213.8,51.4
		z"/>
	<path class="st1" d="M386.1,147.9c-3.5,0.1-6.9-0.7-10-2.3c-0.1,0-0.2,0-0.4-0.1L251.5,73.8c-10.8,1.9-22.5,0.2-30.5-4.5
		c-8.2-4.7-11.3-11.8-8.1-18.3c0.2-0.5,0.8-0.7,1.3-0.5c0,0,0,0,0.1,0l12.8,7.4h11.6l7.8-4.5v-5.9L234,40.3
		c-0.5-0.3-0.6-0.9-0.4-1.4c0.1-0.3,0.4-0.4,0.7-0.5c10.7-1.8,22.2,0,30.1,4.5c8.1,4.7,11.2,11.5,8.2,17.9l123.7,71.4
		c2.9,1.7,4.6,4,4.6,6.5s-1.6,4.8-4.6,6.5C393.3,147.1,389.7,148,386.1,147.9z M376.4,143.6c0.1,0,0.2,0,0.3,0.1
		c5.1,3,13.5,3,18.6,0c2.3-1.3,3.6-3,3.6-4.8s-1.3-3.5-3.6-4.8L270.9,62.2c-0.5-0.3-0.6-0.9-0.4-1.3c3-5.7,0.3-11.8-7.1-16.1
		c-6.8-3.9-16.5-5.7-25.9-4.7l10.5,6.1c0.3,0.2,0.5,0.5,0.5,0.9v7c0,0.4-0.2,0.7-0.5,0.9l-8.5,4.9c-0.2,0.1-0.3,0.1-0.5,0.1h-12.1
		c-0.2,0-0.3,0-0.5-0.1l-12.1-7c-1.9,5.3,0.9,10.8,7.7,14.7c7.7,4.5,19,6.1,29.5,4.2c0.2,0,0.5,0,0.7,0.1L376.4,143.6z"/>
	<ellipse class="st1" cx="386.1" cy="138.9" rx="3.8" ry="2.2"/>
	<path class="st1" d="M373.7,132.7c-0.2,0-0.3,0-0.5-0.1L265.5,70.4c-0.5-0.3-0.6-0.9-0.4-1.4c0.3-0.5,0.9-0.6,1.4-0.4c0,0,0,0,0,0
		l107.8,62.2c0.5,0.3,0.6,0.9,0.4,1.4C374.4,132.6,374.1,132.7,373.7,132.7L373.7,132.7z"/>
	<path class="st3" d="M386.1,159.7c-3.5,0.1-6.9-0.7-10-2.3c-0.1,0-0.2,0-0.4-0.1L251.5,85.5c-0.6,0.1-1.2,0.2-1.8,0.3
		c-0.1,0-0.3,0-0.4,0.1l-0.3,0c-0.5,0.1-1,0.1-1.5,0.2c-0.2,0-0.3,0-0.5,0l-0.2,0c-0.5,0-0.9,0.1-1.4,0.1l-0.8,0c-0.5,0-0.9,0-1.4,0
		h-0.8c-0.5,0-1,0-1.5,0l-0.7,0c-0.5,0-1-0.1-1.6-0.1l-0.6,0c-0.6-0.1-1.2-0.1-1.7-0.2l-0.4,0c-5.3-0.6-10.3-2.2-15-4.8
		c-5.9-3.4-9.2-8-9.3-13c0-0.1,0-0.1,0-0.2V56.2c0-0.1,0-0.1,0-0.2c0-1.7,0.5-3.5,1.2-5c0.2-0.5,0.8-0.7,1.3-0.5c0,0,0,0,0.1,0
		l12.8,7.4h11.6l2.7-1.6l-7.4-4.3c-0.3-0.2-0.5-0.5-0.5-0.9V39.5c0-0.5,0.4-0.9,0.8-1c10.7-1.8,22.2,0,30.1,4.5
		c5.9,3.4,9.2,8,9.3,12.9c0,0.1,0,0.1,0,0.2v5.4l122.6,70.8c2.9,1.7,4.6,4,4.6,6.5v11.8c0,2.5-1.6,4.8-4.6,6.5
		c-0.4,0.2-0.8,0.4-1.2,0.6c-0.1,0-0.2,0.1-0.3,0.1l-0.1,0.1c-0.3,0.1-0.6,0.2-0.9,0.4c-0.1,0-0.3,0.1-0.4,0.1l-0.1,0
		c-0.3,0.1-0.5,0.2-0.8,0.3c-0.1,0-0.3,0.1-0.4,0.1l-0.1,0c-0.3,0.1-0.6,0.1-0.9,0.2c-0.2,0-0.4,0.1-0.6,0.1
		c-0.3,0.1-0.6,0.1-0.9,0.1c-0.3,0-0.4,0.1-0.6,0.1c-0.3,0-0.6,0.1-0.9,0.1l-0.1,0c-0.1,0-0.3,0-0.4,0c-0.3,0-0.7,0-1,0h-0.1
		C386.4,159.7,386.2,159.7,386.1,159.7z M376.4,155.3c0.1,0,0.2,0,0.3,0.1c2.9,1.5,6.2,2.3,9.4,2.2l0.4,0c0.3,0,0.6,0,1,0l0.5,0
		c0.3,0,0.6-0.1,0.9-0.1l0.4-0.1c0.4-0.1,0.6-0.1,0.9-0.1c0.2,0,0.3-0.1,0.5-0.1c0.3-0.1,0.5-0.1,0.8-0.2l0.1,0
		c0.1,0,0.3-0.1,0.4-0.1c0.3-0.1,0.5-0.2,0.8-0.2l0.1,0c0.1,0,0.2-0.1,0.3-0.1c0.3-0.1,0.5-0.2,0.8-0.3l0.4-0.2
		c0.4-0.2,0.7-0.3,1.1-0.5c2.3-1.3,3.6-3,3.6-4.8v-11.8c0-1.8-1.3-3.5-3.6-4.8L272.3,63c-0.3-0.2-0.5-0.5-0.5-0.9v-5.8
		c0-0.1,0-0.1,0-0.2c0-4.3-2.9-8.3-8.3-11.4c-7.3-4.2-17.9-5.9-28-4.4v10.3l8.4,4.9c0.5,0.3,0.6,0.9,0.4,1.4
		c-0.1,0.2-0.2,0.3-0.4,0.4l-4.4,2.6c-0.2,0.1-0.3,0.1-0.5,0.1h-12.1c-0.2,0-0.3,0-0.5-0.1l-12.1-7c-0.4,1.1-0.6,2.2-0.6,3.3
		c0,0.1,0,0.1,0,0.2v11.5c0,0,0,0.1,0,0.2c0,4.3,2.9,8.3,8.3,11.4c4.4,2.4,9.2,4,14.2,4.5l0.4,0c0.6,0.1,1.1,0.1,1.7,0.2l0.6,0
		c0.5,0,1,0.1,1.5,0.1l0.7,0c0.5,0,0.9,0,1.4,0h0.7c0.5,0,0.9,0,1.4,0l0.8,0c0.4,0,0.9-0.1,1.4-0.1l0.3,0c0.2,0,0.3,0,0.5,0
		c0.5,0,0.9-0.1,1.4-0.2l0.6-0.1c0.7-0.1,1.4-0.2,2-0.3c0.2,0,0.5,0,0.7,0.1L376.4,155.3z"/>
	<path class="st0" d="M148.9,126l-1-1c-1-0.8-2.3-1.3-3.6-1.2H127c-1.3-0.1-2.6,0.4-3.6,1.2l-1,1h-8.2v10.4c0,0.5,0.2,0.9,0.6,1.2
		l8.6,8.6c1,0.8,2.3,1.3,3.6,1.2h17.3c1.3,0.1,2.6-0.4,3.6-1.2l8.6-8.6c0.3-0.3,0.5-0.8,0.6-1.2V126H148.9z"/>
	<path class="st0" d="M147.9,125c-1-0.8-2.3-1.3-3.6-1.2H127c-0.6,0-1.1,0.1-1.7,0.2v23.3c0.6,0.1,1.1,0.2,1.7,0.2h17.3
		c1.3,0.1,2.6-0.4,3.6-1.2l8.6-8.6c0.3-0.3,0.5-0.8,0.6-1.2V126h-8.2L147.9,125z"/>
	<path class="st1" d="M144.2,148.5H127c-1.6,0.1-3.1-0.5-4.4-1.5l-8.6-8.6c-0.5-0.5-0.8-1.2-0.9-1.9V126c0-0.6,0.4-1,1-1h7.8
		l0.7-0.7c1.2-1,2.8-1.6,4.4-1.5h17.3c1.6-0.1,3.1,0.5,4.4,1.5l0.7,0.7h7.8c0.6,0,1,0.4,1,1v10.4c0,0.7-0.3,1.4-0.9,1.9l-8.6,8.6
		C147.4,148,145.8,148.5,144.2,148.5z M115.1,127v9.4c0,0.2,0.1,0.4,0.3,0.5l8.6,8.6c0.8,0.7,1.9,1,2.9,0.9h17.3
		c1.1,0.1,2.1-0.3,2.9-0.9l8.6-8.6c0.1-0.1,0.2-0.3,0.3-0.5V127h-7.2c-0.3,0-0.5-0.1-0.7-0.3l-1-1c-0.8-0.7-1.9-1-2.9-0.9H127
		c-1.1-0.1-2.1,0.3-2.9,0.9l-1,1c-0.2,0.2-0.4,0.3-0.7,0.3H115.1z"/>
	<path class="st2" d="M123.3,135.8l-8.6-8.6c-0.7-0.6-0.8-1.6-0.2-2.2c0.1-0.1,0.1-0.1,0.2-0.2l8.6-8.6c1-0.8,2.3-1.3,3.6-1.2h17.3
		c1.3-0.1,2.6,0.4,3.6,1.2l8.6,8.6c0.7,0.6,0.8,1.6,0.2,2.2c-0.1,0.1-0.1,0.1-0.2,0.2l-8.6,8.6c-1,0.8-2.3,1.3-3.6,1.2H127
		C125.7,137.1,124.4,136.7,123.3,135.8z"/>
	<path class="st1" d="M144.2,138.1H127c-1.6,0.1-3.1-0.5-4.4-1.5l-8.6-8.6c-1.1-0.9-1.2-2.6-0.2-3.6c0.1-0.1,0.1-0.1,0.2-0.2
		l8.6-8.6c1.2-1,2.8-1.6,4.4-1.5h17.3c1.6-0.1,3.1,0.5,4.4,1.5l8.6,8.6c1.1,0.9,1.2,2.6,0.2,3.6c-0.1,0.1-0.1,0.1-0.2,0.2l-8.6,8.6
		C147.4,137.6,145.8,138.1,144.2,138.1z M127,115.9c-1.1-0.1-2.1,0.3-2.9,0.9l-8.6,8.6c-0.3,0.2-0.4,0.6-0.2,0.9
		c0,0.1,0.1,0.1,0.2,0.2l8.6,8.6c0.8,0.7,1.9,1,2.9,0.9h17.3c1.1,0.1,2.1-0.3,2.9-0.9l8.6-8.6c0.3-0.2,0.4-0.6,0.2-0.9
		c0-0.1-0.1-0.1-0.2-0.2l-8.6-8.6c-0.8-0.7-1.9-1-2.9-0.9H127z"/>
	<ellipse class="st0" cx="135.6" cy="126" rx="9" ry="5.2"/>
	<path class="st0" d="M144.6,126c0-2.9-4-5.2-9-5.2v10.4C140.6,131.2,144.6,128.9,144.6,126z"/>
	<path class="st1" d="M135.6,132.2c-5.6,0-10-2.7-10-6.2s4.4-6.2,10-6.2s10,2.7,10,6.2S141.2,132.2,135.6,132.2z M135.6,121.8
		c-4.4,0-8,1.9-8,4.2c0,2.3,3.7,4.2,8,4.2s8-1.9,8-4.2S140,121.8,135.6,121.8z"/>
	<path class="st3" d="M144.2,148.5H127c-0.3,0-0.6,0-0.9-0.1l-0.1,0c-1.2-0.1-2.4-0.6-3.3-1.4l-8.6-8.6c-0.5-0.5-0.8-1.2-0.9-1.9
		V126c0-0.7,0.3-1.4,0.9-1.9l8.6-8.6c1.2-1,2.8-1.6,4.4-1.5h17.3c1.6-0.1,3.1,0.5,4.4,1.5l8.6,8.6c0.5,0.5,0.8,1.2,0.9,1.9v10.4
		c0,0.5-0.2,1.1-0.5,1.5c-0.1,0.1-0.2,0.3-0.4,0.4l-8.6,8.6C147.4,148,145.8,148.5,144.2,148.5z M127,115.9
		c-1.1-0.1-2.1,0.3-2.9,0.9l-8.6,8.6c-0.2,0.1-0.2,0.3-0.3,0.5v10.4c0,0.2,0.1,0.4,0.3,0.5l8.6,8.6c0.6,0.5,1.4,0.8,2.1,0.9l0.1,0
		c0.2,0,0.5,0,0.7,0h17.3c1.1,0.1,2.1-0.3,2.9-0.9l8.6-8.6c0-0.1,0.1-0.1,0.1-0.2c0.1-0.1,0.1-0.2,0.1-0.3V126
		c0-0.2-0.1-0.4-0.3-0.5l-8.6-8.6c-0.8-0.7-1.9-1-2.9-0.9L127,115.9z"/>
	<path class="st2" d="M201.5,88.8L201.5,88.8c-0.9-0.5-2-0.4-2.8,0.2c-2.4,1.4-4.4,5.1-4.4,8.3c0,1.8,0.6,3,1.5,3.5l0,0l47.4,27.4
		l5.7-12.1L201.5,88.8"/>
	<path class="st0" d="M241.7,127.3l3.3-5.8l-49.6-28.7c-0.7,1.4-1,2.9-1.1,4.4c0,1.8,0.6,3,1.5,3.5l0,0L241.7,127.3z"/>
	<path class="st1" d="M204.8,107.1c-0.2,0-0.3,0-0.5-0.1c-1.3-0.7-2-2.3-2-4.4c0-3.6,2.1-7.6,4.9-9.2c1.1-0.8,2.6-0.9,3.8-0.3l0,0
		c0.5,0.2,0.7,0.8,0.4,1.3v0c-0.2,0.5-0.8,0.7-1.3,0.4c0,0,0,0-0.1,0c-0.6-0.3-1.3-0.2-1.8,0.2c-2.1,1.2-3.9,4.6-3.9,7.5
		c-0.1,1,0.2,2,1,2.7c0.5,0.3,0.6,0.9,0.4,1.4C205.5,106.9,205.2,107.1,204.8,107.1L204.8,107.1z"/>
	<path class="st1" d="M213.9,112.3c-0.2,0-0.3,0-0.5-0.1c-1.3-0.7-2-2.3-2-4.4c0-3.6,2.1-7.6,4.9-9.2c1.1-0.8,2.6-0.9,3.8-0.3l0,0
		c0.5,0.2,0.7,0.8,0.4,1.3v0c-0.2,0.5-0.8,0.7-1.3,0.4c0,0,0,0-0.1,0c-0.6-0.3-1.3-0.2-1.8,0.2c-2.1,1.2-3.9,4.6-3.9,7.5
		c-0.1,1,0.3,2,1,2.7c0.5,0.3,0.6,0.9,0.4,1.4C214.5,112.1,214.2,112.3,213.9,112.3L213.9,112.3z"/>
	<path class="st1" d="M222.9,117.5c-0.2,0-0.3,0-0.5-0.1c-1.3-0.7-2-2.3-2-4.4c0-3.6,2.1-7.6,4.9-9.2c1.1-0.8,2.6-0.9,3.8-0.3l0,0
		c0.5,0.2,0.7,0.8,0.4,1.3v0c-0.2,0.5-0.8,0.7-1.3,0.4c0,0,0,0-0.1,0c-0.6-0.3-1.3-0.2-1.8,0.2c-2.1,1.2-3.9,4.6-3.9,7.5
		c-0.1,1,0.3,2,1,2.7c0.5,0.3,0.6,0.9,0.4,1.4C223.6,117.3,223.2,117.5,222.9,117.5L222.9,117.5z"/>
	<path class="st1" d="M231.9,122.7c-0.2,0-0.3,0-0.5-0.1c-1.3-0.7-2-2.3-2-4.4c0-3.6,2.1-7.6,4.9-9.2c1.1-0.8,2.6-0.9,3.8-0.3l0,0
		c0.5,0.2,0.7,0.8,0.4,1.3v0c-0.2,0.5-0.8,0.7-1.3,0.4c0,0,0,0-0.1,0c-0.6-0.3-1.3-0.2-1.8,0.2c-2.1,1.2-3.9,4.6-3.9,7.5
		c-0.1,1,0.3,2,1,2.7c0.5,0.3,0.6,0.9,0.4,1.4C232.6,122.5,232.3,122.7,231.9,122.7L231.9,122.7z"/>
	<path class="st3" d="M243.2,129.2c-0.2,0-0.3,0-0.5-0.1l-47.4-27.4c0,0-0.1,0-0.1-0.1c-1.3-1-2-2.6-1.9-4.3c0-3.6,2.1-7.6,4.9-9.2
		c1.1-0.7,2.5-0.9,3.7-0.3c0,0,0.1,0,0.1,0.1l47.4,27.4c0.5,0.3,0.6,0.8,0.4,1.3l-5.7,12.1c-0.1,0.3-0.3,0.4-0.6,0.5
		C243.4,129.2,243.3,129.2,243.2,129.2z M196.4,100l46.4,26.8l4.8-10.3l-46.5-26.9c0,0-0.1,0-0.1,0c-0.6-0.3-1.3-0.2-1.8,0.2
		c-2.1,1.2-3.9,4.6-3.9,7.5C195.2,98.3,195.5,99.3,196.4,100C196.3,100,196.4,100,196.4,100z"/>
	<path class="st0" d="M255.7,123.7l4.1-8.8l-8.1-4.7v0c-1.5-0.9-3.5-0.8-5.6,0.4c-4.7,2.7-8.6,10.1-8.6,16.4c0,3.5,1.2,5.9,3,6.9v0
		l8.1,4.7l4.1-8.7C254,128.1,255,126,255.7,123.7z"/>
	<path class="st0" d="M239.6,118.4c-1.3,2.7-2,5.7-2.1,8.7c0,3.5,1.2,5.9,3,6.9v0l8.1,4.7l4.1-8.7c0.7-1,1.2-2,1.7-3L239.6,118.4z"
		/>
	<path class="st1" d="M248.5,139.8c-0.2,0-0.3,0-0.5-0.1l-8.1-4.7c0,0-0.1-0.1-0.1-0.1c-2.1-1.3-3.3-4.1-3.3-7.7
		c0-6.6,4.1-14.4,9.1-17.3c2.3-1.3,4.6-1.5,6.5-0.5c0.1,0,0.1,0,0.2,0.1l8.1,4.7c0.4,0.3,0.6,0.8,0.4,1.3l-4.1,8.7
		c-0.7,2.3-1.7,4.5-3.1,6.5l-4.1,8.7c-0.1,0.3-0.3,0.4-0.6,0.5C248.8,139.8,248.6,139.8,248.5,139.8z M241.1,133.3l7,4.1l3.7-7.8
		c0,0,0-0.1,0.1-0.1c1.3-1.9,2.2-3.9,2.9-6c0,0,0-0.1,0.1-0.1l3.7-7.9l-7.2-4.1c0,0-0.1,0-0.1-0.1c-1.3-0.7-2.9-0.6-4.6,0.4
		c-4.5,2.6-8.1,9.6-8.1,15.6c0,2.9,0.9,5.2,2.5,6.1C241,133.2,241,133.3,241.1,133.3L241.1,133.3z"/>
	
		<ellipse transform="matrix(0.3916 -0.9202 0.9202 0.3916 37.9106 311.0669)" class="st0" cx="254.2" cy="126.9" rx="13.2" ry="7.5"/>
	<path class="st1" d="M250.8,140.4c-0.9,0-1.9-0.2-2.7-0.7c-2.2-1.3-3.5-4.1-3.5-7.8c0-6.6,4.1-14.4,9.1-17.3
		c2.4-1.4,4.7-1.5,6.6-0.5c2.2,1.3,3.5,4.1,3.5,7.8c0,6.6-4.1,14.4-9.1,17.3C253.5,139.9,252.1,140.3,250.8,140.4z M257.6,115.4
		c-1,0-2,0.4-2.9,0.9c-4.5,2.6-8.1,9.6-8.1,15.6c0,3,0.9,5.2,2.5,6.1c1.3,0.7,2.9,0.6,4.6-0.5c4.5-2.6,8.1-9.6,8.1-15.6
		c0-3-0.9-5.2-2.5-6.1C258.8,115.5,258.2,115.4,257.6,115.4z"/>
	<path class="st1" d="M254.2,130.9c-0.6,0-1-0.4-1-1v-6.1c0-0.6,0.4-1,1-1s1,0.4,1,1v6.1C255.2,130.5,254.7,130.9,254.2,130.9z"/>
	<path class="st3" d="M250.8,140.3c-0.9,0-1.8-0.2-2.6-0.6c0,0-0.1,0-0.1-0.1l-8.1-4.7c0,0-0.1-0.1-0.1-0.1
		c-2.1-1.3-3.3-4.1-3.3-7.7c0-0.4,0-0.8,0-1.2c0-0.1,0-0.2,0-0.3l0-0.2c0-0.3,0-0.5,0.1-0.7c0-0.2,0.1-0.3,0.1-0.5l0-0.2
		c0-0.2,0.1-0.3,0.1-0.5c0-0.2,0.1-0.5,0.2-0.7l0.1-0.5c0.1-0.3,0.1-0.5,0.2-0.8l0.1-0.4c0.1-0.3,0.2-0.6,0.3-0.9l0.1-0.3
		c0.1-0.3,0.2-0.6,0.4-0.9l0.1-0.1c1.7-4.1,4.4-7.5,7.3-9.2c2.3-1.3,4.6-1.5,6.5-0.5c0.1,0,0.1,0,0.1,0.1l8.1,4.7
		c0,0,0.1,0.1,0.1,0.1c2.1,1.3,3.3,4.1,3.3,7.7c0,6.6-4.1,14.4-9.1,17.3C253.5,139.9,252.1,140.3,250.8,140.3z M248.9,137.8
		c0,0,0.1,0,0.1,0.1c1.3,0.7,2.9,0.6,4.6-0.4c4.5-2.6,8.1-9.6,8.1-15.6c0-3-0.9-5.2-2.5-6.1c0,0-0.1-0.1-0.1-0.1l-7.8-4.5
		c0,0-0.1,0-0.1-0.1c-1.3-0.7-2.9-0.6-4.6,0.4c-2.5,1.5-5,4.5-6.5,8.2l-1-0.2l0.9,0.4c-0.1,0.3-0.2,0.6-0.3,0.9l-0.1,0.2
		c-0.1,0.3-0.2,0.5-0.3,0.8l-0.1,0.3c-0.1,0.2-0.1,0.5-0.2,0.7l-0.1,0.4c0,0.2-0.1,0.4-0.1,0.6c0,0.1,0,0.3-0.1,0.4l0,0.2
		c0,0.1,0,0.3-0.1,0.4c0,0.2,0,0.4-0.1,0.6l0,0.5c0,0.4,0,0.7,0,1.1c0,2.9,0.9,5.2,2.5,6.1c0,0,0.1,0.1,0.1,0.1L248.9,137.8z"/>
	<path class="st3" d="M122.7,101.2c-0.2,0-0.3,0-0.5-0.1l-5.2-3c-0.5-0.3-0.6-0.9-0.4-1.4s0.9-0.6,1.4-0.4l5.2,3
		c0.5,0.3,0.6,0.9,0.4,1.4C123.4,101.1,123,101.2,122.7,101.2z"/>
	<ellipse transform="matrix(0.9202 -0.3916 0.3916 0.9202 -18.863 66.4214)" class="st2" cx="153.4" cy="79.5" rx="8.2" ry="14.5"/>
	<path class="st3" d="M157.2,94.2c-1.5,0-3-0.5-4.3-1.3c-5.5-3.2-10-11.7-10-19c0-4,1.4-7.1,3.8-8.5c2-1.2,4.6-1,7.2,0.5
		c5.5,3.2,10,11.7,10,19c0,4-1.4,7.1-3.8,8.5C159.2,94,158.2,94.2,157.2,94.2z M149.7,66.7c-0.7,0-1.3,0.2-1.9,0.5
		c-1.8,1-2.8,3.5-2.8,6.8c0,6.6,4,14.4,9,17.2c2,1.1,3.8,1.3,5.2,0.5c1.8-1,2.8-3.5,2.8-6.8c0-6.6-4-14.4-9-17.2
		C152,67.1,150.8,66.7,149.7,66.7z"/>
	<path class="st1" d="M193,64.3c0-7.1-5.8-12.9-12.9-13c-2.3,0-4.6,0.6-6.5,1.8l0,0L150,66.8l11,23.4l25.5-14.6l0,0
		C190.5,73.2,193,68.9,193,64.3z"/>
	<path class="st3" d="M161,91.2c-0.4,0-0.7-0.2-0.9-0.6l-11-23.4c-0.2-0.5,0-1,0.4-1.3L173,52.2c0,0,0.1-0.1,0.1-0.1
		c6.7-3.8,15.2-1.5,19,5.1c3.8,6.7,1.5,15.2-5.1,19c0,0-0.1,0.1-0.1,0.1L161.5,91C161.3,91.1,161.2,91.2,161,91.2z M151.3,67.2
		l10.2,21.6l24.4-14c0,0,0.1-0.1,0.1-0.1c5.8-3.2,7.9-10.5,4.7-16.2c-3.2-5.8-10.5-7.9-16.2-4.7c-0.1,0.1-0.3,0.1-0.4,0.2
		c0,0-0.1,0-0.1,0.1L151.3,67.2z"/>
	<path class="st0" d="M183.3,59.6c0-3.6-2.9-6.5-6.5-6.5c-1.2,0-2.3,0.3-3.3,0.9l0,0l-26.5,15.3l5.6,11.8L180,65.2l0,0
		C182.1,64.1,183.3,61.9,183.3,59.6z"/>
	<path class="st3" d="M161,91.2c-0.4,0-0.7-0.2-0.9-0.6l-11-23.4c-0.2-0.5,0-1,0.4-1.3L173,52.2c0,0,0.1-0.1,0.1-0.1
		c6.7-3.8,15.2-1.5,19,5.1c3.8,6.7,1.5,15.2-5.1,19c0,0-0.1,0.1-0.1,0.1L161.5,91C161.3,91.1,161.2,91.2,161,91.2z M151.3,67.2
		l10.2,21.6l24.4-14c0,0,0.1-0.1,0.1-0.1c5.8-3.2,7.9-10.5,4.7-16.2c-3.2-5.8-10.5-7.9-16.2-4.7c-0.1,0.1-0.3,0.1-0.4,0.2
		c0,0-0.1,0-0.1,0.1L151.3,67.2z"/>
	<path class="st1" d="M164,85.6c0-7.8-4.8-16.9-10.6-20.3c-2.7-1.5-5.1-1.6-6.9-0.5l0,0l-5.8,3.4l2.2,4.7c0,0.2,0,0.4,0,0.5
		c0,7.3,4.2,15.7,9.5,19.6l2.2,4.6l5.8-3.4l0,0C162.6,92.9,164,89.9,164,85.6z"/>
	<path class="st2" d="M154.5,98.5c-0.1,0-0.2,0-0.3,0c-0.3-0.1-0.5-0.3-0.6-0.5l-2.1-4.4c-5.6-4.1-9.7-12.7-9.7-20.2
		c0-0.1,0-0.2,0-0.3l-2.1-4.4c-0.2-0.5,0-1,0.4-1.3l5.8-3.4c0.1,0,0.1-0.1,0.2-0.1c2.2-1.2,5-1,7.8,0.6c6.1,3.5,11.1,13,11.1,21.1
		c0,4.4-1.5,7.8-4,9.3c0,0-0.1,0.1-0.1,0.1l-5.8,3.4C154.9,98.5,154.7,98.5,154.5,98.5z M141.9,68.5l1.8,3.8
		c0.1,0.1,0.1,0.3,0.1,0.5l0,0.2c0,0.1,0,0.2,0,0.3c0,6.9,4,15.1,9.1,18.8c0.1,0.1,0.3,0.2,0.3,0.4l1.7,3.7l4.8-2.7
		c0,0,0.1-0.1,0.1-0.1c2-1.2,3.2-4,3.2-7.7c0-7.5-4.5-16.2-10.1-19.4c-2.3-1.3-4.3-1.5-5.9-0.5c0,0-0.1,0-0.1,0.1L141.9,68.5z"/>
	<path class="st0" d="M153.4,65.3c-2.7-1.5-5.1-1.6-6.9-0.5l0,0l-5.8,3.4l2.2,4.7c0,0.2,0,0.4,0,0.5c0.1,3.8,1,7.6,2.7,11.1l16-9.3
		C159.6,70.9,156.7,67.2,153.4,65.3z"/>
	<path class="st2" d="M154.5,98.5c-0.1,0-0.2,0-0.3,0c-0.3-0.1-0.5-0.3-0.6-0.5l-2.1-4.4c-5.6-4.1-9.7-12.7-9.7-20.2
		c0-0.1,0-0.2,0-0.3l-2.1-4.4c-0.2-0.5,0-1,0.4-1.3l5.8-3.4c0.1,0,0.1-0.1,0.2-0.1c2.2-1.2,5-1,7.8,0.6c6.1,3.5,11.1,13,11.1,21.1
		c0,4.4-1.5,7.8-4,9.3c0,0-0.1,0.1-0.1,0.1l-5.8,3.4C154.9,98.5,154.7,98.5,154.5,98.5z M141.9,68.5l1.8,3.8
		c0.1,0.1,0.1,0.3,0.1,0.5l0,0.2c0,0.1,0,0.2,0,0.3c0,6.9,4,15.1,9.1,18.8c0.1,0.1,0.3,0.2,0.3,0.4l1.7,3.7l4.8-2.7
		c0,0,0.1-0.1,0.1-0.1c2-1.2,3.2-4,3.2-7.7c0-7.5-4.5-16.2-10.1-19.4c-2.3-1.3-4.3-1.5-5.9-0.5c0,0-0.1,0-0.1,0.1L141.9,68.5z"/>
	
		<ellipse transform="matrix(0.9202 -0.3916 0.3916 0.9202 -20.6521 64.4015)" class="st0" cx="147.6" cy="82.8" rx="9.2" ry="16.3"/>
	<path class="st2" d="M151.8,99.3c-1.7,0-3.3-0.5-4.7-1.4c-6.1-3.5-11.1-13-11.1-21.1c0-4.5,1.5-7.9,4.2-9.4
		c2.2-1.3,5.1-1.1,7.9,0.6c6.1,3.5,11.1,13,11.1,21.1c0,4.5-1.5,7.9-4.2,9.4C154,99,152.9,99.3,151.8,99.3z M143.4,68.4
		c-0.8,0-1.5,0.2-2.2,0.6c-2,1.2-3.2,4-3.2,7.7c0,7.5,4.5,16.2,10.1,19.4c2.2,1.3,4.3,1.5,5.9,0.6c2-1.2,3.2-4,3.2-7.7
		c0-7.5-4.5-16.2-10.1-19.4C146,68.9,144.7,68.5,143.4,68.4L143.4,68.4z"/>
	<path class="st3" d="M151.8,99.3c-1.7,0-3.3-0.5-4.7-1.4c-6.1-3.5-11.1-13-11.1-21.1c0-4.4,1.5-7.8,4-9.3c0,0,0.1-0.1,0.1-0.1
		l5.8-3.4c0.1,0,0.1-0.1,0.2-0.1c2.2-1.2,5-1,7.8,0.6c6.1,3.5,11.1,13,11.1,21.1c0,4.4-1.5,7.8-4,9.3c0,0-0.1,0.1-0.1,0.1l-5.8,3.4
		c-0.1,0-0.1,0.1-0.2,0.1C153.9,99,152.9,99.3,151.8,99.3z M141.3,68.9c0,0-0.1,0.1-0.1,0.1c-2,1.2-3.2,4-3.2,7.7
		c0,7.5,4.5,16.2,10.1,19.4c2.3,1.3,4.3,1.5,5.9,0.5c0,0,0.1-0.1,0.2-0.1l5.6-3.2c0,0,0.1-0.1,0.1-0.1c2-1.2,3.2-4,3.2-7.7
		c0-7.5-4.5-16.2-10.1-19.4c-2.3-1.3-4.3-1.5-5.9-0.5c0,0-0.1,0-0.1,0.1L141.3,68.9z"/>
	<path class="st0" d="M149.8,84.6c0-2-1-3.8-2.6-5c-0.5-0.4-1.2-0.4-1.7-0.1l0,0l-27.1,15.7l0,0c-0.1,0-0.2,0.1-0.2,0.2v0l-9.9,9
		l0,0c-0.5,0.4-0.5,1.1-0.1,1.6c0.3,0.3,0.8,0.5,1.2,0.3l0,0l12.1-3.7l0,0c0.1,0,0.2-0.1,0.3-0.1l0,0l27.1-15.7l0,0
		C149.5,86.2,149.9,85.4,149.8,84.6z"/>
	<path class="st3" d="M109,107.3c-1.2,0-2.2-1-2.2-2.2c0-0.6,0.2-1.1,0.6-1.5c0,0,0.1-0.1,0.1-0.1l9.9-9c0,0,0.1-0.1,0.1-0.1
		c0.1-0.1,0.1-0.1,0.2-0.2c0,0,0.1,0,0.1-0.1L145,78.6c0,0,0.1,0,0.1,0c0.8-0.4,1.8-0.3,2.6,0.2c1.9,1.3,3.1,3.5,3.1,5.9
		c0.1,1.1-0.4,2.2-1.3,2.9c0,0-0.1,0-0.1,0.1l-27.1,15.7c0,0-0.1,0-0.1,0c-0.1,0.1-0.2,0.1-0.3,0.1c0,0-0.1,0-0.1,0l-12.1,3.7
		c0,0-0.1,0-0.1,0C109.4,107.2,109.2,107.3,109,107.3z M109,104.9C109,105,108.9,105,109,104.9c-0.1,0.1-0.1,0.1-0.1,0.2
		c0,0.1,0.1,0.2,0.2,0.2c0,0,0.1,0,0.1,0l12-3.7c0,0,0,0,0.1,0c0,0,0.1,0,0.1-0.1l27-15.6c0,0,0,0,0.1,0c0.2-0.1,0.4-0.5,0.4-1.3
		c0-1.6-0.8-3.2-2.1-4.1c-0.1-0.1-0.5-0.3-0.7-0.1c0,0,0,0-0.1,0l-27,15.6c0,0-0.1,0-0.1,0.1c0,0-0.1,0.1-0.1,0.1L109,104.9z"/>
	<path class="st2" d="M147.2,79.6c-0.5-0.4-1.2-0.4-1.7-0.1l0,0l-27.1,15.7l0,0c-0.1,0-0.2,0.1-0.2,0.2v0l-9.9,9l0,0
		c-0.5,0.4-0.5,1.2-0.1,1.6c0,0,0,0.1,0.1,0.1l41.1-23.7C148.9,81.2,148.1,80.2,147.2,79.6z"/>
	<path class="st3" d="M109,107.3c-1.2,0-2.2-1-2.2-2.2c0-0.6,0.2-1.1,0.6-1.5c0,0,0.1-0.1,0.1-0.1l9.9-9c0,0,0.1-0.1,0.1-0.1
		c0.1-0.1,0.1-0.1,0.2-0.2c0,0,0.1,0,0.1-0.1L145,78.6c0,0,0.1,0,0.1,0c0.8-0.4,1.8-0.3,2.6,0.2c1.9,1.3,3.1,3.5,3.1,5.9
		c0.1,1.1-0.4,2.2-1.3,2.9c0,0-0.1,0-0.1,0.1l-27.1,15.7c0,0-0.1,0-0.1,0c-0.1,0.1-0.2,0.1-0.3,0.1c0,0-0.1,0-0.1,0l-12.1,3.7
		c0,0-0.1,0-0.1,0C109.4,107.2,109.2,107.3,109,107.3z M109,104.9C109,105,108.9,105,109,104.9c-0.1,0.1-0.1,0.1-0.1,0.2
		c0,0.1,0.1,0.2,0.2,0.2c0,0,0.1,0,0.1,0l12-3.7c0,0,0,0,0.1,0c0,0,0.1,0,0.1-0.1l27-15.6c0,0,0,0,0.1,0c0.2-0.1,0.4-0.5,0.4-1.3
		c0-1.6-0.8-3.2-2.1-4.1c-0.1-0.1-0.5-0.3-0.7-0.1c0,0,0,0-0.1,0l-27,15.6c0,0-0.1,0-0.1,0.1c0,0-0.1,0.1-0.1,0.1L109,104.9z"/>
	<path class="st2" d="M74.2,120.1L74.2,120.1c0.9-0.5,2-0.4,2.8,0.2c2.4,1.4,4.4,5.1,4.4,8.3c0,1.8-0.6,3-1.5,3.5v0l-20.3,11.7
		l-5.7-12.1L74.2,120.1"/>
	<path class="st0" d="M61.1,143l-3.3-5.8l22.5-13c0.7,1.4,1,2.9,1.1,4.4c0,1.8-0.6,3-1.5,3.5v0L61.1,143z"/>
	<path class="st1" d="M79.9,133.2c-0.6,0-1-0.4-1-1c0-0.4,0.2-0.7,0.5-0.9c0.8-0.7,1.1-1.7,1-2.7c0-2.8-1.8-6.3-3.9-7.5
		c-0.5-0.4-1.2-0.5-1.8-0.2c-0.5,0.3-1.1,0.1-1.3-0.4s-0.1-1.1,0.4-1.3c1.2-0.6,2.7-0.5,3.8,0.3c2.7,1.6,4.9,5.6,4.9,9.2
		c0,2.1-0.7,3.6-2,4.4C80.2,133.1,80.1,133.2,79.9,133.2z"/>
	<path class="st1" d="M79.9,133.2c-0.6,0-1-0.4-1-1c0-0.4,0.2-0.7,0.5-0.9c0.8-0.7,1.1-1.7,1-2.7c0-2.8-1.8-6.3-3.9-7.5
		c-0.5-0.4-1.2-0.5-1.8-0.2c-0.5,0.3-1.1,0.1-1.4-0.4s-0.1-1.1,0.4-1.4l0,0c1.2-0.6,2.6-0.5,3.8,0.3c2.7,1.6,4.9,5.6,4.9,9.2
		c0,2.1-0.7,3.6-2,4.4C80.2,133.1,80.1,133.2,79.9,133.2z"/>
	<path class="st1" d="M70.8,138.4c-0.6,0-1-0.4-1-1c0-0.4,0.2-0.7,0.5-0.9c0.8-0.7,1.1-1.7,1-2.7c0-2.8-1.8-6.3-3.9-7.5
		c-0.5-0.4-1.2-0.5-1.8-0.2c-0.5,0.3-1.1,0.1-1.4-0.4c-0.3-0.5-0.1-1.1,0.4-1.4l0,0c1.2-0.6,2.6-0.5,3.8,0.3
		c2.7,1.6,4.9,5.6,4.9,9.2c0,2.1-0.7,3.6-2,4.4C71.2,138.3,71,138.4,70.8,138.4z"/>
	<path class="st3" d="M59.6,144.9c-0.1,0-0.2,0-0.3,0c-0.3-0.1-0.5-0.3-0.6-0.5l-5.7-12.1c-0.2-0.5,0-1,0.4-1.3l20.3-11.7
		c0,0,0.1,0,0.1-0.1c1.2-0.6,2.6-0.5,3.7,0.3c2.7,1.6,4.9,5.6,4.9,9.2c0.1,1.7-0.6,3.3-1.9,4.3c0,0-0.1,0.1-0.1,0.1l-20.3,11.7
		C59.9,144.9,59.7,144.9,59.6,144.9z M55.1,132.2l4.8,10.3l19.3-11.1c0,0,0.1,0,0.1-0.1c0.8-0.7,1.1-1.7,1-2.7
		c0-2.8-1.8-6.3-3.9-7.5c-0.5-0.4-1.2-0.5-1.8-0.2c0,0-0.1,0-0.1,0L55.1,132.2z"/>
	<path class="st2" d="M47.1,139.4l-4.1-8.8l8.1-4.7l0,0c1.5-0.9,3.5-0.8,5.6,0.4c4.7,2.7,8.6,10.1,8.6,16.4c0,3.5-1.2,5.9-3,6.9v0
		l-8.1,4.7l-4.1-8.7C48.8,143.8,47.8,141.7,47.1,139.4z"/>
	<path class="st0" d="M63.2,134.1c1.3,2.7,2,5.7,2.1,8.7c0,3.5-1.2,5.9-3,6.9v0l-8.1,4.7l-4.1-8.7c-0.7-1-1.2-2-1.7-3L63.2,134.1z"
		/>
	<path class="st1" d="M54.2,155.5c-0.4,0-0.7-0.2-0.9-0.6l-4.1-8.7c-1.3-2-2.4-4.2-3.1-6.5l-4.1-8.7c-0.2-0.5,0-1,0.4-1.3l8.1-4.7
		c0,0,0.1-0.1,0.2-0.1c1.9-1,4.1-0.8,6.5,0.5c5,2.9,9.1,10.6,9.1,17.3c0,3.6-1.2,6.4-3.3,7.7c0,0-0.1,0.1-0.1,0.1l-8.1,4.7
		C54.6,155.4,54.4,155.5,54.2,155.5z M44.3,131.1L48,139c0,0,0,0.1,0.1,0.1c0.6,2.1,1.6,4.2,2.9,6c0,0,0.1,0.1,0.1,0.1l3.7,7.8
		l7-4.1c0,0,0.1-0.1,0.1-0.1c1.6-0.9,2.5-3.1,2.5-6.1c0-6-3.6-13-8.1-15.6c-1.8-1-3.4-1.2-4.6-0.4c0,0-0.1,0-0.1,0.1L44.3,131.1z"/>
	<ellipse transform="matrix(0.9202 -0.3916 0.3916 0.9202 -51.942 30.4091)" class="st0" cx="48.6" cy="142.6" rx="7.5" ry="13.2"/>
	<path class="st1" d="M52,156.1c-1.4,0-2.7-0.4-3.9-1.2c-5-2.9-9.1-10.6-9.1-17.3c0-3.7,1.3-6.5,3.5-7.8c1.9-1.1,4.2-0.9,6.6,0.5
		c5,2.9,9.1,10.6,9.1,17.3c0,3.7-1.3,6.5-3.5,7.8C53.9,155.8,53,156.1,52,156.1z M45.2,131.1c-0.6,0-1.2,0.1-1.7,0.4
		c-1.6,0.9-2.5,3.1-2.5,6.1c0,6,3.6,13,8.1,15.6c1.8,1,3.4,1.2,4.6,0.5c1.6-0.9,2.5-3.1,2.5-6.1c0-6-3.6-13-8.1-15.6
		C47.2,131.4,46.2,131.1,45.2,131.1L45.2,131.1z"/>
	<path class="st1" d="M48.6,146.6c-0.6,0-1-0.4-1-1v-6c0-0.6,0.4-1,1-1s1,0.4,1,1v6C49.6,146.1,49.1,146.6,48.6,146.6z"/>
	<path class="st1" d="M50.8,144.9c-0.2,0-0.3,0-0.5-0.1l-4.5-2.6c-0.5-0.3-0.6-0.9-0.4-1.4s0.9-0.6,1.4-0.4l4.5,2.6
		c0.5,0.3,0.6,0.9,0.4,1.4C51.5,144.7,51.2,144.9,50.8,144.9z"/>
	<path class="st3" d="M52,156c-1.4,0-2.7-0.4-3.9-1.2c-5-2.9-9.1-10.6-9.1-17.3c0-3.6,1.2-6.4,3.3-7.7c0,0,0.1-0.1,0.1-0.1l8.1-4.7
		c0,0,0.1-0.1,0.2-0.1c1.9-1,4.1-0.8,6.5,0.5c2.9,1.7,5.6,5,7.3,9.1l0.1,0.1c0.1,0.3,0.2,0.6,0.4,0.9l0.1,0.3
		c0.1,0.3,0.2,0.6,0.3,0.9l0.1,0.4c0.1,0.3,0.2,0.5,0.2,0.8l0.1,0.5c0.1,0.2,0.1,0.5,0.2,0.7c0,0.2,0.1,0.3,0.1,0.5l0,0.2
		c0,0.2,0.1,0.3,0.1,0.5c0,0.2,0.1,0.4,0.1,0.6l0,0.2c0,0.1,0,0.2,0,0.3c0,0.4,0,0.8,0,1.2c0,3.6-1.2,6.4-3.3,7.7
		c0,0-0.1,0.1-0.1,0.1l-8.1,4.7c0,0-0.1,0.1-0.1,0.1C53.8,155.8,52.9,156.1,52,156z M43.6,131.4c0,0-0.1,0.1-0.1,0.1
		c-1.6,0.9-2.5,3.1-2.5,6.1c0,6,3.6,13,8.1,15.6c1.8,1,3.4,1.2,4.6,0.4c0,0,0.1,0,0.1-0.1l7.9-4.5c0,0,0.1-0.1,0.1-0.1
		c1.6-0.9,2.5-3.1,2.5-6.1c0-0.4,0-0.7,0-1.1c0-0.1,0-0.2,0-0.3l0-0.2l0-0.1c0-0.2,0-0.4-0.1-0.6c0-0.1,0-0.3-0.1-0.4l0-0.1
		c0-0.2-0.1-0.4-0.1-0.5c0-0.2-0.1-0.4-0.1-0.6l-0.1-0.4c-0.1-0.2-0.1-0.5-0.2-0.7l-0.1-0.3c-0.1-0.3-0.2-0.5-0.3-0.8l-0.1-0.2
		c-0.1-0.3-0.2-0.6-0.3-0.9l0-0.1c-1.6-3.7-4-6.8-6.5-8.2c-1.8-1-3.4-1.2-4.6-0.4c0,0-0.1,0-0.1,0.1L43.6,131.4z"/>
	<polygon class="st2" points="116.7,162.4 103.4,154.7 90.1,162.4 103.4,170.1 	"/>
	<path class="st1" d="M103.4,171.1c-0.2,0-0.3,0-0.5-0.1l-13.3-7.7c-0.5-0.3-0.6-0.9-0.4-1.4c0.1-0.2,0.2-0.3,0.4-0.4l13.3-7.7
		c0.3-0.2,0.7-0.2,1,0l13.3,7.7c0.5,0.3,0.6,0.9,0.4,1.4c-0.1,0.2-0.2,0.3-0.4,0.4l-13.3,7.7C103.8,171.1,103.6,171.1,103.4,171.1z
		 M92.1,162.4l11.3,6.5l11.3-6.5l-11.3-6.5L92.1,162.4z"/>
	<polygon class="st0" points="116.7,180.2 103.4,187.9 103.4,170.1 116.7,162.4 	"/>
	<path class="st1" d="M103.4,188.9c-0.6,0-1-0.4-1-1v-17.7c0-0.4,0.2-0.7,0.5-0.9l13.3-7.7c0.5-0.3,1.1-0.1,1.4,0.4
		c0.1,0.2,0.1,0.3,0.1,0.5v17.7c0,0.4-0.2,0.7-0.5,0.9l-13.3,7.7C103.8,188.8,103.6,188.9,103.4,188.9z M104.4,170.7v15.4l11.3-6.5
		v-15.4L104.4,170.7z"/>
	<polygon class="st0" points="90.1,180.2 103.4,187.9 103.4,170.1 90.1,162.4 	"/>
	<path class="st1" d="M103.4,188.9c-0.2,0-0.3,0-0.5-0.1L89.6,181c-0.3-0.2-0.5-0.5-0.5-0.9v-17.7c0-0.6,0.4-1,1-1
		c0.2,0,0.3,0,0.5,0.1l13.3,7.7c0.3,0.2,0.5,0.5,0.5,0.9v17.7C104.4,188.4,104,188.9,103.4,188.9z M91.1,179.6l11.3,6.5v-15.4
		l-11.3-6.5V179.6z"/>
	<path class="st3" d="M103.4,188.9c-0.2,0-0.3,0-0.5-0.1L89.6,181c-0.3-0.2-0.5-0.5-0.5-0.9v-17.7c0-0.4,0.2-0.7,0.5-0.9l13.3-7.7
		c0.3-0.2,0.7-0.2,1,0l13.3,7.7c0.3,0.2,0.5,0.5,0.5,0.9v17.7c0,0.4-0.2,0.7-0.5,0.9l-13.3,7.7C103.8,188.8,103.6,188.9,103.4,188.9
		z M91.1,179.6l12.3,7.1l12.3-7.1V163l-12.3-7.1L91.1,163V179.6z"/>
	<path class="st0" d="M277.4,177.9h-24l0,9.7c0,3.8,5.4,6.9,12,6.9s12-3.1,12-6.9L277.4,177.9z"/>
	<path class="st0" d="M265.4,177.9v16.7h0c6.6,0,12-3.1,12-6.9l0-9.7H265.4z"/>
	<path class="st1" d="M265.4,195.6c-7.3,0-13-3.5-13-7.9l0-9.7c0-0.6,0.4-1,1-1h24c0.6,0,1,0.4,1,1l0,9.7
		C278.4,192.1,272.7,195.6,265.4,195.6z M254.4,178.9l0,8.7c0,3.2,5,5.9,11,5.9s11-2.7,11-5.9l0-8.7H254.4z"/>
	<ellipse class="st0" cx="265.4" cy="177.9" rx="12" ry="6.9"/>
	<path class="st1" d="M265.4,185.9c-7.3,0-13-3.5-13-7.9s5.7-7.9,13-7.9s13,3.5,13,7.9S272.7,185.9,265.4,185.9z M265.4,172
		c-6,0-11,2.7-11,5.9s5,5.9,11,5.9s11-2.7,11-5.9S271.4,172,265.4,172L265.4,172z"/>
	<path class="st3" d="M265.4,195.6L265.4,195.6c-7.3,0-13-3.5-13-7.9l0-9.7c0-4.4,5.7-7.9,13-7.9s13,3.5,13,7.9l0,9.7
		C278.4,192.1,272.7,195.6,265.4,195.6z M265.4,172c-6,0-11,2.7-11,5.9l0,9.7c0,3.2,5,5.9,11,5.9h0c6,0,11-2.7,11-5.9l0-9.7l0,0
		C276.4,174.7,271.4,172,265.4,172z"/>
	<path class="st0" d="M259.4,159.5v18.5c0,1.9,2.7,3.4,6,3.4s6-1.5,6-3.4v-18.5H259.4z"/>
	<path class="st0" d="M265.4,181.4c3.3,0,6-1.5,6-3.4v-18.5h-6V181.4z"/>
	<path class="st1" d="M265.4,173.2c-3.9,0-7-2-7-4.4c0-0.6,0.4-1,1-1s1,0.4,1,1c0,1.2,2.1,2.4,5,2.4s5-1.3,5-2.4c0-0.6,0.4-1,1-1
		s1,0.4,1,1C272.4,171.2,269.3,173.2,265.4,173.2z"/>
	<path class="st0" d="M269.1,181.7c-0.6,0-1-0.4-1-1c0-0.4,0.2-0.8,0.6-0.9c1.1-0.5,1.7-1.2,1.7-1.8c0-0.6,0.4-1,1-1s1,0.4,1,1
		c0,1.5-1.1,2.8-2.9,3.6C269.3,181.6,269.2,181.7,269.1,181.7z"/>
	<path class="st0" d="M261.7,181.7c-0.1,0-0.3,0-0.4-0.1c-1.8-0.8-2.9-2.2-2.9-3.6c0-0.6,0.4-1,1-1s1,0.4,1,1c0,0.6,0.6,1.3,1.7,1.8
		c0.5,0.2,0.7,0.8,0.5,1.3C262.5,181.4,262.1,181.7,261.7,181.7L261.7,181.7z"/>
	<path class="st1" d="M265.4,182.4c-1.4,0-2.8-0.3-4.1-0.8c-0.5-0.2-0.7-0.8-0.5-1.3s0.8-0.7,1.3-0.5c2.1,0.8,4.4,0.8,6.5,0
		c0.5-0.2,1.1,0,1.3,0.5s0,1.1-0.5,1.3C268.2,182.1,266.8,182.4,265.4,182.4z"/>
	<ellipse class="st2" cx="265.4" cy="159.5" rx="6" ry="3.4"/>
	<path class="st3" d="M271.4,160.5c-0.6,0-1-0.4-1-1c0-1.2-2.1-2.4-5-2.4s-5,1.3-5,2.4c0,0.6-0.4,1-1,1s-1-0.4-1-1
		c0-2.5,3.1-4.4,7-4.4s7,2,7,4.4C272.4,160,271.9,160.5,271.4,160.5z"/>
	<path class="st1" d="M265.4,163.9c-3.9,0-7-2-7-4.5c0-0.6,0.4-1,1-1s1,0.4,1,1c0,1.2,2.1,2.5,5,2.5s5-1.3,5-2.5c0-0.6,0.4-1,1-1
		s1,0.4,1,1C272.4,162,269.3,163.9,265.4,163.9z"/>
	<path class="st3" d="M259.4,178.9c-0.6,0-1-0.4-1-1v-18.5c0-0.6,0.4-1,1-1s1,0.4,1,1v18.5C260.4,178.5,260,178.9,259.4,178.9z"/>
	<path class="st3" d="M271.4,178.9c-0.6,0-1-0.4-1-1v-18.5c0-0.6,0.4-1,1-1s1,0.4,1,1v18.5C272.4,178.5,271.9,178.9,271.4,178.9z"/>
	<path class="st2" d="M291.6,217c0,2.1,1.1,4.1,2.8,5.3c0.5,0.4,1.2,0.4,1.8,0.1l0,0l55.5-32.1l0,0c0.1-0.1,0.2-0.1,0.2-0.2l0,0
		l10.4-9.5l0,0c0.5-0.4,0.6-1.2,0.1-1.7c-0.3-0.4-0.8-0.5-1.3-0.4l0,0l-12.8,3.9l0,0c-0.1,0-0.2,0.1-0.3,0.1l0,0l-55.5,32.1l0,0
		C291.9,215.2,291.5,216.1,291.6,217z"/>
	<path class="st0" d="M294.4,222.3c0.5,0.4,1.2,0.4,1.8,0.1l0,0l55.5-32.1l0,0c0.1-0.1,0.2-0.1,0.2-0.2l0,0l10.4-9.5l0,0
		c0.5-0.4,0.5-1.2,0.1-1.7c0,0-0.1-0.1-0.1-0.1l-70.3,40.6C292.6,220.6,293.4,221.6,294.4,222.3z"/>
	<path class="st3" d="M295.5,223.6c-0.6,0-1.1-0.2-1.6-0.5c-2-1.4-3.2-3.7-3.3-6.2c-0.1-1.2,0.4-2.3,1.4-3c0,0,0.1,0,0.1-0.1
		l55.5-32.1c0,0,0.1,0,0.1-0.1c0.1-0.1,0.2-0.1,0.3-0.1c0,0,0.1,0,0.1,0l12.8-3.9c0,0,0.1,0,0.1,0c1.2-0.3,2.4,0.4,2.7,1.6
		c0.2,0.8,0,1.5-0.6,2.1c0,0-0.1,0.1-0.1,0.1l-10.4,9.5c0,0-0.1,0.1-0.1,0.1c-0.1,0.1-0.1,0.1-0.2,0.2c0,0-0.1,0-0.1,0.1l-55.5,32.1
		c0,0-0.1,0-0.1,0C296.3,223.5,295.9,223.6,295.5,223.6z M293.1,215.5C293.1,215.6,293.1,215.6,293.1,215.5
		c-0.3,0.2-0.5,0.6-0.5,1.4c0,1.7,0.9,3.4,2.3,4.4c0.2,0.1,0.6,0.3,0.8,0.1c0,0,0,0,0.1,0l55.4-32c0,0,0.1,0,0.1-0.1
		c0,0,0.1-0.1,0.1-0.1l10.3-9.4c0,0,0,0,0.1-0.1c0,0,0.1-0.1,0.1-0.2c0-0.1-0.1-0.2-0.2-0.2c0,0-0.1,0-0.1,0l-12.7,3.9
		c0,0,0,0-0.1,0c0,0-0.1,0-0.1,0.1L293.1,215.5z"/>
	<path class="st1" d="M301,228.6c0-9.2-5.6-19.9-12.5-23.9c-3.1-1.8-6-1.9-8.2-0.6l0,0l-9.5,5.5l2.6,5.5c0,0.2,0,0.4,0,0.6
		c0,8.6,4.9,18.6,11.2,23.1l2.6,5.5l9.5-5.5l0,0C299.3,237.2,301,233.6,301,228.6z"/>
	<path class="st2" d="M287.2,245.2c-0.1,0-0.2,0-0.3,0c-0.3-0.1-0.5-0.3-0.6-0.5l-2.5-5.2c-6.5-4.8-11.4-14.9-11.4-23.7
		c0-0.1,0-0.3,0-0.4l0,0l-2.5-5.3c-0.2-0.5,0-1,0.4-1.3l9.5-5.5c0.1,0,0.1-0.1,0.2-0.1c2.6-1.4,5.8-1.1,9,0.7
		c7.2,4.1,13,15.3,13,24.8c0,5.1-1.7,9.1-4.7,10.9c0,0-0.1,0.1-0.2,0.1l-9.5,5.5C287.5,245.2,287.4,245.2,287.2,245.2z M272.1,209.9
		l2.2,4.7c0.1,0.1,0.1,0.3,0.1,0.5l0,0.3c0,0.1,0,0.2,0,0.3c0,8.2,4.7,17.9,10.8,22.3c0.1,0.1,0.3,0.2,0.3,0.4l2.1,4.5l8.4-4.8
		c0,0,0.1-0.1,0.1-0.1c2.4-1.4,3.8-4.8,3.8-9.2c0-8.9-5.4-19.2-12-23c-2.7-1.5-5.2-1.8-7.2-0.6c-0.1,0-0.1,0.1-0.2,0.1L272.1,209.9z
		"/>
	<path class="st0" d="M288.5,204.7c-3.1-1.8-6-1.9-8.2-0.6l0,0l-9.5,5.5l2.6,5.5c0,0.2,0,0.4,0,0.6c0.1,4.5,1.2,9,3.2,13l21.5-12.4
		C295.8,211.3,292.4,206.9,288.5,204.7z"/>
	<path class="st2" d="M287.2,245.2c-0.1,0-0.2,0-0.3,0c-0.3-0.1-0.5-0.3-0.6-0.5l-2.5-5.2c-6.5-4.8-11.4-14.9-11.4-23.7
		c0-0.1,0-0.3,0-0.4l0,0l-2.5-5.3c-0.2-0.5,0-1,0.4-1.3l9.5-5.5c0.1,0,0.1-0.1,0.2-0.1c2.6-1.4,5.8-1.1,9,0.7
		c7.2,4.1,13,15.3,13,24.8c0,5.1-1.7,9.1-4.7,10.9c0,0-0.1,0.1-0.2,0.1l-9.5,5.5C287.5,245.2,287.4,245.2,287.2,245.2z M272.1,209.9
		l2.2,4.7c0.1,0.1,0.1,0.3,0.1,0.5l0,0.3c0,0.1,0,0.2,0,0.3c0,8.2,4.7,17.9,10.8,22.3c0.1,0.1,0.3,0.2,0.3,0.4l2.1,4.5l8.4-4.8
		c0,0,0.1-0.1,0.1-0.1c2.4-1.4,3.8-4.8,3.8-9.2c0-8.9-5.4-19.2-12-23c-2.7-1.5-5.2-1.8-7.2-0.6c-0.1,0-0.1,0.1-0.2,0.1L272.1,209.9z
		"/>
	
		<ellipse transform="matrix(0.9202 -0.3916 0.3916 0.9202 -66.5518 127.3583)" class="st1" cx="279" cy="226.9" rx="10.9" ry="19.2"/>
	<path class="st2" d="M284,246c-1.9-0.1-3.8-0.6-5.5-1.6c-7.2-4.1-13-15.3-13-24.8c0-5.2,1.8-9.2,4.8-11c2.6-1.5,5.9-1.3,9.2,0.7
		c7.2,4.1,13,15.3,13,24.8c0,5.2-1.8,9.2-4.8,11C286.6,245.7,285.3,246.1,284,246z M274,209.7c-1,0-1.9,0.2-2.7,0.7
		c-2.4,1.4-3.8,4.8-3.8,9.3c0,8.9,5.4,19.2,12,23c2.7,1.5,5.2,1.8,7.2,0.7c2.4-1.4,3.8-4.8,3.8-9.3c0-8.9-5.4-19.2-12-23
		C277.2,210.2,275.6,209.7,274,209.7z"/>
	<path class="st3" d="M284,246c-1.9-0.1-3.8-0.6-5.5-1.6c-7.2-4.1-13-15.3-13-24.8c0-5.2,1.7-9.1,4.7-10.9c0,0,0.1,0,0.1-0.1
		l9.5-5.5c0.1,0,0.1-0.1,0.2-0.1c2.6-1.4,5.8-1.1,9,0.7c0.4,0.2,0.8,0.5,1.3,0.8l0.2,0.1c0.4,0.3,0.8,0.6,1.1,0.9l0.2,0.2
		c0.4,0.3,0.7,0.6,1.1,1l0.2,0.2c0.4,0.4,0.7,0.7,1,1.1l0.1,0.1c0.4,0.4,0.7,0.8,1,1.2l0.1,0.1c0.3,0.4,0.6,0.8,0.9,1.3l0.2,0.3
		c0.3,0.4,0.5,0.8,0.8,1.3l0.2,0.4c0.3,0.4,0.5,0.9,0.7,1.3l0.2,0.3c0.2,0.5,0.5,0.9,0.7,1.4c1.9,4,2.9,8.3,3,12.7
		c0,5.1-1.7,9.1-4.7,10.9c0,0-0.1,0.1-0.2,0.1l-9.5,5.5c0,0-0.1,0-0.1,0.1C286.5,245.7,285.2,246.1,284,246z M271.4,210.3
		C271.4,210.4,271.4,210.4,271.4,210.3c-2.5,1.5-3.9,4.8-3.9,9.3c0,8.9,5.4,19.2,12,23c2.7,1.5,5.2,1.8,7.2,0.7c0,0,0.1,0,0.1,0
		l9.3-5.3c0,0,0.1-0.1,0.1-0.1c2.4-1.4,3.8-4.8,3.8-9.2c-0.1-4.1-1-8.2-2.8-11.9c-0.2-0.4-0.4-0.9-0.7-1.3l-0.2-0.3
		c-0.2-0.4-0.5-0.8-0.7-1.2l-0.2-0.3c-0.2-0.4-0.5-0.8-0.8-1.2l-0.2-0.3c-0.3-0.4-0.6-0.8-0.9-1.2l-0.1-0.1
		c-0.3-0.4-0.6-0.7-0.9-1.1l-0.1-0.1c-0.4-0.4-0.7-0.8-1-1.1l-0.2-0.2c-0.3-0.3-0.6-0.6-1-0.9l-0.2-0.1c-0.4-0.3-0.7-0.6-1-0.8
		l-0.1-0.1c-0.4-0.3-0.7-0.5-1.1-0.7c-2.7-1.5-5.2-1.8-7.2-0.6c-0.1,0-0.1,0.1-0.2,0.1L271.4,210.3z"/>
	<path class="st1" d="M235.3,237.1L235.3,237.1l37.7-21.7v0c1.5-0.9,3.4-0.8,5.5,0.4c4.7,2.7,8.4,9.9,8.4,16.1
		c0,3.7-1.4,6.2-3.5,7.1l-35.3,20.5l0,0c-6.2,3.6-14.1,1.4-17.6-4.7S229.2,240.7,235.3,237.1L235.3,237.1z"/>
	<path class="st3" d="M241.7,262.2c-7.7,0-13.9-6.2-13.9-13.9c0-4.9,2.6-9.5,6.9-12c0,0,0.1-0.1,0.1-0.1l37.7-21.7
		c0,0,0.1,0,0.1-0.1c1.8-1,4.1-0.8,6.4,0.5c4.9,2.8,8.9,10.4,8.9,17c0,4-1.5,6.9-4,8l-35.3,20.4c0,0-0.1,0.1-0.1,0.1
		C246.5,261.6,244.1,262.2,241.7,262.2z M236,237.9c0,0-0.1,0.1-0.1,0.1c-5.7,3.2-7.7,10.5-4.5,16.2c3.2,5.7,10.5,7.7,16.2,4.5
		c0,0,0.1-0.1,0.1-0.1c0,0,0.1,0,0.1-0.1l35.2-20.4c0,0,0.1,0,0.1-0.1c1.8-0.7,2.8-3,2.8-6.1c0-5.9-3.6-12.7-7.9-15.2
		c-1.7-1-3.3-1.1-4.5-0.4c0,0-0.1,0-0.1,0.1L236,237.9z"/>
	<path class="st1" d="M235.3,237.1L235.3,237.1l37.7-21.7v0c1.5-0.9,3.4-0.8,5.5,0.4c4.7,2.7,8.4,9.9,8.4,16.1
		c0,3.7-1.4,6.2-3.5,7.1l-35.3,20.5l0,0c-6.2,3.6-14.1,1.4-17.6-4.7S229.2,240.7,235.3,237.1L235.3,237.1z"/>
	<path class="st3" d="M241.7,262.2c-7.7,0-13.9-6.2-13.9-13.9c0-4.9,2.6-9.5,6.9-12c0,0,0.1-0.1,0.1-0.1l37.7-21.7
		c0,0,0.1,0,0.1-0.1c1.8-1,4.1-0.8,6.4,0.5c4.9,2.8,8.9,10.4,8.9,17c0,4-1.5,6.9-4,8l-35.3,20.4c0,0-0.1,0.1-0.1,0.1
		C246.5,261.6,244.1,262.2,241.7,262.2z M236,237.9c0,0-0.1,0.1-0.1,0.1c-5.7,3.2-7.7,10.5-4.5,16.2c3.2,5.7,10.5,7.7,16.2,4.5
		c0,0,0.1-0.1,0.1-0.1c0,0,0.1,0,0.1-0.1l35.2-20.4c0,0,0.1,0,0.1-0.1c1.8-0.7,2.8-3,2.8-6.1c0-5.9-3.6-12.7-7.9-15.2
		c-1.7-1-3.3-1.1-4.5-0.4c0,0-0.1,0-0.1,0.1L236,237.9z"/>
	<path class="st0" d="M235.3,238.4L235.3,238.4l40.8-23.5c0.9,0.2,1.7,0.5,2.4,0.9c2.8,1.6,5.3,4.9,6.8,8.6l-43.6,25.2l0,0
		c-3.1,1.8-7.1,0.7-8.9-2.4C231.2,244.2,232.2,240.2,235.3,238.4L235.3,238.4L235.3,238.4z"/>
	<path class="st3" d="M241.7,262.2c-7.7,0-13.9-6.2-13.9-13.9c0-4.9,2.6-9.5,6.9-12c0,0,0.1-0.1,0.1-0.1l37.7-21.7
		c0,0,0.1,0,0.1-0.1c1.8-1,4.1-0.8,6.4,0.5c4.9,2.8,8.9,10.4,8.9,17c0,4-1.5,6.9-4,8l-35.3,20.4c0,0-0.1,0.1-0.1,0.1
		C246.5,261.6,244.1,262.2,241.7,262.2z M236,237.9c0,0-0.1,0.1-0.1,0.1c-5.7,3.2-7.7,10.5-4.5,16.2c3.2,5.7,10.5,7.7,16.2,4.5
		c0,0,0.1-0.1,0.1-0.1c0,0,0.1,0,0.1-0.1l35.2-20.4c0,0,0.1,0,0.1-0.1c1.8-0.7,2.8-3,2.8-6.1c0-5.9-3.6-12.7-7.9-15.2
		c-1.7-1-3.3-1.1-4.5-0.4c0,0-0.1,0-0.1,0.1L236,237.9z"/>
	<polygon class="st0" points="209.3,140.1 195.2,121.3 195.2,148.3 	"/>
	<path class="st1" d="M195.2,149.3c-0.6,0-1-0.4-1-1v-27c0-0.6,0.4-1,1-1c0.3,0,0.6,0.1,0.8,0.4l14.1,18.9c0.3,0.4,0.2,1.1-0.2,1.4
		c0,0-0.1,0-0.1,0.1l-14.1,8.2C195.5,149.2,195.3,149.3,195.2,149.3z M196.2,124.3v22.3l11.7-6.7L196.2,124.3z"/>
	<polygon class="st2" points="181,140.1 195.2,121.3 195.2,148.3 	"/>
	<path class="st1" d="M195.2,149.3c-0.2,0-0.3,0-0.5-0.1l-14.1-8.2c-0.5-0.3-0.6-0.9-0.4-1.4c0,0,0-0.1,0.1-0.1l14.1-18.9
		c0.3-0.4,1-0.5,1.4-0.2c0.3,0.2,0.4,0.5,0.4,0.8v27C196.2,148.8,195.7,149.3,195.2,149.3L195.2,149.3z M182.5,139.8l11.7,6.7v-22.3
		L182.5,139.8z"/>
	<path class="st3" d="M195.2,149.3c-0.2,0-0.3,0-0.5-0.1l-14.1-8.2c-0.5-0.3-0.6-0.9-0.4-1.4c0,0,0-0.1,0.1-0.1l14.1-18.9
		c0.4-0.4,1-0.5,1.5-0.1c0.1,0,0.1,0.1,0.1,0.1l14.1,18.9c0.3,0.4,0.2,1.1-0.2,1.4c0,0-0.1,0-0.1,0.1l-14.1,8.2
		C195.5,149.2,195.3,149.3,195.2,149.3z M182.5,139.8l12.7,7.3l12.7-7.3l-12.7-16.9L182.5,139.8z"/>
	<path class="st1" d="M327.9,174.8c-4,0.1-8-0.9-11.6-2.8L294,159.1c-3.3-1.9-5.1-4.5-5.1-7.3s1.8-5.4,5.1-7.3
		c6.4-3.7,16.8-3.7,23.2,0l0,0l22.3,12.9c3.3,1.9,5.1,4.5,5.1,7.3s-1.8,5.4-5.1,7.3C336,173.9,332,174.9,327.9,174.8z M305.6,143.8
		c-3.7-0.1-7.3,0.8-10.6,2.5c-2.6,1.5-4.1,3.5-4.1,5.5s1.5,4,4.1,5.5l22.3,12.9c5.8,3.4,15.3,3.4,21.2,0c2.6-1.5,4.1-3.5,4.1-5.5
		s-1.5-4-4.1-5.5l-22.3-12.9C313,144.6,309.3,143.7,305.6,143.8z"/>
	<path class="st0" d="M289.9,144.7v7.1c0,2.3,1.5,4.6,4.6,6.4c6.1,3.5,16.1,3.5,22.2,0c3.1-1.8,4.6-4.1,4.6-6.4v-7.1H289.9z"/>
	<path class="st1" d="M305.6,161.9c-4,0.1-8-0.9-11.6-2.8c-3.3-1.9-5.1-4.5-5.1-7.3v-7.1c0-0.6,0.4-1,1-1h31.4c0.6,0,1,0.4,1,1v7.1
		c0,2.8-1.8,5.4-5.1,7.3C313.6,161,309.7,162,305.6,161.9z M290.9,145.7v6.1c0,2,1.5,4,4.1,5.5c5.8,3.4,15.3,3.4,21.2,0
		c2.6-1.5,4.1-3.5,4.1-5.5v-6.1H290.9z"/>
	<path class="st0" d="M321.3,144.7v7.1c0,2.3-1.5,4.6-4.6,6.4c-3.4,1.8-7.2,2.7-11.1,2.7v-16.2H321.3z"/>
	<path class="st1" d="M305.6,161.9c-0.6,0-1-0.4-1-1v-16.2c0-0.6,0.4-1,1-1h15.7c0.6,0,1,0.4,1,1v7.1c0,2.8-1.8,5.4-5.1,7.3
		C313.7,161,309.7,162,305.6,161.9z M306.6,145.7v14.2c3.4-0.1,6.6-0.9,9.6-2.5c2.6-1.5,4.1-3.5,4.1-5.5v-6.1L306.6,145.7z"/>
	<path class="st0" d="M289.9,144.7v7.1c0,2.3,1.5,4.6,4.6,6.4c6.1,3.5,16.1,3.5,22.2,0c3.1-1.8,4.6-4.1,4.6-6.4v-7.1H289.9z"/>
	<path class="st1" d="M305.6,161.9c-4,0.1-8-0.9-11.6-2.8c-3.3-1.9-5.1-4.5-5.1-7.3v-7.1c0-0.6,0.4-1,1-1h31.4c0.6,0,1,0.4,1,1v7.1
		c0,2.8-1.8,5.4-5.1,7.3C313.6,161,309.7,162,305.6,161.9z M290.9,145.7v6.1c0,2,1.5,4,4.1,5.5c5.8,3.4,15.3,3.4,21.2,0
		c2.6-1.5,4.1-3.5,4.1-5.5v-6.1H290.9z"/>
	<path class="st0" d="M305.6,160.9c-3.9,0.1-7.7-0.8-11.1-2.7c-3.1-1.8-4.6-4.1-4.6-6.4v-7.1h15.7L305.6,160.9z"/>
	<path class="st1" d="M305.6,161.9c-4,0.1-8-0.9-11.6-2.8c-3.3-1.9-5.1-4.5-5.1-7.3v-7.1c0-0.6,0.4-1,1-1h31.4c0.6,0,1,0.4,1,1v7.1
		c0,2.8-1.8,5.4-5.1,7.3C313.6,161,309.7,162,305.6,161.9z M290.9,145.7v6.1c0,2,1.5,4,4.1,5.5c5.8,3.4,15.3,3.4,21.2,0
		c2.6-1.5,4.1-3.5,4.1-5.5v-6.1H290.9z"/>
	<ellipse class="st2" cx="305.6" cy="144.7" rx="15.7" ry="9.1"/>
	<path class="st1" d="M305.6,154.8c-4,0.1-8-0.9-11.6-2.8c-3.3-1.9-5.1-4.5-5.1-7.3s1.8-5.4,5.1-7.3c6.4-3.7,16.8-3.7,23.2,0
		c3.3,1.9,5.1,4.5,5.1,7.3s-1.8,5.4-5.1,7.3C313.6,153.9,309.7,154.9,305.6,154.8z M305.6,136.7c-3.7-0.1-7.3,0.8-10.6,2.5
		c-2.6,1.5-4.1,3.5-4.1,5.5s1.5,4,4.1,5.5c5.8,3.4,15.3,3.4,21.2,0c2.6-1.5,4.1-3.5,4.1-5.5s-1.5-4-4.1-5.5
		C313,137.5,309.3,136.6,305.6,136.7L305.6,136.7z"/>
	<path class="st3" d="M305.7,161.9c-2.7,0-5.4-0.4-8-1.2c-0.7-0.2-1.3-0.5-2-0.8c-0.6-0.2-1.1-0.5-1.7-0.8c-1.1-0.6-2.1-1.4-3-2.4
		l0,0l0,0c-1.3-1.3-2-3.1-2.1-4.9v-7.1c0-2.8,1.8-5.4,5.1-7.3c6.4-3.7,16.8-3.7,23.2,0c3.3,1.9,5.1,4.5,5.1,7.3v7.1
		c0,1.8-0.8,3.6-2.1,4.9l0,0c0,0,0,0,0,0.1c-0.9,0.9-1.9,1.7-3,2.3c-0.4,0.2-0.8,0.5-1.3,0.7c-0.9,0.4-1.8,0.8-2.7,1
		C310.8,161.6,308.2,161.9,305.7,161.9L305.7,161.9z M292.5,155.4c0.7,0.8,1.6,1.5,2.5,2c0.5,0.3,1,0.5,1.5,0.7
		c0.6,0.3,1.2,0.5,1.8,0.7c2.4,0.7,4.8,1.1,7.3,1.1c2.4,0,4.7-0.3,7-1c0.8-0.3,1.7-0.6,2.5-0.9c0.4-0.2,0.8-0.4,1.1-0.6
		c0.9-0.5,1.8-1.2,2.5-2c0,0,0,0,0,0c0.9-0.9,1.5-2.2,1.5-3.5v-7.1c0-2-1.5-4-4.1-5.5c-5.8-3.4-15.3-3.4-21.2,0
		c-2.6,1.5-4.1,3.5-4.1,5.5v7.1C291,153.2,291.5,154.4,292.5,155.4L292.5,155.4L292.5,155.4z"/>
	<path class="st4" d="M146.7,186v18.1c0,6,4,12.1,12,16.7c16,9.2,41.8,9.2,57.8,0c8-4.6,12-10.6,12-16.7l0,0V186H146.7z"/>
	<path class="st4" d="M146.7,186v18.1c0,6,4,12.1,12,16.7s18.4,6.9,28.9,6.9V186H146.7z"/>
	<ellipse class="st5" cx="187.6" cy="211.4" rx="36.1" ry="15.7"/>
	<ellipse class="st2" cx="187.6" cy="186" rx="40.9" ry="23.6"/>
	<path class="st6" d="M198.4,190.9c-1.5,0.9-1.4,2,0.1,2.9c1.5,0.9,3.4,0.9,5,0.1c1.4-0.8,1.3-2-0.1-2.9
		C201.8,190.1,200,190.1,198.4,190.9z"/>
	<path class="st6" d="M201.1,195.4c-1.1,0-2.1-0.3-3.1-0.8c-1-0.4-1.6-1.3-1.7-2.4c0.1-1,0.7-1.8,1.6-2.2l0,0c1.9-1,4.1-1,6,0.1
		c0.9,0.4,1.6,1.3,1.6,2.4c0,1-0.6,1.8-1.5,2.2C203.1,195.2,202.1,195.4,201.1,195.4z M200.8,191.3c-0.7,0-1.3,0.1-1.9,0.5l0,0
		c-0.5,0.3-0.6,0.5-0.6,0.5s0.1,0.3,0.7,0.6c1.2,0.7,2.7,0.7,4,0.1c0.4-0.2,0.5-0.5,0.5-0.5c0-0.1-0.2-0.4-0.6-0.6
		C202.2,191.5,201.5,191.3,200.8,191.3L200.8,191.3z"/>
	<path class="st6" d="M171.3,175.8c-0.8,0.5-0.8,1.2,0,1.7l17.2,9.4c0.9,0.4,1.9,0.4,2.8,0c0.8-0.4,0.8-1.2,0.1-1.6l-16.3-10
		c-0.9-0.5-2-0.5-2.9,0L171.3,175.8z"/>
	<path class="st6" d="M190,188.2c-0.6,0-1.3-0.1-1.9-0.4l-17.2-9.4c-0.7-0.3-1.1-1-1.1-1.7c0-0.7,0.4-1.4,1.1-1.7l1-0.6
		c1.2-0.6,2.7-0.6,3.9,0l16.3,10c0.6,0.3,1,1,1,1.7c0,0.7-0.5,1.4-1.1,1.7C191.3,188.1,190.7,188.2,190,188.2z M171.9,176.6
		l17.2,9.4c0.6,0.3,1.2,0.3,1.8,0l-16.2-10c-0.6-0.3-1.3-0.3-1.9,0L171.9,176.6z"/>
	<path class="st6" d="M187.6,210.6c-10.6,0-21.3-2.3-29.4-7c-8-4.6-12.5-10.9-12.5-17.6s4.4-12.9,12.5-17.6
		c16.2-9.4,42.6-9.4,58.8,0c8,4.6,12.5,10.9,12.5,17.6s-4.4,12.9-12.5,17.6C208.9,208.2,198.3,210.6,187.6,210.6z M187.6,163.4
		c-10.3,0-20.6,2.3-28.4,6.8c-7.4,4.3-11.5,9.9-11.5,15.8s4.1,11.5,11.5,15.8c15.7,9,41.1,9,56.8,0c7.4-4.3,11.5-9.9,11.5-15.8
		s-4.1-11.5-11.5-15.8C208.2,165.7,197.9,163.4,187.6,163.4z"/>
	<path class="st7" d="M187.6,228.7c-10.6,0-21.3-2.3-29.4-7c-8-4.6-12.5-10.9-12.5-17.6V186c0-6.7,4.4-12.9,12.5-17.6
		c16.2-9.4,42.6-9.4,58.8,0c8,4.6,12.5,10.9,12.5,17.6v18.1c0,6.7-4.4,12.9-12.5,17.6C208.9,226.4,198.3,228.7,187.6,228.7z
		 M187.6,163.4c-10.3,0-20.6,2.3-28.4,6.8c-7.4,4.3-11.5,9.9-11.5,15.8v18.1c0,5.9,4.1,11.5,11.5,15.8c15.7,9,41.1,9,56.8,0
		c7.4-4.3,11.5-9.9,11.5-15.8V186c0-5.9-4.1-11.5-11.5-15.8C208.2,165.7,197.9,163.4,187.6,163.4L187.6,163.4z"/>
	<rect class="st5" width="440" height="300"/>
	<rect class="st5" width="440" height="300"/>
</g>
</svg>
