<?xml version="1.0" encoding="utf-8"?>
<!-- Generator: Adobe Illustrator 24.1.2, SVG Export Plug-In . SVG Version: 6.00 Build 0)  -->
<svg version="1.1" id="Layer_1" xmlns="http://www.w3.org/2000/svg" xmlns:xlink="http://www.w3.org/1999/xlink" x="0px" y="0px"
	 width="128px" height="128px" viewBox="0 0 128 128" style="enable-background:new 0 0 128 128;" xml:space="preserve">
<style type="text/css">
	.st0{fill:#FFFFFF;}
	.st1{fill:#E9EBDF;}
	.st2{fill:#0E352C;}
	.st3{fill:#4D9987;}
	.st4{fill:#27ae60;}
	.st5{fill:none;}
</style>
<g>
	<path class="st0" d="M62.6,31.1l-17.1-9.9c-2.8-1.6-6.2-1.6-9,0l-17.2,9.9c-2.8,1.6-4.5,4.6-4.5,7.8v23.5c0,3.2,1.7,6.2,4.5,7.8
		l17.2,9.9c2.8,1.6,6.2,1.6,9,0l17.1-9.9c2.8-1.6,4.5-4.6,4.5-7.8V38.9C67.1,35.7,65.4,32.8,62.6,31.1z"/>
	<path class="st1" d="M25.1,73.6l11.4,6.5c2.8,1.6,6.2,1.6,9,0l2.6-1.5v-8.8h-23C25.1,69.8,25.1,73.6,25.1,73.6z"/>
	<path class="st1" d="M19,70.2l16.1,9.3c1.9,1.1,4.3,0.4,5.3-1.4c0.3-0.6,0.5-1.3,0.5-2V53.8c0-3-1.6-5.8-4.3-7.3l-16.1-9.3
		c-1.9-1.1-4.3-0.4-5.3,1.4c-0.3,0.6-0.5,1.3-0.5,2v22.3C14.7,65.8,16.4,68.6,19,70.2z"/>
	<path class="st1" d="M62.9,70.2l-16.1,9.3c-1.9,1.1-4.3,0.4-5.3-1.4c-0.3-0.6-0.5-1.3-0.5-2V53.8c0-3,1.6-5.8,4.3-7.3l16.1-9.3
		c1.9-1.1,4.3-0.4,5.3,1.4c0.3,0.6,0.5,1.3,0.5,2v22.3C67.1,65.8,65.5,68.6,62.9,70.2z"/>
	<path class="st2" d="M41,82.3c-1.7,0-3.5-0.5-5-1.3l-17.2-9.9c-3.1-1.8-5-5.1-5-8.7V38.9c0-3.6,1.9-6.9,5-8.7L36,20.4
		c3.1-1.8,6.9-1.8,10,0l17.1,9.9c3.1,1.8,5,5.1,5,8.7v23.5c0,3.6-1.9,6.9-5,8.7L46,81C44.5,81.9,42.7,82.3,41,82.3z M41,21
		c-1.4,0-2.8,0.4-4,1.1L19.8,32c-2.5,1.4-4,4.1-4,6.9v23.5c0,2.9,1.5,5.5,4,6.9l17.2,10c2.5,1.4,5.5,1.4,8,0l17.1-9.9
		c2.5-1.4,4-4.1,4-6.9V39c0-2.9-1.5-5.5-4-6.9l0,0L45,22.1C43.8,21.4,42.4,21,41,21z"/>
	<ellipse transform="matrix(0.3916 -0.9201 0.9201 0.3916 -36.4149 86.5783)" class="st3" cx="47.3" cy="70.8" rx="3.6" ry="2"/>
	<ellipse transform="matrix(0.3916 -0.9201 0.9201 0.3916 -5.1224 83.7169)" class="st3" cx="60.7" cy="45.7" rx="3.6" ry="2"/>
	<ellipse transform="matrix(0.3916 -0.9201 0.9201 0.3916 -20.7593 85.2013)" class="st3" cx="54" cy="58.3" rx="3.6" ry="2"/>
	<ellipse transform="matrix(0.9201 -0.3916 0.3916 0.9201 -18.3833 17.6247)" class="st3" cx="34" cy="53.9" rx="2" ry="3.6"/>
	<ellipse transform="matrix(0.9201 -0.3916 0.3916 0.9201 -22.8246 13.511)" class="st3" cx="21.7" cy="62.7" rx="2" ry="3.6"/>
	<ellipse class="st4" cx="40.9" cy="33.7" rx="3.5" ry="2"/>
	<path class="st0" d="M108.8,57.8l-17.1-9.9c-2.8-1.6-6.2-1.6-9,0l-17.2,9.9c-2.8,1.6-4.5,4.6-4.5,7.8v23.5c0,3.2,1.7,6.2,4.5,7.8
		l17.2,9.9c2.8,1.6,6.2,1.6,9,0l17.1-9.9c2.8-1.6,4.5-4.6,4.5-7.8V65.6C113.3,62.4,111.6,59.4,108.8,57.8z"/>
	<path class="st1" d="M71.3,100.3l11.4,6.5c2.8,1.6,6.2,1.6,9,0l2.6-1.5v-8.8h-23V100.3z"/>
	<path class="st1" d="M65.1,96.8l16.1,9.3c1.9,1.1,4.3,0.4,5.3-1.4c0.3-0.6,0.5-1.3,0.5-2V80.4c0-3-1.6-5.8-4.3-7.3l-16.1-9.3
		c-1.9-1.1-4.3-0.4-5.3,1.4c-0.3,0.6-0.5,1.3-0.5,2v22.3C60.9,92.5,62.5,95.3,65.1,96.8z"/>
	<path class="st1" d="M109,96.8l-16.1,9.3c-1.9,1.1-4.3,0.4-5.3-1.4c-0.3-0.6-0.5-1.3-0.5-2V80.4c0-3,1.6-5.8,4.3-7.3l16.1-9.3
		c1.9-1.1,4.3-0.4,5.3,1.4c0.3,0.6,0.5,1.3,0.5,2v22.3C113.3,92.5,111.6,95.3,109,96.8z"/>
	<path class="st2" d="M87.1,109c-1.7,0-3.5-0.5-5-1.3L65,97.8c-3.1-1.8-5-5.1-5-8.7V65.6c0-3.6,1.9-6.9,5-8.7L82.2,47
		c3.1-1.8,6.9-1.8,10,0l17.1,9.9c3.1,1.8,5,5.1,5,8.7v23.5c0,3.6-1.9,6.9-5,8.7l-17.1,9.9C90.6,108.5,88.9,109,87.1,109z M87.2,47.7
		c-1.4,0-2.8,0.4-4,1.1L66,58.7c-2.5,1.4-4,4.1-4,6.9v23.5c0,2.9,1.5,5.5,4,6.9l17.2,9.9c2.5,1.4,5.5,1.4,8,0l17.1-9.9
		c2.5-1.4,4-4.1,4-6.9V65.6c0-2.9-1.5-5.5-4-6.9l0,0l-17.1-9.9C89.9,48,88.6,47.7,87.2,47.7z"/>
	<ellipse transform="matrix(0.3916 -0.9201 0.9201 0.3916 -32.7942 145.3143)" class="st3" cx="93.5" cy="97.5" rx="3.6" ry="2"/>
	<ellipse transform="matrix(0.3916 -0.9201 0.9201 0.3916 -1.5208 142.3434)" class="st3" cx="106.9" cy="72.3" rx="3.6" ry="2"/>
	<ellipse transform="matrix(0.3916 -0.9201 0.9201 0.3916 -17.1582 143.829)" class="st3" cx="100.2" cy="84.9" rx="3.6" ry="2"/>
	<ellipse transform="matrix(0.9201 -0.3916 0.3916 0.9201 -25.1289 37.7981)" class="st3" cx="80.1" cy="80.5" rx="2" ry="3.6"/>
	<ellipse transform="matrix(0.9201 -0.3916 0.3916 0.9201 -29.5474 33.7173)" class="st3" cx="67.9" cy="89.3" rx="2" ry="3.6"/>
	<ellipse class="st4" cx="87.1" cy="60.4" rx="3.5" ry="2"/>
	<rect x="1" y="1" class="st5" width="126" height="126"/>
	<g>
		<rect class="st5" width="128" height="128"/>
	</g>
</g>
</svg>
