<?xml version="1.0" encoding="utf-8"?>
<!-- Generator: Adobe Illustrator 24.1.2, SVG Export Plug-In . SVG Version: 6.00 Build 0)  -->
<svg version="1.1" id="Layer_1" xmlns="http://www.w3.org/2000/svg" xmlns:xlink="http://www.w3.org/1999/xlink" x="0px" y="0px"
	 width="128px" height="128.6px" viewBox="0 0 128 128.6" style="enable-background:new 0 0 128 128.6;" xml:space="preserve">
<style type="text/css">
	.st0{fill:#E9EBDF;}
	.st1{fill:#0E352C;}
	.st2{fill:#4D9987;}
	.st3{fill:#FFFFFF;}
	.st4{fill:none;}
</style>
<g>
	<polygon class="st0" points="64,17.8 19.9,43.3 64,68.8 108.1,43.3 	"/>
	<path class="st1" d="M64,69.8c-0.2,0-0.3,0-0.5-0.1L19.4,44.2c-0.5-0.3-0.6-0.9-0.4-1.4c0.1-0.2,0.2-0.3,0.4-0.4l44.1-25.5
		c0.3-0.2,0.7-0.2,1,0l44.1,25.5c0.5,0.3,0.6,0.9,0.4,1.4c-0.1,0.2-0.2,0.3-0.4,0.4L64.5,69.6C64.3,69.7,64.2,69.8,64,69.8z
		 M21.9,43.3L64,67.6l42.1-24.3L64,19L21.9,43.3z"/>
	<polygon class="st2" points="108.1,102.1 64,127.6 64,68.8 108.1,43.3 	"/>
	<path class="st3" d="M64,128.6c-0.6,0-1-0.4-1-1V68.8c0-0.4,0.2-0.7,0.5-0.9l44.1-25.5c0.5-0.3,1.1-0.1,1.4,0.4
		c0.1,0.2,0.1,0.3,0.1,0.5v58.8c0,0.4-0.2,0.7-0.5,0.9l-44.1,25.5C64.3,128.5,64.2,128.6,64,128.6z M65,69.3v56.5l42.1-24.3V45
		L65,69.3z"/>
	<polygon class="st0" points="81.5,117.5 90.6,112.2 90.6,53.4 81.5,58.7 	"/>
	<path class="st3" d="M81.5,118.5c-0.6,0-1-0.4-1-1V58.7c0-0.4,0.2-0.7,0.5-0.9l9.1-5.3c0.5-0.3,1.1-0.1,1.4,0.4
		c0.1,0.2,0.1,0.3,0.1,0.5v58.8c0,0.4-0.2,0.7-0.5,0.9l-9.1,5.2C81.8,118.4,81.7,118.5,81.5,118.5z M82.5,59.2v56.5l7.1-4.1V55.1
		L82.5,59.2z"/>
	<polygon class="st0" points="19.9,102.1 64,127.6 64,68.8 19.9,43.3 	"/>
	<path class="st3" d="M64,128.6c-0.2,0-0.3,0-0.5-0.1L19.4,103c-0.3-0.2-0.5-0.5-0.5-0.9V43.3c0-0.6,0.4-1,1-1c0.2,0,0.3,0,0.5,0.1
		l44.1,25.5c0.3,0.2,0.5,0.5,0.5,0.9v58.8C65,128.1,64.6,128.6,64,128.6z M20.9,101.5L63,125.8V69.3L20.9,45V101.5z"/>
	<polygon class="st0" points="37.4,112.2 46.5,117.5 46.5,58.7 37.4,53.4 	"/>
	<path class="st3" d="M46.5,118.5c-0.2,0-0.3,0-0.5-0.1l-9.1-5.3c-0.3-0.2-0.5-0.5-0.5-0.9V53.4c0-0.6,0.4-1,1-1
		c0.2,0,0.3,0,0.5,0.1l9.2,5.3c0.3,0.2,0.5,0.5,0.5,0.9v58.8C47.5,118,47.1,118.5,46.5,118.5z M38.4,111.6l7.2,4.1V59.2l-7.2-4.1
		V111.6z"/>
	<polygon class="st0" points="78.1,60.6 64,17.8 64,68.8 	"/>
	<polygon class="st0" points="19.9,43.3 64,68.8 64,17.8 	"/>
	<path class="st1" d="M64,69.8c-0.2,0-0.3,0-0.5-0.1L19.4,44.2c-0.5-0.3-0.6-0.9-0.4-1.4c0.1-0.2,0.2-0.3,0.4-0.4l44.1-25.5
		c0.5-0.3,1.1-0.1,1.4,0.4c0.1,0.2,0.1,0.3,0.1,0.5v50.9C65,69.3,64.6,69.8,64,69.8z M21.9,43.3L63,67V19.6L21.9,43.3z"/>
	<path class="st1" d="M64,69.8c-0.2,0-0.3,0-0.5-0.1L19.4,44.2c-0.5-0.3-0.6-0.9-0.4-1.4c0.1-0.2,0.2-0.3,0.4-0.4l44.1-25.5
		c0.3-0.2,0.7-0.2,1,0l44.1,25.5c0.5,0.3,0.6,0.9,0.4,1.4c-0.1,0.2-0.2,0.3-0.4,0.4L64.5,69.6C64.3,69.7,64.2,69.8,64,69.8z
		 M21.9,43.3L64,67.6l42.1-24.3L64,19L21.9,43.3z"/>
	<polygon class="st0" points="64,17.8 19.9,43.3 64,68.8 108.1,43.3 	"/>
	<path class="st1" d="M64,69.8c-0.2,0-0.3,0-0.5-0.1L19.4,44.2c-0.5-0.3-0.6-0.9-0.4-1.4c0.1-0.2,0.2-0.3,0.4-0.4l44.1-25.5
		c0.3-0.2,0.7-0.2,1,0l44.1,25.5c0.5,0.3,0.6,0.9,0.4,1.4c-0.1,0.2-0.2,0.3-0.4,0.4L64.5,69.6C64.3,69.7,64.2,69.8,64,69.8z
		 M21.9,43.3L64,67.6l42.1-24.3L64,19L21.9,43.3z"/>
	<polygon class="st2" points="108.1,102.1 64,127.6 64,68.8 108.1,43.3 	"/>
	<path class="st3" d="M64,128.6c-0.6,0-1-0.4-1-1V68.8c0-0.4,0.2-0.7,0.5-0.9l44.1-25.5c0.5-0.3,1.1-0.1,1.4,0.4
		c0.1,0.2,0.1,0.3,0.1,0.5v58.8c0,0.4-0.2,0.7-0.5,0.9l-44.1,25.5C64.3,128.5,64.2,128.6,64,128.6z M65,69.3v56.5l42.1-24.3V45
		L65,69.3z"/>
	<polygon class="st0" points="80,118.3 92.1,111.3 92.1,52.5 80,59.5 	"/>
	<polygon class="st0" points="19.9,102.1 64,127.6 64,68.8 19.9,43.3 	"/>
	<path class="st3" d="M64,128.6c-0.2,0-0.3,0-0.5-0.1L19.4,103c-0.3-0.2-0.5-0.5-0.5-0.9V43.3c0-0.6,0.4-1,1-1c0.2,0,0.3,0,0.5,0.1
		l44.1,25.5c0.3,0.2,0.5,0.5,0.5,0.9v58.8C65,128.1,64.6,128.6,64,128.6z M20.9,101.5L63,125.8V69.3L20.9,45V101.5z"/>
	<polygon class="st3" points="35.9,111.3 48,118.3 48,59.5 35.9,52.5 	"/>
	<path class="st1" d="M64,128.6c-0.2,0-0.3,0-0.5-0.1L19.4,103c-0.3-0.2-0.5-0.5-0.5-0.9V43.3c0-0.6,0.4-1,1-1c0.2,0,0.3,0,0.5,0.1
		L64,67.6l43.6-25.2c0.5-0.3,1.1-0.1,1.4,0.4c0.1,0.2,0.1,0.3,0.1,0.5v58.8c0,0.4-0.2,0.7-0.5,0.9l-44.1,25.5
		C64.3,128.5,64.2,128.6,64,128.6z M20.9,101.5L64,126.4l43.1-24.9V45L64.5,69.6c-0.3,0.2-0.7,0.2-1,0L20.9,45V101.5z"/>
	<polygon class="st0" points="78.1,60.6 64,17.8 64,68.8 	"/>
	<polygon class="st0" points="19.9,43.3 64,68.8 64,17.8 	"/>
	<path class="st1" d="M64,69.8c-0.2,0-0.3,0-0.5-0.1L19.4,44.2c-0.5-0.3-0.6-0.9-0.4-1.4c0.1-0.2,0.2-0.3,0.4-0.4l44.1-25.5
		c0.5-0.3,1.1-0.1,1.4,0.4c0.1,0.2,0.1,0.3,0.1,0.5v50.9C65,69.3,64.6,69.8,64,69.8z M21.9,43.3L63,67V19.6L21.9,43.3z"/>
	<path class="st1" d="M64,69.8c-0.2,0-0.3,0-0.5-0.1L19.4,44.2c-0.5-0.3-0.6-0.9-0.4-1.4c0.1-0.2,0.2-0.3,0.4-0.4l44.1-25.5
		c0.3-0.2,0.7-0.2,1,0l44.1,25.5c0.5,0.3,0.6,0.9,0.4,1.4c-0.1,0.2-0.2,0.3-0.4,0.4L64.5,69.6C64.3,69.7,64.2,69.8,64,69.8z
		 M21.9,43.3L64,67.6l42.1-24.3L64,19L21.9,43.3z"/>
	<polygon class="st0" points="64,7.6 16,35.3 64,63 112,35.3 	"/>
	<path class="st3" d="M64,64c-0.2,0-0.3,0-0.5-0.1l-48-27.7c-0.5-0.3-0.6-0.9-0.4-1.4c0.1-0.2,0.2-0.3,0.4-0.4l48-27.7
		c0.3-0.2,0.7-0.2,1,0l48,27.7c0.5,0.3,0.6,0.9,0.4,1.4c-0.1,0.2-0.2,0.3-0.4,0.4l-48,27.7C64.3,64,64.2,64,64,64z M18,35.3l46,26.6
		l46-26.6L64,8.7L18,35.3z"/>
	<polygon class="st2" points="112,35.3 112,50.5 64,78.3 64,63 	"/>
	<polygon class="st0" points="82,67.9 94.1,60.9 94.1,45.7 82,52.7 	"/>
	<polygon class="st0" points="16,35.3 16,50.5 64,78.3 64,63 	"/>
	<polygon class="st3" points="46,67.9 33.9,60.9 33.9,45.7 46,52.7 	"/>
	<polygon class="st3" points="33.9,24.9 46,17.9 94.1,45.7 82,52.7 	"/>
	<polygon class="st3" points="62.2,44.7 82,33.2 69.8,26.2 50,37.7 	"/>
	<path class="st0" d="M62.2,45.7c-0.2,0-0.3,0-0.5-0.1l-12.1-7c-0.5-0.3-0.6-0.9-0.4-1.4c0.1-0.2,0.2-0.3,0.4-0.4l19.8-11.4
		c0.3-0.2,0.7-0.2,1,0l12.1,7c0.5,0.3,0.6,0.9,0.4,1.4c-0.1,0.2-0.2,0.3-0.4,0.4L62.7,45.5C62.5,45.6,62.4,45.7,62.2,45.7z M52,37.7
		l10.1,5.9L80,33.2l-10.1-5.9L52,37.7z"/>
	<polygon class="st3" points="94.1,24.9 82,17.9 33.9,45.7 46,52.7 	"/>
	<path class="st0" d="M94.3,89.5L77.8,99c-0.8,0.5-1.5,0-1.5-1.1v-7.8c0-1.1,0.6-2.2,1.5-2.8l16.5-9.5c0.8-0.5,1.5,0,1.5,1.1v7.8
		C95.7,87.8,95.2,88.8,94.3,89.5z"/>
	<path class="st2" d="M82,91.9c-0.6,0-1-0.4-1-1c0-0.4,0.2-0.7,0.5-0.9l8-4.6c0.5-0.3,1.1-0.1,1.4,0.4s0.1,1.1-0.4,1.4l0,0l-8,4.6
		C82.4,91.8,82.2,91.9,82,91.9z"/>
	<path class="st3" d="M64,79.3c-0.6,0-1-0.4-1-1V63c0-0.4,0.2-0.7,0.5-0.9l48-27.7c0.5-0.3,1.1-0.1,1.4,0.4c0.1,0.2,0.1,0.3,0.1,0.5
		v15.2c0,0.4-0.2,0.7-0.5,0.9l-48,27.7C64.3,79.2,64.2,79.3,64,79.3z M65,63.6v12.9l46-26.6V37L65,63.6z"/>
	<path class="st3" d="M64,79.3c-0.2,0-0.3,0-0.5-0.1l-48-27.7C15.2,51.3,15,51,15,50.6V35.3c0-0.6,0.4-1,1-1c0.2,0,0.3,0,0.5,0.1
		l48,27.7c0.3,0.2,0.5,0.5,0.5,0.9v15.3C65,78.8,64.6,79.3,64,79.3z M17,50l46,26.6v-13L17,37V50z"/>
	<path class="st1" d="M64,79.3c-0.2,0-0.3,0-0.5-0.1l-48-27.7C15.2,51.3,15,51,15,50.6V35.3c0-0.4,0.2-0.7,0.5-0.9l48-27.7
		c0.3-0.2,0.7-0.2,1,0l48,27.7c0.3,0.2,0.5,0.5,0.5,0.9v15.2c0,0.4-0.2,0.7-0.5,0.9l-48,27.7C64.3,79.2,64.2,79.3,64,79.3z M17,50
		l47,27.2L111,50V35.9L64,8.7L17,35.9V50z"/>
	<rect x="1" class="st4" width="126" height="126"/>
	<g>
		<rect y="0.3" class="st4" width="128" height="128"/>
	</g>
</g>
</svg>
