<?xml version="1.0" encoding="utf-8"?>
<!-- Generator: Adobe Illustrator 24.1.2, SVG Export Plug-In . SVG Version: 6.00 Build 0)  -->
<svg version="1.1" id="Layer_1" xmlns="http://www.w3.org/2000/svg" xmlns:xlink="http://www.w3.org/1999/xlink" x="0px" y="0px"
	 width="128px" height="128px" viewBox="0 0 128 128" style="enable-background:new 0 0 128 128;" xml:space="preserve">
<style type="text/css">
	.st0{fill:#FFFFFF;}
	.st1{fill:#4D9987;}
	.st2{fill:#E9EBDF;}
	.st3{fill:#0E352C;}
	.st4{fill:#27ae60;}
	.st5{fill:#C4D7D3;}
	.st6{fill:#185849;}
	.st7{fill:none;}
</style>
<g>
	<polygon class="st0" points="45.2,56.1 30.1,47.4 15.1,56.1 30.1,64.8 	"/>
	<path class="st1" d="M30.1,65.8c-0.2,0-0.3,0-0.5-0.1l-15-8.7c-0.5-0.3-0.6-0.9-0.4-1.4c0.1-0.2,0.2-0.3,0.4-0.4l15.1-8.7
		c0.3-0.2,0.7-0.2,1,0l15.1,8.7c0.5,0.3,0.6,0.9,0.4,1.4c-0.1,0.2-0.2,0.3-0.4,0.4l-15.1,8.7C30.5,65.8,30.3,65.8,30.1,65.8z
		 M17.1,56.1l13.1,7.5l13.1-7.5l-13.1-7.5L17.1,56.1z"/>
	<polygon class="st2" points="45.2,76.2 30.1,84.9 30.1,64.8 45.2,56.1 	"/>
	<path class="st1" d="M30.1,85.9c-0.6,0-1-0.4-1-1V64.8c0-0.4,0.2-0.7,0.5-0.9l15.1-8.7c0.5-0.3,1.1-0.1,1.4,0.4
		c0.1,0.2,0.1,0.3,0.1,0.5v20.1c0,0.4-0.2,0.7-0.5,0.9l-15.1,8.7C30.5,85.8,30.3,85.9,30.1,85.9z M31.1,65.4v17.8l13.1-7.5V57.9
		L31.1,65.4z"/>
	<polygon class="st2" points="15.1,76.2 30.1,84.9 30.1,64.8 15.1,56.1 	"/>
	<path class="st1" d="M30.1,85.9c-0.2,0-0.3,0-0.5-0.1l-15.1-8.7c-0.3-0.2-0.5-0.5-0.5-0.9V56.1c0-0.6,0.4-1,1-1
		c0.2,0,0.3,0,0.5,0.1L30.6,64c0.3,0.2,0.5,0.5,0.5,0.9V85C31.1,85.4,30.7,85.9,30.1,85.9z M16.1,75.6l13.1,7.5V65.4l-13.1-7.5V75.6
		z"/>
	<path class="st3" d="M30.1,85.9c-0.2,0-0.3,0-0.5-0.1l-15.1-8.7c-0.3-0.2-0.5-0.5-0.5-0.9V56.1c0-0.4,0.2-0.7,0.5-0.9l15.1-8.7
		c0.3-0.2,0.7-0.2,1,0l15.1,8.7c0.3,0.2,0.5,0.5,0.5,0.9v20.1c0,0.4-0.2,0.7-0.5,0.9l-15.1,8.7C30.5,85.8,30.3,85.9,30.1,85.9z
		 M16.1,75.6l14.1,8.1l14.1-8.1V56.7l-14.1-8.1l-14.1,8.1C16.1,56.7,16.1,75.6,16.1,75.6z"/>
	<polygon class="st0" points="67.8,30 52.7,21.3 37.7,30 52.7,38.7 	"/>
	<path class="st1" d="M52.7,39.7c-0.2,0-0.3,0-0.5-0.1l-15.1-8.7c-0.5-0.3-0.6-0.9-0.4-1.4c0.1-0.2,0.2-0.3,0.4-0.4l15.1-8.7
		c0.3-0.2,0.7-0.2,1,0l15.1,8.7c0.5,0.3,0.6,0.9,0.4,1.4c-0.1,0.2-0.2,0.3-0.4,0.4l-15.1,8.7C53.1,39.7,52.9,39.7,52.7,39.7z
		 M39.7,30l13.1,7.5l13-7.5l-13.1-7.5L39.7,30z"/>
	<polygon class="st2" points="67.8,89.2 52.7,97.9 52.7,38.7 67.8,30 	"/>
	<path class="st1" d="M52.7,98.9c-0.6,0-1-0.4-1-1V38.7c0-0.4,0.2-0.7,0.5-0.9l15.1-8.7c0.5-0.3,1.1-0.1,1.4,0.4
		c0.1,0.2,0.1,0.3,0.1,0.5v59.2c0,0.4-0.2,0.7-0.5,0.9l-15.1,8.7C53.1,98.9,52.9,98.9,52.7,98.9z M53.7,39.3v56.9l13.1-7.5v-57
		L53.7,39.3z"/>
	<polygon class="st2" points="37.7,89.2 52.7,97.9 52.7,38.7 37.7,30 	"/>
	<path class="st1" d="M52.7,98.9c-0.2,0-0.3,0-0.5-0.1l-15.1-8.7c-0.3-0.2-0.5-0.5-0.5-0.9V30c0-0.6,0.4-1,1-1c0.2,0,0.3,0,0.5,0.1
		l15.1,8.7c0.3,0.2,0.5,0.5,0.5,0.9v59.2C53.7,98.5,53.3,98.9,52.7,98.9z M38.7,88.7l13.1,7.5V39.3l-13.1-7.5
		C38.7,31.8,38.7,88.7,38.7,88.7z"/>
	<path class="st3" d="M52.7,98.9c-0.2,0-0.3,0-0.5-0.1l-15.1-8.7c-0.3-0.2-0.5-0.5-0.5-0.9V30c0-0.4,0.2-0.7,0.5-0.9l15.1-8.7
		c0.3-0.2,0.7-0.2,1,0l15.1,8.7c0.3,0.2,0.5,0.5,0.5,0.9v59.2c0,0.4-0.2,0.7-0.5,0.9l-15.1,8.7C53.1,98.9,52.9,98.9,52.7,98.9z
		 M38.7,88.7l14.1,8.1l14.1-8.1V30.6l-14.1-8.1l-14.1,8.1C38.7,30.6,38.7,88.7,38.7,88.7z"/>
	<polygon class="st0" points="90.3,62.6 75.3,53.9 60.2,62.6 75.3,71.3 	"/>
	<path class="st1" d="M75.3,72.3c-0.2,0-0.3,0-0.5-0.1l-15.1-8.7c-0.5-0.3-0.6-0.9-0.4-1.4c0.1-0.2,0.2-0.3,0.4-0.4L74.8,53
		c0.3-0.2,0.7-0.2,1,0l15.1,8.7c0.5,0.3,0.6,0.9,0.4,1.4c-0.1,0.2-0.2,0.3-0.4,0.4l-15.1,8.7C75.6,72.3,75.5,72.3,75.3,72.3z
		 M62.2,62.6l13.1,7.5l13.1-7.5l-13.1-7.5L62.2,62.6z"/>
	<polygon class="st2" points="90.3,102.3 75.3,111 75.3,71.3 90.3,62.6 	"/>
	<path class="st1" d="M75.3,112c-0.6,0-1-0.4-1-1V71.3c0-0.4,0.2-0.7,0.5-0.9l15.1-8.7c0.5-0.3,1.1-0.1,1.4,0.4
		c0.1,0.2,0.1,0.3,0.1,0.5v39.6c0,0.4-0.2,0.7-0.5,0.9l-15.1,8.7C75.6,111.9,75.5,112,75.3,112z M76.3,71.9v37.3l13.1-7.5V64.4
		L76.3,71.9z"/>
	<polygon class="st2" points="60.2,102.3 75.3,111 75.3,71.3 60.2,62.6 	"/>
	<path class="st1" d="M75.3,112c-0.2,0-0.3,0-0.5-0.1l-15.1-8.7c-0.3-0.2-0.5-0.5-0.5-0.9V62.6c0-0.6,0.4-1,1-1c0.2,0,0.3,0,0.5,0.1
		l15.1,8.7c0.3,0.2,0.5,0.5,0.5,0.9V111C76.3,111.5,75.8,112,75.3,112z M61.2,101.7l13.1,7.5V71.9l-13.1-7.5
		C61.2,64.4,61.2,101.7,61.2,101.7z"/>
	<path class="st3" d="M75.3,112c-0.2,0-0.3,0-0.5-0.1l-15.1-8.7c-0.3-0.2-0.5-0.5-0.5-0.9V62.6c0-0.4,0.2-0.7,0.5-0.9L74.8,53
		c0.3-0.2,0.7-0.2,1,0l15.1,8.7c0.3,0.2,0.5,0.5,0.5,0.9v39.6c0,0.4-0.2,0.7-0.5,0.9l-15.1,8.7C75.6,111.9,75.5,112,75.3,112z
		 M61.2,101.7l14.1,8.1l14.1-8.1V63.2l-14.1-8.1l-14.1,8.1C61.2,63.2,61.2,101.7,61.2,101.7z"/>
	<polygon class="st0" points="112.9,12.7 97.9,4 82.8,12.7 97.9,21.4 	"/>
	<path class="st4" d="M97.9,22.4c-0.2,0-0.3,0-0.5-0.1l-15.1-8.7c-0.5-0.3-0.6-0.9-0.4-1.4c0.1-0.2,0.2-0.3,0.4-0.4l15.1-8.7
		c0.3-0.2,0.7-0.2,1,0l15.1,8.7c0.5,0.3,0.6,0.9,0.4,1.4c-0.1,0.2-0.2,0.3-0.4,0.4l-15.1,8.7C98.2,22.3,98,22.4,97.9,22.4z
		 M84.8,12.7l13.1,7.5l13.1-7.5L97.9,5.2L84.8,12.7z"/>
	<polygon class="st5" points="97.9,21.4 97.9,21.4 97.9,83.9 97.9,103.9 97.9,124 112.9,115.3 112.9,95.2 112.9,42.5 112.9,12.7 
		112.9,12.7 	"/>
	<path class="st4" d="M97.9,125c-0.6,0-1-0.4-1-1V21.4c0-0.4,0.2-0.7,0.5-0.9l15.1-8.7c0.5-0.3,1.1-0.1,1.4,0.4
		c0.1,0.2,0.1,0.3,0.1,0.5v102.6c0,0.4-0.2,0.7-0.5,0.9l-15.1,8.7C98.2,125,98,125,97.9,125z M98.9,22v100.3l13.1-7.5V14.4L98.9,22z
		"/>
	<polygon class="st0" points="82.8,12.7 82.8,12.7 82.8,42.5 82.8,95.2 82.8,115.3 97.9,124 97.9,103.9 97.9,83.9 97.9,21.4 
		97.9,21.4 	"/>
	<path class="st4" d="M97.9,125c-0.2,0-0.3,0-0.5-0.1l-15.1-8.7c-0.3-0.2-0.5-0.5-0.5-0.9V12.7c0-0.6,0.4-1,1-1c0.2,0,0.3,0,0.5,0.1
		l15.1,8.7c0.3,0.2,0.5,0.5,0.5,0.9V124C98.9,124.6,98.4,125,97.9,125z M83.8,114.7l13.1,7.5V22l-13.1-7.5V114.7z"/>
	<path class="st6" d="M97.9,125c-0.2,0-0.3,0-0.5-0.1l-15.1-8.7c-0.3-0.2-0.5-0.5-0.5-0.9V12.7c0-0.4,0.2-0.7,0.5-0.9l15.1-8.7
		c0.3-0.2,0.7-0.2,1,0l15.1,8.7c0.3,0.2,0.5,0.5,0.5,0.9v102.6c0,0.4-0.2,0.7-0.5,0.9l-15.1,8.7C98.2,125,98,125,97.9,125z
		 M83.8,114.7l14.1,8.1l14.1-8.1V13.3L97.9,5.2l-14.1,8.1V114.7z"/>
	<rect x="1" y="1" class="st7" width="126" height="126"/>
	<g>
		<rect class="st7" width="128" height="128"/>
	</g>
</g>
</svg>
