<?xml version="1.0" encoding="utf-8"?>
<!-- Generator: Adobe Illustrator 24.1.2, SVG Export Plug-In . SVG Version: 6.00 Build 0)  -->
<svg version="1.1" id="Layer_1" xmlns="http://www.w3.org/2000/svg" xmlns:xlink="http://www.w3.org/1999/xlink" x="0px" y="0px"
	 width="440px" height="300px" viewBox="0 0 440 300" style="enable-background:new 0 0 440 300;" xml:space="preserve">
<style type="text/css">
	.st0{fill:#4D9987;}
	.st1{fill:#FFFFFF;}
	.st2{fill:#E9EBDF;}
	.st3{fill:#0E352C;}
	.st4{fill:#C4D7D3;}
	.st5{fill:#27ae60;}
	.st6{fill:#185849;}
	.st7{fill:none;}
</style>
<g>
	<path class="st0" d="M148,171.8c-0.2,0-0.3,0-0.5-0.1l-18-10.4c-0.5-0.3-0.6-0.9-0.4-1.4c0.1-0.2,0.2-0.3,0.4-0.4l18-10.4
		c0.3-0.2,0.7-0.2,1,0l18,10.4c0.5,0.3,0.6,0.9,0.4,1.4c-0.1,0.2-0.2,0.3-0.4,0.4l-18,10.4C148.3,171.7,148.2,171.8,148,171.8z
		 M132,160.4l16,9.2l16-9.2l-16-9.2L132,160.4z"/>
	<path class="st0" d="M166,161.4c-0.2,0-0.3,0-0.5-0.1l-18-10.4c-0.5-0.3-0.6-0.9-0.4-1.4c0.1-0.2,0.2-0.3,0.4-0.4l18-10.4
		c0.3-0.2,0.7-0.2,1,0l18,10.4c0.5,0.3,0.6,0.9,0.4,1.4c-0.1,0.2-0.2,0.3-0.4,0.4l-18,10.4C166.3,161.3,166.2,161.4,166,161.4z
		 M150,150l16,9.2l16-9.2l-16-9.2L150,150z"/>
	<path class="st0" d="M184,151c-0.2,0-0.3,0-0.5-0.1l-18-10.4c-0.5-0.3-0.6-0.9-0.4-1.4c0.1-0.2,0.2-0.3,0.4-0.4l18-10.4
		c0.3-0.2,0.7-0.2,1,0l18,10.4c0.5,0.3,0.6,0.9,0.4,1.4c-0.1,0.2-0.2,0.3-0.4,0.4l-18,10.4C184.3,151,184.2,151,184,151z M168,139.6
		l16,9.2l16-9.2l-16-9.2L168,139.6z"/>
	<path class="st0" d="M202,140.6c-0.2,0-0.3,0-0.5-0.1l-18-10.4c-0.5-0.3-0.6-0.9-0.4-1.4c0.1-0.2,0.2-0.3,0.4-0.4l18-10.4
		c0.3-0.2,0.7-0.2,1,0l18,10.4c0.5,0.3,0.6,0.9,0.4,1.4c-0.1,0.2-0.2,0.3-0.4,0.4l-18,10.4C202.3,140.6,202.2,140.6,202,140.6z
		 M186,129.2l16,9.2l16-9.2l-16-9.2L186,129.2z"/>
	<path class="st0" d="M220,130.2c-0.2,0-0.3,0-0.5-0.1l-18-10.4c-0.5-0.3-0.6-0.9-0.4-1.4c0.1-0.2,0.2-0.3,0.4-0.4l18-10.4
		c0.3-0.2,0.7-0.2,1,0l18,10.4c0.5,0.3,0.6,0.9,0.4,1.4c-0.1,0.2-0.2,0.3-0.4,0.4l-18,10.4C220.3,130.2,220.2,130.2,220,130.2z
		 M204,118.8l16,9.2l16-9.2l-16-9.2L204,118.8z"/>
	<path class="st0" d="M238,119.8c-0.2,0-0.3,0-0.5-0.1l-18-10.4c-0.5-0.3-0.6-0.9-0.4-1.4c0.1-0.2,0.2-0.3,0.4-0.4l18-10.4
		c0.3-0.2,0.7-0.2,1,0l18,10.4c0.5,0.3,0.6,0.9,0.4,1.4c-0.1,0.2-0.2,0.3-0.4,0.4l-18,10.4C238.3,119.8,238.2,119.8,238,119.8z
		 M222,108.4l16,9.2l16-9.2l-16-9.2L222,108.4z"/>
	<path class="st0" d="M166,182.2c-0.2,0-0.3,0-0.5-0.1l-18-10.4c-0.5-0.3-0.6-0.9-0.4-1.4c0.1-0.2,0.2-0.3,0.4-0.4l18-10.4
		c0.3-0.2,0.7-0.2,1,0l18,10.4c0.5,0.3,0.6,0.9,0.4,1.4c-0.1,0.2-0.2,0.3-0.4,0.4l-18,10.4C166.3,182.1,166.2,182.2,166,182.2z
		 M150,170.8l16,9.2l16-9.2l-16-9.2L150,170.8z"/>
	<path class="st0" d="M184,171.8c-0.2,0-0.3,0-0.5-0.1l-18-10.4c-0.5-0.3-0.6-0.9-0.4-1.4c0.1-0.2,0.2-0.3,0.4-0.4l18-10.4
		c0.3-0.2,0.7-0.2,1,0l18,10.4c0.5,0.3,0.6,0.9,0.4,1.4c-0.1,0.2-0.2,0.3-0.4,0.4l-18,10.4C184.3,171.7,184.2,171.8,184,171.8z
		 M168,160.4l16,9.2l16-9.2l-16-9.2L168,160.4z"/>
	<path class="st0" d="M202,161.4c-0.2,0-0.3,0-0.5-0.1l-18-10.4c-0.5-0.3-0.6-0.9-0.4-1.4c0.1-0.2,0.2-0.3,0.4-0.4l18-10.4
		c0.3-0.2,0.7-0.2,1,0l18,10.4c0.5,0.3,0.6,0.9,0.4,1.4c-0.1,0.2-0.2,0.3-0.4,0.4l-18,10.4C202.3,161.3,202.2,161.4,202,161.4z
		 M186,150l16,9.2l16-9.2l-16-9.2L186,150z"/>
	<path class="st0" d="M220,151c-0.2,0-0.3,0-0.5-0.1l-18-10.4c-0.5-0.3-0.6-0.9-0.4-1.4c0.1-0.2,0.2-0.3,0.4-0.4l18-10.4
		c0.3-0.2,0.7-0.2,1,0l18,10.4c0.5,0.3,0.6,0.9,0.4,1.4c-0.1,0.2-0.2,0.3-0.4,0.4l-18,10.4C220.3,151,220.2,151,220,151z M204,139.6
		l16,9.2l16-9.2l-16-9.2L204,139.6z"/>
	<path class="st0" d="M238,140.6c-0.2,0-0.3,0-0.5-0.1l-18-10.4c-0.5-0.3-0.6-0.9-0.4-1.4c0.1-0.2,0.2-0.3,0.4-0.4l18-10.4
		c0.3-0.2,0.7-0.2,1,0l18,10.4c0.5,0.3,0.6,0.9,0.4,1.4c-0.1,0.2-0.2,0.3-0.4,0.4l-18,10.4C238.3,140.6,238.2,140.6,238,140.6z
		 M222,129.2l16,9.2l16-9.2l-16-9.2L222,129.2z"/>
	<path class="st0" d="M256,130.2c-0.2,0-0.3,0-0.5-0.1l-18-10.4c-0.5-0.3-0.6-0.9-0.4-1.4c0.1-0.2,0.2-0.3,0.4-0.4l18-10.4
		c0.3-0.2,0.7-0.2,1,0l18,10.4c0.5,0.3,0.6,0.9,0.4,1.4c-0.1,0.2-0.2,0.3-0.4,0.4l-18,10.4C256.3,130.2,256.2,130.2,256,130.2z
		 M240,118.8l16,9.2l16-9.2l-16-9.2L240,118.8z"/>
	<path class="st0" d="M184,192.6c-0.2,0-0.3,0-0.5-0.1l-18-10.4c-0.5-0.3-0.6-0.9-0.4-1.4c0.1-0.2,0.2-0.3,0.4-0.4l18-10.4
		c0.3-0.2,0.7-0.2,1,0l18,10.4c0.5,0.3,0.6,0.9,0.4,1.4c-0.1,0.2-0.2,0.3-0.4,0.4l-18,10.4C184.3,192.5,184.2,192.6,184,192.6z
		 M168,181.2l16,9.2l16-9.2l-16-9.2L168,181.2z"/>
	<path class="st0" d="M202,182.2c-0.2,0-0.3,0-0.5-0.1l-18-10.4c-0.5-0.3-0.6-0.9-0.4-1.4c0.1-0.2,0.2-0.3,0.4-0.4l18-10.4
		c0.3-0.2,0.7-0.2,1,0l18,10.4c0.5,0.3,0.6,0.9,0.4,1.4c-0.1,0.2-0.2,0.3-0.4,0.4l-18,10.4C202.3,182.1,202.2,182.2,202,182.2z
		 M186,170.8l16,9.2l16-9.2l-16-9.2L186,170.8z"/>
	<path class="st0" d="M238,161.4c-0.2,0-0.3,0-0.5-0.1l-18-10.4c-0.5-0.3-0.6-0.9-0.4-1.4c0.1-0.2,0.2-0.3,0.4-0.4l18-10.4
		c0.3-0.2,0.7-0.2,1,0l18,10.4c0.5,0.3,0.6,0.9,0.4,1.4c-0.1,0.2-0.2,0.3-0.4,0.4l-18,10.4C238.3,161.3,238.2,161.4,238,161.4z
		 M222,150l16,9.2l16-9.2l-16-9.2L222,150z"/>
	<path class="st0" d="M256,151c-0.2,0-0.3,0-0.5-0.1l-18-10.4c-0.5-0.3-0.6-0.9-0.4-1.4c0.1-0.2,0.2-0.3,0.4-0.4l18-10.4
		c0.3-0.2,0.7-0.2,1,0l18,10.4c0.5,0.3,0.6,0.9,0.4,1.4c-0.1,0.2-0.2,0.3-0.4,0.4l-18,10.4C256.3,151,256.2,151,256,151z M240,139.6
		l16,9.2l16-9.2l-16-9.2L240,139.6z"/>
	<path class="st0" d="M274,140.6c-0.2,0-0.3,0-0.5-0.1l-18-10.4c-0.5-0.3-0.6-0.9-0.4-1.4c0.1-0.2,0.2-0.3,0.4-0.4l18-10.4
		c0.3-0.2,0.7-0.2,1,0l18,10.4c0.5,0.3,0.6,0.9,0.4,1.4c-0.1,0.2-0.2,0.3-0.4,0.4l-18,10.4C274.3,140.6,274.2,140.6,274,140.6z
		 M258,129.2l16,9.2l16-9.2l-16-9.2L258,129.2z"/>
	<path class="st0" d="M202,203c-0.2,0-0.3,0-0.5-0.1l-18-10.4c-0.5-0.3-0.6-0.9-0.4-1.4c0.1-0.2,0.2-0.3,0.4-0.4l18-10.4
		c0.3-0.2,0.7-0.2,1,0l18,10.4c0.5,0.3,0.6,0.9,0.4,1.4c-0.1,0.2-0.2,0.3-0.4,0.4l-18,10.4C202.3,202.9,202.2,203,202,203z
		 M186,191.6l16,9.2l16-9.2l-16-9.2L186,191.6z"/>
	<path class="st0" d="M220,192.6c-0.2,0-0.3,0-0.5-0.1l-18-10.4c-0.5-0.3-0.6-0.9-0.4-1.4c0.1-0.2,0.2-0.3,0.4-0.4l18-10.4
		c0.3-0.2,0.7-0.2,1,0l18,10.4c0.5,0.3,0.6,0.9,0.4,1.4c-0.1,0.2-0.2,0.3-0.4,0.4l-18,10.4C220.3,192.5,220.2,192.6,220,192.6z
		 M204,181.2l16,9.2l16-9.2l-16-9.2L204,181.2z"/>
	<path class="st0" d="M238,182.2c-0.2,0-0.3,0-0.5-0.1l-18-10.4c-0.5-0.3-0.6-0.9-0.4-1.4c0.1-0.2,0.2-0.3,0.4-0.4l18-10.4
		c0.3-0.2,0.7-0.2,1,0l18,10.4c0.5,0.3,0.6,0.9,0.4,1.4c-0.1,0.2-0.2,0.3-0.4,0.4l-18,10.4C238.3,182.1,238.2,182.2,238,182.2z
		 M222,170.8l16,9.2l16-9.2l-16-9.2L222,170.8z"/>
	<path class="st0" d="M256,171.8c-0.2,0-0.3,0-0.5-0.1l-18-10.4c-0.5-0.3-0.6-0.9-0.4-1.4c0.1-0.2,0.2-0.3,0.4-0.4l18-10.4
		c0.3-0.2,0.7-0.2,1,0l18,10.4c0.5,0.3,0.6,0.9,0.4,1.4c-0.1,0.2-0.2,0.3-0.4,0.4l-18,10.4C256.3,171.7,256.2,171.8,256,171.8z
		 M240,160.4l16,9.2l16-9.2l-16-9.2L240,160.4z"/>
	<path class="st0" d="M274,161.4c-0.2,0-0.3,0-0.5-0.1l-18-10.4c-0.5-0.3-0.6-0.9-0.4-1.4c0.1-0.2,0.2-0.3,0.4-0.4l18-10.4
		c0.3-0.2,0.7-0.2,1,0l18,10.4c0.5,0.3,0.6,0.9,0.4,1.4c-0.1,0.2-0.2,0.3-0.4,0.4l-18,10.4C274.3,161.3,274.2,161.4,274,161.4z
		 M258,150l16,9.2l16-9.2l-16-9.2L258,150z"/>
	<path class="st0" d="M292,151c-0.2,0-0.3,0-0.5-0.1l-18-10.4c-0.5-0.3-0.6-0.9-0.4-1.4c0.1-0.2,0.2-0.3,0.4-0.4l18-10.4
		c0.3-0.2,0.7-0.2,1,0l18,10.4c0.5,0.3,0.6,0.9,0.4,1.4c-0.1,0.2-0.2,0.3-0.4,0.4l-18,10.4C292.3,151,292.2,151,292,151z M276,139.6
		l16,9.2l16-9.2l-16-9.2L276,139.6z"/>
	<polygon class="st1" points="184,105.2 184,105.2 166,115.6 148,126 130,136.4 148,146.8 166,136.4 184,126 202,115.6 202,115.6 	
		"/>
	<path class="st0" d="M148,147.8c-0.2,0-0.3,0-0.5-0.1l-18-10.4c-0.5-0.3-0.6-0.9-0.4-1.4c0.1-0.2,0.2-0.3,0.4-0.4l54-31.2
		c0.3-0.2,0.7-0.2,1,0l18,10.4c0.5,0.3,0.6,0.9,0.4,1.4c-0.1,0.2-0.2,0.3-0.4,0.4l-54,31.2C148.3,147.7,148.2,147.8,148,147.8z
		 M132,136.4l16,9.2l52-30l-16-9.2L132,136.4z"/>
	<polygon class="st2" points="202,115.6 184,126 166,136.4 148,146.8 148,170.8 166,160.4 184,150 202,139.6 202,139.6 	"/>
	<path class="st0" d="M148,171.8c-0.6,0-1-0.4-1-1v-24c0-0.4,0.2-0.7,0.5-0.9l54-31.2c0.5-0.3,1.1-0.1,1.4,0.4
		c0.1,0.2,0.1,0.3,0.1,0.5v24c0,0.4-0.2,0.7-0.5,0.9l-54,31.2C148.3,171.7,148.2,171.8,148,171.8z M149,147.4v21.7l52-30v-21.7
		L149,147.4z"/>
	<polygon class="st2" points="130,160.4 148,170.8 148,146.8 130,136.4 	"/>
	<path class="st0" d="M148,171.8c-0.2,0-0.3,0-0.5-0.1l-18-10.4c-0.3-0.2-0.5-0.5-0.5-0.9v-24c0-0.6,0.4-1,1-1c0.2,0,0.3,0,0.5,0.1
		l18,10.4c0.3,0.2,0.5,0.5,0.5,0.9v24C149,171.3,148.6,171.8,148,171.8z M131,159.8l16,9.2v-21.7l-16-9.2V159.8z"/>
	<path class="st3" d="M148,171.8c-0.2,0-0.3,0-0.5-0.1l-18-10.4c-0.3-0.2-0.5-0.5-0.5-0.9v-24c0-0.4,0.2-0.7,0.5-0.9l54-31.2
		c0.3-0.2,0.7-0.2,1,0l18,10.4c0.3,0.2,0.5,0.5,0.5,0.9v24c0,0.4-0.2,0.7-0.5,0.9l-54,31.2C148.3,171.7,148.2,171.8,148,171.8z
		 M131,159.8l17,9.8l53-30.6v-22.8l-17-9.8L131,137V159.8z"/>
	<polygon class="st1" points="220,105.2 220,105.2 202,115.6 184,126 166,136.4 184,146.8 202,136.4 220,126 238,115.6 238,115.6 	
		"/>
	<polygon class="st4" points="238,115.6 220,126 202,136.4 184,146.8 184,170.8 202,160.4 220,150 238,139.6 238,139.6 	"/>
	<polygon class="st1" points="166,160.4 184,170.8 184,146.8 166,136.4 	"/>
	<path class="st5" d="M184,147.8c-0.2,0-0.3,0-0.5-0.1l-18-10.4c-0.5-0.3-0.6-0.9-0.4-1.4c0.1-0.2,0.2-0.3,0.4-0.4l54-31.2
		c0.3-0.2,0.7-0.2,1,0l18,10.4c0.5,0.3,0.6,0.9,0.4,1.4c-0.1,0.2-0.2,0.3-0.4,0.4l-54,31.2C184.3,147.7,184.2,147.8,184,147.8z
		 M168,136.4l16,9.2l52-30l-16-9.2L168,136.4z"/>
	<path class="st5" d="M184,171.8c-0.6,0-1-0.4-1-1v-24c0-0.4,0.2-0.7,0.5-0.9l54-31.2c0.5-0.3,1.1-0.1,1.4,0.4
		c0.1,0.2,0.1,0.3,0.1,0.5v24c0,0.4-0.2,0.7-0.5,0.9l-54,31.2C184.3,171.7,184.2,171.8,184,171.8z M185,147.4v21.7l52-30v-21.7
		L185,147.4z"/>
	<path class="st5" d="M184,171.8c-0.2,0-0.3,0-0.5-0.1l-18-10.4c-0.3-0.2-0.5-0.5-0.5-0.9v-24c0-0.6,0.4-1,1-1c0.2,0,0.3,0,0.5,0.1
		l18,10.4c0.3,0.2,0.5,0.5,0.5,0.9v24C185,171.3,184.6,171.8,184,171.8z M167,159.8l16,9.2v-21.7l-16-9.2V159.8z"/>
	<path class="st6" d="M184,171.8c-0.2,0-0.3,0-0.5-0.1l-18-10.4c-0.3-0.2-0.5-0.5-0.5-0.9v-24c0-0.4,0.2-0.7,0.5-0.9l54-31.2
		c0.3-0.2,0.7-0.2,1,0l18,10.4c0.3,0.2,0.5,0.5,0.5,0.9v24c0,0.4-0.2,0.7-0.5,0.9l-54,31.2C184.3,171.7,184.2,171.8,184,171.8z
		 M167,159.8l17,9.8l53-30.6v-22.8l-17-9.8L167,137V159.8z"/>
	<polygon class="st2" points="238,115.6 220,126 202,136.4 220,146.8 238,136.4 238,136.4 256,126 	"/>
	<path class="st1" d="M220,147.8c-0.2,0-0.3,0-0.5-0.1l-18-10.4c-0.5-0.3-0.6-0.9-0.4-1.4c0.1-0.2,0.2-0.3,0.4-0.4l36-20.8
		c0.3-0.2,0.7-0.2,1,0l18,10.4c0.5,0.3,0.6,0.9,0.4,1.4c-0.1,0.2-0.2,0.3-0.4,0.4l-36,20.8C220.3,147.7,220.2,147.8,220,147.8z
		 M204,136.4l16,9.2l34-19.6l-16-9.2L204,136.4z"/>
	<polygon class="st0" points="220,170.8 220,146.8 202,136.4 202,160.4 	"/>
	<path class="st1" d="M220,171.8c-0.2,0-0.3,0-0.5-0.1l-18-10.4c-0.3-0.2-0.5-0.5-0.5-0.9v-24c0-0.6,0.4-1,1-1c0.2,0,0.3,0,0.5,0.1
		l18,10.4c0.3,0.2,0.5,0.5,0.5,0.9v24C221,171.3,220.6,171.8,220,171.8z M203,159.8l16,9.2v-21.7l-16-9.2V159.8z"/>
	<path class="st3" d="M220,171.8c-0.2,0-0.3,0-0.5-0.1l-18-10.4c-0.3-0.2-0.5-0.5-0.5-0.9v-24c0-0.4,0.2-0.7,0.5-0.9l36-20.8
		c0.3-0.2,0.7-0.2,1,0l18,10.4c0.5,0.3,0.6,0.9,0.4,1.4c-0.1,0.2-0.2,0.3-0.4,0.4L221,147.4v23.4C221,171.3,220.6,171.8,220,171.8z
		 M203,159.8l16,9.2v-22.3c0-0.4,0.2-0.7,0.5-0.9L254,126l-16-9.2L203,137V159.8z"/>
	<polygon class="st1" points="292,105.2 274,115.6 256,126 238,136.4 220,146.8 238,157.2 256,146.8 274,136.4 292,126 310,115.6 	
		"/>
	<path class="st0" d="M238,158.2c-0.2,0-0.3,0-0.5-0.1l-18-10.4c-0.5-0.3-0.6-0.9-0.4-1.4c0.1-0.2,0.2-0.3,0.4-0.4l72-41.6
		c0.3-0.2,0.7-0.2,1,0l18,10.4c0.5,0.3,0.6,0.9,0.4,1.4c-0.1,0.2-0.2,0.3-0.4,0.4l-72,41.6C238.3,158.1,238.2,158.2,238,158.2z
		 M222,146.8l16,9.2l70-40.4l-16-9.2L222,146.8z"/>
	<polygon class="st2" points="292,126 274,136.4 256,146.8 238,157.2 238,181.2 256,170.8 274,160.4 292,150 310,139.6 310,115.6 	
		"/>
	<path class="st0" d="M238,182.2c-0.6,0-1-0.4-1-1v-24c0-0.4,0.2-0.7,0.5-0.9l54-31.2l0,0l18-10.4c0.5-0.3,1.1-0.1,1.4,0.4
		c0.1,0.2,0.1,0.3,0.1,0.5v24c0,0.4-0.2,0.7-0.5,0.9l-72,41.6C238.3,182.1,238.2,182.2,238,182.2z M239,157.8v21.7l70-40.4v-21.7
		L239,157.8z"/>
	<polygon class="st2" points="220,170.8 238,181.2 238,157.2 220,146.8 	"/>
	<path class="st0" d="M238,182.2c-0.2,0-0.3,0-0.5-0.1l-18-10.4c-0.3-0.2-0.5-0.5-0.5-0.9v-24c0-0.6,0.4-1,1-1c0.2,0,0.3,0,0.5,0.1
		l18,10.4c0.3,0.2,0.5,0.5,0.5,0.9v24C239,181.7,238.6,182.2,238,182.2z M221,170.2l16,9.2v-21.7l-16-9.2V170.2z"/>
	<path class="st3" d="M238,182.2c-0.2,0-0.3,0-0.5-0.1l-18-10.4c-0.3-0.2-0.5-0.5-0.5-0.9v-24c0-0.4,0.2-0.7,0.5-0.9l72-41.6
		c0.3-0.2,0.7-0.2,1,0l18,10.4c0.3,0.2,0.5,0.5,0.5,0.9v24c0,0.4-0.2,0.7-0.5,0.9l-72,41.6C238.3,182.1,238.2,182.2,238,182.2z
		 M221,170.2l17,9.8l71-41v-22.8l-17-9.8l-71,41V170.2z"/>
	<rect y="50" class="st7" width="440" height="200"/>
	<rect class="st7" width="440" height="300"/>
</g>
</svg>
