<?xml version="1.0" encoding="utf-8"?>
<!-- Generator: Adobe Illustrator 24.1.2, SVG Export Plug-In . SVG Version: 6.00 Build 0)  -->
<svg version="1.1" id="Layer_1" xmlns="http://www.w3.org/2000/svg" xmlns:xlink="http://www.w3.org/1999/xlink" x="0px" y="0px"
	 width="128px" height="128px" viewBox="0 0 128 128" style="enable-background:new 0 0 128 128;" xml:space="preserve">
<style type="text/css">
	.st0{fill:#FFFFFF;}
	.st1{fill:#4D9987;}
	.st2{fill:#E9EBDF;}
	.st3{fill:#0E352C;}
	.st4{fill:#27ae60;}
	.st5{fill:none;}
</style>
<g>
	<polygon class="st0" points="2,74.6 53.3,104.2 126,62.3 74.7,34.8 	"/>
	<path class="st1" d="M53.3,105.2c-0.2,0-0.3,0-0.5-0.1L1.5,75.4C1,75.1,0.9,74.5,1.1,74c0.1-0.2,0.2-0.3,0.4-0.4l72.7-39.8
		c0.3-0.2,0.7-0.2,1,0l51.3,27.5c0.5,0.3,0.7,0.9,0.4,1.4c-0.1,0.2-0.2,0.3-0.4,0.4L53.8,105C53.7,105.2,53.5,105.2,53.3,105.2z
		 M4,74.6l49.3,28.5l70.6-40.8L74.7,35.9L4,74.6z"/>
	<path class="st2" d="M118.8,67.4c-0.6,0-1-0.4-1-1v-8.9c0-0.6,0.4-1,1-1s1,0.4,1,1v8.9C119.8,67,119.4,67.4,118.8,67.4z"/>
	<polygon class="st2" points="53.3,104.2 53.3,95.4 126,53.4 126,62.3 	"/>
	<path class="st1" d="M53.3,105.2c-0.6,0-1-0.4-1-1v-8.9c0-0.4,0.2-0.7,0.5-0.9l72.7-41.9c0.5-0.3,1.1-0.1,1.4,0.4
		c0.1,0.2,0.1,0.3,0.1,0.5v8.9c0,0.4-0.2,0.7-0.5,0.9l-72.7,41.9C53.7,105.2,53.5,105.2,53.3,105.2z M54.3,95.9v6.5L125,61.7v-6.5
		L54.3,95.9z"/>
	<polygon class="st0" points="53.3,104.2 53.3,95.4 2,65.7 2,74.6 	"/>
	<path class="st1" d="M53.3,105.2c-0.2,0-0.3,0-0.5-0.1L1.5,75.4C1.2,75.3,1,74.9,1,74.6v-8.9c0-0.6,0.4-1,1-1c0.2,0,0.3,0,0.5,0.1
		l51.3,29.6c0.3,0.2,0.5,0.5,0.5,0.9v8.9C54.3,104.8,53.9,105.2,53.3,105.2L53.3,105.2z M3,74l49.3,28.5V96L3,67.5V74z"/>
	<polygon class="st2" points="9.2,78.7 2,74.6 2,65.7 9.2,69.9 	"/>
	<path class="st1" d="M9.2,79.7c-0.2,0-0.3,0-0.5-0.1l-7.2-4.1C1.2,75.3,1,74.9,1,74.6v-8.9c0-0.6,0.4-1,1-1c0.2,0,0.3,0,0.5,0.1
		L9.7,69c0.3,0.2,0.5,0.5,0.5,0.9v8.9C10.2,79.3,9.7,79.7,9.2,79.7L9.2,79.7z M3,74l5.2,3v-6.5l-5.2-3V74z"/>
	<path class="st1" d="M53.3,105.2c-0.2,0-0.3,0-0.5-0.1L1.5,75.4C1.2,75.3,1,74.9,1,74.6v-8.9c0-0.6,0.4-1,1-1c0.2,0,0.3,0,0.5,0.1
		l51.3,29.6c0.3,0.2,0.5,0.5,0.5,0.9v8.9C54.3,104.8,53.9,105.2,53.3,105.2L53.3,105.2z M3,74l49.3,28.5V96L3,67.5V74z"/>
	<polygon class="st0" points="2,65.7 53.3,95.4 126,53.4 74.7,23.8 	"/>
	<path class="st1" d="M53.3,96.4c-0.2,0-0.3,0-0.5-0.1L1.5,66.6c-0.5-0.3-0.6-0.9-0.4-1.4c0.1-0.2,0.2-0.3,0.4-0.4l72.7-41.9
		c0.3-0.2,0.7-0.2,1,0l51.3,29.6c0.5,0.3,0.6,0.9,0.4,1.4c-0.1,0.2-0.2,0.3-0.4,0.4L53.8,96.2C53.7,96.3,53.5,96.4,53.3,96.4z
		 M4,65.7l49.3,28.5L124,53.4L74.7,24.9L4,65.7z"/>
	<polygon class="st2" points="81.8,27.9 9.2,69.9 2,65.7 74.7,23.8 	"/>
	<path class="st1" d="M9.2,70.9c-0.2,0-0.3,0-0.5-0.1l-7.2-4.1c-0.5-0.3-0.6-0.9-0.4-1.4c0.1-0.2,0.2-0.3,0.4-0.4L74.2,23
		c0.3-0.2,0.7-0.2,1,0l7.2,4.1c0.5,0.3,0.6,0.9,0.4,1.4c-0.1,0.2-0.2,0.3-0.4,0.4L9.7,70.7C9.5,70.8,9.4,70.9,9.2,70.9z M4,65.7
		l5.2,3l70.7-40.8l-5.2-3L4,65.7z"/>
	<path class="st1" d="M53.3,96.4c-0.2,0-0.3,0-0.5-0.1L1.5,66.6c-0.5-0.3-0.6-0.9-0.4-1.4c0.1-0.2,0.2-0.3,0.4-0.4l72.7-41.9
		c0.3-0.2,0.7-0.2,1,0l51.3,29.6c0.5,0.3,0.6,0.9,0.4,1.4c-0.1,0.2-0.2,0.3-0.4,0.4L53.8,96.2C53.7,96.3,53.5,96.4,53.3,96.4z
		 M4,65.7l49.3,28.5L124,53.4L74.7,24.9L4,65.7z"/>
	<path class="st3" d="M53.3,105.2c-0.2,0-0.3,0-0.5-0.1L1.5,75.4C1.2,75.3,1,74.9,1,74.6v-8.9c0-0.4,0.2-0.7,0.5-0.9l72.7-41.9
		c0.3-0.2,0.7-0.2,1,0l51.3,29.6c0.3,0.2,0.5,0.5,0.5,0.9v8.9c0,0.4-0.2,0.7-0.5,0.9l-72.7,41.9C53.7,105.2,53.5,105.2,53.3,105.2z
		 M3,74l50.3,29.1L125,61.7V54L81.3,28.8l0,0l-6.7-3.9L3,66.3V74z"/>
	<path class="st2" d="M108.1,54.8c-0.2,0-0.3,0-0.5-0.1L80.7,39.2c-0.5-0.3-0.6-0.9-0.4-1.4c0.3-0.5,0.9-0.6,1.4-0.4l26.9,15.5
		c0.5,0.3,0.6,0.9,0.4,1.4C108.8,54.6,108.5,54.8,108.1,54.8z"/>
	<path class="st2" d="M72.7,75.3c-0.2,0-0.3,0-0.5-0.1l-27-15.5c-0.5-0.3-0.6-0.9-0.4-1.4s0.9-0.6,1.4-0.4l26.9,15.5
		c0.5,0.3,0.6,0.9,0.4,1.4C73.4,75.1,73,75.3,72.7,75.3z"/>
	<path class="st2" d="M90.4,65.1c-0.2,0-0.3,0-0.5-0.1l-27-15.5c-0.5-0.3-0.6-0.9-0.4-1.4s0.9-0.6,1.4-0.4l26.9,15.5
		c0.5,0.3,0.6,0.9,0.4,1.4C91.1,64.9,90.7,65.1,90.4,65.1L90.4,65.1z"/>
	<path class="st2" d="M72.7,75.3c-0.2,0-0.3,0-0.5-0.1l-27-15.5c-0.5-0.3-0.6-0.9-0.4-1.4s0.9-0.6,1.4-0.4l26.9,15.5
		c0.5,0.3,0.6,0.9,0.4,1.4C73.4,75.1,73,75.3,72.7,75.3z"/>
	<path class="st2" d="M55,85.6c-0.2,0-0.3,0-0.5-0.1L27.5,70c-0.5-0.3-0.6-0.9-0.4-1.4c0.3-0.5,0.9-0.6,1.4-0.4l26.9,15.5
		c0.5,0.3,0.6,0.9,0.4,1.4C55.6,85.4,55.3,85.6,55,85.6L55,85.6z"/>
	<polygon class="st0" points="81.2,38.3 108.1,53.8 55,84.6 42.1,77.2 51.2,70.6 52.4,62.6 61.9,55.9 73.5,54.3 79.8,46.1 	"/>
	<path class="st4" d="M55,85.6c-0.2,0-0.3,0-0.5-0.1l-12.8-7.4c-0.5-0.3-0.6-0.9-0.4-1.4c0.1-0.1,0.2-0.2,0.3-0.3l8.8-6.3l1.1-7.6
		c0-0.3,0.2-0.5,0.4-0.7l9.5-6.8c0.1-0.1,0.3-0.2,0.4-0.2L73,53.3l5.9-7.7l1.4-7.5c0.1-0.5,0.6-0.9,1.2-0.8c0.1,0,0.2,0.1,0.3,0.1
		l26.9,15.5c0.5,0.3,0.6,0.9,0.4,1.4c-0.1,0.2-0.2,0.3-0.4,0.4L55.5,85.4C55.3,85.5,55.1,85.6,55,85.6z M44,77.1l11,6.3l51.1-29.6
		L81.9,39.9l-1.1,6.4c0,0.2-0.1,0.3-0.2,0.4L74.3,55c-0.2,0.2-0.4,0.4-0.7,0.4l-11.4,1.5l-8.9,6.4l-1.1,7.6c0,0.3-0.2,0.5-0.4,0.7
		L44,77.1z"/>
	<path class="st4" d="M90.4,65.1c-0.2,0-0.3,0-0.5-0.1L73,55.2c-0.5-0.3-0.6-0.9-0.4-1.4c0.3-0.5,0.9-0.6,1.4-0.4l16.9,9.7
		c0.5,0.3,0.6,0.9,0.4,1.4C91.1,64.9,90.7,65.1,90.4,65.1L90.4,65.1z"/>
	<path class="st4" d="M72.7,75.3c-0.2,0-0.3,0-0.5-0.1L51.9,63.5c-0.5-0.3-0.6-0.9-0.4-1.4s0.9-0.6,1.4-0.4l20.3,11.7
		c0.5,0.3,0.6,0.9,0.4,1.4C73.4,75.1,73,75.3,72.7,75.3z"/>
	<rect x="1" y="1" class="st5" width="126" height="126"/>
	<g>
		<rect class="st5" width="128" height="128"/>
	</g>
</g>
</svg>
