<?xml version="1.0" encoding="utf-8"?>
<!-- Generator: Adobe Illustrator 24.1.2, SVG Export Plug-In . SVG Version: 6.00 Build 0)  -->
<svg version="1.1" id="Layer_1" xmlns="http://www.w3.org/2000/svg" xmlns:xlink="http://www.w3.org/1999/xlink" x="0px" y="0px"
	 width="128px" height="128px" viewBox="0 0 128 128" style="enable-background:new 0 0 128 128;" xml:space="preserve">
<style type="text/css">
	.st0{fill:#FFFFFF;}
	.st1{fill:#4D9987;}
	.st2{fill:#E9EBDF;}
	.st3{fill:#0E352C;}
	.st4{fill:none;}
</style>
<g>
	<polygon class="st0" points="2,65.8 79.1,21.2 126,48.3 48.9,92.8 	"/>
	<path class="st1" d="M48.9,93.8c-0.2,0-0.3,0-0.5-0.1L1.5,66.6c-0.5-0.3-0.6-0.9-0.4-1.4c0.1-0.2,0.2-0.3,0.4-0.4l77.1-44.5
		c0.3-0.2,0.7-0.2,1,0l46.9,27.1c0.5,0.3,0.6,0.9,0.4,1.4c-0.1,0.2-0.2,0.3-0.4,0.4L49.4,93.7C49.2,93.8,49,93.8,48.9,93.8z M4,65.8
		l44.9,25.9L124,48.3L79.1,22.4L4,65.8z"/>
	<path class="st1" d="M48.9,93.8c-0.2,0-0.3,0-0.5-0.1L23.7,79.4c-0.5-0.3-0.6-0.9-0.4-1.4c0.1-0.2,0.2-0.3,0.4-0.4l15.8-9.1
		c0.3-0.2,0.7-0.2,1,0l24.7,14.2c0.5,0.3,0.6,0.9,0.4,1.4c-0.1,0.2-0.2,0.3-0.4,0.4l-15.8,9.1C49.2,93.8,49,93.8,48.9,93.8z
		 M26.2,78.6l22.7,13.1l13.8-8L40,70.6L26.2,78.6z"/>
	<path class="st1" d="M24.2,79.6c-0.2,0-0.3,0-0.5-0.1L1.5,66.6c-0.5-0.3-0.6-0.9-0.4-1.4c0.1-0.2,0.2-0.3,0.4-0.4L23.7,52
		c0.3-0.2,0.7-0.2,1,0l15.8,9.1c2,1.2,3.1,2.8,3.1,4.5c0,1.7-1.1,3.4-3.1,4.5l-15.8,9.1C24.5,79.5,24.4,79.6,24.2,79.6z M4,65.8
		l20.2,11.7l15.3-8.8l0.5,0.9l-0.5-0.9c1.4-0.8,2.1-1.8,2.1-2.8s-0.8-2-2.1-2.8l-15.3-8.8L4,65.8z"/>
	<ellipse class="st2" cx="77.8" cy="49" rx="26.9" ry="15.5"/>
	<path class="st3" d="M77.8,65.5c-7.1,0-14.1-1.6-19.5-4.7c-5.4-3-8.3-7.3-8.3-11.8s3-8.7,8.4-11.8c10.8-6.2,28.2-6.2,39,0
		c5.4,3.1,8.4,7.3,8.4,11.8s-3,8.7-8.4,11.8C92,64,84.9,65.5,77.8,65.5z M77.8,34.5c-6.7,0-13.4,1.5-18.5,4.4
		C54.6,41.7,52,45.3,52,49s2.6,7.4,7.4,10.1c10.2,5.9,26.8,5.9,37,0c4.8-2.7,7.4-6.3,7.4-10.1s-2.6-7.4-7.4-10.1
		C91.2,36,84.5,34.5,77.8,34.5z"/>
	<polygon class="st2" points="126,48.3 126,62.2 48.9,106.8 48.9,92.8 	"/>
	<path class="st1" d="M48.9,107.8c-0.6,0-1-0.4-1-1v-14c0-0.4,0.2-0.7,0.5-0.9l77.1-44.5c0.5-0.3,1.1-0.1,1.4,0.4
		c0.1,0.2,0.1,0.3,0.1,0.5v14c0,0.4-0.2,0.7-0.5,0.9l-77.1,44.5C49.2,107.7,49,107.8,48.9,107.8z M49.9,93.4V105L125,61.7V50
		L49.9,93.4z"/>
	<path class="st1" d="M48.9,107.8c-0.6,0-1-0.4-1-1v-14c0-0.4,0.2-0.7,0.5-0.9l77.1-44.5c0.5-0.3,1.1-0.1,1.4,0.4
		c0.1,0.2,0.1,0.3,0.1,0.5v14c0,0.4-0.2,0.7-0.5,0.9l-77.1,44.5C49.2,107.7,49,107.8,48.9,107.8z M49.9,93.4V105L125,61.7V50
		L49.9,93.4z"/>
	<polygon class="st2" points="2,65.8 2,79.7 48.9,106.8 48.9,92.8 	"/>
	<path class="st1" d="M48.9,107.8c-0.2,0-0.3,0-0.5-0.1L1.5,80.6C1.2,80.4,1,80.1,1,79.7v-14c0-0.6,0.4-1,1-1c0.2,0,0.3,0,0.5,0.1
		L49.4,92c0.3,0.2,0.5,0.5,0.5,0.9v14C49.9,107.3,49.4,107.8,48.9,107.8z M3,79.1L47.9,105V93.4L3,67.5V79.1z"/>
	<path class="st2" d="M17.3,64.1L17.3,64.1c-1-2.1,1.5-4.3,5.2-4.6l41-3.4c1.5-0.1,2.1,1.1,0.7,1.5l-38.4,8.9
		C22.3,67.3,18.3,66.2,17.3,64.1z"/>
	<path class="st3" d="M23.5,67.8c-3.2,0-6.1-1.3-7-3.3l0,0c-0.5-1-0.4-2.1,0.2-3c0.9-1.6,3.2-2.7,5.9-3l41-3.4
		c1.5-0.1,2.4,0.7,2.6,1.5c0.1,0.7-0.3,1.6-1.6,1.9l-38.4,8.9C25.2,67.7,24.3,67.8,23.5,67.8z M18.2,63.7c0.7,1.5,4.1,2.7,7.4,1.9
		l35.2-8.2l-38.2,3.1c-2.5,0.2-3.9,1.2-4.4,2C18.1,62.8,18,63.3,18.2,63.7z"/>
	<path class="st2" d="M17.3,64.1L17.3,64.1c-1-2.1,1.5-4.3,5.2-4.6l41-3.4c1.5-0.1,2.1,1.1,0.7,1.5l-38.4,8.9
		C22.3,67.3,18.3,66.2,17.3,64.1z"/>
	<path class="st3" d="M23.5,67.8c-3.2,0-6.1-1.3-7-3.3l0,0c-0.5-1-0.4-2.1,0.2-3c0.9-1.6,3.2-2.7,5.9-3l41-3.4
		c1.5-0.1,2.4,0.7,2.6,1.5c0.1,0.7-0.3,1.6-1.6,1.9l-38.4,8.9C25.2,67.7,24.3,67.8,23.5,67.8z M18.2,63.7c0.7,1.5,4.1,2.7,7.4,1.9
		l35.2-8.2l-38.2,3.1c-2.5,0.2-3.9,1.2-4.4,2C18.1,62.8,18,63.3,18.2,63.7z"/>
	<ellipse class="st3" cx="24" cy="63" rx="1.8" ry="1"/>
	<path class="st1" d="M48.9,93.8c-0.2,0-0.3,0-0.5-0.1L1.5,66.6c-0.5-0.3-0.6-0.9-0.4-1.4c0.1-0.2,0.2-0.3,0.4-0.4l77.1-44.5
		c0.3-0.2,0.7-0.2,1,0l46.9,27.1c0.5,0.3,0.6,0.9,0.4,1.4c-0.1,0.2-0.2,0.3-0.4,0.4L49.4,93.7C49.2,93.8,49,93.8,48.9,93.8z M4,65.8
		l44.9,25.9L124,48.3L79.1,22.4L4,65.8z"/>
	<ellipse class="st0" cx="77.8" cy="49" rx="6.4" ry="3.7"/>
	<path class="st1" d="M77.8,53.7c-1.8,0-3.5-0.4-5-1.2l0,0c-1.4-0.6-2.3-2-2.4-3.5c0.1-1.5,1-2.8,2.4-3.5c3.2-1.6,6.9-1.6,10,0
		c1.4,0.6,2.3,2,2.4,3.5c-0.1,1.5-1,2.8-2.4,3.5C81.3,53.3,79.6,53.8,77.8,53.7z M73.8,50.8c2.5,1.3,5.5,1.3,8,0
		c0.9-0.5,1.4-1.1,1.4-1.7s-0.5-1.2-1.4-1.7c-2.5-1.3-5.5-1.3-8,0c-0.9,0.5-1.4,1.1-1.4,1.7S72.9,50.3,73.8,50.8z"/>
	<path class="st3" d="M48.9,107.8c-0.2,0-0.3,0-0.5-0.1L1.5,80.6C1.2,80.4,1,80.1,1,79.7v-14c0-0.4,0.2-0.7,0.5-0.9l77.1-44.5
		c0.3-0.2,0.7-0.2,1,0l46.9,27.1c0.3,0.2,0.5,0.5,0.5,0.9v14c0,0.4-0.2,0.7-0.5,0.9l-77.1,44.5C49.2,107.7,49,107.8,48.9,107.8z
		 M3,79.1l45.9,26.5l76.1-44V48.9L79.1,22.4L3,66.3V79.1z"/>
	<rect x="1" y="1" class="st4" width="126" height="126"/>
	<g>
		<rect class="st4" width="128" height="128"/>
	</g>
</g>
</svg>
