<?xml version="1.0" encoding="utf-8"?>
<!-- Generator: Adobe Illustrator 24.1.2, SVG Export Plug-In . SVG Version: 6.00 Build 0)  -->
<svg version="1.1" id="Layer_1" xmlns="http://www.w3.org/2000/svg" xmlns:xlink="http://www.w3.org/1999/xlink" x="0px" y="0px"
	 width="128px" height="128px" viewBox="0 0 128 128" style="enable-background:new 0 0 128 128;" xml:space="preserve">
<style type="text/css">
	.st0{fill:#E9EBDF;}
	.st1{fill:#4D9987;}
	.st2{fill:#FFFFFF;}
	.st3{fill:#0E352C;}
	.st4{fill:none;}
</style>
<g>
	<polygon class="st0" points="31.2,96.8 19.2,62.1 31.2,41.4 55.2,55.2 67.2,89.9 55.2,110.6 	"/>
	<path class="st1" d="M55.2,111.6c-0.2,0-0.3,0-0.5-0.1l-24-13.9c-0.2-0.1-0.4-0.3-0.4-0.5l-12-34.6c-0.1-0.3-0.1-0.6,0.1-0.8
		l12-20.8c0.3-0.5,0.9-0.6,1.4-0.4l24,13.9c0.2,0.1,0.4,0.3,0.4,0.5l12,34.6c0.1,0.3,0.1,0.6-0.1,0.8l-12,20.8
		C55.9,111.5,55.6,111.6,55.2,111.6z M32,96.1l22.8,13.2l11.3-19.5L54.4,55.9L31.6,42.7L20.3,62.2L32,96.1z"/>
	<polygon class="st2" points="96.8,31.2 55.2,55.2 31.2,41.4 72.8,17.4 	"/>
	<path class="st1" d="M55.2,56.2c-0.2,0-0.3,0-0.5-0.1l-24-13.9c-0.5-0.3-0.6-0.9-0.4-1.4c0.1-0.2,0.2-0.3,0.4-0.4l41.6-24
		c0.3-0.2,0.7-0.2,1,0l24,13.9c0.5,0.3,0.6,0.9,0.4,1.4c-0.1,0.2-0.2,0.3-0.4,0.4l-41.6,24C55.6,56.2,55.4,56.2,55.2,56.2z
		 M33.2,41.4l22,12.7l39.6-22.8l-22-12.7L33.2,41.4z"/>
	<polygon class="st0" points="55.2,55.2 96.8,31.2 108.8,65.9 67.2,89.9 	"/>
	<path class="st1" d="M67.2,90.9c-0.1,0-0.2,0-0.3-0.1c-0.3-0.1-0.5-0.3-0.6-0.6l-12-34.6c-0.2-0.5,0-1,0.4-1.2l41.6-24
		c0.5-0.3,1.1-0.1,1.4,0.4c0,0.1,0.1,0.1,0.1,0.2l12,34.6c0.2,0.5,0,1-0.4,1.2l-41.6,24C67.6,90.8,67.4,90.9,67.2,90.9z M56.4,55.7
		l11.3,32.7l39.8-23L96.2,32.7L56.4,55.7z"/>
	<polygon class="st1" points="108.8,65.9 96.8,86.6 55.2,110.6 67.2,89.9 	"/>
	<path class="st1" d="M55.2,111.6c-0.6,0-1-0.4-1-1c0-0.2,0-0.3,0.1-0.5l12-20.8c0.1-0.2,0.2-0.3,0.4-0.4l41.6-24
		c0.5-0.3,1.1-0.1,1.4,0.4c0.2,0.3,0.2,0.7,0,1l-12,20.8c-0.1,0.2-0.2,0.3-0.4,0.4l-41.6,24C55.6,111.6,55.4,111.6,55.2,111.6z
		 M67.9,90.6l-10,17.3l38.1-22l10-17.3L67.9,90.6z"/>
	<path class="st3" d="M55.2,111.6c-0.2,0-0.3,0-0.5-0.1l-24-13.9c-0.2-0.1-0.4-0.3-0.4-0.5l-12-34.6c-0.1-0.3-0.1-0.6,0.1-0.8
		l12-20.8c0.1-0.2,0.2-0.3,0.4-0.4l41.6-24c0.3-0.2,0.7-0.2,1,0l24,13.9c0.2,0.1,0.4,0.3,0.4,0.5l12,34.6c0.1,0.3,0.1,0.6-0.1,0.8
		l-12,20.8c-0.1,0.2-0.2,0.3-0.4,0.4l-41.6,24C55.6,111.6,55.4,111.6,55.2,111.6z M32,96.1l23.2,13.4L96,85.9l11.6-20.2L96,31.9
		L72.8,18.5L31.9,42.1L20.3,62.2L32,96.1z"/>
	<rect x="1" y="1" class="st4" width="126" height="126"/>
	<g>
		<rect class="st4" width="128" height="128"/>
	</g>
</g>
</svg>
