<?xml version="1.0" encoding="utf-8"?>
<!-- Generator: Adobe Illustrator 24.1.2, SVG Export Plug-In . SVG Version: 6.00 Build 0)  -->
<svg version="1.1" id="Layer_1" xmlns="http://www.w3.org/2000/svg" xmlns:xlink="http://www.w3.org/1999/xlink" x="0px" y="0px"
	 width="128px" height="128px" viewBox="0 0 128 128" style="enable-background:new 0 0 128 128;" xml:space="preserve">
<style type="text/css">
	.st0{fill:#FFFFFF;}
	.st1{fill:#4D9987;}
	.st2{fill:#E9EBDF;}
	.st3{fill:#0E352C;}
	.st4{fill:none;}
</style>
<g>
	<polygon class="st0" points="46,70 28,52 46,34 82,34 100,52 82,70 	"/>
	<path class="st1" d="M82,71H46c-0.3,0-0.5-0.1-0.7-0.3l-18-18c-0.4-0.4-0.4-1,0-1.4l18-18c0.2-0.2,0.4-0.3,0.7-0.3h36
		c0.3,0,0.5,0.1,0.7,0.3l18,18c0.4,0.4,0.4,1,0,1.4l-18,18C82.5,70.9,82.3,71,82,71z M46.4,69h35.2l17-17l-17-17H46.4l-17,17
		L46.4,69z"/>
	<polygon class="st1" points="100,52 100,76 82,94 82,70 	"/>
	<path class="st1" d="M82,95c-0.1,0-0.3,0-0.4-0.1C81.2,94.8,81,94.4,81,94V70c0-0.3,0.1-0.5,0.3-0.7l18-18c0.4-0.4,1-0.4,1.4,0
		c0.2,0.2,0.3,0.4,0.3,0.7v24c0,0.3-0.1,0.5-0.3,0.7l-18,18C82.5,94.9,82.3,95,82,95z M83,70.4v21.2l16-16V54.4L83,70.4z"/>
	<rect x="46" y="70" class="st2" width="36" height="24"/>
	<path class="st1" d="M82,95H46c-0.6,0-1-0.4-1-1V70c0-0.6,0.4-1,1-1h36c0.6,0,1,0.4,1,1v24C83,94.6,82.6,95,82,95z M47,93h34V71H47
		V93z"/>
	<polygon class="st0" points="28,52 28,76 46,94 46,70 	"/>
	<path class="st1" d="M46,95c-0.3,0-0.5-0.1-0.7-0.3l-18-18C27.1,76.5,27,76.3,27,76V52c0-0.6,0.4-1,1-1c0.3,0,0.5,0.1,0.7,0.3
		l18,18c0.2,0.2,0.3,0.4,0.3,0.7v24c0,0.4-0.2,0.8-0.6,0.9C46.3,95,46.1,95,46,95z M29,75.6l16,16V70.4l-16-16V75.6z"/>
	<path class="st3" d="M82,95H46c-0.3,0-0.5-0.1-0.7-0.3l-18-18C27.1,76.5,27,76.3,27,76V52c0-0.3,0.1-0.5,0.3-0.7l18-18
		c0.2-0.2,0.4-0.3,0.7-0.3h36c0.3,0,0.5,0.1,0.7,0.3l18,18c0.2,0.2,0.3,0.4,0.3,0.7v24c0,0.3-0.1,0.5-0.3,0.7l-18,18
		C82.5,94.9,82.3,95,82,95z M46.4,93h35.2L99,75.6V52.4L81.6,35H46.4L29,52.4v23.2L46.4,93z"/>
	<rect x="1" y="1" class="st4" width="126" height="126"/>
	<g>
		<rect class="st4" width="128" height="128"/>
	</g>
</g>
</svg>
