<?xml version="1.0" encoding="utf-8"?>
<!-- Generator: Adobe Illustrator 24.1.2, SVG Export Plug-In . SVG Version: 6.00 Build 0)  -->
<svg version="1.1" id="Layer_1" xmlns="http://www.w3.org/2000/svg" xmlns:xlink="http://www.w3.org/1999/xlink" x="0px" y="0px"
	 width="440px" height="300.6px" viewBox="0 0 440 300.6" style="enable-background:new 0 0 440 300.6;" xml:space="preserve">
<style type="text/css">
	.st0{fill:#E9EBDF;}
	.st1{fill:#4D9987;}
	.st2{fill:#FFFFFF;}
	.st3{fill:#0E352C;}
	.st4{fill:none;}
</style>
<g>
	<g>
		<path class="st0" d="M352.3,96.6L199,8.1c-1-0.6-2.2-0.8-3.3-0.6l0,0l-8.9,2l4.2,7.1l-28.4,115.8L310.9,218l6.5,10.9l6.9-1.6
			c1.2-0.3,2.2-1.2,2.5-2.4L356,105.6C356.8,102.2,355.3,98.6,352.3,96.6z"/>
		<path class="st1" d="M356.1,102.4l-109.2,24.8c0,0-3.9,28.8-8.5,49l72.5,41.9l6.5,10.9l6.9-1.6c1.2-0.3,2.2-1.2,2.5-2.4L356,105.6
			C356.3,104.6,356.3,103.5,356.1,102.4z"/>
		<path class="st0" d="M296.6,225.9l-142.9-82.5l-85.1,49.1L58.2,191v8.9c0.1,1.1,0.8,2,1.7,2.4l155.2,89.6c2.6,1.3,5.8,1.3,8.4,0
			l91.6-52.9c1.4-0.8,2.2-2.2,2.2-3.8v-6.4L296.6,225.9z"/>
		<path class="st1" d="M219.4,294c-1.6,0-3.3-0.4-4.7-1.1L59.5,203.3c-1.3-0.6-2.2-1.9-2.2-3.3v-8.9c0-0.6,0.4-1,1-1h0.1l10,1.5
			l84.8-49c0.3-0.2,0.7-0.2,1,0L297,224.9l20.5,3c0.5,0.1,0.9,0.5,0.9,1v6.4c0,1.9-1,3.7-2.7,4.7l-91.6,52.9
			C222.7,293.7,221.1,294.1,219.4,294z M59.2,192.2v7.8c0,0.5,0.5,1.1,1.2,1.6l155.2,89.6c2.3,1.2,5.1,1.2,7.4,0l91.6-52.9
			c1.1-0.6,1.7-1.7,1.7-3v-5.5l-19.9-2.9c-0.1,0-0.2-0.1-0.4-0.1l-142.4-82.2l-84.5,48.8c-0.2,0.1-0.4,0.2-0.6,0.1L59.2,192.2z"/>
		<polygon class="st0" points="152.8,247 152.8,250.4 122.4,232.8 122.4,229.5 		"/>
		<path class="st0" d="M152.8,251.4c-0.2,0-0.3,0-0.5-0.1l-30.4-17.5c-0.3-0.2-0.5-0.5-0.5-0.9v-3.4c0-0.6,0.4-1,1-1
			c0.2,0,0.3,0,0.5,0.1l30.4,17.5c0.3,0.2,0.5,0.5,0.5,0.9v3.4C153.8,251,153.3,251.4,152.8,251.4z M123.4,232.3l28.4,16.4v-1
			l-28.4-16.4V232.3z"/>
		<path class="st0" d="M220,181.7V293c1.3,0,2.5-0.4,3.6-1l91.6-52.9c1.4-0.8,2.2-2.2,2.2-3.8v-6.4l-20.7-3L220,181.7z"/>
		<path class="st2" d="M317.4,228.9L223.6,283c-2.6,1.3-5.8,1.3-8.4,0L60,193.5c-2.3-1.3-2.3-3.5,0-4.9l93.8-54.1L317.4,228.9z"/>
		<path class="st1" d="M219.4,285.1c-1.6,0-3.3-0.4-4.7-1.1L59.5,194.3c-1.8-0.7-2.7-2.8-2-4.6c0.4-0.9,1.1-1.6,2-2l93.8-54.1
			c0.3-0.2,0.7-0.2,1,0l163.6,94.5c0.5,0.3,0.6,0.9,0.4,1.4c-0.1,0.2-0.2,0.3-0.4,0.4L224.1,284
			C222.7,284.7,221.1,285.1,219.4,285.1z M153.7,135.6l-93.3,53.8c-0.8,0.5-1.2,1-1.2,1.6s0.5,1.1,1.2,1.6l155.2,89.6
			c2.3,1.2,5.1,1.2,7.4,0l92.3-53.3L153.7,135.6z"/>
		<path class="st0" d="M153.7,134.5l29.8-121.3c0.8-3.3,3.8-4.7,6.6-3l153.3,88.5c3,1.9,4.4,5.5,3.7,9L317.3,229L153.7,134.5z"/>
		<path class="st2" d="M317.4,229.9c-0.2,0-0.3,0-0.5-0.1l-163.6-94.5c-0.4-0.2-0.6-0.7-0.5-1.1l29.8-121.3c0.4-1.8,1.6-3.3,3.2-4.1
			c1.6-0.6,3.4-0.5,4.9,0.4L344,97.8c3.4,2.2,5,6.2,4.2,10.1l-29.8,121.3C318.2,229.6,317.8,229.9,317.4,229.9L317.4,229.9z
			 M154.9,134l161.8,93.4l29.5-120c0.6-3-0.6-6.2-3.2-7.9L189.7,11c-0.9-0.6-2.1-0.7-3.1-0.3c-1.1,0.5-1.9,1.6-2.1,2.8L154.9,134z"
			/>
		<path class="st3" d="M317.4,229.9c-0.2,0-0.3,0-0.5-0.1l-163.6-94.5c-0.4-0.2-0.6-0.7-0.5-1.1l29.8-121.3c0.4-2.1,1.9-3.7,3.9-4.3
			h0.1l8.9-2h0.1c1.3-0.2,2.7,0,3.9,0.7l153.3,88.5c3.4,2.2,5,6.2,4.2,10.1l-29.3,119.3c-0.4,1.6-1.6,2.8-3.2,3.2l-6.9,1.6
			C317.5,229.9,317.5,229.9,317.4,229.9z M154.9,134l162.6,93.9l6.5-1.5c0.9-0.2,1.5-0.9,1.7-1.7l29.4-119.3c0.6-3-0.6-6.2-3.2-7.9
			L198.5,9c-0.8-0.5-1.7-0.7-2.6-0.5h-0.1l-8.6,2h-0.1c-1.3,0.4-2.4,1.5-2.6,2.9L154.9,134z"/>
		<path class="st3" d="M219.4,294c-1.6,0-3.3-0.4-4.7-1.1L59.5,203.3c-1.3-0.6-2.2-1.9-2.2-3.3v-8.9c0.1-1.4,0.9-2.7,2.2-3.3
			l93.8-54.1c0.3-0.2,0.7-0.2,1,0l163.6,94.5c0.3,0.2,0.5,0.5,0.5,0.9v6.4c0,1.9-1,3.7-2.7,4.7l-91.6,52.9
			C222.7,293.7,221.1,294.1,219.4,294z M153.7,135.6l-93.3,53.8c-0.8,0.5-1.2,1-1.2,1.6v8.9c0,0.5,0.5,1.1,1.2,1.6l155.2,89.6
			c2.3,1.2,5.1,1.2,7.4,0l91.6-52.9c1.1-0.6,1.7-1.7,1.7-3v-5.8L153.7,135.6z"/>
		<path class="st0" d="M161.4,131.2l28-113.9l150.8,87.1c0.4,0.5,0.6,1.1,0.6,1.7l-27.7,112.7L161.4,131.2z"/>
		<path class="st2" d="M161.4,131.2l28-113.9l150.8,87.1c0.4,0.5,0.6,1.1,0.6,1.7l-27.7,112.7L161.4,131.2z"/>
		<path class="st0" d="M340.2,104.4L194.4,20.2L307,215.3l6,3.5l27.7-112.7C340.8,105.4,340.6,104.8,340.2,104.4z"/>
		<path class="st1" d="M313.1,219.8c-0.2,0-0.3,0-0.5-0.1l-151.7-87.6c-0.4-0.2-0.6-0.7-0.5-1.1l28-113.9c0.1-0.5,0.7-0.9,1.2-0.7
			c0.1,0,0.2,0.1,0.3,0.1l150.8,87.1c0,0,0.1,0,0.1,0.1c0.7,0.7,1.1,1.7,0.9,2.7L314,219C313.9,219.5,313.5,219.8,313.1,219.8z
			 M162.5,130.7l149.9,86.5l27.4-111.4c0-0.2-0.1-0.5-0.2-0.7L190,18.8L162.5,130.7z"/>
		<path class="st2" d="M180.6,235.3l-37.8-21.9c-2.8-1.4-6-1.4-8.8,0l-19.7,11.4l46.6,26.9l19.7-11.4
			C183,238.9,183,236.7,180.6,235.3z"/>
		<path class="st1" d="M160.9,252.7c-0.2,0-0.3,0-0.5-0.1l-46.6-26.9c-0.5-0.3-0.6-0.9-0.4-1.4c0.1-0.2,0.2-0.3,0.4-0.4l19.7-11.4
			c3.1-1.6,6.7-1.6,9.8,0l37.8,21.8l0,0c1.9,0.7,2.8,2.9,2.1,4.7c-0.4,0.9-1.1,1.7-2.1,2.1l-19.7,11.4
			C161.2,252.7,161.1,252.7,160.9,252.7z M116.3,224.8l44.6,25.7l19.2-11.1c0.8-0.5,1.3-1.1,1.3-1.7s-0.5-1.2-1.3-1.7l-37.8-21.8
			c-2.5-1.2-5.3-1.2-7.8,0L116.3,224.8z"/>
		<path class="st2" d="M234.8,257.7l-130.9-75.6c-2-1.2-2-3,0-4.2l47-27.2c2.3-1.2,5-1.2,7.3,0l130.9,75.6c2,1.2,2,3,0,4.2l-47,27.2
			C239.8,258.9,237.1,258.9,234.8,257.7z"/>
		<path class="st1" d="M238.4,259.6c-1.4,0-2.9-0.3-4.1-1l0,0L103.4,183c-1.6-0.7-2.4-2.5-1.8-4.2c0.3-0.8,1-1.4,1.8-1.8l47-27.2
			c2.6-1.3,5.7-1.3,8.3,0l130.9,75.6c1.6,0.7,2.4,2.5,1.8,4.2c-0.3,0.8-1,1.4-1.8,1.8l-47,27.2C241.3,259.3,239.9,259.6,238.4,259.6
			z M235.3,256.8c2,1,4.3,1,6.3,0l47-27.2c0.6-0.4,1-0.8,1-1.2s-0.4-0.9-1-1.2l-130.9-75.6c-2-1-4.3-1-6.3,0l-47,27.2
			c-0.6,0.4-1,0.8-1,1.2s0.4,0.9,1,1.2L235.3,256.8z"/>
	</g>
	<rect class="st4" width="440" height="300"/>
	<rect y="0.3" class="st4" width="440" height="300"/>
</g>
</svg>
