<?xml version="1.0" encoding="utf-8"?>
<!-- Generator: Adobe Illustrator 24.1.2, SVG Export Plug-In . SVG Version: 6.00 Build 0)  -->
<svg version="1.1" id="Layer_1" xmlns="http://www.w3.org/2000/svg" xmlns:xlink="http://www.w3.org/1999/xlink" x="0px" y="0px"
	 width="128px" height="128px" viewBox="0 0 128 128" style="enable-background:new 0 0 128 128;" xml:space="preserve">
<style type="text/css">
	.st0{fill:#E9EBDF;}
	.st1{fill:#0E352C;}
	.st2{fill:#FFFFFF;}
	.st3{fill:#4D9987;}
	.st4{fill:none;}
</style>
<g>
	<path class="st0" d="M40.2,65.2c-0.7,0-1.4-0.2-2-0.5l-14-8.1c-4.4-2.5-6.9-6.3-6.9-10.3s2.5-7.7,6.9-10.3c7.8-4.5,19.9-4.5,27.7,0
		l14,8.1c1.9,1.1,2.5,3.5,1.4,5.4s-3.5,2.5-5.4,1.4l-14-8.1c-5.4-3.1-14.4-3.1-19.8,0c-1.8,1.1-3,2.4-3,3.5s1.1,2.4,3,3.5l14,8.1
		c1.9,1.1,2.5,3.5,1.4,5.4C42.9,64.4,41.6,65.2,40.2,65.2L40.2,65.2z"/>
	<path class="st1" d="M40.2,66.2c-0.9,0-1.7-0.2-2.5-0.7l-14-8.1c-4.7-2.7-7.4-6.8-7.4-11.1s2.7-8.4,7.4-11.1c8-4.6,20.6-4.6,28.7,0
		l14,8.1c2.4,1.4,3.2,4.4,1.8,6.7s-4.4,3.2-6.7,1.8l0,0l-14-8.1c-5.1-2.9-13.7-2.9-18.8,0c-1.7,1-2.5,2-2.5,2.6s0.8,1.6,2.5,2.6
		l14,8.1c2.4,1.4,3.2,4.4,1.8,6.7C43.6,65.2,41.9,66.2,40.2,66.2L40.2,66.2z M38,33.7c-4.7-0.1-9.2,1-13.3,3.2
		c-4.1,2.3-6.4,5.8-6.4,9.4s2.3,7,6.4,9.4l14,8.1c1.4,0.8,3.2,0.3,4-1.1s0.3-3.1-1.1-3.9l-14-8.1c-2.2-1.3-3.5-2.8-3.5-4.3
		s1.3-3,3.5-4.3c5.6-3.3,15.2-3.3,20.8,0l14,8.1c1.4,0.8,3.2,0.2,4-1.2c0.7-1.4,0.3-3.1-1-3.9l-14-8.1C47.3,34.7,42.7,33.6,38,33.7z
		"/>
	<path class="st2" d="M39.3,63.7c-0.2,0-0.3,0-0.5-0.1l-14-8.1c-4-2.3-6.3-5.7-6.3-9.2s2.3-6.9,6.3-9.2c0.5-0.3,1.1-0.1,1.4,0.4
		s0.1,1.1-0.4,1.4c-3.4,1.9-5.3,4.7-5.3,7.5s1.9,5.5,5.3,7.5l14,8.1c0.5,0.3,0.6,0.9,0.4,1.4C40,63.5,39.7,63.7,39.3,63.7z"/>
	<path class="st0" d="M35.4,53l29.9-17.3c0.8-0.6,1.8-0.6,2.7-0.2l0,0l41.3,23.8L74.1,95.1L32.8,71.2l0,0c-0.9-0.5-1.4-1.6-1.4-3.3
		v-7.1C31.4,57.8,33.2,54.3,35.4,53z"/>
	<path class="st1" d="M74.1,96.1c-0.2,0-0.3,0-0.5-0.1L32.3,72.1c0,0-0.1,0-0.1-0.1c-1.3-1-1.9-2.5-1.8-4.1v-7.1
		c0-3.4,2-7.2,4.6-8.6l0,0l29.9-17.3c1.1-0.7,2.4-0.8,3.6-0.3c0,0,0.1,0,0.1,0.1l41.3,23.8c0.5,0.3,0.6,0.9,0.4,1.4
		c0,0.1-0.1,0.1-0.2,0.2L74.8,95.8C74.6,95.9,74.3,96.1,74.1,96.1z M33.4,70.4l40.5,23.4l33.8-34.2L67.6,36.5h-0.1
		c-0.6-0.2-1.2-0.1-1.7,0.2L35.9,53.9c-1.9,1.1-3.6,4.3-3.6,6.9v7.1C32.3,68.8,32.6,69.7,33.4,70.4C33.3,70.4,33.3,70.4,33.4,70.4z"
		/>
	<path class="st2" d="M82.5,86.6l26.8-27.2L68,35.6l0,0c-0.9-0.4-1.9-0.3-2.7,0.2L35.4,53c-1.6,1.1-2.8,2.6-3.4,4.4L82.5,86.6z"/>
	<path class="st3" d="M106.6,77.6L76.7,94.8c-2.2,1.3-4.1-0.1-4.1-3.1v-7.1c0-3,1.8-6.5,4.1-7.8l29.9-17.3c2.2-1.3,4.1,0.1,4.1,3.1
		v7.1C110.7,72.8,108.9,76.3,106.6,77.6z"/>
	<path class="st2" d="M75.1,96.3c-0.5,0-1.1-0.1-1.5-0.4c-1.2-0.7-1.9-2.2-1.9-4.2v-7.1c0-3.4,2-7.2,4.6-8.6l29.9-17.3
		c1.1-0.7,2.5-0.8,3.7-0.2c1.2,0.7,1.9,2.2,1.9,4.2v7.1c0,3.4-2,7.2-4.6,8.6l0,0l-30,17.3C76.6,96.1,75.9,96.3,75.1,96.3z
		 M108.2,60.1c-0.4,0-0.8,0.1-1.1,0.4L77.2,77.7c-1.9,1.1-3.6,4.3-3.6,6.9v7.1c-0.1,0.9,0.2,1.8,0.9,2.4c0.6,0.2,1.2,0.1,1.7-0.2
		l29.9-17.3c1.9-1.1,3.6-4.3,3.6-6.9v-7.1c0.1-0.9-0.2-1.8-0.9-2.4C108.6,60.2,108.4,60.1,108.2,60.1z"/>
	<path class="st1" d="M75.1,96.3c-0.5,0-1-0.1-1.4-0.4c0,0-0.1,0-0.1-0.1L32.3,72.1c0,0-0.1,0-0.1-0.1c-1.3-1-1.9-2.5-1.8-4.1v-7.1
		c0-1.3,0.3-2.5,0.7-3.7V57l0.1-0.2c0.1-0.4,0.3-0.6,0.4-0.9l0.1-0.3c0.2-0.3,0.4-0.6,0.6-0.9l0.1-0.2c0.2-0.3,0.4-0.6,0.6-0.8
		l0.1-0.1c0.2-0.3,0.5-0.5,0.8-0.7l0.1-0.1c0.3-0.2,0.6-0.5,0.9-0.6l29.9-17.3c0.1-0.1,0.2-0.1,0.4-0.2c0.5-0.2,1-0.4,1.5-0.4
		c0.3,0,0.6,0,0.9,0.1s0.5,0.2,0.7,0.3c0,0,0.1,0,0.1,0.1l41.3,23.8c0,0,0.1,0,0.1,0.1c1.3,1,1.9,2.5,1.8,4.1v7.1
		c0,3.4-2,7.2-4.6,8.6L77.2,95.7C76.6,96.1,75.9,96.3,75.1,96.3z M74.5,94.1C74.5,94.1,74.5,94.2,74.5,94.1c0.6,0.3,1.3,0.2,1.8-0.2
		l29.9-17.3c1.9-1.1,3.6-4.3,3.6-6.9v-7.1c0.1-0.9-0.2-1.8-0.9-2.4c0,0-0.1,0-0.1-0.1L67.6,36.5h-0.1c-0.1-0.1-0.2-0.1-0.3-0.1
		c-0.1,0-0.2,0-0.4,0c-0.3,0-0.5,0.1-0.7,0.2l-0.1,0c0,0-0.1,0-0.1,0.1l-30,17.2c-0.2,0.1-0.4,0.3-0.6,0.4l-0.1,0.1
		c-0.2,0.2-0.4,0.4-0.6,0.6l-0.1,0.1c-0.2,0.2-0.3,0.4-0.5,0.6l-0.1,0.2c-0.2,0.2-0.3,0.5-0.5,0.8l-0.1,0.2
		c-0.2,0.3-0.3,0.5-0.4,0.8v0.1v0.1l0,0c-0.4,1-0.6,2-0.6,3V68c-0.1,0.9,0.2,1.8,0.9,2.4c0,0,0.1,0,0.1,0.1L74.5,94.1z"/>
	<path class="st1" d="M89,79.7c-0.6,0-1-0.4-1-1c0-0.4,0.2-0.7,0.5-0.9l5.3-3c0.5-0.3,1.1-0.1,1.4,0.4s0.1,1.1-0.4,1.4l-5.3,3
		C89.4,79.7,89.2,79.7,89,79.7z"/>
	<path class="st3" d="M70.9,51.5c-2.6-1.3-5.7-1.3-8.3,0c-2.3,1.3-2.3,3.5,0,4.8c1.8,0.9,3.8,1.2,5.8,0.9l7,5.1l5.8-3.3l-8.8-4
		C73,53.7,72.5,52.5,70.9,51.5z"/>
	<path class="st3" d="M75.4,62.8c-0.1,0-0.2,0-0.3-0.1l-6.8-4.9c-2,0.3-4.1,0-5.9-1c-1.6-0.6-2.4-2.3-1.8-3.9c0.3-0.8,1-1.5,1.8-1.8
		c2.8-1.4,6-1.4,8.8,0l0,0c1.5,0.9,2.2,2.2,1.9,3.5l8.3,3.9c0.3,0.1,0.4,0.4,0.2,0.7c0,0.1-0.1,0.2-0.2,0.2l-5.8,3.3
		C75.6,62.7,75.5,62.8,75.4,62.8z M68.4,56.7c0.1,0,0.2,0,0.3,0.1l6.8,4.9l4.6-2.7l-7.9-3.6c-0.3-0.1-0.4-0.4-0.2-0.7l0,0
		c0.5-0.9,0-1.9-1.3-2.7l0,0c-2.5-1.2-5.4-1.2-7.8,0c-0.8,0.3-1.4,1.1-1.5,2c0.1,0.9,0.7,1.6,1.5,2C64.5,56.8,66.5,57.1,68.4,56.7
		C68.3,56.7,68.4,56.7,68.4,56.7z"/>
	<rect x="1" y="1" class="st4" width="126" height="126"/>
	<g>
		<rect class="st4" width="128" height="128"/>
	</g>
</g>
</svg>
