<?xml version="1.0" encoding="utf-8"?>
<!-- Generator: Adobe Illustrator 24.1.2, SVG Export Plug-In . SVG Version: 6.00 Build 0)  -->
<svg version="1.1" id="Layer_1" xmlns="http://www.w3.org/2000/svg" xmlns:xlink="http://www.w3.org/1999/xlink" x="0px" y="0px"
	 width="128px" height="128px" viewBox="0 0 128 128" style="enable-background:new 0 0 128 128;" xml:space="preserve">
<style type="text/css">
	.st0{fill:#E9EBDF;}
	.st1{fill:#4D9987;}
	.st2{fill:#FFFFFF;}
	.st3{fill:#0E352C;}
	.st4{fill:#C4D7D3;}
	.st5{fill:#185849;}
	.st6{clip-path:url(#SVGID_2_);}
	.st7{fill:none;}
</style>
<g>
	<path class="st0" d="M73.6,24.3c0-8.1-4.9-17.5-11-20.9c-2.7-1.6-5.2-1.7-7.2-0.6l0,0l-6.3,3.6l0,0c-2.3,1.3-3.8,4.4-3.8,8.9
		c0,8.1,4.9,17.5,11,20.9c2.7,1.6,5.2,1.7,7.2,0.6l0,0l6.3-3.6l0,0C72.2,31.8,73.6,28.7,73.6,24.3z"/>
	<path class="st1" d="M56.4,36.2c2.7,1.6,5.2,1.7,7.2,0.6l0,0l6.3-3.6l0,0c2.3-1.3,3.8-4.4,3.8-8.9c-0.1-3.8-1-7.5-2.6-11L48.2,26.5
		C50.2,30.7,53.1,34.3,56.4,36.2z"/>
	<ellipse transform="matrix(0.9201 -0.3916 0.3916 0.9201 -3.9175 23.7978)" class="st0" cx="56.4" cy="21.5" rx="9.5" ry="16.8"/>
	<path class="st2" d="M60.8,38.5c-1.7,0-3.4-0.5-4.9-1.5c-6.3-3.6-11.5-13.4-11.5-21.8c0-4.6,1.6-8.2,4.3-9.7
		c2.3-1.3,5.2-1.1,8.2,0.6c6.3,3.6,11.5,13.4,11.5,21.8c0,4.6-1.6,8.2-4.3,9.7C63.1,38.2,61.9,38.5,60.8,38.5z M52.1,6.6
		c-0.8,0-1.6,0.2-2.3,0.6c-2.1,1.2-3.3,4.1-3.3,8c0,7.7,4.7,16.8,10.5,20.1c2.3,1.3,4.5,1.5,6.2,0.6c2.1-1.2,3.3-4.1,3.3-8
		c0-7.7-4.7-16.8-10.5-20.1C54.7,7.1,53.4,6.7,52.1,6.6z"/>
	<path class="st3" d="M60.7,38.5c-0.1,0-0.2,0-0.3,0s-0.2,0-0.4,0c-0.3,0-0.5-0.1-0.7-0.1s-0.3-0.1-0.5-0.1h-0.2
		c-0.2,0-0.3-0.1-0.5-0.1c-0.2-0.1-0.4-0.1-0.6-0.2l-0.2-0.1c-0.1,0-0.2-0.1-0.3-0.1c-0.4-0.2-0.8-0.4-1.2-0.6
		c-6.3-3.7-11.5-13.4-11.5-21.8c0-0.5,0-1.1,0.1-1.6c0-0.1,0-0.2,0-0.3v-0.1c0-0.4,0.1-0.7,0.1-1.1c0-0.1,0-0.2,0.1-0.3v-0.1
		c0.1-0.3,0.1-0.7,0.2-1c0-0.1,0.1-0.2,0.1-0.3v-0.1c0.1-0.3,0.2-0.6,0.3-0.9c0-0.1,0.1-0.2,0.1-0.3c0.1-0.3,0.3-0.6,0.5-0.9
		c0-0.1,0.1-0.2,0.1-0.2c0.2-0.3,0.4-0.6,0.6-0.8L47,7c0.2-0.3,0.5-0.5,0.8-0.8l0.1-0.1c0.2-0.2,0.5-0.4,0.8-0.6l0.1-0.1L55,1.9
		c0.1,0,0.1-0.1,0.2-0.1c2.3-1.2,5.1-1,8,0.7c6.3,3.6,11.5,13.4,11.5,21.8c0,4.5-1.5,8-4.1,9.6L70.5,34l-6.3,3.6
		c-0.1,0-0.1,0.1-0.2,0.1c-0.2,0.1-0.4,0.2-0.6,0.3h-0.1c-0.3,0.1-0.5,0.2-0.8,0.2l-0.2,0.1c-0.2,0.1-0.5,0.1-0.7,0.1
		c-0.1,0-0.2,0-0.3,0C61,38.5,60.8,38.5,60.7,38.5z M56.9,35.3L56.9,35.3c0.3,0.2,0.7,0.4,1,0.5c0.1,0,0.1,0.1,0.2,0.1l0.2,0.1
		c0.2,0.1,0.4,0.2,0.6,0.2c0.1,0,0.2,0.1,0.3,0.1h0.1c0.2,0,0.3,0.1,0.4,0.1c0.2,0,0.3,0,0.5,0.1c0.1,0,0.2,0,0.3,0
		c0.2,0,0.3,0,0.5,0c0.1,0,0.2,0,0.2,0c0.2,0,0.4,0,0.5-0.1h0.1c0.2,0,0.4-0.1,0.6-0.2c0.2-0.1,0.4-0.2,0.6-0.3c0,0,0.1-0.1,0.2-0.1
		l6-3.4l0.1-0.1c2.1-1.2,3.3-4.1,3.3-8c0-7.7-4.7-16.8-10.5-20.1c-2.3-1.4-4.5-1.5-6.2-0.6c0,0-0.1,0.1-0.2,0.1l-6,3.4l-0.1,0.1
		c-0.2,0.1-0.5,0.3-0.7,0.5s-0.4,0.4-0.6,0.6l-0.1,0.1C48,8.6,47.9,8.8,47.7,9l-0.1,0.2c-0.1,0.2-0.3,0.5-0.4,0.7l-0.1,0.3
		c-0.1,0.2-0.2,0.5-0.3,0.8l0.2,0.2c-0.1,0.3-0.1,0.5-0.2,0.8l-0.1,0.4c-0.1,0.3-0.1,0.6-0.1,1v0.4c0,0.5-0.1,0.9-0.1,1.5
		C46.4,22.9,51.1,32,56.9,35.3z"/>
	<path class="st0" d="M44,40.9c-1.9-1.1-3-2.4-3-3.5s1.2-2.4,3-3.5l14.4-8.3l0,0c0.7-0.6,1.1-1.5,1-2.4c0-2.3-1.1-4.4-3-5.7
		c-0.6-0.4-1.4-0.5-2-0.1l0,0l-15,8.6c-4.8,2.8-7.6,7-7.6,11.4s2.8,8.6,7.6,11.4l30.1,17.4l4-8.3L44,40.9z"/>
	<path class="st3" d="M69.5,67.2c-0.2,0-0.3,0-0.5-0.1L38.9,49.7c-5.2-3-8.1-7.4-8.1-12.3s3-9.3,8.1-12.3l15-8.6
		c0.1,0,0.2-0.1,0.2-0.1c0.9-0.4,1.9-0.3,2.8,0.2c2.2,1.5,3.5,4,3.5,6.6c0.1,1.2-0.4,2.3-1.3,3.1c-0.1,0.1-0.2,0.1-0.2,0.2
		l-14.4,8.3C42.7,35.9,42,37,42,37.4s0.7,1.5,2.5,2.6L74,57c0.5,0.3,0.6,0.8,0.4,1.3l-4,8.3c-0.1,0.3-0.3,0.4-0.6,0.5
		C69.7,67.2,69.6,67.2,69.5,67.2z M54.7,18.4L40,26.9c-4.5,2.6-7.1,6.4-7.1,10.5s2.6,7.9,7.1,10.5l29.2,16.8l3.1-6.5L43.5,41.8l0,0
		c-2.2-1.3-3.5-2.9-3.5-4.3s1.3-3,3.5-4.3L57.7,25c0.1-0.1,0.1-0.1,0.2-0.1c0.4-0.4,0.6-1,0.5-1.5c0-1.9-1-3.7-2.5-4.9
		c-0.3-0.2-0.6-0.3-1-0.1C54.9,18.3,54.8,18.4,54.7,18.4z"/>
	<path class="st2" d="M40.6,28.6c-0.6,0-1-0.4-1-1c0-0.4,0.2-0.7,0.5-0.9l12.8-7.4c0.1-0.1,0.3-0.1,0.4-0.1l1.5-0.9
		c0.5-0.3,1.1-0.1,1.4,0.3c0.3,0.5,0.1,1.1-0.3,1.4L54,21.1c-0.1,0.1-0.3,0.1-0.5,0.1L41,28.4C40.9,28.6,40.8,28.6,40.6,28.6z"/>
	<path class="st2" d="M70.5,59.4c-0.2,0-0.3,0-0.5-0.1l-27.6-16c-0.9-0.5-1.8-1.2-2.5-1.9c-0.4-0.4-0.4-1,0-1.4s1-0.4,1.4,0
		c0.6,0.6,1.4,1.1,2.1,1.6l27.6,16c0.5,0.3,0.6,0.9,0.4,1.4C71.2,59.2,70.9,59.4,70.5,59.4L70.5,59.4z"/>
	<ellipse transform="matrix(0.3916 -0.9201 0.9201 0.3916 -13.6182 103.6229)" class="st0" cx="71.5" cy="62.1" rx="4.6" ry="2.6"/>
	<path class="st3" d="M70.3,67.4c-0.4,0-0.9-0.1-1.3-0.3c-1.1-0.7-1.6-2-1.5-3.3c0-2.6,1.3-5.1,3.5-6.6c0.9-0.6,2-0.7,3-0.2
		c1.1,0.7,1.6,2,1.5,3.3c0,2.6-1.3,5.1-3.5,6.6C71.5,67.2,70.9,67.4,70.3,67.4z M72.7,58.7c-0.2,0-0.5,0.1-0.7,0.2
		c-1.5,1.1-2.5,2.9-2.5,4.8c0,0.9,0.3,1.4,0.5,1.6c0.3,0.2,0.7,0,1-0.2c1.5-1.1,2.5-2.9,2.5-4.8c0-0.9-0.3-1.4-0.5-1.6
		C72.9,58.7,72.8,58.7,72.7,58.7L72.7,58.7z"/>
	<path class="st4" d="M51.7,43.5L51.7,43.5c-1.6-0.9-3.7-0.9-6.1,0.5c-5.1,3-9.3,10.9-9.3,17.7c0,3.7,1.2,6.4,3.2,7.5l0,0l36.6,21.1
		l12.1-25.7L51.7,43.5z"/>
	<path class="st4" d="M66.9,80c-0.5,0-0.9-0.3-1-0.8C63.1,64,70,55,70.3,54.6s1-0.5,1.4-0.2s0.5,1,0.2,1.4c-0.1,0.1-6.6,8.7-4,23
		c0.1,0.5-0.3,1.1-0.8,1.2C67,80,66.9,80,66.9,80z"/>
	<path class="st4" d="M54.7,84.7c-0.4,0-0.7-0.2-0.9-0.5c-12.8-24-1.5-38.9-1-39.6c0.3-0.4,1-0.5,1.4-0.2s0.5,1,0.2,1.4
		c-0.1,0.1-10.9,14.6,1.2,37.4c0.3,0.5,0.1,1.1-0.4,1.4C55.1,84.6,54.9,84.7,54.7,84.7z"/>
	<path class="st5" d="M76.1,91.3c-0.2,0-0.3,0-0.5-0.1L39,70l-0.1-0.1c-2.3-1.4-3.6-4.4-3.6-8.3c0-7.1,4.4-15.5,9.8-18.6
		c2.5-1.4,4.9-1.6,6.9-0.6c0.1,0,0.1,0,0.2,0.1l36.6,21.1c0.4,0.3,0.6,0.8,0.4,1.3L77,90.7c-0.1,0.3-0.3,0.4-0.6,0.5
		C76.3,91.3,76.2,91.3,76.1,91.3z M40.1,68.4l35.5,20.5L87,65L51.3,44.4c0,0-0.1,0-0.1-0.1c-1.4-0.8-3.1-0.6-5.1,0.5
		c-4.8,2.8-8.8,10.4-8.8,16.9C37.3,64.9,38.3,67.3,40.1,68.4C40.1,68.3,40.1,68.4,40.1,68.4z"/>
	
		<ellipse transform="matrix(0.3916 -0.9201 0.9201 0.3916 -21.2448 122.8058)" class="st4" cx="82.2" cy="77.5" rx="14.2" ry="8.1"/>
	<path class="st5" d="M78.5,91.9c-1,0-2-0.3-2.9-0.8c-2.4-1.4-3.7-4.4-3.7-8.4c0-7.1,4.4-15.5,9.8-18.6c2.6-1.5,5.1-1.6,7.1-0.5
		c2.4,1.4,3.7,4.4,3.7,8.4c0,7.1-4.4,15.5-9.8,18.6C81.4,91.5,80,91.9,78.5,91.9z M85.9,65c-1.1,0-2.2,0.4-3.2,1
		c-4.8,2.8-8.8,10.4-8.8,16.9c0,3.2,1,5.6,2.7,6.6c1.4,0.8,3.2,0.6,5.1-0.5c4.8-2.8,8.8-10.4,8.8-16.9c0-3.2-1-5.6-2.7-6.6
		C87.2,65.1,86.5,65,85.9,65L85.9,65z"/>
	<g>
		<g>
			<defs>
				<path id="SVGID_1_" d="M96.2,44.4l-2.8,7.8L88,64.5c-1.6-0.8-3.6-0.6-5.8,0.6c-5.1,3-9.3,10.9-9.3,17.7c0,3.9,1.4,6.6,3.5,7.7
					l-3.5,8l18.6-8.1l4.4-5.6L96.2,44.4z"/>
			</defs>
			<clipPath id="SVGID_2_">
				<use xlink:href="#SVGID_1_"  style="overflow:visible;"/>
			</clipPath>
			<g class="st6">
				<path class="st0" d="M44,40.9c-1.9-1.1-3-2.4-3-3.5s1.2-2.4,3-3.5l14.4-8.3l0,0c0.7-0.6,1.1-1.5,1-2.4c0-2.3-1.1-4.4-3-5.7
					c-0.6-0.4-1.4-0.5-2-0.1l0,0l-15,8.6c-4.8,2.8-7.6,7-7.6,11.4s2.8,8.6,7.6,11.4L90,78l4-8.3L44,40.9z"/>
				<path class="st3" d="M90,79c-0.2,0-0.3,0-0.5-0.1L38.9,49.7c-5.2-3-8.1-7.4-8.1-12.3s3-9.3,8.1-12.3l15-8.6
					c0.1,0,0.2-0.1,0.2-0.1c0.9-0.4,1.9-0.3,2.8,0.2c2.2,1.5,3.5,4,3.5,6.6c0.1,1.2-0.4,2.3-1.3,3.1c-0.1,0.1-0.2,0.1-0.2,0.2
					l-14.4,8.3C42.7,35.9,42,37,42,37.4s0.7,1.5,2.5,2.6l50,28.9c0.5,0.3,0.6,0.8,0.4,1.3l-4,8.3C90.7,78.8,90.4,79,90,79z
					 M54.7,18.4L40,26.9c-4.5,2.6-7.1,6.4-7.1,10.5s2.6,7.9,7.1,10.5l49.6,28.7l3.1-6.5L43.5,41.8l0,0c-2.2-1.3-3.5-2.9-3.5-4.3
					s1.3-3,3.5-4.3L57.7,25c0.1-0.1,0.1-0.1,0.2-0.1c0.4-0.4,0.6-1,0.5-1.5c0-1.9-1-3.7-2.5-4.9c-0.3-0.2-0.6-0.3-1-0.1
					C54.9,18.3,54.8,18.4,54.7,18.4z"/>
				<path class="st2" d="M87.1,69c-0.2,0-0.3,0-0.5-0.1L42.4,43.3c-0.5-0.3-0.6-0.9-0.4-1.4c0.3-0.5,0.9-0.6,1.4-0.4L87.6,67
					c0.5,0.3,0.6,0.9,0.4,1.4C87.8,68.8,87.4,69,87.1,69L87.1,69z"/>
				
					<ellipse transform="matrix(0.3916 -0.9201 0.9201 0.3916 -12.0178 129.6309)" class="st0" cx="92" cy="73.9" rx="4.6" ry="2.6"/>
				<path class="st1" d="M90.8,79.2c-0.4,0-0.9-0.1-1.3-0.3c-1.1-0.7-1.6-2-1.5-3.3c0-2.6,1.3-5.1,3.5-6.6c0.9-0.6,2-0.7,3-0.2
					c1.1,0.7,1.7,2,1.5,3.3c0,2.6-1.3,5.1-3.5,6.6C92,79.1,91.4,79.2,90.8,79.2z M93.2,70.5c-0.2,0-0.5,0.1-0.7,0.2
					c-1.5,1.2-2.5,3-2.5,4.9c0,0.9,0.3,1.4,0.5,1.6c0.3,0.2,0.7,0,1-0.2c1.5-1.1,2.5-2.9,2.5-4.9c0-0.9-0.3-1.4-0.5-1.6
					C93.4,70.6,93.3,70.5,93.2,70.5L93.2,70.5z"/>
				<path class="st3" d="M90.8,79.2c-0.4,0-0.7-0.1-1.1-0.2c-0.1,0-0.2-0.1-0.2-0.1L38.9,49.7c-5.2-3-8.1-7.4-8.1-12.3
					s3-9.3,8.1-12.3l15-8.6c0.1,0,0.2-0.1,0.2-0.1c0.9-0.4,1.9-0.3,2.8,0.2c2.2,1.5,3.5,4,3.5,6.6c0.1,1.2-0.4,2.3-1.3,3.1
					c-0.1,0.1-0.2,0.1-0.2,0.2l-14.4,8.3C42.7,35.9,42,37,42,37.4s0.7,1.5,2.5,2.6l50,28.8c0.1,0.1,0.2,0.1,0.3,0.2
					c0.9,0.8,1.3,1.9,1.3,3.1c0,2.6-1.3,5.1-3.5,6.6C92,79.1,91.4,79.2,90.8,79.2z M90.3,77c0.1,0,0.2,0.1,0.2,0.1
					c0.3,0.1,0.7,0.1,1-0.1c1.5-1.1,2.5-2.9,2.5-4.9c0.1-0.6-0.1-1.1-0.5-1.5c-0.1,0-0.1-0.1-0.2-0.1L43.5,41.8
					c-2.2-1.3-3.5-2.9-3.5-4.3s1.3-3,3.5-4.3L57.7,25c0.1-0.1,0.1-0.1,0.2-0.1c0.4-0.4,0.6-1,0.5-1.5c0-1.9-1-3.7-2.5-4.9
					c-0.3-0.2-0.6-0.3-1-0.1c-0.1,0.1-0.2,0.1-0.3,0.1L39.9,27c-4.5,2.6-7.1,6.4-7.1,10.5s2.6,7.9,7.1,10.5L90.3,77z"/>
			</g>
		</g>
	</g>
	<path class="st5" d="M73,81.7L73,81.7c-0.6-0.1-1-0.6-1-1.1l0,0c0.8-6.7,4.8-13.6,9.6-16.3c2.4-1.4,4.9-1.6,6.8-0.6
		c0.5,0.2,0.7,0.8,0.5,1.3s-0.8,0.7-1.3,0.5l0,0c-1.4-0.7-3.1-0.5-4.9,0.6c-4.2,2.4-7.9,8.8-8.7,14.8C74,81.3,73.6,81.7,73,81.7z"/>
	<polygon class="st2" points="36.3,104.9 36.3,60.7 72.9,81.8 72.9,126 	"/>
	<rect x="53.6" y="88.3" transform="matrix(0.5 -0.866 0.866 0.5 -67.4751 101.9631)" class="st1" width="2" height="42.2"/>
	<path class="st3" d="M72.9,127c-0.2,0-0.3,0-0.5-0.1l-36.5-21.1c-0.3-0.2-0.5-0.5-0.5-0.9V60.7c0-0.6,0.4-1,1-1
		c0.2,0,0.3,0,0.5,0.1L73.4,81c0.3,0.2,0.5,0.5,0.5,0.9V126c0,0.4-0.2,0.7-0.5,0.9C73.2,127,73,127,72.9,127z M37.3,104.3l34.5,19.9
		l0.1-41.9l-34.6-20L37.3,104.3z"/>
	<rect x="1" y="1" class="st7" width="126" height="126"/>
	<g>
		<rect class="st7" width="128" height="128"/>
	</g>
</g>
</svg>
