<?xml version="1.0" encoding="utf-8"?>
<!-- Generator: Adobe Illustrator 24.1.2, SVG Export Plug-In . SVG Version: 6.00 Build 0)  -->
<svg version="1.1" id="Layer_1" xmlns="http://www.w3.org/2000/svg" xmlns:xlink="http://www.w3.org/1999/xlink" x="0px" y="0px"
	 width="128px" height="128px" viewBox="0 0 128 128" style="enable-background:new 0 0 128 128;" xml:space="preserve">
<style type="text/css">
	.st0{fill:#E9EBDF;}
	.st1{fill:#FFFFFF;}
	.st2{fill:#4D9987;}
	.st3{fill:#0E352C;}
	.st4{fill:#C4D7D3;}
	.st5{fill:#27ae60;}
	.st6{fill:#185849;}
	.st7{fill:none;}
</style>
<g>
	<g>
		<polygon class="st0" points="78.7,33.2 64.1,41.6 49.6,33.2 49.6,16.4 64.1,8 78.7,16.4 		"/>
		<polygon class="st1" points="78.7,16.4 64.1,24.8 49.6,16.4 49.6,16.4 64.1,8 		"/>
		<polygon class="st0" points="64.1,24.8 64.1,41.6 78.7,33.2 78.7,16.4 		"/>
		<path class="st2" d="M64.1,42.6c-0.2,0-0.3,0-0.5-0.1L49.1,34c-0.3-0.2-0.5-0.5-0.5-0.9V16.4c0-0.4,0.2-0.7,0.5-0.9l14.5-8.4
			c0.3-0.2,0.7-0.2,1,0l14.5,8.4c0.3,0.2,0.5,0.5,0.5,0.9v16.8c0,0.4-0.2,0.7-0.5,0.9l-14.5,8.4C64.5,42.5,64.3,42.6,64.1,42.6z
			 M50.6,32.6l13.5,7.8l13.5-7.8V17L64.1,9.2L50.6,17V32.6z"/>
		<path class="st2" d="M64.1,25.8c-0.2,0-0.3,0-0.5-0.1l-14.5-8.4c-0.5-0.3-0.6-0.9-0.4-1.4c0.1-0.2,0.2-0.3,0.4-0.4l14.5-8.4
			c0.3-0.2,0.7-0.2,1,0l14.5,8.4c0.5,0.3,0.6,0.9,0.4,1.4c-0.1,0.2-0.2,0.3-0.4,0.4l-14.5,8.4C64.5,25.7,64.3,25.8,64.1,25.8z
			 M51.6,16.4l12.5,7.2l12.5-7.2L64.1,9.2L51.6,16.4z"/>
		<path class="st2" d="M64.1,42.6c-0.6,0-1-0.4-1-1V24.8c0-0.4,0.2-0.7,0.5-0.9l14.5-8.4c0.5-0.3,1.1-0.1,1.4,0.4
			c0.1,0.2,0.1,0.3,0.1,0.5v16.8c0,0.4-0.2,0.7-0.5,0.9l-14.5,8.4C64.5,42.5,64.3,42.6,64.1,42.6z M65.1,25.4v14.5l12.5-7.2V18.1
			L65.1,25.4z"/>
		<path class="st3" d="M64.1,42.6c-0.2,0-0.3,0-0.5-0.1L49.1,34c-0.3-0.2-0.5-0.5-0.5-0.9V16.4c0-0.4,0.2-0.7,0.5-0.9l14.5-8.4
			c0.3-0.2,0.7-0.2,1,0l14.5,8.4c0.3,0.2,0.5,0.5,0.5,0.9v16.8c0,0.4-0.2,0.7-0.5,0.9l-14.5,8.4C64.5,42.5,64.3,42.6,64.1,42.6z
			 M50.6,32.6l13.5,7.8l13.5-7.8V17L64.1,9.2L50.6,17V32.6z"/>
		<polygon class="st0" points="44.7,52.8 30.2,61.2 15.6,52.8 15.6,36 30.2,27.6 44.7,36 		"/>
		<polygon class="st1" points="44.7,36 30.2,44.4 15.6,36 15.6,36 30.2,27.6 		"/>
		<polygon class="st0" points="30.2,44.4 30.2,61.2 44.7,52.8 44.7,36 		"/>
		<path class="st2" d="M30.2,62.2c-0.2,0-0.3,0-0.5-0.1l-14.5-8.4c-0.3-0.2-0.5-0.5-0.5-0.9V36c0-0.4,0.2-0.7,0.5-0.9l14.5-8.4
			c0.3-0.2,0.7-0.2,1,0l14.5,8.4c0.3,0.2,0.5,0.5,0.5,0.9v16.8c0,0.4-0.2,0.7-0.5,0.9l-14.5,8.4C30.5,62.1,30.3,62.2,30.2,62.2z
			 M16.6,52.2L30.2,60l13.5-7.8V36.6l-13.5-7.8l-13.5,7.8v15.6H16.6z"/>
		<path class="st2" d="M30.2,45.4c-0.2,0-0.3,0-0.5-0.1l-14.5-8.4c-0.5-0.3-0.6-0.9-0.4-1.4c0.1-0.2,0.2-0.3,0.4-0.4l14.5-8.4
			c0.3-0.2,0.7-0.2,1,0l14.5,8.4c0.5,0.3,0.6,0.9,0.4,1.4c-0.1,0.2-0.2,0.3-0.4,0.4l-14.5,8.4C30.5,45.4,30.3,45.4,30.2,45.4z
			 M17.6,36l12.5,7.2L42.7,36l-12.5-7.2L17.6,36z"/>
		<path class="st2" d="M30.2,62.2c-0.6,0-1-0.4-1-1V44.4c0-0.4,0.2-0.7,0.5-0.9l14.5-8.4c0.5-0.3,1.1-0.1,1.4,0.4
			c0.1,0.2,0.1,0.3,0.1,0.5v16.8c0,0.4-0.2,0.7-0.5,0.9l-14.5,8.4C30.5,62.1,30.3,62.2,30.2,62.2z M31.2,45v14.5l12.5-7.2V37.7
			L31.2,45z"/>
		<path class="st3" d="M30.2,62.2c-0.2,0-0.3,0-0.5-0.1l-14.5-8.4c-0.3-0.2-0.5-0.5-0.5-0.9V36c0-0.4,0.2-0.7,0.5-0.9l14.5-8.4
			c0.3-0.2,0.7-0.2,1,0l14.5,8.4c0.3,0.2,0.5,0.5,0.5,0.9v16.8c0,0.4-0.2,0.7-0.5,0.9l-14.5,8.4C30.5,62.1,30.3,62.2,30.2,62.2z
			 M16.6,52.2L30.2,60l13.5-7.8V36.6l-13.5-7.8l-13.5,7.8v15.6H16.6z"/>
		<polygon class="st0" points="44.5,91.9 29.9,100.3 15.4,91.9 15.4,75.1 29.9,66.7 44.5,75.1 		"/>
		<polygon class="st1" points="44.5,75.1 29.9,83.5 15.4,75.1 15.4,75.1 29.9,66.7 		"/>
		<polygon class="st0" points="29.9,83.5 29.9,100.3 44.5,91.9 44.5,75.1 		"/>
		<path class="st2" d="M29.9,101.3c-0.2,0-0.3,0-0.5-0.1l-14.5-8.4c-0.3-0.2-0.5-0.5-0.5-0.9V75.1c0-0.4,0.2-0.7,0.5-0.9l14.5-8.4
			c0.3-0.2,0.7-0.2,1,0L45,74.2c0.3,0.2,0.5,0.5,0.5,0.9v16.8c0,0.4-0.2,0.7-0.5,0.9l-14.5,8.4C30.3,101.2,30.1,101.3,29.9,101.3z
			 M16.4,91.3l13.5,7.8l13.5-7.8V75.6l-13.5-7.8l-13.5,7.8C16.4,75.6,16.4,91.3,16.4,91.3z"/>
		<path class="st2" d="M29.9,84.5c-0.2,0-0.3,0-0.5-0.1L14.9,76c-0.5-0.3-0.6-0.9-0.4-1.4c0.1-0.2,0.2-0.3,0.4-0.4l14.5-8.4
			c0.3-0.2,0.7-0.2,1,0L45,74.2c0.5,0.3,0.6,0.9,0.4,1.4c-0.1,0.2-0.2,0.3-0.4,0.4l-14.5,8.4C30.3,84.4,30.1,84.5,29.9,84.5z
			 M17.4,75.1l12.5,7.2l12.5-7.2l-12.5-7.2L17.4,75.1z"/>
		<path class="st2" d="M29.9,101.3c-0.6,0-1-0.4-1-1V83.5c0-0.4,0.2-0.7,0.5-0.9L44,74.2c0.5-0.3,1.1-0.1,1.4,0.4
			c0.1,0.2,0.1,0.3,0.1,0.5v16.8c0,0.4-0.2,0.7-0.5,0.9l-14.5,8.4C30.3,101.2,30.1,101.3,29.9,101.3z M30.9,84v14.5l12.5-7.2V76.8
			L30.9,84z"/>
		<path class="st3" d="M29.9,101.3c-0.2,0-0.3,0-0.5-0.1l-14.5-8.4c-0.3-0.2-0.5-0.5-0.5-0.9V75.1c0-0.4,0.2-0.7,0.5-0.9l14.5-8.4
			c0.3-0.2,0.7-0.2,1,0L45,74.2c0.3,0.2,0.5,0.5,0.5,0.9v16.8c0,0.4-0.2,0.7-0.5,0.9l-14.5,8.4C30.3,101.2,30.1,101.3,29.9,101.3z
			 M16.4,91.3l13.5,7.8l13.5-7.8V75.6l-13.5-7.8l-13.5,7.8C16.4,75.6,16.4,91.3,16.4,91.3z"/>
		<polygon class="st0" points="78.7,111.6 64.1,120 49.6,111.6 49.6,94.8 64.1,86.4 78.7,94.8 		"/>
		<polygon class="st1" points="78.7,94.8 64.1,103.2 49.6,94.8 49.6,94.8 64.1,86.4 		"/>
		<polygon class="st0" points="64.1,103.2 64.1,120 78.7,111.6 78.7,94.8 		"/>
		<path class="st2" d="M64.1,121c-0.2,0-0.3,0-0.5-0.1l-14.5-8.4c-0.3-0.2-0.5-0.5-0.5-0.9V94.8c0-0.4,0.2-0.7,0.5-0.9l14.5-8.4
			c0.3-0.2,0.7-0.2,1,0l14.5,8.4c0.3,0.2,0.5,0.5,0.5,0.9v16.8c0,0.4-0.2,0.7-0.5,0.9l-14.5,8.4C64.5,121,64.3,121,64.1,121z
			 M50.6,111l13.5,7.8l13.5-7.8V95.4l-13.5-7.8l-13.5,7.8V111z"/>
		<path class="st2" d="M64.1,104.2c-0.2,0-0.3,0-0.5-0.1l-14.5-8.4c-0.5-0.3-0.6-0.9-0.4-1.4c0.1-0.2,0.2-0.3,0.4-0.4l14.5-8.4
			c0.3-0.2,0.7-0.2,1,0l14.5,8.4c0.5,0.3,0.6,0.9,0.4,1.4c-0.1,0.2-0.2,0.3-0.4,0.4l-14.5,8.4C64.5,104.2,64.3,104.2,64.1,104.2z
			 M51.6,94.8l12.5,7.2l12.5-7.2l-12.5-7.2L51.6,94.8z"/>
		<path class="st2" d="M64.1,121c-0.6,0-1-0.4-1-1v-16.8c0-0.4,0.2-0.7,0.5-0.9l14.5-8.4c0.5-0.3,1.1-0.1,1.4,0.4
			c0.1,0.2,0.1,0.3,0.1,0.5v16.8c0,0.4-0.2,0.7-0.5,0.9l-14.5,8.4C64.5,121,64.3,121,64.1,121z M65.1,103.8v14.5l12.5-7.2V96.5
			L65.1,103.8z"/>
		<path class="st3" d="M64.1,121c-0.2,0-0.3,0-0.5-0.1l-14.5-8.4c-0.3-0.2-0.5-0.5-0.5-0.9V94.8c0-0.4,0.2-0.7,0.5-0.9l14.5-8.4
			c0.3-0.2,0.7-0.2,1,0l14.5,8.4c0.3,0.2,0.5,0.5,0.5,0.9v16.8c0,0.4-0.2,0.7-0.5,0.9l-14.5,8.4C64.5,121,64.3,121,64.1,121z
			 M50.6,111l13.5,7.8l13.5-7.8V95.4l-13.5-7.8l-13.5,7.8V111z"/>
		<polygon class="st0" points="112.6,92 98.1,100.4 83.5,92 83.5,75.2 98.1,66.8 112.6,75.2 		"/>
		<polygon class="st1" points="112.6,75.2 98.1,83.6 83.5,75.2 83.5,75.2 98.1,66.8 		"/>
		<polygon class="st0" points="98.1,83.6 98.1,100.4 112.6,92 112.6,75.2 		"/>
		<path class="st2" d="M98.1,101.4c-0.2,0-0.3,0-0.5-0.1L83,92.9c-0.3-0.2-0.5-0.5-0.5-0.9V75.2c0-0.4,0.2-0.7,0.5-0.9l14.5-8.4
			c0.3-0.2,0.7-0.2,1,0l14.5,8.4c0.3,0.2,0.5,0.5,0.5,0.9V92c0,0.4-0.2,0.7-0.5,0.9l-14.5,8.4C98.4,101.4,98.3,101.4,98.1,101.4z
			 M84.5,91.4L98,99.2l13.5-7.8V75.8L98.1,68l-13.5,7.8L84.5,91.4L84.5,91.4z"/>
		<path class="st2" d="M98.1,84.6c-0.2,0-0.3,0-0.5-0.1L83,76.1c-0.5-0.3-0.6-0.9-0.4-1.4c0.1-0.2,0.2-0.3,0.4-0.4l14.5-8.4
			c0.3-0.2,0.7-0.2,1,0l14.5,8.4c0.5,0.3,0.6,0.9,0.4,1.4c-0.1,0.2-0.2,0.3-0.4,0.4l-14.5,8.4C98.4,84.6,98.3,84.6,98.1,84.6z
			 M85.5,75.2L98,82.4l12.5-7.2L98.1,68L85.5,75.2z"/>
		<path class="st2" d="M98.1,101.4c-0.6,0-1-0.4-1-1V83.6c0-0.4,0.2-0.7,0.5-0.9l14.5-8.4c0.5-0.3,1.1-0.1,1.4,0.4
			c0.1,0.2,0.1,0.3,0.1,0.5V92c0,0.4-0.2,0.7-0.5,0.9l-14.5,8.4C98.4,101.4,98.3,101.4,98.1,101.4z M99.1,84.2v14.5l12.5-7.2V76.9
			L99.1,84.2z"/>
		<path class="st3" d="M98.1,101.4c-0.2,0-0.3,0-0.5-0.1L83,92.9c-0.3-0.2-0.5-0.5-0.5-0.9V75.2c0-0.4,0.2-0.7,0.5-0.9l14.5-8.4
			c0.3-0.2,0.7-0.2,1,0l14.5,8.4c0.3,0.2,0.5,0.5,0.5,0.9V92c0,0.4-0.2,0.7-0.5,0.9l-14.5,8.4C98.4,101.4,98.3,101.4,98.1,101.4z
			 M84.5,91.4L98,99.2l13.5-7.8V75.8L98.1,68l-13.5,7.8L84.5,91.4L84.5,91.4z"/>
		<path class="st2" d="M64.1,104.2c-0.6,0-1-0.4-1-1c0-0.3,0.1-0.5,0.3-0.7c0.4-0.4,1-0.4,1.4,0c0.2,0.2,0.3,0.4,0.3,0.7
			c0,0.1,0,0.3-0.1,0.4C64.9,104,64.5,104.2,64.1,104.2z"/>
		<path class="st2" d="M63.1,97.6c0-0.6,0.4-1,1-1l0,0c0.6,0,1,0.4,1,1l0,0c0,0.6-0.4,1-1,1l0,0C63.6,98.6,63.1,98.2,63.1,97.6z
			 M63.1,92c0-0.6,0.4-1,1-1l0,0c0.6,0,1,0.4,1,1l0,0c0,0.6-0.4,1-1,1l0,0C63.6,93,63.1,92.6,63.1,92L63.1,92z"/>
		<path class="st2" d="M64.1,87.4c-0.6,0-1-0.4-1-1c0-0.3,0.1-0.5,0.3-0.7c0.4-0.4,1-0.4,1.4,0s0.4,1,0,1.4
			C64.6,87.3,64.4,87.4,64.1,87.4z"/>
		<path class="st2" d="M83.5,37c-0.2,0-0.3,0-0.5-0.1l-4.5-2.6c-0.5-0.3-0.6-0.9-0.4-1.4c0.3-0.5,0.9-0.6,1.4-0.4l0,0l4.5,2.6
			c0.5,0.3,0.6,0.9,0.4,1.4C84.2,36.8,83.9,37,83.5,37z"/>
		<path class="st2" d="M78.7,95.8c-0.6,0-1-0.4-1-1c0-0.4,0.2-0.7,0.5-0.9l4.9-2.8c0.5-0.3,1.1-0.1,1.4,0.4s0.1,1.1-0.4,1.4l0,0
			l-4.9,2.8C79,95.8,78.8,95.8,78.7,95.8z"/>
		<path class="st2" d="M98.1,67.8c-0.6,0-1-0.4-1-1v-5.6c0-0.6,0.4-1,1-1s1,0.4,1,1v5.6C99.1,67.4,98.6,67.8,98.1,67.8z"/>
		<path class="st2" d="M98.1,84.6c-0.6,0-1-0.4-1-1c0-0.3,0.1-0.5,0.3-0.7c0.1-0.1,0.2-0.2,0.3-0.2c0.4-0.2,0.8-0.1,1.1,0.2
			c0.4,0.4,0.4,1,0,1.4C98.6,84.5,98.3,84.6,98.1,84.6z"/>
		<path class="st2" d="M97.1,78c0-0.6,0.4-1,1-1l0,0c0.6,0,1,0.4,1,1l0,0c0,0.6-0.4,1-1,1l0,0C97.5,79,97.1,78.6,97.1,78z
			 M97.1,72.4c0-0.6,0.4-1,1-1l0,0c0.6,0,1,0.4,1,1l0,0c0,0.6-0.4,1-1,1l0,0C97.5,73.4,97.1,73,97.1,72.4L97.1,72.4z"/>
		<path class="st2" d="M98.1,67.8c-0.6,0-1-0.4-1-1c0-0.3,0.1-0.5,0.3-0.7c0.4-0.4,1-0.4,1.4,0s0.4,1,0,1.4
			C98.6,67.7,98.3,67.8,98.1,67.8z"/>
		<path class="st2" d="M44.7,37c-0.6,0-1-0.4-1-1c0-0.4,0.2-0.7,0.5-0.9l4.9-2.8c0.5-0.3,1.1-0.1,1.4,0.4c0.3,0.5,0.1,1.1-0.4,1.4
			l-4.9,2.8C45.1,37,44.9,37,44.7,37z"/>
		<path class="st2" d="M49.6,95.8c-0.2,0-0.3,0-0.5-0.1l-4.9-2.8c-0.5-0.3-0.6-0.9-0.4-1.4c0.3-0.5,0.9-0.6,1.4-0.4l4.9,2.8
			c0.5,0.3,0.6,0.9,0.4,1.4C50.3,95.6,49.9,95.8,49.6,95.8z"/>
		<path class="st2" d="M44.5,92.9c-0.6,0-1-0.4-1-1c0-0.3,0.1-0.5,0.3-0.7c0.3-0.3,0.7-0.4,1.1-0.2c0.1,0,0.2,0.1,0.3,0.2
			c0.4,0.4,0.4,1,0,1.4C45,92.8,44.7,92.9,44.5,92.9z"/>
		<path class="st2" d="M39.2,90c-0.5-0.3-0.6-0.9-0.4-1.4l0,0l0,0c0.3-0.5,0.9-0.6,1.4-0.4l0,0c0.5,0.3,0.6,0.9,0.4,1.4l0,0l0,0
			c-0.2,0.3-0.5,0.5-0.9,0.5l0,0C39.5,90.1,39.4,90.1,39.2,90z M34.4,87.2c-0.5-0.3-0.6-0.9-0.4-1.4l0,0c0.3-0.5,0.9-0.6,1.4-0.4
			l0,0l0,0c0.5,0.3,0.6,0.9,0.4,1.4l0,0c-0.2,0.3-0.5,0.5-0.9,0.5l0,0C34.8,87.4,34.6,87.3,34.4,87.2L34.4,87.2z"/>
		<path class="st2" d="M30.2,84.6c-0.6,0-1-0.4-1-1c0-0.3,0.1-0.5,0.3-0.7c0.4-0.4,1-0.4,1.4,0s0.4,1,0,1.4
			C30.7,84.5,30.4,84.6,30.2,84.6z"/>
		<path class="st2" d="M30.2,67.8c-0.6,0-1-0.4-1-1v-5.6c0-0.6,0.4-1,1-1s1,0.4,1,1v5.6C31.2,67.4,30.7,67.8,30.2,67.8z"/>
		<polygon class="st4" points="78.7,72.4 64.1,80.8 49.6,72.4 49.6,55.6 64.1,47.2 78.7,55.6 		"/>
		<polygon class="st1" points="78.7,55.6 64.1,64 49.6,55.6 49.6,55.6 64.1,47.2 		"/>
		<polygon class="st4" points="64.1,64 64.1,80.8 78.7,72.4 78.7,55.6 		"/>
		<path class="st5" d="M64.1,81.8c-0.2,0-0.3,0-0.5-0.1l-14.5-8.4c-0.3-0.2-0.5-0.5-0.5-0.9V55.6c0-0.4,0.2-0.7,0.5-0.9l14.5-8.4
			c0.3-0.2,0.7-0.2,1,0l14.5,8.4c0.3,0.2,0.5,0.5,0.5,0.9v16.8c0,0.4-0.2,0.7-0.5,0.9l-14.5,8.4C64.5,81.7,64.3,81.8,64.1,81.8z
			 M50.6,71.8l13.5,7.8l13.5-7.8V56.2l-13.5-7.8l-13.5,7.8V71.8z"/>
		<path class="st5" d="M64.1,65c-0.2,0-0.3,0-0.5-0.1l-14.5-8.4c-0.5-0.3-0.6-0.9-0.4-1.4c0.1-0.2,0.2-0.3,0.4-0.4l14.5-8.4
			c0.3-0.2,0.7-0.2,1,0l14.5,8.4c0.5,0.3,0.6,0.9,0.4,1.4c-0.1,0.2-0.2,0.3-0.4,0.4l-14.5,8.4C64.5,65,64.3,65,64.1,65z M51.6,55.6
			l12.5,7.2l12.5-7.2l-12.5-7.2L51.6,55.6z"/>
		<path class="st5" d="M64.1,81.8c-0.6,0-1-0.4-1-1V64c0-0.4,0.2-0.7,0.5-0.9l14.5-8.4c0.5-0.3,1.1-0.1,1.4,0.4
			c0.1,0.2,0.1,0.3,0.1,0.5v16.8c0,0.4-0.2,0.7-0.5,0.9l-14.5,8.4C64.5,81.7,64.3,81.8,64.1,81.8z M65.1,64.6v14.5l12.5-7.2V57.3
			L65.1,64.6z"/>
		<path class="st6" d="M64.1,81.8c-0.2,0-0.3,0-0.5-0.1l-14.5-8.4c-0.3-0.2-0.5-0.5-0.5-0.9V55.6c0-0.4,0.2-0.7,0.5-0.9l14.5-8.4
			c0.3-0.2,0.7-0.2,1,0l14.5,8.4c0.3,0.2,0.5,0.5,0.5,0.9v16.8c0,0.4-0.2,0.7-0.5,0.9l-14.5,8.4C64.5,81.7,64.3,81.8,64.1,81.8z
			 M50.6,71.8l13.5,7.8l13.5-7.8V56.2l-13.5-7.8l-13.5,7.8V71.8z"/>
		<path class="st2" d="M30.2,84.6c-0.6,0-1-0.4-1-1c0-0.3,0.1-0.5,0.3-0.7c0.4-0.4,1-0.4,1.4,0s0.4,1,0,1.4
			C30.7,84.5,30.4,84.6,30.2,84.6z"/>
		<path class="st2" d="M29.2,78c0-0.6,0.4-1,1-1l0,0c0.6,0,1,0.4,1,1l0,0c0,0.6-0.4,1-1,1l0,0C29.6,79,29.2,78.6,29.2,78z
			 M29.2,72.4c0-0.6,0.4-1,1-1l0,0c0.6,0,1,0.4,1,1l0,0c0,0.6-0.4,1-1,1l0,0C29.6,73.4,29.2,73,29.2,72.4L29.2,72.4z"/>
		<path class="st2" d="M30.2,67.8c-0.3,0-0.5-0.1-0.7-0.3c-0.4-0.4-0.4-1,0-1.4c0.1-0.1,0.2-0.2,0.3-0.2c0.4-0.1,0.8-0.1,1.1,0.2
			c0.4,0.4,0.4,1,0,1.4C30.7,67.7,30.4,67.8,30.2,67.8z"/>
		<path class="st2" d="M83.5,93c-0.6,0-1-0.4-1-1c0-0.3,0.1-0.5,0.3-0.7c0.4-0.4,1-0.4,1.4,0s0.4,1,0,1.4C84.1,92.9,83.8,93,83.5,93
			z"/>
		<path class="st2" d="M87.4,89.7c-0.3-0.5-0.1-1.1,0.4-1.4l0,0c0.5-0.3,1.1-0.1,1.4,0.4l0,0l0,0c0.3,0.5,0.1,1.1-0.4,1.4l0,0
			c-0.2,0.1-0.3,0.1-0.5,0.1l0,0C87.9,90.2,87.6,90.1,87.4,89.7z M92.2,87c-0.3-0.5-0.1-1.1,0.4-1.4l0,0c0.5-0.3,1.1-0.1,1.4,0.4
			l0,0l0,0c0.3,0.5,0.1,1.1-0.4,1.4l0,0l0,0c-0.2,0.1-0.3,0.1-0.5,0.1l0,0C92.7,87.5,92.4,87.3,92.2,87z"/>
		<path class="st2" d="M97.8,84.7c-0.3,0-0.5-0.1-0.7-0.3c-0.4-0.4-0.4-1,0-1.4s1-0.4,1.4,0s0.4,1,0,1.4
			C98.4,84.6,98.1,84.7,97.8,84.7z"/>
		<path class="st2" d="M64.1,25.8c-0.6,0-1-0.4-1-1c0-0.3,0.1-0.5,0.3-0.7c0.1-0.1,0.2-0.2,0.3-0.2c0.5-0.2,1.1,0,1.3,0.5
			c0.2,0.5,0,1.1-0.5,1.3C64.4,25.8,64.3,25.8,64.1,25.8z"/>
		<path class="st2" d="M73.2,31.2c-0.5-0.3-0.6-0.9-0.4-1.4l0,0c0.3-0.5,0.9-0.6,1.4-0.4l0,0l0,0c0.5,0.3,0.6,0.9,0.4,1.4l0,0l0,0
			c-0.2,0.3-0.5,0.5-0.9,0.5l0,0C73.5,31.3,73.3,31.3,73.2,31.2z M68.4,28.4c-0.5-0.3-0.6-0.9-0.4-1.4l0,0l0,0
			c0.3-0.5,0.9-0.6,1.4-0.4l0,0l0,0c0.5,0.3,0.6,0.9,0.4,1.4l0,0c-0.2,0.3-0.5,0.5-0.9,0.5l0,0C68.7,28.5,68.5,28.5,68.4,28.4z"/>
		<path class="st2" d="M78.4,34c-0.6,0-1-0.4-1-1c0-0.3,0.1-0.5,0.3-0.7c0.4-0.4,1-0.4,1.4,0c0.4,0.4,0.4,1,0,1.4
			C78.9,33.9,78.7,34,78.4,34z"/>
		<path class="st2" d="M64.1,25.8c-0.6,0-1-0.4-1-1c0-0.3,0.1-0.5,0.3-0.7c0.1-0.1,0.2-0.2,0.3-0.2c0.5-0.2,1.1,0,1.3,0.5
			c0.2,0.5,0,1.1-0.5,1.3C64.4,25.8,64.3,25.8,64.1,25.8z"/>
		<path class="st2" d="M53.7,30.8c-0.3-0.5-0.1-1.1,0.4-1.4l0,0l0,0c0.5-0.3,1.1-0.1,1.4,0.4l0,0l0,0c0.3,0.5,0.1,1.1-0.4,1.4l0,0
			c-0.2,0.1-0.3,0.1-0.5,0.1l0,0C54.2,31.3,53.9,31.1,53.7,30.8z M58.5,28c-0.3-0.5-0.1-1.1,0.4-1.4l0,0l0,0
			c0.5-0.3,1.1-0.1,1.4,0.4l0,0l0,0c0.3,0.5,0.1,1.1-0.4,1.4l0,0c-0.2,0.1-0.3,0.1-0.5,0.1l0,0C59,28.5,58.7,28.4,58.5,28L58.5,28z"
			/>
		<path class="st2" d="M49.8,34c-0.6,0-1-0.4-1-1c0-0.3,0.1-0.5,0.3-0.7c0.4-0.4,1-0.4,1.4,0c0.4,0.4,0.4,1,0,1.4
			C50.3,33.9,50.1,34,49.8,34z"/>
		<polygon class="st0" points="112.6,52.8 98.1,61.2 83.5,52.8 83.5,36 98.1,27.6 112.6,36 		"/>
		<polygon class="st1" points="112.6,36 98.1,44.4 83.5,36 83.5,36 98.1,27.6 		"/>
		<polygon class="st0" points="98.1,44.4 98.1,61.2 112.6,52.8 112.6,36 		"/>
		<path class="st2" d="M98.1,62.2c-0.2,0-0.3,0-0.5-0.1L83,53.7c-0.3-0.2-0.5-0.5-0.5-0.9V36c0-0.4,0.2-0.7,0.5-0.9l14.5-8.4
			c0.3-0.2,0.7-0.2,1,0l14.5,8.4c0.3,0.2,0.5,0.5,0.5,0.9v16.8c0,0.4-0.2,0.7-0.5,0.9l-14.5,8.4C98.4,62.1,98.3,62.2,98.1,62.2z
			 M84.5,52.2L98.1,60l13.5-7.8V36.6l-13.5-7.8l-13.5,7.8L84.5,52.2L84.5,52.2z"/>
		<path class="st2" d="M98.1,45.4c-0.2,0-0.3,0-0.5-0.1L83,36.9c-0.5-0.3-0.6-0.9-0.4-1.4c0.1-0.2,0.2-0.3,0.4-0.4l14.5-8.4
			c0.3-0.2,0.7-0.2,1,0l14.5,8.4c0.5,0.3,0.6,0.9,0.4,1.4c-0.1,0.2-0.2,0.3-0.4,0.4l-14.5,8.4C98.4,45.4,98.3,45.4,98.1,45.4z
			 M85.5,36L98,43.2l12.5-7.2L98,28.8L85.5,36z"/>
		<path class="st2" d="M98.1,62.2c-0.6,0-1-0.4-1-1V44.4c0-0.4,0.2-0.7,0.5-0.9l14.5-8.4c0.5-0.3,1.1-0.1,1.4,0.4
			c0.1,0.2,0.1,0.3,0.1,0.5v16.8c0,0.4-0.2,0.7-0.5,0.9l-14.5,8.4C98.4,62.1,98.3,62.2,98.1,62.2z M99.1,45v14.5l12.5-7.2V37.7
			L99.1,45z"/>
		<path class="st3" d="M98.1,62.2c-0.2,0-0.3,0-0.5-0.1L83,53.7c-0.3-0.2-0.5-0.5-0.5-0.9V36c0-0.4,0.2-0.7,0.5-0.9l14.5-8.4
			c0.3-0.2,0.7-0.2,1,0l14.5,8.4c0.3,0.2,0.5,0.5,0.5,0.9v16.8c0,0.4-0.2,0.7-0.5,0.9l-14.5,8.4C98.4,62.1,98.3,62.2,98.1,62.2z
			 M84.5,52.2L98.1,60l13.5-7.8V36.6l-13.5-7.8l-13.5,7.8L84.5,52.2L84.5,52.2z"/>
		<rect x="1" y="1" class="st7" width="126" height="126"/>
	</g>
	<g>
		<rect class="st7" width="128" height="128"/>
	</g>
</g>
</svg>
