<?xml version="1.0" encoding="utf-8"?>
<!-- Generator: Adobe Illustrator 24.1.2, SVG Export Plug-In . SVG Version: 6.00 Build 0)  -->
<svg version="1.1" id="Layer_1" xmlns="http://www.w3.org/2000/svg" xmlns:xlink="http://www.w3.org/1999/xlink" x="0px" y="0px"
	 width="128px" height="128px" viewBox="0 0 128 128" style="enable-background:new 0 0 128 128;" xml:space="preserve">
<style type="text/css">
	.st0{fill:#FFFFFF;}
	.st1{fill:#0E352C;}
	.st2{fill:#E9EBDF;}
	.st3{fill:#4D9987;}
	.st4{fill:#C4D7D3;}
	.st5{fill:#27ae60;}
	.st6{fill:#185849;}
	.st7{fill:none;}
</style>
<g>
	<polygon class="st0" points="30.9,61.5 47,52.3 67,63.8 50.9,73.1 	"/>
	<path class="st1" d="M50.9,74.1c-0.2,0-0.3,0-0.5-0.1l-20-11.5c-0.5-0.3-0.6-0.9-0.4-1.4c0.1-0.2,0.2-0.3,0.4-0.4l16.1-9.3
		c0.3-0.2,0.7-0.2,1,0l20,11.5c0.5,0.3,0.6,0.9,0.4,1.4c-0.1,0.2-0.2,0.3-0.4,0.4L51.4,74C51.3,74,51.1,74.1,50.9,74.1z M32.9,61.5
		l18,10.4L65,63.8L47,53.4L32.9,61.5z"/>
	<polygon class="st2" points="50.8,37.1 56.2,33.9 56.2,63.7 50.8,66.8 	"/>
	<polygon class="st2" points="50.8,37.1 43.3,32.7 43.3,62.5 50.8,66.8 	"/>
	<path class="st3" d="M50.8,66.8c-0.6,0-1-0.4-1-1V37.1c0-0.4,0.2-0.7,0.5-0.9l5.4-3.1c0.5-0.3,1.1-0.1,1.4,0.4
		c0.1,0.2,0.1,0.3,0.1,0.5v28.7c0,0.6-0.4,1-1,1s-1-0.4-1-1v-27l-3.4,2v28.2C51.8,66.4,51.4,66.8,50.8,66.8z"/>
	<path class="st3" d="M50.8,65.8c-0.6,0-1-0.4-1-1V37.6l-5.5-3.2v27c0,0.6-0.4,1-1,1s-1-0.4-1-1V32.7c0-0.6,0.4-1,1-1
		c0.2,0,0.3,0,0.5,0.1l7.5,4.3c0.3,0.2,0.5,0.5,0.5,0.9v27.7C51.8,65.4,51.4,65.8,50.8,65.8z"/>
	<path class="st1" d="M56.2,63.7c-0.6,0-1-0.4-1-1v-27L51.3,38c-0.3,0.2-0.7,0.2-1,0l-6-3.5v27c0,0.6-0.4,1-1,1s-1-0.4-1-1V32.7
		c0-0.6,0.4-1,1-1c0.2,0,0.3,0,0.5,0.1l7,4.1l4.9-2.8c0.5-0.3,1.1-0.1,1.4,0.4c0.1,0.2,0.1,0.3,0.1,0.5v28.7
		C57.2,63.2,56.8,63.7,56.2,63.7L56.2,63.7z"/>
	<polygon class="st0" points="83.8,92 99.8,82.7 119.8,94.3 103.7,103.6 	"/>
	<path class="st1" d="M103.7,104.6c-0.2,0-0.3,0-0.5-0.1L83.2,93c-0.5-0.3-0.6-0.9-0.4-1.4c0.1-0.2,0.2-0.3,0.4-0.4l16.1-9.3
		c0.3-0.2,0.7-0.2,1,0l20,11.5c0.5,0.3,0.6,0.9,0.4,1.4c-0.1,0.2-0.2,0.3-0.4,0.4l-16.1,9.3C104.1,104.5,103.9,104.6,103.7,104.6z
		 M85.8,92l18,10.4l14.1-8.1l-18-10.4L85.8,92z"/>
	<polygon class="st2" points="103.6,67.6 109,64.4 109,94.2 103.6,97.3 	"/>
	<polygon class="st2" points="103.6,67.6 96.1,63.2 96.1,93 103.6,97.3 	"/>
	<path class="st3" d="M103.6,97.3c-0.6,0-1-0.4-1-1V67.6c0-0.4,0.2-0.7,0.5-0.9l5.4-3.1c0.5-0.3,1.1-0.1,1.4,0.4
		c0.1,0.2,0.1,0.3,0.1,0.5v28.7c0,0.6-0.4,1-1,1s-1-0.4-1-1v-27l-3.4,2v28.2C104.6,96.9,104.2,97.3,103.6,97.3z"/>
	<path class="st3" d="M103.6,96.3c-0.6,0-1-0.4-1-1V68.1L97.1,65v27c0,0.6-0.4,1-1,1s-1-0.4-1-1V63.2c0-0.6,0.4-1,1-1
		c0.2,0,0.3,0,0.5,0.1l7.5,4.3c0.3,0.2,0.5,0.5,0.5,0.9v27.7C104.6,95.9,104.2,96.3,103.6,96.3z"/>
	<path class="st1" d="M109,94.2c-0.6,0-1-0.4-1-1v-27l-3.9,2.3c-0.3,0.2-0.7,0.2-1,0l-6-3.5v27c0,0.6-0.4,1-1,1s-1-0.4-1-1V63.2
		c0-0.6,0.4-1,1-1c0.2,0,0.3,0,0.5,0.1l7,4.1l4.9-2.8c0.5-0.3,1.1-0.1,1.4,0.4c0.1,0.2,0.1,0.3,0.1,0.5v28.7
		C110,93.7,109.6,94.2,109,94.2z"/>
	<polygon class="st4" points="36.9,15 36.9,30.8 48.7,21.9 	"/>
	<polygon class="st4" points="72.4,35.5 60.6,28.7 48.7,37.7 60.6,44.5 	"/>
	<polygon class="st4" points="96.1,49.2 84.3,42.4 72.4,51.3 84.3,58.2 	"/>
	<polygon class="st4" points="108,71.9 108,56.1 96.1,65 	"/>
	<polygon class="st0" points="108,56.1 116.4,51.2 45.3,10.1 36.9,15 	"/>
	<polygon class="st4" points="60.6,28.7 48.7,21.9 36.9,30.8 48.7,37.7 	"/>
	<polygon class="st4" points="84.3,42.4 72.4,35.5 60.6,44.5 72.4,51.3 	"/>
	<polygon class="st4" points="108,56.1 96.1,49.2 84.3,58.2 96.1,65 	"/>
	<polygon class="st4" points="108,56.1 116.4,51.2 116.4,67 108,71.9 	"/>
	<path class="st5" d="M108,57.1c-0.2,0-0.3,0-0.5-0.1L36.4,16c-0.5-0.3-0.6-0.9-0.4-1.4c0.1-0.2,0.2-0.3,0.4-0.4l8.5-4.9
		c0.3-0.2,0.7-0.2,1,0l71.1,41c0.5,0.3,0.6,0.9,0.4,1.4c-0.1,0.2-0.2,0.3-0.4,0.4l-8.5,4.9C108.3,57,108.2,57.1,108,57.1z M38.9,15
		L108,54.9l6.5-3.7L45.3,11.3L38.9,15z"/>
	<path class="st5" d="M108,72.9c-0.2,0-0.3,0-0.5-0.1l-71.1-41c-0.3-0.2-0.5-0.5-0.5-0.9V15c0-0.4,0.2-0.7,0.5-0.9l8.5-4.9
		c0.3-0.2,0.7-0.2,1,0l71.1,41c0.3,0.2,0.5,0.5,0.5,0.9V67c0,0.4-0.2,0.7-0.5,0.9l-8.5,4.9C108.3,72.8,108.2,72.9,108,72.9z
		 M37.9,30.2L108,70.7l7.5-4.3V51.8L45.3,11.3l-7.5,4.3L37.9,30.2z"/>
	<path class="st5" d="M36.9,31.8c-0.6,0-1-0.4-1-1V15c0-0.6,0.4-1,1-1c0.2,0,0.3,0,0.5,0.1L49.2,21c0.5,0.3,0.6,0.9,0.4,1.4
		c-0.1,0.1-0.2,0.2-0.3,0.3l-11.8,9C37.3,31.8,37.1,31.8,36.9,31.8z M37.9,16.8v12.1l9-6.8L37.9,16.8z"/>
	<path class="st5" d="M60.6,45.5c-0.2,0-0.3,0-0.5-0.1l-11.8-6.8c-0.5-0.3-0.6-0.9-0.4-1.4c0.1-0.1,0.2-0.2,0.3-0.3l11.8-9
		c0.3-0.2,0.8-0.3,1.1-0.1L73,34.6c0.5,0.3,0.6,0.9,0.4,1.4c-0.1,0.1-0.2,0.2-0.3,0.3l-11.8,9C61,45.4,60.8,45.5,60.6,45.5z
		 M50.5,37.6l10,5.8l10.1-7.6l-10-5.8L50.5,37.6z"/>
	<path class="st5" d="M84.3,59.2c-0.2,0-0.3,0-0.5-0.1L72,52.3c-0.5-0.3-0.6-0.9-0.4-1.4c0.1-0.1,0.2-0.2,0.3-0.3l11.8-9
		c0.3-0.2,0.8-0.3,1.1-0.1l11.8,6.8c0.5,0.3,0.6,0.9,0.4,1.4c-0.1,0.1-0.2,0.2-0.3,0.3l-11.8,9C84.7,59.1,84.5,59.2,84.3,59.2z
		 M74.2,51.2l10,5.8l10.1-7.6l-10-5.8L74.2,51.2z"/>
	<path class="st5" d="M108,72.9c-0.2,0-0.3,0-0.5-0.1L95.7,66c-0.5-0.3-0.6-0.9-0.4-1.4c0.1-0.1,0.2-0.2,0.3-0.3l11.8-9
		c0.4-0.3,1.1-0.2,1.4,0.2c0.1,0.2,0.2,0.4,0.2,0.6v15.8C109,72.4,108.5,72.9,108,72.9L108,72.9z M97.9,64.9l9,5.2v-12L97.9,64.9z"
		/>
	<path class="st6" d="M108,72.9c-0.2,0-0.3,0-0.5-0.1l-71.1-41c-0.3-0.2-0.5-0.5-0.5-0.9V15c0-0.4,0.2-0.7,0.5-0.9l8.5-4.9
		c0.3-0.2,0.7-0.2,1,0l19,11l0,0l52,30c0.3,0.2,0.5,0.5,0.5,0.9V67c0,0.4-0.2,0.7-0.5,0.9l-8.5,4.9C108.3,72.8,108.2,72.9,108,72.9z
		 M37.9,30.2L108,70.7l7.5-4.3V51.8L45.3,11.3l-7.5,4.3L37.9,30.2z"/>
	<path class="st3" d="M7.3,118.4c-0.3-0.5-0.1-1.1,0.4-1.4l0,0l0,0c0.5-0.3,1.1-0.1,1.4,0.4l0,0l0,0c0.3,0.5,0.1,1.1-0.4,1.4l0,0
		c-0.2,0.1-0.3,0.1-0.5,0.1l0,0C7.8,118.9,7.5,118.7,7.3,118.4z M12.5,115.4c-0.3-0.5-0.1-1.1,0.4-1.4l0,0c0.5-0.3,1.1-0.1,1.4,0.4
		l0,0l0,0c0.3,0.5,0.1,1.1-0.3,1.4l0,0l0,0c-0.2,0.1-0.3,0.1-0.5,0.1l0,0C13,115.9,12.7,115.7,12.5,115.4z M17.7,112.4
		c-0.3-0.5-0.1-1.1,0.4-1.4l0,0l0,0c0.5-0.3,1.1-0.1,1.4,0.4l0,0l0,0c0.3,0.5,0.1,1.1-0.4,1.4l0,0l0,0c-0.1,0.1-0.3,0.1-0.5,0.1l0,0
		C18.2,112.9,17.9,112.7,17.7,112.4z M22.9,109.4c-0.3-0.5-0.1-1.1,0.4-1.4l0,0l0,0c0.5-0.3,1.1-0.1,1.4,0.4l0,0l0,0
		c0.3,0.5,0.1,1.1-0.4,1.4l0,0c-0.2,0.1-0.3,0.1-0.5,0.1l0,0C23.4,109.9,23.1,109.7,22.9,109.4z M28.1,106.4
		c-0.3-0.5-0.1-1.1,0.4-1.4l0,0c0.5-0.3,1.1-0.1,1.4,0.4l0,0l0,0c0.3,0.5,0.1,1.1-0.3,1.4l0,0l0,0c-0.2,0.1-0.3,0.1-0.5,0.1l0,0
		C28.6,106.9,28.3,106.7,28.1,106.4z"/>
	<path class="st2" d="M35.5,104.7c-0.9,0-1.7-0.2-2.5-0.6c-1.1-0.5-1.6-1.8-1.1-2.9c0.2-0.5,0.6-0.9,1.1-1.1c1.6-0.8,3.4-0.8,5,0
		c1.1,0.5,1.6,1.8,1.1,2.9c-0.2,0.5-0.6,0.9-1.1,1.1C37.3,104.5,36.4,104.7,35.5,104.7z M35.5,101.4c-0.5,0-1,0.1-1.5,0.3
		c-0.1,0.1-0.2,0.2-0.3,0.3c0.1,0.1,0.2,0.2,0.3,0.3c0.9,0.4,2,0.4,3,0c0.1-0.1,0.2-0.2,0.3-0.3c-0.1-0.1-0.2-0.2-0.3-0.3
		C36.6,101.5,36.1,101.4,35.5,101.4L35.5,101.4z"/>
	<path class="st2" d="M55.3,102c-4.6,0.1-9.2-1-13.2-3.2c-3.7-2.1-5.8-5.1-5.8-8.2s2-6.1,5.8-8.2c7.3-4.2,19.2-4.2,26.5,0l0,0
		c3.7,2.1,5.8,5.1,5.8,8.2s-2.1,6.1-5.8,8.2C64.5,101,59.9,102.1,55.3,102z M55.3,81.2c-4.3-0.1-8.5,0.9-12.2,2.9
		c-3.1,1.8-4.8,4.1-4.8,6.5s1.7,4.7,4.8,6.5c6.7,3.9,17.7,3.9,24.5,0c3.1-1.8,4.8-4.1,4.8-6.5s-1.7-4.7-4.8-6.5l0,0
		C63.8,82.2,59.6,81.2,55.3,81.2z"/>
	<path class="st2" d="M55.3,96.1c-0.6,0-1-0.4-1-1v-8.9c0-0.6,0.4-1,1-1s1,0.4,1,1v8.9C56.3,95.6,55.9,96.1,55.3,96.1z"/>
	<path class="st2" d="M63,91.6H47.6c-0.6,0-1-0.4-1-1s0.4-1,1-1H63c0.6,0,1,0.4,1,1S63.6,91.6,63,91.6z"/>
	<rect x="1" y="1" class="st7" width="126" height="126"/>
	<g>
		<rect class="st7" width="128" height="128"/>
	</g>
</g>
</svg>
