<?xml version="1.0" encoding="utf-8"?>
<!-- Generator: Adobe Illustrator 24.1.2, SVG Export Plug-In . SVG Version: 6.00 Build 0)  -->
<svg version="1.1" id="Layer_1" xmlns="http://www.w3.org/2000/svg" xmlns:xlink="http://www.w3.org/1999/xlink" x="0px" y="0px"
	 width="128px" height="128px" viewBox="0 0 128 128" style="enable-background:new 0 0 128 128;" xml:space="preserve">
<style type="text/css">
	.st0{fill:#27ae60;}
	.st1{fill:#0E352C;}
	.st2{fill:none;}
</style>
<g>
	<path class="st0" d="M40.8,114.6c-0.2,0.4-0.5,0.7-0.8,0.9l-16.2,9.3c-0.5,0.3-1,0.2-1.2-0.3c-0.2-0.8-0.1-1.6,0.3-2.2l29.5-50.2
		c0.7-1.1,0.7-2.5,0-2.8L23,53c-0.4-0.3-0.6-0.9-0.5-1.4c0.1-0.9,0.6-1.7,1.3-2.2l15.6-9c0.2-0.2,0.6-0.2,0.8-0.1l32.1,17.5l0.3,0.2
		c0.5,0.3,0.5,1.3,0,2.1l-0.3,0.6L40.8,114.6z"/>
	<path class="st1" d="M77.2,50.2c0.5,0.3,1.3-0.2,1.8-1l25.8-43.4c0.4-0.6,0.5-1.2,0.5-1.9c-0.1-0.8-0.7-1-1.3-0.7l-15.6,9
		c-0.3,0.2-0.6,0.5-0.8,0.9l-18.1,30c-0.7,1.1-0.7,2.5,0,2.8L77.2,50.2z"/>
	<path class="st1" d="M77.1,62.7c0.5-0.9,1.3-1.3,1.8-1L105,75.1c0.4,0.3,0.6,0.9,0.5,1.4c-0.1,0.9-0.6,1.7-1.3,2.2l-15.6,9
		c-0.2,0.2-0.6,0.2-0.8,0.1l-18-9.6c-0.7-0.4-0.7-1.7,0-2.8L77.1,62.7z"/>
	<rect x="1" y="1" class="st2" width="126" height="126"/>
	<g>
		<rect class="st2" width="128" height="128"/>
	</g>
</g>
</svg>
