<?xml version="1.0" encoding="utf-8"?>
<!-- Generator: Adobe Illustrator 24.1.2, SVG Export Plug-In . SVG Version: 6.00 Build 0)  -->
<svg version="1.1" id="Layer_1" xmlns="http://www.w3.org/2000/svg" xmlns:xlink="http://www.w3.org/1999/xlink" x="0px" y="0px"
	 width="128px" height="128px" viewBox="0 0 128 128" style="enable-background:new 0 0 128 128;" xml:space="preserve">
<style type="text/css">
	.st0{fill:#E9EBDF;}
	.st1{fill:#4D9987;}
	.st2{fill:#FFFFFF;}
	.st3{fill:#0E352C;}
	.st4{fill:none;}
</style>
<g>
	<path class="st0" d="M10.4,51.8l31.9-18.4c3.2-1.6,6.9-1.6,10.1,0l61.2,35.4l12.3,0.8v8c-0.1,1.3-0.9,2.4-2.1,2.9l-38.3,22.1
		c-3.2,1.6-6.9,1.6-10.1,0L4.1,61.3c-1.2-0.5-2-1.6-2.1-2.9v-8L10.4,51.8z"/>
	<path class="st1" d="M80.5,49.6v54.2c1.8,0,3.6-0.4,5.1-1.2l38.3-22.1c1.2-0.5,2-1.6,2.1-2.9v-8l-12.3-0.8L80.5,49.6z"/>
	<path class="st1" d="M80.6,104.8c-1.9,0-3.8-0.4-5.5-1.3L3.6,62.2C2.1,61.5,1.1,60,1,58.4v-8c0-0.6,0.4-1,1-1c0.1,0,0.1,0,0.2,0
		l8.1,1.3l31.6-18.3c3.5-1.8,7.6-1.8,11.1,0l61,35.2l12.1,0.8c0.5,0,0.9,0.5,0.9,1v8c-0.1,1.6-1.1,3.1-2.6,3.8l-38.3,22.1
		C84.4,104.4,82.5,104.8,80.6,104.8z M3,51.6v6.8c0.1,0.9,0.7,1.7,1.6,2l71.5,41.3c2.9,1.4,6.2,1.4,9.1,0l38.3-22.1
		c0.8-0.4,1.4-1.1,1.6-2v-7l-11.4-0.8c-0.2,0-0.3-0.1-0.4-0.1L51.9,34.3c-2.9-1.4-6.2-1.4-9.1,0L10.9,52.7c-0.2,0.1-0.4,0.2-0.7,0.1
		L3,51.6z"/>
	<path class="st2" d="M123.9,66.7L52.4,25.4c-3.2-1.6-6.9-1.6-10.1,0L4.1,47.5c-2.8,1.6-2.8,4.2,0,5.8l71.5,41.3
		c3.2,1.6,6.9,1.6,10.1,0L124,72.5C126.7,70.9,126.7,68.3,123.9,66.7z"/>
	<path class="st0" d="M123.9,66.7L64,32.1v55.8l11.6,6.7c3.2,1.6,6.9,1.6,10.1,0L124,72.5C126.7,70.9,126.7,68.3,123.9,66.7z"/>
	<ellipse class="st1" cx="97.8" cy="79.5" rx="2.2" ry="1.3"/>
	<path class="st2" d="M80.6,96.8c-1.9,0-3.8-0.4-5.5-1.3L3.6,54.2c-1.5-0.7-2.5-2.1-2.6-3.8c0.1-1.6,1.1-3.1,2.6-3.8l38.3-22.1
		c3.5-1.8,7.6-1.8,11.1,0l71.5,41.3c2.1,0.8,3.1,3.2,2.3,5.2c-0.4,1.1-1.3,1.9-2.3,2.3L86.1,95.5C84.4,96.4,82.5,96.9,80.6,96.8z
		 M47.4,25.2c-1.6,0-3.1,0.3-4.5,1.1L4.6,48.4c-0.8,0.4-1.4,1.1-1.6,2c0.1,0.9,0.7,1.7,1.6,2l71.5,41.3c2.9,1.4,6.2,1.4,9.1,0
		l38.3-22.1c0.8-0.4,1.4-1.1,1.6-2c-0.1-0.9-0.7-1.7-1.6-2L51.9,26.3C50.5,25.6,49,25.2,47.4,25.2z"/>
	<path class="st3" d="M80.6,104.8c-1.9,0-3.8-0.4-5.5-1.3L3.6,62.2C2.1,61.5,1.1,60,1,58.4v-8c0.1-1.6,1.1-3.1,2.6-3.8l38.3-22.1
		c3.5-1.8,7.6-1.8,11.1,0l71.5,41.3c0.2,0.1,0.4,0.2,0.6,0.4c0.2,0.1,0.3,0.3,0.5,0.4l0,0c0.9,0.7,1.5,1.8,1.5,3v8
		c-0.1,1.6-1.1,3.1-2.6,3.8l-38.3,22.1c-0.4,0.2-0.8,0.4-1.2,0.6c-0.3,0.1-0.5,0.2-0.8,0.3l-0.2,0.1c-0.1,0-0.2,0.1-0.2,0.1
		c-0.4,0.1-0.8,0.2-1.3,0.2c-0.5,0.1-0.9,0.1-1.4,0.1C80.9,104.8,80.7,104.8,80.6,104.8z M47.4,25.2c-1.6,0-3.1,0.3-4.5,1.1
		L4.6,48.4c-0.8,0.4-1.4,1.1-1.6,2v8c0.1,0.9,0.7,1.7,1.6,2l71.5,41.3c1.5,0.8,3.2,1.1,4.9,1.1c0.4,0,0.8,0,1.1-0.1
		c0.4,0,0.7-0.1,1.1-0.2l0.3-0.1c0.3-0.1,0.5-0.1,0.7-0.2c0.3-0.1,0.6-0.3,0.9-0.4l38.3-22.1c0.8-0.4,1.4-1.1,1.6-2v-8
		c-0.1-0.6-0.4-1.1-0.8-1.5c-0.1-0.1-0.2-0.2-0.3-0.3c-0.1-0.1-0.3-0.2-0.4-0.3L51.9,26.3C50.5,25.6,49,25.2,47.4,25.2z"/>
	<rect x="1" y="1" class="st4" width="126" height="126"/>
	<g>
		<rect class="st4" width="128" height="128"/>
	</g>
</g>
</svg>
