<?xml version="1.0" encoding="utf-8"?>
<!-- Generator: Adobe Illustrator 24.1.2, SVG Export Plug-In . SVG Version: 6.00 Build 0)  -->
<svg version="1.1" id="Layer_1" xmlns="http://www.w3.org/2000/svg" xmlns:xlink="http://www.w3.org/1999/xlink" x="0px" y="0px"
	 width="128px" height="128px" viewBox="0 0 128 128" style="enable-background:new 0 0 128 128;" xml:space="preserve">
<style type="text/css">
	.st0{fill:none;}
	.st1{fill:#185849;}
	.st2{fill:#E9EBDF;}
	.st3{fill:#FFFFFF;}
	.st4{fill:#4D9987;}
	.st5{fill:#0E352C;}
	.st6{fill:#C4D7D3;}
</style>
<g>
	<rect x="1" y="1" class="st0" width="126" height="126"/>
	<path class="st1" d="M19.3,88c-0.1,0-0.3,0-0.4-0.1c-0.1,0-0.2-0.1-0.3-0.2c-0.1-0.1-0.2-0.2-0.2-0.3c0-0.1-0.1-0.3-0.1-0.4
		c0-0.4,0.2-0.8,0.6-0.9c0.2-0.1,0.5-0.1,0.8,0c0.4,0.2,0.6,0.5,0.6,0.9c0,0.1,0,0.3-0.1,0.4s-0.1,0.2-0.2,0.3
		C19.8,87.9,19.5,88,19.3,88z"/>
	<path class="st1" d="M18.3,81.2c0-0.6,0.4-1,1-1l0,0l0,0c0.5,0,1,0.4,1,1l0,0l0,0c0,0.5-0.4,1-1,1l0,0l0,0
		C18.7,82.2,18.3,81.8,18.3,81.2L18.3,81.2z M18.3,75.5c0-0.6,0.4-1,1-1l0,0l0,0c0.6,0,1,0.5,1,1l0,0l0,0c0,0.5-0.4,1-1,1l0,0l0,0
		C18.7,76.5,18.3,76.1,18.3,75.5z M18.3,69.8c0-0.6,0.4-1,1-1l0,0l0,0c0.5,0,1,0.4,1,1l0,0l0,0c0,0.5-0.4,1-1,1l0,0l0,0
		C18.7,70.8,18.3,70.3,18.3,69.8L18.3,69.8z M18.3,64c0-0.6,0.4-1,1-1l0,0l0,0c0.5,0,1,0.4,1,1l0,0l0,0c0,0.5-0.4,1-1,1l0,0l0,0
		C18.7,65,18.3,64.6,18.3,64L18.3,64z M18.3,58.2c0-0.6,0.4-1,1-1l0,0l0,0c0.5,0,1,0.4,1,1l0,0l0,0c0,0.5-0.4,1-1,1l0,0l0,0
		C18.7,59.3,18.3,58.8,18.3,58.2C18.3,58.3,18.3,58.3,18.3,58.2z M18.3,52.5c0-0.6,0.4-1,1-1l0,0l0,0c0.6,0,1,0.5,1,1l0,0l0,0
		c0,0.5-0.4,1-1,1l0,0l0,0C18.7,53.5,18.3,53.1,18.3,52.5L18.3,52.5z M18.3,46.8c0-0.6,0.4-1,1-1l0,0l0,0c0.5,0,1,0.4,1,1l0,0l0,0
		c0,0.5-0.4,1-1,1l0,0l0,0C18.7,47.8,18.3,47.3,18.3,46.8L18.3,46.8z"/>
	<path class="st1" d="M19.3,42c-0.3,0-0.5-0.1-0.7-0.3c-0.1-0.1-0.2-0.2-0.2-0.3c-0.1-0.2-0.1-0.5,0-0.8c0-0.1,0.1-0.2,0.2-0.3
		c0.3-0.3,0.7-0.4,1.1-0.2c0.2,0.1,0.4,0.3,0.5,0.5s0.1,0.5,0,0.8c0,0.1-0.1,0.2-0.2,0.3s-0.2,0.2-0.3,0.2C19.5,42,19.4,42,19.3,42z
		"/>
	<path class="st1" d="M64,62.2c-0.1,0-0.3,0-0.4-0.1c-0.1-0.1-0.2-0.1-0.3-0.2c-0.1-0.1-0.2-0.2-0.2-0.3c-0.1-0.2-0.1-0.5,0-0.8
		c0-0.1,0.1-0.2,0.2-0.3c0,0,0.1-0.1,0.2-0.1c0.1,0,0.1-0.1,0.2-0.1c0.1,0,0.1,0,0.2-0.1c0.2,0,0.4,0,0.6,0.1
		c0.1,0.1,0.2,0.1,0.3,0.2c0.1,0.1,0.2,0.2,0.2,0.3c0.1,0.2,0.1,0.5,0,0.8c-0.1,0.1-0.1,0.2-0.2,0.3s-0.2,0.2-0.3,0.2
		C64.3,62.1,64.1,62.2,64,62.2z"/>
	<path class="st1" d="M63,54.4c0-0.6,0.4-1,1-1l0,0c0.6,0,1,0.4,1,1l0,0c0,0.6-0.4,1-1,1l0,0C63.4,55.4,63,55,63,54.4z M63,47.7
		c0-0.6,0.4-1,1-1l0,0c0.6,0,1,0.4,1,1l0,0c0,0.6-0.4,1-1,1l0,0C63.4,48.7,63,48.3,63,47.7z"/>
	<path class="st1" d="M64,42c-0.1,0-0.3,0-0.4-0.1c-0.1-0.1-0.2-0.1-0.3-0.2c-0.1-0.1-0.2-0.2-0.2-0.3c-0.1-0.2-0.1-0.5,0-0.8
		c0-0.1,0.1-0.2,0.2-0.3c0.1-0.1,0.2-0.2,0.3-0.2c0.2-0.1,0.5-0.1,0.8,0c0.1,0,0.2,0.1,0.3,0.2c0.1,0.1,0.2,0.2,0.2,0.3
		c0.1,0.2,0.1,0.5,0,0.8c0,0.1-0.1,0.2-0.2,0.3C64.5,41.9,64.3,42,64,42z"/>
	<path class="st2" d="M25.6,88c-0.1,0-0.3,0-0.4-0.1c-0.2-0.1-0.4-0.3-0.5-0.5c-0.1-0.1-0.1-0.2-0.1-0.4c0-0.1,0-0.3,0.1-0.4
		c0.2-0.5,0.8-0.7,1.3-0.5c0.1,0,0.2,0.1,0.3,0.2c0.1,0.1,0.2,0.2,0.2,0.3c0,0.1,0.1,0.3,0.1,0.4s0,0.3-0.1,0.4s-0.1,0.2-0.2,0.3
		c-0.1,0.1-0.2,0.2-0.3,0.2C25.9,88,25.7,88,25.6,88z"/>
	<path class="st2" d="M29.3,83.8c-0.3-0.5-0.2-1.1,0.3-1.4l0,0c0.5-0.3,1.1-0.2,1.4,0.3l0,0c0.3,0.5,0.2,1.1-0.3,1.4l0,0
		c-0.2,0.1-0.4,0.2-0.6,0.2l0,0C29.8,84.2,29.5,84,29.3,83.8z M34.4,80.7c-0.2-0.5,0-1.1,0.5-1.3l0,0l0,0c0.5-0.2,1.1,0,1.3,0.4l0,0
		c0.2,0.5,0,1.1-0.5,1.3l0,0l0,0c-0.1,0.1-0.3,0.1-0.4,0.1l0,0C34.9,81.2,34.5,81,34.4,80.7z M39.8,78.3c-0.2-0.5,0.1-1.1,0.6-1.3
		l0,0l0,0c0.5-0.2,1.1,0.1,1.3,0.6l0,0c0.2,0.5-0.1,1.1-0.6,1.3l0,0c-0.1,0-0.2,0.1-0.3,0.1l0,0C40.3,78.9,39.9,78.7,39.8,78.3z
		 M45.4,76.5c-0.1-0.5,0.2-1.1,0.7-1.2l0,0c0.5-0.1,1.1,0.2,1.2,0.7l0,0c0.1,0.5-0.2,1.1-0.7,1.2l0,0l0,0c-0.1,0-0.2,0-0.2,0l0,0
		C45.9,77.2,45.5,76.9,45.4,76.5z M51.2,75.2c-0.1-0.5,0.3-1.1,0.8-1.1l0,0l0,0c0.5-0.1,1.1,0.3,1.1,0.8l0,0l0,0
		c0.1,0.5-0.3,1.1-0.8,1.1l0,0c0,0-0.1,0-0.2,0l0,0C51.7,76.1,51.3,75.7,51.2,75.2z M57.1,74.4c0-0.5,0.4-1,0.9-1.1l0,0
		c0.6,0,1,0.4,1.1,0.9l0,0c0,0.6-0.4,1-0.9,1.1h-0.1C57.6,75.4,57.1,75,57.1,74.4L57.1,74.4z"/>
	<path class="st2" d="M64,75.1c-0.1,0-0.3,0-0.4-0.1c-0.2-0.1-0.4-0.3-0.5-0.5C63,74.4,63,74.3,63,74.1c0-0.1,0-0.3,0.1-0.4
		c0-0.1,0.1-0.2,0.2-0.3c0.1-0.1,0.2-0.2,0.3-0.2c0.2-0.1,0.5-0.1,0.8,0c0.1,0,0.2,0.1,0.3,0.2c0.1,0.1,0.2,0.2,0.2,0.3
		c0.1,0.2,0.1,0.5,0,0.8c-0.1,0.2-0.3,0.4-0.5,0.5C64.3,75.1,64.1,75.1,64,75.1z"/>
	<polygon class="st2" points="64,98.2 64,87 95.6,68.7 95.6,79.9 	"/>
	<path class="st2" d="M31.8,87H19.3v11.2c0,6.6,4.4,13.2,13.1,18.3c17.5,10.1,45.8,10.1,63.3,0c8.7-5,13.1-11.7,13.1-18.3V87H31.8z"
		/>
	<path class="st2" d="M96.2,87H64v37c11.4,0,22.9-2.5,31.6-7.6s13.1-11.7,13.1-18.3V87H96.2z"/>
	<path class="st2" d="M95.6,68.7c-8.7-5-20.2-7.6-31.6-7.6V87L95.6,68.7z"/>
	<path class="st3" d="M95.6,68.7L64,87H19.3c0,6.6,4.4,13.2,13.1,18.3c17.5,10.1,45.8,10.1,63.3,0S113.1,78.8,95.6,68.7z"/>
	<path class="st4" d="M64,113.8c-11.6,0-23.3-2.6-32.1-7.7S18.3,94.2,18.3,87c0-0.6,0.4-1,1-1h44.5l31.4-18.1c0.3-0.2,0.7-0.2,1,0
		C105,73,109.8,79.8,109.8,87s-4.8,14.1-13.6,19.1C87.3,111.2,75.6,113.8,64,113.8z M20.3,88c0.4,6.2,4.9,11.9,12.6,16.4
		c17.2,9.9,45.1,9.9,62.3,0c8.1-4.7,12.6-10.9,12.6-17.4c0-6.4-4.3-12.5-12.1-17.1l-31.1,18c-0.3,0-0.4,0.1-0.6,0.1H20.3z"/>
	<path class="st5" d="M64,125c-11.6,0-23.3-2.6-32.1-7.7s-13.6-11.9-13.6-19.1V87c0-0.6,0.4-1,1-1H63V61.2c0-0.6,0.4-1,1-1
		c12.1,0,23.5,2.7,32.1,7.7c8.8,5.1,13.6,11.9,13.6,19.1v11.2c0,7.3-4.8,14.1-13.6,19.1C87.3,122.4,75.6,125,64,125z M20.3,88v10.2
		c0,6.5,4.5,12.7,12.6,17.4c17.2,9.9,45.1,9.9,62.3,0c8.1-4.7,12.6-10.9,12.6-17.4V87l0,0c0-6.5-4.5-12.7-12.6-17.4
		c-8.1-4.7-18.7-7.3-30.1-7.4V87c0,0.6-0.4,1-1,1H20.3z"/>
	<path class="st3" d="M64,4c-11.4,0-22.9,2.5-31.6,7.6S19.3,23.2,19.3,29.8H64V4z"/>
	<rect x="19.3" y="29.8" class="st6" width="44.7" height="11.2"/>
	<path class="st3" d="M64,42H19.3c-0.6,0-1-0.4-1-1V29.8c0-0.6,0.4-1,1-1H64c0.6,0,1,0.4,1,1V41C65,41.6,64.6,42,64,42z M20.3,40H63
		v-9.2H20.3V40z"/>
	<path class="st1" d="M64,42H19.3c-0.6,0-1-0.4-1-1V29.8c0-7.3,4.8-14.1,13.6-19.1C40.5,5.7,51.9,3,64,3c0.6,0,1,0.4,1,1v37
		C65,41.6,64.6,42,64,42z M20.3,40H63V5c-11.4,0.1-22.1,2.8-30.1,7.4l-0.5-0.9l0.5,0.9c-8.1,4.7-12.6,10.9-12.6,17.4L20.3,40z"/>
	<g>
		<rect class="st0" width="128" height="128"/>
	</g>
</g>
</svg>
