<?xml version="1.0" encoding="utf-8"?>
<!-- Generator: Adobe Illustrator 24.1.2, SVG Export Plug-In . SVG Version: 6.00 Build 0)  -->
<svg version="1.1" id="Layer_1" xmlns="http://www.w3.org/2000/svg" xmlns:xlink="http://www.w3.org/1999/xlink" x="0px" y="0px"
	 width="128px" height="128px" viewBox="0 0 128 128" style="enable-background:new 0 0 128 128;" xml:space="preserve">
<style type="text/css">
	.st0{fill:#FFFFFF;}
	.st1{fill:#4D9987;}
	.st2{fill:#E9EBDF;}
	.st3{fill:#0E352C;}
	.st4{fill:none;}
</style>
<g>
	<polygon class="st0" points="88.2,66.8 66,79.6 88.2,92.5 110.4,79.6 	"/>
	<path class="st1" d="M88.2,93.5c-0.2,0-0.3,0-0.5-0.1L65.5,80.5c-0.5-0.3-0.6-0.9-0.4-1.4c0.1-0.2,0.2-0.3,0.4-0.4l22.2-12.8
		c0.3-0.2,0.7-0.2,1,0l22.2,12.8c0.5,0.3,0.6,0.9,0.4,1.4c-0.1,0.2-0.2,0.3-0.4,0.4L88.7,93.3C88.5,93.4,88.4,93.5,88.2,93.5z
		 M68,79.6l20.2,11.7l20.2-11.7L88.2,68L68,79.6z"/>
	<path class="st2" d="M88.2,87.6c-0.2,0-0.3,0-0.5-0.1l-12.1-7c-0.5-0.3-0.6-0.9-0.4-1.4c0.1-0.2,0.2-0.3,0.4-0.4l12.1-7
		c0.3-0.2,0.7-0.2,1,0l12.1,7c0.5,0.3,0.6,0.9,0.4,1.4c-0.1,0.2-0.2,0.3-0.4,0.4l-12.1,7C88.5,87.6,88.4,87.6,88.2,87.6z M78,79.6
		l10.1,5.8l10.1-5.8l-10.1-5.8L78,79.6z"/>
	<polygon class="st2" points="110.4,87.5 88.2,100.3 88.2,92.5 110.4,79.6 	"/>
	<path class="st1" d="M88.2,101.3c-0.6,0-1-0.4-1-1v-7.9c0-0.4,0.2-0.7,0.5-0.9l22.2-12.8c0.5-0.3,1.1-0.1,1.4,0.4
		c0.1,0.2,0.1,0.3,0.1,0.5v7.9c0,0.4-0.2,0.7-0.5,0.9l-22.2,12.8C88.5,101.3,88.4,101.3,88.2,101.3z M89.2,93v5.6l20.2-11.7v-5.6
		L89.2,93z"/>
	<polygon class="st2" points="66,87.5 88.2,100.3 88.2,92.5 66,79.6 	"/>
	<path class="st1" d="M88.2,101.3c-0.2,0-0.3,0-0.5-0.1L65.5,88.4c-0.3-0.2-0.5-0.5-0.5-0.9v-7.9c0-0.6,0.4-1,1-1
		c0.2,0,0.3,0,0.5,0.1l22.2,12.8c0.3,0.2,0.5,0.5,0.5,0.9v7.9C89.2,100.9,88.7,101.3,88.2,101.3L88.2,101.3z M67,86.9l20.2,11.7V93
		L67,81.4V86.9z"/>
	<path class="st3" d="M88.2,101.3c-0.2,0-0.3,0-0.5-0.1L65.5,88.4c-0.3-0.2-0.5-0.5-0.5-0.9v-7.9c0-0.4,0.2-0.7,0.5-0.9l22.2-12.8
		c0.3-0.2,0.7-0.2,1,0l22.2,12.8c0.3,0.2,0.5,0.5,0.5,0.9v7.9c0,0.4-0.2,0.7-0.5,0.9l-22.2,12.8C88.5,101.3,88.4,101.3,88.2,101.3z
		 M67,86.9l21.2,12.2l21.2-12.3v-6.7L88.2,68L67,80.2V86.9z"/>
	<polygon class="st2" points="88.2,100.3 66,113.2 66,83.5 88.2,70.7 	"/>
	<path class="st1" d="M66,114.2c-0.6,0-1-0.4-1-1V83.5c0-0.4,0.2-0.7,0.5-0.9l22.2-12.8c0.5-0.3,1.1-0.1,1.4,0.4
		c0.1,0.2,0.1,0.3,0.1,0.5v29.6c0,0.4-0.2,0.7-0.5,0.9L66.5,114C66.3,114.1,66.1,114.2,66,114.2z M67,84.1v27.3l20.2-11.7V72.4
		L67,84.1z"/>
	<polygon class="st2" points="43.7,100.3 66,113.2 66,83.5 43.7,70.7 	"/>
	<path class="st1" d="M66,114.2c-0.2,0-0.3,0-0.5-0.1l-22.2-12.8c-0.3-0.2-0.5-0.5-0.5-0.9V70.7c0-0.6,0.4-1,1-1
		c0.2,0,0.3,0,0.5,0.1l22.2,12.8c0.3,0.2,0.5,0.5,0.5,0.9v29.6C67,113.7,66.5,114.2,66,114.2z M44.7,99.8L65,111.4V84.1L44.7,72.4
		V99.8z"/>
	<polygon class="st0" points="66,57.9 43.7,70.7 66,83.5 88.2,70.7 	"/>
	<path class="st1" d="M66,84.5c-0.2,0-0.3,0-0.5-0.1L43.2,71.6c-0.5-0.3-0.6-0.9-0.4-1.4c0.1-0.2,0.2-0.3,0.4-0.4L65.5,57
		c0.3-0.2,0.7-0.2,1,0l22.2,12.8c0.5,0.3,0.6,0.9,0.4,1.4c-0.1,0.2-0.2,0.3-0.4,0.4L66.5,84.4C66.3,84.5,66.1,84.5,66,84.5z
		 M45.7,70.7L66,82.4l20.2-11.7L66,59L45.7,70.7z"/>
	<path class="st2" d="M66,78.7c-0.2,0-0.3,0-0.5-0.1l-12.1-7c-0.5-0.3-0.6-0.9-0.4-1.4c0.1-0.2,0.2-0.3,0.4-0.4l12.1-7
		c0.3-0.2,0.7-0.2,1,0l12.1,7c0.5,0.3,0.6,0.9,0.4,1.4c-0.1,0.2-0.2,0.3-0.4,0.4l-12.1,7C66.3,78.7,66.1,78.7,66,78.7z M55.8,70.7
		L66,76.6l10.1-5.8L66,64.9L55.8,70.7z"/>
	<path class="st3" d="M66,114.2c-0.2,0-0.3,0-0.5-0.1l-22.2-12.8c-0.3-0.2-0.5-0.5-0.5-0.9V70.7c0-0.4,0.2-0.7,0.5-0.9L65.5,57
		c0.3-0.2,0.7-0.2,1,0l22.2,12.8c0.3,0.2,0.5,0.5,0.5,0.9v29.6c0,0.4-0.2,0.7-0.5,0.9L66.5,114C66.3,114.1,66.1,114.2,66,114.2z
		 M44.7,99.8L66,112l21.2-12.3V71.3L66,59L44.7,71.3V99.8z"/>
	<polygon class="st0" points="43.7,85.5 21.5,98.4 43.7,111.2 66,98.4 	"/>
	<path class="st1" d="M43.7,112.2c-0.2,0-0.3,0-0.5-0.1L21,99.2c-0.5-0.3-0.6-0.9-0.4-1.4c0.1-0.2,0.2-0.3,0.4-0.4l22.2-12.8
		c0.3-0.2,0.7-0.2,1,0l22.2,12.8c0.5,0.3,0.6,0.9,0.4,1.4c-0.1,0.2-0.2,0.3-0.4,0.4L44.2,112C44.1,112.1,43.9,112.2,43.7,112.2z
		 M23.5,98.4L43.7,110L64,98.4L43.7,86.7L23.5,98.4z"/>
	<path class="st2" d="M43.7,106.4c-0.2,0-0.3,0-0.5-0.1l-12.1-7c-0.5-0.3-0.6-0.9-0.4-1.4c0.1-0.2,0.2-0.3,0.4-0.4l12.1-7
		c0.3-0.2,0.7-0.2,1,0l12.1,7c0.5,0.3,0.6,0.9,0.4,1.4c-0.1,0.2-0.2,0.3-0.4,0.4l-12.1,7C44.1,106.3,43.9,106.4,43.7,106.4z
		 M33.6,98.4l10.1,5.8l10.1-5.8l-10.1-5.8L33.6,98.4z"/>
	<polygon class="st2" points="66,113.2 43.7,126 43.7,111.2 66,98.4 	"/>
	<path class="st1" d="M43.7,127c-0.6,0-1-0.4-1-1v-14.8c0-0.4,0.2-0.7,0.5-0.9l22.2-12.8c0.5-0.3,1.1-0.1,1.4,0.4
		c0.1,0.2,0.1,0.3,0.1,0.5v14.8c0,0.4-0.2,0.7-0.5,0.9l-22.2,12.8C44.1,127,43.9,127,43.7,127z M44.7,111.8v12.5L65,112.6v-12.5
		L44.7,111.8z"/>
	<polygon class="st2" points="21.5,113.2 43.7,126 43.7,111.2 21.5,98.4 	"/>
	<path class="st1" d="M43.7,127c-0.2,0-0.3,0-0.5-0.1L21,114c-0.3-0.2-0.5-0.5-0.5-0.9V98.4c0-0.6,0.4-1,1-1c0.2,0,0.3,0,0.5,0.1
		l22.2,12.8c0.3,0.2,0.5,0.5,0.5,0.9V126C44.7,126.6,44.3,127,43.7,127z M22.5,112.6l20.2,11.7v-12.5l-20.2-11.7V112.6z"/>
	<path class="st3" d="M43.7,127c-0.2,0-0.3,0-0.5-0.1L21,114c-0.3-0.2-0.5-0.5-0.5-0.9V98.4c0-0.4,0.2-0.7,0.5-0.9l22.2-12.8
		c0.3-0.2,0.7-0.2,1,0l22.2,12.8c0.3,0.2,0.5,0.5,0.5,0.9v14.8c0,0.4-0.2,0.7-0.5,0.9l-22.2,12.8C44.1,127,43.9,127,43.7,127z
		 M22.5,112.6l21.2,12.3L65,112.6V98.9L43.7,86.7L22.5,98.9V112.6z"/>
	<path class="st3" d="M21.5,48.5c-0.6,0-1-0.4-1-1c0-0.5,0.4-0.9,0.8-1c1.2-0.2,2.4-0.4,3.6-0.7c10.3-2.4,20.2-6.4,29.3-11.8
		c10.6-6.2,20.5-13.7,29.4-22.1c1.2-1.1,2.4-2.3,3.7-3.5c0.4-0.4,1-0.3,1.4,0.1c0.3,0.4,0.3,1,0,1.4c-1.2,1.2-2.5,2.4-3.7,3.6
		c-9.1,8.6-19.1,16.1-29.8,22.4c-9.3,5.5-19.4,9.6-29.9,12c-1.2,0.3-2.5,0.5-3.7,0.7C21.6,48.5,21.6,48.5,21.5,48.5z"/>
	<path class="st2" d="M41.4,41.7l4,9.8l5.2-14.2C47.5,38.9,44.4,40.3,41.4,41.7z"/>
	<path class="st3" d="M45.3,52.5c-0.4,0-0.8-0.2-0.9-0.6l-4-9.8c-0.2-0.5,0-1.1,0.5-1.3c3-1.3,6.1-2.8,9.1-4.4
		c0.5-0.3,1.1-0.1,1.3,0.4c0.1,0.2,0.1,0.5,0.1,0.8l-5.2,14.2C46.1,52.2,45.7,52.5,45.3,52.5L45.3,52.5z M42.7,42.2l2.6,6.5l3.5-9.4
		C46.7,40.4,44.7,41.3,42.7,42.2z"/>
	<path class="st2" d="M32.5,44.9l3.2,10.6l5.9-14C38.6,42.8,35.5,43.9,32.5,44.9z"/>
	<path class="st3" d="M35.7,56.5L35.7,56.5c-0.5,0-0.8-0.3-1-0.7l-3.2-10.6c-0.2-0.5,0.1-1.1,0.6-1.2c3-1,6-2.1,9-3.4
		c0.5-0.2,1.1,0,1.3,0.5c0.1,0.2,0.1,0.5,0,0.8l-5.9,14C36.5,56.3,36.1,56.5,35.7,56.5z M33.7,45.5l2.1,7l3.9-9.2
		C37.7,44.1,35.7,44.9,33.7,45.5z"/>
	<path class="st2" d="M24.9,46.9c-0.4,0.1-0.7,0.2-1.1,0.2l2.5,11.3l6.5-13.7C30.1,45.6,27.5,46.3,24.9,46.9z"/>
	<path class="st3" d="M26.3,59.5h-0.1c-0.4,0-0.8-0.4-0.9-0.8l-2.5-11.3c-0.1-0.5,0.2-1.1,0.8-1.2l0,0l0.4-0.1
		c0.2-0.1,0.5-0.1,0.7-0.2c2.5-0.6,5.1-1.3,7.8-2.1c0.5-0.2,1.1,0.1,1.3,0.7c0.1,0.2,0.1,0.5-0.1,0.7l-6.5,13.7
		C27,59.2,26.6,59.5,26.3,59.5z M25,47.9l1.6,7.5l4.3-9c-2,0.6-3.9,1.1-5.8,1.5l0,0H25z"/>
	<path class="st2" d="M54.9,34.9c-1.5,0.9-3.1,1.7-4.6,2.6l4.7,9l4.6-14.4C58,33.1,56.4,34,54.9,34.9z"/>
	<path class="st3" d="M55,47.5c-0.4,0-0.7-0.2-0.9-0.5l-4.7-9c-0.3-0.5-0.1-1.1,0.4-1.3c1.6-0.8,3.1-1.7,4.6-2.5l0,0
		c1.5-0.9,3-1.8,4.6-2.8c0.5-0.3,1.1-0.2,1.4,0.3c0.2,0.2,0.2,0.6,0.1,0.8l-4.6,14.4C55.8,47.1,55.4,47.4,55,47.5L55,47.5z
		 M51.6,37.9l3.1,6l3-9.5c-0.8,0.5-1.6,1-2.4,1.4C54.2,36.5,52.9,37.2,51.6,37.9z"/>
	<path class="st2" d="M84.9,12.3c-2.6,2.4-5.2,4.8-7.8,7l6.6,6.1L86,11.2C85.6,11.6,85.3,11.9,84.9,12.3z"/>
	<path class="st3" d="M83.6,26.4c-0.3,0-0.5-0.1-0.7-0.3L76.4,20c-0.4-0.4-0.4-1-0.1-1.4l0.1-0.1c2.6-2.2,5.3-4.6,7.8-7l1.1-1.1
		c0.4-0.4,1-0.4,1.4,0c0.2,0.2,0.3,0.5,0.3,0.9l-2.4,14.2c-0.1,0.4-0.3,0.7-0.7,0.8C83.8,26.4,83.7,26.4,83.6,26.4z M78.6,19.3
		l4.4,4.1l1.6-9.4C82.6,15.8,80.6,17.6,78.6,19.3z"/>
	<path class="st2" d="M59.3,32.3l5.3,8.1L68.5,26C65.4,28.3,62.3,30.4,59.3,32.3z"/>
	<path class="st3" d="M64.6,41.4c-0.3,0-0.6-0.2-0.8-0.5l-5.3-8.1c-0.3-0.5-0.2-1.1,0.3-1.4l0,0c3.1-2,6.1-4.1,9.1-6.3
		c0.4-0.3,1.1-0.2,1.4,0.2c0.2,0.2,0.2,0.6,0.2,0.9l-3.9,14.4c-0.1,0.4-0.4,0.7-0.8,0.7C64.7,41.4,64.6,41.4,64.6,41.4z M60.7,32.6
		l3.5,5.4l2.6-9.5C64.7,29.9,62.7,31.3,60.7,32.6L60.7,32.6z"/>
	<path class="st2" d="M68.2,26.3l6,7.1L77.3,19C74.3,21.6,71.3,24,68.2,26.3z"/>
	<path class="st3" d="M74.2,34.4c-0.3,0-0.6-0.1-0.8-0.4l-6-7.1c-0.4-0.4-0.3-1.1,0.1-1.4l0,0c3-2.3,6.1-4.7,9.1-7.2
		c0.4-0.4,1.1-0.3,1.4,0.1c0.2,0.2,0.3,0.6,0.2,0.9l-3.1,14.3c-0.1,0.4-0.4,0.7-0.7,0.8C74.3,34.4,74.2,34.4,74.2,34.4z M69.7,26.4
		l4,4.7l2.1-9.5C73.7,23.3,71.7,24.9,69.7,26.4z"/>
	<path class="st3" d="M21.5,99.4c-0.6,0-1-0.4-1-1v-52c0-0.6,0.4-1,1-1s1,0.4,1,1v51.9C22.5,98.9,22.1,99.4,21.5,99.4z"/>
	<path class="st3" d="M88.1,68.3c-0.6,0-1-0.4-1-1V8c0-0.6,0.4-1,1-1s1,0.4,1,1v59.3C89.1,67.8,88.7,68.3,88.1,68.3z"/>
	<circle class="st2" cx="21.5" cy="44.4" r="3.9"/>
	<path class="st3" d="M21.5,49.3c-2.7,0-4.9-2.2-4.9-4.9s2.2-4.9,4.9-4.9s4.9,2.2,4.9,4.9c0,2.2-1.5,4.2-3.6,4.8
		C22.4,49.2,21.9,49.3,21.5,49.3z M21.5,41.5c-0.3,0-0.5,0-0.8,0.1c-1.6,0.4-2.5,2-2.1,3.6c0.2,0.7,0.7,1.4,1.4,1.8l0,0
		c1.4,0.8,3.2,0.3,4-1.1s0.3-3.2-1.1-4C22.5,41.6,22,41.5,21.5,41.5L21.5,41.5z"/>
	<path class="st2" d="M21.2,40.5c0.2,0,0.3,0.1,0.5,0.2c1.2,0.7,1.4,2.5,0.5,4.1s-2.6,2.3-3.8,1.6c-0.2-0.1-0.3-0.2-0.4-0.3
		c0.9,2,3.3,2.8,5.2,1.9c2-0.9,2.8-3.3,1.9-5.2C24.4,41.2,22.8,40.3,21.2,40.5z"/>
	<path class="st3" d="M21.5,49.3c-2.7,0-4.9-2.2-4.9-4.9s2.2-4.9,4.9-4.9s4.9,2.2,4.9,4.9c0,2.2-1.5,4.2-3.6,4.8
		C22.4,49.2,21.9,49.3,21.5,49.3z M21.5,41.5c-0.3,0-0.5,0-0.8,0.1c-1.6,0.4-2.5,2-2.1,3.6c0.2,0.7,0.7,1.4,1.4,1.8l0,0
		c1.4,0.8,3.2,0.3,4-1.1s0.3-3.2-1.1-4C22.5,41.6,22,41.5,21.5,41.5L21.5,41.5z"/>
	<circle class="st2" cx="88.1" cy="5.9" r="3.9"/>
	<path class="st3" d="M88.1,10.8c-2.7,0-4.9-2.2-4.9-4.9c0-0.9,0.2-1.7,0.7-2.4c1.3-2.4,4.3-3.2,6.7-1.9c2.4,1.3,3.2,4.3,1.9,6.7
		c0,0,0,0.1-0.1,0.1C91.5,9.9,89.9,10.8,88.1,10.8z M88.1,3c-0.3,0-0.5,0-0.8,0.1c-1.5,0.4-2.5,2-2,3.6s2,2.5,3.6,2s2.5-2,2-3.6
		C90.6,3.9,89.4,3,88.1,3z"/>
	<path class="st2" d="M87.8,2c0.2,0,0.3,0.1,0.5,0.2c1.2,0.7,1.4,2.5,0.5,4.1S86.2,8.6,85,7.9c-0.2-0.1-0.3-0.2-0.4-0.3
		c0.9,2,3.3,2.8,5.2,1.9s2.8-3.3,1.9-5.2C91,2.8,89.4,1.9,87.8,2z"/>
	<path class="st3" d="M88.1,10.8c-2.7,0-4.9-2.2-4.9-4.9c0-0.9,0.2-1.7,0.7-2.4c1.3-2.4,4.3-3.2,6.7-1.9c2.4,1.3,3.2,4.3,1.9,6.7
		c0,0,0,0.1-0.1,0.1C91.5,9.9,89.9,10.8,88.1,10.8z M88.1,3c-0.3,0-0.5,0-0.8,0.1c-1.5,0.4-2.5,2-2,3.6s2,2.5,3.6,2s2.5-2,2-3.6
		C90.6,3.9,89.4,3,88.1,3z"/>
	<rect x="1" y="1" class="st4" width="126" height="126"/>
	<g>
		<rect class="st4" width="128" height="128"/>
	</g>
</g>
</svg>
