<?xml version="1.0" encoding="utf-8"?>
<!-- Generator: Adobe Illustrator 24.1.2, SVG Export Plug-In . SVG Version: 6.00 Build 0)  -->
<svg version="1.1" id="Layer_1" xmlns="http://www.w3.org/2000/svg" xmlns:xlink="http://www.w3.org/1999/xlink" x="0px" y="0px"
	 width="128px" height="128px" viewBox="0 0 128 128" style="enable-background:new 0 0 128 128;" xml:space="preserve">
<style type="text/css">
	.st0{fill:#E9EBDF;}
	.st1{fill:#4D9987;}
	.st2{fill:#FFFFFF;}
	.st3{fill:#0E352C;}
	.st4{fill:none;}
</style>
<g>
	<polygon class="st0" points="73.5,43.3 64,30.6 64,48.8 64,97.4 99,77.2 	"/>
	<path class="st1" d="M64,98.4c-0.6,0-1-0.4-1-1V30.6c0-0.6,0.4-1,1-1c0.3,0,0.6,0.1,0.8,0.4l35,46.7c0.3,0.4,0.2,1.1-0.2,1.4
		c0,0-0.1,0-0.1,0.1l-35,20.2C64.3,98.4,64.2,98.4,64,98.4z M65,33.6v62.1l32.5-18.8l-24.8-33l0,0L65,33.6z"/>
	<polygon class="st2" points="54.5,43.3 29,77.2 64,97.4 64,48.8 64,30.6 	"/>
	<path class="st1" d="M64,98.4c-0.2,0-0.3,0-0.5-0.1l-35-20.2c-0.5-0.3-0.6-0.9-0.4-1.4c0,0,0-0.1,0.1-0.1l35-46.7
		c0.3-0.4,1-0.5,1.4-0.2c0.3,0.2,0.4,0.5,0.4,0.8v66.9C65,98,64.6,98.4,64,98.4z M30.5,76.9L63,95.7V33.6l-7.7,10.3l0,0L30.5,76.9z"
		/>
	<path class="st3" d="M64,98.4c-0.2,0-0.3,0-0.5-0.1l-35-20.2c-0.5-0.3-0.6-0.9-0.4-1.4c0,0,0-0.1,0.1-0.1l35-46.7
		c0.4-0.4,1-0.5,1.5-0.1c0.1,0,0.1,0.1,0.1,0.1l35,46.7c0.3,0.4,0.2,1.1-0.2,1.4c0,0-0.1,0-0.1,0.1l-35,20.2
		C64.3,98.4,64.2,98.4,64,98.4z M30.5,76.9L64,96.3l33.5-19.4l-24.8-33l0,0L64,32.2L30.5,76.9z"/>
	<rect x="1" y="1" class="st4" width="126" height="126"/>
	<g>
		<rect class="st4" width="128" height="128"/>
	</g>
</g>
</svg>
