<?xml version="1.0" encoding="utf-8"?>
<!-- Generator: Adobe Illustrator 24.1.2, SVG Export Plug-In . SVG Version: 6.00 Build 0)  -->
<svg version="1.1" id="Layer_1" xmlns="http://www.w3.org/2000/svg" xmlns:xlink="http://www.w3.org/1999/xlink" x="0px" y="0px"
	 width="128px" height="128px" viewBox="0 0 128 128" style="enable-background:new 0 0 128 128;" xml:space="preserve">
<style type="text/css">
	.st0{fill:#E9EBDF;}
	.st1{fill:#4D9987;}
	.st2{fill:none;}
</style>
<g>
	<path class="st0" d="M99,78.2c-0.2,0-0.3,0-0.5-0.1l-35-20.2c-0.5-0.3-0.6-0.9-0.4-1.4s0.9-0.6,1.4-0.4l35,20.2
		c0.5,0.3,0.6,0.9,0.4,1.4C99.7,78,99.4,78.2,99,78.2z"/>
	<path class="st0" d="M29,78.2c-0.6,0-1-0.4-1-1c0-0.4,0.2-0.7,0.5-0.9l35-20.2c0.5-0.3,1.1-0.1,1.4,0.4s0.1,1.1-0.4,1.4l-35,20.2
		C29.3,78.2,29.2,78.2,29,78.2z"/>
	<path class="st1" d="M64,98.4c-0.6,0-1-0.4-1-1V30.6c0-0.6,0.4-1,1-1c0.3,0,0.6,0.1,0.8,0.4l9.5,12.7l0,0l25.5,34
		c0.3,0.4,0.2,1.1-0.2,1.4c0,0-0.1,0-0.1,0.1l-35,20.2C64.3,98.4,64.2,98.4,64,98.4z M65,33.6v62.1l32.5-18.8L65,33.6z"/>
	<path class="st1" d="M64,98.4c-0.2,0-0.3,0-0.5-0.1l-35-20.2c-0.5-0.3-0.6-0.9-0.4-1.4c0,0,0-0.1,0.1-0.1l35-46.7
		c0.3-0.4,1-0.5,1.4-0.2c0.3,0.2,0.4,0.5,0.4,0.8v66.9C65,98,64.6,98.4,64,98.4z M30.5,76.9L63,95.7V33.6L30.5,76.9z"/>
	<rect x="1" y="1" class="st2" width="126" height="126"/>
	<g>
		<rect class="st2" width="128" height="128"/>
	</g>
</g>
</svg>
