<?xml version="1.0" encoding="utf-8"?>
<!-- Generator: Adobe Illustrator 24.1.2, SVG Export Plug-In . SVG Version: 6.00 Build 0)  -->
<svg version="1.1" id="Layer_1" xmlns="http://www.w3.org/2000/svg" xmlns:xlink="http://www.w3.org/1999/xlink" x="0px" y="0px"
	 width="440px" height="300px" viewBox="0 0 440 300" style="enable-background:new 0 0 440 300;" xml:space="preserve">
<style type="text/css">
	.st0{fill:#C4D7D3;}
	.st1{fill:#27ae60;}
	.st2{fill:#FFFFFF;}
	.st3{fill:#185849;}
	.st4{fill:none;}
</style>
<g>
	<polygon class="st0" points="220,222 220,222 143,177.6 104.5,232.3 220,299 	"/>
	<polygon class="st1" points="220,222 220,222 297,177.6 335.5,232.3 220,299 	"/>
	<polygon class="st0" points="143,177.6 220,133.1 297,177.6 220,222 	"/>
	<path class="st2" d="M220,300c-0.2,0-0.3,0-0.5-0.1L104,233.2c-0.5-0.3-0.6-0.9-0.4-1.4c0,0,0-0.1,0-0.1l38.5-54.8
		c0.3-0.4,0.9-0.6,1.3-0.3l77,44.4c0.3,0.2,0.5,0.5,0.5,0.9v77C221,299.6,220.6,300,220,300z M106,232l113,65.3v-74.7l-75.7-43.7
		L106,232z"/>
	<path class="st0" d="M220,300c-0.2,0-0.3,0-0.5-0.1L104,233.2c-0.5-0.3-0.6-0.9-0.4-1.4c0.1-0.2,0.2-0.3,0.4-0.4l115.5-66.7
		c0.3-0.2,0.7-0.2,1,0L336,231.5c0.5,0.3,0.6,0.9,0.4,1.4c-0.1,0.2-0.2,0.3-0.4,0.4l-115.5,66.7C220.3,300,220.2,300,220,300z
		 M106.5,232.3L220,297.8l113.5-65.5L220,166.8L106.5,232.3z"/>
	<path class="st2" d="M220,223c-0.2,0-0.3,0-0.5-0.1l-48.8-28.2c-0.5-0.3-0.6-0.9-0.4-1.4c0.1-0.2,0.2-0.3,0.4-0.4l48.8-28.2
		c0.3-0.2,0.7-0.2,1,0l48.8,28.2c0.5,0.3,0.6,0.9,0.4,1.4c-0.1,0.2-0.2,0.3-0.4,0.4l-48.8,28.2C220.3,223,220.2,223,220,223z
		 M173.2,193.8l46.8,27l46.8-27l-46.8-27L173.2,193.8z"/>
	<path class="st2" d="M220,300c-0.6,0-1-0.4-1-1v-77c0-0.4,0.2-0.7,0.5-0.9l77-44.4c0.4-0.3,1-0.1,1.3,0.3l38.5,54.8
		c0.3,0.5,0.2,1.1-0.2,1.4c0,0,0,0-0.1,0l-115.5,66.7C220.3,300,220.2,300,220,300z M221,222.6v74.7L334,232l-37.3-53.1L221,222.6z"
		/>
	<path class="st2" d="M220,223c-0.2,0-0.3,0-0.5-0.1l-77-44.4c-0.5-0.3-0.6-0.9-0.4-1.4c0.1-0.2,0.2-0.3,0.4-0.4l77-44.4
		c0.3-0.2,0.7-0.2,1,0l77,44.4c0.5,0.3,0.6,0.9,0.4,1.4c-0.1,0.2-0.2,0.3-0.4,0.4l-77,44.4C220.3,223,220.2,223,220,223z M145,177.6
		l75,43.3l75-43.3l-75-43.3L145,177.6z"/>
	<path class="st3" d="M220,300c-0.2,0-0.3,0-0.5-0.1L104,233.2c-0.5-0.3-0.6-0.9-0.4-1.4c0,0,0-0.1,0-0.1l38.5-54.8
		c0.1-0.1,0.2-0.2,0.3-0.3l77-44.4c0.3-0.2,0.7-0.2,1,0l77,44.4c0.1,0.1,0.2,0.2,0.3,0.3l38.5,54.8c0.3,0.5,0.2,1.1-0.2,1.4
		c0,0,0,0-0.1,0l-115.5,66.7C220.3,300,220.2,300,220,300z M106,232l114,65.8L334,232l-37.7-53.7l-76.3-44l-76.3,44L106,232z"/>
	<polygon class="st0" points="220,111.5 181.5,89.3 143,144 220,188.5 220,188.5 220,111.5 	"/>
	<polygon class="st1" points="220,111.5 258.5,89.3 297,144 220,188.5 220,188.5 220,111.5 	"/>
	<polygon class="st0" points="181.5,89.3 220,67.1 258.5,89.3 220,111.5 	"/>
	<path class="st2" d="M220,100.6c-0.6,0-1-0.4-1-1V67.1c0-0.6,0.4-1,1-1s1,0.4,1,1v32.5C221,100.2,220.6,100.6,220,100.6z"/>
	<path class="st2" d="M220,112.5c-0.2,0-0.3,0-0.5-0.1l-10.3-6c-0.5-0.3-0.6-0.9-0.4-1.4c0.1-0.2,0.2-0.3,0.4-0.4l10.3-6
		c0.3-0.2,0.7-0.2,1,0l10.3,6c0.5,0.3,0.6,0.9,0.4,1.4c-0.1,0.2-0.2,0.3-0.4,0.4l-10.3,6C220.3,112.5,220.2,112.5,220,112.5z
		 M211.7,105.6l8.3,4.8l8.3-4.8l-8.3-4.8L211.7,105.6z"/>
	<path class="st2" d="M220,189.5c-0.2,0-0.3,0-0.5-0.1l-77-44.4c-0.5-0.3-0.6-0.9-0.4-1.4c0,0,0-0.1,0-0.1l38.5-54.8
		c0.3-0.4,0.9-0.5,1.3-0.3l38.5,22.2c0.3,0.2,0.5,0.5,0.5,0.9v77C221,189,220.6,189.5,220,189.5z M144.5,143.7l74.5,43v-74.7
		l-37.2-21.5L144.5,143.7z"/>
	<path class="st2" d="M220,189.5c-0.6,0-1-0.4-1-1v-77c0-0.4,0.2-0.7,0.5-0.9L258,88.4c0.4-0.3,1-0.1,1.3,0.3l38.5,54.8
		c0.3,0.5,0.2,1.1-0.2,1.4c0,0-0.1,0-0.1,0l-77,44.4C220.3,189.4,220.2,189.5,220,189.5z M221,112.1v74.7l74.5-43l-37.3-53.1
		L221,112.1z"/>
	<path class="st0" d="M220,189.5c-0.2,0-0.3,0-0.5-0.1l-77-44.4c-0.5-0.3-0.6-0.9-0.4-1.4c0.1-0.2,0.2-0.3,0.4-0.4l66.7-38.5
		c0.3-0.2,0.7-0.2,1,0l10.3,6c0.3,0.2,0.5,0.5,0.5,0.9v77C221,189,220.6,189.5,220,189.5z M145,144l74,42.7v-74.7l-9.3-5.4L145,144z
		"/>
	<path class="st0" d="M220,189.5c-0.6,0-1-0.4-1-1v-77c0-0.4,0.2-0.7,0.5-0.9l10.3-6c0.3-0.2,0.7-0.2,1,0l66.7,38.5
		c0.5,0.3,0.6,0.9,0.4,1.4c-0.1,0.2-0.2,0.3-0.4,0.4l-77,44.4C220.3,189.4,220.2,189.5,220,189.5z M221,112.1v74.7l74-42.7
		l-64.7-37.3L221,112.1z"/>
	<path class="st2" d="M220,112.5c-0.2,0-0.3,0-0.5-0.1L181,90.2c-0.5-0.3-0.6-0.9-0.4-1.4c0.1-0.2,0.2-0.3,0.4-0.4l38.5-22.2
		c0.3-0.2,0.7-0.2,1,0L259,88.4c0.5,0.3,0.6,0.9,0.4,1.4c-0.1,0.2-0.2,0.3-0.4,0.4l-38.5,22.2C220.3,112.5,220.2,112.5,220,112.5z
		 M183.5,89.3l36.5,21.1l36.5-21.1L220,68.2L183.5,89.3z"/>
	<path class="st3" d="M220,189.5c-0.2,0-0.3,0-0.5-0.1l-77-44.4c-0.5-0.3-0.6-0.9-0.4-1.4c0,0,0-0.1,0-0.1l38.5-54.8
		c0.1-0.1,0.2-0.2,0.3-0.3l38.5-22.2c0.3-0.2,0.7-0.2,1,0L259,88.4c0.1,0.1,0.2,0.2,0.3,0.3l38.5,54.8c0.3,0.5,0.2,1.1-0.2,1.4
		c0,0-0.1,0-0.1,0l-77,44.4C220.3,189.4,220.2,189.5,220,189.5z M144.5,143.7l75.5,43.6l75.5-43.6L257.8,90L220,68.2L182.2,90
		L144.5,143.7z"/>
	<path class="st0" d="M220,166.7c-0.6,0-1-0.4-1-1v-32.5c0-0.6,0.4-1,1-1s1,0.4,1,1v32.5C221,166.2,220.6,166.7,220,166.7z"/>
	<path class="st3" d="M142,174c0-0.5,0.4-1,1-1c0,0,0,0,0,0l0,0c0.5,0,1,0.4,1,1c0,0,0,0,0,0l0,0c0,0.6-0.4,1-1,1l0,0
		C142.5,175,142,174.6,142,174z M142,168c0-0.6,0.4-1,1-1l0,0c0.6,0,1,0.4,1,1l0,0c0,0.5-0.4,1-1,1c0,0,0,0,0,0l0,0
		C142.5,169,142,168.6,142,168z M142,162c0-0.6,0.4-1,1-1l0,0c0.6,0,1,0.4,1,1l0,0c0,0.6-0.4,1-1,1l0,0C142.5,163,142,162.6,142,162
		z M142,156.1c0-0.6,0.4-1,1-1c0,0,0,0,0,0l0,0c0.6,0,1,0.4,1,1c0,0,0,0,0,0l0,0c0,0.5-0.4,1-1,1c0,0,0,0,0,0l0,0
		C142.5,157,142,156.6,142,156.1z M142,150c0-0.6,0.4-1,1-1l0,0c0.6,0,1,0.4,1,1l0,0c0,0.5-0.4,1-1,1c0,0,0,0,0,0l0,0
		C142.5,151,142,150.6,142,150z M142,144.1c0-0.6,0.4-1,1-1c0,0,0,0,0,0l0,0c0.6,0,1,0.4,1,1c0,0,0,0,0,0l0,0c0,0.6-0.4,1-1,1l0,0
		C142.5,145.1,142,144.6,142,144.1z"/>
	<path class="st3" d="M296,174c0-0.5,0.4-1,1-1c0,0,0,0,0,0l0,0c0.5,0,1,0.4,1,1c0,0,0,0,0,0l0,0c0,0.6-0.4,1-1,1l0,0
		C296.4,175,296,174.6,296,174z M296,168c0-0.6,0.4-1,1-1l0,0c0.6,0,1,0.4,1,1l0,0c0,0.6-0.4,1-1,1l0,0C296.4,169,296,168.6,296,168
		z M296,162c0-0.6,0.4-1,1-1l0,0c0.6,0,1,0.4,1,1l0,0c0,0.6-0.4,1-1,1l0,0C296.4,163,296,162.6,296,162z M296,156.1c0-0.6,0.4-1,1-1
		c0,0,0,0,0,0l0,0c0.6,0,1,0.4,1,1c0,0,0,0,0,0l0,0c0,0.5-0.5,1-1,1l0,0C296.4,157,296,156.6,296,156.1z M296,150c0-0.6,0.4-1,1-1
		l0,0c0.6,0,1,0.4,1,1l0,0c0,0.6-0.4,1-1,1l0,0C296.4,151,296,150.6,296,150z M296,144.1c0-0.6,0.4-1,1-1c0,0,0,0,0,0l0,0
		c0.6,0,1,0.4,1,1c0,0,0,0,0,0l0,0c0,0.6-0.4,1-1,1l0,0C296.4,145.1,296,144.6,296,144.1z"/>
	<path class="st3" d="M257.5,85.8c0-0.6,0.4-1,1-1l0,0c0.6,0,1,0.4,1,1l0,0c0,0.6-0.4,1-1,1l0,0C257.9,86.8,257.5,86.3,257.5,85.8z
		 M257.5,79.8c0-0.6,0.4-1,1-1l0,0c0.6,0,1,0.4,1,1l0,0c0,0.6-0.4,1-1,1l0,0C257.9,80.8,257.5,80.3,257.5,79.8z M257.5,73.8
		c0-0.6,0.4-1,1-1l0,0c0.6,0,1,0.4,1,1l0,0c0,0.6-0.4,1-1,1l0,0C257.9,74.8,257.5,74.3,257.5,73.8z M257.5,67.8c0-0.6,0.4-1,1-1l0,0
		c0.6,0,1,0.4,1,1l0,0c0,0.6-0.4,1-1,1l0,0C257.9,68.8,257.5,68.3,257.5,67.8z M257.5,61.8c0-0.6,0.4-1,1-1l0,0c0.6,0,1,0.4,1,1l0,0
		c0,0.6-0.4,1-1,1l0,0C257.9,62.8,257.5,62.3,257.5,61.8C257.5,61.8,257.5,61.8,257.5,61.8z M257.5,55.8c0-0.6,0.4-1,1-1l0,0
		c0.6,0,1,0.4,1,1l0,0c0,0.6-0.4,1-1,1l0,0C257.9,56.8,257.5,56.3,257.5,55.8C257.5,55.8,257.5,55.8,257.5,55.8z"/>
	<path class="st3" d="M180.5,85.8c0-0.6,0.4-1,1-1l0,0c0.6,0,1,0.4,1,1l0,0c0,0.6-0.4,1-1,1c0,0,0,0,0,0l0,0
		C180.9,86.8,180.5,86.3,180.5,85.8z M180.5,79.8c0-0.6,0.4-1,1-1l0,0c0.6,0,1,0.4,1,1l0,0c0,0.6-0.4,1-1,1c0,0,0,0,0,0l0,0
		C180.9,80.8,180.5,80.3,180.5,79.8z M180.5,73.8c0-0.6,0.4-1,1-1l0,0c0.6,0,1,0.4,1,1l0,0c0,0.6-0.4,1-1,1c0,0,0,0,0,0l0,0
		C180.9,74.8,180.5,74.3,180.5,73.8z M180.5,67.8c0-0.6,0.4-1,1-1l0,0c0.6,0,1,0.4,1,1l0,0c0,0.6-0.4,1-1,1c0,0,0,0,0,0l0,0
		C180.9,68.8,180.5,68.3,180.5,67.8z M180.5,61.8c0-0.6,0.4-1,1-1l0,0c0.6,0,1,0.4,1,1l0,0c0,0.6-0.4,1-1,1c0,0,0,0,0,0l0,0
		C180.9,62.8,180.5,62.3,180.5,61.8C180.5,61.8,180.5,61.8,180.5,61.8z M180.5,55.8c0-0.6,0.4-1,1-1l0,0c0.6,0,1,0.4,1,1l0,0
		c0,0.6-0.4,1-1,1c0,0,0,0,0,0l0,0C180.9,56.8,180.5,56.3,180.5,55.8C180.5,55.8,180.5,55.8,180.5,55.8z"/>
	<polygon class="st0" points="220,78 220,78 220,1 181.5,55.8 	"/>
	<polygon class="st1" points="220,78 220,78 220,1 258.5,55.8 	"/>
	<path class="st0" d="M220,79c-0.2,0-0.3,0-0.5-0.1L181,56.6c-0.5-0.3-0.6-0.9-0.4-1.4c0.1-0.2,0.2-0.3,0.4-0.4l38.5-22.2
		c0.3-0.2,0.7-0.2,1,0L259,54.9c0.5,0.3,0.6,0.9,0.4,1.4c-0.1,0.2-0.2,0.3-0.4,0.4l-38.5,22.2C220.3,78.9,220.2,79,220,79z
		 M183.5,55.8L220,76.8l36.5-21.1L220,34.7L183.5,55.8z"/>
	<path class="st2" d="M220,79c-0.6,0-1-0.4-1-1V1c0-0.6,0.4-1,1-1c0.3,0,0.6,0.2,0.8,0.4l38.5,54.8c0.3,0.5,0.2,1.1-0.2,1.4
		c0,0-0.1,0-0.1,0l-38.5,22.2C220.3,78.9,220.2,79,220,79z M221,4.2v72.1l36-20.8L221,4.2z"/>
	<path class="st3" d="M220,79c-0.2,0-0.3,0-0.5-0.1L181,56.6c-0.5-0.3-0.6-0.9-0.4-1.4c0,0,0-0.1,0-0.1l38.5-54.8
		c0.4-0.5,1-0.5,1.5-0.2c0.1,0.1,0.1,0.1,0.2,0.2l38.5,54.8c0.3,0.5,0.2,1.1-0.2,1.4c0,0-0.1,0-0.1,0l-38.5,22.2
		C220.3,78.9,220.2,79,220,79z M183,55.4l37,21.4l37-21.4L220,2.7L183,55.4z"/>
	<rect y="0" class="st4" width="440" height="300"/>
	<polygon class="st0" points="220,222 220,222 143,177.6 104.5,232.3 220,299 	"/>
	<polygon class="st1" points="220,222 220,222 297,177.6 335.5,232.3 220,299 	"/>
	<polygon class="st0" points="143,177.6 220,133.1 297,177.6 220,222 	"/>
	<path class="st2" d="M220,300c-0.2,0-0.3,0-0.5-0.1L104,233.2c-0.5-0.3-0.6-0.9-0.4-1.4c0,0,0-0.1,0-0.1l38.5-54.8
		c0.3-0.4,0.9-0.6,1.3-0.3l77,44.4c0.3,0.2,0.5,0.5,0.5,0.9v77C221,299.6,220.6,300,220,300z M106,232l113,65.3v-74.7l-75.7-43.7
		L106,232z"/>
	<path class="st0" d="M220,300c-0.2,0-0.3,0-0.5-0.1L104,233.2c-0.5-0.3-0.6-0.9-0.4-1.4c0.1-0.2,0.2-0.3,0.4-0.4l115.5-66.7
		c0.3-0.2,0.7-0.2,1,0L336,231.5c0.5,0.3,0.6,0.9,0.4,1.4c-0.1,0.2-0.2,0.3-0.4,0.4l-115.5,66.7C220.3,300,220.2,300,220,300z
		 M106.5,232.3L220,297.8l113.5-65.5L220,166.8L106.5,232.3z"/>
	<path class="st2" d="M220,223c-0.2,0-0.3,0-0.5-0.1l-48.8-28.2c-0.5-0.3-0.6-0.9-0.4-1.4c0.1-0.2,0.2-0.3,0.4-0.4l48.8-28.2
		c0.3-0.2,0.7-0.2,1,0l48.8,28.2c0.5,0.3,0.6,0.9,0.4,1.4c-0.1,0.2-0.2,0.3-0.4,0.4l-48.8,28.2C220.3,223,220.2,223,220,223z
		 M173.2,193.8l46.8,27l46.8-27l-46.8-27L173.2,193.8z"/>
	<path class="st2" d="M220,300c-0.6,0-1-0.4-1-1v-77c0-0.4,0.2-0.7,0.5-0.9l77-44.4c0.4-0.3,1-0.1,1.3,0.3l38.5,54.8
		c0.3,0.5,0.2,1.1-0.2,1.4c0,0,0,0-0.1,0l-115.5,66.7C220.3,300,220.2,300,220,300z M221,222.6v74.7L334,232l-37.3-53.1L221,222.6z"
		/>
	<path class="st2" d="M220,223c-0.2,0-0.3,0-0.5-0.1l-77-44.4c-0.5-0.3-0.6-0.9-0.4-1.4c0.1-0.2,0.2-0.3,0.4-0.4l77-44.4
		c0.3-0.2,0.7-0.2,1,0l77,44.4c0.5,0.3,0.6,0.9,0.4,1.4c-0.1,0.2-0.2,0.3-0.4,0.4l-77,44.4C220.3,223,220.2,223,220,223z M145,177.6
		l75,43.3l75-43.3l-75-43.3L145,177.6z"/>
	<path class="st3" d="M220,300c-0.2,0-0.3,0-0.5-0.1L104,233.2c-0.5-0.3-0.6-0.9-0.4-1.4c0,0,0-0.1,0-0.1l38.5-54.8
		c0.1-0.1,0.2-0.2,0.3-0.3l77-44.4c0.3-0.2,0.7-0.2,1,0l77,44.4c0.1,0.1,0.2,0.2,0.3,0.3l38.5,54.8c0.3,0.5,0.2,1.1-0.2,1.4
		c0,0,0,0-0.1,0l-115.5,66.7C220.3,300,220.2,300,220,300z M106,232l114,65.8L334,232l-37.7-53.7l-76.3-44l-76.3,44L106,232z"/>
	<polygon class="st0" points="220,111.5 181.5,89.3 143,144 220,188.5 220,188.5 220,111.5 	"/>
	<polygon class="st1" points="220,111.5 258.5,89.3 297,144 220,188.5 220,188.5 220,111.5 	"/>
	<polygon class="st0" points="181.5,89.3 220,67.1 258.5,89.3 220,111.5 	"/>
	<path class="st2" d="M220,100.6c-0.6,0-1-0.4-1-1V67.1c0-0.6,0.4-1,1-1s1,0.4,1,1v32.5C221,100.2,220.6,100.6,220,100.6z"/>
	<path class="st2" d="M220,112.5c-0.2,0-0.3,0-0.5-0.1l-10.3-6c-0.5-0.3-0.6-0.9-0.4-1.4c0.1-0.2,0.2-0.3,0.4-0.4l10.3-6
		c0.3-0.2,0.7-0.2,1,0l10.3,6c0.5,0.3,0.6,0.9,0.4,1.4c-0.1,0.2-0.2,0.3-0.4,0.4l-10.3,6C220.3,112.5,220.2,112.5,220,112.5z
		 M211.7,105.6l8.3,4.8l8.3-4.8l-8.3-4.8L211.7,105.6z"/>
	<path class="st2" d="M220,189.5c-0.2,0-0.3,0-0.5-0.1l-77-44.4c-0.5-0.3-0.6-0.9-0.4-1.4c0,0,0-0.1,0-0.1l38.5-54.8
		c0.3-0.4,0.9-0.5,1.3-0.3l38.5,22.2c0.3,0.2,0.5,0.5,0.5,0.9v77C221,189,220.6,189.5,220,189.5z M144.5,143.7l74.5,43v-74.7
		l-37.2-21.5L144.5,143.7z"/>
	<path class="st2" d="M220,189.5c-0.6,0-1-0.4-1-1v-77c0-0.4,0.2-0.7,0.5-0.9L258,88.4c0.4-0.3,1-0.1,1.3,0.3l38.5,54.8
		c0.3,0.5,0.2,1.1-0.2,1.4c0,0-0.1,0-0.1,0l-77,44.4C220.3,189.4,220.2,189.5,220,189.5z M221,112.1v74.7l74.5-43l-37.3-53.1
		L221,112.1z"/>
	<path class="st0" d="M220,189.5c-0.2,0-0.3,0-0.5-0.1l-77-44.4c-0.5-0.3-0.6-0.9-0.4-1.4c0.1-0.2,0.2-0.3,0.4-0.4l66.7-38.5
		c0.3-0.2,0.7-0.2,1,0l10.3,6c0.3,0.2,0.5,0.5,0.5,0.9v77C221,189,220.6,189.5,220,189.5z M145,144l74,42.7v-74.7l-9.3-5.4L145,144z
		"/>
	<path class="st0" d="M220,189.5c-0.6,0-1-0.4-1-1v-77c0-0.4,0.2-0.7,0.5-0.9l10.3-6c0.3-0.2,0.7-0.2,1,0l66.7,38.5
		c0.5,0.3,0.6,0.9,0.4,1.4c-0.1,0.2-0.2,0.3-0.4,0.4l-77,44.4C220.3,189.4,220.2,189.5,220,189.5z M221,112.1v74.7l74-42.7
		l-64.7-37.3L221,112.1z"/>
	<path class="st2" d="M220,112.5c-0.2,0-0.3,0-0.5-0.1L181,90.2c-0.5-0.3-0.6-0.9-0.4-1.4c0.1-0.2,0.2-0.3,0.4-0.4l38.5-22.2
		c0.3-0.2,0.7-0.2,1,0L259,88.4c0.5,0.3,0.6,0.9,0.4,1.4c-0.1,0.2-0.2,0.3-0.4,0.4l-38.5,22.2C220.3,112.5,220.2,112.5,220,112.5z
		 M183.5,89.3l36.5,21.1l36.5-21.1L220,68.2L183.5,89.3z"/>
	<path class="st3" d="M220,189.5c-0.2,0-0.3,0-0.5-0.1l-77-44.4c-0.5-0.3-0.6-0.9-0.4-1.4c0,0,0-0.1,0-0.1l38.5-54.8
		c0.1-0.1,0.2-0.2,0.3-0.3l38.5-22.2c0.3-0.2,0.7-0.2,1,0L259,88.4c0.1,0.1,0.2,0.2,0.3,0.3l38.5,54.8c0.3,0.5,0.2,1.1-0.2,1.4
		c0,0-0.1,0-0.1,0l-77,44.4C220.3,189.4,220.2,189.5,220,189.5z M144.5,143.7l75.5,43.6l75.5-43.6L257.8,90L220,68.2L182.2,90
		L144.5,143.7z"/>
	<path class="st0" d="M220,166.7c-0.6,0-1-0.4-1-1v-32.5c0-0.6,0.4-1,1-1s1,0.4,1,1v32.5C221,166.2,220.6,166.7,220,166.7z"/>
	<path class="st3" d="M142,174c0-0.5,0.4-1,1-1c0,0,0,0,0,0l0,0c0.5,0,1,0.4,1,1c0,0,0,0,0,0l0,0c0,0.6-0.4,1-1,1l0,0
		C142.5,175,142,174.6,142,174z M142,168c0-0.6,0.4-1,1-1l0,0c0.6,0,1,0.4,1,1l0,0c0,0.5-0.4,1-1,1c0,0,0,0,0,0l0,0
		C142.5,169,142,168.6,142,168z M142,162c0-0.6,0.4-1,1-1l0,0c0.6,0,1,0.4,1,1l0,0c0,0.6-0.4,1-1,1l0,0C142.5,163,142,162.6,142,162
		z M142,156.1c0-0.6,0.4-1,1-1c0,0,0,0,0,0l0,0c0.6,0,1,0.4,1,1c0,0,0,0,0,0l0,0c0,0.5-0.4,1-1,1c0,0,0,0,0,0l0,0
		C142.5,157,142,156.6,142,156.1z M142,150c0-0.6,0.4-1,1-1l0,0c0.6,0,1,0.4,1,1l0,0c0,0.5-0.4,1-1,1c0,0,0,0,0,0l0,0
		C142.5,151,142,150.6,142,150z M142,144.1c0-0.6,0.4-1,1-1c0,0,0,0,0,0l0,0c0.6,0,1,0.4,1,1c0,0,0,0,0,0l0,0c0,0.6-0.4,1-1,1l0,0
		C142.5,145.1,142,144.6,142,144.1z"/>
	<path class="st3" d="M296,174c0-0.5,0.4-1,1-1c0,0,0,0,0,0l0,0c0.5,0,1,0.4,1,1c0,0,0,0,0,0l0,0c0,0.6-0.4,1-1,1l0,0
		C296.4,175,296,174.6,296,174z M296,168c0-0.6,0.4-1,1-1l0,0c0.6,0,1,0.4,1,1l0,0c0,0.6-0.4,1-1,1l0,0C296.4,169,296,168.6,296,168
		z M296,162c0-0.6,0.4-1,1-1l0,0c0.6,0,1,0.4,1,1l0,0c0,0.6-0.4,1-1,1l0,0C296.4,163,296,162.6,296,162z M296,156.1c0-0.6,0.4-1,1-1
		c0,0,0,0,0,0l0,0c0.6,0,1,0.4,1,1c0,0,0,0,0,0l0,0c0,0.5-0.5,1-1,1l0,0C296.4,157,296,156.6,296,156.1z M296,150c0-0.6,0.4-1,1-1
		l0,0c0.6,0,1,0.4,1,1l0,0c0,0.6-0.4,1-1,1l0,0C296.4,151,296,150.6,296,150z M296,144.1c0-0.6,0.4-1,1-1c0,0,0,0,0,0l0,0
		c0.6,0,1,0.4,1,1c0,0,0,0,0,0l0,0c0,0.6-0.4,1-1,1l0,0C296.4,145.1,296,144.6,296,144.1z"/>
	<path class="st3" d="M257.5,85.8c0-0.6,0.4-1,1-1l0,0c0.6,0,1,0.4,1,1l0,0c0,0.6-0.4,1-1,1l0,0C257.9,86.8,257.5,86.3,257.5,85.8z
		 M257.5,79.8c0-0.6,0.4-1,1-1l0,0c0.6,0,1,0.4,1,1l0,0c0,0.6-0.4,1-1,1l0,0C257.9,80.8,257.5,80.3,257.5,79.8z M257.5,73.8
		c0-0.6,0.4-1,1-1l0,0c0.6,0,1,0.4,1,1l0,0c0,0.6-0.4,1-1,1l0,0C257.9,74.8,257.5,74.3,257.5,73.8z M257.5,67.8c0-0.6,0.4-1,1-1l0,0
		c0.6,0,1,0.4,1,1l0,0c0,0.6-0.4,1-1,1l0,0C257.9,68.8,257.5,68.3,257.5,67.8z M257.5,61.8c0-0.6,0.4-1,1-1l0,0c0.6,0,1,0.4,1,1l0,0
		c0,0.6-0.4,1-1,1l0,0C257.9,62.8,257.5,62.3,257.5,61.8C257.5,61.8,257.5,61.8,257.5,61.8z M257.5,55.8c0-0.6,0.4-1,1-1l0,0
		c0.6,0,1,0.4,1,1l0,0c0,0.6-0.4,1-1,1l0,0C257.9,56.8,257.5,56.3,257.5,55.8C257.5,55.8,257.5,55.8,257.5,55.8z"/>
	<path class="st3" d="M180.5,85.8c0-0.6,0.4-1,1-1l0,0c0.6,0,1,0.4,1,1l0,0c0,0.6-0.4,1-1,1c0,0,0,0,0,0l0,0
		C180.9,86.8,180.5,86.3,180.5,85.8z M180.5,79.8c0-0.6,0.4-1,1-1l0,0c0.6,0,1,0.4,1,1l0,0c0,0.6-0.4,1-1,1c0,0,0,0,0,0l0,0
		C180.9,80.8,180.5,80.3,180.5,79.8z M180.5,73.8c0-0.6,0.4-1,1-1l0,0c0.6,0,1,0.4,1,1l0,0c0,0.6-0.4,1-1,1c0,0,0,0,0,0l0,0
		C180.9,74.8,180.5,74.3,180.5,73.8z M180.5,67.8c0-0.6,0.4-1,1-1l0,0c0.6,0,1,0.4,1,1l0,0c0,0.6-0.4,1-1,1c0,0,0,0,0,0l0,0
		C180.9,68.8,180.5,68.3,180.5,67.8z M180.5,61.8c0-0.6,0.4-1,1-1l0,0c0.6,0,1,0.4,1,1l0,0c0,0.6-0.4,1-1,1c0,0,0,0,0,0l0,0
		C180.9,62.8,180.5,62.3,180.5,61.8C180.5,61.8,180.5,61.8,180.5,61.8z M180.5,55.8c0-0.6,0.4-1,1-1l0,0c0.6,0,1,0.4,1,1l0,0
		c0,0.6-0.4,1-1,1c0,0,0,0,0,0l0,0C180.9,56.8,180.5,56.3,180.5,55.8C180.5,55.8,180.5,55.8,180.5,55.8z"/>
	<polygon class="st0" points="220,78 220,78 220,1 181.5,55.8 	"/>
	<polygon class="st1" points="220,78 220,78 220,1 258.5,55.8 	"/>
	<path class="st0" d="M220,79c-0.2,0-0.3,0-0.5-0.1L181,56.6c-0.5-0.3-0.6-0.9-0.4-1.4c0.1-0.2,0.2-0.3,0.4-0.4l38.5-22.2
		c0.3-0.2,0.7-0.2,1,0L259,54.9c0.5,0.3,0.6,0.9,0.4,1.4c-0.1,0.2-0.2,0.3-0.4,0.4l-38.5,22.2C220.3,78.9,220.2,79,220,79z
		 M183.5,55.8L220,76.8l36.5-21.1L220,34.7L183.5,55.8z"/>
	<path class="st2" d="M220,79c-0.6,0-1-0.4-1-1V1c0-0.6,0.4-1,1-1c0.3,0,0.6,0.2,0.8,0.4l38.5,54.8c0.3,0.5,0.2,1.1-0.2,1.4
		c0,0-0.1,0-0.1,0l-38.5,22.2C220.3,78.9,220.2,79,220,79z M221,4.2v72.1l36-20.8L221,4.2z"/>
	<path class="st3" d="M220,79c-0.2,0-0.3,0-0.5-0.1L181,56.6c-0.5-0.3-0.6-0.9-0.4-1.4c0,0,0-0.1,0-0.1l38.5-54.8
		c0.4-0.5,1-0.5,1.5-0.2c0.1,0.1,0.1,0.1,0.2,0.2l38.5,54.8c0.3,0.5,0.2,1.1-0.2,1.4c0,0-0.1,0-0.1,0l-38.5,22.2
		C220.3,78.9,220.2,79,220,79z M183,55.4l37,21.4l37-21.4L220,2.7L183,55.4z"/>
	<rect y="0" class="st4" width="440" height="300"/>
	<rect y="0" class="st4" width="440" height="300"/>
</g>
</svg>
