<?xml version="1.0" encoding="utf-8"?>
<!-- Generator: Adobe Illustrator 24.1.2, SVG Export Plug-In . SVG Version: 6.00 Build 0)  -->
<svg version="1.1" id="Layer_1" xmlns="http://www.w3.org/2000/svg" xmlns:xlink="http://www.w3.org/1999/xlink" x="0px" y="0px"
	 width="440px" height="300px" viewBox="0 0 440 300" style="enable-background:new 0 0 440 300;" xml:space="preserve">
<style type="text/css">
	.st0{fill:#E9EBDF;}
	.st1{fill:#4D9987;}
	.st2{fill:#0E352C;}
	.st3{fill:#FFFFFF;}
	.st4{fill:none;}
</style>
<g>
	<path class="st0" d="M151.4,103.7c2.2,0,4.1,1.8,4.1,4.1v61c0,1.3-1.8,2.3-4.1,2.3s-4.1-1.1-4.1-2.3v-61
		C147.3,105.6,149.1,103.7,151.4,103.7z"/>
	<path class="st0" d="M151.4,171.1L151.4,171.1c2.2,0,4.1-1.1,4.1-2.3v-60c0-1.1-0.9-2-2-2l0,0c-1.1,0-2,0.9-2,2v62.3H151.4z"/>
	<path class="st1" d="M151.4,139.6c-2.8,0-5.1-1.5-5.1-3.3c0-0.6,0.4-1,1-1s1,0.4,1,1c0,0.5,1.2,1.3,3.1,1.3s3.1-0.8,3.1-1.3
		c0-0.6,0.4-1,1-1s1,0.4,1,1C156.4,138.1,154.2,139.6,151.4,139.6z"/>
	<path class="st2" d="M151.4,172.1c-2.8,0-5.1-1.5-5.1-3.3v-61c0-2.8,2.3-5.1,5.1-5.1s5.1,2.3,5.1,5.1l0,0v61
		C156.4,170.6,154.2,172.1,151.4,172.1z M151.4,104.7c-1.7,0-3.1,1.4-3.1,3.1v61c0,0.5,1.2,1.3,3.1,1.3s3.1-0.8,3.1-1.3v-61
		C154.4,106.1,153.1,104.7,151.4,104.7z"/>
	<path class="st0" d="M211.9,68.8c2.2,0,4.1,1.8,4.1,4.1v61c0,1.3-1.8,2.3-4.1,2.3s-4.1-1.1-4.1-2.3v-61
		C207.8,70.6,209.7,68.8,211.9,68.8z"/>
	<path class="st0" d="M211.9,136.2L211.9,136.2c2.2,0,4.1-1.1,4.1-2.3v-60c0-1.1-0.9-2-2-2l0,0c-1.1,0-2,0.9-2,2v62.3H211.9z"/>
	<path class="st1" d="M211.9,104.7c-2.8,0-5.1-1.5-5.1-3.3c0-0.6,0.4-1,1-1s1,0.4,1,1c0,0.5,1.2,1.3,3.1,1.3s3.1-0.8,3.1-1.3
		c0-0.6,0.4-1,1-1s1,0.4,1,1C217,103.2,214.8,104.7,211.9,104.7z"/>
	<path class="st2" d="M211.9,137.2c-2.8,0-5.1-1.5-5.1-3.3v-61c0-2.8,2.3-5.1,5.1-5.1s5.1,2.3,5.1,5.1v61
		C217,135.7,214.8,137.2,211.9,137.2z M211.9,69.8c-1.7,0-3.1,1.4-3.1,3.1v61c0,0.5,1.2,1.3,3.1,1.3s3.1-0.8,3.1-1.3v-61
		C215,71.2,213.6,69.8,211.9,69.8z"/>
	<path class="st3" d="M235.4,117.5L235.4,117.5c-1.1-0.6-2.5-0.4-3.5,0.3l-86.5,50.8c-3,1.7-5.3,6.4-5.3,10.3l0.1,12.2
		c0,2.2,0.7,3.7,1.9,4.3l0,0l62.6,35.5L298,153L235.4,117.5z"/>
	<path class="st2" d="M204.6,232c-0.2,0-0.3,0-0.5-0.1l-62.6-35.5h-0.1c-1.5-0.9-2.3-2.7-2.3-5.2L139,179c0-4.3,2.5-9.3,5.8-11.2
		l86.5-50.8c1.3-0.9,3-1,4.4-0.4c0,0,0,0,0.1,0l62.6,35.5c0.5,0.3,0.6,0.9,0.4,1.4c-0.1,0.1-0.1,0.2-0.2,0.3l-93.4,78
		C205.1,231.9,204.8,232,204.6,232z M142.6,194.6l61.9,35.2l91.7-76.6L235,118.4c0,0,0,0-0.1,0c-0.8-0.3-1.8-0.2-2.5,0.3l-86.5,50.8
		c-2.6,1.5-4.8,5.9-4.8,9.5l0.1,12.2C141.1,192.8,141.7,194.1,142.6,194.6C142.5,194.6,142.6,194.6,142.6,194.6L142.6,194.6z"/>
	<path class="st0" d="M141.6,172.3c-1,1.9-1.6,3.9-1.6,6.1v12.2c0,2.2,0.7,3.7,1.9,4.4l0,0l62.3,36l15.8-13.3L141.6,172.3z"/>
	<path class="st1" d="M204.2,231.8c-0.2,0-0.3,0-0.5-0.1l-62.3-36c0,0,0,0-0.1,0c-1.5-0.9-2.3-2.8-2.3-5.2v-12.2
		c0-4.3,2.6-9.2,5.9-11.1l86.9-50.2c1.3-0.9,3-1,4.4-0.3h0.1l62.3,36c0.5,0.3,0.6,0.9,0.4,1.4c-0.1,0.1-0.1,0.2-0.2,0.3l-93.9,77.3
		C204.6,231.8,204.4,231.8,204.2,231.8z M142.4,194l61.7,35.6l92.3-75.9l-61-35.2c0,0,0,0-0.1,0c-0.8-0.4-1.8-0.2-2.5,0.3L145.9,169
		c-2.6,1.5-4.9,5.8-4.9,9.4v12.2C141,192.2,141.5,193.5,142.4,194L142.4,194z"/>
	<path class="st0" d="M294.6,180.4l-86.9,50.2c-3,1.7-5.4-0.1-5.4-4.1v-12.2c0-4,2.4-8.6,5.4-10.3l86.9-50.2c3-1.7,5.4,0.1,5.4,4.1
		v12.2C300,174.1,297.6,178.7,294.6,180.4z"/>
	<path class="st1" d="M205.6,232.2c-0.7,0-1.3-0.2-1.9-0.5c-1.5-0.9-2.4-2.8-2.4-5.2v-12.2c0-4.3,2.6-9.2,5.9-11.1l86.9-50.2
		c1.3-0.9,3.1-1,4.5-0.3c1.5,0.9,2.4,2.8,2.4,5.2v12.2c0,4.3-2.6,9.2-5.9,11.1l-86.9,50.2C207.4,231.9,206.5,232.2,205.6,232.2z
		 M296.8,154.2c-0.6,0-1.1,0.2-1.6,0.5l-86.9,50.2c-2.6,1.5-4.9,5.8-4.9,9.4v12.2c0,1.7,0.5,3,1.4,3.5c0.8,0.4,1.8,0.2,2.5-0.3
		l86.9-50.2l0,0c2.6-1.5,4.9-5.8,4.9-9.4v-12.2c0-1.7-0.5-3-1.4-3.5C297.4,154.3,297.1,154.2,296.8,154.2z"/>
	<path class="st1" d="M213.7,218.5c-0.4,0-0.9-0.1-1.3-0.3c-1.1-0.7-1.7-2-1.5-3.3c0-2.6,1.3-5.1,3.5-6.6c0.9-0.6,2-0.7,3-0.2
		c1.1,0.7,1.7,2,1.5,3.3c0,2.6-1.3,5.1-3.5,6.6l0,0C214.8,218.4,214.3,218.5,213.7,218.5z M216,209.8c-0.2,0-0.5,0.1-0.7,0.2
		c-1.5,1.1-2.5,2.9-2.5,4.9c0,0.9,0.3,1.4,0.5,1.6c0.3,0.2,0.7,0,1-0.2l0,0c1.5-1.1,2.5-2.9,2.5-4.9c0-0.9-0.3-1.4-0.5-1.6
		C216.2,209.8,216.1,209.8,216,209.8L216,209.8z"/>
	<ellipse transform="matrix(0.3916 -0.9201 0.9201 0.3916 2.6787 361.4219)" class="st3" cx="274.6" cy="178.7" rx="2.6" ry="1.5"/>
	<ellipse transform="matrix(0.3916 -0.9201 0.9201 0.3916 11.1043 365.5774)" class="st3" cx="282" cy="174.4" rx="2.6" ry="1.5"/>
	
		<ellipse transform="matrix(0.3916 -0.9201 0.9201 0.3916 19.5493 369.8398)" class="st3" cx="289.4" cy="170.1" rx="2.6" ry="1.5"/>
	<path class="st2" d="M205.6,232.2c-0.6,0-1.2-0.1-1.8-0.4c0,0-0.1,0-0.1-0.1l-62.3-36c0,0,0,0-0.1,0c-1.5-0.9-2.3-2.8-2.3-5.2
		v-12.2c0-0.3,0-0.6,0-0.8v-0.1c0-0.3,0-0.5,0.1-0.7v-0.1c0-0.3,0.1-0.5,0.1-0.7v-0.1c0.1-0.2,0.1-0.5,0.2-0.7
		c0.9-3.4,3.1-6.4,5.4-7.8l86.9-50.2c1.3-0.9,3-1,4.4-0.3c0,0,0,0,0.1,0l62.3,36c0,0,0.1,0,0.1,0.1c1.4,0.9,2.2,2.8,2.2,5.1v12.2
		c0,4.3-2.6,9.2-5.9,11.1L208,231.5C207.4,231.9,206.5,232.2,205.6,232.2z M204.6,229.9c0,0,0.1,0,0.1,0.1c0.8,0.4,1.8,0.3,2.5-0.3
		l86.9-50.2c2.6-1.5,4.9-5.8,4.9-9.4v-12.2c0-1.7-0.5-3-1.4-3.5c0,0-0.1,0-0.1-0.1l-62.2-35.9c0,0,0,0-0.1,0
		c-0.8-0.4-1.8-0.2-2.5,0.3l-86.9,50.2c-1.9,1.1-3.7,3.7-4.5,6.6c-0.1,0.2-0.1,0.5-0.2,0.7c-0.1,0.3-0.1,0.5-0.1,0.7h-1l1,0.1
		c0,0.2,0,0.4-0.1,0.6v0.1c0,0.3,0,0.5,0,0.7v12.2c0,1.7,0.5,3,1.4,3.5c0,0,0,0,0.1,0L204.6,229.9z"/>
	<path class="st0" d="M217.3,170.9c-0.2,0-0.3,0-0.5-0.1l-13.1-7.5c-0.5-0.3-0.6-0.9-0.4-1.4c0.1-0.2,0.2-0.3,0.4-0.4l18.1-10.5
		c0.3-0.2,0.7-0.2,1,0l13.1,7.5c0.5,0.3,0.6,0.9,0.4,1.4c-0.1,0.2-0.2,0.3-0.4,0.4l-18.1,10.5C217.6,170.9,217.5,170.9,217.3,170.9z
		 M206.2,162.4l11.1,6.4l16.1-9.3l-11.1-6.4L206.2,162.4z"/>
	<rect y="50" class="st4" width="440" height="200"/>
	<rect class="st4" width="440" height="300"/>
</g>
</svg>
