<?xml version="1.0" encoding="utf-8"?>
<!-- Generator: Adobe Illustrator 24.1.2, SVG Export Plug-In . SVG Version: 6.00 Build 0)  -->
<svg version="1.1" id="Layer_1" xmlns="http://www.w3.org/2000/svg" xmlns:xlink="http://www.w3.org/1999/xlink" x="0px" y="0px"
	 width="440px" height="300px" viewBox="0 0 440 300" style="enable-background:new 0 0 440 300;" xml:space="preserve">
<style type="text/css">
	.st0{fill:#E9EBDF;}
	.st1{fill:#FFFFFF;}
	.st2{fill:#4D9987;}
	.st3{fill:#0E352C;}
	.st4{fill:none;}
</style>
<g>
	<path class="st0" d="M169.9,104.5L233.2,68c0.7-0.5,1.7-0.6,2.4-0.2l0,0l36.4,21l-68.2,143.5l-36.4-21l0,0c-0.9-0.7-1.4-1.9-1.3-3
		v-96.6C166.1,108.9,167.8,105.7,169.9,104.5z"/>
	<path class="st1" d="M169.9,104.5L233.2,68c0.7-0.5,1.7-0.6,2.4-0.2l0,0l36.4,21l-28,55.6l-76.7-36.9
		C167.8,106.2,168.7,105.2,169.9,104.5z"/>
	<path class="st2" d="M185.7,222.8c-0.2,0-0.3,0-0.5-0.1c-1.2-0.9-1.9-2.4-1.8-3.9v-96.6c0-3.1,1.9-6.6,4.2-8l63.3-36.5
		c1-0.7,2.3-0.8,3.4-0.2c0.5,0.3,0.7,0.9,0.4,1.3c-0.3,0.5-0.9,0.7-1.3,0.4c-0.5-0.2-1-0.1-1.4,0.2l-63.3,36.5
		c-1.8,1-3.2,3.9-3.2,6.3v96.6c-0.1,0.8,0.2,1.6,0.8,2.1c0.5,0.3,0.6,0.9,0.4,1.4C186.3,222.6,186,222.8,185.7,222.8L185.7,222.8z"
		/>
	<path class="st2" d="M206.2,232.1l63.3-36.5c2.1-1.2,3.7-4.4,3.7-7.1V91.8c0-2.7-1.7-4-3.7-2.8l-63.3,36.5
		c-2.1,1.2-3.7,4.4-3.7,7.1v96.6C202.5,232,204.2,233.2,206.2,232.1z"/>
	<path class="st1" d="M204.7,233.5c-0.5,0-1-0.1-1.5-0.4c-1.2-0.9-1.9-2.4-1.8-3.9v-96.6c0-3.1,1.9-6.6,4.2-8L269,88.1
		c1-0.7,2.3-0.8,3.4-0.2c1.2,0.9,1.9,2.4,1.8,3.9v96.6c0,3.1-1.9,6.6-4.2,8l-63.3,36.5l0,0C206.1,233.3,205.4,233.5,204.7,233.5z
		 M271,89.5c-0.3,0-0.7,0.1-1,0.3l-63.3,36.5c-1.8,1-3.2,3.9-3.2,6.3v96.6c-0.1,0.8,0.2,1.6,0.8,2.2c0.5,0.2,1,0.1,1.4-0.2
		l63.3-36.5c1.8-1,3.2-3.9,3.2-6.3V91.8c0.1-0.8-0.2-1.6-0.8-2.2C271.3,89.5,271.1,89.5,271,89.5z"/>
	<path class="st3" d="M204.7,233.5c-0.5,0-0.9-0.1-1.4-0.3c0,0-0.1,0-0.1-0.1l-36.4-21c0,0-0.1,0-0.1-0.1c-1.2-0.9-1.8-2.3-1.7-3.8
		v-96.6c0-1.6,0.4-3.2,1.2-4.6c0.2-0.3,0.4-0.6,0.6-0.9l0.1-0.1c0.2-0.3,0.4-0.6,0.6-0.8c0,0,0-0.1,0.1-0.1c0.2-0.2,0.4-0.4,0.6-0.6
		c0.1-0.1,0.1-0.1,0.2-0.2c0.2-0.2,0.4-0.3,0.6-0.5c0.1-0.1,0.2-0.1,0.2-0.2l63.3-36.5c0.5-0.3,1.1-0.5,1.8-0.6c0.4,0,0.9,0,1.3,0.2
		c0.1,0,0.2,0.1,0.3,0.1s0.1,0,0.1,0.1l36.4,21c0,0,0.1,0,0.1,0.1c1.2,0.9,1.8,2.3,1.7,3.8v96.6c0,3.1-1.9,6.6-4.2,8l-63.3,36.5
		C206.1,233.3,205.4,233.5,204.7,233.5z M204.2,231.3C204.2,231.3,204.2,231.4,204.2,231.3c0.6,0.2,1.1,0.2,1.5-0.1l63.3-36.5
		c1.8-1,3.2-3.9,3.2-6.3V91.8c0.1-0.8-0.2-1.6-0.8-2.1c0,0-0.1,0-0.1-0.1l-36.2-20.9c0,0,0,0-0.1,0h-0.1c-0.1-0.1-0.3-0.1-0.4-0.1
		c-0.2,0-0.4,0.1-0.6,0.2c-0.1,0-0.2,0.1-0.3,0.1l-63.3,36.5l-0.1,0.1c-0.2,0.1-0.3,0.2-0.5,0.3c-0.1,0.1-0.1,0.1-0.1,0.1
		c-0.2,0.1-0.3,0.3-0.5,0.5c0,0,0,0.1-0.1,0.1c-0.2,0.2-0.3,0.4-0.5,0.6c-0.2,0.3-0.4,0.6-0.5,0.8c-0.6,1.1-0.9,2.4-1,3.7v96.6
		c-0.1,0.8,0.2,1.6,0.8,2.1c0,0,0.1,0,0.1,0.1L204.2,231.3z"/>
	<path class="st0" d="M272.8,105.6l-6.2-3.6l0,0c-0.7-0.3-1.5-0.3-2.1,0.2L211.2,133c-1.9,1.4-3.1,3.6-3.1,6v74.9
		c-0.1,1,0.3,1.9,1.1,2.5l0,0l6.2,3.6l3-8l46.1-26.6c1.9-1.4,3.1-3.6,3.1-6V116L272.8,105.6z"/>
	<path class="st2" d="M215.3,221.1c-0.2,0-0.3,0-0.5-0.1l-6.2-3.6c0,0-0.1,0-0.1-0.1c-1-0.8-1.6-2-1.5-3.3v-75
		c0-2.7,1.4-5.3,3.6-6.9l53.3-30.8c0.9-0.6,2-0.7,3-0.2c0,0,0.1,0,0.1,0.1l6.2,3.6c0.5,0.3,0.6,0.8,0.4,1.3l-5.1,10.2v63.2
		c0,2.7-1.4,5.3-3.6,6.9l-45.8,26.4l-2.9,7.6C216.1,220.8,215.8,221.1,215.3,221.1L215.3,221.1z M209.7,215.7l5.1,2.9l2.6-6.9
		c0.1-0.2,0.2-0.4,0.4-0.5l46.1-26.6c1.6-1.2,2.6-3.1,2.6-5.1V116c0-0.2,0-0.3,0.1-0.4l4.8-9.6l-5.3-3.1H266
		c-0.4-0.1-0.8-0.1-1.1,0.2l-53.3,30.8c-1.6,1.2-2.6,3.1-2.6,5.1v74.9C209,214.9,209.3,215.4,209.7,215.7
		C209.7,215.6,209.7,215.6,209.7,215.7L209.7,215.7z"/>
	<path class="st1" d="M247.8,157l19.8-26.5V116l5.2-10.4l-6.2-3.6l0,0c-0.7-0.3-1.5-0.3-2.1,0.2L211.2,133c-1.9,1.4-3.1,3.6-3.1,6
		l0,0L247.8,157z"/>
	<path class="st0" d="M217.4,219.9l53.3-30.8c1.9-1.4,3.1-3.6,3.1-6v-74.9c0-2.3-1.4-3.4-3.1-2.4l-53.3,30.8c-1.9,1.4-3.1,3.6-3.1,6
		v74.9C214.3,219.8,215.7,220.9,217.4,219.9z"/>
	<path class="st2" d="M216.1,221.3c-0.5,0-0.9-0.1-1.3-0.3c-1.1-0.8-1.7-2.1-1.6-3.4v-74.9c0-2.7,1.4-5.3,3.6-6.9l53.3-30.8
		c0.9-0.6,2.1-0.7,3.1-0.2c1.1,0.8,1.7,2.1,1.6,3.4v74.9c0,2.7-1.4,5.3-3.6,6.9l-53.3,30.8C217.4,221.1,216.8,221.3,216.1,221.3z
		 M272,106.4c-0.3,0-0.5,0.1-0.7,0.2L218,137.4c-1.6,1.2-2.6,3.1-2.6,5.1v74.9c0,1,0.3,1.5,0.6,1.7c0.4,0.1,0.8,0.1,1.1-0.2l0,0
		l53.3-30.8c1.6-1.2,2.6-3.1,2.6-5.1v-74.9c0-1-0.3-1.5-0.6-1.7C272.2,106.4,272.1,106.4,272,106.4z"/>
	<path class="st3" d="M216.2,221.3c-0.4,0-0.8-0.1-1.1-0.2c-0.1,0-0.2-0.1-0.2-0.1l-6.2-3.6c0,0-0.1,0-0.1-0.1
		c-1-0.8-1.6-2.1-1.5-3.3v-75c0-2.7,1.4-5.3,3.6-6.9l53.3-30.8c0.9-0.6,2-0.7,3-0.2c0,0,0.1,0,0.1,0.1l6.2,3.6
		c0.1,0,0.1,0.1,0.2,0.2c1,0.8,1.5,2,1.4,3.3v74.9c0,2.7-1.4,5.3-3.6,6.9L218,220.9C217.4,221.1,216.8,221.2,216.2,221.3z
		 M215.7,219.1c0.1,0,0.1,0,0.2,0.1c0.4,0.1,0.7,0.1,1.1-0.1l53.3-30.8c1.6-1.2,2.6-3.1,2.6-5.1v-74.9c0.1-0.6-0.1-1.2-0.6-1.7
		c-0.1,0-0.1-0.1-0.2-0.1l-6-3.4H266c-0.4-0.1-0.8-0.1-1.1,0.2l-53.3,30.8c-1.6,1.2-2.6,3.1-2.6,5.1v74.9c0,1,0.3,1.5,0.6,1.7h0.1
		L215.7,219.1z"/>
	<path class="st0" d="M235.7,155.6l-10.3-5.9l0,0c-0.6-0.3-1.2-0.3-1.8,0.1c-1.6,1.2-2.6,3.1-2.7,5.1c-0.1,0.8,0.3,1.6,0.9,2.1l0,0
		l9.2,5.3v28.2l-5.7-3.3l0,0c-0.6-0.3-1.2-0.3-1.8,0.1c-1.6,1.2-2.6,3.1-2.7,5.1c-0.1,0.8,0.2,1.6,0.9,2.1l0,0l0,0l9.8,5.6
		c0.8,0.5,1.7,0.7,2.6,0.7c0.9,0,1.7-0.2,2.4-0.6c1.6-1,2.6-2.8,2.6-4.8v-33.6C239.3,159.4,237.9,157,235.7,155.6z"/>
	<path class="st3" d="M234.3,202c-1.1,0-2.2-0.3-3.1-0.9l-9.8-5.6c-0.1,0-0.1-0.1-0.2-0.1c-0.8-0.7-1.3-1.8-1.2-2.9
		c0-2.4,1.2-4.6,3.2-6c0.8-0.5,1.8-0.6,2.6-0.2c0.1,0,0.1,0,0.2,0.1l4.2,2.4v-25.9l-8.7-5c-0.1,0-0.1-0.1-0.2-0.1
		c-0.9-0.7-1.3-1.8-1.2-2.9c0-2.4,1.2-4.6,3.2-6c0.8-0.5,1.8-0.6,2.6-0.2c0.1,0,0.1,0,0.2,0.1l10.3,5.9l0,0c2.5,1.6,4,4.3,4.1,7.3
		v33.5c0.1,2.3-1.1,4.4-3.1,5.6C236.3,201.7,235.3,202,234.3,202z M222.5,193.9l9.6,5.6c1.2,0.7,2.8,0.8,4.1,0.1
		c1.3-0.8,2.1-2.3,2.1-3.9v-33.5c0-2.3-1.2-4.3-3.1-5.6l-10.2-5.9c-0.1,0-0.1,0-0.2-0.1c-0.2-0.1-0.5,0-0.7,0.1
		c-1.3,1-2.1,2.6-2.2,4.2c0,0.8,0.2,1.2,0.4,1.3l0.1,0.1l9.1,5.2c0.3,0.2,0.5,0.5,0.5,0.9v28.2c0,0.6-0.4,1-1,1
		c-0.2,0-0.3,0-0.5-0.1l-5.6-3.2c-0.1,0-0.1,0-0.2-0.1c-0.2-0.1-0.5,0-0.7,0.1c-1.3,1-2.1,2.6-2.2,4.2c0,0.7,0.2,1.1,0.4,1.3
		C222.4,193.8,222.5,193.8,222.5,193.9L222.5,193.9z"/>
	<path class="st1" d="M234.6,158.3c-0.2,0-0.3,0-0.5-0.1l-7.9-4.6c-0.1,0-0.2-0.1-0.3-0.1l-1.7-1.1c-0.5-0.3-0.6-0.9-0.3-1.4
		s0.9-0.6,1.4-0.3l1.5,0.9c0.1,0,0.2,0,0.3,0.1l8.2,4.7c0.5,0.3,0.6,0.9,0.4,1.4C235.3,158.2,235,158.3,234.6,158.3L234.6,158.3z"/>
	<path class="st1" d="M231,193.9c-0.2,0-0.3,0-0.5-0.1l-4.3-2.5c-0.1,0-0.2-0.1-0.3-0.1l-1.7-1.1c-0.5-0.3-0.6-0.9-0.3-1.4
		s0.9-0.6,1.4-0.3l1.5,0.9c0.1,0,0.2,0,0.3,0.1l4.6,2.7c0.5,0.3,0.6,0.9,0.4,1.4C231.7,193.7,231.4,193.9,231,193.9L231,193.9z"/>
	<path class="st1" d="M265.5,140.3l-13.5,7.8c-0.6,0.4-1.1,0-1.1-0.8V138c0-0.9,0.4-1.6,1.1-2.1l13.5-7.8c0.6-0.4,1.1,0,1.1,0.8v9.3
		C266.6,139.1,266.2,139.9,265.5,140.3z"/>
	<path class="st2" d="M251.6,149.3c-0.3,0-0.5-0.1-0.8-0.2c-0.6-0.4-0.9-1.1-0.9-1.8V138c0-1.2,0.6-2.3,1.6-3l13.5-7.8
		c0.5-0.3,1.2-0.4,1.7-0.1c0.6,0.4,0.9,1.1,0.9,1.8v9.3c0,1.2-0.6,2.3-1.6,3l0,0l-13.5,7.8C252.2,149.2,251.9,149.2,251.6,149.3z
		 M265.6,129.2l-13.1,7.6c-0.4,0.3-0.6,0.8-0.6,1.3v9l13.1-7.6c0.4-0.3,0.6-0.8,0.6-1.3V129.2z"/>
	<path class="st2" d="M253,182.6c-0.3,0-0.5-0.1-0.7-0.2c-0.5-0.3-0.9-1-0.8-1.6V163c0-1,0.5-2,1.4-2.6l10.8-6.2
		c0.5-0.3,1.1-0.3,1.6,0s0.9,1,0.8,1.6v17.8c0,1-0.5,2-1.4,2.6l0,0l-10.8,6.2C253.6,182.5,253.3,182.5,253,182.6z M264.1,156.3
		l-10.2,5.9c-0.2,0.2-0.4,0.5-0.4,0.9v17.2l10.2-5.9c0.2-0.2,0.4-0.5,0.4-0.9V156.3z"/>
	<rect y="50" class="st4" width="440" height="200"/>
	<rect class="st4" width="440" height="300"/>
</g>
</svg>
