<?xml version="1.0" encoding="utf-8"?>
<!-- Generator: Adobe Illustrator 24.1.2, SVG Export Plug-In . SVG Version: 6.00 Build 0)  -->
<svg version="1.1" id="Layer_1" xmlns="http://www.w3.org/2000/svg" xmlns:xlink="http://www.w3.org/1999/xlink" x="0px" y="0px"
	 width="128px" height="128px" viewBox="0 0 128 128" style="enable-background:new 0 0 128 128;" xml:space="preserve">
<style type="text/css">
	.st0{fill:#E9EBDF;}
	.st1{fill:#4D9987;}
	.st2{fill:#FFFFFF;}
	.st3{fill:#0E352C;}
	.st4{fill:none;}
</style>
<g>
	<path class="st0" d="M38.5,47.1c0,0.1,0,0.3,0,0.4c0,0.1,0.1,0.2,0.1,0.4c0,0.1,0.1,0.3,0.1,0.4c0,0.1,0.1,0.2,0.1,0.3
		c0.1,0.1,0.1,0.3,0.2,0.4c0.1,0.2,0.2,0.4,0.4,0.6c0,0,0,0.1,0.1,0.1c0.1,0.2,0.3,0.4,0.5,0.6l0.1,0.1c0.2,0.2,0.4,0.4,0.6,0.6
		c0.1,0.1,0.3,0.2,0.4,0.3c0.1,0.1,0.2,0.2,0.4,0.3s0.3,0.2,0.5,0.3s0.3,0.2,0.5,0.3l23.4,13.6c0.4,0.2,0.9,0.5,1.3,0.7
		c0.1,0.1,0.3,0.1,0.4,0.2c0.4,0.1,0.7,0.3,1.1,0.4c0.1,0,0.3,0.1,0.4,0.1c0.2,0.1,0.5,0.1,0.7,0.2c0.2,0,0.4,0.1,0.5,0.1
		c0.2,0.1,0.5,0.1,0.8,0.2c0.2,0,0.3,0.1,0.5,0.1c0.5,0.1,1,0.2,1.6,0.2c0.2,0,0.3,0,0.5,0c0.3,0,0.6,0,0.9,0.1c0.2,0,0.4,0,0.6,0
		c0.3,0,0.5,0,0.8,0c0.2,0,0.4,0,0.6,0s0.5,0,0.7,0s0.4,0,0.6-0.1c0.2,0,0.5,0,0.7-0.1c0.2,0,0.4-0.1,0.6-0.1s0.5-0.1,0.7-0.1
		s0.4-0.1,0.6-0.1c0.3-0.1,0.6-0.1,0.9-0.2c0.2,0,0.3-0.1,0.5-0.1c0.5-0.1,1-0.3,1.5-0.5c0.2-0.1,0.5-0.2,0.7-0.3
		c0.1-0.1,0.2-0.1,0.4-0.2c0.3-0.2,0.7-0.3,1-0.5c2.7-1.6,4.1-3.6,4.1-5.7l0.1,55.8c0,2.1-1.3,4.1-4.1,5.7c-0.3,0.2-0.7,0.4-1,0.5
		c-0.1,0.1-0.2,0.1-0.4,0.2c-0.2,0.1-0.4,0.2-0.6,0.3h-0.1c-0.5,0.2-1,0.4-1.5,0.5h-0.1c-0.1,0-0.2,0.1-0.4,0.1
		c-0.3,0.1-0.6,0.1-0.9,0.2c-0.1,0-0.2,0-0.2,0.1c-0.1,0-0.2,0-0.3,0.1c-0.2,0-0.5,0.1-0.7,0.1c-0.1,0-0.2,0-0.3,0.1s-0.2,0-0.3,0
		c-0.2,0-0.5,0.1-0.7,0.1c-0.1,0-0.2,0-0.3,0s-0.2,0-0.3,0c-0.2,0-0.5,0-0.7,0c-0.1,0-0.2,0-0.3,0c-0.1,0-0.2,0-0.3,0
		c-0.2,0-0.4,0-0.6,0h-0.2c-0.1,0-0.2,0-0.4,0c-0.1,0-0.1,0-0.2,0c-0.3,0-0.6,0-0.9-0.1c-0.1,0-0.3,0-0.4,0h-0.1
		c-0.5-0.1-1-0.1-1.6-0.2h-0.1c-0.2,0-0.3-0.1-0.4-0.1c-0.3-0.1-0.5-0.1-0.8-0.2c-0.2,0-0.4-0.1-0.5-0.1c-0.2-0.1-0.5-0.1-0.7-0.2
		c0,0-0.1,0-0.2,0s-0.2-0.1-0.2-0.1c-0.4-0.1-0.7-0.3-1.1-0.4c-0.1-0.1-0.3-0.1-0.4-0.2c-0.4-0.2-0.9-0.4-1.3-0.7L42.7,108l-0.2-0.1
		c-0.1-0.1-0.2-0.2-0.4-0.2c-0.2-0.1-0.3-0.2-0.5-0.3c-0.1-0.1-0.3-0.2-0.4-0.3c-0.1-0.1-0.3-0.2-0.4-0.3c0,0-0.1,0-0.1-0.1
		c-0.2-0.2-0.3-0.3-0.5-0.5l-0.1-0.1c-0.1-0.1-0.2-0.2-0.3-0.3c-0.1-0.1-0.1-0.2-0.2-0.3c0,0,0-0.1-0.1-0.1
		c-0.1-0.2-0.2-0.3-0.3-0.5v-0.1c-0.1-0.1-0.1-0.3-0.2-0.4c0-0.1-0.1-0.2-0.1-0.2v-0.1c0-0.1-0.1-0.3-0.1-0.4s-0.1-0.2-0.1-0.3
		c0,0,0,0,0-0.1s0-0.3,0-0.4s0-0.2,0-0.3v-0.1l-0.1-55.8C38.5,46.8,38.5,47,38.5,47.1z"/>
	<path class="st1" d="M89.4,60.2c0,2.1-1.3,4.1-4.1,5.7c-0.3,0.2-0.7,0.4-1,0.5c-0.1,0.1-0.2,0.1-0.4,0.2c-0.2,0.1-0.5,0.2-0.7,0.3
		c-0.5,0.2-1,0.4-1.5,0.5c-0.2,0-0.3,0.1-0.5,0.1c-0.3,0.1-0.6,0.1-0.9,0.2c-0.2,0-0.4,0.1-0.6,0.1s-0.5,0.1-0.7,0.1
		S78.6,68,78.4,68s-0.5,0.1-0.7,0.1s-0.4,0-0.6,0.1c-0.2,0-0.5,0-0.7,0s-0.4,0-0.6,0c-0.3,0-0.5,0-0.8,0c-0.2,0-0.4,0-0.6,0h-0.1
		V124c0.1,0,0.1,0,0.2,0s0.1,0,0.2,0s0.2,0,0.4,0h0.2c0.2,0,0.4,0,0.6,0c0.1,0,0.2,0,0.3,0c0.1,0,0.2,0,0.3,0c0.2,0,0.5,0,0.7,0
		c0.1,0,0.2,0,0.3,0s0.2,0,0.3,0c0.2,0,0.5,0,0.7-0.1c0.1,0,0.2,0,0.3,0s0.2,0,0.3-0.1c0.2,0,0.5-0.1,0.7-0.1c0.1,0,0.2,0,0.3-0.1
		c0.1,0,0.2,0,0.2-0.1c0.3-0.1,0.6-0.1,0.9-0.2c0.1,0,0.2-0.1,0.4-0.1h0.1c0.5-0.1,1-0.3,1.5-0.5h0.1c0.2-0.1,0.4-0.2,0.6-0.3
		c0.1-0.1,0.2-0.1,0.4-0.2c0.3-0.2,0.7-0.3,1-0.5c2.7-1.6,4.1-3.6,4.1-5.7L89.4,60.2z"/>
	<path class="st2" d="M42.6,41c-5.4,3.1-5.4,8.2-0.1,11.3l23.4,13.6c5.4,3.1,14.1,3.1,19.5,0l0,0c5.4-3.1,5.4-8.2,0.1-11.3L62,41
		C56.7,37.9,47.9,37.9,42.6,41z"/>
	<path class="st3" d="M75.9,125c-0.2,0-0.3,0-0.5,0H75c-0.1,0-0.2,0-0.3,0h-0.2c-0.4,0-0.7,0-1-0.1h-0.1c-0.1,0-0.2,0-0.3,0H73
		c-0.6-0.1-1.1-0.1-1.6-0.2c-0.2,0-0.3-0.1-0.4-0.1h-0.2c-0.3-0.1-0.6-0.1-0.8-0.2c-0.1,0-0.3-0.1-0.4-0.1h-0.1
		c-0.3-0.1-0.5-0.1-0.7-0.2h-0.2c-0.1,0-0.1,0-0.2-0.1c-0.5-0.2-0.8-0.3-1.2-0.5c-0.2-0.1-0.3-0.1-0.4-0.2c-0.5-0.2-0.9-0.4-1.4-0.7
		l-23.6-13.7c-0.1-0.1-0.2-0.1-0.3-0.2l-0.2-0.1c-0.1-0.1-0.3-0.2-0.4-0.3c-0.1-0.1-0.2-0.2-0.3-0.3l-0.1-0.1
		c-0.2-0.2-0.3-0.3-0.5-0.4l-0.1-0.1c-0.2-0.2-0.4-0.4-0.6-0.6l-0.1-0.1l0.7-0.7l-0.8,0.6c-0.1-0.1-0.2-0.2-0.3-0.3
		c-0.1-0.1-0.1-0.2-0.2-0.2l-0.1-0.2c-0.1-0.2-0.2-0.4-0.4-0.6c0,0-0.1-0.1-0.1-0.2c-0.1-0.1-0.1-0.3-0.2-0.5
		c-0.1-0.1-0.1-0.2-0.1-0.3c0,0,0-0.1,0-0.2s-0.1-0.2-0.1-0.4v-0.1c0-0.1-0.1-0.2-0.1-0.3c0,0,0-0.1,0-0.2s0-0.2,0-0.4v-0.1
		c0-0.1,0-0.2,0-0.3v-0.2l-0.1-55.8l0,0l0,0c0-0.1,0-0.1,0-0.2c0.1-2.4,1.7-4.7,4.5-6.4c5.7-3.3,14.8-3.3,20.5,0l23.4,13.6
		c2.9,1.7,4.5,3.9,4.5,6.4c0,0,0,0,0,0.1l0.1,55.8c0,2.5-1.6,4.8-4.6,6.5c-0.3,0.2-0.7,0.4-1.1,0.6c-0.1,0-0.2,0.1-0.2,0.1l-0.3,0.1
		c-0.2,0.1-0.3,0.2-0.5,0.2h-0.1c-0.5,0.2-1,0.4-1.5,0.5H82c-0.1,0-0.2,0-0.2,0.1h-0.1c-0.3,0.1-0.6,0.2-0.9,0.2l-0.2,0.1
		c-0.1,0-0.2,0-0.2,0h-0.1c-0.3,0-0.5,0.1-0.8,0.1l-0.6,0.1c-0.2,0-0.5,0.1-0.7,0.1l-0.7,0.1c-0.2,0-0.5,0-0.7,0h-0.4L75.9,125
		L75.9,125z M76,123h0.3h0.3c0.2,0,0.4,0,0.7,0l0.6-0.1c0.2,0,0.4,0,0.7-0.1l0.6-0.1c0.2,0,0.5-0.1,0.7-0.1l0.5-0.1
		c0.3-0.1,0.5-0.1,0.8-0.2l0.4-0.1c0.5-0.1,1-0.3,1.4-0.5h0.1c0.1,0,0.3-0.1,0.4-0.2l0.5-0.2c0.3-0.2,0.6-0.3,0.9-0.5
		c2.3-1.3,3.6-3,3.6-4.8l-0.1-55.7c0,0,0,0,0-0.1l0,0l0,0c0-1.8-1.2-3.4-3.5-4.8L61.5,41.9C56.4,39,48.1,39,43,41.9
		c-2.4,1.4-3.7,3.3-3.5,5.1c0,0.1,0,0.2,0,0.3l0.1,55.3v0.2c0,0.2,0,0.3,0,0.3v0.1l0.1,0.1c0,0.2,0.1,0.2,0.1,0.3v0.1l0.1,0.1
		c0.1,0.1,0.1,0.2,0.2,0.4c0,0,0,0.1,0.1,0.1c0.1,0.1,0.1,0.2,0.2,0.4l-0.8,0.7l0.9-0.5c0,0.1,0.1,0.1,0.1,0.2
		c0.1,0.1,0.1,0.1,0.2,0.2l0.1,0.1c0.2,0.2,0.3,0.3,0.5,0.5l0.1,0.1c0.1,0.1,0.2,0.2,0.3,0.2l0.1,0.1l0.1,0.1
		c0.1,0.1,0.2,0.1,0.2,0.2c0.1,0.1,0.2,0.2,0.3,0.2l0.3,0.2c0.1,0,0.1,0.1,0.2,0.1l0.2,0.1l23.4,13.6c0.4,0.2,0.8,0.4,1.2,0.6
		l0.3,0.1c0.4,0.2,0.7,0.3,1.1,0.4l0.4,0.1c0.2,0.1,0.4,0.1,0.6,0.2l0.2,0.1c0.1,0,0.2,0.1,0.4,0.1c0.2,0.1,0.4,0.1,0.6,0.1l0.5,0.1
		c0.6,0.1,1.1,0.2,1.6,0.2h0.1H74c0.3,0,0.6,0,0.9,0.1h0.6h0.2C75.7,123,75.8,123,76,123L76,123z"/>
	<path class="st1" d="M75.7,69.2c-3.6,0.1-7.1-0.8-10.2-2.5L42,53.2c-0.5-0.3-0.6-0.9-0.4-1.4s0.9-0.6,1.4-0.4L66.4,65
		c4.6,2.7,12,3,17.2,0.6c0.5-0.2,1.1,0,1.3,0.5s0,1.1-0.5,1.3C81.7,68.7,78.7,69.3,75.7,69.2z"/>
	<path class="st1" d="M75.7,100.4c-3.6,0.1-7.1-0.8-10.2-2.5L42,84.4c-0.5-0.3-0.6-0.9-0.4-1.4c0.3-0.5,0.9-0.6,1.4-0.4l23.4,13.6
		c4.6,2.7,12,3,17.2,0.6c0.5-0.2,1.1,0,1.3,0.5s0,1.1-0.5,1.3C81.7,99.9,78.7,100.5,75.7,100.4z"/>
	<path class="st2" d="M65.5,4c1.7,0,3.1,1.4,3.1,3.1v45.8c0,1-1.4,1.8-3.1,1.8s-3.1-0.8-3.1-1.8V7.1C62.4,5.4,63.8,4,65.5,4z"/>
	<path class="st0" d="M65.5,54.7L65.5,54.7c1.7,0,3.1-0.8,3.1-1.8v-45c0-0.9-0.7-1.6-1.6-1.6l0,0l0,0c-0.9,0-1.6,0.7-1.6,1.6
		L65.5,54.7L65.5,54.7z"/>
	<path class="st3" d="M65.5,55.7c-2.4,0-4.1-1.2-4.1-2.8V7.1c0-2.3,1.9-4.1,4.1-4.1c2.3,0,4.1,1.8,4.1,4.1v45.8
		C69.6,54.5,67.8,55.7,65.5,55.7z M65.5,5c-1.2,0-2.1,1-2.1,2.1v45.8c0,0.2,0.8,0.8,2.1,0.8s2.1-0.6,2.1-0.8V7.1
		C67.6,5.9,66.7,5,65.5,5z"/>
	<path class="st3" d="M65.5,30.7c-2.4,0-4.1-1.2-4.1-2.8c0-0.6,0.4-1,1-1s1,0.4,1,1c0,0.2,0.8,0.8,2.1,0.8s2.1-0.6,2.1-0.8
		c0-0.6,0.4-1,1-1s1,0.4,1,1C69.6,29.5,67.8,30.7,65.5,30.7z"/>
	<path class="st0" d="M82.3,113.6c-0.6,0-1-0.4-1-1v-4.5c0-0.6,0.4-1,1-1s1,0.4,1,1v4.5C83.3,113.2,82.8,113.6,82.3,113.6z"/>
	<path class="st0" d="M82.3,84.1c-0.6,0-1-0.4-1-1v-4.5c0-0.6,0.4-1,1-1s1,0.4,1,1v4.5C83.3,83.6,82.8,84.1,82.3,84.1z"/>
	<path class="st1" d="M67.7,77v8c0,0.9-0.7,1.6-1.7,1.6c-0.3,0-0.6-0.1-0.8-0.2L46.5,75.6c-1-0.6-1.7-1.7-1.6-2.9v-8
		c0-0.9,0.7-1.6,1.7-1.6c0.3,0,0.6,0.1,0.8,0.2l18.7,10.8C67.1,74.7,67.7,75.8,67.7,77z"/>
	<ellipse transform="matrix(0.8671 -0.4981 0.4981 0.8671 -44.2919 35.7683)" class="st1" cx="44.9" cy="100.9" rx="1.2" ry="2.1"/>
	<ellipse transform="matrix(0.8671 -0.4981 0.4981 0.8671 -47.8404 48.8909)" class="st1" cx="67.7" cy="114.1" rx="1.2" ry="2.1"/>
	<rect x="1" y="1" class="st4" width="126" height="126"/>
	<g>
		<rect class="st4" width="128" height="128"/>
	</g>
</g>
</svg>
