<?xml version="1.0" encoding="utf-8"?>
<!-- Generator: Adobe Illustrator 24.1.2, SVG Export Plug-In . SVG Version: 6.00 Build 0)  -->
<svg version="1.1" id="Layer_1" xmlns="http://www.w3.org/2000/svg" xmlns:xlink="http://www.w3.org/1999/xlink" x="0px" y="0px"
	 width="440px" height="300px" viewBox="0 0 440 300" style="enable-background:new 0 0 440 300;" xml:space="preserve">
<style type="text/css">
	.st0{fill:none;}
	.st1{fill:#FFFFFF;}
	.st2{fill:#0E352C;}
	.st3{fill:#E9EBDF;}
	.st4{fill:#4D9987;}
</style>
<g>
	<rect y="50" class="st0" width="440" height="200"/>
	<path class="st1" d="M252.9,89l-30.1-17.3l0,0c-1.3-0.8-3-0.7-4.9,0.4l-34.8,20.1c-4.1,2.4-7.5,8.8-7.5,14.2v93.5c0,3,1,5.1,2.6,6
		l0,0l30.1,17.4l3.2-34.1l6.4-3.7c4.1-2.4,7.5-8.8,7.5-14.2v-37.8L252.9,89z"/>
	<path class="st2" d="M208.3,224.3c-0.2,0-0.3,0-0.5-0.1l-30.1-17.4l-0.1-0.1c-1.9-1.2-2.9-3.6-2.9-6.8v-93.5c0-5.9,3.5-12.5,8-15.1
		l34.8-20.1c1.7-1.2,3.9-1.3,5.7-0.5c0,0,0.1,0,0.1,0.1l30.1,17.3c0.5,0.3,0.6,0.9,0.4,1.4l0,0l-27.3,44.2v37.5
		c0,5.9-3.5,12.5-8,15.1l-6,3.5l-3.1,33.6C209.3,223.9,208.8,224.3,208.3,224.3L208.3,224.3z M178.9,205.1l28.6,16.5l3-32.6
		c0-0.3,0.2-0.6,0.5-0.8l6.4-3.7c3.8-2.2,7-8.2,7-13.4v-37.8c0-0.2,0.1-0.4,0.1-0.5l26.9-43.5l-29-16.8c0,0-0.1,0-0.1-0.1
		c-1.3-0.6-2.7-0.4-3.9,0.4L183.7,93c-3.8,2.2-7,8.2-7,13.4v93.5C176.7,202.4,177.5,204.3,178.9,205.1
		C178.8,205.1,178.9,205.1,178.9,205.1z"/>
	<path class="st3" d="M177.1,99.9c-0.9,2.1-1.3,4.3-1.4,6.5v93.5c0,3,1,5.1,2.6,6l0,0l30.1,17.4l3.2-34.1l6.4-3.7
		c4.1-2.4,7.5-8.8,7.5-14.2v-37.8l2.6-4.2L177.1,99.9z"/>
	<path class="st2" d="M208.3,224.3c-0.2,0-0.3,0-0.5-0.1l-30.1-17.4l-0.1-0.1c-1.9-1.2-2.9-3.6-2.9-6.8v-93.5c0-5.9,3.5-12.5,8-15.1
		l34.8-20.1c1.7-1.2,3.9-1.3,5.7-0.5c0,0,0.1,0,0.1,0.1l30.1,17.3c0.5,0.3,0.6,0.9,0.4,1.4l0,0l-27.3,44.2v37.5
		c0,5.9-3.5,12.5-8,15.1l-6,3.5l-3.1,33.6C209.3,223.9,208.8,224.3,208.3,224.3L208.3,224.3z M178.9,205.1l28.6,16.5l3-32.6
		c0-0.3,0.2-0.6,0.5-0.8l6.4-3.7c3.8-2.2,7-8.2,7-13.4v-37.8c0-0.2,0.1-0.4,0.1-0.5l26.9-43.5l-29-16.8c0,0-0.1,0-0.1-0.1
		c-1.3-0.6-2.7-0.4-3.9,0.4L183.7,93c-3.8,2.2-7,8.2-7,13.4v93.5C176.7,202.4,177.5,204.3,178.9,205.1
		C178.8,205.1,178.9,205.1,178.9,205.1z"/>
	<path class="st1" d="M248,202.8l-34.8,20.1c-4.1,2.4-7.5-0.1-7.5-5.6v-93.5c0-5.5,3.3-11.9,7.5-14.2L248,89.4
		c4.1-2.4,7.5,0.1,7.5,5.6v93.5C255.5,194,252.1,200.4,248,202.8z"/>
	<path class="st2" d="M210.3,224.8c-0.8,0-1.7-0.2-2.4-0.6c-2-1.1-3.1-3.6-3.1-6.9v-93.5c0-5.9,3.5-12.5,8-15.1l34.8-20.1
		c2.1-1.2,4.2-1.4,5.9-0.4c2,1.1,3.1,3.6,3.1,6.9v93.5c0,5.9-3.5,12.5-8,15.1l-34.8,20.1C212.7,224.4,211.5,224.7,210.3,224.8z
		 M251,89.5c-0.9,0-1.7,0.3-2.5,0.8l-34.8,20.1c-3.8,2.2-7,8.2-7,13.4v93.5c0,2.5,0.8,4.4,2.1,5.2c1.3,0.6,2.7,0.4,3.9-0.4
		l34.8-20.1l0.5,0.9l-0.5-0.9c3.8-2.2,7-8.2,7-13.4V95c0-2.5-0.8-4.4-2.1-5.2C252,89.6,251.5,89.5,251,89.5z"/>
	
		<ellipse transform="matrix(0.3916 -0.9201 0.9201 0.3916 18.9676 292.4849)" class="st1" cx="230.7" cy="131.9" rx="26.4" ry="14.9"/>
	<path class="st2" d="M223.8,157.8c-1.7,0-3.4-0.4-4.9-1.3c-4.1-2.4-6.4-7.7-6.4-14.8c0-13,7.9-28.1,17.7-33.7
		c4.5-2.6,8.8-2.9,12.2-0.9c4.1,2.4,6.4,7.7,6.4,14.8c0,13-7.9,28.1-17.7,33.7C228.9,157,226.4,157.8,223.8,157.8z M237.4,107.9
		c-2.2,0.1-4.4,0.7-6.3,1.9c-9.2,5.3-16.7,19.7-16.7,32c0,6.3,2,11,5.4,13c2.8,1.6,6.4,1.3,10.2-0.9c9.2-5.3,16.7-19.7,16.7-32
		c0-6.3-2-11-5.4-13C240.2,108.2,238.8,107.9,237.4,107.9z"/>
	
		<ellipse transform="matrix(0.3916 -0.9201 0.9201 0.3916 -33.0906 326.9349)" class="st1" cx="230.7" cy="188.5" rx="13.2" ry="7.5"/>
	<path class="st2" d="M227.2,201.9c-0.9,0-1.9-0.2-2.7-0.7c-2.2-1.3-3.5-4.1-3.5-7.8c0-6.6,4.1-14.4,9.1-17.3
		c2.4-1.4,4.7-1.5,6.6-0.5c2.2,1.3,3.5,4.1,3.5,7.8c0,6.6-4.1,14.4-9.1,17.3C229.9,201.5,228.6,201.9,227.2,201.9z M234,177
		c-1,0-2,0.4-2.9,0.9c-4.5,2.6-8.1,9.6-8.1,15.6c0,3,0.9,5.2,2.5,6.1c1.3,0.7,2.9,0.6,4.6-0.5c4.5-2.6,8.1-9.6,8.1-15.6
		c0-3-0.9-5.2-2.5-6.1C235.2,177.1,234.6,177,234,177L234,177z"/>
	<path class="st3" d="M261.7,94.1l-8.8-5.1l0,0c-1.3-0.8-3-0.7-4.9,0.4l-34.8,20.1c-4.1,2.4-7.5,8.8-7.5,14.2v93.5c0,3,1,5.1,2.6,6
		l0,0l8.8,5.1l3.2-34.1l6.4-3.7c4.1-2.4,7.5-8.8,7.5-14.2v-37.8L261.7,94.1z"/>
	<path class="st3" d="M207.1,117.2c-0.9,2.1-1.3,4.3-1.4,6.5v93.5c0,3,1,5.1,2.6,6l0,0l8.8,5.1l3.2-34.1l6.4-3.7
		c4.1-2.4,7.5-8.8,7.5-14.2v-37.8l2.6-4.2L207.1,117.2z"/>
	<path class="st2" d="M217.1,229.4c-0.2,0-0.3,0-0.5-0.1l-8.8-5.1l-0.1-0.1c-1.9-1.2-2.9-3.6-2.9-6.8v-93.5c0-5.9,3.5-12.5,8-15.1
		l34.8-20.1c1.7-1.2,3.9-1.3,5.7-0.5c0,0,0.1,0,0.1,0.1l8.8,5.1c0.5,0.3,0.6,0.9,0.4,1.4l0,0l-27.3,44.2v37.5c0,5.9-3.5,12.5-8,15.1
		l-6,3.5l-3.1,33.6C218.1,229,217.7,229.4,217.1,229.4L217.1,229.4z M209,222.5l7.3,4.2l3-32.6c0-0.3,0.2-0.6,0.5-0.8l6.4-3.7
		c3.8-2.2,7-8.2,7-13.4v-37.8c0-0.2,0.1-0.4,0.1-0.5l26.9-43.5l-7.8-4.5c0,0-0.1,0-0.1-0.1c-1.3-0.6-2.7-0.4-3.9,0.4l-34.8,20.1
		c-3.8,2.2-7,8.2-7,13.4v93.5c0,2.5,0.8,4.4,2.1,5.2C208.9,222.4,208.9,222.4,209,222.5L209,222.5z"/>
	<path class="st4" d="M256.8,207.9L222,228c-4.1,2.4-7.5-0.1-7.5-5.6v-93.5c0-5.5,3.3-11.9,7.5-14.2l34.8-20.1
		c4.1-2.4,7.5,0.1,7.5,5.6v93.5C264.3,199.1,261,205.5,256.8,207.9z"/>
	<path class="st1" d="M219.1,229.9c-0.8,0-1.7-0.2-2.4-0.6c-2-1.1-3.1-3.6-3.1-6.9v-93.5c0-5.9,3.5-12.5,8-15.1l34.8-20.1
		c2.1-1.2,4.2-1.4,5.9-0.4c2,1.1,3.1,3.6,3.1,6.9v93.5c0,5.9-3.5,12.5-8,15.1l-34.8,20.1C221.5,229.5,220.3,229.8,219.1,229.9z
		 M259.8,94.6c-0.9,0-1.7,0.3-2.5,0.8l-34.8,20.1c-3.8,2.2-7,8.2-7,13.4v93.5c0,2.5,0.8,4.4,2.1,5.2c1.3,0.6,2.7,0.4,3.9-0.4
		l34.8-20.1c3.8-2.2,7-8.2,7-13.4v-93.5c0-2.5-0.8-4.4-2.1-5.2C260.8,94.7,260.3,94.6,259.8,94.6z"/>
	
		<ellipse transform="matrix(0.3916 -0.9201 0.9201 0.3916 19.6408 303.7031)" class="st3" cx="239.5" cy="137" rx="26.4" ry="14.9"/>
	<path class="st2" d="M232.6,162.9c-1.7,0-3.4-0.4-4.9-1.3c-4.1-2.4-6.4-7.7-6.4-14.8c0-13,7.9-28.1,17.7-33.7
		c4.5-2.6,8.8-2.9,12.2-0.9c4.1,2.4,6.4,7.7,6.4,14.8c0,13-7.9,28.1-17.7,33.7C237.7,162.1,235.2,162.9,232.6,162.9z M246.3,113
		c-2.2,0.1-4.4,0.7-6.3,1.9c-9.2,5.3-16.7,19.7-16.7,32c0,6.3,2,11,5.4,13c2.8,1.6,6.4,1.3,10.2-0.9c9.2-5.3,16.7-19.7,16.7-32
		c0-6.3-2-11-5.4-13C249,113.3,247.6,113,246.3,113L246.3,113z"/>
	<path class="st4" d="M232.8,142.5c-0.6,0-1.2-0.2-1.8-0.5c-1.4-0.8-2.2-2.6-2.2-4.9c0-4.1,2.4-8.6,5.5-10.4c1.3-0.9,2.9-1,4.3-0.3
		c1.4,0.8,2.2,2.6,2.2,4.9c0,4.1-2.4,8.6-5.5,10.4C234.5,142.3,233.6,142.5,232.8,142.5z M236.7,128c-0.5,0-1,0.2-1.5,0.5
		c-2.4,1.4-4.5,5.4-4.5,8.7c0,1.5,0.5,2.7,1.2,3.2c0.8,0.3,1.6,0.2,2.3-0.3c2.4-1.4,4.5-5.4,4.5-8.7c0-1.5-0.5-2.7-1.2-3.2
		C237.3,128.1,237,128,236.7,128z"/>
	
		<ellipse transform="matrix(0.3916 -0.9201 0.9201 0.3916 -32.4382 338.0453)" class="st3" cx="239.4" cy="193.6" rx="13.2" ry="7.5"/>
	<path class="st2" d="M236,207c-0.9,0-1.9-0.2-2.7-0.7c-2.2-1.3-3.5-4.1-3.5-7.8c0-6.6,4.1-14.4,9.1-17.3c2.4-1.4,4.7-1.5,6.6-0.5
		c2.2,1.3,3.5,4.1,3.5,7.8c0,6.6-4.1,14.4-9.1,17.3C238.7,206.6,237.4,207,236,207z M242.8,182c-1,0-2,0.4-2.9,0.9
		c-4.5,2.6-8.1,9.6-8.1,15.6c0,3,0.9,5.2,2.5,6.1c1.3,0.7,2.9,0.6,4.6-0.5c4.5-2.6,8.1-9.6,8.1-15.6c0-3-0.9-5.2-2.5-6.1
		C244,182.2,243.4,182,242.8,182z"/>
	
		<ellipse transform="matrix(0.3916 -0.9201 0.9201 0.3916 -32.5202 336.9343)" class="st4" cx="238.5" cy="193.1" rx="2.9" ry="1.6"/>
	<path class="st2" d="M219.1,229.8c-0.8,0-1.6-0.2-2.3-0.6c0,0-0.1,0-0.1-0.1l-8.8-5.1l-0.1-0.1c-1.9-1.2-2.9-3.6-2.9-6.8v-93.5
		c0-5.9,3.5-12.5,8-15.1l34.8-20.1c1.7-1.2,3.9-1.3,5.7-0.5c0,0,0.1,0,0.1,0.1l8.8,5.1l0.1,0.1c1.9,1.2,2.9,3.6,2.9,6.8v93.5
		c0,5.9-3.5,12.5-8,15.1l-34.8,20.1C221.5,229.5,220.3,229.8,219.1,229.8z M217.5,227.4c0,0,0.1,0,0.1,0.1c1.3,0.6,2.7,0.4,3.9-0.4
		l34.8-20.1c3.8-2.2,7-8.2,7-13.4v-93.5c0-2.5-0.8-4.4-2.1-5.2c0,0-0.1,0-0.1-0.1l-8.6-4.9c0,0-0.1,0-0.1-0.1
		c-1.3-0.6-2.7-0.4-3.9,0.4l-34.8,20.1c-3.8,2.2-7,8.2-7,13.4v93.5c0,2.5,0.8,4.4,2.1,5.2c0,0,0.1,0,0.1,0.1L217.5,227.4z"/>
	<rect class="st0" width="440" height="300"/>
</g>
</svg>
