<?xml version="1.0" encoding="utf-8"?>
<!-- Generator: Adobe Illustrator 24.1.2, SVG Export Plug-In . SVG Version: 6.00 Build 0)  -->
<svg version="1.1" id="Layer_1" xmlns="http://www.w3.org/2000/svg" xmlns:xlink="http://www.w3.org/1999/xlink" x="0px" y="0px"
	 width="128px" height="128px" viewBox="0 0 128 128" style="enable-background:new 0 0 128 128;" xml:space="preserve">
<style type="text/css">
	.st0{fill:#4D9987;}
	.st1{fill:#E9EBDF;}
	.st2{fill:#FFFFFF;}
	.st3{fill:#0E352C;}
	.st4{fill:none;}
</style>
<g>
	<circle class="st0" cx="64" cy="64" r="31"/>
	<ellipse transform="matrix(0.7071 -0.7071 0.7071 0.7071 -23.7936 57.3995)" class="st1" cx="57.4" cy="57.4" rx="26" ry="20.3"/>
	<ellipse transform="matrix(0.7071 -0.7071 0.7071 0.7071 -20.4557 49.2994)" class="st2" cx="49.3" cy="49.3" rx="9.8" ry="6.6"/>
	<path class="st3" d="M64,96c-17.7,0-32-14.3-32-32s14.3-32,32-32c8.5,0,16.6,3.4,22.6,9.4l0,0c12.5,12.5,12.5,32.8,0,45.3
		C80.6,92.6,72.5,96,64,96z M64,34c-16.6,0-30,13.4-30,30s13.4,30,30,30s30-13.4,30-30c0-8-3.2-15.6-8.8-21.2l0,0
		C79.6,37.1,72,34,64,34z"/>
	<rect x="1" y="1" class="st4" width="126" height="126"/>
	<g>
		<rect class="st4" width="128" height="128"/>
	</g>
</g>
</svg>
