<?xml version="1.0" encoding="utf-8"?>
<!-- Generator: Adobe Illustrator 24.1.2, SVG Export Plug-In . SVG Version: 6.00 Build 0)  -->
<svg version="1.1" id="Layer_1" xmlns="http://www.w3.org/2000/svg" xmlns:xlink="http://www.w3.org/1999/xlink" x="0px" y="0px"
	 width="440px" height="300px" viewBox="0 0 440 300" style="enable-background:new 0 0 440 300;" xml:space="preserve">
<style type="text/css">
	.st0{fill:#E9EBDF;}
	.st1{fill:#4D9987;}
	.st2{fill:#FFFFFF;}
	.st3{fill:none;}
	.st4{fill:#0E352C;}
</style>
<g>
	<polygon class="st0" points="232.6,223.8 291,190.1 291,177 232.6,210.7 	"/>
	<path class="st1" d="M232.6,224.8c-0.6,0-1-0.4-1-1v-13.1c0-0.4,0.2-0.7,0.5-0.9l58.4-33.7c0.5-0.3,1.1-0.1,1.4,0.4
		c0.1,0.2,0.1,0.3,0.1,0.5v13.1c0,0.4-0.2,0.7-0.5,0.9l-58.4,33.7C233,224.8,232.8,224.8,232.6,224.8z M233.6,211.3v10.8l56.4-32.6
		v-10.8L233.6,211.3z"/>
	<polygon class="st2" points="232.6,210.7 215.9,201 274.3,167.3 291,177 	"/>
	<path class="st1" d="M232.6,211.7c-0.2,0-0.3,0-0.5-0.1l-16.7-9.7c-0.5-0.3-0.6-0.9-0.4-1.4c0.1-0.2,0.2-0.3,0.4-0.4l58.4-33.7
		c0.3-0.2,0.7-0.2,1,0l16.7,9.7c0.5,0.3,0.6,0.9,0.4,1.4c-0.1,0.2-0.2,0.3-0.4,0.4l-58.4,33.7C233,211.7,232.8,211.7,232.6,211.7z
		 M217.9,201l14.7,8.5L289,177l-14.7-8.5L217.9,201z"/>
	<polygon class="st0" points="215.9,201 274.3,167.3 274.3,154.2 215.9,187.9 	"/>
	<path class="st1" d="M215.9,202c-0.6,0-1-0.4-1-1v-13.1c0-0.4,0.2-0.7,0.5-0.9l58.4-33.7c0.5-0.3,1.1-0.1,1.4,0.4
		c0.1,0.2,0.1,0.3,0.1,0.5v13.1c0,0.4-0.2,0.7-0.5,0.9l-58.4,33.7C216.2,202,216.1,202,215.9,202z M216.9,188.5v10.8l56.4-32.6
		v-10.8L216.9,188.5z"/>
	<polygon class="st2" points="215.9,187.9 199.2,178.3 257.6,144.5 274.3,154.2 	"/>
	<path class="st1" d="M215.9,188.9c-0.2,0-0.3,0-0.5-0.1l-16.7-9.7c-0.5-0.3-0.6-0.9-0.4-1.4c0.1-0.2,0.2-0.3,0.4-0.4l58.4-33.7
		c0.3-0.2,0.7-0.2,1,0l16.7,9.7c0.5,0.3,0.6,0.9,0.4,1.4c-0.1,0.2-0.2,0.3-0.4,0.4l-58.4,33.7C216.2,188.9,216.1,188.9,215.9,188.9z
		 M201.2,178.3l14.7,8.5l56.4-32.6l-14.7-8.5L201.2,178.3z"/>
	<polygon class="st0" points="199.2,178.3 257.6,144.5 257.6,131.4 199.2,165.1 	"/>
	<path class="st1" d="M199.2,179.3c-0.6,0-1-0.4-1-1v-13.1c0-0.4,0.2-0.7,0.5-0.9l58.4-33.7c0.5-0.3,1.1-0.1,1.4,0.4
		c0.1,0.2,0.1,0.3,0.1,0.5v13.1c0,0.4-0.2,0.7-0.5,0.9l-58.4,33.7C199.5,179.2,199.3,179.3,199.2,179.3z M200.2,165.7v10.8
		l56.4-32.6v-10.8L200.2,165.7z"/>
	<polygon class="st2" points="199.2,165.1 182.4,155.5 240.8,121.7 257.6,131.4 	"/>
	<path class="st1" d="M199.2,166.1c-0.2,0-0.3,0-0.5-0.1l-16.7-9.7c-0.5-0.3-0.6-0.9-0.4-1.4c0.1-0.2,0.2-0.3,0.4-0.4l58.4-33.7
		c0.3-0.2,0.7-0.2,1,0l16.7,9.7c0.5,0.3,0.6,0.9,0.4,1.4c-0.1,0.2-0.2,0.3-0.4,0.4L199.7,166C199.5,166.1,199.3,166.1,199.2,166.1z
		 M184.4,155.5l14.7,8.5l56.4-32.6l-14.7-8.5L184.4,155.5z"/>
	<polygon class="st0" points="182.4,155.5 240.8,121.7 240.8,108.6 182.4,142.3 	"/>
	<path class="st1" d="M182.4,156.5c-0.6,0-1-0.4-1-1v-13.1c0-0.4,0.2-0.7,0.5-0.9l58.4-33.7c0.5-0.3,1.1-0.1,1.4,0.4
		c0.1,0.2,0.1,0.3,0.1,0.5v13.1c0,0.4-0.2,0.7-0.5,0.9l-58.4,33.7C182.8,156.4,182.6,156.5,182.4,156.5z M183.4,142.9v10.8
		l56.4-32.6v-10.8L183.4,142.9z"/>
	<polygon class="st2" points="182.4,142.3 165.7,132.7 224.1,99 240.8,108.6 	"/>
	<path class="st1" d="M182.4,143.3c-0.2,0-0.3,0-0.5-0.1l-16.7-9.7c-0.5-0.3-0.6-0.9-0.4-1.4c0.1-0.2,0.2-0.3,0.4-0.4L223.6,98
		c0.3-0.2,0.7-0.2,1,0l16.7,9.7c0.5,0.3,0.6,0.9,0.4,1.4c-0.1,0.2-0.2,0.3-0.4,0.4l-58.4,33.7C182.8,143.3,182.6,143.3,182.4,143.3z
		 M167.7,132.7l14.7,8.5l56.4-32.6l-14.7-8.5L167.7,132.7z"/>
	<polygon class="st0" points="165.7,132.7 224.1,99 224.1,85.8 165.7,119.5 	"/>
	<path class="st1" d="M165.7,133.7c-0.6,0-1-0.4-1-1v-13.1c0-0.4,0.2-0.7,0.5-0.9L223.6,85c0.5-0.3,1.1-0.1,1.4,0.4
		c0.1,0.2,0.1,0.3,0.1,0.5V99c0,0.4-0.2,0.7-0.5,0.9l-58.4,33.7C166.1,133.6,165.9,133.7,165.7,133.7z M166.7,120.1v10.8l56.4-32.6
		V87.5L166.7,120.1z"/>
	<polygon class="st2" points="165.7,119.5 149,109.9 207.4,76.2 224.1,85.8 	"/>
	<path class="st1" d="M165.7,120.5c-0.2,0-0.3,0-0.5-0.1l-16.7-9.7c-0.5-0.3-0.6-0.9-0.4-1.4c0.1-0.2,0.2-0.3,0.4-0.4l58.4-33.7
		c0.3-0.2,0.7-0.2,1,0l16.7,9.7c0.5,0.3,0.6,0.9,0.4,1.4c-0.1,0.2-0.2,0.3-0.4,0.4l-58.4,33.7C166.1,120.5,165.9,120.5,165.7,120.5z
		 M151,109.9l14.7,8.5l56.4-32.6l-14.7-8.5L151,109.9z"/>
	<polygon class="st0" points="215.9,201 215.9,201 215.9,187.9 199.2,178.3 199.2,165.1 182.4,155.5 182.4,155.5 182.4,142.3 
		165.7,132.7 165.7,132.7 165.7,119.5 149,109.9 149,123 149,149.3 149,175.6 182.4,194.9 232.6,223.8 232.6,210.7 	"/>
	<path class="st1" d="M232.6,224.8c-0.2,0-0.3,0-0.5-0.1l-83.6-48.3c-0.3-0.2-0.5-0.5-0.5-0.9v-65.7c0-0.6,0.4-1,1-1
		c0.2,0,0.4,0,0.5,0.1l16.7,9.7c0.3,0.2,0.5,0.5,0.5,0.9v12.6l16.2,9.4c0.3,0.2,0.5,0.5,0.5,0.9V155l16.2,9.4
		c0.3,0.2,0.5,0.5,0.5,0.9v12.6l16.2,9.4c0.3,0.2,0.5,0.5,0.5,0.9v12.6l16.2,9.4c0.3,0.2,0.5,0.5,0.5,0.9v13.1
		C233.6,224.4,233.2,224.8,232.6,224.8L232.6,224.8z M150,175l81.6,47.1v-10.8l-16.2-9.4c-0.3-0.2-0.5-0.5-0.5-0.9v-12.6l-16.2-9.4
		c-0.3-0.2-0.5-0.5-0.5-0.9v-12.6l-16.2-9.4c-0.3-0.2-0.5-0.5-0.5-0.9v-12.6l-16.2-9.4c-0.3-0.2-0.5-0.5-0.5-0.9v-12.6l-14.7-8.5
		V175H150z"/>
	<rect y="50" class="st3" width="440" height="200"/>
	<path class="st4" d="M232.6,224.8c-0.2,0-0.3,0-0.5-0.1l-83.6-48.3c-0.3-0.2-0.5-0.5-0.5-0.9v-65.7c0-0.4,0.2-0.7,0.5-0.9
		l58.4-33.7c0.3-0.2,0.7-0.2,1,0l16.7,9.7c0.3,0.2,0.5,0.5,0.5,0.9v12.6l16.2,9.4c0.3,0.2,0.5,0.5,0.5,0.9v12.6l16.2,9.4
		c0.3,0.2,0.5,0.5,0.5,0.9V144l16.2,9.4c0.3,0.2,0.5,0.5,0.5,0.9v12.6l16.2,9.4c0.3,0.2,0.5,0.5,0.5,0.9v13.1c0,0.4-0.2,0.7-0.5,0.9
		L233,224.9C233,224.8,232.8,224.8,232.6,224.8z M150,175l82.6,47.7l57.4-33.1v-12l-16.2-9.4c-0.3-0.2-0.5-0.5-0.5-0.9v-12.6
		l-16.2-9.4c-0.3-0.2-0.5-0.5-0.5-0.9V132l-16.2-9.4c-0.3-0.2-0.5-0.5-0.5-0.9v-12.6l-16.2-9.4c-0.3-0.2-0.5-0.5-0.5-0.9V86.4
		l-15.7-9.1L150,110.4V175z"/>
	<rect class="st3" width="440" height="300"/>
</g>
</svg>
