<?xml version="1.0" encoding="utf-8"?>
<!-- Generator: Adobe Illustrator 24.1.2, SVG Export Plug-In . SVG Version: 6.00 Build 0)  -->
<svg version="1.1" id="Layer_1" xmlns="http://www.w3.org/2000/svg" xmlns:xlink="http://www.w3.org/1999/xlink" x="0px" y="0px"
	 width="128px" height="128px" viewBox="0 0 128 128" style="enable-background:new 0 0 128 128;" xml:space="preserve">
<style type="text/css">
	.st0{fill:#E9EBDF;}
	.st1{fill:#4D9987;}
	.st2{fill:#0E352C;}
	.st3{fill:#FFFFFF;}
	.st4{fill:none;}
</style>
<g>
	<path class="st0" d="M94.7,33l8.7-5.1c1.3-0.8,3.2-0.7,5.2,0.5l-8.7,5.1C97.8,32.3,96,32.2,94.7,33z"/>
	<path class="st1" d="M113.7,45.8l-8.7,5.1c1.3-0.8,2.1-2.4,2.1-4.7c-0.3-5.1-3-9.8-7.3-12.7l8.7-5.1c4.3,2.8,7,7.5,7.3,12.7
		C115.9,43.4,115.1,45,113.7,45.8z"/>
	<ellipse transform="matrix(0.8646 -0.5024 0.5024 0.8646 -7.5594 55.8067)" class="st0" cx="99.8" cy="41.9" rx="6" ry="10.3"/>
	<path class="st0" d="M103.1,52.4c-1.3,0-2.6-0.4-3.8-1.1c-4.6-3-7.5-8-7.8-13.5c0-2.6,0.9-4.6,2.7-5.6s3.9-0.8,6.2,0.5l0,0
		c4.6,3,7.6,8,7.8,13.5c0,2.6-0.9,4.6-2.7,5.6C104.8,52.2,104,52.4,103.1,52.4z M96.6,33.5c-0.5,0-1,0.1-1.4,0.4
		c-1.1,0.6-1.6,2-1.7,3.8c0.3,4.8,2.8,9.2,6.8,11.8c1.6,0.9,3.1,1.1,4.2,0.5s1.6-2,1.7-3.8c-0.3-4.8-2.8-9.2-6.8-11.8
		C98.5,33.9,97.6,33.6,96.6,33.5z"/>
	<path class="st1" d="M98.9,39.7c-0.7-0.5-1.5-0.6-2.3-0.2l-11.5,6.6l0,0c-0.7,0.5-1,1.2-0.9,2.1c0.1,2.2,1.3,4.3,3.2,5.5
		c0.7,0.5,1.6,0.6,2.4,0.2L89.7,54l11.5-6.6c0.7-0.5,1-1.2,0.9-2.1C102,43,100.8,40.9,98.9,39.7z"/>
	<path class="st2" d="M88.9,55.1c-0.7,0-1.3-0.2-1.9-0.6c-2.2-1.4-3.6-3.8-3.7-6.4c-0.1-1.1,0.5-2.2,1.4-2.9l0,0l0,0L92,41
		c-0.3-1.1-0.4-2.2-0.4-3.3c0-2.6,0.9-4.5,2.6-5.5l0,0l8.7-5.1c1.7-1,3.9-0.8,6.2,0.5c4.6,3,7.6,8,7.8,13.5c0,2.6-0.9,4.6-2.6,5.6
		l-8.7,5.1l0,0c0,0-0.1,0.1-0.2,0.1c-1.7,0.9-3.9,0.7-6.1-0.6c-0.5-0.3-0.9-0.6-1.4-0.9l-7.7,4.5c0,0-0.1,0-0.1,0.1
		C89.7,55,89.3,55.1,88.9,55.1z M85.7,47L85.7,47c-0.4,0.3-0.5,0.8-0.5,1.2c0.1,1.9,1.1,3.6,2.7,4.7c0.5,0.3,1,0.4,1.3,0.2l0,0
		c0,0,0.1,0,0.1-0.1l8.2-4.7c0.4-0.2,0.8-0.2,1.2,0.1c0.5,0.4,1,0.8,1.6,1.2c1.7,1,3.3,1.1,4.4,0.4l0,0c0.1-0.1,0.2-0.1,0.3-0.1
		l8.3-4.8c1.1-0.6,1.6-2,1.6-3.8c-0.3-4.8-2.8-9.2-6.8-11.8l0,0c-1.6-1-3.1-1.1-4.2-0.5l-8.7,5l0,0l0,0c-1.1,0.6-1.6,2-1.7,3.8
		c0,1.2,0.2,2.4,0.6,3.5c0.1,0.4,0,0.9-0.5,1.2L85.7,47z"/>
	<path class="st0" d="M99.1,60.4L99,75.6c0,6.4-4.2,12.8-12.6,17.7c-16.9,9.8-44.4,9.8-61.4,0c-8.6-4.9-12.8-11.4-12.8-17.9
		l0.1-15.2c0,6.5,4.3,13,12.8,17.9c17,9.8,44.5,9.8,61.4,0C94.8,73.1,99,66.8,99.1,60.4z"/>
	<path class="st1" d="M86.4,78C69.5,87.8,42,87.8,25,78c-0.1,0-0.1-0.1-0.2-0.1v15.3l0,0c17,9.8,44.5,9.8,61.4,0
		c8.4-4.9,12.6-11.3,12.6-17.7l0.1-15.2C99,66.8,94.8,73.1,86.4,78z"/>
	<path class="st0" d="M86.3,42.5c17,9.8,17.1,25.7,0.2,35.6s-44.4,9.8-61.4,0S8,52.3,24.9,42.5S69.3,32.6,86.3,42.5z"/>
	<path class="st0" d="M55.8,86.3c-11.3,0-22.6-2.5-31.2-7.5c-2.4-1.3-4.6-3-6.6-4.8c-0.4-0.4-0.4-1-0.1-1.4c0.4-0.4,1-0.4,1.4-0.1
		l0,0c1.9,1.7,4,3.3,6.2,4.5c16.7,9.6,43.8,9.6,60.4,0c7.8-4.6,12.2-10.6,12.1-16.9c0-0.5,0.4-1,1-1l0,0c0.6,0,1,0.4,1,1
		c0,7.1-4.6,13.7-13.1,18.6C78.4,83.9,67.1,86.3,55.8,86.3z"/>
	<path class="st2" d="M55.7,101.5c-11.3,0-22.6-2.5-31.2-7.5S11.2,82.4,11.2,75.2L11.3,60c0,0,0,0,0-0.1c0.1-7,4.7-13.6,13.1-18.4
		c17.1-10,45.1-10,62.4,0c8.6,4.9,13.3,11.5,13.3,18.6c0,0.1,0,0.1,0,0.2v0.1L100,75.5c0,7-4.7,13.6-13.1,18.5
		C78.2,99,66.9,101.5,55.7,101.5z M13.3,60.2l-0.1,15.1c0,6.4,4.4,12.4,12.3,17c16.7,9.6,43.8,9.6,60.4,0C93.7,87.8,98,81.8,98,75.5
		l0.1-14.4c0-0.1,0-0.2,0-0.2c0.3-6.6-4.1-12.8-12.3-17.6c-16.7-9.6-43.8-9.6-60.4,0C17.6,47.9,13.3,53.9,13.3,60.2L13.3,60.2z"/>
	<path class="st3" d="M78.5,46.9c12.7,7.4,12.8,19.3,0.1,26.6s-33.2,7.4-46,0s-12.8-19.3-0.2-26.6S65.8,39.6,78.5,46.9z"/>
	<path class="st0" d="M70.6,52.5c-0.6,0-1-0.5-1-1c0-0.4,0.2-0.7,0.5-0.9l3.8-2.2c0.5-0.3,1.1-0.1,1.4,0.4s0.1,1.1-0.4,1.4l-3.8,2.2
		C71,52.5,70.8,52.5,70.6,52.5z"/>
	<path class="st0" d="M82.3,61.2h-1.8c-0.6,0-1-0.4-1-1s0.4-1,1-1h1.8c0.6,0,1,0.4,1,1S82.8,61.2,82.3,61.2L82.3,61.2z"/>
	<path class="st0" d="M55.6,76.7c-0.6,0-1-0.4-1-1v-1.8c0-0.6,0.4-1,1-1s1,0.4,1,1v1.8C56.6,76.3,56.1,76.7,55.6,76.7z"/>
	<path class="st0" d="M74.5,72.2c-0.2,0-0.3,0-0.5-0.1l-3.9-2.3c-0.5-0.3-0.6-0.9-0.4-1.4c0.3-0.5,0.9-0.6,1.4-0.4l0,0l3.9,2.3
		c0.5,0.3,0.6,0.9,0.4,1.4C75.2,72,74.9,72.2,74.5,72.2z"/>
	<path class="st0" d="M30.7,61.2h-1.8c-0.6,0-1-0.4-1-1s0.4-1,1-1h1.8c0.6,0,1,0.4,1,1S31.2,61.2,30.7,61.2z"/>
	<path class="st0" d="M36.8,72.2c-0.6,0-1-0.4-1-1c0-0.4,0.2-0.7,0.5-0.9l4.2-2.4c0.5-0.3,1.1-0.1,1.3,0.4s0.1,1-0.3,1.3L37.3,72
		C37.1,72.1,36.9,72.2,36.8,72.2z"/>
	<path class="st0" d="M55.6,47.6c-0.6,0-1-0.4-1-1v-1.8c0-0.6,0.4-1,1-1s1,0.4,1,1v1.8C56.6,47.2,56.1,47.6,55.6,47.6z"/>
	<path class="st0" d="M41,52.8c-0.2,0-0.3,0-0.5-0.1l-4.3-2.5c-0.5-0.3-0.6-0.9-0.4-1.4c0.3-0.5,0.9-0.6,1.4-0.4l4.3,2.5
		c0.5,0.3,0.6,0.9,0.4,1.4C41.6,52.6,41.3,52.8,41,52.8z"/>
	<path class="st1" d="M56.9,59.5c0.4,0.1,0.7,0.6,0.5,1c-0.1,0.2-0.3,0.4-0.5,0.5c-0.8,0.4-1.8,0.4-2.7,0c-0.4-0.1-0.7-0.6-0.5-1
		c0.1-0.2,0.3-0.4,0.5-0.5C55.1,59,56.1,59,56.9,59.5z"/>
	<ellipse class="st3" cx="55.7" cy="60.2" rx="12.8" ry="7.4"/>
	<path class="st0" d="M55.7,68.6c-3.3,0.1-6.6-0.7-9.6-2.3l0,0c-2.7-1.6-4.3-3.8-4.3-6.1s1.5-4.5,4.3-6.1c5.3-3,13.9-3,19.1,0
		c2.7,1.6,4.3,3.8,4.3,6.1s-1.5,4.5-4.3,6.1C62.3,67.9,59,68.7,55.7,68.6z M47.1,64.6c4.7,2.7,12.4,2.7,17.1,0
		c2.1-1.2,3.3-2.8,3.3-4.4s-1.2-3.2-3.3-4.4c-4.7-2.7-12.4-2.7-17.1,0c-2.1,1.2-3.3,2.8-3.3,4.4S45,63.4,47.1,64.6z"/>
	<path class="st0" d="M59.8,63.6c-0.2,0-0.3,0-0.5-0.1L51,58.7c-0.5-0.3-0.6-0.9-0.4-1.4c0.3-0.5,0.9-0.6,1.4-0.4l0,0l8.2,4.8
		c0.5,0.3,0.6,0.9,0.4,1.4C60.5,63.4,60.1,63.6,59.8,63.6z"/>
	<path class="st0" d="M51.5,63.6c-0.6,0-1-0.4-1-1c0-0.4,0.2-0.7,0.5-0.9l8.2-4.8c0.5-0.3,1.1-0.1,1.4,0.4c0.3,0.5,0.1,1.1-0.4,1.4
		l0,0L52,63.5C51.9,63.6,51.7,63.6,51.5,63.6z"/>
	<rect x="1" y="1" class="st4" width="126" height="126"/>
	<g>
		<rect class="st4" width="128" height="128"/>
	</g>
</g>
</svg>
