<?xml version="1.0" encoding="utf-8"?>
<!-- Generator: Adobe Illustrator 24.1.2, SVG Export Plug-In . SVG Version: 6.00 Build 0)  -->
<svg version="1.1" id="Layer_1" xmlns="http://www.w3.org/2000/svg" xmlns:xlink="http://www.w3.org/1999/xlink" x="0px" y="0px"
	 width="440px" height="300px" viewBox="0 0 440 300" style="enable-background:new 0 0 440 300;" xml:space="preserve">
<style type="text/css">
	.st0{fill:#E9EBDF;}
	.st1{fill:#4D9987;}
	.st2{fill:#FFFFFF;}
	.st3{fill:#0E352C;}
	.st4{fill:none;}
</style>
<g>
	<path class="st0" d="M134.8,135.9l60.1-34.7c3.7-1.9,8-1.9,11.7,0l94.2,54.4l14.2,1v9.2c0,1.2-0.8,2.4-2.4,3.4l-67.5,38.9
		c-3.7,1.9-8,1.9-11.7,0l-106-61.2c-1.6-0.9-2.4-2.1-2.4-3.4v-9.2L134.8,135.9z"/>
	<path class="st1" d="M239.8,120.3l61,35.2l14.2,1v9.2c0,1.2-0.8,2.4-2.4,3.4L245.1,208c-1.7,0.9-3.5,1.3-5.4,1.4L239.8,120.3z"/>
	<path class="st1" d="M239.3,210.5c-2.2,0-4.4-0.5-6.3-1.5l-106.1-61.2c-1.9-1.1-2.9-2.6-2.9-4.2v-9.2c0-0.6,0.4-1,1-1
		c0.1,0,0.1,0,0.2,0l9.4,1.6l59.8-34.5c4-2.1,8.7-2.1,12.7,0l94,54.3l14,1c0.5,0,0.9,0.5,0.9,1v9.2c0,1.6-1,3.1-2.9,4.2l-67.5,38.9
		C243.7,210,241.5,210.5,239.3,210.5z M126,135.4v8c0.2,1.1,0.9,2.1,1.9,2.5l106,61.2c3.4,1.7,7.3,1.7,10.7,0l67.5-38.9
		c1-0.4,1.8-1.4,1.9-2.5v-8.3l-13.3-0.9c-0.2,0-0.3-0.1-0.4-0.1L206,102c-3.4-1.7-7.3-1.7-10.7,0l-60.1,34.7
		c-0.2,0.1-0.4,0.2-0.7,0.1L126,135.4z"/>
	<path class="st2" d="M312.6,153.2L206.6,92c-3.7-1.9-8-1.9-11.7,0l-67.5,38.9c-3.2,1.9-3.2,4.9,0,6.7l106,61.2
		c3.7,1.9,8,1.9,11.7,0l67.5-38.9C315.8,158,315.8,155,312.6,153.2z"/>
	<path class="st0" d="M220,191.1l13.5,7.8c3.7,1.9,8,1.9,11.7,0l67.5-38.9c3.2-1.9,3.2-4.9,0-6.7L220,99.7V191.1z"/>
	<ellipse class="st1" cx="273.4" cy="176.3" rx="2.4" ry="1.4"/>
	<path class="st2" d="M239.3,201.2c-2.2,0-4.4-0.5-6.3-1.5l-106.1-61.2c-1.9-1.1-2.9-2.6-2.9-4.2s1-3.1,2.9-4.2l67.5-38.9
		c4-2,8.7-2,12.7,0l106,61.2c1.9,1.1,2.9,2.6,2.9,4.2c0,1.6-1,3.1-2.9,4.2l-67.5,38.9C243.7,200.8,241.5,201.3,239.3,201.2z
		 M200.7,91.5c-1.9,0-3.7,0.4-5.3,1.3l-67.5,39c-1,0.4-1.8,1.4-1.9,2.5c0.2,1.1,0.9,2.1,1.9,2.5l0,0L234,198c3.4,1.7,7.3,1.7,10.7,0
		l67.5-38.9c1.4-0.4,2.2-1.8,1.8-3.2c-0.2-0.9-0.9-1.6-1.8-1.8L206,92.8C204.4,91.9,202.6,91.5,200.7,91.5L200.7,91.5z"/>
	<path class="st3" d="M239.3,210.4c-2.2,0-4.4-0.5-6.3-1.5l-106-61.2c-1.9-1.1-2.9-2.6-2.9-4.2v-9.2c0-1.6,1-3.1,2.9-4.2l67.5-38.9
		c4-2,8.7-2,12.7,0l106,61.2c0.2,0.1,0.4,0.3,0.6,0.4c0.2,0.1,0.4,0.3,0.6,0.4l0,0c1,0.8,1.7,2.1,1.7,3.4v9.2c0,1.6-1,3.1-2.9,4.2
		l-67.5,38.9c-0.4,0.3-0.9,0.5-1.4,0.6c-0.3,0.1-0.6,0.2-0.9,0.3l-0.2,0.1c-0.1,0-0.2,0.1-0.3,0.1c-0.5,0.1-1,0.2-1.4,0.3
		c-0.5,0.1-1.1,0.1-1.6,0.1C239.6,210.4,239.4,210.4,239.3,210.4z M200.7,91.6c-1.9,0-3.7,0.4-5.3,1.3l-67.5,38.9
		c-1,0.4-1.8,1.4-1.9,2.5v9.2c0.2,1.1,0.9,2.1,1.9,2.5l106,61.2c1.8,0.9,3.8,1.3,5.8,1.2c0.4,0,0.9-0.1,1.3-0.1
		c0.4-0.1,0.9-0.1,1.3-0.2c0.1,0,0.1,0,0.1,0l0.2-0.1c0.4-0.1,0.6-0.2,0.9-0.3c0.4-0.1,0.7-0.3,1.1-0.5l67.5-38.9
		c1-0.4,1.8-1.4,1.9-2.5v-9.2c-0.1-0.7-0.4-1.4-1-1.9l0,0c-0.1-0.1-0.3-0.2-0.4-0.3c-0.2-0.1-0.3-0.2-0.5-0.3L206,92.8
		C204.4,91.9,202.6,91.5,200.7,91.6z"/>
	<rect y="50" class="st4" width="440" height="200"/>
	<rect class="st4" width="440" height="300"/>
</g>
</svg>
