<?xml version="1.0" encoding="utf-8"?>
<!-- Generator: Adobe Illustrator 24.1.2, SVG Export Plug-In . SVG Version: 6.00 Build 0)  -->
<svg version="1.1" id="Layer_1" xmlns="http://www.w3.org/2000/svg" xmlns:xlink="http://www.w3.org/1999/xlink" x="0px" y="0px"
	 width="128px" height="128px" viewBox="0 0 128 128" style="enable-background:new 0 0 128 128;" xml:space="preserve">
<style type="text/css">
	.st0{fill:#FFFFFF;}
	.st1{fill:#4D9987;}
	.st2{fill:#E9EBDF;}
	.st3{fill:#0E352C;}
	.st4{fill:none;}
</style>
<g>
	<polygon class="st0" points="28,82.8 46,45.2 64,103.6 	"/>
	<path class="st1" d="M64,104.6c-0.2,0-0.3,0-0.5-0.1l-36-20.8c-0.5-0.3-0.6-0.8-0.4-1.3l18-37.6c0.2-0.5,0.8-0.7,1.3-0.5
		c0.3,0.1,0.4,0.3,0.5,0.6l18,58.4c0.2,0.5-0.1,1.1-0.7,1.3C64.2,104.6,64.1,104.6,64,104.6L64,104.6z M29.3,82.4l33,19L45.8,47.9
		L29.3,82.4z"/>
	<polygon class="st2" points="100,82.8 64,103.6 55,74.4 46,45.2 82,24.4 	"/>
	<path class="st1" d="M64,104.6c-0.4,0-0.8-0.3-1-0.7L45,45.5c-0.1-0.4,0-0.9,0.5-1.2l36-20.8c0.5-0.3,1.1-0.1,1.4,0.4
		c0,0.1,0.1,0.1,0.1,0.2l18,58.4c0.1,0.4-0.1,0.9-0.5,1.2l-36,20.8C64.3,104.5,64.2,104.6,64,104.6z M47.2,45.7l17.4,56.4l34.2-19.8
		L81.4,25.9L47.2,45.7z"/>
	<path class="st3" d="M64,104.6c-0.2,0-0.3,0-0.5-0.1l-36-20.8c-0.5-0.3-0.6-0.8-0.4-1.3l18-37.6c0.1-0.2,0.2-0.3,0.4-0.4l36-20.8
		c0.5-0.3,1.1-0.1,1.4,0.4c0,0.1,0.1,0.1,0.1,0.2l18,58.4c0.1,0.4-0.1,0.9-0.5,1.2l-36,20.8C64.3,104.5,64.2,104.6,64,104.6z
		 M29.3,82.4l34.7,20l34.8-20.1L81.4,25.9l-34.6,20L29.3,82.4z"/>
	<rect x="1" y="1" class="st4" width="126" height="126"/>
	<g>
		<rect class="st4" width="128" height="128"/>
	</g>
</g>
</svg>
