<?xml version="1.0" encoding="utf-8"?>
<!-- Generator: Adobe Illustrator 24.1.2, SVG Export Plug-In . SVG Version: 6.00 Build 0)  -->
<svg version="1.1" id="Layer_1" xmlns="http://www.w3.org/2000/svg" xmlns:xlink="http://www.w3.org/1999/xlink" x="0px" y="0px"
	 width="128px" height="128px" viewBox="0 0 128 128" style="enable-background:new 0 0 128 128;" xml:space="preserve">
<style type="text/css">
	.st0{fill:#FFFFFF;}
	.st1{fill:#4D9987;}
	.st2{fill:#E9EBDF;}
	.st3{fill:#0E352C;}
	.st4{fill:none;}
</style>
<g>
	<polygon class="st0" points="100,34 64,70 28,34 	"/>
	<path class="st1" d="M64,71c-0.3,0-0.5-0.1-0.7-0.3l-36-36c-0.4-0.4-0.4-1,0-1.4c0.2-0.2,0.4-0.3,0.7-0.3h72c0.6,0,1,0.4,1,1
		c0,0.3-0.1,0.5-0.3,0.7l-36,36C64.5,70.9,64.3,71,64,71z M30.4,35L64,68.6L97.6,35H30.4z"/>
	<polygon class="st1" points="100,34 100,58 64,94 64,70 	"/>
	<path class="st1" d="M64,95c-0.1,0-0.3,0-0.4-0.1C63.2,94.8,63,94.4,63,94V70c0-0.3,0.1-0.5,0.3-0.7l36-36c0.4-0.4,1-0.4,1.4,0
		c0.2,0.2,0.3,0.4,0.3,0.7v24c0,0.3-0.1,0.5-0.3,0.7l-36,36C64.5,94.9,64.3,95,64,95z M65,70.4v21.2l34-34V36.4L65,70.4z"/>
	<polygon class="st2" points="28,34 28,58 64,94 64,70 	"/>
	<path class="st1" d="M64,95c-0.3,0-0.5-0.1-0.7-0.3l-36-36C27.1,58.5,27,58.3,27,58V34c0-0.6,0.4-1,1-1c0.3,0,0.5,0.1,0.7,0.3
		l36,36c0.2,0.2,0.3,0.4,0.3,0.7v24c0,0.4-0.2,0.8-0.6,0.9C64.3,95,64.1,95,64,95z M29,57.6l34,34V70.4l-34-34V57.6z"/>
	<path class="st3" d="M64,95c-0.3,0-0.5-0.1-0.7-0.3l-36-36C27.1,58.5,27,58.3,27,58V34c0-0.6,0.4-1,1-1h72c0.6,0,1,0.4,1,1v24
		c0,0.3-0.1,0.5-0.3,0.7l-36,36C64.5,94.9,64.3,95,64,95z M29,57.6l35,35l35-35V35H29V57.6z"/>
	<rect x="1" y="1" class="st4" width="126" height="126"/>
	<g>
		<rect class="st4" width="128" height="128"/>
	</g>
</g>
</svg>
