<?xml version="1.0" encoding="utf-8"?>
<!-- Generator: Adobe Illustrator 24.1.2, SVG Export Plug-In . SVG Version: 6.00 Build 0)  -->
<svg version="1.1" id="Layer_1" xmlns="http://www.w3.org/2000/svg" xmlns:xlink="http://www.w3.org/1999/xlink" x="0px" y="0px"
	 width="128px" height="128px" viewBox="0 0 128 128" style="enable-background:new 0 0 128 128;" xml:space="preserve">
<style type="text/css">
	.st0{fill:#FFFFFF;}
	.st1{fill:#4D9987;}
	.st2{fill:#E9EBDF;}
	.st3{fill:#0E352C;}
	.st4{fill:none;}
</style>
<g>
	<polygon class="st0" points="100,61.7 64,97.7 28,61.7 	"/>
	<path class="st1" d="M64,98.7c-0.3,0-0.5-0.1-0.7-0.3l-36-36c-0.4-0.4-0.4-1,0-1.4c0.2-0.2,0.4-0.3,0.7-0.3h72c0.6,0,1,0.4,1,1
		c0,0.3-0.1,0.5-0.3,0.7l-36,36C64.5,98.5,64.3,98.7,64,98.7z M30.4,62.7L64,96.2l33.6-33.6H30.4V62.7z"/>
	<polygon class="st1" points="100,61.7 100,73.7 64,109.7 64,97.7 	"/>
	<path class="st1" d="M64,110.7c-0.1,0-0.3,0-0.4-0.1c-0.4-0.2-0.6-0.5-0.6-0.9v-12c0-0.3,0.1-0.5,0.3-0.7l36-36
		c0.4-0.4,1-0.4,1.4,0c0.2,0.2,0.3,0.4,0.3,0.7v12c0,0.3-0.1,0.5-0.3,0.7l-36,36C64.5,110.5,64.3,110.6,64,110.7z M65,98.1v9.2
		l34-34v-9.2L65,98.1z"/>
	<polygon class="st2" points="28,61.7 28,73.7 64,109.7 64,97.7 	"/>
	<path class="st1" d="M64,110.7c-0.3,0-0.5-0.1-0.7-0.3l-36-36C27.1,74.2,27,74,27,73.7v-12c0-0.6,0.4-1,1-1c0.3,0,0.5,0.1,0.7,0.3
		l36,36c0.2,0.2,0.3,0.4,0.3,0.7v12c0,0.4-0.2,0.8-0.6,0.9C64.3,110.6,64.1,110.7,64,110.7z M29,73.2l34,34V98L29,64V73.2z"/>
	<path class="st3" d="M64,110.7c-0.3,0-0.5-0.1-0.7-0.3l-36-36C27.1,74.2,27,74,27,73.7v-12c0-0.6,0.4-1,1-1h72c0.6,0,1,0.4,1,1v12
		c0,0.3-0.1,0.5-0.3,0.7l-36,36C64.5,110.5,64.3,110.7,64,110.7z M29,73.2l35,35l35-35V62.7H29V73.2z"/>
	<path class="st3" d="M100,31.4c-0.3,0-0.5-0.1-0.7-0.3c-0.1-0.1-0.2-0.2-0.2-0.3C99,30.6,99,30.5,99,30.4c0-0.3,0.1-0.5,0.3-0.7
		c0,0,0.1-0.1,0.2-0.1s0.1-0.1,0.2-0.1s0.1,0,0.2-0.1c0.3-0.1,0.7,0,0.9,0.3c0.2,0.2,0.3,0.4,0.3,0.7c0,0.1,0,0.3-0.1,0.4
		c0,0.1-0.1,0.2-0.2,0.3c-0.1,0.1-0.2,0.2-0.3,0.2C100.3,31.3,100.1,31.4,100,31.4z"/>
	<path class="st3" d="M99,55.4c0-0.6,0.4-1,1-1l0,0c0.6,0,1,0.4,1,1l0,0c0,0.6-0.4,1-1,1l0,0C99.4,56.4,99,55.9,99,55.4z M99,49.1
		c0-0.6,0.4-1,1-1l0,0c0.6,0,1,0.4,1,1l0,0c0,0.6-0.4,1-1,1l0,0C99.4,50.1,99,49.7,99,49.1z M99,42.9c0-0.6,0.4-1,1-1l0,0
		c0.6,0,1,0.4,1,1l0,0c0,0.6-0.4,1-1,1l0,0C99.4,43.9,99,43.4,99,42.9z M99,36.6c0-0.6,0.4-1,1-1l0,0c0.6,0,1,0.4,1,1l0,0
		c0,0.6-0.4,1-1,1l0,0C99.4,37.6,99,37.2,99,36.6z"/>
	<path class="st3" d="M100,62.6c-0.3,0-0.5-0.1-0.7-0.3S99,61.9,99,61.6c0-0.1,0-0.1,0-0.2c0-0.1,0-0.1,0.1-0.2
		c0-0.1,0.1-0.1,0.1-0.2c0-0.1,0.1-0.1,0.1-0.2s0.1-0.1,0.2-0.1s0.1-0.1,0.2-0.1s0.1,0,0.2-0.1c0.2,0,0.4,0,0.6,0.1
		c0.1,0.1,0.2,0.1,0.3,0.2c0,0,0.1,0.1,0.1,0.2c0,0.1,0.1,0.1,0.1,0.2c0,0.1,0.1,0.1,0.1,0.2c0,0.1,0,0.1,0,0.2c0,0.1,0,0.3-0.1,0.4
		c0,0.1-0.1,0.2-0.2,0.3C100.5,62.5,100.3,62.6,100,62.6z"/>
	<polygon class="st0" points="100,18.4 64,54.3 28,18.4 	"/>
	<path class="st1" d="M64,55.3c-0.3,0-0.5-0.1-0.7-0.3l-36-36c-0.4-0.4-0.4-1,0-1.4c0.2-0.2,0.4-0.3,0.7-0.3h72c0.6,0,1,0.4,1,1
		c0,0.3-0.1,0.5-0.3,0.7l-36,36C64.5,55.2,64.3,55.3,64,55.3z M30.4,19.3L64,52.9l33.6-33.6L30.4,19.3z"/>
	<polygon class="st1" points="100,18.4 100,30.4 64,66.3 64,54.3 	"/>
	<path class="st1" d="M64,67.3c-0.1,0-0.3,0-0.4-0.1C63.2,67,63,66.7,63,66.3v-12c0-0.3,0.1-0.5,0.3-0.7l36-36c0.4-0.4,1-0.4,1.4,0
		c0.2,0.2,0.3,0.4,0.3,0.7v12c0,0.3-0.1,0.5-0.3,0.7l-36,36C64.5,67.2,64.3,67.3,64,67.3z M65,54.8V64l34-34v-9.2L65,54.8z"/>
	<polygon class="st2" points="28,18.4 28,30.4 64,66.3 64,54.3 	"/>
	<path class="st1" d="M64,67.3c-0.3,0-0.5-0.1-0.7-0.3l-36-36c-0.2-0.2-0.3-0.4-0.3-0.7v-12c0-0.6,0.4-1,1-1c0.3,0,0.5,0.1,0.7,0.3
		l36,36c0.2,0.2,0.3,0.4,0.3,0.7v12c0,0.4-0.2,0.8-0.6,0.9C64.3,67.3,64.1,67.4,64,67.3z M29,29.9l34,34v-9.2l-34-34V29.9z"/>
	<path class="st3" d="M64,67.3c-0.3,0-0.5-0.1-0.7-0.3l-36-36c-0.2-0.2-0.3-0.4-0.3-0.7v-12c0-0.6,0.4-1,1-1h72c0.6,0,1,0.4,1,1v12
		c0,0.3-0.1,0.5-0.3,0.7l-36,36C64.5,67.2,64.3,67.3,64,67.3z M29,29.9l35,35l35-35V19.4H29V29.9z"/>
	<path class="st3" d="M28,31.4c-0.1,0-0.3,0-0.4-0.1c-0.1,0-0.2-0.1-0.3-0.2c-0.1-0.1-0.2-0.2-0.2-0.3c0-0.1-0.1-0.2-0.1-0.4
		c0-0.6,0.4-1,1-1s1,0.4,1,1c0,0.1,0,0.3-0.1,0.4c0,0.1-0.1,0.2-0.2,0.3c-0.1,0.1-0.2,0.2-0.3,0.2C28.3,31.3,28.1,31.4,28,31.4z"/>
	<path class="st3" d="M27,55.4c0-0.6,0.4-1,1-1l0,0c0.6,0,1,0.4,1,1l0,0c0,0.6-0.4,1-1,1l0,0C27.4,56.4,27,55.9,27,55.4z M27,49.1
		c0-0.6,0.4-1,1-1l0,0c0.6,0,1,0.4,1,1l0,0c0,0.6-0.4,1-1,1l0,0C27.4,50.1,27,49.7,27,49.1z M27,42.9c0-0.6,0.4-1,1-1l0,0
		c0.6,0,1,0.4,1,1l0,0c0,0.6-0.4,1-1,1l0,0C27.4,43.9,27,43.4,27,42.9z M27,36.6c0-0.6,0.4-1,1-1l0,0c0.6,0,1,0.4,1,1l0,0
		c0,0.6-0.4,1-1,1l0,0C27.4,37.6,27,37.2,27,36.6z"/>
	<path class="st3" d="M28,62.6c-0.1,0-0.3,0-0.4-0.1c-0.3-0.1-0.4-0.3-0.5-0.5C27,61.9,27,61.8,27,61.6c0-0.1,0-0.1,0-0.2
		c0-0.1,0-0.1,0.1-0.2c0-0.1,0.1-0.1,0.1-0.2c0-0.1,0.1-0.1,0.1-0.2c0.2-0.2,0.6-0.3,0.9-0.3c0.1,0,0.1,0,0.2,0.1
		c0.1,0,0.1,0.1,0.2,0.1l0.1,0.1c0,0,0.1,0.1,0.1,0.2c0,0.1,0.1,0.1,0.1,0.2c0,0.1,0.1,0.1,0.1,0.2c0,0.1,0,0.1,0,0.2
		c0,0.3-0.1,0.5-0.3,0.7C28.5,62.5,28.3,62.6,28,62.6z"/>
	<rect x="1" y="1" class="st4" width="126" height="126"/>
	<g>
		<rect class="st4" width="128" height="128"/>
	</g>
</g>
</svg>
