<?xml version="1.0" encoding="utf-8"?>
<!-- Generator: Adobe Illustrator 24.1.2, SVG Export Plug-In . SVG Version: 6.00 Build 0)  -->
<svg version="1.1" id="Layer_1" xmlns="http://www.w3.org/2000/svg" xmlns:xlink="http://www.w3.org/1999/xlink" x="0px" y="0px"
	 width="128px" height="128px" viewBox="0 0 128 128" style="enable-background:new 0 0 128 128;" xml:space="preserve">
<style type="text/css">
	.st0{fill:#FFFFFF;}
	.st1{fill:#4D9987;}
	.st2{fill:#E9EBDF;}
	.st3{fill:#0E352C;}
	.st4{fill:none;}
</style>
<g>
	<polygon class="st0" points="60.2,64.2 78.2,26.6 96.2,85 	"/>
	<path class="st1" d="M96.2,86c-0.2,0-0.3,0-0.5-0.1l-36-20.8c-0.5-0.3-0.6-0.8-0.4-1.3l18-37.6c0.2-0.4,0.6-0.6,1-0.6
		s0.8,0.3,0.9,0.7l18,58.4c0.2,0.5-0.1,1.1-0.7,1.3C96.4,86,96.3,86,96.2,86L96.2,86z M61.5,63.8l33,19L78,29.3L61.5,63.8z"/>
	<polygon class="st2" points="105.2,79.8 96.2,85 87.2,55.8 78.2,26.6 87.2,21.4 	"/>
	<path class="st1" d="M96.2,86c-0.1,0-0.2,0-0.4-0.1c-0.3-0.1-0.5-0.3-0.6-0.6l-18-58.4c-0.1-0.4,0.1-0.9,0.5-1.2l9-5.2
		c0.5-0.3,1.1-0.1,1.4,0.4c0,0.1,0.1,0.1,0.1,0.2l18,58.4c0.1,0.4-0.1,0.9-0.5,1.2l-9,5.2C96.6,85.9,96.4,86,96.2,86z M79.4,27.1
		l17.4,56.4l7.2-4.2L86.6,22.9L79.4,27.1z"/>
	<path class="st3" d="M96.2,86c-0.2,0-0.3,0-0.5-0.1l-36-20.8c-0.5-0.3-0.6-0.8-0.4-1.3l18-37.6c0.1-0.2,0.2-0.3,0.4-0.4l9-5.2
		c0.5-0.3,1.1-0.1,1.4,0.4c0,0.1,0.1,0.1,0.1,0.2l18,58.4c0.1,0.4-0.1,0.9-0.5,1.2l-9,5.2C96.6,85.9,96.4,86,96.2,86z M61.5,63.8
		l34.7,20l7.8-4.5L86.6,22.9L79,27.3L61.5,63.8z"/>
	<polygon class="st0" points="22.8,85.8 40.8,48.2 58.8,106.6 	"/>
	<path class="st1" d="M58.8,107.6c-0.2,0-0.3,0-0.5-0.1l-36-20.8c-0.5-0.3-0.6-0.8-0.4-1.3l18-37.6c0.2-0.5,0.8-0.7,1.3-0.5
		c0.3,0.1,0.4,0.3,0.5,0.6l18,58.4c0.2,0.5-0.1,1.1-0.7,1.2C59,107.6,58.9,107.6,58.8,107.6L58.8,107.6z M24.1,85.4l33,19L40.6,51
		L24.1,85.4z"/>
	<polygon class="st2" points="67.8,101.4 58.8,106.6 49.8,77.4 40.8,48.2 49.8,43 	"/>
	<path class="st1" d="M58.8,107.6c-0.1,0-0.2,0-0.4-0.1c-0.3-0.1-0.5-0.3-0.6-0.6l-18-58.4c-0.1-0.4,0.1-0.9,0.5-1.2l9-5.2
		c0.5-0.3,1.1-0.1,1.4,0.4c0,0.1,0.1,0.1,0.1,0.2l18,58.4c0.1,0.4-0.1,0.9-0.5,1.2l-9,5.2C59.1,107.6,59,107.6,58.8,107.6z M42,48.7
		l17.4,56.4l7.2-4.2L49.2,44.5L42,48.7z"/>
	<path class="st3" d="M58.8,107.6c-0.2,0-0.3,0-0.5-0.1l-36-20.8c-0.5-0.3-0.6-0.8-0.4-1.3l18-37.6c0.1-0.2,0.2-0.3,0.4-0.4l9-5.2
		c0.5-0.3,1.1-0.1,1.4,0.4c0,0.1,0.1,0.1,0.1,0.2l18,58.4c0.1,0.4-0.1,0.9-0.5,1.2l-9,5.2C59.1,107.6,59,107.6,58.8,107.6z
		 M24.1,85.4l34.7,20l7.8-4.5L49.2,44.5l-7.6,4.4L24.1,85.4z"/>
	<path class="st3" d="M78.2,27.6c-0.1,0-0.3,0-0.4-0.1s-0.2-0.1-0.3-0.2c-0.2-0.2-0.3-0.4-0.3-0.7c0-0.1,0-0.1,0-0.2s0-0.1,0.1-0.2
		c0-0.1,0.1-0.2,0.2-0.3c0.1-0.1,0.2-0.2,0.3-0.2c0.2-0.1,0.4-0.1,0.6-0.1c0.1,0,0.1,0,0.2,0.1c0.1,0,0.1,0,0.2,0.1
		c0.1,0,0.1,0.1,0.2,0.1c0.2,0.2,0.3,0.4,0.3,0.7C79.2,27.1,78.8,27.6,78.2,27.6L78.2,27.6z"/>
	<path class="st3" d="M54.6,40.2c-0.3-0.5-0.1-1.1,0.3-1.3l0,0l0,0c0.5-0.3,1.1-0.1,1.4,0.3l0,0l0,0c0.3,0.5,0.1,1.1-0.4,1.4l0,0
		l0,0c-0.2,0.1-0.3,0.1-0.5,0.1l0,0C55.1,40.7,54.8,40.5,54.6,40.2z M60.3,36.9c-0.3-0.5-0.1-1.1,0.4-1.4l0,0l0,0
		c0.5-0.3,1.1-0.1,1.4,0.4l0,0l0,0c0.3,0.5,0.1,1.1-0.4,1.4l0,0c-0.2,0.1-0.3,0.1-0.5,0.1l0,0C60.8,37.5,60.5,37.3,60.3,36.9z
		 M66,33.7c-0.3-0.5-0.1-1.1,0.4-1.4l0,0l0,0c0.5-0.3,1.1-0.1,1.4,0.4l0,0l0,0c0.3,0.5,0.1,1.1-0.4,1.4l0,0
		c-0.2,0.1-0.3,0.1-0.5,0.1l0,0C66.5,34.2,66.2,34,66,33.7z M71.7,30.4c-0.3-0.5-0.1-1.1,0.4-1.4l0,0c0.5-0.3,1.1-0.1,1.4,0.4l0,0
		l0,0c0.3,0.5,0.1,1.1-0.4,1.4l0,0l0,0c-0.1,0.1-0.3,0.1-0.5,0.1l0,0C72.2,30.9,71.8,30.7,71.7,30.4z"/>
	<path class="st3" d="M49.8,44c-0.1,0-0.3,0-0.4-0.1c-0.2-0.1-0.4-0.3-0.5-0.5c-0.1-0.1-0.1-0.2-0.1-0.4c0-0.1,0-0.3,0.1-0.4
		c0-0.1,0.1-0.2,0.2-0.3c0-0.1,0.1-0.1,0.2-0.1c0,0,0.1-0.1,0.2-0.1c0.2-0.1,0.4-0.1,0.6,0c0.1,0,0.1,0,0.2,0c0.1,0,0.1,0.1,0.2,0.1
		c0.1,0,0.1,0.1,0.2,0.1c0.1,0.1,0.2,0.2,0.2,0.3S51,42.9,51,43c0,0.1,0,0.3-0.1,0.4c-0.1,0.2-0.3,0.4-0.5,0.5
		C50,44,49.9,44,49.8,44z"/>
	<path class="st3" d="M96.2,86c-0.1,0-0.3,0-0.4-0.1s-0.2-0.1-0.3-0.2c-0.1-0.1-0.2-0.2-0.2-0.3c0-0.1-0.1-0.3-0.1-0.4
		c0-0.3,0.1-0.5,0.3-0.7c0.2-0.2,0.6-0.3,0.9-0.3c0.1,0,0.1,0,0.2,0.1s0.1,0.1,0.2,0.1s0.1,0.1,0.2,0.1c0.2,0.2,0.3,0.4,0.3,0.7
		c0,0.1,0,0.3-0.1,0.4c0,0.1-0.1,0.2-0.2,0.3C96.7,85.9,96.5,86,96.2,86z"/>
	<path class="st3" d="M72.6,98.6c-0.3-0.5-0.1-1.1,0.4-1.4l0,0l0,0c0.5-0.3,1.1-0.1,1.4,0.4l0,0c0.3,0.5,0.1,1.1-0.4,1.4l0,0l0,0
		c-0.2,0.1-0.3,0.1-0.5,0.1l0,0C73.1,99.1,72.8,98.9,72.6,98.6z M78.3,95.3c-0.3-0.5-0.1-1.1,0.4-1.4l0,0c0.5-0.3,1.1-0.1,1.4,0.4
		l0,0l0,0c0.3,0.5,0.1,1.1-0.4,1.4l0,0l0,0c-0.2,0.1-0.3,0.1-0.5,0.1l0,0C78.8,95.8,78.5,95.7,78.3,95.3z M84,92.1
		c-0.3-0.5-0.1-1.1,0.4-1.4l0,0l0,0c0.5-0.3,1.1-0.1,1.4,0.4l0,0c0.3,0.5,0.1,1.1-0.4,1.4l0,0c-0.2,0.1-0.3,0.1-0.5,0.1l0,0
		C84.5,92.5,84.2,92.4,84,92.1z M89.7,88.8c-0.3-0.5-0.1-1.1,0.4-1.4l0,0l0,0c0.5-0.3,1.1-0.1,1.4,0.4l0,0c0.3,0.5,0.1,1.1-0.4,1.4
		l0,0l0,0c-0.1,0.1-0.3,0.1-0.5,0.1l0,0C90.2,89.3,89.8,89.1,89.7,88.8z"/>
	<path class="st3" d="M67.8,102.4c-0.1,0-0.3,0-0.4-0.1c-0.1,0-0.2-0.1-0.3-0.2c-0.2-0.2-0.3-0.4-0.3-0.7c0-0.1,0-0.3,0.1-0.4
		s0.1-0.2,0.2-0.3c0.3-0.3,0.7-0.4,1.1-0.2c0.1,0,0.2,0.1,0.3,0.2c0.1,0.1,0.2,0.2,0.2,0.3c0.2,0.4,0.1,0.8-0.2,1.1
		c-0.1,0.1-0.2,0.2-0.3,0.2C68,102.4,67.9,102.4,67.8,102.4z"/>
	<rect x="1" y="1" class="st4" width="126" height="126"/>
	<g>
		<rect class="st4" width="128" height="128"/>
	</g>
</g>
</svg>
