<?xml version="1.0" encoding="utf-8"?>
<!-- Generator: Adobe Illustrator 24.1.2, SVG Export Plug-In . SVG Version: 6.00 Build 0)  -->
<svg version="1.1" id="Layer_1" xmlns="http://www.w3.org/2000/svg" xmlns:xlink="http://www.w3.org/1999/xlink" x="0px" y="0px"
	 width="128px" height="128px" viewBox="0 0 128 128" style="enable-background:new 0 0 128 128;" xml:space="preserve">
<style type="text/css">
	.st0{fill:#4D9987;}
	.st1{fill:#0E352C;}
	.st2{fill:#E9EBDF;}
	.st3{fill:#FFFFFF;}
	.st4{fill:none;}
</style>
<g>
	<path class="st0" d="M75.8,104.8l-3.5-7.4l4.3-2.5l0,0c1.2-0.6,2.5-0.5,3.6,0.3c3,1.8,5.5,6.5,5.5,10.5c0,2.2-0.7,3.8-1.9,4.4l0,0
		l-4.3,2.5L75.8,104.8L75.8,104.8z"/>
	<path class="st1" d="M79.5,113.6c-0.1,0-0.2,0-0.3,0c-0.3-0.1-0.5-0.3-0.6-0.5l-3.7-7.8l0,0l-3.5-7.4c-0.2-0.5,0-1,0.4-1.3l4.3-2.5
		c0,0,0.1,0,0.1-0.1c1.4-0.7,3.1-0.5,4.5,0.4c3.4,1.9,6,6.9,6,11.4c0,2.4-0.8,4.3-2.3,5.2l-0.1,0.1l-4.3,2.5
		C79.9,113.6,79.7,113.6,79.5,113.6z M76.8,104.4l3.2,6.8l3.3-1.9c0,0,0.1,0,0.1-0.1c0.9-0.5,1.4-1.8,1.4-3.6c0-3.7-2.3-8.1-5-9.6
		c-0.8-0.5-1.7-0.7-2.6-0.3c0,0-0.1,0-0.1,0.1l-3.4,2L76.8,104.4L76.8,104.4z"/>
	<path class="st0" d="M21.6,73.4L18.1,66l4.3-2.5l0,0c1.2-0.6,2.5-0.5,3.6,0.3c3,1.8,5.5,6.5,5.5,10.5c0,2.2-0.7,3.8-1.9,4.4l0,0
		l-4.3,2.5L21.6,73.4L21.6,73.4z"/>
	<path class="st1" d="M25.3,82.2c-0.1,0-0.2,0-0.3,0c-0.3-0.1-0.5-0.3-0.6-0.5l-7.2-15.2c-0.2-0.5,0-1,0.4-1.3l4.3-2.5
		c0,0,0.1,0,0.1-0.1c1.4-0.7,3.1-0.5,4.5,0.3c3.4,1.9,6,6.9,6,11.4c0,2.4-0.8,4.3-2.3,5.2l-0.1,0.1l-4.3,2.5
		C25.6,82.2,25.5,82.2,25.3,82.2z M22.5,73l3.2,6.8l3.3-1.9c0,0,0.1,0,0.1-0.1c0.9-0.5,1.4-1.8,1.4-3.6c0-3.7-2.3-8.1-5-9.6
		c-0.8-0.5-1.7-0.7-2.6-0.3c0,0-0.1,0-0.1,0.1l-3.4,2L22.5,73L22.5,73z"/>
	<path class="st0" d="M54.9,92.6l-3.5-7.4l4.3-2.5l0,0c1.2-0.6,2.5-0.5,3.6,0.3c3,1.8,5.5,6.5,5.5,10.5c0,2.2-0.7,3.8-1.9,4.4l0,0
		l-4.3,2.5L54.9,92.6L54.9,92.6z"/>
	<path class="st1" d="M58.6,101.4c-0.1,0-0.2,0-0.3,0c-0.3-0.1-0.5-0.3-0.6-0.5l-7.2-15.2c-0.2-0.5,0-1,0.4-1.3l4.3-2.5
		c0,0,0.1,0,0.1-0.1c1.4-0.7,3.1-0.5,4.5,0.4c3.4,1.9,6,6.9,6,11.4c0,2.4-0.8,4.3-2.3,5.2l-0.1,0.1l-4.3,2.5
		C58.9,101.4,58.7,101.4,58.6,101.4z M55.8,92.2L59,99l3.3-1.9c0,0,0.1,0,0.1-0.1c0.9-0.5,1.4-1.8,1.4-3.6c0-3.7-2.3-8.1-5-9.6
		c-0.8-0.5-1.7-0.7-2.6-0.3c0,0-0.1,0-0.1,0.1l-3.4,2L55.8,92.2L55.8,92.2z"/>
	<polygon class="st2" points="93.7,81.7 67.9,96.6 67.9,60.9 93.7,45.9 	"/>
	<path class="st0" d="M67.9,97.6c-0.6,0-1-0.4-1-1V60.9c0-0.4,0.2-0.7,0.5-0.9l25.9-14.9c0.5-0.3,1.1-0.1,1.4,0.4
		c0.1,0.2,0.1,0.3,0.1,0.5v35.7c0,0.4-0.2,0.7-0.5,0.9L68.4,97.5C68.2,97.5,68.1,97.6,67.9,97.6z M68.9,61.4v33.4L92.8,81V47.7
		L68.9,61.4z"/>
	<polygon class="st2" points="67.9,96.6 14.3,65.7 14.3,29.9 67.9,60.9 	"/>
	<path class="st0" d="M67.9,97.6c-0.2,0-0.3,0-0.5-0.1l-53.6-31c-0.3-0.2-0.5-0.5-0.5-0.9V29.9c0-0.6,0.4-1,1-1c0.2,0,0.3,0,0.5,0.1
		l53.6,31c0.3,0.2,0.5,0.5,0.5,0.9v35.7C68.9,97.1,68.4,97.6,67.9,97.6z M15.3,65.1l51.6,29.8V61.4L15.3,31.7V65.1z"/>
	<path class="st0" d="M48,68.1c-0.2,0-0.3,0-0.5-0.1l-13.9-8c-0.5-0.3-0.6-0.9-0.4-1.4c0.3-0.5,0.9-0.6,1.4-0.4l13.9,8
		c0.5,0.3,0.6,0.9,0.4,1.4C48.7,67.9,48.4,68.1,48,68.1z"/>
	<polygon class="st3" points="93.7,45.9 67.9,60.9 14.3,29.9 40.2,15 	"/>
	<path class="st0" d="M67.9,61.9c-0.2,0-0.3,0-0.5-0.1l-53.6-31c-0.5-0.3-0.6-0.9-0.4-1.4c0.1-0.2,0.2-0.3,0.4-0.4l25.9-14.9
		c0.3-0.2,0.7-0.2,1,0L94.3,45c0.5,0.3,0.6,0.9,0.4,1.4c-0.1,0.2-0.2,0.3-0.4,0.4L68.4,61.7C68.2,61.8,68.1,61.9,67.9,61.9z
		 M16.3,29.9l51.6,29.8l23.9-13.8L40.2,16.2L16.3,29.9z"/>
	<path class="st1" d="M67.9,97.6c-0.2,0-0.3,0-0.5-0.1l-53.6-31c-0.3-0.2-0.5-0.5-0.5-0.9V29.9c0-0.4,0.2-0.7,0.5-0.9l25.9-14.9
		c0.3-0.2,0.7-0.2,1,0L94.3,45c0.3,0.2,0.5,0.5,0.5,0.9v35.7c0,0.4-0.2,0.7-0.5,0.9l-25.9,15C68.2,97.5,68.1,97.6,67.9,97.6z
		 M15.3,65.1l52.6,30.3L92.8,81V46.5L40.2,16.2L15.3,30.5V65.1z"/>
	<ellipse transform="matrix(0.9201 -0.3916 0.3916 0.9201 -31.9442 28.9439)" class="st2" cx="55" cy="92.8" rx="4.8" ry="8.4"/>
	<path class="st1" d="M57.2,101.8c-0.9,0-1.9-0.3-2.7-0.8l0,0c-3.4-1.9-6-6.9-6-11.4c0-2.5,0.9-4.4,2.4-5.3c1.5-0.8,3.2-0.6,4.6,0.3
		c3.4,1.9,6,6.9,6,11.4c0,2.5-0.9,4.4-2.4,5.3C58.5,101.6,57.8,101.8,57.2,101.8z M52.8,85.8c-0.3,0-0.6,0.1-0.9,0.2
		c-0.9,0.5-1.4,1.8-1.4,3.6c0,3.7,2.3,8.1,5,9.6l0,0c0.8,0.5,1.7,0.7,2.6,0.3c0.9-0.5,1.4-1.8,1.4-3.6c0-3.7-2.3-8.1-5-9.6
		C54,86.1,53.4,85.9,52.8,85.8z"/>
	<polygon class="st0" points="93.7,85.9 67.9,100.8 67.9,71.2 93.7,56.3 	"/>
	<path class="st0" d="M67.9,101.8c-0.6,0-1-0.4-1-1V71.2c0-0.4,0.2-0.7,0.5-0.9l25.9-14.9c0.5-0.3,1.1-0.1,1.4,0.4
		c0.1,0.2,0.1,0.3,0.1,0.5v29.6c0,0.4-0.2,0.7-0.5,0.9l-25.9,14.9C68.2,101.8,68.1,101.8,67.9,101.8z M68.9,71.8v27.3l23.9-13.8V58
		L68.9,71.8z"/>
	<polygon class="st2" points="113.7,97.4 87.8,112.3 87.8,100.5 113.7,85.6 	"/>
	<path class="st0" d="M87.8,113.3c-0.6,0-1-0.4-1-1v-11.8c0-0.4,0.2-0.7,0.5-0.9l25.9-14.9c0.5-0.3,1.1-0.1,1.4,0.4
		c0.1,0.2,0.1,0.3,0.1,0.5v11.8c0,0.4-0.2,0.7-0.5,0.9l-25.9,14.9C88.2,113.3,88,113.3,87.8,113.3z M88.8,101.1v9.5l23.9-13.8v-9.5
		L88.8,101.1z"/>
	<path class="st3" d="M107,63.9l-13.2-7.6L67.9,71.2c0,0,11.7,7.6,13.2,7.6S107,63.9,107,63.9z"/>
	<path class="st0" d="M81.1,79.8c-1.6,0-9.3-4.9-13.8-7.8c-0.5-0.3-0.6-0.9-0.3-1.4c0.1-0.1,0.2-0.2,0.3-0.3l25.9-14.9
		c0.3-0.2,0.7-0.2,1,0l13.2,7.6c0.5,0.3,0.6,0.9,0.4,1.4c-0.1,0.1-0.2,0.3-0.3,0.4C96.3,71.6,82.6,79.8,81.1,79.8z M69.8,71.3
		c4.9,3.2,10.1,6.3,11.3,6.6c1.9-0.6,15-8.4,23.9-13.9l-11.3-6.5L69.8,71.3z"/>
	<path class="st2" d="M107,63.9L81.1,78.8l4.9,7.6c1.2,1.8,1.8,3.9,1.8,6.1v8l25.9-14.9v-8c0-2.2-0.6-4.3-1.8-6.1L107,63.9z"/>
	<path class="st0" d="M87.8,101.5c-0.6,0-1-0.4-1-1v-8c0-2-0.6-3.9-1.6-5.5l-4.9-7.6c-0.3-0.5-0.2-1.1,0.3-1.4l0,0l25.9-15
		c0.5-0.3,1-0.1,1.3,0.3l4.9,7.6c1.3,2,2,4.3,2,6.6v8c0,0.4-0.2,0.7-0.5,0.9l-25.9,14.9C88.2,101.5,88,101.5,87.8,101.5z M82.5,79.2
		l4.3,6.7c1.3,2,2,4.3,2,6.6v6.3L112.7,85v-7.5c0-2-0.6-3.9-1.6-5.5l-4.4-6.8L82.5,79.2z"/>
	<path class="st2" d="M87.8,112.3V92.5c0-2.2-0.6-4.3-1.8-6.1l-4.9-7.6l-13.2-7.6v29.6L87.8,112.3z"/>
	<path class="st0" d="M87.8,113.3c-0.2,0-0.3,0-0.5-0.1l-19.9-11.5c-0.3-0.2-0.5-0.5-0.5-0.9V71.2c0-0.6,0.4-1,1-1
		c0.2,0,0.3,0,0.5,0.1L81.6,78c0.1,0.1,0.3,0.2,0.3,0.3l4.9,7.6c1.3,2,2,4.3,2,6.6v19.9C88.8,112.9,88.4,113.3,87.8,113.3
		L87.8,113.3z M68.9,100.3l17.9,10.3V92.5c0-2-0.6-3.9-1.6-5.5l-4.8-7.4L68.9,73V100.3z"/>
	<path class="st1" d="M87.8,113.3c-0.2,0-0.3,0-0.5-0.1l-19.9-11.5c-0.3-0.2-0.5-0.5-0.5-0.9V71.2c0-0.4,0.2-0.7,0.5-0.9l25.9-14.9
		c0.3-0.2,0.7-0.2,1,0l13.2,7.6c0.1,0.1,0.3,0.2,0.3,0.3l4.9,7.6c1.3,2,2,4.3,2,6.6v19.9c0,0.4-0.2,0.7-0.5,0.9l-25.9,14.9
		C88.2,113.3,88,113.3,87.8,113.3z M68.9,100.3l18.9,10.9l24.9-14.4V77.5c0-2-0.6-3.9-1.6-5.5l0,0l-4.8-7.4l-12.5-7.2L68.9,71.8
		V100.3z"/>
	<ellipse transform="matrix(0.9201 -0.3916 0.3916 0.9201 -27.0859 14.3738)" class="st2" cx="21.7" cy="73.6" rx="4.8" ry="8.4"/>
	<path class="st1" d="M23.9,82.6c-0.9,0-1.9-0.3-2.7-0.8l0,0c-3.4-1.9-6-6.9-6-11.4c0-2.5,0.9-4.4,2.4-5.3c1.5-0.8,3.2-0.6,4.6,0.3
		c3.4,1.9,6,6.9,6,11.4c0,2.5-0.9,4.4-2.4,5.3C25.2,82.4,24.5,82.6,23.9,82.6z M22.2,80.1c0.8,0.5,1.7,0.7,2.6,0.3
		c0.9-0.5,1.4-1.8,1.4-3.6c0-3.7-2.3-8.1-5-9.6c-0.8-0.5-1.7-0.7-2.6-0.3c-0.9,0.5-1.4,1.8-1.4,3.6C17.2,74.1,19.5,78.5,22.2,80.1z"
		/>
	<ellipse transform="matrix(0.9201 -0.3916 0.3916 0.9201 -35.0602 38.1089)" class="st2" cx="75.9" cy="105" rx="4.8" ry="8.4"/>
	<path class="st1" d="M78.1,114c-0.9,0-1.9-0.3-2.7-0.8l0,0c-3.4-1.9-6-6.9-6-11.4c0-2.5,0.9-4.4,2.4-5.3c1.5-0.8,3.2-0.6,4.6,0.3
		c3.4,1.9,6,6.9,6,11.4c0,2.5-0.9,4.4-2.4,5.3C79.5,113.8,78.8,114,78.1,114z M73.8,98c-0.3,0-0.6,0.1-0.9,0.2
		c-0.9,0.5-1.4,1.8-1.4,3.6c0,3.7,2.3,8.1,5,9.6l0,0c0.8,0.5,1.7,0.7,2.6,0.3c0.9-0.5,1.4-1.8,1.4-3.6c0-3.7-2.3-8.1-5-9.6
		C74.9,98.2,74.4,98.1,73.8,98z"/>
	<rect x="1" y="1" class="st4" width="126" height="126"/>
	<g>
		<rect class="st4" width="128" height="128"/>
	</g>
</g>
</svg>
