<?xml version="1.0" encoding="utf-8"?>
<!-- Generator: Adobe Illustrator 24.1.2, SVG Export Plug-In . SVG Version: 6.00 Build 0)  -->
<svg version="1.1" id="Layer_1" xmlns="http://www.w3.org/2000/svg" xmlns:xlink="http://www.w3.org/1999/xlink" x="0px" y="0px"
	 width="440px" height="300px" viewBox="0 0 440 300" style="enable-background:new 0 0 440 300;" xml:space="preserve">
<style type="text/css">
	.st0{fill:#E9EBDF;}
	.st1{fill:#27ae60;}
	.st2{fill:#C4D7D3;}
	.st3{fill:#FFFFFF;}
	.st4{fill:#4D9987;}
	.st5{fill:#0E352C;}
	.st6{fill:none;}
</style>
<g>
	<path class="st0" d="M293,56.8l-9.5-5.5l0,0c-1.1-0.6-2.4-0.4-3.4,0.3l-129.6,74.8c-2.9,1.7-5.3,6.2-5.3,10.1v102.4
		c0,2.1,0.7,3.6,1.8,4.2l0,0l9.5,5.5l9.4-14.7L280,168c2.9-1.7,5.3-6.2,5.3-10.1V66.6L293,56.8z"/>
	<path class="st1" d="M293,56.8l-9.5-5.5l0,0c-1.1-0.6-2.4-0.4-3.4,0.3l-129.6,74.8c-2.9,1.7-5.3,6.2-5.3,10.1v11.2l9.5,5.5
		l132.8-89.4L293,56.8z"/>
	<path class="st2" d="M167.8,144.3l119.7-80.5l5.5-7l-9.5-5.5l0,0c-1.1-0.6-2.4-0.4-3.4,0.3l-129.6,74.8c-2,1.3-3.4,3.2-4.3,5.4
		L167.8,144.3z"/>
	<path class="st3" d="M289.5,173.6l-129.6,74.8c-2.9,1.7-5.3-0.1-5.3-4V142c0-3.9,2.4-8.4,5.3-10.1l129.6-74.8
		c2.9-1.7,5.3,0.1,5.3,4v102.4C294.8,167.4,292.4,171.9,289.5,173.6z"/>
	<path class="st4" d="M157.8,250c-0.6,0-1.3-0.2-1.9-0.5c-1.5-0.9-2.3-2.7-2.3-5.1V142c0-4.3,2.5-9.1,5.8-10.9L289,56.2
		c1.3-0.9,3-1,4.4-0.3c1.5,0.9,2.3,2.7,2.3,5.1v102.4c0,4.3-2.5,9.1-5.8,10.9l-129.6,74.8C159.7,249.7,158.8,250,157.8,250z
		 M291.6,57.5c-0.6,0-1.1,0.2-1.6,0.5l-129.6,74.8c-2.6,1.5-4.8,5.7-4.8,9.2v102.4c0,1.6,0.5,2.9,1.3,3.4c0.8,0.3,1.7,0.2,2.4-0.3
		L289,172.7l0,0c2.6-1.5,4.8-5.7,4.8-9.2V61.1c0-1.6-0.5-2.9-1.3-3.4C292.2,57.5,291.9,57.5,291.6,57.5z"/>
	<path class="st2" d="M294.8,72.2V61.1c0-3.9-2.4-5.7-5.3-4l-129.6,74.8c-2.9,1.7-5.3,6.2-5.3,10.1v11.2L294.8,72.2z"/>
	<path class="st1" d="M154.7,154.1c-0.6,0-1-0.4-1-1V142c0-4.3,2.5-9.1,5.8-10.9L289,56.2c1.3-0.9,3-1,4.4-0.3
		c1.5,0.9,2.3,2.7,2.3,5.1c0,0.6-0.4,1-1,1s-1-0.4-1-1c0-1.6-0.5-2.9-1.3-3.4c-0.8-0.3-1.7-0.2-2.4,0.3l-129.6,74.8
		c-2.6,1.5-4.8,5.7-4.8,9.2v11.2C155.7,153.7,155.2,154.1,154.7,154.1L154.7,154.1z"/>
	<path class="st5" d="M157.9,250c-0.6,0-1.2-0.1-1.7-0.4c0,0-0.1,0-0.1-0.1l-9.5-5.5c0,0-0.1,0-0.1-0.1c-1.4-0.9-2.2-2.7-2.2-5
		V136.5c0-4.3,2.5-9.1,5.8-10.9l129.6-74.8c1.3-0.9,2.9-1,4.3-0.3c0,0,0.1,0,0.1,0.1l9.5,5.5c0,0,0.1,0,0.1,0.1
		c1.4,0.9,2.2,2.7,2.2,5v102.4c0,4.3-2.5,9.1-5.8,10.9l-129.6,74.8C159.7,249.7,158.8,250,157.9,250z M156.9,247.7
		c0,0,0.1,0,0.1,0.1c0.8,0.3,1.7,0.2,2.4-0.3L289,172.7c2.6-1.5,4.8-5.7,4.8-9.2V61.1c0-1.6-0.5-2.9-1.3-3.4c0,0-0.1,0-0.1-0.1
		l-9.3-5.3c0,0-0.1,0-0.1-0.1c-0.8-0.3-1.7-0.2-2.4,0.3L151,127.3c-2.6,1.5-4.8,5.7-4.8,9.2v102.4c0,1.6,0.5,2.9,1.3,3.4
		c0,0,0.1,0,0.1,0.1L156.9,247.7z"/>
	<path class="st2" d="M222,172.4c-0.8,0-1.6-0.2-2.2-0.6c-1.8-1-2.9-3.4-2.9-6.4c0-5.4,3.2-11.5,7.3-13.9c1.6-1.1,3.7-1.3,5.5-0.4
		c1.8,1,2.9,3.4,2.9,6.4c0,5.4-3.2,11.5-7.3,13.9C224.3,172.1,223.2,172.4,222,172.4z M227.4,152.6c-0.8,0-1.5,0.3-2.2,0.7
		c-3.5,2-6.3,7.5-6.3,12.1c0,2.3,0.7,4,1.9,4.6c1.1,0.5,2.4,0.4,3.5-0.4c3.5-2,6.3-7.5,6.3-12.1c0-2.3-0.7-4-1.9-4.6
		C228.3,152.7,227.9,152.6,227.4,152.6z"/>
	<path class="st2" d="M218.7,184.4c-1.5,0-3-0.4-4.4-1.1c-3.6-2.1-5.7-6.9-5.7-13.1c0-11.4,7-24.7,15.6-29.7
		c3.9-2.3,7.8-2.6,10.9-0.8c3.6,2.1,5.7,6.9,5.7,13.1c0,11.4-7,24.7-15.6,29.7C223.3,183.7,221,184.4,218.7,184.4z M230.7,140.6
		c-1.9,0.1-3.8,0.6-5.5,1.7c-8,4.6-14.6,17.2-14.6,28c0,5.5,1.7,9.6,4.7,11.3c2.4,1.4,5.6,1.1,8.9-0.8c8-4.6,14.6-17.2,14.6-28
		c0-5.5-1.7-9.6-4.7-11.3C233.1,140.9,231.9,140.6,230.7,140.6z"/>
	<polygon class="st3" points="239.6,158.2 224.7,161.5 228.7,179.1 231.9,173 239.2,178.5 243.7,169.8 236.4,164.3 	"/>
	<path class="st1" d="M228.7,180.1h-0.1c-0.4-0.1-0.8-0.4-0.8-0.8l-4-17.5c-0.1-0.5,0.2-1.1,0.8-1.2l0,0l14.9-3.3
		c0.5-0.1,1.1,0.2,1.2,0.8c0.1,0.2,0,0.5-0.1,0.7l-2.8,5.3l6.6,5c0.4,0.3,0.5,0.8,0.3,1.3l-4.5,8.7c-0.3,0.5-0.9,0.7-1.3,0.4
		l-0.1-0.1l-6.3-4.8l-2.6,5C229.4,179.9,229.1,180.1,228.7,180.1z M231.9,172c0.2,0,0.4,0.1,0.6,0.2l6.3,4.8l3.6-6.9l-6.6-5
		c-0.4-0.3-0.5-0.8-0.3-1.3l2.2-4.2l-11.8,2.6l3.2,13.9l1.9-3.7c0.1-0.3,0.4-0.4,0.7-0.5C231.7,172,231.8,172,231.9,172L231.9,172z"
		/>
	<rect y="50" class="st6" width="440" height="200"/>
	<rect class="st6" width="440" height="300"/>
</g>
</svg>
