<svg xmlns="http://www.w3.org/2000/svg" width="64.001" height="64" viewBox="0 0 64.001 64"><path d="M27.393,61.55a1,1,0,0,1-1-1V54.67a1,1,0,0,1,.5-.867L62.5,33.246a1,1,0,1,1,1,1.732L28.393,55.247v3.572L62.5,39.127a1,1,0,1,1,1,1.732L27.893,61.417A1,1,0,0,1,27.393,61.55Z" fill="#27ae60"/><path d="M27.393,61.55a1,1,0,0,1-.5-.133L.5,46.178a1,1,0,0,1-.5-.866V39.431a1,1,0,0,1,1.5-.866L27.893,53.8a1,1,0,0,1,.5.867v5.88a1,1,0,0,1-1,1ZM2,44.735,26.393,58.819V55.247L2,41.163Z" fill="#27ae60"/><path d="M27.46,40.39a1.072,1.072,0,0,1-.39-.07,1,1,0,0,1-.32-.22.972.972,0,0,1-.29-.71.989.989,0,0,1,.07-.38,1,1,0,0,1,.22-.319,1.032,1.032,0,0,1,1.41,0,.974.974,0,0,1,.3.7.963.963,0,0,1-.08.39,1.327,1.327,0,0,1-.09.17.934.934,0,0,1-.13.15,1,1,0,0,1-.32.22A.986.986,0,0,1,27.46,40.39Z" fill="#27ae60"/><path d="M17.75,45a1,1,0,0,1,.37-1.369h0A1,1,0,0,1,19.48,44h0a.994.994,0,0,1-.36,1.361h0a1.031,1.031,0,0,1-.5.139h0A1.006,1.006,0,0,1,17.75,45Zm4.42-2.55a1.011,1.011,0,0,1,.37-1.37h0a.99.99,0,0,1,1.36.37h0a1,1,0,0,1-.36,1.36h0a1.011,1.011,0,0,1-.5.14h0A1.006,1.006,0,0,1,22.17,42.45Z" fill="#27ae60"/><path d="M14.2,48.05a1.087,1.087,0,0,1-.39-.08.972.972,0,0,1-.32-.21.594.594,0,0,1-.12-.16.95.95,0,0,1-.1-.17,1.209,1.209,0,0,1-.05-.18.68.68,0,0,1-.02-.2.981.981,0,0,1,.07-.379.937.937,0,0,1,.22-.33,1.026,1.026,0,0,1,.9-.271.58.58,0,0,1,.19.061.553.553,0,0,1,.17.089.59.59,0,0,1,.15.121.82.82,0,0,1,.22.33.99.99,0,0,1,.08.379,1.355,1.355,0,0,1-.02.2,1.266,1.266,0,0,1-.06.18c-.03.06-.06.12-.09.17a.967.967,0,0,1-.13.16.985.985,0,0,1-.15.121.553.553,0,0,1-.17.089.6.6,0,0,1-.19.06A1.225,1.225,0,0,1,14.2,48.05Z" fill="#27ae60"/><path d="M7,43.9a1,1,0,0,1-1-1V36.428a1,1,0,0,1,.5-.866l6-3.464a1,1,0,0,1,1.5.866v6.467a1,1,0,0,1-.5.867l-6,3.463A.992.992,0,0,1,7,43.9Zm1-6.89v4.158l4-2.309V34.7Z" fill="#27ae60"/><path d="M7,43.9a.992.992,0,0,1-.5-.134L.5,40.3a1,1,0,0,1-.5-.867V32.964A1,1,0,0,1,1.5,32.1l6,3.464a1,1,0,0,1,.5.866V42.9a1,1,0,0,1-1,1ZM2,38.854l4,2.309V37.005L2,34.7Z" fill="#27ae60"/><path d="M7,37.428a1,1,0,0,1-.5-.134L.5,33.83A1,1,0,0,1,.5,32.1l6-3.465a1,1,0,0,1,1,0l6,3.465a1,1,0,0,1,0,1.732l-6,3.464A1,1,0,0,1,7,37.428ZM3,32.964l4,2.309,4-2.309-4-2.31Z" fill="#27ae60"/><path d="M7,43.9a.992.992,0,0,1-.5-.134L.5,40.3a1,1,0,0,1-.5-.867V32.964A1,1,0,0,1,.5,32.1l6-3.464a1,1,0,0,1,1,0l6,3.464a1,1,0,0,1,.5.867v6.467a1,1,0,0,1-.5.867l-6,3.463A.992.992,0,0,1,7,43.9ZM2,38.854,7,41.74l5-2.886V33.541L7,30.654,2,33.541Z" fill="#0E352C"/><path d="M33.406,45.22a2.322,2.322,0,0,1-1.172-.308,3.294,3.294,0,0,1-1.411-3,7.311,7.311,0,0,1,3.134-5.9,2.684,2.684,0,0,1,2.724-.138,3.293,3.293,0,0,1,1.41,3,7.309,7.309,0,0,1-3.134,5.9A3.121,3.121,0,0,1,33.406,45.22ZM35.5,37.567a1.233,1.233,0,0,0-.544.182,5.384,5.384,0,0,0-2.134,4.167c0,.758.221,1.154.411,1.264.219.126.579-.055.723-.139a5.381,5.381,0,0,0,2.134-4.167c0-.759-.221-1.155-.41-1.264A.355.355,0,0,0,35.5,37.567ZM46.774,37.5A2.33,2.33,0,0,1,45.6,37.2a3.294,3.294,0,0,1-1.41-3,7.31,7.31,0,0,1,3.134-5.9,2.685,2.685,0,0,1,2.723-.139,3.294,3.294,0,0,1,1.411,3,7.306,7.306,0,0,1-3.134,5.9h0A3.12,3.12,0,0,1,46.774,37.5Zm2.093-7.654a1.241,1.241,0,0,0-.543.182A5.384,5.384,0,0,0,46.19,34.2c0,.758.221,1.155.41,1.265.218.125.579-.056.724-.14a5.381,5.381,0,0,0,2.134-4.167c0-.758-.221-1.154-.41-1.264A.367.367,0,0,0,48.867,29.849Z" fill="#27ae60"/><path d="M57.723,31.182a2.324,2.324,0,0,1-1.173-.309,3.3,3.3,0,0,1-1.411-3,7.309,7.309,0,0,1,3.135-5.9A2.68,2.68,0,0,1,61,21.839a3.291,3.291,0,0,1,1.41,3,7.308,7.308,0,0,1-3.133,5.9A3.118,3.118,0,0,1,57.723,31.182Zm2.095-7.654a1.224,1.224,0,0,0-.544.182,5.379,5.379,0,0,0-2.135,4.167c0,.758.222,1.154.41,1.264.218.125.579-.055.725-.139h0a5.383,5.383,0,0,0,2.133-4.167c0-.758-.22-1.155-.41-1.265A.361.361,0,0,0,59.818,23.528Z" fill="#27ae60"/><path d="M31.823,28.916a1,1,0,0,1-.5-.134l-10.97-6.334a1,1,0,0,1-.5-.866V16.569a1,1,0,0,1,1.5-.866l10.97,6.333a1,1,0,0,1,.5.867v5.013a1,1,0,0,1-1,1Zm-9.97-7.911,8.97,5.179v-2.7L21.853,18.3Z" fill="#27ae60"/><path d="M20.854,36.582a1,1,0,0,1-.5-1.866l10.97-6.333a1,1,0,0,1,1,1.732l-10.97,6.333A.992.992,0,0,1,20.854,36.582Z" fill="#27ae60"/><path d="M22.437,38.887a2.327,2.327,0,0,1-1.173-.309,3.293,3.293,0,0,1-1.41-3,1,1,0,0,1,1.5-.866l3,1.731a1,1,0,0,1,.11,1.659,4.5,4.5,0,0,1-.475.333A3.118,3.118,0,0,1,22.437,38.887Z" fill="#0E352C"/><path d="M31.823,42.916a1,1,0,0,1-1-1V22.9a1,1,0,0,1,.5-.867L54.047,8.917a1,1,0,0,1,1.5.866V28.8a1,1,0,0,1-.5.866l-4.089,2.361a1,1,0,0,1-1.5-.867c0-.758-.22-1.154-.41-1.264-.222-.127-.579.055-.724.139A5.384,5.384,0,0,0,46.19,34.2a1,1,0,0,1-.5.867l-8.1,4.675a1,1,0,0,1-1.5-.866c0-.758-.222-1.155-.41-1.264-.219-.125-.58.055-.725.139a5.386,5.386,0,0,0-2.134,4.167A1,1,0,0,1,31.823,42.916Zm3.685-7.346a2.332,2.332,0,0,1,1.174.308A2.683,2.683,0,0,1,37.826,37.3L44.219,33.6a7.272,7.272,0,0,1,3.1-5.3,2.518,2.518,0,0,1,3.869,1.279l2.354-1.36v-16.7L32.823,23.48V36.938a5.015,5.015,0,0,1,1.134-.921A3.116,3.116,0,0,1,35.508,35.57Z" fill="#0E352C"/><path d="M31.823,23.9a1,1,0,0,1-.5-.134l-10.97-6.334a1,1,0,0,1,0-1.732L43.077,2.583a1,1,0,0,1,1,0l10.97,6.334a1,1,0,0,1,0,1.732L32.323,23.769A1,1,0,0,1,31.823,23.9Zm-8.97-7.334,8.97,5.179L52.547,9.783,43.577,4.6Z" fill="#0E352C"/><path d="M43.578,17.116a1,1,0,0,1-.5-1.866L53.92,8.99a1,1,0,0,1,1,1.733l-10.843,6.26A1,1,0,0,1,43.578,17.116Z" fill="#0E352C"/><path d="M54.547,17.612a1,1,0,0,1-1-1V9.93a1,1,0,0,1,1.5-.866l7.584,4.379a1,1,0,0,1,.384,1.334,1.028,1.028,0,0,1-.609.5,1.01,1.01,0,0,1-.78-.084c-.018-.011-.047-.029-.076-.049l-1.48-.567-5.023,2.9A1,1,0,0,1,54.547,17.612Zm1-5.95V14.88l2.787-1.609Z" fill="#0E352C"/><path d="M54.547,29.8a1,1,0,0,1-1-1V16.612a1,1,0,0,1,.5-.866l5.436-3.138a1,1,0,0,1,.857-.068l2.021.774c.516.2,1.383.794,1.383,2.576v8.173a1,1,0,0,1-.5.865l-1.337.773a1,1,0,0,1-1.5-.866c0-.758-.22-1.155-.41-1.264-.222-.126-.579.055-.723.139a5.381,5.381,0,0,0-2.135,4.167,1,1,0,0,1-.5.866l-1.592.919A.99.99,0,0,1,54.547,29.8Zm1-12.606v8.4a6.8,6.8,0,0,1,2.727-3.615A2.68,2.68,0,0,1,61,21.839a2.441,2.441,0,0,1,.747.676V15.89a1.414,1.414,0,0,0-.124-.718l-1.55-.594Z" fill="#0E352C"/><path d="M31.823,42.916a1,1,0,0,1-.5-.134l-10.97-6.334a1,1,0,0,1-.5-.866V16.569a1,1,0,0,1,1.5-.866l10.97,6.333a1,1,0,0,1,.5.867V41.916a1,1,0,0,1-1,1Zm-9.97-7.911,8.97,5.179V23.48L21.853,18.3Z" fill="#0E352C"/><path d="M12.6,33.734a1,1,0,0,1-.5-1.867L20.354,27.1a1,1,0,1,1,1,1.732L13.1,33.6A.992.992,0,0,1,12.6,33.734Z" fill="#0E352C"/><path d="M27.394,61.55a1,1,0,0,1-.5-1.866L62.5,39.127a1,1,0,1,1,1,1.732L27.893,61.417A.991.991,0,0,1,27.394,61.55Z" fill="#0E352C"/><path d="M27.392,61.55a1,1,0,0,1-.5-.133L.5,46.178a1,1,0,0,1,1-1.732L27.893,59.684a1,1,0,0,1-.5,1.866Z" fill="#0E352C"/><path d="M1,46.312a1,1,0,0,1-1-1V32.964a1,1,0,0,1,2,0V45.312A1,1,0,0,1,1,46.312Z" fill="#0E352C"/><path d="M1,33.964A1,1,0,0,1,.5,32.1l6-3.465a1,1,0,0,1,1,1.733l-6,3.464A.992.992,0,0,1,1,33.964Z" fill="#0E352C"/><path d="M12.6,33.734a1,1,0,0,1-.5-.134L6.5,30.366a1,1,0,0,1,1-1.733l5.6,3.234a1,1,0,0,1-.5,1.867Z" fill="#0E352C"/><rect width="64" height="64" fill="none"/><path d="M39.992,28.224a1,1,0,0,1-.5-1.866l5.7-3.29a1,1,0,0,1,1,1.732l-5.7,3.291A1,1,0,0,1,39.992,28.224Z" fill="#27ae60"/></svg>