<svg xmlns="http://www.w3.org/2000/svg" width="64" height="64" viewBox="0 0 64 64"><path d="M36.607,64a.99.99,0,0,1-.5-.134L.5,43.309a1,1,0,0,1,1-1.733L35.607,61.268V57.7L.5,37.427a1,1,0,0,1,1-1.732L37.107,56.253a1,1,0,0,1,.5.866V63a1,1,0,0,1-1,1Z" fill="#27ae60"/><path d="M36.607,64a1,1,0,0,1-1-1V57.119a1,1,0,0,1,.5-.866L62.5,41.015a1,1,0,0,1,1.5.866v5.881a1,1,0,0,1-.5.866L37.107,63.866A.99.99,0,0,1,36.607,64Zm1-6.3v3.572L62,47.185V43.613Z" fill="#27ae60"/><path d="M38.335,53.188a1,1,0,0,1-1-1V42.943a1,1,0,0,1,2,0v9.245A1,1,0,0,1,38.335,53.188Z" fill="#0E352C"/><path d="M54.82,43.67a1,1,0,0,1-1-1V33.425a1,1,0,0,1,2,0V42.67A1,1,0,0,1,54.82,43.67Z" fill="#0E352C"/><path d="M36.607,64a.99.99,0,0,1-.5-.134L.5,43.309a1,1,0,0,1,1-1.733L36.607,61.845,62,47.185V42.458L55.82,38.89v.128a1,1,0,0,1-.5.866L38.834,49.4a1,1,0,0,1-1.5-.867V42.943a1,1,0,0,1,.5-.867l11.752-6.785-8.235-4.755a1,1,0,0,1,1-1.732l9.735,5.621a1,1,0,0,1,0,1.732L39.334,43.52V46.8L53.82,38.441V37.158a1,1,0,0,1,1.5-.866l8.18,4.723a1,1,0,0,1,.5.866v5.881a1,1,0,0,1-.5.866L37.107,63.866A.99.99,0,0,1,36.607,64Z" fill="#0E352C"/><path d="M38.335,49.535a1,1,0,0,1-1-1V42.943a1,1,0,0,1,.5-.867L54.32,32.559a1,1,0,0,1,1.5.866v5.593a1,1,0,0,1-.5.866L38.835,49.4A1,1,0,0,1,38.335,49.535Zm1-6.015V46.8L53.82,38.441V35.157Z" fill="#27ae60"/><path d="M4.574,31.766a3.059,3.059,0,0,1-1.519-.438A7.12,7.12,0,0,1,0,25.581a3.223,3.223,0,0,1,1.383-2.932,2.632,2.632,0,0,1,2.672.134A7.122,7.122,0,0,1,7.11,28.531a3.222,3.222,0,0,1-1.383,2.931A2.285,2.285,0,0,1,4.574,31.766ZM2.543,24.343a.321.321,0,0,0-.16.038c-.19.109-.383.524-.383,1.2A5.182,5.182,0,0,0,4.055,29.6c.137.08.478.25.672.135s.383-.524.383-1.2a5.184,5.184,0,0,0-2.055-4.015A1.166,1.166,0,0,0,2.543,24.343Z" fill="#27ae60"/><path d="M17.538,39.25a3.059,3.059,0,0,1-1.52-.438h0a7.12,7.12,0,0,1-3.055-5.747,3.223,3.223,0,0,1,1.383-2.932,2.632,2.632,0,0,1,2.672.134,7.121,7.121,0,0,1,3.055,5.747,3.225,3.225,0,0,1-1.383,2.933A2.293,2.293,0,0,1,17.538,39.25Zm-2.031-7.424a.323.323,0,0,0-.161.039c-.19.11-.383.524-.383,1.2a5.182,5.182,0,0,0,2.055,4.014h0c.136.078.474.25.672.135s.383-.524.383-1.2A5.183,5.183,0,0,0,16.018,32,1.166,1.166,0,0,0,15.507,31.826Z" fill="#27ae60"/><path d="M27.367,45.558a3.052,3.052,0,0,1-1.52-.438,7.119,7.119,0,0,1-3.055-5.747,3.221,3.221,0,0,1,1.383-2.931,2.627,2.627,0,0,1,2.672.134A7.12,7.12,0,0,1,29.9,42.323a3.224,3.224,0,0,1-1.383,2.932A2.28,2.28,0,0,1,27.367,45.558Zm-2.032-7.423a.311.311,0,0,0-.16.039c-.19.109-.383.523-.383,1.2a5.184,5.184,0,0,0,2.055,4.015c.136.079.474.251.672.135s.383-.524.383-1.2a5.185,5.185,0,0,0-2.055-4.015A1.166,1.166,0,0,0,25.335,38.135Z" fill="#27ae60"/><path d="M23.038,27.013a1,1,0,0,1-1-1V19.865a1,1,0,0,1,.5-.866l10.637-6.142a1,1,0,0,1,1.5.866v6.148a1,1,0,0,1-.5.867L23.538,26.88A1,1,0,0,1,23.038,27.013Zm1-6.571v3.839l8.637-4.987V15.455Z" fill="#0E352C"/><path d="M14.868,24.906a.992.992,0,0,1-.5-.134l-5.7-3.291a1,1,0,0,1,1-1.732l5.7,3.29a1,1,0,0,1-.5,1.867Z" fill="#27ae60"/><path d="M23.038,20.865a.99.99,0,0,1-.5-.134L.5,8.008a1,1,0,0,1,0-1.732L11.139.134a1,1,0,0,1,1,0L34.175,12.857a1,1,0,0,1,0,1.732L23.538,20.731A1,1,0,0,1,23.038,20.865ZM3,7.142,23.038,18.71l8.637-4.987L11.639,2.155Z" fill="#0E352C"/><path d="M33.771,31.475a1,1,0,0,1-.5-1.866l4.088-2.36a1,1,0,0,1,1,1.733l-4.088,2.36A1,1,0,0,1,33.771,31.475Z" fill="#27ae60"/><path d="M34.7,37.847a1,1,0,0,1-.5-1.866l.1-.058a1,1,0,1,1,1,1.732l-.1.059A1,1,0,0,1,34.7,37.847Z" fill="#27ae60"/><path d="M38.371,35.725a1,1,0,0,1-.5-1.864l.1-.059a1,1,0,0,1,1.006,1.729l-.1.059A1,1,0,0,1,38.371,35.725Z" fill="#27ae60"/><path d="M23.038,39.3a.99.99,0,0,1-.5-.134l-3.965-2.289a1,1,0,0,1-.5-.866A5.187,5.187,0,0,0,16.018,32c-.135-.078-.471-.25-.672-.135s-.383.524-.383,1.2a1,1,0,0,1-1.5.866L5.61,29.4a1,1,0,0,1-.5-.866,5.189,5.189,0,0,0-2.055-4.016c-.135-.077-.473-.249-.672-.134S2,24.905,2,25.58a1,1,0,0,1-2,0V7.142a1,1,0,0,1,1.5-.866L23.538,19a1,1,0,0,1,.5.866V38.3a1,1,0,0,1-1,1Zm-3-3.884,2,1.152V20.443L2,8.874V22.406a2.835,2.835,0,0,1,2.055.377A7.086,7.086,0,0,1,7.08,27.936l6.156,3.554a2.47,2.47,0,0,1,3.782-1.222A7.081,7.081,0,0,1,20.042,35.42Z" fill="#0E352C"/><path d="M31.235,44.037a.99.99,0,0,1-.5-.134l-2.381-1.375a1,1,0,0,1-.491-.736,5.054,5.054,0,0,0-2.016-3.483.8.8,0,0,0-.649-.145c-.132.064-.3.3-.369.756a1,1,0,0,1-1.489.714l-.8-.464a1,1,0,0,1-.5-.866V26.119a1,1,0,0,1,1.5-.865l4.842,2.8a4.163,4.163,0,0,1,1.411,1.435L31.415,32.1h0a5.371,5.371,0,0,1,.82,2.739v8.2a1,1,0,0,1-1,1Zm-1.474-3.006.474.274V34.841a3.376,3.376,0,0,0-.52-1.685L28.092,30.54a2.263,2.263,0,0,0-.712-.758l-3.342-1.93v8.679a2.316,2.316,0,0,1,.294-.17,2.651,2.651,0,0,1,2.515.215A6.9,6.9,0,0,1,29.761,41.031Z" fill="#0E352C"/><path d="M31.235,44.037a1,1,0,0,1-1-1v-8.2a3.376,3.376,0,0,0-.52-1.685L28.092,30.54a2.263,2.263,0,0,0-.712-.758l-4.842-2.8a1,1,0,0,1,0-1.732l10.638-6.141a1,1,0,0,1,1,0l4.842,2.8a4.183,4.183,0,0,1,1.411,1.436l1.624,2.616h0a5.366,5.366,0,0,1,.821,2.739v8.2a1,1,0,0,1-.5.866L31.735,43.9A1,1,0,0,1,31.235,44.037Zm-6.2-17.918,3.342,1.932a4.163,4.163,0,0,1,1.411,1.435L31.415,32.1a5.371,5.371,0,0,1,.82,2.739V41.3l8.639-4.986V28.7a3.369,3.369,0,0,0-.52-1.684L38.731,24.4a2.288,2.288,0,0,0-.712-.759l-4.343-2.507Z" fill="#0E352C"/><rect width="64" height="64" fill="none"/></svg>