<svg xmlns="http://www.w3.org/2000/svg" width="64" height="64" viewBox="0 0 64 64"><polygon points="19.689 44.792 19.689 49.308 1 52.199 1 47.683 19.689 44.792" fill="none"/><ellipse cx="54.33" cy="44.059" rx="8.67" ry="5.006" fill="none"/><path d="M1,48.683a1,1,0,0,1-.907-1.421L5.1,36.472a1,1,0,0,1,1.407-.445l13.681,7.9a1,1,0,0,1-.346,1.854L1.153,48.672A1.125,1.125,0,0,1,1,48.683ZM6.455,38.306l-3.762,8.1,14.036-2.171Z" fill="#27ae60"/><path d="M54.33,45.473a13.51,13.51,0,0,1-6.631-1.61h0c-1.96-1.132-3.039-2.7-3.039-4.406s1.079-3.273,3.039-4.405a14.458,14.458,0,0,1,13.262,0c1.96,1.132,3.039,2.7,3.039,4.405s-1.079,3.274-3.039,4.406A13.5,13.5,0,0,1,54.33,45.473ZM48.7,42.131a12.661,12.661,0,0,0,11.262,0C61.276,41.372,62,40.422,62,39.457s-.724-1.914-2.039-2.673a12.658,12.658,0,0,0-11.262,0c-1.315.759-2.039,1.709-2.039,2.673s.724,1.915,2.039,2.674Z" fill="#27ae60"/><path d="M1,53.2a1,1,0,0,1-1-1V47.683a.99.99,0,0,1,.093-.421L5.1,36.472a1,1,0,0,1,1.407-.445l13.681,7.9a1,1,0,0,1,.5.866v4.516a1,1,0,0,1-.846.988L1.153,53.187A.986.986,0,0,1,1,53.2ZM2,47.9v3.128L18.689,48.45V45.369L6.455,38.306Z" fill="#0E352C"/><path d="M54.33,50.074A13.51,13.51,0,0,1,47.7,48.465c-1.96-1.132-3.039-2.7-3.039-4.406v-4.6c0-1.709,1.079-3.273,3.039-4.405a14.458,14.458,0,0,1,13.262,0h0c1.96,1.131,3.039,2.7,3.039,4.405v4.6c0,1.71-1.079,3.275-3.039,4.406A13.5,13.5,0,0,1,54.33,50.074Zm0-14.611A11.572,11.572,0,0,0,48.7,36.784c-1.314.759-2.039,1.708-2.039,2.673v4.6c0,.965.725,1.914,2.039,2.674a12.664,12.664,0,0,0,11.262,0C61.275,45.974,62,45.024,62,44.059v-4.6c0-.965-.724-1.914-2.039-2.673h0A11.564,11.564,0,0,0,54.33,35.463Z" fill="#0E352C"/><ellipse cx="34.714" cy="32.734" rx="8.67" ry="5.006" fill="none"/><path d="M34.715,34.148a13.5,13.5,0,0,1-6.631-1.61c-1.96-1.132-3.039-2.7-3.039-4.4s1.079-3.275,3.039-4.407a14.468,14.468,0,0,1,13.261,0c1.96,1.132,3.039,2.7,3.039,4.407s-1.079,3.273-3.039,4.4A13.506,13.506,0,0,1,34.715,34.148Zm0-10.011a11.556,11.556,0,0,0-5.631,1.322c-1.315.759-2.039,1.709-2.039,2.674s.724,1.914,2.039,2.672h0a12.646,12.646,0,0,0,11.261,0c1.315-.758,2.039-1.708,2.039-2.672s-.724-1.915-2.039-2.674A11.565,11.565,0,0,0,34.715,24.137Z" fill="#27ae60"/><path d="M34.715,38.749a13.493,13.493,0,0,1-6.631-1.609c-1.96-1.132-3.04-2.7-3.04-4.406v-4.6c0-1.709,1.08-3.274,3.04-4.406a14.465,14.465,0,0,1,13.261,0c1.96,1.132,3.04,2.7,3.04,4.406v4.6c0,1.71-1.08,3.274-3.04,4.406A13.506,13.506,0,0,1,34.715,38.749Zm0-14.612a11.554,11.554,0,0,0-5.63,1.322c-1.315.759-2.04,1.708-2.04,2.673v4.6c0,.965.725,1.914,2.04,2.673a12.646,12.646,0,0,0,11.261,0c1.315-.759,2.04-1.708,2.04-2.673v-4.6c0-.965-.725-1.914-2.04-2.673h0A11.558,11.558,0,0,0,34.714,24.137Z" fill="#0E352C"/><ellipse cx="15.098" cy="21.409" rx="8.67" ry="5.006" fill="none"/><path d="M15.1,22.822a13.5,13.5,0,0,1-6.631-1.609c-1.96-1.132-3.039-2.7-3.039-4.406S6.508,13.533,8.468,12.4a14.468,14.468,0,0,1,13.261,0c1.96,1.132,3.04,2.7,3.04,4.406s-1.081,3.274-3.04,4.406A13.519,13.519,0,0,1,15.1,22.822Zm0-10.01a11.565,11.565,0,0,0-5.63,1.321c-1.316.76-2.039,1.709-2.039,2.674s.723,1.914,2.039,2.673a12.652,12.652,0,0,0,11.261,0c1.315-.759,2.04-1.708,2.04-2.673s-.725-1.914-2.04-2.674A11.572,11.572,0,0,0,15.1,12.812Z" fill="#27ae60"/><path d="M15.1,27.424a13.494,13.494,0,0,1-6.631-1.61c-1.96-1.131-3.039-2.695-3.039-4.405v-4.6c0-1.71,1.079-3.275,3.039-4.406a14.465,14.465,0,0,1,13.261,0c1.959,1.132,3.04,2.7,3.04,4.406v4.6c0,1.709-1.081,3.274-3.04,4.405A13.509,13.509,0,0,1,15.1,27.424Zm0-14.612a11.565,11.565,0,0,0-5.63,1.321c-1.315.759-2.039,1.709-2.039,2.674v4.6c0,.965.723,1.914,2.039,2.673a12.652,12.652,0,0,0,11.261,0c1.315-.759,2.04-1.708,2.04-2.673v-4.6c0-.965-.725-1.914-2.04-2.674h0A11.572,11.572,0,0,0,15.1,12.812Z" fill="#0E352C"/><rect width="64" height="64" fill="none"/></svg>