<svg xmlns="http://www.w3.org/2000/svg" width="64" height="64" viewBox="0 0 64 64"><path d="M16.246,34.1a1,1,0,0,1-.5-.134L.859,25.366a1.516,1.516,0,0,1,0-2.733l14.887-8.6a1,1,0,0,1,1,0l4.864,2.808a.468.468,0,0,0,.228.015,3.55,3.55,0,0,1,1.351-1.3,7.186,7.186,0,0,1,7.073.257,2.8,2.8,0,0,1,1.278,2.231,2.764,2.764,0,0,1-1.224,2.225,5.146,5.146,0,0,1-1.473.751L32.5,23.133a1,1,0,0,1,0,1.732l-4.858,2.806a2.489,2.489,0,0,1-1.932.172,1.629,1.629,0,0,1-1.021-.86,1.711,1.711,0,0,0-.939-.752h0a5.5,5.5,0,0,0-4.1.017c-.679.313-.932.677-.942.895-.011.239.248.541.675.788a4.237,4.237,0,0,0,1.445.476,1.7,1.7,0,0,1,1.531,1.27,1.4,1.4,0,0,1-.746,1.476l-4.864,2.808A1,1,0,0,1,16.246,34.1ZM2.492,24,16.246,31.94l3.16-1.824a5.509,5.509,0,0,1-1.026-.453,2.931,2.931,0,0,1-1.673-2.613,3.189,3.189,0,0,1,2.1-2.618,7.477,7.477,0,0,1,5.754-.028h0a3.818,3.818,0,0,1,1.845,1.554.563.563,0,0,0,.235-.021L30,24,26.642,22.06a1.41,1.41,0,0,1-.749-1.493,1.654,1.654,0,0,1,1.5-1.251,3.9,3.9,0,0,0,1.731-.646.872.872,0,0,0,.421-.609.908.908,0,0,0-.45-.626,5.214,5.214,0,0,0-4.9-.144,1.5,1.5,0,0,0-.627.588,1.7,1.7,0,0,1-1.066.875,2.426,2.426,0,0,1-1.887-.177l-4.363-2.519Z" fill="#27ae60"/><path d="M32,42.9a2.768,2.768,0,0,1-1.366-.343L15.746,33.961a1,1,0,0,1,0-1.732l3.66-2.113a5.509,5.509,0,0,1-1.026-.453,2.934,2.934,0,0,1-1.673-2.612,3.19,3.19,0,0,1,2.1-2.619,7.473,7.473,0,0,1,5.754-.028,3.815,3.815,0,0,1,1.846,1.554.528.528,0,0,0,.235-.021l4.855-2.8a1,1,0,0,1,1,0l4.859,2.805a1.41,1.41,0,0,1,.749,1.494,1.656,1.656,0,0,1-1.495,1.25,3.9,3.9,0,0,0-1.731.646h0a.872.872,0,0,0-.422.609.915.915,0,0,0,.45.626,5.214,5.214,0,0,0,4.9.145,1.506,1.506,0,0,0,.628-.59,1.7,1.7,0,0,1,1.064-.873,2.425,2.425,0,0,1,1.888.176l4.864,2.808a1,1,0,0,1,0,1.732L33.368,42.556A2.773,2.773,0,0,1,32,42.9ZM18.246,33.1l13.387,7.728a.955.955,0,0,0,.735,0L45.755,33.1l-3.364-1.942a.47.47,0,0,0-.228-.015,3.553,3.553,0,0,1-1.352,1.3,7.185,7.185,0,0,1-7.074-.257,2.8,2.8,0,0,1-1.277-2.231,2.77,2.77,0,0,1,1.225-2.226h0a5.176,5.176,0,0,1,1.472-.749L32,25.154,27.642,27.67a2.486,2.486,0,0,1-1.931.173,1.629,1.629,0,0,1-1.022-.859,1.706,1.706,0,0,0-.939-.753,5.49,5.49,0,0,0-4.1.018c-.678.313-.931.677-.941.894-.011.239.248.541.675.788a4.237,4.237,0,0,0,1.445.476,1.7,1.7,0,0,1,1.531,1.27,1.4,1.4,0,0,1-.746,1.476Z" fill="#27ae60"/><path d="M47.754,34.094a.99.99,0,0,1-.5-.134L42.39,31.152a.5.5,0,0,0-.228-.015,3.542,3.542,0,0,1-1.351,1.3,7.188,7.188,0,0,1-7.074-.256,2.8,2.8,0,0,1-1.277-2.231,2.766,2.766,0,0,1,1.224-2.226,5.177,5.177,0,0,1,1.472-.75L31.5,24.865a1,1,0,0,1,0-1.732l4.858-2.806a2.49,2.49,0,0,1,1.93-.173,1.631,1.631,0,0,1,1.023.859,1.706,1.706,0,0,0,.939.754h0a5.5,5.5,0,0,0,4.1-.018c.678-.313.931-.677.941-.894.011-.24-.248-.542-.676-.788a4.183,4.183,0,0,0-1.443-.476,1.7,1.7,0,0,1-1.532-1.271,1.4,1.4,0,0,1,.746-1.475l4.864-2.808a1,1,0,0,1,1,0l14.887,8.6a1.516,1.516,0,0,1,0,2.733l-14.886,8.6A.99.99,0,0,1,47.754,34.094Zm-5.506-4.963a2.3,2.3,0,0,1,1.142.289l4.364,2.519L61.508,24,47.754,16.058,44.6,17.882a5.46,5.46,0,0,1,1.024.453,2.929,2.929,0,0,1,1.674,2.612,3.19,3.19,0,0,1-2.1,2.619,7.479,7.479,0,0,1-5.753.028h0A3.815,3.815,0,0,1,37.59,22.04a.514.514,0,0,0-.235.021L34,24l3.358,1.938a1.411,1.411,0,0,1,.749,1.494,1.657,1.657,0,0,1-1.5,1.25,3.891,3.891,0,0,0-1.729.646.873.873,0,0,0-.422.61.91.91,0,0,0,.449.626,5.219,5.219,0,0,0,4.9.144,1.5,1.5,0,0,0,.627-.589,1.7,1.7,0,0,1,1.064-.874A2.481,2.481,0,0,1,42.248,29.131Z" fill="#27ae60"/><path d="M1,25a1,1,0,0,1-1-1,1.579,1.579,0,0,1,.86-1.366l14.886-8.6a1,1,0,0,1,1,0l4.864,2.808a.468.468,0,0,0,.228.015,3.534,3.534,0,0,1,1.353-1.3,7.184,7.184,0,0,1,7.072.257,2.8,2.8,0,0,1,1.277,2.231,2.766,2.766,0,0,1-1.223,2.225,5.172,5.172,0,0,1-1.473.751L32,22.844l4.358-2.517a2.494,2.494,0,0,1,1.93-.173,1.63,1.63,0,0,1,1.023.86,1.706,1.706,0,0,0,.939.753,5.49,5.49,0,0,0,4.1-.018c.678-.313.931-.677.941-.894.011-.24-.248-.541-.675-.788a4.2,4.2,0,0,0-1.445-.476,1.7,1.7,0,0,1-1.531-1.271,1.4,1.4,0,0,1,.746-1.475l4.864-2.808a1,1,0,0,1,1,0l14.887,8.6A1.582,1.582,0,0,1,64,24a1,1,0,0,1-1.95.314l-14.3-8.254L44.6,17.882a5.47,5.47,0,0,1,1.025.453,2.93,2.93,0,0,1,1.673,2.612,3.19,3.19,0,0,1-2.1,2.619,7.475,7.475,0,0,1-5.753.027A3.8,3.8,0,0,1,37.59,22.04a.509.509,0,0,0-.235.021l-4.855,2.8a1,1,0,0,1-1,0l-4.858-2.8a1.41,1.41,0,0,1-.749-1.493,1.654,1.654,0,0,1,1.5-1.251,3.89,3.89,0,0,0,1.731-.646.874.874,0,0,0,.421-.609.908.908,0,0,0-.45-.626,5.22,5.22,0,0,0-4.9-.145,1.5,1.5,0,0,0-.628.589,1.7,1.7,0,0,1-1.065.875,2.429,2.429,0,0,1-1.887-.176l-4.364-2.52L1.95,24.313A1,1,0,0,1,1,25Z" fill="#27ae60"/><path d="M32,50.1a2.757,2.757,0,0,1-1.366-.343L.859,32.566A1.582,1.582,0,0,1,0,31.2V24a1.581,1.581,0,0,1,.86-1.367l14.886-8.6a1,1,0,0,1,1,0l4.864,2.808a1.009,1.009,0,0,0,.142.02c.025,0,.054,0,.081,0a3.41,3.41,0,0,1,1.175-1.192c.078-.054.131-.088.189-.122a5.376,5.376,0,0,1,.823-.382,7.154,7.154,0,0,1,6.243.643,3.3,3.3,0,0,1,.913.97,2.479,2.479,0,0,1,.348,1.061c0,.022.006.045.007.068s.007.063.008.09a1.11,1.11,0,0,1-.005.15v4.421l.466.268,4.358-2.516a2.458,2.458,0,0,1,1.905-.181,1.635,1.635,0,0,1,1.048.867,1.538,1.538,0,0,0,.743.647l.1.056a1.058,1.058,0,0,0,.095.05,4.6,4.6,0,0,0,1.374.347V18.094a1.411,1.411,0,0,1,.767-1.249l4.865-2.808a1,1,0,0,1,1,0l14.887,8.6A1.582,1.582,0,0,1,64,24v7.2a1.582,1.582,0,0,1-.859,1.367L33.368,49.756A2.762,2.762,0,0,1,32,50.1ZM2,30.915,31.633,48.024a.965.965,0,0,0,.735,0L62,30.915V24.283L47.754,16.058l-4.133,2.385v4.7a1,1,0,0,1-.951,1,7.228,7.228,0,0,1-3.236-.545c-.093-.041-.177-.086-.261-.133a3.785,3.785,0,0,1-1.582-1.418.493.493,0,0,0-.237.019l-4.855,2.8a1,1,0,0,1-1,0l-1.466-.845a1,1,0,0,1-.5-.866V18.066l0-.021a.481.481,0,0,0-.072-.232,1.387,1.387,0,0,0-.371-.379,5.173,5.173,0,0,0-4.377-.386,3.384,3.384,0,0,0-.523.242c-.01.008-.094.065-.105.072a1.337,1.337,0,0,0-.523.516,1.689,1.689,0,0,1-1.023.862,2.506,2.506,0,0,1-.368.092,2.536,2.536,0,0,1-.385.034.514.514,0,0,1-.056,0,2.483,2.483,0,0,1-.628-.087,2.12,2.12,0,0,1-.491-.2l-4.365-2.52L2,24.283Z" fill="#0E352C"/><rect width="64" height="64" fill="none"/></svg>