<svg xmlns="http://www.w3.org/2000/svg" width="64" height="64" viewBox="0 0 64 64"><path d="M26.361,64c-12.408,0-22.5-6.017-22.5-13.414V13.415C3.858,6.018,13.953,0,26.361,0s22.5,6.018,22.5,13.415V50.586C48.863,57.983,38.769,64,26.361,64Zm0-62c-11.305,0-20.5,5.121-20.5,11.415V50.586c0,6.294,9.2,11.414,20.5,11.414s20.5-5.12,20.5-11.414V13.415C46.863,7.121,37.666,2,26.361,2Z" fill="#0E352C"/><path d="M26.361,24.859c-7.891,0-14.741-2.644-17.45-6.736a1,1,0,0,1,0-1.1c2.708-4.092,9.558-6.736,17.45-6.736s14.742,2.644,17.45,6.736a1,1,0,0,1,0,1.1C41.1,22.215,34.254,24.859,26.361,24.859ZM10.985,17.571c2.589,3.186,8.631,5.288,15.376,5.288s12.788-2.1,15.375-5.288c-2.587-3.186-8.629-5.288-15.375-5.288S13.573,14.385,10.985,17.571Z" fill="#27ae60"/><path d="M26.361,24.859c-10.446,0-18.629-4.588-18.629-10.444S15.915,3.971,26.361,3.971,44.989,8.558,44.989,14.415,36.807,24.859,26.361,24.859Zm0-18.888c-9.013,0-16.629,3.867-16.629,8.444s7.616,8.444,16.629,8.444,16.628-3.867,16.628-8.444S35.375,5.971,26.361,5.971Z" fill="#0E352C"/><path d="M13.27,28.054a1,1,0,0,1-1-1,7.315,7.315,0,0,1,3.137-5.9,2.819,2.819,0,0,1,2.57-.32,2.3,2.3,0,0,1,1.271,1.778A1,1,0,1,1,17.287,23a.714.714,0,0,0-.137-.352,1.215,1.215,0,0,0-.743.232,5.389,5.389,0,0,0-2.137,4.171A1,1,0,0,1,13.27,28.054Z" fill="#0E352C"/><path d="M16.947,54.013a2.2,2.2,0,0,1-1.092-.312l-5.466-3.156a4.524,4.524,0,0,1-1.983-3.7V38.689a5.257,5.257,0,0,1,.846-3.075l2.183-3.057a1.847,1.847,0,0,1,1.773-.785,3.807,3.807,0,0,1,2.72,2.588l2.183,5.578a10.094,10.094,0,0,1,.727,3.619v8.157a2.273,2.273,0,0,1-1.012,2.065A1.743,1.743,0,0,1,16.947,54.013ZM13.024,33.772l-2.145,3a3.377,3.377,0,0,0-.473,1.913v8.157a2.568,2.568,0,0,0,.984,1.967l5.428,3.135a1.28,1.28,0,0,0,.02-.234V43.557a8.089,8.089,0,0,0-.59-2.891l-2.184-5.577A2.306,2.306,0,0,0,13.024,33.772Z" fill="#0E352C"/><path d="M13.27,35.989a1,1,0,0,1-1-1V27.054a1,1,0,0,1,2,0v7.935A1,1,0,0,1,13.27,35.989Z" fill="#0E352C"/><path d="M47.863,44.923a1,1,0,0,1-1-1v-7.6a1,1,0,0,1,.292-.707,17.594,17.594,0,0,0,4.691-11.326c0-2.035-.594-3.335-1-3.335a2.825,2.825,0,0,0-1.319.47,7.771,7.771,0,0,0-1.027.73,1,1,0,0,1-1.634-.774V14.205a1,1,0,0,1,.669-.944,10.063,10.063,0,0,1,3.311-.6c4.629,0,9.3,3.6,9.3,11.631,0,7.73-4.664,16.477-10.617,19.914a13.085,13.085,0,0,1-1.255.636A1.008,1.008,0,0,1,47.863,44.923Zm1-8.2v5.543c5.231-3.246,9.279-11.047,9.279-17.98,0-6.653-3.666-9.631-7.3-9.631a7.565,7.565,0,0,0-1.98.284v4.566a4.42,4.42,0,0,1,1.98-.554c1.824,0,3,2.095,3,5.335A19.588,19.588,0,0,1,48.863,36.724Z" fill="#0E352C"/><rect width="64" height="64" fill="none"/></svg>