<svg xmlns="http://www.w3.org/2000/svg" width="64" height="64" viewBox="0 0 64 64"><path d="M27.192,26.86a6.9,6.9,0,0,1-2.605-.507,9.438,9.438,0,0,1-5.468-5.137c-1.916-4.591.238-9.847.331-10.068a1,1,0,0,1,1.845.77c-.019.047-1.924,4.725-.326,8.537A7.51,7.51,0,0,0,25.336,24.5c3.305,1.334,6.534-1.542,6.566-1.572A1,1,0,0,1,33.251,24.4,9.931,9.931,0,0,1,27.192,26.86Z" fill="#0E352C"/><path d="M45.835,30.57c-8.041,0-13.738-6.174-14-6.463a1,1,0,0,1,1.481-1.344c.063.07,6.449,6.965,14.7,5.631,9.958-1.608,10.647-11.068,10.653-11.163a1,1,0,1,1,2,.121c-.007.111-.811,11.156-12.33,13.016A15.611,15.611,0,0,1,45.835,30.57Z" fill="#0E352C"/><path d="M40.877,25.662A30.622,30.622,0,0,1,25.9,22.08c-4.2-2.428-6.524-5.717-6.529-9.261,0-3.525,2.282-6.8,6.439-9.213C34.033-1.172,47.449-1.174,55.72,3.6c4.211,2.431,6.533,5.722,6.538,9.267,0,3.523-2.282,6.795-6.441,9.212A30.411,30.411,0,0,1,40.877,25.662Zm-.124-23.67A28.356,28.356,0,0,0,26.816,5.335c-3.514,2.043-5.448,4.7-5.444,7.481,0,2.8,1.967,5.476,5.529,7.532,7.72,4.457,20.242,4.459,27.911,0,3.516-2.043,5.45-4.7,5.446-7.479,0-2.8-1.971-5.478-5.538-7.537A28.56,28.56,0,0,0,40.753,1.992Z" fill="#27ae60"/><path d="M46.55,50,29.344,40.065c-8.348-4.56-14.439-12.8-14.439-20.41L1.27,27.528c0,11.237,10.127,17.931,14.452,20.426l17.193,9.92Z" fill="none"/><path d="M40.814,47.69a1,1,0,0,1-1-1V29.381a1,1,0,1,1,2,0V46.69A1,1,0,0,1,40.814,47.69Z" fill="#0E352C"/><path d="M34.905,44.263a1,1,0,0,1-.977-.792l-1.085-5.116-6.429-3.712-1.076,2.5A1,1,0,1,1,23.5,36.35l1.52-3.53a1,1,0,0,1,1.419-.471l7.788,4.5a1.006,1.006,0,0,1,.479.659l1.178,5.552a1,1,0,0,1-.772,1.185A.919.919,0,0,1,34.905,44.263Z" fill="#0E352C"/><path d="M32.923,64a1,1,0,0,1-1-1V57.874a1,1,0,0,1,2,0V63A1,1,0,0,1,32.923,64Z" fill="#0E352C"/><path d="M46.55,56.146a1,1,0,0,1-1-1V50.02a1,1,0,1,1,2,0v5.126A1,1,0,0,1,46.55,56.146Z" fill="#0E352C"/><path d="M32.576,24.666a1,1,0,0,1-.951-1.311C38.454,2.442,45.429.493,45.723.42a1,1,0,1,1,.48,1.942c-.041.012-6.293,2.065-12.677,21.614A1,1,0,0,1,32.576,24.666Z" fill="#27ae60"/><path d="M37.4,56.146a1,1,0,0,1-.5-.134L20.016,46.269C13.2,42.334,5.064,35.446,5.064,24.977a1,1,0,0,1,2,0c0,9.514,7.587,15.888,13.951,19.56L37.9,54.28a1,1,0,0,1-.5,1.866Z" fill="#27ae60"/><path d="M41.949,53.383a.992.992,0,0,1-.5-.134L24.6,43.529C17.783,39.594,9.652,32.706,9.652,22.237a1,1,0,0,1,2,0c0,9.515,7.587,15.888,13.951,19.56L42.45,51.516a1,1,0,0,1-.5,1.867Z" fill="#27ae60"/><path d="M20.508,56.814a1,1,0,0,1-.977-.793l-2.1-9.883-5.567-4.171L8.543,48.8a1,1,0,0,1-1.8-.874L10.6,40a1,1,0,0,1,1.5-.363l6.837,5.122a1,1,0,0,1,.378.593l2.176,10.25a1,1,0,0,1-.771,1.186A.987.987,0,0,1,20.508,56.814Z" fill="#0E352C"/><path d="M32.915,58.874a1,1,0,0,1-.5-.134L15.222,48.82C8.4,44.885.27,38,.27,27.528a1,1,0,0,1,.5-.867l13.635-7.872a1,1,0,0,1,1.5.866c0,7.024,5.723,15.056,13.918,19.533L47.05,49.136a1,1,0,0,1,0,1.732L33.415,58.74A1,1,0,0,1,32.915,58.874ZM2.279,28.1c.3,9.2,7.706,15.39,13.942,18.988l16.694,9.631L44.55,50,28.844,40.931C20.55,36.4,14.773,28.7,14,21.336Z" fill="#0E352C"/><path d="M59.533,18.635a1,1,0,0,1-.736-.323c-6.982-7.6-15.2-11.446-24.416-11.446h-.119A30.858,30.858,0,0,0,22.317,9.233a1,1,0,0,1-.862-1.805c.208-.1,21.075-9.768,38.815,9.531a1,1,0,0,1-.737,1.676Z" fill="#27ae60"/><path d="M45.827,30.571c-6.34,0-11.219-3.832-13.193-5.671-1.312.966-4.534,2.871-8.047,1.453a9.438,9.438,0,0,1-5.468-5.137c-1.916-4.591.238-9.847.331-10.068a.972.972,0,0,1,.165-.267c.688-2.775,2.866-5.339,6.2-7.275C34.034-1.172,47.449-1.174,55.72,3.6,59.091,5.547,61.3,8.119,62,10.906a1,1,0,0,1,.153.264c2.29,5.869,1.625,7.389.79,8.058a2.409,2.409,0,0,1-2.6.034,14.171,14.171,0,0,1-12.01,11.106A15.721,15.721,0,0,1,45.827,30.571ZM32.566,22.65a.993.993,0,0,1,.246.031l.287.078a1,1,0,0,1,.468.264c1.11,1.106,7.015,6.57,14.453,5.371A12.236,12.236,0,0,0,58.636,17.566a1,1,0,0,1,1.55-.7,4.24,4.24,0,0,0,1.5.747c.076-.321.168-1.537-1.145-5.066a1,1,0,0,1-.367-.623c-.4-2.449-2.335-4.79-5.455-6.59C47,.877,34.485.879,26.816,5.336,23.773,7.1,21.873,9.4,21.463,11.806a1,1,0,0,1-.345.6c-.438,1.3-1.444,4.96-.149,8.05A7.513,7.513,0,0,0,25.336,24.5c2.982,1.2,5.906-1.022,6.469-1.489A1,1,0,0,1,32.566,22.65Z" fill="#0E352C"/><rect width="64" height="64" fill="none"/></svg>