<svg xmlns="http://www.w3.org/2000/svg" width="64" height="64.001" viewBox="0 0 64 64.001"><path d="M51.235,20.409A.967.967,0,0,1,51,20.38a1,1,0,0,1-.746-1.149v-.005a1.012,1.012,0,0,1,1.073-.818,1,1,0,0,1,.88,1.24h0c0,.019-.01.038-.015.056A1,1,0,0,1,51.235,20.409Z" fill="#0E352C"/><path d="M19.692,20.4a1,1,0,1,1-.009-2h.009a1,1,0,0,1,0,2Z" fill="#0E352C"/><path d="M35.408,63.983a18.569,18.569,0,0,1-9.077-2.171C23.718,60.3,22.273,58.242,22.257,56L18.77,20.434a1,1,0,0,1,1.979-.276c.324,1.789,1.774,3.509,4.083,4.842,5.9,3.406,15.462,3.408,21.315,0h0c2.245-1.3,3.665-2.991,4-4.75a1,1,0,0,1,1.978.289L48.468,56.125c0,2.131-1.428,4.187-4.012,5.688A18.406,18.406,0,0,1,35.408,63.983Zm-14.2-39.195,3.046,31.068c0,.033.005.066.005.1,0,1.512,1.088,2.977,3.074,4.123,4.462,2.576,11.693,2.579,16.12.005,1.944-1.13,3.018-2.573,3.022-4.064l3.2-31.148a13.314,13.314,0,0,1-2.517,1.863h0c-6.409,3.724-16.871,3.722-23.321,0A13.4,13.4,0,0,1,21.206,24.788Z" fill="#0E352C"/><path d="M35.513,29.526a23.882,23.882,0,0,1-11.681-2.794c-3.591-2.073-5.457-5.008-5.121-8.053A1,1,0,1,1,20.7,18.9c-.245,2.22,1.261,4.444,4.133,6.1,5.9,3.406,15.462,3.408,21.315,0,2.64-1.533,4.092-3.514,4.089-5.577,0-2.079-1.48-4.077-4.159-5.623-4.336-2.5-10.807-3.238-16.483-1.873a1,1,0,0,1-.467-1.945c6.144-1.478,13.193-.66,17.95,2.085,3.323,1.919,5.155,4.53,5.159,7.353,0,2.806-1.8,5.4-5.083,7.31A23.687,23.687,0,0,1,35.513,29.526Z" fill="#0E352C"/><path d="M14.751,33.024A6.092,6.092,0,0,1,11.125,31.9c-.076-.054-.149-.111-.223-.169a1.032,1.032,0,0,1-.259-.106L8.427,30.336C6.216,29.051,4.993,26.445,4.983,23,4.964,16.275,9.7,8.06,15.549,4.685c3.036-1.754,5.942-2,8.182-.7l3.046,1.789c2.3,1.256,3.574,3.892,3.584,7.424a20.832,20.832,0,0,1-2.412,9.2,1,1,0,0,1-1.285.466l-6.039-2.588-.333,10.392a1,1,0,0,1-.5.834A10.222,10.222,0,0,1,14.751,33.024Zm-3.5-3.359a1,1,0,0,1,.643.274,3.772,3.772,0,0,0,.4.338c1.489,1.073,3.662.981,6.017-.238l.363-11.287a1,1,0,0,1,1.392-.886l6.507,2.788a18.281,18.281,0,0,0,1.788-7.449c-.008-2.775-.915-4.792-2.552-5.681l-.031-.016-3.056-1.8c-1.589-.925-3.785-.674-6.173.705C11.257,9.473,6.966,16.908,6.983,22.992c.008,2.708.877,4.7,2.448,5.614Z" fill="#0E352C"/><path d="M51.235,20.409A.967.967,0,0,1,51,20.38a1,1,0,0,1-.746-1.149v-.005a1.012,1.012,0,0,1,1.073-.818,1,1,0,0,1,.88,1.24h0c0,.019-.01.038-.015.056A1,1,0,0,1,51.235,20.409Z" fill="#0E352C"/><path d="M19.692,20.4a1,1,0,1,1-.009-2h.009a1,1,0,0,1,0,2Z" fill="#0E352C"/><path d="M35.408,63.983a18.569,18.569,0,0,1-9.077-2.171C23.718,60.3,22.273,58.242,22.257,56L18.77,20.434a1,1,0,0,1,1.979-.276c.324,1.789,1.774,3.509,4.083,4.842,5.9,3.406,15.462,3.408,21.315,0h0c2.245-1.3,3.665-2.991,4-4.75a1,1,0,0,1,1.978.289L48.468,56.125c0,2.131-1.428,4.187-4.012,5.688A18.406,18.406,0,0,1,35.408,63.983Zm-14.2-39.195,3.046,31.068c0,.033.005.066.005.1,0,1.512,1.088,2.977,3.074,4.123,4.462,2.576,11.693,2.579,16.12.005,1.944-1.13,3.018-2.573,3.022-4.064l3.2-31.148a13.314,13.314,0,0,1-2.517,1.863h0c-6.409,3.724-16.871,3.722-23.321,0A13.4,13.4,0,0,1,21.206,24.788Z" fill="#0E352C"/><path d="M35.422,59.533a13.62,13.62,0,0,1-6.689-1.627c-1.968-1.137-3.06-2.7-3.079-4.414L23.073,28.657a1,1,0,0,1,1.99-.207l2.586,24.885c0,.035,0,.07,0,.106,0,.987.736,1.957,2.079,2.733a12.719,12.719,0,0,0,11.351,0c1.314-.763,2.039-1.719,2.042-2.692a.924.924,0,0,1,.006-.1l2.715-24.935a1,1,0,1,1,1.988.217l-2.71,24.886c-.028,1.69-1.1,3.237-3.036,4.359A13.509,13.509,0,0,1,35.422,59.533Z" fill="#27ae60"/><path d="M35.5,35.063a17.444,17.444,0,0,1-8.566-2.084,1,1,0,1,1,1-1.733,16.663,16.663,0,0,0,15.1.005,1,1,0,0,1,1,1.729A17.305,17.305,0,0,1,35.5,35.063Z" fill="#27ae60"/><path d="M24.068,29.553a1,1,0,0,1-1-.992c-.015-2.139,1.336-4.106,3.807-5.542a18.59,18.59,0,0,1,17.1,0c2.478,1.43,3.849,3.392,3.862,5.525a1,1,0,0,1-.994,1.006,1.026,1.026,0,0,1-1.006-.994c-.008-1.393-1.025-2.744-2.862-3.8a16.655,16.655,0,0,0-15.1,0c-1.823,1.059-2.822,2.407-2.812,3.8a1,1,0,0,1-.992,1.007Z" fill="#27ae60"/><path d="M39.708,29.121a.986.986,0,0,1-.2-.02,1,1,0,0,1-.779-1.181l4.88-23.846A5.084,5.084,0,0,1,49.863.165L58.268,2.34a1,1,0,0,1-.5,1.936L49.361,2.1a3.081,3.081,0,0,0-3.793,2.372L40.686,28.322A1,1,0,0,1,39.708,29.121Z" fill="#0E352C"/><path d="M19.673,19.785a1,1,0,0,1-1-.979l-.139-6.622a1,1,0,0,1,2-.042l.139,6.622a1,1,0,0,1-.98,1.021Z" fill="#27ae60"/><path d="M13.847,24.539a1,1,0,0,1-.635-1.774L25.02,13.1a1,1,0,0,1,1.268,1.548L14.479,24.313A1,1,0,0,1,13.847,24.539Z" fill="#27ae60"/><path d="M17.252,28.489a4.165,4.165,0,0,1-2.3-.661,5.344,5.344,0,0,1-2.118-4.695c-.012-4.479,2.83-9.756,6.469-12.013,1.872-1.16,3.706-1.355,5.164-.546,1.54.854,2.39,2.663,2.4,5.094a17.721,17.721,0,0,1-1.159,5.237,1,1,0,1,1-1.875-.694,15.149,15.149,0,0,0,1.034-4.537c0-1.65-.5-2.871-1.367-3.351-.8-.441-1.911-.265-3.14.5-3,1.863-5.533,6.583-5.523,10.308a3.46,3.46,0,0,0,1.209,3.023,2.947,2.947,0,0,0,2.814-.041,1,1,0,1,1,.807,1.83A6.009,6.009,0,0,1,17.252,28.489Z" fill="#27ae60"/><path d="M35.513,29.526a23.882,23.882,0,0,1-11.681-2.794c-3.591-2.073-5.457-5.008-5.121-8.053A1,1,0,1,1,20.7,18.9c-.245,2.22,1.261,4.444,4.133,6.1,5.9,3.406,15.462,3.408,21.315,0,2.64-1.533,4.092-3.514,4.089-5.577,0-2.079-1.48-4.077-4.159-5.623-4.336-2.5-10.807-3.238-16.483-1.873a1,1,0,0,1-.467-1.945c6.144-1.478,13.193-.66,17.95,2.085,3.323,1.919,5.155,4.53,5.159,7.353,0,2.806-1.8,5.4-5.083,7.31A23.687,23.687,0,0,1,35.513,29.526Z" fill="#0E352C"/><path d="M14.751,33.024A6.092,6.092,0,0,1,11.125,31.9h0c-1.9-1.372-2.957-3.869-2.966-7.031C8.139,18.144,12.88,9.926,18.727,6.55c2.961-1.71,5.815-1.987,8.035-.783,2.31,1.252,3.589,3.892,3.6,7.432a20.832,20.832,0,0,1-2.412,9.2,1,1,0,0,1-1.285.466l-6.039-2.588-.334,10.392a1,1,0,0,1-.5.834A10.219,10.219,0,0,1,14.751,33.024Zm-2.458-2.748c1.491,1.074,3.663.982,6.018-.237l.363-11.287a1,1,0,0,1,1.392-.886l6.507,2.788a18.281,18.281,0,0,0,1.788-7.449c-.008-2.775-.915-4.792-2.552-5.681-1.587-.859-3.748-.59-6.082.758-5.294,3.056-9.586,10.494-9.569,16.581.007,2.5.765,4.427,2.136,5.413Z" fill="#27ae60"/><path d="M14.751,33.024A6.092,6.092,0,0,1,11.125,31.9c-.076-.054-.149-.111-.223-.169a1.032,1.032,0,0,1-.259-.106L8.427,30.336C6.216,29.051,4.993,26.445,4.983,23,4.964,16.275,9.7,8.06,15.549,4.685c3.036-1.754,5.942-2,8.182-.7l3.046,1.789c2.3,1.256,3.574,3.892,3.584,7.424a20.832,20.832,0,0,1-2.412,9.2,1,1,0,0,1-1.285.466l-6.039-2.588-.333,10.392a1,1,0,0,1-.5.834A10.222,10.222,0,0,1,14.751,33.024Zm-3.5-3.359a1,1,0,0,1,.643.274,3.772,3.772,0,0,0,.4.338c1.489,1.073,3.662.981,6.017-.238l.363-11.287a1,1,0,0,1,1.392-.886l6.507,2.788a18.281,18.281,0,0,0,1.788-7.449c-.008-2.775-.915-4.792-2.552-5.681l-.031-.016-3.056-1.8c-1.589-.925-3.785-.674-6.173.705C11.257,9.473,6.966,16.908,6.983,22.992c.008,2.708.877,4.7,2.448,5.614Z" fill="#0E352C"/><rect y="0.001" width="64" height="64" fill="none"/></svg>