<svg xmlns="http://www.w3.org/2000/svg" width="64" height="64" viewBox="0 0 64 64"><rect width="64" height="64" fill="none"/><path d="M13.84,64a1.022,1.022,0,0,1-.256-.033A1,1,0,0,1,12.84,63l-.127-39.169a1.031,1.031,0,0,1-.012-.158l.006-2.093a4.659,4.659,0,0,1,2.947-4.33L41.843,2.133a1,1,0,0,1,1,1.733L16.589,19.024a1.172,1.172,0,0,1-.143.068,2.671,2.671,0,0,0-1.739,2.5L14.7,23.506a.99.99,0,0,1,.011.145l.115,35.607L15.89,57.4a1,1,0,0,1,1.374-.367l2.068,1.213,2.437-4.241a1,1,0,0,1,1.372-.365L25.2,54.848l2.439-4.319a1,1,0,0,1,1.395-.359L31.1,51.439l2.424-4.222a1,1,0,0,1,1.373-.364l2.07,1.213L39.4,43.824a1,1,0,0,1,1.373-.364L42.2,44.3l-.117-36.5a1,1,0,0,1,1-1h0a1,1,0,0,1,1,1l.123,38.255a1,1,0,0,1-1.506.866L40.633,45.7,38.2,49.936a1,1,0,0,1-1.373.365l-2.069-1.213-2.436,4.241a1,1,0,0,1-1.391.354l-2.055-1.266-2.428,4.3a1,1,0,0,1-1.376.371L23,55.875l-2.436,4.241a1,1,0,0,1-1.373.365L17.124,59.27,14.708,63.5A1,1,0,0,1,13.84,64Z" fill="#27ae60"/><path d="M20.935,21.577a1,1,0,0,1-.961-.723,2.674,2.674,0,0,0-1.239-1.583,2.642,2.642,0,0,0-2.191-.224,1,1,0,0,1-.82-1.813L44.272.728a4.685,4.685,0,0,1,6.984,2.607A1,1,0,0,1,50.8,4.49L21.435,21.444A1.009,1.009,0,0,1,20.935,21.577Zm-1.481-4.189c.094.047.189.1.282.151A4.67,4.67,0,0,1,21.4,19.157L49.013,3.212a2.676,2.676,0,0,0-.9-.847,2.647,2.647,0,0,0-2.8.069Z" fill="#27ae60"/><path d="M26.173,39.536a1.5,1.5,0,0,1-.752-2.8l6.061-3.5a1.5,1.5,0,0,1,1.5,2.6l-6.061,3.5A1.486,1.486,0,0,1,26.173,39.536Z" fill="#27ae60"/><path d="M13.84,64a1.022,1.022,0,0,1-.256-.033A1,1,0,0,1,12.84,63l-.127-39.169a1.022,1.022,0,0,1-.012-.158l.006-2.093a4.659,4.659,0,0,1,2.946-4.33L44.272.728a4.685,4.685,0,0,1,6.984,2.607A1,1,0,0,1,50.8,4.49L44.086,8.366l.121,37.675a1,1,0,0,1-1.506.866L40.633,45.7,38.2,49.936a1,1,0,0,1-1.373.365l-2.068-1.212L32.319,53.33a1,1,0,0,1-1.391.353l-2.055-1.265-2.428,4.3a1,1,0,0,1-1.376.371L23,55.875l-2.436,4.241a1,1,0,0,1-1.372.365L17.124,59.27,14.708,63.5A1,1,0,0,1,13.84,64ZM14.7,23.506a.99.99,0,0,1,.011.145l.115,35.607L15.89,57.4a1,1,0,0,1,1.374-.367l2.068,1.213,2.437-4.241a1,1,0,0,1,1.372-.365L25.2,54.848l2.439-4.319a1,1,0,0,1,1.395-.359L31.1,51.44l2.424-4.222a1,1,0,0,1,1.373-.365l2.069,1.213L39.4,43.824a1,1,0,0,1,1.373-.364L42.2,44.3l-.117-36.5a1,1,0,0,1,.5-.869l6.429-3.712a2.676,2.676,0,0,0-.9-.847,2.647,2.647,0,0,0-2.8.069L16.589,19.024a1.172,1.172,0,0,1-.143.068,2.671,2.671,0,0,0-1.739,2.5Z" fill="#0E352C"/><path d="M26.562,26.443l-.1-.057a.723.723,0,0,0-.983.266l-.419.723a.723.723,0,0,1-.983.265l-.016-.009a.724.724,0,0,0-.984.267l-.317.549a.724.724,0,0,0,.268.99h0a.723.723,0,0,1,.268.989l-.279.484a.724.724,0,0,0,.269.99l.1.055a.723.723,0,0,0,.984-.267l.286-.5a.722.722,0,0,1,.984-.267l.015.008a.722.722,0,0,0,.983-.266l.317-.55a.721.721,0,0,0-.268-.989h0a.723.723,0,0,1-.267-.99l.408-.705A.723.723,0,0,0,26.562,26.443Z" fill="#0E352C"/><path d="M34.644,21.747l-.1-.056a.723.723,0,0,0-.983.266l-.419.723a.723.723,0,0,1-.983.265l-.016-.009a.721.721,0,0,0-.983.267l-.318.549a.723.723,0,0,0,.268.989h0a.723.723,0,0,1,.268.989l-.279.484a.723.723,0,0,0,.269.989l.1.056a.723.723,0,0,0,.984-.267l.286-.5a.722.722,0,0,1,.984-.267l.015.008a.721.721,0,0,0,.983-.267l.318-.549a.722.722,0,0,0-.269-.989h0a.724.724,0,0,1-.267-.991l.408-.7A.722.722,0,0,0,34.644,21.747Z" fill="#0E352C"/></svg>