<svg xmlns="http://www.w3.org/2000/svg" width="64" height="64" viewBox="0 0 64 64"><rect width="64" height="64" fill="none"/><path d="M32.049,58.67a23.25,23.25,0,0,1-11.373-2.721c-3.242-1.872-5.031-4.42-5.034-7.176,0-2.74,1.757-5.273,4.96-7.135,6.246-3.63,16.439-3.631,22.724,0h0c3.241,1.872,5.028,4.42,5.032,7.177,0,2.74-1.757,5.274-4.961,7.136A23.1,23.1,0,0,1,32.049,58.67Zm-.1-17.784a21.044,21.044,0,0,0-10.346,2.482c-2.56,1.487-3.968,3.406-3.965,5.4,0,2.012,1.435,3.947,4.034,5.447,5.729,3.309,15.022,3.31,20.717,0,2.56-1.487,3.968-3.407,3.965-5.4,0-2.014-1.434-3.948-4.032-5.448h0A21.212,21.212,0,0,0,31.953,40.886Z" fill="#27ae60"/><path d="M32.034,63.982A23.257,23.257,0,0,1,20.66,61.261c-3.254-1.878-5.041-4.437-5.033-7.2l.015-5.311q0-.035,0-.069c.036-2.7,1.792-5.2,4.957-7.04a1,1,0,0,1,1,1.73c-2.558,1.487-3.966,3.405-3.963,5.4v0c0,.022,0,.044,0,.066l-.015,5.227c-.006,2.019,1.427,3.96,4.033,5.465,5.731,3.309,15.025,3.31,20.716,0,2.553-1.483,3.962-3.4,3.968-5.386l.012-4.611a1,1,0,0,1-.031-.351h0c.184-2.121-1.273-4.24-4-5.814a1,1,0,0,1,1-1.732c3.146,1.816,4.937,4.335,5.013,7a1.012,1.012,0,0,1,.019.2v.012l-.014,5.3c-.008,2.73-1.771,5.255-4.962,7.11A23.1,23.1,0,0,1,32.034,63.982Z" fill="#0E352C"/><path d="M32.008,55.448a16.38,16.38,0,0,1-8.049-1.958C21.4,52.011,20.084,49.9,20.346,47.7V45.558a11.638,11.638,0,0,1,6.542-10.479A11.637,11.637,0,0,1,20.346,24.6V21.588a1,1,0,0,1,1.489-.872c5.614,3.147,14.743,3.16,20.348.027a1,1,0,0,1,1.488.873V24.6A11.636,11.636,0,0,1,37.13,35.079a11.637,11.637,0,0,1,6.541,10.479l-.037,3.236c.015,2.277-1.808,3.656-3.594,4.694A16.27,16.27,0,0,1,32.008,55.448ZM22.346,23.2v1.4a9.642,9.642,0,0,0,5.922,8.908,1.7,1.7,0,0,1,0,3.14,9.643,9.643,0,0,0-5.922,8.909v2.2a.98.98,0,0,1-.009.133c-.186,1.388.77,2.8,2.622,3.867a15.526,15.526,0,0,0,14.076,0c2.166-1.259,2.607-2.124,2.6-3.034l.037-.542,0-2.625a9.642,9.642,0,0,0-5.921-8.909,1.7,1.7,0,0,1,0-3.14A9.642,9.642,0,0,0,41.671,24.6V23.227A25.7,25.7,0,0,1,22.346,23.2Z" fill="#0E352C"/><path d="M32.063,19.774A23.253,23.253,0,0,1,20.69,17.053c-3.242-1.872-5.03-4.42-5.034-7.176,0-2.74,1.759-5.273,4.962-7.135,6.246-3.629,16.44-3.63,22.723,0h0c3.241,1.872,5.029,4.42,5.033,7.176,0,2.74-1.759,5.275-4.962,7.137A23.1,23.1,0,0,1,32.063,19.774ZM31.969,1.99A21.042,21.042,0,0,0,21.623,4.472c-2.561,1.487-3.969,3.406-3.967,5.4,0,2.012,1.436,3.947,4.034,5.447,5.73,3.309,15.024,3.31,20.716,0,2.562-1.488,3.971-3.407,3.968-5.4,0-2.013-1.436-3.947-4.033-5.447A21.208,21.208,0,0,0,31.969,1.99Z" fill="#27ae60"/><path d="M32.049,25.086a23.25,23.25,0,0,1-11.373-2.721c-3.255-1.879-5.042-4.437-5.034-7.2l.015-5.311V9.8c.028-2.711,1.787-5.216,4.96-7.06,6.244-3.629,16.44-3.631,22.723,0,3.146,1.817,4.937,4.338,5.013,7.005a1.04,1.04,0,0,1,.019.2v.007l-.015,5.308c-.006,2.729-1.769,5.254-4.961,7.11A23.1,23.1,0,0,1,32.049,25.086ZM17.657,9.873l-.015,5.3c-.006,2.019,1.426,3.96,4.034,5.465,5.729,3.309,15.022,3.31,20.717,0,2.551-1.483,3.96-3.4,3.965-5.386l.013-4.615a1,1,0,0,1-.03-.347c.183-2.121-1.275-4.241-4-5.815-5.732-3.309-15.026-3.308-20.718,0-2.56,1.486-3.968,3.4-3.965,5.4Z" fill="#0E352C"/></svg>