<svg xmlns="http://www.w3.org/2000/svg" width="64" height="64" viewBox="0 0 64 64"><path d="M37.3,48.4a6.5,6.5,0,0,1-3.2-.78L1.619,28.872A2.881,2.881,0,0,1,0,26.446,2.88,2.88,0,0,1,1.619,24.02l7.215-4.166a1,1,0,0,1,1,1.733L2.619,25.752c-.456.263-.619.531-.619.694s.163.43.619.693l32.475,18.75a5.2,5.2,0,0,0,4.4,0L61.381,33.254c.456-.263.619-.531.619-.694s-.163-.43-.619-.693L28.906,13.117a5.207,5.207,0,0,0-4.4,0L22.279,14.4a1,1,0,0,1-1-1.732L23.5,11.385a7.17,7.17,0,0,1,6.4,0L62.381,30.134A2.881,2.881,0,0,1,64,32.56a2.883,2.883,0,0,1-1.619,2.427L40.5,47.621A6.5,6.5,0,0,1,37.3,48.4Z" fill="#27ae60"/><path d="M5.179,24.12a1,1,0,0,1-.793-.39,3.192,3.192,0,0,1-.716-2.442,3.848,3.848,0,0,1,1.472-2.364,1,1,0,0,1,1.183,1.611,1.854,1.854,0,0,0-.676,1.045,1.246,1.246,0,0,0,.321.929,1,1,0,0,1-.791,1.611Z" fill="#0E352C"/><path d="M37.3,53.4a6.487,6.487,0,0,1-3.2-.781L1.619,33.866A2.88,2.88,0,0,1,0,31.44V26.446A2.88,2.88,0,0,1,1.619,24.02l7.23-4.174a1,1,0,1,1,1,1.732l-7.23,4.174c-.456.263-.619.531-.619.694V31.44c0,.163.163.43.619.693l32.475,18.75a5.211,5.211,0,0,0,4.4,0L61.381,38.248c.456-.263.619-.531.619-.693V32.561c0-.163-.163-.431-.619-.694L28.906,13.117a5.207,5.207,0,0,0-4.4,0L22.28,14.4a1,1,0,0,1-1-1.733L23.5,11.385a7.17,7.17,0,0,1,6.4,0L62.381,30.134A2.883,2.883,0,0,1,64,32.561v4.994a2.88,2.88,0,0,1-1.619,2.425L40.5,52.615A6.493,6.493,0,0,1,37.3,53.4Z" fill="#0E352C"/><path d="M11.928,24.9a1.023,1.023,0,0,1-.285-.041,1,1,0,0,1-.608-.5c-.021-.043-2.231-4.331-5.07-3.649a1,1,0,0,1-.735-1.839l13.606-7.851a1,1,0,0,1,.7-.114c3.841.781,4.294,4.928,4,7.012a1,1,0,0,1-.49.725L12.427,24.766A1,1,0,0,1,11.928,24.9ZM8.747,19.146a9.667,9.667,0,0,1,3.536,3.393l9.309-5.374c.051-1.051-.054-3.549-2.11-4.215Z" fill="#0E352C"/><polygon points="38.274 24.611 33.124 34.945 25.701 33.7 27.042 30.994 30.904 31.586 34.752 24.061 38.274 24.611" fill="#27ae60"/><rect width="64" height="64" fill="none"/></svg>