<?xml version="1.0" encoding="UTF-8"?>
<svg xmlns="http://www.w3.org/2000/svg" viewBox="0 0 480 480" fill="none" stroke="currentColor" >

  <circle cx="260.0" cy="240.0" r="10" stroke-width="0.6" opacity="0.6"/><circle cx="250.0" cy="257.3" r="10" stroke-width="0.6" opacity="0.6"/><circle cx="230.0" cy="257.3" r="10" stroke-width="0.6" opacity="0.6"/><circle cx="220.0" cy="240.0" r="10" stroke-width="0.6" opacity="0.6"/><circle cx="230.0" cy="222.7" r="10" stroke-width="0.6" opacity="0.6"/><circle cx="250.0" cy="222.7" r="10" stroke-width="0.6" opacity="0.6"/><circle cx="275.3" cy="250.9" r="18.5" stroke-width="0.6" opacity="0.5599999999999999"/><circle cx="248.2" cy="276.1" r="18.5" stroke-width="0.6" opacity="0.5599999999999999"/><circle cx="212.9" cy="265.1" r="18.5" stroke-width="0.6" opacity="0.5599999999999999"/><circle cx="204.7" cy="229.1" r="18.5" stroke-width="0.6" opacity="0.5599999999999999"/><circle cx="231.8" cy="203.9" r="18.5" stroke-width="0.6" opacity="0.5599999999999999"/><circle cx="267.1" cy="214.9" r="18.5" stroke-width="0.6" opacity="0.5599999999999999"/><circle cx="284.6" cy="270.5" r="27" stroke-width="0.6" opacity="0.52"/><circle cx="235.9" cy="293.8" r="27" stroke-width="0.6" opacity="0.52"/><circle cx="191.3" cy="263.4" r="27" stroke-width="0.6" opacity="0.52"/><circle cx="195.4" cy="209.5" r="27" stroke-width="0.6" opacity="0.52"/><circle cx="244.1" cy="186.2" r="27" stroke-width="0.6" opacity="0.52"/><circle cx="288.7" cy="216.6" r="27" stroke-width="0.6" opacity="0.52"/><circle cx="284.1" cy="295.6" r="35.5" stroke-width="0.6" opacity="0.48"/><circle cx="213.9" cy="306.0" r="35.5" stroke-width="0.6" opacity="0.48"/><circle cx="169.8" cy="250.4" r="35.5" stroke-width="0.6" opacity="0.48"/><circle cx="195.9" cy="184.4" r="35.5" stroke-width="0.6" opacity="0.48"/><circle cx="266.1" cy="174.0" r="35.5" stroke-width="0.6" opacity="0.48"/><circle cx="310.2" cy="229.6" r="35.5" stroke-width="0.6" opacity="0.48"/><circle cx="271.9" cy="322.0" r="44" stroke-width="0.6" opacity="0.43999999999999995"/><circle cx="184.9" cy="308.6" r="44" stroke-width="0.6" opacity="0.43999999999999995"/><circle cx="153.0" cy="226.6" r="44" stroke-width="0.6" opacity="0.43999999999999995"/><circle cx="208.1" cy="158.0" r="44" stroke-width="0.6" opacity="0.43999999999999995"/><circle cx="295.1" cy="171.4" r="44" stroke-width="0.6" opacity="0.43999999999999995"/><circle cx="327.0" cy="253.4" r="44" stroke-width="0.6" opacity="0.43999999999999995"/><circle cx="247.4" cy="344.7" r="52.5" stroke-width="0.6" opacity="0.39999999999999997"/><circle cx="153.0" cy="298.8" r="52.5" stroke-width="0.6" opacity="0.39999999999999997"/><circle cx="145.6" cy="194.1" r="52.5" stroke-width="0.6" opacity="0.39999999999999997"/><circle cx="232.6" cy="135.3" r="52.5" stroke-width="0.6" opacity="0.39999999999999997"/><circle cx="327.0" cy="181.2" r="52.5" stroke-width="0.6" opacity="0.39999999999999997"/><circle cx="334.4" cy="285.9" r="52.5" stroke-width="0.6" opacity="0.39999999999999997"/><circle cx="212.3" cy="358.8" r="61" stroke-width="0.6" opacity="0.36"/><circle cx="123.2" cy="275.4" r="61" stroke-width="0.6" opacity="0.36"/><circle cx="151.0" cy="156.6" r="61" stroke-width="0.6" opacity="0.36"/><circle cx="267.7" cy="121.2" r="61" stroke-width="0.6" opacity="0.36"/><circle cx="356.8" cy="204.6" r="61" stroke-width="0.6" opacity="0.36"/><circle cx="329.0" cy="323.4" r="61" stroke-width="0.6" opacity="0.36"/><circle cx="169.8" cy="360.0" r="69.5" stroke-width="0.6" opacity="0.31999999999999995"/><circle cx="101.0" cy="239.2" r="69.5" stroke-width="0.6" opacity="0.31999999999999995"/><circle cx="171.2" cy="119.2" r="69.5" stroke-width="0.6" opacity="0.31999999999999995"/><circle cx="310.2" cy="120.0" r="69.5" stroke-width="0.6" opacity="0.31999999999999995"/><circle cx="379.0" cy="240.8" r="69.5" stroke-width="0.6" opacity="0.31999999999999995"/><circle cx="308.8" cy="360.8" r="69.5" stroke-width="0.6" opacity="0.31999999999999995"/><circle cx="125.0" cy="345.4" r="78" stroke-width="0.6" opacity="0.27999999999999997"/><circle cx="91.2" cy="193.1" r="78" stroke-width="0.6" opacity="0.27999999999999997"/><circle cx="206.3" cy="87.7" r="78" stroke-width="0.6" opacity="0.27999999999999997"/><circle cx="355.0" cy="134.6" r="78" stroke-width="0.6" opacity="0.27999999999999997"/><circle cx="388.8" cy="286.9" r="78" stroke-width="0.6" opacity="0.27999999999999997"/><circle cx="273.7" cy="392.3" r="78" stroke-width="0.6" opacity="0.27999999999999997"/><circle cx="83.6" cy="313.9" r="86.5" stroke-width="0.6" opacity="0.24"/><circle cx="97.8" cy="141.5" r="86.5" stroke-width="0.6" opacity="0.24"/><circle cx="254.2" cy="67.6" r="86.5" stroke-width="0.6" opacity="0.24"/><circle cx="396.4" cy="166.1" r="86.5" stroke-width="0.6" opacity="0.24"/><circle cx="382.2" cy="338.5" r="86.5" stroke-width="0.6" opacity="0.24"/><circle cx="225.8" cy="412.4" r="86.5" stroke-width="0.6" opacity="0.24"/><circle cx="51.9" cy="266.8" r="95" stroke-width="0.6" opacity="0.19999999999999996"/><circle cx="122.7" cy="90.5" r="95" stroke-width="0.6" opacity="0.19999999999999996"/><circle cx="310.8" cy="63.7" r="95" stroke-width="0.6" opacity="0.19999999999999996"/><circle cx="428.1" cy="213.2" r="95" stroke-width="0.6" opacity="0.19999999999999996"/><circle cx="357.3" cy="389.5" r="95" stroke-width="0.6" opacity="0.19999999999999996"/><circle cx="169.2" cy="416.3" r="95" stroke-width="0.6" opacity="0.19999999999999996"/><circle cx="35.6" cy="207.3" r="103.5" stroke-width="0.6" opacity="0.15999999999999998"/><circle cx="166.1" cy="46.7" r="103.5" stroke-width="0.6" opacity="0.15999999999999998"/><circle cx="370.5" cy="79.3" r="103.5" stroke-width="0.6" opacity="0.15999999999999998"/><circle cx="444.4" cy="272.7" r="103.5" stroke-width="0.6" opacity="0.15999999999999998"/><circle cx="313.9" cy="433.3" r="103.5" stroke-width="0.6" opacity="0.15999999999999998"/><circle cx="109.5" cy="400.7" r="103.5" stroke-width="0.6" opacity="0.15999999999999998"/>

</svg>
