<?xml version="1.0" encoding="UTF-8"?>
<svg xmlns="http://www.w3.org/2000/svg" viewBox="0 0 480 480" fill="none" stroke="currentColor" >

  <path d="M380.0 240.0 L379.8 235.6 L379.2 231.2 L378.1 226.9 L376.7 222.6 L374.9 218.5 L372.6 214.4 L370.0 210.4 L367.0 206.6 L363.6 203.0 L359.9 199.6 L355.8 196.3 L351.4 193.3 L346.7 190.5 L341.7 188.0 L336.4 185.7 L330.9 183.7 L325.1 182.0 L319.1 180.6 L313.0 179.5 L306.6 178.7 L300.1 178.2 L293.4 178.1 L286.7 178.3 L279.9 178.8 L273.0 179.7 L266.1 180.9 L259.2 182.4 L252.3 184.3 L245.4 186.5 L238.6 189.0 L231.9 191.8 L225.3 195.0 L218.8 198.4 L212.5 202.1 L206.3 206.1 L200.4 210.3 L194.6 214.8 L189.1 219.5 L183.9 224.4 L178.9 229.5 L174.2 234.8 L169.8 240.2 L165.7 245.8 L162.0 251.5 L158.5 257.3 L155.4 263.1 L152.7 269.0 L150.3 274.9 L148.3 280.8 L146.7 286.7 L145.4 292.5 L144.5 298.3 L143.9 303.9 L143.8 309.5 L143.9 314.9 L144.5 320.2 L145.4 325.3 L146.6 330.2 L148.2 334.8 L150.1 339.2 L152.3 343.4 L154.8 347.3 L157.6 350.9 L160.6 354.1 L164.0 357.1 L167.5 359.7 L171.3 362.0 L175.3 363.9 L179.4 365.4 L183.7 366.5 L188.2 367.3 L192.8 367.6 L197.4 367.6 L202.2 367.2 L207.0 366.3 L211.8 365.1 L216.7 363.5 L221.5 361.4 L226.3 359.0 L231.1 356.2 L235.8 353.0 L240.3 349.5 L244.8 345.5 L249.1 341.3 L253.3 336.7 L257.3 331.8 L261.1 326.6 L264.6 321.1 L268.0 315.3 L271.1 309.3 L274.0 303.0 L276.6 296.6 L278.9 289.9 L280.9 283.1 L282.7 276.1 L284.1 269.1 L285.2 261.9 L286.0 254.6 L286.5 247.3 L286.7 240.0 L286.5 232.7 L286.0 225.4 L285.2 218.1 L284.1 210.9 L282.7 203.9 L280.9 196.9 L278.9 190.1 L276.6 183.4 L274.0 177.0 L271.1 170.7 L268.0 164.7 L264.6 158.9 L261.1 153.4 L257.3 148.2 L253.3 143.3 L249.1 138.7 L244.8 134.5 L240.3 130.5 L235.8 127.0 L231.1 123.8 L226.3 121.0 L221.5 118.6 L216.7 116.5 L211.8 114.9 L207.0 113.7 L202.2 112.8 L197.4 112.4 L192.8 112.4 L188.2 112.7 L183.7 113.5 L179.4 114.6 L175.3 116.1 L171.3 118.0 L167.5 120.3 L164.0 122.9 L160.6 125.9 L157.6 129.1 L154.8 132.7 L152.3 136.6 L150.1 140.8 L148.2 145.2 L146.6 149.8 L145.4 154.7 L144.5 159.8 L143.9 165.1 L143.8 170.5 L143.9 176.1 L144.5 181.7 L145.4 187.5 L146.7 193.3 L148.3 199.2 L150.3 205.1 L152.7 211.0 L155.4 216.9 L158.5 222.7 L162.0 228.5 L165.7 234.2 L169.8 239.8 L174.2 245.2 L178.9 250.5 L183.9 255.6 L189.1 260.5 L194.6 265.2 L200.4 269.7 L206.3 273.9 L212.5 277.9 L218.8 281.6 L225.3 285.0 L231.9 288.2 L238.6 291.0 L245.4 293.5 L252.3 295.7 L259.2 297.6 L266.1 299.1 L273.0 300.3 L279.9 301.2 L286.7 301.7 L293.4 301.9 L300.1 301.8 L306.6 301.3 L313.0 300.5 L319.1 299.4 L325.1 298.0 L330.9 296.3 L336.4 294.3 L341.7 292.0 L346.7 289.5 L351.4 286.7 L355.8 283.7 L359.9 280.4 L363.6 277.0 L367.0 273.4 L370.0 269.6 L372.6 265.6 L374.9 261.5 L376.7 257.4 L378.1 253.1 L379.2 248.8 L379.8 244.4 L380.0 240.0 L379.8 235.6 L379.2 231.2 L378.1 226.9 L376.7 222.6 L374.9 218.5 L372.6 214.4 L370.0 210.4 L367.0 206.6 L363.6 203.0 L359.9 199.6 L355.8 196.3 L351.4 193.3 L346.7 190.5 L341.7 188.0 L336.4 185.7 L330.9 183.7 L325.1 182.0 L319.1 180.6 L313.0 179.5 L306.6 178.7 L300.1 178.2 L293.4 178.1 L286.7 178.3 L279.9 178.8 L273.0 179.7 L266.1 180.9 L259.2 182.4 L252.3 184.3 L245.4 186.5 L238.6 189.0 L231.9 191.8 L225.3 195.0 L218.8 198.4 L212.5 202.1 L206.3 206.1 L200.4 210.3 L194.6 214.8 L189.1 219.5 L183.9 224.4 L178.9 229.5 L174.2 234.8 L169.8 240.2 L165.7 245.8 L162.0 251.5 L158.5 257.3 L155.4 263.1 L152.7 269.0 L150.3 274.9 L148.3 280.8 L146.7 286.7 L145.4 292.5 L144.5 298.3 L143.9 303.9 L143.8 309.5 L143.9 314.9 L144.5 320.2 L145.4 325.3 L146.6 330.2 L148.2 334.8 L150.1 339.2 L152.3 343.4 L154.8 347.3 L157.6 350.9 L160.6 354.1 L164.0 357.1 L167.5 359.7 L171.3 362.0 L175.3 363.9 L179.4 365.4 L183.7 366.5 L188.2 367.3 L192.8 367.6 L197.4 367.6 L202.2 367.2 L207.0 366.3 L211.8 365.1 L216.7 363.5 L221.5 361.4 L226.3 359.0 L231.1 356.2 L235.8 353.0 L240.3 349.5 L244.8 345.5 L249.1 341.3 L253.3 336.7 L257.3 331.8 L261.1 326.6 L264.6 321.1 L268.0 315.3 L271.1 309.3 L274.0 303.0 L276.6 296.6 L278.9 289.9 L280.9 283.1 L282.7 276.1 L284.1 269.1 L285.2 261.9 L286.0 254.6 L286.5 247.3 L286.7 240.0 L286.5 232.7 L286.0 225.4 L285.2 218.1 L284.1 210.9 L282.7 203.9 L280.9 196.9 L278.9 190.1 L276.6 183.4 L274.0 177.0 L271.1 170.7 L268.0 164.7 L264.6 158.9 L261.1 153.4 L257.3 148.2 L253.3 143.3 L249.1 138.7 L244.8 134.5 L240.3 130.5 L235.8 127.0 L231.1 123.8 L226.3 121.0 L221.5 118.6 L216.7 116.5 L211.8 114.9 L207.0 113.7 L202.2 112.8 L197.4 112.4 L192.8 112.4 L188.2 112.7 L183.7 113.5 L179.4 114.6 L175.3 116.1 L171.3 118.0 L167.5 120.3 L164.0 122.9 L160.6 125.9 L157.6 129.1 L154.8 132.7 L152.3 136.6 L150.1 140.8 L148.2 145.2 L146.6 149.8 L145.4 154.7 L144.5 159.8 L143.9 165.1 L143.8 170.5 L143.9 176.1 L144.5 181.7 L145.4 187.5 L146.7 193.3 L148.3 199.2 L150.3 205.1 L152.7 211.0 L155.4 216.9 L158.5 222.7 L162.0 228.5 L165.7 234.2 L169.8 239.8 L174.2 245.2 L178.9 250.5 L183.9 255.6 L189.1 260.5 L194.6 265.2 L200.4 269.7 L206.3 273.9 L212.5 277.9 L218.8 281.6 L225.3 285.0 L231.9 288.2 L238.6 291.0 L245.4 293.5 L252.3 295.7 L259.2 297.6 L266.1 299.1 L273.0 300.3 L279.9 301.2 L286.7 301.7 L293.4 301.9 L300.1 301.8 L306.6 301.3 L313.0 300.5 L319.1 299.4 L325.1 298.0 L330.9 296.3 L336.4 294.3 L341.7 292.0 L346.7 289.5 L351.4 286.7 L355.8 283.7 L359.9 280.4 L363.6 277.0 L367.0 273.4 L370.0 269.6 L372.6 265.6 L374.9 261.5 L376.7 257.4 L378.1 253.1 L379.2 248.8 L379.8 244.4Z" stroke-width="2"/>

</svg>
