<?xml version="1.0" encoding="UTF-8"?>
<svg xmlns="http://www.w3.org/2000/svg" viewBox="0 0 480 360" fill="none" stroke="currentColor" stroke-width="1">

  <circle cx="240" cy="40"  r="12" stroke-width="1"/>
  <circle cx="120" cy="120" r="12" stroke-width="1"/>
  <circle cx="360" cy="120" r="12" stroke-width="1"/>
  <circle cx="60"  cy="200" r="12" stroke-width="1"/>
  <circle cx="180" cy="200" r="12" stroke-width="1"/>
  <circle cx="300" cy="200" r="12" stroke-width="1"/>
  <circle cx="420" cy="200" r="12" stroke-width="1"/>
  <circle cx="30"  cy="280" r="8" stroke-width="1"/>
  <circle cx="90"  cy="280" r="8" stroke-width="1"/>
  <circle cx="150" cy="280" r="8" stroke-width="1"/>
  <circle cx="210" cy="280" r="8" stroke-width="1"/>
  <circle cx="270" cy="280" r="8" stroke-width="1"/>
  <circle cx="330" cy="280" r="8" stroke-width="1"/>
  <circle cx="390" cy="280" r="8" stroke-width="1"/>
  <circle cx="450" cy="280" r="8" stroke-width="1"/>
  <line x1="240" y1="52"  x2="120" y2="108" stroke-width="1"/>
  <line x1="240" y1="52"  x2="360" y2="108" stroke-width="1"/>
  <line x1="120" y1="132" x2="60"  y2="188" stroke-width="1"/>
  <line x1="120" y1="132" x2="180" y2="188" stroke-width="1"/>
  <line x1="360" y1="132" x2="300" y2="188" stroke-width="1"/>
  <line x1="360" y1="132" x2="420" y2="188" stroke-width="1"/>
  <line x1="60"  y1="212" x2="30"  y2="272" stroke-width="0.8"/>
  <line x1="60"  y1="212" x2="90"  y2="272" stroke-width="0.8"/>
  <line x1="180" y1="212" x2="150" y2="272" stroke-width="0.8"/>
  <line x1="180" y1="212" x2="210" y2="272" stroke-width="0.8"/>
  <line x1="300" y1="212" x2="270" y2="272" stroke-width="0.8"/>
  <line x1="300" y1="212" x2="330" y2="272" stroke-width="0.8"/>
  <line x1="420" y1="212" x2="390" y2="272" stroke-width="0.8"/>
  <line x1="420" y1="212" x2="450" y2="272" stroke-width="0.8"/>

</svg>
