<?xml version="1.0" encoding="UTF-8"?>
<svg xmlns="http://www.w3.org/2000/svg" viewBox="0 0 360 360" fill="none" stroke="currentColor" >

  <path d="M434.6 180.0 L434.4 185.1 L434.0 190.2 L433.4 195.2 L432.4 200.2 L431.2 205.2 L429.8 210.1 L428.1 215.0 L426.1 219.7 L423.9 224.4 L421.4 228.9 L418.7 233.4 L415.7 237.7 L412.6 241.9 L409.2 245.9 L405.5 249.8 L401.7 253.5 L397.7 257.0 L393.4 260.3 L389.0 263.5 L384.4 266.4 L379.7 269.2 L374.8 271.7 L369.7 274.0 L364.5 276.1 L359.2 277.9 L353.8 279.5 L348.3 280.9 L342.7 282.0 L337.1 282.9 L331.4 283.6 L325.7 284.0 L320.0 284.2 L314.3 284.2 L308.6 284.0 L302.9 283.6 L297.3 282.9 L291.8 282.1 L286.4 281.1 L281.1 280.0 L275.9 278.7 L270.8 277.3 L265.8 275.7 L261.0 274.1 L256.3 272.3 L251.8 270.4 L247.4 268.5 L243.2 266.5 L239.1 264.4 L235.2 262.3 L231.4 260.1 L227.8 257.8 L224.3 255.5 L221.0 253.1 L217.8 250.7 L214.7 248.2 L211.8 245.7 L209.0 243.1 L206.4 240.5 L203.9 237.9 L201.5 235.2 L199.2 232.5 L197.1 229.7 L195.1 226.9 L193.2 224.1 L191.4 221.2 L189.8 218.3 L188.3 215.3 L186.9 212.4 L185.7 209.4 L184.5 206.4 L183.5 203.3 L182.7 200.3 L181.9 197.2 L181.3 194.1 L180.8 191.0 L180.4 187.9 L180.1 184.8 L180.0 181.7 L180.0 181.4 L179.9 184.6 L179.6 187.7 L179.3 190.8 L178.8 193.9 L178.1 197.0 L177.4 200.0 L176.5 203.1 L175.5 206.1 L174.4 209.2 L173.2 212.1 L171.8 215.1 L170.3 218.1 L168.7 221.0 L167.0 223.8 L165.1 226.7 L163.1 229.5 L161.0 232.3 L158.7 235.0 L156.3 237.7 L153.8 240.3 L151.2 242.9 L148.4 245.5 L145.5 248.0 L142.5 250.5 L139.3 252.9 L136.0 255.3 L132.5 257.6 L128.9 259.9 L125.1 262.1 L121.2 264.3 L117.2 266.3 L112.9 268.4 L108.6 270.3 L104.1 272.2 L99.4 273.9 L94.6 275.6 L89.6 277.1 L84.6 278.6 L79.4 279.9 L74.0 281.0 L68.6 282.0 L63.1 282.9 L57.5 283.5 L51.9 284.0 L46.2 284.2 L40.5 284.2 L34.7 284.0 L29.0 283.6 L23.3 283.0 L17.7 282.1 L12.1 281.0 L6.6 279.6 L1.2 278.0 L-4.1 276.2 L-9.3 274.2 L-14.4 271.9 L-19.3 269.4 L-24.1 266.7 L-28.7 263.7 L-33.1 260.6 L-37.3 257.3 L-41.4 253.8 L-45.2 250.1 L-48.9 246.2 L-52.3 242.2 L-55.5 238.0 L-58.5 233.7 L-61.2 229.3 L-63.7 224.7 L-65.9 220.1 L-67.9 215.3 L-69.6 210.5 L-71.1 205.6 L-72.3 200.6 L-73.3 195.6 L-74.0 190.6 L-74.4 185.5 L-74.6 180.4 L-74.4 175.3 L-74.1 170.2 L-73.4 165.2 L-72.5 160.2 L-71.3 155.2 L-69.9 150.3 L-68.2 145.4 L-66.3 140.7 L-64.1 136.0 L-61.6 131.4 L-58.9 127.0 L-56.0 122.6 L-52.8 118.5 L-49.4 114.4 L-45.8 110.5 L-42.0 106.8 L-38.0 103.3 L-33.8 99.9 L-29.4 96.8 L-24.8 93.8 L-20.1 91.0 L-15.2 88.5 L-10.1 86.2 L-4.9 84.1 L0.4 82.2 L5.8 80.6 L11.2 79.2 L16.8 78.1 L22.4 77.1 L28.1 76.5 L33.8 76.0 L39.6 75.8 L45.3 75.8 L51.0 76.0 L56.6 76.4 L62.2 77.0 L67.7 77.8 L73.2 78.8 L78.5 79.9 L83.7 81.2 L88.8 82.6 L93.8 84.2 L98.6 85.8 L103.3 87.6 L107.9 89.4 L112.3 91.3 L116.5 93.3 L120.6 95.4 L124.5 97.6 L128.3 99.8 L131.9 102.0 L135.4 104.3 L138.8 106.7 L142.0 109.1 L145.0 111.6 L148.0 114.1 L150.8 116.6 L153.4 119.2 L156.0 121.9 L158.4 124.6 L160.6 127.3 L162.8 130.1 L164.8 132.9 L166.7 135.7 L168.4 138.6 L170.1 141.5 L171.6 144.4 L173.0 147.4 L174.2 150.4 L175.4 153.4 L176.4 156.4 L177.3 159.5 L178.0 162.5 L178.7 165.6 L179.2 168.7 L179.6 171.8 L179.8 174.9 L180.0 178.1 L180.0 178.8 L180.1 175.7 L180.4 172.6 L180.7 169.5 L181.2 166.4 L181.8 163.3 L182.5 160.2 L183.4 157.1 L184.4 154.1 L185.5 151.1 L186.7 148.1 L188.1 145.1 L189.6 142.2 L191.2 139.3 L192.9 136.4 L194.8 133.5 L196.7 130.7 L198.9 128.0 L201.1 125.2 L203.5 122.5 L206.0 119.9 L208.6 117.3 L211.4 114.7 L214.2 112.2 L217.3 109.7 L220.5 107.3 L223.8 104.9 L227.2 102.6 L230.8 100.3 L234.6 98.1 L238.5 95.9 L242.5 93.8 L246.7 91.8 L251.1 89.9 L255.6 88.0 L260.2 86.2 L265.0 84.5 L270.0 83.0 L275.0 81.5 L280.2 80.2 L285.5 79.0 L291.0 78.0 L296.5 77.2 L302.0 76.5 L307.7 76.1 L313.4 75.8 L319.1 75.8 L324.8 75.9 L330.5 76.3 L336.2 77.0 L341.8 77.8 L347.4 78.9 L352.9 80.2 L358.4 81.8 L363.7 83.6 L368.9 85.7 L374.0 87.9 L378.9 90.4 L383.7 93.1 L388.3 96.0 L392.8 99.1 L397.0 102.5 L401.1 106.0 L404.9 109.6 L408.6 113.5 L412.0 117.5 L415.3 121.6 L418.2 125.9 L421.0 130.3 L423.5 134.9 L425.8 139.5 L427.8 144.3 L429.5 149.1 L431.0 154.0 L432.3 159.0 L433.2 164.0 L433.9 169.0 L434.4 174.1 L434.6 179.2Z" stroke-width="1"/>

</svg>
