<?xml version="1.0" encoding="UTF-8"?>
<svg xmlns="http://www.w3.org/2000/svg" viewBox="0 0 480 400" fill="none" stroke="currentColor" stroke-width="1">

  <line x1="40" y1="20" x2="40" y2="380" stroke-width="1"/>
  <line x1="40" y1="380" x2="460" y2="380" stroke-width="1"/>
  
  <line x1="70" y1="80" x2="70" y2="160" stroke-width="1"/>
  <rect x="60" y="60" width="20" height="131" stroke-width="1" opacity="0.8"/>
  <line x1="120" y1="130" x2="120" y2="200" stroke-width="1"/>
  <rect x="110" y="120" width="20" height="101" stroke-width="1" opacity="0.8"/>
  <line x1="170" y1="90" x2="170" y2="150" stroke-width="1"/>
  <rect x="160" y="70" width="20" height="101" stroke-width="1" opacity="0.8"/>
  <line x1="220" y1="120" x2="220" y2="180" stroke-width="1"/>
  <rect x="210" y="100" width="20" height="111" stroke-width="1" opacity="0.8"/>
  <line x1="270" y1="60" x2="270" y2="130" stroke-width="1"/>
  <rect x="260" y="50" width="20" height="101" stroke-width="1" opacity="0.8"/>
  <line x1="320" y1="100" x2="320" y2="160" stroke-width="1"/>
  <rect x="310" y="90" width="20" height="91" stroke-width="1" opacity="0.8"/>
  <line x1="370" y1="80" x2="370" y2="140" stroke-width="1"/>
  <rect x="360" y="70" width="20" height="96" stroke-width="1" opacity="0.8"/>
  <line x1="420" y1="50" x2="420" y2="110" stroke-width="1"/>
  <rect x="410" y="40" width="20" height="91" stroke-width="1" opacity="0.8"/>

</svg>
