<?xml version="1.0" encoding="UTF-8"?>
<svg xmlns="http://www.w3.org/2000/svg" viewBox="0 0 480 400" fill="none" stroke="currentColor" stroke-width="1">

  <line x1="48" y1="20" x2="48" y2="380" stroke-width="1"/>
  <line x1="48" y1="380" x2="460" y2="380" stroke-width="1"/>
  <line x1="48" y1="80" x2="460" y2="80" stroke-width="0.3" opacity="0.3"/><line x1="48" y1="140" x2="460" y2="140" stroke-width="0.3" opacity="0.3"/><line x1="48" y1="200" x2="460" y2="200" stroke-width="0.3" opacity="0.3"/><line x1="48" y1="260" x2="460" y2="260" stroke-width="0.3" opacity="0.3"/><line x1="48" y1="320" x2="460" y2="320" stroke-width="0.3" opacity="0.3"/>
  <line x1="130" y1="380" x2="130" y2="20" stroke-width="0.3" opacity="0.3"/><line x1="196" y1="380" x2="196" y2="20" stroke-width="0.3" opacity="0.3"/><line x1="262" y1="380" x2="262" y2="20" stroke-width="0.3" opacity="0.3"/><line x1="328" y1="380" x2="328" y2="20" stroke-width="0.3" opacity="0.3"/><line x1="394" y1="380" x2="394" y2="20" stroke-width="0.3" opacity="0.3"/>
  <circle cx="80" cy="300" r="6" stroke-width="1" opacity="0.7"/><circle cx="130" cy="200" r="8" stroke-width="1" opacity="0.7"/><circle cx="200" cy="260" r="5" stroke-width="1" opacity="0.7"/><circle cx="260" cy="140" r="9" stroke-width="1" opacity="0.7"/><circle cx="300" cy="200" r="7" stroke-width="1" opacity="0.7"/><circle cx="340" cy="80" r="10" stroke-width="1" opacity="0.7"/><circle cx="380" cy="160" r="6" stroke-width="1" opacity="0.7"/><circle cx="420" cy="100" r="8" stroke-width="1" opacity="0.7"/><circle cx="440" cy="240" r="5" stroke-width="1" opacity="0.7"/><circle cx="120" cy="320" r="7" stroke-width="1" opacity="0.7"/><circle cx="180" cy="360" r="4" stroke-width="1" opacity="0.7"/><circle cx="230" cy="300" r="8" stroke-width="1" opacity="0.7"/><circle cx="280" cy="220" r="6" stroke-width="1" opacity="0.7"/><circle cx="350" cy="140" r="9" stroke-width="1" opacity="0.7"/><circle cx="400" cy="60" r="11" stroke-width="1" opacity="0.7"/>

</svg>
