<?xml version="1.0" encoding="UTF-8"?>
<svg xmlns="http://www.w3.org/2000/svg" viewBox="0 0 480 480" fill="none" stroke="currentColor" stroke-width="1">

  <rect x="20" y="40" width="30" height="200" rx="4" stroke-width="1"/>
  <rect x="20" y="260" width="30" height="100" rx="4" stroke-width="1"/>
  <rect x="20" y="380" width="30" height="60" rx="4" stroke-width="1"/>
  <path d="M50 140 C150 140 150 100 250 100" fill="none" stroke-width="40" opacity="0.2" stroke-linecap="round"/>
  <path d="M50 260 C150 260 150 200 250 200" fill="none" stroke-width="20" opacity="0.2" stroke-linecap="round"/>
  <path d="M50 300 C150 300 150 280 250 280" fill="none" stroke-width="10" opacity="0.2" stroke-linecap="round"/>
  <path d="M50 400 C150 400 150 340 250 340" fill="none" stroke-width="8" opacity="0.2" stroke-linecap="round"/>
  <rect x="250" y="60" width="30" height="120" rx="4" stroke-width="1"/>
  <rect x="250" y="200" width="30" height="100" rx="4" stroke-width="1"/>
  <rect x="250" y="320" width="30" height="80" rx="4" stroke-width="1"/>
  <path d="M280 120 C380 120 380 80 430 80" fill="none" stroke-width="30" opacity="0.15" stroke-linecap="round"/>
  <path d="M280 220 C380 220 380 160 430 160" fill="none" stroke-width="20" opacity="0.15" stroke-linecap="round"/>
  <rect x="430" y="50" width="30" height="60" rx="4" stroke-width="1"/>
  <rect x="430" y="130" width="30" height="40" rx="4" stroke-width="1"/>

</svg>
