<?xml version="1.0" encoding="UTF-8"?>
<svg xmlns="http://www.w3.org/2000/svg" viewBox="0 0 450 340" fill="none" stroke="currentColor" stroke-width="1">

  <rect x="40" y="40" width="30" height="38" rx="3" fill="currentColor" stroke="none" opacity="0.35"/><rect x="74" y="40" width="30" height="38" rx="3" fill="currentColor" stroke="none" opacity="0.08"/><rect x="108" y="40" width="30" height="38" rx="3" fill="currentColor" stroke="none" opacity="0.37"/><rect x="142" y="40" width="30" height="38" rx="3" fill="currentColor" stroke="none" opacity="0.36"/><rect x="176" y="40" width="30" height="38" rx="3" fill="currentColor" stroke="none" opacity="0.30"/><rect x="210" y="40" width="30" height="38" rx="3" fill="currentColor" stroke="none" opacity="0.12"/><rect x="244" y="40" width="30" height="38" rx="3" fill="currentColor" stroke="none" opacity="0.14"/><rect x="278" y="40" width="30" height="38" rx="3" fill="currentColor" stroke="none" opacity="0.05"/><rect x="312" y="40" width="30" height="38" rx="3" fill="currentColor" stroke="none" opacity="0.35"/><rect x="346" y="40" width="30" height="38" rx="3" fill="currentColor" stroke="none" opacity="0.30"/><rect x="380" y="40" width="30" height="38" rx="3" fill="currentColor" stroke="none" opacity="0.17"/><rect x="414" y="40" width="30" height="38" rx="3" fill="currentColor" stroke="none" opacity="0.35"/><rect x="40" y="82" width="30" height="38" rx="3" fill="currentColor" stroke="none" opacity="0.29"/><rect x="74" y="82" width="30" height="38" rx="3" fill="currentColor" stroke="none" opacity="0.30"/><rect x="108" y="82" width="30" height="38" rx="3" fill="currentColor" stroke="none" opacity="0.07"/><rect x="142" y="82" width="30" height="38" rx="3" fill="currentColor" stroke="none" opacity="0.20"/><rect x="176" y="82" width="30" height="38" rx="3" fill="currentColor" stroke="none" opacity="0.32"/><rect x="210" y="82" width="30" height="38" rx="3" fill="currentColor" stroke="none" opacity="0.44"/><rect x="244" y="82" width="30" height="38" rx="3" fill="currentColor" stroke="none" opacity="0.32"/><rect x="278" y="82" width="30" height="38" rx="3" fill="currentColor" stroke="none" opacity="0.18"/><rect x="312" y="82" width="30" height="38" rx="3" fill="currentColor" stroke="none" opacity="0.42"/><rect x="346" y="82" width="30" height="38" rx="3" fill="currentColor" stroke="none" opacity="0.05"/><rect x="380" y="82" width="30" height="38" rx="3" fill="currentColor" stroke="none" opacity="0.37"/><rect x="414" y="82" width="30" height="38" rx="3" fill="currentColor" stroke="none" opacity="0.25"/><rect x="40" y="124" width="30" height="38" rx="3" fill="currentColor" stroke="none" opacity="0.24"/><rect x="74" y="124" width="30" height="38" rx="3" fill="currentColor" stroke="none" opacity="0.15"/><rect x="108" y="124" width="30" height="38" rx="3" fill="currentColor" stroke="none" opacity="0.23"/><rect x="142" y="124" width="30" height="38" rx="3" fill="currentColor" stroke="none" opacity="0.19"/><rect x="176" y="124" width="30" height="38" rx="3" fill="currentColor" stroke="none" opacity="0.22"/><rect x="210" y="124" width="30" height="38" rx="3" fill="currentColor" stroke="none" opacity="0.45"/><rect x="244" y="124" width="30" height="38" rx="3" fill="currentColor" stroke="none" opacity="0.18"/><rect x="278" y="124" width="30" height="38" rx="3" fill="currentColor" stroke="none" opacity="0.36"/><rect x="312" y="124" width="30" height="38" rx="3" fill="currentColor" stroke="none" opacity="0.14"/><rect x="346" y="124" width="30" height="38" rx="3" fill="currentColor" stroke="none" opacity="0.21"/><rect x="380" y="124" width="30" height="38" rx="3" fill="currentColor" stroke="none" opacity="0.43"/><rect x="414" y="124" width="30" height="38" rx="3" fill="currentColor" stroke="none" opacity="0.44"/><rect x="40" y="166" width="30" height="38" rx="3" fill="currentColor" stroke="none" opacity="0.35"/><rect x="74" y="166" width="30" height="38" rx="3" fill="currentColor" stroke="none" opacity="0.35"/><rect x="108" y="166" width="30" height="38" rx="3" fill="currentColor" stroke="none" opacity="0.12"/><rect x="142" y="166" width="30" height="38" rx="3" fill="currentColor" stroke="none" opacity="0.18"/><rect x="176" y="166" width="30" height="38" rx="3" fill="currentColor" stroke="none" opacity="0.39"/><rect x="210" y="166" width="30" height="38" rx="3" fill="currentColor" stroke="none" opacity="0.23"/><rect x="244" y="166" width="30" height="38" rx="3" fill="currentColor" stroke="none" opacity="0.19"/><rect x="278" y="166" width="30" height="38" rx="3" fill="currentColor" stroke="none" opacity="0.07"/><rect x="312" y="166" width="30" height="38" rx="3" fill="currentColor" stroke="none" opacity="0.18"/><rect x="346" y="166" width="30" height="38" rx="3" fill="currentColor" stroke="none" opacity="0.14"/><rect x="380" y="166" width="30" height="38" rx="3" fill="currentColor" stroke="none" opacity="0.34"/><rect x="414" y="166" width="30" height="38" rx="3" fill="currentColor" stroke="none" opacity="0.30"/><rect x="40" y="208" width="30" height="38" rx="3" fill="currentColor" stroke="none" opacity="0.22"/><rect x="74" y="208" width="30" height="38" rx="3" fill="currentColor" stroke="none" opacity="0.22"/><rect x="108" y="208" width="30" height="38" rx="3" fill="currentColor" stroke="none" opacity="0.28"/><rect x="142" y="208" width="30" height="38" rx="3" fill="currentColor" stroke="none" opacity="0.15"/><rect x="176" y="208" width="30" height="38" rx="3" fill="currentColor" stroke="none" opacity="0.23"/><rect x="210" y="208" width="30" height="38" rx="3" fill="currentColor" stroke="none" opacity="0.19"/><rect x="244" y="208" width="30" height="38" rx="3" fill="currentColor" stroke="none" opacity="0.41"/><rect x="278" y="208" width="30" height="38" rx="3" fill="currentColor" stroke="none" opacity="0.08"/><rect x="312" y="208" width="30" height="38" rx="3" fill="currentColor" stroke="none" opacity="0.30"/><rect x="346" y="208" width="30" height="38" rx="3" fill="currentColor" stroke="none" opacity="0.34"/><rect x="380" y="208" width="30" height="38" rx="3" fill="currentColor" stroke="none" opacity="0.24"/><rect x="414" y="208" width="30" height="38" rx="3" fill="currentColor" stroke="none" opacity="0.31"/><rect x="40" y="250" width="30" height="38" rx="3" fill="currentColor" stroke="none" opacity="0.17"/><rect x="74" y="250" width="30" height="38" rx="3" fill="currentColor" stroke="none" opacity="0.37"/><rect x="108" y="250" width="30" height="38" rx="3" fill="currentColor" stroke="none" opacity="0.15"/><rect x="142" y="250" width="30" height="38" rx="3" fill="currentColor" stroke="none" opacity="0.24"/><rect x="176" y="250" width="30" height="38" rx="3" fill="currentColor" stroke="none" opacity="0.33"/><rect x="210" y="250" width="30" height="38" rx="3" fill="currentColor" stroke="none" opacity="0.44"/><rect x="244" y="250" width="30" height="38" rx="3" fill="currentColor" stroke="none" opacity="0.27"/><rect x="278" y="250" width="30" height="38" rx="3" fill="currentColor" stroke="none" opacity="0.11"/><rect x="312" y="250" width="30" height="38" rx="3" fill="currentColor" stroke="none" opacity="0.10"/><rect x="346" y="250" width="30" height="38" rx="3" fill="currentColor" stroke="none" opacity="0.07"/><rect x="380" y="250" width="30" height="38" rx="3" fill="currentColor" stroke="none" opacity="0.38"/><rect x="414" y="250" width="30" height="38" rx="3" fill="currentColor" stroke="none" opacity="0.29"/><rect x="40" y="292" width="30" height="38" rx="3" fill="currentColor" stroke="none" opacity="0.26"/><rect x="74" y="292" width="30" height="38" rx="3" fill="currentColor" stroke="none" opacity="0.14"/><rect x="108" y="292" width="30" height="38" rx="3" fill="currentColor" stroke="none" opacity="0.32"/><rect x="142" y="292" width="30" height="38" rx="3" fill="currentColor" stroke="none" opacity="0.39"/><rect x="176" y="292" width="30" height="38" rx="3" fill="currentColor" stroke="none" opacity="0.28"/><rect x="210" y="292" width="30" height="38" rx="3" fill="currentColor" stroke="none" opacity="0.21"/><rect x="244" y="292" width="30" height="38" rx="3" fill="currentColor" stroke="none" opacity="0.22"/><rect x="278" y="292" width="30" height="38" rx="3" fill="currentColor" stroke="none" opacity="0.42"/><rect x="312" y="292" width="30" height="38" rx="3" fill="currentColor" stroke="none" opacity="0.08"/><rect x="346" y="292" width="30" height="38" rx="3" fill="currentColor" stroke="none" opacity="0.38"/><rect x="380" y="292" width="30" height="38" rx="3" fill="currentColor" stroke="none" opacity="0.16"/><rect x="414" y="292" width="30" height="38" rx="3" fill="currentColor" stroke="none" opacity="0.21"/>
  <rect x="40" y="40" width="30" height="38" rx="3" stroke-width="0.5"/><rect x="74" y="40" width="30" height="38" rx="3" stroke-width="0.5"/><rect x="108" y="40" width="30" height="38" rx="3" stroke-width="0.5"/><rect x="142" y="40" width="30" height="38" rx="3" stroke-width="0.5"/><rect x="176" y="40" width="30" height="38" rx="3" stroke-width="0.5"/><rect x="210" y="40" width="30" height="38" rx="3" stroke-width="0.5"/><rect x="244" y="40" width="30" height="38" rx="3" stroke-width="0.5"/><rect x="278" y="40" width="30" height="38" rx="3" stroke-width="0.5"/><rect x="312" y="40" width="30" height="38" rx="3" stroke-width="0.5"/><rect x="346" y="40" width="30" height="38" rx="3" stroke-width="0.5"/><rect x="380" y="40" width="30" height="38" rx="3" stroke-width="0.5"/><rect x="414" y="40" width="30" height="38" rx="3" stroke-width="0.5"/><rect x="40" y="82" width="30" height="38" rx="3" stroke-width="0.5"/><rect x="74" y="82" width="30" height="38" rx="3" stroke-width="0.5"/><rect x="108" y="82" width="30" height="38" rx="3" stroke-width="0.5"/><rect x="142" y="82" width="30" height="38" rx="3" stroke-width="0.5"/><rect x="176" y="82" width="30" height="38" rx="3" stroke-width="0.5"/><rect x="210" y="82" width="30" height="38" rx="3" stroke-width="0.5"/><rect x="244" y="82" width="30" height="38" rx="3" stroke-width="0.5"/><rect x="278" y="82" width="30" height="38" rx="3" stroke-width="0.5"/><rect x="312" y="82" width="30" height="38" rx="3" stroke-width="0.5"/><rect x="346" y="82" width="30" height="38" rx="3" stroke-width="0.5"/><rect x="380" y="82" width="30" height="38" rx="3" stroke-width="0.5"/><rect x="414" y="82" width="30" height="38" rx="3" stroke-width="0.5"/><rect x="40" y="124" width="30" height="38" rx="3" stroke-width="0.5"/><rect x="74" y="124" width="30" height="38" rx="3" stroke-width="0.5"/><rect x="108" y="124" width="30" height="38" rx="3" stroke-width="0.5"/><rect x="142" y="124" width="30" height="38" rx="3" stroke-width="0.5"/><rect x="176" y="124" width="30" height="38" rx="3" stroke-width="0.5"/><rect x="210" y="124" width="30" height="38" rx="3" stroke-width="0.5"/><rect x="244" y="124" width="30" height="38" rx="3" stroke-width="0.5"/><rect x="278" y="124" width="30" height="38" rx="3" stroke-width="0.5"/><rect x="312" y="124" width="30" height="38" rx="3" stroke-width="0.5"/><rect x="346" y="124" width="30" height="38" rx="3" stroke-width="0.5"/><rect x="380" y="124" width="30" height="38" rx="3" stroke-width="0.5"/><rect x="414" y="124" width="30" height="38" rx="3" stroke-width="0.5"/><rect x="40" y="166" width="30" height="38" rx="3" stroke-width="0.5"/><rect x="74" y="166" width="30" height="38" rx="3" stroke-width="0.5"/><rect x="108" y="166" width="30" height="38" rx="3" stroke-width="0.5"/><rect x="142" y="166" width="30" height="38" rx="3" stroke-width="0.5"/><rect x="176" y="166" width="30" height="38" rx="3" stroke-width="0.5"/><rect x="210" y="166" width="30" height="38" rx="3" stroke-width="0.5"/><rect x="244" y="166" width="30" height="38" rx="3" stroke-width="0.5"/><rect x="278" y="166" width="30" height="38" rx="3" stroke-width="0.5"/><rect x="312" y="166" width="30" height="38" rx="3" stroke-width="0.5"/><rect x="346" y="166" width="30" height="38" rx="3" stroke-width="0.5"/><rect x="380" y="166" width="30" height="38" rx="3" stroke-width="0.5"/><rect x="414" y="166" width="30" height="38" rx="3" stroke-width="0.5"/><rect x="40" y="208" width="30" height="38" rx="3" stroke-width="0.5"/><rect x="74" y="208" width="30" height="38" rx="3" stroke-width="0.5"/><rect x="108" y="208" width="30" height="38" rx="3" stroke-width="0.5"/><rect x="142" y="208" width="30" height="38" rx="3" stroke-width="0.5"/><rect x="176" y="208" width="30" height="38" rx="3" stroke-width="0.5"/><rect x="210" y="208" width="30" height="38" rx="3" stroke-width="0.5"/><rect x="244" y="208" width="30" height="38" rx="3" stroke-width="0.5"/><rect x="278" y="208" width="30" height="38" rx="3" stroke-width="0.5"/><rect x="312" y="208" width="30" height="38" rx="3" stroke-width="0.5"/><rect x="346" y="208" width="30" height="38" rx="3" stroke-width="0.5"/><rect x="380" y="208" width="30" height="38" rx="3" stroke-width="0.5"/><rect x="414" y="208" width="30" height="38" rx="3" stroke-width="0.5"/><rect x="40" y="250" width="30" height="38" rx="3" stroke-width="0.5"/><rect x="74" y="250" width="30" height="38" rx="3" stroke-width="0.5"/><rect x="108" y="250" width="30" height="38" rx="3" stroke-width="0.5"/><rect x="142" y="250" width="30" height="38" rx="3" stroke-width="0.5"/><rect x="176" y="250" width="30" height="38" rx="3" stroke-width="0.5"/><rect x="210" y="250" width="30" height="38" rx="3" stroke-width="0.5"/><rect x="244" y="250" width="30" height="38" rx="3" stroke-width="0.5"/><rect x="278" y="250" width="30" height="38" rx="3" stroke-width="0.5"/><rect x="312" y="250" width="30" height="38" rx="3" stroke-width="0.5"/><rect x="346" y="250" width="30" height="38" rx="3" stroke-width="0.5"/><rect x="380" y="250" width="30" height="38" rx="3" stroke-width="0.5"/><rect x="414" y="250" width="30" height="38" rx="3" stroke-width="0.5"/><rect x="40" y="292" width="30" height="38" rx="3" stroke-width="0.5"/><rect x="74" y="292" width="30" height="38" rx="3" stroke-width="0.5"/><rect x="108" y="292" width="30" height="38" rx="3" stroke-width="0.5"/><rect x="142" y="292" width="30" height="38" rx="3" stroke-width="0.5"/><rect x="176" y="292" width="30" height="38" rx="3" stroke-width="0.5"/><rect x="210" y="292" width="30" height="38" rx="3" stroke-width="0.5"/><rect x="244" y="292" width="30" height="38" rx="3" stroke-width="0.5"/><rect x="278" y="292" width="30" height="38" rx="3" stroke-width="0.5"/><rect x="312" y="292" width="30" height="38" rx="3" stroke-width="0.5"/><rect x="346" y="292" width="30" height="38" rx="3" stroke-width="0.5"/><rect x="380" y="292" width="30" height="38" rx="3" stroke-width="0.5"/><rect x="414" y="292" width="30" height="38" rx="3" stroke-width="0.5"/>

</svg>
