<?xml version="1.0" encoding="UTF-8"?>
<svg xmlns="http://www.w3.org/2000/svg" viewBox="0 0 480 480" fill="none" stroke="currentColor" stroke-width="0.7">
<path d="M20 40 L20 20 L40 20"/>
  <path d="M60 40 L60 20 L40 20"/>
  <path d="M20 40 L20 60 L40 60"/>
  <path d="M60 40 L60 60 L40 60"/>
  <path d="M100 40 L100 20 L120 20"/>
  <path d="M140 40 L140 20 L120 20"/>
  <path d="M100 40 L100 60 L120 60"/>
  <path d="M140 40 L140 60 L120 60"/>
  <path d="M180 40 L180 20 L200 20"/>
  <path d="M220 40 L220 20 L200 20"/>
  <path d="M180 40 L180 60 L200 60"/>
  <path d="M220 40 L220 60 L200 60"/>
  <path d="M260 40 L260 20 L280 20"/>
  <path d="M300 40 L300 20 L280 20"/>
  <path d="M260 40 L260 60 L280 60"/>
  <path d="M300 40 L300 60 L280 60"/>
  <path d="M340 40 L340 20 L360 20"/>
  <path d="M380 40 L380 20 L360 20"/>
  <path d="M340 40 L340 60 L360 60"/>
  <path d="M380 40 L380 60 L360 60"/>
  <path d="M420 40 L420 20 L440 20"/>
  <path d="M460 40 L460 20 L440 20"/>
  <path d="M420 40 L420 60 L440 60"/>
  <path d="M460 40 L460 60 L440 60"/>
  <path d="M20 120 L20 100 L40 100"/>
  <path d="M60 120 L60 100 L40 100"/>
  <path d="M20 120 L20 140 L40 140"/>
  <path d="M60 120 L60 140 L40 140"/>
  <path d="M100 120 L100 100 L120 100"/>
  <path d="M140 120 L140 100 L120 100"/>
  <path d="M100 120 L100 140 L120 140"/>
  <path d="M140 120 L140 140 L120 140"/>
  <path d="M180 120 L180 100 L200 100"/>
  <path d="M220 120 L220 100 L200 100"/>
  <path d="M180 120 L180 140 L200 140"/>
  <path d="M220 120 L220 140 L200 140"/>
  <path d="M260 120 L260 100 L280 100"/>
  <path d="M300 120 L300 100 L280 100"/>
  <path d="M260 120 L260 140 L280 140"/>
  <path d="M300 120 L300 140 L280 140"/>
  <path d="M340 120 L340 100 L360 100"/>
  <path d="M380 120 L380 100 L360 100"/>
  <path d="M340 120 L340 140 L360 140"/>
  <path d="M380 120 L380 140 L360 140"/>
  <path d="M420 120 L420 100 L440 100"/>
  <path d="M460 120 L460 100 L440 100"/>
  <path d="M420 120 L420 140 L440 140"/>
  <path d="M460 120 L460 140 L440 140"/>
  <path d="M20 200 L20 180 L40 180"/>
  <path d="M60 200 L60 180 L40 180"/>
  <path d="M20 200 L20 220 L40 220"/>
  <path d="M60 200 L60 220 L40 220"/>
  <path d="M100 200 L100 180 L120 180"/>
  <path d="M140 200 L140 180 L120 180"/>
  <path d="M100 200 L100 220 L120 220"/>
  <path d="M140 200 L140 220 L120 220"/>
  <path d="M180 200 L180 180 L200 180"/>
  <path d="M220 200 L220 180 L200 180"/>
  <path d="M180 200 L180 220 L200 220"/>
  <path d="M220 200 L220 220 L200 220"/>
  <path d="M260 200 L260 180 L280 180"/>
  <path d="M300 200 L300 180 L280 180"/>
  <path d="M260 200 L260 220 L280 220"/>
  <path d="M300 200 L300 220 L280 220"/>
  <path d="M340 200 L340 180 L360 180"/>
  <path d="M380 200 L380 180 L360 180"/>
  <path d="M340 200 L340 220 L360 220"/>
  <path d="M380 200 L380 220 L360 220"/>
  <path d="M420 200 L420 180 L440 180"/>
  <path d="M460 200 L460 180 L440 180"/>
  <path d="M420 200 L420 220 L440 220"/>
  <path d="M460 200 L460 220 L440 220"/>
  <path d="M20 280 L20 260 L40 260"/>
  <path d="M60 280 L60 260 L40 260"/>
  <path d="M20 280 L20 300 L40 300"/>
  <path d="M60 280 L60 300 L40 300"/>
  <path d="M100 280 L100 260 L120 260"/>
  <path d="M140 280 L140 260 L120 260"/>
  <path d="M100 280 L100 300 L120 300"/>
  <path d="M140 280 L140 300 L120 300"/>
  <path d="M180 280 L180 260 L200 260"/>
  <path d="M220 280 L220 260 L200 260"/>
  <path d="M180 280 L180 300 L200 300"/>
  <path d="M220 280 L220 300 L200 300"/>
  <path d="M260 280 L260 260 L280 260"/>
  <path d="M300 280 L300 260 L280 260"/>
  <path d="M260 280 L260 300 L280 300"/>
  <path d="M300 280 L300 300 L280 300"/>
  <path d="M340 280 L340 260 L360 260"/>
  <path d="M380 280 L380 260 L360 260"/>
  <path d="M340 280 L340 300 L360 300"/>
  <path d="M380 280 L380 300 L360 300"/>
  <path d="M420 280 L420 260 L440 260"/>
  <path d="M460 280 L460 260 L440 260"/>
  <path d="M420 280 L420 300 L440 300"/>
  <path d="M460 280 L460 300 L440 300"/>
  <path d="M20 360 L20 340 L40 340"/>
  <path d="M60 360 L60 340 L40 340"/>
  <path d="M20 360 L20 380 L40 380"/>
  <path d="M60 360 L60 380 L40 380"/>
  <path d="M100 360 L100 340 L120 340"/>
  <path d="M140 360 L140 340 L120 340"/>
  <path d="M100 360 L100 380 L120 380"/>
  <path d="M140 360 L140 380 L120 380"/>
  <path d="M180 360 L180 340 L200 340"/>
  <path d="M220 360 L220 340 L200 340"/>
  <path d="M180 360 L180 380 L200 380"/>
  <path d="M220 360 L220 380 L200 380"/>
  <path d="M260 360 L260 340 L280 340"/>
  <path d="M300 360 L300 340 L280 340"/>
  <path d="M260 360 L260 380 L280 380"/>
  <path d="M300 360 L300 380 L280 380"/>
  <path d="M340 360 L340 340 L360 340"/>
  <path d="M380 360 L380 340 L360 340"/>
  <path d="M340 360 L340 380 L360 380"/>
  <path d="M380 360 L380 380 L360 380"/>
  <path d="M420 360 L420 340 L440 340"/>
  <path d="M460 360 L460 340 L440 340"/>
  <path d="M420 360 L420 380 L440 380"/>
  <path d="M460 360 L460 380 L440 380"/>
  <path d="M20 440 L20 420 L40 420"/>
  <path d="M60 440 L60 420 L40 420"/>
  <path d="M20 440 L20 460 L40 460"/>
  <path d="M60 440 L60 460 L40 460"/>
  <path d="M100 440 L100 420 L120 420"/>
  <path d="M140 440 L140 420 L120 420"/>
  <path d="M100 440 L100 460 L120 460"/>
  <path d="M140 440 L140 460 L120 460"/>
  <path d="M180 440 L180 420 L200 420"/>
  <path d="M220 440 L220 420 L200 420"/>
  <path d="M180 440 L180 460 L200 460"/>
  <path d="M220 440 L220 460 L200 460"/>
  <path d="M260 440 L260 420 L280 420"/>
  <path d="M300 440 L300 420 L280 420"/>
  <path d="M260 440 L260 460 L280 460"/>
  <path d="M300 440 L300 460 L280 460"/>
  <path d="M340 440 L340 420 L360 420"/>
  <path d="M380 440 L380 420 L360 420"/>
  <path d="M340 440 L340 460 L360 460"/>
  <path d="M380 440 L380 460 L360 460"/>
  <path d="M420 440 L420 420 L440 420"/>
  <path d="M460 440 L460 420 L440 420"/>
  <path d="M420 440 L420 460 L440 460"/>
  <path d="M460 440 L460 460 L440 460"/>
</svg>
