<?xml version="1.0" encoding="UTF-8"?>
<svg xmlns="http://www.w3.org/2000/svg" viewBox="0 0 480 480" fill="none" stroke="currentColor" stroke-width="1">
<line x1="22" y1="30" x2="38" y2="30"/>
  <line x1="30" y1="22" x2="30" y2="38"/>
  <line x1="82" y1="30" x2="98" y2="30"/>
  <line x1="90" y1="22" x2="90" y2="38"/>
  <line x1="142" y1="30" x2="158" y2="30"/>
  <line x1="150" y1="22" x2="150" y2="38"/>
  <line x1="202" y1="30" x2="218" y2="30"/>
  <line x1="210" y1="22" x2="210" y2="38"/>
  <line x1="262" y1="30" x2="278" y2="30"/>
  <line x1="270" y1="22" x2="270" y2="38"/>
  <line x1="322" y1="30" x2="338" y2="30"/>
  <line x1="330" y1="22" x2="330" y2="38"/>
  <line x1="382" y1="30" x2="398" y2="30"/>
  <line x1="390" y1="22" x2="390" y2="38"/>
  <line x1="442" y1="30" x2="458" y2="30"/>
  <line x1="450" y1="22" x2="450" y2="38"/>
  <line x1="22" y1="90" x2="38" y2="90"/>
  <line x1="30" y1="82" x2="30" y2="98"/>
  <line x1="82" y1="90" x2="98" y2="90"/>
  <line x1="90" y1="82" x2="90" y2="98"/>
  <line x1="142" y1="90" x2="158" y2="90"/>
  <line x1="150" y1="82" x2="150" y2="98"/>
  <line x1="202" y1="90" x2="218" y2="90"/>
  <line x1="210" y1="82" x2="210" y2="98"/>
  <line x1="262" y1="90" x2="278" y2="90"/>
  <line x1="270" y1="82" x2="270" y2="98"/>
  <line x1="322" y1="90" x2="338" y2="90"/>
  <line x1="330" y1="82" x2="330" y2="98"/>
  <line x1="382" y1="90" x2="398" y2="90"/>
  <line x1="390" y1="82" x2="390" y2="98"/>
  <line x1="442" y1="90" x2="458" y2="90"/>
  <line x1="450" y1="82" x2="450" y2="98"/>
  <line x1="22" y1="150" x2="38" y2="150"/>
  <line x1="30" y1="142" x2="30" y2="158"/>
  <line x1="82" y1="150" x2="98" y2="150"/>
  <line x1="90" y1="142" x2="90" y2="158"/>
  <line x1="142" y1="150" x2="158" y2="150"/>
  <line x1="150" y1="142" x2="150" y2="158"/>
  <line x1="202" y1="150" x2="218" y2="150"/>
  <line x1="210" y1="142" x2="210" y2="158"/>
  <line x1="262" y1="150" x2="278" y2="150"/>
  <line x1="270" y1="142" x2="270" y2="158"/>
  <line x1="322" y1="150" x2="338" y2="150"/>
  <line x1="330" y1="142" x2="330" y2="158"/>
  <line x1="382" y1="150" x2="398" y2="150"/>
  <line x1="390" y1="142" x2="390" y2="158"/>
  <line x1="442" y1="150" x2="458" y2="150"/>
  <line x1="450" y1="142" x2="450" y2="158"/>
  <line x1="22" y1="210" x2="38" y2="210"/>
  <line x1="30" y1="202" x2="30" y2="218"/>
  <line x1="82" y1="210" x2="98" y2="210"/>
  <line x1="90" y1="202" x2="90" y2="218"/>
  <line x1="142" y1="210" x2="158" y2="210"/>
  <line x1="150" y1="202" x2="150" y2="218"/>
  <line x1="202" y1="210" x2="218" y2="210"/>
  <line x1="210" y1="202" x2="210" y2="218"/>
  <line x1="262" y1="210" x2="278" y2="210"/>
  <line x1="270" y1="202" x2="270" y2="218"/>
  <line x1="322" y1="210" x2="338" y2="210"/>
  <line x1="330" y1="202" x2="330" y2="218"/>
  <line x1="382" y1="210" x2="398" y2="210"/>
  <line x1="390" y1="202" x2="390" y2="218"/>
  <line x1="442" y1="210" x2="458" y2="210"/>
  <line x1="450" y1="202" x2="450" y2="218"/>
  <line x1="22" y1="270" x2="38" y2="270"/>
  <line x1="30" y1="262" x2="30" y2="278"/>
  <line x1="82" y1="270" x2="98" y2="270"/>
  <line x1="90" y1="262" x2="90" y2="278"/>
  <line x1="142" y1="270" x2="158" y2="270"/>
  <line x1="150" y1="262" x2="150" y2="278"/>
  <line x1="202" y1="270" x2="218" y2="270"/>
  <line x1="210" y1="262" x2="210" y2="278"/>
  <line x1="262" y1="270" x2="278" y2="270"/>
  <line x1="270" y1="262" x2="270" y2="278"/>
  <line x1="322" y1="270" x2="338" y2="270"/>
  <line x1="330" y1="262" x2="330" y2="278"/>
  <line x1="382" y1="270" x2="398" y2="270"/>
  <line x1="390" y1="262" x2="390" y2="278"/>
  <line x1="442" y1="270" x2="458" y2="270"/>
  <line x1="450" y1="262" x2="450" y2="278"/>
  <line x1="22" y1="330" x2="38" y2="330"/>
  <line x1="30" y1="322" x2="30" y2="338"/>
  <line x1="82" y1="330" x2="98" y2="330"/>
  <line x1="90" y1="322" x2="90" y2="338"/>
  <line x1="142" y1="330" x2="158" y2="330"/>
  <line x1="150" y1="322" x2="150" y2="338"/>
  <line x1="202" y1="330" x2="218" y2="330"/>
  <line x1="210" y1="322" x2="210" y2="338"/>
  <line x1="262" y1="330" x2="278" y2="330"/>
  <line x1="270" y1="322" x2="270" y2="338"/>
  <line x1="322" y1="330" x2="338" y2="330"/>
  <line x1="330" y1="322" x2="330" y2="338"/>
  <line x1="382" y1="330" x2="398" y2="330"/>
  <line x1="390" y1="322" x2="390" y2="338"/>
  <line x1="442" y1="330" x2="458" y2="330"/>
  <line x1="450" y1="322" x2="450" y2="338"/>
  <line x1="22" y1="390" x2="38" y2="390"/>
  <line x1="30" y1="382" x2="30" y2="398"/>
  <line x1="82" y1="390" x2="98" y2="390"/>
  <line x1="90" y1="382" x2="90" y2="398"/>
  <line x1="142" y1="390" x2="158" y2="390"/>
  <line x1="150" y1="382" x2="150" y2="398"/>
  <line x1="202" y1="390" x2="218" y2="390"/>
  <line x1="210" y1="382" x2="210" y2="398"/>
  <line x1="262" y1="390" x2="278" y2="390"/>
  <line x1="270" y1="382" x2="270" y2="398"/>
  <line x1="322" y1="390" x2="338" y2="390"/>
  <line x1="330" y1="382" x2="330" y2="398"/>
  <line x1="382" y1="390" x2="398" y2="390"/>
  <line x1="390" y1="382" x2="390" y2="398"/>
  <line x1="442" y1="390" x2="458" y2="390"/>
  <line x1="450" y1="382" x2="450" y2="398"/>
  <line x1="22" y1="450" x2="38" y2="450"/>
  <line x1="30" y1="442" x2="30" y2="458"/>
  <line x1="82" y1="450" x2="98" y2="450"/>
  <line x1="90" y1="442" x2="90" y2="458"/>
  <line x1="142" y1="450" x2="158" y2="450"/>
  <line x1="150" y1="442" x2="150" y2="458"/>
  <line x1="202" y1="450" x2="218" y2="450"/>
  <line x1="210" y1="442" x2="210" y2="458"/>
  <line x1="262" y1="450" x2="278" y2="450"/>
  <line x1="270" y1="442" x2="270" y2="458"/>
  <line x1="322" y1="450" x2="338" y2="450"/>
  <line x1="330" y1="442" x2="330" y2="458"/>
  <line x1="382" y1="450" x2="398" y2="450"/>
  <line x1="390" y1="442" x2="390" y2="458"/>
  <line x1="442" y1="450" x2="458" y2="450"/>
  <line x1="450" y1="442" x2="450" y2="458"/>
</svg>
