<?xml version="1.0" encoding="UTF-8"?>
<!-- SOURCE: retool.com/database hero (and /agents) — diagonal chevron/sawtooth grid pattern -->
<!-- The repeating V-shaped diagonal lines. Use stroke="currentColor" for theming. -->
<!-- Original dimensions on page: ~720x720px. viewBox 480x480. -->
<svg xmlns="http://www.w3.org/2000/svg" fill="none" stroke="currentColor" preserveAspectRatio="none" viewBox="0 0 480 480">
  <g clip-path="url(#clip-diagonal)">
    <path d="M462.407 53.333V0l-35.233 53.333m35.233 0H480V0zm0 0h-35.233m0 0V0l-70.418 53.333m70.418 0h-70.418m0 0V0L240.377 53.333m116.379 0H240.377m0 0V0L0 53.333
             M462.407 106.667V53.333l-35.233 53.334m35.233 0H480V53.333zm0 0h-35.233m0 0V53.333l-70.418 53.334m70.418 0h-70.418m0 0V53.333l-116.379 53.334m116.379 0H240.377m0 0V53.333L0 106.667
             M462.407 160v-53.333L427.174 160m35.233 0H480v-53.333zm0 0h-35.233m0 0v-53.333L356.756 160m70.418 0h-70.418m0 0v-53.333L240.377 160m116.379 0H240.377m0 0v-53.333L0 160
             M462.407 213.333V160l-35.233 53.333m35.233 0H480V160zm0 0h-35.233m0 0V160l-70.418 53.333m70.418 0h-70.418m0 0V160l-116.379 53.333m116.379 0H240.377m0 0V160L0 213.333"/>
    <path d="M462.407 266.667v-53.334l-35.233 53.334m35.233 0H480v-53.334zm0 0h-35.233m0 0v-53.334l-70.418 53.334m70.418 0h-70.418m0 0v-53.334l-116.379 53.334m116.379 0H240.377m0 0v-53.334L0 266.667
             M462.407 320v-53.333L427.174 320m35.233 0H480v-53.333zm0 0h-35.233m0 0v-53.333L356.756 320m70.418 0h-70.418m0 0v-53.333L240.377 320m116.379 0H240.377m0 0v-53.333L0 320
             M462.407 373.333V320l-35.233 53.333m35.233 0H480V320zm0 0h-35.233m0 0V320l-70.418 53.333m70.418 0h-70.418m0 0V320l-116.379 53.333m116.379 0H240.377m0 0V320L0 373.333"/>
    <path d="M462.407 426.667v-53.334l-35.233 53.334m35.233 0H480v-53.334zm0 0h-35.233m0 0v-53.334l-70.418 53.334m70.418 0h-70.418m0 0v-53.334l-116.379 53.334m116.379 0H240.377m0 0v-53.334L0 426.667
             M462.407 480v-53.333L427.174 480m35.233 0H480v-53.333zm0 0h-35.233m0 0v-53.333L356.756 480m70.418 0h-70.418m0 0v-53.333L240.377 480m116.379 0H240.377m0 0v-53.333L0 480"/>
  </g>
  <defs>
    <clipPath id="clip-diagonal">
      <rect width="480" height="480"/>
    </clipPath>
  </defs>
</svg>
