<?xml version="1.0" encoding="UTF-8"?>
<svg xmlns="http://www.w3.org/2000/svg" viewBox="0 0 480 480" fill="none" stroke="currentColor" fill="none">
<circle cx="280.0" cy="240.0" r="2" fill="currentColor" stroke="none"/><circle cx="272.4" cy="263.5" r="2" fill="currentColor" stroke="none"/><circle cx="252.4" cy="278.0" r="2" fill="currentColor" stroke="none"/><circle cx="227.6" cy="278.0" r="2" fill="currentColor" stroke="none"/><circle cx="207.6" cy="263.5" r="2" fill="currentColor" stroke="none"/><circle cx="200.0" cy="240.0" r="2" fill="currentColor" stroke="none"/><circle cx="207.6" cy="216.5" r="2" fill="currentColor" stroke="none"/><circle cx="227.6" cy="202.0" r="2" fill="currentColor" stroke="none"/><circle cx="252.4" cy="202.0" r="2" fill="currentColor" stroke="none"/><circle cx="272.4" cy="216.5" r="2" fill="currentColor" stroke="none"/>
  <circle cx="316.0" cy="240.0" r="2" fill="currentColor" stroke="none"/><circle cx="311.9" cy="264.7" r="2" fill="currentColor" stroke="none"/><circle cx="300.0" cy="286.7" r="2" fill="currentColor" stroke="none"/><circle cx="281.6" cy="303.6" r="2" fill="currentColor" stroke="none"/><circle cx="258.7" cy="313.7" r="2" fill="currentColor" stroke="none"/><circle cx="233.7" cy="315.7" r="2" fill="currentColor" stroke="none"/><circle cx="209.5" cy="309.6" r="2" fill="currentColor" stroke="none"/><circle cx="188.5" cy="295.9" r="2" fill="currentColor" stroke="none"/><circle cx="173.2" cy="276.2" r="2" fill="currentColor" stroke="none"/><circle cx="165.0" cy="252.5" r="2" fill="currentColor" stroke="none"/><circle cx="165.0" cy="227.5" r="2" fill="currentColor" stroke="none"/><circle cx="173.2" cy="203.8" r="2" fill="currentColor" stroke="none"/><circle cx="188.5" cy="184.1" r="2" fill="currentColor" stroke="none"/><circle cx="209.5" cy="170.4" r="2" fill="currentColor" stroke="none"/><circle cx="233.7" cy="164.3" r="2" fill="currentColor" stroke="none"/><circle cx="258.7" cy="166.3" r="2" fill="currentColor" stroke="none"/><circle cx="281.6" cy="176.4" r="2" fill="currentColor" stroke="none"/><circle cx="300.0" cy="193.3" r="2" fill="currentColor" stroke="none"/><circle cx="311.9" cy="215.3" r="2" fill="currentColor" stroke="none"/>
  <circle cx="352.0" cy="240.0" r="2" fill="currentColor" stroke="none"/><circle cx="349.4" cy="264.1" r="2" fill="currentColor" stroke="none"/><circle cx="341.6" cy="287.0" r="2" fill="currentColor" stroke="none"/><circle cx="329.2" cy="307.8" r="2" fill="currentColor" stroke="none"/><circle cx="312.5" cy="325.4" r="2" fill="currentColor" stroke="none"/><circle cx="292.5" cy="339.0" r="2" fill="currentColor" stroke="none"/><circle cx="270.0" cy="347.9" r="2" fill="currentColor" stroke="none"/><circle cx="246.1" cy="351.8" r="2" fill="currentColor" stroke="none"/><circle cx="221.9" cy="350.5" r="2" fill="currentColor" stroke="none"/><circle cx="198.5" cy="344.0" r="2" fill="currentColor" stroke="none"/><circle cx="177.1" cy="332.7" r="2" fill="currentColor" stroke="none"/><circle cx="158.7" cy="317.0" r="2" fill="currentColor" stroke="none"/><circle cx="144.0" cy="297.7" r="2" fill="currentColor" stroke="none"/><circle cx="133.9" cy="275.8" r="2" fill="currentColor" stroke="none"/><circle cx="128.7" cy="252.1" r="2" fill="currentColor" stroke="none"/><circle cx="128.7" cy="227.9" r="2" fill="currentColor" stroke="none"/><circle cx="133.9" cy="204.2" r="2" fill="currentColor" stroke="none"/><circle cx="144.0" cy="182.3" r="2" fill="currentColor" stroke="none"/><circle cx="158.7" cy="163.0" r="2" fill="currentColor" stroke="none"/><circle cx="177.1" cy="147.3" r="2" fill="currentColor" stroke="none"/><circle cx="198.5" cy="136.0" r="2" fill="currentColor" stroke="none"/><circle cx="221.9" cy="129.5" r="2" fill="currentColor" stroke="none"/><circle cx="246.1" cy="128.2" r="2" fill="currentColor" stroke="none"/><circle cx="270.0" cy="132.1" r="2" fill="currentColor" stroke="none"/><circle cx="292.5" cy="141.0" r="2" fill="currentColor" stroke="none"/><circle cx="312.5" cy="154.6" r="2" fill="currentColor" stroke="none"/><circle cx="329.2" cy="172.2" r="2" fill="currentColor" stroke="none"/><circle cx="341.6" cy="193.0" r="2" fill="currentColor" stroke="none"/><circle cx="349.4" cy="215.9" r="2" fill="currentColor" stroke="none"/>
  <circle cx="388.0" cy="240.0" r="2" fill="currentColor" stroke="none"/><circle cx="386.0" cy="264.4" r="2" fill="currentColor" stroke="none"/><circle cx="380.0" cy="288.1" r="2" fill="currentColor" stroke="none"/><circle cx="370.2" cy="310.4" r="2" fill="currentColor" stroke="none"/><circle cx="356.8" cy="330.9" r="2" fill="currentColor" stroke="none"/><circle cx="340.2" cy="348.9" r="2" fill="currentColor" stroke="none"/><circle cx="320.9" cy="363.9" r="2" fill="currentColor" stroke="none"/><circle cx="299.5" cy="375.5" r="2" fill="currentColor" stroke="none"/><circle cx="276.3" cy="383.5" r="2" fill="currentColor" stroke="none"/><circle cx="252.2" cy="387.5" r="2" fill="currentColor" stroke="none"/><circle cx="227.8" cy="387.5" r="2" fill="currentColor" stroke="none"/><circle cx="203.7" cy="383.5" r="2" fill="currentColor" stroke="none"/><circle cx="180.5" cy="375.5" r="2" fill="currentColor" stroke="none"/><circle cx="159.1" cy="363.9" r="2" fill="currentColor" stroke="none"/><circle cx="139.8" cy="348.9" r="2" fill="currentColor" stroke="none"/><circle cx="123.2" cy="330.9" r="2" fill="currentColor" stroke="none"/><circle cx="109.8" cy="310.4" r="2" fill="currentColor" stroke="none"/><circle cx="100.0" cy="288.1" r="2" fill="currentColor" stroke="none"/><circle cx="94.0" cy="264.4" r="2" fill="currentColor" stroke="none"/><circle cx="92.0" cy="240.0" r="2" fill="currentColor" stroke="none"/><circle cx="94.0" cy="215.6" r="2" fill="currentColor" stroke="none"/><circle cx="100.0" cy="191.9" r="2" fill="currentColor" stroke="none"/><circle cx="109.8" cy="169.6" r="2" fill="currentColor" stroke="none"/><circle cx="123.2" cy="149.1" r="2" fill="currentColor" stroke="none"/><circle cx="139.8" cy="131.1" r="2" fill="currentColor" stroke="none"/><circle cx="159.1" cy="116.1" r="2" fill="currentColor" stroke="none"/><circle cx="180.5" cy="104.5" r="2" fill="currentColor" stroke="none"/><circle cx="203.7" cy="96.5" r="2" fill="currentColor" stroke="none"/><circle cx="227.8" cy="92.5" r="2" fill="currentColor" stroke="none"/><circle cx="252.2" cy="92.5" r="2" fill="currentColor" stroke="none"/><circle cx="276.3" cy="96.5" r="2" fill="currentColor" stroke="none"/><circle cx="299.5" cy="104.5" r="2" fill="currentColor" stroke="none"/><circle cx="320.9" cy="116.1" r="2" fill="currentColor" stroke="none"/><circle cx="340.2" cy="131.1" r="2" fill="currentColor" stroke="none"/><circle cx="356.8" cy="149.1" r="2" fill="currentColor" stroke="none"/><circle cx="370.2" cy="169.6" r="2" fill="currentColor" stroke="none"/><circle cx="380.0" cy="191.9" r="2" fill="currentColor" stroke="none"/><circle cx="386.0" cy="215.6" r="2" fill="currentColor" stroke="none"/>
  <circle cx="424.0" cy="240.0" r="2" fill="currentColor" stroke="none"/><circle cx="422.4" cy="264.0" r="2" fill="currentColor" stroke="none"/><circle cx="417.7" cy="287.6" r="2" fill="currentColor" stroke="none"/><circle cx="410.0" cy="310.4" r="2" fill="currentColor" stroke="none"/><circle cx="399.3" cy="332.0" r="2" fill="currentColor" stroke="none"/><circle cx="386.0" cy="352.0" r="2" fill="currentColor" stroke="none"/><circle cx="370.1" cy="370.1" r="2" fill="currentColor" stroke="none"/><circle cx="352.0" cy="386.0" r="2" fill="currentColor" stroke="none"/><circle cx="332.0" cy="399.3" r="2" fill="currentColor" stroke="none"/><circle cx="310.4" cy="410.0" r="2" fill="currentColor" stroke="none"/><circle cx="287.6" cy="417.7" r="2" fill="currentColor" stroke="none"/><circle cx="264.0" cy="422.4" r="2" fill="currentColor" stroke="none"/><circle cx="240.0" cy="424.0" r="2" fill="currentColor" stroke="none"/><circle cx="216.0" cy="422.4" r="2" fill="currentColor" stroke="none"/><circle cx="192.4" cy="417.7" r="2" fill="currentColor" stroke="none"/><circle cx="169.6" cy="410.0" r="2" fill="currentColor" stroke="none"/><circle cx="148.0" cy="399.3" r="2" fill="currentColor" stroke="none"/><circle cx="128.0" cy="386.0" r="2" fill="currentColor" stroke="none"/><circle cx="109.9" cy="370.1" r="2" fill="currentColor" stroke="none"/><circle cx="94.0" cy="352.0" r="2" fill="currentColor" stroke="none"/><circle cx="80.7" cy="332.0" r="2" fill="currentColor" stroke="none"/><circle cx="70.0" cy="310.4" r="2" fill="currentColor" stroke="none"/><circle cx="62.3" cy="287.6" r="2" fill="currentColor" stroke="none"/><circle cx="57.6" cy="264.0" r="2" fill="currentColor" stroke="none"/><circle cx="56.0" cy="240.0" r="2" fill="currentColor" stroke="none"/><circle cx="57.6" cy="216.0" r="2" fill="currentColor" stroke="none"/><circle cx="62.3" cy="192.4" r="2" fill="currentColor" stroke="none"/><circle cx="70.0" cy="169.6" r="2" fill="currentColor" stroke="none"/><circle cx="80.7" cy="148.0" r="2" fill="currentColor" stroke="none"/><circle cx="94.0" cy="128.0" r="2" fill="currentColor" stroke="none"/><circle cx="109.9" cy="109.9" r="2" fill="currentColor" stroke="none"/><circle cx="128.0" cy="94.0" r="2" fill="currentColor" stroke="none"/><circle cx="148.0" cy="80.7" r="2" fill="currentColor" stroke="none"/><circle cx="169.6" cy="70.0" r="2" fill="currentColor" stroke="none"/><circle cx="192.4" cy="62.3" r="2" fill="currentColor" stroke="none"/><circle cx="216.0" cy="57.6" r="2" fill="currentColor" stroke="none"/><circle cx="240.0" cy="56.0" r="2" fill="currentColor" stroke="none"/><circle cx="264.0" cy="57.6" r="2" fill="currentColor" stroke="none"/><circle cx="287.6" cy="62.3" r="2" fill="currentColor" stroke="none"/><circle cx="310.4" cy="70.0" r="2" fill="currentColor" stroke="none"/><circle cx="332.0" cy="80.7" r="2" fill="currentColor" stroke="none"/><circle cx="352.0" cy="94.0" r="2" fill="currentColor" stroke="none"/><circle cx="370.1" cy="109.9" r="2" fill="currentColor" stroke="none"/><circle cx="386.0" cy="128.0" r="2" fill="currentColor" stroke="none"/><circle cx="399.3" cy="148.0" r="2" fill="currentColor" stroke="none"/><circle cx="410.0" cy="169.6" r="2" fill="currentColor" stroke="none"/><circle cx="417.7" cy="192.4" r="2" fill="currentColor" stroke="none"/><circle cx="422.4" cy="216.0" r="2" fill="currentColor" stroke="none"/>
  <circle cx="460.0" cy="240.0" r="2" fill="currentColor" stroke="none"/><circle cx="458.7" cy="264.2" r="2" fill="currentColor" stroke="none"/><circle cx="454.7" cy="288.1" r="2" fill="currentColor" stroke="none"/><circle cx="448.1" cy="311.4" r="2" fill="currentColor" stroke="none"/><circle cx="439.0" cy="333.9" r="2" fill="currentColor" stroke="none"/><circle cx="427.4" cy="355.2" r="2" fill="currentColor" stroke="none"/><circle cx="413.6" cy="375.1" r="2" fill="currentColor" stroke="none"/><circle cx="397.7" cy="393.4" r="2" fill="currentColor" stroke="none"/><circle cx="379.9" cy="409.8" r="2" fill="currentColor" stroke="none"/><circle cx="360.3" cy="424.2" r="2" fill="currentColor" stroke="none"/><circle cx="339.3" cy="436.3" r="2" fill="currentColor" stroke="none"/><circle cx="317.1" cy="446.0" r="2" fill="currentColor" stroke="none"/><circle cx="294.0" cy="453.3" r="2" fill="currentColor" stroke="none"/><circle cx="270.2" cy="457.9" r="2" fill="currentColor" stroke="none"/><circle cx="246.1" cy="459.9" r="2" fill="currentColor" stroke="none"/><circle cx="221.8" cy="459.2" r="2" fill="currentColor" stroke="none"/><circle cx="197.8" cy="455.9" r="2" fill="currentColor" stroke="none"/><circle cx="174.3" cy="450.0" r="2" fill="currentColor" stroke="none"/><circle cx="151.6" cy="441.5" r="2" fill="currentColor" stroke="none"/><circle cx="130.0" cy="430.5" r="2" fill="currentColor" stroke="none"/><circle cx="109.7" cy="417.3" r="2" fill="currentColor" stroke="none"/><circle cx="91.0" cy="401.9" r="2" fill="currentColor" stroke="none"/><circle cx="74.1" cy="384.5" r="2" fill="currentColor" stroke="none"/><circle cx="59.2" cy="365.4" r="2" fill="currentColor" stroke="none"/><circle cx="46.5" cy="344.7" r="2" fill="currentColor" stroke="none"/><circle cx="36.2" cy="322.8" r="2" fill="currentColor" stroke="none"/><circle cx="28.3" cy="299.9" r="2" fill="currentColor" stroke="none"/><circle cx="23.0" cy="276.2" r="2" fill="currentColor" stroke="none"/><circle cx="20.3" cy="252.1" r="2" fill="currentColor" stroke="none"/><circle cx="20.3" cy="227.9" r="2" fill="currentColor" stroke="none"/><circle cx="23.0" cy="203.8" r="2" fill="currentColor" stroke="none"/><circle cx="28.3" cy="180.1" r="2" fill="currentColor" stroke="none"/><circle cx="36.2" cy="157.2" r="2" fill="currentColor" stroke="none"/><circle cx="46.5" cy="135.3" r="2" fill="currentColor" stroke="none"/><circle cx="59.2" cy="114.6" r="2" fill="currentColor" stroke="none"/><circle cx="74.1" cy="95.5" r="2" fill="currentColor" stroke="none"/><circle cx="91.0" cy="78.1" r="2" fill="currentColor" stroke="none"/><circle cx="109.7" cy="62.7" r="2" fill="currentColor" stroke="none"/><circle cx="130.0" cy="49.5" r="2" fill="currentColor" stroke="none"/><circle cx="151.6" cy="38.5" r="2" fill="currentColor" stroke="none"/><circle cx="174.3" cy="30.0" r="2" fill="currentColor" stroke="none"/><circle cx="197.8" cy="24.1" r="2" fill="currentColor" stroke="none"/><circle cx="221.8" cy="20.8" r="2" fill="currentColor" stroke="none"/><circle cx="246.1" cy="20.1" r="2" fill="currentColor" stroke="none"/><circle cx="270.2" cy="22.1" r="2" fill="currentColor" stroke="none"/><circle cx="294.0" cy="26.7" r="2" fill="currentColor" stroke="none"/><circle cx="317.1" cy="34.0" r="2" fill="currentColor" stroke="none"/><circle cx="339.3" cy="43.7" r="2" fill="currentColor" stroke="none"/><circle cx="360.3" cy="55.8" r="2" fill="currentColor" stroke="none"/><circle cx="379.9" cy="70.2" r="2" fill="currentColor" stroke="none"/><circle cx="397.7" cy="86.6" r="2" fill="currentColor" stroke="none"/><circle cx="413.6" cy="104.9" r="2" fill="currentColor" stroke="none"/><circle cx="427.4" cy="124.8" r="2" fill="currentColor" stroke="none"/><circle cx="439.0" cy="146.1" r="2" fill="currentColor" stroke="none"/><circle cx="448.1" cy="168.6" r="2" fill="currentColor" stroke="none"/><circle cx="454.7" cy="191.9" r="2" fill="currentColor" stroke="none"/><circle cx="458.7" cy="215.8" r="2" fill="currentColor" stroke="none"/>
</svg>
