<?xml version="1.0" encoding="UTF-8"?>
<svg xmlns="http://www.w3.org/2000/svg" viewBox="0 0 480 480" fill="none" stroke="currentColor" >
<path d="M0.0 240.0 L8.0 260.8 L16.0 280.7 L24.0 298.8 L32.0 314.3 L40.0 326.6 L48.0 335.1 L56.0 339.5 L64.0 339.5 L72.0 335.1 L80.0 326.6 L88.0 314.3 L96.0 298.8 L104.0 280.7 L112.0 260.8 L120.0 240.0 L128.0 219.2 L136.0 199.3 L144.0 181.2 L152.0 165.7 L160.0 153.4 L168.0 144.9 L176.0 140.5 L184.0 140.5 L192.0 144.9 L200.0 153.4 L208.0 165.7 L216.0 181.2 L224.0 199.3 L232.0 219.2 L240.0 240.0 L248.0 260.8 L256.0 280.7 L264.0 298.8 L272.0 314.3 L280.0 326.6 L288.0 335.1 L296.0 339.5 L304.0 339.5 L312.0 335.1 L320.0 326.6 L328.0 314.3 L336.0 298.8 L344.0 280.7 L352.0 260.8 L360.0 240.0 L368.0 219.2 L376.0 199.3 L384.0 181.2 L392.0 165.7 L400.0 153.4 L408.0 144.9 L416.0 140.5 L424.0 140.5 L432.0 144.9 L440.0 153.4 L448.0 165.7 L456.0 181.2 L464.0 199.3 L472.0 219.2" stroke-width="1.5"/>
   <path d="M0.0 240.0 L8.0 219.2 L16.0 199.3 L24.0 181.2 L32.0 165.7 L40.0 153.4 L48.0 144.9 L56.0 140.5 L64.0 140.5 L72.0 144.9 L80.0 153.4 L88.0 165.7 L96.0 181.2 L104.0 199.3 L112.0 219.2 L120.0 240.0 L128.0 260.8 L136.0 280.7 L144.0 298.8 L152.0 314.3 L160.0 326.6 L168.0 335.1 L176.0 339.5 L184.0 339.5 L192.0 335.1 L200.0 326.6 L208.0 314.3 L216.0 298.8 L224.0 280.7 L232.0 260.8 L240.0 240.0 L248.0 219.2 L256.0 199.3 L264.0 181.2 L272.0 165.7 L280.0 153.4 L288.0 144.9 L296.0 140.5 L304.0 140.5 L312.0 144.9 L320.0 153.4 L328.0 165.7 L336.0 181.2 L344.0 199.3 L352.0 219.2 L360.0 240.0 L368.0 260.8 L376.0 280.7 L384.0 298.8 L392.0 314.3 L400.0 326.6 L408.0 335.1 L416.0 339.5 L424.0 339.5 L432.0 335.1 L440.0 326.6 L448.0 314.3 L456.0 298.8 L464.0 280.7 L472.0 260.8" stroke-width="1.5" opacity="0.6"/>
   <line x1="16" y1="278.3" x2="16" y2="201.7" stroke-width="0.8" opacity="0.5"/><line x1="48" y1="334.3" x2="48" y2="145.7" stroke-width="0.8" opacity="0.5"/><line x1="80" y1="327.9" x2="80" y2="152.1" stroke-width="0.8" opacity="0.5"/><line x1="112" y1="263.3" x2="112" y2="216.7" stroke-width="0.8" opacity="0.5"/><line x1="144" y1="183.4" x2="144" y2="296.6" stroke-width="0.8" opacity="0.5"/><line x1="176" y1="140.9" x2="176" y2="339.1" stroke-width="0.8" opacity="0.5"/><line x1="208" y1="164.0" x2="208" y2="316.0" stroke-width="0.8" opacity="0.5"/><line x1="240" y1="237.4" x2="240" y2="242.6" stroke-width="0.8" opacity="0.5"/><line x1="272" y1="312.5" x2="272" y2="167.5" stroke-width="0.8" opacity="0.5"/><line x1="304" y1="339.7" x2="304" y2="140.3" stroke-width="0.8" opacity="0.5"/><line x1="336" y1="300.9" x2="336" y2="179.1" stroke-width="0.8" opacity="0.5"/><line x1="368" y1="221.8" x2="368" y2="258.2" stroke-width="0.8" opacity="0.5"/><line x1="400" y1="154.7" x2="400" y2="325.3" stroke-width="0.8" opacity="0.5"/><line x1="432" y1="144.1" x2="432" y2="335.9" stroke-width="0.8" opacity="0.5"/><line x1="464" y1="196.9" x2="464" y2="283.1" stroke-width="0.8" opacity="0.5"/>
</svg>
