<?xml version="1.0" encoding="UTF-8"?>
<svg xmlns="http://www.w3.org/2000/svg" viewBox="0 0 480 420" fill="none" stroke="currentColor" >
<path d="M240.0 60.0 L246.7 71.1 L240.4 82.4 L253.3 82.2 L260.0 93.3 L253.7 104.7 L240.8 104.9 L247.4 116.0 L241.1 127.3 L254.1 127.1 L260.8 138.2 L267.0 126.9 L280.0 126.7 L286.7 137.8 L280.4 149.1 L293.3 148.9 L300.0 160.0 L293.7 171.3 L280.8 171.5 L287.4 182.7 L281.1 194.0 L268.2 194.2 L261.5 183.1 L255.2 194.4 L242.3 194.6 L248.9 205.8 L242.6 217.1 L255.6 216.9 L262.3 228.0 L256.0 239.3 L243.0 239.5 L249.7 250.6 L243.4 262.0 L256.4 261.7 L263.0 272.9 L269.3 261.5 L282.3 261.3 L288.9 272.4 L282.6 283.7 L295.6 283.5 L302.3 294.6 L308.6 283.3 L321.5 283.1 L314.8 272.0 L321.1 260.7 L334.1 260.4 L340.8 271.5 L347.0 260.2 L360.0 260.0 L366.7 271.1 L360.4 282.4 L373.3 282.2 L380.0 293.3 L373.7 304.7 L360.8 304.9 L367.4 316.0 L361.1 327.3 L374.1 327.1 L380.8 338.2 L387.0 326.9 L400.0 326.7 L406.7 337.8 L400.4 349.1 L413.3 348.9 L420.0 360.0 L406.7 360.0 L400.0 348.5 L393.3 360.0 L380.0 360.0 L373.3 348.5 L380.0 336.9 L366.7 336.9 L360.0 325.4 L353.3 336.9 L340.0 336.9 L346.7 348.5 L340.0 360.0 L326.7 360.0 L320.0 348.5 L313.3 360.0 L300.0 360.0 L293.3 348.5 L300.0 336.9 L286.7 336.9 L280.0 325.4 L286.7 313.8 L300.0 313.8 L293.3 302.3 L300.0 290.7 L286.7 290.7 L280.0 279.2 L273.3 290.7 L260.0 290.7 L253.3 279.2 L260.0 267.6 L246.7 267.6 L240.0 256.1 L233.3 267.6 L220.0 267.6 L226.7 279.2 L220.0 290.7 L206.7 290.7 L200.0 279.2 L193.3 290.7 L180.0 290.7 L186.7 302.3 L180.0 313.8 L193.3 313.8 L200.0 325.4 L193.3 336.9 L180.0 336.9 L186.7 348.5 L180.0 360.0 L166.7 360.0 L160.0 348.5 L153.3 360.0 L140.0 360.0 L133.3 348.5 L140.0 336.9 L126.7 336.9 L120.0 325.4 L113.3 336.9 L100.0 336.9 L106.7 348.5 L100.0 360.0 L86.7 360.0 L80.0 348.5 L73.3 360.0 L60.0 360.0 L66.7 348.9 L79.6 349.1 L73.3 337.8 L80.0 326.7 L93.0 326.9 L99.2 338.2 L105.9 327.1 L118.9 327.3 L112.6 316.0 L119.2 304.9 L106.3 304.7 L100.0 293.3 L106.7 282.2 L119.6 282.4 L113.3 271.1 L120.0 260.0 L133.0 260.2 L139.2 271.5 L145.9 260.4 L158.9 260.7 L165.2 272.0 L158.5 283.1 L171.4 283.3 L177.7 294.6 L184.4 283.5 L197.4 283.7 L191.1 272.4 L197.7 261.3 L210.7 261.5 L217.0 272.9 L223.6 261.7 L236.6 262.0 L230.3 250.6 L237.0 239.5 L224.0 239.3 L217.7 228.0 L224.4 216.9 L237.4 217.1 L231.1 205.8 L237.7 194.6 L224.8 194.4 L218.5 183.1 L211.8 194.2 L198.9 194.0 L192.6 182.7 L199.2 171.5 L186.3 171.3 L180.0 160.0 L186.7 148.9 L199.6 149.1 L193.3 137.8 L200.0 126.7 L213.0 126.9 L219.2 138.2 L225.9 127.1 L238.9 127.3 L232.6 116.0 L239.2 104.9 L226.3 104.7 L220.0 93.3 L226.7 82.2 L239.6 82.4 L233.3 71.1 L240.0 60.0Z" stroke-width="0.8"/>
</svg>
