<?xml version="1.0" encoding="UTF-8"?>
<svg xmlns="http://www.w3.org/2000/svg" viewBox="0 0 480 480" fill="none" stroke="currentColor" >
<path d="M420.0 240.0 L377.3 267.3 L406.3 308.9 L356.4 317.8 L367.3 367.3 L317.8 356.4 L308.9 406.3 L267.3 377.3 L240.0 420.0 L212.7 377.3 L171.1 406.3 L162.2 356.4 L112.7 367.3 L123.6 317.8 L73.7 308.9 L102.7 267.3 L60.0 240.0 L102.7 212.7 L73.7 171.1 L123.6 162.2 L112.7 112.7 L162.2 123.6 L171.1 73.7 L212.7 102.7 L240.0 60.0 L267.3 102.7 L308.9 73.7 L317.8 123.6 L367.3 112.7 L356.4 162.2 L406.3 171.1 L377.3 212.7Z" stroke-width="1"/>
   <circle cx="240" cy="240" r="60" stroke-width="1"/>
   <circle cx="240" cy="240" r="20" stroke-width="1"/>
</svg>
