<?xml version="1.0" encoding="UTF-8"?>
<svg xmlns="http://www.w3.org/2000/svg" viewBox="0 0 480 480" fill="none" >
<line x1="0" y1="16" x2="480" y2="16" stroke="currentColor" stroke-width="0.4" opacity="0.2"/>
<line x1="0" y1="48" x2="480" y2="48" stroke="currentColor" stroke-width="0.4" opacity="0.2"/>
<line x1="0" y1="80" x2="480" y2="80" stroke="currentColor" stroke-width="0.4" opacity="0.2"/>
<line x1="0" y1="112" x2="480" y2="112" stroke="currentColor" stroke-width="0.4" opacity="0.2"/>
<line x1="0" y1="144" x2="480" y2="144" stroke="currentColor" stroke-width="0.4" opacity="0.2"/>
<line x1="0" y1="176" x2="480" y2="176" stroke="currentColor" stroke-width="0.4" opacity="0.2"/>
<line x1="0" y1="208" x2="480" y2="208" stroke="currentColor" stroke-width="0.4" opacity="0.2"/>
<line x1="0" y1="240" x2="480" y2="240" stroke="currentColor" stroke-width="0.4" opacity="0.2"/>
<line x1="0" y1="272" x2="480" y2="272" stroke="currentColor" stroke-width="0.4" opacity="0.2"/>
<line x1="0" y1="304" x2="480" y2="304" stroke="currentColor" stroke-width="0.4" opacity="0.2"/>
<line x1="0" y1="336" x2="480" y2="336" stroke="currentColor" stroke-width="0.4" opacity="0.2"/>
<line x1="0" y1="368" x2="480" y2="368" stroke="currentColor" stroke-width="0.4" opacity="0.2"/>
<line x1="0" y1="400" x2="480" y2="400" stroke="currentColor" stroke-width="0.4" opacity="0.2"/>
<line x1="0" y1="432" x2="480" y2="432" stroke="currentColor" stroke-width="0.4" opacity="0.2"/>
<line x1="0" y1="464" x2="480" y2="464" stroke="currentColor" stroke-width="0.4" opacity="0.2"/>
<line x1="16" y1="0" x2="16" y2="480" stroke="currentColor" stroke-width="0.4" opacity="0.2"/>
<line x1="48" y1="0" x2="48" y2="480" stroke="currentColor" stroke-width="0.4" opacity="0.2"/>
<line x1="80" y1="0" x2="80" y2="480" stroke="currentColor" stroke-width="0.4" opacity="0.2"/>
<line x1="112" y1="0" x2="112" y2="480" stroke="currentColor" stroke-width="0.4" opacity="0.2"/>
<line x1="144" y1="0" x2="144" y2="480" stroke="currentColor" stroke-width="0.4" opacity="0.2"/>
<line x1="176" y1="0" x2="176" y2="480" stroke="currentColor" stroke-width="0.4" opacity="0.2"/>
<line x1="208" y1="0" x2="208" y2="480" stroke="currentColor" stroke-width="0.4" opacity="0.2"/>
<line x1="240" y1="0" x2="240" y2="480" stroke="currentColor" stroke-width="0.4" opacity="0.2"/>
<line x1="272" y1="0" x2="272" y2="480" stroke="currentColor" stroke-width="0.4" opacity="0.2"/>
<line x1="304" y1="0" x2="304" y2="480" stroke="currentColor" stroke-width="0.4" opacity="0.2"/>
<line x1="336" y1="0" x2="336" y2="480" stroke="currentColor" stroke-width="0.4" opacity="0.2"/>
<line x1="368" y1="0" x2="368" y2="480" stroke="currentColor" stroke-width="0.4" opacity="0.2"/>
<line x1="400" y1="0" x2="400" y2="480" stroke="currentColor" stroke-width="0.4" opacity="0.2"/>
<line x1="432" y1="0" x2="432" y2="480" stroke="currentColor" stroke-width="0.4" opacity="0.2"/>
<line x1="464" y1="0" x2="464" y2="480" stroke="currentColor" stroke-width="0.4" opacity="0.2"/>
<line x1="0" y1="0" x2="480" y2="0" stroke="currentColor" stroke-width="1.2" opacity="0.5"/>
<line x1="0" y1="128" x2="480" y2="128" stroke="currentColor" stroke-width="1.2" opacity="0.5"/>
<line x1="0" y1="256" x2="480" y2="256" stroke="currentColor" stroke-width="1.2" opacity="0.5"/>
<line x1="0" y1="384" x2="480" y2="384" stroke="currentColor" stroke-width="1.2" opacity="0.5"/>
<line x1="0" y1="0" x2="0" y2="480" stroke="currentColor" stroke-width="1.2" opacity="0.5"/>
<line x1="128" y1="0" x2="128" y2="480" stroke="currentColor" stroke-width="1.2" opacity="0.5"/>
<line x1="256" y1="0" x2="256" y2="480" stroke="currentColor" stroke-width="1.2" opacity="0.5"/>
<line x1="384" y1="0" x2="384" y2="480" stroke="currentColor" stroke-width="1.2" opacity="0.5"/>
</svg>
