<?xml version="1.0" encoding="UTF-8"?>
<svg xmlns="http://www.w3.org/2000/svg" viewBox="0 0 1440 900" fill="none" >
<defs><pattern id="cbp" x="0" y="0" width="1" height="1" patternUnits="userSpaceOnUse"></pattern></defs>
<rect width="1440" height="900" fill="url(#cbp)"/><line x1="0" y1="0" x2="0" y2="900" stroke="#518DD2" stroke-width="0.8" opacity="0.2"/>
<line x1="64" y1="0" x2="64" y2="900" stroke="#518DD2" stroke-width="0.3" opacity="0.08"/>
<line x1="128" y1="0" x2="128" y2="900" stroke="#518DD2" stroke-width="0.3" opacity="0.08"/>
<line x1="192" y1="0" x2="192" y2="900" stroke="#518DD2" stroke-width="0.3" opacity="0.08"/>
<line x1="256" y1="0" x2="256" y2="900" stroke="#518DD2" stroke-width="0.8" opacity="0.2"/>
<line x1="320" y1="0" x2="320" y2="900" stroke="#518DD2" stroke-width="0.3" opacity="0.08"/>
<line x1="384" y1="0" x2="384" y2="900" stroke="#518DD2" stroke-width="0.3" opacity="0.08"/>
<line x1="448" y1="0" x2="448" y2="900" stroke="#518DD2" stroke-width="0.3" opacity="0.08"/>
<line x1="512" y1="0" x2="512" y2="900" stroke="#518DD2" stroke-width="0.8" opacity="0.2"/>
<line x1="576" y1="0" x2="576" y2="900" stroke="#518DD2" stroke-width="0.3" opacity="0.08"/>
<line x1="640" y1="0" x2="640" y2="900" stroke="#518DD2" stroke-width="0.3" opacity="0.08"/>
<line x1="704" y1="0" x2="704" y2="900" stroke="#518DD2" stroke-width="0.3" opacity="0.08"/>
<line x1="768" y1="0" x2="768" y2="900" stroke="#518DD2" stroke-width="0.8" opacity="0.2"/>
<line x1="832" y1="0" x2="832" y2="900" stroke="#518DD2" stroke-width="0.3" opacity="0.08"/>
<line x1="896" y1="0" x2="896" y2="900" stroke="#518DD2" stroke-width="0.3" opacity="0.08"/>
<line x1="960" y1="0" x2="960" y2="900" stroke="#518DD2" stroke-width="0.3" opacity="0.08"/>
<line x1="1024" y1="0" x2="1024" y2="900" stroke="#518DD2" stroke-width="0.8" opacity="0.2"/>
<line x1="1088" y1="0" x2="1088" y2="900" stroke="#518DD2" stroke-width="0.3" opacity="0.08"/>
<line x1="1152" y1="0" x2="1152" y2="900" stroke="#518DD2" stroke-width="0.3" opacity="0.08"/>
<line x1="1216" y1="0" x2="1216" y2="900" stroke="#518DD2" stroke-width="0.3" opacity="0.08"/>
<line x1="1280" y1="0" x2="1280" y2="900" stroke="#518DD2" stroke-width="0.8" opacity="0.2"/>
<line x1="1344" y1="0" x2="1344" y2="900" stroke="#518DD2" stroke-width="0.3" opacity="0.08"/>
<line x1="1408" y1="0" x2="1408" y2="900" stroke="#518DD2" stroke-width="0.3" opacity="0.08"/>
<line x1="0" y1="0" x2="1440" y2="0" stroke="#518DD2" stroke-width="0.8" opacity="0.2"/>
<line x1="0" y1="64" x2="1440" y2="64" stroke="#518DD2" stroke-width="0.3" opacity="0.08"/>
<line x1="0" y1="128" x2="1440" y2="128" stroke="#518DD2" stroke-width="0.3" opacity="0.08"/>
<line x1="0" y1="192" x2="1440" y2="192" stroke="#518DD2" stroke-width="0.3" opacity="0.08"/>
<line x1="0" y1="256" x2="1440" y2="256" stroke="#518DD2" stroke-width="0.8" opacity="0.2"/>
<line x1="0" y1="320" x2="1440" y2="320" stroke="#518DD2" stroke-width="0.3" opacity="0.08"/>
<line x1="0" y1="384" x2="1440" y2="384" stroke="#518DD2" stroke-width="0.3" opacity="0.08"/>
<line x1="0" y1="448" x2="1440" y2="448" stroke="#518DD2" stroke-width="0.3" opacity="0.08"/>
<line x1="0" y1="512" x2="1440" y2="512" stroke="#518DD2" stroke-width="0.8" opacity="0.2"/>
<line x1="0" y1="576" x2="1440" y2="576" stroke="#518DD2" stroke-width="0.3" opacity="0.08"/>
<line x1="0" y1="640" x2="1440" y2="640" stroke="#518DD2" stroke-width="0.3" opacity="0.08"/>
<line x1="0" y1="704" x2="1440" y2="704" stroke="#518DD2" stroke-width="0.3" opacity="0.08"/>
<line x1="0" y1="768" x2="1440" y2="768" stroke="#518DD2" stroke-width="0.8" opacity="0.2"/>
<line x1="0" y1="832" x2="1440" y2="832" stroke="#518DD2" stroke-width="0.3" opacity="0.08"/>
<line x1="0" y1="896" x2="1440" y2="896" stroke="#518DD2" stroke-width="0.3" opacity="0.08"/>
</svg>
