<?xml version="1.0" encoding="UTF-8"?>
<svg xmlns="http://www.w3.org/2000/svg" viewBox="0 0 480 480" fill="none" >
<line x1="0" y1="24" x2="480" y2="24" stroke="currentColor" stroke-width="1" opacity="0.5"/>
<line x1="0" y1="72" x2="480" y2="72" stroke="currentColor" stroke-width="1" opacity="0.5"/>
<line x1="0" y1="120" x2="480" y2="120" stroke="currentColor" stroke-width="1" opacity="0.5"/>
<line x1="0" y1="168" x2="480" y2="168" stroke="currentColor" stroke-width="1" opacity="0.5"/>
<line x1="0" y1="216" x2="480" y2="216" stroke="currentColor" stroke-width="1" opacity="0.5"/>
<line x1="0" y1="264" x2="480" y2="264" stroke="currentColor" stroke-width="1" opacity="0.5"/>
<line x1="0" y1="312" x2="480" y2="312" stroke="currentColor" stroke-width="1" opacity="0.5"/>
<line x1="0" y1="360" x2="480" y2="360" stroke="currentColor" stroke-width="1" opacity="0.5"/>
<line x1="0" y1="408" x2="480" y2="408" stroke="currentColor" stroke-width="1" opacity="0.5"/>
<line x1="0" y1="26" x2="480" y2="26" stroke="currentColor" stroke-width="0.3" opacity="0.15"/>
<line x1="0" y1="74" x2="480" y2="74" stroke="currentColor" stroke-width="0.3" opacity="0.15"/>
<line x1="0" y1="122" x2="480" y2="122" stroke="currentColor" stroke-width="0.3" opacity="0.15"/>
<line x1="0" y1="170" x2="480" y2="170" stroke="currentColor" stroke-width="0.3" opacity="0.15"/>
<line x1="0" y1="218" x2="480" y2="218" stroke="currentColor" stroke-width="0.3" opacity="0.15"/>
<line x1="0" y1="266" x2="480" y2="266" stroke="currentColor" stroke-width="0.3" opacity="0.15"/>
<line x1="0" y1="314" x2="480" y2="314" stroke="currentColor" stroke-width="0.3" opacity="0.15"/>
<line x1="0" y1="362" x2="480" y2="362" stroke="currentColor" stroke-width="0.3" opacity="0.15"/>
<line x1="0" y1="410" x2="480" y2="410" stroke="currentColor" stroke-width="0.3" opacity="0.15"/>
<line x1="120" y1="0" x2="120" y2="currentColor" stroke="0.6" stroke-width="0.3" opacity="0.5"/>
<line x1="240" y1="0" x2="240" y2="currentColor" stroke="0.6" stroke-width="0.3" opacity="0.5"/>
<line x1="360" y1="0" x2="360" y2="currentColor" stroke="0.6" stroke-width="0.3" opacity="0.5"/>
</svg>
