<?xml version="1.0" encoding="UTF-8"?>
<svg xmlns="http://www.w3.org/2000/svg" viewBox="0 0 480 480" fill="none" stroke="currentColor" stroke-width="0.5">
<polygon points="34.64,20.00 0.00,40.00 -34.64,20.00 -34.64,-20.00 -0.00,-40.00 34.64,-20.00"/>
  <polygon points="103.92,20.00 69.28,40.00 34.64,20.00 34.64,-20.00 69.28,-40.00 103.92,-20.00"/>
  <polygon points="173.20,20.00 138.56,40.00 103.92,20.00 103.92,-20.00 138.56,-40.00 173.20,-20.00"/>
  <polygon points="242.48,20.00 207.84,40.00 173.20,20.00 173.20,-20.00 207.84,-40.00 242.48,-20.00"/>
  <polygon points="311.76,20.00 277.12,40.00 242.48,20.00 242.48,-20.00 277.12,-40.00 311.76,-20.00"/>
  <polygon points="381.04,20.00 346.40,40.00 311.76,20.00 311.76,-20.00 346.40,-40.00 381.04,-20.00"/>
  <polygon points="450.32,20.00 415.68,40.00 381.04,20.00 381.04,-20.00 415.68,-40.00 450.32,-20.00"/>
  <polygon points="69.28,80.00 34.64,100.00 -0.00,80.00 -0.00,40.00 34.64,20.00 69.28,40.00"/>
  <polygon points="138.56,80.00 103.92,100.00 69.28,80.00 69.28,40.00 103.92,20.00 138.56,40.00"/>
  <polygon points="207.84,80.00 173.20,100.00 138.56,80.00 138.56,40.00 173.20,20.00 207.84,40.00"/>
  <polygon points="277.12,80.00 242.48,100.00 207.84,80.00 207.84,40.00 242.48,20.00 277.12,40.00"/>
  <polygon points="346.40,80.00 311.76,100.00 277.12,80.00 277.12,40.00 311.76,20.00 346.40,40.00"/>
  <polygon points="415.68,80.00 381.04,100.00 346.40,80.00 346.40,40.00 381.04,20.00 415.68,40.00"/>
  <polygon points="484.96,80.00 450.32,100.00 415.68,80.00 415.68,40.00 450.32,20.00 484.96,40.00"/>
  <polygon points="34.64,140.00 0.00,160.00 -34.64,140.00 -34.64,100.00 -0.00,80.00 34.64,100.00"/>
  <polygon points="103.92,140.00 69.28,160.00 34.64,140.00 34.64,100.00 69.28,80.00 103.92,100.00"/>
  <polygon points="173.20,140.00 138.56,160.00 103.92,140.00 103.92,100.00 138.56,80.00 173.20,100.00"/>
  <polygon points="242.48,140.00 207.84,160.00 173.20,140.00 173.20,100.00 207.84,80.00 242.48,100.00"/>
  <polygon points="311.76,140.00 277.12,160.00 242.48,140.00 242.48,100.00 277.12,80.00 311.76,100.00"/>
  <polygon points="381.04,140.00 346.40,160.00 311.76,140.00 311.76,100.00 346.40,80.00 381.04,100.00"/>
  <polygon points="450.32,140.00 415.68,160.00 381.04,140.00 381.04,100.00 415.68,80.00 450.32,100.00"/>
  <polygon points="69.28,200.00 34.64,220.00 -0.00,200.00 -0.00,160.00 34.64,140.00 69.28,160.00"/>
  <polygon points="138.56,200.00 103.92,220.00 69.28,200.00 69.28,160.00 103.92,140.00 138.56,160.00"/>
  <polygon points="207.84,200.00 173.20,220.00 138.56,200.00 138.56,160.00 173.20,140.00 207.84,160.00"/>
  <polygon points="277.12,200.00 242.48,220.00 207.84,200.00 207.84,160.00 242.48,140.00 277.12,160.00"/>
  <polygon points="346.40,200.00 311.76,220.00 277.12,200.00 277.12,160.00 311.76,140.00 346.40,160.00"/>
  <polygon points="415.68,200.00 381.04,220.00 346.40,200.00 346.40,160.00 381.04,140.00 415.68,160.00"/>
  <polygon points="484.96,200.00 450.32,220.00 415.68,200.00 415.68,160.00 450.32,140.00 484.96,160.00"/>
  <polygon points="34.64,260.00 0.00,280.00 -34.64,260.00 -34.64,220.00 -0.00,200.00 34.64,220.00"/>
  <polygon points="103.92,260.00 69.28,280.00 34.64,260.00 34.64,220.00 69.28,200.00 103.92,220.00"/>
  <polygon points="173.20,260.00 138.56,280.00 103.92,260.00 103.92,220.00 138.56,200.00 173.20,220.00"/>
  <polygon points="242.48,260.00 207.84,280.00 173.20,260.00 173.20,220.00 207.84,200.00 242.48,220.00"/>
  <polygon points="311.76,260.00 277.12,280.00 242.48,260.00 242.48,220.00 277.12,200.00 311.76,220.00"/>
  <polygon points="381.04,260.00 346.40,280.00 311.76,260.00 311.76,220.00 346.40,200.00 381.04,220.00"/>
  <polygon points="450.32,260.00 415.68,280.00 381.04,260.00 381.04,220.00 415.68,200.00 450.32,220.00"/>
  <polygon points="69.28,320.00 34.64,340.00 -0.00,320.00 -0.00,280.00 34.64,260.00 69.28,280.00"/>
  <polygon points="138.56,320.00 103.92,340.00 69.28,320.00 69.28,280.00 103.92,260.00 138.56,280.00"/>
  <polygon points="207.84,320.00 173.20,340.00 138.56,320.00 138.56,280.00 173.20,260.00 207.84,280.00"/>
  <polygon points="277.12,320.00 242.48,340.00 207.84,320.00 207.84,280.00 242.48,260.00 277.12,280.00"/>
  <polygon points="346.40,320.00 311.76,340.00 277.12,320.00 277.12,280.00 311.76,260.00 346.40,280.00"/>
  <polygon points="415.68,320.00 381.04,340.00 346.40,320.00 346.40,280.00 381.04,260.00 415.68,280.00"/>
  <polygon points="484.96,320.00 450.32,340.00 415.68,320.00 415.68,280.00 450.32,260.00 484.96,280.00"/>
  <polygon points="34.64,380.00 0.00,400.00 -34.64,380.00 -34.64,340.00 -0.00,320.00 34.64,340.00"/>
  <polygon points="103.92,380.00 69.28,400.00 34.64,380.00 34.64,340.00 69.28,320.00 103.92,340.00"/>
  <polygon points="173.20,380.00 138.56,400.00 103.92,380.00 103.92,340.00 138.56,320.00 173.20,340.00"/>
  <polygon points="242.48,380.00 207.84,400.00 173.20,380.00 173.20,340.00 207.84,320.00 242.48,340.00"/>
  <polygon points="311.76,380.00 277.12,400.00 242.48,380.00 242.48,340.00 277.12,320.00 311.76,340.00"/>
  <polygon points="381.04,380.00 346.40,400.00 311.76,380.00 311.76,340.00 346.40,320.00 381.04,340.00"/>
  <polygon points="450.32,380.00 415.68,400.00 381.04,380.00 381.04,340.00 415.68,320.00 450.32,340.00"/>
</svg>
