<?xml version="1.0" encoding="UTF-8"?>
<svg xmlns="http://www.w3.org/2000/svg" viewBox="0 0 480 480" fill="none" >
<rect x="0" y="0" width="480" height="40" fill="currentColor" opacity="0.04"/>
<line x1="0" y1="0" x2="480" y2="0" stroke="currentColor" stroke-width="0.6" opacity="0.2"/>

<line x1="0" y1="40" x2="480" y2="40" stroke="currentColor" stroke-width="0.6" opacity="0.2"/>
<rect x="0" y="80" width="480" height="40" fill="currentColor" opacity="0.04"/>
<line x1="0" y1="80" x2="480" y2="80" stroke="currentColor" stroke-width="0.6" opacity="0.2"/>

<line x1="0" y1="120" x2="480" y2="120" stroke="currentColor" stroke-width="0.6" opacity="0.2"/>
<rect x="0" y="160" width="480" height="40" fill="currentColor" opacity="0.04"/>
<line x1="0" y1="160" x2="480" y2="160" stroke="currentColor" stroke-width="0.6" opacity="0.2"/>

<line x1="0" y1="200" x2="480" y2="200" stroke="currentColor" stroke-width="0.6" opacity="0.2"/>
<rect x="0" y="240" width="480" height="40" fill="currentColor" opacity="0.04"/>
<line x1="0" y1="240" x2="480" y2="240" stroke="currentColor" stroke-width="0.6" opacity="0.2"/>

<line x1="0" y1="280" x2="480" y2="280" stroke="currentColor" stroke-width="0.6" opacity="0.2"/>
<rect x="0" y="320" width="480" height="40" fill="currentColor" opacity="0.04"/>
<line x1="0" y1="320" x2="480" y2="320" stroke="currentColor" stroke-width="0.6" opacity="0.2"/>

<line x1="0" y1="360" x2="480" y2="360" stroke="currentColor" stroke-width="0.6" opacity="0.2"/>
<rect x="0" y="400" width="480" height="40" fill="currentColor" opacity="0.04"/>
<line x1="0" y1="400" x2="480" y2="400" stroke="currentColor" stroke-width="0.6" opacity="0.2"/>

<line x1="0" y1="440" x2="480" y2="440" stroke="currentColor" stroke-width="0.6" opacity="0.2"/>
</svg>
