<?xml version="1.0" encoding="UTF-8"?>
<svg xmlns="http://www.w3.org/2000/svg" viewBox="0 0 480 480" fill="none" stroke="currentColor" >
<g stroke-width="0.5"><line x1="0" y1="-960" x2="480" y2="-682"/><line x1="0" y1="-960" x2="480" y2="-1237"/><line x1="0" y1="-920" x2="480" y2="-642"/><line x1="0" y1="-920" x2="480" y2="-1197"/><line x1="0" y1="-880" x2="480" y2="-602"/><line x1="0" y1="-880" x2="480" y2="-1157"/><line x1="0" y1="-840" x2="480" y2="-562"/><line x1="0" y1="-840" x2="480" y2="-1117"/><line x1="0" y1="-800" x2="480" y2="-522"/><line x1="0" y1="-800" x2="480" y2="-1077"/><line x1="0" y1="-760" x2="480" y2="-482"/><line x1="0" y1="-760" x2="480" y2="-1037"/><line x1="0" y1="-720" x2="480" y2="-442"/><line x1="0" y1="-720" x2="480" y2="-997"/><line x1="0" y1="-680" x2="480" y2="-402"/><line x1="0" y1="-680" x2="480" y2="-957"/><line x1="0" y1="-640" x2="480" y2="-362"/><line x1="0" y1="-640" x2="480" y2="-917"/><line x1="0" y1="-600" x2="480" y2="-322"/><line x1="0" y1="-600" x2="480" y2="-877"/><line x1="0" y1="-560" x2="480" y2="-282"/><line x1="0" y1="-560" x2="480" y2="-837"/><line x1="0" y1="-520" x2="480" y2="-242"/><line x1="0" y1="-520" x2="480" y2="-797"/><line x1="0" y1="-480" x2="480" y2="-202"/><line x1="0" y1="-480" x2="480" y2="-757"/><line x1="0" y1="-440" x2="480" y2="-162"/><line x1="0" y1="-440" x2="480" y2="-717"/><line x1="0" y1="-400" x2="480" y2="-122"/><line x1="0" y1="-400" x2="480" y2="-677"/><line x1="0" y1="-360" x2="480" y2="-82"/><line x1="0" y1="-360" x2="480" y2="-637"/><line x1="0" y1="-320" x2="480" y2="-42"/><line x1="0" y1="-320" x2="480" y2="-597"/><line x1="0" y1="-280" x2="480" y2="-2"/><line x1="0" y1="-280" x2="480" y2="-557"/><line x1="0" y1="-240" x2="480" y2="37"/><line x1="0" y1="-240" x2="480" y2="-517"/><line x1="0" y1="-200" x2="480" y2="77"/><line x1="0" y1="-200" x2="480" y2="-477"/><line x1="0" y1="0" x2="480" y2="0"/>
  <line x1="0" y1="40" x2="480" y2="40"/>
  <line x1="0" y1="80" x2="480" y2="80"/>
  <line x1="0" y1="120" x2="480" y2="120"/>
  <line x1="0" y1="160" x2="480" y2="160"/>
  <line x1="0" y1="200" x2="480" y2="200"/>
  <line x1="0" y1="240" x2="480" y2="240"/>
  <line x1="0" y1="280" x2="480" y2="280"/>
  <line x1="0" y1="320" x2="480" y2="320"/>
  <line x1="0" y1="360" x2="480" y2="360"/>
  <line x1="0" y1="400" x2="480" y2="400"/>
  <line x1="0" y1="440" x2="480" y2="440"/>
  <line x1="0" y1="480" x2="480" y2="480"/></g>
</svg>
