<?xml version="1.0" encoding="UTF-8"?>
<svg xmlns="http://www.w3.org/2000/svg" viewBox="0 0 480 480" fill="none" >
<line x1="0" y1="24" x2="480" y2="24" stroke="#9CBFE7" stroke-width="0.6" opacity="0.3"/>
<line x1="0" y1="72" x2="480" y2="72" stroke="#9CBFE7" stroke-width="0.6" opacity="0.3"/>
<line x1="0" y1="120" x2="480" y2="120" stroke="#9CBFE7" stroke-width="0.6" opacity="0.3"/>
<line x1="0" y1="168" x2="480" y2="168" stroke="#9CBFE7" stroke-width="0.6" opacity="0.3"/>
<line x1="0" y1="216" x2="480" y2="216" stroke="#9CBFE7" stroke-width="0.6" opacity="0.3"/>
<line x1="0" y1="264" x2="480" y2="264" stroke="#9CBFE7" stroke-width="0.6" opacity="0.3"/>
<line x1="0" y1="312" x2="480" y2="312" stroke="#9CBFE7" stroke-width="0.6" opacity="0.3"/>
<line x1="0" y1="360" x2="480" y2="360" stroke="#9CBFE7" stroke-width="0.6" opacity="0.3"/>
<line x1="0" y1="408" x2="480" y2="408" stroke="#9CBFE7" stroke-width="0.6" opacity="0.3"/>
<line x1="0" y1="456" x2="480" y2="456" stroke="#9CBFE7" stroke-width="0.6" opacity="0.3"/>
<line x1="24" y1="0" x2="24" y2="480" stroke="#4D9987" stroke-width="0.6" opacity="0.3"/>
<line x1="72" y1="0" x2="72" y2="480" stroke="#4D9987" stroke-width="0.6" opacity="0.3"/>
<line x1="120" y1="0" x2="120" y2="480" stroke="#4D9987" stroke-width="0.6" opacity="0.3"/>
<line x1="168" y1="0" x2="168" y2="480" stroke="#4D9987" stroke-width="0.6" opacity="0.3"/>
<line x1="216" y1="0" x2="216" y2="480" stroke="#4D9987" stroke-width="0.6" opacity="0.3"/>
<line x1="264" y1="0" x2="264" y2="480" stroke="#4D9987" stroke-width="0.6" opacity="0.3"/>
<line x1="312" y1="0" x2="312" y2="480" stroke="#4D9987" stroke-width="0.6" opacity="0.3"/>
<line x1="360" y1="0" x2="360" y2="480" stroke="#4D9987" stroke-width="0.6" opacity="0.3"/>
<line x1="408" y1="0" x2="408" y2="480" stroke="#4D9987" stroke-width="0.6" opacity="0.3"/>
<line x1="456" y1="0" x2="456" y2="480" stroke="#4D9987" stroke-width="0.6" opacity="0.3"/>
<line x1="0" y1="240" x2="480" y2="240" stroke="#518DD2" stroke-width="1.2" opacity="0.5"/>
<line x1="240" y1="0" x2="240" y2="480" stroke="#518DD2" stroke-width="1.2" opacity="0.5"/>
</svg>
