<?xml version="1.0" encoding="UTF-8"?>
<svg xmlns="http://www.w3.org/2000/svg" viewBox="0 0 480 480" fill="none" >
<line x1="0" y1="96" x2="480" y2="96" stroke="currentColor" stroke-width="1" opacity="0.35"/>
<line x1="0" y1="192" x2="480" y2="192" stroke="currentColor" stroke-width="1" opacity="0.35"/>
<line x1="0" y1="288" x2="480" y2="288" stroke="currentColor" stroke-width="1" opacity="0.35"/>
<line x1="0" y1="384" x2="480" y2="384" stroke="currentColor" stroke-width="1" opacity="0.35"/>
<line x1="96" y1="0" x2="96" y2="480" stroke="currentColor" stroke-width="1" opacity="0.35"/>
<line x1="192" y1="0" x2="192" y2="480" stroke="currentColor" stroke-width="1" opacity="0.35"/>
<line x1="288" y1="0" x2="288" y2="480" stroke="currentColor" stroke-width="1" opacity="0.35"/>
<line x1="384" y1="0" x2="384" y2="480" stroke="currentColor" stroke-width="1" opacity="0.35"/>
<line x1="0" y1="12" x2="480" y2="12" stroke="currentColor" stroke-width="0.3" opacity="0.12"/>
<line x1="0" y1="36" x2="480" y2="36" stroke="currentColor" stroke-width="0.3" opacity="0.12"/>
<line x1="0" y1="60" x2="480" y2="60" stroke="currentColor" stroke-width="0.3" opacity="0.12"/>
<line x1="0" y1="84" x2="480" y2="84" stroke="currentColor" stroke-width="0.3" opacity="0.12"/>
<line x1="0" y1="108" x2="480" y2="108" stroke="currentColor" stroke-width="0.3" opacity="0.12"/>
<line x1="0" y1="132" x2="480" y2="132" stroke="currentColor" stroke-width="0.3" opacity="0.12"/>
<line x1="0" y1="156" x2="480" y2="156" stroke="currentColor" stroke-width="0.3" opacity="0.12"/>
<line x1="0" y1="180" x2="480" y2="180" stroke="currentColor" stroke-width="0.3" opacity="0.12"/>
<line x1="0" y1="204" x2="480" y2="204" stroke="currentColor" stroke-width="0.3" opacity="0.12"/>
<line x1="0" y1="228" x2="480" y2="228" stroke="currentColor" stroke-width="0.3" opacity="0.12"/>
<line x1="0" y1="252" x2="480" y2="252" stroke="currentColor" stroke-width="0.3" opacity="0.12"/>
<line x1="0" y1="276" x2="480" y2="276" stroke="currentColor" stroke-width="0.3" opacity="0.12"/>
<line x1="0" y1="300" x2="480" y2="300" stroke="currentColor" stroke-width="0.3" opacity="0.12"/>
<line x1="0" y1="324" x2="480" y2="324" stroke="currentColor" stroke-width="0.3" opacity="0.12"/>
<line x1="0" y1="348" x2="480" y2="348" stroke="currentColor" stroke-width="0.3" opacity="0.12"/>
<line x1="0" y1="372" x2="480" y2="372" stroke="currentColor" stroke-width="0.3" opacity="0.12"/>
<line x1="0" y1="396" x2="480" y2="396" stroke="currentColor" stroke-width="0.3" opacity="0.12"/>
<line x1="0" y1="420" x2="480" y2="420" stroke="currentColor" stroke-width="0.3" opacity="0.12"/>
<line x1="0" y1="444" x2="480" y2="444" stroke="currentColor" stroke-width="0.3" opacity="0.12"/>
<line x1="0" y1="468" x2="480" y2="468" stroke="currentColor" stroke-width="0.3" opacity="0.12"/>
<line x1="12" y1="0" x2="12" y2="480" stroke="currentColor" stroke-width="0.3" opacity="0.12"/>
<line x1="36" y1="0" x2="36" y2="480" stroke="currentColor" stroke-width="0.3" opacity="0.12"/>
<line x1="60" y1="0" x2="60" y2="480" stroke="currentColor" stroke-width="0.3" opacity="0.12"/>
<line x1="84" y1="0" x2="84" y2="480" stroke="currentColor" stroke-width="0.3" opacity="0.12"/>
<line x1="108" y1="0" x2="108" y2="480" stroke="currentColor" stroke-width="0.3" opacity="0.12"/>
<line x1="132" y1="0" x2="132" y2="480" stroke="currentColor" stroke-width="0.3" opacity="0.12"/>
<line x1="156" y1="0" x2="156" y2="480" stroke="currentColor" stroke-width="0.3" opacity="0.12"/>
<line x1="180" y1="0" x2="180" y2="480" stroke="currentColor" stroke-width="0.3" opacity="0.12"/>
<line x1="204" y1="0" x2="204" y2="480" stroke="currentColor" stroke-width="0.3" opacity="0.12"/>
<line x1="228" y1="0" x2="228" y2="480" stroke="currentColor" stroke-width="0.3" opacity="0.12"/>
<line x1="252" y1="0" x2="252" y2="480" stroke="currentColor" stroke-width="0.3" opacity="0.12"/>
<line x1="276" y1="0" x2="276" y2="480" stroke="currentColor" stroke-width="0.3" opacity="0.12"/>
<line x1="300" y1="0" x2="300" y2="480" stroke="currentColor" stroke-width="0.3" opacity="0.12"/>
<line x1="324" y1="0" x2="324" y2="480" stroke="currentColor" stroke-width="0.3" opacity="0.12"/>
<line x1="348" y1="0" x2="348" y2="480" stroke="currentColor" stroke-width="0.3" opacity="0.12"/>
<line x1="372" y1="0" x2="372" y2="480" stroke="currentColor" stroke-width="0.3" opacity="0.12"/>
<line x1="396" y1="0" x2="396" y2="480" stroke="currentColor" stroke-width="0.3" opacity="0.12"/>
<line x1="420" y1="0" x2="420" y2="480" stroke="currentColor" stroke-width="0.3" opacity="0.12"/>
<line x1="444" y1="0" x2="444" y2="480" stroke="currentColor" stroke-width="0.3" opacity="0.12"/>
<line x1="468" y1="0" x2="468" y2="480" stroke="currentColor" stroke-width="0.3" opacity="0.12"/>
</svg>
