<?xml version="1.0" encoding="UTF-8"?>
<svg xmlns="http://www.w3.org/2000/svg" viewBox="0 0 480 480" fill="none" stroke="currentColor" fill="currentColor" stroke="none">
<circle cx="0" cy="0" r="2.0"/><circle cx="28" cy="0" r="2.2"/><circle cx="56" cy="0" r="2.4"/><circle cx="84" cy="0" r="2.5"/><circle cx="112" cy="0" r="2.7"/><circle cx="140" cy="0" r="2.9"/><circle cx="168" cy="0" r="3.0"/><circle cx="196" cy="0" r="3.2"/><circle cx="224" cy="0" r="3.4"/><circle cx="252" cy="0" r="3.6"/><circle cx="280" cy="0" r="3.8"/><circle cx="308" cy="0" r="3.9"/><circle cx="336" cy="0" r="4.1"/><circle cx="364" cy="0" r="4.3"/><circle cx="392" cy="0" r="4.5"/><circle cx="420" cy="0" r="4.6"/><circle cx="448" cy="0" r="4.8"/><circle cx="476" cy="0" r="5.0"/><circle cx="14" cy="28" r="2.3"/><circle cx="42" cy="28" r="2.4"/><circle cx="70" cy="28" r="2.6"/><circle cx="98" cy="28" r="2.8"/><circle cx="126" cy="28" r="3.0"/><circle cx="154" cy="28" r="3.1"/><circle cx="182" cy="28" r="3.3"/><circle cx="210" cy="28" r="3.5"/><circle cx="238" cy="28" r="3.7"/><circle cx="266" cy="28" r="3.8"/><circle cx="294" cy="28" r="4.0"/><circle cx="322" cy="28" r="4.2"/><circle cx="350" cy="28" r="4.4"/><circle cx="378" cy="28" r="4.5"/><circle cx="406" cy="28" r="4.7"/><circle cx="434" cy="28" r="4.9"/><circle cx="462" cy="28" r="5.1"/><circle cx="490" cy="28" r="5.2"/><circle cx="0" cy="56" r="2.4"/><circle cx="28" cy="56" r="2.5"/><circle cx="56" cy="56" r="2.7"/><circle cx="84" cy="56" r="2.9"/><circle cx="112" cy="56" r="3.0"/><circle cx="140" cy="56" r="3.2"/><circle cx="168" cy="56" r="3.4"/><circle cx="196" cy="56" r="3.6"/><circle cx="224" cy="56" r="3.8"/><circle cx="252" cy="56" r="3.9"/><circle cx="280" cy="56" r="4.1"/><circle cx="308" cy="56" r="4.3"/><circle cx="336" cy="56" r="4.5"/><circle cx="364" cy="56" r="4.6"/><circle cx="392" cy="56" r="4.8"/><circle cx="420" cy="56" r="5.0"/><circle cx="448" cy="56" r="5.2"/><circle cx="476" cy="56" r="5.3"/><circle cx="14" cy="84" r="2.6"/><circle cx="42" cy="84" r="2.8"/><circle cx="70" cy="84" r="3.0"/><circle cx="98" cy="84" r="3.1"/><circle cx="126" cy="84" r="3.3"/><circle cx="154" cy="84" r="3.5"/><circle cx="182" cy="84" r="3.7"/><circle cx="210" cy="84" r="3.8"/><circle cx="238" cy="84" r="4.0"/><circle cx="266" cy="84" r="4.2"/><circle cx="294" cy="84" r="4.4"/><circle cx="322" cy="84" r="4.5"/><circle cx="350" cy="84" r="4.7"/><circle cx="378" cy="84" r="4.9"/><circle cx="406" cy="84" r="5.1"/><circle cx="434" cy="84" r="5.2"/><circle cx="462" cy="84" r="5.4"/><circle cx="490" cy="84" r="5.6"/><circle cx="0" cy="112" r="2.7"/><circle cx="28" cy="112" r="2.9"/><circle cx="56" cy="112" r="3.0"/><circle cx="84" cy="112" r="3.2"/><circle cx="112" cy="112" r="3.4"/><circle cx="140" cy="112" r="3.6"/><circle cx="168" cy="112" r="3.8"/><circle cx="196" cy="112" r="3.9"/><circle cx="224" cy="112" r="4.1"/><circle cx="252" cy="112" r="4.3"/><circle cx="280" cy="112" r="4.5"/><circle cx="308" cy="112" r="4.6"/><circle cx="336" cy="112" r="4.8"/><circle cx="364" cy="112" r="5.0"/><circle cx="392" cy="112" r="5.2"/><circle cx="420" cy="112" r="5.3"/><circle cx="448" cy="112" r="5.5"/><circle cx="476" cy="112" r="5.7"/><circle cx="14" cy="140" r="3.0"/><circle cx="42" cy="140" r="3.1"/><circle cx="70" cy="140" r="3.3"/><circle cx="98" cy="140" r="3.5"/><circle cx="126" cy="140" r="3.7"/><circle cx="154" cy="140" r="3.8"/><circle cx="182" cy="140" r="4.0"/><circle cx="210" cy="140" r="4.2"/><circle cx="238" cy="140" r="4.4"/><circle cx="266" cy="140" r="4.5"/><circle cx="294" cy="140" r="4.7"/><circle cx="322" cy="140" r="4.9"/><circle cx="350" cy="140" r="5.1"/><circle cx="378" cy="140" r="5.2"/><circle cx="406" cy="140" r="5.4"/><circle cx="434" cy="140" r="5.6"/><circle cx="462" cy="140" r="5.8"/><circle cx="490" cy="140" r="5.9"/><circle cx="0" cy="168" r="3.0"/><circle cx="28" cy="168" r="3.2"/><circle cx="56" cy="168" r="3.4"/><circle cx="84" cy="168" r="3.6"/><circle cx="112" cy="168" r="3.8"/><circle cx="140" cy="168" r="3.9"/><circle cx="168" cy="168" r="4.1"/><circle cx="196" cy="168" r="4.3"/><circle cx="224" cy="168" r="4.5"/><circle cx="252" cy="168" r="4.6"/><circle cx="280" cy="168" r="4.8"/><circle cx="308" cy="168" r="5.0"/><circle cx="336" cy="168" r="5.2"/><circle cx="364" cy="168" r="5.3"/><circle cx="392" cy="168" r="5.5"/><circle cx="420" cy="168" r="5.7"/><circle cx="448" cy="168" r="5.8"/><circle cx="476" cy="168" r="6.0"/><circle cx="14" cy="196" r="3.3"/><circle cx="42" cy="196" r="3.5"/><circle cx="70" cy="196" r="3.7"/><circle cx="98" cy="196" r="3.8"/><circle cx="126" cy="196" r="4.0"/><circle cx="154" cy="196" r="4.2"/><circle cx="182" cy="196" r="4.4"/><circle cx="210" cy="196" r="4.5"/><circle cx="238" cy="196" r="4.7"/><circle cx="266" cy="196" r="4.9"/><circle cx="294" cy="196" r="5.1"/><circle cx="322" cy="196" r="5.2"/><circle cx="350" cy="196" r="5.4"/><circle cx="378" cy="196" r="5.6"/><circle cx="406" cy="196" r="5.8"/><circle cx="434" cy="196" r="5.9"/><circle cx="462" cy="196" r="6.1"/><circle cx="490" cy="196" r="6.3"/><circle cx="0" cy="224" r="3.4"/><circle cx="28" cy="224" r="3.6"/><circle cx="56" cy="224" r="3.8"/><circle cx="84" cy="224" r="3.9"/><circle cx="112" cy="224" r="4.1"/><circle cx="140" cy="224" r="4.3"/><circle cx="168" cy="224" r="4.5"/><circle cx="196" cy="224" r="4.6"/><circle cx="224" cy="224" r="4.8"/><circle cx="252" cy="224" r="5.0"/><circle cx="280" cy="224" r="5.2"/><circle cx="308" cy="224" r="5.3"/><circle cx="336" cy="224" r="5.5"/><circle cx="364" cy="224" r="5.7"/><circle cx="392" cy="224" r="5.8"/><circle cx="420" cy="224" r="6.0"/><circle cx="448" cy="224" r="6.2"/><circle cx="476" cy="224" r="6.4"/><circle cx="14" cy="252" r="3.7"/><circle cx="42" cy="252" r="3.8"/><circle cx="70" cy="252" r="4.0"/><circle cx="98" cy="252" r="4.2"/><circle cx="126" cy="252" r="4.4"/><circle cx="154" cy="252" r="4.5"/><circle cx="182" cy="252" r="4.7"/><circle cx="210" cy="252" r="4.9"/><circle cx="238" cy="252" r="5.1"/><circle cx="266" cy="252" r="5.2"/><circle cx="294" cy="252" r="5.4"/><circle cx="322" cy="252" r="5.6"/><circle cx="350" cy="252" r="5.8"/><circle cx="378" cy="252" r="5.9"/><circle cx="406" cy="252" r="6.1"/><circle cx="434" cy="252" r="6.3"/><circle cx="462" cy="252" r="6.5"/><circle cx="490" cy="252" r="6.6"/><circle cx="0" cy="280" r="3.8"/><circle cx="28" cy="280" r="3.9"/><circle cx="56" cy="280" r="4.1"/><circle cx="84" cy="280" r="4.3"/><circle cx="112" cy="280" r="4.5"/><circle cx="140" cy="280" r="4.6"/><circle cx="168" cy="280" r="4.8"/><circle cx="196" cy="280" r="5.0"/><circle cx="224" cy="280" r="5.2"/><circle cx="252" cy="280" r="5.3"/><circle cx="280" cy="280" r="5.5"/><circle cx="308" cy="280" r="5.7"/><circle cx="336" cy="280" r="5.8"/><circle cx="364" cy="280" r="6.0"/><circle cx="392" cy="280" r="6.2"/><circle cx="420" cy="280" r="6.4"/><circle cx="448" cy="280" r="6.5"/><circle cx="476" cy="280" r="6.7"/><circle cx="14" cy="308" r="4.0"/><circle cx="42" cy="308" r="4.2"/><circle cx="70" cy="308" r="4.4"/><circle cx="98" cy="308" r="4.5"/><circle cx="126" cy="308" r="4.7"/><circle cx="154" cy="308" r="4.9"/><circle cx="182" cy="308" r="5.1"/><circle cx="210" cy="308" r="5.2"/><circle cx="238" cy="308" r="5.4"/><circle cx="266" cy="308" r="5.6"/><circle cx="294" cy="308" r="5.8"/><circle cx="322" cy="308" r="5.9"/><circle cx="350" cy="308" r="6.1"/><circle cx="378" cy="308" r="6.3"/><circle cx="406" cy="308" r="6.5"/><circle cx="434" cy="308" r="6.6"/><circle cx="462" cy="308" r="6.8"/><circle cx="490" cy="308" r="7.0"/><circle cx="0" cy="336" r="4.1"/><circle cx="28" cy="336" r="4.3"/><circle cx="56" cy="336" r="4.5"/><circle cx="84" cy="336" r="4.6"/><circle cx="112" cy="336" r="4.8"/><circle cx="140" cy="336" r="5.0"/><circle cx="168" cy="336" r="5.2"/><circle cx="196" cy="336" r="5.3"/><circle cx="224" cy="336" r="5.5"/><circle cx="252" cy="336" r="5.7"/><circle cx="280" cy="336" r="5.8"/><circle cx="308" cy="336" r="6.0"/><circle cx="336" cy="336" r="6.2"/><circle cx="364" cy="336" r="6.4"/><circle cx="392" cy="336" r="6.5"/><circle cx="420" cy="336" r="6.7"/><circle cx="448" cy="336" r="6.9"/><circle cx="476" cy="336" r="7.1"/><circle cx="14" cy="364" r="4.4"/><circle cx="42" cy="364" r="4.5"/><circle cx="70" cy="364" r="4.7"/><circle cx="98" cy="364" r="4.9"/><circle cx="126" cy="364" r="5.1"/><circle cx="154" cy="364" r="5.2"/><circle cx="182" cy="364" r="5.4"/><circle cx="210" cy="364" r="5.6"/><circle cx="238" cy="364" r="5.8"/><circle cx="266" cy="364" r="5.9"/><circle cx="294" cy="364" r="6.1"/><circle cx="322" cy="364" r="6.3"/><circle cx="350" cy="364" r="6.5"/><circle cx="378" cy="364" r="6.6"/><circle cx="406" cy="364" r="6.8"/><circle cx="434" cy="364" r="7.0"/><circle cx="462" cy="364" r="7.2"/><circle cx="490" cy="364" r="7.3"/><circle cx="0" cy="392" r="4.5"/><circle cx="28" cy="392" r="4.6"/><circle cx="56" cy="392" r="4.8"/><circle cx="84" cy="392" r="5.0"/><circle cx="112" cy="392" r="5.2"/><circle cx="140" cy="392" r="5.3"/><circle cx="168" cy="392" r="5.5"/><circle cx="196" cy="392" r="5.7"/><circle cx="224" cy="392" r="5.8"/><circle cx="252" cy="392" r="6.0"/><circle cx="280" cy="392" r="6.2"/><circle cx="308" cy="392" r="6.4"/><circle cx="336" cy="392" r="6.5"/><circle cx="364" cy="392" r="6.7"/><circle cx="392" cy="392" r="6.9"/><circle cx="420" cy="392" r="7.1"/><circle cx="448" cy="392" r="7.3"/><circle cx="476" cy="392" r="7.4"/><circle cx="14" cy="420" r="4.7"/><circle cx="42" cy="420" r="4.9"/><circle cx="70" cy="420" r="5.1"/><circle cx="98" cy="420" r="5.2"/><circle cx="126" cy="420" r="5.4"/><circle cx="154" cy="420" r="5.6"/><circle cx="182" cy="420" r="5.8"/><circle cx="210" cy="420" r="5.9"/><circle cx="238" cy="420" r="6.1"/><circle cx="266" cy="420" r="6.3"/><circle cx="294" cy="420" r="6.5"/><circle cx="322" cy="420" r="6.6"/><circle cx="350" cy="420" r="6.8"/><circle cx="378" cy="420" r="7.0"/><circle cx="406" cy="420" r="7.2"/><circle cx="434" cy="420" r="7.3"/><circle cx="462" cy="420" r="7.5"/><circle cx="490" cy="420" r="7.7"/><circle cx="0" cy="448" r="4.8"/><circle cx="28" cy="448" r="5.0"/><circle cx="56" cy="448" r="5.2"/><circle cx="84" cy="448" r="5.3"/><circle cx="112" cy="448" r="5.5"/><circle cx="140" cy="448" r="5.7"/><circle cx="168" cy="448" r="5.8"/><circle cx="196" cy="448" r="6.0"/><circle cx="224" cy="448" r="6.2"/><circle cx="252" cy="448" r="6.4"/><circle cx="280" cy="448" r="6.5"/><circle cx="308" cy="448" r="6.7"/><circle cx="336" cy="448" r="6.9"/><circle cx="364" cy="448" r="7.1"/><circle cx="392" cy="448" r="7.3"/><circle cx="420" cy="448" r="7.4"/><circle cx="448" cy="448" r="7.6"/><circle cx="476" cy="448" r="7.8"/><circle cx="14" cy="476" r="5.1"/><circle cx="42" cy="476" r="5.2"/><circle cx="70" cy="476" r="5.4"/><circle cx="98" cy="476" r="5.6"/><circle cx="126" cy="476" r="5.8"/><circle cx="154" cy="476" r="5.9"/><circle cx="182" cy="476" r="6.1"/><circle cx="210" cy="476" r="6.3"/><circle cx="238" cy="476" r="6.5"/><circle cx="266" cy="476" r="6.6"/><circle cx="294" cy="476" r="6.8"/><circle cx="322" cy="476" r="7.0"/><circle cx="350" cy="476" r="7.2"/><circle cx="378" cy="476" r="7.3"/><circle cx="406" cy="476" r="7.5"/><circle cx="434" cy="476" r="7.7"/><circle cx="462" cy="476" r="7.9"/><circle cx="490" cy="476" r="8.0"/>
</svg>
