<?xml version="1.0" encoding="UTF-8"?>
<svg xmlns="http://www.w3.org/2000/svg" viewBox="0 0 480 480" fill="none" stroke="currentColor" stroke-width="1">
<polygon points="77.63,57.50 30.00,85.00 -17.63,57.50 -17.63,2.50 30.00,-25.00 77.63,2.50" stroke-width="2" fill="none"/>
  <polygon points="181.55,57.50 133.92,85.00 86.29,57.50 86.29,2.50 133.92,-25.00 181.55,2.50" stroke-width="2" fill="none"/>
  <polygon points="285.47,57.50 237.84,85.00 190.21,57.50 190.21,2.50 237.84,-25.00 285.47,2.50" stroke-width="2" fill="none"/>
  <polygon points="389.39,57.50 341.76,85.00 294.13,57.50 294.13,2.50 341.76,-25.00 389.39,2.50" stroke-width="2" fill="none"/>
  <polygon points="493.31,57.50 445.68,85.00 398.05,57.50 398.05,2.50 445.68,-25.00 493.31,2.50" stroke-width="2" fill="none"/>
  <polygon points="129.59,147.50 81.96,175.00 34.33,147.50 34.33,92.50 81.96,65.00 129.59,92.50" stroke-width="2" fill="none"/>
  <polygon points="233.51,147.50 185.88,175.00 138.25,147.50 138.25,92.50 185.88,65.00 233.51,92.50" stroke-width="2" fill="none"/>
  <polygon points="337.43,147.50 289.80,175.00 242.17,147.50 242.17,92.50 289.80,65.00 337.43,92.50" stroke-width="2" fill="none"/>
  <polygon points="441.35,147.50 393.72,175.00 346.09,147.50 346.09,92.50 393.72,65.00 441.35,92.50" stroke-width="2" fill="none"/>
  <polygon points="545.27,147.50 497.64,175.00 450.01,147.50 450.01,92.50 497.64,65.00 545.27,92.50" stroke-width="2" fill="none"/>
  <polygon points="77.63,237.50 30.00,265.00 -17.63,237.50 -17.63,182.50 30.00,155.00 77.63,182.50" stroke-width="2" fill="none"/>
  <polygon points="181.55,237.50 133.92,265.00 86.29,237.50 86.29,182.50 133.92,155.00 181.55,182.50" stroke-width="2" fill="none"/>
  <polygon points="285.47,237.50 237.84,265.00 190.21,237.50 190.21,182.50 237.84,155.00 285.47,182.50" stroke-width="2" fill="none"/>
  <polygon points="389.39,237.50 341.76,265.00 294.13,237.50 294.13,182.50 341.76,155.00 389.39,182.50" stroke-width="2" fill="none"/>
  <polygon points="493.31,237.50 445.68,265.00 398.05,237.50 398.05,182.50 445.68,155.00 493.31,182.50" stroke-width="2" fill="none"/>
  <polygon points="129.59,327.50 81.96,355.00 34.33,327.50 34.33,272.50 81.96,245.00 129.59,272.50" stroke-width="2" fill="none"/>
  <polygon points="233.51,327.50 185.88,355.00 138.25,327.50 138.25,272.50 185.88,245.00 233.51,272.50" stroke-width="2" fill="none"/>
  <polygon points="337.43,327.50 289.80,355.00 242.17,327.50 242.17,272.50 289.80,245.00 337.43,272.50" stroke-width="2" fill="none"/>
  <polygon points="441.35,327.50 393.72,355.00 346.09,327.50 346.09,272.50 393.72,245.00 441.35,272.50" stroke-width="2" fill="none"/>
  <polygon points="545.27,327.50 497.64,355.00 450.01,327.50 450.01,272.50 497.64,245.00 545.27,272.50" stroke-width="2" fill="none"/>
  <polygon points="77.63,417.50 30.00,445.00 -17.63,417.50 -17.63,362.50 30.00,335.00 77.63,362.50" stroke-width="2" fill="none"/>
  <polygon points="181.55,417.50 133.92,445.00 86.29,417.50 86.29,362.50 133.92,335.00 181.55,362.50" stroke-width="2" fill="none"/>
  <polygon points="285.47,417.50 237.84,445.00 190.21,417.50 190.21,362.50 237.84,335.00 285.47,362.50" stroke-width="2" fill="none"/>
  <polygon points="389.39,417.50 341.76,445.00 294.13,417.50 294.13,362.50 341.76,335.00 389.39,362.50" stroke-width="2" fill="none"/>
  <polygon points="493.31,417.50 445.68,445.00 398.05,417.50 398.05,362.50 445.68,335.00 493.31,362.50" stroke-width="2" fill="none"/>
</svg>
