<?xml version="1.0" encoding="UTF-8"?>
<svg xmlns="http://www.w3.org/2000/svg" viewBox="0 0 480 480" fill="none" stroke="currentColor" stroke-width="1">

  <!-- 3 text columns with image block -->
  <rect x="20" y="20" width="200" height="120" stroke-width="1" fill="currentColor" opacity="0.08"/>
  <rect x="20" y="20" width="440" height="16" rx="3" fill="currentColor" opacity="0.2" stroke="none"/>
  <rect x="20" y="160" width="130" height="8" rx="4" fill="currentColor" opacity="0.1" stroke="none"/>
    <rect x="20" y="180" width="110" height="6" rx="3" fill="currentColor" opacity="0.07" stroke="none"/><rect x="20" y="200" width="126" height="6" rx="3" fill="currentColor" opacity="0.07" stroke="none"/><rect x="20" y="220" width="128" height="6" rx="3" fill="currentColor" opacity="0.07" stroke="none"/><rect x="20" y="240" width="112" height="6" rx="3" fill="currentColor" opacity="0.07" stroke="none"/><rect x="20" y="260" width="94" height="6" rx="3" fill="currentColor" opacity="0.07" stroke="none"/><rect x="20" y="280" width="90" height="6" rx="3" fill="currentColor" opacity="0.07" stroke="none"/><rect x="20" y="300" width="104" height="6" rx="3" fill="currentColor" opacity="0.07" stroke="none"/><rect x="20" y="320" width="123" height="6" rx="3" fill="currentColor" opacity="0.07" stroke="none"/><rect x="20" y="340" width="129" height="6" rx="3" fill="currentColor" opacity="0.07" stroke="none"/><rect x="20" y="360" width="118" height="6" rx="3" fill="currentColor" opacity="0.07" stroke="none"/>
  <rect x="170" y="160" width="130" height="8" rx="4" fill="currentColor" opacity="0.1" stroke="none"/>
    <rect x="170" y="180" width="126" height="6" rx="3" fill="currentColor" opacity="0.07" stroke="none"/><rect x="170" y="200" width="128" height="6" rx="3" fill="currentColor" opacity="0.07" stroke="none"/><rect x="170" y="220" width="112" height="6" rx="3" fill="currentColor" opacity="0.07" stroke="none"/><rect x="170" y="240" width="94" height="6" rx="3" fill="currentColor" opacity="0.07" stroke="none"/><rect x="170" y="260" width="90" height="6" rx="3" fill="currentColor" opacity="0.07" stroke="none"/><rect x="170" y="280" width="104" height="6" rx="3" fill="currentColor" opacity="0.07" stroke="none"/><rect x="170" y="300" width="123" height="6" rx="3" fill="currentColor" opacity="0.07" stroke="none"/><rect x="170" y="320" width="129" height="6" rx="3" fill="currentColor" opacity="0.07" stroke="none"/><rect x="170" y="340" width="118" height="6" rx="3" fill="currentColor" opacity="0.07" stroke="none"/><rect x="170" y="360" width="99" height="6" rx="3" fill="currentColor" opacity="0.07" stroke="none"/>
  <rect x="320" y="160" width="130" height="8" rx="4" fill="currentColor" opacity="0.1" stroke="none"/>
    <rect x="320" y="180" width="128" height="6" rx="3" fill="currentColor" opacity="0.07" stroke="none"/><rect x="320" y="200" width="112" height="6" rx="3" fill="currentColor" opacity="0.07" stroke="none"/><rect x="320" y="220" width="94" height="6" rx="3" fill="currentColor" opacity="0.07" stroke="none"/><rect x="320" y="240" width="90" height="6" rx="3" fill="currentColor" opacity="0.07" stroke="none"/><rect x="320" y="260" width="104" height="6" rx="3" fill="currentColor" opacity="0.07" stroke="none"/><rect x="320" y="280" width="123" height="6" rx="3" fill="currentColor" opacity="0.07" stroke="none"/><rect x="320" y="300" width="129" height="6" rx="3" fill="currentColor" opacity="0.07" stroke="none"/><rect x="320" y="320" width="118" height="6" rx="3" fill="currentColor" opacity="0.07" stroke="none"/><rect x="320" y="340" width="99" height="6" rx="3" fill="currentColor" opacity="0.07" stroke="none"/><rect x="320" y="360" width="90" height="6" rx="3" fill="currentColor" opacity="0.07" stroke="none"/>
  
  <line x1="160" y1="150" x2="160" y2="460" stroke-width="0.5" opacity="0.3"/>
  <line x1="310" y1="150" x2="310" y2="460" stroke-width="0.5" opacity="0.3"/>

</svg>
