<?xml version="1.0" encoding="UTF-8"?>
<svg xmlns="http://www.w3.org/2000/svg" viewBox="0 0 480 480" fill="none" >
<defs>
  <linearGradient id="lhg" x1="0" y1="0" x2="1" y2="0">
    <stop offset="0%" stop-color="currentColor" stop-opacity="0.01"/>
    <stop offset="30%" stop-color="currentColor" stop-opacity="0.6"/>
    <stop offset="70%" stop-color="currentColor" stop-opacity="0.6"/>
    <stop offset="100%" stop-color="currentColor" stop-opacity="0.01"/>
  </linearGradient>
  <mask id="lhm"><rect width="480" height="480" fill="url(#lhg)"/></mask>
</defs>
<g mask="url(#lhm)"><line x1="0" y1="12" x2="480" y2="12" stroke="currentColor" stroke-width="0.8" opacity="1"/>
<line x1="0" y1="36" x2="480" y2="36" stroke="currentColor" stroke-width="0.8" opacity="1"/>
<line x1="0" y1="60" x2="480" y2="60" stroke="currentColor" stroke-width="0.8" opacity="1"/>
<line x1="0" y1="84" x2="480" y2="84" stroke="currentColor" stroke-width="0.8" opacity="1"/>
<line x1="0" y1="108" x2="480" y2="108" stroke="currentColor" stroke-width="0.8" opacity="1"/>
<line x1="0" y1="132" x2="480" y2="132" stroke="currentColor" stroke-width="0.8" opacity="1"/>
<line x1="0" y1="156" x2="480" y2="156" stroke="currentColor" stroke-width="0.8" opacity="1"/>
<line x1="0" y1="180" x2="480" y2="180" stroke="currentColor" stroke-width="0.8" opacity="1"/>
<line x1="0" y1="204" x2="480" y2="204" stroke="currentColor" stroke-width="0.8" opacity="1"/>
<line x1="0" y1="228" x2="480" y2="228" stroke="currentColor" stroke-width="0.8" opacity="1"/>
<line x1="0" y1="252" x2="480" y2="252" stroke="currentColor" stroke-width="0.8" opacity="1"/>
<line x1="0" y1="276" x2="480" y2="276" stroke="currentColor" stroke-width="0.8" opacity="1"/>
<line x1="0" y1="300" x2="480" y2="300" stroke="currentColor" stroke-width="0.8" opacity="1"/>
<line x1="0" y1="324" x2="480" y2="324" stroke="currentColor" stroke-width="0.8" opacity="1"/>
<line x1="0" y1="348" x2="480" y2="348" stroke="currentColor" stroke-width="0.8" opacity="1"/>
<line x1="0" y1="372" x2="480" y2="372" stroke="currentColor" stroke-width="0.8" opacity="1"/>
<line x1="0" y1="396" x2="480" y2="396" stroke="currentColor" stroke-width="0.8" opacity="1"/>
<line x1="0" y1="420" x2="480" y2="420" stroke="currentColor" stroke-width="0.8" opacity="1"/>
<line x1="0" y1="444" x2="480" y2="444" stroke="currentColor" stroke-width="0.8" opacity="1"/>
<line x1="0" y1="468" x2="480" y2="468" stroke="currentColor" stroke-width="0.8" opacity="1"/></g>
</svg>
