<?xml version="1.0" encoding="UTF-8"?>
<svg xmlns="http://www.w3.org/2000/svg" viewBox="0 0 480 480" fill="none" >
<line x1="15" y1="0" x2="15" y2="480" stroke="currentColor" stroke-width="2" opacity="0.43"/>
<line x1="45" y1="0" x2="45" y2="480" stroke="currentColor" stroke-width="1" opacity="0.27"/>
<line x1="75" y1="0" x2="75" y2="480" stroke="currentColor" stroke-width="1" opacity="0.27"/>
<line x1="105" y1="0" x2="105" y2="480" stroke="currentColor" stroke-width="2" opacity="0.43"/>
<line x1="135" y1="0" x2="135" y2="480" stroke="currentColor" stroke-width="3" opacity="0.60"/>
<line x1="165" y1="0" x2="165" y2="480" stroke="currentColor" stroke-width="1" opacity="0.27"/>
<line x1="195" y1="0" x2="195" y2="480" stroke="currentColor" stroke-width="1" opacity="0.27"/>
<line x1="225" y1="0" x2="225" y2="480" stroke="currentColor" stroke-width="2" opacity="0.43"/>
<line x1="255" y1="0" x2="255" y2="480" stroke="currentColor" stroke-width="1" opacity="0.27"/>
<line x1="285" y1="0" x2="285" y2="480" stroke="currentColor" stroke-width="1" opacity="0.27"/>
<line x1="315" y1="0" x2="315" y2="480" stroke="currentColor" stroke-width="2" opacity="0.43"/>
<line x1="345" y1="0" x2="345" y2="480" stroke="currentColor" stroke-width="1" opacity="0.27"/>
<line x1="375" y1="0" x2="375" y2="480" stroke="currentColor" stroke-width="2" opacity="0.43"/>
<line x1="405" y1="0" x2="405" y2="480" stroke="currentColor" stroke-width="1" opacity="0.27"/>
<line x1="435" y1="0" x2="435" y2="480" stroke="currentColor" stroke-width="1" opacity="0.27"/>
<line x1="465" y1="0" x2="465" y2="480" stroke="currentColor" stroke-width="2" opacity="0.43"/>
</svg>
