<?xml version="1.0" encoding="UTF-8"?>
<svg xmlns="http://www.w3.org/2000/svg" viewBox="0 0 480 480" fill="none" >
<rect x="6" y="0" width="48" height="480" fill="currentColor" opacity="0.03"/>
<line x1="6" y1="0" x2="6" y2="480" stroke="currentColor" stroke-width="0.5" opacity="0.2"/>
<line x1="54" y1="0" x2="54" y2="480" stroke="currentColor" stroke-width="0.5" opacity="0.2"/>
<rect x="66" y="0" width="48" height="480" fill="currentColor" opacity="0.03"/>
<line x1="66" y1="0" x2="66" y2="480" stroke="currentColor" stroke-width="0.5" opacity="0.2"/>
<line x1="114" y1="0" x2="114" y2="480" stroke="currentColor" stroke-width="0.5" opacity="0.2"/>
<rect x="126" y="0" width="48" height="480" fill="currentColor" opacity="0.03"/>
<line x1="126" y1="0" x2="126" y2="480" stroke="currentColor" stroke-width="0.5" opacity="0.2"/>
<line x1="174" y1="0" x2="174" y2="480" stroke="currentColor" stroke-width="0.5" opacity="0.2"/>
<rect x="186" y="0" width="48" height="480" fill="currentColor" opacity="0.03"/>
<line x1="186" y1="0" x2="186" y2="480" stroke="currentColor" stroke-width="0.5" opacity="0.2"/>
<line x1="234" y1="0" x2="234" y2="480" stroke="currentColor" stroke-width="0.5" opacity="0.2"/>
<rect x="246" y="0" width="48" height="480" fill="currentColor" opacity="0.03"/>
<line x1="246" y1="0" x2="246" y2="480" stroke="currentColor" stroke-width="0.5" opacity="0.2"/>
<line x1="294" y1="0" x2="294" y2="480" stroke="currentColor" stroke-width="0.5" opacity="0.2"/>
<rect x="306" y="0" width="48" height="480" fill="currentColor" opacity="0.03"/>
<line x1="306" y1="0" x2="306" y2="480" stroke="currentColor" stroke-width="0.5" opacity="0.2"/>
<line x1="354" y1="0" x2="354" y2="480" stroke="currentColor" stroke-width="0.5" opacity="0.2"/>
<rect x="366" y="0" width="48" height="480" fill="currentColor" opacity="0.03"/>
<line x1="366" y1="0" x2="366" y2="480" stroke="currentColor" stroke-width="0.5" opacity="0.2"/>
<line x1="414" y1="0" x2="414" y2="480" stroke="currentColor" stroke-width="0.5" opacity="0.2"/>
<rect x="426" y="0" width="48" height="480" fill="currentColor" opacity="0.03"/>
<line x1="426" y1="0" x2="426" y2="480" stroke="currentColor" stroke-width="0.5" opacity="0.2"/>
<line x1="474" y1="0" x2="474" y2="480" stroke="currentColor" stroke-width="0.5" opacity="0.2"/>
</svg>
