<?xml version="1.0" encoding="UTF-8"?>
<svg xmlns="http://www.w3.org/2000/svg" viewBox="0 0 480 480" fill="none" >
<line x1="0" y1="0" x2="480" y2="0" stroke="currentColor" stroke-width="1" opacity="0.08"/>
<line x1="0" y1="4" x2="480" y2="4" stroke="currentColor" stroke-width="0" opacity="0"/>
<line x1="0" y1="8" x2="480" y2="8" stroke="currentColor" stroke-width="1" opacity="0.08"/>
<line x1="0" y1="12" x2="480" y2="12" stroke="currentColor" stroke-width="0" opacity="0"/>
<line x1="0" y1="16" x2="480" y2="16" stroke="currentColor" stroke-width="1" opacity="0.08"/>
<line x1="0" y1="20" x2="480" y2="20" stroke="currentColor" stroke-width="0" opacity="0"/>
<line x1="0" y1="24" x2="480" y2="24" stroke="currentColor" stroke-width="1" opacity="0.08"/>
<line x1="0" y1="28" x2="480" y2="28" stroke="currentColor" stroke-width="0" opacity="0"/>
<line x1="0" y1="32" x2="480" y2="32" stroke="currentColor" stroke-width="1" opacity="0.08"/>
<line x1="0" y1="36" x2="480" y2="36" stroke="currentColor" stroke-width="0" opacity="0"/>
<line x1="0" y1="40" x2="480" y2="40" stroke="currentColor" stroke-width="1" opacity="0.08"/>
<line x1="0" y1="44" x2="480" y2="44" stroke="currentColor" stroke-width="0" opacity="0"/>
<line x1="0" y1="48" x2="480" y2="48" stroke="currentColor" stroke-width="1" opacity="0.08"/>
<line x1="0" y1="52" x2="480" y2="52" stroke="currentColor" stroke-width="0" opacity="0"/>
<line x1="0" y1="56" x2="480" y2="56" stroke="currentColor" stroke-width="1" opacity="0.08"/>
<line x1="0" y1="60" x2="480" y2="60" stroke="currentColor" stroke-width="0" opacity="0"/>
<line x1="0" y1="64" x2="480" y2="64" stroke="currentColor" stroke-width="1" opacity="0.08"/>
<line x1="0" y1="68" x2="480" y2="68" stroke="currentColor" stroke-width="0" opacity="0"/>
<line x1="0" y1="72" x2="480" y2="72" stroke="currentColor" stroke-width="1" opacity="0.08"/>
<line x1="0" y1="76" x2="480" y2="76" stroke="currentColor" stroke-width="0" opacity="0"/>
<line x1="0" y1="80" x2="480" y2="80" stroke="currentColor" stroke-width="1" opacity="0.08"/>
<line x1="0" y1="84" x2="480" y2="84" stroke="currentColor" stroke-width="0" opacity="0"/>
<line x1="0" y1="88" x2="480" y2="88" stroke="currentColor" stroke-width="1" opacity="0.08"/>
<line x1="0" y1="92" x2="480" y2="92" stroke="currentColor" stroke-width="0" opacity="0"/>
<line x1="0" y1="96" x2="480" y2="96" stroke="currentColor" stroke-width="1" opacity="0.08"/>
<line x1="0" y1="100" x2="480" y2="100" stroke="currentColor" stroke-width="0" opacity="0"/>
<line x1="0" y1="104" x2="480" y2="104" stroke="currentColor" stroke-width="1" opacity="0.08"/>
<line x1="0" y1="108" x2="480" y2="108" stroke="currentColor" stroke-width="0" opacity="0"/>
<line x1="0" y1="112" x2="480" y2="112" stroke="currentColor" stroke-width="1" opacity="0.08"/>
<line x1="0" y1="116" x2="480" y2="116" stroke="currentColor" stroke-width="0" opacity="0"/>
<line x1="0" y1="120" x2="480" y2="120" stroke="currentColor" stroke-width="1" opacity="0.08"/>
<line x1="0" y1="124" x2="480" y2="124" stroke="currentColor" stroke-width="0" opacity="0"/>
<line x1="0" y1="128" x2="480" y2="128" stroke="currentColor" stroke-width="1" opacity="0.08"/>
<line x1="0" y1="132" x2="480" y2="132" stroke="currentColor" stroke-width="0" opacity="0"/>
<line x1="0" y1="136" x2="480" y2="136" stroke="currentColor" stroke-width="1" opacity="0.08"/>
<line x1="0" y1="140" x2="480" y2="140" stroke="currentColor" stroke-width="0" opacity="0"/>
<line x1="0" y1="144" x2="480" y2="144" stroke="currentColor" stroke-width="1" opacity="0.08"/>
<line x1="0" y1="148" x2="480" y2="148" stroke="currentColor" stroke-width="0" opacity="0"/>
<line x1="0" y1="152" x2="480" y2="152" stroke="currentColor" stroke-width="1" opacity="0.08"/>
<line x1="0" y1="156" x2="480" y2="156" stroke="currentColor" stroke-width="0" opacity="0"/>
<line x1="0" y1="160" x2="480" y2="160" stroke="currentColor" stroke-width="1" opacity="0.08"/>
<line x1="0" y1="164" x2="480" y2="164" stroke="currentColor" stroke-width="0" opacity="0"/>
<line x1="0" y1="168" x2="480" y2="168" stroke="currentColor" stroke-width="1" opacity="0.08"/>
<line x1="0" y1="172" x2="480" y2="172" stroke="currentColor" stroke-width="0" opacity="0"/>
<line x1="0" y1="176" x2="480" y2="176" stroke="currentColor" stroke-width="1" opacity="0.08"/>
<line x1="0" y1="180" x2="480" y2="180" stroke="currentColor" stroke-width="0" opacity="0"/>
<line x1="0" y1="184" x2="480" y2="184" stroke="currentColor" stroke-width="1" opacity="0.08"/>
<line x1="0" y1="188" x2="480" y2="188" stroke="currentColor" stroke-width="0" opacity="0"/>
<line x1="0" y1="192" x2="480" y2="192" stroke="currentColor" stroke-width="1" opacity="0.08"/>
<line x1="0" y1="196" x2="480" y2="196" stroke="currentColor" stroke-width="0" opacity="0"/>
<line x1="0" y1="200" x2="480" y2="200" stroke="currentColor" stroke-width="1" opacity="0.08"/>
<line x1="0" y1="204" x2="480" y2="204" stroke="currentColor" stroke-width="0" opacity="0"/>
<line x1="0" y1="208" x2="480" y2="208" stroke="currentColor" stroke-width="1" opacity="0.08"/>
<line x1="0" y1="212" x2="480" y2="212" stroke="currentColor" stroke-width="0" opacity="0"/>
<line x1="0" y1="216" x2="480" y2="216" stroke="currentColor" stroke-width="1" opacity="0.08"/>
<line x1="0" y1="220" x2="480" y2="220" stroke="currentColor" stroke-width="0" opacity="0"/>
<line x1="0" y1="224" x2="480" y2="224" stroke="currentColor" stroke-width="1" opacity="0.08"/>
<line x1="0" y1="228" x2="480" y2="228" stroke="currentColor" stroke-width="0" opacity="0"/>
<line x1="0" y1="232" x2="480" y2="232" stroke="currentColor" stroke-width="1" opacity="0.08"/>
<line x1="0" y1="236" x2="480" y2="236" stroke="currentColor" stroke-width="0" opacity="0"/>
<line x1="0" y1="240" x2="480" y2="240" stroke="currentColor" stroke-width="1" opacity="0.08"/>
<line x1="0" y1="244" x2="480" y2="244" stroke="currentColor" stroke-width="0" opacity="0"/>
<line x1="0" y1="248" x2="480" y2="248" stroke="currentColor" stroke-width="1" opacity="0.08"/>
<line x1="0" y1="252" x2="480" y2="252" stroke="currentColor" stroke-width="0" opacity="0"/>
<line x1="0" y1="256" x2="480" y2="256" stroke="currentColor" stroke-width="1" opacity="0.08"/>
<line x1="0" y1="260" x2="480" y2="260" stroke="currentColor" stroke-width="0" opacity="0"/>
<line x1="0" y1="264" x2="480" y2="264" stroke="currentColor" stroke-width="1" opacity="0.08"/>
<line x1="0" y1="268" x2="480" y2="268" stroke="currentColor" stroke-width="0" opacity="0"/>
<line x1="0" y1="272" x2="480" y2="272" stroke="currentColor" stroke-width="1" opacity="0.08"/>
<line x1="0" y1="276" x2="480" y2="276" stroke="currentColor" stroke-width="0" opacity="0"/>
<line x1="0" y1="280" x2="480" y2="280" stroke="currentColor" stroke-width="1" opacity="0.08"/>
<line x1="0" y1="284" x2="480" y2="284" stroke="currentColor" stroke-width="0" opacity="0"/>
<line x1="0" y1="288" x2="480" y2="288" stroke="currentColor" stroke-width="1" opacity="0.08"/>
<line x1="0" y1="292" x2="480" y2="292" stroke="currentColor" stroke-width="0" opacity="0"/>
<line x1="0" y1="296" x2="480" y2="296" stroke="currentColor" stroke-width="1" opacity="0.08"/>
<line x1="0" y1="300" x2="480" y2="300" stroke="currentColor" stroke-width="0" opacity="0"/>
<line x1="0" y1="304" x2="480" y2="304" stroke="currentColor" stroke-width="1" opacity="0.08"/>
<line x1="0" y1="308" x2="480" y2="308" stroke="currentColor" stroke-width="0" opacity="0"/>
<line x1="0" y1="312" x2="480" y2="312" stroke="currentColor" stroke-width="1" opacity="0.08"/>
<line x1="0" y1="316" x2="480" y2="316" stroke="currentColor" stroke-width="0" opacity="0"/>
<line x1="0" y1="320" x2="480" y2="320" stroke="currentColor" stroke-width="1" opacity="0.08"/>
<line x1="0" y1="324" x2="480" y2="324" stroke="currentColor" stroke-width="0" opacity="0"/>
<line x1="0" y1="328" x2="480" y2="328" stroke="currentColor" stroke-width="1" opacity="0.08"/>
<line x1="0" y1="332" x2="480" y2="332" stroke="currentColor" stroke-width="0" opacity="0"/>
<line x1="0" y1="336" x2="480" y2="336" stroke="currentColor" stroke-width="1" opacity="0.08"/>
<line x1="0" y1="340" x2="480" y2="340" stroke="currentColor" stroke-width="0" opacity="0"/>
<line x1="0" y1="344" x2="480" y2="344" stroke="currentColor" stroke-width="1" opacity="0.08"/>
<line x1="0" y1="348" x2="480" y2="348" stroke="currentColor" stroke-width="0" opacity="0"/>
<line x1="0" y1="352" x2="480" y2="352" stroke="currentColor" stroke-width="1" opacity="0.08"/>
<line x1="0" y1="356" x2="480" y2="356" stroke="currentColor" stroke-width="0" opacity="0"/>
<line x1="0" y1="360" x2="480" y2="360" stroke="currentColor" stroke-width="1" opacity="0.08"/>
<line x1="0" y1="364" x2="480" y2="364" stroke="currentColor" stroke-width="0" opacity="0"/>
<line x1="0" y1="368" x2="480" y2="368" stroke="currentColor" stroke-width="1" opacity="0.08"/>
<line x1="0" y1="372" x2="480" y2="372" stroke="currentColor" stroke-width="0" opacity="0"/>
<line x1="0" y1="376" x2="480" y2="376" stroke="currentColor" stroke-width="1" opacity="0.08"/>
<line x1="0" y1="380" x2="480" y2="380" stroke="currentColor" stroke-width="0" opacity="0"/>
<line x1="0" y1="384" x2="480" y2="384" stroke="currentColor" stroke-width="1" opacity="0.08"/>
<line x1="0" y1="388" x2="480" y2="388" stroke="currentColor" stroke-width="0" opacity="0"/>
<line x1="0" y1="392" x2="480" y2="392" stroke="currentColor" stroke-width="1" opacity="0.08"/>
<line x1="0" y1="396" x2="480" y2="396" stroke="currentColor" stroke-width="0" opacity="0"/>
<line x1="0" y1="400" x2="480" y2="400" stroke="currentColor" stroke-width="1" opacity="0.08"/>
<line x1="0" y1="404" x2="480" y2="404" stroke="currentColor" stroke-width="0" opacity="0"/>
<line x1="0" y1="408" x2="480" y2="408" stroke="currentColor" stroke-width="1" opacity="0.08"/>
<line x1="0" y1="412" x2="480" y2="412" stroke="currentColor" stroke-width="0" opacity="0"/>
<line x1="0" y1="416" x2="480" y2="416" stroke="currentColor" stroke-width="1" opacity="0.08"/>
<line x1="0" y1="420" x2="480" y2="420" stroke="currentColor" stroke-width="0" opacity="0"/>
<line x1="0" y1="424" x2="480" y2="424" stroke="currentColor" stroke-width="1" opacity="0.08"/>
<line x1="0" y1="428" x2="480" y2="428" stroke="currentColor" stroke-width="0" opacity="0"/>
<line x1="0" y1="432" x2="480" y2="432" stroke="currentColor" stroke-width="1" opacity="0.08"/>
<line x1="0" y1="436" x2="480" y2="436" stroke="currentColor" stroke-width="0" opacity="0"/>
<line x1="0" y1="440" x2="480" y2="440" stroke="currentColor" stroke-width="1" opacity="0.08"/>
<line x1="0" y1="444" x2="480" y2="444" stroke="currentColor" stroke-width="0" opacity="0"/>
<line x1="0" y1="448" x2="480" y2="448" stroke="currentColor" stroke-width="1" opacity="0.08"/>
<line x1="0" y1="452" x2="480" y2="452" stroke="currentColor" stroke-width="0" opacity="0"/>
<line x1="0" y1="456" x2="480" y2="456" stroke="currentColor" stroke-width="1" opacity="0.08"/>
<line x1="0" y1="460" x2="480" y2="460" stroke="currentColor" stroke-width="0" opacity="0"/>
<line x1="0" y1="464" x2="480" y2="464" stroke="currentColor" stroke-width="1" opacity="0.08"/>
<line x1="0" y1="468" x2="480" y2="468" stroke="currentColor" stroke-width="0" opacity="0"/>
<line x1="0" y1="472" x2="480" y2="472" stroke="currentColor" stroke-width="1" opacity="0.08"/>
<line x1="0" y1="476" x2="480" y2="476" stroke="currentColor" stroke-width="0" opacity="0"/>
</svg>
