<?xml version="1.0" encoding="UTF-8"?>
<svg xmlns="http://www.w3.org/2000/svg" viewBox="0 0 480 480" fill="none" >
<line x1="0" y1="12" x2="480" y2="12" stroke="currentColor" stroke-width="1.8" opacity="0.7"/>
<line x1="0" y1="37" x2="480" y2="37" stroke="currentColor" stroke-width="0.4" opacity="0.25"/>
<line x1="0" y1="62" x2="480" y2="62" stroke="currentColor" stroke-width="0.4" opacity="0.25"/>
<line x1="0" y1="87" x2="480" y2="87" stroke="currentColor" stroke-width="1.8" opacity="0.7"/>
<line x1="0" y1="112" x2="480" y2="112" stroke="currentColor" stroke-width="0.4" opacity="0.25"/>
<line x1="0" y1="137" x2="480" y2="137" stroke="currentColor" stroke-width="0.4" opacity="0.25"/>
<line x1="0" y1="162" x2="480" y2="162" stroke="currentColor" stroke-width="1.8" opacity="0.7"/>
<line x1="0" y1="187" x2="480" y2="187" stroke="currentColor" stroke-width="0.4" opacity="0.25"/>
<line x1="0" y1="212" x2="480" y2="212" stroke="currentColor" stroke-width="0.4" opacity="0.25"/>
<line x1="0" y1="237" x2="480" y2="237" stroke="currentColor" stroke-width="1.8" opacity="0.7"/>
<line x1="0" y1="262" x2="480" y2="262" stroke="currentColor" stroke-width="0.4" opacity="0.25"/>
<line x1="0" y1="287" x2="480" y2="287" stroke="currentColor" stroke-width="0.4" opacity="0.25"/>
<line x1="0" y1="312" x2="480" y2="312" stroke="currentColor" stroke-width="1.8" opacity="0.7"/>
<line x1="0" y1="337" x2="480" y2="337" stroke="currentColor" stroke-width="0.4" opacity="0.25"/>
<line x1="0" y1="362" x2="480" y2="362" stroke="currentColor" stroke-width="0.4" opacity="0.25"/>
<line x1="0" y1="387" x2="480" y2="387" stroke="currentColor" stroke-width="1.8" opacity="0.7"/>
<line x1="0" y1="412" x2="480" y2="412" stroke="currentColor" stroke-width="0.4" opacity="0.25"/>
<line x1="0" y1="437" x2="480" y2="437" stroke="currentColor" stroke-width="0.4" opacity="0.25"/>
<line x1="0" y1="462" x2="480" y2="462" stroke="currentColor" stroke-width="1.8" opacity="0.7"/>
<line x1="0" y1="487" x2="480" y2="487" stroke="currentColor" stroke-width="0.4" opacity="0.25"/>
</svg>
