<?xml version="1.0" encoding="UTF-8"?>
<svg xmlns="http://www.w3.org/2000/svg" viewBox="0 0 480 480" fill="none" >
<line x1="0" y1="20" x2="480" y2="20" stroke="currentColor" stroke-width="0.5" opacity="0.2"/>
<line x1="0" y1="60" x2="480" y2="60" stroke="currentColor" stroke-width="0.5" opacity="0.2"/>
<line x1="0" y1="100" x2="480" y2="100" stroke="currentColor" stroke-width="0.5" opacity="0.2"/>
<line x1="0" y1="140" x2="480" y2="140" stroke="currentColor" stroke-width="0.5" opacity="0.2"/>
<line x1="0" y1="180" x2="480" y2="180" stroke="currentColor" stroke-width="0.5" opacity="0.2"/>
<line x1="0" y1="220" x2="480" y2="220" stroke="currentColor" stroke-width="0.5" opacity="0.2"/>
<line x1="0" y1="260" x2="480" y2="260" stroke="currentColor" stroke-width="0.5" opacity="0.2"/>
<line x1="0" y1="300" x2="480" y2="300" stroke="currentColor" stroke-width="0.5" opacity="0.2"/>
<line x1="0" y1="340" x2="480" y2="340" stroke="currentColor" stroke-width="0.5" opacity="0.2"/>
<line x1="0" y1="380" x2="480" y2="380" stroke="currentColor" stroke-width="0.5" opacity="0.2"/>
<line x1="0" y1="420" x2="480" y2="420" stroke="currentColor" stroke-width="0.5" opacity="0.2"/>
<line x1="0" y1="460" x2="480" y2="460" stroke="currentColor" stroke-width="0.5" opacity="0.2"/>
<line x1="-200" y1="0" x2="76" y2="480" stroke="currentColor" stroke-width="0.5" opacity="0.2"/>
<line x1="-154" y1="0" x2="122" y2="480" stroke="currentColor" stroke-width="0.5" opacity="0.2"/>
<line x1="-108" y1="0" x2="168" y2="480" stroke="currentColor" stroke-width="0.5" opacity="0.2"/>
<line x1="-62" y1="0" x2="214" y2="480" stroke="currentColor" stroke-width="0.5" opacity="0.2"/>
<line x1="-16" y1="0" x2="260" y2="480" stroke="currentColor" stroke-width="0.5" opacity="0.2"/>
<line x1="30" y1="0" x2="306" y2="480" stroke="currentColor" stroke-width="0.5" opacity="0.2"/>
<line x1="76" y1="0" x2="352" y2="480" stroke="currentColor" stroke-width="0.5" opacity="0.2"/>
<line x1="122" y1="0" x2="398" y2="480" stroke="currentColor" stroke-width="0.5" opacity="0.2"/>
<line x1="168" y1="0" x2="444" y2="480" stroke="currentColor" stroke-width="0.5" opacity="0.2"/>
<line x1="214" y1="0" x2="490" y2="480" stroke="currentColor" stroke-width="0.5" opacity="0.2"/>
<line x1="260" y1="0" x2="536" y2="480" stroke="currentColor" stroke-width="0.5" opacity="0.2"/>
<line x1="306" y1="0" x2="582" y2="480" stroke="currentColor" stroke-width="0.5" opacity="0.2"/>
<line x1="352" y1="0" x2="628" y2="480" stroke="currentColor" stroke-width="0.5" opacity="0.2"/>
<line x1="398" y1="0" x2="674" y2="480" stroke="currentColor" stroke-width="0.5" opacity="0.2"/>
<line x1="444" y1="0" x2="720" y2="480" stroke="currentColor" stroke-width="0.5" opacity="0.2"/>
<line x1="490" y1="0" x2="766" y2="480" stroke="currentColor" stroke-width="0.5" opacity="0.2"/>
<line x1="536" y1="0" x2="812" y2="480" stroke="currentColor" stroke-width="0.5" opacity="0.2"/>
<line x1="582" y1="0" x2="858" y2="480" stroke="currentColor" stroke-width="0.5" opacity="0.2"/>
<line x1="628" y1="0" x2="904" y2="480" stroke="currentColor" stroke-width="0.5" opacity="0.2"/>
<line x1="674" y1="0" x2="950" y2="480" stroke="currentColor" stroke-width="0.5" opacity="0.2"/>
<line x1="280" y1="0" x2="4" y2="480" stroke="currentColor" stroke-width="0.5" opacity="0.2"/>
<line x1="326" y1="0" x2="50" y2="480" stroke="currentColor" stroke-width="0.5" opacity="0.2"/>
<line x1="372" y1="0" x2="96" y2="480" stroke="currentColor" stroke-width="0.5" opacity="0.2"/>
<line x1="418" y1="0" x2="142" y2="480" stroke="currentColor" stroke-width="0.5" opacity="0.2"/>
<line x1="464" y1="0" x2="188" y2="480" stroke="currentColor" stroke-width="0.5" opacity="0.2"/>
<line x1="510" y1="0" x2="234" y2="480" stroke="currentColor" stroke-width="0.5" opacity="0.2"/>
<line x1="556" y1="0" x2="280" y2="480" stroke="currentColor" stroke-width="0.5" opacity="0.2"/>
<line x1="602" y1="0" x2="326" y2="480" stroke="currentColor" stroke-width="0.5" opacity="0.2"/>
<line x1="648" y1="0" x2="372" y2="480" stroke="currentColor" stroke-width="0.5" opacity="0.2"/>
<line x1="694" y1="0" x2="418" y2="480" stroke="currentColor" stroke-width="0.5" opacity="0.2"/>
<line x1="740" y1="0" x2="464" y2="480" stroke="currentColor" stroke-width="0.5" opacity="0.2"/>
<line x1="786" y1="0" x2="510" y2="480" stroke="currentColor" stroke-width="0.5" opacity="0.2"/>
<line x1="832" y1="0" x2="556" y2="480" stroke="currentColor" stroke-width="0.5" opacity="0.2"/>
<line x1="878" y1="0" x2="602" y2="480" stroke="currentColor" stroke-width="0.5" opacity="0.2"/>
<line x1="924" y1="0" x2="648" y2="480" stroke="currentColor" stroke-width="0.5" opacity="0.2"/>
<line x1="970" y1="0" x2="694" y2="480" stroke="currentColor" stroke-width="0.5" opacity="0.2"/>
<line x1="1016" y1="0" x2="740" y2="480" stroke="currentColor" stroke-width="0.5" opacity="0.2"/>
<line x1="1062" y1="0" x2="786" y2="480" stroke="currentColor" stroke-width="0.5" opacity="0.2"/>
<line x1="1108" y1="0" x2="832" y2="480" stroke="currentColor" stroke-width="0.5" opacity="0.2"/>
<line x1="1154" y1="0" x2="878" y2="480" stroke="currentColor" stroke-width="0.5" opacity="0.2"/>
</svg>
