<?xml version="1.0" encoding="UTF-8"?>
<svg xmlns="http://www.w3.org/2000/svg" viewBox="0 0 480 480" fill="none" >
<line x1="0" y1="1" x2="480" y2="1" stroke="currentColor" stroke-width="0.6" opacity="0.5"/>
<line x1="0" y1="5" x2="480" y2="5" stroke="currentColor" stroke-width="0.6" opacity="0.5"/>
<line x1="0" y1="12" x2="480" y2="12" stroke="currentColor" stroke-width="0.6" opacity="0.5"/>
<line x1="0" y1="21" x2="480" y2="21" stroke="currentColor" stroke-width="0.6" opacity="0.5"/>
<line x1="0" y1="33" x2="480" y2="33" stroke="currentColor" stroke-width="0.6" opacity="0.5"/>
<line x1="0" y1="48" x2="480" y2="48" stroke="currentColor" stroke-width="0.6" opacity="0.5"/>
<line x1="0" y1="65" x2="480" y2="65" stroke="currentColor" stroke-width="0.6" opacity="0.5"/>
<line x1="0" y1="85" x2="480" y2="85" stroke="currentColor" stroke-width="0.6" opacity="0.5"/>
<line x1="0" y1="108" x2="480" y2="108" stroke="currentColor" stroke-width="0.6" opacity="0.5"/>
<line x1="0" y1="133" x2="480" y2="133" stroke="currentColor" stroke-width="0.6" opacity="0.5"/>
<line x1="0" y1="161" x2="480" y2="161" stroke="currentColor" stroke-width="0.6" opacity="0.5"/>
<line x1="0" y1="191" x2="480" y2="191" stroke="currentColor" stroke-width="0.6" opacity="0.5"/>
<line x1="0" y1="225" x2="480" y2="225" stroke="currentColor" stroke-width="0.6" opacity="0.5"/>
<line x1="0" y1="261" x2="480" y2="261" stroke="currentColor" stroke-width="0.6" opacity="0.5"/>
<line x1="0" y1="299" x2="480" y2="299" stroke="currentColor" stroke-width="0.6" opacity="0.5"/>
<line x1="0" y1="340" x2="480" y2="340" stroke="currentColor" stroke-width="0.6" opacity="0.5"/>
<line x1="0" y1="384" x2="480" y2="384" stroke="currentColor" stroke-width="0.6" opacity="0.5"/>
<line x1="0" y1="431" x2="480" y2="431" stroke="currentColor" stroke-width="0.6" opacity="0.5"/>
<line x1="0" y1="480" x2="480" y2="480" stroke="currentColor" stroke-width="0.6" opacity="0.5"/>
<line x1="0" y1="532" x2="480" y2="532" stroke="currentColor" stroke-width="0.6" opacity="0.5"/>
</svg>
