<?xml version="1.0" encoding="UTF-8"?>
<svg xmlns="http://www.w3.org/2000/svg" viewBox="0 0 480 480" fill="none" >
<line x1="0" y1="16" x2="480" y2="16" stroke="currentColor" stroke-width="0.8" stroke-dasharray="4 8" opacity="0.4"/>
<line x1="0" y1="48" x2="480" y2="48" stroke="currentColor" stroke-width="0.8" stroke-dasharray="7 12" opacity="0.5"/>
<line x1="0" y1="80" x2="480" y2="80" stroke="currentColor" stroke-width="0.8" stroke-dasharray="10 8" opacity="0.6000000000000001"/>
<line x1="0" y1="112" x2="480" y2="112" stroke="currentColor" stroke-width="0.8" stroke-dasharray="4 12" opacity="0.4"/>
<line x1="0" y1="144" x2="480" y2="144" stroke="currentColor" stroke-width="0.8" stroke-dasharray="7 8" opacity="0.5"/>
<line x1="0" y1="176" x2="480" y2="176" stroke="currentColor" stroke-width="0.8" stroke-dasharray="10 12" opacity="0.6000000000000001"/>
<line x1="0" y1="208" x2="480" y2="208" stroke="currentColor" stroke-width="0.8" stroke-dasharray="4 8" opacity="0.4"/>
<line x1="0" y1="240" x2="480" y2="240" stroke="currentColor" stroke-width="0.8" stroke-dasharray="7 12" opacity="0.5"/>
<line x1="0" y1="272" x2="480" y2="272" stroke="currentColor" stroke-width="0.8" stroke-dasharray="10 8" opacity="0.6000000000000001"/>
<line x1="0" y1="304" x2="480" y2="304" stroke="currentColor" stroke-width="0.8" stroke-dasharray="4 12" opacity="0.4"/>
<line x1="0" y1="336" x2="480" y2="336" stroke="currentColor" stroke-width="0.8" stroke-dasharray="7 8" opacity="0.5"/>
<line x1="0" y1="368" x2="480" y2="368" stroke="currentColor" stroke-width="0.8" stroke-dasharray="10 12" opacity="0.6000000000000001"/>
<line x1="0" y1="400" x2="480" y2="400" stroke="currentColor" stroke-width="0.8" stroke-dasharray="4 8" opacity="0.4"/>
<line x1="0" y1="432" x2="480" y2="432" stroke="currentColor" stroke-width="0.8" stroke-dasharray="7 12" opacity="0.5"/>
<line x1="0" y1="464" x2="480" y2="464" stroke="currentColor" stroke-width="0.8" stroke-dasharray="10 8" opacity="0.6000000000000001"/>
<line x1="0" y1="496" x2="480" y2="496" stroke="currentColor" stroke-width="0.8" stroke-dasharray="4 12" opacity="0.4"/>
</svg>
