<?xml version="1.0" encoding="UTF-8"?>
<svg xmlns="http://www.w3.org/2000/svg" viewBox="0 0 480 480" fill="none" stroke="currentColor">
  <line x1="0" y1="32" x2="480" y2="32" stroke-width="1.5" opacity="0.8"/><line x1="0" y1="64" x2="480" y2="64" stroke-width="0.5" opacity="0.4"/><line x1="0" y1="96" x2="480" y2="96" stroke-width="0.5" opacity="0.4"/><line x1="0" y1="128" x2="480" y2="128" stroke-width="0.5" opacity="0.4"/><line x1="0" y1="160" x2="480" y2="160" stroke-width="0.5" opacity="0.4"/><line x1="0" y1="192" x2="480" y2="192" stroke-width="0.5" opacity="0.4"/><line x1="0" y1="224" x2="480" y2="224" stroke-width="0.5" opacity="0.4"/><line x1="0" y1="256" x2="480" y2="256" stroke-width="0.5" opacity="0.4"/><line x1="0" y1="288" x2="480" y2="288" stroke-width="0.5" opacity="0.4"/><line x1="0" y1="320" x2="480" y2="320" stroke-width="0.5" opacity="0.4"/><line x1="0" y1="352" x2="480" y2="352" stroke-width="0.5" opacity="0.4"/><line x1="0" y1="384" x2="480" y2="384" stroke-width="0.5" opacity="0.4"/><line x1="0" y1="416" x2="480" y2="416" stroke-width="0.5" opacity="0.4"/><line x1="0" y1="448" x2="480" y2="448" stroke-width="0.5" opacity="0.4"/>
  <line x1="60" y1="0" x2="60" y2="480" stroke-width="1" stroke="#E8765E" opacity="0.4"/>
</svg>
