<?xml version="1.0" encoding="UTF-8"?>
<svg xmlns="http://www.w3.org/2000/svg" viewBox="0 0 480 480" fill="none" >
<line x1="0" y1="4" x2="480" y2="4" stroke="currentColor" stroke-width="0.6" opacity="0.5"/>
<line x1="0" y1="12" x2="480" y2="12" stroke="currentColor" stroke-width="0.6" opacity="0.5"/>
<line x1="0" y1="20" x2="480" y2="20" stroke="currentColor" stroke-width="0.6" opacity="0.5"/>
<line x1="0" y1="28" x2="480" y2="28" stroke="currentColor" stroke-width="0.6" opacity="0.5"/>
<line x1="0" y1="36" x2="480" y2="36" stroke="currentColor" stroke-width="0.6" opacity="0.5"/>
<line x1="0" y1="44" x2="480" y2="44" stroke="currentColor" stroke-width="0.6" opacity="0.5"/>
<line x1="0" y1="52" x2="480" y2="52" stroke="currentColor" stroke-width="0.6" opacity="0.5"/>
<line x1="0" y1="60" x2="480" y2="60" stroke="currentColor" stroke-width="0.6" opacity="0.5"/>
<line x1="0" y1="68" x2="480" y2="68" stroke="currentColor" stroke-width="0.6" opacity="0.5"/>
<line x1="0" y1="76" x2="480" y2="76" stroke="currentColor" stroke-width="0.6" opacity="0.5"/>
<line x1="0" y1="84" x2="480" y2="84" stroke="currentColor" stroke-width="0.6" opacity="0.5"/>
<line x1="0" y1="92" x2="480" y2="92" stroke="currentColor" stroke-width="0.6" opacity="0.5"/>
<line x1="0" y1="100" x2="480" y2="100" stroke="currentColor" stroke-width="0.6" opacity="0.5"/>
<line x1="0" y1="108" x2="480" y2="108" stroke="currentColor" stroke-width="0.6" opacity="0.5"/>
<line x1="0" y1="116" x2="480" y2="116" stroke="currentColor" stroke-width="0.6" opacity="0.5"/>
<line x1="0" y1="124" x2="480" y2="124" stroke="currentColor" stroke-width="0.6" opacity="0.5"/>
<line x1="0" y1="132" x2="480" y2="132" stroke="currentColor" stroke-width="0.6" opacity="0.5"/>
<line x1="0" y1="140" x2="480" y2="140" stroke="currentColor" stroke-width="0.6" opacity="0.5"/>
<line x1="0" y1="148" x2="480" y2="148" stroke="currentColor" stroke-width="0.6" opacity="0.5"/>
<line x1="0" y1="156" x2="480" y2="156" stroke="currentColor" stroke-width="0.6" opacity="0.5"/>
<line x1="0" y1="164" x2="480" y2="164" stroke="currentColor" stroke-width="0.6" opacity="0.5"/>
<line x1="0" y1="172" x2="480" y2="172" stroke="currentColor" stroke-width="0.6" opacity="0.5"/>
<line x1="0" y1="180" x2="480" y2="180" stroke="currentColor" stroke-width="0.6" opacity="0.5"/>
<line x1="0" y1="188" x2="480" y2="188" stroke="currentColor" stroke-width="0.6" opacity="0.5"/>
<line x1="0" y1="196" x2="480" y2="196" stroke="currentColor" stroke-width="0.6" opacity="0.5"/>
<line x1="0" y1="204" x2="480" y2="204" stroke="currentColor" stroke-width="0.6" opacity="0.5"/>
<line x1="0" y1="212" x2="480" y2="212" stroke="currentColor" stroke-width="0.6" opacity="0.5"/>
<line x1="0" y1="220" x2="480" y2="220" stroke="currentColor" stroke-width="0.6" opacity="0.5"/>
<line x1="0" y1="228" x2="480" y2="228" stroke="currentColor" stroke-width="0.6" opacity="0.5"/>
<line x1="0" y1="236" x2="480" y2="236" stroke="currentColor" stroke-width="0.6" opacity="0.5"/>
<line x1="0" y1="244" x2="480" y2="244" stroke="currentColor" stroke-width="0.6" opacity="0.5"/>
<line x1="0" y1="252" x2="480" y2="252" stroke="currentColor" stroke-width="0.6" opacity="0.5"/>
<line x1="0" y1="260" x2="480" y2="260" stroke="currentColor" stroke-width="0.6" opacity="0.5"/>
<line x1="0" y1="268" x2="480" y2="268" stroke="currentColor" stroke-width="0.6" opacity="0.5"/>
<line x1="0" y1="276" x2="480" y2="276" stroke="currentColor" stroke-width="0.6" opacity="0.5"/>
<line x1="0" y1="284" x2="480" y2="284" stroke="currentColor" stroke-width="0.6" opacity="0.5"/>
<line x1="0" y1="292" x2="480" y2="292" stroke="currentColor" stroke-width="0.6" opacity="0.5"/>
<line x1="0" y1="300" x2="480" y2="300" stroke="currentColor" stroke-width="0.6" opacity="0.5"/>
<line x1="0" y1="308" x2="480" y2="308" stroke="currentColor" stroke-width="0.6" opacity="0.5"/>
<line x1="0" y1="316" x2="480" y2="316" stroke="currentColor" stroke-width="0.6" opacity="0.5"/>
<line x1="0" y1="324" x2="480" y2="324" stroke="currentColor" stroke-width="0.6" opacity="0.5"/>
<line x1="0" y1="332" x2="480" y2="332" stroke="currentColor" stroke-width="0.6" opacity="0.5"/>
<line x1="0" y1="340" x2="480" y2="340" stroke="currentColor" stroke-width="0.6" opacity="0.5"/>
<line x1="0" y1="348" x2="480" y2="348" stroke="currentColor" stroke-width="0.6" opacity="0.5"/>
<line x1="0" y1="356" x2="480" y2="356" stroke="currentColor" stroke-width="0.6" opacity="0.5"/>
<line x1="0" y1="364" x2="480" y2="364" stroke="currentColor" stroke-width="0.6" opacity="0.5"/>
<line x1="0" y1="372" x2="480" y2="372" stroke="currentColor" stroke-width="0.6" opacity="0.5"/>
<line x1="0" y1="380" x2="480" y2="380" stroke="currentColor" stroke-width="0.6" opacity="0.5"/>
<line x1="0" y1="388" x2="480" y2="388" stroke="currentColor" stroke-width="0.6" opacity="0.5"/>
<line x1="0" y1="396" x2="480" y2="396" stroke="currentColor" stroke-width="0.6" opacity="0.5"/>
<line x1="0" y1="404" x2="480" y2="404" stroke="currentColor" stroke-width="0.6" opacity="0.5"/>
<line x1="0" y1="412" x2="480" y2="412" stroke="currentColor" stroke-width="0.6" opacity="0.5"/>
<line x1="0" y1="420" x2="480" y2="420" stroke="currentColor" stroke-width="0.6" opacity="0.5"/>
<line x1="0" y1="428" x2="480" y2="428" stroke="currentColor" stroke-width="0.6" opacity="0.5"/>
<line x1="0" y1="436" x2="480" y2="436" stroke="currentColor" stroke-width="0.6" opacity="0.5"/>
<line x1="0" y1="444" x2="480" y2="444" stroke="currentColor" stroke-width="0.6" opacity="0.5"/>
<line x1="0" y1="452" x2="480" y2="452" stroke="currentColor" stroke-width="0.6" opacity="0.5"/>
<line x1="0" y1="460" x2="480" y2="460" stroke="currentColor" stroke-width="0.6" opacity="0.5"/>
<line x1="0" y1="468" x2="480" y2="468" stroke="currentColor" stroke-width="0.6" opacity="0.5"/>
<line x1="0" y1="476" x2="480" y2="476" stroke="currentColor" stroke-width="0.6" opacity="0.5"/>
</svg>
