<?xml version="1.0" encoding="UTF-8"?>
<svg xmlns="http://www.w3.org/2000/svg" viewBox="0 0 1440 900" fill="none">
  <rect width="1440" height="900" fill="#151515"/>
  <!-- horizontal lines: non-uniform (Retool hero spacing, scaled) -->
  <line x1="0" y1="25" x2="1440" y2="25" stroke="#E9EBDF" stroke-width="0.5" opacity="0.08"/>
<line x1="0" y1="65" x2="1440" y2="65" stroke="#E9EBDF" stroke-width="0.5" opacity="0.08"/>
<line x1="0" y1="115" x2="1440" y2="115" stroke="#E9EBDF" stroke-width="0.5" opacity="0.08"/>
<line x1="0" y1="190" x2="1440" y2="190" stroke="#E9EBDF" stroke-width="0.5" opacity="0.08"/>
<line x1="0" y1="310" x2="1440" y2="310" stroke="#E9EBDF" stroke-width="0.5" opacity="0.08"/>
<line x1="0" y1="500" x2="1440" y2="500" stroke="#E9EBDF" stroke-width="0.5" opacity="0.08"/>
  <!-- vertical columns: 31px grid (database page rhythm) -->
  <line x1="0" y1="0" x2="0" y2="900" stroke="#518DD2" stroke-width="0.3" opacity="0.07"/>
<line x1="66" y1="0" x2="66" y2="900" stroke="#518DD2" stroke-width="0.3" opacity="0.07"/>
<line x1="132" y1="0" x2="132" y2="900" stroke="#518DD2" stroke-width="0.3" opacity="0.07"/>
<line x1="198" y1="0" x2="198" y2="900" stroke="#518DD2" stroke-width="0.3" opacity="0.07"/>
<line x1="264" y1="0" x2="264" y2="900" stroke="#518DD2" stroke-width="0.3" opacity="0.07"/>
<line x1="330" y1="0" x2="330" y2="900" stroke="#518DD2" stroke-width="0.3" opacity="0.07"/>
<line x1="396" y1="0" x2="396" y2="900" stroke="#518DD2" stroke-width="0.3" opacity="0.07"/>
<line x1="462" y1="0" x2="462" y2="900" stroke="#518DD2" stroke-width="0.3" opacity="0.07"/>
<line x1="528" y1="0" x2="528" y2="900" stroke="#518DD2" stroke-width="0.3" opacity="0.07"/>
<line x1="594" y1="0" x2="594" y2="900" stroke="#518DD2" stroke-width="0.3" opacity="0.07"/>
<line x1="660" y1="0" x2="660" y2="900" stroke="#518DD2" stroke-width="0.3" opacity="0.07"/>
<line x1="726" y1="0" x2="726" y2="900" stroke="#518DD2" stroke-width="0.3" opacity="0.07"/>
<line x1="792" y1="0" x2="792" y2="900" stroke="#518DD2" stroke-width="0.3" opacity="0.07"/>
<line x1="858" y1="0" x2="858" y2="900" stroke="#518DD2" stroke-width="0.3" opacity="0.07"/>
<line x1="924" y1="0" x2="924" y2="900" stroke="#518DD2" stroke-width="0.3" opacity="0.07"/>
<line x1="990" y1="0" x2="990" y2="900" stroke="#518DD2" stroke-width="0.3" opacity="0.07"/>
<line x1="1056" y1="0" x2="1056" y2="900" stroke="#518DD2" stroke-width="0.3" opacity="0.07"/>
<line x1="1122" y1="0" x2="1122" y2="900" stroke="#518DD2" stroke-width="0.3" opacity="0.07"/>
<line x1="1188" y1="0" x2="1188" y2="900" stroke="#518DD2" stroke-width="0.3" opacity="0.07"/>
<line x1="1254" y1="0" x2="1254" y2="900" stroke="#518DD2" stroke-width="0.3" opacity="0.07"/>
<line x1="1320" y1="0" x2="1320" y2="900" stroke="#518DD2" stroke-width="0.3" opacity="0.07"/>
<line x1="1386" y1="0" x2="1386" y2="900" stroke="#518DD2" stroke-width="0.3" opacity="0.07"/>
  <!-- section separator at mid -->
  <line x1="0" y1="450" x2="1440" y2="450" stroke="#518DD2" stroke-width="0.8" opacity="0.15"/>
  <!-- outer boundary -->
  <rect x="40" y="0" width="1360" height="900" stroke="#518DD2" stroke-width="0.5" opacity="0.1" fill="none"/>
</svg>
