<?xml version="1.0" encoding="UTF-8"?>
<svg xmlns="http://www.w3.org/2000/svg" viewBox="0 0 1440 900" fill="none">
  <rect width="1440" height="900" fill="#151515"/>
  <line x1="0" y1="10" x2="1440" y2="10" stroke="#E9EBDF" stroke-width="0.6" opacity="0.12"/>
<line x1="0" y1="30" x2="1440" y2="30" stroke="#E9EBDF" stroke-width="0.25" opacity="0.05"/>
<line x1="0" y1="50" x2="1440" y2="50" stroke="#E9EBDF" stroke-width="0.25" opacity="0.05"/>
<line x1="0" y1="70" x2="1440" y2="70" stroke="#E9EBDF" stroke-width="0.25" opacity="0.05"/>
<line x1="0" y1="90" x2="1440" y2="90" stroke="#E9EBDF" stroke-width="0.25" opacity="0.05"/>
<line x1="0" y1="110" x2="1440" y2="110" stroke="#E9EBDF" stroke-width="0.6" opacity="0.12"/>
<line x1="0" y1="130" x2="1440" y2="130" stroke="#E9EBDF" stroke-width="0.25" opacity="0.05"/>
<line x1="0" y1="150" x2="1440" y2="150" stroke="#E9EBDF" stroke-width="0.25" opacity="0.05"/>
<line x1="0" y1="170" x2="1440" y2="170" stroke="#E9EBDF" stroke-width="0.25" opacity="0.05"/>
<line x1="0" y1="190" x2="1440" y2="190" stroke="#E9EBDF" stroke-width="0.25" opacity="0.05"/>
<line x1="0" y1="210" x2="1440" y2="210" stroke="#E9EBDF" stroke-width="0.6" opacity="0.12"/>
<line x1="0" y1="230" x2="1440" y2="230" stroke="#E9EBDF" stroke-width="0.25" opacity="0.05"/>
<line x1="0" y1="250" x2="1440" y2="250" stroke="#E9EBDF" stroke-width="0.25" opacity="0.05"/>
<line x1="0" y1="270" x2="1440" y2="270" stroke="#E9EBDF" stroke-width="0.25" opacity="0.05"/>
<line x1="0" y1="290" x2="1440" y2="290" stroke="#E9EBDF" stroke-width="0.25" opacity="0.05"/>
<line x1="0" y1="310" x2="1440" y2="310" stroke="#E9EBDF" stroke-width="0.6" opacity="0.12"/>
<line x1="0" y1="330" x2="1440" y2="330" stroke="#E9EBDF" stroke-width="0.25" opacity="0.05"/>
<line x1="0" y1="350" x2="1440" y2="350" stroke="#E9EBDF" stroke-width="0.25" opacity="0.05"/>
<line x1="0" y1="370" x2="1440" y2="370" stroke="#E9EBDF" stroke-width="0.25" opacity="0.05"/>
<line x1="0" y1="390" x2="1440" y2="390" stroke="#E9EBDF" stroke-width="0.25" opacity="0.05"/>
<line x1="0" y1="410" x2="1440" y2="410" stroke="#E9EBDF" stroke-width="0.6" opacity="0.12"/>
<line x1="0" y1="430" x2="1440" y2="430" stroke="#E9EBDF" stroke-width="0.25" opacity="0.05"/>
<line x1="0" y1="450" x2="1440" y2="450" stroke="#E9EBDF" stroke-width="0.25" opacity="0.05"/>
<line x1="0" y1="470" x2="1440" y2="470" stroke="#E9EBDF" stroke-width="0.25" opacity="0.05"/>
<line x1="0" y1="490" x2="1440" y2="490" stroke="#E9EBDF" stroke-width="0.25" opacity="0.05"/>
<line x1="0" y1="510" x2="1440" y2="510" stroke="#E9EBDF" stroke-width="0.6" opacity="0.12"/>
<line x1="0" y1="530" x2="1440" y2="530" stroke="#E9EBDF" stroke-width="0.25" opacity="0.05"/>
<line x1="0" y1="550" x2="1440" y2="550" stroke="#E9EBDF" stroke-width="0.25" opacity="0.05"/>
<line x1="0" y1="570" x2="1440" y2="570" stroke="#E9EBDF" stroke-width="0.25" opacity="0.05"/>
<line x1="0" y1="590" x2="1440" y2="590" stroke="#E9EBDF" stroke-width="0.25" opacity="0.05"/>
<line x1="0" y1="610" x2="1440" y2="610" stroke="#E9EBDF" stroke-width="0.6" opacity="0.12"/>
<line x1="0" y1="630" x2="1440" y2="630" stroke="#E9EBDF" stroke-width="0.25" opacity="0.05"/>
<line x1="0" y1="650" x2="1440" y2="650" stroke="#E9EBDF" stroke-width="0.25" opacity="0.05"/>
<line x1="0" y1="670" x2="1440" y2="670" stroke="#E9EBDF" stroke-width="0.25" opacity="0.05"/>
<line x1="0" y1="690" x2="1440" y2="690" stroke="#E9EBDF" stroke-width="0.25" opacity="0.05"/>
<line x1="0" y1="710" x2="1440" y2="710" stroke="#E9EBDF" stroke-width="0.6" opacity="0.12"/>
<line x1="0" y1="730" x2="1440" y2="730" stroke="#E9EBDF" stroke-width="0.25" opacity="0.05"/>
<line x1="0" y1="750" x2="1440" y2="750" stroke="#E9EBDF" stroke-width="0.25" opacity="0.05"/>
<line x1="0" y1="770" x2="1440" y2="770" stroke="#E9EBDF" stroke-width="0.25" opacity="0.05"/>
<line x1="0" y1="790" x2="1440" y2="790" stroke="#E9EBDF" stroke-width="0.25" opacity="0.05"/>
<line x1="0" y1="810" x2="1440" y2="810" stroke="#E9EBDF" stroke-width="0.6" opacity="0.12"/>
<line x1="0" y1="830" x2="1440" y2="830" stroke="#E9EBDF" stroke-width="0.25" opacity="0.05"/>
<line x1="0" y1="850" x2="1440" y2="850" stroke="#E9EBDF" stroke-width="0.25" opacity="0.05"/>
<line x1="0" y1="870" x2="1440" y2="870" stroke="#E9EBDF" stroke-width="0.25" opacity="0.05"/>
<line x1="0" y1="890" x2="1440" y2="890" stroke="#E9EBDF" stroke-width="0.25" opacity="0.05"/>
</svg>
