<?xml version="1.0" encoding="UTF-8"?>
<svg xmlns="http://www.w3.org/2000/svg" viewBox="0 0 1440 900" fill="none">
  <rect width="1440" height="900" fill="#0A0E18"/>
  <line x1="120" y1="0" x2="120" y2="900" stroke="#518DD2" stroke-width="1" opacity="0.2"/>
  <line x1="0" y1="32" x2="1440" y2="32" stroke="#518DD2" stroke-width="0.4" opacity="0.1"/>
<line x1="0" y1="64" x2="1440" y2="64" stroke="#518DD2" stroke-width="0.4" opacity="0.1"/>
<line x1="0" y1="96" x2="1440" y2="96" stroke="#518DD2" stroke-width="0.4" opacity="0.1"/>
<line x1="0" y1="128" x2="1440" y2="128" stroke="#518DD2" stroke-width="0.4" opacity="0.1"/>
<line x1="0" y1="160" x2="1440" y2="160" stroke="#518DD2" stroke-width="0.4" opacity="0.1"/>
<line x1="0" y1="192" x2="1440" y2="192" stroke="#518DD2" stroke-width="0.4" opacity="0.1"/>
<line x1="0" y1="224" x2="1440" y2="224" stroke="#518DD2" stroke-width="0.4" opacity="0.1"/>
<line x1="0" y1="256" x2="1440" y2="256" stroke="#518DD2" stroke-width="0.4" opacity="0.1"/>
<line x1="0" y1="288" x2="1440" y2="288" stroke="#518DD2" stroke-width="0.4" opacity="0.1"/>
<line x1="0" y1="320" x2="1440" y2="320" stroke="#518DD2" stroke-width="0.4" opacity="0.1"/>
<line x1="0" y1="352" x2="1440" y2="352" stroke="#518DD2" stroke-width="0.4" opacity="0.1"/>
<line x1="0" y1="384" x2="1440" y2="384" stroke="#518DD2" stroke-width="0.4" opacity="0.1"/>
<line x1="0" y1="416" x2="1440" y2="416" stroke="#518DD2" stroke-width="0.4" opacity="0.1"/>
<line x1="0" y1="448" x2="1440" y2="448" stroke="#518DD2" stroke-width="0.4" opacity="0.1"/>
<line x1="0" y1="480" x2="1440" y2="480" stroke="#518DD2" stroke-width="0.4" opacity="0.1"/>
<line x1="0" y1="512" x2="1440" y2="512" stroke="#518DD2" stroke-width="0.4" opacity="0.1"/>
<line x1="0" y1="544" x2="1440" y2="544" stroke="#518DD2" stroke-width="0.4" opacity="0.1"/>
<line x1="0" y1="576" x2="1440" y2="576" stroke="#518DD2" stroke-width="0.4" opacity="0.1"/>
<line x1="0" y1="608" x2="1440" y2="608" stroke="#518DD2" stroke-width="0.4" opacity="0.1"/>
<line x1="0" y1="640" x2="1440" y2="640" stroke="#518DD2" stroke-width="0.4" opacity="0.1"/>
<line x1="0" y1="672" x2="1440" y2="672" stroke="#518DD2" stroke-width="0.4" opacity="0.1"/>
<line x1="0" y1="704" x2="1440" y2="704" stroke="#518DD2" stroke-width="0.4" opacity="0.1"/>
<line x1="0" y1="736" x2="1440" y2="736" stroke="#518DD2" stroke-width="0.4" opacity="0.1"/>
<line x1="0" y1="768" x2="1440" y2="768" stroke="#518DD2" stroke-width="0.4" opacity="0.1"/>
<line x1="0" y1="800" x2="1440" y2="800" stroke="#518DD2" stroke-width="0.4" opacity="0.1"/>
<line x1="0" y1="832" x2="1440" y2="832" stroke="#518DD2" stroke-width="0.4" opacity="0.1"/>
<line x1="0" y1="864" x2="1440" y2="864" stroke="#518DD2" stroke-width="0.4" opacity="0.1"/>
<line x1="0" y1="896" x2="1440" y2="896" stroke="#518DD2" stroke-width="0.4" opacity="0.1"/>
</svg>
