<?xml version="1.0" encoding="UTF-8"?>
<svg xmlns="http://www.w3.org/2000/svg" viewBox="0 0 480 480" fill="none" stroke="currentColor" stroke-width="0.6">
<line x1="240" y1="240" x2="480.0" y2="240.0"/>
  <line x1="240" y1="240" x2="471.8" y2="302.1"/>
  <line x1="240" y1="240" x2="447.8" y2="360.0"/>
  <line x1="240" y1="240" x2="409.7" y2="409.7"/>
  <line x1="240" y1="240" x2="360.0" y2="447.8"/>
  <line x1="240" y1="240" x2="302.1" y2="471.8"/>
  <line x1="240" y1="240" x2="240.0" y2="480.0"/>
  <line x1="240" y1="240" x2="177.9" y2="471.8"/>
  <line x1="240" y1="240" x2="120.0" y2="447.8"/>
  <line x1="240" y1="240" x2="70.3" y2="409.7"/>
  <line x1="240" y1="240" x2="32.2" y2="360.0"/>
  <line x1="240" y1="240" x2="8.2" y2="302.1"/>
  <line x1="240" y1="240" x2="0.0" y2="240.0"/>
  <line x1="240" y1="240" x2="8.2" y2="177.9"/>
  <line x1="240" y1="240" x2="32.2" y2="120.0"/>
  <line x1="240" y1="240" x2="70.3" y2="70.3"/>
  <line x1="240" y1="240" x2="120.0" y2="32.2"/>
  <line x1="240" y1="240" x2="177.9" y2="8.2"/>
  <line x1="240" y1="240" x2="240.0" y2="0.0"/>
  <line x1="240" y1="240" x2="302.1" y2="8.2"/>
  <line x1="240" y1="240" x2="360.0" y2="32.2"/>
  <line x1="240" y1="240" x2="409.7" y2="70.3"/>
  <line x1="240" y1="240" x2="447.8" y2="120.0"/>
  <line x1="240" y1="240" x2="471.8" y2="177.9"/>
</svg>
