<?xml version="1.0" encoding="UTF-8"?>
<svg xmlns="http://www.w3.org/2000/svg" viewBox="0 0 480 480" fill="none" stroke="currentColor" stroke-width="0.7">
<line x1="0" y1="480" x2="480.0" y2="480.0"/>
  <line x1="0" y1="480" x2="478.2" y2="438.2"/>
  <line x1="0" y1="480" x2="472.7" y2="396.6"/>
  <line x1="0" y1="480" x2="463.6" y2="355.8"/>
  <line x1="0" y1="480" x2="451.1" y2="315.8"/>
  <line x1="0" y1="480" x2="435.0" y2="277.1"/>
  <line x1="0" y1="480" x2="415.7" y2="240.0"/>
  <line x1="0" y1="480" x2="393.2" y2="204.7"/>
  <line x1="0" y1="480" x2="367.7" y2="171.5"/>
  <line x1="0" y1="480" x2="339.4" y2="140.6"/>
  <line x1="0" y1="480" x2="308.5" y2="112.3"/>
  <line x1="0" y1="480" x2="275.3" y2="86.8"/>
  <line x1="0" y1="480" x2="240.0" y2="64.3"/>
  <line x1="0" y1="480" x2="202.9" y2="45.0"/>
  <line x1="0" y1="480" x2="164.2" y2="28.9"/>
  <line x1="0" y1="480" x2="124.2" y2="16.4"/>
  <line x1="0" y1="480" x2="83.4" y2="7.3"/>
  <line x1="0" y1="480" x2="41.8" y2="1.8"/>
</svg>
