<?xml version="1.0" encoding="UTF-8"?>
<svg xmlns="http://www.w3.org/2000/svg" viewBox="0 0 480 480" fill="none" >
<line x1="0" y1="0" x2="480" y2="0" stroke="currentColor" stroke-width="0.5" opacity="0.25"/>
<line x1="0" y1="12" x2="480" y2="12" stroke="currentColor" stroke-width="0.5" opacity="0.08"/>
<line x1="0" y1="24" x2="480" y2="24" stroke="currentColor" stroke-width="0.5" opacity="0.08"/>
<line x1="0" y1="36" x2="480" y2="36" stroke="currentColor" stroke-width="0.5" opacity="0.08"/>
<line x1="0" y1="48" x2="480" y2="48" stroke="currentColor" stroke-width="0.5" opacity="0.25"/>
<line x1="0" y1="60" x2="480" y2="60" stroke="currentColor" stroke-width="0.5" opacity="0.08"/>
<line x1="0" y1="72" x2="480" y2="72" stroke="currentColor" stroke-width="0.5" opacity="0.08"/>
<line x1="0" y1="84" x2="480" y2="84" stroke="currentColor" stroke-width="0.5" opacity="0.08"/>
<line x1="0" y1="96" x2="480" y2="96" stroke="currentColor" stroke-width="0.5" opacity="0.25"/>
<line x1="0" y1="108" x2="480" y2="108" stroke="currentColor" stroke-width="0.5" opacity="0.08"/>
<line x1="0" y1="120" x2="480" y2="120" stroke="currentColor" stroke-width="0.5" opacity="0.08"/>
<line x1="0" y1="132" x2="480" y2="132" stroke="currentColor" stroke-width="0.5" opacity="0.08"/>
<line x1="0" y1="144" x2="480" y2="144" stroke="currentColor" stroke-width="0.5" opacity="0.25"/>
<line x1="0" y1="156" x2="480" y2="156" stroke="currentColor" stroke-width="0.5" opacity="0.08"/>
<line x1="0" y1="168" x2="480" y2="168" stroke="currentColor" stroke-width="0.5" opacity="0.08"/>
<line x1="0" y1="180" x2="480" y2="180" stroke="currentColor" stroke-width="0.5" opacity="0.08"/>
<line x1="0" y1="192" x2="480" y2="192" stroke="currentColor" stroke-width="0.5" opacity="0.25"/>
<line x1="0" y1="204" x2="480" y2="204" stroke="currentColor" stroke-width="0.5" opacity="0.08"/>
<line x1="0" y1="216" x2="480" y2="216" stroke="currentColor" stroke-width="0.5" opacity="0.08"/>
<line x1="0" y1="228" x2="480" y2="228" stroke="currentColor" stroke-width="0.5" opacity="0.08"/>
<line x1="0" y1="240" x2="480" y2="240" stroke="currentColor" stroke-width="0.5" opacity="0.25"/>
<line x1="0" y1="252" x2="480" y2="252" stroke="currentColor" stroke-width="0.5" opacity="0.08"/>
<line x1="0" y1="264" x2="480" y2="264" stroke="currentColor" stroke-width="0.5" opacity="0.08"/>
<line x1="0" y1="276" x2="480" y2="276" stroke="currentColor" stroke-width="0.5" opacity="0.08"/>
<line x1="0" y1="288" x2="480" y2="288" stroke="currentColor" stroke-width="0.5" opacity="0.25"/>
<line x1="0" y1="300" x2="480" y2="300" stroke="currentColor" stroke-width="0.5" opacity="0.08"/>
<line x1="0" y1="312" x2="480" y2="312" stroke="currentColor" stroke-width="0.5" opacity="0.08"/>
<line x1="0" y1="324" x2="480" y2="324" stroke="currentColor" stroke-width="0.5" opacity="0.08"/>
<line x1="0" y1="336" x2="480" y2="336" stroke="currentColor" stroke-width="0.5" opacity="0.25"/>
<line x1="0" y1="348" x2="480" y2="348" stroke="currentColor" stroke-width="0.5" opacity="0.08"/>
<line x1="0" y1="360" x2="480" y2="360" stroke="currentColor" stroke-width="0.5" opacity="0.08"/>
<line x1="0" y1="372" x2="480" y2="372" stroke="currentColor" stroke-width="0.5" opacity="0.08"/>
<line x1="0" y1="384" x2="480" y2="384" stroke="currentColor" stroke-width="0.5" opacity="0.25"/>
<line x1="0" y1="396" x2="480" y2="396" stroke="currentColor" stroke-width="0.5" opacity="0.08"/>
<line x1="0" y1="408" x2="480" y2="408" stroke="currentColor" stroke-width="0.5" opacity="0.08"/>
<line x1="0" y1="420" x2="480" y2="420" stroke="currentColor" stroke-width="0.5" opacity="0.08"/>
<line x1="0" y1="432" x2="480" y2="432" stroke="currentColor" stroke-width="0.5" opacity="0.25"/>
<line x1="0" y1="444" x2="480" y2="444" stroke="currentColor" stroke-width="0.5" opacity="0.08"/>
<line x1="0" y1="456" x2="480" y2="456" stroke="currentColor" stroke-width="0.5" opacity="0.08"/>
<line x1="0" y1="468" x2="480" y2="468" stroke="currentColor" stroke-width="0.5" opacity="0.08"/>
</svg>
