<?xml version="1.0" encoding="UTF-8"?>
<svg xmlns="http://www.w3.org/2000/svg" viewBox="0 0 480 480" fill="none" >
<line x1="0" y1="0" x2="0" y2="480" stroke="currentColor" stroke-width="1.5" opacity="0.7"/>
<line x1="12" y1="0" x2="12" y2="480" stroke="currentColor" stroke-width="0.4" opacity="0.15"/>
<line x1="24" y1="0" x2="24" y2="480" stroke="currentColor" stroke-width="0.4" opacity="0.15"/>
<line x1="36" y1="0" x2="36" y2="480" stroke="currentColor" stroke-width="0.4" opacity="0.15"/>
<line x1="48" y1="0" x2="48" y2="480" stroke="currentColor" stroke-width="0.4" opacity="0.15"/>
<line x1="60" y1="0" x2="60" y2="480" stroke="currentColor" stroke-width="0.4" opacity="0.15"/>
<line x1="0" y1="20" x2="480" y2="20" stroke="currentColor" stroke-width="0.3" opacity="0.1"/>
<line x1="0" y1="60" x2="480" y2="60" stroke="currentColor" stroke-width="0.3" opacity="0.1"/>
<line x1="0" y1="100" x2="480" y2="100" stroke="currentColor" stroke-width="0.3" opacity="0.1"/>
<line x1="0" y1="140" x2="480" y2="140" stroke="currentColor" stroke-width="0.3" opacity="0.1"/>
<line x1="0" y1="180" x2="480" y2="180" stroke="currentColor" stroke-width="0.3" opacity="0.1"/>
<line x1="0" y1="220" x2="480" y2="220" stroke="currentColor" stroke-width="0.3" opacity="0.1"/>
<line x1="0" y1="260" x2="480" y2="260" stroke="currentColor" stroke-width="0.3" opacity="0.1"/>
<line x1="0" y1="300" x2="480" y2="300" stroke="currentColor" stroke-width="0.3" opacity="0.1"/>
<line x1="0" y1="340" x2="480" y2="340" stroke="currentColor" stroke-width="0.3" opacity="0.1"/>
<line x1="0" y1="380" x2="480" y2="380" stroke="currentColor" stroke-width="0.3" opacity="0.1"/>
<line x1="0" y1="420" x2="480" y2="420" stroke="currentColor" stroke-width="0.3" opacity="0.1"/>
<line x1="0" y1="460" x2="480" y2="460" stroke="currentColor" stroke-width="0.3" opacity="0.1"/>
</svg>
