<?xml version="1.0" encoding="UTF-8"?>
<svg xmlns="http://www.w3.org/2000/svg" viewBox="0 0 480 480" fill="none" stroke="currentColor" >

  <path d="M440.0 240.0 L439.3 244.2 L437.0 248.3 L433.3 252.2 L428.2 255.8 L421.7 259.1 L413.9 262.0 L404.8 264.3 L394.5 266.1 L383.2 267.3 L370.9 267.8 L357.7 267.6 L343.8 266.7 L329.2 264.9 L314.2 262.4 L298.8 259.1 L283.1 255.0 L267.4 250.2 L251.7 244.6 L236.1 238.4 L220.9 231.5 L206.1 224.0 L191.8 216.1 L178.2 207.7 L165.4 199.0 L153.4 190.0 L142.4 180.9 L132.4 171.7 L123.4 162.6 L115.7 153.6 L109.1 144.9 L103.7 136.6 L99.6 128.7 L96.7 121.5 L95.1 114.9 L94.6 109.1 L95.4 104.2 L97.2 100.2 L100.2 97.2 L104.2 95.4 L109.1 94.6 L114.9 95.1 L121.5 96.7 L128.7 99.6 L136.6 103.7 L144.9 109.1 L153.6 115.7 L162.6 123.4 L171.7 132.4 L180.9 142.4 L190.0 153.4 L199.0 165.4 L207.7 178.2 L216.1 191.8 L224.0 206.1 L231.5 220.9 L238.4 236.1 L244.6 251.7 L250.2 267.4 L255.0 283.1 L259.1 298.8 L262.4 314.2 L264.9 329.2 L266.7 343.8 L267.6 357.7 L267.8 370.9 L267.3 383.2 L266.1 394.5 L264.3 404.8 L262.0 413.9 L259.1 421.7 L255.8 428.2 L252.2 433.3 L248.3 437.0 L244.2 439.3 L240.0 440.0 L235.8 439.3 L231.7 437.0 L227.8 433.3 L224.2 428.2 L220.9 421.7 L218.0 413.9 L215.7 404.8 L213.9 394.5 L212.7 383.2 L212.2 370.9 L212.4 357.7 L213.3 343.8 L215.1 329.2 L217.6 314.2 L220.9 298.8 L225.0 283.1 L229.8 267.4 L235.4 251.7 L241.6 236.1 L248.5 220.9 L256.0 206.1 L263.9 191.8 L272.3 178.2 L281.0 165.4 L290.0 153.4 L299.1 142.4 L308.3 132.4 L317.4 123.4 L326.4 115.7 L335.1 109.1 L343.4 103.7 L351.3 99.6 L358.5 96.7 L365.1 95.1 L370.9 94.6 L375.8 95.4 L379.8 97.2 L382.8 100.2 L384.6 104.2 L385.4 109.1 L384.9 114.9 L383.3 121.5 L380.4 128.7 L376.3 136.6 L370.9 144.9 L364.3 153.6 L356.6 162.6 L347.6 171.7 L337.6 180.9 L326.6 190.0 L314.6 199.0 L301.8 207.7 L288.2 216.1 L273.9 224.0 L259.1 231.5 L243.9 238.4 L228.3 244.6 L212.6 250.2 L196.9 255.0 L181.2 259.1 L165.8 262.4 L150.8 264.9 L136.2 266.7 L122.3 267.6 L109.1 267.8 L96.8 267.3 L85.5 266.1 L75.2 264.3 L66.1 262.0 L58.3 259.1 L51.8 255.8 L46.7 252.2 L43.0 248.3 L40.7 244.2 L40.0 240.0 L40.7 235.8 L43.0 231.7 L46.7 227.8 L51.8 224.2 L58.3 220.9 L66.1 218.0 L75.2 215.7 L85.5 213.9 L96.8 212.7 L109.1 212.2 L122.3 212.4 L136.2 213.3 L150.8 215.1 L165.8 217.6 L181.2 220.9 L196.9 225.0 L212.6 229.8 L228.3 235.4 L243.9 241.6 L259.1 248.5 L273.9 256.0 L288.2 263.9 L301.8 272.3 L314.6 281.0 L326.6 290.0 L337.6 299.1 L347.6 308.3 L356.6 317.4 L364.3 326.4 L370.9 335.1 L376.3 343.4 L380.4 351.3 L383.3 358.5 L384.9 365.1 L385.4 370.9 L384.6 375.8 L382.8 379.8 L379.8 382.8 L375.8 384.6 L370.9 385.4 L365.1 384.9 L358.5 383.3 L351.3 380.4 L343.4 376.3 L335.1 370.9 L326.4 364.3 L317.4 356.6 L308.3 347.6 L299.1 337.6 L290.0 326.6 L281.0 314.6 L272.3 301.8 L263.9 288.2 L256.0 273.9 L248.5 259.1 L241.6 243.9 L235.4 228.3 L229.8 212.6 L225.0 196.9 L220.9 181.2 L217.6 165.8 L215.1 150.8 L213.3 136.2 L212.4 122.3 L212.2 109.1 L212.7 96.8 L213.9 85.5 L215.7 75.2 L218.0 66.1 L220.9 58.3 L224.2 51.8 L227.8 46.7 L231.7 43.0 L235.8 40.7 L240.0 40.0 L244.2 40.7 L248.3 43.0 L252.2 46.7 L255.8 51.8 L259.1 58.3 L262.0 66.1 L264.3 75.2 L266.1 85.5 L267.3 96.8 L267.8 109.1 L267.6 122.3 L266.7 136.2 L264.9 150.8 L262.4 165.8 L259.1 181.2 L255.0 196.9 L250.2 212.6 L244.6 228.3 L238.4 243.9 L231.5 259.1 L224.0 273.9 L216.1 288.2 L207.7 301.8 L199.0 314.6 L190.0 326.6 L180.9 337.6 L171.7 347.6 L162.6 356.6 L153.6 364.3 L144.9 370.9 L136.6 376.3 L128.7 380.4 L121.5 383.3 L114.9 384.9 L109.1 385.4 L104.2 384.6 L100.2 382.8 L97.2 379.8 L95.4 375.8 L94.6 370.9 L95.1 365.1 L96.7 358.5 L99.6 351.3 L103.7 343.4 L109.1 335.1 L115.7 326.4 L123.4 317.4 L132.4 308.3 L142.4 299.1 L153.4 290.0 L165.4 281.0 L178.2 272.3 L191.8 263.9 L206.1 256.0 L220.9 248.5 L236.1 241.6 L251.7 235.4 L267.4 229.8 L283.1 225.0 L298.8 220.9 L314.2 217.6 L329.2 215.1 L343.8 213.3 L357.7 212.4 L370.9 212.2 L383.2 212.7 L394.5 213.9 L404.8 215.7 L413.9 218.0 L421.7 220.9 L428.2 224.2 L433.3 227.8 L437.0 231.7 L439.3 235.8Z" stroke-width="1"/>

</svg>
