<?xml version="1.0" encoding="UTF-8"?>
<svg xmlns="http://www.w3.org/2000/svg" viewBox="0 0 480 480" fill="none" stroke="currentColor" >
<path d="M240.0 240.0 L240.7 240.0 L241.5 240.1 L242.2 240.3 L242.9 240.6 L243.6 240.9 L244.3 241.3 L244.9 241.8 L245.5 242.3 L246.1 242.9 L246.6 243.6 L247.0 244.3 L247.4 245.1 L247.8 245.9 L248.0 246.8 L248.2 247.7 L248.4 248.6 L248.4 249.6 L248.4 250.6 L248.3 251.6 L248.1 252.6 L247.8 253.7 L247.5 254.7 L247.0 255.7 L246.5 256.8 L245.9 257.8 L245.2 258.8 L244.4 259.8 L243.6 260.7 L242.6 261.6 L241.6 262.4 L240.5 263.2 L239.3 264.0 L238.0 264.7 L236.7 265.3 L235.3 265.8 L233.9 266.3 L232.4 266.7 L230.8 267.0 L229.2 267.2 L227.5 267.3 L225.8 267.3 L224.1 267.2 L222.3 267.0 L220.6 266.7 L218.8 266.3 L217.0 265.7 L215.2 265.1 L213.5 264.3 L211.7 263.4 L210.0 262.4 L208.3 261.3 L206.6 260.1 L205.0 258.8 L203.4 257.3 L201.9 255.7 L200.4 254.1 L199.1 252.3 L197.8 250.4 L196.6 248.4 L195.5 246.4 L194.4 244.2 L193.5 241.9 L192.8 239.6 L192.1 237.2 L191.5 234.7 L191.1 232.2 L190.8 229.6 L190.7 227.0 L190.7 224.3 L190.8 221.6 L191.1 218.9 L191.6 216.1 L192.2 213.3 L192.9 210.6 L193.8 207.8 L194.9 205.1 L196.1 202.4 L197.5 199.8 L199.1 197.2 L200.8 194.6 L202.6 192.1 L204.6 189.7 L206.8 187.3 L209.1 185.1 L211.6 182.9 L214.1 180.9 L216.9 179.0 L219.7 177.2 L222.7 175.5 L225.8 174.0 L229.0 172.6 L232.3 171.4 L235.7 170.4 L239.1 169.5 L242.7 168.8 L246.3 168.3 L250.0 167.9 L253.7 167.8 L257.5 167.8 L261.3 168.1 L265.1 168.5 L268.9 169.2 L272.7 170.0 L276.5 171.1 L280.3 172.4 L284.1 173.8 L287.8 175.5 L291.4 177.4 L295.0 179.5 L298.5 181.8 L301.9 184.3 L305.1 187.0 L308.3 189.9 L311.4 192.9 L314.3 196.2 L317.0 199.6 L319.6 203.2 L322.1 206.9 L324.3 210.8 L326.4 214.9 L328.3 219.0 L330.0 223.3 L331.4 227.7 L332.7 232.3 L333.7 236.9 L334.5 241.6 L335.0 246.4 L335.3 251.2 L335.4 256.1 L335.2 261.0 L334.8 265.9 L334.1 270.8 L333.1 275.8 L331.9 280.7 L330.4 285.6 L328.7 290.4 L326.7 295.2 L324.4 299.9 L321.9 304.5 L319.2 309.0 L316.2 313.4 L312.9 317.6 L309.4 321.8 L305.7 325.7 L301.8 329.5 L297.6 333.1 L293.2 336.5 L288.7 339.8 L283.9 342.8 L279.0 345.5 L273.9 348.1 L268.6 350.3 L263.2 352.4 L257.7 354.1 L252.1 355.6 L246.3 356.8 L240.5 357.7 L234.5 358.4 L228.6 358.7 L222.5 358.7 L216.5 358.4 L210.4 357.8 L204.3 356.9 L198.3 355.7 L192.3 354.2 L186.3 352.3 L180.4 350.2 L174.6 347.7 L168.8 344.9 L163.2 341.8 L157.8 338.4 L152.4 334.7 L147.3 330.8 L142.3 326.5 L137.5 322.0 L132.9 317.2 L128.6 312.2 L124.5 306.9 L120.6 301.4 L117.0 295.6 L113.7 289.7 L110.6 283.6 L107.9 277.2 L105.5 270.8 L103.4 264.1 L101.6 257.4 L100.1 250.5 L99.0 243.5 L98.3 236.4 L97.9 229.3 L97.9 222.1 L98.2 214.9 L98.9 207.7 L100.0 200.5 L101.4 193.3 L103.2 186.1 L105.4 179.0 L108.0 172.1 L110.9 165.2 L114.1 158.4 L117.8 151.8 L121.7 145.3 L126.1 139.0 L130.7 132.9 L135.7 127.0 L141.0 121.4 L146.6 116.0 L152.5 110.9 L158.7 106.0 L165.1 101.4 L171.8 97.2 L178.7 93.3 L185.9 89.7 L193.2 86.5 L200.8 83.6 L208.5 81.1 L216.4 79.0 L224.4 77.2 L232.5 75.9 L240.7 75.0 L249.0 74.5 L257.4 74.4 L265.7 74.7 L274.1 75.5 L282.5 76.7 L290.8 78.3 L299.1 80.3 L307.3 82.8 L315.4 85.7 L323.4 89.0 L331.2 92.7 L338.9 96.8 L346.4 101.4 L353.7 106.3 L360.7 111.6 L367.5 117.2 L374.1 123.3 L380.3 129.7 L386.3 136.4 L391.9 143.4 L397.2 150.8 L402.1 158.4 L406.7 166.3 L410.9 174.4 L414.6 182.8 L418.0 191.4 L420.9 200.2 L423.4 209.2 L425.5 218.3 L427.1 227.6 L428.2 236.9 L428.9 246.4 L429.1 255.9 L428.8 265.4 L428.0 274.9 L426.8 284.4 L425.0 293.9 L422.8 303.4 L420.1 312.7 L417.0 321.9 L413.3 331.0 L409.2 340.0 L404.6 348.7 L399.6 357.2 L394.1 365.5 L388.2 373.6 L381.8 381.3 L375.1 388.8 L368.0 396.0 L360.5 402.8 L352.6 409.2 L344.4 415.3 L335.8 420.9 L327.0 426.2 L317.9 431.0 L308.5 435.3 L298.8 439.2 L289.0 442.7 L278.9 445.6 L268.7 448.0 L258.3 449.9 L247.9 451.4 L237.3 452.2 L226.6 452.6 L215.9 452.4 L205.2 451.7 L194.5 450.4 L183.9 448.6 L173.3 446.2 L162.8 443.3 L152.4 439.9 L142.2 436.0 L132.2 431.5 L122.3 426.5 L112.7 421.0 L103.4 415.0 L94.3 408.5 L85.6 401.6 L77.1 394.2" stroke-width="1"/>
</svg>
