<?xml version="1.0" encoding="UTF-8"?>
<svg xmlns="http://www.w3.org/2000/svg" viewBox="0 0 480 480" fill="none" stroke="currentColor" stroke-width="1">
<rect x="20" y="20" width="80" height="80" rx="22" ry="22"/>
  <rect x="140" y="20" width="80" height="80" rx="22" ry="22"/>
  <rect x="260" y="20" width="80" height="80" rx="22" ry="22"/>
  <rect x="380" y="20" width="80" height="80" rx="22" ry="22"/>
  <rect x="20" y="140" width="80" height="80" rx="22" ry="22"/>
  <rect x="140" y="140" width="80" height="80" rx="22" ry="22"/>
  <rect x="260" y="140" width="80" height="80" rx="22" ry="22"/>
  <rect x="380" y="140" width="80" height="80" rx="22" ry="22"/>
  <rect x="20" y="260" width="80" height="80" rx="22" ry="22"/>
  <rect x="140" y="260" width="80" height="80" rx="22" ry="22"/>
  <rect x="260" y="260" width="80" height="80" rx="22" ry="22"/>
  <rect x="380" y="260" width="80" height="80" rx="22" ry="22"/>
  <rect x="20" y="380" width="80" height="80" rx="22" ry="22"/>
  <rect x="140" y="380" width="80" height="80" rx="22" ry="22"/>
  <rect x="260" y="380" width="80" height="80" rx="22" ry="22"/>
  <rect x="380" y="380" width="80" height="80" rx="22" ry="22"/>
</svg>
