<?xml version="1.0" encoding="UTF-8"?>
<svg xmlns="http://www.w3.org/2000/svg" viewBox="0 0 480 480" fill="none" stroke="currentColor" >
<polygon points="300.0,240.0 396.9,271.2 295.4,263.0 373.0,328.9 282.4,282.4 328.9,373.0 263.0,295.4 271.2,396.9 240.0,300.0 208.8,396.9 217.0,295.4 151.1,373.0 197.6,282.4 107.0,328.9 184.6,263.0 83.1,271.2 180.0,240.0 83.1,208.8 184.6,217.0 107.0,151.1 197.6,197.6 151.1,107.0 217.0,184.6 208.8,83.1 240.0,180.0 271.2,83.1 263.0,184.6 328.9,107.0 282.4,197.6 373.0,151.1 295.4,217.0 396.9,208.8" stroke-width="0.8"/>
   <circle cx="240" cy="240" r="30" stroke-width="0.8"/>
</svg>
