<?xml version="1.0" encoding="UTF-8"?>
<svg xmlns="http://www.w3.org/2000/svg" viewBox="0 0 480 480" fill="none" stroke="currentColor" >
<path d="M330.0 240.0 L329.7 247.1 L328.9 254.1 L327.5 261.0 L325.6 267.8 L323.1 274.4 L320.2 280.9 L316.7 287.0 L312.8 292.9 L308.4 298.5 L303.6 303.6 L298.5 308.4 L292.9 312.8 L287.0 316.7 L280.9 320.2 L274.4 323.1 L267.8 325.6 L261.0 327.5 L254.1 328.9 L247.1 329.7 L240.0 330.0 L232.9 329.7 L225.9 328.9 L219.0 327.5 L212.2 325.6 L205.6 323.1 L199.1 320.2 L193.0 316.7 L187.1 312.8 L181.5 308.4 L176.4 303.6 L171.6 298.5 L167.2 292.9 L163.3 287.0 L159.8 280.9 L156.9 274.4 L154.4 267.8 L152.5 261.0 L151.1 254.1 L150.3 247.1 L150.0 240.0 L150.3 232.9 L151.1 225.9 L152.5 219.0 L154.4 212.2 L156.9 205.6 L159.8 199.1 L163.3 193.0 L167.2 187.1 L171.6 181.5 L176.4 176.4 L181.5 171.6 L187.1 167.2 L193.0 163.3 L199.1 159.8 L205.6 156.9 L212.2 154.4 L219.0 152.5 L225.9 151.1 L232.9 150.3 L240.0 150.0 L247.1 150.3 L254.1 151.1 L261.0 152.5 L267.8 154.4 L274.4 156.9 L280.9 159.8 L287.0 163.3 L292.9 167.2 L298.5 171.6 L303.6 176.4 L308.4 181.5 L312.8 187.1 L316.7 193.0 L320.2 199.1 L323.1 205.6 L325.6 212.2 L327.5 219.0 L328.9 225.9 L329.7 232.9Z" stroke-width="0.8" opacity="0.9"/>
  <path d="M316.0 240.0 L315.8 249.9 L315.3 257.2 L314.3 263.7 L313.0 269.7 L311.3 275.2 L309.3 280.4 L306.9 285.2 L304.1 289.7 L301.0 293.8 L297.6 297.6 L293.8 301.0 L289.7 304.1 L285.2 306.9 L280.4 309.3 L275.2 311.3 L269.7 313.0 L263.7 314.3 L257.2 315.3 L249.9 315.8 L240.0 316.0 L230.1 315.8 L222.8 315.3 L216.3 314.3 L210.3 313.0 L204.8 311.3 L199.6 309.3 L194.8 306.9 L190.3 304.1 L186.2 301.0 L182.4 297.6 L179.0 293.8 L175.9 289.7 L173.1 285.2 L170.7 280.4 L168.7 275.2 L167.0 269.7 L165.7 263.7 L164.7 257.2 L164.2 249.9 L164.0 240.0 L164.2 230.1 L164.7 222.8 L165.7 216.3 L167.0 210.3 L168.7 204.8 L170.7 199.6 L173.1 194.8 L175.9 190.3 L179.0 186.2 L182.4 182.4 L186.2 179.0 L190.3 175.9 L194.8 173.1 L199.6 170.7 L204.8 168.7 L210.3 167.0 L216.3 165.7 L222.8 164.7 L230.1 164.2 L240.0 164.0 L249.9 164.2 L257.2 164.7 L263.7 165.7 L269.7 167.0 L275.2 168.7 L280.4 170.7 L285.2 173.1 L289.7 175.9 L293.8 179.0 L297.6 182.4 L301.0 186.2 L304.1 190.3 L306.9 194.8 L309.3 199.6 L311.3 204.8 L313.0 210.3 L314.3 216.3 L315.3 222.8 L315.8 230.1Z" stroke-width="0.8" opacity="0.8"/>
  <path d="M302.0 240.0 L301.9 251.4 L301.5 258.0 L300.9 263.5 L300.0 268.3 L298.8 272.7 L297.4 276.6 L295.7 280.2 L293.8 283.5 L291.7 286.5 L289.2 289.2 L286.5 291.7 L283.5 293.8 L280.2 295.7 L276.6 297.4 L272.7 298.8 L268.3 300.0 L263.5 300.9 L258.0 301.5 L251.4 301.9 L240.0 302.0 L228.6 301.9 L222.0 301.5 L216.5 300.9 L211.7 300.0 L207.3 298.8 L203.4 297.4 L199.8 295.7 L196.5 293.8 L193.5 291.7 L190.8 289.2 L188.3 286.5 L186.2 283.5 L184.3 280.2 L182.6 276.6 L181.2 272.7 L180.0 268.3 L179.1 263.5 L178.5 258.0 L178.1 251.4 L178.0 240.0 L178.1 228.6 L178.5 222.0 L179.1 216.5 L180.0 211.7 L181.2 207.3 L182.6 203.4 L184.3 199.8 L186.2 196.5 L188.3 193.5 L190.8 190.8 L193.5 188.3 L196.5 186.2 L199.8 184.3 L203.4 182.6 L207.3 181.2 L211.7 180.0 L216.5 179.1 L222.0 178.5 L228.6 178.1 L240.0 178.0 L251.4 178.1 L258.0 178.5 L263.5 179.1 L268.3 180.0 L272.7 181.2 L276.6 182.6 L280.2 184.3 L283.5 186.2 L286.5 188.3 L289.2 190.8 L291.7 193.5 L293.8 196.5 L295.7 199.8 L297.4 203.4 L298.8 207.3 L300.0 211.7 L300.9 216.5 L301.5 222.0 L301.9 228.6Z" stroke-width="0.8" opacity="0.7"/>
  <path d="M288.0 240.0 L287.9 253.4 L287.7 259.0 L287.3 263.2 L286.8 266.7 L286.1 269.7 L285.3 272.3 L284.3 274.7 L283.2 276.8 L281.9 278.7 L280.4 280.4 L278.7 281.9 L276.8 283.2 L274.7 284.3 L272.3 285.3 L269.7 286.1 L266.7 286.8 L263.2 287.3 L259.0 287.7 L253.4 287.9 L240.0 288.0 L226.6 287.9 L221.0 287.7 L216.8 287.3 L213.3 286.8 L210.3 286.1 L207.7 285.3 L205.3 284.3 L203.2 283.2 L201.3 281.9 L199.6 280.4 L198.1 278.7 L196.8 276.8 L195.7 274.7 L194.7 272.3 L193.9 269.7 L193.2 266.7 L192.7 263.2 L192.3 259.0 L192.1 253.4 L192.0 240.0 L192.1 226.6 L192.3 221.0 L192.7 216.8 L193.2 213.3 L193.9 210.3 L194.7 207.7 L195.7 205.3 L196.8 203.2 L198.1 201.3 L199.6 199.6 L201.3 198.1 L203.2 196.8 L205.3 195.7 L207.7 194.7 L210.3 193.9 L213.3 193.2 L216.8 192.7 L221.0 192.3 L226.6 192.1 L240.0 192.0 L253.4 192.1 L259.0 192.3 L263.2 192.7 L266.7 193.2 L269.7 193.9 L272.3 194.7 L274.7 195.7 L276.8 196.8 L278.7 198.1 L280.4 199.6 L281.9 201.3 L283.2 203.2 L284.3 205.3 L285.3 207.7 L286.1 210.3 L286.8 213.3 L287.3 216.8 L287.7 221.0 L287.9 226.6Z" stroke-width="0.8" opacity="0.6"/>
  <path d="M274.0 240.0 L274.0 254.6 L273.9 258.3 L273.7 260.9 L273.4 263.0 L273.1 264.7 L272.7 266.1 L272.2 267.4 L271.7 268.5 L271.0 269.4 L270.3 270.3 L269.4 271.0 L268.5 271.7 L267.4 272.2 L266.1 272.7 L264.7 273.1 L263.0 273.4 L260.9 273.7 L258.3 273.9 L254.6 274.0 L240.0 274.0 L225.4 274.0 L221.7 273.9 L219.1 273.7 L217.0 273.4 L215.3 273.1 L213.9 272.7 L212.6 272.2 L211.5 271.7 L210.6 271.0 L209.7 270.3 L209.0 269.4 L208.3 268.5 L207.8 267.4 L207.3 266.1 L206.9 264.7 L206.6 263.0 L206.3 260.9 L206.1 258.3 L206.0 254.6 L206.0 240.0 L206.0 225.4 L206.1 221.7 L206.3 219.1 L206.6 217.0 L206.9 215.3 L207.3 213.9 L207.8 212.6 L208.3 211.5 L209.0 210.6 L209.7 209.7 L210.6 209.0 L211.5 208.3 L212.6 207.8 L213.9 207.3 L215.3 206.9 L217.0 206.6 L219.1 206.3 L221.7 206.1 L225.4 206.0 L240.0 206.0 L254.6 206.0 L258.3 206.1 L260.9 206.3 L263.0 206.6 L264.7 206.9 L266.1 207.3 L267.4 207.8 L268.5 208.3 L269.4 209.0 L270.3 209.7 L271.0 210.6 L271.7 211.5 L272.2 212.6 L272.7 213.9 L273.1 215.3 L273.4 217.0 L273.7 219.1 L273.9 221.7 L274.0 225.4Z" stroke-width="0.8" opacity="0.5"/>
</svg>
