<?xml version="1.0" encoding="UTF-8"?>
<svg xmlns="http://www.w3.org/2000/svg" viewBox="0 0 480 420" fill="none" stroke="currentColor" stroke-width="1">

  <rect x="20" y="60" width="360" height="30" rx="4"/>
  <rect x="20" y="110" width="200" height="30" rx="4"/>
  <rect x="20" y="160" width="280" height="30" rx="4"/>
  <rect x="20" y="210" width="440" height="30" rx="4"/>
  <rect x="20" y="260" width="150" height="30" rx="4"/>
  <rect x="20" y="310" width="320" height="30" rx="4"/>
  <rect x="20" y="360" width="240" height="30" rx="4"/>
  <line x1="20" y1="40" x2="460" y2="40" stroke-width="0.5"/>
  <line x1="20" y1="40" x2="20" y2="400" stroke-width="0.3" opacity="0.5"/><line x1="75" y1="40" x2="75" y2="400" stroke-width="0.3" opacity="0.5"/><line x1="130" y1="40" x2="130" y2="400" stroke-width="0.3" opacity="0.5"/><line x1="185" y1="40" x2="185" y2="400" stroke-width="0.3" opacity="0.5"/><line x1="240" y1="40" x2="240" y2="400" stroke-width="0.3" opacity="0.5"/><line x1="295" y1="40" x2="295" y2="400" stroke-width="0.3" opacity="0.5"/><line x1="350" y1="40" x2="350" y2="400" stroke-width="0.3" opacity="0.5"/><line x1="405" y1="40" x2="405" y2="400" stroke-width="0.3" opacity="0.5"/><line x1="460" y1="40" x2="460" y2="400" stroke-width="0.3" opacity="0.5"/>

</svg>
