<?xml version="1.0" encoding="UTF-8"?>
<svg xmlns="http://www.w3.org/2000/svg" viewBox="0 0 480 480" fill="none" stroke="currentColor" >
<path d="M0 265.2 L5 274.1 L10 281.5 L15 287.2 L20 291.2 L25 293.5 L30 294.2 L35 293.4 L40 291.5 L45 288.8 L50 285.4 L55 281.8 L60 278.3 L65 275.1 L70 272.6 L75 270.8 L80 270.0 L85 270.2 L90 271.3 L95 273.4 L100 276.1 L105 279.3 L110 282.7 L115 285.9 L120 288.8 L125 290.9 L130 292.0 L135 291.8 L140 290.1 L145 286.8 L150 281.7 L155 275.0 L160 266.7 L165 257.0 L170 246.1 L175 234.5 L180 222.4 L185 210.2 L190 198.4 L195 187.3 L200 177.4 L205 168.9 L210 162.2 L215 157.4 L220 154.7 L225 154.0 L230 155.5 L235 158.8 L240 163.8 L245 170.2 L250 177.8 L255 186.1 L260 194.7 L265 203.4 L270 211.7 L275 219.4 L280 226.2 L285 231.8 L290 236.3 L295 239.6 L300 241.7 L305 242.7 L310 242.8 L315 242.3 L320 241.4 L325 240.5 L330 239.7 L335 239.5 L340 240.0 L345 241.6 L350 244.2 L355 248.1 L360 253.1 L365 259.3 L370 266.4 L375 274.3 L380 282.7 L385 291.1 L390 299.4 L395 307.1 L400 313.8 L405 319.2 L410 323.0 L415 325.0 L420 325.0 L425 322.9 L430 318.7 L435 312.6 L440 304.6 L445 295.1 L450 284.3 L455 272.6 L460 260.5 L465 248.2 L470 236.2 L475 225.0 L480 214.8" stroke-width="0.8"/>
  <path d="M0 273.7 L5 285.5 L10 295.4 L15 303.0 L20 308.3 L25 311.3 L30 312.2 L35 311.3 L40 308.7 L45 305.0 L50 300.6 L55 295.8 L60 291.1 L65 286.9 L70 283.5 L75 281.1 L80 280.0 L85 280.3 L90 281.8 L95 284.5 L100 288.1 L105 292.3 L110 296.9 L115 301.3 L120 305.1 L125 307.9 L130 309.4 L135 309.1 L140 306.8 L145 302.3 L150 295.6 L155 286.6 L160 275.5 L165 262.6 L170 248.2 L175 232.6 L180 216.5 L185 200.3 L190 184.5 L195 169.8 L200 156.5 L205 145.2 L210 136.3 L215 129.9 L220 126.2 L225 125.4 L230 127.3 L235 131.7 L240 138.4 L245 147.0 L250 157.0 L255 168.1 L260 179.6 L265 191.2 L270 202.3 L275 212.5 L280 221.5 L285 229.1 L290 235.1 L295 239.5 L300 242.2 L305 243.6 L310 243.8 L315 243.1 L320 241.9 L325 240.6 L330 239.6 L335 239.3 L340 240.1 L345 242.1 L350 245.6 L355 250.8 L360 257.5 L365 265.7 L370 275.2 L375 285.7 L380 296.9 L385 308.2 L390 319.2 L395 329.4 L400 338.3 L405 345.6 L410 350.6 L415 353.3 L420 353.3 L425 350.5 L430 345.0 L435 336.8 L440 326.2 L445 313.5 L450 299.1 L455 283.5 L460 267.3 L465 250.9 L470 235.0 L475 220.0 L480 206.3" stroke-width="0.8"/>
  <path d="M0 282.1 L5 296.9 L10 309.2 L15 318.7 L20 325.3 L25 329.1 L30 330.3 L35 329.1 L40 325.9 L45 321.3 L50 315.7 L55 309.7 L60 303.9 L65 298.6 L70 294.3 L75 291.4 L80 290.1 L85 290.3 L90 292.2 L95 295.6 L100 300.1 L105 305.4 L110 311.1 L115 316.6 L120 321.4 L125 324.9 L130 326.7 L135 326.4 L140 323.5 L145 317.9 L150 309.5 L155 298.3 L160 284.4 L165 268.3 L170 250.2 L175 230.8 L180 210.6 L185 190.3 L190 170.6 L195 152.2 L200 135.6 L205 121.5 L210 110.3 L215 102.3 L220 97.8 L225 96.7 L230 99.1 L235 104.6 L240 113.0 L245 123.7 L250 136.3 L255 150.1 L260 164.5 L265 179.0 L270 192.8 L275 205.6 L280 216.9 L285 226.4 L290 233.9 L295 239.3 L300 242.8 L305 244.5 L310 244.7 L315 243.8 L320 242.4 L325 240.8 L330 239.5 L335 239.2 L340 240.1 L345 242.6 L350 247.0 L355 253.4 L360 261.9 L365 272.1 L370 284.0 L375 297.2 L380 311.1 L385 325.2 L390 339.0 L395 351.8 L400 362.9 L405 371.9 L410 378.3 L415 381.6 L420 381.6 L425 378.1 L430 371.2 L435 361.0 L440 347.7 L445 331.8 L450 313.8 L455 294.4 L460 274.1 L465 253.6 L470 233.7 L475 215.0 L480 197.9" stroke-width="0.8"/>
</svg>
