<?xml version="1.0" encoding="UTF-8"?>
<svg xmlns="http://www.w3.org/2000/svg" viewBox="0 0 480 480" fill="none" stroke="currentColor" >

  <path d="M0 0 L80 40 L60 120 L0 100 Z" stroke-width="0.8"/>
  <path d="M80 40 L180 20 L200 100 L120 140 L60 120 Z" stroke-width="0.8"/>
  <path d="M180 20 L300 0 L320 80 L240 120 L200 100 Z" stroke-width="0.8"/>
  <path d="M300 0 L420 30 L400 110 L320 80 Z" stroke-width="0.8"/>
  <path d="M420 30 L480 0 L480 120 L420 110 L400 110 Z" stroke-width="0.8"/>
  <path d="M0 100 L60 120 L80 220 L0 200 Z" stroke-width="0.8"/>
  <path d="M60 120 L120 140 L160 240 L80 220 Z" stroke-width="0.8"/>
  <path d="M120 140 L200 100 L220 200 L200 260 L160 240 Z" stroke-width="0.8"/>
  <path d="M200 100 L240 120 L280 200 L220 200 Z" stroke-width="0.8"/>
  <path d="M240 120 L320 80 L360 160 L340 240 L280 200 Z" stroke-width="0.8"/>
  <path d="M320 80 L400 110 L380 200 L360 160 Z" stroke-width="0.8"/>
  <path d="M400 110 L480 120 L480 240 L420 200 L380 200 Z" stroke-width="0.8"/>
  <path d="M0 200 L80 220 L60 320 L0 300 Z" stroke-width="0.8"/>
  <path d="M80 220 L160 240 L140 340 L60 320 Z" stroke-width="0.8"/>
  <path d="M160 240 L200 260 L220 360 L140 340 Z" stroke-width="0.8"/>
  <path d="M200 260 L280 200 L320 280 L260 360 L220 360 Z" stroke-width="0.8"/>
  <path d="M280 200 L340 240 L360 320 L320 280 Z" stroke-width="0.8"/>
  <path d="M340 240 L380 200 L420 280 L380 360 L360 320 Z" stroke-width="0.8"/>
  <path d="M380 200 L480 240 L480 360 L420 280 Z" stroke-width="0.8"/>
  <path d="M0 300 L60 320 L40 420 L0 400 Z" stroke-width="0.8"/>
  <path d="M60 320 L140 340 L120 440 L40 420 Z" stroke-width="0.8"/>
  <path d="M140 340 L220 360 L200 460 L120 440 Z" stroke-width="0.8"/>
  <path d="M220 360 L260 360 L280 460 L200 460 Z" stroke-width="0.8"/>
  <path d="M260 360 L380 360 L360 460 L280 460 Z" stroke-width="0.8"/>
  <path d="M380 360 L480 360 L480 480 L360 480 L360 460 Z" stroke-width="0.8"/>

</svg>
