<?xml version="1.0" encoding="UTF-8"?>
<svg xmlns="http://www.w3.org/2000/svg" viewBox="0 0 480 480" fill="none" stroke="currentColor" stroke-width="1">
<polyline points="0.0,240.0 4.8,245.0 9.6,249.9 14.4,254.7 19.2,259.3 24.0,263.5 28.8,267.4 33.6,270.8 38.4,273.8 43.2,276.2 48.0,278.0 52.8,279.3 57.6,279.9 62.4,279.9 67.2,279.3 72.0,278.0 76.8,276.2 81.6,273.8 86.4,270.8 91.2,267.4 96.0,263.5 100.8,259.3 105.6,254.7 110.4,249.9 115.2,245.0 120.0,240.0 124.8,235.0 129.6,230.1 134.4,225.3 139.2,220.7 144.0,216.5 148.8,212.6 153.6,209.2 158.4,206.2 163.2,203.8 168.0,202.0 172.8,200.7 177.6,200.1 182.4,200.1 187.2,200.7 192.0,202.0 196.8,203.8 201.6,206.2 206.4,209.2 211.2,212.6 216.0,216.5 220.8,220.7 225.6,225.3 230.4,230.1 235.2,235.0 240.0,240.0 244.8,245.0 249.6,249.9 254.4,254.7 259.2,259.3 264.0,263.5 268.8,267.4 273.6,270.8 278.4,273.8 283.2,276.2 288.0,278.0 292.8,279.3 297.6,279.9 302.4,279.9 307.2,279.3 312.0,278.0 316.8,276.2 321.6,273.8 326.4,270.8 331.2,267.4 336.0,263.5 340.8,259.3 345.6,254.7 350.4,249.9 355.2,245.0 360.0,240.0 364.8,235.0 369.6,230.1 374.4,225.3 379.2,220.7 384.0,216.5 388.8,212.6 393.6,209.2 398.4,206.2 403.2,203.8 408.0,202.0 412.8,200.7 417.6,200.1 422.4,200.1 427.2,200.7 432.0,202.0 436.8,203.8 441.6,206.2 446.4,209.2 451.2,212.6 456.0,216.5 460.8,220.7 465.6,225.3 470.4,230.1 475.2,235.0" fill="none" stroke-width="1.5"/>
   <polyline points="0.0,298.9 4.8,303.2 9.6,306.5 14.4,308.7 19.2,309.8 24.0,309.9 28.8,308.8 33.6,306.7 38.4,303.5 43.2,299.3 48.0,294.2 52.8,288.2 57.6,281.4 62.4,274.0 67.2,266.1 72.0,257.8 76.8,249.1 81.6,240.4 86.4,231.6 91.2,223.0 96.0,214.6 100.8,206.6 105.6,199.2 110.4,192.4 115.2,186.3 120.0,181.1 124.8,176.8 129.6,173.5 134.4,171.3 139.2,170.2 144.0,170.1 148.8,171.2 153.6,173.3 158.4,176.5 163.2,180.7 168.0,185.8 172.8,191.8 177.6,198.6 182.4,206.0 187.2,213.9 192.0,222.2 196.8,230.9 201.6,239.6 206.4,248.4 211.2,257.0 216.0,265.4 220.8,273.4 225.6,280.8 230.4,287.6 235.2,293.7 240.0,298.9 244.8,303.2 249.6,306.5 254.4,308.7 259.2,309.8 264.0,309.9 268.8,308.8 273.6,306.7 278.4,303.5 283.2,299.3 288.0,294.2 292.8,288.2 297.6,281.4 302.4,274.0 307.2,266.1 312.0,257.8 316.8,249.1 321.6,240.4 326.4,231.6 331.2,223.0 336.0,214.6 340.8,206.6 345.6,199.2 350.4,192.4 355.2,186.3 360.0,181.1 364.8,176.8 369.6,173.5 374.4,171.3 379.2,170.2 384.0,170.1 388.8,171.2 393.6,173.3 398.4,176.5 403.2,180.7 408.0,185.8 412.8,191.8 417.6,198.6 422.4,206.0 427.2,213.9 432.0,222.2 436.8,230.9 441.6,239.6 446.4,248.4 451.2,257.0 456.0,265.4 460.8,273.4 465.6,280.8 470.4,287.6 475.2,293.7" fill="none" stroke-width="0.8" opacity="0.5"/>
</svg>
