<?xml version="1.0" encoding="utf-8"?>
<!-- Generator: Adobe Illustrator 24.1.2, SVG Export Plug-In . SVG Version: 6.00 Build 0)  -->
<svg version="1.1" id="Layer_1" xmlns="http://www.w3.org/2000/svg" xmlns:xlink="http://www.w3.org/1999/xlink" x="0px" y="0px"
	 width="440.1px" height="300px" viewBox="0 0 440.1 300" style="enable-background:new 0 0 440.1 300;" xml:space="preserve">
<style type="text/css">
	.st0{fill:#E9EBDF;}
	.st1{fill:#0E352C;}
	.st2{fill:#FFFFFF;}
	.st3{fill:#4D9987;}
	.st4{fill:#C4D7D3;}
	.st5{fill:#185849;}
	.st6{fill:#27ae60;}
	.st7{fill:none;}
</style>
<g>
	<g>
		<path class="st0" d="M61.9,177.8v26.8c0,1-1.4,1.8-3.1,1.8s-3.1-0.8-3.1-1.8v-26.8H61.9z"/>
		<path class="st1" d="M58.7,207.5c-2.4,0-4.1-1.2-4.1-2.8v-26.8c0-0.6,0.4-1,1-1h6.3c0.6,0,1,0.4,1,1v26.8
			C62.9,206.3,61.1,207.5,58.7,207.5z M56.6,178.8v25.8c0,0.2,0.7,0.8,2.1,0.8s2.1-0.6,2.1-0.8v-25.8H56.6z"/>
		<path class="st2" d="M58.7,177.8h-3.1v26.8c0,1,1.4,1.8,3.1,1.8V177.8z"/>
		<circle class="st2" cx="58.7" cy="173.6" r="5.7"/>
		<path class="st3" d="M58.7,180.3c-0.6,0-1.2-0.1-1.7-0.2c-0.6-0.1-1.1-0.4-1.6-0.7c-1-0.6-1.9-1.4-2.4-2.4c-0.3-0.5-0.5-1-0.7-1.6
			c-0.3-1.1-0.3-2.3,0-3.4c0.1-0.6,0.4-1.1,0.7-1.6s0.6-1,1.1-1.4c0.4-0.4,0.9-0.8,1.4-1.1s1.1-0.1,1.4,0.3c0.3,0.5,0.1,1.1-0.3,1.4
			c0,0,0,0-0.1,0c-0.7,0.4-1.3,1-1.7,1.7c-0.6,1.1-0.8,2.3-0.5,3.5c0.1,0.4,0.3,0.8,0.5,1.1c1.1,1.8,3.2,2.7,5.2,2.2
			c0.8-0.2,1.5-0.6,2.1-1.2c0.3-0.3,0.5-0.6,0.7-1c0.6-1.1,0.8-2.3,0.5-3.5c-0.1-0.4-0.3-0.8-0.5-1.1c-0.2-0.4-0.5-0.7-0.7-1
			c-0.3-0.3-0.6-0.5-1-0.7c-0.5-0.3-0.7-0.9-0.4-1.4s0.9-0.7,1.4-0.4c0,0,0,0,0.1,0c1,0.6,1.9,1.4,2.4,2.4c1.2,2.1,1.2,4.6,0,6.7
			c-0.6,1-1.4,1.9-2.4,2.4c-0.5,0.3-1,0.5-1.6,0.7C59.9,180.2,59.3,180.3,58.7,180.3z"/>
		<path class="st1" d="M58.7,207.5c-2.4,0-4.1-1.2-4.1-2.8v-26.3c0-0.6,0.4-1,1-1s1,0.4,1,1v26.3c0,0.2,0.7,0.8,2.1,0.8
			s2.1-0.6,2.1-0.8v-26.3c0-0.6,0.4-1,1-1s1,0.4,1,1v26.3C62.9,206.3,61.1,207.5,58.7,207.5z"/>
		<path class="st1" d="M61.6,179.5c-0.6,0-1-0.4-1-1c0-0.4,0.2-0.7,0.5-0.9c0.7-0.4,1.3-1,1.7-1.7c0.6-1.1,0.8-2.3,0.5-3.5
			c-0.1-0.4-0.3-0.8-0.5-1.1c-0.2-0.4-0.5-0.7-0.7-1c-0.3-0.3-0.6-0.5-1-0.7s-0.7-0.4-1.1-0.5c-0.8-0.2-1.6-0.2-2.4,0
			c-0.4,0.1-0.8,0.3-1.1,0.5c-0.7,0.4-1.3,1-1.7,1.7c-0.6,1.1-0.8,2.3-0.5,3.5c0.1,0.4,0.3,0.8,0.5,1.1c0.4,0.7,1,1.3,1.7,1.7
			c0.5,0.3,0.7,0.9,0.4,1.3c-0.3,0.5-0.9,0.7-1.3,0.4c0,0,0,0-0.1,0c-1-0.6-1.9-1.4-2.4-2.4c-0.3-0.5-0.5-1-0.7-1.6
			c-0.3-1.1-0.3-2.3,0-3.4c0.1-0.6,0.4-1.1,0.7-1.6s0.6-1,1.1-1.4c0.4-0.4,0.9-0.8,1.4-1.1s1-0.5,1.6-0.7c1.1-0.3,2.3-0.3,3.4,0
			c0.6,0.2,1.1,0.4,1.6,0.7c1,0.6,1.9,1.4,2.4,2.4c1.2,2.1,1.2,4.6,0,6.7c-0.6,1-1.4,1.9-2.4,2.4C61.9,179.5,61.7,179.5,61.6,179.5z
			"/>
		<circle class="st2" cx="56.4" cy="172" r="1.3"/>
		<path class="st1" d="M95.2,205.6c-10.8,0-24.9-9.4-34.1-23.5c-0.3-0.5-0.2-1.1,0.3-1.4c0.5-0.3,1.1-0.2,1.4,0.3
			c10.3,15.9,27,25.6,37.2,21.8c0.5-0.2,1.1,0.1,1.3,0.6s-0.1,1.1-0.6,1.3C98.9,205.3,97,205.7,95.2,205.6z"/>
		<path class="st0" d="M103.5,201.8v26.8c0,1-1.4,1.8-3.1,1.8s-3.1-0.8-3.1-1.8v-26.8H103.5z"/>
		<path class="st1" d="M100.3,231.5c-2.4,0-4.1-1.2-4.1-2.8v-26.8c0-0.6,0.4-1,1-1h6.3c0.6,0,1,0.4,1,1v26.8
			C104.5,230.3,102.7,231.5,100.3,231.5z M98.2,202.8v25.8c0,0.2,0.7,0.8,2.1,0.8s2.1-0.6,2.1-0.8v-25.8H98.2z"/>
		<path class="st2" d="M100.3,201.8h-3.1v26.8c0,1,1.4,1.8,3.1,1.8V201.8z"/>
		<circle class="st2" cx="100.3" cy="197.6" r="5.7"/>
		<path class="st3" d="M100.3,204.3c-0.6,0-1.2-0.1-1.7-0.2c-0.6-0.1-1.1-0.4-1.6-0.7c-1-0.6-1.9-1.4-2.4-2.4
			c-0.6-1-0.9-2.2-0.9-3.3c0-0.6,0.1-1.2,0.2-1.7c0.1-0.6,0.4-1.1,0.7-1.6c0.3-0.5,0.6-1,1.1-1.4c0.4-0.4,0.9-0.8,1.4-1.1
			s1.1-0.2,1.4,0.3s0.2,1.1-0.3,1.4c0,0-0.1,0-0.1,0.1c-0.4,0.2-0.7,0.5-1,0.7c-0.3,0.3-0.5,0.6-0.7,1c-0.6,1.1-0.8,2.3-0.5,3.5
			c0.1,0.4,0.3,0.8,0.5,1.1c1.3,2.2,4.1,3,6.4,1.7l0,0c0.4-0.2,0.7-0.5,1-0.7c0.3-0.3,0.5-0.6,0.7-1c0.6-1.1,0.8-2.3,0.5-3.5
			c-0.1-0.4-0.3-0.8-0.5-1.1c-0.2-0.4-0.5-0.7-0.7-1c-0.3-0.3-0.6-0.5-1-0.7c-0.5-0.3-0.7-0.9-0.4-1.4c0.3-0.5,0.9-0.7,1.4-0.4
			c0,0,0,0,0.1,0c0.5,0.3,1,0.6,1.4,1.1c0.4,0.4,0.8,0.9,1.1,1.4c0.3,0.5,0.5,1,0.7,1.6c0.3,1.1,0.3,2.3,0,3.4
			c-0.1,0.6-0.4,1.1-0.7,1.6c-0.6,1-1.4,1.9-2.4,2.4C102.6,204,101.5,204.3,100.3,204.3L100.3,204.3z"/>
		<path class="st1" d="M100.3,231.5c-2.4,0-4.1-1.2-4.1-2.8v-26.3c0-0.6,0.4-1,1-1s1,0.4,1,1v26.3c0,0.2,0.7,0.8,2.1,0.8
			s2.1-0.6,2.1-0.8v-26.3c0-0.6,0.4-1,1-1s1,0.4,1,1v26.3C104.5,230.3,102.7,231.5,100.3,231.5z"/>
		<path class="st1" d="M97.5,203.5c-0.2,0-0.3,0-0.5-0.1c-1-0.6-1.9-1.4-2.4-2.4c-0.6-1-0.9-2.2-0.9-3.3c0-0.6,0.1-1.2,0.2-1.7
			c0.1-0.6,0.4-1.1,0.7-1.6c0.3-0.5,0.6-1,1.1-1.4c0.4-0.4,0.9-0.8,1.4-1.1s1-0.5,1.6-0.7c1.1-0.3,2.3-0.3,3.4,0
			c0.6,0.2,1.1,0.4,1.6,0.7s1,0.6,1.4,1.1c0.4,0.4,0.8,0.9,1.1,1.4c0.3,0.5,0.5,1,0.7,1.6c0.3,1.1,0.3,2.3,0,3.4
			c-0.1,0.6-0.4,1.1-0.7,1.6c-0.6,1-1.4,1.9-2.4,2.4c-0.5,0.3-1.1,0.1-1.4-0.4s-0.1-1.1,0.4-1.4l0,0c0.4-0.2,0.7-0.5,1-0.7
			c0.3-0.3,0.5-0.6,0.7-1c0.6-1.1,0.8-2.3,0.5-3.5c-0.1-0.4-0.3-0.8-0.5-1.1c-0.2-0.4-0.5-0.7-0.7-1c-0.3-0.3-0.6-0.5-1-0.7
			s-0.7-0.4-1.1-0.5c-0.8-0.2-1.6-0.2-2.4,0c-0.4,0.1-0.8,0.3-1.1,0.5c-0.4,0.2-0.7,0.5-1,0.7c-0.3,0.3-0.5,0.6-0.7,1
			c-0.6,1.1-0.8,2.3-0.5,3.5c0.1,0.4,0.3,0.8,0.5,1.1c0.4,0.7,1,1.3,1.7,1.7c0.5,0.3,0.6,0.9,0.4,1.4
			C98.2,203.4,97.8,203.5,97.5,203.5L97.5,203.5z"/>
		<circle class="st2" cx="98" cy="196.1" r="1.3"/>
		<path class="st1" d="M344.9,205.6c-1.9,0-3.7-0.3-5.5-0.9c-0.5-0.2-0.8-0.8-0.6-1.3s0.8-0.8,1.3-0.6l0,0
			c10.2,3.9,26.9-5.9,37.2-21.8c0.3-0.5,0.9-0.6,1.4-0.3s0.6,0.9,0.3,1.4C369.8,196.2,355.6,205.6,344.9,205.6z"/>
		<path class="st0" d="M342.8,201.8v26.8c0,1-1.4,1.8-3.1,1.8s-3.1-0.8-3.1-1.8v-26.8H342.8z"/>
		<path class="st1" d="M339.7,231.5c-2.4,0-4.1-1.2-4.1-2.8v-26.8c0-0.6,0.4-1,1-1h6.3c0.6,0,1,0.4,1,1v26.8
			C343.8,230.3,342.1,231.5,339.7,231.5z M337.5,202.8v25.8c0,0.2,0.7,0.8,2.1,0.8s2.1-0.6,2.1-0.8v-25.8H337.5z"/>
		<path class="st2" d="M339.7,201.8h-3.1v26.8c0,1,1.4,1.8,3.1,1.8V201.8z"/>
		<circle class="st2" cx="339.7" cy="197.6" r="5.7"/>
		<path class="st3" d="M339.7,204.3c-0.6,0-1.2-0.1-1.7-0.2c-0.6-0.1-1.1-0.4-1.6-0.7c-1-0.6-1.9-1.4-2.4-2.4
			c-0.3-0.5-0.5-1-0.7-1.6c-0.3-1.1-0.3-2.3,0-3.4c0.1-0.6,0.4-1.1,0.7-1.6c0.6-1,1.4-1.9,2.4-2.4c0.5-0.3,1.1-0.1,1.4,0.3
			c0.3,0.5,0.1,1.1-0.3,1.4c0,0,0,0-0.1,0c-0.7,0.4-1.3,1-1.7,1.7c-0.8,1.4-0.8,3.2,0,4.7c0.2,0.4,0.5,0.7,0.7,1
			c1.8,1.8,4.8,1.8,6.6,0c0.3-0.3,0.5-0.6,0.7-1c1.1-1.8,0.8-4.1-0.7-5.6c-0.3-0.3-0.6-0.5-1-0.7c-0.5-0.3-0.7-0.9-0.4-1.4
			c0.3-0.5,0.9-0.7,1.4-0.4c0,0,0,0,0.1,0c0.5,0.3,1,0.6,1.4,1.1c0.8,0.8,1.4,1.9,1.7,3c0.3,1.1,0.3,2.3,0,3.4
			c-0.3,1.1-0.9,2.2-1.7,3c-0.4,0.4-0.9,0.8-1.4,1.1C342,204,340.9,204.3,339.7,204.3L339.7,204.3z"/>
		<path class="st1" d="M339.7,231.5c-2.4,0-4.1-1.2-4.1-2.8v-26.3c0-0.6,0.4-1,1-1s1,0.4,1,1v26.3c0,0.2,0.7,0.8,2.1,0.8
			s2.1-0.6,2.1-0.8v-26.3c0-0.6,0.4-1,1-1s1,0.4,1,1v26.3C343.8,230.3,342.1,231.5,339.7,231.5z"/>
		<path class="st1" d="M342.5,203.5c-0.6,0-1-0.4-1-1c0-0.4,0.2-0.7,0.5-0.9c0.7-0.4,1.3-1,1.7-1.7c1.1-1.8,0.8-4.1-0.7-5.6
			c-0.3-0.3-0.6-0.5-1-0.7s-0.7-0.4-1.1-0.5c-0.8-0.2-1.6-0.2-2.4,0c-0.4,0.1-0.8,0.3-1.1,0.5c-0.4,0.2-0.7,0.5-1,0.7
			c-0.3,0.3-0.5,0.6-0.7,1c-0.8,1.4-0.8,3.2,0,4.7c0.2,0.4,0.5,0.7,0.7,1c0.3,0.3,0.6,0.5,1,0.7c0.5,0.3,0.7,0.9,0.4,1.3
			s-0.9,0.7-1.3,0.4c0,0,0,0-0.1,0c-1-0.6-1.9-1.4-2.4-2.4c-0.3-0.5-0.5-1-0.7-1.6c-0.3-1.1-0.3-2.3,0-3.4c0.1-0.6,0.4-1.1,0.7-1.6
			c0.6-1,1.4-1.9,2.4-2.4c0.5-0.3,1-0.5,1.6-0.7c1.1-0.3,2.3-0.3,3.4,0c0.6,0.2,1.1,0.4,1.6,0.7s1,0.6,1.4,1.1
			c0.8,0.8,1.4,1.9,1.7,3c0.3,1.1,0.3,2.3,0,3.4c-0.3,1.1-0.9,2.2-1.7,3c-0.4,0.4-0.9,0.8-1.4,1.1
			C342.9,203.5,342.7,203.5,342.5,203.5z"/>
		<circle class="st2" cx="337.4" cy="196.1" r="1.3"/>
		<path class="st0" d="M384.4,177.8v26.8c0,1-1.4,1.8-3.1,1.8s-3.1-0.8-3.1-1.8v-26.8H384.4z"/>
		<path class="st1" d="M381.3,207.5c-2.4,0-4.1-1.2-4.1-2.8v-26.8c0-0.6,0.4-1,1-1h6.3c0.6,0,1,0.4,1,1v26.8
			C385.4,206.3,383.6,207.5,381.3,207.5z M379.1,178.8v25.8c0,0.2,0.8,0.8,2.1,0.8s2.1-0.6,2.1-0.8v-25.8H379.1z"/>
		<path class="st2" d="M381.3,177.8h-3.1v26.8c0,1,1.4,1.8,3.1,1.8V177.8z"/>
		<circle class="st2" cx="381.3" cy="173.6" r="5.7"/>
		<path class="st3" d="M381.3,180.3c-0.6,0-1.2-0.1-1.7-0.2c-0.6-0.1-1.1-0.4-1.6-0.7s-1-0.6-1.4-1.1c-2.6-2.6-2.6-6.8,0-9.4
			c0.4-0.4,0.9-0.8,1.4-1.1s1.1-0.1,1.4,0.3c0.3,0.5,0.1,1.1-0.3,1.4c0,0,0,0-0.1,0c-0.4,0.2-0.7,0.5-1,0.7c-0.3,0.3-0.5,0.6-0.7,1
			c-0.4,0.7-0.6,1.5-0.6,2.3c0,1.2,0.5,2.4,1.4,3.3c1.2,1.2,2.9,1.6,4.5,1.2c0.4-0.1,0.8-0.3,1.1-0.5c0.7-0.4,1.3-1,1.7-1.7
			c0.8-1.4,0.8-3.2,0-4.7c-0.4-0.7-1-1.3-1.7-1.7c-0.5-0.3-0.7-0.9-0.4-1.4c0.3-0.5,0.9-0.7,1.4-0.4c0,0,0,0,0.1,0
			c0.5,0.3,1,0.6,1.4,1.1c0.8,0.8,1.4,1.9,1.7,3c0.3,1.1,0.3,2.3,0,3.4c-0.3,1.1-0.9,2.2-1.7,3c-0.4,0.4-0.9,0.8-1.4,1.1
			s-1,0.5-1.6,0.7C382.4,180.2,381.9,180.3,381.3,180.3z"/>
		<path class="st1" d="M381.3,207.5c-2.4,0-4.1-1.2-4.1-2.8v-26.3c0-0.6,0.4-1,1-1s1,0.4,1,1v26.3c0,0.2,0.8,0.8,2.1,0.8
			s2.1-0.6,2.1-0.8v-26.3c0-0.6,0.4-1,1-1s1,0.4,1,1v26.3C385.4,206.3,383.6,207.5,381.3,207.5z"/>
		<path class="st1" d="M384.1,179.5c-0.6,0-1-0.4-1-1c0-0.4,0.2-0.7,0.5-0.9c0.4-0.2,0.7-0.5,1-0.7c1.5-1.5,1.8-3.8,0.7-5.6
			c-0.4-0.7-1-1.3-1.7-1.7c-0.4-0.2-0.7-0.4-1.1-0.5c-0.8-0.2-1.6-0.2-2.4,0c-0.4,0.1-0.8,0.3-1.1,0.5c-0.7,0.4-1.3,1-1.7,1.7
			c-0.4,0.7-0.6,1.5-0.6,2.3c0,1.2,0.5,2.4,1.4,3.3c0.3,0.3,0.6,0.5,1,0.7c0.5,0.3,0.7,0.9,0.4,1.3s-0.9,0.7-1.3,0.4c0,0,0,0-0.1,0
			c-1-0.6-1.9-1.4-2.4-2.4c-1.5-2.6-1.1-5.9,1.1-8c0.4-0.4,0.9-0.8,1.4-1.1s1-0.5,1.6-0.7c1.1-0.3,2.3-0.3,3.4,0
			c0.6,0.2,1.1,0.4,1.6,0.7s1,0.6,1.4,1.1c0.8,0.8,1.4,1.9,1.7,3c0.3,1.1,0.3,2.3,0,3.4c-0.3,1.1-0.9,2.2-1.7,3
			c-0.4,0.4-0.9,0.8-1.4,1.1C384.4,179.5,384.3,179.5,384.1,179.5z"/>
		<circle class="st2" cx="378.9" cy="172" r="1.3"/>
		<path class="st4" d="M174.6,121.8v52.4c0,1.9-2.7,3.5-6,3.5s-6-1.6-6-3.5v-52.4C162.6,121.8,174.6,121.8,174.6,121.8z"/>
		<path class="st4" d="M168.6,121.8h-6v52.4c0,1.9,2.7,3.5,6,3.5V121.8z"/>
		<path class="st4" d="M174.6,85.6v51.3c0,1.9-2.7,3.5-6,3.5s-6-1.6-6-3.5V85.6H174.6z"/>
		<path class="st5" d="M168.6,178.7c-3.9,0-7-2-7-4.5v-51.4c0-0.6,0.4-1,1-1s1,0.4,1,1v51.4c0,1.2,2.1,2.5,5,2.5s5-1.3,5-2.5v-51.4
			c0-0.6,0.4-1,1-1s1,0.4,1,1v51.4C175.6,176.7,172.5,178.7,168.6,178.7z"/>
		<path class="st4" d="M280.7,121.8v52.4c0,1.9-2.7,3.5-6,3.5s-6-1.6-6-3.5v-52.4C268.7,121.8,280.7,121.8,280.7,121.8z"/>
		<path class="st4" d="M274.7,121.8h-6v52.4c0,1.9,2.7,3.5,6,3.5V121.8z"/>
		<path class="st4" d="M280.7,85.6v51.3c0,1.9-2.7,3.5-6,3.5s-6-1.6-6-3.5V85.6H280.7z"/>
		<path class="st5" d="M274.7,178.7c-3.9,0-7-2-7-4.5v-51.4c0-0.6,0.4-1,1-1s1,0.4,1,1v51.4c0,1.2,2.1,2.5,5,2.5s5-1.3,5-2.5v-51.4
			c0-0.6,0.4-1,1-1s1,0.4,1,1v51.4C281.7,176.7,278.6,178.7,274.7,178.7z"/>
		<path class="st4" d="M135.6,116.2v11.4c0,3.1,2.5,5.5,5.5,5.5l0,0h161.1c3.1,0,5.5-2.5,5.5-5.5l0,0v-11.4
			C307.7,116.2,135.6,116.2,135.6,116.2z"/>
		<path class="st6" d="M302.2,134.1H141.1c-3.6,0-6.5-2.9-6.5-6.5v-11.4c0-0.6,0.4-1,1-1h172.1c0.6,0,1,0.4,1,1v11.4
			C308.7,131.2,305.8,134.1,302.2,134.1z M136.6,117.2v10.4c0,2.5,2,4.5,4.5,4.5h161.1c2.5,0,4.5-2,4.5-4.5v-10.4
			C306.7,117.2,136.6,117.2,136.6,117.2z"/>
		<rect x="139.5" y="24.1" class="st4" width="164.2" height="92.1"/>
		<path class="st6" d="M303.7,117.2H139.5c-0.6,0-1-0.4-1-1V24.1c0-0.6,0.4-1,1-1h164.2c0.6,0,1,0.4,1,1v92.1
			C304.7,116.8,304.3,117.2,303.7,117.2z M140.5,115.2h162.2V25.1H140.5V115.2z"/>
		<rect x="147.6" y="30.6" class="st2" width="148.1" height="79.1"/>
		<rect x="147.6" y="30.6" class="st4" width="148.1" height="7.6"/>
		<path class="st5" d="M295.7,110.7H147.6c-0.6,0-1-0.4-1-1V30.6c0-0.6,0.4-1,1-1h148.1c0.6,0,1,0.4,1,1v79.1
			C296.7,110.2,296.2,110.7,295.7,110.7z M148.6,108.7h146.1V31.6H148.6V108.7z"/>
		<rect x="139.5" y="15.8" class="st2" width="164.2" height="8.3"/>
		<path class="st6" d="M303.7,25.1H139.5c-0.6,0-1-0.4-1-1v-8.3c0-0.6,0.4-1,1-1h164.2c0.6,0,1,0.4,1,1v8.3
			C304.7,24.6,304.3,25.1,303.7,25.1z M140.5,23.1h162.2v-6.3H140.5V23.1z"/>
		<path class="st2" d="M135.6,116.2h172.1l0,0v5.8c0,3.1-2.5,5.5-5.5,5.5H141.1c-3.1,0-5.5-2.5-5.5-5.5l0,0V116.2L135.6,116.2z"/>
		<path class="st6" d="M302.2,128.6H141.1c-3.6,0-6.5-2.9-6.5-6.5v-5.8c0-0.6,0.4-1,1-1h172.1c0.6,0,1,0.4,1,1v5.8
			C308.7,125.6,305.8,128.6,302.2,128.6z M136.6,117.2v4.8c0,2.5,2,4.5,4.5,4.5h161.1c2.5,0,4.5-2,4.5-4.5v-4.8H136.6z"/>
		<path class="st5" d="M303.7,117.2H139.5c-0.6,0-1-0.4-1-1V15.8c0-0.6,0.4-1,1-1h164.2c0.6,0,1,0.4,1,1v100.5
			C304.7,116.8,304.3,117.2,303.7,117.2z M140.5,115.2h162.2V16.8H140.5V115.2z"/>
		<path class="st5" d="M302.2,134.1H141.1c-3.6,0-6.5-2.9-6.5-6.5v-11.4c0-0.6,0.4-1,1-1h172.1c0.6,0,1,0.4,1,1v11.4
			C308.7,131.2,305.8,134.1,302.2,134.1z M136.6,117.2v10.4c0,2.5,2,4.5,4.5,4.5h161.1c2.5,0,4.5-2,4.5-4.5v-10.4
			C306.7,117.2,136.6,117.2,136.6,117.2z"/>
		<path class="st6" d="M241.6,71.6c0-3.8-0.5-7.5-1.6-11.1c-1-3.5-2.6-6.9-4.5-10c-1.2-2-3.9-2.6-5.9-1.4l-31.1,19.1
			c-1.9,1.2-2.5,3.7-1.3,5.5c0.3,0.5,0.8,1,1.3,1.3l31.2,19.3c1.9,1.2,4.3,0.6,5.5-1.3c2-3.2,3.6-6.6,4.7-10.2
			C241,79.2,241.6,75.4,241.6,71.6z M199.9,70.4l12.8-7.8c3.5,5.5,3.6,12.7,0,18.2l-12.8-7.9c-0.7-0.4-0.9-1.3-0.5-2
			C199.5,70.6,199.7,70.5,199.9,70.4L199.9,70.4z M239,71.6c0,7.1-2.1,14.1-5.9,20.1c-0.3,0.4-0.7,0.7-1.2,0.7
			c-0.3,0-0.5-0.1-0.8-0.2l-16.2-10c4-6.4,4-14.5,0-20.9l16.1-9.9c0.8-0.5,1.8-0.2,2.3,0.5C237,57.7,239,64.6,239,71.6L239,71.6z"/>
		<path class="st6" d="M231.9,95.4c-0.8,0-1.7-0.2-2.4-0.7l-31.2-19.3c-2.1-1.3-2.8-4.1-1.5-6.2c0.4-0.6,0.9-1.1,1.5-1.5l31.1-19.1
			c2.2-1.4,5.2-0.7,6.6,1.5c2,3.2,3.5,6.6,4.6,10.2c2.2,7.4,2.2,15.3-0.1,22.6c-1.1,3.6-2.7,7.1-4.7,10.3
			C234.9,94.6,233.4,95.4,231.9,95.4z M231.8,48.9c-0.7,0-1.4,0.2-2,0.6l-31.1,19.1c-1.7,1-2.2,3.2-1.2,4.9c0.3,0.5,0.7,0.9,1.2,1.2
			L230,93.9c1.7,1,3.8,0.5,4.8-1.1c2-3.1,3.5-6.5,4.6-10.1c2.2-7.2,2.2-14.9,0.1-22.1c-1-3.5-2.5-6.8-4.5-9.9
			C234.4,49.6,233.1,48.9,231.8,48.9z M231.9,92.8c-0.4,0-0.7-0.1-1-0.3l-16.2-10c-0.1-0.1-0.2-0.2-0.2-0.3c0-0.1,0-0.3,0.1-0.4
			c3.9-6.2,3.9-14.2,0-20.4c-0.1-0.2-0.1-0.5,0.2-0.7l0,0l16.1-9.9c1-0.6,2.4-0.3,3,0.7c7.8,12.3,7.7,28.1-0.2,40.4
			C233.2,92.5,232.5,92.8,231.9,92.8L231.9,92.8z M215.5,81.9l15.8,9.8c0.4,0.3,1,0.1,1.3-0.3c7.7-11.9,7.8-27.3,0.2-39.3
			c-0.4-0.5-1.1-0.7-1.6-0.4l-15.7,9.6C219.3,67.7,219.3,75.6,215.5,81.9L215.5,81.9z M212.7,81.2c-0.1,0-0.2,0-0.3-0.1l-12.8-7.9
			c-0.9-0.6-1.2-1.8-0.6-2.7c0.2-0.3,0.4-0.5,0.6-0.6l12.8-7.8c0.2-0.1,0.5-0.1,0.7,0.2c3.7,5.7,3.7,13,0,18.7
			C213,81.1,212.8,81.2,212.7,81.2L212.7,81.2z M200.1,70.8c-0.4,0.3-0.6,0.9-0.3,1.3c0.1,0.1,0.2,0.2,0.3,0.3l12.4,7.6
			c3.1-5.2,3.1-11.7,0-16.8L200.1,70.8z"/>
		<polygon class="st2" points="147.9,264.2 97.1,234.8 97.1,223.4 147.9,252.7 		"/>
		<path class="st3" d="M147.9,265.2c-0.2,0-0.3,0-0.5-0.1l-50.8-29.3c-0.3-0.2-0.5-0.5-0.5-0.9v-11.4c0-0.6,0.4-1,1-1
			c0.2,0,0.3,0,0.5,0.1l50.8,29.3c0.3,0.2,0.5,0.5,0.5,0.9v11.4C148.9,264.7,148.5,265.2,147.9,265.2L147.9,265.2z M98.1,234.3
			l48.8,28.2v-9.1l-48.8-28.2C98.1,225.2,98.1,234.3,98.1,234.3z"/>
		<polygon class="st2" points="147.9,252.7 162.5,244.3 111.7,215 97.1,223.4 		"/>
		<path class="st3" d="M147.9,253.7c-0.2,0-0.3,0-0.5-0.1l-50.8-29.3c-0.5-0.3-0.6-0.9-0.4-1.4c0.1-0.2,0.2-0.3,0.4-0.4l14.6-8.4
			c0.3-0.2,0.7-0.2,1,0l50.8,29.3c0.5,0.3,0.6,0.9,0.4,1.4c-0.1,0.2-0.2,0.3-0.4,0.4l-14.6,8.4C148.3,253.7,148.1,253.7,147.9,253.7
			z M99.1,223.4l48.8,28.2l12.6-7.2l-48.8-28.2L99.1,223.4z"/>
		<polygon class="st2" points="119.8,219.7 154.4,239.6 139.8,248.1 105.2,228.1 		"/>
		<polygon class="st0" points="105.2,239.5 139.8,259.5 139.8,248.1 105.2,228.1 		"/>
		<path class="st3" d="M135.1,257.8c-0.2,0-0.3,0-0.5-0.1l-25.2-14.6c-0.3-0.2-0.5-0.5-0.5-0.9v-11.4c0-0.6,0.4-1,1-1
			c0.2,0,0.3,0,0.5,0.1l25.2,14.6c0.3,0.2,0.5,0.5,0.5,0.9v11.4C136.1,257.3,135.7,257.8,135.1,257.8z M110.9,241.6l23.2,13.4v-9.1
			l-23.2-13.4C110.9,232.5,110.9,241.6,110.9,241.6z"/>
		<path class="st0" d="M135.1,246.4c-0.2,0-0.3,0-0.5-0.1l-25.2-14.6c-0.5-0.3-0.6-0.9-0.4-1.4c0.1-0.2,0.2-0.3,0.4-0.4l14.6-8.4
			c0.3-0.2,0.7-0.2,1,0l25.2,14.6c0.5,0.3,0.6,0.9,0.4,1.4c-0.1,0.2-0.2,0.3-0.4,0.4l-14.6,8.4C135.5,246.3,135.3,246.4,135.1,246.4
			z M111.9,230.8l23.2,13.4l12.6-7.2l-23.2-13.4L111.9,230.8z"/>
		<path class="st3" d="M139.8,249.1c-0.2,0-0.3,0-0.5-0.1l-34.6-20c-0.5-0.3-0.6-0.9-0.4-1.4c0.3-0.5,0.9-0.6,1.4-0.4l0,0l34.6,20
			c0.5,0.3,0.6,0.9,0.4,1.4C140.5,248.9,140.2,249.1,139.8,249.1z"/>
		<path class="st3" d="M154.4,240.6c-0.2,0-0.3,0-0.5-0.1l-34.6-20c-0.5-0.3-0.6-0.9-0.4-1.4s0.9-0.6,1.4-0.4l34.6,20
			c0.5,0.3,0.6,0.9,0.4,1.4C155,240.5,154.7,240.6,154.4,240.6z"/>
		<path class="st3" d="M139.8,260.5c-0.2,0-0.3,0-0.5-0.1l-34.6-20c-0.5-0.3-0.6-0.9-0.4-1.4s0.9-0.6,1.4-0.4l34.6,20
			c0.5,0.3,0.6,0.9,0.4,1.4C140.5,260.3,140.2,260.5,139.8,260.5z"/>
		<path class="st0" d="M225.3,199v45.4c0,1.7-2.4,3.1-5.3,3.1s-5.3-1.4-5.3-3.1V199H225.3z"/>
		<path class="st1" d="M220,248.4c-3.5,0-6.3-1.8-6.3-4.1V199c0-0.6,0.4-1,1-1h10.6c0.6,0,1,0.4,1,1v45.4
			C226.3,246.6,223.5,248.4,220,248.4z M215.7,200v44.4c0,1,1.8,2.1,4.3,2.1s4.3-1.1,4.3-2.1V200H215.7z"/>
		<path class="st2" d="M220,199h-5.3v45.4c0,1.7,2.4,3.1,5.3,3.1V199z"/>
		<path class="st0" d="M225.3,176v45.4c0,1.7-2.4,3.1-5.3,3.1s-5.3-1.4-5.3-3.1V176H225.3z"/>
		<path class="st0" d="M214.7,221.4c0,1.7,2.4,3.1,5.3,3.1v-26.4h-5.3V221.4z"/>
		<path class="st1" d="M220,248.4c-3.5,0-6.3-1.8-6.3-4.1v-44.5c0-0.6,0.4-1,1-1s1,0.4,1,1v44.5c0,1,1.8,2.1,4.3,2.1
			s4.3-1.1,4.3-2.1v-44.5c0-0.6,0.4-1,1-1s1,0.4,1,1v44.5C226.3,246.6,223.5,248.4,220,248.4z"/>
		<polygon class="st2" points="162.5,244.3 111.7,215 111.7,203.6 162.5,232.9 		"/>
		<path class="st3" d="M162.5,245.3c-0.2,0-0.3,0-0.5-0.1l-50.8-29.3c-0.3-0.2-0.5-0.5-0.5-0.9v-11.4c0-0.6,0.4-1,1-1
			c0.2,0,0.3,0,0.5,0.1L163,232c0.3,0.2,0.5,0.5,0.5,0.9v11.4C163.5,244.9,163,245.3,162.5,245.3z M112.7,214.4l48.8,28.2v-9.1
			l-48.8-28.2V214.4z"/>
		<polygon class="st2" points="162.5,232.9 177,224.5 126.2,195.2 111.7,203.6 		"/>
		<path class="st3" d="M162.5,233.9c-0.2,0-0.3,0-0.5-0.1l-50.8-29.3c-0.5-0.3-0.6-0.9-0.4-1.4c0.1-0.2,0.2-0.3,0.4-0.4l14.6-8.4
			c0.3-0.2,0.7-0.2,1,0l50.8,29.3c0.5,0.3,0.6,0.9,0.4,1.4c-0.1,0.2-0.2,0.3-0.4,0.4l-14.6,8.4C162.8,233.9,162.6,233.9,162.5,233.9
			z M113.7,203.6l48.8,28.2l12.6-7.2l-48.8-28.2L113.7,203.6z"/>
		<polygon class="st2" points="134.3,199.8 168.9,219.8 154.4,228.2 119.8,208.2 		"/>
		<polygon class="st0" points="119.8,219.7 154.4,239.6 154.4,228.2 119.8,208.2 		"/>
		<path class="st3" d="M149.7,238c-0.2,0-0.3,0-0.5-0.1L124,223.3c-0.3-0.2-0.5-0.5-0.5-0.9V211c0-0.6,0.4-1,1-1
			c0.2,0,0.3,0,0.5,0.1l25.2,14.6c0.3,0.2,0.5,0.5,0.5,0.9V237C150.7,237.5,150.2,238,149.7,238L149.7,238z M125.4,221.8l23.2,13.4
			v-9.1l-23.2-13.4L125.4,221.8z"/>
		<path class="st0" d="M149.7,226.5c-0.2,0-0.3,0-0.5-0.1L124,211.8c-0.5-0.3-0.6-0.9-0.4-1.4c0.1-0.2,0.2-0.3,0.4-0.4l14.6-8.4
			c0.3-0.2,0.7-0.2,1,0l25.2,14.6c0.5,0.3,0.6,0.9,0.4,1.4c-0.1,0.2-0.2,0.3-0.4,0.4l-14.6,8.4C150,226.5,149.9,226.5,149.7,226.5z
			 M126.4,210.9l23.2,13.4l12.6-7.2L139,203.7L126.4,210.9z"/>
		<path class="st3" d="M154.4,229.2c-0.2,0-0.3,0-0.5-0.1l-34.6-20c-0.5-0.3-0.6-0.9-0.4-1.4c0.3-0.5,0.9-0.6,1.4-0.4l0,0l34.6,20
			c0.5,0.3,0.6,0.9,0.4,1.4C155,229,154.7,229.2,154.4,229.2z"/>
		<path class="st3" d="M168.9,220.8c-0.2,0-0.3,0-0.5-0.1l-34.6-20c-0.5-0.3-0.6-0.9-0.4-1.4s0.9-0.6,1.4-0.4l34.6,20
			c0.5,0.3,0.6,0.9,0.4,1.4C169.6,220.6,169.3,220.8,168.9,220.8z"/>
		<path class="st3" d="M154.4,240.6c-0.2,0-0.3,0-0.5-0.1l-34.6-20c-0.5-0.3-0.6-0.9-0.4-1.4s0.9-0.6,1.4-0.4l34.6,20
			c0.5,0.3,0.6,0.9,0.4,1.4C155,240.5,154.7,240.6,154.4,240.6z"/>
		<path class="st0" d="M248.4,205.7c-0.6,0-1-0.4-1-1c0-0.4,0.2-0.7,0.5-0.9l50.8-29.3c0.5-0.3,1.1-0.1,1.4,0.4s0.1,1.1-0.4,1.4l0,0
			l-50.8,29.3C248.8,205.6,248.6,205.7,248.4,205.7z"/>
		<path class="st0" d="M191.6,205.7c-0.2,0-0.3,0-0.5-0.1l-50.8-29.3c-0.5-0.3-0.6-0.9-0.4-1.4c0.3-0.5,0.9-0.6,1.4-0.4l0,0
			l50.8,29.3c0.5,0.3,0.6,0.9,0.4,1.4C192.3,205.5,191.9,205.7,191.6,205.7z"/>
		<rect x="191.6" y="204.7" class="st0" width="56.9" height="11.4"/>
		<path class="st3" d="M248.4,217.1h-56.9c-0.6,0-1-0.4-1-1v-11.4c0-0.6,0.4-1,1-1h56.9c0.6,0,1,0.4,1,1v11.4
			C249.4,216.7,249,217.1,248.4,217.1z M192.6,215.1h54.9v-9.4h-54.9V215.1z"/>
		<polygon class="st2" points="263,213.1 263,224.5 263,224.5 263,224.5 263,224.5 277.5,232.9 277.5,244.3 277.5,244.3 
			277.5,244.3 277.5,244.3 292.1,252.7 292.1,264.2 292.1,264.2 292.1,264.2 292.1,264.2 248.4,239 248.4,216.1 248.4,204.7 		"/>
		<path class="st3" d="M292.1,265.2c-0.2,0-0.3,0-0.5-0.1l-43.7-25.2c-0.3-0.2-0.5-0.5-0.5-0.9v-34.3c0-0.6,0.4-1,1-1
			c0.2,0,0.3,0,0.5,0.1l14.5,8.4c0.3,0.2,0.5,0.5,0.5,0.9V224l14.1,8c0.3,0.2,0.5,0.5,0.5,0.9v10.9l14.1,8.1
			c0.3,0.2,0.5,0.5,0.5,0.9v11.4C293.1,264.7,292.6,265.2,292.1,265.2L292.1,265.2z M249.4,238.4l41.7,24v-9.1l-14.1-8.1
			c-0.3-0.2-0.5-0.5-0.5-0.9v-10.9l-14.1-8.1c-0.3-0.2-0.5-0.5-0.5-0.9v-10.9l-12.6-7.2L249.4,238.4z"/>
		<polygon class="st0" points="292.1,264.2 342.9,234.8 342.9,223.4 292.1,252.7 		"/>
		<path class="st3" d="M292.1,265.2c-0.6,0-1-0.4-1-1v-11.4c0-0.4,0.2-0.7,0.5-0.9l50.8-29.3c0.5-0.3,1.1-0.1,1.4,0.4
			c0.1,0.2,0.1,0.3,0.1,0.5v11.4c0,0.4-0.2,0.7-0.5,0.9L292.6,265C292.4,265.1,292.3,265.2,292.1,265.2z M293.1,253.3v9.1l48.8-28.2
			v-9.1L293.1,253.3z"/>
		<polygon class="st2" points="292.1,252.7 277.5,244.3 328.3,215 342.9,223.4 		"/>
		<path class="st3" d="M292.1,253.7c-0.2,0-0.3,0-0.5-0.1l-14.6-8.4c-0.5-0.3-0.6-0.9-0.4-1.4c0.1-0.2,0.2-0.3,0.4-0.4l50.8-29.3
			c0.3-0.2,0.7-0.2,1,0l14.6,8.4c0.5,0.3,0.6,0.9,0.4,1.4c-0.1,0.2-0.2,0.3-0.4,0.4l-50.8,29.3C292.4,253.7,292.3,253.7,292.1,253.7
			z M279.5,244.3l12.6,7.2l48.8-28.2l-12.6-7.2L279.5,244.3z"/>
		<polygon class="st0" points="334.8,239.5 300.2,259.5 300.2,248.1 334.8,228.1 		"/>
		<path class="st3" d="M304.9,257.8c-0.6,0-1-0.4-1-1v-11.4c0-0.4,0.2-0.7,0.5-0.9l25.2-14.6c0.5-0.3,1.1-0.1,1.4,0.4
			c0.1,0.2,0.1,0.3,0.1,0.5v11.4c0,0.4-0.2,0.7-0.5,0.9l-25.2,14.6C305.2,257.7,305,257.8,304.9,257.8z M305.9,245.9v9.1l23.2-13.4
			v-9.1L305.9,245.9z"/>
		<polygon class="st2" points="320.2,219.7 285.6,239.6 300.2,248.1 334.8,228.1 		"/>
		<path class="st0" d="M304.9,246.4c-0.2,0-0.3,0-0.5-0.1l-14.6-8.4c-0.5-0.3-0.6-0.9-0.4-1.4c0.1-0.2,0.2-0.3,0.4-0.4l25.2-14.6
			c0.3-0.2,0.7-0.2,1,0l14.5,8.4c0.5,0.3,0.6,0.9,0.4,1.4c-0.1,0.2-0.2,0.3-0.4,0.4l-25.2,14.6C305.2,246.3,305,246.4,304.9,246.4z
			 M292.3,237l12.6,7.2l23.2-13.4l-12.5-7.2L292.3,237z"/>
		<path class="st3" d="M300.2,249.1c-0.6,0-1-0.4-1-1c0-0.4,0.2-0.7,0.5-0.9l34.6-20c0.5-0.3,1.1-0.1,1.4,0.4s0.1,1.1-0.4,1.4l0,0
			l-34.6,20C300.5,249,300.4,249.1,300.2,249.1z"/>
		<path class="st1" d="M300.2,260.5c-0.2,0-0.3,0-0.5-0.1c-0.3-0.2-0.5-0.5-0.5-0.9v-10.9l-14-8.1c-0.5-0.3-0.6-0.9-0.4-1.4
			c0.1-0.2,0.2-0.3,0.4-0.4l34.6-20c0.3-0.2,0.7-0.2,1,0l14.5,8.4c0.3,0.2,0.5,0.5,0.5,0.9v11.4c0,0.4-0.2,0.7-0.5,0.9l-34.6,20
			C300.5,260.4,300.4,260.5,300.2,260.5z M287.6,239.6l13,7.5c0.3,0.2,0.5,0.5,0.5,0.9v9.7l32.6-18.8v-10.3l-13.5-7.8L287.6,239.6z"
			/>
		<polygon class="st0" points="277.5,244.3 328.3,215 328.3,203.6 277.5,232.9 		"/>
		<path class="st3" d="M277.5,245.3c-0.6,0-1-0.4-1-1v-11.4c0-0.4,0.2-0.7,0.5-0.9l50.8-29.3c0.5-0.3,1.1-0.1,1.4,0.4
			c0.1,0.2,0.1,0.3,0.1,0.5V215c0,0.4-0.2,0.7-0.5,0.9L278,245.2C277.9,245.3,277.7,245.3,277.5,245.3z M278.5,233.5v9.1l48.8-28.2
			v-9.1L278.5,233.5z"/>
		<polygon class="st2" points="277.5,232.9 263,224.5 313.8,195.2 328.3,203.6 		"/>
		<path class="st3" d="M277.5,233.9c-0.2,0-0.3,0-0.5-0.1l-14.6-8.4c-0.5-0.3-0.6-0.9-0.4-1.4c0.1-0.2,0.2-0.3,0.4-0.4l50.8-29.3
			c0.3-0.2,0.7-0.2,1,0l14.6,8.4c0.5,0.3,0.6,0.9,0.4,1.4c-0.1,0.2-0.2,0.3-0.4,0.4L278,233.8C277.9,233.9,277.7,233.9,277.5,233.9z
			 M265,224.5l12.6,7.2l48.8-28.2l-12.6-7.2L265,224.5z"/>
		<polygon class="st0" points="320.2,219.7 285.6,239.6 285.6,228.2 320.2,208.2 		"/>
		<path class="st3" d="M290.3,238c-0.6,0-1-0.4-1-1v-11.4c0-0.4,0.2-0.7,0.5-0.9l25.2-14.6c0.5-0.3,1.1-0.1,1.4,0.4
			c0.1,0.2,0.1,0.3,0.1,0.5v11.4c0,0.4-0.2,0.7-0.5,0.9l-25.2,14.6C290.7,237.9,290.5,238,290.3,238z M291.3,226.1v9.1l23.2-13.4
			v-9.1L291.3,226.1z"/>
		<polygon class="st2" points="305.7,199.8 271.1,219.8 285.6,228.2 320.2,208.2 		"/>
		<path class="st0" d="M290.3,226.5c-0.2,0-0.3,0-0.5-0.1l-14.6-8.4c-0.5-0.3-0.6-0.9-0.4-1.4c0.1-0.2,0.2-0.3,0.4-0.4l25.2-14.6
			c0.3-0.2,0.7-0.2,1,0L316,210c0.5,0.3,0.6,0.9,0.4,1.4c-0.1,0.2-0.2,0.3-0.4,0.4l-25.2,14.6C290.7,226.5,290.5,226.5,290.3,226.5z
			 M277.8,217.1l12.6,7.2l23.2-13.4l-12.6-7.2L277.8,217.1z"/>
		<path class="st3" d="M285.6,229.2c-0.6,0-1-0.4-1-1c0-0.4,0.2-0.7,0.5-0.9l34.6-20c0.5-0.3,1.1-0.1,1.4,0.4s0.1,1.1-0.4,1.4l0,0
			l-34.6,20C286,229.2,285.8,229.2,285.6,229.2z"/>
		<path class="st1" d="M285.6,240.6c-0.6,0-1-0.4-1-1v-10.9l-14.1-8.1c-0.5-0.3-0.6-0.9-0.4-1.4c0.1-0.2,0.2-0.3,0.4-0.4l34.6-20
			c0.3-0.2,0.7-0.2,1,0l14.6,8.4c0.3,0.2,0.5,0.5,0.5,0.9v11.4c0,0.4-0.2,0.7-0.5,0.9l-34.6,20C286,240.6,285.8,240.6,285.6,240.6z
			 M273.1,219.8l13.1,7.5c0.3,0.2,0.5,0.5,0.5,0.9v9.7l32.6-18.8v-10.3l-13.6-7.8L273.1,219.8z"/>
		<polygon class="st0" points="263,224.5 313.8,195.2 313.8,183.7 263,213.1 		"/>
		<path class="st3" d="M263,225.5c-0.6,0-1-0.4-1-1v-11.4c0-0.4,0.2-0.7,0.5-0.9l50.8-29.3c0.5-0.3,1.1-0.1,1.4,0.4
			c0.1,0.2,0.1,0.3,0.1,0.5v11.4c0,0.4-0.2,0.7-0.5,0.9l-50.8,29.3C263.3,225.5,263.2,225.5,263,225.5z M264,213.6v9.1l48.8-28.2
			v-9.1L264,213.6z"/>
		<polygon class="st0" points="305.7,199.8 271.1,219.8 271.1,208.4 305.7,188.4 		"/>
		<path class="st3" d="M275.8,218.1c-0.6,0-1-0.4-1-1v-11.4c0-0.4,0.2-0.7,0.5-0.9l25.2-14.6c0.5-0.3,1.1-0.1,1.4,0.4
			c0.1,0.2,0.1,0.3,0.1,0.5v11.4c0,0.4-0.2,0.7-0.5,0.9L276.3,218C276.1,218.1,275.9,218.1,275.8,218.1z M276.8,206.3v9.1L300,202
			v-9.1L276.8,206.3z"/>
		<polygon class="st0" points="177,213.1 177,224.5 177,224.5 177,224.5 177,224.5 162.5,232.9 162.5,244.3 162.5,244.3 
			162.5,244.3 162.5,244.3 147.9,252.7 147.9,264.2 147.9,264.2 147.9,264.2 147.9,264.2 147.9,264.2 191.6,239 191.6,216.1 
			191.6,204.7 		"/>
		<path class="st3" d="M147.9,265.2c-0.6,0-1-0.4-1-1v-11.4c0-0.4,0.2-0.7,0.5-0.9l14.1-8.1v-10.9c0-0.4,0.2-0.7,0.5-0.9l14.1-8.1
			V213c0-0.4,0.2-0.7,0.5-0.9l14.6-8.4c0.5-0.3,1.1-0.1,1.4,0.4c0.1,0.2,0.1,0.3,0.1,0.5V239c0,0.4-0.2,0.7-0.5,0.9L148.4,265
			C148.3,265.1,148.1,265.2,147.9,265.2z M148.9,253.3v9.1l41.7-24v-32l-12.6,7.2v10.9c0,0.4-0.2,0.7-0.5,0.9l-14.1,8.1v10.9
			c0,0.4-0.2,0.7-0.5,0.9L148.9,253.3z"/>
		<polygon class="st2" points="177,224.5 126.2,195.2 126.2,183.7 177,213.1 		"/>
		<path class="st3" d="M177,225.5c-0.2,0-0.3,0-0.5-0.1L125.7,196c-0.3-0.2-0.5-0.5-0.5-0.9v-11.4c0-0.6,0.4-1,1-1
			c0.2,0,0.3,0,0.5,0.1l50.8,29.3c0.3,0.2,0.5,0.5,0.5,0.9v11.4C178,225.1,177.6,225.5,177,225.5z M127.2,194.6l48.8,28.2v-9.1
			l-48.8-28.2V194.6z"/>
		<polygon class="st0" points="134.3,199.8 168.9,219.8 168.9,208.4 134.3,188.4 		"/>
		<path class="st3" d="M164.2,218.1c-0.2,0-0.3,0-0.5-0.1l-25.2-14.6c-0.3-0.2-0.5-0.5-0.5-0.9v-11.4c0-0.6,0.4-1,1-1
			c0.2,0,0.3,0,0.5,0.1l25.2,14.6c0.3,0.2,0.5,0.5,0.5,0.9v11.4C165.2,217.7,164.8,218.1,164.2,218.1L164.2,218.1z M140,202
			l23.2,13.4v-9.1L140,192.8V202z"/>
		<path class="st3" d="M271.1,209.4c-0.6,0-1-0.4-1-1c0-0.4,0.2-0.7,0.5-0.9l34.6-20c0.5-0.3,1.1-0.1,1.4,0.4s0.1,1.1-0.4,1.4
			l-34.6,20C271.4,209.3,271.3,209.4,271.1,209.4z"/>
		<path class="st3" d="M168.9,209.4c-0.2,0-0.3,0-0.5-0.1l-34.6-20c-0.5-0.3-0.6-0.9-0.4-1.4c0.3-0.5,0.9-0.6,1.4-0.4l0,0l34.6,20
			c0.5,0.3,0.6,0.9,0.4,1.4C169.6,209.2,169.3,209.4,168.9,209.4z"/>
		<path class="st3" d="M168.9,220.8c-0.2,0-0.3,0-0.5-0.1l-34.6-20c-0.5-0.3-0.6-0.9-0.4-1.4s0.9-0.6,1.4-0.4l34.6,20
			c0.5,0.3,0.6,0.9,0.4,1.4C169.6,220.6,169.3,220.8,168.9,220.8z"/>
		<path class="st3" d="M139.8,260.5c-0.2,0-0.3,0-0.5-0.1l-34.6-20c-0.5-0.3-0.6-0.9-0.4-1.4s0.9-0.6,1.4-0.4l34.6,20
			c0.5,0.3,0.6,0.9,0.4,1.4C140.5,260.3,140.2,260.5,139.8,260.5z"/>
		<path class="st3" d="M271.1,220.8c-0.6,0-1-0.4-1-1c0-0.4,0.2-0.7,0.5-0.9l34.6-20c0.5-0.3,1.1-0.1,1.4,0.4s0.1,1.1-0.4,1.4
			l-34.6,20C271.4,220.8,271.3,220.8,271.1,220.8z"/>
		<path class="st3" d="M285.6,240.6c-0.6,0-1-0.4-1-1c0-0.4,0.2-0.7,0.5-0.9l34.6-20c0.5-0.3,1.1-0.1,1.4,0.4s0.1,1.1-0.4,1.4
			l-34.6,20C286,240.6,285.8,240.6,285.6,240.6z"/>
		<path class="st3" d="M300.2,260.5c-0.6,0-1-0.4-1-1c0-0.4,0.2-0.7,0.5-0.9l34.6-20c0.5-0.3,1.1-0.1,1.4,0.4s0.1,1.1-0.4,1.4
			l-34.6,20C300.5,260.4,300.4,260.5,300.2,260.5z"/>
		<polygon class="st2" points="299.2,175.3 248.4,146 248.4,146 191.6,146 140.8,175.3 126.2,183.7 177,213.1 191.6,204.7 
			248.4,204.7 263,213.1 313.8,183.7 		"/>
		<path class="st3" d="M263,214.1c-0.2,0-0.3,0-0.5-0.1l-14.3-8.3h-56.3l-14.3,8.3c-0.3,0.2-0.7,0.2-1,0l-50.8-29.3
			c-0.5-0.3-0.6-0.9-0.4-1.4c0.1-0.2,0.2-0.3,0.4-0.4l65.4-37.7c0.2-0.1,0.3-0.1,0.5-0.1h56.9c0.2,0,0.3,0,0.5,0.1l65.4,37.7
			c0.5,0.3,0.6,0.9,0.4,1.4c-0.1,0.2-0.2,0.3-0.4,0.4L263.7,214C263.3,214,263.2,214.1,263,214.1z M191.6,203.7h56.9
			c0.2,0,0.3,0,0.5,0.1l14.1,8.1l48.8-28.2l-13-7.5l0,0L248.2,147h-56.3l-63.6,36.7l48.8,28.2l14-8.1
			C191.2,203.7,191.4,203.7,191.6,203.7L191.6,203.7z"/>
		<path class="st0" d="M241.1,178.2c-0.6,0-1-0.4-1-1v-3.7c0-0.6,0.4-1,1-1s1,0.4,1,1v3.7C242.1,177.7,241.6,178.2,241.1,178.2z"/>
		<path class="st0" d="M248.4,205.7c-0.6,0-1-0.4-1-1c0-0.4,0.2-0.7,0.5-0.9l50.8-29.3c0.5-0.3,1.1-0.1,1.4,0.4s0.1,1.1-0.4,1.4l0,0
			l-50.8,29.3C248.8,205.6,248.6,205.7,248.4,205.7z"/>
		<path class="st0" d="M198.9,178.2c-0.6,0-1-0.4-1-1v-3.7c0-0.6,0.4-1,1-1s1,0.4,1,1v3.7C199.9,177.7,199.5,178.2,198.9,178.2z"/>
		<path class="st0" d="M191.6,205.7c-0.2,0-0.3,0-0.5-0.1l-50.8-29.3c-0.5-0.3-0.6-0.9-0.4-1.4c0.3-0.5,0.9-0.6,1.4-0.4l0,0
			l50.8,29.3c0.5,0.3,0.6,0.9,0.4,1.4C192.3,205.5,191.9,205.7,191.6,205.7z"/>
		<polygon class="st2" points="153.8,177.2 188.4,197.1 168.9,208.4 134.3,188.4 		"/>
		<polygon class="st2" points="286.2,177.2 251.6,197.1 271.1,208.4 305.7,188.4 		"/>
		<path class="st0" d="M275.8,206.7c-0.2,0-0.3,0-0.5-0.1l-14.6-8.4c-0.5-0.3-0.6-0.9-0.4-1.4c0.1-0.2,0.2-0.3,0.4-0.4l25.2-14.6
			c0.3-0.2,0.7-0.2,1,0l14.6,8.4c0.5,0.3,0.6,0.9,0.4,1.4c-0.1,0.2-0.2,0.3-0.4,0.4l-25.2,14.6C276.1,206.6,275.9,206.7,275.8,206.7
			z M263.2,197.3l12.6,7.2l23.2-13.4l-12.6-7.2L263.2,197.3z"/>
		<path class="st3" d="M271.1,209.4c-0.6,0-1-0.4-1-1c0-0.4,0.2-0.7,0.5-0.9l34.6-20c0.5-0.3,1.1-0.1,1.4,0.4s0.1,1.1-0.4,1.4
			l-34.6,20C271.4,209.3,271.3,209.4,271.1,209.4z"/>
		<path class="st3" d="M263,214.1c-0.2,0-0.3,0-0.5-0.1l-14.3-8.3h-56.3l-14.3,8.3c-0.5,0.3-1.1,0.1-1.4-0.4s-0.1-1.1,0.4-1.4
			l14.5-8.4c0.2-0.1,0.3-0.1,0.5-0.1h56.9c0.2,0,0.3,0,0.5,0.1l14.5,8.4c0.5,0.3,0.6,0.9,0.4,1.4C263.7,213.9,263.3,214.1,263,214.1
			L263,214.1z"/>
		<path class="st3" d="M313.8,184.7c-0.2,0-0.3,0-0.5-0.1L248.2,147h-56.3l-65.1,37.6c-0.5,0.3-1.1,0.1-1.4-0.4s-0.1-1.1,0.4-1.4
			l65.4-37.7c0.2-0.1,0.3-0.1,0.5-0.1h56.9c0.2,0,0.3,0,0.5,0.1l65.4,37.7c0.5,0.3,0.6,0.9,0.4,1.4
			C314.5,184.5,314.1,184.7,313.8,184.7L313.8,184.7z"/>
		<path class="st1" d="M300.2,260.5c-0.2,0-0.3,0-0.5-0.1c-0.3-0.2-0.5-0.5-0.5-0.9v-10.9l-14-8.1c-0.3-0.2-0.5-0.5-0.5-0.9v-10.9
			l-14-8.1c-0.3-0.2-0.5-0.5-0.5-0.9V209l-19-10.9c-0.5-0.3-0.6-0.9-0.4-1.4c0.1-0.2,0.2-0.3,0.4-0.4l34.6-20c0.3-0.2,0.7-0.2,1,0
			l19.5,11.2c0.3,0.2,0.5,0.5,0.5,0.9v10.9l14.1,8.1c0.3,0.2,0.5,0.5,0.5,0.9v10.9l14,8.1c0.3,0.2,0.5,0.5,0.5,0.9v11.4
			c0,0.4-0.2,0.7-0.5,0.9l-34.6,20C300.5,260.4,300.4,260.5,300.2,260.5z M286.6,239.1l14,8.1c0.3,0.2,0.5,0.5,0.5,0.9v9.7
			l32.6-18.8v-10.3l-14-8.1c-0.3-0.2-0.5-0.5-0.5-0.9v-10.9l-14.1-8.1c-0.3-0.2-0.5-0.5-0.5-0.9V189l-18.5-10.7l-32.6,18.8l18,10.4
			c0.3,0.2,0.5,0.5,0.5,0.9v10.9l14.1,8.1c0.3,0.2,0.5,0.5,0.5,0.9V239.1z"/>
		<path class="st0" d="M164.2,206.7c-0.2,0-0.3,0-0.5-0.1L138.5,192c-0.5-0.3-0.6-0.9-0.4-1.4c0.1-0.2,0.2-0.3,0.4-0.4l14.6-8.4
			c0.3-0.2,0.7-0.2,1,0l25.2,14.6c0.5,0.3,0.6,0.9,0.4,1.4c-0.1,0.2-0.2,0.3-0.4,0.4l-14.6,8.4C164.6,206.6,164.4,206.7,164.2,206.7
			z M141,191.1l23.2,13.4l12.6-7.2l-23.2-13.4L141,191.1z"/>
		<path class="st3" d="M168.9,209.4c-0.2,0-0.3,0-0.5-0.1l-34.6-20c-0.5-0.3-0.6-0.9-0.4-1.4c0.3-0.5,0.9-0.6,1.4-0.4l0,0l34.6,20
			c0.5,0.3,0.6,0.9,0.4,1.4C169.6,209.2,169.3,209.4,168.9,209.4z"/>
		<path class="st1" d="M139.8,260.5c-0.2,0-0.3,0-0.5-0.1l-34.6-20c-0.3-0.2-0.5-0.5-0.5-0.9v-11.4c0-0.4,0.2-0.7,0.5-0.9l14.1-8.1
			v-10.9c0-0.4,0.2-0.7,0.5-0.9l14.1-8.1v-10.9c0-0.4,0.2-0.7,0.5-0.9l19.5-11.2c0.3-0.2,0.7-0.2,1,0l34.6,20
			c0.5,0.3,0.6,0.9,0.4,1.4c-0.1,0.2-0.2,0.3-0.4,0.4l-19,10.9v10.9c0,0.4-0.2,0.7-0.5,0.9l-14.1,8.1v10.9c0,0.4-0.2,0.7-0.5,0.9
			l-14.1,8.1v10.9c0,0.4-0.2,0.7-0.5,0.9C140.2,260.4,140,260.5,139.8,260.5z M106.2,238.9l32.6,18.8V248c0-0.4,0.2-0.7,0.5-0.9
			l14-8.1v-10.9c0-0.4,0.2-0.7,0.5-0.9l14.1-8.1v-10.9c0-0.4,0.2-0.7,0.5-0.9l18-10.4l-32.6-18.8L135.3,189v10.9
			c0,0.4-0.2,0.7-0.5,0.9l-14.1,8.1v10.9c0,0.4-0.2,0.7-0.5,0.9l-14.1,8.1L106.2,238.9z"/>
		<path class="st1" d="M147.9,265.2c-0.2,0-0.3,0-0.5-0.1l-50.8-29.3c-0.3-0.2-0.5-0.5-0.5-0.9v-11.4c0-0.4,0.2-0.7,0.5-0.9
			l14.1-8.1v-10.9c0-0.4,0.2-0.7,0.5-0.9l14.1-8.1v-10.9c0-0.4,0.2-0.7,0.5-0.9l65.4-37.7c0.2-0.1,0.3-0.1,0.5-0.1h56.9
			c0.2,0,0.3,0,0.5,0.1l65.4,37.7c0.3,0.2,0.5,0.5,0.5,0.9v10.9l14.1,8.1c0.3,0.2,0.5,0.5,0.5,0.9v10.9l14.1,8.1
			c0.3,0.2,0.5,0.5,0.5,0.9v11.4c0,0.4-0.2,0.7-0.5,0.9L292.6,265c-0.3,0.2-0.7,0.2-1,0l-43.7-25.2c-0.3-0.2-0.5-0.5-0.5-0.9V217
			h-54.9v22c0,0.4-0.2,0.7-0.5,0.9L148.4,265C148.3,265.1,148.1,265.2,147.9,265.2z M98.1,234.3l49.8,28.8l42.7-24.6v-22.3
			c0-0.6,0.4-1,1-1h56.9c0.6,0,1,0.4,1,1v22.3l42.7,24.6l49.8-28.8V224l-14.1-8.1c-0.3-0.2-0.5-0.5-0.5-0.9v-10.9l-14.1-8.1
			c-0.3-0.2-0.5-0.5-0.5-0.9v-10.9L248.2,147h-56.3l-64.6,37.3v10.9c0,0.4-0.2,0.7-0.5,0.9l-14.1,8.1V215c0,0.4-0.2,0.7-0.5,0.9
			L98.1,224V234.3z"/>
		<polygon class="st2" points="417.8,211.5 400.6,201.5 366,221.5 300.2,259.5 317.5,269.5 334.8,279.5 400.6,241.5 435.1,221.5 		
			"/>
		<path class="st1" d="M334.8,280.5c-0.2,0-0.3,0-0.5-0.1l-34.6-20c-0.5-0.3-0.6-0.9-0.4-1.4c0.1-0.2,0.2-0.3,0.4-0.4l100.4-57.9
			c0.3-0.2,0.7-0.2,1,0l17.3,10l0,0l17.3,10c0.5,0.3,0.6,0.9,0.4,1.4c-0.1,0.2-0.2,0.3-0.4,0.4l-100.4,57.9
			C335.1,280.4,335,280.5,334.8,280.5z M302.2,259.5l32.6,18.8l98.4-56.8l-32.6-18.8L302.2,259.5z"/>
		<path class="st0" d="M334.8,275.1c-0.2,0-0.3,0-0.5-0.1L309,260.4c-0.5-0.3-0.6-0.9-0.4-1.4c0.1-0.2,0.2-0.3,0.4-0.4l91-52.5
			c0.3-0.2,0.7-0.2,1,0l25.2,14.6c0.5,0.3,0.6,0.9,0.4,1.4c-0.1,0.2-0.2,0.3-0.4,0.4l-91,52.5C335.1,275,335,275.1,334.8,275.1z
			 M311.5,259.5l23.2,13.4l89-51.4l-23.2-13.4L311.5,259.5z"/>
		<path class="st1" d="M396.9,235.4c-1.9,0-3.7-0.3-5.5-0.9c-0.5-0.2-0.8-0.8-0.6-1.3c0.2-0.5,0.8-0.8,1.3-0.6l0,0
			c10.2,3.9,26.9-5.9,37.2-21.8c0.3-0.5,0.9-0.6,1.4-0.3s0.6,0.9,0.3,1.4l0,0C421.9,226,407.7,235.4,396.9,235.4z"/>
		<path class="st0" d="M436.5,207.6v26.8c0,1-1.4,1.8-3.1,1.8s-3.1-0.8-3.1-1.8v-26.8H436.5z"/>
		<path class="st1" d="M433.3,237.2c-2.4,0-4.1-1.2-4.1-2.8v-26.8c0-0.6,0.4-1,1-1h6.3c0.6,0,1,0.4,1,1v26.8
			C437.5,236,435.7,237.2,433.3,237.2z M431.2,208.6v25.8c0,0.2,0.8,0.8,2.1,0.8c1.4,0,2.1-0.6,2.1-0.8v-25.8H431.2z"/>
		<path class="st2" d="M433.3,207.6h-3.1v26.8c0,1,1.4,1.8,3.1,1.8V207.6z"/>
		<circle class="st2" cx="433.3" cy="203.4" r="5.7"/>
		<path class="st3" d="M433.3,210c-3.7,0-6.7-3-6.7-6.7c0-2.4,1.3-4.6,3.3-5.8c0.5-0.3,1.1-0.1,1.4,0.4s0.1,1-0.4,1.3
			c-0.4,0.2-0.7,0.5-1,0.7c-0.6,0.6-1,1.3-1.2,2.1c-0.3,1.2-0.2,2.5,0.5,3.5c1.1,1.8,3.2,2.7,5.2,2.2c0.8-0.2,1.5-0.6,2.1-1.2
			c0.6-0.6,1-1.3,1.2-2.1c0.5-2-0.3-4.2-2.2-5.2c-0.5-0.3-0.6-0.9-0.3-1.4c0.3-0.4,0.9-0.6,1.3-0.4c3.2,1.8,4.3,5.9,2.4,9.1
			c-0.3,0.5-0.6,1-1.1,1.4c-0.4,0.4-0.9,0.8-1.4,1.1s-1,0.5-1.6,0.7C434.5,210,433.9,210,433.3,210z"/>
		<path class="st1" d="M433.3,237.2c-2.4,0-4.1-1.2-4.1-2.8v-26.3c0-0.6,0.4-1,1-1s1,0.4,1,1v26.3c0,0.2,0.8,0.8,2.1,0.8
			c1.4,0,2.1-0.6,2.1-0.8v-26.3c0-0.6,0.4-1,1-1s1,0.4,1,1v26.3C437.5,236,435.7,237.2,433.3,237.2z"/>
		<path class="st1" d="M436.2,209.3c-0.6,0-1-0.4-1-1c0-0.4,0.2-0.7,0.5-0.9c0.4-0.2,0.7-0.5,1-0.7c0.6-0.6,1-1.3,1.2-2.1
			c0.5-2-0.3-4.2-2.2-5.2c-0.4-0.2-0.7-0.4-1.1-0.5c-0.8-0.2-1.6-0.2-2.4,0c-0.4,0.1-0.8,0.3-1.1,0.5c-0.4,0.2-0.7,0.5-1,0.7
			c-0.6,0.6-1,1.3-1.2,2.1c-0.3,1.2-0.2,2.5,0.5,3.5c0.4,0.7,1,1.3,1.7,1.7c0.5,0.3,0.6,0.9,0.3,1.4c-0.3,0.4-0.8,0.6-1.3,0.3
			c-1-0.6-1.9-1.4-2.4-2.4c-0.6-1-0.9-2.2-0.9-3.3c0-3.7,3-6.7,6.7-6.7c0.6,0,1.2,0.1,1.7,0.2c0.6,0.1,1.1,0.4,1.6,0.7
			c1,0.6,1.9,1.4,2.4,2.4c1.2,2.1,1.2,4.6,0,6.7c-0.3,0.5-0.6,1-1.1,1.4c-0.4,0.4-0.9,0.8-1.4,1.1
			C436.5,209.2,436.3,209.3,436.2,209.3z"/>
		<circle class="st2" cx="431" cy="201.8" r="1.3"/>
		<path class="st1" d="M355.3,259.4c-1.9,0-3.7-0.3-5.5-0.9c-0.5-0.2-0.8-0.8-0.6-1.3c0.2-0.5,0.8-0.8,1.3-0.6
			c10.2,3.9,26.9-5.9,37.2-21.8c0.3-0.5,0.9-0.6,1.4-0.3c0.4,0.3,0.6,0.9,0.3,1.4C380.3,250,366.1,259.4,355.3,259.4z"/>
		<path class="st0" d="M353.3,255.6v26.8c0,1-1.4,1.8-3.1,1.8s-3.1-0.8-3.1-1.8v-26.8L353.3,255.6z"/>
		<path class="st1" d="M350.2,285.2c-2.4,0-4.1-1.2-4.1-2.8v-26.8c0-0.6,0.4-1,1-1h6.3c0.6,0,1,0.4,1,1v26.8
			C354.3,284,352.5,285.2,350.2,285.2z M348,256.6v25.8c0,0.2,0.8,0.8,2.1,0.8s2.1-0.6,2.1-0.8v-25.8H348z"/>
		<path class="st2" d="M350.2,255.6H347v26.8c0,1,1.4,1.8,3.1,1.8v-28.6H350.2z"/>
		<circle class="st2" cx="350.2" cy="251.4" r="5.7"/>
		<path class="st3" d="M350.2,258.1c-0.6,0-1.2-0.1-1.7-0.2c-0.6-0.2-1.1-0.4-1.6-0.7c-0.5-0.3-1-0.6-1.4-1.1
			c-2.6-2.6-2.6-6.8,0-9.4c0.4-0.4,0.9-0.8,1.4-1.1s1.1-0.1,1.3,0.4c0.2,0.5,0.1,1-0.3,1.3c-0.4,0.2-0.7,0.5-1,0.7
			c-0.6,0.6-1,1.3-1.2,2.1s-0.2,1.6,0,2.4c0.1,0.4,0.3,0.8,0.5,1.1c0.4,0.7,1,1.3,1.7,1.7c0.4,0.2,0.7,0.4,1.1,0.5
			c0.8,0.2,1.6,0.2,2.4,0c0.4-0.1,0.8-0.3,1.1-0.5c0.7-0.4,1.3-1,1.7-1.7c0.4-0.7,0.6-1.5,0.6-2.3c0-1.7-0.9-3.2-2.3-4
			c-0.5-0.3-0.6-0.9-0.3-1.4c0.3-0.4,0.8-0.6,1.3-0.3c3.2,1.8,4.3,5.9,2.4,9.1c-0.6,1-1.4,1.8-2.4,2.4
			C352.5,257.8,351.3,258.1,350.2,258.1L350.2,258.1z"/>
		<path class="st1" d="M350.2,285.2c-2.4,0-4.1-1.2-4.1-2.8v-26.3c0-0.6,0.4-1,1-1s1,0.4,1,1v26.3c0,0.2,0.8,0.8,2.1,0.8
			s2.1-0.6,2.1-0.8v-26.3c0-0.6,0.4-1,1-1s1,0.4,1,1v26.3C354.3,284,352.5,285.2,350.2,285.2z"/>
		<path class="st1" d="M353,257.3c-0.6,0-1-0.4-1-1c0-0.4,0.2-0.7,0.5-0.9c0.7-0.4,1.3-1,1.7-1.7c0.4-0.7,0.6-1.5,0.6-2.3
			c0-2.6-2.1-4.7-4.7-4.7c-0.4,0-0.8,0.1-1.2,0.2c-0.4,0.1-0.8,0.3-1.1,0.5c-1.8,1.1-2.7,3.2-2.2,5.2c0.1,0.4,0.3,0.8,0.5,1.1
			c0.4,0.7,1,1.3,1.7,1.7c0.5,0.3,0.6,0.9,0.3,1.4c-0.3,0.4-0.9,0.6-1.3,0.4c-1-0.6-1.9-1.4-2.4-2.4c-0.3-0.5-0.5-1-0.7-1.6
			c-0.3-1.1-0.3-2.3,0-3.4c0.3-1.1,0.9-2.2,1.7-3c0.4-0.4,0.9-0.8,1.4-1.1s1-0.5,1.6-0.7c1.1-0.3,2.3-0.3,3.4,0
			c0.6,0.2,1.1,0.4,1.6,0.7c3.2,1.8,4.3,5.9,2.4,9.1c-0.6,1-1.4,1.8-2.4,2.4C353.4,257.3,353.2,257.3,353,257.3z"/>
		<circle class="st2" cx="347.8" cy="249.8" r="1.3"/>
		<path class="st0" d="M394.9,231.6v26.8c0,1-1.4,1.8-3.1,1.8s-3.1-0.8-3.1-1.8v-26.8L394.9,231.6z"/>
		<path class="st1" d="M391.8,261.2c-2.4,0-4.1-1.2-4.1-2.8v-26.8c0-0.6,0.4-1,1-1h6.3c0.6,0,1,0.4,1,1v26.8
			C395.9,260,394.1,261.2,391.8,261.2z M389.6,232.6v25.8c0,0.2,0.8,0.8,2.1,0.8s2.1-0.6,2.1-0.8v-25.8L389.6,232.6z"/>
		<path class="st2" d="M391.8,231.6h-3.1v26.8c0,1,1.4,1.8,3.1,1.8V231.6z"/>
		<circle class="st2" cx="391.8" cy="227.4" r="5.7"/>
		<path class="st3" d="M391.8,234.1c-3,0-5.7-2-6.4-4.9c-0.3-1.1-0.3-2.3,0-3.4c0.5-1.7,1.6-3.2,3.1-4c0.5-0.3,1.1-0.1,1.3,0.4
			c0.2,0.5,0.1,1-0.3,1.3c-0.4,0.2-0.7,0.5-1,0.7c-1.5,1.5-1.8,3.8-0.7,5.6c0.4,0.7,1,1.3,1.7,1.7c0.4,0.2,0.7,0.4,1.1,0.5
			c0.8,0.2,1.6,0.2,2.4,0c0.4-0.1,0.8-0.3,1.1-0.5c0.4-0.2,0.7-0.5,1-0.7c1.5-1.5,1.8-3.8,0.7-5.6c-0.4-0.7-1-1.3-1.7-1.7
			c-0.5-0.3-0.7-0.9-0.4-1.3s0.9-0.7,1.3-0.4c0,0,0,0,0.1,0c3.2,1.8,4.3,5.9,2.4,9.1c-0.6,1-1.4,1.8-2.4,2.4c-0.5,0.3-1,0.5-1.6,0.7
			C392.9,234,392.3,234.1,391.8,234.1z"/>
		<path class="st1" d="M391.8,261.2c-2.4,0-4.1-1.2-4.1-2.8v-26.3c0-0.6,0.4-1,1-1s1,0.4,1,1v26.3c0,0.2,0.8,0.8,2.1,0.8
			s2.1-0.6,2.1-0.8v-26.3c0-0.6,0.4-1,1-1s1,0.4,1,1v26.3C395.9,260,394.1,261.2,391.8,261.2z"/>
		<path class="st1" d="M394.6,233.3c-0.6,0-1-0.4-1-1c0-0.4,0.2-0.7,0.5-0.9c2.2-1.3,3-4.1,1.7-6.4c-0.4-0.7-1-1.3-1.7-1.7
			c-0.4-0.2-0.7-0.4-1.1-0.5c-0.8-0.2-1.6-0.2-2.4,0c-0.4,0.1-0.8,0.3-1.1,0.5c-0.7,0.4-1.3,1-1.7,1.7c-0.8,1.4-0.8,3.2,0,4.7
			c0.4,0.7,1,1.3,1.7,1.7c0.5,0.3,0.6,0.9,0.3,1.4c-0.3,0.4-0.8,0.6-1.3,0.3c-3.2-1.8-4.3-5.9-2.4-9.1c0.6-1,1.4-1.8,2.4-2.4
			c0.5-0.3,1-0.5,1.6-0.7c1.1-0.3,2.3-0.3,3.4,0c0.6,0.1,1.1,0.4,1.6,0.7c2.6,1.5,3.9,4.6,3.1,7.5c-0.5,1.7-1.6,3.2-3.1,4
			C394.9,233.3,394.8,233.3,394.6,233.3z"/>
		<circle class="st2" cx="389.4" cy="225.8" r="1.3"/>
		<polygon class="st2" points="22.2,211.5 39.5,201.5 74,221.5 139.8,259.5 122.5,269.5 105.2,279.5 39.5,241.5 4.9,221.5 		"/>
		<path class="st1" d="M105.2,280.5c-0.2,0-0.3,0-0.5-0.1l-100.3-58c-0.5-0.3-0.6-0.9-0.4-1.4c0.1-0.2,0.2-0.3,0.4-0.4l17.3-10l0,0
			l17.3-10c0.3-0.2,0.7-0.2,1,0l100.4,57.9c0.5,0.3,0.6,0.9,0.4,1.4c-0.1,0.2-0.2,0.3-0.4,0.4l-34.6,20
			C105.6,280.4,105.4,280.5,105.2,280.5z M6.9,221.5l98.4,56.8l32.6-18.8l-98.4-56.8L6.9,221.5z"/>
		<path class="st0" d="M105.2,275.1c-0.2,0-0.3,0-0.5-0.1l-91-52.5c-0.5-0.3-0.6-0.9-0.4-1.4c0.1-0.2,0.2-0.3,0.4-0.4L39,206.1
			c0.3-0.2,0.7-0.2,1,0l91,52.5c0.5,0.3,0.6,0.9,0.4,1.4c-0.1,0.2-0.2,0.3-0.4,0.4L105.8,275C105.6,275,105.4,275.1,105.2,275.1z
			 M16.2,221.5l89,51.4l23.2-13.4l-89-51.4L16.2,221.5z"/>
		<path class="st1" d="M84.7,259.4c-10.8,0-24.9-9.4-34.1-23.5c-0.3-0.5-0.2-1.1,0.3-1.4c0.5-0.3,1.1-0.2,1.4,0.3
			c10.3,15.9,27,25.6,37.2,21.8c0.5-0.2,1.1,0.1,1.3,0.6c0.2,0.5-0.1,1.1-0.6,1.3C88.4,259.1,86.5,259.4,84.7,259.4z"/>
		<path class="st0" d="M93,255.6v26.8c0,1-1.4,1.8-3.1,1.8s-3.1-0.8-3.1-1.8v-26.8L93,255.6z"/>
		<path class="st1" d="M89.8,285.2c-2.4,0-4.1-1.2-4.1-2.8v-26.8c0-0.6,0.4-1,1-1H93c0.6,0,1,0.4,1,1v26.8
			C94,284,92.2,285.2,89.8,285.2z M87.7,256.6v25.8c0,0.2,0.8,0.8,2.1,0.8s2.1-0.6,2.1-0.8v-25.8H87.7z"/>
		<path class="st2" d="M89.8,255.6h-3.1v26.8c0,1,1.4,1.8,3.1,1.8V255.6z"/>
		<circle class="st2" cx="89.8" cy="251.4" r="5.7"/>
		<path class="st3" d="M89.8,258.1c-3.7,0-6.7-3-6.7-6.7c0-0.6,0.1-1.2,0.2-1.7c0.3-1.1,0.9-2.2,1.7-3c0.4-0.4,0.9-0.8,1.4-1.1
			s1.1-0.1,1.3,0.4c0.2,0.5,0.1,1-0.3,1.3c-2.2,1.3-3,4.1-1.7,6.4l0,0c0.2,0.4,0.5,0.7,0.7,1c0.3,0.3,0.6,0.5,1,0.7s0.7,0.4,1.1,0.5
			c0.8,0.2,1.6,0.2,2.4,0c0.4-0.1,0.8-0.3,1.1-0.5c0.4-0.2,0.7-0.5,1-0.7c1.8-1.8,1.8-4.8,0-6.6c-0.3-0.3-0.6-0.5-1-0.7
			c-0.5-0.3-0.6-0.9-0.3-1.4c0.3-0.4,0.8-0.6,1.3-0.3s1,0.6,1.4,1.1c0.4,0.4,0.8,0.9,1.1,1.4c1.8,3.2,0.7,7.3-2.4,9.1
			c-0.5,0.3-1,0.5-1.6,0.7C91,258,90.4,258.1,89.8,258.1z"/>
		<path class="st1" d="M89.8,285.2c-2.4,0-4.1-1.2-4.1-2.8v-26.3c0-0.6,0.4-1,1-1s1,0.4,1,1v26.3c0,0.2,0.8,0.8,2.1,0.8
			s2.1-0.6,2.1-0.8v-26.3c0-0.6,0.4-1,1-1s1,0.4,1,1v26.3C94,284,92.2,285.2,89.8,285.2z"/>
		<path class="st1" d="M92.7,257.3c-0.6,0-1-0.4-1-1c0-0.4,0.2-0.7,0.5-0.9c1.8-1.1,2.7-3.2,2.2-5.2c-0.2-0.8-0.6-1.5-1.2-2.1
			s-1.3-1-2.1-1.2c-2.5-0.7-5,0.8-5.7,3.3c-0.3,1.2-0.2,2.5,0.5,3.5c0.2,0.4,0.5,0.7,0.7,1c0.3,0.3,0.6,0.5,1,0.7
			c0.5,0.3,0.6,0.9,0.3,1.4c-0.3,0.4-0.9,0.6-1.3,0.4c-2.6-1.5-3.9-4.6-3.1-7.5c0.3-1.1,0.9-2.2,1.7-3c0.4-0.4,0.9-0.8,1.4-1.1
			s1-0.5,1.6-0.7c1.1-0.3,2.3-0.3,3.4,0s2.2,0.9,3,1.7c0.4,0.4,0.8,0.9,1.1,1.4c1.8,3.2,0.7,7.3-2.4,9.1
			C93,257.3,92.8,257.3,92.7,257.3z"/>
		<circle class="st2" cx="87.5" cy="249.8" r="1.3"/>
		<path class="st0" d="M9.8,207.6v26.8c0,1-1.4,1.8-3.1,1.8s-3.1-0.8-3.1-1.8v-26.8H9.8z"/>
		<path class="st1" d="M6.7,237.2c-2.4,0-4.1-1.2-4.1-2.8v-26.8c0-0.6,0.4-1,1-1h6.3c0.6,0,1,0.4,1,1v26.8
			C10.8,236,9,237.2,6.7,237.2z M4.5,208.6v25.8c0,0.2,0.7,0.8,2.1,0.8s2.1-0.6,2.1-0.8v-25.8H4.5z"/>
		<path class="st2" d="M6.7,207.6H3.5v26.8c0,1,1.4,1.8,3.1,1.8L6.7,207.6L6.7,207.6z"/>
		<circle class="st2" cx="6.7" cy="203.4" r="5.7"/>
		<path class="st3" d="M6.7,210c-0.6,0-1.2-0.1-1.7-0.2c-0.6-0.1-1.1-0.4-1.6-0.7c-1-0.6-1.9-1.4-2.4-2.4c-1.5-2.6-1.1-5.9,1.1-8
			c0.4-0.4,0.9-0.8,1.4-1.1s1.1-0.1,1.4,0.4s0.1,1-0.4,1.3c-0.7,0.4-1.3,1-1.7,1.7c-0.2,0.4-0.4,0.7-0.5,1.1c-0.7,2.5,0.8,5,3.3,5.7
			c1.2,0.3,2.5,0.2,3.5-0.5c0.4-0.2,0.7-0.5,1-0.7c1.2-1.2,1.6-2.9,1.2-4.5c-0.1-0.4-0.3-0.8-0.5-1.1c-0.4-0.7-1-1.3-1.7-1.7
			c-0.5-0.3-0.6-0.9-0.3-1.4c0.3-0.4,0.9-0.6,1.3-0.4c3.2,1.8,4.3,5.9,2.4,9.1c-0.6,1-1.4,1.9-2.4,2.4C9,209.7,7.8,210,6.7,210
			L6.7,210z"/>
		<path class="st1" d="M6.7,237.2c-2.4,0-4.1-1.2-4.1-2.8v-26.3c0-0.6,0.4-1,1-1s1,0.4,1,1v26.3c0,0.2,0.7,0.8,2.1,0.8
			s2.1-0.6,2.1-0.8v-26.3c0-0.6,0.4-1,1-1s1,0.4,1,1v26.3C10.8,236,9,237.2,6.7,237.2z"/>
		<path class="st1" d="M9.5,209.3c-0.6,0-1-0.4-1-1c0-0.4,0.2-0.7,0.5-0.9c0.4-0.2,0.7-0.5,1-0.7c1.2-1.2,1.6-2.9,1.2-4.5
			c-0.1-0.4-0.3-0.8-0.5-1.1c-0.4-0.7-1-1.3-1.7-1.7c-0.4-0.2-0.7-0.4-1.1-0.5c-0.8-0.2-1.6-0.2-2.4,0c-0.4,0.1-0.8,0.3-1.1,0.5
			c-0.7,0.4-1.3,1-1.7,1.7c-0.2,0.4-0.4,0.7-0.5,1.1c-0.5,2,0.3,4.2,2.2,5.2c0.5,0.3,0.6,0.9,0.3,1.4c-0.3,0.4-0.8,0.6-1.3,0.3
			c-1-0.6-1.9-1.4-2.4-2.4c-1.5-2.6-1.1-5.9,1.1-8c0.4-0.4,0.9-0.8,1.4-1.1s1-0.5,1.6-0.7c1.1-0.3,2.3-0.3,3.4,0
			c2.3,0.6,4.1,2.4,4.7,4.7c0.3,1.1,0.3,2.3,0,3.4c-0.5,1.7-1.6,3.2-3.1,4C9.8,209.2,9.7,209.3,9.5,209.3z"/>
		<circle class="st2" cx="4.3" cy="201.8" r="1.3"/>
		<path class="st1" d="M43.1,235.4c-10.8,0-24.9-9.4-34.1-23.5c-0.3-0.5-0.2-1.1,0.3-1.4c0.5-0.3,1.1-0.2,1.4,0.3l0,0
			c10.3,15.9,27,25.6,37.2,21.8c0.5-0.2,1.1,0,1.3,0.6c0.2,0.5,0,1.1-0.6,1.3l0,0C46.8,235.1,45,235.4,43.1,235.4z"/>
		<path class="st0" d="M51.4,231.6v26.8c0,1-1.4,1.8-3.1,1.8s-3.1-0.8-3.1-1.8v-26.8L51.4,231.6L51.4,231.6z"/>
		<path class="st1" d="M48.2,261.2c-2.4,0-4.1-1.2-4.1-2.8v-26.8c0-0.6,0.4-1,1-1h6.3c0.6,0,1,0.4,1,1v26.8
			C52.4,260,50.6,261.2,48.2,261.2z M46.1,232.6v25.8c0,0.2,0.8,0.8,2.1,0.8s2.1-0.6,2.1-0.8v-25.8L46.1,232.6L46.1,232.6z"/>
		<path class="st2" d="M48.2,231.6h-3.1v26.8c0,1,1.4,1.8,3.1,1.8V231.6z"/>
		<circle class="st2" cx="48.2" cy="227.4" r="5.7"/>
		<path class="st3" d="M48.2,234.1c-3.7,0-6.7-3-6.7-6.7c0-2.4,1.3-4.6,3.3-5.8c0.5-0.3,1.1-0.1,1.3,0.4s0.1,1-0.3,1.3
			c-2.2,1.3-3,4.1-1.7,6.4c0.4,0.7,1,1.3,1.7,1.7c0.4,0.2,0.7,0.4,1.1,0.5c0.8,0.2,1.6,0.2,2.4,0c0.4-0.1,0.8-0.3,1.1-0.5
			c2.2-1.3,3-4.1,1.7-6.4l0,0c-0.4-0.7-1-1.3-1.7-1.7c-0.5-0.3-0.7-0.9-0.4-1.3c0.3-0.5,0.9-0.7,1.3-0.4c0,0,0,0,0.1,0
			c3.2,1.8,4.3,5.9,2.4,9.1c-0.6,1-1.4,1.8-2.4,2.4c-0.5,0.3-1,0.5-1.6,0.7C49.4,234,48.8,234.1,48.2,234.1z"/>
		<path class="st1" d="M48.2,261.2c-2.4,0-4.1-1.2-4.1-2.8v-26.3c0-0.6,0.4-1,1-1s1,0.4,1,1v26.3c0,0.2,0.8,0.8,2.1,0.8
			s2.1-0.6,2.1-0.8v-26.3c0-0.6,0.4-1,1-1s1,0.4,1,1v26.3C52.4,260,50.6,261.2,48.2,261.2z"/>
		<path class="st1" d="M51.1,233.3c-0.6,0-1-0.4-1-1c0-0.4,0.2-0.7,0.5-0.9c2.2-1.3,3-4.1,1.7-6.4c-0.4-0.7-1-1.3-1.7-1.7
			c-0.4-0.2-0.7-0.4-1.1-0.5c-0.8-0.2-1.6-0.2-2.4,0c-0.4,0.1-0.8,0.3-1.1,0.5c-2.2,1.3-3,4.1-1.7,6.4c0.4,0.7,1,1.3,1.7,1.7
			c0.5,0.3,0.7,0.9,0.4,1.3c-0.3,0.5-0.9,0.7-1.3,0.4c0,0,0,0-0.1,0c-3.2-1.8-4.3-5.9-2.4-9.1c0.6-1,1.4-1.8,2.4-2.4
			c0.5-0.3,1-0.5,1.6-0.7c1.1-0.3,2.3-0.3,3.4,0c0.6,0.1,1.1,0.4,1.6,0.7c3.2,1.8,4.3,5.9,2.4,9.1c-0.6,1-1.4,1.8-2.4,2.4
			C51.4,233.3,51.3,233.3,51.1,233.3z"/>
		<circle class="st2" cx="45.9" cy="225.8" r="1.3"/>
		<rect class="st7" width="440" height="300"/>
		<rect class="st7" width="440" height="300"/>
	</g>
	<rect class="st7" width="440" height="300"/>
</g>
</svg>
