<?xml version="1.0" encoding="utf-8"?>
<!-- Generator: Adobe Illustrator 24.1.2, SVG Export Plug-In . SVG Version: 6.00 Build 0)  -->
<svg version="1.1" id="Layer_1" xmlns="http://www.w3.org/2000/svg" xmlns:xlink="http://www.w3.org/1999/xlink" x="0px" y="0px"
	 width="440px" height="300px" viewBox="0 0 440 300" style="enable-background:new 0 0 440 300;" xml:space="preserve">
<style type="text/css">
	.st0{fill:#4D9987;}
	.st1{fill:#FFFFFF;}
	.st2{fill:#E9EBDF;}
	.st3{fill:#0E352C;}
	.st4{fill:#C4D7D3;}
	.st5{fill:#27ae60;}
	.st6{fill:#185849;}
	.st7{fill:none;}
</style>
<g>
	<path class="st0" d="M258,177.3c-0.3,0-0.5-0.1-0.7-0.3c-0.1-0.1-0.2-0.2-0.2-0.3s-0.1-0.3-0.1-0.4c0-0.1,0-0.1,0-0.2
		c0-0.1,0-0.1,0-0.2c0-0.1,0.1-0.1,0.1-0.2c0-0.1,0.1-0.1,0.1-0.1l0.1-0.1c0.1,0,0.1-0.1,0.2-0.1s0.1,0,0.2-0.1c0.2,0,0.4,0,0.6,0.1
		c0.1,0.1,0.2,0.1,0.3,0.2l0.1,0.1c0,0.1,0.1,0.1,0.1,0.2c0,0.1,0,0.1,0.1,0.2c0,0.1,0,0.1,0,0.2c0,0.3-0.1,0.5-0.3,0.7
		c-0.1,0.1-0.2,0.2-0.3,0.2C258.3,177.3,258.2,177.3,258,177.3z"/>
	<path class="st0" d="M244.2,184.3c-0.3-0.5-0.1-1.1,0.4-1.4l0,0l0,0c0.5-0.3,1.1-0.1,1.4,0.4l0,0c0.3,0.5,0.1,1.1-0.4,1.4l0,0l0,0
		c-0.2,0.1-0.3,0.1-0.5,0.1l0,0C244.7,184.8,244.4,184.6,244.2,184.3z M248.5,181.8c-0.3-0.5-0.1-1.1,0.3-1.4l0,0l0,0
		c0.5-0.3,1.1-0.1,1.4,0.4l0,0c0.3,0.5,0.1,1.1-0.4,1.4l0,0c-0.2,0.1-0.3,0.1-0.5,0.1l0,0C249,182.3,248.7,182.1,248.5,181.8
		L248.5,181.8z M252.9,179.3c-0.3-0.5-0.1-1.1,0.4-1.4l0,0l0,0c0.5-0.3,1.1-0.1,1.4,0.4l0,0c0.3,0.5,0.1,1.1-0.4,1.4l0,0l0,0
		c-0.1,0.1-0.3,0.1-0.5,0.1l0,0C253.4,179.8,253,179.6,252.9,179.3L252.9,179.3z"/>
	<path class="st0" d="M240.8,187.3c-0.1,0-0.3,0-0.4-0.1c-0.1-0.1-0.2-0.1-0.3-0.2c-0.1-0.1-0.2-0.2-0.2-0.3c-0.1-0.2-0.1-0.5,0-0.8
		c0.1-0.1,0.1-0.2,0.2-0.3l0.1-0.1c0.1,0,0.1-0.1,0.2-0.1c0.1,0,0.1,0,0.2-0.1c0.2,0,0.4,0,0.6,0.1c0.1,0,0.1,0.1,0.2,0.1
		c0.1,0,0.1,0.1,0.1,0.1c0.1,0.1,0.2,0.2,0.2,0.3c0.2,0.4,0.1,0.8-0.2,1.1c-0.1,0.1-0.2,0.2-0.3,0.2
		C241,187.3,240.9,187.3,240.8,187.3z"/>
	<path class="st0" d="M182,177.1c-0.3,0-0.5-0.1-0.7-0.3c-0.1-0.1-0.2-0.2-0.2-0.3s-0.1-0.2-0.1-0.4c0-0.3,0.1-0.5,0.3-0.7
		c0.1-0.1,0.2-0.2,0.3-0.2c0.2-0.1,0.5-0.1,0.8,0c0.4,0.2,0.6,0.5,0.6,0.9c0,0.1,0,0.3-0.1,0.4c0,0.1-0.1,0.2-0.2,0.3
		c-0.1,0.1-0.2,0.2-0.3,0.2C182.3,177.1,182.2,177.1,182,177.1z"/>
	<path class="st0" d="M193.6,184c-0.5-0.3-0.6-0.9-0.4-1.3l0,0l0,0c0.3-0.5,0.9-0.6,1.3-0.4l0,0l0,0c0.5,0.3,0.6,0.9,0.4,1.4l0,0
		c-0.2,0.3-0.5,0.5-0.9,0.5l0,0C194,184.1,193.8,184.1,193.6,184z M189.6,181.7c-0.5-0.3-0.6-0.9-0.4-1.4l0,0l0,0
		c0.3-0.5,0.9-0.6,1.4-0.4l0,0c0.5,0.3,0.6,0.9,0.4,1.4l0,0c-0.2,0.3-0.5,0.5-0.9,0.5l0,0C189.9,181.8,189.8,181.8,189.6,181.7z
		 M185.6,179.3c-0.5-0.3-0.6-0.9-0.4-1.4l0,0l0,0c0.3-0.5,0.9-0.6,1.3-0.4l0,0l0,0c0.5,0.3,0.6,0.9,0.4,1.4l0,0
		c-0.2,0.3-0.5,0.5-0.9,0.5l0,0C185.9,179.5,185.7,179.4,185.6,179.3z"/>
	<path class="st0" d="M198.2,186.5c-0.1,0-0.3,0-0.4-0.1c-0.2-0.1-0.4-0.3-0.5-0.5c-0.1-0.1-0.1-0.2-0.1-0.4c0-0.3,0.1-0.5,0.3-0.7
		c0.1-0.1,0.2-0.2,0.3-0.2c0.2-0.1,0.5-0.1,0.8,0c0.1,0.1,0.2,0.1,0.3,0.2c0.2,0.2,0.3,0.4,0.3,0.7s-0.1,0.5-0.3,0.7
		c-0.1,0.1-0.2,0.2-0.3,0.2C198.4,186.4,198.3,186.5,198.2,186.5z"/>
	<path class="st0" d="M188.4,155.4c-0.3,0-0.5-0.1-0.7-0.3c-0.1-0.1-0.2-0.2-0.2-0.3s-0.1-0.2-0.1-0.4c0-0.1,0-0.3,0.1-0.4
		c0.1-0.2,0.3-0.4,0.5-0.5s0.4-0.1,0.6-0.1c0.1,0,0.1,0,0.2,0.1c0.1,0,0.1,0.1,0.2,0.1c0.1,0,0.1,0.1,0.1,0.1
		c0.1,0.1,0.2,0.2,0.2,0.3c0.1,0.1,0.1,0.3,0.1,0.4c0,0.1,0,0.3-0.1,0.4c0,0.1-0.1,0.2-0.2,0.3C189,155.3,188.7,155.4,188.4,155.4z"
		/>
	<path class="st0" d="M191.9,152.4c-0.3-0.5-0.1-1.1,0.4-1.4l0,0c0.5-0.3,1.1-0.1,1.4,0.3l0,0l0,0c0.3,0.5,0.1,1.1-0.4,1.4l0,0l0,0
		c-0.2,0.1-0.3,0.1-0.5,0.1l0,0C192.4,152.9,192.1,152.7,191.9,152.4z M196.2,149.9c-0.3-0.5-0.1-1.1,0.4-1.4l0,0l0,0
		c0.5-0.3,1.1-0.1,1.4,0.4l0,0c0.3,0.5,0.1,1.1-0.4,1.4l0,0c-0.2,0.1-0.3,0.1-0.5,0.1l0,0C196.7,150.4,196.4,150.3,196.2,149.9z
		 M200.6,147.4c-0.3-0.5-0.1-1.1,0.4-1.4l0,0l0,0c0.5-0.3,1.1-0.1,1.4,0.4l0,0c0.3,0.5,0.1,1.1-0.4,1.4l0,0l0,0
		c-0.1,0.1-0.3,0.1-0.5,0.1l0,0C201.1,147.9,200.7,147.7,200.6,147.4z"/>
	<path class="st0" d="M205.7,145.5c-0.3,0-0.5-0.1-0.7-0.3s-0.3-0.4-0.3-0.7c0-0.1,0-0.1,0-0.2c0-0.1,0-0.1,0.1-0.2
		c0-0.1,0.1-0.1,0.1-0.2c0-0.1,0.1-0.1,0.1-0.1l0.1-0.1c0.1,0,0.1-0.1,0.2-0.1c0.1,0,0.1,0,0.2-0.1c0.1,0,0.3,0,0.4,0
		c0.1,0,0.1,0,0.2,0.1c0.1,0,0.1,0.1,0.2,0.1c0.1,0,0.1,0.1,0.1,0.1c0.1,0,0.1,0.1,0.1,0.1c0,0.1,0.1,0.1,0.1,0.2s0,0.1,0.1,0.2
		c0,0.1,0,0.1,0,0.2c0,0.1,0,0.3-0.1,0.4c0,0.1-0.1,0.2-0.2,0.3C206.3,145.3,206,145.5,205.7,145.5z"/>
	<path class="st0" d="M249.8,156.3c-0.4,0-0.8-0.2-0.9-0.6c-0.1-0.1-0.1-0.2-0.1-0.4c0-0.1,0-0.3,0.1-0.4c0-0.1,0.1-0.2,0.2-0.3
		c0.1-0.1,0.2-0.2,0.3-0.2c0.2-0.1,0.4-0.1,0.6,0c0.1,0,0.1,0,0.2,0c0.1,0,0.1,0.1,0.2,0.1c0.1,0,0.1,0.1,0.2,0.1
		c0.1,0.1,0.2,0.2,0.2,0.3s0.1,0.3,0.1,0.4c0,0.3-0.1,0.5-0.3,0.7C250.4,156.2,250.1,156.3,249.8,156.3z"/>
	<path class="st0" d="M244.8,153.5c-0.5-0.3-0.6-0.9-0.4-1.3l0,0l0,0c0.3-0.5,0.9-0.6,1.3-0.4l0,0l0,0c0.5,0.3,0.6,0.9,0.4,1.4l0,0
		c-0.2,0.3-0.5,0.5-0.9,0.5l0,0C245.1,153.6,244.9,153.6,244.8,153.5z M240.2,150.8c-0.5-0.3-0.6-0.9-0.4-1.4l0,0
		c0.3-0.5,0.9-0.6,1.4-0.4l0,0c0.5,0.3,0.6,0.9,0.4,1.4l0,0c-0.2,0.3-0.5,0.5-0.9,0.5l0,0C240.5,151,240.3,150.9,240.2,150.8z
		 M235.6,148.2c-0.5-0.3-0.6-0.9-0.4-1.4l0,0c0.3-0.5,0.9-0.6,1.4-0.4l0,0c0.5,0.3,0.6,0.9,0.4,1.4l0,0c-0.2,0.3-0.5,0.5-0.9,0.5
		l0,0C235.9,148.3,235.7,148.3,235.6,148.2z"/>
	<path class="st0" d="M231.5,145.7c-0.1,0-0.3,0-0.4-0.1c-0.4-0.2-0.6-0.5-0.6-0.9c0-0.1,0-0.1,0-0.2c0-0.1,0-0.1,0.1-0.2
		c0-0.1,0.1-0.2,0.2-0.3c0.3-0.3,0.7-0.4,1.1-0.2c0.1,0.1,0.2,0.1,0.3,0.2l0.1,0.1c0,0.1,0.1,0.1,0.1,0.2c0,0.1,0.1,0.1,0.1,0.2
		c0,0.1,0,0.1,0,0.2c0,0.1,0,0.3-0.1,0.4c0,0.1-0.1,0.2-0.2,0.3C232,145.6,231.7,145.7,231.5,145.7z"/>
	<path class="st1" d="M195.3,158.4l-23.7-13.7c-0.8-0.4-1.6-0.4-2.4,0l-23.7,13.7c-0.4,0.1-0.6,0.5-0.5,0.9c0.1,0.2,0.2,0.4,0.5,0.5
		l23.7,13.7c0.8,0.4,1.6,0.4,2.4,0l23.7-13.7c0.4-0.1,0.6-0.5,0.5-0.9C195.7,158.6,195.5,158.4,195.3,158.4z"/>
	<path class="st2" d="M195.3,158.4l-23.7-13.7c-0.8-0.4-1.6-0.4-2.4,0l-23.7,13.7c-0.3,0.1-0.5,0.4-0.5,0.7v8.7
		c0,0.3,0.2,0.6,0.5,0.7l23.7,13.7c0.8,0.4,1.6,0.4,2.4,0l23.7-13.7c0.3-0.1,0.5-0.4,0.5-0.7v-8.7
		C195.8,158.8,195.6,158.5,195.3,158.4z"/>
	<path class="st1" d="M170.4,144.4c-0.4,0-0.8,0.1-1.2,0.3l-23.7,13.7c-0.3,0.1-0.5,0.4-0.5,0.7v8.7c0,0.3,0.2,0.6,0.5,0.7
		l23.7,13.7c0.4,0.2,0.8,0.3,1.2,0.3V144.4z"/>
	<path class="st1" d="M195.3,158.4l-23.7-13.7c-0.8-0.4-1.6-0.4-2.4,0l-23.7,13.7c-0.4,0.1-0.6,0.5-0.5,0.9c0.1,0.2,0.2,0.4,0.5,0.5
		l23.7,13.7c0.8,0.4,1.6,0.4,2.4,0l23.7-13.7c0.4-0.1,0.6-0.5,0.5-0.9C195.7,158.6,195.5,158.4,195.3,158.4z"/>
	<path class="st0" d="M170.4,174.7c-0.6,0-1.3-0.1-1.8-0.4l-23.4-13.5c-0.9-0.4-1.3-1.5-0.9-2.4c0.2-0.4,0.5-0.7,0.9-0.9l23.4-13.5
		c1.1-0.6,2.5-0.6,3.6,0l23.4,13.5c0.9,0.4,1.3,1.5,0.9,2.4c-0.2,0.4-0.5,0.7-0.9,0.9l0,0l-23.4,13.5
		C171.7,174.5,171,174.7,170.4,174.7z M146.3,159.1l23.3,13.4c0.5,0.2,1.1,0.2,1.6,0l23.3-13.4l-23.3-13.4c-0.5-0.2-1.1-0.2-1.6,0
		L146.3,159.1z"/>
	<path class="st3" d="M170.4,183.5c-0.6,0-1.2-0.1-1.7-0.4L145,169.4c-0.6-0.3-1-0.9-1-1.6v-8.7c0-0.7,0.4-1.3,1-1.6l23.7-13.7
		c1.1-0.6,2.3-0.6,3.4,0l23.7,13.7l0,0c0.6,0.3,1,0.9,1,1.6v8.7c0,0.7-0.4,1.3-1,1.6L172.1,183C171.6,183.3,171,183.5,170.4,183.5z
		 M146,167.6l23.7,13.7c0.4,0.2,0.9,0.2,1.4,0l23.7-13.7v-8.4l-23.7-13.7c-0.4-0.2-1-0.2-1.4,0L146,159.2V167.6z"/>
	<path class="st2" d="M243.8,127.4L220,113.7c-0.8-0.4-1.6-0.4-2.4,0l-23.8,13.7c-0.3,0.1-0.5,0.4-0.5,0.7v8.8
		c0,0.3,0.2,0.6,0.5,0.7l23.8,13.7c0.8,0.4,1.6,0.4,2.4,0l23.8-13.7c0.3-0.1,0.5-0.4,0.5-0.7v-8.8
		C244.3,127.7,244.1,127.5,243.8,127.4z"/>
	<path class="st1" d="M218.9,113.3c-0.4,0-0.8,0.1-1.2,0.3l-23.8,13.7c-0.3,0.1-0.5,0.4-0.5,0.7v8.8c0,0.3,0.2,0.6,0.5,0.7
		l23.8,13.7c0.4,0.2,0.8,0.3,1.2,0.3V113.3z"/>
	<path class="st1" d="M243.8,127.4L220,113.7c-0.8-0.4-1.6-0.4-2.4,0l-23.8,13.7c-0.4,0.1-0.6,0.5-0.5,0.9c0.1,0.2,0.2,0.4,0.5,0.5
		l23.8,13.7c0.8,0.4,1.6,0.4,2.4,0l23.8-13.7c0.4-0.1,0.6-0.5,0.5-0.9C244.2,127.6,244.1,127.4,243.8,127.4z"/>
	<path class="st1" d="M243.8,127.4L220,113.7c-0.8-0.4-1.6-0.4-2.4,0l-23.8,13.7c-0.4,0.1-0.6,0.5-0.5,0.9c0.1,0.2,0.2,0.4,0.5,0.5
		l23.8,13.7c0.8,0.4,1.6,0.4,2.4,0l23.8-13.7c0.4-0.1,0.6-0.5,0.5-0.9C244.2,127.6,244.1,127.4,243.8,127.4z"/>
	<path class="st0" d="M218.9,143.8c-0.6,0-1.2-0.1-1.7-0.4l-23.8-13.7c-0.9-0.4-1.2-1.4-0.8-2.3c0.2-0.4,0.5-0.7,0.8-0.8l23.8-13.7
		c1.1-0.6,2.3-0.6,3.4,0l23.8,13.7c0.9,0.4,1.2,1.4,0.8,2.3c-0.2,0.4-0.5,0.7-0.8,0.8l-23.8,13.7C220,143.6,219.5,143.8,218.9,143.8
		z M194.7,128l23.5,13.6c0.4,0.2,1,0.2,1.4,0l23.5-13.6l-23.5-13.6c-0.4-0.2-1-0.2-1.4,0L194.7,128z"/>
	<path class="st3" d="M218.9,152.5c-0.6,0-1.2-0.1-1.7-0.4l-23.8-13.7c-0.6-0.3-1-0.9-1-1.6V128c0-0.7,0.4-1.3,1-1.6l23.8-13.7
		c1.1-0.6,2.3-0.6,3.4,0l23.8,13.7l0,0c0.6,0.3,1,0.9,1,1.6v8.8c0,0.7-0.4,1.3-1,1.6l-23.8,13.7C220,152.4,219.5,152.6,218.9,152.5z
		 M194.4,136.7l23.8,13.7c0.4,0.2,1,0.2,1.4,0l23.8-13.7v-8.4l-23.8-13.7c-0.4-0.2-1-0.2-1.4,0l-23.8,13.7V136.7z"/>
	<path class="st4" d="M243.8,102.1L220,88.4c-0.8-0.4-1.6-0.4-2.4,0l-23.8,13.7c-0.3,0.1-0.5,0.4-0.5,0.7v8.8c0,0.3,0.2,0.6,0.5,0.7
		l23.8,13.7c0.8,0.4,1.6,0.4,2.4,0l23.8-13.7c0.3-0.1,0.5-0.4,0.5-0.7v-8.8C244.3,102.5,244.1,102.2,243.8,102.1z"/>
	<path class="st4" d="M218.9,88c-0.4,0-0.8,0.1-1.2,0.3L193.9,102c-0.3,0.1-0.5,0.4-0.5,0.7v8.8c0,0.3,0.2,0.6,0.5,0.7l23.8,13.7
		c0.4,0.2,0.8,0.3,1.2,0.3V88z"/>
	<path class="st1" d="M243.8,102.1L220,88.4c-0.8-0.4-1.6-0.4-2.4,0l-23.8,13.7c-0.4,0.1-0.6,0.5-0.5,0.9c0.1,0.2,0.2,0.4,0.5,0.5
		l23.8,13.7c0.8,0.4,1.6,0.4,2.4,0l23.8-13.7c0.4-0.1,0.6-0.5,0.5-0.9C244.2,102.3,244.1,102.1,243.8,102.1z"/>
	<path class="st1" d="M243.8,102.1L220,88.4c-0.8-0.4-1.6-0.4-2.4,0l-23.8,13.7c-0.4,0.1-0.6,0.5-0.5,0.9c0.1,0.2,0.2,0.4,0.5,0.5
		l23.8,13.7c0.8,0.4,1.6,0.4,2.4,0l23.8-13.7c0.4-0.1,0.6-0.5,0.5-0.9C244.2,102.3,244.1,102.1,243.8,102.1z"/>
	<path class="st5" d="M218.9,118.5c-0.6,0-1.2-0.1-1.7-0.4l-23.8-13.7c-0.9-0.4-1.2-1.4-0.8-2.3c0.2-0.4,0.5-0.7,0.8-0.8l23.8-13.7
		c1.1-0.6,2.3-0.6,3.4,0l23.8,13.7c0.9,0.4,1.2,1.4,0.8,2.3c-0.2,0.4-0.5,0.7-0.8,0.8l-23.8,13.7C220,118.3,219.5,118.5,218.9,118.5
		z M194.7,102.8l23.5,13.6c0.4,0.2,1,0.2,1.4,0l23.5-13.6l-23.5-13.6c-0.4-0.2-1-0.2-1.4,0L194.7,102.8z"/>
	<path class="st1" d="M243.7,103.5l-23.5,13.6c-0.8,0.4-1.8,0.4-2.7,0L194,103.5c-0.4-0.1-0.7-0.6-0.5-1c0.1-0.2,0.3-0.4,0.5-0.5
		l23.5-13.6c0.8-0.4,1.8-0.4,2.7,0l23.5,13.6c0.4,0.1,0.7,0.6,0.5,1C244.2,103.3,244,103.5,243.7,103.5z"/>
	<path class="st5" d="M218.9,118.4c-0.6,0-1.3-0.1-1.8-0.4l-23.5-13.6c-0.9-0.4-1.3-1.5-0.9-2.4c0.2-0.4,0.5-0.7,0.9-0.9L217,87.5
		c1.1-0.6,2.5-0.6,3.7,0l23.5,13.6c0.9,0.4,1.3,1.5,0.9,2.4c-0.2,0.4-0.5,0.7-0.9,0.9l0,0L220.7,118
		C220.1,118.3,219.5,118.4,218.9,118.4z M194.7,102.8l23.4,13.5c0.5,0.2,1.1,0.2,1.7,0l23.4-13.5l-23.4-13.5c-0.5-0.2-1.1-0.2-1.7,0
		L194.7,102.8z"/>
	<path class="st4" d="M218.6,116.5c0,0.3,0,0.6,0.1,1c0.5,0.1,1.1-0.1,1.6-0.3l23.5-13.6c0.4-0.1,0.6-0.5,0.5-0.9
		c-0.6,0-1.1,0-1.7,0C229.3,102.6,218.6,108.8,218.6,116.5z"/>
	<ellipse class="st4" cx="216" cy="101" rx="8.7" ry="5"/>
	<path class="st5" d="M218.9,118.4c-0.1,0-0.2,0-0.3,0c-0.5,0-0.9-0.4-0.9-0.9c0-0.4-0.1-0.7-0.1-1.1c0-8.2,11.2-14.9,25-14.9
		c0.6,0,1.1,0,1.7,0c0.5,0,0.8,0.3,0.9,0.8c0.1,0.8-0.3,1.6-1,2L220.7,118C220.1,118.3,219.5,118.4,218.9,118.4z M241.6,103.6
		c-12.1,0.3-21.9,5.9-22,12.7c0,0,0.1,0,0.1-0.1L241.6,103.6z"/>
	<path class="st5" d="M216,107.1c-2.3,0-4.6-0.5-6.7-1.6c-2-1.1-3.1-2.7-3.1-4.4s1.1-3.3,3.1-4.4c4.2-2.2,9.2-2.2,13.4,0l0,0
		c2,1.1,3.1,2.7,3.1,4.4s-1.1,3.3-3.1,4.4C220.6,106.6,218.3,107.1,216,107.1z M216,97c-2,0-3.9,0.4-5.7,1.3
		c-1.3,0.8-2.1,1.7-2.1,2.7s0.7,1.9,2.1,2.7c3.6,1.8,7.8,1.8,11.4,0c1.3-0.8,2.1-1.7,2.1-2.7s-0.7-1.9-2.1-2.7l0,0
		C219.9,97.4,218,97,216,97z"/>
	<path class="st6" d="M218.9,127.3c-0.6,0-1.2-0.1-1.7-0.4l-23.8-13.7c-0.6-0.3-1-0.9-1-1.6v-8.8c0-0.7,0.4-1.3,1-1.6l23.8-13.7
		c1.1-0.6,2.3-0.6,3.4,0l23.8,13.7l0,0c0.6,0.3,1,0.9,1,1.6v8.8c0,0.7-0.4,1.3-1,1.6l-23.8,13.7C220,127.1,219.5,127.3,218.9,127.3z
		 M194.4,111.4l23.8,13.7c0.4,0.2,1,0.2,1.4,0l23.8-13.7V103l-23.8-13.7c-0.4-0.2-1-0.2-1.4,0L194.4,103V111.4z"/>
	<path class="st0" d="M163.8,163.8c-0.6,0-1-0.4-1-1c0-0.4,0.2-0.7,0.5-0.9l13.1-7.6c0.5-0.3,1.1-0.1,1.4,0.4
		c0.3,0.5,0.1,1.1-0.4,1.4l-13.1,7.6C164.2,163.7,164,163.8,163.8,163.8z"/>
	<path class="st0" d="M169.6,167.1c-0.6,0-1-0.4-1-1c0-0.4,0.2-0.7,0.5-0.9l13.1-7.6c0.5-0.3,1.1-0.1,1.4,0.4s0.1,1.1-0.4,1.4
		l-13.1,7.6C169.9,167.1,169.8,167.1,169.6,167.1z"/>
	<path class="st0" d="M158.1,160.5c-0.6,0-1-0.4-1-1c0-0.4,0.2-0.7,0.5-0.9l13.1-7.6c0.5-0.3,1.1-0.1,1.4,0.4
		c0.3,0.5,0.1,1.1-0.4,1.4l0,0l-13.1,7.6C158.4,160.4,158.3,160.5,158.1,160.5z"/>
	<path class="st2" d="M294.5,158.4l-23.8-13.7c-0.8-0.4-1.6-0.4-2.4,0l-23.8,13.7c-0.3,0.1-0.5,0.4-0.5,0.7v8.8
		c0,0.3,0.2,0.6,0.5,0.7l23.8,13.7c0.8,0.4,1.6,0.4,2.4,0l23.8-13.7c0.3-0.1,0.5-0.4,0.5-0.7V159
		C294.9,158.7,294.8,158.5,294.5,158.4z"/>
	<path class="st1" d="M269.5,144.3c-0.4,0-0.8,0.1-1.2,0.3l-23.8,13.7c-0.3,0.1-0.5,0.4-0.5,0.7v8.8c0,0.3,0.2,0.6,0.5,0.7
		l23.8,13.7c0.4,0.2,0.8,0.3,1.2,0.3V144.3z"/>
	<path class="st1" d="M294.5,158.4l-23.8-13.7c-0.8-0.4-1.6-0.4-2.4,0l-23.8,13.7c-0.4,0.1-0.6,0.5-0.5,0.9c0.1,0.2,0.2,0.4,0.5,0.5
		l23.8,13.7c0.8,0.4,1.6,0.4,2.4,0l23.8-13.7c0.4-0.1,0.6-0.5,0.5-0.9C294.9,158.6,294.7,158.4,294.5,158.4z"/>
	<path class="st1" d="M294.5,158.4l-23.8-13.7c-0.8-0.4-1.6-0.4-2.4,0l-23.8,13.7c-0.4,0.1-0.6,0.5-0.5,0.9c0.1,0.2,0.2,0.4,0.5,0.5
		l23.8,13.7c0.8,0.4,1.6,0.4,2.4,0l23.8-13.7c0.4-0.1,0.6-0.5,0.5-0.9C294.9,158.6,294.7,158.4,294.5,158.4z"/>
	<path class="st0" d="M269.5,174.8c-0.6,0-1.2-0.1-1.7-0.4L244,160.6c-0.9-0.4-1.2-1.4-0.8-2.3c0.2-0.4,0.5-0.7,0.8-0.8l23.8-13.7
		c1.1-0.6,2.3-0.6,3.4,0l23.8,13.7c0.9,0.4,1.2,1.4,0.8,2.3c-0.2,0.4-0.5,0.7-0.8,0.8l-23.8,13.7
		C270.7,174.6,270.1,174.8,269.5,174.8z M245.3,159l23.5,13.6c0.4,0.2,1,0.2,1.4,0l23.5-13.6l-23.5-13.6c-0.4-0.2-1-0.2-1.4,0
		L245.3,159z"/>
	<path class="st3" d="M269.5,183.5c-0.6,0-1.2-0.1-1.7-0.4L244,169.4c-0.6-0.3-1-0.9-1-1.6V159c0-0.7,0.4-1.3,1-1.6l23.8-13.7
		c1.1-0.6,2.3-0.6,3.4,0l23.8,13.7l0,0c0.6,0.3,1,0.9,1,1.6v8.8c0,0.7-0.4,1.3-1,1.6l-23.8,13.7
		C270.7,183.4,270.1,183.5,269.5,183.5z M245,167.6l23.8,13.7c0.4,0.2,1,0.2,1.4,0l23.8-13.7v-8.4l-23.8-13.7c-0.4-0.2-1-0.2-1.4,0
		L245,159.2V167.6z"/>
	<ellipse class="st1" cx="265.5" cy="157.1" rx="5.5" ry="3.2"/>
	<path class="st0" d="M265.5,161.3c-1.5,0-3-0.3-4.4-1.1c-1.7-0.7-2.6-2.6-1.9-4.4c0.3-0.9,1-1.5,1.9-1.9c2.8-1.4,6-1.4,8.8,0
		c1.7,0.7,2.6,2.6,1.9,4.4c-0.3,0.9-1,1.5-1.9,1.9C268.5,160.9,267,161.3,265.5,161.3z M265.5,154.9c-1.2,0-2.4,0.2-3.4,0.8
		c-0.7,0.4-1.1,0.9-1.1,1.4s0.4,1,1.1,1.4c2.1,1.1,4.7,1.1,6.8,0c0.7-0.4,1.1-0.9,1.1-1.4s-0.4-1-1.1-1.4
		C267.8,155.2,266.7,154.9,265.5,154.9z"/>
	<path class="st0" d="M276.8,164.7c-0.2,0-0.4,0-0.5-0.1l-7.4-4.4c-0.5-0.3-0.6-0.9-0.4-1.4s0.9-0.6,1.4-0.4l7.4,4.4
		c0.5,0.3,0.6,0.9,0.4,1.4C277.5,164.5,277.2,164.7,276.8,164.7z"/>
	<path class="st0" d="M276.8,164.7c-0.6,0-1-0.4-1-1c0-0.4,0.2-0.7,0.5-0.9l2.3-1.3c0.5-0.3,1.1-0.1,1.4,0.4s0.1,1.1-0.4,1.4l0,0
		l-2.3,1.3C277.2,164.7,277,164.7,276.8,164.7z"/>
	<path class="st0" d="M273.7,162.9c-0.6,0-1-0.4-1-1c0-0.4,0.2-0.7,0.5-0.9l2-1.1c0.5-0.3,1.1-0.1,1.4,0.4s0.1,1.1-0.4,1.4l-2,1.1
		C274,162.9,273.9,162.9,273.7,162.9z"/>
	<path class="st2" d="M243.8,187.9l-23.7-13.7c-0.8-0.4-1.6-0.4-2.4,0L194,187.9c-0.3,0.1-0.5,0.4-0.5,0.7v8.7
		c0,0.3,0.2,0.6,0.5,0.7l23.7,13.7c0.8,0.4,1.6,0.4,2.4,0l23.7-13.7c0.3-0.1,0.5-0.4,0.5-0.7v-8.7C244.2,188.3,244,188,243.8,187.9z
		"/>
	<path class="st1" d="M194,187.9c-0.3,0.1-0.5,0.4-0.5,0.7v8.7c0,0.3,0.2,0.6,0.5,0.7l23.7,13.7c0.4,0.2,0.8,0.3,1.2,0.3v-32.7h-10
		L194,187.9z"/>
	<path class="st1" d="M243.8,187.9l-23.7-13.7c-0.8-0.4-1.6-0.4-2.4,0L194,187.9c-0.4,0.1-0.6,0.5-0.5,0.9c0.1,0.2,0.2,0.4,0.5,0.5
		l23.7,13.7c0.8,0.4,1.6,0.4,2.4,0l23.7-13.7c0.4-0.1,0.6-0.5,0.5-0.9C244.1,188.1,244,187.9,243.8,187.9z"/>
	<path class="st1" d="M243.8,187.9l-23.7-13.7c-0.8-0.4-1.6-0.4-2.4,0L194,187.9c-0.4,0.1-0.6,0.5-0.5,0.9c0.1,0.2,0.2,0.4,0.5,0.5
		l23.7,13.7c0.8,0.4,1.6,0.4,2.4,0l23.7-13.7c0.4-0.1,0.6-0.5,0.5-0.9C244.1,188.1,244,187.9,243.8,187.9z"/>
	<path class="st5" d="M218.9,204.2c-0.6,0-1.2-0.1-1.7-0.4l-23.7-13.7c-0.9-0.4-1.2-1.4-0.8-2.3c0.2-0.4,0.5-0.7,0.8-0.8l23.7-13.7
		c1.1-0.6,2.3-0.6,3.4,0l23.7,13.7c0.9,0.4,1.2,1.4,0.8,2.3c-0.2,0.4-0.5,0.7-0.8,0.8l-23.7,13.7
		C220.1,204.1,219.5,204.2,218.9,204.2z M194.8,188.6l23.4,13.5c0.4,0.2,1,0.2,1.4,0l23.4-13.5l-23.4-13.5c-0.4-0.2-0.9-0.2-1.4,0
		L194.8,188.6z"/>
	<path class="st0" d="M218.9,204.2c-0.6,0-1.3-0.1-1.8-0.4l-23.4-13.5c-0.9-0.4-1.3-1.5-0.9-2.4c0.2-0.4,0.5-0.7,0.9-0.9l23.4-13.5
		c1.1-0.6,2.5-0.6,3.6,0l23.4,13.5c0.9,0.4,1.3,1.5,0.9,2.4c-0.2,0.4-0.5,0.7-0.9,0.9l0,0l-23.4,13.5
		C220.2,204,219.5,204.2,218.9,204.2z M194.8,188.6l23.3,13.4c0.5,0.2,1.1,0.2,1.6,0l23.3-13.4l-23.3-13.4c-0.5-0.2-1.1-0.2-1.6,0
		L194.8,188.6z"/>
	<path class="st3" d="M218.9,213c-0.6,0-1.2-0.1-1.7-0.4l-23.7-13.7c-0.6-0.3-1-0.9-1-1.6v-8.7c0-0.7,0.4-1.3,1-1.6l23.7-13.7
		c1.1-0.6,2.3-0.6,3.4,0l23.7,13.7c0.6,0.3,1,0.9,1,1.6v8.7c0,0.7-0.4,1.3-1,1.6l-23.7,13.7C220.1,212.8,219.5,213,218.9,213z
		 M194.5,197.1l23.7,13.7c0.4,0.2,0.9,0.2,1.4,0l23.7-13.7v-8.4L219.6,175c-0.4-0.2-0.9-0.2-1.4,0l-23.7,13.7V197.1z"/>
	<path class="st1" d="M228.3,188l-9-5.2c-0.3-0.1-0.6-0.1-0.9,0l-9,5.2c-0.1,0-0.2,0.2-0.2,0.3s0.1,0.1,0.2,0.2l9,5.2
		c0.3,0.1,0.6,0.1,0.9,0l9-5.2c0.1,0,0.2-0.2,0.2-0.3C228.4,188.1,228.4,188.1,228.3,188z"/>
	<path class="st0" d="M218.9,194.8c-0.3,0-0.7-0.1-0.9-0.2l-9-5.2c-0.6-0.3-0.9-1.1-0.5-1.7c0.1-0.2,0.3-0.4,0.5-0.5l9-5.2
		c0.6-0.3,1.3-0.3,1.9,0l9,5.2c0.6,0.3,0.9,1.1,0.5,1.7c-0.1,0.2-0.3,0.4-0.5,0.5l-8.9,5.2C219.5,194.7,219.2,194.8,218.9,194.8z
		 M211,188.3l7.9,4.6l7.8-4.6l-7.9-4.6L211,188.3z"/>
	<path class="st6" d="M192.5,122.6c0-0.6,0.4-1,1-1l0,0c0.6,0,1,0.4,1,1l0,0c0,0.6-0.4,1-1,1l0,0
		C192.9,123.6,192.5,123.2,192.5,122.6z M192.5,116.6c0-0.6,0.4-1,1-1l0,0c0.6,0,1,0.4,1,1l0,0c0,0.6-0.4,1-1,1l0,0
		C192.9,117.6,192.5,117.2,192.5,116.6z"/>
	<path class="st6" d="M243.2,122.6c0-0.6,0.4-1,1-1l0,0c0.6,0,1,0.4,1,1l0,0c0,0.6-0.4,1-1,1l0,0
		C243.7,123.6,243.2,123.2,243.2,122.6z M243.2,116.6c0-0.6,0.4-1,1-1l0,0c0.6,0,1,0.4,1,1l0,0c0,0.6-0.4,1-1,1l0,0
		C243.7,117.6,243.2,117.2,243.2,116.6z"/>
	<rect class="st7" width="440" height="300"/>
	<rect class="st7" width="440" height="300"/>
</g>
</svg>
