<?xml version="1.0" encoding="utf-8"?>
<!-- Generator: Adobe Illustrator 24.1.2, SVG Export Plug-In . SVG Version: 6.00 Build 0)  -->
<svg version="1.1" id="Layer_1" xmlns="http://www.w3.org/2000/svg" xmlns:xlink="http://www.w3.org/1999/xlink" x="0px" y="0px"
	 width="440px" height="300px" viewBox="0 0 440 300" style="enable-background:new 0 0 440 300;" xml:space="preserve">
<style type="text/css">
	.st0{fill:none;}
	.st1{fill:#4D9987;}
	.st2{fill:#C4D7D3;}
	.st3{fill:#27ae60;}
	.st4{fill:#FFFFFF;}
	.st5{fill:#185849;}
</style>
<g>
	<rect class="st0" width="440" height="300"/>
	<path class="st1" d="M220,195.4c-41.9,0-76-19.9-76-44.3c0-23.6,31.6-43,71.9-44.2c0.6,0,1,0.4,1,1c0,0.6-0.4,1-1,1
		c-39.2,1.2-69.9,19.8-69.9,42.2c0,23.3,33.2,42.3,74,42.3s74-19,74-42.3c0-6.2-2.3-12.2-6.9-17.8c-0.3-0.4-0.3-1.1,0.1-1.4
		c0.4-0.3,1.1-0.3,1.4,0.1l0,0c4.9,6,7.3,12.4,7.3,19C296,175.5,261.9,195.4,220,195.4z"/>
	<path class="st1" d="M169.7,152.1H157c-0.6,0-1-0.4-1-1s0.4-1,1-1h12.7c0.6,0,1,0.4,1,1S170.2,152.1,169.7,152.1z"/>
	<path class="st1" d="M220,188.1c-0.6,0-1-0.4-1-1v-7.3c0-0.6,0.4-1,1-1s1,0.4,1,1v7.3C221,187.6,220.6,188.1,220,188.1z"/>
	<path class="st1" d="M283,152.1h-12.7c-0.6,0-1-0.4-1-1s0.4-1,1-1H283c0.6,0,1,0.4,1,1S283.6,152.1,283,152.1z"/>
	<path class="st1" d="M220,123.1c-0.6,0-1-0.4-1-1v-7.3c0-0.6,0.4-1,1-1s1,0.4,1,1v7.3C221,122.6,220.6,123.1,220,123.1z"/>
	<path class="st1" d="M190.8,123c-0.3,0-0.5-0.1-0.7-0.3l-2.3-2.3c-0.4-0.4-0.4-1,0-1.4c0.4-0.4,1-0.4,1.4,0l2.3,2.3
		c0.4,0.4,0.4,1,0,1.4C191.4,122.9,191.1,123,190.8,123z"/>
	<path class="st1" d="M169.5,135.3c-0.1,0-0.2,0-0.3-0.1l-4.1-1.4c-0.5-0.2-0.8-0.7-0.6-1.3s0.7-0.8,1.3-0.6l0,0l4.1,1.4
		c0.5,0.2,0.8,0.7,0.6,1.3C170.3,135,169.9,135.3,169.5,135.3L169.5,135.3z"/>
	<path class="st1" d="M165.4,170.3c-0.6,0-1-0.4-1-1c0-0.4,0.3-0.8,0.7-1l4.1-1.4c0.5-0.2,1.1,0.1,1.3,0.6c0.2,0.5-0.1,1.1-0.6,1.3
		l0,0l-4.1,1.4C165.7,170.3,165.5,170.3,165.4,170.3z"/>
	<path class="st1" d="M188.5,183.6c-0.6,0-1-0.4-1-1c0-0.3,0.1-0.5,0.3-0.7l2.3-2.3c0.4-0.4,1-0.4,1.4,0c0.4,0.4,0.4,1,0,1.4
		l-2.3,2.3C189,183.5,188.8,183.6,188.5,183.6z"/>
	<path class="st1" d="M251.5,183.6c-0.3,0-0.5-0.1-0.7-0.3l-2.3-2.3c-0.4-0.4-0.4-1,0-1.4c0.4-0.4,1-0.4,1.4,0l2.3,2.3
		c0.4,0.4,0.4,1,0,1.4C252,183.5,251.8,183.6,251.5,183.6z"/>
	<path class="st1" d="M274.6,170.3c-0.1,0-0.2,0-0.3-0.1l-4.1-1.4c-0.5-0.2-0.8-0.7-0.6-1.3c0.2-0.5,0.7-0.8,1.3-0.6l0,0l4.1,1.4
		c0.5,0.2,0.8,0.7,0.6,1.3C275.4,170,275,170.3,274.6,170.3L274.6,170.3z"/>
	<path class="st1" d="M270.5,135.3c-0.6,0-1-0.4-1-1c0-0.4,0.3-0.8,0.7-1l4.1-1.4c0.5-0.2,1.1,0.1,1.3,0.6c0.2,0.5-0.1,1.1-0.6,1.3
		l-4.1,1.4C270.7,135.3,270.6,135.3,270.5,135.3z"/>
	<path class="st2" d="M249.2,123c-0.6,0-1-0.4-1-1c0-0.3,0.1-0.5,0.3-0.7l2.3-2.3c0.4-0.4,1-0.4,1.4,0c0.4,0.4,0.4,1,0,1.4l-2.3,2.3
		C249.7,122.9,249.4,123,249.2,123z"/>
	<path class="st2" d="M220,152.1c-0.6,0-1-0.4-1-1v-43.3c0-0.6,0.4-1,1-1c26.9,0,52.1,8.4,65.6,21.9c0.4,0.4,0.4,1,0,1.4
		c-0.1,0.1-0.2,0.2-0.4,0.2l-65,21.7C220.2,152.1,220.1,152.1,220,152.1z M221,108.8v40.9c8.3-2.8,53.1-17.7,62.1-20.7
		C269.8,116.7,246.3,109,221,108.8L221,108.8z"/>
	<path class="st1" d="M220,156.4c-2,0-3.9-0.4-5.7-1.4c-2.1-0.8-3.2-3.2-2.4-5.4c0.4-1.1,1.3-2,2.4-2.4c3.6-1.8,7.8-1.8,11.4,0l0,0
		c2.1,0.8,3.2,3.2,2.4,5.4c-0.4,1.1-1.3,1.9-2.4,2.4C223.9,155.9,222,156.4,220,156.4z M220,147.9c-1.6,0-3.2,0.3-4.7,1.1
		c-1.2,0.3-1.9,1.5-1.6,2.7c0.2,0.8,0.8,1.4,1.6,1.6c3,1.5,6.4,1.5,9.4,0c1.2-0.3,1.9-1.5,1.6-2.7c-0.2-0.8-0.8-1.4-1.6-1.6
		C223.2,148.2,221.6,147.9,220,147.9z"/>
	<path class="st1" d="M214.7,102.2c-0.1,0-0.3,0-0.4-0.1c-0.1-0.1-0.2-0.1-0.3-0.2c-0.2-0.2-0.3-0.4-0.3-0.7c0-0.3,0.1-0.5,0.3-0.7
		c0.1-0.1,0.2-0.2,0.3-0.2c0.2-0.1,0.4-0.1,0.6-0.1c0.1,0,0.1,0,0.2,0.1c0.1,0,0.1,0.1,0.2,0.1c0.1,0,0.1,0.1,0.1,0.1
		c0.3,0.3,0.4,0.7,0.2,1.1c-0.1,0.1-0.1,0.2-0.2,0.3c0,0-0.1,0.1-0.1,0.1l-0.2,0.1c-0.1,0-0.1,0-0.2,0.1
		C214.9,102.2,214.8,102.2,214.7,102.2z"/>
	<path class="st1" d="M219.8,202.2c-0.6,0-1-0.4-1-1l0,0c0-0.5,0.4-1,1-1c0,0,0,0,0,0l0,0c0.6,0,1,0.4,1,1l0,0
		C220.8,201.7,220.3,202.2,219.8,202.2L219.8,202.2z M224.8,201.1c0-0.5,0.4-1,0.9-1c0,0,0,0,0,0l0,0c0.6,0,1,0.4,1,1c0,0,0,0,0,0
		l0,0c0,0.5-0.4,1-0.9,1h-0.1C225.3,202,224.8,201.6,224.8,201.1z M213.7,202c-0.6,0-1-0.5-1-1c0,0,0,0,0,0l0,0c0-0.5,0.5-1,1-0.9
		l0,0c0.6,0,1,0.5,1,1c0,0,0,0,0,0l0,0C214.7,201.6,214.2,202,213.7,202L213.7,202z M230.8,200.8c-0.1-0.5,0.3-1,0.9-1.1
		c0,0,0,0,0,0l0,0c0.5-0.1,1,0.4,1.1,0.9c0,0,0,0,0,0l0,0c0,0.5-0.4,1-0.9,1.1h-0.1C231.3,201.7,230.9,201.3,230.8,200.8z
		 M207.6,201.6c-0.5,0-1-0.5-0.9-1.1l0,0c0.1-0.6,0.5-1,1.1-0.9l0,0c0.5,0.1,1,0.5,0.9,1.1l0,0C208.6,201.2,208.2,201.6,207.6,201.6
		L207.6,201.6C207.6,201.6,207.6,201.6,207.6,201.6z M236.8,200.2c-0.1-0.6,0.3-1.1,0.9-1.1l0,0c0.5-0.1,1,0.3,1.1,0.9l0,0
		c0.1,0.5-0.3,1-0.9,1.1l0,0c-0.1,0-0.1,0-0.1,0l0,0C237.3,201,236.9,200.7,236.8,200.2L236.8,200.2z M201.5,200.9L201.5,200.9
		c-0.5-0.1-0.9-0.6-0.9-1.1c0,0,0,0,0,0l0,0c0.1-0.5,0.6-0.9,1.1-0.9l0,0c0.5,0.1,0.9,0.6,0.9,1.1c0,0,0,0,0,0l0,0
		c-0.1,0.5-0.5,0.9-1,0.9l0,0C201.6,201,201.6,201,201.5,200.9L201.5,200.9z M242.8,199.3c-0.1-0.5,0.3-1.1,0.8-1.2l0,0
		c0.5-0.1,1.1,0.2,1.2,0.8c0,0,0,0,0,0l0,0c0.1,0.5-0.3,1.1-0.8,1.2h0c-0.1,0-0.1,0-0.2,0l0,0C243.3,200.1,242.9,199.8,242.8,199.3
		L242.8,199.3z M195.5,200L195.5,200c-0.5-0.1-0.9-0.6-0.8-1.2l0,0c0.1-0.5,0.6-0.9,1.2-0.8c0,0,0,0,0,0l0,0
		c0.5,0.1,0.9,0.6,0.8,1.2c0,0,0,0,0,0l0,0c-0.1,0.5-0.5,0.8-1,0.8l0,0C195.6,200,195.6,200,195.5,200L195.5,200z M248.8,198.1
		c-0.1-0.5,0.2-1.1,0.7-1.2c0,0,0,0,0,0l0,0c0.5-0.1,1.1,0.2,1.2,0.8l0,0c0.1,0.5-0.2,1.1-0.7,1.2c0,0,0,0,0,0l0,0
		c-0.1,0-0.1,0-0.2,0l0,0C249.3,198.9,248.9,198.6,248.8,198.1L248.8,198.1z M189.6,198.7c-0.5-0.1-0.9-0.7-0.8-1.2c0,0,0,0,0,0l0,0
		c0.1-0.5,0.7-0.9,1.2-0.7c0,0,0,0,0,0l0,0c0.5,0.1,0.9,0.7,0.7,1.2c0,0,0,0,0,0l0,0c-0.1,0.5-0.5,0.8-1,0.8l0,0
		C189.7,198.8,189.6,198.8,189.6,198.7L189.6,198.7z M254.6,196.7c-0.2-0.5,0.2-1.1,0.7-1.2c0,0,0,0,0,0l0,0
		c0.5-0.1,1.1,0.2,1.2,0.7l0,0c0.2,0.5-0.2,1.1-0.7,1.2c0,0,0,0,0,0l0,0c-0.1,0-0.2,0-0.3,0l0,0
		C255.1,197.4,254.7,197.1,254.6,196.7L254.6,196.7z M183.7,197.2c-0.5-0.2-0.8-0.7-0.7-1.2l0,0c0.2-0.5,0.7-0.8,1.2-0.7l0,0
		c0.5,0.2,0.8,0.7,0.7,1.2l0,0c-0.1,0.4-0.5,0.7-1,0.7l0,0C183.8,197.2,183.8,197.2,183.7,197.2L183.7,197.2z M260.4,194.9
		c-0.2-0.5,0.1-1.1,0.6-1.3c0,0,0,0,0,0l0,0c0.5-0.2,1.1,0.1,1.3,0.6l0,0c0.2,0.5-0.1,1.1-0.6,1.3l0,0c-0.1,0-0.2,0-0.3,0.1l0,0
		C260.9,195.5,260.5,195.3,260.4,194.9L260.4,194.9z M177.9,195.3L177.9,195.3c-0.5-0.2-0.8-0.8-0.6-1.3c0,0,0,0,0,0l0,0
		c0.2-0.5,0.8-0.8,1.3-0.6c0,0,0,0,0,0l0,0c0.5,0.2,0.8,0.8,0.6,1.3l0,0c-0.1,0.4-0.5,0.7-1,0.7l0,0
		C178.1,195.4,178,195.4,177.9,195.3L177.9,195.3z M266.1,192.8c-0.2-0.5,0-1.1,0.5-1.3l0,0c0.5-0.2,1.1,0,1.3,0.5c0,0,0,0,0,0l0,0
		c0.2,0.5,0,1.1-0.5,1.3c0,0,0,0,0,0l0,0c-0.1,0.1-0.3,0.1-0.4,0.1l0,0C266.6,193.4,266.2,193.1,266.1,192.8L266.1,192.8z
		 M172.2,193.1c-0.5-0.2-0.7-0.8-0.5-1.3l0,0c0.2-0.5,0.8-0.7,1.3-0.5c0,0,0,0,0,0l0,0c0.5,0.2,0.7,0.8,0.5,1.3c0,0,0,0,0,0l0,0
		c-0.2,0.4-0.5,0.6-0.9,0.6l0,0C172.4,193.2,172.3,193.2,172.2,193.1L172.2,193.1z M271.6,190.3c-0.2-0.5-0.1-1.1,0.4-1.3h0
		c0.5-0.2,1.1-0.1,1.3,0.4l0,0c0.2,0.5,0,1.1-0.5,1.3l0,0c-0.1,0.1-0.3,0.1-0.5,0.1l0,0C272.1,190.9,271.7,190.6,271.6,190.3
		L271.6,190.3z M166.6,190.5c-0.5-0.2-0.7-0.8-0.4-1.3l0,0c0.2-0.5,0.8-0.7,1.3-0.4c0,0,0,0,0,0l0,0c0.5,0.2,0.7,0.8,0.4,1.3
		c0,0,0,0,0,0l0,0c-0.2,0.3-0.5,0.6-0.9,0.6l0,0C166.9,190.6,166.8,190.6,166.6,190.5L166.6,190.5z M276.9,187.5
		c-0.3-0.5-0.1-1.1,0.3-1.4l0,0c0.5-0.3,1.1-0.1,1.4,0.3c0,0,0,0,0,0l0,0c0.3,0.5,0.1,1.1-0.3,1.4l0,0c-0.2,0.1-0.3,0.1-0.5,0.1l0,0
		C277.4,188,277.1,187.8,276.9,187.5L276.9,187.5z M161.3,187.5c-0.5-0.3-0.6-0.9-0.3-1.4c0,0,0,0,0,0l0,0c0.3-0.5,0.9-0.6,1.4-0.3
		l0,0c0.5,0.3,0.6,0.9,0.3,1.4l0,0c-0.2,0.3-0.5,0.5-0.9,0.5l0,0C161.6,187.7,161.4,187.6,161.3,187.5L161.3,187.5z M282,184.2
		c-0.3-0.4-0.2-1.1,0.2-1.4c0,0,0,0,0,0l0,0c0.4-0.3,1.1-0.2,1.4,0.2l0,0c0.3,0.4,0.2,1.1-0.2,1.4c0,0,0,0,0,0l0,0
		c-0.2,0.1-0.4,0.2-0.6,0.2l0,0C282.5,184.6,282.2,184.5,282,184.2z M156.2,184.1c-0.4-0.3-0.5-1-0.2-1.4l0,0
		c0.3-0.4,0.9-0.5,1.4-0.2c0,0,0,0,0,0l0,0c0.4,0.3,0.5,1,0.2,1.4l0,0c-0.2,0.3-0.5,0.4-0.8,0.4l0,0
		C156.6,184.3,156.4,184.3,156.2,184.1z M286.8,180.5c-0.4-0.4-0.3-1,0.1-1.4l0,0c0.4-0.4,1-0.3,1.4,0.1l0,0c0.4,0.4,0.3,1-0.1,1.4
		l0,0c-0.2,0.2-0.4,0.3-0.7,0.2l0,0C287.3,180.9,287,180.7,286.8,180.5L286.8,180.5z M151.4,180.3c-0.4-0.4-0.5-1-0.1-1.4
		c0,0,0,0,0,0l0,0c0.4-0.4,1-0.5,1.4-0.1c0,0,0,0,0,0l0,0c0.4,0.4,0.4,1,0.1,1.4l0,0c-0.2,0.2-0.5,0.3-0.8,0.3l0,0
		C151.8,180.5,151.6,180.4,151.4,180.3L151.4,180.3z M291.2,176.4c-0.4-0.4-0.4-1-0.1-1.4l0,0c0.4-0.4,1-0.4,1.4-0.1l0,0
		c0.4,0.4,0.4,1,0.1,1.4h0c-0.2,0.2-0.5,0.3-0.7,0.3l0,0C291.6,176.6,291.3,176.5,291.2,176.4L291.2,176.4z M147.1,175.9
		c-0.4-0.4-0.3-1,0.1-1.4l0,0c0.4-0.4,1-0.3,1.4,0.1h0c0.4,0.4,0.3,1-0.1,1.4l0,0c-0.2,0.2-0.4,0.2-0.7,0.2l0,0
		C147.6,176.3,147.3,176.1,147.1,175.9L147.1,175.9z M295,171.7c-0.5-0.3-0.6-0.9-0.3-1.4l0,0c0.3-0.5,0.9-0.6,1.4-0.3l0,0
		c0.5,0.3,0.6,0.9,0.3,1.4c0,0,0,0,0,0l0,0c-0.2,0.3-0.5,0.4-0.8,0.4l0,0C295.4,171.9,295.2,171.8,295,171.7L295,171.7z M143.3,171
		c-0.3-0.5-0.2-1.1,0.3-1.4l0,0c0.5-0.3,1.1-0.2,1.4,0.3c0,0,0,0,0,0l0,0c0.3,0.5,0.2,1.1-0.3,1.4l0,0c-0.2,0.1-0.4,0.2-0.6,0.2l0,0
		C143.8,171.5,143.5,171.3,143.3,171L143.3,171z M298.2,166.6c-0.5-0.2-0.7-0.8-0.5-1.3c0,0,0,0,0,0l0,0c0.2-0.5,0.8-0.7,1.3-0.5
		l0,0c0.5,0.2,0.7,0.8,0.5,1.3c0,0,0,0,0,0l0,0c-0.2,0.3-0.5,0.6-0.9,0.6l0,0C298.5,166.7,298.3,166.6,298.2,166.6L298.2,166.6z
		 M140.3,165.6L140.3,165.6c-0.2-0.5,0-1.1,0.5-1.3c0,0,0,0,0,0l0,0c0.5-0.2,1.1,0,1.3,0.5c0,0,0,0,0,0l0,0c0.2,0.5,0,1.1-0.5,1.3
		c0,0,0,0,0,0l0,0c-0.1,0.1-0.3,0.1-0.4,0.1l0,0C140.8,166.2,140.4,166,140.3,165.6z M300.5,161c-0.5-0.2-0.8-0.7-0.7-1.2l0,0
		c0.1-0.5,0.7-0.8,1.2-0.7c0,0,0,0,0,0l0,0c0.5,0.2,0.8,0.7,0.7,1.2l0,0c-0.1,0.4-0.5,0.7-1,0.7l0,0C300.7,161,300.6,161,300.5,161z
		 M138.1,159.8c-0.1-0.5,0.2-1.1,0.7-1.2c0,0,0,0,0,0l0,0c0.5-0.1,1.1,0.2,1.2,0.7c0,0,0,0,0,0l0,0c0.1,0.5-0.2,1.1-0.7,1.2l0,0
		c-0.1,0-0.2,0-0.3,0l0,0C138.7,160.6,138.3,160.3,138.1,159.8z M301.8,155.1c-0.5,0-0.9-0.5-0.9-1.1c0,0,0,0,0,0h0
		c0.1-0.5,0.5-1,1.1-0.9c0,0,0,0,0,0l0,0c0.6,0,1,0.5,0.9,1.1c0,0,0,0,0,0l0,0C302.8,154.7,302.4,155.1,301.8,155.1L301.8,155.1
		L301.8,155.1z M137.1,153.7c0-0.6,0.4-1,0.9-1.1l0,0c0.6,0,1,0.4,1.1,0.9c0,0,0,0,0,0l0,0c0,0.5-0.4,1-0.9,1.1c0,0,0,0,0,0h-0.1
		C137.6,154.6,137.1,154.2,137.1,153.7z M300.9,148.2c0-0.5,0.4-1,0.9-1.1l0,0c0.6,0,1,0.4,1.1,0.9l0,0c0.1,0.5-0.4,1-0.9,1.1h-0.1
		C301.3,149.1,300.9,148.7,300.9,148.2z M138.1,148.6c-0.5-0.1-0.9-0.5-0.9-1.1c0,0,0,0,0,0l0,0c0.1-0.5,0.5-0.9,1.1-0.9
		c0,0,0,0,0,0l0,0c0.5,0.1,0.9,0.6,0.9,1.1c0,0,0,0,0,0l0,0c-0.1,0.5-0.5,0.9-1,0.9l0,0C138.1,148.6,138.1,148.6,138.1,148.6z
		 M299.8,142.4c-0.1-0.5,0.2-1.1,0.7-1.2l0,0c0.5-0.2,1.1,0.2,1.2,0.7c0,0,0,0,0,0l0,0c0.1,0.5-0.2,1.1-0.7,1.2l0,0
		c-0.1,0-0.2,0-0.3,0l0,0C300.3,143.1,299.9,142.9,299.8,142.4L299.8,142.4z M139.1,142.6c-0.5-0.2-0.8-0.7-0.7-1.2c0,0,0,0,0,0l0,0
		c0.2-0.5,0.7-0.8,1.2-0.7c0,0,0,0,0,0l0,0c0.5,0.2,0.8,0.7,0.7,1.2c0,0,0,0,0,0l0,0c-0.1,0.4-0.5,0.7-1,0.7l0,0
		C139.3,142.7,139.2,142.7,139.1,142.6L139.1,142.6z M297.7,136.9L297.7,136.9c-0.2-0.5,0-1.1,0.4-1.3c0,0,0,0,0,0l0,0
		c0.5-0.2,1.1,0,1.3,0.4c0,0,0,0,0,0l0,0c0.2,0.5,0,1.1-0.5,1.3c0,0,0,0,0,0l0,0c-0.1,0.1-0.3,0.1-0.4,0.1l0,0
		C298.2,137.5,297.8,137.3,297.7,136.9z M141.2,137c-0.5-0.2-0.7-0.8-0.5-1.3c0,0,0,0,0,0l0,0c0.2-0.5,0.8-0.7,1.3-0.5c0,0,0,0,0,0
		l0,0c0.5,0.2,0.7,0.8,0.4,1.3l0,0c-0.2,0.3-0.5,0.6-0.9,0.6l0,0C141.5,137.1,141.3,137,141.2,137z M294.7,131.9
		c-0.3-0.5-0.2-1.1,0.3-1.4l0,0c0.5-0.3,1.1-0.2,1.4,0.3l0,0c0.3,0.5,0.2,1.1-0.2,1.4l0,0c-0.2,0.1-0.4,0.2-0.6,0.2l0,0
		C295.2,132.3,294.9,132.1,294.7,131.9z M144.1,131.7c-0.5-0.3-0.6-0.9-0.2-1.4l0,0c0.3-0.4,0.9-0.6,1.4-0.2l0,0
		c0.4,0.3,0.6,0.9,0.2,1.4l0,0c-0.2,0.3-0.5,0.4-0.8,0.4l0,0C144.5,131.9,144.3,131.8,144.1,131.7L144.1,131.7z M147.8,126.9
		c-0.4-0.4-0.4-1-0.1-1.4l0,0c0.4-0.4,1-0.4,1.4-0.1l0,0c0.4,0.4,0.4,1,0.1,1.4c0,0,0,0,0,0l0,0c-0.2,0.2-0.5,0.3-0.7,0.3l0,0
		C148.3,127.2,148,127.1,147.8,126.9L147.8,126.9z M152.1,122.7c-0.4-0.4-0.3-1,0.1-1.4l0,0c0.4-0.4,1-0.3,1.4,0.1l0,0
		c0.4,0.4,0.3,1-0.1,1.4l0,0c-0.2,0.2-0.4,0.3-0.6,0.2l0,0C152.6,123,152.3,122.9,152.1,122.7L152.1,122.7z M156.8,118.9
		c-0.3-0.4-0.2-1.1,0.2-1.4l0,0c0.4-0.3,1.1-0.2,1.4,0.2c0,0,0,0,0,0l0,0c0.3,0.5,0.2,1.1-0.2,1.4l0,0c-0.2,0.1-0.4,0.2-0.6,0.2l0,0
		C157.3,119.3,157,119.1,156.8,118.9L156.8,118.9z M161.8,115.5c-0.3-0.5-0.1-1.1,0.4-1.4l0,0c0.5-0.3,1.1-0.1,1.4,0.3l0,0
		c0.3,0.5,0.1,1.1-0.4,1.4l0,0c-0.2,0.1-0.3,0.1-0.5,0.1l0,0C162.3,116,162,115.8,161.8,115.5L161.8,115.5z M167.1,112.6
		c-0.2-0.5,0-1.1,0.4-1.3l0,0c0.5-0.2,1.1,0,1.3,0.4l0,0c0.2,0.5,0,1.1-0.4,1.3l0,0c-0.1,0.1-0.3,0.1-0.4,0.1l0,0
		C167.6,113.1,167.3,112.9,167.1,112.6L167.1,112.6z M172.6,110c-0.2-0.5,0-1.1,0.5-1.3l0,0c0.5-0.2,1.1,0,1.3,0.5l0,0
		c0.2,0.5,0,1.1-0.5,1.3l0,0c-0.1,0-0.2,0.1-0.4,0.1l0,0C173.1,110.6,172.7,110.4,172.6,110L172.6,110z M178.2,107.8
		c-0.2-0.5,0.1-1.1,0.6-1.3l0,0c0.5-0.2,1.1,0.1,1.3,0.6l0,0c0.2,0.5-0.1,1.1-0.6,1.3l0,0c-0.1,0-0.2,0-0.3,0.1l0,0
		C178.7,108.5,178.4,108.2,178.2,107.8L178.2,107.8z M184,106c-0.1-0.5,0.2-1.1,0.7-1.2l0,0c0.5-0.2,1.1,0.1,1.2,0.7c0,0,0,0,0,0
		l0,0c0.1,0.5-0.2,1.1-0.7,1.2l0,0c-0.1,0-0.2,0-0.3,0l0,0C184.5,106.7,184.1,106.4,184,106L184,106z M189.8,104.4
		c-0.1-0.5,0.2-1.1,0.7-1.2c0,0,0,0,0,0l0,0c0.5-0.1,1.1,0.2,1.2,0.7c0,0,0,0,0,0l0,0c0.1,0.5-0.2,1.1-0.8,1.2c0,0,0,0,0,0l0,0
		c-0.1,0-0.1,0-0.2,0l0,0C190.3,105.2,189.9,104.9,189.8,104.4L189.8,104.4z M195.7,103.2c-0.1-0.5,0.3-1.1,0.8-1.2l0,0
		c0.5-0.1,1.1,0.3,1.1,0.8l0,0c0.1,0.5-0.3,1.1-0.8,1.1c0,0,0,0,0,0l0,0c-0.1,0-0.1,0-0.2,0l0,0C196.2,104,195.8,103.7,195.7,103.2
		L195.7,103.2z M201.7,102.3c-0.1-0.5,0.3-1,0.9-1.1l0,0c0.5-0.1,1,0.3,1.1,0.9l0,0c0.1,0.5-0.3,1-0.9,1.1c0,0,0,0,0,0l0,0
		c0,0-0.1,0-0.1,0l0,0C202.2,103.1,201.8,102.8,201.7,102.3L201.7,102.3z M207.7,101.6c0-0.6,0.4-1,0.9-1.1l0,0c0.5,0,1,0.4,1.1,0.9
		l0,0c0,0.5-0.4,1-0.9,1.1h-0.1C208.2,102.5,207.7,102.1,207.7,101.6L207.7,101.6z"/>
	<path class="st1" d="M291.7,127.5c-0.3,0-0.5-0.1-0.7-0.3c-0.4-0.4-0.4-1,0-1.4c0,0,0,0,0,0c0.4-0.4,1-0.4,1.4,0
		c0.4,0.4,0.4,1,0,1.4C292.2,127.4,291.9,127.5,291.7,127.5z"/>
	<path class="st1" d="M214.7,104.5c-0.6,0-1-0.4-1-1v-4.7c0-0.6,0.4-1,1-1c0.1,0,0.2,0,0.3,0.1l7,2.3c0.5,0.2,0.8,0.7,0.6,1.3
		c-0.1,0.3-0.3,0.5-0.6,0.6l-7,2.3C215,104.5,214.8,104.5,214.7,104.5z M215.7,100.2v1.9l2.8-0.9L215.7,100.2z"/>
	<path class="st2" d="M237.3,143.1c-0.1-0.1-0.2-0.1-0.3-0.2c-9.4-5.4-24.6-5.4-33.9,0c-0.1,0.1-0.2,0.1-0.3,0.2H196v8
		c0,3.5,2.3,7.1,7,9.8c9.4,5.4,24.6,5.4,33.9,0c4.7-2.7,7-6.3,7-9.8v-8H237.3z"/>
	<path class="st3" d="M237,160.9c4.7-2.7,7-6.3,7-9.8v-8h-6.7c-0.1-0.1-0.2-0.1-0.3-0.2c-4.7-2.7-10.8-4.1-17-4.1V165
		C226.1,165,232.3,163.6,237,160.9z"/>
	<ellipse class="st2" cx="220" cy="143.1" rx="24" ry="13.9"/>
	<path class="st4" d="M220,158c-6.3,0-12.7-1.4-17.5-4.2c-4.9-2.8-7.5-6.6-7.5-10.7s2.7-7.9,7.5-10.7c9.6-5.6,25.3-5.6,34.9,0l0,0
		c4.9,2.8,7.5,6.6,7.5,10.7s-2.7,7.9-7.5,10.7C232.6,156.6,226.3,158,220,158z M220,130.3c-5.7-0.1-11.4,1.2-16.5,3.9
		c-4.2,2.4-6.5,5.6-6.5,8.9s2.3,6.5,6.5,8.9c9.1,5.2,23.9,5.2,32.9,0c4.2-2.4,6.5-5.6,6.5-8.9s-2.3-6.5-6.5-8.9
		C231.4,131.5,225.7,130.1,220,130.3z"/>
	<ellipse class="st0" cx="220" cy="151.1" rx="24" ry="13.9"/>
	<path class="st5" d="M220,166c-6.1,0.1-12.1-1.3-17.5-4.2c-4.9-2.8-7.5-6.6-7.5-10.7v-8c0-4.1,2.7-7.9,7.5-10.7
		c9.6-5.6,25.3-5.6,34.9,0c4.9,2.8,7.5,6.6,7.5,10.7v8c0,1.5-0.4,3-1.1,4.4c-1.5,2.7-3.7,4.8-6.4,6.3c-2.6,1.4-5.3,2.5-8.2,3.2
		c-0.7,0.2-1.5,0.3-2.3,0.5c-1.5,0.3-3.1,0.4-4.6,0.5C221.6,166,220.8,166,220,166z M220,130.3c-5.7-0.1-11.4,1.2-16.5,3.9
		c-4.2,2.4-6.5,5.6-6.5,8.9v8c0,3.3,2.3,6.5,6.5,8.9c5.1,2.7,10.7,4,16.5,3.9c0.7,0,1.5,0,2.2-0.1c1.5-0.1,3-0.2,4.4-0.5
		c0.7-0.1,1.4-0.3,2.1-0.4c2.7-0.6,5.3-1.6,7.7-2.9c2.4-1.2,4.3-3.1,5.7-5.4c0.6-1.1,0.9-2.3,0.9-3.5v-8c0-3.3-2.3-6.5-6.5-8.9
		C231.4,131.5,225.7,130.1,220,130.3z"/>
	<path class="st3" d="M209.8,143.7c-0.1,0-0.2,0-0.2-0.1l-3.2-1.9c-0.1-0.1-0.1-0.1-0.1-0.2c0.1-0.1,0.2-0.2,0.4-0.1l10.9,0.5
		c0.2,0,0.4-0.1,0.4-0.2l-0.9-6.3c0-0.1,0-0.2,0.1-0.2c0.2-0.1,0.3-0.1,0.5,0l3.1,1.8c0.1,0,0.1,0.1,0.1,0.1l1,6.8l0,0.1
		c0,0.1-0.1,0.2-0.3,0.2h-0.1L209.8,143.7z"/>
	<path class="st3" d="M223.6,144.1c0,0.1,0.2,0.2,0.4,0.2l9.4,0.5c0.1,0,0.2,0,0.3-0.1c0.1-0.1,0.1-0.2,0-0.3l-3.1-1.8
		c-0.1,0-0.1-0.1-0.2-0.1l-6.6-0.4c-0.2,0-0.4,0.1-0.4,0.2L223.6,144.1z"/>
	<path class="st3" d="M221.7,145.2c0.2,0,0.3,0.1,0.4,0.2l1,5.5c0,0.1,0,0.2-0.1,0.2c-0.2,0.1-0.3,0.1-0.5,0l-3.1-1.8
		c-0.1,0-0.1-0.1-0.1-0.1l-0.6-3.8c0-0.1,0.2-0.3,0.4-0.2L221.7,145.2z"/>
	<rect class="st0" width="440" height="300"/>
</g>
</svg>
