<?xml version="1.0" encoding="utf-8"?>
<!-- Generator: Adobe Illustrator 24.1.2, SVG Export Plug-In . SVG Version: 6.00 Build 0)  -->
<svg version="1.1" id="Layer_1" xmlns="http://www.w3.org/2000/svg" xmlns:xlink="http://www.w3.org/1999/xlink" x="0px" y="0px"
	 width="440px" height="300px" viewBox="0 0 440 300" style="enable-background:new 0 0 440 300;" xml:space="preserve">
<style type="text/css">
	.st0{fill:#4D9987;}
	.st1{fill:#27ae60;}
	.st2{fill:#C4D7D3;}
	.st3{fill:#FFFFFF;}
	.st4{fill:none;}
	.st5{fill:#185849;}
	.st6{fill:#E9EBDF;}
	.st7{fill:#0E352C;}
</style>
<g>
	<path class="st0" d="M164,192.3c-18.7,0-37-4.2-51-12.3c-13.8-8-21.4-18.7-21.4-30.1s7.6-22.1,21.4-30.1c28.2-16.3,74-16.3,102.1,0
		c12,6.9,19.5,16.1,21.1,25.9c1.3,8.1-1.3,16.2-7.6,23.4c-0.4,0.4-1,0.5-1.4,0.1s-0.5-1-0.1-1.4c5.9-6.7,8.3-14.2,7.1-21.7
		c-1.5-9.2-8.7-17.9-20.1-24.5c-27.6-15.9-72.5-15.9-100.1,0c-13.2,7.6-20.4,17.7-20.4,28.3s7.3,20.7,20.4,28.3
		c22,12.7,55.4,15.7,83,7.3c0.5-0.2,1.1,0.1,1.2,0.7s-0.1,1.1-0.7,1.2C186.7,190.7,175.3,192.4,164,192.3z"/>
	<path class="st1" d="M276,192.2c-18.5,0-37-4.1-51.1-12.2c-13.8-8-21.4-18.7-21.4-30.1s7.6-22.1,21.4-30.1
		c28.2-16.3,74-16.3,102.1,0c13.8,8,21.4,18.7,21.4,30.1s-7.6,22.1-21.4,30.1C313,188.2,294.5,192.2,276,192.2z M276,109.7
		c-18.1,0-36.3,4-50.1,12c-13.2,7.6-20.4,17.7-20.4,28.3s7.3,20.7,20.4,28.3c27.6,15.9,72.5,15.9,100.1,0
		c13.2-7.6,20.4-17.7,20.4-28.3s-7.3-20.7-20.4-28.3l0,0C312.2,113.7,294.1,109.7,276,109.7z"/>
	<path class="st0" d="M197.3,187.6c-0.6,0-1-0.4-1-1c0-0.4,0.3-0.8,0.7-1c6-1.8,11.7-4.2,17.1-7.3c4.9-2.7,9.3-6.2,13-10.4
		c0.4-0.4,1-0.5,1.4-0.1s0.5,1,0.1,1.4c-3.9,4.3-8.5,8-13.5,10.8c-5.5,3.1-11.4,5.6-17.5,7.5C197.5,187.5,197.4,187.6,197.3,187.6z"
		/>
	<path class="st2" d="M293.3,142c-0.1-0.1-0.2-0.1-0.3-0.2c-9.4-5.4-24.6-5.4-33.9,0c-0.1,0.1-0.2,0.1-0.3,0.2H252v8
		c0,3.5,2.3,7.1,7,9.8c9.4,5.4,24.6,5.4,33.9,0c4.7-2.7,7-6.3,7-9.8v-8H293.3z"/>
	<path class="st1" d="M293,159.8c4.7-2.7,7-6.3,7-9.8v-8h-6.7c-0.1-0.1-0.2-0.1-0.3-0.2c-4.7-2.7-10.8-4.1-17-4.1v26.1
		C282.1,163.9,288.3,162.5,293,159.8z"/>
	<ellipse class="st2" cx="276" cy="142" rx="24" ry="13.9"/>
	<path class="st3" d="M276,156.8c-6.3,0-12.7-1.4-17.5-4.2c-4.9-2.8-7.5-6.6-7.5-10.7s2.7-7.9,7.5-10.7c9.6-5.6,25.3-5.6,34.9,0l0,0
		c4.9,2.8,7.5,6.6,7.5,10.7s-2.7,7.9-7.5,10.7C288.6,155.4,282.3,156.8,276,156.8z M276,129.1c-5.7-0.1-11.4,1.2-16.5,3.9
		c-4.2,2.4-6.5,5.6-6.5,8.9s2.3,6.5,6.5,8.9c9.1,5.2,23.9,5.2,32.9,0c4.2-2.4,6.5-5.6,6.5-8.9s-2.3-6.5-6.5-8.9
		C287.4,130.4,281.7,129,276,129.1z"/>
	<ellipse class="st4" cx="276" cy="150" rx="24" ry="13.9"/>
	<path class="st5" d="M276,164.9c-6.1,0.1-12.1-1.3-17.5-4.2c-4.9-2.8-7.5-6.6-7.5-10.7v-8c0-4.1,2.7-7.9,7.5-10.7
		c9.6-5.6,25.3-5.6,34.9,0c4.9,2.8,7.5,6.6,7.5,10.7v8c0,1.5-0.4,3-1.1,4.4c-1.5,2.7-3.7,4.8-6.4,6.3c-2.6,1.4-5.3,2.5-8.2,3.2
		c-0.7,0.2-1.5,0.3-2.3,0.5c-1.5,0.3-3.1,0.4-4.6,0.5C277.6,164.8,276.8,164.9,276,164.9z M276,129.1c-5.7-0.1-11.4,1.2-16.5,3.9
		c-4.2,2.4-6.5,5.6-6.5,8.9v8c0,3.3,2.3,6.5,6.5,8.9c5.1,2.7,10.7,4,16.5,3.9c0.7,0,1.5,0,2.2-0.1c1.5-0.1,3-0.2,4.4-0.5
		c0.7-0.1,1.5-0.3,2.1-0.4c2.7-0.6,5.3-1.6,7.7-2.9c2.4-1.2,4.3-3.1,5.7-5.4c0.6-1.1,0.9-2.3,0.9-3.5v-8c0-3.3-2.3-6.5-6.5-8.9
		C287.4,130.4,281.7,129,276,129.1L276,129.1z"/>
	<path class="st1" d="M265.8,142.5c-0.1,0-0.2,0-0.2-0.1l-3.2-1.9c-0.1-0.1-0.1-0.1-0.1-0.2c0.1-0.1,0.2-0.2,0.4-0.1l10.9,0.5
		c0.2,0,0.4-0.1,0.4-0.2l-0.9-6.3c0-0.1,0-0.2,0.1-0.2c0.2-0.1,0.3-0.1,0.5,0l3.1,1.8c0.1,0,0.1,0.1,0.1,0.1l1,6.8l0,0.1
		c0,0.1-0.1,0.2-0.3,0.2h-0.1L265.8,142.5z"/>
	<path class="st1" d="M279.6,143c0,0.1,0.2,0.2,0.4,0.2l9.5,0.5c0.1,0,0.2,0,0.3-0.1c0.1-0.1,0.1-0.2,0-0.3l-3.1-1.8
		c-0.1,0-0.1-0.1-0.2-0.1l-6.6-0.4c-0.2,0-0.4,0.1-0.4,0.2L279.6,143z"/>
	<path class="st1" d="M277.7,144.1c0.2,0,0.3,0.1,0.4,0.2l1,5.5c0,0.1,0,0.2-0.1,0.2c-0.2,0.1-0.3,0.1-0.5,0l-3.1-1.8
		c-0.1,0-0.1-0.1-0.1-0.1l-0.6-3.8c0-0.1,0.2-0.3,0.4-0.2L277.7,144.1z"/>
	<path class="st2" d="M293.3,134c-0.1-0.1-0.2-0.1-0.3-0.2c-9.4-5.4-24.6-5.4-33.9,0c-0.1,0.1-0.2,0.1-0.3,0.2H252v8
		c0,3.5,2.3,7.1,7,9.8c9.4,5.4,24.6,5.4,33.9,0c4.7-2.7,7-6.3,7-9.8v-8H293.3z"/>
	<path class="st1" d="M293,151.8c4.7-2.7,7-6.3,7-9.8v-8h-6.7c-0.1-0.1-0.2-0.1-0.3-0.2c-4.7-2.7-10.8-4.1-17-4.1v26.1
		C282.1,155.9,288.3,154.5,293,151.8z"/>
	<ellipse class="st2" cx="276" cy="134" rx="24" ry="13.9"/>
	<path class="st3" d="M276,148.8c-6.3,0-12.7-1.4-17.5-4.2c-4.9-2.8-7.5-6.6-7.5-10.7s2.7-7.9,7.5-10.7c9.6-5.6,25.3-5.6,34.9,0l0,0
		c4.9,2.8,7.5,6.6,7.5,10.7s-2.7,7.9-7.5,10.7C288.6,147.4,282.3,148.8,276,148.8z M276,121.1c-5.7-0.1-11.4,1.2-16.5,3.9
		c-4.2,2.4-6.5,5.6-6.5,8.9s2.3,6.5,6.5,8.9c9.1,5.2,23.9,5.2,32.9,0c4.2-2.4,6.5-5.6,6.5-8.9s-2.3-6.5-6.5-8.9
		C287.4,122.4,281.7,121,276,121.1L276,121.1z"/>
	<ellipse class="st4" cx="276" cy="142" rx="24" ry="13.9"/>
	<path class="st5" d="M276,156.9c-6.1,0.1-12.1-1.3-17.5-4.2c-4.9-2.8-7.5-6.6-7.5-10.7v-8c0-4.1,2.7-7.9,7.5-10.7
		c9.6-5.6,25.3-5.6,34.9,0c4.9,2.8,7.5,6.6,7.5,10.7v8c0,1.5-0.4,3-1.1,4.4c-1.5,2.7-3.7,4.8-6.4,6.3c-2.6,1.4-5.3,2.5-8.2,3.2
		c-0.7,0.2-1.5,0.3-2.3,0.5c-1.5,0.3-3.1,0.4-4.6,0.5C277.6,156.8,276.8,156.9,276,156.9z M276,121.1c-5.7-0.1-11.4,1.2-16.5,3.9
		c-4.2,2.4-6.5,5.6-6.5,8.9v8c0,3.3,2.3,6.5,6.5,8.9c5.1,2.7,10.7,4,16.5,3.9c0.7,0,1.5,0,2.2-0.1c1.5-0.1,3-0.2,4.4-0.5
		c0.7-0.1,1.5-0.3,2.1-0.4c2.7-0.6,5.3-1.6,7.7-2.9c2.4-1.2,4.3-3.1,5.7-5.4c0.6-1.1,0.9-2.3,0.9-3.5v-8c0-3.3-2.3-6.5-6.5-8.9
		C287.4,122.4,281.7,121,276,121.1z"/>
	<path class="st1" d="M265.8,134.5c-0.1,0-0.2,0-0.2-0.1l-3.2-1.9c-0.1-0.1-0.1-0.1-0.1-0.2c0.1-0.1,0.2-0.2,0.4-0.1l10.9,0.5
		c0.2,0,0.4-0.1,0.4-0.2l-0.9-6.3c0-0.1,0-0.2,0.1-0.2c0.2-0.1,0.3-0.1,0.5,0l3.1,1.8c0.1,0,0.1,0.1,0.1,0.1l1,6.8l0,0.1
		c0,0.1-0.1,0.2-0.3,0.2h-0.1L265.8,134.5z"/>
	<path class="st1" d="M279.6,135c0,0.1,0.2,0.2,0.4,0.2l9.5,0.5c0.1,0,0.2,0,0.3-0.1c0.1-0.1,0.1-0.2,0-0.3l-3.1-1.8
		c-0.1,0-0.1-0.1-0.2-0.1l-6.6-0.4c-0.2,0-0.4,0.1-0.4,0.2L279.6,135z"/>
	<path class="st1" d="M277.7,136.1c0.2,0,0.3,0.1,0.4,0.2l1,5.5c0,0.1,0,0.2-0.1,0.2c-0.2,0.1-0.3,0.1-0.5,0l-3.1-1.8
		c-0.1,0-0.1-0.1-0.1-0.1l-0.6-3.8c0-0.1,0.2-0.3,0.4-0.2L277.7,136.1z"/>
	<polygon class="st6" points="192.8,150.8 164,167.4 164,157.8 192.8,141.2 	"/>
	<path class="st6" d="M164,168.4c-0.6,0-1-0.4-1-1v-9.6c0-0.4,0.2-0.7,0.5-0.9l28.8-16.6c0.5-0.3,1.1-0.1,1.4,0.4
		c0.1,0.2,0.1,0.3,0.1,0.5v9.6c0,0.4-0.2,0.7-0.5,0.9l-28.8,16.6C164.4,168.4,164.2,168.4,164,168.4z M165,158.4v7.3l26.8-15.5v-7.3
		L165,158.4z"/>
	<polygon class="st6" points="135.3,150.8 164,167.4 164,157.8 135.3,141.2 	"/>
	<path class="st0" d="M164,168.4c-0.2,0-0.3,0-0.5-0.1l-28.8-16.6c-0.3-0.2-0.5-0.5-0.5-0.9v-9.6c0-0.6,0.4-1,1-1
		c0.2,0,0.3,0,0.5,0.1l28.8,16.6c0.3,0.2,0.5,0.5,0.5,0.9v9.6C165,168,164.6,168.4,164,168.4z M136.3,150.2l26.8,15.5v-7.3
		l-26.8-15.5V150.2z"/>
	<polygon class="st3" points="192.8,141.2 164,124.6 135.3,141.2 164,157.8 	"/>
	<path class="st1" d="M164,158.8c-0.2,0-0.3,0-0.5-0.1l-28.8-16.6c-0.5-0.3-0.6-0.9-0.4-1.4c0.1-0.2,0.2-0.3,0.4-0.4l28.8-16.6
		c0.3-0.2,0.7-0.2,1,0l28.8,16.6c0.5,0.3,0.6,0.9,0.4,1.4c-0.1,0.2-0.2,0.3-0.4,0.4l-28.8,16.6C164.4,158.8,164.2,158.8,164,158.8z
		 M137.3,141.2l26.8,15.5l26.8-15.5L164,125.8L137.3,141.2z"/>
	<path class="st2" d="M154.7,141.7c-0.1,0-0.1,0-0.2-0.1l-2.8-1.6c-0.1-0.1-0.1-0.1-0.1-0.2c0.1-0.1,0.2-0.1,0.3-0.1l9.5,0.5
		c0.2,0,0.4-0.1,0.4-0.2l-0.8-5.5c0-0.1,0-0.1,0.1-0.2c0.1-0.1,0.3,0,0.4,0l2.7,1.6c0,0,0.1,0.1,0.1,0.1l0.9,5.9l0,0.1
		c0,0.1-0.1,0.2-0.3,0.2h-0.1L154.7,141.7z"/>
	<path class="st2" d="M166.6,142.1c0,0.1,0.1,0.2,0.3,0.2l8.2,0.4c0.1,0,0.2,0,0.3-0.1c0.1-0.1,0.1-0.2,0-0.2l-2.7-1.6
		c-0.1,0-0.1-0.1-0.2-0.1l-5.7-0.3c-0.2,0-0.4,0.1-0.4,0.2L166.6,142.1z"/>
	<path class="st2" d="M165,143c0.2,0,0.3,0.1,0.3,0.2l0.8,4.8c0,0.1,0,0.1-0.1,0.2c-0.1,0.1-0.3,0-0.4,0l-2.7-1.6
		c0,0-0.1-0.1-0.1-0.1l-0.5-3.3c0-0.1,0.2-0.2,0.4-0.2L165,143z"/>
	<path class="st7" d="M164,168.4c-0.2,0-0.3,0-0.5-0.1l-28.8-16.6c-0.3-0.2-0.5-0.5-0.5-0.9v-9.6c0-0.4,0.2-0.7,0.5-0.9l28.8-16.6
		c0.3-0.2,0.7-0.2,1,0l28.8,16.6c0.3,0.2,0.5,0.5,0.5,0.9v9.6c0,0.4-0.2,0.7-0.5,0.9l-28.8,16.6C164.4,168.4,164.2,168.4,164,168.4z
		 M136.3,150.2l27.8,16l27.8-16v-8.4l-27.8-16l-27.8,16V150.2z"/>
	<polygon class="st6" points="192.8,141.2 164,157.8 164,148.2 192.8,131.6 	"/>
	<path class="st6" d="M164,158.8c-0.6,0-1-0.4-1-1v-9.6c0-0.4,0.2-0.7,0.5-0.9l28.8-16.6c0.5-0.3,1.1-0.1,1.4,0.4
		c0.1,0.2,0.1,0.3,0.1,0.5v9.6c0,0.4-0.2,0.7-0.5,0.9l-28.8,16.6C164.4,158.8,164.2,158.8,164,158.8z M165,148.8v7.3l26.8-15.5v-7.3
		L165,148.8z"/>
	<polygon class="st6" points="135.3,141.2 164,157.8 164,148.2 135.3,131.6 	"/>
	<path class="st0" d="M164,158.8c-0.2,0-0.3,0-0.5-0.1l-28.8-16.6c-0.3-0.2-0.5-0.5-0.5-0.9v-9.6c0-0.6,0.4-1,1-1
		c0.2,0,0.3,0,0.5,0.1l28.8,16.6c0.3,0.2,0.5,0.5,0.5,0.9v9.6C165,158.4,164.6,158.8,164,158.8z M136.3,140.6l26.8,15.5v-7.3
		l-26.8-15.5V140.6z"/>
	<polygon class="st3" points="192.8,131.6 164,115 135.3,131.6 164,148.2 	"/>
	<path class="st0" d="M164,149.2c-0.2,0-0.3,0-0.5-0.1l-28.8-16.6c-0.5-0.3-0.6-0.9-0.4-1.4c0.1-0.2,0.2-0.3,0.4-0.4l28.8-16.6
		c0.3-0.2,0.7-0.2,1,0l28.8,16.6c0.5,0.3,0.6,0.9,0.4,1.4c-0.1,0.2-0.2,0.3-0.4,0.4l-28.8,16.6C164.4,149.2,164.2,149.2,164,149.2z
		 M137.3,131.6l26.8,15.5l26.8-15.5L164,116.2L137.3,131.6z"/>
	<path class="st6" d="M154.7,132.1c-0.1,0-0.1,0-0.2-0.1l-2.8-1.6c-0.1-0.1-0.1-0.1-0.1-0.2c0.1-0.1,0.2-0.1,0.3-0.1l9.5,0.5
		c0.2,0,0.4-0.1,0.4-0.2l-0.8-5.5c0-0.1,0-0.1,0.1-0.2c0.1-0.1,0.3,0,0.4,0l2.7,1.6c0,0,0.1,0.1,0.1,0.1l0.9,5.9l0,0.1
		c0,0.1-0.1,0.2-0.3,0.2h-0.1L154.7,132.1z"/>
	<path class="st6" d="M166.6,132.5c0,0.1,0.1,0.2,0.3,0.2l8.2,0.4c0.1,0,0.2,0,0.3-0.1c0.1-0.1,0.1-0.2,0-0.2l-2.7-1.6
		c-0.1,0-0.1-0.1-0.2-0.1l-5.7-0.3c-0.2,0-0.4,0.1-0.4,0.2L166.6,132.5z"/>
	<path class="st6" d="M165,133.4c0.2,0,0.3,0.1,0.3,0.2l0.8,4.8c0,0.1,0,0.1-0.1,0.2c-0.1,0.1-0.3,0-0.4,0l-2.7-1.6
		c0,0-0.1-0.1-0.1-0.1l-0.5-3.3c0-0.1,0.2-0.2,0.4-0.2L165,133.4z"/>
	<path class="st7" d="M164,158.8c-0.2,0-0.3,0-0.5-0.1l-28.8-16.6c-0.3-0.2-0.5-0.5-0.5-0.9v-9.6c0-0.4,0.2-0.7,0.5-0.9l28.8-16.6
		c0.3-0.2,0.7-0.2,1,0l28.8,16.6c0.3,0.2,0.5,0.5,0.5,0.9v9.6c0,0.4-0.2,0.7-0.5,0.9l-28.8,16.6C164.4,158.8,164.2,158.8,164,158.8z
		 M136.3,140.6l27.8,16l27.8-16v-8.4l-27.8-16l-27.8,16L136.3,140.6z"/>
	<rect class="st4" width="440" height="300"/>
	<rect class="st4" width="440" height="300"/>
</g>
</svg>
