<?xml version="1.0" encoding="utf-8"?>
<!-- Generator: Adobe Illustrator 24.1.2, SVG Export Plug-In . SVG Version: 6.00 Build 0)  -->
<svg version="1.1" id="Layer_1" xmlns="http://www.w3.org/2000/svg" xmlns:xlink="http://www.w3.org/1999/xlink" x="0px" y="0px"
	 width="440px" height="300px" viewBox="0 0 440 300" style="enable-background:new 0 0 440 300;" xml:space="preserve">
<style type="text/css">
	.st0{fill:#27ae60;}
	.st1{fill:#4D9987;}
	.st2{fill:#C4D7D3;}
	.st3{fill:#FFFFFF;}
	.st4{fill:none;}
	.st5{fill:#185849;}
</style>
<g>
	<path class="st0" d="M189.7,168.5c-0.3,0-0.5-0.1-0.7-0.3c-0.1-0.1-0.2-0.2-0.2-0.3c0-0.1-0.1-0.3-0.1-0.4c0-0.4,0.2-0.8,0.6-0.9
		c0.1,0,0.1,0,0.2-0.1c0.2,0,0.4,0,0.6,0.1c0.1,0,0.2,0.1,0.3,0.2c0.1,0.1,0.2,0.2,0.2,0.3l0.1,0.2c0,0.1,0,0.1,0,0.2
		c0,0.3-0.1,0.5-0.3,0.7C190.2,168.4,189.9,168.5,189.7,168.5z"/>
	<path class="st0" d="M193.9,165.1c-0.3-0.5-0.1-1.1,0.4-1.4l0,0c0.5-0.3,1.1-0.1,1.3,0.4c0,0,0,0,0,0l0,0c0.3,0.5,0.1,1.1-0.4,1.4
		c0,0,0,0,0,0l0,0c-0.2,0.1-0.3,0.1-0.5,0.1l0,0C194.4,165.6,194.1,165.4,193.9,165.1z M199.1,162.1c-0.3-0.5-0.1-1.1,0.4-1.3
		c0,0,0,0,0,0l0,0c0.5-0.3,1.1-0.1,1.4,0.4c0,0,0,0,0,0l0,0c0.3,0.5,0.1,1.1-0.4,1.4c0,0,0,0,0,0l0,0c-0.2,0.1-0.3,0.1-0.5,0.1l0,0
		C199.6,162.6,199.2,162.4,199.1,162.1z M204.2,159.1c-0.3-0.5-0.1-1.1,0.4-1.4l0,0c0.5-0.3,1.1-0.1,1.4,0.4l0,0
		c0.3,0.5,0.1,1.1-0.4,1.4l0,0c-0.2,0.1-0.3,0.1-0.5,0.1l0,0C204.7,159.6,204.4,159.4,204.2,159.1L204.2,159.1z"/>
	<path class="st0" d="M210.2,156.7c-0.6,0-1-0.5-1-1c0-0.3,0.1-0.5,0.3-0.7c0.2-0.2,0.6-0.3,0.9-0.3c0.1,0,0.1,0,0.2,0.1
		c0.1,0,0.1,0.1,0.2,0.1c0.1,0,0.1,0.1,0.1,0.1c0.2,0.2,0.3,0.4,0.3,0.7c0,0.3-0.1,0.5-0.3,0.7c0,0-0.1,0.1-0.1,0.1
		c-0.1,0-0.1,0.1-0.2,0.1c-0.1,0-0.1,0-0.2,0.1C210.3,156.7,210.2,156.7,210.2,156.7z"/>
	<path class="st0" d="M182.6,192.2c-0.1,0-0.3,0-0.4-0.1c-0.1-0.1-0.2-0.1-0.3-0.2c-0.4-0.4-0.4-1,0-1.4c0.1-0.1,0.2-0.2,0.3-0.2
		c0.4-0.1,0.8-0.1,1.1,0.2c0.2,0.2,0.3,0.4,0.3,0.7c0,0.3-0.1,0.5-0.3,0.7C183.1,192.1,182.9,192.2,182.6,192.2z"/>
	<path class="st0" d="M229.8,211.8c0-0.5,0.4-1,0.9-1c0,0,0,0,0,0l0,0c0.5,0,1,0.4,1,0.9c0,0,0,0,0,0l0,0c0,0.5-0.4,1-0.9,1
		c0,0,0,0,0,0h0C230.2,212.8,229.8,212.3,229.8,211.8z M224.8,212.6c-0.6,0-1-0.5-0.9-1.1c0,0,0,0,0,0l0,0c0.1-0.5,0.5-1,1.1-0.9
		l0,0c0.6,0.1,1,0.5,0.9,1.1l0,0C225.8,212.2,225.4,212.6,224.8,212.6L224.8,212.6z M235.6,211.2c-0.1-0.5,0.3-1.1,0.8-1.2h0
		c0.5-0.1,1.1,0.3,1.2,0.8l0,0c0.1,0.5-0.3,1.1-0.8,1.2c0,0,0,0,0,0l0,0c-0.1,0-0.1,0-0.2,0l0,0
		C236.2,212.1,235.7,211.7,235.6,211.2z M218.8,211.6L218.8,211.6c-0.5-0.1-0.9-0.7-0.7-1.2c0,0,0,0,0,0l0,0
		c0.1-0.5,0.7-0.9,1.2-0.7l0,0c0.5,0.1,0.9,0.7,0.7,1.2l0,0c-0.1,0.4-0.5,0.8-1,0.8l0,0C218.9,211.7,218.9,211.7,218.8,211.6
		L218.8,211.6z M241.4,209.8c-0.2-0.5,0.1-1.1,0.6-1.3l0,0c0.5-0.2,1.1,0.1,1.3,0.6c0,0,0,0,0,0l0,0c0.2,0.5-0.1,1.1-0.6,1.3
		c0,0,0,0,0,0l0,0c-0.1,0-0.2,0.1-0.4,0.1l0,0C241.9,210.5,241.5,210.2,241.4,209.8L241.4,209.8z M213,209.7L213,209.7
		c-0.5-0.2-0.7-0.8-0.5-1.3l0,0c0.2-0.5,0.8-0.7,1.3-0.5l0,0c0.5,0.2,0.7,0.8,0.5,1.3c0,0,0,0,0,0l0,0c-0.2,0.4-0.5,0.6-0.9,0.6l0,0
		C213.3,209.8,213.1,209.8,213,209.7L213,209.7z M246.8,207.4c-0.3-0.5-0.1-1.1,0.3-1.4c0,0,0,0,0,0l0,0c0.5-0.3,1.1-0.1,1.4,0.4
		c0,0,0,0,0,0l0,0c0.3,0.5,0.1,1.1-0.4,1.4l0,0c-0.2,0.1-0.3,0.1-0.5,0.1l0,0C247.3,207.9,246.9,207.7,246.8,207.4L246.8,207.4z
		 M207.7,206.8c-0.5-0.3-0.6-0.9-0.4-1.3c0,0,0,0,0,0l0,0c0.3-0.5,0.9-0.6,1.4-0.4l0,0c0.5,0.3,0.6,0.9,0.4,1.4c0,0,0,0,0,0l0,0
		c-0.2,0.3-0.5,0.5-0.9,0.5l0,0C208.1,207,207.9,206.9,207.7,206.8L207.7,206.8z M251.9,204.4c-0.3-0.5-0.1-1.1,0.4-1.4l0,0
		c0.5-0.3,1.1-0.1,1.4,0.4l0,0c0.3,0.5,0.1,1.1-0.4,1.3c0,0,0,0,0,0l0,0c-0.2,0.1-0.3,0.1-0.5,0.1l0,0
		C252.4,204.9,252.1,204.7,251.9,204.4L251.9,204.4z M202.6,203.9c-0.5-0.3-0.6-0.9-0.4-1.4l0,0c0.3-0.5,0.9-0.6,1.3-0.4
		c0,0,0,0,0,0l0,0c0.5,0.3,0.6,0.9,0.4,1.3c0,0,0,0,0,0l0,0c-0.2,0.3-0.5,0.5-0.9,0.5l0,0C202.9,204,202.8,204,202.6,203.9
		L202.6,203.9z M257,201.4c-0.3-0.5-0.1-1.1,0.4-1.4c0,0,0,0,0,0l0,0c0.5-0.3,1.1-0.1,1.4,0.4l0,0c0.3,0.5,0.1,1.1-0.4,1.4l0,0
		c-0.2,0.1-0.3,0.1-0.5,0.1l0,0C257.5,202,257.2,201.8,257,201.4z M197.5,200.9c-0.5-0.3-0.6-0.9-0.4-1.4l0,0
		c0.3-0.5,0.9-0.6,1.3-0.4c0,0,0,0,0,0l0,0c0.5,0.3,0.6,0.9,0.4,1.4l0,0c-0.2,0.3-0.5,0.5-0.9,0.5l0,0
		C197.8,201,197.6,201,197.5,200.9z M262.1,198.5c-0.3-0.5-0.1-1.1,0.4-1.4l0,0c0.5-0.3,1.1-0.1,1.4,0.4c0,0,0,0,0,0l0,0
		c0.3,0.5,0.1,1.1-0.4,1.4c0,0,0,0,0,0l0,0c-0.2,0.1-0.3,0.1-0.5,0.1l0,0C262.6,199,262.3,198.8,262.1,198.5z M192.4,198
		c-0.5-0.3-0.6-0.9-0.4-1.3c0,0,0,0,0,0l0,0c0.3-0.5,0.9-0.6,1.4-0.4l0,0c0.5,0.3,0.6,0.9,0.4,1.4l0,0c-0.2,0.3-0.5,0.5-0.9,0.5l0,0
		C192.7,198.1,192.5,198,192.4,198L192.4,198z M267.2,195.5c-0.3-0.5-0.1-1.1,0.4-1.4l0,0c0.5-0.3,1.1-0.1,1.4,0.4c0,0,0,0,0,0l0,0
		c0.3,0.5,0.1,1.1-0.4,1.4l0,0c-0.2,0.1-0.3,0.1-0.5,0.1l0,0C267.7,196,267.4,195.8,267.2,195.5L267.2,195.5z M187.2,195
		c-0.5-0.3-0.6-0.9-0.4-1.4l0,0c0.3-0.5,0.9-0.6,1.4-0.4c0,0,0,0,0,0l0,0c0.5,0.3,0.6,0.9,0.4,1.3c0,0,0,0,0,0l0,0
		c-0.2,0.3-0.5,0.5-0.9,0.5l0,0C187.6,195.1,187.4,195.1,187.2,195z"/>
	<path class="st0" d="M273.2,193.1c-0.1,0-0.3,0-0.4-0.1c-0.1-0.1-0.2-0.1-0.3-0.2c-0.4-0.4-0.4-1,0-1.4c0.2-0.2,0.6-0.3,0.9-0.3
		l0.2,0.1l0.2,0.1c0.1,0,0.1,0.1,0.1,0.1c0.2,0.2,0.3,0.4,0.3,0.7c0,0.1,0,0.3-0.1,0.4c0,0.1-0.1,0.2-0.2,0.3c0,0-0.1,0.1-0.1,0.1
		l-0.2,0.1l-0.2,0.1C273.4,193.1,273.3,193.1,273.2,193.1z"/>
	<path class="st1" d="M148.2,172.4c-0.5-0.3-0.6-0.9-0.4-1.3c0,0,0,0,0,0l0,0c0.3-0.5,0.9-0.6,1.4-0.4l0,0c0.5,0.3,0.6,0.9,0.4,1.4
		c0,0,0,0,0,0l0,0c-0.2,0.3-0.5,0.5-0.9,0.5l0,0C148.5,172.6,148.3,172.5,148.2,172.4z M143,169.4c-0.5-0.3-0.6-0.9-0.4-1.4l0,0
		c0.3-0.5,0.9-0.6,1.4-0.4l0,0c0.5,0.3,0.6,0.9,0.4,1.4c0,0,0,0,0,0l0,0c-0.2,0.3-0.5,0.5-0.9,0.5l0,0
		C143.3,169.6,143.1,169.5,143,169.4L143,169.4z M137.8,166.4c-0.5-0.3-0.6-0.9-0.4-1.3c0,0,0,0,0,0l0,0c0.3-0.5,0.9-0.6,1.3-0.4
		c0,0,0,0,0,0l0,0c0.5,0.3,0.6,0.9,0.4,1.4l0,0c-0.2,0.3-0.5,0.5-0.9,0.5l0,0C138.1,166.6,137.9,166.5,137.8,166.4L137.8,166.4z
		 M132.6,163.4c-0.5-0.3-0.6-0.9-0.4-1.3c0,0,0,0,0,0l0,0c0.3-0.5,0.9-0.6,1.4-0.4c0,0,0,0,0,0l0,0c0.5,0.3,0.6,0.9,0.4,1.4l0,0
		c-0.2,0.3-0.5,0.5-0.9,0.5l0,0C132.9,163.6,132.8,163.5,132.6,163.4L132.6,163.4z M127.4,160.4c-0.5-0.3-0.6-0.9-0.4-1.4l0,0
		c0.3-0.5,0.9-0.6,1.4-0.4l0,0c0.5,0.3,0.6,0.9,0.4,1.4l0,0c-0.2,0.3-0.5,0.5-0.9,0.5l0,0C127.7,160.6,127.5,160.5,127.4,160.4
		L127.4,160.4z M122.2,157.4c-0.5-0.3-0.6-0.9-0.4-1.4c0,0,0,0,0,0l0,0c0.3-0.5,0.9-0.6,1.4-0.4l0,0c0.5,0.3,0.6,0.9,0.4,1.4
		c0,0,0,0,0,0l0,0c-0.2,0.3-0.5,0.5-0.9,0.5l0,0C122.5,157.6,122.4,157.5,122.2,157.4L122.2,157.4z M117,154.2
		c-0.4-0.3-0.5-1-0.2-1.4l0,0c0.3-0.4,1-0.5,1.4-0.2l0,0c0.4,0.3,0.5,1,0.2,1.4c0,0,0,0,0,0l0,0c-0.2,0.2-0.5,0.4-0.8,0.4l0,0
		C117.4,154.4,117.2,154.3,117,154.2L117,154.2z M112.9,149.2c-0.2-0.5,0-1.1,0.5-1.3c0,0,0,0,0,0l0,0c0.5-0.2,1.1,0,1.3,0.5l0,0
		c0.2,0.5,0,1.1-0.5,1.3l0,0c-0.1,0.1-0.3,0.1-0.4,0.1l0,0C113.5,149.8,113.1,149.6,112.9,149.2L112.9,149.2z M113,143.9
		c-0.5-0.1-0.9-0.7-0.7-1.2c0,0,0,0,0,0h0c0.1-0.5,0.7-0.9,1.2-0.7c0,0,0,0,0,0l0,0c0.5,0.1,0.9,0.7,0.7,1.2c0,0,0,0,0,0l0,0
		c-0.1,0.5-0.5,0.8-1,0.8l0,0C113.1,144,113,143.9,113,143.9L113,143.9z M115.5,138.6c-0.4-0.4-0.4-1,0-1.4c0,0,0,0,0,0l0,0
		c0.4-0.4,1-0.4,1.4,0l0,0c0.4,0.4,0.4,1,0,1.4c0,0,0,0,0,0l0,0c-0.2,0.2-0.4,0.3-0.7,0.3l0,0C115.9,138.8,115.7,138.7,115.5,138.6
		L115.5,138.6z M120.2,134.8c-0.3-0.5-0.1-1.1,0.4-1.4c0,0,0,0,0,0l0,0c0.5-0.3,1.1-0.1,1.4,0.4c0,0,0,0,0,0l0,0
		c0.3,0.5,0.1,1.1-0.4,1.4l0,0c-0.2,0.1-0.3,0.1-0.5,0.1l0,0C120.7,135.3,120.3,135.1,120.2,134.8L120.2,134.8z M125.4,131.8
		c-0.3-0.5-0.1-1.1,0.4-1.4l0,0c0.5-0.3,1.1-0.1,1.4,0.4c0,0,0,0,0,0l0,0c0.3,0.5,0.1,1.1-0.3,1.4c0,0,0,0,0,0l0,0
		c-0.2,0.1-0.3,0.1-0.5,0.1l0,0C125.9,132.3,125.5,132.1,125.4,131.8L125.4,131.8z M130.6,128.8c-0.3-0.5-0.1-1.1,0.4-1.4
		c0,0,0,0,0,0l0,0c0.5-0.3,1.1-0.1,1.4,0.4c0,0,0,0,0,0l0,0c0.3,0.5,0.1,1.1-0.4,1.4l0,0c-0.2,0.1-0.3,0.1-0.5,0.1l0,0
		C131.1,129.3,130.7,129.1,130.6,128.8L130.6,128.8z M135.7,125.8c-0.3-0.5-0.1-1.1,0.4-1.4l0,0c0.5-0.3,1.1-0.1,1.3,0.4
		c0,0,0,0,0,0l0,0c0.3,0.5,0.1,1.1-0.3,1.4c0,0,0,0,0,0l0,0c-0.2,0.1-0.3,0.1-0.5,0.1l0,0C136.3,126.3,135.9,126.1,135.7,125.8
		L135.7,125.8z M140.9,122.8c-0.3-0.5-0.1-1.1,0.4-1.4c0,0,0,0,0,0l0,0c0.5-0.3,1.1-0.1,1.4,0.4c0,0,0,0,0,0l0,0
		c0.3,0.5,0.1,1.1-0.4,1.4c0,0,0,0,0,0l0,0c-0.1,0.1-0.3,0.1-0.5,0.1l0,0C141.5,123.3,141.1,123.1,140.9,122.8L140.9,122.8z
		 M146.1,119.8c-0.3-0.5-0.1-1.1,0.4-1.4c0,0,0,0,0,0l0,0c0.5-0.3,1.1-0.1,1.4,0.4l0,0c0.3,0.5,0.1,1.1-0.4,1.4l0,0
		c-0.2,0.1-0.3,0.1-0.5,0.1l0,0C146.7,120.3,146.3,120.1,146.1,119.8L146.1,119.8z"/>
	<path class="st0" d="M303,189.7c-6.3,0-12.7-1.4-17.5-4.2c-4.9-2.8-7.5-6.6-7.5-10.7s2.7-7.9,7.5-10.7c9.6-5.6,25.3-5.6,34.9,0
		c4.9,2.8,7.5,6.6,7.5,10.7s-2.7,7.9-7.5,10.7C315.7,188.3,309.4,189.7,303,189.7z M303,162c-5.7-0.1-11.4,1.2-16.5,3.9
		c-4.2,2.4-6.5,5.6-6.5,8.9s2.3,6.5,6.5,8.9c9.1,5.2,23.9,5.2,32.9,0c4.2-2.4,6.5-5.6,6.5-8.9s-2.3-6.5-6.5-8.9
		C314.5,163.2,308.8,161.9,303,162z"/>
	<path class="st0" d="M213.2,154.9c-0.6,0-1-0.4-1-1c0-0.1,0-0.2,0.1-0.3l1.7-4.7c0.2-0.5,0.8-0.8,1.3-0.6c0.1,0,0.1,0,0.2,0.1
		l6.3,3.7c0.5,0.3,0.6,0.9,0.4,1.4c-0.2,0.3-0.4,0.5-0.7,0.5l-8.1,1C213.3,154.9,213.3,154.9,213.2,154.9z M215.5,150.7l-0.7,2
		l3.5-0.4L215.5,150.7z"/>
	<path class="st0" d="M303,182.3c-6.8,0-12.2-3.3-12.2-7.5s5.4-7.5,12.2-7.5s12.2,3.3,12.2,7.5c0,0.6-0.4,1-1,1s-1-0.4-1-1
		c0-3-4.7-5.5-10.2-5.5s-10.2,2.5-10.2,5.5s4.7,5.5,10.2,5.5c0.6,0,1,0.4,1,1S303.6,182.3,303,182.3z"/>
	<path class="st1" d="M176.9,116.9c-6.3,0-12.7-1.4-17.5-4.2c-4.9-2.8-7.5-6.6-7.5-10.7s2.7-7.9,7.5-10.7c9.6-5.6,25.3-5.6,34.9,0
		l0,0c4.9,2.8,7.5,6.6,7.5,10.7s-2.7,7.9-7.5,10.7C189.6,115.5,183.3,116.9,176.9,116.9z M176.9,89.2c-5.7-0.1-11.4,1.2-16.5,3.9
		c-4.2,2.4-6.5,5.6-6.5,8.9s2.3,6.5,6.5,8.9c9.1,5.2,23.9,5.2,32.9,0c4.2-2.4,6.5-5.6,6.5-8.9s-2.3-6.5-6.5-8.9
		C188.3,90.4,182.7,89.1,176.9,89.2z"/>
	<path class="st1" d="M152.6,119.1c-1,0-2-0.2-2.9-0.7c-1.3-0.5-1.9-2-1.3-3.2c0.3-0.6,0.7-1.1,1.3-1.3c1.9-0.9,4-0.9,5.9,0
		c1.3,0.5,1.9,2,1.3,3.2c-0.3,0.6-0.7,1.1-1.3,1.3C154.7,118.9,153.6,119.1,152.6,119.1z M152.6,115.1c-0.7,0-1.3,0.1-1.9,0.5
		c-0.4,0.2-0.5,0.4-0.5,0.5s0.2,0.3,0.5,0.5c1.2,0.6,2.7,0.6,3.9,0c0.4-0.2,0.5-0.4,0.5-0.5s-0.2-0.3-0.5-0.5
		C154,115.2,153.3,115.1,152.6,115.1z"/>
	<path class="st1" d="M180.4,111.6c-0.2,0-0.3,0-0.5-0.1l-18.3-10.6c-0.5-0.3-0.6-0.9-0.4-1.4c0.2-0.3,0.4-0.4,0.7-0.5l25-3.9
		c0.5-0.1,1.1,0.3,1.1,0.8c0,0.2,0,0.4-0.1,0.6l-6.7,14.4C181.1,111.4,180.8,111.6,180.4,111.6L180.4,111.6z M165,100.6l14.9,8.6
		l5.5-11.7L165,100.6z"/>
	<path class="st0" d="M279.4,193.2c-0.2,0-0.3,0-0.5-0.1l-6.3-3.7c-0.5-0.3-0.6-0.9-0.4-1.4c0.2-0.3,0.4-0.5,0.7-0.5l8.1-1
		c0.5-0.1,1,0.3,1.1,0.9c0,0.2,0,0.3-0.1,0.5l-1.7,4.7C280.2,192.9,279.9,193.1,279.4,193.2L279.4,193.2z M276.2,189.1l2.7,1.6
		l0.7-2L276.2,189.1z"/>
	<path class="st2" d="M183,173.4c-0.1-0.1-0.2-0.1-0.3-0.2c-9.4-5.4-24.6-5.4-33.9,0c-0.1,0.1-0.2,0.1-0.3,0.2h-6.7v8
		c0,3.5,2.3,7.1,7,9.8c9.4,5.4,24.6,5.4,33.9,0c4.7-2.7,7-6.3,7-9.8v-8H183z"/>
	<path class="st0" d="M182.6,191.2c4.7-2.7,7-6.3,7-9.8v-8H183c-0.1-0.1-0.2-0.1-0.3-0.2c-4.7-2.7-10.8-4.1-17-4.1v26.1
		C171.8,195.2,177.9,193.9,182.6,191.2z"/>
	<ellipse class="st2" cx="165.7" cy="173.4" rx="24" ry="13.9"/>
	<path class="st3" d="M165.7,188.2c-6.3,0-12.7-1.4-17.5-4.2c-4.9-2.8-7.5-6.6-7.5-10.7s2.7-7.9,7.5-10.7c9.6-5.6,25.3-5.6,34.9,0
		c4.9,2.8,7.5,6.6,7.5,10.7s-2.7,7.9-7.5,10.7C178.3,186.8,172,188.2,165.7,188.2z M165.7,160.5c-5.7-0.1-11.4,1.2-16.5,3.9
		c-4.2,2.4-6.5,5.6-6.5,8.9s2.3,6.5,6.5,8.9c9.1,5.2,23.9,5.2,32.9,0c4.2-2.4,6.5-5.6,6.5-8.9s-2.3-6.5-6.5-8.9l0,0
		C177.1,161.8,171.4,160.4,165.7,160.5z"/>
	<ellipse class="st4" cx="165.7" cy="181.4" rx="24" ry="13.9"/>
	<path class="st5" d="M165.7,196.2c-6.1,0.1-12.1-1.3-17.5-4.2c-4.9-2.8-7.5-6.6-7.5-10.7v-8c0-4.1,2.7-7.9,7.5-10.7
		c9.6-5.6,25.3-5.6,34.9,0c4.9,2.8,7.5,6.6,7.5,10.7v8c0,1.5-0.4,3-1.1,4.4c-1.5,2.7-3.7,4.8-6.4,6.3c-2.6,1.4-5.3,2.5-8.2,3.2
		c-0.7,0.2-1.5,0.3-2.3,0.5c-1.5,0.3-3.1,0.4-4.6,0.5C167.2,196.2,166.4,196.2,165.7,196.2z M165.7,160.5
		c-5.7-0.1-11.4,1.2-16.5,3.9c-4.2,2.4-6.5,5.6-6.5,8.9v8c0,3.3,2.3,6.5,6.5,8.9c5.1,2.7,10.7,4,16.5,3.9c0.7,0,1.5,0,2.2-0.1
		c1.5-0.1,3-0.2,4.4-0.5c0.7-0.1,1.4-0.3,2.1-0.4c2.7-0.6,5.3-1.6,7.7-2.9c2.4-1.2,4.3-3.1,5.6-5.4c0.6-1.1,0.9-2.3,0.9-3.5v-8
		c0-3.3-2.3-6.5-6.5-8.9C177.1,161.8,171.4,160.4,165.7,160.5L165.7,160.5z"/>
	<path class="st0" d="M155.4,173.9c-0.1,0-0.2,0-0.2-0.1L152,172c-0.1-0.1-0.1-0.1-0.1-0.2c0.1-0.1,0.2-0.2,0.4-0.1l10.9,0.5
		c0.2,0,0.4-0.1,0.4-0.2l-0.9-6.3c0-0.1,0-0.2,0.1-0.2c0.2-0.1,0.3,0,0.5,0l3.1,1.8c0.1,0,0.1,0.1,0.1,0.1l1,6.8l0,0.1
		c0,0.1-0.1,0.2-0.3,0.2h-0.1L155.4,173.9z"/>
	<path class="st0" d="M169.2,174.4c0,0.1,0.2,0.2,0.4,0.2l9.4,0.5c0.1,0,0.2,0,0.3-0.1c0.1-0.1,0.1-0.2,0-0.3l-3.1-1.8
		c-0.1,0-0.1-0.1-0.2-0.1l-6.6-0.4c-0.2,0-0.4,0.1-0.4,0.2L169.2,174.4z"/>
	<path class="st0" d="M167.4,175.4c0.2,0,0.3,0.1,0.4,0.2l1,5.5c0,0.1,0,0.2-0.1,0.2c-0.2,0.1-0.3,0.1-0.5,0l-3.1-1.8
		c-0.1,0-0.1-0.1-0.1-0.1l-0.6-3.8c0-0.1,0.2-0.3,0.4-0.2L167.4,175.4z"/>
	<path class="st2" d="M258.3,129.9c-0.1-0.1-0.2-0.1-0.3-0.2c-9.4-5.4-24.6-5.4-33.9,0c-0.1,0.1-0.2,0.1-0.3,0.2H217v8
		c0,3.5,2.3,7.1,7,9.8c9.4,5.4,24.6,5.4,33.9,0c4.7-2.7,7-6.3,7-9.8v-8H258.3z"/>
	<path class="st0" d="M258,147.7c4.7-2.7,7-6.3,7-9.8v-8h-6.7c-0.1-0.1-0.2-0.1-0.3-0.2c-4.7-2.7-10.8-4.1-17-4.1v26.1
		C247.1,151.7,253.3,150.4,258,147.7z"/>
	<ellipse class="st2" cx="241" cy="129.9" rx="24" ry="13.9"/>
	<path class="st3" d="M241,144.7c-6.3,0-12.7-1.4-17.5-4.2c-4.9-2.8-7.5-6.6-7.5-10.7s2.7-7.9,7.5-10.7c9.6-5.6,25.3-5.6,34.9,0l0,0
		c4.9,2.8,7.5,6.6,7.5,10.7c0,4.1-2.7,7.9-7.5,10.7C253.7,143.3,247.3,144.7,241,144.7z M241,117c-5.7-0.1-11.4,1.2-16.5,3.9
		c-4.2,2.4-6.5,5.6-6.5,8.9c0,3.3,2.3,6.5,6.5,8.9c9.1,5.2,23.9,5.2,32.9,0c4.2-2.4,6.5-5.6,6.5-8.9s-2.3-6.5-6.5-8.9
		C252.4,118.3,246.7,116.9,241,117z"/>
	<ellipse class="st4" cx="241" cy="137.9" rx="24" ry="13.9"/>
	<path class="st5" d="M241,152.7c-6.1,0.1-12.1-1.3-17.5-4.2c-4.9-2.8-7.5-6.6-7.5-10.7v-8c0-4.1,2.7-7.9,7.5-10.7
		c9.6-5.6,25.3-5.6,34.9,0c4.9,2.8,7.5,6.6,7.5,10.7v8c0,1.5-0.4,3-1.1,4.4c-1.5,2.7-3.7,4.8-6.4,6.3c-2.6,1.4-5.3,2.5-8.2,3.2
		c-0.7,0.2-1.5,0.3-2.3,0.5c-1.5,0.3-3.1,0.4-4.6,0.5C242.6,152.7,241.8,152.7,241,152.7z M241,117c-5.7-0.1-11.4,1.2-16.5,3.9
		c-4.2,2.4-6.5,5.6-6.5,8.9v8c0,3.3,2.3,6.5,6.5,8.9c5.1,2.7,10.7,4,16.5,3.9c0.7,0,1.5,0,2.2-0.1c1.5-0.1,3-0.2,4.4-0.5
		c0.7-0.1,1.4-0.3,2.1-0.4c2.7-0.6,5.3-1.6,7.7-2.9c2.4-1.2,4.3-3.1,5.7-5.4c0.6-1.1,0.9-2.3,0.9-3.5v-8c0-3.3-2.3-6.5-6.5-8.9
		C252.9,118.3,247,117,241,117z"/>
	<path class="st0" d="M230.8,130.4c-0.1,0-0.2,0-0.2-0.1l-3.2-1.9c-0.1-0.1-0.1-0.1-0.1-0.2c0.1-0.1,0.2-0.2,0.4-0.1l10.9,0.5
		c0.2,0,0.4-0.1,0.4-0.2l-0.9-6.3c0-0.1,0-0.2,0.1-0.2c0.2-0.1,0.3,0,0.5,0l3.1,1.8c0.1,0,0.1,0.1,0.1,0.1l1,6.8l0,0.1
		c0,0.1-0.1,0.2-0.3,0.2h-0.1L230.8,130.4z"/>
	<path class="st0" d="M244.6,130.9c0,0.1,0.2,0.2,0.4,0.2l9.4,0.5c0.1,0,0.2,0,0.3-0.1c0.1-0.1,0.1-0.2,0-0.3l-3.1-1.8
		c-0.1,0-0.1-0.1-0.2-0.1l-6.6-0.4c-0.2,0-0.4,0.1-0.4,0.2L244.6,130.9z"/>
	<path class="st0" d="M242.7,131.9c0.2,0,0.3,0.1,0.4,0.2l1,5.5c0,0.1,0,0.2-0.1,0.2c-0.2,0.1-0.3,0.1-0.5,0l-3.1-1.8
		c-0.1,0-0.1-0.1-0.1-0.1l-0.6-3.8c0-0.1,0.2-0.3,0.4-0.2L242.7,131.9z"/>
	<rect class="st4" width="440" height="300"/>
	<rect class="st4" width="440" height="300"/>
</g>
</svg>
