<?xml version="1.0" encoding="utf-8"?>
<!-- Generator: Adobe Illustrator 24.1.2, SVG Export Plug-In . SVG Version: 6.00 Build 0)  -->
<svg version="1.1" id="Layer_1" xmlns="http://www.w3.org/2000/svg" xmlns:xlink="http://www.w3.org/1999/xlink" x="0px" y="0px"
	 width="440px" height="300px" viewBox="0 0 440 300" style="enable-background:new 0 0 440 300;" xml:space="preserve">
<style type="text/css">
	.st0{fill:#4D9987;}
	.st1{fill:#27ae60;}
	.st2{fill:#185849;}
	.st3{fill:#E9EBDF;}
	.st4{fill:#FFFFFF;}
	.st5{fill:#0E352C;}
	.st6{fill:#C4D7D3;}
	.st7{fill:none;}
</style>
<g>
	<path class="st0" d="M296.4,198.9c-0.1,0-0.3,0-0.4-0.1c-0.1,0-0.2-0.1-0.3-0.2c-0.2-0.2-0.3-0.4-0.3-0.7c0-0.1,0-0.3,0.1-0.4
		c0.1-0.2,0.3-0.4,0.5-0.5c0.4-0.1,0.8-0.1,1.1,0.2c0.1,0.1,0.2,0.2,0.2,0.3c0.1,0.1,0.1,0.3,0.1,0.4c0,0.1,0,0.3-0.1,0.4
		c0,0.1-0.1,0.2-0.2,0.3c-0.1,0.1-0.2,0.2-0.3,0.2C296.6,198.9,296.5,198.9,296.4,198.9z"/>
	<path class="st0" d="M290.8,195.9c-0.5-0.3-0.6-0.9-0.4-1.3c0,0,0,0,0,0l0,0c0.3-0.5,0.9-0.6,1.4-0.4l0,0c0.5,0.3,0.6,0.9,0.4,1.4
		c0,0,0,0,0,0l0,0c-0.2,0.3-0.5,0.5-0.9,0.5l0,0C291.1,196,290.9,195.9,290.8,195.9z M285.7,192.9c-0.5-0.3-0.6-0.9-0.4-1.4
		c0,0,0,0,0,0l0,0c0.3-0.5,0.9-0.6,1.4-0.4l0,0c0.5,0.3,0.6,0.9,0.4,1.4l0,0c-0.2,0.3-0.5,0.5-0.9,0.5l0,0
		C286,193.1,285.9,193,285.7,192.9L285.7,192.9z M280.6,190c-0.5-0.3-0.6-0.9-0.4-1.4l0,0c0.3-0.5,0.9-0.6,1.4-0.4l0,0
		c0.5,0.3,0.6,0.9,0.4,1.4l0,0c-0.2,0.3-0.5,0.5-0.9,0.5l0,0C281,190.1,280.8,190.1,280.6,190z M275.6,187.1
		c-0.5-0.3-0.6-0.9-0.4-1.4l0,0c0.3-0.5,0.9-0.6,1.4-0.4c0,0,0,0,0,0l0,0c0.5,0.3,0.6,0.9,0.4,1.3c0,0,0,0,0,0l0,0
		c-0.2,0.3-0.5,0.5-0.9,0.5l0,0C275.9,187.2,275.7,187.2,275.6,187.1z M270.5,184.1c-0.5-0.3-0.6-0.9-0.4-1.4c0,0,0,0,0,0l0,0
		c0.3-0.5,0.9-0.6,1.3-0.4c0,0,0,0,0,0l0,0c0.5,0.3,0.6,0.9,0.4,1.3c0,0,0,0,0,0l0,0c-0.2,0.3-0.5,0.5-0.9,0.5l0,0
		C270.8,184.3,270.7,184.2,270.5,184.1z M265.4,181.2c-0.5-0.3-0.6-0.9-0.4-1.3c0,0,0,0,0,0l0,0c0.3-0.5,0.9-0.6,1.4-0.4
		c0,0,0,0,0,0l0,0c0.5,0.3,0.6,0.9,0.4,1.4l0,0c-0.2,0.3-0.5,0.5-0.9,0.5l0,0C265.7,181.4,265.6,181.3,265.4,181.2z M260.4,178.3
		c-0.5-0.3-0.6-0.9-0.4-1.4l0,0c0.3-0.5,0.9-0.6,1.4-0.4c0,0,0,0,0,0l0,0c0.5,0.3,0.6,0.9,0.4,1.4l0,0c-0.2,0.3-0.5,0.5-0.9,0.5l0,0
		C260.7,178.4,260.5,178.4,260.4,178.3L260.4,178.3z M255.3,175.4c-0.5-0.3-0.6-0.9-0.4-1.4l0,0c0.3-0.5,0.9-0.6,1.4-0.4l0,0
		c0.5,0.3,0.6,0.9,0.4,1.4c0,0,0,0,0,0l0,0c-0.2,0.3-0.5,0.5-0.9,0.5l0,0C255.6,175.5,255.4,175.4,255.3,175.4L255.3,175.4z
		 M250.2,172.4c-0.5-0.3-0.6-0.9-0.4-1.3c0,0,0,0,0,0l0,0c0.3-0.5,0.9-0.6,1.4-0.4l0,0c0.5,0.3,0.6,0.9,0.4,1.4c0,0,0,0,0,0l0,0
		c-0.2,0.3-0.5,0.5-0.9,0.5l0,0C250.5,172.6,250.4,172.5,250.2,172.4L250.2,172.4z M245.1,169.5c-0.5-0.3-0.6-0.9-0.4-1.4
		c0,0,0,0,0,0l0,0c0.3-0.5,0.9-0.6,1.3-0.4c0,0,0,0,0,0l0,0c0.5,0.3,0.6,0.9,0.4,1.4l0,0c-0.2,0.3-0.5,0.5-0.9,0.5l0,0
		C245.5,169.6,245.3,169.6,245.1,169.5L245.1,169.5z M240.1,166.6c-0.5-0.3-0.6-0.9-0.4-1.4l0,0c0.3-0.5,0.9-0.6,1.4-0.4
		c0,0,0,0,0,0l0,0c0.5,0.3,0.6,0.9,0.4,1.4l0,0c-0.2,0.3-0.5,0.5-0.9,0.5l0,0C240.4,166.7,240.2,166.7,240.1,166.6L240.1,166.6z
		 M235,163.6c-0.5-0.3-0.6-0.9-0.4-1.4l0,0c0.3-0.5,0.9-0.6,1.4-0.4l0,0c0.5,0.3,0.6,0.9,0.4,1.4c0,0,0,0,0,0l0,0
		c-0.2,0.3-0.5,0.5-0.9,0.5l0,0C235.3,163.8,235.1,163.7,235,163.6L235,163.6z M229.9,160.7c-0.5-0.3-0.6-0.9-0.4-1.4c0,0,0,0,0,0
		l0,0c0.3-0.5,0.9-0.6,1.4-0.4c0,0,0,0,0,0l0,0c0.5,0.3,0.6,0.9,0.4,1.4c0,0,0,0,0,0l0,0c-0.2,0.3-0.5,0.5-0.9,0.5l0,0
		C230.2,160.9,230.1,160.8,229.9,160.7L229.9,160.7z M224.8,157.8c-0.5-0.3-0.6-0.9-0.4-1.3c0,0,0,0,0,0l0,0
		c0.3-0.5,0.9-0.6,1.4-0.4l0,0c0.5,0.3,0.6,0.9,0.4,1.4c0,0,0,0,0,0l0,0c-0.2,0.3-0.5,0.5-0.9,0.5l0,0
		C225.2,157.9,225,157.9,224.8,157.8L224.8,157.8z M219.8,154.9c-0.5-0.3-0.6-0.9-0.4-1.3c0,0,0,0,0,0l0,0c0.3-0.5,0.9-0.6,1.3-0.4
		c0,0,0,0,0,0l0,0c0.5,0.3,0.6,0.9,0.4,1.4l0,0c-0.2,0.3-0.5,0.5-0.9,0.5l0,0C220.1,155,219.9,154.9,219.8,154.9L219.8,154.9z
		 M214.7,151.9c-0.5-0.3-0.6-0.9-0.4-1.4l0,0c0.3-0.5,0.9-0.6,1.4-0.4l0,0c0.5,0.3,0.6,0.9,0.4,1.4l0,0c-0.2,0.3-0.5,0.5-0.9,0.5
		l0,0C215,152.1,214.9,152,214.7,151.9L214.7,151.9z"/>
	<path class="st0" d="M210.1,149.1c-0.5,0-1-0.4-1-1c0,0,0,0,0,0c0-0.1,0-0.3,0.1-0.4c0.1-0.1,0.1-0.2,0.2-0.3
		c0.1-0.1,0.2-0.2,0.3-0.2c0.4-0.2,0.8-0.1,1.1,0.2c0.1,0.1,0.2,0.2,0.2,0.3c0.2,0.4,0.1,0.8-0.2,1.1c-0.1,0.1-0.2,0.2-0.3,0.2
		C210.4,149.1,210.3,149.1,210.1,149.1z"/>
	<path class="st0" d="M123.9,198.9c-0.1,0-0.3,0-0.4-0.1c-0.1,0-0.2-0.1-0.3-0.2c-0.1-0.1-0.2-0.2-0.2-0.3c0-0.1-0.1-0.2-0.1-0.4
		c0-0.1,0-0.3,0.1-0.4c0.1-0.1,0.1-0.2,0.2-0.3c0.4-0.4,1-0.4,1.4,0c0.1,0.1,0.2,0.2,0.2,0.3c0,0.1,0.1,0.3,0.1,0.4
		c0,0.1,0,0.3-0.1,0.4c0,0.1-0.1,0.2-0.2,0.3c-0.1,0.1-0.2,0.2-0.3,0.2C124.2,198.9,124,198.9,123.9,198.9z"/>
	<path class="st0" d="M128.1,195.5c-0.3-0.5-0.1-1.1,0.4-1.4l0,0c0.5-0.3,1.1-0.1,1.4,0.4l0,0c0.3,0.5,0.1,1.1-0.3,1.3c0,0,0,0,0,0
		l0,0c-0.2,0.1-0.3,0.1-0.5,0.1l0,0C128.6,196,128.3,195.8,128.1,195.5z M133.2,192.6c-0.3-0.5-0.1-1.1,0.4-1.4c0,0,0,0,0,0l0,0
		c0.5-0.3,1.1-0.1,1.4,0.4l0,0c0.3,0.5,0.1,1.1-0.4,1.4l0,0c-0.2,0.1-0.3,0.1-0.5,0.1l0,0C133.7,193.1,133.4,192.9,133.2,192.6
		L133.2,192.6z M138.3,189.6c-0.3-0.5-0.1-1.1,0.4-1.4c0,0,0,0,0,0l0,0c0.5-0.3,1.1-0.1,1.4,0.4l0,0c0.3,0.5,0.1,1.1-0.4,1.4
		c0,0,0,0,0,0l0,0c-0.2,0.1-0.3,0.1-0.5,0.1l0,0C138.8,190.1,138.4,189.9,138.3,189.6L138.3,189.6z M143.3,186.7
		c-0.3-0.5-0.1-1.1,0.4-1.4c0,0,0,0,0,0l0,0c0.5-0.3,1.1-0.1,1.4,0.3c0,0,0,0,0,0l0,0c0.3,0.5,0.1,1.1-0.4,1.4l0,0
		c-0.2,0.1-0.3,0.1-0.5,0.1l0,0C143.8,187.2,143.5,187,143.3,186.7L143.3,186.7z M148.4,183.8c-0.3-0.5-0.1-1.1,0.4-1.4l0,0
		c0.5-0.3,1.1-0.1,1.4,0.3c0,0,0,0,0,0l0,0c0.3,0.5,0.1,1.1-0.4,1.4l0,0c-0.2,0.1-0.3,0.1-0.5,0.1l0,0
		C148.9,184.3,148.6,184.1,148.4,183.8L148.4,183.8z M153.5,180.9c-0.3-0.5-0.1-1.1,0.3-1.4c0,0,0,0,0,0l0,0
		c0.5-0.3,1.1-0.1,1.4,0.4c0,0,0,0,0,0l0,0c0.3,0.5,0.1,1.1-0.4,1.4l0,0c-0.2,0.1-0.3,0.1-0.5,0.1l0,0
		C154,181.4,153.6,181.2,153.5,180.9L153.5,180.9z M158.5,177.9c-0.3-0.5-0.1-1.1,0.4-1.4c0,0,0,0,0,0l0,0c0.5-0.3,1.1-0.1,1.4,0.4
		l0,0c0.3,0.5,0.1,1.1-0.4,1.4c0,0,0,0,0,0l0,0c-0.1,0.1-0.3,0.1-0.5,0.1l0,0C159.1,178.4,158.7,178.2,158.5,177.9L158.5,177.9z
		 M163.6,175c-0.3-0.5-0.1-1.1,0.4-1.4l0,0c0.5-0.3,1.1-0.1,1.4,0.4l0,0c0.3,0.5,0.1,1.1-0.4,1.4c0,0,0,0,0,0l0,0
		c-0.2,0.1-0.3,0.1-0.5,0.1l0,0C164.1,175.5,163.8,175.3,163.6,175L163.6,175z M168.7,172.1c-0.3-0.5-0.1-1.1,0.4-1.4l0,0
		c0.5-0.3,1.1-0.1,1.4,0.4l0,0c0.3,0.5,0.1,1.1-0.4,1.4c0,0,0,0,0,0l0,0c-0.2,0.1-0.3,0.1-0.5,0.1l0,0
		C169.2,172.6,168.9,172.4,168.7,172.1L168.7,172.1z M173.8,169.1c-0.3-0.5-0.1-1.1,0.4-1.4l0,0c0.5-0.3,1.1-0.1,1.4,0.4
		c0,0,0,0,0,0l0,0c0.3,0.5,0.1,1.1-0.4,1.4l0,0c-0.2,0.1-0.3,0.1-0.5,0.1l0,0C174.3,169.6,173.9,169.4,173.8,169.1L173.8,169.1z
		 M178.8,166.2c-0.3-0.5-0.1-1.1,0.3-1.3c0,0,0,0,0,0l0,0c0.5-0.3,1.1-0.1,1.4,0.4c0,0,0,0,0,0l0,0c0.3,0.5,0.1,1.1-0.4,1.4l0,0
		c-0.2,0.1-0.3,0.1-0.5,0.1l0,0C179.3,166.7,179,166.5,178.8,166.2L178.8,166.2z M183.9,163.3c-0.3-0.5-0.1-1.1,0.4-1.4c0,0,0,0,0,0
		l0,0c0.5-0.3,1.1-0.1,1.4,0.4l0,0c0.3,0.5,0.1,1.1-0.4,1.4l0,0c-0.2,0.1-0.3,0.1-0.5,0.1l0,0C184.4,163.8,184.1,163.6,183.9,163.3
		L183.9,163.3z M189,160.4c-0.3-0.5-0.1-1.1,0.4-1.4l0,0c0.5-0.3,1.1-0.1,1.4,0.4l0,0c0.3,0.5,0.1,1.1-0.4,1.4c0,0,0,0,0,0l0,0
		c-0.2,0.1-0.3,0.1-0.5,0.1l0,0C189.5,160.9,189.2,160.7,189,160.4L189,160.4z M194,157.4c-0.3-0.5-0.1-1.1,0.4-1.4l0,0
		c0.5-0.3,1.1-0.1,1.4,0.4c0,0,0,0,0,0l0,0c0.3,0.5,0.1,1.1-0.4,1.4l0,0c-0.2,0.1-0.3,0.1-0.5,0.1l0,0
		C194.5,157.9,194.2,157.7,194,157.4L194,157.4z M199.1,154.5c-0.3-0.5-0.1-1.1,0.4-1.4c0,0,0,0,0,0l0,0c0.5-0.3,1.1-0.1,1.4,0.4
		c0,0,0,0,0,0l0,0c0.3,0.5,0.1,1.1-0.4,1.4l0,0c-0.2,0.1-0.3,0.1-0.5,0.1l0,0C199.6,155,199.3,154.8,199.1,154.5L199.1,154.5z
		 M204.2,151.6c-0.3-0.5-0.1-1.1,0.4-1.4c0,0,0,0,0,0l0,0c0.5-0.3,1.1-0.1,1.4,0.4l0,0c0.3,0.5,0.1,1.1-0.4,1.4c0,0,0,0,0,0l0,0
		c-0.1,0.1-0.3,0.1-0.5,0.1l0,0C204.7,152.1,204.4,151.9,204.2,151.6L204.2,151.6z"/>
	<path class="st0" d="M210.1,149.1c-0.5,0-1-0.4-1-1c0,0,0,0,0,0c0-0.1,0-0.3,0.1-0.4c0.1-0.1,0.1-0.2,0.2-0.3
		c0.1-0.1,0.2-0.2,0.3-0.2c0.4-0.2,0.8-0.1,1.1,0.2c0.1,0.1,0.2,0.2,0.2,0.3c0.2,0.4,0.1,0.8-0.2,1.1c-0.1,0.1-0.2,0.2-0.3,0.2
		C210.4,149.1,210.3,149.1,210.1,149.1z"/>
	<path class="st0" d="M210.1,149.1c-0.5,0-1-0.4-1-1c0,0,0,0,0,0c0-0.1,0-0.3,0.1-0.4c0.1-0.1,0.1-0.2,0.2-0.3
		c0.1-0.1,0.2-0.2,0.3-0.2c0.4-0.2,0.8-0.1,1.1,0.2c0.1,0.1,0.2,0.2,0.2,0.3c0.2,0.4,0.1,0.8-0.2,1.1c-0.1,0.1-0.2,0.2-0.3,0.2
		C210.4,149.1,210.3,149.1,210.1,149.1z"/>
	<path class="st0" d="M214.6,145.5c-0.3-0.5-0.1-1.1,0.4-1.4c0,0,0,0,0,0l0,0c0.5-0.3,1.1-0.1,1.4,0.4c0,0,0,0,0,0l0,0
		c0.3,0.5,0.1,1.1-0.4,1.4l0,0c-0.2,0.1-0.3,0.1-0.5,0.1l0,0C215.2,146,214.8,145.8,214.6,145.5z M220,142.4
		c-0.3-0.5-0.1-1.1,0.4-1.4l0,0c0.5-0.3,1.1-0.1,1.4,0.4l0,0c0.3,0.5,0.1,1.1-0.4,1.4l0,0c-0.2,0.1-0.3,0.1-0.5,0.1l0,0
		C220.5,142.9,220.2,142.7,220,142.4L220,142.4z M225.4,139.3c-0.3-0.5-0.1-1.1,0.4-1.4l0,0c0.5-0.3,1.1-0.1,1.3,0.3c0,0,0,0,0,0
		l0,0c0.3,0.5,0.1,1.1-0.3,1.3c0,0,0,0,0,0l0,0c-0.1,0.1-0.3,0.1-0.5,0.1l0,0C225.9,139.8,225.6,139.6,225.4,139.3L225.4,139.3z
		 M230.8,136.2c-0.3-0.5-0.1-1.1,0.4-1.4c0,0,0,0,0,0l0,0c0.5-0.3,1.1-0.1,1.4,0.4l0,0c0.3,0.5,0.1,1.1-0.4,1.4l0,0
		c-0.2,0.1-0.3,0.1-0.5,0.1l0,0C231.3,136.7,231,136.5,230.8,136.2L230.8,136.2z M236.2,133.1c-0.3-0.5-0.1-1.1,0.4-1.4c0,0,0,0,0,0
		l0,0c0.5-0.3,1.1-0.1,1.4,0.4l0,0c0.3,0.5,0.1,1.1-0.4,1.4l0,0c-0.1,0.1-0.3,0.1-0.5,0.1l0,0C236.7,133.6,236.4,133.4,236.2,133.1
		L236.2,133.1z M241.6,130c-0.3-0.5-0.1-1.1,0.4-1.4l0,0c0.5-0.3,1.1-0.1,1.4,0.4l0,0c0.3,0.5,0.1,1.1-0.3,1.4c0,0,0,0,0,0l0,0
		c-0.2,0.1-0.3,0.1-0.5,0.1l0,0C242.1,130.5,241.8,130.3,241.6,130z M247,126.9c-0.3-0.5-0.1-1.1,0.4-1.4c0,0,0,0,0,0l0,0
		c0.5-0.3,1.1-0.1,1.4,0.4l0,0c0.3,0.5,0.1,1.1-0.4,1.4l0,0c-0.2,0.1-0.3,0.1-0.5,0.1l0,0C247.5,127.4,247.1,127.2,247,126.9z"/>
	<path class="st0" d="M253.2,124.3c-0.1,0-0.3,0-0.4-0.1c-0.1,0-0.2-0.1-0.3-0.2c-0.2-0.2-0.3-0.4-0.3-0.7c0-0.1,0-0.1,0-0.2
		c0-0.1,0-0.1,0.1-0.2c0-0.1,0-0.1,0.1-0.2c0-0.1,0.1-0.1,0.1-0.2c0.4-0.4,1-0.4,1.4,0c0,0,0.1,0.1,0.1,0.2c0,0.1,0.1,0.1,0.1,0.2
		c0,0.1,0,0.1,0.1,0.2c0,0.1,0,0.1,0,0.2c0,0.1,0,0.3-0.1,0.4c-0.1,0.1-0.1,0.2-0.2,0.3c-0.1,0.1-0.2,0.2-0.3,0.2
		C253.5,124.2,253.4,124.3,253.2,124.3z"/>
	<path class="st0" d="M210.1,149.1c-0.5,0-1-0.4-1-1c0,0,0,0,0,0c0-0.1,0-0.3,0.1-0.4c0.1-0.1,0.1-0.2,0.2-0.3
		c0.1-0.1,0.2-0.2,0.3-0.2c0.4-0.2,0.8-0.1,1.1,0.2c0.1,0.1,0.2,0.2,0.2,0.3c0.2,0.4,0.1,0.8-0.2,1.1c-0.1,0.1-0.2,0.2-0.3,0.2
		C210.4,149.1,210.3,149.1,210.1,149.1z"/>
	<path class="st0" d="M204.2,145.9c-0.5-0.3-0.6-0.9-0.4-1.4l0,0c0.3-0.5,0.9-0.6,1.4-0.4c0,0,0,0,0,0l0,0c0.5,0.3,0.6,0.9,0.4,1.4
		c0,0,0,0,0,0l0,0c-0.2,0.3-0.5,0.5-0.9,0.5l0,0C204.6,146,204.4,146,204.2,145.9z M198.9,142.8c-0.5-0.3-0.6-0.9-0.4-1.4l0,0
		c0.3-0.5,0.9-0.6,1.4-0.4c0,0,0,0,0,0l0,0c0.5,0.3,0.6,0.9,0.4,1.4c0,0,0,0,0,0l0,0c-0.2,0.3-0.5,0.5-0.9,0.5l0,0
		C199.2,142.9,199,142.9,198.9,142.8L198.9,142.8z M193.5,139.7c-0.5-0.3-0.6-0.9-0.4-1.3c0,0,0,0,0,0l0,0c0.3-0.5,0.9-0.6,1.3-0.4
		c0,0,0,0,0,0l0,0c0.5,0.3,0.6,0.9,0.4,1.3c0,0,0,0,0,0l0,0c-0.2,0.3-0.5,0.5-0.9,0.5l0,0C193.8,139.8,193.6,139.8,193.5,139.7
		L193.5,139.7z M188.1,136.6c-0.5-0.3-0.6-0.9-0.4-1.4c0,0,0,0,0,0l0,0c0.3-0.5,0.9-0.6,1.4-0.4l0,0c0.5,0.3,0.6,0.9,0.4,1.4l0,0
		c-0.2,0.3-0.5,0.5-0.9,0.5l0,0C188.4,136.7,188.2,136.7,188.1,136.6L188.1,136.6z M182.7,133.5c-0.5-0.3-0.6-0.9-0.4-1.3
		c0,0,0,0,0,0l0,0c0.3-0.5,0.9-0.6,1.4-0.4l0,0c0.5,0.3,0.6,0.9,0.4,1.4l0,0c-0.2,0.3-0.5,0.5-0.9,0.5l0,0
		C183,133.6,182.8,133.5,182.7,133.5L182.7,133.5z M177.3,130.3c-0.5-0.3-0.6-0.9-0.4-1.3c0,0,0,0,0,0l0,0c0.3-0.5,0.9-0.6,1.4-0.4
		l0,0c0.5,0.3,0.6,0.9,0.4,1.4c0,0,0,0,0,0l0,0c-0.2,0.3-0.5,0.5-0.9,0.5l0,0C177.6,130.5,177.5,130.4,177.3,130.3L177.3,130.3z
		 M171.9,127.2c-0.5-0.3-0.6-0.9-0.4-1.4c0,0,0,0,0,0l0,0c0.3-0.5,0.9-0.6,1.4-0.4l0,0c0.5,0.3,0.6,0.9,0.4,1.4c0,0,0,0,0,0l0,0
		c-0.2,0.3-0.5,0.5-0.9,0.5l0,0C172.2,127.4,172.1,127.3,171.9,127.2L171.9,127.2z"/>
	<path class="st0" d="M167,124.3c-0.3,0-0.5-0.1-0.7-0.3c-0.1-0.1-0.2-0.2-0.2-0.3c-0.1-0.1-0.1-0.2-0.1-0.4c0-0.1,0-0.1,0-0.2
		c0-0.1,0-0.1,0.1-0.2c0-0.1,0.1-0.1,0.1-0.2c0-0.1,0.1-0.1,0.1-0.2c0.3-0.3,0.7-0.4,1.1-0.2c0.1,0.1,0.2,0.1,0.3,0.2
		c0,0.1,0.1,0.1,0.1,0.2c0,0.1,0.1,0.1,0.1,0.2c0,0.1,0.1,0.1,0.1,0.2c0,0.1,0,0.1,0,0.2c0,0.1,0,0.3-0.1,0.4
		c-0.1,0.1-0.1,0.2-0.2,0.3c-0.1,0.1-0.2,0.2-0.3,0.2C167.3,124.2,167.2,124.3,167,124.3z"/>
	<path class="st1" d="M78.4,174.6c-1,0-2-0.2-2.9-0.7l0,0c-1.2-0.5-1.8-2-1.3-3.2c0.2-0.6,0.7-1.1,1.3-1.3c1.8-0.9,4-0.9,5.8,0
		c1.2,0.5,1.8,2,1.3,3.2c-0.2,0.6-0.7,1.1-1.3,1.3C80.4,174.4,79.4,174.6,78.4,174.6z M78.4,170.7c-0.7,0-1.3,0.1-1.9,0.4
		c-0.3,0.2-0.5,0.4-0.5,0.5s0.2,0.3,0.5,0.5l0,0c1.2,0.6,2.6,0.6,3.8,0c0.3-0.2,0.5-0.4,0.5-0.5s-0.2-0.3-0.5-0.5
		C79.7,170.8,79,170.7,78.4,170.7L78.4,170.7z"/>
	<path class="st0" d="M255.6,124.8c-1,0-2-0.2-2.9-0.7c-1.3-0.5-1.8-2-1.3-3.2c0.2-0.6,0.7-1.1,1.3-1.3c1.8-0.9,4-0.9,5.8,0
		c1.3,0.5,1.8,2,1.3,3.2c-0.2,0.6-0.7,1.1-1.3,1.3l0,0C257.7,124.6,256.7,124.9,255.6,124.8z M255.6,120.9c-0.7,0-1.3,0.1-1.9,0.4
		c-0.3,0.2-0.5,0.4-0.5,0.5s0.2,0.3,0.5,0.5c1.2,0.6,2.6,0.6,3.8,0l0,0c0.3-0.2,0.5-0.4,0.5-0.5s-0.2-0.3-0.5-0.5
		C257,121,256.3,120.9,255.6,120.9z"/>
	<path class="st1" d="M164.6,124.8c-1,0-2-0.2-2.9-0.7l0,0c-1.2-0.5-1.8-2-1.3-3.2c0.2-0.6,0.7-1.1,1.3-1.3c1.8-0.9,4-0.9,5.8,0
		c1.3,0.5,1.8,2,1.3,3.2c-0.2,0.6-0.7,1.1-1.3,1.3C166.6,124.6,165.6,124.9,164.6,124.8z M162.7,122.4c1.2,0.6,2.6,0.6,3.8,0
		c0.3-0.2,0.5-0.4,0.5-0.5s-0.2-0.3-0.5-0.5c-1.2-0.6-2.6-0.6-3.8,0c-0.3,0.2-0.5,0.4-0.5,0.5S162.3,122.2,162.7,122.4z"/>
	<path class="st2" d="M342.9,176c-0.2,0-0.3,0-0.5-0.1l-6.8-4c-0.5-0.3-0.6-0.9-0.4-1.4c0.2-0.3,0.4-0.5,0.8-0.5l8.3-0.8
		c0.5-0.1,1,0.3,1.1,0.9c0,0.1,0,0.3,0,0.4l-1.4,4.8c-0.1,0.3-0.3,0.5-0.6,0.6C343.1,176,343,176,342.9,176z M339.2,171.8l3.1,1.8
		l0.6-2.1L339.2,171.8z"/>
	<path class="st2" d="M296.4,198.9c-0.1,0-0.3,0-0.4-0.1c-0.1,0-0.2-0.1-0.3-0.2c-0.2-0.2-0.3-0.4-0.3-0.7c0-0.1,0-0.3,0.1-0.4
		c0.1-0.2,0.3-0.4,0.5-0.5c0.4-0.1,0.8-0.1,1.1,0.2c0.1,0.1,0.2,0.2,0.2,0.3c0.1,0.1,0.1,0.3,0.1,0.4c0,0.1,0,0.3-0.1,0.4
		c0,0.1-0.1,0.2-0.2,0.3c-0.1,0.1-0.2,0.2-0.3,0.2C296.6,198.9,296.5,198.9,296.4,198.9z"/>
	<path class="st2" d="M300.9,195.3c-0.3-0.5-0.1-1.1,0.4-1.4l0,0c0.5-0.3,1.1-0.1,1.4,0.4l0,0c0.3,0.5,0.1,1.1-0.4,1.4c0,0,0,0,0,0
		l0,0c-0.2,0.1-0.3,0.1-0.5,0.1l0,0C301.4,195.8,301.1,195.6,300.9,195.3z M306.3,192.2c-0.3-0.5-0.1-1.1,0.4-1.4c0,0,0,0,0,0l0,0
		c0.5-0.3,1.1-0.1,1.4,0.4l0,0c0.3,0.5,0.1,1.1-0.4,1.4c0,0,0,0,0,0l0,0c-0.2,0.1-0.3,0.1-0.5,0.1l0,0
		C306.8,192.7,306.4,192.5,306.3,192.2L306.3,192.2z M311.6,189.1c-0.3-0.5-0.1-1.1,0.4-1.4l0,0c0.5-0.3,1.1-0.1,1.4,0.4
		c0,0,0,0,0,0l0,0c0.3,0.5,0.1,1.1-0.3,1.4c0,0,0,0,0,0l0,0c-0.2,0.1-0.3,0.1-0.5,0.1l0,0C312.2,189.6,311.8,189.4,311.6,189.1
		L311.6,189.1z M317,186c-0.3-0.5-0.1-1.1,0.4-1.4c0,0,0,0,0,0l0,0c0.5-0.3,1.1-0.1,1.4,0.4c0,0,0,0,0,0l0,0
		c0.3,0.5,0.1,1.1-0.4,1.4l0,0c-0.2,0.1-0.3,0.1-0.5,0.1l0,0C317.6,186.5,317.2,186.3,317,186L317,186z M322.4,182.9
		c-0.3-0.5-0.1-1.1,0.4-1.4c0,0,0,0,0,0l0,0c0.5-0.3,1.1-0.1,1.4,0.4c0,0,0,0,0,0l0,0c0.3,0.5,0.1,1.1-0.4,1.4c0,0,0,0,0,0l0,0
		c-0.1,0.1-0.3,0.1-0.5,0.1l0,0C322.9,183.4,322.6,183.2,322.4,182.9L322.4,182.9z M327.8,179.8c-0.3-0.5-0.1-1.1,0.4-1.4
		c0,0,0,0,0,0l0,0c0.5-0.3,1.1-0.1,1.4,0.4l0,0c0.3,0.5,0.1,1.1-0.4,1.4l0,0c-0.2,0.1-0.3,0.1-0.5,0.1l0,0
		C328.3,180.3,328,180.1,327.8,179.8L327.8,179.8z M333.2,176.7c-0.3-0.5-0.1-1.1,0.4-1.4l0,0c0.5-0.3,1.1-0.1,1.4,0.4l0,0
		c0.3,0.5,0.1,1.1-0.4,1.4c0,0,0,0,0,0l0,0c-0.2,0.1-0.3,0.1-0.5,0.1l0,0C333.7,177.2,333.4,177,333.2,176.7L333.2,176.7z"/>
	<path class="st2" d="M339.5,174.1c-0.1,0-0.3,0-0.4-0.1c-0.1,0-0.2-0.1-0.3-0.2c-0.2-0.2-0.3-0.4-0.3-0.7c0-0.1,0-0.3,0.1-0.4
		c0-0.1,0.1-0.2,0.2-0.3c0.4-0.4,1-0.4,1.4,0c0.1,0.1,0.2,0.2,0.2,0.3c0,0.1,0.1,0.3,0.1,0.4c0,0.3-0.1,0.5-0.3,0.7
		c-0.1,0.1-0.2,0.2-0.3,0.2C339.7,174,339.6,174,339.5,174.1z"/>
	<path class="st2" d="M123.9,198.9c-0.1,0-0.3,0-0.4-0.1c-0.1,0-0.2-0.1-0.3-0.2c-0.1-0.1-0.2-0.2-0.2-0.3c0-0.1-0.1-0.2-0.1-0.4
		c0-0.1,0-0.3,0.1-0.4c0.1-0.1,0.1-0.2,0.2-0.3c0.4-0.4,1-0.4,1.4,0c0.1,0.1,0.2,0.2,0.2,0.3c0,0.1,0.1,0.3,0.1,0.4
		c0,0.1,0,0.3-0.1,0.4c0,0.1-0.1,0.2-0.2,0.3c-0.1,0.1-0.2,0.2-0.3,0.2C124.2,198.9,124,198.9,123.9,198.9z"/>
	<path class="st2" d="M118,195.7c-0.5-0.3-0.6-0.9-0.4-1.4l0,0c0.3-0.5,0.9-0.6,1.4-0.4c0,0,0,0,0,0l0,0c0.5,0.3,0.6,0.9,0.4,1.4
		c0,0,0,0,0,0l0,0c-0.2,0.3-0.5,0.5-0.9,0.5l0,0C118.3,195.8,118.2,195.8,118,195.7z M112.6,192.6c-0.5-0.3-0.6-0.9-0.4-1.4l0,0
		c0.3-0.5,0.9-0.6,1.4-0.4c0,0,0,0,0,0l0,0c0.5,0.3,0.6,0.9,0.4,1.4l0,0c-0.2,0.3-0.5,0.5-0.9,0.5l0,0
		C112.9,192.7,112.8,192.7,112.6,192.6z M107.2,189.5c-0.5-0.3-0.6-0.9-0.4-1.3c0,0,0,0,0,0l0,0c0.3-0.5,0.9-0.6,1.3-0.4
		c0,0,0,0,0,0l0,0c0.5,0.3,0.6,0.9,0.4,1.4c0,0,0,0,0,0l0,0c-0.2,0.3-0.5,0.5-0.9,0.5l0,0C107.6,189.6,107.4,189.5,107.2,189.5z
		 M101.9,186.4c-0.5-0.3-0.6-0.9-0.4-1.4c0,0,0,0,0,0l0,0c0.3-0.5,0.9-0.6,1.4-0.4c0,0,0,0,0,0l0,0c0.5,0.3,0.6,0.9,0.4,1.4l0,0
		c-0.2,0.3-0.5,0.5-0.9,0.5l0,0C102.2,186.5,102,186.4,101.9,186.4z M96.5,183.2c-0.5-0.3-0.6-0.9-0.4-1.4c0,0,0,0,0,0l0,0
		c0.3-0.5,0.9-0.6,1.4-0.4c0,0,0,0,0,0l0,0c0.5,0.3,0.6,0.9,0.4,1.4l0,0c-0.2,0.3-0.5,0.5-0.9,0.5l0,0
		C96.8,183.4,96.6,183.3,96.5,183.2L96.5,183.2z M91.1,180.1c-0.5-0.3-0.6-0.9-0.4-1.4c0,0,0,0,0,0l0,0c0.3-0.5,0.9-0.6,1.4-0.4l0,0
		c0.5,0.3,0.6,0.9,0.4,1.4c0,0,0,0,0,0l0,0c-0.2,0.3-0.5,0.5-0.9,0.5l0,0C91.4,180.3,91.2,180.2,91.1,180.1L91.1,180.1z M85.7,177
		c-0.5-0.3-0.6-0.9-0.4-1.4c0,0,0,0,0,0l0,0c0.3-0.5,0.9-0.6,1.4-0.4l0,0c0.5,0.3,0.6,0.9,0.4,1.4l0,0c-0.2,0.3-0.5,0.5-0.9,0.5l0,0
		C86,177.2,85.8,177.1,85.7,177L85.7,177z"/>
	<path class="st2" d="M80.8,174.1c-0.3,0-0.5-0.1-0.7-0.3c-0.1-0.1-0.2-0.2-0.2-0.3c0-0.1-0.1-0.2-0.1-0.4c0-0.1,0-0.3,0.1-0.4
		c0.1-0.1,0.1-0.2,0.2-0.3c0.4-0.4,1-0.4,1.4,0c0.1,0.1,0.2,0.2,0.2,0.3c0.1,0.1,0.1,0.3,0.1,0.4c0,0.1,0,0.3-0.1,0.4
		c-0.1,0.2-0.3,0.4-0.5,0.5C81.1,174,80.9,174,80.8,174.1z"/>
	<path class="st2" d="M123.9,198.9c-0.1,0-0.3,0-0.4-0.1c-0.1,0-0.2-0.1-0.3-0.2c-0.1-0.1-0.2-0.2-0.2-0.3c0-0.1-0.1-0.2-0.1-0.4
		c0-0.1,0-0.3,0.1-0.4c0.1-0.1,0.1-0.2,0.2-0.3c0.4-0.4,1-0.4,1.4,0c0.1,0.1,0.2,0.2,0.2,0.3c0,0.1,0.1,0.3,0.1,0.4
		c0,0.1,0,0.3-0.1,0.4c0,0.1-0.1,0.2-0.2,0.3c-0.1,0.1-0.2,0.2-0.3,0.2C124.2,198.9,124,198.9,123.9,198.9z"/>
	<path class="st2" d="M204.6,245.6c-0.5-0.3-0.6-0.9-0.4-1.4l0,0c0.3-0.5,0.9-0.6,1.4-0.4l0,0c0.5,0.3,0.6,0.9,0.4,1.3c0,0,0,0,0,0
		l0,0c-0.2,0.3-0.5,0.5-0.9,0.5l0,0C204.9,245.8,204.7,245.7,204.6,245.6z M199.5,242.7c-0.5-0.3-0.6-0.9-0.4-1.4c0,0,0,0,0,0l0,0
		c0.3-0.5,0.9-0.6,1.4-0.4c0,0,0,0,0,0l0,0c0.5,0.3,0.6,0.9,0.4,1.4l0,0c-0.2,0.3-0.5,0.5-0.9,0.5l0,0
		C199.8,242.9,199.6,242.8,199.5,242.7z M194.4,239.8c-0.5-0.3-0.6-0.9-0.4-1.4c0,0,0,0,0,0l0,0c0.3-0.5,0.9-0.6,1.4-0.4
		c0,0,0,0,0,0l0,0c0.5,0.3,0.6,0.9,0.4,1.4l0,0c-0.2,0.3-0.5,0.5-0.9,0.5l0,0C194.7,239.9,194.6,239.9,194.4,239.8L194.4,239.8z
		 M189.3,236.9c-0.5-0.3-0.6-0.9-0.4-1.4c0,0,0,0,0,0l0,0c0.3-0.5,0.9-0.6,1.4-0.4l0,0c0.5,0.3,0.6,0.9,0.4,1.4l0,0
		c-0.2,0.3-0.5,0.5-0.9,0.5l0,0C189.7,237,189.5,236.9,189.3,236.9L189.3,236.9z M184.3,233.9c-0.5-0.3-0.6-0.9-0.4-1.4l0,0
		c0.3-0.5,0.9-0.6,1.4-0.4l0,0c0.5,0.3,0.6,0.9,0.4,1.4c0,0,0,0,0,0l0,0c-0.2,0.3-0.5,0.5-0.9,0.5l0,0
		C184.6,234.1,184.4,234,184.3,233.9L184.3,233.9z M179.2,231c-0.5-0.3-0.6-0.9-0.4-1.4c0,0,0,0,0,0l0,0c0.3-0.5,0.9-0.6,1.3-0.4
		c0,0,0,0,0,0l0,0c0.5,0.3,0.6,0.9,0.4,1.3c0,0,0,0,0,0l0,0c-0.2,0.3-0.5,0.5-0.9,0.5l0,0C179.5,231.1,179.3,231.1,179.2,231
		L179.2,231z M174.1,228.1c-0.5-0.3-0.6-0.9-0.4-1.4l0,0c0.3-0.5,0.9-0.6,1.4-0.4c0,0,0,0,0,0l0,0c0.5,0.3,0.6,0.9,0.4,1.4l0,0
		c-0.2,0.3-0.5,0.5-0.9,0.5l0,0C174.4,228.2,174.3,228.2,174.1,228.1L174.1,228.1z M169,225.1c-0.5-0.3-0.6-0.9-0.4-1.4c0,0,0,0,0,0
		l0,0c0.3-0.5,0.9-0.6,1.4-0.4l0,0c0.5,0.3,0.6,0.9,0.4,1.4c0,0,0,0,0,0l0,0c-0.2,0.3-0.5,0.5-0.9,0.5l0,0
		C169.4,225.3,169.2,225.2,169,225.1L169,225.1z M164,222.2c-0.5-0.3-0.6-0.9-0.4-1.4c0,0,0,0,0,0l0,0c0.3-0.5,0.9-0.6,1.4-0.4l0,0
		c0.5,0.3,0.6,0.9,0.4,1.4l0,0c-0.2,0.3-0.5,0.5-0.9,0.5l0,0C164.3,222.4,164.1,222.3,164,222.2L164,222.2z M158.9,219.3
		c-0.5-0.3-0.6-0.9-0.4-1.3c0,0,0,0,0,0l0,0c0.3-0.5,0.9-0.6,1.4-0.4l0,0c0.5,0.3,0.6,0.9,0.4,1.4c0,0,0,0,0,0l0,0
		c-0.2,0.3-0.5,0.5-0.9,0.5l0,0C159.2,219.4,159.1,219.4,158.9,219.3L158.9,219.3z M153.8,216.4c-0.5-0.3-0.6-0.9-0.4-1.4l0,0
		c0.3-0.5,0.9-0.6,1.4-0.4l0,0c0.5,0.3,0.6,0.9,0.4,1.4c0,0,0,0,0,0l0,0c-0.2,0.3-0.5,0.5-0.9,0.5l0,0
		C154.2,216.5,154,216.5,153.8,216.4L153.8,216.4z M148.8,213.4c-0.5-0.3-0.6-0.9-0.4-1.4c0,0,0,0,0,0l0,0c0.3-0.5,0.9-0.6,1.4-0.4
		l0,0c0.5,0.3,0.6,0.9,0.4,1.4c0,0,0,0,0,0l0,0c-0.2,0.3-0.5,0.5-0.9,0.5l0,0C149.1,213.6,148.9,213.5,148.8,213.4L148.8,213.4z
		 M143.7,210.5c-0.5-0.3-0.6-0.9-0.4-1.4c0,0,0,0,0,0l0,0c0.3-0.5,0.9-0.6,1.4-0.4l0,0c0.5,0.3,0.6,0.9,0.4,1.4l0,0
		c-0.2,0.3-0.5,0.5-0.9,0.5l0,0C144,210.6,143.8,210.6,143.7,210.5L143.7,210.5z M138.6,207.6c-0.5-0.3-0.6-0.9-0.4-1.4l0,0
		c0.3-0.5,0.9-0.6,1.3-0.4c0,0,0,0,0,0l0,0c0.5,0.3,0.6,0.9,0.4,1.4l0,0c-0.2,0.3-0.5,0.5-0.9,0.5l0,0
		C138.9,207.7,138.8,207.7,138.6,207.6L138.6,207.6z M133.5,204.6c-0.5-0.3-0.6-0.9-0.4-1.4l0,0c0.3-0.5,0.9-0.6,1.4-0.4
		c0,0,0,0,0,0l0,0c0.5,0.3,0.6,0.9,0.4,1.4l0,0c-0.2,0.3-0.5,0.5-0.9,0.5l0,0C133.9,204.8,133.7,204.7,133.5,204.6L133.5,204.6z
		 M128.5,201.7c-0.5-0.3-0.6-0.9-0.4-1.4l0,0c0.3-0.5,0.9-0.6,1.4-0.4c0,0,0,0,0,0l0,0c0.5,0.3,0.6,0.9,0.4,1.4c0,0,0,0,0,0l0,0
		c-0.2,0.3-0.5,0.5-0.9,0.5l0,0C128.8,201.9,128.6,201.8,128.5,201.7L128.5,201.7z"/>
	<path class="st2" d="M210.1,248.7c-0.1,0-0.3,0-0.4-0.1c-0.1-0.1-0.2-0.1-0.3-0.2c-0.2-0.2-0.3-0.4-0.3-0.7c0-0.3,0.1-0.5,0.3-0.7
		c0.1-0.1,0.2-0.2,0.3-0.2c0.2-0.1,0.4-0.1,0.6-0.1c0.1,0,0.1,0,0.2,0.1c0.1,0,0.1,0.1,0.2,0.1c0.1,0,0.1,0.1,0.1,0.1
		c0,0,0.1,0.1,0.1,0.2c0,0.1,0.1,0.1,0.1,0.2s0,0.1,0.1,0.2c0,0.1,0,0.1,0,0.2c0,0.3-0.1,0.5-0.3,0.7c-0.1,0.1-0.2,0.2-0.3,0.2
		C210.4,248.7,210.3,248.7,210.1,248.7z"/>
	<path class="st2" d="M214.3,245.3c-0.3-0.5-0.1-1.1,0.4-1.4l0,0c0.5-0.3,1.1-0.1,1.4,0.4l0,0c0.3,0.5,0.1,1.1-0.4,1.4l0,0
		c-0.2,0.1-0.3,0.1-0.5,0.1l0,0C214.8,245.8,214.5,245.6,214.3,245.3z M219.4,242.4c-0.3-0.5-0.1-1.1,0.4-1.4c0,0,0,0,0,0l0,0
		c0.5-0.3,1.1-0.1,1.4,0.4l0,0c0.3,0.5,0.1,1.1-0.4,1.4l0,0c-0.2,0.1-0.3,0.1-0.5,0.1l0,0C219.9,242.9,219.6,242.7,219.4,242.4
		L219.4,242.4z M224.5,239.4c-0.3-0.5-0.1-1.1,0.4-1.4l0,0c0.5-0.3,1.1-0.1,1.4,0.4l0,0c0.3,0.5,0.1,1.1-0.4,1.4l0,0
		c-0.2,0.1-0.3,0.1-0.5,0.1l0,0C225,239.9,224.7,239.7,224.5,239.4L224.5,239.4z M229.6,236.5c-0.3-0.5-0.1-1.1,0.4-1.4c0,0,0,0,0,0
		l0,0c0.5-0.3,1.1-0.1,1.4,0.4l0,0c0.3,0.5,0.1,1.1-0.4,1.3c0,0,0,0,0,0l0,0c-0.2,0.1-0.3,0.1-0.5,0.1l0,0
		C230.1,237,229.7,236.8,229.6,236.5L229.6,236.5z M234.6,233.6c-0.3-0.5-0.1-1.1,0.4-1.4l0,0c0.5-0.3,1.1-0.1,1.4,0.4l0,0
		c0.3,0.5,0.1,1.1-0.4,1.4c0,0,0,0,0,0l0,0c-0.2,0.1-0.3,0.1-0.5,0.1l0,0C235.1,234.1,234.8,233.9,234.6,233.6L234.6,233.6z
		 M239.7,230.6c-0.3-0.5-0.1-1.1,0.4-1.4l0,0c0.5-0.3,1.1-0.1,1.4,0.4l0,0c0.3,0.5,0.1,1.1-0.4,1.4l0,0c-0.2,0.1-0.3,0.1-0.5,0.1
		l0,0C240.2,231.1,239.9,230.9,239.7,230.6L239.7,230.6z M244.8,227.7c-0.3-0.5-0.1-1.1,0.4-1.4c0,0,0,0,0,0l0,0
		c0.5-0.3,1.1-0.1,1.4,0.4c0,0,0,0,0,0l0,0c0.3,0.5,0.1,1.1-0.4,1.4c0,0,0,0,0,0l0,0c-0.2,0.1-0.3,0.1-0.5,0.1l0,0
		C245.3,228.2,244.9,228,244.8,227.7L244.8,227.7z M249.8,224.8c-0.3-0.5-0.1-1.1,0.4-1.4c0,0,0,0,0,0l0,0c0.5-0.3,1.1-0.1,1.4,0.4
		l0,0c0.3,0.5,0.1,1.1-0.4,1.4l0,0c-0.2,0.1-0.3,0.1-0.5,0.1l0,0C250.4,225.3,250,225.1,249.8,224.8L249.8,224.8z M254.9,221.9
		c-0.3-0.5-0.1-1.1,0.4-1.4l0,0c0.5-0.3,1.1-0.1,1.4,0.4c0,0,0,0,0,0l0,0c0.3,0.5,0.1,1.1-0.3,1.4c0,0,0,0,0,0l0,0
		c-0.2,0.1-0.3,0.1-0.5,0.1l0,0C255.4,222.4,255.1,222.2,254.9,221.9L254.9,221.9z M260,218.9c-0.3-0.5-0.1-1.1,0.4-1.4l0,0
		c0.5-0.3,1.1-0.1,1.4,0.4l0,0c0.3,0.5,0.1,1.1-0.4,1.4l0,0c-0.2,0.1-0.3,0.1-0.5,0.1l0,0C260.5,219.4,260.2,219.2,260,218.9
		L260,218.9z M265.1,216c-0.3-0.5-0.1-1.1,0.4-1.4c0,0,0,0,0,0l0,0c0.5-0.3,1.1-0.1,1.4,0.4l0,0c0.3,0.5,0.1,1.1-0.4,1.4l0,0
		c-0.2,0.1-0.3,0.1-0.5,0.1l0,0C265.6,216.5,265.2,216.3,265.1,216L265.1,216z M270.1,213.1c-0.3-0.5-0.1-1.1,0.4-1.4l0,0
		c0.5-0.3,1.1-0.1,1.4,0.4l0,0c0.3,0.5,0.1,1.1-0.4,1.4c0,0,0,0,0,0l0,0c-0.2,0.1-0.3,0.1-0.5,0.1l0,0
		C270.6,213.6,270.3,213.4,270.1,213.1L270.1,213.1z M275.2,210.1c-0.3-0.5-0.1-1.1,0.4-1.4l0,0c0.5-0.3,1.1-0.1,1.4,0.3
		c0,0,0,0,0,0l0,0c0.3,0.5,0.1,1.1-0.4,1.4c0,0,0,0,0,0l0,0c-0.2,0.1-0.3,0.1-0.5,0.1l0,0C275.7,210.6,275.4,210.4,275.2,210.1
		L275.2,210.1z M280.3,207.2c-0.3-0.5-0.1-1.1,0.4-1.4l0,0c0.5-0.3,1.1-0.1,1.4,0.4c0,0,0,0,0,0l0,0c0.3,0.5,0.1,1.1-0.4,1.4l0,0
		c-0.2,0.1-0.3,0.1-0.5,0.1l0,0C280.8,207.7,280.5,207.5,280.3,207.2L280.3,207.2z M285.4,204.3c-0.3-0.5-0.1-1.1,0.3-1.3
		c0,0,0,0,0,0l0,0c0.5-0.3,1.1-0.1,1.4,0.4c0,0,0,0,0,0l0,0c0.3,0.5,0.1,1.1-0.4,1.4l0,0c-0.2,0.1-0.3,0.1-0.5,0.1l0,0
		C285.9,204.8,285.5,204.6,285.4,204.3L285.4,204.3z M290.4,201.4c-0.3-0.5-0.1-1.1,0.4-1.4l0,0c0.5-0.3,1.1-0.1,1.4,0.4
		c0,0,0,0,0,0l0,0c0.3,0.5,0.1,1.1-0.4,1.4c0,0,0,0,0,0l0,0c-0.1,0.1-0.3,0.1-0.5,0.1l0,0C290.9,201.9,290.6,201.7,290.4,201.4
		L290.4,201.4z"/>
	<path class="st2" d="M296.4,198.9c-0.1,0-0.3,0-0.4-0.1c-0.1,0-0.2-0.1-0.3-0.2c-0.2-0.2-0.3-0.4-0.3-0.7c0-0.1,0-0.3,0.1-0.4
		c0.1-0.2,0.3-0.4,0.5-0.5c0.4-0.1,0.8-0.1,1.1,0.2c0.1,0.1,0.2,0.2,0.2,0.3c0.1,0.1,0.1,0.3,0.1,0.4c0,0.1,0,0.3-0.1,0.4
		c0,0.1-0.1,0.2-0.2,0.3c-0.1,0.1-0.2,0.2-0.3,0.2C296.6,198.9,296.5,198.9,296.4,198.9z"/>
	<path class="st1" d="M266.1,116.8c-0.6,0-1-0.4-1-1v-5.7c0-0.6,0.4-1,1-1s1,0.4,1,1v5.7C267.1,116.4,266.7,116.8,266.1,116.8z"/>
	<polygon class="st3" points="317.2,106.1 283.1,125.7 283.1,114.3 317.2,94.7 	"/>
	<path class="st0" d="M283.1,126.7c-0.6,0-1-0.4-1-1l0-11.4c0-0.4,0.2-0.7,0.5-0.9l34.1-19.6c0.5-0.3,1.1-0.1,1.4,0.4
		c0.1,0.2,0.1,0.3,0.1,0.5l0,11.4c0,0.4-0.2,0.7-0.5,0.9l-34.1,19.6C283.5,126.6,283.3,126.7,283.1,126.7z M284.1,114.9l0,9
		l32.1-18.5l0-9L284.1,114.9z"/>
	<polygon class="st4" points="249.1,106 283.1,125.7 283.1,114.3 249.1,94.6 	"/>
	<path class="st0" d="M283.1,126.7c-0.2,0-0.3,0-0.5-0.1l-34-19.7c-0.3-0.2-0.5-0.5-0.5-0.9l0-11.4c0-0.6,0.4-1,1-1
		c0.2,0,0.3,0,0.5,0.1l34,19.7c0.3,0.2,0.5,0.5,0.5,0.9l0,11.4C284.1,126.2,283.7,126.7,283.1,126.7L283.1,126.7z M250.1,105.4
		l32,18.6l0-9l-32-18.6L250.1,105.4z"/>
	<polygon class="st4" points="317.2,94.7 283.2,75 249.1,94.6 283.1,114.3 	"/>
	<path class="st0" d="M283.1,115.3c-0.2,0-0.3,0-0.5-0.1l-34-19.7c-0.5-0.3-0.6-0.9-0.4-1.4c0.1-0.2,0.2-0.3,0.4-0.4l34.1-19.6
		c0.3-0.2,0.7-0.2,1,0l34,19.7c0.5,0.3,0.6,0.9,0.4,1.4c-0.1,0.2-0.2,0.3-0.4,0.4l-34.1,19.6C283.5,115.3,283.3,115.3,283.1,115.3z
		 M251.1,94.6l32,18.6l32.1-18.5l-32-18.6L251.1,94.6z"/>
	<path class="st0" d="M300.2,105.5c-0.2,0-0.3,0-0.5-0.1l-17-9.9c-0.5-0.3-0.6-0.9-0.4-1.4c0.1-0.2,0.2-0.3,0.4-0.4l17-9.8
		c0.3-0.2,0.7-0.2,1,0l17,9.9c0.5,0.3,0.6,0.9,0.4,1.4c-0.1,0.2-0.2,0.3-0.4,0.4l-17,9.8C300.5,105.5,300.4,105.5,300.2,105.5z
		 M285.2,94.7l15,8.7l15-8.7l-15-8.7L285.2,94.7z"/>
	<path class="st0" d="M283.1,115.3c-0.2,0-0.3,0-0.5-0.1l-34-19.7c-0.5-0.3-0.6-0.9-0.4-1.4c0.1-0.2,0.2-0.3,0.4-0.4l34.1-19.6
		c0.3-0.2,0.7-0.2,1,0l34,19.7c0.5,0.3,0.6,0.9,0.4,1.4c-0.1,0.2-0.2,0.3-0.4,0.4l-34.1,19.6C283.5,115.3,283.3,115.3,283.1,115.3z
		 M251.1,94.6l32,18.6l32.1-18.5l-32-18.6L251.1,94.6z"/>
	<path class="st0" d="M300.2,116.9c-0.6,0-1-0.4-1-1v-11.4c0-0.6,0.4-1,1-1s1,0.4,1,1v11.4C301.2,116.4,300.7,116.9,300.2,116.9z"/>
	<path class="st0" d="M300.2,98.5c-3.3,0-5.9-1.7-5.9-3.8s2.6-3.8,5.9-3.8s5.9,1.7,5.9,3.8S303.5,98.5,300.2,98.5z M300.2,92.9
		c-2.4,0-3.9,1.1-3.9,1.8s1.5,1.8,3.9,1.8s3.9-1.1,3.9-1.8S302.6,92.9,300.2,92.9z"/>
	<ellipse class="st3" cx="283.2" cy="80" rx="1.6" ry="0.9"/>
	<ellipse class="st3" cx="257.8" cy="94.6" rx="1.6" ry="0.9"/>
	<ellipse class="st3" cx="283.1" cy="109.3" rx="1.6" ry="0.9"/>
	<path class="st5" d="M283.1,126.7c-0.2,0-0.3,0-0.5-0.1l-34-19.7c-0.3-0.2-0.5-0.5-0.5-0.9l0-11.4c0-0.4,0.2-0.7,0.5-0.9l34.1-19.6
		c0.3-0.2,0.7-0.2,1,0l34,19.7c0.3,0.2,0.5,0.5,0.5,0.9l0,11.4c0,0.4-0.2,0.7-0.5,0.9l-34.1,19.6
		C283.5,126.6,283.3,126.7,283.1,126.7z M250.1,105.4l33,19.1l33.1-19l0-10.2l-33-19.1l-33.1,19L250.1,105.4z"/>
	<polygon class="st3" points="317.2,94.7 283.1,114.3 283.1,103 317.2,83.4 	"/>
	<path class="st0" d="M283.1,115.3c-0.6,0-1-0.4-1-1l0-11.4c0-0.4,0.2-0.7,0.5-0.9l34.1-19.6c0.5-0.3,1.1-0.1,1.4,0.4
		c0.1,0.2,0.1,0.3,0.1,0.5l0,11.3c0,0.4-0.2,0.7-0.5,0.9l-34.1,19.6C283.5,115.3,283.3,115.3,283.1,115.3z M284.1,103.5l0,9
		l32.1-18.5l0-9L284.1,103.5z"/>
	<polygon class="st4" points="249.1,94.6 283.1,114.3 283.1,103 249.1,83.3 	"/>
	<path class="st0" d="M283.1,115.3c-0.2,0-0.3,0-0.5-0.1l-34-19.7c-0.3-0.2-0.5-0.5-0.5-0.9l0-11.4c0-0.6,0.4-1,1-1
		c0.2,0,0.3,0,0.5,0.1l34,19.7c0.3,0.2,0.5,0.5,0.5,0.9l0,11.4C284.1,114.9,283.7,115.3,283.1,115.3L283.1,115.3z M250.1,94l32,18.6
		l0-9l-32-18.6L250.1,94z"/>
	<polygon class="st4" points="317.2,83.4 283.2,63.6 249.1,83.3 283.1,103 	"/>
	<path class="st0" d="M283.1,104c-0.2,0-0.3,0-0.5-0.1l-34-19.7c-0.5-0.3-0.6-0.9-0.4-1.4c0.1-0.2,0.2-0.3,0.4-0.4l34.1-19.6
		c0.3-0.2,0.7-0.2,1,0l34,19.7c0.5,0.3,0.6,0.9,0.4,1.4c-0.1,0.2-0.2,0.3-0.4,0.4l-34.1,19.6C283.5,103.9,283.3,104,283.1,104z
		 M251.1,83.3l32,18.6l32.1-18.5l-32-18.6L251.1,83.3z"/>
	<path class="st0" d="M300.2,94.2c-0.2,0-0.3,0-0.5-0.1l-17-9.9c-0.5-0.3-0.6-0.9-0.4-1.4c0.1-0.2,0.2-0.3,0.4-0.4l17-9.8
		c0.3-0.2,0.7-0.2,1,0l17,9.9c0.5,0.3,0.6,0.9,0.4,1.4c-0.1,0.2-0.2,0.3-0.4,0.4l-17,9.8C300.5,94.1,300.4,94.2,300.2,94.2z
		 M285.2,83.3l15,8.7l15-8.7l-15-8.7L285.2,83.3z"/>
	<path class="st0" d="M283.1,104c-0.2,0-0.3,0-0.5-0.1l-34-19.7c-0.5-0.3-0.6-0.9-0.4-1.4c0.1-0.2,0.2-0.3,0.4-0.4l34.1-19.6
		c0.3-0.2,0.7-0.2,1,0l34,19.7c0.5,0.3,0.6,0.9,0.4,1.4c-0.1,0.2-0.2,0.3-0.4,0.4l-34.1,19.6C283.5,103.9,283.3,104,283.1,104z
		 M251.1,83.3l32,18.6l32.1-18.5l-32-18.6L251.1,83.3z"/>
	<path class="st0" d="M300.2,105.5c-0.6,0-1-0.4-1-1V93.2c0-0.6,0.4-1,1-1s1,0.4,1,1v11.4C301.2,105.1,300.7,105.5,300.2,105.5
		L300.2,105.5z"/>
	<path class="st0" d="M300.2,87.2c-3.3,0-5.9-1.7-5.9-3.8s2.6-3.8,5.9-3.8s5.9,1.7,5.9,3.8S303.5,87.2,300.2,87.2z M300.2,81.5
		c-2.4,0-3.9,1.1-3.9,1.8s1.5,1.8,3.9,1.8s3.9-1.1,3.9-1.8S302.6,81.5,300.2,81.5z"/>
	<ellipse class="st0" cx="283.2" cy="68.7" rx="1.6" ry="0.9"/>
	<ellipse class="st0" cx="257.8" cy="83.3" rx="1.6" ry="0.9"/>
	<ellipse class="st0" cx="283.1" cy="97.9" rx="1.6" ry="0.9"/>
	<path class="st5" d="M283.1,115.3c-0.2,0-0.3,0-0.5-0.1l-34-19.7c-0.3-0.2-0.5-0.5-0.5-0.9l0-11.4c0-0.4,0.2-0.7,0.5-0.9l34.1-19.6
		c0.3-0.2,0.7-0.2,1,0l34,19.7c0.3,0.2,0.5,0.5,0.5,0.9l0,11.3c0,0.4-0.2,0.7-0.5,0.9l-34.1,19.6
		C283.5,115.3,283.3,115.3,283.1,115.3z M250.1,94l33,19.1l33.1-19l0-10.2l-33-19.1l-33.1,19L250.1,94z"/>
	<polygon class="st3" points="317.2,83.4 283.1,103 283.1,91.6 317.2,72 	"/>
	<path class="st0" d="M283.1,104c-0.6,0-1-0.4-1-1l0-11.4c0-0.4,0.2-0.7,0.5-0.9l34.1-19.6c0.5-0.3,1.1-0.1,1.4,0.4
		c0.1,0.2,0.1,0.3,0.1,0.5l0,11.4c0,0.4-0.2,0.7-0.5,0.9l-34.1,19.6C283.5,103.9,283.3,104,283.1,104z M284.1,92.2l0,9l32.1-18.5
		l0-9L284.1,92.2z"/>
	<polygon class="st4" points="249.1,83.3 283.1,103 283.1,91.6 249.1,71.9 	"/>
	<path class="st0" d="M283.1,104c-0.2,0-0.3,0-0.5-0.1l-34-19.7c-0.3-0.2-0.5-0.5-0.5-0.9l0-11.4c0-0.6,0.4-1,1-1
		c0.2,0,0.3,0,0.5,0.1l34,19.7c0.3,0.2,0.5,0.5,0.5,0.9l0,11.4C284.1,103.5,283.7,104,283.1,104L283.1,104z M250.1,82.7l32,18.6l0-9
		l-32-18.6L250.1,82.7z"/>
	<polygon class="st4" points="317.2,72 283.2,52.3 249.1,71.9 283.1,91.6 	"/>
	<path class="st0" d="M283.1,92.6c-0.2,0-0.3,0-0.5-0.1l-34-19.7c-0.5-0.3-0.6-0.9-0.4-1.4c0.1-0.2,0.2-0.3,0.4-0.4l34.1-19.6
		c0.3-0.2,0.7-0.2,1,0l34,19.7c0.5,0.3,0.6,0.9,0.4,1.4c-0.1,0.2-0.2,0.3-0.4,0.4l-34.1,19.6C283.5,92.6,283.3,92.6,283.1,92.6z
		 M251.1,71.9l32,18.6L315.2,72l-32-18.6L251.1,71.9z"/>
	<path class="st0" d="M300.2,82.8c-0.2,0-0.3,0-0.5-0.1l-17-9.9c-0.5-0.3-0.6-0.9-0.4-1.4c0.1-0.2,0.2-0.3,0.4-0.4l17-9.8
		c0.3-0.2,0.7-0.2,1,0l17,9.9c0.5,0.3,0.6,0.9,0.4,1.4c-0.1,0.2-0.2,0.3-0.4,0.4l-17,9.8C300.5,82.8,300.4,82.8,300.2,82.8z
		 M285.2,72l15,8.7l15-8.7l-15-8.7L285.2,72z"/>
	<path class="st0" d="M283.1,92.6c-0.2,0-0.3,0-0.5-0.1l-34-19.7c-0.5-0.3-0.6-0.9-0.4-1.4c0.1-0.2,0.2-0.3,0.4-0.4l34.1-19.6
		c0.3-0.2,0.7-0.2,1,0l34,19.7c0.5,0.3,0.6,0.9,0.4,1.4c-0.1,0.2-0.2,0.3-0.4,0.4l-34.1,19.6C283.5,92.6,283.3,92.6,283.1,92.6z
		 M251.1,71.9l32,18.6L315.2,72l-32-18.6L251.1,71.9z"/>
	<path class="st0" d="M300.2,94.2c-0.6,0-1-0.4-1-1V81.8c0-0.6,0.4-1,1-1s1,0.4,1,1v11.4C301.2,93.7,300.7,94.2,300.2,94.2z"/>
	<path class="st0" d="M300.2,75.8c-3.3,0-5.9-1.7-5.9-3.8s2.6-3.8,5.9-3.8s5.9,1.7,5.9,3.8S303.5,75.8,300.2,75.8z M300.2,70.2
		c-2.4,0-3.9,1.1-3.9,1.8s1.5,1.8,3.9,1.8s3.9-1.1,3.9-1.8S302.6,70.2,300.2,70.2z"/>
	<ellipse class="st0" cx="283.2" cy="57.3" rx="1.6" ry="0.9"/>
	<ellipse class="st0" cx="257.8" cy="71.9" rx="1.6" ry="0.9"/>
	<ellipse class="st0" cx="283.2" cy="86.6" rx="1.6" ry="0.9"/>
	<path class="st5" d="M283.1,104c-0.2,0-0.3,0-0.5-0.1l-34-19.7c-0.3-0.2-0.5-0.5-0.5-0.9l0-11.4c0-0.4,0.2-0.7,0.5-0.9l34.1-19.6
		c0.3-0.2,0.7-0.2,1,0l17,9.9l0,0l17,9.9c0.3,0.2,0.5,0.5,0.5,0.9l0,11.4c0,0.4-0.2,0.7-0.5,0.9l-34.1,19.6
		C283.5,103.9,283.3,104,283.1,104z M250.1,82.7l33,19.1l33.1-19l0-10.2l-33-19.1l-33.1,19L250.1,82.7z"/>
	<path class="st1" d="M164.6,124.8c-1,0-2-0.2-2.9-0.7l0,0c-1.2-0.5-1.8-2-1.3-3.2c0.2-0.6,0.7-1.1,1.3-1.3c1.8-0.9,4-0.9,5.8,0
		c1.3,0.5,1.8,2,1.3,3.2c-0.2,0.6-0.7,1.1-1.3,1.3C166.6,124.6,165.6,124.9,164.6,124.8z M162.7,122.4c1.2,0.6,2.6,0.6,3.8,0
		c0.3-0.2,0.5-0.4,0.5-0.5s-0.2-0.3-0.5-0.5c-1.2-0.6-2.6-0.6-3.8,0c-0.3,0.2-0.5,0.4-0.5,0.5S162.3,122.2,162.7,122.4z"/>
	<path class="st2" d="M78.4,174.6c-1,0-2-0.2-2.9-0.7l0,0c-1.2-0.5-1.8-2-1.3-3.2c0.2-0.6,0.7-1.1,1.3-1.3c1.8-0.9,4-0.9,5.8,0
		c1.2,0.5,1.8,2,1.3,3.2c-0.2,0.6-0.7,1.1-1.3,1.3C80.4,174.4,79.4,174.6,78.4,174.6z M78.4,170.7c-0.7,0-1.3,0.1-1.9,0.4
		c-0.3,0.2-0.5,0.4-0.5,0.5s0.2,0.3,0.5,0.5l0,0c1.2,0.6,2.6,0.6,3.8,0c0.3-0.2,0.5-0.4,0.5-0.5s-0.2-0.3-0.5-0.5
		C79.7,170.8,79,170.7,78.4,170.7L78.4,170.7z"/>
	<polygon class="st6" points="84.9,155.8 50.8,175.5 50.8,164.1 84.9,144.5 	"/>
	<path class="st1" d="M50.8,176.5c-0.6,0-1-0.4-1-1l0-11.4c0-0.4,0.2-0.7,0.5-0.9l34.1-19.6c0.5-0.3,1.1-0.1,1.4,0.4
		c0.1,0.2,0.1,0.3,0.1,0.5l0,11.4c0,0.4-0.2,0.7-0.5,0.9l-34.1,19.6C51.2,176.4,51,176.5,50.8,176.5z M51.8,164.7l0,9l32.1-18.5l0-9
		L51.8,164.7z"/>
	<polygon class="st4" points="16.8,155.7 50.8,175.5 50.8,164.1 16.8,144.4 	"/>
	<path class="st1" d="M50.8,176.5c-0.2,0-0.3,0-0.5-0.1l-34-19.7c-0.3-0.2-0.5-0.5-0.5-0.9l0-11.4c0-0.6,0.4-1,1-1
		c0.2,0,0.3,0,0.5,0.1l34,19.7c0.3,0.2,0.5,0.5,0.5,0.9l0,11.4C51.8,176,51.4,176.5,50.8,176.5L50.8,176.5z M17.8,155.2l32,18.6l0-9
		l-32-18.6L17.8,155.2z"/>
	<polygon class="st4" points="84.9,144.5 50.9,124.8 16.8,144.4 50.8,164.1 	"/>
	<path class="st1" d="M50.8,165.1c-0.2,0-0.3,0-0.5-0.1l-34-19.7c-0.5-0.3-0.6-0.9-0.4-1.4c0.1-0.2,0.2-0.3,0.4-0.4l34.1-19.6
		c0.3-0.2,0.7-0.2,1,0l34,19.7c0.5,0.3,0.6,0.9,0.4,1.4c-0.1,0.2-0.2,0.3-0.4,0.4L51.3,165C51.2,165.1,51,165.1,50.8,165.1z
		 M18.8,144.4l32,18.6l32.1-18.5l-32-18.6L18.8,144.4z"/>
	<path class="st1" d="M67.9,155.3c-0.2,0-0.3,0-0.5-0.1l-17-9.9c-0.5-0.3-0.6-0.9-0.4-1.4c0.1-0.2,0.2-0.3,0.4-0.4l17-9.8
		c0.3-0.2,0.7-0.2,1,0l17,9.9c0.5,0.3,0.6,0.9,0.4,1.4c-0.1,0.2-0.2,0.3-0.4,0.4l-17,9.8C68.2,155.3,68.1,155.3,67.9,155.3z
		 M52.9,144.4l15,8.7l15-8.7l-15-8.7L52.9,144.4z"/>
	<path class="st1" d="M50.8,165.1c-0.2,0-0.3,0-0.5-0.1l-34-19.7c-0.5-0.3-0.6-0.9-0.4-1.4c0.1-0.2,0.2-0.3,0.4-0.4l34.1-19.6
		c0.3-0.2,0.7-0.2,1,0l34,19.7c0.5,0.3,0.6,0.9,0.4,1.4c-0.1,0.2-0.2,0.3-0.4,0.4L51.3,165C51.2,165.1,51,165.1,50.8,165.1z
		 M18.8,144.4l32,18.6l32.1-18.5l-32-18.6L18.8,144.4z"/>
	<path class="st1" d="M67.9,166.7c-0.6,0-1-0.4-1-1v-11.4c0-0.6,0.4-1,1-1s1,0.4,1,1v11.4C68.9,166.2,68.4,166.7,67.9,166.7z"/>
	<path class="st1" d="M67.9,148.3c-3.3,0-5.9-1.7-5.9-3.8s2.6-3.8,5.9-3.8s5.9,1.7,5.9,3.8S71.2,148.3,67.9,148.3z M67.9,142.6
		c-2.4,0-3.9,1.1-3.9,1.8c0,0.9,1.7,1.8,3.9,1.8c2.4,0,3.9-1.1,3.9-1.8S70.3,142.6,67.9,142.6z"/>
	<ellipse class="st6" cx="50.9" cy="129.8" rx="1.6" ry="0.9"/>
	<ellipse class="st6" cx="25.5" cy="144.4" rx="1.6" ry="0.9"/>
	<ellipse class="st6" cx="50.8" cy="159.1" rx="1.6" ry="0.9"/>
	<path class="st2" d="M50.8,176.5c-0.2,0-0.3,0-0.5-0.1l-34-19.7c-0.3-0.2-0.5-0.5-0.5-0.9l0-11.4c0-0.4,0.2-0.7,0.5-0.9l34.1-19.6
		c0.3-0.2,0.7-0.2,1,0l34,19.7c0.3,0.2,0.5,0.5,0.5,0.9l0,11.4c0,0.4-0.2,0.7-0.5,0.9l-34.1,19.6C51.2,176.4,51,176.5,50.8,176.5z
		 M17.8,155.2l33,19.1l33.1-19l0-10.2l-33-19.1l-33.1,19L17.8,155.2z"/>
	<polygon class="st6" points="84.9,144.5 50.8,164.1 50.8,152.8 84.9,133.1 	"/>
	<path class="st1" d="M50.8,165.1c-0.6,0-1-0.4-1-1l0-11.4c0-0.4,0.2-0.7,0.5-0.9l34.1-19.6c0.5-0.3,1.1-0.1,1.4,0.4
		c0.1,0.2,0.1,0.3,0.1,0.5l0,11.4c0,0.4-0.2,0.7-0.5,0.9L51.3,165C51.2,165.1,51,165.1,50.8,165.1z M51.8,153.3l0,9l32.1-18.5l0-9
		L51.8,153.3z"/>
	<polygon class="st4" points="16.8,144.4 50.8,164.1 50.8,152.8 16.8,133 	"/>
	<path class="st1" d="M50.8,165.1c-0.2,0-0.3,0-0.5-0.1l-34-19.7c-0.3-0.2-0.5-0.5-0.5-0.9l0-11.4c0-0.6,0.4-1,1-1
		c0.2,0,0.3,0,0.5,0.1l34,19.7c0.3,0.2,0.5,0.5,0.5,0.9l0,11.3C51.8,164.7,51.4,165.1,50.8,165.1z M17.8,143.8l32,18.6l0-9l-32-18.6
		L17.8,143.8z"/>
	<polygon class="st4" points="84.9,133.1 50.9,113.4 16.8,133 50.8,152.8 	"/>
	<path class="st1" d="M50.8,153.8c-0.2,0-0.3,0-0.5-0.1l-34-19.7c-0.5-0.3-0.6-0.9-0.4-1.4c0.1-0.2,0.2-0.3,0.4-0.4l34.1-19.6
		c0.3-0.2,0.7-0.2,1,0l34,19.7c0.5,0.3,0.6,0.9,0.4,1.4c-0.1,0.2-0.2,0.3-0.4,0.4l-34.1,19.6C51.2,153.7,51,153.8,50.8,153.8z
		 M18.8,133l32,18.6l32.1-18.5l-32-18.6L18.8,133z"/>
	<path class="st1" d="M67.9,143.9c-0.2,0-0.3,0-0.5-0.1l-17-9.9c-0.5-0.3-0.6-0.9-0.4-1.4c0.1-0.2,0.2-0.3,0.4-0.4l17-9.8
		c0.3-0.2,0.7-0.2,1,0l17,9.9c0.5,0.3,0.6,0.9,0.4,1.4c-0.1,0.2-0.2,0.3-0.4,0.4l-17,9.8C68.2,143.9,68.1,143.9,67.9,143.9z
		 M52.9,133.1l15,8.7l15-8.7l-15-8.7L52.9,133.1z"/>
	<path class="st1" d="M50.8,153.8c-0.2,0-0.3,0-0.5-0.1l-34-19.7c-0.5-0.3-0.6-0.9-0.4-1.4c0.1-0.2,0.2-0.3,0.4-0.4l34.1-19.6
		c0.3-0.2,0.7-0.2,1,0l34,19.7c0.5,0.3,0.6,0.9,0.4,1.4c-0.1,0.2-0.2,0.3-0.4,0.4l-34.1,19.6C51.2,153.7,51,153.8,50.8,153.8z
		 M18.8,133l32,18.6l32.1-18.5l-32-18.6L18.8,133z"/>
	<path class="st1" d="M67.9,155.3c-0.6,0-1-0.4-1-1v-11.4c0-0.6,0.4-1,1-1s1,0.4,1,1v11.4C68.9,154.9,68.4,155.3,67.9,155.3
		C67.9,155.3,67.9,155.3,67.9,155.3z"/>
	<path class="st1" d="M67.9,137c-3.3,0-5.9-1.7-5.9-3.8s2.6-3.8,5.9-3.8s5.9,1.7,5.9,3.8S71.2,137,67.9,137z M67.9,131.3
		c-2.4,0-3.9,1.1-3.9,1.8s1.5,1.8,3.9,1.8s3.9-1.1,3.9-1.8C71.8,132.3,70.1,131.3,67.9,131.3L67.9,131.3z"/>
	<ellipse class="st6" cx="50.9" cy="118.5" rx="1.6" ry="0.9"/>
	<ellipse class="st6" cx="25.5" cy="133.1" rx="1.6" ry="0.9"/>
	<ellipse class="st6" cx="50.8" cy="147.7" rx="1.6" ry="0.9"/>
	<path class="st2" d="M50.8,165.1c-0.2,0-0.3,0-0.5-0.1l-34-19.7c-0.3-0.2-0.5-0.5-0.5-0.9l0-11.4c0-0.4,0.2-0.7,0.5-0.9l34.1-19.6
		c0.3-0.2,0.7-0.2,1,0l34,19.7c0.3,0.2,0.5,0.5,0.5,0.9l0,11.4c0,0.4-0.2,0.7-0.5,0.9L51.3,165C51.2,165.1,51,165.1,50.8,165.1z
		 M17.8,143.8l33,19.1l33.1-19l0-10.2l-33-19.1l-33.1,19L17.8,143.8z"/>
	<polygon class="st6" points="84.9,133.1 50.8,152.8 50.8,141.4 84.9,121.8 	"/>
	<path class="st1" d="M50.8,153.8c-0.6,0-1-0.4-1-1l0-11.4c0-0.4,0.2-0.7,0.5-0.9l34.1-19.6c0.5-0.3,1.1-0.1,1.4,0.4
		c0.1,0.2,0.1,0.3,0.1,0.5l0,11.4c0,0.4-0.2,0.7-0.5,0.9l-34.1,19.6C51.2,153.7,51,153.8,50.8,153.8z M51.8,142l0,9l32.1-18.5l0-9
		L51.8,142z"/>
	<polygon class="st4" points="16.8,133 50.8,152.8 50.8,141.4 16.8,121.7 	"/>
	<path class="st1" d="M50.8,153.8c-0.2,0-0.3,0-0.5-0.1l-34-19.7c-0.3-0.2-0.5-0.5-0.5-0.9l0-11.4c0-0.6,0.4-1,1-1
		c0.2,0,0.3,0,0.5,0.1l34,19.7c0.3,0.2,0.5,0.5,0.5,0.9l0,11.4C51.8,153.3,51.4,153.8,50.8,153.8L50.8,153.8z M17.8,132.5l32,18.6
		l0-9l-32-18.6L17.8,132.5z"/>
	<polygon class="st4" points="84.9,121.8 50.9,102.1 16.8,121.7 50.8,141.4 	"/>
	<path class="st1" d="M50.9,142.4c-0.2,0-0.3,0-0.5-0.1l-34-19.7c-0.5-0.3-0.6-0.9-0.4-1.4c0.1-0.2,0.2-0.3,0.4-0.4l34.1-19.6
		c0.3-0.2,0.7-0.2,1,0l34,19.7c0.5,0.3,0.6,0.9,0.4,1.4c-0.1,0.2-0.2,0.3-0.4,0.4l-34.1,19.6C51.2,142.4,51,142.4,50.9,142.4z
		 M18.8,121.7l32,18.6l32.1-18.5l-32-18.6L18.8,121.7z"/>
	<path class="st1" d="M67.9,132.6c-0.2,0-0.3,0-0.5-0.1l-17-9.9c-0.5-0.3-0.6-0.9-0.4-1.4c0.1-0.2,0.2-0.3,0.4-0.4l17-9.8
		c0.3-0.2,0.7-0.2,1,0l17,9.9c0.5,0.3,0.6,0.9,0.4,1.4c-0.1,0.2-0.2,0.3-0.4,0.4l-17,9.8C68.2,132.5,68.1,132.6,67.9,132.6z
		 M52.9,121.7l15,8.7l15-8.7l-15-8.7L52.9,121.7z"/>
	<path class="st1" d="M50.9,142.4c-0.2,0-0.3,0-0.5-0.1l-34-19.7c-0.5-0.3-0.6-0.9-0.4-1.4c0.1-0.2,0.2-0.3,0.4-0.4l34.1-19.6
		c0.3-0.2,0.7-0.2,1,0l34,19.7c0.5,0.3,0.6,0.9,0.4,1.4c-0.1,0.2-0.2,0.3-0.4,0.4l-34.1,19.6C51.2,142.4,51,142.4,50.9,142.4z
		 M18.8,121.7l32,18.6l32.1-18.5l-32-18.6L18.8,121.7z"/>
	<path class="st1" d="M67.9,144c-0.6,0-1-0.4-1-1v-11.4c0-0.6,0.4-1,1-1s1,0.4,1,1V143C68.9,143.5,68.4,144,67.9,144z"/>
	<path class="st1" d="M67.9,125.6c-3.3,0-5.9-1.7-5.9-3.8s2.6-3.8,5.9-3.8s5.9,1.7,5.9,3.8S71.2,125.6,67.9,125.6z M67.9,119.9
		c-2.4,0-3.9,1.1-3.9,1.8s1.5,1.8,3.9,1.8s3.9-1.1,3.9-1.8S70.3,119.9,67.9,119.9z"/>
	<ellipse class="st6" cx="50.9" cy="107.1" rx="1.6" ry="0.9"/>
	<ellipse class="st6" cx="25.5" cy="121.7" rx="1.6" ry="0.9"/>
	<ellipse class="st6" cx="50.9" cy="136.4" rx="1.6" ry="0.9"/>
	<path class="st2" d="M50.8,153.8c-0.2,0-0.3,0-0.5-0.1l-34-19.7c-0.3-0.2-0.5-0.5-0.5-0.9l0-11.4c0-0.4,0.2-0.7,0.5-0.9l34.1-19.6
		c0.3-0.2,0.7-0.2,1,0l34,19.7c0.3,0.2,0.5,0.5,0.5,0.9l0,11.4c0,0.4-0.2,0.7-0.5,0.9l-34.1,19.6C51.2,153.7,51,153.8,50.8,153.8z
		 M17.8,132.5l33,19.1l33.1-19l0-10.2l-33-19.1l-33.1,19L17.8,132.5z"/>
	<path class="st1" d="M377.2,178.5c-2.5,0.1-5-0.5-7.3-1.7l-36.4-21c-2.1-1.2-3.3-2.9-3.3-4.8s1.2-3.6,3.3-4.8l36.4-21
		c4.6-2.3,10-2.3,14.6,0l36.4,21c2.1,1.2,3.3,2.9,3.3,4.8s-1.2,3.6-3.3,4.8l0,0l-36.4,21C382.3,177.9,379.7,178.5,377.2,178.5z
		 M377.2,125.4c-2.2,0-4.4,0.5-6.3,1.5l-36.4,21c-1.5,0.9-2.3,1.9-2.3,3s0.8,2.2,2.3,3.1l36.4,21c4,2,8.6,2,12.6,0l36.4-21
		c1.5-0.9,2.3-1.9,2.3-3.1s-0.8-2.2-2.3-3l-36.4-21C381.6,125.8,379.4,125.3,377.2,125.4z"/>
	<polygon class="st6" points="411.3,150.9 377.2,170.5 377.2,159.1 411.3,139.5 	"/>
	<path class="st1" d="M377.2,171.5c-0.6,0-1-0.4-1-1l0-11.4c0-0.4,0.2-0.7,0.5-0.9l34.1-19.6c0.5-0.3,1.1-0.1,1.4,0.4
		c0.1,0.2,0.1,0.3,0.1,0.5l0,11.4c0,0.4-0.2,0.7-0.5,0.9l-34.1,19.6C377.6,171.4,377.4,171.5,377.2,171.5z M378.2,159.7l0,9
		l32.1-18.5l0-9L378.2,159.7z"/>
	<polygon class="st4" points="343.2,150.8 377.2,170.5 377.2,159.1 343.2,139.4 	"/>
	<path class="st1" d="M377.2,171.5c-0.2,0-0.3,0-0.5-0.1l-34-19.7c-0.3-0.2-0.5-0.5-0.5-0.9l0-11.4c0-0.6,0.4-1,1-1
		c0.2,0,0.3,0,0.5,0.1l34,19.7c0.3,0.2,0.5,0.5,0.5,0.9l0,11.4C378.2,171,377.8,171.5,377.2,171.5L377.2,171.5z M344.2,150.2
		l32,18.6l0-9l-32-18.6L344.2,150.2z"/>
	<polygon class="st4" points="411.3,139.5 377.3,119.8 343.2,139.4 377.2,159.1 	"/>
	<path class="st0" d="M377.2,160.1c-0.2,0-0.3,0-0.5-0.1l-34-19.7c-0.5-0.3-0.6-0.9-0.4-1.4c0.1-0.2,0.2-0.3,0.4-0.4l34.1-19.6
		c0.3-0.2,0.7-0.2,1,0l34,19.7c0.5,0.3,0.6,0.9,0.4,1.4c-0.1,0.2-0.2,0.3-0.4,0.4L377.7,160C377.6,160.1,377.4,160.1,377.2,160.1z
		 M345.2,139.4l32,18.6l32.1-18.5l-32-18.6L345.2,139.4z"/>
	<polygon class="st4" points="411.3,139.5 377.3,119.8 343.2,139.4 377.2,159.1 	"/>
	<path class="st1" d="M377.2,160.1c-0.2,0-0.3,0-0.5-0.1l-34-19.7c-0.5-0.3-0.6-0.9-0.4-1.4c0.1-0.2,0.2-0.3,0.4-0.4l34.1-19.6
		c0.3-0.2,0.7-0.2,1,0l34,19.7c0.5,0.3,0.6,0.9,0.4,1.4c-0.1,0.2-0.2,0.3-0.4,0.4L377.7,160C377.6,160.1,377.4,160.1,377.2,160.1z
		 M345.2,139.4l32,18.6l32.1-18.5l-32-18.6L345.2,139.4z"/>
	<path class="st1" d="M394.3,161.7c-0.6,0-1-0.4-1-1v-11.4c0-0.6,0.4-1,1-1s1,0.4,1,1v11.4C395.3,161.3,394.8,161.7,394.3,161.7z"/>
	<polygon class="st6" points="411.3,139.5 377.2,159.1 377.2,147.8 411.3,128.2 	"/>
	<path class="st1" d="M377.2,160.1c-0.6,0-1-0.4-1-1l0-11.4c0-0.4,0.2-0.7,0.5-0.9l34.1-19.6c0.5-0.3,1.1-0.1,1.4,0.4
		c0.1,0.2,0.1,0.3,0.1,0.5l0,11.4c0,0.4-0.2,0.7-0.5,0.9L377.7,160C377.6,160.1,377.4,160.1,377.2,160.1z M378.2,148.4l0,9
		l32.1-18.5l0-9L378.2,148.4z"/>
	<polygon class="st4" points="343.2,139.4 377.2,159.1 377.2,147.8 343.2,128.1 	"/>
	<path class="st1" d="M377.2,160.1c-0.2,0-0.3,0-0.5-0.1l-34-19.7c-0.3-0.2-0.5-0.5-0.5-0.9l0-11.4c0-0.6,0.4-1,1-1
		c0.2,0,0.3,0,0.5,0.1l34,19.7c0.3,0.2,0.5,0.5,0.5,0.9l0,11.4C378.2,159.7,377.8,160.1,377.2,160.1L377.2,160.1z M344.2,138.9
		l32,18.5l0-9l-32-18.6L344.2,138.9z"/>
	<polygon class="st4" points="411.3,128.2 377.3,108.5 343.2,128.1 377.2,147.8 	"/>
	<path class="st0" d="M377.2,148.8c-0.2,0-0.3,0-0.5-0.1l-34-19.7c-0.5-0.3-0.6-0.9-0.4-1.4c0.1-0.2,0.2-0.3,0.4-0.4l34.1-19.6
		c0.3-0.2,0.7-0.2,1,0l34,19.7c0.5,0.3,0.6,0.9,0.4,1.4c-0.1,0.2-0.2,0.3-0.4,0.4l-34.1,19.6C377.6,148.7,377.4,148.8,377.2,148.8z
		 M345.2,128.1l32,18.6l32.1-18.5l-32-18.6L345.2,128.1z"/>
	<polygon class="st4" points="411.3,128.2 377.3,108.5 343.2,128.1 377.2,147.8 	"/>
	<path class="st1" d="M377.2,148.8c-0.2,0-0.3,0-0.5-0.1l-34-19.7c-0.5-0.3-0.6-0.9-0.4-1.4c0.1-0.2,0.2-0.3,0.4-0.4l34.1-19.6
		c0.3-0.2,0.7-0.2,1,0l34,19.7c0.5,0.3,0.6,0.9,0.4,1.4c-0.1,0.2-0.2,0.3-0.4,0.4l-34.1,19.6C377.6,148.7,377.4,148.8,377.2,148.8z
		 M345.2,128.1l32,18.6l32.1-18.5l-32-18.6L345.2,128.1z"/>
	<path class="st1" d="M394.3,150.4c-0.6,0-1-0.4-1-1V138c0-0.6,0.4-1,1-1s1,0.4,1,1v11.4C395.3,149.9,394.8,150.4,394.3,150.4z"/>
	<polygon class="st6" points="411.3,128.2 377.2,147.8 377.2,136.4 411.3,116.8 	"/>
	<path class="st1" d="M377.2,148.8c-0.6,0-1-0.4-1-1l0-11.4c0-0.4,0.2-0.7,0.5-0.9l34.1-19.6c0.5-0.3,1.1-0.1,1.4,0.4
		c0.1,0.2,0.1,0.3,0.1,0.5l0,11.4c0,0.4-0.2,0.7-0.5,0.9l-34.1,19.6C377.6,148.7,377.4,148.8,377.2,148.8z M378.2,137l0,9l32.1-18.5
		l0-9L378.2,137z"/>
	<polygon class="st4" points="343.2,128.1 377.2,147.8 377.2,136.4 343.2,116.7 	"/>
	<path class="st1" d="M377.2,148.8c-0.2,0-0.3,0-0.5-0.1l-34-19.7c-0.3-0.2-0.5-0.5-0.5-0.9l0-11.4c0-0.6,0.4-1,1-1
		c0.2,0,0.3,0,0.5,0.1l34,19.7c0.3,0.2,0.5,0.5,0.5,0.9l0,11.4C378.2,148.3,377.8,148.8,377.2,148.8L377.2,148.8z M344.2,127.5
		l32,18.6l0-9l-32-18.6L344.2,127.5z"/>
	<polygon class="st4" points="411.3,116.8 377.3,97.1 343.2,116.7 377.2,136.4 	"/>
	<path class="st0" d="M377.2,137.4c-0.2,0-0.3,0-0.5-0.1l-34-19.7c-0.5-0.3-0.6-0.9-0.4-1.4c0.1-0.2,0.2-0.3,0.4-0.4l34.1-19.6
		c0.3-0.2,0.7-0.2,1,0l34,19.7c0.5,0.3,0.6,0.9,0.4,1.4c-0.1,0.2-0.2,0.3-0.4,0.4l-34.1,19.6C377.6,137.4,377.4,137.4,377.2,137.4z
		 M345.2,116.7l32,18.6l32.1-18.5l-32-18.6L345.2,116.7z"/>
	<polygon class="st4" points="411.3,116.8 377.3,97.1 343.2,116.7 377.2,136.4 	"/>
	<path class="st1" d="M377.2,137.4c-0.2,0-0.3,0-0.5-0.1l-34-19.7c-0.5-0.3-0.6-0.9-0.4-1.4c0.1-0.2,0.2-0.3,0.4-0.4l34.1-19.6
		c0.3-0.2,0.7-0.2,1,0l34,19.7c0.5,0.3,0.6,0.9,0.4,1.4c-0.1,0.2-0.2,0.3-0.4,0.4l-34.1,19.6C377.6,137.4,377.4,137.4,377.2,137.4z
		 M345.2,116.7l32,18.6l32.1-18.5l-32-18.6L345.2,116.7z"/>
	<path class="st1" d="M394.3,139c-0.6,0-1-0.4-1-1v-11.4c0-0.6,0.4-1,1-1s1,0.4,1,1V138C395.3,138.6,394.8,139,394.3,139z"/>
	<path class="st1" d="M377.2,125.7c-2.5,0.1-5-0.5-7.3-1.7l-36.4-21c-2.1-1.2-3.3-2.9-3.3-4.8s1.2-3.6,3.3-4.8l36.4-21
		c4.6-2.3,10-2.3,14.6,0l36.4,21c2.1,1.2,3.3,2.9,3.3,4.8s-1.2,3.6-3.3,4.8l-36.4,21C382.3,125.1,379.7,125.7,377.2,125.7z
		 M377.2,72.6c-2.2,0-4.4,0.5-6.3,1.5l-36.4,21c-1.5,0.9-2.3,1.9-2.3,3s0.8,2.2,2.3,3.1l36.4,21c4,2,8.6,2,12.6,0l36.4-21l0,0
		c1.5-0.9,2.3-1.9,2.3-3.1s-0.8-2.2-2.3-3l-36.4-21C381.6,73,379.4,72.5,377.2,72.6z"/>
	<path class="st2" d="M377.2,178.5c-2.5,0.1-5.1-0.6-7.3-1.8l-36.4-21c-0.7-0.4-1.4-0.9-1.9-1.5c-0.2-0.2-0.3-0.4-0.5-0.6
		c-0.2-0.3-0.3-0.5-0.5-0.8c-0.2-0.4-0.3-0.7-0.4-1.1c0-0.2-0.1-0.5-0.1-0.7V98.1c0-1.9,1.2-3.6,3.3-4.8l36.4-21
		c4.6-2.3,10-2.3,14.6,0l36.4,21c2.1,1.2,3.3,2.9,3.3,4.8v52.8c0,0.5-0.1,0.9-0.2,1.4c-0.2,0.7-0.6,1.3-1.1,1.9
		c-0.6,0.6-1.2,1.1-1.9,1.5l-36.4,21C382.3,177.9,379.8,178.5,377.2,178.5z M377.2,72.6c-2.2,0-4.4,0.5-6.3,1.5l-36.4,21
		c-1.5,0.9-2.3,1.9-2.3,3v52.8c0,0.1,0,0.2,0,0.4c0,0.2,0.1,0.4,0.2,0.6c0.1,0.2,0.2,0.3,0.3,0.5c0.1,0.1,0.2,0.3,0.3,0.4
		c0.4,0.5,0.9,0.8,1.5,1.1l36.4,21c4,2,8.6,2,12.6,0l36.4-21c0.5-0.3,1-0.7,1.5-1.1c0.3-0.3,0.6-0.7,0.7-1.2
		c0.1-0.2,0.1-0.5,0.1-0.7V98.1c0-1.1-0.8-2.2-2.3-3l0,0l-36.4-21C381.6,73,379.4,72.5,377.2,72.6z"/>
	<path class="st0" d="M164.6,124.8c-1,0-2-0.2-2.9-0.7l0,0c-1.2-0.5-1.8-2-1.3-3.2c0.2-0.6,0.7-1.1,1.3-1.3c1.8-0.9,4-0.9,5.8,0
		c1.3,0.5,1.8,2,1.3,3.2c-0.2,0.6-0.7,1.1-1.3,1.3C166.6,124.6,165.6,124.9,164.6,124.8z M162.7,122.4c1.2,0.6,2.6,0.6,3.8,0
		c0.3-0.2,0.5-0.4,0.5-0.5s-0.2-0.3-0.5-0.5c-1.2-0.6-2.6-0.6-3.8,0c-0.3,0.2-0.5,0.4-0.5,0.5S162.3,122.2,162.7,122.4z"/>
	<polygon class="st3" points="171.1,106.1 137.1,125.7 137.1,114.3 171.1,94.7 	"/>
	<path class="st0" d="M137.1,126.7c-0.6,0-1-0.4-1-1l0-11.4c0-0.4,0.2-0.7,0.5-0.9l34.1-19.6c0.5-0.3,1.1-0.1,1.4,0.4
		c0.1,0.2,0.1,0.3,0.1,0.5l0,11.4c0,0.4-0.2,0.7-0.5,0.9l-34.1,19.6C137.4,126.6,137.2,126.7,137.1,126.7z M138.1,114.9l0,9
		l32.1-18.5l0-9L138.1,114.9z"/>
	<polygon class="st4" points="103,106 137.1,125.7 137.1,114.3 103,94.6 	"/>
	<path class="st0" d="M137.1,126.7c-0.2,0-0.3,0-0.5-0.1l-34-19.7c-0.3-0.2-0.5-0.5-0.5-0.9l0-11.4c0-0.6,0.4-1,1-1
		c0.2,0,0.3,0,0.5,0.1l34,19.7c0.3,0.2,0.5,0.5,0.5,0.9l0,11.4C138,126.2,137.6,126.7,137.1,126.7L137.1,126.7z M104,105.4l32,18.6
		l0-9l-32-18.6L104,105.4z"/>
	<polygon class="st4" points="171.1,94.7 137.1,75 103,94.6 137.1,114.3 	"/>
	<path class="st0" d="M137.1,115.3c-0.2,0-0.3,0-0.5-0.1l-34-19.7c-0.5-0.3-0.6-0.9-0.4-1.4c0.1-0.2,0.2-0.3,0.4-0.4l34.1-19.6
		c0.3-0.2,0.7-0.2,1,0l34,19.7c0.5,0.3,0.6,0.9,0.4,1.4c-0.1,0.2-0.2,0.3-0.4,0.4l-34.1,19.6C137.4,115.3,137.2,115.3,137.1,115.3z
		 M105,94.6l32,18.6l32.1-18.5l-32-18.6L105,94.6z"/>
	<path class="st0" d="M154.1,105.5c-0.2,0-0.3,0-0.5-0.1l-17-9.9c-0.5-0.3-0.6-0.9-0.4-1.4c0.1-0.2,0.2-0.3,0.4-0.4l17-9.8
		c0.3-0.2,0.7-0.2,1,0l17,9.9c0.5,0.3,0.6,0.9,0.4,1.4c-0.1,0.2-0.2,0.3-0.4,0.4l-17,9.8C154.5,105.5,154.3,105.5,154.1,105.5z
		 M139.1,94.7l15,8.7l15-8.7l-15-8.7L139.1,94.7z"/>
	<path class="st0" d="M137.1,115.3c-0.2,0-0.3,0-0.5-0.1l-34-19.7c-0.5-0.3-0.6-0.9-0.4-1.4c0.1-0.2,0.2-0.3,0.4-0.4l34.1-19.6
		c0.3-0.2,0.7-0.2,1,0l34,19.7c0.5,0.3,0.6,0.9,0.4,1.4c-0.1,0.2-0.2,0.3-0.4,0.4l-34.1,19.6C137.4,115.3,137.2,115.3,137.1,115.3z
		 M105,94.6l32,18.6l32.1-18.5l-32-18.6L105,94.6z"/>
	<path class="st0" d="M154.1,116.9c-0.6,0-1-0.4-1-1v-11.4c0-0.6,0.4-1,1-1s1,0.4,1,1v11.4C155.1,116.4,154.7,116.9,154.1,116.9z"/>
	<path class="st0" d="M154.1,98.5c-3.3,0-5.9-1.7-5.9-3.8s2.6-3.8,5.9-3.8s5.9,1.7,5.9,3.8S157.4,98.5,154.1,98.5z M154.1,92.9
		c-2.4,0-3.9,1.1-3.9,1.8s1.5,1.8,3.9,1.8s3.9-1.1,3.9-1.8S156.5,92.9,154.1,92.9z"/>
	<ellipse class="st3" cx="137.1" cy="80" rx="1.6" ry="0.9"/>
	<ellipse class="st3" cx="111.8" cy="94.6" rx="1.6" ry="0.9"/>
	<ellipse class="st3" cx="137.1" cy="109.3" rx="1.6" ry="0.9"/>
	<path class="st5" d="M137.1,126.7c-0.2,0-0.3,0-0.5-0.1l-34-19.7c-0.3-0.2-0.5-0.5-0.5-0.9l0-11.4c0-0.4,0.2-0.7,0.5-0.9l34.1-19.6
		c0.3-0.2,0.7-0.2,1,0l34,19.7c0.3,0.2,0.5,0.5,0.5,0.9l0,11.4c0,0.4-0.2,0.7-0.5,0.9l-34.1,19.6
		C137.4,126.6,137.2,126.7,137.1,126.7z M104,105.4l33,19.1l33.1-19l0-10.2l-33-19.1l-33.1,19L104,105.4z"/>
	<polygon class="st3" points="171.1,94.7 137.1,114.3 137.1,103 171.1,83.4 	"/>
	<path class="st0" d="M137.1,115.3c-0.6,0-1-0.4-1-1l0-11.4c0-0.4,0.2-0.7,0.5-0.9l34.1-19.6c0.5-0.3,1.1-0.1,1.4,0.4
		c0.1,0.2,0.1,0.3,0.1,0.5l0,11.3c0,0.4-0.2,0.7-0.5,0.9l-34.1,19.6C137.4,115.3,137.2,115.3,137.1,115.3z M138.1,103.5l0,9
		l32.1-18.5l0-9L138.1,103.5z"/>
	<polygon class="st4" points="103,94.6 137.1,114.3 137.1,103 103,83.3 	"/>
	<path class="st0" d="M137.1,115.3c-0.2,0-0.3,0-0.5-0.1l-34-19.7c-0.3-0.2-0.5-0.5-0.5-0.9l0-11.4c0-0.6,0.4-1,1-1
		c0.2,0,0.3,0,0.5,0.1l34,19.7c0.3,0.2,0.5,0.5,0.5,0.9l0,11.4C138.1,114.9,137.6,115.3,137.1,115.3L137.1,115.3z M104,94l32,18.6
		l0-9L104,85L104,94z"/>
	<polygon class="st4" points="171.1,83.4 137.1,63.6 103,83.3 137.1,103 	"/>
	<path class="st0" d="M137.1,104c-0.2,0-0.3,0-0.5-0.1l-34-19.7c-0.5-0.3-0.6-0.9-0.4-1.4c0.1-0.2,0.2-0.3,0.4-0.4l34.1-19.6
		c0.3-0.2,0.7-0.2,1,0l34,19.7c0.5,0.3,0.6,0.9,0.4,1.4c-0.1,0.2-0.2,0.3-0.4,0.4l-34.1,19.6C137.4,103.9,137.2,104,137.1,104z
		 M105,83.3l32,18.6l32.1-18.5l-32-18.6L105,83.3z"/>
	<path class="st0" d="M154.1,94.2c-0.2,0-0.3,0-0.5-0.1l-17-9.9c-0.5-0.3-0.6-0.9-0.4-1.4c0.1-0.2,0.2-0.3,0.4-0.4l17-9.8
		c0.3-0.2,0.7-0.2,1,0l17,9.9c0.5,0.3,0.6,0.9,0.4,1.4c-0.1,0.2-0.2,0.3-0.4,0.4l-17,9.8C154.5,94.1,154.3,94.2,154.1,94.2z
		 M139.1,83.3l15,8.7l15-8.7l-15-8.7L139.1,83.3z"/>
	<path class="st0" d="M137.1,104c-0.2,0-0.3,0-0.5-0.1l-34-19.7c-0.5-0.3-0.6-0.9-0.4-1.4c0.1-0.2,0.2-0.3,0.4-0.4l34.1-19.6
		c0.3-0.2,0.7-0.2,1,0l34,19.7c0.5,0.3,0.6,0.9,0.4,1.4c-0.1,0.2-0.2,0.3-0.4,0.4l-34.1,19.6C137.4,103.9,137.2,104,137.1,104z
		 M105,83.3l32,18.6l32.1-18.5l-32-18.6L105,83.3z"/>
	<path class="st0" d="M154.1,105.5c-0.6,0-1-0.4-1-1V93.2c0-0.6,0.4-1,1-1s1,0.4,1,1v11.4C155.1,105.1,154.7,105.5,154.1,105.5
		C154.1,105.5,154.1,105.5,154.1,105.5z"/>
	<path class="st0" d="M154.1,87.2c-3.3,0-5.9-1.7-5.9-3.8s2.6-3.8,5.9-3.8s5.9,1.7,5.9,3.8S157.4,87.2,154.1,87.2z M154.1,81.5
		c-2.4,0-3.9,1.1-3.9,1.8s1.5,1.8,3.9,1.8s3.9-1.1,3.9-1.8S156.5,81.5,154.1,81.5z"/>
	<ellipse class="st0" cx="137.1" cy="68.7" rx="1.6" ry="0.9"/>
	<ellipse class="st0" cx="111.8" cy="83.3" rx="1.6" ry="0.9"/>
	<ellipse class="st0" cx="137.1" cy="97.9" rx="1.6" ry="0.9"/>
	<path class="st5" d="M137.1,115.3c-0.2,0-0.3,0-0.5-0.1l-34-19.7c-0.3-0.2-0.5-0.5-0.5-0.9l0-11.4c0-0.4,0.2-0.7,0.5-0.9l34.1-19.6
		c0.3-0.2,0.7-0.2,1,0l34,19.7c0.3,0.2,0.5,0.5,0.5,0.9l0,11.3c0,0.4-0.2,0.7-0.5,0.9l-34.1,19.6
		C137.4,115.3,137.2,115.3,137.1,115.3z M104,94l33,19.1l33.1-19l0-10.2l-33-19.1l-33.1,19L104,94z"/>
	<polygon class="st3" points="171.2,83.4 137.1,103 137.1,91.6 171.2,72 	"/>
	<path class="st0" d="M137.1,104c-0.6,0-1-0.4-1-1l0-11.4c0-0.4,0.2-0.7,0.5-0.9l34.1-19.6c0.5-0.3,1.1-0.1,1.4,0.4
		c0.1,0.2,0.1,0.3,0.1,0.5l0,11.4c0,0.4-0.2,0.7-0.5,0.9l-34.1,19.6C137.4,103.9,137.2,104,137.1,104z M138.1,92.2l0,9l32.1-18.5
		l0-9L138.1,92.2z"/>
	<polygon class="st4" points="103,83.3 137.1,103 137.1,91.6 103.1,71.9 	"/>
	<path class="st0" d="M137.1,104c-0.2,0-0.3,0-0.5-0.1l-34-19.7c-0.3-0.2-0.5-0.5-0.5-0.9l0-11.4c0-0.6,0.4-1,1-1
		c0.2,0,0.3,0,0.5,0.1l34,19.7c0.3,0.2,0.5,0.5,0.5,0.9l0,11.4C138.1,103.5,137.6,104,137.1,104L137.1,104z M104,82.7l32,18.6l0-9
		l-32-18.6L104,82.7z"/>
	<polygon class="st4" points="171.2,72 137.1,52.3 103.1,71.9 137.1,91.6 	"/>
	<path class="st0" d="M137.1,92.6c-0.2,0-0.3,0-0.5-0.1l-34-19.7c-0.5-0.3-0.6-0.9-0.4-1.4c0.1-0.2,0.2-0.3,0.4-0.4l34.1-19.6
		c0.3-0.2,0.7-0.2,1,0l34,19.7c0.5,0.3,0.6,0.9,0.4,1.4c-0.1,0.2-0.2,0.3-0.4,0.4l-34.1,19.6C137.4,92.6,137.3,92.6,137.1,92.6z
		 M105.1,71.9l32,18.6L169.2,72l-32-18.6L105.1,71.9z"/>
	<path class="st0" d="M154.1,82.8c-0.2,0-0.3,0-0.5-0.1l-17-9.9c-0.5-0.3-0.6-0.9-0.4-1.4c0.1-0.2,0.2-0.3,0.4-0.4l17-9.8
		c0.3-0.2,0.7-0.2,1,0l17,9.9c0.5,0.3,0.6,0.9,0.4,1.4c-0.1,0.2-0.2,0.3-0.4,0.4l-17,9.8C154.5,82.8,154.3,82.8,154.1,82.8z
		 M139.1,72l15,8.7l15-8.7l-15-8.7L139.1,72z"/>
	<path class="st0" d="M137.1,92.6c-0.2,0-0.3,0-0.5-0.1l-34-19.7c-0.5-0.3-0.6-0.9-0.4-1.4c0.1-0.2,0.2-0.3,0.4-0.4l34.1-19.6
		c0.3-0.2,0.7-0.2,1,0l34,19.7c0.5,0.3,0.6,0.9,0.4,1.4c-0.1,0.2-0.2,0.3-0.4,0.4l-34.1,19.6C137.4,92.6,137.3,92.6,137.1,92.6z
		 M105.1,71.9l32,18.6L169.2,72l-32-18.6L105.1,71.9z"/>
	<path class="st0" d="M154.1,94.2c-0.6,0-1-0.4-1-1V81.8c0-0.6,0.4-1,1-1s1,0.4,1,1v11.4C155.1,93.7,154.7,94.2,154.1,94.2z"/>
	<path class="st0" d="M154.1,75.8c-3.3,0-5.9-1.7-5.9-3.8s2.6-3.8,5.9-3.8s5.9,1.7,5.9,3.8S157.4,75.8,154.1,75.8z M154.1,70.2
		c-2.4,0-3.9,1.1-3.9,1.8s1.5,1.8,3.9,1.8s3.9-1.1,3.9-1.8S156.5,70.2,154.1,70.2z"/>
	<ellipse class="st0" cx="137.1" cy="57.3" rx="1.6" ry="0.9"/>
	<ellipse class="st0" cx="111.8" cy="71.9" rx="1.6" ry="0.9"/>
	<ellipse class="st0" cx="137.1" cy="86.6" rx="1.6" ry="0.9"/>
	<path class="st5" d="M137.1,104c-0.2,0-0.3,0-0.5-0.1l-34-19.7c-0.3-0.2-0.5-0.5-0.5-0.9l0-11.4c0-0.4,0.2-0.7,0.5-0.9l34.1-19.6
		c0.3-0.2,0.7-0.2,1,0l17,9.9l0,0l17,9.9c0.3,0.2,0.5,0.5,0.5,0.9l0,11.4c0,0.4-0.2,0.7-0.5,0.9l-34.1,19.6
		C137.4,103.9,137.2,104,137.1,104z M104,82.7l33,19.1l33.1-19l0-10.2l-33-19.1l-33.1,19L104,82.7z"/>
	<rect class="st7" width="440" height="300"/>
	<rect class="st7" width="440" height="300"/>
</g>
</svg>
