<?xml version="1.0" encoding="utf-8"?>
<!-- Generator: Adobe Illustrator 24.1.2, SVG Export Plug-In . SVG Version: 6.00 Build 0)  -->
<svg version="1.1" id="Layer_1" xmlns="http://www.w3.org/2000/svg" xmlns:xlink="http://www.w3.org/1999/xlink" x="0px" y="0px"
	 width="128px" height="128px" viewBox="0 0 128 128" style="enable-background:new 0 0 128 128;" xml:space="preserve">
<style type="text/css">
	.st0{fill:none;}
	.st1{fill:#FFFFFF;}
	.st2{fill:#185849;}
	.st3{fill:#E9EBDF;}
	.st4{fill:#C4D7D3;}
	.st5{fill:#4D9987;}
	.st6{fill:#27ae60;}
</style>
<g>
	<rect x="1" y="1" class="st0" width="126" height="126"/>
	<polygon class="st1" points="49.3,70.7 44.5,68 39.8,65.3 20.9,76.2 2,87.1 2,87.1 2,93.6 20.9,104.5 58.7,82.7 58.7,76.2 	"/>
	<path class="st2" d="M50.4,23.2c-0.3,0-0.5-0.1-0.7-0.3c-0.2-0.2-0.3-0.4-0.3-0.7c0-0.1,0-0.3,0.1-0.4c0-0.1,0.1-0.2,0.2-0.3
		c0.1-0.1,0.2-0.2,0.3-0.2c0.2-0.1,0.5-0.1,0.8,0c0.1,0,0.1,0.1,0.2,0.1c0.1,0,0.1,0.1,0.2,0.1c0.1,0.1,0.2,0.2,0.2,0.3
		c0.1,0.1,0.1,0.2,0.1,0.4C51.4,22.7,50.9,23.2,50.4,23.2z"/>
	<path class="st2" d="M49.4,50.4c0-0.6,0.4-1,1-1l0,0c0.6,0,1,0.4,1,1l0,0c0,0.6-0.4,1-1,1l0,0C49.8,51.4,49.4,51,49.4,50.4z
		 M49.4,44.8c0-0.6,0.4-1,1-1l0,0l0,0c0.6,0,1,0.5,1,1l0,0c0,0.6-0.4,1-1,1l0,0C49.8,45.8,49.4,45.3,49.4,44.8L49.4,44.8L49.4,44.8z
		 M49.4,39.1c0-0.6,0.4-1,1-1l0,0c0.6,0,1,0.4,1,1l0,0c0,0.6-0.4,1-1,1l0,0C49.8,40.1,49.4,39.7,49.4,39.1L49.4,39.1L49.4,39.1z
		 M49.4,33.5c0-0.6,0.4-1,1-1l0,0c0.6,0,1,0.4,1,1l0,0c0,0.6-0.4,1-1,1l0,0C49.8,34.5,49.4,34,49.4,33.5L49.4,33.5L49.4,33.5z
		 M49.4,27.8c0-0.6,0.4-1,1-1l0,0c0.6,0,1,0.4,1,1l0,0c0,0.6-0.4,1-1,1l0,0C49.8,28.8,49.4,28.4,49.4,27.8L49.4,27.8L49.4,27.8z"/>
	<path class="st2" d="M50.4,57c-0.1,0-0.3,0-0.4-0.1c-0.1-0.1-0.2-0.1-0.3-0.2c-0.2-0.2-0.3-0.4-0.3-0.7c0-0.6,0.4-1,1-1s1,0.4,1,1
		c0,0.1,0,0.3-0.1,0.4c-0.1,0.1-0.1,0.2-0.2,0.3c-0.1,0.1-0.2,0.2-0.3,0.2C50.6,57,50.5,57,50.4,57z"/>
	<path class="st3" d="M72.2,106.8c-0.2,0-0.3,0-0.5-0.1L52.8,95.8c-0.5-0.3-0.6-0.9-0.4-1.4c0.1-0.2,0.2-0.3,0.4-0.4l18.9-10.9
		c0.3-0.2,0.7-0.2,1,0L91.6,94c0.5,0.3,0.6,0.9,0.4,1.4c-0.1,0.2-0.2,0.3-0.4,0.4l-18.9,10.9C72.6,106.8,72.4,106.8,72.2,106.8z
		 M55.3,94.9l16.9,9.8l16.9-9.8l-16.9-9.8L55.3,94.9z"/>
	<path class="st3" d="M20.9,99c-0.2,0-0.3,0-0.5-0.1L1.5,88c-0.5-0.3-0.6-0.9-0.4-1.4c0.1-0.2,0.2-0.3,0.4-0.4l18.9-10.9
		c0.3-0.2,0.7-0.2,1,0l18.9,10.9c0.5,0.3,0.6,0.9,0.4,1.4c-0.1,0.2-0.2,0.3-0.4,0.4L21.4,98.9C21.2,99,21.1,99,20.9,99z M4,87.1
		l16.9,9.8l16.9-9.8l-16.9-9.8L4,87.1z"/>
	<polygon class="st3" points="28.6,86.6 19.9,91.6 16,89.4 17,84.9 24.8,84.4 	"/>
	<polygon class="st1" points="25.3,88.6 23.3,89.7 20.5,88 22.4,86.9 	"/>
	<path class="st3" d="M25.5,83.9c0-0.2-0.2-0.3-0.4-0.3l-8.8,0.6c-0.2,0-0.3,0.1-0.4,0.3l-1,4.9c0,0.2,0.1,0.4,0.3,0.5
		c0,0,0,0,0.1,0h0.6l0,0c0.2,0,0.4-0.1,0.4-0.3l0.9-4.5l7.9-0.5c0.2,0,0.4-0.2,0.4-0.4c0,0,0,0,0-0.1V83.9z"/>
	<path class="st2" d="M126,45c-0.6,0-1-0.4-1-1c0-0.3,0.1-0.5,0.3-0.7c0.4-0.4,1-0.4,1.4,0c0.1,0.1,0.2,0.2,0.2,0.3
		c0.2,0.4,0.1,0.8-0.2,1.1C126.5,44.9,126.3,45,126,45z"/>
	<path class="st2" d="M125,72.2c0-0.6,0.4-1,1-1l0,0c0.6,0,1,0.4,1,1l0,0c0,0.6-0.4,1-1,1l0,0C125.4,73.2,125,72.8,125,72.2z
		 M125,66.6c0-0.6,0.4-1,1-1l0,0c0.6,0,1,0.4,1,1l0,0c0,0.6-0.4,1-1,1l0,0C125.4,67.6,125,67.1,125,66.6z M125,60.9c0-0.6,0.4-1,1-1
		l0,0l0,0c0.6,0,1,0.4,1,1l0,0l0,0c0,0.6-0.4,1-1,1l0,0C125.4,61.9,125,61.5,125,60.9z M125,55.3c0-0.6,0.4-1,1-1l0,0
		c0.6,0,1,0.4,1,1l0,0c0,0.6-0.4,1-1,1l0,0C125.4,56.3,125,55.8,125,55.3z M125,49.6c0-0.6,0.4-1,1-1l0,0c0.6,0,1,0.4,1,1l0,0
		c0,0.6-0.4,1-1,1l0,0C125.4,50.6,125,50.2,125,49.6z"/>
	<path class="st2" d="M126,78.9c-0.1,0-0.3,0-0.4-0.1c-0.2-0.1-0.4-0.3-0.5-0.5c-0.1-0.1-0.1-0.3-0.1-0.4c0-0.3,0.1-0.5,0.3-0.7
		l0.1-0.1l0.2-0.1c0.1,0,0.1,0,0.2-0.1c0.1,0,0.3,0,0.4,0s0.1,0,0.2,0.1l0.2,0.1c0.1,0,0.1,0.1,0.2,0.1c0.4,0.4,0.4,1,0,1.4
		c-0.1,0.1-0.2,0.2-0.3,0.2C126.3,78.8,126.1,78.9,126,78.9z"/>
	<polygon class="st1" points="59.8,50.6 64.6,47.9 69.3,45.1 69.3,45.1 126,77.9 126,77.9 126,84.3 107.1,95.2 50.4,62.5 50.4,56 	
		"/>
	<path class="st4" d="M107.1,96.2c-0.6,0-1-0.4-1-1v-6.5c0-0.6,0.4-1,1-1s1,0.4,1,1v6.5C108.1,95.8,107.7,96.2,107.1,96.2z"/>
	<path class="st4" d="M88.2,85.3c-0.6,0-1-0.4-1-1v-6.5c0-0.6,0.4-1,1-1s1,0.4,1,1v6.5C89.2,84.9,88.7,85.3,88.2,85.3z"/>
	<path class="st4" d="M69.3,74.4c-0.6,0-1-0.4-1-1V67c0-0.6,0.4-1,1-1s1,0.4,1,1v6.5C70.3,74,69.8,74.4,69.3,74.4z"/>
	<path class="st4" d="M50.4,63.5c-0.6,0-1-0.4-1-1V56c0-0.6,0.4-1,1-1s1,0.4,1,1v6.5C51.4,63.1,50.9,63.5,50.4,63.5z"/>
	<path class="st4" d="M88.2,78.9c-0.2,0-0.3,0-0.5-0.1l-18.9-11c-0.5-0.3-0.6-0.9-0.4-1.4c0.1-0.2,0.2-0.3,0.4-0.4l18.9-10.9
		c0.3-0.2,0.7-0.2,1,0L107.6,66c0.5,0.3,0.6,0.9,0.4,1.4c-0.1,0.2-0.2,0.3-0.4,0.4L88.7,78.7C88.5,78.8,88.4,78.9,88.2,78.9z
		 M71.3,67l16.9,9.8l16.9-9.8l-16.9-9.8L71.3,67z"/>
	<path class="st4" d="M107.1,89.8c-0.2,0-0.3,0-0.5-0.1l-18.9-11c-0.5-0.3-0.6-0.9-0.4-1.4c0.1-0.2,0.2-0.3,0.4-0.4L106.6,66
		c0.3-0.2,0.7-0.2,1,0l18.9,11c0.5,0.3,0.6,0.9,0.4,1.4c-0.1,0.2-0.2,0.3-0.4,0.4l-18.9,10.9C107.4,89.7,107.3,89.8,107.1,89.8z
		 M90.2,77.9l16.9,9.8l16.9-9.8l-16.9-9.8L90.2,77.9z"/>
	<path class="st4" d="M69.3,68c-0.2,0-0.3,0-0.5-0.1l-18.9-11c-0.5-0.3-0.6-0.9-0.4-1.4c0.1-0.2,0.2-0.3,0.4-0.4l18.9-10.9
		c0.3-0.2,0.7-0.2,1,0l18.9,10.9c0.5,0.3,0.6,0.9,0.4,1.4c-0.1,0.2-0.2,0.3-0.4,0.4L69.8,67.8C69.6,67.9,69.5,68,69.3,68z M52.4,56
		l16.9,9.8L86.2,56l-16.9-9.8L52.4,56z"/>
	<polygon class="st1" points="81.7,89.5 76.9,86.7 72.2,84 53.3,94.9 34.4,105.8 34.4,105.8 34.4,112.3 53.3,123.2 91.1,101.4 
		91.1,94.9 	"/>
	<path class="st3" d="M72.2,113.3c-0.6,0-1-0.4-1-1v-6.5c0-0.6,0.4-1,1-1s1,0.4,1,1v6.5C73.2,112.8,72.8,113.3,72.2,113.3z"/>
	<path class="st3" d="M53.3,124.2c-0.6,0-1-0.4-1-1v-6.5c0-0.4,0.2-0.7,0.5-0.9L90.6,94c0.5-0.3,1.1-0.1,1.4,0.4
		c0.1,0.2,0.1,0.3,0.1,0.5v6.5c0,0.4-0.2,0.7-0.5,0.9l-37.8,21.8C53.7,124.2,53.5,124.2,53.3,124.2z M54.3,117.3v4.1l35.8-20.7v-4.1
		L54.3,117.3z"/>
	<path class="st3" d="M72.2,106.8c-0.2,0-0.3,0-0.5-0.1L52.8,95.8c-0.5-0.3-0.6-0.9-0.4-1.4c0.1-0.2,0.2-0.3,0.4-0.4l18.9-10.9
		c0.3-0.2,0.7-0.2,1,0L91.6,94c0.5,0.3,0.6,0.9,0.4,1.4c-0.1,0.2-0.2,0.3-0.4,0.4l-18.9,10.9C72.6,106.8,72.4,106.8,72.2,106.8z
		 M55.3,94.9l16.9,9.8l16.9-9.8l-16.9-9.8L55.3,94.9z"/>
	<path class="st3" d="M53.3,117.7c-0.2,0-0.3,0-0.5-0.1l-18.9-10.9c-0.5-0.3-0.6-0.9-0.4-1.4c0.1-0.2,0.2-0.3,0.4-0.4L52.8,94
		c0.3-0.2,0.7-0.2,1,0l18.9,11c0.5,0.3,0.6,0.9,0.4,1.4c-0.1,0.2-0.2,0.3-0.4,0.4l-18.9,10.9C53.7,117.7,53.5,117.7,53.3,117.7z
		 M36.4,105.8l16.9,9.8l16.9-9.8L53.3,96L36.4,105.8z"/>
	<path class="st5" d="M53.3,124.2c-0.2,0-0.3,0-0.5-0.1l-18.9-10.9c-0.3-0.2-0.5-0.5-0.5-0.9v-6.5c0-0.4,0.2-0.7,0.5-0.9l37.8-21.8
		c0.3-0.2,0.7-0.2,1,0l9.5,5.5l0,0l9.5,5.5c0.3,0.2,0.5,0.5,0.5,0.9v6.5c0,0.4-0.2,0.7-0.5,0.9l-37.8,21.8
		C53.7,124.2,53.5,124.2,53.3,124.2z M35.4,111.7L53.3,122l36.8-21.2v-5.3L72.2,85.2l-36.8,21.2L35.4,111.7z"/>
	<path class="st3" d="M39.8,94.3c-0.6,0-1-0.4-1-1v-6.2c0-0.6,0.4-1,1-1s1,0.4,1,1v6.2C40.8,93.9,40.4,94.3,39.8,94.3z"/>
	<path class="st3" d="M20.9,105.5c-0.6,0-1-0.4-1-1V98c0-0.6,0.4-1,1-1s1,0.4,1,1v6.5C21.9,105,21.5,105.5,20.9,105.5z"/>
	<path class="st3" d="M2,94.3c-0.6,0-1-0.4-1-1v-6.2c0-0.6,0.4-1,1-1s1,0.4,1,1v6.2C3,93.8,2.6,94.3,2,94.3L2,94.3z"/>
	<path class="st3" d="M39.8,88.1c-0.2,0-0.3,0-0.5-0.1L20.4,77.1c-0.5-0.3-0.6-0.9-0.4-1.4c0.1-0.2,0.2-0.3,0.4-0.4l18.9-10.9
		c0.3-0.2,0.7-0.2,1,0l18.9,10.9c0.5,0.3,0.6,0.9,0.4,1.4c-0.1,0.2-0.2,0.3-0.4,0.4L40.3,88C40.1,88.1,40,88.1,39.8,88.1z
		 M22.9,76.2L39.8,86l16.9-9.8l-16.9-9.8L22.9,76.2z"/>
	<path class="st5" d="M20.9,105.5c-0.2,0-0.3,0-0.5-0.1l-18.9-11C1.2,94.3,1,93.9,1,93.6v-6.5c0-0.4,0.2-0.7,0.5-0.9l37.8-21.8
		c0.3-0.2,0.7-0.2,1,0l9.5,5.5l0,0l9.5,5.5c0.3,0.2,0.5,0.5,0.5,0.9v6.5c0,0.4-0.2,0.7-0.5,0.9l-37.8,21.8
		C21.2,105.4,21.1,105.5,20.9,105.5z M3,93l17.9,10.3l36.8-21.2v-5.3L39.8,66.4L3,87.7V93z"/>
	<polygon class="st4" points="59.8,10.3 64.6,7.5 69.3,4.8 69.3,4.8 126,37.5 126,37.5 126,44 107.1,54.9 50.4,22.2 50.4,15.7 	"/>
	<path class="st6" d="M69.3,34.1c-0.6,0-1-0.4-1-1v-6.5c0-0.6,0.4-1,1-1s1,0.4,1,1v6.5C70.3,33.6,69.8,34.1,69.3,34.1z"/>
	<path class="st6" d="M88.2,45c-0.6,0-1-0.4-1-1v-6.5c0-0.6,0.4-1,1-1s1,0.4,1,1V44C89.2,44.5,88.7,45,88.2,45z"/>
	<polygon class="st1" points="50.4,15.7 69.3,26.6 88.2,15.7 69.3,4.8 	"/>
	<path class="st6" d="M69.3,27.6c-0.2,0-0.3,0-0.5-0.1L49.9,16.6c-0.5-0.3-0.6-0.9-0.4-1.4c0.1-0.2,0.2-0.3,0.4-0.4L68.8,3.9
		c0.3-0.2,0.7-0.2,1,0l18.9,10.9c0.5,0.3,0.6,0.9,0.4,1.4c-0.1,0.2-0.2,0.3-0.4,0.4L69.8,27.5C69.6,27.6,69.5,27.6,69.3,27.6z
		 M52.4,15.7l16.9,9.8l16.9-9.8L69.3,6L52.4,15.7z"/>
	<polygon class="st1" points="69.3,26.6 88.2,37.5 107.1,26.6 88.2,15.7 	"/>
	<path class="st6" d="M88.2,38.5c-0.2,0-0.3,0-0.5-0.1L68.8,27.5c-0.5-0.3-0.6-0.9-0.4-1.4c0.1-0.2,0.2-0.3,0.4-0.4l18.9-10.9
		c0.3-0.2,0.7-0.2,1,0l18.9,10.9c0.5,0.3,0.6,0.9,0.4,1.4c-0.1,0.2-0.2,0.3-0.4,0.4L88.7,38.4C88.5,38.5,88.4,38.5,88.2,38.5z
		 M71.3,26.6l16.9,9.8l16.9-9.8l-16.9-9.8L71.3,26.6z"/>
	<polygon class="st1" points="88.2,37.5 107.1,48.5 126,37.5 107.1,26.6 	"/>
	<path class="st6" d="M107.1,49.5c-0.2,0-0.3,0-0.5-0.1l-18.9-11c-0.5-0.3-0.6-0.9-0.4-1.4c0.1-0.2,0.2-0.3,0.4-0.4l18.9-10.9
		c0.3-0.2,0.7-0.2,1,0l18.9,10.9c0.5,0.3,0.6,0.9,0.4,1.4c-0.1,0.2-0.2,0.3-0.4,0.4l-18.9,10.9C107.4,49.4,107.3,49.5,107.1,49.5z
		 M90.2,37.5l16.9,9.8l16.9-9.8l-16.9-9.8L90.2,37.5z"/>
	<polygon class="st4" points="126,44 126,37.5 107.1,48.5 107.1,54.9 	"/>
	<path class="st6" d="M107.1,55.9c-0.6,0-1-0.4-1-1v-6.5c0-0.4,0.2-0.7,0.5-0.9l18.9-10.9c0.5-0.3,1.1-0.1,1.4,0.4
		c0.1,0.2,0.1,0.3,0.1,0.5V44c0,0.4-0.2,0.7-0.5,0.9l-18.9,10.9C107.4,55.9,107.3,55.9,107.1,55.9z M108.1,49v4.1l16.9-9.8v-4.1
		L108.1,49z"/>
	<path class="st2" d="M107.1,55.9c-0.2,0-0.3,0-0.5-0.1L49.9,23c-0.3-0.2-0.5-0.5-0.5-0.9v-6.5c0-0.4,0.2-0.7,0.5-0.9L68.8,3.9
		c0.3-0.2,0.7-0.2,1,0l56.7,32.7c0.3,0.2,0.5,0.5,0.5,0.9V44c0,0.4-0.2,0.7-0.5,0.9l-18.9,10.9C107.4,55.9,107.3,55.9,107.1,55.9z
		 M51.4,21.6l55.7,32.2L125,43.4v-5.3L69.3,6L51.4,16.3V21.6z"/>
	<path class="st4" d="M72.7,53.3L72,53.8c-1.9-0.8-4-0.7-5.8,0.2c-1.6,0.9-1.7,2.4-0.4,3.4L64.6,58c-0.6,0.2-0.9,0.8-0.7,1.4
		c0.1,0.3,0.4,0.6,0.7,0.7c1.1,0.6,2.5,0.6,3.6,0l8.1-4.7c0.6-0.2,0.9-0.8,0.7-1.4c-0.1-0.3-0.4-0.6-0.7-0.7
		C75.2,52.8,73.9,52.8,72.7,53.3z"/>
	<polygon class="st3" points="37.7,76.2 43.5,72.9 49.2,76.2 43.5,79.5 	"/>
	<polygon class="st1" points="30.4,76.2 37.7,72 45,76.2 37.7,80.4 	"/>
	<polygon class="st3" points="32,76.2 37.7,72.9 43.5,76.2 37.7,79.5 	"/>
	<path class="st3" d="M56.8,103.1l-0.8,0.4c-1.9-0.8-4-0.7-5.8,0.2c-1.6,0.9-1.7,2.4-0.4,3.4l-1.1,0.6c-0.6,0.2-0.9,0.8-0.7,1.4
		c0.1,0.3,0.4,0.6,0.7,0.7c1.1,0.6,2.5,0.6,3.6,0l8.1-4.7c0.6-0.2,0.9-0.8,0.7-1.4c-0.1-0.3-0.4-0.6-0.7-0.7
		C59.2,102.5,57.9,102.5,56.8,103.1z"/>
	<path class="st3" d="M67,93.9l3.6,1.1c0.1,0.1,0.3,0.1,0.4,0.1c0.2,0,0.3-0.1,0.5-0.2h0.1c0.1,0,0.2-0.1,0.2-0.2s0-0.2-0.1-0.2
		L71,93.8l-0.6-0.6c0.8,0.3,1.6,0.6,2.4,0.8c0.2,0.1,0.4,0.1,0.5,0l0.1-0.1h0.1c0.1-0.1,0.2-0.1,0.2-0.2s-0.1-0.2-0.1-0.3l-1.7-1.9
		c-0.1-0.1-0.2-0.2-0.2-0.3c-0.1-0.1-0.3-0.2-0.4,0l-0.2,0.1c-0.1,0.1-0.2,0.1-0.2,0.2s0.1,0.2,0.1,0.3l1.2,1.2l0.2,0.2L71.9,93
		l-2.2-0.8c-0.2-0.1-0.4-0.1-0.6,0c-0.1,0-0.2,0.1-0.2,0.1c-0.1,0.1-0.2,0.1-0.2,0.2s0.1,0.2,0.1,0.2l1.4,1.3
		c-0.1,0-0.3-0.1-0.4-0.1l-0.4-0.1c-0.6-0.2-1.1-0.4-1.6-0.6c-0.2-0.1-0.4-0.1-0.5,0l-0.1,0.1c-0.1,0-0.1,0.1-0.2,0.1
		s-0.1,0.1-0.1,0.2C66.8,93.8,66.9,93.8,67,93.9z"/>
	<path class="st3" d="M79,93C79,93,78.9,92.9,79,93h-0.2c-0.1,0-0.1,0-0.2,0.1c-0.1,0-0.1,0.1-0.1,0.2c-0.8,1.1-1.8,2-3,2.6
		c-0.8,0.5-1.6,0.9-2.5,1.2c-0.9,0.4-1.9,0.7-2.9,0.9c-0.3,0.1-0.6,0.1-1,0.2c-0.2,0-0.4,0.1-0.6,0.1c-0.1,0-0.1,0-0.2,0.1l0,0
		c-0.1,0-0.1,0.1-0.1,0.2c0,0,0,0.1,0.1,0.1h0.1c0.1,0,0.1,0,0.2,0l0,0c0.2,0,0.4,0,0.6,0c2.4-0.1,4.7-0.8,6.8-1.9l0,0l0.3-0.2
		c0.2-0.2,0.5-0.3,0.7-0.5c0.8-0.6,1.5-1.3,1.9-2.2c0.1-0.2,0.2-0.4,0.2-0.6C79.2,93.1,79.1,93.1,79,93L79,93z"/>
	<path class="st3" d="M73.7,91.7c0.2,0,0.3-0.1,0.5-0.1h0.1c0.1,0,0.2-0.1,0.3-0.1c0.2-0.1,0.4-0.1,0.6-0.2c0.2,0,0.4,0,0.5,0.1v0.1
		v0.1l-0.1,0.1c-0.1,0.1-0.3,0.2-0.5,0.3c-0.2,0.1-0.4,0.1-0.6,0.2l-0.3,0.1c-0.1,0-0.2,0.1-0.2,0.1c0,0.1,0,0.1,0,0.2
		c0.1,0.2,0.4,0.3,0.6,0.2c0.1,0,0.2,0,0.2,0c0.4-0.1,0.9-0.3,1.2-0.5c0.3-0.2,0.5-0.4,0.6-0.8c0-0.2-0.1-0.4-0.2-0.6
		c-0.4-0.3-1-0.5-1.6-0.3c-0.1,0-0.3,0.1-0.4,0.1s-0.2,0-0.2,0.1L74,90.9c-0.2,0.1-0.4,0.1-0.6,0.2c-0.2,0-0.3,0-0.5-0.1
		c-0.1,0-0.1-0.1-0.1-0.1l0,0c0.2-0.1,0.3-0.3,0.5-0.3c0.2-0.1,0.3-0.1,0.5-0.2c0.1,0,0.1,0,0.2-0.1s0.2-0.1,0.2-0.2s0-0.1-0.1-0.2
		c-0.2-0.2-0.5-0.3-0.8-0.2c-0.2,0.1-0.4,0.2-0.6,0.2L72.4,90c0,0-0.1,0-0.1,0.1c-0.3,0.1-0.5,0.4-0.6,0.7c-0.1,0.2,0,0.4,0.1,0.6
		C72.5,91.7,73.1,91.9,73.7,91.7z"/>
	<path class="st3" d="M79.4,92.1c-0.2-0.1-0.4-0.1-0.6,0c-0.3,0.1-0.5,0.3-0.8,0.4c-0.3,0.2-0.6,0.4-0.7,0.8v0.1l0,0
		c0,0.1,0,0.1,0.1,0.1h0.1h0.1h0.1l0.1-0.1c0.1-0.1,0.2-0.1,0.3-0.2c0.2-0.1,0.3-0.2,0.5-0.3c0.1-0.1,0.3-0.1,0.4-0.2
		c0.1,0,0.2,0,0.2,0l0.1,0.1c0.1,0.1,0.2,0.1,0.3,0.2c0.1,0.1,0.2,0.3,0.3,0.4c0.1,0.1,0.1,0.1,0.2,0.2l0.1,0.1l0,0l0,0
		c0.1,0,0.1,0,0.1-0.1c0,0,0,0,0.1-0.1v-0.1C80.3,92.9,79.9,92.3,79.4,92.1z"/>
	<path class="st3" d="M68.9,96L68.9,96c0.1,0,0.3,0,0.4,0s0.3,0,0.4-0.1c0,0,0,0,0-0.1c0.1-0.1,0.1-0.3,0-0.4c0,0-0.1-0.1-0.2-0.1
		c-0.3,0-0.6-0.2-0.9-0.3l0,0c-0.4-0.2-0.8-0.5-1.2-0.7c-0.6-0.3-1.2-0.3-1.8-0.1c-0.5,0.2-1,0.5-1.3,0.9c-0.1,0.1-0.1,0.2-0.1,0.3
		c0,0.1,0.1,0.2,0.2,0.2c0.3,0.2,0.4,0.2,0.6-0.1c0.2-0.3,0.4-0.5,0.7-0.6c0.2-0.1,0.5-0.2,0.7-0.1c0.2,0,0.4,0.1,0.6,0.2
		c-0.4,0.1-0.8,0.4-1.2,0.7c-0.2,0.2-0.2,0.5-0.1,0.7c0.3,0.5,0.9,0.7,1.4,0.7l0,0c0.5,0,0.9-0.2,1.3-0.4
		C68.7,96.5,68.9,96.3,68.9,96z"/>
	<polygon class="st0" points="59.8,50.6 64.6,47.9 69.3,45.1 69.3,45.1 126,77.9 126,77.9 126,84.3 107.1,95.2 50.4,62.5 50.4,56 	
		"/>
	<path class="st6" d="M107.1,96.2c-0.2,0-0.3,0-0.5-0.1L49.9,63.4c-0.3-0.2-0.5-0.5-0.5-0.9V56c0-0.4,0.2-0.7,0.5-0.9l18.9-10.9
		c0.3-0.2,0.7-0.2,1,0L126.5,77c0.3,0.2,0.5,0.5,0.5,0.9v6.5c0,0.4-0.2,0.7-0.5,0.9l-18.9,10.9C107.4,96.2,107.3,96.2,107.1,96.2z
		 M51.4,61.9l55.7,32.2L125,83.8v-5.3L69.3,46.3L51.4,56.6V61.9z"/>
	<path class="st4" d="M83.6,64.2C83.6,64.1,83.6,64.1,83.6,64.2C83.5,64.2,83.5,64.2,83.6,64.2L83,67.6l0,0l2,4.3l0,0l0,0l0,0
		l2.5-1.4l0,0c0,0,0,0,0-0.1L83.6,64.2z"/>
	<path class="st4" d="M96.7,66.1l-12.2-1.9c0,0-0.1,0-0.1,0.1c0,0,0,0,0,0.1l2.3,2.9c0,0,0,0,0.1,0l5.5,0.3l-3.9,3.3V71h0.1l8.2-4.7
		C96.8,66.3,96.8,66.2,96.7,66.1C96.8,66.1,96.8,66.1,96.7,66.1L96.7,66.1z"/>
	<polygon class="st4" points="114.8,77.4 106.1,82.4 102.2,80.2 103.2,75.7 111,75.1 	"/>
	<polygon class="st1" points="111.4,79.3 109.5,80.4 106.7,78.8 108.6,77.7 	"/>
	<path class="st4" d="M111.7,74.6c0-0.2-0.2-0.3-0.4-0.3l-8.8,0.6c-0.2,0-0.3,0.1-0.4,0.3l-1,4.9c0,0.2,0.1,0.4,0.3,0.5
		c0,0,0,0,0.1,0h0.6l0,0c0.2,0,0.4-0.1,0.4-0.3l0.9-4.5l7.9-0.5c0.2,0,0.4-0.2,0.4-0.4c0,0,0,0,0-0.1V74.6z"/>
	<path class="st6" d="M72.7,13L72,13.4c-1.9-0.8-4-0.7-5.8,0.2c-1.6,0.9-1.7,2.4-0.4,3.4l-1.1,0.7c-0.6,0.2-0.9,0.8-0.7,1.4
		c0.1,0.3,0.4,0.6,0.7,0.7c1.1,0.6,2.5,0.6,3.6,0l8.1-4.7c0.6-0.2,0.9-0.8,0.7-1.4c-0.1-0.3-0.4-0.6-0.7-0.7
		C75.2,12.4,73.9,12.4,72.7,13z"/>
	<path class="st6" d="M83.6,23.8L83.6,23.8C83.5,23.8,83.5,23.8,83.6,23.8L83,27.2l0,0l2,4.3l0,0l0,0l0,0l2.5-1.4l0,0c0,0,0,0,0-0.1
		L83.6,23.8z"/>
	<path class="st6" d="M96.7,25.8l-12.2-1.9h-0.1V24l2.3,2.9c0,0,0,0,0.1,0l5.5,0.3l-3.9,3.3v0.1c0,0,0,0,0.1,0l0,0L96.7,25.8
		C96.8,25.9,96.8,25.9,96.7,25.8C96.8,25.8,96.8,25.8,96.7,25.8z"/>
	<polygon class="st6" points="114.8,37 106.1,42.1 102.2,39.8 103.2,35.3 111,34.8 	"/>
	<polygon class="st1" points="111.4,39 109.5,40.1 106.7,38.5 108.6,37.3 	"/>
	<path class="st6" d="M111.7,34.3c0-0.2-0.2-0.3-0.4-0.3l-8.8,0.6c-0.2,0-0.3,0.1-0.4,0.3l-1,4.9c0,0.2,0.1,0.4,0.3,0.5
		c0,0,0,0,0.1,0h0.6l0,0c0.2,0,0.4-0.1,0.4-0.3l0.9-4.5l7.9-0.5c0.2,0,0.4-0.2,0.4-0.4c0,0,0,0,0-0.1V34.3z"/>
	<g>
		<rect class="st0" width="128" height="128"/>
	</g>
</g>
</svg>
