<?xml version="1.0" encoding="utf-8"?>
<!-- Generator: Adobe Illustrator 24.1.2, SVG Export Plug-In . SVG Version: 6.00 Build 0)  -->
<svg version="1.1" id="Layer_1" xmlns="http://www.w3.org/2000/svg" xmlns:xlink="http://www.w3.org/1999/xlink" x="0px" y="0px"
	 width="128px" height="128px" viewBox="0 0 128 128" style="enable-background:new 0 0 128 128;" xml:space="preserve">
<style type="text/css">
	.st0{fill:#4D9987;}
	.st1{fill:#E9EBDF;}
	.st2{fill:#C4D7D3;}
	.st3{fill:#FFFFFF;}
	.st4{fill:#27ae60;}
	.st5{fill:#0E352C;}
	.st6{fill:#185849;}
	.st7{fill:none;}
</style>
<g>
	<path class="st0" d="M48.3,76.9c-0.3,0-0.5-0.1-0.7-0.3c-0.1-0.1-0.2-0.2-0.2-0.3c-0.1-0.2-0.1-0.5,0-0.8c0-0.1,0.1-0.2,0.2-0.3
		c0.1-0.1,0.2-0.2,0.3-0.2s0.1,0,0.2-0.1c0.3-0.1,0.7,0,0.9,0.3c0.1,0.1,0.2,0.2,0.2,0.3c0.2,0.4,0.1,0.8-0.2,1.1
		c-0.1,0.1-0.2,0.2-0.3,0.2C48.6,76.8,48.5,76.9,48.3,76.9z"/>
	<path class="st0" d="M43.4,78.7c-0.3-0.5-0.1-1.1,0.4-1.4l0,0c0.5-0.3,1.1-0.1,1.4,0.4l0,0c0.3,0.5,0.1,1.1-0.4,1.4l0,0
		c-0.2,0.1-0.3,0.1-0.5,0.1l0,0C43.9,79.2,43.6,79,43.4,78.7z"/>
	<path class="st0" d="M40.3,81.6c-0.1,0-0.3,0-0.4-0.1c-0.1-0.1-0.2-0.1-0.3-0.2c-0.2-0.2-0.3-0.4-0.3-0.7c0-0.4,0.2-0.8,0.6-0.9
		c0.4-0.1,0.8-0.1,1.1,0.2c0.1,0.1,0.2,0.2,0.2,0.3c0.1,0.1,0.1,0.3,0.1,0.4c0,0.3-0.1,0.5-0.3,0.7C40.8,81.5,40.5,81.6,40.3,81.6z"
		/>
	<path class="st0" d="M87.3,54.2c-0.1,0-0.3,0-0.4-0.1s-0.2-0.1-0.3-0.2c-0.2-0.2-0.3-0.4-0.3-0.7c0-0.1,0-0.3,0.1-0.4
		c0-0.1,0.1-0.2,0.2-0.3c0.4-0.4,1-0.4,1.4,0l0,0c0.1,0.1,0.2,0.2,0.2,0.3c0.1,0.1,0.1,0.3,0.1,0.4C88.3,53.7,87.9,54.2,87.3,54.2
		L87.3,54.2z"/>
	<path class="st0" d="M82.4,56c-0.3-0.5-0.1-1.1,0.4-1.4l0,0l0,0c0.5-0.3,1.1-0.1,1.4,0.3l0,0l0,0c0.3,0.5,0.1,1.1-0.4,1.4l0,0l0,0
		c-0.2,0.1-0.3,0.1-0.5,0.1l0,0C82.9,56.5,82.6,56.3,82.4,56z"/>
	<path class="st0" d="M79.2,58.9c-0.1,0-0.3,0-0.4-0.1c-0.1,0-0.2-0.1-0.3-0.2c-0.1-0.1-0.2-0.2-0.2-0.3c-0.1-0.1-0.1-0.2-0.1-0.4
		c0-0.1,0-0.1,0-0.2c0-0.1,0-0.1,0.1-0.2c0-0.1,0.1-0.1,0.1-0.2c0-0.1,0.1-0.1,0.1-0.2c0,0,0.1-0.1,0.2-0.1s0.1-0.1,0.2-0.1
		s0.1,0,0.2-0.1c0.5-0.1,1.1,0.2,1.2,0.8c0,0.1,0,0.1,0,0.2c0,0.1,0,0.3-0.1,0.4c-0.1,0.1-0.1,0.2-0.2,0.3
		C79.7,58.8,79.5,58.9,79.2,58.9z"/>
	<path class="st0" d="M100.6,57.4L100.6,57.4c-0.6,0-1-0.4-1-1V41.7c0-0.6,0.4-1,1-1l0,0c0.3,0,0.6-0.1,0.8-0.2l17.2-9.9
		c0.5-0.3,1.1-0.1,1.4,0.4l0,0c0.2,0.4,0.3,0.8,0.3,1.3v12.9c0,0.9-0.5,1.8-1.3,2.3l0,0L102.4,57C101.9,57.2,101.2,57.4,100.6,57.4z
		 M101.6,42.5v12.6l16.4-9.5l0,0c0.2-0.1,0.3-0.3,0.3-0.5V33l-15.9,9.1C102.2,42.3,101.9,42.4,101.6,42.5L101.6,42.5z"/>
	<path class="st0" d="M100.6,42.7c-0.6,0-1.3-0.2-1.8-0.5l0,0l-17.1-9.9c-0.5-0.3-0.6-0.9-0.4-1.4c0.2-0.4,0.6-0.7,1-1l16.6-9.5
		c1.1-0.7,2.5-0.7,3.7,0L119,30c0.4,0.2,0.7,0.6,1,1c0.3,0.5,0.1,1.1-0.4,1.4l0,0l-17.2,9.9C101.9,42.5,101.2,42.7,100.6,42.7z
		 M99.7,40.4c0.5,0.3,1.2,0.3,1.7,0l15.9-9.1l-15.9-9.2c-0.5-0.3-1.2-0.3-1.7,0l-15.9,9.1L99.7,40.4z"/>
	<path class="st1" d="M100.6,35.9c-0.2,0-0.3,0-0.4-0.1l-6.4-3.7c-0.4-0.2-0.6-0.8-0.3-1.2c0.1-0.1,0.2-0.2,0.3-0.3l6.4-3.7
		c0.3-0.2,0.6-0.2,0.9,0l6.4,3.7c0.4,0.2,0.6,0.8,0.3,1.2c-0.1,0.1-0.2,0.2-0.3,0.3l-6.4,3.7C100.9,35.9,100.8,35.9,100.6,35.9z
		 M96,31.4l4.6,2.7l4.6-2.7l-4.6-2.7L96,31.4z"/>
	<path class="st2" d="M63,78.7l16.6-9.5c0.5-0.3,0.8-0.8,0.8-1.4v-10c0-0.3-0.1-0.6-0.2-0.8L63,66.8c-0.8,0.5-1.9,0.5-2.7,0
		l-17.1-9.9c-0.1,0.2-0.2,0.5-0.2,0.8v10c0,0.6,0.3,1.1,0.8,1.4l16.6,9.6C61.1,79.2,62.2,79.2,63,78.7z"/>
	<path class="st2" d="M79.6,69.2c0.5-0.3,0.8-0.8,0.8-1.4v-10c0-0.3-0.1-0.6-0.2-0.8L63,66.8c-0.4,0.2-0.9,0.4-1.3,0.4v11.9
		c0.5,0,0.9-0.1,1.3-0.4L79.6,69.2z"/>
	<path class="st3" d="M60.3,66.8c0.8,0.5,1.9,0.5,2.7,0l17.2-9.9c-0.1-0.2-0.3-0.4-0.6-0.6L63,46.8c-0.8-0.5-1.9-0.5-2.7,0
		l-16.6,9.5c-0.2,0.1-0.4,0.3-0.6,0.6L60.3,66.8z"/>
	<path class="st4" d="M61.6,68.2c-0.6,0-1.3-0.2-1.8-0.5l0,0l-17.1-9.9c-0.5-0.3-0.6-0.9-0.4-1.4c0.2-0.4,0.6-0.7,1-1l16.6-9.5
		c1.1-0.7,2.5-0.7,3.7,0l16.6,9.6c0.4,0.2,0.7,0.6,1,1c0.3,0.5,0.1,1.1-0.4,1.4l-17.2,9.9C62.9,68,62.3,68.2,61.6,68.2z M60.8,66
		c0.5,0.3,1.2,0.3,1.7,0l15.9-9.1l-15.9-9.2c-0.5-0.3-1.2-0.3-1.7,0l-15.9,9.1L60.8,66z"/>
	<path class="st3" d="M24.9,100.4l16.6-9.5c0.5-0.3,0.8-0.8,0.8-1.4v-8.1c0-0.3-0.1-0.6-0.2-0.8l-17.2,9.9c-0.8,0.5-1.9,0.5-2.7,0
		l-17.1-10C5,80.8,4.9,81,4.9,81.3v8.1c0,0.6,0.3,1.1,0.8,1.4l16.6,9.6C23.1,100.9,24.1,100.9,24.9,100.4z"/>
	<path class="st1" d="M41.5,90.9c0.5-0.3,0.8-0.8,0.8-1.4v-8.1c0-0.3-0.1-0.6-0.2-0.8l-17.2,9.9c-0.4,0.2-0.9,0.4-1.3,0.4v9.9
		c0.5,0,0.9-0.1,1.3-0.4L41.5,90.9z"/>
	<path class="st3" d="M22.2,90.4c0.8,0.5,1.9,0.5,2.7,0l17.2-9.9c-0.1-0.2-0.3-0.4-0.6-0.6L25,70.4c-0.8-0.5-1.9-0.5-2.7,0L5.7,79.9
		c-0.2,0.1-0.4,0.3-0.6,0.6L22.2,90.4z"/>
	<path class="st0" d="M23.6,91.8c-0.6,0-1.3-0.2-1.8-0.5L4.6,81.4C4.1,81.1,4,80.5,4.2,80c0.2-0.4,0.6-0.7,1-1l16.6-9.5
		c1.1-0.7,2.5-0.7,3.7,0L42,79.1c0.4,0.2,0.7,0.6,1,1c0.3,0.5,0.1,1.1-0.4,1.4l0,0l-17.2,9.9C24.9,91.6,24.2,91.8,23.6,91.8z
		 M6.9,80.4l15.9,9.2l0,0c0.5,0.3,1.2,0.3,1.7,0l15.9-9.1l-15.9-9.2c-0.5-0.3-1.2-0.3-1.7,0L6.9,80.4z"/>
	<path class="st1" d="M90.3,93.2c-0.4,0-0.7-0.2-0.9-0.6l-2.9-6.2c-0.2-0.3-0.1-0.7,0.1-1s0.6-0.4,1-0.4l10.7,1.7
		c0.5,0.1,0.9,0.6,0.8,1.1c0,0.3-0.2,0.6-0.5,0.7L90.8,93C90.7,93.2,90.5,93.2,90.3,93.2z M89.1,87.3l1.6,3.5l4.4-2.6L89.1,87.3z"/>
	<path class="st0" d="M44,108.1c-0.2,0-0.3,0-0.5-0.1l-2.3-1.4c-1.5-0.8-2-2.7-1.1-4.2c0.3-0.5,0.7-0.8,1.1-1.1l74-42.7
		c1.6-0.9,3.5-0.9,5.1,0l3.4,1.9c0.5,0.3,0.6,0.9,0.4,1.4s-0.9,0.6-1.4,0.4l-3.4-1.9c-1-0.5-2.1-0.5-3.1,0l-74,42.7
		c-0.5,0.3-0.7,0.9-0.4,1.4c0.1,0.2,0.2,0.3,0.4,0.4l2.3,1.4c0.5,0.3,0.6,0.9,0.4,1.4C44.7,107.9,44.4,108.1,44,108.1L44,108.1z"/>
	<path class="st0" d="M82.5,84.2c-0.2,0-0.3,0-0.5-0.1l-3.9-2.2c-0.5-0.3-0.6-0.9-0.4-1.4c0.3-0.5,0.9-0.6,1.4-0.4l0,0l3.9,2.2
		c0.5,0.3,0.6,0.9,0.4,1.4C83.2,84,82.8,84.1,82.5,84.2L82.5,84.2z"/>
	<path class="st0" d="M62.5,95.7c-0.2,0-0.3,0-0.5-0.1l-3.9-2.2c-0.5-0.3-0.6-0.9-0.4-1.4c0.3-0.5,0.9-0.6,1.4-0.4l0,0l3.9,2.2
		c0.5,0.3,0.6,0.9,0.4,1.4C63.2,95.5,62.8,95.7,62.5,95.7z"/>
	<path class="st0" d="M52.8,101.3c-0.2,0-0.3,0-0.5-0.1L48.4,99c-0.5-0.3-0.6-0.9-0.4-1.4s0.9-0.6,1.4-0.4l3.9,2.2
		c0.5,0.3,0.6,0.9,0.4,1.4C53.5,101.1,53.2,101.3,52.8,101.3z"/>
	<path class="st0" d="M72.8,89.7c-0.2,0-0.3,0-0.5-0.1l-3.9-2.2c-0.5-0.3-0.6-0.9-0.4-1.4s0.9-0.6,1.4-0.4l3.9,2.2
		c0.5,0.3,0.6,0.9,0.4,1.4C73.5,89.6,73.1,89.7,72.8,89.7z"/>
	<path class="st0" d="M91.8,78.8c-0.2,0-0.3,0-0.5-0.1l-3.9-2.2c-0.5-0.3-0.6-0.9-0.4-1.4s0.9-0.6,1.4-0.4l3.9,2.2
		c0.5,0.3,0.6,0.9,0.4,1.4C92.4,78.6,92.1,78.8,91.8,78.8z"/>
	<path class="st0" d="M111.7,67.3c-0.2,0-0.3,0-0.5-0.1l-3.9-2.2c-0.5-0.3-0.6-0.9-0.4-1.4s0.9-0.6,1.4-0.4l3.9,2.2
		c0.5,0.3,0.6,0.9,0.4,1.4C112.4,67.1,112.1,67.3,111.7,67.3z"/>
	<path class="st0" d="M101.6,73.1c-0.2,0-0.3,0-0.5-0.1l-3.9-2.2c-0.5-0.3-0.6-0.9-0.4-1.4s0.9-0.6,1.4-0.4l3.9,2.2
		c0.5,0.3,0.6,0.9,0.4,1.4C102.3,72.9,101.9,73.1,101.6,73.1L101.6,73.1z"/>
	<polygon class="st3" points="22.2,84.2 19.5,78.3 29.6,79.9 	"/>
	<path class="st1" d="M22.2,85c-0.3,0-0.7-0.2-0.8-0.5l-2.7-5.8c-0.1-0.3-0.1-0.6,0.1-0.9s0.5-0.4,0.8-0.3L29.7,79
		c0.5,0.1,0.8,0.5,0.7,1c0,0.3-0.2,0.5-0.4,0.6l-7.4,4.3C22.5,85,22.3,85,22.2,85z M21,79.4l1.6,3.5l4.4-2.5L21,79.4z"/>
	<path class="st2" d="M61.7,60.6c-1.4,0-2.8-0.3-4.1-1c-1.6-0.6-2.3-2.4-1.7-4c0.3-0.8,0.9-1.4,1.7-1.7c2.6-1.3,5.6-1.3,8.1,0
		c1.6,0.6,2.3,2.4,1.7,4c-0.3,0.8-0.9,1.4-1.7,1.7C64.5,60.3,63.1,60.7,61.7,60.6z M61.7,54.7c-1.1,0-2.2,0.2-3.2,0.8
		c-0.7,0.4-1.1,0.9-1.1,1.3s0.4,0.9,1.1,1.3c2,1,4.4,1,6.4,0l0,0c0.7-0.4,1.1-0.9,1.1-1.3s-0.4-0.9-1.1-1.3
		C63.9,54.9,62.8,54.7,61.7,54.7z"/>
	<path class="st0" d="M18.9,99.3c-0.5,0-0.9-0.4-0.9-0.9V94l-7.6-4.4v3.6c0,0.5-0.4,0.9-0.9,0.9s-0.9-0.4-0.9-0.9v-5.1
		c0-0.3,0.2-0.6,0.4-0.8c0.3-0.2,0.6-0.2,0.9,0l9.3,5.4c0.3,0.2,0.4,0.4,0.4,0.8v5C19.8,99,19.4,99.3,18.9,99.3L18.9,99.3z"/>
	<path class="st4" d="M57.1,77.4c-0.5,0-0.9-0.4-0.9-0.9v-5.2L48.6,67v4.1c0,0.5-0.4,0.9-0.9,0.9s-0.9-0.4-0.9-0.9v-5.7
		c0-0.3,0.2-0.6,0.4-0.8c0.3-0.2,0.6-0.2,0.9,0l9.3,5.4c0.3,0.2,0.4,0.4,0.4,0.8v5.7C57.9,77,57.5,77.4,57.1,77.4L57.1,77.4z"/>
	<path class="st1" d="M95.6,54.8c-0.5,0-0.9-0.4-0.9-0.9l0,0v-6.6l-7.6-4.4v5.4c0,0.5-0.4,0.9-0.9,0.9s-0.9-0.4-0.9-0.9v-6.9
		c0-0.5,0.4-0.9,0.9-0.9c0.2,0,0.3,0,0.4,0.1l9.3,5.4c0.3,0.2,0.4,0.4,0.4,0.8v7.1C96.5,54.4,96.1,54.8,95.6,54.8L95.6,54.8z"/>
	<path class="st5" d="M23.6,101.8c-0.6,0-1.3-0.2-1.8-0.5L5.2,91.7c-0.8-0.5-1.3-1.3-1.3-2.3v-8.1c0-0.9,0.5-1.8,1.3-2.3l16.6-9.5
		c1.1-0.7,2.5-0.7,3.7,0L42,79.1c0.8,0.5,1.3,1.3,1.3,2.3v8.1c0,0.9-0.5,1.8-1.3,2.3l-16.6,9.5C24.9,101.6,24.2,101.8,23.6,101.8z
		 M23.6,71c-0.3,0-0.6,0.1-0.8,0.2L6.2,80.8c-0.2,0.1-0.3,0.3-0.3,0.5v8.1c0,0.2,0.1,0.4,0.3,0.5l16.6,9.6c0.5,0.3,1.2,0.3,1.7,0
		L41,90c0.2-0.1,0.3-0.3,0.3-0.5v-8.1c0-0.2-0.1-0.4-0.3-0.5l0,0l-16.6-9.6C24.2,71.1,23.9,71,23.6,71L23.6,71z"/>
	<path class="st6" d="M61.6,80.1c-0.6,0-1.3-0.2-1.8-0.5L43.2,70c-0.8-0.5-1.3-1.3-1.3-2.3v-10c0-0.9,0.5-1.8,1.3-2.3l16.6-9.5
		c1.1-0.7,2.5-0.7,3.7,0l16.6,9.6l0,0c0.8,0.5,1.3,1.3,1.3,2.3v10c0,0.9-0.5,1.8-1.3,2.3l-16.6,9.5C62.9,79.9,62.3,80.1,61.6,80.1z
		 M61.7,47.4c-0.3,0-0.6,0.1-0.8,0.2l-16.6,9.5c-0.2,0.1-0.3,0.3-0.3,0.5v10c0,0.2,0.1,0.4,0.3,0.5l16.6,9.6c0.5,0.3,1.2,0.3,1.7,0
		l16.6-9.5c0.2-0.1,0.3-0.3,0.3-0.5v-10c0-0.2-0.1-0.4-0.3-0.5l-16.6-9.6C62.3,47.5,62,47.4,61.7,47.4z"/>
	<path class="st0" d="M100.6,57.4c-0.6,0-1.3-0.2-1.8-0.5l-16.6-9.6c-0.8-0.5-1.3-1.3-1.3-2.3V32.1c0-0.9,0.5-1.8,1.3-2.3l16.6-9.5
		c1.1-0.7,2.5-0.7,3.7,0L119,30c0.8,0.5,1.3,1.3,1.3,2.3v12.9c0,0.9-0.5,1.8-1.3,2.3L102.4,57C101.9,57.2,101.2,57.4,100.6,57.4z
		 M100.6,21.9c-0.3,0-0.6,0.1-0.8,0.2l-16.6,9.5c-0.2,0.1-0.3,0.3-0.3,0.5V45c0,0.2,0.1,0.4,0.3,0.5l16.6,9.6c0.5,0.3,1.2,0.3,1.7,0
		l16.6-9.5c0.2-0.1,0.3-0.3,0.3-0.5V32.2c0-0.2-0.1-0.4-0.3-0.5l0,0l-16.6-9.6C101.2,22,100.9,21.9,100.6,21.9z"/>
	<rect x="1" y="1" class="st7" width="126" height="126"/>
	<g>
		<rect class="st7" width="128" height="128"/>
	</g>
</g>
</svg>
