<?xml version="1.0" encoding="utf-8"?>
<!-- Generator: Adobe Illustrator 24.1.2, SVG Export Plug-In . SVG Version: 6.00 Build 0)  -->
<svg version="1.1" id="Layer_1" xmlns="http://www.w3.org/2000/svg" xmlns:xlink="http://www.w3.org/1999/xlink" x="0px" y="0px"
	 width="128px" height="128px" viewBox="0 0 128 128" style="enable-background:new 0 0 128 128;" xml:space="preserve">
<style type="text/css">
	.st0{fill:none;}
	.st1{fill:#FFFFFF;}
	.st2{fill:#C4D7D3;}
	.st3{fill:#185849;}
	.st4{fill:#27ae60;}
	.st5{fill:#E9EBDF;}
	.st6{fill:#4D9987;}
</style>
<g>
	<rect x="1" y="1" class="st0" width="126" height="126"/>
	<path class="st1" d="M113,48.7c0.1-0.5-0.2-1-0.7-1.2l-40-23.1c-1.1-0.6-2.4-0.6-3.5,0L2.7,62.9c-0.4,0.2-0.7,0.6-0.7,1l0,0l0,0
		v6.5c0,0.4,0.3,0.8,0.7,1l40,23.1c0.3,0.1,0.5,0.3,0.8,0.3c0.9,0.2,1.9,0.1,2.7-0.3l66.1-38.4c0.4-0.2,0.7-0.6,0.7-1v-6.5
		C113.1,48.6,113.1,48.7,113,48.7z"/>
	<path class="st2" d="M44.5,94.9c0.6,0,1.2-0.1,1.8-0.4l66.1-38.4c0.4-0.2,0.7-0.6,0.7-1v-6.5c0,0.4-0.3,0.8-0.7,1L46.2,88
		c-0.5,0.3-1.1,0.4-1.7,0.4"/>
	<path class="st2" d="M44.5,88.4c-0.6,0-1.2-0.1-1.8-0.4l-40-23.1c-0.4-0.2-0.7-0.6-0.7-1v6.5c0,0.4,0.3,0.8,0.7,1l40,23.1
		c0.5,0.3,1.1,0.4,1.8,0.4"/>
	<path class="st0" d="M44.5,88.4c-0.6,0-1.2-0.1-1.8-0.4l-40-23.1c-0.4-0.2-0.7-0.6-0.7-1v6.5c0,0.4,0.3,0.8,0.7,1l40,23.1
		c0.5,0.3,1.1,0.4,1.8,0.4"/>
	<path class="st2" d="M72.4,24.5c-1.1-0.6-2.4-0.6-3.5,0L2.7,62.9c-0.6,0.2-0.9,0.8-0.7,1.4c0.1,0.3,0.4,0.6,0.7,0.7l5,2.9
		l69.1-40.7L72.4,24.5z"/>
	<path class="st3" d="M7.8,68.8c-0.2,0-0.3,0-0.5-0.1l-5-2.9c-1-0.5-1.5-1.7-1.1-2.7c0.2-0.5,0.6-0.8,1-1.1l66.1-38.4
		c1.4-0.7,3.1-0.7,4.5,0l0,0l4.5,2.6c0.5,0.3,0.6,0.9,0.4,1.4c-0.1,0.1-0.2,0.3-0.4,0.4l-69,40.7C8.1,68.7,7.9,68.8,7.8,68.8z
		 M3,63.9c0,0,0.1,0.1,0.2,0.1l4.5,2.6L74.9,27l-3-1.8l0,0c-0.8-0.4-1.7-0.4-2.5,0L3.2,63.7C3.2,63.8,3.1,63.8,3,63.9z"/>
	<path class="st4" d="M7.8,68.8c-0.2,0-0.3,0-0.5-0.1l-5-2.9c-1-0.5-1.5-1.7-1.1-2.7c0.2-0.5,0.6-0.8,1-1.1l66.1-38.4
		c1.4-0.7,3.1-0.7,4.5,0l0,0l4.5,2.6c0.5,0.3,0.6,0.9,0.4,1.4c-0.1,0.1-0.2,0.3-0.4,0.4l-69,40.7C8.1,68.7,7.9,68.8,7.8,68.8z
		 M3,63.9c0,0,0.1,0.1,0.2,0.1l4.5,2.6L74.9,27l-3-1.8l0,0c-0.8-0.4-1.7-0.4-2.5,0L3.2,63.7C3.2,63.8,3.1,63.8,3,63.9z"/>
	<path class="st4" d="M7.8,75.3c-0.6,0-1-0.4-1-1v-6.6c0-0.6,0.4-1,1-1s1,0.4,1,1v6.6C8.8,74.9,8.3,75.3,7.8,75.3z"/>
	<path class="st4" d="M44.5,89.4c-0.8,0-1.6-0.2-2.3-0.6l-40-23.1c-1-0.5-1.5-1.7-1.1-2.7c0.2-0.5,0.6-0.8,1-1.1l66.1-38.4
		c1.4-0.7,3.1-0.7,4.5,0l40,23.1l0,0c1,0.5,1.5,1.7,1.1,2.7c-0.2,0.5-0.6,0.8-1,1.1L46.7,88.8C46.1,89.2,45.3,89.4,44.5,89.4z
		 M3,63.9c0,0,0.1,0.1,0.2,0.1l40,23.1c0.8,0.4,1.7,0.4,2.5,0l66.1-38.4c0.1,0,0.1-0.1,0.2-0.2c0,0-0.1-0.1-0.2-0.1l-40-23.1
		c-0.8-0.4-1.7-0.4-2.5,0L3.2,63.7C3.2,63.8,3.1,63.8,3,63.9z"/>
	<path class="st3" d="M44.5,95.9c-0.4,0-0.8,0-1.2-0.1s-0.8-0.2-1.1-0.4l-40-23.1C1.5,72,1,71.2,1,70.4v-6.5l0,0
		c0.1-0.8,0.5-1.5,1.2-1.8l66.1-38.4c1.4-0.7,3.1-0.7,4.5,0l40,23.1c0.7,0.3,1.1,1,1.2,1.7c0,0.1,0,0.1,0,0.2v6.5
		c0,0.8-0.5,1.5-1.2,1.9L46.7,95.4C46,95.8,45.3,96,44.5,95.9z M3,70.4c0.1,0.1,0.1,0.1,0.2,0.2l40,23.1c0.2,0.1,0.4,0.2,0.6,0.2
		c0.7,0.2,1.4,0.1,2-0.2l66.1-38.4c0.1,0,0.2-0.1,0.2-0.2V49c0-0.1,0-0.2,0-0.3l0,0l0,0l0,0l0,0c-0.1-0.1-0.1-0.1-0.2-0.2l-40-23.1
		c-0.8-0.4-1.7-0.4-2.5,0L3.2,63.7c-0.1,0-0.2,0.1-0.2,0.2l0,0V70.4L3,70.4z"/>
	<path class="st5" d="M90.8,99c-0.1,0-0.2,0-0.3,0c-0.3-0.1-0.5-0.3-0.6-0.5L87,92.3c-0.2-0.5,0-1.1,0.5-1.3
		c0.2-0.1,0.4-0.1,0.6-0.1l10.7,1.7c0.5,0.1,0.9,0.6,0.8,1.1c0,0.3-0.2,0.6-0.5,0.7l-7.8,4.5C91.2,99,91,99,90.8,99z M89.6,93.1
		l1.6,3.5l4.4-2.5L89.6,93.1z"/>
	<path class="st6" d="M59.6,105c-0.2,0-0.3,0-0.5-0.1l-2.3-1.3c-1.5-0.8-2-2.7-1.1-4.1c0.3-0.5,0.7-0.8,1.1-1.1L118.1,63
		c1.6-0.9,3.5-0.9,5.1,0l3.4,1.9c0.5,0.3,0.6,0.9,0.4,1.4c-0.3,0.5-0.9,0.6-1.4,0.4l0,0l-3.4-1.9c-1-0.5-2.1-0.5-3.1,0L57.8,100
		c-0.5,0.3-0.7,0.9-0.4,1.4c0.1,0.2,0.2,0.3,0.4,0.4l2.3,1.3c0.5,0.3,0.6,0.9,0.4,1.4C60.3,104.8,59.9,105,59.6,105L59.6,105z"/>
	<path class="st6" d="M93.9,83.4c-0.2,0-0.3,0-0.5-0.1l-3.9-2.2c-0.5-0.3-0.6-0.9-0.4-1.4s0.9-0.6,1.4-0.4l3.9,2.2
		c0.5,0.3,0.6,0.9,0.4,1.4C94.6,83.2,94.2,83.4,93.9,83.4z"/>
	<path class="st6" d="M82.7,89.9c-0.2,0-0.3,0-0.5-0.1l-3.9-2.2c-0.5-0.3-0.6-0.9-0.4-1.4c0.3-0.5,0.9-0.6,1.4-0.4l0,0l3.9,2.2
		c0.5,0.3,0.6,0.9,0.4,1.4C83.4,89.7,83.1,89.9,82.7,89.9z"/>
	<path class="st6" d="M71.2,97.1c-0.2,0-0.3,0-0.5-0.1l-3.9-2.2c-0.5-0.3-0.6-0.9-0.4-1.4c0.3-0.5,0.9-0.6,1.4-0.4l0,0l3.9,2.2
		c0.5,0.3,0.6,0.9,0.4,1.4C71.9,96.9,71.6,97.1,71.2,97.1z"/>
	<path class="st6" d="M115.3,71.1c-0.2,0-0.3,0-0.5-0.1l-3.9-2.2c-0.5-0.3-0.6-0.9-0.4-1.4c0.3-0.5,0.9-0.6,1.4-0.4l3.9,2.2
		c0.5,0.3,0.6,0.9,0.4,1.4C116,70.9,115.6,71.1,115.3,71.1z"/>
	<path class="st6" d="M105,77c-0.2,0-0.3,0-0.5-0.1l-3.9-2.2c-0.5-0.3-0.6-0.9-0.4-1.4s0.9-0.6,1.4-0.4l3.9,2.2
		c0.5,0.3,0.6,0.9,0.4,1.4C105.7,76.8,105.4,77,105,77z"/>
	<path class="st4" d="M45.2,80.6c-0.2,0-0.3,0-0.5-0.1l-22-12.8c-0.5-0.2-0.7-0.8-0.4-1.3s0.8-0.7,1.3-0.4c0,0,0.1,0,0.1,0.1
		l22,12.8c0.5,0.3,0.6,0.9,0.4,1.4C45.9,80.4,45.6,80.6,45.2,80.6L45.2,80.6z"/>
	<polygon class="st2" points="45.5,79.4 49.3,69.5 59.8,62.5 61.6,54.2 70.6,49.1 74.3,37.2 96.2,49.9 	"/>
	<path class="st4" d="M45.2,80.6c-0.6,0-1-0.5-1-1c0-0.4,0.2-0.7,0.5-0.9l54-31.4c0.5-0.3,1.1-0.1,1.4,0.3s0.1,1.1-0.3,1.4l0,0
		l-54,31.4C45.6,80.5,45.4,80.6,45.2,80.6z"/>
	<g>
		<rect class="st0" width="128" height="128"/>
	</g>
</g>
</svg>
