<?xml version="1.0" encoding="utf-8"?>
<!-- Generator: Adobe Illustrator 24.1.2, SVG Export Plug-In . SVG Version: 6.00 Build 0)  -->
<svg version="1.1" id="Layer_1" xmlns="http://www.w3.org/2000/svg" xmlns:xlink="http://www.w3.org/1999/xlink" x="0px" y="0px"
	 width="440px" height="300px" viewBox="0 0 440 300" style="enable-background:new 0 0 440 300;" xml:space="preserve">
<style type="text/css">
	.st0{fill:#4D9987;}
	.st1{fill:#E9EBDF;}
	.st2{fill:#FFFFFF;}
	.st3{fill:#0E352C;}
	.st4{fill:#27ae60;}
	.st5{fill:#C4D7D3;}
	.st6{fill:#185849;}
	.st7{fill:none;}
</style>
<g>
	<path class="st0" d="M358,156.5c-0.1,0-0.3,0-0.4-0.1c-0.1,0-0.2-0.1-0.3-0.2c-0.3-0.3-0.4-0.7-0.2-1.1c0-0.1,0.1-0.2,0.2-0.3
		c0.2-0.2,0.6-0.3,0.9-0.3c0.1,0,0.1,0,0.2,0.1c0.1,0,0.1,0.1,0.2,0.1c0,0,0.1,0.1,0.1,0.1c0.2,0.2,0.3,0.4,0.3,0.7
		C359,156.1,358.6,156.5,358,156.5L358,156.5z"/>
	<path class="st0" d="M352.4,153.4c-0.5-0.3-0.6-0.9-0.4-1.4l0,0c0.3-0.5,0.9-0.6,1.4-0.4l0,0c0.5,0.3,0.6,0.9,0.4,1.4l0,0
		c-0.2,0.3-0.5,0.5-0.9,0.5l0,0C352.7,153.6,352.5,153.5,352.4,153.4z M347.2,150.4c-0.5-0.3-0.6-0.9-0.4-1.4c0,0,0,0,0,0l0,0
		c0.3-0.5,0.9-0.6,1.4-0.4c0,0,0,0,0,0l0,0c0.5,0.3,0.6,0.9,0.4,1.4l0,0c-0.2,0.3-0.5,0.5-0.9,0.5l0,0
		C347.5,150.6,347.4,150.5,347.2,150.4L347.2,150.4z M342.1,147.5c-0.5-0.3-0.6-0.9-0.4-1.4l0,0c0.3-0.5,0.9-0.6,1.4-0.4
		c0,0,0,0,0,0l0,0c0.5,0.3,0.6,0.9,0.4,1.4l0,0c-0.2,0.3-0.5,0.5-0.9,0.5l0,0C342.4,147.6,342.2,147.6,342.1,147.5L342.1,147.5z
		 M336.9,144.5c-0.5-0.3-0.6-0.9-0.4-1.4l0,0c0.3-0.5,0.9-0.6,1.4-0.4c0,0,0,0,0,0l0,0c0.5,0.3,0.6,0.9,0.4,1.4l0,0
		c-0.2,0.3-0.5,0.5-0.9,0.5l0,0C337.3,144.6,337.1,144.6,336.9,144.5L336.9,144.5z M331.8,141.5c-0.5-0.3-0.6-0.9-0.4-1.3
		c0,0,0,0,0,0l0,0c0.3-0.5,0.9-0.6,1.4-0.4l0,0c0.5,0.3,0.6,0.9,0.4,1.4l0,0c-0.2,0.3-0.5,0.5-0.9,0.5l0,0
		C332.1,141.7,331.9,141.6,331.8,141.5L331.8,141.5z M326.6,138.6c-0.5-0.3-0.6-0.9-0.4-1.4l0,0c0.3-0.5,0.9-0.6,1.4-0.4
		c0,0,0,0,0,0l0,0c0.5,0.3,0.6,0.9,0.4,1.4l0,0c-0.2,0.3-0.5,0.5-0.9,0.5l0,0C327,138.7,326.8,138.7,326.6,138.6L326.6,138.6z"/>
	<path class="st0" d="M322,135.7c-0.3,0-0.5-0.1-0.7-0.3c-0.1-0.1-0.2-0.2-0.2-0.3c-0.1-0.1-0.1-0.2-0.1-0.4c0-0.1,0-0.1,0-0.2
		c0-0.1,0-0.1,0.1-0.2c0-0.1,0.1-0.1,0.1-0.2c0-0.1,0.1-0.1,0.1-0.2c0.1-0.1,0.2-0.2,0.3-0.2c0.2-0.1,0.5-0.1,0.8,0
		c0.1,0.1,0.2,0.1,0.3,0.2l0.1,0.2c0,0.1,0.1,0.1,0.1,0.2c0,0.1,0,0.1,0.1,0.2c0,0.1,0,0.1,0,0.2c0,0.1,0,0.3-0.1,0.4
		c-0.1,0.1-0.1,0.2-0.2,0.3c-0.1,0.1-0.2,0.2-0.3,0.2C322.3,135.7,322.1,135.7,322,135.7z"/>
	<path class="st0" d="M322,202.7c-0.1,0-0.3,0-0.4-0.1c-0.1-0.1-0.2-0.1-0.3-0.2c-0.1-0.1-0.2-0.2-0.2-0.3c-0.1-0.1-0.1-0.2-0.1-0.4
		c0-0.3,0.1-0.5,0.3-0.7c0.3-0.3,0.7-0.4,1.1-0.2c0.1,0.1,0.2,0.1,0.3,0.2c0.2,0.2,0.3,0.4,0.3,0.7c0,0.1,0,0.3-0.1,0.4
		c0,0.1-0.1,0.2-0.2,0.3C322.5,202.6,322.3,202.7,322,202.7z"/>
	<path class="st0" d="M326.3,199.2c-0.3-0.5-0.1-1.1,0.3-1.4c0,0,0,0,0,0l0,0c0.5-0.3,1.1-0.1,1.4,0.4c0,0,0,0,0,0l0,0
		c0.3,0.5,0.1,1.1-0.4,1.4l0,0c-0.2,0.1-0.3,0.1-0.5,0.1l0,0C326.8,199.7,326.5,199.5,326.3,199.2z M331.4,196.3
		c-0.3-0.5-0.1-1.1,0.4-1.4c0,0,0,0,0,0l0,0c0.5-0.3,1.1-0.1,1.4,0.4c0,0,0,0,0,0l0,0c0.3,0.5,0.1,1.1-0.4,1.4c0,0,0,0,0,0l0,0
		c-0.1,0.1-0.3,0.1-0.5,0.1l0,0C331.9,196.8,331.6,196.6,331.4,196.3L331.4,196.3z M336.6,193.3c-0.3-0.5-0.1-1.1,0.4-1.4l0,0
		c0.5-0.3,1.1-0.1,1.4,0.4l0,0c0.3,0.5,0.1,1.1-0.4,1.4l0,0c-0.2,0.1-0.3,0.1-0.5,0.1l0,0C337.1,193.8,336.7,193.6,336.6,193.3z
		 M341.7,190.3c-0.3-0.5-0.1-1.1,0.4-1.4l0,0c0.5-0.3,1.1-0.1,1.4,0.4c0,0,0,0,0,0l0,0c0.3,0.5,0.1,1.1-0.4,1.4l0,0
		c-0.2,0.1-0.3,0.1-0.5,0.1l0,0C342.2,190.8,341.9,190.6,341.7,190.3z M346.9,187.4c-0.3-0.5-0.1-1.1,0.4-1.4l0,0
		c0.5-0.3,1.1-0.1,1.4,0.4l0,0c0.3,0.5,0.1,1.1-0.4,1.4c0,0,0,0,0,0l0,0c-0.1,0.1-0.3,0.1-0.5,0.1l0,0
		C347.4,187.9,347,187.7,346.9,187.4z M352,184.4c-0.3-0.5-0.1-1.1,0.4-1.4c0,0,0,0,0,0l0,0c0.5-0.3,1.1-0.1,1.4,0.4l0,0
		c0.3,0.5,0.1,1.1-0.4,1.4c0,0,0,0,0,0l0,0c-0.2,0.1-0.3,0.1-0.5,0.1l0,0C352.5,184.9,352.2,184.7,352,184.4L352,184.4z"/>
	<path class="st0" d="M358,181.9c-0.1,0-0.3,0-0.4-0.1c-0.1-0.1-0.2-0.1-0.3-0.2c-0.1-0.1-0.2-0.2-0.2-0.3c-0.1-0.1-0.1-0.2-0.1-0.4
		c0-0.3,0.1-0.5,0.3-0.7c0,0,0.1-0.1,0.1-0.1c0.1,0,0.1-0.1,0.2-0.1c0.2-0.1,0.4-0.1,0.6-0.1c0.1,0,0.1,0,0.2,0.1
		c0.1,0,0.1,0.1,0.2,0.1c0.1,0,0.1,0.1,0.1,0.1c0.2,0.2,0.3,0.4,0.3,0.7c0,0.1,0,0.3-0.1,0.4c0,0.1-0.1,0.2-0.2,0.3
		c-0.1,0.1-0.2,0.2-0.3,0.2C358.3,181.9,358.1,181.9,358,181.9z"/>
	<path class="st0" d="M242,248.9c-0.3,0-0.5-0.1-0.7-0.3c-0.1-0.1-0.2-0.2-0.2-0.3c0-0.1-0.1-0.3-0.1-0.4c0-0.1,0-0.3,0.1-0.4
		c0-0.1,0.1-0.2,0.2-0.3c0,0,0.1-0.1,0.1-0.1c0.1,0,0.1-0.1,0.2-0.1c0.1,0,0.1,0,0.2-0.1c0.2,0,0.4,0,0.6,0.1
		c0.1,0.1,0.2,0.1,0.3,0.2c0.1,0.1,0.2,0.2,0.2,0.3c0.1,0.1,0.1,0.2,0.1,0.4c0,0.3-0.1,0.5-0.3,0.7c-0.1,0.1-0.2,0.2-0.3,0.2
		C242.3,248.9,242.1,248.9,242,248.9z"/>
	<path class="st0" d="M246.3,245.4c-0.3-0.5-0.1-1.1,0.4-1.4l0,0c0.5-0.3,1.1-0.1,1.4,0.4l0,0c0.3,0.5,0.1,1.1-0.4,1.4l0,0
		c-0.2,0.1-0.3,0.1-0.5,0.1l0,0C246.8,245.9,246.5,245.7,246.3,245.4z M251.4,242.5c-0.3-0.5-0.1-1.1,0.4-1.4c0,0,0,0,0,0l0,0
		c0.5-0.3,1.1-0.1,1.4,0.3c0,0,0,0,0,0l0,0c0.3,0.5,0.1,1.1-0.4,1.4c0,0,0,0,0,0l0,0c-0.1,0.1-0.3,0.1-0.5,0.1l0,0
		C251.9,243,251.6,242.8,251.4,242.5L251.4,242.5z M256.6,239.5c-0.3-0.5-0.1-1.1,0.4-1.4l0,0c0.5-0.3,1.1-0.1,1.4,0.3c0,0,0,0,0,0
		l0,0c0.3,0.5,0.1,1.1-0.4,1.4c0,0,0,0,0,0l0,0c-0.2,0.1-0.3,0.1-0.5,0.1l0,0C257.1,240,256.7,239.8,256.6,239.5L256.6,239.5z
		 M261.7,236.5c-0.3-0.5-0.1-1.1,0.4-1.4l0,0c0.5-0.3,1.1-0.1,1.4,0.4c0,0,0,0,0,0l0,0c0.3,0.5,0.1,1.1-0.4,1.4l0,0
		c-0.2,0.1-0.3,0.1-0.5,0.1l0,0C262.2,237,261.9,236.8,261.7,236.5L261.7,236.5z M266.9,233.5c-0.3-0.5-0.1-1.1,0.3-1.3c0,0,0,0,0,0
		l0,0c0.5-0.3,1.1-0.1,1.4,0.4c0,0,0,0,0,0l0,0c0.3,0.5,0.1,1.1-0.4,1.4c0,0,0,0,0,0l0,0c-0.2,0.1-0.3,0.1-0.5,0.1l0,0
		C267.4,234,267,233.9,266.9,233.5L266.9,233.5z M272,230.6c-0.3-0.5-0.1-1.1,0.4-1.4l0,0c0.5-0.3,1.1-0.1,1.4,0.3c0,0,0,0,0,0l0,0
		c0.3,0.5,0.1,1.1-0.4,1.4l0,0c-0.2,0.1-0.3,0.1-0.5,0.1l0,0C272.5,231.1,272.2,230.9,272,230.6L272,230.6z"/>
	<path class="st0" d="M278,228.1c-0.1,0-0.3,0-0.4-0.1c-0.1,0-0.2-0.1-0.3-0.2c-0.2-0.2-0.3-0.4-0.3-0.7c0-0.6,0.4-1,1-1
		c0.1,0,0.1,0,0.2,0l0.2,0.1c0.1,0,0.1,0.1,0.2,0.1c0.1,0,0.1,0.1,0.1,0.1c0.2,0.2,0.3,0.4,0.3,0.7c0,0.1,0,0.3-0.1,0.4
		c0,0.1-0.1,0.2-0.2,0.3C278.5,228,278.3,228.1,278,228.1L278,228.1z"/>
	<path class="st0" d="M162,228.1c-0.1,0-0.3,0-0.4-0.1c-0.1,0-0.2-0.1-0.3-0.2c-0.1-0.1-0.2-0.2-0.2-0.3c-0.1-0.1-0.1-0.2-0.1-0.4
		c0-0.3,0.1-0.5,0.3-0.7c0,0,0.1-0.1,0.1-0.1c0.1,0,0.1-0.1,0.2-0.1l0.2-0.1c0.3-0.1,0.7,0,0.9,0.3c0.2,0.2,0.3,0.4,0.3,0.7
		c0,0.3-0.1,0.5-0.3,0.7C162.5,228,162.3,228.1,162,228.1L162,228.1z"/>
	<path class="st0" d="M192.4,245.8c-0.5-0.3-0.6-0.9-0.4-1.3c0,0,0,0,0,0l0,0c0.3-0.5,0.9-0.6,1.4-0.4l0,0c0.5,0.3,0.6,0.9,0.4,1.4
		c0,0,0,0,0,0l0,0c-0.2,0.3-0.5,0.5-0.9,0.5l0,0C192.7,245.9,192.5,245.9,192.4,245.8z M187.2,242.8c-0.5-0.3-0.6-0.9-0.4-1.4
		c0,0,0,0,0,0l0,0c0.3-0.5,0.9-0.6,1.4-0.4l0,0c0.5,0.3,0.6,0.9,0.4,1.4c0,0,0,0,0,0l0,0c-0.2,0.3-0.5,0.5-0.9,0.5l0,0
		C187.5,243,187.4,242.9,187.2,242.8L187.2,242.8z M182.1,239.9c-0.5-0.3-0.6-0.9-0.4-1.4l0,0c0.3-0.5,0.9-0.6,1.4-0.4c0,0,0,0,0,0
		l0,0c0.5,0.3,0.6,0.9,0.4,1.4c0,0,0,0,0,0l0,0c-0.2,0.3-0.5,0.5-0.9,0.5l0,0C182.4,240,182.2,239.9,182.1,239.9L182.1,239.9z
		 M176.9,236.9c-0.5-0.3-0.6-0.9-0.4-1.4c0,0,0,0,0,0l0,0c0.3-0.5,0.9-0.6,1.4-0.4c0,0,0,0,0,0l0,0c0.5,0.3,0.6,0.9,0.4,1.3
		c0,0,0,0,0,0l0,0c-0.2,0.3-0.5,0.5-0.9,0.5l0,0C177.3,237,177.1,237,176.9,236.9z M171.8,233.9c-0.5-0.3-0.6-0.9-0.4-1.4l0,0
		c0.3-0.5,0.9-0.6,1.4-0.4l0,0c0.5,0.3,0.6,0.9,0.4,1.3c0,0,0,0,0,0l0,0c-0.2,0.3-0.5,0.5-0.9,0.5l0,0
		C172.1,234.1,171.9,234,171.8,233.9z M166.6,230.9c-0.5-0.3-0.6-0.9-0.4-1.4c0,0,0,0,0,0l0,0c0.3-0.5,0.9-0.6,1.4-0.4c0,0,0,0,0,0
		l0,0c0.5,0.3,0.6,0.9,0.4,1.3c0,0,0,0,0,0l0,0c-0.2,0.3-0.5,0.5-0.9,0.5l0,0C167,231.1,166.8,231,166.6,230.9z"/>
	<path class="st0" d="M198,248.9c-0.3,0-0.5-0.1-0.7-0.3c-0.2-0.2-0.3-0.4-0.3-0.7c0-0.1,0-0.3,0.1-0.4c0-0.1,0.1-0.2,0.2-0.3
		c0.1-0.1,0.2-0.2,0.3-0.2c0.2-0.1,0.4-0.1,0.6-0.1c0.1,0,0.1,0,0.2,0.1c0.1,0,0.1,0.1,0.2,0.1c0,0,0.1,0.1,0.1,0.1
		c0.1,0.1,0.2,0.2,0.2,0.3c0.1,0.1,0.1,0.2,0.1,0.4c0,0.1,0,0.3-0.1,0.4c-0.1,0.1-0.1,0.2-0.2,0.3
		C198.5,248.8,198.3,248.9,198,248.9z"/>
	<path class="st0" d="M82,181.9c-0.3,0-0.5-0.1-0.7-0.3c-0.1-0.1-0.2-0.2-0.2-0.3c-0.1-0.1-0.1-0.2-0.1-0.4c0-0.3,0.1-0.5,0.3-0.7
		c0,0,0.1-0.1,0.1-0.1c0.1,0,0.1-0.1,0.2-0.1c0.2-0.1,0.4-0.1,0.6-0.1c0.1,0,0.1,0,0.2,0.1c0.1,0,0.1,0.1,0.2,0.1
		c0.1,0,0.1,0.1,0.2,0.1c0.2,0.2,0.3,0.4,0.3,0.7c0,0.1,0,0.3-0.1,0.4c0,0.1-0.1,0.2-0.2,0.3c-0.1,0.1-0.2,0.2-0.3,0.2
		C82.3,181.9,82.1,181.9,82,181.9z"/>
	<path class="st0" d="M112.4,199.6c-0.5-0.3-0.6-0.9-0.4-1.4c0,0,0,0,0,0l0,0c0.3-0.5,0.9-0.6,1.4-0.4l0,0c0.5,0.3,0.6,0.9,0.4,1.4
		c0,0,0,0,0,0l0,0c-0.2,0.3-0.5,0.5-0.9,0.5l0,0C112.7,199.7,112.5,199.7,112.4,199.6z M107.2,196.6c-0.5-0.3-0.6-0.9-0.4-1.4
		c0,0,0,0,0,0l0,0c0.3-0.5,0.9-0.6,1.3-0.4c0,0,0,0,0,0l0,0c0.5,0.3,0.6,0.9,0.4,1.3c0,0,0,0,0,0l0,0c-0.2,0.3-0.5,0.5-0.9,0.5l0,0
		C107.5,196.8,107.4,196.7,107.2,196.6z M102.1,193.7c-0.5-0.3-0.6-0.9-0.4-1.4l0,0c0.3-0.5,0.9-0.6,1.4-0.4l0,0
		c0.5,0.3,0.6,0.9,0.4,1.4l0,0c-0.2,0.3-0.5,0.5-0.9,0.5l0,0C102.4,193.8,102.2,193.8,102.1,193.7z M96.9,190.7
		c-0.5-0.3-0.6-0.9-0.4-1.4c0,0,0,0,0,0l0,0c0.3-0.5,0.9-0.6,1.4-0.4c0,0,0,0,0,0l0,0c0.5,0.3,0.6,0.9,0.4,1.4c0,0,0,0,0,0l0,0
		c-0.2,0.3-0.5,0.5-0.9,0.5l0,0C97.3,190.8,97.1,190.8,96.9,190.7z M91.8,187.7c-0.5-0.3-0.6-0.9-0.4-1.4l0,0
		c0.3-0.5,0.9-0.6,1.3-0.4c0,0,0,0,0,0l0,0c0.5,0.3,0.6,0.9,0.4,1.3c0,0,0,0,0,0l0,0c-0.2,0.3-0.5,0.5-0.9,0.5l0,0
		C92.1,187.9,91.9,187.8,91.8,187.7z M86.6,184.8c-0.5-0.3-0.6-0.9-0.4-1.3c0,0,0,0,0,0l0,0c0.3-0.5,0.9-0.6,1.3-0.4c0,0,0,0,0,0
		l0,0c0.5,0.3,0.6,0.9,0.4,1.4l0,0c-0.2,0.3-0.5,0.5-0.9,0.5l0,0C87,184.9,86.8,184.8,86.6,184.8L86.6,184.8z"/>
	<path class="st0" d="M118,202.7c-0.3,0-0.5-0.1-0.7-0.3c-0.1-0.1-0.2-0.2-0.2-0.3c-0.1-0.1-0.1-0.2-0.1-0.4c0-0.1,0-0.1,0-0.2
		c0-0.1,0-0.1,0.1-0.2c0-0.1,0.1-0.2,0.2-0.3c0.4-0.4,1-0.4,1.4,0c0.2,0.2,0.3,0.4,0.3,0.7c0,0.1,0,0.3-0.1,0.4
		c-0.1,0.1-0.1,0.2-0.2,0.3C118.5,202.6,118.3,202.7,118,202.7z"/>
	<path class="st0" d="M118,135.7c-0.1,0-0.3,0-0.4-0.1c-0.1,0-0.2-0.1-0.3-0.2c-0.1-0.1-0.2-0.2-0.2-0.3c-0.1-0.1-0.1-0.2-0.1-0.4
		c0-0.1,0-0.1,0-0.2c0-0.1,0-0.1,0.1-0.2c0-0.1,0.1-0.1,0.1-0.2c0-0.1,0.1-0.1,0.1-0.2c0.2-0.2,0.6-0.3,0.9-0.3c0.1,0,0.1,0,0.2,0.1
		c0.1,0,0.1,0.1,0.2,0.1c0.1,0,0.1,0.1,0.2,0.1l0.1,0.2c0,0.1,0.1,0.1,0.1,0.2c0,0.1,0,0.1,0.1,0.2c0,0.1,0,0.1,0,0.2
		c0,0.1,0,0.3-0.1,0.4c-0.1,0.1-0.1,0.2-0.2,0.3C118.5,135.6,118.3,135.7,118,135.7z"/>
	<path class="st0" d="M86.3,153.1c-0.3-0.5-0.1-1.1,0.3-1.4c0,0,0,0,0,0l0,0c0.5-0.3,1.1-0.1,1.4,0.4l0,0c0.3,0.5,0.1,1.1-0.4,1.4
		l0,0c-0.2,0.1-0.3,0.1-0.5,0.1l0,0C86.8,153.5,86.5,153.4,86.3,153.1z M91.4,150.1c-0.3-0.5-0.1-1.1,0.4-1.4l0,0
		c0.5-0.3,1.1-0.1,1.4,0.4c0,0,0,0,0,0l0,0c0.3,0.5,0.1,1.1-0.4,1.4c0,0,0,0,0,0l0,0c-0.1,0.1-0.3,0.1-0.5,0.1l0,0
		C91.9,150.6,91.6,150.4,91.4,150.1z M96.6,147.1c-0.3-0.5-0.1-1.1,0.4-1.4l0,0c0.5-0.3,1.1-0.1,1.4,0.4c0,0,0,0,0,0l0,0
		c0.3,0.5,0.1,1.1-0.4,1.4c0,0,0,0,0,0l0,0c-0.2,0.1-0.3,0.1-0.5,0.1l0,0C97.1,147.6,96.7,147.4,96.6,147.1L96.6,147.1z
		 M101.7,144.1c-0.3-0.5-0.1-1.1,0.4-1.4c0,0,0,0,0,0l0,0c0.5-0.3,1.1-0.1,1.4,0.4c0,0,0,0,0,0l0,0c0.3,0.5,0.1,1.1-0.4,1.4l0,0
		c-0.2,0.1-0.3,0.1-0.5,0.1l0,0C102.2,144.6,101.9,144.5,101.7,144.1z M106.8,141.2c-0.3-0.5-0.1-1.1,0.3-1.4c0,0,0,0,0,0l0,0
		c0.5-0.3,1.1-0.1,1.4,0.4l0,0c0.3,0.5,0.1,1.1-0.4,1.4c0,0,0,0,0,0l0,0c-0.2,0.1-0.3,0.1-0.5,0.1l0,0
		C107.4,141.7,107,141.5,106.8,141.2L106.8,141.2z M112,138.2c-0.3-0.5-0.1-1.1,0.4-1.4c0,0,0,0,0,0l0,0c0.5-0.3,1.1-0.1,1.4,0.4
		l0,0c0.3,0.5,0.1,1.1-0.4,1.4c0,0,0,0,0,0l0,0c-0.2,0.1-0.3,0.1-0.5,0.1l0,0C112.5,138.7,112.2,138.5,112,138.2z"/>
	<path class="st0" d="M82,156.5c-0.6,0-1-0.4-1-1c0-0.1,0-0.3,0.1-0.4c0-0.1,0.1-0.2,0.2-0.3c0.1,0,0.1-0.1,0.1-0.1
		c0.1,0,0.1-0.1,0.2-0.1c0.1,0,0.1,0,0.2-0.1c0.2,0,0.4,0,0.6,0.1c0.2,0.1,0.4,0.3,0.5,0.5c0.1,0.1,0.1,0.2,0.1,0.4
		c0,0.1,0,0.3-0.1,0.4c0,0.1-0.1,0.2-0.2,0.3C82.5,156.4,82.3,156.5,82,156.5z"/>
	<polygon class="st1" points="242.1,261.5 220,274.2 220,259.8 242.1,247.1 	"/>
	<path class="st0" d="M220,275.2c-0.6,0-1-0.4-1-1v-14.4c0-0.4,0.2-0.7,0.5-0.9l22.1-12.7c0.5-0.3,1.1-0.1,1.4,0.4
		c0.1,0.2,0.1,0.3,0.1,0.5v14.4c0,0.4-0.2,0.7-0.5,0.9l-22.1,12.7C220.3,275.2,220.2,275.2,220,275.2z M221,260.4v12.1l20.1-11.6
		v-12.1L221,260.4z"/>
	<polygon class="st2" points="242.1,247.1 220,234.4 220,234.4 197.9,247.1 197.9,247.1 197.9,247.1 220,259.8 220,259.8 	"/>
	<path class="st0" d="M220,260.8c-0.2,0-0.3,0-0.5-0.1L197.4,248c-0.5-0.3-0.6-0.9-0.4-1.4c0.1-0.2,0.2-0.3,0.4-0.4l22.1-12.7
		c0.3-0.2,0.7-0.2,1,0l22.1,12.7c0.5,0.3,0.6,0.9,0.4,1.4c-0.1,0.2-0.2,0.3-0.4,0.4l-22.1,12.7C220.3,260.8,220.2,260.8,220,260.8z
		 M199.9,247.1l20.1,11.6l20.1-11.6L220,235.5L199.9,247.1z"/>
	<polygon class="st2" points="197.9,261.5 220,274.2 220,259.8 197.9,247.1 	"/>
	<path class="st0" d="M220,275.2c-0.2,0-0.3,0-0.5-0.1l-22.1-12.7c-0.3-0.2-0.5-0.5-0.5-0.9v-14.4c0-0.6,0.4-1,1-1
		c0.2,0,0.3,0,0.5,0.1l22.1,12.7c0.3,0.2,0.5,0.5,0.5,0.9v14.4C221,274.8,220.6,275.2,220,275.2z M198.9,260.9l20.1,11.6v-12.1
		l-20.1-11.6V260.9z"/>
	<path class="st3" d="M220,275.2c-0.2,0-0.3,0-0.5-0.1l-22.1-12.7c-0.3-0.2-0.5-0.5-0.5-0.9v-14.4c0-0.4,0.2-0.7,0.5-0.9l22.1-12.7
		c0.3-0.2,0.7-0.2,1,0l22.1,12.7c0.3,0.2,0.5,0.5,0.5,0.9v14.4c0,0.4-0.2,0.7-0.5,0.9l-22.1,12.7C220.3,275.2,220.2,275.2,220,275.2
		z M198.9,260.9l21.1,12.2l21.1-12.2v-13.2L220,235.5l-21.1,12.2V260.9z"/>
	<path class="st0" d="M220,252.8c-0.6,0-1-0.4-1-1v-9.4c0-0.6,0.4-1,1-1s1,0.4,1,1v9.4C221,252.3,220.6,252.8,220,252.8z"/>
	<path class="st0" d="M228.1,248.1h-16.2c-0.6,0-1-0.4-1-1s0.4-1,1-1h16.2c0.6,0,1,0.4,1,1S228.7,248.1,228.1,248.1L228.1,248.1z"/>
	<polygon class="st1" points="322,214.4 300,227.1 300,212.7 322,200 	"/>
	<path class="st0" d="M300,228.1c-0.6,0-1-0.4-1-1v-14.4c0-0.4,0.2-0.7,0.5-0.9l22-12.7c0.5-0.3,1.1-0.1,1.4,0.4
		c0.1,0.2,0.1,0.3,0.1,0.5v14.4c0,0.4-0.2,0.7-0.5,0.9l-22,12.7C300.3,228.1,300.2,228.1,300,228.1z M301,213.3v12.1l20-11.6v-12.1
		L301,213.3z"/>
	<polygon class="st2" points="322,200 300,187.3 300,187.3 278,200 278,200 278,200 300,212.7 300,212.7 	"/>
	<path class="st0" d="M300,213.7c-0.2,0-0.3,0-0.5-0.1l-22-12.7c-0.5-0.3-0.6-0.9-0.4-1.4c0.1-0.2,0.2-0.3,0.4-0.4l22-12.7
		c0.3-0.2,0.7-0.2,1,0l22,12.7c0.5,0.3,0.6,0.9,0.4,1.4c-0.1,0.2-0.2,0.3-0.4,0.4l-22,12.7C300.3,213.7,300.2,213.7,300,213.7z
		 M280,200l20,11.6l20-11.6l-20-11.6L280,200z"/>
	<polygon class="st2" points="278,214.4 300,227.1 300,212.7 278,200 	"/>
	<path class="st0" d="M300,228.1c-0.2,0-0.3,0-0.5-0.1l-22-12.7c-0.3-0.2-0.5-0.5-0.5-0.9V200c0-0.6,0.4-1,1-1c0.2,0,0.3,0,0.5,0.1
		l22,12.7c0.3,0.2,0.5,0.5,0.5,0.9v14.4C301,227.7,300.6,228.1,300,228.1L300,228.1z M279,213.8l20,11.6v-12.1l-20-11.6V213.8z"/>
	<path class="st3" d="M300,228.1c-0.2,0-0.3,0-0.5-0.1l-22-12.7c-0.3-0.2-0.5-0.5-0.5-0.9V200c0-0.4,0.2-0.7,0.5-0.9l22-12.7
		c0.3-0.2,0.7-0.2,1,0l22,12.7c0.3,0.2,0.5,0.5,0.5,0.9v14.4c0,0.4-0.2,0.7-0.5,0.9l-22,12.7C300.3,228.1,300.2,228.1,300,228.1z
		 M279,213.8l21,12.2l21-12.2v-13.2l-21-12.2l-21,12.2V213.8z"/>
	<path class="st0" d="M300,206.2c-0.2,0-0.3,0-0.5-0.1l-9-5.2c-0.5-0.3-0.6-0.9-0.4-1.4c0.1-0.2,0.2-0.3,0.4-0.4l9-5.2
		c0.3-0.2,0.7-0.2,1,0l9,5.2c0.5,0.3,0.6,0.9,0.4,1.4c-0.1,0.2-0.2,0.3-0.4,0.4l-9,5.2C300.3,206.2,300.2,206.2,300,206.2z M293,200
		l7,4l7-4l-7-4L293,200z"/>
	<polygon class="st1" points="162.1,122 140,134.8 140,120.4 162.1,107.6 	"/>
	<path class="st0" d="M140,135.8c-0.6,0-1-0.4-1-1v-14.4c0-0.4,0.2-0.7,0.5-0.9l22.1-12.7c0.5-0.3,1.1-0.1,1.4,0.4
		c0.1,0.2,0.1,0.3,0.1,0.5V122c0,0.4-0.2,0.7-0.5,0.9l-22.1,12.7C140.3,135.7,140.2,135.8,140,135.8z M141,120.9V133l20.1-11.6
		v-12.1L141,120.9z"/>
	<polygon class="st2" points="162.1,107.6 140,94.9 140,94.9 117.9,107.6 117.9,107.6 117.9,107.6 140,120.4 140,120.4 	"/>
	<path class="st0" d="M140,121.4c-0.2,0-0.3,0-0.5-0.1l-22.1-12.7c-0.5-0.3-0.6-0.9-0.4-1.4c0.1-0.2,0.2-0.3,0.4-0.4L139.5,94
		c0.3-0.2,0.7-0.2,1,0l22.1,12.7c0.5,0.3,0.6,0.9,0.4,1.4c-0.1,0.2-0.2,0.3-0.4,0.4l-22.1,12.7C140.3,121.3,140.2,121.4,140,121.4z
		 M119.9,107.6l20.1,11.6l20.1-11.6L140,96.1L119.9,107.6z"/>
	<polygon class="st2" points="117.9,122 140,134.8 140,120.4 117.9,107.6 	"/>
	<path class="st0" d="M140,135.8c-0.2,0-0.3,0-0.5-0.1l-22.1-12.7c-0.3-0.2-0.5-0.5-0.5-0.9v-14.4c0-0.6,0.4-1,1-1
		c0.2,0,0.3,0,0.5,0.1l22.1,12.7c0.3,0.2,0.5,0.5,0.5,0.9v14.4C141,135.3,140.6,135.8,140,135.8L140,135.8z M118.9,121.5L139,133
		v-12.1l-20.1-11.6V121.5z"/>
	<path class="st3" d="M140,135.8c-0.2,0-0.3,0-0.5-0.1l-22.1-12.7c-0.3-0.2-0.5-0.5-0.5-0.9v-14.4c0-0.4,0.2-0.7,0.5-0.9L139.5,94
		c0.3-0.2,0.7-0.2,1,0l22.1,12.7c0.3,0.2,0.5,0.5,0.5,0.9V122c0,0.4-0.2,0.7-0.5,0.9l-22.1,12.7C140.3,135.7,140.2,135.8,140,135.8z
		 M118.9,121.5l21.1,12.2l21.1-12.2v-13.2L140,96.1l-21.1,12.2V121.5z"/>
	<path class="st0" d="M145.5,111.8h-11c-0.6,0-1-0.4-1-1v-6.3c0-0.6,0.4-1,1-1h11c0.6,0,1,0.4,1,1v6.3
		C146.5,111.4,146.1,111.8,145.5,111.8z M135.5,109.8h9v-4.3h-9V109.8z"/>
	<polygon class="st1" points="402,168.2 380,181 380,166.6 402,153.8 	"/>
	<path class="st0" d="M380,182c-0.6,0-1-0.4-1-1v-14.4c0-0.4,0.2-0.7,0.5-0.9l22-12.7c0.5-0.3,1.1-0.1,1.4,0.4
		c0.1,0.2,0.1,0.3,0.1,0.5v14.4c0,0.4-0.2,0.7-0.5,0.9l-22,12.7C380.3,181.9,380.2,182,380,182z M381,167.1v12.1l20-11.6v-12.1
		L381,167.1z"/>
	<polygon class="st2" points="402,153.8 380,141.1 380,141.1 358,153.8 358,153.8 358,153.8 380,166.6 380,166.6 	"/>
	<path class="st0" d="M380,167.6c-0.2,0-0.3,0-0.5-0.1l-22-12.7c-0.5-0.3-0.6-0.9-0.4-1.4c0.1-0.2,0.2-0.3,0.4-0.4l22-12.7
		c0.3-0.2,0.7-0.2,1,0l22,12.7c0.5,0.3,0.6,0.9,0.4,1.4c-0.1,0.2-0.2,0.3-0.4,0.4l-22,12.7C380.3,167.5,380.2,167.6,380,167.6z
		 M360,153.8l20,11.6l20-11.6l-20-11.6L360,153.8z"/>
	<polygon class="st2" points="358,168.2 380,181 380,166.6 358,153.8 	"/>
	<path class="st0" d="M380,182c-0.2,0-0.3,0-0.5-0.1l-22-12.7c-0.3-0.2-0.5-0.5-0.5-0.9v-14.4c0-0.6,0.4-1,1-1c0.2,0,0.3,0,0.5,0.1
		l22,12.7c0.3,0.2,0.5,0.5,0.5,0.9V181C381,181.5,380.6,182,380,182z M359,167.6l20,11.6v-12.1l-20-11.6V167.6z"/>
	<path class="st3" d="M380,182c-0.2,0-0.3,0-0.5-0.1l-22-12.7c-0.3-0.2-0.5-0.5-0.5-0.9v-14.4c0-0.4,0.2-0.7,0.5-0.9l22-12.7
		c0.3-0.2,0.7-0.2,1,0l22,12.7c0.3,0.2,0.5,0.5,0.5,0.9v14.4c0,0.4-0.2,0.7-0.5,0.9l-22,12.7C380.3,181.9,380.2,182,380,182z
		 M359,167.6l21,12.2l21-12.2v-13.2l-21-12.2l-21,12.2V167.6z"/>
	<path class="st0" d="M377.9,159.4c-0.2,0-0.3,0-0.5-0.1l-5.9-3.4c-0.4-0.3-0.6-0.8-0.4-1.3l2.1-4.6c0.1-0.3,0.4-0.5,0.8-0.6l8-1.2
		c0.2,0,0.5,0,0.7,0.1l5.9,3.4c0.4,0.3,0.6,0.8,0.4,1.3l-2.1,4.6c-0.1,0.3-0.4,0.5-0.8,0.6l-8,1.2
		C378,159.4,377.9,159.4,377.9,159.4z M373.3,154.7l4.8,2.7l7.1-1.1l1.5-3.3l-4.8-2.7l-7.1,1.1L373.3,154.7z"/>
	<polygon class="st1" points="322,122 300,134.8 300,120.4 322,107.6 	"/>
	<path class="st0" d="M300,135.8c-0.6,0-1-0.4-1-1v-14.4c0-0.4,0.2-0.7,0.5-0.9l22-12.7c0.5-0.3,1.1-0.1,1.4,0.4
		c0.1,0.2,0.1,0.3,0.1,0.5V122c0,0.4-0.2,0.7-0.5,0.9l-22,12.7C300.3,135.7,300.2,135.8,300,135.8z M301,120.9V133l20-11.6v-12.1
		L301,120.9z"/>
	<polygon class="st2" points="322,107.6 300,94.9 300,94.9 278,107.6 278,107.6 278,107.6 300,120.4 300,120.4 	"/>
	<path class="st0" d="M300,121.4c-0.2,0-0.3,0-0.5-0.1l-22-12.7c-0.5-0.3-0.6-0.9-0.4-1.4c0.1-0.2,0.2-0.3,0.4-0.4l22-12.7
		c0.3-0.2,0.7-0.2,1,0l22,12.7c0.5,0.3,0.6,0.9,0.4,1.4c-0.1,0.2-0.2,0.3-0.4,0.4l-22,12.7C300.3,121.3,300.2,121.4,300,121.4z
		 M280,107.6l20,11.6l20-11.6l-20-11.6L280,107.6z"/>
	<polygon class="st2" points="278,122 300,134.8 300,120.4 278,107.6 	"/>
	<path class="st0" d="M300,135.8c-0.2,0-0.3,0-0.5-0.1l-22-12.7c-0.3-0.2-0.5-0.5-0.5-0.9v-14.4c0-0.6,0.4-1,1-1
		c0.2,0,0.3,0,0.5,0.1l22,12.7c0.3,0.2,0.5,0.5,0.5,0.9v14.4C301,135.3,300.6,135.8,300,135.8L300,135.8z M279,121.5l20,11.6v-12.1
		l-20-11.6V121.5z"/>
	<path class="st3" d="M300,135.8c-0.2,0-0.3,0-0.5-0.1l-22-12.7c-0.3-0.2-0.5-0.5-0.5-0.9v-14.4c0-0.4,0.2-0.7,0.5-0.9l22-12.7
		c0.3-0.2,0.7-0.2,1,0l22,12.7c0.3,0.2,0.5,0.5,0.5,0.9V122c0,0.4-0.2,0.7-0.5,0.9l-22,12.7C300.3,135.7,300.2,135.8,300,135.8z
		 M279,121.5l21,12.2l21-12.2v-13.2l-21-12.2l-21,12.2V121.5z"/>
	<path class="st0" d="M294.3,111.9c-0.6,0-1-0.4-1-1c0-0.4,0.2-0.7,0.5-0.9l11.2-6.5c0.5-0.3,1.1-0.1,1.4,0.4
		c0.3,0.5,0.1,1.1-0.4,1.4l-11.2,6.5C294.6,111.9,294.4,111.9,294.3,111.9z"/>
	<path class="st0" d="M305.5,111.9c-0.2,0-0.3,0-0.5-0.1l-11.2-6.5c-0.5-0.3-0.6-0.9-0.4-1.4c0.3-0.5,0.9-0.6,1.4-0.4l11.2,6.5
		c0.5,0.3,0.6,0.9,0.4,1.4C306.2,111.8,305.8,111.9,305.5,111.9z"/>
	<polygon class="st2" points="242.1,38.5 220,25.8 220,25.8 197.9,38.5 197.9,38.5 197.9,38.5 220,51.2 220,51.2 	"/>
	<path class="st4" d="M220,52.2c-0.2,0-0.3,0-0.5-0.1l-22.1-12.7c-0.5-0.3-0.6-0.9-0.4-1.4c0.1-0.2,0.2-0.3,0.4-0.4l22.1-12.7
		c0.3-0.2,0.7-0.2,1,0l22.1,12.7c0.5,0.3,0.6,0.9,0.4,1.4c-0.1,0.2-0.2,0.3-0.4,0.4l-22.1,12.7C220.3,52.2,220.2,52.2,220,52.2z
		 M199.9,38.5L220,50.1l20.1-11.6L220,26.9L199.9,38.5z"/>
	<polygon class="st5" points="242.1,52.9 220,65.6 220,51.2 242.1,38.5 	"/>
	<path class="st4" d="M220,66.6c-0.6,0-1-0.4-1-1V51.2c0-0.4,0.2-0.7,0.5-0.9l22.1-12.7c0.5-0.3,1.1-0.1,1.4,0.4
		c0.1,0.2,0.1,0.3,0.1,0.5v14.4c0,0.4-0.2,0.7-0.5,0.9l-22.1,12.7C220.3,66.6,220.2,66.6,220,66.6z M221,51.8v12.1l20.1-11.6V40.2
		L221,51.8z"/>
	<polygon class="st5" points="197.9,52.9 220,65.6 220,51.2 197.9,38.5 	"/>
	<path class="st4" d="M220,66.6c-0.2,0-0.3,0-0.5-0.1l-22.1-12.7c-0.3-0.2-0.5-0.5-0.5-0.9V38.5c0-0.6,0.4-1,1-1
		c0.2,0,0.3,0,0.5,0.1l22.1,12.7c0.3,0.2,0.5,0.5,0.5,0.9v14.4C221,66.2,220.6,66.6,220,66.6L220,66.6z M198.9,52.3L219,63.9V51.8
		l-20.1-11.6V52.3z"/>
	<path class="st6" d="M220,66.6c-0.2,0-0.3,0-0.5-0.1l-22.1-12.7c-0.3-0.2-0.5-0.5-0.5-0.9V38.5c0-0.4,0.2-0.7,0.5-0.9l22.1-12.7
		c0.3-0.2,0.7-0.2,1,0l22.1,12.7c0.3,0.2,0.5,0.5,0.5,0.9v14.4c0,0.4-0.2,0.7-0.5,0.9l-22.1,12.7C220.3,66.6,220.2,66.6,220,66.6z
		 M198.9,52.3L220,64.5l21.1-12.2V39.1L220,26.9l-21.1,12.2V52.3z"/>
	<polygon class="st2" points="233.5,175.8 220,168 206.5,175.8 220,183.5 	"/>
	<path class="st3" d="M220,184.5c-0.2,0-0.3,0-0.5-0.1l-13.5-7.8c-0.5-0.3-0.6-0.9-0.4-1.4c0.1-0.2,0.2-0.3,0.4-0.4l13.5-7.8
		c0.3-0.2,0.7-0.2,1,0l13.5,7.8c0.5,0.3,0.6,0.9,0.4,1.4c-0.1,0.2-0.2,0.3-0.4,0.4l-13.5,7.8C220.3,184.5,220.2,184.5,220,184.5z
		 M208.5,175.8l11.5,6.6l11.5-6.6l-11.5-6.6L208.5,175.8z"/>
	<polygon class="st2" points="233.5,175.8 220,168 206.5,175.8 220,183.5 	"/>
	<path class="st3" d="M220,184.5c-0.2,0-0.3,0-0.5-0.1l-13.5-7.8c-0.5-0.3-0.6-0.9-0.4-1.4c0.1-0.2,0.2-0.3,0.4-0.4l13.5-7.8
		c0.3-0.2,0.7-0.2,1,0l13.5,7.8c0.5,0.3,0.6,0.9,0.4,1.4c-0.1,0.2-0.2,0.3-0.4,0.4l-13.5,7.8C220.3,184.5,220.2,184.5,220,184.5z
		 M208.5,175.8l11.5,6.6l11.5-6.6l-11.5-6.6L208.5,175.8z"/>
	<polygon class="st2" points="233.5,175.8 220,168 206.5,175.8 220,183.5 	"/>
	<path class="st3" d="M220,184.5c-0.2,0-0.3,0-0.5-0.1l-13.5-7.8c-0.5-0.3-0.6-0.9-0.4-1.4c0.1-0.2,0.2-0.3,0.4-0.4l13.5-7.8
		c0.3-0.2,0.7-0.2,1,0l13.5,7.8c0.5,0.3,0.6,0.9,0.4,1.4c-0.1,0.2-0.2,0.3-0.4,0.4l-13.5,7.8C220.3,184.5,220.2,184.5,220,184.5z
		 M208.5,175.8l11.5,6.6l11.5-6.6l-11.5-6.6L208.5,175.8z"/>
	<polygon class="st2" points="264.1,153.8 220,128.4 220,128.4 175.9,153.8 175.9,153.8 175.9,153.8 220,179.3 220,179.3 	"/>
	<path class="st4" d="M220,180.3c-0.2,0-0.3,0-0.5-0.1l-44.1-25.5c-0.5-0.3-0.6-0.9-0.4-1.4c0.1-0.2,0.2-0.3,0.4-0.4l44.1-25.5
		c0.3-0.2,0.7-0.2,1,0l44.1,25.5c0.5,0.3,0.6,0.9,0.4,1.4c-0.1,0.2-0.2,0.3-0.4,0.4l-44.1,25.5C220.3,180.2,220.2,180.3,220,180.3z
		 M177.9,153.8l42.1,24.3l42.1-24.3L220,129.5L177.9,153.8z"/>
	<polygon class="st5" points="264.1,168.2 220,193.7 220,179.3 264.1,153.8 	"/>
	<path class="st4" d="M220,194.7c-0.6,0-1-0.4-1-1v-14.4c0-0.4,0.2-0.7,0.5-0.9l44.1-25.5c0.5-0.3,1.1-0.1,1.4,0.4
		c0.1,0.2,0.1,0.3,0.1,0.5v14.4c0,0.4-0.2,0.7-0.5,0.9l-44.1,25.5C220.3,194.6,220.2,194.7,220,194.7z M221,179.9V192l42.1-24.3
		v-12.1L221,179.9z"/>
	<polygon class="st5" points="175.9,168.2 220,193.7 220,179.3 175.9,153.8 	"/>
	<path class="st4" d="M220,194.7c-0.2,0-0.3,0-0.5-0.1l-44.1-25.5c-0.3-0.2-0.5-0.5-0.5-0.9v-14.4c0-0.6,0.4-1,1-1
		c0.2,0,0.3,0,0.5,0.1l44.1,25.5c0.3,0.2,0.5,0.5,0.5,0.9v14.4C221,194.2,220.6,194.7,220,194.7L220,194.7z M176.9,167.6L219,192
		v-12.1l-42.1-24.3V167.6z"/>
	<path class="st6" d="M220,194.7c-0.2,0-0.3,0-0.5-0.1l-44.1-25.5c-0.3-0.2-0.5-0.5-0.5-0.9v-14.4c0-0.4,0.2-0.7,0.5-0.9l44.1-25.5
		c0.3-0.2,0.7-0.2,1,0l44.1,25.5c0.3,0.2,0.5,0.5,0.5,0.9v14.4c0,0.4-0.2,0.7-0.5,0.9l-44.1,25.5C220.3,194.6,220.2,194.7,220,194.7
		z M176.9,167.6l43.1,24.9l43.1-24.9v-13.2L220,129.5l-43.1,24.9V167.6z"/>
	<path class="st5" d="M207.4,154.5c-0.1,0-0.2,0-0.3-0.1l-4-2.3c-0.1-0.1-0.2-0.2-0.1-0.3c0.1-0.1,0.3-0.2,0.5-0.2l13.4,0.7
		c0.3,0,0.6-0.1,0.5-0.3l-1.1-7.8c0-0.1,0.1-0.2,0.2-0.2c0.2-0.1,0.4-0.1,0.6,0l3.8,2.2c0.1,0,0.1,0.1,0.1,0.2l1.3,8.4l0,0.1
		c0,0.1-0.2,0.2-0.4,0.2h-0.1L207.4,154.5z"/>
	<path class="st5" d="M224.4,155c0,0.1,0.2,0.2,0.4,0.3l11.6,0.6c0.1,0,0.3,0,0.4-0.1c0.1-0.1,0.1-0.2-0.1-0.3l-3.8-2.2
		c-0.1,0-0.2-0.1-0.3-0.1l-8.1-0.5c-0.3,0-0.5,0.1-0.5,0.3L224.4,155z"/>
	<path class="st5" d="M222.1,156.4c0.2,0,0.4,0.1,0.4,0.3l1.2,6.8c0,0.1-0.1,0.2-0.2,0.2c-0.2,0.1-0.4,0.1-0.6,0l-3.8-2.2
		c-0.1,0-0.1-0.1-0.1-0.2l-0.7-4.7c0-0.2,0.2-0.3,0.5-0.3L222.1,156.4z"/>
	<polygon class="st2" points="264.1,139.4 220,114 220,114 175.9,139.4 175.9,139.4 175.9,139.4 220,164.9 220,164.9 	"/>
	<path class="st4" d="M220,165.9c-0.2,0-0.3,0-0.5-0.1l-44.1-25.5c-0.5-0.3-0.6-0.9-0.4-1.4c0.1-0.2,0.2-0.3,0.4-0.4l44.1-25.5
		c0.3-0.2,0.7-0.2,1,0l44.1,25.5c0.5,0.3,0.6,0.9,0.4,1.4c-0.1,0.2-0.2,0.3-0.4,0.4l-44.1,25.5C220.3,165.8,220.2,165.9,220,165.9z
		 M177.9,139.4l42.1,24.3l42.1-24.3L220,115.1L177.9,139.4z"/>
	<polygon class="st5" points="264.1,153.8 220,179.3 220,164.9 264.1,139.4 	"/>
	<path class="st4" d="M220,180.3c-0.6,0-1-0.4-1-1v-14.4c0-0.4,0.2-0.7,0.5-0.9l44.1-25.5c0.5-0.3,1.1-0.1,1.4,0.4
		c0.1,0.2,0.1,0.3,0.1,0.5v14.4c0,0.4-0.2,0.7-0.5,0.9l-44.1,25.5C220.3,180.2,220.2,180.3,220,180.3z M221,165.5v12.1l42.1-24.3
		v-12.1L221,165.5z"/>
	<polygon class="st5" points="175.9,153.8 220,179.3 220,164.9 175.9,139.4 	"/>
	<path class="st4" d="M220,180.3c-0.2,0-0.3,0-0.5-0.1l-44.1-25.5c-0.3-0.2-0.5-0.5-0.5-0.9v-14.4c0-0.6,0.4-1,1-1
		c0.2,0,0.3,0,0.5,0.1l44.1,25.5c0.3,0.2,0.5,0.5,0.5,0.9v14.4C221,179.8,220.6,180.3,220,180.3z M176.9,153.2l42.1,24.3v-12.1
		l-42.1-24.3V153.2z"/>
	<path class="st6" d="M220,180.3c-0.2,0-0.3,0-0.5-0.1l-44.1-25.5c-0.3-0.2-0.5-0.5-0.5-0.9v-14.4c0-0.4,0.2-0.7,0.5-0.9l44.1-25.5
		c0.3-0.2,0.7-0.2,1,0l44.1,25.5c0.3,0.2,0.5,0.5,0.5,0.9v14.4c0,0.4-0.2,0.7-0.5,0.9l-44.1,25.5C220.3,180.2,220.2,180.3,220,180.3
		z M176.9,153.2l43.1,24.9l43.1-24.9V140L220,115.1L176.9,140V153.2z"/>
	<path class="st5" d="M207.4,140.1c-0.1,0-0.2,0-0.3-0.1l-4-2.3c-0.1-0.1-0.2-0.2-0.1-0.3c0.1-0.1,0.3-0.2,0.5-0.2l13.4,0.7
		c0.3,0,0.6-0.1,0.5-0.3l-1.1-7.8c0-0.1,0.1-0.2,0.2-0.2c0.2-0.1,0.4-0.1,0.6,0l3.8,2.2c0.1,0,0.1,0.1,0.1,0.2l1.3,8.4l0,0.1
		c0,0.1-0.2,0.2-0.4,0.2h-0.1L207.4,140.1z"/>
	<path class="st5" d="M224.4,140.6c0,0.1,0.2,0.2,0.4,0.3l11.6,0.6c0.1,0,0.3,0,0.4-0.1c0.1-0.1,0.1-0.2-0.1-0.3l-3.8-2.2
		c-0.1,0-0.2-0.1-0.3-0.1l-8.1-0.5c-0.3,0-0.5,0.1-0.5,0.3L224.4,140.6z"/>
	<path class="st5" d="M222.1,142c0.2,0,0.4,0.1,0.4,0.3l1.2,6.8c0,0.1-0.1,0.2-0.2,0.2c-0.2,0.1-0.4,0.1-0.6,0l-3.8-2.2
		c-0.1,0-0.1-0.1-0.1-0.2l-0.7-4.7c0-0.2,0.2-0.3,0.5-0.3L222.1,142z"/>
	<path class="st6" d="M264.1,102.6c-0.1,0-0.3,0-0.4-0.1c-0.1-0.1-0.2-0.1-0.3-0.2c-0.1-0.1-0.2-0.2-0.2-0.3
		c-0.1-0.1-0.1-0.3-0.1-0.4c0-0.3,0.1-0.5,0.3-0.7c0.2-0.2,0.6-0.3,0.9-0.3l0.2,0.1c0.1,0,0.1,0.1,0.2,0.1c0.1,0,0.1,0.1,0.2,0.1
		c0.3,0.3,0.4,0.7,0.2,1.1c0,0.1-0.1,0.2-0.2,0.3c-0.1,0.1-0.2,0.2-0.3,0.2C264.4,102.6,264.2,102.6,264.1,102.6z"/>
	<path class="st6" d="M263.1,133.1c0-0.6,0.4-1,1-1l0,0c0.6,0,1,0.4,1,1l0,0c0,0.6-0.4,1-1,1l0,0
		C263.5,134.1,263.1,133.7,263.1,133.1C263.1,133.1,263.1,133.1,263.1,133.1z M263.1,126.8c0-0.6,0.4-1,1-1l0,0c0.6,0,1,0.4,1,1l0,0
		c0,0.5-0.5,1-1,1c0,0,0,0,0,0l0,0C263.6,127.8,263.1,127.4,263.1,126.8C263.1,126.8,263.1,126.8,263.1,126.8z M263.1,120.5
		c0-0.6,0.4-1,1-1l0,0c0.6,0,1,0.4,1,1l0,0c0,0.6-0.4,1-1,1c0,0,0,0,0,0l0,0C263.5,121.5,263.1,121.1,263.1,120.5
		C263.1,120.5,263.1,120.5,263.1,120.5z M263.1,114.2c0-0.6,0.4-1,1-1l0,0c0.6,0,1,0.4,1,1l0,0c0,0.5-0.5,1-1,1l0,0
		C263.6,115.2,263.1,114.8,263.1,114.2z M263.1,107.9c0-0.6,0.4-1,1-1l0,0c0.6,0,1,0.4,1,1l0,0c0,0.6-0.4,1-1,1l0,0
		C263.5,108.9,263.1,108.5,263.1,107.9z"/>
	<path class="st6" d="M264.1,140.4c-0.1,0-0.3,0-0.4-0.1c-0.1-0.1-0.2-0.1-0.3-0.2c-0.4-0.4-0.4-1,0-1.4c0.2-0.2,0.6-0.3,0.9-0.3
		c0.1,0,0.1,0,0.2,0.1c0.1,0,0.1,0.1,0.2,0.1c0.1,0,0.1,0.1,0.2,0.1c0.1,0.1,0.2,0.2,0.2,0.3c0.2,0.5,0,1.1-0.5,1.3
		C264.4,140.4,264.2,140.4,264.1,140.4L264.1,140.4z"/>
	<path class="st6" d="M242.1,53.9c-0.3,0-0.5-0.1-0.7-0.3c-0.1-0.1-0.2-0.2-0.2-0.3c0-0.1-0.1-0.3-0.1-0.4c0-0.3,0.1-0.5,0.3-0.7
		c0.1-0.1,0.2-0.2,0.3-0.2c0.2-0.1,0.4-0.1,0.6-0.1c0.1,0,0.1,0,0.2,0.1s0.1,0.1,0.2,0.1c0.1,0,0.1,0.1,0.1,0.1
		c0.2,0.2,0.3,0.4,0.3,0.7c0,0.3-0.1,0.5-0.3,0.7C242.6,53.8,242.3,53.9,242.1,53.9z"/>
	<path class="st6" d="M241.1,69.1c0-0.6,0.4-1,1-1l0,0c0.6,0,1,0.4,1,1l0,0c0,0.5-0.5,1-1,1l0,0C241.5,70.1,241.1,69.6,241.1,69.1z
		 M241.1,63.7c0-0.6,0.4-1,1-1l0,0c0.6,0,1,0.5,1,1l0,0c0,0.6-0.4,1-1,1l0,0C241.5,64.7,241.1,64.3,241.1,63.7z M241.1,58.3
		c0-0.6,0.4-1,1-1l0,0c0.6,0,1,0.4,1,1l0,0c0,0.5-0.4,1-1,1c0,0,0,0,0,0l0,0C241.5,59.3,241.1,58.9,241.1,58.3
		C241.1,58.3,241.1,58.3,241.1,58.3z"/>
	<path class="st6" d="M242.1,75.5c-0.1,0-0.3,0-0.4-0.1c-0.1-0.1-0.2-0.1-0.3-0.2c-0.1-0.1-0.2-0.2-0.2-0.3
		c-0.1-0.1-0.1-0.3-0.1-0.4c0-0.1,0-0.3,0.1-0.4c0-0.1,0.1-0.2,0.2-0.3c0.1-0.1,0.2-0.2,0.3-0.2c0.5-0.2,1.1,0,1.3,0.5
		c0,0.1,0.1,0.2,0.1,0.4c0,0.1,0,0.3-0.1,0.4C242.8,75.3,242.5,75.5,242.1,75.5z"/>
	<path class="st6" d="M197.9,53.9c-0.5,0-1-0.4-1-1c0,0,0,0,0,0c0-0.3,0.1-0.5,0.3-0.7c0,0,0.1-0.1,0.1-0.1l0.2-0.1l0.2-0.1
		c0.2,0,0.4,0,0.6,0.1c0.1,0.1,0.2,0.1,0.3,0.2c0.2,0.2,0.3,0.4,0.3,0.7c0,0.3-0.1,0.5-0.3,0.7C198.5,53.8,198.2,53.9,197.9,53.9z"
		/>
	<path class="st6" d="M196.9,69.1c0-0.6,0.4-1,1-1l0,0c0.6,0,1,0.4,1,1l0,0c0,0.5-0.5,1-1,1l0,0C197.4,70.1,197,69.7,196.9,69.1
		C196.9,69.1,196.9,69.1,196.9,69.1z M196.9,63.7c0-0.6,0.4-1,1-1c0,0,0,0,0,0l0,0c0.6,0,1,0.5,1,1l0,0c0,0.6-0.4,1-1,1l0,0
		C197.4,64.7,196.9,64.3,196.9,63.7z M196.9,58.3c0-0.6,0.4-1,1-1l0,0c0.6,0,1,0.4,1,1l0,0c0,0.5-0.4,1-1,1c0,0,0,0,0,0l0,0
		C197.4,59.3,197,58.9,196.9,58.3C196.9,58.3,196.9,58.3,196.9,58.3z"/>
	<path class="st6" d="M197.9,75.5c-0.1,0-0.3,0-0.4-0.1c-0.1-0.1-0.2-0.1-0.3-0.2c-0.4-0.4-0.4-1,0-1.4c0.1-0.1,0.2-0.2,0.3-0.2
		c0.5-0.2,1.1,0,1.3,0.5c0,0.1,0.1,0.2,0.1,0.4c0,0.1,0,0.3-0.1,0.4c0,0.1-0.1,0.2-0.2,0.3C198.5,75.4,198.2,75.5,197.9,75.5z"/>
	<path class="st4" d="M220,44c-4.9,0-8.8-2.4-8.8-5.5s3.9-5.5,8.8-5.5s8.8,2.4,8.8,5.5S224.9,44,220,44z M220,35
		c-4,0-6.8,1.8-6.8,3.5S216,42,220,42s6.8-1.8,6.8-3.5S224,35,220,35z"/>
	<polygon class="st2" points="264.1,87.2 242.1,74.5 242.1,74.5 220,87.2 220,87.2 220,87.2 242.1,100 242.1,100 	"/>
	<path class="st4" d="M242.1,101c-0.2,0-0.3,0-0.5-0.1l-22.1-12.7c-0.5-0.3-0.6-0.9-0.4-1.4c0.1-0.2,0.2-0.3,0.4-0.4l22.1-12.7
		c0.3-0.2,0.7-0.2,1,0l22.1,12.7c0.5,0.3,0.6,0.9,0.4,1.4c-0.1,0.2-0.2,0.3-0.4,0.4l-22.1,12.7C242.4,100.9,242.2,101,242.1,101z
		 M222,87.2l20.1,11.6l20.1-11.6l-20.1-11.6L222,87.2z"/>
	<polygon class="st5" points="264.1,101.6 242.1,114.4 242.1,100 264.1,87.2 	"/>
	<path class="st4" d="M242.1,115.4c-0.6,0-1-0.4-1-1V100c0-0.4,0.2-0.7,0.5-0.9l22.1-12.7c0.5-0.3,1.1-0.1,1.4,0.4
		c0.1,0.2,0.1,0.3,0.1,0.5v14.4c0,0.4-0.2,0.7-0.5,0.9l-22.1,12.7C242.4,115.3,242.2,115.4,242.1,115.4z M243.1,100.5v12.1
		l20.1-11.6V89L243.1,100.5z"/>
	<polygon class="st5" points="220,101.6 242.1,114.4 242.1,100 220,87.2 	"/>
	<path class="st4" d="M242.1,115.4c-0.2,0-0.3,0-0.5-0.1l-22.1-12.7c-0.3-0.2-0.5-0.5-0.5-0.9V87.2c0-0.6,0.4-1,1-1
		c0.2,0,0.3,0,0.5,0.1l22.1,12.7c0.3,0.2,0.5,0.5,0.5,0.9v14.4C243.1,114.9,242.6,115.4,242.1,115.4L242.1,115.4z M221,101
		l20.1,11.6v-12.1L221,89V101z"/>
	<path class="st6" d="M242.1,115.4c-0.2,0-0.3,0-0.5-0.1l-22.1-12.7c-0.3-0.2-0.5-0.5-0.5-0.9V87.2c0-0.4,0.2-0.7,0.5-0.9l22.1-12.7
		c0.3-0.2,0.7-0.2,1,0l22.1,12.7c0.3,0.2,0.5,0.5,0.5,0.9v14.4c0,0.4-0.2,0.7-0.5,0.9l-22.1,12.7
		C242.4,115.3,242.2,115.4,242.1,115.4z M221,101l21.1,12.2l21.1-12.2V87.8l-21.1-12.2L221,87.8V101z"/>
	<path class="st4" d="M242.1,92.7c-4.9,0-8.8-2.4-8.8-5.5s3.9-5.5,8.8-5.5s8.8,2.4,8.8,5.5S247,92.7,242.1,92.7z M242.1,83.7
		c-4,0-6.8,1.8-6.8,3.5s2.8,3.5,6.8,3.5s6.8-1.8,6.8-3.5S246.1,83.7,242.1,83.7z"/>
	<polygon class="st2" points="220,87.2 197.9,74.5 197.9,74.5 175.9,87.2 175.9,87.2 175.9,87.2 197.9,100 197.9,100 	"/>
	<path class="st4" d="M197.9,101c-0.2,0-0.3,0-0.5-0.1l-22.1-12.7c-0.5-0.3-0.6-0.9-0.4-1.4c0.1-0.2,0.2-0.3,0.4-0.4l22.1-12.7
		c0.3-0.2,0.7-0.2,1,0l22.1,12.7c0.5,0.3,0.6,0.9,0.4,1.4c-0.1,0.2-0.2,0.3-0.4,0.4l-22.1,12.7C198.3,100.9,198.1,101,197.9,101z
		 M177.9,87.2l20.1,11.6L218,87.2l-20.1-11.6L177.9,87.2z"/>
	<polygon class="st5" points="220,101.6 197.9,114.4 197.9,100 220,87.2 	"/>
	<path class="st4" d="M197.9,115.4c-0.6,0-1-0.4-1-1V100c0-0.4,0.2-0.7,0.5-0.9l22.1-12.7c0.5-0.3,1.1-0.1,1.4,0.4
		c0.1,0.2,0.1,0.3,0.1,0.5v14.4c0,0.4-0.2,0.7-0.5,0.9l-22.1,12.7C198.3,115.3,198.1,115.4,197.9,115.4z M198.9,100.5v12.1L219,101
		V89L198.9,100.5z"/>
	<polygon class="st5" points="175.9,101.6 197.9,114.4 197.9,100 175.9,87.2 	"/>
	<path class="st4" d="M197.9,115.4c-0.2,0-0.3,0-0.5-0.1l-22.1-12.7c-0.3-0.2-0.5-0.5-0.5-0.9V87.2c0-0.6,0.4-1,1-1
		c0.2,0,0.3,0,0.5,0.1l22.1,12.7c0.3,0.2,0.5,0.5,0.5,0.9v14.4C198.9,114.9,198.5,115.4,197.9,115.4L197.9,115.4z M176.9,101
		l20.1,11.6v-12.1L176.9,89V101z"/>
	<path class="st6" d="M197.9,115.4c-0.2,0-0.3,0-0.5-0.1l-22.1-12.7c-0.3-0.2-0.5-0.5-0.5-0.9V87.2c0-0.4,0.2-0.7,0.5-0.9l22.1-12.7
		c0.3-0.2,0.7-0.2,1,0l22.1,12.7c0.3,0.2,0.5,0.5,0.5,0.9v14.4c0,0.4-0.2,0.7-0.5,0.9l-22.1,12.7
		C198.3,115.3,198.1,115.4,197.9,115.4z M176.9,101l21.1,12.2L219,101V87.8l-21.1-12.2l-21.1,12.2V101z"/>
	<path class="st4" d="M197.9,92.7c-4.9,0-8.8-2.4-8.8-5.5s3.9-5.5,8.8-5.5s8.8,2.4,8.8,5.5S202.9,92.7,197.9,92.7z M197.9,83.7
		c-4,0-6.8,1.8-6.8,3.5s2.8,3.5,6.8,3.5s6.8-1.8,6.8-3.5S202,83.7,197.9,83.7z"/>
	<polygon class="st2" points="242.1,100 220,87.2 220,87.2 197.9,100 197.9,100 197.9,100 220,112.7 220,112.7 	"/>
	<path class="st4" d="M220,113.7c-0.2,0-0.3,0-0.5-0.1l-22.1-12.7c-0.5-0.3-0.6-0.9-0.4-1.4c0.1-0.2,0.2-0.3,0.4-0.4l22.1-12.7
		c0.3-0.2,0.7-0.2,1,0l22.1,12.7c0.5,0.3,0.6,0.9,0.4,1.4c-0.1,0.2-0.2,0.3-0.4,0.4l-22.1,12.7C220.3,113.6,220.2,113.7,220,113.7z
		 M199.9,100l20.1,11.6l20.1-11.6L220,88.4L199.9,100z"/>
	<polygon class="st5" points="242.1,114.4 220,127.1 220,112.7 242.1,100 	"/>
	<path class="st4" d="M220,128.1c-0.6,0-1-0.4-1-1v-14.4c0-0.4,0.2-0.7,0.5-0.9l22.1-12.7c0.5-0.3,1.1-0.1,1.4,0.4
		c0.1,0.2,0.1,0.3,0.1,0.5v14.4c0,0.4-0.2,0.7-0.5,0.9L220.5,128C220.3,128,220.2,128.1,220,128.1z M221,113.3v12.1l20.1-11.6v-12.1
		L221,113.3z"/>
	<polygon class="st5" points="197.9,114.4 220,127.1 220,112.7 197.9,100 	"/>
	<path class="st4" d="M220,128.1c-0.2,0-0.3,0-0.5-0.1l-22.1-12.7c-0.3-0.2-0.5-0.5-0.5-0.9V100c0-0.6,0.4-1,1-1
		c0.2,0,0.3,0,0.5,0.1l22.1,12.7c0.3,0.2,0.5,0.5,0.5,0.9v14.4C221,127.6,220.6,128.1,220,128.1z M198.9,113.8l20.1,11.6v-12.1
		l-20.1-11.6V113.8z"/>
	<path class="st6" d="M220,128.1c-0.2,0-0.3,0-0.5-0.1l-22.1-12.7c-0.3-0.2-0.5-0.5-0.5-0.9V100c0-0.4,0.2-0.7,0.5-0.9l22.1-12.7
		c0.3-0.2,0.7-0.2,1,0l22.1,12.7c0.3,0.2,0.5,0.5,0.5,0.9v14.4c0,0.4-0.2,0.7-0.5,0.9L220.5,128C220.3,128,220.2,128.1,220,128.1z
		 M198.9,113.8l21.1,12.2l21.1-12.2v-13.2L220,88.4l-21.1,12.2V113.8z"/>
	<path class="st4" d="M220,105.5c-4.9,0-8.8-2.4-8.8-5.5s3.9-5.5,8.8-5.5s8.8,2.4,8.8,5.5S224.9,105.5,220,105.5z M220,96.5
		c-4,0-6.8,1.8-6.8,3.5s2.8,3.5,6.8,3.5s6.8-1.8,6.8-3.5S224,96.5,220,96.5z"/>
	<polygon class="st1" points="162.1,214.4 140,227.1 140,212.7 162.1,200 	"/>
	<path class="st0" d="M140,228.1c-0.6,0-1-0.4-1-1v-14.4c0-0.4,0.2-0.7,0.5-0.9l22.1-12.7c0.5-0.3,1.1-0.1,1.4,0.4
		c0.1,0.2,0.1,0.3,0.1,0.5v14.4c0,0.4-0.2,0.7-0.5,0.9L140.5,228C140.3,228.1,140.2,228.1,140,228.1z M141,213.3v12.1l20.1-11.6
		v-12.1L141,213.3z"/>
	<polygon class="st2" points="162.1,200 140,187.3 140,187.3 117.9,200 117.9,200 117.9,200 140,212.7 140,212.7 	"/>
	<path class="st0" d="M140,213.7c-0.2,0-0.3,0-0.5-0.1l-22.1-12.7c-0.5-0.3-0.6-0.9-0.4-1.4c0.1-0.2,0.2-0.3,0.4-0.4l22.1-12.7
		c0.3-0.2,0.7-0.2,1,0l22.1,12.7c0.5,0.3,0.6,0.9,0.4,1.4c-0.1,0.2-0.2,0.3-0.4,0.4l-22.1,12.7C140.3,213.7,140.2,213.7,140,213.7z
		 M119.9,200l20.1,11.6l20.1-11.6L140,188.4L119.9,200z"/>
	<polygon class="st2" points="117.9,214.4 140,227.1 140,212.7 117.9,200 	"/>
	<path class="st0" d="M140,228.1c-0.2,0-0.3,0-0.5-0.1l-22.1-12.7c-0.3-0.2-0.5-0.5-0.5-0.9V200c0-0.6,0.4-1,1-1
		c0.2,0,0.3,0,0.5,0.1l22.1,12.7c0.3,0.2,0.5,0.5,0.5,0.9v14.4C141,227.7,140.6,228.1,140,228.1L140,228.1z M118.9,213.8l20.1,11.6
		v-12.1l-20.1-11.6V213.8z"/>
	<path class="st3" d="M140,228.1c-0.2,0-0.3,0-0.5-0.1l-22.1-12.7c-0.3-0.2-0.5-0.5-0.5-0.9V200c0-0.4,0.2-0.7,0.5-0.9l22.1-12.7
		c0.3-0.2,0.7-0.2,1,0l22.1,12.7c0.3,0.2,0.5,0.5,0.5,0.9v14.4c0,0.4-0.2,0.7-0.5,0.9L140.5,228C140.3,228.1,140.2,228.1,140,228.1z
		 M118.9,213.8L140,226l21.1-12.2v-13.2L140,188.4l-21.1,12.2V213.8z"/>
	<path class="st0" d="M138.2,206.1c-0.2,0-0.3,0-0.5-0.1l-7.1-4.1c-0.5-0.3-0.6-0.9-0.4-1.4c0-0.1,0.1-0.1,0.1-0.2l4.5-5.1
		c0.2-0.2,0.5-0.4,0.8-0.3l9.9,0.9c0.4,0,0.8,0.3,0.9,0.7l1.6,5.7c0.1,0.5-0.2,1.1-0.7,1.2l-8.9,2.6
		C138.4,206,138.3,206.1,138.2,206.1z M132.7,200.7l5.6,3.3l7.6-2.2l-1.1-4.1l-8.7-0.8L132.7,200.7z"/>
	<path class="st1" d="M79.9,182.4c-0.9,0-1.8-0.2-2.6-0.6c-1.2-0.5-1.7-1.8-1.2-3c0.2-0.5,0.7-1,1.2-1.2c1.6-0.8,3.6-0.8,5.2,0
		c1.2,0.5,1.7,1.8,1.2,3c-0.2,0.5-0.7,1-1.2,1.2C81.7,182.2,80.8,182.4,79.9,182.4z M79.9,179c-0.6,0-1.1,0.1-1.6,0.4
		c-0.3,0.2-0.4,0.3-0.4,0.4s0.1,0.2,0.4,0.4c1,0.5,2.2,0.5,3.2,0c0.3-0.2,0.4-0.3,0.4-0.4s-0.1-0.2-0.4-0.4
		C81,179.1,80.4,179,79.9,179z"/>
	<path class="st1" d="M120.1,136.2c-0.9,0-1.8-0.2-2.6-0.6c-1.2-0.5-1.7-1.8-1.2-3c0.2-0.5,0.7-1,1.2-1.2c1.6-0.8,3.6-0.8,5.2,0
		c1.2,0.5,1.7,1.8,1.2,3c-0.2,0.5-0.7,1-1.2,1.2C121.9,136,121,136.3,120.1,136.2z M120.1,132.8c-0.6,0-1.1,0.1-1.6,0.4
		c-0.3,0.2-0.4,0.3-0.4,0.4s0.1,0.2,0.4,0.4c1,0.5,2.2,0.5,3.2,0c0.3-0.2,0.4-0.3,0.4-0.4s-0.1-0.2-0.4-0.4
		C121.2,132.9,120.7,132.8,120.1,132.8z"/>
	<path class="st1" d="M159.9,228.6c-0.9,0-1.8-0.2-2.6-0.6c-1.2-0.5-1.7-1.8-1.2-3c0.2-0.5,0.7-1,1.2-1.2c1.6-0.8,3.6-0.8,5.2,0
		c1.2,0.5,1.7,1.8,1.2,3c-0.2,0.5-0.7,1-1.2,1.2C161.7,228.4,160.8,228.6,159.9,228.6z M159.9,225.2c-0.6,0-1.1,0.1-1.6,0.4
		c-0.3,0.2-0.4,0.3-0.4,0.4s0.1,0.2,0.4,0.4c1,0.5,2.2,0.5,3.2,0c0.3-0.2,0.4-0.3,0.4-0.4s-0.1-0.2-0.4-0.4
		C161,225.3,160.4,225.1,159.9,225.2L159.9,225.2z"/>
	<path class="st1" d="M280.1,228.6c-0.9,0-1.8-0.2-2.6-0.6c-1.2-0.5-1.7-1.8-1.2-3c0.2-0.5,0.7-1,1.2-1.2c1.6-0.8,3.6-0.8,5.2,0
		c1.2,0.5,1.7,1.8,1.2,3c-0.2,0.5-0.7,1-1.2,1.2C281.9,228.4,281,228.6,280.1,228.6z M280.1,225.2c-0.6,0-1.1,0.1-1.6,0.4
		c-0.3,0.2-0.4,0.3-0.4,0.4s0.1,0.2,0.4,0.4c1,0.5,2.2,0.5,3.2,0c0.3-0.2,0.4-0.3,0.4-0.4s-0.1-0.2-0.4-0.4
		C281.2,225.3,280.7,225.1,280.1,225.2L280.1,225.2z"/>
	<path class="st1" d="M360.1,182.4c-0.9,0-1.8-0.2-2.6-0.6c-1.2-0.5-1.7-1.8-1.2-3c0.2-0.5,0.7-1,1.2-1.2c1.6-0.8,3.6-0.8,5.2,0
		c1.2,0.5,1.7,1.8,1.2,3c-0.2,0.5-0.7,1-1.2,1.2C361.9,182.2,361,182.4,360.1,182.4z M360.1,179c-0.6,0-1.1,0.1-1.6,0.4
		c-0.3,0.2-0.4,0.3-0.4,0.4s0.1,0.2,0.4,0.4c1,0.5,2.2,0.5,3.2,0c0.3-0.2,0.4-0.3,0.4-0.4s-0.1-0.2-0.4-0.4
		C361.2,179.1,360.7,179,360.1,179z"/>
	<path class="st1" d="M319.9,136.2c-0.9,0-1.8-0.2-2.6-0.6c-1.2-0.5-1.7-1.8-1.2-3c0.2-0.5,0.7-1,1.2-1.2c1.6-0.8,3.6-0.8,5.2,0
		c1.2,0.5,1.7,1.8,1.2,3c-0.2,0.5-0.7,1-1.2,1.2C321.7,136,320.8,136.3,319.9,136.2z M319.9,132.8c-0.6,0-1.1,0.1-1.6,0.4
		c-0.3,0.2-0.4,0.3-0.4,0.4s0.1,0.2,0.4,0.4c1,0.5,2.2,0.5,3.2,0c0.3-0.2,0.4-0.3,0.4-0.4s-0.1-0.2-0.4-0.4
		C321,132.9,320.4,132.8,319.9,132.8z"/>
	<path class="st6" d="M175.9,102.6c-0.1,0-0.3,0-0.4-0.1c-0.1-0.1-0.2-0.1-0.3-0.2c-0.2-0.2-0.3-0.4-0.3-0.7c0-0.3,0.1-0.5,0.3-0.7
		c0.3-0.3,0.7-0.4,1.1-0.2c0.1,0.1,0.2,0.1,0.3,0.2c0.2,0.2,0.3,0.4,0.3,0.7c0,0.1,0,0.3-0.1,0.4c0,0.1-0.1,0.2-0.2,0.3
		c-0.1,0.1-0.2,0.2-0.3,0.2C176.2,102.6,176,102.6,175.9,102.6z"/>
	<path class="st6" d="M174.9,133.1c0-0.6,0.4-1,1-1l0,0c0.6,0,1,0.4,1,1l0,0c0,0.6-0.4,1-1,1c0,0,0,0,0,0l0,0
		C175.3,134.1,174.9,133.7,174.9,133.1z M174.9,126.8c0-0.6,0.4-1,1-1l0,0c0.6,0,1,0.4,1,1l0,0c0,0.5-0.4,1-1,1c0,0,0,0,0,0l0,0
		C175.4,127.8,174.9,127.4,174.9,126.8C174.9,126.8,174.9,126.8,174.9,126.8z M174.9,120.5c0-0.6,0.4-1,1-1l0,0c0.6,0,1,0.4,1,1l0,0
		c0,0.6-0.4,1-1,1c0,0,0,0,0,0l0,0C175.3,121.5,174.9,121.1,174.9,120.5C174.9,120.5,174.9,120.5,174.9,120.5z M174.9,114.2
		c0-0.6,0.4-1,1-1l0,0c0.6,0,1,0.4,1,1l0,0c0,0.5-0.5,1-1,1l0,0C175.4,115.2,174.9,114.8,174.9,114.2z M174.9,107.9c0-0.6,0.4-1,1-1
		l0,0c0.6,0,1,0.4,1,1l0,0c0,0.6-0.4,1-1,1c0,0,0,0,0,0l0,0C175.3,108.9,174.9,108.5,174.9,107.9z"/>
	<path class="st6" d="M175.9,140.4c-0.1,0-0.3,0-0.4-0.1c-0.1-0.1-0.2-0.1-0.3-0.2c-0.2-0.2-0.3-0.4-0.3-0.7c0-0.6,0.5-1,1-1
		c0.3,0,0.5,0.1,0.7,0.3c0.2,0.2,0.3,0.4,0.3,0.7C176.9,140,176.5,140.4,175.9,140.4C175.9,140.4,175.9,140.4,175.9,140.4
		L175.9,140.4z"/>
	<polygon class="st1" points="82.1,168.2 60,181 60,166.6 82.1,153.8 	"/>
	<path class="st0" d="M60,182c-0.6,0-1-0.4-1-1v-14.4c0-0.4,0.2-0.7,0.5-0.9L81.6,153c0.5-0.3,1.1-0.1,1.4,0.4
		c0.1,0.2,0.1,0.3,0.1,0.5v14.4c0,0.4-0.2,0.7-0.5,0.9l-22.1,12.7C60.3,181.9,60.2,182,60,182z M61,167.1v12.1l20.1-11.6v-12.1
		L61,167.1z"/>
	<polygon class="st2" points="82.1,153.8 60,141.1 60,141.1 38,153.8 38,153.8 38,153.8 60,166.6 60,166.6 	"/>
	<path class="st0" d="M60,167.6c-0.2,0-0.3,0-0.5-0.1l-22-12.7c-0.5-0.3-0.6-0.9-0.4-1.4c0.1-0.2,0.2-0.3,0.4-0.4l22-12.7
		c0.3-0.2,0.7-0.2,1,0L82.6,153c0.5,0.3,0.6,0.9,0.4,1.4c-0.1,0.2-0.2,0.3-0.4,0.4l-22.1,12.7C60.3,167.5,60.2,167.6,60,167.6z
		 M40,153.8l20,11.6l20.1-11.6L60,142.2L40,153.8z"/>
	<polygon class="st2" points="38,168.2 60,181 60,166.6 38,153.8 	"/>
	<path class="st0" d="M60,182c-0.2,0-0.3,0-0.5-0.1l-22-12.7c-0.3-0.2-0.5-0.5-0.5-0.9v-14.4c0-0.6,0.4-1,1-1c0.2,0,0.3,0,0.5,0.1
		l22,12.7c0.3,0.2,0.5,0.5,0.5,0.9V181C61,181.5,60.6,182,60,182L60,182z M39,167.6l20,11.6v-12.1l-20-11.6V167.6z"/>
	<path class="st0" d="M61.1,160.9c-0.2,0-0.3,0-0.5-0.1L48.9,154c-0.5-0.3-0.6-0.9-0.4-1.4c0.2-0.3,0.4-0.4,0.7-0.5l16-2.5
		c0.5-0.1,1.1,0.3,1.1,0.8c0,0.2,0,0.4-0.1,0.6l-4.3,9.2c-0.1,0.3-0.3,0.4-0.6,0.5C61.3,160.9,61.2,160.9,61.1,160.9z M52.4,153.7
		l3.4,2l0,0l4.9,2.8l3-6.6L52.4,153.7z"/>
	<path class="st3" d="M60,182c-0.2,0-0.3,0-0.5-0.1l-22-12.7c-0.3-0.2-0.5-0.5-0.5-0.9v-14.4c0-0.4,0.2-0.7,0.5-0.9l22-12.7
		c0.3-0.2,0.7-0.2,1,0L82.6,153c0.3,0.2,0.5,0.5,0.5,0.9v14.4c0,0.4-0.2,0.7-0.5,0.9l-22.1,12.7C60.3,181.9,60.2,182,60,182z
		 M39,167.6l21,12.2l21.1-12.2v-13.2L60,142.2l-21,12.2V167.6z"/>
	<rect class="st7" width="440" height="300"/>
	<rect class="st7" width="440" height="300"/>
</g>
</svg>
