<?xml version="1.0" encoding="utf-8"?>
<!-- Generator: Adobe Illustrator 24.1.2, SVG Export Plug-In . SVG Version: 6.00 Build 0)  -->
<svg version="1.1" id="Layer_1" xmlns="http://www.w3.org/2000/svg" xmlns:xlink="http://www.w3.org/1999/xlink" x="0px" y="0px"
	 width="128px" height="128px" viewBox="0 0 128 128" style="enable-background:new 0 0 128 128;" xml:space="preserve">
<style type="text/css">
	.st0{fill:none;}
	.st1{fill:#185849;}
	.st2{fill:#FFFFFF;}
	.st3{fill:#E9EBDF;}
	.st4{fill:#4D9987;}
	.st5{fill:#0E352C;}
	.st6{fill:#27ae60;}
	.st7{fill:#C4D7D3;}
</style>
<g>
	<rect x="1" y="1" class="st0" width="126" height="126"/>
	<path class="st1" d="M52.6,27.5c-0.5,0-1-0.4-1-1l0,0c0-0.3,0.1-0.5,0.3-0.7c0.1-0.1,0.2-0.2,0.3-0.2c0.2-0.1,0.4-0.1,0.6-0.1
		c0.1,0,0.1,0,0.2,0.1s0.1,0.1,0.2,0.1c0.1,0,0.1,0.1,0.2,0.1c0.1,0.1,0.2,0.2,0.2,0.3c0.2,0.4,0.1,0.8-0.2,1.1
		C53.1,27.4,52.9,27.5,52.6,27.5z"/>
	<path class="st1" d="M51.6,38c0-0.5,0.4-1,1-1l0,0l0,0c0.6,0,1,0.4,1,1l0,0c0,0.6-0.4,1-1,1l0,0C52,39,51.6,38.6,51.6,38z
		 M51.6,32.3c0-0.6,0.4-1,1-1l0,0c0.6,0,1,0.4,1,1l0,0c0,0.6-0.4,1-1,1l0,0C52,33.3,51.6,32.8,51.6,32.3z"/>
	<path class="st1" d="M52.6,44.8c-0.6,0-1-0.4-1-1c0-0.3,0.1-0.5,0.3-0.7c0.4-0.4,1-0.4,1.4,0c0.2,0.2,0.3,0.4,0.3,0.7
		C53.6,44.3,53.1,44.8,52.6,44.8L52.6,44.8z"/>
	<path class="st1" d="M85.6,27.5c-0.5,0-1-0.4-1-1l0,0c0-0.1,0-0.3,0.1-0.4c0-0.1,0.1-0.2,0.2-0.3c0.1-0.1,0.2-0.2,0.3-0.2
		c0.4-0.1,0.8-0.1,1.1,0.2c0.1,0.1,0.2,0.2,0.2,0.3c0.1,0.2,0.1,0.5,0,0.8c-0.1,0.1-0.1,0.2-0.2,0.3c-0.1,0.1-0.2,0.2-0.3,0.2
		C85.9,27.5,85.8,27.5,85.6,27.5z"/>
	<path class="st1" d="M84.6,45.8c0-0.6,0.4-1,1-1l0,0c0.6,0,1,0.4,1,1l0,0c0,0.6-0.4,1-1,1l0,0C85.1,46.8,84.6,46.3,84.6,45.8z
		 M84.6,39.3c0-0.6,0.4-1,1-1l0,0c0.6,0,1,0.4,1,1l0,0c0,0.6-0.4,1-1,1l0,0C85.1,40.3,84.6,39.9,84.6,39.3z M84.6,32.9
		c0-0.6,0.4-1,1-1l0,0c0.6,0,1,0.4,1,1l0,0c0,0.6-0.4,1-1,1l0,0l0,0C85.1,33.9,84.6,33.5,84.6,32.9z"/>
	<path class="st1" d="M85.6,53.2c-0.3,0-0.5-0.1-0.7-0.3c-0.4-0.4-0.4-1,0-1.4c0.1-0.1,0.2-0.2,0.3-0.2c0.1,0,0.1,0,0.2,0
		s0.3,0,0.4,0s0.1,0,0.2,0c0.1,0.1,0.2,0.1,0.3,0.2c0.1,0.1,0.2,0.2,0.2,0.3c0.1,0.1,0.1,0.3,0.1,0.4c0,0.1,0,0.3-0.1,0.4
		c0,0.1-0.1,0.2-0.2,0.3C86.2,53.1,85.9,53.2,85.6,53.2z"/>
	<path class="st2" d="M126,82.4v-6.5l-10.1,1.8L63.2,47.3c-0.9-0.4-1.9-0.4-2.7,0L16.8,72.5L2,73.5V80c0,0.3,0.2,0.7,0.6,0.8
		l62.2,35.9c0.9,0.4,1.9,0.4,2.7,0l57.9-33.4C125.7,83.1,126,82.8,126,82.4z"/>
	<path class="st3" d="M63.2,47.3c-0.9-0.4-1.9-0.4-2.7,0l5.2,33.8V117c0.6,0.1,1.3,0,1.8-0.3l57.9-33.4c0.3-0.1,0.5-0.4,0.6-0.8V76
		l-10.1,1.8L63.2,47.3z"/>
	<path class="st4" d="M10.4,72.9L2,73.5V80c0,0.3,0.2,0.7,0.6,0.8l7.9,4.5V72.9H10.4z"/>
	<path class="st4" d="M66.2,118c-0.7,0-1.3-0.1-1.9-0.5L2.1,81.6c-0.6-0.3-1-1-1.1-1.7v-6.5c0-0.5,0.4-1,0.9-1l14.6-0.9L60,46.4
		c1.2-0.6,2.6-0.6,3.7,0l52.4,30.2l9.7-1.7c0.3,0,0.6,0,0.8,0.2c0.2,0.2,0.4,0.5,0.4,0.8v6.5c0,0.7-0.4,1.3-1.1,1.7L68,117.5
		C67.5,117.9,66.8,118,66.2,118z M3,79.8C3,79.9,3,79.9,3,79.8l62.3,36c0.6,0.3,1.2,0.3,1.7,0l57.9-33.4c0,0,0,0,0.1,0v-5.2
		l-8.9,1.6c-0.2,0-0.5,0-0.7-0.1L62.7,48.1c-0.6-0.3-1.2-0.3-1.7,0L17.3,73.4c-0.1,0.1-0.3,0.1-0.4,0.1L3,74.4V79.8z"/>
	<path class="st2" d="M125.4,76.7l-57.9,33.4c-0.9,0.4-1.9,0.4-2.7,0L2.6,74.3c-0.4-0.1-0.7-0.6-0.5-1.1c0.1-0.2,0.3-0.4,0.5-0.5
		l57.9-33.4c0.9-0.4,1.9-0.4,2.7,0l62.2,35.9c0.4,0.1,0.7,0.6,0.5,1.1C125.9,76.5,125.7,76.7,125.4,76.7z"/>
	<path class="st3" d="M71.5,44l-8.3-4.8c-0.9-0.4-1.9-0.4-2.7,0L2.6,72.7c-0.4,0.1-0.7,0.6-0.5,1.1c0.1,0.2,0.3,0.4,0.5,0.5l8.3,4.8
		L71.5,44z"/>
	<path class="st4" d="M66.2,111.5c-0.7,0-1.3-0.1-1.9-0.5L2.1,75.1c-0.9-0.4-1.3-1.5-0.9-2.4c0.2-0.4,0.5-0.7,0.9-0.9L60,38.4
		c1.2-0.6,2.6-0.6,3.7,0l62.2,35.9c0.9,0.4,1.3,1.5,0.9,2.4c-0.2,0.4-0.5,0.7-0.9,0.9L68,111C67.5,111.3,66.8,111.5,66.2,111.5z
		 M3.2,73.5l62.1,35.8c0.6,0.3,1.2,0.3,1.7,0l57.8-33.4L62.7,40.1c-0.6-0.3-1.2-0.3-1.7,0L3.2,73.5z"/>
	<ellipse class="st2" cx="18.8" cy="69.6" rx="1.8" ry="1.1"/>
	<ellipse class="st2" cx="24.8" cy="66.1" rx="1.8" ry="1.1"/>
	<ellipse class="st2" cx="12.6" cy="73.2" rx="1.8" ry="1.1"/>
	<path class="st1" d="M85.6,53.2c-0.3,0-0.5-0.1-0.7-0.3c-0.4-0.4-0.4-1,0-1.4c0.1-0.1,0.2-0.2,0.3-0.2c0.1,0,0.1,0,0.2,0
		s0.3,0,0.4,0s0.1,0,0.2,0c0.1,0.1,0.2,0.1,0.3,0.2c0.1,0.1,0.2,0.2,0.2,0.3c0.1,0.1,0.1,0.3,0.1,0.4c0,0.1,0,0.3-0.1,0.4
		c0,0.1-0.1,0.2-0.2,0.3C86.2,53.1,85.9,53.2,85.6,53.2z"/>
	<path class="st1" d="M84.6,57.1c0-0.6,0.4-1,1-1l0,0c0.6,0,1,0.4,1,1l0,0c0,0.6-0.4,1-1,1l0,0C85.1,58.1,84.6,57.6,84.6,57.1z"/>
	<path class="st1" d="M85.6,63c-0.1,0-0.3,0-0.4-0.1c-0.1,0-0.2-0.1-0.3-0.2c-0.2-0.2-0.3-0.4-0.3-0.7c0-0.1,0-0.3,0.1-0.4
		c0-0.1,0.1-0.2,0.2-0.3c0.2-0.2,0.6-0.3,0.9-0.3c0.1,0,0.1,0,0.2,0s0.1,0.1,0.2,0.1s0.1,0.1,0.1,0.1c0.1,0.1,0.2,0.2,0.2,0.3
		s0.1,0.3,0.1,0.4c0,0.1,0,0.3-0.1,0.4c-0.1,0.1-0.1,0.2-0.2,0.3s-0.2,0.2-0.3,0.2C85.9,63,85.8,63,85.6,63z"/>
	<path class="st1" d="M52.6,44.8c-0.6,0-1-0.4-1-1c0-0.3,0.1-0.5,0.3-0.7c0.4-0.4,1-0.4,1.4,0c0.2,0.2,0.3,0.4,0.3,0.7
		C53.6,44.3,53.1,44.8,52.6,44.8L52.6,44.8z"/>
	<path class="st1" d="M51.6,55.9c0-0.6,0.4-1,1-1l0,0l0,0c0.5,0,1,0.4,1,1l0,0l0,0c0,0.5-0.4,1-1,1l0,0C52,56.9,51.6,56.5,51.6,55.9
		z M51.6,49.9c0-0.6,0.5-1,1-1l0,0c0.5,0,1,0.5,1,1l0,0c0,0.5-0.4,1-1,1l0,0l0,0C52,50.9,51.6,50.4,51.6,49.9L51.6,49.9z"/>
	<path class="st1" d="M52.6,63c-0.3,0-0.5-0.1-0.7-0.3s-0.3-0.4-0.3-0.7c0-0.1,0-0.3,0.1-0.4c0-0.1,0.1-0.2,0.2-0.3
		c0.4-0.4,1-0.4,1.4,0c0.1,0.1,0.2,0.2,0.2,0.3s0.1,0.3,0.1,0.4c0,0.3-0.1,0.5-0.3,0.7S52.8,63,52.6,63z"/>
	<path class="st5" d="M66.1,118c-0.6,0-1.3-0.1-1.8-0.4l-62.2-36c-0.6-0.3-1-1-1.1-1.7v-6.5c0-0.7,0.4-1.3,1.1-1.7L60,38.4
		c0.3-0.2,0.6-0.3,0.9-0.4c0.6-0.1,1.3-0.1,1.9,0c0.3,0.1,0.6,0.2,0.9,0.4l62.2,35.9l0,0c0.6,0.3,1,1,1.1,1.7v6.5
		c0,0.7-0.4,1.3-1.1,1.7L68,117.5c-0.2,0.1-0.5,0.2-0.8,0.3c-0.1,0-0.2,0.1-0.3,0.1c-0.1,0-0.3,0-0.4,0C66.4,118,66.2,118,66.1,118z
		 M3,79.8C3,79.9,3,79.9,3,79.8l62.3,36c0.3,0.2,0.7,0.2,1.1,0.2c0.1,0,0.1,0,0.2,0c0,0,0.1,0,0.2,0s0.2-0.1,0.3-0.1L125,82.5
		c0,0,0,0,0.1,0v-6.3c0,0,0,0-0.1,0L62.7,40.1C62.6,40,62.5,40,62.4,40c-0.3-0.1-0.7-0.1-1,0c-0.1,0-0.3,0.1-0.4,0.1L3.1,73.5
		c0,0,0,0-0.1,0V79.8z"/>
	<path class="st4" d="M43.3,88.5c-0.2,0-0.3,0-0.5-0.1l-16.5-9.5c-0.5-0.3-0.6-0.9-0.4-1.4c0.1-0.2,0.2-0.3,0.4-0.4l16.5-9.5
		c0.3-0.2,0.7-0.2,1,0l16.5,9.5c0.5,0.3,0.6,0.9,0.4,1.4c-0.1,0.2-0.2,0.3-0.4,0.4l-16.5,9.5C43.7,88.5,43.5,88.5,43.3,88.5z
		 M28.8,78l14.5,8.4L57.9,78l-14.5-8.4L28.8,78z"/>
	<polygon class="st2" points="43.3,74.4 54.7,81 59.9,78 43.3,68.4 26.8,78 32,81 	"/>
	<path class="st4" d="M54.7,82c-0.2,0-0.3,0-0.5-0.1l-10.8-6.3l-10.8,6.3c-0.3,0.2-0.7,0.2-1,0l-5.2-3c-0.5-0.3-0.6-0.9-0.4-1.4
		c0.1-0.2,0.2-0.3,0.4-0.4l16.5-9.5c0.3-0.2,0.7-0.2,1,0l16.5,9.5c0.5,0.3,0.6,0.9,0.4,1.4c-0.1,0.2-0.2,0.3-0.4,0.4l-5.2,3
		C55,81.9,54.9,82,54.7,82z M43.3,73.4c0.2,0,0.3,0,0.5,0.1l10.8,6.3l3.2-1.8l-14.5-8.4L28.8,78l3.2,1.8l10.8-6.3
		C43,73.5,43.2,73.4,43.3,73.4z"/>
	<polygon class="st3" points="26.8,78 32,81 43.3,74.4 43.3,68.4 	"/>
	<path class="st4" d="M32,82c-0.2,0-0.3,0-0.5-0.1l-5.2-3c-0.5-0.3-0.6-0.9-0.4-1.4c0.1-0.2,0.2-0.3,0.4-0.4l16.5-9.5
		c0.5-0.3,1.1-0.1,1.4,0.4c0.1,0.2,0.1,0.3,0.1,0.5v6c0,0.4-0.2,0.7-0.5,0.9l-11.3,6.5C32.4,81.9,32.2,82,32,82z M28.8,78l3.2,1.8
		l10.3-6v-3.7L28.8,78z"/>
	<polygon class="st2" points="52.6,62 69.1,71.5 85.7,62 69.1,52.5 	"/>
	<path class="st6" d="M69.1,72.5c-0.2,0-0.3,0-0.5-0.1l-16.5-9.5c-0.5-0.3-0.6-0.9-0.4-1.4c0.1-0.2,0.2-0.3,0.4-0.4l16.5-9.5
		c0.3-0.2,0.7-0.2,1,0l16.5,9.5c0.5,0.3,0.6,0.9,0.4,1.4c-0.1,0.2-0.2,0.3-0.4,0.4l-16.5,9.5C69.5,72.5,69.3,72.5,69.1,72.5z
		 M54.6,62l14.5,8.4L83.7,62l-14.5-8.4L54.6,62z"/>
	<polygon class="st6" points="75.9,61.5 68.3,66 64.9,64 65.7,60.1 72.5,59.6 	"/>
	<polygon class="st2" points="72.9,63.3 71.2,64.2 68.7,62.8 70.4,61.8 	"/>
	<path class="st6" d="M73.1,59.2c0-0.2-0.2-0.3-0.4-0.3L65,59.4c-0.2,0-0.3,0.1-0.3,0.3L63.8,64c0,0.2,0.1,0.4,0.3,0.4
		c0,0,0,0,0.1,0h0.6l0,0c0.2,0,0.3-0.1,0.4-0.3l0.8-3.9l6.9-0.5c0.2,0,0.4-0.2,0.3-0.4l0,0L73.1,59.2z"/>
	<path class="st4" d="M68.5,103c-0.2,0-0.3,0-0.5-0.1l-16.5-9.5c-0.5-0.3-0.6-0.9-0.4-1.4c0.1-0.2,0.2-0.3,0.4-0.4L68,82.1
		c0.3-0.2,0.7-0.2,1,0l16.5,9.5c0.5,0.3,0.6,0.9,0.4,1.4c-0.1,0.2-0.2,0.3-0.4,0.4L69,102.9C68.9,103,68.7,103,68.5,103z M54,92.5
		l14.5,8.4L83,92.5l-14.5-8.4L54,92.5z"/>
	<path class="st4" d="M71.5,90.1l-0.7,0.4c-1.7-0.7-3.5-0.6-5.1,0.2c-1.4,0.8-1.5,2.1-0.4,2.9l-1,0.6c-0.5,0.2-0.8,0.7-0.6,1.2
		c0.1,0.3,0.3,0.5,0.6,0.6c1,0.5,2.2,0.5,3.2,0l7.1-4.1c0.5-0.2,0.8-0.7,0.6-1.2c-0.1-0.3-0.3-0.5-0.6-0.6
		C73.7,89.6,72.5,89.6,71.5,90.1z"/>
	<path class="st4" d="M94.3,87.1c-0.2,0-0.3,0-0.5-0.1l-16.5-9.5c-0.5-0.3-0.6-0.9-0.4-1.4c0.1-0.2,0.2-0.3,0.4-0.4l16.5-9.5
		c0.3-0.2,0.7-0.2,1,0l16.5,9.5c0.5,0.3,0.6,0.9,0.4,1.4c-0.1,0.2-0.2,0.3-0.4,0.4L94.8,87C94.6,87,94.5,87.1,94.3,87.1z M79.7,76.5
		l14.5,8.4l14.5-8.4l-14.5-8.4L79.7,76.5z"/>
	<polygon class="st2" points="94.3,73 105.6,79.5 110.8,76.5 94.3,67 77.7,76.5 82.9,79.5 	"/>
	<path class="st4" d="M82.9,80.5c-0.2,0-0.3,0-0.5-0.1l-5.2-3c-0.5-0.3-0.6-0.9-0.4-1.4c0.1-0.2,0.2-0.3,0.4-0.4l16.5-9.5
		c0.3-0.2,0.7-0.2,1,0l16.5,9.5c0.5,0.3,0.6,0.9,0.4,1.4c-0.1,0.2-0.2,0.3-0.4,0.4l-5.2,3c-0.3,0.2-0.7,0.2-1,0l-10.8-6.3l-10.8,6.3
		C83.3,80.5,83.1,80.5,82.9,80.5z M79.7,76.5l3.2,1.8L93.7,72c0.3-0.2,0.7-0.2,1,0l10.8,6.3l3.2-1.8l-14.5-8.4L79.7,76.5z"/>
	<polygon class="st3" points="77.7,76.5 82.9,79.5 94.3,73 94.3,67 	"/>
	<path class="st4" d="M82.9,80.5c-0.2,0-0.3,0-0.5-0.1l-5.2-3c-0.5-0.3-0.6-0.9-0.4-1.4c0.1-0.2,0.2-0.3,0.4-0.4l16.5-9.5
		c0.5-0.3,1.1-0.1,1.4,0.4c0.1,0.2,0.1,0.3,0.1,0.5v6c0,0.4-0.2,0.7-0.5,0.9l-11.3,6.5C83.3,80.5,83.1,80.5,82.9,80.5z M79.7,76.5
		l3.2,1.8l10.3-6v-3.7L79.7,76.5z"/>
	<polygon class="st2" points="52.6,20.5 69.1,30.1 85.7,20.5 69.1,11 	"/>
	<path class="st6" d="M69.1,31.1c-0.2,0-0.3,0-0.5-0.1l-16.5-9.5c-0.5-0.3-0.6-0.9-0.4-1.4c0.1-0.2,0.2-0.3,0.4-0.4l16.5-9.5
		c0.3-0.2,0.7-0.2,1,0l16.5,9.5c0.5,0.3,0.6,0.9,0.4,1.4c-0.1,0.2-0.2,0.3-0.4,0.4L69.6,31C69.5,31,69.3,31.1,69.1,31.1z M54.6,20.5
		l14.5,8.4l14.5-8.4l-14.5-8.4L54.6,20.5z"/>
	<polygon class="st6" points="75.9,20.1 68.3,24.5 64.9,22.5 65.7,18.6 72.5,18.1 	"/>
	<polygon class="st2" points="72.9,21.8 71.2,22.8 68.7,21.4 70.4,20.4 	"/>
	<path class="st6" d="M73.1,17.7c0-0.2-0.2-0.3-0.4-0.3L65,18c-0.2,0-0.3,0.1-0.3,0.3l-0.9,4.3c0,0.2,0.1,0.4,0.3,0.4c0,0,0,0,0.1,0
		h0.6l0,0c0.2,0,0.3-0.1,0.4-0.3l0.8-3.9l6.9-0.5c0.1,0,0.2-0.1,0.3-0.1c0.1-0.1,0.1-0.2,0.1-0.3L73.1,17.7z"/>
	<polygon class="st7" points="85.7,20.5 85.7,26.5 69.1,36 69.1,30.1 	"/>
	<path class="st6" d="M69.1,37c-0.6,0-1-0.4-1-1v-5.9c0-0.4,0.2-0.7,0.5-0.9l16.5-9.5c0.5-0.3,1.1-0.1,1.4,0.4
		c0.1,0.2,0.1,0.3,0.1,0.5v6c0,0.4-0.2,0.7-0.5,0.9L69.6,37C69.5,37,69.3,37,69.1,37z M70.1,30.7v3.6l14.5-8.4v-3.6L70.1,30.7z"/>
	<polygon class="st7" points="52.6,20.5 52.6,26.5 69.1,36 69.1,30.1 	"/>
	<path class="st6" d="M69.1,37c-0.2,0-0.3,0-0.5-0.1l-16.5-9.5c-0.3-0.2-0.5-0.5-0.5-0.9v-5.9c0-0.6,0.4-1,1-1c0.2,0,0.3,0,0.5,0.1
		l16.5,9.5c0.3,0.2,0.5,0.5,0.5,0.9V36C70.1,36.6,69.7,37,69.1,37z M53.6,25.9l14.5,8.4v-3.6l-14.5-8.4V25.9z"/>
	<path class="st1" d="M69.1,37c-0.2,0-0.3,0-0.5-0.1l-16.5-9.5c-0.3-0.2-0.5-0.5-0.5-0.9v-5.9c0-0.4,0.2-0.7,0.5-0.9l16.5-9.5
		c0.3-0.2,0.7-0.2,1,0l16.5,9.5c0.3,0.2,0.5,0.5,0.5,0.9v6c0,0.4-0.2,0.7-0.5,0.9L69.6,37C69.5,37,69.3,37,69.1,37z M53.6,25.9
		l15.5,9l15.5-9v-4.8l-15.5-9l-15.5,9V25.9z"/>
	<g>
		<rect class="st0" width="128" height="128"/>
	</g>
</g>
</svg>
