<?xml version="1.0" encoding="utf-8"?>
<!-- Generator: Adobe Illustrator 24.1.2, SVG Export Plug-In . SVG Version: 6.00 Build 0)  -->
<svg version="1.1" id="Layer_1" xmlns="http://www.w3.org/2000/svg" xmlns:xlink="http://www.w3.org/1999/xlink" x="0px" y="0px"
	 width="440px" height="300px" viewBox="0 0 440 300" style="enable-background:new 0 0 440 300;" xml:space="preserve">
<style type="text/css">
	.st0{fill:#27ae60;}
	.st1{fill:#FFFFFF;}
	.st2{fill:#4D9987;}
	.st3{fill:#C4D7D3;}
	.st4{fill:#185849;}
	.st5{fill:#E9EBDF;}
	.st6{fill:#0E352C;}
	.st7{fill:none;}
</style>
<g>
	<path class="st0" d="M102.9,207.2c-0.1,0-0.3,0-0.4-0.1c-0.1,0-0.2-0.1-0.3-0.2c-0.2-0.2-0.3-0.4-0.3-0.7c0-0.1,0-0.1,0-0.2
		c0-0.1,0-0.1,0.1-0.2c0-0.1,0.1-0.1,0.1-0.2c0-0.1,0.1-0.1,0.1-0.2c0.4-0.4,1-0.4,1.4,0c0.2,0.2,0.3,0.4,0.3,0.7
		c0,0.1,0,0.3-0.1,0.4c-0.1,0.1-0.1,0.2-0.2,0.3C103.5,207.1,103.2,207.2,102.9,207.2z"/>
	<path class="st0" d="M198,209.3c-0.6,0-1-0.5-1-1c0,0,0,0,0,0l0,0c0-0.5,0.5-1,1-1l0,0c0.5,0,1,0.5,1,1c0,0,0,0,0,0l0,0
		C199,208.9,198.6,209.3,198,209.3L198,209.3z M192.1,209.2c-0.6,0-1-0.5-1-1c0,0,0,0,0,0l0,0c0-0.6,0.5-1,1-1l0,0c0.6,0,1,0.5,1,1
		c0,0,0,0,0,0l0,0C193.1,208.7,192.6,209.2,192.1,209.2L192.1,209.2z M186.1,209c-0.5,0-1-0.5-1-1c0,0,0,0,0,0l0,0c0-0.6,0.5-1,1-1
		c0,0,0,0,0,0l0,0c0.6,0,1,0.5,1,1l0,0C187.1,208.6,186.7,209,186.1,209L186.1,209z M180.2,208.9c-0.6,0-1-0.5-1-1c0,0,0,0,0,0l0,0
		c0-0.5,0.5-1,1-1c0,0,0,0,0,0l0,0c0.5,0,1,0.5,1,1c0,0,0,0,0,0l0,0C181.2,208.5,180.7,208.9,180.2,208.9L180.2,208.9z M174.2,208.8
		c-0.6,0-1-0.5-1-1l0,0c0-0.5,0.5-1,1-1c0,0,0,0,0,0l0,0c0.6,0,1,0.5,1,1c0,0,0,0,0,0l0,0C175.2,208.4,174.8,208.8,174.2,208.8
		L174.2,208.8z M168.3,208.7c-0.6,0-1-0.5-1-1c0,0,0,0,0,0l0,0c0-0.5,0.5-1,1-1c0,0,0,0,0,0l0,0c0.5,0,1,0.5,1,1c0,0,0,0,0,0l0,0
		C169.3,208.2,168.9,208.7,168.3,208.7L168.3,208.7L168.3,208.7z M162.3,208.5c-0.5,0-1-0.5-1-1c0,0,0,0,0,0l0,0c0-0.6,0.5-1,1-1
		c0,0,0,0,0,0l0,0c0.5,0,1,0.5,1,1c0,0,0,0,0,0l0,0C163.4,208.1,162.9,208.5,162.3,208.5L162.3,208.5L162.3,208.5z M156.4,208.4
		c-0.6,0-1-0.5-1-1l0,0c0-0.6,0.5-1,1-1c0,0,0,0,0,0l0,0c0.6,0,1,0.5,1,1c0,0,0,0,0,0l0,0C157.4,208,157,208.4,156.4,208.4
		L156.4,208.4z M150.5,208.3c-0.5,0-1-0.5-1-1c0,0,0,0,0,0l0,0c0-0.6,0.5-1,1-1c0,0,0,0,0,0l0,0c0.6,0,1,0.5,1,1c0,0,0,0,0,0l0,0
		C151.5,207.8,151,208.3,150.5,208.3L150.5,208.3z M144.5,208.1c-0.6,0-1-0.5-1-1c0,0,0,0,0,0l0,0c0-0.6,0.5-1,1-1l0,0
		c0.5,0,1,0.5,1,1c0,0,0,0,0,0l0,0C145.5,207.7,145.1,208.1,144.5,208.1L144.5,208.1z M138.6,208c-0.6,0-1-0.5-1-1c0,0,0,0,0,0l0,0
		c0-0.6,0.5-1,1-1l0,0c0.5,0,1,0.5,1,1l0,0C139.6,207.6,139.1,208,138.6,208L138.6,208z M132.6,207.9c-0.6,0-1-0.5-1-1c0,0,0,0,0,0
		l0,0c0-0.6,0.5-1,1-1l0,0c0.5,0,1,0.5,1,1l0,0C133.6,207.4,133.2,207.9,132.6,207.9L132.6,207.9z M126.7,207.8c-0.6,0-1-0.5-1-1
		l0,0c0-0.6,0.5-1,1-1l0,0c0.5,0,1,0.5,1,1c0,0,0,0,0,0l0,0C127.7,207.3,127.3,207.8,126.7,207.8L126.7,207.8z M120.7,207.6
		c-0.6,0-1-0.5-1-1l0,0c0-0.5,0.5-1,1-1c0,0,0,0,0,0l0,0c0.5,0,1,0.5,1,1c0,0,0,0,0,0l0,0C121.8,207.2,121.3,207.6,120.7,207.6
		L120.7,207.6z M114.8,207.5c-0.6,0-1-0.5-1-1c0,0,0,0,0,0l0,0c0-0.5,0.5-1,1-1c0,0,0,0,0,0l0,0c0.6,0,1,0.5,1,1c0,0,0,0,0,0l0,0
		C115.8,207.1,115.4,207.5,114.8,207.5L114.8,207.5z M108.9,207.4c-0.5,0-1-0.5-1-1c0,0,0,0,0,0l0,0c0-0.6,0.5-1,1-1c0,0,0,0,0,0
		l0,0c0.6,0,1,0.5,1,1c0,0,0,0,0,0l0,0C109.9,206.9,109.4,207.4,108.9,207.4L108.9,207.4z"/>
	<path class="st0" d="M204,209.4c-0.1,0-0.3,0-0.4-0.1c-0.1,0-0.2-0.1-0.3-0.2c-0.2-0.2-0.3-0.4-0.3-0.7c0-0.3,0.1-0.5,0.3-0.7
		c0.2-0.2,0.6-0.3,0.9-0.3c0.1,0,0.1,0,0.2,0.1c0.1,0,0.1,0,0.2,0.1c0.1,0,0.1,0.1,0.1,0.1c0.2,0.2,0.3,0.4,0.3,0.7
		c0,0.3-0.1,0.5-0.3,0.7C204.5,209.3,204.2,209.4,204,209.4z"/>
	<path class="st0" d="M231.9,132.8c-0.1,0-0.3,0-0.4-0.1c-0.1-0.1-0.2-0.1-0.3-0.2c-0.2-0.2-0.3-0.4-0.3-0.7c0-0.1,0-0.1,0-0.2
		c0-0.1,0-0.1,0.1-0.2s0.1-0.1,0.1-0.2c0-0.1,0.1-0.1,0.1-0.1c0.1-0.1,0.2-0.2,0.3-0.2c0.2-0.1,0.4-0.1,0.6-0.1c0.1,0,0.1,0,0.2,0.1
		s0.1,0.1,0.2,0.1c0.1,0,0.1,0.1,0.1,0.1c0.1,0.1,0.2,0.2,0.2,0.3c0,0.1,0,0.1,0.1,0.2c0,0.1,0,0.1,0,0.2c0,0.3-0.1,0.5-0.3,0.7
		c-0.1,0.1-0.2,0.2-0.3,0.2C232.1,132.8,232,132.8,231.9,132.8z"/>
	<path class="st0" d="M234,162.5c-0.1-0.5,0.3-1,0.9-1.1c0,0,0,0,0,0l0,0c0.6,0,1,0.4,1.1,0.9l0,0c0,0.5-0.4,1-0.9,1.1l0,0
		c0,0-0.1,0-0.1,0l0,0C234.5,163.4,234.1,163,234,162.5z M233.4,156.4c-0.1-0.5,0.3-1,0.9-1.1l0,0c0.5-0.1,1,0.3,1.1,0.9
		c0,0,0,0,0,0l0,0c0.1,0.6-0.4,1-0.9,1.1l0,0c0,0-0.1,0-0.1,0l0,0C233.9,157.3,233.4,156.9,233.4,156.4z M232.8,150.3
		c-0.1-0.5,0.3-1,0.9-1.1l0,0c0.5-0.1,1,0.3,1.1,0.9c0,0,0,0,0,0l0,0c0.1,0.5-0.3,1-0.9,1.1c0,0,0,0,0,0l0,0c0,0-0.1,0-0.1,0l0,0
		C233.2,151.2,232.8,150.8,232.8,150.3z M232.1,144.1c-0.1-0.5,0.3-1,0.9-1.1c0,0,0,0,0,0l0,0c0.5-0.1,1,0.3,1.1,0.9c0,0,0,0,0,0
		l0,0c0.1,0.6-0.3,1-0.9,1.1l0,0c0,0-0.1,0-0.1,0l0,0C232.6,145,232.2,144.6,232.1,144.1z M231.5,138c-0.1-0.6,0.3-1,0.9-1.1l0,0
		c0.5-0.1,1,0.3,1.1,0.9c0,0,0,0,0,0l0,0c0,0.6-0.4,1-0.9,1.1h-0.1C232,138.9,231.6,138.5,231.5,138z"/>
	<path class="st0" d="M235.6,169.5c-0.1,0-0.3,0-0.4-0.1c-0.1,0-0.2-0.1-0.3-0.2c-0.1-0.1-0.2-0.2-0.2-0.3c-0.1-0.2-0.1-0.5,0-0.8
		c0-0.1,0.1-0.2,0.2-0.3c0.2-0.2,0.6-0.3,0.9-0.3c0.1,0,0.1,0,0.2,0.1c0.1,0,0.1,0,0.2,0.1c0.1,0,0.1,0.1,0.1,0.1
		c0.1,0.1,0.2,0.2,0.2,0.3c0,0.1,0.1,0.2,0.1,0.4c0,0.3-0.1,0.5-0.3,0.7C236.1,169.4,235.9,169.5,235.6,169.5z"/>
	<path class="st0" d="M135.2,188.6c-0.4,0-0.8-0.2-0.9-0.6c-0.1-0.1-0.1-0.2-0.1-0.4c0-0.3,0.1-0.5,0.3-0.7c0.3-0.3,0.7-0.4,1.1-0.2
		c0.1,0.1,0.2,0.1,0.3,0.2c0.2,0.2,0.3,0.4,0.3,0.7c0,0.1,0,0.3-0.1,0.4C135.9,188.4,135.6,188.6,135.2,188.6L135.2,188.6z"/>
	<path class="st0" d="M201.9,202.8c-0.5-0.1-0.9-0.6-0.8-1.2c0,0,0,0,0,0l0,0c0.1-0.5,0.6-0.9,1.2-0.8c0,0,0,0,0,0l0,0
		c0.5,0.1,0.9,0.6,0.8,1.2c0,0,0,0,0,0l0,0c-0.1,0.5-0.5,0.8-1,0.8l0,0C202,202.9,201.9,202.8,201.9,202.8z M195.8,201.5
		c-0.5-0.1-0.9-0.6-0.8-1.2l0,0c0.1-0.5,0.6-0.9,1.2-0.8l0,0c0.5,0.1,0.9,0.6,0.8,1.2l0,0c-0.1,0.5-0.5,0.8-1,0.8l0,0
		C195.9,201.6,195.9,201.6,195.8,201.5L195.8,201.5z M189.7,200.3c-0.5-0.1-0.9-0.6-0.8-1.2l0,0c0.1-0.5,0.6-0.9,1.2-0.8
		c0,0,0,0,0,0l0,0c0.5,0.1,0.9,0.6,0.8,1.2c0,0,0,0,0,0l0,0c-0.1,0.5-0.5,0.8-1,0.8l0,0C189.8,200.3,189.8,200.3,189.7,200.3
		L189.7,200.3z M183.6,199c-0.5-0.1-0.9-0.6-0.8-1.2l0,0c0.1-0.5,0.6-0.9,1.2-0.8c0,0,0,0,0,0l0,0c0.5,0.1,0.9,0.6,0.8,1.2
		c0,0,0,0,0,0l0,0c-0.1,0.5-0.5,0.8-1,0.8l0,0C183.8,199,183.7,199,183.6,199L183.6,199z M177.6,197.7c-0.5-0.1-0.9-0.6-0.8-1.2
		c0,0,0,0,0,0l0,0c0.1-0.5,0.6-0.9,1.2-0.8l0,0c0.5,0.1,0.9,0.6,0.8,1.2c0,0,0,0,0,0l0,0c-0.1,0.5-0.5,0.8-1,0.8l0,0
		C177.7,197.7,177.6,197.7,177.6,197.7L177.6,197.7z M171.5,196.4c-0.5-0.1-0.9-0.6-0.8-1.2c0,0,0,0,0,0l0,0
		c0.1-0.5,0.6-0.9,1.2-0.8c0,0,0,0,0,0l0,0c0.5,0.1,0.9,0.6,0.8,1.2c0,0,0,0,0,0l0,0c-0.1,0.5-0.5,0.8-1,0.8l0,0
		C171.6,196.4,171.5,196.4,171.5,196.4L171.5,196.4z M165.4,195.1c-0.5-0.1-0.9-0.6-0.8-1.2l0,0c0.1-0.5,0.6-0.9,1.2-0.8
		c0,0,0,0,0,0l0,0c0.5,0.1,0.9,0.6,0.8,1.2c0,0,0,0,0,0l0,0c-0.1,0.5-0.5,0.8-1,0.8l0,0C165.5,195.1,165.4,195.1,165.4,195.1
		L165.4,195.1z M159.3,193.8c-0.5-0.1-0.9-0.6-0.8-1.2c0,0,0,0,0,0l0,0c0.1-0.5,0.6-0.9,1.2-0.8l0,0c0.5,0.1,0.9,0.6,0.8,1.2
		c0,0,0,0,0,0l0,0c-0.1,0.5-0.5,0.8-1,0.8l0,0C159.4,193.8,159.4,193.8,159.3,193.8L159.3,193.8z M153.2,192.5
		c-0.5-0.1-0.9-0.6-0.8-1.2c0,0,0,0,0,0l0,0c0.1-0.5,0.6-0.9,1.2-0.8c0,0,0,0,0,0l0,0c0.5,0.1,0.9,0.6,0.8,1.2c0,0,0,0,0,0l0,0
		c-0.1,0.5-0.5,0.8-1,0.8l0,0C153.4,192.5,153.3,192.5,153.2,192.5L153.2,192.5z M147.1,191.2c-0.5-0.1-0.9-0.6-0.8-1.2c0,0,0,0,0,0
		l0,0c0.1-0.5,0.6-0.9,1.2-0.8l0,0c0.5,0.1,0.9,0.6,0.8,1.2c0,0,0,0,0,0l0,0c-0.1,0.5-0.5,0.8-1,0.8l0,0
		C147.3,191.2,147.2,191.2,147.1,191.2L147.1,191.2z M141.1,189.9c-0.5-0.1-0.9-0.6-0.8-1.2c0,0,0,0,0,0l0,0
		c0.1-0.5,0.6-0.9,1.2-0.8l0,0c0.5,0.1,0.9,0.7,0.8,1.2l0,0c-0.1,0.5-0.5,0.8-1,0.8l0,0C141.2,189.9,141.1,189.9,141.1,189.9
		L141.1,189.9z"/>
	<path class="st0" d="M208.2,204.1c-0.3,0-0.5-0.1-0.7-0.3c-0.1-0.1-0.2-0.2-0.2-0.3c0-0.1-0.1-0.2-0.1-0.4c0-0.3,0.1-0.5,0.3-0.7
		c0.3-0.3,0.7-0.4,1.1-0.2c0.4,0.2,0.6,0.5,0.6,0.9c0,0.1,0,0.3-0.1,0.4c0,0.1-0.1,0.2-0.2,0.3c-0.1,0.1-0.2,0.2-0.3,0.2
		C208.4,204.1,208.3,204.1,208.2,204.1z"/>
	<path class="st0" d="M199.6,151.4c-0.5,0-1-0.4-1-1c0,0,0,0,0,0c0-0.1,0-0.3,0.1-0.4c0-0.1,0.1-0.2,0.2-0.3c0.4-0.4,1-0.4,1.4,0
		c0.1,0.1,0.2,0.2,0.2,0.3c0.1,0.1,0.1,0.3,0.1,0.4C200.6,151,200.2,151.4,199.6,151.4C199.7,151.4,199.7,151.4,199.6,151.4
		L199.6,151.4z"/>
	<path class="st0" d="M218.2,180.9c-0.3-0.5-0.2-1.1,0.3-1.4l0,0c0.5-0.3,1.1-0.2,1.4,0.3l0,0c0.3,0.5,0.2,1.1-0.3,1.4l0,0
		c-0.2,0.1-0.3,0.2-0.5,0.2l0,0C218.7,181.3,218.4,181.2,218.2,180.9z M215,175.9c-0.3-0.5-0.2-1.1,0.3-1.4c0,0,0,0,0,0l0,0
		c0.5-0.3,1.1-0.2,1.4,0.3l0,0c0.3,0.5,0.2,1.1-0.3,1.4l0,0c-0.2,0.1-0.4,0.2-0.6,0.2l0,0C215.5,176.4,215.2,176.2,215,175.9
		L215,175.9z M211.8,170.9c-0.3-0.5-0.2-1.1,0.3-1.4l0,0c0.5-0.3,1.1-0.2,1.4,0.3l0,0c0.3,0.5,0.2,1.1-0.3,1.4c0,0,0,0,0,0l0,0
		c-0.2,0.1-0.3,0.2-0.5,0.2l0,0C212.3,171.4,211.9,171.2,211.8,170.9z M208.5,165.9c-0.3-0.5-0.2-1.1,0.3-1.4l0,0
		c0.5-0.3,1.1-0.2,1.4,0.3l0,0c0.3,0.5,0.2,1.1-0.3,1.4l0,0c-0.2,0.1-0.3,0.2-0.5,0.2l0,0C209,166.4,208.7,166.2,208.5,165.9z
		 M205.3,160.9c-0.3-0.5-0.2-1.1,0.3-1.4c0,0,0,0,0,0l0,0c0.5-0.3,1.1-0.2,1.4,0.3l0,0c0.3,0.5,0.2,1.1-0.3,1.4c0,0,0,0,0,0l0,0
		c-0.2,0.1-0.3,0.2-0.5,0.2l0,0C205.8,161.4,205.5,161.2,205.3,160.9z M202.1,155.9c-0.3-0.5-0.2-1.1,0.3-1.4l0,0
		c0.5-0.3,1.1-0.2,1.4,0.3l0,0c0.3,0.5,0.2,1.1-0.3,1.4l0,0c-0.2,0.1-0.3,0.2-0.5,0.2l0,0C202.5,156.4,202.2,156.2,202.1,155.9z"/>
	<path class="st0" d="M222.3,186.3c-0.1,0-0.3,0-0.4-0.1c-0.2-0.1-0.4-0.3-0.5-0.5c-0.2-0.4-0.1-0.8,0.2-1.1
		c0.2-0.2,0.6-0.3,0.9-0.3l0.2,0.1c0.1,0,0.1,0.1,0.2,0.1c0.1,0,0.1,0.1,0.1,0.1c0.2,0.2,0.3,0.4,0.3,0.7c0,0.1,0,0.3-0.1,0.4
		c-0.1,0.1-0.1,0.2-0.2,0.3c-0.1,0.1-0.2,0.2-0.3,0.2C222.5,186.3,222.4,186.3,222.3,186.3z"/>
	<path class="st0" d="M167.4,170c-0.1,0-0.3,0-0.4-0.1c-0.1,0-0.2-0.1-0.3-0.2c-0.1-0.1-0.2-0.2-0.2-0.3c-0.1-0.1-0.1-0.2-0.1-0.4
		c0-0.1,0-0.3,0.1-0.4c0-0.1,0.1-0.2,0.2-0.3c0.2-0.2,0.6-0.3,0.9-0.3c0.1,0,0.1,0,0.2,0.1c0.1,0,0.1,0.1,0.2,0.1
		c0.1,0,0.1,0.1,0.1,0.1c0.1,0.1,0.2,0.2,0.2,0.3c0,0.1,0.1,0.3,0.1,0.4c0,0.3-0.1,0.5-0.3,0.7c-0.1,0.1-0.2,0.2-0.3,0.2
		C167.7,170,167.5,170,167.4,170z"/>
	<path class="st0" d="M208.2,193.8c-0.5-0.3-0.6-0.9-0.4-1.4l0,0c0.3-0.5,0.9-0.6,1.4-0.4c0,0,0,0,0,0l0,0c0.5,0.3,0.6,0.9,0.4,1.3
		c0,0,0,0,0,0l0,0c-0.2,0.3-0.5,0.5-0.9,0.5l0,0C208.6,193.9,208.4,193.9,208.2,193.8z M203.1,190.8c-0.5-0.3-0.6-0.9-0.4-1.4
		c0,0,0,0,0,0l0,0c0.3-0.5,0.9-0.6,1.3-0.4c0,0,0,0,0,0l0,0c0.5,0.3,0.6,0.9,0.4,1.4l0,0c-0.2,0.3-0.5,0.5-0.9,0.5l0,0
		C203.4,190.9,203.2,190.9,203.1,190.8L203.1,190.8z M197.9,187.8c-0.5-0.3-0.6-0.9-0.4-1.3c0,0,0,0,0,0l0,0
		c0.3-0.5,0.9-0.6,1.4-0.4c0,0,0,0,0,0l0,0c0.5,0.3,0.6,0.9,0.4,1.4c0,0,0,0,0,0l0,0c-0.2,0.3-0.5,0.5-0.9,0.5l0,0
		C198.2,187.9,198.1,187.9,197.9,187.8z M192.8,184.8c-0.5-0.3-0.6-0.9-0.4-1.4l0,0c0.3-0.5,0.9-0.6,1.4-0.4l0,0
		c0.5,0.3,0.6,0.9,0.4,1.4c0,0,0,0,0,0l0,0c-0.2,0.3-0.5,0.5-0.9,0.5l0,0C193.1,185,192.9,184.9,192.8,184.8z M187.6,181.8
		c-0.5-0.3-0.6-0.9-0.4-1.4l0,0c0.3-0.5,0.9-0.6,1.4-0.4c0,0,0,0,0,0l0,0c0.5,0.3,0.6,0.9,0.4,1.4l0,0c-0.2,0.3-0.5,0.5-0.9,0.5l0,0
		C187.9,182,187.7,181.9,187.6,181.8z M182.4,178.8c-0.5-0.3-0.6-0.9-0.4-1.4l0,0c0.3-0.5,0.9-0.6,1.4-0.4l0,0
		c0.5,0.3,0.6,0.9,0.4,1.4c0,0,0,0,0,0l0,0c-0.2,0.3-0.5,0.5-0.9,0.5l0,0C182.7,179,182.6,178.9,182.4,178.8z M177.2,175.9
		c-0.5-0.3-0.6-0.9-0.4-1.4l0,0c0.3-0.5,0.9-0.6,1.4-0.4l0,0c0.5,0.3,0.6,0.9,0.4,1.4c0,0,0,0,0,0l0,0c-0.2,0.3-0.5,0.5-0.9,0.5l0,0
		C177.6,176,177.4,175.9,177.2,175.9z M172.1,172.9c-0.5-0.3-0.6-0.9-0.4-1.4c0,0,0,0,0,0l0,0c0.3-0.5,0.9-0.6,1.3-0.4c0,0,0,0,0,0
		l0,0c0.5,0.3,0.6,0.9,0.4,1.4l0,0c-0.2,0.3-0.5,0.5-0.9,0.5l0,0C172.4,173,172.2,173,172.1,172.9z"/>
	<path class="st0" d="M213.9,196.9c-0.1,0-0.3,0-0.4-0.1c-0.2-0.1-0.4-0.3-0.5-0.5c-0.1-0.2-0.1-0.5,0-0.8c0-0.1,0.1-0.2,0.2-0.3
		c0.4-0.4,1-0.4,1.4,0c0.1,0.1,0.2,0.2,0.2,0.3c0.1,0.2,0.1,0.5,0,0.8c0,0.1-0.1,0.2-0.2,0.3C214.4,196.8,214.2,196.9,213.9,196.9z"
		/>
	<path class="st1" d="M223.9,44.6l6.3-7.9l-7.9-4.6v0c-1-0.5-2.2-0.4-3.1,0.2l-119.4,69c-2.6,1.5-4.7,5.5-4.7,9v91.3l7.9,4.6
		l13.7-17.1l107.2-61.9L223.9,44.6z"/>
	<path class="st2" d="M102.9,207.2c-0.2,0-0.3,0-0.5-0.1l-7.9-4.6c-0.3-0.2-0.5-0.5-0.5-0.9v-91.3c0-3.8,2.3-8.2,5.2-9.9l119.4-69
		c1.2-0.8,2.7-0.9,4-0.3c0,0,0.1,0,0.1,0.1l7.9,4.6c0.5,0.3,0.6,0.9,0.4,1.4c0,0-0.1,0.1-0.1,0.1l-6.1,7.6v82.3
		c0,0.4-0.2,0.7-0.5,0.9l-107.1,61.8l-13.6,16.9C103.5,207.1,103.2,207.2,102.9,207.2z M96,201.1l6.7,3.9l13.2-16.4
		c0.1-0.1,0.2-0.2,0.3-0.2l106.7-61.6V44.6c0-0.2,0.1-0.4,0.2-0.6l5.6-7l-6.8-3.9c0,0-0.1,0-0.1,0c-0.7-0.3-1.5-0.2-2.1,0.2
		l-119.4,69c-2.3,1.3-4.2,5-4.2,8.1V201.1z"/>
	<path class="st1" d="M222.2,32.1c-1-0.5-2.2-0.4-3.1,0.2l-119.4,69c-2.6,1.5-4.7,5.5-4.7,9v7.5l63.2,42.7l65.7-37.9v-78l6.3-7.9
		L222.2,32.1L222.2,32.1z"/>
	<path class="st2" d="M158.2,161.5c-0.2,0-0.4-0.1-0.6-0.2l-63.2-42.7c-0.3-0.2-0.4-0.5-0.4-0.8v-7.5c0-3.8,2.3-8.2,5.2-9.9
		l119.4-69c1.2-0.8,2.7-0.9,4-0.3c0,0,0.1,0,0.1,0.1l7.9,4.6c0.5,0.3,0.6,0.9,0.4,1.4c0,0-0.1,0.1-0.1,0.1l-6.1,7.6v77.7
		c0,0.4-0.2,0.7-0.5,0.9l-65.7,37.9C158.5,161.5,158.4,161.5,158.2,161.5z M96,117.3l62.2,42l64.6-37.3V44.6c0-0.2,0.1-0.4,0.2-0.6
		l5.6-7l-6.8-3.9c0,0-0.1,0-0.1,0c-0.7-0.3-1.5-0.2-2.1,0.2l-119.4,69c-2.3,1.3-4.2,5-4.2,8.1V117.3z"/>
	<path class="st1" d="M222.2,32.1c-1-0.5-2.2-0.4-3.1,0.2l-119.4,69c-1.6,1.1-2.9,2.6-3.6,4.4l73.1,42.2l54.7-31.6V44.6l6.3-7.9
		L222.2,32.1L222.2,32.1z"/>
	<path class="st0" d="M251.7,218.6c-0.1,0-0.3,0-0.4-0.1c-0.1,0-0.2-0.1-0.3-0.2c-0.2-0.2-0.3-0.4-0.3-0.7c0-0.1,0-0.1,0-0.2
		c0-0.1,0-0.1,0.1-0.2c0.1-0.1,0.1-0.2,0.2-0.3c0.2-0.2,0.6-0.3,0.9-0.3c0.1,0,0.1,0,0.2,0.1c0.1,0,0.1,0.1,0.2,0.1
		c0.1,0,0.1,0.1,0.1,0.1c0.2,0.2,0.3,0.4,0.3,0.7c0,0.3-0.1,0.5-0.3,0.7c-0.1,0.1-0.2,0.2-0.3,0.2
		C252,218.5,251.8,218.6,251.7,218.6z"/>
	<path class="st0" d="M270.3,229.4c-0.5-0.3-0.6-0.9-0.4-1.4c0,0,0,0,0,0l0,0c0.3-0.5,0.9-0.6,1.3-0.4c0,0,0,0,0,0l0,0
		c0.5,0.3,0.6,0.9,0.4,1.4l0,0c-0.2,0.3-0.5,0.5-0.9,0.5l0,0C270.6,229.6,270.4,229.5,270.3,229.4z M265.5,226.7
		c-0.5-0.3-0.6-0.9-0.4-1.4c0,0,0,0,0,0l0,0c0.3-0.5,0.9-0.6,1.4-0.4l0,0c0.5,0.3,0.6,0.9,0.4,1.4c0,0,0,0,0,0l0,0
		c-0.2,0.3-0.5,0.5-0.9,0.5l0,0C265.8,226.8,265.6,226.8,265.5,226.7L265.5,226.7z M260.7,223.9c-0.5-0.3-0.6-0.9-0.4-1.4l0,0
		c0.3-0.5,0.9-0.6,1.4-0.4l0,0c0.5,0.3,0.6,0.9,0.4,1.4c0,0,0,0,0,0l0,0c-0.2,0.3-0.5,0.5-0.9,0.5l0,0
		C261.1,224.1,260.9,224,260.7,223.9z M256,221.2c-0.5-0.3-0.6-0.9-0.4-1.4c0,0,0,0,0,0l0,0c0.3-0.5,0.9-0.6,1.4-0.4l0,0
		c0.5,0.3,0.6,0.9,0.4,1.4c0,0,0,0,0,0l0,0c-0.2,0.3-0.5,0.5-0.9,0.5l0,0C256.3,221.3,256.1,221.3,256,221.2L256,221.2z"/>
	<path class="st0" d="M275.5,232.3c-0.3,0-0.5-0.1-0.7-0.3c-0.1-0.1-0.2-0.2-0.2-0.3c0-0.1-0.1-0.3-0.1-0.4c0-0.3,0.1-0.5,0.3-0.7
		c0.3-0.3,0.9-0.4,1.3-0.1c0.1,0,0.1,0.1,0.1,0.1c0.4,0.4,0.4,1,0,1.4c0,0,0,0,0,0c-0.1,0.1-0.2,0.2-0.3,0.2
		C275.8,232.3,275.7,232.3,275.5,232.3z"/>
	<polygon class="st3" points="267.6,208.4 235.8,168.3 235.8,226.7 	"/>
	<path class="st0" d="M235.8,227.7c-0.6,0-1-0.4-1-1v-58.4c0-0.6,0.4-1,1-1c0.3,0,0.6,0.1,0.8,0.4l31.8,40.1
		c0.3,0.4,0.3,1.1-0.2,1.4c0,0-0.1,0.1-0.1,0.1l-31.8,18.2C236.1,227.6,236,227.7,235.8,227.7z M236.8,171.2V225l29.3-16.8
		L236.8,171.2z"/>
	<polygon class="st3" points="204,208.4 235.8,168.3 235.8,226.7 	"/>
	<path class="st0" d="M235.8,227.7c-0.2,0-0.3,0-0.5-0.1l-31.8-18.2c-0.5-0.3-0.6-0.9-0.4-1.4c0,0,0.1-0.1,0.1-0.1l31.8-40.1
		c0.3-0.4,1-0.5,1.4-0.2c0.2,0.2,0.4,0.5,0.4,0.8v58.4C236.8,227.2,236.3,227.7,235.8,227.7L235.8,227.7z M205.5,208.1l29.3,16.8
		v-53.8L205.5,208.1z"/>
	<path class="st0" d="M235.8,227.7c-0.2,0-0.3,0-0.5-0.1l-31.8-18.2c-0.5-0.3-0.6-0.9-0.4-1.4c0.1-0.2,0.2-0.3,0.4-0.4l31.8-18.2
		c0.3-0.2,0.7-0.2,1,0l31.8,18.2c0.5,0.3,0.6,0.9,0.4,1.4c-0.1,0.2-0.2,0.3-0.4,0.4l-31.8,18.2C236.1,227.6,236,227.7,235.8,227.7z
		 M206,208.4l29.8,17.1l29.8-17.1l-29.8-17.1L206,208.4z"/>
	<path class="st4" d="M235.8,227.7c-0.2,0-0.3,0-0.5-0.1l-31.8-18.2c-0.5-0.3-0.6-0.9-0.4-1.4c0,0,0.1-0.1,0.1-0.1l31.8-40.1
		c0.4-0.4,1-0.5,1.5-0.1c0,0,0.1,0.1,0.1,0.1l31.8,40.1c0.3,0.4,0.3,1.1-0.2,1.4c0,0-0.1,0.1-0.1,0.1l-31.8,18.2
		C236.1,227.6,236,227.7,235.8,227.7z M205.5,208.1l30.3,17.4l30.3-17.4l-30.3-38.2L205.5,208.1z"/>
	<path class="st1" d="M107.7,105.9l119.4-69c2.6-1.5,4.7,0.1,4.7,3.6v91.3l-128.9,74.4v-91.3C102.9,111.5,105.1,107.4,107.7,105.9z"
		/>
	<path class="st2" d="M102.9,207.2c-0.6,0-1-0.4-1-1v-91.3c0-3.8,2.3-8.2,5.2-9.9l0.5,0.9l-0.5-0.9l119.4-69
		c1.2-0.8,2.8-0.9,4.1-0.2c1.4,0.8,2.1,2.5,2.1,4.7v91.3c0,0.4-0.2,0.7-0.5,0.9l-128.9,74.4C103.3,207.2,103.1,207.2,102.9,207.2z
		 M229,37.4c-0.5,0-1,0.2-1.4,0.4l-119.4,69c-2.3,1.3-4.2,5-4.2,8.1v89.6l126.9-73.2V40.5c0-1.4-0.4-2.5-1.1-2.9
		C229.5,37.5,229.2,37.4,229,37.4z"/>
	<path class="st5" d="M231.8,48v-7.5c0-3.5-2.1-5.1-4.7-3.6l-119.4,69c-2.6,1.5-4.7,5.5-4.7,9v7.5L231.8,48z"/>
	<path class="st2" d="M102.9,123.4c-0.6,0-1-0.4-1-1v-7.5c0-3.8,2.3-8.2,5.2-9.9l119.4-69c1.2-0.8,2.8-0.9,4.1-0.2
		c1.4,0.8,2.1,2.5,2.1,4.7V48c0,0.4-0.2,0.7-0.5,0.9l-128.9,74.4C103.3,123.4,103.1,123.4,102.9,123.4z M229,37.4
		c-0.5,0-1,0.2-1.4,0.4l-119.4,69c-2.3,1.3-4.2,5-4.2,8.1v5.8l126.9-73.2v-6.9c0-1.4-0.4-2.5-1.1-2.9
		C229.5,37.5,229.2,37.4,229,37.4z"/>
	<path class="st6" d="M102.9,207.2c-0.2,0-0.3,0-0.5-0.1l-7.9-4.6c-0.3-0.2-0.5-0.5-0.5-0.9v-91.3c0-3.8,2.3-8.2,5.2-9.9l119.4-69
		c1.2-0.8,2.7-0.9,4-0.3c0,0,0.1,0,0.1,0.1l7.9,4.6c0,0,0.1,0,0.1,0.1c1.3,0.8,2,2.5,2,4.6v91.3c0,0.4-0.2,0.7-0.5,0.9l-128.9,74.4
		C103.3,207.2,103.1,207.2,102.9,207.2z M96,201.1l6.9,4l127.9-73.8V40.5c0-1.4-0.4-2.5-1.1-2.9c0,0-0.1,0-0.1-0.1l-7.8-4.5
		c0,0-0.1,0-0.1,0c-0.7-0.3-1.5-0.2-2.1,0.2l-119.4,69c-2.3,1.3-4.2,5-4.2,8.1V201.1z"/>
	<polygon class="st5" points="339.7,249.7 307.6,268.2 307.6,257.5 339.7,239 	"/>
	<path class="st2" d="M307.6,269.2c-0.6,0-1-0.4-1-1l0-10.7c0-0.4,0.2-0.7,0.5-0.9l32.1-18.5c0.5-0.3,1.1-0.1,1.4,0.4
		c0.1,0.2,0.1,0.3,0.1,0.5l0,10.7c0,0.4-0.2,0.7-0.5,0.9L308.1,269C307.9,269.1,307.7,269.2,307.6,269.2z M308.6,258.1l0,8.4
		l30.1-17.3l0-8.4L308.6,258.1z"/>
	<polygon class="st1" points="275.5,249.6 307.6,268.2 307.6,257.5 275.5,238.9 	"/>
	<path class="st2" d="M307.6,269.2c-0.2,0-0.3,0-0.5-0.1l-32-18.6c-0.3-0.2-0.5-0.5-0.5-0.9l0-10.7c0-0.6,0.4-1,1-1
		c0.2,0,0.3,0,0.5,0.1l32,18.6c0.3,0.2,0.5,0.5,0.5,0.9l0,10.7C308.6,268.7,308.1,269.2,307.6,269.2L307.6,269.2z M276.5,249
		l30.1,17.4l0-8.4l-30.1-17.4L276.5,249z"/>
	<polygon class="st1" points="339.7,239 307.6,220.4 275.5,238.9 307.6,257.5 	"/>
	<path class="st2" d="M307.6,258.5c-0.2,0-0.3,0-0.5-0.1l-32-18.6c-0.5-0.3-0.6-0.9-0.4-1.4c0.1-0.2,0.2-0.3,0.4-0.4l32.1-18.5
		c0.3-0.2,0.7-0.2,1,0l32,18.6c0.5,0.3,0.6,0.9,0.4,1.4c-0.1,0.2-0.2,0.3-0.4,0.4l-32.1,18.5C307.9,258.4,307.8,258.5,307.6,258.5z
		 M277.5,238.9l30.1,17.4l30.1-17.3l-30.1-17.4L277.5,238.9z"/>
	<path class="st2" d="M323.6,249.2c-0.2,0-0.3,0-0.5-0.1l-16-9.3c-0.5-0.3-0.6-0.9-0.4-1.4c0.1-0.2,0.2-0.3,0.4-0.4l16-9.2
		c0.3-0.2,0.7-0.2,1,0l16,9.3c0.5,0.3,0.6,0.9,0.4,1.4c-0.1,0.2-0.2,0.3-0.4,0.4l-16,9.2C324,249.2,323.8,249.2,323.6,249.2z
		 M309.6,239l14,8.1l14-8.1l-14-8.1L309.6,239z"/>
	<path class="st2" d="M307.6,258.5c-0.2,0-0.3,0-0.5-0.1l-32-18.6c-0.5-0.3-0.6-0.9-0.4-1.4c0.1-0.2,0.2-0.3,0.4-0.4l32.1-18.5
		c0.3-0.2,0.7-0.2,1,0l32,18.6c0.5,0.3,0.6,0.9,0.4,1.4c-0.1,0.2-0.2,0.3-0.4,0.4l-32.1,18.5C307.9,258.4,307.8,258.5,307.6,258.5z
		 M277.5,238.9l30.1,17.4l30.1-17.3l-30.1-17.4L277.5,238.9z"/>
	<path class="st2" d="M323.6,260c-0.6,0-1-0.4-1-1v-10.7c0-0.6,0.4-1,1-1s1,0.4,1,1V259C324.6,259.5,324.2,260,323.6,260z"/>
	<path class="st2" d="M323.6,242.7c-3.2,0-5.6-1.6-5.6-3.7s2.5-3.7,5.6-3.7s5.6,1.6,5.6,3.7S326.8,242.7,323.6,242.7z M323.6,237.3
		c-2.2,0-3.6,1-3.6,1.7s1.4,1.7,3.6,1.7s3.6-1,3.6-1.7S325.8,237.3,323.6,237.3z"/>
	<ellipse class="st5" cx="307.6" cy="225.2" rx="1.5" ry="0.9"/>
	<ellipse class="st5" cx="283.7" cy="238.9" rx="1.5" ry="0.9"/>
	<ellipse class="st5" cx="307.6" cy="252.7" rx="1.5" ry="0.9"/>
	<path class="st6" d="M307.6,269.2c-0.2,0-0.3,0-0.5-0.1l-32-18.6c-0.3-0.2-0.5-0.5-0.5-0.9l0-10.7c0-0.4,0.2-0.7,0.5-0.9l32.1-18.5
		c0.3-0.2,0.7-0.2,1,0l32,18.6c0.3,0.2,0.5,0.5,0.5,0.9l0,10.7c0,0.4-0.2,0.7-0.5,0.9L308.1,269
		C307.9,269.1,307.7,269.2,307.6,269.2z M276.5,249l31,18l31.1-17.9l0-9.5l-15.5-9l0,0l-15.5-9l-31.1,17.9L276.5,249z"/>
	<polygon class="st5" points="339.7,239 307.6,257.5 307.6,246.8 339.7,228.3 	"/>
	<path class="st2" d="M307.6,258.5c-0.6,0-1-0.4-1-1l0-10.7c0-0.4,0.2-0.7,0.5-0.9l32.1-18.5c0.5-0.3,1.1-0.1,1.4,0.4
		c0.1,0.2,0.1,0.3,0.1,0.5l0,10.7c0,0.4-0.2,0.7-0.5,0.9l-32.1,18.5C307.9,258.4,307.7,258.5,307.6,258.5z M308.6,247.4l0,8.4
		l30.1-17.3l0-8.4L308.6,247.4z"/>
	<polygon class="st3" points="339.7,239 339.7,228.3 323.6,237.6 323.6,248.2 	"/>
	<path class="st0" d="M323.6,249.2c-0.6,0-1-0.4-1-1v-10.7c0-0.4,0.2-0.7,0.5-0.9l16-9.2c0.5-0.3,1.1-0.1,1.4,0.4
		c0.1,0.2,0.1,0.3,0.1,0.5l0,10.7c0,0.4-0.2,0.7-0.5,0.9l-16,9.2C324,249.2,323.8,249.2,323.6,249.2z M324.6,238.1v8.4l14-8.1l0-8.4
		L324.6,238.1z"/>
	<polygon class="st1" points="275.5,238.9 307.6,257.5 307.6,246.8 275.5,228.2 	"/>
	<path class="st2" d="M307.6,258.5c-0.2,0-0.3,0-0.5-0.1l-32-18.6c-0.3-0.2-0.5-0.5-0.5-0.9l0-10.7c0-0.6,0.4-1,1-1
		c0.2,0,0.3,0,0.5,0.1l32,18.6c0.3,0.2,0.5,0.5,0.5,0.9l0,10.7C308.6,258,308.1,258.5,307.6,258.5L307.6,258.5z M276.5,238.3
		l30.1,17.4l0-8.4L276.5,230L276.5,238.3z"/>
	<polygon class="st1" points="339.7,228.3 307.6,209.8 275.5,228.2 307.6,246.8 	"/>
	<path class="st2" d="M307.6,247.8c-0.2,0-0.3,0-0.5-0.1l-32-18.6c-0.5-0.3-0.6-0.9-0.4-1.4c0.1-0.2,0.2-0.3,0.4-0.4l32.1-18.5
		c0.3-0.2,0.7-0.2,1,0l32,18.6c0.5,0.3,0.6,0.9,0.4,1.4c-0.1,0.2-0.2,0.3-0.4,0.4l-32.1,18.5C307.9,247.8,307.8,247.8,307.6,247.8z
		 M277.5,228.2l30.1,17.4l30.1-17.3l-30.1-17.4L277.5,228.2z"/>
	<polygon class="st1" points="339.7,228.3 323.7,219 307.6,228.3 323.6,237.6 	"/>
	<path class="st0" d="M323.6,238.6c-0.2,0-0.3,0-0.5-0.1l-16-9.3c-0.5-0.3-0.6-0.9-0.4-1.4c0.1-0.2,0.2-0.3,0.4-0.4l16-9.2
		c0.3-0.2,0.7-0.2,1,0l16,9.3c0.5,0.3,0.6,0.9,0.4,1.4c-0.1,0.2-0.2,0.3-0.4,0.4l-16,9.2C324,238.5,323.8,238.6,323.6,238.6z
		 M309.6,228.3l14,8.1l14-8.1l-14-8.1L309.6,228.3z"/>
	<ellipse class="st1" cx="323.6" cy="228.3" rx="4.6" ry="2.7"/>
	<path class="st0" d="M323.6,232c-3.2,0-5.6-1.6-5.6-3.7s2.5-3.7,5.6-3.7s5.6,1.6,5.6,3.7S326.8,232,323.6,232z M323.6,226.6
		c-2.2,0-3.6,1-3.6,1.7s1.4,1.7,3.6,1.7s3.6-1,3.6-1.7S325.8,226.6,323.6,226.6z"/>
	<ellipse class="st5" cx="307.6" cy="214.5" rx="1.5" ry="0.9"/>
	<ellipse class="st5" cx="283.7" cy="228.2" rx="1.5" ry="0.9"/>
	<ellipse class="st5" cx="307.6" cy="242.1" rx="1.5" ry="0.9"/>
	<path class="st6" d="M307.6,258.5c-0.2,0-0.3,0-0.5-0.1l-32-18.6c-0.3-0.2-0.5-0.5-0.5-0.9l0-10.7c0-0.4,0.2-0.7,0.5-0.9l32.1-18.5
		c0.3-0.2,0.7-0.2,1,0l32,18.6c0.3,0.2,0.5,0.5,0.5,0.9l0,10.7c0,0.4-0.2,0.7-0.5,0.9l-32.1,18.5
		C307.9,258.4,307.7,258.5,307.6,258.5z M276.5,238.3l31,18l31.1-17.9l0-9.5l-31-18l-31.1,17.9L276.5,238.3z"/>
	<path class="st4" d="M323.6,249.2c-0.6,0-1-0.4-1-1v-10.1l-15.5-9c-0.5-0.3-0.6-0.9-0.4-1.4c0.1-0.2,0.2-0.3,0.4-0.4l16-9.2
		c0.3-0.2,0.7-0.2,1,0l16,9.3c0.3,0.2,0.5,0.5,0.5,0.9l0,10.7c0,0.4-0.2,0.7-0.5,0.9l-16,9.2C324,249.2,323.8,249.2,323.6,249.2z
		 M309.6,228.3l14.5,8.4c0.3,0.2,0.5,0.5,0.5,0.9v9l14-8.1l0-9.5l-15-8.7L309.6,228.3z"/>
	<path class="st0" d="M344.6,191.2c-1.7-9.6-8.3-18.5-14.8-19.9c-1.6-0.4-3.3-0.2-4.8,0.6l0,0l-6.2,3.6l2.1,4.4
		c-0.2,2.1-0.1,4.2,0.3,6.2c1.4,7.8,6.1,15.2,11.3,18.4l2.1,4.4l6.2-3.6l0,0C344.2,203.3,345.8,198,344.6,191.2z"/>
	<path class="st3" d="M325.1,171.9L325.1,171.9c1.5-0.8,3.2-1,4.8-0.6c4.6,1,9.3,5.9,12.2,12.1l-18.2,10.5c-1.2-2.5-2-5.1-2.5-7.8
		c-0.4-2-0.5-4.1-0.3-6.2l-2.1-4.4L325.1,171.9z"/>
	<path class="st0" d="M334.7,209.9c-0.4,0-0.7-0.2-0.9-0.6l-2-4.1c-5.5-3.5-10.1-11.1-11.5-18.9c-0.4-2-0.5-4.1-0.4-6.2l-2-4.2
		c-0.2-0.5,0-1,0.4-1.3l6.2-3.6c0.1,0,0.1-0.1,0.2-0.1c1.6-0.8,3.5-1.1,5.3-0.6c6.8,1.5,13.7,10.8,15.5,20.7l0,0
		c1.3,7-0.3,12.7-4.1,15.1c-0.1,0-0.1,0.1-0.2,0.1l-6.2,3.6C335,209.8,334.8,209.9,334.7,209.9z M320.2,175.8l1.7,3.6
		c0.1,0.2,0.1,0.3,0.1,0.5c-0.2,2-0.1,4,0.3,5.9c1.3,7.3,5.8,14.6,10.8,17.7c0.2,0.1,0.3,0.2,0.4,0.4l1.6,3.4l5-2.9
		c0,0,0.1-0.1,0.2-0.1c3.1-1.8,4.4-6.9,3.3-13.1l0,0c-1.7-9.2-7.9-17.8-14-19.1c-1.4-0.4-2.8-0.2-4,0.5c-0.1,0-0.1,0.1-0.2,0.1
		L320.2,175.8z"/>
	<path class="st3" d="M323.7,174.8c-6.4-1.4-10.2,5.2-8.5,14.8s8.3,18.5,14.8,19.9s10.2-5.2,8.5-14.8S330.1,176.2,323.7,174.8z"/>
	<path class="st1" d="M331.6,210.7c-0.6,0-1.3-0.1-1.9-0.2c-6.8-1.5-13.7-10.8-15.5-20.7c-1.1-6.1,0-11.4,2.8-14.1
		c1.8-1.8,4.4-2.4,6.9-1.8c6.8,1.5,13.7,10.8,15.5,20.7c1.1,6.1,0,11.4-2.8,14.1C335.3,210,333.5,210.7,331.6,210.7z M322,175.6
		c-1.4,0-2.7,0.5-3.6,1.4c-2.4,2.3-3.2,6.9-2.2,12.3c1.7,9.2,7.9,17.8,14,19.1c1.8,0.5,3.7,0,5.1-1.3c2.4-2.3,3.2-6.9,2.2-12.3
		c-1.7-9.2-7.9-17.8-14-19.1C323,175.7,322.5,175.6,322,175.6z"/>
	<path class="st4" d="M331.5,210.6c-0.6,0-1.2-0.1-1.9-0.2c-6.8-1.5-13.7-10.8-15.5-20.7c-1.3-7,0.3-12.7,4.1-15.1
		c0.1,0,0.1-0.1,0.2-0.1l6.2-3.6c0.1,0,0.1-0.1,0.2-0.1c0.9-0.5,2-0.8,3.1-0.8c0.7,0,1.5,0,2.2,0.2c0.4,0.1,0.8,0.2,1.2,0.3
		c0.1,0,0.2,0.1,0.3,0.1c0.3,0.1,0.6,0.3,0.9,0.4c0.2,0.1,0.2,0.1,0.3,0.1c0.4,0.2,0.7,0.4,1.1,0.6c0.1,0,0.2,0.1,0.2,0.2l0.1,0.1
		c0.3,0.2,0.5,0.3,0.7,0.5c0.2,0.1,0.3,0.2,0.4,0.3c0.2,0.2,0.5,0.4,0.7,0.6c0.2,0.2,0.5,0.4,0.7,0.7c0.2,0.2,0.4,0.4,0.5,0.5
		c0.2,0.2,0.4,0.4,0.6,0.6c0.1,0.1,0.2,0.2,0.3,0.4c0.7,0.8,1.4,1.7,2,2.6l0.1,0.1c2.6,3.8,4.3,8,5.2,12.5l0,0
		c1.3,7-0.3,12.7-4.1,15.1c-0.1,0-0.1,0.1-0.2,0.1l-6.2,3.6c-0.1,0-0.1,0.1-0.2,0.1C333.9,210.4,332.7,210.7,331.5,210.6z
		 M319.6,176.2c-0.1,0-0.1,0.1-0.2,0.1c-3.1,1.8-4.4,6.9-3.3,13.1c1.7,9.2,7.9,17.8,14,19.1c1.4,0.4,2.8,0.2,4-0.5
		c0.1,0,0.1-0.1,0.2-0.1l5.8-3.4c0,0,0.1-0.1,0.2-0.1c3.1-1.8,4.4-6.9,3.3-13.1c-0.8-4.2-2.4-8.2-4.8-11.7l0.8-0.6l-0.9,0.5
		c-0.6-0.8-1.2-1.7-1.9-2.4l-0.3-0.3c-0.2-0.2-0.4-0.4-0.5-0.6c-0.2-0.2-0.3-0.3-0.5-0.4c-0.3-0.2-0.5-0.4-0.7-0.6
		c-0.2-0.2-0.4-0.3-0.6-0.5c-0.1-0.1-0.3-0.2-0.4-0.3c-0.2-0.2-0.4-0.3-0.7-0.5l-0.3-0.2c-0.3-0.2-0.6-0.4-0.9-0.5l-0.3-0.1
		c-0.3-0.1-0.5-0.2-0.8-0.3l-0.3-0.1c-0.3-0.1-0.6-0.2-1-0.3c-0.6-0.1-1.1-0.2-1.7-0.2c-0.8,0-1.6,0.3-2.3,0.7
		c-0.1,0-0.1,0.1-0.2,0.1L319.6,176.2z"/>
	<path class="st4" d="M326.8,201.2c-0.8-0.6-1.3-1.5-1.3-2.5c0-1,0.6-1.4,1.3-1c0.8,0.6,1.3,1.5,1.3,2.5
		C328.1,201.1,327.5,201.6,326.8,201.2z M327.7,194.3c0,0.6-0.4,0.9-0.9,0.6c-0.5-0.4-0.9-1-0.9-1.7c-0.1-1.7-0.3-9-0.3-9.3
		c0-0.9,0.5-1.3,1.2-0.9c0.7,0.5,1.2,1.4,1.2,2.2C328,185.6,327.7,192.6,327.7,194.3L327.7,194.3z"/>
	<path class="st2" d="M209.2,97.8c-6.8,1.5-13.8,10.9-15.6,21s2.2,17.1,9,15.6s13.8-10.9,15.6-21S215.9,96.3,209.2,97.8z M212,114.3
		c-1,5.4-4.7,10.6-8.2,11.3c-0.3,0.1-0.5,0.1-0.8,0.1l0,0c-0.9,0-1.7-0.4-2.2-1c-1.2-1.4-1.5-4-1-6.9c1-5.4,4.7-10.6,8.2-11.3
		c0.3-0.1,0.5-0.1,0.8-0.1c0.9,0,1.7,0.4,2.2,1C212.1,108.8,212.5,111.4,212,114.3z"/>
	<path class="st2" d="M200.8,135.5c-1.9,0-3.8-0.7-5.2-2.1c-3-2.9-4.1-8.4-3-14.8c1.9-10.4,9.2-20.2,16.3-21.8
		c2.6-0.7,5.3,0,7.2,1.9c3,2.9,4.1,8.4,3,14.8c-1.9,10.4-9.2,20.2-16.3,21.8C202.1,135.4,201.5,135.5,200.8,135.5z M210.9,98.6
		c-0.5,0-1,0.1-1.5,0.2c-6.4,1.4-13.1,10.5-14.8,20.2c-1,5.7-0.1,10.6,2.4,13.1c1.4,1.4,3.5,1.9,5.4,1.4
		c6.4-1.4,13.1-10.5,14.8-20.2c1-5.7,0.1-10.6-2.4-13.1C213.8,99.1,212.4,98.6,210.9,98.6L210.9,98.6z M203,126.7
		c-1.1,0-2.2-0.5-3-1.4c-1.4-1.6-1.8-4.5-1.2-7.7c1-5.8,5.1-11.3,9-12.1c1.5-0.4,3,0.1,4,1.3c1.4,1.6,1.8,4.5,1.2,7.7l0,0
		c-1,5.8-5.1,11.3-9,12.1C203.6,126.7,203.3,126.7,203,126.7L203,126.7z M208.8,107.4c-0.2,0-0.4,0-0.6,0.1
		c-3.1,0.7-6.6,5.6-7.5,10.5c-0.5,2.6-0.2,4.9,0.8,6.1c0.5,0.6,1.3,0.8,2,0.6c3.1-0.7,6.6-5.6,7.5-10.5c0.5-2.6,0.2-4.9-0.8-6.1
		C209.9,107.6,209.4,107.3,208.8,107.4L208.8,107.4z"/>
	<path class="st5" d="M206.8,124c-0.8,0.8-1.9,1.4-3,1.7c-0.3,0.1-0.5,0.1-0.8,0.1l0,0c-0.9,0-1.7-0.4-2.2-1c-1.2-1.4-1.5-4-1-6.9
		c0.3-1.5,0.8-3,1.4-4.4l-4.9-2.8c-1.2,2.6-2.1,5.3-2.6,8.1c-1.8,10.1,2.2,17.1,9,15.6c0.3-0.1,0.6-0.2,0.9-0.3l2.4-6.4L206.8,124z"
		/>
	<path class="st2" d="M200.8,135.5c-1.9,0-3.8-0.7-5.2-2.1c-3-2.9-4.1-8.4-3-14.8c0.5-2.9,1.4-5.7,2.7-8.4c0.2-0.5,0.8-0.7,1.3-0.5
		c0,0,0,0,0.1,0l4.9,2.8c0.5,0.3,0.6,0.8,0.4,1.3c-0.6,1.3-1.1,2.7-1.3,4.1c-0.5,2.6-0.2,4.9,0.8,6.1c0.5,0.6,1.3,0.8,2,0.6
		c1-0.3,1.8-0.8,2.6-1.4c0.4-0.4,1-0.3,1.4,0.1c0.2,0.2,0.3,0.6,0.2,0.9l-0.9,3.7c0,0,0,0.1,0,0.1l-2.4,6.4
		c-0.1,0.3-0.3,0.5-0.6,0.6c-0.4,0.1-0.7,0.2-1,0.3C202.1,135.4,201.5,135.5,200.8,135.5z M196.7,112c-1,2.2-1.7,4.5-2.1,6.9
		c-1,5.7-0.1,10.6,2.4,13.1c1.4,1.4,3.5,1.9,5.4,1.4c0.1,0,0.3-0.1,0.4-0.1l2.2-5.9l0.3-1.1c-0.4,0.2-0.8,0.3-1.2,0.4
		c-1.5,0.4-3-0.1-4-1.3c-1.4-1.6-1.8-4.5-1.2-7.7c0.2-1.3,0.6-2.6,1.1-3.8L196.7,112z"/>
	<path class="st1" d="M209.2,97.8c-1.2,0.3-2.3,0.7-3.3,1.3v8.3c0.6-0.5,1.4-0.8,2.1-1c0.3-0.1,0.5-0.1,0.8-0.1c0.9,0,1.7,0.4,2.2,1
		c1.2,1.4,1.5,4,1,6.9c-1,5.4-4.7,10.6-8.2,11.3c-0.3,0.1-0.5,0.1-0.8,0.1l0,0c-0.8,0-1.6-0.3-2.1-1l-4.6,7.9
		c1.7,1.6,4.1,2.2,6.3,1.6c6.8-1.5,13.8-10.9,15.6-21S215.9,96.3,209.2,97.8z"/>
	<path class="st2" d="M200.8,135.5c-2,0-3.8-0.7-5.2-2.1c-0.3-0.3-0.4-0.8-0.2-1.2l4.6-7.9c0.3-0.5,0.9-0.6,1.4-0.4
		c0.1,0.1,0.2,0.1,0.2,0.2c0.5,0.6,1.3,0.8,2,0.6c3.1-0.7,6.6-5.6,7.5-10.5c0.5-2.6,0.2-4.9-0.8-6.1c-0.5-0.6-1.3-0.8-2-0.6
		c-0.6,0.2-1.2,0.4-1.8,0.8c-0.5,0.3-1.1,0.2-1.4-0.3c-0.1-0.2-0.2-0.4-0.2-0.6v-8.3c0-0.4,0.2-0.7,0.5-0.9c1.1-0.7,2.3-1.1,3.6-1.4
		l0,0c2.6-0.7,5.3,0,7.2,1.9c3,2.9,4.1,8.4,3,14.8c-1.9,10.4-9.2,20.2-16.3,21.8C202.1,135.4,201.5,135.5,200.8,135.5z M197.6,132.5
		c1.4,1,3.2,1.3,4.8,0.9c6.4-1.4,13.1-10.5,14.8-20.2c1-5.7,0.1-10.6-2.4-13.1c-1.4-1.4-3.5-1.9-5.4-1.4l0,0c-0.9,0.2-1.7,0.5-2.5,1
		v6.1c0.3-0.1,0.6-0.2,0.9-0.3c1.5-0.4,3,0.1,4,1.3c1.4,1.6,1.8,4.5,1.2,7.7c-1,5.8-5.1,11.3-9,12.1c-1,0.2-2,0.1-2.9-0.3
		L197.6,132.5z"/>
	<polygon class="st3" points="116.2,171.2 122.5,160.6 128.8,160.4 135.1,146.4 141.5,149.9 147.8,149.5 154.1,145.8 160.4,138.7 
		166.8,135.1 173.1,124.5 173.1,152.1 116.2,185 	"/>
	<path class="st3" d="M116.2,186c-0.6,0-1-0.4-1-1v-13.8c0-0.2,0-0.4,0.1-0.5l6.3-10.6c0.2-0.3,0.5-0.5,0.8-0.5l5.7-0.2l6.1-13.5
		c0.2-0.5,0.8-0.7,1.3-0.5c0,0,0.1,0,0.1,0l6.1,3.4l5.8-0.4l6-3.5l6.2-7c0.1-0.1,0.2-0.1,0.2-0.2l6.1-3.5l6.2-10.4
		c0.3-0.5,0.9-0.6,1.4-0.3c0.3,0.2,0.5,0.5,0.5,0.9v27.7c0,0.4-0.2,0.7-0.5,0.9l-57,32.9C116.5,186,116.3,186,116.2,186z
		 M117.2,171.4v11.8l55-31.7v-23.5l-4.5,7.5c-0.1,0.1-0.2,0.3-0.4,0.4l-6.2,3.6l-6.2,7c-0.1,0.1-0.2,0.1-0.2,0.2l-6.3,3.7
		c-0.1,0.1-0.3,0.1-0.4,0.1l-6.3,0.5c-0.2,0-0.4,0-0.6-0.1l-5.4-3l-5.9,13c-0.2,0.3-0.5,0.6-0.9,0.6l-5.8,0.2L117.2,171.4z"/>
	<path class="st0" d="M116.2,172.2c-0.6,0-1-0.4-1-1c0-0.2,0-0.4,0.1-0.5l6.3-10.6c0.2-0.3,0.5-0.5,0.8-0.5l5.7-0.2l6.1-13.5
		c0.2-0.5,0.8-0.7,1.3-0.5c0,0,0.1,0,0.1,0l6.1,3.4l5.8-0.4l6-3.5l6.2-7c0.1-0.1,0.2-0.1,0.2-0.2l6.1-3.5l6.2-10.4
		c0.3-0.5,0.9-0.6,1.4-0.3c0.5,0.3,0.6,0.9,0.3,1.4l-6.4,10.6c-0.1,0.1-0.2,0.3-0.4,0.4l-6.2,3.6l-6.2,7c-0.1,0.1-0.2,0.1-0.2,0.2
		l-6.3,3.7c-0.1,0.1-0.3,0.1-0.4,0.1l-6.3,0.5c-0.2,0-0.4,0-0.6-0.1l-5.4-3l-5.9,13c-0.2,0.3-0.5,0.6-0.9,0.6l-5.8,0.2l-6,10.1
		C116.8,172,116.5,172.2,116.2,172.2z"/>
	<path class="st0" d="M116.2,186c-0.6,0-1-0.4-1-1v-31.1c0-0.6,0.4-1,1-1s1,0.4,1,1v29.4l61.7-35.6c0.5-0.3,1.1-0.1,1.4,0.4
		c0.3,0.5,0.1,1.1-0.4,1.4c0,0,0,0,0,0l-63.2,36.5C116.5,186,116.3,186,116.2,186z"/>
	<polygon class="st2" points="116.2,138.7 218.6,79.6 218.6,68.5 116.2,127.6 	"/>
	<path class="st2" d="M116.2,139.7c-0.6,0-1-0.4-1-1v-11.1c0-0.4,0.2-0.7,0.5-0.9l102.4-59.1c0.5-0.3,1.1-0.1,1.4,0.4
		c0.1,0.2,0.1,0.3,0.1,0.5v11.1c0,0.4-0.2,0.7-0.5,0.9l-102.4,59.1C116.5,139.7,116.3,139.7,116.2,139.7z M117.2,128.2v8.8l100.4-58
		v-8.8L117.2,128.2z"/>
	<polygon class="st1" points="143.7,111.7 116.2,127.6 116.2,138.7 143.7,122.9 	"/>
	<path class="st2" d="M116.2,139.7c-0.6,0-1-0.4-1-1v-11.1c0-0.4,0.2-0.7,0.5-0.9l27.5-15.9c0.5-0.3,1.1-0.1,1.4,0.4
		c0.1,0.2,0.1,0.3,0.1,0.5v11.1c0,0.4-0.2,0.7-0.5,0.9l-27.5,15.9C116.5,139.7,116.3,139.7,116.2,139.7z M117.2,128.2v8.8l25.5-14.7
		v-8.8L117.2,128.2z"/>
	<polygon class="st5" points="143.7,122.9 198.7,91.1 198.7,80 143.7,111.7 	"/>
	<path class="st2" d="M143.7,123.9c-0.6,0-1-0.4-1-1v-11.1c0-0.4,0.2-0.7,0.5-0.9l55-31.8c0.5-0.3,1.1-0.1,1.4,0.4
		c0.1,0.2,0.1,0.3,0.1,0.5v11.1c0,0.4-0.2,0.7-0.5,0.9l-55,31.8C144,123.8,143.8,123.9,143.7,123.9z M144.7,112.3v8.8l53-30.6v-8.8
		L144.7,112.3z"/>
	<rect class="st7" width="440" height="300"/>
	<rect class="st7" width="440" height="300"/>
</g>
</svg>
