<?xml version="1.0" encoding="utf-8"?>
<!-- Generator: Adobe Illustrator 24.1.2, SVG Export Plug-In . SVG Version: 6.00 Build 0)  -->
<svg version="1.1" id="Layer_1" xmlns="http://www.w3.org/2000/svg" xmlns:xlink="http://www.w3.org/1999/xlink" x="0px" y="0px"
	 width="440px" height="300px" viewBox="0 0 440 300" style="enable-background:new 0 0 440 300;" xml:space="preserve">
<style type="text/css">
	.st0{fill:#FFFFFF;}
	.st1{fill:#4D9987;}
	.st2{fill:#E9EBDF;}
	.st3{fill:#0E352C;}
	.st4{fill:#C4D7D3;}
	.st5{fill:#27ae60;}
	.st6{fill:#185849;}
	.st7{fill:none;}
</style>
<g>
	<g>
		<path class="st0" d="M324.5,142.6V133h-8.6L212.3,73.2c-7.4-4.3-19.5-4.3-26.9,0L81.8,133h-8.6v9.5l0,0c0,2.8,1.9,5.6,5.6,7.8
			l106.6,61.5c7.4,4.3,19.5,4.3,26.9,0l106.6-61.5C322.6,148.2,324.5,145.4,324.5,142.6z"/>
		<path class="st1" d="M198.9,216.1c-4.9,0.1-9.7-1.1-13.9-3.3L78.3,151.2c-3.9-2.3-6.1-5.3-6.1-8.6V133c0-0.6,0.4-1,1-1h8.3
			l103.3-59.7c7.7-4.4,20.2-4.4,27.9,0L316.2,132h8.3c0.6,0,1,0.4,1,1v9.5c0,3.3-2.2,6.4-6.1,8.6l-106.6,61.5
			C208.5,215,203.7,216.2,198.9,216.1z M74.3,134v8.5c0,2.6,1.8,5,5.1,6.9L185.9,211c7.1,4.1,18.8,4.1,25.9,0l106.6-61.5
			c3.3-1.9,5.1-4.3,5.1-6.9V134h-7.6c-0.2,0-0.3,0-0.5-0.1L211.8,74.1c-7.1-4.1-18.8-4.1-25.9,0L82.3,133.9
			c-0.2,0.1-0.3,0.1-0.5,0.1H74.3z"/>
		<path class="st2" d="M212.3,73.2c-4.1-2.2-8.7-3.3-13.4-3.2v145.1c4.7,0.1,9.3-1,13.4-3.2l106.6-61.5c3.7-2.1,5.6-5,5.6-7.8V133
			h-8.6L212.3,73.2z"/>
		<path class="st0" d="M318.9,140.8l-106.6,61.5c-7.4,4.3-19.5,4.3-26.9,0L78.8,140.8c-7.4-4.3-7.4-11.2,0-15.5l106.6-61.5
			c7.4-4.3,19.5-4.3,26.9,0l106.6,61.5C326.4,129.6,326.4,136.5,318.9,140.8z"/>
		<path class="st1" d="M198.9,206.6c-4.9,0.1-9.7-1.1-13.9-3.3L78.3,141.7c-3.9-2.3-6.1-5.3-6.1-8.6s2.2-6.4,6.1-8.6L184.9,63
			c7.7-4.4,20.2-4.4,27.9,0l106.6,61.5c3.9,2.3,6.1,5.3,6.1,8.6s-2.2,6.4-6.1,8.6l-106.6,61.5C208.5,205.5,203.7,206.7,198.9,206.6z
			 M198.9,61.5c-4.5-0.1-9,1-12.9,3.1L79.3,126.2c-3.3,1.9-5.1,4.3-5.1,6.9s1.8,5,5.1,6.9l106.6,61.5c7.1,4.1,18.8,4.1,25.9,0
			L318.4,140c3.3-1.9,5.1-4.3,5.1-6.9s-1.8-5-5.1-6.9L211.8,64.6C207.8,62.5,203.4,61.4,198.9,61.5z"/>
		<path class="st3" d="M198.9,216.1c-4.9,0.1-9.7-1.1-13.9-3.3L78.3,151.2c-3.9-2.3-6.1-5.3-6.1-8.6V133c0-3.3,2.2-6.4,6.1-8.6
			l106.6-61.5c7.7-4.4,20.2-4.4,27.9,0l106.6,61.5c3.9,2.3,6.1,5.3,6.1,8.6v9.5c0,3.3-2.2,6.4-6.1,8.6l-106.6,61.5
			C208.5,215,203.7,216.2,198.9,216.1z M198.9,61.5c-4.5-0.1-9,1-12.9,3.1L79.3,126.2c-3.3,1.9-5.1,4.3-5.1,6.9v9.5
			c0,2.6,1.8,5,5.1,6.9L185.9,211c7.1,4.1,18.8,4.1,25.9,0l106.6-61.5c3.3-1.9,5.1-4.3,5.1-6.9v-9.5c0-2.6-1.8-5-5.1-6.9l0,0
			L211.8,64.6C207.8,62.5,203.4,61.4,198.9,61.5z"/>
		<path class="st1" d="M256,139.5c-0.6,0-1-0.4-1-1c0-0.4,0.2-0.7,0.5-0.9l8-4.6l-8-4.6c-0.5-0.3-0.6-0.9-0.4-1.4s0.9-0.6,1.4-0.4
			l0,0l9.5,5.5c0.5,0.3,0.6,0.9,0.4,1.4c-0.1,0.2-0.2,0.3-0.4,0.4l-9.5,5.5C256.3,139.5,256.2,139.5,256,139.5z"/>
		<path class="st1" d="M185.6,95c-0.6,0-1-0.4-1-1c0-0.4,0.2-0.7,0.5-0.9l10.7-6.2c0.3-0.2,0.7-0.2,1,0l10.7,6.2
			c0.5,0.3,0.6,0.9,0.4,1.4c-0.3,0.5-0.9,0.6-1.4,0.4L196.3,89l-10.2,5.9C186,94.9,185.8,95,185.6,95z"/>
		<path class="st1" d="M141.8,139.5c-0.2,0-0.3,0-0.5-0.1l-9.5-5.5c-0.5-0.3-0.6-0.9-0.4-1.4c0.1-0.2,0.2-0.3,0.4-0.4l9.5-5.5
			c0.5-0.3,1.1-0.1,1.4,0.4c0.3,0.5,0.1,1.1-0.4,1.4l-8,4.6l8,4.6c0.5,0.3,0.6,0.9,0.4,1.4C142.4,139.3,142.1,139.5,141.8,139.5
			L141.8,139.5z"/>
		<path class="st1" d="M198.9,172.5c-0.2,0-0.3,0-0.5-0.1l-9.5-5.5c-0.5-0.3-0.6-0.9-0.4-1.4s0.9-0.6,1.4-0.4l9,5.2l9-5.2
			c0.5-0.3,1.1-0.1,1.4,0.4s0.1,1.1-0.4,1.4l-9.5,5.5C199.2,172.5,199.1,172.5,198.9,172.5z"/>
		<polygon class="st2" points="251.3,133 198.9,163.2 199,145.7 251.3,115.6 		"/>
		<path class="st1" d="M198.9,164.2c-0.6,0-1-0.4-1-1v-17.4c0-0.4,0.2-0.7,0.5-0.9l52.4-30.1c0.5-0.3,1.1-0.1,1.4,0.4
			c0.1,0.2,0.1,0.3,0.1,0.5v17.4c0,0.4-0.2,0.7-0.5,0.9l-52.4,30.1C199.3,164.1,199.1,164.2,198.9,164.2z M200,146.3v15.1l50.4-29
			v-15.1L200,146.3z"/>
		<polygon class="st0" points="146.6,132.9 198.9,163.2 199,145.7 146.7,115.5 		"/>
		<path class="st1" d="M198.9,164.2c-0.2,0-0.3,0-0.5-0.1l-52.3-30.3c-0.3-0.2-0.5-0.5-0.5-0.9v-17.4c0-0.6,0.4-1,1-1
			c0.2,0,0.3,0,0.5,0.1l52.3,30.3c0.3,0.2,0.5,0.5,0.5,0.9v17.4C199.9,163.7,199.5,164.2,198.9,164.2L198.9,164.2z M147.6,132.3
			l50.3,29.1v-15.1l-50.3-29.1V132.3z"/>
		<polygon class="st0" points="251.3,115.6 199,85.3 146.7,115.5 199,145.7 		"/>
		<path class="st1" d="M199,146.7c-0.2,0-0.3,0-0.5-0.1l-52.3-30.3c-0.5-0.3-0.6-0.9-0.4-1.4c0.1-0.2,0.2-0.3,0.4-0.4l52.4-30.1
			c0.3-0.2,0.7-0.2,1,0l52.3,30.3c0.5,0.3,0.6,0.9,0.4,1.4c-0.1,0.2-0.2,0.3-0.4,0.4l-52.4,30.1C199.3,146.7,199.1,146.7,199,146.7z
			 M148.7,115.5l50.3,29.1l50.4-29L199,86.5L148.7,115.5z"/>
		<path class="st1" d="M225.1,131.7c-0.2,0-0.3,0-0.5-0.1l-26.1-15.1c-0.5-0.3-0.6-0.9-0.4-1.4c0.1-0.2,0.2-0.3,0.4-0.4l26.2-15.1
			c0.3-0.2,0.7-0.2,1,0l26.1,15.1c0.5,0.3,0.6,0.9,0.4,1.4c-0.1,0.2-0.2,0.3-0.4,0.4l-26.2,15.1
			C225.5,131.6,225.3,131.7,225.1,131.7z M201,115.5l24.1,14l24.2-13.9l-24.1-14L201,115.5z"/>
		<path class="st1" d="M199,146.7c-0.2,0-0.3,0-0.5-0.1l-52.3-30.3c-0.5-0.3-0.6-0.9-0.4-1.4c0.1-0.2,0.2-0.3,0.4-0.4l52.4-30.1
			c0.3-0.2,0.7-0.2,1,0l52.3,30.3c0.5,0.3,0.6,0.9,0.4,1.4c-0.1,0.2-0.2,0.3-0.4,0.4l-52.4,30.1C199.3,146.7,199.1,146.7,199,146.7z
			 M148.7,115.5l50.3,29.1l50.4-29L199,86.5L148.7,115.5z"/>
		<path class="st1" d="M225.1,121c-4.8,0-8.6-2.4-8.6-5.4s3.8-5.4,8.6-5.4s8.6,2.4,8.6,5.4S229.9,121,225.1,121z M225.1,112.2
			c-3.9,0-6.6,1.8-6.6,3.4s2.7,3.4,6.6,3.4s6.6-1.8,6.6-3.4S229,112.2,225.1,112.2z"/>
		<ellipse class="st2" cx="199" cy="93.1" rx="2.5" ry="1.5"/>
		<ellipse class="st2" cx="160.1" cy="115.5" rx="2.5" ry="1.5"/>
		<ellipse class="st2" cx="199" cy="138" rx="2.5" ry="1.5"/>
		<path class="st3" d="M198.9,164.2c-0.2,0-0.3,0-0.5-0.1l-52.3-30.3c-0.3-0.2-0.5-0.5-0.5-0.9v-17.4c0-0.4,0.2-0.7,0.5-0.9
			l52.4-30.1c0.3-0.2,0.7-0.2,1,0l26.1,15.1l0,0l26.1,15.1c0.3,0.2,0.5,0.5,0.5,0.9V133c0,0.4-0.2,0.7-0.5,0.9L199.3,164
			C199.3,164.1,199.1,164.2,198.9,164.2z M147.6,132.3l51.3,29.7l51.4-29.6v-16.3L199,86.5L147.7,116L147.6,132.3z"/>
		<path class="st0" d="M364,168.8c-4.1-2.1-9-2.1-13.1,0l-106.6,61.5c-3.6,2.1-3.6,5.5,0,7.6c4.1,2.1,9,2.1,13.1,0L364,176.4
			C367.7,174.3,367.7,170.9,364,168.8z"/>
		<path class="st1" d="M250.9,240.5c-2.5,0-4.9-0.5-7.1-1.7c-2.1-1.2-3.2-2.9-3.2-4.7s1.1-3.5,3.2-4.7l106.6-61.5
			c4.4-2.3,9.7-2.3,14.1,0c2.1,1.2,3.2,2.9,3.2,4.7s-1.1,3.5-3.2,4.7l-106.6,61.5C255.8,239.9,253.3,240.5,250.9,240.5z
			 M357.5,168.2c-2.1,0-4.2,0.5-6.1,1.4l-106.6,61.5c-1.4,0.8-2.2,1.9-2.2,2.9s0.8,2.1,2.2,2.9c3.8,1.9,8.3,1.9,12.1,0l106.6-61.5
			c1.4-0.8,2.2-1.9,2.2-2.9s-0.8-2.1-2.2-2.9l0,0C361.7,168.6,359.6,168.1,357.5,168.2L357.5,168.2z"/>
		<path class="st1" d="M289.3,213.1c-0.2,0-0.3,0-0.5-0.1l-0.1-0.1c-0.5-0.3-0.7-0.9-0.4-1.3s0.9-0.7,1.3-0.4c0,0,0.1,0,0.1,0.1h0.1
			c0.5,0.3,0.7,0.9,0.4,1.4C290,212.9,289.6,213,289.3,213.1z"/>
		<path class="st1" d="M303.8,204.3l0.4-0.9l-0.6,0.8c-0.5-0.3-0.6-0.9-0.4-1.4c0.3-0.5,0.9-0.6,1.4-0.4l0,0h0.1l-0.4,0.9
			L303.8,204.3z"/>
		<path class="st4" d="M310.7,207.1c0,0-6.8-3.8-13.3-7.4l-53.1,30.6c-3.6,2.1-3.6,5.5,0,7.6c4.1,2.1,9,2.1,13.1,0L310.7,207.1
			L310.7,207.1z"/>
		<path class="st4" d="M310.7,207.1c0,0-6.8-3.8-13.3-7.4l-53.1,30.6c-3.6,2.1-3.6,5.5,0,7.6c4.1,2.1,9,2.1,13.1,0L310.7,207.1
			L310.7,207.1z"/>
		<path class="st5" d="M250.9,240.5c-2.5,0-4.9-0.5-7.1-1.7c-2.1-1.2-3.2-2.9-3.2-4.7s1.1-3.5,3.2-4.7l53.1-30.6
			c0.3-0.2,0.7-0.2,1,0c6.4,3.5,13.2,7.4,13.3,7.4l0,0c0,0,0.1,0,0.1,0.1c0.5,0.3,0.6,0.9,0.3,1.4c-0.1,0.1-0.2,0.3-0.4,0.4
			l-53.3,30.8C255.8,239.9,253.3,240.5,250.9,240.5z M297.4,200.8l-52.6,30.4c-1.4,0.8-2.2,1.9-2.2,2.9s0.8,2.1,2.2,2.9
			c3.8,1.9,8.3,1.9,12.1,0l51.8-29.9C306.4,205.9,301.8,203.3,297.4,200.8L297.4,200.8z"/>
		<path class="st1" d="M288.9,213l0.4-0.9l-0.6,0.8c-0.5-0.3-0.7-0.9-0.4-1.4c0.3-0.5,0.9-0.7,1.4-0.4h0.1l-0.4,0.9L288.9,213z"/>
		<path class="st1" d="M304.4,204.5c-0.2,0-0.3,0-0.5-0.1l-0.1-0.1c-0.5-0.3-0.6-0.9-0.3-1.4c0.3-0.5,0.9-0.6,1.3-0.4h0.1
			c0.5,0.3,0.7,0.9,0.4,1.4C305.1,204.3,304.7,204.5,304.4,204.5z"/>
		<path class="st1" d="M303.7,204.2l0.4-0.9l-0.6,0.8c-0.5-0.3-0.6-0.9-0.4-1.4c0.3-0.5,0.9-0.6,1.4-0.4h0.1l-0.4,0.9L303.7,204.2z"
			/>
		<path class="st1" d="M256,139.5c-0.1,0-0.3,0-0.4-0.1c-0.1-0.1-0.2-0.1-0.3-0.2c-0.1-0.1-0.2-0.2-0.2-0.3c-0.2-0.5,0-1.1,0.5-1.3
			l0,0c0.4-0.1,0.8-0.1,1.1,0.2c0.2,0.2,0.3,0.4,0.3,0.7s-0.1,0.5-0.3,0.7c-0.1,0.1-0.2,0.2-0.3,0.2
			C256.2,139.5,256.1,139.5,256,139.5z"/>
		<path class="st1" d="M215.5,161.9c-0.3-0.5-0.1-1.1,0.4-1.4l0,0c0.5-0.3,1.1-0.1,1.4,0.4l0,0l0,0c0.3,0.5,0.1,1.1-0.4,1.4l0,0l0,0
			c-0.2,0.1-0.3,0.1-0.5,0.1l0,0C216,162.4,215.6,162.3,215.5,161.9z M223.4,157.4c-0.3-0.5-0.1-1.1,0.4-1.4l0,0
			c0.5-0.3,1.1-0.1,1.4,0.4l0,0c0.3,0.5,0.1,1.1-0.4,1.4l0,0c-0.2,0.1-0.3,0.1-0.5,0.1l0,0C223.9,157.9,223.6,157.7,223.4,157.4z
			 M231.3,152.8c-0.3-0.5-0.1-1.1,0.4-1.4l0,0c0.5-0.3,1.1-0.1,1.4,0.4l0,0c0.3,0.5,0.1,1.1-0.4,1.4l0,0c-0.2,0.1-0.3,0.1-0.5,0.1
			l0,0C231.8,153.3,231.5,153.1,231.3,152.8L231.3,152.8z M239.3,148.2c-0.3-0.5-0.1-1.1,0.4-1.4l0,0l0,0c0.5-0.3,1.1-0.1,1.4,0.4
			l0,0c0.3,0.5,0.1,1.1-0.4,1.4l0,0c-0.2,0.1-0.3,0.1-0.5,0.1l0,0C239.8,148.7,239.4,148.5,239.3,148.2z M247.2,143.6
			c-0.3-0.5-0.1-1.1,0.4-1.4l0,0c0.5-0.3,1.1-0.1,1.4,0.4l0,0l0,0c0.3,0.5,0.1,1.1-0.4,1.4l0,0l0,0c-0.2,0.1-0.3,0.1-0.5,0.1l0,0
			C247.7,144.1,247.4,143.9,247.2,143.6L247.2,143.6z"/>
		<path class="st1" d="M208.4,167c-0.1,0-0.3,0-0.4-0.1c-0.1,0-0.2-0.1-0.3-0.2c-0.2-0.2-0.3-0.4-0.3-0.7c0-0.1,0-0.1,0-0.2
			c0-0.1,0-0.1,0.1-0.2c0-0.1,0.1-0.2,0.2-0.3c0.4-0.4,1-0.4,1.4,0c0.2,0.2,0.3,0.4,0.3,0.7C209.4,166.6,209,167,208.4,167
			L208.4,167L208.4,167z"/>
		<path class="st1" d="M189.4,167c-0.1,0-0.3,0-0.4-0.1c-0.1,0-0.2-0.1-0.3-0.2c-0.2-0.2-0.3-0.4-0.3-0.7s0.1-0.5,0.3-0.7
			c0.1-0.1,0.2-0.2,0.3-0.2c0.4-0.1,0.8-0.1,1.1,0.2c0.2,0.2,0.3,0.4,0.3,0.7s-0.1,0.5-0.3,0.7c-0.1,0.1-0.2,0.2-0.3,0.2
			C189.6,167,189.5,167,189.4,167z"/>
		<path class="st1" d="M180.9,162.3c-0.5-0.3-0.6-0.9-0.4-1.3l0,0l0,0c0.3-0.5,0.9-0.6,1.3-0.4l0,0l0,0c0.5,0.3,0.6,0.9,0.4,1.4l0,0
			c-0.2,0.3-0.5,0.5-0.9,0.5l0,0C181.2,162.4,181.1,162.4,180.9,162.3z M173,157.7c-0.5-0.3-0.6-0.9-0.4-1.4l0,0
			c0.3-0.5,0.9-0.6,1.4-0.4l0,0l0,0c0.5,0.3,0.6,0.9,0.4,1.3l0,0l0,0c-0.2,0.3-0.5,0.5-0.9,0.5l0,0
			C173.3,157.9,173.1,157.8,173,157.7z M165.1,153.1c-0.5-0.3-0.6-0.9-0.4-1.3l0,0l0,0c0.3-0.5,0.9-0.6,1.4-0.4l0,0l0,0
			c0.5,0.3,0.6,0.9,0.4,1.4l0,0l0,0c-0.2,0.3-0.5,0.5-0.9,0.5l0,0C165.4,153.3,165.2,153.2,165.1,153.1L165.1,153.1z M157.1,148.6
			c-0.5-0.3-0.6-0.9-0.4-1.4l0,0l0,0c0.3-0.5,0.9-0.6,1.4-0.4l0,0l0,0c0.5,0.3,0.6,0.9,0.4,1.3l0,0l0,0c-0.2,0.3-0.5,0.5-0.9,0.5
			l0,0C157.4,148.7,157.3,148.7,157.1,148.6L157.1,148.6z M149.2,144c-0.5-0.3-0.6-0.9-0.4-1.4l0,0c0.3-0.5,0.9-0.6,1.4-0.4l0,0
			c0.5,0.3,0.6,0.9,0.4,1.4l0,0c-0.2,0.3-0.5,0.5-0.9,0.5l0,0C149.5,144.1,149.3,144.1,149.2,144L149.2,144z"/>
		<path class="st1" d="M141.8,139.5c-0.1,0-0.3,0-0.4-0.1c-0.1,0-0.2-0.1-0.3-0.2c-0.1-0.1-0.2-0.2-0.2-0.3s-0.1-0.3-0.1-0.4
			c0-0.1,0-0.1,0-0.2c0-0.1,0-0.1,0.1-0.2c0-0.1,0.1-0.1,0.1-0.2c0.1-0.2,0.3-0.3,0.4-0.4c0.2-0.1,0.4-0.1,0.6-0.1
			c0.1,0,0.1,0,0.2,0.1s0.1,0.1,0.2,0.1c0.3,0.2,0.4,0.5,0.4,0.8c0,0.1,0,0.3-0.1,0.4c0,0.1-0.1,0.2-0.2,0.3
			c-0.1,0.1-0.2,0.2-0.3,0.2C142,139.5,141.9,139.5,141.8,139.5z"/>
		<path class="st5" d="M289.3,213.1c-0.1,0-0.3,0-0.4-0.1c-0.1,0-0.2-0.1-0.3-0.2c-0.2-0.2-0.3-0.4-0.3-0.7c0-0.1,0-0.3,0.1-0.4
			c0-0.1,0.1-0.2,0.2-0.3s0.2-0.2,0.3-0.2c0.4-0.2,0.8-0.1,1.1,0.2c0.4,0.4,0.4,1,0,1.4l0,0c-0.1,0.1-0.2,0.2-0.3,0.2
			C289.6,213,289.4,213.1,289.3,213.1z"/>
		<path class="st5" d="M264.7,226.5c-0.3-0.5-0.1-1.1,0.4-1.4l0,0l0,0c0.5-0.3,1.1-0.1,1.4,0.3l0,0l0,0c0.3,0.5,0.1,1.1-0.4,1.4l0,0
			c-0.2,0.1-0.3,0.1-0.5,0.1l0,0C265.2,227,264.8,226.8,264.7,226.5z M270.6,223c-0.3-0.5-0.1-1.1,0.4-1.4l0,0l0,0
			c0.5-0.3,1.1-0.1,1.4,0.4l0,0l0,0c0.3,0.5,0.1,1.1-0.4,1.4l0,0c-0.2,0.1-0.3,0.1-0.5,0.1l0,0C271.1,223.5,270.8,223.3,270.6,223z
			 M276.6,219.5c-0.3-0.5-0.1-1.1,0.3-1.4l0,0l0,0c0.5-0.3,1.1-0.1,1.4,0.4l0,0l0,0c0.3,0.5,0.1,1.1-0.4,1.4l0,0l0,0
			c-0.2,0.1-0.3,0.1-0.5,0.1l0,0C277.1,220,276.7,219.8,276.6,219.5z M282.5,216c-0.3-0.5-0.1-1.1,0.4-1.4l0,0
			c0.5-0.3,1.1-0.1,1.4,0.4l0,0c0.3,0.5,0.1,1.1-0.4,1.4l0,0l0,0c-0.2,0.1-0.3,0.1-0.5,0.1l0,0C283,216.5,282.7,216.3,282.5,216
			L282.5,216z"/>
		<path class="st5" d="M259.6,230.4c-0.3,0-0.5-0.1-0.7-0.3c-0.1-0.1-0.2-0.2-0.2-0.3c-0.1-0.1-0.1-0.2-0.1-0.4c0-0.1,0-0.3,0.1-0.4
			c0-0.1,0.1-0.2,0.2-0.3l0.1-0.1c0,0,0.1-0.1,0.2-0.1s0.1,0,0.2-0.1c0.3-0.1,0.7,0,0.9,0.3c0.1,0.1,0.2,0.2,0.2,0.3
			c0.1,0.1,0.1,0.3,0.1,0.4c0,0.1,0,0.3-0.1,0.4c-0.1,0.1-0.1,0.2-0.2,0.3C260.1,230.4,259.8,230.5,259.6,230.4z"/>
		<path class="st5" d="M297.6,200.6c-0.3,0-0.5-0.1-0.7-0.3s-0.3-0.4-0.3-0.7s0.1-0.5,0.3-0.7c0.3-0.3,0.7-0.4,1.1-0.2
			c0.1,0,0.2,0.1,0.3,0.2c0.2,0.2,0.3,0.4,0.3,0.7s-0.1,0.5-0.3,0.7C298.1,200.4,297.8,200.5,297.6,200.6z"/>
		<path class="st5" d="M290.5,196.4c-0.5-0.3-0.6-0.9-0.3-1.4l0,0l0,0c0.3-0.5,0.9-0.6,1.4-0.3l0,0l0,0c0.5,0.3,0.6,0.9,0.3,1.4l0,0
			c-0.2,0.3-0.5,0.5-0.9,0.5l0,0C290.9,196.5,290.7,196.5,290.5,196.4z M284,192.4c-0.5-0.3-0.6-0.9-0.3-1.4l0,0
			c0.3-0.5,0.9-0.6,1.4-0.3l0,0c0.5,0.3,0.6,0.9,0.3,1.4l0,0l0,0c-0.2,0.3-0.5,0.5-0.9,0.5l0,0C284.4,192.5,284.2,192.5,284,192.4z"
			/>
		<path class="st5" d="M278.1,188.5c-0.1,0-0.3,0-0.4-0.1s-0.2-0.1-0.3-0.2c-0.1-0.1-0.2-0.2-0.2-0.3c-0.1-0.1-0.1-0.3-0.1-0.4
			c0-0.6,0.4-1,1-1c0.3,0,0.5,0.1,0.7,0.3c0,0.1,0.1,0.1,0.1,0.2c0,0.1,0.1,0.1,0.1,0.2c0,0.1,0.1,0.1,0.1,0.2c0,0.1,0,0.1,0,0.2
			c0,0.3-0.1,0.5-0.3,0.7c-0.1,0.1-0.2,0.2-0.3,0.2C278.3,188.5,278.2,188.5,278.1,188.5z"/>
		<path class="st5" d="M274.6,189.6c-1.2,0-2.4-0.3-3.4-0.8c-1.4-0.6-2.1-2.2-1.5-3.6c0.3-0.7,0.8-1.2,1.5-1.5
			c2.1-1.1,4.7-1.1,6.8,0c1.4,0.6,2.1,2.2,1.5,3.6c-0.3,0.7-0.8,1.2-1.5,1.5C276.9,189.4,275.8,189.7,274.6,189.6z M274.6,184.9
			c-0.8,0-1.7,0.2-2.4,0.6c-0.4,0.3-0.7,0.6-0.7,0.8s0.3,0.6,0.7,0.8c1.5,0.8,3.3,0.8,4.8,0c0.4-0.3,0.7-0.6,0.7-0.8
			s-0.3-0.6-0.7-0.8l0,0C276.3,185.1,275.4,184.9,274.6,184.9L274.6,184.9z"/>
		<path class="st4" d="M294.8,196.2v7.1c0,1.4,0.9,2.7,2.7,3.8c4.1,2.1,9,2.1,13.1,0c1.8-1,2.7-2.4,2.7-3.8v-7.1H294.8z"/>
		<path class="st4" d="M304.3,208.7c2.2,0,4.4-0.5,6.3-1.6c1.8-1,2.7-2.4,2.7-3.8v-7.1h-9V208.7z"/>
		<ellipse class="st0" cx="304.1" cy="196.2" rx="9.3" ry="5.4"/>
		<path class="st5" d="M304.1,202.5c-2.5,0-4.9-0.5-7.1-1.7c-2.1-1.2-3.2-2.9-3.2-4.7s1.1-3.5,3.2-4.7c4.4-2.3,9.7-2.3,14.1,0l0,0
			c2.1,1.2,3.2,2.9,3.2,4.7s-1.1,3.5-3.2,4.7S306.6,202.6,304.1,202.5z M304.1,191.8c-2.1,0-4.2,0.5-6.1,1.4
			c-1.4,0.8-2.2,1.9-2.2,2.9s0.8,2.1,2.2,2.9c3.8,1.9,8.3,1.9,12.1,0c1.4-0.8,2.2-1.9,2.2-2.9s-0.8-2.1-2.2-2.9
			C308.3,192.3,306.2,191.8,304.1,191.8z"/>
		<path class="st6" d="M304.1,209.7c-2.5,0-4.9-0.5-7.1-1.7c-2.1-1.2-3.2-2.9-3.2-4.7v-7.1c0-1.8,1.1-3.5,3.2-4.7
			c4.4-2.3,9.7-2.3,14.1,0l0,0c2.1,1.2,3.2,2.9,3.2,4.7v7.1c0,1.8-1.1,3.5-3.2,4.7C309,209.1,306.6,209.7,304.1,209.7z M304.1,191.8
			c-2.1,0-4.2,0.5-6.1,1.4c-1.4,0.8-2.2,1.9-2.2,2.9v7.1c0,1.1,0.8,2.1,2.2,2.9c3.8,1.9,8.3,1.9,12.1,0c1.4-0.8,2.2-1.9,2.2-2.9
			v-7.1c0-1.1-0.8-2.1-2.2-2.9C308.3,192.3,306.2,191.8,304.1,191.8z"/>
		<ellipse class="st7" cx="304.1" cy="203.3" rx="9.3" ry="5.4"/>
		<path class="st1" d="M319.4,195.8c-0.2,0-0.3,0-0.5-0.1l-0.1-0.1c-0.5-0.3-0.6-0.9-0.4-1.4c0.3-0.5,0.9-0.6,1.4-0.4h0.1
			c0.5,0.3,0.7,0.9,0.4,1.4C320,195.6,319.7,195.8,319.4,195.8z"/>
		<path class="st1" d="M334.3,187.2c-0.2,0-0.3,0-0.5-0.1l-0.1-0.1c-0.5-0.3-0.7-0.9-0.4-1.4c0.3-0.5,0.9-0.7,1.4-0.4l0,0h0.1
			c0.5,0.3,0.7,0.9,0.4,1.4C335,187,334.7,187.2,334.3,187.2z"/>
		<path class="st1" d="M348.8,178.4l0.4-0.9l-0.6,0.8c-0.5-0.3-0.6-0.9-0.4-1.4c0.3-0.5,0.9-0.6,1.4-0.4h0.1l-0.4,0.9L348.8,178.4z"
			/>
		<path class="st1" d="M232.2,153.3c-0.1,0-0.3,0-0.4-0.1c-0.1,0-0.2-0.1-0.3-0.2c-0.2-0.2-0.3-0.4-0.3-0.7c0-0.1,0-0.3,0.1-0.4
			c0-0.1,0.1-0.2,0.2-0.3c0.4-0.4,1-0.4,1.4,0c0.1,0.1,0.2,0.2,0.2,0.3s0.1,0.3,0.1,0.4c0,0.3-0.1,0.5-0.3,0.7
			c-0.1,0.1-0.2,0.2-0.3,0.2C232.5,153.3,232.3,153.3,232.2,153.3z"/>
		<path class="st1" d="M250.2,163.8c-0.5-0.3-0.6-0.9-0.4-1.4l0,0c0.3-0.5,0.9-0.6,1.4-0.4l0,0c0.5,0.3,0.6,0.9,0.4,1.4l0,0
			c-0.2,0.3-0.5,0.5-0.9,0.5l0,0C250.5,164,250.3,163.9,250.2,163.8z M244,160.3c-0.5-0.3-0.6-0.9-0.4-1.4l0,0
			c0.3-0.5,0.9-0.6,1.4-0.4l0,0c0.5,0.3,0.6,0.9,0.4,1.4l0,0c-0.2,0.3-0.5,0.5-0.9,0.5l0,0C244.4,160.4,244.2,160.4,244,160.3z
			 M237.9,156.7c-0.5-0.3-0.6-0.9-0.4-1.4l0,0c0.3-0.5,0.9-0.6,1.4-0.4l0,0l0,0c0.5,0.3,0.6,0.9,0.4,1.4l0,0
			c-0.2,0.3-0.5,0.5-0.9,0.5l0,0C238.2,156.8,238,156.8,237.9,156.7z"/>
		<path class="st1" d="M256.9,167.5c-0.1,0-0.3,0-0.4-0.1c-0.1,0-0.2-0.1-0.3-0.2c-0.2-0.2-0.3-0.4-0.3-0.7c0-0.1,0-0.1,0-0.2
			c0-0.1,0-0.1,0.1-0.2c0-0.1,0.1-0.2,0.2-0.3c0.4-0.4,1-0.4,1.4,0c0.2,0.2,0.3,0.4,0.3,0.7s-0.1,0.5-0.3,0.7
			c-0.1,0.1-0.2,0.2-0.3,0.2C257.1,167.5,257,167.5,256.9,167.5z"/>
		<rect class="st7" width="440" height="300"/>
		<rect class="st7" width="440" height="300"/>
	</g>
	<rect class="st7" width="440" height="300"/>
</g>
</svg>
