<?xml version="1.0" encoding="utf-8"?>
<!-- Generator: Adobe Illustrator 24.1.2, SVG Export Plug-In . SVG Version: 6.00 Build 0)  -->
<svg version="1.1" id="Layer_1" xmlns="http://www.w3.org/2000/svg" xmlns:xlink="http://www.w3.org/1999/xlink" x="0px" y="0px"
	 width="440px" height="300px" viewBox="0 0 440 300" style="enable-background:new 0 0 440 300;" xml:space="preserve">
<style type="text/css">
	.st0{fill:none;}
	.st1{fill:#C4D7D3;}
	.st2{fill:#27ae60;}
	.st3{fill:#FFFFFF;}
	.st4{fill:#185849;}
	.st5{fill:#E9EBDF;}
	.st6{fill:#4D9987;}
	.st7{fill:#0E352C;}
</style>
<g>
	<g>
		<rect class="st0" width="440" height="300"/>
		<polygon class="st0" points="400,150 220,253.9 40,150 220,46.1 		"/>
		<path class="st1" d="M166.6,151c-0.6,0-1-0.4-1-1c0-0.4,0.2-0.7,0.5-0.9l53.4-30.8c0.5-0.3,1.1-0.1,1.4,0.4
			c0.3,0.5,0.1,1.1-0.4,1.4l-53.4,30.8C167,151,166.8,151,166.6,151z"/>
		<path class="st2" d="M273.4,151c-0.2,0-0.3,0-0.5-0.1L219.5,120c-0.5-0.3-0.6-0.9-0.4-1.4c0.3-0.5,0.9-0.6,1.4-0.4l0,0l53.4,30.8
			c0.5,0.3,0.6,0.9,0.4,1.4C274.1,150.8,273.8,151,273.4,151L273.4,151z"/>
		<polygon class="st1" points="234.5,98.2 220,106.6 220,180.8 273.4,150 		"/>
		<polygon class="st1" points="205.5,98.2 220,106.6 220,180.8 166.6,150 		"/>
		<polygon class="st3" points="205.5,98.2 220,89.8 234.5,98.2 220,106.6 		"/>
		<polygon class="st1" points="220,46.1 220,73.8 234.5,65.5 		"/>
		<polygon class="st3" points="220,46.1 220,73.8 205.5,65.5 		"/>
		<path class="st2" d="M220,74.8c-0.6,0-1-0.4-1-1V46.1c0-0.6,0.4-1,1-1s1,0.4,1,1v27.8C221,74.4,220.6,74.8,220,74.8z"/>
		<path class="st4" d="M234.5,66.5c-0.1,0-0.3,0-0.4-0.1c-0.2-0.1-0.4-0.3-0.5-0.6c0-0.1-0.1-0.2-0.1-0.4c0-0.1,0-0.1,0-0.2
			s0-0.1,0.1-0.2c0-0.1,0.1-0.1,0.1-0.2s0.1-0.1,0.1-0.2c0.1-0.1,0.2-0.2,0.3-0.2c0.2-0.1,0.5-0.1,0.8,0c0.1,0,0.2,0.1,0.3,0.2
			c0,0,0.1,0.1,0.1,0.2s0.1,0.1,0.1,0.2s0,0.1,0.1,0.2c0,0.1,0,0.1,0,0.2c0,0.3-0.1,0.5-0.3,0.7C235.1,66.4,234.8,66.5,234.5,66.5
			L234.5,66.5z"/>
		<path class="st4" d="M233.5,91.6c0-0.6,0.4-1,1-1l0,0c0.6,0,1,0.4,1,1l0,0c0,0.6-0.4,1-1,1l0,0C234,92.6,233.5,92.2,233.5,91.6z
			 M233.5,85.1c0-0.6,0.4-1,1-1l0,0c0.6,0,1,0.4,1,1l0,0c0,0.6-0.4,1-1,1l0,0C234,86.1,233.5,85.7,233.5,85.1L233.5,85.1z
			 M233.5,78.5c0-0.6,0.4-1,1-1l0,0c0.6,0,1,0.4,1,1l0,0c0,0.6-0.4,1-1,1l0,0C234,79.5,233.5,79.1,233.5,78.5z M233.5,72
			c0-0.5,0.5-1,1-1l0,0c0.5,0,1,0.4,1,1l0,0l0,0c0,0.6-0.4,1-1,1l0,0l0,0C234,73,233.5,72.6,233.5,72L233.5,72z"/>
		<path class="st4" d="M234.5,99.2c-0.3,0-0.5-0.1-0.7-0.3c-0.1-0.1-0.2-0.2-0.2-0.3c0-0.1-0.1-0.2-0.1-0.4c0-0.1,0-0.3,0.1-0.4
			s0.1-0.2,0.2-0.3c0.1-0.1,0.2-0.2,0.3-0.2c0.2-0.1,0.5-0.1,0.8,0c0.1,0.1,0.2,0.1,0.3,0.2s0.2,0.2,0.2,0.3
			c0.1,0.1,0.1,0.3,0.1,0.4s0,0.3-0.1,0.4c0,0.1-0.1,0.2-0.2,0.3C235.1,99.1,234.8,99.2,234.5,99.2z"/>
		<path class="st4" d="M205.5,66.5c-0.5,0-1-0.4-1-1l0,0c0-0.1,0-0.3,0.1-0.4s0.1-0.2,0.2-0.3c0.4-0.4,1-0.4,1.4,0
			c0.1,0.1,0.2,0.2,0.2,0.3c0.1,0.1,0.1,0.2,0.1,0.4c0,0.3-0.1,0.5-0.3,0.7C206,66.4,205.7,66.5,205.5,66.5z"/>
		<path class="st4" d="M204.5,91.6c0-0.6,0.4-1,1-1l0,0c0.6,0,1,0.4,1,1l0,0c0,0.6-0.4,1-1,1l0,0C204.9,92.6,204.5,92.2,204.5,91.6z
			 M204.5,85.1c0-0.5,0.4-1,1-1l0,0l0,0c0.6,0,1,0.4,1,1l0,0c0,0.6-0.4,1-1,1l0,0C204.9,86.1,204.5,85.7,204.5,85.1L204.5,85.1z
			 M204.5,78.5c0-0.6,0.4-1,1-1l0,0c0.6,0,1,0.4,1,1l0,0c0,0.6-0.4,1-1,1l0,0C204.9,79.5,204.5,79.1,204.5,78.5z M204.5,72
			c0-0.6,0.4-1,1-1l0,0l0,0c0.6,0,1,0.4,1,1l0,0l0,0c0,0.6-0.4,1-1,1l0,0C204.9,73,204.5,72.6,204.5,72z"/>
		<path class="st4" d="M205.5,99.2c-0.3,0-0.5-0.1-0.7-0.3c-0.4-0.4-0.4-1,0-1.4s1-0.4,1.4,0c0.2,0.2,0.3,0.4,0.3,0.7
			C206.5,98.7,206,99.2,205.5,99.2L205.5,99.2z"/>
		<path class="st2" d="M220,107.6c-0.2,0-0.3,0-0.5-0.1L205,99.1c-0.5-0.3-0.6-0.9-0.4-1.4c0.1-0.2,0.2-0.3,0.4-0.4l14.5-8.4
			c0.3-0.2,0.7-0.2,1,0l14.5,8.4c0.5,0.3,0.6,0.9,0.4,1.4c-0.1,0.2-0.2,0.3-0.4,0.4l-14.5,8.4C220.3,107.5,220.2,107.6,220,107.6z
			 M207.5,98.2l12.5,7.2l12.5-7.2L220,90.9L207.5,98.2z"/>
		<path class="st4" d="M220,74.8c-0.2,0-0.3,0-0.5-0.1L205,66.3c-0.5-0.3-0.6-0.9-0.4-1.4c0,0,0-0.1,0.1-0.1l14.5-19.4
			c0.4-0.4,1-0.5,1.5-0.1c0.1,0,0.1,0.1,0.1,0.1l14.5,19.4c0.3,0.4,0.2,1.1-0.2,1.4c0,0-0.1,0-0.1,0.1l-14.5,8.4
			C220.3,74.8,220.2,74.8,220,74.8z M206.9,65.2l13.1,7.5l13.1-7.5L220,47.7L206.9,65.2z"/>
		<path class="st2" d="M220,181.8c-0.6,0-1-0.4-1-1v-74.2c0-0.4,0.2-0.7,0.5-0.9l14.5-8.4c0.4-0.3,1-0.1,1.3,0.3l38.9,51.8
			c0.3,0.4,0.2,1.1-0.2,1.4c0,0-0.1,0-0.1,0.1l-53.4,30.8C220.3,181.8,220.2,181.8,220,181.8z M221,107.2v71.9l50.9-29.4l-37.7-50.2
			L221,107.2z"/>
		<path class="st4" d="M220,181.8c-0.2,0-0.3,0-0.5-0.1l-53.4-30.8c-0.5-0.3-0.6-0.9-0.4-1.4c0,0,0-0.1,0.1-0.1l38.9-51.8
			c0.1-0.1,0.2-0.2,0.3-0.3l14.5-8.4c0.3-0.2,0.7-0.2,1,0l14.5,8.4c0.1,0.1,0.2,0.2,0.3,0.3l38.9,51.8c0.3,0.4,0.2,1.1-0.2,1.4
			c0,0-0.1,0-0.1,0.1l-53.4,30.8C220.3,181.8,220.2,181.8,220,181.8z M168.1,149.7l51.9,30l51.9-30l-38.1-50.8l-13.9-8l-13.9,8
			L168.1,149.7z"/>
		<path class="st4" d="M220,181.8c-0.2,0-0.3,0-0.5-0.1l-53.4-30.8c-0.5-0.3-0.6-0.9-0.4-1.4c0,0,0-0.1,0.1-0.1l38.9-51.8
			c0.1-0.1,0.2-0.2,0.3-0.3l14.5-8.4c0.3-0.2,0.7-0.2,1,0l14.5,8.4c0.1,0.1,0.2,0.2,0.3,0.3l38.9,51.8c0.3,0.4,0.2,1.1-0.2,1.4
			c0,0-0.1,0-0.1,0.1l-53.4,30.8C220.3,181.8,220.2,181.8,220,181.8z M168.1,149.7l51.9,30l51.9-30l-38.1-50.8l-13.9-8l-13.9,8
			L168.1,149.7z"/>
		<polygon class="st5" points="254.6,234 220,253.9 220,242.4 254.7,222.5 		"/>
		<path class="st6" d="M220,254.9c-0.6,0-1-0.4-1-1v-11.5c0-0.4,0.2-0.7,0.5-0.9l34.6-19.9c0.5-0.3,1.1-0.1,1.4,0.4
			c0.1,0.2,0.1,0.3,0.1,0.5V234c0,0.4-0.2,0.7-0.5,0.9l-34.6,19.9C220.3,254.9,220.2,254.9,220,254.9z M221,243v9.2l32.6-18.8v-9.2
			L221,243z"/>
		<polygon class="st3" points="185.4,233.9 220,253.9 220,242.4 185.4,222.4 		"/>
		<path class="st6" d="M220,254.9c-0.2,0-0.3,0-0.5-0.1l-34.6-20c-0.3-0.2-0.5-0.5-0.5-0.9v-11.5c0-0.6,0.4-1,1-1
			c0.2,0,0.3,0,0.5,0.1l34.6,20c0.3,0.2,0.5,0.5,0.5,0.9v11.5C221,254.5,220.6,254.9,220,254.9L220,254.9z M186.4,233.3l32.6,18.9
			V243l-32.6-18.9V233.3z"/>
		<polygon class="st3" points="254.7,222.5 220.1,202.4 185.4,222.4 220,242.4 		"/>
		<path class="st6" d="M220,243.4c-0.2,0-0.3,0-0.5-0.1l-34.6-20c-0.5-0.3-0.6-0.9-0.4-1.4c0.1-0.2,0.2-0.3,0.4-0.4l34.6-19.9
			c0.3-0.2,0.7-0.2,1,0l34.6,20c0.5,0.3,0.6,0.9,0.4,1.4c-0.1,0.2-0.2,0.3-0.4,0.4l-34.6,19.9C220.4,243.3,220.2,243.4,220,243.4z
			 M187.4,222.4l32.6,18.9l32.6-18.8L220,203.6L187.4,222.4z"/>
		<path class="st6" d="M237.3,233.4c-0.2,0-0.3,0-0.5-0.1l-17.3-10c-0.5-0.3-0.6-0.9-0.4-1.4c0.1-0.2,0.2-0.3,0.4-0.4l17.3-10
			c0.3-0.2,0.7-0.2,1,0l17.3,10c0.5,0.3,0.6,0.9,0.4,1.4c-0.1,0.2-0.2,0.3-0.4,0.4l-17.3,10C237.7,233.4,237.5,233.4,237.3,233.4z
			 M222,222.4l15.3,8.9l15.3-8.8l-15.3-8.9L222,222.4z"/>
		<path class="st6" d="M220,243.4c-0.2,0-0.3,0-0.5-0.1l-34.6-20c-0.5-0.3-0.6-0.9-0.4-1.4c0.1-0.2,0.2-0.3,0.4-0.4l34.6-19.9
			c0.3-0.2,0.7-0.2,1,0l34.6,20c0.5,0.3,0.6,0.9,0.4,1.4c-0.1,0.2-0.2,0.3-0.4,0.4l-34.6,19.9C220.4,243.3,220.2,243.4,220,243.4z
			 M187.4,222.4l32.6,18.9l32.6-18.8L220,203.6L187.4,222.4z"/>
		<path class="st6" d="M237.3,245c-0.6,0-1-0.4-1-1v-11.6c0-0.6,0.4-1,1-1s1,0.4,1,1V244C238.3,244.5,237.9,245,237.3,245z"/>
		<path class="st6" d="M237.3,226.3c-3.4,0-6-1.7-6-3.9s2.6-3.9,6-3.9s6,1.7,6,3.9S240.7,226.3,237.3,226.3z M237.3,220.6
			c-2.3,0-4,1-4,1.9s1.7,1.9,4,1.9s4-1,4-1.9S239.6,220.6,237.3,220.6L237.3,220.6z"/>
		<ellipse class="st6" cx="220.1" cy="207.5" rx="1.7" ry="1"/>
		<ellipse class="st6" cx="194.3" cy="222.4" rx="1.7" ry="1"/>
		<ellipse class="st6" cx="220" cy="237.3" rx="1.7" ry="1"/>
		<path class="st7" d="M220,254.9c-0.2,0-0.3,0-0.5-0.1l-34.6-20c-0.3-0.2-0.5-0.5-0.5-0.9v-11.5c0-0.4,0.2-0.7,0.5-0.9l34.6-19.9
			c0.3-0.2,0.7-0.2,1,0l17.3,10l0,0l17.3,10c0.3,0.2,0.5,0.5,0.5,0.9V234c0,0.4-0.2,0.7-0.5,0.9l-34.6,19.9
			C220.3,254.9,220.2,254.9,220,254.9z M186.4,233.3l33.6,19.5l33.6-19.4V223L220,203.6L186.4,223V233.3z"/>
		<polygon class="st5" points="237.4,212.4 220,222.4 220.1,210.9 237.4,200.9 		"/>
		<path class="st6" d="M220,223.4c-0.6,0-1-0.4-1-1v-11.5c0-0.4,0.2-0.7,0.5-0.9l17.3-10c0.5-0.3,1.1-0.1,1.4,0.4
			c0.1,0.2,0.1,0.3,0.1,0.5v11.5c0,0.4-0.2,0.7-0.5,0.9l-17.3,10C220.4,223.4,220.2,223.4,220,223.4z M221.1,211.5v9.2l15.3-8.8
			v-9.2L221.1,211.5z"/>
		<polygon class="st3" points="237.3,232.5 220,242.4 185.4,222.4 185.5,210.8 220.1,190.9 237.4,200.9 237.4,200.9 220.1,210.9 
			237.4,220.9 		"/>
		<path class="st6" d="M230,217.6c-0.2,0-0.3,0-0.5-0.1l-10-5.8c-0.5-0.3-0.6-0.9-0.3-1.4c0.3-0.4,0.8-0.6,1.3-0.3l10,5.8
			c0.5,0.3,0.6,0.9,0.4,1.4C230.7,217.4,230.4,217.6,230,217.6z"/>
		<path class="st6" d="M220.1,211.9c-0.6,0-1-0.4-1-1c0-0.4,0.2-0.7,0.5-0.9l17.3-10c0.5-0.3,1.1-0.1,1.4,0.4
			c0.3,0.5,0.1,1.1-0.4,1.4l-17.3,10C220.4,211.8,220.2,211.9,220.1,211.9z"/>
		<polygon class="st5" points="237.3,232.4 220,242.4 220,230.9 237.4,220.9 		"/>
		<path class="st6" d="M220,243.4c-0.6,0-1-0.4-1-1v-11.5c0-0.4,0.2-0.7,0.5-0.9l17.3-10c0.5-0.3,1.1-0.1,1.4,0.4
			c0.1,0.2,0.1,0.3,0.1,0.5v11.5c0,0.4-0.2,0.7-0.5,0.9l-17.3,10C220.4,243.3,220.2,243.4,220,243.4z M221,231.4v9.2l15.3-8.8v-9.2
			L221,231.4z"/>
		<polygon class="st3" points="185.4,222.4 220,242.4 220,230.9 185.5,210.8 		"/>
		<path class="st6" d="M220,243.4c-0.2,0-0.3,0-0.5-0.1l-34.6-20c-0.3-0.2-0.5-0.5-0.5-0.9v-11.5c0-0.6,0.4-1,1-1
			c0.2,0,0.3,0,0.5,0.1l34.6,20c0.3,0.2,0.5,0.5,0.5,0.9v11.5C221,242.9,220.6,243.4,220,243.4L220,243.4z M186.4,221.8l32.6,18.9
			v-9.2l-32.6-18.9V221.8z"/>
		<path class="st6" d="M237.4,233.4c-0.6,0-1-0.4-1-1v-11.6c0-0.6,0.4-1,1-1s1,0.4,1,1v11.6C238.4,233,237.9,233.4,237.4,233.4z"/>
		<ellipse class="st6" cx="220.1" cy="196" rx="1.7" ry="1"/>
		<ellipse class="st6" cx="194.3" cy="210.8" rx="1.7" ry="1"/>
		<ellipse class="st6" cx="220" cy="225.7" rx="1.7" ry="1"/>
		<path class="st7" d="M220,243.4c-0.2,0-0.3,0-0.5-0.1l-34.6-20c-0.3-0.2-0.5-0.5-0.5-0.9v-11.5c0-0.4,0.2-0.7,0.5-0.9l34.6-19.9
			c0.3-0.2,0.7-0.2,1,0l17.3,10c0.3,0.2,0.5,0.5,0.5,0.9v11.5c0,0.4-0.2,0.7-0.5,0.9l-5.8,3.3l5.8,3.4c0.3,0.2,0.5,0.5,0.5,0.9
			l-0.1,11.6c0,0.4-0.2,0.7-0.5,0.9l-17.2,9.9C220.4,243.3,220.2,243.4,220,243.4z M186.4,221.8l33.6,19.5l16.3-9.4l0.1-10.4l-6.8-4
			c-0.5-0.3-0.6-0.9-0.4-1.4c0.1-0.2,0.2-0.3,0.4-0.4l6.8-3.9v-10.4l-16.3-9.4l-33.6,19.4L186.4,221.8z"/>
		<polygon class="st3" points="300.7,168.3 289.9,162.1 279.2,168.3 289.9,174.5 		"/>
		<path class="st3" d="M289.9,175.5c-0.2,0-0.3,0-0.5-0.1l-10.7-6.2c-0.5-0.3-0.6-0.9-0.4-1.4c0.1-0.2,0.2-0.3,0.4-0.4l10.8-6.2
			c0.3-0.2,0.7-0.2,1,0l10.7,6.2c0.5,0.3,0.6,0.9,0.4,1.4c-0.1,0.2-0.2,0.3-0.4,0.4l-10.8,6.2C290.2,175.4,290.1,175.5,289.9,175.5z
			 M281.2,168.3l8.7,5l8.8-5.1l-8.7-5L281.2,168.3z"/>
		<polygon class="st6" points="300.7,182.6 289.9,188.8 289.9,174.5 300.7,168.3 		"/>
		<path class="st3" d="M289.9,189.8c-0.6,0-1-0.4-1-1v-14.3c0-0.4,0.2-0.7,0.5-0.9l10.8-6.2c0.5-0.3,1.1-0.1,1.4,0.4
			c0.1,0.2,0.1,0.3,0.1,0.5v14.3c0,0.4-0.2,0.7-0.5,0.9l-10.8,6.2C290.2,189.7,290.1,189.8,289.9,189.8z M290.9,175.1v12l8.8-5.1
			v-12L290.9,175.1z"/>
		<polygon class="st5" points="279.2,182.6 289.9,188.8 289.9,174.5 279.2,168.3 		"/>
		<path class="st3" d="M289.9,189.8c-0.2,0-0.3,0-0.5-0.1l-10.7-6.2c-0.3-0.2-0.5-0.5-0.5-0.9v-14.3c0-0.6,0.4-1,1-1
			c0.2,0,0.3,0,0.5,0.1l10.7,6.2c0.3,0.2,0.5,0.5,0.5,0.9v14.3C290.9,189.3,290.4,189.8,289.9,189.8z M280.2,182l8.7,5v-12l-8.7-5
			V182z"/>
		<path class="st7" d="M289.9,189.8c-0.2,0-0.3,0-0.5-0.1l-10.7-6.2c-0.3-0.2-0.5-0.5-0.5-0.9v-14.3c0-0.4,0.2-0.7,0.5-0.9l10.8-6.2
			c0.3-0.2,0.7-0.2,1,0l10.7,6.2c0.3,0.2,0.5,0.5,0.5,0.9v14.3c0,0.4-0.2,0.7-0.5,0.9l-10.8,6.2
			C290.2,189.7,290.1,189.8,289.9,189.8z M280.2,182l9.7,5.6l9.8-5.6v-13.2l-9.7-5.6l-9.8,5.6V182z"/>
		<polygon class="st3" points="289.9,174.5 279.2,168.3 249.4,185.5 260.1,191.7 		"/>
		<path class="st6" d="M260.1,192.7c-0.2,0-0.3,0-0.5-0.1l-10.7-6.2c-0.5-0.3-0.6-0.9-0.4-1.4c0.1-0.2,0.2-0.3,0.4-0.4l29.8-17.2
			c0.3-0.2,0.7-0.2,1,0l10.7,6.2c0.5,0.3,0.6,0.9,0.4,1.4c-0.1,0.2-0.2,0.3-0.4,0.4l-29.8,17.2C260.5,192.6,260.3,192.7,260.1,192.7
			z M251.4,185.5l8.7,5l27.8-16l-8.7-5L251.4,185.5z"/>
		<polygon class="st5" points="289.9,188.8 260.1,206 260.1,191.7 289.9,174.5 		"/>
		<path class="st6" d="M260.1,207c-0.6,0-1-0.4-1-1v-14.3c0-0.4,0.2-0.7,0.5-0.9l29.8-17.2c0.5-0.3,1.1-0.1,1.4,0.4
			c0.1,0.2,0.1,0.3,0.1,0.5v14.3c0,0.4-0.2,0.7-0.5,0.9l-29.8,17.2C260.5,206.9,260.3,207,260.1,207z M261.1,192.2v12l27.8-16v-12
			L261.1,192.2z"/>
		<polygon class="st3" points="249.4,199.8 260.1,206 260.1,191.7 249.4,185.5 		"/>
		<path class="st6" d="M260.1,207c-0.2,0-0.3,0-0.5-0.1l-10.7-6.2c-0.3-0.2-0.5-0.5-0.5-0.9v-14.3c0-0.6,0.4-1,1-1
			c0.2,0,0.3,0,0.5,0.1l10.7,6.2c0.3,0.2,0.5,0.5,0.5,0.9V206C261.1,206.5,260.7,207,260.1,207L260.1,207z M250.4,199.2l8.7,5v-12
			l-8.7-5L250.4,199.2z"/>
		<path class="st7" d="M260.1,207c-0.2,0-0.3,0-0.5-0.1l-10.7-6.2c-0.3-0.2-0.5-0.5-0.5-0.9v-14.3c0-0.4,0.2-0.7,0.5-0.9l29.8-17.2
			c0.3-0.2,0.7-0.2,1,0l10.7,6.2c0.3,0.2,0.5,0.5,0.5,0.9v14.3c0,0.4-0.2,0.7-0.5,0.9l-29.8,17.2C260.5,206.9,260.3,207,260.1,207z
			 M250.4,199.2l9.7,5.6l28.8-16.6V175l-9.7-5.6L250.4,186V199.2z"/>
		<polygon class="st3" points="325.8,166.1 315.1,159.9 298.3,169.6 309,175.8 		"/>
		<path class="st3" d="M309,176.8c-0.2,0-0.3,0-0.5-0.1l-10.7-6.2c-0.5-0.3-0.6-0.9-0.4-1.4c0.1-0.2,0.2-0.3,0.4-0.4l16.8-9.7
			c0.3-0.2,0.7-0.2,1,0l10.7,6.2c0.5,0.3,0.6,0.9,0.4,1.4c-0.1,0.2-0.2,0.3-0.4,0.4l-16.8,9.7C309.3,176.8,309.2,176.8,309,176.8z
			 M300.3,169.6l8.7,5l14.8-8.6l-8.7-5L300.3,169.6z"/>
		<polygon class="st6" points="325.8,180.4 309,190.1 309,175.8 325.8,166.1 		"/>
		<path class="st3" d="M309,191.1c-0.6,0-1-0.4-1-1v-14.3c0-0.4,0.2-0.7,0.5-0.9l16.8-9.7c0.5-0.3,1.1-0.1,1.4,0.4
			c0.1,0.2,0.1,0.3,0.1,0.5v14.3c0,0.4-0.2,0.7-0.5,0.9l-16.8,9.7C309.3,191.1,309.2,191.1,309,191.1z M310,176.4v12l14.8-8.6v-12
			L310,176.4z"/>
		<polygon class="st5" points="305.8,179.6 309,190.1 309,175.8 298.3,169.6 		"/>
		<path class="st3" d="M309,191.1c-0.4,0-0.8-0.3-1-0.7l-3.2-10.3l-7.4-9.8c-0.3-0.4-0.2-1.1,0.2-1.4c0.3-0.2,0.8-0.3,1.1-0.1
			l10.7,6.2c0.3,0.2,0.5,0.5,0.5,0.9v14.3C309.9,190.7,309.5,191.1,309,191.1C309.1,191.1,309,191.1,309,191.1z M302,172.9l4.6,6.1
			c0.1,0.1,0.1,0.2,0.2,0.3l1.3,4.2v-7.1L302,172.9z"/>
		<path class="st7" d="M309,191.1c-0.1,0-0.2,0-0.4-0.1c-0.3-0.1-0.5-0.3-0.6-0.6l-3.2-10.3l-7.4-9.8c-0.3-0.4-0.2-1.1,0.2-1.4
			c0,0,0.1,0,0.1-0.1l16.8-9.7c0.3-0.2,0.7-0.2,1,0l10.7,6.2c0.3,0.2,0.5,0.5,0.5,0.9v14.3c0,0.4-0.2,0.7-0.5,0.9l-16.8,9.7
			C309.3,191.1,309.2,191.1,309,191.1z M299.7,169.9l6.8,9.1c0.1,0.1,0.1,0.2,0.2,0.3l2.9,9.3l15.3-8.8v-13.1l-9.7-5.6L299.7,169.9z
			"/>
		<polygon class="st3" points="309,175.8 298.3,169.6 260.1,191.7 270.9,197.9 		"/>
		<path class="st6" d="M270.9,198.9c-0.2,0-0.3,0-0.5-0.1l-10.7-6.2c-0.5-0.3-0.6-0.9-0.4-1.4c0.1-0.2,0.2-0.3,0.4-0.4l38.1-22
			c0.3-0.2,0.7-0.2,1,0l10.7,6.2c0.5,0.3,0.6,0.9,0.4,1.4c-0.1,0.2-0.2,0.3-0.4,0.4l-38.1,22C271.2,198.8,271,198.9,270.9,198.9z
			 M262.1,191.7l8.7,5l36.1-20.9l-8.7-5L262.1,191.7z"/>
		<polygon class="st5" points="309,190.1 270.9,212.2 270.9,197.9 309,175.8 		"/>
		<path class="st6" d="M270.9,213.2c-0.6,0-1-0.4-1-1v-14.3c0-0.4,0.2-0.7,0.5-0.9l38.1-22c0.5-0.3,1.1-0.1,1.4,0.4
			c0.1,0.2,0.1,0.3,0.1,0.5v14.3c0,0.4-0.2,0.7-0.5,0.9l-38.1,22C271.2,213.1,271,213.2,270.9,213.2z M271.9,198.4v12l36.1-20.9v-12
			L271.9,198.4z"/>
		<polygon class="st3" points="260.1,206 270.9,212.2 270.9,197.9 260.1,191.7 		"/>
		<path class="st6" d="M270.9,213.2c-0.2,0-0.3,0-0.5-0.1l-10.7-6.2c-0.3-0.2-0.5-0.5-0.5-0.9v-14.3c0-0.6,0.4-1,1-1
			c0.2,0,0.3,0,0.5,0.1l10.7,6.2c0.3,0.2,0.5,0.5,0.5,0.9v14.3C271.9,212.7,271.4,213.2,270.9,213.2z M261.1,205.4l8.7,5v-12l-8.7-5
			V205.4z"/>
		<path class="st7" d="M270.9,213.2c-0.2,0-0.3,0-0.5-0.1l-10.7-6.2c-0.3-0.2-0.5-0.5-0.5-0.9v-14.3c0-0.4,0.2-0.7,0.5-0.9l38.1-22
			c0.3-0.2,0.7-0.2,1,0l10.7,6.2c0.3,0.2,0.5,0.5,0.5,0.9v14.3c0,0.4-0.2,0.7-0.5,0.9l-38.1,22C271.2,213.1,271,213.2,270.9,213.2z
			 M261.1,205.4l9.7,5.6l37.1-21.4v-13.2l-9.7-5.6l-37.1,21.4V205.4z"/>
		<polygon class="st3" points="349.7,164.7 339,158.5 325.5,166.3 336.3,172.5 		"/>
		<path class="st3" d="M336.3,173.5c-0.2,0-0.3,0-0.5-0.1l-10.7-6.2c-0.5-0.3-0.6-0.9-0.4-1.4c0.1-0.2,0.2-0.3,0.4-0.4l13.5-7.8
			c0.3-0.2,0.7-0.2,1,0l10.7,6.2c0.5,0.3,0.6,0.9,0.4,1.4c-0.1,0.2-0.2,0.3-0.4,0.4l-13.5,7.8C336.6,173.4,336.4,173.5,336.3,173.5z
			 M327.5,166.3l8.7,5l11.5-6.6l-8.7-5L327.5,166.3z"/>
		<polygon class="st6" points="349.7,179 336.3,186.8 336.3,172.5 349.7,164.7 		"/>
		<path class="st3" d="M336.3,187.8c-0.6,0-1-0.4-1-1v-14.3c0-0.4,0.2-0.7,0.5-0.9l13.5-7.8c0.5-0.3,1.1-0.1,1.4,0.4
			c0.1,0.2,0.1,0.3,0.1,0.5V179c0,0.4-0.2,0.7-0.5,0.9l-13.5,7.8C336.6,187.8,336.4,187.8,336.3,187.8z M337.3,173.1v12l11.5-6.6
			v-12L337.3,173.1z"/>
		<polygon class="st5" points="325.5,180.6 336.3,186.8 336.3,172.5 325.5,166.3 		"/>
		<path class="st3" d="M336.3,187.8c-0.2,0-0.3,0-0.5-0.1l-10.7-6.2c-0.3-0.2-0.5-0.5-0.5-0.9v-14.3c0-0.6,0.4-1,1-1
			c0.2,0,0.3,0,0.5,0.1l10.7,6.2c0.3,0.2,0.5,0.5,0.5,0.9v14.3C337.3,187.4,336.8,187.8,336.3,187.8z M326.5,180l8.7,5v-12l-8.7-5
			V180z"/>
		<path class="st7" d="M336.3,187.8c-0.2,0-0.3,0-0.5-0.1l-10.7-6.2c-0.3-0.2-0.5-0.5-0.5-0.9v-14.3c0-0.4,0.2-0.7,0.5-0.9l13.5-7.8
			c0.3-0.2,0.7-0.2,1,0l10.7,6.2c0.3,0.2,0.5,0.5,0.5,0.9V179c0,0.4-0.2,0.7-0.5,0.9l-13.5,7.8C336.6,187.8,336.4,187.8,336.3,187.8
			z M326.5,180l9.7,5.6l12.5-7.2v-13.2l-9.7-5.6l-12.5,7.2V180z"/>
		<polygon class="st3" points="336.3,172.5 325.5,166.3 270.9,197.9 281.6,204.1 		"/>
		<path class="st6" d="M281.6,205.1c-0.2,0-0.3,0-0.5-0.1l-10.7-6.2c-0.5-0.3-0.6-0.9-0.4-1.4c0.1-0.2,0.2-0.3,0.4-0.4l54.7-31.6
			c0.3-0.2,0.7-0.2,1,0l10.7,6.2c0.5,0.3,0.6,0.9,0.4,1.4c-0.1,0.2-0.2,0.3-0.4,0.4L282.1,205C281.9,205,281.8,205.1,281.6,205.1z
			 M272.9,197.9l8.7,5l52.7-30.4l-8.7-5L272.9,197.9z"/>
		<polygon class="st5" points="336.3,186.8 281.6,218.4 281.6,204.1 336.3,172.5 		"/>
		<path class="st6" d="M281.6,219.4c-0.6,0-1-0.4-1-1v-14.3c0-0.4,0.2-0.7,0.5-0.9l54.7-31.6c0.5-0.3,1.1-0.1,1.4,0.4
			c0.1,0.2,0.1,0.3,0.1,0.5v14.3c0,0.4-0.2,0.7-0.5,0.9l-54.7,31.6C281.9,219.3,281.8,219.4,281.6,219.4z M282.6,204.6v12l52.7-30.4
			v-12L282.6,204.6z"/>
		<polygon class="st3" points="270.9,212.2 281.6,218.4 281.6,204.1 270.9,197.9 		"/>
		<path class="st6" d="M281.6,219.4c-0.2,0-0.3,0-0.5-0.1l-10.7-6.2c-0.3-0.2-0.5-0.5-0.5-0.9v-14.3c0-0.6,0.4-1,1-1
			c0.2,0,0.3,0,0.5,0.1l10.7,6.2c0.3,0.2,0.5,0.5,0.5,0.9v14.3C282.6,218.9,282.1,219.4,281.6,219.4L281.6,219.4z M271.9,211.6
			l8.7,5v-12l-8.7-5V211.6z"/>
		<path class="st7" d="M281.6,219.4c-0.2,0-0.3,0-0.5-0.1l-10.7-6.2c-0.3-0.2-0.5-0.5-0.5-0.9v-14.3c0-0.4,0.2-0.7,0.5-0.9
			l54.7-31.6c0.3-0.2,0.7-0.2,1,0l10.7,6.2c0.3,0.2,0.5,0.5,0.5,0.9v14.3c0,0.4-0.2,0.7-0.5,0.9l-54.7,31.6
			C281.9,219.3,281.8,219.4,281.6,219.4z M271.9,211.6l9.7,5.6l53.7-31V173l-9.7-5.6l-53.7,31V211.6z"/>
		<polygon class="st3" points="318.3,132.6 344.1,117.7 318.3,102.8 		"/>
		<path class="st6" d="M318.3,133.6c-0.6,0-1-0.4-1-1v-29.8c0-0.6,0.4-1,1-1c0.2,0,0.3,0,0.5,0.1l25.8,14.9c0.5,0.3,0.6,0.9,0.4,1.4
			c-0.1,0.2-0.2,0.3-0.4,0.4l-25.8,14.9C318.6,133.6,318.4,133.6,318.3,133.6z M319.3,104.5v26.4l22.8-13.2L319.3,104.5z"/>
		<polygon class="st5" points="318.3,102.8 327.3,127.4 318.3,132.6 		"/>
		<polygon class="st5" points="318.3,132.6 292.4,117.7 318.3,102.8 		"/>
		<path class="st6" d="M318.3,133.6c-0.2,0-0.3,0-0.5-0.1L292,118.6c-0.5-0.3-0.6-0.9-0.4-1.4c0.1-0.2,0.2-0.3,0.4-0.4l25.8-14.9
			c0.5-0.3,1.1-0.1,1.4,0.4c0.1,0.2,0.1,0.3,0.1,0.5v29.8C319.3,133.2,318.8,133.7,318.3,133.6L318.3,133.6z M294.4,117.7l22.8,13.2
			v-26.4L294.4,117.7z"/>
		<polygon class="st5" points="302.2,126 308.6,128.5 297.9,134.7 297.6,126 		"/>
		<path class="st6" d="M297.9,135.7c-0.5,0-1-0.4-1-1l-0.3-8.7c0-0.6,0.4-1,1-1l0,0h4.6c0.1,0,0.2,0,0.4,0.1l6.4,2.5
			c0.5,0.2,0.8,0.8,0.6,1.3c-0.1,0.2-0.2,0.4-0.4,0.5l-10.7,6.2C298.3,135.6,298.1,135.7,297.9,135.7z M298.7,127l0.2,6l7.4-4.3
			L302,127H298.7z"/>
		<polygon class="st3" points="318.3,122.9 292.4,137.8 318.3,152.7 344.1,137.8 		"/>
		<path class="st6" d="M318.3,153.7c-0.2,0-0.3,0-0.5-0.1L292,138.7c-0.5-0.3-0.6-0.9-0.4-1.4c0.1-0.2,0.2-0.3,0.4-0.4l25.8-14.9
			c0.3-0.2,0.7-0.2,1,0l25.8,14.9c0.5,0.3,0.6,0.9,0.4,1.4c-0.1,0.2-0.2,0.3-0.4,0.4l-25.8,14.9
			C318.6,153.7,318.4,153.7,318.3,153.7z M294.4,137.8l23.8,13.8l23.8-13.8L318.2,124L294.4,137.8z"/>
		<polygon class="st5" points="344.1,137.8 318.3,152.7 318.3,132.6 344.1,117.7 		"/>
		<path class="st6" d="M318.3,153.7c-0.6,0-1-0.4-1-1v-20.1c0-0.4,0.2-0.7,0.5-0.9l25.8-14.9c0.5-0.3,1.1-0.1,1.4,0.4
			c0.1,0.2,0.1,0.3,0.1,0.5v20.1c0,0.4-0.2,0.7-0.5,0.9l-25.8,14.9C318.6,153.7,318.4,153.7,318.3,153.7z M319.3,133.2V151
			l23.8-13.8v-17.8L319.3,133.2z"/>
		<path class="st3" d="M292.4,117.7v20.1l25.8,14.9v-20.1L292.4,117.7z"/>
		<path class="st6" d="M318.3,153.7c-0.2,0-0.3,0-0.5-0.1L292,138.7c-0.3-0.2-0.5-0.5-0.5-0.9v-20.1c0-0.6,0.4-1,1-1
			c0.2,0,0.3,0,0.5,0.1l25.8,14.9c0.3,0.2,0.5,0.5,0.5,0.9v20.1C319.3,153.3,318.8,153.7,318.3,153.7z M293.4,137.2l23.8,13.8v-17.8
			l-23.8-13.8V137.2z"/>
		<path class="st5" d="M309.6,136.4c0,0.9-0.6,1.3-1.3,0.9l-6.1-3.5c-0.8-0.6-1.2-1.4-1.3-2.4v-0.9c0-0.9,0.6-1.3,1.3-0.9l6.1,3.5
			c0.8,0.6,1.2,1.4,1.3,2.4V136.4z"/>
		<path class="st6" d="M308.9,138.5c-0.4,0-0.7-0.1-1-0.3l-6.1-3.5c-1.1-0.7-1.7-1.9-1.8-3.3v-0.9c-0.1-0.7,0.3-1.5,0.9-1.9
			c0.6-0.3,1.3-0.3,1.8,0.1l6.1,3.5c1.1,0.7,1.7,1.9,1.8,3.3v0.9c0.1,0.7-0.3,1.5-0.9,1.9C309.5,138.4,309.2,138.5,308.9,138.5z
			 M302,130.6v0.9c0,0.6,0.3,1.1,0.8,1.5l5.9,3.4v-0.9c0-0.6-0.3-1.1-0.8-1.5L302,130.6z"/>
		<path class="st3" d="M335.5,121.5c0,0.9-0.6,1.3-1.3,0.9l-6.1-3.5c-0.8-0.6-1.2-1.4-1.2-2.4v-0.9c0-0.9,0.6-1.3,1.2-0.9l6.1,3.5
			c0.8,0.6,1.2,1.4,1.3,2.4V121.5z"/>
		<path class="st6" d="M334.7,123.6c-0.4,0-0.7-0.1-1-0.3l-6.1-3.5c-1.1-0.7-1.7-1.9-1.8-3.3v-0.9c-0.1-0.7,0.3-1.5,0.9-1.9
			c0.6-0.3,1.3-0.3,1.8,0.1l6.1,3.5c1.1,0.7,1.7,1.9,1.8,3.3v0.9c0.1,0.7-0.3,1.5-0.9,1.9C335.3,123.5,335,123.6,334.7,123.6z
			 M327.9,115.6v0.9c0,0.6,0.3,1.1,0.8,1.5l5.9,3.4v-0.9c0-0.6-0.3-1.1-0.8-1.5L327.9,115.6z"/>
		<path class="st7" d="M318.3,133.6c-0.6,0-1-0.4-1-1c0-0.4,0.2-0.7,0.5-0.9l25.8-14.9c0.5-0.3,1.1-0.1,1.4,0.4s0.1,1.1-0.4,1.4
			l-25.8,14.9C318.6,133.6,318.4,133.6,318.3,133.6z"/>
		<path class="st7" d="M318.3,133.6c-0.2,0-0.3,0-0.5-0.1L292,118.6c-0.5-0.3-0.6-0.9-0.4-1.4c0.3-0.5,0.9-0.6,1.4-0.4l25.8,14.9
			c0.5,0.3,0.6,0.9,0.4,1.4C319,133.5,318.6,133.7,318.3,133.6L318.3,133.6z"/>
		<path class="st7" d="M292.4,118.7c-0.6,0-1-0.4-1-1c0-0.4,0.2-0.7,0.5-0.9l25.8-14.9c0.5-0.3,1.1-0.1,1.4,0.4s0.1,1.1-0.4,1.4
			l-25.8,14.9C292.8,118.7,292.6,118.7,292.4,118.7z"/>
		<polygon class="st3" points="318.3,102.8 292.4,117.7 318.3,132.6 344.1,117.7 		"/>
		<path class="st6" d="M318.3,133.6c-0.2,0-0.3,0-0.5-0.1L292,118.6c-0.5-0.3-0.6-0.9-0.4-1.4c0.1-0.2,0.2-0.3,0.4-0.4l25.8-14.9
			c0.3-0.2,0.7-0.2,1,0l25.8,14.9c0.5,0.3,0.6,0.9,0.4,1.4c-0.1,0.2-0.2,0.3-0.4,0.4l-25.8,14.9
			C318.6,133.6,318.4,133.7,318.3,133.6z M294.4,117.7l23.8,13.8l23.8-13.8L318.3,104L294.4,117.7z"/>
		<path class="st6" d="M331.2,126.2c-0.2,0-0.3,0-0.5-0.1l-25.8-14.9c-0.5-0.3-0.6-0.9-0.4-1.4c0.3-0.5,0.9-0.6,1.4-0.4l25.8,14.9
			c0.5,0.3,0.6,0.9,0.4,1.4C331.9,126,331.5,126.2,331.2,126.2z"/>
		<path class="st5" d="M323.6,117.4l-6,3.5c-0.6,0.3-1.4,0.3-2,0l-2.8-1.6c-0.3-0.1-0.5-0.4-0.4-0.8c0.1-0.2,0.2-0.3,0.4-0.4l6-3.5
			c0.6-0.3,1.4-0.3,2,0l2.8,1.6c0.3,0.1,0.5,0.4,0.4,0.8C324,117.1,323.8,117.3,323.6,117.4z"/>
		<path class="st6" d="M316.6,122.1c-0.5,0-1-0.1-1.5-0.4l-2.8-1.6c-0.8-0.4-1.1-1.3-0.8-2.1c0.2-0.3,0.4-0.6,0.8-0.8l6-3.5
			c0.9-0.5,2-0.5,3,0l2.8,1.6c0.8,0.4,1.1,1.3,0.8,2.1c-0.2,0.3-0.4,0.6-0.8,0.8l0,0l-6,3.5C317.7,122,317.1,122.1,316.6,122.1z
			 M313.9,118.7l2.2,1.3c0.3,0.1,0.7,0.1,1,0l5.5-3.2l-2.2-1.3c-0.3-0.1-0.7-0.1-1,0L313.9,118.7z"/>
		<path class="st6" d="M328.9,137.6c-0.6,0-1-0.4-1-1c0-0.4,0.2-0.7,0.5-0.9l4.6-2.7c0.5-0.3,1.1-0.1,1.4,0.4s0.1,1.1-0.4,1.4l0,0
			l-4.6,2.7C329.2,137.5,329,137.6,328.9,137.6z"/>
		<path class="st7" d="M318.3,153.7c-0.2,0-0.3,0-0.5-0.1L292,138.7c-0.3-0.2-0.5-0.5-0.5-0.9v-20.1c0-0.4,0.2-0.7,0.5-0.9
			l25.8-14.9c0.3-0.2,0.7-0.2,1,0l25.8,14.9c0.3,0.2,0.5,0.5,0.5,0.9v20.1c0,0.4-0.2,0.7-0.5,0.9l-25.8,14.9
			C318.6,153.7,318.4,153.7,318.3,153.7z M293.4,137.2l24.8,14.3l24.8-14.3v-18.9L318.3,104l-24.8,14.3v18.9H293.4z"/>
		<polygon class="st3" points="87.8,131.2 125.8,153.1 125.7,144.4 87.8,122.5 		"/>
		<path class="st6" d="M125.8,154.1c-0.2,0-0.3,0-0.5-0.1l-38-21.9c-0.3-0.2-0.5-0.5-0.5-0.9l-0.1-8.7c0-0.6,0.4-1,1-1
			c0.2,0,0.4,0,0.5,0.1l38,21.9c0.3,0.2,0.5,0.5,0.5,0.9l0.1,8.7c0,0.4-0.2,0.7-0.5,0.9C126.2,154.1,126,154.1,125.8,154.1z
			 M88.8,130.7l36,20.7V145l-36-20.7V130.7z"/>
		<polygon class="st5" points="173,125.8 125.8,153.1 125.7,144.4 172.9,117.1 		"/>
		<path class="st6" d="M125.8,154.1c-0.5,0-1-0.4-1-1l-0.1-8.7c0-0.4,0.2-0.7,0.5-0.9l47.2-27.3c0.5-0.3,1.1-0.1,1.4,0.4
			c0.1,0.1,0.1,0.3,0.1,0.5l0.1,8.7c0,0.4-0.2,0.7-0.5,0.9L126.3,154C126.2,154.1,126,154.1,125.8,154.1z M126.7,145v6.4l45.2-26.2
			v-6.4L126.7,145z"/>
		<polygon class="st3" points="87.8,122.5 135,95.2 172.9,117.1 125.7,144.4 		"/>
		<path class="st6" d="M125.7,145.4c-0.2,0-0.3,0-0.5-0.1l-38-21.9c-0.5-0.3-0.6-0.9-0.4-1.4c0.1-0.2,0.2-0.3,0.4-0.4l47.2-27.3
			c0.3-0.2,0.7-0.2,1,0l38,21.9c0.5,0.3,0.6,0.9,0.4,1.4c-0.1,0.2-0.2,0.3-0.4,0.4l-47.2,27.3C126.1,145.4,125.9,145.4,125.7,145.4z
			 M89.8,122.5l36,20.7l45.2-26.1l-36-20.7L89.8,122.5z"/>
		<polygon class="st3" points="94.7,126.5 141.9,99.2 172.9,117.1 125.7,144.4 		"/>
		<path class="st6" d="M125.7,145.4c-0.2,0-0.3,0-0.5-0.1l-31.1-17.9c-0.5-0.3-0.6-0.9-0.4-1.4c0.1-0.2,0.2-0.3,0.4-0.4l47.2-27.3
			c0.3-0.2,0.7-0.2,1,0l31.1,17.9c0.5,0.3,0.6,0.9,0.4,1.4c-0.1,0.2-0.2,0.3-0.4,0.4l-47.2,27.3
			C126.1,145.4,125.9,145.4,125.7,145.4z M96.7,126.5l29.1,16.7l45.2-26.1l-29.1-16.7L96.7,126.5z"/>
		<polygon class="st3" points="87.8,122.5 135,95.2 141.9,99.2 94.7,126.5 		"/>
		<path class="st6" d="M94.7,127.5c-0.2,0-0.3,0-0.5-0.1l-6.9-4c-0.5-0.3-0.6-0.9-0.4-1.4c0.1-0.2,0.2-0.3,0.4-0.4l47.2-27.3
			c0.3-0.2,0.7-0.2,1,0l6.9,4c0.5,0.3,0.6,0.9,0.4,1.4c-0.1,0.2-0.2,0.3-0.4,0.4l-47.2,27.3C95,127.5,94.8,127.5,94.7,127.5z
			 M89.8,122.5l4.9,2.8l45.2-26.1l-4.9-2.8L89.8,122.5z"/>
		<polygon class="st5" points="94.7,135.2 87.8,131.2 87.8,122.5 94.7,126.5 		"/>
		<path class="st6" d="M94.7,136.2c-0.2,0-0.3,0-0.5-0.1l-6.8-3.9c-0.3-0.2-0.5-0.5-0.5-0.9l-0.1-8.7c0-0.6,0.4-1,1-1
			c0.2,0,0.4,0,0.5,0.1l6.9,4c0.3,0.2,0.5,0.5,0.5,0.9v8.7C95.7,135.7,95.2,136.2,94.7,136.2L94.7,136.2z M88.8,130.7l4.8,2.8v-6.4
			l-4.9-2.8L88.8,130.7z"/>
		<path class="st5" d="M158.7,118c-0.2,0-0.3,0-0.5-0.1l-16.9-9.7c-0.5-0.3-0.6-0.9-0.4-1.4c0.3-0.5,0.9-0.6,1.4-0.4l16.9,9.7
			c0.5,0.3,0.6,0.9,0.4,1.4C159.4,117.8,159.1,118,158.7,118z"/>
		<path class="st6" d="M125.5,137.3c-0.2,0-0.3,0-0.5-0.1l-16.9-9.7c-0.5-0.3-0.6-0.9-0.4-1.4c0.3-0.5,0.9-0.6,1.4-0.4l16.9,9.7
			c0.5,0.3,0.6,0.9,0.4,1.4C126.2,137.1,125.8,137.3,125.5,137.3L125.5,137.3z"/>
		<polygon class="st3" points="141.9,107.3 158.7,117 125.5,136.3 117.5,131.7 123.2,127.5 123.9,122.5 129.8,118.3 137.1,117.3 
			141,112.2 		"/>
		<path class="st6" d="M125.5,137.3c-0.2,0-0.3,0-0.5-0.1l-8-4.6c-0.5-0.3-0.6-0.9-0.4-1.4c0.1-0.1,0.2-0.2,0.3-0.3l5.4-3.9l0.7-4.6
			c0-0.3,0.2-0.5,0.4-0.7l5.9-4.2c0.1-0.1,0.3-0.2,0.4-0.2l6.8-0.9l3.5-4.7l0.8-4.6c0.1-0.3,0.3-0.6,0.6-0.7s0.6-0.1,0.9,0l16.9,9.7
			c0.5,0.3,0.6,0.9,0.4,1.4c-0.1,0.2-0.2,0.3-0.4,0.4L126,137.1C125.8,137.2,125.6,137.3,125.5,137.3z M119.3,131.6l6.2,3.5
			l31.3-18.1l-14.1-8.1l-0.6,3.5c0,0.2-0.1,0.3-0.2,0.4L138,118c-0.2,0.2-0.4,0.4-0.7,0.4l-7,0.9l-5.4,3.8l-0.6,4.6
			c0,0.3-0.2,0.5-0.4,0.7L119.3,131.6z"/>
		<polygon class="st3" points="141.9,107.3 158.7,117 125.5,136.3 117.5,131.7 123.2,127.5 123.9,122.5 129.8,118.3 137.1,117.3 
			141,112.2 		"/>
		<path class="st6" d="M125.5,137.3c-0.2,0-0.3,0-0.5-0.1l-8-4.6c-0.5-0.3-0.6-0.9-0.4-1.4c0.1-0.1,0.2-0.2,0.3-0.3l5.4-3.9l0.7-4.6
			c0-0.3,0.2-0.5,0.4-0.7l5.9-4.2c0.1-0.1,0.3-0.2,0.4-0.2l6.8-0.9l3.5-4.7l0.8-4.6c0.1-0.3,0.3-0.6,0.6-0.7s0.6-0.1,0.9,0l16.9,9.7
			c0.5,0.3,0.6,0.9,0.4,1.4c-0.1,0.2-0.2,0.3-0.4,0.4L126,137.1C125.8,137.2,125.6,137.3,125.5,137.3z M119.3,131.6l6.2,3.5
			l31.3-18.1l-14.1-8.1l-0.6,3.5c0,0.2-0.1,0.3-0.2,0.4L138,118c-0.2,0.2-0.4,0.4-0.7,0.4l-7,0.9l-5.4,3.8l-0.6,4.6
			c0,0.3-0.2,0.5-0.4,0.7L119.3,131.6z"/>
		<path class="st7" d="M125.8,154.1c-0.2,0-0.3,0-0.5-0.1l-38-21.9c-0.3-0.2-0.5-0.5-0.5-0.9l-0.1-8.7c0-0.4,0.2-0.7,0.5-0.9
			l47.2-27.3c0.3-0.2,0.7-0.2,1,0l38,21.9c0.3,0.2,0.5,0.5,0.5,0.9l0.1,8.7c0,0.4-0.2,0.7-0.5,0.9L126.3,154
			C126.2,154.1,126,154.1,125.8,154.1z M88.8,130.7l37,21.3l46.2-26.7v-7.5l-37-21.3l-46.2,26.7V130.7z"/>
		<path class="st7" d="M94.7,127.5c-0.6,0-1-0.4-1-1c0-0.4,0.2-0.7,0.5-0.9l47.2-27.3c0.5-0.3,1.1-0.1,1.3,0.4s0.1,1-0.3,1.3
			l-47.2,27.3C95,127.5,94.8,127.5,94.7,127.5z"/>
		<path class="st7" d="M94.7,136.2c-0.6,0-1-0.4-1-1v-8.7c0-0.6,0.4-1,1-1s1,0.4,1,1v8.7C95.7,135.7,95.2,136.2,94.7,136.2z"/>
		<polygon class="st3" points="355.3,144.2 372.6,134.2 389.9,144.2 372.6,154.2 		"/>
		<path class="st2" d="M372.6,155.2c-0.2,0-0.3,0-0.5-0.1l-17.3-10c-0.5-0.3-0.6-0.9-0.4-1.4c0.1-0.2,0.2-0.3,0.4-0.4l17.3-10
			c0.3-0.2,0.7-0.2,1,0l17.3,10c0.5,0.3,0.6,0.9,0.4,1.4c-0.1,0.2-0.2,0.3-0.4,0.4l-17.3,10C373,155.2,372.8,155.2,372.6,155.2z
			 M357.3,144.2l15.3,8.8l15.3-8.9l-15.3-8.8L357.3,144.2z"/>
		<polygon class="st5" points="389.9,144.2 389.9,155.8 372.6,165.8 372.6,154.2 		"/>
		<path class="st6" d="M372.6,166.8c-0.6,0-1-0.4-1-1v-11.6c0-0.4,0.2-0.7,0.5-0.9l17.3-10c0.5-0.3,1.1-0.1,1.4,0.4
			c0.1,0.2,0.1,0.3,0.1,0.5v11.6c0,0.4-0.2,0.7-0.5,0.9l-17.3,10C373,166.7,372.8,166.8,372.6,166.8z M373.6,154.8v9.3l15.3-8.8V146
			L373.6,154.8z"/>
		<polygon class="st3" points="372.6,165.8 372.6,154.2 355.3,144.2 355.3,155.8 		"/>
		<path class="st6" d="M372.6,166.8c-0.2,0-0.3,0-0.5-0.1l-17.3-10c-0.3-0.2-0.5-0.5-0.5-0.9v-11.6c0-0.6,0.4-1,1-1
			c0.2,0,0.3,0,0.5,0.1l17.3,10c0.3,0.2,0.5,0.5,0.5,0.9v11.6C373.6,166.3,373.2,166.8,372.6,166.8L372.6,166.8z M356.3,155.2
			l15.3,8.8v-9.3l-15.3-8.8V155.2z"/>
		<path class="st7" d="M372.6,166.8c-0.2,0-0.3,0-0.5-0.1l-17.3-10c-0.3-0.2-0.5-0.5-0.5-0.9v-11.6c0-0.2,0-0.3,0.1-0.5
			s0.2-0.3,0.4-0.4l17.3-10c0.3-0.2,0.7-0.2,1,0l17.3,10c0.3,0.2,0.5,0.5,0.5,0.9v11.6c0,0.4-0.2,0.7-0.5,0.9l-17.3,10
			C373,166.7,372.8,166.8,372.6,166.8z M356.3,155.2l16.3,9.4l16.3-9.4v-10.4l-16.3-9.4l-16.3,9.4V155.2z"/>
		<path class="st6" d="M372.6,148c-3.4,0-6-1.7-6-3.9s2.6-3.9,6-3.9s6,1.7,6,3.9S376,148,372.6,148z M372.6,142.3c-2.3,0-4,1-4,1.9
			s1.7,1.9,4,1.9s4-1,4-1.9S374.9,142.3,372.6,142.3L372.6,142.3z"/>
		<polygon class="st3" points="160.5,80.5 183,83.9 177,70.9 		"/>
		<polygon class="st5" points="183,83.9 183,95.3 160.5,91.8 160.5,80.5 		"/>
		<path class="st6" d="M183,84.9c-0.1,0-0.1,0-0.2,0l-22.6-3.5c-0.5-0.1-0.9-0.6-0.8-1.1c0-0.3,0.2-0.6,0.5-0.7l16.5-9.5
			c0.5-0.3,1.1-0.1,1.4,0.4v0.1l6,13c0.2,0.5,0,1.1-0.5,1.3C183.3,84.9,183.2,84.9,183,84.9z M163.4,79.9l17.9,2.8l-4.8-10.3
			L163.4,79.9z"/>
		<path class="st6" d="M183,96.3c-0.1,0-0.1,0-0.2,0l-22.6-3.5c-0.5-0.1-0.8-0.5-0.8-1V80.5c0-0.6,0.4-1,1-1c0.1,0,0.1,0,0.2,0
			l22.6,3.5c0.5,0.1,0.8,0.5,0.8,1v11.4C184,95.8,183.6,96.3,183,96.3z M161.5,90.9l20.6,3.2v-9.3l-20.6-3.2V90.9z"/>
		<path class="st7" d="M183,96.3c-0.1,0-0.1,0-0.2,0l-22.6-3.5c-0.5-0.1-0.8-0.5-0.8-1V80.5c0-0.4,0.2-0.7,0.5-0.9l16.5-9.5
			c0.5-0.3,1.1-0.1,1.4,0.4v0.1l6,13c0.1,0.1,0.1,0.3,0.1,0.4v11.4C184,95.8,183.6,96.3,183,96.3z M161.5,90.9l20.6,3.2v-10
			l-5.5-11.8L161.5,81V90.9z"/>
		<path class="st2" d="M66,163.2c-7,0-12.6-3.4-12.6-7.7v-11c0-0.6,0.4-1,1-1h23.1c0.6,0,1,0.4,1,1v11
			C78.6,159.8,73.1,163.2,66,163.2z M55.5,145.5v10c0,3.1,4.8,5.7,10.6,5.7s10.6-2.6,10.6-5.7v-10H55.5z"/>
		<path class="st5" d="M77.6,144.5c0-3.7-5.2-6.7-11.6-6.7s-11.6,3-11.6,6.7l0,0v11c0,3.7,5.2,6.7,11.6,6.7s11.6-3,11.6-6.7V144.5z"
			/>
		<path class="st6" d="M66,163.2c-7,0-12.6-3.4-12.6-7.7v-11c0-4.3,5.5-7.7,12.6-7.7s12.6,3.4,12.6,7.7v11
			C78.6,159.8,73.1,163.2,66,163.2z M66,138.8c-5.7,0-10.6,2.6-10.6,5.7v11c0,3.1,4.8,5.7,10.6,5.7s10.6-2.6,10.6-5.7v-11
			C76.6,141.4,71.7,138.8,66,138.8z"/>
		<ellipse class="st1" cx="66" cy="144.5" rx="11.6" ry="6.7"/>
		<ellipse class="st3" cx="66" cy="144.5" rx="11.6" ry="6.7"/>
		<ellipse class="st3" cx="66" cy="144.5" rx="11.6" ry="6.7"/>
		<path class="st6" d="M66,152.2c-7,0-12.6-3.4-12.6-7.7s5.5-7.7,12.6-7.7s12.6,3.4,12.6,7.7S73.1,152.2,66,152.2z M66,138.8
			c-5.7,0-10.6,2.6-10.6,5.7s4.8,5.7,10.6,5.7s10.6-2.6,10.6-5.7S71.7,138.8,66,138.8z"/>
		<path class="st7" d="M66,163.2c-7,0-12.6-3.4-12.6-7.7v-11c0-4.3,5.5-7.7,12.6-7.7s12.6,3.4,12.6,7.7v11
			C78.6,159.8,73.1,163.2,66,163.2z M66,138.8c-5.7,0-10.6,2.6-10.6,5.7v11c0,3.1,4.8,5.7,10.6,5.7s10.6-2.6,10.6-5.7v-11
			C76.6,141.4,71.7,138.8,66,138.8z"/>
		<polygon class="st3" points="98.6,157 85.7,164.4 85.7,176.4 98.6,183.8 111.4,176.4 111.4,164.4 		"/>
		<polygon class="st5" points="111.4,176.4 98.6,183.8 98.6,171.8 111.4,164.4 		"/>
		<polygon class="st3" points="85.7,176.4 98.6,183.8 98.6,171.8 85.7,164.4 		"/>
		<path class="st6" d="M98.6,184.8c-0.6,0-1-0.4-1-1v-12c0-0.4,0.2-0.7,0.5-0.9l12.8-7.4c0.5-0.3,1.1-0.1,1.4,0.4
			c0.1,0.2,0.1,0.3,0.1,0.5v12c0,0.4-0.2,0.7-0.5,0.9l-12.8,7.4C98.9,184.8,98.7,184.8,98.6,184.8z M99.6,172.4v9.7l10.8-6.3v-9.7
			L99.6,172.4z"/>
		<path class="st6" d="M98.6,184.8c-0.2,0-0.3,0-0.5-0.1l-12.8-7.4c-0.3-0.2-0.5-0.5-0.5-0.9v-12c0-0.6,0.4-1,1-1
			c0.2,0,0.3,0,0.5,0.1l12.8,7.4c0.3,0.2,0.5,0.5,0.5,0.9v12C99.6,184.4,99.1,184.8,98.6,184.8z M86.7,175.8l10.8,6.3v-9.7
			l-10.8-6.3V175.8z"/>
		<path class="st6" d="M98.6,172.8c-0.2,0-0.3,0-0.5-0.1l-12.8-7.4c-0.5-0.3-0.6-0.9-0.4-1.4c0.1-0.2,0.2-0.3,0.4-0.4l12.8-7.4
			c0.3-0.2,0.7-0.2,1,0l12.8,7.4c0.5,0.3,0.6,0.9,0.4,1.4c-0.1,0.2-0.2,0.3-0.4,0.4l-12.8,7.4C98.9,172.8,98.7,172.8,98.6,172.8z
			 M87.7,164.4l10.8,6.3l10.8-6.3l-10.8-6.3L87.7,164.4z"/>
		<path class="st7" d="M98.6,184.8c-0.2,0-0.3,0-0.5-0.1l-12.8-7.4c-0.3-0.2-0.5-0.5-0.5-0.9v-12c0-0.4,0.2-0.7,0.5-0.9l12.8-7.4
			c0.3-0.2,0.7-0.2,1,0l12.8,7.4c0.3,0.2,0.5,0.5,0.5,0.9v12c0,0.4-0.2,0.7-0.5,0.9l-12.8,7.4C98.9,184.8,98.7,184.8,98.6,184.8z
			 M86.7,175.8l11.8,6.8l11.8-6.8V165l-11.8-6.8L86.7,165V175.8z"/>
		<path class="st3" d="M181.7,183.1c-1.5-1.5-3.1-2.7-5-3.8c-11.9-6.9-31.1-6.9-43,0c-1.8,1-3.5,2.3-5,3.8h-4v8.7
			c0,4.5,3,9,8.9,12.4c11.9,6.9,31.1,6.9,43,0c5.9-3.4,8.9-7.9,8.9-12.4v-8.7H181.7z"/>
		<path class="st5" d="M176.8,179.3c-5.9-3.4-13.7-5.1-21.5-5.1v35.1c7.8,0,15.6-1.7,21.5-5.1s8.9-7.9,8.9-12.4v-8.7h-4
			C180.2,181.6,178.6,180.3,176.8,179.3z"/>
		<ellipse class="st3" cx="155.2" cy="183.1" rx="30.4" ry="17.6"/>
		<ellipse class="st3" cx="155.2" cy="183.1" rx="30.4" ry="17.6"/>
		<path class="st6" d="M155.2,201.6c-8,0-15.9-1.8-22-5.3s-9.4-8.2-9.4-13.3s3.3-9.8,9.4-13.3c12.1-7,31.9-7,44,0
			c6.1,3.5,9.4,8.2,9.4,13.3s-3.3,9.8-9.4,13.3S163.2,201.6,155.2,201.6z M155.2,166.5c-7.6,0-15.2,1.7-21,5
			c-5.4,3.1-8.4,7.2-8.4,11.6s3,8.4,8.4,11.6c11.6,6.7,30.4,6.7,42,0c5.4-3.1,8.4-7.2,8.4-11.6s-3-8.4-8.4-11.6l0,0
			C170.5,168.2,162.8,166.5,155.2,166.5L155.2,166.5z"/>
		<ellipse class="st3" cx="155.2" cy="183.1" rx="30.4" ry="17.6"/>
		<path class="st6" d="M155.2,201.6c-8,0-15.9-1.8-22-5.3s-9.4-8.2-9.4-13.3s3.3-9.8,9.4-13.3c12.1-7,31.9-7,44,0
			c6.1,3.5,9.4,8.2,9.4,13.3s-3.3,9.8-9.4,13.3S163.2,201.6,155.2,201.6z M155.2,166.5c-7.6,0-15.2,1.7-21,5
			c-5.4,3.1-8.4,7.2-8.4,11.6s3,8.4,8.4,11.6c11.6,6.7,30.4,6.7,42,0c5.4-3.1,8.4-7.2,8.4-11.6s-3-8.4-8.4-11.6l0,0
			C170.5,168.2,162.8,166.5,155.2,166.5L155.2,166.5z"/>
		<path class="st3" d="M176.8,170.7c-5.9-3.4-13.7-5.1-21.5-5.1v17.6h30.4C185.7,178.6,182.7,174.1,176.8,170.7z"/>
		<path class="st6" d="M185.7,184.1h-30.4c-0.6,0-1-0.4-1-1v-17.6c0-0.6,0.4-1,1-1c8.3,0,16.1,1.9,22,5.3l0,0
			c6.1,3.5,9.4,8.2,9.4,13.3C186.7,183.6,186.2,184.1,185.7,184.1z M156.2,182.1h28.4c-0.4-4-3.4-7.7-8.4-10.6l0,0
			c-5.4-3.1-12.4-4.9-20-5V182.1z"/>
		<path class="st7" d="M155.2,210.3c-8,0-15.9-1.8-22-5.3s-9.4-8.2-9.4-13.3V183c0-5.1,3.3-9.8,9.4-13.3c12.1-7,31.9-7,44,0
			c6.1,3.5,9.4,8.2,9.4,13.3v8.7c0,5.1-3.3,9.8-9.4,13.3S163.2,210.3,155.2,210.3z M155.2,166.5c-7.6,0-15.2,1.7-21,5
			c-5.4,3.1-8.4,7.2-8.4,11.6v8.7c0,4.3,3,8.4,8.4,11.6c11.6,6.7,30.4,6.7,42,0c5.4-3.1,8.4-7.2,8.4-11.6v-8.7c0-4.3-3-8.4-8.4-11.6
			C170.5,168.2,162.8,166.5,155.2,166.5L155.2,166.5z"/>
		<path class="st6" d="M289.3,86.3l-9.4-5.4c-1-0.5-2.2-0.7-3.3-0.5l-12.9,2c-1,0.1-1.9,0.6-2.4,1.4l-3.4,7.4
			c-0.1,0.2-0.1,0.3-0.1,0.5l0,0l0,0l0,0v8.8l0,0c0.1,0.6,0.4,1.1,1,1.4l9.4,5.4c1,0.5,2.2,0.7,3.3,0.5l12.9-2
			c1-0.1,1.9-0.6,2.4-1.4l3.4-7.4c0.1-0.2,0.1-0.3,0.1-0.5l0,0v-8.8l0,0C290.2,87.1,289.8,86.6,289.3,86.3z"/>
		<path class="st5" d="M270,81.4l-6.3,1c-1,0.1-1.9,0.6-2.4,1.4l-3.4,7.4c-0.1,0.2-0.1,0.3-0.1,0.5l0,0l0,0l0,0v8.8l0,0
			c0.1,0.6,0.4,1.1,1,1.4l9.4,5.4c0.6,0.3,1.2,0.5,1.8,0.5V81.4z"/>
		<path class="st6" d="M270.5,108.9c-1,0-2-0.2-2.9-0.7l-9.4-5.4c-0.9-0.4-1.4-1.3-1.5-2.3v-8.8c0-0.5,0.4-0.9,0.9-1l11.4-1.4
			l7.4-1.2c0.7-0.1,1.3-0.1,2,0l11.7-1.4c0.3,0,0.6,0.1,0.8,0.2c0.2,0.2,0.3,0.5,0.3,0.7v8.8c0,0.3-0.1,0.6-0.2,0.9l-3.4,7.4
			c-0.7,1.1-1.9,1.9-3.2,2l-12.9,2C271.2,108.9,270.9,108.9,270.5,108.9z M258.7,92.6v7.9c0,0.1,0.2,0.3,0.5,0.5l9.4,5.4
			c0.8,0.4,1.7,0.5,2.6,0.4l12.9-2c0.6,0,1.2-0.3,1.7-0.8l3.4-7.4v-7.7l-10.8,1.3c-0.1,0-0.2,0-0.3,0c-0.5-0.1-1-0.1-1.5,0l-7.5,1.2
			L258.7,92.6z"/>
		<path class="st3" d="M257.8,91.2l3.4-7.4c0.5-0.8,1.4-1.3,2.4-1.4l12.9-2c1.1-0.2,2.3,0,3.3,0.5l9.4,5.4c0.9,0.5,1.2,1.2,0.9,1.9
			l-3.4,7.4c-0.5,0.8-1.4,1.3-2.4,1.4l-12.9,2c-1.1,0.2-2.3,0-3.3-0.5l-9.4-5.4C257.8,92.6,257.5,91.9,257.8,91.2z"/>
		<path class="st3" d="M270.5,100.1c-1,0-2-0.2-2.9-0.7l-9.4-5.4c-1.2-0.5-1.8-2-1.3-3.2l3.4-7.4c0.7-1.1,1.9-1.9,3.2-2l12.9-2
			c1.4-0.2,2.7,0,4,0.6l9.4,5.4c1.2,0.5,1.8,2,1.3,3.2l-3.4,7.4c-0.7,1.1-1.9,1.9-3.2,2l-12.9,2
			C271.2,100.1,270.9,100.1,270.5,100.1z M277.4,81.3c-0.2,0-0.5,0-0.7,0.1l-12.9,2c-0.6,0-1.2,0.3-1.7,0.8l-3.4,7.4
			c-0.1,0.3,0.4,0.6,0.5,0.6l9.4,5.4c0.8,0.4,1.7,0.5,2.6,0.4l12.9-2c0.6,0,1.2-0.3,1.7-0.8l3.4-7.4c0.1-0.3-0.4-0.6-0.5-0.6
			l-9.4-5.4C278.8,81.4,278.1,81.3,277.4,81.3L277.4,81.3z"/>
		<path class="st7" d="M270.5,108.9c-1,0-2-0.2-2.9-0.7l-9.4-5.4c-0.9-0.4-1.4-1.3-1.5-2.3v-8.8c0-0.3,0.1-0.6,0.2-0.9l3.4-7.4
			c0.7-1.1,1.9-1.9,3.2-2l12.9-2c1.4-0.2,2.7,0,4,0.6l9.4,5.4c0.9,0.4,1.4,1.3,1.5,2.3v8.8c0,0.3-0.1,0.6-0.2,0.9l-3.4,7.4
			c-0.7,1.1-1.9,1.9-3.2,2l-12.9,2C271.2,108.9,270.9,108.9,270.5,108.9z M258.7,91.8v8.7c0,0.1,0.2,0.3,0.5,0.5l9.4,5.4
			c0.8,0.4,1.7,0.5,2.6,0.4l12.9-2c0.6,0,1.2-0.3,1.7-0.8l3.4-7.4v-8.9c0-0.1-0.2-0.3-0.5-0.5l0,0l-9.4-5.4
			c-0.8-0.4-1.7-0.5-2.7-0.4l-12.9,2c-0.6,0-1.2,0.3-1.7,0.8l-3.4,7.4C258.7,91.7,258.7,91.7,258.7,91.8z"/>
		<ellipse class="st5" cx="274" cy="89.7" rx="6.5" ry="3.7"/>
		<path class="st6" d="M274,94.5c-4.2,0-7.5-2.1-7.5-4.7s3.3-4.7,7.5-4.7s7.5,2.1,7.5,4.7S278.2,94.5,274,94.5z M274,87
			c-3.2,0-5.5,1.4-5.5,2.7s2.3,2.7,5.5,2.7s5.5-1.4,5.5-2.7S277.2,87,274,87z"/>
		<rect class="st0" width="440" height="300"/>
	</g>
	<rect class="st0" width="440" height="300"/>
</g>
</svg>
