<?xml version="1.0" encoding="utf-8"?>
<!-- Generator: Adobe Illustrator 24.1.2, SVG Export Plug-In . SVG Version: 6.00 Build 0)  -->
<svg version="1.1" id="Layer_1" xmlns="http://www.w3.org/2000/svg" xmlns:xlink="http://www.w3.org/1999/xlink" x="0px" y="0px"
	 width="128px" height="128px" viewBox="0 0 128 128" style="enable-background:new 0 0 128 128;" xml:space="preserve">
<style type="text/css">
	.st0{fill:none;}
	.st1{fill:#27ae60;}
	.st2{fill:#C4D7D3;}
	.st3{fill:#FFFFFF;}
	.st4{fill:#185849;}
	.st5{fill:#E9EBDF;}
	.st6{fill:#4D9987;}
	.st7{fill:#0E352C;}
</style>
<g>
	<rect x="1" y="1" class="st0" width="126" height="126"/>
	<path class="st1" d="M67.5,71.7c-0.1,0-0.3,0-0.4-0.1c-0.4-0.2-0.6-0.5-0.6-0.9c0-0.1,0-0.1,0-0.2s0-0.1,0.1-0.2
		c0-0.1,0.1-0.1,0.1-0.2l0.1-0.2c0.1-0.1,0.2-0.2,0.3-0.2c0.2-0.1,0.5-0.1,0.8,0c0.1,0,0.2,0.1,0.3,0.2c0,0,0.1,0.1,0.1,0.2
		s0.1,0.1,0.1,0.2s0,0.1,0.1,0.2c0,0.1,0,0.1,0,0.2c0,0.3-0.1,0.5-0.3,0.7c-0.1,0.1-0.2,0.2-0.3,0.2C67.8,71.7,67.6,71.7,67.5,71.7z
		"/>
	<path class="st1" d="M78.6,78.3c-0.5-0.3-0.6-0.9-0.4-1.4l0,0l0,0c0.3-0.5,0.9-0.6,1.3-0.4l0,0l0,0c0.5,0.3,0.6,0.9,0.4,1.4l0,0
		c-0.2,0.3-0.5,0.5-0.9,0.5l0,0C78.9,78.4,78.8,78.4,78.6,78.3z M72.8,74.9c-0.5-0.3-0.6-0.9-0.4-1.4l0,0c0.3-0.5,0.9-0.6,1.4-0.4
		l0,0c0.5,0.3,0.6,0.9,0.4,1.4l0,0C74,74.9,73.7,75,73.3,75l0,0C73.1,75.1,72.9,75,72.8,74.9z"/>
	<path class="st1" d="M84.9,81.8c-0.1,0-0.3,0-0.4-0.1s-0.2-0.1-0.3-0.2c-0.3-0.3-0.4-0.7-0.2-1.1c0.1-0.1,0.1-0.2,0.2-0.3l0.2-0.1
		c0.1,0,0.1-0.1,0.2-0.1s0.1,0,0.2-0.1c0.1,0,0.3,0,0.4,0s0.1,0,0.2,0.1c0.1,0,0.1,0.1,0.2,0.1s0.1,0.1,0.1,0.1
		c0.2,0.2,0.3,0.4,0.3,0.7c0,0.3-0.1,0.5-0.3,0.7C85.4,81.6,85.2,81.8,84.9,81.8z"/>
	<path class="st2" d="M126,62.3c0.1-2.2-1.3-4.4-4.2-6.1c-5.6-3.2-14.6-3.2-20.2,0c-2.8,1.6-4.1,3.7-4.1,5.8l0,0l-0.1,34.2
		c0,0.8,0.2,1.6,0.6,2.4c0.4,0.7,0.8,1.3,1.4,1.9c0.7,0.6,1.4,1.2,2.2,1.7c0.3,0.2,0.7,0.4,1,0.5l0.1,0.1c0.3,0.1,0.6,0.3,1,0.4
		c5.6,2.2,13.2,1.9,18.1-1c2.8-1.6,4.1-3.7,4.1-5.8l0.1-34.2C126,62.2,126,62.3,126,62.3z"/>
	<path class="st1" d="M111.7,105.5c-2.9,0-5.7-0.5-8.4-1.5c-0.3-0.1-0.7-0.3-1-0.4l-0.1-0.1c-0.4-0.2-0.7-0.4-1.1-0.6
		c-0.9-0.5-1.7-1.1-2.4-1.8c-0.6-0.6-1.2-1.3-1.6-2.1c-0.5-0.9-0.7-1.8-0.7-2.8L96.5,62l0,0c0-2.6,1.7-4.9,4.6-6.7
		c5.8-3.4,15.3-3.4,21.2,0c3,1.7,4.7,4.1,4.7,6.7v0.1l0,0l-0.1,34.2c0,2.6-1.7,4.9-4.6,6.7C119,104.7,115.4,105.6,111.7,105.5z
		 M103.1,101.8c0.3,0.1,0.6,0.3,0.9,0.4c5.4,2.1,12.6,1.7,17.2-0.9c2.3-1.4,3.6-3.1,3.6-4.9l0.1-33.9v-0.1l0,0c0,0,0,0,0-0.1
		c0.1-1.9-1.2-3.7-3.7-5.2c-5.3-3.1-13.9-3.1-19.2,0c-2.4,1.4-3.6,3.1-3.6,5l-0.1,34.1c0,0.7,0.2,1.3,0.5,1.9s0.7,1.1,1.2,1.6
		c0.6,0.6,1.3,1.1,2,1.5C102.4,101.4,102.7,101.6,103.1,101.8l-0.4,0.9L103.1,101.8z"/>
	<path class="st3" d="M104.5,55c-1,0.3-2,0.8-2.9,1.3c-2.8,1.6-4.1,3.7-4.1,5.8l0,0l-0.1,34.2c0,0.8,0.2,1.6,0.6,2.4
		c0.4,0.7,0.8,1.3,1.4,1.9c0.7,0.6,1.4,1.2,2.2,1.7c0.3,0.2,0.7,0.4,1,0.5l0.1,0.1c0.3,0.1,0.6,0.3,1,0.4c0.3,0.1,0.6,0.2,0.9,0.3
		L104.5,55z"/>
	<path class="st4" d="M111.7,105.5c-2.9,0-5.7-0.5-8.4-1.5c-0.3-0.1-0.7-0.3-1-0.4l-0.1-0.1c-0.4-0.2-0.7-0.4-1.1-0.6
		c-0.9-0.5-1.7-1.1-2.4-1.8c-0.6-0.6-1.2-1.3-1.6-2.1c-0.5-0.9-0.7-1.8-0.7-2.8L96.5,62l0,0c0-2.6,1.7-4.9,4.6-6.7
		c5.8-3.4,15.3-3.4,21.2,0c3,1.7,4.7,4.1,4.7,6.7v0.1l0,0l-0.1,34.2c0,2.6-1.7,4.9-4.6,6.7C119,104.7,115.4,105.6,111.7,105.5z
		 M103.1,101.8c0.3,0.1,0.6,0.3,0.9,0.4c5.4,2.1,12.6,1.7,17.2-0.9c2.3-1.4,3.6-3.1,3.6-4.9l0.1-33.9v-0.1l0,0c0,0,0,0,0-0.1
		c0.1-1.9-1.2-3.7-3.7-5.2c-5.3-3.1-13.9-3.1-19.2,0c-2.4,1.4-3.6,3.1-3.6,5l-0.1,34.1c0,0.7,0.2,1.3,0.5,1.9s0.7,1.1,1.2,1.6
		c0.6,0.6,1.3,1.1,2,1.5C102.4,101.4,102.7,101.6,103.1,101.8l-0.4,0.9L103.1,101.8z"/>
	<path class="st3" d="M118.9,73.1c-8,3.2-22.2,5.5-30.3,2.3c-0.5-0.2-0.9-0.4-1.3-0.6c-0.9-0.4-1.9,0-2.3,0.8
		c-0.1,0.2-0.2,0.5-0.2,0.7v16.9c0,0.6,0.3,1.2,0.9,1.5c0.7,0.3,1.4,0.7,2.2,1c1.9,0.7,3.8,1.1,5.8,1.3l0,0c0,0,1.1,0,1.1,1.6v5.9
		c0,0.9,0.7,1.6,1.6,1.7c7.6,0.7,16.4-0.6,22.2-2.9c4-1.6,7.1-5.4,7.1-7.5l0.1-30.2C126,67.7,122.9,71.5,118.9,73.1z"/>
	<path class="st2" d="M118.9,73.1c-8,3.2-22.2,5.5-30.3,2.3c-0.5-0.2-0.9-0.4-1.3-0.6c-0.9-0.4-1.9,0-2.3,0.8
		c-0.1,0.2-0.2,0.5-0.2,0.7v16.9c0,0.6,0.3,1.2,0.9,1.5c0.7,0.3,1.4,0.7,2.2,1c1.9,0.7,3.8,1.1,5.8,1.3l0,0c0,0,1.1,0,1.1,1.6v5.9
		c0,0.9,0.7,1.6,1.6,1.7c7.6,0.7,16.4-0.6,22.2-2.9c4-1.6,7.1-5.4,7.1-7.5l0.1-30.2C126,67.7,122.9,71.5,118.9,73.1z"/>
	<path class="st2" d="M118.9,73.1c-8,3.2-22.2,5.5-30.3,2.3c-0.5-0.2-0.9-0.4-1.3-0.6c-0.9-0.4-1.9,0-2.3,0.8
		c-0.1,0.2-0.2,0.5-0.2,0.7v16.9c0,0.6,0.3,1.2,0.9,1.5c0.7,0.3,1.4,0.7,2.2,1c1.9,0.7,3.8,1.1,5.8,1.3l0,0c0,0,1.1,0,1.1,1.6v5.9
		c0,0.9,0.7,1.6,1.6,1.7c7.6,0.7,16.4-0.6,22.2-2.9c4-1.6,7.1-5.4,7.1-7.5l0.1-30.2C126,67.7,122.9,71.5,118.9,73.1z"/>
	<path class="st1" d="M100.8,107.4c-1.5,0-2.9-0.1-4.3-0.2s-2.5-1.3-2.5-2.7v-5.9c0-0.2,0-0.5-0.2-0.6c-2.1-0.2-4.1-0.6-6.1-1.3
		c-0.9-0.3-1.6-0.7-2.3-1c-0.9-0.5-1.5-1.4-1.5-2.4V76.4c0-1.5,1.2-2.7,2.7-2.7c0.4,0,0.8,0.1,1.1,0.2c0.4,0.2,0.8,0.4,1.3,0.5
		c7.4,3,21.1,1.1,29.5-2.3l0,0c3.7-1.5,6.5-5,6.5-6.6l0,0c0-0.6,0.4-1,1-1l0,0c0.6,0,1,0.4,1,1l0,0l0,0l-0.1,30.2
		c0,2.8-3.7,6.8-7.7,8.4C113.2,106.4,107,107.4,100.8,107.4z M86.6,75.7c-0.1,0-0.3,0-0.4,0.1c-0.2,0.1-0.3,0.3-0.3,0.6v16.9
		c0,0.3,0.1,0.5,0.4,0.6c0.6,0.3,1.3,0.6,2.2,1c1.8,0.7,3.6,1.1,5.5,1.2c1.3,0.1,2.2,1.3,2,2.5l0,0v5.9c0,0.4,0.3,0.7,0.6,0.7
		c7.2,0.6,16-0.5,21.7-2.8c3.7-1.5,6.5-5,6.5-6.6l0.1-25.9c-1.6,1.8-3.5,3.2-5.7,4.2l0,0c-7.6,3.1-22.2,5.8-31,2.3
		c-0.5-0.2-0.9-0.4-1.3-0.6C86.8,75.7,86.7,75.7,86.6,75.7z"/>
	<path class="st1" d="M88.6,79.6v1.3c0,0.2,0.1,0.4,0.4,0.5c0.7,0.3,1.5,0.5,2.3,0.7c0.3,0.1,0.6-0.1,0.7-0.4v-0.1v-1.4
		c0-0.3-0.2-0.5-0.4-0.5c-0.7-0.2-1.4-0.4-2.1-0.6c-0.3-0.1-0.6,0.1-0.7,0.3C88.6,79.5,88.6,79.5,88.6,79.6z"/>
	<path class="st1" d="M97,80.4c-0.7,0-1.5-0.1-2.2-0.1c-0.3,0-0.6,0.2-0.6,0.5c0,0,0,0,0,0.1v1.4c0,0.3,0.2,0.5,0.5,0.5
		c0.7,0.1,1.5,0.1,2.2,0.2c0.3,0,0.6-0.2,0.6-0.5l0,0v-1.4C97.5,80.6,97.3,80.4,97,80.4z"/>
	<path class="st1" d="M102.5,80.2c-0.7,0.1-1.4,0.1-2.2,0.1c-0.3,0-0.5,0.3-0.5,0.5v1.4c0,0.3,0.2,0.5,0.5,0.6l0,0
		c0.7,0,1.5-0.1,2.2-0.1c0.3,0,0.5-0.3,0.5-0.6v-1.4C103.1,80.5,102.8,80.2,102.5,80.2L102.5,80.2z"/>
	<path class="st2" d="M126,62.2c0-2.1-1.4-4.3-4.2-5.9c-5.6-3.3-14.6-3.3-20.2,0s-5.5,8.6,0.1,11.8c3.8,2,8.2,2.8,12.5,2.3
		c0.4,0,0.8,0.2,1,0.5l0,0c0.3,0.5,0.1,1.1-0.3,1.5c0,0-0.1,0-0.1,0.1c-0.3,0.1-0.7,0.3-1,0.4c-0.2,0.1-0.4,0.3-0.4,0.5V106
		c0,0.6,0.5,1.1,1.1,1.1c0.1,0,0.2,0,0.4-0.1c2-0.7,3.9-1.6,5.6-2.7c3.9-2.6,5.5-5.4,5.5-7.4V62.2L126,62.2L126,62.2z"/>
	<path class="st2" d="M121.8,56.3c5.6,3.3,5.6,8.6,0.1,11.8s-14.6,3.3-20.2,0s-5.6-8.6-0.1-11.8S116.2,53,121.8,56.3z"/>
	<path class="st1" d="M111.8,71.6c-3.7,0.1-7.3-0.8-10.6-2.6c-3-1.8-4.7-4.2-4.7-6.8c0-2.6,1.6-5,4.6-6.8c5.8-3.4,15.3-3.4,21.2,0
		l0,0c3,1.8,4.7,4.2,4.7,6.8c0,2.6-1.6,5-4.6,6.8C119.1,70.8,115.5,71.6,111.8,71.6z M111.7,54.8c-3.3-0.1-6.6,0.7-9.6,2.3
		c-2.4,1.4-3.7,3.2-3.7,5c0,1.9,1.3,3.7,3.7,5.1c5.3,3.1,13.9,3.1,19.2,0c2.4-1.4,3.7-3.2,3.7-5c0-1.9-1.3-3.7-3.7-5.1
		C118.3,55.6,115,54.8,111.7,54.8z"/>
	<path class="st1" d="M111,79.4v1.4c0,0.3,0.2,0.5,0.5,0.5h0.1c0.6-0.1,1.5-0.3,1.7-0.4v-2.5c-0.2,0-1.3,0.3-1.9,0.4
		C111.2,78.9,111,79.2,111,79.4z"/>
	<path class="st1" d="M113.3,98.7c-0.1,0-1.2,0.3-1.9,0.4c-0.3,0.1-0.4,0.3-0.4,0.5v1.3c0,0.3,0.2,0.5,0.5,0.5h0.1
		c0.6-0.1,1.5-0.3,1.7-0.4C113.3,101,113.3,98.7,113.3,98.7z"/>
	<path class="st1" d="M108,99.8c-0.7,0.1-1.4,0.2-2.2,0.3c-0.3,0-0.5,0.3-0.5,0.5v1.3c0,0.3,0.2,0.6,0.6,0.5c0,0,0,0,0.1,0
		c0.7-0.1,1.5-0.2,2.2-0.3c0.3,0,0.5-0.3,0.5-0.5v-1.3C108.7,100,108.4,99.8,108,99.8C108.1,99.8,108.1,99.8,108,99.8z"/>
	<path class="st1" d="M99.8,101.2v1.4c0,0.3,0.2,0.5,0.5,0.6l0,0c0.7,0,1.5-0.1,2.2-0.1c0.3,0,0.5-0.3,0.5-0.6V101
		c0-0.3-0.2-0.5-0.5-0.5l0,0c-0.7,0.1-1.5,0.1-2.2,0.1C100,100.6,99.8,100.9,99.8,101.2z"/>
	<path class="st4" d="M118.8,70.5c-0.6,0-1-0.4-1-1c0-0.4,0.3-0.8,0.7-0.9c1-0.3,1.9-0.8,2.8-1.3c2.4-1.4,3.7-3.2,3.7-5
		c0-1.9-1.3-3.7-3.7-5.1c-0.5-0.3-0.6-0.9-0.4-1.4c0.3-0.5,0.9-0.6,1.4-0.4c3,1.8,4.7,4.2,4.7,6.8c0,2.6-1.6,5-4.6,6.8
		c-1,0.6-2.1,1.1-3.2,1.4C119,70.5,118.9,70.5,118.8,70.5z"/>
	<path class="st4" d="M114.4,108.1c-1.2,0-2.1-0.9-2.1-2.1l0,0V73.4c0-0.7,0.4-1.2,1-1.5c0.3-0.1,0.7-0.2,1-0.4v-0.1
		c-4.5,0.5-9.1-0.3-13.1-2.5c-3-1.8-4.7-4.2-4.7-6.8c0-2.6,1.6-5,4.6-6.8c5.8-3.4,15.3-3.4,21.2,0c3,1.7,4.6,4.1,4.7,6.6V62l0,0
		l-0.1,34.7c0,2.7-2.2,5.8-5.9,8.2c-1.8,1.2-3.8,2.1-5.8,2.8C114.9,108,114.7,108.1,114.4,108.1z M114.4,73.7V106l0.1,0.1
		c1.9-0.6,3.7-1.5,5.4-2.6c3.7-2.5,5-5,5-6.6l0.1-34.6l0,0c0-1.9-1.3-3.7-3.7-5c-5.3-3.1-13.9-3.1-19.2,0c-2.4,1.4-3.7,3.2-3.7,5
		c0,1.8,1.3,3.7,3.7,5.1c3.7,1.9,7.8,2.7,11.9,2.2c1.1-0.1,2.1,0.7,2.3,1.8c0,0.3,0,0.6-0.1,0.9c-0.2,0.6-0.6,1-1.2,1.3
		C114.9,73.5,114.6,73.6,114.4,73.7z"/>
	<path class="st2" d="M119.9,56.2c0.1-1.2-0.7-2.5-2.4-3.5c-3.6-1.8-7.9-1.8-11.5,0c-1.3,0.6-2.2,1.9-2.4,3.3l0,0l-0.1,4.9
		c0,0.5,0.1,0.9,0.3,1.3c0.2,0.4,0.5,0.8,0.8,1.1c0.4,0.4,0.8,0.7,1.3,0.9c0.2,0.1,0.4,0.2,0.6,0.3c0,0,0,0,0.1,0
		c0.2,0.1,0.4,0.2,0.6,0.2c3.4,1.3,7.1,1.1,10.3-0.6c1.3-0.6,2.2-1.9,2.4-3.3L119.9,56.2C119.9,56.1,119.9,56.2,119.9,56.2z"/>
	<path class="st1" d="M111.7,66.6c-1.7,0-3.3-0.3-4.9-0.9c-0.2-0.1-0.4-0.2-0.6-0.3c-0.3-0.1-0.5-0.3-0.7-0.4
		c-0.5-0.3-1-0.7-1.5-1.1c-0.4-0.4-0.7-0.8-1-1.3c-0.3-0.6-0.4-1.2-0.4-1.8l0.1-4.8c0-1.6,1-3.1,2.9-4.2c3.9-2,8.6-2,12.5,0
		c1.6,0.8,2.7,2.3,2.9,4.1l0,0l0,0c0,0,0,0,0,0.1l-0.1,4.8c0,1.6-1,3.1-2.9,4.2C116.1,66.1,113.9,66.7,111.7,66.6z M104.7,56.1
		l-0.1,4.8c0,0.3,0.1,0.6,0.2,0.9c0.2,0.3,0.4,0.6,0.6,0.8c0.3,0.3,0.7,0.6,1.1,0.8c0.2,0.1,0.3,0.2,0.5,0.3s0.4,0.2,0.6,0.2
		c3.1,1.1,6.5,1,9.4-0.5c1-0.4,1.7-1.4,1.9-2.4l0.1-4.7l0,0v-0.1c0-0.9-0.7-1.8-1.9-2.5c-3.3-1.6-7.2-1.6-10.5,0
		C105.5,54,104.8,55,104.7,56.1L104.7,56.1L104.7,56.1L104.7,56.1z"/>
	<path class="st4" d="M115.3,54.2c2,1.1,2,3,0,4.1c-2.2,1.1-4.9,1.1-7.1,0c-2-1.1-2-3,0-4.1C110.4,53.1,113.1,53.1,115.3,54.2z"/>
	<path class="st1" d="M119.9,56.1l-0.1,4.8c-0.1,1.4-1,2.7-2.4,3.3c-3.6,1.8-7.9,1.8-11.5,0c-1.6-0.9-2.4-2.1-2.4-3.4l0.1-4.8
		c0,1.2,0.8,2.4,2.4,3.3c3.6,1.8,7.9,1.8,11.5,0C118.9,58.8,119.8,57.5,119.9,56.1z"/>
	<path class="st4" d="M111.7,66.6c-1.7,0-3.3-0.3-4.9-0.9c-0.2-0.1-0.4-0.2-0.6-0.3c-0.3-0.1-0.5-0.3-0.7-0.4
		c-0.5-0.3-1-0.7-1.5-1.1c-0.4-0.4-0.7-0.8-1-1.3c-0.3-0.6-0.4-1.2-0.4-1.8l0.1-4.8c0-1.6,1-3.1,2.9-4.2c3.9-2,8.6-2,12.5,0
		c1.6,0.8,2.7,2.3,2.9,4.1l0,0l0,0c0,0,0,0,0,0.1l-0.1,4.8c0,1.6-1,3.1-2.9,4.2C116.1,66.1,113.9,66.7,111.7,66.6z M104.7,56.1
		l-0.1,4.8c0,0.3,0.1,0.6,0.2,0.9c0.2,0.3,0.4,0.6,0.6,0.8c0.3,0.3,0.7,0.6,1.1,0.8c0.2,0.1,0.3,0.2,0.5,0.3s0.4,0.2,0.6,0.2
		c3.1,1.1,6.5,1,9.4-0.5c1-0.4,1.7-1.4,1.9-2.4l0.1-4.7l0,0v-0.1c0-0.9-0.7-1.8-1.9-2.5c-3.3-1.6-7.2-1.6-10.5,0
		C105.5,54,104.8,55,104.7,56.1L104.7,56.1L104.7,56.1L104.7,56.1z"/>
	<path class="st1" d="M108,79.5c-0.7,0.1-1.4,0.2-2.2,0.3c-0.3,0-0.5,0.3-0.5,0.5v1.4c0,0.3,0.2,0.6,0.6,0.5c0,0,0,0,0.1,0
		c0.7-0.1,1.5-0.2,2.2-0.3c0.3,0,0.5-0.3,0.5-0.5V80C108.7,79.8,108.4,79.5,108,79.5C108.1,79.5,108.1,79.5,108,79.5z"/>
	<polygon class="st5" points="73.3,53.5 37.6,74 37.6,62.1 73.3,41.6 	"/>
	<path class="st6" d="M37.6,75c-0.6,0-1-0.4-1-1V62.1c0-0.4,0.2-0.7,0.5-0.9l35.7-20.5c0.5-0.3,1.1-0.1,1.4,0.4
		c0.1,0.2,0.1,0.3,0.1,0.5v11.9c0,0.4-0.2,0.7-0.5,0.9L38.1,74.9C38,75,37.8,75,37.6,75z M38.6,62.7v9.6l33.7-19.4v-9.6L38.6,62.7z"
		/>
	<polygon class="st3" points="2,53.4 37.6,74 37.6,62.1 2,41.5 	"/>
	<path class="st6" d="M37.6,75c-0.2,0-0.3,0-0.5-0.1L1.5,54.2C1.2,54.1,1,53.7,1,53.4V41.5c0-0.6,0.4-1,1-1c0.2,0,0.3,0,0.5,0.1
		l35.6,20.6c0.3,0.2,0.5,0.5,0.5,0.9V74C38.6,74.6,38.2,75,37.6,75z M3,52.8l33.6,19.5v-9.6L3,43.2V52.8z"/>
	<polygon class="st3" points="73.3,41.6 37.7,20.9 2,41.5 37.6,62.1 	"/>
	<path class="st6" d="M37.6,63.1c-0.2,0-0.3,0-0.5-0.1L1.5,42.3C1,42.1,0.9,41.5,1.1,41c0.1-0.2,0.2-0.3,0.4-0.4l35.7-20.5
		c0.3-0.2,0.7-0.2,1,0l35.6,20.6c0.5,0.3,0.6,0.9,0.4,1.4c-0.1,0.2-0.2,0.3-0.4,0.4L38.1,63C38,63.1,37.8,63.1,37.6,63.1z M4,41.5
		L37.6,61l33.7-19.4L37.7,22.1L4,41.5z"/>
	<path class="st6" d="M55.5,52.8c-0.2,0-0.3,0-0.5-0.1L37.2,42.4c-0.5-0.3-0.6-0.9-0.4-1.4c0.1-0.2,0.2-0.3,0.4-0.4L55,30.4
		c0.3-0.2,0.7-0.2,1,0l17.8,10.3c0.5,0.3,0.6,0.9,0.4,1.4c-0.1,0.2-0.2,0.3-0.4,0.4L56,52.7C55.8,52.8,55.7,52.8,55.5,52.8z
		 M39.7,41.5l15.8,9.2l15.8-9.1l-15.8-9.2L39.7,41.5z"/>
	<path class="st6" d="M37.6,63.1c-0.2,0-0.3,0-0.5-0.1L1.5,42.3C1,42.1,0.9,41.5,1.1,41c0.1-0.2,0.2-0.3,0.4-0.4l35.7-20.5
		c0.3-0.2,0.7-0.2,1,0l35.6,20.6c0.5,0.3,0.6,0.9,0.4,1.4c-0.1,0.2-0.2,0.3-0.4,0.4L38.1,63C38,63.1,37.8,63.1,37.6,63.1z M4,41.5
		L37.6,61l33.7-19.4L37.7,22.1L4,41.5z"/>
	<path class="st6" d="M55.5,64.8c-0.6,0-1-0.4-1-1v-12c0-0.6,0.4-1,1-1s1,0.4,1,1v11.9C56.5,64.3,56,64.8,55.5,64.8z"/>
	<path class="st6" d="M55.5,45.6c-3.4,0-6.1-1.7-6.1-4s2.7-4,6.1-4s6.1,1.7,6.1,4S58.9,45.6,55.5,45.6z M55.5,39.6
		c-2.4,0-4.1,1-4.1,2s1.8,2,4.1,2s4.1-1,4.1-2S57.8,39.6,55.5,39.6z"/>
	<ellipse class="st5" cx="37.7" cy="26.2" rx="1.7" ry="1"/>
	<ellipse class="st5" cx="11.1" cy="41.5" rx="1.7" ry="1"/>
	<ellipse class="st5" cx="37.6" cy="56.8" rx="1.7" ry="1"/>
	<path class="st7" d="M37.6,75c-0.2,0-0.3,0-0.5-0.1L1.5,54.2C1.2,54.1,1,53.7,1,53.4V41.5c0-0.4,0.2-0.7,0.5-0.9l35.7-20.5
		c0.3-0.2,0.7-0.2,1,0L56,30.4l0,0l17.8,10.3c0.3,0.2,0.5,0.5,0.5,0.9v11.9c0,0.4-0.2,0.7-0.5,0.9L38.1,74.9C38,75,37.8,75,37.6,75z
		 M3,52.8l34.6,20.1l34.7-20V42.2L37.7,22.1L3,42.1V52.8z"/>
	<path class="st1" d="M67.5,71.7c-0.1,0-0.1,0-0.2,0l-8.8-1.4c-0.5-0.1-0.9-0.6-0.8-1.1c0-0.3,0.2-0.6,0.5-0.7l6.4-3.7
		c0.5-0.3,1.1-0.1,1.4,0.4v0.1l2.4,5.1c0.2,0.5,0,1.1-0.5,1.3C67.8,71.7,67.6,71.7,67.5,71.7L67.5,71.7z M61.7,68.8l4.1,0.6L64.7,67
		L61.7,68.8z"/>
	<g>
		<rect class="st0" width="128" height="128"/>
	</g>
</g>
</svg>
