<?xml version="1.0" encoding="utf-8"?>
<!-- Generator: Adobe Illustrator 24.1.2, SVG Export Plug-In . SVG Version: 6.00 Build 0)  -->
<svg version="1.1" id="Layer_1" xmlns="http://www.w3.org/2000/svg" xmlns:xlink="http://www.w3.org/1999/xlink" x="0px" y="0px"
	 width="440px" height="300px" viewBox="0 0 440 300" style="enable-background:new 0 0 440 300;" xml:space="preserve">
<style type="text/css">
	.st0{fill:#27ae60;}
	.st1{fill:#E9EBDF;}
	.st2{fill:#FFFFFF;}
	.st3{fill:#0E352C;}
	.st4{fill:#185849;}
	.st5{fill:#C4D7D3;}
	.st6{fill:#4D9987;}
	.st7{fill:none;}
</style>
<g>
	<g>
		<path class="st0" d="M238.2,237.4c-0.3,0-0.5-0.1-0.7-0.3s-0.3-0.4-0.3-0.7c0-0.1,0-0.1,0-0.2c0-0.1,0-0.1,0.1-0.2
			c0-0.1,0.1-0.1,0.1-0.2c0-0.1,0.1-0.1,0.1-0.1c0.3-0.3,0.7-0.4,1.1-0.2c0.1,0,0.2,0.1,0.3,0.2c0.3,0.3,0.4,0.7,0.2,1.1
			c0,0.1-0.1,0.2-0.2,0.3c-0.1,0.1-0.2,0.2-0.3,0.2C238.4,237.3,238.3,237.4,238.2,237.4z"/>
		<path class="st0" d="M200.1,254.4c0-0.6,0.5-1,1-1l0,0c0.6,0,1,0.5,1,1l0,0c0,0.5-0.4,1-1,1l0,0l0,0
			C200.6,255.4,200.1,254.9,200.1,254.4z M206.1,253.9c-0.1-0.5,0.2-1.1,0.7-1.2l0,0c0.5-0.1,1.1,0.2,1.2,0.7l0,0
			c0.1,0.5-0.2,1.1-0.7,1.2l0,0l0,0c-0.1,0-0.2,0-0.3,0l0,0C206.6,254.7,206.2,254.4,206.1,253.9L206.1,253.9z M195,254.6L195,254.6
			c-0.5-0.2-0.8-0.7-0.7-1.2l0,0c0.2-0.5,0.7-0.8,1.2-0.7l0,0c0.5,0.1,0.8,0.7,0.7,1.2l0,0l0,0c-0.1,0.4-0.5,0.7-1,0.7l0,0
			C195.2,254.6,195.1,254.6,195,254.6L195,254.6z M211.6,251.7c-0.3-0.5-0.1-1.1,0.4-1.4l0,0c0.5-0.3,1.1-0.1,1.4,0.4l0,0l0,0
			c0.3,0.5,0.1,1.1-0.3,1.4l0,0l0,0c-0.2,0.1-0.3,0.1-0.5,0.1l0,0C212.1,252.2,211.8,252,211.6,251.7L211.6,251.7z M189.4,252
			c-0.5-0.3-0.6-0.9-0.4-1.4l0,0c0.3-0.5,0.9-0.6,1.3-0.4l0,0l0,0c0.5,0.3,0.6,0.9,0.4,1.4l0,0c-0.2,0.3-0.5,0.5-0.9,0.5l0,0
			C189.7,252.2,189.5,252.1,189.4,252z M216.7,248.8c-0.3-0.5-0.1-1.1,0.4-1.4l0,0l0,0c0.5-0.3,1.1-0.1,1.4,0.4l0,0
			c0.3,0.5,0.1,1.1-0.4,1.4l0,0c-0.2,0.1-0.3,0.1-0.5,0.1l0,0C217.2,249.3,216.9,249.1,216.7,248.8z M184.2,249
			c-0.5-0.3-0.6-0.9-0.4-1.4l0,0c0.3-0.5,0.9-0.6,1.3-0.4l0,0l0,0c0.5,0.3,0.6,0.9,0.4,1.3l0,0l0,0c-0.2,0.3-0.5,0.5-0.9,0.5l0,0
			C184.6,249.2,184.4,249.1,184.2,249L184.2,249z M221.9,245.8c-0.3-0.5-0.1-1.1,0.4-1.4l0,0c0.5-0.3,1.1-0.1,1.4,0.4l0,0
			c0.3,0.5,0.1,1.1-0.4,1.4l0,0l0,0c-0.2,0.1-0.3,0.1-0.5,0.1l0,0C222.4,246.3,222.1,246.1,221.9,245.8L221.9,245.8z M179.1,246.1
			c-0.5-0.3-0.6-0.9-0.4-1.4l0,0c0.3-0.5,0.9-0.6,1.3-0.4l0,0l0,0c0.5,0.3,0.6,0.9,0.4,1.3l0,0l0,0c-0.2,0.3-0.5,0.5-0.9,0.5l0,0
			C179.4,246.2,179.2,246.2,179.1,246.1L179.1,246.1z M227,242.8c-0.3-0.5-0.1-1.1,0.4-1.4l0,0c0.5-0.3,1.1-0.1,1.4,0.4l0,0
			c0.3,0.5,0.1,1.1-0.4,1.4l0,0c-0.2,0.1-0.3,0.1-0.5,0.1l0,0C227.5,243.3,227.2,243.1,227,242.8L227,242.8z M174,243.1
			c-0.5-0.3-0.6-0.9-0.4-1.3l0,0l0,0c0.3-0.5,0.9-0.6,1.4-0.4l0,0c0.5,0.3,0.6,0.9,0.4,1.4l0,0l0,0c-0.2,0.3-0.5,0.5-0.9,0.5l0,0
			C174.3,243.2,174.1,243.2,174,243.1L174,243.1z M232.2,239.8c-0.3-0.5-0.1-1.1,0.4-1.4l0,0l0,0c0.5-0.3,1.1-0.1,1.4,0.4l0,0l0,0
			c0.3,0.5,0.1,1.1-0.4,1.4l0,0l0,0c-0.2,0.1-0.3,0.1-0.5,0.1l0,0C232.7,240.3,232.4,240.1,232.2,239.8L232.2,239.8z M168.8,240.1
			c-0.5-0.3-0.6-0.9-0.4-1.4l0,0l0,0c0.3-0.5,0.9-0.6,1.4-0.4l0,0c0.5,0.3,0.6,0.9,0.4,1.4l0,0c-0.2,0.3-0.5,0.5-0.9,0.5l0,0
			C169.1,240.3,169,240.2,168.8,240.1L168.8,240.1z M163.6,237.2c-0.5-0.3-0.6-0.9-0.4-1.4l0,0l0,0c0.3-0.5,0.9-0.6,1.4-0.4l0,0l0,0
			c0.5,0.3,0.6,0.9,0.4,1.4l0,0l0,0c-0.2,0.3-0.5,0.5-0.9,0.5l0,0C164,237.3,163.8,237.2,163.6,237.2L163.6,237.2z M158.5,234.2
			c-0.5-0.3-0.6-0.9-0.4-1.4l0,0c0.3-0.5,0.9-0.6,1.4-0.4l0,0c0.5,0.3,0.6,0.9,0.4,1.4l0,0c-0.2,0.3-0.5,0.5-0.9,0.5l0,0
			C158.8,234.3,158.6,234.3,158.5,234.2L158.5,234.2z M153.4,231.2c-0.5-0.3-0.6-0.9-0.4-1.4l0,0c0.3-0.5,0.9-0.6,1.4-0.4l0,0
			c0.5,0.3,0.6,0.9,0.4,1.4l0,0l0,0c-0.2,0.3-0.5,0.5-0.9,0.5l0,0C153.7,231.3,153.5,231.3,153.4,231.2L153.4,231.2z M148.2,228.2
			c-0.5-0.3-0.6-0.9-0.4-1.4l0,0l0,0c0.3-0.5,0.9-0.6,1.4-0.4l0,0c0.5,0.3,0.6,0.9,0.4,1.3l0,0l0,0c-0.2,0.3-0.5,0.5-0.9,0.5l0,0
			C148.5,228.4,148.4,228.3,148.2,228.2L148.2,228.2z M143.1,225.3c-0.5-0.3-0.6-0.9-0.4-1.4l0,0c0.3-0.5,0.9-0.6,1.4-0.4l0,0
			c0.5,0.3,0.6,0.9,0.4,1.4l0,0l0,0c-0.2,0.3-0.5,0.5-0.9,0.5l0,0C143.4,225.4,143.2,225.3,143.1,225.3L143.1,225.3z M137.9,222.3
			c-0.5-0.3-0.6-0.9-0.4-1.4l0,0c0.3-0.5,0.9-0.6,1.4-0.4l0,0l0,0c0.5,0.3,0.6,0.9,0.4,1.4l0,0l0,0c-0.2,0.3-0.5,0.5-0.9,0.5l0,0
			C138.2,222.4,138,222.4,137.9,222.3L137.9,222.3z M132.8,219.3c-0.5-0.3-0.6-0.9-0.4-1.3l0,0l0,0c0.3-0.5,0.9-0.6,1.3-0.4l0,0l0,0
			c0.5,0.3,0.6,0.9,0.4,1.3l0,0l0,0c-0.2,0.3-0.5,0.5-0.9,0.5l0,0C133.1,219.4,132.9,219.4,132.8,219.3L132.8,219.3z M127.6,216.3
			c-0.5-0.3-0.6-0.9-0.4-1.4l0,0c0.3-0.5,0.9-0.6,1.4-0.4l0,0l0,0c0.5,0.3,0.6,0.9,0.4,1.4l0,0c-0.2,0.3-0.5,0.5-0.9,0.5l0,0
			C127.9,216.5,127.8,216.4,127.6,216.3L127.6,216.3z M122.5,213.4c-0.5-0.3-0.6-0.9-0.4-1.3l0,0l0,0c0.3-0.5,0.9-0.6,1.4-0.4l0,0
			l0,0c0.5,0.3,0.6,0.9,0.4,1.4l0,0c-0.2,0.3-0.5,0.5-0.9,0.5l0,0C122.8,213.5,122.6,213.5,122.5,213.4L122.5,213.4z M117.3,210.4
			c-0.5-0.3-0.6-0.9-0.4-1.3l0,0l0,0c0.3-0.5,0.9-0.6,1.3-0.4l0,0l0,0c0.5,0.3,0.6,0.9,0.4,1.4l0,0l0,0c-0.2,0.3-0.5,0.5-0.9,0.5
			l0,0C117.6,210.5,117.5,210.5,117.3,210.4L117.3,210.4z M112.1,207.4c-0.5-0.3-0.6-0.9-0.4-1.4l0,0l0,0c0.3-0.5,0.9-0.6,1.3-0.4
			l0,0l0,0c0.5,0.3,0.6,0.9,0.4,1.4l0,0c-0.2,0.3-0.5,0.5-0.9,0.5l0,0C112.5,207.6,112.3,207.5,112.1,207.4L112.1,207.4z M107,204.5
			c-0.5-0.3-0.6-0.9-0.4-1.4l0,0c0.3-0.5,0.9-0.6,1.4-0.4l0,0l0,0c0.5,0.3,0.6,0.9,0.4,1.4l0,0l0,0c-0.2,0.3-0.5,0.5-0.9,0.5l0,0
			C107.3,204.6,107.2,204.5,107,204.5z M101.8,201.5c-0.5-0.3-0.6-0.9-0.3-1.4l0,0c0.3-0.5,0.9-0.6,1.4-0.3l0,0
			c0.5,0.3,0.6,0.9,0.3,1.4l0,0l0,0c-0.2,0.3-0.5,0.5-0.9,0.5l0,0C102.2,201.6,102,201.6,101.8,201.5L101.8,201.5z M97.7,196.4
			c-0.1-0.5,0.2-1.1,0.7-1.2l0,0l0,0c0.5-0.1,1.1,0.2,1.2,0.7l0,0c0.1,0.5-0.2,1.1-0.7,1.2l0,0l0,0c-0.1,0-0.2,0-0.2,0l0,0
			C98.2,197.2,97.8,196.9,97.7,196.4L97.7,196.4z M99.8,191.6c-0.4-0.4-0.4-1,0-1.4l0,0c0.4-0.4,1-0.3,1.4,0.1l0,0
			c0.4,0.4,0.3,1-0.1,1.4l0,0c-0.2,0.2-0.4,0.3-0.7,0.3l0,0C100.3,191.9,100,191.8,99.8,191.6z M104.7,188.2
			c-0.3-0.5-0.1-1.1,0.4-1.4l0,0l0,0c0.5-0.3,1.1-0.1,1.4,0.4l0,0c0.3,0.5,0.1,1.1-0.4,1.4l0,0c-0.2,0.1-0.3,0.1-0.5,0.1l0,0
			C105.2,188.7,104.9,188.5,104.7,188.2z M109.9,185.2c-0.3-0.5-0.1-1.1,0.4-1.4l0,0c0.5-0.3,1.1-0.1,1.4,0.4l0,0
			c0.3,0.5,0.1,1.1-0.4,1.4l0,0c-0.2,0.1-0.3,0.1-0.5,0.1l0,0C110.4,185.7,110.1,185.5,109.9,185.2z"/>
		<path class="st0" d="M115.9,182.7c-0.3,0-0.5-0.1-0.7-0.3s-0.3-0.4-0.3-0.7s0.1-0.5,0.3-0.7c0.1-0.1,0.2-0.2,0.3-0.2
			c0.1,0,0.1,0,0.2,0s0.3,0,0.4,0s0.1,0,0.2,0c0.1,0.1,0.2,0.1,0.3,0.2c0.2,0.2,0.3,0.4,0.3,0.7c0,0.1,0,0.3-0.1,0.4
			c-0.1,0.1-0.1,0.2-0.2,0.3C116.4,182.6,116.2,182.7,115.9,182.7z"/>
		<path class="st0" d="M115.9,182.7c-0.3,0-0.5-0.1-0.7-0.3s-0.3-0.4-0.3-0.7s0.1-0.5,0.3-0.7c0.1-0.1,0.2-0.2,0.3-0.2
			c0.1,0,0.1,0,0.2,0s0.3,0,0.4,0s0.1,0,0.2,0c0.1,0.1,0.2,0.1,0.3,0.2c0.2,0.2,0.3,0.4,0.3,0.7c0,0.1,0,0.3-0.1,0.4
			c-0.1,0.1-0.1,0.2-0.2,0.3C116.4,182.6,116.2,182.7,115.9,182.7z"/>
		<path class="st0" d="M110.1,179.6c-0.5-0.3-0.6-0.9-0.4-1.4l0,0c0.3-0.5,0.9-0.6,1.4-0.4l0,0l0,0c0.5,0.3,0.6,0.9,0.4,1.4l0,0l0,0
			c-0.2,0.3-0.5,0.5-0.9,0.5l0,0C110.5,179.7,110.3,179.6,110.1,179.6z M104.9,175.7c-0.3-0.4-0.2-1.1,0.2-1.4l0,0l0,0
			c0.5-0.3,1.1-0.2,1.4,0.2l0,0c0.3,0.4,0.2,1.1-0.2,1.4l0,0l0,0c-0.2,0.1-0.4,0.2-0.6,0.2l0,0C105.4,176.2,105.1,176,104.9,175.7
			L104.9,175.7z M105.7,170.4c-0.4-0.4-0.4-1,0-1.4l0,0c0.4-0.4,1-0.4,1.4,0l0,0c0.4,0.4,0.4,1,0,1.4l0,0c-0.2,0.2-0.4,0.3-0.7,0.3
			l0,0C106.1,170.6,105.9,170.5,105.7,170.4z M110.6,166.9c-0.3-0.5-0.1-1.1,0.4-1.4l0,0c0.5-0.3,1.1-0.1,1.4,0.4l0,0
			c0.3,0.5,0.1,1.1-0.4,1.4l0,0l0,0c-0.2,0.1-0.3,0.1-0.5,0.1l0,0C111.1,167.4,110.8,167.2,110.6,166.9L110.6,166.9z M115.9,163.8
			c-0.3-0.5-0.1-1.1,0.4-1.4l0,0l0,0c0.5-0.3,1.1-0.1,1.4,0.4l0,0c0.3,0.5,0.1,1.1-0.4,1.4l0,0l0,0c-0.1,0.1-0.3,0.1-0.5,0.1l0,0
			C116.4,164.3,116.1,164.1,115.9,163.8L115.9,163.8z M121.2,160.8c-0.3-0.5-0.1-1.1,0.4-1.4l0,0c0.5-0.3,1.1-0.1,1.4,0.4l0,0l0,0
			c0.3,0.5,0.1,1.1-0.3,1.3l0,0l0,0c-0.2,0.1-0.3,0.1-0.5,0.1l0,0C121.7,161.3,121.4,161.1,121.2,160.8L121.2,160.8z M126.4,157.7
			c-0.3-0.5-0.1-1.1,0.4-1.4l0,0c0.5-0.3,1.1-0.1,1.4,0.4l0,0c0.3,0.5,0.1,1.1-0.4,1.4l0,0c-0.2,0.1-0.3,0.1-0.5,0.1l0,0
			C127,158.2,126.6,158.1,126.4,157.7L126.4,157.7z M131.7,154.7c-0.3-0.5-0.1-1.1,0.4-1.4l0,0l0,0c0.5-0.3,1.1-0.1,1.4,0.4l0,0
			c0.3,0.5,0.1,1.1-0.4,1.4l0,0c-0.2,0.1-0.3,0.1-0.5,0.1l0,0C132.2,155.2,131.9,155,131.7,154.7L131.7,154.7z M137,151.7
			c-0.3-0.5-0.1-1.1,0.4-1.4l0,0c0.5-0.3,1.1-0.1,1.4,0.4l0,0l0,0c0.3,0.5,0.1,1.1-0.3,1.4l0,0l0,0c-0.2,0.1-0.3,0.1-0.5,0.1l0,0
			C137.5,152.2,137.2,152,137,151.7z M142.3,148.6c-0.3-0.5-0.1-1.1,0.4-1.4l0,0l0,0c0.5-0.3,1.1-0.1,1.4,0.4l0,0
			c0.3,0.5,0.1,1.1-0.4,1.4l0,0l0,0c-0.2,0.1-0.3,0.1-0.5,0.1l0,0C142.8,149.1,142.4,148.9,142.3,148.6L142.3,148.6z M147.5,145.6
			c-0.3-0.5-0.1-1.1,0.4-1.4l0,0l0,0c0.5-0.3,1.1-0.1,1.4,0.4l0,0l0,0c0.3,0.5,0.1,1.1-0.4,1.4l0,0l0,0c-0.2,0.1-0.3,0.1-0.5,0.1
			l0,0C148.1,146.1,147.7,145.9,147.5,145.6L147.5,145.6z M152.8,142.5c-0.3-0.5-0.1-1.1,0.4-1.4l0,0c0.5-0.3,1.1-0.1,1.4,0.4l0,0
			l0,0c0.3,0.5,0.1,1.1-0.4,1.4l0,0c-0.2,0.1-0.3,0.1-0.5,0.1l0,0C153.3,143,153,142.8,152.8,142.5L152.8,142.5z M158.1,139.5
			c-0.3-0.5-0.1-1.1,0.4-1.4l0,0c0.5-0.3,1.1-0.1,1.4,0.4l0,0c0.3,0.5,0.1,1.1-0.4,1.4l0,0c-0.2,0.1-0.3,0.1-0.5,0.1l0,0
			C158.6,140,158.3,139.8,158.1,139.5L158.1,139.5z M163.4,136.4c-0.3-0.5-0.1-1.1,0.4-1.4l0,0l0,0c0.5-0.3,1.1-0.1,1.4,0.4l0,0l0,0
			c0.3,0.5,0.1,1.1-0.4,1.4l0,0l0,0c-0.1,0.1-0.3,0.1-0.5,0.1l0,0C163.9,136.9,163.5,136.7,163.4,136.4L163.4,136.4z M168.6,133.4
			c-0.3-0.5-0.1-1.1,0.4-1.4l0,0c0.5-0.3,1.1-0.1,1.4,0.4l0,0c0.3,0.5,0.1,1.1-0.3,1.4l0,0l0,0c-0.2,0.1-0.3,0.1-0.5,0.1l0,0
			C169.1,133.9,168.8,133.7,168.6,133.4L168.6,133.4z M173.9,130.3c-0.3-0.5-0.1-1.1,0.4-1.4l0,0c0.5-0.3,1.1-0.1,1.4,0.4l0,0
			c0.3,0.5,0.1,1.1-0.4,1.4l0,0c-0.2,0.1-0.3,0.1-0.5,0.1l0,0C174.4,130.8,174.1,130.7,173.9,130.3L173.9,130.3z M179.2,127.3
			c-0.3-0.5-0.1-1.1,0.4-1.4l0,0l0,0c0.5-0.3,1.1-0.1,1.4,0.4l0,0c0.3,0.5,0.1,1.1-0.4,1.4l0,0c-0.2,0.1-0.3,0.1-0.5,0.1l0,0
			C179.7,127.8,179.4,127.6,179.2,127.3L179.2,127.3z M184.5,124.3c-0.3-0.5-0.1-1.1,0.4-1.4l0,0c0.5-0.3,1.1-0.1,1.4,0.4l0,0
			c0.3,0.5,0.1,1.1-0.4,1.4l0,0c-0.2,0.1-0.3,0.1-0.5,0.1l0,0C185,124.7,184.6,124.6,184.5,124.3L184.5,124.3z M189.7,121.2
			c-0.3-0.5-0.1-1.1,0.4-1.4l0,0l0,0c0.5-0.3,1.1-0.1,1.4,0.4l0,0c0.3,0.5,0.1,1.1-0.4,1.4l0,0c-0.2,0.1-0.3,0.1-0.5,0.1l0,0
			C190.2,121.7,189.9,121.5,189.7,121.2L189.7,121.2z M195,118.2c-0.3-0.5-0.1-1.1,0.4-1.4l0,0c0.5-0.3,1.1-0.1,1.4,0.4l0,0l0,0
			c0.3,0.5,0.1,1.1-0.4,1.4l0,0l0,0c-0.1,0.1-0.3,0.1-0.5,0.1l0,0C195.5,118.7,195.2,118.5,195,118.2L195,118.2z M200.3,115.1
			c-0.3-0.5-0.1-1.1,0.4-1.4l0,0c0.5-0.3,1.1-0.1,1.4,0.4l0,0c0.3,0.5,0.1,1.1-0.4,1.4l0,0l0,0c-0.2,0.1-0.3,0.1-0.5,0.1l0,0
			C200.8,115.6,200.5,115.4,200.3,115.1L200.3,115.1z M205.6,112.1c-0.3-0.5-0.1-1.1,0.4-1.4l0,0l0,0c0.5-0.3,1.1-0.1,1.4,0.4l0,0
			l0,0c0.3,0.5,0.1,1.1-0.4,1.4l0,0c-0.2,0.1-0.3,0.1-0.5,0.1l0,0C206.1,112.6,205.7,112.4,205.6,112.1L205.6,112.1z M228.6,111.2
			c-0.5-0.3-0.6-0.9-0.4-1.4l0,0c0.3-0.5,0.9-0.6,1.4-0.4l0,0l0,0c0.5,0.3,0.6,0.9,0.4,1.4l0,0l0,0c-0.2,0.3-0.5,0.5-0.9,0.5l0,0
			C228.9,111.3,228.7,111.3,228.6,111.2L228.6,111.2z M210.8,109c-0.2-0.5,0-1.1,0.4-1.3l0,0l0,0c0.5-0.2,1.1,0,1.3,0.4l0,0
			c0.2,0.5,0,1.1-0.4,1.4l0,0l0,0c-0.1,0.1-0.3,0.1-0.4,0.1l0,0C211.3,109.6,211,109.3,210.8,109L210.8,109z M223.3,108.6
			c-0.5-0.1-0.8-0.7-0.7-1.2l0,0l0,0c0.1-0.5,0.7-0.8,1.2-0.7l0,0l0,0c0.5,0.2,0.8,0.7,0.7,1.2l0,0c-0.1,0.4-0.5,0.7-1,0.7l0,0
			C223.5,108.6,223.4,108.6,223.3,108.6L223.3,108.6z M216.6,107.1c0-0.6,0.4-1,0.9-1.1l0,0c0.6,0,1,0.4,1.1,0.9l0,0l0,0
			c0,0.6-0.4,1-0.9,1.1l0,0h-0.1C217,108.1,216.6,107.7,216.6,107.1L216.6,107.1z"/>
		<path class="st0" d="M234.3,114.4c-0.1,0-0.3,0-0.4-0.1c-0.1-0.1-0.2-0.1-0.3-0.2s-0.2-0.2-0.2-0.3c0-0.1-0.1-0.3-0.1-0.4
			s0-0.3,0.1-0.4s0.1-0.2,0.2-0.3c0.1-0.1,0.2-0.2,0.3-0.2c0.4-0.1,0.8-0.1,1.1,0.2c0.1,0.1,0.2,0.2,0.2,0.3c0,0.1,0.1,0.2,0.1,0.4
			c0,0.1,0,0.3-0.1,0.4s-0.1,0.2-0.2,0.3c-0.1,0.1-0.2,0.2-0.3,0.2S234.5,114.4,234.3,114.4z"/>
		<path class="st0" d="M234.3,114.4c-0.1,0-0.3,0-0.4-0.1c-0.1-0.1-0.2-0.1-0.3-0.2s-0.2-0.2-0.2-0.3c0-0.1-0.1-0.3-0.1-0.4
			s0-0.3,0.1-0.4s0.1-0.2,0.2-0.3c0.1-0.1,0.2-0.2,0.3-0.2c0.4-0.1,0.8-0.1,1.1,0.2c0.1,0.1,0.2,0.2,0.2,0.3c0,0.1,0.1,0.2,0.1,0.4
			c0,0.1,0,0.3-0.1,0.4s-0.1,0.2-0.2,0.3c-0.1,0.1-0.2,0.2-0.3,0.2S234.5,114.4,234.3,114.4z"/>
		<path class="st0" d="M131.7,188.1c0-0.6,0.4-1,0.9-1.1l0,0c0.5,0,1,0.4,1.1,0.9l0,0c0,0.6-0.4,1-0.9,1.1l0,0h-0.1
			C132.2,189,131.7,188.6,131.7,188.1z M126.4,188.4c-0.5-0.2-0.8-0.7-0.7-1.2l0,0c0.1-0.5,0.7-0.8,1.2-0.7l0,0l0,0
			c0.5,0.2,0.8,0.7,0.7,1.2l0,0c-0.1,0.4-0.5,0.7-1,0.7l0,0C126.6,188.4,126.5,188.4,126.4,188.4L126.4,188.4z M137.7,187
			c-0.2-0.5,0-1.1,0.4-1.3l0,0c0.5-0.2,1.1-0.1,1.3,0.4l0,0c0.2,0.5,0.1,1.1-0.4,1.3l0,0l0,0l0,0l0,0c-0.1,0.1-0.3,0.1-0.4,0.1l0,0
			C138.2,187.5,137.8,187.3,137.7,187L137.7,187z M120.7,185.7c-0.5-0.3-0.6-0.9-0.4-1.4l0,0l0,0c0.3-0.5,0.9-0.6,1.4-0.4l0,0l0,0
			c0.5,0.3,0.6,0.9,0.4,1.3l0,0l0,0c-0.2,0.3-0.5,0.5-0.9,0.5l0,0C121,185.8,120.9,185.7,120.7,185.7L120.7,185.7z M143,184
			c-0.3-0.5-0.1-1.1,0.3-1.4l0,0l0,0c0.5-0.3,1.1-0.1,1.4,0.4l0,0l0,0c0.3,0.5,0.1,1.1-0.4,1.4l0,0l0,0c-0.2,0.1-0.3,0.1-0.5,0.1
			l0,0C143.5,184.5,143.2,184.3,143,184z M148.2,181c-0.3-0.5-0.1-1.1,0.3-1.4l0,0l0,0c0.5-0.3,1.1-0.1,1.4,0.4l0,0l0,0
			c0.3,0.5,0.1,1.1-0.4,1.4l0,0c-0.2,0.1-0.3,0.1-0.5,0.1l0,0C148.8,181.5,148.4,181.3,148.2,181L148.2,181z M153.5,177.9
			c-0.3-0.5-0.1-1.1,0.4-1.4l0,0l0,0c0.5-0.3,1.1-0.1,1.4,0.4l0,0c0.3,0.5,0.1,1.1-0.4,1.4l0,0c-0.2,0.1-0.3,0.1-0.5,0.1l0,0
			C154,178.4,153.7,178.2,153.5,177.9L153.5,177.9z M158.8,174.9c-0.3-0.5-0.1-1.1,0.4-1.4l0,0c0.5-0.3,1.1-0.1,1.4,0.4l0,0l0,0
			c0.3,0.5,0.1,1.1-0.4,1.4l0,0c-0.2,0.1-0.3,0.1-0.5,0.1l0,0C159.3,175.4,159,175.2,158.8,174.9L158.8,174.9z M164.1,171.8
			c-0.3-0.5-0.1-1.1,0.4-1.4l0,0c0.5-0.3,1.1-0.1,1.4,0.4l0,0c0.3,0.5,0.1,1.1-0.4,1.4l0,0l0,0c-0.2,0.1-0.3,0.1-0.5,0.1l0,0
			C164.6,172.3,164.2,172.1,164.1,171.8L164.1,171.8z M169.3,168.8c-0.3-0.5-0.1-1.1,0.3-1.3l0,0l0,0c0.5-0.3,1.1-0.1,1.3,0.3l0,0
			l0,0c0.3,0.5,0.1,1.1-0.4,1.4l0,0l0,0c-0.2,0.1-0.3,0.1-0.5,0.1l0,0C169.9,169.3,169.5,169.1,169.3,168.8L169.3,168.8z
			 M174.6,165.7c-0.3-0.5-0.1-1.1,0.4-1.4l0,0l0,0c0.5-0.3,1.1-0.1,1.4,0.4l0,0l0,0c0.3,0.5,0.1,1.1-0.4,1.4l0,0
			c-0.2,0.1-0.3,0.1-0.5,0.1l0,0C175.1,166.2,174.8,166.1,174.6,165.7L174.6,165.7z M179.9,162.7c-0.3-0.5-0.1-1.1,0.3-1.3l0,0l0,0
			c0.5-0.3,1.1-0.1,1.4,0.4l0,0l0,0c0.3,0.5,0.1,1.1-0.4,1.4l0,0c-0.2,0.1-0.3,0.1-0.5,0.1l0,0C180.4,163.2,180.1,163,179.9,162.7
			L179.9,162.7z M185.2,159.6c-0.3-0.5-0.1-1.1,0.4-1.4l0,0c0.5-0.3,1.1-0.1,1.4,0.4l0,0c0.3,0.5,0.1,1.1-0.4,1.4l0,0
			c-0.2,0.1-0.3,0.1-0.5,0.1l0,0C185.7,160.1,185.3,160,185.2,159.6L185.2,159.6z M190.4,156.6c-0.3-0.5-0.1-1.1,0.4-1.4l0,0
			c0.5-0.3,1.1-0.1,1.4,0.4l0,0l0,0c0.3,0.5,0.1,1.1-0.4,1.4l0,0c-0.2,0.1-0.3,0.1-0.5,0.1l0,0C190.9,157.1,190.6,156.9,190.4,156.6
			L190.4,156.6z M195.7,153.6c-0.3-0.5-0.1-1.1,0.4-1.4l0,0c0.5-0.3,1.1-0.1,1.4,0.4l0,0c0.3,0.5,0.1,1.1-0.4,1.4l0,0l0,0
			c-0.2,0.1-0.3,0.1-0.5,0.1l0,0C196.2,154.1,195.9,153.9,195.7,153.6L195.7,153.6z M201,150.5c-0.3-0.5-0.1-1.1,0.4-1.4l0,0l0,0
			c0.5-0.3,1.1-0.1,1.4,0.3l0,0l0,0c0.3,0.5,0.1,1.1-0.4,1.4l0,0l0,0c-0.2,0.1-0.3,0.1-0.5,0.1l0,0C201.5,151,201.2,150.8,201,150.5
			L201,150.5z M206.2,147.5c-0.3-0.5-0.1-1.1,0.4-1.4l0,0c0.5-0.3,1.1-0.1,1.4,0.4l0,0c0.3,0.5,0.1,1.1-0.4,1.4l0,0
			c-0.2,0.1-0.3,0.1-0.5,0.1l0,0C206.8,148,206.4,147.8,206.2,147.5L206.2,147.5z M211.5,144.4c-0.3-0.5-0.1-1.1,0.4-1.4l0,0
			c0.5-0.3,1.1-0.1,1.4,0.4l0,0c0.3,0.5,0.1,1.1-0.4,1.4l0,0l0,0c-0.2,0.1-0.3,0.1-0.5,0.1l0,0C212,144.9,211.7,144.7,211.5,144.4
			L211.5,144.4z M216.8,141.4c-0.3-0.5-0.1-1.1,0.4-1.4l0,0c0.5-0.3,1.1-0.1,1.4,0.4l0,0c0.3,0.5,0.1,1.1-0.4,1.4l0,0l0,0
			c-0.2,0.1-0.3,0.1-0.5,0.1l0,0C217.3,141.9,217,141.7,216.8,141.4L216.8,141.4z M222.1,138.3c-0.3-0.5-0.1-1.1,0.4-1.4l0,0l0,0
			c0.5-0.3,1.1-0.1,1.4,0.4l0,0c0.3,0.5,0.1,1.1-0.4,1.4l0,0c-0.2,0.1-0.3,0.1-0.5,0.1l0,0C222.6,138.8,222.3,138.6,222.1,138.3
			L222.1,138.3z M227.4,135.3c-0.3-0.5-0.1-1.1,0.4-1.4l0,0l0,0c0.5-0.3,1.1-0.1,1.4,0.4l0,0c0.3,0.5,0.1,1.1-0.4,1.4l0,0
			c-0.2,0.1-0.3,0.1-0.5,0.1l0,0C227.9,135.8,227.5,135.6,227.4,135.3L227.4,135.3z M232.6,132.3c-0.3-0.5-0.1-1.1,0.4-1.4l0,0
			c0.5-0.3,1.1-0.1,1.4,0.4l0,0c0.3,0.5,0.1,1.1-0.4,1.4l0,0c-0.2,0.1-0.3,0.1-0.5,0.1l0,0C233.1,132.8,232.8,132.6,232.6,132.3
			L232.6,132.3z M237.9,129.2c-0.3-0.5-0.1-1.1,0.4-1.4l0,0c0.5-0.3,1.1-0.1,1.4,0.4l0,0l0,0c0.3,0.5,0.1,1.1-0.4,1.4l0,0
			c-0.2,0.1-0.3,0.1-0.5,0.1l0,0C238.4,129.7,238.1,129.5,237.9,129.2L237.9,129.2z M243.2,126.1c-0.4-0.4-0.4-1,0-1.4l0,0l0,0
			c0.4-0.4,1-0.4,1.4,0l0,0c0.4,0.4,0.4,1,0,1.4l0,0c-0.2,0.2-0.4,0.3-0.7,0.3l0,0C243.6,126.4,243.4,126.3,243.2,126.1L243.2,126.1
			z M243.7,120.5c-0.3-0.5-0.2-1.1,0.2-1.4l0,0c0.5-0.3,1.1-0.2,1.4,0.2l0,0c0.3,0.5,0.2,1.1-0.2,1.4l0,0c-0.2,0.1-0.4,0.2-0.6,0.2
			l0,0C244.2,120.9,243.9,120.8,243.7,120.5L243.7,120.5z M239.1,117.3c-0.5-0.3-0.6-0.9-0.4-1.3l0,0l0,0c0.3-0.5,0.9-0.6,1.4-0.4
			l0,0l0,0c0.5,0.3,0.6,0.9,0.4,1.4l0,0l0,0c-0.2,0.3-0.5,0.5-0.9,0.5l0,0C239.4,117.4,239.3,117.4,239.1,117.3L239.1,117.3z"/>
		<path class="st0" d="M115.9,182.7c-0.3,0-0.5-0.1-0.7-0.3s-0.3-0.4-0.3-0.7s0.1-0.5,0.3-0.7c0.1-0.1,0.2-0.2,0.3-0.2
			c0.1,0,0.1,0,0.2,0s0.3,0,0.4,0s0.1,0,0.2,0c0.1,0.1,0.2,0.1,0.3,0.2c0.2,0.2,0.3,0.4,0.3,0.7c0,0.1,0,0.3-0.1,0.4
			c-0.1,0.1-0.1,0.2-0.2,0.3C116.4,182.6,116.2,182.7,115.9,182.7z"/>
		<path class="st1" d="M230,117.1l-7.3-4.2c-1.3-0.7-2.9-0.7-4.3,0l-98.1,56.6c-0.5,0.2-0.8,0.7-0.9,1.2v3c0.1,0.5,0.4,1,0.9,1.2
			l7.3,4.2c1.3,0.7,2.9,0.7,4.3,0l98.1-56.7c0.5-0.2,0.8-0.7,0.9-1.2v-3C230.8,117.8,230.5,117.3,230,117.1z"/>
		<path class="st1" d="M129.7,180.7c-0.9,0-1.8-0.2-2.6-0.6l-7.3-4.2c-0.8-0.4-1.3-1.2-1.4-2.1v-2c0-0.4,0.2-0.7,0.6-0.9l10.3-4.6
			l88.6-51.2c1.7-0.9,3.6-0.9,5.3,0l6.6,3.8l0.7-0.4c0.5-0.2,1.1,0,1.3,0.5c0.1,0.1,0.1,0.3,0.1,0.4v2c0,0.9-0.6,1.7-1.4,2.1
			l-98.1,56.6C131.6,180.5,130.7,180.7,129.7,180.7z M120.4,172.4v1.4c0,0,0.1,0.2,0.4,0.4l7.3,4.2c1,0.5,2.2,0.5,3.3,0l98.1-56.7
			c0.3-0.2,0.4-0.3,0.4-0.4v-0.4c-0.2,0.1-0.5,0-0.7-0.1l-7-4.1c-1-0.5-2.2-0.5-3.3,0L130.2,168L120.4,172.4z"/>
		<path class="st2" d="M230,119.6l-98.1,56.7c-1.3,0.7-2.9,0.7-4.3,0l-7.3-4.2c-0.7-0.2-1-1-0.8-1.6c0.1-0.4,0.4-0.7,0.8-0.8
			l98.1-56.7c1.3-0.7,2.9-0.7,4.3,0l7.3,4.2c0.7,0.3,1,1,0.7,1.7C230.6,119.1,230.3,119.4,230,119.6z"/>
		<path class="st1" d="M129.7,177.7c-0.9,0-1.8-0.2-2.6-0.6l-7.3-4.2c-1.2-0.5-1.7-1.8-1.2-3c0.2-0.5,0.7-1,1.2-1.2l98.1-56.7
			c1.7-0.9,3.6-0.9,5.3,0l7.3,4.2c1.2,0.5,1.7,1.8,1.2,3c-0.2,0.5-0.7,1-1.2,1.2l0,0L132.4,177C131.6,177.5,130.7,177.7,129.7,177.7
			z M220.5,113.3c-0.6,0-1.1,0.1-1.6,0.4l-98.1,56.7c-0.3,0.2-0.4,0.3-0.4,0.4s0.1,0.2,0.4,0.4l7.3,4.2c1,0.5,2.2,0.5,3.3,0
			l98.1-56.7c0.3-0.2,0.4-0.3,0.4-0.4s-0.1-0.2-0.4-0.4l-7.3-4.2C221.6,113.5,221.1,113.3,220.5,113.3z"/>
		<path class="st3" d="M129.7,180.7c-0.9,0-1.8-0.2-2.6-0.6l-7.3-4.2c-0.8-0.4-1.3-1.2-1.4-2.1v-3c0-0.9,0.6-1.7,1.4-2.1l98.1-56.7
			c1.7-0.9,3.6-0.9,5.3,0l7.3,4.2c0.8,0.4,1.3,1.2,1.4,2.1v3c0,0.9-0.6,1.7-1.4,2.1l-98.1,56.7C131.6,180.5,130.7,180.7,129.7,180.7
			z M220.5,113.3c-0.6,0-1.1,0.1-1.6,0.4l-98.1,56.7c-0.3,0.2-0.4,0.3-0.4,0.4v3c0,0,0.1,0.2,0.4,0.4l7.3,4.2c1,0.5,2.2,0.5,3.3,0
			l98.1-56.7c0.3-0.2,0.4-0.3,0.4-0.4v-3c0,0-0.1-0.2-0.4-0.4l0,0l-7.3-4.2C221.6,113.5,221.1,113.3,220.5,113.3z"/>
		<path class="st3" d="M129.7,180.7c-0.9,0-1.8-0.2-2.6-0.6l-7.3-4.2c-0.8-0.4-1.3-1.2-1.4-2.1v-3c0-0.9,0.6-1.7,1.4-2.1l98.1-56.7
			c1.7-0.9,3.6-0.9,5.3,0l7.3,4.2c0.8,0.4,1.3,1.2,1.4,2.1v3c0,0.9-0.6,1.7-1.4,2.1l-98.1,56.7C131.6,180.5,130.7,180.7,129.7,180.7
			z M220.5,113.3c-0.6,0-1.1,0.1-1.6,0.4l-98.1,56.7c-0.3,0.2-0.4,0.3-0.4,0.4v3c0,0,0.1,0.2,0.4,0.4l7.3,4.2c1,0.5,2.2,0.5,3.3,0
			l98.1-56.7c0.3-0.2,0.4-0.3,0.4-0.4v-3c0,0-0.1-0.2-0.4-0.4l0,0l-7.3-4.2C221.6,113.5,221.1,113.3,220.5,113.3z"/>
		<path class="st2" d="M218.3,119.8l-86.4,49.5V98.6c0-3,1.8-6.4,4-7.7l78.3-44.8c2.2-1.3,4,0.1,4,3.1v70.6H218.3z"/>
		<path class="st0" d="M214.3,46.1L136,90.9c-2.2,1.3-4,4.7-4,7.7v4.9l86.4-49.9v-4.5C218.3,46.2,216.5,44.8,214.3,46.1z"/>
		<path class="st4" d="M131.9,170.2c-0.5,0-1-0.4-1-1l0,0V98.6c0-3.3,2-7.1,4.5-8.6l78.3-44.8c1.1-0.7,2.5-0.8,3.6-0.2
			c1.3,0.9,2,2.5,1.9,4.1v70.6c0,0.4-0.2,0.7-0.5,0.9l-86.4,49.5C132.3,170.2,132.1,170.2,131.9,170.2z M215.9,46.6
			c-0.4,0-0.8,0.1-1.1,0.4l-78.3,44.8c-1.9,1.1-3.5,4.2-3.5,6.9v68.9l84.4-48.3v-70c0.1-0.9-0.2-1.8-0.9-2.4
			C216.3,46.6,216.1,46.6,215.9,46.6z"/>
		<path class="st0" d="M186.7,127.2c-1.7,0-3.4-0.4-4.9-1.3c-4.1-2.4-6.5-7.8-6.5-14.8c0-13,8-28.2,17.8-33.9
			c4.5-2.6,8.9-2.9,12.3-0.9c4.1,2.4,6.5,7.8,6.5,14.9c0,13-8,28.2-17.8,33.9C191.9,126.4,189.3,127.2,186.7,127.2z M200.5,77
			c-2.3,0.1-4.5,0.7-6.4,1.9c-9.3,5.3-16.8,19.8-16.8,32.2c0,6.3,2,11.1,5.5,13.1c2.8,1.6,6.5,1.3,10.3-0.9
			c9.3-5.3,16.8-19.8,16.8-32.2c0-6.3-2-11.1-5.5-13.1C203.2,77.3,201.8,77,200.5,77z"/>
		<path class="st5" d="M187.6,105.5c-0.6,0-1-0.4-1-1c0-0.4,0.2-0.7,0.5-0.9l11.9-6.9c0.5-0.3,1.1-0.1,1.4,0.4
			c0.3,0.5,0.1,1.1-0.4,1.4l-11.9,6.9C188,105.5,187.8,105.5,187.6,105.5z"/>
		<path class="st0" d="M140.4,116.4c-0.6,0-1-0.4-1-1v-5.7c0-0.4,0.2-0.7,0.5-0.9l4.3-2.5c0.5-0.3,1.1-0.1,1.4,0.4
			c0.1,0.2,0.1,0.3,0.1,0.5v5.7c0,0.4-0.2,0.7-0.5,0.9l-4.3,2.5C140.7,116.4,140.5,116.4,140.4,116.4z M141.4,110.2v3.4l2.3-1.3
			v-3.4L141.4,110.2z"/>
		<path class="st0" d="M149.1,108.5c-0.6,0-1-0.4-1-1c0-0.4,0.2-0.7,0.5-0.9l18.6-10.7c0.5-0.3,1.1-0.1,1.4,0.4
			c0.3,0.5,0.1,1.1-0.4,1.4l0,0l-18.6,10.7C149.5,108.4,149.3,108.5,149.1,108.5z"/>
		<path class="st5" d="M141.5,136.2c-0.6,0-1-0.4-1-1c0-0.4,0.2-0.7,0.5-0.9l7.1-4.1c0.5-0.3,1.1-0.1,1.4,0.4
			c0.3,0.5,0.1,1.1-0.4,1.4l0,0l-7.1,4C141.8,136.1,141.7,136.2,141.5,136.2z"/>
		<path class="st5" d="M159.5,125.4c-0.6,0-1-0.4-1-1c0-0.4,0.2-0.7,0.5-0.9l7.1-4.1c0.5-0.3,1.1-0.1,1.4,0.4s0.1,1.1-0.4,1.4
			l-7.1,4.1C159.8,125.4,159.7,125.5,159.5,125.4z"/>
		<path class="st0" d="M143.2,152.5c-0.6,0-1.2-0.2-1.7-0.5c-1.4-0.8-2.1-2.5-2.1-4.7c0-3.8,2.3-8.2,5.2-9.9
			c1.2-0.8,2.8-0.9,4.1-0.2c1.4,0.8,2.1,2.5,2.1,4.7c0,3.8-2.3,8.2-5.2,9.9C144.8,152.3,144,152.5,143.2,152.5z M146.9,138.9
			c-0.5,0-1,0.2-1.4,0.4c-2.3,1.3-4.2,5-4.2,8.1c0,1.4,0.4,2.5,1.1,2.9c0.7,0.3,1.5,0.2,2.1-0.2c2.3-1.3,4.2-5,4.2-8.1
			c0-1.4-0.4-2.5-1.1-2.9C147.4,138.9,147.2,138.9,146.9,138.9z"/>
		<path class="st0" d="M161.2,141.8c-0.6,0-1.2-0.2-1.7-0.5c-1.4-0.8-2.1-2.5-2.1-4.7c0-3.8,2.3-8.2,5.2-9.9l0,0
			c1.2-0.8,2.8-0.9,4.1-0.2c1.4,0.8,2.1,2.5,2.1,4.7c0,3.8-2.3,8.2-5.2,9.9C162.8,141.6,162,141.8,161.2,141.8z M163.5,128.6
			c-2.3,1.3-4.2,5-4.2,8.1c0,1.4,0.4,2.5,1.1,2.9c0.7,0.3,1.5,0.2,2.1-0.2c2.3-1.3,4.2-5,4.2-8.1c0-1.4-0.4-2.5-1.1-2.9
			C164.9,128,164.1,128.1,163.5,128.6z"/>
		<path class="st0" d="M142.1,124.8c-0.1,0-0.3,0-0.4-0.1c-0.1,0-0.2-0.1-0.3-0.2s-0.2-0.2-0.2-0.3c-0.1-0.1-0.1-0.2-0.1-0.4
			c0-0.3,0.1-0.5,0.3-0.7c0-0.1,0.1-0.1,0.1-0.1c0.1,0,0.1-0.1,0.2-0.1c0.1,0,0.1,0,0.2-0.1c0.2,0,0.4,0,0.6,0.1
			c0.1,0,0.1,0.1,0.2,0.1c0.1,0,0.1,0.1,0.1,0.1c0.2,0.2,0.3,0.4,0.3,0.7c0,0.1,0,0.3-0.1,0.4c0,0.1-0.1,0.2-0.2,0.3
			C142.6,124.7,142.4,124.8,142.1,124.8z"/>
		<path class="st0" d="M150.1,120.2c-0.3,0-0.5-0.1-0.7-0.3c-0.1-0.1-0.2-0.2-0.2-0.3c0-0.1-0.1-0.3-0.1-0.4c0-0.3,0.1-0.5,0.3-0.7
			c0.1-0.1,0.2-0.2,0.3-0.2c0.2-0.1,0.5-0.1,0.8,0c0.1,0,0.2,0.1,0.3,0.2c0.2,0.2,0.3,0.4,0.3,0.7c0,0.1,0,0.3-0.1,0.4
			c0,0.1-0.1,0.2-0.2,0.3C150.6,120.1,150.4,120.2,150.1,120.2L150.1,120.2z"/>
		<path class="st0" d="M158.1,115.6c-0.3,0-0.5-0.1-0.7-0.3c-0.1-0.1-0.2-0.2-0.2-0.3c-0.1-0.1-0.1-0.3-0.1-0.4
			c0-0.3,0.1-0.5,0.3-0.7l0.1-0.1c0.1,0,0.1-0.1,0.2-0.1l0.2-0.1c0.2,0,0.4,0,0.6,0.1c0.1,0,0.1,0.1,0.2,0.1c0.1,0,0.1,0.1,0.1,0.1
			c0.2,0.2,0.3,0.4,0.3,0.7c0,0.1,0,0.3-0.1,0.4c0,0.1-0.1,0.2-0.2,0.3C158.6,115.5,158.4,115.6,158.1,115.6z"/>
		<path class="st0" d="M166.1,111c-0.1,0-0.3,0-0.4-0.1c-0.1,0-0.2-0.1-0.3-0.2s-0.2-0.2-0.2-0.3c-0.1-0.1-0.1-0.3-0.1-0.4
			s0-0.3,0.1-0.4s0.1-0.2,0.2-0.3c0.1-0.1,0.2-0.2,0.3-0.2c0.2-0.1,0.5-0.1,0.8,0c0.1,0,0.1,0.1,0.2,0.1c0.1,0,0.1,0.1,0.1,0.1
			c0.2,0.2,0.3,0.4,0.3,0.7c0,0.1,0,0.3-0.1,0.4c0,0.1-0.1,0.2-0.2,0.3c-0.1,0.1-0.2,0.2-0.3,0.2C166.4,110.9,166.2,111,166.1,111z"
			/>
		<path class="st3" d="M129.9,171.4c-0.6,0-1-0.4-1-1c0-0.4,0.2-0.7,0.5-0.9l90.4-51.8c0.5-0.3,1.1-0.1,1.4,0.4
			c0.3,0.5,0.1,1.1-0.4,1.4l-90.4,51.8C130.3,171.4,130.1,171.4,129.9,171.4z"/>
		<path class="st1" d="M283.2,191.7l58.3-13.9v34c0,1.8-1.2,3.6-3.6,5l-46.1,26.6c-2.6,1.4-5.6,2.1-8.6,2.1L283.2,191.7L283.2,191.7
			z"/>
		<path class="st2" d="M283.2,191.7L225,177.9v34c0,1.8,1.2,3.6,3.6,5l46.1,26.6c2.6,1.4,5.6,2.1,8.6,2.1L283.2,191.7z"/>
		<path class="st2" d="M337.9,182.8l-46.1,26.6c-4.8,2.7-12.5,2.7-17.2,0l-46.1-26.6c-4.8-2.7-4.8-7.2,0-9.9l46.1-26.6
			c4.8-2.7,12.5-2.7,17.2,0l46.1,26.6C342.7,175.7,342.7,180.1,337.9,182.8z"/>
		<path class="st6" d="M270.5,155.1c-0.2,0-0.3,0-0.5-0.1l-4.7-2.7c-0.5-0.3-0.6-0.9-0.4-1.4c0.3-0.5,0.9-0.6,1.4-0.4l4.7,2.7
			c0.5,0.3,0.6,0.9,0.4,1.4C271.2,154.9,270.8,155.1,270.5,155.1z"/>
		<path class="st7" d="M225,193.7v18.2c0,1.8,1.2,3.6,3.6,5l46.1,26.6c4.8,2.7,12.5,2.7,17.2,0l46.1-26.6c2.4-1.4,3.6-3.2,3.6-5
			v-20.1L225,193.7z"/>
		<path class="st6" d="M283.2,212.5c-3.2,0.1-6.3-0.7-9.1-2.2L228,183.7c-2.6-1.5-4.1-3.6-4.1-5.8s1.4-4.3,4.1-5.8l46.1-26.6
			c5-2.9,13.2-2.9,18.2,0l46.1,26.6c2.6,1.5,4.1,3.6,4.1,5.8s-1.4,4.3-4.1,5.8l-46.1,26.6C289.5,211.8,286.4,212.6,283.2,212.5z
			 M283.2,145.2c-2.8-0.1-5.6,0.6-8.1,1.9L229,173.8c-2,1.1-3.1,2.6-3.1,4.1s1.1,3,3.1,4.1l46.1,26.6c4.5,2.6,11.7,2.6,16.2,0
			l46.1-26.6l0.5,0.9l-0.5-0.9c2-1.1,3.1-2.6,3.1-4.1s-1.1-3-3.1-4.1l-46.1-26.6C288.9,145.8,286.1,145.2,283.2,145.2L283.2,145.2z"
			/>
		<path class="st1" d="M232.3,202.5c-0.2,0-0.3,0-0.5-0.1l-3.8-2.2c-2.4-1.4-3.8-3.2-4-5.2c0-0.6,0.4-1,0.9-1.1c0.5,0,1,0.3,1.1,0.9
			c0.2,1.4,1.2,2.7,3,3.7l3.8,2.2c0.5,0.3,0.6,0.9,0.4,1.4C233,202.3,232.7,202.5,232.3,202.5z"/>
		<path class="st6" d="M283.2,230c-3.2,0.1-6.3-0.7-9.1-2.2l-4-2.3c-0.5-0.3-0.6-0.9-0.4-1.4c0.3-0.5,0.9-0.6,1.4-0.4l4,2.3
			c4.4,2.5,11.8,2.5,16.2,0l34.1-19.7c1.6-0.9,2.6-2.7,2.6-4.6v-13.3l-4.2-2.4c-0.5-0.3-0.6-0.9-0.4-1.4c0.3-0.5,0.9-0.6,1.4-0.4
			l0,0l4.7,2.7c0.3,0.2,0.5,0.5,0.5,0.9v13.9c0,2.6-1.4,5-3.6,6.3l-34.1,19.7C289.5,229.3,286.4,230,283.2,230z"/>
		<path class="st1" d="M283.2,230c-1.8,0-3.7-0.2-5.5-0.7l0.5-1.9c1.6,0.4,3.3,0.6,4.9,0.6L283.2,230z"/>
		<path class="st1" d="M278,229.3c-0.1,0-0.2,0-0.3,0c-1.3-0.3-2.5-0.8-3.6-1.5l-4-2.3c-0.5-0.3-0.6-0.9-0.4-1.4
			c0.3-0.5,0.9-0.6,1.4-0.4l4,2.3c1,0.6,2.1,1,3.2,1.3c0.5,0.1,0.8,0.7,0.7,1.2C278.9,229,278.5,229.3,278,229.3L278,229.3z"/>
		<path class="st3" d="M283.2,246.5c-3.2,0.1-6.3-0.7-9.1-2.2L228,217.7c-2.6-1.5-4.1-3.6-4.1-5.8v-34c0-2.2,1.4-4.3,4.1-5.8
			l46.1-26.6c5-2.9,13.2-2.9,18.2,0l46.1,26.6c2.6,1.5,4.1,3.6,4.1,5.8v34c0,2.2-1.4,4.3-4.1,5.8l-46.1,26.6
			C289.5,245.8,286.4,246.5,283.2,246.5z M283.2,145.2c-2.8-0.1-5.6,0.6-8.1,1.9L229,173.8c-2,1.1-3.1,2.6-3.1,4.1v34
			c0,1.5,1.1,3,3.1,4.1l46.1,26.6c4.5,2.6,11.7,2.6,16.2,0l46.1-26.6c2-1.1,3.1-2.6,3.1-4.1v-34c0-1.5-1.1-3-3.1-4.1l0,0l-46.1-26.6
			C288.9,145.8,286.1,145.2,283.2,145.2z"/>
		<path class="st1" d="M324.2,180.4l-36.6,21.1c-2.7,1.4-5.9,1.4-8.6,0l-36.6-21.1c-2.4-1.4-2.4-3.6,0-5l36.6-21.1
			c2.7-1.4,5.9-1.4,8.6,0l36.6,21.1C326.5,176.8,326.5,179,324.2,180.4z"/>
		<path class="st2" d="M283.2,203.5c-1.7,0-3.3-0.4-4.8-1.2l-32.5-18.8c-0.5-0.3-0.6-0.9-0.4-1.4c0.1-0.2,0.2-0.3,0.4-0.4l32.5-18.8
			l0,0c3-1.6,6.6-1.6,9.6,0l32.5,18.8c0.5,0.3,0.6,0.9,0.4,1.4c-0.1,0.2-0.2,0.3-0.4,0.4L288,202.4
			C286.6,203.2,284.9,203.6,283.2,203.5z M248.4,182.7l31,17.9c2.4,1.2,5.2,1.2,7.6,0l31-17.9l-31-17.9c-2.4-1.2-5.2-1.2-7.6,0
			L248.4,182.7z"/>
		<path class="st6" d="M283.2,203.5c-1.7,0-3.3-0.4-4.8-1.2l-36.6-21.1c-1.9-0.7-2.8-2.8-2-4.7c0.4-0.9,1.1-1.7,2-2l36.6-21.1
			c3-1.6,6.6-1.6,9.6,0l36.6,21.1c1.9,0.7,2.8,2.8,2,4.7c-0.4,0.9-1.1,1.7-2,2L288,202.4C286.6,203.2,284.9,203.6,283.2,203.5z
			 M283.2,154.2c-1.3,0-2.6,0.3-3.8,0.9l-36.6,21.1c-0.8,0.5-1.3,1.1-1.3,1.6s0.5,1.1,1.3,1.6l36.6,21.1c2.4,1.2,5.2,1.2,7.6,0
			l36.6-21.1c0.8-0.5,1.3-1.1,1.3-1.6s-0.5-1.1-1.3-1.6L287,155.1C285.9,154.5,284.6,154.2,283.2,154.2L283.2,154.2z"/>
		<path class="st6" d="M283.2,187.1c-8.5,0-15.2-4-15.2-9.2s6.7-9.2,15.2-9.2s15.2,4,15.2,9.2S291.7,187.1,283.2,187.1z
			 M283.2,170.7c-7.1,0-13.2,3.3-13.2,7.2s6,7.2,13.2,7.2s13.2-3.3,13.2-7.2S290.4,170.7,283.2,170.7L283.2,170.7z"/>
		<path class="st5" d="M284.9,102.7c-0.5,0-1.1-0.1-1.6-0.1s-1.1,0-1.6,0.1h-12.5v8.1c0,4.5,6.3,8.2,14.2,8.2s14.2-3.7,14.2-8.2
			v-8.1H284.9z"/>
		<path class="st0" d="M283.2,120c-8.5,0-15.2-4-15.2-9.2v-8.1c0-0.6,0.4-1,1-1h12.5c1.1-0.1,2.2-0.1,3.3,0h12.5c0.6,0,1,0.4,1,1
			v8.1C298.4,115.9,291.7,120,283.2,120z M270.1,103.7v7.1c0,3.9,6,7.2,13.2,7.2s13.2-3.3,13.2-7.2v-7.1H285h-0.1
			c-1.1-0.1-2.1-0.1-3.2,0H270.1z"/>
		<path class="st5" d="M297.4,110.8v-8.1h-12.5c-0.5,0-1.1-0.1-1.6-0.1V119C291.1,119,297.4,115.3,297.4,110.8z"/>
		<ellipse class="st2" cx="283.2" cy="102.7" rx="14.2" ry="8.2"/>
		<path class="st0" d="M283.2,111.8c-8.5,0-15.2-4-15.2-9.2s6.7-9.2,15.2-9.2s15.2,4,15.2,9.2S291.7,111.8,283.2,111.8z M283.2,95.5
			c-7.1,0-13.2,3.3-13.2,7.2s6,7.2,13.2,7.2s13.2-3.3,13.2-7.2S290.4,95.5,283.2,95.5z"/>
		<path class="st4" d="M283.2,120c-8.5,0-15.2-4-15.2-9.2v-8.1c0-5.1,6.7-9.2,15.2-9.2s15.2,4,15.2,9.2v8.1
			C298.4,115.9,291.7,120,283.2,120z M283.2,95.5c-7.1,0-13.2,3.3-13.2,7.2v8.1c0,3.9,6,7.2,13.2,7.2s13.2-3.3,13.2-7.2v-8.1
			C296.4,98.8,290.4,95.5,283.2,95.5z"/>
		<path class="st4" d="M269.1,95.7c-0.1,0-0.3,0-0.4-0.1c-0.2-0.1-0.4-0.3-0.5-0.5s-0.1-0.5,0-0.8c0-0.1,0.1-0.2,0.2-0.3
			c0.4-0.4,1-0.4,1.4,0c0.1,0.1,0.2,0.2,0.2,0.3c0.1,0.4,0.1,0.8-0.2,1.1c-0.1,0.1-0.2,0.2-0.3,0.2
			C269.3,95.6,269.2,95.7,269.1,95.7z"/>
		<path class="st4" d="M268.1,88.3c0-0.6,0.4-1,1-1l0,0c0.6,0,1,0.4,1,1l0,0c0,0.6-0.4,1-1,1l0,0C268.5,89.3,268.1,88.9,268.1,88.3z
			 M268.1,82c0-0.6,0.4-1,1-1l0,0c0.6,0,1,0.4,1,1l0,0c0,0.6-0.4,1-1,1l0,0l0,0C268.5,83,268.1,82.5,268.1,82L268.1,82z"/>
		<path class="st4" d="M269.1,76.6c-0.3,0-0.5-0.1-0.7-0.3c-0.1-0.1-0.2-0.2-0.2-0.3c-0.1-0.1-0.1-0.3-0.1-0.4s0-0.3,0.1-0.4
			c0.1-0.2,0.3-0.4,0.5-0.5s0.4-0.1,0.6-0.1l0.2,0.1c0.1,0,0.1,0.1,0.2,0.1s0.1,0.1,0.1,0.1c0.1,0.1,0.2,0.2,0.2,0.3
			c0,0.1,0.1,0.3,0.1,0.4c0,0.3-0.1,0.5-0.3,0.7C269.6,76.5,269.3,76.6,269.1,76.6z"/>
		<path class="st4" d="M297.4,95.7c-0.1,0-0.3,0-0.4-0.1c-0.1,0-0.2-0.1-0.3-0.2c-0.2-0.2-0.3-0.4-0.3-0.7c0-0.1,0-0.3,0.1-0.4
			s0.1-0.2,0.2-0.3c0.1-0.1,0.2-0.2,0.3-0.2c0.2-0.1,0.4-0.1,0.6-0.1c0.1,0,0.1,0,0.2,0.1c0.1,0,0.1,0.1,0.2,0.1s0.1,0.1,0.1,0.1
			c0.1,0.1,0.2,0.2,0.2,0.3c0.1,0.2,0.1,0.5,0,0.8c-0.1,0.2-0.3,0.4-0.5,0.5C297.7,95.6,297.5,95.7,297.4,95.7z"/>
		<path class="st4" d="M296.4,88.3c0-0.6,0.4-1,1-1l0,0c0.6,0,1,0.4,1,1l0,0c0,0.6-0.4,1-1,1l0,0C296.9,89.3,296.4,88.9,296.4,88.3z
			 M296.4,82c0-0.6,0.4-1,1-1l0,0c0.6,0,1,0.4,1,1l0,0c0,0.6-0.4,1-1,1l0,0l0,0C296.9,83,296.4,82.5,296.4,82L296.4,82z"/>
		<path class="st4" d="M297.4,76.6c-0.1,0-0.3,0-0.4-0.1s-0.2-0.1-0.3-0.2c-0.1-0.1-0.2-0.2-0.2-0.3c-0.1-0.1-0.1-0.3-0.1-0.4
			c0-0.3,0.1-0.5,0.3-0.7c0.1-0.1,0.2-0.2,0.3-0.2c0.2-0.1,0.5-0.1,0.8,0c0.1,0,0.2,0.1,0.3,0.2c0.1,0.1,0.2,0.2,0.2,0.3
			c0.1,0.1,0.1,0.2,0.1,0.4c0,0.1,0,0.3-0.1,0.4c0,0.1-0.1,0.2-0.2,0.3C297.9,76.5,297.7,76.6,297.4,76.6L297.4,76.6z"/>
		<ellipse transform="matrix(0.3916 -0.9201 0.9201 0.3916 9.9384 436.5836)" class="st6" cx="335.1" cy="210.8" rx="3" ry="1.7"/>
		<path class="st2" d="M268.5,231.9l-34.1-19.7c-1.3-1-2.1-2.5-2.1-4.1v-11.6c0-1.6,1-2.3,2.1-1.6l34.1,19.7c1.3,1,2.1,2.5,2.1,4.1
			v11.6C270.7,231.8,269.7,232.6,268.5,231.9z"/>
		<path class="st1" d="M269.4,233.1c-0.5,0-0.9-0.1-1.4-0.4l-34-19.6c-1.6-1.1-2.6-3-2.6-5v-11.6c-0.1-1,0.4-2,1.2-2.6
			c0.8-0.4,1.7-0.4,2.4,0.1l34.1,19.7c1.6,1.1,2.6,3,2.6,5v11.6c0.1,1-0.4,2-1.2,2.6C270.1,233.1,269.7,233.1,269.4,233.1z
			 M233.6,195.6L233.6,195.6c-0.1,0.1-0.3,0.4-0.3,0.9v11.6c0,1.3,0.6,2.5,1.6,3.2l34,19.7l0,0c0.2,0.1,0.4,0.1,0.4,0.1
			c0.1,0,0.2-0.3,0.2-0.9v-11.6c0-1.3-0.6-2.5-1.6-3.2L234,195.7C233.9,195.7,233.7,195.6,233.6,195.6z"/>
		
			<ellipse transform="matrix(0.9201 -0.3916 0.3916 0.9201 -61.8646 110.4678)" class="st5" cx="239.9" cy="206.9" rx="2.3" ry="4.1"/>
		<path class="st5" d="M241,211.3c-0.5,0-0.9-0.1-1.3-0.4c-1.8-1.3-2.9-3.3-2.9-5.5c-0.1-1,0.3-2,1.2-2.6c0.7-0.4,1.6-0.3,2.2,0.1
			c1.8,1.3,2.9,3.3,2.9,5.5c0.1,1-0.3,2-1.2,2.6C241.7,211.2,241.3,211.3,241,211.3z M238.9,203.5c-0.2,0-0.3,0-0.4,0.1
			c-0.5,0.4-0.8,1.1-0.7,1.7c0,1.8,0.9,3.6,2.4,4.7c0.4,0.3,0.8,0.3,1.2,0.1c0.5-0.4,0.8-1.1,0.7-1.7c0-1.8-0.9-3.6-2.4-4.7
			C239.4,203.6,239.2,203.6,238.9,203.5L238.9,203.5z"/>
		<polygon class="st1" points="264,223.9 259.4,221.3 259.4,215.2 264,217.8 		"/>
		<path class="st1" d="M264,224.4c-0.1,0-0.2,0-0.2-0.1l-4.6-2.6c-0.2-0.1-0.2-0.3-0.2-0.4v-6.1c0-0.3,0.2-0.5,0.5-0.5
			c0.1,0,0.2,0,0.2,0.1l4.6,2.6c0.2,0.1,0.2,0.3,0.2,0.4v6.1C264.5,224.2,264.3,224.4,264,224.4z M259.9,221l3.6,2.1v-4.9l-3.6-2.1
			V221z"/>
		<polygon class="st1" points="247.1,214.2 250.1,209 253.1,217.7 		"/>
		<path class="st1" d="M253.1,218.2c-0.1,0-0.2,0-0.2-0.1l-6.1-3.5c-0.2-0.1-0.3-0.4-0.2-0.7l3-5.2c0.1-0.2,0.3-0.3,0.5-0.2
			c0.2,0,0.4,0.1,0.4,0.3l3,8.7C253.6,217.8,253.5,218,253.1,218.2C253.2,218.2,253.2,218.2,253.1,218.2L253.1,218.2z M247.8,214.1
			l4.5,2.6l-2.2-6.4L247.8,214.1z"/>
		<path class="st0" d="M241.1,238.1c-1.2,0-2.4-0.3-3.4-0.8c-1.4-0.6-2.1-2.2-1.5-3.6c0.3-0.7,0.8-1.2,1.5-1.5
			c2.2-1.1,4.7-1.1,6.9,0c1.4,0.6,2.1,2.2,1.5,3.6c-0.3,0.7-0.8,1.2-1.5,1.5C243.5,237.8,242.3,238.1,241.1,238.1z M241.1,233.3
			c-0.9,0-1.7,0.2-2.4,0.6c-0.5,0.3-0.7,0.6-0.7,0.8s0.3,0.6,0.7,0.8c1.5,0.8,3.4,0.8,4.9,0l0,0c0.5-0.3,0.7-0.6,0.7-0.8
			s-0.3-0.6-0.7-0.8C242.8,233.4,242,233.2,241.1,233.3z"/>
		<rect class="st7" width="440" height="300"/>
		<rect class="st7" width="440" height="300"/>
	</g>
	<rect class="st7" width="440" height="300"/>
</g>
</svg>
