<?xml version="1.0" encoding="utf-8"?>
<!-- Generator: Adobe Illustrator 24.1.2, SVG Export Plug-In . SVG Version: 6.00 Build 0)  -->
<svg version="1.1" id="Layer_1" xmlns="http://www.w3.org/2000/svg" xmlns:xlink="http://www.w3.org/1999/xlink" x="0px" y="0px"
	 width="440px" height="300px" viewBox="0 0 440 300" style="enable-background:new 0 0 440 300;" xml:space="preserve">
<style type="text/css">
	.st0{fill:#E9EBDF;}
	.st1{fill:#FFFFFF;}
	.st2{fill:#4D9987;}
	.st3{fill:none;}
	.st4{fill:#0E352C;}
	.st5{fill:#C4D7D3;}
	.st6{fill:#27ae60;}
</style>
<g>
	<path class="st0" d="M219.7,160.1l58.3-13.9v34c0,1.8-1.2,3.6-3.6,5l-46.1,26.6c-2.6,1.4-5.6,2.1-8.6,2.1L219.7,160.1z"/>
	<path class="st1" d="M219.7,160.1l-58.3-13.9v34c0,1.8,1.2,3.6,3.6,5l46.1,26.6c2.6,1.4,5.6,2.1,8.6,2.1L219.7,160.1z"/>
	<path class="st0" d="M164.8,220.2c0.5,0,1.1-0.1,1.6-0.4l29-17.1v-31.5c0-1.5-0.8-2.8-2.1-3.6l-27.8-16c-0.3-0.1-0.5-0.3-0.8-0.3
		L164.8,220.2z"/>
	<path class="st1" d="M164.8,220.2c-0.5,0-1.1-0.1-1.6-0.4l-29-16.8c-1-0.6-1.6-1.6-1.6-2.7v-5.2c0-0.8,0.3-1.7,0.7-2.4l28.1-40.2
		c0.7-1.1,2-1.5,3.3-1.2L164.8,220.2z"/>
	<path class="st1" d="M134.6,191l26.9-38.5c0.9-1.3,2.7-1.7,4.1-0.9l27.9,16c1,0.6,1.3,1.8,0.8,2.8c0,0.1-0.1,0.1-0.1,0.2L166.5,210
		c-0.9,1.3-2.7,1.7-4.1,0.9l-26.8-15.4c-1.5-0.9-2-2.7-1.1-4.2C134.5,191.2,134.6,191.1,134.6,191z"/>
	<path class="st0" d="M197.9,171.2c-0.2,0-0.3,0-0.5-0.1l-35.6-20.5c-0.5-0.3-0.6-0.9-0.4-1.4c0.3-0.5,0.9-0.6,1.4-0.4l0,0
		l35.6,20.5c0.5,0.3,0.6,0.9,0.4,1.4C198.6,171,198.3,171.2,197.9,171.2L197.9,171.2z"/>
	<path class="st0" d="M163.9,212.3c-0.7,0-1.4-0.2-2.1-0.6l-26.8-15.4c-2-1.1-2.6-3.6-1.5-5.6c0.1-0.1,0.1-0.2,0.2-0.3
		c0.3-0.5,0.9-0.6,1.4-0.3c0.5,0.3,0.6,0.9,0.3,1.4c0,0,0,0,0,0.1c-0.7,0.9-0.4,2.3,0.5,2.9c0.1,0,0.1,0.1,0.2,0.1l26.8,15.4
		c0.9,0.5,2.1,0.3,2.8-0.6l27.7-39.4c0.3-0.5,0.9-0.6,1.4-0.2s0.6,0.9,0.2,1.4l0,0l-27.7,39.4C166.5,211.7,165.3,212.3,163.9,212.3z
		"/>
	<path class="st2" d="M163.9,212.3c-0.7,0-1.4-0.2-2.1-0.6l-26.8-15.4c-2-1.1-2.6-3.6-1.5-5.6c0.1-0.1,0.1-0.2,0.2-0.3l27.4-39.4
		c0.2-0.3,0.1-0.7-0.2-1c0,0,0,0-0.1,0c-0.5-0.3-0.6-0.9-0.4-1.4s0.9-0.6,1.4-0.4c1.3,0.7,1.7,2.4,1,3.7c0,0.1-0.1,0.1-0.1,0.2
		l-27.4,39.4c-0.7,1-0.4,2.3,0.5,2.9c0,0,0.1,0.1,0.2,0.1l26.8,15.4c0.9,0.5,2.1,0.3,2.8-0.6l27.3-38.9c1.2-1.7,3.6-2.3,5.4-1.2
		l1.2,0.7c0.5,0.3,0.6,0.9,0.4,1.4s-0.9,0.6-1.4,0.4l-1.2-0.7c-0.9-0.6-2.2-0.3-2.8,0.6l-27.3,38.9
		C166.5,211.7,165.3,212.3,163.9,212.3z"/>
	<path class="st1" d="M274.4,151.2l-46.1,26.6c-4.8,2.7-12.5,2.7-17.2,0L165,151.2c-4.8-2.7-4.8-7.2,0-9.9l46.1-26.6
		c4.8-2.7,12.5-2.7,17.2,0l46.1,26.6C279.1,144,279.1,148.5,274.4,151.2z"/>
	<path class="st2" d="M206.9,123.5c-0.2,0-0.3,0-0.5-0.1l-4.7-2.7c-0.5-0.3-0.6-0.9-0.4-1.4c0.3-0.5,0.9-0.6,1.4-0.4c0,0,0,0,0,0
		l4.7,2.7c0.5,0.3,0.6,0.9,0.4,1.4C207.6,123.3,207.3,123.5,206.9,123.5z"/>
	<path class="st3" d="M161.4,162v18.2c0,1.8,1.2,3.6,3.6,5l46.1,26.6c4.8,2.7,12.5,2.7,17.2,0l46.1-26.6c2.4-1.4,3.6-3.2,3.6-5
		v-20.1L161.4,162z"/>
	<path class="st2" d="M219.7,180.9c-3.2,0.1-6.3-0.7-9.1-2.2l-46.1-26.6c-2.6-1.5-4.1-3.6-4.1-5.8s1.4-4.3,4.1-5.8l46.1-26.6
		c5-2.9,13.2-2.9,18.2,0l46.1,26.6c2.6,1.5,4.1,3.6,4.1,5.8s-1.4,4.3-4.1,5.8l0,0l-46.1,26.6C226,180.2,222.8,180.9,219.7,180.9z
		 M219.7,113.6c-2.8-0.1-5.6,0.6-8.1,1.9l-46.1,26.6c-2,1.1-3.1,2.6-3.1,4.1s1.1,3,3.1,4.1l46.1,26.6c4.5,2.6,11.7,2.6,16.2,0
		l46.1-26.6c2-1.1,3.1-2.6,3.1-4.1s-1.1-3-3.1-4.1l-46.1-26.6C225.3,114.2,222.5,113.5,219.7,113.6z"/>
	<path class="st2" d="M265.5,157.3c-0.2,0-0.3,0-0.5-0.1l-4.7-2.7c-0.5-0.3-0.6-0.9-0.4-1.4c0.3-0.5,0.9-0.6,1.4-0.4l4.7,2.7
		c0.5,0.3,0.6,0.9,0.4,1.4C266.2,157.1,265.9,157.3,265.5,157.3L265.5,157.3z"/>
	<path class="st2" d="M219.7,198.3c-3.2,0.1-6.3-0.7-9.1-2.2l-4-2.3c-0.5-0.3-0.6-0.9-0.4-1.4s0.9-0.6,1.4-0.4l4,2.3
		c4.4,2.5,11.8,2.5,16.2,0l34.1-19.7c1.6-0.9,2.6-2.7,2.6-4.6v-13.9c0-0.6,0.4-1,1-1s1,0.4,1,1v13.9c0,2.6-1.4,5-3.6,6.3l-34.1,19.7
		C226,197.6,222.8,198.4,219.7,198.3z"/>
	<path class="st0" d="M219.7,198.3c-1.8,0-3.7-0.2-5.5-0.7l0.5-1.9c1.6,0.4,3.3,0.6,4.9,0.6V198.3z"/>
	<path class="st0" d="M214.5,197.7c-0.1,0-0.2,0-0.3,0c-1.3-0.3-2.5-0.8-3.6-1.5l-4-2.3c-0.5-0.3-0.6-0.9-0.4-1.4s0.9-0.6,1.4-0.4
		l4,2.3c1,0.6,2.1,1,3.2,1.3c0.5,0.1,0.8,0.7,0.7,1.2C215.3,197.4,214.9,197.7,214.5,197.7L214.5,197.7z"/>
	<path class="st4" d="M164.8,221.2c-0.7,0-1.4-0.2-2.1-0.5l-29-16.8c-1.3-0.7-2-2.1-2.1-3.6v-5.2c0-1.1,0.3-2.1,0.9-2.9l20.5-29.6
		l7-9.8c0.2-0.3,0.3-0.6,0.3-0.9v-5.7c0-2.2,1.4-4.3,4.1-5.8l46.1-26.6c5-2.9,13.2-2.9,18.2,0l46.1,26.6c2.6,1.5,4.1,3.6,4.1,5.8v34
		c0,2.2-1.4,4.3-4.1,5.8l-46.1,26.6c-5,2.9-13.2,2.9-18.2,0l-13.1-7.6c-1.5-0.6-3.2-0.5-4.6,0.3l-25.9,15.2
		C166.3,221,165.6,221.2,164.8,221.2L164.8,221.2z M219.7,113.6c-2.8-0.1-5.6,0.6-8.1,1.9l-46.1,26.6c-2,1.1-3.1,2.6-3.1,4.1v5.8
		c0,0.1,0,0.1,0,0.2c-0.1,0.6-0.3,1.2-0.6,1.7l-1.1,1.6l-5.9,8.3l-20.5,29.6c-0.4,0.5-0.6,1.2-0.6,1.8v5.2c0,0.8,0.4,1.4,1.1,1.8
		l29,16.8c0.3,0.2,0.7,0.3,1.1,0.3h0c0.4,0,0.7-0.1,1.1-0.3l25.9-15.2c2-1.1,4.3-1.3,6.4-0.4c0,0,0.1,0,0.1,0.1l13.2,7.6
		c4.5,2.6,11.7,2.6,16.2,0l46.1-26.6c2-1.1,3.1-2.6,3.1-4.1v-34c0-1.5-1.1-3-3.1-4.1l0,0l-46.1-26.6
		C225.3,114.2,222.5,113.5,219.7,113.6z"/>
	<ellipse transform="matrix(0.3916 -0.9202 0.9202 0.3916 0.3256 358.8252)" class="st1" cx="271.5" cy="179.2" rx="3" ry="1.7"/>
	<path class="st5" d="M248.5,155.7L227,168.1c-2.7,1.4-5.9,1.4-8.6,0L181.8,147c-2.4-1.4-2.4-3.6,0-5l21.5-12.4
		c2.7-1.4,5.9-1.4,8.6,0l36.6,21.1C250.9,152.1,250.9,154.3,248.5,155.7z"/>
	<path class="st6" d="M222.7,170.1c-1.7,0-3.3-0.4-4.8-1.2l-36.6-21.1c-1.9-0.7-2.8-2.8-2-4.7c0.4-0.9,1.1-1.7,2-2l21.5-12.4
		c3-1.6,6.6-1.6,9.6,0l36.6,21.1c1.9,0.7,2.8,2.8,2,4.7c-0.4,0.9-1.1,1.7-2,2L227.5,169C226,169.8,224.4,170.2,222.7,170.1z
		 M207.6,129.6c-1.3,0-2.6,0.3-3.8,0.9l-21.5,12.4c-0.8,0.5-1.3,1.1-1.3,1.6s0.5,1.1,1.3,1.6l36.6,21.1c2.4,1.2,5.2,1.2,7.6,0
		l21.5-12.4c0.8-0.5,1.3-1.1,1.3-1.6s-0.5-1.2-1.3-1.6l-36.6-21.1C210.2,129.8,208.9,129.5,207.6,129.6L207.6,129.6z"/>
	<path class="st1" d="M223.8,161.8c-2.7,0-5.3-0.6-7.7-1.9c-2.2-1.3-3.5-3.1-3.5-5s1.2-3.7,3.5-5c4.8-2.5,10.6-2.5,15.4,0l0,0
		c2.2,1.3,3.5,3.1,3.5,5s-1.2,3.7-3.5,5C229.1,161.2,226.4,161.8,223.8,161.8z M223.8,150c-2.3,0-4.6,0.5-6.7,1.6
		c-1.6,0.9-2.5,2.1-2.5,3.3s0.9,2.4,2.5,3.3c4.2,2.1,9.2,2.1,13.4,0c1.6-0.9,2.5-2.1,2.5-3.3s-0.9-2.4-2.5-3.3l0,0
		C228.5,150.5,226.2,149.9,223.8,150z"/>
	<path class="st6" d="M222.5,161.7C222.5,161.7,222.5,161.7,222.5,161.7c-2.3-0.1-4.5-0.7-6.5-1.8c-2.2-1.3-3.5-3.1-3.5-5
		s1.2-3.7,3.5-5c4.8-2.5,10.6-2.5,15.4,0c0.5,0.2,0.7,0.8,0.4,1.3c-0.2,0.5-0.8,0.7-1.3,0.4c0,0-0.1,0-0.1-0.1
		c-4.2-2.1-9.2-2.1-13.4,0c-1.6,0.9-2.5,2.1-2.5,3.3s0.9,2.4,2.5,3.3c1.7,0.9,3.6,1.4,5.5,1.6c0.6,0,1,0.5,1,1
		S223.1,161.7,222.5,161.7L222.5,161.7z"/>
	<path class="st6" d="M218.6,144.7c-0.2,0-0.3,0-0.5-0.1l-13.4-7.7c-0.5-0.3-0.6-0.9-0.4-1.4s0.9-0.6,1.4-0.4l13.4,7.7
		c0.5,0.3,0.6,0.9,0.4,1.4C219.3,144.5,219,144.7,218.6,144.7L218.6,144.7z"/>
	<path class="st1" d="M200.5,148.1c-0.2,0-0.3,0-0.5-0.1l-7.8-4.5c-0.5-0.3-0.6-0.9-0.4-1.4c0.3-0.5,0.9-0.6,1.4-0.4c0,0,0,0,0,0
		l7.8,4.5c0.5,0.3,0.6,0.9,0.4,1.4C201.2,147.9,200.9,148.1,200.5,148.1L200.5,148.1z"/>
	<path class="st1" d="M206,144.9c-0.2,0-0.3,0-0.5-0.1l-7.3-4.2c-0.5-0.3-0.6-0.9-0.4-1.4s0.9-0.6,1.4-0.4l7.3,4.2
		c0.5,0.3,0.6,0.9,0.4,1.4C206.7,144.7,206.3,144.9,206,144.9z"/>
	<polygon class="st0" points="179.3,172.1 183.4,174.4 186.3,170.3 182.2,168 	"/>
	<polygon class="st0" points="173.4,168.7 177.5,171.1 180.4,166.9 176.3,164.6 	"/>
	<polygon class="st0" points="167.6,165.3 171.7,167.7 174.5,163.5 170.5,161.2 	"/>
	<polygon class="st0" points="161.7,161.9 165.8,164.3 168.7,160.1 164.6,157.8 	"/>
	<polygon class="st0" points="175.2,178 179.3,180.3 182.2,176.2 178.1,173.9 	"/>
	<polygon class="st0" points="169.3,174.6 173.4,176.9 176.3,172.8 172.2,170.5 	"/>
	<polygon class="st0" points="163.4,171.2 167.5,173.6 170.4,169.4 166.3,167.1 	"/>
	<polygon class="st0" points="157.6,167.8 161.7,170.2 164.5,166 160.5,163.7 	"/>
	<polygon class="st0" points="171.1,183.9 175.2,186.2 178,182.1 174,179.7 	"/>
	<polygon class="st0" points="165.2,180.5 169.3,182.8 172.2,178.7 168.1,176.4 	"/>
	<polygon class="st0" points="159.3,177.1 163.4,179.4 166.3,175.3 162.2,173 	"/>
	<polygon class="st0" points="153.4,173.7 157.5,176.1 160.4,171.9 156.3,169.6 	"/>
	<polygon class="st0" points="166.9,189.7 171,192.1 173.9,188 169.8,185.6 	"/>
	<polygon class="st0" points="161.1,186.4 165.2,188.7 168,184.6 163.9,182.2 	"/>
	<polygon class="st0" points="155.2,183 159.3,185.3 162.2,181.2 158.1,178.9 	"/>
	<polygon class="st0" points="149.3,179.6 153.4,181.9 156.3,177.8 152.2,175.5 	"/>
	<path class="st0" d="M166.4,199.2c-0.2,0-0.3,0-0.5-0.1l-20.7-12c-0.5-0.3-0.6-0.9-0.4-1.4c0.3-0.5,0.9-0.6,1.4-0.4c0,0,0,0,0,0
		l20.7,12c0.5,0.3,0.6,0.9,0.4,1.4C167.1,199,166.8,199.2,166.4,199.2z"/>
	<path class="st0" d="M163,204.3c-0.2,0-0.3,0-0.5-0.1l-20.7-12c-0.5-0.3-0.6-0.9-0.4-1.4c0.3-0.5,0.9-0.6,1.4-0.4l20.7,12
		c0.5,0.3,0.6,0.9,0.4,1.4C163.7,204.2,163.4,204.3,163,204.3L163,204.3z"/>
	<path class="st1" d="M156.4,202.1L156.4,202.1c1.1,0.5,2.3,0,2.9-1l0,0c0.6-1.1,0.2-2.5-0.9-3.1c-0.1,0-0.1-0.1-0.2-0.1l0,0
		c-1.1-0.5-2.3,0-2.9,1l0,0c-0.6,1.1-0.2,2.5,0.9,3.1C156.3,202,156.3,202,156.4,202.1z"/>
	<path class="st0" d="M157.3,203.3c-0.5,0-0.9-0.1-1.3-0.3l0.4-0.9L156,203c-1.6-0.7-2.4-2.7-1.6-4.3c0.7-1.6,2.7-2.4,4.3-1.6
		c1.6,0.7,2.4,2.7,1.6,4.3C159.8,202.5,158.6,203.3,157.3,203.3z M157.3,198.7c-0.5,0-0.9,0.3-1.1,0.7c-0.3,0.6-0.1,1.4,0.5,1.7
		c0,0,0.1,0,0.1,0l0,0c0.6,0.3,1.4,0,1.7-0.7c0.3-0.6,0-1.4-0.7-1.7C157.6,198.8,157.5,198.7,157.3,198.7L157.3,198.7z"/>
	<path class="st1" d="M149.5,191L149.5,191c1.1,0.5,2.3,0.1,2.9-0.9l0,0c0.6-1.1,0.3-2.5-0.8-3.1c-0.1,0-0.1-0.1-0.2-0.1l0,0
		c-1.1-0.5-2.3-0.1-2.9,0.9l0,0c-0.6,1.1-0.3,2.5,0.8,3.1C149.4,191,149.4,191,149.5,191z"/>
	<path class="st0" d="M150.5,192.3c-0.5,0-1-0.1-1.4-0.3l0,0c-1.6-0.8-2.3-2.7-1.6-4.3s2.7-2.3,4.3-1.6s2.3,2.7,1.6,4.3
		C152.9,191.5,151.7,192.3,150.5,192.3L150.5,192.3z M150.4,187.7c-0.7,0-1.3,0.6-1.3,1.3c0,0.5,0.3,0.9,0.7,1.1l0,0
		c0.6,0.3,1.4,0,1.7-0.6c0.3-0.6,0-1.4-0.6-1.7C150.8,187.8,150.6,187.7,150.4,187.7L150.4,187.7z"/>
	<path class="st1" d="M273.6,142.6v-5.2l-18.8-6.1l-27.4-15.8c-0.9-0.4-1.9-0.4-2.8,0l-1.8,1l-4.3-2.2v5.2l0,0
		c0,0.4,0.2,0.7,0.6,0.8l45.6,26.3c0.9,0.4,1.9,0.4,2.8,0l5.5-3.2C273.4,143.3,273.6,142.9,273.6,142.6z"/>
	<path class="st0" d="M266,146.9c0.5,0,1-0.1,1.5-0.3l5.5-3.2c0.3-0.1,0.5-0.4,0.6-0.8v-5.2l-7.6-2.5L266,146.9z"/>
	<path class="st2" d="M266.2,147.9c-0.7,0-1.3-0.2-1.9-0.5l-45.6-26.3c-0.6-0.3-1-1-1.1-1.7v-5.2c0-0.6,0.4-1,1-1
		c0.2,0,0.3,0,0.5,0.1l3.8,2l1.3-0.8c1.2-0.6,2.6-0.6,3.8,0l27.3,15.7l18.7,6.1c0.4,0.1,0.7,0.5,0.7,1v5.2c0,0.7-0.4,1.3-1.1,1.7
		l-5.5,3.2C267.5,147.8,266.8,147.9,266.2,147.9z M219.6,119.4C219.7,119.4,219.7,119.4,219.6,119.4l45.6,26.4
		c0.6,0.3,1.2,0.3,1.8,0l5.5-3.2c0,0,0,0,0.1,0v-4.3l-18.1-5.9c-0.1,0-0.1-0.1-0.2-0.1L227,116.4c-0.6-0.3-1.2-0.3-1.8,0l-1.8,1
		c-0.3,0.2-0.7,0.2-1,0l-2.9-1.5L219.6,119.4z"/>
	<path class="st1" d="M273.1,138.2l-5.5,3.2c-0.9,0.4-1.9,0.4-2.8,0l-45.6-26.3c-0.4-0.1-0.7-0.6-0.5-1.1c0.1-0.2,0.3-0.4,0.5-0.5
		l5.5-3.2c0.9-0.4,1.9-0.4,2.8,0l45.6,26.3c0.4,0.1,0.7,0.6,0.5,1.1C273.5,137.9,273.3,138.1,273.1,138.2z"/>
	<path class="st2" d="M266.2,142.7c-0.7,0-1.3-0.2-1.9-0.5L218.7,116c-0.9-0.4-1.3-1.5-0.9-2.4c0.2-0.4,0.5-0.7,0.9-0.9l5.5-3.2
		c1.2-0.6,2.6-0.6,3.8,0l45.6,26.3c0.9,0.4,1.3,1.5,0.9,2.4c-0.2,0.4-0.5,0.7-0.9,0.9l0,0l-5.5,3.2
		C267.5,142.6,266.8,142.7,266.2,142.7z M219.8,114.3l45.4,26.2c0.6,0.3,1.2,0.3,1.8,0l5.4-3.1L227,111.2c-0.6-0.3-1.2-0.3-1.8,0
		L219.8,114.3z"/>
	<path class="st4" d="M266.2,147.9c-0.1,0-0.1,0-0.2,0c-0.6,0-1.2-0.2-1.7-0.4l-45.6-26.3c-0.6-0.3-1-1-1.1-1.7v-5.2
		c0-0.7,0.4-1.3,1.1-1.7l5.5-3.2c1.2-0.6,2.6-0.6,3.8,0l45.6,26.3c0.6,0.3,1,1,1.1,1.7v5.2c0,0.7-0.4,1.3-1.1,1.7l-5.5,3.2
		c-0.3,0.2-0.6,0.3-1,0.4c0,0-0.1,0-0.1,0C266.7,147.9,266.4,147.9,266.2,147.9z M219.6,119.4C219.7,119.4,219.7,119.4,219.6,119.4
		l45.6,26.4c0.2,0.1,0.5,0.2,0.8,0.2c0.2,0,0.4,0,0.5,0l0.1,0c0.1,0,0.2-0.1,0.4-0.1l5.5-3.2c0,0,0,0,0.1,0v-5c0,0,0,0-0.1,0l0,0
		L227,111.2c-0.6-0.3-1.2-0.3-1.8,0l-5.5,3.2c0,0,0,0-0.1,0L219.6,119.4z"/>
	<path class="st1" d="M300.9,100.5c3.6,1.8,6,5.4,6.4,9.4l-34-19.6c-0.4-4-2.8-7.6-6.4-9.4l0.7,0.4l34,19.6L300.9,100.5z"/>
	<path class="st2" d="M307.3,111c-0.2,0-0.3,0-0.5-0.1l-34-19.6c-0.3-0.2-0.5-0.4-0.5-0.8c-0.3-3.4-2.3-6.5-5.2-8.3l-0.7-0.3
		c-0.5-0.3-0.7-0.9-0.4-1.3c0.3-0.5,0.9-0.7,1.3-0.4c0.3,0.1,0.5,0.3,0.8,0.4l33.9,19.6l0,0c3.5,2.1,5.8,5.8,6.2,9.8
		c0,0.4-0.1,0.7-0.4,0.9C307.7,110.9,307.5,111,307.3,111z M274.3,89.7l31.7,18.3c-0.8-2.6-2.5-4.8-4.8-6.2l-0.6-0.3
		c-0.1,0-0.2-0.1-0.2-0.2l-27.4-15.8C273.6,86.8,274,88.2,274.3,89.7L274.3,89.7z"/>
	<path class="st1" d="M266.9,80.9c-8-3.9-22.6,1.6-37.8,35.1l34,19.6c15.2-33.5,29.7-39,37.8-35.1L266.9,80.9z"/>
	<path class="st2" d="M263.1,136.7c-0.2,0-0.3,0-0.5-0.1l-34-19.6c-0.4-0.3-0.6-0.8-0.4-1.3c11.4-25.2,21.9-33.4,28.6-35.8
		c3.4-1.4,7.2-1.3,10.5,0.2l0.1,0l34,19.6c0.5,0.3,0.7,0.9,0.4,1.4c-0.3,0.5-0.8,0.6-1.3,0.4c-2.8-1.3-6.1-1.3-9-0.1
		c-6.4,2.3-16.3,10.2-27.5,34.8C263.9,136.4,263.5,136.7,263.1,136.7L263.1,136.7z M230.4,115.6l32.3,18.6
		c11.2-24.4,21.5-32.4,28.2-34.8c1.4-0.5,3-0.9,4.5-1l-28.9-16.7c-2.8-1.3-6.1-1.3-8.9-0.1C251.2,84,241.4,91.7,230.4,115.6z"/>
	<path class="st0" d="M249.8,99.8c-0.2,0-0.3,0-0.5-0.1l-2.4-1.4c-0.5-0.3-0.6-0.9-0.4-1.4c0.3-0.5,0.9-0.6,1.4-0.4c0,0,0,0,0,0
		l2.4,1.4c0.5,0.3,0.6,0.9,0.4,1.4C250.4,99.6,250.1,99.8,249.8,99.8z"/>
	<path class="st0" d="M269.5,111.2c-0.2,0-0.3,0-0.5-0.1l-15.3-8.8c-0.5-0.3-0.6-0.9-0.4-1.4c0.3-0.5,0.9-0.6,1.4-0.4c0,0,0,0,0,0
		l15.3,8.8c0.5,0.3,0.6,0.9,0.4,1.4C270.2,111,269.8,111.2,269.5,111.2L269.5,111.2z"/>
	<path class="st0" d="M250.9,111.3c-0.2,0-0.3,0-0.5-0.1l-8.9-5.1c-0.5-0.3-0.6-0.9-0.4-1.4c0.3-0.5,0.9-0.6,1.4-0.4c0,0,0,0,0,0
		l8.9,5.1c0.5,0.3,0.6,0.9,0.4,1.4C251.6,111.1,251.3,111.3,250.9,111.3z"/>
	<path class="st0" d="M264.2,119c-0.2,0-0.3,0-0.5-0.1l-8.8-5.1c-0.5-0.3-0.6-0.9-0.4-1.4c0.3-0.5,0.9-0.6,1.4-0.4c0,0,0,0,0,0
		l8.8,5.1c0.5,0.3,0.6,0.9,0.4,1.4C264.9,118.8,264.5,119,264.2,119z"/>
	<path class="st0" d="M242.7,116.4c-0.2,0-0.3,0-0.5-0.1l-4.8-2.8c-0.5-0.3-0.6-0.9-0.4-1.4s0.9-0.6,1.4-0.4l4.8,2.8
		c0.5,0.3,0.6,0.9,0.4,1.4C243.4,116.2,243.1,116.4,242.7,116.4L242.7,116.4z"/>
	<path class="st0" d="M260,126.4c-0.2,0-0.3,0-0.5-0.1l-12.8-7.4c-0.5-0.3-0.6-0.9-0.4-1.4c0.3-0.5,0.9-0.6,1.4-0.4c0,0,0,0,0,0
		l12.8,7.4c0.5,0.3,0.6,0.9,0.4,1.4C260.7,126.2,260.3,126.4,260,126.4L260,126.4z"/>
	<path class="st0" d="M257.8,95c-0.2,0-0.3,0-0.5-0.1l-4.8-2.8c-0.5-0.3-0.6-0.9-0.4-1.4s0.9-0.6,1.4-0.4l4.8,2.8
		c0.5,0.3,0.6,0.9,0.4,1.4C258.5,94.8,258.2,95,257.8,95z"/>
	<path class="st0" d="M275.1,104.9c-0.2,0-0.3,0-0.5-0.1l-12.8-7.4c-0.5-0.3-0.6-0.9-0.4-1.4c0.3-0.5,0.9-0.6,1.4-0.4l12.8,7.4
		c0.5,0.3,0.6,0.9,0.4,1.4C275.8,104.7,275.4,104.9,275.1,104.9L275.1,104.9z"/>
	<path class="st0" d="M268.4,90.8c-0.2,0-0.3,0-0.5-0.1l-7.3-4.2c-0.5-0.3-0.6-0.9-0.4-1.4c0.3-0.5,0.9-0.6,1.4-0.4c0,0,0,0,0,0
		l7.3,4.2c0.5,0.3,0.6,0.9,0.4,1.4C269.1,90.6,268.8,90.8,268.4,90.8z"/>
	<path class="st0" d="M283.2,99.3c-0.2,0-0.3,0-0.5-0.1l-10.3-6c-0.5-0.3-0.6-0.9-0.4-1.4c0.3-0.5,0.9-0.6,1.4-0.4c0,0,0,0,0,0
		l10.3,6c0.5,0.3,0.6,0.9,0.4,1.4C283.9,99.1,283.6,99.3,283.2,99.3z"/>
	<path class="st4" d="M265.9,138.2c-0.2,0-0.3,0-0.5-0.1l-39.4-22.8c-0.5-0.3-0.6-0.9-0.4-1.4s0.9-0.6,1.4-0.4l39.4,22.8
		c0.5,0.3,0.6,0.9,0.4,1.4C266.5,138,266.2,138.2,265.9,138.2z"/>
	<rect class="st3" width="440" height="300"/>
	<rect class="st3" width="440" height="300"/>
</g>
</svg>
