<?xml version="1.0" encoding="utf-8"?>
<!-- Generator: Adobe Illustrator 24.1.2, SVG Export Plug-In . SVG Version: 6.00 Build 0)  -->
<svg version="1.1" id="Layer_1" xmlns="http://www.w3.org/2000/svg" xmlns:xlink="http://www.w3.org/1999/xlink" x="0px" y="0px"
	 width="128px" height="128px" viewBox="0 0 128 128" style="enable-background:new 0 0 128 128;" xml:space="preserve">
<style type="text/css">
	.st0{fill:#0E352C;}
	.st1{fill:#FFFFFF;}
	.st2{fill:#C4D7D3;}
	.st3{fill:#27ae60;}
	.st4{fill:#185849;}
	.st5{fill:#E9EBDF;}
	.st6{fill:#4D9987;}
	.st7{fill:none;}
</style>
<g>
	<path class="st0" d="M28.5,12.5c-0.1,0-0.3,0-0.4-0.1s-0.2-0.1-0.3-0.2c-0.2-0.2-0.3-0.4-0.3-0.7c0-0.1,0-0.3,0.1-0.4
		c0-0.1,0.1-0.2,0.2-0.3c0-0.1,0.1-0.1,0.1-0.1c0.1,0,0.1-0.1,0.2-0.1s0.1,0,0.2-0.1c0.3-0.1,0.7,0,0.9,0.3c0.1,0.1,0.2,0.2,0.2,0.3
		c0.1,0.1,0.1,0.2,0.1,0.4C29.5,12,29.1,12.5,28.5,12.5L28.5,12.5z"/>
	<path class="st0" d="M27.5,33.8c0-0.6,0.4-1,1-1l0,0c0.6,0,1,0.4,1,1l0,0c0,0.6-0.4,1-1,1l0,0C27.9,34.8,27.5,34.3,27.5,33.8z
		 M27.5,28.2c0-0.6,0.4-1,1-1l0,0c0.6,0,1,0.4,1,1l0,0c0,0.6-0.4,1-1,1l0,0C27.9,29.2,27.5,28.7,27.5,28.2z M27.5,22.6
		c0-0.6,0.4-1,1-1l0,0c0.6,0,1,0.4,1,1l0,0c0,0.6-0.4,1-1,1l0,0C27.9,23.6,27.5,23.2,27.5,22.6z M27.5,17.1c0-0.6,0.4-1,1-1l0,0
		c0.6,0,1,0.4,1,1l0,0c0,0.6-0.4,1-1,1l0,0l0,0C27.9,18.1,27.5,17.6,27.5,17.1L27.5,17.1z"/>
	<path class="st0" d="M28.5,40.3c-0.3,0-0.5-0.1-0.7-0.3c-0.1-0.1-0.2-0.2-0.2-0.3c-0.1-0.1-0.1-0.3-0.1-0.4c0-0.1,0-0.3,0.1-0.4
		c0-0.1,0.1-0.2,0.2-0.3c0.2-0.2,0.6-0.3,0.9-0.3c0.1,0,0.1,0,0.2,0.1c0.1,0,0.1,0.1,0.2,0.1l0.1,0.1c0.1,0.1,0.2,0.2,0.2,0.3
		c0.1,0.4,0.1,0.8-0.2,1.1c-0.1,0.1-0.2,0.2-0.3,0.2C28.8,40.3,28.6,40.3,28.5,40.3z"/>
	<path class="st0" d="M99.5,12.5c-0.3,0-0.5-0.1-0.7-0.3c-0.1-0.1-0.2-0.2-0.2-0.3c-0.1-0.2-0.1-0.5,0-0.8c0-0.1,0.1-0.2,0.2-0.3
		c0.3-0.3,0.7-0.4,1.1-0.2c0.1,0,0.2,0.1,0.3,0.2c0.1,0.1,0.2,0.2,0.2,0.3c0.1,0.4,0.1,0.8-0.2,1.1C100,12.4,99.8,12.5,99.5,12.5
		L99.5,12.5z"/>
	<path class="st0" d="M98.5,33.8c0-0.6,0.4-1,1-1l0,0c0.6,0,1,0.4,1,1l0,0c0,0.6-0.4,1-1,1l0,0C99,34.8,98.5,34.3,98.5,33.8z
		 M98.5,28.2c0-0.6,0.4-1,1-1l0,0c0.5,0,1,0.4,1,1l0,0l0,0c0,0.6-0.4,1-1,1l0,0C99,29.2,98.5,28.7,98.5,28.2z M98.5,22.6
		c0-0.6,0.4-1,1-1l0,0c0.6,0,1,0.4,1,1l0,0c0,0.6-0.4,1-1,1l0,0C99,23.6,98.5,23.2,98.5,22.6z M98.5,17.1c0-0.6,0.4-1,1-1l0,0
		c0.6,0,1,0.4,1,1l0,0c0,0.6-0.4,1-1,1l0,0l0,0C99,18.1,98.5,17.6,98.5,17.1L98.5,17.1z"/>
	<path class="st0" d="M99.5,40.3c-0.1,0-0.3,0-0.4-0.1s-0.2-0.1-0.3-0.2c-0.3-0.3-0.4-0.7-0.2-1.1c0.1-0.2,0.3-0.4,0.5-0.5
		c0.4-0.1,0.8-0.1,1.1,0.2c0.1,0.1,0.2,0.2,0.2,0.3c0.1,0.4,0.1,0.8-0.2,1.1C100,40.2,99.8,40.3,99.5,40.3z"/>
	<polygon class="st1" points="99.5,74.6 64,54.1 28.5,74.5 28.5,95.9 64,116.5 99.5,96 	"/>
	<path class="st0" d="M64,117.5c-0.2,0-0.3,0-0.5-0.1L28,96.8c-0.3-0.2-0.5-0.5-0.5-0.9V74.5c0-0.4,0.2-0.7,0.5-0.9l35.5-20.5
		c0.3-0.2,0.7-0.2,1,0L100,73.8c0.3,0.2,0.5,0.5,0.5,0.9v21.4c0,0.4-0.2,0.7-0.5,0.9l-35.5,20.5C64.3,117.5,64.1,117.5,64,117.5z
		 M29.5,95.4l34.5,20l34.5-19.9V75.2L64,55.2L29.5,75.1V95.4z"/>
	<polygon class="st2" points="99.5,96 64,116.5 64,95.1 99.5,74.6 	"/>
	<polygon class="st2" points="28.5,95.9 64,116.5 64,95.1 28.5,74.5 	"/>
	<path class="st3" d="M81.8,85.9c-0.2,0-0.3,0-0.5-0.1L63.5,75.5c-0.5-0.3-0.6-0.9-0.4-1.4c0.1-0.2,0.2-0.3,0.4-0.4l17.8-10.2
		c0.3-0.2,0.7-0.2,1,0L100,73.8c0.5,0.3,0.6,0.9,0.4,1.4c-0.1,0.2-0.2,0.3-0.4,0.4L82.3,85.7C82.1,85.8,81.9,85.9,81.8,85.9z
		 M66,74.6l15.7,9.1l15.8-9.1l-15.7-9.1L66,74.6z"/>
	<path class="st3" d="M81.8,107.3c-0.6,0-1-0.4-1-1V84.9c0-0.6,0.4-1,1-1s1,0.4,1,1v21.4C82.8,106.8,82.3,107.3,81.8,107.3z"/>
	<path class="st2" d="M81.7,79.1c-3.9,0-6.9-1.9-6.9-4.4s3-4.4,6.9-4.4s6.9,1.9,6.9,4.4S85.6,79.1,81.7,79.1z M81.7,72.3
		c-2.8,0-4.9,1.3-4.9,2.4s2.1,2.4,4.9,2.4s4.9-1.3,4.9-2.4S84.5,72.3,81.7,72.3z"/>
	<ellipse class="st3" cx="37.6" cy="74.6" rx="1.7" ry="1"/>
	<ellipse class="st3" cx="64" cy="89.8" rx="1.7" ry="1"/>
	<path class="st3" d="M64,106.8c-0.2,0-0.3,0-0.5-0.1L28,86.2c-0.5-0.3-0.6-0.9-0.3-1.4c0.3-0.4,0.8-0.6,1.3-0.3l35,20.3l35-20.2
		c0.5-0.3,1.1-0.1,1.4,0.4s0.1,1.1-0.4,1.4l-35.5,20.5C64.3,106.8,64.2,106.8,64,106.8z"/>
	<path class="st3" d="M64,95.9c-0.2,0-0.3,0-0.5-0.1L28,75.4c-0.5-0.3-0.6-0.9-0.4-1.4c0.3-0.5,0.9-0.6,1.4-0.4l35,20.1l35-20
		c0.5-0.3,1.1-0.1,1.4,0.4s0.1,1.1-0.4,1.4L64.5,95.7C64.4,95.8,64.2,95.9,64,95.9z"/>
	<path class="st4" d="M64,117.5c-0.2,0-0.3,0-0.5-0.1L28,96.8c-0.3-0.2-0.5-0.5-0.5-0.9V74.5c0-0.4,0.2-0.7,0.5-0.9l35.5-20.5
		c0.3-0.2,0.7-0.2,1,0L100,73.8c0.3,0.2,0.5,0.5,0.5,0.9v21.4c0,0.4-0.2,0.7-0.5,0.9l-35.5,20.5C64.3,117.5,64.1,117.5,64,117.5z
		 M29.5,95.4l34.5,20l34.5-19.9V75.2L64,55.2L29.5,75.1V95.4z"/>
	<ellipse class="st3" cx="64" cy="59.3" rx="1.7" ry="1"/>
	<path class="st1" d="M99.6,45.4L65.2,25.5c-0.7-0.4-1.6-0.4-2.3,0L28.4,45.3l34.4,19.9c0.7,0.4,1.6,0.4,2.3,0L99.6,45.4z"/>
	<path class="st5" d="M82.7,49.4c-3.4,0-6.1-1.7-6.1-4s2.7-4,6.1-4s6.1,1.7,6.1,4S86.1,49.4,82.7,49.4z M82.7,43.5
		c-2.4,0-4.1,1-4.1,2s1.8,2,4.1,2s4.1-1,4.1-2S85.1,43.5,82.7,43.5z"/>
	<ellipse class="st6" cx="64" cy="30.1" rx="1.7" ry="1"/>
	<ellipse class="st6" cx="37.5" cy="45.4" rx="1.7" ry="1"/>
	<ellipse class="st6" cx="64" cy="60.7" rx="1.7" ry="1"/>
	<path class="st6" d="M82.9,56.1c-0.2,0-0.3,0-0.5-0.1l-16.7-9.7c-0.5-0.3-0.6-0.9-0.4-1.4c0.1-0.2,0.2-0.3,0.4-0.4l16.7-9.6
		c0.3-0.2,0.7-0.2,1,0l16.7,9.7c0.5,0.3,0.6,0.9,0.4,1.4c-0.1,0.2-0.2,0.3-0.4,0.4L83.4,56C83.2,56,83.1,56.1,82.9,56.1z M68.2,45.4
		l14.7,8.5l14.7-8.5L82.9,37L68.2,45.4z"/>
	<path class="st0" d="M64,66.9c-0.2,0-0.3,0-0.5-0.1L27.9,46.2c-0.5-0.3-0.6-0.9-0.4-1.4c0.1-0.2,0.2-0.3,0.4-0.4L63.5,24
		c0.3-0.2,0.7-0.2,1,0l35.6,20.6c0.5,0.3,0.6,0.9,0.4,1.4c-0.1,0.2-0.2,0.3-0.4,0.4L64.5,66.8C64.3,66.9,64.1,66.9,64,66.9z
		 M30.4,45.3L64,64.8l33.6-19.3L64,26L30.4,45.3z"/>
	<rect x="1" y="1" class="st7" width="126" height="126"/>
	<g>
		<rect class="st7" width="128" height="128"/>
	</g>
</g>
</svg>
