<?xml version="1.0" encoding="utf-8"?>
<!-- Generator: Adobe Illustrator 24.1.2, SVG Export Plug-In . SVG Version: 6.00 Build 0)  -->
<svg version="1.1" id="Layer_1" xmlns="http://www.w3.org/2000/svg" xmlns:xlink="http://www.w3.org/1999/xlink" x="0px" y="0px"
	 width="128px" height="128px" viewBox="0 0 128 128" style="enable-background:new 0 0 128 128;" xml:space="preserve">
<style type="text/css">
	.st0{fill:#0E352C;}
	.st1{fill:#185849;}
	.st2{fill:#FFFFFF;}
	.st3{fill:#27ae60;}
	.st4{fill:#C4D7D3;}
	.st5{fill:#E9EBDF;}
	.st6{fill:#4D9987;}
	.st7{fill:none;}
</style>
<g>
	<path class="st0" d="M28.5,14.1c-0.4,0-0.8-0.2-0.9-0.6c-0.1-0.1-0.1-0.3-0.1-0.4c0-0.3,0.1-0.5,0.3-0.7c0.1-0.1,0.2-0.2,0.3-0.2
		c0.4-0.2,0.8-0.1,1.1,0.2c0.1,0.1,0.2,0.2,0.2,0.3c0.1,0.1,0.1,0.2,0.1,0.4c0,0.1,0,0.3-0.1,0.4c-0.1,0.2-0.3,0.4-0.5,0.5
		C28.8,14.1,28.6,14.1,28.5,14.1z"/>
	<path class="st0" d="M27.5,31.3c0-0.6,0.4-1,1-1l0,0c0.6,0,1,0.4,1,1l0,0c0,0.6-0.4,1-1,1l0,0C27.9,32.3,27.5,31.8,27.5,31.3z
		 M27.5,25.2c0-0.6,0.4-1,1-1l0,0c0.6,0,1,0.4,1,1l0,0c0,0.6-0.4,1-1,1l0,0C27.9,26.2,27.5,25.8,27.5,25.2z M27.5,19.2
		c0-0.6,0.4-1,1-1l0,0c0.6,0,1,0.4,1,1l0,0c0,0.6-0.4,1-1,1l0,0C27.9,20.2,27.5,19.7,27.5,19.2z"/>
	<path class="st0" d="M28.5,38.3c-0.1,0-0.3,0-0.4-0.1s-0.2-0.1-0.3-0.2c-0.1-0.1-0.2-0.2-0.2-0.3c-0.1-0.2-0.1-0.5,0-0.8
		c0.1-0.1,0.1-0.2,0.2-0.3l0.1-0.1c0.1,0,0.1-0.1,0.2-0.1s0.1,0,0.2-0.1c0.3-0.1,0.7,0,0.9,0.3c0.1,0.1,0.2,0.2,0.2,0.3
		c0.1,0.2,0.1,0.5,0,0.8c0,0.1-0.1,0.2-0.2,0.3C29,38.2,28.8,38.4,28.5,38.3z"/>
	<path class="st0" d="M99.6,14.1c-0.1,0-0.3,0-0.4-0.1c-0.2-0.1-0.4-0.3-0.5-0.5c-0.1-0.1-0.1-0.3-0.1-0.4c0-0.3,0.1-0.5,0.3-0.7
		c0,0,0.1-0.1,0.2-0.1s0.1-0.1,0.2-0.1s0.1-0.1,0.2-0.1c0.3-0.1,0.7,0,0.9,0.3c0.2,0.2,0.3,0.4,0.3,0.7c0,0.1,0,0.3-0.1,0.4
		c0,0.1-0.1,0.2-0.2,0.3s-0.2,0.2-0.3,0.2C99.9,14.1,99.7,14.1,99.6,14.1z"/>
	<path class="st0" d="M98.6,31.3c0-0.6,0.4-1,1-1l0,0c0.6,0,1,0.4,1,1l0,0c0,0.6-0.4,1-1,1l0,0C99,32.3,98.6,31.8,98.6,31.3z
		 M98.6,25.2c0-0.6,0.4-1,1-1l0,0c0.6,0,1,0.4,1,1l0,0c0,0.6-0.4,1-1,1l0,0C99,26.2,98.6,25.8,98.6,25.2z M98.6,19.2
		c0-0.6,0.4-1,1-1l0,0c0.6,0,1,0.4,1,1l0,0c0,0.6-0.4,1-1,1l0,0C99,20.2,98.6,19.7,98.6,19.2z"/>
	<path class="st0" d="M99.6,38.3c-0.3,0-0.5-0.1-0.7-0.3c-0.1-0.1-0.2-0.2-0.2-0.3c-0.1-0.2-0.1-0.5,0-0.8c0.1-0.1,0.1-0.2,0.2-0.3
		l0.2-0.1c0.1,0,0.1-0.1,0.2-0.1s0.1,0,0.2-0.1c0.3-0.1,0.7,0,0.9,0.3c0.1,0.1,0.2,0.2,0.2,0.3c0.1,0.1,0.1,0.2,0.1,0.4
		C100.6,37.9,100.2,38.3,99.6,38.3C99.6,38.4,99.6,38.4,99.6,38.3z"/>
	<ellipse class="st1" cx="64.1" cy="109.6" rx="1.7" ry="1"/>
	<path class="st1" d="M64,115.9c-0.2,0-0.3,0-0.5-0.1L27.9,95.2c-0.5-0.3-0.6-0.9-0.4-1.4c0.1-0.2,0.2-0.3,0.4-0.4l35.6-20.5
		c0.3-0.2,0.7-0.2,1,0l35.6,20.6c0.5,0.3,0.6,0.9,0.4,1.4c-0.1,0.2-0.2,0.3-0.4,0.4l-35.6,20.5C64.3,115.9,64.1,115.9,64,115.9z
		 M30.4,94.3L64,113.7l33.6-19.3L64,75L30.4,94.3z"/>
	<polygon class="st2" points="99.6,94.4 64,73.8 28.4,94.3 64,114.9 	"/>
	<ellipse class="st3" cx="64" cy="79.1" rx="1.7" ry="1"/>
	<ellipse class="st3" cx="37.5" cy="94.3" rx="1.7" ry="1"/>
	<ellipse class="st3" cx="64" cy="109.6" rx="1.7" ry="1"/>
	<path class="st3" d="M82.9,105c-0.2,0-0.3,0-0.5-0.1l-16.7-9.6c-0.5-0.3-0.6-0.9-0.4-1.4c0.1-0.2,0.2-0.3,0.4-0.4l16.7-9.6
		c0.3-0.2,0.7-0.2,1,0l16.7,9.6c0.5,0.3,0.6,0.9,0.4,1.4c-0.1,0.2-0.2,0.3-0.4,0.4l-16.7,9.6C83.3,105,83.1,105,82.9,105z
		 M68.2,94.4l14.7,8.5l14.7-8.5l-14.7-8.5L68.2,94.4z"/>
	<path class="st1" d="M64,115.9c-0.2,0-0.3,0-0.5-0.1L27.9,95.2c-0.5-0.3-0.6-0.9-0.4-1.4c0.1-0.2,0.2-0.3,0.4-0.4l35.6-20.5
		c0.3-0.2,0.7-0.2,1,0l35.6,20.6c0.5,0.3,0.6,0.9,0.4,1.4c-0.1,0.2-0.2,0.3-0.4,0.4l-35.6,20.5C64.3,115.9,64.2,115.9,64,115.9z
		 M30.4,94.3L64,113.7l33.6-19.3L64,75L30.4,94.3z"/>
	<path class="st4" d="M82.9,99c-0.2,0-0.3,0-0.5-0.1l-6.3-3.7c-0.5-0.3-0.6-0.9-0.4-1.4c0.1-0.2,0.2-0.3,0.4-0.4l6.3-3.7
		c0.3-0.2,0.7-0.2,1,0l6.3,3.7c0.5,0.3,0.6,0.9,0.4,1.4c-0.1,0.2-0.2,0.3-0.4,0.4l-6.3,3.6C83.3,99,83.1,99,82.9,99z M78.6,94.3
		l4.3,2.5l4.3-2.5l-4.3-2.5L78.6,94.3z"/>
	<polygon class="st2" points="99.5,43.5 64,22.9 28.5,43.4 28.5,64.8 64,85.3 99.5,64.9 	"/>
	<path class="st0" d="M64,86.3c-0.2,0-0.3,0-0.5-0.1L28,65.7c-0.3-0.2-0.5-0.5-0.5-0.9V43.4c0-0.4,0.2-0.7,0.5-0.9L63.5,22
		c0.3-0.2,0.7-0.2,1,0L100,42.6c0.3,0.2,0.5,0.5,0.5,0.9v21.4c0,0.4-0.2,0.7-0.5,0.9L64.5,86.2C64.3,86.3,64.1,86.3,64,86.3z
		 M29.5,64.2l34.5,20l34.5-19.9V44.1L64,24.1L29.5,44V64.2z"/>
	<polygon class="st5" points="99.5,64.9 64,85.3 64,63.9 99.5,43.5 	"/>
	<polygon class="st2" points="28.5,64.8 64,85.3 64,63.9 28.5,43.4 	"/>
	<path class="st6" d="M81.7,54.7c-0.2,0-0.3,0-0.5-0.1L63.5,44.3c-0.5-0.3-0.6-0.9-0.4-1.4c0.1-0.2,0.2-0.3,0.4-0.4l17.8-10.2
		c0.3-0.2,0.7-0.2,1,0L100,42.6c0.5,0.3,0.6,0.9,0.4,1.4c-0.1,0.2-0.2,0.3-0.4,0.4L82.2,54.6C82.1,54.7,81.9,54.7,81.7,54.7z
		 M66,43.4l15.7,9.1l15.8-9.1l-15.7-9.1L66,43.4z"/>
	<path class="st6" d="M81.7,76.1c-0.6,0-1-0.4-1-1V53.7c0-0.6,0.4-1,1-1s1,0.4,1,1v21.4C82.7,75.7,82.3,76.1,81.7,76.1z"/>
	<ellipse class="st6" cx="64" cy="28.2" rx="1.7" ry="1"/>
	<ellipse class="st6" cx="37.6" cy="43.4" rx="1.7" ry="1"/>
	<ellipse class="st6" cx="64" cy="58.7" rx="1.7" ry="1"/>
	<path class="st6" d="M64,75.7c-0.2,0-0.3,0-0.5-0.1L28,55c-0.5-0.3-0.7-0.9-0.4-1.3s0.9-0.7,1.3-0.4c0,0,0,0,0.1,0l35,20.3l35-20.2
		c0.5-0.3,1.1-0.1,1.4,0.4s0.1,1.1-0.4,1.4L64.5,75.6C64.3,75.6,64.2,75.7,64,75.7z"/>
	<path class="st6" d="M64,64.7c-0.2,0-0.3,0-0.5-0.1L28,44.3c-0.5-0.3-0.6-0.9-0.4-1.4s0.9-0.6,1.4-0.4l35,20.1l35-20
		c0.5-0.3,1.1-0.1,1.4,0.4s0.1,1.1-0.4,1.4l0,0L64.5,64.6C64.4,64.7,64.2,64.7,64,64.7z"/>
	<path class="st0" d="M64,86.3c-0.2,0-0.3,0-0.5-0.1L28,65.7c-0.3-0.2-0.5-0.5-0.5-0.9V43.4c0-0.4,0.2-0.7,0.5-0.9L63.5,22
		c0.3-0.2,0.7-0.2,1,0L100,42.6c0.3,0.2,0.5,0.5,0.5,0.9v21.4c0,0.4-0.2,0.7-0.5,0.9L64.5,86.2C64.3,86.3,64.1,86.3,64,86.3z
		 M29.5,64.2l34.5,20l34.5-19.9V44.1L64,24.1L29.5,44V64.2z"/>
	<path class="st5" d="M81.8,48.5c-0.2,0-0.3,0-0.5-0.1l-6.7-3.9c-0.5-0.3-0.6-0.9-0.4-1.4c0.1-0.2,0.2-0.3,0.4-0.4l6.8-3.9
		c0.3-0.2,0.7-0.2,1,0l6.7,3.9c0.5,0.3,0.6,0.9,0.4,1.4c-0.1,0.2-0.2,0.3-0.4,0.4l-6.8,3.9C82.1,48.4,81.9,48.5,81.8,48.5z M77,43.6
		l4.7,2.7l4.8-2.7l-4.7-2.7L77,43.6z"/>
	<rect x="1" y="1" class="st7" width="126" height="126"/>
	<g>
		<rect class="st7" width="128" height="128"/>
	</g>
</g>
</svg>
