<?xml version="1.0" encoding="utf-8"?>
<!-- Generator: Adobe Illustrator 24.1.2, SVG Export Plug-In . SVG Version: 6.00 Build 0)  -->
<svg version="1.1" id="Layer_1" xmlns="http://www.w3.org/2000/svg" xmlns:xlink="http://www.w3.org/1999/xlink" x="0px" y="0px"
	 width="128px" height="128px" viewBox="0 0 128 128" style="enable-background:new 0 0 128 128;" xml:space="preserve">
<style type="text/css">
	.st0{fill:#FFFFFF;}
	.st1{fill:#0E352C;}
	.st2{fill:#E9EBDF;}
	.st3{fill:#4D9987;}
	.st4{fill:#C4D7D3;}
	.st5{fill:#27ae60;}
	.st6{fill:#185849;}
	.st7{fill:none;}
</style>
<g>
	<path class="st0" d="M97.3,69.4L66.5,51.6c-1.5-0.9-3.4-0.9-5,0L30.8,69.3c-0.9,0.5-1.5,1.5-1.5,2.6v19.7c0,1.1,0.6,2.1,1.5,2.6
		L61.5,112c1.5,0.9,3.4,0.9,5,0l30.8-17.7c0.9-0.5,1.5-1.5,1.5-2.6V72C98.7,70.9,98.2,69.9,97.3,69.4z"/>
	<path class="st1" d="M64,113.6c-1.1,0-2.1-0.3-3-0.8L30.2,95c-1.2-0.7-2-2-2-3.5V71.8c0-1.4,0.8-2.7,2-3.5L61,50.7
		c1.9-1.1,4.1-1.1,6,0l30.7,17.8c1.2,0.7,2,2,2,3.5v19.7c0,1.4-0.8,2.7-2,3.5L67,112.8C66,113.4,65,113.6,64,113.6z M64,51.9
		c-0.7,0-1.4,0.2-2,0.5L31.3,70.2c-0.6,0.4-1,1-1,1.7v19.7c0,0.7,0.4,1.4,1,1.7L62,111.1c1.2,0.7,2.8,0.7,4,0l30.8-17.7
		c0.6-0.4,1-1,1-1.7V72c0-0.7-0.4-1.4-1-1.7l0,0L66,52.5C65.4,52.1,64.7,51.9,64,51.9z"/>
	<polygon class="st2" points="98.7,93.4 64,113.4 64,101.8 98.7,81.8 	"/>
	<polygon class="st0" points="29.3,93.3 64,113.4 64,101.8 29.3,81.7 	"/>
	<polygon class="st2" points="98.7,81.8 64,101.8 64,90.3 98.7,70.3 	"/>
	<polygon class="st0" points="29.3,81.7 64,101.8 64,90.3 29.3,70.2 	"/>
	<path class="st3" d="M81.4,81.3c-0.2,0-0.3,0-0.5-0.1l-14.4-8.3c-1.4-0.8-1.9-2.7-1.1-4.1c0.3-0.4,0.6-0.8,1.1-1.1l14.4-8.3
		c0.3-0.2,0.7-0.2,1,0l15.9,9.2l0,0c1,0.6,1.3,1.8,0.7,2.7c-0.2,0.3-0.4,0.5-0.7,0.7l-15.9,9.1C81.7,81.2,81.5,81.3,81.4,81.3z
		 M81.4,61.4l-13.9,8c-0.5,0.3-0.6,0.9-0.4,1.4c0.1,0.2,0.2,0.3,0.4,0.4l13.9,8l15.4-8.9L81.4,61.4z"/>
	<path class="st3" d="M64,90.5c-1.1,0-2.1-0.3-3-0.8L29.2,71.2c-0.5-0.3-0.6-0.9-0.3-1.4c0.3-0.4,0.8-0.6,1.3-0.3L62,87.9
		c1.2,0.7,2.8,0.7,4,0l31.9-18.3c0.5-0.3,1.1-0.1,1.4,0.4s0.1,1.1-0.4,1.4L67,89.7C66.1,90.2,65,90.5,64,90.5z"/>
	<path class="st3" d="M81.4,104.4c-0.6,0-1-0.4-1-1V80.3c0-0.6,0.4-1,1-1s1,0.4,1,1v23.1C82.4,104,81.9,104.4,81.4,104.4z"/>
	<ellipse class="st3" cx="64" cy="55.3" rx="1.7" ry="1"/>
	<ellipse class="st3" cx="38.2" cy="70.2" rx="1.7" ry="1"/>
	<ellipse class="st3" cx="64" cy="85.1" rx="1.7" ry="1"/>
	<path class="st3" d="M64,102.1c-1.1,0-2.1-0.3-3-0.8L28.8,82.6c-0.5-0.3-0.7-0.9-0.4-1.4c0.3-0.5,0.9-0.7,1.4-0.4c0,0,0,0,0.1,0
		L62,99.5c1.2,0.7,2.8,0.7,4,0L98.2,81c0.5-0.3,1.1-0.1,1.4,0.4s0.1,1.1-0.4,1.4l0,0L67,101.3C66.1,101.8,65,102.1,64,102.1z"/>
	<path class="st1" d="M64,113.6c-1.1,0-2.1-0.3-3-0.8L30.2,95c-1.2-0.7-2-2-2-3.5V71.8c0-1.4,0.8-2.7,2-3.5L61,50.7
		c1.9-1.1,4.1-1.1,6,0l30.7,17.8c1.2,0.7,2,2,2,3.5v19.7c0,1.4-0.8,2.7-2,3.5L67,112.8C66,113.4,65,113.6,64,113.6z M64,51.9
		c-0.7,0-1.4,0.2-2,0.5L31.3,70.2c-0.6,0.4-1,1-1,1.7v19.7c0,0.7,0.4,1.4,1,1.7L62,111.1c1.2,0.7,2.8,0.7,4,0l30.8-17.7
		c0.6-0.4,1-1,1-1.7V72c0-0.7-0.4-1.4-1-1.7l0,0L66,52.5C65.4,52.1,64.7,51.9,64,51.9z"/>
	<path class="st4" d="M66.5,62.7L97.2,45c0.9-0.5,1.5-1.5,1.5-2.6v-6.8c0-0.5-0.1-1-0.4-1.5L66.5,52.5c-1.5,0.9-3.4,0.9-5,0
		L29.7,34.1c-0.3,0.5-0.4,1-0.4,1.5v6.8c0,1.1,0.6,2,1.5,2.6l30.7,17.8C63,63.6,64.9,63.6,66.5,62.7z"/>
	<path class="st4" d="M97.2,45c0.9-0.5,1.5-1.5,1.5-2.6v-6.8c0-0.5-0.1-1-0.4-1.5L66.5,52.5c-0.8,0.4-1.6,0.7-2.5,0.7v10.2
		c0.9,0,1.7-0.2,2.5-0.7L97.2,45z"/>
	<path class="st0" d="M61.4,52.5c1.5,0.9,3.4,0.9,5,0l31.9-18.3c-0.3-0.5-0.6-0.8-1.1-1.1L66.5,15.2c-1.5-0.9-3.4-0.9-5,0L30.7,33
		c-0.5,0.3-0.8,0.6-1.1,1.1L61.4,52.5z"/>
	<path class="st5" d="M64,54.2c-1.1,0-2.1-0.3-3-0.8l0,0L29.2,34.9c-0.5-0.3-0.6-0.9-0.4-1.4c0.4-0.6,0.9-1.1,1.5-1.5L61,14.4
		c1.9-1.1,4.1-1.1,6,0l30.7,17.8c0.6,0.4,1.1,0.9,1.5,1.5c0.1,0.2,0.2,0.5,0.1,0.8s-0.2,0.5-0.5,0.6L67,53.4
		C66.1,53.9,65,54.2,64,54.2z M62,51.6c1.2,0.7,2.8,0.7,4,0l30.8-17.7L66,16.1c-1.2-0.7-2.8-0.7-4,0L31.3,33.8L62,51.6z"/>
	<path class="st6" d="M64,64.4c-1.1,0-2.1-0.3-3-0.8L30.2,45.8c-1.2-0.7-2-2-2-3.5v-6.8c0-1.4,0.8-2.7,2-3.5L61,14.4
		c1.9-1.1,4.1-1.1,6,0l30.7,17.8l0,0c1.2,0.7,2,2,2,3.5v6.8c0,1.4-0.8,2.7-2,3.5L67,63.6C66,64.1,65,64.4,64,64.4z M64,15.6
		c-0.7,0-1.4,0.2-2,0.5L31.3,33.8c-0.6,0.4-1,1-1,1.7v6.8c0,0.7,0.4,1.4,1,1.7L62,61.8c1.2,0.7,2.8,0.7,4,0l30.8-17.7
		c0.6-0.4,1-1,1-1.7v-6.8c0-0.7-0.4-1.4-1-1.7L66,16.1C65.4,15.8,64.7,15.6,64,15.6z"/>
	<path class="st2" d="M88.4,71.4L87,70.9c0.2-0.5,0.2-0.9,0-1.4l1.5-0.5c0.3-0.1,0.4-0.3,0.2-0.5l-1.1-1.1c-0.2-0.2-0.6-0.2-0.8-0.1
		l-1.5,0.5c-0.7-0.3-1.4-0.6-2.1-0.7v-1c0-0.2-0.3-0.4-0.6-0.4h-2.2c-0.3,0-0.6,0.2-0.6,0.4v1c-0.7,0.1-1.4,0.4-2.1,0.7l-1.5-0.5
		c-0.3-0.1-0.6-0.1-0.8,0.1l-1.1,1.1c-0.2,0.2-0.1,0.4,0.2,0.5l1.5,0.5c-0.2,0.5-0.2,0.9,0,1.4l-1.5,0.5c-0.3,0.1-0.4,0.3-0.2,0.5
		l1.1,1.1c0.2,0.2,0.6,0.2,0.8,0.1l1.5-0.5c0.7,0.3,1.4,0.6,2.1,0.7v1c0,0.2,0.3,0.4,0.6,0.4h2.2c0.3,0,0.6-0.2,0.6-0.4v-1
		c0.7-0.1,1.4-0.4,2.1-0.7l1.5,0.5c0.3,0.1,0.6,0.1,0.8-0.1l1.1-1.1C88.8,71.7,88.7,71.5,88.4,71.4z M81.4,72.1
		c-1.9,0-3.4-0.9-3.4-2s1.5-2,3.4-2s3.4,0.9,3.4,2S83.2,72.1,81.4,72.1z"/>
	<path class="st4" d="M67.3,44.2h-4.5c-1.3,0-2.3-0.7-2.3-1.7v-1.2c-1.1-0.3-2.3-0.6-3.3-1.1L54.6,41c-0.9,0.3-2,0.1-2.7-0.5
		l-2.3-2.3c-0.4-0.4-0.5-0.9-0.4-1.4c0.2-0.6,0.7-1.1,1.3-1.2l2.1-0.7c-0.1-0.5-0.1-1,0-1.5l-2.1-0.7c-0.6-0.2-1.1-0.6-1.3-1.2
		c-0.1-0.5,0-1,0.4-1.4l2.3-2.3c0.8-0.6,1.8-0.8,2.7-0.5l2.6,0.9c1.1-0.5,2.2-0.9,3.3-1.1v-1.2c0-1,1-1.7,2.3-1.7h4.5
		c1.3,0,2.3,0.7,2.3,1.7V27c1.1,0.3,2.3,0.6,3.3,1.1l2.6-0.9c0.9-0.3,2-0.1,2.7,0.5l2.3,2.3c0.4,0.4,0.5,0.9,0.4,1.4
		c-0.2,0.6-0.7,1.1-1.3,1.2l-2.1,0.7c0.1,0.5,0.1,1,0,1.5l2.1,0.7c0.6,0.2,1.1,0.6,1.3,1.2c0.1,0.5,0,1-0.4,1.4l-2.3,2.3
		c-0.8,0.6-1.8,0.8-2.7,0.5L72.9,40c-1.1,0.5-2.2,0.9-3.3,1.1v1.2C69.5,43.4,68.6,44.2,67.3,44.2z M62.5,42.2c0.1,0,0.2,0,0.3,0h4.5
		c0.1,0,0.2,0,0.3,0v-2.5l0.8-0.2c1.4-0.2,2.7-0.7,4-1.3l0.4-0.2l3.4,1.1c0.2,0.1,0.5,0.1,0.7,0l1.7-1.7L75,36.2l0.4-1
		c0.3-0.7,0.3-1.4,0-2.1l-0.4-1l3.5-1.2l-1.7-1.7c-0.2-0.1-0.5-0.1-0.7,0l-3.4,1.1l-0.4-0.2c-1.2-0.6-2.6-1.1-4-1.3l-0.8-0.2v-2.5
		c-0.1,0-0.2,0-0.3,0h-4.5c-0.1,0-0.2,0-0.3,0v2.5l-0.8,0.2c-1.4,0.2-2.7,0.7-4,1.3l-0.4,0.2L54,29.2c-0.2-0.1-0.5-0.1-0.7,0
		l-1.7,1.7l3.5,1.2l-0.4,1c-0.3,0.7-0.3,1.4,0,2.1l0.4,1l-3.5,1.2l1.7,1.7c0.2,0.1,0.5,0.1,0.7,0l3.4-1.1l0.4,0.2
		c1.2,0.6,2.6,1.1,4,1.3l0.8,0.2L62.5,42.2z M65,38.1c-3.4,0-6.1-1.7-6.1-4s2.7-3.9,6.1-3.9c3.4,0,6.1,1.7,6.1,3.9
		S68.4,38.1,65,38.1z M65,32.2c-2.4,0-4.1,1-4.1,1.9s1.8,2,4.1,2c2.4,0,4.1-1,4.1-2S67.4,32.2,65,32.2z"/>
	<rect x="1" y="1" class="st7" width="126" height="126"/>
	<g>
		<rect class="st7" width="128" height="128"/>
	</g>
</g>
</svg>
