<?xml version="1.0" encoding="utf-8"?>
<!-- Generator: Adobe Illustrator 24.1.2, SVG Export Plug-In . SVG Version: 6.00 Build 0)  -->
<svg version="1.1" id="Layer_1" xmlns="http://www.w3.org/2000/svg" xmlns:xlink="http://www.w3.org/1999/xlink" x="0px" y="0px"
	 width="440px" height="300px" viewBox="0 0 440 300" style="enable-background:new 0 0 440 300;" xml:space="preserve">
<style type="text/css">
	.st0{fill:#27ae60;}
	.st1{fill:#FFFFFF;}
	.st2{fill:#4D9987;}
	.st3{fill:#E9EBDF;}
	.st4{fill:#C4D7D3;}
	.st5{fill:#185849;}
	.st6{fill:#0E352C;}
	.st7{fill:none;}
</style>
<g>
	<path class="st0" d="M207.3,204.5c-0.1,0-0.3,0-0.4-0.1c-0.1-0.1-0.2-0.1-0.3-0.2c-0.3-0.3-0.4-0.7-0.2-1.1
		c0.1-0.1,0.1-0.2,0.2-0.3c0.3-0.3,0.7-0.4,1.1-0.2c0.2,0.1,0.4,0.3,0.5,0.5c0.2,0.4,0.1,0.8-0.2,1.1c-0.1,0.1-0.2,0.2-0.3,0.2
		C207.5,204.4,207.4,204.5,207.3,204.5z"/>
	<path class="st0" d="M211.2,201.2c-0.3-0.5-0.1-1.1,0.4-1.4l0,0c0.5-0.3,1.1-0.1,1.4,0.4c0,0,0,0,0,0l0,0c0.3,0.5,0.1,1.1-0.4,1.4
		l0,0c-0.2,0.1-0.3,0.1-0.5,0.1l0,0C211.7,201.7,211.4,201.5,211.2,201.2z M216,198.4c-0.3-0.5-0.1-1.1,0.4-1.4c0,0,0,0,0,0l0,0
		c0.5-0.3,1.1-0.1,1.4,0.4l0,0c0.3,0.5,0.1,1.1-0.4,1.4l0,0c-0.2,0.1-0.3,0.1-0.5,0.1l0,0C216.5,198.9,216.2,198.7,216,198.4
		L216,198.4z M220.9,195.6c-0.3-0.5-0.1-1.1,0.4-1.4c0,0,0,0,0,0l0,0c0.5-0.3,1.1-0.1,1.4,0.4c0,0,0,0,0,0l0,0
		c0.3,0.5,0.1,1.1-0.4,1.4c0,0,0,0,0,0l0,0c-0.1,0.1-0.3,0.1-0.5,0.1l0,0C221.4,196.1,221,195.9,220.9,195.6L220.9,195.6z
		 M225.7,192.8c-0.3-0.5-0.1-1.1,0.4-1.4l0,0c0.5-0.3,1.1-0.1,1.4,0.4l0,0c0.3,0.5,0.1,1.1-0.4,1.4l0,0c-0.1,0.1-0.3,0.1-0.5,0.1
		l0,0C226.2,193.4,225.8,193.2,225.7,192.8L225.7,192.8z M230.5,190.1c-0.3-0.5-0.1-1.1,0.4-1.4c0,0,0,0,0,0l0,0
		c0.5-0.3,1.1-0.1,1.4,0.4l0,0c0.3,0.5,0.1,1.1-0.4,1.4l0,0c-0.2,0.1-0.3,0.1-0.5,0.1l0,0C231,190.6,230.7,190.4,230.5,190.1
		L230.5,190.1z M235.3,187.3c-0.3-0.5-0.1-1.1,0.4-1.4l0,0c0.5-0.3,1.1-0.1,1.4,0.4l0,0c0.3,0.5,0.1,1.1-0.4,1.4l0,0
		c-0.2,0.1-0.3,0.1-0.5,0.1l0,0C235.8,187.8,235.5,187.6,235.3,187.3L235.3,187.3z"/>
	<path class="st0" d="M241,185c-0.1,0-0.3,0-0.4-0.1c-0.1-0.1-0.2-0.1-0.3-0.2c-0.3-0.3-0.4-0.7-0.2-1.1c0.1-0.1,0.1-0.2,0.2-0.3
		c0.3-0.3,0.7-0.4,1.1-0.2c0.1,0.1,0.2,0.1,0.3,0.2c0.1,0.1,0.2,0.2,0.2,0.3c0.1,0.1,0.1,0.2,0.1,0.4c0,0.1,0,0.3-0.1,0.4
		c0,0.1-0.1,0.2-0.2,0.3c-0.1,0.1-0.2,0.2-0.3,0.2C241.2,185,241.1,185,241,185z"/>
	<path class="st0" d="M244.6,187.1c-0.2,0-0.3,0-0.5-0.1l-7.3-4.2c-0.5-0.3-0.6-0.9-0.4-1.4c0.2-0.3,0.4-0.4,0.7-0.5l10-1.5
		c0.5-0.1,1.1,0.3,1.1,0.8c0,0.2,0,0.4-0.1,0.6l-2.7,5.8c-0.1,0.3-0.3,0.4-0.6,0.5C244.8,187.1,244.7,187.1,244.6,187.1z
		 M240.3,182.5l3.9,2.2l1.4-3.1L240.3,182.5z"/>
	<path class="st1" d="M261.6,26l6.6-3.8l0,0c0.8-0.4,1.7-0.3,2.5,0.2l95.6,55.2c2.1,1.2,3.8,4.4,3.8,7.2v79.1c0.1,1.2-0.4,2.3-1.3,3
		l0,0l-6.6,3.8l-6.4-10l-85.1-49.1c-2.1-1.2-3.8-4.4-3.8-7.2V33L261.6,26z"/>
	<path class="st2" d="M362.1,171.7c-0.3,0-0.7-0.2-0.8-0.5l-6.2-9.8l-84.9-49c-2.4-1.4-4.3-4.9-4.3-8.1v-71l-5.1-6.7
		c-0.3-0.4-0.2-1.1,0.2-1.4c0,0,0.1,0,0.1-0.1l6.6-3.8c0,0,0.1,0,0.1-0.1c1.1-0.5,2.4-0.4,3.4,0.3l95.6,55.2
		c2.4,1.4,4.3,4.9,4.3,8.1v79.1c0.1,1.5-0.5,2.9-1.7,3.8c0,0-0.1,0-0.1,0.1l-6.6,3.8C362.5,171.7,362.3,171.7,362.1,171.7z
		 M263.1,26.3l4.6,6c0.1,0.2,0.2,0.4,0.2,0.6v71.4c0,2.4,1.5,5.3,3.3,6.3l85.1,49.1c0.1,0.1,0.3,0.2,0.3,0.3l5.8,9.2l5.7-3.3
		c0,0,0.1,0,0.1-0.1c0.6-0.5,0.9-1.4,0.8-2.2V84.8c0-2.4-1.5-5.3-3.3-6.3l-95.6-55.2c-0.4-0.3-1-0.4-1.5-0.2c0,0-0.1,0-0.1,0
		L263.1,26.3z"/>
	<path class="st1" d="M268.2,22.2c0.8-0.4,1.7-0.3,2.5,0.2l95.6,55.2c2.1,1.2,3.8,4.4,3.8,7.2v7.6l-66.2,38.2l-33.1-19.1
		c-2.1-1.2-3.8-4.4-3.8-7.2V33l-5.3-6.9L268.2,22.2L268.2,22.2z"/>
	<path class="st3" d="M303.8,131.7c-0.2,0-0.3,0-0.5-0.1l-33.1-19.1c-2.4-1.4-4.3-4.9-4.3-8.1v-71l-5.1-6.7
		c-0.3-0.4-0.2-1.1,0.2-1.4c0,0,0.1,0,0.1-0.1l6.6-3.8c0,0,0.1,0,0.1-0.1c1.1-0.5,2.4-0.4,3.4,0.3l95.6,55.2
		c2.4,1.4,4.3,4.9,4.3,8.1v7.6c0,0.4-0.2,0.7-0.5,0.9l-66.2,38.2C304.1,131.6,304,131.7,303.8,131.7z M263.1,26.3l4.6,6
		c0.1,0.2,0.2,0.4,0.2,0.6v71.4c0,2.4,1.5,5.3,3.3,6.3l32.7,18.8L369,91.9v-7.1c0-2.4-1.5-5.3-3.3-6.3l-95.6-55.2
		c-0.4-0.3-1-0.4-1.5-0.2c0,0-0.1,0-0.1,0L263.1,26.3z"/>
	<path class="st1" d="M293,124.4l-22.3-12.9c-2.1-1.2-3.8-4.4-3.8-7.2V33l-5.3-6.9l6.6-3.8l0,0c0.8-0.4,1.7-0.3,2.5,0.2l95.6,55.2
		c1.1,0.7,2.1,1.8,2.7,3L293,124.4z"/>
	<path class="st1" d="M264.1,26.2l95.6,55.2c2.1,1.2,3.8,4.4,3.8,7.2v79.1c0,2.8-1.7,4.1-3.8,2.8l-95.6-55.2
		c-2.1-1.2-3.8-4.4-3.8-7.2V29.1C260.3,26.3,262,25,264.1,26.2z"/>
	<path class="st3" d="M361.1,172c-0.7,0-1.4-0.2-2-0.6l-95.6-55.2c-2.4-1.4-4.3-4.9-4.3-8.1V29.1c-0.1-1.5,0.5-3,1.8-3.9
		c1.1-0.6,2.4-0.5,3.5,0.2l0,0l95.6,55.2c2.4,1.4,4.3,4.9,4.3,8.1v79.1c0.1,1.5-0.5,3-1.8,3.9C362.2,171.8,361.7,172,361.1,172z
		 M262.6,26.8c-0.2,0-0.3,0-0.5,0.1c-0.6,0.6-0.9,1.4-0.8,2.2v79.1c0,2.4,1.5,5.3,3.3,6.3l95.6,55.2c0.4,0.3,1,0.4,1.5,0.2
		c0.6-0.6,0.9-1.4,0.8-2.2V88.6c0-2.4-1.5-5.3-3.3-6.3l-95.6-55.2C263.3,26.9,262.9,26.8,262.6,26.8z"/>
	<path class="st1" d="M260.3,36.7v-7.6c0-2.8,1.7-4.1,3.8-2.8l95.6,55.2c2.1,1.2,3.8,4.4,3.8,7.2v7.6L260.3,36.7z"/>
	<path class="st3" d="M363.4,97.3c-0.2,0-0.3,0-0.5-0.1L259.8,37.6c-0.3-0.2-0.5-0.5-0.5-0.9v-7.6c-0.1-1.5,0.5-3,1.8-3.9
		c1.1-0.6,2.4-0.5,3.5,0.2l95.6,55.2c2.4,1.4,4.3,4.9,4.3,8.1v7.6C364.4,96.8,364,97.3,363.4,97.3L363.4,97.3z M261.3,36.1
		l101.1,58.4v-5.9c0-2.4-1.5-5.3-3.3-6.3l-95.6-55.2c-0.4-0.3-1-0.4-1.5-0.2c-0.6,0.6-0.9,1.4-0.8,2.2L261.3,36.1z"/>
	<ellipse transform="matrix(0.9202 -0.3916 0.3916 0.9202 7.813 107.0616)" class="st3" cx="266.4" cy="34.4" rx="1.1" ry="1.9"/>
	<ellipse transform="matrix(0.9202 -0.3916 0.3916 0.9202 7.1205 109.1337)" class="st3" cx="271.2" cy="37.1" rx="1.1" ry="1.9"/>
	<ellipse transform="matrix(0.9202 -0.3916 0.3916 0.9202 6.4286 111.206)" class="st3" cx="275.9" cy="39.8" rx="1.1" ry="1.9"/>
	<path class="st3" d="M361.1,172c-0.7,0-1.4-0.2-2-0.6l-95.6-55.2c-2.4-1.4-4.3-4.9-4.3-8.1V29.1c-0.1-1.4,0.4-2.8,1.5-3.7l0,0
		c0.1-0.1,0.1-0.1,0.2-0.1c0,0,0.1,0,0.1-0.1l6.6-3.8c0,0,0.1,0,0.1-0.1c1.1-0.5,2.4-0.4,3.4,0.3l95.6,55.2c2.4,1.4,4.3,4.9,4.3,8.1
		v79.1c0.1,1.5-0.5,2.9-1.7,3.8c0,0-0.1,0-0.1,0.1l-6.6,3.8c0,0-0.1,0-0.1,0.1C362.1,171.9,361.6,172,361.1,172z M262.2,26.8
		C262.2,26.9,262.1,26.9,262.2,26.8c-0.1,0.1-0.1,0.1-0.2,0.1l0,0c-0.5,0.6-0.8,1.3-0.7,2.1v79.1c0,2.4,1.5,5.3,3.3,6.3l95.6,55.2
		c0.4,0.3,1,0.4,1.5,0.2c0,0,0.1,0,0.1,0l6.4-3.7c0,0,0.1,0,0.1-0.1c0.6-0.5,0.9-1.4,0.8-2.2V84.8c0-2.4-1.5-5.3-3.3-6.3l-95.6-55.2
		c-0.4-0.3-1-0.4-1.5-0.2c0,0-0.1,0-0.1,0L262.2,26.8z"/>
	<polygon class="st1" points="351.4,130.2 342.6,120.2 333.9,119.9 325.1,100.5 316.3,105.4 307.5,104.8 298.8,99.7 290,89.8 
		281.2,84.8 272.4,70.1 272.4,108.5 351.4,154 	"/>
	<path class="st1" d="M351.4,155c-0.2,0-0.3,0-0.5-0.1l-79-45.6c-0.3-0.2-0.5-0.5-0.5-0.9V70.1c0-0.6,0.4-1,1-1
		c0.3,0,0.7,0.2,0.9,0.5L282,84l8.5,4.9c0.1,0.1,0.2,0.1,0.2,0.2l8.7,9.7l8.4,4.9l8.2,0.6l8.5-4.8c0.5-0.3,1.1-0.1,1.4,0.4
		c0,0,0,0.1,0,0.1l8.5,18.9l8.1,0.2c0.3,0,0.5,0.1,0.7,0.3l8.8,10c0.2,0.2,0.3,0.4,0.2,0.7V154C352.4,154.6,351.9,155,351.4,155
		L351.4,155z M273.4,107.9l77,44.4v-21.8l-8.2-9.3l-8.3-0.3c-0.4,0-0.7-0.2-0.9-0.6l-8.3-18.5l-7.8,4.4c-0.2,0.1-0.4,0.1-0.6,0.1
		l-8.8-0.6c-0.2,0-0.3-0.1-0.4-0.1l-8.8-5.1c-0.1-0.1-0.2-0.1-0.2-0.2l-8.7-9.7l-8.6-5c-0.1-0.1-0.3-0.2-0.4-0.3l-7-11.6
		L273.4,107.9z"/>
	<path class="st3" d="M351.4,155c-0.2,0-0.3,0-0.5-0.1L272,109.3c-0.5-0.3-0.6-0.9-0.4-1.4c0.3-0.5,0.9-0.6,1.4-0.4l78.9,45.6
		c0.5,0.3,0.6,0.9,0.4,1.4C352.1,154.9,351.8,155,351.4,155z"/>
	<path class="st1" d="M233.6,42.2l6.6-3.8l0,0c0.8-0.4,1.7-0.3,2.5,0.2l95.6,55.2c2.1,1.2,3.8,4.4,3.8,7.2V180
		c0.1,1.2-0.4,2.3-1.3,3l0,0l-6.6,3.8l-6.4-10l-85.1-49.1c-2.1-1.2-3.8-4.4-3.8-7.2V49.1L233.6,42.2z"/>
	<path class="st2" d="M334.1,187.9c-0.3,0-0.7-0.2-0.8-0.5l-6.2-9.8l-84.9-49c-2.4-1.4-4.3-4.9-4.3-8.1v-71l-5.1-6.7
		c-0.3-0.4-0.2-1.1,0.2-1.4c0,0,0.1,0,0.1-0.1l6.6-3.8c0,0,0.1,0,0.1-0.1c1.1-0.5,2.4-0.4,3.4,0.3l95.6,55.2
		c2.4,1.4,4.3,4.9,4.3,8.1V180c0.1,1.5-0.5,2.9-1.7,3.8c0,0-0.1,0-0.1,0.1l-6.6,3.8C334.5,187.8,334.3,187.9,334.1,187.9z
		 M235.1,42.5l4.6,6c0.1,0.2,0.2,0.4,0.2,0.6v71.4c0,2.4,1.5,5.3,3.3,6.3l85.1,49.1c0.1,0.1,0.3,0.2,0.3,0.3l5.8,9.2l5.7-3.3
		c0,0,0.1,0,0.1-0.1c0.6-0.5,0.9-1.4,0.8-2.2V101c0-2.4-1.5-5.3-3.3-6.3l-95.6-55.2c-0.4-0.3-1-0.4-1.5-0.2c0,0-0.1,0-0.1,0
		L235.1,42.5z"/>
	<path class="st3" d="M240.2,38.4c0.8-0.4,1.7-0.3,2.5,0.2l95.6,55.2c2.1,1.2,3.8,4.4,3.8,7.2v7.6l-66.2,38.2l-33.1-19.1
		c-2.1-1.2-3.8-4.4-3.8-7.2V49.1l-5.3-6.9L240.2,38.4L240.2,38.4z"/>
	<path class="st2" d="M275.8,147.8c-0.2,0-0.3,0-0.5-0.1l-33.1-19.1c-2.4-1.4-4.3-4.9-4.3-8.1v-71l-5.1-6.7
		c-0.3-0.4-0.2-1.1,0.2-1.4c0,0,0.1,0,0.1-0.1l6.6-3.8c0,0,0.1,0,0.1-0.1c1.1-0.5,2.4-0.4,3.4,0.3l95.6,55.2
		c2.4,1.4,4.3,4.9,4.3,8.1v7.6c0,0.4-0.2,0.7-0.5,0.9l-66.2,38.2C276.1,147.8,276,147.8,275.8,147.8z M235.1,42.5l4.6,6
		c0.1,0.2,0.2,0.4,0.2,0.6v71.4c0,2.4,1.5,5.3,3.3,6.3l32.6,18.8L341,108V101c0-2.4-1.5-5.3-3.3-6.3l-95.6-55.2
		c-0.4-0.3-1-0.4-1.5-0.2c0,0-0.1,0-0.1,0L235.1,42.5z"/>
	<path class="st1" d="M265,140.6l-22.3-12.9c-2.1-1.2-3.8-4.4-3.8-7.2V49.1l-5.3-6.9l6.6-3.8l0,0c0.8-0.4,1.7-0.3,2.5,0.2l95.6,55.2
		c1.1,0.7,2.1,1.8,2.7,3L265,140.6z"/>
	<path class="st1" d="M236.1,42.4l95.6,55.2c2.1,1.2,3.8,4.4,3.8,7.2v79.1c0,2.8-1.7,4.1-3.8,2.8l-95.6-55.2
		c-2.1-1.2-3.8-4.4-3.8-7.2V45.2C232.3,42.5,234,41.2,236.1,42.4z"/>
	<path class="st2" d="M333.1,188.1c-0.7,0-1.4-0.2-2-0.6l-95.6-55.2c-2.4-1.4-4.3-4.9-4.3-8.1V45.2c-0.1-1.5,0.5-3,1.8-3.9
		c1.1-0.6,2.4-0.5,3.5,0.2l95.6,55.2c2.4,1.4,4.3,4.9,4.3,8.1v79.1c0.1,1.5-0.5,3-1.8,3.9C334.2,188,333.7,188.1,333.1,188.1z
		 M234.6,42.9c-0.2,0-0.3,0-0.5,0.1c-0.6,0.6-0.9,1.4-0.8,2.2v79.1c0,2.4,1.5,5.3,3.3,6.3l95.6,55.2c0.4,0.3,1,0.4,1.5,0.2
		c0.6-0.6,0.9-1.4,0.8-2.2v-79.1c0-2.4-1.5-5.3-3.3-6.3l-95.6-55.2C235.3,43.1,234.9,43,234.6,42.9z"/>
	<path class="st1" d="M232.3,52.9v-7.6c0-2.8,1.7-4.1,3.8-2.8l95.6,55.2c2.1,1.2,3.8,4.4,3.8,7.2v7.6L232.3,52.9z"/>
	<path class="st2" d="M335.4,113.4c-0.2,0-0.3,0-0.5-0.1L231.8,53.8c-0.3-0.2-0.5-0.5-0.5-0.9v-7.6c-0.1-1.5,0.5-3,1.8-3.9
		c1.1-0.6,2.4-0.5,3.5,0.2l95.6,55.2c2.4,1.4,4.3,4.9,4.3,8.1v7.6C336.4,113,336,113.4,335.4,113.4L335.4,113.4z M233.3,52.3
		l101.1,58.4v-5.9c0-2.4-1.5-5.3-3.3-6.3l-95.6-55.2c-0.4-0.3-1-0.4-1.5-0.2c-0.6,0.6-0.9,1.4-0.8,2.2L233.3,52.3z"/>
	<path class="st2" d="M333.1,188.1c-0.7,0-1.4-0.2-2-0.6l-95.6-55.2c-2.4-1.4-4.3-4.9-4.3-8.1V45.2c-0.1-1.4,0.4-2.8,1.5-3.7l0,0
		c0.1-0.1,0.1-0.1,0.2-0.1c0,0,0.1,0,0.1-0.1l6.6-3.8c0,0,0.1,0,0.1-0.1c1.1-0.5,2.4-0.4,3.4,0.3l95.6,55.2c2.4,1.4,4.3,4.9,4.3,8.1
		V180c0.1,1.5-0.5,2.9-1.7,3.8c0,0-0.1,0-0.1,0.1l-6.6,3.8c0,0-0.1,0-0.1,0.1C334.1,188,333.6,188.1,333.1,188.1z M233.4,42.3
		l0.6,0.8c-0.5,0.6-0.8,1.3-0.7,2.1v79.1c0,2.4,1.5,5.3,3.3,6.3l95.6,55.2c0.4,0.3,1,0.4,1.5,0.2l0.1,0l6.4-3.7c0,0,0.1,0,0.1-0.1
		c0.6-0.5,0.9-1.4,0.8-2.2V101c0-2.4-1.5-5.3-3.3-6.3l-95.6-55.2c-0.4-0.3-1-0.4-1.5-0.2c0,0-0.1,0-0.1,0l-6.4,3.7
		c0,0-0.1,0-0.1,0.1c0,0-0.1,0-0.1,0.1L233.4,42.3z"/>
	<polygon class="st3" points="323.4,126.6 314.6,136.4 305.9,136.1 297.1,116.7 288.3,121.6 279.5,120.9 270.8,115.9 262,106 
		253.2,100.9 244.4,86.2 244.4,124.6 323.4,170.2 	"/>
	<path class="st3" d="M323.4,171.2c-0.2,0-0.3,0-0.5-0.1l-79-45.6c-0.3-0.2-0.5-0.5-0.5-0.9V86.2c0-0.6,0.4-1,1-1
		c0.3,0,0.7,0.2,0.9,0.5l8.7,14.5l8.5,4.9c0.1,0.1,0.2,0.1,0.2,0.2l8.7,9.7l8.4,4.9l8.2,0.6l8.5-4.8c0.5-0.3,1.1-0.1,1.4,0.4
		c0,0,0,0.1,0,0.1l8.5,18.9l7.7,0.2l8.5-9.4c0.4-0.4,1-0.4,1.4-0.1c0.2,0.2,0.3,0.5,0.3,0.7v43.6
		C324.4,170.8,323.9,171.2,323.4,171.2L323.4,171.2z M245.4,124.1l77,44.4v-39.2l-7,7.8c-0.2,0.2-0.5,0.3-0.8,0.3l-8.8-0.3
		c-0.4,0-0.7-0.2-0.9-0.6l-8.3-18.5l-7.8,4.4c-0.2,0.1-0.4,0.1-0.6,0.1l-8.8-0.6c-0.2,0-0.3-0.1-0.4-0.1l-8.8-5.1
		c-0.1-0.1-0.2-0.1-0.2-0.2l-8.7-9.7l-8.6-5c-0.1-0.1-0.3-0.2-0.4-0.3l-7-11.6V124.1z"/>
	<path class="st2" d="M323.4,171.2c-0.2,0-0.3,0-0.5-0.1L244,125.5c-0.5-0.3-0.6-0.9-0.4-1.4s0.9-0.6,1.4-0.4l78.9,45.6
		c0.5,0.3,0.6,0.9,0.4,1.4C324.1,171,323.7,171.2,323.4,171.2z"/>
	<ellipse transform="matrix(0.9202 -0.3916 0.3916 0.9202 -0.7532 97.3881)" class="st2" cx="238.4" cy="50.5" rx="1.1" ry="1.9"/>
	<ellipse transform="matrix(0.9202 -0.3916 0.3916 0.9202 -1.4454 99.46)" class="st2" cx="243.2" cy="53.3" rx="1.1" ry="1.9"/>
	<ellipse transform="matrix(0.9202 -0.3916 0.3916 0.9202 -2.138 101.5317)" class="st2" cx="247.9" cy="56" rx="1.1" ry="1.9"/>
	<path class="st4" d="M205.6,58.4l6.6-3.8l0,0c0.8-0.4,1.7-0.3,2.5,0.2l95.6,55.2c2.1,1.2,3.8,4.4,3.8,7.2v79.1
		c0.1,1.2-0.4,2.3-1.3,3l0,0l-6.6,3.8l-6.4-10l-85.1-49.1c-2.1-1.2-3.8-4.4-3.8-7.2V65.3L205.6,58.4z"/>
	<path class="st0" d="M306.1,204.1c-0.3,0-0.7-0.2-0.8-0.5l-6.2-9.8l-84.9-49c-2.4-1.4-4.3-4.9-4.3-8.1v-71l-5.1-6.7
		c-0.3-0.4-0.2-1.1,0.2-1.4c0,0,0.1,0,0.1-0.1l6.6-3.8c0,0,0.1,0,0.1-0.1c1.1-0.5,2.4-0.4,3.3,0.3l95.6,55.2
		c2.4,1.4,4.3,4.9,4.3,8.1v79.1c0.1,1.5-0.5,2.9-1.7,3.8c0,0-0.1,0-0.1,0.1l-6.6,3.8C306.5,204,306.3,204.1,306.1,204.1z
		 M207.1,58.7l4.6,6c0.1,0.2,0.2,0.4,0.2,0.6v71.4c0,2.4,1.5,5.3,3.3,6.3l85.1,49.1c0.1,0.1,0.3,0.2,0.3,0.3l5.8,9.2l5.7-3.3
		l0.1-0.1c0.6-0.5,0.9-1.4,0.8-2.2v-79.1c0-2.4-1.5-5.3-3.3-6.3l-95.6-55.2c-0.4-0.3-1-0.4-1.5-0.2c0,0-0.1,0-0.1,0L207.1,58.7z"/>
	<path class="st4" d="M212.2,54.6c0.8-0.4,1.7-0.3,2.5,0.2l95.6,55.2c2.1,1.2,3.8,4.4,3.8,7.2v7.6L247.8,163l-33.1-19.1
		c-2.1-1.2-3.8-4.4-3.8-7.2V65.3l-5.3-6.9L212.2,54.6L212.2,54.6z"/>
	<path class="st0" d="M247.8,164c-0.2,0-0.3,0-0.5-0.1l-33.1-19.1c-2.4-1.4-4.3-4.9-4.3-8.1v-71l-5.1-6.7c-0.3-0.4-0.2-1.1,0.2-1.4
		c0,0,0.1,0,0.1-0.1l6.6-3.8c0,0,0.1,0,0.1-0.1c1.1-0.5,2.4-0.4,3.3,0.3l95.6,55.2c2.4,1.4,4.3,4.9,4.3,8.1v7.6
		c0,0.4-0.2,0.7-0.5,0.9l-66.2,38.2C248.1,164,248,164,247.8,164z M207.1,58.7l4.6,6c0.1,0.2,0.2,0.4,0.2,0.6v71.4
		c0,2.4,1.5,5.3,3.3,6.3l32.6,18.8l65.2-37.6v-7.1c0-2.4-1.5-5.3-3.3-6.3l-95.6-55.2c-0.4-0.3-1-0.4-1.5-0.2c0,0-0.1,0-0.1,0
		L207.1,58.7z"/>
	<path class="st1" d="M237,156.8l-22.3-12.9c-2.1-1.2-3.8-4.4-3.8-7.2V65.3l-5.3-6.9l6.6-3.8l0,0c0.8-0.4,1.7-0.3,2.5,0.2l95.6,55.2
		c1.1,0.7,2.1,1.8,2.7,3L237,156.8z"/>
	<path class="st1" d="M208.1,58.6l95.6,55.2c2.1,1.2,3.8,4.4,3.8,7.2V200c0,2.8-1.7,4.1-3.8,2.9l-95.6-55.2
		c-2.1-1.2-3.8-4.4-3.8-7.2V61.4C204.3,58.6,206,57.4,208.1,58.6z"/>
	<path class="st0" d="M305.1,204.3c-0.7,0-1.4-0.2-2-0.6l-95.6-55.2c-2.4-1.4-4.3-4.9-4.3-8.1V61.4c-0.1-1.5,0.5-3,1.8-3.9
		c1.1-0.6,2.4-0.5,3.5,0.2l95.6,55.2c2.4,1.4,4.3,4.9,4.3,8.1V200c0.1,1.5-0.5,3-1.8,3.9C306.2,204.2,305.7,204.3,305.1,204.3z
		 M206.6,59.1c-0.2,0-0.3,0-0.5,0.1c-0.6,0.6-0.9,1.4-0.8,2.2v79.1c0,2.4,1.5,5.3,3.3,6.3l95.6,55.2c0.4,0.3,1,0.4,1.5,0.2
		c0.6-0.6,0.9-1.4,0.8-2.2v-79.1c0-2.4-1.5-5.3-3.3-6.3l-95.6-55.2l0,0C207.3,59.2,206.9,59.1,206.6,59.1z"/>
	<path class="st4" d="M204.3,69.1v-7.6c0-2.8,1.7-4.1,3.8-2.8l95.6,55.2c2.1,1.2,3.8,4.4,3.8,7.2v7.6L204.3,69.1z"/>
	<path class="st0" d="M307.4,129.6c-0.2,0-0.3,0-0.5-0.1L203.8,69.9c-0.3-0.2-0.5-0.5-0.5-0.9v-7.6c-0.1-1.5,0.5-3,1.8-3.9
		c1.1-0.6,2.4-0.5,3.5,0.2l95.6,55.2c2.4,1.4,4.3,4.9,4.3,8.1v7.6C308.4,129.1,308,129.6,307.4,129.6L307.4,129.6z M205.3,68.5
		l101.1,58.4v-5.9c0-2.4-1.5-5.3-3.3-6.3l-95.6-55.2c-0.4-0.3-1-0.4-1.5-0.2c-0.6,0.6-0.9,1.4-0.8,2.2L205.3,68.5z"/>
	<ellipse transform="matrix(0.9202 -0.3916 0.3916 0.9202 -9.3198 87.7139)" class="st0" cx="210.4" cy="66.7" rx="1.1" ry="1.9"/>
	<ellipse transform="matrix(0.9202 -0.3916 0.3916 0.9202 -10.0118 89.7861)" class="st0" cx="215.1" cy="69.4" rx="1.1" ry="1.9"/>
	<ellipse transform="matrix(0.9202 -0.3916 0.3916 0.9202 -10.704 91.8579)" class="st0" cx="219.9" cy="72.2" rx="1.1" ry="1.9"/>
	<path class="st5" d="M305.1,204.3c-0.7,0-1.4-0.2-2-0.6l-95.6-55.2c-2.4-1.4-4.3-4.9-4.3-8.1V61.4c-0.1-1.4,0.4-2.8,1.5-3.7l0,0
		c0.1,0,0.1-0.1,0.2-0.1c0,0,0.1,0,0.1-0.1l6.6-3.8c0,0,0.1,0,0.1-0.1c1.1-0.5,2.4-0.4,3.3,0.3l95.6,55.2c2.4,1.4,4.3,4.9,4.3,8.1
		v79.1c0.1,1.5-0.5,2.9-1.7,3.8c0,0-0.1,0-0.1,0.1l-6.6,3.8c0,0-0.1,0-0.1,0.1C306.1,204.2,305.6,204.3,305.1,204.3z M206,59.3
		c-0.5,0.6-0.8,1.3-0.7,2.1v79.1c0,2.4,1.5,5.3,3.3,6.3l95.6,55.2c0.4,0.3,1,0.4,1.5,0.2c0,0,0.1,0,0.1,0l6.4-3.7l0.1-0.1
		c0.6-0.5,0.9-1.4,0.8-2.2v-79.1c0-2.4-1.5-5.3-3.3-6.3l-95.6-55.2c-0.4-0.3-1-0.4-1.5-0.2c0,0-0.1,0-0.1,0l-6.4,3.7
		c0,0-0.1,0-0.1,0.1C206.1,59.2,206,59.3,206,59.3z"/>
	<polygon class="st4" points="295.4,167.2 286.6,152.6 277.9,152.3 269.1,132.8 260.3,137.7 251.5,137.1 242.8,132 234,122.2 
		225.2,117.1 216.4,102.4 216.4,140.8 295.4,186.4 	"/>
	<path class="st4" d="M295.4,187.4c-0.2,0-0.3,0-0.5-0.1l-79-45.6c-0.3-0.2-0.5-0.5-0.5-0.9v-38.4c0-0.6,0.4-1,1-1
		c0.3,0,0.7,0.2,0.9,0.5l8.7,14.5l8.5,4.9c0.1,0.1,0.2,0.1,0.2,0.2l8.7,9.7l8.4,4.9l8.2,0.6l8.5-4.8c0.5-0.3,1.1-0.1,1.4,0.4
		c0,0,0,0.1,0,0.1l8.5,18.9l8.1,0.2c0.3,0,0.7,0.2,0.8,0.5l8.8,14.7c0.1,0.2,0.1,0.3,0.1,0.5v19.2
		C296.4,186.9,295.9,187.4,295.4,187.4L295.4,187.4z M217.4,140.2l77,44.4v-17.2l-8.3-13.9l-8.2-0.3c-0.4,0-0.7-0.2-0.9-0.6
		l-8.3-18.5l-7.8,4.4c-0.2,0.1-0.4,0.1-0.6,0.1l-8.8-0.6c-0.2,0-0.3-0.1-0.4-0.1l-8.8-5.1c-0.1-0.1-0.2-0.1-0.2-0.2l-8.7-9.7l-8.6-5
		c-0.1-0.1-0.3-0.2-0.4-0.3l-7-11.6V140.2z"/>
	<path class="st0" d="M295.4,187.4c-0.2,0-0.3,0-0.5-0.1l-78.9-45.6c-0.5-0.3-0.6-0.9-0.4-1.4s0.9-0.6,1.4-0.4l78.9,45.6
		c0.5,0.3,0.6,0.9,0.4,1.4C296.1,187.2,295.7,187.4,295.4,187.4L295.4,187.4z"/>
	<path class="st0" d="M216.4,141.8c-0.6,0-1-0.4-1-1V90c0-0.6,0.4-1,1-1s1,0.4,1,1v50.8C217.4,141.4,216.9,141.8,216.4,141.8z"/>
	<path class="st2" d="M123.4,206.9c-0.3,0-0.5-0.1-0.7-0.3c-0.2-0.2-0.3-0.4-0.3-0.7c0-0.3,0.1-0.5,0.3-0.7c0.1-0.1,0.2-0.2,0.3-0.2
		c0.2-0.1,0.5-0.1,0.8,0c0.1,0,0.2,0.1,0.3,0.2c0.2,0.2,0.3,0.4,0.3,0.7c0,0.3-0.1,0.5-0.3,0.7C123.9,206.8,123.7,206.9,123.4,206.9
		z"/>
	<path class="st2" d="M91.8,224.2c-0.3-0.5-0.1-1.1,0.4-1.4l0,0c0.5-0.3,1.1-0.1,1.4,0.4c0,0,0,0,0,0l0,0c0.3,0.5,0.1,1.1-0.4,1.4
		c0,0,0,0,0,0l0,0c-0.2,0.1-0.3,0.1-0.5,0.1l0,0C92.3,224.7,91.9,224.5,91.8,224.2z M96.9,221.2c-0.3-0.5-0.1-1.1,0.4-1.4
		c0,0,0,0,0,0l0,0c0.5-0.3,1.1-0.1,1.4,0.4l0,0c0.3,0.5,0.1,1.1-0.4,1.4l0,0c-0.2,0.1-0.3,0.1-0.5,0.1l0,0
		C97.4,221.7,97.1,221.5,96.9,221.2L96.9,221.2z M102,218.2c-0.3-0.5-0.1-1.1,0.3-1.4c0,0,0,0,0,0l0,0c0.5-0.3,1.1-0.1,1.4,0.4l0,0
		c0.3,0.5,0.1,1.1-0.4,1.4l0,0c-0.2,0.1-0.3,0.1-0.5,0.1l0,0C102.5,218.7,102.2,218.5,102,218.2L102,218.2z M107.2,215.3
		c-0.3-0.5-0.1-1.1,0.3-1.3c0,0,0,0,0,0l0,0c0.5-0.3,1.1-0.1,1.4,0.4c0,0,0,0,0,0l0,0c0.3,0.5,0.1,1.1-0.4,1.4l0,0
		c-0.2,0.1-0.3,0.1-0.5,0.1l0,0C107.7,215.8,107.3,215.6,107.2,215.3L107.2,215.3z M112.3,212.3c-0.3-0.5-0.1-1.1,0.4-1.4
		c0,0,0,0,0,0l0,0c0.5-0.3,1.1-0.1,1.4,0.4l0,0c0.3,0.5,0.1,1.1-0.4,1.4l0,0c-0.2,0.1-0.3,0.1-0.5,0.1l0,0
		C112.8,212.8,112.5,212.6,112.3,212.3L112.3,212.3z M117.4,209.4c-0.3-0.5-0.1-1.1,0.4-1.4c0,0,0,0,0,0l0,0
		c0.5-0.3,1.1-0.1,1.4,0.4l0,0c0.3,0.5,0.1,1.1-0.4,1.4l0,0c-0.2,0.1-0.3,0.1-0.5,0.1l0,0C117.9,209.9,117.6,209.7,117.4,209.4
		L117.4,209.4z"/>
	<path class="st2" d="M87.5,227.6c-0.3,0-0.5-0.1-0.7-0.3c-0.2-0.2-0.3-0.4-0.3-0.7c0-0.3,0.1-0.5,0.3-0.7c0.4-0.4,1-0.4,1.4,0
		c0.2,0.2,0.3,0.4,0.3,0.7c0,0.3-0.1,0.5-0.3,0.7c-0.1,0.1-0.2,0.2-0.3,0.2C87.8,227.6,87.6,227.6,87.5,227.6z"/>
	<path class="st2" d="M156.7,243.1c-0.5,0-1-0.5-1-1c0-0.1,0-0.3,0.1-0.4c0-0.1,0.1-0.2,0.2-0.3c0.4-0.4,1-0.4,1.4,0
		c0.1,0.1,0.2,0.2,0.2,0.3c0,0.1,0.1,0.3,0.1,0.4c0,0.3-0.1,0.5-0.3,0.7c-0.1,0.1-0.2,0.2-0.3,0.2
		C156.9,243.1,156.8,243.1,156.7,243.1z"/>
	<path class="st2" d="M140.6,252.2c-0.3-0.5-0.1-1.1,0.3-1.4c0,0,0,0,0,0l0,0c0.5-0.3,1.1-0.2,1.4,0.3c0,0,0,0,0,0l0,0
		c0.3,0.5,0.2,1.1-0.3,1.4c0,0,0,0,0,0l0,0c-0.2,0.1-0.3,0.1-0.5,0.1l0,0C141.1,252.7,140.8,252.5,140.6,252.2z M145.7,249
		c-0.3-0.5-0.2-1.1,0.3-1.4c0,0,0,0,0,0l0,0c0.5-0.3,1.1-0.1,1.4,0.3c0,0,0,0,0,0l0,0c0.3,0.5,0.2,1.1-0.3,1.4c0,0,0,0,0,0l0,0
		c-0.2,0.1-0.3,0.1-0.5,0.1l0,0C146.2,249.5,145.9,249.3,145.7,249L145.7,249z M150.7,245.8c-0.3-0.5-0.1-1.1,0.3-1.4c0,0,0,0,0,0
		l0,0c0.5-0.3,1.1-0.2,1.4,0.3c0,0,0,0,0,0l0,0c0.3,0.5,0.2,1.1-0.3,1.4c0,0,0,0,0,0l0,0c-0.2,0.1-0.3,0.1-0.5,0.1l0,0
		C151.2,246.3,150.9,246.1,150.7,245.8z"/>
	<path class="st2" d="M136.4,255.8c-0.1,0-0.3,0-0.4-0.1c-0.1-0.1-0.2-0.1-0.3-0.2c-0.3-0.3-0.4-0.7-0.2-1.1
		c0.1-0.1,0.1-0.2,0.2-0.3c0.2-0.2,0.6-0.3,0.9-0.3c0.1,0,0.1,0,0.2,0.1c0.1,0,0.1,0,0.2,0.1c0.1,0,0.1,0.1,0.2,0.1
		c0.1,0.1,0.2,0.2,0.2,0.3c0.1,0.1,0.1,0.2,0.1,0.4c0,0.3-0.1,0.5-0.3,0.7C136.9,255.7,136.6,255.8,136.4,255.8z"/>
	<path class="st2" d="M130.5,228c-0.3,0-0.5-0.1-0.7-0.3c-0.1-0.1-0.2-0.2-0.2-0.3c-0.1-0.4-0.1-0.8,0.2-1.1c0.4-0.4,1-0.4,1.4,0
		c0.1,0.1,0.2,0.2,0.2,0.3c0.1,0.1,0.1,0.3,0.1,0.4c0,0.3-0.1,0.5-0.3,0.7C131,227.9,130.7,228,130.5,228z"/>
	<path class="st2" d="M114.4,237.1c-0.3-0.5-0.2-1.1,0.3-1.4c0,0,0,0,0,0l0,0c0.5-0.3,1.1-0.2,1.4,0.3c0,0,0,0,0,0l0,0
		c0.3,0.5,0.2,1.1-0.3,1.4c0,0,0,0,0,0l0,0c-0.2,0.1-0.3,0.1-0.5,0.1l0,0C114.9,237.5,114.6,237.4,114.4,237.1z M119.5,233.9
		c-0.3-0.5-0.2-1.1,0.3-1.4c0,0,0,0,0,0l0,0c0.5-0.3,1.1-0.2,1.4,0.3c0,0,0,0,0,0l0,0c0.3,0.5,0.2,1.1-0.3,1.4c0,0,0,0,0,0l0,0
		c-0.2,0.1-0.3,0.2-0.5,0.2l0,0C120,234.4,119.6,234.2,119.5,233.9z M124.5,230.7c-0.3-0.5-0.2-1.1,0.3-1.4c0,0,0,0,0,0l0,0
		c0.5-0.3,1.1-0.2,1.4,0.3c0,0,0,0,0,0l0,0c0.3,0.5,0.2,1.1-0.3,1.4c0,0,0,0,0,0l0,0c-0.2,0.1-0.3,0.1-0.5,0.1l0,0
		C125,231.2,124.7,231,124.5,230.7z"/>
	<path class="st2" d="M110.2,240.7c-0.3,0-0.5-0.1-0.7-0.3c-0.2-0.2-0.3-0.4-0.3-0.7c0-0.1,0-0.3,0.1-0.4c0.1-0.1,0.1-0.2,0.2-0.3
		c0.4-0.4,1-0.4,1.4,0c0.1,0.1,0.2,0.2,0.2,0.3c0.2,0.5,0,1.1-0.5,1.3C110.4,240.7,110.3,240.7,110.2,240.7z"/>
	<path class="st0" d="M186.3,236.1c-0.3,0-0.5-0.1-0.7-0.3c-0.1-0.1-0.2-0.2-0.2-0.3c0-0.1-0.1-0.3-0.1-0.4c0-0.5,0.4-1,1-1
		c0.1,0,0.1,0,0.2,0c0.1,0,0.1,0,0.2,0.1c0.1,0,0.1,0.1,0.2,0.1c0.1,0,0.1,0.1,0.2,0.1c0.2,0.2,0.3,0.4,0.3,0.7c0,0.1,0,0.3-0.1,0.4
		c-0.1,0.1-0.1,0.2-0.2,0.3C186.9,236,186.6,236.2,186.3,236.1z"/>
	<path class="st0" d="M195.7,241.7c-0.5-0.3-0.6-0.9-0.4-1.3c0,0,0,0,0,0l0,0c0.3-0.5,0.9-0.6,1.4-0.4l0,0c0.5,0.3,0.6,0.9,0.4,1.4
		l0,0c-0.2,0.3-0.5,0.5-0.9,0.5l0,0C196,241.8,195.8,241.8,195.7,241.7z M190.8,238.8c-0.5-0.3-0.6-0.9-0.4-1.4c0,0,0,0,0,0l0,0
		c0.3-0.5,0.9-0.6,1.4-0.4l0,0c0.5,0.3,0.6,0.9,0.4,1.4l0,0c-0.2,0.3-0.5,0.5-0.9,0.5l0,0C191.1,239,190.9,238.9,190.8,238.8
		L190.8,238.8z"/>
	<path class="st0" d="M201.1,244.6c-0.3,0-0.5-0.1-0.7-0.3c-0.3-0.3-0.4-0.7-0.2-1.1c0-0.1,0.1-0.2,0.2-0.3c0.3-0.3,0.7-0.4,1.1-0.2
		c0.1,0,0.2,0.1,0.3,0.2c0.1,0.1,0.2,0.2,0.2,0.3c0.1,0.2,0.1,0.5,0,0.8c0,0.1-0.1,0.2-0.2,0.3C201.6,244.5,201.3,244.7,201.1,244.6
		z"/>
	<path class="st0" d="M163.4,265.4c-0.3-0.5-0.1-1.1,0.4-1.4l0,0c0.5-0.3,1.1-0.1,1.4,0.4l0,0c0.3,0.5,0.1,1.1-0.4,1.4l0,0
		c-0.1,0.1-0.3,0.1-0.5,0.1l0,0C163.9,265.9,163.6,265.7,163.4,265.4z M168.7,262.4c-0.3-0.5-0.1-1.1,0.4-1.4c0,0,0,0,0,0l0,0
		c0.5-0.3,1.1-0.1,1.4,0.4l0,0c0.3,0.5,0.1,1.1-0.4,1.4l0,0c-0.2,0.1-0.3,0.1-0.5,0.1l0,0C169.2,262.9,168.8,262.7,168.7,262.4z
		 M173.9,259.3c-0.3-0.5-0.1-1.1,0.4-1.4l0,0c0.5-0.3,1.1-0.1,1.4,0.4l0,0c0.3,0.5,0.1,1.1-0.4,1.4l0,0c-0.2,0.1-0.3,0.1-0.5,0.1
		l0,0C174.4,259.8,174.1,259.6,173.9,259.3z M179.2,256.3c-0.3-0.5-0.1-1.1,0.4-1.4l0,0c0.5-0.3,1.1-0.1,1.4,0.4c0,0,0,0,0,0l0,0
		c0.3,0.5,0.1,1.1-0.4,1.4c0,0,0,0,0,0l0,0c-0.2,0.1-0.3,0.1-0.5,0.1l0,0C179.7,256.8,179.4,256.6,179.2,256.3z M184.4,253.3
		c-0.3-0.5-0.1-1.1,0.4-1.4l0,0c0.5-0.3,1.1-0.1,1.4,0.4c0,0,0,0,0,0l0,0c0.3,0.5,0.1,1.1-0.4,1.4l0,0c-0.2,0.1-0.3,0.1-0.5,0.1l0,0
		C184.9,253.7,184.6,253.6,184.4,253.3L184.4,253.3z M189.7,250.2c-0.3-0.5-0.1-1.1,0.4-1.4l0,0c0.5-0.3,1.1-0.1,1.4,0.4l0,0
		c0.3,0.5,0.1,1.1-0.4,1.4c0,0,0,0,0,0l0,0c-0.1,0.1-0.3,0.1-0.5,0.1l0,0C190.2,250.7,189.9,250.5,189.7,250.2L189.7,250.2z
		 M194.9,247.2c-0.3-0.5-0.1-1.1,0.4-1.4l0,0c0.5-0.3,1.1-0.1,1.4,0.4c0,0,0,0,0,0l0,0c0.3,0.5,0.1,1.1-0.4,1.4l0,0
		c-0.2,0.1-0.3,0.1-0.5,0.1l0,0C195.5,247.7,195.1,247.5,194.9,247.2L194.9,247.2z"/>
	<path class="st0" d="M159,268.9c-0.3,0-0.5-0.1-0.7-0.3c-0.1-0.1-0.2-0.2-0.2-0.3c0-0.1-0.1-0.3-0.1-0.4c0-0.1,0-0.3,0.1-0.4
		c0.2-0.5,0.8-0.7,1.3-0.5c0.1,0,0.2,0.1,0.3,0.2c0.2,0.2,0.3,0.4,0.3,0.7c0,0.1,0,0.3-0.1,0.4c-0.1,0.1-0.1,0.2-0.2,0.3
		C159.5,268.8,159.3,268.9,159,268.9z"/>
	<polygon class="st3" points="207.4,223 165.4,247.2 165.4,233.2 207.4,209 	"/>
	<path class="st2" d="M165.4,248.2c-0.6,0-1-0.4-1-1l0-14c0-0.4,0.2-0.7,0.5-0.9l42-24.2c0.5-0.3,1.1-0.1,1.4,0.4
		c0.1,0.2,0.1,0.3,0.1,0.5l0,14c0,0.4-0.2,0.7-0.5,0.9l-42,24.2C165.7,248.2,165.5,248.2,165.4,248.2z M166.4,233.8l0,11.7l40-23
		l0-11.7L166.4,233.8z"/>
	<polygon class="st1" points="123.4,222.9 165.4,247.2 165.4,233.2 123.5,208.9 	"/>
	<path class="st2" d="M165.4,248.2c-0.2,0-0.3,0-0.5-0.1l-41.9-24.3c-0.3-0.2-0.5-0.5-0.5-0.9l0-14c0-0.6,0.4-1,1-1
		c0.2,0,0.3,0,0.5,0.1l41.9,24.3c0.3,0.2,0.5,0.5,0.5,0.9l0,14C166.4,247.8,165.9,248.2,165.4,248.2L165.4,248.2z M124.4,222.3
		l39.9,23.1l0-11.7l-39.9-23.1L124.4,222.3z"/>
	<polygon class="st1" points="207.4,209 165.5,184.8 123.5,208.9 165.4,233.2 	"/>
	<path class="st2" d="M165.4,234.2c-0.2,0-0.3,0-0.5-0.1L123,209.8c-0.5-0.3-0.6-0.9-0.4-1.4c0.1-0.2,0.2-0.3,0.4-0.4l42-24.2
		c0.3-0.2,0.7-0.2,1,0l41.9,24.3c0.5,0.3,0.6,0.9,0.4,1.4c-0.1,0.2-0.2,0.3-0.4,0.4l-42,24.2C165.7,234.2,165.6,234.2,165.4,234.2z
		 M125.5,208.9l39.9,23.1l40-23l-39.9-23.1L125.5,208.9z"/>
	<path class="st2" d="M186.4,222.1c-0.2,0-0.3,0-0.5-0.1l-21-12.1c-0.5-0.3-0.6-0.9-0.4-1.4c0.1-0.2,0.2-0.3,0.4-0.4l21-12.1
		c0.3-0.2,0.7-0.2,1,0l21,12.1c0.5,0.3,0.6,0.9,0.4,1.4c-0.1,0.2-0.2,0.3-0.4,0.4l-21,12.1C186.7,222.1,186.6,222.1,186.4,222.1z
		 M167.4,209l19,11l19-10.9l-19-11L167.4,209z"/>
	<path class="st2" d="M165.4,234.2c-0.2,0-0.3,0-0.5-0.1L123,209.8c-0.5-0.3-0.6-0.9-0.4-1.4c0.1-0.2,0.2-0.3,0.4-0.4l42-24.2
		c0.3-0.2,0.7-0.2,1,0l41.9,24.3c0.5,0.3,0.6,0.9,0.4,1.4c-0.1,0.2-0.2,0.3-0.4,0.4l-42,24.2C165.7,234.2,165.6,234.2,165.4,234.2z
		 M125.5,208.9l39.9,23.1l40-23l-39.9-23.1L125.5,208.9z"/>
	<path class="st2" d="M186.4,236.1c-0.6,0-1-0.4-1-1v-14c0-0.6,0.4-1,1-1s1,0.4,1,1v14C187.4,235.7,186.9,236.1,186.4,236.1z"/>
	<path class="st2" d="M186.4,213.5c-4,0-7.1-2-7.1-4.5s3.1-4.5,7.1-4.5s7.1,2,7.1,4.5S190.3,213.5,186.4,213.5z M186.4,206.5
		c-3,0-5.1,1.3-5.1,2.5s2.1,2.5,5.1,2.5s5.1-1.3,5.1-2.5S189.3,206.5,186.4,206.5z"/>
	<ellipse class="st3" cx="165.4" cy="191" rx="2" ry="1.2"/>
	<ellipse class="st3" cx="134.2" cy="208.9" rx="2" ry="1.2"/>
	<ellipse class="st3" cx="165.4" cy="227" rx="2" ry="1.2"/>
	<path class="st6" d="M165.4,248.2c-0.2,0-0.3,0-0.5-0.1l-41.9-24.3c-0.3-0.2-0.5-0.5-0.5-0.9l0-14c0-0.4,0.2-0.7,0.5-0.9l42-24.2
		c0.3-0.2,0.7-0.2,1,0l21,12.1l0,0l21,12.1c0.3,0.2,0.5,0.5,0.5,0.9l0,14c0,0.4-0.2,0.7-0.5,0.9l-42,24.2
		C165.7,248.2,165.5,248.2,165.4,248.2z M124.4,222.3l40.9,23.7l41-23.6l0-12.8l-40.9-23.7l-41,23.6L124.4,222.3z"/>
	<polygon class="st3" points="207.4,209 165.4,233.2 165.4,219.2 207.4,195.1 	"/>
	<path class="st2" d="M165.4,234.2c-0.6,0-1-0.4-1-1l0-14c0-0.4,0.2-0.7,0.5-0.9l42-24.2c0.5-0.3,1.1-0.1,1.4,0.4
		c0.1,0.2,0.1,0.3,0.1,0.5l0,14c0,0.4-0.2,0.7-0.5,0.9l-42,24.2C165.7,234.2,165.6,234.2,165.4,234.2z M166.4,219.8l0,11.7l40-23
		l0-11.7L166.4,219.8z"/>
	<polygon class="st1" points="123.5,208.9 165.4,233.2 165.4,219.2 123.5,194.9 	"/>
	<path class="st2" d="M165.4,234.2c-0.2,0-0.3,0-0.5-0.1L123,209.8c-0.3-0.2-0.5-0.5-0.5-0.9l0-14c0-0.4,0.2-0.7,0.5-0.9
		c0.3-0.2,0.7-0.2,1,0l41.9,24.3c0.3,0.2,0.5,0.5,0.5,0.9l0,14C166.4,233.8,165.9,234.2,165.4,234.2L165.4,234.2z M124.5,208.4
		l39.9,23.1l0-11.7l-39.9-23.1L124.5,208.4z"/>
	<polygon class="st1" points="207.4,195.1 165.5,170.8 123.5,194.9 165.4,219.2 	"/>
	<path class="st2" d="M165.4,220.2c-0.2,0-0.3,0-0.5-0.1L123,195.8c-0.5-0.3-0.6-0.9-0.4-1.4c0.1-0.2,0.2-0.3,0.4-0.4l42-24.2
		c0.3-0.2,0.7-0.2,1,0l41.9,24.3c0.5,0.3,0.6,0.9,0.4,1.4c-0.1,0.2-0.2,0.3-0.4,0.4l-42,24.2C165.7,220.2,165.6,220.2,165.4,220.2z
		 M125.5,194.9l39.9,23.1l40-23l-39.9-23.1L125.5,194.9z"/>
	<path class="st2" d="M186.4,208.1c-0.2,0-0.3,0-0.5-0.1l-21-12.1c-0.5-0.3-0.6-0.9-0.4-1.4c0.1-0.2,0.2-0.3,0.4-0.4l21-12.1
		c0.3-0.2,0.7-0.2,1,0l21,12.1c0.5,0.3,0.6,0.9,0.4,1.4c-0.1,0.2-0.2,0.3-0.4,0.4l-21,12.1C186.7,208.1,186.6,208.1,186.4,208.1z
		 M167.4,195l19,11l19-10.9l-19-11L167.4,195z"/>
	<path class="st2" d="M165.4,220.2c-0.2,0-0.3,0-0.5-0.1L123,195.8c-0.5-0.3-0.6-0.9-0.4-1.4c0.1-0.2,0.2-0.3,0.4-0.4l42-24.2
		c0.3-0.2,0.7-0.2,1,0l41.9,24.3c0.5,0.3,0.6,0.9,0.4,1.4c-0.1,0.2-0.2,0.3-0.4,0.4l-42,24.2C165.7,220.2,165.6,220.2,165.4,220.2z
		 M125.5,194.9l39.9,23.1l40-23l-39.9-23.1L125.5,194.9z"/>
	<path class="st2" d="M186.4,222.2c-0.6,0-1-0.4-1-1v-14c0-0.6,0.4-1,1-1s1,0.4,1,1v14C187.4,221.7,187,222.2,186.4,222.2z"/>
	<path class="st2" d="M186.4,199.6c-4,0-7.1-2-7.1-4.5s3.1-4.5,7.1-4.5s7.1,2,7.1,4.5S190.3,199.6,186.4,199.6z M186.4,192.6
		c-3,0-5.1,1.3-5.1,2.5s2.1,2.5,5.1,2.5s5.1-1.3,5.1-2.5S189.4,192.6,186.4,192.6z"/>
	<ellipse class="st3" cx="165.5" cy="177" rx="2" ry="1.2"/>
	<ellipse class="st3" cx="134.2" cy="195" rx="2" ry="1.2"/>
	<ellipse class="st3" cx="165.4" cy="213" rx="2" ry="1.2"/>
	<path class="st6" d="M165.4,234.2c-0.2,0-0.3,0-0.5-0.1L123,209.8c-0.3-0.2-0.5-0.5-0.5-0.9l0-14c0-0.4,0.2-0.7,0.5-0.9l42-24.2
		c0.3-0.2,0.7-0.2,1,0l21,12.1l0,0l21,12.1c0.3,0.2,0.5,0.5,0.5,0.9l0,14c0,0.4-0.2,0.7-0.5,0.9l-42,24.2
		C165.7,234.2,165.6,234.2,165.4,234.2z M124.5,208.4l40.9,23.7l41-23.6l0-12.8l-40.9-23.7l-41,23.6L124.5,208.4z"/>
	<polygon class="st3" points="207.4,195.1 165.4,219.2 165.4,205.2 207.4,181.1 	"/>
	<path class="st2" d="M165.4,220.2c-0.6,0-1-0.4-1-1l0-14c0-0.4,0.2-0.7,0.5-0.9l42-24.2c0.5-0.3,1.1-0.1,1.4,0.4
		c0.1,0.2,0.1,0.3,0.1,0.5l0,14c0,0.4-0.2,0.7-0.5,0.9l-42,24.2C165.7,220.2,165.6,220.2,165.4,220.2z M166.4,205.8l0,11.7l40-23
		l0-11.7L166.4,205.8z"/>
	<polygon class="st3" points="207.4,195.1 207.4,181.1 186.4,193.2 186.4,207.1 	"/>
	<path class="st2" d="M186.4,208.1c-0.6,0-1-0.4-1-1v-14c0-0.4,0.2-0.7,0.5-0.9l21-12.1c0.5-0.3,1.1-0.1,1.4,0.4
		c0.1,0.2,0.1,0.3,0.1,0.5l0,14c0,0.4-0.2,0.7-0.5,0.9l-21,12.1C186.7,208.1,186.6,208.1,186.4,208.1z M187.4,193.7v11.7l19-10.9
		l0-11.7L187.4,193.7z"/>
	<polygon class="st1" points="123.5,194.9 165.4,219.2 165.4,205.2 123.5,181 	"/>
	<path class="st2" d="M165.4,220.2c-0.2,0-0.3,0-0.5-0.1L123,195.8c-0.3-0.2-0.5-0.5-0.5-0.9l0-14c0-0.6,0.4-1,1-1
		c0.2,0,0.3,0,0.5,0.1l41.9,24.3c0.3,0.2,0.5,0.5,0.5,0.9l0,14C166.4,219.8,165.9,220.2,165.4,220.2L165.4,220.2z M124.5,194.4
		l39.9,23.1l0-11.7l-39.9-23.1L124.5,194.4z"/>
	<polygon class="st1" points="207.4,181.1 165.5,156.8 123.5,181 165.4,205.2 	"/>
	<path class="st2" d="M165.4,206.2c-0.2,0-0.3,0-0.5-0.1L123,181.8c-0.5-0.3-0.6-0.9-0.4-1.4c0.1-0.2,0.2-0.3,0.4-0.4l42-24.2
		c0.3-0.2,0.7-0.2,1,0l41.9,24.3c0.5,0.3,0.6,0.9,0.4,1.4c-0.1,0.2-0.2,0.3-0.4,0.4l-42,24.2C165.7,206.2,165.6,206.2,165.4,206.2z
		 M125.5,181l39.9,23.1l40-23l-39.9-23.1L125.5,181z"/>
	<path class="st2" d="M186.4,194.2c-0.2,0-0.3,0-0.5-0.1l-21-12.1c-0.5-0.3-0.6-0.9-0.4-1.4c0.1-0.2,0.2-0.3,0.4-0.4l21-12.1
		c0.3-0.2,0.7-0.2,1,0l21,12.1c0.5,0.3,0.6,0.9,0.4,1.4c-0.1,0.2-0.2,0.3-0.4,0.4l-21,12.1C186.7,194.1,186.6,194.2,186.4,194.2z
		 M167.4,181l19,11l19-10.9l-19-11L167.4,181z"/>
	<path class="st2" d="M186.4,185.6c-4,0-7.1-2-7.1-4.5s3.1-4.5,7.1-4.5s7.1,2,7.1,4.5S190.3,185.6,186.4,185.6z M186.4,178.6
		c-3,0-5.1,1.3-5.1,2.5s2.1,2.5,5.1,2.5s5.1-1.3,5.1-2.5S189.4,178.6,186.4,178.6z"/>
	<ellipse class="st3" cx="165.5" cy="163" rx="2" ry="1.2"/>
	<ellipse class="st3" cx="134.2" cy="181" rx="2" ry="1.2"/>
	<ellipse class="st3" cx="165.4" cy="199" rx="2" ry="1.2"/>
	<path class="st6" d="M165.4,220.2c-0.2,0-0.3,0-0.5-0.1L123,195.8c-0.3-0.2-0.5-0.5-0.5-0.9l0-14c0-0.4,0.2-0.7,0.5-0.9l42-24.2
		c0.3-0.2,0.7-0.2,1,0l41.9,24.3c0.3,0.2,0.5,0.5,0.5,0.9l0,14c0,0.4-0.2,0.7-0.5,0.9l-42,24.2C165.7,220.2,165.6,220.2,165.4,220.2
		z M124.5,194.4l40.9,23.7l41-23.6l0-12.8l-40.9-23.7l-41,23.6L124.5,194.4z"/>
	<path class="st1" d="M76.3,236.4l-5.8-3.4c-0.4-0.1-0.6-0.6-0.5-0.9c0.1-0.2,0.2-0.4,0.5-0.5l5.8-3.4c0.8-0.4,1.7-0.4,2.4,0
		l5.8,3.4c0.4,0.1,0.6,0.6,0.5,0.9c-0.1,0.2-0.2,0.4-0.5,0.5l-5.8,3.4C78,236.8,77.1,236.8,76.3,236.4z"/>
	<path class="st2" d="M77.5,237.7c-0.6,0-1.2-0.1-1.7-0.4l0,0L70,234c-0.9-0.4-1.2-1.4-0.8-2.3c0.2-0.4,0.5-0.7,0.8-0.8l5.8-3.4
		c1.1-0.6,2.4-0.6,3.4,0l5.8,3.4c0.9,0.4,1.2,1.4,0.8,2.3c-0.2,0.4-0.5,0.7-0.8,0.8l-5.8,3.4C78.7,237.6,78.1,237.7,77.5,237.7z
		 M76.8,235.6c0.5,0.2,1,0.2,1.4,0l5.5-3.2l-5.5-3.2c-0.5-0.2-1-0.2-1.4,0l-5.5,3.2L76.8,235.6z"/>
	<path class="st3" d="M99,249.5l-5.8-3.4c-0.4-0.1-0.6-0.6-0.5-0.9c0.1-0.2,0.2-0.4,0.5-0.5l5.8-3.4c0.8-0.4,1.7-0.4,2.4,0l5.8,3.4
		c0.4,0.1,0.6,0.6,0.5,0.9c-0.1,0.2-0.2,0.4-0.5,0.5l-5.8,3.4C100.6,249.9,99.7,249.9,99,249.5z"/>
	<path class="st2" d="M100.2,250.8c-0.6,0-1.2-0.1-1.7-0.4l-5.8-3.4c-0.9-0.4-1.2-1.4-0.8-2.3c0.2-0.4,0.5-0.7,0.8-0.8l5.8-3.4
		c1.1-0.6,2.4-0.6,3.4,0l5.8,3.4c0.9,0.4,1.2,1.4,0.8,2.3c-0.2,0.4-0.5,0.7-0.8,0.8l-5.8,3.4C101.4,250.7,100.8,250.8,100.2,250.8z
		 M94,245.5l5.5,3.2l0,0c0.5,0.2,1,0.2,1.4,0l5.5-3.2l-5.5-3.2c-0.5-0.2-1-0.2-1.4,0L94,245.5z"/>
	<path class="st1" d="M125.2,264.7l-5.8-3.4c-0.4-0.1-0.6-0.6-0.5-0.9c0.1-0.2,0.2-0.4,0.5-0.5l5.8-3.4c0.8-0.4,1.7-0.4,2.4,0
		l5.8,3.4c0.4,0.1,0.6,0.6,0.5,0.9c-0.1,0.2-0.2,0.4-0.5,0.5l-5.8,3.4C126.9,265,126,265,125.2,264.7z"/>
	<path class="st2" d="M126.4,265.9c-0.6,0-1.2-0.1-1.7-0.4l0,0l-5.8-3.4c-0.9-0.4-1.2-1.4-0.8-2.3c0.2-0.4,0.5-0.7,0.8-0.8l5.8-3.4
		c1.1-0.6,2.4-0.6,3.4,0l5.8,3.4c0.9,0.4,1.2,1.4,0.8,2.3c-0.2,0.4-0.5,0.7-0.8,0.8l-5.8,3.4C127.6,265.8,127,266,126.4,265.9z
		 M125.7,263.8c0.5,0.2,1,0.2,1.4,0l5.5-3.2l-5.5-3.2c-0.5-0.2-1-0.2-1.4,0l-5.5,3.2L125.7,263.8z"/>
	<path class="st4" d="M147.8,277.7l-5.8-3.4c-0.4-0.1-0.6-0.6-0.5-0.9c0.1-0.2,0.2-0.4,0.5-0.5l5.8-3.4c0.8-0.4,1.7-0.4,2.4,0
		l5.8,3.4c0.4,0.1,0.6,0.6,0.5,0.9c-0.1,0.2-0.2,0.4-0.5,0.5l-5.8,3.4C149.5,278.1,148.6,278.1,147.8,277.7z"/>
	<path class="st0" d="M149.1,279c-0.6,0-1.2-0.1-1.7-0.4l0,0l-5.8-3.4c-0.9-0.4-1.2-1.4-0.8-2.3c0.2-0.4,0.5-0.7,0.8-0.8l5.8-3.4
		c1.1-0.6,2.4-0.6,3.4,0l5.8,3.4c0.9,0.4,1.2,1.4,0.8,2.3c-0.2,0.4-0.5,0.7-0.8,0.8l-5.8,3.4C150.3,278.9,149.7,279,149.1,279z
		 M148.3,276.9c0.5,0.2,1,0.2,1.4,0l5.5-3.2l-5.5-3.2c-0.5-0.2-1-0.2-1.4,0l-5.5,3.2L148.3,276.9z"/>
	<rect class="st7" width="440" height="300"/>
	<rect class="st7" width="440" height="300"/>
</g>
</svg>
