<?xml version="1.0" encoding="utf-8"?>
<!-- Generator: Adobe Illustrator 24.1.2, SVG Export Plug-In . SVG Version: 6.00 Build 0)  -->
<svg version="1.1" id="Layer_1" xmlns="http://www.w3.org/2000/svg" xmlns:xlink="http://www.w3.org/1999/xlink" x="0px" y="0px"
	 width="128px" height="128px" viewBox="0 0 128 128" style="enable-background:new 0 0 128 128;" xml:space="preserve">
<style type="text/css">
	.st0{fill:none;}
	.st1{fill:#E9EBDF;}
	.st2{fill:#FFFFFF;}
	.st3{fill:#4D9987;}
	.st4{fill:#0E352C;}
	.st5{fill:#C4D7D3;}
	.st6{fill:#27ae60;}
	.st7{fill:#185849;}
</style>
<g>
	<rect x="1" y="1" class="st0" width="126" height="126"/>
	<path class="st1" d="M110.9,70.4L66.3,44.6c-1.4-0.7-3.1-0.7-4.5,0L17.1,70.4c-0.5,0.2-0.9,0.7-0.9,1.3v7.8
		c0.1,0.6,0.4,1.1,0.9,1.3l44.7,25.8c1.4,0.7,3.1,0.7,4.5,0L111,80.8c0.5-0.2,0.9-0.7,0.9-1.3v-7.8
		C111.8,71.1,111.4,70.6,110.9,70.4z"/>
	<path class="st2" d="M64,44c-0.8,0-1.6,0.2-2.3,0.5L17.1,70.4c-0.5,0.2-0.9,0.7-0.9,1.3v7.8c0.1,0.6,0.4,1.1,0.9,1.3l44.7,25.8
		c0.7,0.4,1.5,0.6,2.3,0.5V44H64z"/>
	<path class="st2" d="M110.9,70.4L66.3,44.6c-1.4-0.7-3.1-0.7-4.5,0L17.1,70.4c-0.7,0.2-1.1,1-0.9,1.7c0.1,0.4,0.5,0.7,0.9,0.9
		l44.7,25.8c1.4,0.7,3.1,0.7,4.5,0L110.9,73c0.7-0.2,1.1-1,0.9-1.7C111.6,70.8,111.3,70.5,110.9,70.4z"/>
	<path class="st2" d="M110.9,70.4L66.3,44.6c-1.4-0.7-3.1-0.7-4.5,0L17.1,70.4c-0.7,0.2-1.1,1-0.9,1.7c0.1,0.4,0.5,0.7,0.9,0.9
		l44.7,25.8c1.4,0.7,3.1,0.7,4.5,0L110.9,73c0.7-0.2,1.1-1,0.9-1.7C111.6,70.8,111.3,70.5,110.9,70.4z"/>
	<path class="st3" d="M64,100.3c-1,0-1.9-0.2-2.8-0.7L16.6,73.8c-1.2-0.5-1.8-1.9-1.2-3.1c0.2-0.6,0.7-1,1.2-1.2l44.7-25.8
		c1.7-0.9,3.8-0.9,5.5,0l44.7,25.8l0,0c1.2,0.5,1.8,1.9,1.2,3.1c-0.2,0.6-0.7,1-1.2,1.2L66.8,99.6C65.9,100.1,65,100.3,64,100.3z
		 M64,45c-0.6,0-1.2,0.1-1.8,0.4L17.6,71.2c-0.3,0.2-0.4,0.4-0.4,0.4s0.1,0.3,0.4,0.4l44.7,25.8c1.1,0.5,2.4,0.5,3.5,0L110.5,72
		c0.3-0.2,0.4-0.4,0.4-0.4s-0.1-0.3-0.4-0.4L65.8,45.4C65.2,45.2,64.6,45,64,45z"/>
	<path class="st4" d="M64,108c-1,0-1.9-0.2-2.8-0.7L16.6,81.6c-0.8-0.4-1.4-1.2-1.4-2.2v-7.8c0-0.9,0.6-1.8,1.4-2.2l44.7-25.8
		c1.7-0.9,3.8-0.9,5.5,0l44.7,25.8l0,0c0.8,0.4,1.4,1.2,1.4,2.2v7.8c0,0.9-0.6,1.8-1.4,2.2l-44.7,25.8C65.9,107.8,65,108.1,64,108z
		 M64,45c-0.6,0-1.2,0.1-1.8,0.4L17.6,71.2c-0.3,0.2-0.4,0.4-0.4,0.4v7.8c0,0.1,0.1,0.3,0.4,0.4l44.7,25.8c1.1,0.5,2.4,0.5,3.5,0
		l44.7-25.8c0.3-0.2,0.4-0.4,0.4-0.4v-7.8c0-0.1-0.1-0.3-0.4-0.4L65.8,45.4C65.2,45.2,64.6,45,64,45L64,45z"/>
	<path class="st2" d="M73.9,83.9l-9.6-5.6c-0.2-0.1-0.4-0.1-0.6,0l-9.6,5.6l9.6,5.6c0.2,0.1,0.4,0.1,0.6,0L73.9,83.9z"/>
	<polygon class="st2" points="88.7,76.4 93,67.1 76.9,69.6 	"/>
	<polygon class="st2" points="39.5,65.8 35.2,75.1 51.3,72.6 	"/>
	<path class="st3" d="M64,90.6c-0.3,0-0.6-0.1-0.8-0.2l-9.6-5.6c-0.5-0.3-0.6-0.9-0.4-1.4c0.1-0.2,0.2-0.3,0.4-0.4l9.6-5.6
		c0.5-0.3,1.1-0.3,1.6,0l9.6,5.6c0.5,0.3,0.6,0.9,0.4,1.4c-0.1,0.2-0.2,0.3-0.4,0.4l-9.7,5.6C64.6,90.5,64.3,90.6,64,90.6z
		 M56.1,83.9l7.9,4.6l7.9-4.6L64,79.3L56.1,83.9z"/>
	<path class="st3" d="M88.7,77.4c-0.2,0-0.3,0-0.5-0.1l-11.8-6.8c-0.5-0.3-0.6-0.9-0.4-1.4c0.2-0.3,0.4-0.4,0.7-0.5l16.1-2.5
		c0.5-0.1,1.1,0.3,1.1,0.8c0,0.2,0,0.4-0.1,0.6l-4.3,9.3C89.4,77.2,89.1,77.4,88.7,77.4L88.7,77.4z M79.8,70.2l8.4,4.8l3.1-6.6
		L79.8,70.2z"/>
	<path class="st3" d="M35.2,76.1c-0.6,0-1-0.4-1-1c0-0.1,0-0.3,0.1-0.4l4.3-9.3c0.2-0.5,0.8-0.7,1.3-0.5H40l11.8,6.8
		c0.5,0.3,0.6,0.9,0.4,1.4c-0.2,0.3-0.4,0.4-0.7,0.5l-16.1,2.5C35.3,76.1,35.2,76.1,35.2,76.1z M39.9,67.2l-3.1,6.6L48.3,72
		L39.9,67.2z"/>
	<path class="st3" d="M64,65c-2.3,0-4.5-0.5-6.5-1.6c-1.9-1.1-3-2.7-3-4.3s1.1-3.2,3-4.3c4.1-2.1,8.9-2.1,13,0c1.9,1.1,3,2.7,3,4.3
		s-1.1,3.2-3,4.3C68.5,64.5,66.3,65.1,64,65z M64,55.2c-1.9,0-3.8,0.4-5.5,1.3c-1.3,0.7-2,1.7-2,2.6s0.7,1.9,2,2.6
		c3.5,1.7,7.6,1.7,11,0c1.3-0.7,2-1.7,2-2.6s-0.7-1.9-2-2.6C67.8,55.6,65.9,55.2,64,55.2z"/>
	<path class="st1" d="M70,60.6c0.5,0.3,0.9,0.6,1.3,1c1.9-1.9,1.4-4.3-1.3-5.9c-3.8-1.9-8.2-1.9-12,0c-2.8,1.6-3.2,4-1.3,5.9
		c0.4-0.4,0.9-0.7,1.3-1C61.8,58.6,66.2,58.6,70,60.6z"/>
	<path class="st3" d="M56.7,62.6c-0.3,0-0.5-0.1-0.7-0.3c-1-0.9-1.5-2.3-1.4-3.7c0.3-1.7,1.4-3.1,3-3.8c4.1-2.1,8.9-2.1,13,0
		c1.5,0.7,2.6,2.2,3,3.8c0.1,1.4-0.4,2.7-1.4,3.7c-0.4,0.4-1,0.4-1.4,0c-0.3-0.3-0.7-0.6-1.1-0.9l0,0c-3.5-1.7-7.6-1.7-11,0
		c-0.4,0.2-0.8,0.5-1.1,0.9C57.2,62.5,56.9,62.6,56.7,62.6z M70.5,59.7c0.2,0.1,0.5,0.3,0.7,0.5c0.2-0.4,0.3-0.8,0.3-1.3
		c-0.3-1-1-1.9-2-2.4c-3.5-1.7-7.6-1.7-11,0c-1,0.4-1.7,1.3-2,2.4c-0.1,0.4,0,0.9,0.3,1.3c0.2-0.2,0.5-0.3,0.7-0.5
		C61.6,57.6,66.4,57.6,70.5,59.7L70.5,59.7z"/>
	<path class="st5" d="M72.8,26.1V32c0,1.3-0.9,2.6-2.5,3.6c-3.9,2-8.5,2-12.4,0c-1.7-1-2.6-2.3-2.6-3.6v-5.9c0,1.3,0.9,2.6,2.6,3.6
		c3.9,2,8.5,2,12.4,0C72,28.6,72.8,27.4,72.8,26.1z"/>
	<path class="st2" d="M70.2,22.4c3.4,2,3.5,5.2,0,7.2c-3.9,2-8.5,2-12.4,0c-3.4-2-3.5-5.2,0-7.2C61.7,20.5,66.3,20.5,70.2,22.4z"/>
	<path class="st5" d="M70.3,29.6c-1.9,1-4.1,1.5-6.2,1.5V37c2.2,0,4.3-0.5,6.2-1.5c1.7-1,2.5-2.3,2.5-3.6V26
		C72.8,27.4,72,28.6,70.3,29.6z"/>
	<path class="st6" d="M64.1,32.1c-2.3,0-4.7-0.5-6.7-1.6s-3.1-2.7-3.1-4.5s1.1-3.3,3-4.4c4.2-2.2,9.2-2.2,13.4,0
		c2,1.1,3.1,2.7,3.1,4.5s-1.1,3.3-3,4.4C68.7,31.6,66.4,32.2,64.1,32.1z M64,22c-2,0-3.9,0.4-5.7,1.3c-1.3,0.8-2.1,1.7-2,2.7
		s0.7,2,2.1,2.7c3.6,1.8,7.8,1.8,11.4,0c1.3-0.8,2-1.7,2-2.7s-0.7-2-2.1-2.7l0,0C68,22.4,66,21.9,64,22z"/>
	<path class="st7" d="M64,38c-2.3,0-4.6-0.5-6.7-1.6c-2-1.2-3.1-2.7-3.1-4.5V26l0,0c0-1.7,1.1-3.2,3-4.4c4.2-2.2,9.2-2.2,13.4,0
		c1.7,0.8,2.9,2.4,3.1,4.3c0,0.1,0,0.1,0,0.2l0,0V32c0,1.7-1.1,3.3-3,4.4C68.7,37.5,66.4,38,64,38z M56.3,26.1v5.8
		c0,1,0.7,2,2.1,2.7c3.6,1.8,7.8,1.8,11.4,0c1.3-0.8,2-1.7,2-2.7v-5.4c0-0.1,0-0.2,0-0.3l0,0l0,0c0.1-1-0.7-2.1-2.1-2.9
		c-3.6-1.8-7.8-1.8-11.4,0C57,24.1,56.3,25,56.3,26.1L56.3,26.1C56.3,26,56.3,26.1,56.3,26.1z"/>
	<path class="st3" d="M54.5,51c0-0.6,0.4-1,1-1l0,0c0.6,0,1,0.4,1,1l0,0c0,0.6-0.4,1-1,1l0,0C55,52,54.5,51.6,54.5,51z M54.5,45
		c0-0.6,0.4-1,1-1l0,0c0.6,0,1,0.4,1,1l0,0c0,0.6-0.4,1-1,1l0,0C55,46,54.5,45.6,54.5,45z M54.5,39c0-0.6,0.4-1,1-1l0,0
		c0.6,0,1,0.4,1,1l0,0c0,0.6-0.4,1-1,1l0,0C55,40,54.5,39.6,54.5,39z"/>
	<path class="st3" d="M71.5,51c0-0.6,0.4-1,1-1l0,0c0.6,0,1,0.4,1,1l0,0c0,0.6-0.4,1-1,1l0,0C72,52,71.5,51.6,71.5,51z M71.5,45
		c0-0.6,0.4-1,1-1l0,0c0.6,0,1,0.4,1,1l0,0c0,0.6-0.4,1-1,1l0,0C72,46,71.5,45.6,71.5,45z M71.5,39c0-0.6,0.4-1,1-1l0,0
		c0.6,0,1,0.4,1,1l0,0c0,0.6-0.4,1-1,1l0,0C72,40,71.5,39.6,71.5,39z"/>
	<g>
		<rect class="st0" width="128" height="128"/>
	</g>
</g>
</svg>
